<?xml version="1.0" encoding="UTF-8"?>
<svg xmlns="http://www.w3.org/2000/svg" xmlns:xlink="http://www.w3.org/1999/xlink" width="256pt" height="256pt" viewBox="0 0 256 256" version="1.1">
<g id="surface2">
<rect x="0" y="0" width="256" height="256" style="fill:rgb(94.901961%,93.72549%,91.372549%);fill-opacity:1;stroke:none;"/>
<path style=" stroke:none;fill-rule:evenodd;fill:rgb(60%,70.196078%,80%);fill-opacity:1;" d="M -4 259 L -4 -4 L 259 -4 L -4 -4 L -4 259 L -4 -4 Z M -8238093.878906 5338345.335938 Z M -8238093.878906 5338345.335938 Z M -8238093.878906 5338345.335938 "/>
<path style="fill:none;stroke-width:1;stroke-linecap:round;stroke-linejoin:round;stroke:rgb(70.196078%,77.647059%,83.137255%);stroke-opacity:1;stroke-miterlimit:10;" d="M -4 259 L -4 -4 L 259 -4 L -4 -4 L -4 259 L -4 -4 L -4 259 "/>
<path style="fill:none;stroke-width:8;stroke-linecap:round;stroke-linejoin:round;stroke:rgb(75.686275%,70.980392%,61.568627%);stroke-opacity:1;stroke-miterlimit:10;" d="M 264 91.78125 L 255.660156 80.125 L 250.90625 74.117188 L 246.199219 69.355469 L 241.726563 66.542969 L 217.351563 53.1875 L 205.632813 46.539063 L 192.09375 36.570313 L 160.636719 11.390625 L 152.550781 5.925781 L 132.117188 -7.910156 L 130.628906 -9 "/>
<path style="fill:none;stroke-width:6;stroke-linecap:round;stroke-linejoin:round;stroke:rgb(100%,100%,100%);stroke-opacity:1;stroke-miterlimit:10;" d="M 264 91.78125 L 255.660156 80.125 L 250.90625 74.117188 L 246.199219 69.355469 L 241.726563 66.542969 L 217.351563 53.1875 L 205.632813 46.539063 L 192.09375 36.570313 L 160.636719 11.390625 L 152.550781 5.925781 L 132.117188 -7.910156 L 130.628906 -9 "/>
<path style="fill:none;stroke-width:3;stroke-linecap:round;stroke-linejoin:round;stroke:rgb(100%,100%,100%);stroke-opacity:1;stroke-miterlimit:10;" d="M 176.097656 18.632813 L 179.347656 21.226563 L 178.769531 21.929688 L 176.300781 19.945313 L 174.832031 21.789063 L 177.050781 23.570313 L 176.472656 24.289063 L 174.253906 22.507813 L 171.863281 25.492188 L 171.082031 24.882813 Z M 180.457031 25.5625 C 180.089844 25.261719 179.667969 25.1875 179.191406 25.34375 C 178.710938 25.492188 178.246094 25.84375 177.800781 26.40625 C 177.351563 26.96875 177.105469 27.496094 177.066406 27.984375 C 177.023438 28.484375 177.183594 28.882813 177.550781 29.1875 C 177.925781 29.488281 178.351563 29.5625 178.832031 29.40625 C 179.308594 29.257813 179.773438 28.90625 180.222656 28.34375 C 180.667969 27.78125 180.914063 27.257813 180.957031 26.765625 C 180.996094 26.265625 180.832031 25.867188 180.457031 25.5625 Z M 180.972656 24.90625 C 181.574219 25.386719 181.878906 25.984375 181.878906 26.703125 C 181.878906 27.421875 181.570313 28.164063 180.957031 28.9375 C 180.339844 29.695313 179.683594 30.15625 178.988281 30.3125 C 178.289063 30.476563 177.636719 30.320313 177.035156 29.84375 C 176.429688 29.351563 176.128906 28.75 176.128906 28.03125 C 176.136719 27.324219 176.449219 26.589844 177.066406 25.828125 C 177.679688 25.058594 178.332031 24.589844 179.019531 24.421875 C 179.714844 24.257813 180.367188 24.417969 180.972656 24.90625 Z M 187.507813 30.292969 L 184.132813 31.355469 L 183.804688 35.058594 L 182.992188 34.402344 L 183.226563 31.574219 L 180.523438 32.433594 L 179.710938 31.777344 L 183.320313 30.652344 L 183.617188 27.199219 L 184.445313 27.855469 L 184.226563 30.417969 L 186.679688 29.652344 Z M 192.234375 31.527344 L 193.015625 32.121094 L 191.015625 34.714844 L 193.828125 36.886719 L 195.828125 34.292969 L 196.59375 34.886719 L 191.703125 41.230469 L 190.9375 40.636719 L 193.265625 37.621094 L 190.453125 35.449219 L 188.125 38.464844 L 187.34375 37.871094 Z M 196.851563 37.582031 L 197.570313 38.097656 L 194.007813 42.941406 L 193.289063 42.425781 Z M 198.242188 35.691406 L 198.960938 36.207031 L 198.226563 37.222656 L 197.507813 36.707031 Z M 200.457031 37.324219 L 201.175781 37.839844 L 196.222656 44.574219 L 195.503906 44.058594 Z M 202.671875 38.953125 L 203.390625 39.46875 L 198.4375 46.203125 L 197.71875 45.6875 Z M 207.714844 47.886719 C 207.847656 48.066406 207.933594 48.316406 207.964844 48.636719 C 207.996094 48.957031 207.980469 49.371094 207.917969 49.871094 L 207.621094 52.246094 L 206.730469 51.699219 L 207.011719 49.449219 C 207.09375 48.875 207.082031 48.460938 206.980469 48.199219 C 206.875 47.929688 206.660156 47.695313 206.339844 47.496094 L 205.433594 46.933594 L 203.667969 49.824219 L 202.824219 49.308594 L 207.011719 42.464844 L 208.886719 43.621094 C 209.59375 44.058594 210.019531 44.550781 210.167969 45.089844 C 210.3125 45.621094 210.183594 46.222656 209.777344 46.886719 C 209.503906 47.316406 209.191406 47.617188 208.839844 47.792969 C 208.496094 47.960938 208.121094 47.992188 207.714844 47.886719 Z M 207.386719 43.746094 L 205.902344 46.167969 L 206.933594 46.808594 C 207.339844 47.058594 207.707031 47.148438 208.042969 47.074219 C 208.375 46.992188 208.667969 46.753906 208.917969 46.355469 C 209.15625 45.949219 209.234375 45.585938 209.152344 45.261719 C 209.066406 44.929688 208.824219 44.636719 208.417969 44.386719 Z M 213.230469 49.320313 C 212.8125 49.082031 212.378906 49.078125 211.933594 49.304688 C 211.496094 49.535156 211.097656 49.960938 210.746094 50.585938 C 210.390625 51.210938 210.230469 51.773438 210.261719 52.273438 C 210.300781 52.761719 210.53125 53.125 210.949219 53.367188 C 211.363281 53.59375 211.792969 53.601563 212.230469 53.382813 C 212.675781 53.164063 213.078125 52.742188 213.433594 52.117188 C 213.785156 51.492188 213.941406 50.929688 213.902344 50.429688 C 213.871094 49.921875 213.644531 49.550781 213.230469 49.320313 Z M 213.636719 48.601563 C 214.300781 48.976563 214.691406 49.519531 214.808594 50.226563 C 214.921875 50.925781 214.734375 51.707031 214.246094 52.570313 C 213.753906 53.421875 213.175781 53.984375 212.511719 54.257813 C 211.855469 54.527344 211.191406 54.476563 210.527344 54.101563 C 209.847656 53.714844 209.453125 53.167969 209.339844 52.460938 C 209.234375 51.753906 209.425781 50.972656 209.917969 50.117188 C 210.40625 49.253906 210.980469 48.691406 211.636719 48.429688 C 212.292969 48.160156 212.957031 48.21875 213.636719 48.601563 Z M 217.691406 54.445313 C 217.054688 54.101563 216.570313 53.945313 216.238281 53.976563 C 215.914063 54.007813 215.644531 54.21875 215.425781 54.601563 C 215.257813 54.894531 215.214844 55.179688 215.300781 55.460938 C 215.382813 55.75 215.582031 55.980469 215.894531 56.148438 C 216.332031 56.386719 216.769531 56.40625 217.207031 56.210938 C 217.652344 56.023438 218.035156 55.652344 218.347656 55.101563 L 218.457031 54.882813 Z M 219.441406 54.976563 L 217.769531 57.976563 L 216.988281 57.539063 L 217.425781 56.742188 C 217.070313 56.960938 216.714844 57.070313 216.363281 57.070313 C 216.019531 57.078125 215.660156 56.980469 215.285156 56.773438 C 214.792969 56.5 214.488281 56.132813 214.363281 55.664063 C 214.246094 55.207031 214.332031 54.722656 214.613281 54.210938 C 214.945313 53.617188 215.371094 53.273438 215.894531 53.179688 C 216.414063 53.078125 217.035156 53.222656 217.753906 53.617188 L 218.832031 54.226563 L 218.878906 54.132813 C 219.097656 53.738281 219.148438 53.367188 219.035156 53.023438 C 218.929688 52.671875 218.664063 52.375 218.238281 52.132813 C 217.976563 51.988281 217.695313 51.878906 217.394531 51.804688 C 217.089844 51.734375 216.777344 51.707031 216.457031 51.726563 L 216.894531 50.929688 C 217.257813 50.960938 217.585938 51.023438 217.878906 51.117188 C 218.179688 51.203125 218.457031 51.316406 218.707031 51.460938 C 219.394531 51.835938 219.800781 52.316406 219.925781 52.898438 C 220.050781 53.484375 219.886719 54.175781 219.441406 54.976563 Z M 224.980469 56.089844 L 226.542969 53.246094 L 227.324219 53.683594 L 223.308594 61.011719 L 222.527344 60.574219 L 222.964844 59.777344 C 222.621094 60.015625 222.28125 60.140625 221.949219 60.152344 C 221.613281 60.160156 221.269531 60.074219 220.917969 59.886719 C 220.34375 59.574219 220.015625 59.0625 219.933594 58.355469 C 219.859375 57.648438 220.046875 56.882813 220.496094 56.058594 C 220.953125 55.226563 221.5 54.652344 222.136719 54.339844 C 222.769531 54.027344 223.375 54.027344 223.949219 54.339844 C 224.300781 54.527344 224.5625 54.769531 224.730469 55.058594 C 224.894531 55.351563 224.980469 55.695313 224.980469 56.089844 Z M 221.292969 56.496094 C 220.949219 57.132813 220.792969 57.695313 220.824219 58.183594 C 220.863281 58.671875 221.09375 59.027344 221.511719 59.246094 C 221.925781 59.472656 222.355469 59.472656 222.792969 59.246094 C 223.230469 59.015625 223.621094 58.582031 223.964844 57.949219 C 224.316406 57.304688 224.472656 56.738281 224.433594 56.246094 C 224.390625 55.757813 224.160156 55.398438 223.746094 55.167969 C 223.328125 54.949219 222.902344 54.957031 222.464844 55.183594 C 222.035156 55.414063 221.644531 55.851563 221.292969 56.496094 Z M 221.292969 56.496094 "/>
<path style=" stroke:none;fill-rule:evenodd;fill:rgb(20%,20%,20%);fill-opacity:1;" d="M 176.097656 18.632813 L 179.347656 21.226563 L 178.769531 21.929688 L 176.300781 19.945313 L 174.832031 21.789063 L 177.050781 23.570313 L 176.472656 24.289063 L 174.253906 22.507813 L 171.863281 25.492188 L 171.082031 24.882813 Z M 180.457031 25.5625 C 180.089844 25.261719 179.667969 25.1875 179.191406 25.34375 C 178.710938 25.492188 178.246094 25.84375 177.800781 26.40625 C 177.351563 26.96875 177.105469 27.496094 177.066406 27.984375 C 177.023438 28.484375 177.183594 28.882813 177.550781 29.1875 C 177.925781 29.488281 178.351563 29.5625 178.832031 29.40625 C 179.308594 29.257813 179.773438 28.90625 180.222656 28.34375 C 180.667969 27.78125 180.914063 27.257813 180.957031 26.765625 C 180.996094 26.265625 180.832031 25.867188 180.457031 25.5625 Z M 180.972656 24.90625 C 181.574219 25.386719 181.878906 25.984375 181.878906 26.703125 C 181.878906 27.421875 181.570313 28.164063 180.957031 28.9375 C 180.339844 29.695313 179.683594 30.15625 178.988281 30.3125 C 178.289063 30.476563 177.636719 30.320313 177.035156 29.84375 C 176.429688 29.351563 176.128906 28.75 176.128906 28.03125 C 176.136719 27.324219 176.449219 26.589844 177.066406 25.828125 C 177.679688 25.058594 178.332031 24.589844 179.019531 24.421875 C 179.714844 24.257813 180.367188 24.417969 180.972656 24.90625 Z M 187.507813 30.292969 L 184.132813 31.355469 L 183.804688 35.058594 L 182.992188 34.402344 L 183.226563 31.574219 L 180.523438 32.433594 L 179.710938 31.777344 L 183.320313 30.652344 L 183.617188 27.199219 L 184.445313 27.855469 L 184.226563 30.417969 L 186.679688 29.652344 Z M 192.234375 31.527344 L 193.015625 32.121094 L 191.015625 34.714844 L 193.828125 36.886719 L 195.828125 34.292969 L 196.59375 34.886719 L 191.703125 41.230469 L 190.9375 40.636719 L 193.265625 37.621094 L 190.453125 35.449219 L 188.125 38.464844 L 187.34375 37.871094 Z M 196.851563 37.582031 L 197.570313 38.097656 L 194.007813 42.941406 L 193.289063 42.425781 Z M 198.242188 35.691406 L 198.960938 36.207031 L 198.226563 37.222656 L 197.507813 36.707031 Z M 200.457031 37.324219 L 201.175781 37.839844 L 196.222656 44.574219 L 195.503906 44.058594 Z M 202.671875 38.953125 L 203.390625 39.46875 L 198.4375 46.203125 L 197.71875 45.6875 Z M 207.714844 47.886719 C 207.847656 48.066406 207.933594 48.316406 207.964844 48.636719 C 207.996094 48.957031 207.980469 49.371094 207.917969 49.871094 L 207.621094 52.246094 L 206.730469 51.699219 L 207.011719 49.449219 C 207.09375 48.875 207.082031 48.460938 206.980469 48.199219 C 206.875 47.929688 206.660156 47.695313 206.339844 47.496094 L 205.433594 46.933594 L 203.667969 49.824219 L 202.824219 49.308594 L 207.011719 42.464844 L 208.886719 43.621094 C 209.59375 44.058594 210.019531 44.550781 210.167969 45.089844 C 210.3125 45.621094 210.183594 46.222656 209.777344 46.886719 C 209.503906 47.316406 209.191406 47.617188 208.839844 47.792969 C 208.496094 47.960938 208.121094 47.992188 207.714844 47.886719 Z M 207.386719 43.746094 L 205.902344 46.167969 L 206.933594 46.808594 C 207.339844 47.058594 207.707031 47.148438 208.042969 47.074219 C 208.375 46.992188 208.667969 46.753906 208.917969 46.355469 C 209.15625 45.949219 209.234375 45.585938 209.152344 45.261719 C 209.066406 44.929688 208.824219 44.636719 208.417969 44.386719 Z M 213.230469 49.320313 C 212.8125 49.082031 212.378906 49.078125 211.933594 49.304688 C 211.496094 49.535156 211.097656 49.960938 210.746094 50.585938 C 210.390625 51.210938 210.230469 51.773438 210.261719 52.273438 C 210.300781 52.761719 210.53125 53.125 210.949219 53.367188 C 211.363281 53.59375 211.792969 53.601563 212.230469 53.382813 C 212.675781 53.164063 213.078125 52.742188 213.433594 52.117188 C 213.785156 51.492188 213.941406 50.929688 213.902344 50.429688 C 213.871094 49.921875 213.644531 49.550781 213.230469 49.320313 Z M 213.636719 48.601563 C 214.300781 48.976563 214.691406 49.519531 214.808594 50.226563 C 214.921875 50.925781 214.734375 51.707031 214.246094 52.570313 C 213.753906 53.421875 213.175781 53.984375 212.511719 54.257813 C 211.855469 54.527344 211.191406 54.476563 210.527344 54.101563 C 209.847656 53.714844 209.453125 53.167969 209.339844 52.460938 C 209.234375 51.753906 209.425781 50.972656 209.917969 50.117188 C 210.40625 49.253906 210.980469 48.691406 211.636719 48.429688 C 212.292969 48.160156 212.957031 48.21875 213.636719 48.601563 Z M 217.691406 54.445313 C 217.054688 54.101563 216.570313 53.945313 216.238281 53.976563 C 215.914063 54.007813 215.644531 54.21875 215.425781 54.601563 C 215.257813 54.894531 215.214844 55.179688 215.300781 55.460938 C 215.382813 55.75 215.582031 55.980469 215.894531 56.148438 C 216.332031 56.386719 216.769531 56.40625 217.207031 56.210938 C 217.652344 56.023438 218.035156 55.652344 218.347656 55.101563 L 218.457031 54.882813 Z M 219.441406 54.976563 L 217.769531 57.976563 L 216.988281 57.539063 L 217.425781 56.742188 C 217.070313 56.960938 216.714844 57.070313 216.363281 57.070313 C 216.019531 57.078125 215.660156 56.980469 215.285156 56.773438 C 214.792969 56.5 214.488281 56.132813 214.363281 55.664063 C 214.246094 55.207031 214.332031 54.722656 214.613281 54.210938 C 214.945313 53.617188 215.371094 53.273438 215.894531 53.179688 C 216.414063 53.078125 217.035156 53.222656 217.753906 53.617188 L 218.832031 54.226563 L 218.878906 54.132813 C 219.097656 53.738281 219.148438 53.367188 219.035156 53.023438 C 218.929688 52.671875 218.664063 52.375 218.238281 52.132813 C 217.976563 51.988281 217.695313 51.878906 217.394531 51.804688 C 217.089844 51.734375 216.777344 51.707031 216.457031 51.726563 L 216.894531 50.929688 C 217.257813 50.960938 217.585938 51.023438 217.878906 51.117188 C 218.179688 51.203125 218.457031 51.316406 218.707031 51.460938 C 219.394531 51.835938 219.800781 52.316406 219.925781 52.898438 C 220.050781 53.484375 219.886719 54.175781 219.441406 54.976563 Z M 224.980469 56.089844 L 226.542969 53.246094 L 227.324219 53.683594 L 223.308594 61.011719 L 222.527344 60.574219 L 222.964844 59.777344 C 222.621094 60.015625 222.28125 60.140625 221.949219 60.152344 C 221.613281 60.160156 221.269531 60.074219 220.917969 59.886719 C 220.34375 59.574219 220.015625 59.0625 219.933594 58.355469 C 219.859375 57.648438 220.046875 56.882813 220.496094 56.058594 C 220.953125 55.226563 221.5 54.652344 222.136719 54.339844 C 222.769531 54.027344 223.375 54.027344 223.949219 54.339844 C 224.300781 54.527344 224.5625 54.769531 224.730469 55.058594 C 224.894531 55.351563 224.980469 55.695313 224.980469 56.089844 Z M 221.292969 56.496094 C 220.949219 57.132813 220.792969 57.695313 220.824219 58.183594 C 220.863281 58.671875 221.09375 59.027344 221.511719 59.246094 C 221.925781 59.472656 222.355469 59.472656 222.792969 59.246094 C 223.230469 59.015625 223.621094 58.582031 223.964844 57.949219 C 224.316406 57.304688 224.472656 56.738281 224.433594 56.246094 C 224.390625 55.757813 224.160156 55.398438 223.746094 55.167969 C 223.328125 54.949219 222.902344 54.957031 222.464844 55.183594 C 222.035156 55.414063 221.644531 55.851563 221.292969 56.496094 Z M 221.292969 56.496094 "/>
</g>
</svg>

