<?xml version="1.0" encoding="UTF-8"?>
<svg xmlns="http://www.w3.org/2000/svg" xmlns:xlink="http://www.w3.org/1999/xlink" width="256pt" height="256pt" viewBox="0 0 256 256" version="1.1">
<g id="surface2">
<rect x="0" y="0" width="256" height="256" style="fill:rgb(94.901961%,93.72549%,91.372549%);fill-opacity:1;stroke:none;"/>
<path style=" stroke:none;fill-rule:evenodd;fill:rgb(79.607843%,84.705882%,76.470588%);fill-opacity:1;" d="M 205.558594 -4 L 205.683594 -3.820313 L 205.542969 -2.796875 L 206.855469 -2.746094 L 206.835938 -1.183594 L 208.132813 -1.144531 L 208.105469 1.230469 L 206.808594 1.199219 L 208.097656 1.96875 L 209.433594 2.578125 L 209.375 4.160156 L 207.488281 4.125 L 207.515625 5.15625 L 206.792969 5.886719 L 210.042969 5.902344 L 211.132813 4.003906 L 210.789063 2.617188 L 209.898438 -0.0078125 L 209.480469 -2.703125 L 214.222656 -2.570313 L 214.175781 0.0898438 L 214.679688 -0.796875 L 215.777344 0.226563 L 215.789063 -2.5625 L 214.929688 -3.527344 L 213.964844 -4 L 213.140625 -3.375 L 211.386719 -3.355469 L 211.394531 -4 Z M 209.242188 -0.0742188 L 209.246094 0.0234375 L 209.070313 -0.0703125 Z M 209.242188 -0.0742188 "/>
<path style=" stroke:none;fill-rule:evenodd;fill:rgb(79.607843%,84.705882%,76.470588%);fill-opacity:1;" d="M 125.910156 -0.03125 L 125.949219 1.695313 L 127.046875 1.691406 L 127.003906 -0.03125 L 129.007813 -0.015625 L 128.992188 -2.796875 L 129.71875 -3.898438 L 125.429688 -4 L 124.335938 -3.59375 L 124.320313 0 Z M 125.910156 -0.03125 "/>
<path style=" stroke:none;fill-rule:evenodd;fill:rgb(79.607843%,84.705882%,76.470588%);fill-opacity:1;" d="M 110.875 2.535156 L 111.191406 2.527344 L 113.691406 2.410156 L 114.652344 2.894531 L 116.464844 2.847656 L 118.609375 1.898438 L 119.050781 -0.960938 L 116.46875 -0.957031 L 115.773438 0.996094 L 113.890625 1.035156 L 113.894531 -0.0742188 L 111.203125 -0.0820313 L 110.875 0.792969 Z M 111.203125 1.644531 L 111.226563 1.121094 L 113.894531 1.164063 L 113.894531 1.695313 Z M 111.203125 1.644531 "/>
<path style=" stroke:none;fill-rule:evenodd;fill:rgb(79.607843%,84.705882%,76.470588%);fill-opacity:1;" d="M 98.082031 6.761719 L 98.085938 7.015625 L 99.332031 7.917969 L 98.738281 8.746094 L 99.144531 10.054688 L 100.117188 10.855469 L 101.257813 10.582031 L 100.816406 11.570313 L 101.863281 11.851563 L 102.707031 12.738281 L 103.78125 12.730469 L 104.683594 11.542969 L 103.703125 11.136719 L 103.546875 10.113281 L 102.675781 10.632813 L 101.910156 9.832031 L 102.605469 8.851563 L 102 7.957031 L 100.949219 8.519531 L 99.949219 8.175781 L 100.839844 7.03125 L 100.046875 6.273438 L 98.8125 6.214844 L 98.441406 6.875 Z M 98.441406 6.570313 L 98.496094 6.5 L 98.53125 6.613281 Z M 99.0625 8.257813 L 99.226563 8.191406 L 99.082031 8.34375 Z M 99.070313 8.710938 L 99.386719 8.695313 L 99.144531 9.203125 Z M 100.050781 8.335938 L 100.113281 8.226563 L 100.148438 8.398438 Z M 100.65625 10.28125 L 100.785156 10.140625 L 100.824219 10.316406 Z M 103.449219 11.777344 L 103.761719 11.734375 L 103.515625 12.101563 Z M 103.449219 11.777344 "/>
<path style=" stroke:none;fill-rule:evenodd;fill:rgb(70.980392%,82.352941%,61.176471%);fill-opacity:1;" d="M 142.433594 6.082031 L 143.445313 6.082031 L 143.773438 5.039063 L 145.746094 5.042969 L 145.769531 2.007813 L 143.113281 2.003906 L 143.109375 3.53125 L 143.519531 4.539063 L 142.441406 5.054688 Z M 142.433594 6.082031 "/>
<path style=" stroke:none;fill-rule:evenodd;fill:rgb(79.607843%,84.705882%,76.470588%);fill-opacity:1;" d="M 183.042969 11.25 L 183.226563 11.746094 L 184.589844 11.492188 L 186.3125 12.257813 L 186.140625 11.25 L 187.597656 10.789063 L 187.050781 9.53125 L 185.40625 9.777344 L 185.050781 7.824219 L 183.582031 7.816406 L 183.785156 9.28125 L 184.691406 9.78125 L 184.503906 11.269531 Z M 183.042969 11.25 "/>
<path style=" stroke:none;fill-rule:evenodd;fill:rgb(79.607843%,84.705882%,76.470588%);fill-opacity:1;" d="M 209.863281 5.402344 L 210.140625 5.832031 L 211.335938 5.300781 L 211.339844 7.828125 L 212.144531 3.707031 L 211.105469 4.175781 L 209.976563 5.167969 Z M 211.457031 6.71875 L 211.695313 6.710938 L 211.511719 6.933594 Z M 211.457031 6.71875 "/>
<path style=" stroke:none;fill-rule:evenodd;fill:rgb(79.607843%,84.705882%,76.470588%);fill-opacity:1;" d="M 69.386719 6.390625 L 70.863281 7.589844 L 71.789063 8.246094 L 72.144531 6.953125 L 69.632813 6.292969 Z M 69.386719 6.390625 "/>
<path style=" stroke:none;fill-rule:evenodd;fill:rgb(79.607843%,84.705882%,76.470588%);fill-opacity:1;" d="M 206.402344 5.140625 L 206.789063 5.136719 L 206.785156 2.542969 L 206.414063 2.546875 Z M 206.402344 5.140625 "/>
<path style=" stroke:none;fill-rule:evenodd;fill:rgb(79.607843%,84.705882%,76.470588%);fill-opacity:1;" d="M 96.699219 6.757813 L 96.878906 7.351563 L 97.5 6.445313 L 96.753906 6.414063 Z M 96.699219 6.757813 "/>
<path style=" stroke:none;fill-rule:evenodd;fill:rgb(60%,70.196078%,80%);fill-opacity:1;" d="M 95.628906 3.441406 L 95.675781 3.644531 L 95.6875 3.359375 Z M 96.011719 3.957031 L 96.058594 3.914063 L 96.054688 4.035156 Z M 96.011719 3.957031 "/>
<path style="fill:none;stroke-width:1;stroke-linecap:round;stroke-linejoin:round;stroke:rgb(70.196078%,77.647059%,83.137255%);stroke-opacity:1;stroke-miterlimit:10;" d="M 95.628906 3.441406 L 95.675781 3.644531 L 95.6875 3.359375 L 95.628906 3.441406 M 96.011719 3.957031 L 96.058594 3.914063 L 96.054688 4.035156 L 96.011719 3.957031 "/>
<path style=" stroke:none;fill-rule:evenodd;fill:rgb(60%,70.196078%,80%);fill-opacity:1;" d="M 210.40625 47.710938 L 210.652344 47.699219 L 212.03125 46.464844 L 212.183594 44.214844 L 214.40625 42.542969 L 216.011719 41.75 L 217.121094 42.3125 L 216.214844 43.757813 L 217.449219 46.105469 L 217.921875 47.503906 L 217.566406 49.109375 L 218.953125 51.007813 L 219.800781 51.863281 L 221.554688 52.699219 L 223.011719 53.0625 L 224.503906 55.402344 L 224.9375 56.539063 L 225.238281 58.144531 L 226.8125 59.230469 L 227.652344 59.773438 L 229.222656 60.691406 L 229.65625 62.324219 L 230.625 63.660156 L 231.640625 63.722656 L 230.601563 62.855469 L 229.976563 60.769531 L 229.476563 59.855469 L 228.472656 59.332031 L 227.441406 58.3125 L 226.070313 57.808594 L 225.441406 56.324219 L 225.9375 55.042969 L 227.242188 54.726563 L 228.839844 54.414063 L 227.378906 54.132813 L 226.15625 54.222656 L 225.027344 53.605469 L 223.796875 51.847656 L 224.15625 50.449219 L 223.078125 51.550781 L 220.472656 51.0625 L 219.144531 49.671875 L 219.59375 48.398438 L 219.300781 47.238281 L 218.257813 45.933594 L 217.527344 44.390625 L 218.183594 43.214844 L 220.125 42.832031 L 219.34375 42.203125 L 218.9375 40.59375 L 217.992188 39.945313 L 219.078125 38.472656 L 220.203125 38.25 L 220.296875 34.945313 L 221.386719 34.273438 L 223.210938 34.894531 L 223.75 35.929688 L 224.75 35.199219 L 226.128906 34.882813 L 227.582031 35.433594 L 229.40625 34.492188 L 228.222656 33.691406 L 226.042969 33.90625 L 223.679688 33.640625 L 221.867188 32.84375 L 221.558594 31.726563 L 221.839844 29.542969 L 222.550781 28.738281 L 221.867188 27.410156 L 222.523438 26.449219 L 223.132813 25.3125 L 224.109375 25 L 223.0625 24.070313 L 223.417969 23.046875 L 223.371094 20.464844 L 223.125 17.808594 L 224.238281 17.457031 L 223.179688 17.09375 L 222.898438 15.410156 L 223.179688 14.402344 L 222.90625 13.4375 L 221.589844 12.105469 L 220.996094 10.039063 L 222.042969 9.519531 L 224.777344 10.203125 L 224.101563 9.398438 L 221.804688 8.582031 L 220.53125 8.695313 L 220.066406 7.691406 L 219.382813 6.210938 L 219.515625 4.839844 L 220.527344 2.203125 L 221.433594 1.390625 L 221.734375 -0.457031 L 222.695313 -0.800781 L 223.800781 -0.699219 L 226.613281 -1.726563 L 229.554688 -1.84375 L 229.910156 -2.898438 L 230.019531 -4 L 228.792969 -4 L 227.949219 -2.640625 L 228.078125 -3.75 L 226.855469 -4 L 225.539063 -3.503906 L 224.078125 -3.695313 L 221.804688 -4 L 220.636719 -3.207031 L 219.21875 -2.558594 L 219.0625 -1.371094 L 218.136719 0.582031 L 216.328125 0.613281 L 214.621094 1.140625 L 216.792969 1.789063 L 216.773438 4.0625 L 216.648438 5.808594 L 215.765625 6.5 L 214.507813 7.230469 L 215.394531 8.019531 L 216.617188 7.347656 L 216.695313 8.390625 L 217.296875 9.253906 L 218.925781 10.863281 L 219.535156 12.949219 L 220.722656 15.140625 L 220.722656 16.335938 L 221.292969 17.988281 L 221.410156 19.515625 L 221.429688 20.519531 L 219.742188 21.117188 L 220.898438 21.15625 L 221.039063 22.941406 L 221.085938 24.242188 L 220.421875 25.101563 L 219.84375 26.230469 L 219.835938 27.449219 L 220.175781 29.535156 L 219.617188 31.078125 L 218.414063 31.09375 L 216.777344 30.335938 L 218.066406 31.558594 L 217.539063 32.46875 L 216.417969 32.949219 L 217.515625 32.917969 L 218.691406 32.046875 L 217.679688 34.425781 L 217.410156 35.574219 L 216.722656 37.320313 L 215.363281 37.480469 L 216.234375 38.011719 L 214.539063 40.234375 L 213.625 41 L 212.675781 40.566406 L 212.730469 41.730469 L 210.945313 44.539063 L 210.992188 45.625 L 210.257813 46.464844 L 209.222656 47.28125 Z M 210.40625 47.710938 "/>
<path style="fill:none;stroke-width:1;stroke-linecap:round;stroke-linejoin:round;stroke:rgb(70.196078%,77.647059%,83.137255%);stroke-opacity:1;stroke-miterlimit:10;" d="M 210.40625 47.710938 L 210.652344 47.699219 L 212.03125 46.464844 L 212.183594 44.214844 L 214.40625 42.542969 L 216.011719 41.75 L 217.121094 42.3125 L 216.214844 43.757813 L 217.449219 46.105469 L 217.921875 47.503906 L 217.566406 49.109375 L 218.953125 51.007813 L 219.800781 51.863281 L 221.554688 52.699219 L 223.011719 53.0625 L 224.503906 55.402344 L 224.9375 56.539063 L 225.238281 58.144531 L 226.8125 59.230469 L 227.652344 59.773438 L 229.222656 60.691406 L 229.65625 62.324219 L 230.625 63.660156 L 231.640625 63.722656 L 230.601563 62.855469 L 229.976563 60.769531 L 229.476563 59.855469 L 228.472656 59.332031 L 227.441406 58.3125 L 226.070313 57.808594 L 225.441406 56.324219 L 225.9375 55.042969 L 227.242188 54.726563 L 228.839844 54.414063 L 227.378906 54.132813 L 226.15625 54.222656 L 225.027344 53.605469 L 223.796875 51.847656 L 224.15625 50.449219 L 223.078125 51.550781 L 220.472656 51.0625 L 219.144531 49.671875 L 219.59375 48.398438 L 219.300781 47.238281 L 218.257813 45.933594 L 217.527344 44.390625 L 218.183594 43.214844 L 220.125 42.832031 L 219.34375 42.203125 L 218.9375 40.59375 L 217.992188 39.945313 L 219.078125 38.472656 L 220.203125 38.25 L 220.296875 34.945313 L 221.386719 34.273438 L 223.210938 34.894531 L 223.75 35.929688 L 224.75 35.199219 L 226.128906 34.882813 L 227.582031 35.433594 L 229.40625 34.492188 L 228.222656 33.691406 L 226.042969 33.90625 L 223.679688 33.640625 L 221.867188 32.84375 L 221.558594 31.726563 L 221.839844 29.542969 L 222.550781 28.738281 L 221.867188 27.410156 L 222.523438 26.449219 L 223.132813 25.3125 L 224.109375 25 L 223.0625 24.070313 L 223.417969 23.046875 L 223.371094 20.464844 L 223.125 17.808594 L 224.238281 17.457031 L 223.179688 17.09375 L 222.898438 15.410156 L 223.179688 14.402344 L 222.90625 13.4375 L 221.589844 12.105469 L 220.996094 10.039063 L 222.042969 9.519531 L 224.777344 10.203125 L 224.101563 9.398438 L 221.804688 8.582031 L 220.53125 8.695313 L 220.066406 7.691406 L 219.382813 6.210938 L 219.515625 4.839844 L 220.527344 2.203125 L 221.433594 1.390625 L 221.734375 -0.457031 L 222.695313 -0.800781 L 223.800781 -0.699219 L 226.613281 -1.726563 L 229.554688 -1.84375 L 229.910156 -2.898438 L 230.019531 -4 L 228.792969 -4 L 227.949219 -2.640625 L 228.078125 -3.75 L 226.855469 -4 L 225.539063 -3.503906 L 224.078125 -3.695313 L 221.804688 -4 L 220.636719 -3.207031 L 219.21875 -2.558594 L 219.0625 -1.371094 L 218.136719 0.582031 L 216.328125 0.613281 L 214.621094 1.140625 L 216.792969 1.789063 L 216.773438 4.0625 L 216.648438 5.808594 L 215.765625 6.5 L 214.507813 7.230469 L 215.394531 8.019531 L 216.617188 7.347656 L 216.695313 8.390625 L 217.296875 9.253906 L 218.925781 10.863281 L 219.535156 12.949219 L 220.722656 15.140625 L 220.722656 16.335938 L 221.292969 17.988281 L 221.410156 19.515625 L 221.429688 20.519531 L 219.742188 21.117188 L 220.898438 21.15625 L 221.039063 22.941406 L 221.085938 24.242188 L 220.421875 25.101563 L 219.84375 26.230469 L 219.835938 27.449219 L 220.175781 29.535156 L 219.617188 31.078125 L 218.414063 31.09375 L 216.777344 30.335938 L 218.066406 31.558594 L 217.539063 32.46875 L 216.417969 32.949219 L 217.515625 32.917969 L 218.691406 32.046875 L 217.679688 34.425781 L 217.410156 35.574219 L 216.722656 37.320313 L 215.363281 37.480469 L 216.234375 38.011719 L 214.539063 40.234375 L 213.625 41 L 212.675781 40.566406 L 212.730469 41.730469 L 210.945313 44.539063 L 210.992188 45.625 L 210.257813 46.464844 L 209.222656 47.28125 L 210.40625 47.710938 "/>
<path style=" stroke:none;fill-rule:evenodd;fill:rgb(60%,70.196078%,80%);fill-opacity:1;" d="M 210.40625 47.710938 L 210.652344 47.699219 L 212.03125 46.464844 L 212.183594 44.214844 L 214.40625 42.542969 L 216.011719 41.75 L 217.121094 42.3125 L 216.214844 43.757813 L 217.449219 46.105469 L 217.921875 47.503906 L 217.566406 49.109375 L 218.953125 51.007813 L 219.800781 51.863281 L 221.554688 52.699219 L 223.011719 53.0625 L 224.503906 55.402344 L 224.9375 56.539063 L 225.238281 58.144531 L 226.8125 59.230469 L 227.652344 59.773438 L 229.222656 60.691406 L 229.65625 62.324219 L 230.625 63.660156 L 231.640625 63.722656 L 230.601563 62.855469 L 229.976563 60.769531 L 229.476563 59.855469 L 228.472656 59.332031 L 227.441406 58.3125 L 226.070313 57.808594 L 225.441406 56.324219 L 225.9375 55.042969 L 227.242188 54.726563 L 228.839844 54.414063 L 227.378906 54.132813 L 226.15625 54.222656 L 225.027344 53.605469 L 223.796875 51.847656 L 224.15625 50.449219 L 223.078125 51.550781 L 220.472656 51.0625 L 219.144531 49.671875 L 219.59375 48.398438 L 219.300781 47.238281 L 218.257813 45.933594 L 217.527344 44.390625 L 218.183594 43.214844 L 220.125 42.832031 L 219.34375 42.203125 L 218.9375 40.59375 L 217.992188 39.945313 L 219.078125 38.472656 L 220.203125 38.25 L 220.296875 34.945313 L 221.386719 34.273438 L 223.210938 34.894531 L 223.75 35.929688 L 224.75 35.199219 L 226.128906 34.882813 L 227.582031 35.433594 L 229.40625 34.492188 L 228.222656 33.691406 L 226.042969 33.90625 L 223.679688 33.640625 L 221.867188 32.84375 L 221.558594 31.726563 L 221.839844 29.542969 L 222.550781 28.738281 L 221.867188 27.410156 L 222.523438 26.449219 L 223.132813 25.3125 L 224.109375 25 L 223.0625 24.070313 L 223.417969 23.046875 L 223.371094 20.464844 L 223.125 17.808594 L 224.238281 17.457031 L 223.179688 17.09375 L 222.898438 15.410156 L 223.179688 14.402344 L 222.90625 13.4375 L 221.589844 12.105469 L 220.996094 10.039063 L 222.042969 9.519531 L 224.777344 10.203125 L 224.101563 9.398438 L 221.804688 8.582031 L 220.53125 8.695313 L 220.066406 7.691406 L 219.382813 6.210938 L 219.515625 4.839844 L 220.527344 2.203125 L 221.433594 1.390625 L 221.734375 -0.457031 L 222.695313 -0.800781 L 223.800781 -0.699219 L 226.613281 -1.726563 L 229.554688 -1.84375 L 229.910156 -2.898438 L 230.019531 -4 L 228.792969 -4 L 227.949219 -2.640625 L 228.078125 -3.75 L 226.855469 -4 L 225.539063 -3.503906 L 224.078125 -3.695313 L 221.804688 -4 L 220.636719 -3.207031 L 219.21875 -2.558594 L 219.0625 -1.371094 L 218.136719 0.582031 L 216.328125 0.613281 L 214.621094 1.140625 L 216.792969 1.789063 L 216.773438 4.0625 L 216.648438 5.808594 L 215.765625 6.5 L 214.507813 7.230469 L 215.394531 8.019531 L 216.617188 7.347656 L 216.695313 8.390625 L 217.296875 9.253906 L 218.925781 10.863281 L 219.535156 12.949219 L 220.722656 15.140625 L 220.722656 16.335938 L 221.292969 17.988281 L 221.410156 19.515625 L 221.429688 20.519531 L 219.742188 21.117188 L 220.898438 21.15625 L 221.039063 22.941406 L 221.085938 24.242188 L 220.421875 25.101563 L 219.84375 26.230469 L 219.835938 27.449219 L 220.175781 29.535156 L 219.617188 31.078125 L 218.414063 31.09375 L 216.777344 30.335938 L 218.066406 31.558594 L 217.539063 32.46875 L 216.417969 32.949219 L 217.515625 32.917969 L 218.691406 32.046875 L 217.679688 34.425781 L 217.410156 35.574219 L 216.722656 37.320313 L 215.363281 37.480469 L 216.234375 38.011719 L 214.539063 40.234375 L 213.625 41 L 212.675781 40.566406 L 212.730469 41.730469 L 210.945313 44.539063 L 210.992188 45.625 L 210.257813 46.464844 L 209.222656 47.28125 Z M 210.40625 47.710938 "/>
<path style="fill:none;stroke-width:1;stroke-linecap:round;stroke-linejoin:round;stroke:rgb(70.196078%,77.647059%,83.137255%);stroke-opacity:1;stroke-miterlimit:10;" d="M 210.40625 47.710938 L 210.652344 47.699219 L 212.03125 46.464844 L 212.183594 44.214844 L 214.40625 42.542969 L 216.011719 41.75 L 217.121094 42.3125 L 216.214844 43.757813 L 217.449219 46.105469 L 217.921875 47.503906 L 217.566406 49.109375 L 218.953125 51.007813 L 219.800781 51.863281 L 221.554688 52.699219 L 223.011719 53.0625 L 224.503906 55.402344 L 224.9375 56.539063 L 225.238281 58.144531 L 226.8125 59.230469 L 227.652344 59.773438 L 229.222656 60.691406 L 229.65625 62.324219 L 230.625 63.660156 L 231.640625 63.722656 L 230.601563 62.855469 L 229.976563 60.769531 L 229.476563 59.855469 L 228.472656 59.332031 L 227.441406 58.3125 L 226.070313 57.808594 L 225.441406 56.324219 L 225.9375 55.042969 L 227.242188 54.726563 L 228.839844 54.414063 L 227.378906 54.132813 L 226.15625 54.222656 L 225.027344 53.605469 L 223.796875 51.847656 L 224.15625 50.449219 L 223.078125 51.550781 L 220.472656 51.0625 L 219.144531 49.671875 L 219.59375 48.398438 L 219.300781 47.238281 L 218.257813 45.933594 L 217.527344 44.390625 L 218.183594 43.214844 L 220.125 42.832031 L 219.34375 42.203125 L 218.9375 40.59375 L 217.992188 39.945313 L 219.078125 38.472656 L 220.203125 38.25 L 220.296875 34.945313 L 221.386719 34.273438 L 223.210938 34.894531 L 223.75 35.929688 L 224.75 35.199219 L 226.128906 34.882813 L 227.582031 35.433594 L 229.40625 34.492188 L 228.222656 33.691406 L 226.042969 33.90625 L 223.679688 33.640625 L 221.867188 32.84375 L 221.558594 31.726563 L 221.839844 29.542969 L 222.550781 28.738281 L 221.867188 27.410156 L 222.523438 26.449219 L 223.132813 25.3125 L 224.109375 25 L 223.0625 24.070313 L 223.417969 23.046875 L 223.371094 20.464844 L 223.125 17.808594 L 224.238281 17.457031 L 223.179688 17.09375 L 222.898438 15.410156 L 223.179688 14.402344 L 222.90625 13.4375 L 221.589844 12.105469 L 220.996094 10.039063 L 222.042969 9.519531 L 224.777344 10.203125 L 224.101563 9.398438 L 221.804688 8.582031 L 220.53125 8.695313 L 220.066406 7.691406 L 219.382813 6.210938 L 219.515625 4.839844 L 220.527344 2.203125 L 221.433594 1.390625 L 221.734375 -0.457031 L 222.695313 -0.800781 L 223.800781 -0.699219 L 226.613281 -1.726563 L 229.554688 -1.84375 L 229.910156 -2.898438 L 230.019531 -4 L 228.792969 -4 L 227.949219 -2.640625 L 228.078125 -3.75 L 226.855469 -4 L 225.539063 -3.503906 L 224.078125 -3.695313 L 221.804688 -4 L 220.636719 -3.207031 L 219.21875 -2.558594 L 219.0625 -1.371094 L 218.136719 0.582031 L 216.328125 0.613281 L 214.621094 1.140625 L 216.792969 1.789063 L 216.773438 4.0625 L 216.648438 5.808594 L 215.765625 6.5 L 214.507813 7.230469 L 215.394531 8.019531 L 216.617188 7.347656 L 216.695313 8.390625 L 217.296875 9.253906 L 218.925781 10.863281 L 219.535156 12.949219 L 220.722656 15.140625 L 220.722656 16.335938 L 221.292969 17.988281 L 221.410156 19.515625 L 221.429688 20.519531 L 219.742188 21.117188 L 220.898438 21.15625 L 221.039063 22.941406 L 221.085938 24.242188 L 220.421875 25.101563 L 219.84375 26.230469 L 219.835938 27.449219 L 220.175781 29.535156 L 219.617188 31.078125 L 218.414063 31.09375 L 216.777344 30.335938 L 218.066406 31.558594 L 217.539063 32.46875 L 216.417969 32.949219 L 217.515625 32.917969 L 218.691406 32.046875 L 217.679688 34.425781 L 217.410156 35.574219 L 216.722656 37.320313 L 215.363281 37.480469 L 216.234375 38.011719 L 214.539063 40.234375 L 213.625 41 L 212.675781 40.566406 L 212.730469 41.730469 L 210.945313 44.539063 L 210.992188 45.625 L 210.257813 46.464844 L 209.222656 47.28125 L 210.40625 47.710938 "/>
<path style="fill:none;stroke-width:1;stroke-linecap:round;stroke-linejoin:round;stroke:rgb(60%,70.196078%,80%);stroke-opacity:1;stroke-miterlimit:10;" d="M 179.007813 -2 L 179.976563 -1.722656 L 179.839844 0.519531 L 180.753906 1.476563 L 181.742188 2.34375 L 182.734375 4.8125 L 182.203125 6.96875 L 183.035156 6.347656 L 183.515625 7.628906 L 183.753906 8.980469 L 184.539063 9.730469 L 184.53125 11.261719 L 183.589844 11.914063 L 183.859375 13.460938 L 184.261719 14.820313 L 185.113281 15.515625 L 185.585938 16.578125 L 186.550781 17.105469 L 185.941406 18.773438 L 186.21875 20.117188 L 186.046875 21.265625 L 185.933594 22.566406 L 185.050781 23.320313 L 185.238281 24.382813 L 185.914063 25.683594 L 183.160156 27.011719 L 182.972656 28.257813 L 182.910156 31.757813 L 183.503906 32.839844 L 183.363281 33.878906 L 183.875 35.445313 L 184.429688 37.03125 L 183.46875 39.300781 L 182.421875 40.140625 L 182.5625 41.90625 L 184.074219 44.042969 L 184.578125 45.785156 L 183.351563 46.609375 "/>
<path style="fill:none;stroke-width:1;stroke-linecap:round;stroke-linejoin:round;stroke:rgb(60%,70.196078%,80%);stroke-opacity:1;stroke-miterlimit:10;" d="M 101.199219 3.28125 L 100.050781 3.269531 L 99.007813 3.667969 L 98.230469 4.378906 L 97.226563 4.160156 L 97.691406 5.128906 L 97.109375 5.949219 L 96.820313 7.160156 L 96.824219 8.332031 L 96.875 9.617188 L 97.394531 10.589844 L 98.167969 11.621094 L 98.660156 12.523438 L 99.164063 13.542969 L 100.234375 13.855469 L 101.179688 14.691406 L 102.195313 14.800781 L 102.757813 14.496094 "/>
<path style="fill:none;stroke-width:1;stroke-linecap:round;stroke-linejoin:round;stroke:rgb(60%,70.196078%,80%);stroke-opacity:1;stroke-miterlimit:10;" d="M 96.8125 8.269531 L 96.828125 8.335938 "/>
<path style="fill:none;stroke-width:1;stroke-linecap:round;stroke-linejoin:round;stroke:rgb(60%,70.196078%,80%);stroke-opacity:1;stroke-miterlimit:10;" d="M 224.234375 -2 L 221.65625 -1.769531 L 219.664063 0.453125 L 217.539063 4.78125 L 217.554688 6.1875 L 217.140625 7.3125 L 217.191406 8.683594 L 219.015625 10.347656 L 219.507813 11.410156 L 220.410156 12.867188 L 220.722656 14.304688 L 222.679688 17.570313 L 222.949219 19.042969 L 222.980469 20.957031 L 222.730469 22.609375 L 222.625 24.109375 L 221.261719 25.996094 L 221.371094 28.128906 L 220.90625 30.09375 L 220.070313 30.808594 L 219.4375 33.207031 L 218.484375 34.414063 L 218.136719 35.359375 L 217.234375 36.90625 L 216.386719 38.316406 L 214.621094 40.535156 L 212.789063 42.207031 L 212.367188 43.148438 L 211.628906 44.285156 L 211.152344 46.355469 L 210.472656 47.289063 L 209.234375 47.042969 "/>
<path style="fill:none;stroke-width:1;stroke-linecap:butt;stroke-linejoin:round;stroke:rgb(46.666667%,46.666667%,46.666667%);stroke-opacity:1;stroke-dasharray:2,2;stroke-miterlimit:10;" d="M 128.230469 7.992188 L 129.148438 4.316406 L 129.617188 3.292969 "/>
<path style="fill:none;stroke-width:1;stroke-linecap:butt;stroke-linejoin:round;stroke:rgb(46.666667%,46.666667%,46.666667%);stroke-opacity:1;stroke-dasharray:2,2;stroke-miterlimit:10;" d="M 129.636719 3.257813 L 132.941406 -1.011719 "/>
<path style="fill:none;stroke-width:1;stroke-linecap:butt;stroke-linejoin:round;stroke:rgb(46.666667%,46.666667%,46.666667%);stroke-opacity:1;stroke-dasharray:2,2;stroke-miterlimit:10;" d="M 129.617188 3.292969 L 129.636719 3.257813 "/>
<path style="fill:none;stroke-width:1;stroke-linecap:butt;stroke-linejoin:round;stroke:rgb(46.666667%,46.666667%,46.666667%);stroke-opacity:1;stroke-dasharray:2,2;stroke-miterlimit:10;" d="M 126.492188 16.042969 L 126.589844 14.625 L 128.230469 7.992188 "/>
<path style="fill:none;stroke-width:1.75;stroke-linecap:round;stroke-linejoin:round;stroke:rgb(75.686275%,70.980392%,61.568627%);stroke-opacity:1;stroke-miterlimit:10;" d="M 128.820313 5.230469 L 128.785156 5.210938 "/>
<path style="fill:none;stroke-width:1.75;stroke-linecap:round;stroke-linejoin:round;stroke:rgb(75.686275%,70.980392%,61.568627%);stroke-opacity:1;stroke-miterlimit:10;" d="M 215.710938 9.292969 L 215.085938 8.042969 L 214.089844 7.988281 L 212.957031 8.375 L 212.738281 8.328125 "/>
<path style="fill:none;stroke-width:1.75;stroke-linecap:round;stroke-linejoin:round;stroke:rgb(75.686275%,70.980392%,61.568627%);stroke-opacity:1;stroke-miterlimit:10;" d="M 212.738281 8.328125 L 213.050781 7.847656 "/>
<path style="fill:none;stroke-width:1.75;stroke-linecap:round;stroke-linejoin:round;stroke:rgb(75.686275%,70.980392%,61.568627%);stroke-opacity:1;stroke-miterlimit:10;" d="M 224.765625 9.265625 L 223.757813 9.097656 L 222.011719 8.492188 L 221.570313 7.992188 "/>
<path style="fill:none;stroke-width:0.5;stroke-linecap:round;stroke-linejoin:round;stroke:rgb(75.686275%,70.980392%,61.568627%);stroke-opacity:1;stroke-miterlimit:10;" d="M 186.089844 16.148438 L 186.027344 15.074219 L 187.589844 11.9375 L 186.300781 7.722656 "/>
<path style="fill:none;stroke-width:2;stroke-linecap:round;stroke-linejoin:round;stroke:rgb(75.686275%,70.980392%,61.568627%);stroke-opacity:1;stroke-miterlimit:10;" d="M 182.652344 10.308594 L 181.195313 7.730469 "/>
<path style="fill:none;stroke-width:1.75;stroke-linecap:round;stroke-linejoin:round;stroke:rgb(75.686275%,70.980392%,61.568627%);stroke-opacity:1;stroke-miterlimit:10;" d="M 220.601563 7.636719 L 219.4375 6.152344 L 219.601563 4.851563 L 220.015625 3.5625 L 220.628906 2.238281 L 221.65625 1.613281 L 221.597656 0.566406 L 221.976563 -0.394531 L 224.398438 -0.582031 L 225.46875 -1.203125 L 226.804688 -1.667969 L 229.3125 -1.703125 L 229.992188 -3 "/>
<path style="fill:none;stroke-width:1.75;stroke-linecap:round;stroke-linejoin:round;stroke:rgb(75.686275%,70.980392%,61.568627%);stroke-opacity:1;stroke-miterlimit:10;" d="M 209.984375 5.082031 L 211.511719 3.835938 L 213.097656 3.269531 L 214.945313 0.355469 L 216.203125 0.285156 L 217.65625 0.585938 L 218.75 -0.8125 L 218.710938 -1.992188 L 219.929688 -2.890625 L 220.074219 -3 "/>
<path style="fill:none;stroke-width:0.5;stroke-linecap:round;stroke-linejoin:round;stroke:rgb(75.686275%,70.980392%,61.568627%);stroke-opacity:1;stroke-miterlimit:10;" d="M 233.683594 -2 L 234.324219 -1.0625 L 235.496094 -0.015625 L 237.175781 1.8125 L 238.363281 2.394531 L 240.253906 4.242188 L 241.191406 4.882813 L 241.921875 4.925781 "/>
<path style="fill:none;stroke-width:0.5;stroke-linecap:round;stroke-linejoin:round;stroke:rgb(75.686275%,70.980392%,61.568627%);stroke-opacity:1;stroke-miterlimit:10;" d="M 251.390625 5.707031 L 252.132813 4.894531 L 253.269531 4.472656 L 254.460938 4.289063 "/>
<path style="fill:none;stroke-width:0.5;stroke-linecap:round;stroke-linejoin:round;stroke:rgb(75.686275%,70.980392%,61.568627%);stroke-opacity:1;stroke-miterlimit:10;" d="M 241.613281 4.9375 L 242.367188 3.382813 L 242.855469 2.304688 L 243.910156 0.898438 L 244.84375 -0.214844 L 246.074219 -0.796875 L 247.949219 -0.960938 L 248.921875 -1.960938 L 249 -2 "/>
<path style="fill:none;stroke-width:0.5;stroke-linecap:round;stroke-linejoin:round;stroke:rgb(75.686275%,70.980392%,61.568627%);stroke-opacity:1;stroke-miterlimit:10;" d="M 251.390625 5.707031 L 250.675781 6.503906 L 248.707031 7.09375 L 247.535156 6.300781 L 247.003906 5.375 L 245.113281 4.84375 L 242.90625 4.945313 L 241.921875 4.925781 "/>
<path style="fill:none;stroke-width:1.75;stroke-linecap:round;stroke-linejoin:round;stroke:rgb(75.686275%,70.980392%,61.568627%);stroke-opacity:1;stroke-miterlimit:10;" d="M 213.050781 7.847656 L 212.269531 7.183594 L 210.8125 6.394531 L 209.941406 5.742188 L 209.984375 5.082031 "/>
<path style="fill:none;stroke-width:0.5;stroke-linecap:round;stroke-linejoin:round;stroke:rgb(75.686275%,70.980392%,61.568627%);stroke-opacity:1;stroke-miterlimit:10;" d="M 179.414063 5.59375 L 178.007813 5.867188 L 175.976563 4.222656 L 175.15625 3.285156 L 173.921875 2.253906 L 172.730469 0.40625 L 172.257813 -1.242188 L 171.90625 -2 "/>
<path style="fill:none;stroke-width:0.5;stroke-linecap:round;stroke-linejoin:round;stroke:rgb(75.686275%,70.980392%,61.568627%);stroke-opacity:1;stroke-miterlimit:10;" d="M 254.542969 4.335938 L 254.460938 4.289063 "/>
<path style="fill:none;stroke-width:0.5;stroke-linecap:round;stroke-linejoin:round;stroke:rgb(75.686275%,70.980392%,61.568627%);stroke-opacity:1;stroke-miterlimit:10;" d="M 186.300781 7.722656 L 184.0625 5.277344 L 182.917969 2.582031 L 181.992188 1.078125 L 181.179688 -2 "/>
<path style="fill:none;stroke-width:1.75;stroke-linecap:round;stroke-linejoin:round;stroke:rgb(75.686275%,70.980392%,61.568627%);stroke-opacity:1;stroke-miterlimit:10;" d="M 221.570313 7.992188 L 220.601563 7.636719 "/>
<path style="fill:none;stroke-width:2;stroke-linecap:round;stroke-linejoin:round;stroke:rgb(75.686275%,70.980392%,61.568627%);stroke-opacity:1;stroke-miterlimit:10;" d="M 181.195313 7.730469 L 179.039063 5.15625 L 177.199219 2.234375 L 174.898438 -0.929688 L 174.386719 -2.054688 L 174.148438 -3 "/>
<path style="fill:none;stroke-width:1.75;stroke-linecap:round;stroke-linejoin:round;stroke:rgb(75.686275%,70.980392%,61.568627%);stroke-opacity:1;stroke-miterlimit:10;" d="M 147.722656 9.894531 L 147.671875 7.902344 "/>
<path style="fill:none;stroke-width:1.75;stroke-linecap:round;stroke-linejoin:round;stroke:rgb(75.686275%,70.980392%,61.568627%);stroke-opacity:1;stroke-miterlimit:10;" d="M 125.460938 7.996094 L 125.015625 9.355469 L 123.058594 9.460938 "/>
<path style="fill:none;stroke-width:1.75;stroke-linecap:round;stroke-linejoin:round;stroke:rgb(75.686275%,70.980392%,61.568627%);stroke-opacity:1;stroke-miterlimit:10;" d="M 148.175781 11.820313 L 152.78125 7.90625 "/>
<path style="fill:none;stroke-width:1.75;stroke-linecap:round;stroke-linejoin:round;stroke:rgb(75.686275%,70.980392%,61.568627%);stroke-opacity:1;stroke-miterlimit:10;" d="M 135.054688 4.992188 L 128.820313 5.230469 "/>
<path style="fill:none;stroke-width:0.5;stroke-linecap:round;stroke-linejoin:round;stroke:rgb(75.686275%,70.980392%,61.568627%);stroke-opacity:1;stroke-miterlimit:10;" d="M 134.835938 5.042969 L 135.050781 4.804688 "/>
<path style="fill:none;stroke-width:1.75;stroke-linecap:round;stroke-linejoin:round;stroke:rgb(75.686275%,70.980392%,61.568627%);stroke-opacity:1;stroke-miterlimit:10;" d="M 125.460938 7.996094 L 125.449219 2.78125 L 123.667969 1.046875 L 122.550781 -0.96875 L 122.855469 -3 "/>
<path style="fill:none;stroke-width:1.75;stroke-linecap:round;stroke-linejoin:round;stroke:rgb(75.686275%,70.980392%,61.568627%);stroke-opacity:1;stroke-miterlimit:10;" d="M 147.671875 6.523438 L 147.675781 5.355469 L 147.300781 2.488281 L 147.363281 -3 "/>
<path style="fill:none;stroke-width:1.75;stroke-linecap:round;stroke-linejoin:round;stroke:rgb(75.686275%,70.980392%,61.568627%);stroke-opacity:1;stroke-miterlimit:10;" d="M 153.546875 6.71875 L 145.980469 6.453125 L 142.386719 5.042969 L 135.054688 4.992188 "/>
<path style="fill:none;stroke-width:1.75;stroke-linecap:round;stroke-linejoin:round;stroke:rgb(75.686275%,70.980392%,61.568627%);stroke-opacity:1;stroke-miterlimit:10;" d="M 147.671875 7.902344 L 147.671875 6.523438 "/>
<path style="fill:none;stroke-width:1.75;stroke-linecap:round;stroke-linejoin:round;stroke:rgb(75.686275%,70.980392%,61.568627%);stroke-opacity:1;stroke-miterlimit:10;" d="M 152.78125 7.90625 L 154.386719 5.617188 L 156.332031 0.429688 L 158.367188 -1.746094 "/>
<path style="fill:none;stroke-width:0.5;stroke-linecap:round;stroke-linejoin:round;stroke:rgb(75.686275%,70.980392%,61.568627%);stroke-opacity:1;stroke-miterlimit:10;" d="M 135.054688 4.992188 L 135.003906 -2 "/>
<path style="fill:none;stroke-width:1.75;stroke-linecap:round;stroke-linejoin:round;stroke:rgb(75.686275%,70.980392%,61.568627%);stroke-opacity:1;stroke-miterlimit:10;" d="M 128.785156 5.210938 L 128.070313 4.5 L 127.484375 3.644531 L 125.46875 3.488281 "/>
<path style="fill:none;stroke-width:0.5;stroke-linecap:round;stroke-linejoin:round;stroke:rgb(75.686275%,70.980392%,61.568627%);stroke-opacity:1;stroke-miterlimit:10;" d="M 98.828125 13.730469 L 97.152344 11.425781 L 96.21875 8.445313 L 96.125 7.808594 "/>
<path style="fill:none;stroke-width:1.75;stroke-linecap:round;stroke-linejoin:round;stroke:rgb(75.686275%,70.980392%,61.568627%);stroke-opacity:1;stroke-miterlimit:10;" d="M 71.285156 2.949219 L 69.558594 2.902344 L 67.980469 2.304688 L 67.070313 3.359375 L 65.824219 5.609375 L 64 6.742188 "/>
<path style="fill:none;stroke-width:1.75;stroke-linecap:round;stroke-linejoin:round;stroke:rgb(75.686275%,70.980392%,61.568627%);stroke-opacity:1;stroke-miterlimit:10;" d="M 71.285156 2.949219 L 71.308594 2.949219 "/>
<path style="fill:none;stroke-width:1.75;stroke-linecap:round;stroke-linejoin:round;stroke:rgb(75.686275%,70.980392%,61.568627%);stroke-opacity:1;stroke-miterlimit:10;" d="M 90.894531 20.941406 L 88.894531 19.214844 L 88.324219 12.988281 L 87.160156 11.664063 L 86.714844 8.710938 L 86.503906 7.84375 "/>
<path style="fill:none;stroke-width:0.5;stroke-linecap:round;stroke-linejoin:round;stroke:rgb(75.686275%,70.980392%,61.568627%);stroke-opacity:1;stroke-miterlimit:10;" d="M 95.449219 14.738281 L 94.398438 12.070313 L 94.261719 7.863281 "/>
<path style="fill:none;stroke-width:0.5;stroke-linecap:round;stroke-linejoin:round;stroke:rgb(75.686275%,70.980392%,61.568627%);stroke-opacity:1;stroke-miterlimit:10;" d="M 94.9375 7.871094 L 94.261719 7.863281 "/>
<path style="fill:none;stroke-width:0.5;stroke-linecap:round;stroke-linejoin:round;stroke:rgb(75.686275%,70.980392%,61.568627%);stroke-opacity:1;stroke-miterlimit:10;" d="M 96.125 7.808594 L 95.304688 6.351563 "/>
<path style="fill:none;stroke-width:1.75;stroke-linecap:round;stroke-linejoin:round;stroke:rgb(75.686275%,70.980392%,61.568627%);stroke-opacity:1;stroke-miterlimit:10;" d="M 83.335938 1.621094 L 83.699219 1.5625 "/>
<path style="fill:none;stroke-width:1.75;stroke-linecap:round;stroke-linejoin:round;stroke:rgb(75.686275%,70.980392%,61.568627%);stroke-opacity:1;stroke-miterlimit:10;" d="M 95.308594 2.484375 L 94.945313 2.484375 "/>
<path style="fill:none;stroke-width:1.75;stroke-linecap:round;stroke-linejoin:round;stroke:rgb(75.686275%,70.980392%,61.568627%);stroke-opacity:1;stroke-miterlimit:10;" d="M 92.589844 2.488281 L 88.339844 2.453125 L 84.410156 1.511719 L 83.699219 1.5625 "/>
<path style="fill:none;stroke-width:1.75;stroke-linecap:round;stroke-linejoin:round;stroke:rgb(75.686275%,70.980392%,61.568627%);stroke-opacity:1;stroke-miterlimit:10;" d="M 71.308594 2.949219 L 73.003906 2.488281 L 74.257813 1.855469 L 76.535156 1.382813 L 77.632813 0.683594 L 80.605469 1.132813 L 81.980469 1.777344 L 83.335938 1.621094 "/>
<path style="fill:none;stroke-width:1.75;stroke-linecap:round;stroke-linejoin:round;stroke:rgb(75.686275%,70.980392%,61.568627%);stroke-opacity:1;stroke-miterlimit:10;" d="M 95.308594 2.484375 L 100.449219 2.457031 L 101.335938 0.882813 L 101.582031 -0.167969 "/>
<path style="fill:none;stroke-width:1.75;stroke-linecap:round;stroke-linejoin:round;stroke:rgb(75.686275%,70.980392%,61.568627%);stroke-opacity:1;stroke-miterlimit:10;" d="M 92.589844 2.488281 L 94.945313 2.484375 "/>
<path style="fill:none;stroke-width:1.75;stroke-linecap:round;stroke-linejoin:round;stroke:rgb(75.686275%,70.980392%,61.568627%);stroke-opacity:1;stroke-miterlimit:10;" d="M 86.503906 7.84375 L 85.6875 7.066406 L 84.574219 6.035156 L 84.113281 4.050781 L 83.722656 2.546875 L 83.699219 1.5625 "/>
<path style="fill:none;stroke-width:1.75;stroke-linecap:round;stroke-linejoin:round;stroke:rgb(75.686275%,70.980392%,61.568627%);stroke-opacity:1;stroke-miterlimit:10;" d="M 83.335938 1.621094 L 82.894531 -0.191406 L 82.753906 -1.347656 L 82.777344 -3 "/>
<path style="fill:none;stroke-width:0.5;stroke-linecap:round;stroke-linejoin:round;stroke:rgb(75.686275%,70.980392%,61.568627%);stroke-opacity:1;stroke-miterlimit:10;" d="M 95.308594 2.484375 L 95.34375 -2 "/>
<path style="fill:none;stroke-width:0.5;stroke-linecap:round;stroke-linejoin:round;stroke:rgb(75.686275%,70.980392%,61.568627%);stroke-opacity:1;stroke-miterlimit:10;" d="M 94.9375 7.871094 L 95.308594 2.484375 "/>
<path style="fill:none;stroke-width:0.5;stroke-linecap:round;stroke-linejoin:round;stroke:rgb(75.686275%,70.980392%,61.568627%);stroke-opacity:1;stroke-miterlimit:10;" d="M 257 6.296875 L 254.992188 4.90625 L 254.542969 4.335938 "/>
<path style="fill:none;stroke-width:0.75;stroke-linecap:round;stroke-linejoin:round;stroke:rgb(100%,99.215686%,54.509804%);stroke-opacity:1;stroke-miterlimit:10;" d="M 128.820313 5.230469 L 128.785156 5.210938 "/>
<path style="fill:none;stroke-width:0.75;stroke-linecap:round;stroke-linejoin:round;stroke:rgb(100%,99.215686%,54.509804%);stroke-opacity:1;stroke-miterlimit:10;" d="M 215.710938 9.292969 L 215.085938 8.042969 L 214.089844 7.988281 L 212.957031 8.375 L 212.738281 8.328125 "/>
<path style="fill:none;stroke-width:0.75;stroke-linecap:round;stroke-linejoin:round;stroke:rgb(100%,99.215686%,54.509804%);stroke-opacity:1;stroke-miterlimit:10;" d="M 212.738281 8.328125 L 213.050781 7.847656 "/>
<path style="fill:none;stroke-width:0.75;stroke-linecap:round;stroke-linejoin:round;stroke:rgb(100%,99.215686%,54.509804%);stroke-opacity:1;stroke-miterlimit:10;" d="M 224.765625 9.265625 L 223.757813 9.097656 L 222.011719 8.492188 L 221.570313 7.992188 "/>
<path style="fill:none;stroke-width:1;stroke-linecap:round;stroke-linejoin:round;stroke:rgb(100%,99.215686%,54.509804%);stroke-opacity:1;stroke-miterlimit:10;" d="M 182.652344 10.308594 L 181.195313 7.730469 "/>
<path style="fill:none;stroke-width:0.75;stroke-linecap:round;stroke-linejoin:round;stroke:rgb(100%,99.215686%,54.509804%);stroke-opacity:1;stroke-miterlimit:10;" d="M 220.601563 7.636719 L 219.4375 6.152344 L 219.601563 4.851563 L 220.015625 3.5625 L 220.628906 2.238281 L 221.65625 1.613281 L 221.597656 0.566406 L 221.976563 -0.394531 L 224.398438 -0.582031 L 225.46875 -1.203125 L 226.804688 -1.667969 L 229.3125 -1.703125 L 229.992188 -3 "/>
<path style="fill:none;stroke-width:0.75;stroke-linecap:round;stroke-linejoin:round;stroke:rgb(100%,99.215686%,54.509804%);stroke-opacity:1;stroke-miterlimit:10;" d="M 209.984375 5.082031 L 211.511719 3.835938 L 213.097656 3.269531 L 214.945313 0.355469 L 216.203125 0.285156 L 217.65625 0.585938 L 218.75 -0.8125 L 218.710938 -1.992188 L 219.929688 -2.890625 L 220.074219 -3 "/>
<path style="fill:none;stroke-width:0.75;stroke-linecap:round;stroke-linejoin:round;stroke:rgb(100%,99.215686%,54.509804%);stroke-opacity:1;stroke-miterlimit:10;" d="M 213.050781 7.847656 L 212.269531 7.183594 L 210.8125 6.394531 L 209.941406 5.742188 L 209.984375 5.082031 "/>
<path style="fill:none;stroke-width:0.75;stroke-linecap:round;stroke-linejoin:round;stroke:rgb(100%,99.215686%,54.509804%);stroke-opacity:1;stroke-miterlimit:10;" d="M 221.570313 7.992188 L 220.601563 7.636719 "/>
<path style="fill:none;stroke-width:1;stroke-linecap:round;stroke-linejoin:round;stroke:rgb(100%,99.215686%,54.509804%);stroke-opacity:1;stroke-miterlimit:10;" d="M 181.195313 7.730469 L 179.039063 5.15625 L 177.199219 2.234375 L 174.898438 -0.929688 L 174.386719 -2.054688 L 174.148438 -3 "/>
<path style="fill:none;stroke-width:0.75;stroke-linecap:round;stroke-linejoin:round;stroke:rgb(100%,99.215686%,54.509804%);stroke-opacity:1;stroke-miterlimit:10;" d="M 147.722656 9.894531 L 147.671875 7.902344 "/>
<path style="fill:none;stroke-width:0.75;stroke-linecap:round;stroke-linejoin:round;stroke:rgb(100%,99.215686%,54.509804%);stroke-opacity:1;stroke-miterlimit:10;" d="M 125.460938 7.996094 L 125.015625 9.355469 L 123.058594 9.460938 "/>
<path style="fill:none;stroke-width:0.75;stroke-linecap:round;stroke-linejoin:round;stroke:rgb(100%,99.215686%,54.509804%);stroke-opacity:1;stroke-miterlimit:10;" d="M 148.175781 11.820313 L 152.78125 7.90625 "/>
<path style="fill:none;stroke-width:0.75;stroke-linecap:round;stroke-linejoin:round;stroke:rgb(100%,99.215686%,54.509804%);stroke-opacity:1;stroke-miterlimit:10;" d="M 135.054688 4.992188 L 128.820313 5.230469 "/>
<path style="fill:none;stroke-width:0.75;stroke-linecap:round;stroke-linejoin:round;stroke:rgb(100%,99.215686%,54.509804%);stroke-opacity:1;stroke-miterlimit:10;" d="M 125.460938 7.996094 L 125.449219 2.78125 L 123.667969 1.046875 L 122.550781 -0.96875 L 122.855469 -3 "/>
<path style="fill:none;stroke-width:0.75;stroke-linecap:round;stroke-linejoin:round;stroke:rgb(100%,99.215686%,54.509804%);stroke-opacity:1;stroke-miterlimit:10;" d="M 147.671875 6.523438 L 147.675781 5.355469 L 147.300781 2.488281 L 147.363281 -3 "/>
<path style="fill:none;stroke-width:0.75;stroke-linecap:round;stroke-linejoin:round;stroke:rgb(100%,99.215686%,54.509804%);stroke-opacity:1;stroke-miterlimit:10;" d="M 153.546875 6.71875 L 145.980469 6.453125 L 142.386719 5.042969 L 135.054688 4.992188 "/>
<path style="fill:none;stroke-width:0.75;stroke-linecap:round;stroke-linejoin:round;stroke:rgb(100%,99.215686%,54.509804%);stroke-opacity:1;stroke-miterlimit:10;" d="M 147.671875 7.902344 L 147.671875 6.523438 "/>
<path style="fill:none;stroke-width:0.75;stroke-linecap:round;stroke-linejoin:round;stroke:rgb(100%,99.215686%,54.509804%);stroke-opacity:1;stroke-miterlimit:10;" d="M 152.78125 7.90625 L 154.386719 5.617188 L 156.332031 0.429688 L 158.367188 -1.746094 "/>
<path style="fill:none;stroke-width:0.75;stroke-linecap:round;stroke-linejoin:round;stroke:rgb(100%,99.215686%,54.509804%);stroke-opacity:1;stroke-miterlimit:10;" d="M 128.785156 5.210938 L 128.070313 4.5 L 127.484375 3.644531 L 125.46875 3.488281 "/>
<path style="fill:none;stroke-width:0.75;stroke-linecap:round;stroke-linejoin:round;stroke:rgb(100%,99.215686%,54.509804%);stroke-opacity:1;stroke-miterlimit:10;" d="M 71.285156 2.949219 L 69.558594 2.902344 L 67.980469 2.304688 L 67.070313 3.359375 L 65.824219 5.609375 L 64 6.742188 "/>
<path style="fill:none;stroke-width:0.75;stroke-linecap:round;stroke-linejoin:round;stroke:rgb(100%,99.215686%,54.509804%);stroke-opacity:1;stroke-miterlimit:10;" d="M 71.285156 2.949219 L 71.308594 2.949219 "/>
<path style="fill:none;stroke-width:0.75;stroke-linecap:round;stroke-linejoin:round;stroke:rgb(100%,99.215686%,54.509804%);stroke-opacity:1;stroke-miterlimit:10;" d="M 90.894531 20.941406 L 88.894531 19.214844 L 88.324219 12.988281 L 87.160156 11.664063 L 86.714844 8.710938 L 86.503906 7.84375 "/>
<path style="fill:none;stroke-width:0.75;stroke-linecap:round;stroke-linejoin:round;stroke:rgb(100%,99.215686%,54.509804%);stroke-opacity:1;stroke-miterlimit:10;" d="M 83.335938 1.621094 L 83.699219 1.5625 "/>
<path style="fill:none;stroke-width:0.75;stroke-linecap:round;stroke-linejoin:round;stroke:rgb(100%,99.215686%,54.509804%);stroke-opacity:1;stroke-miterlimit:10;" d="M 95.308594 2.484375 L 94.945313 2.484375 "/>
<path style="fill:none;stroke-width:0.75;stroke-linecap:round;stroke-linejoin:round;stroke:rgb(100%,99.215686%,54.509804%);stroke-opacity:1;stroke-miterlimit:10;" d="M 92.589844 2.488281 L 88.339844 2.453125 L 84.410156 1.511719 L 83.699219 1.5625 "/>
<path style="fill:none;stroke-width:0.75;stroke-linecap:round;stroke-linejoin:round;stroke:rgb(100%,99.215686%,54.509804%);stroke-opacity:1;stroke-miterlimit:10;" d="M 71.308594 2.949219 L 73.003906 2.488281 L 74.257813 1.855469 L 76.535156 1.382813 L 77.632813 0.683594 L 80.605469 1.132813 L 81.980469 1.777344 L 83.335938 1.621094 "/>
<path style="fill:none;stroke-width:0.75;stroke-linecap:round;stroke-linejoin:round;stroke:rgb(100%,99.215686%,54.509804%);stroke-opacity:1;stroke-miterlimit:10;" d="M 95.308594 2.484375 L 100.449219 2.457031 L 101.335938 0.882813 L 101.582031 -0.167969 "/>
<path style="fill:none;stroke-width:0.75;stroke-linecap:round;stroke-linejoin:round;stroke:rgb(100%,99.215686%,54.509804%);stroke-opacity:1;stroke-miterlimit:10;" d="M 92.589844 2.488281 L 94.945313 2.484375 "/>
<path style="fill:none;stroke-width:0.75;stroke-linecap:round;stroke-linejoin:round;stroke:rgb(100%,99.215686%,54.509804%);stroke-opacity:1;stroke-miterlimit:10;" d="M 86.503906 7.84375 L 85.6875 7.066406 L 84.574219 6.035156 L 84.113281 4.050781 L 83.722656 2.546875 L 83.699219 1.5625 "/>
<path style="fill:none;stroke-width:0.75;stroke-linecap:round;stroke-linejoin:round;stroke:rgb(100%,99.215686%,54.509804%);stroke-opacity:1;stroke-miterlimit:10;" d="M 83.335938 1.621094 L 82.894531 -0.191406 L 82.753906 -1.347656 L 82.777344 -3 "/>
<path style="fill:none;stroke-width:1;stroke-linecap:butt;stroke-linejoin:round;stroke:rgb(70.588235%,70.588235%,70.588235%);stroke-opacity:1;stroke-miterlimit:10;" d="M 173.222656 0.667969 L 174.902344 0.671875 "/>
</g>
</svg>

