<?xml version="1.0" encoding="UTF-8"?>
<svg xmlns="http://www.w3.org/2000/svg" xmlns:xlink="http://www.w3.org/1999/xlink" width="256pt" height="256pt" viewBox="0 0 256 256" version="1.1">
<g id="surface2">
<rect x="0" y="0" width="256" height="256" style="fill:rgb(94.901961%,93.72549%,91.372549%);fill-opacity:1;stroke:none;"/>
<path style=" stroke:none;fill-rule:evenodd;fill:rgb(60%,70.196078%,80%);fill-opacity:1;" d="M -4 259 L 259 259 L 259 235.996094 L 258.464844 235.144531 L 256.972656 235.109375 L 255.90625 235.964844 L 254.824219 236.269531 L 253.675781 236.351563 L 252.511719 236.722656 L 251.257813 237.414063 L 250.125 238.21875 L 249.152344 238.558594 L 247.679688 239.214844 L 246.660156 239.804688 L 246.671875 238.765625 L 245.128906 240.121094 L 244.242188 240.609375 L 243.160156 241.128906 L 242.757813 242.109375 L 240.398438 242.933594 L 238.824219 243.800781 L 236.8125 244.296875 L 235.75 244.90625 L 234.65625 245.757813 L 232.949219 246.589844 L 231.703125 246.628906 L 230.824219 247.136719 L 229.449219 247.550781 L 228.308594 247.261719 L 227.390625 247.714844 L 226.304688 247.671875 L 225.570313 248.441406 L 224.804688 249.113281 L 223.699219 249.726563 L 222.917969 250.523438 L 221.765625 250.867188 L 221.667969 251.929688 L 222.652344 251.414063 L 222.085938 252.292969 L 221.300781 251.492188 L 219.832031 251.035156 L 218.699219 251.417969 L 217.691406 251.78125 L 216.621094 251.910156 L 215.875 252.722656 L 214.730469 252.617188 L 214.039063 251.679688 L 212.765625 250.703125 L 213.835938 252.214844 L 213.335938 253.328125 L 213.402344 255.007813 L 212.980469 256.011719 L 212.007813 257.050781 L 210.839844 258.097656 L 210.261719 259 L 218.632813 259 L 219.585938 258.011719 L 220.675781 257.40625 L 221.722656 257.511719 L 225.089844 254.761719 L 225.496094 253.746094 L 226.308594 252.820313 L 227.007813 251.832031 L 227.835938 251.160156 L 229.496094 250.375 L 231.292969 249.683594 L 233.261719 249.050781 L 235.089844 248.675781 L 236.652344 248.300781 L 237.53125 247.796875 L 239.207031 247.433594 L 240.757813 246.878906 L 242.152344 246.054688 L 243.371094 245.847656 L 244.535156 244.992188 L 245.695313 244.046875 L 247.835938 241.539063 L 249.101563 241.957031 L 249.699219 242.765625 L 250.496094 243.660156 L 250.097656 245.109375 L 251.03125 244.277344 L 252.234375 242.808594 L 253.316406 242.542969 L 254.847656 241.457031 L 256.546875 242.15625 L 257.792969 241.683594 L 258.964844 241.335938 L 259 245.445313 L 258.234375 246.25 L 258.59375 247.230469 L 259 253.332031 L 257.765625 254.703125 L 258.890625 256.6875 L 259 259 Z M 214.441406 259 L 214.511719 258.550781 L 214.894531 259 Z M 222.105469 257.082031 L 222.125 257.082031 L 221.988281 257.183594 Z M 222.160156 257.027344 L 222.210938 257.035156 L 222.15625 257.066406 Z M 222.222656 256.964844 L 222.234375 256.960938 L 222.21875 256.984375 Z M 222.300781 256.925781 L 222.324219 256.957031 L 222.257813 256.941406 Z M 228.121094 248.839844 L 228.429688 248.535156 L 228.074219 248.96875 Z M 247.6875 240.375 L 247.777344 240.9375 L 247.601563 240.289063 Z M 249.960938 241.632813 L 250.160156 241.53125 L 249.90625 241.859375 Z M 250.320313 244.027344 L 250.546875 243.679688 L 250.195313 244.820313 Z M 251.625 240.746094 L 251.699219 240.789063 L 251.566406 240.765625 Z M 251.808594 240.835938 L 252.121094 240.558594 L 251.773438 240.933594 Z M 252.375 242.34375 L 252.453125 242.3125 L 252.359375 242.371094 Z M 252.941406 241.761719 L 253.003906 241.769531 L 252.875 241.882813 Z M 257.644531 241.230469 L 257.742188 241.226563 L 257.519531 241.351563 Z M 257.949219 241.457031 L 258.042969 241.488281 L 257.871094 241.527344 Z M 258.039063 238.421875 L 258.117188 238.429688 L 258.023438 238.433594 Z M 258.453125 240.820313 L 258.644531 240.78125 L 258.042969 241.269531 Z M 8169489.371094 5476865.949219 Z M 8169489.371094 5476865.949219 "/>
<path style="fill:none;stroke-width:1;stroke-linecap:round;stroke-linejoin:round;stroke:rgb(70.196078%,77.647059%,83.137255%);stroke-opacity:1;stroke-miterlimit:10;" d="M -4 259 L 259 259 L 259 235.996094 L 258.464844 235.144531 L 256.972656 235.109375 L 255.90625 235.964844 L 254.824219 236.269531 L 253.675781 236.351563 L 252.511719 236.722656 L 251.257813 237.414063 L 250.125 238.21875 L 249.152344 238.558594 L 247.679688 239.214844 L 246.660156 239.804688 L 246.671875 238.765625 L 245.128906 240.121094 L 244.242188 240.609375 L 243.160156 241.128906 L 242.757813 242.109375 L 240.398438 242.933594 L 238.824219 243.800781 L 236.8125 244.296875 L 235.75 244.90625 L 234.65625 245.757813 L 232.949219 246.589844 L 231.703125 246.628906 L 230.824219 247.136719 L 229.449219 247.550781 L 228.308594 247.261719 L 227.390625 247.714844 L 226.304688 247.671875 L 225.570313 248.441406 L 224.804688 249.113281 L 223.699219 249.726563 L 222.917969 250.523438 L 221.765625 250.867188 L 221.667969 251.929688 L 222.652344 251.414063 L 222.085938 252.292969 L 221.300781 251.492188 L 219.832031 251.035156 L 218.699219 251.417969 L 217.691406 251.78125 L 216.621094 251.910156 L 215.875 252.722656 L 214.730469 252.617188 L 214.039063 251.679688 L 212.765625 250.703125 L 213.835938 252.214844 L 213.335938 253.328125 L 213.402344 255.007813 L 212.980469 256.011719 L 212.007813 257.050781 L 210.839844 258.097656 L 210.261719 259 L 218.632813 259 L 219.585938 258.011719 L 220.675781 257.40625 L 221.722656 257.511719 L 225.089844 254.761719 L 225.496094 253.746094 L 226.308594 252.820313 L 227.007813 251.832031 L 227.835938 251.160156 L 229.496094 250.375 L 231.292969 249.683594 L 233.261719 249.050781 L 235.089844 248.675781 L 236.652344 248.300781 L 237.53125 247.796875 L 239.207031 247.433594 L 240.757813 246.878906 L 242.152344 246.054688 L 243.371094 245.847656 L 244.535156 244.992188 L 245.695313 244.046875 L 247.835938 241.539063 L 249.101563 241.957031 L 249.699219 242.765625 L 250.496094 243.660156 L 250.097656 245.109375 L 251.03125 244.277344 L 252.234375 242.808594 L 253.316406 242.542969 L 254.847656 241.457031 L 256.546875 242.15625 L 257.792969 241.683594 L 258.964844 241.335938 L 259 245.445313 L 258.234375 246.25 L 258.59375 247.230469 L 259 253.332031 L 257.765625 254.703125 L 258.890625 256.6875 L 259 259 L -4 259 M 214.441406 259 L 214.511719 258.550781 L 214.894531 259 L 214.441406 259 M 222.105469 257.082031 L 222.125 257.082031 L 221.988281 257.183594 L 222.105469 257.082031 M 222.160156 257.027344 L 222.210938 257.035156 L 222.15625 257.066406 L 222.160156 257.027344 M 222.222656 256.964844 L 222.234375 256.960938 L 222.21875 256.984375 L 222.222656 256.964844 M 222.300781 256.925781 L 222.324219 256.957031 L 222.257813 256.941406 L 222.300781 256.925781 M 228.121094 248.839844 L 228.429688 248.535156 L 228.074219 248.96875 L 228.121094 248.839844 M 247.6875 240.375 L 247.777344 240.9375 L 247.601563 240.289063 L 247.6875 240.375 M 249.960938 241.632813 L 250.160156 241.53125 L 249.90625 241.859375 L 249.960938 241.632813 M 250.320313 244.027344 L 250.546875 243.679688 L 250.195313 244.820313 L 250.320313 244.027344 M 251.625 240.746094 L 251.699219 240.789063 L 251.566406 240.765625 L 251.625 240.746094 M 251.808594 240.835938 L 252.121094 240.558594 L 251.773438 240.933594 L 251.808594 240.835938 M 252.375 242.34375 L 252.453125 242.3125 L 252.359375 242.371094 L 252.375 242.34375 M 252.941406 241.761719 L 253.003906 241.769531 L 252.875 241.882813 L 252.941406 241.761719 M 257.644531 241.230469 L 257.742188 241.226563 L 257.519531 241.351563 L 257.644531 241.230469 M 257.949219 241.457031 L 258.042969 241.488281 L 257.871094 241.527344 L 257.949219 241.457031 M 258.039063 238.421875 L 258.117188 238.429688 L 258.023438 238.433594 L 258.039063 238.421875 M 258.453125 240.820313 L 258.644531 240.78125 L 258.042969 241.269531 L 258.453125 240.820313 "/>
</g>
</svg>

