<?xml version="1.0" encoding="UTF-8"?>
<svg xmlns="http://www.w3.org/2000/svg" xmlns:xlink="http://www.w3.org/1999/xlink" width="256pt" height="256pt" viewBox="0 0 256 256" version="1.1">
<g id="surface2">
<rect x="0" y="0" width="256" height="256" style="fill:rgb(94.901961%,93.72549%,91.372549%);fill-opacity:1;stroke:none;"/>
<path style="fill:none;stroke-width:1;stroke-linecap:round;stroke-linejoin:round;stroke:rgb(100%,100%,100%);stroke-opacity:1;stroke-dasharray:2,3;stroke-miterlimit:10;" d="M 248.804688 -2 L 241.882813 18.613281 L 227.105469 36.804688 L 195.652344 45.515625 L 177.085938 47.792969 L 158.898438 75.074219 L 158.140625 119.40625 "/>
<path style="fill:none;stroke-width:8;stroke-linecap:round;stroke-linejoin:round;stroke:rgb(75.686275%,70.980392%,61.568627%);stroke-opacity:1;stroke-miterlimit:10;" d="M 264 168.113281 L 262.199219 170.957031 L 260.894531 172.195313 L 257.609375 174.019531 L 254.046875 174.703125 L 249.292969 174.636719 L 245.726563 173.921875 L 242.023438 172.097656 L 238.644531 168.613281 L 236.035156 164.347656 L 233.679688 153.082031 L 232.28125 148.75 L 229.113281 142.335938 L 226.152344 138.265625 L 218.113281 129.539063 L 213.289063 125.375 "/>
<path style="fill:none;stroke-width:6;stroke-linecap:round;stroke-linejoin:round;stroke:rgb(100%,100%,100%);stroke-opacity:1;stroke-miterlimit:10;" d="M 264 168.113281 L 262.199219 170.957031 L 260.894531 172.195313 L 257.609375 174.019531 L 254.046875 174.703125 L 249.292969 174.636719 L 245.726563 173.921875 L 242.023438 172.097656 L 238.644531 168.613281 L 236.035156 164.347656 L 233.679688 153.082031 L 232.28125 148.75 L 229.113281 142.335938 L 226.152344 138.265625 L 218.113281 129.539063 L 213.289063 125.375 "/>
</g>
</svg>

