<?xml version="1.0" encoding="UTF-8"?>
<svg xmlns="http://www.w3.org/2000/svg" xmlns:xlink="http://www.w3.org/1999/xlink" width="256pt" height="256pt" viewBox="0 0 256 256" version="1.1">
<g id="surface2">
<rect x="0" y="0" width="256" height="256" style="fill:rgb(94.901961%,93.72549%,91.372549%);fill-opacity:1;stroke:none;"/>
<path style="fill:none;stroke-width:1;stroke-linecap:round;stroke-linejoin:round;stroke:rgb(100%,100%,100%);stroke-opacity:1;stroke-dasharray:2,3;stroke-miterlimit:10;" d="M 149.558594 257 L 148.953125 249.195313 L 146.320313 211.050781 L 144.597656 195.015625 L 140.847656 168.765625 L 139.167969 149.25 L 138.886719 131.21875 "/>
<path style="fill:none;stroke-width:8;stroke-linecap:round;stroke-linejoin:round;stroke:rgb(75.686275%,70.980392%,61.568627%);stroke-opacity:1;stroke-miterlimit:10;" d="M 138.886719 131.21875 L 135.882813 83.773438 L 134.8125 59.167969 L 135.207031 55.6875 L 136.441406 52.398438 L 138.398438 46.199219 "/>
<path style="fill:none;stroke-width:8;stroke-linecap:round;stroke-linejoin:round;stroke:rgb(75.686275%,70.980392%,61.568627%);stroke-opacity:1;stroke-miterlimit:10;" d="M 203.691406 29.179688 L 200.777344 32.4375 L 198.609375 34.492188 L 196.445313 36.203125 L 192.085938 38.730469 L 187.984375 40.660156 L 184.980469 41.738281 L 177.734375 43.320313 L 145.132813 48 L 143.082031 47.875 L 140.660156 47.398438 L 138.398438 46.199219 L 135.765625 43.792969 L 134.320313 41.578125 L 133.226563 38.730469 L 132.457031 35.378906 L 128.125 3.558594 L 127.238281 -0.175781 L 125.535156 -3.8125 L 122.765625 -7.828125 L 121.902344 -9 "/>
<path style="fill:none;stroke-width:8;stroke-linecap:round;stroke-linejoin:round;stroke:rgb(75.686275%,70.980392%,61.568627%);stroke-opacity:1;stroke-miterlimit:10;" d="M 264 -2.445313 L 257.75 0.554688 L 252.902344 3.496094 L 248.265625 7.101563 L 241.742188 13.742188 L 228.085938 28.453125 L 225.921875 30.285156 L 222.773438 32.089844 L 220.351563 33.039063 L 217.089844 33.542969 L 214.804688 33.671875 L 212.007813 33.292969 L 209.121094 32.5625 L 206.347656 31.710938 L 204.761719 30.507813 L 203.691406 29.179688 L 203.085938 26.902344 L 203.085938 24.972656 L 203.691406 21.9375 L 206.347656 12.636719 L 209.003906 4.316406 L 213.535156 -9 "/>
<path style="fill:none;stroke-width:6;stroke-linecap:round;stroke-linejoin:round;stroke:rgb(100%,100%,100%);stroke-opacity:1;stroke-miterlimit:10;" d="M 138.886719 131.21875 L 135.882813 83.773438 L 134.8125 59.167969 L 135.207031 55.6875 L 136.441406 52.398438 L 138.398438 46.199219 "/>
<path style="fill:none;stroke-width:6;stroke-linecap:round;stroke-linejoin:round;stroke:rgb(100%,100%,100%);stroke-opacity:1;stroke-miterlimit:10;" d="M 203.691406 29.179688 L 200.777344 32.4375 L 198.609375 34.492188 L 196.445313 36.203125 L 192.085938 38.730469 L 187.984375 40.660156 L 184.980469 41.738281 L 177.734375 43.320313 L 145.132813 48 L 143.082031 47.875 L 140.660156 47.398438 L 138.398438 46.199219 L 135.765625 43.792969 L 134.320313 41.578125 L 133.226563 38.730469 L 132.457031 35.378906 L 128.125 3.558594 L 127.238281 -0.175781 L 125.535156 -3.8125 L 122.765625 -7.828125 L 121.902344 -9 "/>
<path style="fill:none;stroke-width:6;stroke-linecap:round;stroke-linejoin:round;stroke:rgb(100%,99.215686%,54.509804%);stroke-opacity:1;stroke-miterlimit:10;" d="M 264 -2.445313 L 257.75 0.554688 L 252.902344 3.496094 L 248.265625 7.101563 L 241.742188 13.742188 L 228.085938 28.453125 L 225.921875 30.285156 L 222.773438 32.089844 L 220.351563 33.039063 L 217.089844 33.542969 L 214.804688 33.671875 L 212.007813 33.292969 L 209.121094 32.5625 L 206.347656 31.710938 L 204.761719 30.507813 L 203.691406 29.179688 L 203.085938 26.902344 L 203.085938 24.972656 L 203.691406 21.9375 L 206.347656 12.636719 L 209.003906 4.316406 L 213.535156 -9 "/>
<path style="fill:none;stroke-width:3;stroke-linecap:round;stroke-linejoin:round;stroke:rgb(100%,100%,100%);stroke-opacity:1;stroke-miterlimit:10;" d="M 135.40625 27.351563 L 135.546875 28.335938 L 130.71875 28.992188 C 129.875 29.105469 129.28125 29.324219 128.9375 29.648438 C 128.601563 29.980469 128.476563 30.460938 128.5625 31.085938 C 128.644531 31.699219 128.894531 32.121094 129.3125 32.351563 C 129.726563 32.578125 130.359375 32.636719 131.203125 32.523438 L 136.03125 31.867188 L 136.15625 32.835938 L 131.203125 33.507813 C 130.160156 33.652344 129.34375 33.527344 128.75 33.132813 C 128.164063 32.734375 127.8125 32.089844 127.6875 31.195313 C 127.5625 30.289063 127.726563 29.570313 128.1875 29.039063 C 128.65625 28.507813 129.410156 28.167969 130.453125 28.023438 Z M 134.46875 38.316406 L 137.625 37.519531 L 137.84375 38.394531 L 129.734375 40.441406 L 129.515625 39.566406 L 130.390625 39.347656 C 129.992188 39.253906 129.675781 39.085938 129.4375 38.847656 C 129.207031 38.605469 129.039063 38.300781 128.9375 37.925781 C 128.78125 37.289063 128.929688 36.699219 129.390625 36.160156 C 129.859375 35.617188 130.550781 35.230469 131.46875 35.003906 C 132.382813 34.777344 133.171875 34.792969 133.828125 35.050781 C 134.492188 35.308594 134.90625 35.757813 135.0625 36.394531 C 135.164063 36.769531 135.164063 37.117188 135.0625 37.441406 C 134.96875 37.761719 134.769531 38.054688 134.46875 38.316406 Z M 131.6875 35.894531 C 130.976563 36.070313 130.457031 36.335938 130.125 36.691406 C 129.789063 37.054688 129.679688 37.460938 129.796875 37.910156 C 129.921875 38.378906 130.210938 38.691406 130.671875 38.847656 C 131.128906 39.011719 131.710938 39.007813 132.421875 38.832031 C 133.128906 38.652344 133.648438 38.382813 133.984375 38.019531 C 134.328125 37.664063 134.4375 37.253906 134.3125 36.785156 C 134.195313 36.335938 133.90625 36.027344 133.4375 35.863281 C 132.976563 35.707031 132.394531 35.714844 131.6875 35.894531 Z M 136.441406 45.273438 L 136.035156 45.554688 L 133.660156 42.226563 C 133.136719 42.640625 132.832031 43.089844 132.738281 43.570313 C 132.644531 44.046875 132.761719 44.527344 133.097656 45.007813 C 133.292969 45.289063 133.523438 45.527344 133.785156 45.726563 C 134.054688 45.921875 134.347656 46.105469 134.660156 46.273438 L 133.910156 46.804688 C 133.605469 46.625 133.324219 46.421875 133.066406 46.195313 C 132.816406 45.976563 132.585938 45.726563 132.378906 45.445313 C 131.878906 44.746094 131.707031 44.027344 131.863281 43.289063 C 132.027344 42.5625 132.503906 41.921875 133.285156 41.367188 C 134.085938 40.796875 134.855469 40.539063 135.597656 40.601563 C 136.347656 40.65625 136.960938 41.007813 137.441406 41.664063 C 137.855469 42.257813 137.976563 42.875 137.800781 43.523438 C 137.621094 44.167969 137.167969 44.75 136.441406 45.273438 Z M 136.160156 44.382813 C 136.597656 44.058594 136.871094 43.695313 136.988281 43.289063 C 137.101563 42.890625 137.027344 42.519531 136.769531 42.164063 C 136.476563 41.757813 136.117188 41.523438 135.691406 41.460938 C 135.261719 41.390625 134.808594 41.5 134.332031 41.789063 Z M 140.621094 42.207031 L 141.339844 42.722656 L 136.449219 49.503906 L 135.730469 48.988281 Z M 141.835938 42.980469 L 142.679688 43.261719 L 139.945313 51.167969 L 139.101563 50.886719 Z M 149.585938 47.589844 C 149.804688 47.644531 150.027344 47.785156 150.257813 48.011719 C 150.496094 48.242188 150.746094 48.566406 151.007813 48.980469 L 152.304688 51.011719 L 151.257813 51.167969 L 150.054688 49.246094 C 149.742188 48.757813 149.460938 48.441406 149.210938 48.292969 C 148.96875 48.148438 148.65625 48.105469 148.273438 48.167969 L 147.226563 48.308594 L 147.710938 51.667969 L 146.726563 51.808594 L 145.585938 43.871094 L 147.773438 43.558594 C 148.59375 43.445313 149.230469 43.550781 149.679688 43.871094 C 150.125 44.183594 150.40625 44.730469 150.523438 45.511719 C 150.59375 46.003906 150.554688 46.429688 150.398438 46.792969 C 150.242188 47.160156 149.96875 47.425781 149.585938 47.589844 Z M 146.695313 44.621094 L 147.101563 47.433594 L 148.304688 47.261719 C 148.773438 47.199219 149.109375 47.035156 149.320313 46.761719 C 149.527344 46.480469 149.59375 46.113281 149.523438 45.652344 C 149.460938 45.183594 149.289063 44.851563 149.007813 44.652344 C 148.734375 44.457031 148.367188 44.386719 147.898438 44.449219 Z M 154.828125 45.253906 C 154.347656 45.328125 154 45.59375 153.78125 46.050781 C 153.570313 46.5 153.519531 47.078125 153.625 47.785156 C 153.726563 48.496094 153.941406 49.035156 154.265625 49.410156 C 154.597656 49.777344 155.003906 49.921875 155.484375 49.847656 C 155.960938 49.785156 156.304688 49.53125 156.515625 49.082031 C 156.734375 48.636719 156.789063 48.058594 156.6875 47.347656 C 156.582031 46.640625 156.363281 46.097656 156.03125 45.722656 C 155.707031 45.347656 155.304688 45.191406 154.828125 45.253906 Z M 154.703125 44.441406 C 155.460938 44.339844 156.097656 44.53125 156.609375 45.019531 C 157.128906 45.511719 157.460938 46.246094 157.609375 47.222656 C 157.742188 48.191406 157.628906 48.988281 157.265625 49.613281 C 156.910156 50.230469 156.351563 50.589844 155.59375 50.691406 C 154.820313 50.808594 154.179688 50.621094 153.671875 50.128906 C 153.160156 49.628906 152.835938 48.894531 152.703125 47.925781 C 152.558594 46.949219 152.660156 46.152344 153.015625 45.535156 C 153.367188 44.921875 153.929688 44.558594 154.703125 44.441406 Z M 161.488281 46.628906 C 160.769531 46.734375 160.289063 46.902344 160.050781 47.128906 C 159.808594 47.347656 159.722656 47.671875 159.785156 48.097656 C 159.824219 48.441406 159.964844 48.703125 160.207031 48.878906 C 160.445313 49.058594 160.738281 49.121094 161.082031 49.066406 C 161.582031 48.996094 161.945313 48.746094 162.175781 48.316406 C 162.414063 47.890625 162.492188 47.363281 162.410156 46.738281 L 162.363281 46.503906 Z M 163.207031 45.972656 L 163.691406 49.378906 L 162.800781 49.503906 L 162.675781 48.613281 C 162.519531 49 162.300781 49.300781 162.019531 49.519531 C 161.746094 49.730469 161.394531 49.863281 160.957031 49.925781 C 160.414063 50.011719 159.957031 49.90625 159.582031 49.613281 C 159.214844 49.324219 158.992188 48.886719 158.910156 48.300781 C 158.816406 47.636719 158.941406 47.105469 159.285156 46.707031 C 159.636719 46.300781 160.214844 46.035156 161.019531 45.910156 L 162.253906 45.738281 L 162.253906 45.660156 C 162.179688 45.203125 161.992188 44.871094 161.691406 44.660156 C 161.398438 44.441406 161.007813 44.371094 160.519531 44.441406 C 160.226563 44.484375 159.933594 44.566406 159.644531 44.691406 C 159.363281 44.816406 159.097656 44.984375 158.847656 45.191406 L 158.722656 44.300781 C 159.035156 44.105469 159.332031 43.953125 159.613281 43.847656 C 159.902344 43.734375 160.195313 43.65625 160.488281 43.613281 C 161.257813 43.511719 161.867188 43.652344 162.316406 44.035156 C 162.773438 44.421875 163.070313 45.066406 163.207031 45.972656 Z M 168.300781 43.546875 L 167.832031 40.328125 L 168.707031 40.203125 L 169.894531 48.484375 L 169.019531 48.609375 L 168.894531 47.71875 C 168.757813 48.105469 168.558594 48.402344 168.300781 48.609375 C 168.039063 48.820313 167.710938 48.953125 167.316406 49.015625 C 166.667969 49.109375 166.101563 48.902344 165.613281 48.390625 C 165.132813 47.871094 164.824219 47.140625 164.691406 46.203125 C 164.558594 45.265625 164.648438 44.484375 164.972656 43.859375 C 165.292969 43.226563 165.777344 42.859375 166.425781 42.765625 C 166.820313 42.703125 167.167969 42.742188 167.472656 42.875 C 167.785156 43.011719 168.058594 43.234375 168.300781 43.546875 Z M 165.597656 46.078125 C 165.699219 46.796875 165.914063 47.339844 166.238281 47.703125 C 166.558594 48.070313 166.949219 48.21875 167.410156 48.15625 C 167.886719 48.085938 168.230469 47.828125 168.441406 47.390625 C 168.648438 46.945313 168.699219 46.359375 168.597656 45.640625 C 168.492188 44.921875 168.277344 44.375 167.957031 44 C 167.632813 43.625 167.230469 43.476563 166.753906 43.546875 C 166.292969 43.609375 165.960938 43.871094 165.753906 44.328125 C 165.542969 44.777344 165.492188 45.359375 165.597656 46.078125 Z M 165.597656 46.078125 "/>
<path style=" stroke:none;fill-rule:evenodd;fill:rgb(20%,20%,20%);fill-opacity:1;" d="M 135.40625 27.351563 L 135.546875 28.335938 L 130.71875 28.992188 C 129.875 29.105469 129.28125 29.324219 128.9375 29.648438 C 128.601563 29.980469 128.476563 30.460938 128.5625 31.085938 C 128.644531 31.699219 128.894531 32.121094 129.3125 32.351563 C 129.726563 32.578125 130.359375 32.636719 131.203125 32.523438 L 136.03125 31.867188 L 136.15625 32.835938 L 131.203125 33.507813 C 130.160156 33.652344 129.34375 33.527344 128.75 33.132813 C 128.164063 32.734375 127.8125 32.089844 127.6875 31.195313 C 127.5625 30.289063 127.726563 29.570313 128.1875 29.039063 C 128.65625 28.507813 129.410156 28.167969 130.453125 28.023438 Z M 134.46875 38.316406 L 137.625 37.519531 L 137.84375 38.394531 L 129.734375 40.441406 L 129.515625 39.566406 L 130.390625 39.347656 C 129.992188 39.253906 129.675781 39.085938 129.4375 38.847656 C 129.207031 38.605469 129.039063 38.300781 128.9375 37.925781 C 128.78125 37.289063 128.929688 36.699219 129.390625 36.160156 C 129.859375 35.617188 130.550781 35.230469 131.46875 35.003906 C 132.382813 34.777344 133.171875 34.792969 133.828125 35.050781 C 134.492188 35.308594 134.90625 35.757813 135.0625 36.394531 C 135.164063 36.769531 135.164063 37.117188 135.0625 37.441406 C 134.96875 37.761719 134.769531 38.054688 134.46875 38.316406 Z M 131.6875 35.894531 C 130.976563 36.070313 130.457031 36.335938 130.125 36.691406 C 129.789063 37.054688 129.679688 37.460938 129.796875 37.910156 C 129.921875 38.378906 130.210938 38.691406 130.671875 38.847656 C 131.128906 39.011719 131.710938 39.007813 132.421875 38.832031 C 133.128906 38.652344 133.648438 38.382813 133.984375 38.019531 C 134.328125 37.664063 134.4375 37.253906 134.3125 36.785156 C 134.195313 36.335938 133.90625 36.027344 133.4375 35.863281 C 132.976563 35.707031 132.394531 35.714844 131.6875 35.894531 Z M 136.441406 45.273438 L 136.035156 45.554688 L 133.660156 42.226563 C 133.136719 42.640625 132.832031 43.089844 132.738281 43.570313 C 132.644531 44.046875 132.761719 44.527344 133.097656 45.007813 C 133.292969 45.289063 133.523438 45.527344 133.785156 45.726563 C 134.054688 45.921875 134.347656 46.105469 134.660156 46.273438 L 133.910156 46.804688 C 133.605469 46.625 133.324219 46.421875 133.066406 46.195313 C 132.816406 45.976563 132.585938 45.726563 132.378906 45.445313 C 131.878906 44.746094 131.707031 44.027344 131.863281 43.289063 C 132.027344 42.5625 132.503906 41.921875 133.285156 41.367188 C 134.085938 40.796875 134.855469 40.539063 135.597656 40.601563 C 136.347656 40.65625 136.960938 41.007813 137.441406 41.664063 C 137.855469 42.257813 137.976563 42.875 137.800781 43.523438 C 137.621094 44.167969 137.167969 44.75 136.441406 45.273438 Z M 136.160156 44.382813 C 136.597656 44.058594 136.871094 43.695313 136.988281 43.289063 C 137.101563 42.890625 137.027344 42.519531 136.769531 42.164063 C 136.476563 41.757813 136.117188 41.523438 135.691406 41.460938 C 135.261719 41.390625 134.808594 41.5 134.332031 41.789063 Z M 140.621094 42.207031 L 141.339844 42.722656 L 136.449219 49.503906 L 135.730469 48.988281 Z M 141.835938 42.980469 L 142.679688 43.261719 L 139.945313 51.167969 L 139.101563 50.886719 Z M 149.585938 47.589844 C 149.804688 47.644531 150.027344 47.785156 150.257813 48.011719 C 150.496094 48.242188 150.746094 48.566406 151.007813 48.980469 L 152.304688 51.011719 L 151.257813 51.167969 L 150.054688 49.246094 C 149.742188 48.757813 149.460938 48.441406 149.210938 48.292969 C 148.96875 48.148438 148.65625 48.105469 148.273438 48.167969 L 147.226563 48.308594 L 147.710938 51.667969 L 146.726563 51.808594 L 145.585938 43.871094 L 147.773438 43.558594 C 148.59375 43.445313 149.230469 43.550781 149.679688 43.871094 C 150.125 44.183594 150.40625 44.730469 150.523438 45.511719 C 150.59375 46.003906 150.554688 46.429688 150.398438 46.792969 C 150.242188 47.160156 149.96875 47.425781 149.585938 47.589844 Z M 146.695313 44.621094 L 147.101563 47.433594 L 148.304688 47.261719 C 148.773438 47.199219 149.109375 47.035156 149.320313 46.761719 C 149.527344 46.480469 149.59375 46.113281 149.523438 45.652344 C 149.460938 45.183594 149.289063 44.851563 149.007813 44.652344 C 148.734375 44.457031 148.367188 44.386719 147.898438 44.449219 Z M 154.828125 45.253906 C 154.347656 45.328125 154 45.59375 153.78125 46.050781 C 153.570313 46.5 153.519531 47.078125 153.625 47.785156 C 153.726563 48.496094 153.941406 49.035156 154.265625 49.410156 C 154.597656 49.777344 155.003906 49.921875 155.484375 49.847656 C 155.960938 49.785156 156.304688 49.53125 156.515625 49.082031 C 156.734375 48.636719 156.789063 48.058594 156.6875 47.347656 C 156.582031 46.640625 156.363281 46.097656 156.03125 45.722656 C 155.707031 45.347656 155.304688 45.191406 154.828125 45.253906 Z M 154.703125 44.441406 C 155.460938 44.339844 156.097656 44.53125 156.609375 45.019531 C 157.128906 45.511719 157.460938 46.246094 157.609375 47.222656 C 157.742188 48.191406 157.628906 48.988281 157.265625 49.613281 C 156.910156 50.230469 156.351563 50.589844 155.59375 50.691406 C 154.820313 50.808594 154.179688 50.621094 153.671875 50.128906 C 153.160156 49.628906 152.835938 48.894531 152.703125 47.925781 C 152.558594 46.949219 152.660156 46.152344 153.015625 45.535156 C 153.367188 44.921875 153.929688 44.558594 154.703125 44.441406 Z M 161.488281 46.628906 C 160.769531 46.734375 160.289063 46.902344 160.050781 47.128906 C 159.808594 47.347656 159.722656 47.671875 159.785156 48.097656 C 159.824219 48.441406 159.964844 48.703125 160.207031 48.878906 C 160.445313 49.058594 160.738281 49.121094 161.082031 49.066406 C 161.582031 48.996094 161.945313 48.746094 162.175781 48.316406 C 162.414063 47.890625 162.492188 47.363281 162.410156 46.738281 L 162.363281 46.503906 Z M 163.207031 45.972656 L 163.691406 49.378906 L 162.800781 49.503906 L 162.675781 48.613281 C 162.519531 49 162.300781 49.300781 162.019531 49.519531 C 161.746094 49.730469 161.394531 49.863281 160.957031 49.925781 C 160.414063 50.011719 159.957031 49.90625 159.582031 49.613281 C 159.214844 49.324219 158.992188 48.886719 158.910156 48.300781 C 158.816406 47.636719 158.941406 47.105469 159.285156 46.707031 C 159.636719 46.300781 160.214844 46.035156 161.019531 45.910156 L 162.253906 45.738281 L 162.253906 45.660156 C 162.179688 45.203125 161.992188 44.871094 161.691406 44.660156 C 161.398438 44.441406 161.007813 44.371094 160.519531 44.441406 C 160.226563 44.484375 159.933594 44.566406 159.644531 44.691406 C 159.363281 44.816406 159.097656 44.984375 158.847656 45.191406 L 158.722656 44.300781 C 159.035156 44.105469 159.332031 43.953125 159.613281 43.847656 C 159.902344 43.734375 160.195313 43.65625 160.488281 43.613281 C 161.257813 43.511719 161.867188 43.652344 162.316406 44.035156 C 162.773438 44.421875 163.070313 45.066406 163.207031 45.972656 Z M 168.300781 43.546875 L 167.832031 40.328125 L 168.707031 40.203125 L 169.894531 48.484375 L 169.019531 48.609375 L 168.894531 47.71875 C 168.757813 48.105469 168.558594 48.402344 168.300781 48.609375 C 168.039063 48.820313 167.710938 48.953125 167.316406 49.015625 C 166.667969 49.109375 166.101563 48.902344 165.613281 48.390625 C 165.132813 47.871094 164.824219 47.140625 164.691406 46.203125 C 164.558594 45.265625 164.648438 44.484375 164.972656 43.859375 C 165.292969 43.226563 165.777344 42.859375 166.425781 42.765625 C 166.820313 42.703125 167.167969 42.742188 167.472656 42.875 C 167.785156 43.011719 168.058594 43.234375 168.300781 43.546875 Z M 165.597656 46.078125 C 165.699219 46.796875 165.914063 47.339844 166.238281 47.703125 C 166.558594 48.070313 166.949219 48.21875 167.410156 48.15625 C 167.886719 48.085938 168.230469 47.828125 168.441406 47.390625 C 168.648438 46.945313 168.699219 46.359375 168.597656 45.640625 C 168.492188 44.921875 168.277344 44.375 167.957031 44 C 167.632813 43.625 167.230469 43.476563 166.753906 43.546875 C 166.292969 43.609375 165.960938 43.871094 165.753906 44.328125 C 165.542969 44.777344 165.492188 45.359375 165.597656 46.078125 Z M 165.597656 46.078125 "/>
</g>
</svg>

