<?xml version="1.0" encoding="UTF-8"?>
<svg xmlns="http://www.w3.org/2000/svg" xmlns:xlink="http://www.w3.org/1999/xlink" width="256pt" height="256pt" viewBox="0 0 256 256" version="1.1">
<g id="surface2">
<rect x="0" y="0" width="256" height="256" style="fill:rgb(60%,70.196078%,80%);fill-opacity:1;stroke:none;"/>
<path style=" stroke:none;fill-rule:evenodd;fill:rgb(94.901961%,93.72549%,91.372549%);fill-opacity:1;" d="M -4 259 L -4 -4 L 11.472656 -4 L 11.472656 3.480469 L 5.164063 -4 L -4 -4 L -4 30.980469 L 11.472656 43.933594 L 11.472656 259 L -4 259 L -4 -4 Z M -4 259 "/>
<path style=" stroke:none;fill-rule:evenodd;fill:rgb(94.901961%,93.72549%,91.372549%);fill-opacity:1;" d="M -4 -4 L 259 -4 L 233.503906 -4 L 248.535156 3.859375 L 257.144531 5.613281 L 259 5.332031 L 259 226.828125 L 247.21875 231.121094 L 241.378906 231.707031 L 236.5625 233.75 L 229.265625 238.273438 L 221.058594 244.757813 L 209.59375 251.230469 L 198.03125 252.722656 L 192.191406 255.789063 L 175.257813 258.269531 L 172.175781 259 L 120.652344 259 L 118.042969 257.542969 L 111.039063 248.78125 L 100.671875 234.042969 L 93.375 215.066406 L 94.105469 211.710938 L 100.382813 204.992188 L 101.695313 194.78125 L 104.179688 185.144531 L 104.792969 149.429688 L 110.792969 135.828125 L 111.59375 120.425781 L 106.792969 115.429688 L 106.195313 110.027344 L 90.191406 93.429688 L 83.59375 86.226563 L 82.996094 78.628906 L 85.59375 72.425781 L 83.394531 67.429688 L 78.390625 64.230469 L 70.992188 68.226563 L 62.421875 59.914063 L 60.957031 58.824219 L 55.769531 53.621094 L 51.191406 49.027344 L 40.792969 40.425781 L 30.996094 26.628906 L 5.164063 -4 Z M -4 -4 "/>
<path style=" stroke:none;fill-rule:evenodd;fill:rgb(94.901961%,93.72549%,91.372549%);fill-opacity:1;" d="M -4 30.980469 L 16.882813 48.464844 L 14.480469 53.117188 L 16.523438 55.527344 L 16.742188 56.914063 L 16.160156 59.757813 L 26.992188 69.429688 L 34.824219 78.246094 L 43.792969 92.429688 L 49.820313 94.492188 L 64.792969 109.027344 L 67.128906 149.703125 L 69.917969 159.511719 L 70.964844 173.253906 L 77.214844 249.90625 L 48.988281 259 L -4 259 Z M -4 30.980469 "/>
<path style=" stroke:none;fill-rule:evenodd;fill:rgb(94.901961%,93.72549%,91.372549%);fill-opacity:1;" d="M -4 260 L 45.886719 260 L 77.214844 249.90625 L 70.964844 173.253906 L 69.921875 159.511719 L 67.128906 149.703125 L 64.792969 109.027344 L 49.820313 94.492188 L 43.792969 92.429688 L 34.824219 78.246094 L 26.992188 69.429688 L 16.160156 59.757813 L 16.742188 56.914063 L 16.523438 55.527344 L 14.480469 53.117188 L 16.882813 48.464844 L -4 30.980469 L -4 -4 Z M -4 260 "/>
<path style="fill:none;stroke-width:1;stroke-linecap:round;stroke-linejoin:round;stroke:rgb(89.019608%,87.058824%,83.137255%);stroke-opacity:1;stroke-miterlimit:10;" d="M -4 260 L 45.886719 260 L 77.214844 249.90625 L 70.964844 173.253906 L 69.921875 159.511719 L 67.128906 149.703125 L 64.792969 109.027344 L 49.820313 94.492188 L 43.792969 92.429688 L 34.824219 78.246094 L 26.992188 69.429688 L 16.160156 59.757813 L 16.742188 56.914063 L 16.523438 55.527344 L 14.480469 53.117188 L 16.882813 48.464844 L -4 30.980469 L -4 -4 L -4 260 "/>
<path style=" stroke:none;fill-rule:evenodd;fill:rgb(70.980392%,82.352941%,61.176471%);fill-opacity:1;" d="M 167.953125 260 L 175.261719 258.269531 L 192.191406 255.789063 L 198.03125 252.722656 L 209.59375 251.230469 L 221.058594 244.757813 L 229.265625 238.273438 L 236.5625 233.75 L 241.378906 231.707031 L 247.21875 231.121094 L 259.625 226.597656 L 260 226.4375 L 260 5.183594 L 257.144531 5.613281 L 248.535156 3.859375 L 233.503906 -4 L 192.207031 -4 L 192.253906 0.855469 L 192.511719 17.589844 L 192.691406 34.050781 L 190.316406 80.132813 L 188.582031 97.363281 L 186.738281 108.609375 L 185.429688 118.773438 L 183.035156 130.804688 L 179.589844 145.816406 L 176.074219 158.539063 L 172.667969 171.351563 L 164.734375 199.507813 L 161.496094 209.761719 L 158.59375 220.179688 L 155.664063 229.402344 L 153.066406 240.140625 L 151.425781 254.605469 L 150.613281 260 Z M 167.953125 260 "/>
<path style=" stroke:none;fill-rule:evenodd;fill:rgb(70.980392%,82.352941%,61.176471%);fill-opacity:1;" d="M 70.996094 68.226563 L 78.390625 64.230469 L 83.394531 67.429688 L 85.59375 72.425781 L 82.996094 78.628906 L 83.59375 86.226563 L 90.191406 93.429688 L 106.195313 110.027344 L 106.792969 115.429688 L 111.59375 120.425781 L 110.792969 135.828125 L 104.792969 149.429688 L 104.179688 185.144531 L 101.695313 194.78125 L 100.382813 204.996094 L 94.105469 211.710938 L 93.375 215.066406 L 100.671875 234.042969 L 111.039063 248.785156 L 118.042969 257.542969 L 122.441406 260 L 147.503906 260 L 148.046875 254.148438 L 149.394531 240.148438 L 151.710938 229.824219 L 154.347656 219.574219 L 157.539063 209.257813 L 161.410156 196.144531 L 168.410156 170.414063 L 171.859375 157.277344 L 175.253906 145.113281 L 178.378906 130.902344 L 181.410156 117.515625 L 183.527344 103.652344 L 185.148438 91.804688 L 186.65625 76.914063 L 187.199219 57.367188 L 188.050781 36.707031 L 188.519531 18.746094 L 188.398438 2.523438 L 186.515625 -4 L 121.585938 -4 L 55.769531 53.621094 Z M 70.996094 68.226563 "/>
<path style=" stroke:none;fill-rule:evenodd;fill:rgb(79.607843%,84.705882%,76.470588%);fill-opacity:1;" d="M 188.992188 253.003906 L 198.105469 250.097656 L 210.472656 245.417969 L 220.375 235.5625 L 220.03125 229.847656 L 224.21875 224.03125 L 234.222656 221.53125 L 236.761719 222.097656 L 247.328125 223.917969 L 252.550781 223.5 L 260 220.550781 L 260 167.332031 L 259.472656 169.296875 L 254.691406 180.921875 L 252.597656 187.253906 L 251.886719 192.03125 L 253.941406 191.535156 L 252.617188 195.226563 L 243.90625 201.011719 L 229.96875 207.976563 L 217.816406 213.117188 L 211.152344 218.96875 L 208.464844 222.417969 L 208.414063 224.460938 L 210.066406 224.734375 L 213.539063 222.984375 L 214.992188 225.695313 L 212.011719 228.109375 L 206.742188 229.265625 L 204.5 227.789063 L 198.835938 232.617188 L 193.042969 238.601563 L 192.886719 242.902344 L 194.167969 245.515625 L 193.378906 248.125 L 178.792969 253.199219 L 176.625 255.269531 Z M 188.992188 253.003906 "/>
<path style=" stroke:none;fill-rule:evenodd;fill:rgb(81.960784%,81.568627%,80.392157%);fill-opacity:1;" d="M 164.328125 207.46875 L 174.804688 210.273438 L 177.386719 200.648438 L 173.710938 199.664063 L 176.890625 187.816406 L 173.566406 186.925781 L 170.445313 198.554688 L 166.96875 197.625 Z M 164.328125 207.46875 "/>
<path style="fill:none;stroke-width:1;stroke-linecap:round;stroke-linejoin:round;stroke:rgb(81.960784%,81.960784%,81.960784%);stroke-opacity:1;stroke-miterlimit:10;" d="M 164.328125 207.46875 L 174.804688 210.273438 L 177.386719 200.648438 L 173.710938 199.664063 L 176.890625 187.816406 L 173.566406 186.925781 L 170.445313 198.554688 L 166.96875 197.625 L 164.328125 207.46875 "/>
<path style=" stroke:none;fill-rule:evenodd;fill:rgb(79.607843%,84.705882%,76.470588%);fill-opacity:1;" d="M 170.609375 238.402344 L 172.144531 245.128906 L 174.164063 247.179688 L 176.53125 244.988281 L 179.738281 242.445313 L 180.957031 236.488281 L 179.492188 232.027344 L 176.777344 229.519531 L 172.703125 229.519531 L 171.097656 232.515625 Z M 170.609375 238.402344 "/>
<path style=" stroke:none;fill-rule:evenodd;fill:rgb(81.960784%,81.568627%,80.392157%);fill-opacity:1;" d="M 184.933594 168.621094 L 189.089844 170.015625 L 194.855469 150.457031 L 193.042969 147.921875 L 190.699219 148.480469 Z M 184.933594 168.621094 "/>
<path style="fill:none;stroke-width:1;stroke-linecap:round;stroke-linejoin:round;stroke:rgb(81.960784%,81.960784%,81.960784%);stroke-opacity:1;stroke-miterlimit:10;" d="M 184.933594 168.621094 L 189.089844 170.015625 L 194.855469 150.457031 L 193.042969 147.921875 L 190.699219 148.480469 L 184.933594 168.621094 "/>
<path style=" stroke:none;fill-rule:evenodd;fill:rgb(79.607843%,84.705882%,76.470588%);fill-opacity:1;" d="M 196.949219 219.171875 L 198.585938 224.015625 L 201.824219 226.136719 L 204.054688 224.261719 L 207.296875 219.695313 L 208.863281 216.839844 L 207.714844 217.257813 L 203.21875 217.082031 L 198.449219 214.433594 L 197.714844 216.105469 Z M 196.949219 219.171875 "/>
<path style="fill:none;stroke-width:1;stroke-linecap:round;stroke-linejoin:round;stroke:rgb(100%,100%,100%);stroke-opacity:1;stroke-dasharray:2,3;stroke-miterlimit:10;" d="M 225.226563 47.792969 L 230.738281 53.75 L 237.664063 62.089844 L 239.867188 63.742188 "/>
<path style="fill:none;stroke-width:1;stroke-linecap:round;stroke-linejoin:round;stroke:rgb(100%,100%,100%);stroke-opacity:1;stroke-dasharray:2,3;stroke-miterlimit:10;" d="M 202.78125 193.453125 L 207.996094 197.5 L 210.605469 206.082031 L 212.902344 214.519531 "/>
<path style="fill:none;stroke-width:1;stroke-linecap:round;stroke-linejoin:round;stroke:rgb(100%,100%,100%);stroke-opacity:1;stroke-dasharray:2,3;stroke-miterlimit:10;" d="M 249.808594 167.785156 L 244.691406 168.855469 L 242.066406 168.191406 L 239.457031 167.636719 L 237.964844 168.058594 L 237.1875 169.042969 L 235.355469 172.085938 L 230.449219 174 L 225.769531 175.914063 "/>
<path style="fill:none;stroke-width:1;stroke-linecap:round;stroke-linejoin:round;stroke:rgb(100%,100%,100%);stroke-opacity:1;stroke-dasharray:2,3;stroke-miterlimit:10;" d="M 251.332031 135.296875 L 251.234375 139.953125 L 249.855469 143.007813 L 251.679688 147.289063 L 252.613281 150.414063 L 253.46875 154.769531 L 254.289063 159.425781 L 255.066406 161.695313 L 257 163.304688 "/>
<path style="fill:none;stroke-width:1;stroke-linecap:round;stroke-linejoin:round;stroke:rgb(100%,100%,100%);stroke-opacity:1;stroke-dasharray:2,3;stroke-miterlimit:10;" d="M 212.496094 215.132813 L 203.195313 214.9375 L 198.355469 212.515625 L 198.765625 205.367188 L 201.449219 193 "/>
<path style="fill:none;stroke-width:1;stroke-linecap:round;stroke-linejoin:round;stroke:rgb(100%,100%,100%);stroke-opacity:1;stroke-dasharray:2,3;stroke-miterlimit:10;" d="M 240.210938 42.613281 L 236.546875 37.589844 L 232.226563 32.304688 L 227.3125 29.773438 L 219.941406 24.117188 L 212.945313 21.882813 L 208.546875 22.921875 "/>
<path style="fill:none;stroke-width:1;stroke-linecap:round;stroke-linejoin:round;stroke:rgb(100%,100%,100%);stroke-opacity:1;stroke-dasharray:2,3;stroke-miterlimit:10;" d="M 239.402344 184.265625 L 234.269531 179.886719 L 225.769531 175.914063 L 222.265625 176.808594 L 216.367188 181.703125 L 213.445313 186.441406 L 208.609375 188.226563 L 207.234375 188.734375 L 205.097656 191 L 202.78125 193.453125 "/>
<path style="fill:none;stroke-width:1;stroke-linecap:round;stroke-linejoin:round;stroke:rgb(100%,100%,100%);stroke-opacity:1;stroke-dasharray:2,3;stroke-miterlimit:10;" d="M 233.179688 143.910156 L 228.246094 141.804688 L 225.429688 139.910156 L 223.429688 137.722656 L 221.507813 136.566406 L 220.695313 132.089844 L 224.089844 124.246094 L 225.140625 114.164063 L 223.929688 107.238281 L 223.421875 105.164063 "/>
<path style="fill:none;stroke-width:1;stroke-linecap:round;stroke-linejoin:round;stroke:rgb(100%,100%,100%);stroke-opacity:1;stroke-dasharray:2,3;stroke-miterlimit:10;" d="M 253.703125 181.085938 L 242.695313 183.414063 L 239.402344 184.265625 L 236.085938 185.125 L 222.472656 192.34375 L 217.015625 195.398438 L 215.277344 195.203125 L 212.203125 192.804688 L 208.609375 188.226563 "/>
<path style="fill:none;stroke-width:1;stroke-linecap:round;stroke-linejoin:round;stroke:rgb(100%,100%,100%);stroke-opacity:1;stroke-dasharray:2,3;stroke-miterlimit:10;" d="M 240.417969 96.382813 L 239.179688 100.421875 L 239.601563 106.742188 L 240.867188 112.585938 L 242.707031 118.0625 L 242.972656 123.589844 L 244.394531 132.804688 L 245.648438 136.453125 L 239.339844 138.75 L 235.652344 141.910156 L 234.613281 143.152344 "/>
<path style="fill:none;stroke-width:1;stroke-linecap:round;stroke-linejoin:round;stroke:rgb(100%,100%,100%);stroke-opacity:1;stroke-dasharray:2,3;stroke-miterlimit:10;" d="M 202.617188 173.898438 L 200.503906 170.667969 L 197.664063 168.875 L 196.082031 166.429688 L 198.835938 158.722656 L 202.652344 153.878906 L 204.957031 153.320313 L 206.785156 152.878906 L 212.445313 154.617188 L 215.582031 155.957031 L 219.871094 154.800781 L 221.191406 150.515625 L 222.929688 145.886719 L 221.507813 136.566406 "/>
<path style="fill:none;stroke-width:1;stroke-linecap:round;stroke-linejoin:round;stroke:rgb(100%,100%,100%);stroke-opacity:1;stroke-dasharray:2,3;stroke-miterlimit:10;" d="M 255.144531 175.609375 L 250.714844 170.148438 L 249.808594 167.785156 L 247.363281 161.398438 L 245.574219 154.585938 L 246.164063 147.628906 L 246.46875 144.050781 L 247.289063 139.914063 L 245.648438 136.453125 L 251.332031 135.296875 L 252.613281 135.039063 L 257 134.664063 "/>
<path style="fill:none;stroke-width:1;stroke-linecap:round;stroke-linejoin:round;stroke:rgb(100%,100%,100%);stroke-opacity:1;stroke-dasharray:2,3;stroke-miterlimit:10;" d="M 246.164063 147.628906 L 240.046875 145.085938 L 234.613281 143.152344 L 233.179688 143.910156 L 229.699219 145.757813 L 223.367188 152.460938 L 220.664063 154.953125 L 219.496094 156.035156 L 215.773438 161.472656 L 209.519531 165.640625 L 206.324219 168.320313 L 204.03125 169.851563 L 203.003906 172.773438 L 202.617188 173.898438 L 200.03125 181.40625 L 205.824219 183.539063 L 205.097656 191 "/>
<path style="fill:none;stroke-width:1;stroke-linecap:round;stroke-linejoin:round;stroke:rgb(100%,100%,100%);stroke-opacity:1;stroke-dasharray:2,3;stroke-miterlimit:10;" d="M 240.867188 112.585938 L 236.863281 110.847656 L 229.125 108.371094 L 225.203125 106.816406 L 223.421875 105.164063 L 216.964844 100.210938 L 212.589844 97.367188 L 210.90625 92.945313 L 210.113281 87.855469 L 218.648438 78.148438 L 224.5625 71.421875 L 225.019531 69.359375 L 232.757813 66.25 L 239.867188 63.742188 "/>
<path style="fill:none;stroke-width:1;stroke-linecap:round;stroke-linejoin:round;stroke:rgb(100%,100%,100%);stroke-opacity:1;stroke-dasharray:2,3;stroke-miterlimit:10;" d="M 250.511719 194.246094 L 252.722656 184.824219 L 253.703125 181.085938 L 255.144531 175.609375 L 257 171.054688 "/>
<path style="fill:none;stroke-width:1;stroke-linecap:round;stroke-linejoin:round;stroke:rgb(100%,100%,100%);stroke-opacity:1;stroke-dasharray:2,3;stroke-miterlimit:10;" d="M 164.601563 248.769531 L 172.8125 248.855469 L 182.082031 245.015625 L 193.859375 235.75 L 208.179688 221.640625 L 212.496094 215.132813 L 214.183594 212.585938 L 239.507813 202.105469 L 248.351563 196.40625 "/>
<path style="fill:none;stroke-width:1;stroke-linecap:round;stroke-linejoin:round;stroke:rgb(100%,100%,100%);stroke-opacity:1;stroke-dasharray:2,3;stroke-miterlimit:10;" d="M 257 191.042969 L 255.773438 191.613281 L 250.511719 194.246094 L 248.351563 196.40625 "/>
<path style="fill:none;stroke-width:1;stroke-linecap:round;stroke-linejoin:round;stroke:rgb(100%,100%,100%);stroke-opacity:1;stroke-dasharray:2,3;stroke-miterlimit:10;" d="M 195.792969 43.941406 L 218.523438 44.113281 L 224.851563 43.96875 L 240.210938 42.613281 L 243.027344 42.363281 L 249.453125 41.703125 L 252.558594 40.203125 L 253.953125 39.941406 L 257 40.40625 "/>
<path style="fill:none;stroke-width:1;stroke-linecap:round;stroke-linejoin:round;stroke:rgb(100%,100%,100%);stroke-opacity:1;stroke-dasharray:2,3;stroke-miterlimit:10;" d="M 204.957031 153.320313 L 205.078125 141.425781 L 201.289063 130.039063 L 200.246094 123.035156 L 198.070313 113.132813 L 201.253906 106.542969 L 201.179688 101.628906 L 203.039063 98.054688 L 208.324219 91.800781 L 210.113281 87.855469 L 208.253906 81.375 L 204.082031 76.386719 L 203.785156 69.761719 L 201.402344 66.632813 L 197.53125 65.8125 L 196.632813 63.953125 L 200.953125 62.015625 L 205.71875 61.269531 L 212.792969 59.929688 L 217.484375 56.355469 L 223.144531 50.324219 L 225.226563 47.792969 L 224.851563 43.96875 L 220.984375 36.847656 L 213.835938 31.113281 L 210.785156 27.464844 L 208.546875 22.921875 "/>
<path style="fill:none;stroke-width:1;stroke-linecap:round;stroke-linejoin:round;stroke:rgb(100%,100%,100%);stroke-opacity:1;stroke-dasharray:2,3;stroke-miterlimit:10;" d="M 257 55.589844 L 246.195313 58.566406 L 239.867188 63.742188 L 238.972656 67.464844 L 239.53125 70.21875 L 238.042969 76.695313 L 237.296875 85.320313 L 239.085938 92.617188 L 240.417969 96.382813 L 243.757813 103.753906 L 246.523438 113.101563 L 248.550781 115.863281 L 252.578125 117.734375 L 257 118.59375 "/>
<path style="fill:none;stroke-width:1;stroke-linecap:round;stroke-linejoin:round;stroke:rgb(100%,100%,100%);stroke-opacity:1;stroke-dasharray:2,3;stroke-miterlimit:10;" d="M 208.546875 22.921875 L 205.128906 6.605469 L 201.726563 -1.210938 L 201.710938 -2 "/>
<path style="fill:none;stroke-width:8;stroke-linecap:round;stroke-linejoin:round;stroke:rgb(75.686275%,70.980392%,61.568627%);stroke-opacity:1;stroke-miterlimit:10;" d="M 174.234375 199.222656 L 172.703125 208.828125 "/>
<path style="fill:none;stroke-width:8;stroke-linecap:round;stroke-linejoin:round;stroke:rgb(75.686275%,70.980392%,61.568627%);stroke-opacity:1;stroke-miterlimit:10;" d="M 172.902344 198.867188 L 168.582031 200.109375 L 167.621094 205.714844 "/>
<path style="fill:none;stroke-width:8;stroke-linecap:round;stroke-linejoin:round;stroke:rgb(75.686275%,70.980392%,61.568627%);stroke-opacity:1;stroke-miterlimit:10;" d="M 177.027344 184.679688 L 201.449219 193 L 202.78125 193.453125 "/>
<path style="fill:none;stroke-width:8;stroke-linecap:round;stroke-linejoin:round;stroke:rgb(75.686275%,70.980392%,61.568627%);stroke-opacity:1;stroke-miterlimit:10;" d="M -9 110.960938 L -2.546875 106.292969 L 15.601563 93.707031 L 33.738281 81.195313 "/>
<path style="fill:none;stroke-width:8;stroke-linecap:round;stroke-linejoin:round;stroke:rgb(75.686275%,70.980392%,61.568627%);stroke-opacity:1;stroke-miterlimit:10;" d="M 187.347656 130.71875 L 189.351563 130.996094 L 194.472656 133.324219 L 194.058594 141.257813 L 193.042969 147.921875 L 192.253906 151.867188 L 179.613281 179.632813 L 177.027344 184.679688 L 172.902344 198.867188 L 174.234375 199.222656 L 175.375 199.613281 L 177.429688 199.457031 L 179.0625 197.773438 L 179.851563 194.007813 L 178.773438 188.292969 L 177.027344 184.679688 "/>
<path style="fill:none;stroke-width:10;stroke-linecap:round;stroke-linejoin:round;stroke:rgb(72.941176%,43.137255%,15.294118%);stroke-opacity:1;stroke-miterlimit:10;" d="M 176.074219 158.539063 L 180.4375 151.53125 L 184.949219 140.132813 L 187.347656 130.71875 L 187.878906 125.828125 L 188.671875 115.464844 L 188.75 106.128906 L 189.214844 93.011719 "/>
<path style="fill:none;stroke-width:8;stroke-linecap:round;stroke-linejoin:round;stroke:rgb(75.686275%,70.980392%,61.568627%);stroke-opacity:1;stroke-miterlimit:10;" d="M 15.957031 229.261719 L 23.855469 254.210938 "/>
<path style="fill:none;stroke-width:8;stroke-linecap:round;stroke-linejoin:round;stroke:rgb(75.686275%,70.980392%,61.568627%);stroke-opacity:1;stroke-miterlimit:10;" d="M 34.460938 216.125 L 44.6875 247.429688 "/>
<path style="fill:none;stroke-width:8;stroke-linecap:round;stroke-linejoin:round;stroke:rgb(75.686275%,70.980392%,61.568627%);stroke-opacity:1;stroke-miterlimit:10;" d="M -9 222.980469 L -4.152344 238.039063 L 3.003906 260.964844 "/>
<path style="fill:none;stroke-width:8;stroke-linecap:round;stroke-linejoin:round;stroke:rgb(75.686275%,70.980392%,61.568627%);stroke-opacity:1;stroke-miterlimit:10;" d="M -9 99.542969 L -5.246094 103.140625 L -2.546875 106.292969 L 0.113281 110.140625 L 1.90625 113.390625 L 3.539063 117.074219 L 4.984375 121.433594 L 5.914063 125.640625 L 6.449219 130.488281 L 6.472656 135.339844 L 6.007813 139.851563 L 5.167969 143.964844 L 3.957031 147.921875 "/>
<path style="fill:none;stroke-width:8;stroke-linecap:round;stroke-linejoin:round;stroke:rgb(75.686275%,70.980392%,61.568627%);stroke-opacity:1;stroke-miterlimit:10;" d="M 3.957031 147.921875 L 2.023438 152.710938 L -0.261719 156.855469 L -2.847656 160.597656 L -5.457031 163.667969 L -8.367188 166.523438 L -9 167.035156 "/>
<path style="fill:none;stroke-width:8;stroke-linecap:round;stroke-linejoin:round;stroke:rgb(75.686275%,70.980392%,61.568627%);stroke-opacity:1;stroke-miterlimit:10;" d="M 64.796875 169.59375 L 59.859375 183.648438 L 56.433594 189.789063 L 52.472656 195.925781 L 48.417969 201.390625 L 43.734375 206.976563 L 38.699219 212.226563 L 34.460938 216.125 L 15.957031 229.261719 L -4.152344 238.039063 "/>
<path style="fill:none;stroke-width:8;stroke-linecap:round;stroke-linejoin:round;stroke:rgb(75.686275%,70.980392%,61.568627%);stroke-opacity:1;stroke-miterlimit:10;" d="M 69.273438 33.648438 L 84.699219 20.203125 L 101.03125 5.898438 L 117.625 -8.4375 L 118.300781 -9 "/>
<path style="fill:none;stroke-width:8;stroke-linecap:round;stroke-linejoin:round;stroke:rgb(75.686275%,70.980392%,61.568627%);stroke-opacity:1;stroke-miterlimit:10;" d="M -9 143.320313 L 3.957031 147.921875 L 24.554688 155.226563 L 45.179688 162.535156 L 64.796875 169.59375 "/>
<path style="fill:none;stroke-width:8;stroke-linecap:round;stroke-linejoin:round;stroke:rgb(75.686275%,70.980392%,61.568627%);stroke-opacity:1;stroke-miterlimit:10;" d="M -6.238281 264 L 3.003906 260.964844 L 23.855469 254.210938 L 44.6875 247.429688 L 64.097656 239.972656 L 59.859375 183.648438 "/>
<path style="fill:none;stroke-width:8;stroke-linecap:round;stroke-linejoin:round;stroke:rgb(75.686275%,70.980392%,61.568627%);stroke-opacity:1;stroke-miterlimit:10;" d="M -9 72.988281 L -7.414063 73.765625 L -1.914063 77.050781 L 2.792969 80.488281 L 7.035156 84.109375 L 11.066406 88.222656 L 14.28125 91.96875 L 15.601563 93.707031 L 18.566406 98.167969 L 21.015625 102.496094 L 23.507813 107.960938 L 25.324219 112.992188 L 26.652344 117.90625 L 27.703125 123.460938 L 28.285156 129.351563 L 28.308594 136.230469 L 27.703125 142.519531 L 26.558594 148.414063 L 25.183594 153.386719 L 24.554688 155.226563 "/>
<path style="fill:none;stroke-width:8;stroke-linecap:round;stroke-linejoin:round;stroke:rgb(75.686275%,70.980392%,61.568627%);stroke-opacity:1;stroke-miterlimit:10;" d="M 88.511719 -9 L 101.03125 5.898438 "/>
<path style="fill:none;stroke-width:8;stroke-linecap:round;stroke-linejoin:round;stroke:rgb(75.686275%,70.980392%,61.568627%);stroke-opacity:1;stroke-miterlimit:10;" d="M 60.015625 -9 L 84.699219 20.203125 "/>
<path style="fill:none;stroke-width:8;stroke-linecap:round;stroke-linejoin:round;stroke:rgb(75.686275%,70.980392%,61.568627%);stroke-opacity:1;stroke-miterlimit:10;" d="M 24.554688 155.226563 L 22.550781 160.230469 L 20.386719 164.683594 L 17.820313 169.039063 L 14.628906 173.613281 L 11.742188 177.144531 L 8.199219 180.855469 L 5.191406 183.621094 L 1.394531 186.660156 L -2.988281 189.636719 L -7.132813 192.03125 L -9 192.90625 "/>
<path style="fill:none;stroke-width:8;stroke-linecap:round;stroke-linejoin:round;stroke:rgb(75.686275%,70.980392%,61.568627%);stroke-opacity:1;stroke-miterlimit:10;" d="M -9 49.070313 L -7.507813 49.578125 L -0.960938 52.402344 L 4.726563 55.347656 L 10.390625 58.816406 L 15.773438 62.683594 L 20.269531 66.398438 L 24.648438 70.511719 L 28.515625 74.6875 L 31.851563 78.675781 L 33.738281 81.195313 L 37.09375 86.289063 L 40.003906 91.476563 L 42.894531 97.554688 L 45.085938 103.234375 L 46.902344 109.035156 L 48.230469 114.527344 L 49.210938 120.082031 L 49.863281 125.699219 L 50.140625 132.085938 L 50 138.191406 L 49.324219 145.222656 L 48.300781 151.144531 L 46.855469 157.160156 L 45.179688 162.535156 L 42.847656 168.425781 L 40.074219 174.257813 L 36.695313 180.152344 L 33.132813 185.367188 L 28.867188 190.769531 L 24.160156 195.835938 L 19.871094 199.824219 L 14.910156 203.847656 L 10.996094 206.609375 L 6.054688 209.707031 L 0.300781 212.746094 L -3.988281 214.679688 L -9 216.566406 "/>
<path style="fill:none;stroke-width:8;stroke-linecap:round;stroke-linejoin:round;stroke:rgb(75.686275%,70.980392%,61.568627%);stroke-opacity:1;stroke-miterlimit:10;" d="M 31.003906 -9 L 36.136719 -3.035156 L 69.273438 33.648438 L 81.261719 48.421875 L 96.261719 66.421875 L 98.261719 81.421875 "/>
<path style="fill:none;stroke-width:11;stroke-linecap:round;stroke-linejoin:round;stroke:rgb(72.941176%,43.137255%,15.294118%);stroke-opacity:1;stroke-miterlimit:10;" d="M 151.425781 254.605469 L 153.066406 240.140625 L 155.664063 229.402344 L 158.59375 220.179688 L 161.496094 209.761719 L 164.734375 199.507813 L 172.667969 171.351563 L 176.074219 158.539063 L 179.589844 145.816406 L 183.035156 130.804688 L 185.429688 118.773438 L 186.738281 108.609375 L 188.582031 97.363281 L 189.214844 93.011719 L 190.316406 80.132813 L 192.691406 34.050781 L 192.511719 17.589844 L 192.253906 0.855469 L 192.125 -12 "/>
<path style="fill:none;stroke-width:11;stroke-linecap:round;stroke-linejoin:round;stroke:rgb(72.941176%,43.137255%,15.294118%);stroke-opacity:1;stroke-miterlimit:10;" d="M 188.359375 -12 L 188.398438 2.523438 L 188.519531 18.746094 L 188.050781 36.707031 L 187.199219 57.367188 L 186.65625 76.914063 L 185.148438 91.804688 L 183.527344 103.652344 L 181.410156 117.515625 L 178.378906 130.902344 L 175.253906 145.113281 L 171.859375 157.277344 L 168.410156 170.414063 L 161.410156 196.144531 L 157.539063 209.257813 L 154.347656 219.574219 L 151.710938 229.824219 L 149.394531 240.148438 L 148.046875 254.148438 "/>
<path style="fill:none;stroke-width:6;stroke-linecap:round;stroke-linejoin:round;stroke:rgb(100%,100%,100%);stroke-opacity:1;stroke-miterlimit:10;" d="M 174.234375 199.222656 L 172.703125 208.828125 "/>
<path style="fill:none;stroke-width:6;stroke-linecap:round;stroke-linejoin:round;stroke:rgb(100%,100%,100%);stroke-opacity:1;stroke-miterlimit:10;" d="M 172.902344 198.867188 L 168.582031 200.109375 L 167.621094 205.714844 "/>
<path style="fill:none;stroke-width:6;stroke-linecap:round;stroke-linejoin:round;stroke:rgb(100%,100%,100%);stroke-opacity:1;stroke-miterlimit:10;" d="M 177.027344 184.679688 L 201.449219 193 L 202.78125 193.453125 "/>
<path style="fill:none;stroke-width:6;stroke-linecap:round;stroke-linejoin:round;stroke:rgb(100%,100%,100%);stroke-opacity:1;stroke-miterlimit:10;" d="M -9 110.960938 L -2.546875 106.292969 L 15.601563 93.707031 L 33.738281 81.195313 "/>
<path style="fill:none;stroke-width:6;stroke-linecap:round;stroke-linejoin:round;stroke:rgb(100%,100%,100%);stroke-opacity:1;stroke-miterlimit:10;" d="M 187.347656 130.71875 L 189.351563 130.996094 L 194.472656 133.324219 L 194.058594 141.257813 L 193.042969 147.921875 L 192.253906 151.867188 L 179.613281 179.632813 L 177.027344 184.679688 L 172.902344 198.867188 L 174.234375 199.222656 L 175.375 199.613281 L 177.429688 199.457031 L 179.0625 197.773438 L 179.851563 194.007813 L 178.773438 188.292969 L 177.027344 184.679688 "/>
<path style="fill:none;stroke-width:8;stroke-linecap:round;stroke-linejoin:round;stroke:rgb(99.215686%,57.254902%,22.745098%);stroke-opacity:1;stroke-miterlimit:10;" d="M 176.074219 158.539063 L 180.4375 151.53125 L 184.949219 140.132813 L 187.347656 130.71875 L 187.878906 125.828125 L 188.671875 115.464844 L 188.75 106.128906 L 189.214844 93.011719 "/>
<path style="fill:none;stroke-width:6;stroke-linecap:round;stroke-linejoin:round;stroke:rgb(100%,100%,100%);stroke-opacity:1;stroke-miterlimit:10;" d="M 15.957031 229.261719 L 23.855469 254.210938 "/>
<path style="fill:none;stroke-width:6;stroke-linecap:round;stroke-linejoin:round;stroke:rgb(100%,100%,100%);stroke-opacity:1;stroke-miterlimit:10;" d="M 34.460938 216.125 L 44.6875 247.429688 "/>
<path style="fill:none;stroke-width:6;stroke-linecap:round;stroke-linejoin:round;stroke:rgb(100%,100%,100%);stroke-opacity:1;stroke-miterlimit:10;" d="M -9 222.980469 L -4.152344 238.039063 L 3.003906 260.964844 "/>
<path style="fill:none;stroke-width:6;stroke-linecap:round;stroke-linejoin:round;stroke:rgb(100%,100%,100%);stroke-opacity:1;stroke-miterlimit:10;" d="M -9 99.542969 L -5.246094 103.140625 L -2.546875 106.292969 L 0.113281 110.140625 L 1.90625 113.390625 L 3.539063 117.074219 L 4.984375 121.433594 L 5.914063 125.640625 L 6.449219 130.488281 L 6.472656 135.339844 L 6.007813 139.851563 L 5.167969 143.964844 L 3.957031 147.921875 "/>
<path style="fill:none;stroke-width:6;stroke-linecap:round;stroke-linejoin:round;stroke:rgb(100%,100%,100%);stroke-opacity:1;stroke-miterlimit:10;" d="M 3.957031 147.921875 L 2.023438 152.710938 L -0.261719 156.855469 L -2.847656 160.597656 L -5.457031 163.667969 L -8.367188 166.523438 L -9 167.035156 "/>
<path style="fill:none;stroke-width:6;stroke-linecap:round;stroke-linejoin:round;stroke:rgb(100%,100%,100%);stroke-opacity:1;stroke-miterlimit:10;" d="M 64.796875 169.59375 L 59.859375 183.648438 L 56.433594 189.789063 L 52.472656 195.925781 L 48.417969 201.390625 L 43.734375 206.976563 L 38.699219 212.226563 L 34.460938 216.125 L 15.957031 229.261719 L -4.152344 238.039063 "/>
<path style="fill:none;stroke-width:6;stroke-linecap:round;stroke-linejoin:round;stroke:rgb(100%,100%,100%);stroke-opacity:1;stroke-miterlimit:10;" d="M 69.273438 33.648438 L 84.699219 20.203125 L 101.03125 5.898438 L 117.625 -8.4375 L 118.300781 -9 "/>
<path style="fill:none;stroke-width:6;stroke-linecap:round;stroke-linejoin:round;stroke:rgb(100%,100%,100%);stroke-opacity:1;stroke-miterlimit:10;" d="M -9 143.320313 L 3.957031 147.921875 L 24.554688 155.226563 L 45.179688 162.535156 L 64.796875 169.59375 "/>
<path style="fill:none;stroke-width:6;stroke-linecap:round;stroke-linejoin:round;stroke:rgb(100%,100%,100%);stroke-opacity:1;stroke-miterlimit:10;" d="M -6.238281 264 L 3.003906 260.964844 L 23.855469 254.210938 L 44.6875 247.429688 L 64.097656 239.972656 L 59.859375 183.648438 "/>
<path style="fill:none;stroke-width:6;stroke-linecap:round;stroke-linejoin:round;stroke:rgb(100%,100%,100%);stroke-opacity:1;stroke-miterlimit:10;" d="M -9 72.988281 L -7.414063 73.765625 L -1.914063 77.050781 L 2.792969 80.488281 L 7.035156 84.109375 L 11.066406 88.222656 L 14.28125 91.96875 L 15.601563 93.707031 L 18.566406 98.167969 L 21.015625 102.496094 L 23.507813 107.960938 L 25.324219 112.992188 L 26.652344 117.90625 L 27.703125 123.460938 L 28.285156 129.351563 L 28.308594 136.230469 L 27.703125 142.519531 L 26.558594 148.414063 L 25.183594 153.386719 L 24.554688 155.226563 "/>
<path style="fill:none;stroke-width:6;stroke-linecap:round;stroke-linejoin:round;stroke:rgb(100%,100%,100%);stroke-opacity:1;stroke-miterlimit:10;" d="M 88.511719 -9 L 101.03125 5.898438 "/>
<path style="fill:none;stroke-width:6;stroke-linecap:round;stroke-linejoin:round;stroke:rgb(100%,100%,100%);stroke-opacity:1;stroke-miterlimit:10;" d="M 60.015625 -9 L 84.699219 20.203125 "/>
<path style="fill:none;stroke-width:6;stroke-linecap:round;stroke-linejoin:round;stroke:rgb(100%,100%,100%);stroke-opacity:1;stroke-miterlimit:10;" d="M 24.554688 155.226563 L 22.550781 160.230469 L 20.386719 164.683594 L 17.820313 169.039063 L 14.628906 173.613281 L 11.742188 177.144531 L 8.199219 180.855469 L 5.191406 183.621094 L 1.394531 186.660156 L -2.988281 189.636719 L -7.132813 192.03125 L -9 192.90625 "/>
<path style="fill:none;stroke-width:6;stroke-linecap:round;stroke-linejoin:round;stroke:rgb(100%,100%,100%);stroke-opacity:1;stroke-miterlimit:10;" d="M -9 49.070313 L -7.507813 49.578125 L -0.960938 52.402344 L 4.726563 55.347656 L 10.390625 58.816406 L 15.773438 62.683594 L 20.269531 66.398438 L 24.648438 70.511719 L 28.515625 74.6875 L 31.851563 78.675781 L 33.738281 81.195313 L 37.09375 86.289063 L 40.003906 91.476563 L 42.894531 97.554688 L 45.085938 103.234375 L 46.902344 109.035156 L 48.230469 114.527344 L 49.210938 120.082031 L 49.863281 125.699219 L 50.140625 132.085938 L 50 138.191406 L 49.324219 145.222656 L 48.300781 151.144531 L 46.855469 157.160156 L 45.179688 162.535156 L 42.847656 168.425781 L 40.074219 174.257813 L 36.695313 180.152344 L 33.132813 185.367188 L 28.867188 190.769531 L 24.160156 195.835938 L 19.871094 199.824219 L 14.910156 203.847656 L 10.996094 206.609375 L 6.054688 209.707031 L 0.300781 212.746094 L -3.988281 214.679688 L -9 216.566406 "/>
<path style="fill:none;stroke-width:6;stroke-linecap:round;stroke-linejoin:round;stroke:rgb(100%,100%,100%);stroke-opacity:1;stroke-miterlimit:10;" d="M 31.003906 -9 L 36.136719 -3.035156 L 69.273438 33.648438 L 81.261719 48.421875 L 96.261719 66.421875 L 98.261719 81.421875 "/>
<path style="fill:none;stroke-width:9;stroke-linecap:round;stroke-linejoin:round;stroke:rgb(99.215686%,57.254902%,22.745098%);stroke-opacity:1;stroke-miterlimit:10;" d="M 151.425781 254.605469 L 153.066406 240.140625 L 155.664063 229.402344 L 158.59375 220.179688 L 161.496094 209.761719 L 164.734375 199.507813 L 172.667969 171.351563 L 176.074219 158.539063 L 179.589844 145.816406 L 183.035156 130.804688 L 185.429688 118.773438 L 186.738281 108.609375 L 188.582031 97.363281 L 189.214844 93.011719 L 190.316406 80.132813 L 192.691406 34.050781 L 192.511719 17.589844 L 192.253906 0.855469 L 192.125 -12 "/>
<path style="fill:none;stroke-width:9;stroke-linecap:round;stroke-linejoin:round;stroke:rgb(99.215686%,57.254902%,22.745098%);stroke-opacity:1;stroke-miterlimit:10;" d="M 188.359375 -12 L 188.398438 2.523438 L 188.519531 18.746094 L 188.050781 36.707031 L 187.199219 57.367188 L 186.65625 76.914063 L 185.148438 91.804688 L 183.527344 103.652344 L 181.410156 117.515625 L 178.378906 130.902344 L 175.253906 145.113281 L 171.859375 157.277344 L 168.410156 170.414063 L 161.410156 196.144531 L 157.539063 209.257813 L 154.347656 219.574219 L 151.710938 229.824219 L 149.394531 240.148438 L 148.046875 254.148438 "/>
<path style="fill:none;stroke-width:11;stroke-linecap:butt;stroke-linejoin:round;stroke:rgb(53.333333%,53.333333%,53.333333%);stroke-opacity:1;stroke-miterlimit:10;" d="M 148.046875 254.148438 L 147.039063 265 "/>
<path style="fill:none;stroke-width:11;stroke-linecap:butt;stroke-linejoin:round;stroke:rgb(53.333333%,53.333333%,53.333333%);stroke-opacity:1;stroke-miterlimit:10;" d="M 150.445313 265 L 151.425781 254.605469 "/>
<path style="fill:none;stroke-width:9;stroke-linecap:round;stroke-linejoin:round;stroke:rgb(99.215686%,57.254902%,22.745098%);stroke-opacity:1;stroke-miterlimit:10;" d="M 148.046875 254.148438 L 147.039063 265 "/>
<path style="fill:none;stroke-width:9;stroke-linecap:round;stroke-linejoin:round;stroke:rgb(99.215686%,57.254902%,22.745098%);stroke-opacity:1;stroke-miterlimit:10;" d="M 150.445313 265 L 151.425781 254.605469 "/>
<path style="fill:none;stroke-width:3;stroke-linecap:round;stroke-linejoin:round;stroke:rgb(100%,100%,100%);stroke-opacity:1;stroke-miterlimit:10;" d="M 46.425781 95.753906 L 46.769531 96.675781 L 40.941406 100.457031 L 47.832031 99.519531 L 48.207031 100.535156 L 42.378906 104.332031 L 49.269531 103.378906 L 49.613281 104.316406 L 41.457031 105.394531 L 41.035156 104.238281 L 47.035156 100.394531 L 39.972656 101.378906 L 39.550781 100.222656 Z M 47.050781 111.332031 L 43.550781 112.300781 L 43.316406 111.441406 L 46.785156 110.472656 C 47.335938 110.324219 47.714844 110.117188 47.925781 109.847656 C 48.144531 109.574219 48.199219 109.246094 48.097656 108.863281 C 47.972656 108.402344 47.707031 108.085938 47.300781 107.910156 C 46.902344 107.742188 46.425781 107.738281 45.863281 107.894531 L 42.582031 108.800781 L 42.332031 107.925781 L 50.378906 105.691406 L 50.628906 106.566406 L 47.472656 107.441406 C 47.878906 107.542969 48.207031 107.710938 48.457031 107.941406 C 48.707031 108.167969 48.882813 108.472656 48.988281 108.847656 C 49.152344 109.441406 49.070313 109.945313 48.738281 110.363281 C 48.414063 110.789063 47.851563 111.113281 47.050781 111.332031 Z M 49.816406 112.480469 L 50.019531 113.355469 L 44.160156 114.746094 L 43.957031 113.871094 Z M 52.097656 111.949219 L 52.300781 112.824219 L 51.082031 113.105469 L 50.878906 112.230469 Z M 52.246094 115.851563 L 50.558594 116.148438 L 50.871094 117.945313 L 50.121094 118.085938 L 49.808594 116.289063 L 46.589844 116.851563 C 46.109375 116.933594 45.808594 117.046875 45.683594 117.195313 C 45.566406 117.339844 45.542969 117.59375 45.605469 117.960938 L 45.761719 118.851563 L 44.949219 118.992188 L 44.792969 118.101563 C 44.675781 117.421875 44.734375 116.929688 44.964844 116.617188 C 45.203125 116.3125 45.691406 116.101563 46.433594 115.976563 L 49.652344 115.414063 L 49.542969 114.773438 L 50.292969 114.632813 L 50.402344 115.273438 L 52.089844 114.976563 Z M 50.335938 123.558594 C 50.8125 123.734375 51.171875 123.964844 51.414063 124.246094 C 51.652344 124.535156 51.792969 124.886719 51.835938 125.292969 C 51.898438 125.863281 51.726563 126.324219 51.320313 126.667969 C 50.914063 127.019531 50.308594 127.238281 49.507813 127.324219 L 45.898438 127.714844 L 45.804688 126.824219 L 49.382813 126.433594 C 49.953125 126.371094 50.367188 126.234375 50.617188 126.027344 C 50.875 125.816406 50.992188 125.527344 50.960938 125.152344 C 50.90625 124.703125 50.695313 124.359375 50.320313 124.121094 C 49.953125 123.890625 49.484375 123.808594 48.914063 123.871094 L 45.523438 124.230469 L 45.429688 123.339844 L 49.007813 122.949219 C 49.578125 122.886719 49.992188 122.75 50.242188 122.542969 C 50.5 122.332031 50.609375 122.042969 50.570313 121.667969 C 50.527344 121.207031 50.320313 120.863281 49.945313 120.636719 C 49.578125 120.40625 49.109375 120.324219 48.539063 120.386719 L 45.148438 120.746094 L 45.054688 119.855469 L 51.039063 119.214844 L 51.132813 120.105469 L 50.195313 120.199219 C 50.589844 120.355469 50.886719 120.566406 51.085938 120.839844 C 51.292969 121.109375 51.417969 121.4375 51.460938 121.824219 C 51.5 122.207031 51.429688 122.546875 51.242188 122.839844 C 51.054688 123.140625 50.75 123.378906 50.335938 123.558594 Z M 49.078125 131.523438 C 49.054688 130.804688 48.945313 130.308594 48.75 130.039063 C 48.5625 129.765625 48.25 129.636719 47.8125 129.648438 C 47.46875 129.648438 47.191406 129.75 46.984375 129.960938 C 46.785156 130.179688 46.691406 130.464844 46.703125 130.820313 C 46.710938 131.320313 46.914063 131.714844 47.3125 132.007813 C 47.707031 132.296875 48.222656 132.433594 48.859375 132.414063 L 49.09375 132.414063 Z M 49.515625 133.289063 L 46.078125 133.367188 L 46.0625 132.476563 L 46.96875 132.460938 C 46.59375 132.261719 46.316406 132.011719 46.140625 131.710938 C 45.964844 131.40625 45.871094 131.039063 45.859375 130.601563 C 45.851563 130.046875 46.007813 129.605469 46.34375 129.273438 C 46.6875 128.9375 47.148438 128.765625 47.734375 128.757813 C 48.410156 128.734375 48.921875 128.921875 49.265625 129.320313 C 49.617188 129.726563 49.804688 130.335938 49.828125 131.148438 L 49.859375 132.398438 L 49.953125 132.398438 C 50.410156 132.386719 50.757813 132.242188 51 131.960938 C 51.25 131.6875 51.367188 131.308594 51.359375 130.820313 C 51.347656 130.515625 51.296875 130.214844 51.203125 129.914063 C 51.117188 129.621094 50.988281 129.34375 50.8125 129.085938 L 51.71875 129.054688 C 51.875 129.386719 51.988281 129.703125 52.0625 130.007813 C 52.132813 130.308594 52.175781 130.605469 52.1875 130.898438 C 52.195313 131.679688 51.984375 132.265625 51.546875 132.664063 C 51.109375 133.070313 50.429688 133.277344 49.515625 133.289063 Z M 49.457031 139.582031 L 45.832031 139.410156 L 45.878906 138.519531 L 49.472656 138.691406 C 50.042969 138.722656 50.476563 138.644531 50.769531 138.457031 C 51.058594 138.269531 51.210938 137.976563 51.222656 137.582031 C 51.253906 137.101563 51.101563 136.710938 50.769531 136.410156 C 50.445313 136.117188 49.992188 135.960938 49.410156 135.941406 L 46.003906 135.769531 L 46.050781 134.863281 L 52.066406 135.160156 L 52.019531 136.066406 L 51.082031 136.019531 C 51.433594 136.246094 51.695313 136.507813 51.863281 136.800781 C 52.027344 137.089844 52.101563 137.429688 52.082031 137.816406 C 52.050781 138.429688 51.808594 138.886719 51.363281 139.191406 C 50.925781 139.492188 50.289063 139.621094 49.457031 139.582031 Z M 52.28125 145.980469 L 46.109375 145.027344 L 45.921875 146.183594 C 45.765625 147.160156 45.898438 147.917969 46.328125 148.449219 C 46.753906 148.988281 47.503906 149.34375 48.578125 149.511719 C 49.640625 149.675781 50.453125 149.566406 51.015625 149.183594 C 51.578125 148.796875 51.9375 148.113281 52.09375 147.136719 Z M 53.296875 145.136719 L 53 147.121094 C 52.78125 148.503906 52.300781 149.46875 51.5625 150.011719 C 50.820313 150.5625 49.773438 150.734375 48.421875 150.527344 C 47.054688 150.308594 46.101563 149.824219 45.5625 149.074219 C 45.023438 148.324219 44.859375 147.261719 45.078125 145.886719 L 45.375 143.902344 Z M 48.417969 155.320313 C 48.511719 155.226563 48.582031 155.125 48.636719 155.023438 C 48.699219 154.917969 48.746094 154.796875 48.777344 154.664063 C 48.890625 154.164063 48.800781 153.742188 48.511719 153.398438 C 48.21875 153.054688 47.738281 152.804688 47.074219 152.648438 L 43.996094 151.914063 L 44.214844 151.023438 L 50.058594 152.429688 L 49.839844 153.320313 L 48.933594 153.101563 C 49.246094 153.359375 49.453125 153.65625 49.558594 153.992188 C 49.660156 154.324219 49.660156 154.699219 49.558594 155.117188 C 49.546875 155.167969 49.527344 155.230469 49.496094 155.304688 C 49.472656 155.375 49.441406 155.453125 49.402344 155.539063 Z M 49.082031 156.449219 L 48.863281 157.308594 L 43.035156 155.824219 L 43.253906 154.964844 Z M 51.347656 157.027344 L 51.128906 157.886719 L 49.925781 157.574219 L 50.144531 156.714844 Z M 48.503906 158.621094 L 48.222656 159.511719 L 42.894531 159.558594 L 47.175781 162.746094 L 46.878906 163.636719 L 41.785156 159.839844 L 42.160156 158.699219 Z M 42.109375 168.164063 L 41.65625 167.976563 L 43.1875 164.179688 C 42.539063 163.96875 41.988281 163.949219 41.53125 164.117188 C 41.085938 164.292969 40.757813 164.652344 40.546875 165.195313 C 40.414063 165.515625 40.328125 165.839844 40.296875 166.164063 C 40.265625 166.496094 40.273438 166.851563 40.3125 167.226563 L 39.46875 166.867188 C 39.4375 166.511719 39.449219 166.164063 39.5 165.820313 C 39.554688 165.484375 39.648438 165.15625 39.78125 164.835938 C 40.105469 164.03125 40.617188 163.5 41.3125 163.242188 C 42.019531 162.980469 42.816406 163.03125 43.703125 163.398438 C 44.617188 163.761719 45.253906 164.273438 45.609375 164.929688 C 45.960938 165.59375 45.984375 166.304688 45.671875 167.054688 C 45.398438 167.730469 44.945313 168.167969 44.3125 168.367188 C 43.675781 168.5625 42.941406 168.496094 42.109375 168.164063 Z M 42.71875 167.445313 C 43.226563 167.632813 43.675781 167.664063 44.0625 167.539063 C 44.457031 167.421875 44.738281 167.164063 44.90625 166.757813 C 45.09375 166.296875 45.097656 165.871094 44.921875 165.476563 C 44.753906 165.078125 44.414063 164.757813 43.90625 164.507813 Z M 42.71875 167.445313 "/>
<path style=" stroke:none;fill-rule:evenodd;fill:rgb(20%,20%,20%);fill-opacity:1;" d="M 46.425781 95.753906 L 46.769531 96.675781 L 40.941406 100.457031 L 47.832031 99.519531 L 48.207031 100.535156 L 42.378906 104.332031 L 49.269531 103.378906 L 49.613281 104.316406 L 41.457031 105.394531 L 41.035156 104.238281 L 47.035156 100.394531 L 39.972656 101.378906 L 39.550781 100.222656 Z M 47.050781 111.332031 L 43.550781 112.300781 L 43.316406 111.441406 L 46.785156 110.472656 C 47.335938 110.324219 47.714844 110.117188 47.925781 109.847656 C 48.144531 109.574219 48.199219 109.246094 48.097656 108.863281 C 47.972656 108.402344 47.707031 108.085938 47.300781 107.910156 C 46.902344 107.742188 46.425781 107.738281 45.863281 107.894531 L 42.582031 108.800781 L 42.332031 107.925781 L 50.378906 105.691406 L 50.628906 106.566406 L 47.472656 107.441406 C 47.878906 107.542969 48.207031 107.710938 48.457031 107.941406 C 48.707031 108.167969 48.882813 108.472656 48.988281 108.847656 C 49.152344 109.441406 49.070313 109.945313 48.738281 110.363281 C 48.414063 110.789063 47.851563 111.113281 47.050781 111.332031 Z M 49.816406 112.480469 L 50.019531 113.355469 L 44.160156 114.746094 L 43.957031 113.871094 Z M 52.097656 111.949219 L 52.300781 112.824219 L 51.082031 113.105469 L 50.878906 112.230469 Z M 52.246094 115.851563 L 50.558594 116.148438 L 50.871094 117.945313 L 50.121094 118.085938 L 49.808594 116.289063 L 46.589844 116.851563 C 46.109375 116.933594 45.808594 117.046875 45.683594 117.195313 C 45.566406 117.339844 45.542969 117.59375 45.605469 117.960938 L 45.761719 118.851563 L 44.949219 118.992188 L 44.792969 118.101563 C 44.675781 117.421875 44.734375 116.929688 44.964844 116.617188 C 45.203125 116.3125 45.691406 116.101563 46.433594 115.976563 L 49.652344 115.414063 L 49.542969 114.773438 L 50.292969 114.632813 L 50.402344 115.273438 L 52.089844 114.976563 Z M 50.335938 123.558594 C 50.8125 123.734375 51.171875 123.964844 51.414063 124.246094 C 51.652344 124.535156 51.792969 124.886719 51.835938 125.292969 C 51.898438 125.863281 51.726563 126.324219 51.320313 126.667969 C 50.914063 127.019531 50.308594 127.238281 49.507813 127.324219 L 45.898438 127.714844 L 45.804688 126.824219 L 49.382813 126.433594 C 49.953125 126.371094 50.367188 126.234375 50.617188 126.027344 C 50.875 125.816406 50.992188 125.527344 50.960938 125.152344 C 50.90625 124.703125 50.695313 124.359375 50.320313 124.121094 C 49.953125 123.890625 49.484375 123.808594 48.914063 123.871094 L 45.523438 124.230469 L 45.429688 123.339844 L 49.007813 122.949219 C 49.578125 122.886719 49.992188 122.75 50.242188 122.542969 C 50.5 122.332031 50.609375 122.042969 50.570313 121.667969 C 50.527344 121.207031 50.320313 120.863281 49.945313 120.636719 C 49.578125 120.40625 49.109375 120.324219 48.539063 120.386719 L 45.148438 120.746094 L 45.054688 119.855469 L 51.039063 119.214844 L 51.132813 120.105469 L 50.195313 120.199219 C 50.589844 120.355469 50.886719 120.566406 51.085938 120.839844 C 51.292969 121.109375 51.417969 121.4375 51.460938 121.824219 C 51.5 122.207031 51.429688 122.546875 51.242188 122.839844 C 51.054688 123.140625 50.75 123.378906 50.335938 123.558594 Z M 49.078125 131.523438 C 49.054688 130.804688 48.945313 130.308594 48.75 130.039063 C 48.5625 129.765625 48.25 129.636719 47.8125 129.648438 C 47.46875 129.648438 47.191406 129.75 46.984375 129.960938 C 46.785156 130.179688 46.691406 130.464844 46.703125 130.820313 C 46.710938 131.320313 46.914063 131.714844 47.3125 132.007813 C 47.707031 132.296875 48.222656 132.433594 48.859375 132.414063 L 49.09375 132.414063 Z M 49.515625 133.289063 L 46.078125 133.367188 L 46.0625 132.476563 L 46.96875 132.460938 C 46.59375 132.261719 46.316406 132.011719 46.140625 131.710938 C 45.964844 131.40625 45.871094 131.039063 45.859375 130.601563 C 45.851563 130.046875 46.007813 129.605469 46.34375 129.273438 C 46.6875 128.9375 47.148438 128.765625 47.734375 128.757813 C 48.410156 128.734375 48.921875 128.921875 49.265625 129.320313 C 49.617188 129.726563 49.804688 130.335938 49.828125 131.148438 L 49.859375 132.398438 L 49.953125 132.398438 C 50.410156 132.386719 50.757813 132.242188 51 131.960938 C 51.25 131.6875 51.367188 131.308594 51.359375 130.820313 C 51.347656 130.515625 51.296875 130.214844 51.203125 129.914063 C 51.117188 129.621094 50.988281 129.34375 50.8125 129.085938 L 51.71875 129.054688 C 51.875 129.386719 51.988281 129.703125 52.0625 130.007813 C 52.132813 130.308594 52.175781 130.605469 52.1875 130.898438 C 52.195313 131.679688 51.984375 132.265625 51.546875 132.664063 C 51.109375 133.070313 50.429688 133.277344 49.515625 133.289063 Z M 49.457031 139.582031 L 45.832031 139.410156 L 45.878906 138.519531 L 49.472656 138.691406 C 50.042969 138.722656 50.476563 138.644531 50.769531 138.457031 C 51.058594 138.269531 51.210938 137.976563 51.222656 137.582031 C 51.253906 137.101563 51.101563 136.710938 50.769531 136.410156 C 50.445313 136.117188 49.992188 135.960938 49.410156 135.941406 L 46.003906 135.769531 L 46.050781 134.863281 L 52.066406 135.160156 L 52.019531 136.066406 L 51.082031 136.019531 C 51.433594 136.246094 51.695313 136.507813 51.863281 136.800781 C 52.027344 137.089844 52.101563 137.429688 52.082031 137.816406 C 52.050781 138.429688 51.808594 138.886719 51.363281 139.191406 C 50.925781 139.492188 50.289063 139.621094 49.457031 139.582031 Z M 52.28125 145.980469 L 46.109375 145.027344 L 45.921875 146.183594 C 45.765625 147.160156 45.898438 147.917969 46.328125 148.449219 C 46.753906 148.988281 47.503906 149.34375 48.578125 149.511719 C 49.640625 149.675781 50.453125 149.566406 51.015625 149.183594 C 51.578125 148.796875 51.9375 148.113281 52.09375 147.136719 Z M 53.296875 145.136719 L 53 147.121094 C 52.78125 148.503906 52.300781 149.46875 51.5625 150.011719 C 50.820313 150.5625 49.773438 150.734375 48.421875 150.527344 C 47.054688 150.308594 46.101563 149.824219 45.5625 149.074219 C 45.023438 148.324219 44.859375 147.261719 45.078125 145.886719 L 45.375 143.902344 Z M 48.417969 155.320313 C 48.511719 155.226563 48.582031 155.125 48.636719 155.023438 C 48.699219 154.917969 48.746094 154.796875 48.777344 154.664063 C 48.890625 154.164063 48.800781 153.742188 48.511719 153.398438 C 48.21875 153.054688 47.738281 152.804688 47.074219 152.648438 L 43.996094 151.914063 L 44.214844 151.023438 L 50.058594 152.429688 L 49.839844 153.320313 L 48.933594 153.101563 C 49.246094 153.359375 49.453125 153.65625 49.558594 153.992188 C 49.660156 154.324219 49.660156 154.699219 49.558594 155.117188 C 49.546875 155.167969 49.527344 155.230469 49.496094 155.304688 C 49.472656 155.375 49.441406 155.453125 49.402344 155.539063 Z M 49.082031 156.449219 L 48.863281 157.308594 L 43.035156 155.824219 L 43.253906 154.964844 Z M 51.347656 157.027344 L 51.128906 157.886719 L 49.925781 157.574219 L 50.144531 156.714844 Z M 48.503906 158.621094 L 48.222656 159.511719 L 42.894531 159.558594 L 47.175781 162.746094 L 46.878906 163.636719 L 41.785156 159.839844 L 42.160156 158.699219 Z M 42.109375 168.164063 L 41.65625 167.976563 L 43.1875 164.179688 C 42.539063 163.96875 41.988281 163.949219 41.53125 164.117188 C 41.085938 164.292969 40.757813 164.652344 40.546875 165.195313 C 40.414063 165.515625 40.328125 165.839844 40.296875 166.164063 C 40.265625 166.496094 40.273438 166.851563 40.3125 167.226563 L 39.46875 166.867188 C 39.4375 166.511719 39.449219 166.164063 39.5 165.820313 C 39.554688 165.484375 39.648438 165.15625 39.78125 164.835938 C 40.105469 164.03125 40.617188 163.5 41.3125 163.242188 C 42.019531 162.980469 42.816406 163.03125 43.703125 163.398438 C 44.617188 163.761719 45.253906 164.273438 45.609375 164.929688 C 45.960938 165.59375 45.984375 166.304688 45.671875 167.054688 C 45.398438 167.730469 44.945313 168.167969 44.3125 168.367188 C 43.675781 168.5625 42.941406 168.496094 42.109375 168.164063 Z M 42.71875 167.445313 C 43.226563 167.632813 43.675781 167.664063 44.0625 167.539063 C 44.457031 167.421875 44.738281 167.164063 44.90625 166.757813 C 45.09375 166.296875 45.097656 165.871094 44.921875 165.476563 C 44.753906 165.078125 44.414063 164.757813 43.90625 164.507813 Z M 42.71875 167.445313 "/>
</g>
</svg>

