<?xml version="1.0" encoding="UTF-8"?>
<svg xmlns="http://www.w3.org/2000/svg" xmlns:xlink="http://www.w3.org/1999/xlink" width="256pt" height="256pt" viewBox="0 0 256 256" version="1.1">
<g id="surface2">
<rect x="0" y="0" width="256" height="256" style="fill:rgb(60%,70.196078%,80%);fill-opacity:1;stroke:none;"/>
<path style=" stroke:none;fill-rule:evenodd;fill:rgb(94.901961%,93.72549%,91.372549%);fill-opacity:1;" d="M -4 259 L 259 259 L 259 -4 L 259 259 Z M -4 259 "/>
<path style=" stroke:none;fill-rule:evenodd;fill:rgb(94.901961%,93.72549%,91.372549%);fill-opacity:1;" d="M -4 259 L 47.609375 259 L 36.269531 252.609375 L 17.183594 241.960938 L 21.695313 233.632813 L 18.839844 231.976563 L 17.367188 232.53125 L 16.753906 233.574219 L 15.207031 232.535156 L 16.515625 229.976563 L 16.925781 229.5 L 17.464844 229.246094 L 18.101563 229.277344 L 18.636719 229.5625 L 22.710938 231.792969 L 49.316406 246.710938 L 50.089844 245.378906 L 59.035156 250.257813 L 58.191406 251.691406 L 71.222656 259 L 102.96875 259 L 110.1875 246.003906 L 84.585938 231.835938 L 84.40625 231.734375 L 81.390625 230.0625 L 80.425781 229.53125 L 66.695313 221.929688 L 36.335938 205.121094 L 42.183594 194.5625 L 44.160156 194.414063 L 87.878906 219.015625 L 96.5625 223.898438 L 116.394531 235.058594 L 124.5625 220.332031 L 123.644531 220.242188 L 122.898438 219.886719 L 122.15625 219.480469 L 121.617188 218.828125 L 121.171875 217.921875 L 120.9375 216.875 L 121.027344 215.96875 L 121.304688 215.191406 L 121.746094 214.429688 L 122.5625 213.804688 L 124.011719 213.359375 L 125.792969 212.902344 L 126.726563 212.574219 L 127.339844 212.109375 L 127.953125 211.324219 L 129.445313 208.066406 L 54.480469 166.304688 L 53.296875 165.378906 L 52.667969 164.292969 L 52.515625 162.855469 L 59.597656 150.464844 L 60.828125 149.78125 L 62.230469 149.660156 L 63.644531 150.167969 L 132.675781 188.515625 L 133.390625 187.136719 L 135.949219 188.496094 L 136.441406 187.511719 L 138.960938 188.882813 L 147.453125 173.425781 L 151.851563 165.359375 L 74.863281 122.601563 L 80.148438 113.511719 L 156.8125 156.335938 L 173.480469 126.492188 L 96.261719 83.691406 L 101.699219 74.378906 L 158.824219 106.125 L 169.863281 85.480469 L 115.441406 54.714844 L 121.496094 44.175781 L 176.46875 74.726563 L 182.488281 62.957031 L 186.574219 55.222656 L 183.578125 53.222656 L 186.304688 48.609375 L 189.335938 50.570313 L 196.882813 36.449219 L 188.972656 32.035156 L 189.941406 30.148438 L 188.289063 28.597656 L 187.917969 29.15625 L 183.851563 26.871094 L 185.851563 23.164063 L 190.074219 25.375 L 189.753906 26.152344 L 192.289063 27.027344 L 199.914063 30.804688 L 203.976563 23.167969 L 205.386719 23.492188 L 206.429688 23.539063 L 207.589844 23.285156 L 208.355469 22.484375 L 208.523438 21.488281 L 208.066406 20.597656 L 207.453125 19.660156 L 206.5 18.546875 L 207.546875 16.71875 L 170 -4 L 190.058594 -4 L 212.28125 8.324219 L 219.007813 -4 L 259 -4 L 259 259 Z M -4 259 "/>
<path style=" stroke:none;fill-rule:evenodd;fill:rgb(70.980392%,82.352941%,61.176471%);fill-opacity:1;" d="M 193.792969 128.886719 L 234.054688 151.136719 L 252.316406 118.101563 L 212.054688 95.847656 Z M 193.792969 128.886719 "/>
<path style=" stroke:none;fill-rule:evenodd;fill:rgb(70.980392%,82.352941%,61.176471%);fill-opacity:1;" d="M 16.757813 233.574219 L 17.367188 232.53125 L 18.839844 231.976563 L 21.695313 233.632813 L 17.183594 241.960938 L 36.269531 252.609375 L 49.382813 260 L 73.007813 260 L 58.191406 251.691406 L 59.035156 250.257813 L 50.089844 245.378906 L 49.316406 246.710938 L 22.710938 231.792969 L 18.636719 229.5625 L 17.464844 229.246094 L 16.515625 229.976563 L 15.207031 232.535156 Z M 16.757813 233.574219 "/>
<path style=" stroke:none;fill-rule:evenodd;fill:rgb(70.980392%,82.352941%,61.176471%);fill-opacity:1;" d="M 182.488281 62.957031 L 195.421875 70.664063 L 201.621094 74.25 L 203.996094 67.5 L 204.871094 63.25 L 207.75 34.625 L 208.511719 28.363281 L 209.730469 23.921875 L 207.589844 23.285156 L 206.429688 23.539063 L 205.386719 23.492188 L 203.976563 23.167969 L 199.914063 30.804688 L 192.289063 27.027344 L 189.753906 26.152344 L 185.851563 23.164063 L 183.851563 26.871094 L 187.917969 29.15625 L 189.941406 30.148438 L 188.972656 32.035156 L 196.882813 36.449219 L 189.335938 50.570313 L 186.304688 48.609375 L 183.578125 53.222656 L 186.574219 55.222656 Z M 182.488281 62.957031 "/>
<path style=" stroke:none;fill-rule:evenodd;fill:rgb(94.901961%,93.72549%,91.372549%);fill-opacity:1;" d="M 237.53125 23.699219 L 260 36.085938 L 260 17.4375 L 238.8125 5.519531 L 233.375 15.207031 L 230.707031 19.9375 Z M 237.53125 23.699219 "/>
<path style="fill:none;stroke-width:1;stroke-linecap:round;stroke-linejoin:round;stroke:rgb(89.019608%,87.058824%,83.137255%);stroke-opacity:1;stroke-miterlimit:10;" d="M 237.53125 23.699219 L 260 36.085938 L 260 17.4375 L 238.8125 5.519531 L 233.375 15.207031 L 230.707031 19.9375 L 237.53125 23.699219 "/>
<path style=" stroke:none;fill-rule:evenodd;fill:rgb(87.058824%,81.960784%,67.058824%);fill-opacity:1;" d="M 214.261719 131.488281 L 214.886719 133.363281 L 216.011719 134.488281 L 218.882813 135.863281 L 224.855469 137.347656 L 229.011719 137.738281 L 232.386719 137.359375 L 235.511719 136.863281 L 238.511719 135.984375 L 240.636719 134.488281 L 243.386719 131.863281 L 245.886719 127.988281 L 250.261719 119.363281 L 228.886719 108.863281 L 226.136719 109.484375 Z M 214.261719 131.488281 "/>
<path style=" stroke:none;fill-rule:evenodd;fill:rgb(81.960784%,81.568627%,80.392157%);fill-opacity:1;" d="M 145.710938 260 L 145.964844 259.53125 L 141.640625 257.230469 L 132.488281 256.992188 L 127.867188 256.867188 L 123.921875 254.828125 L 122.640625 257.054688 L 120.945313 260 Z M 145.710938 260 "/>
<path style="fill:none;stroke-width:1;stroke-linecap:round;stroke-linejoin:round;stroke:rgb(81.960784%,81.960784%,81.960784%);stroke-opacity:1;stroke-miterlimit:10;" d="M 145.710938 260 L 145.964844 259.53125 L 141.640625 257.230469 L 132.488281 256.992188 L 127.867188 256.867188 L 123.921875 254.828125 L 122.640625 257.054688 L 120.945313 260 L 145.710938 260 "/>
<path style=" stroke:none;fill-rule:evenodd;fill:rgb(81.960784%,81.568627%,80.392157%);fill-opacity:1;" d="M 178.445313 157.570313 L 180.226563 158.574219 L 178.554688 161.375 L 180.605469 162.535156 L 184.039063 164.746094 L 180.011719 171.914063 L 189.101563 176.851563 L 197.257813 161.976563 L 180.863281 152.9375 Z M 178.445313 157.570313 "/>
<path style="fill:none;stroke-width:1;stroke-linecap:round;stroke-linejoin:round;stroke:rgb(81.960784%,81.960784%,81.960784%);stroke-opacity:1;stroke-miterlimit:10;" d="M 178.445313 157.570313 L 180.226563 158.574219 L 178.554688 161.375 L 180.605469 162.535156 L 184.039063 164.746094 L 180.011719 171.914063 L 189.101563 176.851563 L 197.257813 161.976563 L 180.863281 152.9375 L 178.445313 157.570313 "/>
<path style=" stroke:none;fill-rule:evenodd;fill:rgb(81.960784%,81.568627%,80.392157%);fill-opacity:1;" d="M 186.949219 216.371094 L 188.65625 217.308594 L 189.683594 215.425781 L 197.078125 219.480469 L 197.773438 218.195313 L 198.667969 216.554688 L 200.050781 214.015625 L 193.371094 210.328125 L 191.96875 209.554688 L 190.960938 208.996094 Z M 186.949219 216.371094 "/>
<path style="fill:none;stroke-width:1;stroke-linecap:round;stroke-linejoin:round;stroke:rgb(81.960784%,81.960784%,81.960784%);stroke-opacity:1;stroke-miterlimit:10;" d="M 186.949219 216.371094 L 188.65625 217.308594 L 189.683594 215.425781 L 197.078125 219.480469 L 197.773438 218.195313 L 198.667969 216.554688 L 200.050781 214.015625 L 193.371094 210.328125 L 191.96875 209.554688 L 190.960938 208.996094 L 186.949219 216.371094 "/>
<path style=" stroke:none;fill-rule:evenodd;fill:rgb(60%,70.196078%,80%);fill-opacity:1;" d="M -4 259 L 47.609375 259 L 36.269531 252.609375 L 17.183594 241.960938 L 21.695313 233.632813 L 18.839844 231.976563 L 17.367188 232.53125 L 16.757813 233.574219 L 15.207031 232.535156 L 16.515625 229.976563 L 17.464844 229.246094 L 18.636719 229.5625 L 22.710938 231.792969 L 49.316406 246.710938 L 50.089844 245.378906 L 59.035156 250.257813 L 58.191406 251.691406 L 71.222656 259 L 102.96875 259 L 110.1875 246.003906 L 84.585938 231.835938 L 81.390625 230.0625 L 80.425781 229.53125 L 66.695313 221.929688 L 36.335938 205.121094 L 42.183594 194.5625 L 44.160156 194.414063 L 87.878906 219.015625 L 96.5625 223.898438 L 116.394531 235.058594 L 124.5625 220.332031 L 122.898438 219.886719 L 121.617188 218.832031 L 121.171875 217.921875 L 120.9375 216.875 L 121.304688 215.191406 L 122.5625 213.804688 L 124.011719 213.359375 L 125.792969 212.902344 L 127.339844 212.109375 L 129.445313 208.066406 L 54.480469 166.304688 L 53.296875 165.378906 L 52.667969 164.292969 L 52.515625 162.855469 L 59.597656 150.464844 L 60.828125 149.78125 L 62.230469 149.660156 L 63.644531 150.167969 L 132.675781 188.515625 L 133.390625 187.136719 L 135.953125 188.5 L 136.441406 187.511719 L 138.960938 188.882813 L 147.457031 173.425781 L 151.851563 165.359375 L 74.863281 122.601563 L 80.148438 113.511719 L 156.8125 156.335938 L 173.480469 126.496094 L 96.261719 83.691406 L 101.699219 74.378906 L 158.824219 106.125 L 169.863281 85.480469 L 115.441406 54.714844 L 121.496094 44.175781 L 176.46875 74.726563 L 182.488281 62.957031 L 186.574219 55.222656 L 183.578125 53.222656 L 186.304688 48.609375 L 189.335938 50.570313 L 196.882813 36.449219 L 188.972656 32.035156 L 189.941406 30.148438 L 188.289063 28.597656 L 183.851563 26.871094 L 185.851563 23.164063 L 190.078125 25.375 L 192.289063 27.027344 L 199.914063 30.804688 L 203.976563 23.167969 L 205.386719 23.492188 L 206.429688 23.539063 L 207.589844 23.285156 L 208.355469 22.484375 L 208.523438 21.488281 L 208.066406 20.597656 L 207.453125 19.660156 L 206.5 18.546875 L 207.546875 16.71875 L 170 -4 L 190.058594 -4 L 212.28125 8.324219 L 219.007813 -4 L 259 -4 L -4 -4 Z M -4 259 "/>
<path style="fill:none;stroke-width:1;stroke-linecap:round;stroke-linejoin:round;stroke:rgb(70.196078%,77.647059%,83.137255%);stroke-opacity:1;stroke-miterlimit:10;" d="M -4 259 L 47.609375 259 L 36.269531 252.609375 L 17.183594 241.960938 L 21.695313 233.632813 L 18.839844 231.976563 L 17.367188 232.53125 L 16.757813 233.574219 L 15.207031 232.535156 L 16.515625 229.976563 L 17.464844 229.246094 L 18.636719 229.5625 L 22.710938 231.792969 L 49.316406 246.710938 L 50.089844 245.378906 L 59.035156 250.257813 L 58.191406 251.691406 L 71.222656 259 L 102.96875 259 L 110.1875 246.003906 L 84.585938 231.835938 L 81.390625 230.0625 L 80.425781 229.53125 L 66.695313 221.929688 L 36.335938 205.121094 L 42.183594 194.5625 L 44.160156 194.414063 L 87.878906 219.015625 L 96.5625 223.898438 L 116.394531 235.058594 L 124.5625 220.332031 L 122.898438 219.886719 L 121.617188 218.832031 L 121.171875 217.921875 L 120.9375 216.875 L 121.304688 215.191406 L 122.5625 213.804688 L 124.011719 213.359375 L 125.792969 212.902344 L 127.339844 212.109375 L 129.445313 208.066406 L 54.480469 166.304688 L 53.296875 165.378906 L 52.667969 164.292969 L 52.515625 162.855469 L 59.597656 150.464844 L 60.828125 149.78125 L 62.230469 149.660156 L 63.644531 150.167969 L 132.675781 188.515625 L 133.390625 187.136719 L 135.953125 188.5 L 136.441406 187.511719 L 138.960938 188.882813 L 147.457031 173.425781 L 151.851563 165.359375 L 74.863281 122.601563 L 80.148438 113.511719 L 156.8125 156.335938 L 173.480469 126.496094 L 96.261719 83.691406 L 101.699219 74.378906 L 158.824219 106.125 L 169.863281 85.480469 L 115.441406 54.714844 L 121.496094 44.175781 L 176.46875 74.726563 L 182.488281 62.957031 L 186.574219 55.222656 L 183.578125 53.222656 L 186.304688 48.609375 L 189.335938 50.570313 L 196.882813 36.449219 L 188.972656 32.035156 L 189.941406 30.148438 L 188.289063 28.597656 L 183.851563 26.871094 L 185.851563 23.164063 L 190.078125 25.375 L 192.289063 27.027344 L 199.914063 30.804688 L 203.976563 23.167969 L 205.386719 23.492188 L 206.429688 23.539063 L 207.589844 23.285156 L 208.355469 22.484375 L 208.523438 21.488281 L 208.066406 20.597656 L 207.453125 19.660156 L 206.5 18.546875 L 207.546875 16.71875 L 170 -4 L 190.058594 -4 L 212.28125 8.324219 L 219.007813 -4 L 259 -4 L -4 -4 L -4 259 "/>
<path style="fill:none;stroke-width:6;stroke-linecap:round;stroke-linejoin:round;stroke:rgb(60%,70.196078%,80%);stroke-opacity:1;stroke-miterlimit:10;" d="M 18.730469 -7 L -7 38.429688 "/>
<path style="fill:none;stroke-width:1;stroke-linecap:butt;stroke-linejoin:round;stroke:rgb(46.666667%,46.666667%,46.666667%);stroke-opacity:1;stroke-dasharray:2,2;stroke-miterlimit:10;" d="M 245.8125 257 L 252.839844 243.453125 "/>
<path style="fill:none;stroke-width:1;stroke-linecap:butt;stroke-linejoin:round;stroke:rgb(46.666667%,46.666667%,46.666667%);stroke-opacity:0.4;stroke-dasharray:2,2;stroke-miterlimit:10;" d="M 252.839844 243.453125 L 257 236.265625 "/>
<path style="fill:none;stroke-width:1;stroke-linecap:round;stroke-linejoin:round;stroke:rgb(100%,100%,100%);stroke-opacity:1;stroke-dasharray:2,3;stroke-miterlimit:10;" d="M 132.488281 256.992188 L 132.457031 253.898438 "/>
<path style="fill:none;stroke-width:1;stroke-linecap:round;stroke-linejoin:round;stroke:rgb(100%,100%,100%);stroke-opacity:1;stroke-dasharray:2,3;stroke-miterlimit:10;" d="M 201.148438 38.507813 L 196.832031 39.113281 "/>
<path style="fill:none;stroke-width:1;stroke-linecap:round;stroke-linejoin:round;stroke:rgb(100%,100%,100%);stroke-opacity:1;stroke-dasharray:2,3;stroke-miterlimit:10;" d="M 185.941406 101.710938 L 187.449219 102.53125 L 191.425781 104.707031 "/>
<path style="fill:none;stroke-width:1;stroke-linecap:round;stroke-linejoin:round;stroke:rgb(100%,100%,100%);stroke-opacity:1;stroke-dasharray:2,3;stroke-miterlimit:10;" d="M 205.402344 41.828125 L 201.148438 38.507813 L 199.171875 34.808594 "/>
<path style="fill:none;stroke-width:1;stroke-linecap:round;stroke-linejoin:round;stroke:rgb(100%,100%,100%);stroke-opacity:1;stroke-dasharray:2,3;stroke-miterlimit:10;" d="M 198.761719 66.511719 L 199.730469 67.441406 L 200.613281 69.167969 L 201.289063 72.25 L 201.859375 76.117188 "/>
<path style="fill:none;stroke-width:1;stroke-linecap:round;stroke-linejoin:round;stroke:rgb(100%,100%,100%);stroke-opacity:1;stroke-dasharray:2,3;stroke-miterlimit:10;" d="M 194.789063 85.441406 L 198.304688 79.1875 L 199.917969 77.359375 L 201.859375 76.117188 "/>
<path style="fill:none;stroke-width:1;stroke-linecap:round;stroke-linejoin:round;stroke:rgb(100%,100%,100%);stroke-opacity:1;stroke-dasharray:2,3;stroke-miterlimit:10;" d="M 158.960938 166.074219 L 161.882813 167.535156 L 166.957031 170.304688 L 169.367188 171.664063 L 170.421875 170.1875 L 172.03125 167.582031 "/>
<path style="fill:none;stroke-width:1;stroke-linecap:round;stroke-linejoin:round;stroke:rgb(100%,100%,100%);stroke-opacity:1;stroke-dasharray:2,3;stroke-miterlimit:10;" d="M 178.019531 126.972656 L 180.070313 127.722656 L 183.972656 129.710938 L 188.171875 132.109375 L 190.511719 133.445313 L 191.371094 131.765625 L 192.445313 129.882813 "/>
<path style="fill:none;stroke-width:1;stroke-linecap:round;stroke-linejoin:round;stroke:rgb(100%,100%,100%);stroke-opacity:1;stroke-dasharray:2,3;stroke-miterlimit:10;" d="M 135.820313 203.972656 L 137.339844 204.992188 L 140.363281 206.75 L 145.082031 209.339844 L 147.117188 210.308594 L 148.636719 207.765625 L 149.769531 205.597656 "/>
<path style="fill:none;stroke-width:1;stroke-linecap:round;stroke-linejoin:round;stroke:rgb(100%,100%,100%);stroke-opacity:1;stroke-dasharray:2,3;stroke-miterlimit:10;" d="M 113.972656 242.253906 L 114.96875 242.816406 L 118.773438 245.308594 L 121.144531 246.675781 L 123.972656 248.109375 L 126.386719 249.394531 L 128.039063 246.476563 L 129.042969 244.875 "/>
<path style="fill:none;stroke-width:1;stroke-linecap:round;stroke-linejoin:round;stroke:rgb(100%,100%,100%);stroke-opacity:1;stroke-dasharray:2,3;stroke-miterlimit:10;" d="M 183.738281 105.761719 L 185.941406 101.710938 L 194.789063 85.441406 "/>
<path style="fill:none;stroke-width:1;stroke-linecap:round;stroke-linejoin:round;stroke:rgb(100%,100%,100%);stroke-opacity:1;stroke-dasharray:2,3;stroke-miterlimit:10;" d="M 194.789063 85.441406 L 196.757813 86.710938 L 198.546875 87.863281 L 200.277344 88.679688 L 204.375 90.957031 L 209.175781 93.707031 L 211.726563 95.195313 L 213.445313 92.425781 L 214.292969 90.726563 "/>
<path style="fill:none;stroke-width:1;stroke-linecap:round;stroke-linejoin:round;stroke:rgb(100%,100%,100%);stroke-opacity:1;stroke-dasharray:2,3;stroke-miterlimit:10;" d="M 202.996094 63.105469 L 205.757813 63.667969 L 208.621094 64.171875 L 212.527344 65.347656 L 218.464844 67.472656 L 222.152344 69.535156 L 224.792969 72.039063 L 223.550781 74.140625 L 222.976563 75.007813 "/>
<path style="fill:none;stroke-width:1;stroke-linecap:round;stroke-linejoin:round;stroke:rgb(100%,100%,100%);stroke-opacity:1;stroke-dasharray:2,3;stroke-miterlimit:10;" d="M 202.996094 63.105469 L 203.554688 61.597656 L 205.402344 41.828125 L 206.894531 27.363281 L 207.597656 24.140625 "/>
<path style="fill:none;stroke-width:1;stroke-linecap:round;stroke-linejoin:round;stroke:rgb(100%,100%,100%);stroke-opacity:1;stroke-dasharray:2,3;stroke-miterlimit:10;" d="M 202.996094 63.105469 L 201.171875 64.960938 L 199.699219 66.027344 L 198.761719 66.511719 L 197.507813 66.75 L 196.027344 66.804688 L 194.46875 66.714844 L 192.992188 66.46875 L 191.339844 65.777344 L 190.035156 64.820313 L 189.269531 63.941406 L 188.535156 62.902344 L 187.976563 61.75 L 187.511719 60.125 L 187.082031 57.085938 L 196.832031 39.113281 L 199.171875 34.808594 L 204.902344 24.746094 L 207.597656 24.140625 L 211.609375 20.546875 "/>
<path style="fill:none;stroke-width:8;stroke-linecap:round;stroke-linejoin:round;stroke:rgb(75.686275%,70.980392%,61.568627%);stroke-opacity:1;stroke-miterlimit:10;" d="M 204.171875 77.140625 L 204.839844 78.097656 L 205.964844 80.347656 "/>
<path style="fill:none;stroke-width:8;stroke-linecap:round;stroke-linejoin:round;stroke:rgb(75.686275%,70.980392%,61.568627%);stroke-opacity:1;stroke-miterlimit:10;" d="M 127.824219 212.691406 L 130.347656 211.101563 L 132.1875 209.46875 "/>
<path style="fill:none;stroke-width:8;stroke-linecap:round;stroke-linejoin:round;stroke:rgb(75.686275%,70.980392%,61.568627%);stroke-opacity:1;stroke-miterlimit:10;" d="M 116.25 238.152344 L 116.25 239.3125 L 117.015625 240.152344 L 120.492188 242.324219 "/>
<path style="fill:none;stroke-width:8;stroke-linecap:round;stroke-linejoin:round;stroke:rgb(75.686275%,70.980392%,61.568627%);stroke-opacity:1;stroke-miterlimit:10;" d="M 198.128906 74.851563 L 201.859375 76.117188 L 204.171875 77.140625 "/>
<path style="fill:none;stroke-width:8;stroke-linecap:round;stroke-linejoin:round;stroke:rgb(75.686275%,70.980392%,61.568627%);stroke-opacity:1;stroke-miterlimit:10;" d="M 156.78125 163.207031 L 157.855469 163.816406 L 159.601563 164.8125 L 162.574219 166.507813 "/>
<path style="fill:none;stroke-width:8;stroke-linecap:round;stroke-linejoin:round;stroke:rgb(75.686275%,70.980392%,61.568627%);stroke-opacity:1;stroke-miterlimit:10;" d="M 178.089844 124.667969 L 179.121094 125.195313 L 180.988281 126.046875 L 184.773438 128.109375 "/>
<path style="fill:none;stroke-width:8;stroke-linecap:round;stroke-linejoin:round;stroke:rgb(75.686275%,70.980392%,61.568627%);stroke-opacity:1;stroke-miterlimit:10;" d="M 193.542969 208.125 L 192.585938 209.894531 L 190.710938 213.222656 L 198.191406 217.4375 L 201.964844 219.445313 "/>
<path style="fill:none;stroke-width:8;stroke-linecap:round;stroke-linejoin:round;stroke:rgb(75.686275%,70.980392%,61.568627%);stroke-opacity:1;stroke-miterlimit:10;" d="M 207.089844 71.21875 L 204.171875 77.140625 L 200.910156 83.359375 L 198.546875 87.863281 "/>
<path style="fill:none;stroke-width:8;stroke-linecap:round;stroke-linejoin:round;stroke:rgb(75.686275%,70.980392%,61.568627%);stroke-opacity:1;stroke-miterlimit:10;" d="M 125.167969 221.539063 L 116.25 238.152344 "/>
<path style="fill:none;stroke-width:8;stroke-linecap:round;stroke-linejoin:round;stroke:rgb(75.686275%,70.980392%,61.568627%);stroke-opacity:1;stroke-miterlimit:10;" d="M 200.910156 83.359375 L 196.757813 86.710938 L 193.597656 91.332031 L 187.449219 102.53125 L 186.835938 103.644531 L 185.273438 106.777344 "/>
<path style="fill:none;stroke-width:8;stroke-linecap:round;stroke-linejoin:round;stroke:rgb(75.686275%,70.980392%,61.568627%);stroke-opacity:1;stroke-miterlimit:10;" d="M 184.765625 112.363281 L 178.089844 124.667969 L 156.78125 163.207031 L 135.828125 201.101563 L 132.1875 209.46875 L 130.226563 213.371094 L 125.167969 221.539063 "/>
<path style="fill:none;stroke-width:10;stroke-linecap:round;stroke-linejoin:round;stroke:rgb(86.666667%,62.352941%,6.666667%);stroke-opacity:1;stroke-miterlimit:10;" d="M 224.613281 49.785156 L 225.617188 40.171875 L 227.019531 36.773438 L 230.242188 30.804688 L 232.421875 26.773438 "/>
<path style="fill:none;stroke-width:10;stroke-linecap:round;stroke-linejoin:round;stroke:rgb(86.666667%,62.352941%,6.666667%);stroke-opacity:1;stroke-miterlimit:10;" d="M 211.820313 87.773438 L 219.964844 76.097656 L 221.417969 72.972656 L 222.152344 69.535156 L 224.613281 49.785156 "/>
<path style="fill:none;stroke-width:10;stroke-linecap:round;stroke-linejoin:round;stroke:rgb(72.941176%,43.137255%,15.294118%);stroke-opacity:1;stroke-miterlimit:10;" d="M 214.496094 44.183594 L 220.636719 47.308594 L 224.613281 49.785156 "/>
<path style="fill:none;stroke-width:10;stroke-linecap:round;stroke-linejoin:round;stroke:rgb(72.941176%,43.137255%,15.294118%);stroke-opacity:1;stroke-miterlimit:10;" d="M 224.492188 8.183594 L 218.019531 17.371094 L 213.621094 24.972656 "/>
<path style="fill:none;stroke-width:8;stroke-linecap:round;stroke-linejoin:round;stroke:rgb(75.686275%,70.980392%,61.568627%);stroke-opacity:1;stroke-miterlimit:10;" d="M 224.613281 49.785156 L 228.003906 51.628906 "/>
<path style="fill:none;stroke-width:8;stroke-linecap:round;stroke-linejoin:round;stroke:rgb(75.686275%,70.980392%,61.568627%);stroke-opacity:1;stroke-miterlimit:10;" d="M 208.089844 67.347656 L 207.089844 71.21875 "/>
<path style="fill:none;stroke-width:8;stroke-linecap:round;stroke-linejoin:round;stroke:rgb(75.686275%,70.980392%,61.568627%);stroke-opacity:1;stroke-miterlimit:10;" d="M 142.839844 212.847656 L 138.972656 209.226563 "/>
<path style="fill:none;stroke-width:8;stroke-linecap:round;stroke-linejoin:round;stroke:rgb(75.686275%,70.980392%,61.568627%);stroke-opacity:1;stroke-miterlimit:10;" d="M 141.867188 204.035156 L 146.589844 206.632813 "/>
<path style="fill:none;stroke-width:8;stroke-linecap:round;stroke-linejoin:round;stroke:rgb(75.686275%,70.980392%,61.568627%);stroke-opacity:1;stroke-miterlimit:10;" d="M 207.089844 71.21875 L 205.964844 80.347656 L 205.535156 85.558594 L 205.722656 87.578125 "/>
<path style="fill:none;stroke-width:8;stroke-linecap:round;stroke-linejoin:round;stroke:rgb(75.686275%,70.980392%,61.568627%);stroke-opacity:1;stroke-miterlimit:10;" d="M 228.003906 51.628906 L 254.226563 65.902344 "/>
<path style="fill:none;stroke-width:8;stroke-linecap:round;stroke-linejoin:round;stroke:rgb(75.686275%,70.980392%,61.568627%);stroke-opacity:1;stroke-miterlimit:10;" d="M 224.894531 22.386719 L 226.8125 20.675781 L 229.128906 18.5 L 238.253906 1.390625 L 243.992188 -9 "/>
<path style="fill:none;stroke-width:8;stroke-linecap:round;stroke-linejoin:round;stroke:rgb(75.686275%,70.980392%,61.568627%);stroke-opacity:1;stroke-miterlimit:10;" d="M 238.253906 1.390625 L 264 16.046875 "/>
<path style="fill:none;stroke-width:8;stroke-linecap:round;stroke-linejoin:round;stroke:rgb(75.686275%,70.980392%,61.568627%);stroke-opacity:1;stroke-miterlimit:10;" d="M 231.078125 -9 L 228.21875 -3.625 L 221.019531 8.773438 L 215.621094 18.972656 L 213.621094 24.972656 L 211.820313 32.371094 L 210.417969 42.371094 L 209.820313 50.773438 L 208.621094 64.171875 L 208.089844 67.347656 "/>
<path style="fill:none;stroke-width:8;stroke-linecap:round;stroke-linejoin:round;stroke:rgb(75.686275%,70.980392%,61.568627%);stroke-opacity:1;stroke-miterlimit:10;" d="M 204.523438 264 L 183.609375 252.351563 L 138.960938 227.398438 L 135.894531 225.683594 "/>
<path style="fill:none;stroke-width:8;stroke-linecap:round;stroke-linejoin:round;stroke:rgb(75.686275%,70.980392%,61.568627%);stroke-opacity:1;stroke-miterlimit:10;" d="M 146.589844 206.632813 L 148.636719 207.765625 L 194.332031 233.054688 L 241.191406 259.378906 L 249.605469 264 "/>
<path style="fill:none;stroke-width:8;stroke-linecap:round;stroke-linejoin:round;stroke:rgb(75.686275%,70.980392%,61.568627%);stroke-opacity:1;stroke-miterlimit:10;" d="M 264 196.332031 L 226.300781 175.394531 L 178.375 149.507813 L 173.714844 146.972656 "/>
<path style="fill:none;stroke-width:8;stroke-linecap:round;stroke-linejoin:round;stroke:rgb(75.686275%,70.980392%,61.568627%);stroke-opacity:1;stroke-miterlimit:10;" d="M 254.226563 65.902344 L 264 71.21875 "/>
<path style="fill:none;stroke-width:8;stroke-linecap:round;stroke-linejoin:round;stroke:rgb(75.686275%,70.980392%,61.568627%);stroke-opacity:1;stroke-miterlimit:10;" d="M 184.773438 128.109375 L 188.9375 130.417969 L 191.371094 131.765625 L 236.804688 156.945313 L 264 172.015625 "/>
<path style="fill:none;stroke-width:8;stroke-linecap:round;stroke-linejoin:round;stroke:rgb(75.686275%,70.980392%,61.568627%);stroke-opacity:1;stroke-miterlimit:10;" d="M 264 96.335938 L 223.550781 74.140625 L 221.417969 72.972656 L 217.714844 71.097656 L 212.214844 68.785156 L 208.089844 67.347656 "/>
<path style="fill:none;stroke-width:9;stroke-linecap:round;stroke-linejoin:round;stroke:rgb(75.686275%,70.980392%,61.568627%);stroke-opacity:1;stroke-miterlimit:10;" d="M 222.707031 181.804688 L 220.210938 186.253906 "/>
<path style="fill:none;stroke-width:9;stroke-linecap:round;stroke-linejoin:round;stroke:rgb(75.686275%,70.980392%,61.568627%);stroke-opacity:1;stroke-miterlimit:10;" d="M 201.050781 221.074219 L 198.371094 225.851563 "/>
<path style="fill:none;stroke-width:9;stroke-linecap:round;stroke-linejoin:round;stroke:rgb(75.686275%,70.980392%,61.568627%);stroke-opacity:1;stroke-miterlimit:10;" d="M 162.574219 166.507813 L 167.769531 168.953125 "/>
<path style="fill:none;stroke-width:9;stroke-linecap:round;stroke-linejoin:round;stroke:rgb(75.686275%,70.980392%,61.568627%);stroke-opacity:1;stroke-miterlimit:10;" d="M 205.722656 87.578125 L 210.910156 90.058594 "/>
<path style="fill:none;stroke-width:9;stroke-linecap:round;stroke-linejoin:round;stroke:rgb(75.686275%,70.980392%,61.568627%);stroke-opacity:1;stroke-miterlimit:10;" d="M 226.300781 175.394531 L 222.707031 181.804688 "/>
<path style="fill:none;stroke-width:9;stroke-linecap:round;stroke-linejoin:round;stroke:rgb(75.686275%,70.980392%,61.568627%);stroke-opacity:1;stroke-miterlimit:10;" d="M 204.800781 214.390625 L 201.964844 219.445313 L 201.050781 221.074219 "/>
<path style="fill:none;stroke-width:9;stroke-linecap:round;stroke-linejoin:round;stroke:rgb(75.686275%,70.980392%,61.568627%);stroke-opacity:1;stroke-miterlimit:10;" d="M 198.371094 225.851563 L 194.332031 233.054688 "/>
<path style="fill:none;stroke-width:9;stroke-linecap:round;stroke-linejoin:round;stroke:rgb(75.686275%,70.980392%,61.568627%);stroke-opacity:1;stroke-miterlimit:10;" d="M 258.402344 117.285156 L 253.632813 126.074219 "/>
<path style="fill:none;stroke-width:9;stroke-linecap:round;stroke-linejoin:round;stroke:rgb(75.686275%,70.980392%,61.568627%);stroke-opacity:1;stroke-miterlimit:10;" d="M 220.210938 186.253906 L 215.21875 195.15625 "/>
<path style="fill:none;stroke-width:9;stroke-linecap:round;stroke-linejoin:round;stroke:rgb(75.686275%,70.980392%,61.568627%);stroke-opacity:1;stroke-miterlimit:10;" d="M 242.410156 146.6875 L 236.804688 156.945313 "/>
<path style="fill:none;stroke-width:9;stroke-linecap:round;stroke-linejoin:round;stroke:rgb(75.686275%,70.980392%,61.568627%);stroke-opacity:1;stroke-miterlimit:10;" d="M 236.804688 156.945313 L 226.300781 175.394531 "/>
<path style="fill:none;stroke-width:9;stroke-linecap:round;stroke-linejoin:round;stroke:rgb(75.686275%,70.980392%,61.568627%);stroke-opacity:1;stroke-miterlimit:10;" d="M 215.21875 195.15625 L 204.800781 214.390625 "/>
<path style="fill:none;stroke-width:9;stroke-linecap:round;stroke-linejoin:round;stroke:rgb(75.686275%,70.980392%,61.568627%);stroke-opacity:1;stroke-miterlimit:10;" d="M 253.632813 126.074219 L 247.492188 137.382813 L 242.410156 146.6875 "/>
<path style="fill:none;stroke-width:9;stroke-linecap:round;stroke-linejoin:round;stroke:rgb(75.686275%,70.980392%,61.568627%);stroke-opacity:1;stroke-miterlimit:10;" d="M 210.910156 90.058594 L 213.445313 92.425781 L 255 115.40625 L 258.402344 117.285156 "/>
<path style="fill:none;stroke-width:9;stroke-linecap:round;stroke-linejoin:round;stroke:rgb(75.686275%,70.980392%,61.568627%);stroke-opacity:1;stroke-miterlimit:10;" d="M 194.332031 233.054688 L 183.609375 252.351563 L 176.679688 265 "/>
<path style="fill:none;stroke-width:9;stroke-linecap:round;stroke-linejoin:round;stroke:rgb(75.686275%,70.980392%,61.568627%);stroke-opacity:1;stroke-miterlimit:10;" d="M 120.492188 242.324219 L 125.589844 245.113281 L 128.039063 246.476563 L 161.257813 265 "/>
<path style="fill:none;stroke-width:9;stroke-linecap:round;stroke-linejoin:round;stroke:rgb(75.686275%,70.980392%,61.568627%);stroke-opacity:1;stroke-miterlimit:10;" d="M 265 147.066406 L 247.492188 137.382813 "/>
<path style="fill:none;stroke-width:9;stroke-linecap:round;stroke-linejoin:round;stroke:rgb(75.686275%,70.980392%,61.568627%);stroke-opacity:1;stroke-miterlimit:10;" d="M 167.769531 168.953125 L 170.421875 170.1875 L 215.21875 195.15625 L 261.742188 220.84375 L 265 222.644531 "/>
<path style="fill:none;stroke-width:9;stroke-linecap:round;stroke-linejoin:round;stroke:rgb(75.686275%,70.980392%,61.568627%);stroke-opacity:1;stroke-miterlimit:10;" d="M 265 247.738281 L 257.148438 243.386719 L 251.582031 240.304688 L 204.800781 214.390625 L 193.542969 208.125 L 156.824219 187.816406 L 152.046875 185.171875 "/>
<path style="fill:none;stroke-width:10;stroke-linecap:round;stroke-linejoin:round;stroke:rgb(75.686275%,70.980392%,61.568627%);stroke-opacity:1;stroke-miterlimit:10;" d="M 232.421875 26.773438 L 224.894531 22.386719 "/>
<path style="fill:none;stroke-width:10;stroke-linecap:round;stroke-linejoin:round;stroke:rgb(75.686275%,70.980392%,61.568627%);stroke-opacity:1;stroke-miterlimit:10;" d="M 266 45.398438 L 232.421875 26.773438 "/>
<path style="fill:none;stroke-width:11;stroke-linecap:round;stroke-linejoin:round;stroke:rgb(86.666667%,62.352941%,6.666667%);stroke-opacity:1;stroke-miterlimit:10;" d="M 205.722656 87.578125 L 204.375 90.957031 "/>
<path style="fill:none;stroke-width:11;stroke-linecap:round;stroke-linejoin:round;stroke:rgb(86.666667%,62.352941%,6.666667%);stroke-opacity:1;stroke-miterlimit:10;" d="M 211.820313 87.773438 L 214.25 82.371094 "/>
<path style="fill:none;stroke-width:11;stroke-linecap:round;stroke-linejoin:round;stroke:rgb(86.666667%,62.352941%,6.666667%);stroke-opacity:1;stroke-miterlimit:10;" d="M 141.867188 204.035156 L 140.363281 206.75 L 138.972656 209.226563 "/>
<path style="fill:none;stroke-width:11;stroke-linecap:round;stroke-linejoin:round;stroke:rgb(86.666667%,62.352941%,6.666667%);stroke-opacity:1;stroke-miterlimit:10;" d="M 152.046875 185.171875 L 148.597656 191.523438 "/>
<path style="fill:none;stroke-width:11;stroke-linecap:round;stroke-linejoin:round;stroke:rgb(86.666667%,62.352941%,6.666667%);stroke-opacity:1;stroke-miterlimit:10;" d="M 142.839844 212.847656 L 145.082031 209.339844 L 146.589844 206.632813 "/>
<path style="fill:none;stroke-width:11;stroke-linecap:round;stroke-linejoin:round;stroke:rgb(86.666667%,62.352941%,6.666667%);stroke-opacity:1;stroke-miterlimit:10;" d="M 139.734375 218.828125 L 142.839844 212.847656 L 145.082031 209.339844 "/>
<path style="fill:none;stroke-width:11;stroke-linecap:round;stroke-linejoin:round;stroke:rgb(86.666667%,62.352941%,6.666667%);stroke-opacity:1;stroke-miterlimit:10;" d="M 214.25 82.371094 L 214.695313 81.382813 L 217.714844 71.097656 "/>
<path style="fill:none;stroke-width:11;stroke-linecap:round;stroke-linejoin:round;stroke:rgb(86.666667%,62.352941%,6.666667%);stroke-opacity:1;stroke-miterlimit:10;" d="M 148.597656 191.523438 L 141.867188 204.035156 "/>
<path style="fill:none;stroke-width:11;stroke-linecap:round;stroke-linejoin:round;stroke:rgb(86.666667%,62.352941%,6.666667%);stroke-opacity:1;stroke-miterlimit:10;" d="M 169.847656 153.757813 L 162.574219 166.507813 "/>
<path style="fill:none;stroke-width:11;stroke-linecap:round;stroke-linejoin:round;stroke:rgb(86.666667%,62.352941%,6.666667%);stroke-opacity:1;stroke-miterlimit:10;" d="M 138.972656 209.226563 L 130.027344 225.175781 "/>
<path style="fill:none;stroke-width:11;stroke-linecap:round;stroke-linejoin:round;stroke:rgb(86.666667%,62.352941%,6.666667%);stroke-opacity:1;stroke-miterlimit:10;" d="M 130.027344 225.175781 L 120.492188 242.324219 "/>
<path style="fill:none;stroke-width:11;stroke-linecap:round;stroke-linejoin:round;stroke:rgb(86.666667%,62.352941%,6.666667%);stroke-opacity:1;stroke-miterlimit:10;" d="M 212.214844 68.785156 L 209.292969 79.382813 L 205.722656 87.578125 "/>
<path style="fill:none;stroke-width:11;stroke-linecap:round;stroke-linejoin:round;stroke:rgb(86.666667%,62.352941%,6.666667%);stroke-opacity:1;stroke-miterlimit:10;" d="M 204.375 90.957031 L 194.691406 109.3125 "/>
<path style="fill:none;stroke-width:11;stroke-linecap:round;stroke-linejoin:round;stroke:rgb(86.666667%,62.352941%,6.666667%);stroke-opacity:1;stroke-miterlimit:10;" d="M 194.691406 109.3125 L 184.773438 128.109375 "/>
<path style="fill:none;stroke-width:11;stroke-linecap:round;stroke-linejoin:round;stroke:rgb(86.666667%,62.352941%,6.666667%);stroke-opacity:1;stroke-miterlimit:10;" d="M 162.574219 166.507813 L 161.882813 167.535156 L 152.046875 185.171875 "/>
<path style="fill:none;stroke-width:11;stroke-linecap:round;stroke-linejoin:round;stroke:rgb(86.666667%,62.352941%,6.666667%);stroke-opacity:1;stroke-miterlimit:10;" d="M 184.773438 128.109375 L 183.972656 129.710938 L 173.714844 146.972656 L 169.847656 153.757813 "/>
<path style="fill:none;stroke-width:11;stroke-linecap:round;stroke-linejoin:round;stroke:rgb(86.666667%,62.352941%,6.666667%);stroke-opacity:1;stroke-miterlimit:10;" d="M 145.082031 209.339844 L 146.589844 206.632813 L 156.824219 187.816406 L 166.957031 170.304688 L 167.769531 168.953125 "/>
<path style="fill:none;stroke-width:11;stroke-linecap:round;stroke-linejoin:round;stroke:rgb(86.666667%,62.352941%,6.666667%);stroke-opacity:1;stroke-miterlimit:10;" d="M 217.714844 71.097656 L 218.464844 67.472656 L 220.636719 47.308594 L 221.09375 39.785156 L 222.492188 30.984375 L 224.894531 22.386719 "/>
<path style="fill:none;stroke-width:11;stroke-linecap:round;stroke-linejoin:round;stroke:rgb(86.666667%,62.352941%,6.666667%);stroke-opacity:1;stroke-miterlimit:10;" d="M 120.492188 242.324219 L 118.773438 245.308594 L 112.832031 256.289063 L 109.835938 261.425781 L 107.53125 264.960938 L 105.980469 267 "/>
<path style="fill:none;stroke-width:11;stroke-linecap:round;stroke-linejoin:round;stroke:rgb(86.666667%,62.352941%,6.666667%);stroke-opacity:1;stroke-miterlimit:10;" d="M 167.769531 168.953125 L 178.375 149.507813 L 188.171875 132.109375 L 188.9375 130.417969 L 209.175781 93.707031 L 210.910156 90.058594 L 211.820313 87.773438 "/>
<path style="fill:none;stroke-width:11;stroke-linecap:round;stroke-linejoin:round;stroke:rgb(86.666667%,62.352941%,6.666667%);stroke-opacity:1;stroke-miterlimit:10;" d="M 112.535156 267 L 114.546875 264.222656 L 118.972656 257.308594 L 123.972656 248.109375 L 125.589844 245.113281 L 135.894531 225.683594 L 139.734375 218.828125 "/>
<path style="fill:none;stroke-width:11;stroke-linecap:round;stroke-linejoin:round;stroke:rgb(72.941176%,43.137255%,15.294118%);stroke-opacity:1;stroke-miterlimit:10;" d="M 224.894531 22.386719 L 228.089844 12.597656 L 232.839844 3.097656 "/>
<path style="fill:none;stroke-width:11;stroke-linecap:round;stroke-linejoin:round;stroke:rgb(72.941176%,43.137255%,15.294118%);stroke-opacity:1;stroke-miterlimit:10;" d="M 214.496094 44.183594 L 212.527344 65.347656 L 212.214844 68.785156 "/>
<path style="fill:none;stroke-width:11;stroke-linecap:round;stroke-linejoin:round;stroke:rgb(72.941176%,43.137255%,15.294118%);stroke-opacity:1;stroke-miterlimit:10;" d="M 228.964844 -0.402344 L 224.492188 8.183594 L 220.09375 18.984375 L 216.894531 29.785156 L 215.492188 37.785156 L 214.496094 44.183594 "/>
<path style="fill:none;stroke-width:8;stroke-linecap:round;stroke-linejoin:round;stroke:rgb(75.686275%,70.980392%,61.568627%);stroke-opacity:1;stroke-miterlimit:10;" d="M 178.019531 122.125 L 175.15625 121.523438 L 172.527344 120.671875 L 171.570313 119.871094 "/>
<path style="fill:none;stroke-width:8;stroke-linecap:round;stroke-linejoin:round;stroke:rgb(75.686275%,70.980392%,61.568627%);stroke-opacity:1;stroke-miterlimit:10;" d="M 168.910156 120.753906 L 174.496094 123.328125 L 176.222656 125.359375 "/>
<path style="fill:none;stroke-width:8;stroke-linecap:round;stroke-linejoin:round;stroke:rgb(75.686275%,70.980392%,61.568627%);stroke-opacity:1;stroke-miterlimit:10;" d="M 168.910156 120.753906 L 170.757813 120.496094 L 171.570313 119.871094 L 170.6875 116.339844 L 109.90625 82.839844 L 108.542969 82.222656 L 106.597656 82.910156 L 106.082031 83.96875 L 106.480469 85.65625 L 107.746094 86.578125 L 168.910156 120.753906 "/>
<path style="fill:none;stroke-width:6;stroke-linecap:round;stroke-linejoin:round;stroke:rgb(100%,100%,100%);stroke-opacity:1;stroke-miterlimit:10;" d="M 204.171875 77.140625 L 204.839844 78.097656 L 205.964844 80.347656 "/>
<path style="fill:none;stroke-width:6;stroke-linecap:round;stroke-linejoin:round;stroke:rgb(100%,100%,100%);stroke-opacity:1;stroke-miterlimit:10;" d="M 127.824219 212.691406 L 130.347656 211.101563 L 132.1875 209.46875 "/>
<path style="fill:none;stroke-width:6;stroke-linecap:round;stroke-linejoin:round;stroke:rgb(100%,100%,100%);stroke-opacity:1;stroke-miterlimit:10;" d="M 116.25 238.152344 L 116.25 239.3125 L 117.015625 240.152344 L 120.492188 242.324219 "/>
<path style="fill:none;stroke-width:6;stroke-linecap:round;stroke-linejoin:round;stroke:rgb(100%,100%,100%);stroke-opacity:1;stroke-miterlimit:10;" d="M 198.128906 74.851563 L 201.859375 76.117188 L 204.171875 77.140625 "/>
<path style="fill:none;stroke-width:6;stroke-linecap:round;stroke-linejoin:round;stroke:rgb(100%,100%,100%);stroke-opacity:1;stroke-miterlimit:10;" d="M 156.78125 163.207031 L 157.855469 163.816406 L 159.601563 164.8125 L 162.574219 166.507813 "/>
<path style="fill:none;stroke-width:6;stroke-linecap:round;stroke-linejoin:round;stroke:rgb(100%,100%,100%);stroke-opacity:1;stroke-miterlimit:10;" d="M 178.089844 124.667969 L 179.121094 125.195313 L 180.988281 126.046875 L 184.773438 128.109375 "/>
<path style="fill:none;stroke-width:6;stroke-linecap:round;stroke-linejoin:round;stroke:rgb(100%,100%,100%);stroke-opacity:1;stroke-miterlimit:10;" d="M 193.542969 208.125 L 192.585938 209.894531 L 190.710938 213.222656 L 198.191406 217.4375 L 201.964844 219.445313 "/>
<path style="fill:none;stroke-width:6;stroke-linecap:round;stroke-linejoin:round;stroke:rgb(100%,100%,100%);stroke-opacity:1;stroke-miterlimit:10;" d="M 207.089844 71.21875 L 204.171875 77.140625 L 200.910156 83.359375 L 198.546875 87.863281 "/>
<path style="fill:none;stroke-width:6;stroke-linecap:round;stroke-linejoin:round;stroke:rgb(100%,100%,100%);stroke-opacity:1;stroke-miterlimit:10;" d="M 125.167969 221.539063 L 116.25 238.152344 "/>
<path style="fill:none;stroke-width:6;stroke-linecap:round;stroke-linejoin:round;stroke:rgb(100%,100%,100%);stroke-opacity:1;stroke-miterlimit:10;" d="M 200.910156 83.359375 L 196.757813 86.710938 L 193.597656 91.332031 L 187.449219 102.53125 L 186.835938 103.644531 L 185.273438 106.777344 "/>
<path style="fill:none;stroke-width:6;stroke-linecap:round;stroke-linejoin:round;stroke:rgb(100%,100%,100%);stroke-opacity:1;stroke-miterlimit:10;" d="M 184.765625 112.363281 L 178.089844 124.667969 L 156.78125 163.207031 L 135.828125 201.101563 L 132.1875 209.46875 L 130.226563 213.371094 L 125.167969 221.539063 "/>
<path style="fill:none;stroke-width:8;stroke-linecap:round;stroke-linejoin:round;stroke:rgb(100%,76.470588%,27.058824%);stroke-opacity:1;stroke-miterlimit:10;" d="M 224.613281 49.785156 L 225.617188 40.171875 L 227.019531 36.773438 L 230.242188 30.804688 L 232.421875 26.773438 "/>
<path style="fill:none;stroke-width:8;stroke-linecap:round;stroke-linejoin:round;stroke:rgb(100%,76.470588%,27.058824%);stroke-opacity:1;stroke-miterlimit:10;" d="M 211.820313 87.773438 L 219.964844 76.097656 L 221.417969 72.972656 L 222.152344 69.535156 L 224.613281 49.785156 "/>
<path style="fill:none;stroke-width:8;stroke-linecap:round;stroke-linejoin:round;stroke:rgb(99.215686%,57.254902%,22.745098%);stroke-opacity:1;stroke-miterlimit:10;" d="M 214.496094 44.183594 L 220.636719 47.308594 L 224.613281 49.785156 "/>
<path style="fill:none;stroke-width:8;stroke-linecap:round;stroke-linejoin:round;stroke:rgb(99.215686%,57.254902%,22.745098%);stroke-opacity:1;stroke-miterlimit:10;" d="M 224.492188 8.183594 L 218.019531 17.371094 L 213.621094 24.972656 "/>
<path style="fill:none;stroke-width:6;stroke-linecap:round;stroke-linejoin:round;stroke:rgb(100%,100%,100%);stroke-opacity:1;stroke-miterlimit:10;" d="M 224.613281 49.785156 L 228.003906 51.628906 "/>
<path style="fill:none;stroke-width:6;stroke-linecap:round;stroke-linejoin:round;stroke:rgb(100%,100%,100%);stroke-opacity:1;stroke-miterlimit:10;" d="M 208.089844 67.347656 L 207.089844 71.21875 "/>
<path style="fill:none;stroke-width:6;stroke-linecap:round;stroke-linejoin:round;stroke:rgb(100%,100%,100%);stroke-opacity:1;stroke-miterlimit:10;" d="M 142.839844 212.847656 L 138.972656 209.226563 "/>
<path style="fill:none;stroke-width:6;stroke-linecap:round;stroke-linejoin:round;stroke:rgb(100%,100%,100%);stroke-opacity:1;stroke-miterlimit:10;" d="M 141.867188 204.035156 L 146.589844 206.632813 "/>
<path style="fill:none;stroke-width:6;stroke-linecap:round;stroke-linejoin:round;stroke:rgb(100%,100%,100%);stroke-opacity:1;stroke-miterlimit:10;" d="M 207.089844 71.21875 L 205.964844 80.347656 L 205.535156 85.558594 L 205.722656 87.578125 "/>
<path style="fill:none;stroke-width:6;stroke-linecap:round;stroke-linejoin:round;stroke:rgb(100%,100%,100%);stroke-opacity:1;stroke-miterlimit:10;" d="M 228.003906 51.628906 L 254.226563 65.902344 "/>
<path style="fill:none;stroke-width:6;stroke-linecap:round;stroke-linejoin:round;stroke:rgb(100%,100%,100%);stroke-opacity:1;stroke-miterlimit:10;" d="M 224.894531 22.386719 L 226.8125 20.675781 L 229.128906 18.5 L 238.253906 1.390625 L 243.992188 -9 "/>
<path style="fill:none;stroke-width:6;stroke-linecap:round;stroke-linejoin:round;stroke:rgb(100%,100%,100%);stroke-opacity:1;stroke-miterlimit:10;" d="M 238.253906 1.390625 L 264 16.046875 "/>
<path style="fill:none;stroke-width:6;stroke-linecap:round;stroke-linejoin:round;stroke:rgb(100%,100%,100%);stroke-opacity:1;stroke-miterlimit:10;" d="M 231.078125 -9 L 228.21875 -3.625 L 221.019531 8.773438 L 215.621094 18.972656 L 213.621094 24.972656 L 211.820313 32.371094 L 210.417969 42.371094 L 209.820313 50.773438 L 208.621094 64.171875 L 208.089844 67.347656 "/>
<path style="fill:none;stroke-width:6;stroke-linecap:round;stroke-linejoin:round;stroke:rgb(100%,100%,100%);stroke-opacity:1;stroke-miterlimit:10;" d="M 204.523438 264 L 183.609375 252.351563 L 138.960938 227.398438 L 135.894531 225.683594 "/>
<path style="fill:none;stroke-width:6;stroke-linecap:round;stroke-linejoin:round;stroke:rgb(100%,100%,100%);stroke-opacity:1;stroke-miterlimit:10;" d="M 146.589844 206.632813 L 148.636719 207.765625 L 194.332031 233.054688 L 241.191406 259.378906 L 249.605469 264 "/>
<path style="fill:none;stroke-width:6;stroke-linecap:round;stroke-linejoin:round;stroke:rgb(100%,100%,100%);stroke-opacity:1;stroke-miterlimit:10;" d="M 264 196.332031 L 226.300781 175.394531 L 178.375 149.507813 L 173.714844 146.972656 "/>
<path style="fill:none;stroke-width:6;stroke-linecap:round;stroke-linejoin:round;stroke:rgb(100%,100%,100%);stroke-opacity:1;stroke-miterlimit:10;" d="M 254.226563 65.902344 L 264 71.21875 "/>
<path style="fill:none;stroke-width:6;stroke-linecap:round;stroke-linejoin:round;stroke:rgb(100%,100%,100%);stroke-opacity:1;stroke-miterlimit:10;" d="M 184.773438 128.109375 L 188.9375 130.417969 L 191.371094 131.765625 L 236.804688 156.945313 L 264 172.015625 "/>
<path style="fill:none;stroke-width:6;stroke-linecap:round;stroke-linejoin:round;stroke:rgb(100%,100%,100%);stroke-opacity:1;stroke-miterlimit:10;" d="M 264 96.335938 L 223.550781 74.140625 L 221.417969 72.972656 L 217.714844 71.097656 L 212.214844 68.785156 L 208.089844 67.347656 "/>
<path style="fill:none;stroke-width:7;stroke-linecap:round;stroke-linejoin:round;stroke:rgb(100%,99.215686%,54.509804%);stroke-opacity:1;stroke-miterlimit:10;" d="M 222.707031 181.804688 L 220.210938 186.253906 "/>
<path style="fill:none;stroke-width:7;stroke-linecap:round;stroke-linejoin:round;stroke:rgb(100%,99.215686%,54.509804%);stroke-opacity:1;stroke-miterlimit:10;" d="M 201.050781 221.074219 L 198.371094 225.851563 "/>
<path style="fill:none;stroke-width:7;stroke-linecap:round;stroke-linejoin:round;stroke:rgb(100%,99.215686%,54.509804%);stroke-opacity:1;stroke-miterlimit:10;" d="M 162.574219 166.507813 L 167.769531 168.953125 "/>
<path style="fill:none;stroke-width:7;stroke-linecap:round;stroke-linejoin:round;stroke:rgb(100%,99.215686%,54.509804%);stroke-opacity:1;stroke-miterlimit:10;" d="M 205.722656 87.578125 L 210.910156 90.058594 "/>
<path style="fill:none;stroke-width:7;stroke-linecap:round;stroke-linejoin:round;stroke:rgb(100%,99.215686%,54.509804%);stroke-opacity:1;stroke-miterlimit:10;" d="M 226.300781 175.394531 L 222.707031 181.804688 "/>
<path style="fill:none;stroke-width:7;stroke-linecap:round;stroke-linejoin:round;stroke:rgb(100%,99.215686%,54.509804%);stroke-opacity:1;stroke-miterlimit:10;" d="M 204.800781 214.390625 L 201.964844 219.445313 L 201.050781 221.074219 "/>
<path style="fill:none;stroke-width:7;stroke-linecap:round;stroke-linejoin:round;stroke:rgb(100%,99.215686%,54.509804%);stroke-opacity:1;stroke-miterlimit:10;" d="M 198.371094 225.851563 L 194.332031 233.054688 "/>
<path style="fill:none;stroke-width:7;stroke-linecap:round;stroke-linejoin:round;stroke:rgb(100%,99.215686%,54.509804%);stroke-opacity:1;stroke-miterlimit:10;" d="M 258.402344 117.285156 L 253.632813 126.074219 "/>
<path style="fill:none;stroke-width:7;stroke-linecap:round;stroke-linejoin:round;stroke:rgb(100%,99.215686%,54.509804%);stroke-opacity:1;stroke-miterlimit:10;" d="M 220.210938 186.253906 L 215.21875 195.15625 "/>
<path style="fill:none;stroke-width:7;stroke-linecap:round;stroke-linejoin:round;stroke:rgb(100%,99.215686%,54.509804%);stroke-opacity:1;stroke-miterlimit:10;" d="M 242.410156 146.6875 L 236.804688 156.945313 "/>
<path style="fill:none;stroke-width:7;stroke-linecap:round;stroke-linejoin:round;stroke:rgb(100%,99.215686%,54.509804%);stroke-opacity:1;stroke-miterlimit:10;" d="M 236.804688 156.945313 L 226.300781 175.394531 "/>
<path style="fill:none;stroke-width:7;stroke-linecap:round;stroke-linejoin:round;stroke:rgb(100%,99.215686%,54.509804%);stroke-opacity:1;stroke-miterlimit:10;" d="M 215.21875 195.15625 L 204.800781 214.390625 "/>
<path style="fill:none;stroke-width:7;stroke-linecap:round;stroke-linejoin:round;stroke:rgb(100%,99.215686%,54.509804%);stroke-opacity:1;stroke-miterlimit:10;" d="M 253.632813 126.074219 L 247.492188 137.382813 L 242.410156 146.6875 "/>
<path style="fill:none;stroke-width:7;stroke-linecap:round;stroke-linejoin:round;stroke:rgb(100%,99.215686%,54.509804%);stroke-opacity:1;stroke-miterlimit:10;" d="M 210.910156 90.058594 L 213.445313 92.425781 L 255 115.40625 L 258.402344 117.285156 "/>
<path style="fill:none;stroke-width:7;stroke-linecap:round;stroke-linejoin:round;stroke:rgb(100%,99.215686%,54.509804%);stroke-opacity:1;stroke-miterlimit:10;" d="M 194.332031 233.054688 L 183.609375 252.351563 L 176.679688 265 "/>
<path style="fill:none;stroke-width:7;stroke-linecap:round;stroke-linejoin:round;stroke:rgb(100%,99.215686%,54.509804%);stroke-opacity:1;stroke-miterlimit:10;" d="M 120.492188 242.324219 L 125.589844 245.113281 L 128.039063 246.476563 L 161.257813 265 "/>
<path style="fill:none;stroke-width:7;stroke-linecap:round;stroke-linejoin:round;stroke:rgb(100%,99.215686%,54.509804%);stroke-opacity:1;stroke-miterlimit:10;" d="M 265 147.066406 L 247.492188 137.382813 "/>
<path style="fill:none;stroke-width:7;stroke-linecap:round;stroke-linejoin:round;stroke:rgb(100%,99.215686%,54.509804%);stroke-opacity:1;stroke-miterlimit:10;" d="M 167.769531 168.953125 L 170.421875 170.1875 L 215.21875 195.15625 L 261.742188 220.84375 L 265 222.644531 "/>
<path style="fill:none;stroke-width:7;stroke-linecap:round;stroke-linejoin:round;stroke:rgb(100%,99.215686%,54.509804%);stroke-opacity:1;stroke-miterlimit:10;" d="M 265 247.738281 L 257.148438 243.386719 L 251.582031 240.304688 L 204.800781 214.390625 L 193.542969 208.125 L 156.824219 187.816406 L 152.046875 185.171875 "/>
<path style="fill:none;stroke-width:8;stroke-linecap:round;stroke-linejoin:round;stroke:rgb(100%,99.215686%,54.509804%);stroke-opacity:1;stroke-miterlimit:10;" d="M 232.421875 26.773438 L 224.894531 22.386719 "/>
<path style="fill:none;stroke-width:8;stroke-linecap:round;stroke-linejoin:round;stroke:rgb(100%,99.215686%,54.509804%);stroke-opacity:1;stroke-miterlimit:10;" d="M 266 45.398438 L 232.421875 26.773438 "/>
<path style="fill:none;stroke-width:9;stroke-linecap:round;stroke-linejoin:round;stroke:rgb(100%,76.470588%,27.058824%);stroke-opacity:1;stroke-miterlimit:10;" d="M 205.722656 87.578125 L 204.375 90.957031 "/>
<path style="fill:none;stroke-width:9;stroke-linecap:round;stroke-linejoin:round;stroke:rgb(100%,76.470588%,27.058824%);stroke-opacity:1;stroke-miterlimit:10;" d="M 211.820313 87.773438 L 214.25 82.371094 "/>
<path style="fill:none;stroke-width:9;stroke-linecap:round;stroke-linejoin:round;stroke:rgb(100%,76.470588%,27.058824%);stroke-opacity:1;stroke-miterlimit:10;" d="M 141.867188 204.035156 L 140.363281 206.75 L 138.972656 209.226563 "/>
<path style="fill:none;stroke-width:9;stroke-linecap:round;stroke-linejoin:round;stroke:rgb(100%,76.470588%,27.058824%);stroke-opacity:1;stroke-miterlimit:10;" d="M 152.046875 185.171875 L 148.597656 191.523438 "/>
<path style="fill:none;stroke-width:9;stroke-linecap:round;stroke-linejoin:round;stroke:rgb(100%,76.470588%,27.058824%);stroke-opacity:1;stroke-miterlimit:10;" d="M 142.839844 212.847656 L 145.082031 209.339844 L 146.589844 206.632813 "/>
<path style="fill:none;stroke-width:9;stroke-linecap:round;stroke-linejoin:round;stroke:rgb(100%,76.470588%,27.058824%);stroke-opacity:1;stroke-miterlimit:10;" d="M 139.734375 218.828125 L 142.839844 212.847656 L 145.082031 209.339844 "/>
<path style="fill:none;stroke-width:9;stroke-linecap:round;stroke-linejoin:round;stroke:rgb(100%,76.470588%,27.058824%);stroke-opacity:1;stroke-miterlimit:10;" d="M 214.25 82.371094 L 214.695313 81.382813 L 217.714844 71.097656 "/>
<path style="fill:none;stroke-width:9;stroke-linecap:round;stroke-linejoin:round;stroke:rgb(100%,76.470588%,27.058824%);stroke-opacity:1;stroke-miterlimit:10;" d="M 148.597656 191.523438 L 141.867188 204.035156 "/>
<path style="fill:none;stroke-width:9;stroke-linecap:round;stroke-linejoin:round;stroke:rgb(100%,76.470588%,27.058824%);stroke-opacity:1;stroke-miterlimit:10;" d="M 169.847656 153.757813 L 162.574219 166.507813 "/>
<path style="fill:none;stroke-width:9;stroke-linecap:round;stroke-linejoin:round;stroke:rgb(100%,76.470588%,27.058824%);stroke-opacity:1;stroke-miterlimit:10;" d="M 138.972656 209.226563 L 130.027344 225.175781 "/>
<path style="fill:none;stroke-width:9;stroke-linecap:round;stroke-linejoin:round;stroke:rgb(100%,76.470588%,27.058824%);stroke-opacity:1;stroke-miterlimit:10;" d="M 130.027344 225.175781 L 120.492188 242.324219 "/>
<path style="fill:none;stroke-width:9;stroke-linecap:round;stroke-linejoin:round;stroke:rgb(100%,76.470588%,27.058824%);stroke-opacity:1;stroke-miterlimit:10;" d="M 212.214844 68.785156 L 209.292969 79.382813 L 205.722656 87.578125 "/>
<path style="fill:none;stroke-width:9;stroke-linecap:round;stroke-linejoin:round;stroke:rgb(100%,76.470588%,27.058824%);stroke-opacity:1;stroke-miterlimit:10;" d="M 204.375 90.957031 L 194.691406 109.3125 "/>
<path style="fill:none;stroke-width:9;stroke-linecap:round;stroke-linejoin:round;stroke:rgb(100%,76.470588%,27.058824%);stroke-opacity:1;stroke-miterlimit:10;" d="M 194.691406 109.3125 L 184.773438 128.109375 "/>
<path style="fill:none;stroke-width:9;stroke-linecap:round;stroke-linejoin:round;stroke:rgb(100%,76.470588%,27.058824%);stroke-opacity:1;stroke-miterlimit:10;" d="M 162.574219 166.507813 L 161.882813 167.535156 L 152.046875 185.171875 "/>
<path style="fill:none;stroke-width:9;stroke-linecap:round;stroke-linejoin:round;stroke:rgb(100%,76.470588%,27.058824%);stroke-opacity:1;stroke-miterlimit:10;" d="M 184.773438 128.109375 L 183.972656 129.710938 L 173.714844 146.972656 L 169.847656 153.757813 "/>
<path style="fill:none;stroke-width:9;stroke-linecap:round;stroke-linejoin:round;stroke:rgb(100%,76.470588%,27.058824%);stroke-opacity:1;stroke-miterlimit:10;" d="M 145.082031 209.339844 L 146.589844 206.632813 L 156.824219 187.816406 L 166.957031 170.304688 L 167.769531 168.953125 "/>
<path style="fill:none;stroke-width:9;stroke-linecap:round;stroke-linejoin:round;stroke:rgb(100%,76.470588%,27.058824%);stroke-opacity:1;stroke-miterlimit:10;" d="M 217.714844 71.097656 L 218.464844 67.472656 L 220.636719 47.308594 L 221.09375 39.785156 L 222.492188 30.984375 L 224.894531 22.386719 "/>
<path style="fill:none;stroke-width:9;stroke-linecap:round;stroke-linejoin:round;stroke:rgb(100%,76.470588%,27.058824%);stroke-opacity:1;stroke-miterlimit:10;" d="M 120.492188 242.324219 L 118.773438 245.308594 L 112.832031 256.289063 L 109.835938 261.425781 L 107.53125 264.960938 L 105.980469 267 "/>
<path style="fill:none;stroke-width:9;stroke-linecap:round;stroke-linejoin:round;stroke:rgb(100%,76.470588%,27.058824%);stroke-opacity:1;stroke-miterlimit:10;" d="M 167.769531 168.953125 L 178.375 149.507813 L 188.171875 132.109375 L 188.9375 130.417969 L 209.175781 93.707031 L 210.910156 90.058594 L 211.820313 87.773438 "/>
<path style="fill:none;stroke-width:9;stroke-linecap:round;stroke-linejoin:round;stroke:rgb(100%,76.470588%,27.058824%);stroke-opacity:1;stroke-miterlimit:10;" d="M 112.535156 267 L 114.546875 264.222656 L 118.972656 257.308594 L 123.972656 248.109375 L 125.589844 245.113281 L 135.894531 225.683594 L 139.734375 218.828125 "/>
<path style="fill:none;stroke-width:9;stroke-linecap:round;stroke-linejoin:round;stroke:rgb(99.215686%,57.254902%,22.745098%);stroke-opacity:1;stroke-miterlimit:10;" d="M 224.894531 22.386719 L 228.089844 12.597656 L 232.839844 3.097656 "/>
<path style="fill:none;stroke-width:9;stroke-linecap:round;stroke-linejoin:round;stroke:rgb(99.215686%,57.254902%,22.745098%);stroke-opacity:1;stroke-miterlimit:10;" d="M 214.496094 44.183594 L 212.527344 65.347656 L 212.214844 68.785156 "/>
<path style="fill:none;stroke-width:9;stroke-linecap:round;stroke-linejoin:round;stroke:rgb(99.215686%,57.254902%,22.745098%);stroke-opacity:1;stroke-miterlimit:10;" d="M 228.964844 -0.402344 L 224.492188 8.183594 L 220.09375 18.984375 L 216.894531 29.785156 L 215.492188 37.785156 L 214.496094 44.183594 "/>
<path style="fill:none;stroke-width:5;stroke-linecap:butt;stroke-linejoin:round;stroke:rgb(53.333333%,53.333333%,53.333333%);stroke-opacity:1;stroke-miterlimit:10;" d="M 97.125 222.957031 L 96.5625 223.898438 "/>
<path style="fill:none;stroke-width:5;stroke-linecap:butt;stroke-linejoin:round;stroke:rgb(53.333333%,53.333333%,53.333333%);stroke-opacity:1;stroke-miterlimit:10;" d="M 87.878906 219.015625 L 88.445313 218.039063 "/>
<path style="fill:none;stroke-width:5;stroke-linecap:butt;stroke-linejoin:round;stroke:rgb(53.333333%,53.333333%,53.333333%);stroke-opacity:1;stroke-miterlimit:10;" d="M 126.550781 253.597656 L 112.480469 245.785156 L 104.371094 241.28125 "/>
<path style="fill:none;stroke-width:11;stroke-linecap:butt;stroke-linejoin:round;stroke:rgb(53.333333%,53.333333%,53.333333%);stroke-opacity:1;stroke-miterlimit:10;" d="M 232.839844 3.097656 L 240.25 -10 "/>
<path style="fill:none;stroke-width:6;stroke-linecap:round;stroke-linejoin:round;stroke:rgb(100%,100%,100%);stroke-opacity:1;stroke-miterlimit:10;" d="M 178.019531 122.125 L 175.15625 121.523438 L 172.527344 120.671875 L 171.570313 119.871094 "/>
<path style="fill:none;stroke-width:6;stroke-linecap:round;stroke-linejoin:round;stroke:rgb(100%,100%,100%);stroke-opacity:1;stroke-miterlimit:10;" d="M 168.910156 120.753906 L 174.496094 123.328125 L 176.222656 125.359375 "/>
<path style="fill:none;stroke-width:6;stroke-linecap:round;stroke-linejoin:round;stroke:rgb(100%,100%,100%);stroke-opacity:1;stroke-miterlimit:10;" d="M 168.910156 120.753906 L 170.757813 120.496094 L 171.570313 119.871094 L 170.6875 116.339844 L 109.90625 82.839844 L 108.542969 82.222656 L 106.597656 82.910156 L 106.082031 83.96875 L 106.480469 85.65625 L 107.746094 86.578125 L 168.910156 120.753906 "/>
<path style="fill:none;stroke-width:8;stroke-linecap:butt;stroke-linejoin:round;stroke:rgb(53.333333%,53.333333%,53.333333%);stroke-opacity:1;stroke-miterlimit:10;" d="M 198.546875 87.863281 L 189.179688 104.929688 L 184.765625 112.363281 "/>
<path style="fill:none;stroke-width:8;stroke-linecap:butt;stroke-linejoin:round;stroke:rgb(53.333333%,53.333333%,53.333333%);stroke-opacity:1;stroke-miterlimit:10;" d="M 184.765625 112.363281 L 184.054688 109.863281 L 183.496094 108.570313 L 182.261719 107.277344 L 180.785156 106.71875 L 179.203125 107.042969 L 177.910156 108.382813 L 177.65625 109.890625 L 178.0625 111.28125 L 180.074219 114.050781 L 180.570313 115.089844 L 180.722656 116.242188 L 178.351563 121.390625 L 176.222656 125.359375 L 155.535156 160.964844 L 154.585938 162.808594 L 134.582031 200.292969 L 133.332031 202.535156 L 127.101563 215.523438 L 126.285156 216.941406 L 125.53125 217.921875 L 124.585938 218.382813 L 123.511719 218.449219 L 122.378906 217.757813 L 121.855469 216.308594 L 122.1875 215.042969 L 123.96875 213.917969 L 126.144531 213.304688 L 127.824219 212.691406 "/>
<path style="fill:none;stroke-width:8;stroke-linecap:butt;stroke-linejoin:round;stroke:rgb(53.333333%,53.333333%,53.333333%);stroke-opacity:1;stroke-miterlimit:10;" d="M 134.582031 200.292969 L 129.859375 197.769531 L 128.699219 195.164063 L 64.367188 159.109375 L 62.699219 159.351563 L 61.617188 161.171875 L 62.21875 163.171875 L 133.332031 202.535156 "/>
<path style="fill:none;stroke-width:8;stroke-linecap:butt;stroke-linejoin:round;stroke:rgb(53.333333%,53.333333%,53.333333%);stroke-opacity:1;stroke-miterlimit:10;" d="M 155.535156 160.964844 L 151.519531 158.734375 L 151.089844 156.589844 L 149.042969 155.199219 L 86.417969 119.570313 L 84.417969 119.371094 L 82.421875 121.972656 L 83.019531 123.570313 L 154.585938 162.808594 "/>
<path style="fill:none;stroke-width:3;stroke-linecap:round;stroke-linejoin:round;stroke:rgb(98.039216%,98.039216%,96.078431%);stroke-opacity:1;stroke-miterlimit:10;" d="M 97.125 222.957031 L 96.5625 223.898438 "/>
<path style="fill:none;stroke-width:3;stroke-linecap:round;stroke-linejoin:round;stroke:rgb(98.039216%,98.039216%,96.078431%);stroke-opacity:1;stroke-miterlimit:10;" d="M 87.878906 219.015625 L 88.445313 218.039063 "/>
<path style="fill:none;stroke-width:3;stroke-linecap:round;stroke-linejoin:round;stroke:rgb(98.039216%,98.039216%,96.078431%);stroke-opacity:1;stroke-miterlimit:10;" d="M 126.550781 253.597656 L 112.480469 245.785156 L 104.371094 241.28125 "/>
<path style="fill:none;stroke-width:9;stroke-linecap:round;stroke-linejoin:round;stroke:rgb(99.215686%,57.254902%,22.745098%);stroke-opacity:1;stroke-miterlimit:10;" d="M 232.839844 3.097656 L 240.25 -10 "/>
<path style="fill:none;stroke-width:6;stroke-linecap:round;stroke-linejoin:round;stroke:rgb(100%,100%,100%);stroke-opacity:1;stroke-miterlimit:10;" d="M 198.546875 87.863281 L 189.179688 104.929688 L 184.765625 112.363281 "/>
<path style="fill:none;stroke-width:6;stroke-linecap:round;stroke-linejoin:round;stroke:rgb(100%,100%,100%);stroke-opacity:1;stroke-miterlimit:10;" d="M 184.765625 112.363281 L 184.054688 109.863281 L 183.496094 108.570313 L 182.261719 107.277344 L 180.785156 106.71875 L 179.203125 107.042969 L 177.910156 108.382813 L 177.65625 109.890625 L 178.0625 111.28125 L 180.074219 114.050781 L 180.570313 115.089844 L 180.722656 116.242188 L 178.351563 121.390625 L 176.222656 125.359375 L 155.535156 160.964844 L 154.585938 162.808594 L 134.582031 200.292969 L 133.332031 202.535156 L 127.101563 215.523438 L 126.285156 216.941406 L 125.53125 217.921875 L 124.585938 218.382813 L 123.511719 218.449219 L 122.378906 217.757813 L 121.855469 216.308594 L 122.1875 215.042969 L 123.96875 213.917969 L 126.144531 213.304688 L 127.824219 212.691406 "/>
<path style="fill:none;stroke-width:6;stroke-linecap:round;stroke-linejoin:round;stroke:rgb(100%,100%,100%);stroke-opacity:1;stroke-miterlimit:10;" d="M 134.582031 200.292969 L 129.859375 197.769531 L 128.699219 195.164063 L 64.367188 159.109375 L 62.699219 159.351563 L 61.617188 161.171875 L 62.21875 163.171875 L 133.332031 202.535156 "/>
<path style="fill:none;stroke-width:6;stroke-linecap:round;stroke-linejoin:round;stroke:rgb(100%,100%,100%);stroke-opacity:1;stroke-miterlimit:10;" d="M 155.535156 160.964844 L 151.519531 158.734375 L 151.089844 156.589844 L 149.042969 155.199219 L 86.417969 119.570313 L 84.417969 119.371094 L 82.421875 121.972656 L 83.019531 123.570313 L 154.585938 162.808594 "/>
<path style="fill:none;stroke-width:3;stroke-linecap:round;stroke-linejoin:round;stroke:rgb(100%,100%,100%);stroke-opacity:1;stroke-miterlimit:10;" d="M 207.5625 109.625 L 207.5625 115.859375 L 208.734375 115.859375 C 209.734375 115.859375 210.460938 115.609375 210.921875 115.109375 C 211.390625 114.609375 211.625 113.820313 211.625 112.734375 C 211.625 111.664063 211.390625 110.875 210.921875 110.375 C 210.460938 109.875 209.734375 109.625 208.734375 109.625 Z M 206.578125 108.734375 L 208.578125 108.734375 C 209.984375 108.734375 211.007813 109.058594 211.65625 109.703125 C 212.3125 110.351563 212.640625 111.359375 212.640625 112.734375 C 212.640625 114.121094 212.3125 115.136719 211.65625 115.78125 C 211 116.429688 209.972656 116.75 208.578125 116.75 L 206.578125 116.75 Z M 218.796875 113.5 L 218.796875 113.984375 L 214.703125 113.984375 C 214.742188 114.664063 214.929688 115.179688 215.265625 115.53125 C 215.597656 115.886719 216.054688 116.0625 216.640625 116.0625 C 216.984375 116.0625 217.3125 116.015625 217.625 115.921875 C 217.945313 115.828125 218.269531 115.695313 218.59375 115.515625 L 218.59375 116.4375 C 218.269531 116.59375 217.941406 116.710938 217.609375 116.78125 C 217.273438 116.863281 216.9375 116.90625 216.59375 116.90625 C 215.726563 116.90625 215.039063 116.632813 214.53125 116.078125 C 214.03125 115.515625 213.78125 114.757813 213.78125 113.796875 C 213.78125 112.820313 214.019531 112.042969 214.5 111.46875 C 214.976563 110.886719 215.625 110.59375 216.4375 110.59375 C 217.164063 110.59375 217.738281 110.855469 218.15625 111.375 C 218.582031 111.898438 218.796875 112.605469 218.796875 113.5 Z M 217.90625 113.203125 C 217.894531 112.664063 217.757813 112.230469 217.5 111.90625 C 217.238281 111.585938 216.890625 111.421875 216.453125 111.421875 C 215.953125 111.421875 215.550781 111.578125 215.25 111.890625 C 214.945313 112.203125 214.773438 112.640625 214.734375 113.203125 Z M 219.65625 108.734375 L 220.640625 108.734375 L 222.15625 115.515625 L 223.671875 108.734375 L 224.765625 108.734375 L 226.296875 115.515625 L 227.796875 108.734375 L 228.796875 108.734375 L 226.984375 116.75 L 225.75 116.75 L 224.234375 109.78125 L 222.6875 116.75 L 221.46875 116.75 Z M 230.046875 110.734375 L 230.9375 110.734375 L 230.9375 116.75 L 230.046875 116.75 Z M 230.046875 108.390625 L 230.9375 108.390625 L 230.9375 109.640625 L 230.046875 109.640625 Z M 233.671875 109.03125 L 233.671875 110.734375 L 235.5 110.734375 L 235.5 111.5 L 233.671875 111.5 L 233.671875 114.765625 C 233.671875 115.257813 233.726563 115.574219 233.84375 115.71875 C 233.96875 115.855469 234.21875 115.921875 234.59375 115.921875 L 235.5 115.921875 L 235.5 116.75 L 234.59375 116.75 C 233.90625 116.75 233.429688 116.609375 233.171875 116.328125 C 232.910156 116.039063 232.78125 115.515625 232.78125 114.765625 L 232.78125 111.5 L 232.125 111.5 L 232.125 110.734375 L 232.78125 110.734375 L 232.78125 109.03125 Z M 237.546875 109.03125 L 237.546875 110.734375 L 239.375 110.734375 L 239.375 111.5 L 237.546875 111.5 L 237.546875 114.765625 C 237.546875 115.257813 237.601563 115.574219 237.71875 115.71875 C 237.84375 115.855469 238.09375 115.921875 238.46875 115.921875 L 239.375 115.921875 L 239.375 116.75 L 238.46875 116.75 C 237.78125 116.75 237.304688 116.609375 237.046875 116.328125 C 236.785156 116.039063 236.65625 115.515625 236.65625 114.765625 L 236.65625 111.5 L 236 111.5 L 236 110.734375 L 236.65625 110.734375 L 236.65625 109.03125 Z M 211.984375 120.34375 L 211.984375 121.5 C 211.648438 121.15625 211.296875 120.902344 210.921875 120.734375 C 210.554688 120.570313 210.164063 120.484375 209.75 120.484375 C 208.925781 120.484375 208.289063 120.765625 207.84375 121.328125 C 207.40625 121.882813 207.1875 122.6875 207.1875 123.75 C 207.1875 124.804688 207.40625 125.609375 207.84375 126.171875 C 208.289063 126.734375 208.925781 127.015625 209.75 127.015625 C 210.164063 127.015625 210.554688 126.933594 210.921875 126.765625 C 211.296875 126.601563 211.648438 126.34375 211.984375 126 L 211.984375 127.125 C 211.640625 127.386719 211.273438 127.585938 210.890625 127.71875 C 210.515625 127.84375 210.113281 127.90625 209.6875 127.90625 C 208.59375 127.90625 207.734375 127.539063 207.109375 126.796875 C 206.484375 126.046875 206.171875 125.03125 206.171875 123.75 C 206.171875 122.460938 206.484375 121.445313 207.109375 120.703125 C 207.734375 119.953125 208.59375 119.578125 209.6875 119.578125 C 210.125 119.578125 210.53125 119.648438 210.90625 119.78125 C 211.289063 119.90625 211.648438 120.09375 211.984375 120.34375 Z M 213.453125 119.390625 L 214.34375 119.390625 L 214.34375 127.75 L 213.453125 127.75 Z M 216.203125 121.734375 L 217.09375 121.734375 L 217.09375 127.75 L 216.203125 127.75 Z M 216.203125 119.390625 L 217.09375 119.390625 L 217.09375 120.640625 L 216.203125 120.640625 Z M 223.453125 124.125 L 223.453125 127.75 L 222.5625 127.75 L 222.5625 124.15625 C 222.5625 123.585938 222.457031 123.15625 222.25 122.875 C 222.050781 122.59375 221.753906 122.453125 221.359375 122.453125 C 220.878906 122.453125 220.5 122.625 220.21875 122.96875 C 219.945313 123.304688 219.8125 123.761719 219.8125 124.34375 L 219.8125 127.75 L 218.90625 127.75 L 218.90625 121.734375 L 219.8125 121.734375 L 219.8125 122.671875 C 220.019531 122.308594 220.265625 122.039063 220.546875 121.859375 C 220.835938 121.683594 221.175781 121.59375 221.5625 121.59375 C 222.175781 121.59375 222.644531 121.808594 222.96875 122.234375 C 223.289063 122.664063 223.453125 123.292969 223.453125 124.125 Z M 226.109375 120.03125 L 226.109375 121.734375 L 227.9375 121.734375 L 227.9375 122.5 L 226.109375 122.5 L 226.109375 125.765625 C 226.109375 126.257813 226.164063 126.574219 226.28125 126.71875 C 226.40625 126.855469 226.65625 126.921875 227.03125 126.921875 L 227.9375 126.921875 L 227.9375 127.75 L 227.03125 127.75 C 226.34375 127.75 225.867188 127.609375 225.609375 127.328125 C 225.347656 127.039063 225.21875 126.515625 225.21875 125.765625 L 225.21875 122.5 L 224.5625 122.5 L 224.5625 121.734375 L 225.21875 121.734375 L 225.21875 120.03125 Z M 231.203125 122.421875 C 230.722656 122.421875 230.34375 122.632813 230.0625 123.046875 C 229.789063 123.464844 229.65625 124.03125 229.65625 124.75 C 229.65625 125.46875 229.789063 126.039063 230.0625 126.453125 C 230.34375 126.859375 230.722656 127.0625 231.203125 127.0625 C 231.679688 127.0625 232.054688 126.859375 232.328125 126.453125 C 232.609375 126.039063 232.75 125.46875 232.75 124.75 C 232.75 124.03125 232.609375 123.464844 232.328125 123.046875 C 232.054688 122.632813 231.679688 122.421875 231.203125 122.421875 Z M 231.203125 121.59375 C 231.972656 121.59375 232.578125 121.875 233.015625 122.4375 C 233.460938 122.992188 233.6875 123.761719 233.6875 124.75 C 233.6875 125.730469 233.460938 126.5 233.015625 127.0625 C 232.578125 127.625 231.972656 127.90625 231.203125 127.90625 C 230.421875 127.90625 229.8125 127.625 229.375 127.0625 C 228.9375 126.5 228.71875 125.730469 228.71875 124.75 C 228.71875 123.761719 228.9375 122.992188 229.375 122.4375 C 229.8125 121.875 230.421875 121.59375 231.203125 121.59375 Z M 239.65625 124.125 L 239.65625 127.75 L 238.765625 127.75 L 238.765625 124.15625 C 238.765625 123.585938 238.660156 123.15625 238.453125 122.875 C 238.253906 122.59375 237.957031 122.453125 237.5625 122.453125 C 237.082031 122.453125 236.703125 122.625 236.421875 122.96875 C 236.148438 123.304688 236.015625 123.761719 236.015625 124.34375 L 236.015625 127.75 L 235.109375 127.75 L 235.109375 121.734375 L 236.015625 121.734375 L 236.015625 122.671875 C 236.222656 122.308594 236.46875 122.039063 236.75 121.859375 C 237.039063 121.683594 237.378906 121.59375 237.765625 121.59375 C 238.378906 121.59375 238.847656 121.808594 239.171875 122.234375 C 239.492188 122.664063 239.65625 123.292969 239.65625 124.125 Z M 214.0625 131.625 L 214.0625 134.640625 L 215.28125 134.640625 C 215.738281 134.640625 216.09375 134.511719 216.34375 134.25 C 216.59375 133.980469 216.71875 133.605469 216.71875 133.125 C 216.71875 132.648438 216.59375 132.277344 216.34375 132.015625 C 216.09375 131.757813 215.738281 131.625 215.28125 131.625 Z M 213.078125 130.734375 L 215.28125 130.734375 C 216.09375 130.734375 216.703125 130.9375 217.109375 131.34375 C 217.523438 131.75 217.734375 132.34375 217.734375 133.125 C 217.734375 133.917969 217.523438 134.515625 217.109375 134.921875 C 216.703125 135.328125 216.09375 135.53125 215.28125 135.53125 L 214.0625 135.53125 L 214.0625 138.75 L 213.078125 138.75 Z M 221.46875 135.71875 C 220.75 135.71875 220.25 135.8125 219.96875 136 C 219.695313 136.1875 219.5625 136.5 219.5625 136.9375 C 219.5625 137.28125 219.664063 137.558594 219.875 137.765625 C 220.082031 137.976563 220.363281 138.078125 220.71875 138.078125 C 221.21875 138.078125 221.613281 137.886719 221.90625 137.5 C 222.207031 137.105469 222.359375 136.589844 222.359375 135.953125 L 222.359375 135.71875 Z M 223.25 135.3125 L 223.25 138.75 L 222.359375 138.75 L 222.359375 137.84375 C 222.148438 138.210938 221.894531 138.480469 221.59375 138.65625 C 221.289063 138.820313 220.921875 138.90625 220.484375 138.90625 C 219.929688 138.90625 219.488281 138.734375 219.15625 138.390625 C 218.832031 138.046875 218.671875 137.585938 218.671875 137 C 218.671875 136.324219 218.875 135.8125 219.28125 135.46875 C 219.6875 135.125 220.296875 134.953125 221.109375 134.953125 L 222.359375 134.953125 L 222.359375 134.859375 C 222.359375 134.402344 222.222656 134.046875 221.953125 133.796875 C 221.679688 133.546875 221.300781 133.421875 220.8125 133.421875 C 220.507813 133.421875 220.207031 133.464844 219.90625 133.546875 C 219.613281 133.632813 219.332031 133.757813 219.0625 133.921875 L 219.0625 133.015625 C 219.394531 132.871094 219.710938 132.765625 220.015625 132.703125 C 220.316406 132.632813 220.613281 132.59375 220.90625 132.59375 C 221.6875 132.59375 222.269531 132.820313 222.65625 133.265625 C 223.050781 133.714844 223.25 134.398438 223.25 135.3125 Z M 228.21875 133.65625 C 228.113281 133.59375 228 133.546875 227.875 133.515625 C 227.757813 133.484375 227.632813 133.46875 227.5 133.46875 C 226.988281 133.46875 226.597656 133.652344 226.328125 134.015625 C 226.066406 134.382813 225.9375 134.902344 225.9375 135.578125 L 225.9375 138.75 L 225.03125 138.75 L 225.03125 132.734375 L 225.9375 132.734375 L 225.9375 133.671875 C 226.125 133.308594 226.363281 133.039063 226.65625 132.859375 C 226.957031 132.683594 227.320313 132.59375 227.75 132.59375 C 227.8125 132.59375 227.878906 132.601563 227.953125 132.609375 C 228.035156 132.609375 228.117188 132.621094 228.203125 132.640625 Z M 229.09375 130.390625 L 230 130.390625 L 230 135.328125 L 232.65625 132.734375 L 233.796875 132.734375 L 230.921875 135.546875 L 233.90625 138.75 L 232.75 138.75 L 230 135.8125 L 230 138.75 L 229.09375 138.75 Z M 229.09375 130.390625 "/>
<path style=" stroke:none;fill-rule:evenodd;fill:rgb(0%,0%,0%);fill-opacity:1;" d="M 207.5625 109.625 L 207.5625 115.859375 L 208.734375 115.859375 C 209.734375 115.859375 210.460938 115.609375 210.921875 115.109375 C 211.390625 114.609375 211.625 113.820313 211.625 112.734375 C 211.625 111.664063 211.390625 110.875 210.921875 110.375 C 210.460938 109.875 209.734375 109.625 208.734375 109.625 Z M 206.578125 108.734375 L 208.578125 108.734375 C 209.984375 108.734375 211.007813 109.058594 211.65625 109.703125 C 212.3125 110.351563 212.640625 111.359375 212.640625 112.734375 C 212.640625 114.121094 212.3125 115.136719 211.65625 115.78125 C 211 116.429688 209.972656 116.75 208.578125 116.75 L 206.578125 116.75 Z M 218.796875 113.5 L 218.796875 113.984375 L 214.703125 113.984375 C 214.742188 114.664063 214.929688 115.179688 215.265625 115.53125 C 215.597656 115.886719 216.054688 116.0625 216.640625 116.0625 C 216.984375 116.0625 217.3125 116.015625 217.625 115.921875 C 217.945313 115.828125 218.269531 115.695313 218.59375 115.515625 L 218.59375 116.4375 C 218.269531 116.59375 217.941406 116.710938 217.609375 116.78125 C 217.273438 116.863281 216.9375 116.90625 216.59375 116.90625 C 215.726563 116.90625 215.039063 116.632813 214.53125 116.078125 C 214.03125 115.515625 213.78125 114.757813 213.78125 113.796875 C 213.78125 112.820313 214.019531 112.042969 214.5 111.46875 C 214.976563 110.886719 215.625 110.59375 216.4375 110.59375 C 217.164063 110.59375 217.738281 110.855469 218.15625 111.375 C 218.582031 111.898438 218.796875 112.605469 218.796875 113.5 Z M 217.90625 113.203125 C 217.894531 112.664063 217.757813 112.230469 217.5 111.90625 C 217.238281 111.585938 216.890625 111.421875 216.453125 111.421875 C 215.953125 111.421875 215.550781 111.578125 215.25 111.890625 C 214.945313 112.203125 214.773438 112.640625 214.734375 113.203125 Z M 219.65625 108.734375 L 220.640625 108.734375 L 222.15625 115.515625 L 223.671875 108.734375 L 224.765625 108.734375 L 226.296875 115.515625 L 227.796875 108.734375 L 228.796875 108.734375 L 226.984375 116.75 L 225.75 116.75 L 224.234375 109.78125 L 222.6875 116.75 L 221.46875 116.75 Z M 230.046875 110.734375 L 230.9375 110.734375 L 230.9375 116.75 L 230.046875 116.75 Z M 230.046875 108.390625 L 230.9375 108.390625 L 230.9375 109.640625 L 230.046875 109.640625 Z M 233.671875 109.03125 L 233.671875 110.734375 L 235.5 110.734375 L 235.5 111.5 L 233.671875 111.5 L 233.671875 114.765625 C 233.671875 115.257813 233.726563 115.574219 233.84375 115.71875 C 233.96875 115.855469 234.21875 115.921875 234.59375 115.921875 L 235.5 115.921875 L 235.5 116.75 L 234.59375 116.75 C 233.90625 116.75 233.429688 116.609375 233.171875 116.328125 C 232.910156 116.039063 232.78125 115.515625 232.78125 114.765625 L 232.78125 111.5 L 232.125 111.5 L 232.125 110.734375 L 232.78125 110.734375 L 232.78125 109.03125 Z M 237.546875 109.03125 L 237.546875 110.734375 L 239.375 110.734375 L 239.375 111.5 L 237.546875 111.5 L 237.546875 114.765625 C 237.546875 115.257813 237.601563 115.574219 237.71875 115.71875 C 237.84375 115.855469 238.09375 115.921875 238.46875 115.921875 L 239.375 115.921875 L 239.375 116.75 L 238.46875 116.75 C 237.78125 116.75 237.304688 116.609375 237.046875 116.328125 C 236.785156 116.039063 236.65625 115.515625 236.65625 114.765625 L 236.65625 111.5 L 236 111.5 L 236 110.734375 L 236.65625 110.734375 L 236.65625 109.03125 Z M 211.984375 120.34375 L 211.984375 121.5 C 211.648438 121.15625 211.296875 120.902344 210.921875 120.734375 C 210.554688 120.570313 210.164063 120.484375 209.75 120.484375 C 208.925781 120.484375 208.289063 120.765625 207.84375 121.328125 C 207.40625 121.882813 207.1875 122.6875 207.1875 123.75 C 207.1875 124.804688 207.40625 125.609375 207.84375 126.171875 C 208.289063 126.734375 208.925781 127.015625 209.75 127.015625 C 210.164063 127.015625 210.554688 126.933594 210.921875 126.765625 C 211.296875 126.601563 211.648438 126.34375 211.984375 126 L 211.984375 127.125 C 211.640625 127.386719 211.273438 127.585938 210.890625 127.71875 C 210.515625 127.84375 210.113281 127.90625 209.6875 127.90625 C 208.59375 127.90625 207.734375 127.539063 207.109375 126.796875 C 206.484375 126.046875 206.171875 125.03125 206.171875 123.75 C 206.171875 122.460938 206.484375 121.445313 207.109375 120.703125 C 207.734375 119.953125 208.59375 119.578125 209.6875 119.578125 C 210.125 119.578125 210.53125 119.648438 210.90625 119.78125 C 211.289063 119.90625 211.648438 120.09375 211.984375 120.34375 Z M 213.453125 119.390625 L 214.34375 119.390625 L 214.34375 127.75 L 213.453125 127.75 Z M 216.203125 121.734375 L 217.09375 121.734375 L 217.09375 127.75 L 216.203125 127.75 Z M 216.203125 119.390625 L 217.09375 119.390625 L 217.09375 120.640625 L 216.203125 120.640625 Z M 223.453125 124.125 L 223.453125 127.75 L 222.5625 127.75 L 222.5625 124.15625 C 222.5625 123.585938 222.457031 123.15625 222.25 122.875 C 222.050781 122.59375 221.753906 122.453125 221.359375 122.453125 C 220.878906 122.453125 220.5 122.625 220.21875 122.96875 C 219.945313 123.304688 219.8125 123.761719 219.8125 124.34375 L 219.8125 127.75 L 218.90625 127.75 L 218.90625 121.734375 L 219.8125 121.734375 L 219.8125 122.671875 C 220.019531 122.308594 220.265625 122.039063 220.546875 121.859375 C 220.835938 121.683594 221.175781 121.59375 221.5625 121.59375 C 222.175781 121.59375 222.644531 121.808594 222.96875 122.234375 C 223.289063 122.664063 223.453125 123.292969 223.453125 124.125 Z M 226.109375 120.03125 L 226.109375 121.734375 L 227.9375 121.734375 L 227.9375 122.5 L 226.109375 122.5 L 226.109375 125.765625 C 226.109375 126.257813 226.164063 126.574219 226.28125 126.71875 C 226.40625 126.855469 226.65625 126.921875 227.03125 126.921875 L 227.9375 126.921875 L 227.9375 127.75 L 227.03125 127.75 C 226.34375 127.75 225.867188 127.609375 225.609375 127.328125 C 225.347656 127.039063 225.21875 126.515625 225.21875 125.765625 L 225.21875 122.5 L 224.5625 122.5 L 224.5625 121.734375 L 225.21875 121.734375 L 225.21875 120.03125 Z M 231.203125 122.421875 C 230.722656 122.421875 230.34375 122.632813 230.0625 123.046875 C 229.789063 123.464844 229.65625 124.03125 229.65625 124.75 C 229.65625 125.46875 229.789063 126.039063 230.0625 126.453125 C 230.34375 126.859375 230.722656 127.0625 231.203125 127.0625 C 231.679688 127.0625 232.054688 126.859375 232.328125 126.453125 C 232.609375 126.039063 232.75 125.46875 232.75 124.75 C 232.75 124.03125 232.609375 123.464844 232.328125 123.046875 C 232.054688 122.632813 231.679688 122.421875 231.203125 122.421875 Z M 231.203125 121.59375 C 231.972656 121.59375 232.578125 121.875 233.015625 122.4375 C 233.460938 122.992188 233.6875 123.761719 233.6875 124.75 C 233.6875 125.730469 233.460938 126.5 233.015625 127.0625 C 232.578125 127.625 231.972656 127.90625 231.203125 127.90625 C 230.421875 127.90625 229.8125 127.625 229.375 127.0625 C 228.9375 126.5 228.71875 125.730469 228.71875 124.75 C 228.71875 123.761719 228.9375 122.992188 229.375 122.4375 C 229.8125 121.875 230.421875 121.59375 231.203125 121.59375 Z M 239.65625 124.125 L 239.65625 127.75 L 238.765625 127.75 L 238.765625 124.15625 C 238.765625 123.585938 238.660156 123.15625 238.453125 122.875 C 238.253906 122.59375 237.957031 122.453125 237.5625 122.453125 C 237.082031 122.453125 236.703125 122.625 236.421875 122.96875 C 236.148438 123.304688 236.015625 123.761719 236.015625 124.34375 L 236.015625 127.75 L 235.109375 127.75 L 235.109375 121.734375 L 236.015625 121.734375 L 236.015625 122.671875 C 236.222656 122.308594 236.46875 122.039063 236.75 121.859375 C 237.039063 121.683594 237.378906 121.59375 237.765625 121.59375 C 238.378906 121.59375 238.847656 121.808594 239.171875 122.234375 C 239.492188 122.664063 239.65625 123.292969 239.65625 124.125 Z M 214.0625 131.625 L 214.0625 134.640625 L 215.28125 134.640625 C 215.738281 134.640625 216.09375 134.511719 216.34375 134.25 C 216.59375 133.980469 216.71875 133.605469 216.71875 133.125 C 216.71875 132.648438 216.59375 132.277344 216.34375 132.015625 C 216.09375 131.757813 215.738281 131.625 215.28125 131.625 Z M 213.078125 130.734375 L 215.28125 130.734375 C 216.09375 130.734375 216.703125 130.9375 217.109375 131.34375 C 217.523438 131.75 217.734375 132.34375 217.734375 133.125 C 217.734375 133.917969 217.523438 134.515625 217.109375 134.921875 C 216.703125 135.328125 216.09375 135.53125 215.28125 135.53125 L 214.0625 135.53125 L 214.0625 138.75 L 213.078125 138.75 Z M 221.46875 135.71875 C 220.75 135.71875 220.25 135.8125 219.96875 136 C 219.695313 136.1875 219.5625 136.5 219.5625 136.9375 C 219.5625 137.28125 219.664063 137.558594 219.875 137.765625 C 220.082031 137.976563 220.363281 138.078125 220.71875 138.078125 C 221.21875 138.078125 221.613281 137.886719 221.90625 137.5 C 222.207031 137.105469 222.359375 136.589844 222.359375 135.953125 L 222.359375 135.71875 Z M 223.25 135.3125 L 223.25 138.75 L 222.359375 138.75 L 222.359375 137.84375 C 222.148438 138.210938 221.894531 138.480469 221.59375 138.65625 C 221.289063 138.820313 220.921875 138.90625 220.484375 138.90625 C 219.929688 138.90625 219.488281 138.734375 219.15625 138.390625 C 218.832031 138.046875 218.671875 137.585938 218.671875 137 C 218.671875 136.324219 218.875 135.8125 219.28125 135.46875 C 219.6875 135.125 220.296875 134.953125 221.109375 134.953125 L 222.359375 134.953125 L 222.359375 134.859375 C 222.359375 134.402344 222.222656 134.046875 221.953125 133.796875 C 221.679688 133.546875 221.300781 133.421875 220.8125 133.421875 C 220.507813 133.421875 220.207031 133.464844 219.90625 133.546875 C 219.613281 133.632813 219.332031 133.757813 219.0625 133.921875 L 219.0625 133.015625 C 219.394531 132.871094 219.710938 132.765625 220.015625 132.703125 C 220.316406 132.632813 220.613281 132.59375 220.90625 132.59375 C 221.6875 132.59375 222.269531 132.820313 222.65625 133.265625 C 223.050781 133.714844 223.25 134.398438 223.25 135.3125 Z M 228.21875 133.65625 C 228.113281 133.59375 228 133.546875 227.875 133.515625 C 227.757813 133.484375 227.632813 133.46875 227.5 133.46875 C 226.988281 133.46875 226.597656 133.652344 226.328125 134.015625 C 226.066406 134.382813 225.9375 134.902344 225.9375 135.578125 L 225.9375 138.75 L 225.03125 138.75 L 225.03125 132.734375 L 225.9375 132.734375 L 225.9375 133.671875 C 226.125 133.308594 226.363281 133.039063 226.65625 132.859375 C 226.957031 132.683594 227.320313 132.59375 227.75 132.59375 C 227.8125 132.59375 227.878906 132.601563 227.953125 132.609375 C 228.035156 132.609375 228.117188 132.621094 228.203125 132.640625 Z M 229.09375 130.390625 L 230 130.390625 L 230 135.328125 L 232.65625 132.734375 L 233.796875 132.734375 L 230.921875 135.546875 L 233.90625 138.75 L 232.75 138.75 L 230 135.8125 L 230 138.75 L 229.09375 138.75 Z M 229.09375 130.390625 "/>
<path style=" stroke:none;fill-rule:evenodd;fill:rgb(33.333333%,33.333333%,33.333333%);fill-opacity:1;" d="M 214.640625 63.304688 L 214.875 61.039063 L 221.15625 58.835938 L 215.1875 58.195313 L 215.390625 56.289063 L 224.09375 57.226563 L 223.859375 59.476563 L 217.578125 61.679688 L 223.546875 62.320313 L 223.34375 64.242188 Z M 215.480469 55.417969 L 215.714844 53.214844 L 219.027344 51.746094 L 216.105469 49.636719 L 216.339844 47.433594 L 221.058594 50.964844 L 224.730469 51.355469 L 224.511719 53.371094 L 220.839844 52.980469 Z M 225.222656 43.613281 L 223.613281 43.441406 C 223.800781 43.140625 223.953125 42.847656 224.066406 42.566406 C 224.183594 42.285156 224.25 42 224.269531 41.707031 C 224.332031 41.105469 224.203125 40.621094 223.878906 40.253906 C 223.546875 39.878906 223.011719 39.625 222.269531 39.488281 C 222.449219 39.738281 222.574219 40.003906 222.644531 40.285156 C 222.71875 40.566406 222.738281 40.863281 222.707031 41.175781 C 222.625 41.980469 222.300781 42.597656 221.738281 43.035156 C 221.167969 43.472656 220.457031 43.652344 219.613281 43.566406 C 218.667969 43.472656 217.941406 43.128906 217.441406 42.535156 C 216.933594 41.933594 216.722656 41.167969 216.816406 40.238281 C 216.921875 39.21875 217.386719 38.46875 218.207031 37.988281 C 219.019531 37.5 220.125 37.324219 221.519531 37.457031 C 222.96875 37.605469 224.074219 38.046875 224.832031 38.785156 C 225.582031 39.527344 225.898438 40.464844 225.785156 41.597656 C 225.742188 41.972656 225.675781 42.328125 225.582031 42.660156 C 225.488281 42.984375 225.367188 43.300781 225.222656 43.613281 Z M 221.269531 40.691406 C 221.300781 40.339844 221.203125 40.0625 220.972656 39.863281 C 220.746094 39.65625 220.375 39.527344 219.863281 39.472656 C 219.355469 39.421875 218.957031 39.472656 218.675781 39.628906 C 218.394531 39.777344 218.238281 40.027344 218.207031 40.378906 C 218.167969 40.746094 218.269531 41.03125 218.519531 41.238281 C 218.761719 41.4375 219.136719 41.5625 219.644531 41.613281 C 220.15625 41.667969 220.546875 41.621094 220.816406 41.472656 C 221.078125 41.316406 221.230469 41.058594 221.269531 40.691406 Z M 225.519531 31.691406 L 224.925781 34.800781 L 226.394531 35.582031 L 226.003906 37.597656 L 217.957031 33.050781 L 218.425781 30.675781 L 227.566406 29.488281 L 227.175781 31.488281 Z M 223.425781 34.003906 L 223.832031 31.878906 L 220.207031 32.253906 Z M 223.425781 34.003906 "/>
</g>
</svg>

