<?xml version="1.0" encoding="UTF-8"?>
<svg xmlns="http://www.w3.org/2000/svg" xmlns:xlink="http://www.w3.org/1999/xlink" width="256pt" height="256pt" viewBox="0 0 256 256" version="1.1">
<g id="surface2">
<rect x="0" y="0" width="256" height="256" style="fill:rgb(94.901961%,93.72549%,91.372549%);fill-opacity:1;stroke:none;"/>
<path style="fill:none;stroke-width:8;stroke-linecap:round;stroke-linejoin:round;stroke:rgb(75.686275%,70.980392%,61.568627%);stroke-opacity:1;stroke-miterlimit:10;" d="M 102.527344 -9 L 100.222656 -6.066406 L 98.523438 -4.234375 L 94.585938 -0.828125 L 89.480469 2.328125 L 78.179688 8.953125 L 71.121094 13.96875 L 68.558594 16.335938 L 64.292969 21.476563 L 62.871094 25.011719 L 61.542969 29.207031 L 58.535156 40.753906 L 56.695313 45.203125 L 55.25 47.949219 L 52.386719 51.988281 L 47.65625 57.917969 L 42.738281 63.34375 L 37.9375 67.886719 L 33.765625 70.503906 L 31.390625 71.546875 L 28.382813 72.335938 L 26.007813 72.746094 L -5.449219 75.457031 L -9 75.871094 "/>
<path style="fill:none;stroke-width:6;stroke-linecap:round;stroke-linejoin:round;stroke:rgb(100%,99.215686%,54.509804%);stroke-opacity:1;stroke-miterlimit:10;" d="M 102.527344 -9 L 100.222656 -6.066406 L 98.523438 -4.234375 L 94.585938 -0.828125 L 89.480469 2.328125 L 78.179688 8.953125 L 71.121094 13.96875 L 68.558594 16.335938 L 64.292969 21.476563 L 62.871094 25.011719 L 61.542969 29.207031 L 58.535156 40.753906 L 56.695313 45.203125 L 55.25 47.949219 L 52.386719 51.988281 L 47.65625 57.917969 L 42.738281 63.34375 L 37.9375 67.886719 L 33.765625 70.503906 L 31.390625 71.546875 L 28.382813 72.335938 L 26.007813 72.746094 L -5.449219 75.457031 L -9 75.871094 "/>
<path style="fill:none;stroke-width:3;stroke-linecap:round;stroke-linejoin:round;stroke:rgb(100%,100%,100%);stroke-opacity:1;stroke-miterlimit:10;" d="M 36.1875 64.015625 L 36.875 63.3125 L 42.765625 67 L 39 61.15625 L 39.765625 60.375 L 45.671875 64.0625 L 41.90625 58.21875 L 42.609375 57.515625 L 47.03125 64.421875 L 46.171875 65.296875 L 40.15625 61.484375 L 44.015625 67.484375 L 43.15625 68.34375 Z M 49.832031 56.351563 L 50.207031 56.664063 L 47.566406 59.773438 C 48.109375 60.191406 48.621094 60.390625 49.097656 60.367188 C 49.585938 60.335938 50.019531 60.101563 50.394531 59.664063 C 50.613281 59.40625 50.789063 59.125 50.925781 58.820313 C 51.070313 58.507813 51.179688 58.171875 51.253906 57.804688 L 51.957031 58.398438 C 51.863281 58.753906 51.738281 59.082031 51.582031 59.382813 C 51.425781 59.6875 51.238281 59.96875 51.019531 60.226563 C 50.457031 60.882813 49.800781 61.226563 49.050781 61.257813 C 48.300781 61.28125 47.5625 60.984375 46.832031 60.367188 C 46.082031 59.734375 45.644531 59.046875 45.519531 58.304688 C 45.386719 57.566406 45.582031 56.890625 46.113281 56.273438 C 46.582031 55.710938 47.152344 55.441406 47.816406 55.460938 C 48.484375 55.484375 49.152344 55.78125 49.832031 56.351563 Z M 49.035156 56.835938 C 48.621094 56.492188 48.203125 56.316406 47.785156 56.304688 C 47.371094 56.296875 47.019531 56.457031 46.738281 56.789063 C 46.417969 57.175781 46.28125 57.585938 46.332031 58.023438 C 46.375 58.453125 46.59375 58.863281 46.988281 59.257813 Z M 50.882813 50.871094 L 51.617188 51.449219 C 51.335938 51.566406 51.09375 51.707031 50.882813 51.871094 C 50.664063 52.039063 50.460938 52.238281 50.273438 52.464844 C 50.003906 52.820313 49.863281 53.132813 49.851563 53.402344 C 49.832031 53.664063 49.9375 53.886719 50.164063 54.074219 C 50.34375 54.210938 50.53125 54.257813 50.726563 54.214844 C 50.925781 54.175781 51.222656 54.003906 51.617188 53.699219 L 51.851563 53.511719 C 52.363281 53.105469 52.808594 52.886719 53.195313 52.855469 C 53.578125 52.816406 53.964844 52.945313 54.351563 53.246094 C 54.777344 53.582031 54.996094 54.007813 55.007813 54.527344 C 55.027344 55.039063 54.820313 55.566406 54.382813 56.105469 C 54.203125 56.335938 53.992188 56.558594 53.742188 56.777344 C 53.5 56.988281 53.226563 57.183594 52.914063 57.371094 L 52.117188 56.746094 C 52.472656 56.601563 52.777344 56.433594 53.039063 56.246094 C 53.308594 56.050781 53.542969 55.832031 53.742188 55.589844 C 54 55.257813 54.136719 54.949219 54.148438 54.667969 C 54.167969 54.386719 54.070313 54.164063 53.851563 53.996094 C 53.632813 53.832031 53.414063 53.769531 53.195313 53.808594 C 52.976563 53.851563 52.648438 54.050781 52.210938 54.402344 L 51.960938 54.574219 C 51.515625 54.941406 51.113281 55.136719 50.757813 55.167969 C 50.394531 55.191406 50.03125 55.054688 49.664063 54.761719 C 49.21875 54.417969 48.984375 54.011719 48.960938 53.542969 C 48.941406 53.074219 49.140625 52.574219 49.554688 52.042969 C 49.753906 51.792969 49.96875 51.570313 50.195313 51.371094 C 50.414063 51.175781 50.644531 51.007813 50.882813 50.871094 Z M 50.808594 47.769531 L 52.199219 48.753906 L 53.261719 47.269531 L 53.886719 47.722656 L 52.824219 49.207031 L 55.480469 51.082031 C 55.886719 51.375 56.175781 51.515625 56.355469 51.503906 C 56.542969 51.484375 56.746094 51.316406 56.964844 51.003906 L 57.496094 50.269531 L 58.167969 50.753906 L 57.636719 51.488281 C 57.238281 52.050781 56.847656 52.359375 56.464844 52.410156 C 56.078125 52.453125 55.582031 52.253906 54.964844 51.816406 L 52.308594 49.941406 L 51.933594 50.472656 L 51.308594 50.019531 L 51.683594 49.488281 L 50.292969 48.503906 Z M 58.332031 41.472656 C 58.480469 41.308594 58.707031 41.175781 59.019531 41.082031 C 59.324219 40.988281 59.722656 40.921875 60.222656 40.878906 L 62.613281 40.738281 L 62.253906 41.722656 L 60.003906 41.847656 C 59.421875 41.890625 59.003906 41.984375 58.753906 42.128906 C 58.503906 42.277344 58.3125 42.53125 58.175781 42.894531 L 57.800781 43.878906 L 60.972656 45.082031 L 60.628906 46.003906 L 53.128906 43.160156 L 53.910156 41.097656 C 54.203125 40.316406 54.605469 39.808594 55.113281 39.566406 C 55.613281 39.328125 56.230469 39.347656 56.957031 39.628906 C 57.425781 39.808594 57.777344 40.050781 58.003906 40.363281 C 58.234375 40.675781 58.34375 41.046875 58.332031 41.472656 Z M 54.316406 42.550781 L 56.972656 43.566406 L 57.410156 42.425781 C 57.578125 41.980469 57.59375 41.605469 57.457031 41.300781 C 57.3125 40.988281 57.019531 40.75 56.582031 40.582031 C 56.144531 40.417969 55.777344 40.402344 55.472656 40.535156 C 55.160156 40.671875 54.921875 40.964844 54.753906 41.410156 Z M 58.453125 35.804688 C 58.328125 36.273438 58.433594 36.695313 58.765625 37.070313 C 59.101563 37.4375 59.617188 37.710938 60.3125 37.898438 C 61.011719 38.078125 61.59375 38.085938 62.0625 37.929688 C 62.523438 37.765625 62.8125 37.445313 62.9375 36.976563 C 63.050781 36.519531 62.945313 36.101563 62.625 35.726563 C 62.304688 35.351563 61.792969 35.078125 61.09375 34.898438 C 60.398438 34.710938 59.8125 34.703125 59.34375 34.867188 C 58.867188 35.035156 58.570313 35.347656 58.453125 35.804688 Z M 57.65625 35.601563 C 57.855469 34.863281 58.277344 34.347656 58.921875 34.054688 C 59.570313 33.765625 60.371094 33.742188 61.328125 33.992188 C 62.277344 34.234375 62.96875 34.644531 63.40625 35.226563 C 63.84375 35.800781 63.960938 36.457031 63.765625 37.195313 C 63.566406 37.957031 63.140625 38.476563 62.484375 38.757813 C 61.828125 39.03125 61.027344 39.046875 60.078125 38.804688 C 59.121094 38.554688 58.429688 38.148438 58 37.585938 C 57.574219 37.023438 57.460938 36.363281 57.65625 35.601563 Z M 62.335938 30.21875 C 62.148438 30.90625 62.109375 31.414063 62.210938 31.734375 C 62.316406 32.046875 62.578125 32.261719 62.992188 32.375 C 63.328125 32.46875 63.625 32.445313 63.882813 32.296875 C 64.144531 32.152344 64.320313 31.90625 64.414063 31.5625 C 64.546875 31.085938 64.464844 30.652344 64.164063 30.265625 C 63.863281 29.871094 63.410156 29.589844 62.804688 29.421875 L 62.570313 29.359375 Z M 62.429688 28.390625 L 65.742188 29.3125 L 65.492188 30.171875 L 64.617188 29.921875 C 64.917969 30.226563 65.109375 30.546875 65.195313 30.890625 C 65.277344 31.226563 65.261719 31.605469 65.148438 32.03125 C 65 32.5625 64.71875 32.9375 64.304688 33.15625 C 63.878906 33.375 63.382813 33.40625 62.820313 33.25 C 62.164063 33.074219 61.726563 32.746094 61.507813 32.265625 C 61.289063 31.777344 61.289063 31.140625 61.507813 30.359375 L 61.835938 29.15625 L 61.742188 29.125 C 61.304688 29.011719 60.929688 29.054688 60.617188 29.25 C 60.296875 29.4375 60.070313 29.765625 59.945313 30.234375 C 59.863281 30.527344 59.828125 30.828125 59.835938 31.140625 C 59.835938 31.445313 59.878906 31.746094 59.960938 32.046875 L 59.085938 31.8125 C 59.035156 31.449219 59.019531 31.117188 59.039063 30.8125 C 59.050781 30.511719 59.09375 30.21875 59.164063 29.9375 C 59.382813 29.179688 59.765625 28.671875 60.304688 28.421875 C 60.835938 28.164063 61.546875 28.152344 62.429688 28.390625 Z M 62.625 22.78125 L 59.578125 21.65625 L 59.890625 20.8125 L 67.734375 23.703125 L 67.421875 24.546875 L 66.578125 24.234375 C 66.847656 24.539063 67.015625 24.851563 67.078125 25.171875 C 67.140625 25.496094 67.101563 25.84375 66.96875 26.21875 C 66.738281 26.835938 66.285156 27.234375 65.609375 27.421875 C 64.921875 27.609375 64.136719 27.542969 63.25 27.21875 C 62.355469 26.886719 61.710938 26.429688 61.3125 25.84375 C 60.90625 25.261719 60.820313 24.664063 61.046875 24.046875 C 61.183594 23.671875 61.382813 23.382813 61.640625 23.171875 C 61.902344 22.964844 62.230469 22.835938 62.625 22.78125 Z M 63.5625 26.359375 C 64.242188 26.609375 64.824219 26.683594 65.3125 26.578125 C 65.792969 26.464844 66.113281 26.1875 66.28125 25.75 C 66.4375 25.304688 66.363281 24.882813 66.0625 24.484375 C 65.773438 24.089844 65.289063 23.765625 64.609375 23.515625 C 63.921875 23.265625 63.339844 23.199219 62.859375 23.3125 C 62.382813 23.417969 62.0625 23.695313 61.90625 24.140625 C 61.742188 24.578125 61.804688 24.996094 62.09375 25.390625 C 62.386719 25.789063 62.875 26.109375 63.5625 26.359375 Z M 63.5625 26.359375 "/>
<path style=" stroke:none;fill-rule:evenodd;fill:rgb(20%,20%,20%);fill-opacity:1;" d="M 36.1875 64.015625 L 36.875 63.3125 L 42.765625 67 L 39 61.15625 L 39.765625 60.375 L 45.671875 64.0625 L 41.90625 58.21875 L 42.609375 57.515625 L 47.03125 64.421875 L 46.171875 65.296875 L 40.15625 61.484375 L 44.015625 67.484375 L 43.15625 68.34375 Z M 49.832031 56.351563 L 50.207031 56.664063 L 47.566406 59.773438 C 48.109375 60.191406 48.621094 60.390625 49.097656 60.367188 C 49.585938 60.335938 50.019531 60.101563 50.394531 59.664063 C 50.613281 59.40625 50.789063 59.125 50.925781 58.820313 C 51.070313 58.507813 51.179688 58.171875 51.253906 57.804688 L 51.957031 58.398438 C 51.863281 58.753906 51.738281 59.082031 51.582031 59.382813 C 51.425781 59.6875 51.238281 59.96875 51.019531 60.226563 C 50.457031 60.882813 49.800781 61.226563 49.050781 61.257813 C 48.300781 61.28125 47.5625 60.984375 46.832031 60.367188 C 46.082031 59.734375 45.644531 59.046875 45.519531 58.304688 C 45.386719 57.566406 45.582031 56.890625 46.113281 56.273438 C 46.582031 55.710938 47.152344 55.441406 47.816406 55.460938 C 48.484375 55.484375 49.152344 55.78125 49.832031 56.351563 Z M 49.035156 56.835938 C 48.621094 56.492188 48.203125 56.316406 47.785156 56.304688 C 47.371094 56.296875 47.019531 56.457031 46.738281 56.789063 C 46.417969 57.175781 46.28125 57.585938 46.332031 58.023438 C 46.375 58.453125 46.59375 58.863281 46.988281 59.257813 Z M 50.882813 50.871094 L 51.617188 51.449219 C 51.335938 51.566406 51.09375 51.707031 50.882813 51.871094 C 50.664063 52.039063 50.460938 52.238281 50.273438 52.464844 C 50.003906 52.820313 49.863281 53.132813 49.851563 53.402344 C 49.832031 53.664063 49.9375 53.886719 50.164063 54.074219 C 50.34375 54.210938 50.53125 54.257813 50.726563 54.214844 C 50.925781 54.175781 51.222656 54.003906 51.617188 53.699219 L 51.851563 53.511719 C 52.363281 53.105469 52.808594 52.886719 53.195313 52.855469 C 53.578125 52.816406 53.964844 52.945313 54.351563 53.246094 C 54.777344 53.582031 54.996094 54.007813 55.007813 54.527344 C 55.027344 55.039063 54.820313 55.566406 54.382813 56.105469 C 54.203125 56.335938 53.992188 56.558594 53.742188 56.777344 C 53.5 56.988281 53.226563 57.183594 52.914063 57.371094 L 52.117188 56.746094 C 52.472656 56.601563 52.777344 56.433594 53.039063 56.246094 C 53.308594 56.050781 53.542969 55.832031 53.742188 55.589844 C 54 55.257813 54.136719 54.949219 54.148438 54.667969 C 54.167969 54.386719 54.070313 54.164063 53.851563 53.996094 C 53.632813 53.832031 53.414063 53.769531 53.195313 53.808594 C 52.976563 53.851563 52.648438 54.050781 52.210938 54.402344 L 51.960938 54.574219 C 51.515625 54.941406 51.113281 55.136719 50.757813 55.167969 C 50.394531 55.191406 50.03125 55.054688 49.664063 54.761719 C 49.21875 54.417969 48.984375 54.011719 48.960938 53.542969 C 48.941406 53.074219 49.140625 52.574219 49.554688 52.042969 C 49.753906 51.792969 49.96875 51.570313 50.195313 51.371094 C 50.414063 51.175781 50.644531 51.007813 50.882813 50.871094 Z M 50.808594 47.769531 L 52.199219 48.753906 L 53.261719 47.269531 L 53.886719 47.722656 L 52.824219 49.207031 L 55.480469 51.082031 C 55.886719 51.375 56.175781 51.515625 56.355469 51.503906 C 56.542969 51.484375 56.746094 51.316406 56.964844 51.003906 L 57.496094 50.269531 L 58.167969 50.753906 L 57.636719 51.488281 C 57.238281 52.050781 56.847656 52.359375 56.464844 52.410156 C 56.078125 52.453125 55.582031 52.253906 54.964844 51.816406 L 52.308594 49.941406 L 51.933594 50.472656 L 51.308594 50.019531 L 51.683594 49.488281 L 50.292969 48.503906 Z M 58.332031 41.472656 C 58.480469 41.308594 58.707031 41.175781 59.019531 41.082031 C 59.324219 40.988281 59.722656 40.921875 60.222656 40.878906 L 62.613281 40.738281 L 62.253906 41.722656 L 60.003906 41.847656 C 59.421875 41.890625 59.003906 41.984375 58.753906 42.128906 C 58.503906 42.277344 58.3125 42.53125 58.175781 42.894531 L 57.800781 43.878906 L 60.972656 45.082031 L 60.628906 46.003906 L 53.128906 43.160156 L 53.910156 41.097656 C 54.203125 40.316406 54.605469 39.808594 55.113281 39.566406 C 55.613281 39.328125 56.230469 39.347656 56.957031 39.628906 C 57.425781 39.808594 57.777344 40.050781 58.003906 40.363281 C 58.234375 40.675781 58.34375 41.046875 58.332031 41.472656 Z M 54.316406 42.550781 L 56.972656 43.566406 L 57.410156 42.425781 C 57.578125 41.980469 57.59375 41.605469 57.457031 41.300781 C 57.3125 40.988281 57.019531 40.75 56.582031 40.582031 C 56.144531 40.417969 55.777344 40.402344 55.472656 40.535156 C 55.160156 40.671875 54.921875 40.964844 54.753906 41.410156 Z M 58.453125 35.804688 C 58.328125 36.273438 58.433594 36.695313 58.765625 37.070313 C 59.101563 37.4375 59.617188 37.710938 60.3125 37.898438 C 61.011719 38.078125 61.59375 38.085938 62.0625 37.929688 C 62.523438 37.765625 62.8125 37.445313 62.9375 36.976563 C 63.050781 36.519531 62.945313 36.101563 62.625 35.726563 C 62.304688 35.351563 61.792969 35.078125 61.09375 34.898438 C 60.398438 34.710938 59.8125 34.703125 59.34375 34.867188 C 58.867188 35.035156 58.570313 35.347656 58.453125 35.804688 Z M 57.65625 35.601563 C 57.855469 34.863281 58.277344 34.347656 58.921875 34.054688 C 59.570313 33.765625 60.371094 33.742188 61.328125 33.992188 C 62.277344 34.234375 62.96875 34.644531 63.40625 35.226563 C 63.84375 35.800781 63.960938 36.457031 63.765625 37.195313 C 63.566406 37.957031 63.140625 38.476563 62.484375 38.757813 C 61.828125 39.03125 61.027344 39.046875 60.078125 38.804688 C 59.121094 38.554688 58.429688 38.148438 58 37.585938 C 57.574219 37.023438 57.460938 36.363281 57.65625 35.601563 Z M 62.335938 30.21875 C 62.148438 30.90625 62.109375 31.414063 62.210938 31.734375 C 62.316406 32.046875 62.578125 32.261719 62.992188 32.375 C 63.328125 32.46875 63.625 32.445313 63.882813 32.296875 C 64.144531 32.152344 64.320313 31.90625 64.414063 31.5625 C 64.546875 31.085938 64.464844 30.652344 64.164063 30.265625 C 63.863281 29.871094 63.410156 29.589844 62.804688 29.421875 L 62.570313 29.359375 Z M 62.429688 28.390625 L 65.742188 29.3125 L 65.492188 30.171875 L 64.617188 29.921875 C 64.917969 30.226563 65.109375 30.546875 65.195313 30.890625 C 65.277344 31.226563 65.261719 31.605469 65.148438 32.03125 C 65 32.5625 64.71875 32.9375 64.304688 33.15625 C 63.878906 33.375 63.382813 33.40625 62.820313 33.25 C 62.164063 33.074219 61.726563 32.746094 61.507813 32.265625 C 61.289063 31.777344 61.289063 31.140625 61.507813 30.359375 L 61.835938 29.15625 L 61.742188 29.125 C 61.304688 29.011719 60.929688 29.054688 60.617188 29.25 C 60.296875 29.4375 60.070313 29.765625 59.945313 30.234375 C 59.863281 30.527344 59.828125 30.828125 59.835938 31.140625 C 59.835938 31.445313 59.878906 31.746094 59.960938 32.046875 L 59.085938 31.8125 C 59.035156 31.449219 59.019531 31.117188 59.039063 30.8125 C 59.050781 30.511719 59.09375 30.21875 59.164063 29.9375 C 59.382813 29.179688 59.765625 28.671875 60.304688 28.421875 C 60.835938 28.164063 61.546875 28.152344 62.429688 28.390625 Z M 62.625 22.78125 L 59.578125 21.65625 L 59.890625 20.8125 L 67.734375 23.703125 L 67.421875 24.546875 L 66.578125 24.234375 C 66.847656 24.539063 67.015625 24.851563 67.078125 25.171875 C 67.140625 25.496094 67.101563 25.84375 66.96875 26.21875 C 66.738281 26.835938 66.285156 27.234375 65.609375 27.421875 C 64.921875 27.609375 64.136719 27.542969 63.25 27.21875 C 62.355469 26.886719 61.710938 26.429688 61.3125 25.84375 C 60.90625 25.261719 60.820313 24.664063 61.046875 24.046875 C 61.183594 23.671875 61.382813 23.382813 61.640625 23.171875 C 61.902344 22.964844 62.230469 22.835938 62.625 22.78125 Z M 63.5625 26.359375 C 64.242188 26.609375 64.824219 26.683594 65.3125 26.578125 C 65.792969 26.464844 66.113281 26.1875 66.28125 25.75 C 66.4375 25.304688 66.363281 24.882813 66.0625 24.484375 C 65.773438 24.089844 65.289063 23.765625 64.609375 23.515625 C 63.921875 23.265625 63.339844 23.199219 62.859375 23.3125 C 62.382813 23.417969 62.0625 23.695313 61.90625 24.140625 C 61.742188 24.578125 61.804688 24.996094 62.09375 25.390625 C 62.386719 25.789063 62.875 26.109375 63.5625 26.359375 Z M 63.5625 26.359375 "/>
</g>
</svg>

