<?xml version="1.0" encoding="UTF-8"?>
<svg xmlns="http://www.w3.org/2000/svg" xmlns:xlink="http://www.w3.org/1999/xlink" width="256pt" height="256pt" viewBox="0 0 256 256" version="1.1">
<g id="surface2">
<rect x="0" y="0" width="256" height="256" style="fill:rgb(94.901961%,93.72549%,91.372549%);fill-opacity:1;stroke:none;"/>
<path style="fill:none;stroke-width:2;stroke-linecap:round;stroke-linejoin:round;stroke:rgb(60%,70.196078%,80%);stroke-opacity:1;stroke-miterlimit:10;" d="M -3 207.21875 L 0.472656 207.519531 L 14.679688 208.0625 L 34.128906 206.972656 L 51.980469 202.460938 L 59.8125 200.320313 L 76.574219 190.574219 L 83.269531 187.75 L 91.96875 188.390625 L 99.164063 190.941406 L 102.261719 194.402344 L 105.128906 194.71875 L 108.589844 197.863281 L 117.882813 200.777344 L 133.882813 201.75 L 141.8125 201.722656 L 148.503906 202.425781 L 154.675781 201.351563 L 166.429688 197.707031 L 173.757813 197.664063 L 182.730469 199.167969 L 191.25 202.21875 L 197.988281 204.949219 L 204.410156 209.136719 L 208.097656 213.238281 L 210.558594 217.519531 L 213.585938 230.390625 L 216.34375 239.816406 L 217.679688 249.957031 L 217.917969 258 "/>
<path style="fill:none;stroke-width:3;stroke-linecap:round;stroke-linejoin:round;stroke:rgb(100%,100%,100%);stroke-opacity:1;stroke-miterlimit:10;" d="M 94.964844 186.136719 L 93.964844 188.980469 L 95.105469 189.386719 C 95.542969 189.542969 95.921875 189.539063 96.246094 189.371094 C 96.566406 189.207031 96.808594 188.898438 96.964844 188.449219 C 97.128906 187.992188 97.136719 187.601563 96.980469 187.277344 C 96.832031 186.945313 96.542969 186.699219 96.105469 186.542969 Z M 94.324219 184.964844 L 96.402344 185.699219 C 97.171875 185.972656 97.683594 186.367188 97.933594 186.886719 C 98.183594 187.410156 98.175781 188.039063 97.917969 188.777344 C 97.65625 189.519531 97.265625 190.011719 96.746094 190.261719 C 96.222656 190.511719 95.578125 190.503906 94.808594 190.230469 L 93.667969 189.824219 L 92.589844 192.855469 L 91.652344 192.527344 Z M 99.628906 193.382813 C 99.085938 192.914063 98.648438 192.660156 98.316406 192.617188 C 97.992188 192.578125 97.683594 192.71875 97.394531 193.039063 C 97.164063 193.300781 97.058594 193.578125 97.082031 193.882813 C 97.101563 194.183594 97.246094 194.449219 97.519531 194.679688 C 97.894531 195 98.320313 195.109375 98.800781 195.007813 C 99.277344 194.914063 99.726563 194.625 100.144531 194.148438 L 100.300781 193.976563 Z M 101.238281 194.242188 L 98.988281 196.835938 L 98.316406 196.257813 L 98.910156 195.570313 C 98.511719 195.714844 98.144531 195.75 97.800781 195.679688 C 97.457031 195.617188 97.117188 195.4375 96.785156 195.148438 C 96.367188 194.78125 96.148438 194.359375 96.128906 193.882813 C 96.117188 193.414063 96.300781 192.957031 96.675781 192.507813 C 97.121094 192 97.613281 191.75 98.144531 191.757813 C 98.675781 191.769531 99.242188 192.039063 99.847656 192.570313 L 100.800781 193.398438 L 100.863281 193.320313 C 101.164063 192.976563 101.292969 192.625 101.253906 192.257813 C 101.222656 191.894531 101.019531 191.550781 100.644531 191.226563 C 100.414063 191.03125 100.160156 190.863281 99.878906 190.726563 C 99.597656 190.59375 99.304688 190.5 99.003906 190.445313 L 99.597656 189.757813 C 99.941406 189.863281 100.242188 189.992188 100.503906 190.148438 C 100.773438 190.296875 101.023438 190.46875 101.253906 190.664063 C 101.835938 191.175781 102.128906 191.726563 102.128906 192.320313 C 102.136719 192.90625 101.839844 193.542969 101.238281 194.242188 Z M 106.929688 194.261719 L 106.585938 195.121094 C 106.398438 194.894531 106.195313 194.695313 105.976563 194.527344 C 105.757813 194.363281 105.511719 194.226563 105.242188 194.121094 C 104.824219 193.957031 104.484375 193.902344 104.226563 193.964844 C 103.964844 194.019531 103.777344 194.179688 103.664063 194.449219 C 103.578125 194.660156 103.585938 194.855469 103.679688 195.042969 C 103.78125 195.222656 104.03125 195.457031 104.429688 195.746094 L 104.664063 195.933594 C 105.203125 196.308594 105.542969 196.675781 105.679688 197.027344 C 105.824219 197.382813 105.804688 197.789063 105.617188 198.246094 C 105.40625 198.753906 105.054688 199.082031 104.554688 199.230469 C 104.0625 199.386719 103.496094 199.332031 102.851563 199.074219 C 102.589844 198.957031 102.324219 198.8125 102.054688 198.636719 C 101.792969 198.46875 101.515625 198.261719 101.226563 198.011719 L 101.617188 197.074219 C 101.855469 197.378906 102.105469 197.632813 102.367188 197.839844 C 102.625 198.035156 102.898438 198.191406 103.179688 198.308594 C 103.5625 198.464844 103.890625 198.511719 104.164063 198.449219 C 104.445313 198.386719 104.636719 198.222656 104.742188 197.964844 C 104.84375 197.714844 104.851563 197.492188 104.757813 197.292969 C 104.664063 197.097656 104.375 196.835938 103.898438 196.511719 L 103.664063 196.324219 C 103.203125 196.003906 102.90625 195.667969 102.773438 195.324219 C 102.648438 194.980469 102.671875 194.597656 102.851563 194.167969 C 103.070313 193.648438 103.402344 193.316406 103.851563 193.167969 C 104.296875 193.011719 104.828125 193.058594 105.445313 193.308594 C 105.746094 193.433594 106.023438 193.574219 106.273438 193.730469 C 106.523438 193.886719 106.742188 194.066406 106.929688 194.261719 Z M 111.796875 196.941406 L 111.359375 197.753906 C 111.210938 197.496094 111.046875 197.269531 110.859375 197.082031 C 110.679688 196.894531 110.476563 196.738281 110.25 196.613281 C 109.738281 196.332031 109.242188 196.292969 108.765625 196.488281 C 108.296875 196.6875 107.882813 197.109375 107.53125 197.753906 C 107.175781 198.390625 107.035156 198.96875 107.109375 199.488281 C 107.191406 199.996094 107.488281 200.394531 108 200.675781 C 108.226563 200.800781 108.46875 200.886719 108.71875 200.941406 C 108.976563 200.992188 109.253906 201.011719 109.546875 201.003906 L 109.109375 201.800781 C 108.828125 201.789063 108.554688 201.746094 108.296875 201.675781 C 108.035156 201.601563 107.773438 201.496094 107.515625 201.363281 C 106.796875 200.957031 106.363281 200.386719 106.21875 199.660156 C 106.082031 198.933594 106.25 198.144531 106.71875 197.300781 C 107.1875 196.449219 107.769531 195.890625 108.46875 195.628906 C 109.164063 195.371094 109.882813 195.441406 110.625 195.847656 C 110.863281 195.984375 111.082031 196.144531 111.28125 196.332031 C 111.476563 196.511719 111.648438 196.714844 111.796875 196.941406 Z M 114.304688 200.671875 C 113.617188 200.453125 113.109375 200.390625 112.789063 200.484375 C 112.476563 200.578125 112.257813 200.835938 112.132813 201.25 C 112.027344 201.585938 112.042969 201.882813 112.179688 202.140625 C 112.3125 202.402344 112.546875 202.585938 112.882813 202.703125 C 113.359375 202.847656 113.796875 202.78125 114.195313 202.5 C 114.589844 202.210938 114.886719 201.761719 115.085938 201.15625 L 115.148438 200.9375 Z M 116.132813 200.8125 L 115.101563 204.09375 L 114.242188 203.828125 L 114.507813 202.96875 C 114.203125 203.25 113.882813 203.425781 113.539063 203.5 C 113.203125 203.582031 112.828125 203.554688 112.414063 203.421875 C 111.882813 203.253906 111.511719 202.957031 111.304688 202.53125 C 111.09375 202.105469 111.078125 201.609375 111.257813 201.046875 C 111.453125 200.402344 111.796875 199.980469 112.289063 199.78125 C 112.789063 199.574219 113.421875 199.589844 114.195313 199.828125 L 115.382813 200.203125 L 115.414063 200.109375 C 115.546875 199.671875 115.523438 199.296875 115.335938 198.984375 C 115.15625 198.664063 114.835938 198.429688 114.367188 198.28125 C 114.074219 198.199219 113.773438 198.152344 113.460938 198.140625 C 113.15625 198.132813 112.851563 198.164063 112.539063 198.234375 L 112.820313 197.375 C 113.183594 197.324219 113.515625 197.3125 113.820313 197.34375 C 114.132813 197.375 114.429688 197.433594 114.710938 197.515625 C 115.449219 197.757813 115.9375 198.148438 116.179688 198.6875 C 116.417969 199.230469 116.402344 199.9375 116.132813 200.8125 Z M 122.128906 199.230469 L 122.035156 200.136719 C 121.804688 199.960938 121.566406 199.824219 121.316406 199.730469 C 121.074219 199.628906 120.824219 199.566406 120.566406 199.542969 C 119.980469 199.492188 119.511719 199.652344 119.160156 200.027344 C 118.816406 200.394531 118.605469 200.945313 118.535156 201.683594 C 118.472656 202.414063 118.574219 202.996094 118.847656 203.433594 C 119.117188 203.863281 119.542969 204.101563 120.128906 204.152344 C 120.386719 204.175781 120.644531 204.164063 120.894531 204.121094 C 121.152344 204.070313 121.417969 203.976563 121.691406 203.839844 L 121.597656 204.746094 C 121.335938 204.859375 121.070313 204.933594 120.800781 204.964844 C 120.527344 205.003906 120.246094 205.015625 119.957031 204.996094 C 119.132813 204.910156 118.507813 204.5625 118.082031 203.949219 C 117.664063 203.335938 117.503906 202.550781 117.597656 201.589844 C 117.691406 200.613281 118.003906 199.867188 118.535156 199.355469 C 119.066406 198.847656 119.753906 198.632813 120.597656 198.714844 C 120.867188 198.738281 121.132813 198.792969 121.394531 198.886719 C 121.652344 198.972656 121.898438 199.085938 122.128906 199.230469 Z M 123.6875 196.753906 L 124.59375 196.816406 L 124.296875 201.738281 L 127.09375 199.316406 L 128.234375 199.394531 L 125.203125 202.019531 L 127.984375 205.394531 L 126.828125 205.332031 L 124.265625 202.222656 L 124.09375 205.160156 L 123.1875 205.097656 Z M 133.351563 201.816406 L 133.289063 204.753906 L 134.851563 204.785156 C 135.371094 204.796875 135.761719 204.6875 136.023438 204.457031 C 136.28125 204.21875 136.417969 203.847656 136.429688 203.347656 C 136.4375 202.847656 136.320313 202.480469 136.070313 202.238281 C 135.820313 201.988281 135.433594 201.859375 134.914063 201.847656 Z M 133.414063 198.519531 L 133.367188 200.941406 L 134.804688 200.957031 C 135.28125 200.96875 135.640625 200.875 135.882813 200.675781 C 136.121094 200.480469 136.246094 200.175781 136.257813 199.769531 C 136.257813 199.363281 136.140625 199.0625 135.914063 198.863281 C 135.683594 198.65625 135.328125 198.546875 134.851563 198.535156 Z M 132.445313 197.597656 L 134.945313 197.644531 C 135.683594 197.667969 136.25 197.855469 136.648438 198.207031 C 137.054688 198.5625 137.25 199.058594 137.242188 199.691406 C 137.230469 200.183594 137.117188 200.566406 136.898438 200.847656 C 136.6875 201.128906 136.386719 201.300781 135.992188 201.363281 C 136.460938 201.488281 136.824219 201.738281 137.085938 202.113281 C 137.34375 202.480469 137.46875 202.933594 137.460938 203.472656 C 137.449219 204.191406 137.21875 204.746094 136.773438 205.128906 C 136.324219 205.503906 135.695313 205.683594 134.882813 205.675781 L 132.289063 205.613281 Z M 142.28125 200.671875 C 142.175781 200.609375 142.0625 200.5625 141.9375 200.53125 C 141.820313 200.5 141.695313 200.484375 141.5625 200.484375 C 141.050781 200.476563 140.660156 200.652344 140.390625 201.015625 C 140.117188 201.382813 139.984375 201.902344 139.984375 202.578125 L 139.953125 205.75 L 139.046875 205.734375 L 139.09375 199.71875 L 140 199.734375 L 140 200.671875 C 140.1875 200.308594 140.425781 200.042969 140.71875 199.875 C 141.019531 199.699219 141.382813 199.609375 141.8125 199.609375 C 141.875 199.609375 141.941406 199.617188 142.015625 199.625 C 142.097656 199.625 142.179688 199.636719 142.265625 199.65625 Z M 145.414063 200.761719 C 144.933594 200.710938 144.53125 200.878906 144.210938 201.261719 C 143.886719 201.648438 143.6875 202.199219 143.617188 202.917969 C 143.542969 203.636719 143.621094 204.214844 143.851563 204.652344 C 144.089844 205.082031 144.449219 205.320313 144.929688 205.371094 C 145.40625 205.425781 145.804688 205.261719 146.117188 204.886719 C 146.429688 204.511719 146.621094 203.964844 146.695313 203.246094 C 146.765625 202.527344 146.6875 201.949219 146.460938 201.511719 C 146.242188 201.066406 145.890625 200.816406 145.414063 200.761719 Z M 145.492188 199.933594 C 146.261719 200.019531 146.835938 200.363281 147.210938 200.964844 C 147.59375 201.570313 147.734375 202.363281 147.632813 203.339844 C 147.527344 204.320313 147.226563 205.066406 146.726563 205.574219 C 146.234375 206.082031 145.605469 206.296875 144.835938 206.214844 C 144.054688 206.128906 143.476563 205.792969 143.101563 205.199219 C 142.726563 204.597656 142.589844 203.804688 142.695313 202.824219 C 142.796875 201.847656 143.09375 201.101563 143.585938 200.589844 C 144.074219 200.070313 144.710938 199.851563 145.492188 199.933594 Z M 151.03125 200.597656 C 150.5625 200.671875 150.222656 200.9375 150.015625 201.394531 C 149.816406 201.855469 149.773438 202.4375 149.890625 203.144531 C 150.003906 203.863281 150.226563 204.40625 150.5625 204.769531 C 150.90625 205.125 151.3125 205.265625 151.78125 205.191406 C 152.257813 205.121094 152.597656 204.859375 152.796875 204.410156 C 153.003906 203.953125 153.050781 203.363281 152.9375 202.644531 C 152.820313 201.9375 152.59375 201.402344 152.25 201.035156 C 151.914063 200.671875 151.507813 200.527344 151.03125 200.597656 Z M 150.90625 199.785156 C 151.675781 199.660156 152.320313 199.839844 152.84375 200.316406 C 153.363281 200.796875 153.703125 201.519531 153.859375 202.488281 C 154.015625 203.457031 153.921875 204.261719 153.578125 204.894531 C 153.242188 205.519531 152.691406 205.894531 151.921875 206.019531 C 151.148438 206.144531 150.503906 205.964844 149.984375 205.472656 C 149.460938 204.984375 149.125 204.253906 148.96875 203.285156 C 148.8125 202.316406 148.902344 201.527344 149.234375 200.910156 C 149.578125 200.285156 150.132813 199.910156 150.90625 199.785156 Z M 153.839844 196.996094 L 154.699219 196.730469 L 156.105469 201.464844 L 157.917969 198.214844 L 159.011719 197.886719 L 157.058594 201.417969 L 160.839844 203.621094 L 159.730469 203.964844 L 156.246094 201.933594 L 157.089844 204.746094 L 156.230469 205.011719 Z M 153.839844 196.996094 "/>
<path style=" stroke:none;fill-rule:evenodd;fill:rgb(41.960784%,58.039216%,69.019608%);fill-opacity:1;" d="M 94.964844 186.136719 L 93.964844 188.980469 L 95.105469 189.386719 C 95.542969 189.542969 95.921875 189.539063 96.246094 189.371094 C 96.566406 189.207031 96.808594 188.898438 96.964844 188.449219 C 97.128906 187.992188 97.136719 187.601563 96.980469 187.277344 C 96.832031 186.945313 96.542969 186.699219 96.105469 186.542969 Z M 94.324219 184.964844 L 96.402344 185.699219 C 97.171875 185.972656 97.683594 186.367188 97.933594 186.886719 C 98.183594 187.410156 98.175781 188.039063 97.917969 188.777344 C 97.65625 189.519531 97.265625 190.011719 96.746094 190.261719 C 96.222656 190.511719 95.578125 190.503906 94.808594 190.230469 L 93.667969 189.824219 L 92.589844 192.855469 L 91.652344 192.527344 Z M 99.628906 193.382813 C 99.085938 192.914063 98.648438 192.660156 98.316406 192.617188 C 97.992188 192.578125 97.683594 192.71875 97.394531 193.039063 C 97.164063 193.300781 97.058594 193.578125 97.082031 193.882813 C 97.101563 194.183594 97.246094 194.449219 97.519531 194.679688 C 97.894531 195 98.320313 195.109375 98.800781 195.007813 C 99.277344 194.914063 99.726563 194.625 100.144531 194.148438 L 100.300781 193.976563 Z M 101.238281 194.242188 L 98.988281 196.835938 L 98.316406 196.257813 L 98.910156 195.570313 C 98.511719 195.714844 98.144531 195.75 97.800781 195.679688 C 97.457031 195.617188 97.117188 195.4375 96.785156 195.148438 C 96.367188 194.78125 96.148438 194.359375 96.128906 193.882813 C 96.117188 193.414063 96.300781 192.957031 96.675781 192.507813 C 97.121094 192 97.613281 191.75 98.144531 191.757813 C 98.675781 191.769531 99.242188 192.039063 99.847656 192.570313 L 100.800781 193.398438 L 100.863281 193.320313 C 101.164063 192.976563 101.292969 192.625 101.253906 192.257813 C 101.222656 191.894531 101.019531 191.550781 100.644531 191.226563 C 100.414063 191.03125 100.160156 190.863281 99.878906 190.726563 C 99.597656 190.59375 99.304688 190.5 99.003906 190.445313 L 99.597656 189.757813 C 99.941406 189.863281 100.242188 189.992188 100.503906 190.148438 C 100.773438 190.296875 101.023438 190.46875 101.253906 190.664063 C 101.835938 191.175781 102.128906 191.726563 102.128906 192.320313 C 102.136719 192.90625 101.839844 193.542969 101.238281 194.242188 Z M 106.929688 194.261719 L 106.585938 195.121094 C 106.398438 194.894531 106.195313 194.695313 105.976563 194.527344 C 105.757813 194.363281 105.511719 194.226563 105.242188 194.121094 C 104.824219 193.957031 104.484375 193.902344 104.226563 193.964844 C 103.964844 194.019531 103.777344 194.179688 103.664063 194.449219 C 103.578125 194.660156 103.585938 194.855469 103.679688 195.042969 C 103.78125 195.222656 104.03125 195.457031 104.429688 195.746094 L 104.664063 195.933594 C 105.203125 196.308594 105.542969 196.675781 105.679688 197.027344 C 105.824219 197.382813 105.804688 197.789063 105.617188 198.246094 C 105.40625 198.753906 105.054688 199.082031 104.554688 199.230469 C 104.0625 199.386719 103.496094 199.332031 102.851563 199.074219 C 102.589844 198.957031 102.324219 198.8125 102.054688 198.636719 C 101.792969 198.46875 101.515625 198.261719 101.226563 198.011719 L 101.617188 197.074219 C 101.855469 197.378906 102.105469 197.632813 102.367188 197.839844 C 102.625 198.035156 102.898438 198.191406 103.179688 198.308594 C 103.5625 198.464844 103.890625 198.511719 104.164063 198.449219 C 104.445313 198.386719 104.636719 198.222656 104.742188 197.964844 C 104.84375 197.714844 104.851563 197.492188 104.757813 197.292969 C 104.664063 197.097656 104.375 196.835938 103.898438 196.511719 L 103.664063 196.324219 C 103.203125 196.003906 102.90625 195.667969 102.773438 195.324219 C 102.648438 194.980469 102.671875 194.597656 102.851563 194.167969 C 103.070313 193.648438 103.402344 193.316406 103.851563 193.167969 C 104.296875 193.011719 104.828125 193.058594 105.445313 193.308594 C 105.746094 193.433594 106.023438 193.574219 106.273438 193.730469 C 106.523438 193.886719 106.742188 194.066406 106.929688 194.261719 Z M 111.796875 196.941406 L 111.359375 197.753906 C 111.210938 197.496094 111.046875 197.269531 110.859375 197.082031 C 110.679688 196.894531 110.476563 196.738281 110.25 196.613281 C 109.738281 196.332031 109.242188 196.292969 108.765625 196.488281 C 108.296875 196.6875 107.882813 197.109375 107.53125 197.753906 C 107.175781 198.390625 107.035156 198.96875 107.109375 199.488281 C 107.191406 199.996094 107.488281 200.394531 108 200.675781 C 108.226563 200.800781 108.46875 200.886719 108.71875 200.941406 C 108.976563 200.992188 109.253906 201.011719 109.546875 201.003906 L 109.109375 201.800781 C 108.828125 201.789063 108.554688 201.746094 108.296875 201.675781 C 108.035156 201.601563 107.773438 201.496094 107.515625 201.363281 C 106.796875 200.957031 106.363281 200.386719 106.21875 199.660156 C 106.082031 198.933594 106.25 198.144531 106.71875 197.300781 C 107.1875 196.449219 107.769531 195.890625 108.46875 195.628906 C 109.164063 195.371094 109.882813 195.441406 110.625 195.847656 C 110.863281 195.984375 111.082031 196.144531 111.28125 196.332031 C 111.476563 196.511719 111.648438 196.714844 111.796875 196.941406 Z M 114.304688 200.671875 C 113.617188 200.453125 113.109375 200.390625 112.789063 200.484375 C 112.476563 200.578125 112.257813 200.835938 112.132813 201.25 C 112.027344 201.585938 112.042969 201.882813 112.179688 202.140625 C 112.3125 202.402344 112.546875 202.585938 112.882813 202.703125 C 113.359375 202.847656 113.796875 202.78125 114.195313 202.5 C 114.589844 202.210938 114.886719 201.761719 115.085938 201.15625 L 115.148438 200.9375 Z M 116.132813 200.8125 L 115.101563 204.09375 L 114.242188 203.828125 L 114.507813 202.96875 C 114.203125 203.25 113.882813 203.425781 113.539063 203.5 C 113.203125 203.582031 112.828125 203.554688 112.414063 203.421875 C 111.882813 203.253906 111.511719 202.957031 111.304688 202.53125 C 111.09375 202.105469 111.078125 201.609375 111.257813 201.046875 C 111.453125 200.402344 111.796875 199.980469 112.289063 199.78125 C 112.789063 199.574219 113.421875 199.589844 114.195313 199.828125 L 115.382813 200.203125 L 115.414063 200.109375 C 115.546875 199.671875 115.523438 199.296875 115.335938 198.984375 C 115.15625 198.664063 114.835938 198.429688 114.367188 198.28125 C 114.074219 198.199219 113.773438 198.152344 113.460938 198.140625 C 113.15625 198.132813 112.851563 198.164063 112.539063 198.234375 L 112.820313 197.375 C 113.183594 197.324219 113.515625 197.3125 113.820313 197.34375 C 114.132813 197.375 114.429688 197.433594 114.710938 197.515625 C 115.449219 197.757813 115.9375 198.148438 116.179688 198.6875 C 116.417969 199.230469 116.402344 199.9375 116.132813 200.8125 Z M 122.128906 199.230469 L 122.035156 200.136719 C 121.804688 199.960938 121.566406 199.824219 121.316406 199.730469 C 121.074219 199.628906 120.824219 199.566406 120.566406 199.542969 C 119.980469 199.492188 119.511719 199.652344 119.160156 200.027344 C 118.816406 200.394531 118.605469 200.945313 118.535156 201.683594 C 118.472656 202.414063 118.574219 202.996094 118.847656 203.433594 C 119.117188 203.863281 119.542969 204.101563 120.128906 204.152344 C 120.386719 204.175781 120.644531 204.164063 120.894531 204.121094 C 121.152344 204.070313 121.417969 203.976563 121.691406 203.839844 L 121.597656 204.746094 C 121.335938 204.859375 121.070313 204.933594 120.800781 204.964844 C 120.527344 205.003906 120.246094 205.015625 119.957031 204.996094 C 119.132813 204.910156 118.507813 204.5625 118.082031 203.949219 C 117.664063 203.335938 117.503906 202.550781 117.597656 201.589844 C 117.691406 200.613281 118.003906 199.867188 118.535156 199.355469 C 119.066406 198.847656 119.753906 198.632813 120.597656 198.714844 C 120.867188 198.738281 121.132813 198.792969 121.394531 198.886719 C 121.652344 198.972656 121.898438 199.085938 122.128906 199.230469 Z M 123.6875 196.753906 L 124.59375 196.816406 L 124.296875 201.738281 L 127.09375 199.316406 L 128.234375 199.394531 L 125.203125 202.019531 L 127.984375 205.394531 L 126.828125 205.332031 L 124.265625 202.222656 L 124.09375 205.160156 L 123.1875 205.097656 Z M 133.351563 201.816406 L 133.289063 204.753906 L 134.851563 204.785156 C 135.371094 204.796875 135.761719 204.6875 136.023438 204.457031 C 136.28125 204.21875 136.417969 203.847656 136.429688 203.347656 C 136.4375 202.847656 136.320313 202.480469 136.070313 202.238281 C 135.820313 201.988281 135.433594 201.859375 134.914063 201.847656 Z M 133.414063 198.519531 L 133.367188 200.941406 L 134.804688 200.957031 C 135.28125 200.96875 135.640625 200.875 135.882813 200.675781 C 136.121094 200.480469 136.246094 200.175781 136.257813 199.769531 C 136.257813 199.363281 136.140625 199.0625 135.914063 198.863281 C 135.683594 198.65625 135.328125 198.546875 134.851563 198.535156 Z M 132.445313 197.597656 L 134.945313 197.644531 C 135.683594 197.667969 136.25 197.855469 136.648438 198.207031 C 137.054688 198.5625 137.25 199.058594 137.242188 199.691406 C 137.230469 200.183594 137.117188 200.566406 136.898438 200.847656 C 136.6875 201.128906 136.386719 201.300781 135.992188 201.363281 C 136.460938 201.488281 136.824219 201.738281 137.085938 202.113281 C 137.34375 202.480469 137.46875 202.933594 137.460938 203.472656 C 137.449219 204.191406 137.21875 204.746094 136.773438 205.128906 C 136.324219 205.503906 135.695313 205.683594 134.882813 205.675781 L 132.289063 205.613281 Z M 142.28125 200.671875 C 142.175781 200.609375 142.0625 200.5625 141.9375 200.53125 C 141.820313 200.5 141.695313 200.484375 141.5625 200.484375 C 141.050781 200.476563 140.660156 200.652344 140.390625 201.015625 C 140.117188 201.382813 139.984375 201.902344 139.984375 202.578125 L 139.953125 205.75 L 139.046875 205.734375 L 139.09375 199.71875 L 140 199.734375 L 140 200.671875 C 140.1875 200.308594 140.425781 200.042969 140.71875 199.875 C 141.019531 199.699219 141.382813 199.609375 141.8125 199.609375 C 141.875 199.609375 141.941406 199.617188 142.015625 199.625 C 142.097656 199.625 142.179688 199.636719 142.265625 199.65625 Z M 145.414063 200.761719 C 144.933594 200.710938 144.53125 200.878906 144.210938 201.261719 C 143.886719 201.648438 143.6875 202.199219 143.617188 202.917969 C 143.542969 203.636719 143.621094 204.214844 143.851563 204.652344 C 144.089844 205.082031 144.449219 205.320313 144.929688 205.371094 C 145.40625 205.425781 145.804688 205.261719 146.117188 204.886719 C 146.429688 204.511719 146.621094 203.964844 146.695313 203.246094 C 146.765625 202.527344 146.6875 201.949219 146.460938 201.511719 C 146.242188 201.066406 145.890625 200.816406 145.414063 200.761719 Z M 145.492188 199.933594 C 146.261719 200.019531 146.835938 200.363281 147.210938 200.964844 C 147.59375 201.570313 147.734375 202.363281 147.632813 203.339844 C 147.527344 204.320313 147.226563 205.066406 146.726563 205.574219 C 146.234375 206.082031 145.605469 206.296875 144.835938 206.214844 C 144.054688 206.128906 143.476563 205.792969 143.101563 205.199219 C 142.726563 204.597656 142.589844 203.804688 142.695313 202.824219 C 142.796875 201.847656 143.09375 201.101563 143.585938 200.589844 C 144.074219 200.070313 144.710938 199.851563 145.492188 199.933594 Z M 151.03125 200.597656 C 150.5625 200.671875 150.222656 200.9375 150.015625 201.394531 C 149.816406 201.855469 149.773438 202.4375 149.890625 203.144531 C 150.003906 203.863281 150.226563 204.40625 150.5625 204.769531 C 150.90625 205.125 151.3125 205.265625 151.78125 205.191406 C 152.257813 205.121094 152.597656 204.859375 152.796875 204.410156 C 153.003906 203.953125 153.050781 203.363281 152.9375 202.644531 C 152.820313 201.9375 152.59375 201.402344 152.25 201.035156 C 151.914063 200.671875 151.507813 200.527344 151.03125 200.597656 Z M 150.90625 199.785156 C 151.675781 199.660156 152.320313 199.839844 152.84375 200.316406 C 153.363281 200.796875 153.703125 201.519531 153.859375 202.488281 C 154.015625 203.457031 153.921875 204.261719 153.578125 204.894531 C 153.242188 205.519531 152.691406 205.894531 151.921875 206.019531 C 151.148438 206.144531 150.503906 205.964844 149.984375 205.472656 C 149.460938 204.984375 149.125 204.253906 148.96875 203.285156 C 148.8125 202.316406 148.902344 201.527344 149.234375 200.910156 C 149.578125 200.285156 150.132813 199.910156 150.90625 199.785156 Z M 153.839844 196.996094 L 154.699219 196.730469 L 156.105469 201.464844 L 157.917969 198.214844 L 159.011719 197.886719 L 157.058594 201.417969 L 160.839844 203.621094 L 159.730469 203.964844 L 156.246094 201.933594 L 157.089844 204.746094 L 156.230469 205.011719 Z M 153.839844 196.996094 "/>
</g>
</svg>

