<?xml version="1.0" encoding="UTF-8"?>
<svg xmlns="http://www.w3.org/2000/svg" xmlns:xlink="http://www.w3.org/1999/xlink" width="256pt" height="256pt" viewBox="0 0 256 256" version="1.1">
<g id="surface2">
<rect x="0" y="0" width="256" height="256" style="fill:rgb(94.901961%,93.72549%,91.372549%);fill-opacity:1;stroke:none;"/>
<path style=" stroke:none;fill-rule:evenodd;fill:rgb(70.980392%,82.352941%,61.176471%);fill-opacity:1;" d="M -4 260 L 260 260 L -4 260 L -4 -4 Z M -4 260 "/>
<path style=" stroke:none;fill-rule:evenodd;fill:rgb(79.607843%,84.705882%,76.470588%);fill-opacity:1;" d="M -4 260 L 260 260 L -4 260 L -4 -4 Z M -4 260 "/>
<path style=" stroke:none;fill-rule:evenodd;fill:rgb(79.607843%,84.705882%,76.470588%);fill-opacity:1;" d="M -4 260 L 260 260 L 260 -4 L -4 -4 Z M -4 -4 Z M -4 -4 Z M 31.230469 -4 L 35.359375 -3.210938 L 37.484375 -4 L 45.890625 -4 L 46.101563 -3.324219 L 44.199219 0.257813 L 39.386719 6.296875 L 41.511719 10.660156 L 46.101563 14.242188 L 50.015625 14.6875 L 55.757813 12.496094 L 55.609375 17.261719 L 53.261719 23.527344 L 52.253906 30.460938 L 54.492188 35.609375 L 64.222656 40.867188 L 71.160156 49.371094 L 62.882813 51.382813 L 51.691406 47.914063 L 41.175781 38.070313 L 42.742188 32.585938 L 41.398438 25.425781 L 33.457031 21.511719 L 25.847656 15.132813 L 19.695313 4.058594 L 14.640625 -4 Z M 260 260 Z M 260 260 "/>
<path style="fill:none;stroke-width:1;stroke-linecap:round;stroke-linejoin:round;stroke:rgb(100%,100%,100%);stroke-opacity:1;stroke-dasharray:2,3;stroke-miterlimit:10;" d="M -2 94.976563 L 1.621094 99 L 10.003906 105.421875 L 14.628906 107.671875 L 20.003906 106.046875 L 23.003906 103.046875 L 23.628906 95.675781 L 23.121094 88.875 L 25.753906 84.550781 L 31 81.496094 L 38.996094 81 L 45.371094 82.875 L 54.628906 85.800781 L 61.625 86 L 65.875 87.625 L 68.394531 91.09375 "/>
<path style="fill:none;stroke-width:1;stroke-linecap:round;stroke-linejoin:round;stroke:rgb(100%,100%,100%);stroke-opacity:1;stroke-dasharray:2,3;stroke-miterlimit:10;" d="M 53.332031 257 L 53.09375 254.121094 L 53.25 246.75 L 53.46875 240.121094 L 53.34375 233.367188 L 54 229.125 L 54.25 225.875 L 55.496094 221.753906 L 56.246094 217.5 L 57.621094 212.75 L 59.214844 208.496094 L 61.46875 205.121094 L 64.71875 202.367188 L 66.066406 201.214844 "/>
<path style="fill:none;stroke-width:1;stroke-linecap:round;stroke-linejoin:round;stroke:rgb(100%,100%,100%);stroke-opacity:1;stroke-dasharray:2,3;stroke-miterlimit:10;" d="M 66.066406 201.214844 L 67.339844 200.121094 L 69.46875 196.992188 L 72.5 191.875 L 75.339844 186.996094 L 78.371094 181.25 L 80.84375 176.871094 L 82.96875 173.867188 L 85.464844 170.371094 L 86.496094 166.75 L 88.46875 162.492188 L 89.980469 158.402344 L 91.34375 154.621094 L 93.496094 152.75 L 97.75 150.125 L 102.871094 147 L 110.089844 144.621094 L 116.375 143.253906 L 122.246094 142.625 L 128.496094 144.375 L 133.46875 145.742188 L 140.09375 144.492188 L 149.34375 141.746094 L 159.375 138.75 L 163.34375 136.367188 L 167.375 134.25 L 172.589844 133.746094 L 178.496094 133.5 L 185.871094 132.125 L 191.496094 128.5 L 198.121094 124.25 L 203.46875 118.121094 L 207.96875 114.117188 L 214.621094 109.25 L 224.375 102.25 L 230.746094 96.503906 L 232.871094 91.125 L 235.09375 86.371094 L 236.625 80.125 L 236.589844 78.871094 L 236.46875 74.746094 L 234.714844 71.523438 L 232.875 67.433594 L 230.488281 62.0625 L 229.785156 55.820313 L 229.6875 48.664063 L 229.125 42.214844 L 231.339844 38.371094 L 229.25 34.875 L 228.621094 30.625 L 231.59375 27.121094 L 240.246094 25.5 L 250 21.628906 L 257 18.777344 "/>
<path style="fill:none;stroke-width:1;stroke-linecap:round;stroke-linejoin:round;stroke:rgb(100%,100%,100%);stroke-opacity:1;stroke-dasharray:2,3;stroke-miterlimit:10;" d="M 211.339844 257 L 209.410156 254.199219 L 152.574219 229.265625 L 136.90625 203.910156 L 120.890625 195.058594 L 102.339844 204.332031 L 80.726563 206.28125 L 66.066406 201.214844 "/>
<path style="fill:none;stroke-width:1;stroke-linecap:round;stroke-linejoin:round;stroke:rgb(100%,100%,100%);stroke-opacity:1;stroke-dasharray:2,3;stroke-miterlimit:10;" d="M 148.417969 -2 L 147.265625 1.351563 L 143.015625 6.601563 L 140.492188 8 L 138.265625 12.851563 L 134.515625 18.101563 L 131.015625 21.851563 L 125.492188 25 L 121.765625 31.101563 L 117.765625 37.101563 L 114.515625 40.347656 L 112.019531 44.597656 L 108.515625 48.851563 L 107.515625 54.351563 L 108.765625 58.601563 L 110.515625 62.851563 L 114.015625 66.097656 L 117.269531 68.597656 L 120.265625 72.847656 L 121.265625 75.601563 L 118.265625 81.347656 L 118.015625 87.101563 L 119.765625 93.351563 L 117.269531 98.101563 L 111.015625 99.351563 L 100.515625 96.851563 L 94.265625 95.101563 L 88.515625 92.851563 L 84.515625 88.601563 L 79.015625 87.851563 L 73.515625 90.007813 L 71.4375 89.589844 L 73.511719 87.09375 L 74.738281 85.617188 L 75.929688 84.1875 L 77.898438 81.816406 L 79.09375 79.460938 L 78.5625 77.386719 L 78.160156 74.292969 L 76.160156 68.894531 L 75.160156 63.894531 L 75.296875 60.042969 L 77.160156 56.09375 L 81.214844 50.539063 L 82.558594 48.691406 L 86.960938 42.894531 L 90.027344 38.898438 L 90.9375 36.871094 L 91.742188 34.789063 L 92.867188 28.316406 L 93.359375 25.496094 L 94.496094 22.535156 L 95.359375 20.292969 L 98.160156 15.695313 L 103.558594 10.296875 L 106.558594 6.292969 L 107.3125 3.726563 L 107.757813 1.296875 L 107.757813 -2 M 96.15625 -2 L 94.769531 1.101563 L 90.015625 -0.148438 L 87.890625 -2 "/>
<path style="fill:none;stroke-width:1;stroke-linecap:round;stroke-linejoin:round;stroke:rgb(100%,100%,100%);stroke-opacity:1;stroke-dasharray:2,3;stroke-miterlimit:10;" d="M -2 118.941406 L 20.558594 119.09375 L 24.957031 118.496094 L 28.359375 116.691406 L 31.761719 112.695313 L 35.960938 106.296875 L 39.359375 102.496094 L 43.558594 99.695313 L 48.960938 97.695313 L 66.785156 91.636719 L 68.394531 91.09375 L 69.558594 90.695313 L 71.4375 89.589844 L 73.511719 87.09375 L 74.738281 85.617188 L 75.929688 84.1875 L 77.898438 81.816406 L 79.09375 79.460938 "/>
<path style="fill:none;stroke-width:8;stroke-linecap:round;stroke-linejoin:round;stroke:rgb(75.686275%,70.980392%,61.568627%);stroke-opacity:1;stroke-miterlimit:10;" d="M 78.160156 74.292969 L 78.5625 77.386719 L 79.09375 79.460938 L 79.789063 81.058594 L 81.226563 81.832031 L 83.085938 81.855469 L 84.613281 81.058594 L 85.578125 79.722656 L 85.863281 78.121094 L 85.390625 76.488281 L 84.167969 75.199219 L 82.222656 74.625 L 78.160156 74.292969 "/>
<path style="fill:none;stroke-width:8;stroke-linecap:round;stroke-linejoin:round;stroke:rgb(75.686275%,70.980392%,61.568627%);stroke-opacity:1;stroke-miterlimit:10;" d="M 62.160156 -7.503906 L 57.761719 7.492188 L 55.757813 12.496094 L 53.960938 15.296875 L 50.359375 17.496094 L 46.757813 18.695313 L 43.558594 18.492188 L 39.558594 16.894531 L 36.757813 14.496094 "/>
<path style="fill:none;stroke-width:8;stroke-linecap:round;stroke-linejoin:round;stroke:rgb(75.686275%,70.980392%,61.568627%);stroke-opacity:1;stroke-miterlimit:10;" d="M 106.820313 -9 L 107.757813 -4.308594 L 107.757813 1.296875 L 107.3125 3.726563 L 106.558594 6.292969 L 103.558594 10.296875 L 98.160156 15.695313 L 95.359375 20.292969 L 94.496094 22.535156 L 93.359375 25.496094 L 92.867188 28.316406 L 91.742188 34.789063 L 90.9375 36.871094 L 90.027344 38.898438 L 86.960938 42.894531 L 82.558594 48.691406 L 81.214844 50.539063 L 77.160156 56.09375 L 75.296875 60.042969 L 75.160156 63.894531 L 76.160156 68.894531 L 78.160156 74.292969 "/>
<path style="fill:none;stroke-width:8;stroke-linecap:round;stroke-linejoin:round;stroke:rgb(75.686275%,70.980392%,61.568627%);stroke-opacity:1;stroke-miterlimit:10;" d="M 18.332031 -9 L 27.71875 3.089844 L 34.359375 11.894531 L 36.757813 14.496094 "/>
<path style="fill:none;stroke-width:8;stroke-linecap:round;stroke-linejoin:round;stroke:rgb(75.686275%,70.980392%,61.568627%);stroke-opacity:1;stroke-miterlimit:10;" d="M -9 209.164063 L 21.40625 187.894531 L 26.601563 184.695313 L 32.605469 181.894531 L 39.203125 180.296875 L 56.003906 177.894531 L 62.003906 176.695313 L 67.203125 174.894531 L 72.601563 171.292969 L 80.203125 164.09375 L 85.804688 159.894531 L 89.980469 158.402344 L 91.402344 157.894531 L 97.804688 157.492188 L 104.203125 159.09375 L 114.800781 162.894531 L 121.804688 166.496094 L 173.203125 194.496094 L 178.601563 198.296875 L 183.601563 202.496094 L 188.804688 208.496094 L 193.605469 213.695313 L 199.804688 218.894531 L 216.402344 230.496094 L 221.804688 235.292969 L 227.402344 241.695313 L 232.804688 248.496094 L 238.800781 257.296875 L 243.40625 262.496094 L 244.875 264 "/>
<path style="fill:none;stroke-width:6;stroke-linecap:round;stroke-linejoin:round;stroke:rgb(100%,100%,100%);stroke-opacity:1;stroke-miterlimit:10;" d="M 78.160156 74.292969 L 78.5625 77.386719 L 79.09375 79.460938 L 79.789063 81.058594 L 81.226563 81.832031 L 83.085938 81.855469 L 84.613281 81.058594 L 85.578125 79.722656 L 85.863281 78.121094 L 85.390625 76.488281 L 84.167969 75.199219 L 82.222656 74.625 L 78.160156 74.292969 "/>
<path style="fill:none;stroke-width:6;stroke-linecap:round;stroke-linejoin:round;stroke:rgb(100%,100%,100%);stroke-opacity:1;stroke-miterlimit:10;" d="M 62.160156 -7.503906 L 57.761719 7.492188 L 55.757813 12.496094 L 53.960938 15.296875 L 50.359375 17.496094 L 46.757813 18.695313 L 43.558594 18.492188 L 39.558594 16.894531 L 36.757813 14.496094 "/>
<path style="fill:none;stroke-width:6;stroke-linecap:round;stroke-linejoin:round;stroke:rgb(100%,100%,100%);stroke-opacity:1;stroke-miterlimit:10;" d="M 106.820313 -9 L 107.757813 -4.308594 L 107.757813 1.296875 L 107.3125 3.726563 L 106.558594 6.292969 L 103.558594 10.296875 L 98.160156 15.695313 L 95.359375 20.292969 L 94.496094 22.535156 L 93.359375 25.496094 L 92.867188 28.316406 L 91.742188 34.789063 L 90.9375 36.871094 L 90.027344 38.898438 L 86.960938 42.894531 L 82.558594 48.691406 L 81.214844 50.539063 L 77.160156 56.09375 L 75.296875 60.042969 L 75.160156 63.894531 L 76.160156 68.894531 L 78.160156 74.292969 "/>
<path style="fill:none;stroke-width:6;stroke-linecap:round;stroke-linejoin:round;stroke:rgb(100%,100%,100%);stroke-opacity:1;stroke-miterlimit:10;" d="M 18.332031 -9 L 27.71875 3.089844 L 34.359375 11.894531 L 36.757813 14.496094 "/>
<path style="fill:none;stroke-width:6;stroke-linecap:round;stroke-linejoin:round;stroke:rgb(100%,99.215686%,54.509804%);stroke-opacity:1;stroke-miterlimit:10;" d="M -9 209.164063 L 21.40625 187.894531 L 26.601563 184.695313 L 32.605469 181.894531 L 39.203125 180.296875 L 56.003906 177.894531 L 62.003906 176.695313 L 67.203125 174.894531 L 72.601563 171.292969 L 80.203125 164.09375 L 85.804688 159.894531 L 89.980469 158.402344 L 91.402344 157.894531 L 97.804688 157.492188 L 104.203125 159.09375 L 114.800781 162.894531 L 121.804688 166.496094 L 173.203125 194.496094 L 178.601563 198.296875 L 183.601563 202.496094 L 188.804688 208.496094 L 193.605469 213.695313 L 199.804688 218.894531 L 216.402344 230.496094 L 221.804688 235.292969 L 227.402344 241.695313 L 232.804688 248.496094 L 238.800781 257.296875 L 243.40625 262.496094 L 244.875 264 "/>
<path style="fill:none;stroke-width:3;stroke-linecap:round;stroke-linejoin:round;stroke:rgb(100%,100%,100%);stroke-opacity:1;stroke-miterlimit:10;" d="M 87.527344 155.414063 L 87.964844 156.367188 C 87.546875 156.328125 87.167969 156.335938 86.824219 156.398438 C 86.480469 156.453125 86.167969 156.539063 85.886719 156.664063 C 85.410156 156.894531 85.089844 157.175781 84.933594 157.507813 C 84.769531 157.832031 84.773438 158.179688 84.949219 158.554688 C 85.097656 158.878906 85.292969 159.085938 85.542969 159.179688 C 85.792969 159.265625 86.183594 159.242188 86.714844 159.117188 L 87.292969 158.976563 C 88.019531 158.820313 88.625 158.847656 89.105469 159.054688 C 89.582031 159.265625 89.957031 159.660156 90.230469 160.242188 C 90.5625 160.953125 90.597656 161.585938 90.339844 162.148438 C 90.078125 162.710938 89.535156 163.179688 88.714844 163.554688 C 88.402344 163.703125 88.050781 163.816406 87.667969 163.898438 C 87.28125 163.984375 86.871094 164.035156 86.433594 164.054688 L 85.980469 163.054688 C 86.4375 163.109375 86.863281 163.113281 87.261719 163.070313 C 87.667969 163.019531 88.03125 162.914063 88.355469 162.757813 C 88.863281 162.53125 89.203125 162.242188 89.371094 161.898438 C 89.546875 161.546875 89.542969 161.164063 89.355469 160.757813 C 89.1875 160.394531 88.957031 160.160156 88.667969 160.054688 C 88.375 159.941406 87.972656 159.9375 87.464844 160.039063 L 86.886719 160.179688 C 86.15625 160.335938 85.574219 160.328125 85.136719 160.148438 C 84.699219 159.972656 84.351563 159.609375 84.089844 159.054688 C 83.789063 158.410156 83.757813 157.804688 83.996094 157.242188 C 84.226563 156.679688 84.699219 156.234375 85.417969 155.898438 C 85.730469 155.753906 86.058594 155.644531 86.402344 155.570313 C 86.753906 155.488281 87.128906 155.4375 87.527344 155.414063 Z M 95.542969 158.414063 L 95.605469 158.898438 L 91.542969 159.445313 C 91.675781 160.113281 91.933594 160.597656 92.308594 160.898438 C 92.691406 161.203125 93.171875 161.316406 93.746094 161.242188 C 94.089844 161.191406 94.410156 161.101563 94.714844 160.976563 C 95.015625 160.84375 95.3125 160.664063 95.605469 160.445313 L 95.730469 161.351563 C 95.425781 161.550781 95.113281 161.710938 94.792969 161.835938 C 94.480469 161.960938 94.152344 162.046875 93.808594 162.085938 C 92.953125 162.203125 92.238281 162.019531 91.667969 161.539063 C 91.09375 161.050781 90.746094 160.332031 90.621094 159.382813 C 90.484375 158.414063 90.613281 157.613281 91.011719 156.976563 C 91.40625 156.34375 92.003906 155.972656 92.808594 155.867188 C 93.535156 155.765625 94.144531 155.941406 94.636719 156.398438 C 95.125 156.859375 95.425781 157.53125 95.542969 158.414063 Z M 94.621094 158.242188 C 94.535156 157.710938 94.34375 157.304688 94.042969 157.023438 C 93.738281 156.734375 93.371094 156.613281 92.933594 156.664063 C 92.441406 156.738281 92.066406 156.953125 91.808594 157.304688 C 91.546875 157.660156 91.4375 158.113281 91.480469 158.664063 Z M 96.511719 155.660156 L 97.433594 155.800781 L 98.371094 161.035156 L 100.792969 156.285156 L 101.714844 156.425781 L 98.839844 162.082031 L 97.636719 161.910156 Z M 106.753906 160.824219 L 106.613281 161.292969 L 102.707031 160.074219 C 102.539063 160.730469 102.558594 161.277344 102.769531 161.714844 C 102.988281 162.152344 103.371094 162.457031 103.925781 162.636719 C 104.257813 162.738281 104.585938 162.792969 104.910156 162.792969 C 105.242188 162.800781 105.589844 162.769531 105.957031 162.699219 L 105.691406 163.574219 C 105.324219 163.625 104.972656 163.640625 104.628906 163.621094 C 104.292969 163.597656 103.960938 163.535156 103.628906 163.433594 C 102.804688 163.171875 102.230469 162.699219 101.910156 162.011719 C 101.597656 161.324219 101.582031 160.527344 101.863281 159.621094 C 102.152344 158.683594 102.613281 158.011719 103.238281 157.605469 C 103.871094 157.199219 104.582031 157.117188 105.363281 157.355469 C 106.058594 157.574219 106.527344 157.996094 106.769531 158.621094 C 107.019531 159.238281 107.011719 159.972656 106.753906 160.824219 Z M 105.972656 160.277344 C 106.136719 159.769531 106.144531 159.320313 105.988281 158.933594 C 105.832031 158.539063 105.542969 158.273438 105.128906 158.136719 C 104.648438 157.992188 104.214844 158.027344 103.832031 158.246094 C 103.445313 158.457031 103.152344 158.820313 102.957031 159.339844 Z M 112.46875 162.453125 L 111.25 165.859375 L 110.40625 165.5625 L 111.625 162.171875 C 111.8125 161.640625 111.851563 161.210938 111.75 160.875 C 111.65625 160.542969 111.421875 160.308594 111.046875 160.171875 C 110.597656 160.015625 110.1875 160.054688 109.8125 160.28125 C 109.4375 160.5 109.15625 160.886719 108.96875 161.4375 L 107.8125 164.640625 L 106.96875 164.328125 L 109 158.671875 L 109.84375 158.984375 L 109.53125 159.859375 C 109.84375 159.589844 110.164063 159.417969 110.5 159.34375 C 110.832031 159.273438 111.179688 159.304688 111.546875 159.4375 C 112.117188 159.648438 112.484375 160.007813 112.640625 160.515625 C 112.804688 161.015625 112.75 161.664063 112.46875 162.453125 Z M 118.960938 160.511719 L 119.835938 160.964844 L 116.585938 167.277344 L 119.710938 168.886719 L 119.289063 169.699219 L 115.289063 167.636719 Z M 123.679688 168.621094 C 123.042969 168.277344 122.558594 168.128906 122.226563 168.167969 C 121.902344 168.199219 121.636719 168.410156 121.429688 168.792969 C 121.261719 169.097656 121.21875 169.386719 121.304688 169.667969 C 121.386719 169.949219 121.585938 170.171875 121.898438 170.339844 C 122.335938 170.578125 122.777344 170.59375 123.226563 170.386719 C 123.671875 170.1875 124.046875 169.8125 124.351563 169.261719 L 124.460938 169.042969 Z M 125.445313 169.136719 L 123.804688 172.152344 L 123.023438 171.714844 L 123.460938 170.917969 C 123.09375 171.144531 122.734375 171.261719 122.382813 171.261719 C 122.039063 171.269531 121.671875 171.171875 121.289063 170.964844 C 120.808594 170.703125 120.507813 170.34375 120.382813 169.886719 C 120.257813 169.429688 120.328125 168.941406 120.601563 168.417969 C 120.921875 167.824219 121.34375 167.476563 121.867188 167.371094 C 122.398438 167.257813 123.023438 167.394531 123.742188 167.777344 L 124.835938 168.371094 L 124.867188 168.292969 C 125.085938 167.886719 125.132813 167.511719 125.007813 167.167969 C 124.890625 166.824219 124.621094 166.535156 124.195313 166.292969 C 123.921875 166.148438 123.636719 166.042969 123.335938 165.980469 C 123.042969 165.910156 122.734375 165.882813 122.414063 165.902344 L 122.851563 165.105469 C 123.214844 165.136719 123.546875 165.195313 123.851563 165.277344 C 124.152344 165.363281 124.429688 165.472656 124.679688 165.605469 C 125.367188 165.980469 125.773438 166.460938 125.898438 167.042969 C 126.03125 167.628906 125.882813 168.324219 125.445313 169.136719 Z M 129.363281 165.640625 L 130.160156 166.078125 L 127.800781 170.421875 L 131.363281 169.40625 L 132.363281 169.953125 L 128.503906 171.046875 L 129.597656 175.296875 L 128.582031 174.734375 L 127.566406 170.84375 L 126.160156 173.421875 L 125.363281 172.984375 Z M 136.070313 175.101563 L 135.835938 175.539063 L 132.242188 173.585938 C 131.949219 174.203125 131.859375 174.742188 131.976563 175.210938 C 132.101563 175.667969 132.417969 176.039063 132.929688 176.320313 C 133.230469 176.484375 133.542969 176.605469 133.867188 176.679688 C 134.199219 176.75 134.546875 176.789063 134.914063 176.789063 L 134.476563 177.585938 C 134.109375 177.574219 133.761719 177.523438 133.429688 177.429688 C 133.105469 177.34375 132.792969 177.21875 132.492188 177.054688 C 131.730469 176.636719 131.261719 176.0625 131.085938 175.335938 C 130.90625 174.609375 131.046875 173.820313 131.507813 172.976563 C 131.976563 172.113281 132.558594 171.546875 133.257813 171.273438 C 133.953125 170.992188 134.65625 171.046875 135.367188 171.429688 C 136 171.785156 136.382813 172.289063 136.507813 172.945313 C 136.640625 173.601563 136.496094 174.320313 136.070313 175.101563 Z M 135.429688 174.429688 C 135.667969 173.953125 135.75 173.507813 135.679688 173.101563 C 135.605469 172.695313 135.375 172.390625 134.992188 172.179688 C 134.554688 171.941406 134.125 171.882813 133.710938 172.007813 C 133.292969 172.132813 132.933594 172.4375 132.632813 172.914063 Z M 141.625 175.191406 L 141.171875 176.003906 C 141.015625 175.753906 140.832031 175.542969 140.625 175.363281 C 140.425781 175.175781 140.195313 175.015625 139.9375 174.878906 C 139.550781 174.660156 139.222656 174.566406 138.953125 174.597656 C 138.691406 174.621094 138.492188 174.761719 138.359375 175.019531 C 138.242188 175.21875 138.222656 175.410156 138.296875 175.597656 C 138.367188 175.785156 138.59375 176.046875 138.96875 176.378906 L 139.171875 176.597656 C 139.671875 177.035156 139.96875 177.441406 140.0625 177.816406 C 140.164063 178.183594 140.101563 178.574219 139.875 179.003906 C 139.601563 179.480469 139.210938 179.773438 138.703125 179.878906 C 138.203125 179.980469 137.644531 179.867188 137.03125 179.535156 C 136.769531 179.386719 136.519531 179.210938 136.28125 179.003906 C 136.039063 178.804688 135.796875 178.566406 135.546875 178.285156 L 136.03125 177.394531 C 136.226563 177.71875 136.445313 177.996094 136.6875 178.222656 C 136.925781 178.460938 137.179688 178.652344 137.453125 178.800781 C 137.816406 178.996094 138.132813 179.082031 138.40625 179.050781 C 138.6875 179.019531 138.894531 178.878906 139.03125 178.628906 C 139.164063 178.386719 139.191406 178.171875 139.109375 177.972656 C 139.035156 177.765625 138.785156 177.472656 138.359375 177.097656 L 138.140625 176.878906 C 137.710938 176.503906 137.453125 176.144531 137.359375 175.800781 C 137.273438 175.449219 137.34375 175.0625 137.5625 174.644531 C 137.832031 174.15625 138.195313 173.863281 138.65625 173.769531 C 139.125 173.667969 139.648438 173.769531 140.234375 174.082031 C 140.523438 174.238281 140.785156 174.410156 141.015625 174.597656 C 141.253906 174.785156 141.457031 174.984375 141.625 175.191406 Z M 147.378906 176.878906 L 144.394531 182.347656 L 145.425781 182.910156 C 146.300781 183.386719 147.058594 183.519531 147.707031 183.300781 C 148.351563 183.082031 148.933594 182.492188 149.457031 181.535156 C 149.964844 180.597656 150.136719 179.800781 149.972656 179.144531 C 149.804688 178.488281 149.285156 177.921875 148.410156 177.441406 Z M 146.925781 175.628906 L 148.691406 176.582031 C 149.917969 177.25 150.664063 178.019531 150.925781 178.894531 C 151.195313 179.769531 151.003906 180.8125 150.347656 182.019531 C 149.679688 183.238281 148.902344 183.972656 148.019531 184.222656 C 147.144531 184.480469 146.089844 184.277344 144.863281 183.613281 L 143.097656 182.660156 Z M 154.964844 183.324219 C 154.902344 183.210938 154.824219 183.113281 154.730469 183.027344 C 154.644531 182.945313 154.546875 182.871094 154.433594 182.808594 C 153.984375 182.558594 153.550781 182.535156 153.136719 182.730469 C 152.730469 182.929688 152.363281 183.324219 152.042969 183.917969 L 150.527344 186.699219 L 149.730469 186.261719 L 152.605469 180.980469 L 153.402344 181.417969 L 152.949219 182.246094 C 153.292969 182.019531 153.636719 181.898438 153.980469 181.886719 C 154.324219 181.867188 154.683594 181.960938 155.058594 182.167969 C 155.109375 182.191406 155.167969 182.226563 155.230469 182.277344 C 155.300781 182.320313 155.371094 182.367188 155.433594 182.417969 Z M 156.21875 182.953125 L 157 183.375 L 154.125 188.65625 L 153.34375 188.234375 Z M 157.34375 180.890625 L 158.125 181.3125 L 157.53125 182.40625 L 156.75 181.984375 Z M 158.074219 183.957031 L 158.886719 184.410156 L 157.964844 189.644531 L 161.871094 186.035156 L 162.699219 186.472656 L 158.027344 190.785156 L 156.980469 190.207031 Z M 166.53125 191.695313 L 166.296875 192.132813 L 162.703125 190.179688 C 162.410156 190.796875 162.320313 191.335938 162.4375 191.804688 C 162.5625 192.261719 162.878906 192.632813 163.390625 192.914063 C 163.691406 193.078125 164.003906 193.199219 164.328125 193.273438 C 164.660156 193.34375 165.007813 193.382813 165.375 193.382813 L 164.9375 194.179688 C 164.570313 194.167969 164.222656 194.117188 163.890625 194.023438 C 163.566406 193.9375 163.253906 193.8125 162.953125 193.648438 C 162.191406 193.230469 161.722656 192.65625 161.546875 191.929688 C 161.367188 191.203125 161.507813 190.414063 161.96875 189.570313 C 162.4375 188.707031 163.019531 188.140625 163.71875 187.867188 C 164.414063 187.585938 165.117188 187.640625 165.828125 188.023438 C 166.460938 188.378906 166.84375 188.882813 166.96875 189.539063 C 167.101563 190.195313 166.957031 190.914063 166.53125 191.695313 Z M 165.890625 191.023438 C 166.128906 190.546875 166.210938 190.101563 166.140625 189.695313 C 166.066406 189.289063 165.835938 188.984375 165.453125 188.773438 C 165.015625 188.535156 164.585938 188.476563 164.171875 188.601563 C 163.753906 188.726563 163.394531 189.03125 163.09375 189.507813 Z M 165.890625 191.023438 "/>
<path style=" stroke:none;fill-rule:evenodd;fill:rgb(20%,20%,20%);fill-opacity:1;" d="M 87.527344 155.414063 L 87.964844 156.367188 C 87.546875 156.328125 87.167969 156.335938 86.824219 156.398438 C 86.480469 156.453125 86.167969 156.539063 85.886719 156.664063 C 85.410156 156.894531 85.089844 157.175781 84.933594 157.507813 C 84.769531 157.832031 84.773438 158.179688 84.949219 158.554688 C 85.097656 158.878906 85.292969 159.085938 85.542969 159.179688 C 85.792969 159.265625 86.183594 159.242188 86.714844 159.117188 L 87.292969 158.976563 C 88.019531 158.820313 88.625 158.847656 89.105469 159.054688 C 89.582031 159.265625 89.957031 159.660156 90.230469 160.242188 C 90.5625 160.953125 90.597656 161.585938 90.339844 162.148438 C 90.078125 162.710938 89.535156 163.179688 88.714844 163.554688 C 88.402344 163.703125 88.050781 163.816406 87.667969 163.898438 C 87.28125 163.984375 86.871094 164.035156 86.433594 164.054688 L 85.980469 163.054688 C 86.4375 163.109375 86.863281 163.113281 87.261719 163.070313 C 87.667969 163.019531 88.03125 162.914063 88.355469 162.757813 C 88.863281 162.53125 89.203125 162.242188 89.371094 161.898438 C 89.546875 161.546875 89.542969 161.164063 89.355469 160.757813 C 89.1875 160.394531 88.957031 160.160156 88.667969 160.054688 C 88.375 159.941406 87.972656 159.9375 87.464844 160.039063 L 86.886719 160.179688 C 86.15625 160.335938 85.574219 160.328125 85.136719 160.148438 C 84.699219 159.972656 84.351563 159.609375 84.089844 159.054688 C 83.789063 158.410156 83.757813 157.804688 83.996094 157.242188 C 84.226563 156.679688 84.699219 156.234375 85.417969 155.898438 C 85.730469 155.753906 86.058594 155.644531 86.402344 155.570313 C 86.753906 155.488281 87.128906 155.4375 87.527344 155.414063 Z M 95.542969 158.414063 L 95.605469 158.898438 L 91.542969 159.445313 C 91.675781 160.113281 91.933594 160.597656 92.308594 160.898438 C 92.691406 161.203125 93.171875 161.316406 93.746094 161.242188 C 94.089844 161.191406 94.410156 161.101563 94.714844 160.976563 C 95.015625 160.84375 95.3125 160.664063 95.605469 160.445313 L 95.730469 161.351563 C 95.425781 161.550781 95.113281 161.710938 94.792969 161.835938 C 94.480469 161.960938 94.152344 162.046875 93.808594 162.085938 C 92.953125 162.203125 92.238281 162.019531 91.667969 161.539063 C 91.09375 161.050781 90.746094 160.332031 90.621094 159.382813 C 90.484375 158.414063 90.613281 157.613281 91.011719 156.976563 C 91.40625 156.34375 92.003906 155.972656 92.808594 155.867188 C 93.535156 155.765625 94.144531 155.941406 94.636719 156.398438 C 95.125 156.859375 95.425781 157.53125 95.542969 158.414063 Z M 94.621094 158.242188 C 94.535156 157.710938 94.34375 157.304688 94.042969 157.023438 C 93.738281 156.734375 93.371094 156.613281 92.933594 156.664063 C 92.441406 156.738281 92.066406 156.953125 91.808594 157.304688 C 91.546875 157.660156 91.4375 158.113281 91.480469 158.664063 Z M 96.511719 155.660156 L 97.433594 155.800781 L 98.371094 161.035156 L 100.792969 156.285156 L 101.714844 156.425781 L 98.839844 162.082031 L 97.636719 161.910156 Z M 106.753906 160.824219 L 106.613281 161.292969 L 102.707031 160.074219 C 102.539063 160.730469 102.558594 161.277344 102.769531 161.714844 C 102.988281 162.152344 103.371094 162.457031 103.925781 162.636719 C 104.257813 162.738281 104.585938 162.792969 104.910156 162.792969 C 105.242188 162.800781 105.589844 162.769531 105.957031 162.699219 L 105.691406 163.574219 C 105.324219 163.625 104.972656 163.640625 104.628906 163.621094 C 104.292969 163.597656 103.960938 163.535156 103.628906 163.433594 C 102.804688 163.171875 102.230469 162.699219 101.910156 162.011719 C 101.597656 161.324219 101.582031 160.527344 101.863281 159.621094 C 102.152344 158.683594 102.613281 158.011719 103.238281 157.605469 C 103.871094 157.199219 104.582031 157.117188 105.363281 157.355469 C 106.058594 157.574219 106.527344 157.996094 106.769531 158.621094 C 107.019531 159.238281 107.011719 159.972656 106.753906 160.824219 Z M 105.972656 160.277344 C 106.136719 159.769531 106.144531 159.320313 105.988281 158.933594 C 105.832031 158.539063 105.542969 158.273438 105.128906 158.136719 C 104.648438 157.992188 104.214844 158.027344 103.832031 158.246094 C 103.445313 158.457031 103.152344 158.820313 102.957031 159.339844 Z M 112.46875 162.453125 L 111.25 165.859375 L 110.40625 165.5625 L 111.625 162.171875 C 111.8125 161.640625 111.851563 161.210938 111.75 160.875 C 111.65625 160.542969 111.421875 160.308594 111.046875 160.171875 C 110.597656 160.015625 110.1875 160.054688 109.8125 160.28125 C 109.4375 160.5 109.15625 160.886719 108.96875 161.4375 L 107.8125 164.640625 L 106.96875 164.328125 L 109 158.671875 L 109.84375 158.984375 L 109.53125 159.859375 C 109.84375 159.589844 110.164063 159.417969 110.5 159.34375 C 110.832031 159.273438 111.179688 159.304688 111.546875 159.4375 C 112.117188 159.648438 112.484375 160.007813 112.640625 160.515625 C 112.804688 161.015625 112.75 161.664063 112.46875 162.453125 Z M 118.960938 160.511719 L 119.835938 160.964844 L 116.585938 167.277344 L 119.710938 168.886719 L 119.289063 169.699219 L 115.289063 167.636719 Z M 123.679688 168.621094 C 123.042969 168.277344 122.558594 168.128906 122.226563 168.167969 C 121.902344 168.199219 121.636719 168.410156 121.429688 168.792969 C 121.261719 169.097656 121.21875 169.386719 121.304688 169.667969 C 121.386719 169.949219 121.585938 170.171875 121.898438 170.339844 C 122.335938 170.578125 122.777344 170.59375 123.226563 170.386719 C 123.671875 170.1875 124.046875 169.8125 124.351563 169.261719 L 124.460938 169.042969 Z M 125.445313 169.136719 L 123.804688 172.152344 L 123.023438 171.714844 L 123.460938 170.917969 C 123.09375 171.144531 122.734375 171.261719 122.382813 171.261719 C 122.039063 171.269531 121.671875 171.171875 121.289063 170.964844 C 120.808594 170.703125 120.507813 170.34375 120.382813 169.886719 C 120.257813 169.429688 120.328125 168.941406 120.601563 168.417969 C 120.921875 167.824219 121.34375 167.476563 121.867188 167.371094 C 122.398438 167.257813 123.023438 167.394531 123.742188 167.777344 L 124.835938 168.371094 L 124.867188 168.292969 C 125.085938 167.886719 125.132813 167.511719 125.007813 167.167969 C 124.890625 166.824219 124.621094 166.535156 124.195313 166.292969 C 123.921875 166.148438 123.636719 166.042969 123.335938 165.980469 C 123.042969 165.910156 122.734375 165.882813 122.414063 165.902344 L 122.851563 165.105469 C 123.214844 165.136719 123.546875 165.195313 123.851563 165.277344 C 124.152344 165.363281 124.429688 165.472656 124.679688 165.605469 C 125.367188 165.980469 125.773438 166.460938 125.898438 167.042969 C 126.03125 167.628906 125.882813 168.324219 125.445313 169.136719 Z M 129.363281 165.640625 L 130.160156 166.078125 L 127.800781 170.421875 L 131.363281 169.40625 L 132.363281 169.953125 L 128.503906 171.046875 L 129.597656 175.296875 L 128.582031 174.734375 L 127.566406 170.84375 L 126.160156 173.421875 L 125.363281 172.984375 Z M 136.070313 175.101563 L 135.835938 175.539063 L 132.242188 173.585938 C 131.949219 174.203125 131.859375 174.742188 131.976563 175.210938 C 132.101563 175.667969 132.417969 176.039063 132.929688 176.320313 C 133.230469 176.484375 133.542969 176.605469 133.867188 176.679688 C 134.199219 176.75 134.546875 176.789063 134.914063 176.789063 L 134.476563 177.585938 C 134.109375 177.574219 133.761719 177.523438 133.429688 177.429688 C 133.105469 177.34375 132.792969 177.21875 132.492188 177.054688 C 131.730469 176.636719 131.261719 176.0625 131.085938 175.335938 C 130.90625 174.609375 131.046875 173.820313 131.507813 172.976563 C 131.976563 172.113281 132.558594 171.546875 133.257813 171.273438 C 133.953125 170.992188 134.65625 171.046875 135.367188 171.429688 C 136 171.785156 136.382813 172.289063 136.507813 172.945313 C 136.640625 173.601563 136.496094 174.320313 136.070313 175.101563 Z M 135.429688 174.429688 C 135.667969 173.953125 135.75 173.507813 135.679688 173.101563 C 135.605469 172.695313 135.375 172.390625 134.992188 172.179688 C 134.554688 171.941406 134.125 171.882813 133.710938 172.007813 C 133.292969 172.132813 132.933594 172.4375 132.632813 172.914063 Z M 141.625 175.191406 L 141.171875 176.003906 C 141.015625 175.753906 140.832031 175.542969 140.625 175.363281 C 140.425781 175.175781 140.195313 175.015625 139.9375 174.878906 C 139.550781 174.660156 139.222656 174.566406 138.953125 174.597656 C 138.691406 174.621094 138.492188 174.761719 138.359375 175.019531 C 138.242188 175.21875 138.222656 175.410156 138.296875 175.597656 C 138.367188 175.785156 138.59375 176.046875 138.96875 176.378906 L 139.171875 176.597656 C 139.671875 177.035156 139.96875 177.441406 140.0625 177.816406 C 140.164063 178.183594 140.101563 178.574219 139.875 179.003906 C 139.601563 179.480469 139.210938 179.773438 138.703125 179.878906 C 138.203125 179.980469 137.644531 179.867188 137.03125 179.535156 C 136.769531 179.386719 136.519531 179.210938 136.28125 179.003906 C 136.039063 178.804688 135.796875 178.566406 135.546875 178.285156 L 136.03125 177.394531 C 136.226563 177.71875 136.445313 177.996094 136.6875 178.222656 C 136.925781 178.460938 137.179688 178.652344 137.453125 178.800781 C 137.816406 178.996094 138.132813 179.082031 138.40625 179.050781 C 138.6875 179.019531 138.894531 178.878906 139.03125 178.628906 C 139.164063 178.386719 139.191406 178.171875 139.109375 177.972656 C 139.035156 177.765625 138.785156 177.472656 138.359375 177.097656 L 138.140625 176.878906 C 137.710938 176.503906 137.453125 176.144531 137.359375 175.800781 C 137.273438 175.449219 137.34375 175.0625 137.5625 174.644531 C 137.832031 174.15625 138.195313 173.863281 138.65625 173.769531 C 139.125 173.667969 139.648438 173.769531 140.234375 174.082031 C 140.523438 174.238281 140.785156 174.410156 141.015625 174.597656 C 141.253906 174.785156 141.457031 174.984375 141.625 175.191406 Z M 147.378906 176.878906 L 144.394531 182.347656 L 145.425781 182.910156 C 146.300781 183.386719 147.058594 183.519531 147.707031 183.300781 C 148.351563 183.082031 148.933594 182.492188 149.457031 181.535156 C 149.964844 180.597656 150.136719 179.800781 149.972656 179.144531 C 149.804688 178.488281 149.285156 177.921875 148.410156 177.441406 Z M 146.925781 175.628906 L 148.691406 176.582031 C 149.917969 177.25 150.664063 178.019531 150.925781 178.894531 C 151.195313 179.769531 151.003906 180.8125 150.347656 182.019531 C 149.679688 183.238281 148.902344 183.972656 148.019531 184.222656 C 147.144531 184.480469 146.089844 184.277344 144.863281 183.613281 L 143.097656 182.660156 Z M 154.964844 183.324219 C 154.902344 183.210938 154.824219 183.113281 154.730469 183.027344 C 154.644531 182.945313 154.546875 182.871094 154.433594 182.808594 C 153.984375 182.558594 153.550781 182.535156 153.136719 182.730469 C 152.730469 182.929688 152.363281 183.324219 152.042969 183.917969 L 150.527344 186.699219 L 149.730469 186.261719 L 152.605469 180.980469 L 153.402344 181.417969 L 152.949219 182.246094 C 153.292969 182.019531 153.636719 181.898438 153.980469 181.886719 C 154.324219 181.867188 154.683594 181.960938 155.058594 182.167969 C 155.109375 182.191406 155.167969 182.226563 155.230469 182.277344 C 155.300781 182.320313 155.371094 182.367188 155.433594 182.417969 Z M 156.21875 182.953125 L 157 183.375 L 154.125 188.65625 L 153.34375 188.234375 Z M 157.34375 180.890625 L 158.125 181.3125 L 157.53125 182.40625 L 156.75 181.984375 Z M 158.074219 183.957031 L 158.886719 184.410156 L 157.964844 189.644531 L 161.871094 186.035156 L 162.699219 186.472656 L 158.027344 190.785156 L 156.980469 190.207031 Z M 166.53125 191.695313 L 166.296875 192.132813 L 162.703125 190.179688 C 162.410156 190.796875 162.320313 191.335938 162.4375 191.804688 C 162.5625 192.261719 162.878906 192.632813 163.390625 192.914063 C 163.691406 193.078125 164.003906 193.199219 164.328125 193.273438 C 164.660156 193.34375 165.007813 193.382813 165.375 193.382813 L 164.9375 194.179688 C 164.570313 194.167969 164.222656 194.117188 163.890625 194.023438 C 163.566406 193.9375 163.253906 193.8125 162.953125 193.648438 C 162.191406 193.230469 161.722656 192.65625 161.546875 191.929688 C 161.367188 191.203125 161.507813 190.414063 161.96875 189.570313 C 162.4375 188.707031 163.019531 188.140625 163.71875 187.867188 C 164.414063 187.585938 165.117188 187.640625 165.828125 188.023438 C 166.460938 188.378906 166.84375 188.882813 166.96875 189.539063 C 167.101563 190.195313 166.957031 190.914063 166.53125 191.695313 Z M 165.890625 191.023438 C 166.128906 190.546875 166.210938 190.101563 166.140625 189.695313 C 166.066406 189.289063 165.835938 188.984375 165.453125 188.773438 C 165.015625 188.535156 164.585938 188.476563 164.171875 188.601563 C 163.753906 188.726563 163.394531 189.03125 163.09375 189.507813 Z M 165.890625 191.023438 "/>
</g>
</svg>

