<?xml version="1.0" encoding="UTF-8"?>
<svg xmlns="http://www.w3.org/2000/svg" xmlns:xlink="http://www.w3.org/1999/xlink" width="256pt" height="256pt" viewBox="0 0 256 256" version="1.1">
<g id="surface2">
<rect x="0" y="0" width="256" height="256" style="fill:rgb(94.901961%,93.72549%,91.372549%);fill-opacity:1;stroke:none;"/>
<path style="fill:none;stroke-width:5;stroke-linecap:round;stroke-linejoin:round;stroke:rgb(80.392157%,79.607843%,77.647059%);stroke-opacity:0.498039;stroke-miterlimit:10;" d="M -6 41.234375 L 11.855469 42.15625 L 15.160156 42.078125 L 31.550781 42.769531 L 39.304688 43.421875 L 46.140625 43.132813 L 54.816406 43.210938 L 90.410156 42.378906 L 98.132813 42.273438 L 101.289063 42.355469 L 117.402344 42.464844 L 134.675781 42.136719 L 172.808594 41.089844 L 179 41.226563 L 184.445313 41.457031 L 211.980469 40.46875 L 224.347656 39.964844 L 242.4375 39.621094 L 261 39.5625 "/>
<path style="fill:none;stroke-width:1;stroke-linecap:round;stroke-linejoin:round;stroke:rgb(55.294118%,54.509804%,55.294118%);stroke-opacity:1;stroke-miterlimit:10;" d="M -6 41.234375 L 11.855469 42.15625 L 15.160156 42.078125 L 31.550781 42.769531 L 39.304688 43.421875 L 46.140625 43.132813 L 54.816406 43.210938 L 90.410156 42.378906 L 98.132813 42.273438 L 101.289063 42.355469 L 117.402344 42.464844 L 134.675781 42.136719 L 172.808594 41.089844 L 179 41.226563 L 184.445313 41.457031 L 211.980469 40.46875 L 224.347656 39.964844 L 242.4375 39.621094 L 261 39.5625 "/>
</g>
</svg>

