<?xml version="1.0" encoding="UTF-8"?>
<svg xmlns="http://www.w3.org/2000/svg" xmlns:xlink="http://www.w3.org/1999/xlink" width="256pt" height="256pt" viewBox="0 0 256 256" version="1.1">
<g id="surface2">
<rect x="0" y="0" width="256" height="256" style="fill:rgb(60%,70.196078%,80%);fill-opacity:1;stroke:none;"/>
<path style=" stroke:none;fill-rule:evenodd;fill:rgb(94.901961%,93.72549%,91.372549%);fill-opacity:1;" d="M 259 -4 L 200.101563 -4 L 191.488281 4.75 L 189.140625 6.308594 L 185.503906 10.652344 L 182.765625 13.316406 L 176.488281 11.457031 L 170.980469 12.699219 L 168.613281 15.460938 L 166.199219 17.234375 L 152.363281 8.875 L 141.863281 4.5 L 137.738281 4.75 L 124.96875 -2.203125 L 120.515625 -1.453125 L 118.265625 1.734375 L 149.332031 21.222656 L 139.285156 38.875 L 134.359375 48.769531 L 127.925781 59.8125 L 175.691406 87.5 L 180.128906 90.074219 L 183.664063 92.125 L 185.101563 92.15625 L 185.800781 93.320313 L 186.433594 93.679688 L 188.359375 94.847656 L 187.394531 96.527344 L 184.574219 101.453125 L 181.542969 106.738281 L 179.800781 105.84375 L 178.933594 107.21875 L 171.664063 103.511719 L 173.175781 100.699219 L 169.46875 98.574219 L 171.046875 95.554688 L 123.171875 67.570313 L 115.382813 81.125 L 170.28125 113.273438 L 165.570313 121.320313 L 159.394531 117.703125 L 146.269531 110.019531 L 134.867188 103.339844 L 134.019531 102.84375 L 123.28125 96.558594 L 113.28125 90.699219 L 110.671875 89.171875 L 98.363281 109.910156 L 98.738281 112.15625 L 96.988281 115.660156 L 92.90625 121.0625 L 83.917969 134.910156 L 125.269531 158.679688 L 157.730469 176.515625 L 158.027344 177.832031 L 157.664063 178.644531 L 155.21875 179.609375 L 156.121094 179.992188 L 154.167969 184.007813 L 153.214844 183.570313 L 152.328125 184.367188 L 151.261719 184.644531 L 150.148438 184.460938 L 147.949219 183.46875 L 146.855469 183.789063 L 140.273438 180.339844 L 118.679688 169.019531 L 81.0625 147.503906 L 79.785156 149.597656 L 76.46875 147.808594 L 68.839844 156.535156 L 69.472656 159.246094 L 75.496094 163.125 L 65.945313 178.65625 L 59.066406 191.949219 L 52.035156 188.550781 L 50.492188 191.101563 L 21.113281 173.78125 L -4 180.59375 L -4 259 L -4 -4 Z M 259 -4 "/>
<path style=" stroke:none;fill-rule:evenodd;fill:rgb(60%,70.196078%,80%);fill-opacity:1;" d="M -4 259 L 259 259 L 259 -4 L 200.101563 -4 L 191.488281 4.75 L 189.140625 6.308594 L 185.503906 10.652344 L 182.765625 13.316406 L 176.492188 11.457031 L 170.980469 12.699219 L 168.613281 15.460938 L 166.199219 17.234375 L 152.363281 8.875 L 141.863281 4.5 L 137.738281 4.75 L 124.96875 -2.203125 L 120.515625 -1.453125 L 118.265625 1.734375 L 149.332031 21.222656 L 139.285156 38.875 L 134.359375 48.769531 L 127.925781 59.8125 L 175.691406 87.5 L 180.128906 90.074219 L 183.664063 92.125 L 185.101563 92.15625 L 185.800781 93.320313 L 188.359375 94.847656 L 187.394531 96.527344 L 184.574219 101.453125 L 181.542969 106.738281 L 179.800781 105.84375 L 178.933594 107.21875 L 171.664063 103.511719 L 173.175781 100.699219 L 169.46875 98.574219 L 171.046875 95.554688 L 123.171875 67.570313 L 115.382813 81.125 L 170.28125 113.273438 L 165.570313 121.320313 L 159.394531 117.703125 L 146.269531 110.019531 L 134.867188 103.339844 L 123.285156 96.558594 L 113.28125 90.699219 L 110.671875 89.171875 L 98.363281 109.910156 L 98.738281 112.15625 L 96.988281 115.660156 L 92.90625 121.0625 L 83.917969 134.910156 L 125.269531 158.679688 L 157.730469 176.515625 L 158.027344 177.832031 L 155.21875 179.609375 L 154.167969 184.007813 L 153.214844 183.570313 L 152.328125 184.367188 L 151.261719 184.644531 L 150.148438 184.460938 L 147.949219 183.46875 L 146.855469 183.789063 L 140.273438 180.339844 L 118.679688 169.019531 L 81.0625 147.503906 L 79.785156 149.597656 L 76.46875 147.808594 L 68.839844 156.535156 L 69.472656 159.246094 L 75.496094 163.125 L 65.945313 178.660156 L 59.070313 191.949219 L 52.035156 188.550781 L 50.492188 191.101563 L 21.113281 173.78125 L -4 180.59375 Z M -4 259 "/>
<path style="fill:none;stroke-width:1;stroke-linecap:round;stroke-linejoin:round;stroke:rgb(70.196078%,77.647059%,83.137255%);stroke-opacity:1;stroke-miterlimit:10;" d="M -4 259 L 259 259 L 259 -4 L 200.101563 -4 L 191.488281 4.75 L 189.140625 6.308594 L 185.503906 10.652344 L 182.765625 13.316406 L 176.492188 11.457031 L 170.980469 12.699219 L 168.613281 15.460938 L 166.199219 17.234375 L 152.363281 8.875 L 141.863281 4.5 L 137.738281 4.75 L 124.96875 -2.203125 L 120.515625 -1.453125 L 118.265625 1.734375 L 149.332031 21.222656 L 139.285156 38.875 L 134.359375 48.769531 L 127.925781 59.8125 L 175.691406 87.5 L 180.128906 90.074219 L 183.664063 92.125 L 185.101563 92.15625 L 185.800781 93.320313 L 188.359375 94.847656 L 187.394531 96.527344 L 184.574219 101.453125 L 181.542969 106.738281 L 179.800781 105.84375 L 178.933594 107.21875 L 171.664063 103.511719 L 173.175781 100.699219 L 169.46875 98.574219 L 171.046875 95.554688 L 123.171875 67.570313 L 115.382813 81.125 L 170.28125 113.273438 L 165.570313 121.320313 L 159.394531 117.703125 L 146.269531 110.019531 L 134.867188 103.339844 L 123.285156 96.558594 L 113.28125 90.699219 L 110.671875 89.171875 L 98.363281 109.910156 L 98.738281 112.15625 L 96.988281 115.660156 L 92.90625 121.0625 L 83.917969 134.910156 L 125.269531 158.679688 L 157.730469 176.515625 L 158.027344 177.832031 L 155.21875 179.609375 L 154.167969 184.007813 L 153.214844 183.570313 L 152.328125 184.367188 L 151.261719 184.644531 L 150.148438 184.460938 L 147.949219 183.46875 L 146.855469 183.789063 L 140.273438 180.339844 L 118.679688 169.019531 L 81.0625 147.503906 L 79.785156 149.597656 L 76.46875 147.808594 L 68.839844 156.535156 L 69.472656 159.246094 L 75.496094 163.125 L 65.945313 178.660156 L 59.070313 191.949219 L 52.035156 188.550781 L 50.492188 191.101563 L 21.113281 173.78125 L -4 180.59375 L -4 259 "/>
<path style="fill:none;stroke-width:6;stroke-linecap:round;stroke-linejoin:round;stroke:rgb(60%,70.196078%,80%);stroke-opacity:1;stroke-miterlimit:10;" d="M 262 250.453125 L 258.546875 262 "/>
<path style="fill:none;stroke-width:1;stroke-linecap:butt;stroke-linejoin:round;stroke:rgb(46.666667%,46.666667%,46.666667%);stroke-opacity:0.4;stroke-dasharray:2,2;stroke-miterlimit:10;" d="M 257 126.890625 L 132.109375 55.171875 L 31.90625 -2 "/>
<path style="fill:none;stroke-width:1;stroke-linecap:butt;stroke-linejoin:round;stroke:rgb(46.666667%,46.666667%,46.666667%);stroke-opacity:0.4;stroke-dasharray:2,2;stroke-miterlimit:10;" d="M 24.792969 -2 L 257 130.703125 "/>
</g>
</svg>

