<?xml version="1.0" encoding="UTF-8"?>
<svg xmlns="http://www.w3.org/2000/svg" xmlns:xlink="http://www.w3.org/1999/xlink" width="256pt" height="256pt" viewBox="0 0 256 256" version="1.1">
<g id="surface2">
<rect x="0" y="0" width="256" height="256" style="fill:rgb(94.901961%,93.72549%,91.372549%);fill-opacity:1;stroke:none;"/>
<path style="fill:none;stroke-width:8;stroke-linecap:round;stroke-linejoin:round;stroke:rgb(75.686275%,70.980392%,61.568627%);stroke-opacity:1;stroke-miterlimit:10;" d="M -9 162.324219 L -2.132813 165.476563 L 1.617188 167.871094 L 23.101563 184.3125 L 28.976563 189.910156 L 34.777344 196.546875 L 41.8125 207.097656 L 46.054688 215.769531 L 49.410156 226.257813 L 51.414063 236.449219 L 52.230469 244.898438 L 52.425781 264 "/>
<path style="fill:none;stroke-width:6;stroke-linecap:round;stroke-linejoin:round;stroke:rgb(100%,99.215686%,54.509804%);stroke-opacity:1;stroke-miterlimit:10;" d="M -9 162.324219 L -2.132813 165.476563 L 1.617188 167.871094 L 23.101563 184.3125 L 28.976563 189.910156 L 34.777344 196.546875 L 41.8125 207.097656 L 46.054688 215.769531 L 49.410156 226.257813 L 51.414063 236.449219 L 52.230469 244.898438 L 52.425781 264 "/>
<path style="fill:none;stroke-width:3;stroke-linecap:round;stroke-linejoin:round;stroke:rgb(100%,100%,100%);stroke-opacity:1;stroke-miterlimit:10;" d="M 19.210938 181.558594 L 17.429688 183.886719 L 18.679688 184.839844 C 19.085938 185.152344 19.460938 185.285156 19.804688 185.246094 C 20.15625 185.214844 20.484375 185 20.789063 184.605469 C 21.089844 184.207031 21.210938 183.839844 21.148438 183.496094 C 21.09375 183.152344 20.867188 182.824219 20.460938 182.511719 Z M 21.226563 178.933594 L 19.742188 180.855469 L 20.882813 181.730469 C 21.265625 182.023438 21.609375 182.160156 21.914063 182.136719 C 22.226563 182.117188 22.507813 181.945313 22.757813 181.621094 C 22.996094 181.300781 23.085938 180.992188 23.023438 180.699219 C 22.96875 180.398438 22.75 180.101563 22.367188 179.808594 Z M 20.976563 177.636719 L 22.960938 179.152344 C 23.542969 179.601563 23.890625 180.085938 24.007813 180.605469 C 24.121094 181.128906 23.984375 181.644531 23.601563 182.152344 C 23.296875 182.539063 22.980469 182.785156 22.648438 182.886719 C 22.3125 182.980469 21.964844 182.933594 21.601563 182.746094 C 21.914063 183.132813 22.058594 183.546875 22.039063 183.996094 C 22.027344 184.453125 21.859375 184.894531 21.539063 185.324219 C 21.101563 185.886719 20.589844 186.1875 20.007813 186.230469 C 19.421875 186.28125 18.808594 186.0625 18.164063 185.574219 L 16.101563 183.996094 Z M 26.261719 185.496094 C 25.917969 185.164063 25.5 185.054688 25.011719 185.167969 C 24.53125 185.285156 24.042969 185.601563 23.542969 186.121094 C 23.050781 186.644531 22.761719 187.144531 22.667969 187.621094 C 22.582031 188.109375 22.714844 188.519531 23.058594 188.855469 C 23.410156 189.1875 23.828125 189.296875 24.308594 189.183594 C 24.796875 189.078125 25.285156 188.765625 25.777344 188.246094 C 26.277344 187.722656 26.566406 187.222656 26.652344 186.730469 C 26.746094 186.242188 26.613281 185.832031 26.261719 185.496094 Z M 26.839844 184.902344 C 27.402344 185.433594 27.644531 186.054688 27.574219 186.761719 C 27.511719 187.46875 27.136719 188.183594 26.449219 188.902344 C 25.78125 189.609375 25.09375 190.011719 24.386719 190.105469 C 23.675781 190.207031 23.042969 189.996094 22.480469 189.464844 C 21.917969 188.921875 21.671875 188.296875 21.746094 187.589844 C 21.816406 186.882813 22.1875 186.175781 22.855469 185.464844 C 23.542969 184.746094 24.234375 184.339844 24.933594 184.246094 C 25.640625 184.144531 26.277344 184.363281 26.839844 184.902344 Z M 31.148438 190.742188 C 31.117188 190.617188 31.070313 190.503906 31.007813 190.398438 C 30.953125 190.285156 30.882813 190.175781 30.789063 190.070313 C 30.433594 189.707031 30.03125 189.554688 29.585938 189.617188 C 29.136719 189.679688 28.667969 189.945313 28.179688 190.414063 L 25.882813 192.601563 L 25.257813 191.945313 L 29.601563 187.789063 L 30.226563 188.445313 L 29.554688 189.085938 C 29.949219 188.972656 30.3125 188.960938 30.648438 189.054688 C 30.980469 189.148438 31.296875 189.351563 31.601563 189.664063 C 31.640625 189.707031 31.683594 189.757813 31.726563 189.820313 C 31.777344 189.875 31.828125 189.941406 31.882813 190.023438 Z M 33.441406 196.15625 L 33.066406 196.46875 L 30.378906 193.390625 C 29.898438 193.871094 29.632813 194.347656 29.582031 194.828125 C 29.539063 195.316406 29.710938 195.78125 30.097656 196.21875 C 30.316406 196.476563 30.566406 196.695313 30.847656 196.875 C 31.128906 197.050781 31.441406 197.203125 31.785156 197.328125 L 31.097656 197.9375 C 30.761719 197.800781 30.457031 197.632813 30.175781 197.4375 C 29.894531 197.238281 29.644531 197.007813 29.425781 196.75 C 28.851563 196.09375 28.605469 195.390625 28.691406 194.640625 C 28.785156 193.890625 29.191406 193.203125 29.910156 192.578125 C 30.648438 191.933594 31.394531 191.605469 32.144531 191.59375 C 32.902344 191.574219 33.550781 191.867188 34.082031 192.46875 C 34.558594 193.023438 34.738281 193.625 34.613281 194.28125 C 34.496094 194.9375 34.105469 195.5625 33.441406 196.15625 Z M 33.082031 195.296875 C 33.476563 194.921875 33.710938 194.53125 33.785156 194.125 C 33.855469 193.730469 33.753906 193.367188 33.472656 193.03125 C 33.136719 192.65625 32.753906 192.460938 32.316406 192.4375 C 31.886719 192.40625 31.445313 192.5625 30.988281 192.90625 Z M 35.480469 199.40625 C 35.074219 198.8125 34.714844 198.453125 34.402344 198.328125 C 34.089844 198.214844 33.753906 198.277344 33.402344 198.515625 C 33.109375 198.710938 32.933594 198.957031 32.871094 199.25 C 32.816406 199.539063 32.894531 199.832031 33.105469 200.125 C 33.386719 200.539063 33.769531 200.757813 34.261719 200.78125 C 34.75 200.800781 35.261719 200.632813 35.792969 200.28125 L 35.980469 200.140625 Z M 36.808594 200.640625 L 33.980469 202.59375 L 33.480469 201.859375 L 34.230469 201.34375 C 33.8125 201.375 33.449219 201.316406 33.136719 201.171875 C 32.824219 201.023438 32.542969 200.769531 32.292969 200.40625 C 31.980469 199.945313 31.871094 199.484375 31.964844 199.015625 C 32.066406 198.546875 32.359375 198.152344 32.839844 197.828125 C 33.402344 197.445313 33.9375 197.324219 34.449219 197.46875 C 34.957031 197.605469 35.441406 198.007813 35.902344 198.671875 L 36.605469 199.703125 L 36.683594 199.65625 C 37.058594 199.394531 37.269531 199.082031 37.324219 198.71875 C 37.386719 198.351563 37.277344 197.96875 36.996094 197.5625 C 36.828125 197.3125 36.625 197.089844 36.386719 196.890625 C 36.144531 196.695313 35.886719 196.53125 35.605469 196.40625 L 36.339844 195.890625 C 36.652344 196.078125 36.921875 196.28125 37.152344 196.5 C 37.378906 196.710938 37.578125 196.933594 37.746094 197.171875 C 38.183594 197.820313 38.324219 198.425781 38.167969 199 C 38.019531 199.582031 37.566406 200.128906 36.808594 200.640625 Z M 41.753906 203.679688 L 40.972656 204.210938 C 40.949219 203.90625 40.894531 203.625 40.800781 203.367188 C 40.714844 203.117188 40.589844 202.867188 40.425781 202.617188 C 40.175781 202.242188 39.925781 202.007813 39.675781 201.914063 C 39.433594 201.820313 39.191406 201.851563 38.941406 202.007813 C 38.753906 202.144531 38.648438 202.3125 38.628906 202.507813 C 38.605469 202.695313 38.675781 203.03125 38.832031 203.507813 L 38.941406 203.804688 C 39.167969 204.40625 39.242188 204.898438 39.160156 205.273438 C 39.074219 205.648438 38.832031 205.96875 38.425781 206.242188 C 37.964844 206.554688 37.492188 206.636719 37.003906 206.492188 C 36.511719 206.34375 36.074219 205.980469 35.691406 205.398438 C 35.523438 205.148438 35.378906 204.875 35.253906 204.585938 C 35.136719 204.292969 35.035156 203.960938 34.941406 203.585938 L 35.785156 203.023438 C 35.816406 203.40625 35.878906 203.757813 35.972656 204.070313 C 36.066406 204.390625 36.199219 204.683594 36.378906 204.945313 C 36.605469 205.289063 36.851563 205.507813 37.113281 205.601563 C 37.382813 205.703125 37.632813 205.679688 37.863281 205.523438 C 38.089844 205.375 38.214844 205.195313 38.238281 204.976563 C 38.269531 204.757813 38.183594 204.382813 37.988281 203.851563 L 37.894531 203.554688 C 37.695313 203.023438 37.636719 202.585938 37.722656 202.242188 C 37.804688 201.890625 38.042969 201.582031 38.441406 201.320313 C 38.910156 201.007813 39.367188 200.914063 39.816406 201.039063 C 40.273438 201.164063 40.683594 201.503906 41.050781 202.054688 C 41.238281 202.328125 41.386719 202.601563 41.503906 202.882813 C 41.617188 203.15625 41.699219 203.417969 41.753906 203.679688 Z M 43.988281 212.0625 C 43.996094 212.289063 43.929688 212.550781 43.785156 212.84375 C 43.648438 213.132813 43.425781 213.476563 43.113281 213.875 L 41.566406 215.703125 L 41.113281 214.765625 L 42.566406 213.03125 C 42.929688 212.582031 43.144531 212.21875 43.207031 211.9375 C 43.269531 211.664063 43.214844 211.351563 43.050781 211 L 42.582031 210.046875 L 39.535156 211.53125 L 39.097656 210.65625 L 46.300781 207.140625 L 47.269531 209.109375 C 47.632813 209.859375 47.730469 210.492188 47.566406 211.015625 C 47.398438 211.546875 46.964844 211.984375 46.269531 212.328125 C 45.820313 212.546875 45.398438 212.632813 45.003906 212.59375 C 44.617188 212.550781 44.277344 212.375 43.988281 212.0625 Z M 45.941406 208.40625 L 43.378906 209.65625 L 43.910156 210.75 C 44.117188 211.1875 44.382813 211.457031 44.707031 211.5625 C 45.027344 211.664063 45.402344 211.617188 45.832031 211.421875 C 46.246094 211.210938 46.507813 210.945313 46.613281 210.625 C 46.726563 210.3125 46.679688 209.9375 46.472656 209.5 Z M 47.578125 216.59375 C 47.410156 216.144531 47.082031 215.859375 46.59375 215.734375 C 46.113281 215.617188 45.535156 215.6875 44.859375 215.9375 C 44.179688 216.1875 43.695313 216.507813 43.40625 216.90625 C 43.113281 217.3125 43.050781 217.738281 43.21875 218.1875 C 43.382813 218.632813 43.707031 218.914063 44.1875 219.03125 C 44.664063 219.15625 45.242188 219.09375 45.921875 218.84375 C 46.597656 218.59375 47.082031 218.265625 47.375 217.859375 C 47.675781 217.460938 47.742188 217.039063 47.578125 216.59375 Z M 48.359375 216.296875 C 48.617188 217.023438 48.5625 217.691406 48.1875 218.296875 C 47.820313 218.898438 47.175781 219.375 46.25 219.71875 C 45.332031 220.050781 44.53125 220.109375 43.84375 219.890625 C 43.164063 219.671875 42.695313 219.195313 42.4375 218.46875 C 42.164063 217.738281 42.21875 217.070313 42.59375 216.46875 C 42.96875 215.863281 43.613281 215.398438 44.53125 215.0625 C 45.457031 214.71875 46.257813 214.65625 46.9375 214.875 C 47.613281 215.09375 48.085938 215.570313 48.359375 216.296875 Z M 47.476563 223.398438 C 47.257813 222.710938 47.011719 222.261719 46.742188 222.054688 C 46.480469 221.84375 46.140625 221.808594 45.726563 221.945313 C 45.402344 222.046875 45.171875 222.230469 45.039063 222.492188 C 44.902344 222.761719 44.890625 223.0625 45.007813 223.398438 C 45.152344 223.875 45.453125 224.195313 45.914063 224.351563 C 46.382813 224.515625 46.917969 224.5 47.523438 224.304688 L 47.757813 224.242188 Z M 48.414063 224.960938 L 45.132813 226.007813 L 44.867188 225.164063 L 45.726563 224.882813 C 45.308594 224.796875 44.96875 224.636719 44.710938 224.398438 C 44.460938 224.167969 44.265625 223.84375 44.132813 223.429688 C 43.964844 222.898438 43.996094 222.421875 44.226563 222.007813 C 44.453125 221.589844 44.851563 221.292969 45.414063 221.117188 C 46.058594 220.910156 46.601563 220.945313 47.039063 221.226563 C 47.484375 221.507813 47.835938 222.039063 48.085938 222.820313 L 48.476563 224.007813 L 48.570313 223.976563 C 49.007813 223.839844 49.304688 223.601563 49.460938 223.257813 C 49.617188 222.921875 49.617188 222.527344 49.460938 222.070313 C 49.367188 221.777344 49.234375 221.5 49.070313 221.242188 C 48.902344 220.992188 48.695313 220.765625 48.445313 220.554688 L 49.320313 220.273438 C 49.558594 220.546875 49.757813 220.816406 49.914063 221.085938 C 50.070313 221.355469 50.1875 221.625 50.273438 221.898438 C 50.511719 222.648438 50.476563 223.273438 50.164063 223.773438 C 49.859375 224.28125 49.277344 224.679688 48.414063 224.960938 Z M 51.21875 229.816406 L 54.40625 229.160156 L 54.59375 230.035156 L 46.40625 231.738281 L 46.21875 230.863281 L 47.109375 230.675781 C 46.710938 230.558594 46.398438 230.378906 46.171875 230.128906 C 45.941406 229.886719 45.785156 229.574219 45.703125 229.191406 C 45.566406 228.554688 45.738281 227.972656 46.21875 227.441406 C 46.707031 226.917969 47.414063 226.566406 48.34375 226.378906 C 49.269531 226.183594 50.054688 226.222656 50.703125 226.503906 C 51.359375 226.792969 51.753906 227.257813 51.890625 227.894531 C 51.972656 228.277344 51.957031 228.628906 51.84375 228.941406 C 51.726563 229.261719 51.519531 229.554688 51.21875 229.816406 Z M 48.53125 227.285156 C 47.8125 227.429688 47.28125 227.675781 46.9375 228.019531 C 46.59375 228.363281 46.46875 228.761719 46.5625 229.222656 C 46.65625 229.691406 46.929688 230.011719 47.390625 230.191406 C 47.847656 230.378906 48.4375 230.398438 49.15625 230.253906 C 49.863281 230.097656 50.390625 229.839844 50.734375 229.488281 C 51.085938 229.144531 51.21875 228.738281 51.125 228.269531 C 51.03125 227.808594 50.75 227.492188 50.28125 227.316406 C 49.820313 227.136719 49.238281 227.128906 48.53125 227.285156 Z M 48.53125 227.285156 "/>
<path style=" stroke:none;fill-rule:evenodd;fill:rgb(20%,20%,20%);fill-opacity:1;" d="M 19.210938 181.558594 L 17.429688 183.886719 L 18.679688 184.839844 C 19.085938 185.152344 19.460938 185.285156 19.804688 185.246094 C 20.15625 185.214844 20.484375 185 20.789063 184.605469 C 21.089844 184.207031 21.210938 183.839844 21.148438 183.496094 C 21.09375 183.152344 20.867188 182.824219 20.460938 182.511719 Z M 21.226563 178.933594 L 19.742188 180.855469 L 20.882813 181.730469 C 21.265625 182.023438 21.609375 182.160156 21.914063 182.136719 C 22.226563 182.117188 22.507813 181.945313 22.757813 181.621094 C 22.996094 181.300781 23.085938 180.992188 23.023438 180.699219 C 22.96875 180.398438 22.75 180.101563 22.367188 179.808594 Z M 20.976563 177.636719 L 22.960938 179.152344 C 23.542969 179.601563 23.890625 180.085938 24.007813 180.605469 C 24.121094 181.128906 23.984375 181.644531 23.601563 182.152344 C 23.296875 182.539063 22.980469 182.785156 22.648438 182.886719 C 22.3125 182.980469 21.964844 182.933594 21.601563 182.746094 C 21.914063 183.132813 22.058594 183.546875 22.039063 183.996094 C 22.027344 184.453125 21.859375 184.894531 21.539063 185.324219 C 21.101563 185.886719 20.589844 186.1875 20.007813 186.230469 C 19.421875 186.28125 18.808594 186.0625 18.164063 185.574219 L 16.101563 183.996094 Z M 26.261719 185.496094 C 25.917969 185.164063 25.5 185.054688 25.011719 185.167969 C 24.53125 185.285156 24.042969 185.601563 23.542969 186.121094 C 23.050781 186.644531 22.761719 187.144531 22.667969 187.621094 C 22.582031 188.109375 22.714844 188.519531 23.058594 188.855469 C 23.410156 189.1875 23.828125 189.296875 24.308594 189.183594 C 24.796875 189.078125 25.285156 188.765625 25.777344 188.246094 C 26.277344 187.722656 26.566406 187.222656 26.652344 186.730469 C 26.746094 186.242188 26.613281 185.832031 26.261719 185.496094 Z M 26.839844 184.902344 C 27.402344 185.433594 27.644531 186.054688 27.574219 186.761719 C 27.511719 187.46875 27.136719 188.183594 26.449219 188.902344 C 25.78125 189.609375 25.09375 190.011719 24.386719 190.105469 C 23.675781 190.207031 23.042969 189.996094 22.480469 189.464844 C 21.917969 188.921875 21.671875 188.296875 21.746094 187.589844 C 21.816406 186.882813 22.1875 186.175781 22.855469 185.464844 C 23.542969 184.746094 24.234375 184.339844 24.933594 184.246094 C 25.640625 184.144531 26.277344 184.363281 26.839844 184.902344 Z M 31.148438 190.742188 C 31.117188 190.617188 31.070313 190.503906 31.007813 190.398438 C 30.953125 190.285156 30.882813 190.175781 30.789063 190.070313 C 30.433594 189.707031 30.03125 189.554688 29.585938 189.617188 C 29.136719 189.679688 28.667969 189.945313 28.179688 190.414063 L 25.882813 192.601563 L 25.257813 191.945313 L 29.601563 187.789063 L 30.226563 188.445313 L 29.554688 189.085938 C 29.949219 188.972656 30.3125 188.960938 30.648438 189.054688 C 30.980469 189.148438 31.296875 189.351563 31.601563 189.664063 C 31.640625 189.707031 31.683594 189.757813 31.726563 189.820313 C 31.777344 189.875 31.828125 189.941406 31.882813 190.023438 Z M 33.441406 196.15625 L 33.066406 196.46875 L 30.378906 193.390625 C 29.898438 193.871094 29.632813 194.347656 29.582031 194.828125 C 29.539063 195.316406 29.710938 195.78125 30.097656 196.21875 C 30.316406 196.476563 30.566406 196.695313 30.847656 196.875 C 31.128906 197.050781 31.441406 197.203125 31.785156 197.328125 L 31.097656 197.9375 C 30.761719 197.800781 30.457031 197.632813 30.175781 197.4375 C 29.894531 197.238281 29.644531 197.007813 29.425781 196.75 C 28.851563 196.09375 28.605469 195.390625 28.691406 194.640625 C 28.785156 193.890625 29.191406 193.203125 29.910156 192.578125 C 30.648438 191.933594 31.394531 191.605469 32.144531 191.59375 C 32.902344 191.574219 33.550781 191.867188 34.082031 192.46875 C 34.558594 193.023438 34.738281 193.625 34.613281 194.28125 C 34.496094 194.9375 34.105469 195.5625 33.441406 196.15625 Z M 33.082031 195.296875 C 33.476563 194.921875 33.710938 194.53125 33.785156 194.125 C 33.855469 193.730469 33.753906 193.367188 33.472656 193.03125 C 33.136719 192.65625 32.753906 192.460938 32.316406 192.4375 C 31.886719 192.40625 31.445313 192.5625 30.988281 192.90625 Z M 35.480469 199.40625 C 35.074219 198.8125 34.714844 198.453125 34.402344 198.328125 C 34.089844 198.214844 33.753906 198.277344 33.402344 198.515625 C 33.109375 198.710938 32.933594 198.957031 32.871094 199.25 C 32.816406 199.539063 32.894531 199.832031 33.105469 200.125 C 33.386719 200.539063 33.769531 200.757813 34.261719 200.78125 C 34.75 200.800781 35.261719 200.632813 35.792969 200.28125 L 35.980469 200.140625 Z M 36.808594 200.640625 L 33.980469 202.59375 L 33.480469 201.859375 L 34.230469 201.34375 C 33.8125 201.375 33.449219 201.316406 33.136719 201.171875 C 32.824219 201.023438 32.542969 200.769531 32.292969 200.40625 C 31.980469 199.945313 31.871094 199.484375 31.964844 199.015625 C 32.066406 198.546875 32.359375 198.152344 32.839844 197.828125 C 33.402344 197.445313 33.9375 197.324219 34.449219 197.46875 C 34.957031 197.605469 35.441406 198.007813 35.902344 198.671875 L 36.605469 199.703125 L 36.683594 199.65625 C 37.058594 199.394531 37.269531 199.082031 37.324219 198.71875 C 37.386719 198.351563 37.277344 197.96875 36.996094 197.5625 C 36.828125 197.3125 36.625 197.089844 36.386719 196.890625 C 36.144531 196.695313 35.886719 196.53125 35.605469 196.40625 L 36.339844 195.890625 C 36.652344 196.078125 36.921875 196.28125 37.152344 196.5 C 37.378906 196.710938 37.578125 196.933594 37.746094 197.171875 C 38.183594 197.820313 38.324219 198.425781 38.167969 199 C 38.019531 199.582031 37.566406 200.128906 36.808594 200.640625 Z M 41.753906 203.679688 L 40.972656 204.210938 C 40.949219 203.90625 40.894531 203.625 40.800781 203.367188 C 40.714844 203.117188 40.589844 202.867188 40.425781 202.617188 C 40.175781 202.242188 39.925781 202.007813 39.675781 201.914063 C 39.433594 201.820313 39.191406 201.851563 38.941406 202.007813 C 38.753906 202.144531 38.648438 202.3125 38.628906 202.507813 C 38.605469 202.695313 38.675781 203.03125 38.832031 203.507813 L 38.941406 203.804688 C 39.167969 204.40625 39.242188 204.898438 39.160156 205.273438 C 39.074219 205.648438 38.832031 205.96875 38.425781 206.242188 C 37.964844 206.554688 37.492188 206.636719 37.003906 206.492188 C 36.511719 206.34375 36.074219 205.980469 35.691406 205.398438 C 35.523438 205.148438 35.378906 204.875 35.253906 204.585938 C 35.136719 204.292969 35.035156 203.960938 34.941406 203.585938 L 35.785156 203.023438 C 35.816406 203.40625 35.878906 203.757813 35.972656 204.070313 C 36.066406 204.390625 36.199219 204.683594 36.378906 204.945313 C 36.605469 205.289063 36.851563 205.507813 37.113281 205.601563 C 37.382813 205.703125 37.632813 205.679688 37.863281 205.523438 C 38.089844 205.375 38.214844 205.195313 38.238281 204.976563 C 38.269531 204.757813 38.183594 204.382813 37.988281 203.851563 L 37.894531 203.554688 C 37.695313 203.023438 37.636719 202.585938 37.722656 202.242188 C 37.804688 201.890625 38.042969 201.582031 38.441406 201.320313 C 38.910156 201.007813 39.367188 200.914063 39.816406 201.039063 C 40.273438 201.164063 40.683594 201.503906 41.050781 202.054688 C 41.238281 202.328125 41.386719 202.601563 41.503906 202.882813 C 41.617188 203.15625 41.699219 203.417969 41.753906 203.679688 Z M 43.988281 212.0625 C 43.996094 212.289063 43.929688 212.550781 43.785156 212.84375 C 43.648438 213.132813 43.425781 213.476563 43.113281 213.875 L 41.566406 215.703125 L 41.113281 214.765625 L 42.566406 213.03125 C 42.929688 212.582031 43.144531 212.21875 43.207031 211.9375 C 43.269531 211.664063 43.214844 211.351563 43.050781 211 L 42.582031 210.046875 L 39.535156 211.53125 L 39.097656 210.65625 L 46.300781 207.140625 L 47.269531 209.109375 C 47.632813 209.859375 47.730469 210.492188 47.566406 211.015625 C 47.398438 211.546875 46.964844 211.984375 46.269531 212.328125 C 45.820313 212.546875 45.398438 212.632813 45.003906 212.59375 C 44.617188 212.550781 44.277344 212.375 43.988281 212.0625 Z M 45.941406 208.40625 L 43.378906 209.65625 L 43.910156 210.75 C 44.117188 211.1875 44.382813 211.457031 44.707031 211.5625 C 45.027344 211.664063 45.402344 211.617188 45.832031 211.421875 C 46.246094 211.210938 46.507813 210.945313 46.613281 210.625 C 46.726563 210.3125 46.679688 209.9375 46.472656 209.5 Z M 47.578125 216.59375 C 47.410156 216.144531 47.082031 215.859375 46.59375 215.734375 C 46.113281 215.617188 45.535156 215.6875 44.859375 215.9375 C 44.179688 216.1875 43.695313 216.507813 43.40625 216.90625 C 43.113281 217.3125 43.050781 217.738281 43.21875 218.1875 C 43.382813 218.632813 43.707031 218.914063 44.1875 219.03125 C 44.664063 219.15625 45.242188 219.09375 45.921875 218.84375 C 46.597656 218.59375 47.082031 218.265625 47.375 217.859375 C 47.675781 217.460938 47.742188 217.039063 47.578125 216.59375 Z M 48.359375 216.296875 C 48.617188 217.023438 48.5625 217.691406 48.1875 218.296875 C 47.820313 218.898438 47.175781 219.375 46.25 219.71875 C 45.332031 220.050781 44.53125 220.109375 43.84375 219.890625 C 43.164063 219.671875 42.695313 219.195313 42.4375 218.46875 C 42.164063 217.738281 42.21875 217.070313 42.59375 216.46875 C 42.96875 215.863281 43.613281 215.398438 44.53125 215.0625 C 45.457031 214.71875 46.257813 214.65625 46.9375 214.875 C 47.613281 215.09375 48.085938 215.570313 48.359375 216.296875 Z M 47.476563 223.398438 C 47.257813 222.710938 47.011719 222.261719 46.742188 222.054688 C 46.480469 221.84375 46.140625 221.808594 45.726563 221.945313 C 45.402344 222.046875 45.171875 222.230469 45.039063 222.492188 C 44.902344 222.761719 44.890625 223.0625 45.007813 223.398438 C 45.152344 223.875 45.453125 224.195313 45.914063 224.351563 C 46.382813 224.515625 46.917969 224.5 47.523438 224.304688 L 47.757813 224.242188 Z M 48.414063 224.960938 L 45.132813 226.007813 L 44.867188 225.164063 L 45.726563 224.882813 C 45.308594 224.796875 44.96875 224.636719 44.710938 224.398438 C 44.460938 224.167969 44.265625 223.84375 44.132813 223.429688 C 43.964844 222.898438 43.996094 222.421875 44.226563 222.007813 C 44.453125 221.589844 44.851563 221.292969 45.414063 221.117188 C 46.058594 220.910156 46.601563 220.945313 47.039063 221.226563 C 47.484375 221.507813 47.835938 222.039063 48.085938 222.820313 L 48.476563 224.007813 L 48.570313 223.976563 C 49.007813 223.839844 49.304688 223.601563 49.460938 223.257813 C 49.617188 222.921875 49.617188 222.527344 49.460938 222.070313 C 49.367188 221.777344 49.234375 221.5 49.070313 221.242188 C 48.902344 220.992188 48.695313 220.765625 48.445313 220.554688 L 49.320313 220.273438 C 49.558594 220.546875 49.757813 220.816406 49.914063 221.085938 C 50.070313 221.355469 50.1875 221.625 50.273438 221.898438 C 50.511719 222.648438 50.476563 223.273438 50.164063 223.773438 C 49.859375 224.28125 49.277344 224.679688 48.414063 224.960938 Z M 51.21875 229.816406 L 54.40625 229.160156 L 54.59375 230.035156 L 46.40625 231.738281 L 46.21875 230.863281 L 47.109375 230.675781 C 46.710938 230.558594 46.398438 230.378906 46.171875 230.128906 C 45.941406 229.886719 45.785156 229.574219 45.703125 229.191406 C 45.566406 228.554688 45.738281 227.972656 46.21875 227.441406 C 46.707031 226.917969 47.414063 226.566406 48.34375 226.378906 C 49.269531 226.183594 50.054688 226.222656 50.703125 226.503906 C 51.359375 226.792969 51.753906 227.257813 51.890625 227.894531 C 51.972656 228.277344 51.957031 228.628906 51.84375 228.941406 C 51.726563 229.261719 51.519531 229.554688 51.21875 229.816406 Z M 48.53125 227.285156 C 47.8125 227.429688 47.28125 227.675781 46.9375 228.019531 C 46.59375 228.363281 46.46875 228.761719 46.5625 229.222656 C 46.65625 229.691406 46.929688 230.011719 47.390625 230.191406 C 47.847656 230.378906 48.4375 230.398438 49.15625 230.253906 C 49.863281 230.097656 50.390625 229.839844 50.734375 229.488281 C 51.085938 229.144531 51.21875 228.738281 51.125 228.269531 C 51.03125 227.808594 50.75 227.492188 50.28125 227.316406 C 49.820313 227.136719 49.238281 227.128906 48.53125 227.285156 Z M 48.53125 227.285156 "/>
</g>
</svg>

