<?xml version="1.0" encoding="UTF-8"?>
<svg xmlns="http://www.w3.org/2000/svg" xmlns:xlink="http://www.w3.org/1999/xlink" width="256pt" height="256pt" viewBox="0 0 256 256" version="1.1">
<g id="surface2">
<rect x="0" y="0" width="256" height="256" style="fill:rgb(94.901961%,93.72549%,91.372549%);fill-opacity:1;stroke:none;"/>
<path style="fill:none;stroke-width:1;stroke-linecap:round;stroke-linejoin:round;stroke:rgb(100%,100%,100%);stroke-opacity:1;stroke-dasharray:2,3;stroke-miterlimit:10;" d="M 82.359375 162.410156 L 97.996094 180.496094 L 100.835938 183.085938 L 105.753906 185.804688 L 107.5 186.460938 L 110.25 186.066406 L 113.023438 185.148438 L 114.421875 184.230469 L 117.589844 180.660156 L 118.78125 178.070313 L 120.921875 169.550781 L 122.554688 164.605469 L 127.820313 153.628906 L 143.246094 129.316406 L 147.183594 124.464844 L 173.445313 100.382813 L 174.75 98.152344 L 177.382813 92.515625 L 179.96875 84.488281 L 180.785156 80.621094 L 181.15625 76.460938 L 180.785156 72.070313 L 179.96875 67.546875 L 178.664063 62.730469 L 174.679688 52.703125 L 172.464844 43.890625 L 169.695313 38.976563 L 168.972656 37.007813 L 168.691406 34.421875 L 168.691406 30.519531 L 169.226563 27.703125 L 173.027344 20.296875 L 174.796875 15.054688 L 176.195313 7.8125 L 177.617188 -1.855469 L 177.628906 -2 "/>
<path style="fill:none;stroke-width:3;stroke-linecap:round;stroke-linejoin:round;stroke:rgb(100%,100%,100%);stroke-opacity:1;stroke-miterlimit:10;" d="M 132.785156 140.285156 L 135.457031 143.550781 L 136.878906 141.300781 Z M 131.597656 140.175781 L 132.191406 139.238281 L 140.425781 141.222656 L 139.878906 142.066406 L 137.800781 141.519531 L 136.066406 144.269531 L 137.441406 145.925781 L 136.894531 146.800781 Z M 138.566406 134.621094 L 135.816406 132.871094 L 136.300781 132.121094 L 143.363281 136.605469 L 142.878906 137.355469 L 142.113281 136.871094 C 142.332031 137.226563 142.429688 137.570313 142.410156 137.902344 C 142.398438 138.226563 142.289063 138.558594 142.082031 138.902344 C 141.726563 139.457031 141.195313 139.753906 140.488281 139.792969 C 139.792969 139.824219 139.042969 139.585938 138.238281 139.074219 C 137.4375 138.566406 136.902344 137.988281 136.628906 137.339844 C 136.359375 136.683594 136.402344 136.082031 136.753906 135.527344 C 136.964844 135.183594 137.21875 134.941406 137.519531 134.792969 C 137.824219 134.648438 138.171875 134.589844 138.566406 134.621094 Z M 138.722656 138.308594 C 139.339844 138.707031 139.894531 138.902344 140.394531 138.902344 C 140.882813 138.894531 141.253906 138.691406 141.503906 138.292969 C 141.753906 137.886719 141.773438 137.460938 141.566406 137.011719 C 141.367188 136.566406 140.960938 136.144531 140.347656 135.746094 C 139.734375 135.363281 139.183594 135.175781 138.691406 135.183594 C 138.191406 135.183594 137.816406 135.386719 137.566406 135.792969 C 137.316406 136.191406 137.296875 136.613281 137.503906 137.058594 C 137.703125 137.507813 138.109375 137.925781 138.722656 138.308594 Z M 139.261719 131.832031 L 139.746094 131.082031 L 144.824219 134.300781 L 144.339844 135.050781 Z M 137.277344 130.566406 L 137.761719 129.816406 L 138.824219 130.488281 L 138.339844 131.238281 Z M 143.382813 127.414063 C 143.269531 127.46875 143.164063 127.535156 143.070313 127.617188 C 142.976563 127.691406 142.890625 127.785156 142.804688 127.898438 C 142.515625 128.316406 142.445313 128.738281 142.601563 129.164063 C 142.75 129.59375 143.097656 130 143.648438 130.382813 L 146.242188 132.210938 L 145.726563 132.945313 L 140.804688 129.492188 L 141.320313 128.757813 L 142.085938 129.289063 C 141.890625 128.925781 141.804688 128.570313 141.835938 128.226563 C 141.859375 127.882813 141.992188 127.539063 142.242188 127.195313 C 142.273438 127.144531 142.316406 127.085938 142.367188 127.023438 C 142.421875 126.960938 142.476563 126.898438 142.539063 126.835938 Z M 145.25 124.90625 C 144.9375 125.261719 144.851563 125.683594 144.984375 126.171875 C 145.109375 126.652344 145.445313 127.125 145.984375 127.59375 C 146.527344 128.0625 147.042969 128.328125 147.53125 128.390625 C 148.03125 128.453125 148.4375 128.308594 148.75 127.953125 C 149.070313 127.589844 149.164063 127.167969 149.03125 126.6875 C 148.894531 126.210938 148.554688 125.734375 148.015625 125.265625 C 147.472656 124.796875 146.960938 124.53125 146.46875 124.46875 C 145.980469 124.398438 145.574219 124.542969 145.25 124.90625 Z M 144.625 124.359375 C 145.136719 123.777344 145.75 123.507813 146.46875 123.546875 C 147.179688 123.578125 147.898438 123.917969 148.640625 124.5625 C 149.378906 125.210938 149.816406 125.886719 149.953125 126.59375 C 150.085938 127.292969 149.898438 127.933594 149.390625 128.515625 C 148.878906 129.101563 148.265625 129.375 147.546875 129.34375 C 146.839844 129.304688 146.117188 128.960938 145.375 128.3125 C 144.636719 127.667969 144.199219 126.996094 144.0625 126.296875 C 143.929688 125.589844 144.117188 124.945313 144.625 124.359375 Z M 152.476563 120.113281 L 154.929688 122.785156 L 154.273438 123.378906 L 151.851563 120.722656 C 151.453125 120.308594 151.089844 120.066406 150.757813 120.003906 C 150.425781 119.933594 150.113281 120.027344 149.820313 120.285156 C 149.46875 120.609375 149.304688 120.988281 149.335938 121.425781 C 149.359375 121.863281 149.566406 122.296875 149.960938 122.722656 L 152.257813 125.238281 L 151.585938 125.847656 L 147.523438 121.410156 L 148.195313 120.800781 L 148.820313 121.488281 C 148.726563 121.09375 148.726563 120.734375 148.820313 120.410156 C 148.914063 120.089844 149.101563 119.796875 149.382813 119.535156 C 149.84375 119.121094 150.332031 118.957031 150.851563 119.050781 C 151.371094 119.144531 151.914063 119.5 152.476563 120.113281 Z M 155.417969 115.398438 L 153.214844 113.007813 L 153.871094 112.414063 L 159.527344 118.570313 L 158.871094 119.164063 L 158.261719 118.492188 C 158.363281 118.898438 158.371094 119.265625 158.277344 119.585938 C 158.183594 119.898438 157.988281 120.1875 157.699219 120.445313 C 157.21875 120.894531 156.628906 121.046875 155.933594 120.898438 C 155.246094 120.753906 154.582031 120.328125 153.933594 119.617188 C 153.300781 118.921875 152.941406 118.222656 152.855469 117.523438 C 152.761719 116.828125 152.957031 116.253906 153.433594 115.804688 C 153.726563 115.546875 154.039063 115.382813 154.371094 115.320313 C 154.695313 115.25 155.042969 115.273438 155.417969 115.398438 Z M 154.605469 118.992188 C 155.105469 119.535156 155.589844 119.867188 156.058594 119.992188 C 156.535156 120.117188 156.949219 120.023438 157.292969 119.710938 C 157.644531 119.378906 157.78125 118.972656 157.699219 118.492188 C 157.625 118.003906 157.339844 117.488281 156.839844 116.945313 C 156.347656 116.414063 155.871094 116.09375 155.402344 115.976563 C 154.925781 115.851563 154.507813 115.957031 154.152344 116.289063 C 153.808594 116.601563 153.679688 117 153.761719 117.476563 C 153.835938 117.957031 154.117188 118.460938 154.605469 118.992188 Z M 160.640625 113.4375 C 160.109375 113.929688 159.808594 114.339844 159.734375 114.671875 C 159.652344 114.996094 159.761719 115.320313 160.0625 115.640625 C 160.289063 115.890625 160.550781 116.023438 160.84375 116.03125 C 161.132813 116.042969 161.414063 115.929688 161.6875 115.6875 C 162.050781 115.34375 162.207031 114.933594 162.15625 114.453125 C 162.113281 113.964844 161.878906 113.484375 161.453125 113.015625 L 161.296875 112.84375 Z M 161.671875 111.9375 L 164 114.46875 L 163.34375 115.078125 L 162.734375 114.40625 C 162.816406 114.8125 162.804688 115.183594 162.703125 115.515625 C 162.597656 115.851563 162.382813 116.164063 162.0625 116.453125 C 161.65625 116.828125 161.210938 117 160.734375 116.96875 C 160.265625 116.9375 159.835938 116.703125 159.4375 116.265625 C 158.980469 115.777344 158.789063 115.273438 158.859375 114.75 C 158.921875 114.21875 159.257813 113.679688 159.859375 113.125 L 160.78125 112.28125 L 160.71875 112.203125 C 160.40625 111.871094 160.070313 111.703125 159.703125 111.703125 C 159.339844 111.703125 158.976563 111.871094 158.609375 112.203125 C 158.390625 112.402344 158.199219 112.632813 158.03125 112.890625 C 157.867188 113.152344 157.734375 113.433594 157.640625 113.734375 L 157.03125 113.078125 C 157.179688 112.746094 157.34375 112.453125 157.53125 112.203125 C 157.710938 111.953125 157.902344 111.730469 158.109375 111.53125 C 158.695313 111 159.28125 110.765625 159.875 110.828125 C 160.457031 110.890625 161.054688 111.261719 161.671875 111.9375 Z M 164.3125 106.339844 L 164.9375 107.027344 C 164.648438 107.082031 164.386719 107.164063 164.15625 107.277344 C 163.917969 107.394531 163.699219 107.539063 163.5 107.714844 C 163.074219 108.113281 162.882813 108.566406 162.921875 109.074219 C 162.953125 109.585938 163.21875 110.113281 163.71875 110.652344 C 164.21875 111.195313 164.71875 111.511719 165.21875 111.605469 C 165.726563 111.691406 166.195313 111.535156 166.625 111.136719 C 166.820313 110.960938 166.988281 110.757813 167.125 110.527344 C 167.257813 110.300781 167.367188 110.042969 167.453125 109.761719 L 168.0625 110.433594 C 167.96875 110.707031 167.84375 110.957031 167.6875 111.183594 C 167.53125 111.402344 167.347656 111.613281 167.140625 111.808594 C 166.535156 112.363281 165.863281 112.589844 165.125 112.496094 C 164.386719 112.402344 163.6875 111.996094 163.03125 111.277344 C 162.375 110.558594 162.039063 109.832031 162.015625 109.089844 C 161.984375 108.351563 162.28125 107.699219 162.90625 107.136719 C 163.105469 106.949219 163.324219 106.789063 163.5625 106.652344 C 163.804688 106.519531 164.054688 106.414063 164.3125 106.339844 Z M 163.664063 103.429688 L 164.335938 102.820313 L 167.679688 106.460938 L 167.882813 102.742188 L 168.726563 101.976563 L 168.492188 105.992188 L 172.867188 106.335938 L 172.007813 107.117188 L 168.007813 106.804688 L 169.992188 108.976563 L 169.320313 109.585938 Z M 170.890625 97.9375 L 173.4375 99.53125 L 174.09375 98.5 C 174.335938 98.117188 174.414063 97.746094 174.328125 97.390625 C 174.234375 97.039063 173.984375 96.734375 173.578125 96.484375 C 173.171875 96.226563 172.792969 96.136719 172.4375 96.21875 C 172.085938 96.292969 171.789063 96.523438 171.546875 96.90625 Z M 169.625 98.28125 L 170.796875 96.421875 C 171.226563 95.734375 171.71875 95.328125 172.28125 95.203125 C 172.84375 95.070313 173.453125 95.210938 174.109375 95.625 C 174.777344 96.042969 175.179688 96.53125 175.3125 97.09375 C 175.4375 97.65625 175.289063 98.28125 174.859375 98.96875 L 174.203125 100 L 176.921875 101.71875 L 176.40625 102.546875 Z M 177.847656 93.496094 C 177.566406 94.164063 177.464844 94.660156 177.535156 94.980469 C 177.597656 95.304688 177.832031 95.550781 178.238281 95.714844 C 178.550781 95.851563 178.84375 95.863281 179.113281 95.746094 C 179.382813 95.632813 179.585938 95.414063 179.722656 95.089844 C 179.917969 94.632813 179.894531 94.191406 179.644531 93.761719 C 179.402344 93.335938 178.996094 93.003906 178.410156 92.761719 L 178.191406 92.667969 Z M 178.160156 91.699219 L 181.332031 93.027344 L 180.988281 93.839844 L 180.160156 93.496094 C 180.410156 93.832031 180.554688 94.167969 180.597656 94.511719 C 180.636719 94.855469 180.574219 95.230469 180.410156 95.636719 C 180.191406 96.148438 179.855469 96.488281 179.410156 96.652344 C 178.972656 96.820313 178.488281 96.792969 177.957031 96.574219 C 177.332031 96.316406 176.941406 95.929688 176.785156 95.417969 C 176.621094 94.910156 176.691406 94.277344 177.003906 93.527344 L 177.488281 92.371094 L 177.394531 92.339844 C 176.980469 92.164063 176.605469 92.152344 176.269531 92.308594 C 175.9375 92.457031 175.675781 92.757813 175.488281 93.214844 C 175.363281 93.488281 175.28125 93.777344 175.238281 94.089844 C 175.199219 94.394531 175.203125 94.707031 175.253906 95.027344 L 174.425781 94.667969 C 174.425781 94.304688 174.453125 93.972656 174.503906 93.667969 C 174.558594 93.367188 174.640625 93.082031 174.753906 92.808594 C 175.058594 92.089844 175.488281 91.636719 176.050781 91.449219 C 176.613281 91.261719 177.316406 91.347656 178.160156 91.699219 Z M 178.195313 86.453125 C 178.101563 86.527344 178.023438 86.617188 177.960938 86.71875 C 177.890625 86.824219 177.832031 86.9375 177.789063 87.0625 C 177.632813 87.554688 177.691406 87.984375 177.960938 88.359375 C 178.222656 88.726563 178.675781 89.011719 179.320313 89.21875 L 182.335938 90.1875 L 182.054688 91.046875 L 176.335938 89.203125 L 176.617188 88.34375 L 177.507813 88.625 C 177.21875 88.335938 177.035156 88.023438 176.960938 87.6875 C 176.878906 87.34375 176.90625 86.96875 177.039063 86.5625 C 177.0625 86.5 177.085938 86.433594 177.117188 86.359375 C 177.140625 86.289063 177.175781 86.21875 177.226563 86.15625 Z M 175.226563 84.855469 L 175.460938 83.980469 L 180.242188 85.199219 L 178.382813 81.980469 L 178.664063 80.871094 L 180.664063 84.355469 L 184.523438 82.277344 L 184.226563 83.386719 L 180.710938 85.324219 L 183.554688 86.058594 L 183.320313 86.933594 Z M 175.226563 84.855469 "/>
<path style=" stroke:none;fill-rule:evenodd;fill:rgb(20%,20%,20%);fill-opacity:1;" d="M 132.785156 140.285156 L 135.457031 143.550781 L 136.878906 141.300781 Z M 131.597656 140.175781 L 132.191406 139.238281 L 140.425781 141.222656 L 139.878906 142.066406 L 137.800781 141.519531 L 136.066406 144.269531 L 137.441406 145.925781 L 136.894531 146.800781 Z M 138.566406 134.621094 L 135.816406 132.871094 L 136.300781 132.121094 L 143.363281 136.605469 L 142.878906 137.355469 L 142.113281 136.871094 C 142.332031 137.226563 142.429688 137.570313 142.410156 137.902344 C 142.398438 138.226563 142.289063 138.558594 142.082031 138.902344 C 141.726563 139.457031 141.195313 139.753906 140.488281 139.792969 C 139.792969 139.824219 139.042969 139.585938 138.238281 139.074219 C 137.4375 138.566406 136.902344 137.988281 136.628906 137.339844 C 136.359375 136.683594 136.402344 136.082031 136.753906 135.527344 C 136.964844 135.183594 137.21875 134.941406 137.519531 134.792969 C 137.824219 134.648438 138.171875 134.589844 138.566406 134.621094 Z M 138.722656 138.308594 C 139.339844 138.707031 139.894531 138.902344 140.394531 138.902344 C 140.882813 138.894531 141.253906 138.691406 141.503906 138.292969 C 141.753906 137.886719 141.773438 137.460938 141.566406 137.011719 C 141.367188 136.566406 140.960938 136.144531 140.347656 135.746094 C 139.734375 135.363281 139.183594 135.175781 138.691406 135.183594 C 138.191406 135.183594 137.816406 135.386719 137.566406 135.792969 C 137.316406 136.191406 137.296875 136.613281 137.503906 137.058594 C 137.703125 137.507813 138.109375 137.925781 138.722656 138.308594 Z M 139.261719 131.832031 L 139.746094 131.082031 L 144.824219 134.300781 L 144.339844 135.050781 Z M 137.277344 130.566406 L 137.761719 129.816406 L 138.824219 130.488281 L 138.339844 131.238281 Z M 143.382813 127.414063 C 143.269531 127.46875 143.164063 127.535156 143.070313 127.617188 C 142.976563 127.691406 142.890625 127.785156 142.804688 127.898438 C 142.515625 128.316406 142.445313 128.738281 142.601563 129.164063 C 142.75 129.59375 143.097656 130 143.648438 130.382813 L 146.242188 132.210938 L 145.726563 132.945313 L 140.804688 129.492188 L 141.320313 128.757813 L 142.085938 129.289063 C 141.890625 128.925781 141.804688 128.570313 141.835938 128.226563 C 141.859375 127.882813 141.992188 127.539063 142.242188 127.195313 C 142.273438 127.144531 142.316406 127.085938 142.367188 127.023438 C 142.421875 126.960938 142.476563 126.898438 142.539063 126.835938 Z M 145.25 124.90625 C 144.9375 125.261719 144.851563 125.683594 144.984375 126.171875 C 145.109375 126.652344 145.445313 127.125 145.984375 127.59375 C 146.527344 128.0625 147.042969 128.328125 147.53125 128.390625 C 148.03125 128.453125 148.4375 128.308594 148.75 127.953125 C 149.070313 127.589844 149.164063 127.167969 149.03125 126.6875 C 148.894531 126.210938 148.554688 125.734375 148.015625 125.265625 C 147.472656 124.796875 146.960938 124.53125 146.46875 124.46875 C 145.980469 124.398438 145.574219 124.542969 145.25 124.90625 Z M 144.625 124.359375 C 145.136719 123.777344 145.75 123.507813 146.46875 123.546875 C 147.179688 123.578125 147.898438 123.917969 148.640625 124.5625 C 149.378906 125.210938 149.816406 125.886719 149.953125 126.59375 C 150.085938 127.292969 149.898438 127.933594 149.390625 128.515625 C 148.878906 129.101563 148.265625 129.375 147.546875 129.34375 C 146.839844 129.304688 146.117188 128.960938 145.375 128.3125 C 144.636719 127.667969 144.199219 126.996094 144.0625 126.296875 C 143.929688 125.589844 144.117188 124.945313 144.625 124.359375 Z M 152.476563 120.113281 L 154.929688 122.785156 L 154.273438 123.378906 L 151.851563 120.722656 C 151.453125 120.308594 151.089844 120.066406 150.757813 120.003906 C 150.425781 119.933594 150.113281 120.027344 149.820313 120.285156 C 149.46875 120.609375 149.304688 120.988281 149.335938 121.425781 C 149.359375 121.863281 149.566406 122.296875 149.960938 122.722656 L 152.257813 125.238281 L 151.585938 125.847656 L 147.523438 121.410156 L 148.195313 120.800781 L 148.820313 121.488281 C 148.726563 121.09375 148.726563 120.734375 148.820313 120.410156 C 148.914063 120.089844 149.101563 119.796875 149.382813 119.535156 C 149.84375 119.121094 150.332031 118.957031 150.851563 119.050781 C 151.371094 119.144531 151.914063 119.5 152.476563 120.113281 Z M 155.417969 115.398438 L 153.214844 113.007813 L 153.871094 112.414063 L 159.527344 118.570313 L 158.871094 119.164063 L 158.261719 118.492188 C 158.363281 118.898438 158.371094 119.265625 158.277344 119.585938 C 158.183594 119.898438 157.988281 120.1875 157.699219 120.445313 C 157.21875 120.894531 156.628906 121.046875 155.933594 120.898438 C 155.246094 120.753906 154.582031 120.328125 153.933594 119.617188 C 153.300781 118.921875 152.941406 118.222656 152.855469 117.523438 C 152.761719 116.828125 152.957031 116.253906 153.433594 115.804688 C 153.726563 115.546875 154.039063 115.382813 154.371094 115.320313 C 154.695313 115.25 155.042969 115.273438 155.417969 115.398438 Z M 154.605469 118.992188 C 155.105469 119.535156 155.589844 119.867188 156.058594 119.992188 C 156.535156 120.117188 156.949219 120.023438 157.292969 119.710938 C 157.644531 119.378906 157.78125 118.972656 157.699219 118.492188 C 157.625 118.003906 157.339844 117.488281 156.839844 116.945313 C 156.347656 116.414063 155.871094 116.09375 155.402344 115.976563 C 154.925781 115.851563 154.507813 115.957031 154.152344 116.289063 C 153.808594 116.601563 153.679688 117 153.761719 117.476563 C 153.835938 117.957031 154.117188 118.460938 154.605469 118.992188 Z M 160.640625 113.4375 C 160.109375 113.929688 159.808594 114.339844 159.734375 114.671875 C 159.652344 114.996094 159.761719 115.320313 160.0625 115.640625 C 160.289063 115.890625 160.550781 116.023438 160.84375 116.03125 C 161.132813 116.042969 161.414063 115.929688 161.6875 115.6875 C 162.050781 115.34375 162.207031 114.933594 162.15625 114.453125 C 162.113281 113.964844 161.878906 113.484375 161.453125 113.015625 L 161.296875 112.84375 Z M 161.671875 111.9375 L 164 114.46875 L 163.34375 115.078125 L 162.734375 114.40625 C 162.816406 114.8125 162.804688 115.183594 162.703125 115.515625 C 162.597656 115.851563 162.382813 116.164063 162.0625 116.453125 C 161.65625 116.828125 161.210938 117 160.734375 116.96875 C 160.265625 116.9375 159.835938 116.703125 159.4375 116.265625 C 158.980469 115.777344 158.789063 115.273438 158.859375 114.75 C 158.921875 114.21875 159.257813 113.679688 159.859375 113.125 L 160.78125 112.28125 L 160.71875 112.203125 C 160.40625 111.871094 160.070313 111.703125 159.703125 111.703125 C 159.339844 111.703125 158.976563 111.871094 158.609375 112.203125 C 158.390625 112.402344 158.199219 112.632813 158.03125 112.890625 C 157.867188 113.152344 157.734375 113.433594 157.640625 113.734375 L 157.03125 113.078125 C 157.179688 112.746094 157.34375 112.453125 157.53125 112.203125 C 157.710938 111.953125 157.902344 111.730469 158.109375 111.53125 C 158.695313 111 159.28125 110.765625 159.875 110.828125 C 160.457031 110.890625 161.054688 111.261719 161.671875 111.9375 Z M 164.3125 106.339844 L 164.9375 107.027344 C 164.648438 107.082031 164.386719 107.164063 164.15625 107.277344 C 163.917969 107.394531 163.699219 107.539063 163.5 107.714844 C 163.074219 108.113281 162.882813 108.566406 162.921875 109.074219 C 162.953125 109.585938 163.21875 110.113281 163.71875 110.652344 C 164.21875 111.195313 164.71875 111.511719 165.21875 111.605469 C 165.726563 111.691406 166.195313 111.535156 166.625 111.136719 C 166.820313 110.960938 166.988281 110.757813 167.125 110.527344 C 167.257813 110.300781 167.367188 110.042969 167.453125 109.761719 L 168.0625 110.433594 C 167.96875 110.707031 167.84375 110.957031 167.6875 111.183594 C 167.53125 111.402344 167.347656 111.613281 167.140625 111.808594 C 166.535156 112.363281 165.863281 112.589844 165.125 112.496094 C 164.386719 112.402344 163.6875 111.996094 163.03125 111.277344 C 162.375 110.558594 162.039063 109.832031 162.015625 109.089844 C 161.984375 108.351563 162.28125 107.699219 162.90625 107.136719 C 163.105469 106.949219 163.324219 106.789063 163.5625 106.652344 C 163.804688 106.519531 164.054688 106.414063 164.3125 106.339844 Z M 163.664063 103.429688 L 164.335938 102.820313 L 167.679688 106.460938 L 167.882813 102.742188 L 168.726563 101.976563 L 168.492188 105.992188 L 172.867188 106.335938 L 172.007813 107.117188 L 168.007813 106.804688 L 169.992188 108.976563 L 169.320313 109.585938 Z M 170.890625 97.9375 L 173.4375 99.53125 L 174.09375 98.5 C 174.335938 98.117188 174.414063 97.746094 174.328125 97.390625 C 174.234375 97.039063 173.984375 96.734375 173.578125 96.484375 C 173.171875 96.226563 172.792969 96.136719 172.4375 96.21875 C 172.085938 96.292969 171.789063 96.523438 171.546875 96.90625 Z M 169.625 98.28125 L 170.796875 96.421875 C 171.226563 95.734375 171.71875 95.328125 172.28125 95.203125 C 172.84375 95.070313 173.453125 95.210938 174.109375 95.625 C 174.777344 96.042969 175.179688 96.53125 175.3125 97.09375 C 175.4375 97.65625 175.289063 98.28125 174.859375 98.96875 L 174.203125 100 L 176.921875 101.71875 L 176.40625 102.546875 Z M 177.847656 93.496094 C 177.566406 94.164063 177.464844 94.660156 177.535156 94.980469 C 177.597656 95.304688 177.832031 95.550781 178.238281 95.714844 C 178.550781 95.851563 178.84375 95.863281 179.113281 95.746094 C 179.382813 95.632813 179.585938 95.414063 179.722656 95.089844 C 179.917969 94.632813 179.894531 94.191406 179.644531 93.761719 C 179.402344 93.335938 178.996094 93.003906 178.410156 92.761719 L 178.191406 92.667969 Z M 178.160156 91.699219 L 181.332031 93.027344 L 180.988281 93.839844 L 180.160156 93.496094 C 180.410156 93.832031 180.554688 94.167969 180.597656 94.511719 C 180.636719 94.855469 180.574219 95.230469 180.410156 95.636719 C 180.191406 96.148438 179.855469 96.488281 179.410156 96.652344 C 178.972656 96.820313 178.488281 96.792969 177.957031 96.574219 C 177.332031 96.316406 176.941406 95.929688 176.785156 95.417969 C 176.621094 94.910156 176.691406 94.277344 177.003906 93.527344 L 177.488281 92.371094 L 177.394531 92.339844 C 176.980469 92.164063 176.605469 92.152344 176.269531 92.308594 C 175.9375 92.457031 175.675781 92.757813 175.488281 93.214844 C 175.363281 93.488281 175.28125 93.777344 175.238281 94.089844 C 175.199219 94.394531 175.203125 94.707031 175.253906 95.027344 L 174.425781 94.667969 C 174.425781 94.304688 174.453125 93.972656 174.503906 93.667969 C 174.558594 93.367188 174.640625 93.082031 174.753906 92.808594 C 175.058594 92.089844 175.488281 91.636719 176.050781 91.449219 C 176.613281 91.261719 177.316406 91.347656 178.160156 91.699219 Z M 178.195313 86.453125 C 178.101563 86.527344 178.023438 86.617188 177.960938 86.71875 C 177.890625 86.824219 177.832031 86.9375 177.789063 87.0625 C 177.632813 87.554688 177.691406 87.984375 177.960938 88.359375 C 178.222656 88.726563 178.675781 89.011719 179.320313 89.21875 L 182.335938 90.1875 L 182.054688 91.046875 L 176.335938 89.203125 L 176.617188 88.34375 L 177.507813 88.625 C 177.21875 88.335938 177.035156 88.023438 176.960938 87.6875 C 176.878906 87.34375 176.90625 86.96875 177.039063 86.5625 C 177.0625 86.5 177.085938 86.433594 177.117188 86.359375 C 177.140625 86.289063 177.175781 86.21875 177.226563 86.15625 Z M 175.226563 84.855469 L 175.460938 83.980469 L 180.242188 85.199219 L 178.382813 81.980469 L 178.664063 80.871094 L 180.664063 84.355469 L 184.523438 82.277344 L 184.226563 83.386719 L 180.710938 85.324219 L 183.554688 86.058594 L 183.320313 86.933594 Z M 175.226563 84.855469 "/>
</g>
</svg>

