<?xml version="1.0" encoding="UTF-8"?>
<svg xmlns="http://www.w3.org/2000/svg" xmlns:xlink="http://www.w3.org/1999/xlink" width="256pt" height="256pt" viewBox="0 0 256 256" version="1.1">
<g id="surface2">
<rect x="0" y="0" width="256" height="256" style="fill:rgb(94.901961%,93.72549%,91.372549%);fill-opacity:1;stroke:none;"/>
<path style=" stroke:none;fill-rule:evenodd;fill:rgb(60%,70.196078%,80%);fill-opacity:1;" d="M -4 259 L 259 259 L 259 214.695313 L 257.515625 216.226563 L 256.3125 216.433594 L 256.125 217.511719 L 254.738281 217.5 L 254.617188 215.917969 L 253.335938 216.171875 L 251.847656 217.203125 L 250.742188 218.007813 L 249.523438 217.941406 L 248.460938 218.089844 L 247.011719 219.332031 L 245.742188 219.558594 L 244.75 220.933594 L 243.34375 221.664063 L 242.550781 220.765625 L 241.152344 221.703125 L 239.863281 222.929688 L 239.664063 224.585938 L 239.195313 223.585938 L 237.820313 224.109375 L 237.980469 222.902344 L 234.757813 224.738281 L 233.339844 225.910156 L 231.632813 226.199219 L 230.492188 228.425781 L 229.0625 229.242188 L 225.296875 230.371094 L 224.433594 229.214844 L 224.851563 230.339844 L 223.40625 230.914063 L 222.148438 232.101563 L 220.839844 232.792969 L 218.121094 233.089844 L 217.011719 233.925781 L 216 234.3125 L 213.8125 236.015625 L 210.398438 237.683594 L 207.902344 237.757813 L 208.695313 238.558594 L 206.75 238.972656 L 205.734375 238.453125 L 203.402344 239.601563 L 202.34375 240.140625 L 201.117188 239.027344 L 200.332031 239.8125 L 199.28125 239.925781 L 197.867188 240.296875 L 196.628906 240.328125 L 195.480469 240.480469 L 194.390625 241.96875 L 193.082031 243.039063 L 191.898438 243.953125 L 191.605469 245.105469 L 190.550781 245.183594 L 188.03125 246.238281 L 187.246094 247.519531 L 187.835938 248.363281 L 188.785156 247.878906 L 189.804688 247.328125 L 189.304688 248.820313 L 188.125 249.074219 L 187.101563 247.488281 L 185.863281 246.765625 L 184.160156 246.570313 L 182.75 246.617188 L 181.898438 247.339844 L 181.480469 248.496094 L 180.980469 247.488281 L 179.972656 247.480469 L 178.804688 247.96875 L 177.746094 248.320313 L 176.902344 249.90625 L 175.855469 249.578125 L 173.964844 249.734375 L 173.359375 248.386719 L 170.035156 245.90625 L 172.171875 248.925781 L 171.578125 249.945313 L 171.171875 251.152344 L 171.300781 254.515625 L 170.996094 256.167969 L 169.984375 256.398438 L 168.519531 258.601563 L 188.582031 259 L 194.679688 254.019531 L 195.570313 252.570313 L 196.898438 251.722656 L 196.242188 250.667969 L 197.113281 250.140625 L 198.25 249.984375 L 198.519531 248.160156 L 200.125 247.253906 L 199.359375 246.433594 L 200.875 245.40625 L 203.488281 245.25 L 203.816406 246.203125 L 207.085938 243.867188 L 208.546875 243.636719 L 211.019531 242.601563 L 214.683594 241.851563 L 216.015625 241.289063 L 217.804688 241.097656 L 219.03125 240.652344 L 222.914063 239.367188 L 224.3125 238.636719 L 226.015625 238.261719 L 227.480469 237.15625 L 228.808594 236.609375 L 231.238281 236.195313 L 233.574219 234.488281 L 234.726563 233.074219 L 235.890625 232.59375 L 236.65625 231.839844 L 240.171875 227.574219 L 241.960938 227.792969 L 242.757813 228.609375 L 243.785156 228.441406 L 243.898438 230.027344 L 244.585938 231.054688 L 245.488281 231.824219 L 244.695313 234.71875 L 244.691406 235.820313 L 244.960938 234.277344 L 245.804688 233.410156 L 247.484375 231.589844 L 248.96875 230.113281 L 250.21875 230.019531 L 251.128906 229.582031 L 252.863281 229.152344 L 254.195313 227.414063 L 255.390625 226.492188 L 256.171875 227.300781 L 254.25 229.390625 L 255.316406 229.003906 L 257.59375 228.816406 L 258.6875 228.035156 L 259 259 Z M 188.707031 258.660156 L 188.75 258.664063 L 188.476563 258.871094 Z M 188.820313 258.554688 L 188.921875 258.574219 L 188.808594 258.632813 Z M 188.945313 258.433594 L 188.964844 258.421875 L 188.933594 258.46875 Z M 189.101563 258.351563 L 189.148438 258.414063 L 189.019531 258.382813 Z M 200.742188 242.179688 L 201.359375 241.570313 L 200.648438 242.4375 Z M 239.871094 225.253906 L 240.054688 226.371094 L 239.703125 225.074219 Z M 244.425781 227.765625 L 244.816406 227.5625 L 244.316406 228.21875 Z M 245.140625 232.550781 L 245.59375 231.859375 L 246.964844 232.171875 L 244.890625 234.140625 Z M 247.75 225.992188 L 247.902344 226.078125 L 247.632813 226.027344 Z M 248.113281 226.175781 L 248.742188 225.621094 L 248.046875 226.371094 Z M 249.246094 229.183594 L 249.40625 229.125 L 249.214844 229.242188 Z M 250.382813 228.023438 L 250.511719 228.039063 L 250.253906 228.265625 Z M 250.382813 228.023438 "/>
<path style="fill:none;stroke-width:1;stroke-linecap:round;stroke-linejoin:round;stroke:rgb(70.196078%,77.647059%,83.137255%);stroke-opacity:1;stroke-miterlimit:10;" d="M -4 259 L 259 259 L 259 214.695313 L 257.515625 216.226563 L 256.3125 216.433594 L 256.125 217.511719 L 254.738281 217.5 L 254.617188 215.917969 L 253.335938 216.171875 L 251.847656 217.203125 L 250.742188 218.007813 L 249.523438 217.941406 L 248.460938 218.089844 L 247.011719 219.332031 L 245.742188 219.558594 L 244.75 220.933594 L 243.34375 221.664063 L 242.550781 220.765625 L 241.152344 221.703125 L 239.863281 222.929688 L 239.664063 224.585938 L 239.195313 223.585938 L 237.820313 224.109375 L 237.980469 222.902344 L 234.757813 224.738281 L 233.339844 225.910156 L 231.632813 226.199219 L 230.492188 228.425781 L 229.0625 229.242188 L 225.296875 230.371094 L 224.433594 229.214844 L 224.851563 230.339844 L 223.40625 230.914063 L 222.148438 232.101563 L 220.839844 232.792969 L 218.121094 233.089844 L 217.011719 233.925781 L 216 234.3125 L 213.8125 236.015625 L 210.398438 237.683594 L 207.902344 237.757813 L 208.695313 238.558594 L 206.75 238.972656 L 205.734375 238.453125 L 203.402344 239.601563 L 202.34375 240.140625 L 201.117188 239.027344 L 200.332031 239.8125 L 199.28125 239.925781 L 197.867188 240.296875 L 196.628906 240.328125 L 195.480469 240.480469 L 194.390625 241.96875 L 193.082031 243.039063 L 191.898438 243.953125 L 191.605469 245.105469 L 190.550781 245.183594 L 188.03125 246.238281 L 187.246094 247.519531 L 187.835938 248.363281 L 188.785156 247.878906 L 189.804688 247.328125 L 189.304688 248.820313 L 188.125 249.074219 L 187.101563 247.488281 L 185.863281 246.765625 L 184.160156 246.570313 L 182.75 246.617188 L 181.898438 247.339844 L 181.480469 248.496094 L 180.980469 247.488281 L 179.972656 247.480469 L 178.804688 247.96875 L 177.746094 248.320313 L 176.902344 249.90625 L 175.855469 249.578125 L 173.964844 249.734375 L 173.359375 248.386719 L 170.035156 245.90625 L 172.171875 248.925781 L 171.578125 249.945313 L 171.171875 251.152344 L 171.300781 254.515625 L 170.996094 256.167969 L 169.984375 256.398438 L 168.519531 258.601563 L 188.582031 259 L 194.679688 254.019531 L 195.570313 252.570313 L 196.898438 251.722656 L 196.242188 250.667969 L 197.113281 250.140625 L 198.25 249.984375 L 198.519531 248.160156 L 200.125 247.253906 L 199.359375 246.433594 L 200.875 245.40625 L 203.488281 245.25 L 203.816406 246.203125 L 207.085938 243.867188 L 208.546875 243.636719 L 211.019531 242.601563 L 214.683594 241.851563 L 216.015625 241.289063 L 217.804688 241.097656 L 219.03125 240.652344 L 222.914063 239.367188 L 224.3125 238.636719 L 226.015625 238.261719 L 227.480469 237.15625 L 228.808594 236.609375 L 231.238281 236.195313 L 233.574219 234.488281 L 234.726563 233.074219 L 235.890625 232.59375 L 236.65625 231.839844 L 240.171875 227.574219 L 241.960938 227.792969 L 242.757813 228.609375 L 243.785156 228.441406 L 243.898438 230.027344 L 244.585938 231.054688 L 245.488281 231.824219 L 244.695313 234.71875 L 244.691406 235.820313 L 244.960938 234.277344 L 245.804688 233.410156 L 247.484375 231.589844 L 248.96875 230.113281 L 250.21875 230.019531 L 251.128906 229.582031 L 252.863281 229.152344 L 254.195313 227.414063 L 255.390625 226.492188 L 256.171875 227.300781 L 254.25 229.390625 L 255.316406 229.003906 L 257.59375 228.816406 L 258.6875 228.035156 L 259 259 L -4 259 M 188.707031 258.660156 L 188.75 258.664063 L 188.476563 258.871094 L 188.707031 258.660156 M 188.820313 258.554688 L 188.921875 258.574219 L 188.808594 258.632813 L 188.820313 258.554688 M 188.945313 258.433594 L 188.964844 258.421875 L 188.933594 258.46875 L 188.945313 258.433594 M 189.101563 258.351563 L 189.148438 258.414063 L 189.019531 258.382813 L 189.101563 258.351563 M 200.742188 242.179688 L 201.359375 241.570313 L 200.648438 242.4375 L 200.742188 242.179688 M 239.871094 225.253906 L 240.054688 226.371094 L 239.703125 225.074219 L 239.871094 225.253906 M 244.425781 227.765625 L 244.816406 227.5625 L 244.316406 228.21875 L 244.425781 227.765625 M 245.140625 232.550781 L 245.59375 231.859375 L 246.964844 232.171875 L 244.890625 234.140625 L 245.140625 232.550781 M 247.75 225.992188 L 247.902344 226.078125 L 247.632813 226.027344 L 247.75 225.992188 M 248.113281 226.175781 L 248.742188 225.621094 L 248.046875 226.371094 L 248.113281 226.175781 M 249.246094 229.183594 L 249.40625 229.125 L 249.214844 229.242188 L 249.246094 229.183594 M 250.382813 228.023438 L 250.511719 228.039063 L 250.253906 228.265625 L 250.382813 228.023438 "/>
</g>
</svg>

