<?xml version="1.0" encoding="UTF-8"?>
<svg xmlns="http://www.w3.org/2000/svg" xmlns:xlink="http://www.w3.org/1999/xlink" width="256pt" height="256pt" viewBox="0 0 256 256" version="1.1">
<g id="surface2">
<rect x="0" y="0" width="256" height="256" style="fill:rgb(60%,70.196078%,80%);fill-opacity:1;stroke:none;"/>
<path style=" stroke:none;fill-rule:evenodd;fill:rgb(94.901961%,93.72549%,91.372549%);fill-opacity:1;" d="M 259 -4 L 232.070313 -4 L 221.480469 41.382813 L 259 50.53125 L 259 79.230469 L 215.746094 69.148438 L 212.761719 82.90625 L 219.425781 86.179688 L 231.554688 89.214844 L 231.210938 89.828125 L 232.925781 90.3125 L 241.78125 92.714844 L 249.28125 95.136719 L 244.894531 107.652344 L 239.648438 119.324219 L 233.601563 130.011719 L 232.914063 131.25 L 230.722656 130.050781 L 227.15625 136.777344 L 226.875 138.097656 L 226.085938 139.792969 L 219.804688 139.921875 L 215.304688 139.417969 L 214.089844 140.46875 L 214.453125 145.382813 L 216.378906 147.746094 L 238.503906 150.160156 L 237.339844 154.894531 L 217.992188 152.59375 L 216.980469 152.445313 L 208.265625 151.523438 L 207.015625 151.402344 L 204.398438 151.121094 L 181.039063 148.34375 L 179.921875 155.296875 L 179.777344 156.785156 L 177.84375 156.597656 L 175.644531 162.179688 L 154.335938 159.578125 L 146.90625 158.933594 L 142.757813 159.910156 L 135.714844 161.257813 L 133.175781 158.304688 L 133.707031 158.125 L 133.671875 157.800781 L 124.011719 156.742188 L 58.640625 149.160156 L -4 141.878906 L -4 145.992188 L -3.5625 146.636719 L -3.753906 149.855469 L 127.507813 165.75 L 142.773438 166.992188 L 143.554688 167.058594 L 144.996094 167.179688 L 143.976563 176.246094 L 142.648438 190.195313 L 141.011719 206.25 L 140.378906 220.699219 L 139.863281 226.363281 L 137.722656 226.050781 L 136.476563 234.9375 L 206.269531 243.019531 L 204 259 L 172 259 L 152.683594 257.121094 L 144.773438 256.21875 L 141.058594 257.15625 L 137.339844 255.597656 L 129.890625 251.210938 L 127.746094 253.863281 L 134.65625 259 L -4 259 L -4 -4 Z M 259 -4 "/>
<path style=" stroke:none;fill-rule:evenodd;fill:rgb(60%,70.196078%,80%);fill-opacity:1;" d="M -4 145.992188 L -3.5625 146.636719 L -3.753906 149.855469 L 127.507813 165.75 L 142.773438 166.992188 L 144.996094 167.179688 L 143.976563 176.246094 L 142.648438 190.195313 L 141.011719 206.25 L 140.378906 220.699219 L 139.863281 226.363281 L 137.722656 226.050781 L 136.476563 234.9375 L 206.269531 243.019531 L 204 259 L 171.996094 259 L 152.683594 257.121094 L 144.773438 256.21875 L 141.058594 257.15625 L 137.34375 255.597656 L 129.890625 251.210938 L 127.746094 253.863281 L 134.65625 259 L 259 259 L 259 -4 L 232.070313 -4 L 221.480469 41.382813 L 259 50.53125 L 259 79.230469 L 215.746094 69.148438 L 212.761719 82.90625 L 219.425781 86.179688 L 231.554688 89.214844 L 232.925781 90.316406 L 241.78125 92.714844 L 249.28125 95.136719 L 244.894531 107.652344 L 239.648438 119.324219 L 233.605469 130.011719 L 232.914063 131.25 L 230.722656 130.050781 L 227.160156 136.777344 L 226.875 138.101563 L 226.085938 139.792969 L 219.804688 139.921875 L 215.304688 139.417969 L 214.089844 140.46875 L 214.453125 145.382813 L 216.378906 147.746094 L 238.503906 150.160156 L 237.339844 154.894531 L 217.992188 152.59375 L 216.984375 152.445313 L 208.269531 151.523438 L 207.015625 151.402344 L 204.398438 151.121094 L 181.039063 148.34375 L 179.921875 155.300781 L 179.777344 156.785156 L 177.84375 156.597656 L 175.644531 162.179688 L 154.335938 159.578125 L 146.90625 158.933594 L 142.757813 159.910156 L 135.714844 161.257813 L 133.175781 158.304688 L 124.011719 156.742188 L 58.640625 149.160156 L -4 141.878906 Z M -4 145.992188 "/>
<path style="fill:none;stroke-width:1;stroke-linecap:round;stroke-linejoin:round;stroke:rgb(70.196078%,77.647059%,83.137255%);stroke-opacity:1;stroke-miterlimit:10;" d="M -4 145.992188 L -3.5625 146.636719 L -3.753906 149.855469 L 127.507813 165.75 L 142.773438 166.992188 L 144.996094 167.179688 L 143.976563 176.246094 L 142.648438 190.195313 L 141.011719 206.25 L 140.378906 220.699219 L 139.863281 226.363281 L 137.722656 226.050781 L 136.476563 234.9375 L 206.269531 243.019531 L 204 259 L 171.996094 259 L 152.683594 257.121094 L 144.773438 256.21875 L 141.058594 257.15625 L 137.34375 255.597656 L 129.890625 251.210938 L 127.746094 253.863281 L 134.65625 259 L 259 259 L 259 -4 L 232.070313 -4 L 221.480469 41.382813 L 259 50.53125 L 259 79.230469 L 215.746094 69.148438 L 212.761719 82.90625 L 219.425781 86.179688 L 231.554688 89.214844 L 232.925781 90.316406 L 241.78125 92.714844 L 249.28125 95.136719 L 244.894531 107.652344 L 239.648438 119.324219 L 233.605469 130.011719 L 232.914063 131.25 L 230.722656 130.050781 L 227.160156 136.777344 L 226.875 138.101563 L 226.085938 139.792969 L 219.804688 139.921875 L 215.304688 139.417969 L 214.089844 140.46875 L 214.453125 145.382813 L 216.378906 147.746094 L 238.503906 150.160156 L 237.339844 154.894531 L 217.992188 152.59375 L 216.984375 152.445313 L 208.269531 151.523438 L 207.015625 151.402344 L 204.398438 151.121094 L 181.039063 148.34375 L 179.921875 155.300781 L 179.777344 156.785156 L 177.84375 156.597656 L 175.644531 162.179688 L 154.335938 159.578125 L 146.90625 158.933594 L 142.757813 159.910156 L 135.714844 161.257813 L 133.175781 158.304688 L 124.011719 156.742188 L 58.640625 149.160156 L -4 141.878906 L -4 145.992188 "/>
</g>
</svg>

