<?xml version="1.0" encoding="UTF-8"?>
<svg xmlns="http://www.w3.org/2000/svg" xmlns:xlink="http://www.w3.org/1999/xlink" width="256pt" height="256pt" viewBox="0 0 256 256" version="1.1">
<g id="surface2">
<rect x="0" y="0" width="256" height="256" style="fill:rgb(94.901961%,93.72549%,91.372549%);fill-opacity:1;stroke:none;"/>
<path style=" stroke:none;fill-rule:evenodd;fill:rgb(70.980392%,82.352941%,61.176471%);fill-opacity:1;" d="M -4 260 L 260 260 L 260 -4 L -4 -4 L -4 260 L -4 -4 Z M -4 260 "/>
<path style=" stroke:none;fill-rule:evenodd;fill:rgb(79.607843%,84.705882%,76.470588%);fill-opacity:1;" d="M -4 260 L 260 260 L 260 -4 L -4 -4 L -4 260 L -4 -4 Z M -4 260 "/>
<path style="fill:none;stroke-width:1;stroke-linecap:round;stroke-linejoin:round;stroke:rgb(100%,100%,100%);stroke-opacity:1;stroke-dasharray:2,3;stroke-miterlimit:10;" d="M 257 204.523438 L 242.121094 189.910156 L 224.761719 181.507813 L 202.109375 177.914063 L 167.179688 179.773438 L 133.90625 185.324219 L 95.320313 186.996094 L 70.175781 184.050781 L 52.140625 178.65625 L 44.078125 175.855469 "/>
<path style="fill:none;stroke-width:1;stroke-linecap:round;stroke-linejoin:round;stroke:rgb(100%,100%,100%);stroke-opacity:1;stroke-dasharray:2,3;stroke-miterlimit:10;" d="M -2 100.289063 L -0.472656 96.472656 L 1.738281 90 L 4.988281 88.25 L 9.273438 88.222656 L 15.273438 85.726563 L 20.277344 82.472656 L 24.023438 79.222656 L 33.523438 75.722656 L 39.277344 73.722656 L 46.023438 70.226563 L 50.273438 68.726563 L 53.375 67.582031 L 56.527344 64.472656 L 59.773438 61.472656 L 62.273438 57.722656 L 66.277344 55.226563 L 66.773438 51.222656 L 68.238281 46.5 L 72.523438 42.226563 L 76.488281 38.25 L 79.523438 34.972656 L 83.527344 31.476563 L 87.488281 28.5 L 91.773438 26.726563 L 97.527344 25.476563 L 101.273438 23.976563 L 107.46875 22.917969 L 111.589844 21.375 L 114.402344 18.394531 L 115.527344 15.472656 L 119.027344 13.722656 L 123.058594 13.648438 L 125.957031 9.4375 L 126.523438 5.972656 L 127.523438 0.722656 L 129.832031 -2 "/>
<path style="fill:none;stroke-width:1;stroke-linecap:round;stroke-linejoin:round;stroke:rgb(100%,100%,100%);stroke-opacity:1;stroke-dasharray:2,3;stroke-miterlimit:10;" d="M 76.847656 14.417969 L 78.125 16.332031 L 81.125 18.578125 L 87.875 21.332031 L 101.273438 23.976563 L 113.996094 26.128906 "/>
<path style="fill:none;stroke-width:1;stroke-linecap:round;stroke-linejoin:round;stroke:rgb(100%,100%,100%);stroke-opacity:1;stroke-dasharray:2,3;stroke-miterlimit:10;" d="M 9.632813 205.511719 L 12.792969 207.410156 L 18.667969 210.539063 L 28.792969 217.164063 L 34.667969 219.414063 L 42.292969 223.789063 L 47.417969 228.285156 L 52.667969 234.789063 L 57.167969 240.035156 L 58.667969 244.410156 L 59.792969 249.164063 L 65.917969 256.410156 L 66.464844 257 "/>
</g>
</svg>

