<?xml version="1.0" encoding="UTF-8"?>
<svg xmlns="http://www.w3.org/2000/svg" xmlns:xlink="http://www.w3.org/1999/xlink" width="256pt" height="256pt" viewBox="0 0 256 256" version="1.1">
<g id="surface2">
<rect x="0" y="0" width="256" height="256" style="fill:rgb(94.901961%,93.72549%,91.372549%);fill-opacity:1;stroke:none;"/>
<path style="fill:none;stroke-width:8;stroke-linecap:round;stroke-linejoin:round;stroke:rgb(75.686275%,70.980392%,61.568627%);stroke-opacity:1;stroke-miterlimit:10;" d="M -0.441406 182.121094 L 5.570313 183.621094 L 17.292969 183.875 L 25.121094 182.597656 L 30.132813 182.34375 L 38.425781 182.566406 L 47.28125 181.707031 L 52.640625 181.195313 L 53.457031 180.046875 L 53.898438 177.910156 L 53.761719 173.511719 L 51.964844 163.527344 "/>
<path style="fill:none;stroke-width:8;stroke-linecap:round;stroke-linejoin:round;stroke:rgb(75.686275%,70.980392%,61.568627%);stroke-opacity:1;stroke-miterlimit:10;" d="M 8.765625 264 L -0.441406 182.121094 L -2.535156 165.378906 L -5.800781 149.210938 L -7.546875 144.714844 L -9 142.328125 "/>
<path style="fill:none;stroke-width:6;stroke-linecap:round;stroke-linejoin:round;stroke:rgb(100%,100%,100%);stroke-opacity:1;stroke-miterlimit:10;" d="M -0.441406 182.121094 L 5.570313 183.621094 L 17.292969 183.875 L 25.121094 182.597656 L 30.132813 182.34375 L 38.425781 182.566406 L 47.28125 181.707031 L 52.640625 181.195313 L 53.457031 180.046875 L 53.898438 177.910156 L 53.761719 173.511719 L 51.964844 163.527344 "/>
<path style="fill:none;stroke-width:6;stroke-linecap:round;stroke-linejoin:round;stroke:rgb(100%,100%,100%);stroke-opacity:1;stroke-miterlimit:10;" d="M 8.765625 264 L -0.441406 182.121094 L -2.535156 165.378906 L -5.800781 149.210938 L -7.546875 144.714844 L -9 142.328125 "/>
</g>
</svg>

