<?xml version="1.0" encoding="UTF-8"?>
<svg xmlns="http://www.w3.org/2000/svg" xmlns:xlink="http://www.w3.org/1999/xlink" width="256pt" height="256pt" viewBox="0 0 256 256" version="1.1">
<g id="surface2">
<rect x="0" y="0" width="256" height="256" style="fill:rgb(94.901961%,93.72549%,91.372549%);fill-opacity:1;stroke:none;"/>
<path style="fill:none;stroke-width:2;stroke-linecap:round;stroke-linejoin:round;stroke:rgb(60%,70.196078%,80%);stroke-opacity:1;stroke-miterlimit:10;" d="M 162.730469 258 L 165.699219 256.417969 L 170.316406 248.035156 L 172.027344 236.195313 L 185.4375 225.113281 L 191.648438 212.714844 L 203.070313 204.152344 L 217.707031 195.859375 L 223.960938 187.238281 L 223 170.015625 L 223.496094 158.515625 L 224.648438 146.214844 L 227.648438 128.210938 L 235.148438 111.214844 L 240.148438 102.214844 L 241.148438 89.710938 L 241.648438 71.210938 L 240.648438 56.714844 L 237.148438 40.714844 L 235.496094 31.511719 L 234.648438 18.714844 L 236 5.511719 L 239.5 -1.988281 L 241.273438 -3 "/>
<path style="fill:none;stroke-width:1;stroke-linecap:round;stroke-linejoin:round;stroke:rgb(100%,100%,100%);stroke-opacity:1;stroke-dasharray:2,3;stroke-miterlimit:10;" d="M 238.539063 160.9375 L 236.953125 162.3125 "/>
<path style="fill:none;stroke-width:1;stroke-linecap:round;stroke-linejoin:round;stroke:rgb(100%,100%,100%);stroke-opacity:1;stroke-dasharray:2,3;stroke-miterlimit:10;" d="M 236.042969 159.808594 L 227.871094 157.28125 L 227.214844 155.582031 L 222.851563 151.4375 L 214.410156 148.660156 L 213.832031 159.992188 L 210.019531 162.648438 L 206.898438 163.113281 L 203.660156 161.726563 L 199.847656 162.1875 L 195.105469 165.539063 L 188.285156 160.105469 L 181.117188 158.488281 L 170.363281 153.167969 L 163.3125 148.890625 L 160.769531 141.378906 L 151.058594 131.203125 L 149.785156 128.082031 L 130.363281 115.597656 L 125.511719 113.980469 L 118.34375 117.214844 L 113.71875 122.1875 L 107.359375 123.691406 L 98.34375 129.933594 L 96.144531 138.257813 L 90.828125 145.308594 L 85.855469 146.582031 L 85.742188 158.488281 L 75.914063 168.777344 L 73.605469 172.476563 L 67.128906 176.753906 L 56.148438 185.425781 L 49.09375 194.90625 L 44.816406 200.222656 L 43.660156 202.417969 L 39.847656 203.804688 L 37.1875 203.457031 L 32.5625 209.007813 L 27.015625 212.128906 L 23.777344 218.601563 L 15.105469 227.273438 L 10.945313 234.441406 L 12.101563 240.453125 L 16.957031 251.320313 L 14.644531 255.019531 L 12.105469 257 M 7.695313 257 L -2 254.289063 "/>
<path style="fill:none;stroke-width:1;stroke-linecap:round;stroke-linejoin:round;stroke:rgb(100%,100%,100%);stroke-opacity:1;stroke-dasharray:2,3;stroke-miterlimit:10;" d="M 257 76.566406 L 255.363281 77.683594 L 248.265625 104.261719 L 241.171875 116.261719 L 239.023438 124.792969 L 235.890625 127.355469 L 237.214844 138.097656 L 242.242188 147.601563 L 236.042969 159.808594 L 238.539063 160.9375 L 240.304688 161.730469 L 247.804688 157.976563 L 256.3125 160.894531 L 257 161.734375 M 257 191.15625 L 256.304688 203.976563 L 245.304688 216.980469 L 236.121094 211.832031 L 223.53125 204.953125 L 215.132813 209.410156 L 211.804688 218.980469 L 201.988281 221.109375 L 198.054688 224.976563 L 185.304688 250.976563 L 180.164063 253.453125 L 174.933594 251.449219 L 171.421875 257 "/>
</g>
</svg>

