<?xml version="1.0" encoding="UTF-8"?>
<svg xmlns="http://www.w3.org/2000/svg" xmlns:xlink="http://www.w3.org/1999/xlink" width="256pt" height="256pt" viewBox="0 0 256 256" version="1.1">
<g id="surface2">
<rect x="0" y="0" width="256" height="256" style="fill:rgb(94.901961%,93.72549%,91.372549%);fill-opacity:1;stroke:none;"/>
<path style=" stroke:none;fill-rule:evenodd;fill:rgb(60%,70.196078%,80%);fill-opacity:1;" d="M -4 259 L -4 -4 L 259 -4 L -4 -4 L -4 259 L -4 -4 Z M -4 259 "/>
<path style="fill:none;stroke-width:1;stroke-linecap:round;stroke-linejoin:round;stroke:rgb(70.196078%,77.647059%,83.137255%);stroke-opacity:1;stroke-miterlimit:10;" d="M -4 259 L -4 -4 L 259 -4 L -4 -4 L -4 259 L -4 -4 L -4 259 "/>
<path style="fill:none;stroke-width:8;stroke-linecap:round;stroke-linejoin:round;stroke:rgb(75.686275%,70.980392%,61.568627%);stroke-opacity:1;stroke-miterlimit:10;" d="M 104.707031 264 L 103.632813 261.722656 L 103.167969 260.347656 L 100.488281 256.898438 L 98.132813 253.414063 L 90.304688 244.433594 L 84.898438 241.460938 L 77.558594 238.519531 L 71.171875 236.730469 L 59.125 231.902344 L 54.628906 229.058594 L 45.820313 222.636719 L 42.582031 219.824219 L 39.414063 216.242188 L 29.089844 202.722656 L 23.40625 197.164063 L 14.132813 190.164063 L 0.40625 184.828125 L -9 181.417969 "/>
<path style="fill:none;stroke-width:6;stroke-linecap:round;stroke-linejoin:round;stroke:rgb(100%,100%,100%);stroke-opacity:1;stroke-miterlimit:10;" d="M 104.707031 264 L 103.632813 261.722656 L 103.167969 260.347656 L 100.488281 256.898438 L 98.132813 253.414063 L 90.304688 244.433594 L 84.898438 241.460938 L 77.558594 238.519531 L 71.171875 236.730469 L 59.125 231.902344 L 54.628906 229.058594 L 45.820313 222.636719 L 42.582031 219.824219 L 39.414063 216.242188 L 29.089844 202.722656 L 23.40625 197.164063 L 14.132813 190.164063 L 0.40625 184.828125 L -9 181.417969 "/>
<path style="fill:none;stroke-width:3;stroke-linecap:round;stroke-linejoin:round;stroke:rgb(100%,100%,100%);stroke-opacity:1;stroke-miterlimit:10;" d="M 29.5625 197.621094 L 32.4375 200.621094 L 31.78125 201.246094 L 29.578125 198.949219 L 27.875 200.574219 L 29.859375 202.652344 L 29.1875 203.292969 L 27.203125 201.214844 L 24.4375 203.855469 L 23.765625 203.152344 Z M 32.804688 205.390625 C 32.511719 205.015625 32.117188 204.851563 31.617188 204.890625 C 31.117188 204.921875 30.585938 205.152344 30.023438 205.578125 C 29.449219 206.015625 29.078125 206.46875 28.914063 206.9375 C 28.757813 207.40625 28.824219 207.828125 29.117188 208.203125 C 29.40625 208.585938 29.796875 208.765625 30.289063 208.734375 C 30.789063 208.703125 31.324219 208.46875 31.898438 208.03125 C 32.460938 207.601563 32.824219 207.148438 32.992188 206.671875 C 33.15625 206.203125 33.09375 205.777344 32.804688 205.390625 Z M 33.460938 204.890625 C 33.929688 205.507813 34.074219 206.15625 33.898438 206.84375 C 33.71875 207.539063 33.242188 208.1875 32.460938 208.78125 C 31.679688 209.382813 30.929688 209.675781 30.210938 209.65625 C 29.5 209.644531 28.914063 209.332031 28.445313 208.71875 C 27.964844 208.101563 27.8125 207.453125 27.992188 206.765625 C 28.179688 206.078125 28.664063 205.433594 29.445313 204.828125 C 30.226563 204.234375 30.96875 203.945313 31.679688 203.953125 C 32.386719 203.964844 32.980469 204.277344 33.460938 204.890625 Z M 38.476563 211.699219 L 34.960938 211.902344 L 33.757813 215.417969 L 33.117188 214.589844 L 34.039063 211.902344 L 31.210938 212.089844 L 30.570313 211.246094 L 34.351563 211.027344 L 35.460938 207.746094 L 36.101563 208.574219 L 35.273438 211.011719 L 37.851563 210.855469 Z M 42.625 213.710938 L 43.3125 214.429688 L 40.921875 216.664063 L 43.34375 219.242188 L 45.734375 217.007813 L 46.40625 217.726563 L 40.5625 223.210938 L 39.890625 222.492188 L 42.671875 219.882813 L 40.25 217.304688 L 37.46875 219.914063 L 36.78125 219.195313 Z M 46.140625 220.21875 L 46.828125 220.78125 L 42.953125 225.390625 L 42.265625 224.828125 Z M 47.65625 218.4375 L 48.34375 219 L 47.53125 219.953125 L 46.84375 219.390625 Z M 49.539063 219.957031 L 50.273438 220.488281 L 45.351563 227.238281 L 44.617188 226.707031 Z M 51.761719 221.578125 L 52.496094 222.109375 L 47.574219 228.859375 L 46.839844 228.328125 Z M 56.746094 230.628906 C 56.878906 230.808594 56.957031 231.058594 56.980469 231.378906 C 57 231.699219 56.972656 232.113281 56.902344 232.613281 L 56.527344 234.988281 L 55.652344 234.410156 L 55.996094 232.175781 C 56.089844 231.601563 56.089844 231.183594 55.996094 230.910156 C 55.910156 230.640625 55.707031 230.402344 55.386719 230.191406 L 54.496094 229.613281 L 52.636719 232.441406 L 51.824219 231.894531 L 56.230469 225.191406 L 58.074219 226.394531 C 58.769531 226.855469 59.175781 227.355469 59.292969 227.894531 C 59.417969 228.4375 59.265625 229.035156 58.839844 229.691406 C 58.566406 230.109375 58.253906 230.402344 57.902344 230.566406 C 57.546875 230.734375 57.160156 230.753906 56.746094 230.628906 Z M 56.542969 226.488281 L 54.980469 228.863281 L 56.011719 229.519531 C 56.40625 229.792969 56.769531 229.890625 57.105469 229.816406 C 57.449219 229.746094 57.746094 229.515625 57.996094 229.128906 C 58.253906 228.734375 58.347656 228.375 58.277344 228.050781 C 58.203125 227.71875 57.96875 227.417969 57.574219 227.144531 Z M 62.269531 231.699219 C 61.820313 231.523438 61.386719 231.574219 60.972656 231.855469 C 60.566406 232.136719 60.226563 232.613281 59.957031 233.277344 C 59.675781 233.945313 59.585938 234.523438 59.691406 235.011719 C 59.792969 235.492188 60.070313 235.816406 60.519531 235.996094 C 60.957031 236.183594 61.378906 236.136719 61.785156 235.855469 C 62.191406 235.582031 62.535156 235.117188 62.816406 234.449219 C 63.085938 233.785156 63.167969 233.207031 63.066406 232.714844 C 62.972656 232.226563 62.707031 231.886719 62.269531 231.699219 Z M 62.582031 230.933594 C 63.289063 231.226563 63.742188 231.714844 63.941406 232.402344 C 64.136719 233.082031 64.054688 233.878906 63.691406 234.792969 C 63.316406 235.699219 62.816406 236.328125 62.191406 236.683594 C 61.566406 237.035156 60.898438 237.066406 60.191406 236.777344 C 59.460938 236.484375 58.996094 235.996094 58.800781 235.308594 C 58.613281 234.621094 58.707031 233.824219 59.082031 232.917969 C 59.445313 232.003906 59.933594 231.371094 60.550781 231.027344 C 61.175781 230.675781 61.851563 230.644531 62.582031 230.933594 Z M 67.324219 236.242188 C 66.65625 235.972656 66.160156 235.875 65.839844 235.945313 C 65.515625 236.007813 65.269531 236.242188 65.105469 236.648438 C 64.980469 236.972656 64.972656 237.269531 65.089844 237.539063 C 65.203125 237.808594 65.425781 238.011719 65.761719 238.148438 C 66.21875 238.335938 66.65625 238.296875 67.074219 238.039063 C 67.5 237.789063 67.832031 237.375 68.074219 236.789063 L 68.152344 236.570313 Z M 69.136719 236.523438 L 67.855469 239.710938 L 67.027344 239.382813 L 67.371094 238.539063 C 67.046875 238.796875 66.707031 238.949219 66.355469 238.992188 C 66.011719 239.042969 65.636719 238.984375 65.230469 238.820313 C 64.71875 238.621094 64.375 238.296875 64.199219 237.851563 C 64.019531 237.414063 64.042969 236.925781 64.261719 236.382813 C 64.511719 235.757813 64.886719 235.363281 65.386719 235.195313 C 65.894531 235.019531 66.527344 235.082031 67.277344 235.382813 L 68.433594 235.851563 L 68.480469 235.773438 C 68.644531 235.347656 68.652344 234.96875 68.496094 234.632813 C 68.339844 234.300781 68.03125 234.039063 67.574219 233.851563 C 67.300781 233.738281 67.011719 233.664063 66.699219 233.632813 C 66.394531 233.601563 66.082031 233.613281 65.761719 233.664063 L 66.089844 232.820313 C 66.464844 232.8125 66.800781 232.832031 67.105469 232.882813 C 67.417969 232.9375 67.707031 233.015625 67.980469 233.117188 C 68.707031 233.410156 69.167969 233.835938 69.355469 234.398438 C 69.550781 234.960938 69.480469 235.671875 69.136719 236.523438 Z M 74.804688 236.566406 L 75.742188 233.457031 L 76.585938 233.707031 L 74.179688 241.707031 L 73.335938 241.457031 L 73.601563 240.582031 C 73.320313 240.882813 73.011719 241.074219 72.679688 241.160156 C 72.355469 241.242188 72.007813 241.226563 71.632813 241.113281 C 70.996094 240.925781 70.5625 240.492188 70.335938 239.816406 C 70.117188 239.140625 70.140625 238.347656 70.414063 237.441406 C 70.683594 236.535156 71.09375 235.871094 71.648438 235.441406 C 72.210938 235.003906 72.808594 234.878906 73.445313 235.066406 C 73.820313 235.183594 74.121094 235.363281 74.351563 235.613281 C 74.578125 235.855469 74.730469 236.171875 74.804688 236.566406 Z M 71.289063 237.707031 C 71.078125 238.40625 71.042969 238.996094 71.179688 239.472656 C 71.3125 239.941406 71.605469 240.242188 72.054688 240.378906 C 72.511719 240.511719 72.929688 240.425781 73.304688 240.113281 C 73.6875 239.792969 73.984375 239.28125 74.195313 238.582031 C 74.402344 237.886719 74.433594 237.300781 74.289063 236.832031 C 74.152344 236.355469 73.855469 236.046875 73.398438 235.910156 C 72.949219 235.777344 72.539063 235.871094 72.164063 236.191406 C 71.789063 236.503906 71.496094 237.011719 71.289063 237.707031 Z M 71.289063 237.707031 "/>
<path style=" stroke:none;fill-rule:evenodd;fill:rgb(20%,20%,20%);fill-opacity:1;" d="M 29.5625 197.621094 L 32.4375 200.621094 L 31.78125 201.246094 L 29.578125 198.949219 L 27.875 200.574219 L 29.859375 202.652344 L 29.1875 203.292969 L 27.203125 201.214844 L 24.4375 203.855469 L 23.765625 203.152344 Z M 32.804688 205.390625 C 32.511719 205.015625 32.117188 204.851563 31.617188 204.890625 C 31.117188 204.921875 30.585938 205.152344 30.023438 205.578125 C 29.449219 206.015625 29.078125 206.46875 28.914063 206.9375 C 28.757813 207.40625 28.824219 207.828125 29.117188 208.203125 C 29.40625 208.585938 29.796875 208.765625 30.289063 208.734375 C 30.789063 208.703125 31.324219 208.46875 31.898438 208.03125 C 32.460938 207.601563 32.824219 207.148438 32.992188 206.671875 C 33.15625 206.203125 33.09375 205.777344 32.804688 205.390625 Z M 33.460938 204.890625 C 33.929688 205.507813 34.074219 206.15625 33.898438 206.84375 C 33.71875 207.539063 33.242188 208.1875 32.460938 208.78125 C 31.679688 209.382813 30.929688 209.675781 30.210938 209.65625 C 29.5 209.644531 28.914063 209.332031 28.445313 208.71875 C 27.964844 208.101563 27.8125 207.453125 27.992188 206.765625 C 28.179688 206.078125 28.664063 205.433594 29.445313 204.828125 C 30.226563 204.234375 30.96875 203.945313 31.679688 203.953125 C 32.386719 203.964844 32.980469 204.277344 33.460938 204.890625 Z M 38.476563 211.699219 L 34.960938 211.902344 L 33.757813 215.417969 L 33.117188 214.589844 L 34.039063 211.902344 L 31.210938 212.089844 L 30.570313 211.246094 L 34.351563 211.027344 L 35.460938 207.746094 L 36.101563 208.574219 L 35.273438 211.011719 L 37.851563 210.855469 Z M 42.625 213.710938 L 43.3125 214.429688 L 40.921875 216.664063 L 43.34375 219.242188 L 45.734375 217.007813 L 46.40625 217.726563 L 40.5625 223.210938 L 39.890625 222.492188 L 42.671875 219.882813 L 40.25 217.304688 L 37.46875 219.914063 L 36.78125 219.195313 Z M 46.140625 220.21875 L 46.828125 220.78125 L 42.953125 225.390625 L 42.265625 224.828125 Z M 47.65625 218.4375 L 48.34375 219 L 47.53125 219.953125 L 46.84375 219.390625 Z M 49.539063 219.957031 L 50.273438 220.488281 L 45.351563 227.238281 L 44.617188 226.707031 Z M 51.761719 221.578125 L 52.496094 222.109375 L 47.574219 228.859375 L 46.839844 228.328125 Z M 56.746094 230.628906 C 56.878906 230.808594 56.957031 231.058594 56.980469 231.378906 C 57 231.699219 56.972656 232.113281 56.902344 232.613281 L 56.527344 234.988281 L 55.652344 234.410156 L 55.996094 232.175781 C 56.089844 231.601563 56.089844 231.183594 55.996094 230.910156 C 55.910156 230.640625 55.707031 230.402344 55.386719 230.191406 L 54.496094 229.613281 L 52.636719 232.441406 L 51.824219 231.894531 L 56.230469 225.191406 L 58.074219 226.394531 C 58.769531 226.855469 59.175781 227.355469 59.292969 227.894531 C 59.417969 228.4375 59.265625 229.035156 58.839844 229.691406 C 58.566406 230.109375 58.253906 230.402344 57.902344 230.566406 C 57.546875 230.734375 57.160156 230.753906 56.746094 230.628906 Z M 56.542969 226.488281 L 54.980469 228.863281 L 56.011719 229.519531 C 56.40625 229.792969 56.769531 229.890625 57.105469 229.816406 C 57.449219 229.746094 57.746094 229.515625 57.996094 229.128906 C 58.253906 228.734375 58.347656 228.375 58.277344 228.050781 C 58.203125 227.71875 57.96875 227.417969 57.574219 227.144531 Z M 62.269531 231.699219 C 61.820313 231.523438 61.386719 231.574219 60.972656 231.855469 C 60.566406 232.136719 60.226563 232.613281 59.957031 233.277344 C 59.675781 233.945313 59.585938 234.523438 59.691406 235.011719 C 59.792969 235.492188 60.070313 235.816406 60.519531 235.996094 C 60.957031 236.183594 61.378906 236.136719 61.785156 235.855469 C 62.191406 235.582031 62.535156 235.117188 62.816406 234.449219 C 63.085938 233.785156 63.167969 233.207031 63.066406 232.714844 C 62.972656 232.226563 62.707031 231.886719 62.269531 231.699219 Z M 62.582031 230.933594 C 63.289063 231.226563 63.742188 231.714844 63.941406 232.402344 C 64.136719 233.082031 64.054688 233.878906 63.691406 234.792969 C 63.316406 235.699219 62.816406 236.328125 62.191406 236.683594 C 61.566406 237.035156 60.898438 237.066406 60.191406 236.777344 C 59.460938 236.484375 58.996094 235.996094 58.800781 235.308594 C 58.613281 234.621094 58.707031 233.824219 59.082031 232.917969 C 59.445313 232.003906 59.933594 231.371094 60.550781 231.027344 C 61.175781 230.675781 61.851563 230.644531 62.582031 230.933594 Z M 67.324219 236.242188 C 66.65625 235.972656 66.160156 235.875 65.839844 235.945313 C 65.515625 236.007813 65.269531 236.242188 65.105469 236.648438 C 64.980469 236.972656 64.972656 237.269531 65.089844 237.539063 C 65.203125 237.808594 65.425781 238.011719 65.761719 238.148438 C 66.21875 238.335938 66.65625 238.296875 67.074219 238.039063 C 67.5 237.789063 67.832031 237.375 68.074219 236.789063 L 68.152344 236.570313 Z M 69.136719 236.523438 L 67.855469 239.710938 L 67.027344 239.382813 L 67.371094 238.539063 C 67.046875 238.796875 66.707031 238.949219 66.355469 238.992188 C 66.011719 239.042969 65.636719 238.984375 65.230469 238.820313 C 64.71875 238.621094 64.375 238.296875 64.199219 237.851563 C 64.019531 237.414063 64.042969 236.925781 64.261719 236.382813 C 64.511719 235.757813 64.886719 235.363281 65.386719 235.195313 C 65.894531 235.019531 66.527344 235.082031 67.277344 235.382813 L 68.433594 235.851563 L 68.480469 235.773438 C 68.644531 235.347656 68.652344 234.96875 68.496094 234.632813 C 68.339844 234.300781 68.03125 234.039063 67.574219 233.851563 C 67.300781 233.738281 67.011719 233.664063 66.699219 233.632813 C 66.394531 233.601563 66.082031 233.613281 65.761719 233.664063 L 66.089844 232.820313 C 66.464844 232.8125 66.800781 232.832031 67.105469 232.882813 C 67.417969 232.9375 67.707031 233.015625 67.980469 233.117188 C 68.707031 233.410156 69.167969 233.835938 69.355469 234.398438 C 69.550781 234.960938 69.480469 235.671875 69.136719 236.523438 Z M 74.804688 236.566406 L 75.742188 233.457031 L 76.585938 233.707031 L 74.179688 241.707031 L 73.335938 241.457031 L 73.601563 240.582031 C 73.320313 240.882813 73.011719 241.074219 72.679688 241.160156 C 72.355469 241.242188 72.007813 241.226563 71.632813 241.113281 C 70.996094 240.925781 70.5625 240.492188 70.335938 239.816406 C 70.117188 239.140625 70.140625 238.347656 70.414063 237.441406 C 70.683594 236.535156 71.09375 235.871094 71.648438 235.441406 C 72.210938 235.003906 72.808594 234.878906 73.445313 235.066406 C 73.820313 235.183594 74.121094 235.363281 74.351563 235.613281 C 74.578125 235.855469 74.730469 236.171875 74.804688 236.566406 Z M 71.289063 237.707031 C 71.078125 238.40625 71.042969 238.996094 71.179688 239.472656 C 71.3125 239.941406 71.605469 240.242188 72.054688 240.378906 C 72.511719 240.511719 72.929688 240.425781 73.304688 240.113281 C 73.6875 239.792969 73.984375 239.28125 74.195313 238.582031 C 74.402344 237.886719 74.433594 237.300781 74.289063 236.832031 C 74.152344 236.355469 73.855469 236.046875 73.398438 235.910156 C 72.949219 235.777344 72.539063 235.871094 72.164063 236.191406 C 71.789063 236.503906 71.496094 237.011719 71.289063 237.707031 Z M 71.289063 237.707031 "/>
</g>
</svg>

