<?xml version="1.0" encoding="UTF-8"?>
<svg xmlns="http://www.w3.org/2000/svg" xmlns:xlink="http://www.w3.org/1999/xlink" width="256pt" height="256pt" viewBox="0 0 256 256" version="1.1">
<g id="surface2">
<rect x="0" y="0" width="256" height="256" style="fill:rgb(94.901961%,93.72549%,91.372549%);fill-opacity:1;stroke:none;"/>
<path style=" stroke:none;fill-rule:evenodd;fill:rgb(70.980392%,82.352941%,61.176471%);fill-opacity:1;" d="M 121.597656 260 L 226.101563 260 L 236.898438 251.546875 L 246.902344 259.550781 L 260 249.070313 L 260 127.085938 L 216.648438 -4 L 87.777344 -4 L 44.902344 10.550781 Z M 121.597656 260 "/>
<path style=" stroke:none;fill-rule:evenodd;fill:rgb(70.980392%,82.352941%,61.176471%);fill-opacity:1;" d="M 252.550781 27.0625 L 260 24.105469 L 260 -4 L 260 9.960938 L 247.324219 11.488281 Z M 252.550781 27.0625 "/>
<path style=" stroke:none;fill-rule:evenodd;fill:rgb(81.960784%,81.568627%,80.392157%);fill-opacity:1;" d="M 2.960938 122.996094 L 6.703125 136.324219 L 17.863281 133.195313 L 14.117188 119.863281 Z M 2.960938 122.996094 "/>
<path style="fill:none;stroke-width:1;stroke-linecap:round;stroke-linejoin:round;stroke:rgb(81.960784%,81.960784%,81.960784%);stroke-opacity:1;stroke-miterlimit:10;" d="M 2.960938 122.996094 L 6.703125 136.324219 L 17.863281 133.195313 L 14.117188 119.863281 L 2.960938 122.996094 "/>
<path style=" stroke:none;fill-rule:evenodd;fill:rgb(81.960784%,81.568627%,80.392157%);fill-opacity:1;" d="M -4 80.042969 L 2.574219 77.882813 L -0.300781 69.117188 L -4 70.332031 Z M -4 80.042969 "/>
<path style="fill:none;stroke-width:1;stroke-linecap:round;stroke-linejoin:round;stroke:rgb(81.960784%,81.960784%,81.960784%);stroke-opacity:1;stroke-miterlimit:10;" d="M -4 80.042969 L 2.574219 77.882813 L -0.300781 69.117188 L -4 70.332031 L -4 80.042969 "/>
<path style=" stroke:none;fill-rule:evenodd;fill:rgb(60%,70.196078%,80%);fill-opacity:1;" d="M 187.960938 141.824219 L 188.15625 144.222656 L 188.957031 148.425781 L 189.558594 149.824219 L 190.558594 150.621094 L 190.558594 149.425781 L 189.558594 146.824219 L 189.957031 143.824219 L 191.160156 141.421875 L 194.558594 139.421875 L 197.160156 138.023438 L 198.359375 137.023438 L 200.757813 135.824219 L 201.15625 134.425781 L 199.757813 130.425781 L 197.957031 128.222656 L 196.558594 128.023438 L 193.15625 130.023438 L 189.957031 133.226563 L 189.160156 137.625 Z M 187.960938 141.824219 "/>
<path style="fill:none;stroke-width:1;stroke-linecap:round;stroke-linejoin:round;stroke:rgb(70.196078%,77.647059%,83.137255%);stroke-opacity:1;stroke-miterlimit:10;" d="M 187.960938 141.824219 L 188.15625 144.222656 L 188.957031 148.425781 L 189.558594 149.824219 L 190.558594 150.621094 L 190.558594 149.425781 L 189.558594 146.824219 L 189.957031 143.824219 L 191.160156 141.421875 L 194.558594 139.421875 L 197.160156 138.023438 L 198.359375 137.023438 L 200.757813 135.824219 L 201.15625 134.425781 L 199.757813 130.425781 L 197.957031 128.222656 L 196.558594 128.023438 L 193.15625 130.023438 L 189.957031 133.226563 L 189.160156 137.625 L 187.960938 141.824219 "/>
<path style="fill:none;stroke-width:1;stroke-linecap:round;stroke-linejoin:round;stroke:rgb(100%,100%,100%);stroke-opacity:1;stroke-dasharray:2,3;stroke-miterlimit:10;" d="M -2 35.742188 L -0.191406 34.5 L 8.40625 28.699219 L 18.007813 22.902344 L 30.007813 16.300781 L 31.089844 15.765625 L 42.609375 10.097656 L 56.40625 4.101563 L 69.207031 -0.902344 L 72.074219 -2 "/>
<path style="fill:none;stroke-width:8;stroke-linecap:round;stroke-linejoin:round;stroke:rgb(75.686275%,70.980392%,61.568627%);stroke-opacity:1;stroke-miterlimit:10;" d="M 10.152344 252.363281 L 0.496094 255.179688 "/>
<path style="fill:none;stroke-width:8;stroke-linecap:round;stroke-linejoin:round;stroke:rgb(75.686275%,70.980392%,61.568627%);stroke-opacity:1;stroke-miterlimit:10;" d="M 9.015625 248.527344 L -3.402344 252.242188 "/>
<path style="fill:none;stroke-width:8;stroke-linecap:round;stroke-linejoin:round;stroke:rgb(75.686275%,70.980392%,61.568627%);stroke-opacity:1;stroke-miterlimit:10;" d="M 253.085938 2.507813 L 258.601563 2.507813 L 261.675781 3.132813 L 264 3.785156 "/>
<path style="fill:none;stroke-width:8;stroke-linecap:round;stroke-linejoin:round;stroke:rgb(75.686275%,70.980392%,61.568627%);stroke-opacity:1;stroke-miterlimit:10;" d="M 9.753906 251.015625 L 51.707031 236.632813 "/>
<path style="fill:none;stroke-width:10;stroke-linecap:round;stroke-linejoin:round;stroke:rgb(72.941176%,43.137255%,15.294118%);stroke-opacity:1;stroke-miterlimit:10;" d="M 40.40625 -11 L 24.914063 -1.691406 L -2.886719 15.707031 "/>
<path style="fill:none;stroke-width:10;stroke-linecap:round;stroke-linejoin:round;stroke:rgb(72.941176%,43.137255%,15.294118%);stroke-opacity:1;stroke-miterlimit:10;" d="M 0.0273438 22.160156 L 11.3125 15.910156 L 23.710938 9.511719 L 35.710938 4.507813 L 47.113281 0.109375 L 57.710938 -3.089844 L 68.710938 -5.6875 L 99.285156 -11 "/>
<path style="fill:none;stroke-width:8;stroke-linecap:round;stroke-linejoin:round;stroke:rgb(75.686275%,70.980392%,61.568627%);stroke-opacity:1;stroke-miterlimit:10;" d="M 259.894531 47.972656 L 239.847656 54.800781 "/>
<path style="fill:none;stroke-width:8;stroke-linecap:round;stroke-linejoin:round;stroke:rgb(75.686275%,70.980392%,61.568627%);stroke-opacity:1;stroke-miterlimit:10;" d="M 23.953125 212.269531 L 30.128906 232.628906 "/>
<path style="fill:none;stroke-width:8;stroke-linecap:round;stroke-linejoin:round;stroke:rgb(75.686275%,70.980392%,61.568627%);stroke-opacity:1;stroke-miterlimit:10;" d="M 232.949219 36.453125 L 253.242188 29.125 "/>
<path style="fill:none;stroke-width:8;stroke-linecap:round;stroke-linejoin:round;stroke:rgb(75.686275%,70.980392%,61.568627%);stroke-opacity:1;stroke-miterlimit:10;" d="M 26.820313 152.992188 L 6.128906 159.308594 "/>
<path style="fill:none;stroke-width:8;stroke-linecap:round;stroke-linejoin:round;stroke:rgb(75.686275%,70.980392%,61.568627%);stroke-opacity:1;stroke-miterlimit:10;" d="M 247.324219 11.488281 L 226.375 17.992188 "/>
<path style="fill:none;stroke-width:8;stroke-linecap:round;stroke-linejoin:round;stroke:rgb(75.686275%,70.980392%,61.568627%);stroke-opacity:1;stroke-miterlimit:10;" d="M 37.285156 188.132813 L 16.265625 194.480469 "/>
<path style="fill:none;stroke-width:8;stroke-linecap:round;stroke-linejoin:round;stroke:rgb(75.686275%,70.980392%,61.568627%);stroke-opacity:1;stroke-miterlimit:10;" d="M 31.621094 170.5625 L 9.203125 177.554688 "/>
<path style="fill:none;stroke-width:8;stroke-linecap:round;stroke-linejoin:round;stroke:rgb(75.686275%,70.980392%,61.568627%);stroke-opacity:1;stroke-miterlimit:10;" d="M 27.609375 61.898438 L 20.078125 36.996094 "/>
<path style="fill:none;stroke-width:8;stroke-linecap:round;stroke-linejoin:round;stroke:rgb(75.686275%,70.980392%,61.568627%);stroke-opacity:1;stroke-miterlimit:10;" d="M 6.664063 240.605469 L 8.273438 240.050781 L 30.128906 232.628906 L 48.886719 226.621094 "/>
<path style="fill:none;stroke-width:8;stroke-linecap:round;stroke-linejoin:round;stroke:rgb(75.686275%,70.980392%,61.568627%);stroke-opacity:1;stroke-miterlimit:10;" d="M 64.125 147.226563 L 57.253906 124.839844 L 49.773438 99.78125 "/>
<path style="fill:none;stroke-width:8;stroke-linecap:round;stroke-linejoin:round;stroke:rgb(75.686275%,70.980392%,61.568627%);stroke-opacity:1;stroke-miterlimit:10;" d="M 264 59.773438 L 260.691406 60.894531 L 243.804688 66.601563 "/>
<path style="fill:none;stroke-width:8;stroke-linecap:round;stroke-linejoin:round;stroke:rgb(75.686275%,70.980392%,61.568627%);stroke-opacity:1;stroke-miterlimit:10;" d="M 52.410156 54.5 L 27.609375 61.898438 L 2.207031 69.300781 "/>
<path style="fill:none;stroke-width:8;stroke-linecap:round;stroke-linejoin:round;stroke:rgb(75.686275%,70.980392%,61.568627%);stroke-opacity:1;stroke-miterlimit:10;" d="M 7.875 87.238281 L 58.160156 72.210938 "/>
<path style="fill:none;stroke-width:8;stroke-linecap:round;stroke-linejoin:round;stroke:rgb(75.686275%,70.980392%,61.568627%);stroke-opacity:1;stroke-miterlimit:10;" d="M 65.105469 95.304688 L 49.773438 99.78125 L 14.332031 109.566406 "/>
<path style="fill:none;stroke-width:8;stroke-linecap:round;stroke-linejoin:round;stroke:rgb(75.686275%,70.980392%,61.568627%);stroke-opacity:1;stroke-miterlimit:10;" d="M 36.164063 184.269531 L 87.242188 170.410156 "/>
<path style="fill:none;stroke-width:8;stroke-linecap:round;stroke-linejoin:round;stroke:rgb(75.686275%,70.980392%,61.568627%);stroke-opacity:1;stroke-miterlimit:10;" d="M -4.015625 49.222656 L 4.96875 45.464844 L 20.078125 36.996094 L 42.792969 24.269531 "/>
<path style="fill:none;stroke-width:8;stroke-linecap:round;stroke-linejoin:round;stroke:rgb(75.686275%,70.980392%,61.568627%);stroke-opacity:1;stroke-miterlimit:10;" d="M 27.9375 158.171875 L 64.125 147.226563 L 79.550781 142.992188 "/>
<path style="fill:none;stroke-width:8;stroke-linecap:round;stroke-linejoin:round;stroke:rgb(75.686275%,70.980392%,61.568627%);stroke-opacity:1;stroke-miterlimit:10;" d="M 101.457031 214.8125 L 72.703125 223 L 49.632813 229.378906 "/>
<path style="fill:none;stroke-width:8;stroke-linecap:round;stroke-linejoin:round;stroke:rgb(75.686275%,70.980392%,61.568627%);stroke-opacity:1;stroke-miterlimit:10;" d="M 1.40625 66.902344 L -9 70.425781 "/>
<path style="fill:none;stroke-width:8;stroke-linecap:round;stroke-linejoin:round;stroke:rgb(75.686275%,70.980392%,61.568627%);stroke-opacity:1;stroke-miterlimit:10;" d="M 251.054688 87.179688 L 264 82.632813 "/>
<path style="fill:none;stroke-width:8;stroke-linecap:round;stroke-linejoin:round;stroke:rgb(75.686275%,70.980392%,61.568627%);stroke-opacity:1;stroke-miterlimit:10;" d="M 240.578125 -9 L 247.324219 11.488281 L 252.550781 27.0625 L 253.242188 29.125 L 256.714844 38.507813 L 259.894531 47.972656 L 260.535156 49.792969 L 263.867188 59.824219 "/>
<path style="fill:none;stroke-width:8;stroke-linecap:round;stroke-linejoin:round;stroke:rgb(75.686275%,70.980392%,61.568627%);stroke-opacity:1;stroke-miterlimit:10;" d="M 1.539063 136.828125 L 6.128906 159.308594 L 9.203125 177.554688 L 16.265625 194.480469 L 18.503906 197.792969 L 20.414063 201.320313 L 22.066406 205.277344 L 23.1875 208.863281 L 23.953125 212.269531 "/>
<path style="fill:none;stroke-width:8;stroke-linecap:round;stroke-linejoin:round;stroke:rgb(75.686275%,70.980392%,61.568627%);stroke-opacity:1;stroke-miterlimit:10;" d="M -9 98.84375 L 8.949219 92.484375 "/>
<path style="fill:none;stroke-width:8;stroke-linecap:round;stroke-linejoin:round;stroke:rgb(75.686275%,70.980392%,61.568627%);stroke-opacity:1;stroke-miterlimit:10;" d="M 13.601563 264 L 10.152344 252.363281 L 9.753906 251.015625 L 9.015625 248.527344 L 6.664063 240.605469 L 1.492188 223 "/>
<path style="fill:none;stroke-width:8;stroke-linecap:round;stroke-linejoin:round;stroke:rgb(75.686275%,70.980392%,61.568627%);stroke-opacity:1;stroke-miterlimit:10;" d="M 86.042969 264 L 72.703125 223 "/>
<path style="fill:none;stroke-width:8;stroke-linecap:round;stroke-linejoin:round;stroke:rgb(75.686275%,70.980392%,61.568627%);stroke-opacity:1;stroke-miterlimit:10;" d="M -9 226.15625 L 1.492188 223 L 5.289063 222.113281 L 8.085938 221.039063 L 10.929688 219.445313 L 13.351563 217.695313 L 15.984375 215.152344 L 18.570313 213.800781 L 21.34375 212.851563 L 23.953125 212.269531 L 42.945313 206.871094 L 94.488281 192.304688 "/>
<path style="fill:none;stroke-width:8;stroke-linecap:round;stroke-linejoin:round;stroke:rgb(75.686275%,70.980392%,61.568627%);stroke-opacity:1;stroke-miterlimit:10;" d="M -9 130.546875 L -6.335938 130.941406 L -3.632813 132.015625 L -1.722656 133.242188 L 0.210938 135.019531 L 1.539063 136.828125 L 2.984375 137.75 L 4.824219 138.453125 L 7.015625 138.730469 L 8.949219 138.515625 L 21.71875 134.925781 L 57.253906 124.839844 L 72.421875 120.484375 "/>
<path style="fill:none;stroke-width:8;stroke-linecap:round;stroke-linejoin:round;stroke:rgb(75.686275%,70.980392%,61.568627%);stroke-opacity:1;stroke-miterlimit:10;" d="M 116.050781 264 L 101.457031 214.8125 L 94.488281 192.304688 L 87.242188 170.410156 L 79.550781 142.992188 L 72.421875 120.484375 L 65.105469 95.304688 L 58.160156 72.210938 L 52.410156 54.5 L 42.792969 24.269531 L 40.847656 17.835938 "/>
<path style="fill:none;stroke-width:8;stroke-linecap:round;stroke-linejoin:round;stroke:rgb(75.686275%,70.980392%,61.568627%);stroke-opacity:1;stroke-miterlimit:10;" d="M 243.804688 66.601563 L 240.253906 56.007813 "/>
<path style="fill:none;stroke-width:8;stroke-linecap:round;stroke-linejoin:round;stroke:rgb(75.686275%,70.980392%,61.568627%);stroke-opacity:1;stroke-miterlimit:10;" d="M 255.988281 101.179688 L 251.054688 87.179688 "/>
<path style="fill:none;stroke-width:8;stroke-linecap:round;stroke-linejoin:round;stroke:rgb(75.686275%,70.980392%,61.568627%);stroke-opacity:1;stroke-miterlimit:10;" d="M 251.054688 87.179688 L 243.804688 66.601563 "/>
<path style="fill:none;stroke-width:8;stroke-linecap:round;stroke-linejoin:round;stroke:rgb(75.686275%,70.980392%,61.568627%);stroke-opacity:1;stroke-miterlimit:10;" d="M 240.253906 56.007813 L 239.847656 54.800781 L 232.949219 36.453125 L 226.375 17.992188 L 218.285156 -3.359375 L 217.90625 -7.988281 L 218.105469 -9 "/>
<path style="fill:none;stroke-width:8;stroke-linecap:round;stroke-linejoin:round;stroke:rgb(75.686275%,70.980392%,61.568627%);stroke-opacity:1;stroke-miterlimit:10;" d="M 59.527344 264 L 51.707031 236.632813 L 49.632813 229.378906 L 48.886719 226.621094 L 42.945313 206.871094 L 37.285156 188.132813 L 36.164063 184.269531 L 31.621094 170.5625 L 27.9375 158.171875 L 26.820313 152.992188 L 21.71875 134.925781 L 14.332031 109.566406 L 8.949219 92.484375 L 7.875 87.238281 L 2.207031 69.300781 L 1.40625 66.902344 L -4.015625 49.222656 L -7.074219 39.234375 L -9 32.9375 "/>
<path style="fill:none;stroke-width:8;stroke-linecap:round;stroke-linejoin:round;stroke:rgb(75.686275%,70.980392%,61.568627%);stroke-opacity:1;stroke-miterlimit:10;" d="M 18.554688 -9 L 16.125 -7.765625 L 4.324219 -1.363281 L -6.074219 4.632813 L -9 6.367188 "/>
<path style="fill:none;stroke-width:11;stroke-linecap:round;stroke-linejoin:round;stroke:rgb(72.941176%,43.137255%,15.294118%);stroke-opacity:1;stroke-miterlimit:10;" d="M 52.847656 -12 L 49.625 -10.640625 L 34.824219 -3.636719 L 21.425781 3.363281 L 9.425781 10.160156 L -1.976563 16.761719 "/>
<path style="fill:none;stroke-width:11;stroke-linecap:round;stroke-linejoin:round;stroke:rgb(72.941176%,43.137255%,15.294118%);stroke-opacity:1;stroke-miterlimit:10;" d="M 0.0273438 22.160156 L 11.828125 15.363281 L 23.625 8.761719 L 37.226563 1.5625 L 51.824219 -5.238281 L 66.226563 -11.441406 L 67.679688 -12 "/>
<path style="fill:none;stroke-width:6;stroke-linecap:round;stroke-linejoin:round;stroke:rgb(100%,100%,100%);stroke-opacity:1;stroke-miterlimit:10;" d="M 10.152344 252.363281 L 0.496094 255.179688 "/>
<path style="fill:none;stroke-width:6;stroke-linecap:round;stroke-linejoin:round;stroke:rgb(100%,100%,100%);stroke-opacity:1;stroke-miterlimit:10;" d="M 9.015625 248.527344 L -3.402344 252.242188 "/>
<path style="fill:none;stroke-width:6;stroke-linecap:round;stroke-linejoin:round;stroke:rgb(100%,100%,100%);stroke-opacity:1;stroke-miterlimit:10;" d="M 253.085938 2.507813 L 258.601563 2.507813 L 261.675781 3.132813 L 264 3.785156 "/>
<path style="fill:none;stroke-width:6;stroke-linecap:round;stroke-linejoin:round;stroke:rgb(100%,100%,100%);stroke-opacity:1;stroke-miterlimit:10;" d="M 9.753906 251.015625 L 51.707031 236.632813 "/>
<path style="fill:none;stroke-width:8;stroke-linecap:round;stroke-linejoin:round;stroke:rgb(99.215686%,57.254902%,22.745098%);stroke-opacity:1;stroke-miterlimit:10;" d="M 40.40625 -11 L 24.914063 -1.691406 L -2.886719 15.707031 "/>
<path style="fill:none;stroke-width:8;stroke-linecap:round;stroke-linejoin:round;stroke:rgb(99.215686%,57.254902%,22.745098%);stroke-opacity:1;stroke-miterlimit:10;" d="M 0.0273438 22.160156 L 11.3125 15.910156 L 23.710938 9.511719 L 35.710938 4.507813 L 47.113281 0.109375 L 57.710938 -3.089844 L 68.710938 -5.6875 L 99.285156 -11 "/>
<path style="fill:none;stroke-width:6;stroke-linecap:round;stroke-linejoin:round;stroke:rgb(100%,100%,100%);stroke-opacity:1;stroke-miterlimit:10;" d="M 259.894531 47.972656 L 239.847656 54.800781 "/>
<path style="fill:none;stroke-width:6;stroke-linecap:round;stroke-linejoin:round;stroke:rgb(100%,100%,100%);stroke-opacity:1;stroke-miterlimit:10;" d="M 23.953125 212.269531 L 30.128906 232.628906 "/>
<path style="fill:none;stroke-width:6;stroke-linecap:round;stroke-linejoin:round;stroke:rgb(100%,100%,100%);stroke-opacity:1;stroke-miterlimit:10;" d="M 232.949219 36.453125 L 253.242188 29.125 "/>
<path style="fill:none;stroke-width:6;stroke-linecap:round;stroke-linejoin:round;stroke:rgb(100%,100%,100%);stroke-opacity:1;stroke-miterlimit:10;" d="M 26.820313 152.992188 L 6.128906 159.308594 "/>
<path style="fill:none;stroke-width:6;stroke-linecap:round;stroke-linejoin:round;stroke:rgb(100%,100%,100%);stroke-opacity:1;stroke-miterlimit:10;" d="M 247.324219 11.488281 L 226.375 17.992188 "/>
<path style="fill:none;stroke-width:6;stroke-linecap:round;stroke-linejoin:round;stroke:rgb(100%,100%,100%);stroke-opacity:1;stroke-miterlimit:10;" d="M 37.285156 188.132813 L 16.265625 194.480469 "/>
<path style="fill:none;stroke-width:6;stroke-linecap:round;stroke-linejoin:round;stroke:rgb(100%,100%,100%);stroke-opacity:1;stroke-miterlimit:10;" d="M 31.621094 170.5625 L 9.203125 177.554688 "/>
<path style="fill:none;stroke-width:6;stroke-linecap:round;stroke-linejoin:round;stroke:rgb(100%,100%,100%);stroke-opacity:1;stroke-miterlimit:10;" d="M 27.609375 61.898438 L 20.078125 36.996094 "/>
<path style="fill:none;stroke-width:6;stroke-linecap:round;stroke-linejoin:round;stroke:rgb(100%,100%,100%);stroke-opacity:1;stroke-miterlimit:10;" d="M 6.664063 240.605469 L 8.273438 240.050781 L 30.128906 232.628906 L 48.886719 226.621094 "/>
<path style="fill:none;stroke-width:6;stroke-linecap:round;stroke-linejoin:round;stroke:rgb(100%,100%,100%);stroke-opacity:1;stroke-miterlimit:10;" d="M 64.125 147.226563 L 57.253906 124.839844 L 49.773438 99.78125 "/>
<path style="fill:none;stroke-width:6;stroke-linecap:round;stroke-linejoin:round;stroke:rgb(100%,100%,100%);stroke-opacity:1;stroke-miterlimit:10;" d="M 264 59.773438 L 260.691406 60.894531 L 243.804688 66.601563 "/>
<path style="fill:none;stroke-width:6;stroke-linecap:round;stroke-linejoin:round;stroke:rgb(100%,100%,100%);stroke-opacity:1;stroke-miterlimit:10;" d="M 52.410156 54.5 L 27.609375 61.898438 L 2.207031 69.300781 "/>
<path style="fill:none;stroke-width:6;stroke-linecap:round;stroke-linejoin:round;stroke:rgb(100%,100%,100%);stroke-opacity:1;stroke-miterlimit:10;" d="M 7.875 87.238281 L 58.160156 72.210938 "/>
<path style="fill:none;stroke-width:6;stroke-linecap:round;stroke-linejoin:round;stroke:rgb(100%,100%,100%);stroke-opacity:1;stroke-miterlimit:10;" d="M 65.105469 95.304688 L 49.773438 99.78125 L 14.332031 109.566406 "/>
<path style="fill:none;stroke-width:6;stroke-linecap:round;stroke-linejoin:round;stroke:rgb(100%,100%,100%);stroke-opacity:1;stroke-miterlimit:10;" d="M 36.164063 184.269531 L 87.242188 170.410156 "/>
<path style="fill:none;stroke-width:6;stroke-linecap:round;stroke-linejoin:round;stroke:rgb(100%,100%,100%);stroke-opacity:1;stroke-miterlimit:10;" d="M -4.015625 49.222656 L 4.96875 45.464844 L 20.078125 36.996094 L 42.792969 24.269531 "/>
<path style="fill:none;stroke-width:6;stroke-linecap:round;stroke-linejoin:round;stroke:rgb(100%,100%,100%);stroke-opacity:1;stroke-miterlimit:10;" d="M 27.9375 158.171875 L 64.125 147.226563 L 79.550781 142.992188 "/>
<path style="fill:none;stroke-width:6;stroke-linecap:round;stroke-linejoin:round;stroke:rgb(100%,100%,100%);stroke-opacity:1;stroke-miterlimit:10;" d="M 101.457031 214.8125 L 72.703125 223 L 49.632813 229.378906 "/>
<path style="fill:none;stroke-width:6;stroke-linecap:round;stroke-linejoin:round;stroke:rgb(100%,100%,100%);stroke-opacity:1;stroke-miterlimit:10;" d="M 1.40625 66.902344 L -9 70.425781 "/>
<path style="fill:none;stroke-width:6;stroke-linecap:round;stroke-linejoin:round;stroke:rgb(100%,100%,100%);stroke-opacity:1;stroke-miterlimit:10;" d="M 251.054688 87.179688 L 264 82.632813 "/>
<path style="fill:none;stroke-width:6;stroke-linecap:round;stroke-linejoin:round;stroke:rgb(100%,100%,100%);stroke-opacity:1;stroke-miterlimit:10;" d="M 240.578125 -9 L 247.324219 11.488281 L 252.550781 27.0625 L 253.242188 29.125 L 256.714844 38.507813 L 259.894531 47.972656 L 260.535156 49.792969 L 263.867188 59.824219 "/>
<path style="fill:none;stroke-width:6;stroke-linecap:round;stroke-linejoin:round;stroke:rgb(100%,100%,100%);stroke-opacity:1;stroke-miterlimit:10;" d="M 1.539063 136.828125 L 6.128906 159.308594 L 9.203125 177.554688 L 16.265625 194.480469 L 18.503906 197.792969 L 20.414063 201.320313 L 22.066406 205.277344 L 23.1875 208.863281 L 23.953125 212.269531 "/>
<path style="fill:none;stroke-width:6;stroke-linecap:round;stroke-linejoin:round;stroke:rgb(100%,100%,100%);stroke-opacity:1;stroke-miterlimit:10;" d="M -9 98.84375 L 8.949219 92.484375 "/>
<path style="fill:none;stroke-width:6;stroke-linecap:round;stroke-linejoin:round;stroke:rgb(100%,100%,100%);stroke-opacity:1;stroke-miterlimit:10;" d="M 13.601563 264 L 10.152344 252.363281 L 9.753906 251.015625 L 9.015625 248.527344 L 6.664063 240.605469 L 1.492188 223 "/>
<path style="fill:none;stroke-width:6;stroke-linecap:round;stroke-linejoin:round;stroke:rgb(100%,100%,100%);stroke-opacity:1;stroke-miterlimit:10;" d="M 86.042969 264 L 72.703125 223 "/>
<path style="fill:none;stroke-width:6;stroke-linecap:round;stroke-linejoin:round;stroke:rgb(100%,100%,100%);stroke-opacity:1;stroke-miterlimit:10;" d="M -9 226.15625 L 1.492188 223 L 5.289063 222.113281 L 8.085938 221.039063 L 10.929688 219.445313 L 13.351563 217.695313 L 15.984375 215.152344 L 18.570313 213.800781 L 21.34375 212.851563 L 23.953125 212.269531 L 42.945313 206.871094 L 94.488281 192.304688 "/>
<path style="fill:none;stroke-width:6;stroke-linecap:round;stroke-linejoin:round;stroke:rgb(100%,100%,100%);stroke-opacity:1;stroke-miterlimit:10;" d="M -9 130.546875 L -6.335938 130.941406 L -3.632813 132.015625 L -1.722656 133.242188 L 0.210938 135.019531 L 1.539063 136.828125 L 2.984375 137.75 L 4.824219 138.453125 L 7.015625 138.730469 L 8.949219 138.515625 L 21.71875 134.925781 L 57.253906 124.839844 L 72.421875 120.484375 "/>
<path style="fill:none;stroke-width:6;stroke-linecap:round;stroke-linejoin:round;stroke:rgb(100%,100%,100%);stroke-opacity:1;stroke-miterlimit:10;" d="M 116.050781 264 L 101.457031 214.8125 L 94.488281 192.304688 L 87.242188 170.410156 L 79.550781 142.992188 L 72.421875 120.484375 L 65.105469 95.304688 L 58.160156 72.210938 L 52.410156 54.5 L 42.792969 24.269531 L 40.847656 17.835938 "/>
<path style="fill:none;stroke-width:6;stroke-linecap:round;stroke-linejoin:round;stroke:rgb(100%,99.215686%,54.509804%);stroke-opacity:1;stroke-miterlimit:10;" d="M 243.804688 66.601563 L 240.253906 56.007813 "/>
<path style="fill:none;stroke-width:6;stroke-linecap:round;stroke-linejoin:round;stroke:rgb(100%,99.215686%,54.509804%);stroke-opacity:1;stroke-miterlimit:10;" d="M 255.988281 101.179688 L 251.054688 87.179688 "/>
<path style="fill:none;stroke-width:6;stroke-linecap:round;stroke-linejoin:round;stroke:rgb(100%,99.215686%,54.509804%);stroke-opacity:1;stroke-miterlimit:10;" d="M 251.054688 87.179688 L 243.804688 66.601563 "/>
<path style="fill:none;stroke-width:6;stroke-linecap:round;stroke-linejoin:round;stroke:rgb(100%,99.215686%,54.509804%);stroke-opacity:1;stroke-miterlimit:10;" d="M 240.253906 56.007813 L 239.847656 54.800781 L 232.949219 36.453125 L 226.375 17.992188 L 218.285156 -3.359375 L 217.90625 -7.988281 L 218.105469 -9 "/>
<path style="fill:none;stroke-width:6;stroke-linecap:round;stroke-linejoin:round;stroke:rgb(100%,99.215686%,54.509804%);stroke-opacity:1;stroke-miterlimit:10;" d="M 59.527344 264 L 51.707031 236.632813 L 49.632813 229.378906 L 48.886719 226.621094 L 42.945313 206.871094 L 37.285156 188.132813 L 36.164063 184.269531 L 31.621094 170.5625 L 27.9375 158.171875 L 26.820313 152.992188 L 21.71875 134.925781 L 14.332031 109.566406 L 8.949219 92.484375 L 7.875 87.238281 L 2.207031 69.300781 L 1.40625 66.902344 L -4.015625 49.222656 L -7.074219 39.234375 L -9 32.9375 "/>
<path style="fill:none;stroke-width:6;stroke-linecap:round;stroke-linejoin:round;stroke:rgb(100%,99.215686%,54.509804%);stroke-opacity:1;stroke-miterlimit:10;" d="M 18.554688 -9 L 16.125 -7.765625 L 4.324219 -1.363281 L -6.074219 4.632813 L -9 6.367188 "/>
<path style="fill:none;stroke-width:9;stroke-linecap:round;stroke-linejoin:round;stroke:rgb(99.215686%,57.254902%,22.745098%);stroke-opacity:1;stroke-miterlimit:10;" d="M 52.847656 -12 L 49.625 -10.640625 L 34.824219 -3.636719 L 21.425781 3.363281 L 9.425781 10.160156 L -1.976563 16.761719 "/>
<path style="fill:none;stroke-width:9;stroke-linecap:round;stroke-linejoin:round;stroke:rgb(99.215686%,57.254902%,22.745098%);stroke-opacity:1;stroke-miterlimit:10;" d="M 0.0273438 22.160156 L 11.828125 15.363281 L 23.625 8.761719 L 37.226563 1.5625 L 51.824219 -5.238281 L 66.226563 -11.441406 L 67.679688 -12 "/>
<path style="fill:none;stroke-width:11;stroke-linecap:butt;stroke-linejoin:round;stroke:rgb(53.333333%,53.333333%,53.333333%);stroke-opacity:1;stroke-miterlimit:10;" d="M -10 28.175781 L 0.0273438 22.160156 "/>
<path style="fill:none;stroke-width:9;stroke-linecap:round;stroke-linejoin:round;stroke:rgb(99.215686%,57.254902%,22.745098%);stroke-opacity:1;stroke-miterlimit:10;" d="M -10 28.175781 L 0.0273438 22.160156 "/>
<path style="fill:none;stroke-width:3;stroke-linecap:round;stroke-linejoin:round;stroke:rgb(100%,100%,100%);stroke-opacity:1;stroke-miterlimit:10;" d="M 144.113281 135.601563 L 144.113281 136.648438 C 143.746094 136.453125 143.398438 136.304688 143.066406 136.210938 C 142.730469 136.117188 142.414063 136.070313 142.113281 136.070313 C 141.582031 136.070313 141.167969 136.1875 140.878906 136.414063 C 140.597656 136.644531 140.457031 136.96875 140.457031 137.382813 C 140.457031 137.738281 140.550781 138.007813 140.738281 138.195313 C 140.925781 138.375 141.289063 138.519531 141.832031 138.632813 L 142.410156 138.757813 C 143.136719 138.914063 143.675781 139.191406 144.019531 139.585938 C 144.371094 139.972656 144.550781 140.488281 144.550781 141.132813 C 144.550781 141.914063 144.316406 142.507813 143.847656 142.914063 C 143.378906 143.3125 142.691406 143.507813 141.785156 143.507813 C 141.441406 143.507813 141.074219 143.460938 140.691406 143.367188 C 140.304688 143.285156 139.910156 143.160156 139.503906 142.992188 L 139.503906 141.882813 C 139.898438 142.132813 140.285156 142.320313 140.660156 142.445313 C 141.042969 142.570313 141.417969 142.632813 141.785156 142.632813 C 142.335938 142.632813 142.761719 142.515625 143.066406 142.273438 C 143.378906 142.023438 143.535156 141.675781 143.535156 141.226563 C 143.535156 140.832031 143.425781 140.523438 143.207031 140.304688 C 142.988281 140.078125 142.628906 139.90625 142.128906 139.789063 L 141.535156 139.664063 C 140.804688 139.507813 140.277344 139.257813 139.957031 138.914063 C 139.632813 138.570313 139.472656 138.09375 139.472656 137.476563 C 139.472656 136.769531 139.695313 136.210938 140.144531 135.804688 C 140.589844 135.390625 141.210938 135.179688 142.003906 135.179688 C 142.347656 135.179688 142.691406 135.21875 143.035156 135.289063 C 143.386719 135.363281 143.746094 135.46875 144.113281 135.601563 Z M 148.128906 138.023438 C 147.648438 138.023438 147.269531 138.234375 146.988281 138.648438 C 146.714844 139.066406 146.582031 139.632813 146.582031 140.351563 C 146.582031 141.070313 146.714844 141.640625 146.988281 142.054688 C 147.269531 142.460938 147.648438 142.664063 148.128906 142.664063 C 148.605469 142.664063 148.980469 142.460938 149.253906 142.054688 C 149.535156 141.640625 149.675781 141.070313 149.675781 140.351563 C 149.675781 139.632813 149.535156 139.066406 149.253906 138.648438 C 148.980469 138.234375 148.605469 138.023438 148.128906 138.023438 Z M 148.128906 137.195313 C 148.898438 137.195313 149.503906 137.476563 149.941406 138.039063 C 150.386719 138.59375 150.613281 139.363281 150.613281 140.351563 C 150.613281 141.332031 150.386719 142.101563 149.941406 142.664063 C 149.503906 143.226563 148.898438 143.507813 148.128906 143.507813 C 147.347656 143.507813 146.738281 143.226563 146.300781 142.664063 C 145.863281 142.101563 145.644531 141.332031 145.644531 140.351563 C 145.644531 139.363281 145.863281 138.59375 146.300781 138.039063 C 146.738281 137.476563 147.347656 137.195313 148.128906 137.195313 Z M 151.988281 140.976563 L 151.988281 137.335938 L 152.878906 137.335938 L 152.878906 140.945313 C 152.878906 141.507813 152.976563 141.9375 153.175781 142.226563 C 153.371094 142.507813 153.667969 142.648438 154.066406 142.648438 C 154.554688 142.648438 154.933594 142.484375 155.207031 142.148438 C 155.488281 141.804688 155.628906 141.335938 155.628906 140.742188 L 155.628906 137.335938 L 156.519531 137.335938 L 156.519531 143.351563 L 155.628906 143.351563 L 155.628906 142.429688 C 155.410156 142.796875 155.160156 143.066406 154.878906 143.242188 C 154.597656 143.417969 154.261719 143.507813 153.878906 143.507813 C 153.261719 143.507813 152.792969 143.296875 152.472656 142.867188 C 152.148438 142.429688 151.988281 141.800781 151.988281 140.976563 Z M 154.222656 137.195313 Z M 159.238281 135.632813 L 159.238281 137.335938 L 161.066406 137.335938 L 161.066406 138.101563 L 159.238281 138.101563 L 159.238281 141.367188 C 159.238281 141.859375 159.292969 142.175781 159.410156 142.320313 C 159.535156 142.457031 159.785156 142.523438 160.160156 142.523438 L 161.066406 142.523438 L 161.066406 143.351563 L 160.160156 143.351563 C 159.472656 143.351563 158.996094 143.210938 158.738281 142.929688 C 158.476563 142.640625 158.347656 142.117188 158.347656 141.367188 L 158.347656 138.101563 L 157.691406 138.101563 L 157.691406 137.335938 L 158.347656 137.335938 L 158.347656 135.632813 Z M 166.738281 139.726563 L 166.738281 143.351563 L 165.847656 143.351563 L 165.847656 139.757813 C 165.847656 139.1875 165.742188 138.757813 165.535156 138.476563 C 165.335938 138.195313 165.039063 138.054688 164.644531 138.054688 C 164.164063 138.054688 163.785156 138.226563 163.503906 138.570313 C 163.230469 138.90625 163.097656 139.363281 163.097656 139.945313 L 163.097656 143.351563 L 162.191406 143.351563 L 162.191406 134.992188 L 163.097656 134.992188 L 163.097656 138.273438 C 163.304688 137.910156 163.550781 137.640625 163.832031 137.460938 C 164.121094 137.285156 164.460938 137.195313 164.847656 137.195313 C 165.460938 137.195313 165.929688 137.410156 166.253906 137.835938 C 166.574219 138.265625 166.738281 138.894531 166.738281 139.726563 Z M 176.019531 135.601563 L 176.019531 136.648438 C 175.652344 136.453125 175.304688 136.304688 174.972656 136.210938 C 174.636719 136.117188 174.320313 136.070313 174.019531 136.070313 C 173.488281 136.070313 173.074219 136.1875 172.785156 136.414063 C 172.503906 136.644531 172.363281 136.96875 172.363281 137.382813 C 172.363281 137.738281 172.457031 138.007813 172.644531 138.195313 C 172.832031 138.375 173.195313 138.519531 173.738281 138.632813 L 174.316406 138.757813 C 175.042969 138.914063 175.582031 139.191406 175.925781 139.585938 C 176.277344 139.972656 176.457031 140.488281 176.457031 141.132813 C 176.457031 141.914063 176.222656 142.507813 175.753906 142.914063 C 175.285156 143.3125 174.597656 143.507813 173.691406 143.507813 C 173.347656 143.507813 172.980469 143.460938 172.597656 143.367188 C 172.210938 143.285156 171.816406 143.160156 171.410156 142.992188 L 171.410156 141.882813 C 171.804688 142.132813 172.191406 142.320313 172.566406 142.445313 C 172.949219 142.570313 173.324219 142.632813 173.691406 142.632813 C 174.242188 142.632813 174.667969 142.515625 174.972656 142.273438 C 175.285156 142.023438 175.441406 141.675781 175.441406 141.226563 C 175.441406 140.832031 175.332031 140.523438 175.113281 140.304688 C 174.894531 140.078125 174.535156 139.90625 174.035156 139.789063 L 173.441406 139.664063 C 172.710938 139.507813 172.183594 139.257813 171.863281 138.914063 C 171.539063 138.570313 171.378906 138.09375 171.378906 137.476563 C 171.378906 136.769531 171.601563 136.210938 172.050781 135.804688 C 172.496094 135.390625 173.117188 135.179688 173.910156 135.179688 C 174.253906 135.179688 174.597656 135.21875 174.941406 135.289063 C 175.292969 135.363281 175.652344 135.46875 176.019531 135.601563 Z M 182.441406 139.726563 L 182.441406 143.351563 L 181.550781 143.351563 L 181.550781 139.757813 C 181.550781 139.1875 181.445313 138.757813 181.238281 138.476563 C 181.039063 138.195313 180.742188 138.054688 180.347656 138.054688 C 179.867188 138.054688 179.488281 138.226563 179.207031 138.570313 C 178.933594 138.90625 178.800781 139.363281 178.800781 139.945313 L 178.800781 143.351563 L 177.894531 143.351563 L 177.894531 134.992188 L 178.800781 134.992188 L 178.800781 138.273438 C 179.007813 137.910156 179.253906 137.640625 179.535156 137.460938 C 179.824219 137.285156 180.164063 137.195313 180.550781 137.195313 C 181.164063 137.195313 181.632813 137.410156 181.957031 137.835938 C 182.277344 138.265625 182.441406 138.894531 182.441406 139.726563 Z M 186.316406 138.023438 C 185.835938 138.023438 185.457031 138.234375 185.175781 138.648438 C 184.902344 139.066406 184.769531 139.632813 184.769531 140.351563 C 184.769531 141.070313 184.902344 141.640625 185.175781 142.054688 C 185.457031 142.460938 185.835938 142.664063 186.316406 142.664063 C 186.792969 142.664063 187.167969 142.460938 187.441406 142.054688 C 187.722656 141.640625 187.863281 141.070313 187.863281 140.351563 C 187.863281 139.632813 187.722656 139.066406 187.441406 138.648438 C 187.167969 138.234375 186.792969 138.023438 186.316406 138.023438 Z M 186.316406 137.195313 C 187.085938 137.195313 187.691406 137.476563 188.128906 138.039063 C 188.574219 138.59375 188.800781 139.363281 188.800781 140.351563 C 188.800781 141.332031 188.574219 142.101563 188.128906 142.664063 C 187.691406 143.226563 187.085938 143.507813 186.316406 143.507813 C 185.535156 143.507813 184.925781 143.226563 184.488281 142.664063 C 184.050781 142.101563 183.832031 141.332031 183.832031 140.351563 C 183.832031 139.363281 184.050781 138.59375 184.488281 138.039063 C 184.925781 137.476563 185.535156 137.195313 186.316406 137.195313 Z M 193.410156 138.257813 C 193.304688 138.195313 193.191406 138.148438 193.066406 138.117188 C 192.949219 138.085938 192.824219 138.070313 192.691406 138.070313 C 192.179688 138.070313 191.789063 138.253906 191.519531 138.617188 C 191.257813 138.984375 191.128906 139.503906 191.128906 140.179688 L 191.128906 143.351563 L 190.222656 143.351563 L 190.222656 137.335938 L 191.128906 137.335938 L 191.128906 138.273438 C 191.316406 137.910156 191.554688 137.640625 191.847656 137.460938 C 192.148438 137.285156 192.511719 137.195313 192.941406 137.195313 C 193.003906 137.195313 193.070313 137.203125 193.144531 137.210938 C 193.226563 137.210938 193.308594 137.222656 193.394531 137.242188 Z M 198.957031 140.101563 L 198.957031 140.585938 L 194.863281 140.585938 C 194.902344 141.265625 195.089844 141.78125 195.425781 142.132813 C 195.757813 142.488281 196.214844 142.664063 196.800781 142.664063 C 197.144531 142.664063 197.472656 142.617188 197.785156 142.523438 C 198.105469 142.429688 198.429688 142.296875 198.753906 142.117188 L 198.753906 143.039063 C 198.429688 143.195313 198.101563 143.3125 197.769531 143.382813 C 197.433594 143.464844 197.097656 143.507813 196.753906 143.507813 C 195.886719 143.507813 195.199219 143.234375 194.691406 142.679688 C 194.191406 142.117188 193.941406 141.359375 193.941406 140.398438 C 193.941406 139.421875 194.179688 138.644531 194.660156 138.070313 C 195.136719 137.488281 195.785156 137.195313 196.597656 137.195313 C 197.324219 137.195313 197.898438 137.457031 198.316406 137.976563 C 198.742188 138.5 198.957031 139.207031 198.957031 140.101563 Z M 198.066406 139.804688 C 198.054688 139.265625 197.917969 138.832031 197.660156 138.507813 C 197.398438 138.1875 197.050781 138.023438 196.613281 138.023438 C 196.113281 138.023438 195.710938 138.179688 195.410156 138.492188 C 195.105469 138.804688 194.933594 139.242188 194.894531 139.804688 Z M 146.207031 153.210938 L 146.207031 151.054688 L 144.613281 151.054688 L 144.613281 150.164063 L 147.175781 150.164063 L 147.175781 153.601563 C 146.800781 153.90625 146.382813 154.132813 145.925781 154.289063 C 145.476563 154.433594 144.992188 154.507813 144.472656 154.507813 C 143.347656 154.507813 142.464844 154.144531 141.832031 153.414063 C 141.195313 152.675781 140.878906 151.65625 140.878906 150.351563 C 140.878906 149.039063 141.195313 148.019531 141.832031 147.289063 C 142.464844 146.550781 143.347656 146.179688 144.472656 146.179688 C 144.941406 146.179688 145.386719 146.25 145.816406 146.382813 C 146.242188 146.507813 146.632813 146.695313 146.988281 146.945313 L 146.988281 148.101563 C 146.621094 147.769531 146.238281 147.519531 145.832031 147.351563 C 145.425781 147.175781 144.996094 147.085938 144.550781 147.085938 C 143.675781 147.085938 143.011719 147.363281 142.566406 147.914063 C 142.117188 148.457031 141.894531 149.269531 141.894531 150.351563 C 141.894531 151.4375 142.117188 152.253906 142.566406 152.804688 C 143.011719 153.347656 143.675781 153.617188 144.550781 153.617188 C 144.902344 153.617188 145.210938 153.585938 145.472656 153.523438 C 145.742188 153.453125 145.988281 153.347656 146.207031 153.210938 Z M 151.019531 149.023438 C 150.539063 149.023438 150.160156 149.234375 149.878906 149.648438 C 149.605469 150.066406 149.472656 150.632813 149.472656 151.351563 C 149.472656 152.070313 149.605469 152.640625 149.878906 153.054688 C 150.160156 153.460938 150.539063 153.664063 151.019531 153.664063 C 151.496094 153.664063 151.871094 153.460938 152.144531 153.054688 C 152.425781 152.640625 152.566406 152.070313 152.566406 151.351563 C 152.566406 150.632813 152.425781 150.066406 152.144531 149.648438 C 151.871094 149.234375 151.496094 149.023438 151.019531 149.023438 Z M 151.019531 148.195313 C 151.789063 148.195313 152.394531 148.476563 152.832031 149.039063 C 153.277344 149.59375 153.503906 150.363281 153.503906 151.351563 C 153.503906 152.332031 153.277344 153.101563 152.832031 153.664063 C 152.394531 154.226563 151.789063 154.507813 151.019531 154.507813 C 150.238281 154.507813 149.628906 154.226563 149.191406 153.664063 C 148.753906 153.101563 148.535156 152.332031 148.535156 151.351563 C 148.535156 150.363281 148.753906 149.59375 149.191406 149.039063 C 149.628906 148.476563 150.238281 148.195313 151.019531 148.195313 Z M 154.972656 145.992188 L 155.863281 145.992188 L 155.863281 154.351563 L 154.972656 154.351563 Z M 160.457031 145.992188 L 160.457031 146.820313 L 159.613281 146.820313 C 159.289063 146.820313 159.066406 146.894531 158.941406 147.039063 C 158.816406 147.175781 158.753906 147.429688 158.753906 147.804688 L 158.753906 148.335938 L 160.222656 148.335938 L 160.222656 149.101563 L 158.753906 149.101563 L 158.753906 154.351563 L 157.863281 154.351563 L 157.863281 149.101563 L 157.003906 149.101563 L 157.003906 148.335938 L 157.863281 148.335938 L 157.863281 147.914063 C 157.863281 147.25 158.003906 146.765625 158.285156 146.460938 C 158.566406 146.148438 159.007813 145.992188 159.613281 145.992188 Z M 169.785156 146.945313 L 169.785156 148.101563 C 169.449219 147.757813 169.097656 147.503906 168.722656 147.335938 C 168.355469 147.171875 167.964844 147.085938 167.550781 147.085938 C 166.726563 147.085938 166.089844 147.367188 165.644531 147.929688 C 165.207031 148.484375 164.988281 149.289063 164.988281 150.351563 C 164.988281 151.40625 165.207031 152.210938 165.644531 152.773438 C 166.089844 153.335938 166.726563 153.617188 167.550781 153.617188 C 167.964844 153.617188 168.355469 153.535156 168.722656 153.367188 C 169.097656 153.203125 169.449219 152.945313 169.785156 152.601563 L 169.785156 153.726563 C 169.441406 153.988281 169.074219 154.1875 168.691406 154.320313 C 168.316406 154.445313 167.914063 154.507813 167.488281 154.507813 C 166.394531 154.507813 165.535156 154.140625 164.910156 153.398438 C 164.285156 152.648438 163.972656 151.632813 163.972656 150.351563 C 163.972656 149.0625 164.285156 148.046875 164.910156 147.304688 C 165.535156 146.554688 166.394531 146.179688 167.488281 146.179688 C 167.925781 146.179688 168.332031 146.25 168.707031 146.382813 C 169.089844 146.507813 169.449219 146.695313 169.785156 146.945313 Z M 173.347656 149.023438 C 172.867188 149.023438 172.488281 149.234375 172.207031 149.648438 C 171.933594 150.066406 171.800781 150.632813 171.800781 151.351563 C 171.800781 152.070313 171.933594 152.640625 172.207031 153.054688 C 172.488281 153.460938 172.867188 153.664063 173.347656 153.664063 C 173.824219 153.664063 174.199219 153.460938 174.472656 153.054688 C 174.753906 152.640625 174.894531 152.070313 174.894531 151.351563 C 174.894531 150.632813 174.753906 150.066406 174.472656 149.648438 C 174.199219 149.234375 173.824219 149.023438 173.347656 149.023438 Z M 173.347656 148.195313 C 174.117188 148.195313 174.722656 148.476563 175.160156 149.039063 C 175.605469 149.59375 175.832031 150.363281 175.832031 151.351563 C 175.832031 152.332031 175.605469 153.101563 175.160156 153.664063 C 174.722656 154.226563 174.117188 154.507813 173.347656 154.507813 C 172.566406 154.507813 171.957031 154.226563 171.519531 153.664063 C 171.082031 153.101563 170.863281 152.332031 170.863281 151.351563 C 170.863281 150.363281 171.082031 149.59375 171.519531 149.039063 C 171.957031 148.476563 172.566406 148.195313 173.347656 148.195313 Z M 177.207031 151.976563 L 177.207031 148.335938 L 178.097656 148.335938 L 178.097656 151.945313 C 178.097656 152.507813 178.195313 152.9375 178.394531 153.226563 C 178.589844 153.507813 178.886719 153.648438 179.285156 153.648438 C 179.773438 153.648438 180.152344 153.484375 180.425781 153.148438 C 180.707031 152.804688 180.847656 152.335938 180.847656 151.742188 L 180.847656 148.335938 L 181.738281 148.335938 L 181.738281 154.351563 L 180.847656 154.351563 L 180.847656 153.429688 C 180.628906 153.796875 180.378906 154.066406 180.097656 154.242188 C 179.816406 154.417969 179.480469 154.507813 179.097656 154.507813 C 178.480469 154.507813 178.011719 154.296875 177.691406 153.867188 C 177.367188 153.429688 177.207031 152.800781 177.207031 151.976563 Z M 179.441406 148.195313 Z M 186.722656 149.257813 C 186.617188 149.195313 186.503906 149.148438 186.378906 149.117188 C 186.261719 149.085938 186.136719 149.070313 186.003906 149.070313 C 185.492188 149.070313 185.101563 149.253906 184.832031 149.617188 C 184.570313 149.984375 184.441406 150.503906 184.441406 151.179688 L 184.441406 154.351563 L 183.535156 154.351563 L 183.535156 148.335938 L 184.441406 148.335938 L 184.441406 149.273438 C 184.628906 148.910156 184.867188 148.640625 185.160156 148.460938 C 185.460938 148.285156 185.824219 148.195313 186.253906 148.195313 C 186.316406 148.195313 186.382813 148.203125 186.457031 148.210938 C 186.539063 148.210938 186.621094 148.222656 186.707031 148.242188 Z M 191.097656 148.507813 L 191.097656 149.445313 C 190.835938 149.300781 190.570313 149.195313 190.300781 149.132813 C 190.039063 149.0625 189.761719 149.023438 189.472656 149.023438 C 189.023438 149.023438 188.691406 149.101563 188.472656 149.257813 C 188.253906 149.40625 188.144531 149.625 188.144531 149.914063 C 188.144531 150.144531 188.222656 150.328125 188.378906 150.460938 C 188.535156 150.585938 188.851563 150.710938 189.332031 150.835938 L 189.628906 150.914063 C 190.261719 151.0625 190.710938 151.273438 190.972656 151.554688 C 191.242188 151.828125 191.378906 152.207031 191.378906 152.695313 C 191.378906 153.25 191.179688 153.691406 190.785156 154.023438 C 190.386719 154.347656 189.839844 154.507813 189.144531 154.507813 C 188.851563 154.507813 188.550781 154.476563 188.238281 154.414063 C 187.925781 154.351563 187.589844 154.257813 187.238281 154.132813 L 187.238281 153.117188 C 187.570313 153.304688 187.894531 153.445313 188.207031 153.539063 C 188.527344 153.632813 188.847656 153.679688 189.160156 153.679688 C 189.574219 153.679688 189.898438 153.601563 190.128906 153.445313 C 190.355469 153.28125 190.472656 153.054688 190.472656 152.773438 C 190.472656 152.503906 190.386719 152.296875 190.222656 152.148438 C 190.054688 152.003906 189.695313 151.867188 189.144531 151.742188 L 188.847656 151.648438 C 188.292969 151.523438 187.894531 151.332031 187.644531 151.070313 C 187.402344 150.800781 187.285156 150.429688 187.285156 149.960938 C 187.285156 149.398438 187.460938 148.96875 187.816406 148.664063 C 188.179688 148.351563 188.695313 148.195313 189.363281 148.195313 C 189.683594 148.195313 189.992188 148.222656 190.285156 148.273438 C 190.574219 148.328125 190.847656 148.40625 191.097656 148.507813 Z M 197.425781 151.101563 L 197.425781 151.585938 L 193.332031 151.585938 C 193.371094 152.265625 193.558594 152.78125 193.894531 153.132813 C 194.226563 153.488281 194.683594 153.664063 195.269531 153.664063 C 195.613281 153.664063 195.941406 153.617188 196.253906 153.523438 C 196.574219 153.429688 196.898438 153.296875 197.222656 153.117188 L 197.222656 154.039063 C 196.898438 154.195313 196.570313 154.3125 196.238281 154.382813 C 195.902344 154.464844 195.566406 154.507813 195.222656 154.507813 C 194.355469 154.507813 193.667969 154.234375 193.160156 153.679688 C 192.660156 153.117188 192.410156 152.359375 192.410156 151.398438 C 192.410156 150.421875 192.648438 149.644531 193.128906 149.070313 C 193.605469 148.488281 194.253906 148.195313 195.066406 148.195313 C 195.792969 148.195313 196.367188 148.457031 196.785156 148.976563 C 197.210938 149.5 197.425781 150.207031 197.425781 151.101563 Z M 196.535156 150.804688 C 196.523438 150.265625 196.386719 149.832031 196.128906 149.507813 C 195.867188 149.1875 195.519531 149.023438 195.082031 149.023438 C 194.582031 149.023438 194.179688 149.179688 193.878906 149.492188 C 193.574219 149.804688 193.402344 150.242188 193.363281 150.804688 Z M 196.535156 150.804688 "/>
<path style=" stroke:none;fill-rule:evenodd;fill:rgb(0%,0%,0%);fill-opacity:1;" d="M 144.113281 135.601563 L 144.113281 136.648438 C 143.746094 136.453125 143.398438 136.304688 143.066406 136.210938 C 142.730469 136.117188 142.414063 136.070313 142.113281 136.070313 C 141.582031 136.070313 141.167969 136.1875 140.878906 136.414063 C 140.597656 136.644531 140.457031 136.96875 140.457031 137.382813 C 140.457031 137.738281 140.550781 138.007813 140.738281 138.195313 C 140.925781 138.375 141.289063 138.519531 141.832031 138.632813 L 142.410156 138.757813 C 143.136719 138.914063 143.675781 139.191406 144.019531 139.585938 C 144.371094 139.972656 144.550781 140.488281 144.550781 141.132813 C 144.550781 141.914063 144.316406 142.507813 143.847656 142.914063 C 143.378906 143.3125 142.691406 143.507813 141.785156 143.507813 C 141.441406 143.507813 141.074219 143.460938 140.691406 143.367188 C 140.304688 143.285156 139.910156 143.160156 139.503906 142.992188 L 139.503906 141.882813 C 139.898438 142.132813 140.285156 142.320313 140.660156 142.445313 C 141.042969 142.570313 141.417969 142.632813 141.785156 142.632813 C 142.335938 142.632813 142.761719 142.515625 143.066406 142.273438 C 143.378906 142.023438 143.535156 141.675781 143.535156 141.226563 C 143.535156 140.832031 143.425781 140.523438 143.207031 140.304688 C 142.988281 140.078125 142.628906 139.90625 142.128906 139.789063 L 141.535156 139.664063 C 140.804688 139.507813 140.277344 139.257813 139.957031 138.914063 C 139.632813 138.570313 139.472656 138.09375 139.472656 137.476563 C 139.472656 136.769531 139.695313 136.210938 140.144531 135.804688 C 140.589844 135.390625 141.210938 135.179688 142.003906 135.179688 C 142.347656 135.179688 142.691406 135.21875 143.035156 135.289063 C 143.386719 135.363281 143.746094 135.46875 144.113281 135.601563 Z M 148.128906 138.023438 C 147.648438 138.023438 147.269531 138.234375 146.988281 138.648438 C 146.714844 139.066406 146.582031 139.632813 146.582031 140.351563 C 146.582031 141.070313 146.714844 141.640625 146.988281 142.054688 C 147.269531 142.460938 147.648438 142.664063 148.128906 142.664063 C 148.605469 142.664063 148.980469 142.460938 149.253906 142.054688 C 149.535156 141.640625 149.675781 141.070313 149.675781 140.351563 C 149.675781 139.632813 149.535156 139.066406 149.253906 138.648438 C 148.980469 138.234375 148.605469 138.023438 148.128906 138.023438 Z M 148.128906 137.195313 C 148.898438 137.195313 149.503906 137.476563 149.941406 138.039063 C 150.386719 138.59375 150.613281 139.363281 150.613281 140.351563 C 150.613281 141.332031 150.386719 142.101563 149.941406 142.664063 C 149.503906 143.226563 148.898438 143.507813 148.128906 143.507813 C 147.347656 143.507813 146.738281 143.226563 146.300781 142.664063 C 145.863281 142.101563 145.644531 141.332031 145.644531 140.351563 C 145.644531 139.363281 145.863281 138.59375 146.300781 138.039063 C 146.738281 137.476563 147.347656 137.195313 148.128906 137.195313 Z M 151.988281 140.976563 L 151.988281 137.335938 L 152.878906 137.335938 L 152.878906 140.945313 C 152.878906 141.507813 152.976563 141.9375 153.175781 142.226563 C 153.371094 142.507813 153.667969 142.648438 154.066406 142.648438 C 154.554688 142.648438 154.933594 142.484375 155.207031 142.148438 C 155.488281 141.804688 155.628906 141.335938 155.628906 140.742188 L 155.628906 137.335938 L 156.519531 137.335938 L 156.519531 143.351563 L 155.628906 143.351563 L 155.628906 142.429688 C 155.410156 142.796875 155.160156 143.066406 154.878906 143.242188 C 154.597656 143.417969 154.261719 143.507813 153.878906 143.507813 C 153.261719 143.507813 152.792969 143.296875 152.472656 142.867188 C 152.148438 142.429688 151.988281 141.800781 151.988281 140.976563 Z M 154.222656 137.195313 Z M 159.238281 135.632813 L 159.238281 137.335938 L 161.066406 137.335938 L 161.066406 138.101563 L 159.238281 138.101563 L 159.238281 141.367188 C 159.238281 141.859375 159.292969 142.175781 159.410156 142.320313 C 159.535156 142.457031 159.785156 142.523438 160.160156 142.523438 L 161.066406 142.523438 L 161.066406 143.351563 L 160.160156 143.351563 C 159.472656 143.351563 158.996094 143.210938 158.738281 142.929688 C 158.476563 142.640625 158.347656 142.117188 158.347656 141.367188 L 158.347656 138.101563 L 157.691406 138.101563 L 157.691406 137.335938 L 158.347656 137.335938 L 158.347656 135.632813 Z M 166.738281 139.726563 L 166.738281 143.351563 L 165.847656 143.351563 L 165.847656 139.757813 C 165.847656 139.1875 165.742188 138.757813 165.535156 138.476563 C 165.335938 138.195313 165.039063 138.054688 164.644531 138.054688 C 164.164063 138.054688 163.785156 138.226563 163.503906 138.570313 C 163.230469 138.90625 163.097656 139.363281 163.097656 139.945313 L 163.097656 143.351563 L 162.191406 143.351563 L 162.191406 134.992188 L 163.097656 134.992188 L 163.097656 138.273438 C 163.304688 137.910156 163.550781 137.640625 163.832031 137.460938 C 164.121094 137.285156 164.460938 137.195313 164.847656 137.195313 C 165.460938 137.195313 165.929688 137.410156 166.253906 137.835938 C 166.574219 138.265625 166.738281 138.894531 166.738281 139.726563 Z M 176.019531 135.601563 L 176.019531 136.648438 C 175.652344 136.453125 175.304688 136.304688 174.972656 136.210938 C 174.636719 136.117188 174.320313 136.070313 174.019531 136.070313 C 173.488281 136.070313 173.074219 136.1875 172.785156 136.414063 C 172.503906 136.644531 172.363281 136.96875 172.363281 137.382813 C 172.363281 137.738281 172.457031 138.007813 172.644531 138.195313 C 172.832031 138.375 173.195313 138.519531 173.738281 138.632813 L 174.316406 138.757813 C 175.042969 138.914063 175.582031 139.191406 175.925781 139.585938 C 176.277344 139.972656 176.457031 140.488281 176.457031 141.132813 C 176.457031 141.914063 176.222656 142.507813 175.753906 142.914063 C 175.285156 143.3125 174.597656 143.507813 173.691406 143.507813 C 173.347656 143.507813 172.980469 143.460938 172.597656 143.367188 C 172.210938 143.285156 171.816406 143.160156 171.410156 142.992188 L 171.410156 141.882813 C 171.804688 142.132813 172.191406 142.320313 172.566406 142.445313 C 172.949219 142.570313 173.324219 142.632813 173.691406 142.632813 C 174.242188 142.632813 174.667969 142.515625 174.972656 142.273438 C 175.285156 142.023438 175.441406 141.675781 175.441406 141.226563 C 175.441406 140.832031 175.332031 140.523438 175.113281 140.304688 C 174.894531 140.078125 174.535156 139.90625 174.035156 139.789063 L 173.441406 139.664063 C 172.710938 139.507813 172.183594 139.257813 171.863281 138.914063 C 171.539063 138.570313 171.378906 138.09375 171.378906 137.476563 C 171.378906 136.769531 171.601563 136.210938 172.050781 135.804688 C 172.496094 135.390625 173.117188 135.179688 173.910156 135.179688 C 174.253906 135.179688 174.597656 135.21875 174.941406 135.289063 C 175.292969 135.363281 175.652344 135.46875 176.019531 135.601563 Z M 182.441406 139.726563 L 182.441406 143.351563 L 181.550781 143.351563 L 181.550781 139.757813 C 181.550781 139.1875 181.445313 138.757813 181.238281 138.476563 C 181.039063 138.195313 180.742188 138.054688 180.347656 138.054688 C 179.867188 138.054688 179.488281 138.226563 179.207031 138.570313 C 178.933594 138.90625 178.800781 139.363281 178.800781 139.945313 L 178.800781 143.351563 L 177.894531 143.351563 L 177.894531 134.992188 L 178.800781 134.992188 L 178.800781 138.273438 C 179.007813 137.910156 179.253906 137.640625 179.535156 137.460938 C 179.824219 137.285156 180.164063 137.195313 180.550781 137.195313 C 181.164063 137.195313 181.632813 137.410156 181.957031 137.835938 C 182.277344 138.265625 182.441406 138.894531 182.441406 139.726563 Z M 186.316406 138.023438 C 185.835938 138.023438 185.457031 138.234375 185.175781 138.648438 C 184.902344 139.066406 184.769531 139.632813 184.769531 140.351563 C 184.769531 141.070313 184.902344 141.640625 185.175781 142.054688 C 185.457031 142.460938 185.835938 142.664063 186.316406 142.664063 C 186.792969 142.664063 187.167969 142.460938 187.441406 142.054688 C 187.722656 141.640625 187.863281 141.070313 187.863281 140.351563 C 187.863281 139.632813 187.722656 139.066406 187.441406 138.648438 C 187.167969 138.234375 186.792969 138.023438 186.316406 138.023438 Z M 186.316406 137.195313 C 187.085938 137.195313 187.691406 137.476563 188.128906 138.039063 C 188.574219 138.59375 188.800781 139.363281 188.800781 140.351563 C 188.800781 141.332031 188.574219 142.101563 188.128906 142.664063 C 187.691406 143.226563 187.085938 143.507813 186.316406 143.507813 C 185.535156 143.507813 184.925781 143.226563 184.488281 142.664063 C 184.050781 142.101563 183.832031 141.332031 183.832031 140.351563 C 183.832031 139.363281 184.050781 138.59375 184.488281 138.039063 C 184.925781 137.476563 185.535156 137.195313 186.316406 137.195313 Z M 193.410156 138.257813 C 193.304688 138.195313 193.191406 138.148438 193.066406 138.117188 C 192.949219 138.085938 192.824219 138.070313 192.691406 138.070313 C 192.179688 138.070313 191.789063 138.253906 191.519531 138.617188 C 191.257813 138.984375 191.128906 139.503906 191.128906 140.179688 L 191.128906 143.351563 L 190.222656 143.351563 L 190.222656 137.335938 L 191.128906 137.335938 L 191.128906 138.273438 C 191.316406 137.910156 191.554688 137.640625 191.847656 137.460938 C 192.148438 137.285156 192.511719 137.195313 192.941406 137.195313 C 193.003906 137.195313 193.070313 137.203125 193.144531 137.210938 C 193.226563 137.210938 193.308594 137.222656 193.394531 137.242188 Z M 198.957031 140.101563 L 198.957031 140.585938 L 194.863281 140.585938 C 194.902344 141.265625 195.089844 141.78125 195.425781 142.132813 C 195.757813 142.488281 196.214844 142.664063 196.800781 142.664063 C 197.144531 142.664063 197.472656 142.617188 197.785156 142.523438 C 198.105469 142.429688 198.429688 142.296875 198.753906 142.117188 L 198.753906 143.039063 C 198.429688 143.195313 198.101563 143.3125 197.769531 143.382813 C 197.433594 143.464844 197.097656 143.507813 196.753906 143.507813 C 195.886719 143.507813 195.199219 143.234375 194.691406 142.679688 C 194.191406 142.117188 193.941406 141.359375 193.941406 140.398438 C 193.941406 139.421875 194.179688 138.644531 194.660156 138.070313 C 195.136719 137.488281 195.785156 137.195313 196.597656 137.195313 C 197.324219 137.195313 197.898438 137.457031 198.316406 137.976563 C 198.742188 138.5 198.957031 139.207031 198.957031 140.101563 Z M 198.066406 139.804688 C 198.054688 139.265625 197.917969 138.832031 197.660156 138.507813 C 197.398438 138.1875 197.050781 138.023438 196.613281 138.023438 C 196.113281 138.023438 195.710938 138.179688 195.410156 138.492188 C 195.105469 138.804688 194.933594 139.242188 194.894531 139.804688 Z M 146.207031 153.210938 L 146.207031 151.054688 L 144.613281 151.054688 L 144.613281 150.164063 L 147.175781 150.164063 L 147.175781 153.601563 C 146.800781 153.90625 146.382813 154.132813 145.925781 154.289063 C 145.476563 154.433594 144.992188 154.507813 144.472656 154.507813 C 143.347656 154.507813 142.464844 154.144531 141.832031 153.414063 C 141.195313 152.675781 140.878906 151.65625 140.878906 150.351563 C 140.878906 149.039063 141.195313 148.019531 141.832031 147.289063 C 142.464844 146.550781 143.347656 146.179688 144.472656 146.179688 C 144.941406 146.179688 145.386719 146.25 145.816406 146.382813 C 146.242188 146.507813 146.632813 146.695313 146.988281 146.945313 L 146.988281 148.101563 C 146.621094 147.769531 146.238281 147.519531 145.832031 147.351563 C 145.425781 147.175781 144.996094 147.085938 144.550781 147.085938 C 143.675781 147.085938 143.011719 147.363281 142.566406 147.914063 C 142.117188 148.457031 141.894531 149.269531 141.894531 150.351563 C 141.894531 151.4375 142.117188 152.253906 142.566406 152.804688 C 143.011719 153.347656 143.675781 153.617188 144.550781 153.617188 C 144.902344 153.617188 145.210938 153.585938 145.472656 153.523438 C 145.742188 153.453125 145.988281 153.347656 146.207031 153.210938 Z M 151.019531 149.023438 C 150.539063 149.023438 150.160156 149.234375 149.878906 149.648438 C 149.605469 150.066406 149.472656 150.632813 149.472656 151.351563 C 149.472656 152.070313 149.605469 152.640625 149.878906 153.054688 C 150.160156 153.460938 150.539063 153.664063 151.019531 153.664063 C 151.496094 153.664063 151.871094 153.460938 152.144531 153.054688 C 152.425781 152.640625 152.566406 152.070313 152.566406 151.351563 C 152.566406 150.632813 152.425781 150.066406 152.144531 149.648438 C 151.871094 149.234375 151.496094 149.023438 151.019531 149.023438 Z M 151.019531 148.195313 C 151.789063 148.195313 152.394531 148.476563 152.832031 149.039063 C 153.277344 149.59375 153.503906 150.363281 153.503906 151.351563 C 153.503906 152.332031 153.277344 153.101563 152.832031 153.664063 C 152.394531 154.226563 151.789063 154.507813 151.019531 154.507813 C 150.238281 154.507813 149.628906 154.226563 149.191406 153.664063 C 148.753906 153.101563 148.535156 152.332031 148.535156 151.351563 C 148.535156 150.363281 148.753906 149.59375 149.191406 149.039063 C 149.628906 148.476563 150.238281 148.195313 151.019531 148.195313 Z M 154.972656 145.992188 L 155.863281 145.992188 L 155.863281 154.351563 L 154.972656 154.351563 Z M 160.457031 145.992188 L 160.457031 146.820313 L 159.613281 146.820313 C 159.289063 146.820313 159.066406 146.894531 158.941406 147.039063 C 158.816406 147.175781 158.753906 147.429688 158.753906 147.804688 L 158.753906 148.335938 L 160.222656 148.335938 L 160.222656 149.101563 L 158.753906 149.101563 L 158.753906 154.351563 L 157.863281 154.351563 L 157.863281 149.101563 L 157.003906 149.101563 L 157.003906 148.335938 L 157.863281 148.335938 L 157.863281 147.914063 C 157.863281 147.25 158.003906 146.765625 158.285156 146.460938 C 158.566406 146.148438 159.007813 145.992188 159.613281 145.992188 Z M 169.785156 146.945313 L 169.785156 148.101563 C 169.449219 147.757813 169.097656 147.503906 168.722656 147.335938 C 168.355469 147.171875 167.964844 147.085938 167.550781 147.085938 C 166.726563 147.085938 166.089844 147.367188 165.644531 147.929688 C 165.207031 148.484375 164.988281 149.289063 164.988281 150.351563 C 164.988281 151.40625 165.207031 152.210938 165.644531 152.773438 C 166.089844 153.335938 166.726563 153.617188 167.550781 153.617188 C 167.964844 153.617188 168.355469 153.535156 168.722656 153.367188 C 169.097656 153.203125 169.449219 152.945313 169.785156 152.601563 L 169.785156 153.726563 C 169.441406 153.988281 169.074219 154.1875 168.691406 154.320313 C 168.316406 154.445313 167.914063 154.507813 167.488281 154.507813 C 166.394531 154.507813 165.535156 154.140625 164.910156 153.398438 C 164.285156 152.648438 163.972656 151.632813 163.972656 150.351563 C 163.972656 149.0625 164.285156 148.046875 164.910156 147.304688 C 165.535156 146.554688 166.394531 146.179688 167.488281 146.179688 C 167.925781 146.179688 168.332031 146.25 168.707031 146.382813 C 169.089844 146.507813 169.449219 146.695313 169.785156 146.945313 Z M 173.347656 149.023438 C 172.867188 149.023438 172.488281 149.234375 172.207031 149.648438 C 171.933594 150.066406 171.800781 150.632813 171.800781 151.351563 C 171.800781 152.070313 171.933594 152.640625 172.207031 153.054688 C 172.488281 153.460938 172.867188 153.664063 173.347656 153.664063 C 173.824219 153.664063 174.199219 153.460938 174.472656 153.054688 C 174.753906 152.640625 174.894531 152.070313 174.894531 151.351563 C 174.894531 150.632813 174.753906 150.066406 174.472656 149.648438 C 174.199219 149.234375 173.824219 149.023438 173.347656 149.023438 Z M 173.347656 148.195313 C 174.117188 148.195313 174.722656 148.476563 175.160156 149.039063 C 175.605469 149.59375 175.832031 150.363281 175.832031 151.351563 C 175.832031 152.332031 175.605469 153.101563 175.160156 153.664063 C 174.722656 154.226563 174.117188 154.507813 173.347656 154.507813 C 172.566406 154.507813 171.957031 154.226563 171.519531 153.664063 C 171.082031 153.101563 170.863281 152.332031 170.863281 151.351563 C 170.863281 150.363281 171.082031 149.59375 171.519531 149.039063 C 171.957031 148.476563 172.566406 148.195313 173.347656 148.195313 Z M 177.207031 151.976563 L 177.207031 148.335938 L 178.097656 148.335938 L 178.097656 151.945313 C 178.097656 152.507813 178.195313 152.9375 178.394531 153.226563 C 178.589844 153.507813 178.886719 153.648438 179.285156 153.648438 C 179.773438 153.648438 180.152344 153.484375 180.425781 153.148438 C 180.707031 152.804688 180.847656 152.335938 180.847656 151.742188 L 180.847656 148.335938 L 181.738281 148.335938 L 181.738281 154.351563 L 180.847656 154.351563 L 180.847656 153.429688 C 180.628906 153.796875 180.378906 154.066406 180.097656 154.242188 C 179.816406 154.417969 179.480469 154.507813 179.097656 154.507813 C 178.480469 154.507813 178.011719 154.296875 177.691406 153.867188 C 177.367188 153.429688 177.207031 152.800781 177.207031 151.976563 Z M 179.441406 148.195313 Z M 186.722656 149.257813 C 186.617188 149.195313 186.503906 149.148438 186.378906 149.117188 C 186.261719 149.085938 186.136719 149.070313 186.003906 149.070313 C 185.492188 149.070313 185.101563 149.253906 184.832031 149.617188 C 184.570313 149.984375 184.441406 150.503906 184.441406 151.179688 L 184.441406 154.351563 L 183.535156 154.351563 L 183.535156 148.335938 L 184.441406 148.335938 L 184.441406 149.273438 C 184.628906 148.910156 184.867188 148.640625 185.160156 148.460938 C 185.460938 148.285156 185.824219 148.195313 186.253906 148.195313 C 186.316406 148.195313 186.382813 148.203125 186.457031 148.210938 C 186.539063 148.210938 186.621094 148.222656 186.707031 148.242188 Z M 191.097656 148.507813 L 191.097656 149.445313 C 190.835938 149.300781 190.570313 149.195313 190.300781 149.132813 C 190.039063 149.0625 189.761719 149.023438 189.472656 149.023438 C 189.023438 149.023438 188.691406 149.101563 188.472656 149.257813 C 188.253906 149.40625 188.144531 149.625 188.144531 149.914063 C 188.144531 150.144531 188.222656 150.328125 188.378906 150.460938 C 188.535156 150.585938 188.851563 150.710938 189.332031 150.835938 L 189.628906 150.914063 C 190.261719 151.0625 190.710938 151.273438 190.972656 151.554688 C 191.242188 151.828125 191.378906 152.207031 191.378906 152.695313 C 191.378906 153.25 191.179688 153.691406 190.785156 154.023438 C 190.386719 154.347656 189.839844 154.507813 189.144531 154.507813 C 188.851563 154.507813 188.550781 154.476563 188.238281 154.414063 C 187.925781 154.351563 187.589844 154.257813 187.238281 154.132813 L 187.238281 153.117188 C 187.570313 153.304688 187.894531 153.445313 188.207031 153.539063 C 188.527344 153.632813 188.847656 153.679688 189.160156 153.679688 C 189.574219 153.679688 189.898438 153.601563 190.128906 153.445313 C 190.355469 153.28125 190.472656 153.054688 190.472656 152.773438 C 190.472656 152.503906 190.386719 152.296875 190.222656 152.148438 C 190.054688 152.003906 189.695313 151.867188 189.144531 151.742188 L 188.847656 151.648438 C 188.292969 151.523438 187.894531 151.332031 187.644531 151.070313 C 187.402344 150.800781 187.285156 150.429688 187.285156 149.960938 C 187.285156 149.398438 187.460938 148.96875 187.816406 148.664063 C 188.179688 148.351563 188.695313 148.195313 189.363281 148.195313 C 189.683594 148.195313 189.992188 148.222656 190.285156 148.273438 C 190.574219 148.328125 190.847656 148.40625 191.097656 148.507813 Z M 197.425781 151.101563 L 197.425781 151.585938 L 193.332031 151.585938 C 193.371094 152.265625 193.558594 152.78125 193.894531 153.132813 C 194.226563 153.488281 194.683594 153.664063 195.269531 153.664063 C 195.613281 153.664063 195.941406 153.617188 196.253906 153.523438 C 196.574219 153.429688 196.898438 153.296875 197.222656 153.117188 L 197.222656 154.039063 C 196.898438 154.195313 196.570313 154.3125 196.238281 154.382813 C 195.902344 154.464844 195.566406 154.507813 195.222656 154.507813 C 194.355469 154.507813 193.667969 154.234375 193.160156 153.679688 C 192.660156 153.117188 192.410156 152.359375 192.410156 151.398438 C 192.410156 150.421875 192.648438 149.644531 193.128906 149.070313 C 193.605469 148.488281 194.253906 148.195313 195.066406 148.195313 C 195.792969 148.195313 196.367188 148.457031 196.785156 148.976563 C 197.210938 149.5 197.425781 150.207031 197.425781 151.101563 Z M 196.535156 150.804688 C 196.523438 150.265625 196.386719 149.832031 196.128906 149.507813 C 195.867188 149.1875 195.519531 149.023438 195.082031 149.023438 C 194.582031 149.023438 194.179688 149.179688 193.878906 149.492188 C 193.574219 149.804688 193.402344 150.242188 193.363281 150.804688 Z M 196.535156 150.804688 "/>
<path style="fill:none;stroke-width:3;stroke-linecap:round;stroke-linejoin:round;stroke:rgb(100%,100%,100%);stroke-opacity:1;stroke-miterlimit:10;" d="M 70.496094 103.265625 L 66.277344 103.109375 L 67.011719 105.65625 Z M 71.371094 102.4375 L 71.667969 103.5 L 64.730469 108.375 L 64.449219 107.40625 L 66.261719 106.1875 L 65.355469 103.078125 L 63.183594 103.015625 L 62.886719 102.03125 Z M 73.058594 107.027344 L 73.308594 107.871094 L 65.277344 110.199219 L 65.027344 109.355469 Z M 71.386719 109.699219 L 71.652344 110.605469 L 67.277344 113.636719 L 72.605469 113.855469 L 72.855469 114.761719 L 66.511719 114.480469 L 66.183594 113.324219 Z M 71.871094 121.140625 L 71.402344 121.28125 L 70.246094 117.359375 C 69.597656 117.585938 69.152344 117.910156 68.902344 118.328125 C 68.660156 118.753906 68.625 119.25 68.792969 119.8125 C 68.886719 120.144531 69.019531 120.445313 69.199219 120.71875 C 69.375 120.988281 69.597656 121.257813 69.871094 121.53125 L 68.980469 121.78125 C 68.738281 121.519531 68.53125 121.238281 68.355469 120.9375 C 68.1875 120.644531 68.058594 120.332031 67.964844 120 C 67.714844 119.175781 67.785156 118.441406 68.183594 117.796875 C 68.578125 117.160156 69.234375 116.710938 70.152344 116.4375 C 71.089844 116.15625 71.902344 116.167969 72.589844 116.46875 C 73.285156 116.757813 73.75 117.296875 73.980469 118.078125 C 74.1875 118.773438 74.097656 119.394531 73.714844 119.9375 C 73.339844 120.488281 72.722656 120.890625 71.871094 121.140625 Z M 71.902344 120.21875 C 72.410156 120.050781 72.78125 119.796875 73.011719 119.453125 C 73.25 119.117188 73.308594 118.742188 73.183594 118.328125 C 73.046875 117.847656 72.785156 117.503906 72.402344 117.296875 C 72.015625 117.097656 71.546875 117.054688 70.996094 117.171875 Z M 75.007813 125.011719 C 75.027344 124.886719 75.03125 124.761719 75.023438 124.636719 C 75.023438 124.511719 75 124.386719 74.960938 124.261719 C 74.804688 123.769531 74.511719 123.453125 74.085938 123.308594 C 73.65625 123.171875 73.125 123.207031 72.492188 123.417969 L 69.460938 124.371094 L 69.179688 123.496094 L 74.914063 121.683594 L 75.195313 122.558594 L 74.304688 122.839844 C 74.699219 122.902344 75.027344 123.046875 75.289063 123.277344 C 75.546875 123.503906 75.746094 123.824219 75.882813 124.230469 C 75.902344 124.292969 75.917969 124.359375 75.929688 124.433594 C 75.949219 124.503906 75.964844 124.589844 75.976563 124.683594 Z M 77.046875 128.949219 L 76.140625 129.230469 C 76.203125 128.9375 76.222656 128.652344 76.203125 128.371094 C 76.191406 128.097656 76.140625 127.828125 76.046875 127.558594 C 75.910156 127.128906 75.738281 126.832031 75.53125 126.667969 C 75.320313 126.511719 75.082031 126.476563 74.8125 126.558594 C 74.59375 126.628906 74.441406 126.753906 74.359375 126.933594 C 74.285156 127.121094 74.257813 127.464844 74.28125 127.964844 L 74.296875 128.277344 C 74.347656 128.921875 74.28125 129.410156 74.09375 129.746094 C 73.914063 130.089844 73.59375 130.332031 73.125 130.480469 C 72.601563 130.644531 72.125 130.589844 71.6875 130.308594 C 71.25 130.035156 70.925781 129.566406 70.71875 128.902344 C 70.632813 128.621094 70.578125 128.316406 70.546875 127.996094 C 70.515625 127.683594 70.5 127.339844 70.5 126.964844 L 71.46875 126.652344 C 71.394531 127.035156 71.359375 127.390625 71.359375 127.714844 C 71.367188 128.046875 71.421875 128.363281 71.515625 128.667969 C 71.640625 129.0625 71.816406 129.34375 72.046875 129.511719 C 72.273438 129.6875 72.519531 129.734375 72.78125 129.652344 C 73.039063 129.566406 73.210938 129.421875 73.296875 129.214844 C 73.390625 129.003906 73.410156 128.625 73.359375 128.074219 L 73.359375 127.761719 C 73.304688 127.1875 73.367188 126.746094 73.546875 126.433594 C 73.734375 126.121094 74.050781 125.894531 74.5 125.746094 C 75.03125 125.582031 75.5 125.621094 75.90625 125.871094 C 76.3125 126.121094 76.613281 126.5625 76.8125 127.199219 C 76.914063 127.511719 76.984375 127.8125 77.015625 128.105469 C 77.054688 128.394531 77.066406 128.675781 77.046875 128.949219 Z M 77.699219 132.722656 C 77.550781 132.261719 77.238281 131.964844 76.761719 131.832031 C 76.28125 131.695313 75.699219 131.738281 75.011719 131.957031 C 74.324219 132.175781 73.824219 132.476563 73.511719 132.863281 C 73.207031 133.246094 73.128906 133.667969 73.277344 134.128906 C 73.410156 134.585938 73.714844 134.882813 74.183594 135.019531 C 74.660156 135.152344 75.246094 135.113281 75.933594 134.894531 C 76.621094 134.675781 77.121094 134.371094 77.433594 133.988281 C 77.746094 133.601563 77.832031 133.179688 77.699219 132.722656 Z M 78.496094 132.472656 C 78.722656 133.199219 78.640625 133.863281 78.246094 134.457031 C 77.847656 135.050781 77.175781 135.496094 76.230469 135.800781 C 75.292969 136.089844 74.484375 136.105469 73.808594 135.847656 C 73.140625 135.597656 72.691406 135.105469 72.464844 134.378906 C 72.222656 133.628906 72.308594 132.957031 72.714844 132.363281 C 73.121094 131.777344 73.792969 131.34375 74.730469 131.050781 C 75.675781 130.75 76.480469 130.722656 77.136719 130.972656 C 77.800781 131.222656 78.253906 131.722656 78.496094 132.472656 Z M 78.617188 141.300781 L 75.164063 142.394531 L 74.898438 141.535156 L 78.320313 140.457031 C 78.871094 140.277344 79.246094 140.050781 79.445313 139.769531 C 79.652344 139.496094 79.699219 139.175781 79.585938 138.800781 C 79.4375 138.339844 79.164063 138.027344 78.757813 137.863281 C 78.351563 137.707031 77.871094 137.714844 77.320313 137.894531 L 74.070313 138.925781 L 73.789063 138.050781 L 79.523438 136.238281 L 79.804688 137.113281 L 78.914063 137.394531 C 79.320313 137.476563 79.648438 137.628906 79.898438 137.847656 C 80.15625 138.066406 80.351563 138.355469 80.476563 138.722656 C 80.652344 139.316406 80.585938 139.832031 80.273438 140.269531 C 79.960938 140.707031 79.40625 141.050781 78.617188 141.300781 Z M 83.875 147.472656 L 79.671875 147.269531 L 80.390625 149.832031 Z M 84.75 146.628906 L 85.046875 147.707031 L 78.078125 152.519531 L 77.796875 151.550781 L 79.609375 150.347656 L 78.734375 147.222656 L 76.5625 147.144531 L 76.28125 146.160156 Z M 83.964844 151.25 L 84.214844 152.15625 L 79.808594 155.140625 L 85.136719 155.421875 L 85.386719 156.328125 L 79.042969 156 L 78.714844 154.828125 Z M 84.300781 162.722656 L 83.832031 162.847656 L 82.722656 158.910156 C 82.085938 159.128906 81.644531 159.445313 81.394531 159.863281 C 81.144531 160.277344 81.097656 160.769531 81.253906 161.332031 C 81.347656 161.664063 81.480469 161.964844 81.660156 162.238281 C 81.835938 162.519531 82.054688 162.792969 82.316406 163.066406 L 81.425781 163.316406 C 81.183594 163.042969 80.980469 162.757813 80.816406 162.457031 C 80.648438 162.164063 80.519531 161.851563 80.425781 161.519531 C 80.195313 160.683594 80.277344 159.949219 80.675781 159.316406 C 81.070313 158.679688 81.730469 158.234375 82.660156 157.972656 C 83.597656 157.714844 84.410156 157.734375 85.097656 158.035156 C 85.785156 158.335938 86.238281 158.878906 86.457031 159.660156 C 86.652344 160.367188 86.558594 160.992188 86.175781 161.535156 C 85.789063 162.085938 85.164063 162.480469 84.300781 162.722656 Z M 84.363281 161.785156 C 84.871094 161.628906 85.246094 161.378906 85.488281 161.035156 C 85.726563 160.699219 85.789063 160.320313 85.675781 159.894531 C 85.539063 159.414063 85.277344 159.070313 84.894531 158.863281 C 84.519531 158.652344 84.054688 158.605469 83.503906 158.722656 Z M 86.273438 168.355469 L 82.789063 169.339844 L 82.554688 168.480469 L 86.007813 167.511719 C 86.558594 167.355469 86.9375 167.140625 87.148438 166.871094 C 87.367188 166.597656 87.421875 166.269531 87.320313 165.886719 C 87.183594 165.425781 86.917969 165.109375 86.523438 164.933594 C 86.125 164.765625 85.648438 164.761719 85.085938 164.917969 L 81.804688 165.839844 L 81.554688 164.964844 L 87.351563 163.339844 L 87.601563 164.214844 L 86.695313 164.464844 C 87.101563 164.566406 87.421875 164.734375 87.664063 164.964844 C 87.914063 165.191406 88.089844 165.496094 88.195313 165.871094 C 88.359375 166.453125 88.28125 166.957031 87.960938 167.386719 C 87.636719 167.8125 87.074219 168.136719 86.273438 168.355469 Z M 85.574219 170.367188 L 89.042969 169.257813 L 89.324219 170.117188 L 85.886719 171.210938 C 85.34375 171.386719 84.964844 171.609375 84.746094 171.882813 C 84.535156 172.152344 84.496094 172.476563 84.621094 172.851563 C 84.765625 173.320313 85.042969 173.632813 85.449219 173.789063 C 85.855469 173.953125 86.339844 173.945313 86.902344 173.757813 L 90.152344 172.726563 L 90.433594 173.585938 L 84.699219 175.414063 L 84.417969 174.554688 L 85.292969 174.273438 C 84.886719 174.179688 84.550781 174.023438 84.292969 173.804688 C 84.042969 173.59375 83.855469 173.308594 83.730469 172.945313 C 83.542969 172.351563 83.605469 171.835938 83.917969 171.398438 C 84.238281 170.960938 84.792969 170.617188 85.574219 170.367188 Z M 89.855469 171.351563 Z M 89.808594 180.578125 L 89.355469 180.71875 L 88.074219 176.828125 C 87.4375 177.085938 87.003906 177.429688 86.777344 177.859375 C 86.546875 178.285156 86.519531 178.773438 86.699219 179.328125 C 86.8125 179.648438 86.964844 179.945313 87.152344 180.21875 C 87.339844 180.5 87.566406 180.765625 87.839844 181.015625 L 86.964844 181.3125 C 86.714844 181.039063 86.5 180.757813 86.324219 180.46875 C 86.144531 180.175781 86.003906 179.867188 85.902344 179.546875 C 85.621094 178.722656 85.660156 177.984375 86.027344 177.328125 C 86.402344 176.679688 87.042969 176.210938 87.949219 175.90625 C 88.886719 175.59375 89.703125 175.578125 90.402344 175.859375 C 91.097656 176.132813 91.574219 176.648438 91.824219 177.421875 C 92.050781 178.109375 91.984375 178.734375 91.621094 179.296875 C 91.265625 179.867188 90.660156 180.296875 89.808594 180.578125 Z M 89.824219 179.640625 C 90.332031 179.453125 90.699219 179.179688 90.917969 178.828125 C 91.144531 178.484375 91.191406 178.109375 91.058594 177.703125 C 90.902344 177.222656 90.625 176.890625 90.230469 176.703125 C 89.832031 176.515625 89.363281 176.488281 88.824219 176.625 Z M 89.824219 179.640625 "/>
<path style=" stroke:none;fill-rule:evenodd;fill:rgb(20%,20%,20%);fill-opacity:1;" d="M 70.496094 103.265625 L 66.277344 103.109375 L 67.011719 105.65625 Z M 71.371094 102.4375 L 71.667969 103.5 L 64.730469 108.375 L 64.449219 107.40625 L 66.261719 106.1875 L 65.355469 103.078125 L 63.183594 103.015625 L 62.886719 102.03125 Z M 73.058594 107.027344 L 73.308594 107.871094 L 65.277344 110.199219 L 65.027344 109.355469 Z M 71.386719 109.699219 L 71.652344 110.605469 L 67.277344 113.636719 L 72.605469 113.855469 L 72.855469 114.761719 L 66.511719 114.480469 L 66.183594 113.324219 Z M 71.871094 121.140625 L 71.402344 121.28125 L 70.246094 117.359375 C 69.597656 117.585938 69.152344 117.910156 68.902344 118.328125 C 68.660156 118.753906 68.625 119.25 68.792969 119.8125 C 68.886719 120.144531 69.019531 120.445313 69.199219 120.71875 C 69.375 120.988281 69.597656 121.257813 69.871094 121.53125 L 68.980469 121.78125 C 68.738281 121.519531 68.53125 121.238281 68.355469 120.9375 C 68.1875 120.644531 68.058594 120.332031 67.964844 120 C 67.714844 119.175781 67.785156 118.441406 68.183594 117.796875 C 68.578125 117.160156 69.234375 116.710938 70.152344 116.4375 C 71.089844 116.15625 71.902344 116.167969 72.589844 116.46875 C 73.285156 116.757813 73.75 117.296875 73.980469 118.078125 C 74.1875 118.773438 74.097656 119.394531 73.714844 119.9375 C 73.339844 120.488281 72.722656 120.890625 71.871094 121.140625 Z M 71.902344 120.21875 C 72.410156 120.050781 72.78125 119.796875 73.011719 119.453125 C 73.25 119.117188 73.308594 118.742188 73.183594 118.328125 C 73.046875 117.847656 72.785156 117.503906 72.402344 117.296875 C 72.015625 117.097656 71.546875 117.054688 70.996094 117.171875 Z M 75.007813 125.011719 C 75.027344 124.886719 75.03125 124.761719 75.023438 124.636719 C 75.023438 124.511719 75 124.386719 74.960938 124.261719 C 74.804688 123.769531 74.511719 123.453125 74.085938 123.308594 C 73.65625 123.171875 73.125 123.207031 72.492188 123.417969 L 69.460938 124.371094 L 69.179688 123.496094 L 74.914063 121.683594 L 75.195313 122.558594 L 74.304688 122.839844 C 74.699219 122.902344 75.027344 123.046875 75.289063 123.277344 C 75.546875 123.503906 75.746094 123.824219 75.882813 124.230469 C 75.902344 124.292969 75.917969 124.359375 75.929688 124.433594 C 75.949219 124.503906 75.964844 124.589844 75.976563 124.683594 Z M 77.046875 128.949219 L 76.140625 129.230469 C 76.203125 128.9375 76.222656 128.652344 76.203125 128.371094 C 76.191406 128.097656 76.140625 127.828125 76.046875 127.558594 C 75.910156 127.128906 75.738281 126.832031 75.53125 126.667969 C 75.320313 126.511719 75.082031 126.476563 74.8125 126.558594 C 74.59375 126.628906 74.441406 126.753906 74.359375 126.933594 C 74.285156 127.121094 74.257813 127.464844 74.28125 127.964844 L 74.296875 128.277344 C 74.347656 128.921875 74.28125 129.410156 74.09375 129.746094 C 73.914063 130.089844 73.59375 130.332031 73.125 130.480469 C 72.601563 130.644531 72.125 130.589844 71.6875 130.308594 C 71.25 130.035156 70.925781 129.566406 70.71875 128.902344 C 70.632813 128.621094 70.578125 128.316406 70.546875 127.996094 C 70.515625 127.683594 70.5 127.339844 70.5 126.964844 L 71.46875 126.652344 C 71.394531 127.035156 71.359375 127.390625 71.359375 127.714844 C 71.367188 128.046875 71.421875 128.363281 71.515625 128.667969 C 71.640625 129.0625 71.816406 129.34375 72.046875 129.511719 C 72.273438 129.6875 72.519531 129.734375 72.78125 129.652344 C 73.039063 129.566406 73.210938 129.421875 73.296875 129.214844 C 73.390625 129.003906 73.410156 128.625 73.359375 128.074219 L 73.359375 127.761719 C 73.304688 127.1875 73.367188 126.746094 73.546875 126.433594 C 73.734375 126.121094 74.050781 125.894531 74.5 125.746094 C 75.03125 125.582031 75.5 125.621094 75.90625 125.871094 C 76.3125 126.121094 76.613281 126.5625 76.8125 127.199219 C 76.914063 127.511719 76.984375 127.8125 77.015625 128.105469 C 77.054688 128.394531 77.066406 128.675781 77.046875 128.949219 Z M 77.699219 132.722656 C 77.550781 132.261719 77.238281 131.964844 76.761719 131.832031 C 76.28125 131.695313 75.699219 131.738281 75.011719 131.957031 C 74.324219 132.175781 73.824219 132.476563 73.511719 132.863281 C 73.207031 133.246094 73.128906 133.667969 73.277344 134.128906 C 73.410156 134.585938 73.714844 134.882813 74.183594 135.019531 C 74.660156 135.152344 75.246094 135.113281 75.933594 134.894531 C 76.621094 134.675781 77.121094 134.371094 77.433594 133.988281 C 77.746094 133.601563 77.832031 133.179688 77.699219 132.722656 Z M 78.496094 132.472656 C 78.722656 133.199219 78.640625 133.863281 78.246094 134.457031 C 77.847656 135.050781 77.175781 135.496094 76.230469 135.800781 C 75.292969 136.089844 74.484375 136.105469 73.808594 135.847656 C 73.140625 135.597656 72.691406 135.105469 72.464844 134.378906 C 72.222656 133.628906 72.308594 132.957031 72.714844 132.363281 C 73.121094 131.777344 73.792969 131.34375 74.730469 131.050781 C 75.675781 130.75 76.480469 130.722656 77.136719 130.972656 C 77.800781 131.222656 78.253906 131.722656 78.496094 132.472656 Z M 78.617188 141.300781 L 75.164063 142.394531 L 74.898438 141.535156 L 78.320313 140.457031 C 78.871094 140.277344 79.246094 140.050781 79.445313 139.769531 C 79.652344 139.496094 79.699219 139.175781 79.585938 138.800781 C 79.4375 138.339844 79.164063 138.027344 78.757813 137.863281 C 78.351563 137.707031 77.871094 137.714844 77.320313 137.894531 L 74.070313 138.925781 L 73.789063 138.050781 L 79.523438 136.238281 L 79.804688 137.113281 L 78.914063 137.394531 C 79.320313 137.476563 79.648438 137.628906 79.898438 137.847656 C 80.15625 138.066406 80.351563 138.355469 80.476563 138.722656 C 80.652344 139.316406 80.585938 139.832031 80.273438 140.269531 C 79.960938 140.707031 79.40625 141.050781 78.617188 141.300781 Z M 83.875 147.472656 L 79.671875 147.269531 L 80.390625 149.832031 Z M 84.75 146.628906 L 85.046875 147.707031 L 78.078125 152.519531 L 77.796875 151.550781 L 79.609375 150.347656 L 78.734375 147.222656 L 76.5625 147.144531 L 76.28125 146.160156 Z M 83.964844 151.25 L 84.214844 152.15625 L 79.808594 155.140625 L 85.136719 155.421875 L 85.386719 156.328125 L 79.042969 156 L 78.714844 154.828125 Z M 84.300781 162.722656 L 83.832031 162.847656 L 82.722656 158.910156 C 82.085938 159.128906 81.644531 159.445313 81.394531 159.863281 C 81.144531 160.277344 81.097656 160.769531 81.253906 161.332031 C 81.347656 161.664063 81.480469 161.964844 81.660156 162.238281 C 81.835938 162.519531 82.054688 162.792969 82.316406 163.066406 L 81.425781 163.316406 C 81.183594 163.042969 80.980469 162.757813 80.816406 162.457031 C 80.648438 162.164063 80.519531 161.851563 80.425781 161.519531 C 80.195313 160.683594 80.277344 159.949219 80.675781 159.316406 C 81.070313 158.679688 81.730469 158.234375 82.660156 157.972656 C 83.597656 157.714844 84.410156 157.734375 85.097656 158.035156 C 85.785156 158.335938 86.238281 158.878906 86.457031 159.660156 C 86.652344 160.367188 86.558594 160.992188 86.175781 161.535156 C 85.789063 162.085938 85.164063 162.480469 84.300781 162.722656 Z M 84.363281 161.785156 C 84.871094 161.628906 85.246094 161.378906 85.488281 161.035156 C 85.726563 160.699219 85.789063 160.320313 85.675781 159.894531 C 85.539063 159.414063 85.277344 159.070313 84.894531 158.863281 C 84.519531 158.652344 84.054688 158.605469 83.503906 158.722656 Z M 86.273438 168.355469 L 82.789063 169.339844 L 82.554688 168.480469 L 86.007813 167.511719 C 86.558594 167.355469 86.9375 167.140625 87.148438 166.871094 C 87.367188 166.597656 87.421875 166.269531 87.320313 165.886719 C 87.183594 165.425781 86.917969 165.109375 86.523438 164.933594 C 86.125 164.765625 85.648438 164.761719 85.085938 164.917969 L 81.804688 165.839844 L 81.554688 164.964844 L 87.351563 163.339844 L 87.601563 164.214844 L 86.695313 164.464844 C 87.101563 164.566406 87.421875 164.734375 87.664063 164.964844 C 87.914063 165.191406 88.089844 165.496094 88.195313 165.871094 C 88.359375 166.453125 88.28125 166.957031 87.960938 167.386719 C 87.636719 167.8125 87.074219 168.136719 86.273438 168.355469 Z M 85.574219 170.367188 L 89.042969 169.257813 L 89.324219 170.117188 L 85.886719 171.210938 C 85.34375 171.386719 84.964844 171.609375 84.746094 171.882813 C 84.535156 172.152344 84.496094 172.476563 84.621094 172.851563 C 84.765625 173.320313 85.042969 173.632813 85.449219 173.789063 C 85.855469 173.953125 86.339844 173.945313 86.902344 173.757813 L 90.152344 172.726563 L 90.433594 173.585938 L 84.699219 175.414063 L 84.417969 174.554688 L 85.292969 174.273438 C 84.886719 174.179688 84.550781 174.023438 84.292969 173.804688 C 84.042969 173.59375 83.855469 173.308594 83.730469 172.945313 C 83.542969 172.351563 83.605469 171.835938 83.917969 171.398438 C 84.238281 170.960938 84.792969 170.617188 85.574219 170.367188 Z M 89.855469 171.351563 Z M 89.808594 180.578125 L 89.355469 180.71875 L 88.074219 176.828125 C 87.4375 177.085938 87.003906 177.429688 86.777344 177.859375 C 86.546875 178.285156 86.519531 178.773438 86.699219 179.328125 C 86.8125 179.648438 86.964844 179.945313 87.152344 180.21875 C 87.339844 180.5 87.566406 180.765625 87.839844 181.015625 L 86.964844 181.3125 C 86.714844 181.039063 86.5 180.757813 86.324219 180.46875 C 86.144531 180.175781 86.003906 179.867188 85.902344 179.546875 C 85.621094 178.722656 85.660156 177.984375 86.027344 177.328125 C 86.402344 176.679688 87.042969 176.210938 87.949219 175.90625 C 88.886719 175.59375 89.703125 175.578125 90.402344 175.859375 C 91.097656 176.132813 91.574219 176.648438 91.824219 177.421875 C 92.050781 178.109375 91.984375 178.734375 91.621094 179.296875 C 91.265625 179.867188 90.660156 180.296875 89.808594 180.578125 Z M 89.824219 179.640625 C 90.332031 179.453125 90.699219 179.179688 90.917969 178.828125 C 91.144531 178.484375 91.191406 178.109375 91.058594 177.703125 C 90.902344 177.222656 90.625 176.890625 90.230469 176.703125 C 89.832031 176.515625 89.363281 176.488281 88.824219 176.625 Z M 89.824219 179.640625 "/>
</g>
</svg>

