<?xml version="1.0" encoding="UTF-8"?>
<svg xmlns="http://www.w3.org/2000/svg" xmlns:xlink="http://www.w3.org/1999/xlink" width="256pt" height="256pt" viewBox="0 0 256 256" version="1.1">
<g id="surface2">
<rect x="0" y="0" width="256" height="256" style="fill:rgb(94.901961%,93.72549%,91.372549%);fill-opacity:1;stroke:none;"/>
<path style=" stroke:none;fill-rule:evenodd;fill:rgb(60%,70.196078%,80%);fill-opacity:1;" d="M -4 -4 L 259 -4 L 259 259 L 259 -4 Z M -4 -4 "/>
<path style="fill:none;stroke-width:1;stroke-linecap:round;stroke-linejoin:round;stroke:rgb(70.196078%,77.647059%,83.137255%);stroke-opacity:1;stroke-miterlimit:10;" d="M -4 -4 L 259 -4 L 259 259 L 259 -4 L -4 -4 "/>
<path style="fill:none;stroke-width:8;stroke-linecap:round;stroke-linejoin:round;stroke:rgb(75.686275%,70.980392%,61.568627%);stroke-opacity:1;stroke-miterlimit:10;" d="M 11.921875 78.113281 L 18.394531 86.511719 L 26.722656 95.109375 L 35.8125 100.792969 "/>
<path style="fill:none;stroke-width:8;stroke-linecap:round;stroke-linejoin:round;stroke:rgb(75.686275%,70.980392%,61.568627%);stroke-opacity:1;stroke-miterlimit:10;" d="M -9 253.929688 L 2.378906 257.875 L 4.945313 264 "/>
<path style="fill:none;stroke-width:8;stroke-linecap:round;stroke-linejoin:round;stroke:rgb(75.686275%,70.980392%,61.568627%);stroke-opacity:1;stroke-miterlimit:10;" d="M -9 93.617188 L 11.921875 78.113281 L 42.464844 54.664063 L 67.265625 35.617188 L 68.78125 30.316406 L 67.835938 23.683594 L 55.140625 4.738281 "/>
<path style="fill:none;stroke-width:8;stroke-linecap:round;stroke-linejoin:round;stroke:rgb(75.686275%,70.980392%,61.568627%);stroke-opacity:1;stroke-miterlimit:10;" d="M 68.074219 251.828125 L 61.863281 235.664063 L 28.238281 200.082031 L 10.507813 179.734375 L -9 141.425781 "/>
<path style="fill:none;stroke-width:9;stroke-linecap:round;stroke-linejoin:round;stroke:rgb(75.686275%,70.980392%,61.568627%);stroke-opacity:1;stroke-miterlimit:10;" d="M 75.449219 253.585938 L 68.074219 251.828125 "/>
<path style="fill:none;stroke-width:9;stroke-linecap:round;stroke-linejoin:round;stroke:rgb(75.686275%,70.980392%,61.568627%);stroke-opacity:1;stroke-miterlimit:10;" d="M 120.445313 265 L 90.578125 257.195313 L 75.449219 253.585938 "/>
<path style="fill:none;stroke-width:9;stroke-linecap:round;stroke-linejoin:round;stroke:rgb(75.686275%,70.980392%,61.568627%);stroke-opacity:1;stroke-miterlimit:10;" d="M 68.074219 251.828125 L -10 233.214844 "/>
<path style="fill:none;stroke-width:6;stroke-linecap:round;stroke-linejoin:round;stroke:rgb(100%,100%,100%);stroke-opacity:1;stroke-miterlimit:10;" d="M 11.921875 78.113281 L 18.394531 86.511719 L 26.722656 95.109375 L 35.8125 100.792969 "/>
<path style="fill:none;stroke-width:6;stroke-linecap:round;stroke-linejoin:round;stroke:rgb(100%,100%,100%);stroke-opacity:1;stroke-miterlimit:10;" d="M -9 253.929688 L 2.378906 257.875 L 4.945313 264 "/>
<path style="fill:none;stroke-width:6;stroke-linecap:round;stroke-linejoin:round;stroke:rgb(100%,100%,100%);stroke-opacity:1;stroke-miterlimit:10;" d="M -9 93.617188 L 11.921875 78.113281 L 42.464844 54.664063 L 67.265625 35.617188 L 68.78125 30.316406 L 67.835938 23.683594 L 55.140625 4.738281 "/>
<path style="fill:none;stroke-width:6;stroke-linecap:round;stroke-linejoin:round;stroke:rgb(100%,99.215686%,54.509804%);stroke-opacity:1;stroke-miterlimit:10;" d="M 68.074219 251.828125 L 61.863281 235.664063 L 28.238281 200.082031 L 10.507813 179.734375 L -9 141.425781 "/>
<path style="fill:none;stroke-width:7;stroke-linecap:round;stroke-linejoin:round;stroke:rgb(100%,99.215686%,54.509804%);stroke-opacity:1;stroke-miterlimit:10;" d="M 75.449219 253.585938 L 68.074219 251.828125 "/>
<path style="fill:none;stroke-width:7;stroke-linecap:round;stroke-linejoin:round;stroke:rgb(100%,99.215686%,54.509804%);stroke-opacity:1;stroke-miterlimit:10;" d="M 120.445313 265 L 90.578125 257.195313 L 75.449219 253.585938 "/>
<path style="fill:none;stroke-width:7;stroke-linecap:round;stroke-linejoin:round;stroke:rgb(100%,99.215686%,54.509804%);stroke-opacity:1;stroke-miterlimit:10;" d="M 68.074219 251.828125 L -10 233.214844 "/>
<path style="fill:none;stroke-width:19;stroke-linecap:butt;stroke-linejoin:round;stroke:rgb(70.588235%,70.588235%,70.588235%);stroke-opacity:1;stroke-miterlimit:10;" d="M 133.441406 49.390625 L 102.53125 -20 "/>
<path style="fill:none;stroke-width:1;stroke-linecap:butt;stroke-linejoin:round;stroke:rgb(31.372549%,31.372549%,31.372549%);stroke-opacity:1;stroke-dasharray:2,2;stroke-miterlimit:10;" d="M 133.441406 49.390625 L 102.53125 -20 "/>
</g>
</svg>

