<?xml version="1.0" encoding="UTF-8"?>
<svg xmlns="http://www.w3.org/2000/svg" xmlns:xlink="http://www.w3.org/1999/xlink" width="256pt" height="256pt" viewBox="0 0 256 256" version="1.1">
<g id="surface2">
<rect x="0" y="0" width="256" height="256" style="fill:rgb(60%,70.196078%,80%);fill-opacity:1;stroke:none;"/>
<path style="fill:none;stroke-width:1;stroke-linecap:round;stroke-linejoin:round;stroke:rgb(70.196078%,77.647059%,83.137255%);stroke-opacity:1;stroke-miterlimit:10;" d="M -4 259 L 259 259 L 259 -4 L -4 -4 L -4 259 "/>
<path style="fill:none;stroke-width:6;stroke-linecap:round;stroke-linejoin:round;stroke:rgb(60%,70.196078%,80%);stroke-opacity:1;stroke-miterlimit:10;" d="M 149.148438 9.175781 L 148.339844 262 "/>
<path style="fill:none;stroke-width:6;stroke-linecap:round;stroke-linejoin:round;stroke:rgb(60%,70.196078%,80%);stroke-opacity:1;stroke-miterlimit:10;" d="M 153.578125 -7 L 149.148438 9.175781 "/>
<path style="fill:none;stroke-width:3;stroke-linecap:round;stroke-linejoin:round;stroke:rgb(100%,100%,100%);stroke-opacity:1;stroke-miterlimit:10;" d="M 143.980469 173.589844 L 143.980469 172.449219 L 147.871094 172.464844 L 147.886719 168.261719 L 143.996094 168.246094 L 144.011719 167.089844 L 153.496094 167.121094 L 153.480469 168.277344 L 148.964844 168.261719 L 148.949219 172.464844 L 153.464844 172.480469 L 153.464844 173.621094 Z M 150.679688 164.964844 L 146.382813 164.964844 L 146.382813 163.917969 L 150.648438 163.917969 C 151.316406 163.929688 151.820313 163.820313 152.164063 163.589844 C 152.507813 163.351563 152.679688 162.996094 152.679688 162.527344 C 152.679688 161.957031 152.484375 161.507813 152.085938 161.183594 C 151.679688 160.851563 151.128906 160.679688 150.429688 160.667969 L 146.398438 160.667969 L 146.398438 159.605469 L 153.507813 159.621094 L 153.507813 160.683594 L 152.414063 160.683594 C 152.851563 160.933594 153.175781 161.230469 153.382813 161.574219 C 153.589844 161.910156 153.695313 162.300781 153.695313 162.746094 C 153.683594 163.476563 153.425781 164.035156 152.914063 164.417969 C 152.40625 164.792969 151.660156 164.976563 150.679688 164.964844 Z M 146.226563 162.324219 Z M 147.5 153.230469 L 143.65625 153.214844 L 143.65625 152.167969 L 153.53125 152.199219 L 153.53125 153.246094 L 152.46875 153.246094 C 152.886719 153.464844 153.199219 153.746094 153.40625 154.089844 C 153.613281 154.425781 153.71875 154.824219 153.71875 155.292969 C 153.707031 156.074219 153.359375 156.710938 152.671875 157.199219 C 151.984375 157.679688 151.085938 157.914063 149.96875 157.902344 C 148.855469 157.902344 147.953125 157.664063 147.265625 157.183594 C 146.578125 156.695313 146.242188 156.058594 146.25 155.277344 C 146.25 154.808594 146.355469 154.410156 146.5625 154.074219 C 146.761719 153.730469 147.074219 153.449219 147.5 153.230469 Z M 149.96875 156.808594 C 150.824219 156.820313 151.5 156.667969 152 156.355469 C 152.492188 156.035156 152.734375 155.597656 152.734375 155.042969 C 152.734375 154.480469 152.492188 154.042969 152 153.730469 C 151.511719 153.410156 150.839844 153.242188 149.984375 153.230469 C 149.121094 153.230469 148.449219 153.394531 147.96875 153.714844 C 147.480469 154.027344 147.234375 154.464844 147.234375 155.027344 C 147.234375 155.582031 147.476563 156.019531 147.953125 156.339844 C 148.433594 156.652344 149.105469 156.808594 149.96875 156.808594 Z M 146.648438 145.933594 L 147.757813 145.933594 C 147.59375 146.238281 147.46875 146.550781 147.382813 146.871094 C 147.300781 147.183594 147.257813 147.511719 147.257813 147.855469 C 147.257813 148.378906 147.347656 148.773438 147.523438 149.042969 C 147.691406 149.304688 147.953125 149.433594 148.304688 149.433594 C 148.578125 149.433594 148.789063 149.339844 148.945313 149.152344 C 149.09375 148.957031 149.242188 148.574219 149.398438 148.011719 L 149.492188 147.667969 C 149.671875 146.917969 149.921875 146.386719 150.242188 146.074219 C 150.566406 145.761719 151.015625 145.613281 151.585938 145.621094 C 152.253906 145.621094 152.78125 145.855469 153.164063 146.324219 C 153.546875 146.792969 153.742188 147.441406 153.742188 148.261719 C 153.730469 148.597656 153.6875 148.949219 153.617188 149.324219 C 153.542969 149.699219 153.429688 150.089844 153.273438 150.496094 L 152.070313 150.496094 C 152.300781 150.113281 152.472656 149.730469 152.585938 149.355469 C 152.691406 148.980469 152.75 148.605469 152.757813 148.230469 C 152.757813 147.742188 152.664063 147.367188 152.476563 147.105469 C 152.289063 146.835938 152.023438 146.699219 151.679688 146.699219 C 151.367188 146.699219 151.128906 146.792969 150.960938 146.980469 C 150.785156 147.167969 150.617188 147.585938 150.460938 148.230469 L 150.367188 148.589844 C 150.203125 149.246094 149.960938 149.722656 149.648438 150.011719 C 149.335938 150.304688 148.90625 150.449219 148.351563 150.449219 C 147.6875 150.449219 147.171875 150.238281 146.804688 149.808594 C 146.441406 149.371094 146.265625 148.761719 146.273438 147.980469 C 146.273438 147.597656 146.304688 147.230469 146.367188 146.886719 C 146.429688 146.542969 146.523438 146.226563 146.648438 145.933594 Z M 147.277344 141.449219 C 147.277344 142.011719 147.523438 142.460938 148.011719 142.792969 C 148.492188 143.117188 149.160156 143.277344 150.011719 143.277344 C 150.867188 143.289063 151.539063 143.132813 152.027344 142.808594 C 152.519531 142.476563 152.761719 142.027344 152.761719 141.464844 C 152.761719 140.902344 152.519531 140.460938 152.027344 140.136719 C 151.539063 139.804688 150.871094 139.632813 150.027344 139.621094 C 149.183594 139.621094 148.519531 139.789063 148.027344 140.121094 C 147.527344 140.445313 147.277344 140.886719 147.277344 141.449219 Z M 146.292969 141.449219 C 146.292969 140.535156 146.628906 139.816406 147.292969 139.292969 C 147.949219 138.773438 148.863281 138.511719 150.027344 138.511719 C 151.195313 138.523438 152.113281 138.789063 152.777344 139.308594 C 153.433594 139.832031 153.761719 140.550781 153.761719 141.464844 C 153.75 142.382813 153.417969 143.101563 152.761719 143.621094 C 152.097656 144.144531 151.179688 144.398438 150.011719 144.386719 C 148.847656 144.386719 147.933594 144.128906 147.277344 143.605469 C 146.613281 143.085938 146.285156 142.367188 146.292969 141.449219 Z M 149.300781 131.449219 L 153.597656 131.464844 L 153.597656 132.511719 L 149.347656 132.496094 C 148.671875 132.496094 148.167969 132.617188 147.832031 132.855469 C 147.5 133.097656 147.332031 133.449219 147.332031 133.917969 C 147.332031 134.480469 147.53125 134.929688 147.925781 135.261719 C 148.324219 135.585938 148.871094 135.746094 149.566406 135.746094 L 153.582031 135.761719 L 153.582031 136.824219 L 146.472656 136.808594 L 146.472656 135.746094 L 147.582031 135.746094 C 147.167969 135.496094 146.855469 135.207031 146.644531 134.871094 C 146.425781 134.527344 146.316406 134.132813 146.316406 133.683594 C 146.316406 132.957031 146.574219 132.402344 147.082031 132.027344 C 147.582031 131.644531 148.324219 131.449219 149.300781 131.449219 Z M 149.195313 121.542969 C 149.289063 121.292969 149.488281 121.054688 149.789063 120.824219 C 150.09375 120.585938 150.507813 120.347656 151.039063 120.105469 L 153.648438 118.949219 L 153.632813 120.199219 L 151.195313 121.292969 C 150.5625 121.554688 150.144531 121.820313 149.945313 122.089844 C 149.738281 122.351563 149.632813 122.710938 149.632813 123.167969 L 149.617188 124.433594 L 153.617188 124.449219 L 153.617188 125.589844 L 144.132813 125.558594 L 144.148438 122.964844 C 144.148438 121.988281 144.378906 121.257813 144.835938 120.777344 C 145.285156 120.300781 145.96875 120.066406 146.882813 120.074219 C 147.476563 120.074219 147.972656 120.199219 148.367188 120.449219 C 148.765625 120.699219 149.039063 121.066406 149.195313 121.542969 Z M 145.195313 124.417969 L 148.554688 124.433594 L 148.570313 122.980469 C 148.570313 122.417969 148.429688 121.996094 148.148438 121.714844 C 147.859375 121.433594 147.4375 121.292969 146.882813 121.292969 C 146.332031 121.285156 145.914063 121.417969 145.632813 121.699219 C 145.351563 121.980469 145.210938 122.402344 145.210938 122.964844 Z M 146.535156 117.496094 L 146.535156 116.449219 L 153.644531 116.464844 L 153.644531 117.511719 Z M 143.769531 117.480469 L 143.769531 116.433594 L 145.253906 116.433594 L 145.253906 117.480469 Z M 146.542969 115.011719 L 146.542969 113.902344 L 152.527344 111.917969 L 146.558594 109.902344 L 146.558594 108.777344 L 153.667969 111.199219 L 153.667969 112.621094 Z M 149.847656 101.855469 L 150.410156 101.855469 L 150.394531 106.699219 C 151.207031 106.660156 151.828125 106.445313 152.253906 106.058594 C 152.671875 105.664063 152.878906 105.117188 152.878906 104.417969 C 152.878906 104.011719 152.828125 103.621094 152.722656 103.246094 C 152.609375 102.871094 152.441406 102.496094 152.222656 102.121094 L 153.332031 102.121094 C 153.511719 102.496094 153.644531 102.882813 153.738281 103.277344 C 153.832031 103.675781 153.878906 104.074219 153.878906 104.480469 C 153.867188 105.503906 153.535156 106.316406 152.878906 106.917969 C 152.214844 107.511719 151.316406 107.804688 150.191406 107.792969 C 149.027344 107.792969 148.105469 107.511719 147.425781 106.949219 C 146.738281 106.378906 146.402344 105.613281 146.410156 104.652344 C 146.410156 103.789063 146.71875 103.105469 147.332031 102.605469 C 147.949219 102.105469 148.785156 101.855469 149.847656 101.855469 Z M 149.503906 102.917969 C 148.871094 102.917969 148.359375 103.074219 147.972656 103.386719 C 147.589844 103.699219 147.394531 104.117188 147.394531 104.636719 C 147.394531 105.230469 147.578125 105.707031 147.941406 106.058594 C 148.308594 106.402344 148.824219 106.601563 149.488281 106.652344 Z M 147.699219 96.417969 C 147.628906 96.535156 147.574219 96.664063 147.542969 96.808594 C 147.503906 96.945313 147.480469 97.097656 147.480469 97.261719 C 147.480469 97.855469 147.695313 98.316406 148.121094 98.636719 C 148.539063 98.949219 149.148438 99.105469 149.949219 99.105469 L 153.699219 99.121094 L 153.699219 100.183594 L 146.589844 100.167969 L 146.589844 99.105469 L 147.699219 99.105469 C 147.273438 98.886719 146.957031 98.601563 146.746094 98.246094 C 146.539063 97.894531 146.433594 97.464844 146.433594 96.964844 C 146.433594 96.894531 146.441406 96.816406 146.449219 96.730469 C 146.460938 96.636719 146.476563 96.535156 146.496094 96.417969 Z M 147.699219 96.417969 "/>
<path style=" stroke:none;fill-rule:evenodd;fill:rgb(41.960784%,58.039216%,69.019608%);fill-opacity:1;" d="M 143.980469 173.589844 L 143.980469 172.449219 L 147.871094 172.464844 L 147.886719 168.261719 L 143.996094 168.246094 L 144.011719 167.089844 L 153.496094 167.121094 L 153.480469 168.277344 L 148.964844 168.261719 L 148.949219 172.464844 L 153.464844 172.480469 L 153.464844 173.621094 Z M 150.679688 164.964844 L 146.382813 164.964844 L 146.382813 163.917969 L 150.648438 163.917969 C 151.316406 163.929688 151.820313 163.820313 152.164063 163.589844 C 152.507813 163.351563 152.679688 162.996094 152.679688 162.527344 C 152.679688 161.957031 152.484375 161.507813 152.085938 161.183594 C 151.679688 160.851563 151.128906 160.679688 150.429688 160.667969 L 146.398438 160.667969 L 146.398438 159.605469 L 153.507813 159.621094 L 153.507813 160.683594 L 152.414063 160.683594 C 152.851563 160.933594 153.175781 161.230469 153.382813 161.574219 C 153.589844 161.910156 153.695313 162.300781 153.695313 162.746094 C 153.683594 163.476563 153.425781 164.035156 152.914063 164.417969 C 152.40625 164.792969 151.660156 164.976563 150.679688 164.964844 Z M 146.226563 162.324219 Z M 147.5 153.230469 L 143.65625 153.214844 L 143.65625 152.167969 L 153.53125 152.199219 L 153.53125 153.246094 L 152.46875 153.246094 C 152.886719 153.464844 153.199219 153.746094 153.40625 154.089844 C 153.613281 154.425781 153.71875 154.824219 153.71875 155.292969 C 153.707031 156.074219 153.359375 156.710938 152.671875 157.199219 C 151.984375 157.679688 151.085938 157.914063 149.96875 157.902344 C 148.855469 157.902344 147.953125 157.664063 147.265625 157.183594 C 146.578125 156.695313 146.242188 156.058594 146.25 155.277344 C 146.25 154.808594 146.355469 154.410156 146.5625 154.074219 C 146.761719 153.730469 147.074219 153.449219 147.5 153.230469 Z M 149.96875 156.808594 C 150.824219 156.820313 151.5 156.667969 152 156.355469 C 152.492188 156.035156 152.734375 155.597656 152.734375 155.042969 C 152.734375 154.480469 152.492188 154.042969 152 153.730469 C 151.511719 153.410156 150.839844 153.242188 149.984375 153.230469 C 149.121094 153.230469 148.449219 153.394531 147.96875 153.714844 C 147.480469 154.027344 147.234375 154.464844 147.234375 155.027344 C 147.234375 155.582031 147.476563 156.019531 147.953125 156.339844 C 148.433594 156.652344 149.105469 156.808594 149.96875 156.808594 Z M 146.648438 145.933594 L 147.757813 145.933594 C 147.59375 146.238281 147.46875 146.550781 147.382813 146.871094 C 147.300781 147.183594 147.257813 147.511719 147.257813 147.855469 C 147.257813 148.378906 147.347656 148.773438 147.523438 149.042969 C 147.691406 149.304688 147.953125 149.433594 148.304688 149.433594 C 148.578125 149.433594 148.789063 149.339844 148.945313 149.152344 C 149.09375 148.957031 149.242188 148.574219 149.398438 148.011719 L 149.492188 147.667969 C 149.671875 146.917969 149.921875 146.386719 150.242188 146.074219 C 150.566406 145.761719 151.015625 145.613281 151.585938 145.621094 C 152.253906 145.621094 152.78125 145.855469 153.164063 146.324219 C 153.546875 146.792969 153.742188 147.441406 153.742188 148.261719 C 153.730469 148.597656 153.6875 148.949219 153.617188 149.324219 C 153.542969 149.699219 153.429688 150.089844 153.273438 150.496094 L 152.070313 150.496094 C 152.300781 150.113281 152.472656 149.730469 152.585938 149.355469 C 152.691406 148.980469 152.75 148.605469 152.757813 148.230469 C 152.757813 147.742188 152.664063 147.367188 152.476563 147.105469 C 152.289063 146.835938 152.023438 146.699219 151.679688 146.699219 C 151.367188 146.699219 151.128906 146.792969 150.960938 146.980469 C 150.785156 147.167969 150.617188 147.585938 150.460938 148.230469 L 150.367188 148.589844 C 150.203125 149.246094 149.960938 149.722656 149.648438 150.011719 C 149.335938 150.304688 148.90625 150.449219 148.351563 150.449219 C 147.6875 150.449219 147.171875 150.238281 146.804688 149.808594 C 146.441406 149.371094 146.265625 148.761719 146.273438 147.980469 C 146.273438 147.597656 146.304688 147.230469 146.367188 146.886719 C 146.429688 146.542969 146.523438 146.226563 146.648438 145.933594 Z M 147.277344 141.449219 C 147.277344 142.011719 147.523438 142.460938 148.011719 142.792969 C 148.492188 143.117188 149.160156 143.277344 150.011719 143.277344 C 150.867188 143.289063 151.539063 143.132813 152.027344 142.808594 C 152.519531 142.476563 152.761719 142.027344 152.761719 141.464844 C 152.761719 140.902344 152.519531 140.460938 152.027344 140.136719 C 151.539063 139.804688 150.871094 139.632813 150.027344 139.621094 C 149.183594 139.621094 148.519531 139.789063 148.027344 140.121094 C 147.527344 140.445313 147.277344 140.886719 147.277344 141.449219 Z M 146.292969 141.449219 C 146.292969 140.535156 146.628906 139.816406 147.292969 139.292969 C 147.949219 138.773438 148.863281 138.511719 150.027344 138.511719 C 151.195313 138.523438 152.113281 138.789063 152.777344 139.308594 C 153.433594 139.832031 153.761719 140.550781 153.761719 141.464844 C 153.75 142.382813 153.417969 143.101563 152.761719 143.621094 C 152.097656 144.144531 151.179688 144.398438 150.011719 144.386719 C 148.847656 144.386719 147.933594 144.128906 147.277344 143.605469 C 146.613281 143.085938 146.285156 142.367188 146.292969 141.449219 Z M 149.300781 131.449219 L 153.597656 131.464844 L 153.597656 132.511719 L 149.347656 132.496094 C 148.671875 132.496094 148.167969 132.617188 147.832031 132.855469 C 147.5 133.097656 147.332031 133.449219 147.332031 133.917969 C 147.332031 134.480469 147.53125 134.929688 147.925781 135.261719 C 148.324219 135.585938 148.871094 135.746094 149.566406 135.746094 L 153.582031 135.761719 L 153.582031 136.824219 L 146.472656 136.808594 L 146.472656 135.746094 L 147.582031 135.746094 C 147.167969 135.496094 146.855469 135.207031 146.644531 134.871094 C 146.425781 134.527344 146.316406 134.132813 146.316406 133.683594 C 146.316406 132.957031 146.574219 132.402344 147.082031 132.027344 C 147.582031 131.644531 148.324219 131.449219 149.300781 131.449219 Z M 149.195313 121.542969 C 149.289063 121.292969 149.488281 121.054688 149.789063 120.824219 C 150.09375 120.585938 150.507813 120.347656 151.039063 120.105469 L 153.648438 118.949219 L 153.632813 120.199219 L 151.195313 121.292969 C 150.5625 121.554688 150.144531 121.820313 149.945313 122.089844 C 149.738281 122.351563 149.632813 122.710938 149.632813 123.167969 L 149.617188 124.433594 L 153.617188 124.449219 L 153.617188 125.589844 L 144.132813 125.558594 L 144.148438 122.964844 C 144.148438 121.988281 144.378906 121.257813 144.835938 120.777344 C 145.285156 120.300781 145.96875 120.066406 146.882813 120.074219 C 147.476563 120.074219 147.972656 120.199219 148.367188 120.449219 C 148.765625 120.699219 149.039063 121.066406 149.195313 121.542969 Z M 145.195313 124.417969 L 148.554688 124.433594 L 148.570313 122.980469 C 148.570313 122.417969 148.429688 121.996094 148.148438 121.714844 C 147.859375 121.433594 147.4375 121.292969 146.882813 121.292969 C 146.332031 121.285156 145.914063 121.417969 145.632813 121.699219 C 145.351563 121.980469 145.210938 122.402344 145.210938 122.964844 Z M 146.535156 117.496094 L 146.535156 116.449219 L 153.644531 116.464844 L 153.644531 117.511719 Z M 143.769531 117.480469 L 143.769531 116.433594 L 145.253906 116.433594 L 145.253906 117.480469 Z M 146.542969 115.011719 L 146.542969 113.902344 L 152.527344 111.917969 L 146.558594 109.902344 L 146.558594 108.777344 L 153.667969 111.199219 L 153.667969 112.621094 Z M 149.847656 101.855469 L 150.410156 101.855469 L 150.394531 106.699219 C 151.207031 106.660156 151.828125 106.445313 152.253906 106.058594 C 152.671875 105.664063 152.878906 105.117188 152.878906 104.417969 C 152.878906 104.011719 152.828125 103.621094 152.722656 103.246094 C 152.609375 102.871094 152.441406 102.496094 152.222656 102.121094 L 153.332031 102.121094 C 153.511719 102.496094 153.644531 102.882813 153.738281 103.277344 C 153.832031 103.675781 153.878906 104.074219 153.878906 104.480469 C 153.867188 105.503906 153.535156 106.316406 152.878906 106.917969 C 152.214844 107.511719 151.316406 107.804688 150.191406 107.792969 C 149.027344 107.792969 148.105469 107.511719 147.425781 106.949219 C 146.738281 106.378906 146.402344 105.613281 146.410156 104.652344 C 146.410156 103.789063 146.71875 103.105469 147.332031 102.605469 C 147.949219 102.105469 148.785156 101.855469 149.847656 101.855469 Z M 149.503906 102.917969 C 148.871094 102.917969 148.359375 103.074219 147.972656 103.386719 C 147.589844 103.699219 147.394531 104.117188 147.394531 104.636719 C 147.394531 105.230469 147.578125 105.707031 147.941406 106.058594 C 148.308594 106.402344 148.824219 106.601563 149.488281 106.652344 Z M 147.699219 96.417969 C 147.628906 96.535156 147.574219 96.664063 147.542969 96.808594 C 147.503906 96.945313 147.480469 97.097656 147.480469 97.261719 C 147.480469 97.855469 147.695313 98.316406 148.121094 98.636719 C 148.539063 98.949219 149.148438 99.105469 149.949219 99.105469 L 153.699219 99.121094 L 153.699219 100.183594 L 146.589844 100.167969 L 146.589844 99.105469 L 147.699219 99.105469 C 147.273438 98.886719 146.957031 98.601563 146.746094 98.246094 C 146.539063 97.894531 146.433594 97.464844 146.433594 96.964844 C 146.433594 96.894531 146.441406 96.816406 146.449219 96.730469 C 146.460938 96.636719 146.476563 96.535156 146.496094 96.417969 Z M 147.699219 96.417969 "/>
</g>
</svg>

