<?xml version="1.0" encoding="UTF-8"?>
<svg xmlns="http://www.w3.org/2000/svg" xmlns:xlink="http://www.w3.org/1999/xlink" width="256pt" height="256pt" viewBox="0 0 256 256" version="1.1">
<g id="surface2">
<rect x="0" y="0" width="256" height="256" style="fill:rgb(60%,70.196078%,80%);fill-opacity:1;stroke:none;"/>
<path style=" stroke:none;fill-rule:evenodd;fill:rgb(94.901961%,93.72549%,91.372549%);fill-opacity:1;" d="M 259 -4 L 259 259 L -4 259 L -4 216.402344 L -1.269531 216.296875 L 2.222656 199.28125 L 2.476563 198.089844 L 4.792969 194.414063 L 22.796875 187.914063 L 72.304688 186.105469 L 101.648438 175.535156 L 190.710938 143.457031 L 246.898438 123.222656 L 252.816406 94.398438 L 255.417969 89.84375 L 259 86.296875 Z M 259 -4 "/>
<path style=" stroke:none;fill-rule:evenodd;fill:rgb(94.901961%,93.72549%,91.372549%);fill-opacity:1;" d="M -4 260 L 234.144531 260 L 214.773438 215.621094 L 207.925781 199.933594 L 187.878906 209.5 L 58.363281 260 L 35.722656 260 L 21.292969 227.234375 L 0.0507813 236.746094 L -4 227.363281 Z M -4 260 "/>
<path style="fill:none;stroke-width:1;stroke-linecap:round;stroke-linejoin:round;stroke:rgb(89.019608%,87.058824%,83.137255%);stroke-opacity:1;stroke-miterlimit:10;" d="M -4 260 L 234.144531 260 L 214.773438 215.621094 L 207.925781 199.933594 L 187.878906 209.5 L 58.363281 260 L 35.722656 260 L 21.292969 227.234375 L 0.0507813 236.746094 L -4 227.363281 L -4 260 "/>
<path style=" stroke:none;fill-rule:evenodd;fill:rgb(94.901961%,93.72549%,91.372549%);fill-opacity:1;" d="M 238.25 260 L 259.367188 260 L 260 259.769531 L 260 174.125 L 209.378906 192.222656 Z M 238.25 260 "/>
<path style="fill:none;stroke-width:1;stroke-linecap:round;stroke-linejoin:round;stroke:rgb(89.019608%,87.058824%,83.137255%);stroke-opacity:1;stroke-miterlimit:10;" d="M 238.25 260 L 259.367188 260 L 260 259.769531 L 260 174.125 L 209.378906 192.222656 L 238.25 260 "/>
<path style=" stroke:none;fill-rule:evenodd;fill:rgb(81.960784%,81.568627%,80.392157%);fill-opacity:1;" d="M 46.625 213.605469 L 50.136719 221.3125 L 53.058594 228.605469 L 57.234375 226.835938 L 62.378906 240.769531 L 69.484375 238.8125 L 81.761719 234.1875 L 91.964844 229.539063 L 92.117188 228.125 L 91.359375 226.40625 L 80.042969 199.53125 L 63.625 206.402344 L 66.988281 213.761719 L 52.660156 219.695313 L 49.402344 212.445313 Z M 46.625 213.605469 "/>
<path style="fill:none;stroke-width:1;stroke-linecap:round;stroke-linejoin:round;stroke:rgb(81.960784%,81.960784%,81.960784%);stroke-opacity:1;stroke-miterlimit:10;" d="M 46.625 213.605469 L 50.136719 221.3125 L 53.058594 228.605469 L 57.234375 226.835938 L 62.378906 240.769531 L 69.484375 238.8125 L 81.761719 234.1875 L 91.964844 229.539063 L 92.117188 228.125 L 91.359375 226.40625 L 80.042969 199.53125 L 63.625 206.402344 L 66.988281 213.761719 L 52.660156 219.695313 L 49.402344 212.445313 L 46.625 213.605469 "/>
<path style=" stroke:none;fill-rule:evenodd;fill:rgb(87.058824%,81.960784%,67.058824%);fill-opacity:1;" d="M 254.476563 121.464844 L 260 122.609375 L 260 91.824219 L 259.347656 92.308594 L 257.34375 95.175781 L 256.675781 97.277344 L 252.277344 116.96875 Z M 254.476563 121.464844 "/>
<path style=" stroke:none;fill-rule:evenodd;fill:rgb(70.980392%,82.352941%,61.176471%);fill-opacity:1;" d="M 101.652344 175.535156 L 104.386719 181.773438 L 126.679688 173 L 162.300781 160.527344 L 174.253906 156.375 L 179.0625 154.324219 L 183.636719 153.046875 L 188.941406 152.417969 L 187.945313 149.65625 L 192.441406 148.53125 L 190.710938 143.457031 Z M 101.652344 175.535156 "/>
<path style=" stroke:none;fill-rule:evenodd;fill:rgb(70.980392%,82.352941%,61.176471%);fill-opacity:1;" d="M -4 219.765625 L 12.355469 219.394531 L 10.816406 215.8125 L -4 216.398438 Z M -4 219.765625 "/>
<path style=" stroke:none;fill-rule:evenodd;fill:rgb(81.960784%,81.568627%,80.392157%);fill-opacity:1;" d="M 247.09375 223.785156 L 260 218.914063 L 260 203.554688 L 242.019531 210.34375 Z M 247.09375 223.785156 "/>
<path style="fill:none;stroke-width:1;stroke-linecap:round;stroke-linejoin:round;stroke:rgb(81.960784%,81.960784%,81.960784%);stroke-opacity:1;stroke-miterlimit:10;" d="M 247.09375 223.785156 L 260 218.914063 L 260 203.554688 L 242.019531 210.34375 L 247.09375 223.785156 "/>
<path style=" stroke:none;fill-rule:evenodd;fill:rgb(81.960784%,81.568627%,80.392157%);fill-opacity:1;" d="M 33.695313 244.769531 L 35.195313 248.269531 L 45.269531 244.269531 L 46.484375 247.054688 L 48.125 246.449219 L 61.878906 241.414063 L 57.234375 226.835938 L 53.058594 228.605469 L 38.445313 234.804688 L 41.554688 241.125 Z M 33.695313 244.769531 "/>
<path style="fill:none;stroke-width:1;stroke-linecap:round;stroke-linejoin:round;stroke:rgb(81.960784%,81.960784%,81.960784%);stroke-opacity:1;stroke-miterlimit:10;" d="M 33.695313 244.769531 L 35.195313 248.269531 L 45.269531 244.269531 L 46.484375 247.054688 L 48.125 246.449219 L 61.878906 241.414063 L 57.234375 226.835938 L 53.058594 228.605469 L 38.445313 234.804688 L 41.554688 241.125 L 33.695313 244.769531 "/>
<path style=" stroke:none;fill-rule:evenodd;fill:rgb(81.960784%,81.568627%,80.392157%);fill-opacity:1;" d="M 224.308594 215.222656 L 235.210938 242.75 L 240.242188 240.761719 L 235.066406 227.695313 L 240.261719 225.640625 L 234.53125 211.175781 Z M 224.308594 215.222656 "/>
<path style="fill:none;stroke-width:1;stroke-linecap:round;stroke-linejoin:round;stroke:rgb(81.960784%,81.960784%,81.960784%);stroke-opacity:1;stroke-miterlimit:10;" d="M 224.308594 215.222656 L 235.210938 242.75 L 240.242188 240.761719 L 235.066406 227.695313 L 240.261719 225.640625 L 234.53125 211.175781 L 224.308594 215.222656 "/>
<path style=" stroke:none;fill-rule:evenodd;fill:rgb(70.980392%,82.352941%,61.176471%);fill-opacity:1;" d="M -1.269531 216.296875 L 10.816406 215.8125 L 3.984375 200.789063 L 3.28125 199.261719 L 2.226563 199.28125 Z M -1.269531 216.296875 "/>
<path style=" stroke:none;fill-rule:evenodd;fill:rgb(81.960784%,81.568627%,80.392157%);fill-opacity:1;" d="M 3.984375 200.789063 L 10.816406 215.8125 L 15.445313 215.609375 L 16.429688 214.957031 L 9.40625 199.101563 L 7.433594 199.90625 L 5.703125 199.140625 L 5.984375 199.824219 Z M 3.984375 200.789063 "/>
<path style="fill:none;stroke-width:1;stroke-linecap:round;stroke-linejoin:round;stroke:rgb(81.960784%,81.960784%,81.960784%);stroke-opacity:1;stroke-miterlimit:10;" d="M 3.984375 200.789063 L 10.816406 215.8125 L 15.445313 215.609375 L 16.429688 214.957031 L 9.40625 199.101563 L 7.433594 199.90625 L 5.703125 199.140625 L 5.984375 199.824219 L 3.984375 200.789063 "/>
<path style="fill:none;stroke-width:1;stroke-linecap:round;stroke-linejoin:round;stroke:rgb(100%,100%,100%);stroke-opacity:1;stroke-dasharray:2,3;stroke-miterlimit:10;" d="M 204.820313 251.378906 L 211.855469 248.496094 "/>
<path style="fill:none;stroke-width:1;stroke-linecap:round;stroke-linejoin:round;stroke:rgb(100%,100%,100%);stroke-opacity:1;stroke-dasharray:2,3;stroke-miterlimit:10;" d="M 230.066406 253.945313 L 222.570313 257 "/>
<path style="fill:none;stroke-width:1;stroke-linecap:round;stroke-linejoin:round;stroke:rgb(100%,100%,100%);stroke-opacity:1;stroke-dasharray:2,3;stroke-miterlimit:10;" d="M 223.582031 237.613281 L 212.601563 242.417969 "/>
<path style="fill:none;stroke-width:1;stroke-linecap:round;stroke-linejoin:round;stroke:rgb(100%,100%,100%);stroke-opacity:1;stroke-dasharray:2,3;stroke-miterlimit:10;" d="M 213.386719 257 L 228.636719 250.285156 "/>
<path style="fill:none;stroke-width:8;stroke-linecap:round;stroke-linejoin:round;stroke:rgb(75.686275%,70.980392%,61.568627%);stroke-opacity:1;stroke-miterlimit:10;" d="M 232.402344 213.109375 L 238.132813 227.863281 "/>
<path style="fill:none;stroke-width:8;stroke-linecap:round;stroke-linejoin:round;stroke:rgb(75.686275%,70.980392%,61.568627%);stroke-opacity:1;stroke-miterlimit:10;" d="M 250.210938 223.476563 L 244.328125 208.589844 "/>
<path style="fill:none;stroke-width:8;stroke-linecap:round;stroke-linejoin:round;stroke:rgb(75.686275%,70.980392%,61.568627%);stroke-opacity:1;stroke-miterlimit:10;" d="M 249.667969 206.566406 L 255.058594 221.714844 "/>
<path style="fill:none;stroke-width:8;stroke-linecap:round;stroke-linejoin:round;stroke:rgb(75.686275%,70.980392%,61.568627%);stroke-opacity:1;stroke-miterlimit:10;" d="M 255.058594 221.714844 L 258.703125 230.734375 L 263.730469 243.183594 L 264 243.625 "/>
<path style="fill:none;stroke-width:8;stroke-linecap:round;stroke-linejoin:round;stroke:rgb(75.686275%,70.980392%,61.568627%);stroke-opacity:1;stroke-miterlimit:10;" d="M 227.035156 232.089844 L 233.042969 229.707031 L 238.132813 227.863281 L 250.210938 223.476563 L 255.058594 221.714844 L 261.210938 219.484375 L 264 218.472656 "/>
<path style="fill:none;stroke-width:8;stroke-linecap:round;stroke-linejoin:round;stroke:rgb(75.686275%,70.980392%,61.568627%);stroke-opacity:1;stroke-miterlimit:10;" d="M 264 201.136719 L 260.925781 202.300781 L 255.480469 204.367188 L 249.667969 206.566406 L 244.328125 208.589844 L 232.402344 213.109375 L 228.386719 214.632813 L 227.765625 215.492188 L 233.042969 229.707031 L 237.324219 241.25 "/>
<path style="fill:none;stroke-width:8;stroke-linecap:round;stroke-linejoin:round;stroke:rgb(75.686275%,70.980392%,61.568627%);stroke-opacity:1;stroke-miterlimit:10;" d="M 224.523438 225.761719 L 219.429688 227.621094 "/>
<path style="fill:none;stroke-width:8;stroke-linecap:round;stroke-linejoin:round;stroke:rgb(75.686275%,70.980392%,61.568627%);stroke-opacity:1;stroke-miterlimit:10;" d="M 203.492188 248.15625 L 210.550781 245.273438 "/>
<path style="fill:none;stroke-width:8;stroke-linecap:round;stroke-linejoin:round;stroke:rgb(75.686275%,70.980392%,61.568627%);stroke-opacity:1;stroke-miterlimit:10;" d="M 206.882813 218.785156 L 203.582031 210.773438 "/>
<path style="fill:none;stroke-width:8;stroke-linecap:round;stroke-linejoin:round;stroke:rgb(75.686275%,70.980392%,61.568627%);stroke-opacity:1;stroke-miterlimit:10;" d="M 21.292969 227.234375 L 18.355469 218.890625 "/>
<path style="fill:none;stroke-width:8;stroke-linecap:round;stroke-linejoin:round;stroke:rgb(75.686275%,70.980392%,61.568627%);stroke-opacity:1;stroke-miterlimit:10;" d="M 214.371094 246.746094 L 225.398438 242.1875 "/>
<path style="fill:none;stroke-width:8;stroke-linecap:round;stroke-linejoin:round;stroke:rgb(75.686275%,70.980392%,61.568627%);stroke-opacity:1;stroke-miterlimit:10;" d="M 188.441406 210.359375 L 193.898438 223.859375 "/>
<path style="fill:none;stroke-width:8;stroke-linecap:round;stroke-linejoin:round;stroke:rgb(75.686275%,70.980392%,61.568627%);stroke-opacity:1;stroke-miterlimit:10;" d="M 21.292969 227.234375 L 31.386719 218.515625 L 33.394531 215.683594 "/>
<path style="fill:none;stroke-width:8;stroke-linecap:round;stroke-linejoin:round;stroke:rgb(75.686275%,70.980392%,61.568627%);stroke-opacity:1;stroke-miterlimit:10;" d="M -7.246094 219.839844 L 0.0507813 236.746094 "/>
<path style="fill:none;stroke-width:8;stroke-linecap:round;stroke-linejoin:round;stroke:rgb(75.686275%,70.980392%,61.568627%);stroke-opacity:1;stroke-miterlimit:10;" d="M 219.429688 227.621094 L 198.328125 235.3125 "/>
<path style="fill:none;stroke-width:8;stroke-linecap:round;stroke-linejoin:round;stroke:rgb(75.686275%,70.980392%,61.568627%);stroke-opacity:1;stroke-miterlimit:10;" d="M 219.203125 212.824219 L 209.726563 196.273438 L 205.8125 193.144531 "/>
<path style="fill:none;stroke-width:8;stroke-linecap:round;stroke-linejoin:round;stroke:rgb(75.686275%,70.980392%,61.568627%);stroke-opacity:1;stroke-miterlimit:10;" d="M 205.8125 193.144531 L 207.902344 201.136719 L 214.773438 215.621094 "/>
<path style="fill:none;stroke-width:8;stroke-linecap:round;stroke-linejoin:round;stroke:rgb(75.686275%,70.980392%,61.568627%);stroke-opacity:1;stroke-miterlimit:10;" d="M 188.941406 152.417969 L 205.8125 193.144531 "/>
<path style="fill:none;stroke-width:8;stroke-linecap:round;stroke-linejoin:round;stroke:rgb(75.686275%,70.980392%,61.568627%);stroke-opacity:1;stroke-miterlimit:10;" d="M 209.890625 264 L 208.035156 259.355469 L 206.566406 255.671875 L 204.820313 251.378906 L 203.492188 248.15625 L 198.328125 235.3125 L 193.898438 223.859375 "/>
<path style="fill:none;stroke-width:8;stroke-linecap:round;stroke-linejoin:round;stroke:rgb(75.686275%,70.980392%,61.568627%);stroke-opacity:1;stroke-miterlimit:10;" d="M 0.0507813 236.746094 L 11.964844 264 "/>
<path style="fill:none;stroke-width:8;stroke-linecap:round;stroke-linejoin:round;stroke:rgb(75.686275%,70.980392%,61.568627%);stroke-opacity:1;stroke-miterlimit:10;" d="M 37.339844 264 L 36.695313 262.546875 L 21.292969 227.234375 "/>
<path style="fill:none;stroke-width:8;stroke-linecap:round;stroke-linejoin:round;stroke:rgb(75.686275%,70.980392%,61.568627%);stroke-opacity:1;stroke-miterlimit:10;" d="M 214.773438 215.621094 L 219.429688 227.621094 L 222.035156 233.710938 L 223.582031 237.613281 L 224.46875 239.855469 L 225.398438 242.1875 L 228.636719 250.285156 L 230.066406 253.945313 L 233.785156 264 "/>
<path style="fill:none;stroke-width:8;stroke-linecap:round;stroke-linejoin:round;stroke:rgb(75.686275%,70.980392%,61.568627%);stroke-opacity:1;stroke-miterlimit:10;" d="M 177.09375 264 L 164.226563 235.066406 "/>
<path style="fill:none;stroke-width:8;stroke-linecap:round;stroke-linejoin:round;stroke:rgb(75.686275%,70.980392%,61.568627%);stroke-opacity:1;stroke-miterlimit:10;" d="M 239.941406 264 L 227.035156 232.089844 L 224.523438 225.761719 L 219.203125 212.824219 "/>
<path style="fill:none;stroke-width:8;stroke-linecap:round;stroke-linejoin:round;stroke:rgb(75.686275%,70.980392%,61.568627%);stroke-opacity:1;stroke-miterlimit:10;" d="M 154.140625 264 L 144.210938 241.796875 "/>
<path style="fill:none;stroke-width:8;stroke-linecap:round;stroke-linejoin:round;stroke:rgb(75.686275%,70.980392%,61.568627%);stroke-opacity:1;stroke-miterlimit:10;" d="M 131.558594 264 L 125.050781 249.203125 "/>
<path style="fill:none;stroke-width:8;stroke-linecap:round;stroke-linejoin:round;stroke:rgb(75.686275%,70.980392%,61.568627%);stroke-opacity:1;stroke-miterlimit:10;" d="M 21.292969 227.234375 L 0.0507813 236.746094 L -9 240.714844 "/>
<path style="fill:none;stroke-width:8;stroke-linecap:round;stroke-linejoin:round;stroke:rgb(75.686275%,70.980392%,61.568627%);stroke-opacity:1;stroke-miterlimit:10;" d="M 219.203125 212.824219 L 214.773438 215.621094 L 206.882813 218.785156 L 193.898438 223.859375 "/>
<path style="fill:none;stroke-width:8;stroke-linecap:round;stroke-linejoin:round;stroke:rgb(75.686275%,70.980392%,61.568627%);stroke-opacity:1;stroke-miterlimit:10;" d="M 205.8125 193.144531 L 182.878906 201.804688 L 161.234375 208.972656 L 148.136719 212.9375 L 140.921875 214.707031 L 136.90625 214.945313 L 132.703125 214.5625 L 128.449219 213.367188 L 124.722656 211.457031 L 121.039063 208.972656 L 118.269531 206.152344 L 115.121094 201.664063 L 106.308594 185.164063 L 104.386719 181.773438 "/>
<path style="fill:none;stroke-width:8;stroke-linecap:round;stroke-linejoin:round;stroke:rgb(75.686275%,70.980392%,61.568627%);stroke-opacity:1;stroke-miterlimit:10;" d="M 193.898438 223.859375 L 164.226563 235.066406 L 144.210938 241.796875 L 125.050781 249.203125 L 105.09375 256.457031 L 85.253906 263.910156 L 85.003906 264 "/>
<path style="fill:none;stroke-width:8;stroke-linecap:round;stroke-linejoin:round;stroke:rgb(75.686275%,70.980392%,61.568627%);stroke-opacity:1;stroke-miterlimit:10;" d="M 264 195.476563 L 219.203125 212.824219 "/>
<path style="fill:none;stroke-width:8;stroke-linecap:round;stroke-linejoin:round;stroke:rgb(75.686275%,70.980392%,61.568627%);stroke-opacity:1;stroke-miterlimit:10;" d="M 264 257.535156 L 258.507813 259.503906 L 253.128906 261.4375 L 245.984375 264 "/>
<path style="fill:none;stroke-width:8;stroke-linecap:round;stroke-linejoin:round;stroke:rgb(75.686275%,70.980392%,61.568627%);stroke-opacity:1;stroke-miterlimit:10;" d="M 205.8125 193.144531 L 223.769531 187.191406 L 259.113281 177.070313 L 264 175.300781 "/>
<path style="fill:none;stroke-width:10;stroke-linecap:round;stroke-linejoin:round;stroke:rgb(75.686275%,70.980392%,61.568627%);stroke-opacity:1;stroke-miterlimit:10;" d="M 63.925781 199.378906 L 65.234375 202.441406 "/>
<path style="fill:none;stroke-width:10;stroke-linecap:round;stroke-linejoin:round;stroke:rgb(75.686275%,70.980392%,61.568627%);stroke-opacity:1;stroke-miterlimit:10;" d="M 76.402344 193.84375 L 63.925781 199.378906 "/>
<path style="fill:none;stroke-width:10;stroke-linecap:round;stroke-linejoin:round;stroke:rgb(75.686275%,70.980392%,61.568627%);stroke-opacity:1;stroke-miterlimit:10;" d="M 18.355469 218.890625 L 12.355469 219.394531 L -1.007813 219.699219 L -7.246094 219.839844 "/>
<path style="fill:none;stroke-width:10;stroke-linecap:round;stroke-linejoin:round;stroke:rgb(75.686275%,70.980392%,61.568627%);stroke-opacity:1;stroke-miterlimit:10;" d="M 63.925781 199.378906 L 32.488281 212.742188 L 22.554688 216.003906 L 18.355469 218.890625 "/>
<path style="fill:none;stroke-width:10;stroke-linecap:round;stroke-linejoin:round;stroke:rgb(75.686275%,70.980392%,61.568627%);stroke-opacity:1;stroke-miterlimit:10;" d="M 188.941406 152.417969 L 183.636719 153.046875 L 179.0625 154.324219 L 174.253906 156.375 L 162.300781 160.527344 L 126.679688 173 L 104.386719 181.773438 L 76.402344 193.84375 "/>
<path style="fill:none;stroke-width:10;stroke-linecap:round;stroke-linejoin:round;stroke:rgb(75.686275%,70.980392%,61.568627%);stroke-opacity:1;stroke-miterlimit:10;" d="M 266 132.992188 L 255.265625 137.089844 L 247.296875 140.648438 L 241.9375 142.765625 L 232.175781 146.078125 L 226.371094 147.738281 L 219.289063 149.453125 L 208.089844 150.558594 L 199.230469 151.253906 L 188.941406 152.417969 "/>
<path style="fill:none;stroke-width:10;stroke-linecap:round;stroke-linejoin:round;stroke:rgb(75.686275%,70.980392%,61.568627%);stroke-opacity:1;stroke-miterlimit:10;" d="M 18.355469 218.890625 L 23.914063 218.675781 L 33.394531 215.683594 L 64.851563 202.605469 L 77.996094 197.074219 L 106.308594 185.164063 L 127.542969 175.324219 L 163.117188 162.867188 L 175.148438 158.691406 L 184.773438 155.234375 L 188.941406 152.417969 "/>
<path style="fill:none;stroke-width:6;stroke-linecap:round;stroke-linejoin:round;stroke:rgb(100%,100%,100%);stroke-opacity:1;stroke-miterlimit:10;" d="M 232.402344 213.109375 L 238.132813 227.863281 "/>
<path style="fill:none;stroke-width:6;stroke-linecap:round;stroke-linejoin:round;stroke:rgb(100%,100%,100%);stroke-opacity:1;stroke-miterlimit:10;" d="M 250.210938 223.476563 L 244.328125 208.589844 "/>
<path style="fill:none;stroke-width:6;stroke-linecap:round;stroke-linejoin:round;stroke:rgb(100%,100%,100%);stroke-opacity:1;stroke-miterlimit:10;" d="M 249.667969 206.566406 L 255.058594 221.714844 "/>
<path style="fill:none;stroke-width:6;stroke-linecap:round;stroke-linejoin:round;stroke:rgb(100%,100%,100%);stroke-opacity:1;stroke-miterlimit:10;" d="M 255.058594 221.714844 L 258.703125 230.734375 L 263.730469 243.183594 L 264 243.625 "/>
<path style="fill:none;stroke-width:6;stroke-linecap:round;stroke-linejoin:round;stroke:rgb(100%,100%,100%);stroke-opacity:1;stroke-miterlimit:10;" d="M 227.035156 232.089844 L 233.042969 229.707031 L 238.132813 227.863281 L 250.210938 223.476563 L 255.058594 221.714844 L 261.210938 219.484375 L 264 218.472656 "/>
<path style="fill:none;stroke-width:6;stroke-linecap:round;stroke-linejoin:round;stroke:rgb(100%,100%,100%);stroke-opacity:1;stroke-miterlimit:10;" d="M 264 201.136719 L 260.925781 202.300781 L 255.480469 204.367188 L 249.667969 206.566406 L 244.328125 208.589844 L 232.402344 213.109375 L 228.386719 214.632813 L 227.765625 215.492188 L 233.042969 229.707031 L 237.324219 241.25 "/>
<path style="fill:none;stroke-width:6;stroke-linecap:round;stroke-linejoin:round;stroke:rgb(100%,100%,100%);stroke-opacity:1;stroke-miterlimit:10;" d="M 224.523438 225.761719 L 219.429688 227.621094 "/>
<path style="fill:none;stroke-width:6;stroke-linecap:round;stroke-linejoin:round;stroke:rgb(100%,100%,100%);stroke-opacity:1;stroke-miterlimit:10;" d="M 203.492188 248.15625 L 210.550781 245.273438 "/>
<path style="fill:none;stroke-width:6;stroke-linecap:round;stroke-linejoin:round;stroke:rgb(100%,100%,100%);stroke-opacity:1;stroke-miterlimit:10;" d="M 206.882813 218.785156 L 203.582031 210.773438 "/>
<path style="fill:none;stroke-width:6;stroke-linecap:round;stroke-linejoin:round;stroke:rgb(100%,100%,100%);stroke-opacity:1;stroke-miterlimit:10;" d="M 21.292969 227.234375 L 18.355469 218.890625 "/>
<path style="fill:none;stroke-width:6;stroke-linecap:round;stroke-linejoin:round;stroke:rgb(100%,100%,100%);stroke-opacity:1;stroke-miterlimit:10;" d="M 214.371094 246.746094 L 225.398438 242.1875 "/>
<path style="fill:none;stroke-width:6;stroke-linecap:round;stroke-linejoin:round;stroke:rgb(100%,100%,100%);stroke-opacity:1;stroke-miterlimit:10;" d="M 188.441406 210.359375 L 193.898438 223.859375 "/>
<path style="fill:none;stroke-width:6;stroke-linecap:round;stroke-linejoin:round;stroke:rgb(100%,100%,100%);stroke-opacity:1;stroke-miterlimit:10;" d="M 21.292969 227.234375 L 31.386719 218.515625 L 33.394531 215.683594 "/>
<path style="fill:none;stroke-width:6;stroke-linecap:round;stroke-linejoin:round;stroke:rgb(100%,100%,100%);stroke-opacity:1;stroke-miterlimit:10;" d="M -7.246094 219.839844 L 0.0507813 236.746094 "/>
<path style="fill:none;stroke-width:6;stroke-linecap:round;stroke-linejoin:round;stroke:rgb(100%,100%,100%);stroke-opacity:1;stroke-miterlimit:10;" d="M 219.429688 227.621094 L 198.328125 235.3125 "/>
<path style="fill:none;stroke-width:6;stroke-linecap:round;stroke-linejoin:round;stroke:rgb(100%,100%,100%);stroke-opacity:1;stroke-miterlimit:10;" d="M 219.203125 212.824219 L 209.726563 196.273438 L 205.8125 193.144531 "/>
<path style="fill:none;stroke-width:6;stroke-linecap:round;stroke-linejoin:round;stroke:rgb(100%,100%,100%);stroke-opacity:1;stroke-miterlimit:10;" d="M 205.8125 193.144531 L 207.902344 201.136719 L 214.773438 215.621094 "/>
<path style="fill:none;stroke-width:6;stroke-linecap:round;stroke-linejoin:round;stroke:rgb(100%,100%,100%);stroke-opacity:1;stroke-miterlimit:10;" d="M 188.941406 152.417969 L 205.8125 193.144531 "/>
<path style="fill:none;stroke-width:6;stroke-linecap:round;stroke-linejoin:round;stroke:rgb(100%,100%,100%);stroke-opacity:1;stroke-miterlimit:10;" d="M 209.890625 264 L 208.035156 259.355469 L 206.566406 255.671875 L 204.820313 251.378906 L 203.492188 248.15625 L 198.328125 235.3125 L 193.898438 223.859375 "/>
<path style="fill:none;stroke-width:6;stroke-linecap:round;stroke-linejoin:round;stroke:rgb(100%,100%,100%);stroke-opacity:1;stroke-miterlimit:10;" d="M 0.0507813 236.746094 L 11.964844 264 "/>
<path style="fill:none;stroke-width:6;stroke-linecap:round;stroke-linejoin:round;stroke:rgb(100%,100%,100%);stroke-opacity:1;stroke-miterlimit:10;" d="M 37.339844 264 L 36.695313 262.546875 L 21.292969 227.234375 "/>
<path style="fill:none;stroke-width:6;stroke-linecap:round;stroke-linejoin:round;stroke:rgb(100%,100%,100%);stroke-opacity:1;stroke-miterlimit:10;" d="M 214.773438 215.621094 L 219.429688 227.621094 L 222.035156 233.710938 L 223.582031 237.613281 L 224.46875 239.855469 L 225.398438 242.1875 L 228.636719 250.285156 L 230.066406 253.945313 L 233.785156 264 "/>
<path style="fill:none;stroke-width:6;stroke-linecap:round;stroke-linejoin:round;stroke:rgb(100%,100%,100%);stroke-opacity:1;stroke-miterlimit:10;" d="M 177.09375 264 L 164.226563 235.066406 "/>
<path style="fill:none;stroke-width:6;stroke-linecap:round;stroke-linejoin:round;stroke:rgb(100%,100%,100%);stroke-opacity:1;stroke-miterlimit:10;" d="M 239.941406 264 L 227.035156 232.089844 L 224.523438 225.761719 L 219.203125 212.824219 "/>
<path style="fill:none;stroke-width:6;stroke-linecap:round;stroke-linejoin:round;stroke:rgb(100%,100%,100%);stroke-opacity:1;stroke-miterlimit:10;" d="M 154.140625 264 L 144.210938 241.796875 "/>
<path style="fill:none;stroke-width:6;stroke-linecap:round;stroke-linejoin:round;stroke:rgb(100%,100%,100%);stroke-opacity:1;stroke-miterlimit:10;" d="M 131.558594 264 L 125.050781 249.203125 "/>
<path style="fill:none;stroke-width:6;stroke-linecap:round;stroke-linejoin:round;stroke:rgb(100%,100%,100%);stroke-opacity:1;stroke-miterlimit:10;" d="M 21.292969 227.234375 L 0.0507813 236.746094 L -9 240.714844 "/>
<path style="fill:none;stroke-width:6;stroke-linecap:round;stroke-linejoin:round;stroke:rgb(100%,99.215686%,54.509804%);stroke-opacity:1;stroke-miterlimit:10;" d="M 219.203125 212.824219 L 214.773438 215.621094 L 206.882813 218.785156 L 193.898438 223.859375 "/>
<path style="fill:none;stroke-width:6;stroke-linecap:round;stroke-linejoin:round;stroke:rgb(100%,99.215686%,54.509804%);stroke-opacity:1;stroke-miterlimit:10;" d="M 205.8125 193.144531 L 182.878906 201.804688 L 161.234375 208.972656 L 148.136719 212.9375 L 140.921875 214.707031 L 136.90625 214.945313 L 132.703125 214.5625 L 128.449219 213.367188 L 124.722656 211.457031 L 121.039063 208.972656 L 118.269531 206.152344 L 115.121094 201.664063 L 106.308594 185.164063 L 104.386719 181.773438 "/>
<path style="fill:none;stroke-width:6;stroke-linecap:round;stroke-linejoin:round;stroke:rgb(100%,99.215686%,54.509804%);stroke-opacity:1;stroke-miterlimit:10;" d="M 193.898438 223.859375 L 164.226563 235.066406 L 144.210938 241.796875 L 125.050781 249.203125 L 105.09375 256.457031 L 85.253906 263.910156 L 85.003906 264 "/>
<path style="fill:none;stroke-width:6;stroke-linecap:round;stroke-linejoin:round;stroke:rgb(100%,99.215686%,54.509804%);stroke-opacity:1;stroke-miterlimit:10;" d="M 264 195.476563 L 219.203125 212.824219 "/>
<path style="fill:none;stroke-width:6;stroke-linecap:round;stroke-linejoin:round;stroke:rgb(100%,99.215686%,54.509804%);stroke-opacity:1;stroke-miterlimit:10;" d="M 264 257.535156 L 258.507813 259.503906 L 253.128906 261.4375 L 245.984375 264 "/>
<path style="fill:none;stroke-width:6;stroke-linecap:round;stroke-linejoin:round;stroke:rgb(100%,99.215686%,54.509804%);stroke-opacity:1;stroke-miterlimit:10;" d="M 205.8125 193.144531 L 223.769531 187.191406 L 259.113281 177.070313 L 264 175.300781 "/>
<path style="fill:none;stroke-width:8;stroke-linecap:round;stroke-linejoin:round;stroke:rgb(100%,99.215686%,54.509804%);stroke-opacity:1;stroke-miterlimit:10;" d="M 63.925781 199.378906 L 65.234375 202.441406 "/>
<path style="fill:none;stroke-width:8;stroke-linecap:round;stroke-linejoin:round;stroke:rgb(100%,99.215686%,54.509804%);stroke-opacity:1;stroke-miterlimit:10;" d="M 76.402344 193.84375 L 63.925781 199.378906 "/>
<path style="fill:none;stroke-width:8;stroke-linecap:round;stroke-linejoin:round;stroke:rgb(100%,99.215686%,54.509804%);stroke-opacity:1;stroke-miterlimit:10;" d="M 18.355469 218.890625 L 12.355469 219.394531 L -1.007813 219.699219 L -7.246094 219.839844 "/>
<path style="fill:none;stroke-width:8;stroke-linecap:round;stroke-linejoin:round;stroke:rgb(100%,99.215686%,54.509804%);stroke-opacity:1;stroke-miterlimit:10;" d="M 63.925781 199.378906 L 32.488281 212.742188 L 22.554688 216.003906 L 18.355469 218.890625 "/>
<path style="fill:none;stroke-width:8;stroke-linecap:round;stroke-linejoin:round;stroke:rgb(100%,99.215686%,54.509804%);stroke-opacity:1;stroke-miterlimit:10;" d="M 188.941406 152.417969 L 183.636719 153.046875 L 179.0625 154.324219 L 174.253906 156.375 L 162.300781 160.527344 L 126.679688 173 L 104.386719 181.773438 L 76.402344 193.84375 "/>
<path style="fill:none;stroke-width:8;stroke-linecap:round;stroke-linejoin:round;stroke:rgb(100%,99.215686%,54.509804%);stroke-opacity:1;stroke-miterlimit:10;" d="M 266 132.992188 L 255.265625 137.089844 L 247.296875 140.648438 L 241.9375 142.765625 L 232.175781 146.078125 L 226.371094 147.738281 L 219.289063 149.453125 L 208.089844 150.558594 L 199.230469 151.253906 L 188.941406 152.417969 "/>
<path style="fill:none;stroke-width:8;stroke-linecap:round;stroke-linejoin:round;stroke:rgb(100%,99.215686%,54.509804%);stroke-opacity:1;stroke-miterlimit:10;" d="M 18.355469 218.890625 L 23.914063 218.675781 L 33.394531 215.683594 L 64.851563 202.605469 L 77.996094 197.074219 L 106.308594 185.164063 L 127.542969 175.324219 L 163.117188 162.867188 L 175.148438 158.691406 L 184.773438 155.234375 L 188.941406 152.417969 "/>
<path style="fill:none;stroke-width:3;stroke-linecap:round;stroke-linejoin:round;stroke:rgb(100%,100%,100%);stroke-opacity:1;stroke-miterlimit:10;" d="M 53.597656 207.636719 L 54.832031 210.605469 L 56.394531 209.949219 C 56.925781 209.730469 57.269531 209.445313 57.425781 209.089844 C 57.582031 208.738281 57.554688 208.308594 57.347656 207.808594 C 57.128906 207.300781 56.839844 206.980469 56.488281 206.855469 C 56.132813 206.722656 55.691406 206.761719 55.160156 206.980469 Z M 52.222656 204.308594 L 53.238281 206.746094 L 54.691406 206.136719 C 55.167969 205.941406 55.480469 205.691406 55.628906 205.386719 C 55.785156 205.085938 55.773438 204.738281 55.597656 204.339844 C 55.429688 203.925781 55.183594 203.664063 54.863281 203.558594 C 54.550781 203.457031 54.152344 203.503906 53.675781 203.699219 Z M 50.863281 203.824219 L 53.363281 202.777344 C 54.113281 202.464844 54.761719 202.398438 55.316406 202.574219 C 55.867188 202.753906 56.273438 203.160156 56.535156 203.792969 C 56.742188 204.292969 56.800781 204.738281 56.707031 205.121094 C 56.621094 205.496094 56.398438 205.804688 56.035156 206.042969 C 56.574219 205.949219 57.050781 206.035156 57.457031 206.292969 C 57.871094 206.542969 58.195313 206.945313 58.425781 207.496094 C 58.726563 208.214844 58.738281 208.867188 58.457031 209.449219 C 58.175781 210.023438 57.632813 210.476563 56.832031 210.808594 L 54.222656 211.902344 Z M 64.324219 203.855469 L 64.527344 204.339844 L 60.402344 206.042969 C 60.722656 206.722656 61.125 207.167969 61.605469 207.386719 C 62.09375 207.605469 62.636719 207.597656 63.230469 207.355469 C 63.574219 207.210938 63.886719 207.023438 64.167969 206.792969 C 64.449219 206.566406 64.707031 206.289063 64.949219 205.964844 L 65.339844 206.917969 C 65.089844 207.191406 64.808594 207.441406 64.496094 207.667969 C 64.183594 207.886719 63.855469 208.070313 63.511719 208.214844 C 62.644531 208.582031 61.839844 208.585938 61.089844 208.230469 C 60.347656 207.878906 59.785156 207.222656 59.386719 206.261719 C 58.972656 205.273438 58.882813 204.386719 59.121094 203.605469 C 59.363281 202.824219 59.898438 202.261719 60.730469 201.917969 C 61.457031 201.617188 62.144531 201.644531 62.792969 201.996094 C 63.4375 202.339844 63.949219 202.960938 64.324219 203.855469 Z M 63.292969 203.933594 C 63.0625 203.394531 62.746094 203.019531 62.339844 202.808594 C 61.933594 202.589844 61.511719 202.574219 61.074219 202.761719 C 60.574219 202.972656 60.238281 203.292969 60.074219 203.730469 C 59.917969 204.167969 59.929688 204.683594 60.105469 205.277344 Z M 68.347656 202.4375 C 67.628906 202.742188 67.167969 203.042969 66.972656 203.34375 C 66.773438 203.648438 66.769531 204.015625 66.957031 204.453125 C 67.101563 204.808594 67.320313 205.046875 67.613281 205.171875 C 67.914063 205.289063 68.246094 205.265625 68.613281 205.109375 C 69.101563 204.914063 69.414063 204.554688 69.550781 204.03125 C 69.683594 203.511719 69.617188 202.921875 69.347656 202.265625 L 69.253906 202.0625 Z M 69.972656 201.265625 L 71.425781 204.71875 L 70.535156 205.09375 L 70.144531 204.171875 C 70.089844 204.621094 69.945313 205 69.707031 205.3125 C 69.476563 205.617188 69.144531 205.859375 68.707031 206.046875 C 68.144531 206.277344 67.628906 206.289063 67.160156 206.078125 C 66.691406 205.871094 66.335938 205.480469 66.097656 204.90625 C 65.808594 204.21875 65.792969 203.621094 66.050781 203.109375 C 66.308594 202.589844 66.847656 202.15625 67.660156 201.8125 L 68.925781 201.28125 L 68.894531 201.171875 C 68.695313 200.714844 68.402344 200.417969 68.019531 200.28125 C 67.644531 200.148438 67.210938 200.183594 66.722656 200.390625 C 66.417969 200.515625 66.140625 200.6875 65.878906 200.90625 C 65.621094 201.117188 65.386719 201.355469 65.175781 201.625 L 64.800781 200.703125 C 65.0625 200.433594 65.332031 200.199219 65.613281 200 C 65.886719 199.804688 66.171875 199.640625 66.472656 199.515625 C 67.253906 199.183594 67.933594 199.164063 68.519531 199.453125 C 69.101563 199.734375 69.585938 200.339844 69.972656 201.265625 Z M 74.722656 196.484375 L 75.128906 197.421875 C 74.804688 197.359375 74.496094 197.34375 74.207031 197.375 C 73.925781 197.40625 73.652344 197.476563 73.394531 197.578125 C 72.808594 197.828125 72.445313 198.226563 72.300781 198.765625 C 72.15625 199.308594 72.238281 199.949219 72.550781 200.6875 C 72.851563 201.429688 73.246094 201.9375 73.738281 202.21875 C 74.226563 202.492188 74.761719 202.5 75.347656 202.25 C 75.605469 202.148438 75.847656 202 76.066406 201.8125 C 76.292969 201.625 76.503906 201.402344 76.691406 201.140625 L 77.082031 202.0625 C 76.882813 202.292969 76.660156 202.5 76.410156 202.6875 C 76.167969 202.867188 75.898438 203.015625 75.597656 203.140625 C 74.785156 203.484375 74.011719 203.476563 73.285156 203.109375 C 72.566406 202.734375 72.003906 202.058594 71.597656 201.078125 C 71.183594 200.101563 71.097656 199.230469 71.347656 198.46875 C 71.597656 197.699219 72.144531 197.136719 72.988281 196.78125 C 73.269531 196.65625 73.554688 196.574219 73.847656 196.53125 C 74.136719 196.480469 74.429688 196.464844 74.722656 196.484375 Z M 81.726563 196.089844 L 83.257813 199.746094 L 82.351563 200.121094 L 80.835938 196.511719 C 80.585938 195.929688 80.296875 195.539063 79.976563 195.339844 C 79.664063 195.144531 79.3125 195.128906 78.929688 195.292969 C 78.4375 195.503906 78.121094 195.835938 77.976563 196.292969 C 77.839844 196.753906 77.898438 197.285156 78.148438 197.886719 L 79.585938 201.292969 L 78.695313 201.667969 L 75.164063 193.261719 L 76.054688 192.886719 L 77.429688 196.183594 C 77.492188 195.726563 77.632813 195.347656 77.851563 195.042969 C 78.070313 194.742188 78.371094 194.511719 78.757813 194.355469 C 79.371094 194.097656 79.929688 194.113281 80.429688 194.402344 C 80.9375 194.695313 81.371094 195.257813 81.726563 196.089844 Z M 90.53125 187.90625 L 91.015625 189.0625 C 90.546875 188.867188 90.085938 188.761719 89.640625 188.75 C 89.191406 188.742188 88.753906 188.824219 88.328125 189 C 87.503906 189.34375 86.996094 189.898438 86.796875 190.65625 C 86.589844 191.40625 86.710938 192.3125 87.15625 193.375 C 87.59375 194.429688 88.148438 195.148438 88.828125 195.53125 C 89.515625 195.90625 90.269531 195.921875 91.09375 195.578125 C 91.519531 195.402344 91.882813 195.152344 92.1875 194.828125 C 92.488281 194.496094 92.734375 194.089844 92.921875 193.609375 L 93.390625 194.734375 C 93.171875 195.140625 92.890625 195.492188 92.546875 195.78125 C 92.210938 196.074219 91.835938 196.308594 91.421875 196.484375 C 90.316406 196.953125 89.289063 196.949219 88.34375 196.46875 C 87.40625 195.980469 86.667969 195.09375 86.125 193.8125 C 85.574219 192.511719 85.460938 191.355469 85.78125 190.34375 C 86.09375 189.335938 86.804688 188.59375 87.90625 188.125 C 88.332031 187.949219 88.765625 187.84375 89.203125 187.8125 C 89.640625 187.773438 90.082031 187.804688 90.53125 187.90625 Z M 98.144531 189.179688 L 99.675781 192.835938 L 98.769531 193.210938 L 97.253906 189.601563 C 97.003906 189.019531 96.714844 188.628906 96.394531 188.429688 C 96.082031 188.234375 95.730469 188.21875 95.347656 188.382813 C 94.855469 188.59375 94.539063 188.925781 94.394531 189.382813 C 94.257813 189.84375 94.316406 190.375 94.566406 190.976563 L 96.003906 194.382813 L 95.113281 194.757813 L 91.582031 186.351563 L 92.472656 185.976563 L 93.847656 189.273438 C 93.910156 188.816406 94.050781 188.4375 94.269531 188.132813 C 94.488281 187.832031 94.789063 187.601563 95.175781 187.445313 C 95.789063 187.1875 96.347656 187.203125 96.847656 187.492188 C 97.355469 187.785156 97.789063 188.347656 98.144531 189.179688 Z M 102.640625 188.011719 C 101.921875 188.316406 101.460938 188.617188 101.265625 188.917969 C 101.066406 189.222656 101.0625 189.589844 101.25 190.027344 C 101.394531 190.382813 101.613281 190.621094 101.90625 190.746094 C 102.195313 190.863281 102.53125 190.839844 102.90625 190.683594 C 103.394531 190.476563 103.707031 190.117188 103.84375 189.605469 C 103.976563 189.085938 103.910156 188.496094 103.640625 187.839844 L 103.546875 187.636719 Z M 104.265625 186.839844 L 105.71875 190.292969 L 104.828125 190.667969 L 104.4375 189.746094 C 104.382813 190.195313 104.238281 190.574219 104 190.886719 C 103.769531 191.191406 103.4375 191.433594 103 191.621094 C 102.4375 191.851563 101.921875 191.863281 101.453125 191.652344 C 100.984375 191.445313 100.628906 191.054688 100.390625 190.480469 C 100.101563 189.792969 100.085938 189.195313 100.34375 188.683594 C 100.601563 188.164063 101.140625 187.730469 101.953125 187.386719 L 103.21875 186.855469 L 103.1875 186.746094 C 102.988281 186.289063 102.695313 185.992188 102.3125 185.855469 C 101.9375 185.722656 101.503906 185.757813 101.015625 185.964844 C 100.710938 186.089844 100.433594 186.261719 100.171875 186.480469 C 99.914063 186.691406 99.679688 186.929688 99.46875 187.199219 L 99.09375 186.277344 C 99.355469 186.007813 99.625 185.773438 99.90625 185.574219 C 100.179688 185.378906 100.464844 185.214844 100.765625 185.089844 C 101.546875 184.757813 102.226563 184.738281 102.8125 185.027344 C 103.394531 185.308594 103.878906 185.914063 104.265625 186.839844 Z M 110.488281 183.804688 L 112.128906 187.414063 L 111.238281 187.820313 L 109.613281 184.242188 C 109.363281 183.679688 109.070313 183.304688 108.738281 183.117188 C 108.402344 182.921875 108.042969 182.910156 107.660156 183.085938 C 107.179688 183.304688 106.878906 183.648438 106.753906 184.117188 C 106.640625 184.578125 106.714844 185.097656 106.972656 185.679688 L 108.503906 189.054688 L 107.613281 189.460938 L 104.910156 183.476563 L 105.800781 183.070313 L 106.207031 184.007813 C 106.261719 183.550781 106.390625 183.171875 106.597656 182.867188 C 106.792969 182.554688 107.085938 182.316406 107.472656 182.148438 C 108.074219 181.867188 108.632813 181.867188 109.144531 182.148438 C 109.664063 182.421875 110.113281 182.972656 110.488281 183.804688 Z M 116.707031 180.933594 L 118.378906 184.527344 L 117.488281 184.949219 L 115.847656 181.386719 C 115.574219 180.824219 115.273438 180.449219 114.941406 180.261719 C 114.617188 180.066406 114.257813 180.058594 113.863281 180.246094 C 113.382813 180.464844 113.085938 180.808594 112.972656 181.277344 C 112.847656 181.738281 112.921875 182.257813 113.191406 182.839844 L 114.753906 186.199219 L 113.878906 186.621094 L 111.113281 180.667969 L 111.988281 180.246094 L 112.425781 181.167969 C 112.46875 180.710938 112.59375 180.332031 112.800781 180.027344 C 113.007813 179.726563 113.300781 179.488281 113.675781 179.308594 C 114.277344 179.027344 114.839844 179.023438 115.363281 179.292969 C 115.882813 179.566406 116.332031 180.113281 116.707031 180.933594 Z M 123.230469 178.371094 L 123.433594 178.839844 L 119.371094 180.730469 C 119.734375 181.386719 120.160156 181.816406 120.652344 182.011719 C 121.140625 182.210938 121.675781 182.175781 122.261719 181.902344 C 122.605469 181.746094 122.910156 181.554688 123.183594 181.324219 C 123.453125 181.085938 123.699219 180.800781 123.917969 180.464844 L 124.355469 181.402344 C 124.105469 181.695313 123.832031 181.960938 123.542969 182.199219 C 123.25 182.429688 122.933594 182.621094 122.589844 182.777344 C 121.746094 183.164063 120.9375 183.199219 120.167969 182.886719 C 119.40625 182.566406 118.808594 181.929688 118.371094 180.980469 C 117.925781 180.011719 117.804688 179.132813 118.011719 178.339844 C 118.222656 177.550781 118.730469 176.964844 119.542969 176.589844 C 120.261719 176.257813 120.949219 176.253906 121.605469 176.574219 C 122.269531 176.886719 122.8125 177.488281 123.230469 178.371094 Z M 122.199219 178.496094 C 121.949219 177.964844 121.613281 177.601563 121.199219 177.402344 C 120.792969 177.207031 120.371094 177.207031 119.933594 177.402344 C 119.441406 177.632813 119.128906 177.972656 118.980469 178.417969 C 118.824219 178.867188 118.851563 179.382813 119.058594 179.964844 Z M 122.316406 172.65625 L 123.191406 172.25 L 127.019531 180.53125 L 126.144531 180.9375 Z M 130.132813 170.9375 L 132.398438 177.359375 L 133.617188 176.9375 C 134.648438 176.574219 135.308594 176.054688 135.601563 175.375 C 135.890625 174.6875 135.839844 173.789063 135.445313 172.671875 C 135.058594 171.570313 134.539063 170.84375 133.882813 170.5 C 133.226563 170.148438 132.382813 170.152344 131.351563 170.515625 Z M 128.820313 170.375 L 130.882813 169.640625 C 132.320313 169.140625 133.492188 169.109375 134.398438 169.546875 C 135.304688 169.976563 136 170.898438 136.492188 172.3125 C 136.992188 173.742188 137.023438 174.90625 136.585938 175.8125 C 136.148438 176.710938 135.210938 177.40625 133.773438 177.90625 L 131.710938 178.640625 Z M 140.898438 169.519531 C 140.78125 169.488281 140.65625 169.484375 140.523438 169.503906 C 140.386719 169.515625 140.246094 169.546875 140.101563 169.597656 C 139.589844 169.777344 139.257813 170.097656 139.101563 170.566406 C 138.953125 171.035156 139.007813 171.625 139.257813 172.332031 L 140.398438 175.597656 L 139.476563 175.910156 L 137.304688 169.722656 L 138.226563 169.410156 L 138.570313 170.363281 C 138.632813 169.917969 138.78125 169.546875 139.023438 169.253906 C 139.273438 168.964844 139.617188 168.746094 140.054688 168.597656 C 140.117188 168.566406 140.1875 168.546875 140.273438 168.535156 C 140.367188 168.515625 140.453125 168.5 140.539063 168.488281 Z M 141.523438 168.253906 L 142.445313 167.925781 L 144.617188 174.113281 L 143.695313 174.441406 Z M 140.679688 165.832031 L 141.601563 165.503906 L 142.054688 166.800781 L 141.132813 167.128906 Z M 143.714844 167.484375 L 144.667969 167.15625 L 148.246094 171.734375 L 148.167969 165.921875 L 149.136719 165.578125 L 149.214844 172.5 L 147.964844 172.9375 Z M 156.167969 166.308594 L 156.339844 166.792969 L 152.121094 168.277344 C 152.410156 168.976563 152.785156 169.449219 153.246094 169.699219 C 153.714844 169.941406 154.253906 169.949219 154.871094 169.730469 C 155.222656 169.605469 155.546875 169.441406 155.839844 169.230469 C 156.140625 169.023438 156.417969 168.761719 156.667969 168.449219 L 157.011719 169.417969 C 156.738281 169.679688 156.441406 169.914063 156.121094 170.121094 C 155.808594 170.332031 155.472656 170.496094 155.121094 170.621094 C 154.234375 170.925781 153.425781 170.882813 152.699219 170.496094 C 151.980469 170.101563 151.449219 169.414063 151.105469 168.433594 C 150.753906 167.414063 150.714844 166.523438 150.996094 165.761719 C 151.277344 164.992188 151.839844 164.460938 152.683594 164.167969 C 153.433594 163.910156 154.121094 163.972656 154.746094 164.355469 C 155.371094 164.730469 155.84375 165.382813 156.167969 166.308594 Z M 155.136719 166.324219 C 154.949219 165.773438 154.65625 165.382813 154.261719 165.152344 C 153.863281 164.914063 153.4375 164.871094 152.980469 165.027344 C 152.46875 165.207031 152.121094 165.511719 151.933594 165.949219 C 151.746094 166.378906 151.722656 166.886719 151.871094 167.480469 Z M 155.136719 166.324219 "/>
<path style=" stroke:none;fill-rule:evenodd;fill:rgb(20%,20%,20%);fill-opacity:1;" d="M 53.597656 207.636719 L 54.832031 210.605469 L 56.394531 209.949219 C 56.925781 209.730469 57.269531 209.445313 57.425781 209.089844 C 57.582031 208.738281 57.554688 208.308594 57.347656 207.808594 C 57.128906 207.300781 56.839844 206.980469 56.488281 206.855469 C 56.132813 206.722656 55.691406 206.761719 55.160156 206.980469 Z M 52.222656 204.308594 L 53.238281 206.746094 L 54.691406 206.136719 C 55.167969 205.941406 55.480469 205.691406 55.628906 205.386719 C 55.785156 205.085938 55.773438 204.738281 55.597656 204.339844 C 55.429688 203.925781 55.183594 203.664063 54.863281 203.558594 C 54.550781 203.457031 54.152344 203.503906 53.675781 203.699219 Z M 50.863281 203.824219 L 53.363281 202.777344 C 54.113281 202.464844 54.761719 202.398438 55.316406 202.574219 C 55.867188 202.753906 56.273438 203.160156 56.535156 203.792969 C 56.742188 204.292969 56.800781 204.738281 56.707031 205.121094 C 56.621094 205.496094 56.398438 205.804688 56.035156 206.042969 C 56.574219 205.949219 57.050781 206.035156 57.457031 206.292969 C 57.871094 206.542969 58.195313 206.945313 58.425781 207.496094 C 58.726563 208.214844 58.738281 208.867188 58.457031 209.449219 C 58.175781 210.023438 57.632813 210.476563 56.832031 210.808594 L 54.222656 211.902344 Z M 64.324219 203.855469 L 64.527344 204.339844 L 60.402344 206.042969 C 60.722656 206.722656 61.125 207.167969 61.605469 207.386719 C 62.09375 207.605469 62.636719 207.597656 63.230469 207.355469 C 63.574219 207.210938 63.886719 207.023438 64.167969 206.792969 C 64.449219 206.566406 64.707031 206.289063 64.949219 205.964844 L 65.339844 206.917969 C 65.089844 207.191406 64.808594 207.441406 64.496094 207.667969 C 64.183594 207.886719 63.855469 208.070313 63.511719 208.214844 C 62.644531 208.582031 61.839844 208.585938 61.089844 208.230469 C 60.347656 207.878906 59.785156 207.222656 59.386719 206.261719 C 58.972656 205.273438 58.882813 204.386719 59.121094 203.605469 C 59.363281 202.824219 59.898438 202.261719 60.730469 201.917969 C 61.457031 201.617188 62.144531 201.644531 62.792969 201.996094 C 63.4375 202.339844 63.949219 202.960938 64.324219 203.855469 Z M 63.292969 203.933594 C 63.0625 203.394531 62.746094 203.019531 62.339844 202.808594 C 61.933594 202.589844 61.511719 202.574219 61.074219 202.761719 C 60.574219 202.972656 60.238281 203.292969 60.074219 203.730469 C 59.917969 204.167969 59.929688 204.683594 60.105469 205.277344 Z M 68.347656 202.4375 C 67.628906 202.742188 67.167969 203.042969 66.972656 203.34375 C 66.773438 203.648438 66.769531 204.015625 66.957031 204.453125 C 67.101563 204.808594 67.320313 205.046875 67.613281 205.171875 C 67.914063 205.289063 68.246094 205.265625 68.613281 205.109375 C 69.101563 204.914063 69.414063 204.554688 69.550781 204.03125 C 69.683594 203.511719 69.617188 202.921875 69.347656 202.265625 L 69.253906 202.0625 Z M 69.972656 201.265625 L 71.425781 204.71875 L 70.535156 205.09375 L 70.144531 204.171875 C 70.089844 204.621094 69.945313 205 69.707031 205.3125 C 69.476563 205.617188 69.144531 205.859375 68.707031 206.046875 C 68.144531 206.277344 67.628906 206.289063 67.160156 206.078125 C 66.691406 205.871094 66.335938 205.480469 66.097656 204.90625 C 65.808594 204.21875 65.792969 203.621094 66.050781 203.109375 C 66.308594 202.589844 66.847656 202.15625 67.660156 201.8125 L 68.925781 201.28125 L 68.894531 201.171875 C 68.695313 200.714844 68.402344 200.417969 68.019531 200.28125 C 67.644531 200.148438 67.210938 200.183594 66.722656 200.390625 C 66.417969 200.515625 66.140625 200.6875 65.878906 200.90625 C 65.621094 201.117188 65.386719 201.355469 65.175781 201.625 L 64.800781 200.703125 C 65.0625 200.433594 65.332031 200.199219 65.613281 200 C 65.886719 199.804688 66.171875 199.640625 66.472656 199.515625 C 67.253906 199.183594 67.933594 199.164063 68.519531 199.453125 C 69.101563 199.734375 69.585938 200.339844 69.972656 201.265625 Z M 74.722656 196.484375 L 75.128906 197.421875 C 74.804688 197.359375 74.496094 197.34375 74.207031 197.375 C 73.925781 197.40625 73.652344 197.476563 73.394531 197.578125 C 72.808594 197.828125 72.445313 198.226563 72.300781 198.765625 C 72.15625 199.308594 72.238281 199.949219 72.550781 200.6875 C 72.851563 201.429688 73.246094 201.9375 73.738281 202.21875 C 74.226563 202.492188 74.761719 202.5 75.347656 202.25 C 75.605469 202.148438 75.847656 202 76.066406 201.8125 C 76.292969 201.625 76.503906 201.402344 76.691406 201.140625 L 77.082031 202.0625 C 76.882813 202.292969 76.660156 202.5 76.410156 202.6875 C 76.167969 202.867188 75.898438 203.015625 75.597656 203.140625 C 74.785156 203.484375 74.011719 203.476563 73.285156 203.109375 C 72.566406 202.734375 72.003906 202.058594 71.597656 201.078125 C 71.183594 200.101563 71.097656 199.230469 71.347656 198.46875 C 71.597656 197.699219 72.144531 197.136719 72.988281 196.78125 C 73.269531 196.65625 73.554688 196.574219 73.847656 196.53125 C 74.136719 196.480469 74.429688 196.464844 74.722656 196.484375 Z M 81.726563 196.089844 L 83.257813 199.746094 L 82.351563 200.121094 L 80.835938 196.511719 C 80.585938 195.929688 80.296875 195.539063 79.976563 195.339844 C 79.664063 195.144531 79.3125 195.128906 78.929688 195.292969 C 78.4375 195.503906 78.121094 195.835938 77.976563 196.292969 C 77.839844 196.753906 77.898438 197.285156 78.148438 197.886719 L 79.585938 201.292969 L 78.695313 201.667969 L 75.164063 193.261719 L 76.054688 192.886719 L 77.429688 196.183594 C 77.492188 195.726563 77.632813 195.347656 77.851563 195.042969 C 78.070313 194.742188 78.371094 194.511719 78.757813 194.355469 C 79.371094 194.097656 79.929688 194.113281 80.429688 194.402344 C 80.9375 194.695313 81.371094 195.257813 81.726563 196.089844 Z M 90.53125 187.90625 L 91.015625 189.0625 C 90.546875 188.867188 90.085938 188.761719 89.640625 188.75 C 89.191406 188.742188 88.753906 188.824219 88.328125 189 C 87.503906 189.34375 86.996094 189.898438 86.796875 190.65625 C 86.589844 191.40625 86.710938 192.3125 87.15625 193.375 C 87.59375 194.429688 88.148438 195.148438 88.828125 195.53125 C 89.515625 195.90625 90.269531 195.921875 91.09375 195.578125 C 91.519531 195.402344 91.882813 195.152344 92.1875 194.828125 C 92.488281 194.496094 92.734375 194.089844 92.921875 193.609375 L 93.390625 194.734375 C 93.171875 195.140625 92.890625 195.492188 92.546875 195.78125 C 92.210938 196.074219 91.835938 196.308594 91.421875 196.484375 C 90.316406 196.953125 89.289063 196.949219 88.34375 196.46875 C 87.40625 195.980469 86.667969 195.09375 86.125 193.8125 C 85.574219 192.511719 85.460938 191.355469 85.78125 190.34375 C 86.09375 189.335938 86.804688 188.59375 87.90625 188.125 C 88.332031 187.949219 88.765625 187.84375 89.203125 187.8125 C 89.640625 187.773438 90.082031 187.804688 90.53125 187.90625 Z M 98.144531 189.179688 L 99.675781 192.835938 L 98.769531 193.210938 L 97.253906 189.601563 C 97.003906 189.019531 96.714844 188.628906 96.394531 188.429688 C 96.082031 188.234375 95.730469 188.21875 95.347656 188.382813 C 94.855469 188.59375 94.539063 188.925781 94.394531 189.382813 C 94.257813 189.84375 94.316406 190.375 94.566406 190.976563 L 96.003906 194.382813 L 95.113281 194.757813 L 91.582031 186.351563 L 92.472656 185.976563 L 93.847656 189.273438 C 93.910156 188.816406 94.050781 188.4375 94.269531 188.132813 C 94.488281 187.832031 94.789063 187.601563 95.175781 187.445313 C 95.789063 187.1875 96.347656 187.203125 96.847656 187.492188 C 97.355469 187.785156 97.789063 188.347656 98.144531 189.179688 Z M 102.640625 188.011719 C 101.921875 188.316406 101.460938 188.617188 101.265625 188.917969 C 101.066406 189.222656 101.0625 189.589844 101.25 190.027344 C 101.394531 190.382813 101.613281 190.621094 101.90625 190.746094 C 102.195313 190.863281 102.53125 190.839844 102.90625 190.683594 C 103.394531 190.476563 103.707031 190.117188 103.84375 189.605469 C 103.976563 189.085938 103.910156 188.496094 103.640625 187.839844 L 103.546875 187.636719 Z M 104.265625 186.839844 L 105.71875 190.292969 L 104.828125 190.667969 L 104.4375 189.746094 C 104.382813 190.195313 104.238281 190.574219 104 190.886719 C 103.769531 191.191406 103.4375 191.433594 103 191.621094 C 102.4375 191.851563 101.921875 191.863281 101.453125 191.652344 C 100.984375 191.445313 100.628906 191.054688 100.390625 190.480469 C 100.101563 189.792969 100.085938 189.195313 100.34375 188.683594 C 100.601563 188.164063 101.140625 187.730469 101.953125 187.386719 L 103.21875 186.855469 L 103.1875 186.746094 C 102.988281 186.289063 102.695313 185.992188 102.3125 185.855469 C 101.9375 185.722656 101.503906 185.757813 101.015625 185.964844 C 100.710938 186.089844 100.433594 186.261719 100.171875 186.480469 C 99.914063 186.691406 99.679688 186.929688 99.46875 187.199219 L 99.09375 186.277344 C 99.355469 186.007813 99.625 185.773438 99.90625 185.574219 C 100.179688 185.378906 100.464844 185.214844 100.765625 185.089844 C 101.546875 184.757813 102.226563 184.738281 102.8125 185.027344 C 103.394531 185.308594 103.878906 185.914063 104.265625 186.839844 Z M 110.488281 183.804688 L 112.128906 187.414063 L 111.238281 187.820313 L 109.613281 184.242188 C 109.363281 183.679688 109.070313 183.304688 108.738281 183.117188 C 108.402344 182.921875 108.042969 182.910156 107.660156 183.085938 C 107.179688 183.304688 106.878906 183.648438 106.753906 184.117188 C 106.640625 184.578125 106.714844 185.097656 106.972656 185.679688 L 108.503906 189.054688 L 107.613281 189.460938 L 104.910156 183.476563 L 105.800781 183.070313 L 106.207031 184.007813 C 106.261719 183.550781 106.390625 183.171875 106.597656 182.867188 C 106.792969 182.554688 107.085938 182.316406 107.472656 182.148438 C 108.074219 181.867188 108.632813 181.867188 109.144531 182.148438 C 109.664063 182.421875 110.113281 182.972656 110.488281 183.804688 Z M 116.707031 180.933594 L 118.378906 184.527344 L 117.488281 184.949219 L 115.847656 181.386719 C 115.574219 180.824219 115.273438 180.449219 114.941406 180.261719 C 114.617188 180.066406 114.257813 180.058594 113.863281 180.246094 C 113.382813 180.464844 113.085938 180.808594 112.972656 181.277344 C 112.847656 181.738281 112.921875 182.257813 113.191406 182.839844 L 114.753906 186.199219 L 113.878906 186.621094 L 111.113281 180.667969 L 111.988281 180.246094 L 112.425781 181.167969 C 112.46875 180.710938 112.59375 180.332031 112.800781 180.027344 C 113.007813 179.726563 113.300781 179.488281 113.675781 179.308594 C 114.277344 179.027344 114.839844 179.023438 115.363281 179.292969 C 115.882813 179.566406 116.332031 180.113281 116.707031 180.933594 Z M 123.230469 178.371094 L 123.433594 178.839844 L 119.371094 180.730469 C 119.734375 181.386719 120.160156 181.816406 120.652344 182.011719 C 121.140625 182.210938 121.675781 182.175781 122.261719 181.902344 C 122.605469 181.746094 122.910156 181.554688 123.183594 181.324219 C 123.453125 181.085938 123.699219 180.800781 123.917969 180.464844 L 124.355469 181.402344 C 124.105469 181.695313 123.832031 181.960938 123.542969 182.199219 C 123.25 182.429688 122.933594 182.621094 122.589844 182.777344 C 121.746094 183.164063 120.9375 183.199219 120.167969 182.886719 C 119.40625 182.566406 118.808594 181.929688 118.371094 180.980469 C 117.925781 180.011719 117.804688 179.132813 118.011719 178.339844 C 118.222656 177.550781 118.730469 176.964844 119.542969 176.589844 C 120.261719 176.257813 120.949219 176.253906 121.605469 176.574219 C 122.269531 176.886719 122.8125 177.488281 123.230469 178.371094 Z M 122.199219 178.496094 C 121.949219 177.964844 121.613281 177.601563 121.199219 177.402344 C 120.792969 177.207031 120.371094 177.207031 119.933594 177.402344 C 119.441406 177.632813 119.128906 177.972656 118.980469 178.417969 C 118.824219 178.867188 118.851563 179.382813 119.058594 179.964844 Z M 122.316406 172.65625 L 123.191406 172.25 L 127.019531 180.53125 L 126.144531 180.9375 Z M 130.132813 170.9375 L 132.398438 177.359375 L 133.617188 176.9375 C 134.648438 176.574219 135.308594 176.054688 135.601563 175.375 C 135.890625 174.6875 135.839844 173.789063 135.445313 172.671875 C 135.058594 171.570313 134.539063 170.84375 133.882813 170.5 C 133.226563 170.148438 132.382813 170.152344 131.351563 170.515625 Z M 128.820313 170.375 L 130.882813 169.640625 C 132.320313 169.140625 133.492188 169.109375 134.398438 169.546875 C 135.304688 169.976563 136 170.898438 136.492188 172.3125 C 136.992188 173.742188 137.023438 174.90625 136.585938 175.8125 C 136.148438 176.710938 135.210938 177.40625 133.773438 177.90625 L 131.710938 178.640625 Z M 140.898438 169.519531 C 140.78125 169.488281 140.65625 169.484375 140.523438 169.503906 C 140.386719 169.515625 140.246094 169.546875 140.101563 169.597656 C 139.589844 169.777344 139.257813 170.097656 139.101563 170.566406 C 138.953125 171.035156 139.007813 171.625 139.257813 172.332031 L 140.398438 175.597656 L 139.476563 175.910156 L 137.304688 169.722656 L 138.226563 169.410156 L 138.570313 170.363281 C 138.632813 169.917969 138.78125 169.546875 139.023438 169.253906 C 139.273438 168.964844 139.617188 168.746094 140.054688 168.597656 C 140.117188 168.566406 140.1875 168.546875 140.273438 168.535156 C 140.367188 168.515625 140.453125 168.5 140.539063 168.488281 Z M 141.523438 168.253906 L 142.445313 167.925781 L 144.617188 174.113281 L 143.695313 174.441406 Z M 140.679688 165.832031 L 141.601563 165.503906 L 142.054688 166.800781 L 141.132813 167.128906 Z M 143.714844 167.484375 L 144.667969 167.15625 L 148.246094 171.734375 L 148.167969 165.921875 L 149.136719 165.578125 L 149.214844 172.5 L 147.964844 172.9375 Z M 156.167969 166.308594 L 156.339844 166.792969 L 152.121094 168.277344 C 152.410156 168.976563 152.785156 169.449219 153.246094 169.699219 C 153.714844 169.941406 154.253906 169.949219 154.871094 169.730469 C 155.222656 169.605469 155.546875 169.441406 155.839844 169.230469 C 156.140625 169.023438 156.417969 168.761719 156.667969 168.449219 L 157.011719 169.417969 C 156.738281 169.679688 156.441406 169.914063 156.121094 170.121094 C 155.808594 170.332031 155.472656 170.496094 155.121094 170.621094 C 154.234375 170.925781 153.425781 170.882813 152.699219 170.496094 C 151.980469 170.101563 151.449219 169.414063 151.105469 168.433594 C 150.753906 167.414063 150.714844 166.523438 150.996094 165.761719 C 151.277344 164.992188 151.839844 164.460938 152.683594 164.167969 C 153.433594 163.910156 154.121094 163.972656 154.746094 164.355469 C 155.371094 164.730469 155.84375 165.382813 156.167969 166.308594 Z M 155.136719 166.324219 C 154.949219 165.773438 154.65625 165.382813 154.261719 165.152344 C 153.863281 164.914063 153.4375 164.871094 152.980469 165.027344 C 152.46875 165.207031 152.121094 165.511719 151.933594 165.949219 C 151.746094 166.378906 151.722656 166.886719 151.871094 167.480469 Z M 155.136719 166.324219 "/>
</g>
</svg>

