<?xml version="1.0" encoding="UTF-8"?>
<svg xmlns="http://www.w3.org/2000/svg" xmlns:xlink="http://www.w3.org/1999/xlink" width="256pt" height="256pt" viewBox="0 0 256 256" version="1.1">
<g id="surface2">
<rect x="0" y="0" width="256" height="256" style="fill:rgb(94.901961%,93.72549%,91.372549%);fill-opacity:1;stroke:none;"/>
<path style="fill:none;stroke-width:8;stroke-linecap:round;stroke-linejoin:round;stroke:rgb(75.686275%,70.980392%,61.568627%);stroke-opacity:1;stroke-miterlimit:10;" d="M 264 53.355469 L 254.417969 53.414063 L 249.433594 52.757813 L 242.699219 52.628906 L 237.082031 53.152344 L 225.476563 53.152344 L 222.773438 52.367188 L 220.5625 51.351563 L 219.046875 49.972656 L 214.828125 44.664063 L 211.265625 40.171875 L 202.269531 32.46875 L 196.5625 26.238281 L 189.289063 17.617188 L 186.332031 11.878906 L 185.515625 10.832031 L 182.671875 8.960938 L 180.179688 6.734375 L 171.976563 -3.625 L 169.296875 -6.183594 L 165.097656 -9 "/>
<path style="fill:none;stroke-width:6;stroke-linecap:round;stroke-linejoin:round;stroke:rgb(100%,100%,100%);stroke-opacity:1;stroke-miterlimit:10;" d="M 264 53.355469 L 254.417969 53.414063 L 249.433594 52.757813 L 242.699219 52.628906 L 237.082031 53.152344 L 225.476563 53.152344 L 222.773438 52.367188 L 220.5625 51.351563 L 219.046875 49.972656 L 214.828125 44.664063 L 211.265625 40.171875 L 202.269531 32.46875 L 196.5625 26.238281 L 189.289063 17.617188 L 186.332031 11.878906 L 185.515625 10.832031 L 182.671875 8.960938 L 180.179688 6.734375 L 171.976563 -3.625 L 169.296875 -6.183594 L 165.097656 -9 "/>
</g>
</svg>

