<?xml version="1.0" encoding="UTF-8"?>
<svg xmlns="http://www.w3.org/2000/svg" xmlns:xlink="http://www.w3.org/1999/xlink" width="256pt" height="256pt" viewBox="0 0 256 256" version="1.1">
<g id="surface2">
<rect x="0" y="0" width="256" height="256" style="fill:rgb(60%,70.196078%,80%);fill-opacity:1;stroke:none;"/>
<path style="fill:none;stroke-width:1;stroke-linecap:round;stroke-linejoin:round;stroke:rgb(70.196078%,77.647059%,83.137255%);stroke-opacity:1;stroke-miterlimit:10;" d="M -4 259 L 259 259 L 259 -4 L -4 -4 L -4 259 "/>
<path style="fill:none;stroke-width:6;stroke-linecap:round;stroke-linejoin:round;stroke:rgb(60%,70.196078%,80%);stroke-opacity:1;stroke-miterlimit:10;" d="M 140.324219 -7 L 123.898438 262 "/>
<path style="fill:none;stroke-width:3;stroke-linecap:round;stroke-linejoin:round;stroke:rgb(100%,100%,100%);stroke-opacity:1;stroke-miterlimit:10;" d="M 125.167969 165.160156 L 125.230469 164.019531 L 129.121094 164.253906 L 129.371094 160.066406 L 125.480469 159.832031 L 125.558594 158.675781 L 135.027344 159.253906 L 134.949219 160.410156 L 130.449219 160.128906 L 130.199219 164.316406 L 134.699219 164.597656 L 134.636719 165.738281 Z M 132.34375 156.941406 L 128.0625 156.675781 L 128.125 155.628906 L 132.375 155.894531 C 133.042969 155.9375 133.554688 155.855469 133.90625 155.644531 C 134.261719 155.425781 134.449219 155.082031 134.46875 154.613281 C 134.511719 154.050781 134.34375 153.59375 133.96875 153.238281 C 133.585938 152.886719 133.042969 152.6875 132.34375 152.644531 L 128.328125 152.394531 L 128.390625 151.332031 L 135.484375 151.769531 L 135.421875 152.832031 L 134.328125 152.769531 C 134.746094 153.042969 135.046875 153.355469 135.234375 153.707031 C 135.421875 154.050781 135.503906 154.449219 135.484375 154.894531 C 135.429688 155.625 135.140625 156.167969 134.609375 156.519531 C 134.078125 156.863281 133.324219 157.003906 132.34375 156.941406 Z M 128.046875 154.035156 Z M 129.859375 145.035156 L 126.015625 144.800781 L 126.078125 143.753906 L 135.9375 144.363281 L 135.875 145.410156 L 134.8125 145.347656 C 135.210938 145.589844 135.5 145.886719 135.6875 146.238281 C 135.875 146.582031 135.957031 146.988281 135.9375 147.457031 C 135.882813 148.238281 135.5 148.855469 134.78125 149.300781 C 134.0625 149.738281 133.148438 149.921875 132.03125 149.847656 C 130.929688 149.785156 130.046875 149.496094 129.390625 148.972656 C 128.734375 148.441406 128.433594 147.785156 128.484375 147.003906 C 128.507813 146.535156 128.632813 146.140625 128.859375 145.816406 C 129.078125 145.496094 129.414063 145.234375 129.859375 145.035156 Z M 132.109375 148.753906 C 132.964844 148.808594 133.648438 148.691406 134.15625 148.410156 C 134.65625 148.121094 134.929688 147.699219 134.96875 147.144531 C 135 146.59375 134.78125 146.144531 134.3125 145.800781 C 133.84375 145.449219 133.183594 145.246094 132.328125 145.191406 C 131.476563 145.140625 130.796875 145.261719 130.296875 145.550781 C 129.789063 145.832031 129.515625 146.25 129.484375 146.800781 C 129.445313 147.355469 129.65625 147.808594 130.125 148.160156 C 130.59375 148.503906 131.257813 148.703125 132.109375 148.753906 Z M 129.421875 137.703125 L 130.53125 137.765625 C 130.34375 138.058594 130.203125 138.359375 130.109375 138.671875 C 130.007813 138.976563 129.945313 139.296875 129.921875 139.640625 C 129.890625 140.164063 129.960938 140.5625 130.125 140.84375 C 130.28125 141.125 130.539063 141.277344 130.890625 141.296875 C 131.164063 141.308594 131.382813 141.226563 131.546875 141.046875 C 131.703125 140.859375 131.867188 140.492188 132.03125 139.9375 L 132.140625 139.59375 C 132.371094 138.867188 132.65625 138.355469 133 138.0625 C 133.34375 137.773438 133.804688 137.640625 134.375 137.671875 C 135.042969 137.714844 135.554688 137.980469 135.90625 138.46875 C 136.257813 138.960938 136.410156 139.617188 136.359375 140.4375 C 136.335938 140.773438 136.28125 141.125 136.1875 141.5 C 136.09375 141.867188 135.953125 142.246094 135.765625 142.640625 L 134.5625 142.5625 C 134.824219 142.199219 135.023438 141.835938 135.15625 141.46875 C 135.28125 141.09375 135.355469 140.71875 135.375 140.34375 C 135.40625 139.855469 135.339844 139.476563 135.171875 139.203125 C 134.996094 138.933594 134.734375 138.789063 134.390625 138.765625 C 134.078125 138.746094 133.835938 138.824219 133.65625 139 C 133.46875 139.179688 133.277344 139.585938 133.078125 140.21875 L 132.96875 140.578125 C 132.773438 141.226563 132.511719 141.683594 132.1875 141.953125 C 131.867188 142.226563 131.429688 142.34375 130.875 142.3125 C 130.210938 142.273438 129.710938 142.027344 129.375 141.578125 C 129.03125 141.121094 128.882813 140.5 128.921875 139.71875 C 128.953125 139.335938 129.011719 138.976563 129.09375 138.640625 C 129.179688 138.296875 129.289063 137.984375 129.421875 137.703125 Z M 130.308594 133.246094 C 130.277344 133.808594 130.496094 134.273438 130.964844 134.636719 C 131.433594 134.992188 132.089844 135.195313 132.933594 135.246094 C 133.789063 135.300781 134.472656 135.179688 134.980469 134.886719 C 135.480469 134.585938 135.746094 134.152344 135.777344 133.589844 C 135.808594 133.039063 135.589844 132.585938 135.121094 132.230469 C 134.652344 131.867188 133.996094 131.660156 133.152344 131.605469 C 132.320313 131.554688 131.648438 131.679688 131.136719 131.980469 C 130.617188 132.273438 130.339844 132.695313 130.308594 133.246094 Z M 129.324219 133.199219 C 129.378906 132.292969 129.753906 131.601563 130.449219 131.121094 C 131.136719 130.632813 132.058594 130.425781 133.214844 130.496094 C 134.382813 130.570313 135.285156 130.886719 135.917969 131.449219 C 136.542969 132.011719 136.828125 132.746094 136.777344 133.652344 C 136.722656 134.570313 136.351563 135.269531 135.652344 135.746094 C 134.957031 136.226563 134.023438 136.429688 132.855469 136.355469 C 131.699219 136.285156 130.808594 135.972656 130.183594 135.417969 C 129.558594 134.855469 129.273438 134.117188 129.324219 133.199219 Z M 132.917969 123.398438 L 137.199219 123.664063 L 137.136719 124.710938 L 132.902344 124.445313 C 132.226563 124.40625 131.714844 124.5 131.371094 124.726563 C 131.019531 124.945313 130.824219 125.285156 130.792969 125.742188 C 130.761719 126.304688 130.941406 126.765625 131.324219 127.117188 C 131.699219 127.460938 132.230469 127.65625 132.917969 127.695313 L 136.933594 127.945313 L 136.871094 129.007813 L 129.777344 128.570313 L 129.839844 127.507813 L 130.949219 127.585938 C 130.542969 127.304688 130.246094 126.992188 130.058594 126.648438 C 129.863281 126.296875 129.773438 125.894531 129.792969 125.445313 C 129.847656 124.726563 130.136719 124.195313 130.667969 123.851563 C 131.191406 123.5 131.941406 123.347656 132.917969 123.398438 Z M 133.378906 113.515625 C 133.496094 113.265625 133.707031 113.039063 134.019531 112.828125 C 134.324219 112.609375 134.75 112.398438 135.300781 112.1875 L 137.957031 111.171875 L 137.894531 112.421875 L 135.378906 113.359375 C 134.734375 113.601563 134.300781 113.84375 134.082031 114.09375 C 133.863281 114.34375 133.738281 114.695313 133.707031 115.140625 L 133.628906 116.40625 L 137.628906 116.65625 L 137.566406 117.796875 L 128.097656 117.21875 L 128.253906 114.625 C 128.308594 113.65625 128.578125 112.949219 129.066406 112.5 C 129.546875 112.042969 130.246094 111.84375 131.160156 111.90625 C 131.753906 111.9375 132.246094 112.09375 132.628906 112.375 C 133.003906 112.648438 133.253906 113.027344 133.378906 113.515625 Z M 129.222656 116.140625 L 132.582031 116.34375 L 132.675781 114.890625 C 132.707031 114.339844 132.589844 113.917969 132.316406 113.625 C 132.046875 113.324219 131.636719 113.15625 131.082031 113.125 C 130.53125 113.085938 130.109375 113.199219 129.816406 113.46875 C 129.515625 113.730469 129.347656 114.136719 129.316406 114.6875 Z M 130.949219 109.296875 L 131.011719 108.25 L 138.105469 108.6875 L 138.042969 109.734375 Z M 128.183594 109.125 L 128.246094 108.078125 L 129.730469 108.171875 L 129.667969 109.21875 Z M 131.101563 106.816406 L 131.179688 105.707031 L 137.242188 104.082031 L 131.414063 101.722656 L 131.492188 100.597656 L 138.429688 103.425781 L 138.351563 104.847656 Z M 135.164063 93.894531 L 135.726563 93.925781 L 135.429688 98.753906 C 136.242188 98.753906 136.875 98.574219 137.320313 98.207031 C 137.757813 97.84375 138 97.3125 138.039063 96.613281 C 138.0625 96.21875 138.03125 95.832031 137.945313 95.457031 C 137.851563 95.074219 137.710938 94.683594 137.523438 94.285156 L 138.632813 94.363281 C 138.777344 94.75 138.886719 95.144531 138.960938 95.550781 C 139.03125 95.949219 139.054688 96.34375 139.023438 96.738281 C 138.96875 97.761719 138.597656 98.550781 137.898438 99.113281 C 137.191406 99.667969 136.273438 99.90625 135.148438 99.832031 C 133.992188 99.769531 133.09375 99.4375 132.445313 98.832031 C 131.800781 98.21875 131.507813 97.433594 131.570313 96.472656 C 131.625 95.621094 131.972656 94.964844 132.617188 94.503906 C 133.265625 94.035156 134.113281 93.832031 135.164063 93.894531 Z M 134.757813 94.941406 C 134.132813 94.902344 133.617188 95.027344 133.210938 95.316406 C 132.804688 95.597656 132.585938 95.996094 132.554688 96.503906 C 132.515625 97.097656 132.671875 97.582031 133.023438 97.957031 C 133.367188 98.332031 133.867188 98.566406 134.523438 98.660156 Z M 133.339844 88.34375 C 133.257813 88.449219 133.195313 88.574219 133.152344 88.71875 C 133.101563 88.855469 133.070313 89 133.058594 89.15625 C 133.027344 89.75 133.214844 90.21875 133.621094 90.5625 C 134.027344 90.90625 134.628906 91.101563 135.417969 91.140625 L 139.167969 91.375 L 139.105469 92.4375 L 132.011719 92 L 132.074219 90.9375 L 133.183594 91.015625 C 132.769531 90.765625 132.464844 90.460938 132.277344 90.09375 C 132.089844 89.730469 132.011719 89.304688 132.042969 88.8125 C 132.042969 88.742188 132.054688 88.664063 132.074219 88.578125 C 132.085938 88.484375 132.105469 88.382813 132.136719 88.265625 Z M 133.339844 88.34375 "/>
<path style=" stroke:none;fill-rule:evenodd;fill:rgb(41.960784%,58.039216%,69.019608%);fill-opacity:1;" d="M 125.167969 165.160156 L 125.230469 164.019531 L 129.121094 164.253906 L 129.371094 160.066406 L 125.480469 159.832031 L 125.558594 158.675781 L 135.027344 159.253906 L 134.949219 160.410156 L 130.449219 160.128906 L 130.199219 164.316406 L 134.699219 164.597656 L 134.636719 165.738281 Z M 132.34375 156.941406 L 128.0625 156.675781 L 128.125 155.628906 L 132.375 155.894531 C 133.042969 155.9375 133.554688 155.855469 133.90625 155.644531 C 134.261719 155.425781 134.449219 155.082031 134.46875 154.613281 C 134.511719 154.050781 134.34375 153.59375 133.96875 153.238281 C 133.585938 152.886719 133.042969 152.6875 132.34375 152.644531 L 128.328125 152.394531 L 128.390625 151.332031 L 135.484375 151.769531 L 135.421875 152.832031 L 134.328125 152.769531 C 134.746094 153.042969 135.046875 153.355469 135.234375 153.707031 C 135.421875 154.050781 135.503906 154.449219 135.484375 154.894531 C 135.429688 155.625 135.140625 156.167969 134.609375 156.519531 C 134.078125 156.863281 133.324219 157.003906 132.34375 156.941406 Z M 128.046875 154.035156 Z M 129.859375 145.035156 L 126.015625 144.800781 L 126.078125 143.753906 L 135.9375 144.363281 L 135.875 145.410156 L 134.8125 145.347656 C 135.210938 145.589844 135.5 145.886719 135.6875 146.238281 C 135.875 146.582031 135.957031 146.988281 135.9375 147.457031 C 135.882813 148.238281 135.5 148.855469 134.78125 149.300781 C 134.0625 149.738281 133.148438 149.921875 132.03125 149.847656 C 130.929688 149.785156 130.046875 149.496094 129.390625 148.972656 C 128.734375 148.441406 128.433594 147.785156 128.484375 147.003906 C 128.507813 146.535156 128.632813 146.140625 128.859375 145.816406 C 129.078125 145.496094 129.414063 145.234375 129.859375 145.035156 Z M 132.109375 148.753906 C 132.964844 148.808594 133.648438 148.691406 134.15625 148.410156 C 134.65625 148.121094 134.929688 147.699219 134.96875 147.144531 C 135 146.59375 134.78125 146.144531 134.3125 145.800781 C 133.84375 145.449219 133.183594 145.246094 132.328125 145.191406 C 131.476563 145.140625 130.796875 145.261719 130.296875 145.550781 C 129.789063 145.832031 129.515625 146.25 129.484375 146.800781 C 129.445313 147.355469 129.65625 147.808594 130.125 148.160156 C 130.59375 148.503906 131.257813 148.703125 132.109375 148.753906 Z M 129.421875 137.703125 L 130.53125 137.765625 C 130.34375 138.058594 130.203125 138.359375 130.109375 138.671875 C 130.007813 138.976563 129.945313 139.296875 129.921875 139.640625 C 129.890625 140.164063 129.960938 140.5625 130.125 140.84375 C 130.28125 141.125 130.539063 141.277344 130.890625 141.296875 C 131.164063 141.308594 131.382813 141.226563 131.546875 141.046875 C 131.703125 140.859375 131.867188 140.492188 132.03125 139.9375 L 132.140625 139.59375 C 132.371094 138.867188 132.65625 138.355469 133 138.0625 C 133.34375 137.773438 133.804688 137.640625 134.375 137.671875 C 135.042969 137.714844 135.554688 137.980469 135.90625 138.46875 C 136.257813 138.960938 136.410156 139.617188 136.359375 140.4375 C 136.335938 140.773438 136.28125 141.125 136.1875 141.5 C 136.09375 141.867188 135.953125 142.246094 135.765625 142.640625 L 134.5625 142.5625 C 134.824219 142.199219 135.023438 141.835938 135.15625 141.46875 C 135.28125 141.09375 135.355469 140.71875 135.375 140.34375 C 135.40625 139.855469 135.339844 139.476563 135.171875 139.203125 C 134.996094 138.933594 134.734375 138.789063 134.390625 138.765625 C 134.078125 138.746094 133.835938 138.824219 133.65625 139 C 133.46875 139.179688 133.277344 139.585938 133.078125 140.21875 L 132.96875 140.578125 C 132.773438 141.226563 132.511719 141.683594 132.1875 141.953125 C 131.867188 142.226563 131.429688 142.34375 130.875 142.3125 C 130.210938 142.273438 129.710938 142.027344 129.375 141.578125 C 129.03125 141.121094 128.882813 140.5 128.921875 139.71875 C 128.953125 139.335938 129.011719 138.976563 129.09375 138.640625 C 129.179688 138.296875 129.289063 137.984375 129.421875 137.703125 Z M 130.308594 133.246094 C 130.277344 133.808594 130.496094 134.273438 130.964844 134.636719 C 131.433594 134.992188 132.089844 135.195313 132.933594 135.246094 C 133.789063 135.300781 134.472656 135.179688 134.980469 134.886719 C 135.480469 134.585938 135.746094 134.152344 135.777344 133.589844 C 135.808594 133.039063 135.589844 132.585938 135.121094 132.230469 C 134.652344 131.867188 133.996094 131.660156 133.152344 131.605469 C 132.320313 131.554688 131.648438 131.679688 131.136719 131.980469 C 130.617188 132.273438 130.339844 132.695313 130.308594 133.246094 Z M 129.324219 133.199219 C 129.378906 132.292969 129.753906 131.601563 130.449219 131.121094 C 131.136719 130.632813 132.058594 130.425781 133.214844 130.496094 C 134.382813 130.570313 135.285156 130.886719 135.917969 131.449219 C 136.542969 132.011719 136.828125 132.746094 136.777344 133.652344 C 136.722656 134.570313 136.351563 135.269531 135.652344 135.746094 C 134.957031 136.226563 134.023438 136.429688 132.855469 136.355469 C 131.699219 136.285156 130.808594 135.972656 130.183594 135.417969 C 129.558594 134.855469 129.273438 134.117188 129.324219 133.199219 Z M 132.917969 123.398438 L 137.199219 123.664063 L 137.136719 124.710938 L 132.902344 124.445313 C 132.226563 124.40625 131.714844 124.5 131.371094 124.726563 C 131.019531 124.945313 130.824219 125.285156 130.792969 125.742188 C 130.761719 126.304688 130.941406 126.765625 131.324219 127.117188 C 131.699219 127.460938 132.230469 127.65625 132.917969 127.695313 L 136.933594 127.945313 L 136.871094 129.007813 L 129.777344 128.570313 L 129.839844 127.507813 L 130.949219 127.585938 C 130.542969 127.304688 130.246094 126.992188 130.058594 126.648438 C 129.863281 126.296875 129.773438 125.894531 129.792969 125.445313 C 129.847656 124.726563 130.136719 124.195313 130.667969 123.851563 C 131.191406 123.5 131.941406 123.347656 132.917969 123.398438 Z M 133.378906 113.515625 C 133.496094 113.265625 133.707031 113.039063 134.019531 112.828125 C 134.324219 112.609375 134.75 112.398438 135.300781 112.1875 L 137.957031 111.171875 L 137.894531 112.421875 L 135.378906 113.359375 C 134.734375 113.601563 134.300781 113.84375 134.082031 114.09375 C 133.863281 114.34375 133.738281 114.695313 133.707031 115.140625 L 133.628906 116.40625 L 137.628906 116.65625 L 137.566406 117.796875 L 128.097656 117.21875 L 128.253906 114.625 C 128.308594 113.65625 128.578125 112.949219 129.066406 112.5 C 129.546875 112.042969 130.246094 111.84375 131.160156 111.90625 C 131.753906 111.9375 132.246094 112.09375 132.628906 112.375 C 133.003906 112.648438 133.253906 113.027344 133.378906 113.515625 Z M 129.222656 116.140625 L 132.582031 116.34375 L 132.675781 114.890625 C 132.707031 114.339844 132.589844 113.917969 132.316406 113.625 C 132.046875 113.324219 131.636719 113.15625 131.082031 113.125 C 130.53125 113.085938 130.109375 113.199219 129.816406 113.46875 C 129.515625 113.730469 129.347656 114.136719 129.316406 114.6875 Z M 130.949219 109.296875 L 131.011719 108.25 L 138.105469 108.6875 L 138.042969 109.734375 Z M 128.183594 109.125 L 128.246094 108.078125 L 129.730469 108.171875 L 129.667969 109.21875 Z M 131.101563 106.816406 L 131.179688 105.707031 L 137.242188 104.082031 L 131.414063 101.722656 L 131.492188 100.597656 L 138.429688 103.425781 L 138.351563 104.847656 Z M 135.164063 93.894531 L 135.726563 93.925781 L 135.429688 98.753906 C 136.242188 98.753906 136.875 98.574219 137.320313 98.207031 C 137.757813 97.84375 138 97.3125 138.039063 96.613281 C 138.0625 96.21875 138.03125 95.832031 137.945313 95.457031 C 137.851563 95.074219 137.710938 94.683594 137.523438 94.285156 L 138.632813 94.363281 C 138.777344 94.75 138.886719 95.144531 138.960938 95.550781 C 139.03125 95.949219 139.054688 96.34375 139.023438 96.738281 C 138.96875 97.761719 138.597656 98.550781 137.898438 99.113281 C 137.191406 99.667969 136.273438 99.90625 135.148438 99.832031 C 133.992188 99.769531 133.09375 99.4375 132.445313 98.832031 C 131.800781 98.21875 131.507813 97.433594 131.570313 96.472656 C 131.625 95.621094 131.972656 94.964844 132.617188 94.503906 C 133.265625 94.035156 134.113281 93.832031 135.164063 93.894531 Z M 134.757813 94.941406 C 134.132813 94.902344 133.617188 95.027344 133.210938 95.316406 C 132.804688 95.597656 132.585938 95.996094 132.554688 96.503906 C 132.515625 97.097656 132.671875 97.582031 133.023438 97.957031 C 133.367188 98.332031 133.867188 98.566406 134.523438 98.660156 Z M 133.339844 88.34375 C 133.257813 88.449219 133.195313 88.574219 133.152344 88.71875 C 133.101563 88.855469 133.070313 89 133.058594 89.15625 C 133.027344 89.75 133.214844 90.21875 133.621094 90.5625 C 134.027344 90.90625 134.628906 91.101563 135.417969 91.140625 L 139.167969 91.375 L 139.105469 92.4375 L 132.011719 92 L 132.074219 90.9375 L 133.183594 91.015625 C 132.769531 90.765625 132.464844 90.460938 132.277344 90.09375 C 132.089844 89.730469 132.011719 89.304688 132.042969 88.8125 C 132.042969 88.742188 132.054688 88.664063 132.074219 88.578125 C 132.085938 88.484375 132.105469 88.382813 132.136719 88.265625 Z M 133.339844 88.34375 "/>
</g>
</svg>

