<?xml version="1.0" encoding="UTF-8"?>
<svg xmlns="http://www.w3.org/2000/svg" xmlns:xlink="http://www.w3.org/1999/xlink" width="256pt" height="256pt" viewBox="0 0 256 256" version="1.1">
<g id="surface2">
<rect x="0" y="0" width="256" height="256" style="fill:rgb(94.901961%,93.72549%,91.372549%);fill-opacity:1;stroke:none;"/>
<path style="fill:none;stroke-width:8;stroke-linecap:round;stroke-linejoin:round;stroke:rgb(75.686275%,70.980392%,61.568627%);stroke-opacity:1;stroke-miterlimit:10;" d="M 38.800781 264 L 51.753906 260.59375 L 54.390625 259.28125 L 62.542969 254.039063 L 71.609375 250.300781 L 83.515625 244.730469 L 91.367188 241.714844 L 93.957031 241.253906 L 97.753906 241.320313 L 104.417969 243.320313 L 107.285156 244.828125 L 110.917969 247.15625 L 113.15625 247.972656 L 118.210938 248.5625 L 124.292969 248.300781 L 139.089844 248.761719 L 141.933594 248.300781 L 143.726563 247.515625 L 151.300781 242.5 L 156.101563 239.683594 L 159.105469 238.535156 L 166.867188 237.09375 L 191.636719 234.242188 "/>
<path style="fill:none;stroke-width:6;stroke-linecap:round;stroke-linejoin:round;stroke:rgb(100%,100%,100%);stroke-opacity:1;stroke-miterlimit:10;" d="M 38.800781 264 L 51.753906 260.59375 L 54.390625 259.28125 L 62.542969 254.039063 L 71.609375 250.300781 L 83.515625 244.730469 L 91.367188 241.714844 L 93.957031 241.253906 L 97.753906 241.320313 L 104.417969 243.320313 L 107.285156 244.828125 L 110.917969 247.15625 L 113.15625 247.972656 L 118.210938 248.5625 L 124.292969 248.300781 L 139.089844 248.761719 L 141.933594 248.300781 L 143.726563 247.515625 L 151.300781 242.5 L 156.101563 239.683594 L 159.105469 238.535156 L 166.867188 237.09375 L 191.636719 234.242188 "/>
</g>
</svg>

