<?xml version="1.0" encoding="UTF-8"?>
<svg xmlns="http://www.w3.org/2000/svg" xmlns:xlink="http://www.w3.org/1999/xlink" width="256pt" height="256pt" viewBox="0 0 256 256" version="1.1">
<g id="surface2">
<rect x="0" y="0" width="256" height="256" style="fill:rgb(94.901961%,93.72549%,91.372549%);fill-opacity:1;stroke:none;"/>
<path style=" stroke:none;fill-rule:evenodd;fill:rgb(60%,70.196078%,80%);fill-opacity:1;" d="M -4 145.699219 L 259 148.785156 L 259 -4 L -4 -4 Z M -4 145.699219 "/>
<path style="fill:none;stroke-width:1;stroke-linecap:round;stroke-linejoin:round;stroke:rgb(70.196078%,77.647059%,83.137255%);stroke-opacity:1;stroke-miterlimit:10;" d="M -4 145.699219 L 259 148.785156 L 259 -4 L -4 -4 L -4 145.699219 "/>
<path style=" stroke:none;fill-rule:evenodd;fill:rgb(60%,70.196078%,80%);fill-opacity:1;" d="M -4 259 L 259 259 L 259 148.785156 L -4 145.699219 Z M -4 259 "/>
<path style="fill:none;stroke-width:1;stroke-linecap:round;stroke-linejoin:round;stroke:rgb(70.196078%,77.647059%,83.137255%);stroke-opacity:1;stroke-miterlimit:10;" d="M -4 259 L 259 259 L 259 148.785156 L -4 145.699219 L -4 259 "/>
<path style="fill:none;stroke-width:6;stroke-linecap:round;stroke-linejoin:round;stroke:rgb(60%,70.196078%,80%);stroke-opacity:1;stroke-miterlimit:10;" d="M 109.058594 -7 L 92.632813 262 "/>
<path style="fill:none;stroke-width:3;stroke-linecap:round;stroke-linejoin:round;stroke:rgb(100%,100%,100%);stroke-opacity:1;stroke-miterlimit:10;" d="M 93.902344 165.160156 L 93.964844 164.019531 L 97.855469 164.253906 L 98.105469 160.066406 L 94.214844 159.832031 L 94.292969 158.675781 L 103.761719 159.253906 L 103.683594 160.410156 L 99.183594 160.128906 L 98.933594 164.316406 L 103.433594 164.597656 L 103.371094 165.738281 Z M 101.078125 156.941406 L 96.796875 156.675781 L 96.859375 155.628906 L 101.109375 155.894531 C 101.777344 155.9375 102.289063 155.855469 102.640625 155.644531 C 102.996094 155.425781 103.183594 155.082031 103.203125 154.613281 C 103.246094 154.050781 103.078125 153.59375 102.703125 153.238281 C 102.320313 152.886719 101.777344 152.6875 101.078125 152.644531 L 97.0625 152.394531 L 97.125 151.332031 L 104.21875 151.769531 L 104.15625 152.832031 L 103.0625 152.769531 C 103.480469 153.042969 103.78125 153.355469 103.96875 153.707031 C 104.15625 154.050781 104.238281 154.449219 104.21875 154.894531 C 104.164063 155.625 103.875 156.167969 103.34375 156.519531 C 102.8125 156.863281 102.058594 157.003906 101.078125 156.941406 Z M 96.78125 154.035156 Z M 98.59375 145.035156 L 94.75 144.800781 L 94.8125 143.753906 L 104.671875 144.363281 L 104.609375 145.410156 L 103.546875 145.347656 C 103.945313 145.589844 104.234375 145.886719 104.421875 146.238281 C 104.609375 146.582031 104.691406 146.988281 104.671875 147.457031 C 104.617188 148.238281 104.234375 148.855469 103.515625 149.300781 C 102.796875 149.738281 101.882813 149.921875 100.765625 149.847656 C 99.664063 149.785156 98.78125 149.496094 98.125 148.972656 C 97.46875 148.441406 97.167969 147.785156 97.21875 147.003906 C 97.242188 146.535156 97.367188 146.140625 97.59375 145.816406 C 97.8125 145.496094 98.148438 145.234375 98.59375 145.035156 Z M 100.84375 148.753906 C 101.699219 148.808594 102.382813 148.691406 102.890625 148.410156 C 103.390625 148.121094 103.664063 147.699219 103.703125 147.144531 C 103.734375 146.59375 103.515625 146.144531 103.046875 145.800781 C 102.578125 145.449219 101.917969 145.246094 101.0625 145.191406 C 100.210938 145.140625 99.53125 145.261719 99.03125 145.550781 C 98.523438 145.832031 98.25 146.25 98.21875 146.800781 C 98.179688 147.355469 98.390625 147.808594 98.859375 148.160156 C 99.328125 148.503906 99.992188 148.703125 100.84375 148.753906 Z M 98.15625 137.703125 L 99.265625 137.765625 C 99.078125 138.058594 98.9375 138.359375 98.84375 138.671875 C 98.742188 138.976563 98.679688 139.296875 98.65625 139.640625 C 98.625 140.164063 98.695313 140.5625 98.859375 140.84375 C 99.015625 141.125 99.273438 141.277344 99.625 141.296875 C 99.898438 141.308594 100.117188 141.226563 100.28125 141.046875 C 100.4375 140.859375 100.601563 140.492188 100.765625 139.9375 L 100.875 139.59375 C 101.105469 138.867188 101.390625 138.355469 101.734375 138.0625 C 102.078125 137.773438 102.539063 137.640625 103.109375 137.671875 C 103.777344 137.714844 104.289063 137.980469 104.640625 138.46875 C 104.992188 138.960938 105.144531 139.617188 105.09375 140.4375 C 105.070313 140.773438 105.015625 141.125 104.921875 141.5 C 104.828125 141.867188 104.6875 142.246094 104.5 142.640625 L 103.296875 142.5625 C 103.558594 142.199219 103.757813 141.835938 103.890625 141.46875 C 104.015625 141.09375 104.089844 140.71875 104.109375 140.34375 C 104.140625 139.855469 104.074219 139.476563 103.90625 139.203125 C 103.730469 138.933594 103.46875 138.789063 103.125 138.765625 C 102.8125 138.746094 102.570313 138.824219 102.390625 139 C 102.203125 139.179688 102.011719 139.585938 101.8125 140.21875 L 101.703125 140.578125 C 101.507813 141.226563 101.246094 141.683594 100.921875 141.953125 C 100.601563 142.226563 100.164063 142.34375 99.609375 142.3125 C 98.945313 142.273438 98.445313 142.027344 98.109375 141.578125 C 97.765625 141.121094 97.617188 140.5 97.65625 139.71875 C 97.6875 139.335938 97.746094 138.976563 97.828125 138.640625 C 97.914063 138.296875 98.023438 137.984375 98.15625 137.703125 Z M 99.042969 133.246094 C 99.011719 133.808594 99.230469 134.273438 99.699219 134.636719 C 100.167969 134.992188 100.824219 135.195313 101.667969 135.246094 C 102.523438 135.300781 103.207031 135.179688 103.714844 134.886719 C 104.214844 134.585938 104.480469 134.152344 104.511719 133.589844 C 104.542969 133.039063 104.324219 132.585938 103.855469 132.230469 C 103.386719 131.867188 102.730469 131.660156 101.886719 131.605469 C 101.054688 131.554688 100.382813 131.679688 99.871094 131.980469 C 99.351563 132.273438 99.074219 132.695313 99.042969 133.246094 Z M 98.058594 133.199219 C 98.113281 132.292969 98.488281 131.601563 99.183594 131.121094 C 99.871094 130.632813 100.792969 130.425781 101.949219 130.496094 C 103.117188 130.570313 104.019531 130.886719 104.652344 131.449219 C 105.277344 132.011719 105.5625 132.746094 105.511719 133.652344 C 105.457031 134.570313 105.085938 135.269531 104.386719 135.746094 C 103.691406 136.226563 102.757813 136.429688 101.589844 136.355469 C 100.433594 136.285156 99.542969 135.972656 98.917969 135.417969 C 98.292969 134.855469 98.007813 134.117188 98.058594 133.199219 Z M 101.652344 123.398438 L 105.933594 123.664063 L 105.871094 124.710938 L 101.636719 124.445313 C 100.960938 124.40625 100.449219 124.5 100.105469 124.726563 C 99.753906 124.945313 99.558594 125.285156 99.527344 125.742188 C 99.496094 126.304688 99.675781 126.765625 100.058594 127.117188 C 100.433594 127.460938 100.964844 127.65625 101.652344 127.695313 L 105.667969 127.945313 L 105.605469 129.007813 L 98.511719 128.570313 L 98.574219 127.507813 L 99.683594 127.585938 C 99.277344 127.304688 98.980469 126.992188 98.792969 126.648438 C 98.597656 126.296875 98.507813 125.894531 98.527344 125.445313 C 98.582031 124.726563 98.871094 124.195313 99.402344 123.851563 C 99.925781 123.5 100.675781 123.347656 101.652344 123.398438 Z M 102.113281 113.515625 C 102.230469 113.265625 102.441406 113.039063 102.753906 112.828125 C 103.058594 112.609375 103.484375 112.398438 104.035156 112.1875 L 106.691406 111.171875 L 106.628906 112.421875 L 104.113281 113.359375 C 103.46875 113.601563 103.035156 113.84375 102.816406 114.09375 C 102.597656 114.34375 102.472656 114.695313 102.441406 115.140625 L 102.363281 116.40625 L 106.363281 116.65625 L 106.300781 117.796875 L 96.832031 117.21875 L 96.988281 114.625 C 97.042969 113.65625 97.3125 112.949219 97.800781 112.5 C 98.28125 112.042969 98.980469 111.84375 99.894531 111.90625 C 100.488281 111.9375 100.980469 112.09375 101.363281 112.375 C 101.738281 112.648438 101.988281 113.027344 102.113281 113.515625 Z M 97.957031 116.140625 L 101.316406 116.34375 L 101.410156 114.890625 C 101.441406 114.339844 101.324219 113.917969 101.050781 113.625 C 100.78125 113.324219 100.371094 113.15625 99.816406 113.125 C 99.265625 113.085938 98.84375 113.199219 98.550781 113.46875 C 98.25 113.730469 98.082031 114.136719 98.050781 114.6875 Z M 99.683594 109.296875 L 99.746094 108.25 L 106.839844 108.6875 L 106.777344 109.734375 Z M 96.917969 109.125 L 96.980469 108.078125 L 98.464844 108.171875 L 98.402344 109.21875 Z M 99.835938 106.816406 L 99.914063 105.707031 L 105.976563 104.082031 L 100.148438 101.722656 L 100.226563 100.597656 L 107.164063 103.425781 L 107.085938 104.847656 Z M 103.898438 93.894531 L 104.460938 93.925781 L 104.164063 98.753906 C 104.976563 98.753906 105.609375 98.574219 106.054688 98.207031 C 106.492188 97.84375 106.734375 97.3125 106.773438 96.613281 C 106.796875 96.21875 106.765625 95.832031 106.679688 95.457031 C 106.585938 95.074219 106.445313 94.683594 106.257813 94.285156 L 107.367188 94.363281 C 107.511719 94.75 107.621094 95.144531 107.695313 95.550781 C 107.765625 95.949219 107.789063 96.34375 107.757813 96.738281 C 107.703125 97.761719 107.332031 98.550781 106.632813 99.113281 C 105.925781 99.667969 105.007813 99.90625 103.882813 99.832031 C 102.726563 99.769531 101.828125 99.4375 101.179688 98.832031 C 100.535156 98.21875 100.242188 97.433594 100.304688 96.472656 C 100.359375 95.621094 100.707031 94.964844 101.351563 94.503906 C 102 94.035156 102.847656 93.832031 103.898438 93.894531 Z M 103.492188 94.941406 C 102.867188 94.902344 102.351563 95.027344 101.945313 95.316406 C 101.539063 95.597656 101.320313 95.996094 101.289063 96.503906 C 101.25 97.097656 101.40625 97.582031 101.757813 97.957031 C 102.101563 98.332031 102.601563 98.566406 103.257813 98.660156 Z M 102.074219 88.34375 C 101.992188 88.449219 101.929688 88.574219 101.886719 88.71875 C 101.835938 88.855469 101.804688 89 101.792969 89.15625 C 101.761719 89.75 101.949219 90.21875 102.355469 90.5625 C 102.761719 90.90625 103.363281 91.101563 104.152344 91.140625 L 107.902344 91.375 L 107.839844 92.4375 L 100.746094 92 L 100.808594 90.9375 L 101.917969 91.015625 C 101.503906 90.765625 101.199219 90.460938 101.011719 90.09375 C 100.824219 89.730469 100.746094 89.304688 100.777344 88.8125 C 100.777344 88.742188 100.789063 88.664063 100.808594 88.578125 C 100.820313 88.484375 100.839844 88.382813 100.871094 88.265625 Z M 102.074219 88.34375 "/>
<path style=" stroke:none;fill-rule:evenodd;fill:rgb(41.960784%,58.039216%,69.019608%);fill-opacity:1;" d="M 93.902344 165.160156 L 93.964844 164.019531 L 97.855469 164.253906 L 98.105469 160.066406 L 94.214844 159.832031 L 94.292969 158.675781 L 103.761719 159.253906 L 103.683594 160.410156 L 99.183594 160.128906 L 98.933594 164.316406 L 103.433594 164.597656 L 103.371094 165.738281 Z M 101.078125 156.941406 L 96.796875 156.675781 L 96.859375 155.628906 L 101.109375 155.894531 C 101.777344 155.9375 102.289063 155.855469 102.640625 155.644531 C 102.996094 155.425781 103.183594 155.082031 103.203125 154.613281 C 103.246094 154.050781 103.078125 153.59375 102.703125 153.238281 C 102.320313 152.886719 101.777344 152.6875 101.078125 152.644531 L 97.0625 152.394531 L 97.125 151.332031 L 104.21875 151.769531 L 104.15625 152.832031 L 103.0625 152.769531 C 103.480469 153.042969 103.78125 153.355469 103.96875 153.707031 C 104.15625 154.050781 104.238281 154.449219 104.21875 154.894531 C 104.164063 155.625 103.875 156.167969 103.34375 156.519531 C 102.8125 156.863281 102.058594 157.003906 101.078125 156.941406 Z M 96.78125 154.035156 Z M 98.59375 145.035156 L 94.75 144.800781 L 94.8125 143.753906 L 104.671875 144.363281 L 104.609375 145.410156 L 103.546875 145.347656 C 103.945313 145.589844 104.234375 145.886719 104.421875 146.238281 C 104.609375 146.582031 104.691406 146.988281 104.671875 147.457031 C 104.617188 148.238281 104.234375 148.855469 103.515625 149.300781 C 102.796875 149.738281 101.882813 149.921875 100.765625 149.847656 C 99.664063 149.785156 98.78125 149.496094 98.125 148.972656 C 97.46875 148.441406 97.167969 147.785156 97.21875 147.003906 C 97.242188 146.535156 97.367188 146.140625 97.59375 145.816406 C 97.8125 145.496094 98.148438 145.234375 98.59375 145.035156 Z M 100.84375 148.753906 C 101.699219 148.808594 102.382813 148.691406 102.890625 148.410156 C 103.390625 148.121094 103.664063 147.699219 103.703125 147.144531 C 103.734375 146.59375 103.515625 146.144531 103.046875 145.800781 C 102.578125 145.449219 101.917969 145.246094 101.0625 145.191406 C 100.210938 145.140625 99.53125 145.261719 99.03125 145.550781 C 98.523438 145.832031 98.25 146.25 98.21875 146.800781 C 98.179688 147.355469 98.390625 147.808594 98.859375 148.160156 C 99.328125 148.503906 99.992188 148.703125 100.84375 148.753906 Z M 98.15625 137.703125 L 99.265625 137.765625 C 99.078125 138.058594 98.9375 138.359375 98.84375 138.671875 C 98.742188 138.976563 98.679688 139.296875 98.65625 139.640625 C 98.625 140.164063 98.695313 140.5625 98.859375 140.84375 C 99.015625 141.125 99.273438 141.277344 99.625 141.296875 C 99.898438 141.308594 100.117188 141.226563 100.28125 141.046875 C 100.4375 140.859375 100.601563 140.492188 100.765625 139.9375 L 100.875 139.59375 C 101.105469 138.867188 101.390625 138.355469 101.734375 138.0625 C 102.078125 137.773438 102.539063 137.640625 103.109375 137.671875 C 103.777344 137.714844 104.289063 137.980469 104.640625 138.46875 C 104.992188 138.960938 105.144531 139.617188 105.09375 140.4375 C 105.070313 140.773438 105.015625 141.125 104.921875 141.5 C 104.828125 141.867188 104.6875 142.246094 104.5 142.640625 L 103.296875 142.5625 C 103.558594 142.199219 103.757813 141.835938 103.890625 141.46875 C 104.015625 141.09375 104.089844 140.71875 104.109375 140.34375 C 104.140625 139.855469 104.074219 139.476563 103.90625 139.203125 C 103.730469 138.933594 103.46875 138.789063 103.125 138.765625 C 102.8125 138.746094 102.570313 138.824219 102.390625 139 C 102.203125 139.179688 102.011719 139.585938 101.8125 140.21875 L 101.703125 140.578125 C 101.507813 141.226563 101.246094 141.683594 100.921875 141.953125 C 100.601563 142.226563 100.164063 142.34375 99.609375 142.3125 C 98.945313 142.273438 98.445313 142.027344 98.109375 141.578125 C 97.765625 141.121094 97.617188 140.5 97.65625 139.71875 C 97.6875 139.335938 97.746094 138.976563 97.828125 138.640625 C 97.914063 138.296875 98.023438 137.984375 98.15625 137.703125 Z M 99.042969 133.246094 C 99.011719 133.808594 99.230469 134.273438 99.699219 134.636719 C 100.167969 134.992188 100.824219 135.195313 101.667969 135.246094 C 102.523438 135.300781 103.207031 135.179688 103.714844 134.886719 C 104.214844 134.585938 104.480469 134.152344 104.511719 133.589844 C 104.542969 133.039063 104.324219 132.585938 103.855469 132.230469 C 103.386719 131.867188 102.730469 131.660156 101.886719 131.605469 C 101.054688 131.554688 100.382813 131.679688 99.871094 131.980469 C 99.351563 132.273438 99.074219 132.695313 99.042969 133.246094 Z M 98.058594 133.199219 C 98.113281 132.292969 98.488281 131.601563 99.183594 131.121094 C 99.871094 130.632813 100.792969 130.425781 101.949219 130.496094 C 103.117188 130.570313 104.019531 130.886719 104.652344 131.449219 C 105.277344 132.011719 105.5625 132.746094 105.511719 133.652344 C 105.457031 134.570313 105.085938 135.269531 104.386719 135.746094 C 103.691406 136.226563 102.757813 136.429688 101.589844 136.355469 C 100.433594 136.285156 99.542969 135.972656 98.917969 135.417969 C 98.292969 134.855469 98.007813 134.117188 98.058594 133.199219 Z M 101.652344 123.398438 L 105.933594 123.664063 L 105.871094 124.710938 L 101.636719 124.445313 C 100.960938 124.40625 100.449219 124.5 100.105469 124.726563 C 99.753906 124.945313 99.558594 125.285156 99.527344 125.742188 C 99.496094 126.304688 99.675781 126.765625 100.058594 127.117188 C 100.433594 127.460938 100.964844 127.65625 101.652344 127.695313 L 105.667969 127.945313 L 105.605469 129.007813 L 98.511719 128.570313 L 98.574219 127.507813 L 99.683594 127.585938 C 99.277344 127.304688 98.980469 126.992188 98.792969 126.648438 C 98.597656 126.296875 98.507813 125.894531 98.527344 125.445313 C 98.582031 124.726563 98.871094 124.195313 99.402344 123.851563 C 99.925781 123.5 100.675781 123.347656 101.652344 123.398438 Z M 102.113281 113.515625 C 102.230469 113.265625 102.441406 113.039063 102.753906 112.828125 C 103.058594 112.609375 103.484375 112.398438 104.035156 112.1875 L 106.691406 111.171875 L 106.628906 112.421875 L 104.113281 113.359375 C 103.46875 113.601563 103.035156 113.84375 102.816406 114.09375 C 102.597656 114.34375 102.472656 114.695313 102.441406 115.140625 L 102.363281 116.40625 L 106.363281 116.65625 L 106.300781 117.796875 L 96.832031 117.21875 L 96.988281 114.625 C 97.042969 113.65625 97.3125 112.949219 97.800781 112.5 C 98.28125 112.042969 98.980469 111.84375 99.894531 111.90625 C 100.488281 111.9375 100.980469 112.09375 101.363281 112.375 C 101.738281 112.648438 101.988281 113.027344 102.113281 113.515625 Z M 97.957031 116.140625 L 101.316406 116.34375 L 101.410156 114.890625 C 101.441406 114.339844 101.324219 113.917969 101.050781 113.625 C 100.78125 113.324219 100.371094 113.15625 99.816406 113.125 C 99.265625 113.085938 98.84375 113.199219 98.550781 113.46875 C 98.25 113.730469 98.082031 114.136719 98.050781 114.6875 Z M 99.683594 109.296875 L 99.746094 108.25 L 106.839844 108.6875 L 106.777344 109.734375 Z M 96.917969 109.125 L 96.980469 108.078125 L 98.464844 108.171875 L 98.402344 109.21875 Z M 99.835938 106.816406 L 99.914063 105.707031 L 105.976563 104.082031 L 100.148438 101.722656 L 100.226563 100.597656 L 107.164063 103.425781 L 107.085938 104.847656 Z M 103.898438 93.894531 L 104.460938 93.925781 L 104.164063 98.753906 C 104.976563 98.753906 105.609375 98.574219 106.054688 98.207031 C 106.492188 97.84375 106.734375 97.3125 106.773438 96.613281 C 106.796875 96.21875 106.765625 95.832031 106.679688 95.457031 C 106.585938 95.074219 106.445313 94.683594 106.257813 94.285156 L 107.367188 94.363281 C 107.511719 94.75 107.621094 95.144531 107.695313 95.550781 C 107.765625 95.949219 107.789063 96.34375 107.757813 96.738281 C 107.703125 97.761719 107.332031 98.550781 106.632813 99.113281 C 105.925781 99.667969 105.007813 99.90625 103.882813 99.832031 C 102.726563 99.769531 101.828125 99.4375 101.179688 98.832031 C 100.535156 98.21875 100.242188 97.433594 100.304688 96.472656 C 100.359375 95.621094 100.707031 94.964844 101.351563 94.503906 C 102 94.035156 102.847656 93.832031 103.898438 93.894531 Z M 103.492188 94.941406 C 102.867188 94.902344 102.351563 95.027344 101.945313 95.316406 C 101.539063 95.597656 101.320313 95.996094 101.289063 96.503906 C 101.25 97.097656 101.40625 97.582031 101.757813 97.957031 C 102.101563 98.332031 102.601563 98.566406 103.257813 98.660156 Z M 102.074219 88.34375 C 101.992188 88.449219 101.929688 88.574219 101.886719 88.71875 C 101.835938 88.855469 101.804688 89 101.792969 89.15625 C 101.761719 89.75 101.949219 90.21875 102.355469 90.5625 C 102.761719 90.90625 103.363281 91.101563 104.152344 91.140625 L 107.902344 91.375 L 107.839844 92.4375 L 100.746094 92 L 100.808594 90.9375 L 101.917969 91.015625 C 101.503906 90.765625 101.199219 90.460938 101.011719 90.09375 C 100.824219 89.730469 100.746094 89.304688 100.777344 88.8125 C 100.777344 88.742188 100.789063 88.664063 100.808594 88.578125 C 100.820313 88.484375 100.839844 88.382813 100.871094 88.265625 Z M 102.074219 88.34375 "/>
</g>
</svg>

