<?xml version="1.0" encoding="UTF-8"?>
<svg xmlns="http://www.w3.org/2000/svg" xmlns:xlink="http://www.w3.org/1999/xlink" width="256pt" height="256pt" viewBox="0 0 256 256" version="1.1">
<g id="surface2">
<rect x="0" y="0" width="256" height="256" style="fill:rgb(94.901961%,93.72549%,91.372549%);fill-opacity:1;stroke:none;"/>
<path style="fill:none;stroke-width:2;stroke-linecap:round;stroke-linejoin:round;stroke:rgb(60%,70.196078%,80%);stroke-opacity:1;stroke-miterlimit:10;" d="M 173.207031 258 L 172.980469 256.746094 L 165.878906 246 L 162.425781 241.390625 L 161.082031 217.402344 L 155.128906 199.550781 L 147.644531 187.84375 L 147.839844 179.210938 L 156.285156 172.492188 L 163.382813 160.785156 L 162.234375 146.007813 L 159.160156 107.433594 L 162.234375 78.070313 L 171.828125 46.40625 L 176.625 28.941406 L 175.859375 15.886719 L 173.832031 -3 "/>
<path style="fill:none;stroke-width:1;stroke-linecap:round;stroke-linejoin:round;stroke:rgb(100%,100%,100%);stroke-opacity:1;stroke-dasharray:2,3;stroke-miterlimit:10;" d="M -2 6.382813 L 0.402344 6.257813 L 7.292969 4.660156 "/>
<path style="fill:none;stroke-width:1;stroke-linecap:round;stroke-linejoin:round;stroke:rgb(100%,100%,100%);stroke-opacity:1;stroke-dasharray:2,3;stroke-miterlimit:10;" d="M 15.820313 79.851563 L 21.636719 79.398438 L 24.46875 76.09375 L 29.660156 74.519531 L 32.019531 79.082031 L 33.121094 84.117188 L 35.007813 89.621094 L 37.210938 94.8125 L 40.828125 101.730469 L 40.984375 108.8125 L 42.871094 120.292969 L 42.242188 128.472656 L 41.929688 134.765625 L 40.355469 141.6875 L 39.097656 147.191406 L 40.355469 152.699219 L 39.886719 159.460938 L 35.953125 164.964844 L 31.074219 169.394531 "/>
<path style="fill:none;stroke-width:1;stroke-linecap:round;stroke-linejoin:round;stroke:rgb(100%,100%,100%);stroke-opacity:1;stroke-dasharray:2,3;stroke-miterlimit:10;" d="M 12.441406 -2 L 7.292969 4.660156 L 16.8125 9.714844 L 18.484375 19.246094 L 13.855469 44.972656 L 7.535156 59.121094 L 7.652344 66.421875 L 15.820313 79.851563 L 18.871094 88.875 L 17.277344 92.722656 L 7.332031 100.148438 L 3.351563 106.519531 L 9.847656 132.914063 L 15.289063 134.109375 L 18.074219 136.496094 L 17.941406 140.339844 L 22.847656 141.933594 L 27.757813 152.015625 L 31.074219 169.394531 L 28.6875 173.902344 L 22.054688 179.605469 L 17.035156 188.160156 L 8.636719 200.726563 L 6.574219 211.285156 L 4.515625 220.925781 L 6.382813 232.382813 L 16.667969 257 "/>
<path style="fill:none;stroke-width:3;stroke-linecap:round;stroke-linejoin:round;stroke:rgb(100%,100%,100%);stroke-opacity:1;stroke-miterlimit:10;" d="M 158.136719 161.613281 L 158.292969 160.175781 L 163.917969 158.957031 L 158.699219 156.488281 L 158.855469 155.050781 L 166.824219 155.941406 L 166.730469 156.894531 L 159.730469 156.113281 L 164.996094 158.566406 L 164.886719 159.535156 L 159.214844 160.785156 L 166.214844 161.566406 L 166.105469 162.503906 Z M 163.632813 151.433594 C 163.695313 152.144531 163.832031 152.628906 164.039063 152.886719 C 164.238281 153.148438 164.554688 153.261719 164.992188 153.230469 C 165.335938 153.199219 165.609375 153.074219 165.804688 152.855469 C 165.992188 152.628906 166.070313 152.339844 166.039063 151.996094 C 166 151.496094 165.773438 151.117188 165.367188 150.855469 C 164.953125 150.585938 164.429688 150.476563 163.804688 150.527344 L 163.570313 150.542969 Z M 163.085938 149.683594 L 166.507813 149.417969 L 166.585938 150.308594 L 165.679688 150.386719 C 166.054688 150.566406 166.34375 150.800781 166.539063 151.089844 C 166.738281 151.371094 166.851563 151.726563 166.882813 152.152344 C 166.921875 152.707031 166.789063 153.160156 166.476563 153.511719 C 166.15625 153.867188 165.703125 154.070313 165.117188 154.121094 C 164.453125 154.175781 163.929688 154.011719 163.554688 153.636719 C 163.179688 153.253906 162.960938 152.660156 162.898438 151.855469 L 162.804688 150.605469 L 162.710938 150.605469 C 162.253906 150.648438 161.910156 150.816406 161.679688 151.105469 C 161.453125 151.386719 161.351563 151.773438 161.382813 152.261719 C 161.414063 152.554688 161.484375 152.847656 161.585938 153.136719 C 161.691406 153.429688 161.835938 153.707031 162.023438 153.964844 L 161.117188 154.027344 C 160.953125 153.714844 160.820313 153.414063 160.726563 153.121094 C 160.632813 152.820313 160.578125 152.527344 160.554688 152.246094 C 160.492188 151.464844 160.671875 150.863281 161.085938 150.433594 C 161.503906 150.007813 162.171875 149.757813 163.085938 149.683594 Z M 161.050781 144.855469 C 160.988281 144.972656 160.949219 145.089844 160.925781 145.214844 C 160.90625 145.332031 160.902344 145.457031 160.910156 145.589844 C 160.953125 146.101563 161.167969 146.476563 161.550781 146.714844 C 161.9375 146.945313 162.46875 147.035156 163.144531 146.980469 L 166.300781 146.730469 L 166.378906 147.636719 L 160.378906 148.105469 L 160.300781 147.199219 L 161.238281 147.121094 C 160.863281 146.964844 160.578125 146.753906 160.378906 146.480469 C 160.171875 146.199219 160.050781 145.847656 160.019531 145.417969 C 160.011719 145.355469 160.003906 145.289063 160.003906 145.214844 C 160.003906 145.132813 160.015625 145.050781 160.035156 144.964844 Z M 159.96875 140.113281 L 160.890625 140.050781 C 160.757813 140.3125 160.664063 140.574219 160.609375 140.832031 C 160.546875 141.082031 160.527344 141.339844 160.546875 141.597656 C 160.601563 142.171875 160.839844 142.605469 161.265625 142.894531 C 161.695313 143.175781 162.277344 143.285156 163.015625 143.222656 C 163.734375 143.171875 164.289063 142.96875 164.671875 142.613281 C 165.058594 142.261719 165.226563 141.796875 165.171875 141.222656 C 165.152344 140.964844 165.09375 140.714844 165 140.472656 C 164.90625 140.234375 164.773438 139.996094 164.59375 139.753906 L 165.5 139.675781 C 165.65625 139.917969 165.777344 140.167969 165.859375 140.425781 C 165.945313 140.6875 166 140.964844 166.03125 141.253906 C 166.09375 142.066406 165.859375 142.738281 165.328125 143.269531 C 164.796875 143.792969 164.054688 144.089844 163.09375 144.160156 C 162.117188 144.246094 161.328125 144.066406 160.734375 143.628906 C 160.132813 143.183594 159.792969 142.542969 159.71875 141.707031 C 159.699219 141.4375 159.710938 141.167969 159.75 140.894531 C 159.792969 140.625 159.867188 140.363281 159.96875 140.113281 Z M 166.003906 135.832031 C 166.742188 136.03125 167.226563 136.238281 167.457031 136.457031 C 167.683594 136.667969 167.816406 136.96875 167.847656 137.363281 L 167.910156 138.082031 L 167.097656 138.160156 L 167.050781 137.628906 C 167.039063 137.390625 166.960938 137.207031 166.816406 137.082031 C 166.667969 136.957031 166.351563 136.828125 165.863281 136.691406 L 165.394531 136.582031 L 159.660156 139.238281 L 159.597656 138.300781 L 164.144531 136.253906 L 159.332031 134.925781 L 159.253906 133.988281 Z M 161.007813 128.425781 L 163.929688 128.207031 L 163.804688 126.660156 C 163.765625 126.140625 163.613281 125.761719 163.351563 125.519531 C 163.09375 125.28125 162.710938 125.183594 162.210938 125.222656 C 161.722656 125.265625 161.367188 125.421875 161.148438 125.691406 C 160.929688 125.964844 160.84375 126.359375 160.882813 126.878906 Z M 157.710938 128.691406 L 160.132813 128.503906 L 160.023438 127.082031 C 159.984375 126.605469 159.851563 126.253906 159.632813 126.035156 C 159.414063 125.816406 159.101563 125.722656 158.695313 125.753906 C 158.289063 125.785156 158 125.925781 157.820313 126.175781 C 157.632813 126.425781 157.5625 126.792969 157.601563 127.269531 Z M 156.914063 129.753906 L 156.710938 127.269531 C 156.660156 126.53125 156.789063 125.941406 157.101563 125.503906 C 157.40625 125.066406 157.875 124.828125 158.507813 124.785156 C 159 124.746094 159.394531 124.816406 159.695313 125.003906 C 160 125.191406 160.203125 125.480469 160.304688 125.863281 C 160.378906 125.375 160.585938 124.984375 160.929688 124.691406 C 161.273438 124.402344 161.710938 124.230469 162.242188 124.175781 C 162.960938 124.125 163.535156 124.300781 163.960938 124.707031 C 164.390625 125.113281 164.632813 125.722656 164.695313 126.535156 L 164.898438 129.113281 Z M 159.03125 119.648438 C 158.980469 119.753906 158.945313 119.867188 158.921875 119.992188 C 158.902344 120.117188 158.898438 120.25 158.90625 120.382813 C 158.949219 120.894531 159.164063 121.265625 159.546875 121.492188 C 159.933594 121.722656 160.464844 121.8125 161.140625 121.757813 L 164.296875 121.507813 L 164.359375 122.414063 L 158.359375 122.898438 L 158.296875 121.992188 L 159.234375 121.914063 C 158.851563 121.757813 158.558594 121.539063 158.359375 121.257813 C 158.164063 120.976563 158.046875 120.625 158.015625 120.195313 C 158.007813 120.132813 158 120.066406 158 119.992188 C 158 119.910156 158.007813 119.828125 158.015625 119.742188 Z M 158.570313 116.660156 C 158.601563 117.128906 158.835938 117.488281 159.273438 117.738281 C 159.710938 117.980469 160.289063 118.066406 161.007813 118.003906 C 161.71875 117.953125 162.269531 117.769531 162.664063 117.457031 C 163.050781 117.144531 163.226563 116.753906 163.195313 116.285156 C 163.15625 115.808594 162.921875 115.449219 162.492188 115.207031 C 162.054688 114.96875 161.484375 114.875 160.773438 114.925781 C 160.054688 114.988281 159.5 115.175781 159.101563 115.488281 C 158.707031 115.792969 158.53125 116.183594 158.570313 116.660156 Z M 157.742188 116.722656 C 157.679688 115.953125 157.910156 115.328125 158.429688 114.847656 C 158.953125 114.359375 159.707031 114.074219 160.695313 113.988281 C 161.664063 113.917969 162.453125 114.078125 163.054688 114.472656 C 163.648438 114.871094 163.976563 115.453125 164.039063 116.222656 C 164.101563 116.996094 163.867188 117.625 163.335938 118.113281 C 162.804688 118.59375 162.054688 118.871094 161.085938 118.941406 C 160.097656 119.027344 159.3125 118.871094 158.726563 118.472656 C 158.132813 118.078125 157.804688 117.496094 157.742188 116.722656 Z M 158.089844 110.632813 C 158.121094 111.101563 158.355469 111.460938 158.792969 111.710938 C 159.230469 111.953125 159.808594 112.039063 160.527344 111.976563 C 161.238281 111.925781 161.789063 111.742188 162.183594 111.429688 C 162.570313 111.117188 162.746094 110.726563 162.714844 110.257813 C 162.675781 109.78125 162.441406 109.421875 162.011719 109.179688 C 161.574219 108.941406 161.003906 108.847656 160.292969 108.898438 C 159.574219 108.960938 159.019531 109.148438 158.621094 109.460938 C 158.226563 109.765625 158.050781 110.15625 158.089844 110.632813 Z M 157.261719 110.695313 C 157.199219 109.925781 157.429688 109.300781 157.949219 108.820313 C 158.472656 108.332031 159.226563 108.046875 160.214844 107.960938 C 161.183594 107.890625 161.972656 108.050781 162.574219 108.445313 C 163.167969 108.84375 163.496094 109.425781 163.558594 110.195313 C 163.621094 110.96875 163.386719 111.597656 162.855469 112.085938 C 162.324219 112.566406 161.574219 112.84375 160.605469 112.914063 C 159.617188 113 158.832031 112.84375 158.246094 112.445313 C 157.652344 112.050781 157.324219 111.46875 157.261719 110.695313 Z M 154.929688 106.1875 L 155.023438 105.296875 L 159.929688 105.796875 L 157.617188 102.875 L 157.726563 101.75 L 160.242188 104.890625 L 163.726563 102.25 L 163.601563 103.40625 L 160.414063 105.84375 L 163.335938 106.140625 L 163.242188 107.03125 Z M 154.929688 106.1875 "/>
<path style=" stroke:none;fill-rule:evenodd;fill:rgb(41.960784%,58.039216%,69.019608%);fill-opacity:1;" d="M 158.136719 161.613281 L 158.292969 160.175781 L 163.917969 158.957031 L 158.699219 156.488281 L 158.855469 155.050781 L 166.824219 155.941406 L 166.730469 156.894531 L 159.730469 156.113281 L 164.996094 158.566406 L 164.886719 159.535156 L 159.214844 160.785156 L 166.214844 161.566406 L 166.105469 162.503906 Z M 163.632813 151.433594 C 163.695313 152.144531 163.832031 152.628906 164.039063 152.886719 C 164.238281 153.148438 164.554688 153.261719 164.992188 153.230469 C 165.335938 153.199219 165.609375 153.074219 165.804688 152.855469 C 165.992188 152.628906 166.070313 152.339844 166.039063 151.996094 C 166 151.496094 165.773438 151.117188 165.367188 150.855469 C 164.953125 150.585938 164.429688 150.476563 163.804688 150.527344 L 163.570313 150.542969 Z M 163.085938 149.683594 L 166.507813 149.417969 L 166.585938 150.308594 L 165.679688 150.386719 C 166.054688 150.566406 166.34375 150.800781 166.539063 151.089844 C 166.738281 151.371094 166.851563 151.726563 166.882813 152.152344 C 166.921875 152.707031 166.789063 153.160156 166.476563 153.511719 C 166.15625 153.867188 165.703125 154.070313 165.117188 154.121094 C 164.453125 154.175781 163.929688 154.011719 163.554688 153.636719 C 163.179688 153.253906 162.960938 152.660156 162.898438 151.855469 L 162.804688 150.605469 L 162.710938 150.605469 C 162.253906 150.648438 161.910156 150.816406 161.679688 151.105469 C 161.453125 151.386719 161.351563 151.773438 161.382813 152.261719 C 161.414063 152.554688 161.484375 152.847656 161.585938 153.136719 C 161.691406 153.429688 161.835938 153.707031 162.023438 153.964844 L 161.117188 154.027344 C 160.953125 153.714844 160.820313 153.414063 160.726563 153.121094 C 160.632813 152.820313 160.578125 152.527344 160.554688 152.246094 C 160.492188 151.464844 160.671875 150.863281 161.085938 150.433594 C 161.503906 150.007813 162.171875 149.757813 163.085938 149.683594 Z M 161.050781 144.855469 C 160.988281 144.972656 160.949219 145.089844 160.925781 145.214844 C 160.90625 145.332031 160.902344 145.457031 160.910156 145.589844 C 160.953125 146.101563 161.167969 146.476563 161.550781 146.714844 C 161.9375 146.945313 162.46875 147.035156 163.144531 146.980469 L 166.300781 146.730469 L 166.378906 147.636719 L 160.378906 148.105469 L 160.300781 147.199219 L 161.238281 147.121094 C 160.863281 146.964844 160.578125 146.753906 160.378906 146.480469 C 160.171875 146.199219 160.050781 145.847656 160.019531 145.417969 C 160.011719 145.355469 160.003906 145.289063 160.003906 145.214844 C 160.003906 145.132813 160.015625 145.050781 160.035156 144.964844 Z M 159.96875 140.113281 L 160.890625 140.050781 C 160.757813 140.3125 160.664063 140.574219 160.609375 140.832031 C 160.546875 141.082031 160.527344 141.339844 160.546875 141.597656 C 160.601563 142.171875 160.839844 142.605469 161.265625 142.894531 C 161.695313 143.175781 162.277344 143.285156 163.015625 143.222656 C 163.734375 143.171875 164.289063 142.96875 164.671875 142.613281 C 165.058594 142.261719 165.226563 141.796875 165.171875 141.222656 C 165.152344 140.964844 165.09375 140.714844 165 140.472656 C 164.90625 140.234375 164.773438 139.996094 164.59375 139.753906 L 165.5 139.675781 C 165.65625 139.917969 165.777344 140.167969 165.859375 140.425781 C 165.945313 140.6875 166 140.964844 166.03125 141.253906 C 166.09375 142.066406 165.859375 142.738281 165.328125 143.269531 C 164.796875 143.792969 164.054688 144.089844 163.09375 144.160156 C 162.117188 144.246094 161.328125 144.066406 160.734375 143.628906 C 160.132813 143.183594 159.792969 142.542969 159.71875 141.707031 C 159.699219 141.4375 159.710938 141.167969 159.75 140.894531 C 159.792969 140.625 159.867188 140.363281 159.96875 140.113281 Z M 166.003906 135.832031 C 166.742188 136.03125 167.226563 136.238281 167.457031 136.457031 C 167.683594 136.667969 167.816406 136.96875 167.847656 137.363281 L 167.910156 138.082031 L 167.097656 138.160156 L 167.050781 137.628906 C 167.039063 137.390625 166.960938 137.207031 166.816406 137.082031 C 166.667969 136.957031 166.351563 136.828125 165.863281 136.691406 L 165.394531 136.582031 L 159.660156 139.238281 L 159.597656 138.300781 L 164.144531 136.253906 L 159.332031 134.925781 L 159.253906 133.988281 Z M 161.007813 128.425781 L 163.929688 128.207031 L 163.804688 126.660156 C 163.765625 126.140625 163.613281 125.761719 163.351563 125.519531 C 163.09375 125.28125 162.710938 125.183594 162.210938 125.222656 C 161.722656 125.265625 161.367188 125.421875 161.148438 125.691406 C 160.929688 125.964844 160.84375 126.359375 160.882813 126.878906 Z M 157.710938 128.691406 L 160.132813 128.503906 L 160.023438 127.082031 C 159.984375 126.605469 159.851563 126.253906 159.632813 126.035156 C 159.414063 125.816406 159.101563 125.722656 158.695313 125.753906 C 158.289063 125.785156 158 125.925781 157.820313 126.175781 C 157.632813 126.425781 157.5625 126.792969 157.601563 127.269531 Z M 156.914063 129.753906 L 156.710938 127.269531 C 156.660156 126.53125 156.789063 125.941406 157.101563 125.503906 C 157.40625 125.066406 157.875 124.828125 158.507813 124.785156 C 159 124.746094 159.394531 124.816406 159.695313 125.003906 C 160 125.191406 160.203125 125.480469 160.304688 125.863281 C 160.378906 125.375 160.585938 124.984375 160.929688 124.691406 C 161.273438 124.402344 161.710938 124.230469 162.242188 124.175781 C 162.960938 124.125 163.535156 124.300781 163.960938 124.707031 C 164.390625 125.113281 164.632813 125.722656 164.695313 126.535156 L 164.898438 129.113281 Z M 159.03125 119.648438 C 158.980469 119.753906 158.945313 119.867188 158.921875 119.992188 C 158.902344 120.117188 158.898438 120.25 158.90625 120.382813 C 158.949219 120.894531 159.164063 121.265625 159.546875 121.492188 C 159.933594 121.722656 160.464844 121.8125 161.140625 121.757813 L 164.296875 121.507813 L 164.359375 122.414063 L 158.359375 122.898438 L 158.296875 121.992188 L 159.234375 121.914063 C 158.851563 121.757813 158.558594 121.539063 158.359375 121.257813 C 158.164063 120.976563 158.046875 120.625 158.015625 120.195313 C 158.007813 120.132813 158 120.066406 158 119.992188 C 158 119.910156 158.007813 119.828125 158.015625 119.742188 Z M 158.570313 116.660156 C 158.601563 117.128906 158.835938 117.488281 159.273438 117.738281 C 159.710938 117.980469 160.289063 118.066406 161.007813 118.003906 C 161.71875 117.953125 162.269531 117.769531 162.664063 117.457031 C 163.050781 117.144531 163.226563 116.753906 163.195313 116.285156 C 163.15625 115.808594 162.921875 115.449219 162.492188 115.207031 C 162.054688 114.96875 161.484375 114.875 160.773438 114.925781 C 160.054688 114.988281 159.5 115.175781 159.101563 115.488281 C 158.707031 115.792969 158.53125 116.183594 158.570313 116.660156 Z M 157.742188 116.722656 C 157.679688 115.953125 157.910156 115.328125 158.429688 114.847656 C 158.953125 114.359375 159.707031 114.074219 160.695313 113.988281 C 161.664063 113.917969 162.453125 114.078125 163.054688 114.472656 C 163.648438 114.871094 163.976563 115.453125 164.039063 116.222656 C 164.101563 116.996094 163.867188 117.625 163.335938 118.113281 C 162.804688 118.59375 162.054688 118.871094 161.085938 118.941406 C 160.097656 119.027344 159.3125 118.871094 158.726563 118.472656 C 158.132813 118.078125 157.804688 117.496094 157.742188 116.722656 Z M 158.089844 110.632813 C 158.121094 111.101563 158.355469 111.460938 158.792969 111.710938 C 159.230469 111.953125 159.808594 112.039063 160.527344 111.976563 C 161.238281 111.925781 161.789063 111.742188 162.183594 111.429688 C 162.570313 111.117188 162.746094 110.726563 162.714844 110.257813 C 162.675781 109.78125 162.441406 109.421875 162.011719 109.179688 C 161.574219 108.941406 161.003906 108.847656 160.292969 108.898438 C 159.574219 108.960938 159.019531 109.148438 158.621094 109.460938 C 158.226563 109.765625 158.050781 110.15625 158.089844 110.632813 Z M 157.261719 110.695313 C 157.199219 109.925781 157.429688 109.300781 157.949219 108.820313 C 158.472656 108.332031 159.226563 108.046875 160.214844 107.960938 C 161.183594 107.890625 161.972656 108.050781 162.574219 108.445313 C 163.167969 108.84375 163.496094 109.425781 163.558594 110.195313 C 163.621094 110.96875 163.386719 111.597656 162.855469 112.085938 C 162.324219 112.566406 161.574219 112.84375 160.605469 112.914063 C 159.617188 113 158.832031 112.84375 158.246094 112.445313 C 157.652344 112.050781 157.324219 111.46875 157.261719 110.695313 Z M 154.929688 106.1875 L 155.023438 105.296875 L 159.929688 105.796875 L 157.617188 102.875 L 157.726563 101.75 L 160.242188 104.890625 L 163.726563 102.25 L 163.601563 103.40625 L 160.414063 105.84375 L 163.335938 106.140625 L 163.242188 107.03125 Z M 154.929688 106.1875 "/>
</g>
</svg>

