<?xml version="1.0" encoding="UTF-8"?>
<svg xmlns="http://www.w3.org/2000/svg" xmlns:xlink="http://www.w3.org/1999/xlink" width="256pt" height="256pt" viewBox="0 0 256 256" version="1.1">
<g id="surface2">
<rect x="0" y="0" width="256" height="256" style="fill:rgb(94.901961%,93.72549%,91.372549%);fill-opacity:1;stroke:none;"/>
<path style=" stroke:none;fill-rule:evenodd;fill:rgb(60%,70.196078%,80%);fill-opacity:1;" d="M 189.34375 -4 L 190.128906 2.125 L 191.957031 6.167969 L 196.191406 10.113281 L 203.019531 15.691406 L 209.945313 15.015625 L 215.140625 9.148438 L 218.21875 2.992188 L 219.074219 -4 L 259 -4 Z M 189.34375 -4 "/>
<path style="fill:none;stroke-width:1;stroke-linecap:round;stroke-linejoin:round;stroke:rgb(70.196078%,77.647059%,83.137255%);stroke-opacity:1;stroke-miterlimit:10;" d="M 189.34375 -4 L 190.128906 2.125 L 191.957031 6.167969 L 196.191406 10.113281 L 203.019531 15.691406 L 209.945313 15.015625 L 215.140625 9.148438 L 218.21875 2.992188 L 219.074219 -4 L 259 -4 L 189.34375 -4 "/>
<path style=" stroke:none;fill-rule:evenodd;fill:rgb(60%,70.196078%,80%);fill-opacity:1;" d="M 199.242188 131.121094 L 202.101563 134.589844 L 207.609375 136.359375 L 215.160156 135.679688 L 218.289063 130.371094 L 222.847656 128.261719 L 225.023438 126.019531 L 223.734375 122.753906 L 220.875 122.957031 L 218.628906 120.304688 L 218.96875 117.039063 L 216.519531 111.1875 L 214.003906 108.332031 L 211.554688 110.167969 L 211.011719 114.457031 L 207.816406 120.304688 L 202.101563 125.882813 Z M 199.242188 131.121094 "/>
<path style="fill:none;stroke-width:1;stroke-linecap:round;stroke-linejoin:round;stroke:rgb(70.196078%,77.647059%,83.137255%);stroke-opacity:1;stroke-miterlimit:10;" d="M 199.242188 131.121094 L 202.101563 134.589844 L 207.609375 136.359375 L 215.160156 135.679688 L 218.289063 130.371094 L 222.847656 128.261719 L 225.023438 126.019531 L 223.734375 122.753906 L 220.875 122.957031 L 218.628906 120.304688 L 218.96875 117.039063 L 216.519531 111.1875 L 214.003906 108.332031 L 211.554688 110.167969 L 211.011719 114.457031 L 207.816406 120.304688 L 202.101563 125.882813 L 199.242188 131.121094 "/>
<path style="fill:none;stroke-width:1;stroke-linecap:round;stroke-linejoin:round;stroke:rgb(100%,100%,100%);stroke-opacity:1;stroke-dasharray:2,3;stroke-miterlimit:10;" d="M -2 237.679688 L 3.554688 225.214844 L 20.175781 217.179688 L 27.207031 206.3125 L 60.082031 202.839844 L 80.539063 200.285156 L 113.597656 194.988281 L 141.816406 186.679688 L 149.667969 181.566406 L 155.421875 173.164063 L 188.117188 158.734375 L 200.535156 154.988281 L 213.503906 153.164063 L 229.574219 132.707031 L 257 127.375 "/>
</g>
</svg>

