<?xml version="1.0" encoding="UTF-8"?>
<svg xmlns="http://www.w3.org/2000/svg" xmlns:xlink="http://www.w3.org/1999/xlink" width="256pt" height="256pt" viewBox="0 0 256 256" version="1.1">
<g id="surface2">
<rect x="0" y="0" width="256" height="256" style="fill:rgb(60%,70.196078%,80%);fill-opacity:1;stroke:none;"/>
<path style=" stroke:none;fill-rule:evenodd;fill:rgb(94.901961%,93.72549%,91.372549%);fill-opacity:1;" d="M -4 259 L -4 162.964844 L 14.414063 162.964844 L 14.414063 259 Z M -4 259 "/>
<path style=" stroke:none;fill-rule:evenodd;fill:rgb(94.901961%,93.72549%,91.372549%);fill-opacity:1;" d="M 14.085938 259 L 14.085938 162.964844 L 236.839844 162.964844 L 236.839844 259 Z M 14.085938 259 "/>
<path style=" stroke:none;fill-rule:evenodd;fill:rgb(94.901961%,93.72549%,91.372549%);fill-opacity:1;" d="M 259 259 L 236.511719 259 L 236.511719 162.964844 L 259 162.964844 Z M 259 259 "/>
<path style=" stroke:none;fill-rule:evenodd;fill:rgb(94.901961%,93.72549%,91.372549%);fill-opacity:1;" d="M -4 163.292969 L -4 -4 L 100.511719 -4 L 100.511719 163.292969 Z M -4 163.292969 "/>
<path style=" stroke:none;fill-rule:evenodd;fill:rgb(94.901961%,93.72549%,91.372549%);fill-opacity:1;" d="M 259 163.292969 L 100.183594 163.292969 L 100.183594 -4 L 259 -4 Z M 259 163.292969 "/>
<path style="fill:none;stroke-width:2;stroke-linecap:round;stroke-linejoin:round;stroke:rgb(60%,70.196078%,80%);stroke-opacity:1;stroke-miterlimit:10;" d="M 52.421875 28.421875 L 56.003906 31.121094 L 57.222656 34.601563 L 57.707031 38.042969 L 57.398438 40.125 L 57.964844 41.734375 L 61.007813 44.90625 L 63 48.203125 L 65.902344 51.445313 L 66.453125 53.507813 L 66.164063 55.203125 L 65.21875 57.710938 L 63.585938 58.796875 L 61.429688 62.960938 L 58.683594 63.390625 L 57.496094 62.347656 L 51.121094 62.691406 L 50.070313 63.492188 L 49.558594 64.753906 L 49.773438 67.816406 L 50.582031 68.800781 L 53.816406 71.628906 L 54.496094 72.863281 L 54.222656 74.503906 "/>
<path style="fill:none;stroke-width:2;stroke-linecap:round;stroke-linejoin:round;stroke:rgb(60%,70.196078%,80%);stroke-opacity:1;stroke-miterlimit:10;" d="M 36.804688 -3 L 36.734375 -1.785156 L 35.492188 0.960938 L 35.390625 2.167969 L 36.125 3.804688 L 37.617188 4.769531 L 40.183594 4.328125 L 40.984375 5.09375 L 40.886719 7.757813 L 41.957031 12.457031 L 44.171875 14.828125 L 46.183594 18.894531 L 46.414063 20.523438 L 49.253906 25.15625 L 50.050781 26.257813 L 52.421875 28.421875 "/>
</g>
</svg>

