<?xml version="1.0" encoding="UTF-8"?>
<svg xmlns="http://www.w3.org/2000/svg" xmlns:xlink="http://www.w3.org/1999/xlink" width="256pt" height="256pt" viewBox="0 0 256 256" version="1.1">
<g id="surface2">
<rect x="0" y="0" width="256" height="256" style="fill:rgb(94.901961%,93.72549%,91.372549%);fill-opacity:1;stroke:none;"/>
<path style="fill:none;stroke-width:8;stroke-linecap:round;stroke-linejoin:round;stroke:rgb(75.686275%,70.980392%,61.568627%);stroke-opacity:1;stroke-miterlimit:10;" d="M 225.640625 240.296875 L 223.40625 242.8125 L 220.328125 244.59375 L 218.253906 245.929688 "/>
<path style="fill:none;stroke-width:8;stroke-linecap:round;stroke-linejoin:round;stroke:rgb(75.686275%,70.980392%,61.568627%);stroke-opacity:1;stroke-miterlimit:10;" d="M 214.644531 243.636719 L 218.253906 245.929688 L 214.96875 248.285156 L 211.007813 248.285156 L 208.375 244.976563 L 211.007813 242.652344 L 214.644531 243.636719 "/>
<path style="fill:none;stroke-width:8;stroke-linecap:round;stroke-linejoin:round;stroke:rgb(75.686275%,70.980392%,61.568627%);stroke-opacity:1;stroke-miterlimit:10;" d="M 228.019531 264 L 225.640625 240.296875 L 222.589844 209.988281 L 219.488281 184.457031 L 209.890625 99.582031 L 199.941406 12.316406 L 197.429688 -9 "/>
<path style="fill:none;stroke-width:6;stroke-linecap:round;stroke-linejoin:round;stroke:rgb(100%,100%,100%);stroke-opacity:1;stroke-miterlimit:10;" d="M 225.640625 240.296875 L 223.40625 242.8125 L 220.328125 244.59375 L 218.253906 245.929688 "/>
<path style="fill:none;stroke-width:6;stroke-linecap:round;stroke-linejoin:round;stroke:rgb(100%,100%,100%);stroke-opacity:1;stroke-miterlimit:10;" d="M 214.644531 243.636719 L 218.253906 245.929688 L 214.96875 248.285156 L 211.007813 248.285156 L 208.375 244.976563 L 211.007813 242.652344 L 214.644531 243.636719 "/>
<path style="fill:none;stroke-width:6;stroke-linecap:round;stroke-linejoin:round;stroke:rgb(100%,100%,100%);stroke-opacity:1;stroke-miterlimit:10;" d="M 228.019531 264 L 225.640625 240.296875 L 222.589844 209.988281 L 219.488281 184.457031 L 209.890625 99.582031 L 199.941406 12.316406 L 197.429688 -9 "/>
<path style="fill:none;stroke-width:3;stroke-linecap:round;stroke-linejoin:round;stroke:rgb(100%,100%,100%);stroke-opacity:1;stroke-miterlimit:10;" d="M 211.617188 87.179688 L 208.617188 87.523438 L 208.757813 88.742188 C 208.808594 89.1875 208.980469 89.523438 209.273438 89.742188 C 209.5625 89.960938 209.949219 90.042969 210.429688 89.992188 C 210.898438 89.9375 211.246094 89.773438 211.476563 89.492188 C 211.714844 89.210938 211.808594 88.84375 211.757813 88.398438 Z M 212.398438 86.117188 L 212.648438 88.304688 C 212.742188 89.105469 212.605469 89.734375 212.242188 90.195313 C 211.886719 90.652344 211.324219 90.921875 210.554688 91.007813 C 209.761719 91.101563 209.140625 90.964844 208.695313 90.601563 C 208.246094 90.234375 207.976563 89.652344 207.882813 88.851563 L 207.742188 87.632813 L 204.539063 87.992188 L 204.429688 87.023438 Z M 208.855469 97.140625 L 208.371094 97.203125 L 207.917969 93.125 C 207.238281 93.238281 206.746094 93.484375 206.433594 93.859375 C 206.121094 94.234375 206 94.710938 206.074219 95.296875 C 206.105469 95.628906 206.183594 95.945313 206.308594 96.25 C 206.441406 96.5625 206.613281 96.867188 206.824219 97.171875 L 205.917969 97.28125 C 205.71875 96.96875 205.5625 96.648438 205.449219 96.328125 C 205.332031 96.003906 205.253906 95.675781 205.214844 95.34375 C 205.121094 94.476563 205.316406 93.765625 205.808594 93.203125 C 206.308594 92.640625 207.035156 92.304688 207.996094 92.203125 C 208.964844 92.085938 209.761719 92.234375 210.386719 92.640625 C 211.011719 93.046875 211.371094 93.65625 211.464844 94.46875 C 211.546875 95.1875 211.355469 95.785156 210.886719 96.265625 C 210.417969 96.753906 209.738281 97.046875 208.855469 97.140625 Z M 209.058594 96.21875 C 209.589844 96.144531 210 95.957031 210.292969 95.65625 C 210.582031 95.363281 210.703125 95.003906 210.652344 94.578125 C 210.597656 94.078125 210.394531 93.691406 210.042969 93.421875 C 209.699219 93.160156 209.25 93.039063 208.699219 93.0625 Z M 209.078125 101.070313 C 209.003906 100.351563 208.859375 99.859375 208.640625 99.601563 C 208.421875 99.351563 208.09375 99.25 207.65625 99.304688 C 207.3125 99.34375 207.046875 99.480469 206.859375 99.710938 C 206.679688 99.9375 206.613281 100.230469 206.65625 100.585938 C 206.707031 101.085938 206.941406 101.460938 207.359375 101.710938 C 207.785156 101.960938 208.316406 102.046875 208.953125 101.976563 L 209.1875 101.945313 Z M 209.6875 102.789063 L 206.265625 103.179688 L 206.171875 102.289063 L 207.078125 102.179688 C 206.691406 102.011719 206.394531 101.789063 206.1875 101.507813 C 205.976563 101.234375 205.847656 100.882813 205.796875 100.445313 C 205.734375 99.890625 205.851563 99.433594 206.15625 99.070313 C 206.46875 98.714844 206.910156 98.5 207.484375 98.429688 C 208.160156 98.355469 208.691406 98.5 209.078125 98.867188 C 209.460938 99.230469 209.703125 99.820313 209.796875 100.632813 L 209.9375 101.867188 L 210.03125 101.851563 C 210.488281 101.796875 210.828125 101.625 211.046875 101.335938 C 211.265625 101.042969 211.347656 100.652344 211.296875 100.164063 C 211.253906 99.859375 211.175781 99.5625 211.0625 99.273438 C 210.945313 98.980469 210.789063 98.714844 210.59375 98.476563 L 211.5 98.382813 C 211.6875 98.683594 211.828125 98.980469 211.921875 99.273438 C 212.015625 99.574219 212.078125 99.871094 212.109375 100.164063 C 212.203125 100.933594 212.046875 101.539063 211.640625 101.976563 C 211.242188 102.414063 210.59375 102.683594 209.6875 102.789063 Z M 212.667969 108.199219 L 211.746094 108.308594 C 211.871094 108.035156 211.957031 107.769531 212.011719 107.511719 C 212.0625 107.261719 212.074219 107.011719 212.042969 106.761719 C 211.980469 106.175781 211.722656 105.746094 211.277344 105.464844 C 210.839844 105.191406 210.253906 105.097656 209.527344 105.183594 C 208.796875 105.265625 208.25 105.488281 207.886719 105.855469 C 207.519531 106.21875 207.371094 106.691406 207.433594 107.277344 C 207.464844 107.527344 207.527344 107.769531 207.621094 108.011719 C 207.722656 108.25 207.871094 108.488281 208.058594 108.730469 L 207.152344 108.824219 C 206.984375 108.59375 206.855469 108.347656 206.761719 108.089844 C 206.667969 107.839844 206.605469 107.566406 206.574219 107.277344 C 206.480469 106.453125 206.6875 105.769531 207.199219 105.230469 C 207.707031 104.699219 208.449219 104.375 209.417969 104.261719 C 210.386719 104.15625 211.171875 104.3125 211.777344 104.730469 C 212.390625 105.144531 212.746094 105.777344 212.839844 106.621094 C 212.871094 106.890625 212.871094 107.15625 212.839844 107.417969 C 212.816406 107.6875 212.761719 107.949219 212.667969 108.199219 Z M 210.839844 114.636719 L 210.355469 114.683594 L 209.902344 110.605469 C 209.222656 110.71875 208.730469 110.964844 208.417969 111.339844 C 208.105469 111.714844 207.980469 112.191406 208.042969 112.777344 C 208.082031 113.109375 208.167969 113.425781 208.292969 113.730469 C 208.425781 114.042969 208.597656 114.347656 208.808594 114.652344 L 207.902344 114.761719 C 207.703125 114.449219 207.546875 114.128906 207.433594 113.808594 C 207.316406 113.484375 207.238281 113.15625 207.199219 112.824219 C 207.105469 111.957031 207.300781 111.246094 207.792969 110.683594 C 208.292969 110.121094 209.019531 109.785156 209.980469 109.683594 C 210.949219 109.566406 211.746094 109.714844 212.371094 110.121094 C 212.996094 110.535156 213.355469 111.152344 213.449219 111.964844 C 213.53125 112.683594 213.339844 113.28125 212.871094 113.761719 C 212.402344 114.238281 211.722656 114.53125 210.839844 114.636719 Z M 211.042969 113.699219 C 211.5625 113.636719 211.96875 113.453125 212.261719 113.152344 C 212.5625 112.859375 212.6875 112.5 212.636719 112.074219 C 212.582031 111.574219 212.378906 111.1875 212.027344 110.917969 C 211.683594 110.644531 211.234375 110.519531 210.683594 110.542969 Z M 211.058594 118.550781 C 210.984375 117.832031 210.839844 117.339844 210.621094 117.082031 C 210.402344 116.832031 210.074219 116.730469 209.636719 116.785156 C 209.292969 116.824219 209.027344 116.960938 208.839844 117.191406 C 208.660156 117.417969 208.59375 117.710938 208.636719 118.066406 C 208.6875 118.566406 208.921875 118.941406 209.339844 119.191406 C 209.765625 119.441406 210.296875 119.527344 210.933594 119.457031 L 211.167969 119.425781 Z M 211.667969 120.269531 L 208.246094 120.660156 L 208.152344 119.769531 L 209.058594 119.660156 C 208.671875 119.492188 208.375 119.269531 208.167969 118.988281 C 207.957031 118.714844 207.828125 118.363281 207.777344 117.925781 C 207.714844 117.371094 207.832031 116.914063 208.136719 116.550781 C 208.449219 116.195313 208.890625 115.980469 209.464844 115.910156 C 210.140625 115.835938 210.671875 115.980469 211.058594 116.347656 C 211.441406 116.710938 211.683594 117.300781 211.777344 118.113281 L 211.917969 119.347656 L 212.011719 119.332031 C 212.46875 119.277344 212.808594 119.105469 213.027344 118.816406 C 213.246094 118.523438 213.328125 118.132813 213.277344 117.644531 C 213.234375 117.339844 213.15625 117.042969 213.042969 116.753906 C 212.925781 116.460938 212.769531 116.195313 212.574219 115.957031 L 213.480469 115.863281 C 213.667969 116.164063 213.808594 116.460938 213.902344 116.753906 C 213.996094 117.054688 214.058594 117.351563 214.089844 117.644531 C 214.183594 118.414063 214.027344 119.019531 213.621094 119.457031 C 213.222656 119.894531 212.574219 120.164063 211.667969 120.269531 Z M 211.878906 125.980469 C 212.597656 125.90625 213.144531 125.714844 213.519531 125.402344 C 213.902344 125.089844 214.070313 124.703125 214.019531 124.246094 C 213.964844 123.765625 213.714844 123.417969 213.269531 123.199219 C 212.832031 122.980469 212.253906 122.90625 211.535156 122.980469 C 210.804688 123.0625 210.253906 123.261719 209.878906 123.574219 C 209.503906 123.886719 209.339844 124.28125 209.394531 124.761719 C 209.445313 125.21875 209.691406 125.558594 210.128906 125.777344 C 210.566406 125.996094 211.148438 126.0625 211.878906 125.980469 Z M 213.628906 122.746094 C 214.003906 122.890625 214.289063 123.09375 214.488281 123.355469 C 214.683594 123.625 214.804688 123.964844 214.847656 124.371094 C 214.917969 125.015625 214.691406 125.574219 214.160156 126.042969 C 213.636719 126.511719 212.910156 126.796875 211.972656 126.902344 C 211.023438 127.015625 210.238281 126.902344 209.613281 126.558594 C 208.996094 126.214844 208.652344 125.71875 208.582031 125.074219 C 208.539063 124.667969 208.585938 124.3125 208.722656 124.011719 C 208.867188 123.707031 209.113281 123.441406 209.457031 123.214844 L 208.550781 123.324219 L 208.441406 122.433594 L 216.753906 121.496094 L 216.863281 122.386719 Z M 217.476563 127.785156 L 217.570313 128.660156 L 209.257813 129.597656 L 209.164063 128.722656 Z M 213.222656 135.6875 L 212.738281 135.734375 L 212.285156 131.65625 C 211.605469 131.769531 211.113281 132.015625 210.800781 132.390625 C 210.488281 132.765625 210.363281 133.242188 210.425781 133.828125 C 210.464844 134.160156 210.550781 134.476563 210.675781 134.78125 C 210.808594 135.09375 210.980469 135.398438 211.191406 135.703125 L 210.285156 135.8125 C 210.085938 135.5 209.929688 135.179688 209.816406 134.859375 C 209.699219 134.535156 209.621094 134.207031 209.582031 133.875 C 209.488281 133.007813 209.683594 132.296875 210.175781 131.734375 C 210.675781 131.171875 211.402344 130.835938 212.363281 130.734375 C 213.332031 130.617188 214.128906 130.765625 214.753906 131.171875 C 215.378906 131.585938 215.738281 132.203125 215.832031 133.015625 C 215.914063 133.734375 215.722656 134.332031 215.253906 134.8125 C 214.785156 135.289063 214.105469 135.582031 213.222656 135.6875 Z M 213.425781 134.75 C 213.945313 134.6875 214.351563 134.503906 214.644531 134.203125 C 214.945313 133.910156 215.070313 133.550781 215.019531 133.125 C 214.964844 132.625 214.761719 132.238281 214.410156 131.96875 C 214.066406 131.695313 213.617188 131.570313 213.066406 131.59375 Z M 218.699219 144.082031 L 217.652344 144.207031 C 217.808594 143.820313 217.910156 143.457031 217.964844 143.113281 C 218.027344 142.769531 218.042969 142.449219 218.011719 142.160156 C 217.949219 141.628906 217.785156 141.230469 217.527344 140.972656 C 217.265625 140.710938 216.933594 140.601563 216.527344 140.644531 C 216.171875 140.683594 215.910156 140.808594 215.746094 141.019531 C 215.589844 141.226563 215.484375 141.605469 215.433594 142.160156 L 215.371094 142.753906 C 215.296875 143.492188 215.082031 144.054688 214.730469 144.441406 C 214.386719 144.835938 213.890625 145.070313 213.246094 145.144531 C 212.472656 145.226563 211.859375 145.054688 211.402344 144.628906 C 210.953125 144.210938 210.675781 143.554688 210.574219 142.660156 C 210.542969 142.316406 210.546875 141.945313 210.589844 141.550781 C 210.628906 141.152344 210.714844 140.746094 210.839844 140.332031 L 211.933594 140.207031 C 211.734375 140.621094 211.59375 141.027344 211.511719 141.425781 C 211.425781 141.820313 211.40625 142.199219 211.449219 142.566406 C 211.511719 143.105469 211.675781 143.519531 211.949219 143.800781 C 212.230469 144.082031 212.59375 144.195313 213.042969 144.144531 C 213.4375 144.089844 213.734375 143.945313 213.933594 143.707031 C 214.128906 143.464844 214.261719 143.089844 214.324219 142.582031 L 214.386719 141.972656 C 214.449219 141.230469 214.628906 140.679688 214.933594 140.316406 C 215.246094 139.960938 215.707031 139.753906 216.324219 139.691406 C 217.019531 139.609375 217.597656 139.761719 218.058594 140.160156 C 218.515625 140.554688 218.792969 141.148438 218.886719 141.941406 C 218.925781 142.273438 218.925781 142.617188 218.886719 142.972656 C 218.855469 143.335938 218.792969 143.707031 218.699219 144.082031 Z M 218.980469 146.855469 L 217.292969 147.058594 L 217.496094 148.886719 L 216.730469 148.964844 L 216.527344 147.136719 L 213.277344 147.511719 C 212.785156 147.5625 212.480469 147.65625 212.355469 147.792969 C 212.238281 147.925781 212.203125 148.183594 212.246094 148.558594 L 212.339844 149.464844 L 211.511719 149.558594 L 211.417969 148.652344 C 211.332031 147.964844 211.421875 147.472656 211.683594 147.183594 C 211.941406 146.902344 212.441406 146.71875 213.183594 146.636719 L 216.433594 146.261719 L 216.355469 145.605469 L 217.121094 145.527344 L 217.199219 146.183594 L 218.886719 145.980469 Z M 217.058594 153.253906 C 217.109375 153.148438 217.144531 153.035156 217.167969 152.910156 C 217.1875 152.792969 217.1875 152.667969 217.167969 152.535156 C 217.113281 152.023438 216.890625 151.652344 216.496094 151.425781 C 216.097656 151.207031 215.566406 151.132813 214.902344 151.207031 L 211.746094 151.566406 L 211.636719 150.675781 L 217.621094 150.003906 L 217.730469 150.894531 L 216.792969 150.988281 C 217.175781 151.144531 217.46875 151.355469 217.667969 151.628906 C 217.875 151.910156 218.003906 152.261719 218.058594 152.691406 C 218.066406 152.742188 218.074219 152.804688 218.074219 152.878906 C 218.082031 152.960938 218.082031 153.042969 218.074219 153.128906 Z M 215.859375 158.992188 L 215.375 159.039063 L 214.921875 154.960938 C 214.242188 155.074219 213.75 155.320313 213.4375 155.695313 C 213.125 156.070313 213 156.546875 213.0625 157.132813 C 213.101563 157.464844 213.1875 157.78125 213.3125 158.085938 C 213.445313 158.398438 213.617188 158.703125 213.828125 159.007813 L 212.921875 159.117188 C 212.722656 158.804688 212.566406 158.484375 212.453125 158.164063 C 212.335938 157.839844 212.257813 157.511719 212.21875 157.179688 C 212.125 156.3125 212.320313 155.601563 212.8125 155.039063 C 213.3125 154.476563 214.039063 154.140625 215 154.039063 C 215.96875 153.921875 216.765625 154.070313 217.390625 154.476563 C 218.015625 154.890625 218.375 155.507813 218.46875 156.320313 C 218.550781 157.039063 218.359375 157.636719 217.890625 158.117188 C 217.421875 158.59375 216.742188 158.886719 215.859375 158.992188 Z M 216.0625 158.054688 C 216.582031 157.992188 216.988281 157.808594 217.28125 157.507813 C 217.582031 157.214844 217.707031 156.855469 217.65625 156.429688 C 217.601563 155.929688 217.398438 155.542969 217.046875 155.273438 C 216.703125 155 216.253906 154.875 215.703125 154.898438 Z M 216.542969 165.046875 L 216.058594 165.09375 L 215.605469 161.015625 C 214.925781 161.128906 214.433594 161.375 214.121094 161.75 C 213.808594 162.125 213.683594 162.601563 213.746094 163.1875 C 213.785156 163.519531 213.871094 163.835938 213.996094 164.140625 C 214.128906 164.453125 214.300781 164.757813 214.511719 165.0625 L 213.605469 165.171875 C 213.40625 164.859375 213.25 164.539063 213.136719 164.21875 C 213.019531 163.894531 212.941406 163.566406 212.902344 163.234375 C 212.808594 162.367188 213.003906 161.65625 213.496094 161.09375 C 213.996094 160.53125 214.722656 160.195313 215.683594 160.09375 C 216.652344 159.976563 217.449219 160.125 218.074219 160.53125 C 218.699219 160.945313 219.058594 161.5625 219.152344 162.375 C 219.234375 163.09375 219.042969 163.691406 218.574219 164.171875 C 218.105469 164.648438 217.425781 164.941406 216.542969 165.046875 Z M 216.746094 164.109375 C 217.265625 164.046875 217.671875 163.863281 217.964844 163.5625 C 218.265625 163.269531 218.390625 162.910156 218.339844 162.484375 C 218.285156 161.984375 218.082031 161.597656 217.730469 161.328125 C 217.386719 161.054688 216.9375 160.929688 216.386719 160.953125 Z M 221.242188 166.851563 L 219.554688 167.054688 L 219.757813 168.882813 L 218.992188 168.960938 L 218.789063 167.132813 L 215.539063 167.507813 C 215.046875 167.558594 214.742188 167.652344 214.617188 167.789063 C 214.5 167.921875 214.464844 168.179688 214.507813 168.554688 L 214.601563 169.460938 L 213.773438 169.554688 L 213.679688 168.648438 C 213.59375 167.960938 213.683594 167.46875 213.945313 167.179688 C 214.203125 166.898438 214.703125 166.714844 215.445313 166.632813 L 218.695313 166.257813 L 218.617188 165.601563 L 219.382813 165.523438 L 219.460938 166.179688 L 221.148438 165.976563 Z M 221.242188 166.851563 "/>
<path style=" stroke:none;fill-rule:evenodd;fill:rgb(20%,20%,20%);fill-opacity:1;" d="M 211.617188 87.179688 L 208.617188 87.523438 L 208.757813 88.742188 C 208.808594 89.1875 208.980469 89.523438 209.273438 89.742188 C 209.5625 89.960938 209.949219 90.042969 210.429688 89.992188 C 210.898438 89.9375 211.246094 89.773438 211.476563 89.492188 C 211.714844 89.210938 211.808594 88.84375 211.757813 88.398438 Z M 212.398438 86.117188 L 212.648438 88.304688 C 212.742188 89.105469 212.605469 89.734375 212.242188 90.195313 C 211.886719 90.652344 211.324219 90.921875 210.554688 91.007813 C 209.761719 91.101563 209.140625 90.964844 208.695313 90.601563 C 208.246094 90.234375 207.976563 89.652344 207.882813 88.851563 L 207.742188 87.632813 L 204.539063 87.992188 L 204.429688 87.023438 Z M 208.855469 97.140625 L 208.371094 97.203125 L 207.917969 93.125 C 207.238281 93.238281 206.746094 93.484375 206.433594 93.859375 C 206.121094 94.234375 206 94.710938 206.074219 95.296875 C 206.105469 95.628906 206.183594 95.945313 206.308594 96.25 C 206.441406 96.5625 206.613281 96.867188 206.824219 97.171875 L 205.917969 97.28125 C 205.71875 96.96875 205.5625 96.648438 205.449219 96.328125 C 205.332031 96.003906 205.253906 95.675781 205.214844 95.34375 C 205.121094 94.476563 205.316406 93.765625 205.808594 93.203125 C 206.308594 92.640625 207.035156 92.304688 207.996094 92.203125 C 208.964844 92.085938 209.761719 92.234375 210.386719 92.640625 C 211.011719 93.046875 211.371094 93.65625 211.464844 94.46875 C 211.546875 95.1875 211.355469 95.785156 210.886719 96.265625 C 210.417969 96.753906 209.738281 97.046875 208.855469 97.140625 Z M 209.058594 96.21875 C 209.589844 96.144531 210 95.957031 210.292969 95.65625 C 210.582031 95.363281 210.703125 95.003906 210.652344 94.578125 C 210.597656 94.078125 210.394531 93.691406 210.042969 93.421875 C 209.699219 93.160156 209.25 93.039063 208.699219 93.0625 Z M 209.078125 101.070313 C 209.003906 100.351563 208.859375 99.859375 208.640625 99.601563 C 208.421875 99.351563 208.09375 99.25 207.65625 99.304688 C 207.3125 99.34375 207.046875 99.480469 206.859375 99.710938 C 206.679688 99.9375 206.613281 100.230469 206.65625 100.585938 C 206.707031 101.085938 206.941406 101.460938 207.359375 101.710938 C 207.785156 101.960938 208.316406 102.046875 208.953125 101.976563 L 209.1875 101.945313 Z M 209.6875 102.789063 L 206.265625 103.179688 L 206.171875 102.289063 L 207.078125 102.179688 C 206.691406 102.011719 206.394531 101.789063 206.1875 101.507813 C 205.976563 101.234375 205.847656 100.882813 205.796875 100.445313 C 205.734375 99.890625 205.851563 99.433594 206.15625 99.070313 C 206.46875 98.714844 206.910156 98.5 207.484375 98.429688 C 208.160156 98.355469 208.691406 98.5 209.078125 98.867188 C 209.460938 99.230469 209.703125 99.820313 209.796875 100.632813 L 209.9375 101.867188 L 210.03125 101.851563 C 210.488281 101.796875 210.828125 101.625 211.046875 101.335938 C 211.265625 101.042969 211.347656 100.652344 211.296875 100.164063 C 211.253906 99.859375 211.175781 99.5625 211.0625 99.273438 C 210.945313 98.980469 210.789063 98.714844 210.59375 98.476563 L 211.5 98.382813 C 211.6875 98.683594 211.828125 98.980469 211.921875 99.273438 C 212.015625 99.574219 212.078125 99.871094 212.109375 100.164063 C 212.203125 100.933594 212.046875 101.539063 211.640625 101.976563 C 211.242188 102.414063 210.59375 102.683594 209.6875 102.789063 Z M 212.667969 108.199219 L 211.746094 108.308594 C 211.871094 108.035156 211.957031 107.769531 212.011719 107.511719 C 212.0625 107.261719 212.074219 107.011719 212.042969 106.761719 C 211.980469 106.175781 211.722656 105.746094 211.277344 105.464844 C 210.839844 105.191406 210.253906 105.097656 209.527344 105.183594 C 208.796875 105.265625 208.25 105.488281 207.886719 105.855469 C 207.519531 106.21875 207.371094 106.691406 207.433594 107.277344 C 207.464844 107.527344 207.527344 107.769531 207.621094 108.011719 C 207.722656 108.25 207.871094 108.488281 208.058594 108.730469 L 207.152344 108.824219 C 206.984375 108.59375 206.855469 108.347656 206.761719 108.089844 C 206.667969 107.839844 206.605469 107.566406 206.574219 107.277344 C 206.480469 106.453125 206.6875 105.769531 207.199219 105.230469 C 207.707031 104.699219 208.449219 104.375 209.417969 104.261719 C 210.386719 104.15625 211.171875 104.3125 211.777344 104.730469 C 212.390625 105.144531 212.746094 105.777344 212.839844 106.621094 C 212.871094 106.890625 212.871094 107.15625 212.839844 107.417969 C 212.816406 107.6875 212.761719 107.949219 212.667969 108.199219 Z M 210.839844 114.636719 L 210.355469 114.683594 L 209.902344 110.605469 C 209.222656 110.71875 208.730469 110.964844 208.417969 111.339844 C 208.105469 111.714844 207.980469 112.191406 208.042969 112.777344 C 208.082031 113.109375 208.167969 113.425781 208.292969 113.730469 C 208.425781 114.042969 208.597656 114.347656 208.808594 114.652344 L 207.902344 114.761719 C 207.703125 114.449219 207.546875 114.128906 207.433594 113.808594 C 207.316406 113.484375 207.238281 113.15625 207.199219 112.824219 C 207.105469 111.957031 207.300781 111.246094 207.792969 110.683594 C 208.292969 110.121094 209.019531 109.785156 209.980469 109.683594 C 210.949219 109.566406 211.746094 109.714844 212.371094 110.121094 C 212.996094 110.535156 213.355469 111.152344 213.449219 111.964844 C 213.53125 112.683594 213.339844 113.28125 212.871094 113.761719 C 212.402344 114.238281 211.722656 114.53125 210.839844 114.636719 Z M 211.042969 113.699219 C 211.5625 113.636719 211.96875 113.453125 212.261719 113.152344 C 212.5625 112.859375 212.6875 112.5 212.636719 112.074219 C 212.582031 111.574219 212.378906 111.1875 212.027344 110.917969 C 211.683594 110.644531 211.234375 110.519531 210.683594 110.542969 Z M 211.058594 118.550781 C 210.984375 117.832031 210.839844 117.339844 210.621094 117.082031 C 210.402344 116.832031 210.074219 116.730469 209.636719 116.785156 C 209.292969 116.824219 209.027344 116.960938 208.839844 117.191406 C 208.660156 117.417969 208.59375 117.710938 208.636719 118.066406 C 208.6875 118.566406 208.921875 118.941406 209.339844 119.191406 C 209.765625 119.441406 210.296875 119.527344 210.933594 119.457031 L 211.167969 119.425781 Z M 211.667969 120.269531 L 208.246094 120.660156 L 208.152344 119.769531 L 209.058594 119.660156 C 208.671875 119.492188 208.375 119.269531 208.167969 118.988281 C 207.957031 118.714844 207.828125 118.363281 207.777344 117.925781 C 207.714844 117.371094 207.832031 116.914063 208.136719 116.550781 C 208.449219 116.195313 208.890625 115.980469 209.464844 115.910156 C 210.140625 115.835938 210.671875 115.980469 211.058594 116.347656 C 211.441406 116.710938 211.683594 117.300781 211.777344 118.113281 L 211.917969 119.347656 L 212.011719 119.332031 C 212.46875 119.277344 212.808594 119.105469 213.027344 118.816406 C 213.246094 118.523438 213.328125 118.132813 213.277344 117.644531 C 213.234375 117.339844 213.15625 117.042969 213.042969 116.753906 C 212.925781 116.460938 212.769531 116.195313 212.574219 115.957031 L 213.480469 115.863281 C 213.667969 116.164063 213.808594 116.460938 213.902344 116.753906 C 213.996094 117.054688 214.058594 117.351563 214.089844 117.644531 C 214.183594 118.414063 214.027344 119.019531 213.621094 119.457031 C 213.222656 119.894531 212.574219 120.164063 211.667969 120.269531 Z M 211.878906 125.980469 C 212.597656 125.90625 213.144531 125.714844 213.519531 125.402344 C 213.902344 125.089844 214.070313 124.703125 214.019531 124.246094 C 213.964844 123.765625 213.714844 123.417969 213.269531 123.199219 C 212.832031 122.980469 212.253906 122.90625 211.535156 122.980469 C 210.804688 123.0625 210.253906 123.261719 209.878906 123.574219 C 209.503906 123.886719 209.339844 124.28125 209.394531 124.761719 C 209.445313 125.21875 209.691406 125.558594 210.128906 125.777344 C 210.566406 125.996094 211.148438 126.0625 211.878906 125.980469 Z M 213.628906 122.746094 C 214.003906 122.890625 214.289063 123.09375 214.488281 123.355469 C 214.683594 123.625 214.804688 123.964844 214.847656 124.371094 C 214.917969 125.015625 214.691406 125.574219 214.160156 126.042969 C 213.636719 126.511719 212.910156 126.796875 211.972656 126.902344 C 211.023438 127.015625 210.238281 126.902344 209.613281 126.558594 C 208.996094 126.214844 208.652344 125.71875 208.582031 125.074219 C 208.539063 124.667969 208.585938 124.3125 208.722656 124.011719 C 208.867188 123.707031 209.113281 123.441406 209.457031 123.214844 L 208.550781 123.324219 L 208.441406 122.433594 L 216.753906 121.496094 L 216.863281 122.386719 Z M 217.476563 127.785156 L 217.570313 128.660156 L 209.257813 129.597656 L 209.164063 128.722656 Z M 213.222656 135.6875 L 212.738281 135.734375 L 212.285156 131.65625 C 211.605469 131.769531 211.113281 132.015625 210.800781 132.390625 C 210.488281 132.765625 210.363281 133.242188 210.425781 133.828125 C 210.464844 134.160156 210.550781 134.476563 210.675781 134.78125 C 210.808594 135.09375 210.980469 135.398438 211.191406 135.703125 L 210.285156 135.8125 C 210.085938 135.5 209.929688 135.179688 209.816406 134.859375 C 209.699219 134.535156 209.621094 134.207031 209.582031 133.875 C 209.488281 133.007813 209.683594 132.296875 210.175781 131.734375 C 210.675781 131.171875 211.402344 130.835938 212.363281 130.734375 C 213.332031 130.617188 214.128906 130.765625 214.753906 131.171875 C 215.378906 131.585938 215.738281 132.203125 215.832031 133.015625 C 215.914063 133.734375 215.722656 134.332031 215.253906 134.8125 C 214.785156 135.289063 214.105469 135.582031 213.222656 135.6875 Z M 213.425781 134.75 C 213.945313 134.6875 214.351563 134.503906 214.644531 134.203125 C 214.945313 133.910156 215.070313 133.550781 215.019531 133.125 C 214.964844 132.625 214.761719 132.238281 214.410156 131.96875 C 214.066406 131.695313 213.617188 131.570313 213.066406 131.59375 Z M 218.699219 144.082031 L 217.652344 144.207031 C 217.808594 143.820313 217.910156 143.457031 217.964844 143.113281 C 218.027344 142.769531 218.042969 142.449219 218.011719 142.160156 C 217.949219 141.628906 217.785156 141.230469 217.527344 140.972656 C 217.265625 140.710938 216.933594 140.601563 216.527344 140.644531 C 216.171875 140.683594 215.910156 140.808594 215.746094 141.019531 C 215.589844 141.226563 215.484375 141.605469 215.433594 142.160156 L 215.371094 142.753906 C 215.296875 143.492188 215.082031 144.054688 214.730469 144.441406 C 214.386719 144.835938 213.890625 145.070313 213.246094 145.144531 C 212.472656 145.226563 211.859375 145.054688 211.402344 144.628906 C 210.953125 144.210938 210.675781 143.554688 210.574219 142.660156 C 210.542969 142.316406 210.546875 141.945313 210.589844 141.550781 C 210.628906 141.152344 210.714844 140.746094 210.839844 140.332031 L 211.933594 140.207031 C 211.734375 140.621094 211.59375 141.027344 211.511719 141.425781 C 211.425781 141.820313 211.40625 142.199219 211.449219 142.566406 C 211.511719 143.105469 211.675781 143.519531 211.949219 143.800781 C 212.230469 144.082031 212.59375 144.195313 213.042969 144.144531 C 213.4375 144.089844 213.734375 143.945313 213.933594 143.707031 C 214.128906 143.464844 214.261719 143.089844 214.324219 142.582031 L 214.386719 141.972656 C 214.449219 141.230469 214.628906 140.679688 214.933594 140.316406 C 215.246094 139.960938 215.707031 139.753906 216.324219 139.691406 C 217.019531 139.609375 217.597656 139.761719 218.058594 140.160156 C 218.515625 140.554688 218.792969 141.148438 218.886719 141.941406 C 218.925781 142.273438 218.925781 142.617188 218.886719 142.972656 C 218.855469 143.335938 218.792969 143.707031 218.699219 144.082031 Z M 218.980469 146.855469 L 217.292969 147.058594 L 217.496094 148.886719 L 216.730469 148.964844 L 216.527344 147.136719 L 213.277344 147.511719 C 212.785156 147.5625 212.480469 147.65625 212.355469 147.792969 C 212.238281 147.925781 212.203125 148.183594 212.246094 148.558594 L 212.339844 149.464844 L 211.511719 149.558594 L 211.417969 148.652344 C 211.332031 147.964844 211.421875 147.472656 211.683594 147.183594 C 211.941406 146.902344 212.441406 146.71875 213.183594 146.636719 L 216.433594 146.261719 L 216.355469 145.605469 L 217.121094 145.527344 L 217.199219 146.183594 L 218.886719 145.980469 Z M 217.058594 153.253906 C 217.109375 153.148438 217.144531 153.035156 217.167969 152.910156 C 217.1875 152.792969 217.1875 152.667969 217.167969 152.535156 C 217.113281 152.023438 216.890625 151.652344 216.496094 151.425781 C 216.097656 151.207031 215.566406 151.132813 214.902344 151.207031 L 211.746094 151.566406 L 211.636719 150.675781 L 217.621094 150.003906 L 217.730469 150.894531 L 216.792969 150.988281 C 217.175781 151.144531 217.46875 151.355469 217.667969 151.628906 C 217.875 151.910156 218.003906 152.261719 218.058594 152.691406 C 218.066406 152.742188 218.074219 152.804688 218.074219 152.878906 C 218.082031 152.960938 218.082031 153.042969 218.074219 153.128906 Z M 215.859375 158.992188 L 215.375 159.039063 L 214.921875 154.960938 C 214.242188 155.074219 213.75 155.320313 213.4375 155.695313 C 213.125 156.070313 213 156.546875 213.0625 157.132813 C 213.101563 157.464844 213.1875 157.78125 213.3125 158.085938 C 213.445313 158.398438 213.617188 158.703125 213.828125 159.007813 L 212.921875 159.117188 C 212.722656 158.804688 212.566406 158.484375 212.453125 158.164063 C 212.335938 157.839844 212.257813 157.511719 212.21875 157.179688 C 212.125 156.3125 212.320313 155.601563 212.8125 155.039063 C 213.3125 154.476563 214.039063 154.140625 215 154.039063 C 215.96875 153.921875 216.765625 154.070313 217.390625 154.476563 C 218.015625 154.890625 218.375 155.507813 218.46875 156.320313 C 218.550781 157.039063 218.359375 157.636719 217.890625 158.117188 C 217.421875 158.59375 216.742188 158.886719 215.859375 158.992188 Z M 216.0625 158.054688 C 216.582031 157.992188 216.988281 157.808594 217.28125 157.507813 C 217.582031 157.214844 217.707031 156.855469 217.65625 156.429688 C 217.601563 155.929688 217.398438 155.542969 217.046875 155.273438 C 216.703125 155 216.253906 154.875 215.703125 154.898438 Z M 216.542969 165.046875 L 216.058594 165.09375 L 215.605469 161.015625 C 214.925781 161.128906 214.433594 161.375 214.121094 161.75 C 213.808594 162.125 213.683594 162.601563 213.746094 163.1875 C 213.785156 163.519531 213.871094 163.835938 213.996094 164.140625 C 214.128906 164.453125 214.300781 164.757813 214.511719 165.0625 L 213.605469 165.171875 C 213.40625 164.859375 213.25 164.539063 213.136719 164.21875 C 213.019531 163.894531 212.941406 163.566406 212.902344 163.234375 C 212.808594 162.367188 213.003906 161.65625 213.496094 161.09375 C 213.996094 160.53125 214.722656 160.195313 215.683594 160.09375 C 216.652344 159.976563 217.449219 160.125 218.074219 160.53125 C 218.699219 160.945313 219.058594 161.5625 219.152344 162.375 C 219.234375 163.09375 219.042969 163.691406 218.574219 164.171875 C 218.105469 164.648438 217.425781 164.941406 216.542969 165.046875 Z M 216.746094 164.109375 C 217.265625 164.046875 217.671875 163.863281 217.964844 163.5625 C 218.265625 163.269531 218.390625 162.910156 218.339844 162.484375 C 218.285156 161.984375 218.082031 161.597656 217.730469 161.328125 C 217.386719 161.054688 216.9375 160.929688 216.386719 160.953125 Z M 221.242188 166.851563 L 219.554688 167.054688 L 219.757813 168.882813 L 218.992188 168.960938 L 218.789063 167.132813 L 215.539063 167.507813 C 215.046875 167.558594 214.742188 167.652344 214.617188 167.789063 C 214.5 167.921875 214.464844 168.179688 214.507813 168.554688 L 214.601563 169.460938 L 213.773438 169.554688 L 213.679688 168.648438 C 213.59375 167.960938 213.683594 167.46875 213.945313 167.179688 C 214.203125 166.898438 214.703125 166.714844 215.445313 166.632813 L 218.695313 166.257813 L 218.617188 165.601563 L 219.382813 165.523438 L 219.460938 166.179688 L 221.148438 165.976563 Z M 221.242188 166.851563 "/>
</g>
</svg>

