<?xml version="1.0" encoding="UTF-8"?>
<svg xmlns="http://www.w3.org/2000/svg" xmlns:xlink="http://www.w3.org/1999/xlink" width="256pt" height="256pt" viewBox="0 0 256 256" version="1.1">
<g id="surface2">
<rect x="0" y="0" width="256" height="256" style="fill:rgb(94.901961%,93.72549%,91.372549%);fill-opacity:1;stroke:none;"/>
<path style=" stroke:none;fill-rule:evenodd;fill:rgb(60%,70.196078%,80%);fill-opacity:1;" d="M 142.539063 259 L 139.238281 253.765625 L 139.167969 248.648438 L 143.425781 238.734375 L 148.347656 230.691406 L 146.550781 221.976563 L 143.425781 219.183594 L 139.105469 221.3125 L 136.707031 228.226563 L 135.84375 234.875 L 136.574219 242.394531 L 136.242188 247.847656 L 129.390625 252.902344 L 128.992188 256.027344 L 130.058594 258.289063 L 131.0625 259 Z M 142.539063 259 "/>
<path style="fill:none;stroke-width:1;stroke-linecap:round;stroke-linejoin:round;stroke:rgb(70.196078%,77.647059%,83.137255%);stroke-opacity:1;stroke-miterlimit:10;" d="M 142.539063 259 L 139.238281 253.765625 L 139.167969 248.648438 L 143.425781 238.734375 L 148.347656 230.691406 L 146.550781 221.976563 L 143.425781 219.183594 L 139.105469 221.3125 L 136.707031 228.226563 L 135.84375 234.875 L 136.574219 242.394531 L 136.242188 247.847656 L 129.390625 252.902344 L 128.992188 256.027344 L 130.058594 258.289063 L 131.0625 259 L 142.539063 259 "/>
</g>
</svg>

