<?xml version="1.0" encoding="UTF-8"?>
<svg xmlns="http://www.w3.org/2000/svg" xmlns:xlink="http://www.w3.org/1999/xlink" width="256pt" height="256pt" viewBox="0 0 256 256" version="1.1">
<g id="surface2">
<rect x="0" y="0" width="256" height="256" style="fill:rgb(94.901961%,93.72549%,91.372549%);fill-opacity:1;stroke:none;"/>
<path style="fill:none;stroke-width:9;stroke-linecap:round;stroke-linejoin:round;stroke:rgb(75.686275%,70.980392%,61.568627%);stroke-opacity:1;stroke-miterlimit:10;" d="M 225.382813 177.816406 L 223.402344 169.90625 L 219.652344 134.707031 "/>
<path style="fill:none;stroke-width:8;stroke-linecap:round;stroke-linejoin:round;stroke:rgb(75.686275%,70.980392%,61.568627%);stroke-opacity:1;stroke-miterlimit:10;" d="M 248.3125 260.335938 L 237.105469 255.207031 L 234.566406 253.3125 L 233.003906 251.152344 L 231.957031 247.851563 L 231.164063 243.507813 L 228.925781 220.628906 L 226.921875 204.679688 L 225.921875 193.863281 L 225.292969 183.273438 L 225.382813 177.816406 L 226.222656 171.542969 L 227.621094 166.933594 L 229.277344 163.566406 L 232.839844 157.878906 L 238.527344 150.460938 L 243.839844 143.890625 L 254.652344 132.160156 L 264 121.585938 "/>
<path style="fill:none;stroke-width:8;stroke-linecap:round;stroke-linejoin:round;stroke:rgb(75.686275%,70.980392%,61.568627%);stroke-opacity:1;stroke-miterlimit:10;" d="M 78.839844 5.476563 L 88.441406 -3.839844 L 94.0625 -9 "/>
<path style="fill:none;stroke-width:8;stroke-linecap:round;stroke-linejoin:round;stroke:rgb(75.686275%,70.980392%,61.568627%);stroke-opacity:1;stroke-miterlimit:10;" d="M 264 163.390625 L 260.6875 162.0625 L 250.457031 157.488281 L 240.367188 151.769531 L 238.527344 150.460938 L 234.007813 147.257813 L 227.949219 142.421875 L 219.652344 134.707031 L 201.804688 117.449219 L 155.527344 70.777344 L 139.632813 54.894531 L 124.582031 38.910156 L 101.582031 16.71875 L 98.132813 14.003906 L 92.496094 10.835938 L 78.839844 5.476563 L 38.039063 -9 "/>
<path style="fill:none;stroke-width:9;stroke-linecap:round;stroke-linejoin:round;stroke:rgb(75.686275%,70.980392%,61.568627%);stroke-opacity:1;stroke-miterlimit:10;" d="M 246.816406 265 L 248.3125 260.335938 L 253.300781 239.453125 L 255.351563 229.617188 L 256.445313 224.714844 L 260.011719 208.636719 L 263.460938 196.511719 L 265 192.019531 "/>
<path style="fill:none;stroke-width:7;stroke-linecap:round;stroke-linejoin:round;stroke:rgb(100%,99.215686%,54.509804%);stroke-opacity:1;stroke-miterlimit:10;" d="M 225.382813 177.816406 L 223.402344 169.90625 L 219.652344 134.707031 "/>
<path style="fill:none;stroke-width:6;stroke-linecap:round;stroke-linejoin:round;stroke:rgb(100%,100%,100%);stroke-opacity:1;stroke-miterlimit:10;" d="M 248.3125 260.335938 L 237.105469 255.207031 L 234.566406 253.3125 L 233.003906 251.152344 L 231.957031 247.851563 L 231.164063 243.507813 L 228.925781 220.628906 L 226.921875 204.679688 L 225.921875 193.863281 L 225.292969 183.273438 L 225.382813 177.816406 L 226.222656 171.542969 L 227.621094 166.933594 L 229.277344 163.566406 L 232.839844 157.878906 L 238.527344 150.460938 L 243.839844 143.890625 L 254.652344 132.160156 L 264 121.585938 "/>
<path style="fill:none;stroke-width:6;stroke-linecap:round;stroke-linejoin:round;stroke:rgb(100%,100%,100%);stroke-opacity:1;stroke-miterlimit:10;" d="M 78.839844 5.476563 L 88.441406 -3.839844 L 94.0625 -9 "/>
<path style="fill:none;stroke-width:6;stroke-linecap:round;stroke-linejoin:round;stroke:rgb(100%,99.215686%,54.509804%);stroke-opacity:1;stroke-miterlimit:10;" d="M 264 163.390625 L 260.6875 162.0625 L 250.457031 157.488281 L 240.367188 151.769531 L 238.527344 150.460938 L 234.007813 147.257813 L 227.949219 142.421875 L 219.652344 134.707031 L 201.804688 117.449219 L 155.527344 70.777344 L 139.632813 54.894531 L 124.582031 38.910156 L 101.582031 16.71875 L 98.132813 14.003906 L 92.496094 10.835938 L 78.839844 5.476563 L 38.039063 -9 "/>
<path style="fill:none;stroke-width:7;stroke-linecap:round;stroke-linejoin:round;stroke:rgb(100%,99.215686%,54.509804%);stroke-opacity:1;stroke-miterlimit:10;" d="M 246.816406 265 L 248.3125 260.335938 L 253.300781 239.453125 L 255.351563 229.617188 L 256.445313 224.714844 L 260.011719 208.636719 L 263.460938 196.511719 L 265 192.019531 "/>
<path style="fill:none;stroke-width:3;stroke-linecap:round;stroke-linejoin:round;stroke:rgb(100%,100%,100%);stroke-opacity:1;stroke-miterlimit:10;" d="M 106.808594 17.417969 L 104.714844 19.589844 L 105.589844 20.433594 C 105.921875 20.757813 106.265625 20.910156 106.621094 20.886719 C 106.984375 20.867188 107.332031 20.683594 107.667969 20.339844 C 108 19.996094 108.167969 19.648438 108.167969 19.292969 C 108.175781 18.929688 108.015625 18.585938 107.683594 18.261719 Z M 106.714844 16.089844 L 108.292969 17.621094 C 108.875 18.183594 109.171875 18.757813 109.183594 19.339844 C 109.203125 19.914063 108.941406 20.480469 108.402344 21.042969 C 107.847656 21.613281 107.28125 21.902344 106.699219 21.902344 C 106.125 21.910156 105.546875 21.636719 104.964844 21.074219 L 104.089844 20.230469 L 101.855469 22.542969 L 101.152344 21.855469 Z M 110.636719 23.609375 C 110.28125 23.277344 109.859375 23.164063 109.371094 23.265625 C 108.878906 23.371094 108.386719 23.683594 107.886719 24.203125 C 107.386719 24.714844 107.09375 25.214844 107.011719 25.703125 C 106.925781 26.191406 107.0625 26.601563 107.417969 26.9375 C 107.761719 27.269531 108.171875 27.378906 108.652344 27.265625 C 109.128906 27.160156 109.621094 26.851563 110.121094 26.34375 C 110.621094 25.820313 110.917969 25.324219 111.011719 24.84375 C 111.105469 24.355469 110.980469 23.945313 110.636719 23.609375 Z M 111.214844 23 C 111.765625 23.53125 112.003906 24.152344 111.933594 24.859375 C 111.859375 25.566406 111.480469 26.28125 110.792969 27 C 110.113281 27.695313 109.421875 28.09375 108.714844 28.1875 C 108.003906 28.289063 107.375 28.078125 106.824219 27.546875 C 106.261719 27.003906 106.015625 26.375 106.089844 25.65625 C 106.160156 24.949219 106.535156 24.246094 107.214844 23.546875 C 107.902344 22.828125 108.597656 22.421875 109.308594 22.328125 C 110.015625 22.234375 110.652344 22.460938 111.214844 23 Z M 115.566406 28.683594 C 115.542969 28.570313 115.496094 28.460938 115.425781 28.355469 C 115.363281 28.253906 115.285156 28.152344 115.191406 28.058594 C 114.816406 27.707031 114.402344 27.570313 113.957031 27.652344 C 113.519531 27.726563 113.066406 28.007813 112.597656 28.496094 L 110.394531 30.777344 L 109.738281 30.152344 L 113.910156 25.824219 L 114.566406 26.449219 L 113.925781 27.121094 C 114.308594 26.988281 114.667969 26.960938 115.003906 27.042969 C 115.347656 27.117188 115.667969 27.300781 115.972656 27.589844 C 116.023438 27.644531 116.070313 27.699219 116.113281 27.761719 C 116.164063 27.816406 116.214844 27.882813 116.269531 27.964844 Z M 118.675781 28.066406 L 117.488281 29.285156 L 118.816406 30.550781 L 118.285156 31.097656 L 116.957031 29.832031 L 114.691406 32.191406 C 114.355469 32.535156 114.183594 32.800781 114.175781 32.988281 C 114.164063 33.175781 114.292969 33.398438 114.566406 33.660156 L 115.222656 34.285156 L 114.644531 34.878906 L 113.988281 34.253906 C 113.488281 33.773438 113.242188 33.335938 113.253906 32.941406 C 113.261719 32.554688 113.527344 32.097656 114.050781 31.566406 L 116.316406 29.207031 L 115.847656 28.753906 L 116.378906 28.207031 L 116.847656 28.660156 L 118.035156 27.441406 Z M 123.335938 32.125 L 124.039063 32.8125 L 121.695313 35.25 L 126.367188 35.0625 L 127.273438 35.9375 L 122.101563 36.125 L 121.898438 41.875 L 120.976563 40.984375 L 121.164063 35.796875 L 118.476563 38.578125 L 117.773438 37.890625 Z M 127.773438 43.402344 L 127.429688 43.746094 L 124.617188 40.761719 C 124.148438 41.253906 123.898438 41.738281 123.867188 42.230469 C 123.84375 42.71875 124.039063 43.175781 124.445313 43.605469 C 124.671875 43.855469 124.929688 44.058594 125.210938 44.214844 C 125.5 44.378906 125.820313 44.527344 126.164063 44.652344 L 125.507813 45.277344 C 125.171875 45.152344 124.859375 44.988281 124.570313 44.792969 C 124.289063 44.605469 124.03125 44.386719 123.804688 44.136719 C 123.210938 43.511719 122.9375 42.816406 122.992188 42.058594 C 123.054688 41.308594 123.429688 40.605469 124.117188 39.949219 C 124.835938 39.285156 125.570313 38.929688 126.320313 38.886719 C 127.070313 38.835938 127.726563 39.105469 128.289063 39.699219 C 128.789063 40.230469 128.992188 40.832031 128.898438 41.496094 C 128.804688 42.152344 128.429688 42.785156 127.773438 43.402344 Z M 127.382813 42.558594 C 127.765625 42.183594 127.984375 41.785156 128.039063 41.371094 C 128.101563 40.957031 127.980469 40.589844 127.679688 40.277344 C 127.335938 39.914063 126.945313 39.730469 126.507813 39.730469 C 126.078125 39.722656 125.648438 39.894531 125.210938 40.246094 Z M 132.15625 47.488281 L 129.515625 49.972656 L 128.90625 49.332031 L 131.515625 46.863281 C 131.929688 46.476563 132.171875 46.113281 132.234375 45.769531 C 132.304688 45.425781 132.207031 45.113281 131.9375 44.832031 C 131.601563 44.480469 131.21875 44.316406 130.78125 44.347656 C 130.34375 44.378906 129.914063 44.597656 129.5 45.003906 L 127.015625 47.332031 L 126.390625 46.660156 L 130.765625 42.535156 L 131.390625 43.207031 L 130.71875 43.847656 C 131.125 43.746094 131.488281 43.738281 131.8125 43.832031 C 132.132813 43.917969 132.429688 44.097656 132.703125 44.378906 C 133.117188 44.828125 133.28125 45.316406 133.1875 45.847656 C 133.101563 46.367188 132.757813 46.914063 132.15625 47.488281 Z M 136.964844 46.609375 L 135.714844 47.78125 L 136.964844 49.125 L 136.417969 49.65625 L 135.167969 48.3125 L 132.777344 50.546875 C 132.421875 50.878906 132.234375 51.140625 132.214844 51.328125 C 132.191406 51.515625 132.3125 51.742188 132.574219 52.015625 L 133.199219 52.6875 L 132.589844 53.25 L 131.964844 52.578125 C 131.496094 52.078125 131.269531 51.632813 131.292969 51.25 C 131.324219 50.863281 131.609375 50.417969 132.152344 49.90625 L 134.542969 47.671875 L 134.105469 47.1875 L 134.652344 46.65625 L 135.089844 47.140625 L 136.339844 45.96875 Z M 135.589844 51.398438 L 137.386719 53.289063 L 136.746094 53.898438 L 134.949219 52.007813 Z M 141.648438 51.140625 L 142.351563 51.84375 L 140.007813 54.15625 L 142.492188 56.6875 L 144.835938 54.375 L 145.507813 55.0625 L 139.789063 60.6875 L 139.117188 60 L 141.835938 57.328125 L 139.351563 54.796875 L 136.632813 57.46875 L 135.929688 56.765625 Z M 146.402344 59.785156 C 146.066406 59.453125 145.65625 59.332031 145.167969 59.425781 C 144.675781 59.519531 144.175781 59.824219 143.667969 60.332031 C 143.15625 60.84375 142.855469 61.34375 142.761719 61.832031 C 142.667969 62.320313 142.785156 62.730469 143.121094 63.066406 C 143.464844 63.410156 143.875 63.527344 144.355469 63.425781 C 144.84375 63.332031 145.34375 63.027344 145.855469 62.519531 C 146.363281 62.007813 146.667969 61.511719 146.761719 61.035156 C 146.863281 60.546875 146.746094 60.128906 146.402344 59.785156 Z M 146.996094 59.191406 C 147.546875 59.734375 147.78125 60.363281 147.699219 61.082031 C 147.613281 61.789063 147.222656 62.492188 146.527344 63.191406 C 145.828125 63.886719 145.125 64.273438 144.417969 64.347656 C 143.707031 64.429688 143.078125 64.199219 142.527344 63.660156 C 141.972656 63.105469 141.738281 62.476563 141.824219 61.769531 C 141.917969 61.074219 142.3125 60.375 143.011719 59.675781 C 143.707031 58.980469 144.40625 58.589844 145.105469 58.503906 C 145.8125 58.410156 146.441406 58.640625 146.996094 59.191406 Z M 146.675781 66.308594 L 144.425781 68.558594 L 143.785156 67.917969 L 149.644531 62.058594 L 150.285156 62.699219 L 149.644531 63.339844 C 150.027344 63.226563 150.382813 63.207031 150.707031 63.277344 C 151.027344 63.351563 151.335938 63.535156 151.628906 63.824219 C 152.085938 64.285156 152.253906 64.863281 152.128906 65.558594 C 152.011719 66.253906 151.621094 66.9375 150.957031 67.605469 C 150.277344 68.28125 149.589844 68.675781 148.894531 68.792969 C 148.195313 68.917969 147.617188 68.75 147.160156 68.292969 C 146.867188 68 146.679688 67.691406 146.597656 67.371094 C 146.523438 67.058594 146.550781 66.703125 146.675781 66.308594 Z M 150.300781 66.964844 C 150.808594 66.453125 151.117188 65.957031 151.222656 65.480469 C 151.324219 65.003906 151.210938 64.597656 150.878906 64.261719 C 150.535156 63.917969 150.121094 63.800781 149.644531 63.902344 C 149.164063 64.007813 148.667969 64.316406 148.160156 64.824219 C 147.636719 65.347656 147.324219 65.84375 147.222656 66.324219 C 147.117188 66.800781 147.238281 67.214844 147.582031 67.558594 C 147.914063 67.890625 148.320313 68.003906 148.800781 67.902344 C 149.277344 67.796875 149.777344 67.484375 150.300781 66.964844 Z M 155.742188 64.84375 L 156.382813 65.484375 L 152.898438 68.96875 L 156.601563 69.03125 L 157.414063 69.828125 L 153.398438 69.78125 L 153.242188 74.15625 L 152.429688 73.34375 L 152.554688 69.3125 L 150.476563 71.390625 L 149.835938 70.75 Z M 158.175781 70.605469 L 158.800781 71.230469 L 154.535156 75.464844 L 153.910156 74.839844 Z M 159.847656 68.949219 L 160.472656 69.574219 L 159.582031 70.464844 L 158.957031 69.839844 Z M 161.597656 77.433594 L 159.019531 79.980469 L 158.394531 79.355469 L 160.941406 76.824219 C 161.347656 76.417969 161.574219 76.042969 161.628906 75.699219 C 161.691406 75.355469 161.585938 75.042969 161.316406 74.761719 C 160.972656 74.417969 160.582031 74.273438 160.144531 74.324219 C 159.714844 74.367188 159.292969 74.597656 158.878906 75.011719 L 156.457031 77.402344 L 155.816406 76.746094 L 160.082031 72.511719 L 160.722656 73.167969 L 160.066406 73.824219 C 160.472656 73.722656 160.835938 73.710938 161.160156 73.792969 C 161.492188 73.867188 161.792969 74.039063 162.066406 74.308594 C 162.492188 74.746094 162.667969 75.230469 162.597656 75.761719 C 162.523438 76.28125 162.191406 76.839844 161.597656 77.433594 Z M 166.378906 76.425781 L 165.160156 77.628906 L 166.441406 78.925781 L 165.910156 79.457031 L 164.628906 78.160156 L 162.300781 80.472656 C 161.957031 80.816406 161.773438 81.082031 161.753906 81.269531 C 161.742188 81.457031 161.867188 81.679688 162.128906 81.941406 L 162.769531 82.582031 L 162.175781 83.160156 L 161.535156 82.519531 C 161.054688 82.027344 160.824219 81.589844 160.847656 81.207031 C 160.867188 80.820313 161.144531 80.371094 161.675781 79.847656 L 164.003906 77.535156 L 163.535156 77.066406 L 164.066406 76.535156 L 164.535156 77.003906 L 165.753906 75.800781 Z M 168.261719 81.738281 C 167.917969 81.394531 167.5 81.269531 167.011719 81.363281 C 166.519531 81.457031 166.019531 81.761719 165.511719 82.269531 C 165 82.769531 164.691406 83.265625 164.589844 83.753906 C 164.496094 84.242188 164.621094 84.660156 164.964844 85.003906 C 165.296875 85.335938 165.703125 85.457031 166.183594 85.363281 C 166.671875 85.269531 167.171875 84.972656 167.683594 84.472656 C 168.191406 83.960938 168.5 83.460938 168.605469 82.972656 C 168.707031 82.484375 168.59375 82.074219 168.261719 81.738281 Z M 168.855469 81.160156 C 169.394531 81.703125 169.625 82.328125 169.542969 83.035156 C 169.457031 83.742188 169.0625 84.445313 168.355469 85.144531 C 167.667969 85.832031 166.964844 86.210938 166.246094 86.285156 C 165.535156 86.367188 164.910156 86.136719 164.371094 85.597656 C 163.816406 85.042969 163.589844 84.414063 163.683594 83.707031 C 163.777344 83 164.167969 82.300781 164.855469 81.613281 C 165.5625 80.917969 166.265625 80.53125 166.964844 80.457031 C 167.671875 80.375 168.300781 80.609375 168.855469 81.160156 Z M 173.003906 88.941406 L 170.425781 91.488281 L 169.800781 90.863281 L 172.347656 88.332031 C 172.753906 87.925781 172.980469 87.550781 173.035156 87.207031 C 173.097656 86.863281 172.992188 86.550781 172.722656 86.269531 C 172.378906 85.925781 171.988281 85.78125 171.550781 85.832031 C 171.121094 85.875 170.699219 86.105469 170.285156 86.519531 L 167.863281 88.910156 L 167.222656 88.253906 L 171.488281 84.019531 L 172.128906 84.675781 L 171.472656 85.332031 C 171.878906 85.230469 172.242188 85.21875 172.566406 85.300781 C 172.898438 85.375 173.199219 85.546875 173.472656 85.816406 C 173.898438 86.253906 174.074219 86.738281 174.003906 87.269531 C 173.929688 87.789063 173.597656 88.347656 173.003906 88.941406 Z M 178.90625 88.660156 L 183.203125 92.988281 L 182.5625 93.628906 L 180.75 91.816406 L 175.703125 96.816406 L 175.015625 96.113281 L 180.0625 91.113281 L 178.265625 89.300781 Z M 179.761719 97.523438 L 182.339844 94.960938 L 182.964844 95.601563 L 180.402344 98.148438 C 180.003906 98.546875 179.777344 98.90625 179.714844 99.242188 C 179.652344 99.585938 179.761719 99.898438 180.042969 100.179688 C 180.386719 100.523438 180.769531 100.671875 181.199219 100.632813 C 181.636719 100.601563 182.066406 100.371094 182.496094 99.945313 L 184.902344 97.554688 L 185.527344 98.179688 L 181.261719 102.414063 L 180.636719 101.789063 L 181.292969 101.132813 C 180.875 101.234375 180.503906 101.25 180.183594 101.179688 C 179.859375 101.105469 179.5625 100.929688 179.292969 100.648438 C 178.863281 100.210938 178.6875 99.726563 178.761719 99.195313 C 178.84375 98.664063 179.175781 98.109375 179.761719 97.523438 Z M 184.027344 96.460938 Z M 188.386719 102.359375 C 188.363281 102.246094 188.324219 102.136719 188.261719 102.03125 C 188.199219 101.929688 188.113281 101.828125 188.011719 101.734375 C 187.65625 101.371094 187.253906 101.226563 186.808594 101.296875 C 186.359375 101.359375 185.894531 101.632813 185.417969 102.109375 L 183.167969 104.34375 L 182.527344 103.6875 L 186.792969 99.453125 L 187.433594 100.109375 L 186.777344 100.765625 C 187.171875 100.640625 187.535156 100.625 187.871094 100.71875 C 188.203125 100.804688 188.519531 100.996094 188.824219 101.296875 C 188.863281 101.339844 188.90625 101.390625 188.949219 101.453125 C 189 101.507813 189.050781 101.574219 189.105469 101.65625 Z M 191.167969 107.257813 L 188.589844 109.804688 L 187.964844 109.179688 L 190.511719 106.648438 C 190.917969 106.242188 191.144531 105.867188 191.199219 105.523438 C 191.261719 105.179688 191.15625 104.867188 190.886719 104.585938 C 190.542969 104.242188 190.152344 104.097656 189.714844 104.148438 C 189.285156 104.191406 188.863281 104.421875 188.449219 104.835938 L 186.027344 107.226563 L 185.386719 106.570313 L 189.652344 102.335938 L 190.292969 102.992188 L 189.636719 103.648438 C 190.042969 103.546875 190.40625 103.535156 190.730469 103.617188 C 191.0625 103.691406 191.363281 103.863281 191.636719 104.132813 C 192.0625 104.570313 192.238281 105.054688 192.167969 105.585938 C 192.09375 106.105469 191.761719 106.664063 191.167969 107.257813 Z M 191.089844 111.046875 L 188.824219 113.296875 L 188.183594 112.640625 L 194.074219 106.796875 L 194.714844 107.453125 L 194.074219 108.09375 C 194.457031 107.96875 194.8125 107.949219 195.136719 108.03125 C 195.457031 108.117188 195.761719 108.296875 196.042969 108.578125 C 196.5 109.046875 196.667969 109.632813 196.542969 110.328125 C 196.417969 111.023438 196.015625 111.707031 195.339844 112.375 C 194.671875 113.039063 193.988281 113.429688 193.292969 113.546875 C 192.59375 113.660156 192.015625 113.484375 191.558594 113.015625 C 191.277344 112.734375 191.09375 112.429688 191.011719 112.109375 C 190.9375 111.785156 190.964844 111.429688 191.089844 111.046875 Z M 194.699219 111.71875 C 195.21875 111.207031 195.53125 110.710938 195.636719 110.234375 C 195.738281 109.746094 195.625 109.339844 195.292969 109.015625 C 194.957031 108.671875 194.550781 108.554688 194.074219 108.65625 C 193.59375 108.761719 193.09375 109.070313 192.574219 109.578125 C 192.0625 110.089844 191.753906 110.582031 191.652344 111.0625 C 191.546875 111.539063 191.660156 111.953125 191.996094 112.296875 C 192.328125 112.617188 192.734375 112.726563 193.214844 112.625 C 193.691406 112.53125 194.1875 112.226563 194.699219 111.71875 Z M 198.53125 111.304688 L 199.15625 111.929688 L 194.890625 116.164063 L 194.265625 115.539063 Z M 200.203125 109.648438 L 200.828125 110.273438 L 199.9375 111.164063 L 199.3125 110.539063 Z M 202.101563 111.546875 L 202.742188 112.1875 L 199.242188 115.671875 L 202.960938 115.734375 L 203.773438 116.53125 L 199.742188 116.484375 L 199.585938 120.859375 L 198.773438 120.046875 L 198.898438 116.015625 L 196.820313 118.09375 L 196.179688 117.453125 Z M 205.921875 122.453125 L 205.578125 122.8125 L 202.640625 119.96875 C 202.191406 120.480469 201.960938 120.976563 201.953125 121.46875 C 201.953125 121.957031 202.164063 122.40625 202.59375 122.8125 C 202.832031 123.039063 203.097656 123.234375 203.390625 123.390625 C 203.679688 123.546875 204.007813 123.671875 204.375 123.765625 L 203.734375 124.4375 C 203.378906 124.320313 203.054688 124.175781 202.765625 124 C 202.472656 123.820313 202.207031 123.613281 201.96875 123.375 C 201.34375 122.78125 201.039063 122.101563 201.0625 121.34375 C 201.082031 120.59375 201.425781 119.875 202.09375 119.1875 C 202.78125 118.492188 203.492188 118.101563 204.234375 118.015625 C 204.984375 117.933594 205.648438 118.171875 206.234375 118.734375 C 206.765625 119.246094 207 119.835938 206.9375 120.5 C 206.875 121.164063 206.535156 121.816406 205.921875 122.453125 Z M 205.484375 121.640625 C 205.847656 121.234375 206.046875 120.828125 206.078125 120.421875 C 206.117188 120.007813 205.984375 119.648438 205.671875 119.34375 C 205.316406 119 204.921875 118.839844 204.484375 118.859375 C 204.046875 118.871094 203.617188 119.0625 203.203125 119.4375 Z M 205.484375 121.640625 "/>
<path style=" stroke:none;fill-rule:evenodd;fill:rgb(20%,20%,20%);fill-opacity:1;" d="M 106.808594 17.417969 L 104.714844 19.589844 L 105.589844 20.433594 C 105.921875 20.757813 106.265625 20.910156 106.621094 20.886719 C 106.984375 20.867188 107.332031 20.683594 107.667969 20.339844 C 108 19.996094 108.167969 19.648438 108.167969 19.292969 C 108.175781 18.929688 108.015625 18.585938 107.683594 18.261719 Z M 106.714844 16.089844 L 108.292969 17.621094 C 108.875 18.183594 109.171875 18.757813 109.183594 19.339844 C 109.203125 19.914063 108.941406 20.480469 108.402344 21.042969 C 107.847656 21.613281 107.28125 21.902344 106.699219 21.902344 C 106.125 21.910156 105.546875 21.636719 104.964844 21.074219 L 104.089844 20.230469 L 101.855469 22.542969 L 101.152344 21.855469 Z M 110.636719 23.609375 C 110.28125 23.277344 109.859375 23.164063 109.371094 23.265625 C 108.878906 23.371094 108.386719 23.683594 107.886719 24.203125 C 107.386719 24.714844 107.09375 25.214844 107.011719 25.703125 C 106.925781 26.191406 107.0625 26.601563 107.417969 26.9375 C 107.761719 27.269531 108.171875 27.378906 108.652344 27.265625 C 109.128906 27.160156 109.621094 26.851563 110.121094 26.34375 C 110.621094 25.820313 110.917969 25.324219 111.011719 24.84375 C 111.105469 24.355469 110.980469 23.945313 110.636719 23.609375 Z M 111.214844 23 C 111.765625 23.53125 112.003906 24.152344 111.933594 24.859375 C 111.859375 25.566406 111.480469 26.28125 110.792969 27 C 110.113281 27.695313 109.421875 28.09375 108.714844 28.1875 C 108.003906 28.289063 107.375 28.078125 106.824219 27.546875 C 106.261719 27.003906 106.015625 26.375 106.089844 25.65625 C 106.160156 24.949219 106.535156 24.246094 107.214844 23.546875 C 107.902344 22.828125 108.597656 22.421875 109.308594 22.328125 C 110.015625 22.234375 110.652344 22.460938 111.214844 23 Z M 115.566406 28.683594 C 115.542969 28.570313 115.496094 28.460938 115.425781 28.355469 C 115.363281 28.253906 115.285156 28.152344 115.191406 28.058594 C 114.816406 27.707031 114.402344 27.570313 113.957031 27.652344 C 113.519531 27.726563 113.066406 28.007813 112.597656 28.496094 L 110.394531 30.777344 L 109.738281 30.152344 L 113.910156 25.824219 L 114.566406 26.449219 L 113.925781 27.121094 C 114.308594 26.988281 114.667969 26.960938 115.003906 27.042969 C 115.347656 27.117188 115.667969 27.300781 115.972656 27.589844 C 116.023438 27.644531 116.070313 27.699219 116.113281 27.761719 C 116.164063 27.816406 116.214844 27.882813 116.269531 27.964844 Z M 118.675781 28.066406 L 117.488281 29.285156 L 118.816406 30.550781 L 118.285156 31.097656 L 116.957031 29.832031 L 114.691406 32.191406 C 114.355469 32.535156 114.183594 32.800781 114.175781 32.988281 C 114.164063 33.175781 114.292969 33.398438 114.566406 33.660156 L 115.222656 34.285156 L 114.644531 34.878906 L 113.988281 34.253906 C 113.488281 33.773438 113.242188 33.335938 113.253906 32.941406 C 113.261719 32.554688 113.527344 32.097656 114.050781 31.566406 L 116.316406 29.207031 L 115.847656 28.753906 L 116.378906 28.207031 L 116.847656 28.660156 L 118.035156 27.441406 Z M 123.335938 32.125 L 124.039063 32.8125 L 121.695313 35.25 L 126.367188 35.0625 L 127.273438 35.9375 L 122.101563 36.125 L 121.898438 41.875 L 120.976563 40.984375 L 121.164063 35.796875 L 118.476563 38.578125 L 117.773438 37.890625 Z M 127.773438 43.402344 L 127.429688 43.746094 L 124.617188 40.761719 C 124.148438 41.253906 123.898438 41.738281 123.867188 42.230469 C 123.84375 42.71875 124.039063 43.175781 124.445313 43.605469 C 124.671875 43.855469 124.929688 44.058594 125.210938 44.214844 C 125.5 44.378906 125.820313 44.527344 126.164063 44.652344 L 125.507813 45.277344 C 125.171875 45.152344 124.859375 44.988281 124.570313 44.792969 C 124.289063 44.605469 124.03125 44.386719 123.804688 44.136719 C 123.210938 43.511719 122.9375 42.816406 122.992188 42.058594 C 123.054688 41.308594 123.429688 40.605469 124.117188 39.949219 C 124.835938 39.285156 125.570313 38.929688 126.320313 38.886719 C 127.070313 38.835938 127.726563 39.105469 128.289063 39.699219 C 128.789063 40.230469 128.992188 40.832031 128.898438 41.496094 C 128.804688 42.152344 128.429688 42.785156 127.773438 43.402344 Z M 127.382813 42.558594 C 127.765625 42.183594 127.984375 41.785156 128.039063 41.371094 C 128.101563 40.957031 127.980469 40.589844 127.679688 40.277344 C 127.335938 39.914063 126.945313 39.730469 126.507813 39.730469 C 126.078125 39.722656 125.648438 39.894531 125.210938 40.246094 Z M 132.15625 47.488281 L 129.515625 49.972656 L 128.90625 49.332031 L 131.515625 46.863281 C 131.929688 46.476563 132.171875 46.113281 132.234375 45.769531 C 132.304688 45.425781 132.207031 45.113281 131.9375 44.832031 C 131.601563 44.480469 131.21875 44.316406 130.78125 44.347656 C 130.34375 44.378906 129.914063 44.597656 129.5 45.003906 L 127.015625 47.332031 L 126.390625 46.660156 L 130.765625 42.535156 L 131.390625 43.207031 L 130.71875 43.847656 C 131.125 43.746094 131.488281 43.738281 131.8125 43.832031 C 132.132813 43.917969 132.429688 44.097656 132.703125 44.378906 C 133.117188 44.828125 133.28125 45.316406 133.1875 45.847656 C 133.101563 46.367188 132.757813 46.914063 132.15625 47.488281 Z M 136.964844 46.609375 L 135.714844 47.78125 L 136.964844 49.125 L 136.417969 49.65625 L 135.167969 48.3125 L 132.777344 50.546875 C 132.421875 50.878906 132.234375 51.140625 132.214844 51.328125 C 132.191406 51.515625 132.3125 51.742188 132.574219 52.015625 L 133.199219 52.6875 L 132.589844 53.25 L 131.964844 52.578125 C 131.496094 52.078125 131.269531 51.632813 131.292969 51.25 C 131.324219 50.863281 131.609375 50.417969 132.152344 49.90625 L 134.542969 47.671875 L 134.105469 47.1875 L 134.652344 46.65625 L 135.089844 47.140625 L 136.339844 45.96875 Z M 135.589844 51.398438 L 137.386719 53.289063 L 136.746094 53.898438 L 134.949219 52.007813 Z M 141.648438 51.140625 L 142.351563 51.84375 L 140.007813 54.15625 L 142.492188 56.6875 L 144.835938 54.375 L 145.507813 55.0625 L 139.789063 60.6875 L 139.117188 60 L 141.835938 57.328125 L 139.351563 54.796875 L 136.632813 57.46875 L 135.929688 56.765625 Z M 146.402344 59.785156 C 146.066406 59.453125 145.65625 59.332031 145.167969 59.425781 C 144.675781 59.519531 144.175781 59.824219 143.667969 60.332031 C 143.15625 60.84375 142.855469 61.34375 142.761719 61.832031 C 142.667969 62.320313 142.785156 62.730469 143.121094 63.066406 C 143.464844 63.410156 143.875 63.527344 144.355469 63.425781 C 144.84375 63.332031 145.34375 63.027344 145.855469 62.519531 C 146.363281 62.007813 146.667969 61.511719 146.761719 61.035156 C 146.863281 60.546875 146.746094 60.128906 146.402344 59.785156 Z M 146.996094 59.191406 C 147.546875 59.734375 147.78125 60.363281 147.699219 61.082031 C 147.613281 61.789063 147.222656 62.492188 146.527344 63.191406 C 145.828125 63.886719 145.125 64.273438 144.417969 64.347656 C 143.707031 64.429688 143.078125 64.199219 142.527344 63.660156 C 141.972656 63.105469 141.738281 62.476563 141.824219 61.769531 C 141.917969 61.074219 142.3125 60.375 143.011719 59.675781 C 143.707031 58.980469 144.40625 58.589844 145.105469 58.503906 C 145.8125 58.410156 146.441406 58.640625 146.996094 59.191406 Z M 146.675781 66.308594 L 144.425781 68.558594 L 143.785156 67.917969 L 149.644531 62.058594 L 150.285156 62.699219 L 149.644531 63.339844 C 150.027344 63.226563 150.382813 63.207031 150.707031 63.277344 C 151.027344 63.351563 151.335938 63.535156 151.628906 63.824219 C 152.085938 64.285156 152.253906 64.863281 152.128906 65.558594 C 152.011719 66.253906 151.621094 66.9375 150.957031 67.605469 C 150.277344 68.28125 149.589844 68.675781 148.894531 68.792969 C 148.195313 68.917969 147.617188 68.75 147.160156 68.292969 C 146.867188 68 146.679688 67.691406 146.597656 67.371094 C 146.523438 67.058594 146.550781 66.703125 146.675781 66.308594 Z M 150.300781 66.964844 C 150.808594 66.453125 151.117188 65.957031 151.222656 65.480469 C 151.324219 65.003906 151.210938 64.597656 150.878906 64.261719 C 150.535156 63.917969 150.121094 63.800781 149.644531 63.902344 C 149.164063 64.007813 148.667969 64.316406 148.160156 64.824219 C 147.636719 65.347656 147.324219 65.84375 147.222656 66.324219 C 147.117188 66.800781 147.238281 67.214844 147.582031 67.558594 C 147.914063 67.890625 148.320313 68.003906 148.800781 67.902344 C 149.277344 67.796875 149.777344 67.484375 150.300781 66.964844 Z M 155.742188 64.84375 L 156.382813 65.484375 L 152.898438 68.96875 L 156.601563 69.03125 L 157.414063 69.828125 L 153.398438 69.78125 L 153.242188 74.15625 L 152.429688 73.34375 L 152.554688 69.3125 L 150.476563 71.390625 L 149.835938 70.75 Z M 158.175781 70.605469 L 158.800781 71.230469 L 154.535156 75.464844 L 153.910156 74.839844 Z M 159.847656 68.949219 L 160.472656 69.574219 L 159.582031 70.464844 L 158.957031 69.839844 Z M 161.597656 77.433594 L 159.019531 79.980469 L 158.394531 79.355469 L 160.941406 76.824219 C 161.347656 76.417969 161.574219 76.042969 161.628906 75.699219 C 161.691406 75.355469 161.585938 75.042969 161.316406 74.761719 C 160.972656 74.417969 160.582031 74.273438 160.144531 74.324219 C 159.714844 74.367188 159.292969 74.597656 158.878906 75.011719 L 156.457031 77.402344 L 155.816406 76.746094 L 160.082031 72.511719 L 160.722656 73.167969 L 160.066406 73.824219 C 160.472656 73.722656 160.835938 73.710938 161.160156 73.792969 C 161.492188 73.867188 161.792969 74.039063 162.066406 74.308594 C 162.492188 74.746094 162.667969 75.230469 162.597656 75.761719 C 162.523438 76.28125 162.191406 76.839844 161.597656 77.433594 Z M 166.378906 76.425781 L 165.160156 77.628906 L 166.441406 78.925781 L 165.910156 79.457031 L 164.628906 78.160156 L 162.300781 80.472656 C 161.957031 80.816406 161.773438 81.082031 161.753906 81.269531 C 161.742188 81.457031 161.867188 81.679688 162.128906 81.941406 L 162.769531 82.582031 L 162.175781 83.160156 L 161.535156 82.519531 C 161.054688 82.027344 160.824219 81.589844 160.847656 81.207031 C 160.867188 80.820313 161.144531 80.371094 161.675781 79.847656 L 164.003906 77.535156 L 163.535156 77.066406 L 164.066406 76.535156 L 164.535156 77.003906 L 165.753906 75.800781 Z M 168.261719 81.738281 C 167.917969 81.394531 167.5 81.269531 167.011719 81.363281 C 166.519531 81.457031 166.019531 81.761719 165.511719 82.269531 C 165 82.769531 164.691406 83.265625 164.589844 83.753906 C 164.496094 84.242188 164.621094 84.660156 164.964844 85.003906 C 165.296875 85.335938 165.703125 85.457031 166.183594 85.363281 C 166.671875 85.269531 167.171875 84.972656 167.683594 84.472656 C 168.191406 83.960938 168.5 83.460938 168.605469 82.972656 C 168.707031 82.484375 168.59375 82.074219 168.261719 81.738281 Z M 168.855469 81.160156 C 169.394531 81.703125 169.625 82.328125 169.542969 83.035156 C 169.457031 83.742188 169.0625 84.445313 168.355469 85.144531 C 167.667969 85.832031 166.964844 86.210938 166.246094 86.285156 C 165.535156 86.367188 164.910156 86.136719 164.371094 85.597656 C 163.816406 85.042969 163.589844 84.414063 163.683594 83.707031 C 163.777344 83 164.167969 82.300781 164.855469 81.613281 C 165.5625 80.917969 166.265625 80.53125 166.964844 80.457031 C 167.671875 80.375 168.300781 80.609375 168.855469 81.160156 Z M 173.003906 88.941406 L 170.425781 91.488281 L 169.800781 90.863281 L 172.347656 88.332031 C 172.753906 87.925781 172.980469 87.550781 173.035156 87.207031 C 173.097656 86.863281 172.992188 86.550781 172.722656 86.269531 C 172.378906 85.925781 171.988281 85.78125 171.550781 85.832031 C 171.121094 85.875 170.699219 86.105469 170.285156 86.519531 L 167.863281 88.910156 L 167.222656 88.253906 L 171.488281 84.019531 L 172.128906 84.675781 L 171.472656 85.332031 C 171.878906 85.230469 172.242188 85.21875 172.566406 85.300781 C 172.898438 85.375 173.199219 85.546875 173.472656 85.816406 C 173.898438 86.253906 174.074219 86.738281 174.003906 87.269531 C 173.929688 87.789063 173.597656 88.347656 173.003906 88.941406 Z M 178.90625 88.660156 L 183.203125 92.988281 L 182.5625 93.628906 L 180.75 91.816406 L 175.703125 96.816406 L 175.015625 96.113281 L 180.0625 91.113281 L 178.265625 89.300781 Z M 179.761719 97.523438 L 182.339844 94.960938 L 182.964844 95.601563 L 180.402344 98.148438 C 180.003906 98.546875 179.777344 98.90625 179.714844 99.242188 C 179.652344 99.585938 179.761719 99.898438 180.042969 100.179688 C 180.386719 100.523438 180.769531 100.671875 181.199219 100.632813 C 181.636719 100.601563 182.066406 100.371094 182.496094 99.945313 L 184.902344 97.554688 L 185.527344 98.179688 L 181.261719 102.414063 L 180.636719 101.789063 L 181.292969 101.132813 C 180.875 101.234375 180.503906 101.25 180.183594 101.179688 C 179.859375 101.105469 179.5625 100.929688 179.292969 100.648438 C 178.863281 100.210938 178.6875 99.726563 178.761719 99.195313 C 178.84375 98.664063 179.175781 98.109375 179.761719 97.523438 Z M 184.027344 96.460938 Z M 188.386719 102.359375 C 188.363281 102.246094 188.324219 102.136719 188.261719 102.03125 C 188.199219 101.929688 188.113281 101.828125 188.011719 101.734375 C 187.65625 101.371094 187.253906 101.226563 186.808594 101.296875 C 186.359375 101.359375 185.894531 101.632813 185.417969 102.109375 L 183.167969 104.34375 L 182.527344 103.6875 L 186.792969 99.453125 L 187.433594 100.109375 L 186.777344 100.765625 C 187.171875 100.640625 187.535156 100.625 187.871094 100.71875 C 188.203125 100.804688 188.519531 100.996094 188.824219 101.296875 C 188.863281 101.339844 188.90625 101.390625 188.949219 101.453125 C 189 101.507813 189.050781 101.574219 189.105469 101.65625 Z M 191.167969 107.257813 L 188.589844 109.804688 L 187.964844 109.179688 L 190.511719 106.648438 C 190.917969 106.242188 191.144531 105.867188 191.199219 105.523438 C 191.261719 105.179688 191.15625 104.867188 190.886719 104.585938 C 190.542969 104.242188 190.152344 104.097656 189.714844 104.148438 C 189.285156 104.191406 188.863281 104.421875 188.449219 104.835938 L 186.027344 107.226563 L 185.386719 106.570313 L 189.652344 102.335938 L 190.292969 102.992188 L 189.636719 103.648438 C 190.042969 103.546875 190.40625 103.535156 190.730469 103.617188 C 191.0625 103.691406 191.363281 103.863281 191.636719 104.132813 C 192.0625 104.570313 192.238281 105.054688 192.167969 105.585938 C 192.09375 106.105469 191.761719 106.664063 191.167969 107.257813 Z M 191.089844 111.046875 L 188.824219 113.296875 L 188.183594 112.640625 L 194.074219 106.796875 L 194.714844 107.453125 L 194.074219 108.09375 C 194.457031 107.96875 194.8125 107.949219 195.136719 108.03125 C 195.457031 108.117188 195.761719 108.296875 196.042969 108.578125 C 196.5 109.046875 196.667969 109.632813 196.542969 110.328125 C 196.417969 111.023438 196.015625 111.707031 195.339844 112.375 C 194.671875 113.039063 193.988281 113.429688 193.292969 113.546875 C 192.59375 113.660156 192.015625 113.484375 191.558594 113.015625 C 191.277344 112.734375 191.09375 112.429688 191.011719 112.109375 C 190.9375 111.785156 190.964844 111.429688 191.089844 111.046875 Z M 194.699219 111.71875 C 195.21875 111.207031 195.53125 110.710938 195.636719 110.234375 C 195.738281 109.746094 195.625 109.339844 195.292969 109.015625 C 194.957031 108.671875 194.550781 108.554688 194.074219 108.65625 C 193.59375 108.761719 193.09375 109.070313 192.574219 109.578125 C 192.0625 110.089844 191.753906 110.582031 191.652344 111.0625 C 191.546875 111.539063 191.660156 111.953125 191.996094 112.296875 C 192.328125 112.617188 192.734375 112.726563 193.214844 112.625 C 193.691406 112.53125 194.1875 112.226563 194.699219 111.71875 Z M 198.53125 111.304688 L 199.15625 111.929688 L 194.890625 116.164063 L 194.265625 115.539063 Z M 200.203125 109.648438 L 200.828125 110.273438 L 199.9375 111.164063 L 199.3125 110.539063 Z M 202.101563 111.546875 L 202.742188 112.1875 L 199.242188 115.671875 L 202.960938 115.734375 L 203.773438 116.53125 L 199.742188 116.484375 L 199.585938 120.859375 L 198.773438 120.046875 L 198.898438 116.015625 L 196.820313 118.09375 L 196.179688 117.453125 Z M 205.921875 122.453125 L 205.578125 122.8125 L 202.640625 119.96875 C 202.191406 120.480469 201.960938 120.976563 201.953125 121.46875 C 201.953125 121.957031 202.164063 122.40625 202.59375 122.8125 C 202.832031 123.039063 203.097656 123.234375 203.390625 123.390625 C 203.679688 123.546875 204.007813 123.671875 204.375 123.765625 L 203.734375 124.4375 C 203.378906 124.320313 203.054688 124.175781 202.765625 124 C 202.472656 123.820313 202.207031 123.613281 201.96875 123.375 C 201.34375 122.78125 201.039063 122.101563 201.0625 121.34375 C 201.082031 120.59375 201.425781 119.875 202.09375 119.1875 C 202.78125 118.492188 203.492188 118.101563 204.234375 118.015625 C 204.984375 117.933594 205.648438 118.171875 206.234375 118.734375 C 206.765625 119.246094 207 119.835938 206.9375 120.5 C 206.875 121.164063 206.535156 121.816406 205.921875 122.453125 Z M 205.484375 121.640625 C 205.847656 121.234375 206.046875 120.828125 206.078125 120.421875 C 206.117188 120.007813 205.984375 119.648438 205.671875 119.34375 C 205.316406 119 204.921875 118.839844 204.484375 118.859375 C 204.046875 118.871094 203.617188 119.0625 203.203125 119.4375 Z M 205.484375 121.640625 "/>
<path style="fill:none;stroke-width:3;stroke-linecap:round;stroke-linejoin:round;stroke:rgb(100%,100%,100%);stroke-opacity:1;stroke-miterlimit:10;" d="M 226.484375 227.753906 L 229.484375 227.472656 L 229.359375 226.253906 C 229.320313 225.796875 229.152344 225.457031 228.859375 225.238281 C 228.570313 225.011719 228.1875 224.917969 227.71875 224.957031 C 227.242188 225.011719 226.886719 225.171875 226.65625 225.441406 C 226.417969 225.714844 226.320313 226.078125 226.359375 226.535156 Z M 225.6875 228.816406 L 225.46875 226.628906 C 225.398438 225.816406 225.542969 225.1875 225.90625 224.738281 C 226.273438 224.292969 226.84375 224.03125 227.625 223.957031 C 228.40625 223.886719 229.023438 224.03125 229.46875 224.394531 C 229.917969 224.761719 230.179688 225.347656 230.25 226.160156 L 230.375 227.378906 L 233.578125 227.066406 L 233.671875 228.035156 Z M 227.105469 222.703125 L 227.027344 221.828125 L 233.011719 221.25 L 233.089844 222.125 Z M 224.777344 222.9375 L 224.699219 222.0625 L 225.933594 221.9375 L 226.011719 222.8125 Z M 228.636719 215.28125 L 232.230469 214.828125 L 232.339844 215.703125 L 228.777344 216.15625 C 228.207031 216.21875 227.792969 216.371094 227.542969 216.609375 C 227.292969 216.851563 227.191406 217.167969 227.230469 217.5625 C 227.292969 218.03125 227.511719 218.386719 227.886719 218.625 C 228.253906 218.855469 228.726563 218.933594 229.308594 218.859375 L 232.683594 218.4375 L 232.792969 219.328125 L 226.824219 220.078125 L 226.714844 219.1875 L 227.652344 219.0625 C 227.257813 218.90625 226.957031 218.699219 226.746094 218.4375 C 226.527344 218.167969 226.398438 217.84375 226.355469 217.46875 C 226.273438 216.855469 226.425781 216.367188 226.808594 216 C 227.195313 215.625 227.804688 215.386719 228.636719 215.28125 Z M 228.214844 208.875 L 228.683594 208.8125 L 229.183594 212.875 C 229.863281 212.75 230.355469 212.5 230.667969 212.125 C 230.972656 211.742188 231.085938 211.261719 231.011719 210.6875 C 230.972656 210.34375 230.882813 210.023438 230.746094 209.71875 C 230.613281 209.417969 230.441406 209.121094 230.230469 208.828125 L 231.136719 208.703125 C 231.335938 209.007813 231.496094 209.320313 231.621094 209.640625 C 231.738281 209.964844 231.816406 210.296875 231.855469 210.640625 C 231.972656 211.496094 231.785156 212.210938 231.292969 212.78125 C 230.804688 213.34375 230.082031 213.6875 229.121094 213.8125 C 228.152344 213.929688 227.351563 213.789063 226.714844 213.390625 C 226.082031 212.984375 225.710938 212.382813 225.605469 211.578125 C 225.523438 210.851563 225.714844 210.246094 226.183594 209.765625 C 226.644531 209.289063 227.320313 208.992188 228.214844 208.875 Z M 228.027344 209.78125 C 227.488281 209.867188 227.074219 210.058594 226.792969 210.359375 C 226.503906 210.664063 226.382813 211.03125 226.433594 211.46875 C 226.496094 211.960938 226.707031 212.335938 227.058594 212.59375 C 227.402344 212.855469 227.855469 212.96875 228.417969 212.9375 Z M 229.28125 199.191406 L 227.140625 199.394531 L 227.296875 200.972656 L 226.40625 201.050781 L 226.15625 198.503906 L 229.578125 198.191406 C 229.921875 198.535156 230.195313 198.925781 230.390625 199.363281 C 230.578125 199.792969 230.699219 200.265625 230.75 200.785156 C 230.855469 201.910156 230.574219 202.824219 229.90625 203.519531 C 229.242188 204.21875 228.257813 204.628906 226.953125 204.753906 C 225.652344 204.878906 224.605469 204.667969 223.8125 204.113281 C 223.011719 203.550781 222.558594 202.707031 222.453125 201.582031 C 222.402344 201.113281 222.421875 200.660156 222.515625 200.222656 C 222.609375 199.785156 222.761719 199.378906 222.96875 199.003906 L 224.125 198.894531 C 223.835938 199.292969 223.621094 199.699219 223.484375 200.113281 C 223.351563 200.53125 223.304688 200.964844 223.34375 201.410156 C 223.429688 202.285156 223.765625 202.921875 224.359375 203.316406 C 224.945313 203.703125 225.773438 203.84375 226.84375 203.738281 C 227.929688 203.636719 228.71875 203.339844 229.21875 202.847656 C 229.71875 202.347656 229.929688 201.660156 229.84375 200.785156 C 229.8125 200.433594 229.75 200.128906 229.65625 199.878906 C 229.5625 199.628906 229.4375 199.402344 229.28125 199.191406 Z M 224.804688 193.714844 C 224.753906 193.832031 224.71875 193.949219 224.695313 194.074219 C 224.675781 194.199219 224.675781 194.332031 224.695313 194.464844 C 224.738281 194.976563 224.957031 195.347656 225.351563 195.574219 C 225.738281 195.792969 226.269531 195.871094 226.945313 195.808594 L 230.101563 195.527344 L 230.179688 196.433594 L 224.195313 196.980469 L 224.117188 196.074219 L 225.039063 195.980469 C 224.65625 195.847656 224.363281 195.636719 224.164063 195.355469 C 223.96875 195.074219 223.847656 194.722656 223.804688 194.292969 C 223.804688 194.230469 223.804688 194.164063 223.804688 194.089844 C 223.796875 194.007813 223.796875 193.917969 223.804688 193.824219 Z M 224.398438 190.683594 C 224.429688 191.164063 224.660156 191.527344 225.085938 191.777344 C 225.515625 192.027344 226.085938 192.132813 226.804688 192.089844 C 227.523438 192.050781 228.082031 191.882813 228.476563 191.589844 C 228.875 191.289063 229.054688 190.898438 229.023438 190.417969 C 229.003906 189.941406 228.78125 189.574219 228.351563 189.324219 C 227.925781 189.074219 227.351563 188.972656 226.632813 189.011719 C 225.914063 189.054688 225.359375 189.226563 224.960938 189.527344 C 224.566406 189.820313 224.378906 190.207031 224.398438 190.683594 Z M 223.570313 190.730469 C 223.53125 189.960938 223.773438 189.339844 224.304688 188.871094 C 224.835938 188.402344 225.59375 188.136719 226.570313 188.074219 C 227.550781 188.023438 228.335938 188.199219 228.929688 188.605469 C 229.515625 189.003906 229.828125 189.585938 229.867188 190.355469 C 229.917969 191.136719 229.679688 191.769531 229.148438 192.246094 C 228.609375 192.714844 227.847656 192.976563 226.867188 193.027344 C 225.890625 193.089844 225.109375 192.917969 224.523438 192.511719 C 223.941406 192.105469 223.625 191.511719 223.570313 190.730469 Z M 223.515625 187.382813 L 223.484375 186.445313 L 228.46875 184.554688 L 223.34375 183.054688 L 223.3125 182.117188 L 229.40625 183.914063 L 229.453125 185.117188 Z M 226.386719 176.25 L 226.871094 176.28125 L 226.621094 180.359375 C 227.308594 180.351563 227.839844 180.1875 228.214844 179.875 C 228.582031 179.5625 228.785156 179.117188 228.824219 178.53125 C 228.847656 178.1875 228.820313 177.859375 228.746094 177.546875 C 228.664063 177.226563 228.542969 176.898438 228.386719 176.5625 L 229.308594 176.625 C 229.441406 176.960938 229.535156 177.292969 229.589844 177.625 C 229.652344 177.960938 229.671875 178.296875 229.652344 178.640625 C 229.609375 179.507813 229.300781 180.171875 228.714844 180.640625 C 228.121094 181.109375 227.347656 181.320313 226.386719 181.265625 C 225.410156 181.214844 224.648438 180.933594 224.105469 180.421875 C 223.554688 179.902344 223.304688 179.234375 223.355469 178.421875 C 223.398438 177.695313 223.691406 177.136719 224.230469 176.75 C 224.773438 176.367188 225.492188 176.199219 226.386719 176.25 Z M 226.027344 177.125 C 225.488281 177.105469 225.050781 177.214844 224.714844 177.453125 C 224.382813 177.683594 224.207031 178.015625 224.183594 178.453125 C 224.152344 178.953125 224.285156 179.367188 224.574219 179.6875 C 224.867188 180.011719 225.292969 180.210938 225.855469 180.28125 Z M 222.464844 170.578125 L 222.730469 169.625 L 229.589844 171.484375 L 230.496094 168.09375 L 231.371094 168.328125 L 230.199219 172.671875 Z M 229.960938 164.695313 C 229.628906 165.332031 229.484375 165.816406 229.523438 166.148438 C 229.554688 166.484375 229.765625 166.75 230.148438 166.945313 C 230.453125 167.113281 230.75 167.148438 231.039063 167.054688 C 231.320313 166.960938 231.539063 166.757813 231.695313 166.445313 C 231.933594 166.007813 231.945313 165.566406 231.726563 165.117188 C 231.515625 164.671875 231.132813 164.300781 230.570313 164.007813 L 230.367188 163.898438 Z M 230.414063 162.929688 L 233.460938 164.523438 L 233.054688 165.304688 L 232.257813 164.882813 C 232.484375 165.238281 232.605469 165.59375 232.617188 165.945313 C 232.625 166.289063 232.527344 166.660156 232.320313 167.054688 C 232.070313 167.535156 231.714844 167.84375 231.257813 167.976563 C 230.800781 168.101563 230.316406 168.03125 229.804688 167.757813 C 229.203125 167.445313 228.84375 167.03125 228.726563 166.507813 C 228.613281 165.988281 228.742188 165.367188 229.117188 164.648438 L 229.695313 163.539063 L 229.601563 163.507813 C 229.195313 163.289063 228.820313 163.242188 228.476563 163.367188 C 228.132813 163.492188 227.847656 163.773438 227.617188 164.210938 C 227.484375 164.484375 227.382813 164.769531 227.320313 165.070313 C 227.25 165.363281 227.222656 165.671875 227.242188 165.992188 L 226.445313 165.570313 C 226.46875 165.21875 226.519531 164.890625 226.601563 164.585938 C 226.6875 164.273438 226.796875 163.992188 226.929688 163.742188 C 227.296875 163.046875 227.765625 162.628906 228.335938 162.492188 C 228.910156 162.359375 229.601563 162.503906 230.414063 162.929688 Z M 233.636719 157.558594 L 236.667969 159.558594 L 236.167969 160.292969 L 233.167969 158.308594 C 232.691406 157.996094 232.277344 157.851563 231.933594 157.871094 C 231.589844 157.882813 231.308594 158.050781 231.089844 158.371094 C 230.832031 158.777344 230.761719 159.191406 230.886719 159.605469 C 231.011719 160.023438 231.320313 160.394531 231.808594 160.714844 L 234.652344 162.589844 L 234.152344 163.339844 L 229.136719 160.027344 L 229.636719 159.277344 L 230.417969 159.792969 C 230.222656 159.417969 230.132813 159.066406 230.152344 158.730469 C 230.164063 158.386719 230.273438 158.058594 230.480469 157.746094 C 230.816406 157.226563 231.253906 156.949219 231.792969 156.917969 C 232.335938 156.886719 232.949219 157.101563 233.636719 157.558594 Z M 237.769531 152.675781 L 238.160156 152.972656 L 235.660156 156.222656 C 236.222656 156.609375 236.746094 156.777344 237.222656 156.722656 C 237.710938 156.671875 238.132813 156.417969 238.488281 155.957031 C 238.695313 155.6875 238.855469 155.394531 238.972656 155.082031 C 239.097656 154.769531 239.183594 154.4375 239.238281 154.082031 L 239.972656 154.644531 C 239.898438 154.988281 239.789063 155.316406 239.644531 155.628906 C 239.507813 155.941406 239.335938 156.234375 239.128906 156.503906 C 238.597656 157.191406 237.957031 157.566406 237.207031 157.628906 C 236.457031 157.691406 235.703125 157.433594 234.941406 156.847656 C 234.160156 156.253906 233.6875 155.59375 233.519531 154.863281 C 233.355469 154.125 233.519531 153.433594 234.019531 152.785156 C 234.457031 152.214844 235.015625 151.917969 235.691406 151.894531 C 236.371094 151.875 237.058594 152.136719 237.769531 152.675781 Z M 236.988281 153.222656 C 236.550781 152.890625 236.125 152.734375 235.707031 152.753906 C 235.292969 152.765625 234.949219 152.941406 234.675781 153.285156 C 234.375 153.691406 234.261719 154.109375 234.332031 154.535156 C 234.394531 154.964844 234.636719 155.363281 235.050781 155.738281 Z M 236.988281 153.222656 "/>
<path style=" stroke:none;fill-rule:evenodd;fill:rgb(20%,20%,20%);fill-opacity:1;" d="M 226.484375 227.753906 L 229.484375 227.472656 L 229.359375 226.253906 C 229.320313 225.796875 229.152344 225.457031 228.859375 225.238281 C 228.570313 225.011719 228.1875 224.917969 227.71875 224.957031 C 227.242188 225.011719 226.886719 225.171875 226.65625 225.441406 C 226.417969 225.714844 226.320313 226.078125 226.359375 226.535156 Z M 225.6875 228.816406 L 225.46875 226.628906 C 225.398438 225.816406 225.542969 225.1875 225.90625 224.738281 C 226.273438 224.292969 226.84375 224.03125 227.625 223.957031 C 228.40625 223.886719 229.023438 224.03125 229.46875 224.394531 C 229.917969 224.761719 230.179688 225.347656 230.25 226.160156 L 230.375 227.378906 L 233.578125 227.066406 L 233.671875 228.035156 Z M 227.105469 222.703125 L 227.027344 221.828125 L 233.011719 221.25 L 233.089844 222.125 Z M 224.777344 222.9375 L 224.699219 222.0625 L 225.933594 221.9375 L 226.011719 222.8125 Z M 228.636719 215.28125 L 232.230469 214.828125 L 232.339844 215.703125 L 228.777344 216.15625 C 228.207031 216.21875 227.792969 216.371094 227.542969 216.609375 C 227.292969 216.851563 227.191406 217.167969 227.230469 217.5625 C 227.292969 218.03125 227.511719 218.386719 227.886719 218.625 C 228.253906 218.855469 228.726563 218.933594 229.308594 218.859375 L 232.683594 218.4375 L 232.792969 219.328125 L 226.824219 220.078125 L 226.714844 219.1875 L 227.652344 219.0625 C 227.257813 218.90625 226.957031 218.699219 226.746094 218.4375 C 226.527344 218.167969 226.398438 217.84375 226.355469 217.46875 C 226.273438 216.855469 226.425781 216.367188 226.808594 216 C 227.195313 215.625 227.804688 215.386719 228.636719 215.28125 Z M 228.214844 208.875 L 228.683594 208.8125 L 229.183594 212.875 C 229.863281 212.75 230.355469 212.5 230.667969 212.125 C 230.972656 211.742188 231.085938 211.261719 231.011719 210.6875 C 230.972656 210.34375 230.882813 210.023438 230.746094 209.71875 C 230.613281 209.417969 230.441406 209.121094 230.230469 208.828125 L 231.136719 208.703125 C 231.335938 209.007813 231.496094 209.320313 231.621094 209.640625 C 231.738281 209.964844 231.816406 210.296875 231.855469 210.640625 C 231.972656 211.496094 231.785156 212.210938 231.292969 212.78125 C 230.804688 213.34375 230.082031 213.6875 229.121094 213.8125 C 228.152344 213.929688 227.351563 213.789063 226.714844 213.390625 C 226.082031 212.984375 225.710938 212.382813 225.605469 211.578125 C 225.523438 210.851563 225.714844 210.246094 226.183594 209.765625 C 226.644531 209.289063 227.320313 208.992188 228.214844 208.875 Z M 228.027344 209.78125 C 227.488281 209.867188 227.074219 210.058594 226.792969 210.359375 C 226.503906 210.664063 226.382813 211.03125 226.433594 211.46875 C 226.496094 211.960938 226.707031 212.335938 227.058594 212.59375 C 227.402344 212.855469 227.855469 212.96875 228.417969 212.9375 Z M 229.28125 199.191406 L 227.140625 199.394531 L 227.296875 200.972656 L 226.40625 201.050781 L 226.15625 198.503906 L 229.578125 198.191406 C 229.921875 198.535156 230.195313 198.925781 230.390625 199.363281 C 230.578125 199.792969 230.699219 200.265625 230.75 200.785156 C 230.855469 201.910156 230.574219 202.824219 229.90625 203.519531 C 229.242188 204.21875 228.257813 204.628906 226.953125 204.753906 C 225.652344 204.878906 224.605469 204.667969 223.8125 204.113281 C 223.011719 203.550781 222.558594 202.707031 222.453125 201.582031 C 222.402344 201.113281 222.421875 200.660156 222.515625 200.222656 C 222.609375 199.785156 222.761719 199.378906 222.96875 199.003906 L 224.125 198.894531 C 223.835938 199.292969 223.621094 199.699219 223.484375 200.113281 C 223.351563 200.53125 223.304688 200.964844 223.34375 201.410156 C 223.429688 202.285156 223.765625 202.921875 224.359375 203.316406 C 224.945313 203.703125 225.773438 203.84375 226.84375 203.738281 C 227.929688 203.636719 228.71875 203.339844 229.21875 202.847656 C 229.71875 202.347656 229.929688 201.660156 229.84375 200.785156 C 229.8125 200.433594 229.75 200.128906 229.65625 199.878906 C 229.5625 199.628906 229.4375 199.402344 229.28125 199.191406 Z M 224.804688 193.714844 C 224.753906 193.832031 224.71875 193.949219 224.695313 194.074219 C 224.675781 194.199219 224.675781 194.332031 224.695313 194.464844 C 224.738281 194.976563 224.957031 195.347656 225.351563 195.574219 C 225.738281 195.792969 226.269531 195.871094 226.945313 195.808594 L 230.101563 195.527344 L 230.179688 196.433594 L 224.195313 196.980469 L 224.117188 196.074219 L 225.039063 195.980469 C 224.65625 195.847656 224.363281 195.636719 224.164063 195.355469 C 223.96875 195.074219 223.847656 194.722656 223.804688 194.292969 C 223.804688 194.230469 223.804688 194.164063 223.804688 194.089844 C 223.796875 194.007813 223.796875 193.917969 223.804688 193.824219 Z M 224.398438 190.683594 C 224.429688 191.164063 224.660156 191.527344 225.085938 191.777344 C 225.515625 192.027344 226.085938 192.132813 226.804688 192.089844 C 227.523438 192.050781 228.082031 191.882813 228.476563 191.589844 C 228.875 191.289063 229.054688 190.898438 229.023438 190.417969 C 229.003906 189.941406 228.78125 189.574219 228.351563 189.324219 C 227.925781 189.074219 227.351563 188.972656 226.632813 189.011719 C 225.914063 189.054688 225.359375 189.226563 224.960938 189.527344 C 224.566406 189.820313 224.378906 190.207031 224.398438 190.683594 Z M 223.570313 190.730469 C 223.53125 189.960938 223.773438 189.339844 224.304688 188.871094 C 224.835938 188.402344 225.59375 188.136719 226.570313 188.074219 C 227.550781 188.023438 228.335938 188.199219 228.929688 188.605469 C 229.515625 189.003906 229.828125 189.585938 229.867188 190.355469 C 229.917969 191.136719 229.679688 191.769531 229.148438 192.246094 C 228.609375 192.714844 227.847656 192.976563 226.867188 193.027344 C 225.890625 193.089844 225.109375 192.917969 224.523438 192.511719 C 223.941406 192.105469 223.625 191.511719 223.570313 190.730469 Z M 223.515625 187.382813 L 223.484375 186.445313 L 228.46875 184.554688 L 223.34375 183.054688 L 223.3125 182.117188 L 229.40625 183.914063 L 229.453125 185.117188 Z M 226.386719 176.25 L 226.871094 176.28125 L 226.621094 180.359375 C 227.308594 180.351563 227.839844 180.1875 228.214844 179.875 C 228.582031 179.5625 228.785156 179.117188 228.824219 178.53125 C 228.847656 178.1875 228.820313 177.859375 228.746094 177.546875 C 228.664063 177.226563 228.542969 176.898438 228.386719 176.5625 L 229.308594 176.625 C 229.441406 176.960938 229.535156 177.292969 229.589844 177.625 C 229.652344 177.960938 229.671875 178.296875 229.652344 178.640625 C 229.609375 179.507813 229.300781 180.171875 228.714844 180.640625 C 228.121094 181.109375 227.347656 181.320313 226.386719 181.265625 C 225.410156 181.214844 224.648438 180.933594 224.105469 180.421875 C 223.554688 179.902344 223.304688 179.234375 223.355469 178.421875 C 223.398438 177.695313 223.691406 177.136719 224.230469 176.75 C 224.773438 176.367188 225.492188 176.199219 226.386719 176.25 Z M 226.027344 177.125 C 225.488281 177.105469 225.050781 177.214844 224.714844 177.453125 C 224.382813 177.683594 224.207031 178.015625 224.183594 178.453125 C 224.152344 178.953125 224.285156 179.367188 224.574219 179.6875 C 224.867188 180.011719 225.292969 180.210938 225.855469 180.28125 Z M 222.464844 170.578125 L 222.730469 169.625 L 229.589844 171.484375 L 230.496094 168.09375 L 231.371094 168.328125 L 230.199219 172.671875 Z M 229.960938 164.695313 C 229.628906 165.332031 229.484375 165.816406 229.523438 166.148438 C 229.554688 166.484375 229.765625 166.75 230.148438 166.945313 C 230.453125 167.113281 230.75 167.148438 231.039063 167.054688 C 231.320313 166.960938 231.539063 166.757813 231.695313 166.445313 C 231.933594 166.007813 231.945313 165.566406 231.726563 165.117188 C 231.515625 164.671875 231.132813 164.300781 230.570313 164.007813 L 230.367188 163.898438 Z M 230.414063 162.929688 L 233.460938 164.523438 L 233.054688 165.304688 L 232.257813 164.882813 C 232.484375 165.238281 232.605469 165.59375 232.617188 165.945313 C 232.625 166.289063 232.527344 166.660156 232.320313 167.054688 C 232.070313 167.535156 231.714844 167.84375 231.257813 167.976563 C 230.800781 168.101563 230.316406 168.03125 229.804688 167.757813 C 229.203125 167.445313 228.84375 167.03125 228.726563 166.507813 C 228.613281 165.988281 228.742188 165.367188 229.117188 164.648438 L 229.695313 163.539063 L 229.601563 163.507813 C 229.195313 163.289063 228.820313 163.242188 228.476563 163.367188 C 228.132813 163.492188 227.847656 163.773438 227.617188 164.210938 C 227.484375 164.484375 227.382813 164.769531 227.320313 165.070313 C 227.25 165.363281 227.222656 165.671875 227.242188 165.992188 L 226.445313 165.570313 C 226.46875 165.21875 226.519531 164.890625 226.601563 164.585938 C 226.6875 164.273438 226.796875 163.992188 226.929688 163.742188 C 227.296875 163.046875 227.765625 162.628906 228.335938 162.492188 C 228.910156 162.359375 229.601563 162.503906 230.414063 162.929688 Z M 233.636719 157.558594 L 236.667969 159.558594 L 236.167969 160.292969 L 233.167969 158.308594 C 232.691406 157.996094 232.277344 157.851563 231.933594 157.871094 C 231.589844 157.882813 231.308594 158.050781 231.089844 158.371094 C 230.832031 158.777344 230.761719 159.191406 230.886719 159.605469 C 231.011719 160.023438 231.320313 160.394531 231.808594 160.714844 L 234.652344 162.589844 L 234.152344 163.339844 L 229.136719 160.027344 L 229.636719 159.277344 L 230.417969 159.792969 C 230.222656 159.417969 230.132813 159.066406 230.152344 158.730469 C 230.164063 158.386719 230.273438 158.058594 230.480469 157.746094 C 230.816406 157.226563 231.253906 156.949219 231.792969 156.917969 C 232.335938 156.886719 232.949219 157.101563 233.636719 157.558594 Z M 237.769531 152.675781 L 238.160156 152.972656 L 235.660156 156.222656 C 236.222656 156.609375 236.746094 156.777344 237.222656 156.722656 C 237.710938 156.671875 238.132813 156.417969 238.488281 155.957031 C 238.695313 155.6875 238.855469 155.394531 238.972656 155.082031 C 239.097656 154.769531 239.183594 154.4375 239.238281 154.082031 L 239.972656 154.644531 C 239.898438 154.988281 239.789063 155.316406 239.644531 155.628906 C 239.507813 155.941406 239.335938 156.234375 239.128906 156.503906 C 238.597656 157.191406 237.957031 157.566406 237.207031 157.628906 C 236.457031 157.691406 235.703125 157.433594 234.941406 156.847656 C 234.160156 156.253906 233.6875 155.59375 233.519531 154.863281 C 233.355469 154.125 233.519531 153.433594 234.019531 152.785156 C 234.457031 152.214844 235.015625 151.917969 235.691406 151.894531 C 236.371094 151.875 237.058594 152.136719 237.769531 152.675781 Z M 236.988281 153.222656 C 236.550781 152.890625 236.125 152.734375 235.707031 152.753906 C 235.292969 152.765625 234.949219 152.941406 234.675781 153.285156 C 234.375 153.691406 234.261719 154.109375 234.332031 154.535156 C 234.394531 154.964844 234.636719 155.363281 235.050781 155.738281 Z M 236.988281 153.222656 "/>
</g>
</svg>

