<?xml version="1.0" encoding="UTF-8"?>
<svg xmlns="http://www.w3.org/2000/svg" xmlns:xlink="http://www.w3.org/1999/xlink" width="256pt" height="256pt" viewBox="0 0 256 256" version="1.1">
<g id="surface2">
<rect x="0" y="0" width="256" height="256" style="fill:rgb(60%,70.196078%,80%);fill-opacity:1;stroke:none;"/>
<path style=" stroke:none;fill-rule:evenodd;fill:rgb(94.901961%,93.72549%,91.372549%);fill-opacity:1;" d="M -4 259 L 66.859375 259 L 68.828125 255.355469 L 74.757813 243.976563 L 80.074219 234.132813 L 83.929688 226.066406 L 84.519531 222.164063 L 86.136719 219.597656 L 89.121094 215.136719 L 93.757813 206.445313 L 96.628906 201.851563 L 102.824219 190.097656 L 106.566406 182.3125 L 110.089844 174.253906 L 117.28125 160.3125 L 121.308594 151.46875 L 123.328125 145.949219 L 119.8125 144.636719 L 118.730469 147.390625 L 117.253906 146.835938 L 118.292969 144.105469 L 117.875 143.960938 L 119.25 140.292969 L 123.996094 142.058594 L 123.644531 142.949219 L 124.992188 143.488281 L 126.183594 140.441406 L 126.949219 139.785156 L 127.679688 138.527344 L 128.511719 136.910156 L 128.882813 135.160156 L 129.433594 132.882813 L 129.746094 130.460938 L 129.398438 129.886719 L 129.167969 129.125 L 129.484375 128.628906 L 129.757813 127.945313 L 125.71875 126.164063 L 126.519531 124.164063 L 130.71875 125.964844 L 130.355469 125.410156 L 130.371094 124.128906 L 130.503906 123.53125 L 130.71875 122.941406 L 130.859375 122.375 L 130.402344 121.660156 L 130.167969 120.285156 L 130.101563 118.523438 L 130.371094 116.726563 L 130.824219 114.6875 L 131.292969 112.90625 L 131.792969 111.640625 L 132.179688 110.894531 L 132.054688 110.003906 L 131.757813 109.253906 L 131.917969 108.222656 L 132.601563 107.707031 L 131.992188 107.113281 L 131.742188 106.539063 L 131.652344 105.8125 L 131.78125 105.203125 L 132.148438 104.570313 L 131.40625 104.328125 L 131.933594 102.667969 L 132.554688 102.871094 L 133.019531 101.394531 L 132.460938 100.691406 L 131.867188 99.847656 L 131.648438 98.839844 L 131.636719 97.4375 L 131.636719 95.96875 L 131.847656 95.351563 L 131.632813 94.679688 L 131.074219 93.71875 L 130.402344 93.160156 L 129.570313 92.960938 L 128.230469 93.019531 L 127.417969 93.472656 L 126.292969 93.988281 L 125.273438 93.457031 L 125.117188 92.128906 L 125.355469 90.957031 L 125.839844 89.457031 L 126.433594 88.171875 L 127.121094 86.96875 L 128.117188 85.878906 L 129.121094 85.421875 L 130.53125 85.3125 L 131.761719 85.625 L 134.558594 80.59375 L 135.558594 78.683594 L 135.972656 78.335938 L 136.125 77.910156 L 136.683594 77.996094 L 137.378906 77.007813 L 137.742188 74.585938 L 138.863281 70.558594 L 136.273438 67.984375 L 134.96875 66.769531 L 134.167969 65.285156 L 133.769531 63.199219 L 133.835938 60.316406 L 134.3125 56.648438 L 135.109375 53.0625 L 135.636719 50.015625 L 137.066406 43.996094 L 137.964844 38.636719 L 138.5 35.714844 L 139.34375 31.828125 L 140.015625 28.546875 L 140.964844 25.367188 L 142.707031 21.660156 L 144.25 19 L 144.949219 17.214844 L 145.761719 15.945313 L 146.292969 14.683594 L 147.128906 13.464844 L 147.914063 12.257813 L 150.789063 5.488281 L 151.421875 4.003906 L 151.890625 2.535156 L 152.28125 0.890625 L 152.675781 -0.949219 L 153 -2.449219 L 153.347656 -4 L 259 -4 L 259 259 Z M -4 259 "/>
<path style=" stroke:none;fill-rule:evenodd;fill:rgb(79.607843%,84.705882%,76.470588%);fill-opacity:1;" d="M -4 260 L -4 -4 L 260 -4 L -4 -4 Z M -4 260 "/>
<path style=" stroke:none;fill-rule:evenodd;fill:rgb(70.980392%,82.352941%,61.176471%);fill-opacity:1;" d="M -4 260 L -4 -4 L 260 -4 L -4 -4 Z M -4 260 "/>
<path style=" stroke:none;fill-rule:evenodd;fill:rgb(70.980392%,82.352941%,61.176471%);fill-opacity:1;" d="M 134.167969 65.285156 L 134.96875 66.769531 L 136.273438 67.984375 L 138.863281 70.558594 L 139.003906 72.152344 L 143.496094 75.625 L 161.59375 95.550781 L 216.652344 156.570313 L 248.632813 127.328125 L 260 116.804688 L 260 -4 L 153.347656 -4 L 153 -2.449219 L 152.675781 -0.949219 L 152.28125 0.890625 L 151.894531 2.535156 L 151.421875 4.003906 L 150.789063 5.488281 L 147.914063 12.257813 L 147.128906 13.464844 L 146.292969 14.683594 L 145.761719 15.945313 L 144.949219 17.214844 L 144.25 19 L 142.707031 21.660156 L 140.964844 25.367188 L 140.015625 28.546875 L 139.34375 31.828125 L 138.5 35.714844 L 137.964844 38.636719 L 137.066406 43.996094 L 135.636719 50.015625 L 135.109375 53.0625 L 134.3125 56.648438 L 133.835938 60.316406 L 133.769531 63.199219 Z M 134.167969 65.285156 "/>
<path style=" stroke:none;fill-rule:evenodd;fill:rgb(70.980392%,82.352941%,61.176471%);fill-opacity:1;" d="M -4 260 L 99.832031 260 L 103.246094 248.5 L 110.75 221.125 L 113.996094 211.375 L 119.5 199.375 L 134.121094 165.875 L 139.246094 163.75 L 142.375 160.5 L 145.746094 158.375 L 149.621094 157.625 L 153.5 157.25 L 158.246094 157.625 L 159.996094 155.375 L 164.5 148.289063 L 170.257813 139.507813 L 172.875 135.875 L 180.121094 128.375 L 165.125 111.625 L 138.621094 90.25 L 143.496094 75.625 L 139.003906 72.152344 L 138.863281 70.558594 L 137.742188 74.585938 L 137.378906 77.007813 L 136.683594 77.996094 L 135.558594 78.683594 L 134.558594 80.59375 L 131.761719 85.625 L 130.53125 85.3125 L 129.121094 85.421875 L 128.117188 85.878906 L 127.121094 86.96875 L 126.433594 88.175781 L 125.839844 89.457031 L 125.355469 90.957031 L 125.117188 92.128906 L 125.273438 93.457031 L 126.292969 93.988281 L 127.417969 93.472656 L 129.570313 92.960938 L 131.074219 93.71875 L 131.632813 94.683594 L 131.636719 95.96875 L 131.636719 97.441406 L 131.648438 98.839844 L 131.867188 99.847656 L 132.460938 100.691406 L 132.558594 102.871094 L 131.675781 103.472656 L 132.148438 104.570313 L 131.652344 105.8125 L 131.992188 107.113281 L 131.917969 108.222656 L 131.761719 109.253906 L 132.179688 110.894531 L 131.292969 112.90625 L 130.824219 114.6875 L 130.371094 116.726563 L 130.101563 118.523438 L 130.167969 120.285156 L 130.402344 121.660156 L 130.71875 122.941406 L 130.371094 124.128906 L 130.355469 125.414063 L 126.519531 124.164063 L 125.71875 126.164063 L 129.757813 127.945313 L 129.167969 129.125 L 129.746094 130.460938 L 129.433594 132.882813 L 128.882813 135.160156 L 128.511719 136.910156 L 127.679688 138.527344 L 126.949219 139.785156 L 126.183594 140.441406 L 124.992188 143.492188 L 123.644531 142.949219 L 119.25 140.292969 L 117.875 143.960938 L 117.253906 146.835938 L 118.730469 147.390625 L 119.8125 144.636719 L 123.328125 145.949219 L 121.308594 151.472656 L 117.28125 160.3125 L 110.089844 174.253906 L 106.570313 182.3125 L 102.828125 190.097656 L 96.628906 201.851563 L 93.757813 206.445313 L 89.121094 215.140625 L 86.136719 219.597656 L 84.519531 222.164063 L 83.929688 226.066406 L 80.074219 234.132813 L 74.757813 243.980469 L 68.828125 255.355469 L 66.320313 260 Z M -4 260 "/>
<path style=" stroke:none;fill-rule:evenodd;fill:rgb(79.607843%,84.705882%,76.470588%);fill-opacity:1;" d="M 216.652344 156.570313 L 248.632813 127.328125 L 260 116.804688 L 260 -4 L 185.824219 -4 L 178.839844 20.445313 L 180.074219 43.898438 L 166.0625 86.320313 L 161.59375 95.550781 Z M 216.652344 156.570313 "/>
<path style=" stroke:none;fill-rule:evenodd;fill:rgb(70.980392%,82.352941%,61.176471%);fill-opacity:1;" d="M 182.050781 260 L 182.871094 255.125 L 190.75 242.8125 L 200.621094 229.9375 L 203.804688 226.152344 L 210.246094 221.0625 L 234.4375 203.988281 L 232.15625 200.488281 L 206.308594 196.964844 L 200.875 196.050781 L 195.71875 194.425781 L 189 190.644531 L 170.59375 169.582031 L 165.6875 164.675781 L 160.875 161.050781 L 159.25 160.144531 L 157.375 159.738281 L 152.035156 159.457031 L 149.125 160.113281 L 146.746094 161 L 140.871094 164.878906 L 136.09375 172.332031 L 131.125 183.425781 L 126.996094 192 L 118.125 213.269531 L 114.6875 225.144531 L 106.78125 255.894531 L 105.113281 260 Z M 182.050781 260 "/>
<path style=" stroke:none;fill-rule:evenodd;fill:rgb(87.058824%,81.960784%,67.058824%);fill-opacity:1;" d="M 143.023438 36.179688 L 143.179688 37.332031 L 143.628906 38.890625 L 144.300781 40.46875 L 145.117188 41.847656 L 145.832031 43.277344 L 147.101563 44.964844 L 148.652344 46.378906 L 151.390625 48.066406 L 155.183594 50.210938 L 159.257813 51.917969 L 167.65625 24.617188 L 166.863281 23.027344 L 149.046875 17.746094 L 144.101563 31.414063 L 143.269531 34.113281 L 143.050781 35.234375 Z M 143.023438 36.179688 "/>
<path style=" stroke:none;fill-rule:evenodd;fill:rgb(87.058824%,81.960784%,67.058824%);fill-opacity:1;" d="M 173.492188 5.089844 L 176.554688 -4 L 158.0625 -4 L 156.972656 -1.558594 Z M 173.492188 5.089844 "/>
<path style=" stroke:none;fill-rule:evenodd;fill:rgb(87.058824%,81.960784%,67.058824%);fill-opacity:1;" d="M 149.464844 17.1875 L 166.921875 22.648438 L 168.332031 21.894531 L 173.492188 5.089844 L 156.972656 -1.558594 Z M 149.464844 17.1875 "/>
<path style=" stroke:none;fill-rule:evenodd;fill:rgb(81.960784%,81.568627%,80.392157%);fill-opacity:1;" d="M 128.6875 240.164063 L 128.9375 242.945313 L 129.59375 243.882813 L 130.777344 244.664063 L 130.125 245.882813 L 136.777344 249.132813 L 138.125 248.914063 L 139.125 248.226563 L 140.746094 244.414063 L 130 239.226563 Z M 128.6875 240.164063 "/>
<path style="fill:none;stroke-width:1;stroke-linecap:round;stroke-linejoin:round;stroke:rgb(81.960784%,81.960784%,81.960784%);stroke-opacity:1;stroke-miterlimit:10;" d="M 128.6875 240.164063 L 128.9375 242.945313 L 129.59375 243.882813 L 130.777344 244.664063 L 130.125 245.882813 L 136.777344 249.132813 L 138.125 248.914063 L 139.125 248.226563 L 140.746094 244.414063 L 130 239.226563 L 128.6875 240.164063 "/>
<path style=" stroke:none;fill-rule:evenodd;fill:rgb(81.960784%,81.568627%,80.392157%);fill-opacity:1;" d="M 137.800781 190.679688 L 139.589844 192.101563 L 141.5625 191.097656 L 143.90625 190.664063 L 145.730469 190.746094 L 147.566406 191.039063 L 147.519531 188.308594 L 144.207031 187.804688 L 141.800781 187.902344 L 140.113281 188.398438 L 138.957031 189.273438 Z M 137.800781 190.679688 "/>
<path style="fill:none;stroke-width:1;stroke-linecap:round;stroke-linejoin:round;stroke:rgb(81.960784%,81.960784%,81.960784%);stroke-opacity:1;stroke-miterlimit:10;" d="M 137.800781 190.679688 L 139.589844 192.101563 L 141.5625 191.097656 L 143.90625 190.664063 L 145.730469 190.746094 L 147.566406 191.039063 L 147.519531 188.308594 L 144.207031 187.804688 L 141.800781 187.902344 L 140.113281 188.398438 L 138.957031 189.273438 L 137.800781 190.679688 "/>
<path style=" stroke:none;fill-rule:evenodd;fill:rgb(81.960784%,81.568627%,80.392157%);fill-opacity:1;" d="M 161.28125 198.6875 L 162 199.964844 L 163.03125 201.964844 L 163.84375 203.53125 L 164.375 205.3125 L 165.34375 210.308594 L 166.4375 209.59375 L 167.34375 207.902344 L 167.09375 206.4375 L 166.34375 204.152344 L 165.75 201.746094 L 164.625 200.125 L 163 198.28125 Z M 161.28125 198.6875 "/>
<path style="fill:none;stroke-width:1;stroke-linecap:round;stroke-linejoin:round;stroke:rgb(81.960784%,81.960784%,81.960784%);stroke-opacity:1;stroke-miterlimit:10;" d="M 161.28125 198.6875 L 162 199.964844 L 163.03125 201.964844 L 163.84375 203.53125 L 164.375 205.3125 L 165.34375 210.308594 L 166.4375 209.59375 L 167.34375 207.902344 L 167.09375 206.4375 L 166.34375 204.152344 L 165.75 201.746094 L 164.625 200.125 L 163 198.28125 L 161.28125 198.6875 "/>
<path style=" stroke:none;fill-rule:evenodd;fill:rgb(98.039216%,98.039216%,96.078431%);fill-opacity:1;" d="M 134.390625 213.261719 L 135.503906 213.648438 L 136.785156 214.039063 L 136.570313 213.0625 L 136.246094 212.074219 L 137.078125 211.289063 L 139.9375 212.164063 L 141.457031 207.789063 L 141.902344 206.421875 L 141.035156 205.902344 L 138.769531 209.785156 L 137.1875 209.265625 L 136.023438 208.71875 L 135.546875 209.898438 L 134.957031 212.078125 L 134.78125 212.03125 Z M 134.390625 213.261719 "/>
<path style=" stroke:none;fill-rule:evenodd;fill:rgb(70.980392%,82.352941%,61.176471%);fill-opacity:1;" d="M 234.9375 200.457031 L 236.375 202.863281 L 237.34375 203.238281 L 241.78125 200.113281 L 235.90625 199.363281 L 235.03125 199.894531 Z M 234.9375 200.457031 "/>
<path style=" stroke:none;fill-rule:evenodd;fill:rgb(98.039216%,98.039216%,96.078431%);fill-opacity:1;" d="M 133.644531 188.367188 L 134.019531 188.746094 L 138.707031 184.808594 L 138.113281 183.898438 L 135.769531 184.398438 L 134.238281 185.773438 L 133.925781 187.179688 Z M 133.644531 188.367188 "/>
<path style=" stroke:none;fill-rule:evenodd;fill:rgb(98.039216%,98.039216%,96.078431%);fill-opacity:1;" d="M 175.714844 199.820313 L 175.835938 200.242188 L 176.574219 202.875 L 176.875 203.945313 L 178.78125 204.070313 L 179.9375 202.945313 L 179.371094 201.039063 L 178.5 200.382813 L 177.125 200.039063 Z M 175.714844 199.820313 "/>
<path style=" stroke:none;fill-rule:evenodd;fill:rgb(98.039216%,98.039216%,96.078431%);fill-opacity:1;" d="M 155.4375 177.914063 L 157.9375 179.101563 L 158.9375 178.414063 L 158.96875 177.382813 L 158.28125 176.226563 L 156.875 176.132813 L 156.28125 177.039063 L 155.714844 177.351563 Z M 155.4375 177.914063 "/>
<path style=" stroke:none;fill-rule:evenodd;fill:rgb(98.039216%,98.039216%,96.078431%);fill-opacity:1;" d="M 168.84375 193.371094 L 168.933594 193.648438 L 170 195.371094 L 171.15625 195 L 171.914063 193.875 L 171.292969 192.828125 L 169.722656 192.964844 Z M 168.84375 193.371094 "/>
<path style=" stroke:none;fill-rule:evenodd;fill:rgb(60%,70.196078%,80%);fill-opacity:1;" d="M -4 259 L 66.863281 259 L 68.828125 255.355469 L 74.757813 243.980469 L 80.074219 234.132813 L 83.929688 226.066406 L 84.519531 222.164063 L 86.136719 219.597656 L 89.121094 215.140625 L 93.757813 206.445313 L 96.628906 201.851563 L 102.828125 190.097656 L 106.570313 182.3125 L 110.089844 174.253906 L 117.28125 160.3125 L 121.308594 151.472656 L 123.328125 145.949219 L 119.8125 144.636719 L 118.730469 147.390625 L 117.253906 146.835938 L 118.292969 144.105469 L 119.25 140.292969 L 124 142.058594 L 124.992188 143.492188 L 126.183594 140.441406 L 126.949219 139.785156 L 127.679688 138.527344 L 128.511719 136.910156 L 128.882813 135.160156 L 129.433594 132.882813 L 129.746094 130.460938 L 129.167969 129.125 L 129.757813 127.945313 L 125.71875 126.164063 L 126.519531 124.164063 L 130.71875 125.964844 L 130.371094 124.128906 L 130.71875 122.941406 L 130.402344 121.660156 L 130.167969 120.285156 L 130.101563 118.523438 L 130.371094 116.726563 L 130.824219 114.6875 L 131.292969 112.90625 L 131.792969 111.640625 L 132.054688 110.003906 L 131.917969 108.222656 L 131.992188 107.113281 L 131.652344 105.8125 L 132.148438 104.570313 L 131.675781 103.472656 L 132.558594 102.871094 L 133.019531 101.394531 L 131.867188 99.847656 L 131.648438 98.839844 L 131.636719 97.441406 L 131.636719 95.96875 L 131.632813 94.683594 L 131.074219 93.71875 L 129.570313 92.960938 L 128.230469 93.019531 L 126.292969 93.988281 L 125.273438 93.457031 L 125.117188 92.128906 L 125.355469 90.957031 L 125.839844 89.457031 L 126.433594 88.175781 L 127.121094 86.96875 L 128.117188 85.878906 L 129.121094 85.421875 L 130.53125 85.3125 L 131.761719 85.625 L 134.558594 80.59375 L 135.558594 78.683594 L 136.683594 77.996094 L 137.378906 77.007813 L 137.742188 74.585938 L 138.863281 70.558594 L 136.273438 67.984375 L 134.96875 66.769531 L 134.167969 65.285156 L 133.769531 63.199219 L 133.835938 60.316406 L 134.3125 56.648438 L 135.109375 53.0625 L 135.636719 50.015625 L 137.066406 43.996094 L 137.964844 38.636719 L 138.5 35.714844 L 139.34375 31.828125 L 140.015625 28.546875 L 140.964844 25.367188 L 142.707031 21.660156 L 144.25 19 L 144.949219 17.214844 L 145.761719 15.945313 L 146.292969 14.683594 L 147.128906 13.464844 L 147.914063 12.257813 L 150.789063 5.488281 L 151.421875 4.003906 L 151.894531 2.535156 L 152.28125 0.890625 L 152.675781 -0.949219 L 153 -2.449219 L 153.347656 -4 L 259 -4 L -4 -4 Z M -4 259 "/>
<path style="fill:none;stroke-width:1;stroke-linecap:round;stroke-linejoin:round;stroke:rgb(70.196078%,77.647059%,83.137255%);stroke-opacity:1;stroke-miterlimit:10;" d="M -4 259 L 66.863281 259 L 68.828125 255.355469 L 74.757813 243.980469 L 80.074219 234.132813 L 83.929688 226.066406 L 84.519531 222.164063 L 86.136719 219.597656 L 89.121094 215.140625 L 93.757813 206.445313 L 96.628906 201.851563 L 102.828125 190.097656 L 106.570313 182.3125 L 110.089844 174.253906 L 117.28125 160.3125 L 121.308594 151.472656 L 123.328125 145.949219 L 119.8125 144.636719 L 118.730469 147.390625 L 117.253906 146.835938 L 118.292969 144.105469 L 119.25 140.292969 L 124 142.058594 L 124.992188 143.492188 L 126.183594 140.441406 L 126.949219 139.785156 L 127.679688 138.527344 L 128.511719 136.910156 L 128.882813 135.160156 L 129.433594 132.882813 L 129.746094 130.460938 L 129.167969 129.125 L 129.757813 127.945313 L 125.71875 126.164063 L 126.519531 124.164063 L 130.71875 125.964844 L 130.371094 124.128906 L 130.71875 122.941406 L 130.402344 121.660156 L 130.167969 120.285156 L 130.101563 118.523438 L 130.371094 116.726563 L 130.824219 114.6875 L 131.292969 112.90625 L 131.792969 111.640625 L 132.054688 110.003906 L 131.917969 108.222656 L 131.992188 107.113281 L 131.652344 105.8125 L 132.148438 104.570313 L 131.675781 103.472656 L 132.558594 102.871094 L 133.019531 101.394531 L 131.867188 99.847656 L 131.648438 98.839844 L 131.636719 97.441406 L 131.636719 95.96875 L 131.632813 94.683594 L 131.074219 93.71875 L 129.570313 92.960938 L 128.230469 93.019531 L 126.292969 93.988281 L 125.273438 93.457031 L 125.117188 92.128906 L 125.355469 90.957031 L 125.839844 89.457031 L 126.433594 88.175781 L 127.121094 86.96875 L 128.117188 85.878906 L 129.121094 85.421875 L 130.53125 85.3125 L 131.761719 85.625 L 134.558594 80.59375 L 135.558594 78.683594 L 136.683594 77.996094 L 137.378906 77.007813 L 137.742188 74.585938 L 138.863281 70.558594 L 136.273438 67.984375 L 134.96875 66.769531 L 134.167969 65.285156 L 133.769531 63.199219 L 133.835938 60.316406 L 134.3125 56.648438 L 135.109375 53.0625 L 135.636719 50.015625 L 137.066406 43.996094 L 137.964844 38.636719 L 138.5 35.714844 L 139.34375 31.828125 L 140.015625 28.546875 L 140.964844 25.367188 L 142.707031 21.660156 L 144.25 19 L 144.949219 17.214844 L 145.761719 15.945313 L 146.292969 14.683594 L 147.128906 13.464844 L 147.914063 12.257813 L 150.789063 5.488281 L 151.421875 4.003906 L 151.894531 2.535156 L 152.28125 0.890625 L 152.675781 -0.949219 L 153 -2.449219 L 153.347656 -4 L 259 -4 L -4 -4 L -4 259 "/>
<path style="fill:none;stroke-width:1;stroke-linecap:butt;stroke-linejoin:round;stroke:rgb(46.666667%,46.666667%,46.666667%);stroke-opacity:1;stroke-dasharray:2,2;stroke-miterlimit:10;" d="M 154.195313 86.640625 L 157.75 77.296875 L 161.339844 67.628906 L 162.632813 63.246094 L 164.21875 58.097656 L 166.964844 48.457031 L 172.617188 29.28125 L 178.113281 13.382813 L 180.5625 5.375 L 182.980469 -2 "/>
<path style="fill:none;stroke-width:1;stroke-linecap:butt;stroke-linejoin:round;stroke:rgb(46.666667%,46.666667%,46.666667%);stroke-opacity:1;stroke-dasharray:2,2;stroke-miterlimit:10;" d="M 147.324219 104.824219 L 154.195313 86.640625 "/>
<path style="fill:none;stroke-width:1;stroke-linecap:butt;stroke-linejoin:round;stroke:rgb(46.666667%,46.666667%,46.666667%);stroke-opacity:1;stroke-dasharray:2,2;stroke-miterlimit:10;" d="M 79.898438 257 L 82.785156 252.160156 L 94.210938 231.605469 L 101.09375 218.304688 L 107.324219 204.8125 L 119.074219 178.679688 L 130.445313 152.390625 L 139.660156 124.628906 L 147.324219 104.824219 "/>
<path style="fill:none;stroke-width:3;stroke-linecap:round;stroke-linejoin:round;stroke:rgb(98.039216%,98.039216%,96.078431%);stroke-opacity:0.4;stroke-miterlimit:10;" d="M 136.699219 154.710938 L 136.746094 155.882813 L 140.464844 154.832031 L 143.484375 153.976563 "/>
<path style="fill:none;stroke-width:1;stroke-linecap:round;stroke-linejoin:round;stroke:rgb(100%,100%,100%);stroke-opacity:1;stroke-dasharray:2,3;stroke-miterlimit:10;" d="M 123.246094 238.128906 L 123.785156 238.101563 "/>
<path style="fill:none;stroke-width:1;stroke-linecap:round;stroke-linejoin:round;stroke:rgb(100%,100%,100%);stroke-opacity:1;stroke-dasharray:2,3;stroke-miterlimit:10;" d="M 167.902344 193.921875 L 168.933594 193.648438 "/>
<path style="fill:none;stroke-width:1;stroke-linecap:round;stroke-linejoin:round;stroke:rgb(100%,100%,100%);stroke-opacity:1;stroke-dasharray:2,3;stroke-miterlimit:10;" d="M 142.957031 181.148438 L 144.425781 180.929688 "/>
<path style="fill:none;stroke-width:1;stroke-linecap:round;stroke-linejoin:round;stroke:rgb(100%,100%,100%);stroke-opacity:1;stroke-dasharray:2,3;stroke-miterlimit:10;" d="M 127.082031 209.054688 L 127.125 210.65625 "/>
<path style="fill:none;stroke-width:1;stroke-linecap:round;stroke-linejoin:round;stroke:rgb(100%,100%,100%);stroke-opacity:1;stroke-dasharray:2,3;stroke-miterlimit:10;" d="M 149.5 228.820313 L 151.34375 229.726563 "/>
<path style="fill:none;stroke-width:1;stroke-linecap:round;stroke-linejoin:round;stroke:rgb(100%,100%,100%);stroke-opacity:1;stroke-dasharray:2,3;stroke-miterlimit:10;" d="M 164.996094 193.351563 L 166.996094 194.328125 "/>
<path style="fill:none;stroke-width:1;stroke-linecap:round;stroke-linejoin:round;stroke:rgb(100%,100%,100%);stroke-opacity:1;stroke-dasharray:2,3;stroke-miterlimit:10;" d="M 122.46875 227.28125 L 121.25 229.46875 "/>
<path style="fill:none;stroke-width:1;stroke-linecap:round;stroke-linejoin:round;stroke:rgb(100%,100%,100%);stroke-opacity:1;stroke-dasharray:2,3;stroke-miterlimit:10;" d="M 175.835938 200.242188 L 174.375 199.976563 L 173.09375 199.914063 "/>
<path style="fill:none;stroke-width:1;stroke-linecap:round;stroke-linejoin:round;stroke:rgb(100%,100%,100%);stroke-opacity:1;stroke-dasharray:2,3;stroke-miterlimit:10;" d="M 235 190.308594 L 234.371094 192.519531 L 234.335938 193.347656 "/>
<path style="fill:none;stroke-width:1;stroke-linecap:round;stroke-linejoin:round;stroke:rgb(100%,100%,100%);stroke-opacity:1;stroke-dasharray:2,3;stroke-miterlimit:10;" d="M 123.785156 238.101563 L 124.777344 237.945313 L 126.9375 237.757813 "/>
<path style="fill:none;stroke-width:1;stroke-linecap:round;stroke-linejoin:round;stroke:rgb(100%,100%,100%);stroke-opacity:1;stroke-dasharray:2,3;stroke-miterlimit:10;" d="M 198.203125 223.902344 L 201.339844 224.546875 "/>
<path style="fill:none;stroke-width:1;stroke-linecap:round;stroke-linejoin:round;stroke:rgb(100%,100%,100%);stroke-opacity:1;stroke-dasharray:2,3;stroke-miterlimit:10;" d="M 141.6875 244.539063 L 139.996094 247.539063 "/>
<path style="fill:none;stroke-width:1;stroke-linecap:round;stroke-linejoin:round;stroke:rgb(100%,100%,100%);stroke-opacity:1;stroke-dasharray:2,3;stroke-miterlimit:10;" d="M 165.777344 211.703125 L 167.265625 211.59375 L 168.484375 211.65625 L 169.242188 211.9375 "/>
<path style="fill:none;stroke-width:1;stroke-linecap:round;stroke-linejoin:round;stroke:rgb(100%,100%,100%);stroke-opacity:1;stroke-dasharray:2,3;stroke-miterlimit:10;" d="M 158.609375 191.710938 L 157.5 193.101563 L 156.121094 195.363281 "/>
<path style="fill:none;stroke-width:1;stroke-linecap:round;stroke-linejoin:round;stroke:rgb(100%,100%,100%);stroke-opacity:1;stroke-dasharray:2,3;stroke-miterlimit:10;" d="M 148.113281 180.523438 L 149.238281 180.871094 L 151.089844 181.320313 L 152.1875 182.101563 "/>
<path style="fill:none;stroke-width:1;stroke-linecap:round;stroke-linejoin:round;stroke:rgb(100%,100%,100%);stroke-opacity:1;stroke-dasharray:2,3;stroke-miterlimit:10;" d="M 235.988281 189.527344 L 235 190.308594 L 233.890625 189.828125 L 233.15625 189.046875 L 232.390625 188.113281 "/>
<path style="fill:none;stroke-width:1;stroke-linecap:round;stroke-linejoin:round;stroke:rgb(100%,100%,100%);stroke-opacity:1;stroke-dasharray:2,3;stroke-miterlimit:10;" d="M 176.574219 202.875 L 175.59375 204.820313 L 175.027344 206.195313 L 174.339844 207.289063 "/>
<path style="fill:none;stroke-width:1;stroke-linecap:round;stroke-linejoin:round;stroke:rgb(100%,100%,100%);stroke-opacity:1;stroke-dasharray:2,3;stroke-miterlimit:10;" d="M 153.3125 230.195313 L 151.527344 231.757813 L 149.375 233.820313 "/>
<path style="fill:none;stroke-width:1;stroke-linecap:round;stroke-linejoin:round;stroke:rgb(100%,100%,100%);stroke-opacity:1;stroke-dasharray:2,3;stroke-miterlimit:10;" d="M 248.410156 57.4375 L 245.671875 58.671875 L 243.03125 59.40625 "/>
<path style="fill:none;stroke-width:1;stroke-linecap:round;stroke-linejoin:round;stroke:rgb(100%,100%,100%);stroke-opacity:1;stroke-dasharray:2,3;stroke-miterlimit:10;" d="M 202.308594 226.371094 L 196.933594 228.414063 "/>
<path style="fill:none;stroke-width:1;stroke-linecap:round;stroke-linejoin:round;stroke:rgb(100%,100%,100%);stroke-opacity:1;stroke-dasharray:2,3;stroke-miterlimit:10;" d="M 121.015625 231.921875 L 121.371094 237.828125 L 121.453125 238.242188 "/>
<path style="fill:none;stroke-width:1;stroke-linecap:round;stroke-linejoin:round;stroke:rgb(100%,100%,100%);stroke-opacity:1;stroke-dasharray:2,3;stroke-miterlimit:10;" d="M 120.054688 243.03125 L 121.453125 238.242188 L 122.808594 238.160156 "/>
<path style="fill:none;stroke-width:1;stroke-linecap:round;stroke-linejoin:round;stroke:rgb(100%,100%,100%);stroke-opacity:1;stroke-dasharray:2,3;stroke-miterlimit:10;" d="M 143.550781 179.710938 L 142.957031 181.148438 L 142.175781 182.054688 L 140.300781 183.523438 L 138.488281 184.371094 "/>
<path style="fill:none;stroke-width:1;stroke-linecap:round;stroke-linejoin:round;stroke:rgb(100%,100%,100%);stroke-opacity:1;stroke-dasharray:2,3;stroke-miterlimit:10;" d="M 257 17.570313 L 254.476563 17.132813 L 249.484375 16.410156 "/>
<path style="fill:none;stroke-width:1;stroke-linecap:round;stroke-linejoin:round;stroke:rgb(100%,100%,100%);stroke-opacity:1;stroke-dasharray:2,3;stroke-miterlimit:10;" d="M 152.1875 182.101563 L 153.78125 182.90625 L 155.242188 184.046875 L 155.773438 185.171875 L 156.054688 186.390625 L 156.210938 187.515625 L 156.355469 188.894531 "/>
<path style="fill:none;stroke-width:1;stroke-linecap:round;stroke-linejoin:round;stroke:rgb(100%,100%,100%);stroke-opacity:1;stroke-dasharray:2,3;stroke-miterlimit:10;" d="M 238.511719 12.796875 L 242.058594 12.519531 L 245.347656 13.226563 L 248.609375 14.417969 "/>
<path style="fill:none;stroke-width:1;stroke-linecap:round;stroke-linejoin:round;stroke:rgb(100%,100%,100%);stroke-opacity:1;stroke-dasharray:2,3;stroke-miterlimit:10;" d="M 120.203125 231.59375 L 118.34375 240.6875 L 119.40625 241.125 "/>
<path style="fill:none;stroke-width:1;stroke-linecap:round;stroke-linejoin:round;stroke:rgb(100%,100%,100%);stroke-opacity:1;stroke-dasharray:2,3;stroke-miterlimit:10;" d="M 158.609375 191.710938 L 160.3125 192.53125 L 161.5 193.6875 L 162.523438 194.421875 L 164.90625 195.5 L 166.867188 195.203125 L 167.902344 193.921875 "/>
<path style="fill:none;stroke-width:1;stroke-linecap:round;stroke-linejoin:round;stroke:rgb(100%,100%,100%);stroke-opacity:1;stroke-dasharray:2,3;stroke-miterlimit:10;" d="M 237.464844 85.839844 L 238.832031 92.230469 L 239.847656 97.820313 "/>
<path style="fill:none;stroke-width:1;stroke-linecap:round;stroke-linejoin:round;stroke:rgb(100%,100%,100%);stroke-opacity:1;stroke-dasharray:2,3;stroke-miterlimit:10;" d="M 143.550781 179.710938 L 146.277344 178.945313 L 148.3125 178.402344 L 149.46875 178.226563 L 150.933594 177.945313 L 152.125 177.632813 L 153.214844 177.414063 L 154.375 177.414063 L 155.714844 177.351563 "/>
<path style="fill:none;stroke-width:1;stroke-linecap:round;stroke-linejoin:round;stroke:rgb(100%,100%,100%);stroke-opacity:1;stroke-dasharray:2,3;stroke-miterlimit:10;" d="M 168.714844 214.476563 L 170.089844 217.789063 L 171.152344 219.382813 L 171.464844 221.570313 L 171.625 223.226563 L 171.9375 224.414063 L 173.71875 224.664063 "/>
<path style="fill:none;stroke-width:1;stroke-linecap:round;stroke-linejoin:round;stroke:rgb(100%,100%,100%);stroke-opacity:1;stroke-dasharray:2,3;stroke-miterlimit:10;" d="M 204.175781 27.332031 L 202.847656 30.996094 L 201.882813 33.308594 L 203.042969 36.742188 L 204.335938 39.589844 "/>
<path style="fill:none;stroke-width:1;stroke-linecap:round;stroke-linejoin:round;stroke:rgb(100%,100%,100%);stroke-opacity:1;stroke-dasharray:2,3;stroke-miterlimit:10;" d="M 226.496094 185.894531 L 228.964844 186.953125 L 230.285156 187.546875 L 231.328125 188.015625 L 232.390625 188.113281 L 233.46875 188.417969 L 234.339844 189.136719 L 235.621094 189.246094 L 239.070313 187.316406 "/>
<path style="fill:none;stroke-width:1;stroke-linecap:round;stroke-linejoin:round;stroke:rgb(100%,100%,100%);stroke-opacity:1;stroke-dasharray:2,3;stroke-miterlimit:10;" d="M 246.992188 93.878906 L 243.234375 93.542969 L 241.054688 92.835938 L 238.832031 92.230469 L 237.257813 90.988281 L 235.179688 91.109375 L 232.628906 90.832031 "/>
<path style="fill:none;stroke-width:1;stroke-linecap:round;stroke-linejoin:round;stroke:rgb(100%,100%,100%);stroke-opacity:1;stroke-dasharray:2,3;stroke-miterlimit:10;" d="M 172.902344 253.820313 L 171.59375 253.132813 L 170.71875 252.101563 L 169.933594 249.664063 L 169.6875 247.070313 L 170.28125 242.976563 L 171.214844 239.226563 "/>
<path style="fill:none;stroke-width:1;stroke-linecap:round;stroke-linejoin:round;stroke:rgb(100%,100%,100%);stroke-opacity:1;stroke-dasharray:2,3;stroke-miterlimit:10;" d="M 127.125 210.65625 L 122.9375 224.46875 L 122.46875 227.28125 "/>
<path style="fill:none;stroke-width:1;stroke-linecap:round;stroke-linejoin:round;stroke:rgb(100%,100%,100%);stroke-opacity:1;stroke-dasharray:2,3;stroke-miterlimit:10;" d="M 206.734375 229.445313 L 203.804688 226.234375 L 202.308594 226.371094 L 201.339844 224.546875 L 200.0625 221.882813 L 199.90625 220.539063 L 199.84375 219.476563 L 199.9375 218.195313 L 200.773438 217.453125 L 200.683594 215.453125 L 200.808594 215.140625 "/>
<path style="fill:none;stroke-width:1;stroke-linecap:round;stroke-linejoin:round;stroke:rgb(100%,100%,100%);stroke-opacity:1;stroke-dasharray:2,3;stroke-miterlimit:10;" d="M 166.925781 194.816406 L 168.148438 196.203125 L 168.921875 197.359375 L 169.402344 198.796875 L 169.5 200.578125 L 169.625 201.625 L 169.453125 202.621094 L 169.339844 203.625 L 169.210938 205.296875 L 169.28125 207.328125 L 169.28125 208.339844 L 169.292969 210.6875 L 169.242188 211.9375 L 169.183594 214.03125 L 168.714844 214.476563 "/>
<path style="fill:none;stroke-width:1;stroke-linecap:round;stroke-linejoin:round;stroke:rgb(100%,100%,100%);stroke-opacity:1;stroke-dasharray:2,3;stroke-miterlimit:10;" d="M 158.464844 178.695313 L 159.371094 180.101563 L 160.3125 181.726563 L 160.78125 183.039063 L 161.027344 184.382813 L 161.46875 186.695313 L 162 188.007813 L 162.714844 189.320313 L 163.246094 190.476563 L 164.03125 191.945313 L 164.996094 193.351563 L 167.386719 192.109375 L 168.398438 192.421875 L 168.84375 193.371094 "/>
<path style="fill:none;stroke-width:1;stroke-linecap:round;stroke-linejoin:round;stroke:rgb(100%,100%,100%);stroke-opacity:1;stroke-dasharray:2,3;stroke-miterlimit:10;" d="M 162.8125 214.15625 L 162.5 215.945313 L 162.246094 218.007813 L 162.125 219.351563 L 161.59375 221.226563 L 161.09375 222.289063 L 160.589844 223.351563 L 159.902344 224.570313 L 159.25 225.414063 L 158.40625 226.164063 L 157.527344 227.070313 L 156.558594 227.945313 L 155.183594 229.070313 L 153.3125 230.195313 L 151.34375 229.726563 "/>
<path style="fill:none;stroke-width:1;stroke-linecap:round;stroke-linejoin:round;stroke:rgb(100%,100%,100%);stroke-opacity:1;stroke-dasharray:2,3;stroke-miterlimit:10;" d="M 253.171875 25.335938 L 251.492188 20.972656 L 249.484375 16.410156 L 248.609375 14.417969 L 247.402344 10.101563 L 246.546875 5.773438 L 246.121094 3.589844 "/>
<path style="fill:none;stroke-width:1;stroke-linecap:round;stroke-linejoin:round;stroke:rgb(100%,100%,100%);stroke-opacity:1;stroke-dasharray:2,3;stroke-miterlimit:10;" d="M 143.484375 153.976563 L 146.382813 153.410156 L 149.222656 153.109375 L 152.304688 153.398438 L 155.769531 154.089844 L 158.84375 154.785156 L 160.917969 154.164063 L 162.3125 153.988281 L 163.835938 155.515625 L 165.25 156.765625 "/>
<path style="fill:none;stroke-width:1;stroke-linecap:round;stroke-linejoin:round;stroke:rgb(100%,100%,100%);stroke-opacity:1;stroke-dasharray:2,3;stroke-miterlimit:10;" d="M 194.78125 205.832031 L 195.367188 204.796875 L 196.71875 203.851563 L 194.78125 202.101563 L 193.90625 200.976563 L 192.3125 199.101563 L 190.996094 196.695313 L 189.75 194.414063 L 188.28125 192.507813 L 188.558594 191.289063 L 191.488281 187.289063 "/>
<path style="fill:none;stroke-width:1;stroke-linecap:round;stroke-linejoin:round;stroke:rgb(100%,100%,100%);stroke-opacity:1;stroke-dasharray:2,3;stroke-miterlimit:10;" d="M 115.976563 257 L 120.054688 243.03125 "/>
<path style="fill:none;stroke-width:1;stroke-linecap:round;stroke-linejoin:round;stroke:rgb(100%,100%,100%);stroke-opacity:1;stroke-dasharray:2,3;stroke-miterlimit:10;" d="M 198.6875 103.511719 L 195.234375 103.320313 L 192.035156 101.28125 L 187.523438 90.140625 L 184.902344 87.832031 L 182.121094 87.851563 L 180.035156 87.78125 L 177.023438 89.808594 "/>
<path style="fill:none;stroke-width:1;stroke-linecap:round;stroke-linejoin:round;stroke:rgb(100%,100%,100%);stroke-opacity:1;stroke-dasharray:2,3;stroke-miterlimit:10;" d="M 126.9375 237.757813 L 129.625 237.726563 L 132.9375 238.601563 L 136.53125 239.820313 L 138.71875 240.351563 L 140.9375 240.039063 L 144.464844 238.820313 L 146.875 236.914063 L 149.027344 234.257813 L 149.5 231.351563 L 149.5 228.820313 L 148.15625 227.132813 L 146.878906 225.679688 "/>
<path style="fill:none;stroke-width:1;stroke-linecap:round;stroke-linejoin:round;stroke:rgb(100%,100%,100%);stroke-opacity:1;stroke-dasharray:2,3;stroke-miterlimit:10;" d="M 119.40625 241.125 L 118.6875 242.9375 L 118.089844 245.109375 L 116.714844 246.546875 L 116.277344 248.296875 L 115.335938 249.984375 L 114.0625 251.875 L 112.75 253.4375 L 111.664063 256.011719 L 110.976563 257 "/>
<path style="fill:none;stroke-width:1;stroke-linecap:round;stroke-linejoin:round;stroke:rgb(100%,100%,100%);stroke-opacity:1;stroke-dasharray:2,3;stroke-miterlimit:10;" d="M 177.277344 257 L 177.8125 255.476563 L 180.78125 248.289063 L 186.964844 242.476563 L 192.371094 234.632813 L 196.933594 228.414063 L 197.996094 226.101563 L 198.203125 223.902344 L 197.875 220.601563 L 196.53125 217.164063 L 195.089844 214.757813 L 193.46875 212.507813 L 191.28125 210.382813 "/>
<path style="fill:none;stroke-width:1;stroke-linecap:round;stroke-linejoin:round;stroke:rgb(100%,100%,100%);stroke-opacity:1;stroke-dasharray:2,3;stroke-miterlimit:10;" d="M 200.171875 63.800781 L 201.457031 52.039063 L 202.96875 42.277344 L 204.335938 39.589844 L 207.171875 33.65625 L 212.058594 30.394531 L 228.757813 18.988281 L 233.035156 19.074219 "/>
<path style="fill:none;stroke-width:1;stroke-linecap:round;stroke-linejoin:round;stroke:rgb(100%,100%,100%);stroke-opacity:1;stroke-dasharray:2,3;stroke-miterlimit:10;" d="M 218.628906 90.144531 L 221.78125 87.691406 L 223.605469 84.792969 L 223.488281 81.089844 L 221.113281 77.734375 L 220.324219 74.761719 L 220.386719 63.804688 L 221.210938 60.214844 L 222.773438 57.925781 L 225.152344 56.019531 L 228.023438 55.433594 L 231.960938 54.726563 L 243.03125 59.40625 L 247.679688 63.863281 "/>
<path style="fill:none;stroke-width:1;stroke-linecap:round;stroke-linejoin:round;stroke:rgb(100%,100%,100%);stroke-opacity:1;stroke-dasharray:2,3;stroke-miterlimit:10;" d="M 160.808594 257 L 163.125 255.101563 L 165.5625 252.320313 L 167.21875 248.539063 L 169.5 243.070313 L 171.214844 239.226563 L 172.214844 236.195313 L 172.808594 231.289063 L 173.71875 224.664063 L 174.4375 222.695313 L 175.625 220.132813 L 176.28125 216.570313 L 176.839844 212.632813 L 176.777344 211.164063 L 176.027344 210.226563 L 174.96875 209.257813 L 174.339844 207.289063 L 174.339844 204.570313 L 174.183594 202.289063 L 173.84375 200.851563 L 173.09375 199.914063 L 171.152344 198.507813 L 169.996094 197.007813 L 169.59375 196.382813 "/>
<path style="fill:none;stroke-width:1;stroke-linecap:round;stroke-linejoin:round;stroke:rgb(100%,100%,100%);stroke-opacity:1;stroke-dasharray:2,3;stroke-miterlimit:10;" d="M 203.851563 -2 L 202.78125 2.332031 L 200.359375 15.53125 L 199.84375 23.277344 "/>
<path style="fill:none;stroke-width:1;stroke-linecap:round;stroke-linejoin:round;stroke:rgb(100%,100%,100%);stroke-opacity:1;stroke-dasharray:2,3;stroke-miterlimit:10;" d="M 134.019531 188.746094 L 132.832031 190.867188 L 131.113281 194.117188 L 129.957031 195.992188 L 129.082031 197.460938 L 127.738281 199.804688 L 127.269531 201.617188 L 126.925781 203.210938 L 126.675781 205.804688 L 127.082031 209.054688 L 129.746094 206.109375 L 130.898438 204.824219 L 131.375 201.570313 L 132.839844 198.632813 L 133.964844 196.226563 L 135.121094 194.320313 L 136 192.757813 L 136.75 191.320313 L 137.621094 189.851563 L 138.839844 188.414063 L 140.53125 187.507813 L 142.15625 187.039063 L 143.75 187.09375 L 144.960938 187.140625 L 146.3125 187.289063 L 148 187.601563 L 149.8125 188.257813 L 151.308594 189.007813 L 152.589844 189.695313 L 153.875 190.476563 L 154.9375 191.195313 L 156.125 191.945313 L 156.996094 192.726563 L 158.308594 193.726563 L 159.746094 194.789063 L 160.746094 195.851563 L 161.558594 196.664063 L 162.46875 197.664063 L 164.585938 199.484375 L 165.464844 200.890625 L 166.335938 202.484375 L 166.75 204.25 L 167.242188 205.984375 L 167.589844 207.734375 L 167.023438 209.171875 L 165.867188 210.234375 L 165.59375 211.402344 L 165.777344 211.703125 "/>
<path style="fill:none;stroke-width:1;stroke-linecap:round;stroke-linejoin:round;stroke:rgb(100%,100%,100%);stroke-opacity:1;stroke-dasharray:2,3;stroke-miterlimit:10;" d="M 188.28125 192.507813 L 187.871094 193.570313 L 187.90625 195.726563 L 187.871094 197.164063 L 188.027344 198.195313 L 188.15625 199.632813 L 188.339844 200.882813 L 188.53125 202.101563 L 188.777344 203.539063 L 189.027344 204.539063 L 189.933594 206.132813 L 190.65625 207.320313 L 191.960938 208.828125 L 192.246094 209.921875 L 191.28125 210.382813 L 189 208.851563 L 187.6875 207.507813 L 186.6875 205.695313 L 186.277344 204.382813 L 185.589844 202.695313 L 184.5625 200.226563 L 182.875 197.257813 L 181.46875 195.007813 L 180.25 193.257813 L 178.4375 191.664063 L 177.089844 190.351563 L 176.15625 189.132813 L 174.027344 186.476563 L 172.058594 184.101563 L 169.558594 181.351563 L 167.40625 179.164063 L 166.214844 178.039063 L 164.683594 176.539063 L 163.839844 175.789063 L 162.8125 174.695313 L 161.558594 173.914063 L 160.121094 173.289063 L 159.09375 171.90625 L 157.308594 171.351563 L 155.496094 171.789063 L 154.21875 172.101563 L 152.96875 172.632813 L 151.558594 172.609375 L 150.53125 172.101563 L 149.15625 171.289063 L 148.09375 170.695313 L 146.5 169.820313 L 144.9375 170.101563 L 143.96875 170.539063 L 143.027344 171.320313 L 142.625 172.257813 L 142.28125 173.601563 L 142.125 174.945313 L 142.339844 176.226563 L 142.59375 177.257813 L 143.28125 178.695313 L 143.550781 179.710938 "/>
<path style="fill:none;stroke-width:1;stroke-linecap:round;stroke-linejoin:round;stroke:rgb(100%,100%,100%);stroke-opacity:1;stroke-dasharray:2,3;stroke-miterlimit:10;" d="M 180.78125 248.289063 L 174.09375 252.757813 L 172.902344 253.820313 L 168.5 257 "/>
<path style="fill:none;stroke-width:1;stroke-linecap:round;stroke-linejoin:round;stroke:rgb(100%,100%,100%);stroke-opacity:1;stroke-dasharray:2,3;stroke-miterlimit:10;" d="M 247.851563 0.511719 L 248.101563 -2 "/>
<path style="fill:none;stroke-width:1;stroke-linecap:round;stroke-linejoin:round;stroke:rgb(100%,100%,100%);stroke-opacity:1;stroke-dasharray:2,3;stroke-miterlimit:10;" d="M 152.703125 257 L 153.78125 255.101563 L 154.9375 253.070313 L 156.183594 251.132813 L 157.464844 249.570313 L 158.96875 248.445313 L 160.34375 246.820313 L 161.277344 245.007813 L 163.03125 241.789063 L 164.464844 238.882813 L 165.839844 235.695313 L 167.09375 233.476563 L 167.53125 231.757813 L 167.433594 229.914063 L 167.433594 227.914063 L 168.21875 224.539063 L 168.496094 221.070313 L 168.402344 216.101563 L 168.714844 214.476563 "/>
<path style="fill:none;stroke-width:1;stroke-linecap:round;stroke-linejoin:round;stroke:rgb(100%,100%,100%);stroke-opacity:1;stroke-dasharray:2,3;stroke-miterlimit:10;" d="M 235.8125 142.277344 L 228.894531 139.257813 L 212.242188 132.515625 L 209.699219 130.574219 L 209.15625 127.421875 L 209.441406 124.015625 L 211.191406 118.554688 L 213.941406 114.695313 L 216.394531 112.703125 L 223.207031 110.015625 L 229.164063 107.78125 L 233.824219 107.789063 L 236.910156 105.96875 L 238.929688 101.257813 L 239.847656 97.820313 L 241.363281 97.003906 L 243.707031 96.054688 L 246.992188 93.878906 L 249.34375 89.996094 L 251.320313 86.234375 L 254.546875 82.871094 L 257 80.6875 "/>
<path style="fill:none;stroke-width:1;stroke-linecap:round;stroke-linejoin:round;stroke:rgb(100%,100%,100%);stroke-opacity:1;stroke-dasharray:2,3;stroke-miterlimit:10;" d="M 255.890625 123.726563 L 246.21875 123.105469 L 238.109375 125.195313 L 233.082031 125.800781 L 228.367188 125.800781 L 220.304688 121.789063 L 216.070313 118.261719 L 213.941406 114.695313 L 211.035156 110.703125 L 206.261719 107.800781 L 201.097656 105.640625 L 198.6875 103.511719 L 197.625 99.191406 L 197.746094 92.785156 L 200.101563 87.726563 L 199.878906 70.503906 L 200.171875 63.800781 L 206.917969 51.765625 L 215.226563 44.699219 L 220.160156 39.765625 L 233.035156 19.074219 L 238.511719 12.796875 L 246.121094 3.589844 L 247.851563 0.511719 L 249.265625 -2 "/>
<path style="fill:none;stroke-width:1;stroke-linecap:round;stroke-linejoin:round;stroke:rgb(100%,100%,100%);stroke-opacity:1;stroke-dasharray:2,3;stroke-miterlimit:10;" d="M 257 70.195313 L 255.695313 71.808594 L 250.765625 74.003906 L 247.628906 75.730469 L 244.441406 76.851563 L 241.773438 79.878906 L 237.464844 85.839844 L 234.765625 88.714844 L 232.628906 90.832031 L 228.78125 91.628906 L 223.070313 91.25 L 218.628906 90.144531 L 214.378906 88.460938 L 211.648438 83.835938 L 209.21875 79.066406 L 205.613281 73.402344 L 199.878906 70.503906 "/>
<path style="fill:none;stroke-width:1;stroke-linecap:round;stroke-linejoin:round;stroke:rgb(100%,100%,100%);stroke-opacity:1;stroke-dasharray:2,3;stroke-miterlimit:10;" d="M 257 18.484375 L 255.53125 20.269531 L 253.171875 25.335938 L 251.515625 29.480469 L 250.332031 35.128906 L 249.144531 45.296875 L 248.410156 57.4375 L 247.679688 63.863281 L 247.667969 71 L 250.765625 74.003906 L 256.210938 76.792969 L 257 77.816406 "/>
<path style="fill:none;stroke-width:1;stroke-linecap:round;stroke-linejoin:round;stroke:rgb(100%,100%,100%);stroke-opacity:1;stroke-dasharray:2,3;stroke-miterlimit:10;" d="M 156.21875 -2 L 150.992188 10.226563 L 147.585938 18.863281 L 142.984375 31.929688 L 142.484375 33.90625 L 142.214844 35.183594 L 142.328125 37.113281 L 142.617188 38.464844 L 143.15625 39.835938 L 144.125 41.808594 L 145.054688 43.429688 L 146.164063 44.988281 L 147.488281 46.328125 L 148.503906 47.15625 L 149.890625 48.085938 L 152.285156 49.402344 L 155.121094 51.164063 L 156.320313 53.164063 L 156.917969 55.164063 L 157.519531 57.363281 L 157.164063 58.746094 "/>
<path style="fill:none;stroke-width:8;stroke-linecap:round;stroke-linejoin:round;stroke:rgb(75.686275%,70.980392%,61.568627%);stroke-opacity:1;stroke-miterlimit:10;" d="M 164.5 213.132813 L 162.96875 212.8125 "/>
<path style="fill:none;stroke-width:8;stroke-linecap:round;stroke-linejoin:round;stroke:rgb(75.686275%,70.980392%,61.568627%);stroke-opacity:1;stroke-miterlimit:10;" d="M 160.625 204.480469 L 161.09375 202.757813 L 161.6875 201.226563 "/>
<path style="fill:none;stroke-width:8;stroke-linecap:round;stroke-linejoin:round;stroke:rgb(75.686275%,70.980392%,61.568627%);stroke-opacity:1;stroke-miterlimit:10;" d="M 159.882813 212.316406 L 159.308594 213.203125 L 158.933594 214.859375 L 159.273438 217.136719 L 159.683594 218.667969 L 159.804688 220.417969 L 159.804688 221.546875 L 159.429688 223.046875 L 158.960938 224.078125 L 158.308594 225.078125 L 157.6875 225.90625 L 156.8125 226.589844 L 155.148438 227.484375 L 153.125 227.40625 L 152.097656 227.070313 L 151.097656 226.5 L 149.601563 224.929688 L 148.859375 223.300781 L 150.078125 218.585938 "/>
<path style="fill:none;stroke-width:8;stroke-linecap:round;stroke-linejoin:round;stroke:rgb(75.686275%,70.980392%,61.568627%);stroke-opacity:1;stroke-miterlimit:10;" d="M 156.121094 195.363281 L 152.65625 192.789063 L 150.0625 191.632813 L 147.566406 191.039063 L 145.730469 190.746094 L 143.90625 190.664063 L 141.5625 191.097656 L 139.589844 192.101563 L 138.0625 193.417969 L 136.8125 195.289063 L 135.652344 197.539063 L 134.59375 200.414063 L 133.371094 203.507813 "/>
<path style="fill:none;stroke-width:10;stroke-linecap:round;stroke-linejoin:round;stroke:rgb(75.686275%,70.980392%,61.568627%);stroke-opacity:1;stroke-miterlimit:10;" d="M 230.800781 197.300781 L 231.789063 198 L 233.289063 199.996094 L 235.5625 203.726563 L 237.285156 206.8125 "/>
<path style="fill:none;stroke-width:10;stroke-linecap:round;stroke-linejoin:round;stroke:rgb(72.941176%,43.137255%,15.294118%);stroke-opacity:1;stroke-miterlimit:10;" d="M 164.363281 159.164063 L 156.121094 155.5625 L 150.917969 154.5625 L 146.117188 154.964844 L 143.519531 155.964844 L 140.519531 157.164063 L 137.320313 158.765625 L 132.71875 161.566406 "/>
<path style="fill:none;stroke-width:10;stroke-linecap:round;stroke-linejoin:round;stroke:rgb(72.941176%,43.137255%,15.294118%);stroke-opacity:1;stroke-miterlimit:10;" d="M 162.847656 157.378906 L 160.917969 154.164063 L 159.320313 148.960938 L 158.519531 143.363281 L 157.613281 136.832031 L 157.113281 127.082031 L 158.320313 118.566406 "/>
<path style="fill:none;stroke-width:10;stroke-linecap:round;stroke-linejoin:round;stroke:rgb(72.941176%,43.137255%,15.294118%);stroke-opacity:1;stroke-miterlimit:10;" d="M 135.011719 170.203125 L 139.613281 164.832031 L 143.320313 161.765625 L 146.71875 159.765625 L 150.71875 158.765625 L 153.917969 158.5625 L 158.113281 158.582031 L 161.097656 159.609375 L 164.023438 161.648438 L 166.535156 163.703125 L 169.285156 166.359375 L 171.628906 168.640625 L 174.703125 170.511719 "/>
<path style="fill:none;stroke-width:10;stroke-linecap:round;stroke-linejoin:round;stroke:rgb(72.941176%,43.137255%,15.294118%);stroke-opacity:1;stroke-miterlimit:10;" d="M 178.117188 39.964844 L 171.613281 61.582031 L 158.71875 97.964844 "/>
<path style="fill:none;stroke-width:8;stroke-linecap:round;stroke-linejoin:round;stroke:rgb(75.686275%,70.980392%,61.568627%);stroke-opacity:1;stroke-miterlimit:10;" d="M 124.933594 238.882813 L 127.03125 239.632813 "/>
<path style="fill:none;stroke-width:8;stroke-linecap:round;stroke-linejoin:round;stroke:rgb(75.686275%,70.980392%,61.568627%);stroke-opacity:1;stroke-miterlimit:10;" d="M 158.71875 97.964844 L 157.113281 96.21875 "/>
<path style="fill:none;stroke-width:8;stroke-linecap:round;stroke-linejoin:round;stroke:rgb(75.686275%,70.980392%,61.568627%);stroke-opacity:1;stroke-miterlimit:10;" d="M 150.242188 88.777344 L 142.917969 83.363281 "/>
<path style="fill:none;stroke-width:8;stroke-linecap:round;stroke-linejoin:round;stroke:rgb(75.686275%,70.980392%,61.568627%);stroke-opacity:1;stroke-miterlimit:10;" d="M 143.183594 249.820313 L 146.03125 250.882813 L 148.027344 250.820313 L 149.339844 250.320313 L 151.4375 248.539063 "/>
<path style="fill:none;stroke-width:8;stroke-linecap:round;stroke-linejoin:round;stroke:rgb(75.686275%,70.980392%,61.568627%);stroke-opacity:1;stroke-miterlimit:10;" d="M 157.113281 96.21875 L 150.242188 88.777344 "/>
<path style="fill:none;stroke-width:8;stroke-linecap:round;stroke-linejoin:round;stroke:rgb(75.686275%,70.980392%,61.568627%);stroke-opacity:1;stroke-miterlimit:10;" d="M 143.65625 260.445313 L 151.4375 248.539063 "/>
<path style="fill:none;stroke-width:8;stroke-linecap:round;stroke-linejoin:round;stroke:rgb(75.686275%,70.980392%,61.568627%);stroke-opacity:1;stroke-miterlimit:10;" d="M 150.242188 88.777344 L 148.132813 96.507813 L 155.867188 99.109375 L 158.71875 97.964844 "/>
<path style="fill:none;stroke-width:8;stroke-linecap:round;stroke-linejoin:round;stroke:rgb(75.686275%,70.980392%,61.568627%);stroke-opacity:1;stroke-miterlimit:10;" d="M 129.066406 264 L 138.34375 253.039063 "/>
<path style="fill:none;stroke-width:8;stroke-linecap:round;stroke-linejoin:round;stroke:rgb(75.686275%,70.980392%,61.568627%);stroke-opacity:1;stroke-miterlimit:10;" d="M 151.4375 248.539063 L 159.589844 233.695313 L 161.652344 229.820313 L 162.5 225.945313 "/>
<path style="fill:none;stroke-width:8;stroke-linecap:round;stroke-linejoin:round;stroke:rgb(75.686275%,70.980392%,61.568627%);stroke-opacity:1;stroke-miterlimit:10;" d="M 144.90625 245.851563 L 156.933594 232.195313 L 162.5 225.945313 "/>
<path style="fill:none;stroke-width:8;stroke-linecap:round;stroke-linejoin:round;stroke:rgb(75.686275%,70.980392%,61.568627%);stroke-opacity:1;stroke-miterlimit:10;" d="M 156.121094 195.363281 L 153.058594 194.507813 L 151.03125 194.039063 L 148.375 193.695313 L 146.214844 193.789063 L 143.65625 194.351563 L 141.15625 195.382813 L 138.59375 197.289063 L 135.75 200.351563 L 133.371094 203.507813 "/>
<path style="fill:none;stroke-width:8;stroke-linecap:round;stroke-linejoin:round;stroke:rgb(75.686275%,70.980392%,61.568627%);stroke-opacity:1;stroke-miterlimit:10;" d="M 127.03125 239.632813 L 128.15625 241.164063 L 130.121094 242.964844 L 132.214844 244.039063 L 139.71875 247.363281 L 141.316406 248.363281 L 143.183594 249.820313 L 144.03125 251.976563 L 144.4375 253.914063 L 144.5625 255.570313 L 144.375 257.382813 L 143.65625 260.445313 "/>
<path style="fill:none;stroke-width:8;stroke-linecap:round;stroke-linejoin:round;stroke:rgb(75.686275%,70.980392%,61.568627%);stroke-opacity:1;stroke-miterlimit:10;" d="M 162.5 225.945313 L 163.6875 222.695313 L 164.320313 220.566406 L 164.4375 216.632813 L 164.5 213.132813 L 164.40625 210.289063 L 163.75 206.945313 L 162.8125 203.976563 L 161.6875 201.226563 L 160.320313 199.164063 L 158.320313 196.964844 L 156.121094 195.363281 "/>
<path style="fill:none;stroke-width:8;stroke-linecap:round;stroke-linejoin:round;stroke:rgb(75.686275%,70.980392%,61.568627%);stroke-opacity:1;stroke-miterlimit:10;" d="M 174.703125 170.511719 L 200.871094 145.296875 "/>
<path style="fill:none;stroke-width:8;stroke-linecap:round;stroke-linejoin:round;stroke:rgb(75.686275%,70.980392%,61.568627%);stroke-opacity:1;stroke-miterlimit:10;" d="M 162.847656 157.378906 L 163.835938 155.515625 L 168.917969 146.363281 L 174.121094 139.566406 L 185.519531 128.363281 "/>
<path style="fill:none;stroke-width:8;stroke-linecap:round;stroke-linejoin:round;stroke:rgb(75.686275%,70.980392%,61.568627%);stroke-opacity:1;stroke-miterlimit:10;" d="M 133.371094 203.507813 L 131.65625 207.820313 L 129.4375 215.164063 L 127.875 220.820313 L 126.5625 225.726563 L 125.519531 230.761719 L 124.820313 234.574219 L 124.777344 237.945313 L 125.125 240.101563 L 126.925781 245.210938 L 127.988281 249.273438 L 128.488281 251.773438 L 128.832031 254.585938 L 128.75 257.507813 L 128.277344 260.414063 L 127.25 263.039063 L 126.726563 264 "/>
<path style="fill:none;stroke-width:8;stroke-linecap:round;stroke-linejoin:round;stroke:rgb(75.686275%,70.980392%,61.568627%);stroke-opacity:1;stroke-miterlimit:10;" d="M 230.578125 264 L 227.445313 257.523438 L 211.21875 225.191406 "/>
<path style="fill:none;stroke-width:8;stroke-linecap:round;stroke-linejoin:round;stroke:rgb(75.686275%,70.980392%,61.568627%);stroke-opacity:1;stroke-miterlimit:10;" d="M 254.859375 264 L 229.683594 212.175781 "/>
<path style="fill:none;stroke-width:8;stroke-linecap:round;stroke-linejoin:round;stroke:rgb(75.686275%,70.980392%,61.568627%);stroke-opacity:1;stroke-miterlimit:10;" d="M 264 115.601563 L 260.21875 119.164063 L 255.890625 123.726563 L 235.8125 142.277344 L 215.421875 161.113281 L 189.066406 185.613281 "/>
<path style="fill:none;stroke-width:8;stroke-linecap:round;stroke-linejoin:round;stroke:rgb(75.686275%,70.980392%,61.568627%);stroke-opacity:1;stroke-miterlimit:10;" d="M 249.222656 198.46875 L 247.875 195.289063 L 239.070313 187.316406 L 230.914063 177.84375 "/>
<path style="fill:none;stroke-width:8;stroke-linecap:round;stroke-linejoin:round;stroke:rgb(75.686275%,70.980392%,61.568627%);stroke-opacity:1;stroke-miterlimit:10;" d="M 230.914063 177.84375 L 259.320313 151.222656 L 264 146.636719 "/>
<path style="fill:none;stroke-width:9;stroke-linecap:round;stroke-linejoin:round;stroke:rgb(75.686275%,70.980392%,61.568627%);stroke-opacity:1;stroke-miterlimit:10;" d="M 230.914063 177.84375 L 226.496094 185.894531 L 223.285156 191.785156 L 222.453125 195.125 "/>
<path style="fill:none;stroke-width:9;stroke-linecap:round;stroke-linejoin:round;stroke:rgb(75.686275%,70.980392%,61.568627%);stroke-opacity:1;stroke-miterlimit:10;" d="M 215.421875 161.113281 L 230.914063 177.84375 "/>
<path style="fill:none;stroke-width:9;stroke-linecap:round;stroke-linejoin:round;stroke:rgb(75.686275%,70.980392%,61.568627%);stroke-opacity:1;stroke-miterlimit:10;" d="M 158.71875 97.964844 L 185.519531 128.363281 "/>
<path style="fill:none;stroke-width:9;stroke-linecap:round;stroke-linejoin:round;stroke:rgb(75.686275%,70.980392%,61.568627%);stroke-opacity:1;stroke-miterlimit:10;" d="M 185.519531 128.363281 L 200.871094 145.296875 L 215.421875 161.113281 "/>
<path style="fill:none;stroke-width:10;stroke-linecap:round;stroke-linejoin:round;stroke:rgb(75.686275%,70.980392%,61.568627%);stroke-opacity:1;stroke-miterlimit:10;" d="M 164.363281 159.164063 L 162.847656 157.378906 "/>
<path style="fill:none;stroke-width:10;stroke-linecap:round;stroke-linejoin:round;stroke:rgb(75.686275%,70.980392%,61.568627%);stroke-opacity:1;stroke-miterlimit:10;" d="M 168.601563 163.058594 L 167.226563 161.675781 L 164.363281 159.164063 "/>
<path style="fill:none;stroke-width:10;stroke-linecap:round;stroke-linejoin:round;stroke:rgb(75.686275%,70.980392%,61.568627%);stroke-opacity:1;stroke-miterlimit:10;" d="M 174.703125 170.511719 L 173.289063 167.777344 L 168.601563 163.058594 "/>
<path style="fill:none;stroke-width:10;stroke-linecap:round;stroke-linejoin:round;stroke:rgb(75.686275%,70.980392%,61.568627%);stroke-opacity:1;stroke-miterlimit:10;" d="M 222.453125 195.125 L 226.410156 196.59375 L 230.800781 197.300781 L 243.078125 199.128906 L 249.222656 198.46875 "/>
<path style="fill:none;stroke-width:10;stroke-linecap:round;stroke-linejoin:round;stroke:rgb(75.686275%,70.980392%,61.568627%);stroke-opacity:1;stroke-miterlimit:10;" d="M 249.222656 198.46875 L 245.714844 196.457031 L 226.609375 194 L 222.453125 195.125 "/>
<path style="fill:none;stroke-width:10;stroke-linecap:round;stroke-linejoin:round;stroke:rgb(75.686275%,70.980392%,61.568627%);stroke-opacity:1;stroke-miterlimit:10;" d="M 222.453125 195.125 L 209.851563 193.78125 L 205.023438 192.816406 L 200.628906 191.691406 L 194.175781 188.902344 L 191.488281 187.289063 L 189.066406 185.613281 L 185.386719 182.183594 L 174.703125 170.511719 "/>
<path style="fill:none;stroke-width:10;stroke-linecap:round;stroke-linejoin:round;stroke:rgb(75.686275%,70.980392%,61.568627%);stroke-opacity:1;stroke-miterlimit:10;" d="M 249.222656 198.46875 L 264.398438 229.453125 L 266 232.753906 "/>
<path style="fill:none;stroke-width:10;stroke-linecap:round;stroke-linejoin:round;stroke:rgb(75.686275%,70.980392%,61.568627%);stroke-opacity:1;stroke-miterlimit:10;" d="M 249.222656 198.46875 L 266 190.632813 "/>
<path style="fill:none;stroke-width:10;stroke-linecap:round;stroke-linejoin:round;stroke:rgb(75.686275%,70.980392%,61.568627%);stroke-opacity:1;stroke-miterlimit:10;" d="M 184.648438 266 L 185.1875 263.539063 L 186.140625 260.65625 L 188.207031 254.757813 L 188.75 253.515625 L 191.40625 248.589844 L 192.988281 245.960938 L 194.722656 243.308594 L 198.058594 239.222656 L 201.613281 235.136719 L 205.167969 231.117188 L 206.734375 229.445313 L 209.609375 226.5625 L 211.21875 225.191406 L 229.683594 212.175781 L 237.285156 206.8125 L 244.21875 201.808594 L 249.222656 198.46875 "/>
<path style="fill:none;stroke-width:11;stroke-linecap:round;stroke-linejoin:round;stroke:rgb(72.941176%,43.137255%,15.294118%);stroke-opacity:1;stroke-miterlimit:10;" d="M 135.011719 170.203125 L 138.113281 163.082031 "/>
<path style="fill:none;stroke-width:11;stroke-linecap:round;stroke-linejoin:round;stroke:rgb(72.941176%,43.137255%,15.294118%);stroke-opacity:1;stroke-miterlimit:10;" d="M 142.121094 153.363281 L 158.320313 118.566406 L 159.363281 115.082031 "/>
<path style="fill:none;stroke-width:11;stroke-linecap:round;stroke-linejoin:round;stroke:rgb(72.941176%,43.137255%,15.294118%);stroke-opacity:1;stroke-miterlimit:10;" d="M 169.363281 93.082031 L 179.917969 70.363281 L 219.5625 -12 "/>
<path style="fill:none;stroke-width:11;stroke-linecap:round;stroke-linejoin:round;stroke:rgb(72.941176%,43.137255%,15.294118%);stroke-opacity:1;stroke-miterlimit:10;" d="M 199.164063 -12 L 192.488281 2.628906 L 183.519531 26.164063 L 178.117188 39.964844 L 172.71875 53.964844 L 167.953125 66.179688 "/>
<path style="fill:none;stroke-width:11;stroke-linecap:round;stroke-linejoin:round;stroke:rgb(72.941176%,43.137255%,15.294118%);stroke-opacity:1;stroke-miterlimit:10;" d="M 99.632813 267 L 100.320313 265.566406 L 102.117188 260.5625 L 104.121094 253.765625 L 107.71875 240.363281 L 108.71875 236.363281 L 113.117188 220.964844 L 115.917969 212.761719 L 118.71875 206.164063 L 129.386719 183.53125 L 135.011719 170.203125 "/>
<path style="fill:none;stroke-width:11;stroke-linecap:round;stroke-linejoin:round;stroke:rgb(72.941176%,43.137255%,15.294118%);stroke-opacity:1;stroke-miterlimit:10;" d="M 98.363281 229.828125 L 92.785156 243.332031 L 82.785156 264.128906 L 81.273438 267 "/>
<path style="fill:none;stroke-width:1;stroke-linecap:round;stroke-linejoin:round;stroke:rgb(100%,100%,100%);stroke-opacity:1;stroke-dasharray:2,3;stroke-miterlimit:10;" d="M 199.84375 23.277344 L 204.175781 27.332031 "/>
<path style="fill:none;stroke-width:6;stroke-linecap:round;stroke-linejoin:round;stroke:rgb(100%,100%,100%);stroke-opacity:1;stroke-miterlimit:10;" d="M 164.5 213.132813 L 162.96875 212.8125 "/>
<path style="fill:none;stroke-width:6;stroke-linecap:round;stroke-linejoin:round;stroke:rgb(100%,100%,100%);stroke-opacity:1;stroke-miterlimit:10;" d="M 160.625 204.480469 L 161.09375 202.757813 L 161.6875 201.226563 "/>
<path style="fill:none;stroke-width:6;stroke-linecap:round;stroke-linejoin:round;stroke:rgb(100%,100%,100%);stroke-opacity:1;stroke-miterlimit:10;" d="M 159.882813 212.316406 L 159.308594 213.203125 L 158.933594 214.859375 L 159.273438 217.136719 L 159.683594 218.667969 L 159.804688 220.417969 L 159.804688 221.546875 L 159.429688 223.046875 L 158.960938 224.078125 L 158.308594 225.078125 L 157.6875 225.90625 L 156.8125 226.589844 L 155.148438 227.484375 L 153.125 227.40625 L 152.097656 227.070313 L 151.097656 226.5 L 149.601563 224.929688 L 148.859375 223.300781 L 150.078125 218.585938 "/>
<path style="fill:none;stroke-width:6;stroke-linecap:round;stroke-linejoin:round;stroke:rgb(100%,100%,100%);stroke-opacity:1;stroke-miterlimit:10;" d="M 156.121094 195.363281 L 152.65625 192.789063 L 150.0625 191.632813 L 147.566406 191.039063 L 145.730469 190.746094 L 143.90625 190.664063 L 141.5625 191.097656 L 139.589844 192.101563 L 138.0625 193.417969 L 136.8125 195.289063 L 135.652344 197.539063 L 134.59375 200.414063 L 133.371094 203.507813 "/>
<path style="fill:none;stroke-width:8;stroke-linecap:round;stroke-linejoin:round;stroke:rgb(100%,99.215686%,54.509804%);stroke-opacity:1;stroke-miterlimit:10;" d="M 230.800781 197.300781 L 231.789063 198 L 233.289063 199.996094 L 235.5625 203.726563 L 237.285156 206.8125 "/>
<path style="fill:none;stroke-width:8;stroke-linecap:round;stroke-linejoin:round;stroke:rgb(99.215686%,57.254902%,22.745098%);stroke-opacity:1;stroke-miterlimit:10;" d="M 164.363281 159.164063 L 156.121094 155.5625 L 150.917969 154.5625 L 146.117188 154.964844 L 143.519531 155.964844 L 140.519531 157.164063 L 137.320313 158.765625 L 132.71875 161.566406 "/>
<path style="fill:none;stroke-width:8;stroke-linecap:round;stroke-linejoin:round;stroke:rgb(99.215686%,57.254902%,22.745098%);stroke-opacity:1;stroke-miterlimit:10;" d="M 162.847656 157.378906 L 160.917969 154.164063 L 159.320313 148.960938 L 158.519531 143.363281 L 157.613281 136.832031 L 157.113281 127.082031 L 158.320313 118.566406 "/>
<path style="fill:none;stroke-width:8;stroke-linecap:round;stroke-linejoin:round;stroke:rgb(99.215686%,57.254902%,22.745098%);stroke-opacity:1;stroke-miterlimit:10;" d="M 135.011719 170.203125 L 139.613281 164.832031 L 143.320313 161.765625 L 146.71875 159.765625 L 150.71875 158.765625 L 153.917969 158.5625 L 158.113281 158.582031 L 161.097656 159.609375 L 164.023438 161.648438 L 166.535156 163.703125 L 169.285156 166.359375 L 171.628906 168.640625 L 174.703125 170.511719 "/>
<path style="fill:none;stroke-width:8;stroke-linecap:round;stroke-linejoin:round;stroke:rgb(99.215686%,57.254902%,22.745098%);stroke-opacity:1;stroke-miterlimit:10;" d="M 178.117188 39.964844 L 171.613281 61.582031 L 158.71875 97.964844 "/>
<path style="fill:none;stroke-width:6;stroke-linecap:round;stroke-linejoin:round;stroke:rgb(100%,100%,100%);stroke-opacity:1;stroke-miterlimit:10;" d="M 124.933594 238.882813 L 127.03125 239.632813 "/>
<path style="fill:none;stroke-width:6;stroke-linecap:round;stroke-linejoin:round;stroke:rgb(100%,100%,100%);stroke-opacity:1;stroke-miterlimit:10;" d="M 158.71875 97.964844 L 157.113281 96.21875 "/>
<path style="fill:none;stroke-width:6;stroke-linecap:round;stroke-linejoin:round;stroke:rgb(100%,100%,100%);stroke-opacity:1;stroke-miterlimit:10;" d="M 150.242188 88.777344 L 142.917969 83.363281 "/>
<path style="fill:none;stroke-width:6;stroke-linecap:round;stroke-linejoin:round;stroke:rgb(100%,100%,100%);stroke-opacity:1;stroke-miterlimit:10;" d="M 143.183594 249.820313 L 146.03125 250.882813 L 148.027344 250.820313 L 149.339844 250.320313 L 151.4375 248.539063 "/>
<path style="fill:none;stroke-width:6;stroke-linecap:round;stroke-linejoin:round;stroke:rgb(100%,100%,100%);stroke-opacity:1;stroke-miterlimit:10;" d="M 157.113281 96.21875 L 150.242188 88.777344 "/>
<path style="fill:none;stroke-width:6;stroke-linecap:round;stroke-linejoin:round;stroke:rgb(100%,100%,100%);stroke-opacity:1;stroke-miterlimit:10;" d="M 143.65625 260.445313 L 151.4375 248.539063 "/>
<path style="fill:none;stroke-width:6;stroke-linecap:round;stroke-linejoin:round;stroke:rgb(100%,100%,100%);stroke-opacity:1;stroke-miterlimit:10;" d="M 150.242188 88.777344 L 148.132813 96.507813 L 155.867188 99.109375 L 158.71875 97.964844 "/>
<path style="fill:none;stroke-width:6;stroke-linecap:round;stroke-linejoin:round;stroke:rgb(100%,100%,100%);stroke-opacity:1;stroke-miterlimit:10;" d="M 129.066406 264 L 138.34375 253.039063 "/>
<path style="fill:none;stroke-width:6;stroke-linecap:round;stroke-linejoin:round;stroke:rgb(100%,100%,100%);stroke-opacity:1;stroke-miterlimit:10;" d="M 151.4375 248.539063 L 159.589844 233.695313 L 161.652344 229.820313 L 162.5 225.945313 "/>
<path style="fill:none;stroke-width:6;stroke-linecap:round;stroke-linejoin:round;stroke:rgb(100%,100%,100%);stroke-opacity:1;stroke-miterlimit:10;" d="M 144.90625 245.851563 L 156.933594 232.195313 L 162.5 225.945313 "/>
<path style="fill:none;stroke-width:6;stroke-linecap:round;stroke-linejoin:round;stroke:rgb(100%,100%,100%);stroke-opacity:1;stroke-miterlimit:10;" d="M 156.121094 195.363281 L 153.058594 194.507813 L 151.03125 194.039063 L 148.375 193.695313 L 146.214844 193.789063 L 143.65625 194.351563 L 141.15625 195.382813 L 138.59375 197.289063 L 135.75 200.351563 L 133.371094 203.507813 "/>
<path style="fill:none;stroke-width:6;stroke-linecap:round;stroke-linejoin:round;stroke:rgb(100%,100%,100%);stroke-opacity:1;stroke-miterlimit:10;" d="M 127.03125 239.632813 L 128.15625 241.164063 L 130.121094 242.964844 L 132.214844 244.039063 L 139.71875 247.363281 L 141.316406 248.363281 L 143.183594 249.820313 L 144.03125 251.976563 L 144.4375 253.914063 L 144.5625 255.570313 L 144.375 257.382813 L 143.65625 260.445313 "/>
<path style="fill:none;stroke-width:6;stroke-linecap:round;stroke-linejoin:round;stroke:rgb(100%,100%,100%);stroke-opacity:1;stroke-miterlimit:10;" d="M 162.5 225.945313 L 163.6875 222.695313 L 164.320313 220.566406 L 164.4375 216.632813 L 164.5 213.132813 L 164.40625 210.289063 L 163.75 206.945313 L 162.8125 203.976563 L 161.6875 201.226563 L 160.320313 199.164063 L 158.320313 196.964844 L 156.121094 195.363281 "/>
<path style="fill:none;stroke-width:6;stroke-linecap:round;stroke-linejoin:round;stroke:rgb(100%,100%,100%);stroke-opacity:1;stroke-miterlimit:10;" d="M 174.703125 170.511719 L 200.871094 145.296875 "/>
<path style="fill:none;stroke-width:6;stroke-linecap:round;stroke-linejoin:round;stroke:rgb(100%,100%,100%);stroke-opacity:1;stroke-miterlimit:10;" d="M 162.847656 157.378906 L 163.835938 155.515625 L 168.917969 146.363281 L 174.121094 139.566406 L 185.519531 128.363281 "/>
<path style="fill:none;stroke-width:6;stroke-linecap:round;stroke-linejoin:round;stroke:rgb(100%,100%,100%);stroke-opacity:1;stroke-miterlimit:10;" d="M 133.371094 203.507813 L 131.65625 207.820313 L 129.4375 215.164063 L 127.875 220.820313 L 126.5625 225.726563 L 125.519531 230.761719 L 124.820313 234.574219 L 124.777344 237.945313 L 125.125 240.101563 L 126.925781 245.210938 L 127.988281 249.273438 L 128.488281 251.773438 L 128.832031 254.585938 L 128.75 257.507813 L 128.277344 260.414063 L 127.25 263.039063 L 126.726563 264 "/>
<path style="fill:none;stroke-width:6;stroke-linecap:round;stroke-linejoin:round;stroke:rgb(100%,100%,100%);stroke-opacity:1;stroke-miterlimit:10;" d="M 230.578125 264 L 227.445313 257.523438 L 211.21875 225.191406 "/>
<path style="fill:none;stroke-width:6;stroke-linecap:round;stroke-linejoin:round;stroke:rgb(100%,100%,100%);stroke-opacity:1;stroke-miterlimit:10;" d="M 254.859375 264 L 229.683594 212.175781 "/>
<path style="fill:none;stroke-width:6;stroke-linecap:round;stroke-linejoin:round;stroke:rgb(100%,100%,100%);stroke-opacity:1;stroke-miterlimit:10;" d="M 264 115.601563 L 260.21875 119.164063 L 255.890625 123.726563 L 235.8125 142.277344 L 215.421875 161.113281 L 189.066406 185.613281 "/>
<path style="fill:none;stroke-width:6;stroke-linecap:round;stroke-linejoin:round;stroke:rgb(100%,99.215686%,54.509804%);stroke-opacity:1;stroke-miterlimit:10;" d="M 249.222656 198.46875 L 247.875 195.289063 L 239.070313 187.316406 L 230.914063 177.84375 "/>
<path style="fill:none;stroke-width:6;stroke-linecap:round;stroke-linejoin:round;stroke:rgb(100%,99.215686%,54.509804%);stroke-opacity:1;stroke-miterlimit:10;" d="M 230.914063 177.84375 L 259.320313 151.222656 L 264 146.636719 "/>
<path style="fill:none;stroke-width:7;stroke-linecap:round;stroke-linejoin:round;stroke:rgb(100%,99.215686%,54.509804%);stroke-opacity:1;stroke-miterlimit:10;" d="M 230.914063 177.84375 L 226.496094 185.894531 L 223.285156 191.785156 L 222.453125 195.125 "/>
<path style="fill:none;stroke-width:7;stroke-linecap:round;stroke-linejoin:round;stroke:rgb(100%,99.215686%,54.509804%);stroke-opacity:1;stroke-miterlimit:10;" d="M 215.421875 161.113281 L 230.914063 177.84375 "/>
<path style="fill:none;stroke-width:7;stroke-linecap:round;stroke-linejoin:round;stroke:rgb(100%,99.215686%,54.509804%);stroke-opacity:1;stroke-miterlimit:10;" d="M 158.71875 97.964844 L 185.519531 128.363281 "/>
<path style="fill:none;stroke-width:7;stroke-linecap:round;stroke-linejoin:round;stroke:rgb(100%,99.215686%,54.509804%);stroke-opacity:1;stroke-miterlimit:10;" d="M 185.519531 128.363281 L 200.871094 145.296875 L 215.421875 161.113281 "/>
<path style="fill:none;stroke-width:8;stroke-linecap:round;stroke-linejoin:round;stroke:rgb(100%,99.215686%,54.509804%);stroke-opacity:1;stroke-miterlimit:10;" d="M 164.363281 159.164063 L 162.847656 157.378906 "/>
<path style="fill:none;stroke-width:8;stroke-linecap:round;stroke-linejoin:round;stroke:rgb(100%,99.215686%,54.509804%);stroke-opacity:1;stroke-miterlimit:10;" d="M 168.601563 163.058594 L 167.226563 161.675781 L 164.363281 159.164063 "/>
<path style="fill:none;stroke-width:8;stroke-linecap:round;stroke-linejoin:round;stroke:rgb(100%,99.215686%,54.509804%);stroke-opacity:1;stroke-miterlimit:10;" d="M 174.703125 170.511719 L 173.289063 167.777344 L 168.601563 163.058594 "/>
<path style="fill:none;stroke-width:8;stroke-linecap:round;stroke-linejoin:round;stroke:rgb(100%,99.215686%,54.509804%);stroke-opacity:1;stroke-miterlimit:10;" d="M 222.453125 195.125 L 226.410156 196.59375 L 230.800781 197.300781 L 243.078125 199.128906 L 249.222656 198.46875 "/>
<path style="fill:none;stroke-width:8;stroke-linecap:round;stroke-linejoin:round;stroke:rgb(100%,99.215686%,54.509804%);stroke-opacity:1;stroke-miterlimit:10;" d="M 249.222656 198.46875 L 245.714844 196.457031 L 226.609375 194 L 222.453125 195.125 "/>
<path style="fill:none;stroke-width:8;stroke-linecap:round;stroke-linejoin:round;stroke:rgb(100%,99.215686%,54.509804%);stroke-opacity:1;stroke-miterlimit:10;" d="M 222.453125 195.125 L 209.851563 193.78125 L 205.023438 192.816406 L 200.628906 191.691406 L 194.175781 188.902344 L 191.488281 187.289063 L 189.066406 185.613281 L 185.386719 182.183594 L 174.703125 170.511719 "/>
<path style="fill:none;stroke-width:8;stroke-linecap:round;stroke-linejoin:round;stroke:rgb(100%,99.215686%,54.509804%);stroke-opacity:1;stroke-miterlimit:10;" d="M 249.222656 198.46875 L 264.398438 229.453125 L 266 232.753906 "/>
<path style="fill:none;stroke-width:8;stroke-linecap:round;stroke-linejoin:round;stroke:rgb(100%,99.215686%,54.509804%);stroke-opacity:1;stroke-miterlimit:10;" d="M 249.222656 198.46875 L 266 190.632813 "/>
<path style="fill:none;stroke-width:8;stroke-linecap:round;stroke-linejoin:round;stroke:rgb(100%,99.215686%,54.509804%);stroke-opacity:1;stroke-miterlimit:10;" d="M 184.648438 266 L 185.1875 263.539063 L 186.140625 260.65625 L 188.207031 254.757813 L 188.75 253.515625 L 191.40625 248.589844 L 192.988281 245.960938 L 194.722656 243.308594 L 198.058594 239.222656 L 201.613281 235.136719 L 205.167969 231.117188 L 206.734375 229.445313 L 209.609375 226.5625 L 211.21875 225.191406 L 229.683594 212.175781 L 237.285156 206.8125 L 244.21875 201.808594 L 249.222656 198.46875 "/>
<path style="fill:none;stroke-width:9;stroke-linecap:round;stroke-linejoin:round;stroke:rgb(99.215686%,57.254902%,22.745098%);stroke-opacity:1;stroke-miterlimit:10;" d="M 135.011719 170.203125 L 138.113281 163.082031 "/>
<path style="fill:none;stroke-width:9;stroke-linecap:round;stroke-linejoin:round;stroke:rgb(99.215686%,57.254902%,22.745098%);stroke-opacity:1;stroke-miterlimit:10;" d="M 142.121094 153.363281 L 158.320313 118.566406 L 159.363281 115.082031 "/>
<path style="fill:none;stroke-width:9;stroke-linecap:round;stroke-linejoin:round;stroke:rgb(99.215686%,57.254902%,22.745098%);stroke-opacity:1;stroke-miterlimit:10;" d="M 169.363281 93.082031 L 179.917969 70.363281 L 219.5625 -12 "/>
<path style="fill:none;stroke-width:9;stroke-linecap:round;stroke-linejoin:round;stroke:rgb(99.215686%,57.254902%,22.745098%);stroke-opacity:1;stroke-miterlimit:10;" d="M 199.164063 -12 L 192.488281 2.628906 L 183.519531 26.164063 L 178.117188 39.964844 L 172.71875 53.964844 L 167.953125 66.179688 "/>
<path style="fill:none;stroke-width:9;stroke-linecap:round;stroke-linejoin:round;stroke:rgb(99.215686%,57.254902%,22.745098%);stroke-opacity:1;stroke-miterlimit:10;" d="M 99.632813 267 L 100.320313 265.566406 L 102.117188 260.5625 L 104.121094 253.765625 L 107.71875 240.363281 L 108.71875 236.363281 L 113.117188 220.964844 L 115.917969 212.761719 L 118.71875 206.164063 L 129.386719 183.53125 L 135.011719 170.203125 "/>
<path style="fill:none;stroke-width:9;stroke-linecap:round;stroke-linejoin:round;stroke:rgb(99.215686%,57.254902%,22.745098%);stroke-opacity:1;stroke-miterlimit:10;" d="M 98.363281 229.828125 L 92.785156 243.332031 L 82.785156 264.128906 L 81.273438 267 "/>
<path style="fill:none;stroke-width:10;stroke-linecap:butt;stroke-linejoin:round;stroke:rgb(53.333333%,53.333333%,53.333333%);stroke-opacity:1;stroke-miterlimit:10;" d="M 132.71875 161.566406 L 128.917969 164.5625 L 125.363281 168.082031 L 120.589844 174.230469 "/>
<path style="fill:none;stroke-width:8;stroke-linecap:butt;stroke-linejoin:round;stroke:rgb(53.333333%,53.333333%,53.333333%);stroke-opacity:1;stroke-miterlimit:10;" d="M 138.34375 253.039063 L 144.90625 245.851563 "/>
<path style="fill:none;stroke-width:11;stroke-linecap:butt;stroke-linejoin:round;stroke:rgb(53.333333%,53.333333%,53.333333%);stroke-opacity:1;stroke-miterlimit:10;" d="M 138.113281 163.082031 L 142.121094 153.363281 "/>
<path style="fill:none;stroke-width:11;stroke-linecap:butt;stroke-linejoin:round;stroke:rgb(53.333333%,53.333333%,53.333333%);stroke-opacity:1;stroke-miterlimit:10;" d="M 159.363281 115.082031 L 169.363281 93.082031 "/>
<path style="fill:none;stroke-width:11;stroke-linecap:butt;stroke-linejoin:round;stroke:rgb(53.333333%,53.333333%,53.333333%);stroke-opacity:1;stroke-miterlimit:10;" d="M 120.589844 174.230469 L 116.988281 182.929688 L 98.363281 229.828125 "/>
<path style="fill:none;stroke-width:11;stroke-linecap:butt;stroke-linejoin:round;stroke:rgb(53.333333%,53.333333%,53.333333%);stroke-opacity:1;stroke-miterlimit:10;" d="M 167.953125 66.179688 L 164.917969 73.964844 L 145.917969 121.765625 L 129.585938 156.128906 L 123.519531 168.367188 L 120.589844 174.230469 "/>
<path style="fill:none;stroke-width:8;stroke-linecap:round;stroke-linejoin:round;stroke:rgb(99.215686%,57.254902%,22.745098%);stroke-opacity:1;stroke-miterlimit:10;" d="M 132.71875 161.566406 L 128.917969 164.5625 L 125.363281 168.082031 L 120.589844 174.230469 "/>
<path style="fill:none;stroke-width:6;stroke-linecap:round;stroke-linejoin:round;stroke:rgb(100%,100%,100%);stroke-opacity:1;stroke-miterlimit:10;" d="M 138.34375 253.039063 L 144.90625 245.851563 "/>
<path style="fill:none;stroke-width:9;stroke-linecap:round;stroke-linejoin:round;stroke:rgb(99.215686%,57.254902%,22.745098%);stroke-opacity:1;stroke-miterlimit:10;" d="M 138.113281 163.082031 L 142.121094 153.363281 "/>
<path style="fill:none;stroke-width:9;stroke-linecap:round;stroke-linejoin:round;stroke:rgb(99.215686%,57.254902%,22.745098%);stroke-opacity:1;stroke-miterlimit:10;" d="M 159.363281 115.082031 L 169.363281 93.082031 "/>
<path style="fill:none;stroke-width:9;stroke-linecap:round;stroke-linejoin:round;stroke:rgb(99.215686%,57.254902%,22.745098%);stroke-opacity:1;stroke-miterlimit:10;" d="M 120.589844 174.230469 L 116.988281 182.929688 L 98.363281 229.828125 "/>
<path style="fill:none;stroke-width:9;stroke-linecap:round;stroke-linejoin:round;stroke:rgb(99.215686%,57.254902%,22.745098%);stroke-opacity:1;stroke-miterlimit:10;" d="M 167.953125 66.179688 L 164.917969 73.964844 L 145.917969 121.765625 L 129.585938 156.128906 L 123.519531 168.367188 L 120.589844 174.230469 "/>
</g>
</svg>

