<?xml version="1.0" encoding="UTF-8"?>
<svg xmlns="http://www.w3.org/2000/svg" xmlns:xlink="http://www.w3.org/1999/xlink" width="256pt" height="256pt" viewBox="0 0 256 256" version="1.1">
<g id="surface2">
<rect x="0" y="0" width="256" height="256" style="fill:rgb(94.901961%,93.72549%,91.372549%);fill-opacity:1;stroke:none;"/>
<path style="fill:none;stroke-width:8;stroke-linecap:round;stroke-linejoin:round;stroke:rgb(75.686275%,70.980392%,61.568627%);stroke-opacity:1;stroke-miterlimit:10;" d="M 140.386719 -9 L 141.839844 0.109375 L 143.214844 11.09375 L 139.019531 38.671875 L 146.523438 86.191406 "/>
<path style="fill:none;stroke-width:8;stroke-linecap:round;stroke-linejoin:round;stroke:rgb(75.686275%,70.980392%,61.568627%);stroke-opacity:1;stroke-miterlimit:10;" d="M -9 196.027344 L -7.3125 195.699219 L -4.449219 195.351563 L -2.09375 195.285156 L 1.703125 194.875 L 20.367188 194.464844 L 23.070313 194.019531 L 26.21875 193.070313 L 29.199219 191.425781 L 30.410156 190.441406 L 33.464844 187.308594 L 34.699219 185.472656 L 36.167969 182.433594 L 37.566406 178.160156 L 38.964844 173.253906 L 56.71875 99.078125 L 58.535156 90.371094 L 59.492188 84.703125 L 60.003906 80.144531 L 60.890625 77.105469 L 62.453125 72.832031 L 66.039063 66.4375 L 68.207031 62.859375 L 69 60.863281 L 70.257813 55.671875 L 70.5625 52.507813 L 70.421875 44.054688 L 69.953125 39.113281 L 67.25 17.933594 L 63.429688 -3.914063 L 62.433594 -9 "/>
<path style="fill:none;stroke-width:9;stroke-linecap:round;stroke-linejoin:round;stroke:rgb(75.686275%,70.980392%,61.568627%);stroke-opacity:1;stroke-miterlimit:10;" d="M 244.710938 -10 L 244.878906 -8.976563 L 246.300781 10.113281 L 250.332031 55.386719 L 250.542969 62.667969 L 250.566406 68.746094 L 250.101563 78.183594 L 249.308594 83.785156 L 248.304688 88.503906 L 245.929688 97.144531 L 221.277344 174.773438 L 196.832031 250.71875 L 192.519531 265 "/>
<path style="fill:none;stroke-width:6;stroke-linecap:round;stroke-linejoin:round;stroke:rgb(100%,100%,100%);stroke-opacity:1;stroke-miterlimit:10;" d="M 140.386719 -9 L 141.839844 0.109375 L 143.214844 11.09375 L 139.019531 38.671875 L 146.523438 86.191406 "/>
<path style="fill:none;stroke-width:6;stroke-linecap:round;stroke-linejoin:round;stroke:rgb(100%,100%,100%);stroke-opacity:1;stroke-miterlimit:10;" d="M -9 196.027344 L -7.3125 195.699219 L -4.449219 195.351563 L -2.09375 195.285156 L 1.703125 194.875 L 20.367188 194.464844 L 23.070313 194.019531 L 26.21875 193.070313 L 29.199219 191.425781 L 30.410156 190.441406 L 33.464844 187.308594 L 34.699219 185.472656 L 36.167969 182.433594 L 37.566406 178.160156 L 38.964844 173.253906 L 56.71875 99.078125 L 58.535156 90.371094 L 59.492188 84.703125 L 60.003906 80.144531 L 60.890625 77.105469 L 62.453125 72.832031 L 66.039063 66.4375 L 68.207031 62.859375 L 69 60.863281 L 70.257813 55.671875 L 70.5625 52.507813 L 70.421875 44.054688 L 69.953125 39.113281 L 67.25 17.933594 L 63.429688 -3.914063 L 62.433594 -9 "/>
<path style="fill:none;stroke-width:7;stroke-linecap:round;stroke-linejoin:round;stroke:rgb(100%,99.215686%,54.509804%);stroke-opacity:1;stroke-miterlimit:10;" d="M 244.710938 -10 L 244.878906 -8.976563 L 246.300781 10.113281 L 250.332031 55.386719 L 250.542969 62.667969 L 250.566406 68.746094 L 250.101563 78.183594 L 249.308594 83.785156 L 248.304688 88.503906 L 245.929688 97.144531 L 221.277344 174.773438 L 196.832031 250.71875 L 192.519531 265 "/>
<path style="fill:none;stroke-width:3;stroke-linecap:round;stroke-linejoin:round;stroke:rgb(100%,100%,100%);stroke-opacity:1;stroke-miterlimit:10;" d="M 39.367188 154.300781 L 39.601563 153.332031 L 47.398438 155.191406 L 47.164063 156.160156 Z M 45.359375 148.132813 L 48.890625 148.976563 L 48.6875 149.835938 L 45.1875 148.992188 C 44.636719 148.867188 44.199219 148.875 43.875 149.007813 C 43.554688 149.132813 43.34375 149.390625 43.25 149.773438 C 43.136719 150.242188 43.214844 150.648438 43.484375 150.992188 C 43.757813 151.335938 44.171875 151.578125 44.734375 151.710938 L 48.046875 152.507813 L 47.828125 153.398438 L 41.984375 151.992188 L 42.203125 151.101563 L 43.109375 151.320313 C 42.796875 151.039063 42.589844 150.738281 42.484375 150.414063 C 42.382813 150.09375 42.375 149.742188 42.46875 149.367188 C 42.617188 148.773438 42.933594 148.375 43.421875 148.164063 C 43.914063 147.945313 44.558594 147.9375 45.359375 148.132813 Z M 45.164063 142.585938 L 42.007813 141.820313 L 42.210938 140.945313 L 50.335938 142.898438 L 50.132813 143.773438 L 49.257813 143.554688 C 49.570313 143.828125 49.773438 144.125 49.867188 144.445313 C 49.96875 144.757813 49.976563 145.109375 49.882813 145.492188 C 49.734375 146.128906 49.335938 146.582031 48.679688 146.851563 C 48.015625 147.113281 47.21875 147.132813 46.289063 146.914063 C 45.375 146.695313 44.6875 146.320313 44.226563 145.789063 C 43.757813 145.25 43.597656 144.660156 43.742188 144.023438 C 43.835938 143.640625 44.003906 143.328125 44.242188 143.085938 C 44.472656 142.847656 44.78125 142.679688 45.164063 142.585938 Z M 46.507813 146.023438 C 47.21875 146.203125 47.804688 146.207031 48.273438 146.039063 C 48.734375 145.875 49.015625 145.5625 49.117188 145.101563 C 49.230469 144.632813 49.121094 144.222656 48.789063 143.867188 C 48.445313 143.515625 47.921875 143.25 47.210938 143.070313 C 46.503906 142.90625 45.921875 142.90625 45.460938 143.070313 C 44.992188 143.238281 44.703125 143.554688 44.585938 144.023438 C 44.484375 144.484375 44.601563 144.890625 44.945313 145.242188 C 45.28125 145.597656 45.800781 145.859375 46.507813 146.023438 Z M 44.921875 139.726563 L 45.125 138.851563 L 50.96875 140.257813 L 50.765625 141.132813 Z M 42.640625 139.179688 L 42.84375 138.304688 L 44.0625 138.601563 L 43.859375 139.476563 Z M 49.03125 135.363281 C 48.855469 136.0625 48.828125 136.566406 48.953125 136.878906 C 49.070313 137.191406 49.339844 137.402344 49.765625 137.503906 C 50.101563 137.589844 50.390625 137.550781 50.640625 137.394531 C 50.890625 137.238281 51.058594 136.988281 51.140625 136.644531 C 51.265625 136.15625 51.171875 135.722656 50.859375 135.347656 C 50.546875 134.972656 50.085938 134.707031 49.46875 134.550781 L 49.234375 134.503906 Z M 49.046875 133.535156 L 52.390625 134.332031 L 52.1875 135.207031 L 51.3125 134.988281 C 51.613281 135.28125 51.8125 135.59375 51.90625 135.925781 C 52.007813 136.25 52.007813 136.625 51.90625 137.050781 C 51.78125 137.59375 51.515625 137.984375 51.109375 138.222656 C 50.695313 138.464844 50.199219 138.515625 49.625 138.378906 C 48.96875 138.222656 48.523438 137.90625 48.28125 137.425781 C 48.042969 136.949219 48.015625 136.3125 48.203125 135.519531 L 48.5 134.316406 L 48.40625 134.300781 C 47.960938 134.199219 47.585938 134.25 47.28125 134.457031 C 46.96875 134.65625 46.757813 134.996094 46.640625 135.472656 C 46.570313 135.765625 46.542969 136.0625 46.5625 136.363281 C 46.574219 136.667969 46.625 136.972656 46.71875 137.285156 L 45.84375 137.082031 C 45.773438 136.71875 45.742188 136.378906 45.75 136.066406 C 45.761719 135.753906 45.796875 135.457031 45.859375 135.175781 C 46.046875 134.417969 46.402344 133.902344 46.921875 133.628906 C 47.445313 133.347656 48.152344 133.316406 49.046875 133.535156 Z M 50.335938 127.34375 L 53.867188 128.1875 L 53.664063 129.046875 L 50.164063 128.203125 C 49.613281 128.078125 49.175781 128.085938 48.851563 128.21875 C 48.53125 128.34375 48.320313 128.601563 48.226563 128.984375 C 48.113281 129.453125 48.191406 129.859375 48.460938 130.203125 C 48.734375 130.546875 49.148438 130.789063 49.710938 130.921875 L 53.023438 131.71875 L 52.804688 132.609375 L 46.960938 131.203125 L 47.179688 130.3125 L 48.085938 130.53125 C 47.773438 130.25 47.566406 129.949219 47.460938 129.625 C 47.359375 129.304688 47.351563 128.953125 47.445313 128.578125 C 47.59375 127.984375 47.910156 127.585938 48.398438 127.375 C 48.890625 127.15625 49.535156 127.148438 50.335938 127.34375 Z M 47.214844 121.507813 L 47.449219 120.539063 L 54.371094 122.179688 L 55.183594 118.773438 L 56.058594 118.992188 L 55.011719 123.367188 Z M 54.21875 112.785156 L 54.6875 112.894531 L 53.734375 116.878906 C 54.402344 116.996094 54.949219 116.933594 55.375 116.691406 C 55.792969 116.441406 56.070313 116.035156 56.203125 115.472656 C 56.273438 115.140625 56.304688 114.8125 56.296875 114.488281 C 56.285156 114.15625 56.226563 113.808594 56.125 113.441406 L 57.03125 113.644531 C 57.101563 114.011719 57.140625 114.363281 57.140625 114.707031 C 57.140625 115.042969 57.097656 115.375 57.015625 115.707031 C 56.816406 116.550781 56.390625 117.15625 55.734375 117.519531 C 55.070313 117.875 54.265625 117.941406 53.328125 117.722656 C 52.382813 117.496094 51.683594 117.078125 51.234375 116.472656 C 50.789063 115.871094 50.65625 115.175781 50.84375 114.394531 C 51.011719 113.6875 51.398438 113.191406 52 112.910156 C 52.605469 112.621094 53.34375 112.578125 54.21875 112.785156 Z M 53.71875 113.566406 C 53.1875 113.453125 52.734375 113.488281 52.359375 113.675781 C 51.984375 113.855469 51.746094 114.15625 51.640625 114.582031 C 51.527344 115.0625 51.589844 115.488281 51.828125 115.863281 C 52.058594 116.230469 52.4375 116.496094 52.96875 116.660156 Z M 53.574219 107.453125 L 50.417969 106.6875 L 50.621094 105.8125 L 58.746094 107.765625 L 58.542969 108.640625 L 57.667969 108.421875 C 57.980469 108.695313 58.183594 108.992188 58.277344 109.3125 C 58.378906 109.625 58.386719 109.976563 58.292969 110.359375 C 58.144531 110.996094 57.746094 111.449219 57.089844 111.71875 C 56.425781 111.980469 55.628906 112 54.699219 111.78125 C 53.785156 111.5625 53.097656 111.1875 52.636719 110.65625 C 52.167969 110.117188 52.007813 109.527344 52.152344 108.890625 C 52.246094 108.507813 52.414063 108.195313 52.652344 107.953125 C 52.882813 107.714844 53.191406 107.546875 53.574219 107.453125 Z M 54.917969 110.890625 C 55.628906 111.070313 56.214844 111.074219 56.683594 110.90625 C 57.144531 110.742188 57.425781 110.429688 57.527344 109.96875 C 57.640625 109.5 57.53125 109.089844 57.199219 108.734375 C 56.855469 108.382813 56.332031 108.117188 55.621094 107.9375 C 54.914063 107.773438 54.332031 107.773438 53.871094 107.9375 C 53.402344 108.105469 53.113281 108.421875 52.996094 108.890625 C 52.894531 109.351563 53.011719 109.757813 53.355469 110.109375 C 53.691406 110.464844 54.210938 110.726563 54.917969 110.890625 Z M 57.003906 101.8125 C 56.308594 101.648438 55.738281 101.652344 55.300781 101.828125 C 54.855469 101.996094 54.574219 102.3125 54.457031 102.78125 C 54.355469 103.242188 54.464844 103.648438 54.785156 104 C 55.097656 104.34375 55.605469 104.601563 56.300781 104.765625 C 57 104.933594 57.574219 104.933594 58.019531 104.765625 C 58.457031 104.601563 58.730469 104.289063 58.832031 103.828125 C 58.949219 103.359375 58.847656 102.949219 58.535156 102.59375 C 58.214844 102.242188 57.703125 101.980469 57.003906 101.8125 Z M 59.472656 101.484375 C 60.480469 101.726563 61.179688 102.105469 61.566406 102.625 C 61.949219 103.136719 62.042969 103.804688 61.847656 104.625 C 61.773438 104.929688 61.679688 105.210938 61.566406 105.46875 C 61.449219 105.730469 61.316406 105.96875 61.160156 106.1875 L 60.222656 105.96875 C 60.441406 105.761719 60.613281 105.542969 60.738281 105.3125 C 60.863281 105.074219 60.957031 104.828125 61.019531 104.578125 C 61.152344 104.007813 61.089844 103.542969 60.832031 103.1875 C 60.570313 102.824219 60.113281 102.5625 59.457031 102.40625 L 58.972656 102.28125 C 59.273438 102.542969 59.476563 102.835938 59.582031 103.15625 C 59.683594 103.480469 59.691406 103.835938 59.597656 104.21875 C 59.441406 104.867188 59.042969 105.324219 58.410156 105.59375 C 57.765625 105.855469 56.988281 105.875 56.082031 105.65625 C 55.1875 105.4375 54.515625 105.070313 54.066406 104.546875 C 53.609375 104.015625 53.457031 103.429688 53.613281 102.78125 C 53.707031 102.398438 53.875 102.085938 54.113281 101.84375 C 54.34375 101.605469 54.652344 101.4375 55.035156 101.34375 L 54.160156 101.125 L 54.363281 100.25 Z M 58.425781 94.589844 L 58.894531 94.683594 L 58.050781 98.683594 C 58.707031 98.789063 59.25 98.714844 59.675781 98.464844 C 60.09375 98.214844 60.359375 97.804688 60.472656 97.230469 C 60.542969 96.886719 60.566406 96.554688 60.535156 96.230469 C 60.511719 95.898438 60.449219 95.558594 60.347656 95.214844 L 61.238281 95.402344 C 61.332031 95.746094 61.382813 96.089844 61.394531 96.433594 C 61.402344 96.769531 61.371094 97.105469 61.300781 97.449219 C 61.113281 98.292969 60.695313 98.910156 60.050781 99.292969 C 59.394531 99.667969 58.597656 99.757813 57.660156 99.558594 C 56.703125 99.351563 55.996094 98.957031 55.535156 98.371094 C 55.066406 97.777344 54.921875 97.082031 55.097656 96.277344 C 55.246094 95.570313 55.613281 95.066406 56.207031 94.761719 C 56.800781 94.460938 57.542969 94.402344 58.425781 94.589844 Z M 57.941406 95.402344 C 57.410156 95.300781 56.964844 95.339844 56.597656 95.527344 C 56.222656 95.707031 55.988281 96.011719 55.894531 96.449219 C 55.792969 96.929688 55.863281 97.351563 56.113281 97.714844 C 56.355469 98.082031 56.746094 98.339844 57.285156 98.496094 Z M 59.386719 86.550781 C 59.503906 86.355469 59.699219 86.183594 59.980469 86.035156 C 60.261719 85.878906 60.652344 85.734375 61.152344 85.597656 L 63.464844 84.988281 L 63.292969 86.019531 L 61.105469 86.582031 C 60.542969 86.738281 60.160156 86.910156 59.949219 87.097656 C 59.742188 87.285156 59.605469 87.574219 59.542969 87.957031 L 59.355469 89.003906 L 62.699219 89.566406 L 62.542969 90.535156 L 54.636719 89.222656 L 54.996094 87.050781 C 55.132813 86.230469 55.425781 85.652344 55.871094 85.316406 C 56.308594 84.984375 56.914063 84.878906 57.683594 85.003906 C 58.175781 85.089844 58.566406 85.261719 58.855469 85.519531 C 59.148438 85.78125 59.324219 86.125 59.386719 86.550781 Z M 55.667969 88.394531 L 58.480469 88.863281 L 58.683594 87.660156 C 58.769531 87.183594 58.710938 86.808594 58.511719 86.535156 C 58.304688 86.265625 57.972656 86.089844 57.511719 86.003906 C 57.054688 85.933594 56.691406 85.996094 56.417969 86.191406 C 56.136719 86.378906 55.957031 86.714844 55.871094 87.191406 Z M 58.773438 80.84375 C 58.691406 81.3125 58.832031 81.71875 59.195313 82.0625 C 59.5625 82.398438 60.097656 82.625 60.804688 82.75 C 61.515625 82.875 62.097656 82.839844 62.554688 82.640625 C 63.003906 82.433594 63.269531 82.09375 63.351563 81.625 C 63.4375 81.15625 63.300781 80.75 62.945313 80.40625 C 62.582031 80.0625 62.046875 79.828125 61.335938 79.703125 C 60.628906 79.578125 60.046875 79.621094 59.585938 79.828125 C 59.128906 80.039063 58.859375 80.375 58.773438 80.84375 Z M 57.960938 80.703125 C 58.097656 79.945313 58.476563 79.390625 59.101563 79.046875 C 59.71875 78.703125 60.515625 78.617188 61.492188 78.78125 C 62.453125 78.949219 63.171875 79.304688 63.648438 79.84375 C 64.136719 80.375 64.3125 81.023438 64.179688 81.78125 C 64.042969 82.554688 63.664063 83.105469 63.039063 83.4375 C 62.40625 83.773438 61.609375 83.855469 60.648438 83.6875 C 59.671875 83.523438 58.945313 83.179688 58.476563 82.65625 C 58 82.125 57.828125 81.476563 57.960938 80.703125 Z M 62.679688 75.253906 C 62.429688 75.933594 62.347656 76.4375 62.429688 76.769531 C 62.515625 77.09375 62.757813 77.328125 63.164063 77.472656 C 63.488281 77.589844 63.785156 77.582031 64.054688 77.457031 C 64.316406 77.332031 64.507813 77.105469 64.632813 76.769531 C 64.808594 76.300781 64.761719 75.863281 64.492188 75.457031 C 64.222656 75.042969 63.789063 74.722656 63.195313 74.503906 L 62.976563 74.425781 Z M 62.898438 73.441406 L 66.132813 74.628906 L 65.820313 75.472656 L 64.976563 75.160156 C 65.234375 75.472656 65.390625 75.800781 65.445313 76.144531 C 65.507813 76.488281 65.464844 76.863281 65.320313 77.269531 C 65.132813 77.792969 64.820313 78.152344 64.382813 78.347656 C 63.945313 78.535156 63.457031 78.53125 62.914063 78.332031 C 62.28125 78.09375 61.875 77.722656 61.695313 77.222656 C 61.507813 76.722656 61.554688 76.09375 61.835938 75.332031 L 62.257813 74.160156 L 62.164063 74.128906 C 61.738281 73.972656 61.363281 73.984375 61.039063 74.160156 C 60.707031 74.328125 60.457031 74.640625 60.289063 75.097656 C 60.1875 75.378906 60.125 75.671875 60.101563 75.972656 C 60.082031 76.277344 60.101563 76.589844 60.164063 76.910156 L 59.304688 76.597656 C 59.285156 76.234375 59.296875 75.902344 59.335938 75.597656 C 59.378906 75.285156 59.445313 74.996094 59.539063 74.722656 C 59.8125 73.996094 60.226563 73.519531 60.789063 73.300781 C 61.34375 73.082031 62.046875 73.128906 62.898438 73.441406 Z M 63.917969 67.964844 L 61.074219 66.371094 L 61.511719 65.589844 L 68.808594 69.683594 L 68.371094 70.464844 L 67.574219 70.027344 C 67.800781 70.371094 67.921875 70.710938 67.933594 71.042969 C 67.941406 71.378906 67.855469 71.714844 67.667969 72.058594 C 67.34375 72.632813 66.828125 72.957031 66.121094 73.027344 C 65.414063 73.101563 64.648438 72.902344 63.824219 72.433594 C 62.992188 71.976563 62.425781 71.429688 62.121094 70.792969 C 61.820313 70.148438 61.832031 69.539063 62.152344 68.964844 C 62.339844 68.621094 62.582031 68.367188 62.871094 68.199219 C 63.164063 68.035156 63.511719 67.957031 63.917969 67.964844 Z M 64.277344 71.636719 C 64.914063 71.992188 65.476563 72.160156 65.964844 72.136719 C 66.453125 72.105469 66.8125 71.882813 67.042969 71.464844 C 67.269531 71.050781 67.269531 70.621094 67.042969 70.183594 C 66.824219 69.746094 66.394531 69.351563 65.761719 68.996094 C 65.128906 68.644531 64.566406 68.480469 64.074219 68.511719 C 63.574219 68.542969 63.210938 68.769531 62.980469 69.183594 C 62.753906 69.601563 62.753906 70.027344 62.980469 70.464844 C 63.210938 70.894531 63.644531 71.285156 64.277344 71.636719 Z M 64.277344 71.636719 "/>
<path style=" stroke:none;fill-rule:evenodd;fill:rgb(20%,20%,20%);fill-opacity:1;" d="M 39.367188 154.300781 L 39.601563 153.332031 L 47.398438 155.191406 L 47.164063 156.160156 Z M 45.359375 148.132813 L 48.890625 148.976563 L 48.6875 149.835938 L 45.1875 148.992188 C 44.636719 148.867188 44.199219 148.875 43.875 149.007813 C 43.554688 149.132813 43.34375 149.390625 43.25 149.773438 C 43.136719 150.242188 43.214844 150.648438 43.484375 150.992188 C 43.757813 151.335938 44.171875 151.578125 44.734375 151.710938 L 48.046875 152.507813 L 47.828125 153.398438 L 41.984375 151.992188 L 42.203125 151.101563 L 43.109375 151.320313 C 42.796875 151.039063 42.589844 150.738281 42.484375 150.414063 C 42.382813 150.09375 42.375 149.742188 42.46875 149.367188 C 42.617188 148.773438 42.933594 148.375 43.421875 148.164063 C 43.914063 147.945313 44.558594 147.9375 45.359375 148.132813 Z M 45.164063 142.585938 L 42.007813 141.820313 L 42.210938 140.945313 L 50.335938 142.898438 L 50.132813 143.773438 L 49.257813 143.554688 C 49.570313 143.828125 49.773438 144.125 49.867188 144.445313 C 49.96875 144.757813 49.976563 145.109375 49.882813 145.492188 C 49.734375 146.128906 49.335938 146.582031 48.679688 146.851563 C 48.015625 147.113281 47.21875 147.132813 46.289063 146.914063 C 45.375 146.695313 44.6875 146.320313 44.226563 145.789063 C 43.757813 145.25 43.597656 144.660156 43.742188 144.023438 C 43.835938 143.640625 44.003906 143.328125 44.242188 143.085938 C 44.472656 142.847656 44.78125 142.679688 45.164063 142.585938 Z M 46.507813 146.023438 C 47.21875 146.203125 47.804688 146.207031 48.273438 146.039063 C 48.734375 145.875 49.015625 145.5625 49.117188 145.101563 C 49.230469 144.632813 49.121094 144.222656 48.789063 143.867188 C 48.445313 143.515625 47.921875 143.25 47.210938 143.070313 C 46.503906 142.90625 45.921875 142.90625 45.460938 143.070313 C 44.992188 143.238281 44.703125 143.554688 44.585938 144.023438 C 44.484375 144.484375 44.601563 144.890625 44.945313 145.242188 C 45.28125 145.597656 45.800781 145.859375 46.507813 146.023438 Z M 44.921875 139.726563 L 45.125 138.851563 L 50.96875 140.257813 L 50.765625 141.132813 Z M 42.640625 139.179688 L 42.84375 138.304688 L 44.0625 138.601563 L 43.859375 139.476563 Z M 49.03125 135.363281 C 48.855469 136.0625 48.828125 136.566406 48.953125 136.878906 C 49.070313 137.191406 49.339844 137.402344 49.765625 137.503906 C 50.101563 137.589844 50.390625 137.550781 50.640625 137.394531 C 50.890625 137.238281 51.058594 136.988281 51.140625 136.644531 C 51.265625 136.15625 51.171875 135.722656 50.859375 135.347656 C 50.546875 134.972656 50.085938 134.707031 49.46875 134.550781 L 49.234375 134.503906 Z M 49.046875 133.535156 L 52.390625 134.332031 L 52.1875 135.207031 L 51.3125 134.988281 C 51.613281 135.28125 51.8125 135.59375 51.90625 135.925781 C 52.007813 136.25 52.007813 136.625 51.90625 137.050781 C 51.78125 137.59375 51.515625 137.984375 51.109375 138.222656 C 50.695313 138.464844 50.199219 138.515625 49.625 138.378906 C 48.96875 138.222656 48.523438 137.90625 48.28125 137.425781 C 48.042969 136.949219 48.015625 136.3125 48.203125 135.519531 L 48.5 134.316406 L 48.40625 134.300781 C 47.960938 134.199219 47.585938 134.25 47.28125 134.457031 C 46.96875 134.65625 46.757813 134.996094 46.640625 135.472656 C 46.570313 135.765625 46.542969 136.0625 46.5625 136.363281 C 46.574219 136.667969 46.625 136.972656 46.71875 137.285156 L 45.84375 137.082031 C 45.773438 136.71875 45.742188 136.378906 45.75 136.066406 C 45.761719 135.753906 45.796875 135.457031 45.859375 135.175781 C 46.046875 134.417969 46.402344 133.902344 46.921875 133.628906 C 47.445313 133.347656 48.152344 133.316406 49.046875 133.535156 Z M 50.335938 127.34375 L 53.867188 128.1875 L 53.664063 129.046875 L 50.164063 128.203125 C 49.613281 128.078125 49.175781 128.085938 48.851563 128.21875 C 48.53125 128.34375 48.320313 128.601563 48.226563 128.984375 C 48.113281 129.453125 48.191406 129.859375 48.460938 130.203125 C 48.734375 130.546875 49.148438 130.789063 49.710938 130.921875 L 53.023438 131.71875 L 52.804688 132.609375 L 46.960938 131.203125 L 47.179688 130.3125 L 48.085938 130.53125 C 47.773438 130.25 47.566406 129.949219 47.460938 129.625 C 47.359375 129.304688 47.351563 128.953125 47.445313 128.578125 C 47.59375 127.984375 47.910156 127.585938 48.398438 127.375 C 48.890625 127.15625 49.535156 127.148438 50.335938 127.34375 Z M 47.214844 121.507813 L 47.449219 120.539063 L 54.371094 122.179688 L 55.183594 118.773438 L 56.058594 118.992188 L 55.011719 123.367188 Z M 54.21875 112.785156 L 54.6875 112.894531 L 53.734375 116.878906 C 54.402344 116.996094 54.949219 116.933594 55.375 116.691406 C 55.792969 116.441406 56.070313 116.035156 56.203125 115.472656 C 56.273438 115.140625 56.304688 114.8125 56.296875 114.488281 C 56.285156 114.15625 56.226563 113.808594 56.125 113.441406 L 57.03125 113.644531 C 57.101563 114.011719 57.140625 114.363281 57.140625 114.707031 C 57.140625 115.042969 57.097656 115.375 57.015625 115.707031 C 56.816406 116.550781 56.390625 117.15625 55.734375 117.519531 C 55.070313 117.875 54.265625 117.941406 53.328125 117.722656 C 52.382813 117.496094 51.683594 117.078125 51.234375 116.472656 C 50.789063 115.871094 50.65625 115.175781 50.84375 114.394531 C 51.011719 113.6875 51.398438 113.191406 52 112.910156 C 52.605469 112.621094 53.34375 112.578125 54.21875 112.785156 Z M 53.71875 113.566406 C 53.1875 113.453125 52.734375 113.488281 52.359375 113.675781 C 51.984375 113.855469 51.746094 114.15625 51.640625 114.582031 C 51.527344 115.0625 51.589844 115.488281 51.828125 115.863281 C 52.058594 116.230469 52.4375 116.496094 52.96875 116.660156 Z M 53.574219 107.453125 L 50.417969 106.6875 L 50.621094 105.8125 L 58.746094 107.765625 L 58.542969 108.640625 L 57.667969 108.421875 C 57.980469 108.695313 58.183594 108.992188 58.277344 109.3125 C 58.378906 109.625 58.386719 109.976563 58.292969 110.359375 C 58.144531 110.996094 57.746094 111.449219 57.089844 111.71875 C 56.425781 111.980469 55.628906 112 54.699219 111.78125 C 53.785156 111.5625 53.097656 111.1875 52.636719 110.65625 C 52.167969 110.117188 52.007813 109.527344 52.152344 108.890625 C 52.246094 108.507813 52.414063 108.195313 52.652344 107.953125 C 52.882813 107.714844 53.191406 107.546875 53.574219 107.453125 Z M 54.917969 110.890625 C 55.628906 111.070313 56.214844 111.074219 56.683594 110.90625 C 57.144531 110.742188 57.425781 110.429688 57.527344 109.96875 C 57.640625 109.5 57.53125 109.089844 57.199219 108.734375 C 56.855469 108.382813 56.332031 108.117188 55.621094 107.9375 C 54.914063 107.773438 54.332031 107.773438 53.871094 107.9375 C 53.402344 108.105469 53.113281 108.421875 52.996094 108.890625 C 52.894531 109.351563 53.011719 109.757813 53.355469 110.109375 C 53.691406 110.464844 54.210938 110.726563 54.917969 110.890625 Z M 57.003906 101.8125 C 56.308594 101.648438 55.738281 101.652344 55.300781 101.828125 C 54.855469 101.996094 54.574219 102.3125 54.457031 102.78125 C 54.355469 103.242188 54.464844 103.648438 54.785156 104 C 55.097656 104.34375 55.605469 104.601563 56.300781 104.765625 C 57 104.933594 57.574219 104.933594 58.019531 104.765625 C 58.457031 104.601563 58.730469 104.289063 58.832031 103.828125 C 58.949219 103.359375 58.847656 102.949219 58.535156 102.59375 C 58.214844 102.242188 57.703125 101.980469 57.003906 101.8125 Z M 59.472656 101.484375 C 60.480469 101.726563 61.179688 102.105469 61.566406 102.625 C 61.949219 103.136719 62.042969 103.804688 61.847656 104.625 C 61.773438 104.929688 61.679688 105.210938 61.566406 105.46875 C 61.449219 105.730469 61.316406 105.96875 61.160156 106.1875 L 60.222656 105.96875 C 60.441406 105.761719 60.613281 105.542969 60.738281 105.3125 C 60.863281 105.074219 60.957031 104.828125 61.019531 104.578125 C 61.152344 104.007813 61.089844 103.542969 60.832031 103.1875 C 60.570313 102.824219 60.113281 102.5625 59.457031 102.40625 L 58.972656 102.28125 C 59.273438 102.542969 59.476563 102.835938 59.582031 103.15625 C 59.683594 103.480469 59.691406 103.835938 59.597656 104.21875 C 59.441406 104.867188 59.042969 105.324219 58.410156 105.59375 C 57.765625 105.855469 56.988281 105.875 56.082031 105.65625 C 55.1875 105.4375 54.515625 105.070313 54.066406 104.546875 C 53.609375 104.015625 53.457031 103.429688 53.613281 102.78125 C 53.707031 102.398438 53.875 102.085938 54.113281 101.84375 C 54.34375 101.605469 54.652344 101.4375 55.035156 101.34375 L 54.160156 101.125 L 54.363281 100.25 Z M 58.425781 94.589844 L 58.894531 94.683594 L 58.050781 98.683594 C 58.707031 98.789063 59.25 98.714844 59.675781 98.464844 C 60.09375 98.214844 60.359375 97.804688 60.472656 97.230469 C 60.542969 96.886719 60.566406 96.554688 60.535156 96.230469 C 60.511719 95.898438 60.449219 95.558594 60.347656 95.214844 L 61.238281 95.402344 C 61.332031 95.746094 61.382813 96.089844 61.394531 96.433594 C 61.402344 96.769531 61.371094 97.105469 61.300781 97.449219 C 61.113281 98.292969 60.695313 98.910156 60.050781 99.292969 C 59.394531 99.667969 58.597656 99.757813 57.660156 99.558594 C 56.703125 99.351563 55.996094 98.957031 55.535156 98.371094 C 55.066406 97.777344 54.921875 97.082031 55.097656 96.277344 C 55.246094 95.570313 55.613281 95.066406 56.207031 94.761719 C 56.800781 94.460938 57.542969 94.402344 58.425781 94.589844 Z M 57.941406 95.402344 C 57.410156 95.300781 56.964844 95.339844 56.597656 95.527344 C 56.222656 95.707031 55.988281 96.011719 55.894531 96.449219 C 55.792969 96.929688 55.863281 97.351563 56.113281 97.714844 C 56.355469 98.082031 56.746094 98.339844 57.285156 98.496094 Z M 59.386719 86.550781 C 59.503906 86.355469 59.699219 86.183594 59.980469 86.035156 C 60.261719 85.878906 60.652344 85.734375 61.152344 85.597656 L 63.464844 84.988281 L 63.292969 86.019531 L 61.105469 86.582031 C 60.542969 86.738281 60.160156 86.910156 59.949219 87.097656 C 59.742188 87.285156 59.605469 87.574219 59.542969 87.957031 L 59.355469 89.003906 L 62.699219 89.566406 L 62.542969 90.535156 L 54.636719 89.222656 L 54.996094 87.050781 C 55.132813 86.230469 55.425781 85.652344 55.871094 85.316406 C 56.308594 84.984375 56.914063 84.878906 57.683594 85.003906 C 58.175781 85.089844 58.566406 85.261719 58.855469 85.519531 C 59.148438 85.78125 59.324219 86.125 59.386719 86.550781 Z M 55.667969 88.394531 L 58.480469 88.863281 L 58.683594 87.660156 C 58.769531 87.183594 58.710938 86.808594 58.511719 86.535156 C 58.304688 86.265625 57.972656 86.089844 57.511719 86.003906 C 57.054688 85.933594 56.691406 85.996094 56.417969 86.191406 C 56.136719 86.378906 55.957031 86.714844 55.871094 87.191406 Z M 58.773438 80.84375 C 58.691406 81.3125 58.832031 81.71875 59.195313 82.0625 C 59.5625 82.398438 60.097656 82.625 60.804688 82.75 C 61.515625 82.875 62.097656 82.839844 62.554688 82.640625 C 63.003906 82.433594 63.269531 82.09375 63.351563 81.625 C 63.4375 81.15625 63.300781 80.75 62.945313 80.40625 C 62.582031 80.0625 62.046875 79.828125 61.335938 79.703125 C 60.628906 79.578125 60.046875 79.621094 59.585938 79.828125 C 59.128906 80.039063 58.859375 80.375 58.773438 80.84375 Z M 57.960938 80.703125 C 58.097656 79.945313 58.476563 79.390625 59.101563 79.046875 C 59.71875 78.703125 60.515625 78.617188 61.492188 78.78125 C 62.453125 78.949219 63.171875 79.304688 63.648438 79.84375 C 64.136719 80.375 64.3125 81.023438 64.179688 81.78125 C 64.042969 82.554688 63.664063 83.105469 63.039063 83.4375 C 62.40625 83.773438 61.609375 83.855469 60.648438 83.6875 C 59.671875 83.523438 58.945313 83.179688 58.476563 82.65625 C 58 82.125 57.828125 81.476563 57.960938 80.703125 Z M 62.679688 75.253906 C 62.429688 75.933594 62.347656 76.4375 62.429688 76.769531 C 62.515625 77.09375 62.757813 77.328125 63.164063 77.472656 C 63.488281 77.589844 63.785156 77.582031 64.054688 77.457031 C 64.316406 77.332031 64.507813 77.105469 64.632813 76.769531 C 64.808594 76.300781 64.761719 75.863281 64.492188 75.457031 C 64.222656 75.042969 63.789063 74.722656 63.195313 74.503906 L 62.976563 74.425781 Z M 62.898438 73.441406 L 66.132813 74.628906 L 65.820313 75.472656 L 64.976563 75.160156 C 65.234375 75.472656 65.390625 75.800781 65.445313 76.144531 C 65.507813 76.488281 65.464844 76.863281 65.320313 77.269531 C 65.132813 77.792969 64.820313 78.152344 64.382813 78.347656 C 63.945313 78.535156 63.457031 78.53125 62.914063 78.332031 C 62.28125 78.09375 61.875 77.722656 61.695313 77.222656 C 61.507813 76.722656 61.554688 76.09375 61.835938 75.332031 L 62.257813 74.160156 L 62.164063 74.128906 C 61.738281 73.972656 61.363281 73.984375 61.039063 74.160156 C 60.707031 74.328125 60.457031 74.640625 60.289063 75.097656 C 60.1875 75.378906 60.125 75.671875 60.101563 75.972656 C 60.082031 76.277344 60.101563 76.589844 60.164063 76.910156 L 59.304688 76.597656 C 59.285156 76.234375 59.296875 75.902344 59.335938 75.597656 C 59.378906 75.285156 59.445313 74.996094 59.539063 74.722656 C 59.8125 73.996094 60.226563 73.519531 60.789063 73.300781 C 61.34375 73.082031 62.046875 73.128906 62.898438 73.441406 Z M 63.917969 67.964844 L 61.074219 66.371094 L 61.511719 65.589844 L 68.808594 69.683594 L 68.371094 70.464844 L 67.574219 70.027344 C 67.800781 70.371094 67.921875 70.710938 67.933594 71.042969 C 67.941406 71.378906 67.855469 71.714844 67.667969 72.058594 C 67.34375 72.632813 66.828125 72.957031 66.121094 73.027344 C 65.414063 73.101563 64.648438 72.902344 63.824219 72.433594 C 62.992188 71.976563 62.425781 71.429688 62.121094 70.792969 C 61.820313 70.148438 61.832031 69.539063 62.152344 68.964844 C 62.339844 68.621094 62.582031 68.367188 62.871094 68.199219 C 63.164063 68.035156 63.511719 67.957031 63.917969 67.964844 Z M 64.277344 71.636719 C 64.914063 71.992188 65.476563 72.160156 65.964844 72.136719 C 66.453125 72.105469 66.8125 71.882813 67.042969 71.464844 C 67.269531 71.050781 67.269531 70.621094 67.042969 70.183594 C 66.824219 69.746094 66.394531 69.351563 65.761719 68.996094 C 65.128906 68.644531 64.566406 68.480469 64.074219 68.511719 C 63.574219 68.542969 63.210938 68.769531 62.980469 69.183594 C 62.753906 69.601563 62.753906 70.027344 62.980469 70.464844 C 63.210938 70.894531 63.644531 71.285156 64.277344 71.636719 Z M 64.277344 71.636719 "/>
</g>
</svg>

