<?xml version="1.0" encoding="UTF-8"?>
<svg xmlns="http://www.w3.org/2000/svg" xmlns:xlink="http://www.w3.org/1999/xlink" width="256pt" height="256pt" viewBox="0 0 256 256" version="1.1">
<g id="surface2">
<rect x="0" y="0" width="256" height="256" style="fill:rgb(94.901961%,93.72549%,91.372549%);fill-opacity:1;stroke:none;"/>
<path style=" stroke:none;fill-rule:evenodd;fill:rgb(70.980392%,82.352941%,61.176471%);fill-opacity:1;" d="M 105.417969 260 L 122.046875 260 L 128.152344 244.226563 L 143.996094 218.910156 L 145.957031 208.582031 L 151.773438 197.257813 L 153.21875 179.855469 L 162.46875 159.625 L 163.46875 151.3125 L 169 145.40625 L 179.53125 143.347656 L 182.347656 128.59375 L 181.152344 125.59375 L 176.644531 123.175781 L 174.550781 115.6875 L 174.992188 111.886719 L 176.929688 103.964844 L 185.582031 87.441406 L 185.195313 82.378906 L 191.363281 78.816406 L 198.734375 61.683594 L 200.660156 60.730469 L 214.511719 61.882813 L 219.089844 60.996094 L 241.605469 62.910156 L 245.042969 65.792969 L 239.191406 71.246094 L 238.789063 77.253906 L 246.335938 81.894531 L 247.191406 86.792969 L 250.570313 83.484375 L 254.519531 84.339844 L 259.355469 89.660156 L 260 89.640625 L 260 51.761719 L 244.199219 38.066406 L 232.464844 23.140625 L 225.652344 10.417969 L 220.890625 -4 L 201.078125 -4 L 195.820313 -0.898438 L 192.769531 -4 L 153.765625 -4 L 148.410156 -2.171875 L 139.53125 4.003906 L 137.410156 7.632813 L 132.269531 25.40625 L 131.675781 47.042969 L 128.714844 58.449219 L 119.511719 70.476563 L 116.261719 77.605469 L 105.773438 117.292969 L 95.671875 138.867188 L 92.375 159.355469 L 92.101563 184.285156 L 93.90625 190.34375 L 93.78125 212.0625 L 89.664063 234.285156 L 85.359375 240.871094 Z M 105.417969 260 "/>
<path style=" stroke:none;fill-rule:evenodd;fill:rgb(79.607843%,84.705882%,76.470588%);fill-opacity:1;" d="M 105.417969 260 L 122.046875 260 L 128.152344 244.226563 L 143.996094 218.910156 L 145.957031 208.582031 L 151.773438 197.257813 L 153.21875 179.855469 L 162.46875 159.625 L 163.46875 151.3125 L 169 145.40625 L 179.53125 143.347656 L 182.347656 128.59375 L 181.152344 125.59375 L 176.644531 123.175781 L 174.550781 115.6875 L 174.992188 111.886719 L 176.929688 103.964844 L 185.582031 87.441406 L 185.195313 82.378906 L 191.363281 78.816406 L 198.734375 61.683594 L 200.660156 60.730469 L 214.511719 61.882813 L 219.089844 60.996094 L 241.605469 62.910156 L 245.042969 65.792969 L 239.191406 71.246094 L 238.789063 77.253906 L 246.335938 81.894531 L 247.191406 86.792969 L 250.570313 83.484375 L 254.519531 84.339844 L 259.355469 89.660156 L 260 89.640625 L 260 51.761719 L 244.199219 38.066406 L 232.464844 23.140625 L 225.652344 10.417969 L 220.890625 -4 L 201.078125 -4 L 195.820313 -0.898438 L 192.769531 -4 L 153.765625 -4 L 148.410156 -2.171875 L 139.53125 4.003906 L 137.410156 7.632813 L 132.269531 25.40625 L 131.675781 47.042969 L 128.714844 58.449219 L 119.511719 70.476563 L 116.261719 77.605469 L 105.773438 117.292969 L 95.671875 138.867188 L 92.375 159.355469 L 92.101563 184.285156 L 93.90625 190.34375 L 93.78125 212.0625 L 89.664063 234.285156 L 85.359375 240.871094 Z M 105.417969 260 "/>
<path style=" stroke:none;fill-rule:evenodd;fill:rgb(79.607843%,84.705882%,76.470588%);fill-opacity:1;" d="M 229.796875 -4 L 234.125 1.769531 L 237.917969 16.324219 L 242.269531 22.949219 L 249.433594 26.875 L 258.742188 34.460938 L 256.703125 22.246094 L 254.320313 17.664063 L 242.957031 4.375 L 241.101563 -4 Z M 229.796875 -4 "/>
<path style=" stroke:none;fill-rule:evenodd;fill:rgb(70.980392%,82.352941%,61.176471%);fill-opacity:1;" d="M 229.796875 -4 L 234.125 1.769531 L 237.917969 16.324219 L 242.269531 22.949219 L 249.433594 26.875 L 258.742188 34.460938 L 256.703125 22.246094 L 254.320313 17.664063 L 242.957031 4.375 L 241.101563 -4 Z M 229.796875 -4 "/>
<path style=" stroke:none;fill-rule:evenodd;fill:rgb(81.960784%,81.568627%,80.392157%);fill-opacity:1;" d="M 168.390625 19.726563 L 176.140625 19.953125 L 177.3125 20.8125 L 177.25 25.25 L 181.058594 25.375 L 181.058594 23.9375 L 184.109375 22.105469 L 184.058594 19.328125 L 178.933594 19.25 L 178.929688 14.8125 L 176.3125 14.875 L 176.140625 18.664063 L 170.953125 18.507813 L 168.390625 18.476563 Z M 168.390625 19.726563 "/>
<path style="fill:none;stroke-width:1;stroke-linecap:round;stroke-linejoin:round;stroke:rgb(81.960784%,81.960784%,81.960784%);stroke-opacity:1;stroke-miterlimit:10;" d="M 168.390625 19.726563 L 176.140625 19.953125 L 177.3125 20.8125 L 177.25 25.25 L 181.058594 25.375 L 181.058594 23.9375 L 184.109375 22.105469 L 184.058594 19.328125 L 178.933594 19.25 L 178.929688 14.8125 L 176.3125 14.875 L 176.140625 18.664063 L 170.953125 18.507813 L 168.390625 18.476563 L 168.390625 19.726563 "/>
<path style=" stroke:none;fill-rule:evenodd;fill:rgb(60%,70.196078%,80%);fill-opacity:1;" d="M -4 259 L 255.09375 259 L 256.675781 250.296875 L 259 236.203125 L 259 90.449219 L 256.6875 89.59375 L 253.597656 84.617188 L 246.433594 87.316406 L 244.789063 85.871094 L 243.746094 82.179688 L 237.824219 78.003906 L 235.808594 74.980469 L 236.625 71.605469 L 242.335938 67.546875 L 242.226563 64.40625 L 234.785156 62.324219 L 222.808594 63.0625 L 200.226563 61.605469 L 188.210938 83.320313 L 179.386719 103.207031 L 176.230469 119.882813 L 182.949219 124.390625 L 180.695313 145.554688 L 172.597656 144.277344 L 166.667969 147.246094 L 158.699219 175.546875 L 154.941406 183.765625 L 151.570313 201.425781 L 142.226563 226.605469 L 136.878906 235.941406 L 130.296875 245.894531 L 128.53125 252.960938 L 124.304688 259 L 100.945313 259 L 97.226563 254.003906 L 86.226563 244.003906 L 84.625 238.605469 L 88.628906 232.605469 L 90.625 217.40625 L 94.226563 202.609375 L 90.625 185.003906 L 91.625 163.605469 L 92.261719 159.441406 L 91.730469 150.085938 L 95.226563 140.007813 L 102.625 118.40625 L 110.625 93.003906 L 111.324219 91.015625 L 117.625 73.007813 L 125.226563 60.007813 L 131.226563 47.605469 L 132.714844 23.773438 L 136.625 14.007813 L 135.625 6.40625 L 144.625 -0.992188 L 152.3125 -4 L 197.554688 -4 L 198.628906 -3.59375 L 259 -4 L -4 -4 Z M -4 259 "/>
<path style="fill:none;stroke-width:1;stroke-linecap:round;stroke-linejoin:round;stroke:rgb(70.196078%,77.647059%,83.137255%);stroke-opacity:1;stroke-miterlimit:10;" d="M -4 259 L 255.09375 259 L 256.675781 250.296875 L 259 236.203125 L 259 90.449219 L 256.6875 89.59375 L 253.597656 84.617188 L 246.433594 87.316406 L 244.789063 85.871094 L 243.746094 82.179688 L 237.824219 78.003906 L 235.808594 74.980469 L 236.625 71.605469 L 242.335938 67.546875 L 242.226563 64.40625 L 234.785156 62.324219 L 222.808594 63.0625 L 200.226563 61.605469 L 188.210938 83.320313 L 179.386719 103.207031 L 176.230469 119.882813 L 182.949219 124.390625 L 180.695313 145.554688 L 172.597656 144.277344 L 166.667969 147.246094 L 158.699219 175.546875 L 154.941406 183.765625 L 151.570313 201.425781 L 142.226563 226.605469 L 136.878906 235.941406 L 130.296875 245.894531 L 128.53125 252.960938 L 124.304688 259 L 100.945313 259 L 97.226563 254.003906 L 86.226563 244.003906 L 84.625 238.605469 L 88.628906 232.605469 L 90.625 217.40625 L 94.226563 202.609375 L 90.625 185.003906 L 91.625 163.605469 L 92.261719 159.441406 L 91.730469 150.085938 L 95.226563 140.007813 L 102.625 118.40625 L 110.625 93.003906 L 111.324219 91.015625 L 117.625 73.007813 L 125.226563 60.007813 L 131.226563 47.605469 L 132.714844 23.773438 L 136.625 14.007813 L 135.625 6.40625 L 144.625 -0.992188 L 152.3125 -4 L 197.554688 -4 L 198.628906 -3.59375 L 259 -4 L -4 -4 L -4 259 "/>
<path style="fill:none;stroke-width:1;stroke-linecap:butt;stroke-linejoin:round;stroke:rgb(46.666667%,46.666667%,46.666667%);stroke-opacity:1;stroke-dasharray:2,2;stroke-miterlimit:10;" d="M 225.199219 -2 L 225.363281 -0.878906 L 227.738281 6.402344 L 230.582031 13.015625 L 234.167969 19.816406 L 237.417969 24.738281 L 238.917969 26.546875 L 240.851563 28.8125 L 244.160156 32.523438 L 248.59375 36.875 L 256.492188 43.148438 L 257 43.457031 "/>
<path style="fill:none;stroke-width:1;stroke-linecap:round;stroke-linejoin:round;stroke:rgb(100%,100%,100%);stroke-opacity:1;stroke-dasharray:2,3;stroke-miterlimit:10;" d="M 138.605469 220.480469 L 139.859375 219.355469 L 141.234375 218.980469 L 142.296875 218.980469 "/>
<path style="fill:none;stroke-width:1;stroke-linecap:round;stroke-linejoin:round;stroke:rgb(100%,100%,100%);stroke-opacity:1;stroke-dasharray:2,3;stroke-miterlimit:10;" d="M 135.917969 15.886719 L 136.855469 11.722656 "/>
<path style="fill:none;stroke-width:1;stroke-linecap:round;stroke-linejoin:round;stroke:rgb(100%,100%,100%);stroke-opacity:1;stroke-dasharray:2,3;stroke-miterlimit:10;" d="M 154.441406 47.523438 L 156.507813 52.675781 "/>
<path style="fill:none;stroke-width:1;stroke-linecap:round;stroke-linejoin:round;stroke:rgb(100%,100%,100%);stroke-opacity:1;stroke-dasharray:2,3;stroke-miterlimit:10;" d="M 201.800781 60.953125 L 202.425781 58.050781 L 202.621094 54.871094 "/>
<path style="fill:none;stroke-width:1;stroke-linecap:round;stroke-linejoin:round;stroke:rgb(100%,100%,100%);stroke-opacity:1;stroke-dasharray:2,3;stroke-miterlimit:10;" d="M 98.710938 167.191406 L 95.792969 165.472656 L 93.417969 164.628906 L 91.855469 165.410156 "/>
<path style="fill:none;stroke-width:1;stroke-linecap:round;stroke-linejoin:round;stroke:rgb(100%,100%,100%);stroke-opacity:1;stroke-dasharray:2,3;stroke-miterlimit:10;" d="M 193.359375 6.164063 L 194.792969 3.023438 L 196.128906 -2 "/>
<path style="fill:none;stroke-width:1;stroke-linecap:round;stroke-linejoin:round;stroke:rgb(100%,100%,100%);stroke-opacity:1;stroke-dasharray:2,3;stroke-miterlimit:10;" d="M 104.105469 133.355469 L 102.324219 131.066406 L 100.480469 126.691406 L 99.671875 125.007813 "/>
<path style="fill:none;stroke-width:1;stroke-linecap:round;stroke-linejoin:round;stroke:rgb(100%,100%,100%);stroke-opacity:1;stroke-dasharray:2,3;stroke-miterlimit:10;" d="M 106.03125 248.035156 L 105.746094 249.25 L 104.875 250.5625 L 103.433594 251.5625 L 101.683594 252.4375 L 99.808594 253.25 L 98.167969 253.667969 "/>
<path style="fill:none;stroke-width:1;stroke-linecap:round;stroke-linejoin:round;stroke:rgb(100%,100%,100%);stroke-opacity:1;stroke-dasharray:2,3;stroke-miterlimit:10;" d="M 139.871094 210.75 L 140.546875 212.792969 L 141.0625 215.5 L 141.621094 217.6875 L 142.296875 218.980469 L 143.105469 220.480469 L 143.683594 220.9375 "/>
<path style="fill:none;stroke-width:1;stroke-linecap:round;stroke-linejoin:round;stroke:rgb(100%,100%,100%);stroke-opacity:1;stroke-dasharray:2,3;stroke-miterlimit:10;" d="M 226.921875 46.234375 L 226.886719 51.765625 L 232.171875 51.859375 L 234.839844 51.945313 "/>
<path style="fill:none;stroke-width:1;stroke-linecap:round;stroke-linejoin:round;stroke:rgb(100%,100%,100%);stroke-opacity:1;stroke-dasharray:2,3;stroke-miterlimit:10;" d="M 226.742188 40.308594 L 226.921875 46.234375 L 228.855469 47.890625 L 233.292969 48.140625 L 234.539063 47.957031 "/>
<path style="fill:none;stroke-width:1;stroke-linecap:round;stroke-linejoin:round;stroke:rgb(100%,100%,100%);stroke-opacity:1;stroke-dasharray:2,3;stroke-miterlimit:10;" d="M 138.554688 65.222656 L 132.824219 61.160156 L 131.074219 58.410156 L 129.167969 59.253906 L 127.074219 59.347656 "/>
<path style="fill:none;stroke-width:1;stroke-linecap:round;stroke-linejoin:round;stroke:rgb(100%,100%,100%);stroke-opacity:1;stroke-dasharray:2,3;stroke-miterlimit:10;" d="M 241.058594 53.976563 L 241.105469 42.171875 L 237.484375 41.953125 "/>
<path style="fill:none;stroke-width:1;stroke-linecap:round;stroke-linejoin:round;stroke:rgb(100%,100%,100%);stroke-opacity:1;stroke-dasharray:2,3;stroke-miterlimit:10;" d="M 132.574219 31.386719 L 133.011719 28.128906 L 133.699219 23.253906 L 134.605469 19.722656 L 135.730469 17.097656 L 135.917969 15.886719 "/>
<path style="fill:none;stroke-width:1;stroke-linecap:round;stroke-linejoin:round;stroke:rgb(100%,100%,100%);stroke-opacity:1;stroke-dasharray:2,3;stroke-miterlimit:10;" d="M 151.875 41.679688 L 150.53125 40.210938 L 149.25 38.210938 L 149.28125 35.773438 L 148.9375 34.523438 L 147.03125 34.148438 L 144.460938 32.621094 L 143.84375 30.460938 L 143.28125 29.148438 L 142.71875 28.210938 L 142.242188 27.710938 "/>
<path style="fill:none;stroke-width:1;stroke-linecap:round;stroke-linejoin:round;stroke:rgb(100%,100%,100%);stroke-opacity:1;stroke-dasharray:2,3;stroke-miterlimit:10;" d="M 95.859375 225.105469 L 95.117188 227 L 93.992188 228.625 L 92.605469 230.980469 L 91.617188 232.625 L 90.867188 234.125 L 89.355469 235.730469 L 88.742188 237.625 L 87.871094 239.5 L 87.484375 241.855469 "/>
<path style="fill:none;stroke-width:1;stroke-linecap:round;stroke-linejoin:round;stroke:rgb(100%,100%,100%);stroke-opacity:1;stroke-dasharray:2,3;stroke-miterlimit:10;" d="M 149.167969 19.292969 L 147.917969 22.449219 L 147.230469 23.984375 L 145.449219 25.355469 L 144.324219 26.574219 L 142.242188 27.710938 L 140.480469 28.761719 L 139.011719 28.824219 L 137.355469 28.140625 L 136.011719 28.074219 L 134.449219 28.980469 L 132.574219 31.386719 "/>
<path style="fill:none;stroke-width:1;stroke-linecap:round;stroke-linejoin:round;stroke:rgb(100%,100%,100%);stroke-opacity:1;stroke-dasharray:2,3;stroke-miterlimit:10;" d="M 93.683594 204.160156 L 93.324219 199.519531 L 92.027344 189.691406 L 91.417969 184.238281 L 91.730469 180.347656 "/>
<path style="fill:none;stroke-width:1;stroke-linecap:round;stroke-linejoin:round;stroke:rgb(100%,100%,100%);stroke-opacity:1;stroke-dasharray:2,3;stroke-miterlimit:10;" d="M 110.941406 248.078125 L 111.230469 252.191406 L 111.207031 257 "/>
<path style="fill:none;stroke-width:1;stroke-linecap:round;stroke-linejoin:round;stroke:rgb(100%,100%,100%);stroke-opacity:1;stroke-dasharray:2,3;stroke-miterlimit:10;" d="M 131.074219 58.410156 L 131.730469 56.378906 L 131.980469 53.816406 L 132.105469 51.597656 L 132.605469 47.285156 L 131.355469 43.503906 L 131.042969 39.847656 L 131.605469 37.378906 L 132.574219 34.253906 L 132.574219 31.386719 "/>
<path style="fill:none;stroke-width:1;stroke-linecap:round;stroke-linejoin:round;stroke:rgb(100%,100%,100%);stroke-opacity:1;stroke-dasharray:2,3;stroke-miterlimit:10;" d="M 168.390625 18.882813 L 164.292969 19.636719 L 159.542969 20.667969 L 155.625 21.015625 L 152.699219 20.574219 L 149.167969 19.292969 L 142.449219 17.417969 L 138.636719 16.230469 L 135.917969 15.886719 "/>
<path style="fill:none;stroke-width:1;stroke-linecap:round;stroke-linejoin:round;stroke:rgb(100%,100%,100%);stroke-opacity:1;stroke-dasharray:2,3;stroke-miterlimit:10;" d="M 100.847656 199.261719 L 98.074219 201.910156 L 95.386719 203.347656 L 93.683594 204.160156 L 93.214844 206.738281 L 92.292969 211.113281 L 90.308594 217.753906 L 89.746094 220.753906 L 90.089844 223.738281 L 89.667969 230.972656 "/>
<path style="fill:none;stroke-width:1;stroke-linecap:round;stroke-linejoin:round;stroke:rgb(100%,100%,100%);stroke-opacity:1;stroke-dasharray:2,3;stroke-miterlimit:10;" d="M 234.839844 51.945313 L 239.183594 52.351563 L 241.058594 53.976563 L 242.996094 57.539063 L 245.996094 60.164063 L 252.558594 64.289063 L 254.808594 66.789063 L 255.996094 70.414063 L 255.953125 72.601563 L 255.933594 73.789063 L 255.871094 76.664063 L 257 78.882813 "/>
<path style="fill:none;stroke-width:1;stroke-linecap:round;stroke-linejoin:round;stroke:rgb(100%,100%,100%);stroke-opacity:1;stroke-dasharray:2,3;stroke-miterlimit:10;" d="M 188.5625 27.125 L 190.265625 20.914063 L 192.828125 13.132813 L 193.453125 8.945313 L 193.484375 6.945313 L 191.265625 7.726563 L 188.484375 8.476563 L 180.296875 9.476563 L 175.859375 9.757813 L 172.515625 9.601563 L 169.984375 9.664063 L 169.734375 11.007813 L 167.859375 10.976563 L 167.265625 11.804688 L 167.25 14.460938 L 169.65625 16.179688 L 170.953125 18.507813 "/>
<path style="fill:none;stroke-width:1;stroke-linecap:round;stroke-linejoin:round;stroke:rgb(100%,100%,100%);stroke-opacity:1;stroke-dasharray:2,3;stroke-miterlimit:10;" d="M 127.074219 59.347656 L 123.511719 64.628906 L 119.324219 69.472656 L 116.167969 75.847656 L 113.824219 82.972656 L 111.042969 91.785156 L 108.480469 102.316406 L 105.730469 105.816406 L 102.574219 115.785156 L 99.671875 125.007813 L 96.917969 133.753906 L 96.042969 140.160156 L 92.855469 148.441406 L 91.949219 155.128906 L 91.855469 165.410156 L 91.667969 175.378906 L 91.730469 180.347656 "/>
<path style="fill:none;stroke-width:1;stroke-linecap:round;stroke-linejoin:round;stroke:rgb(100%,100%,100%);stroke-opacity:1;stroke-dasharray:2,3;stroke-miterlimit:10;" d="M 225.746094 27.226563 L 224.6875 13.738281 L 223.878906 3.753906 L 223.484375 -1.128906 L 223.417969 -2 "/>
<path style="fill:none;stroke-width:1;stroke-linecap:round;stroke-linejoin:round;stroke:rgb(100%,100%,100%);stroke-opacity:1;stroke-dasharray:2,3;stroke-miterlimit:10;" d="M 202.621094 54.871094 L 201.265625 54.507813 L 197.515625 54.433594 L 194.03125 54.707031 L 180.28125 53.835938 L 175.667969 59.605469 L 172 63.382813 L 170.488281 66.832031 L 170.488281 70.179688 L 171.675781 72.875 L 174.695313 77.300781 L 177.285156 80.425781 L 178.796875 83.878906 L 179.441406 87.007813 L 179.121094 91.320313 L 178.039063 96.285156 L 176.636719 99.84375 L 174.480469 108.476563 L 173.617188 115.378906 L 173.1875 120.34375 L 173.078125 127.355469 L 171.675781 135.445313 L 167.574219 141.382813 L 163.800781 144.617188 L 160.777344 147.421875 L 157.757813 155.511719 L 152.6875 170.507813 L 151.925781 172.09375 L 150.992188 175.75 L 150.496094 179.125 L 149.234375 182.355469 L 148.984375 184.355469 L 148.105469 187.355469 L 147.371094 190.5 L 146.246094 193.625 L 145.855469 196.230469 L 144.230469 199.480469 L 143.359375 203.105469 L 142.355469 205.605469 L 140.859375 207.730469 L 139.871094 210.75 L 139.496094 213.125 L 138.992188 215.875 L 138.992188 218.25 L 138.605469 220.480469 L 137.242188 223.375 L 135.355469 225.730469 L 133.605469 227.855469 L 131.992188 229.75 L 129.867188 231.625 L 128.730469 233.230469 L 126.980469 234.605469 L 124.605469 236.605469 L 123.242188 238 L 121.355469 240.355469 L 119.605469 242.480469 L 117.609375 244.355469 L 116.355469 245.605469 L 114.484375 246.855469 L 112.359375 247.605469 L 110.941406 248.078125 L 107.742188 248.375 L 106.03125 248.035156 L 104.105469 247.230469 L 103.105469 246.730469 L 101.484375 246.230469 L 99.605469 245.605469 L 99.605469 244.605469 L 100.484375 242.980469 L 100.742188 240.875 L 100.730469 239.105469 L 100.730469 237.355469 L 100.484375 235.605469 L 99.734375 232.730469 L 98.980469 230.605469 L 98.230469 228.230469 L 97.234375 226.730469 L 95.859375 225.105469 L 95.605469 224.105469 L 95.621094 222.375 L 96.480469 220.105469 L 97.359375 218.105469 L 99.230469 214.855469 L 101.230469 213.355469 L 101.980469 210.105469 L 101.742188 205.25 L 101.355469 200.980469 L 100.847656 199.261719 L 100.355469 197.605469 L 99.855469 194.480469 L 99.734375 191.480469 L 99.734375 188.230469 L 99.496094 184.75 L 98.980469 179.980469 L 98.605469 176.980469 L 98.605469 174.105469 L 98.617188 169.25 L 98.710938 167.191406 L 98.980469 163.980469 L 99.121094 161.25 L 99.246094 158.875 L 99.480469 156.605469 L 99.480469 153.480469 L 99.746094 150.875 L 99.734375 146.980469 L 100.230469 142.980469 L 101.484375 139.980469 L 102.371094 136.875 L 104.105469 133.355469 L 105.855469 130.230469 L 107.871094 127.625 L 109.355469 124.480469 L 110.496094 120.5 L 111.617188 117.25 L 112.605469 113.480469 L 114.109375 109.980469 L 115.355469 105.855469 L 115.980469 102.730469 L 117.734375 99.480469 L 119.355469 95.730469 L 120.996094 90.875 L 122.855469 86.355469 L 124.230469 83.480469 L 126.230469 81.480469 L 128.246094 79.25 L 130.121094 77.75 L 131.121094 76.125 L 132.367188 73.625 L 134.355469 71.480469 L 135.621094 69.25 L 137.121094 66.875 L 138.554688 65.222656 L 141.609375 63.105469 L 143.855469 62.105469 L 146.121094 61.625 L 148.609375 61.605469 L 152.109375 60.105469 L 153.230469 58.605469 L 154.117188 56.625 L 154.730469 54.605469 L 156.25 52.867188 L 157.863281 51.707031 L 159.859375 51.316406 L 161.613281 51.019531 L 163.386719 51.449219 L 166.644531 52.832031 L 171.941406 53.296875 L 175.953125 53.191406 L 180.28125 53.835938 "/>
<path style="fill:none;stroke-width:8;stroke-linecap:round;stroke-linejoin:round;stroke:rgb(75.686275%,70.980392%,61.568627%);stroke-opacity:1;stroke-miterlimit:10;" d="M 203.191406 30.695313 L 202.984375 28.667969 "/>
<path style="fill:none;stroke-width:8;stroke-linecap:round;stroke-linejoin:round;stroke:rgb(75.686275%,70.980392%,61.568627%);stroke-opacity:1;stroke-miterlimit:10;" d="M 217.59375 27.351563 L 219.582031 17.246094 L 217.957031 9.726563 "/>
<path style="fill:none;stroke-width:8;stroke-linecap:round;stroke-linejoin:round;stroke:rgb(75.686275%,70.980392%,61.568627%);stroke-opacity:1;stroke-miterlimit:10;" d="M 204.71875 28.550781 L 202.984375 28.667969 L 199.667969 28.292969 L 195.230469 27.855469 L 191.246094 27.6875 L 188.5625 27.125 L 185.667969 25.917969 L 183.792969 24.355469 L 182.542969 22.605469 L 178.886719 22.417969 "/>
<path style="fill:none;stroke-width:8;stroke-linecap:round;stroke-linejoin:round;stroke:rgb(75.686275%,70.980392%,61.568627%);stroke-opacity:1;stroke-miterlimit:10;" d="M 202.851563 36.390625 L 209.105469 36.980469 L 218.859375 37.980469 L 224.292969 39.292969 L 226.742188 40.308594 L 229.230469 42.042969 L 231.265625 42.296875 L 232.746094 42.882813 L 234.308594 45.789063 L 234.539063 47.957031 L 234.839844 51.945313 L 235.246094 56.414063 "/>
<path style="fill:none;stroke-width:8;stroke-linecap:round;stroke-linejoin:round;stroke:rgb(75.686275%,70.980392%,61.568627%);stroke-opacity:1;stroke-miterlimit:10;" d="M 258.183594 24.875 L 252.4375 25.5625 L 242.8125 26.308594 L 238.917969 26.546875 L 225.746094 27.226563 L 222.101563 27.183594 L 217.59375 27.351563 L 212.101563 27.585938 L 204.71875 28.550781 L 203.777344 29.421875 L 203.191406 30.695313 L 202.945313 32.53125 L 202.734375 34.117188 L 202.851563 36.390625 L 203.078125 43.601563 L 203.089844 45.644531 L 202.621094 54.871094 "/>
<path style="fill:none;stroke-width:6;stroke-linecap:round;stroke-linejoin:round;stroke:rgb(100%,100%,100%);stroke-opacity:1;stroke-miterlimit:10;" d="M 203.191406 30.695313 L 202.984375 28.667969 "/>
<path style="fill:none;stroke-width:6;stroke-linecap:round;stroke-linejoin:round;stroke:rgb(100%,100%,100%);stroke-opacity:1;stroke-miterlimit:10;" d="M 217.59375 27.351563 L 219.582031 17.246094 L 217.957031 9.726563 "/>
<path style="fill:none;stroke-width:6;stroke-linecap:round;stroke-linejoin:round;stroke:rgb(100%,100%,100%);stroke-opacity:1;stroke-miterlimit:10;" d="M 204.71875 28.550781 L 202.984375 28.667969 L 199.667969 28.292969 L 195.230469 27.855469 L 191.246094 27.6875 L 188.5625 27.125 L 185.667969 25.917969 L 183.792969 24.355469 L 182.542969 22.605469 L 178.886719 22.417969 "/>
<path style="fill:none;stroke-width:6;stroke-linecap:round;stroke-linejoin:round;stroke:rgb(100%,100%,100%);stroke-opacity:1;stroke-miterlimit:10;" d="M 202.851563 36.390625 L 209.105469 36.980469 L 218.859375 37.980469 L 224.292969 39.292969 L 226.742188 40.308594 L 229.230469 42.042969 L 231.265625 42.296875 L 232.746094 42.882813 L 234.308594 45.789063 L 234.539063 47.957031 L 234.839844 51.945313 L 235.246094 56.414063 "/>
<path style="fill:none;stroke-width:6;stroke-linecap:round;stroke-linejoin:round;stroke:rgb(100%,100%,100%);stroke-opacity:1;stroke-miterlimit:10;" d="M 258.183594 24.875 L 252.4375 25.5625 L 242.8125 26.308594 L 238.917969 26.546875 L 225.746094 27.226563 L 222.101563 27.183594 L 217.59375 27.351563 L 212.101563 27.585938 L 204.71875 28.550781 L 203.777344 29.421875 L 203.191406 30.695313 L 202.945313 32.53125 L 202.734375 34.117188 L 202.851563 36.390625 L 203.078125 43.601563 L 203.089844 45.644531 L 202.621094 54.871094 "/>
</g>
</svg>

