<?xml version="1.0" encoding="UTF-8"?>
<svg xmlns="http://www.w3.org/2000/svg" xmlns:xlink="http://www.w3.org/1999/xlink" width="256pt" height="256pt" viewBox="0 0 256 256" version="1.1">
<g id="surface2">
<rect x="0" y="0" width="256" height="256" style="fill:rgb(94.901961%,93.72549%,91.372549%);fill-opacity:1;stroke:none;"/>
<path style="fill:none;stroke-width:8;stroke-linecap:round;stroke-linejoin:round;stroke:rgb(75.686275%,70.980392%,61.568627%);stroke-opacity:1;stroke-miterlimit:10;" d="M 131.6875 258.65625 L 133.039063 259.636719 L 137.167969 264 M 197.023438 264 L 201.734375 259.441406 L 204.320313 258.460938 L 212.382813 257.320313 L 223.824219 257.875 L 229.625 256.960938 L 230.675781 256.996094 L 232.164063 256.210938 L 233.121094 254.90625 L 234.078125 252.136719 L 234.707031 246.167969 L 234.777344 237.230469 L 236.523438 228.878906 L 236.664063 222.453125 L 237.339844 220.660156 L 239.25 217.5625 L 244.46875 210.289063 L 246.636719 206.179688 L 251.507813 199.851563 L 252.253906 197.375 L 253.582031 187.75 L 255.09375 183.023438 L 257.519531 179.042969 L 260.175781 176.074219 L 264 172.84375 "/>
<path style="fill:none;stroke-width:6;stroke-linecap:round;stroke-linejoin:round;stroke:rgb(100%,100%,100%);stroke-opacity:1;stroke-miterlimit:10;" d="M 131.6875 258.65625 L 133.039063 259.636719 L 137.167969 264 M 197.023438 264 L 201.734375 259.441406 L 204.320313 258.460938 L 212.382813 257.320313 L 223.824219 257.875 L 229.625 256.960938 L 230.675781 256.996094 L 232.164063 256.210938 L 233.121094 254.90625 L 234.078125 252.136719 L 234.707031 246.167969 L 234.777344 237.230469 L 236.523438 228.878906 L 236.664063 222.453125 L 237.339844 220.660156 L 239.25 217.5625 L 244.46875 210.289063 L 246.636719 206.179688 L 251.507813 199.851563 L 252.253906 197.375 L 253.582031 187.75 L 255.09375 183.023438 L 257.519531 179.042969 L 260.175781 176.074219 L 264 172.84375 "/>
</g>
</svg>

