<?xml version="1.0" encoding="UTF-8"?>
<svg xmlns="http://www.w3.org/2000/svg" xmlns:xlink="http://www.w3.org/1999/xlink" width="256pt" height="256pt" viewBox="0 0 256 256" version="1.1">
<g id="surface2">
<rect x="0" y="0" width="256" height="256" style="fill:rgb(94.901961%,93.72549%,91.372549%);fill-opacity:1;stroke:none;"/>
<path style="fill:none;stroke-width:8;stroke-linecap:round;stroke-linejoin:round;stroke:rgb(75.686275%,70.980392%,61.568627%);stroke-opacity:1;stroke-miterlimit:10;" d="M 45.234375 264 L 48.75 261.855469 L 89.761719 235.804688 L 96.027344 232.339844 L 102.367188 229.363281 L 110.382813 226.839844 L 117.398438 225.867188 L 123.945313 225.511719 L 129.863281 226.125 L 135.035156 227.066406 L 142.445313 229.265625 L 148.226563 231.789063 L 155.613281 236.320313 L 159.945313 239.914063 L 164.117188 243.992188 L 174.976563 256 L 182.664063 264 "/>
<path style="fill:none;stroke-width:6;stroke-linecap:round;stroke-linejoin:round;stroke:rgb(100%,99.215686%,54.509804%);stroke-opacity:1;stroke-miterlimit:10;" d="M 45.234375 264 L 48.75 261.855469 L 89.761719 235.804688 L 96.027344 232.339844 L 102.367188 229.363281 L 110.382813 226.839844 L 117.398438 225.867188 L 123.945313 225.511719 L 129.863281 226.125 L 135.035156 227.066406 L 142.445313 229.265625 L 148.226563 231.789063 L 155.613281 236.320313 L 159.945313 239.914063 L 164.117188 243.992188 L 174.976563 256 L 182.664063 264 "/>
<path style="fill:none;stroke-width:3;stroke-linecap:round;stroke-linejoin:round;stroke:rgb(100%,100%,100%);stroke-opacity:1;stroke-miterlimit:10;" d="M 88.800781 236.683594 L 90.300781 239.214844 L 91.644531 238.433594 C 92.089844 238.164063 92.363281 237.863281 92.457031 237.527344 C 92.558594 237.183594 92.480469 236.800781 92.222656 236.371094 C 91.972656 235.945313 91.675781 235.695313 91.332031 235.621094 C 90.988281 235.539063 90.589844 235.632813 90.144531 235.902344 Z M 87.128906 233.839844 L 88.363281 235.933594 L 89.597656 235.214844 C 90.003906 234.964844 90.253906 234.695313 90.347656 234.402344 C 90.449219 234.101563 90.398438 233.777344 90.191406 233.433594 C 89.980469 233.082031 89.726563 232.878906 89.425781 232.824219 C 89.121094 232.773438 88.769531 232.871094 88.363281 233.121094 Z M 85.816406 233.574219 L 87.972656 232.308594 C 88.609375 231.933594 89.183594 231.792969 89.707031 231.886719 C 90.238281 231.972656 90.664063 232.289063 90.988281 232.839844 C 91.226563 233.257813 91.332031 233.648438 91.300781 234.011719 C 91.269531 234.367188 91.101563 234.675781 90.800781 234.933594 C 91.277344 234.777344 91.722656 234.792969 92.128906 234.980469 C 92.542969 235.160156 92.894531 235.480469 93.175781 235.949219 C 93.539063 236.566406 93.628906 237.152344 93.441406 237.714844 C 93.261719 238.269531 92.824219 238.753906 92.128906 239.167969 L 89.894531 240.480469 Z M 94.953125 231.507813 C 94.527344 231.726563 94.289063 232.085938 94.234375 232.585938 C 94.183594 233.078125 94.324219 233.644531 94.65625 234.289063 C 94.976563 234.925781 95.359375 235.363281 95.796875 235.601563 C 96.234375 235.84375 96.664063 235.851563 97.09375 235.632813 C 97.519531 235.414063 97.757813 235.0625 97.8125 234.570313 C 97.863281 234.070313 97.726563 233.503906 97.40625 232.867188 C 97.070313 232.222656 96.6875 231.78125 96.25 231.539063 C 95.8125 231.300781 95.378906 231.289063 94.953125 231.507813 Z M 94.578125 230.773438 C 95.265625 230.421875 95.929688 230.390625 96.578125 230.679688 C 97.222656 230.972656 97.773438 231.5625 98.234375 232.445313 C 98.679688 233.3125 98.835938 234.097656 98.703125 234.804688 C 98.578125 235.503906 98.171875 236.03125 97.484375 236.382813 C 96.796875 236.738281 96.125 236.769531 95.46875 236.476563 C 94.820313 236.175781 94.277344 235.59375 93.828125 234.726563 C 93.371094 233.84375 93.210938 233.050781 93.34375 232.351563 C 93.480469 231.65625 93.890625 231.128906 94.578125 230.773438 Z M 101.460938 228.574219 C 101.34375 228.566406 101.226563 228.570313 101.101563 228.589844 C 100.976563 228.613281 100.855469 228.652344 100.742188 228.714844 C 100.273438 228.925781 99.996094 229.253906 99.914063 229.699219 C 99.832031 230.136719 99.9375 230.664063 100.226563 231.277344 L 101.570313 234.152344 L 100.757813 234.542969 L 98.195313 229.105469 L 99.007813 228.714844 L 99.414063 229.558594 C 99.425781 229.144531 99.53125 228.792969 99.726563 228.511719 C 99.914063 228.222656 100.199219 227.988281 100.585938 227.808594 C 100.648438 227.777344 100.714844 227.753906 100.789063 227.730469 C 100.859375 227.699219 100.9375 227.675781 101.023438 227.652344 Z M 107.429688 228.546875 L 107.585938 229.015625 L 103.695313 230.296875 C 103.945313 230.933594 104.28125 231.367188 104.710938 231.59375 C 105.136719 231.824219 105.625 231.84375 106.179688 231.65625 C 106.511719 231.554688 106.8125 231.40625 107.085938 231.21875 C 107.367188 231.03125 107.625 230.804688 107.867188 230.53125 L 108.164063 231.40625 C 107.902344 231.65625 107.625 231.875 107.335938 232.0625 C 107.042969 232.242188 106.730469 232.382813 106.398438 232.484375 C 105.574219 232.757813 104.835938 232.703125 104.179688 232.328125 C 103.53125 231.953125 103.0625 231.308594 102.757813 230.390625 C 102.457031 229.464844 102.445313 228.652344 102.726563 227.953125 C 103.007813 227.257813 103.53125 226.777344 104.304688 226.515625 C 104.992188 226.296875 105.617188 226.371094 106.179688 226.734375 C 106.742188 227.101563 107.15625 227.703125 107.429688 228.546875 Z M 106.492188 228.546875 C 106.3125 228.039063 106.054688 227.671875 105.710938 227.453125 C 105.367188 227.226563 104.984375 227.179688 104.570313 227.3125 C 104.089844 227.46875 103.757813 227.746094 103.570313 228.140625 C 103.382813 228.527344 103.351563 228.992188 103.476563 229.53125 Z M 111.234375 227.902344 C 110.535156 228.050781 110.066406 228.246094 109.828125 228.496094 C 109.597656 228.746094 109.53125 229.085938 109.625 229.511719 C 109.695313 229.847656 109.859375 230.089844 110.109375 230.246094 C 110.359375 230.402344 110.65625 230.445313 111 230.371094 C 111.488281 230.269531 111.835938 229.996094 112.046875 229.558594 C 112.253906 229.113281 112.289063 228.574219 112.15625 227.949219 L 112.109375 227.714844 Z M 112.875 227.121094 L 113.609375 230.480469 L 112.75 230.683594 L 112.5625 229.792969 C 112.425781 230.199219 112.226563 230.519531 111.96875 230.746094 C 111.707031 230.976563 111.363281 231.136719 110.9375 231.230469 C 110.40625 231.347656 109.941406 231.273438 109.546875 231.011719 C 109.148438 230.742188 108.890625 230.324219 108.765625 229.761719 C 108.617188 229.097656 108.707031 228.554688 109.03125 228.136719 C 109.351563 227.710938 109.914063 227.414063 110.71875 227.246094 L 111.9375 226.980469 L 111.921875 226.886719 C 111.828125 226.441406 111.617188 226.121094 111.296875 225.933594 C 110.972656 225.746094 110.570313 225.707031 110.09375 225.808594 C 109.800781 225.871094 109.519531 225.976563 109.25 226.121094 C 108.976563 226.257813 108.726563 226.441406 108.5 226.667969 L 108.3125 225.777344 C 108.601563 225.570313 108.882813 225.398438 109.15625 225.261719 C 109.4375 225.128906 109.722656 225.027344 110.015625 224.964844 C 110.773438 224.800781 111.390625 224.894531 111.859375 225.246094 C 112.335938 225.601563 112.675781 226.226563 112.875 227.121094 Z M 117.761719 224.050781 L 117.871094 224.972656 C 117.589844 224.859375 117.3125 224.785156 117.042969 224.753906 C 116.78125 224.714844 116.503906 224.714844 116.214844 224.753906 C 115.765625 224.796875 115.4375 224.90625 115.230469 225.082031 C 115.03125 225.261719 114.949219 225.496094 114.980469 225.785156 C 115.011719 226.015625 115.109375 226.1875 115.277344 226.300781 C 115.453125 226.417969 115.785156 226.511719 116.277344 226.582031 L 116.589844 226.597656 C 117.222656 226.671875 117.6875 226.832031 117.980469 227.082031 C 118.28125 227.324219 118.464844 227.6875 118.527344 228.175781 C 118.589844 228.71875 118.4375 229.175781 118.074219 229.550781 C 117.71875 229.925781 117.199219 230.15625 116.511719 230.238281 C 116.21875 230.269531 115.917969 230.277344 115.605469 230.253906 C 115.292969 230.222656 114.949219 230.167969 114.574219 230.082031 L 114.464844 229.082031 C 114.816406 229.21875 115.15625 229.316406 115.480469 229.378906 C 115.800781 229.433594 116.121094 229.441406 116.433594 229.410156 C 116.847656 229.359375 117.15625 229.238281 117.355469 229.050781 C 117.5625 228.863281 117.652344 228.636719 117.621094 228.363281 C 117.589844 228.09375 117.484375 227.894531 117.308594 227.769531 C 117.128906 227.644531 116.761719 227.550781 116.199219 227.488281 L 115.886719 227.425781 C 115.324219 227.363281 114.90625 227.21875 114.636719 226.988281 C 114.363281 226.761719 114.199219 226.410156 114.136719 225.941406 C 114.074219 225.378906 114.199219 224.925781 114.511719 224.582031 C 114.832031 224.238281 115.328125 224.027344 115.996094 223.941406 C 116.316406 223.910156 116.625 223.90625 116.917969 223.925781 C 117.21875 223.9375 117.5 223.980469 117.761719 224.050781 Z M 126.238281 226.101563 C 126.445313 226.195313 126.636719 226.378906 126.816406 226.648438 C 126.992188 226.910156 127.175781 227.273438 127.363281 227.742188 L 128.222656 229.992188 L 127.175781 229.929688 L 126.378906 227.820313 C 126.167969 227.269531 125.957031 226.898438 125.738281 226.710938 C 125.527344 226.523438 125.230469 226.421875 124.847656 226.398438 L 123.785156 226.335938 L 123.597656 229.726563 L 122.613281 229.664063 L 123.066406 221.664063 L 125.269531 221.789063 C 126.101563 221.84375 126.707031 222.070313 127.082031 222.476563 C 127.457031 222.875 127.617188 223.460938 127.566406 224.242188 C 127.542969 224.734375 127.417969 225.140625 127.191406 225.460938 C 126.960938 225.785156 126.644531 226 126.238281 226.101563 Z M 123.988281 222.617188 L 123.832031 225.445313 L 125.050781 225.507813 C 125.527344 225.539063 125.894531 225.445313 126.144531 225.226563 C 126.402344 225 126.542969 224.648438 126.566406 224.179688 C 126.597656 223.710938 126.496094 223.351563 126.269531 223.101563 C 126.039063 222.851563 125.683594 222.710938 125.207031 222.679688 Z M 131.914063 225.203125 C 131.445313 225.121094 131.039063 225.265625 130.695313 225.640625 C 130.359375 226.007813 130.136719 226.542969 130.023438 227.25 C 129.898438 227.960938 129.933594 228.539063 130.132813 228.984375 C 130.339844 229.433594 130.679688 229.699219 131.148438 229.78125 C 131.625 229.855469 132.03125 229.714844 132.367188 229.359375 C 132.710938 228.996094 132.945313 228.460938 133.070313 227.75 C 133.183594 227.042969 133.136719 226.460938 132.929688 226 C 132.730469 225.542969 132.390625 225.277344 131.914063 225.203125 Z M 132.054688 224.375 C 132.8125 224.5 133.367188 224.875 133.710938 225.5 C 134.054688 226.125 134.148438 226.929688 133.992188 227.90625 C 133.824219 228.867188 133.476563 229.585938 132.945313 230.0625 C 132.414063 230.550781 131.765625 230.734375 131.007813 230.609375 C 130.234375 230.484375 129.683594 230.109375 129.351563 229.484375 C 129.015625 228.851563 128.933594 228.054688 129.101563 227.09375 C 129.257813 226.117188 129.59375 225.386719 130.117188 224.90625 C 130.636719 224.429688 131.28125 224.25 132.054688 224.375 Z M 137.65625 228.871094 C 136.96875 228.675781 136.460938 228.628906 136.140625 228.730469 C 135.828125 228.824219 135.609375 229.085938 135.484375 229.511719 C 135.390625 229.835938 135.414063 230.132813 135.5625 230.402344 C 135.707031 230.664063 135.945313 230.839844 136.28125 230.933594 C 136.757813 231.066406 137.195313 230.988281 137.59375 230.699219 C 137.988281 230.410156 138.273438 229.957031 138.453125 229.339844 L 138.515625 229.121094 Z M 139.484375 228.980469 L 138.53125 232.277344 L 137.671875 232.027344 L 137.921875 231.152344 C 137.617188 231.453125 137.296875 231.644531 136.953125 231.730469 C 136.617188 231.8125 136.242188 231.792969 135.828125 231.667969 C 135.296875 231.511719 134.921875 231.222656 134.703125 230.808594 C 134.484375 230.382813 134.453125 229.886719 134.609375 229.324219 C 134.796875 228.679688 135.132813 228.246094 135.625 228.027344 C 136.113281 227.808594 136.75 227.816406 137.53125 228.042969 L 138.734375 228.386719 L 138.75 228.292969 C 138.882813 227.855469 138.851563 227.480469 138.65625 227.167969 C 138.46875 226.847656 138.140625 226.617188 137.671875 226.480469 C 137.378906 226.398438 137.078125 226.355469 136.765625 226.355469 C 136.453125 226.355469 136.148438 226.398438 135.859375 226.480469 L 136.109375 225.621094 C 136.460938 225.558594 136.796875 225.542969 137.109375 225.574219 C 137.421875 225.597656 137.71875 225.644531 138 225.714844 C 138.75 225.933594 139.25 226.316406 139.5 226.855469 C 139.75 227.386719 139.742188 228.097656 139.484375 228.980469 Z M 145.089844 229.289063 L 146.261719 226.273438 L 147.089844 226.585938 L 144.058594 234.367188 L 143.230469 234.054688 L 143.558594 233.210938 C 143.253906 233.480469 142.9375 233.640625 142.605469 233.695313 C 142.269531 233.746094 141.921875 233.699219 141.558594 233.554688 C 140.941406 233.3125 140.550781 232.855469 140.386719 232.179688 C 140.21875 231.492188 140.308594 230.707031 140.652344 229.820313 C 140.996094 228.9375 141.457031 228.300781 142.042969 227.914063 C 142.636719 227.519531 143.238281 227.441406 143.855469 227.679688 C 144.21875 227.828125 144.503906 228.035156 144.714844 228.304688 C 144.921875 228.566406 145.046875 228.894531 145.089844 229.289063 Z M 141.511719 230.148438 C 141.238281 230.828125 141.152344 231.410156 141.246094 231.898438 C 141.347656 232.378906 141.621094 232.699219 142.058594 232.867188 C 142.503906 233.042969 142.925781 232.984375 143.324219 232.695313 C 143.71875 232.414063 144.050781 231.9375 144.324219 231.257813 C 144.582031 230.582031 144.660156 230.003906 144.558594 229.523438 C 144.464844 229.035156 144.191406 228.703125 143.746094 228.523438 C 143.308594 228.359375 142.890625 228.421875 142.496094 228.710938 C 142.097656 228.992188 141.769531 229.472656 141.511719 230.148438 Z M 141.511719 230.148438 "/>
<path style=" stroke:none;fill-rule:evenodd;fill:rgb(20%,20%,20%);fill-opacity:1;" d="M 88.800781 236.683594 L 90.300781 239.214844 L 91.644531 238.433594 C 92.089844 238.164063 92.363281 237.863281 92.457031 237.527344 C 92.558594 237.183594 92.480469 236.800781 92.222656 236.371094 C 91.972656 235.945313 91.675781 235.695313 91.332031 235.621094 C 90.988281 235.539063 90.589844 235.632813 90.144531 235.902344 Z M 87.128906 233.839844 L 88.363281 235.933594 L 89.597656 235.214844 C 90.003906 234.964844 90.253906 234.695313 90.347656 234.402344 C 90.449219 234.101563 90.398438 233.777344 90.191406 233.433594 C 89.980469 233.082031 89.726563 232.878906 89.425781 232.824219 C 89.121094 232.773438 88.769531 232.871094 88.363281 233.121094 Z M 85.816406 233.574219 L 87.972656 232.308594 C 88.609375 231.933594 89.183594 231.792969 89.707031 231.886719 C 90.238281 231.972656 90.664063 232.289063 90.988281 232.839844 C 91.226563 233.257813 91.332031 233.648438 91.300781 234.011719 C 91.269531 234.367188 91.101563 234.675781 90.800781 234.933594 C 91.277344 234.777344 91.722656 234.792969 92.128906 234.980469 C 92.542969 235.160156 92.894531 235.480469 93.175781 235.949219 C 93.539063 236.566406 93.628906 237.152344 93.441406 237.714844 C 93.261719 238.269531 92.824219 238.753906 92.128906 239.167969 L 89.894531 240.480469 Z M 94.953125 231.507813 C 94.527344 231.726563 94.289063 232.085938 94.234375 232.585938 C 94.183594 233.078125 94.324219 233.644531 94.65625 234.289063 C 94.976563 234.925781 95.359375 235.363281 95.796875 235.601563 C 96.234375 235.84375 96.664063 235.851563 97.09375 235.632813 C 97.519531 235.414063 97.757813 235.0625 97.8125 234.570313 C 97.863281 234.070313 97.726563 233.503906 97.40625 232.867188 C 97.070313 232.222656 96.6875 231.78125 96.25 231.539063 C 95.8125 231.300781 95.378906 231.289063 94.953125 231.507813 Z M 94.578125 230.773438 C 95.265625 230.421875 95.929688 230.390625 96.578125 230.679688 C 97.222656 230.972656 97.773438 231.5625 98.234375 232.445313 C 98.679688 233.3125 98.835938 234.097656 98.703125 234.804688 C 98.578125 235.503906 98.171875 236.03125 97.484375 236.382813 C 96.796875 236.738281 96.125 236.769531 95.46875 236.476563 C 94.820313 236.175781 94.277344 235.59375 93.828125 234.726563 C 93.371094 233.84375 93.210938 233.050781 93.34375 232.351563 C 93.480469 231.65625 93.890625 231.128906 94.578125 230.773438 Z M 101.460938 228.574219 C 101.34375 228.566406 101.226563 228.570313 101.101563 228.589844 C 100.976563 228.613281 100.855469 228.652344 100.742188 228.714844 C 100.273438 228.925781 99.996094 229.253906 99.914063 229.699219 C 99.832031 230.136719 99.9375 230.664063 100.226563 231.277344 L 101.570313 234.152344 L 100.757813 234.542969 L 98.195313 229.105469 L 99.007813 228.714844 L 99.414063 229.558594 C 99.425781 229.144531 99.53125 228.792969 99.726563 228.511719 C 99.914063 228.222656 100.199219 227.988281 100.585938 227.808594 C 100.648438 227.777344 100.714844 227.753906 100.789063 227.730469 C 100.859375 227.699219 100.9375 227.675781 101.023438 227.652344 Z M 107.429688 228.546875 L 107.585938 229.015625 L 103.695313 230.296875 C 103.945313 230.933594 104.28125 231.367188 104.710938 231.59375 C 105.136719 231.824219 105.625 231.84375 106.179688 231.65625 C 106.511719 231.554688 106.8125 231.40625 107.085938 231.21875 C 107.367188 231.03125 107.625 230.804688 107.867188 230.53125 L 108.164063 231.40625 C 107.902344 231.65625 107.625 231.875 107.335938 232.0625 C 107.042969 232.242188 106.730469 232.382813 106.398438 232.484375 C 105.574219 232.757813 104.835938 232.703125 104.179688 232.328125 C 103.53125 231.953125 103.0625 231.308594 102.757813 230.390625 C 102.457031 229.464844 102.445313 228.652344 102.726563 227.953125 C 103.007813 227.257813 103.53125 226.777344 104.304688 226.515625 C 104.992188 226.296875 105.617188 226.371094 106.179688 226.734375 C 106.742188 227.101563 107.15625 227.703125 107.429688 228.546875 Z M 106.492188 228.546875 C 106.3125 228.039063 106.054688 227.671875 105.710938 227.453125 C 105.367188 227.226563 104.984375 227.179688 104.570313 227.3125 C 104.089844 227.46875 103.757813 227.746094 103.570313 228.140625 C 103.382813 228.527344 103.351563 228.992188 103.476563 229.53125 Z M 111.234375 227.902344 C 110.535156 228.050781 110.066406 228.246094 109.828125 228.496094 C 109.597656 228.746094 109.53125 229.085938 109.625 229.511719 C 109.695313 229.847656 109.859375 230.089844 110.109375 230.246094 C 110.359375 230.402344 110.65625 230.445313 111 230.371094 C 111.488281 230.269531 111.835938 229.996094 112.046875 229.558594 C 112.253906 229.113281 112.289063 228.574219 112.15625 227.949219 L 112.109375 227.714844 Z M 112.875 227.121094 L 113.609375 230.480469 L 112.75 230.683594 L 112.5625 229.792969 C 112.425781 230.199219 112.226563 230.519531 111.96875 230.746094 C 111.707031 230.976563 111.363281 231.136719 110.9375 231.230469 C 110.40625 231.347656 109.941406 231.273438 109.546875 231.011719 C 109.148438 230.742188 108.890625 230.324219 108.765625 229.761719 C 108.617188 229.097656 108.707031 228.554688 109.03125 228.136719 C 109.351563 227.710938 109.914063 227.414063 110.71875 227.246094 L 111.9375 226.980469 L 111.921875 226.886719 C 111.828125 226.441406 111.617188 226.121094 111.296875 225.933594 C 110.972656 225.746094 110.570313 225.707031 110.09375 225.808594 C 109.800781 225.871094 109.519531 225.976563 109.25 226.121094 C 108.976563 226.257813 108.726563 226.441406 108.5 226.667969 L 108.3125 225.777344 C 108.601563 225.570313 108.882813 225.398438 109.15625 225.261719 C 109.4375 225.128906 109.722656 225.027344 110.015625 224.964844 C 110.773438 224.800781 111.390625 224.894531 111.859375 225.246094 C 112.335938 225.601563 112.675781 226.226563 112.875 227.121094 Z M 117.761719 224.050781 L 117.871094 224.972656 C 117.589844 224.859375 117.3125 224.785156 117.042969 224.753906 C 116.78125 224.714844 116.503906 224.714844 116.214844 224.753906 C 115.765625 224.796875 115.4375 224.90625 115.230469 225.082031 C 115.03125 225.261719 114.949219 225.496094 114.980469 225.785156 C 115.011719 226.015625 115.109375 226.1875 115.277344 226.300781 C 115.453125 226.417969 115.785156 226.511719 116.277344 226.582031 L 116.589844 226.597656 C 117.222656 226.671875 117.6875 226.832031 117.980469 227.082031 C 118.28125 227.324219 118.464844 227.6875 118.527344 228.175781 C 118.589844 228.71875 118.4375 229.175781 118.074219 229.550781 C 117.71875 229.925781 117.199219 230.15625 116.511719 230.238281 C 116.21875 230.269531 115.917969 230.277344 115.605469 230.253906 C 115.292969 230.222656 114.949219 230.167969 114.574219 230.082031 L 114.464844 229.082031 C 114.816406 229.21875 115.15625 229.316406 115.480469 229.378906 C 115.800781 229.433594 116.121094 229.441406 116.433594 229.410156 C 116.847656 229.359375 117.15625 229.238281 117.355469 229.050781 C 117.5625 228.863281 117.652344 228.636719 117.621094 228.363281 C 117.589844 228.09375 117.484375 227.894531 117.308594 227.769531 C 117.128906 227.644531 116.761719 227.550781 116.199219 227.488281 L 115.886719 227.425781 C 115.324219 227.363281 114.90625 227.21875 114.636719 226.988281 C 114.363281 226.761719 114.199219 226.410156 114.136719 225.941406 C 114.074219 225.378906 114.199219 224.925781 114.511719 224.582031 C 114.832031 224.238281 115.328125 224.027344 115.996094 223.941406 C 116.316406 223.910156 116.625 223.90625 116.917969 223.925781 C 117.21875 223.9375 117.5 223.980469 117.761719 224.050781 Z M 126.238281 226.101563 C 126.445313 226.195313 126.636719 226.378906 126.816406 226.648438 C 126.992188 226.910156 127.175781 227.273438 127.363281 227.742188 L 128.222656 229.992188 L 127.175781 229.929688 L 126.378906 227.820313 C 126.167969 227.269531 125.957031 226.898438 125.738281 226.710938 C 125.527344 226.523438 125.230469 226.421875 124.847656 226.398438 L 123.785156 226.335938 L 123.597656 229.726563 L 122.613281 229.664063 L 123.066406 221.664063 L 125.269531 221.789063 C 126.101563 221.84375 126.707031 222.070313 127.082031 222.476563 C 127.457031 222.875 127.617188 223.460938 127.566406 224.242188 C 127.542969 224.734375 127.417969 225.140625 127.191406 225.460938 C 126.960938 225.785156 126.644531 226 126.238281 226.101563 Z M 123.988281 222.617188 L 123.832031 225.445313 L 125.050781 225.507813 C 125.527344 225.539063 125.894531 225.445313 126.144531 225.226563 C 126.402344 225 126.542969 224.648438 126.566406 224.179688 C 126.597656 223.710938 126.496094 223.351563 126.269531 223.101563 C 126.039063 222.851563 125.683594 222.710938 125.207031 222.679688 Z M 131.914063 225.203125 C 131.445313 225.121094 131.039063 225.265625 130.695313 225.640625 C 130.359375 226.007813 130.136719 226.542969 130.023438 227.25 C 129.898438 227.960938 129.933594 228.539063 130.132813 228.984375 C 130.339844 229.433594 130.679688 229.699219 131.148438 229.78125 C 131.625 229.855469 132.03125 229.714844 132.367188 229.359375 C 132.710938 228.996094 132.945313 228.460938 133.070313 227.75 C 133.183594 227.042969 133.136719 226.460938 132.929688 226 C 132.730469 225.542969 132.390625 225.277344 131.914063 225.203125 Z M 132.054688 224.375 C 132.8125 224.5 133.367188 224.875 133.710938 225.5 C 134.054688 226.125 134.148438 226.929688 133.992188 227.90625 C 133.824219 228.867188 133.476563 229.585938 132.945313 230.0625 C 132.414063 230.550781 131.765625 230.734375 131.007813 230.609375 C 130.234375 230.484375 129.683594 230.109375 129.351563 229.484375 C 129.015625 228.851563 128.933594 228.054688 129.101563 227.09375 C 129.257813 226.117188 129.59375 225.386719 130.117188 224.90625 C 130.636719 224.429688 131.28125 224.25 132.054688 224.375 Z M 137.65625 228.871094 C 136.96875 228.675781 136.460938 228.628906 136.140625 228.730469 C 135.828125 228.824219 135.609375 229.085938 135.484375 229.511719 C 135.390625 229.835938 135.414063 230.132813 135.5625 230.402344 C 135.707031 230.664063 135.945313 230.839844 136.28125 230.933594 C 136.757813 231.066406 137.195313 230.988281 137.59375 230.699219 C 137.988281 230.410156 138.273438 229.957031 138.453125 229.339844 L 138.515625 229.121094 Z M 139.484375 228.980469 L 138.53125 232.277344 L 137.671875 232.027344 L 137.921875 231.152344 C 137.617188 231.453125 137.296875 231.644531 136.953125 231.730469 C 136.617188 231.8125 136.242188 231.792969 135.828125 231.667969 C 135.296875 231.511719 134.921875 231.222656 134.703125 230.808594 C 134.484375 230.382813 134.453125 229.886719 134.609375 229.324219 C 134.796875 228.679688 135.132813 228.246094 135.625 228.027344 C 136.113281 227.808594 136.75 227.816406 137.53125 228.042969 L 138.734375 228.386719 L 138.75 228.292969 C 138.882813 227.855469 138.851563 227.480469 138.65625 227.167969 C 138.46875 226.847656 138.140625 226.617188 137.671875 226.480469 C 137.378906 226.398438 137.078125 226.355469 136.765625 226.355469 C 136.453125 226.355469 136.148438 226.398438 135.859375 226.480469 L 136.109375 225.621094 C 136.460938 225.558594 136.796875 225.542969 137.109375 225.574219 C 137.421875 225.597656 137.71875 225.644531 138 225.714844 C 138.75 225.933594 139.25 226.316406 139.5 226.855469 C 139.75 227.386719 139.742188 228.097656 139.484375 228.980469 Z M 145.089844 229.289063 L 146.261719 226.273438 L 147.089844 226.585938 L 144.058594 234.367188 L 143.230469 234.054688 L 143.558594 233.210938 C 143.253906 233.480469 142.9375 233.640625 142.605469 233.695313 C 142.269531 233.746094 141.921875 233.699219 141.558594 233.554688 C 140.941406 233.3125 140.550781 232.855469 140.386719 232.179688 C 140.21875 231.492188 140.308594 230.707031 140.652344 229.820313 C 140.996094 228.9375 141.457031 228.300781 142.042969 227.914063 C 142.636719 227.519531 143.238281 227.441406 143.855469 227.679688 C 144.21875 227.828125 144.503906 228.035156 144.714844 228.304688 C 144.921875 228.566406 145.046875 228.894531 145.089844 229.289063 Z M 141.511719 230.148438 C 141.238281 230.828125 141.152344 231.410156 141.246094 231.898438 C 141.347656 232.378906 141.621094 232.699219 142.058594 232.867188 C 142.503906 233.042969 142.925781 232.984375 143.324219 232.695313 C 143.71875 232.414063 144.050781 231.9375 144.324219 231.257813 C 144.582031 230.582031 144.660156 230.003906 144.558594 229.523438 C 144.464844 229.035156 144.191406 228.703125 143.746094 228.523438 C 143.308594 228.359375 142.890625 228.421875 142.496094 228.710938 C 142.097656 228.992188 141.769531 229.472656 141.511719 230.148438 Z M 141.511719 230.148438 "/>
</g>
</svg>

