<?xml version="1.0" encoding="UTF-8"?>
<svg xmlns="http://www.w3.org/2000/svg" xmlns:xlink="http://www.w3.org/1999/xlink" width="256pt" height="256pt" viewBox="0 0 256 256" version="1.1">
<g id="surface2">
<rect x="0" y="0" width="256" height="256" style="fill:rgb(94.901961%,93.72549%,91.372549%);fill-opacity:1;stroke:none;"/>
<path style="fill:none;stroke-width:8;stroke-linecap:round;stroke-linejoin:round;stroke:rgb(75.686275%,70.980392%,61.568627%);stroke-opacity:1;stroke-miterlimit:10;" d="M 33.535156 251.984375 L 25.890625 256.480469 L 20.066406 259.960938 L 16.058594 263.34375 L 14.976563 264 "/>
<path style="fill:none;stroke-width:8;stroke-linecap:round;stroke-linejoin:round;stroke:rgb(75.686275%,70.980392%,61.568627%);stroke-opacity:1;stroke-miterlimit:10;" d="M -9 202.792969 L -8.363281 203.859375 L -6.21875 206.355469 L -4.679688 207.339844 L 4.222656 211.605469 L 10.933594 215.285156 L 13.378906 216.234375 L 16.546875 215.777344 "/>
<path style="fill:none;stroke-width:9;stroke-linecap:round;stroke-linejoin:round;stroke:rgb(75.686275%,70.980392%,61.568627%);stroke-opacity:1;stroke-miterlimit:10;" d="M 40.234375 265 L 37.472656 260.15625 L 33.535156 251.984375 L 28.921875 242.367188 L 16.546875 215.777344 L -1.136719 177.828125 L -10 158.855469 "/>
<path style="fill:none;stroke-width:6;stroke-linecap:round;stroke-linejoin:round;stroke:rgb(100%,100%,100%);stroke-opacity:1;stroke-miterlimit:10;" d="M 33.535156 251.984375 L 25.890625 256.480469 L 20.066406 259.960938 L 16.058594 263.34375 L 14.976563 264 "/>
<path style="fill:none;stroke-width:6;stroke-linecap:round;stroke-linejoin:round;stroke:rgb(100%,100%,100%);stroke-opacity:1;stroke-miterlimit:10;" d="M -9 202.792969 L -8.363281 203.859375 L -6.21875 206.355469 L -4.679688 207.339844 L 4.222656 211.605469 L 10.933594 215.285156 L 13.378906 216.234375 L 16.546875 215.777344 "/>
<path style="fill:none;stroke-width:7;stroke-linecap:round;stroke-linejoin:round;stroke:rgb(100%,99.215686%,54.509804%);stroke-opacity:1;stroke-miterlimit:10;" d="M 40.234375 265 L 37.472656 260.15625 L 33.535156 251.984375 L 28.921875 242.367188 L 16.546875 215.777344 L -1.136719 177.828125 L -10 158.855469 "/>
</g>
</svg>

