<?xml version="1.0" encoding="UTF-8"?>
<svg xmlns="http://www.w3.org/2000/svg" xmlns:xlink="http://www.w3.org/1999/xlink" width="256pt" height="256pt" viewBox="0 0 256 256" version="1.1">
<g id="surface2">
<rect x="0" y="0" width="256" height="256" style="fill:rgb(94.901961%,93.72549%,91.372549%);fill-opacity:1;stroke:none;"/>
<path style=" stroke:none;fill-rule:evenodd;fill:rgb(79.607843%,84.705882%,76.470588%);fill-opacity:1;" d="M -4 260 L 260 260 L -4 260 L -4 -4 Z M -4 260 Z M -4 260 Z M -4 260 Z M -4 260 "/>
<path style=" stroke:none;fill-rule:evenodd;fill:rgb(79.607843%,84.705882%,76.470588%);fill-opacity:1;" d="M -4 -4 L -4 260 L 260 260 L 105.535156 260 L 115.84375 249.949219 L 125.324219 238.007813 L 133.203125 226.871094 L 134.832031 224.355469 L 137.464844 220.324219 L 138.140625 214.273438 L 137.933594 211.140625 L 136.859375 207.171875 L 134.578125 203.632813 L 131.757813 200.5625 L 129.03125 198.980469 L 126.375 197.832031 L 121.96875 197.304688 L 120.105469 197.273438 L 117.101563 197.554688 L 110.574219 200.996094 L 107.664063 203.011719 L 103.167969 205.308594 L 99.902344 206.269531 L 96.476563 206.269531 L 92.679688 205.929688 L 87.554688 203.976563 L 82.007813 200.464844 L 71.894531 194.945313 L 62.9375 189.949219 L 51.972656 184.304688 L 46.488281 181.730469 L 40.957031 180.761719 L 37.304688 181.570313 L 32.921875 183.148438 L 29.3125 185.535156 L 26.375 189.386719 L 14.363281 213.34375 L 12.84375 214.511719 L 10.648438 216.386719 L 8.136719 217.871094 L 5.089844 218.421875 L 3.019531 219.066406 L -2.226563 218.265625 L -4 217.824219 L -4 -4 L 260 -4 Z M -4 -4 "/>
<path style=" stroke:none;fill-rule:evenodd;fill:rgb(70.980392%,82.352941%,61.176471%);fill-opacity:1;" d="M -4 -4 L -4 260 L 260 260 L 105.535156 260 L 115.84375 249.949219 L 125.324219 238.007813 L 133.203125 226.871094 L 134.832031 224.355469 L 137.464844 220.324219 L 138.140625 214.273438 L 137.933594 211.140625 L 136.859375 207.171875 L 134.578125 203.632813 L 131.757813 200.5625 L 129.03125 198.980469 L 126.375 197.832031 L 121.96875 197.304688 L 120.105469 197.273438 L 117.101563 197.554688 L 110.574219 200.996094 L 107.664063 203.011719 L 103.167969 205.308594 L 99.902344 206.269531 L 96.476563 206.269531 L 92.679688 205.929688 L 87.554688 203.976563 L 82.007813 200.464844 L 71.894531 194.945313 L 62.9375 189.949219 L 51.972656 184.304688 L 46.488281 181.730469 L 40.957031 180.761719 L 37.304688 181.570313 L 32.921875 183.148438 L 29.3125 185.535156 L 26.375 189.386719 L 14.363281 213.34375 L 12.84375 214.511719 L 10.648438 216.386719 L 8.136719 217.871094 L 5.089844 218.421875 L 3.019531 219.066406 L -2.226563 218.265625 L -4 217.824219 L -4 -4 L 260 -4 Z M -4 -4 "/>
<path style=" stroke:none;fill-rule:evenodd;fill:rgb(81.960784%,81.568627%,80.392157%);fill-opacity:1;" d="M 6.289063 220.246094 L 7.90625 225.179688 L 12.097656 223.644531 L 13.257813 222.570313 L 11.847656 217.757813 Z M 6.289063 220.246094 "/>
<path style="fill:none;stroke-width:1;stroke-linecap:round;stroke-linejoin:round;stroke:rgb(81.960784%,81.960784%,81.960784%);stroke-opacity:1;stroke-miterlimit:10;" d="M 6.289063 220.246094 L 7.90625 225.179688 L 12.097656 223.644531 L 13.257813 222.570313 L 11.847656 217.757813 L 6.289063 220.246094 "/>
<path style=" stroke:none;fill-rule:evenodd;fill:rgb(60%,70.196078%,80%);fill-opacity:1;" d="M -4 -4 L 259 -4 L -4 -4 L -4 259 L -4 -4 L 259 -4 Z M -4 -4 "/>
<path style="fill:none;stroke-width:1;stroke-linecap:round;stroke-linejoin:round;stroke:rgb(70.196078%,77.647059%,83.137255%);stroke-opacity:1;stroke-miterlimit:10;" d="M -4 -4 L 259 -4 L -4 -4 L -4 259 L -4 -4 L 259 -4 L -4 -4 "/>
<path style=" stroke:none;fill-rule:evenodd;fill:rgb(60%,70.196078%,80%);fill-opacity:1;" d="M 133.804688 23.378906 L 144.027344 24.683594 L 143.671875 18.300781 L 151.359375 5.242188 L 158.179688 5.96875 L 160.214844 -0.269531 L 164.273438 -2.011719 L 171.238281 1.90625 L 183.277344 -4 L 188.917969 -4 L 191.699219 -2.011719 L 192.648438 -4 L 126.683594 -4 L 124.957031 2.339844 L 128 12.207031 L 123.359375 28.023438 Z M 133.804688 23.378906 "/>
<path style="fill:none;stroke-width:1;stroke-linecap:round;stroke-linejoin:round;stroke:rgb(70.196078%,77.647059%,83.137255%);stroke-opacity:1;stroke-miterlimit:10;" d="M 133.804688 23.378906 L 144.027344 24.683594 L 143.671875 18.300781 L 151.359375 5.242188 L 158.179688 5.96875 L 160.214844 -0.269531 L 164.273438 -2.011719 L 171.238281 1.90625 L 183.277344 -4 L 188.917969 -4 L 191.699219 -2.011719 L 192.648438 -4 L 126.683594 -4 L 124.957031 2.339844 L 128 12.207031 L 123.359375 28.023438 L 133.804688 23.378906 "/>
<path style=" stroke:none;fill-rule:evenodd;fill:rgb(60%,70.196078%,80%);fill-opacity:1;" d="M 133.804688 23.378906 L 144.027344 24.683594 L 143.671875 18.300781 L 151.359375 5.242188 L 158.179688 5.96875 L 160.214844 -0.269531 L 164.273438 -2.011719 L 171.238281 1.90625 L 183.277344 -4 L 188.917969 -4 L 191.699219 -2.011719 L 192.648438 -4 L 126.683594 -4 L 124.957031 2.339844 L 128 12.207031 L 123.359375 28.023438 Z M 133.804688 23.378906 "/>
<path style="fill:none;stroke-width:1;stroke-linecap:round;stroke-linejoin:round;stroke:rgb(70.196078%,77.647059%,83.137255%);stroke-opacity:1;stroke-miterlimit:10;" d="M 133.804688 23.378906 L 144.027344 24.683594 L 143.671875 18.300781 L 151.359375 5.242188 L 158.179688 5.96875 L 160.214844 -0.269531 L 164.273438 -2.011719 L 171.238281 1.90625 L 183.277344 -4 L 188.917969 -4 L 191.699219 -2.011719 L 192.648438 -4 L 126.683594 -4 L 124.957031 2.339844 L 128 12.207031 L 123.359375 28.023438 L 133.804688 23.378906 "/>
<path style="fill:none;stroke-width:2;stroke-linecap:round;stroke-linejoin:round;stroke:rgb(60%,70.196078%,80%);stroke-opacity:1;stroke-miterlimit:10;" d="M 145.867188 -3 L 139.367188 7.046875 L 136.691406 15.285156 L 138.25 19.738281 L 144.027344 24.683594 L 149.796875 29.609375 L 150.546875 33.359375 L 151.792969 37.480469 L 156.542969 37.105469 L 160.542969 38.605469 L 160.421875 40.605469 L 158.542969 44.105469 L 158.167969 46.980469 L 160.605469 54.417969 L 163.042969 63.605469 L 164.355469 67.667969 L 166.417969 70.730469 L 164.792969 82.105469 L 161.542969 85.160156 L 162.042969 111.105469 L 164.167969 119.355469 L 161.046875 123.105469 L 163.015625 133.417969 L 167.234375 141.230469 L 166.921875 147.605469 L 171.042969 153.105469 L 172.046875 162.105469 L 171.296875 169.355469 L 170.046875 175.292969 L 167.546875 178.730469 L 162.546875 184.109375 L 154.046875 195.855469 L 150.792969 199.859375 L 146.417969 204.109375 L 139.535156 208.308594 L 130.417969 213.730469 L 121.292969 217.605469 L 115.917969 220.230469 L 111.296875 224.105469 L 105.296875 233.855469 L 98.234375 241.261719 L 91.921875 244.917969 L 79.042969 255.730469 L 76.066406 258 "/>
<path style="fill:none;stroke-width:2;stroke-linecap:round;stroke-linejoin:round;stroke:rgb(60%,70.196078%,80%);stroke-opacity:1;stroke-miterlimit:10;" d="M 20.433594 -3 L 20.078125 5.144531 L 25.714844 21.539063 L 30.363281 31.957031 L 33.996094 34.109375 L 39.78125 40.4375 L 42.746094 47.027344 L 46.109375 52.546875 L 52.007813 54.441406 L 53.25 57.332031 L 60.277344 68.492188 L 60.898438 77.171875 L 59.039063 83.375 L 59.65625 89.160156 L 61.105469 92.257813 L 59.863281 94.535156 L 56.554688 98.253906 L 55.9375 103.835938 L 58.417969 107.554688 L 57.796875 113.960938 L 56.761719 124.707031 L 54.488281 134.628906 L 52.425781 145.167969 L 51.183594 157.363281 L 49.941406 163.355469 L 45.398438 167.695313 L 41.261719 172.449219 L 35.269531 188.363281 L 32.375 200.554688 L 31.546875 212.128906 L 32.375 223.703125 L 32.167969 230.109375 L 35.476563 239 L 41.054688 247.679688 L 45.808594 257.390625 L 46.230469 258 "/>
<path style="fill:none;stroke-width:1;stroke-linecap:round;stroke-linejoin:round;stroke:rgb(100%,100%,100%);stroke-opacity:1;stroke-dasharray:2,3;stroke-miterlimit:10;" d="M -2 149.253906 L -0.925781 149.140625 L 1.578125 144.867188 L 3.695313 139.292969 L 6.675781 134.84375 L 14.453125 128.921875 L 17.820313 127.457031 L 21.277344 127.023438 L 23.914063 128.449219 L 24.820313 134.453125 L 28.578125 136.746094 L 29.484375 141.582031 L 30.914063 142.921875 L 31.429688 144.433594 L 32.855469 145.730469 L 38.253906 146.078125 L 43.871094 148.191406 L 45.296875 148.234375 L 48.96875 152.515625 L 51.953125 153.160156 L 56.789063 151.648438 L 60.460938 151.261719 L 65.125 149.359375 L 70.398438 151.605469 L 76.488281 155.449219 L 77.609375 157.21875 L 77.351563 159.683594 L 77.871094 161.886719 L 77.308594 165.34375 L 78.429688 167.285156 L 78.34375 169.402344 L 81.84375 176.015625 L 85.863281 180.460938 L 93.464844 184.136719 L 105.433594 188.84375 L 109.363281 188.152344 L 115.886719 189.1875 L 131.480469 187.460938 L 135.15625 187.503906 L 138.65625 189.40625 L 145.695313 197.914063 L 151.054688 203.316406 L 148.894531 205.257813 L 147.8125 208.800781 L 147.382813 213.210938 L 148.460938 215.414063 L 151.269531 215.585938 L 152.609375 214.722656 L 156.972656 214.246094 L 158.910156 214.664063 L 158.398438 216.335938 L 161.367188 226.269531 L 159.964844 229.460938 L 160.828125 235.777344 L 160.234375 239.121094 L 160.449219 243.929688 L 162.339844 249.597656 L 164.394531 252.082031 L 166.726563 257 "/>
<path style="fill:none;stroke-width:1;stroke-linecap:round;stroke-linejoin:round;stroke:rgb(100%,100%,100%);stroke-opacity:1;stroke-dasharray:2,3;stroke-miterlimit:10;" d="M 134.832031 224.355469 L 144.234375 222.644531 L 156.28125 216.066406 L 158.910156 214.664063 L 174.523438 206.328125 L 212.949219 196.679688 L 236.695313 190.472656 L 252.796875 184.890625 L 257 182.683594 "/>
<path style="fill:none;stroke-width:1;stroke-linecap:round;stroke-linejoin:round;stroke:rgb(100%,100%,100%);stroke-opacity:1;stroke-dasharray:2,3;stroke-miterlimit:10;" d="M 257 140.015625 L 253.285156 137.796875 L 251.210938 134.476563 L 250.441406 132.242188 L 250.117188 127.339844 L 250.117188 121.355469 L 251.164063 97.929688 L 250.746094 93.277344 L 249.835938 89.492188 L 247.738281 87.164063 L 246.269531 86.421875 L 241.261719 85.644531 L 235.832031 83.875 L 233.734375 82.417969 L 231.894531 80.089844 L 230.472656 76.988281 L 229.097656 61.230469 L 224.878906 24.710938 L 223.878906 13.046875 L 223.878906 8.703125 L 224.71875 6.375 L 227.421875 1.878906 L 229.84375 -0.015625 L 232.769531 -2 "/>
<path style="fill:none;stroke-width:8;stroke-linecap:round;stroke-linejoin:round;stroke:rgb(75.686275%,70.980392%,61.568627%);stroke-opacity:1;stroke-miterlimit:10;" d="M 3.019531 219.066406 L 4.214844 221.28125 L 6.039063 222.902344 L 8.238281 222.648438 L 13.257813 219.996094 L 13.960938 218.171875 L 14.003906 216.679688 L 12.84375 214.511719 "/>
<path style="fill:none;stroke-width:11;stroke-linecap:round;stroke-linejoin:round;stroke:rgb(86.666667%,62.352941%,6.666667%);stroke-opacity:1;stroke-miterlimit:10;" d="M 98.199219 267 L 98.933594 266.164063 L 103.949219 261.546875 L 115.84375 249.949219 L 125.324219 238.007813 L 133.203125 226.871094 L 134.832031 224.355469 L 137.464844 220.324219 L 138.140625 214.273438 L 137.933594 211.140625 L 136.859375 207.171875 L 134.578125 203.632813 L 131.757813 200.5625 L 129.03125 198.980469 L 126.375 197.832031 L 121.96875 197.304688 L 120.105469 197.273438 L 117.101563 197.554688 L 110.574219 200.996094 L 107.664063 203.011719 L 103.167969 205.308594 L 99.902344 206.269531 L 96.476563 206.269531 L 92.679688 205.929688 L 87.554688 203.976563 L 82.007813 200.464844 L 71.894531 194.945313 L 62.9375 189.949219 L 51.972656 184.304688 L 46.488281 181.730469 L 40.957031 180.761719 L 37.304688 181.570313 L 32.921875 183.148438 L 29.3125 185.535156 L 26.375 189.386719 L 14.363281 213.34375 L 12.84375 214.511719 L 10.648438 216.386719 L 8.136719 217.871094 L 5.089844 218.421875 L 3.019531 219.066406 L -2.226563 218.265625 L -5.832031 217.371094 L -9.5625 216.101563 L -12 213.753906 "/>
<path style="fill:none;stroke-width:6;stroke-linecap:round;stroke-linejoin:round;stroke:rgb(100%,100%,100%);stroke-opacity:1;stroke-miterlimit:10;" d="M 3.019531 219.066406 L 4.214844 221.28125 L 6.039063 222.902344 L 8.238281 222.648438 L 13.257813 219.996094 L 13.960938 218.171875 L 14.003906 216.679688 L 12.84375 214.511719 "/>
<path style="fill:none;stroke-width:9;stroke-linecap:round;stroke-linejoin:round;stroke:rgb(100%,76.470588%,27.058824%);stroke-opacity:1;stroke-miterlimit:10;" d="M 98.199219 267 L 98.933594 266.164063 L 103.949219 261.546875 L 115.84375 249.949219 L 125.324219 238.007813 L 133.203125 226.871094 L 134.832031 224.355469 L 137.464844 220.324219 L 138.140625 214.273438 L 137.933594 211.140625 L 136.859375 207.171875 L 134.578125 203.632813 L 131.757813 200.5625 L 129.03125 198.980469 L 126.375 197.832031 L 121.96875 197.304688 L 120.105469 197.273438 L 117.101563 197.554688 L 110.574219 200.996094 L 107.664063 203.011719 L 103.167969 205.308594 L 99.902344 206.269531 L 96.476563 206.269531 L 92.679688 205.929688 L 87.554688 203.976563 L 82.007813 200.464844 L 71.894531 194.945313 L 62.9375 189.949219 L 51.972656 184.304688 L 46.488281 181.730469 L 40.957031 180.761719 L 37.304688 181.570313 L 32.921875 183.148438 L 29.3125 185.535156 L 26.375 189.386719 L 14.363281 213.34375 L 12.84375 214.511719 L 10.648438 216.386719 L 8.136719 217.871094 L 5.089844 218.421875 L 3.019531 219.066406 L -2.226563 218.265625 L -5.832031 217.371094 L -9.5625 216.101563 L -12 213.753906 "/>
<path style="fill:none;stroke-width:3;stroke-linecap:round;stroke-linejoin:round;stroke:rgb(100%,100%,100%);stroke-opacity:1;stroke-miterlimit:10;" d="M 156.789063 211.238281 L 157.648438 210.769531 L 161.164063 217.347656 C 161.621094 218.203125 161.804688 218.898438 161.710938 219.441406 C 161.625 219.980469 161.261719 220.425781 160.617188 220.769531 L 160.289063 220.957031 L 159.867188 220.160156 L 160.148438 220.003906 C 160.523438 219.804688 160.726563 219.542969 160.757813 219.222656 C 160.789063 218.898438 160.636719 218.433594 160.304688 217.816406 Z M 163.835938 213.136719 C 163.210938 213.472656 162.820313 213.789063 162.664063 214.089844 C 162.507813 214.382813 162.527344 214.722656 162.726563 215.105469 C 162.890625 215.410156 163.117188 215.601563 163.398438 215.683594 C 163.679688 215.769531 163.976563 215.726563 164.289063 215.558594 C 164.726563 215.332031 164.980469 214.976563 165.054688 214.496094 C 165.136719 214.007813 165.03125 213.480469 164.742188 212.917969 L 164.632813 212.714844 Z M 165.210938 211.933594 L 166.835938 214.964844 L 166.054688 215.386719 L 165.632813 214.589844 C 165.609375 215.007813 165.507813 215.367188 165.320313 215.667969 C 165.140625 215.960938 164.859375 216.207031 164.476563 216.402344 C 163.984375 216.664063 163.515625 216.722656 163.070313 216.574219 C 162.621094 216.429688 162.257813 216.097656 161.976563 215.574219 C 161.664063 214.980469 161.609375 214.441406 161.804688 213.949219 C 161.992188 213.449219 162.445313 213.011719 163.164063 212.636719 L 164.273438 212.042969 L 164.226563 211.949219 C 164.007813 211.554688 163.714844 211.308594 163.351563 211.214844 C 162.996094 211.113281 162.601563 211.179688 162.164063 211.417969 C 161.90625 211.554688 161.664063 211.730469 161.445313 211.949219 C 161.226563 212.160156 161.035156 212.398438 160.867188 212.667969 L 160.445313 211.871094 C 160.675781 211.589844 160.90625 211.351563 161.132813 211.152344 C 161.363281 210.945313 161.609375 210.773438 161.867188 210.636719 C 162.554688 210.261719 163.171875 210.183594 163.726563 210.402344 C 164.289063 210.613281 164.78125 211.121094 165.210938 211.933594 Z M 169.171875 207.171875 L 169.609375 207.984375 C 169.296875 207.964844 169.007813 207.980469 168.75 208.03125 C 168.5 208.074219 168.257813 208.15625 168.03125 208.28125 C 167.523438 208.5625 167.226563 208.960938 167.140625 209.46875 C 167.046875 209.96875 167.179688 210.546875 167.53125 211.203125 C 167.875 211.839844 168.28125 212.265625 168.75 212.484375 C 169.21875 212.695313 169.707031 212.65625 170.21875 212.375 C 170.445313 212.25 170.65625 212.101563 170.84375 211.921875 C 171.03125 211.746094 171.203125 211.527344 171.359375 211.265625 L 171.78125 212.0625 C 171.613281 212.304688 171.425781 212.515625 171.21875 212.703125 C 171.019531 212.882813 170.796875 213.039063 170.546875 213.171875 C 169.816406 213.558594 169.101563 213.617188 168.40625 213.34375 C 167.71875 213.074219 167.152344 212.511719 166.703125 211.65625 C 166.234375 210.792969 166.085938 209.996094 166.25 209.265625 C 166.40625 208.539063 166.855469 207.976563 167.59375 207.578125 C 167.832031 207.445313 168.082031 207.34375 168.34375 207.28125 C 168.613281 207.210938 168.890625 207.171875 169.171875 207.171875 Z M 169.5 204.140625 L 170.3125 203.75 L 172.40625 208.21875 L 173.703125 204.75 L 174.734375 204.265625 L 173.328125 208.015625 L 177.390625 209.65625 L 176.34375 210.140625 L 172.609375 208.65625 L 173.859375 211.3125 L 173.046875 211.703125 Z M 178.078125 201.285156 L 179.03125 201.050781 L 182.171875 207.253906 L 181.984375 200.300781 L 183.046875 200.035156 L 186.1875 206.238281 L 185.984375 199.300781 L 186.953125 199.050781 L 187.140625 207.285156 L 185.953125 207.582031 L 182.78125 201.191406 L 182.984375 208.332031 L 181.796875 208.628906 Z M 190.847656 200.859375 C 190.386719 200.976563 190.070313 201.273438 189.894531 201.75 C 189.726563 202.21875 189.730469 202.804688 189.910156 203.5 C 190.085938 204.199219 190.355469 204.714844 190.722656 205.046875 C 191.097656 205.371094 191.511719 205.476563 191.972656 205.359375 C 192.441406 205.246094 192.757813 204.960938 192.925781 204.5 C 193.089844 204.03125 193.085938 203.449219 192.910156 202.75 C 192.730469 202.054688 192.460938 201.539063 192.097656 201.203125 C 191.730469 200.859375 191.316406 200.746094 190.847656 200.859375 Z M 190.644531 200.0625 C 191.394531 199.875 192.050781 200 192.613281 200.4375 C 193.175781 200.867188 193.574219 201.558594 193.816406 202.515625 C 194.054688 203.464844 194.027344 204.265625 193.738281 204.921875 C 193.445313 205.578125 192.925781 206 192.175781 206.1875 C 191.414063 206.375 190.753906 206.25 190.191406 205.8125 C 189.636719 205.367188 189.242188 204.667969 189.003906 203.71875 C 188.765625 202.761719 188.792969 201.960938 189.082031 201.3125 C 189.363281 200.667969 189.882813 200.25 190.644531 200.0625 Z M 196.710938 199.386719 C 196.25 199.503906 195.933594 199.800781 195.757813 200.277344 C 195.589844 200.746094 195.59375 201.332031 195.773438 202.027344 C 195.949219 202.726563 196.21875 203.242188 196.585938 203.574219 C 196.960938 203.898438 197.375 204.003906 197.835938 203.886719 C 198.304688 203.773438 198.621094 203.488281 198.789063 203.027344 C 198.953125 202.558594 198.949219 201.976563 198.773438 201.277344 C 198.59375 200.582031 198.324219 200.066406 197.960938 199.730469 C 197.59375 199.386719 197.179688 199.273438 196.710938 199.386719 Z M 196.507813 198.589844 C 197.257813 198.402344 197.914063 198.527344 198.476563 198.964844 C 199.039063 199.394531 199.4375 200.085938 199.679688 201.042969 C 199.917969 201.992188 199.890625 202.792969 199.601563 203.449219 C 199.308594 204.105469 198.789063 204.527344 198.039063 204.714844 C 197.277344 204.902344 196.617188 204.777344 196.054688 204.339844 C 195.5 203.894531 195.105469 203.195313 194.867188 202.246094 C 194.628906 201.289063 194.65625 200.488281 194.945313 199.839844 C 195.226563 199.195313 195.746094 198.777344 196.507813 198.589844 Z M 204.046875 197.773438 L 203.265625 194.617188 L 204.140625 194.398438 L 206.171875 202.507813 L 205.296875 202.726563 L 205.078125 201.851563 C 204.984375 202.25 204.816406 202.566406 204.578125 202.804688 C 204.347656 203.046875 204.039063 203.210938 203.65625 203.304688 C 203.019531 203.460938 202.429688 203.3125 201.890625 202.851563 C 201.347656 202.382813 200.960938 201.691406 200.734375 200.773438 C 200.507813 199.859375 200.523438 199.070313 200.78125 198.414063 C 201.039063 197.75 201.488281 197.335938 202.125 197.179688 C 202.507813 197.085938 202.859375 197.085938 203.171875 197.179688 C 203.492188 197.273438 203.785156 197.472656 204.046875 197.773438 Z M 201.625 200.554688 C 201.800781 201.265625 202.070313 201.785156 202.4375 202.117188 C 202.800781 202.453125 203.207031 202.5625 203.65625 202.445313 C 204.125 202.332031 204.4375 202.046875 204.59375 201.585938 C 204.75 201.117188 204.738281 200.53125 204.5625 199.820313 C 204.382813 199.113281 204.113281 198.59375 203.75 198.257813 C 203.394531 197.925781 202.984375 197.816406 202.515625 197.929688 C 202.066406 198.046875 201.757813 198.335938 201.59375 198.804688 C 201.4375 199.265625 201.445313 199.847656 201.625 200.554688 Z M 213.402344 196.769531 C 213.628906 196.8125 213.871094 196.933594 214.121094 197.128906 C 214.371094 197.328125 214.65625 197.621094 214.980469 198.003906 L 216.480469 199.894531 L 215.464844 200.144531 L 214.058594 198.378906 C 213.703125 197.921875 213.390625 197.636719 213.121094 197.519531 C 212.859375 197.40625 212.542969 197.394531 212.167969 197.488281 L 211.136719 197.753906 L 211.980469 201.035156 L 211.027344 201.285156 L 209.042969 193.519531 L 211.183594 192.972656 C 211.984375 192.765625 212.625 192.796875 213.105469 193.066406 C 213.59375 193.339844 213.9375 193.847656 214.136719 194.597656 C 214.261719 195.089844 214.261719 195.519531 214.136719 195.894531 C 214.011719 196.269531 213.765625 196.5625 213.402344 196.769531 Z M 210.214844 194.128906 L 210.917969 196.894531 L 212.105469 196.597656 C 212.5625 196.472656 212.878906 196.265625 213.058594 195.972656 C 213.234375 195.683594 213.265625 195.308594 213.152344 194.847656 C 213.035156 194.402344 212.828125 194.089844 212.527344 193.910156 C 212.234375 193.734375 211.859375 193.707031 211.402344 193.832031 Z M 218.367188 193.890625 C 217.898438 194.015625 217.578125 194.3125 217.414063 194.78125 C 217.257813 195.25 217.265625 195.835938 217.445313 196.53125 C 217.632813 197.230469 217.90625 197.746094 218.273438 198.078125 C 218.648438 198.402344 219.070313 198.5 219.539063 198.375 C 219.996094 198.25 220.304688 197.960938 220.460938 197.5 C 220.625 197.03125 220.617188 196.449219 220.429688 195.75 C 220.25 195.054688 219.976563 194.539063 219.601563 194.203125 C 219.234375 193.871094 218.824219 193.765625 218.367188 193.890625 Z M 218.148438 193.09375 C 218.886719 192.898438 219.542969 193.011719 220.117188 193.4375 C 220.6875 193.867188 221.101563 194.558594 221.351563 195.515625 C 221.601563 196.464844 221.578125 197.265625 221.289063 197.921875 C 221.007813 198.578125 220.496094 199.007813 219.757813 199.203125 C 218.996094 199.402344 218.328125 199.28125 217.757813 198.84375 C 217.195313 198.40625 216.789063 197.714844 216.539063 196.765625 C 216.289063 195.808594 216.304688 195.007813 216.585938 194.359375 C 216.867188 193.714844 217.386719 193.292969 218.148438 193.09375 Z M 225.140625 194.488281 C 224.441406 194.675781 223.984375 194.894531 223.765625 195.144531 C 223.546875 195.394531 223.492188 195.734375 223.609375 196.160156 C 223.691406 196.496094 223.859375 196.734375 224.109375 196.878906 C 224.367188 197.027344 224.671875 197.050781 225.015625 196.957031 C 225.492188 196.832031 225.828125 196.546875 226.015625 196.097656 C 226.203125 195.652344 226.21875 195.121094 226.0625 194.503906 L 226 194.269531 Z M 226.75 193.644531 L 227.625 196.972656 L 226.765625 197.207031 L 226.53125 196.332031 C 226.425781 196.738281 226.25 197.0625 226 197.300781 C 225.757813 197.542969 225.425781 197.71875 225 197.832031 C 224.46875 197.96875 224 197.910156 223.59375 197.660156 C 223.1875 197.410156 222.910156 197.003906 222.765625 196.441406 C 222.589844 195.785156 222.648438 195.246094 222.953125 194.816406 C 223.265625 194.378906 223.816406 194.058594 224.609375 193.847656 L 225.8125 193.535156 L 225.78125 193.441406 C 225.664063 193.003906 225.445313 192.699219 225.125 192.519531 C 224.800781 192.34375 224.398438 192.316406 223.921875 192.441406 C 223.628906 192.515625 223.347656 192.636719 223.078125 192.800781 C 222.816406 192.957031 222.578125 193.144531 222.359375 193.363281 L 222.125 192.488281 C 222.417969 192.261719 222.695313 192.078125 222.96875 191.941406 C 223.238281 191.796875 223.515625 191.6875 223.796875 191.613281 C 224.554688 191.417969 225.179688 191.484375 225.671875 191.816406 C 226.160156 192.152344 226.519531 192.761719 226.75 193.644531 Z M 231.550781 190.671875 L 230.738281 187.515625 L 231.597656 187.296875 L 233.707031 195.390625 L 232.847656 195.609375 L 232.613281 194.734375 C 232.519531 195.140625 232.355469 195.464844 232.128906 195.703125 C 231.898438 195.945313 231.589844 196.109375 231.207031 196.203125 C 230.570313 196.371094 229.976563 196.226563 229.425781 195.765625 C 228.882813 195.308594 228.492188 194.621094 228.253906 193.703125 C 228.015625 192.789063 228.019531 192 228.269531 191.34375 C 228.519531 190.679688 228.960938 190.261719 229.597656 190.09375 C 229.980469 190 230.335938 190 230.660156 190.09375 C 230.980469 190.1875 231.277344 190.382813 231.550781 190.671875 Z M 229.144531 193.46875 C 229.332031 194.179688 229.601563 194.699219 229.957031 195.03125 C 230.320313 195.355469 230.730469 195.460938 231.191406 195.34375 C 231.648438 195.21875 231.957031 194.929688 232.113281 194.46875 C 232.277344 194 232.269531 193.414063 232.082031 192.703125 C 231.902344 192.007813 231.628906 191.492188 231.253906 191.15625 C 230.886719 190.824219 230.476563 190.71875 230.019531 190.84375 C 229.558594 190.960938 229.253906 191.25 229.097656 191.71875 C 228.949219 192.1875 228.964844 192.773438 229.144531 193.46875 Z M 229.144531 193.46875 "/>
<path style=" stroke:none;fill-rule:evenodd;fill:rgb(20%,20%,20%);fill-opacity:1;" d="M 156.789063 211.238281 L 157.648438 210.769531 L 161.164063 217.347656 C 161.621094 218.203125 161.804688 218.898438 161.710938 219.441406 C 161.625 219.980469 161.261719 220.425781 160.617188 220.769531 L 160.289063 220.957031 L 159.867188 220.160156 L 160.148438 220.003906 C 160.523438 219.804688 160.726563 219.542969 160.757813 219.222656 C 160.789063 218.898438 160.636719 218.433594 160.304688 217.816406 Z M 163.835938 213.136719 C 163.210938 213.472656 162.820313 213.789063 162.664063 214.089844 C 162.507813 214.382813 162.527344 214.722656 162.726563 215.105469 C 162.890625 215.410156 163.117188 215.601563 163.398438 215.683594 C 163.679688 215.769531 163.976563 215.726563 164.289063 215.558594 C 164.726563 215.332031 164.980469 214.976563 165.054688 214.496094 C 165.136719 214.007813 165.03125 213.480469 164.742188 212.917969 L 164.632813 212.714844 Z M 165.210938 211.933594 L 166.835938 214.964844 L 166.054688 215.386719 L 165.632813 214.589844 C 165.609375 215.007813 165.507813 215.367188 165.320313 215.667969 C 165.140625 215.960938 164.859375 216.207031 164.476563 216.402344 C 163.984375 216.664063 163.515625 216.722656 163.070313 216.574219 C 162.621094 216.429688 162.257813 216.097656 161.976563 215.574219 C 161.664063 214.980469 161.609375 214.441406 161.804688 213.949219 C 161.992188 213.449219 162.445313 213.011719 163.164063 212.636719 L 164.273438 212.042969 L 164.226563 211.949219 C 164.007813 211.554688 163.714844 211.308594 163.351563 211.214844 C 162.996094 211.113281 162.601563 211.179688 162.164063 211.417969 C 161.90625 211.554688 161.664063 211.730469 161.445313 211.949219 C 161.226563 212.160156 161.035156 212.398438 160.867188 212.667969 L 160.445313 211.871094 C 160.675781 211.589844 160.90625 211.351563 161.132813 211.152344 C 161.363281 210.945313 161.609375 210.773438 161.867188 210.636719 C 162.554688 210.261719 163.171875 210.183594 163.726563 210.402344 C 164.289063 210.613281 164.78125 211.121094 165.210938 211.933594 Z M 169.171875 207.171875 L 169.609375 207.984375 C 169.296875 207.964844 169.007813 207.980469 168.75 208.03125 C 168.5 208.074219 168.257813 208.15625 168.03125 208.28125 C 167.523438 208.5625 167.226563 208.960938 167.140625 209.46875 C 167.046875 209.96875 167.179688 210.546875 167.53125 211.203125 C 167.875 211.839844 168.28125 212.265625 168.75 212.484375 C 169.21875 212.695313 169.707031 212.65625 170.21875 212.375 C 170.445313 212.25 170.65625 212.101563 170.84375 211.921875 C 171.03125 211.746094 171.203125 211.527344 171.359375 211.265625 L 171.78125 212.0625 C 171.613281 212.304688 171.425781 212.515625 171.21875 212.703125 C 171.019531 212.882813 170.796875 213.039063 170.546875 213.171875 C 169.816406 213.558594 169.101563 213.617188 168.40625 213.34375 C 167.71875 213.074219 167.152344 212.511719 166.703125 211.65625 C 166.234375 210.792969 166.085938 209.996094 166.25 209.265625 C 166.40625 208.539063 166.855469 207.976563 167.59375 207.578125 C 167.832031 207.445313 168.082031 207.34375 168.34375 207.28125 C 168.613281 207.210938 168.890625 207.171875 169.171875 207.171875 Z M 169.5 204.140625 L 170.3125 203.75 L 172.40625 208.21875 L 173.703125 204.75 L 174.734375 204.265625 L 173.328125 208.015625 L 177.390625 209.65625 L 176.34375 210.140625 L 172.609375 208.65625 L 173.859375 211.3125 L 173.046875 211.703125 Z M 178.078125 201.285156 L 179.03125 201.050781 L 182.171875 207.253906 L 181.984375 200.300781 L 183.046875 200.035156 L 186.1875 206.238281 L 185.984375 199.300781 L 186.953125 199.050781 L 187.140625 207.285156 L 185.953125 207.582031 L 182.78125 201.191406 L 182.984375 208.332031 L 181.796875 208.628906 Z M 190.847656 200.859375 C 190.386719 200.976563 190.070313 201.273438 189.894531 201.75 C 189.726563 202.21875 189.730469 202.804688 189.910156 203.5 C 190.085938 204.199219 190.355469 204.714844 190.722656 205.046875 C 191.097656 205.371094 191.511719 205.476563 191.972656 205.359375 C 192.441406 205.246094 192.757813 204.960938 192.925781 204.5 C 193.089844 204.03125 193.085938 203.449219 192.910156 202.75 C 192.730469 202.054688 192.460938 201.539063 192.097656 201.203125 C 191.730469 200.859375 191.316406 200.746094 190.847656 200.859375 Z M 190.644531 200.0625 C 191.394531 199.875 192.050781 200 192.613281 200.4375 C 193.175781 200.867188 193.574219 201.558594 193.816406 202.515625 C 194.054688 203.464844 194.027344 204.265625 193.738281 204.921875 C 193.445313 205.578125 192.925781 206 192.175781 206.1875 C 191.414063 206.375 190.753906 206.25 190.191406 205.8125 C 189.636719 205.367188 189.242188 204.667969 189.003906 203.71875 C 188.765625 202.761719 188.792969 201.960938 189.082031 201.3125 C 189.363281 200.667969 189.882813 200.25 190.644531 200.0625 Z M 196.710938 199.386719 C 196.25 199.503906 195.933594 199.800781 195.757813 200.277344 C 195.589844 200.746094 195.59375 201.332031 195.773438 202.027344 C 195.949219 202.726563 196.21875 203.242188 196.585938 203.574219 C 196.960938 203.898438 197.375 204.003906 197.835938 203.886719 C 198.304688 203.773438 198.621094 203.488281 198.789063 203.027344 C 198.953125 202.558594 198.949219 201.976563 198.773438 201.277344 C 198.59375 200.582031 198.324219 200.066406 197.960938 199.730469 C 197.59375 199.386719 197.179688 199.273438 196.710938 199.386719 Z M 196.507813 198.589844 C 197.257813 198.402344 197.914063 198.527344 198.476563 198.964844 C 199.039063 199.394531 199.4375 200.085938 199.679688 201.042969 C 199.917969 201.992188 199.890625 202.792969 199.601563 203.449219 C 199.308594 204.105469 198.789063 204.527344 198.039063 204.714844 C 197.277344 204.902344 196.617188 204.777344 196.054688 204.339844 C 195.5 203.894531 195.105469 203.195313 194.867188 202.246094 C 194.628906 201.289063 194.65625 200.488281 194.945313 199.839844 C 195.226563 199.195313 195.746094 198.777344 196.507813 198.589844 Z M 204.046875 197.773438 L 203.265625 194.617188 L 204.140625 194.398438 L 206.171875 202.507813 L 205.296875 202.726563 L 205.078125 201.851563 C 204.984375 202.25 204.816406 202.566406 204.578125 202.804688 C 204.347656 203.046875 204.039063 203.210938 203.65625 203.304688 C 203.019531 203.460938 202.429688 203.3125 201.890625 202.851563 C 201.347656 202.382813 200.960938 201.691406 200.734375 200.773438 C 200.507813 199.859375 200.523438 199.070313 200.78125 198.414063 C 201.039063 197.75 201.488281 197.335938 202.125 197.179688 C 202.507813 197.085938 202.859375 197.085938 203.171875 197.179688 C 203.492188 197.273438 203.785156 197.472656 204.046875 197.773438 Z M 201.625 200.554688 C 201.800781 201.265625 202.070313 201.785156 202.4375 202.117188 C 202.800781 202.453125 203.207031 202.5625 203.65625 202.445313 C 204.125 202.332031 204.4375 202.046875 204.59375 201.585938 C 204.75 201.117188 204.738281 200.53125 204.5625 199.820313 C 204.382813 199.113281 204.113281 198.59375 203.75 198.257813 C 203.394531 197.925781 202.984375 197.816406 202.515625 197.929688 C 202.066406 198.046875 201.757813 198.335938 201.59375 198.804688 C 201.4375 199.265625 201.445313 199.847656 201.625 200.554688 Z M 213.402344 196.769531 C 213.628906 196.8125 213.871094 196.933594 214.121094 197.128906 C 214.371094 197.328125 214.65625 197.621094 214.980469 198.003906 L 216.480469 199.894531 L 215.464844 200.144531 L 214.058594 198.378906 C 213.703125 197.921875 213.390625 197.636719 213.121094 197.519531 C 212.859375 197.40625 212.542969 197.394531 212.167969 197.488281 L 211.136719 197.753906 L 211.980469 201.035156 L 211.027344 201.285156 L 209.042969 193.519531 L 211.183594 192.972656 C 211.984375 192.765625 212.625 192.796875 213.105469 193.066406 C 213.59375 193.339844 213.9375 193.847656 214.136719 194.597656 C 214.261719 195.089844 214.261719 195.519531 214.136719 195.894531 C 214.011719 196.269531 213.765625 196.5625 213.402344 196.769531 Z M 210.214844 194.128906 L 210.917969 196.894531 L 212.105469 196.597656 C 212.5625 196.472656 212.878906 196.265625 213.058594 195.972656 C 213.234375 195.683594 213.265625 195.308594 213.152344 194.847656 C 213.035156 194.402344 212.828125 194.089844 212.527344 193.910156 C 212.234375 193.734375 211.859375 193.707031 211.402344 193.832031 Z M 218.367188 193.890625 C 217.898438 194.015625 217.578125 194.3125 217.414063 194.78125 C 217.257813 195.25 217.265625 195.835938 217.445313 196.53125 C 217.632813 197.230469 217.90625 197.746094 218.273438 198.078125 C 218.648438 198.402344 219.070313 198.5 219.539063 198.375 C 219.996094 198.25 220.304688 197.960938 220.460938 197.5 C 220.625 197.03125 220.617188 196.449219 220.429688 195.75 C 220.25 195.054688 219.976563 194.539063 219.601563 194.203125 C 219.234375 193.871094 218.824219 193.765625 218.367188 193.890625 Z M 218.148438 193.09375 C 218.886719 192.898438 219.542969 193.011719 220.117188 193.4375 C 220.6875 193.867188 221.101563 194.558594 221.351563 195.515625 C 221.601563 196.464844 221.578125 197.265625 221.289063 197.921875 C 221.007813 198.578125 220.496094 199.007813 219.757813 199.203125 C 218.996094 199.402344 218.328125 199.28125 217.757813 198.84375 C 217.195313 198.40625 216.789063 197.714844 216.539063 196.765625 C 216.289063 195.808594 216.304688 195.007813 216.585938 194.359375 C 216.867188 193.714844 217.386719 193.292969 218.148438 193.09375 Z M 225.140625 194.488281 C 224.441406 194.675781 223.984375 194.894531 223.765625 195.144531 C 223.546875 195.394531 223.492188 195.734375 223.609375 196.160156 C 223.691406 196.496094 223.859375 196.734375 224.109375 196.878906 C 224.367188 197.027344 224.671875 197.050781 225.015625 196.957031 C 225.492188 196.832031 225.828125 196.546875 226.015625 196.097656 C 226.203125 195.652344 226.21875 195.121094 226.0625 194.503906 L 226 194.269531 Z M 226.75 193.644531 L 227.625 196.972656 L 226.765625 197.207031 L 226.53125 196.332031 C 226.425781 196.738281 226.25 197.0625 226 197.300781 C 225.757813 197.542969 225.425781 197.71875 225 197.832031 C 224.46875 197.96875 224 197.910156 223.59375 197.660156 C 223.1875 197.410156 222.910156 197.003906 222.765625 196.441406 C 222.589844 195.785156 222.648438 195.246094 222.953125 194.816406 C 223.265625 194.378906 223.816406 194.058594 224.609375 193.847656 L 225.8125 193.535156 L 225.78125 193.441406 C 225.664063 193.003906 225.445313 192.699219 225.125 192.519531 C 224.800781 192.34375 224.398438 192.316406 223.921875 192.441406 C 223.628906 192.515625 223.347656 192.636719 223.078125 192.800781 C 222.816406 192.957031 222.578125 193.144531 222.359375 193.363281 L 222.125 192.488281 C 222.417969 192.261719 222.695313 192.078125 222.96875 191.941406 C 223.238281 191.796875 223.515625 191.6875 223.796875 191.613281 C 224.554688 191.417969 225.179688 191.484375 225.671875 191.816406 C 226.160156 192.152344 226.519531 192.761719 226.75 193.644531 Z M 231.550781 190.671875 L 230.738281 187.515625 L 231.597656 187.296875 L 233.707031 195.390625 L 232.847656 195.609375 L 232.613281 194.734375 C 232.519531 195.140625 232.355469 195.464844 232.128906 195.703125 C 231.898438 195.945313 231.589844 196.109375 231.207031 196.203125 C 230.570313 196.371094 229.976563 196.226563 229.425781 195.765625 C 228.882813 195.308594 228.492188 194.621094 228.253906 193.703125 C 228.015625 192.789063 228.019531 192 228.269531 191.34375 C 228.519531 190.679688 228.960938 190.261719 229.597656 190.09375 C 229.980469 190 230.335938 190 230.660156 190.09375 C 230.980469 190.1875 231.277344 190.382813 231.550781 190.671875 Z M 229.144531 193.46875 C 229.332031 194.179688 229.601563 194.699219 229.957031 195.03125 C 230.320313 195.355469 230.730469 195.460938 231.191406 195.34375 C 231.648438 195.21875 231.957031 194.929688 232.113281 194.46875 C 232.277344 194 232.269531 193.414063 232.082031 192.703125 C 231.902344 192.007813 231.628906 191.492188 231.253906 191.15625 C 230.886719 190.824219 230.476563 190.71875 230.019531 190.84375 C 229.558594 190.960938 229.253906 191.25 229.097656 191.71875 C 228.949219 192.1875 228.964844 192.773438 229.144531 193.46875 Z M 229.144531 193.46875 "/>
</g>
</svg>

