<?xml version="1.0" encoding="UTF-8"?>
<svg xmlns="http://www.w3.org/2000/svg" xmlns:xlink="http://www.w3.org/1999/xlink" width="256pt" height="256pt" viewBox="0 0 256 256" version="1.1">
<g id="surface2">
<rect x="0" y="0" width="256" height="256" style="fill:rgb(60%,70.196078%,80%);fill-opacity:1;stroke:none;"/>
<path style="fill:none;stroke-width:1;stroke-linecap:round;stroke-linejoin:round;stroke:rgb(70.196078%,77.647059%,83.137255%);stroke-opacity:1;stroke-miterlimit:10;" d="M -4 259 L 259 259 L 259 -4 L -4 -4 L -4 259 "/>
<path style="fill:none;stroke-width:6;stroke-linecap:round;stroke-linejoin:round;stroke:rgb(60%,70.196078%,80%);stroke-opacity:1;stroke-miterlimit:10;" d="M 46.167969 -7 L 194.605469 262 "/>
<path style="fill:none;stroke-width:3;stroke-linecap:round;stroke-linejoin:round;stroke:rgb(100%,100%,100%);stroke-opacity:1;stroke-miterlimit:10;" d="M 106.078125 91.980469 L 106.625 92.980469 L 103.21875 94.855469 L 105.25 98.527344 L 108.65625 96.652344 L 109.21875 97.667969 L 100.921875 102.246094 L 100.359375 101.230469 L 104.3125 99.042969 L 102.28125 95.371094 L 98.328125 97.558594 L 97.78125 96.558594 Z M 104.421875 102.761719 L 108.171875 100.683594 L 108.671875 101.605469 L 104.9375 103.667969 C 104.351563 103.988281 103.96875 104.332031 103.78125 104.699219 C 103.601563 105.0625 103.628906 105.449219 103.859375 105.855469 C 104.128906 106.363281 104.519531 106.667969 105.03125 106.761719 C 105.550781 106.855469 106.113281 106.734375 106.71875 106.402344 L 110.25 104.449219 L 110.765625 105.371094 L 104.546875 108.808594 L 104.03125 107.886719 L 104.984375 107.355469 C 104.484375 107.34375 104.054688 107.238281 103.703125 107.042969 C 103.359375 106.855469 103.078125 106.5625 102.859375 106.167969 C 102.503906 105.53125 102.457031 104.921875 102.71875 104.339844 C 102.988281 103.753906 103.554688 103.230469 104.421875 102.761719 Z M 109.609375 102.917969 Z M 112.898438 111.492188 L 116.257813 109.632813 L 116.773438 110.539063 L 108.132813 115.304688 L 107.617188 114.398438 L 108.554688 113.882813 C 108.085938 113.882813 107.671875 113.78125 107.320313 113.585938 C 106.976563 113.398438 106.6875 113.101563 106.460938 112.695313 C 106.085938 112.007813 106.078125 111.28125 106.445313 110.523438 C 106.820313 109.773438 107.496094 109.128906 108.476563 108.585938 C 109.445313 108.054688 110.34375 107.835938 111.179688 107.929688 C 112.023438 108.015625 112.632813 108.398438 113.007813 109.085938 C 113.234375 109.492188 113.339844 109.890625 113.320313 110.289063 C 113.308594 110.683594 113.167969 111.085938 112.898438 111.492188 Z M 109.007813 109.539063 C 108.257813 109.953125 107.742188 110.417969 107.460938 110.929688 C 107.1875 111.449219 107.1875 111.949219 107.460938 112.429688 C 107.730469 112.917969 108.152344 113.183594 108.726563 113.226563 C 109.308594 113.277344 109.976563 113.09375 110.726563 112.679688 C 111.476563 112.261719 111.984375 111.792969 112.257813 111.273438 C 112.539063 110.761719 112.542969 110.261719 112.273438 109.773438 C 112 109.296875 111.574219 109.035156 110.992188 108.992188 C 110.417969 108.941406 109.757813 109.125 109.007813 109.539063 Z M 117.1875 117.445313 L 116.21875 117.992188 C 116.21875 117.636719 116.175781 117.296875 116.09375 116.976563 C 116.019531 116.664063 115.898438 116.355469 115.734375 116.054688 C 115.484375 115.597656 115.210938 115.300781 114.921875 115.164063 C 114.640625 115.019531 114.34375 115.03125 114.03125 115.195313 C 113.800781 115.332031 113.664063 115.519531 113.625 115.757813 C 113.582031 116 113.632813 116.390625 113.78125 116.945313 L 113.875 117.289063 C 114.082031 118.046875 114.117188 118.640625 113.984375 119.070313 C 113.847656 119.496094 113.53125 119.84375 113.03125 120.117188 C 112.445313 120.4375 111.867188 120.484375 111.296875 120.257813 C 110.734375 120.039063 110.253906 119.570313 109.859375 118.851563 C 109.691406 118.558594 109.550781 118.230469 109.4375 117.867188 C 109.332031 117.5 109.25 117.105469 109.1875 116.679688 L 110.234375 116.101563 C 110.222656 116.539063 110.257813 116.945313 110.34375 117.320313 C 110.425781 117.703125 110.5625 118.0625 110.75 118.398438 C 110.988281 118.824219 111.25 119.109375 111.53125 119.257813 C 111.820313 119.402344 112.117188 119.390625 112.421875 119.226563 C 112.691406 119.078125 112.851563 118.875 112.90625 118.617188 C 112.96875 118.367188 112.910156 117.917969 112.734375 117.273438 L 112.65625 116.914063 C 112.476563 116.265625 112.453125 115.742188 112.578125 115.335938 C 112.710938 114.929688 113.023438 114.597656 113.515625 114.335938 C 114.097656 114.015625 114.648438 113.953125 115.171875 114.148438 C 115.703125 114.347656 116.15625 114.789063 116.53125 115.476563 C 116.71875 115.8125 116.863281 116.144531 116.96875 116.476563 C 117.082031 116.808594 117.15625 117.132813 117.1875 117.445313 Z M 118.835938 121.65625 C 118.5625 121.167969 118.132813 120.902344 117.539063 120.859375 C 116.953125 120.808594 116.289063 120.984375 115.539063 121.390625 C 114.789063 121.804688 114.28125 122.273438 114.023438 122.796875 C 113.761719 123.316406 113.765625 123.820313 114.039063 124.3125 C 114.308594 124.8125 114.734375 125.082031 115.320313 125.125 C 115.902344 125.175781 116.5625 125 117.304688 124.59375 C 118.042969 124.1875 118.546875 123.71875 118.820313 123.1875 C 119.101563 122.664063 119.105469 122.15625 118.835938 121.65625 Z M 119.695313 121.1875 C 120.132813 122 120.183594 122.789063 119.851563 123.5625 C 119.527344 124.332031 118.855469 125 117.835938 125.5625 C 116.8125 126.125 115.886719 126.335938 115.054688 126.203125 C 114.21875 126.078125 113.585938 125.609375 113.148438 124.796875 C 112.699219 123.992188 112.640625 123.203125 112.976563 122.421875 C 113.308594 121.648438 113.984375 120.984375 115.007813 120.421875 C 116.027344 119.859375 116.949219 119.648438 117.773438 119.78125 C 118.605469 119.917969 119.246094 120.386719 119.695313 121.1875 Z M 121.917969 131.390625 L 118.152344 133.46875 L 117.636719 132.546875 L 121.355469 130.5 C 121.949219 130.164063 122.332031 129.8125 122.511719 129.4375 C 122.6875 129.070313 122.660156 128.6875 122.433594 128.28125 C 122.160156 127.78125 121.769531 127.484375 121.261719 127.390625 C 120.761719 127.296875 120.203125 127.421875 119.589844 127.765625 L 116.074219 129.703125 L 115.558594 128.78125 L 121.777344 125.34375 L 122.292969 126.265625 L 121.324219 126.796875 C 121.8125 126.820313 122.234375 126.929688 122.589844 127.125 C 122.941406 127.3125 123.222656 127.605469 123.433594 128 C 123.785156 128.632813 123.832031 129.238281 123.574219 129.8125 C 123.324219 130.394531 122.769531 130.921875 121.917969 131.390625 Z M 126.816406 140.003906 C 126.855469 140.261719 126.800781 140.566406 126.644531 140.910156 C 126.496094 141.261719 126.246094 141.675781 125.894531 142.144531 L 124.191406 144.425781 L 123.582031 143.332031 L 125.207031 141.207031 C 125.621094 140.652344 125.851563 140.210938 125.894531 139.878906 C 125.945313 139.542969 125.863281 139.179688 125.644531 138.785156 L 125.035156 137.675781 L 121.535156 139.613281 L 120.988281 138.613281 L 129.285156 134.035156 L 130.535156 136.300781 C 131.003906 137.15625 131.152344 137.898438 130.988281 138.535156 C 130.832031 139.179688 130.351563 139.722656 129.550781 140.160156 C 129.027344 140.449219 128.535156 140.582031 128.066406 140.550781 C 127.605469 140.527344 127.191406 140.347656 126.816406 140.003906 Z M 128.910156 135.550781 L 125.972656 137.160156 L 126.675781 138.425781 C 126.945313 138.914063 127.273438 139.214844 127.660156 139.332031 C 128.042969 139.445313 128.476563 139.367188 128.957031 139.097656 C 129.445313 138.835938 129.742188 138.511719 129.847656 138.128906 C 129.960938 137.742188 129.882813 137.308594 129.613281 136.816406 Z M 131.101563 142.242188 L 131.617188 143.164063 L 125.398438 146.601563 L 124.882813 145.679688 Z M 133.523438 140.914063 L 134.039063 141.835938 L 132.742188 142.554688 L 132.226563 141.632813 Z M 132.3125 144.414063 L 132.84375 145.382813 L 128.59375 150.023438 L 134.78125 148.898438 L 135.3125 149.882813 L 127.9375 151.210938 L 127.25 149.960938 Z M 135.796875 157.523438 L 135.3125 157.804688 L 132.984375 153.554688 C 132.296875 153.992188 131.863281 154.480469 131.6875 155.023438 C 131.507813 155.5625 131.59375 156.140625 131.9375 156.757813 C 132.125 157.109375 132.351563 157.421875 132.625 157.695313 C 132.90625 157.976563 133.234375 158.230469 133.609375 158.460938 L 132.640625 158.992188 C 132.296875 158.742188 131.988281 158.464844 131.71875 158.164063 C 131.445313 157.871094 131.210938 157.542969 131.015625 157.179688 C 130.515625 156.292969 130.410156 155.421875 130.703125 154.570313 C 131.003906 153.726563 131.644531 153.035156 132.625 152.492188 C 133.644531 151.929688 134.585938 151.734375 135.453125 151.898438 C 136.328125 152.066406 137 152.570313 137.46875 153.414063 C 137.882813 154.171875 137.941406 154.917969 137.640625 155.648438 C 137.347656 156.386719 136.734375 157.011719 135.796875 157.523438 Z M 135.609375 156.429688 C 136.160156 156.117188 136.53125 155.730469 136.71875 155.273438 C 136.90625 154.8125 136.867188 154.355469 136.609375 153.898438 C 136.328125 153.378906 135.9375 153.054688 135.4375 152.929688 C 134.945313 152.804688 134.398438 152.882813 133.796875 153.164063 Z M 140.339844 161.234375 C 140.339844 161.097656 140.316406 160.957031 140.277344 160.8125 C 140.246094 160.664063 140.191406 160.519531 140.121094 160.375 C 139.828125 159.855469 139.421875 159.5625 138.902344 159.5 C 138.378906 159.429688 137.765625 159.585938 137.058594 159.96875 L 133.777344 161.78125 L 133.261719 160.859375 L 139.480469 157.421875 L 139.996094 158.34375 L 139.027344 158.875 C 139.515625 158.855469 139.9375 158.953125 140.292969 159.171875 C 140.644531 159.382813 140.941406 159.703125 141.183594 160.140625 C 141.214844 160.203125 141.246094 160.273438 141.277344 160.359375 C 141.308594 160.441406 141.34375 160.539063 141.386719 160.65625 Z M 140.339844 161.234375 "/>
<path style=" stroke:none;fill-rule:evenodd;fill:rgb(41.960784%,58.039216%,69.019608%);fill-opacity:1;" d="M 106.078125 91.980469 L 106.625 92.980469 L 103.21875 94.855469 L 105.25 98.527344 L 108.65625 96.652344 L 109.21875 97.667969 L 100.921875 102.246094 L 100.359375 101.230469 L 104.3125 99.042969 L 102.28125 95.371094 L 98.328125 97.558594 L 97.78125 96.558594 Z M 104.421875 102.761719 L 108.171875 100.683594 L 108.671875 101.605469 L 104.9375 103.667969 C 104.351563 103.988281 103.96875 104.332031 103.78125 104.699219 C 103.601563 105.0625 103.628906 105.449219 103.859375 105.855469 C 104.128906 106.363281 104.519531 106.667969 105.03125 106.761719 C 105.550781 106.855469 106.113281 106.734375 106.71875 106.402344 L 110.25 104.449219 L 110.765625 105.371094 L 104.546875 108.808594 L 104.03125 107.886719 L 104.984375 107.355469 C 104.484375 107.34375 104.054688 107.238281 103.703125 107.042969 C 103.359375 106.855469 103.078125 106.5625 102.859375 106.167969 C 102.503906 105.53125 102.457031 104.921875 102.71875 104.339844 C 102.988281 103.753906 103.554688 103.230469 104.421875 102.761719 Z M 109.609375 102.917969 Z M 112.898438 111.492188 L 116.257813 109.632813 L 116.773438 110.539063 L 108.132813 115.304688 L 107.617188 114.398438 L 108.554688 113.882813 C 108.085938 113.882813 107.671875 113.78125 107.320313 113.585938 C 106.976563 113.398438 106.6875 113.101563 106.460938 112.695313 C 106.085938 112.007813 106.078125 111.28125 106.445313 110.523438 C 106.820313 109.773438 107.496094 109.128906 108.476563 108.585938 C 109.445313 108.054688 110.34375 107.835938 111.179688 107.929688 C 112.023438 108.015625 112.632813 108.398438 113.007813 109.085938 C 113.234375 109.492188 113.339844 109.890625 113.320313 110.289063 C 113.308594 110.683594 113.167969 111.085938 112.898438 111.492188 Z M 109.007813 109.539063 C 108.257813 109.953125 107.742188 110.417969 107.460938 110.929688 C 107.1875 111.449219 107.1875 111.949219 107.460938 112.429688 C 107.730469 112.917969 108.152344 113.183594 108.726563 113.226563 C 109.308594 113.277344 109.976563 113.09375 110.726563 112.679688 C 111.476563 112.261719 111.984375 111.792969 112.257813 111.273438 C 112.539063 110.761719 112.542969 110.261719 112.273438 109.773438 C 112 109.296875 111.574219 109.035156 110.992188 108.992188 C 110.417969 108.941406 109.757813 109.125 109.007813 109.539063 Z M 117.1875 117.445313 L 116.21875 117.992188 C 116.21875 117.636719 116.175781 117.296875 116.09375 116.976563 C 116.019531 116.664063 115.898438 116.355469 115.734375 116.054688 C 115.484375 115.597656 115.210938 115.300781 114.921875 115.164063 C 114.640625 115.019531 114.34375 115.03125 114.03125 115.195313 C 113.800781 115.332031 113.664063 115.519531 113.625 115.757813 C 113.582031 116 113.632813 116.390625 113.78125 116.945313 L 113.875 117.289063 C 114.082031 118.046875 114.117188 118.640625 113.984375 119.070313 C 113.847656 119.496094 113.53125 119.84375 113.03125 120.117188 C 112.445313 120.4375 111.867188 120.484375 111.296875 120.257813 C 110.734375 120.039063 110.253906 119.570313 109.859375 118.851563 C 109.691406 118.558594 109.550781 118.230469 109.4375 117.867188 C 109.332031 117.5 109.25 117.105469 109.1875 116.679688 L 110.234375 116.101563 C 110.222656 116.539063 110.257813 116.945313 110.34375 117.320313 C 110.425781 117.703125 110.5625 118.0625 110.75 118.398438 C 110.988281 118.824219 111.25 119.109375 111.53125 119.257813 C 111.820313 119.402344 112.117188 119.390625 112.421875 119.226563 C 112.691406 119.078125 112.851563 118.875 112.90625 118.617188 C 112.96875 118.367188 112.910156 117.917969 112.734375 117.273438 L 112.65625 116.914063 C 112.476563 116.265625 112.453125 115.742188 112.578125 115.335938 C 112.710938 114.929688 113.023438 114.597656 113.515625 114.335938 C 114.097656 114.015625 114.648438 113.953125 115.171875 114.148438 C 115.703125 114.347656 116.15625 114.789063 116.53125 115.476563 C 116.71875 115.8125 116.863281 116.144531 116.96875 116.476563 C 117.082031 116.808594 117.15625 117.132813 117.1875 117.445313 Z M 118.835938 121.65625 C 118.5625 121.167969 118.132813 120.902344 117.539063 120.859375 C 116.953125 120.808594 116.289063 120.984375 115.539063 121.390625 C 114.789063 121.804688 114.28125 122.273438 114.023438 122.796875 C 113.761719 123.316406 113.765625 123.820313 114.039063 124.3125 C 114.308594 124.8125 114.734375 125.082031 115.320313 125.125 C 115.902344 125.175781 116.5625 125 117.304688 124.59375 C 118.042969 124.1875 118.546875 123.71875 118.820313 123.1875 C 119.101563 122.664063 119.105469 122.15625 118.835938 121.65625 Z M 119.695313 121.1875 C 120.132813 122 120.183594 122.789063 119.851563 123.5625 C 119.527344 124.332031 118.855469 125 117.835938 125.5625 C 116.8125 126.125 115.886719 126.335938 115.054688 126.203125 C 114.21875 126.078125 113.585938 125.609375 113.148438 124.796875 C 112.699219 123.992188 112.640625 123.203125 112.976563 122.421875 C 113.308594 121.648438 113.984375 120.984375 115.007813 120.421875 C 116.027344 119.859375 116.949219 119.648438 117.773438 119.78125 C 118.605469 119.917969 119.246094 120.386719 119.695313 121.1875 Z M 121.917969 131.390625 L 118.152344 133.46875 L 117.636719 132.546875 L 121.355469 130.5 C 121.949219 130.164063 122.332031 129.8125 122.511719 129.4375 C 122.6875 129.070313 122.660156 128.6875 122.433594 128.28125 C 122.160156 127.78125 121.769531 127.484375 121.261719 127.390625 C 120.761719 127.296875 120.203125 127.421875 119.589844 127.765625 L 116.074219 129.703125 L 115.558594 128.78125 L 121.777344 125.34375 L 122.292969 126.265625 L 121.324219 126.796875 C 121.8125 126.820313 122.234375 126.929688 122.589844 127.125 C 122.941406 127.3125 123.222656 127.605469 123.433594 128 C 123.785156 128.632813 123.832031 129.238281 123.574219 129.8125 C 123.324219 130.394531 122.769531 130.921875 121.917969 131.390625 Z M 126.816406 140.003906 C 126.855469 140.261719 126.800781 140.566406 126.644531 140.910156 C 126.496094 141.261719 126.246094 141.675781 125.894531 142.144531 L 124.191406 144.425781 L 123.582031 143.332031 L 125.207031 141.207031 C 125.621094 140.652344 125.851563 140.210938 125.894531 139.878906 C 125.945313 139.542969 125.863281 139.179688 125.644531 138.785156 L 125.035156 137.675781 L 121.535156 139.613281 L 120.988281 138.613281 L 129.285156 134.035156 L 130.535156 136.300781 C 131.003906 137.15625 131.152344 137.898438 130.988281 138.535156 C 130.832031 139.179688 130.351563 139.722656 129.550781 140.160156 C 129.027344 140.449219 128.535156 140.582031 128.066406 140.550781 C 127.605469 140.527344 127.191406 140.347656 126.816406 140.003906 Z M 128.910156 135.550781 L 125.972656 137.160156 L 126.675781 138.425781 C 126.945313 138.914063 127.273438 139.214844 127.660156 139.332031 C 128.042969 139.445313 128.476563 139.367188 128.957031 139.097656 C 129.445313 138.835938 129.742188 138.511719 129.847656 138.128906 C 129.960938 137.742188 129.882813 137.308594 129.613281 136.816406 Z M 131.101563 142.242188 L 131.617188 143.164063 L 125.398438 146.601563 L 124.882813 145.679688 Z M 133.523438 140.914063 L 134.039063 141.835938 L 132.742188 142.554688 L 132.226563 141.632813 Z M 132.3125 144.414063 L 132.84375 145.382813 L 128.59375 150.023438 L 134.78125 148.898438 L 135.3125 149.882813 L 127.9375 151.210938 L 127.25 149.960938 Z M 135.796875 157.523438 L 135.3125 157.804688 L 132.984375 153.554688 C 132.296875 153.992188 131.863281 154.480469 131.6875 155.023438 C 131.507813 155.5625 131.59375 156.140625 131.9375 156.757813 C 132.125 157.109375 132.351563 157.421875 132.625 157.695313 C 132.90625 157.976563 133.234375 158.230469 133.609375 158.460938 L 132.640625 158.992188 C 132.296875 158.742188 131.988281 158.464844 131.71875 158.164063 C 131.445313 157.871094 131.210938 157.542969 131.015625 157.179688 C 130.515625 156.292969 130.410156 155.421875 130.703125 154.570313 C 131.003906 153.726563 131.644531 153.035156 132.625 152.492188 C 133.644531 151.929688 134.585938 151.734375 135.453125 151.898438 C 136.328125 152.066406 137 152.570313 137.46875 153.414063 C 137.882813 154.171875 137.941406 154.917969 137.640625 155.648438 C 137.347656 156.386719 136.734375 157.011719 135.796875 157.523438 Z M 135.609375 156.429688 C 136.160156 156.117188 136.53125 155.730469 136.71875 155.273438 C 136.90625 154.8125 136.867188 154.355469 136.609375 153.898438 C 136.328125 153.378906 135.9375 153.054688 135.4375 152.929688 C 134.945313 152.804688 134.398438 152.882813 133.796875 153.164063 Z M 140.339844 161.234375 C 140.339844 161.097656 140.316406 160.957031 140.277344 160.8125 C 140.246094 160.664063 140.191406 160.519531 140.121094 160.375 C 139.828125 159.855469 139.421875 159.5625 138.902344 159.5 C 138.378906 159.429688 137.765625 159.585938 137.058594 159.96875 L 133.777344 161.78125 L 133.261719 160.859375 L 139.480469 157.421875 L 139.996094 158.34375 L 139.027344 158.875 C 139.515625 158.855469 139.9375 158.953125 140.292969 159.171875 C 140.644531 159.382813 140.941406 159.703125 141.183594 160.140625 C 141.214844 160.203125 141.246094 160.273438 141.277344 160.359375 C 141.308594 160.441406 141.34375 160.539063 141.386719 160.65625 Z M 140.339844 161.234375 "/>
</g>
</svg>

