<?xml version="1.0" encoding="UTF-8"?>
<svg xmlns="http://www.w3.org/2000/svg" xmlns:xlink="http://www.w3.org/1999/xlink" width="256pt" height="256pt" viewBox="0 0 256 256" version="1.1">
<g id="surface2">
<rect x="0" y="0" width="256" height="256" style="fill:rgb(60%,70.196078%,80%);fill-opacity:1;stroke:none;"/>
<path style="fill:none;stroke-width:1;stroke-linecap:round;stroke-linejoin:round;stroke:rgb(70.196078%,77.647059%,83.137255%);stroke-opacity:1;stroke-miterlimit:10;" d="M -4 259 L 259 259 L 259 -4 L -4 -4 L -4 259 "/>
<path style="fill:none;stroke-width:6;stroke-linecap:round;stroke-linejoin:round;stroke:rgb(60%,70.196078%,80%);stroke-opacity:1;stroke-miterlimit:10;" d="M 148.382813 -7 L 147.523438 262 "/>
<path style="fill:none;stroke-width:3;stroke-linecap:round;stroke-linejoin:round;stroke:rgb(100%,100%,100%);stroke-opacity:1;stroke-miterlimit:10;" d="M 143.1875 165.5 L 143.1875 164.359375 L 147.078125 164.375 L 147.09375 160.171875 L 143.203125 160.15625 L 143.21875 159 L 152.703125 159.03125 L 152.6875 160.1875 L 148.171875 160.171875 L 148.15625 164.375 L 152.671875 164.390625 L 152.671875 165.53125 Z M 149.886719 156.875 L 145.589844 156.875 L 145.589844 155.828125 L 149.855469 155.828125 C 150.523438 155.839844 151.027344 155.730469 151.371094 155.5 C 151.714844 155.261719 151.886719 154.90625 151.886719 154.4375 C 151.886719 153.867188 151.691406 153.417969 151.292969 153.09375 C 150.886719 152.761719 150.335938 152.589844 149.636719 152.578125 L 145.605469 152.578125 L 145.605469 151.515625 L 152.714844 151.53125 L 152.714844 152.59375 L 151.621094 152.59375 C 152.058594 152.84375 152.382813 153.140625 152.589844 153.484375 C 152.796875 153.820313 152.902344 154.210938 152.902344 154.65625 C 152.890625 155.386719 152.632813 155.945313 152.121094 156.328125 C 151.613281 156.703125 150.867188 156.886719 149.886719 156.875 Z M 145.433594 154.234375 Z M 146.707031 145.140625 L 142.863281 145.125 L 142.863281 144.078125 L 152.738281 144.109375 L 152.738281 145.15625 L 151.675781 145.15625 C 152.09375 145.375 152.40625 145.65625 152.613281 146 C 152.820313 146.335938 152.925781 146.734375 152.925781 147.203125 C 152.914063 147.984375 152.566406 148.621094 151.878906 149.109375 C 151.191406 149.589844 150.292969 149.824219 149.175781 149.8125 C 148.0625 149.8125 147.160156 149.574219 146.472656 149.09375 C 145.785156 148.605469 145.449219 147.96875 145.457031 147.1875 C 145.457031 146.71875 145.5625 146.320313 145.769531 145.984375 C 145.96875 145.640625 146.28125 145.359375 146.707031 145.140625 Z M 149.175781 148.71875 C 150.03125 148.730469 150.707031 148.578125 151.207031 148.265625 C 151.699219 147.945313 151.941406 147.507813 151.941406 146.953125 C 151.941406 146.390625 151.699219 145.953125 151.207031 145.640625 C 150.71875 145.320313 150.046875 145.152344 149.191406 145.140625 C 148.328125 145.140625 147.65625 145.304688 147.175781 145.625 C 146.6875 145.9375 146.441406 146.375 146.441406 146.9375 C 146.441406 147.492188 146.683594 147.929688 147.160156 148.25 C 147.640625 148.5625 148.3125 148.71875 149.175781 148.71875 Z M 145.855469 137.84375 L 146.964844 137.84375 C 146.800781 138.148438 146.675781 138.460938 146.589844 138.78125 C 146.507813 139.09375 146.464844 139.421875 146.464844 139.765625 C 146.464844 140.289063 146.554688 140.683594 146.730469 140.953125 C 146.898438 141.214844 147.160156 141.34375 147.511719 141.34375 C 147.785156 141.34375 147.996094 141.25 148.152344 141.0625 C 148.300781 140.867188 148.449219 140.484375 148.605469 139.921875 L 148.699219 139.578125 C 148.878906 138.828125 149.128906 138.296875 149.449219 137.984375 C 149.773438 137.671875 150.222656 137.523438 150.792969 137.53125 C 151.460938 137.53125 151.988281 137.765625 152.371094 138.234375 C 152.753906 138.703125 152.949219 139.351563 152.949219 140.171875 C 152.9375 140.507813 152.894531 140.859375 152.824219 141.234375 C 152.75 141.609375 152.636719 142 152.480469 142.40625 L 151.277344 142.40625 C 151.507813 142.023438 151.679688 141.640625 151.792969 141.265625 C 151.898438 140.890625 151.957031 140.515625 151.964844 140.140625 C 151.964844 139.652344 151.871094 139.277344 151.683594 139.015625 C 151.496094 138.746094 151.230469 138.609375 150.886719 138.609375 C 150.574219 138.609375 150.335938 138.703125 150.167969 138.890625 C 149.992188 139.078125 149.824219 139.496094 149.667969 140.140625 L 149.574219 140.5 C 149.410156 141.15625 149.167969 141.632813 148.855469 141.921875 C 148.542969 142.214844 148.113281 142.359375 147.558594 142.359375 C 146.894531 142.359375 146.378906 142.148438 146.011719 141.71875 C 145.648438 141.28125 145.472656 140.671875 145.480469 139.890625 C 145.480469 139.507813 145.511719 139.140625 145.574219 138.796875 C 145.636719 138.453125 145.730469 138.136719 145.855469 137.84375 Z M 146.484375 133.359375 C 146.484375 133.921875 146.730469 134.371094 147.21875 134.703125 C 147.699219 135.027344 148.367188 135.1875 149.21875 135.1875 C 150.074219 135.199219 150.746094 135.042969 151.234375 134.71875 C 151.726563 134.386719 151.96875 133.9375 151.96875 133.375 C 151.96875 132.8125 151.726563 132.371094 151.234375 132.046875 C 150.746094 131.714844 150.078125 131.542969 149.234375 131.53125 C 148.390625 131.53125 147.726563 131.699219 147.234375 132.03125 C 146.734375 132.355469 146.484375 132.796875 146.484375 133.359375 Z M 145.5 133.359375 C 145.5 132.445313 145.835938 131.726563 146.5 131.203125 C 147.15625 130.683594 148.070313 130.421875 149.234375 130.421875 C 150.402344 130.433594 151.320313 130.699219 151.984375 131.21875 C 152.640625 131.742188 152.96875 132.460938 152.96875 133.375 C 152.957031 134.292969 152.625 135.011719 151.96875 135.53125 C 151.304688 136.054688 150.386719 136.308594 149.21875 136.296875 C 148.054688 136.296875 147.140625 136.039063 146.484375 135.515625 C 145.820313 134.996094 145.492188 134.277344 145.5 133.359375 Z M 148.507813 123.359375 L 152.804688 123.375 L 152.804688 124.421875 L 148.554688 124.40625 C 147.878906 124.40625 147.375 124.527344 147.039063 124.765625 C 146.707031 125.007813 146.539063 125.359375 146.539063 125.828125 C 146.539063 126.390625 146.738281 126.839844 147.132813 127.171875 C 147.53125 127.496094 148.078125 127.65625 148.773438 127.65625 L 152.789063 127.671875 L 152.789063 128.734375 L 145.679688 128.71875 L 145.679688 127.65625 L 146.789063 127.65625 C 146.375 127.40625 146.0625 127.117188 145.851563 126.78125 C 145.632813 126.4375 145.523438 126.042969 145.523438 125.59375 C 145.523438 124.867188 145.78125 124.3125 146.289063 123.9375 C 146.789063 123.554688 147.53125 123.359375 148.507813 123.359375 Z M 148.402344 113.453125 C 148.496094 113.203125 148.695313 112.964844 148.996094 112.734375 C 149.300781 112.496094 149.714844 112.257813 150.246094 112.015625 L 152.855469 110.859375 L 152.839844 112.109375 L 150.402344 113.203125 C 149.769531 113.464844 149.351563 113.730469 149.152344 114 C 148.945313 114.261719 148.839844 114.621094 148.839844 115.078125 L 148.824219 116.34375 L 152.824219 116.359375 L 152.824219 117.5 L 143.339844 117.46875 L 143.355469 114.875 C 143.355469 113.898438 143.585938 113.167969 144.042969 112.6875 C 144.492188 112.210938 145.175781 111.976563 146.089844 111.984375 C 146.683594 111.984375 147.179688 112.109375 147.574219 112.359375 C 147.972656 112.609375 148.246094 112.976563 148.402344 113.453125 Z M 144.402344 116.328125 L 147.761719 116.34375 L 147.777344 114.890625 C 147.777344 114.328125 147.636719 113.90625 147.355469 113.625 C 147.066406 113.34375 146.644531 113.203125 146.089844 113.203125 C 145.539063 113.195313 145.121094 113.328125 144.839844 113.609375 C 144.558594 113.890625 144.417969 114.3125 144.417969 114.875 Z M 145.742188 109.40625 L 145.742188 108.359375 L 152.851563 108.375 L 152.851563 109.421875 Z M 142.976563 109.390625 L 142.976563 108.34375 L 144.460938 108.34375 L 144.460938 109.390625 Z M 145.75 106.921875 L 145.75 105.8125 L 151.734375 103.828125 L 145.765625 101.8125 L 145.765625 100.6875 L 152.875 103.109375 L 152.875 104.53125 Z M 149.054688 93.765625 L 149.617188 93.765625 L 149.601563 98.609375 C 150.414063 98.570313 151.035156 98.355469 151.460938 97.96875 C 151.878906 97.574219 152.085938 97.027344 152.085938 96.328125 C 152.085938 95.921875 152.035156 95.53125 151.929688 95.15625 C 151.816406 94.78125 151.648438 94.40625 151.429688 94.03125 L 152.539063 94.03125 C 152.71875 94.40625 152.851563 94.792969 152.945313 95.1875 C 153.039063 95.585938 153.085938 95.984375 153.085938 96.390625 C 153.074219 97.414063 152.742188 98.226563 152.085938 98.828125 C 151.421875 99.421875 150.523438 99.714844 149.398438 99.703125 C 148.234375 99.703125 147.3125 99.421875 146.632813 98.859375 C 145.945313 98.289063 145.609375 97.523438 145.617188 96.5625 C 145.617188 95.699219 145.925781 95.015625 146.539063 94.515625 C 147.15625 94.015625 147.992188 93.765625 149.054688 93.765625 Z M 148.710938 94.828125 C 148.078125 94.828125 147.566406 94.984375 147.179688 95.296875 C 146.796875 95.609375 146.601563 96.027344 146.601563 96.546875 C 146.601563 97.140625 146.785156 97.617188 147.148438 97.96875 C 147.515625 98.3125 148.03125 98.511719 148.695313 98.5625 Z M 146.90625 88.328125 C 146.835938 88.445313 146.78125 88.574219 146.75 88.71875 C 146.710938 88.855469 146.6875 89.007813 146.6875 89.171875 C 146.6875 89.765625 146.902344 90.226563 147.328125 90.546875 C 147.746094 90.859375 148.355469 91.015625 149.15625 91.015625 L 152.90625 91.03125 L 152.90625 92.09375 L 145.796875 92.078125 L 145.796875 91.015625 L 146.90625 91.015625 C 146.480469 90.796875 146.164063 90.511719 145.953125 90.15625 C 145.746094 89.804688 145.640625 89.375 145.640625 88.875 C 145.640625 88.804688 145.648438 88.726563 145.65625 88.640625 C 145.667969 88.546875 145.683594 88.445313 145.703125 88.328125 Z M 146.90625 88.328125 "/>
<path style=" stroke:none;fill-rule:evenodd;fill:rgb(41.960784%,58.039216%,69.019608%);fill-opacity:1;" d="M 143.1875 165.5 L 143.1875 164.359375 L 147.078125 164.375 L 147.09375 160.171875 L 143.203125 160.15625 L 143.21875 159 L 152.703125 159.03125 L 152.6875 160.1875 L 148.171875 160.171875 L 148.15625 164.375 L 152.671875 164.390625 L 152.671875 165.53125 Z M 149.886719 156.875 L 145.589844 156.875 L 145.589844 155.828125 L 149.855469 155.828125 C 150.523438 155.839844 151.027344 155.730469 151.371094 155.5 C 151.714844 155.261719 151.886719 154.90625 151.886719 154.4375 C 151.886719 153.867188 151.691406 153.417969 151.292969 153.09375 C 150.886719 152.761719 150.335938 152.589844 149.636719 152.578125 L 145.605469 152.578125 L 145.605469 151.515625 L 152.714844 151.53125 L 152.714844 152.59375 L 151.621094 152.59375 C 152.058594 152.84375 152.382813 153.140625 152.589844 153.484375 C 152.796875 153.820313 152.902344 154.210938 152.902344 154.65625 C 152.890625 155.386719 152.632813 155.945313 152.121094 156.328125 C 151.613281 156.703125 150.867188 156.886719 149.886719 156.875 Z M 145.433594 154.234375 Z M 146.707031 145.140625 L 142.863281 145.125 L 142.863281 144.078125 L 152.738281 144.109375 L 152.738281 145.15625 L 151.675781 145.15625 C 152.09375 145.375 152.40625 145.65625 152.613281 146 C 152.820313 146.335938 152.925781 146.734375 152.925781 147.203125 C 152.914063 147.984375 152.566406 148.621094 151.878906 149.109375 C 151.191406 149.589844 150.292969 149.824219 149.175781 149.8125 C 148.0625 149.8125 147.160156 149.574219 146.472656 149.09375 C 145.785156 148.605469 145.449219 147.96875 145.457031 147.1875 C 145.457031 146.71875 145.5625 146.320313 145.769531 145.984375 C 145.96875 145.640625 146.28125 145.359375 146.707031 145.140625 Z M 149.175781 148.71875 C 150.03125 148.730469 150.707031 148.578125 151.207031 148.265625 C 151.699219 147.945313 151.941406 147.507813 151.941406 146.953125 C 151.941406 146.390625 151.699219 145.953125 151.207031 145.640625 C 150.71875 145.320313 150.046875 145.152344 149.191406 145.140625 C 148.328125 145.140625 147.65625 145.304688 147.175781 145.625 C 146.6875 145.9375 146.441406 146.375 146.441406 146.9375 C 146.441406 147.492188 146.683594 147.929688 147.160156 148.25 C 147.640625 148.5625 148.3125 148.71875 149.175781 148.71875 Z M 145.855469 137.84375 L 146.964844 137.84375 C 146.800781 138.148438 146.675781 138.460938 146.589844 138.78125 C 146.507813 139.09375 146.464844 139.421875 146.464844 139.765625 C 146.464844 140.289063 146.554688 140.683594 146.730469 140.953125 C 146.898438 141.214844 147.160156 141.34375 147.511719 141.34375 C 147.785156 141.34375 147.996094 141.25 148.152344 141.0625 C 148.300781 140.867188 148.449219 140.484375 148.605469 139.921875 L 148.699219 139.578125 C 148.878906 138.828125 149.128906 138.296875 149.449219 137.984375 C 149.773438 137.671875 150.222656 137.523438 150.792969 137.53125 C 151.460938 137.53125 151.988281 137.765625 152.371094 138.234375 C 152.753906 138.703125 152.949219 139.351563 152.949219 140.171875 C 152.9375 140.507813 152.894531 140.859375 152.824219 141.234375 C 152.75 141.609375 152.636719 142 152.480469 142.40625 L 151.277344 142.40625 C 151.507813 142.023438 151.679688 141.640625 151.792969 141.265625 C 151.898438 140.890625 151.957031 140.515625 151.964844 140.140625 C 151.964844 139.652344 151.871094 139.277344 151.683594 139.015625 C 151.496094 138.746094 151.230469 138.609375 150.886719 138.609375 C 150.574219 138.609375 150.335938 138.703125 150.167969 138.890625 C 149.992188 139.078125 149.824219 139.496094 149.667969 140.140625 L 149.574219 140.5 C 149.410156 141.15625 149.167969 141.632813 148.855469 141.921875 C 148.542969 142.214844 148.113281 142.359375 147.558594 142.359375 C 146.894531 142.359375 146.378906 142.148438 146.011719 141.71875 C 145.648438 141.28125 145.472656 140.671875 145.480469 139.890625 C 145.480469 139.507813 145.511719 139.140625 145.574219 138.796875 C 145.636719 138.453125 145.730469 138.136719 145.855469 137.84375 Z M 146.484375 133.359375 C 146.484375 133.921875 146.730469 134.371094 147.21875 134.703125 C 147.699219 135.027344 148.367188 135.1875 149.21875 135.1875 C 150.074219 135.199219 150.746094 135.042969 151.234375 134.71875 C 151.726563 134.386719 151.96875 133.9375 151.96875 133.375 C 151.96875 132.8125 151.726563 132.371094 151.234375 132.046875 C 150.746094 131.714844 150.078125 131.542969 149.234375 131.53125 C 148.390625 131.53125 147.726563 131.699219 147.234375 132.03125 C 146.734375 132.355469 146.484375 132.796875 146.484375 133.359375 Z M 145.5 133.359375 C 145.5 132.445313 145.835938 131.726563 146.5 131.203125 C 147.15625 130.683594 148.070313 130.421875 149.234375 130.421875 C 150.402344 130.433594 151.320313 130.699219 151.984375 131.21875 C 152.640625 131.742188 152.96875 132.460938 152.96875 133.375 C 152.957031 134.292969 152.625 135.011719 151.96875 135.53125 C 151.304688 136.054688 150.386719 136.308594 149.21875 136.296875 C 148.054688 136.296875 147.140625 136.039063 146.484375 135.515625 C 145.820313 134.996094 145.492188 134.277344 145.5 133.359375 Z M 148.507813 123.359375 L 152.804688 123.375 L 152.804688 124.421875 L 148.554688 124.40625 C 147.878906 124.40625 147.375 124.527344 147.039063 124.765625 C 146.707031 125.007813 146.539063 125.359375 146.539063 125.828125 C 146.539063 126.390625 146.738281 126.839844 147.132813 127.171875 C 147.53125 127.496094 148.078125 127.65625 148.773438 127.65625 L 152.789063 127.671875 L 152.789063 128.734375 L 145.679688 128.71875 L 145.679688 127.65625 L 146.789063 127.65625 C 146.375 127.40625 146.0625 127.117188 145.851563 126.78125 C 145.632813 126.4375 145.523438 126.042969 145.523438 125.59375 C 145.523438 124.867188 145.78125 124.3125 146.289063 123.9375 C 146.789063 123.554688 147.53125 123.359375 148.507813 123.359375 Z M 148.402344 113.453125 C 148.496094 113.203125 148.695313 112.964844 148.996094 112.734375 C 149.300781 112.496094 149.714844 112.257813 150.246094 112.015625 L 152.855469 110.859375 L 152.839844 112.109375 L 150.402344 113.203125 C 149.769531 113.464844 149.351563 113.730469 149.152344 114 C 148.945313 114.261719 148.839844 114.621094 148.839844 115.078125 L 148.824219 116.34375 L 152.824219 116.359375 L 152.824219 117.5 L 143.339844 117.46875 L 143.355469 114.875 C 143.355469 113.898438 143.585938 113.167969 144.042969 112.6875 C 144.492188 112.210938 145.175781 111.976563 146.089844 111.984375 C 146.683594 111.984375 147.179688 112.109375 147.574219 112.359375 C 147.972656 112.609375 148.246094 112.976563 148.402344 113.453125 Z M 144.402344 116.328125 L 147.761719 116.34375 L 147.777344 114.890625 C 147.777344 114.328125 147.636719 113.90625 147.355469 113.625 C 147.066406 113.34375 146.644531 113.203125 146.089844 113.203125 C 145.539063 113.195313 145.121094 113.328125 144.839844 113.609375 C 144.558594 113.890625 144.417969 114.3125 144.417969 114.875 Z M 145.742188 109.40625 L 145.742188 108.359375 L 152.851563 108.375 L 152.851563 109.421875 Z M 142.976563 109.390625 L 142.976563 108.34375 L 144.460938 108.34375 L 144.460938 109.390625 Z M 145.75 106.921875 L 145.75 105.8125 L 151.734375 103.828125 L 145.765625 101.8125 L 145.765625 100.6875 L 152.875 103.109375 L 152.875 104.53125 Z M 149.054688 93.765625 L 149.617188 93.765625 L 149.601563 98.609375 C 150.414063 98.570313 151.035156 98.355469 151.460938 97.96875 C 151.878906 97.574219 152.085938 97.027344 152.085938 96.328125 C 152.085938 95.921875 152.035156 95.53125 151.929688 95.15625 C 151.816406 94.78125 151.648438 94.40625 151.429688 94.03125 L 152.539063 94.03125 C 152.71875 94.40625 152.851563 94.792969 152.945313 95.1875 C 153.039063 95.585938 153.085938 95.984375 153.085938 96.390625 C 153.074219 97.414063 152.742188 98.226563 152.085938 98.828125 C 151.421875 99.421875 150.523438 99.714844 149.398438 99.703125 C 148.234375 99.703125 147.3125 99.421875 146.632813 98.859375 C 145.945313 98.289063 145.609375 97.523438 145.617188 96.5625 C 145.617188 95.699219 145.925781 95.015625 146.539063 94.515625 C 147.15625 94.015625 147.992188 93.765625 149.054688 93.765625 Z M 148.710938 94.828125 C 148.078125 94.828125 147.566406 94.984375 147.179688 95.296875 C 146.796875 95.609375 146.601563 96.027344 146.601563 96.546875 C 146.601563 97.140625 146.785156 97.617188 147.148438 97.96875 C 147.515625 98.3125 148.03125 98.511719 148.695313 98.5625 Z M 146.90625 88.328125 C 146.835938 88.445313 146.78125 88.574219 146.75 88.71875 C 146.710938 88.855469 146.6875 89.007813 146.6875 89.171875 C 146.6875 89.765625 146.902344 90.226563 147.328125 90.546875 C 147.746094 90.859375 148.355469 91.015625 149.15625 91.015625 L 152.90625 91.03125 L 152.90625 92.09375 L 145.796875 92.078125 L 145.796875 91.015625 L 146.90625 91.015625 C 146.480469 90.796875 146.164063 90.511719 145.953125 90.15625 C 145.746094 89.804688 145.640625 89.375 145.640625 88.875 C 145.640625 88.804688 145.648438 88.726563 145.65625 88.640625 C 145.667969 88.546875 145.683594 88.445313 145.703125 88.328125 Z M 146.90625 88.328125 "/>
</g>
</svg>

