<?xml version="1.0" encoding="UTF-8"?>
<svg xmlns="http://www.w3.org/2000/svg" xmlns:xlink="http://www.w3.org/1999/xlink" width="256pt" height="256pt" viewBox="0 0 256 256" version="1.1">
<g id="surface2">
<rect x="0" y="0" width="256" height="256" style="fill:rgb(94.901961%,93.72549%,91.372549%);fill-opacity:1;stroke:none;"/>
<path style="fill:none;stroke-width:8;stroke-linecap:round;stroke-linejoin:round;stroke:rgb(75.686275%,70.980392%,61.568627%);stroke-opacity:1;stroke-miterlimit:10;" d="M -9 217.039063 L -0.75 215.878906 L 5.65625 214.761719 "/>
<path style="fill:none;stroke-width:8;stroke-linecap:round;stroke-linejoin:round;stroke:rgb(75.686275%,70.980392%,61.568627%);stroke-opacity:1;stroke-miterlimit:10;" d="M -9 176.601563 L 21.105469 169.109375 "/>
<path style="fill:none;stroke-width:8;stroke-linecap:round;stroke-linejoin:round;stroke:rgb(75.686275%,70.980392%,61.568627%);stroke-opacity:1;stroke-miterlimit:10;" d="M 15.792969 227.507813 L -9 244.671875 "/>
<path style="fill:none;stroke-width:8;stroke-linecap:round;stroke-linejoin:round;stroke:rgb(75.686275%,70.980392%,61.568627%);stroke-opacity:1;stroke-miterlimit:10;" d="M 21.136719 264 L 21.550781 260.316406 L 22.949219 255.820313 L 28.027344 242.945313 "/>
<path style="fill:none;stroke-width:8;stroke-linecap:round;stroke-linejoin:round;stroke:rgb(75.686275%,70.980392%,61.568627%);stroke-opacity:1;stroke-miterlimit:10;" d="M 26 37.390625 L 22.902344 37.0625 L 19.683594 35.386719 L 15.652344 31.644531 L 12.019531 27.734375 L 6.890625 22.839844 L -7.25 7.792969 L -9 6.023438 "/>
<path style="fill:none;stroke-width:8;stroke-linecap:round;stroke-linejoin:round;stroke:rgb(75.686275%,70.980392%,61.568627%);stroke-opacity:1;stroke-miterlimit:10;" d="M 62.417969 264 L 61.769531 259.726563 L 53.285156 207.011719 L 43.476563 157.117188 L 39.769531 131.664063 L 31.265625 75.691406 L 30.871094 72.867188 L 30.683594 71.554688 L 26 37.390625 L 24.390625 24.085938 L 22.339844 7.105469 L 20.054688 -9 "/>
<path style="fill:none;stroke-width:9;stroke-linecap:round;stroke-linejoin:round;stroke:rgb(75.686275%,70.980392%,61.568627%);stroke-opacity:1;stroke-miterlimit:10;" d="M 45.417969 265 L 40.75 258.808594 L 28.027344 242.945313 L 15.792969 227.507813 L 5.65625 214.761719 L -10 194.914063 "/>
<path style="fill:none;stroke-width:6;stroke-linecap:round;stroke-linejoin:round;stroke:rgb(100%,100%,100%);stroke-opacity:1;stroke-miterlimit:10;" d="M -9 217.039063 L -0.75 215.878906 L 5.65625 214.761719 "/>
<path style="fill:none;stroke-width:6;stroke-linecap:round;stroke-linejoin:round;stroke:rgb(100%,100%,100%);stroke-opacity:1;stroke-miterlimit:10;" d="M -9 176.601563 L 21.105469 169.109375 "/>
<path style="fill:none;stroke-width:6;stroke-linecap:round;stroke-linejoin:round;stroke:rgb(100%,100%,100%);stroke-opacity:1;stroke-miterlimit:10;" d="M 15.792969 227.507813 L -9 244.671875 "/>
<path style="fill:none;stroke-width:6;stroke-linecap:round;stroke-linejoin:round;stroke:rgb(100%,100%,100%);stroke-opacity:1;stroke-miterlimit:10;" d="M 21.136719 264 L 21.550781 260.316406 L 22.949219 255.820313 L 28.027344 242.945313 "/>
<path style="fill:none;stroke-width:6;stroke-linecap:round;stroke-linejoin:round;stroke:rgb(100%,100%,100%);stroke-opacity:1;stroke-miterlimit:10;" d="M 26 37.390625 L 22.902344 37.0625 L 19.683594 35.386719 L 15.652344 31.644531 L 12.019531 27.734375 L 6.890625 22.839844 L -7.25 7.792969 L -9 6.023438 "/>
<path style="fill:none;stroke-width:6;stroke-linecap:round;stroke-linejoin:round;stroke:rgb(100%,100%,100%);stroke-opacity:1;stroke-miterlimit:10;" d="M 62.417969 264 L 61.769531 259.726563 L 53.285156 207.011719 L 43.476563 157.117188 L 39.769531 131.664063 L 31.265625 75.691406 L 30.871094 72.867188 L 30.683594 71.554688 L 26 37.390625 L 24.390625 24.085938 L 22.339844 7.105469 L 20.054688 -9 "/>
<path style="fill:none;stroke-width:7;stroke-linecap:round;stroke-linejoin:round;stroke:rgb(100%,99.215686%,54.509804%);stroke-opacity:1;stroke-miterlimit:10;" d="M 45.417969 265 L 40.75 258.808594 L 28.027344 242.945313 L 15.792969 227.507813 L 5.65625 214.761719 L -10 194.914063 "/>
<path style="fill:none;stroke-width:3;stroke-linecap:round;stroke-linejoin:round;stroke:rgb(100%,100%,100%);stroke-opacity:1;stroke-miterlimit:10;" d="M 37.976563 94.914063 L 36.945313 95.085938 C 37.089844 94.699219 37.183594 94.328125 37.226563 93.976563 C 37.265625 93.632813 37.265625 93.3125 37.226563 93.023438 C 37.140625 92.492188 36.964844 92.101563 36.695313 91.851563 C 36.421875 91.609375 36.085938 91.523438 35.679688 91.585938 C 35.324219 91.636719 35.070313 91.765625 34.914063 91.976563 C 34.757813 92.183594 34.667969 92.570313 34.648438 93.132813 L 34.617188 93.710938 C 34.5625 94.460938 34.371094 95.03125 34.039063 95.429688 C 33.703125 95.835938 33.214844 96.089844 32.570313 96.195313 C 31.796875 96.308594 31.179688 96.164063 30.710938 95.757813 C 30.25 95.359375 29.953125 94.714844 29.820313 93.820313 C 29.765625 93.476563 29.75 93.105469 29.773438 92.710938 C 29.804688 92.3125 29.875 91.90625 29.992188 91.492188 L 31.085938 91.320313 C 30.886719 91.734375 30.75 92.140625 30.679688 92.539063 C 30.617188 92.933594 30.617188 93.3125 30.679688 93.679688 C 30.761719 94.21875 30.945313 94.625 31.226563 94.898438 C 31.515625 95.167969 31.882813 95.273438 32.320313 95.210938 C 32.714844 95.148438 33.007813 94.984375 33.195313 94.726563 C 33.390625 94.476563 33.507813 94.101563 33.539063 93.601563 L 33.570313 92.992188 C 33.621094 92.242188 33.789063 91.679688 34.070313 91.304688 C 34.359375 90.9375 34.8125 90.71875 35.429688 90.632813 C 36.125 90.519531 36.710938 90.648438 37.179688 91.023438 C 37.65625 91.40625 37.960938 91.992188 38.085938 92.773438 C 38.136719 93.105469 38.152344 93.453125 38.132813 93.820313 C 38.109375 94.183594 38.058594 94.546875 37.976563 94.914063 Z M 31.625 98.703125 L 28.484375 99.1875 L 28.359375 98.28125 L 36.5625 97.03125 L 36.6875 97.9375 L 35.78125 98.078125 C 36.164063 98.203125 36.460938 98.390625 36.671875 98.640625 C 36.890625 98.898438 37.03125 99.226563 37.09375 99.625 C 37.1875 100.28125 36.976563 100.847656 36.46875 101.328125 C 35.957031 101.816406 35.234375 102.132813 34.296875 102.28125 C 33.359375 102.425781 32.570313 102.34375 31.9375 102.03125 C 31.300781 101.71875 30.9375 101.234375 30.84375 100.578125 C 30.78125 100.179688 30.8125 99.828125 30.9375 99.515625 C 31.070313 99.210938 31.300781 98.941406 31.625 98.703125 Z M 34.15625 101.375 C 34.875 101.269531 35.414063 101.050781 35.78125 100.71875 C 36.15625 100.394531 36.304688 100.003906 36.234375 99.546875 C 36.160156 99.066406 35.898438 98.726563 35.453125 98.53125 C 35.003906 98.332031 34.421875 98.285156 33.703125 98.390625 C 32.984375 98.503906 32.441406 98.722656 32.078125 99.046875 C 31.710938 99.367188 31.566406 99.769531 31.640625 100.25 C 31.710938 100.707031 31.96875 101.035156 32.40625 101.234375 C 32.851563 101.441406 33.4375 101.488281 34.15625 101.375 Z M 35.457031 108.285156 L 34.972656 108.347656 L 34.363281 104.300781 C 33.707031 104.445313 33.226563 104.707031 32.925781 105.082031 C 32.621094 105.464844 32.519531 105.949219 32.613281 106.535156 C 32.664063 106.867188 32.757813 107.183594 32.894531 107.488281 C 33.027344 107.789063 33.210938 108.085938 33.441406 108.378906 L 32.535156 108.519531 C 32.324219 108.214844 32.152344 107.910156 32.019531 107.597656 C 31.894531 107.285156 31.804688 106.960938 31.753906 106.628906 C 31.628906 105.773438 31.800781 105.050781 32.269531 104.457031 C 32.746094 103.871094 33.460938 103.511719 34.410156 103.378906 C 35.378906 103.222656 36.183594 103.335938 36.832031 103.722656 C 37.476563 104.117188 37.863281 104.714844 37.988281 105.519531 C 38.089844 106.238281 37.914063 106.839844 37.457031 107.332031 C 37.007813 107.832031 36.339844 108.148438 35.457031 108.285156 Z M 35.613281 107.363281 C 36.152344 107.269531 36.558594 107.066406 36.832031 106.753906 C 37.113281 106.449219 37.222656 106.085938 37.160156 105.660156 C 37.085938 105.160156 36.871094 104.785156 36.519531 104.535156 C 36.164063 104.285156 35.699219 104.179688 35.128906 104.222656 Z M 35.84375 112.203125 C 35.726563 111.484375 35.554688 111 35.328125 110.75 C 35.097656 110.507813 34.769531 110.425781 34.34375 110.5 C 34 110.550781 33.738281 110.691406 33.5625 110.921875 C 33.394531 111.160156 33.335938 111.457031 33.390625 111.8125 C 33.472656 112.3125 33.726563 112.675781 34.15625 112.90625 C 34.582031 113.132813 35.109375 113.203125 35.734375 113.109375 L 35.96875 113.078125 Z M 36.515625 113.890625 L 33.109375 114.40625 L 32.96875 113.53125 L 33.859375 113.390625 C 33.472656 113.242188 33.171875 113.035156 32.953125 112.765625 C 32.734375 112.492188 32.59375 112.140625 32.53125 111.703125 C 32.445313 111.160156 32.550781 110.703125 32.84375 110.328125 C 33.132813 109.953125 33.570313 109.71875 34.15625 109.625 C 34.820313 109.519531 35.351563 109.640625 35.75 109.984375 C 36.144531 110.335938 36.40625 110.914063 36.53125 111.71875 L 36.71875 112.953125 L 36.8125 112.953125 C 37.269531 112.878906 37.597656 112.6875 37.796875 112.375 C 38.003906 112.070313 38.070313 111.679688 38 111.203125 C 37.957031 110.898438 37.867188 110.609375 37.734375 110.328125 C 37.609375 110.046875 37.441406 109.785156 37.234375 109.546875 L 38.140625 109.40625 C 38.335938 109.71875 38.492188 110.015625 38.609375 110.296875 C 38.722656 110.585938 38.800781 110.878906 38.84375 111.171875 C 38.957031 111.941406 38.820313 112.550781 38.4375 113 C 38.0625 113.457031 37.421875 113.753906 36.515625 113.890625 Z M 38.878906 118.554688 C 38.929688 118.4375 38.960938 118.320313 38.972656 118.195313 C 38.980469 118.070313 38.976563 117.945313 38.957031 117.820313 C 38.882813 117.308594 38.644531 116.949219 38.238281 116.742188 C 37.839844 116.542969 37.308594 116.496094 36.644531 116.601563 L 33.503906 117.070313 L 33.378906 116.164063 L 39.332031 115.257813 L 39.457031 116.164063 L 38.519531 116.304688 C 38.914063 116.429688 39.222656 116.625 39.441406 116.898438 C 39.667969 117.167969 39.816406 117.511719 39.878906 117.929688 C 39.886719 117.992188 39.894531 118.058594 39.894531 118.132813 C 39.902344 118.214844 39.902344 118.296875 39.894531 118.382813 Z M 42.382813 122.160156 L 42.539063 123.144531 L 39.304688 123.628906 L 39.835938 127.128906 L 43.070313 126.644531 L 43.210938 127.597656 L 35.289063 128.800781 L 35.148438 127.847656 L 38.914063 127.269531 L 38.382813 123.769531 L 34.617188 124.347656 L 34.460938 123.363281 Z M 41.53125 129.777344 L 41.671875 130.667969 L 35.71875 131.574219 L 35.578125 130.683594 Z M 43.84375 129.433594 L 43.984375 130.324219 L 42.75 130.511719 L 42.609375 129.621094 Z M 44.25 132.175781 L 44.375 133.066406 L 36.109375 134.269531 L 35.984375 133.378906 Z M 44.648438 134.898438 L 44.773438 135.789063 L 36.507813 136.992188 L 36.382813 136.101563 Z M 41.433594 144.804688 C 41.390625 145.023438 41.253906 145.246094 41.027344 145.476563 C 40.808594 145.714844 40.488281 145.96875 40.074219 146.242188 L 38.042969 147.539063 L 37.886719 146.492188 L 39.808594 145.289063 C 40.285156 144.976563 40.597656 144.695313 40.746094 144.445313 C 40.890625 144.203125 40.9375 143.890625 40.886719 143.507813 L 40.730469 142.460938 L 37.371094 142.945313 L 37.230469 141.960938 L 45.167969 140.804688 L 45.480469 142.992188 C 45.605469 143.8125 45.503906 144.449219 45.183594 144.898438 C 44.859375 145.355469 44.3125 145.636719 43.542969 145.742188 C 43.050781 145.8125 42.625 145.773438 42.261719 145.617188 C 41.894531 145.46875 41.621094 145.199219 41.433594 144.804688 Z M 44.417969 141.914063 L 41.605469 142.335938 L 41.777344 143.539063 C 41.847656 144.007813 42.019531 144.339844 42.292969 144.539063 C 42.5625 144.746094 42.925781 144.8125 43.386719 144.742188 C 43.855469 144.679688 44.1875 144.507813 44.386719 144.226563 C 44.59375 143.953125 44.660156 143.585938 44.589844 143.117188 Z M 43.78125 150.046875 C 43.707031 149.566406 43.445313 149.21875 43 149 C 42.550781 148.789063 41.972656 148.738281 41.265625 148.84375 C 40.554688 148.945313 40.015625 149.164063 39.640625 149.5 C 39.273438 149.832031 39.128906 150.238281 39.203125 150.71875 C 39.273438 151.1875 39.53125 151.523438 39.96875 151.734375 C 40.414063 151.953125 40.992188 152.007813 41.703125 151.90625 C 42.410156 151.800781 42.953125 151.582031 43.328125 151.25 C 43.703125 150.914063 43.851563 150.515625 43.78125 150.046875 Z M 44.609375 149.921875 C 44.722656 150.679688 44.535156 151.320313 44.046875 151.84375 C 43.554688 152.363281 42.820313 152.691406 41.84375 152.828125 C 40.875 152.972656 40.078125 152.863281 39.453125 152.5 C 38.835938 152.144531 38.472656 151.585938 38.359375 150.828125 C 38.242188 150.054688 38.429688 149.414063 38.921875 148.90625 C 39.421875 148.394531 40.15625 148.066406 41.125 147.921875 C 42.101563 147.789063 42.898438 147.890625 43.515625 148.234375 C 44.128906 148.585938 44.492188 149.148438 44.609375 149.921875 Z M 42.492188 156.722656 C 42.375 156.011719 42.203125 155.539063 41.976563 155.300781 C 41.746094 155.058594 41.414063 154.972656 40.976563 155.035156 C 40.640625 155.097656 40.386719 155.242188 40.210938 155.472656 C 40.042969 155.710938 39.984375 156.007813 40.039063 156.363281 C 40.121094 156.851563 40.375 157.210938 40.804688 157.441406 C 41.242188 157.667969 41.777344 157.730469 42.414063 157.628906 L 42.632813 157.597656 Z M 43.179688 158.425781 L 39.789063 158.972656 L 39.648438 158.082031 L 40.539063 157.941406 C 40.152344 157.792969 39.851563 157.585938 39.632813 157.316406 C 39.414063 157.042969 39.265625 156.695313 39.195313 156.269531 C 39.101563 155.726563 39.195313 155.261719 39.476563 154.878906 C 39.765625 154.503906 40.203125 154.269531 40.789063 154.175781 C 41.453125 154.058594 41.992188 154.175781 42.398438 154.519531 C 42.804688 154.863281 43.070313 155.433594 43.195313 156.238281 L 43.398438 157.472656 L 43.492188 157.457031 C 43.9375 157.382813 44.265625 157.191406 44.476563 156.878906 C 44.683594 156.574219 44.746094 156.183594 44.664063 155.707031 C 44.621094 155.402344 44.53125 155.113281 44.398438 154.832031 C 44.261719 154.558594 44.089844 154.300781 43.882813 154.050781 L 44.773438 153.910156 C 44.96875 154.222656 45.125 154.519531 45.242188 154.800781 C 45.367188 155.082031 45.449219 155.367188 45.492188 155.660156 C 45.617188 156.429688 45.484375 157.042969 45.101563 157.503906 C 44.726563 157.960938 44.085938 158.269531 43.179688 158.425781 Z M 45.851563 163.410156 L 49.039063 162.785156 L 49.210938 163.660156 L 41.007813 165.269531 L 40.835938 164.394531 L 41.726563 164.222656 C 41.328125 164.105469 41.015625 163.925781 40.789063 163.675781 C 40.558594 163.425781 40.40625 163.105469 40.335938 162.722656 C 40.210938 162.074219 40.390625 161.492188 40.882813 160.972656 C 41.371094 160.460938 42.078125 160.113281 43.007813 159.925781 C 43.945313 159.738281 44.734375 159.792969 45.382813 160.082031 C 46.027344 160.382813 46.414063 160.855469 46.539063 161.503906 C 46.609375 161.886719 46.589844 162.238281 46.476563 162.550781 C 46.359375 162.863281 46.152344 163.148438 45.851563 163.410156 Z M 43.179688 160.832031 C 42.46875 160.964844 41.9375 161.207031 41.585938 161.550781 C 41.230469 161.894531 41.101563 162.292969 41.195313 162.753906 C 41.289063 163.230469 41.5625 163.558594 42.023438 163.738281 C 42.480469 163.925781 43.0625 163.949219 43.773438 163.816406 C 44.492188 163.667969 45.027344 163.425781 45.382813 163.082031 C 45.734375 162.738281 45.867188 162.324219 45.773438 161.847656 C 45.679688 161.386719 45.402344 161.066406 44.945313 160.878906 C 44.484375 160.699219 43.898438 160.683594 43.179688 160.832031 Z M 43.179688 160.832031 "/>
<path style=" stroke:none;fill-rule:evenodd;fill:rgb(20%,20%,20%);fill-opacity:1;" d="M 37.976563 94.914063 L 36.945313 95.085938 C 37.089844 94.699219 37.183594 94.328125 37.226563 93.976563 C 37.265625 93.632813 37.265625 93.3125 37.226563 93.023438 C 37.140625 92.492188 36.964844 92.101563 36.695313 91.851563 C 36.421875 91.609375 36.085938 91.523438 35.679688 91.585938 C 35.324219 91.636719 35.070313 91.765625 34.914063 91.976563 C 34.757813 92.183594 34.667969 92.570313 34.648438 93.132813 L 34.617188 93.710938 C 34.5625 94.460938 34.371094 95.03125 34.039063 95.429688 C 33.703125 95.835938 33.214844 96.089844 32.570313 96.195313 C 31.796875 96.308594 31.179688 96.164063 30.710938 95.757813 C 30.25 95.359375 29.953125 94.714844 29.820313 93.820313 C 29.765625 93.476563 29.75 93.105469 29.773438 92.710938 C 29.804688 92.3125 29.875 91.90625 29.992188 91.492188 L 31.085938 91.320313 C 30.886719 91.734375 30.75 92.140625 30.679688 92.539063 C 30.617188 92.933594 30.617188 93.3125 30.679688 93.679688 C 30.761719 94.21875 30.945313 94.625 31.226563 94.898438 C 31.515625 95.167969 31.882813 95.273438 32.320313 95.210938 C 32.714844 95.148438 33.007813 94.984375 33.195313 94.726563 C 33.390625 94.476563 33.507813 94.101563 33.539063 93.601563 L 33.570313 92.992188 C 33.621094 92.242188 33.789063 91.679688 34.070313 91.304688 C 34.359375 90.9375 34.8125 90.71875 35.429688 90.632813 C 36.125 90.519531 36.710938 90.648438 37.179688 91.023438 C 37.65625 91.40625 37.960938 91.992188 38.085938 92.773438 C 38.136719 93.105469 38.152344 93.453125 38.132813 93.820313 C 38.109375 94.183594 38.058594 94.546875 37.976563 94.914063 Z M 31.625 98.703125 L 28.484375 99.1875 L 28.359375 98.28125 L 36.5625 97.03125 L 36.6875 97.9375 L 35.78125 98.078125 C 36.164063 98.203125 36.460938 98.390625 36.671875 98.640625 C 36.890625 98.898438 37.03125 99.226563 37.09375 99.625 C 37.1875 100.28125 36.976563 100.847656 36.46875 101.328125 C 35.957031 101.816406 35.234375 102.132813 34.296875 102.28125 C 33.359375 102.425781 32.570313 102.34375 31.9375 102.03125 C 31.300781 101.71875 30.9375 101.234375 30.84375 100.578125 C 30.78125 100.179688 30.8125 99.828125 30.9375 99.515625 C 31.070313 99.210938 31.300781 98.941406 31.625 98.703125 Z M 34.15625 101.375 C 34.875 101.269531 35.414063 101.050781 35.78125 100.71875 C 36.15625 100.394531 36.304688 100.003906 36.234375 99.546875 C 36.160156 99.066406 35.898438 98.726563 35.453125 98.53125 C 35.003906 98.332031 34.421875 98.285156 33.703125 98.390625 C 32.984375 98.503906 32.441406 98.722656 32.078125 99.046875 C 31.710938 99.367188 31.566406 99.769531 31.640625 100.25 C 31.710938 100.707031 31.96875 101.035156 32.40625 101.234375 C 32.851563 101.441406 33.4375 101.488281 34.15625 101.375 Z M 35.457031 108.285156 L 34.972656 108.347656 L 34.363281 104.300781 C 33.707031 104.445313 33.226563 104.707031 32.925781 105.082031 C 32.621094 105.464844 32.519531 105.949219 32.613281 106.535156 C 32.664063 106.867188 32.757813 107.183594 32.894531 107.488281 C 33.027344 107.789063 33.210938 108.085938 33.441406 108.378906 L 32.535156 108.519531 C 32.324219 108.214844 32.152344 107.910156 32.019531 107.597656 C 31.894531 107.285156 31.804688 106.960938 31.753906 106.628906 C 31.628906 105.773438 31.800781 105.050781 32.269531 104.457031 C 32.746094 103.871094 33.460938 103.511719 34.410156 103.378906 C 35.378906 103.222656 36.183594 103.335938 36.832031 103.722656 C 37.476563 104.117188 37.863281 104.714844 37.988281 105.519531 C 38.089844 106.238281 37.914063 106.839844 37.457031 107.332031 C 37.007813 107.832031 36.339844 108.148438 35.457031 108.285156 Z M 35.613281 107.363281 C 36.152344 107.269531 36.558594 107.066406 36.832031 106.753906 C 37.113281 106.449219 37.222656 106.085938 37.160156 105.660156 C 37.085938 105.160156 36.871094 104.785156 36.519531 104.535156 C 36.164063 104.285156 35.699219 104.179688 35.128906 104.222656 Z M 35.84375 112.203125 C 35.726563 111.484375 35.554688 111 35.328125 110.75 C 35.097656 110.507813 34.769531 110.425781 34.34375 110.5 C 34 110.550781 33.738281 110.691406 33.5625 110.921875 C 33.394531 111.160156 33.335938 111.457031 33.390625 111.8125 C 33.472656 112.3125 33.726563 112.675781 34.15625 112.90625 C 34.582031 113.132813 35.109375 113.203125 35.734375 113.109375 L 35.96875 113.078125 Z M 36.515625 113.890625 L 33.109375 114.40625 L 32.96875 113.53125 L 33.859375 113.390625 C 33.472656 113.242188 33.171875 113.035156 32.953125 112.765625 C 32.734375 112.492188 32.59375 112.140625 32.53125 111.703125 C 32.445313 111.160156 32.550781 110.703125 32.84375 110.328125 C 33.132813 109.953125 33.570313 109.71875 34.15625 109.625 C 34.820313 109.519531 35.351563 109.640625 35.75 109.984375 C 36.144531 110.335938 36.40625 110.914063 36.53125 111.71875 L 36.71875 112.953125 L 36.8125 112.953125 C 37.269531 112.878906 37.597656 112.6875 37.796875 112.375 C 38.003906 112.070313 38.070313 111.679688 38 111.203125 C 37.957031 110.898438 37.867188 110.609375 37.734375 110.328125 C 37.609375 110.046875 37.441406 109.785156 37.234375 109.546875 L 38.140625 109.40625 C 38.335938 109.71875 38.492188 110.015625 38.609375 110.296875 C 38.722656 110.585938 38.800781 110.878906 38.84375 111.171875 C 38.957031 111.941406 38.820313 112.550781 38.4375 113 C 38.0625 113.457031 37.421875 113.753906 36.515625 113.890625 Z M 38.878906 118.554688 C 38.929688 118.4375 38.960938 118.320313 38.972656 118.195313 C 38.980469 118.070313 38.976563 117.945313 38.957031 117.820313 C 38.882813 117.308594 38.644531 116.949219 38.238281 116.742188 C 37.839844 116.542969 37.308594 116.496094 36.644531 116.601563 L 33.503906 117.070313 L 33.378906 116.164063 L 39.332031 115.257813 L 39.457031 116.164063 L 38.519531 116.304688 C 38.914063 116.429688 39.222656 116.625 39.441406 116.898438 C 39.667969 117.167969 39.816406 117.511719 39.878906 117.929688 C 39.886719 117.992188 39.894531 118.058594 39.894531 118.132813 C 39.902344 118.214844 39.902344 118.296875 39.894531 118.382813 Z M 42.382813 122.160156 L 42.539063 123.144531 L 39.304688 123.628906 L 39.835938 127.128906 L 43.070313 126.644531 L 43.210938 127.597656 L 35.289063 128.800781 L 35.148438 127.847656 L 38.914063 127.269531 L 38.382813 123.769531 L 34.617188 124.347656 L 34.460938 123.363281 Z M 41.53125 129.777344 L 41.671875 130.667969 L 35.71875 131.574219 L 35.578125 130.683594 Z M 43.84375 129.433594 L 43.984375 130.324219 L 42.75 130.511719 L 42.609375 129.621094 Z M 44.25 132.175781 L 44.375 133.066406 L 36.109375 134.269531 L 35.984375 133.378906 Z M 44.648438 134.898438 L 44.773438 135.789063 L 36.507813 136.992188 L 36.382813 136.101563 Z M 41.433594 144.804688 C 41.390625 145.023438 41.253906 145.246094 41.027344 145.476563 C 40.808594 145.714844 40.488281 145.96875 40.074219 146.242188 L 38.042969 147.539063 L 37.886719 146.492188 L 39.808594 145.289063 C 40.285156 144.976563 40.597656 144.695313 40.746094 144.445313 C 40.890625 144.203125 40.9375 143.890625 40.886719 143.507813 L 40.730469 142.460938 L 37.371094 142.945313 L 37.230469 141.960938 L 45.167969 140.804688 L 45.480469 142.992188 C 45.605469 143.8125 45.503906 144.449219 45.183594 144.898438 C 44.859375 145.355469 44.3125 145.636719 43.542969 145.742188 C 43.050781 145.8125 42.625 145.773438 42.261719 145.617188 C 41.894531 145.46875 41.621094 145.199219 41.433594 144.804688 Z M 44.417969 141.914063 L 41.605469 142.335938 L 41.777344 143.539063 C 41.847656 144.007813 42.019531 144.339844 42.292969 144.539063 C 42.5625 144.746094 42.925781 144.8125 43.386719 144.742188 C 43.855469 144.679688 44.1875 144.507813 44.386719 144.226563 C 44.59375 143.953125 44.660156 143.585938 44.589844 143.117188 Z M 43.78125 150.046875 C 43.707031 149.566406 43.445313 149.21875 43 149 C 42.550781 148.789063 41.972656 148.738281 41.265625 148.84375 C 40.554688 148.945313 40.015625 149.164063 39.640625 149.5 C 39.273438 149.832031 39.128906 150.238281 39.203125 150.71875 C 39.273438 151.1875 39.53125 151.523438 39.96875 151.734375 C 40.414063 151.953125 40.992188 152.007813 41.703125 151.90625 C 42.410156 151.800781 42.953125 151.582031 43.328125 151.25 C 43.703125 150.914063 43.851563 150.515625 43.78125 150.046875 Z M 44.609375 149.921875 C 44.722656 150.679688 44.535156 151.320313 44.046875 151.84375 C 43.554688 152.363281 42.820313 152.691406 41.84375 152.828125 C 40.875 152.972656 40.078125 152.863281 39.453125 152.5 C 38.835938 152.144531 38.472656 151.585938 38.359375 150.828125 C 38.242188 150.054688 38.429688 149.414063 38.921875 148.90625 C 39.421875 148.394531 40.15625 148.066406 41.125 147.921875 C 42.101563 147.789063 42.898438 147.890625 43.515625 148.234375 C 44.128906 148.585938 44.492188 149.148438 44.609375 149.921875 Z M 42.492188 156.722656 C 42.375 156.011719 42.203125 155.539063 41.976563 155.300781 C 41.746094 155.058594 41.414063 154.972656 40.976563 155.035156 C 40.640625 155.097656 40.386719 155.242188 40.210938 155.472656 C 40.042969 155.710938 39.984375 156.007813 40.039063 156.363281 C 40.121094 156.851563 40.375 157.210938 40.804688 157.441406 C 41.242188 157.667969 41.777344 157.730469 42.414063 157.628906 L 42.632813 157.597656 Z M 43.179688 158.425781 L 39.789063 158.972656 L 39.648438 158.082031 L 40.539063 157.941406 C 40.152344 157.792969 39.851563 157.585938 39.632813 157.316406 C 39.414063 157.042969 39.265625 156.695313 39.195313 156.269531 C 39.101563 155.726563 39.195313 155.261719 39.476563 154.878906 C 39.765625 154.503906 40.203125 154.269531 40.789063 154.175781 C 41.453125 154.058594 41.992188 154.175781 42.398438 154.519531 C 42.804688 154.863281 43.070313 155.433594 43.195313 156.238281 L 43.398438 157.472656 L 43.492188 157.457031 C 43.9375 157.382813 44.265625 157.191406 44.476563 156.878906 C 44.683594 156.574219 44.746094 156.183594 44.664063 155.707031 C 44.621094 155.402344 44.53125 155.113281 44.398438 154.832031 C 44.261719 154.558594 44.089844 154.300781 43.882813 154.050781 L 44.773438 153.910156 C 44.96875 154.222656 45.125 154.519531 45.242188 154.800781 C 45.367188 155.082031 45.449219 155.367188 45.492188 155.660156 C 45.617188 156.429688 45.484375 157.042969 45.101563 157.503906 C 44.726563 157.960938 44.085938 158.269531 43.179688 158.425781 Z M 45.851563 163.410156 L 49.039063 162.785156 L 49.210938 163.660156 L 41.007813 165.269531 L 40.835938 164.394531 L 41.726563 164.222656 C 41.328125 164.105469 41.015625 163.925781 40.789063 163.675781 C 40.558594 163.425781 40.40625 163.105469 40.335938 162.722656 C 40.210938 162.074219 40.390625 161.492188 40.882813 160.972656 C 41.371094 160.460938 42.078125 160.113281 43.007813 159.925781 C 43.945313 159.738281 44.734375 159.792969 45.382813 160.082031 C 46.027344 160.382813 46.414063 160.855469 46.539063 161.503906 C 46.609375 161.886719 46.589844 162.238281 46.476563 162.550781 C 46.359375 162.863281 46.152344 163.148438 45.851563 163.410156 Z M 43.179688 160.832031 C 42.46875 160.964844 41.9375 161.207031 41.585938 161.550781 C 41.230469 161.894531 41.101563 162.292969 41.195313 162.753906 C 41.289063 163.230469 41.5625 163.558594 42.023438 163.738281 C 42.480469 163.925781 43.0625 163.949219 43.773438 163.816406 C 44.492188 163.667969 45.027344 163.425781 45.382813 163.082031 C 45.734375 162.738281 45.867188 162.324219 45.773438 161.847656 C 45.679688 161.386719 45.402344 161.066406 44.945313 160.878906 C 44.484375 160.699219 43.898438 160.683594 43.179688 160.832031 Z M 43.179688 160.832031 "/>
</g>
</svg>

