<?xml version="1.0" encoding="UTF-8"?>
<svg xmlns="http://www.w3.org/2000/svg" xmlns:xlink="http://www.w3.org/1999/xlink" width="256pt" height="256pt" viewBox="0 0 256 256" version="1.1">
<g id="surface2">
<rect x="0" y="0" width="256" height="256" style="fill:rgb(94.901961%,93.72549%,91.372549%);fill-opacity:1;stroke:none;"/>
<path style=" stroke:none;fill-rule:evenodd;fill:rgb(60%,70.196078%,80%);fill-opacity:1;" d="M 259 259 L 259 -4 L 259 228.125 L 257.808594 227.382813 L 254.730469 226.789063 L 252.863281 227.199219 L 250.089844 228.542969 L 248.816406 229.820313 L 247.996094 230.777344 L 247.027344 232.847656 L 246.957031 233.847656 L 246.144531 234.566406 L 246.992188 233.855469 L 247.921875 234.273438 L 248.761719 233.382813 L 249.679688 234.222656 L 248.210938 234.519531 L 247.597656 235.492188 L 246.589844 234.785156 L 245.101563 234.554688 L 243.671875 234.109375 L 245.195313 234.742188 L 246.929688 235.933594 L 246.695313 236.941406 L 246.796875 238.441406 L 246.070313 239.628906 L 245.386719 238.878906 L 244.210938 239.019531 L 245.527344 238.578125 L 245.558594 237.5 L 245.507813 236.402344 L 244.160156 236.617188 L 243.519531 238.691406 L 243.3125 240.785156 L 241.140625 244.574219 L 239.8125 244.675781 L 239.097656 245.734375 L 239.039063 246.738281 L 238.078125 248.140625 L 236.710938 248.523438 L 234.507813 248.949219 L 234.507813 250.132813 L 234.707031 251.125 L 233.355469 252.179688 L 232.164063 251.53125 L 233.128906 251.875 L 234.394531 251.269531 L 233.699219 250.332031 L 232.902344 251.214844 L 231.644531 250.3125 L 228.367188 250.894531 L 227.644531 251.746094 L 226.207031 251.601563 L 224.765625 251.738281 L 223.214844 253.597656 L 222.699219 254.894531 L 222.679688 255.949219 L 222.769531 257.179688 L 222.898438 258.210938 L 221.472656 258.386719 L 221.753906 259 Z M 247.101563 233.386719 L 247.207031 233.558594 L 247.027344 233.394531 Z M 247.066406 233.121094 L 247.121094 233.105469 L 247.035156 233.324219 Z M 247.765625 233.710938 L 247.800781 233.699219 L 247.582031 233.84375 Z M 250.3125 228.816406 L 250.347656 228.867188 L 249.210938 229.632813 L 249.179688 229.582031 Z M 251.554688 228.09375 L 251.585938 228.148438 L 250.402344 228.828125 L 250.371094 228.773438 Z M 252.890625 227.53125 L 252.914063 227.585938 L 251.648438 228.117188 L 251.625 228.0625 Z M 253.6875 227.375 L 253.894531 227.425781 L 253.035156 227.488281 Z M 254.75 227.328125 L 254.972656 227.394531 L 254 227.355469 Z M 255.855469 227.382813 L 257.347656 227.679688 L 255.027344 227.328125 Z M 258.265625 228.03125 L 259 228.5 L 257.464844 227.777344 Z M 7933604.703125 5480076.304688 Z M 7933604.703125 5480076.304688 "/>
<path style="fill:none;stroke-width:1;stroke-linecap:round;stroke-linejoin:round;stroke:rgb(70.196078%,77.647059%,83.137255%);stroke-opacity:1;stroke-miterlimit:10;" d="M 259 259 L 259 -4 L 259 228.125 L 257.808594 227.382813 L 254.730469 226.789063 L 252.863281 227.199219 L 250.089844 228.542969 L 248.816406 229.820313 L 247.996094 230.777344 L 247.027344 232.847656 L 246.957031 233.847656 L 246.144531 234.566406 L 246.992188 233.855469 L 247.921875 234.273438 L 248.761719 233.382813 L 249.679688 234.222656 L 248.210938 234.519531 L 247.597656 235.492188 L 246.589844 234.785156 L 245.101563 234.554688 L 243.671875 234.109375 L 245.195313 234.742188 L 246.929688 235.933594 L 246.695313 236.941406 L 246.796875 238.441406 L 246.070313 239.628906 L 245.386719 238.878906 L 244.210938 239.019531 L 245.527344 238.578125 L 245.558594 237.5 L 245.507813 236.402344 L 244.160156 236.617188 L 243.519531 238.691406 L 243.3125 240.785156 L 241.140625 244.574219 L 239.8125 244.675781 L 239.097656 245.734375 L 239.039063 246.738281 L 238.078125 248.140625 L 236.710938 248.523438 L 234.507813 248.949219 L 234.507813 250.132813 L 234.707031 251.125 L 233.355469 252.179688 L 232.164063 251.53125 L 233.128906 251.875 L 234.394531 251.269531 L 233.699219 250.332031 L 232.902344 251.214844 L 231.644531 250.3125 L 228.367188 250.894531 L 227.644531 251.746094 L 226.207031 251.601563 L 224.765625 251.738281 L 223.214844 253.597656 L 222.699219 254.894531 L 222.679688 255.949219 L 222.769531 257.179688 L 222.898438 258.210938 L 221.472656 258.386719 L 221.753906 259 L 259 259 M 247.101563 233.386719 L 247.207031 233.558594 L 247.027344 233.394531 L 247.101563 233.386719 M 247.066406 233.121094 L 247.121094 233.105469 L 247.035156 233.324219 L 247.066406 233.121094 M 247.765625 233.710938 L 247.800781 233.699219 L 247.582031 233.84375 L 247.765625 233.710938 M 250.3125 228.816406 L 250.347656 228.867188 L 249.210938 229.632813 L 249.179688 229.582031 L 250.3125 228.816406 M 251.554688 228.09375 L 251.585938 228.148438 L 250.402344 228.828125 L 250.371094 228.773438 L 251.554688 228.09375 M 252.890625 227.53125 L 252.914063 227.585938 L 251.648438 228.117188 L 251.625 228.0625 L 252.890625 227.53125 M 253.6875 227.375 L 253.894531 227.425781 L 253.035156 227.488281 L 253.6875 227.375 M 254.75 227.328125 L 254.972656 227.394531 L 254 227.355469 L 254.75 227.328125 M 255.855469 227.382813 L 257.347656 227.679688 L 255.027344 227.328125 L 255.855469 227.382813 M 258.265625 228.03125 L 259 228.5 L 257.464844 227.777344 L 258.265625 228.03125 "/>
</g>
</svg>

