<?xml version="1.0" encoding="UTF-8"?>
<svg xmlns="http://www.w3.org/2000/svg" xmlns:xlink="http://www.w3.org/1999/xlink" width="256pt" height="256pt" viewBox="0 0 256 256" version="1.1">
<g id="surface2">
<rect x="0" y="0" width="256" height="256" style="fill:rgb(60%,70.196078%,80%);fill-opacity:1;stroke:none;"/>
<path style="fill:none;stroke-width:1;stroke-linecap:round;stroke-linejoin:round;stroke:rgb(70.196078%,77.647059%,83.137255%);stroke-opacity:1;stroke-miterlimit:10;" d="M -4 259 L 259 259 L 259 -4 L -4 -4 L -4 259 "/>
<path style="fill:none;stroke-width:6;stroke-linecap:round;stroke-linejoin:round;stroke:rgb(60%,70.196078%,80%);stroke-opacity:1;stroke-miterlimit:10;" d="M 147.5625 -7 L 146.703125 262 "/>
<path style="fill:none;stroke-width:3;stroke-linecap:round;stroke-linejoin:round;stroke:rgb(100%,100%,100%);stroke-opacity:1;stroke-miterlimit:10;" d="M 142.367188 165.5 L 142.367188 164.359375 L 146.257813 164.375 L 146.273438 160.171875 L 142.382813 160.15625 L 142.398438 159 L 151.882813 159.03125 L 151.867188 160.1875 L 147.351563 160.171875 L 147.335938 164.375 L 151.851563 164.390625 L 151.851563 165.53125 Z M 149.066406 156.875 L 144.769531 156.875 L 144.769531 155.828125 L 149.035156 155.828125 C 149.703125 155.839844 150.207031 155.730469 150.550781 155.5 C 150.894531 155.261719 151.066406 154.90625 151.066406 154.4375 C 151.066406 153.867188 150.871094 153.417969 150.472656 153.09375 C 150.066406 152.761719 149.515625 152.589844 148.816406 152.578125 L 144.785156 152.578125 L 144.785156 151.515625 L 151.894531 151.53125 L 151.894531 152.59375 L 150.800781 152.59375 C 151.238281 152.84375 151.5625 153.140625 151.769531 153.484375 C 151.976563 153.820313 152.082031 154.210938 152.082031 154.65625 C 152.070313 155.386719 151.8125 155.945313 151.300781 156.328125 C 150.792969 156.703125 150.046875 156.886719 149.066406 156.875 Z M 144.613281 154.234375 Z M 145.890625 145.140625 L 142.046875 145.125 L 142.046875 144.078125 L 151.921875 144.109375 L 151.921875 145.15625 L 150.859375 145.15625 C 151.277344 145.375 151.589844 145.65625 151.796875 146 C 152.003906 146.335938 152.109375 146.734375 152.109375 147.203125 C 152.097656 147.984375 151.75 148.621094 151.0625 149.109375 C 150.375 149.589844 149.476563 149.824219 148.359375 149.8125 C 147.246094 149.8125 146.34375 149.574219 145.65625 149.09375 C 144.96875 148.605469 144.632813 147.96875 144.640625 147.1875 C 144.640625 146.71875 144.746094 146.320313 144.953125 145.984375 C 145.152344 145.640625 145.464844 145.359375 145.890625 145.140625 Z M 148.359375 148.71875 C 149.214844 148.730469 149.890625 148.578125 150.390625 148.265625 C 150.882813 147.945313 151.125 147.507813 151.125 146.953125 C 151.125 146.390625 150.882813 145.953125 150.390625 145.640625 C 149.902344 145.320313 149.230469 145.152344 148.375 145.140625 C 147.511719 145.140625 146.839844 145.304688 146.359375 145.625 C 145.871094 145.9375 145.625 146.375 145.625 146.9375 C 145.625 147.492188 145.867188 147.929688 146.34375 148.25 C 146.824219 148.5625 147.496094 148.71875 148.359375 148.71875 Z M 145.039063 137.84375 L 146.148438 137.84375 C 145.984375 138.148438 145.859375 138.460938 145.773438 138.78125 C 145.691406 139.09375 145.648438 139.421875 145.648438 139.765625 C 145.648438 140.289063 145.738281 140.683594 145.914063 140.953125 C 146.082031 141.214844 146.34375 141.34375 146.695313 141.34375 C 146.96875 141.34375 147.179688 141.25 147.335938 141.0625 C 147.484375 140.867188 147.632813 140.484375 147.789063 139.921875 L 147.882813 139.578125 C 148.0625 138.828125 148.3125 138.296875 148.632813 137.984375 C 148.957031 137.671875 149.40625 137.523438 149.976563 137.53125 C 150.644531 137.53125 151.171875 137.765625 151.554688 138.234375 C 151.9375 138.703125 152.132813 139.351563 152.132813 140.171875 C 152.121094 140.507813 152.078125 140.859375 152.007813 141.234375 C 151.933594 141.609375 151.820313 142 151.664063 142.40625 L 150.460938 142.40625 C 150.691406 142.023438 150.863281 141.640625 150.976563 141.265625 C 151.082031 140.890625 151.140625 140.515625 151.148438 140.140625 C 151.148438 139.652344 151.054688 139.277344 150.867188 139.015625 C 150.679688 138.746094 150.414063 138.609375 150.070313 138.609375 C 149.757813 138.609375 149.519531 138.703125 149.351563 138.890625 C 149.175781 139.078125 149.007813 139.496094 148.851563 140.140625 L 148.757813 140.5 C 148.59375 141.15625 148.351563 141.632813 148.039063 141.921875 C 147.726563 142.214844 147.296875 142.359375 146.742188 142.359375 C 146.078125 142.359375 145.5625 142.148438 145.195313 141.71875 C 144.832031 141.28125 144.65625 140.671875 144.664063 139.890625 C 144.664063 139.507813 144.695313 139.140625 144.757813 138.796875 C 144.820313 138.453125 144.914063 138.136719 145.039063 137.84375 Z M 145.667969 133.359375 C 145.667969 133.921875 145.914063 134.371094 146.402344 134.703125 C 146.882813 135.027344 147.550781 135.1875 148.402344 135.1875 C 149.257813 135.199219 149.929688 135.042969 150.417969 134.71875 C 150.910156 134.386719 151.152344 133.9375 151.152344 133.375 C 151.152344 132.8125 150.910156 132.371094 150.417969 132.046875 C 149.929688 131.714844 149.261719 131.542969 148.417969 131.53125 C 147.574219 131.53125 146.910156 131.699219 146.417969 132.03125 C 145.917969 132.355469 145.667969 132.796875 145.667969 133.359375 Z M 144.683594 133.359375 C 144.683594 132.445313 145.019531 131.726563 145.683594 131.203125 C 146.339844 130.683594 147.253906 130.421875 148.417969 130.421875 C 149.585938 130.433594 150.503906 130.699219 151.167969 131.21875 C 151.824219 131.742188 152.152344 132.460938 152.152344 133.375 C 152.140625 134.292969 151.808594 135.011719 151.152344 135.53125 C 150.488281 136.054688 149.570313 136.308594 148.402344 136.296875 C 147.238281 136.296875 146.324219 136.039063 145.667969 135.515625 C 145.003906 134.996094 144.675781 134.277344 144.683594 133.359375 Z M 147.6875 123.359375 L 151.984375 123.375 L 151.984375 124.421875 L 147.734375 124.40625 C 147.058594 124.40625 146.554688 124.527344 146.21875 124.765625 C 145.886719 125.007813 145.71875 125.359375 145.71875 125.828125 C 145.71875 126.390625 145.917969 126.839844 146.3125 127.171875 C 146.710938 127.496094 147.257813 127.65625 147.953125 127.65625 L 151.96875 127.671875 L 151.96875 128.734375 L 144.859375 128.71875 L 144.859375 127.65625 L 145.96875 127.65625 C 145.554688 127.40625 145.242188 127.117188 145.03125 126.78125 C 144.8125 126.4375 144.703125 126.042969 144.703125 125.59375 C 144.703125 124.867188 144.960938 124.3125 145.46875 123.9375 C 145.96875 123.554688 146.710938 123.359375 147.6875 123.359375 Z M 147.585938 113.453125 C 147.679688 113.203125 147.878906 112.964844 148.179688 112.734375 C 148.484375 112.496094 148.898438 112.257813 149.429688 112.015625 L 152.039063 110.859375 L 152.023438 112.109375 L 149.585938 113.203125 C 148.953125 113.464844 148.535156 113.730469 148.335938 114 C 148.128906 114.261719 148.023438 114.621094 148.023438 115.078125 L 148.007813 116.34375 L 152.007813 116.359375 L 152.007813 117.5 L 142.523438 117.46875 L 142.539063 114.875 C 142.539063 113.898438 142.769531 113.167969 143.226563 112.6875 C 143.675781 112.210938 144.359375 111.976563 145.273438 111.984375 C 145.867188 111.984375 146.363281 112.109375 146.757813 112.359375 C 147.15625 112.609375 147.429688 112.976563 147.585938 113.453125 Z M 143.585938 116.328125 L 146.945313 116.34375 L 146.960938 114.890625 C 146.960938 114.328125 146.820313 113.90625 146.539063 113.625 C 146.25 113.34375 145.828125 113.203125 145.273438 113.203125 C 144.722656 113.195313 144.304688 113.328125 144.023438 113.609375 C 143.742188 113.890625 143.601563 114.3125 143.601563 114.875 Z M 144.921875 109.40625 L 144.921875 108.359375 L 152.03125 108.375 L 152.03125 109.421875 Z M 142.15625 109.390625 L 142.15625 108.34375 L 143.640625 108.34375 L 143.640625 109.390625 Z M 144.933594 106.921875 L 144.933594 105.8125 L 150.917969 103.828125 L 144.949219 101.8125 L 144.949219 100.6875 L 152.058594 103.109375 L 152.058594 104.53125 Z M 148.238281 93.765625 L 148.800781 93.765625 L 148.785156 98.609375 C 149.597656 98.570313 150.21875 98.355469 150.644531 97.96875 C 151.0625 97.574219 151.269531 97.027344 151.269531 96.328125 C 151.269531 95.921875 151.21875 95.53125 151.113281 95.15625 C 151 94.78125 150.832031 94.40625 150.613281 94.03125 L 151.722656 94.03125 C 151.902344 94.40625 152.035156 94.792969 152.128906 95.1875 C 152.222656 95.585938 152.269531 95.984375 152.269531 96.390625 C 152.257813 97.414063 151.925781 98.226563 151.269531 98.828125 C 150.605469 99.421875 149.707031 99.714844 148.582031 99.703125 C 147.417969 99.703125 146.496094 99.421875 145.816406 98.859375 C 145.128906 98.289063 144.792969 97.523438 144.800781 96.5625 C 144.800781 95.699219 145.109375 95.015625 145.722656 94.515625 C 146.339844 94.015625 147.175781 93.765625 148.238281 93.765625 Z M 147.894531 94.828125 C 147.261719 94.828125 146.75 94.984375 146.363281 95.296875 C 145.980469 95.609375 145.785156 96.027344 145.785156 96.546875 C 145.785156 97.140625 145.96875 97.617188 146.332031 97.96875 C 146.699219 98.3125 147.214844 98.511719 147.878906 98.5625 Z M 146.085938 88.328125 C 146.015625 88.445313 145.960938 88.574219 145.929688 88.71875 C 145.890625 88.855469 145.867188 89.007813 145.867188 89.171875 C 145.867188 89.765625 146.082031 90.226563 146.507813 90.546875 C 146.925781 90.859375 147.535156 91.015625 148.335938 91.015625 L 152.085938 91.03125 L 152.085938 92.09375 L 144.976563 92.078125 L 144.976563 91.015625 L 146.085938 91.015625 C 145.660156 90.796875 145.34375 90.511719 145.132813 90.15625 C 144.925781 89.804688 144.820313 89.375 144.820313 88.875 C 144.820313 88.804688 144.828125 88.726563 144.835938 88.640625 C 144.847656 88.546875 144.863281 88.445313 144.882813 88.328125 Z M 146.085938 88.328125 "/>
<path style=" stroke:none;fill-rule:evenodd;fill:rgb(41.960784%,58.039216%,69.019608%);fill-opacity:1;" d="M 142.367188 165.5 L 142.367188 164.359375 L 146.257813 164.375 L 146.273438 160.171875 L 142.382813 160.15625 L 142.398438 159 L 151.882813 159.03125 L 151.867188 160.1875 L 147.351563 160.171875 L 147.335938 164.375 L 151.851563 164.390625 L 151.851563 165.53125 Z M 149.066406 156.875 L 144.769531 156.875 L 144.769531 155.828125 L 149.035156 155.828125 C 149.703125 155.839844 150.207031 155.730469 150.550781 155.5 C 150.894531 155.261719 151.066406 154.90625 151.066406 154.4375 C 151.066406 153.867188 150.871094 153.417969 150.472656 153.09375 C 150.066406 152.761719 149.515625 152.589844 148.816406 152.578125 L 144.785156 152.578125 L 144.785156 151.515625 L 151.894531 151.53125 L 151.894531 152.59375 L 150.800781 152.59375 C 151.238281 152.84375 151.5625 153.140625 151.769531 153.484375 C 151.976563 153.820313 152.082031 154.210938 152.082031 154.65625 C 152.070313 155.386719 151.8125 155.945313 151.300781 156.328125 C 150.792969 156.703125 150.046875 156.886719 149.066406 156.875 Z M 144.613281 154.234375 Z M 145.890625 145.140625 L 142.046875 145.125 L 142.046875 144.078125 L 151.921875 144.109375 L 151.921875 145.15625 L 150.859375 145.15625 C 151.277344 145.375 151.589844 145.65625 151.796875 146 C 152.003906 146.335938 152.109375 146.734375 152.109375 147.203125 C 152.097656 147.984375 151.75 148.621094 151.0625 149.109375 C 150.375 149.589844 149.476563 149.824219 148.359375 149.8125 C 147.246094 149.8125 146.34375 149.574219 145.65625 149.09375 C 144.96875 148.605469 144.632813 147.96875 144.640625 147.1875 C 144.640625 146.71875 144.746094 146.320313 144.953125 145.984375 C 145.152344 145.640625 145.464844 145.359375 145.890625 145.140625 Z M 148.359375 148.71875 C 149.214844 148.730469 149.890625 148.578125 150.390625 148.265625 C 150.882813 147.945313 151.125 147.507813 151.125 146.953125 C 151.125 146.390625 150.882813 145.953125 150.390625 145.640625 C 149.902344 145.320313 149.230469 145.152344 148.375 145.140625 C 147.511719 145.140625 146.839844 145.304688 146.359375 145.625 C 145.871094 145.9375 145.625 146.375 145.625 146.9375 C 145.625 147.492188 145.867188 147.929688 146.34375 148.25 C 146.824219 148.5625 147.496094 148.71875 148.359375 148.71875 Z M 145.039063 137.84375 L 146.148438 137.84375 C 145.984375 138.148438 145.859375 138.460938 145.773438 138.78125 C 145.691406 139.09375 145.648438 139.421875 145.648438 139.765625 C 145.648438 140.289063 145.738281 140.683594 145.914063 140.953125 C 146.082031 141.214844 146.34375 141.34375 146.695313 141.34375 C 146.96875 141.34375 147.179688 141.25 147.335938 141.0625 C 147.484375 140.867188 147.632813 140.484375 147.789063 139.921875 L 147.882813 139.578125 C 148.0625 138.828125 148.3125 138.296875 148.632813 137.984375 C 148.957031 137.671875 149.40625 137.523438 149.976563 137.53125 C 150.644531 137.53125 151.171875 137.765625 151.554688 138.234375 C 151.9375 138.703125 152.132813 139.351563 152.132813 140.171875 C 152.121094 140.507813 152.078125 140.859375 152.007813 141.234375 C 151.933594 141.609375 151.820313 142 151.664063 142.40625 L 150.460938 142.40625 C 150.691406 142.023438 150.863281 141.640625 150.976563 141.265625 C 151.082031 140.890625 151.140625 140.515625 151.148438 140.140625 C 151.148438 139.652344 151.054688 139.277344 150.867188 139.015625 C 150.679688 138.746094 150.414063 138.609375 150.070313 138.609375 C 149.757813 138.609375 149.519531 138.703125 149.351563 138.890625 C 149.175781 139.078125 149.007813 139.496094 148.851563 140.140625 L 148.757813 140.5 C 148.59375 141.15625 148.351563 141.632813 148.039063 141.921875 C 147.726563 142.214844 147.296875 142.359375 146.742188 142.359375 C 146.078125 142.359375 145.5625 142.148438 145.195313 141.71875 C 144.832031 141.28125 144.65625 140.671875 144.664063 139.890625 C 144.664063 139.507813 144.695313 139.140625 144.757813 138.796875 C 144.820313 138.453125 144.914063 138.136719 145.039063 137.84375 Z M 145.667969 133.359375 C 145.667969 133.921875 145.914063 134.371094 146.402344 134.703125 C 146.882813 135.027344 147.550781 135.1875 148.402344 135.1875 C 149.257813 135.199219 149.929688 135.042969 150.417969 134.71875 C 150.910156 134.386719 151.152344 133.9375 151.152344 133.375 C 151.152344 132.8125 150.910156 132.371094 150.417969 132.046875 C 149.929688 131.714844 149.261719 131.542969 148.417969 131.53125 C 147.574219 131.53125 146.910156 131.699219 146.417969 132.03125 C 145.917969 132.355469 145.667969 132.796875 145.667969 133.359375 Z M 144.683594 133.359375 C 144.683594 132.445313 145.019531 131.726563 145.683594 131.203125 C 146.339844 130.683594 147.253906 130.421875 148.417969 130.421875 C 149.585938 130.433594 150.503906 130.699219 151.167969 131.21875 C 151.824219 131.742188 152.152344 132.460938 152.152344 133.375 C 152.140625 134.292969 151.808594 135.011719 151.152344 135.53125 C 150.488281 136.054688 149.570313 136.308594 148.402344 136.296875 C 147.238281 136.296875 146.324219 136.039063 145.667969 135.515625 C 145.003906 134.996094 144.675781 134.277344 144.683594 133.359375 Z M 147.6875 123.359375 L 151.984375 123.375 L 151.984375 124.421875 L 147.734375 124.40625 C 147.058594 124.40625 146.554688 124.527344 146.21875 124.765625 C 145.886719 125.007813 145.71875 125.359375 145.71875 125.828125 C 145.71875 126.390625 145.917969 126.839844 146.3125 127.171875 C 146.710938 127.496094 147.257813 127.65625 147.953125 127.65625 L 151.96875 127.671875 L 151.96875 128.734375 L 144.859375 128.71875 L 144.859375 127.65625 L 145.96875 127.65625 C 145.554688 127.40625 145.242188 127.117188 145.03125 126.78125 C 144.8125 126.4375 144.703125 126.042969 144.703125 125.59375 C 144.703125 124.867188 144.960938 124.3125 145.46875 123.9375 C 145.96875 123.554688 146.710938 123.359375 147.6875 123.359375 Z M 147.585938 113.453125 C 147.679688 113.203125 147.878906 112.964844 148.179688 112.734375 C 148.484375 112.496094 148.898438 112.257813 149.429688 112.015625 L 152.039063 110.859375 L 152.023438 112.109375 L 149.585938 113.203125 C 148.953125 113.464844 148.535156 113.730469 148.335938 114 C 148.128906 114.261719 148.023438 114.621094 148.023438 115.078125 L 148.007813 116.34375 L 152.007813 116.359375 L 152.007813 117.5 L 142.523438 117.46875 L 142.539063 114.875 C 142.539063 113.898438 142.769531 113.167969 143.226563 112.6875 C 143.675781 112.210938 144.359375 111.976563 145.273438 111.984375 C 145.867188 111.984375 146.363281 112.109375 146.757813 112.359375 C 147.15625 112.609375 147.429688 112.976563 147.585938 113.453125 Z M 143.585938 116.328125 L 146.945313 116.34375 L 146.960938 114.890625 C 146.960938 114.328125 146.820313 113.90625 146.539063 113.625 C 146.25 113.34375 145.828125 113.203125 145.273438 113.203125 C 144.722656 113.195313 144.304688 113.328125 144.023438 113.609375 C 143.742188 113.890625 143.601563 114.3125 143.601563 114.875 Z M 144.921875 109.40625 L 144.921875 108.359375 L 152.03125 108.375 L 152.03125 109.421875 Z M 142.15625 109.390625 L 142.15625 108.34375 L 143.640625 108.34375 L 143.640625 109.390625 Z M 144.933594 106.921875 L 144.933594 105.8125 L 150.917969 103.828125 L 144.949219 101.8125 L 144.949219 100.6875 L 152.058594 103.109375 L 152.058594 104.53125 Z M 148.238281 93.765625 L 148.800781 93.765625 L 148.785156 98.609375 C 149.597656 98.570313 150.21875 98.355469 150.644531 97.96875 C 151.0625 97.574219 151.269531 97.027344 151.269531 96.328125 C 151.269531 95.921875 151.21875 95.53125 151.113281 95.15625 C 151 94.78125 150.832031 94.40625 150.613281 94.03125 L 151.722656 94.03125 C 151.902344 94.40625 152.035156 94.792969 152.128906 95.1875 C 152.222656 95.585938 152.269531 95.984375 152.269531 96.390625 C 152.257813 97.414063 151.925781 98.226563 151.269531 98.828125 C 150.605469 99.421875 149.707031 99.714844 148.582031 99.703125 C 147.417969 99.703125 146.496094 99.421875 145.816406 98.859375 C 145.128906 98.289063 144.792969 97.523438 144.800781 96.5625 C 144.800781 95.699219 145.109375 95.015625 145.722656 94.515625 C 146.339844 94.015625 147.175781 93.765625 148.238281 93.765625 Z M 147.894531 94.828125 C 147.261719 94.828125 146.75 94.984375 146.363281 95.296875 C 145.980469 95.609375 145.785156 96.027344 145.785156 96.546875 C 145.785156 97.140625 145.96875 97.617188 146.332031 97.96875 C 146.699219 98.3125 147.214844 98.511719 147.878906 98.5625 Z M 146.085938 88.328125 C 146.015625 88.445313 145.960938 88.574219 145.929688 88.71875 C 145.890625 88.855469 145.867188 89.007813 145.867188 89.171875 C 145.867188 89.765625 146.082031 90.226563 146.507813 90.546875 C 146.925781 90.859375 147.535156 91.015625 148.335938 91.015625 L 152.085938 91.03125 L 152.085938 92.09375 L 144.976563 92.078125 L 144.976563 91.015625 L 146.085938 91.015625 C 145.660156 90.796875 145.34375 90.511719 145.132813 90.15625 C 144.925781 89.804688 144.820313 89.375 144.820313 88.875 C 144.820313 88.804688 144.828125 88.726563 144.835938 88.640625 C 144.847656 88.546875 144.863281 88.445313 144.882813 88.328125 Z M 146.085938 88.328125 "/>
</g>
</svg>

