<?xml version="1.0" encoding="UTF-8"?>
<svg xmlns="http://www.w3.org/2000/svg" xmlns:xlink="http://www.w3.org/1999/xlink" width="256pt" height="256pt" viewBox="0 0 256 256" version="1.1">
<g id="surface2">
<rect x="0" y="0" width="256" height="256" style="fill:rgb(94.901961%,93.72549%,91.372549%);fill-opacity:1;stroke:none;"/>
<path style=" stroke:none;fill-rule:evenodd;fill:rgb(60%,70.196078%,80%);fill-opacity:1;" d="M -4 -4 L 259 -4 Z M -8233201.910156 5512043.703125 Z M -8233201.910156 5512043.703125 "/>
<path style="fill:none;stroke-width:1;stroke-linecap:round;stroke-linejoin:round;stroke:rgb(100%,100%,100%);stroke-opacity:1;stroke-dasharray:2,3;stroke-miterlimit:10;" d="M -2 191.179688 L 0.523438 188.210938 L 0.734375 183.523438 L -0.757813 174.375 L -2 171.191406 M -2 157.980469 L 6.628906 152.5625 L 11.800781 147.972656 L 13.875 145.566406 L 15.648438 142.570313 L 16.835938 139.933594 L 17.441406 136.613281 L 17.789063 130.589844 L 17.371094 112.324219 L 16.484375 108.449219 L 12.828125 100.539063 "/>
<path style="fill:none;stroke-width:1;stroke-linecap:round;stroke-linejoin:round;stroke:rgb(100%,100%,100%);stroke-opacity:1;stroke-dasharray:2,3;stroke-miterlimit:10;" d="M 191.410156 207.613281 L 209.441406 195.734375 L 227.941406 179.238281 L 232.441406 159.234375 L 218.441406 141.234375 L 183.441406 132.234375 L 156.941406 128.738281 L 152.941406 135.734375 L 142.441406 136.734375 L 132.441406 128.738281 L 95.441406 131.734375 L 77.441406 127.234375 L 70.941406 115.234375 "/>
<path style="fill:none;stroke-width:1;stroke-linecap:round;stroke-linejoin:round;stroke:rgb(100%,100%,100%);stroke-opacity:1;stroke-dasharray:2,3;stroke-miterlimit:10;" d="M -2 56.15625 L 18.941406 15.738281 L 30.941406 1.738281 L 32.40625 -2 "/>
<path style="fill:none;stroke-width:1;stroke-linecap:round;stroke-linejoin:round;stroke:rgb(100%,100%,100%);stroke-opacity:1;stroke-dasharray:2,3;stroke-miterlimit:10;" d="M 214.78125 249.15625 L 209.5625 235.710938 L 198.613281 217.675781 L 191.410156 207.613281 L 185.328125 199.117188 L 175.425781 185.511719 L 169.4375 180.007813 L 160.070313 173.757813 L 154.082031 167.214844 L 144.179688 162.492188 L 119.175781 157.21875 L 96.78125 148.59375 L 81.402344 140.453125 L 75.160156 136.808594 L 68.121094 126.878906 L 70.941406 115.234375 L 57.941406 111.238281 L 33.941406 110.734375 L 16.441406 101.738281 L 12.828125 100.539063 L 7.441406 98.734375 L -2 97.769531 "/>
<path style="fill:none;stroke-width:9;stroke-linecap:round;stroke-linejoin:round;stroke:rgb(75.686275%,70.980392%,61.568627%);stroke-opacity:1;stroke-miterlimit:10;" d="M 162.054688 265 L 166.175781 263.96875 L 188.546875 260.417969 L 195.558594 258.660156 L 203.574219 255.796875 L 207.046875 254.234375 L 212.523438 250.945313 L 214.78125 249.15625 L 216.578125 247.722656 L 219.722656 245.054688 L 224.105469 240.722656 L 228.625 235.710938 L 233.679688 228.613281 L 237.945313 220.703125 L 251.320313 189.515625 L 253.90625 184.5 L 258.125 177.925781 L 264.996094 170.242188 L 265 170.238281 "/>
<path style="fill:none;stroke-width:7;stroke-linecap:round;stroke-linejoin:round;stroke:rgb(100%,99.215686%,54.509804%);stroke-opacity:1;stroke-miterlimit:10;" d="M 162.054688 265 L 166.175781 263.96875 L 188.546875 260.417969 L 195.558594 258.660156 L 203.574219 255.796875 L 207.046875 254.234375 L 212.523438 250.945313 L 214.78125 249.15625 L 216.578125 247.722656 L 219.722656 245.054688 L 224.105469 240.722656 L 228.625 235.710938 L 233.679688 228.613281 L 237.945313 220.703125 L 251.320313 189.515625 L 253.90625 184.5 L 258.125 177.925781 L 264.996094 170.242188 L 265 170.238281 "/>
</g>
</svg>

