<?xml version="1.0" encoding="UTF-8"?>
<svg xmlns="http://www.w3.org/2000/svg" xmlns:xlink="http://www.w3.org/1999/xlink" width="256pt" height="256pt" viewBox="0 0 256 256" version="1.1">
<g id="surface2">
<rect x="0" y="0" width="256" height="256" style="fill:rgb(94.901961%,93.72549%,91.372549%);fill-opacity:1;stroke:none;"/>
<path style="fill:none;stroke-width:8;stroke-linecap:round;stroke-linejoin:round;stroke:rgb(75.686275%,70.980392%,61.568627%);stroke-opacity:1;stroke-miterlimit:10;" d="M 264 117.707031 L 259.515625 114.09375 L 247 105.144531 L 244.671875 103.964844 L 227.566406 97.703125 L 216.777344 92.261719 L 212.816406 90.949219 L 208.390625 90.457031 L 203.496094 90.816406 L 201.492188 90.621094 L 199.09375 89.769531 L 192.566406 84.261719 L 190.378906 83.476563 L 185.835938 83.246094 L 174.976563 83.605469 L 172.832031 82.949219 L 166.5625 76.097656 L 164.441406 74.789063 L 161.414063 73.902344 L 158.105469 73.640625 L 147.363281 74.722656 L 139.535156 75.902344 L 130.820313 76.492188 L 122.59375 75.3125 L 119.914063 74.425781 L 112.808594 69.738281 L 106.375 64.429688 L 104.882813 63.90625 L 95.914063 65.019531 L 87.429688 65.019531 L 80.417969 64.496094 L 72.121094 62.429688 L 62.125 60.527344 L 56.347656 58.332031 L 49.472656 55.25 L 41.738281 52.53125 L 36.585938 51.351563 L 28.453125 48.628906 L 24.914063 47.152344 L 22.257813 47.023438 L 19.296875 47.546875 L 17.339844 48.433594 L 10.535156 52.726563 L 9.066406 53.347656 L -1.582031 53.414063 L -6.566406 52.757813 L -9 52.710938 "/>
<path style="fill:none;stroke-width:6;stroke-linecap:round;stroke-linejoin:round;stroke:rgb(100%,100%,100%);stroke-opacity:1;stroke-miterlimit:10;" d="M 264 117.707031 L 259.515625 114.09375 L 247 105.144531 L 244.671875 103.964844 L 227.566406 97.703125 L 216.777344 92.261719 L 212.816406 90.949219 L 208.390625 90.457031 L 203.496094 90.816406 L 201.492188 90.621094 L 199.09375 89.769531 L 192.566406 84.261719 L 190.378906 83.476563 L 185.835938 83.246094 L 174.976563 83.605469 L 172.832031 82.949219 L 166.5625 76.097656 L 164.441406 74.789063 L 161.414063 73.902344 L 158.105469 73.640625 L 147.363281 74.722656 L 139.535156 75.902344 L 130.820313 76.492188 L 122.59375 75.3125 L 119.914063 74.425781 L 112.808594 69.738281 L 106.375 64.429688 L 104.882813 63.90625 L 95.914063 65.019531 L 87.429688 65.019531 L 80.417969 64.496094 L 72.121094 62.429688 L 62.125 60.527344 L 56.347656 58.332031 L 49.472656 55.25 L 41.738281 52.53125 L 36.585938 51.351563 L 28.453125 48.628906 L 24.914063 47.152344 L 22.257813 47.023438 L 19.296875 47.546875 L 17.339844 48.433594 L 10.535156 52.726563 L 9.066406 53.347656 L -1.582031 53.414063 L -6.566406 52.757813 L -9 52.710938 "/>
<path style="fill:none;stroke-width:3;stroke-linecap:round;stroke-linejoin:round;stroke:rgb(100%,100%,100%);stroke-opacity:1;stroke-miterlimit:10;" d="M 109.980469 71.0625 L 111.339844 69.390625 L 110.105469 68.390625 L 110.667969 67.703125 L 112.652344 69.3125 L 110.480469 71.984375 C 110 71.984375 109.535156 71.898438 109.089844 71.734375 C 108.652344 71.566406 108.230469 71.316406 107.824219 70.984375 C 106.949219 70.273438 106.496094 69.429688 106.464844 68.453125 C 106.441406 67.484375 106.84375 66.5 107.667969 65.5 C 108.488281 64.480469 109.378906 63.886719 110.339844 63.71875 C 111.296875 63.554688 112.214844 63.824219 113.089844 64.53125 C 113.453125 64.835938 113.761719 65.167969 114.011719 65.53125 C 114.261719 65.898438 114.441406 66.292969 114.558594 66.71875 L 113.824219 67.609375 C 113.75 67.121094 113.609375 66.683594 113.402344 66.296875 C 113.191406 65.902344 112.917969 65.5625 112.574219 65.28125 C 111.894531 64.730469 111.207031 64.527344 110.511719 64.671875 C 109.824219 64.808594 109.136719 65.296875 108.449219 66.140625 C 107.761719 66.976563 107.417969 67.746094 107.417969 68.453125 C 107.425781 69.160156 107.769531 69.789063 108.449219 70.34375 C 108.71875 70.570313 108.980469 70.742188 109.230469 70.859375 C 109.480469 70.972656 109.730469 71.039063 109.980469 71.0625 Z M 115.46875 72.648438 C 114.875 72.253906 114.40625 72.0625 114.0625 72.070313 C 113.726563 72.070313 113.441406 72.253906 113.203125 72.617188 C 113.015625 72.910156 112.953125 73.195313 113.015625 73.476563 C 113.078125 73.765625 113.253906 74.011719 113.546875 74.210938 C 113.960938 74.480469 114.398438 74.53125 114.859375 74.367188 C 115.328125 74.210938 115.738281 73.871094 116.09375 73.351563 L 116.21875 73.148438 Z M 117.171875 73.289063 L 115.28125 76.164063 L 114.546875 75.679688 L 115.046875 74.929688 C 114.671875 75.117188 114.304688 75.195313 113.953125 75.164063 C 113.609375 75.140625 113.253906 75.011719 112.890625 74.773438 C 112.421875 74.46875 112.144531 74.085938 112.0625 73.617188 C 111.988281 73.148438 112.113281 72.675781 112.4375 72.195313 C 112.800781 71.625 113.25 71.304688 113.78125 71.242188 C 114.3125 71.179688 114.914063 71.375 115.59375 71.820313 L 116.640625 72.507813 L 116.6875 72.429688 C 116.9375 72.046875 117.015625 71.675781 116.921875 71.320313 C 116.835938 70.957031 116.59375 70.640625 116.1875 70.367188 C 115.9375 70.203125 115.660156 70.078125 115.359375 69.992188 C 115.066406 69.898438 114.765625 69.847656 114.453125 69.835938 L 114.953125 69.085938 C 115.304688 69.140625 115.628906 69.222656 115.921875 69.335938 C 116.210938 69.441406 116.476563 69.578125 116.71875 69.742188 C 117.375 70.171875 117.738281 70.679688 117.8125 71.273438 C 117.894531 71.859375 117.679688 72.53125 117.171875 73.289063 Z M 121.5 70.785156 L 120.75 72.300781 L 122.390625 73.113281 L 122.046875 73.800781 L 120.40625 72.988281 L 118.96875 75.925781 C 118.75 76.363281 118.660156 76.671875 118.703125 76.847656 C 118.753906 77.023438 118.945313 77.195313 119.28125 77.363281 L 120.09375 77.769531 L 119.734375 78.519531 L 118.921875 78.113281 C 118.304688 77.808594 117.941406 77.472656 117.828125 77.097656 C 117.722656 76.734375 117.835938 76.214844 118.171875 75.535156 L 119.609375 72.597656 L 119.015625 72.300781 L 119.359375 71.613281 L 119.953125 71.910156 L 120.703125 70.394531 Z M 127.035156 76.6875 L 126.957031 77.171875 L 122.925781 76.484375 C 122.851563 77.164063 122.945313 77.703125 123.207031 78.109375 C 123.476563 78.507813 123.898438 78.757813 124.472656 78.859375 C 124.804688 78.921875 125.136719 78.933594 125.472656 78.890625 C 125.804688 78.851563 126.144531 78.765625 126.488281 78.640625 L 126.332031 79.546875 C 125.988281 79.648438 125.644531 79.710938 125.300781 79.734375 C 124.957031 79.753906 124.617188 79.734375 124.285156 79.671875 C 123.429688 79.523438 122.800781 79.132813 122.394531 78.5 C 121.988281 77.867188 121.867188 77.078125 122.035156 76.140625 C 122.199219 75.171875 122.570313 74.449219 123.144531 73.96875 C 123.714844 73.480469 124.402344 73.304688 125.207031 73.4375 C 125.925781 73.5625 126.445313 73.917969 126.769531 74.5 C 127.101563 75.074219 127.191406 75.804688 127.035156 76.6875 Z M 126.207031 76.25 C 126.289063 75.710938 126.226563 75.261719 126.019531 74.90625 C 125.820313 74.542969 125.507813 74.324219 125.082031 74.25 C 124.589844 74.167969 124.167969 74.257813 123.816406 74.515625 C 123.472656 74.765625 123.226563 75.164063 123.082031 75.703125 Z M 135.175781 76.433594 C 135.394531 76.507813 135.605469 76.664063 135.816406 76.902344 C 136.035156 77.132813 136.261719 77.472656 136.503906 77.917969 L 137.628906 80.042969 L 136.582031 80.105469 L 135.519531 78.105469 C 135.246094 77.597656 134.992188 77.261719 134.753906 77.105469 C 134.523438 76.941406 134.222656 76.867188 133.847656 76.886719 L 132.785156 76.964844 L 133.003906 80.355469 L 132.019531 80.417969 L 131.488281 72.417969 L 133.691406 72.277344 C 134.511719 72.214844 135.136719 72.363281 135.566406 72.714844 C 135.992188 73.070313 136.230469 73.636719 136.285156 74.417969 C 136.316406 74.917969 136.238281 75.347656 136.050781 75.699219 C 135.863281 76.042969 135.570313 76.289063 135.175781 76.433594 Z M 132.535156 73.246094 L 132.722656 76.089844 L 133.941406 76.011719 C 134.410156 75.972656 134.753906 75.824219 134.972656 75.574219 C 135.199219 75.316406 135.300781 74.949219 135.269531 74.480469 C 135.238281 74.011719 135.089844 73.667969 134.832031 73.449219 C 134.582031 73.222656 134.222656 73.128906 133.753906 73.167969 Z M 140.496094 74.34375 C 140.015625 74.40625 139.660156 74.664063 139.433594 75.109375 C 139.214844 75.546875 139.144531 76.121094 139.230469 76.828125 C 139.324219 77.546875 139.53125 78.09375 139.855469 78.46875 C 140.1875 78.84375 140.59375 79 141.074219 78.9375 C 141.542969 78.875 141.886719 78.625 142.105469 78.1875 C 142.332031 77.75 142.402344 77.171875 142.308594 76.453125 C 142.222656 75.746094 142.015625 75.203125 141.683594 74.828125 C 141.359375 74.445313 140.964844 74.28125 140.496094 74.34375 Z M 140.386719 73.515625 C 141.144531 73.421875 141.78125 73.625 142.292969 74.125 C 142.800781 74.617188 143.113281 75.351563 143.230469 76.328125 C 143.355469 77.308594 143.230469 78.105469 142.855469 78.71875 C 142.488281 79.335938 141.925781 79.6875 141.167969 79.78125 C 140.386719 79.875 139.746094 79.671875 139.246094 79.171875 C 138.746094 78.671875 138.433594 77.933594 138.308594 76.953125 C 138.191406 75.976563 138.3125 75.183594 138.667969 74.578125 C 139.03125 73.964844 139.605469 73.609375 140.386719 73.515625 Z M 147.128906 75.8125 C 146.417969 75.90625 145.933594 76.0625 145.675781 76.28125 C 145.425781 76.5 145.332031 76.828125 145.394531 77.265625 C 145.433594 77.609375 145.570313 77.871094 145.800781 78.046875 C 146.039063 78.214844 146.335938 78.277344 146.691406 78.234375 C 147.179688 78.171875 147.550781 77.929688 147.800781 77.5 C 148.050781 77.074219 148.132813 76.546875 148.050781 75.921875 L 148.019531 75.6875 Z M 148.832031 75.171875 L 149.285156 78.578125 L 148.410156 78.6875 L 148.285156 77.78125 C 148.128906 78.179688 147.910156 78.480469 147.628906 78.6875 C 147.347656 78.898438 146.992188 79.03125 146.566406 79.09375 C 146.011719 79.167969 145.554688 79.054688 145.191406 78.75 C 144.824219 78.449219 144.601563 78.011719 144.519531 77.4375 C 144.433594 76.773438 144.570313 76.242188 144.925781 75.84375 C 145.277344 75.449219 145.855469 75.199219 146.660156 75.09375 L 147.910156 74.921875 L 147.894531 74.828125 C 147.839844 74.382813 147.660156 74.054688 147.347656 73.84375 C 147.042969 73.625 146.648438 73.546875 146.160156 73.609375 C 145.867188 73.652344 145.582031 73.734375 145.300781 73.859375 C 145.019531 73.976563 144.753906 74.136719 144.503906 74.34375 L 144.378906 73.4375 C 144.691406 73.25 144.992188 73.105469 145.285156 73 C 145.585938 72.886719 145.878906 72.808594 146.160156 72.765625 C 146.941406 72.671875 147.550781 72.824219 147.988281 73.21875 C 148.433594 73.617188 148.714844 74.265625 148.832031 75.171875 Z M 154.015625 72.941406 L 153.6875 69.707031 L 154.5625 69.613281 L 155.40625 77.925781 L 154.53125 78.019531 L 154.4375 77.113281 C 154.289063 77.5 154.082031 77.792969 153.8125 77.988281 C 153.539063 78.1875 153.207031 78.308594 152.8125 78.347656 C 152.15625 78.421875 151.59375 78.191406 151.125 77.660156 C 150.664063 77.121094 150.390625 76.375 150.296875 75.425781 C 150.203125 74.480469 150.328125 73.703125 150.671875 73.097656 C 151.023438 72.484375 151.53125 72.140625 152.1875 72.066406 C 152.582031 72.027344 152.929688 72.078125 153.234375 72.222656 C 153.535156 72.371094 153.796875 72.609375 154.015625 72.941406 Z M 151.21875 75.347656 C 151.289063 76.078125 151.476563 76.628906 151.78125 77.003906 C 152.082031 77.378906 152.46875 77.546875 152.9375 77.503906 C 153.414063 77.453125 153.769531 77.214844 154 76.785156 C 154.226563 76.347656 154.304688 75.765625 154.234375 75.035156 C 154.160156 74.308594 153.96875 73.753906 153.65625 73.378906 C 153.34375 72.996094 152.945313 72.828125 152.46875 72.878906 C 152 72.921875 151.65625 73.160156 151.4375 73.597656 C 151.21875 74.035156 151.144531 74.621094 151.21875 75.347656 Z M 151.21875 75.347656 "/>
<path style=" stroke:none;fill-rule:evenodd;fill:rgb(20%,20%,20%);fill-opacity:1;" d="M 109.980469 71.0625 L 111.339844 69.390625 L 110.105469 68.390625 L 110.667969 67.703125 L 112.652344 69.3125 L 110.480469 71.984375 C 110 71.984375 109.535156 71.898438 109.089844 71.734375 C 108.652344 71.566406 108.230469 71.316406 107.824219 70.984375 C 106.949219 70.273438 106.496094 69.429688 106.464844 68.453125 C 106.441406 67.484375 106.84375 66.5 107.667969 65.5 C 108.488281 64.480469 109.378906 63.886719 110.339844 63.71875 C 111.296875 63.554688 112.214844 63.824219 113.089844 64.53125 C 113.453125 64.835938 113.761719 65.167969 114.011719 65.53125 C 114.261719 65.898438 114.441406 66.292969 114.558594 66.71875 L 113.824219 67.609375 C 113.75 67.121094 113.609375 66.683594 113.402344 66.296875 C 113.191406 65.902344 112.917969 65.5625 112.574219 65.28125 C 111.894531 64.730469 111.207031 64.527344 110.511719 64.671875 C 109.824219 64.808594 109.136719 65.296875 108.449219 66.140625 C 107.761719 66.976563 107.417969 67.746094 107.417969 68.453125 C 107.425781 69.160156 107.769531 69.789063 108.449219 70.34375 C 108.71875 70.570313 108.980469 70.742188 109.230469 70.859375 C 109.480469 70.972656 109.730469 71.039063 109.980469 71.0625 Z M 115.46875 72.648438 C 114.875 72.253906 114.40625 72.0625 114.0625 72.070313 C 113.726563 72.070313 113.441406 72.253906 113.203125 72.617188 C 113.015625 72.910156 112.953125 73.195313 113.015625 73.476563 C 113.078125 73.765625 113.253906 74.011719 113.546875 74.210938 C 113.960938 74.480469 114.398438 74.53125 114.859375 74.367188 C 115.328125 74.210938 115.738281 73.871094 116.09375 73.351563 L 116.21875 73.148438 Z M 117.171875 73.289063 L 115.28125 76.164063 L 114.546875 75.679688 L 115.046875 74.929688 C 114.671875 75.117188 114.304688 75.195313 113.953125 75.164063 C 113.609375 75.140625 113.253906 75.011719 112.890625 74.773438 C 112.421875 74.46875 112.144531 74.085938 112.0625 73.617188 C 111.988281 73.148438 112.113281 72.675781 112.4375 72.195313 C 112.800781 71.625 113.25 71.304688 113.78125 71.242188 C 114.3125 71.179688 114.914063 71.375 115.59375 71.820313 L 116.640625 72.507813 L 116.6875 72.429688 C 116.9375 72.046875 117.015625 71.675781 116.921875 71.320313 C 116.835938 70.957031 116.59375 70.640625 116.1875 70.367188 C 115.9375 70.203125 115.660156 70.078125 115.359375 69.992188 C 115.066406 69.898438 114.765625 69.847656 114.453125 69.835938 L 114.953125 69.085938 C 115.304688 69.140625 115.628906 69.222656 115.921875 69.335938 C 116.210938 69.441406 116.476563 69.578125 116.71875 69.742188 C 117.375 70.171875 117.738281 70.679688 117.8125 71.273438 C 117.894531 71.859375 117.679688 72.53125 117.171875 73.289063 Z M 121.5 70.785156 L 120.75 72.300781 L 122.390625 73.113281 L 122.046875 73.800781 L 120.40625 72.988281 L 118.96875 75.925781 C 118.75 76.363281 118.660156 76.671875 118.703125 76.847656 C 118.753906 77.023438 118.945313 77.195313 119.28125 77.363281 L 120.09375 77.769531 L 119.734375 78.519531 L 118.921875 78.113281 C 118.304688 77.808594 117.941406 77.472656 117.828125 77.097656 C 117.722656 76.734375 117.835938 76.214844 118.171875 75.535156 L 119.609375 72.597656 L 119.015625 72.300781 L 119.359375 71.613281 L 119.953125 71.910156 L 120.703125 70.394531 Z M 127.035156 76.6875 L 126.957031 77.171875 L 122.925781 76.484375 C 122.851563 77.164063 122.945313 77.703125 123.207031 78.109375 C 123.476563 78.507813 123.898438 78.757813 124.472656 78.859375 C 124.804688 78.921875 125.136719 78.933594 125.472656 78.890625 C 125.804688 78.851563 126.144531 78.765625 126.488281 78.640625 L 126.332031 79.546875 C 125.988281 79.648438 125.644531 79.710938 125.300781 79.734375 C 124.957031 79.753906 124.617188 79.734375 124.285156 79.671875 C 123.429688 79.523438 122.800781 79.132813 122.394531 78.5 C 121.988281 77.867188 121.867188 77.078125 122.035156 76.140625 C 122.199219 75.171875 122.570313 74.449219 123.144531 73.96875 C 123.714844 73.480469 124.402344 73.304688 125.207031 73.4375 C 125.925781 73.5625 126.445313 73.917969 126.769531 74.5 C 127.101563 75.074219 127.191406 75.804688 127.035156 76.6875 Z M 126.207031 76.25 C 126.289063 75.710938 126.226563 75.261719 126.019531 74.90625 C 125.820313 74.542969 125.507813 74.324219 125.082031 74.25 C 124.589844 74.167969 124.167969 74.257813 123.816406 74.515625 C 123.472656 74.765625 123.226563 75.164063 123.082031 75.703125 Z M 135.175781 76.433594 C 135.394531 76.507813 135.605469 76.664063 135.816406 76.902344 C 136.035156 77.132813 136.261719 77.472656 136.503906 77.917969 L 137.628906 80.042969 L 136.582031 80.105469 L 135.519531 78.105469 C 135.246094 77.597656 134.992188 77.261719 134.753906 77.105469 C 134.523438 76.941406 134.222656 76.867188 133.847656 76.886719 L 132.785156 76.964844 L 133.003906 80.355469 L 132.019531 80.417969 L 131.488281 72.417969 L 133.691406 72.277344 C 134.511719 72.214844 135.136719 72.363281 135.566406 72.714844 C 135.992188 73.070313 136.230469 73.636719 136.285156 74.417969 C 136.316406 74.917969 136.238281 75.347656 136.050781 75.699219 C 135.863281 76.042969 135.570313 76.289063 135.175781 76.433594 Z M 132.535156 73.246094 L 132.722656 76.089844 L 133.941406 76.011719 C 134.410156 75.972656 134.753906 75.824219 134.972656 75.574219 C 135.199219 75.316406 135.300781 74.949219 135.269531 74.480469 C 135.238281 74.011719 135.089844 73.667969 134.832031 73.449219 C 134.582031 73.222656 134.222656 73.128906 133.753906 73.167969 Z M 140.496094 74.34375 C 140.015625 74.40625 139.660156 74.664063 139.433594 75.109375 C 139.214844 75.546875 139.144531 76.121094 139.230469 76.828125 C 139.324219 77.546875 139.53125 78.09375 139.855469 78.46875 C 140.1875 78.84375 140.59375 79 141.074219 78.9375 C 141.542969 78.875 141.886719 78.625 142.105469 78.1875 C 142.332031 77.75 142.402344 77.171875 142.308594 76.453125 C 142.222656 75.746094 142.015625 75.203125 141.683594 74.828125 C 141.359375 74.445313 140.964844 74.28125 140.496094 74.34375 Z M 140.386719 73.515625 C 141.144531 73.421875 141.78125 73.625 142.292969 74.125 C 142.800781 74.617188 143.113281 75.351563 143.230469 76.328125 C 143.355469 77.308594 143.230469 78.105469 142.855469 78.71875 C 142.488281 79.335938 141.925781 79.6875 141.167969 79.78125 C 140.386719 79.875 139.746094 79.671875 139.246094 79.171875 C 138.746094 78.671875 138.433594 77.933594 138.308594 76.953125 C 138.191406 75.976563 138.3125 75.183594 138.667969 74.578125 C 139.03125 73.964844 139.605469 73.609375 140.386719 73.515625 Z M 147.128906 75.8125 C 146.417969 75.90625 145.933594 76.0625 145.675781 76.28125 C 145.425781 76.5 145.332031 76.828125 145.394531 77.265625 C 145.433594 77.609375 145.570313 77.871094 145.800781 78.046875 C 146.039063 78.214844 146.335938 78.277344 146.691406 78.234375 C 147.179688 78.171875 147.550781 77.929688 147.800781 77.5 C 148.050781 77.074219 148.132813 76.546875 148.050781 75.921875 L 148.019531 75.6875 Z M 148.832031 75.171875 L 149.285156 78.578125 L 148.410156 78.6875 L 148.285156 77.78125 C 148.128906 78.179688 147.910156 78.480469 147.628906 78.6875 C 147.347656 78.898438 146.992188 79.03125 146.566406 79.09375 C 146.011719 79.167969 145.554688 79.054688 145.191406 78.75 C 144.824219 78.449219 144.601563 78.011719 144.519531 77.4375 C 144.433594 76.773438 144.570313 76.242188 144.925781 75.84375 C 145.277344 75.449219 145.855469 75.199219 146.660156 75.09375 L 147.910156 74.921875 L 147.894531 74.828125 C 147.839844 74.382813 147.660156 74.054688 147.347656 73.84375 C 147.042969 73.625 146.648438 73.546875 146.160156 73.609375 C 145.867188 73.652344 145.582031 73.734375 145.300781 73.859375 C 145.019531 73.976563 144.753906 74.136719 144.503906 74.34375 L 144.378906 73.4375 C 144.691406 73.25 144.992188 73.105469 145.285156 73 C 145.585938 72.886719 145.878906 72.808594 146.160156 72.765625 C 146.941406 72.671875 147.550781 72.824219 147.988281 73.21875 C 148.433594 73.617188 148.714844 74.265625 148.832031 75.171875 Z M 154.015625 72.941406 L 153.6875 69.707031 L 154.5625 69.613281 L 155.40625 77.925781 L 154.53125 78.019531 L 154.4375 77.113281 C 154.289063 77.5 154.082031 77.792969 153.8125 77.988281 C 153.539063 78.1875 153.207031 78.308594 152.8125 78.347656 C 152.15625 78.421875 151.59375 78.191406 151.125 77.660156 C 150.664063 77.121094 150.390625 76.375 150.296875 75.425781 C 150.203125 74.480469 150.328125 73.703125 150.671875 73.097656 C 151.023438 72.484375 151.53125 72.140625 152.1875 72.066406 C 152.582031 72.027344 152.929688 72.078125 153.234375 72.222656 C 153.535156 72.371094 153.796875 72.609375 154.015625 72.941406 Z M 151.21875 75.347656 C 151.289063 76.078125 151.476563 76.628906 151.78125 77.003906 C 152.082031 77.378906 152.46875 77.546875 152.9375 77.503906 C 153.414063 77.453125 153.769531 77.214844 154 76.785156 C 154.226563 76.347656 154.304688 75.765625 154.234375 75.035156 C 154.160156 74.308594 153.96875 73.753906 153.65625 73.378906 C 153.34375 72.996094 152.945313 72.828125 152.46875 72.878906 C 152 72.921875 151.65625 73.160156 151.4375 73.597656 C 151.21875 74.035156 151.144531 74.621094 151.21875 75.347656 Z M 151.21875 75.347656 "/>
</g>
</svg>

