<?xml version="1.0" encoding="UTF-8"?>
<svg xmlns="http://www.w3.org/2000/svg" xmlns:xlink="http://www.w3.org/1999/xlink" width="256pt" height="256pt" viewBox="0 0 256 256" version="1.1">
<g id="surface2">
<rect x="0" y="0" width="256" height="256" style="fill:rgb(94.901961%,93.72549%,91.372549%);fill-opacity:1;stroke:none;"/>
<path style=" stroke:none;fill-rule:evenodd;fill:rgb(79.607843%,84.705882%,76.470588%);fill-opacity:1;" d="M 260 260 L 260 -4 L 260 252.441406 L 249.371094 260 Z M 260 260 "/>
<path style=" stroke:none;fill-rule:evenodd;fill:rgb(60%,70.196078%,80%);fill-opacity:1;" d="M -4 259 L -4 -4 L 259 -4 L -4 -4 Z M -8236870.886719 5335899.347656 Z M -8236870.886719 5337155.78125 Z M -8236870.886719 5337155.78125 "/>
<path style="fill:none;stroke-width:1;stroke-linecap:round;stroke-linejoin:round;stroke:rgb(70.196078%,77.647059%,83.137255%);stroke-opacity:1;stroke-miterlimit:10;" d="M -4 259 L -4 -4 L 259 -4 L -4 -4 L -4 259 "/>
<path style="fill:none;stroke-width:8;stroke-linecap:round;stroke-linejoin:round;stroke:rgb(75.686275%,70.980392%,61.568627%);stroke-opacity:1;stroke-miterlimit:10;" d="M -9 52.03125 L 6.488281 37.632813 L 23.941406 8.402344 L 31.210938 1.820313 L 51.449219 -9 "/>
<path style="fill:none;stroke-width:6;stroke-linecap:round;stroke-linejoin:round;stroke:rgb(100%,100%,100%);stroke-opacity:1;stroke-miterlimit:10;" d="M -9 52.03125 L 6.488281 37.632813 L 23.941406 8.402344 L 31.210938 1.820313 L 51.449219 -9 "/>
</g>
</svg>

