<?xml version="1.0" encoding="UTF-8"?>
<svg xmlns="http://www.w3.org/2000/svg" xmlns:xlink="http://www.w3.org/1999/xlink" width="256pt" height="256pt" viewBox="0 0 256 256" version="1.1">
<g id="surface2">
<rect x="0" y="0" width="256" height="256" style="fill:rgb(60%,70.196078%,80%);fill-opacity:1;stroke:none;"/>
<path style="fill:none;stroke-width:1;stroke-linecap:round;stroke-linejoin:round;stroke:rgb(70.196078%,77.647059%,83.137255%);stroke-opacity:1;stroke-miterlimit:10;" d="M -4 259 L 259 259 L 259 -4 L -4 -4 L -4 259 "/>
<path style="fill:none;stroke-width:6;stroke-linecap:round;stroke-linejoin:round;stroke:rgb(60%,70.196078%,80%);stroke-opacity:1;stroke-miterlimit:10;" d="M 152.277344 -7 L 77.910156 201.914063 L 59.808594 262 "/>
<path style="fill:none;stroke-width:3;stroke-linecap:round;stroke-linejoin:round;stroke:rgb(100%,100%,100%);stroke-opacity:1;stroke-miterlimit:10;" d="M 87.597656 161.316406 L 87.972656 160.253906 L 91.644531 161.566406 L 93.066406 157.597656 L 89.394531 156.285156 L 89.769531 155.191406 L 98.707031 158.378906 L 98.332031 159.472656 L 94.082031 157.957031 L 92.660156 161.925781 L 96.910156 163.441406 L 96.535156 164.503906 Z M 96.765625 155.433594 L 92.71875 153.980469 L 93.078125 152.996094 L 97.109375 154.433594 C 97.734375 154.652344 98.246094 154.710938 98.640625 154.605469 C 99.039063 154.492188 99.3125 154.214844 99.46875 153.777344 C 99.664063 153.238281 99.628906 152.746094 99.359375 152.308594 C 99.097656 151.863281 98.636719 151.523438 97.96875 151.292969 L 94.171875 149.933594 L 94.515625 148.933594 L 101.21875 151.324219 L 100.875 152.324219 L 99.84375 151.964844 C 100.175781 152.339844 100.378906 152.722656 100.453125 153.105469 C 100.535156 153.492188 100.5 153.898438 100.34375 154.324219 C 100.101563 155.011719 99.679688 155.449219 99.078125 155.636719 C 98.464844 155.824219 97.695313 155.757813 96.765625 155.433594 Z M 93.453125 151.433594 Z M 97.679688 143.300781 L 94.070313 142.003906 L 94.414063 141.019531 L 103.710938 144.332031 L 103.367188 145.316406 L 102.367188 144.957031 C 102.6875 145.300781 102.886719 145.671875 102.960938 146.066406 C 103.042969 146.453125 103.007813 146.863281 102.851563 147.300781 C 102.589844 148.042969 102.058594 148.527344 101.257813 148.753906 C 100.445313 148.972656 99.515625 148.894531 98.460938 148.519531 C 97.410156 148.144531 96.644531 147.621094 96.164063 146.941406 C 95.675781 146.253906 95.5625 145.542969 95.820313 144.800781 C 95.976563 144.363281 96.210938 144.019531 96.523438 143.769531 C 96.828125 143.511719 97.210938 143.355469 97.679688 143.300781 Z M 98.820313 147.488281 C 99.625 147.769531 100.3125 147.847656 100.882813 147.722656 C 101.457031 147.589844 101.828125 147.261719 102.007813 146.738281 C 102.203125 146.207031 102.121094 145.714844 101.757813 145.253906 C 101.40625 144.785156 100.828125 144.410156 100.023438 144.128906 C 99.210938 143.839844 98.523438 143.761719 97.960938 143.894531 C 97.398438 144.03125 97.019531 144.363281 96.820313 144.894531 C 96.644531 145.417969 96.734375 145.90625 97.085938 146.363281 C 97.429688 146.824219 98.007813 147.199219 98.820313 147.488281 Z M 99.308594 136.121094 L 100.339844 136.496094 C 100.089844 136.726563 99.871094 136.976563 99.683594 137.246094 C 99.496094 137.519531 99.347656 137.816406 99.230469 138.136719 C 99.054688 138.628906 99.007813 139.027344 99.089844 139.339844 C 99.164063 139.644531 99.367188 139.855469 99.699219 139.980469 C 99.960938 140.066406 100.195313 140.042969 100.402344 139.917969 C 100.613281 139.785156 100.878906 139.480469 101.199219 139.011719 L 101.402344 138.714844 C 101.820313 138.070313 102.230469 137.652344 102.636719 137.464844 C 103.042969 137.269531 103.519531 137.269531 104.058594 137.464844 C 104.691406 137.683594 105.109375 138.082031 105.308594 138.652344 C 105.515625 139.226563 105.484375 139.902344 105.214844 140.683594 C 105.097656 140.996094 104.941406 141.320313 104.746094 141.652344 C 104.558594 141.976563 104.324219 142.300781 104.042969 142.621094 L 102.902344 142.214844 C 103.246094 141.945313 103.535156 141.652344 103.761719 141.339844 C 103.992188 141.019531 104.167969 140.679688 104.292969 140.324219 C 104.457031 139.855469 104.496094 139.464844 104.402344 139.152344 C 104.316406 138.839844 104.113281 138.628906 103.792969 138.511719 C 103.503906 138.410156 103.246094 138.417969 103.027344 138.542969 C 102.800781 138.667969 102.496094 139.011719 102.121094 139.574219 L 101.917969 139.871094 C 101.554688 140.445313 101.175781 140.816406 100.777344 140.980469 C 100.382813 141.136719 99.925781 141.128906 99.402344 140.949219 C 98.777344 140.722656 98.367188 140.347656 98.167969 139.824219 C 97.972656 139.292969 98.003906 138.664063 98.261719 137.933594 C 98.398438 137.570313 98.554688 137.238281 98.730469 136.933594 C 98.898438 136.632813 99.089844 136.363281 99.308594 136.121094 Z M 101.382813 132.101563 C 101.195313 132.632813 101.28125 133.132813 101.632813 133.601563 C 101.988281 134.070313 102.566406 134.453125 103.367188 134.742188 C 104.171875 135.023438 104.859375 135.097656 105.429688 134.960938 C 105.992188 134.816406 106.367188 134.476563 106.554688 133.945313 C 106.742188 133.414063 106.65625 132.914063 106.304688 132.445313 C 105.953125 131.96875 105.378906 131.585938 104.585938 131.304688 C 103.796875 131.023438 103.113281 130.957031 102.539063 131.101563 C 101.957031 131.238281 101.570313 131.570313 101.382813 132.101563 Z M 100.460938 131.773438 C 100.765625 130.910156 101.316406 130.34375 102.117188 130.070313 C 102.921875 129.800781 103.867188 129.863281 104.960938 130.257813 C 106.066406 130.644531 106.835938 131.195313 107.273438 131.914063 C 107.71875 132.625 107.792969 133.410156 107.492188 134.273438 C 107.179688 135.140625 106.625 135.707031 105.835938 135.976563 C 105.046875 136.238281 104.097656 136.175781 102.992188 135.789063 C 101.898438 135.394531 101.128906 134.84375 100.679688 134.132813 C 100.222656 133.425781 100.148438 132.640625 100.460938 131.773438 Z M 106.625 123.359375 L 110.671875 124.796875 L 110.3125 125.78125 L 106.3125 124.359375 C 105.679688 124.132813 105.164063 124.074219 104.765625 124.1875 C 104.371094 124.304688 104.09375 124.585938 103.9375 125.03125 C 103.75 125.5625 103.792969 126.046875 104.0625 126.484375 C 104.335938 126.921875 104.796875 127.261719 105.453125 127.5 L 109.234375 128.84375 L 108.875 129.84375 L 102.171875 127.453125 L 102.53125 126.453125 L 103.578125 126.828125 C 103.265625 126.445313 103.0625 126.058594 102.96875 125.671875 C 102.875 125.289063 102.90625 124.886719 103.0625 124.46875 C 103.304688 123.78125 103.726563 123.34375 104.328125 123.15625 C 104.933594 122.960938 105.699219 123.027344 106.625 123.359375 Z M 109.800781 113.972656 C 109.980469 113.777344 110.25 113.613281 110.613281 113.488281 C 110.980469 113.363281 111.453125 113.28125 112.035156 113.238281 L 114.863281 113.003906 L 114.457031 114.175781 L 111.785156 114.394531 C 111.097656 114.4375 110.613281 114.550781 110.332031 114.738281 C 110.050781 114.917969 109.832031 115.21875 109.675781 115.644531 L 109.253906 116.847656 L 113.019531 118.191406 L 112.644531 119.253906 L 103.707031 116.066406 L 104.566406 113.628906 C 104.902344 112.703125 105.363281 112.09375 105.957031 111.800781 C 106.542969 111.511719 107.265625 111.515625 108.128906 111.816406 C 108.691406 112.015625 109.121094 112.300781 109.410156 112.675781 C 109.691406 113.042969 109.824219 113.472656 109.800781 113.972656 Z M 105.082031 115.363281 L 108.253906 116.488281 L 108.738281 115.113281 C 108.9375 114.582031 108.949219 114.140625 108.769531 113.785156 C 108.59375 113.421875 108.246094 113.144531 107.722656 112.957031 C 107.203125 112.769531 106.765625 112.765625 106.410156 112.941406 C 106.046875 113.109375 105.765625 113.457031 105.566406 113.988281 Z M 108.648438 109.253906 L 108.992188 108.269531 L 115.695313 110.660156 L 115.351563 111.644531 Z M 106.054688 108.332031 L 106.398438 107.347656 L 107.789063 107.847656 L 107.445313 108.832031 Z M 109.472656 106.914063 L 109.847656 105.867188 L 116.144531 106.007813 L 111.191406 102.101563 L 111.566406 101.039063 L 117.472656 105.695313 L 116.988281 107.039063 Z M 116.96875 95.625 L 117.5 95.8125 L 115.875 100.375 C 116.667969 100.605469 117.324219 100.605469 117.84375 100.375 C 118.367188 100.148438 118.742188 99.703125 118.984375 99.046875 C 119.117188 98.664063 119.195313 98.277344 119.21875 97.890625 C 119.238281 97.496094 119.207031 97.078125 119.125 96.640625 L 120.171875 97.015625 C 120.210938 97.433594 120.207031 97.84375 120.15625 98.25 C 120.113281 98.65625 120.023438 99.054688 119.890625 99.4375 C 119.546875 100.398438 118.96875 101.046875 118.15625 101.390625 C 117.335938 101.726563 116.390625 101.703125 115.328125 101.328125 C 114.226563 100.945313 113.449219 100.371094 113 99.609375 C 112.542969 98.851563 112.476563 98.015625 112.796875 97.109375 C 113.089844 96.296875 113.609375 95.757813 114.359375 95.484375 C 115.101563 95.214844 115.96875 95.261719 116.96875 95.625 Z M 116.296875 96.5 C 115.695313 96.292969 115.15625 96.273438 114.6875 96.4375 C 114.21875 96.605469 113.898438 96.933594 113.71875 97.421875 C 113.523438 97.984375 113.542969 98.496094 113.78125 98.953125 C 114.011719 99.402344 114.433594 99.761719 115.046875 100.03125 Z M 116.742188 89.777344 C 116.648438 89.863281 116.5625 89.964844 116.476563 90.089844 C 116.394531 90.207031 116.320313 90.339844 116.257813 90.496094 C 116.0625 91.050781 116.113281 91.550781 116.414063 91.996094 C 116.707031 92.445313 117.234375 92.804688 117.992188 93.074219 L 121.523438 94.324219 L 121.164063 95.324219 L 114.460938 92.933594 L 114.820313 91.933594 L 115.867188 92.308594 C 115.535156 91.957031 115.328125 91.582031 115.242188 91.183594 C 115.160156 90.777344 115.207031 90.339844 115.382813 89.871094 C 115.40625 89.800781 115.4375 89.722656 115.476563 89.636719 C 115.519531 89.554688 115.566406 89.464844 115.617188 89.371094 Z M 116.742188 89.777344 "/>
<path style=" stroke:none;fill-rule:evenodd;fill:rgb(41.960784%,58.039216%,69.019608%);fill-opacity:1;" d="M 87.597656 161.316406 L 87.972656 160.253906 L 91.644531 161.566406 L 93.066406 157.597656 L 89.394531 156.285156 L 89.769531 155.191406 L 98.707031 158.378906 L 98.332031 159.472656 L 94.082031 157.957031 L 92.660156 161.925781 L 96.910156 163.441406 L 96.535156 164.503906 Z M 96.765625 155.433594 L 92.71875 153.980469 L 93.078125 152.996094 L 97.109375 154.433594 C 97.734375 154.652344 98.246094 154.710938 98.640625 154.605469 C 99.039063 154.492188 99.3125 154.214844 99.46875 153.777344 C 99.664063 153.238281 99.628906 152.746094 99.359375 152.308594 C 99.097656 151.863281 98.636719 151.523438 97.96875 151.292969 L 94.171875 149.933594 L 94.515625 148.933594 L 101.21875 151.324219 L 100.875 152.324219 L 99.84375 151.964844 C 100.175781 152.339844 100.378906 152.722656 100.453125 153.105469 C 100.535156 153.492188 100.5 153.898438 100.34375 154.324219 C 100.101563 155.011719 99.679688 155.449219 99.078125 155.636719 C 98.464844 155.824219 97.695313 155.757813 96.765625 155.433594 Z M 93.453125 151.433594 Z M 97.679688 143.300781 L 94.070313 142.003906 L 94.414063 141.019531 L 103.710938 144.332031 L 103.367188 145.316406 L 102.367188 144.957031 C 102.6875 145.300781 102.886719 145.671875 102.960938 146.066406 C 103.042969 146.453125 103.007813 146.863281 102.851563 147.300781 C 102.589844 148.042969 102.058594 148.527344 101.257813 148.753906 C 100.445313 148.972656 99.515625 148.894531 98.460938 148.519531 C 97.410156 148.144531 96.644531 147.621094 96.164063 146.941406 C 95.675781 146.253906 95.5625 145.542969 95.820313 144.800781 C 95.976563 144.363281 96.210938 144.019531 96.523438 143.769531 C 96.828125 143.511719 97.210938 143.355469 97.679688 143.300781 Z M 98.820313 147.488281 C 99.625 147.769531 100.3125 147.847656 100.882813 147.722656 C 101.457031 147.589844 101.828125 147.261719 102.007813 146.738281 C 102.203125 146.207031 102.121094 145.714844 101.757813 145.253906 C 101.40625 144.785156 100.828125 144.410156 100.023438 144.128906 C 99.210938 143.839844 98.523438 143.761719 97.960938 143.894531 C 97.398438 144.03125 97.019531 144.363281 96.820313 144.894531 C 96.644531 145.417969 96.734375 145.90625 97.085938 146.363281 C 97.429688 146.824219 98.007813 147.199219 98.820313 147.488281 Z M 99.308594 136.121094 L 100.339844 136.496094 C 100.089844 136.726563 99.871094 136.976563 99.683594 137.246094 C 99.496094 137.519531 99.347656 137.816406 99.230469 138.136719 C 99.054688 138.628906 99.007813 139.027344 99.089844 139.339844 C 99.164063 139.644531 99.367188 139.855469 99.699219 139.980469 C 99.960938 140.066406 100.195313 140.042969 100.402344 139.917969 C 100.613281 139.785156 100.878906 139.480469 101.199219 139.011719 L 101.402344 138.714844 C 101.820313 138.070313 102.230469 137.652344 102.636719 137.464844 C 103.042969 137.269531 103.519531 137.269531 104.058594 137.464844 C 104.691406 137.683594 105.109375 138.082031 105.308594 138.652344 C 105.515625 139.226563 105.484375 139.902344 105.214844 140.683594 C 105.097656 140.996094 104.941406 141.320313 104.746094 141.652344 C 104.558594 141.976563 104.324219 142.300781 104.042969 142.621094 L 102.902344 142.214844 C 103.246094 141.945313 103.535156 141.652344 103.761719 141.339844 C 103.992188 141.019531 104.167969 140.679688 104.292969 140.324219 C 104.457031 139.855469 104.496094 139.464844 104.402344 139.152344 C 104.316406 138.839844 104.113281 138.628906 103.792969 138.511719 C 103.503906 138.410156 103.246094 138.417969 103.027344 138.542969 C 102.800781 138.667969 102.496094 139.011719 102.121094 139.574219 L 101.917969 139.871094 C 101.554688 140.445313 101.175781 140.816406 100.777344 140.980469 C 100.382813 141.136719 99.925781 141.128906 99.402344 140.949219 C 98.777344 140.722656 98.367188 140.347656 98.167969 139.824219 C 97.972656 139.292969 98.003906 138.664063 98.261719 137.933594 C 98.398438 137.570313 98.554688 137.238281 98.730469 136.933594 C 98.898438 136.632813 99.089844 136.363281 99.308594 136.121094 Z M 101.382813 132.101563 C 101.195313 132.632813 101.28125 133.132813 101.632813 133.601563 C 101.988281 134.070313 102.566406 134.453125 103.367188 134.742188 C 104.171875 135.023438 104.859375 135.097656 105.429688 134.960938 C 105.992188 134.816406 106.367188 134.476563 106.554688 133.945313 C 106.742188 133.414063 106.65625 132.914063 106.304688 132.445313 C 105.953125 131.96875 105.378906 131.585938 104.585938 131.304688 C 103.796875 131.023438 103.113281 130.957031 102.539063 131.101563 C 101.957031 131.238281 101.570313 131.570313 101.382813 132.101563 Z M 100.460938 131.773438 C 100.765625 130.910156 101.316406 130.34375 102.117188 130.070313 C 102.921875 129.800781 103.867188 129.863281 104.960938 130.257813 C 106.066406 130.644531 106.835938 131.195313 107.273438 131.914063 C 107.71875 132.625 107.792969 133.410156 107.492188 134.273438 C 107.179688 135.140625 106.625 135.707031 105.835938 135.976563 C 105.046875 136.238281 104.097656 136.175781 102.992188 135.789063 C 101.898438 135.394531 101.128906 134.84375 100.679688 134.132813 C 100.222656 133.425781 100.148438 132.640625 100.460938 131.773438 Z M 106.625 123.359375 L 110.671875 124.796875 L 110.3125 125.78125 L 106.3125 124.359375 C 105.679688 124.132813 105.164063 124.074219 104.765625 124.1875 C 104.371094 124.304688 104.09375 124.585938 103.9375 125.03125 C 103.75 125.5625 103.792969 126.046875 104.0625 126.484375 C 104.335938 126.921875 104.796875 127.261719 105.453125 127.5 L 109.234375 128.84375 L 108.875 129.84375 L 102.171875 127.453125 L 102.53125 126.453125 L 103.578125 126.828125 C 103.265625 126.445313 103.0625 126.058594 102.96875 125.671875 C 102.875 125.289063 102.90625 124.886719 103.0625 124.46875 C 103.304688 123.78125 103.726563 123.34375 104.328125 123.15625 C 104.933594 122.960938 105.699219 123.027344 106.625 123.359375 Z M 109.800781 113.972656 C 109.980469 113.777344 110.25 113.613281 110.613281 113.488281 C 110.980469 113.363281 111.453125 113.28125 112.035156 113.238281 L 114.863281 113.003906 L 114.457031 114.175781 L 111.785156 114.394531 C 111.097656 114.4375 110.613281 114.550781 110.332031 114.738281 C 110.050781 114.917969 109.832031 115.21875 109.675781 115.644531 L 109.253906 116.847656 L 113.019531 118.191406 L 112.644531 119.253906 L 103.707031 116.066406 L 104.566406 113.628906 C 104.902344 112.703125 105.363281 112.09375 105.957031 111.800781 C 106.542969 111.511719 107.265625 111.515625 108.128906 111.816406 C 108.691406 112.015625 109.121094 112.300781 109.410156 112.675781 C 109.691406 113.042969 109.824219 113.472656 109.800781 113.972656 Z M 105.082031 115.363281 L 108.253906 116.488281 L 108.738281 115.113281 C 108.9375 114.582031 108.949219 114.140625 108.769531 113.785156 C 108.59375 113.421875 108.246094 113.144531 107.722656 112.957031 C 107.203125 112.769531 106.765625 112.765625 106.410156 112.941406 C 106.046875 113.109375 105.765625 113.457031 105.566406 113.988281 Z M 108.648438 109.253906 L 108.992188 108.269531 L 115.695313 110.660156 L 115.351563 111.644531 Z M 106.054688 108.332031 L 106.398438 107.347656 L 107.789063 107.847656 L 107.445313 108.832031 Z M 109.472656 106.914063 L 109.847656 105.867188 L 116.144531 106.007813 L 111.191406 102.101563 L 111.566406 101.039063 L 117.472656 105.695313 L 116.988281 107.039063 Z M 116.96875 95.625 L 117.5 95.8125 L 115.875 100.375 C 116.667969 100.605469 117.324219 100.605469 117.84375 100.375 C 118.367188 100.148438 118.742188 99.703125 118.984375 99.046875 C 119.117188 98.664063 119.195313 98.277344 119.21875 97.890625 C 119.238281 97.496094 119.207031 97.078125 119.125 96.640625 L 120.171875 97.015625 C 120.210938 97.433594 120.207031 97.84375 120.15625 98.25 C 120.113281 98.65625 120.023438 99.054688 119.890625 99.4375 C 119.546875 100.398438 118.96875 101.046875 118.15625 101.390625 C 117.335938 101.726563 116.390625 101.703125 115.328125 101.328125 C 114.226563 100.945313 113.449219 100.371094 113 99.609375 C 112.542969 98.851563 112.476563 98.015625 112.796875 97.109375 C 113.089844 96.296875 113.609375 95.757813 114.359375 95.484375 C 115.101563 95.214844 115.96875 95.261719 116.96875 95.625 Z M 116.296875 96.5 C 115.695313 96.292969 115.15625 96.273438 114.6875 96.4375 C 114.21875 96.605469 113.898438 96.933594 113.71875 97.421875 C 113.523438 97.984375 113.542969 98.496094 113.78125 98.953125 C 114.011719 99.402344 114.433594 99.761719 115.046875 100.03125 Z M 116.742188 89.777344 C 116.648438 89.863281 116.5625 89.964844 116.476563 90.089844 C 116.394531 90.207031 116.320313 90.339844 116.257813 90.496094 C 116.0625 91.050781 116.113281 91.550781 116.414063 91.996094 C 116.707031 92.445313 117.234375 92.804688 117.992188 93.074219 L 121.523438 94.324219 L 121.164063 95.324219 L 114.460938 92.933594 L 114.820313 91.933594 L 115.867188 92.308594 C 115.535156 91.957031 115.328125 91.582031 115.242188 91.183594 C 115.160156 90.777344 115.207031 90.339844 115.382813 89.871094 C 115.40625 89.800781 115.4375 89.722656 115.476563 89.636719 C 115.519531 89.554688 115.566406 89.464844 115.617188 89.371094 Z M 116.742188 89.777344 "/>
</g>
</svg>

