<?xml version="1.0" encoding="UTF-8"?>
<svg xmlns="http://www.w3.org/2000/svg" xmlns:xlink="http://www.w3.org/1999/xlink" width="256pt" height="256pt" viewBox="0 0 256 256" version="1.1">
<g id="surface2">
<rect x="0" y="0" width="256" height="256" style="fill:rgb(94.901961%,93.72549%,91.372549%);fill-opacity:1;stroke:none;"/>
<path style=" stroke:none;fill-rule:evenodd;fill:rgb(60%,70.196078%,80%);fill-opacity:1;" d="M 218.894531 222.648438 L 221.714844 224.875 L 231.214844 228.625 L 243.96875 237.621094 L 253.355469 243.871094 L 255.902344 247.546875 L 259 249.539063 L 259 259 L 259 203.605469 L 257.03125 204.300781 L 252.667969 207.503906 L 247.570313 211.03125 L 246.964844 212.125 L 244.089844 212.257813 L 242.472656 212.992188 L 241.125 213.777344 L 237.960938 213.578125 L 234.21875 213.785156 L 229.289063 213.726563 L 226.320313 214.582031 L 223.355469 215.050781 L 222.226563 213.824219 L 220.660156 214.070313 L 219.632813 215.003906 L 218.601563 217.796875 L 217.808594 220.578125 Z M 218.894531 222.648438 "/>
<path style="fill:none;stroke-width:1;stroke-linecap:round;stroke-linejoin:round;stroke:rgb(70.196078%,77.647059%,83.137255%);stroke-opacity:1;stroke-miterlimit:10;" d="M 218.894531 222.648438 L 221.714844 224.875 L 231.214844 228.625 L 243.96875 237.621094 L 253.355469 243.871094 L 255.902344 247.546875 L 259 249.539063 L 259 259 L 259 203.605469 L 257.03125 204.300781 L 252.667969 207.503906 L 247.570313 211.03125 L 246.964844 212.125 L 244.089844 212.257813 L 242.472656 212.992188 L 241.125 213.777344 L 237.960938 213.578125 L 234.21875 213.785156 L 229.289063 213.726563 L 226.320313 214.582031 L 223.355469 215.050781 L 222.226563 213.824219 L 220.660156 214.070313 L 219.632813 215.003906 L 218.601563 217.796875 L 217.808594 220.578125 L 218.894531 222.648438 "/>
<path style="fill:none;stroke-width:1;stroke-linecap:round;stroke-linejoin:round;stroke:rgb(100%,100%,100%);stroke-opacity:1;stroke-dasharray:2,3;stroke-miterlimit:10;" d="M 158.195313 236.472656 L 167.808594 243.152344 L 181.660156 252.375 L 189.484375 257 "/>
<path style="fill:none;stroke-width:1;stroke-linecap:round;stroke-linejoin:round;stroke:rgb(100%,100%,100%);stroke-opacity:1;stroke-dasharray:2,3;stroke-miterlimit:10;" d="M 257 163.105469 L 255.3125 162.8125 L 253.625 159.8125 L 251.4375 159.625 L 245.886719 153.992188 L 242.761719 149.492188 L 240.875 149.375 L 235.3125 149 L 234.0625 148.3125 L 231.574219 144.871094 L 227.507813 142.242188 L 221.636719 140.808594 L 219.5 140.0625 L 213.695313 141.308594 L 210.136719 139.246094 L 204.945313 135.304688 L 201.195313 131.117188 L 198.875 125.875 L 197.136719 119.683594 L 198.007813 118.371094 L 200.882813 117.808594 L 202.195313 106.808594 L 201.757813 103.679688 L 206.695313 100.933594 L 207.132813 99.121094 L 212.574219 94.367188 L 216.320313 92.804688 L 218.382813 86.867188 L 220.5 83.0625 L 219.507813 79.367188 L 220.8125 78.5625 L 221.882813 76.308594 L 221.324219 72.429688 L 222.945313 69.492188 L 224.757813 63.933594 L 230.695313 60.554688 L 235.0625 58.5625 L 239.636719 57.429688 L 242.3125 55.9375 L 245.949219 55.121094 L 249.3125 55.625 L 253.699219 55.492188 L 257 54.007813 "/>
<path style="fill:none;stroke-width:1;stroke-linecap:round;stroke-linejoin:round;stroke:rgb(100%,100%,100%);stroke-opacity:1;stroke-dasharray:2,3;stroke-miterlimit:10;" d="M 210.34375 203.867188 L 204.640625 202.726563 L 194.246094 199.117188 L 180.804688 196.238281 L 168.324219 190.480469 L 155.363281 179.917969 L 147.683594 176.558594 L 134.242188 170.796875 L 124.160156 168.875 L 104.960938 172.238281 L 92 173.679688 L 84.800781 181.359375 L 77.601563 181.839844 L 57.441406 181.359375 L 39.679688 180.875 L 28.636719 174.15625 L 14.238281 167.917969 L -2 165.597656 "/>
<path style="fill:none;stroke-width:1;stroke-linecap:round;stroke-linejoin:round;stroke:rgb(100%,100%,100%);stroke-opacity:1;stroke-dasharray:2,3;stroke-miterlimit:10;" d="M 257 199.464844 L 254.183594 200.277344 L 247.300781 203.71875 L 236.242188 206.175781 L 225.429688 204.703125 L 210.34375 203.867188 L 194.484375 216.117188 L 186.105469 222.960938 L 173.5 231.433594 L 158.195313 236.472656 L 124.476563 250.242188 L 111.082031 253.859375 L 106.117188 257 "/>
</g>
</svg>

