<?xml version="1.0" encoding="UTF-8"?>
<svg xmlns="http://www.w3.org/2000/svg" xmlns:xlink="http://www.w3.org/1999/xlink" width="256pt" height="256pt" viewBox="0 0 256 256" version="1.1">
<g id="surface2">
<rect x="0" y="0" width="256" height="256" style="fill:rgb(94.901961%,93.72549%,91.372549%);fill-opacity:1;stroke:none;"/>
<path style=" stroke:none;fill-rule:evenodd;fill:rgb(60%,70.196078%,80%);fill-opacity:1;" d="M -4 -4 L 259 -4 L 259 259 L 259 -4 Z M -4 -4 "/>
<path style="fill:none;stroke-width:1;stroke-linecap:round;stroke-linejoin:round;stroke:rgb(70.196078%,77.647059%,83.137255%);stroke-opacity:1;stroke-miterlimit:10;" d="M -4 -4 L 259 -4 L 259 259 L 259 -4 L -4 -4 "/>
<path style="fill:none;stroke-width:8;stroke-linecap:round;stroke-linejoin:round;stroke:rgb(75.686275%,70.980392%,61.568627%);stroke-opacity:1;stroke-miterlimit:10;" d="M 185.851563 264 L 186.78125 258.011719 L 186.710938 247.953125 L 186.992188 245.839844 L 187.574219 244.171875 L 189.230469 242.347656 L 192.421875 237.414063 L 197.570313 226.617188 L 200.808594 217.648438 L 201.390625 214.347656 L 201.320313 210.4375 L 200.179688 208.355469 L 197.828125 206.53125 L 194.214844 206.082031 L 191.300781 206.050781 L 187.621094 205.183594 L 185.105469 203.582031 L 180.328125 199.289063 L 178.183594 196.46875 L 177.789063 193.972656 L 178.835938 182.375 L 185.082031 169.71875 L 192.980469 150.210938 L 198.527344 134.800781 L 199.644531 129 L 201.320313 124.195313 L 210.339844 101.480469 L 210.667969 93.023438 L 210.96875 91.773438 L 219.195313 81.457031 L 226.136719 63.515625 L 234.363281 44.066406 L 248.226563 6.199219 "/>
<path style="fill:none;stroke-width:8;stroke-linecap:round;stroke-linejoin:round;stroke:rgb(75.686275%,70.980392%,61.568627%);stroke-opacity:1;stroke-miterlimit:10;" d="M 248.226563 6.199219 L 249.324219 0.398438 L 253.703125 -9 "/>
<path style="fill:none;stroke-width:6;stroke-linecap:round;stroke-linejoin:round;stroke:rgb(100%,100%,100%);stroke-opacity:1;stroke-miterlimit:10;" d="M 185.851563 264 L 186.78125 258.011719 L 186.710938 247.953125 L 186.992188 245.839844 L 187.574219 244.171875 L 189.230469 242.347656 L 192.421875 237.414063 L 197.570313 226.617188 L 200.808594 217.648438 L 201.390625 214.347656 L 201.320313 210.4375 L 200.179688 208.355469 L 197.828125 206.53125 L 194.214844 206.082031 L 191.300781 206.050781 L 187.621094 205.183594 L 185.105469 203.582031 L 180.328125 199.289063 L 178.183594 196.46875 L 177.789063 193.972656 L 178.835938 182.375 L 185.082031 169.71875 L 192.980469 150.210938 L 198.527344 134.800781 L 199.644531 129 L 201.320313 124.195313 L 210.339844 101.480469 L 210.667969 93.023438 L 210.96875 91.773438 L 219.195313 81.457031 L 226.136719 63.515625 L 234.363281 44.066406 L 248.226563 6.199219 "/>
<path style="fill:none;stroke-width:6;stroke-linecap:round;stroke-linejoin:round;stroke:rgb(100%,100%,100%);stroke-opacity:1;stroke-miterlimit:10;" d="M 248.226563 6.199219 L 249.324219 0.398438 L 253.703125 -9 "/>
</g>
</svg>

