<?xml version="1.0" encoding="UTF-8"?>
<svg xmlns="http://www.w3.org/2000/svg" xmlns:xlink="http://www.w3.org/1999/xlink" width="256pt" height="256pt" viewBox="0 0 256 256" version="1.1">
<g id="surface2">
<rect x="0" y="0" width="256" height="256" style="fill:rgb(94.901961%,93.72549%,91.372549%);fill-opacity:1;stroke:none;"/>
<path style=" stroke:none;fill-rule:evenodd;fill:rgb(60%,70.196078%,80%);fill-opacity:1;" d="M 108.871094 -4 L 109.839844 2.117188 L 114.398438 7.902344 L 113.175781 15.792969 L 112.628906 28.445313 L 108.957031 37.492188 L 106.441406 41.644531 L 106.371094 48.921875 L 108.074219 52.800781 L 110.929688 49.601563 L 112.222656 43 L 118.140625 37.832031 L 122.222656 29.601563 L 123.308594 20.144531 L 126.917969 14.839844 L 133.242188 12.257813 L 138.070313 6.40625 L 140.519531 0.484375 L 141.296875 -4 Z M 118.800781 -4 L 121.171875 -4 L 122.292969 -3.1875 L 122.902344 0.828125 L 120.316406 4.160156 L 117.597656 2.050781 L 117.054688 -2.847656 Z M 118.800781 -4 "/>
<path style="fill:none;stroke-width:1;stroke-linecap:round;stroke-linejoin:round;stroke:rgb(70.196078%,77.647059%,83.137255%);stroke-opacity:1;stroke-miterlimit:10;" d="M 108.871094 -4 L 109.839844 2.117188 L 114.398438 7.902344 L 113.175781 15.792969 L 112.628906 28.445313 L 108.957031 37.492188 L 106.441406 41.644531 L 106.371094 48.921875 L 108.074219 52.800781 L 110.929688 49.601563 L 112.222656 43 L 118.140625 37.832031 L 122.222656 29.601563 L 123.308594 20.144531 L 126.917969 14.839844 L 133.242188 12.257813 L 138.070313 6.40625 L 140.519531 0.484375 L 141.296875 -4 L 108.871094 -4 M 118.800781 -4 L 121.171875 -4 L 122.292969 -3.1875 L 122.902344 0.828125 L 120.316406 4.160156 L 117.597656 2.050781 L 117.054688 -2.847656 L 118.800781 -4 "/>
</g>
</svg>

