<?xml version="1.0" encoding="UTF-8"?>
<svg xmlns="http://www.w3.org/2000/svg" xmlns:xlink="http://www.w3.org/1999/xlink" width="256pt" height="256pt" viewBox="0 0 256 256" version="1.1">
<g id="surface2">
<rect x="0" y="0" width="256" height="256" style="fill:rgb(94.901961%,93.72549%,91.372549%);fill-opacity:1;stroke:none;"/>
<path style=" stroke:none;fill-rule:evenodd;fill:rgb(60%,70.196078%,80%);fill-opacity:1;" d="M -4 259 L 46.03125 259 L 51.6875 257.792969 L 59.363281 257.535156 L 67.347656 259 L 85.894531 259 L 91.449219 257.9375 L 94.5625 253 L 98.359375 241.441406 L 102.285156 226.527344 L 104.277344 218.652344 L 101.535156 214.046875 L 97.550781 209.6875 L 95.292969 203.238281 L 95.367188 201.648438 L 98.203125 193.347656 L 98.363281 189.585938 L 98.210938 182.925781 L 97.726563 162.785156 L 98.09375 153.527344 L 92.039063 148.363281 L 88.742188 136.949219 L 88.148438 130.980469 L 90.414063 127.304688 L 94.8125 120.816406 L 105.820313 116.636719 L 116.25 106.679688 L 118.15625 104.855469 L 131.496094 82.09375 L 166.328125 57.164063 L 210.035156 29.507813 L 259 2.339844 L 259 -4 L 69.632813 -4 L 43.683594 26 L 19.097656 30.097656 L 15.683594 42.734375 L -4 57.578125 Z M -4 259 "/>
<path style="fill:none;stroke-width:1;stroke-linecap:round;stroke-linejoin:round;stroke:rgb(70.196078%,77.647059%,83.137255%);stroke-opacity:1;stroke-miterlimit:10;" d="M -4 259 L 46.03125 259 L 51.6875 257.792969 L 59.363281 257.535156 L 67.347656 259 L 85.894531 259 L 91.449219 257.9375 L 94.5625 253 L 98.359375 241.441406 L 102.285156 226.527344 L 104.277344 218.652344 L 101.535156 214.046875 L 97.550781 209.6875 L 95.292969 203.238281 L 95.367188 201.648438 L 98.203125 193.347656 L 98.363281 189.585938 L 98.210938 182.925781 L 97.726563 162.785156 L 98.09375 153.527344 L 92.039063 148.363281 L 88.742188 136.949219 L 88.148438 130.980469 L 90.414063 127.304688 L 94.8125 120.816406 L 105.820313 116.636719 L 116.25 106.679688 L 118.15625 104.855469 L 131.496094 82.09375 L 166.328125 57.164063 L 210.035156 29.507813 L 259 2.339844 L 259 -4 L 69.632813 -4 L 43.683594 26 L 19.097656 30.097656 L 15.683594 42.734375 L -4 57.578125 L -4 259 "/>
<path style=" stroke:none;fill-rule:evenodd;fill:rgb(60%,70.196078%,80%);fill-opacity:1;" d="M -4 -4 L 259 -4 L 259 259 L 259 -4 Z M -8239283.429688 5393413.4375 Z M -8239283.429688 5393413.4375 "/>
<path style="fill:none;stroke-width:1;stroke-linecap:round;stroke-linejoin:round;stroke:rgb(70.196078%,77.647059%,83.137255%);stroke-opacity:1;stroke-miterlimit:10;" d="M -4 -4 L 259 -4 L 259 259 L 259 -4 L -4 -4 "/>
<path style="fill:none;stroke-width:8;stroke-linecap:round;stroke-linejoin:round;stroke:rgb(75.686275%,70.980392%,61.568627%);stroke-opacity:1;stroke-miterlimit:10;" d="M 166.804688 260.386719 L 157.320313 252.800781 L 147.976563 217.835938 L 144.179688 205.398438 L 139.539063 203.566406 L 131.546875 203.246094 L 122.019531 201.636719 L 114.050781 197.71875 L 105.078125 190.679688 L 102.046875 180.8125 L 102.886719 165.835938 L 102.910156 161.433594 L 103.050781 151.019531 L 111.835938 134.855469 L 128.707031 119.429688 L 136.769531 98.121094 L 155.804688 79.769531 L 261.316406 26.898438 L 264 24.128906 "/>
<path style="fill:none;stroke-width:6;stroke-linecap:round;stroke-linejoin:round;stroke:rgb(100%,100%,100%);stroke-opacity:1;stroke-miterlimit:10;" d="M 166.804688 260.386719 L 157.320313 252.800781 L 147.976563 217.835938 L 144.179688 205.398438 L 139.539063 203.566406 L 131.546875 203.246094 L 122.019531 201.636719 L 114.050781 197.71875 L 105.078125 190.679688 L 102.046875 180.8125 L 102.886719 165.835938 L 102.910156 161.433594 L 103.050781 151.019531 L 111.835938 134.855469 L 128.707031 119.429688 L 136.769531 98.121094 L 155.804688 79.769531 L 261.316406 26.898438 L 264 24.128906 "/>
<path style="fill:none;stroke-width:3;stroke-linecap:round;stroke-linejoin:round;stroke:rgb(100%,100%,100%);stroke-opacity:1;stroke-miterlimit:10;" d="M 42.382813 109.179688 L 42.382813 107.023438 L 40.789063 107.023438 L 40.789063 106.132813 L 43.351563 106.132813 L 43.351563 109.570313 C 42.976563 109.875 42.558594 110.101563 42.101563 110.257813 C 41.652344 110.402344 41.167969 110.476563 40.648438 110.476563 C 39.523438 110.476563 38.640625 110.113281 38.007813 109.382813 C 37.371094 108.644531 37.054688 107.625 37.054688 106.320313 C 37.054688 105.007813 37.371094 103.988281 38.007813 103.257813 C 38.640625 102.519531 39.523438 102.148438 40.648438 102.148438 C 41.117188 102.148438 41.5625 102.21875 41.992188 102.351563 C 42.417969 102.476563 42.808594 102.664063 43.164063 102.914063 L 43.164063 104.070313 C 42.796875 103.738281 42.414063 103.488281 42.007813 103.320313 C 41.601563 103.144531 41.171875 103.054688 40.726563 103.054688 C 39.851563 103.054688 39.1875 103.332031 38.742188 103.882813 C 38.292969 104.425781 38.070313 105.238281 38.070313 106.320313 C 38.070313 107.40625 38.292969 108.222656 38.742188 108.773438 C 39.1875 109.316406 39.851563 109.585938 40.726563 109.585938 C 41.078125 109.585938 41.386719 109.554688 41.648438 109.492188 C 41.917969 109.421875 42.164063 109.316406 42.382813 109.179688 Z M 47.554688 107.289063 C 46.835938 107.289063 46.335938 107.382813 46.054688 107.570313 C 45.78125 107.757813 45.648438 108.070313 45.648438 108.507813 C 45.648438 108.851563 45.75 109.128906 45.960938 109.335938 C 46.167969 109.546875 46.449219 109.648438 46.804688 109.648438 C 47.304688 109.648438 47.699219 109.457031 47.992188 109.070313 C 48.292969 108.675781 48.445313 108.160156 48.445313 107.523438 L 48.445313 107.289063 Z M 49.335938 106.882813 L 49.335938 110.320313 L 48.445313 110.320313 L 48.445313 109.414063 C 48.234375 109.78125 47.980469 110.050781 47.679688 110.226563 C 47.375 110.390625 47.007813 110.476563 46.570313 110.476563 C 46.015625 110.476563 45.574219 110.304688 45.242188 109.960938 C 44.917969 109.617188 44.757813 109.15625 44.757813 108.570313 C 44.757813 107.894531 44.960938 107.382813 45.367188 107.039063 C 45.773438 106.695313 46.382813 106.523438 47.195313 106.523438 L 48.445313 106.523438 L 48.445313 106.429688 C 48.445313 105.972656 48.308594 105.617188 48.039063 105.367188 C 47.765625 105.117188 47.386719 104.992188 46.898438 104.992188 C 46.59375 104.992188 46.292969 105.035156 45.992188 105.117188 C 45.699219 105.203125 45.417969 105.328125 45.148438 105.492188 L 45.148438 104.585938 C 45.480469 104.441406 45.796875 104.335938 46.101563 104.273438 C 46.402344 104.203125 46.699219 104.164063 46.992188 104.164063 C 47.773438 104.164063 48.355469 104.390625 48.742188 104.835938 C 49.136719 105.285156 49.335938 105.96875 49.335938 106.882813 Z M 54.304688 105.226563 C 54.199219 105.164063 54.085938 105.117188 53.960938 105.085938 C 53.84375 105.054688 53.71875 105.039063 53.585938 105.039063 C 53.074219 105.039063 52.683594 105.222656 52.414063 105.585938 C 52.152344 105.953125 52.023438 106.472656 52.023438 107.148438 L 52.023438 110.320313 L 51.117188 110.320313 L 51.117188 104.304688 L 52.023438 104.304688 L 52.023438 105.242188 C 52.210938 104.878906 52.449219 104.609375 52.742188 104.429688 C 53.042969 104.253906 53.40625 104.164063 53.835938 104.164063 C 53.898438 104.164063 53.964844 104.171875 54.039063 104.179688 C 54.121094 104.179688 54.203125 104.191406 54.289063 104.210938 Z M 59.726563 106.695313 L 59.726563 110.320313 L 58.835938 110.320313 L 58.835938 106.726563 C 58.835938 106.15625 58.730469 105.726563 58.523438 105.445313 C 58.324219 105.164063 58.027344 105.023438 57.632813 105.023438 C 57.152344 105.023438 56.773438 105.195313 56.492188 105.539063 C 56.21875 105.875 56.085938 106.332031 56.085938 106.914063 L 56.085938 110.320313 L 55.179688 110.320313 L 55.179688 104.304688 L 56.085938 104.304688 L 56.085938 105.242188 C 56.292969 104.878906 56.539063 104.609375 56.820313 104.429688 C 57.109375 104.253906 57.449219 104.164063 57.835938 104.164063 C 58.449219 104.164063 58.917969 104.378906 59.242188 104.804688 C 59.5625 105.234375 59.726563 105.863281 59.726563 106.695313 Z M 66.132813 107.070313 L 66.132813 107.554688 L 62.039063 107.554688 C 62.078125 108.234375 62.265625 108.75 62.601563 109.101563 C 62.933594 109.457031 63.390625 109.632813 63.976563 109.632813 C 64.320313 109.632813 64.648438 109.585938 64.960938 109.492188 C 65.28125 109.398438 65.605469 109.265625 65.929688 109.085938 L 65.929688 110.007813 C 65.605469 110.164063 65.277344 110.28125 64.945313 110.351563 C 64.609375 110.433594 64.273438 110.476563 63.929688 110.476563 C 63.0625 110.476563 62.375 110.203125 61.867188 109.648438 C 61.367188 109.085938 61.117188 108.328125 61.117188 107.367188 C 61.117188 106.390625 61.355469 105.613281 61.835938 105.039063 C 62.3125 104.457031 62.960938 104.164063 63.773438 104.164063 C 64.5 104.164063 65.074219 104.425781 65.492188 104.945313 C 65.917969 105.46875 66.132813 106.175781 66.132813 107.070313 Z M 65.242188 106.773438 C 65.230469 106.234375 65.09375 105.800781 64.835938 105.476563 C 64.574219 105.15625 64.226563 104.992188 63.789063 104.992188 C 63.289063 104.992188 62.886719 105.148438 62.585938 105.460938 C 62.28125 105.773438 62.109375 106.210938 62.070313 106.773438 Z M 68.476563 102.601563 L 68.476563 104.304688 L 70.304688 104.304688 L 70.304688 105.070313 L 68.476563 105.070313 L 68.476563 108.335938 C 68.476563 108.828125 68.53125 109.144531 68.648438 109.289063 C 68.773438 109.425781 69.023438 109.492188 69.398438 109.492188 L 70.304688 109.492188 L 70.304688 110.320313 L 69.398438 110.320313 C 68.710938 110.320313 68.234375 110.179688 67.976563 109.898438 C 67.714844 109.609375 67.585938 109.085938 67.585938 108.335938 L 67.585938 105.070313 L 66.929688 105.070313 L 66.929688 104.304688 L 67.585938 104.304688 L 67.585938 102.601563 Z M 42.960938 113.304688 L 43.945313 113.304688 L 43.945313 120.414063 L 47.460938 120.414063 L 47.460938 121.320313 L 42.960938 121.320313 Z M 50.898438 118.289063 C 50.179688 118.289063 49.679688 118.382813 49.398438 118.570313 C 49.125 118.757813 48.992188 119.070313 48.992188 119.507813 C 48.992188 119.851563 49.09375 120.128906 49.304688 120.335938 C 49.511719 120.546875 49.792969 120.648438 50.148438 120.648438 C 50.648438 120.648438 51.042969 120.457031 51.335938 120.070313 C 51.636719 119.675781 51.789063 119.160156 51.789063 118.523438 L 51.789063 118.289063 Z M 52.679688 117.882813 L 52.679688 121.320313 L 51.789063 121.320313 L 51.789063 120.414063 C 51.578125 120.78125 51.324219 121.050781 51.023438 121.226563 C 50.71875 121.390625 50.351563 121.476563 49.914063 121.476563 C 49.359375 121.476563 48.917969 121.304688 48.585938 120.960938 C 48.261719 120.617188 48.101563 120.15625 48.101563 119.570313 C 48.101563 118.894531 48.304688 118.382813 48.710938 118.039063 C 49.117188 117.695313 49.726563 117.523438 50.539063 117.523438 L 51.789063 117.523438 L 51.789063 117.429688 C 51.789063 116.972656 51.652344 116.617188 51.382813 116.367188 C 51.109375 116.117188 50.730469 115.992188 50.242188 115.992188 C 49.9375 115.992188 49.636719 116.035156 49.335938 116.117188 C 49.042969 116.203125 48.761719 116.328125 48.492188 116.492188 L 48.492188 115.585938 C 48.824219 115.441406 49.140625 115.335938 49.445313 115.273438 C 49.746094 115.203125 50.042969 115.164063 50.335938 115.164063 C 51.117188 115.164063 51.699219 115.390625 52.085938 115.835938 C 52.480469 116.285156 52.679688 116.96875 52.679688 117.882813 Z M 54.460938 112.960938 L 55.367188 112.960938 L 55.367188 117.898438 L 58.023438 115.304688 L 59.164063 115.304688 L 56.289063 118.117188 L 59.273438 121.320313 L 58.117188 121.320313 L 55.367188 118.382813 L 55.367188 121.320313 L 54.460938 121.320313 Z M 64.867188 118.070313 L 64.867188 118.554688 L 60.773438 118.554688 C 60.8125 119.234375 61 119.75 61.335938 120.101563 C 61.667969 120.457031 62.125 120.632813 62.710938 120.632813 C 63.054688 120.632813 63.382813 120.585938 63.695313 120.492188 C 64.015625 120.398438 64.339844 120.265625 64.664063 120.085938 L 64.664063 121.007813 C 64.339844 121.164063 64.011719 121.28125 63.679688 121.351563 C 63.34375 121.433594 63.007813 121.476563 62.664063 121.476563 C 61.796875 121.476563 61.109375 121.203125 60.601563 120.648438 C 60.101563 120.085938 59.851563 119.328125 59.851563 118.367188 C 59.851563 117.390625 60.089844 116.613281 60.570313 116.039063 C 61.046875 115.457031 61.695313 115.164063 62.507813 115.164063 C 63.234375 115.164063 63.808594 115.425781 64.226563 115.945313 C 64.652344 116.46875 64.867188 117.175781 64.867188 118.070313 Z M 63.976563 117.773438 C 63.964844 117.234375 63.828125 116.800781 63.570313 116.476563 C 63.308594 116.15625 62.960938 115.992188 62.523438 115.992188 C 62.023438 115.992188 61.621094 116.148438 61.320313 116.460938 C 61.015625 116.773438 60.84375 117.210938 60.804688 117.773438 Z M 63.976563 117.773438 "/>
<path style=" stroke:none;fill-rule:evenodd;fill:rgb(41.960784%,58.039216%,69.019608%);fill-opacity:1;" d="M 42.382813 109.179688 L 42.382813 107.023438 L 40.789063 107.023438 L 40.789063 106.132813 L 43.351563 106.132813 L 43.351563 109.570313 C 42.976563 109.875 42.558594 110.101563 42.101563 110.257813 C 41.652344 110.402344 41.167969 110.476563 40.648438 110.476563 C 39.523438 110.476563 38.640625 110.113281 38.007813 109.382813 C 37.371094 108.644531 37.054688 107.625 37.054688 106.320313 C 37.054688 105.007813 37.371094 103.988281 38.007813 103.257813 C 38.640625 102.519531 39.523438 102.148438 40.648438 102.148438 C 41.117188 102.148438 41.5625 102.21875 41.992188 102.351563 C 42.417969 102.476563 42.808594 102.664063 43.164063 102.914063 L 43.164063 104.070313 C 42.796875 103.738281 42.414063 103.488281 42.007813 103.320313 C 41.601563 103.144531 41.171875 103.054688 40.726563 103.054688 C 39.851563 103.054688 39.1875 103.332031 38.742188 103.882813 C 38.292969 104.425781 38.070313 105.238281 38.070313 106.320313 C 38.070313 107.40625 38.292969 108.222656 38.742188 108.773438 C 39.1875 109.316406 39.851563 109.585938 40.726563 109.585938 C 41.078125 109.585938 41.386719 109.554688 41.648438 109.492188 C 41.917969 109.421875 42.164063 109.316406 42.382813 109.179688 Z M 47.554688 107.289063 C 46.835938 107.289063 46.335938 107.382813 46.054688 107.570313 C 45.78125 107.757813 45.648438 108.070313 45.648438 108.507813 C 45.648438 108.851563 45.75 109.128906 45.960938 109.335938 C 46.167969 109.546875 46.449219 109.648438 46.804688 109.648438 C 47.304688 109.648438 47.699219 109.457031 47.992188 109.070313 C 48.292969 108.675781 48.445313 108.160156 48.445313 107.523438 L 48.445313 107.289063 Z M 49.335938 106.882813 L 49.335938 110.320313 L 48.445313 110.320313 L 48.445313 109.414063 C 48.234375 109.78125 47.980469 110.050781 47.679688 110.226563 C 47.375 110.390625 47.007813 110.476563 46.570313 110.476563 C 46.015625 110.476563 45.574219 110.304688 45.242188 109.960938 C 44.917969 109.617188 44.757813 109.15625 44.757813 108.570313 C 44.757813 107.894531 44.960938 107.382813 45.367188 107.039063 C 45.773438 106.695313 46.382813 106.523438 47.195313 106.523438 L 48.445313 106.523438 L 48.445313 106.429688 C 48.445313 105.972656 48.308594 105.617188 48.039063 105.367188 C 47.765625 105.117188 47.386719 104.992188 46.898438 104.992188 C 46.59375 104.992188 46.292969 105.035156 45.992188 105.117188 C 45.699219 105.203125 45.417969 105.328125 45.148438 105.492188 L 45.148438 104.585938 C 45.480469 104.441406 45.796875 104.335938 46.101563 104.273438 C 46.402344 104.203125 46.699219 104.164063 46.992188 104.164063 C 47.773438 104.164063 48.355469 104.390625 48.742188 104.835938 C 49.136719 105.285156 49.335938 105.96875 49.335938 106.882813 Z M 54.304688 105.226563 C 54.199219 105.164063 54.085938 105.117188 53.960938 105.085938 C 53.84375 105.054688 53.71875 105.039063 53.585938 105.039063 C 53.074219 105.039063 52.683594 105.222656 52.414063 105.585938 C 52.152344 105.953125 52.023438 106.472656 52.023438 107.148438 L 52.023438 110.320313 L 51.117188 110.320313 L 51.117188 104.304688 L 52.023438 104.304688 L 52.023438 105.242188 C 52.210938 104.878906 52.449219 104.609375 52.742188 104.429688 C 53.042969 104.253906 53.40625 104.164063 53.835938 104.164063 C 53.898438 104.164063 53.964844 104.171875 54.039063 104.179688 C 54.121094 104.179688 54.203125 104.191406 54.289063 104.210938 Z M 59.726563 106.695313 L 59.726563 110.320313 L 58.835938 110.320313 L 58.835938 106.726563 C 58.835938 106.15625 58.730469 105.726563 58.523438 105.445313 C 58.324219 105.164063 58.027344 105.023438 57.632813 105.023438 C 57.152344 105.023438 56.773438 105.195313 56.492188 105.539063 C 56.21875 105.875 56.085938 106.332031 56.085938 106.914063 L 56.085938 110.320313 L 55.179688 110.320313 L 55.179688 104.304688 L 56.085938 104.304688 L 56.085938 105.242188 C 56.292969 104.878906 56.539063 104.609375 56.820313 104.429688 C 57.109375 104.253906 57.449219 104.164063 57.835938 104.164063 C 58.449219 104.164063 58.917969 104.378906 59.242188 104.804688 C 59.5625 105.234375 59.726563 105.863281 59.726563 106.695313 Z M 66.132813 107.070313 L 66.132813 107.554688 L 62.039063 107.554688 C 62.078125 108.234375 62.265625 108.75 62.601563 109.101563 C 62.933594 109.457031 63.390625 109.632813 63.976563 109.632813 C 64.320313 109.632813 64.648438 109.585938 64.960938 109.492188 C 65.28125 109.398438 65.605469 109.265625 65.929688 109.085938 L 65.929688 110.007813 C 65.605469 110.164063 65.277344 110.28125 64.945313 110.351563 C 64.609375 110.433594 64.273438 110.476563 63.929688 110.476563 C 63.0625 110.476563 62.375 110.203125 61.867188 109.648438 C 61.367188 109.085938 61.117188 108.328125 61.117188 107.367188 C 61.117188 106.390625 61.355469 105.613281 61.835938 105.039063 C 62.3125 104.457031 62.960938 104.164063 63.773438 104.164063 C 64.5 104.164063 65.074219 104.425781 65.492188 104.945313 C 65.917969 105.46875 66.132813 106.175781 66.132813 107.070313 Z M 65.242188 106.773438 C 65.230469 106.234375 65.09375 105.800781 64.835938 105.476563 C 64.574219 105.15625 64.226563 104.992188 63.789063 104.992188 C 63.289063 104.992188 62.886719 105.148438 62.585938 105.460938 C 62.28125 105.773438 62.109375 106.210938 62.070313 106.773438 Z M 68.476563 102.601563 L 68.476563 104.304688 L 70.304688 104.304688 L 70.304688 105.070313 L 68.476563 105.070313 L 68.476563 108.335938 C 68.476563 108.828125 68.53125 109.144531 68.648438 109.289063 C 68.773438 109.425781 69.023438 109.492188 69.398438 109.492188 L 70.304688 109.492188 L 70.304688 110.320313 L 69.398438 110.320313 C 68.710938 110.320313 68.234375 110.179688 67.976563 109.898438 C 67.714844 109.609375 67.585938 109.085938 67.585938 108.335938 L 67.585938 105.070313 L 66.929688 105.070313 L 66.929688 104.304688 L 67.585938 104.304688 L 67.585938 102.601563 Z M 42.960938 113.304688 L 43.945313 113.304688 L 43.945313 120.414063 L 47.460938 120.414063 L 47.460938 121.320313 L 42.960938 121.320313 Z M 50.898438 118.289063 C 50.179688 118.289063 49.679688 118.382813 49.398438 118.570313 C 49.125 118.757813 48.992188 119.070313 48.992188 119.507813 C 48.992188 119.851563 49.09375 120.128906 49.304688 120.335938 C 49.511719 120.546875 49.792969 120.648438 50.148438 120.648438 C 50.648438 120.648438 51.042969 120.457031 51.335938 120.070313 C 51.636719 119.675781 51.789063 119.160156 51.789063 118.523438 L 51.789063 118.289063 Z M 52.679688 117.882813 L 52.679688 121.320313 L 51.789063 121.320313 L 51.789063 120.414063 C 51.578125 120.78125 51.324219 121.050781 51.023438 121.226563 C 50.71875 121.390625 50.351563 121.476563 49.914063 121.476563 C 49.359375 121.476563 48.917969 121.304688 48.585938 120.960938 C 48.261719 120.617188 48.101563 120.15625 48.101563 119.570313 C 48.101563 118.894531 48.304688 118.382813 48.710938 118.039063 C 49.117188 117.695313 49.726563 117.523438 50.539063 117.523438 L 51.789063 117.523438 L 51.789063 117.429688 C 51.789063 116.972656 51.652344 116.617188 51.382813 116.367188 C 51.109375 116.117188 50.730469 115.992188 50.242188 115.992188 C 49.9375 115.992188 49.636719 116.035156 49.335938 116.117188 C 49.042969 116.203125 48.761719 116.328125 48.492188 116.492188 L 48.492188 115.585938 C 48.824219 115.441406 49.140625 115.335938 49.445313 115.273438 C 49.746094 115.203125 50.042969 115.164063 50.335938 115.164063 C 51.117188 115.164063 51.699219 115.390625 52.085938 115.835938 C 52.480469 116.285156 52.679688 116.96875 52.679688 117.882813 Z M 54.460938 112.960938 L 55.367188 112.960938 L 55.367188 117.898438 L 58.023438 115.304688 L 59.164063 115.304688 L 56.289063 118.117188 L 59.273438 121.320313 L 58.117188 121.320313 L 55.367188 118.382813 L 55.367188 121.320313 L 54.460938 121.320313 Z M 64.867188 118.070313 L 64.867188 118.554688 L 60.773438 118.554688 C 60.8125 119.234375 61 119.75 61.335938 120.101563 C 61.667969 120.457031 62.125 120.632813 62.710938 120.632813 C 63.054688 120.632813 63.382813 120.585938 63.695313 120.492188 C 64.015625 120.398438 64.339844 120.265625 64.664063 120.085938 L 64.664063 121.007813 C 64.339844 121.164063 64.011719 121.28125 63.679688 121.351563 C 63.34375 121.433594 63.007813 121.476563 62.664063 121.476563 C 61.796875 121.476563 61.109375 121.203125 60.601563 120.648438 C 60.101563 120.085938 59.851563 119.328125 59.851563 118.367188 C 59.851563 117.390625 60.089844 116.613281 60.570313 116.039063 C 61.046875 115.457031 61.695313 115.164063 62.507813 115.164063 C 63.234375 115.164063 63.808594 115.425781 64.226563 115.945313 C 64.652344 116.46875 64.867188 117.175781 64.867188 118.070313 Z M 63.976563 117.773438 C 63.964844 117.234375 63.828125 116.800781 63.570313 116.476563 C 63.308594 116.15625 62.960938 115.992188 62.523438 115.992188 C 62.023438 115.992188 61.621094 116.148438 61.320313 116.460938 C 61.015625 116.773438 60.84375 117.210938 60.804688 117.773438 Z M 63.976563 117.773438 "/>
</g>
</svg>

