<?xml version="1.0" encoding="UTF-8"?>
<svg xmlns="http://www.w3.org/2000/svg" xmlns:xlink="http://www.w3.org/1999/xlink" width="256pt" height="256pt" viewBox="0 0 256 256" version="1.1">
<g id="surface2">
<rect x="0" y="0" width="256" height="256" style="fill:rgb(94.901961%,93.72549%,91.372549%);fill-opacity:1;stroke:none;"/>
<path style=" stroke:none;fill-rule:evenodd;fill:rgb(70.980392%,82.352941%,61.176471%);fill-opacity:1;" d="M 235.152344 45.414063 L 251.554688 74.613281 L 260 84.867188 L 260 -4 L 235.480469 -4 L 225.554688 19.210938 Z M 235.152344 45.414063 "/>
<path style=" stroke:none;fill-rule:evenodd;fill:rgb(60%,70.196078%,80%);fill-opacity:1;" d="M -4 -4 L 140.097656 -4 L 140.90625 -2.964844 L 146.34375 3.53125 L 159.804688 18.15625 L 162.832031 21.773438 L 165.289063 25.371094 L 173.148438 35.105469 L 178.1875 43.65625 L 182.066406 48.335938 L 195.566406 68.121094 L 225.433594 112.078125 L 229.710938 116.972656 L 231.839844 121.359375 L 239.132813 130.828125 L 240.347656 131.441406 L 259 158.304688 L 259 83.652344 L 251.554688 74.613281 L 235.152344 45.414063 L 225.554688 19.210938 L 223.753906 2.8125 L 224.421875 -4 Z M -4 -4 "/>
<path style="fill:none;stroke-width:1;stroke-linecap:round;stroke-linejoin:round;stroke:rgb(70.196078%,77.647059%,83.137255%);stroke-opacity:1;stroke-miterlimit:10;" d="M -4 -4 L 140.097656 -4 L 140.90625 -2.964844 L 146.34375 3.53125 L 159.804688 18.15625 L 162.832031 21.773438 L 165.289063 25.371094 L 173.148438 35.105469 L 178.1875 43.65625 L 182.066406 48.335938 L 195.566406 68.121094 L 225.433594 112.078125 L 229.710938 116.972656 L 231.839844 121.359375 L 239.132813 130.828125 L 240.347656 131.441406 L 259 158.304688 L 259 83.652344 L 251.554688 74.613281 L 235.152344 45.414063 L 225.554688 19.210938 L 223.753906 2.8125 L 224.421875 -4 L -4 -4 "/>
<path style="fill:none;stroke-width:16;stroke-linecap:round;stroke-linejoin:round;stroke:rgb(60%,70.196078%,80%);stroke-opacity:1;stroke-miterlimit:10;" d="M 164.832031 -17 L 196.464844 26.375 L 272 169.117188 "/>
<path style="fill:none;stroke-width:6;stroke-linecap:round;stroke-linejoin:round;stroke:rgb(60%,70.196078%,80%);stroke-opacity:1;stroke-miterlimit:10;" d="M 172.125 -7 L 196.464844 26.375 L 262 150.21875 "/>
<path style="fill:none;stroke-width:1;stroke-linecap:butt;stroke-linejoin:round;stroke:rgb(46.666667%,46.666667%,46.666667%);stroke-opacity:1;stroke-dasharray:2,2;stroke-miterlimit:10;" d="M 83.332031 -2 L 151.328125 92.101563 L 166.441406 112.515625 L 179.929688 132.675781 L 193.101563 156.152344 L 203.527344 179.105469 L 211.128906 202.703125 L 216.730469 225.5 L 220.929688 250.902344 L 221.316406 257 "/>
<path style="fill:none;stroke-width:1;stroke-linecap:butt;stroke-linejoin:round;stroke:rgb(46.666667%,46.666667%,46.666667%);stroke-opacity:1;stroke-dasharray:2,2;stroke-miterlimit:10;" d="M 197.21875 257 L 196.308594 250.507813 L 185.589844 177.371094 L 181.796875 159.03125 L 177.082031 143.730469 L 171.070313 129.761719 L 163.445313 115.648438 L 149.261719 94.585938 L 79.171875 -2 "/>
<path style="fill:none;stroke-width:1;stroke-linecap:round;stroke-linejoin:round;stroke:rgb(100%,100%,100%);stroke-opacity:1;stroke-dasharray:2,3;stroke-miterlimit:10;" d="M 136.796875 -2 L 166.375 33.394531 L 180.375 52.792969 L 196.378906 78.796875 L 216.265625 107.554688 "/>
<path style="fill:none;stroke-width:1;stroke-linecap:round;stroke-linejoin:round;stroke:rgb(100%,100%,100%);stroke-opacity:1;stroke-dasharray:2,3;stroke-miterlimit:10;" d="M 257 167.796875 L 253.121094 161.757813 L 244.453125 148.507813 L 227.644531 123.320313 L 216.265625 107.554688 "/>
<path style="fill:none;stroke-width:8;stroke-linecap:round;stroke-linejoin:round;stroke:rgb(75.686275%,70.980392%,61.568627%);stroke-opacity:1;stroke-miterlimit:10;" d="M 251.464844 221.304688 L 256.199219 219.597656 "/>
<path style="fill:none;stroke-width:11;stroke-linecap:round;stroke-linejoin:round;stroke:rgb(72.941176%,43.137255%,15.294118%);stroke-opacity:1;stroke-miterlimit:10;" d="M 115.796875 -12 L 174.398438 68.03125 L 178.277344 73.375 L 182.382813 79.089844 L 186.40625 85.050781 L 190.183594 90.722656 L 194.0625 96.886719 L 198.117188 103.414063 L 201.984375 109.757813 L 205.359375 115.605469 L 208.6875 121.464844 L 211.992188 127.425781 L 215.390625 133.84375 L 218.757813 140.382813 L 221.824219 146.617188 L 224.804688 152.933594 L 227.742188 159.257813 L 231.8125 168.339844 L 235.597656 177.570313 L 238.988281 186.203125 L 242.519531 195.746094 L 246.078125 205.761719 L 251.464844 221.304688 L 267 266.160156 "/>
<path style="fill:none;stroke-width:11;stroke-linecap:round;stroke-linejoin:round;stroke:rgb(72.941176%,43.137255%,15.294118%);stroke-opacity:1;stroke-miterlimit:10;" d="M 267 250.75 L 256.199219 219.597656 L 250.824219 204.09375 L 247.246094 194.03125 L 243.6875 184.410156 L 240.265625 175.699219 L 236.433594 166.355469 L 232.316406 157.171875 L 229.359375 150.800781 L 226.351563 144.433594 L 223.246094 138.125 L 219.847656 131.515625 L 216.417969 125.03125 L 213.066406 118.992188 L 209.585938 112.949219 L 206.011719 106.925781 L 202.164063 100.65625 L 198.125 94.195313 L 194.210938 88.09375 L 190.335938 82.308594 L 186.1875 76.304688 L 182.128906 70.53125 L 178.1875 65.039063 L 121.882813 -12 "/>
<path style="fill:none;stroke-width:6;stroke-linecap:round;stroke-linejoin:round;stroke:rgb(100%,100%,100%);stroke-opacity:1;stroke-miterlimit:10;" d="M 251.464844 221.304688 L 256.199219 219.597656 "/>
<path style="fill:none;stroke-width:9;stroke-linecap:round;stroke-linejoin:round;stroke:rgb(99.215686%,57.254902%,22.745098%);stroke-opacity:1;stroke-miterlimit:10;" d="M 115.796875 -12 L 174.398438 68.03125 L 178.277344 73.375 L 182.382813 79.089844 L 186.40625 85.050781 L 190.183594 90.722656 L 194.0625 96.886719 L 198.117188 103.414063 L 201.984375 109.757813 L 205.359375 115.605469 L 208.6875 121.464844 L 211.992188 127.425781 L 215.390625 133.84375 L 218.757813 140.382813 L 221.824219 146.617188 L 224.804688 152.933594 L 227.742188 159.257813 L 231.8125 168.339844 L 235.597656 177.570313 L 238.988281 186.203125 L 242.519531 195.746094 L 246.078125 205.761719 L 251.464844 221.304688 L 267 266.160156 "/>
<path style="fill:none;stroke-width:9;stroke-linecap:round;stroke-linejoin:round;stroke:rgb(99.215686%,57.254902%,22.745098%);stroke-opacity:1;stroke-miterlimit:10;" d="M 267 250.75 L 256.199219 219.597656 L 250.824219 204.09375 L 247.246094 194.03125 L 243.6875 184.410156 L 240.265625 175.699219 L 236.433594 166.355469 L 232.316406 157.171875 L 229.359375 150.800781 L 226.351563 144.433594 L 223.246094 138.125 L 219.847656 131.515625 L 216.417969 125.03125 L 213.066406 118.992188 L 209.585938 112.949219 L 206.011719 106.925781 L 202.164063 100.65625 L 198.125 94.195313 L 194.210938 88.09375 L 190.335938 82.308594 L 186.1875 76.304688 L 182.128906 70.53125 L 178.1875 65.039063 L 121.882813 -12 "/>
<path style=" stroke:none;fill-rule:evenodd;fill:rgb(33.333333%,33.333333%,33.333333%);fill-opacity:1;" d="M 205.039063 97.253906 L 206.117188 98.988281 L 198.679688 103.597656 L 197.601563 101.863281 Z M 206.421875 108.789063 C 206.222656 108.453125 205.972656 108.261719 205.671875 108.210938 C 205.367188 108.15625 205.035156 108.242188 204.671875 108.460938 C 204.296875 108.679688 204.0625 108.933594 203.96875 109.226563 C 203.882813 109.515625 203.941406 109.828125 204.140625 110.164063 C 204.328125 110.484375 204.566406 110.667969 204.859375 110.710938 C 205.160156 110.761719 205.5 110.679688 205.875 110.460938 C 206.25 110.242188 206.476563 109.984375 206.5625 109.695313 C 206.65625 109.414063 206.609375 109.109375 206.421875 108.789063 Z M 206.296875 107.132813 C 206.179688 106.644531 206.203125 106.207031 206.359375 105.820313 C 206.515625 105.4375 206.8125 105.117188 207.25 104.867188 C 207.882813 104.484375 208.492188 104.410156 209.078125 104.648438 C 209.671875 104.878906 210.210938 105.40625 210.703125 106.226563 C 211.191406 107.039063 211.394531 107.75 211.3125 108.367188 C 211.238281 108.992188 210.882813 109.496094 210.25 109.882813 C 209.8125 110.132813 209.390625 110.234375 208.984375 110.195313 C 208.578125 110.164063 208.1875 109.984375 207.8125 109.664063 C 207.9375 110.203125 207.910156 110.683594 207.734375 111.101563 C 207.566406 111.527344 207.242188 111.886719 206.765625 112.179688 C 206.003906 112.625 205.300781 112.742188 204.65625 112.523438 C 204.019531 112.3125 203.441406 111.773438 202.921875 110.898438 C 202.390625 110.023438 202.175781 109.242188 202.28125 108.554688 C 202.394531 107.875 202.832031 107.316406 203.59375 106.867188 C 204.070313 106.578125 204.535156 106.457031 204.984375 106.507813 C 205.441406 106.5625 205.878906 106.769531 206.296875 107.132813 Z M 208.03125 106.632813 C 207.726563 106.8125 207.546875 107.023438 207.484375 107.273438 C 207.421875 107.523438 207.472656 107.789063 207.640625 108.070313 C 207.796875 108.339844 207.992188 108.496094 208.234375 108.539063 C 208.484375 108.589844 208.757813 108.527344 209.0625 108.351563 C 209.363281 108.171875 209.546875 107.964844 209.609375 107.726563 C 209.679688 107.488281 209.640625 107.234375 209.484375 106.960938 C 209.316406 106.679688 209.101563 106.515625 208.84375 106.460938 C 208.59375 106.398438 208.320313 106.457031 208.03125 106.632813 Z M 205.65625 114.804688 L 207.0625 113.992188 C 207.082031 114.355469 207.128906 114.683594 207.203125 114.976563 C 207.285156 115.277344 207.398438 115.554688 207.546875 115.804688 C 207.847656 116.324219 208.238281 116.636719 208.71875 116.742188 C 209.207031 116.855469 209.789063 116.75 210.46875 116.429688 C 210.164063 116.3125 209.90625 116.164063 209.6875 115.976563 C 209.46875 115.796875 209.28125 115.574219 209.125 115.304688 C 208.726563 114.605469 208.628906 113.914063 208.828125 113.226563 C 209.023438 112.539063 209.492188 111.984375 210.234375 111.554688 C 211.054688 111.078125 211.847656 110.9375 212.609375 111.132813 C 213.367188 111.320313 213.976563 111.816406 214.4375 112.617188 C 214.957031 113.515625 215.023438 114.390625 214.640625 115.257813 C 214.265625 116.121094 213.46875 116.90625 212.25 117.617188 C 211 118.34375 209.847656 118.632813 208.796875 118.476563 C 207.753906 118.328125 206.945313 117.761719 206.375 116.773438 C 206.1875 116.449219 206.035156 116.121094 205.921875 115.789063 C 205.804688 115.464844 205.71875 115.136719 205.65625 114.804688 Z M 210.5625 114.867188 C 210.738281 115.167969 210.976563 115.328125 211.28125 115.351563 C 211.59375 115.382813 211.972656 115.273438 212.421875 115.023438 C 212.859375 114.761719 213.144531 114.484375 213.28125 114.195313 C 213.414063 113.914063 213.394531 113.625 213.21875 113.320313 C 213.039063 113.007813 212.796875 112.84375 212.484375 112.820313 C 212.171875 112.789063 211.796875 112.90625 211.359375 113.164063 C 210.910156 113.414063 210.617188 113.679688 210.484375 113.960938 C 210.359375 114.25 210.382813 114.554688 210.5625 114.867188 Z M 214.933594 122.601563 C 215.890625 122.070313 216.515625 121.609375 216.808594 121.226563 C 217.097656 120.851563 217.140625 120.480469 216.933594 120.117188 C 216.722656 119.734375 216.378906 119.566406 215.902344 119.617188 C 215.421875 119.660156 214.703125 119.945313 213.746094 120.476563 C 212.777344 121.015625 212.140625 121.480469 211.839844 121.867188 C 211.535156 122.261719 211.488281 122.652344 211.699219 123.039063 C 211.90625 123.402344 212.253906 123.554688 212.746094 123.492188 C 213.234375 123.4375 213.964844 123.140625 214.933594 122.601563 Z M 215.902344 124.382813 C 214.628906 125.089844 213.515625 125.386719 212.558594 125.273438 C 211.597656 125.167969 210.863281 124.667969 210.355469 123.773438 C 209.855469 122.855469 209.808594 121.960938 210.214844 121.085938 C 210.628906 120.222656 211.472656 119.4375 212.746094 118.726563 C 214.015625 118.019531 215.128906 117.722656 216.089844 117.835938 C 217.058594 117.941406 217.792969 118.453125 218.292969 119.367188 C 218.800781 120.265625 218.847656 121.140625 218.433594 122.007813 C 218.015625 122.882813 217.171875 123.671875 215.902344 124.382813 Z M 215.902344 124.382813 "/>
</g>
</svg>

