<?xml version="1.0" encoding="UTF-8"?>
<svg xmlns="http://www.w3.org/2000/svg" xmlns:xlink="http://www.w3.org/1999/xlink" width="256pt" height="256pt" viewBox="0 0 256 256" version="1.1">
<g id="surface2">
<rect x="0" y="0" width="256" height="256" style="fill:rgb(94.901961%,93.72549%,91.372549%);fill-opacity:1;stroke:none;"/>
<path style="fill:none;stroke-width:2;stroke-linecap:round;stroke-linejoin:round;stroke:rgb(60%,70.196078%,80%);stroke-opacity:1;stroke-miterlimit:10;" d="M 4.082031 24.398438 L -3 18.589844 "/>
<path style="fill:none;stroke-width:1;stroke-linecap:round;stroke-linejoin:round;stroke:rgb(100%,100%,100%);stroke-opacity:1;stroke-dasharray:2,3;stroke-miterlimit:10;" d="M 3.609375 14.855469 L 1.378906 18.796875 "/>
<path style="fill:none;stroke-width:1;stroke-linecap:round;stroke-linejoin:round;stroke:rgb(100%,100%,100%);stroke-opacity:1;stroke-dasharray:2,3;stroke-miterlimit:10;" d="M -2 2.757813 L 4.714844 0.566406 L 7.164063 1.730469 L 9.09375 5.386719 L 9.050781 7.875 L 8.328125 10.082031 L 5.597656 12.933594 L 3.472656 14.8125 L 3.609375 14.855469 "/>
<path style="fill:none;stroke-width:1;stroke-linecap:round;stroke-linejoin:round;stroke:rgb(100%,100%,100%);stroke-opacity:1;stroke-dasharray:2,3;stroke-miterlimit:10;" d="M -2 8.667969 L 0.335938 12.675781 L 3.472656 14.8125 L 7.6875 16.273438 L 9.660156 16.304688 L 16.621094 22.210938 L 21.851563 28.6875 L 28.261719 33.355469 L 34.789063 34.367188 L 36.921875 36.867188 "/>
<path style="fill:none;stroke-width:1;stroke-linecap:round;stroke-linejoin:round;stroke:rgb(100%,100%,100%);stroke-opacity:1;stroke-dasharray:2,3;stroke-miterlimit:10;" d="M 36.199219 40.171875 L 25.820313 43.625 L 22.742188 42.984375 L 20.992188 42.363281 L 19.242188 41.363281 L 16.742188 40.109375 L 14.742188 39.234375 L 12.617188 38.234375 L 11.59375 37.5625 L 10.144531 36.488281 L 9.117188 35.585938 L 7.421875 34.410156 L 6.074219 33.160156 L 3.972656 31.882813 L 1.746094 30.558594 L -0.105469 28.882813 L -1.605469 26.910156 L -2 26.574219 "/>
<path style="fill:none;stroke-width:1;stroke-linecap:round;stroke-linejoin:round;stroke:rgb(100%,100%,100%);stroke-opacity:1;stroke-dasharray:2,3;stroke-miterlimit:10;" d="M 9.660156 16.304688 L 16.390625 10.648438 L 21.121094 6.15625 L 23.140625 1.621094 L 24.414063 -2 "/>
<path style="fill:none;stroke-width:1;stroke-linecap:round;stroke-linejoin:round;stroke:rgb(100%,100%,100%);stroke-opacity:1;stroke-dasharray:2,3;stroke-miterlimit:10;" d="M 36.199219 40.171875 L 39 40.609375 L 42.742188 41.167969 L 48.160156 42.28125 L 59.554688 44.511719 L 69.230469 46.503906 L 82.695313 51.5625 L 89.1875 60.164063 L 90.617188 61.28125 L 93.566406 59.167969 L 102.332031 57.695313 L 110.855469 58.132813 L 121.019531 53.476563 L 125.109375 52.542969 L 129.335938 53.234375 L 137.976563 52.636719 L 144.351563 55.703125 L 155.222656 53.914063 L 166.136719 45.1875 L 173.265625 40.648438 L 177.726563 40.730469 L 182.585938 47.023438 L 183.941406 52.597656 L 182.945313 58.890625 L 186.332031 63.910156 L 192.027344 69.882813 L 198.199219 74.664063 L 200.507813 81.433594 L 204.492188 86.890625 L 206.246094 93.382813 L 204.253906 99.597656 L 204.933594 106.804688 L 208.476563 112.976563 L 210.585938 115.886719 L 213.933594 117.71875 L 214.53125 121.78125 L 214.570313 124.371094 L 217.558594 127.199219 L 219.109375 131.101563 L 219.667969 135.839844 L 222.695313 142.296875 L 226.597656 147.789063 L 230.582031 150.300781 L 232.957031 155.988281 L 234.289063 182.894531 L 234.015625 188.785156 L 238.238281 197.464844 L 240.703125 200.277344 L 246.214844 197.933594 L 254.65625 196.644531 L 257 198.347656 "/>
<path style="fill:none;stroke-width:5;stroke-linecap:butt;stroke-linejoin:round;stroke:rgb(53.333333%,53.333333%,53.333333%);stroke-opacity:1;stroke-miterlimit:10;" d="M 36.921875 36.867188 L 36.199219 40.171875 "/>
<path style="fill:none;stroke-width:3;stroke-linecap:round;stroke-linejoin:round;stroke:rgb(98.039216%,98.039216%,96.078431%);stroke-opacity:1;stroke-miterlimit:10;" d="M 36.921875 36.867188 L 36.199219 40.171875 "/>
</g>
</svg>

