<?xml version="1.0" encoding="UTF-8"?>
<svg xmlns="http://www.w3.org/2000/svg" xmlns:xlink="http://www.w3.org/1999/xlink" width="256pt" height="256pt" viewBox="0 0 256 256" version="1.1">
<g id="surface2">
<rect x="0" y="0" width="256" height="256" style="fill:rgb(94.901961%,93.72549%,91.372549%);fill-opacity:1;stroke:none;"/>
<path style="fill:none;stroke-width:2;stroke-linecap:round;stroke-linejoin:round;stroke:rgb(60%,70.196078%,80%);stroke-opacity:1;stroke-miterlimit:10;" d="M 213.238281 -3 L 205.167969 5.179688 L 166.167969 33.175781 L 151.167969 58.175781 L 125.167969 87.175781 L 93.167969 110.425781 L 75.667969 115.179688 L 50.667969 106.675781 L 23.667969 90.675781 L -3 81.789063 "/>
<path style="fill:none;stroke-width:3;stroke-linecap:round;stroke-linejoin:round;stroke:rgb(100%,100%,100%);stroke-opacity:1;stroke-miterlimit:10;" d="M 80.902344 109.605469 L 81.855469 109.339844 L 83.121094 114.042969 C 83.347656 114.867188 83.644531 115.429688 84.011719 115.730469 C 84.386719 116.023438 84.875 116.085938 85.480469 115.917969 C 86.082031 115.753906 86.46875 115.449219 86.636719 115.011719 C 86.8125 114.566406 86.785156 113.929688 86.558594 113.105469 L 85.292969 108.402344 L 86.246094 108.152344 L 87.542969 112.980469 C 87.824219 113.992188 87.808594 114.816406 87.496094 115.449219 C 87.183594 116.085938 86.589844 116.523438 85.714844 116.761719 C 84.828125 117.003906 84.089844 116.929688 83.496094 116.542969 C 82.910156 116.148438 82.480469 115.445313 82.199219 114.433594 Z M 90.800781 114.152344 L 91.832031 117.167969 L 90.972656 117.464844 L 88.316406 109.605469 L 89.175781 109.308594 L 89.472656 110.167969 C 89.535156 109.785156 89.667969 109.464844 89.878906 109.214844 C 90.085938 108.957031 90.382813 108.761719 90.769531 108.636719 C 91.394531 108.429688 91.992188 108.535156 92.566406 108.949219 C 93.136719 109.367188 93.574219 110.023438 93.878906 110.917969 C 94.179688 111.816406 94.226563 112.601563 94.019531 113.277344 C 93.820313 113.957031 93.410156 114.398438 92.785156 114.605469 C 92.398438 114.730469 92.042969 114.761719 91.722656 114.699219 C 91.410156 114.628906 91.101563 114.445313 90.800781 114.152344 Z M 93.003906 111.214844 C 92.761719 110.527344 92.449219 110.035156 92.066406 109.730469 C 91.691406 109.417969 91.277344 109.335938 90.832031 109.480469 C 90.371094 109.636719 90.082031 109.957031 89.957031 110.433594 C 89.839844 110.902344 89.902344 111.480469 90.144531 112.167969 C 90.371094 112.855469 90.675781 113.355469 91.050781 113.667969 C 91.433594 113.972656 91.855469 114.042969 92.316406 113.886719 C 92.761719 113.742188 93.042969 113.433594 93.160156 112.964844 C 93.285156 112.488281 93.230469 111.902344 93.003906 111.214844 Z M 97.285156 111.25 L 99.160156 113.828125 L 98.425781 114.359375 L 93.550781 107.65625 L 94.285156 107.125 L 94.816406 107.84375 C 94.765625 107.460938 94.800781 107.117188 94.925781 106.8125 C 95.042969 106.5 95.265625 106.226563 95.597656 105.984375 C 96.128906 105.601563 96.726563 105.523438 97.394531 105.75 C 98.070313 105.980469 98.683594 106.480469 99.238281 107.25 C 99.800781 108.011719 100.085938 108.746094 100.097656 109.453125 C 100.105469 110.164063 99.847656 110.710938 99.316406 111.09375 C 98.980469 111.335938 98.648438 111.46875 98.316406 111.5 C 97.992188 111.523438 97.648438 111.4375 97.285156 111.25 Z M 98.488281 107.796875 C 98.058594 107.203125 97.617188 106.820313 97.160156 106.640625 C 96.710938 106.464844 96.300781 106.511719 95.925781 106.78125 C 95.53125 107.0625 95.347656 107.449219 95.378906 107.9375 C 95.402344 108.429688 95.625 108.96875 96.050781 109.5625 C 96.476563 110.148438 96.917969 110.527344 97.378906 110.703125 C 97.835938 110.882813 98.261719 110.828125 98.660156 110.546875 C 99.035156 110.277344 99.207031 109.898438 99.175781 109.40625 C 99.144531 108.917969 98.914063 108.382813 98.488281 107.796875 Z M 104.039063 103.464844 L 104.320313 103.855469 L 101.007813 106.261719 C 101.4375 106.773438 101.886719 107.074219 102.367188 107.167969 C 102.84375 107.261719 103.320313 107.136719 103.789063 106.792969 C 104.070313 106.585938 104.308594 106.355469 104.507813 106.105469 C 104.714844 105.847656 104.898438 105.542969 105.054688 105.199219 L 105.585938 105.949219 C 105.417969 106.273438 105.226563 106.566406 105.007813 106.824219 C 104.789063 107.074219 104.539063 107.304688 104.257813 107.511719 C 103.558594 108.011719 102.839844 108.191406 102.101563 108.042969 C 101.363281 107.886719 100.710938 107.417969 100.148438 106.636719 C 99.578125 105.847656 99.316406 105.074219 99.367188 104.324219 C 99.410156 103.574219 99.757813 102.964844 100.414063 102.496094 C 101 102.058594 101.609375 101.929688 102.257813 102.105469 C 102.914063 102.285156 103.507813 102.738281 104.039063 103.464844 Z M 103.148438 103.730469 C 102.8125 103.304688 102.449219 103.039063 102.054688 102.933594 C 101.65625 102.820313 101.285156 102.894531 100.929688 103.152344 C 100.523438 103.445313 100.289063 103.808594 100.226563 104.246094 C 100.164063 104.675781 100.285156 105.128906 100.585938 105.605469 Z M 106.671875 99.257813 C 106.554688 99.257813 106.441406 99.285156 106.328125 99.335938 C 106.203125 99.390625 106.089844 99.457031 105.984375 99.539063 C 105.570313 99.832031 105.359375 100.203125 105.359375 100.648438 C 105.359375 101.097656 105.5625 101.597656 105.96875 102.148438 L 107.828125 104.710938 L 107.09375 105.242188 L 103.5625 100.382813 L 104.296875 99.851563 L 104.84375 100.601563 C 104.78125 100.207031 104.820313 99.847656 104.953125 99.523438 C 105.089844 99.203125 105.328125 98.914063 105.671875 98.664063 C 105.726563 98.632813 105.789063 98.597656 105.859375 98.554688 C 105.921875 98.515625 105.992188 98.476563 106.0625 98.445313 Z M 107.453125 95.070313 L 112.40625 91.476563 L 112.953125 92.210938 L 110.875 93.726563 L 115.046875 99.476563 L 114.25 100.054688 L 110.078125 94.304688 L 108 95.804688 Z M 113.878906 92.902344 L 114.613281 92.371094 L 118.253906 95.496094 L 116.410156 91.058594 L 117.253906 90.449219 L 120.894531 93.574219 L 119.050781 89.136719 L 119.769531 88.621094 L 122.144531 94.308594 L 121.300781 94.933594 L 117.457031 91.621094 L 119.410156 96.308594 L 118.566406 96.917969 Z M 120.867188 87.832031 L 121.585938 87.300781 L 125.117188 92.160156 L 124.398438 92.691406 Z M 119.492188 85.925781 L 120.210938 85.394531 L 120.945313 86.410156 L 120.226563 86.941406 Z M 127.667969 84.878906 L 130.199219 87.472656 L 129.558594 88.082031 L 127.058594 85.503906 C 126.652344 85.097656 126.285156 84.863281 125.949219 84.800781 C 125.605469 84.738281 125.292969 84.847656 125.011719 85.128906 C 124.667969 85.464844 124.511719 85.847656 124.542969 86.285156 C 124.574219 86.714844 124.792969 87.140625 125.199219 87.566406 L 127.574219 90.003906 L 126.933594 90.628906 L 122.746094 86.316406 L 123.386719 85.691406 L 124.042969 86.363281 C 123.941406 85.957031 123.929688 85.59375 124.011719 85.269531 C 124.085938 84.9375 124.261719 84.636719 124.542969 84.363281 C 124.980469 83.9375 125.472656 83.765625 126.011719 83.847656 C 126.542969 83.933594 127.09375 84.277344 127.667969 84.878906 Z M 131.515625 80.34375 L 133.703125 82.3125 L 134.75 81.140625 C 135.101563 80.757813 135.269531 80.390625 135.25 80.046875 C 135.238281 79.695313 135.050781 79.351563 134.6875 79.015625 C 134.3125 78.683594 133.953125 78.53125 133.609375 78.5625 C 133.265625 78.585938 132.917969 78.789063 132.5625 79.171875 Z M 129.046875 78.15625 L 130.859375 79.765625 L 131.828125 78.6875 C 132.152344 78.335938 132.320313 78.007813 132.328125 77.703125 C 132.328125 77.390625 132.179688 77.101563 131.875 76.828125 C 131.574219 76.558594 131.273438 76.445313 130.96875 76.484375 C 130.65625 76.527344 130.339844 76.726563 130.015625 77.078125 Z M 127.734375 78.296875 L 129.40625 76.4375 C 129.90625 75.886719 130.421875 75.574219 130.953125 75.5 C 131.476563 75.429688 131.976563 75.601563 132.453125 76.015625 C 132.820313 76.351563 133.039063 76.6875 133.109375 77.03125 C 133.179688 77.375 133.113281 77.71875 132.90625 78.0625 C 133.300781 77.78125 133.722656 77.667969 134.171875 77.71875 C 134.617188 77.761719 135.046875 77.964844 135.453125 78.328125 C 135.984375 78.808594 136.25 79.339844 136.25 79.921875 C 136.25 80.507813 135.976563 81.101563 135.4375 81.703125 L 133.703125 83.640625 Z M 136.523438 72.863281 C 136.421875 72.894531 136.316406 72.949219 136.210938 73.019531 C 136.097656 73.082031 136 73.167969 135.914063 73.269531 C 135.570313 73.644531 135.445313 74.058594 135.539063 74.503906 C 135.632813 74.941406 135.9375 75.386719 136.445313 75.832031 L 138.804688 77.957031 L 138.195313 78.644531 L 133.710938 74.628906 L 134.320313 73.941406 L 135.023438 74.566406 C 134.878906 74.191406 134.84375 73.839844 134.914063 73.503906 C 134.976563 73.160156 135.148438 72.828125 135.429688 72.503906 C 135.472656 72.464844 135.519531 72.417969 135.570313 72.363281 C 135.625 72.300781 135.691406 72.246094 135.773438 72.191406 Z M 138.375 70.464844 C 138.054688 70.820313 137.953125 71.242188 138.078125 71.730469 C 138.203125 72.210938 138.53125 72.691406 139.0625 73.167969 C 139.59375 73.648438 140.105469 73.925781 140.59375 73.996094 C 141.09375 74.070313 141.503906 73.929688 141.828125 73.574219 C 142.140625 73.210938 142.234375 72.789063 142.109375 72.308594 C 141.992188 71.832031 141.671875 71.351563 141.140625 70.871094 C 140.609375 70.394531 140.09375 70.117188 139.59375 70.042969 C 139.09375 69.960938 138.6875 70.101563 138.375 70.464844 Z M 137.765625 69.917969 C 138.277344 69.335938 138.886719 69.066406 139.59375 69.105469 C 140.304688 69.148438 141.023438 69.503906 141.765625 70.167969 C 142.492188 70.824219 142.914063 71.507813 143.03125 72.214844 C 143.15625 72.914063 142.960938 73.554688 142.453125 74.136719 C 141.921875 74.710938 141.300781 74.976563 140.59375 74.933594 C 139.886719 74.882813 139.167969 74.527344 138.4375 73.871094 C 137.699219 73.207031 137.273438 72.523438 137.15625 71.824219 C 137.03125 71.128906 137.234375 70.492188 137.765625 69.917969 Z M 142.410156 65.960938 C 142.089844 66.316406 141.988281 66.738281 142.113281 67.226563 C 142.238281 67.707031 142.566406 68.1875 143.097656 68.664063 C 143.628906 69.144531 144.140625 69.421875 144.628906 69.492188 C 145.128906 69.566406 145.539063 69.425781 145.863281 69.070313 C 146.175781 68.707031 146.269531 68.285156 146.144531 67.804688 C 146.027344 67.328125 145.707031 66.847656 145.175781 66.367188 C 144.644531 65.890625 144.128906 65.613281 143.628906 65.539063 C 143.128906 65.457031 142.722656 65.597656 142.410156 65.960938 Z M 141.800781 65.414063 C 142.3125 64.832031 142.921875 64.5625 143.628906 64.601563 C 144.339844 64.644531 145.058594 65 145.800781 65.664063 C 146.527344 66.320313 146.949219 67.003906 147.066406 67.710938 C 147.191406 68.410156 146.996094 69.050781 146.488281 69.632813 C 145.957031 70.207031 145.335938 70.472656 144.628906 70.429688 C 143.921875 70.378906 143.203125 70.023438 142.472656 69.367188 C 141.734375 68.703125 141.308594 68.019531 141.191406 67.320313 C 141.066406 66.625 141.269531 65.988281 141.800781 65.414063 Z M 142.761719 61.035156 L 143.371094 60.347656 L 147.042969 63.644531 L 146.871094 59.941406 L 147.636719 59.082031 L 147.808594 63.097656 L 152.199219 63.019531 L 151.417969 63.878906 L 147.402344 63.972656 L 149.589844 65.925781 L 148.980469 66.613281 Z M 142.761719 61.035156 "/>
<path style=" stroke:none;fill-rule:evenodd;fill:rgb(41.960784%,58.039216%,69.019608%);fill-opacity:1;" d="M 80.902344 109.605469 L 81.855469 109.339844 L 83.121094 114.042969 C 83.347656 114.867188 83.644531 115.429688 84.011719 115.730469 C 84.386719 116.023438 84.875 116.085938 85.480469 115.917969 C 86.082031 115.753906 86.46875 115.449219 86.636719 115.011719 C 86.8125 114.566406 86.785156 113.929688 86.558594 113.105469 L 85.292969 108.402344 L 86.246094 108.152344 L 87.542969 112.980469 C 87.824219 113.992188 87.808594 114.816406 87.496094 115.449219 C 87.183594 116.085938 86.589844 116.523438 85.714844 116.761719 C 84.828125 117.003906 84.089844 116.929688 83.496094 116.542969 C 82.910156 116.148438 82.480469 115.445313 82.199219 114.433594 Z M 90.800781 114.152344 L 91.832031 117.167969 L 90.972656 117.464844 L 88.316406 109.605469 L 89.175781 109.308594 L 89.472656 110.167969 C 89.535156 109.785156 89.667969 109.464844 89.878906 109.214844 C 90.085938 108.957031 90.382813 108.761719 90.769531 108.636719 C 91.394531 108.429688 91.992188 108.535156 92.566406 108.949219 C 93.136719 109.367188 93.574219 110.023438 93.878906 110.917969 C 94.179688 111.816406 94.226563 112.601563 94.019531 113.277344 C 93.820313 113.957031 93.410156 114.398438 92.785156 114.605469 C 92.398438 114.730469 92.042969 114.761719 91.722656 114.699219 C 91.410156 114.628906 91.101563 114.445313 90.800781 114.152344 Z M 93.003906 111.214844 C 92.761719 110.527344 92.449219 110.035156 92.066406 109.730469 C 91.691406 109.417969 91.277344 109.335938 90.832031 109.480469 C 90.371094 109.636719 90.082031 109.957031 89.957031 110.433594 C 89.839844 110.902344 89.902344 111.480469 90.144531 112.167969 C 90.371094 112.855469 90.675781 113.355469 91.050781 113.667969 C 91.433594 113.972656 91.855469 114.042969 92.316406 113.886719 C 92.761719 113.742188 93.042969 113.433594 93.160156 112.964844 C 93.285156 112.488281 93.230469 111.902344 93.003906 111.214844 Z M 97.285156 111.25 L 99.160156 113.828125 L 98.425781 114.359375 L 93.550781 107.65625 L 94.285156 107.125 L 94.816406 107.84375 C 94.765625 107.460938 94.800781 107.117188 94.925781 106.8125 C 95.042969 106.5 95.265625 106.226563 95.597656 105.984375 C 96.128906 105.601563 96.726563 105.523438 97.394531 105.75 C 98.070313 105.980469 98.683594 106.480469 99.238281 107.25 C 99.800781 108.011719 100.085938 108.746094 100.097656 109.453125 C 100.105469 110.164063 99.847656 110.710938 99.316406 111.09375 C 98.980469 111.335938 98.648438 111.46875 98.316406 111.5 C 97.992188 111.523438 97.648438 111.4375 97.285156 111.25 Z M 98.488281 107.796875 C 98.058594 107.203125 97.617188 106.820313 97.160156 106.640625 C 96.710938 106.464844 96.300781 106.511719 95.925781 106.78125 C 95.53125 107.0625 95.347656 107.449219 95.378906 107.9375 C 95.402344 108.429688 95.625 108.96875 96.050781 109.5625 C 96.476563 110.148438 96.917969 110.527344 97.378906 110.703125 C 97.835938 110.882813 98.261719 110.828125 98.660156 110.546875 C 99.035156 110.277344 99.207031 109.898438 99.175781 109.40625 C 99.144531 108.917969 98.914063 108.382813 98.488281 107.796875 Z M 104.039063 103.464844 L 104.320313 103.855469 L 101.007813 106.261719 C 101.4375 106.773438 101.886719 107.074219 102.367188 107.167969 C 102.84375 107.261719 103.320313 107.136719 103.789063 106.792969 C 104.070313 106.585938 104.308594 106.355469 104.507813 106.105469 C 104.714844 105.847656 104.898438 105.542969 105.054688 105.199219 L 105.585938 105.949219 C 105.417969 106.273438 105.226563 106.566406 105.007813 106.824219 C 104.789063 107.074219 104.539063 107.304688 104.257813 107.511719 C 103.558594 108.011719 102.839844 108.191406 102.101563 108.042969 C 101.363281 107.886719 100.710938 107.417969 100.148438 106.636719 C 99.578125 105.847656 99.316406 105.074219 99.367188 104.324219 C 99.410156 103.574219 99.757813 102.964844 100.414063 102.496094 C 101 102.058594 101.609375 101.929688 102.257813 102.105469 C 102.914063 102.285156 103.507813 102.738281 104.039063 103.464844 Z M 103.148438 103.730469 C 102.8125 103.304688 102.449219 103.039063 102.054688 102.933594 C 101.65625 102.820313 101.285156 102.894531 100.929688 103.152344 C 100.523438 103.445313 100.289063 103.808594 100.226563 104.246094 C 100.164063 104.675781 100.285156 105.128906 100.585938 105.605469 Z M 106.671875 99.257813 C 106.554688 99.257813 106.441406 99.285156 106.328125 99.335938 C 106.203125 99.390625 106.089844 99.457031 105.984375 99.539063 C 105.570313 99.832031 105.359375 100.203125 105.359375 100.648438 C 105.359375 101.097656 105.5625 101.597656 105.96875 102.148438 L 107.828125 104.710938 L 107.09375 105.242188 L 103.5625 100.382813 L 104.296875 99.851563 L 104.84375 100.601563 C 104.78125 100.207031 104.820313 99.847656 104.953125 99.523438 C 105.089844 99.203125 105.328125 98.914063 105.671875 98.664063 C 105.726563 98.632813 105.789063 98.597656 105.859375 98.554688 C 105.921875 98.515625 105.992188 98.476563 106.0625 98.445313 Z M 107.453125 95.070313 L 112.40625 91.476563 L 112.953125 92.210938 L 110.875 93.726563 L 115.046875 99.476563 L 114.25 100.054688 L 110.078125 94.304688 L 108 95.804688 Z M 113.878906 92.902344 L 114.613281 92.371094 L 118.253906 95.496094 L 116.410156 91.058594 L 117.253906 90.449219 L 120.894531 93.574219 L 119.050781 89.136719 L 119.769531 88.621094 L 122.144531 94.308594 L 121.300781 94.933594 L 117.457031 91.621094 L 119.410156 96.308594 L 118.566406 96.917969 Z M 120.867188 87.832031 L 121.585938 87.300781 L 125.117188 92.160156 L 124.398438 92.691406 Z M 119.492188 85.925781 L 120.210938 85.394531 L 120.945313 86.410156 L 120.226563 86.941406 Z M 127.667969 84.878906 L 130.199219 87.472656 L 129.558594 88.082031 L 127.058594 85.503906 C 126.652344 85.097656 126.285156 84.863281 125.949219 84.800781 C 125.605469 84.738281 125.292969 84.847656 125.011719 85.128906 C 124.667969 85.464844 124.511719 85.847656 124.542969 86.285156 C 124.574219 86.714844 124.792969 87.140625 125.199219 87.566406 L 127.574219 90.003906 L 126.933594 90.628906 L 122.746094 86.316406 L 123.386719 85.691406 L 124.042969 86.363281 C 123.941406 85.957031 123.929688 85.59375 124.011719 85.269531 C 124.085938 84.9375 124.261719 84.636719 124.542969 84.363281 C 124.980469 83.9375 125.472656 83.765625 126.011719 83.847656 C 126.542969 83.933594 127.09375 84.277344 127.667969 84.878906 Z M 131.515625 80.34375 L 133.703125 82.3125 L 134.75 81.140625 C 135.101563 80.757813 135.269531 80.390625 135.25 80.046875 C 135.238281 79.695313 135.050781 79.351563 134.6875 79.015625 C 134.3125 78.683594 133.953125 78.53125 133.609375 78.5625 C 133.265625 78.585938 132.917969 78.789063 132.5625 79.171875 Z M 129.046875 78.15625 L 130.859375 79.765625 L 131.828125 78.6875 C 132.152344 78.335938 132.320313 78.007813 132.328125 77.703125 C 132.328125 77.390625 132.179688 77.101563 131.875 76.828125 C 131.574219 76.558594 131.273438 76.445313 130.96875 76.484375 C 130.65625 76.527344 130.339844 76.726563 130.015625 77.078125 Z M 127.734375 78.296875 L 129.40625 76.4375 C 129.90625 75.886719 130.421875 75.574219 130.953125 75.5 C 131.476563 75.429688 131.976563 75.601563 132.453125 76.015625 C 132.820313 76.351563 133.039063 76.6875 133.109375 77.03125 C 133.179688 77.375 133.113281 77.71875 132.90625 78.0625 C 133.300781 77.78125 133.722656 77.667969 134.171875 77.71875 C 134.617188 77.761719 135.046875 77.964844 135.453125 78.328125 C 135.984375 78.808594 136.25 79.339844 136.25 79.921875 C 136.25 80.507813 135.976563 81.101563 135.4375 81.703125 L 133.703125 83.640625 Z M 136.523438 72.863281 C 136.421875 72.894531 136.316406 72.949219 136.210938 73.019531 C 136.097656 73.082031 136 73.167969 135.914063 73.269531 C 135.570313 73.644531 135.445313 74.058594 135.539063 74.503906 C 135.632813 74.941406 135.9375 75.386719 136.445313 75.832031 L 138.804688 77.957031 L 138.195313 78.644531 L 133.710938 74.628906 L 134.320313 73.941406 L 135.023438 74.566406 C 134.878906 74.191406 134.84375 73.839844 134.914063 73.503906 C 134.976563 73.160156 135.148438 72.828125 135.429688 72.503906 C 135.472656 72.464844 135.519531 72.417969 135.570313 72.363281 C 135.625 72.300781 135.691406 72.246094 135.773438 72.191406 Z M 138.375 70.464844 C 138.054688 70.820313 137.953125 71.242188 138.078125 71.730469 C 138.203125 72.210938 138.53125 72.691406 139.0625 73.167969 C 139.59375 73.648438 140.105469 73.925781 140.59375 73.996094 C 141.09375 74.070313 141.503906 73.929688 141.828125 73.574219 C 142.140625 73.210938 142.234375 72.789063 142.109375 72.308594 C 141.992188 71.832031 141.671875 71.351563 141.140625 70.871094 C 140.609375 70.394531 140.09375 70.117188 139.59375 70.042969 C 139.09375 69.960938 138.6875 70.101563 138.375 70.464844 Z M 137.765625 69.917969 C 138.277344 69.335938 138.886719 69.066406 139.59375 69.105469 C 140.304688 69.148438 141.023438 69.503906 141.765625 70.167969 C 142.492188 70.824219 142.914063 71.507813 143.03125 72.214844 C 143.15625 72.914063 142.960938 73.554688 142.453125 74.136719 C 141.921875 74.710938 141.300781 74.976563 140.59375 74.933594 C 139.886719 74.882813 139.167969 74.527344 138.4375 73.871094 C 137.699219 73.207031 137.273438 72.523438 137.15625 71.824219 C 137.03125 71.128906 137.234375 70.492188 137.765625 69.917969 Z M 142.410156 65.960938 C 142.089844 66.316406 141.988281 66.738281 142.113281 67.226563 C 142.238281 67.707031 142.566406 68.1875 143.097656 68.664063 C 143.628906 69.144531 144.140625 69.421875 144.628906 69.492188 C 145.128906 69.566406 145.539063 69.425781 145.863281 69.070313 C 146.175781 68.707031 146.269531 68.285156 146.144531 67.804688 C 146.027344 67.328125 145.707031 66.847656 145.175781 66.367188 C 144.644531 65.890625 144.128906 65.613281 143.628906 65.539063 C 143.128906 65.457031 142.722656 65.597656 142.410156 65.960938 Z M 141.800781 65.414063 C 142.3125 64.832031 142.921875 64.5625 143.628906 64.601563 C 144.339844 64.644531 145.058594 65 145.800781 65.664063 C 146.527344 66.320313 146.949219 67.003906 147.066406 67.710938 C 147.191406 68.410156 146.996094 69.050781 146.488281 69.632813 C 145.957031 70.207031 145.335938 70.472656 144.628906 70.429688 C 143.921875 70.378906 143.203125 70.023438 142.472656 69.367188 C 141.734375 68.703125 141.308594 68.019531 141.191406 67.320313 C 141.066406 66.625 141.269531 65.988281 141.800781 65.414063 Z M 142.761719 61.035156 L 143.371094 60.347656 L 147.042969 63.644531 L 146.871094 59.941406 L 147.636719 59.082031 L 147.808594 63.097656 L 152.199219 63.019531 L 151.417969 63.878906 L 147.402344 63.972656 L 149.589844 65.925781 L 148.980469 66.613281 Z M 142.761719 61.035156 "/>
</g>
</svg>

