<?xml version="1.0" encoding="UTF-8"?>
<svg xmlns="http://www.w3.org/2000/svg" xmlns:xlink="http://www.w3.org/1999/xlink" width="256pt" height="256pt" viewBox="0 0 256 256" version="1.1">
<g id="surface2">
<rect x="0" y="0" width="256" height="256" style="fill:rgb(94.901961%,93.72549%,91.372549%);fill-opacity:1;stroke:none;"/>
<path style="fill:none;stroke-width:1;stroke-linecap:round;stroke-linejoin:round;stroke:rgb(100%,100%,100%);stroke-opacity:1;stroke-dasharray:2,3;stroke-miterlimit:10;" d="M 47.335938 108.871094 L 46.011719 109.421875 "/>
<path style="fill:none;stroke-width:1;stroke-linecap:round;stroke-linejoin:round;stroke:rgb(100%,100%,100%);stroke-opacity:1;stroke-dasharray:2,3;stroke-miterlimit:10;" d="M 93.871094 149.628906 L 87.574219 141.851563 L 81.707031 137.539063 L 77.132813 137.796875 L 74.027344 133.828125 L 73.769531 128.046875 L 73.425781 122.953125 L 70.234375 118.816406 L 58.410156 118.640625 L 53.0625 116.484375 L 48.144531 111.914063 L 47.335938 108.871094 L 45.988281 103.800781 L 47.367188 99.402344 L 48.667969 97.097656 L 48.804688 94.777344 L 47.722656 92.441406 L 48.703125 91.800781 L 49.992188 91.519531 "/>
<path style="fill:none;stroke-width:1;stroke-linecap:round;stroke-linejoin:round;stroke:rgb(100%,100%,100%);stroke-opacity:1;stroke-dasharray:2,3;stroke-miterlimit:10;" d="M 93.871094 149.628906 L 90.515625 151.734375 L 85.144531 154.84375 L 81.148438 158.628906 L 78.3125 165.949219 L 77 170.554688 L 74.558594 174.035156 L 69.800781 176.75 L 67.238281 180.652344 L 66.140625 186.8125 L 63.914063 188.613281 L 56.5625 192.335938 L 56.589844 195.660156 L 58.300781 201.183594 L 56.894531 205.148438 L 52.839844 209.632813 L 50.855469 222.75 L 42.574219 234.050781 L 37.914063 237.589844 L 37.136719 242.765625 L 32.734375 253.722656 L 33.273438 257 "/>
<path style="fill:none;stroke-width:1;stroke-linecap:round;stroke-linejoin:round;stroke:rgb(100%,100%,100%);stroke-opacity:1;stroke-dasharray:2,3;stroke-miterlimit:10;" d="M 257 190.859375 L 249.136719 189.488281 L 245.945313 181.894531 L 240.59375 177.320313 L 234.382813 175.597656 L 224.632813 176.460938 L 213.761719 174.214844 L 201.941406 173.699219 L 195.902344 169.210938 L 192.191406 166.882813 L 187.960938 167.65625 L 183.734375 163.945313 L 180.199219 163.863281 L 177.523438 167.140625 L 170.707031 161.53125 L 166.304688 159.289063 L 160.351563 158.515625 L 156.382813 152.386719 L 151.636719 150.316406 L 145.425781 150.660156 L 135.15625 141.257813 L 124.027344 140.394531 L 120.058594 148.332031 L 107.117188 152.472656 L 99.789063 148.835938 L 93.871094 149.628906 "/>
</g>
</svg>

