<?xml version="1.0" encoding="UTF-8"?>
<svg xmlns="http://www.w3.org/2000/svg" xmlns:xlink="http://www.w3.org/1999/xlink" width="256pt" height="256pt" viewBox="0 0 256 256" version="1.1">
<g id="surface2">
<rect x="0" y="0" width="256" height="256" style="fill:rgb(60%,70.196078%,80%);fill-opacity:1;stroke:none;"/>
<path style=" stroke:none;fill-rule:evenodd;fill:rgb(94.901961%,93.72549%,91.372549%);fill-opacity:1;" d="M 259 -4 L -4 -4 L 39.277344 -4 L 38.1875 -3.242188 L 32.664063 -4 L -4 -4 L -4 259 L -4 -4 Z M 259 -4 "/>
<path style=" stroke:none;fill-rule:evenodd;fill:rgb(60%,70.196078%,80%);fill-opacity:1;" d="M -4 259 L 259 259 L 259 -4 L 259 259 Z M -4 259 "/>
<path style="fill:none;stroke-width:1;stroke-linecap:round;stroke-linejoin:round;stroke:rgb(70.196078%,77.647059%,83.137255%);stroke-opacity:1;stroke-miterlimit:10;" d="M -4 259 L 259 259 L 259 -4 L 259 259 L -4 259 "/>
<path style=" stroke:none;fill-rule:evenodd;fill:rgb(60%,70.196078%,80%);fill-opacity:1;" d="M -4 259 L 259 259 L 259 -4 L 39.277344 -4 L 38.1875 -3.242188 L 32.660156 -4 L -4 -4 Z M -8241762.855469 4967778.621094 Z M -8241762.855469 4967778.621094 "/>
<path style="fill:none;stroke-width:1;stroke-linecap:round;stroke-linejoin:round;stroke:rgb(70.196078%,77.647059%,83.137255%);stroke-opacity:1;stroke-miterlimit:10;" d="M -4 259 L 259 259 L 259 -4 L 39.277344 -4 L 38.1875 -3.242188 L 32.660156 -4 L -4 -4 L -4 259 "/>
<path style="fill:none;stroke-width:6;stroke-linecap:round;stroke-linejoin:round;stroke:rgb(60%,70.196078%,80%);stroke-opacity:1;stroke-miterlimit:10;" d="M 262 186.078125 L 193.328125 159.714844 "/>
<path style="fill:none;stroke-width:6;stroke-linecap:round;stroke-linejoin:round;stroke:rgb(60%,70.196078%,80%);stroke-opacity:1;stroke-miterlimit:10;" d="M 239.816406 -7 L 231.714844 42.582031 L 193.328125 159.714844 L 159.808594 262 "/>
<path style="fill:none;stroke-width:3;stroke-linecap:round;stroke-linejoin:round;stroke:rgb(100%,100%,100%);stroke-opacity:1;stroke-miterlimit:10;" d="M 187.480469 163.15625 L 187.839844 162.0625 L 191.542969 163.28125 L 192.855469 159.296875 L 189.152344 158.078125 L 189.511719 156.96875 L 198.527344 159.921875 L 198.167969 161.03125 L 193.871094 159.625 L 192.558594 163.609375 L 196.855469 165.015625 L 196.496094 166.109375 Z M 196.515625 157.015625 L 192.4375 155.671875 L 192.765625 154.6875 L 196.8125 156.015625 C 197.449219 156.226563 197.964844 156.273438 198.359375 156.15625 C 198.757813 156.03125 199.023438 155.746094 199.171875 155.296875 C 199.347656 154.757813 199.296875 154.273438 199.015625 153.84375 C 198.734375 153.40625 198.265625 153.078125 197.609375 152.859375 L 193.78125 151.59375 L 194.109375 150.578125 L 200.859375 152.796875 L 200.53125 153.8125 L 199.484375 153.46875 C 199.816406 153.84375 200.03125 154.226563 200.125 154.609375 C 200.21875 154.996094 200.191406 155.402344 200.046875 155.828125 C 199.828125 156.527344 199.414063 156.976563 198.8125 157.171875 C 198.210938 157.371094 197.445313 157.320313 196.515625 157.015625 Z M 193.09375 153.125 Z M 197.109375 144.867188 L 193.453125 143.664063 L 193.78125 142.664063 L 203.171875 145.742188 L 202.84375 146.742188 L 201.828125 146.414063 C 202.148438 146.75 202.359375 147.113281 202.453125 147.507813 C 202.546875 147.894531 202.519531 148.304688 202.375 148.742188 C 202.132813 149.492188 201.613281 149.992188 200.8125 150.242188 C 200.011719 150.484375 199.078125 150.425781 198.015625 150.070313 C 196.964844 149.726563 196.1875 149.222656 195.6875 148.554688 C 195.179688 147.878906 195.042969 147.164063 195.28125 146.414063 C 195.429688 145.976563 195.652344 145.628906 195.953125 145.367188 C 196.246094 145.109375 196.632813 144.941406 197.109375 144.867188 Z M 198.359375 149.039063 C 199.171875 149.3125 199.867188 149.375 200.4375 149.226563 C 201 149.070313 201.363281 148.726563 201.53125 148.195313 C 201.707031 147.664063 201.609375 147.175781 201.234375 146.726563 C 200.871094 146.269531 200.28125 145.90625 199.46875 145.632813 C 198.648438 145.363281 197.960938 145.304688 197.40625 145.460938 C 196.84375 145.617188 196.476563 145.960938 196.296875 146.492188 C 196.132813 147.023438 196.230469 147.515625 196.59375 147.960938 C 196.949219 148.410156 197.539063 148.769531 198.359375 149.039063 Z M 198.546875 137.65625 L 199.59375 138 C 199.34375 138.230469 199.132813 138.484375 198.953125 138.765625 C 198.777344 139.046875 198.636719 139.351563 198.53125 139.671875 C 198.375 140.171875 198.339844 140.574219 198.421875 140.875 C 198.507813 141.179688 198.71875 141.386719 199.0625 141.5 C 199.3125 141.585938 199.542969 141.558594 199.75 141.421875 C 199.949219 141.289063 200.203125 140.976563 200.515625 140.484375 L 200.71875 140.1875 C 201.117188 139.53125 201.515625 139.109375 201.921875 138.921875 C 202.328125 138.726563 202.804688 138.714844 203.34375 138.890625 C 203.976563 139.101563 204.40625 139.484375 204.625 140.046875 C 204.84375 140.609375 204.820313 141.28125 204.5625 142.0625 C 204.457031 142.386719 204.3125 142.714844 204.125 143.046875 C 203.945313 143.371094 203.722656 143.703125 203.453125 144.046875 L 202.3125 143.671875 C 202.648438 143.382813 202.929688 143.074219 203.15625 142.75 C 203.375 142.417969 203.539063 142.074219 203.65625 141.71875 C 203.8125 141.261719 203.835938 140.875 203.734375 140.5625 C 203.628906 140.25 203.417969 140.042969 203.09375 139.9375 C 202.792969 139.835938 202.53125 139.851563 202.3125 139.984375 C 202.09375 140.109375 201.8125 140.453125 201.46875 141.015625 L 201.25 141.328125 C 200.90625 141.914063 200.542969 142.292969 200.15625 142.46875 C 199.761719 142.648438 199.304688 142.652344 198.78125 142.484375 C 198.148438 142.277344 197.726563 141.914063 197.515625 141.390625 C 197.296875 140.859375 197.3125 140.226563 197.5625 139.484375 C 197.679688 139.121094 197.824219 138.789063 198 138.484375 C 198.167969 138.171875 198.351563 137.898438 198.546875 137.65625 Z M 200.523438 133.585938 C 200.347656 134.128906 200.441406 134.632813 200.804688 135.101563 C 201.171875 135.5625 201.757813 135.921875 202.570313 136.179688 C 203.382813 136.453125 204.070313 136.507813 204.632813 136.351563 C 205.195313 136.1875 205.5625 135.832031 205.742188 135.289063 C 205.917969 134.757813 205.824219 134.265625 205.460938 133.804688 C 205.097656 133.335938 204.515625 132.96875 203.710938 132.695313 C 202.910156 132.4375 202.222656 132.390625 201.648438 132.554688 C 201.078125 132.710938 200.703125 133.054688 200.523438 133.585938 Z M 199.585938 133.273438 C 199.878906 132.410156 200.421875 131.832031 201.210938 131.539063 C 202.003906 131.25 202.953125 131.285156 204.054688 131.648438 C 205.171875 132.015625 205.953125 132.550781 206.414063 133.257813 C 206.882813 133.957031 206.96875 134.738281 206.679688 135.601563 C 206.398438 136.476563 205.867188 137.0625 205.085938 137.351563 C 204.296875 137.632813 203.34375 137.59375 202.226563 137.226563 C 201.125 136.863281 200.335938 136.332031 199.867188 135.632813 C 199.398438 134.9375 199.304688 134.148438 199.585938 133.273438 Z M 205.546875 124.691406 L 209.625 126.035156 L 209.296875 127.035156 L 205.265625 125.707031 C 204.621094 125.5 204.105469 125.457031 203.71875 125.582031 C 203.324219 125.707031 203.054688 125.996094 202.90625 126.441406 C 202.730469 126.972656 202.78125 127.457031 203.0625 127.894531 C 203.335938 128.332031 203.804688 128.660156 204.46875 128.878906 L 208.28125 130.128906 L 207.953125 131.128906 L 201.203125 128.910156 L 201.53125 127.910156 L 202.578125 128.253906 C 202.257813 127.890625 202.046875 127.515625 201.953125 127.128906 C 201.851563 126.734375 201.867188 126.324219 202 125.894531 C 202.230469 125.207031 202.648438 124.761719 203.25 124.550781 C 203.84375 124.34375 204.609375 124.390625 205.546875 124.691406 Z M 208.484375 115.261719 C 208.664063 115.042969 208.933594 114.871094 209.296875 114.746094 C 209.652344 114.613281 210.117188 114.511719 210.6875 114.449219 L 213.515625 114.152344 L 213.125 115.339844 L 210.484375 115.605469 C 209.796875 115.667969 209.320313 115.800781 209.046875 115.996094 C 208.765625 116.183594 208.554688 116.492188 208.40625 116.917969 L 208.015625 118.121094 L 211.8125 119.371094 L 211.453125 120.464844 L 202.4375 117.511719 L 203.25 115.042969 C 203.554688 114.117188 203.996094 113.496094 204.578125 113.183594 C 205.164063 112.863281 205.886719 112.839844 206.75 113.121094 C 207.324219 113.308594 207.761719 113.585938 208.0625 113.949219 C 208.355469 114.316406 208.496094 114.753906 208.484375 115.261719 Z M 203.8125 116.746094 L 207 117.792969 L 207.453125 116.417969 C 207.632813 115.886719 207.625 115.445313 207.4375 115.089844 C 207.25 114.726563 206.890625 114.457031 206.359375 114.277344 C 205.839844 114.113281 205.40625 114.121094 205.0625 114.308594 C 204.710938 114.488281 204.445313 114.839844 204.265625 115.371094 Z M 207.21875 110.570313 L 207.546875 109.570313 L 214.296875 111.789063 L 213.96875 112.789063 Z M 204.578125 109.710938 L 204.90625 108.710938 L 206.328125 109.179688 L 206 110.179688 Z M 207.996094 108.203125 L 208.339844 107.15625 L 214.636719 107.109375 L 209.589844 103.34375 L 209.933594 102.28125 L 215.933594 106.78125 L 215.496094 108.140625 Z M 215.183594 96.71875 L 215.714844 96.90625 L 214.214844 101.515625 C 215.007813 101.714844 215.664063 101.695313 216.183594 101.453125 C 216.695313 101.203125 217.058594 100.75 217.277344 100.09375 C 217.402344 99.710938 217.46875 99.320313 217.480469 98.921875 C 217.5 98.527344 217.464844 98.121094 217.371094 97.703125 L 218.417969 98.046875 C 218.46875 98.453125 218.472656 98.867188 218.433594 99.28125 C 218.402344 99.6875 218.324219 100.085938 218.199219 100.46875 C 217.886719 101.4375 217.324219 102.105469 216.511719 102.46875 C 215.699219 102.824219 214.757813 102.828125 213.683594 102.484375 C 212.582031 102.121094 211.792969 101.5625 211.324219 100.8125 C 210.847656 100.054688 210.753906 99.21875 211.042969 98.3125 C 211.316406 97.492188 211.820313 96.9375 212.558594 96.65625 C 213.300781 96.375 214.175781 96.398438 215.183594 96.71875 Z M 214.527344 97.640625 C 213.925781 97.445313 213.394531 97.433594 212.933594 97.609375 C 212.464844 97.789063 212.152344 98.121094 211.996094 98.609375 C 211.808594 99.171875 211.839844 99.679688 212.089844 100.125 C 212.332031 100.574219 212.753906 100.929688 213.355469 101.1875 Z M 214.816406 90.875 C 214.703125 90.96875 214.609375 91.078125 214.535156 91.203125 C 214.464844 91.320313 214.402344 91.460938 214.347656 91.625 C 214.160156 92.1875 214.222656 92.6875 214.535156 93.125 C 214.839844 93.554688 215.371094 93.890625 216.128906 94.140625 L 219.691406 95.3125 L 219.363281 96.3125 L 212.613281 94.09375 L 212.941406 93.09375 L 213.988281 93.4375 C 213.644531 93.09375 213.433594 92.726563 213.347656 92.328125 C 213.253906 91.921875 213.285156 91.484375 213.441406 91.015625 C 213.464844 90.945313 213.496094 90.871094 213.535156 90.796875 C 213.566406 90.714844 213.613281 90.617188 213.675781 90.5 Z M 214.816406 90.875 "/>
<path style=" stroke:none;fill-rule:evenodd;fill:rgb(41.960784%,58.039216%,69.019608%);fill-opacity:1;" d="M 187.480469 163.15625 L 187.839844 162.0625 L 191.542969 163.28125 L 192.855469 159.296875 L 189.152344 158.078125 L 189.511719 156.96875 L 198.527344 159.921875 L 198.167969 161.03125 L 193.871094 159.625 L 192.558594 163.609375 L 196.855469 165.015625 L 196.496094 166.109375 Z M 196.515625 157.015625 L 192.4375 155.671875 L 192.765625 154.6875 L 196.8125 156.015625 C 197.449219 156.226563 197.964844 156.273438 198.359375 156.15625 C 198.757813 156.03125 199.023438 155.746094 199.171875 155.296875 C 199.347656 154.757813 199.296875 154.273438 199.015625 153.84375 C 198.734375 153.40625 198.265625 153.078125 197.609375 152.859375 L 193.78125 151.59375 L 194.109375 150.578125 L 200.859375 152.796875 L 200.53125 153.8125 L 199.484375 153.46875 C 199.816406 153.84375 200.03125 154.226563 200.125 154.609375 C 200.21875 154.996094 200.191406 155.402344 200.046875 155.828125 C 199.828125 156.527344 199.414063 156.976563 198.8125 157.171875 C 198.210938 157.371094 197.445313 157.320313 196.515625 157.015625 Z M 193.09375 153.125 Z M 197.109375 144.867188 L 193.453125 143.664063 L 193.78125 142.664063 L 203.171875 145.742188 L 202.84375 146.742188 L 201.828125 146.414063 C 202.148438 146.75 202.359375 147.113281 202.453125 147.507813 C 202.546875 147.894531 202.519531 148.304688 202.375 148.742188 C 202.132813 149.492188 201.613281 149.992188 200.8125 150.242188 C 200.011719 150.484375 199.078125 150.425781 198.015625 150.070313 C 196.964844 149.726563 196.1875 149.222656 195.6875 148.554688 C 195.179688 147.878906 195.042969 147.164063 195.28125 146.414063 C 195.429688 145.976563 195.652344 145.628906 195.953125 145.367188 C 196.246094 145.109375 196.632813 144.941406 197.109375 144.867188 Z M 198.359375 149.039063 C 199.171875 149.3125 199.867188 149.375 200.4375 149.226563 C 201 149.070313 201.363281 148.726563 201.53125 148.195313 C 201.707031 147.664063 201.609375 147.175781 201.234375 146.726563 C 200.871094 146.269531 200.28125 145.90625 199.46875 145.632813 C 198.648438 145.363281 197.960938 145.304688 197.40625 145.460938 C 196.84375 145.617188 196.476563 145.960938 196.296875 146.492188 C 196.132813 147.023438 196.230469 147.515625 196.59375 147.960938 C 196.949219 148.410156 197.539063 148.769531 198.359375 149.039063 Z M 198.546875 137.65625 L 199.59375 138 C 199.34375 138.230469 199.132813 138.484375 198.953125 138.765625 C 198.777344 139.046875 198.636719 139.351563 198.53125 139.671875 C 198.375 140.171875 198.339844 140.574219 198.421875 140.875 C 198.507813 141.179688 198.71875 141.386719 199.0625 141.5 C 199.3125 141.585938 199.542969 141.558594 199.75 141.421875 C 199.949219 141.289063 200.203125 140.976563 200.515625 140.484375 L 200.71875 140.1875 C 201.117188 139.53125 201.515625 139.109375 201.921875 138.921875 C 202.328125 138.726563 202.804688 138.714844 203.34375 138.890625 C 203.976563 139.101563 204.40625 139.484375 204.625 140.046875 C 204.84375 140.609375 204.820313 141.28125 204.5625 142.0625 C 204.457031 142.386719 204.3125 142.714844 204.125 143.046875 C 203.945313 143.371094 203.722656 143.703125 203.453125 144.046875 L 202.3125 143.671875 C 202.648438 143.382813 202.929688 143.074219 203.15625 142.75 C 203.375 142.417969 203.539063 142.074219 203.65625 141.71875 C 203.8125 141.261719 203.835938 140.875 203.734375 140.5625 C 203.628906 140.25 203.417969 140.042969 203.09375 139.9375 C 202.792969 139.835938 202.53125 139.851563 202.3125 139.984375 C 202.09375 140.109375 201.8125 140.453125 201.46875 141.015625 L 201.25 141.328125 C 200.90625 141.914063 200.542969 142.292969 200.15625 142.46875 C 199.761719 142.648438 199.304688 142.652344 198.78125 142.484375 C 198.148438 142.277344 197.726563 141.914063 197.515625 141.390625 C 197.296875 140.859375 197.3125 140.226563 197.5625 139.484375 C 197.679688 139.121094 197.824219 138.789063 198 138.484375 C 198.167969 138.171875 198.351563 137.898438 198.546875 137.65625 Z M 200.523438 133.585938 C 200.347656 134.128906 200.441406 134.632813 200.804688 135.101563 C 201.171875 135.5625 201.757813 135.921875 202.570313 136.179688 C 203.382813 136.453125 204.070313 136.507813 204.632813 136.351563 C 205.195313 136.1875 205.5625 135.832031 205.742188 135.289063 C 205.917969 134.757813 205.824219 134.265625 205.460938 133.804688 C 205.097656 133.335938 204.515625 132.96875 203.710938 132.695313 C 202.910156 132.4375 202.222656 132.390625 201.648438 132.554688 C 201.078125 132.710938 200.703125 133.054688 200.523438 133.585938 Z M 199.585938 133.273438 C 199.878906 132.410156 200.421875 131.832031 201.210938 131.539063 C 202.003906 131.25 202.953125 131.285156 204.054688 131.648438 C 205.171875 132.015625 205.953125 132.550781 206.414063 133.257813 C 206.882813 133.957031 206.96875 134.738281 206.679688 135.601563 C 206.398438 136.476563 205.867188 137.0625 205.085938 137.351563 C 204.296875 137.632813 203.34375 137.59375 202.226563 137.226563 C 201.125 136.863281 200.335938 136.332031 199.867188 135.632813 C 199.398438 134.9375 199.304688 134.148438 199.585938 133.273438 Z M 205.546875 124.691406 L 209.625 126.035156 L 209.296875 127.035156 L 205.265625 125.707031 C 204.621094 125.5 204.105469 125.457031 203.71875 125.582031 C 203.324219 125.707031 203.054688 125.996094 202.90625 126.441406 C 202.730469 126.972656 202.78125 127.457031 203.0625 127.894531 C 203.335938 128.332031 203.804688 128.660156 204.46875 128.878906 L 208.28125 130.128906 L 207.953125 131.128906 L 201.203125 128.910156 L 201.53125 127.910156 L 202.578125 128.253906 C 202.257813 127.890625 202.046875 127.515625 201.953125 127.128906 C 201.851563 126.734375 201.867188 126.324219 202 125.894531 C 202.230469 125.207031 202.648438 124.761719 203.25 124.550781 C 203.84375 124.34375 204.609375 124.390625 205.546875 124.691406 Z M 208.484375 115.261719 C 208.664063 115.042969 208.933594 114.871094 209.296875 114.746094 C 209.652344 114.613281 210.117188 114.511719 210.6875 114.449219 L 213.515625 114.152344 L 213.125 115.339844 L 210.484375 115.605469 C 209.796875 115.667969 209.320313 115.800781 209.046875 115.996094 C 208.765625 116.183594 208.554688 116.492188 208.40625 116.917969 L 208.015625 118.121094 L 211.8125 119.371094 L 211.453125 120.464844 L 202.4375 117.511719 L 203.25 115.042969 C 203.554688 114.117188 203.996094 113.496094 204.578125 113.183594 C 205.164063 112.863281 205.886719 112.839844 206.75 113.121094 C 207.324219 113.308594 207.761719 113.585938 208.0625 113.949219 C 208.355469 114.316406 208.496094 114.753906 208.484375 115.261719 Z M 203.8125 116.746094 L 207 117.792969 L 207.453125 116.417969 C 207.632813 115.886719 207.625 115.445313 207.4375 115.089844 C 207.25 114.726563 206.890625 114.457031 206.359375 114.277344 C 205.839844 114.113281 205.40625 114.121094 205.0625 114.308594 C 204.710938 114.488281 204.445313 114.839844 204.265625 115.371094 Z M 207.21875 110.570313 L 207.546875 109.570313 L 214.296875 111.789063 L 213.96875 112.789063 Z M 204.578125 109.710938 L 204.90625 108.710938 L 206.328125 109.179688 L 206 110.179688 Z M 207.996094 108.203125 L 208.339844 107.15625 L 214.636719 107.109375 L 209.589844 103.34375 L 209.933594 102.28125 L 215.933594 106.78125 L 215.496094 108.140625 Z M 215.183594 96.71875 L 215.714844 96.90625 L 214.214844 101.515625 C 215.007813 101.714844 215.664063 101.695313 216.183594 101.453125 C 216.695313 101.203125 217.058594 100.75 217.277344 100.09375 C 217.402344 99.710938 217.46875 99.320313 217.480469 98.921875 C 217.5 98.527344 217.464844 98.121094 217.371094 97.703125 L 218.417969 98.046875 C 218.46875 98.453125 218.472656 98.867188 218.433594 99.28125 C 218.402344 99.6875 218.324219 100.085938 218.199219 100.46875 C 217.886719 101.4375 217.324219 102.105469 216.511719 102.46875 C 215.699219 102.824219 214.757813 102.828125 213.683594 102.484375 C 212.582031 102.121094 211.792969 101.5625 211.324219 100.8125 C 210.847656 100.054688 210.753906 99.21875 211.042969 98.3125 C 211.316406 97.492188 211.820313 96.9375 212.558594 96.65625 C 213.300781 96.375 214.175781 96.398438 215.183594 96.71875 Z M 214.527344 97.640625 C 213.925781 97.445313 213.394531 97.433594 212.933594 97.609375 C 212.464844 97.789063 212.152344 98.121094 211.996094 98.609375 C 211.808594 99.171875 211.839844 99.679688 212.089844 100.125 C 212.332031 100.574219 212.753906 100.929688 213.355469 101.1875 Z M 214.816406 90.875 C 214.703125 90.96875 214.609375 91.078125 214.535156 91.203125 C 214.464844 91.320313 214.402344 91.460938 214.347656 91.625 C 214.160156 92.1875 214.222656 92.6875 214.535156 93.125 C 214.839844 93.554688 215.371094 93.890625 216.128906 94.140625 L 219.691406 95.3125 L 219.363281 96.3125 L 212.613281 94.09375 L 212.941406 93.09375 L 213.988281 93.4375 C 213.644531 93.09375 213.433594 92.726563 213.347656 92.328125 C 213.253906 91.921875 213.285156 91.484375 213.441406 91.015625 C 213.464844 90.945313 213.496094 90.871094 213.535156 90.796875 C 213.566406 90.714844 213.613281 90.617188 213.675781 90.5 Z M 214.816406 90.875 "/>
</g>
</svg>

