<?xml version="1.0" encoding="UTF-8"?>
<svg xmlns="http://www.w3.org/2000/svg" xmlns:xlink="http://www.w3.org/1999/xlink" width="256pt" height="256pt" viewBox="0 0 256 256" version="1.1">
<g id="surface2">
<rect x="0" y="0" width="256" height="256" style="fill:rgb(94.901961%,93.72549%,91.372549%);fill-opacity:1;stroke:none;"/>
<path style=" stroke:none;fill-rule:evenodd;fill:rgb(60%,70.196078%,80%);fill-opacity:1;" d="M -4 -4 L 259 -4 L 259 259 L 259 -4 Z M -4 -4 "/>
<path style="fill:none;stroke-width:1;stroke-linecap:round;stroke-linejoin:round;stroke:rgb(70.196078%,77.647059%,83.137255%);stroke-opacity:1;stroke-miterlimit:10;" d="M -4 -4 L 259 -4 L 259 259 L 259 -4 L -4 -4 "/>
<path style=" stroke:none;fill-rule:evenodd;fill:rgb(60%,70.196078%,80%);fill-opacity:1;" d="M -4 206.734375 L -3.242188 207.0625 L 3.140625 193.964844 L 14.226563 181.195313 L 19.601563 186.90625 L 19.265625 199.675781 L 22.289063 216.46875 L 48.828125 221.847656 L 60.585938 217.144531 L 67.644531 199.675781 L 74.699219 193.292969 L 84.441406 193.625 L 93.847656 202.363281 L 114.675781 192.285156 L 148.605469 162.046875 L 162.070313 148.957031 L 162.78125 139.449219 L 155.09375 130.03125 L 156.582031 128.816406 L 151.992188 122.808594 L 150.246094 124.128906 L 146.558594 119.253906 L 141.046875 119.984375 L 136.234375 118.136719 L 133.296875 115.609375 L 116.019531 108.296875 L 103.253906 88.140625 L 101.238281 77.390625 L 119.042969 64.625 L 110.644531 53.203125 L 94.183594 46.816406 L 84.777344 33.042969 L 73.019531 12.550781 L 64.957031 6.839844 L 72.007813 4.824219 L 72.8125 -4 L 33.816406 -4 L 30.6875 0.453125 L 3.476563 9.863281 L -3.914063 24.980469 L -4 25.539063 Z M -4 206.734375 "/>
<path style="fill:none;stroke-width:1;stroke-linecap:round;stroke-linejoin:round;stroke:rgb(70.196078%,77.647059%,83.137255%);stroke-opacity:1;stroke-miterlimit:10;" d="M -4 206.734375 L -3.242188 207.0625 L 3.140625 193.964844 L 14.226563 181.195313 L 19.601563 186.90625 L 19.265625 199.675781 L 22.289063 216.46875 L 48.828125 221.847656 L 60.585938 217.144531 L 67.644531 199.675781 L 74.699219 193.292969 L 84.441406 193.625 L 93.847656 202.363281 L 114.675781 192.285156 L 148.605469 162.046875 L 162.070313 148.957031 L 162.78125 139.449219 L 155.09375 130.03125 L 156.582031 128.816406 L 151.992188 122.808594 L 150.246094 124.128906 L 146.558594 119.253906 L 141.046875 119.984375 L 136.234375 118.136719 L 133.296875 115.609375 L 116.019531 108.296875 L 103.253906 88.140625 L 101.238281 77.390625 L 119.042969 64.625 L 110.644531 53.203125 L 94.183594 46.816406 L 84.777344 33.042969 L 73.019531 12.550781 L 64.957031 6.839844 L 72.007813 4.824219 L 72.8125 -4 L 33.816406 -4 L 30.6875 0.453125 L 3.476563 9.863281 L -3.914063 24.980469 L -4 25.539063 L -4 206.734375 "/>
<path style="fill:none;stroke-width:8;stroke-linecap:round;stroke-linejoin:round;stroke:rgb(75.686275%,70.980392%,61.568627%);stroke-opacity:1;stroke-miterlimit:10;" d="M 218.164063 130.769531 L 223.476563 137.835938 L 224.445313 141.054688 L 224.851563 144.898438 L 224.726563 147.960938 L 224.039063 150.523438 L 222.351563 153.492188 L 220.382813 156.332031 L 219.976563 158.050781 L 221.476563 159.460938 "/>
<path style="fill:none;stroke-width:8;stroke-linecap:round;stroke-linejoin:round;stroke:rgb(75.686275%,70.980392%,61.568627%);stroke-opacity:1;stroke-miterlimit:10;" d="M 34.765625 263.921875 L 30.550781 259.261719 L 25.109375 252.671875 L 20.578125 244.578125 L 17.140625 240.265625 L 14.546875 237.261719 L 13.484375 233.199219 L 13.796875 230.265625 L 14.015625 224.703125 L 13.859375 219.046875 L 12.613281 216.703125 L 10.515625 215.261719 "/>
<path style="fill:none;stroke-width:8;stroke-linecap:round;stroke-linejoin:round;stroke:rgb(75.686275%,70.980392%,61.568627%);stroke-opacity:1;stroke-miterlimit:10;" d="M 170.691406 89.707031 L 162.007813 94.117188 L 151.441406 95.199219 L 142.800781 98.472656 "/>
<path style="fill:none;stroke-width:8;stroke-linecap:round;stroke-linejoin:round;stroke:rgb(75.686275%,70.980392%,61.568627%);stroke-opacity:1;stroke-miterlimit:10;" d="M 213.539063 133.300781 L 210.507813 130.460938 L 187.882813 116.675781 L 179.757813 114.988281 L 178.476563 113.488281 "/>
<path style="fill:none;stroke-width:8;stroke-linecap:round;stroke-linejoin:round;stroke:rgb(75.686275%,70.980392%,61.568627%);stroke-opacity:1;stroke-miterlimit:10;" d="M 175.664063 107.992188 L 170.691406 89.707031 L 158.726563 71.375 L 112.734375 47.632813 L 97.058594 30.511719 L 83.464844 15.71875 L 75.464844 -9 "/>
<path style="fill:none;stroke-width:9;stroke-linecap:round;stroke-linejoin:round;stroke:rgb(75.686275%,70.980392%,61.568627%);stroke-opacity:1;stroke-miterlimit:10;" d="M 265 105.757813 L 258.316406 108.8125 L 218.164063 130.769531 L 213.539063 133.300781 L 191.824219 147.117188 L 167.601563 164.550781 L 133.296875 189.921875 L 95.734375 218.480469 L 58.421875 246.140625 L 34.765625 263.921875 L 33.359375 265 "/>
<path style="fill:none;stroke-width:6;stroke-linecap:round;stroke-linejoin:round;stroke:rgb(100%,100%,100%);stroke-opacity:1;stroke-miterlimit:10;" d="M 218.164063 130.769531 L 223.476563 137.835938 L 224.445313 141.054688 L 224.851563 144.898438 L 224.726563 147.960938 L 224.039063 150.523438 L 222.351563 153.492188 L 220.382813 156.332031 L 219.976563 158.050781 L 221.476563 159.460938 "/>
<path style="fill:none;stroke-width:6;stroke-linecap:round;stroke-linejoin:round;stroke:rgb(100%,100%,100%);stroke-opacity:1;stroke-miterlimit:10;" d="M 34.765625 263.921875 L 30.550781 259.261719 L 25.109375 252.671875 L 20.578125 244.578125 L 17.140625 240.265625 L 14.546875 237.261719 L 13.484375 233.199219 L 13.796875 230.265625 L 14.015625 224.703125 L 13.859375 219.046875 L 12.613281 216.703125 L 10.515625 215.261719 "/>
<path style="fill:none;stroke-width:6;stroke-linecap:round;stroke-linejoin:round;stroke:rgb(100%,100%,100%);stroke-opacity:1;stroke-miterlimit:10;" d="M 170.691406 89.707031 L 162.007813 94.117188 L 151.441406 95.199219 L 142.800781 98.472656 "/>
<path style="fill:none;stroke-width:6;stroke-linecap:round;stroke-linejoin:round;stroke:rgb(100%,100%,100%);stroke-opacity:1;stroke-miterlimit:10;" d="M 213.539063 133.300781 L 210.507813 130.460938 L 187.882813 116.675781 L 179.757813 114.988281 L 178.476563 113.488281 "/>
<path style="fill:none;stroke-width:6;stroke-linecap:round;stroke-linejoin:round;stroke:rgb(100%,100%,100%);stroke-opacity:1;stroke-miterlimit:10;" d="M 175.664063 107.992188 L 170.691406 89.707031 L 158.726563 71.375 L 112.734375 47.632813 L 97.058594 30.511719 L 83.464844 15.71875 L 75.464844 -9 "/>
<path style="fill:none;stroke-width:7;stroke-linecap:round;stroke-linejoin:round;stroke:rgb(100%,99.215686%,54.509804%);stroke-opacity:1;stroke-miterlimit:10;" d="M 265 105.757813 L 258.316406 108.8125 L 218.164063 130.769531 L 213.539063 133.300781 L 191.824219 147.117188 L 167.601563 164.550781 L 133.296875 189.921875 L 95.734375 218.480469 L 58.421875 246.140625 L 34.765625 263.921875 L 33.359375 265 "/>
<path style="fill:none;stroke-width:8;stroke-linecap:butt;stroke-linejoin:round;stroke:rgb(53.333333%,53.333333%,53.333333%);stroke-opacity:1;stroke-miterlimit:10;" d="M 178.476563 113.488281 L 175.664063 107.992188 "/>
<path style="fill:none;stroke-width:6;stroke-linecap:round;stroke-linejoin:round;stroke:rgb(100%,100%,100%);stroke-opacity:1;stroke-miterlimit:10;" d="M 178.476563 113.488281 L 175.664063 107.992188 "/>
<path style="fill:none;stroke-width:3;stroke-linecap:round;stroke-linejoin:round;stroke:rgb(100%,100%,100%);stroke-opacity:1;stroke-miterlimit:10;" d="M 112.691406 200.617188 L 113.394531 201.523438 C 112.9375 201.617188 112.535156 201.726563 112.191406 201.851563 C 111.839844 201.976563 111.527344 202.144531 111.253906 202.351563 C 110.796875 202.707031 110.519531 203.078125 110.425781 203.460938 C 110.324219 203.847656 110.410156 204.226563 110.691406 204.601563 C 110.933594 204.90625 111.199219 205.078125 111.488281 205.117188 C 111.769531 205.148438 112.171875 205.03125 112.691406 204.757813 L 113.300781 204.492188 C 114.039063 204.140625 114.683594 204.019531 115.238281 204.132813 C 115.789063 204.238281 116.277344 204.578125 116.707031 205.148438 C 117.226563 205.828125 117.414063 206.492188 117.269531 207.148438 C 117.132813 207.804688 116.675781 208.4375 115.894531 209.039063 C 115.589844 209.257813 115.242188 209.457031 114.847656 209.632813 C 114.460938 209.8125 114.035156 209.960938 113.566406 210.085938 L 112.832031 209.117188 C 113.332031 209.078125 113.789063 208.984375 114.207031 208.835938 C 114.621094 208.691406 114.988281 208.5 115.300781 208.257813 C 115.789063 207.882813 116.082031 207.492188 116.175781 207.085938 C 116.277344 206.679688 116.183594 206.28125 115.894531 205.882813 C 115.632813 205.550781 115.335938 205.359375 115.003906 205.304688 C 114.667969 205.242188 114.246094 205.335938 113.738281 205.585938 L 113.128906 205.851563 C 112.402344 206.195313 111.785156 206.328125 111.285156 206.242188 C 110.777344 206.160156 110.316406 205.851563 109.910156 205.320313 C 109.433594 204.695313 109.253906 204.0625 109.378906 203.414063 C 109.496094 202.757813 109.894531 202.175781 110.582031 201.664063 C 110.875 201.4375 111.199219 201.234375 111.550781 201.054688 C 111.894531 200.878906 112.277344 200.734375 112.691406 200.617188 Z M 115.152344 198.792969 L 116.277344 200.277344 L 117.871094 199.074219 L 118.371094 199.746094 L 116.777344 200.949219 L 118.933594 203.777344 C 119.253906 204.207031 119.515625 204.441406 119.714844 204.480469 C 119.910156 204.523438 120.171875 204.417969 120.496094 204.167969 L 121.292969 203.574219 L 121.839844 204.292969 L 121.042969 204.886719 C 120.449219 205.347656 119.941406 205.539063 119.527344 205.464844 C 119.109375 205.382813 118.652344 205.019531 118.152344 204.371094 L 115.996094 201.542969 L 115.433594 201.964844 L 114.933594 201.292969 L 115.496094 200.871094 L 114.371094 199.386719 Z M 122.992188 199.277344 C 122.367188 199.746094 122 200.152344 121.882813 200.496094 C 121.757813 200.832031 121.84375 201.191406 122.132813 201.574219 C 122.371094 201.878906 122.648438 202.054688 122.960938 202.105469 C 123.273438 202.148438 123.585938 202.050781 123.898438 201.808594 C 124.324219 201.488281 124.539063 201.058594 124.539063 200.527344 C 124.546875 199.988281 124.335938 199.433594 123.898438 198.871094 L 123.757813 198.683594 Z M 124.257813 197.730469 L 126.523438 200.714844 L 125.757813 201.308594 L 125.148438 200.511719 C 125.210938 200.960938 125.167969 201.363281 125.023438 201.714844 C 124.875 202.070313 124.617188 202.394531 124.242188 202.683594 C 123.761719 203.050781 123.261719 203.191406 122.742188 203.105469 C 122.21875 203.023438 121.773438 202.730469 121.398438 202.230469 C 120.953125 201.636719 120.796875 201.058594 120.929688 200.496094 C 121.054688 199.925781 121.472656 199.371094 122.179688 198.839844 L 123.257813 198.011719 L 123.179688 197.917969 C 122.875 197.523438 122.527344 197.308594 122.132813 197.277344 C 121.738281 197.246094 121.328125 197.386719 120.898438 197.699219 C 120.640625 197.910156 120.410156 198.148438 120.210938 198.417969 C 120.015625 198.679688 119.847656 198.972656 119.710938 199.292969 L 119.101563 198.496094 C 119.289063 198.164063 119.5 197.867188 119.726563 197.605469 C 119.945313 197.347656 120.1875 197.117188 120.445313 196.917969 C 121.125 196.410156 121.773438 196.222656 122.398438 196.355469 C 123.03125 196.480469 123.652344 196.941406 124.257813 197.730469 Z M 123.785156 192.226563 L 124.910156 193.710938 L 126.503906 192.507813 L 127.003906 193.179688 L 125.410156 194.382813 L 127.566406 197.210938 C 127.886719 197.640625 128.148438 197.875 128.347656 197.914063 C 128.542969 197.957031 128.804688 197.851563 129.128906 197.601563 L 129.925781 197.007813 L 130.472656 197.726563 L 129.675781 198.320313 C 129.082031 198.78125 128.574219 198.972656 128.160156 198.898438 C 127.742188 198.816406 127.285156 198.453125 126.785156 197.804688 L 124.628906 194.976563 L 124.066406 195.398438 L 123.566406 194.726563 L 124.128906 194.304688 L 123.003906 192.820313 Z M 133.375 191.070313 L 133.6875 191.492188 L 130.125 194.195313 C 130.605469 194.757813 131.101563 195.085938 131.625 195.179688 C 132.144531 195.265625 132.660156 195.113281 133.171875 194.726563 C 133.472656 194.5 133.726563 194.242188 133.9375 193.960938 C 134.15625 193.671875 134.34375 193.335938 134.5 192.960938 L 135.125 193.773438 C 134.9375 194.109375 134.722656 194.425781 134.484375 194.726563 C 134.253906 195.019531 133.988281 195.273438 133.6875 195.492188 C 132.945313 196.066406 132.171875 196.28125 131.359375 196.132813 C 130.546875 195.976563 129.824219 195.484375 129.1875 194.648438 C 128.542969 193.796875 128.242188 192.960938 128.28125 192.148438 C 128.3125 191.328125 128.683594 190.644531 129.390625 190.101563 C 130.027344 189.625 130.695313 189.472656 131.40625 189.648438 C 132.125 189.816406 132.78125 190.289063 133.375 191.070313 Z M 132.375 191.414063 C 132.019531 190.945313 131.617188 190.660156 131.171875 190.554688 C 130.734375 190.453125 130.324219 190.539063 129.9375 190.820313 C 129.511719 191.15625 129.277344 191.554688 129.234375 192.023438 C 129.183594 192.484375 129.320313 192.972656 129.640625 193.492188 Z M 134.316406 183.898438 L 135.160156 183.257813 L 137.300781 186.148438 L 140.425781 183.851563 L 138.285156 180.960938 L 139.128906 180.320313 L 144.332031 187.351563 L 143.488281 187.992188 L 141.003906 184.632813 L 137.878906 186.929688 L 140.363281 190.289063 L 139.519531 190.929688 Z M 142.097656 180.832031 L 142.878906 180.253906 L 146.785156 185.535156 L 146.003906 186.113281 Z M 140.582031 178.769531 L 141.363281 178.191406 L 142.175781 179.300781 L 141.394531 179.878906 Z M 149.542969 179.3125 C 149.082031 178.6875 148.609375 178.292969 148.121094 178.125 C 147.628906 177.960938 147.179688 178.027344 146.761719 178.328125 C 146.347656 178.640625 146.148438 179.058594 146.167969 179.578125 C 146.191406 180.089844 146.429688 180.65625 146.886719 181.28125 C 147.355469 181.90625 147.832031 182.308594 148.324219 182.484375 C 148.8125 182.652344 149.265625 182.578125 149.683594 182.265625 C 150.097656 181.964844 150.296875 181.554688 150.277344 181.03125 C 150.253906 180.511719 150.011719 179.9375 149.542969 179.3125 Z M 151.839844 180.78125 C 152.503906 181.679688 152.816406 182.484375 152.777344 183.203125 C 152.746094 183.914063 152.359375 184.539063 151.621094 185.078125 C 151.347656 185.285156 151.074219 185.453125 150.792969 185.578125 C 150.519531 185.710938 150.238281 185.816406 149.949219 185.890625 L 149.324219 185.046875 C 149.644531 185.015625 149.941406 184.953125 150.214844 184.859375 C 150.484375 184.757813 150.734375 184.621094 150.964844 184.453125 C 151.472656 184.078125 151.746094 183.648438 151.777344 183.15625 C 151.816406 182.667969 151.613281 182.121094 151.167969 181.515625 L 150.855469 181.09375 C 150.925781 181.523438 150.894531 181.90625 150.761719 182.25 C 150.625 182.585938 150.378906 182.882813 150.027344 183.140625 C 149.441406 183.578125 148.792969 183.683594 148.074219 183.453125 C 147.355469 183.214844 146.695313 182.6875 146.089844 181.875 C 145.488281 181.0625 145.179688 180.28125 145.167969 179.53125 C 145.160156 178.773438 145.445313 178.171875 146.027344 177.734375 C 146.382813 177.476563 146.742188 177.335938 147.105469 177.3125 C 147.472656 177.28125 147.84375 177.359375 148.230469 177.546875 L 147.636719 176.734375 L 148.417969 176.15625 Z M 155.542969 174.140625 L 157.902344 177.328125 L 157.105469 177.921875 L 154.777344 174.765625 C 154.402344 174.265625 154.03125 173.960938 153.667969 173.84375 C 153.3125 173.71875 152.964844 173.789063 152.621094 174.046875 C 152.195313 174.359375 151.972656 174.757813 151.949219 175.234375 C 151.929688 175.714844 152.113281 176.210938 152.496094 176.71875 L 154.699219 179.703125 L 153.917969 180.28125 L 148.496094 172.9375 L 149.277344 172.359375 L 151.402344 175.25 C 151.339844 174.792969 151.382813 174.390625 151.527344 174.046875 C 151.664063 173.695313 151.898438 173.398438 152.230469 173.15625 C 152.773438 172.75 153.324219 172.632813 153.886719 172.796875 C 154.449219 172.964844 155 173.414063 155.542969 174.140625 Z M 155.074219 171.242188 L 155.855469 170.664063 L 159.886719 174.070313 L 157.808594 169.226563 L 158.714844 168.539063 L 162.746094 171.945313 L 160.667969 167.101563 L 161.449219 166.523438 L 164.105469 172.726563 L 163.199219 173.414063 L 158.980469 169.835938 L 161.152344 174.914063 L 160.230469 175.601563 Z M 166.746094 166.6875 C 166.109375 167.15625 165.730469 167.5625 165.605469 167.90625 C 165.480469 168.242188 165.566406 168.601563 165.855469 168.984375 C 166.082031 169.296875 166.347656 169.480469 166.652344 169.53125 C 166.964844 169.574219 167.28125 169.476563 167.605469 169.234375 C 168.03125 168.921875 168.25 168.5 168.261719 167.96875 C 168.28125 167.4375 168.082031 166.886719 167.667969 166.3125 L 167.527344 166.125 Z M 168.042969 165.1875 L 170.261719 168.203125 L 169.480469 168.78125 L 168.886719 167.96875 C 168.949219 168.417969 168.902344 168.820313 168.746094 169.171875 C 168.589844 169.527344 168.316406 169.84375 167.933594 170.125 C 167.453125 170.492188 166.953125 170.625 166.433594 170.53125 C 165.921875 170.429688 165.488281 170.125 165.121094 169.625 C 164.683594 169.03125 164.535156 168.453125 164.667969 167.890625 C 164.792969 167.328125 165.214844 166.78125 165.933594 166.25 L 167.027344 165.453125 L 166.964844 165.359375 C 166.660156 164.953125 166.308594 164.730469 165.902344 164.6875 C 165.507813 164.648438 165.097656 164.789063 164.667969 165.109375 C 164.398438 165.308594 164.164063 165.539063 163.964844 165.796875 C 163.769531 166.058594 163.601563 166.351563 163.464844 166.671875 L 162.871094 165.859375 C 163.058594 165.527344 163.269531 165.234375 163.496094 164.984375 C 163.714844 164.726563 163.957031 164.5 164.214844 164.3125 C 164.902344 163.804688 165.566406 163.621094 166.199219 163.765625 C 166.832031 163.902344 167.449219 164.375 168.042969 165.1875 Z M 174.167969 166.125 C 174.40625 166.917969 174.484375 167.484375 174.402344 167.828125 C 174.328125 168.179688 174.113281 168.484375 173.761719 168.734375 L 173.152344 169.1875 L 172.636719 168.453125 L 173.089844 168.125 C 173.308594 167.96875 173.433594 167.789063 173.464844 167.59375 C 173.503906 167.386719 173.441406 167.015625 173.277344 166.484375 L 173.136719 165.96875 L 167.433594 162.140625 L 168.261719 161.546875 L 172.746094 164.625 L 171.261719 159.375 L 172.105469 158.78125 Z M 179.332031 156.53125 C 178.917969 156.835938 178.675781 157.195313 178.613281 157.609375 C 178.550781 158.015625 178.675781 158.433594 178.988281 158.859375 C 179.289063 159.289063 179.644531 159.542969 180.050781 159.625 C 180.464844 159.699219 180.882813 159.585938 181.300781 159.28125 C 181.707031 158.992188 181.933594 158.640625 181.988281 158.234375 C 182.050781 157.820313 181.929688 157.398438 181.628906 156.96875 C 181.316406 156.542969 180.957031 156.292969 180.550781 156.21875 C 180.144531 156.136719 179.738281 156.242188 179.332031 156.53125 Z M 178.160156 156.75 C 177.722656 156.917969 177.300781 156.9375 176.894531 156.8125 C 176.480469 156.679688 176.125 156.40625 175.832031 156 C 175.425781 155.4375 175.285156 154.859375 175.410156 154.265625 C 175.535156 153.664063 175.917969 153.132813 176.550781 152.671875 C 177.175781 152.226563 177.792969 152.039063 178.394531 152.109375 C 178.996094 152.171875 179.503906 152.484375 179.910156 153.046875 C 180.199219 153.453125 180.339844 153.875 180.332031 154.3125 C 180.332031 154.742188 180.183594 155.140625 179.894531 155.515625 C 180.382813 155.328125 180.855469 155.308594 181.316406 155.453125 C 181.785156 155.589844 182.179688 155.882813 182.503906 156.328125 C 183.003906 157.015625 183.191406 157.683594 183.066406 158.328125 C 182.949219 158.976563 182.542969 159.546875 181.847656 160.046875 C 181.136719 160.558594 180.460938 160.765625 179.816406 160.671875 C 179.179688 160.578125 178.613281 160.1875 178.113281 159.5 C 177.792969 159.054688 177.636719 158.589844 177.644531 158.109375 C 177.644531 157.621094 177.816406 157.167969 178.160156 156.75 Z M 176.753906 155.46875 C 177.015625 155.835938 177.328125 156.042969 177.691406 156.09375 C 178.046875 156.148438 178.410156 156.039063 178.785156 155.765625 C 179.148438 155.507813 179.355469 155.199219 179.410156 154.84375 C 179.472656 154.492188 179.371094 154.132813 179.113281 153.765625 C 178.855469 153.402344 178.546875 153.195313 178.191406 153.140625 C 177.828125 153.078125 177.464844 153.179688 177.097656 153.4375 C 176.722656 153.710938 176.511719 154.027344 176.457031 154.390625 C 176.394531 154.746094 176.496094 155.105469 176.753906 155.46875 Z M 176.753906 155.46875 "/>
<path style=" stroke:none;fill-rule:evenodd;fill:rgb(20%,20%,20%);fill-opacity:1;" d="M 112.691406 200.617188 L 113.394531 201.523438 C 112.9375 201.617188 112.535156 201.726563 112.191406 201.851563 C 111.839844 201.976563 111.527344 202.144531 111.253906 202.351563 C 110.796875 202.707031 110.519531 203.078125 110.425781 203.460938 C 110.324219 203.847656 110.410156 204.226563 110.691406 204.601563 C 110.933594 204.90625 111.199219 205.078125 111.488281 205.117188 C 111.769531 205.148438 112.171875 205.03125 112.691406 204.757813 L 113.300781 204.492188 C 114.039063 204.140625 114.683594 204.019531 115.238281 204.132813 C 115.789063 204.238281 116.277344 204.578125 116.707031 205.148438 C 117.226563 205.828125 117.414063 206.492188 117.269531 207.148438 C 117.132813 207.804688 116.675781 208.4375 115.894531 209.039063 C 115.589844 209.257813 115.242188 209.457031 114.847656 209.632813 C 114.460938 209.8125 114.035156 209.960938 113.566406 210.085938 L 112.832031 209.117188 C 113.332031 209.078125 113.789063 208.984375 114.207031 208.835938 C 114.621094 208.691406 114.988281 208.5 115.300781 208.257813 C 115.789063 207.882813 116.082031 207.492188 116.175781 207.085938 C 116.277344 206.679688 116.183594 206.28125 115.894531 205.882813 C 115.632813 205.550781 115.335938 205.359375 115.003906 205.304688 C 114.667969 205.242188 114.246094 205.335938 113.738281 205.585938 L 113.128906 205.851563 C 112.402344 206.195313 111.785156 206.328125 111.285156 206.242188 C 110.777344 206.160156 110.316406 205.851563 109.910156 205.320313 C 109.433594 204.695313 109.253906 204.0625 109.378906 203.414063 C 109.496094 202.757813 109.894531 202.175781 110.582031 201.664063 C 110.875 201.4375 111.199219 201.234375 111.550781 201.054688 C 111.894531 200.878906 112.277344 200.734375 112.691406 200.617188 Z M 115.152344 198.792969 L 116.277344 200.277344 L 117.871094 199.074219 L 118.371094 199.746094 L 116.777344 200.949219 L 118.933594 203.777344 C 119.253906 204.207031 119.515625 204.441406 119.714844 204.480469 C 119.910156 204.523438 120.171875 204.417969 120.496094 204.167969 L 121.292969 203.574219 L 121.839844 204.292969 L 121.042969 204.886719 C 120.449219 205.347656 119.941406 205.539063 119.527344 205.464844 C 119.109375 205.382813 118.652344 205.019531 118.152344 204.371094 L 115.996094 201.542969 L 115.433594 201.964844 L 114.933594 201.292969 L 115.496094 200.871094 L 114.371094 199.386719 Z M 122.992188 199.277344 C 122.367188 199.746094 122 200.152344 121.882813 200.496094 C 121.757813 200.832031 121.84375 201.191406 122.132813 201.574219 C 122.371094 201.878906 122.648438 202.054688 122.960938 202.105469 C 123.273438 202.148438 123.585938 202.050781 123.898438 201.808594 C 124.324219 201.488281 124.539063 201.058594 124.539063 200.527344 C 124.546875 199.988281 124.335938 199.433594 123.898438 198.871094 L 123.757813 198.683594 Z M 124.257813 197.730469 L 126.523438 200.714844 L 125.757813 201.308594 L 125.148438 200.511719 C 125.210938 200.960938 125.167969 201.363281 125.023438 201.714844 C 124.875 202.070313 124.617188 202.394531 124.242188 202.683594 C 123.761719 203.050781 123.261719 203.191406 122.742188 203.105469 C 122.21875 203.023438 121.773438 202.730469 121.398438 202.230469 C 120.953125 201.636719 120.796875 201.058594 120.929688 200.496094 C 121.054688 199.925781 121.472656 199.371094 122.179688 198.839844 L 123.257813 198.011719 L 123.179688 197.917969 C 122.875 197.523438 122.527344 197.308594 122.132813 197.277344 C 121.738281 197.246094 121.328125 197.386719 120.898438 197.699219 C 120.640625 197.910156 120.410156 198.148438 120.210938 198.417969 C 120.015625 198.679688 119.847656 198.972656 119.710938 199.292969 L 119.101563 198.496094 C 119.289063 198.164063 119.5 197.867188 119.726563 197.605469 C 119.945313 197.347656 120.1875 197.117188 120.445313 196.917969 C 121.125 196.410156 121.773438 196.222656 122.398438 196.355469 C 123.03125 196.480469 123.652344 196.941406 124.257813 197.730469 Z M 123.785156 192.226563 L 124.910156 193.710938 L 126.503906 192.507813 L 127.003906 193.179688 L 125.410156 194.382813 L 127.566406 197.210938 C 127.886719 197.640625 128.148438 197.875 128.347656 197.914063 C 128.542969 197.957031 128.804688 197.851563 129.128906 197.601563 L 129.925781 197.007813 L 130.472656 197.726563 L 129.675781 198.320313 C 129.082031 198.78125 128.574219 198.972656 128.160156 198.898438 C 127.742188 198.816406 127.285156 198.453125 126.785156 197.804688 L 124.628906 194.976563 L 124.066406 195.398438 L 123.566406 194.726563 L 124.128906 194.304688 L 123.003906 192.820313 Z M 133.375 191.070313 L 133.6875 191.492188 L 130.125 194.195313 C 130.605469 194.757813 131.101563 195.085938 131.625 195.179688 C 132.144531 195.265625 132.660156 195.113281 133.171875 194.726563 C 133.472656 194.5 133.726563 194.242188 133.9375 193.960938 C 134.15625 193.671875 134.34375 193.335938 134.5 192.960938 L 135.125 193.773438 C 134.9375 194.109375 134.722656 194.425781 134.484375 194.726563 C 134.253906 195.019531 133.988281 195.273438 133.6875 195.492188 C 132.945313 196.066406 132.171875 196.28125 131.359375 196.132813 C 130.546875 195.976563 129.824219 195.484375 129.1875 194.648438 C 128.542969 193.796875 128.242188 192.960938 128.28125 192.148438 C 128.3125 191.328125 128.683594 190.644531 129.390625 190.101563 C 130.027344 189.625 130.695313 189.472656 131.40625 189.648438 C 132.125 189.816406 132.78125 190.289063 133.375 191.070313 Z M 132.375 191.414063 C 132.019531 190.945313 131.617188 190.660156 131.171875 190.554688 C 130.734375 190.453125 130.324219 190.539063 129.9375 190.820313 C 129.511719 191.15625 129.277344 191.554688 129.234375 192.023438 C 129.183594 192.484375 129.320313 192.972656 129.640625 193.492188 Z M 134.316406 183.898438 L 135.160156 183.257813 L 137.300781 186.148438 L 140.425781 183.851563 L 138.285156 180.960938 L 139.128906 180.320313 L 144.332031 187.351563 L 143.488281 187.992188 L 141.003906 184.632813 L 137.878906 186.929688 L 140.363281 190.289063 L 139.519531 190.929688 Z M 142.097656 180.832031 L 142.878906 180.253906 L 146.785156 185.535156 L 146.003906 186.113281 Z M 140.582031 178.769531 L 141.363281 178.191406 L 142.175781 179.300781 L 141.394531 179.878906 Z M 149.542969 179.3125 C 149.082031 178.6875 148.609375 178.292969 148.121094 178.125 C 147.628906 177.960938 147.179688 178.027344 146.761719 178.328125 C 146.347656 178.640625 146.148438 179.058594 146.167969 179.578125 C 146.191406 180.089844 146.429688 180.65625 146.886719 181.28125 C 147.355469 181.90625 147.832031 182.308594 148.324219 182.484375 C 148.8125 182.652344 149.265625 182.578125 149.683594 182.265625 C 150.097656 181.964844 150.296875 181.554688 150.277344 181.03125 C 150.253906 180.511719 150.011719 179.9375 149.542969 179.3125 Z M 151.839844 180.78125 C 152.503906 181.679688 152.816406 182.484375 152.777344 183.203125 C 152.746094 183.914063 152.359375 184.539063 151.621094 185.078125 C 151.347656 185.285156 151.074219 185.453125 150.792969 185.578125 C 150.519531 185.710938 150.238281 185.816406 149.949219 185.890625 L 149.324219 185.046875 C 149.644531 185.015625 149.941406 184.953125 150.214844 184.859375 C 150.484375 184.757813 150.734375 184.621094 150.964844 184.453125 C 151.472656 184.078125 151.746094 183.648438 151.777344 183.15625 C 151.816406 182.667969 151.613281 182.121094 151.167969 181.515625 L 150.855469 181.09375 C 150.925781 181.523438 150.894531 181.90625 150.761719 182.25 C 150.625 182.585938 150.378906 182.882813 150.027344 183.140625 C 149.441406 183.578125 148.792969 183.683594 148.074219 183.453125 C 147.355469 183.214844 146.695313 182.6875 146.089844 181.875 C 145.488281 181.0625 145.179688 180.28125 145.167969 179.53125 C 145.160156 178.773438 145.445313 178.171875 146.027344 177.734375 C 146.382813 177.476563 146.742188 177.335938 147.105469 177.3125 C 147.472656 177.28125 147.84375 177.359375 148.230469 177.546875 L 147.636719 176.734375 L 148.417969 176.15625 Z M 155.542969 174.140625 L 157.902344 177.328125 L 157.105469 177.921875 L 154.777344 174.765625 C 154.402344 174.265625 154.03125 173.960938 153.667969 173.84375 C 153.3125 173.71875 152.964844 173.789063 152.621094 174.046875 C 152.195313 174.359375 151.972656 174.757813 151.949219 175.234375 C 151.929688 175.714844 152.113281 176.210938 152.496094 176.71875 L 154.699219 179.703125 L 153.917969 180.28125 L 148.496094 172.9375 L 149.277344 172.359375 L 151.402344 175.25 C 151.339844 174.792969 151.382813 174.390625 151.527344 174.046875 C 151.664063 173.695313 151.898438 173.398438 152.230469 173.15625 C 152.773438 172.75 153.324219 172.632813 153.886719 172.796875 C 154.449219 172.964844 155 173.414063 155.542969 174.140625 Z M 155.074219 171.242188 L 155.855469 170.664063 L 159.886719 174.070313 L 157.808594 169.226563 L 158.714844 168.539063 L 162.746094 171.945313 L 160.667969 167.101563 L 161.449219 166.523438 L 164.105469 172.726563 L 163.199219 173.414063 L 158.980469 169.835938 L 161.152344 174.914063 L 160.230469 175.601563 Z M 166.746094 166.6875 C 166.109375 167.15625 165.730469 167.5625 165.605469 167.90625 C 165.480469 168.242188 165.566406 168.601563 165.855469 168.984375 C 166.082031 169.296875 166.347656 169.480469 166.652344 169.53125 C 166.964844 169.574219 167.28125 169.476563 167.605469 169.234375 C 168.03125 168.921875 168.25 168.5 168.261719 167.96875 C 168.28125 167.4375 168.082031 166.886719 167.667969 166.3125 L 167.527344 166.125 Z M 168.042969 165.1875 L 170.261719 168.203125 L 169.480469 168.78125 L 168.886719 167.96875 C 168.949219 168.417969 168.902344 168.820313 168.746094 169.171875 C 168.589844 169.527344 168.316406 169.84375 167.933594 170.125 C 167.453125 170.492188 166.953125 170.625 166.433594 170.53125 C 165.921875 170.429688 165.488281 170.125 165.121094 169.625 C 164.683594 169.03125 164.535156 168.453125 164.667969 167.890625 C 164.792969 167.328125 165.214844 166.78125 165.933594 166.25 L 167.027344 165.453125 L 166.964844 165.359375 C 166.660156 164.953125 166.308594 164.730469 165.902344 164.6875 C 165.507813 164.648438 165.097656 164.789063 164.667969 165.109375 C 164.398438 165.308594 164.164063 165.539063 163.964844 165.796875 C 163.769531 166.058594 163.601563 166.351563 163.464844 166.671875 L 162.871094 165.859375 C 163.058594 165.527344 163.269531 165.234375 163.496094 164.984375 C 163.714844 164.726563 163.957031 164.5 164.214844 164.3125 C 164.902344 163.804688 165.566406 163.621094 166.199219 163.765625 C 166.832031 163.902344 167.449219 164.375 168.042969 165.1875 Z M 174.167969 166.125 C 174.40625 166.917969 174.484375 167.484375 174.402344 167.828125 C 174.328125 168.179688 174.113281 168.484375 173.761719 168.734375 L 173.152344 169.1875 L 172.636719 168.453125 L 173.089844 168.125 C 173.308594 167.96875 173.433594 167.789063 173.464844 167.59375 C 173.503906 167.386719 173.441406 167.015625 173.277344 166.484375 L 173.136719 165.96875 L 167.433594 162.140625 L 168.261719 161.546875 L 172.746094 164.625 L 171.261719 159.375 L 172.105469 158.78125 Z M 179.332031 156.53125 C 178.917969 156.835938 178.675781 157.195313 178.613281 157.609375 C 178.550781 158.015625 178.675781 158.433594 178.988281 158.859375 C 179.289063 159.289063 179.644531 159.542969 180.050781 159.625 C 180.464844 159.699219 180.882813 159.585938 181.300781 159.28125 C 181.707031 158.992188 181.933594 158.640625 181.988281 158.234375 C 182.050781 157.820313 181.929688 157.398438 181.628906 156.96875 C 181.316406 156.542969 180.957031 156.292969 180.550781 156.21875 C 180.144531 156.136719 179.738281 156.242188 179.332031 156.53125 Z M 178.160156 156.75 C 177.722656 156.917969 177.300781 156.9375 176.894531 156.8125 C 176.480469 156.679688 176.125 156.40625 175.832031 156 C 175.425781 155.4375 175.285156 154.859375 175.410156 154.265625 C 175.535156 153.664063 175.917969 153.132813 176.550781 152.671875 C 177.175781 152.226563 177.792969 152.039063 178.394531 152.109375 C 178.996094 152.171875 179.503906 152.484375 179.910156 153.046875 C 180.199219 153.453125 180.339844 153.875 180.332031 154.3125 C 180.332031 154.742188 180.183594 155.140625 179.894531 155.515625 C 180.382813 155.328125 180.855469 155.308594 181.316406 155.453125 C 181.785156 155.589844 182.179688 155.882813 182.503906 156.328125 C 183.003906 157.015625 183.191406 157.683594 183.066406 158.328125 C 182.949219 158.976563 182.542969 159.546875 181.847656 160.046875 C 181.136719 160.558594 180.460938 160.765625 179.816406 160.671875 C 179.179688 160.578125 178.613281 160.1875 178.113281 159.5 C 177.792969 159.054688 177.636719 158.589844 177.644531 158.109375 C 177.644531 157.621094 177.816406 157.167969 178.160156 156.75 Z M 176.753906 155.46875 C 177.015625 155.835938 177.328125 156.042969 177.691406 156.09375 C 178.046875 156.148438 178.410156 156.039063 178.785156 155.765625 C 179.148438 155.507813 179.355469 155.199219 179.410156 154.84375 C 179.472656 154.492188 179.371094 154.132813 179.113281 153.765625 C 178.855469 153.402344 178.546875 153.195313 178.191406 153.140625 C 177.828125 153.078125 177.464844 153.179688 177.097656 153.4375 C 176.722656 153.710938 176.511719 154.027344 176.457031 154.390625 C 176.394531 154.746094 176.496094 155.105469 176.753906 155.46875 Z M 176.753906 155.46875 "/>
<path style="fill:none;stroke-width:3;stroke-linecap:round;stroke-linejoin:round;stroke:rgb(100%,100%,100%);stroke-opacity:1;stroke-miterlimit:10;" d="M 99.894531 28.554688 L 99.050781 29.335938 C 99.070313 28.867188 99.011719 28.441406 98.878906 28.054688 C 98.753906 27.671875 98.550781 27.320313 98.269531 27.007813 C 97.714844 26.40625 97.085938 26.128906 96.378906 26.179688 C 95.667969 26.234375 94.925781 26.617188 94.144531 27.335938 C 93.363281 28.046875 92.914063 28.753906 92.800781 29.460938 C 92.695313 30.167969 92.917969 30.824219 93.472656 31.429688 C 93.753906 31.742188 94.074219 31.976563 94.441406 32.132813 C 94.816406 32.296875 95.242188 32.382813 95.722656 32.382813 L 94.894531 33.148438 C 94.476563 33.074219 94.089844 32.9375 93.738281 32.742188 C 93.382813 32.554688 93.066406 32.304688 92.785156 31.992188 C 92.042969 31.1875 91.730469 30.304688 91.847656 29.335938 C 91.972656 28.378906 92.507813 27.46875 93.457031 26.601563 C 94.402344 25.726563 95.363281 25.269531 96.332031 25.226563 C 97.308594 25.175781 98.167969 25.550781 98.910156 26.351563 C 99.199219 26.675781 99.425781 27.023438 99.582031 27.398438 C 99.746094 27.765625 99.851563 28.148438 99.894531 28.554688 Z M 101.140625 35.527344 L 98.46875 37.980469 L 97.875 37.324219 L 100.53125 34.902344 C 100.945313 34.515625 101.1875 34.152344 101.25 33.808594 C 101.320313 33.464844 101.226563 33.148438 100.96875 32.855469 C 100.632813 32.503906 100.25 32.339844 99.8125 32.371094 C 99.382813 32.394531 98.957031 32.601563 98.53125 32.996094 L 96.015625 35.292969 L 95.390625 34.621094 L 101.5625 28.980469 L 102.1875 29.652344 L 99.765625 31.871094 C 100.171875 31.777344 100.535156 31.777344 100.859375 31.871094 C 101.179688 31.957031 101.472656 32.136719 101.734375 32.417969 C 102.148438 32.878906 102.304688 33.371094 102.203125 33.902344 C 102.109375 34.421875 101.753906 34.964844 101.140625 35.527344 Z M 103.570313 39.050781 C 103.078125 38.519531 102.671875 38.21875 102.351563 38.144531 C 102.027344 38.0625 101.703125 38.171875 101.382813 38.472656 C 101.121094 38.699219 100.984375 38.960938 100.976563 39.253906 C 100.964844 39.554688 101.078125 39.835938 101.320313 40.097656 C 101.664063 40.460938 102.074219 40.617188 102.554688 40.566406 C 103.042969 40.523438 103.523438 40.289063 103.992188 39.863281 L 104.164063 39.707031 Z M 105.070313 40.082031 L 102.539063 42.410156 L 101.929688 41.753906 L 102.601563 41.144531 C 102.195313 41.226563 101.824219 41.214844 101.492188 41.113281 C 101.15625 41.019531 100.84375 40.808594 100.554688 40.488281 C 100.179688 40.070313 100.007813 39.621094 100.039063 39.144531 C 100.070313 38.675781 100.304688 38.246094 100.742188 37.847656 C 101.242188 37.390625 101.75 37.199219 102.273438 37.269531 C 102.792969 37.34375 103.328125 37.675781 103.882813 38.269531 L 104.726563 39.191406 L 104.804688 39.128906 C 105.136719 38.816406 105.304688 38.480469 105.304688 38.113281 C 105.304688 37.75 105.136719 37.386719 104.804688 37.019531 C 104.605469 36.800781 104.375 36.613281 104.117188 36.457031 C 103.855469 36.292969 103.574219 36.15625 103.273438 36.050781 L 103.945313 35.441406 C 104.265625 35.597656 104.554688 35.765625 104.804688 35.941406 C 105.0625 36.121094 105.292969 36.3125 105.492188 36.519531 C 106.023438 37.105469 106.25 37.691406 106.179688 38.285156 C 106.117188 38.867188 105.746094 39.464844 105.070313 40.082031 Z M 110.039063 39.191406 L 108.789063 40.347656 L 110.023438 41.691406 L 109.460938 42.207031 L 108.226563 40.863281 L 105.820313 43.066406 C 105.453125 43.398438 105.261719 43.652344 105.242188 43.832031 C 105.21875 44.019531 105.335938 44.246094 105.585938 44.519531 L 106.195313 45.191406 L 105.585938 45.753906 L 104.976563 45.082031 C 104.515625 44.570313 104.304688 44.121094 104.335938 43.738281 C 104.375 43.363281 104.671875 42.921875 105.226563 42.410156 L 107.632813 40.207031 L 107.179688 39.722656 L 107.742188 39.207031 L 108.195313 39.691406 L 109.445313 38.535156 Z M 110.828125 42.550781 L 111.421875 43.207031 L 106.984375 47.269531 L 106.390625 46.613281 Z M 112.5625 40.972656 L 113.15625 41.628906 L 112.234375 42.472656 L 111.640625 41.816406 Z M 114.46875 49.261719 L 114.171875 49.652344 L 110.953125 47.136719 C 110.566406 47.691406 110.394531 48.207031 110.4375 48.683594 C 110.488281 49.171875 110.742188 49.59375 111.203125 49.949219 C 111.472656 50.167969 111.757813 50.332031 112.0625 50.449219 C 112.375 50.574219 112.710938 50.667969 113.078125 50.730469 L 112.5 51.449219 C 112.15625 51.375 111.828125 51.265625 111.515625 51.121094 C 111.203125 50.984375 110.910156 50.808594 110.640625 50.589844 C 109.960938 50.058594 109.597656 49.417969 109.546875 48.667969 C 109.492188 47.929688 109.757813 47.179688 110.34375 46.417969 C 110.945313 45.648438 111.613281 45.183594 112.34375 45.027344 C 113.082031 44.863281 113.773438 45.027344 114.421875 45.527344 C 114.992188 45.976563 115.28125 46.535156 115.28125 47.199219 C 115.289063 47.867188 115.019531 48.550781 114.46875 49.261719 Z M 113.96875 48.480469 C 114.289063 48.054688 114.445313 47.632813 114.4375 47.214844 C 114.425781 46.800781 114.25 46.457031 113.90625 46.183594 C 113.507813 45.871094 113.097656 45.753906 112.671875 45.824219 C 112.242188 45.886719 111.84375 46.121094 111.46875 46.527344 Z M 120.246094 50.546875 C 120.652344 50.246094 121.035156 50.074219 121.402344 50.03125 C 121.777344 49.992188 122.152344 50.0625 122.527344 50.25 C 123.035156 50.523438 123.324219 50.921875 123.386719 51.453125 C 123.449219 51.976563 123.292969 52.59375 122.917969 53.3125 L 121.261719 56.53125 L 120.480469 56.125 L 122.136719 52.9375 C 122.394531 52.417969 122.511719 51.996094 122.480469 51.671875 C 122.449219 51.339844 122.265625 51.089844 121.933594 50.921875 C 121.515625 50.703125 121.109375 50.6875 120.714844 50.875 C 120.316406 51.054688 119.984375 51.398438 119.714844 51.90625 L 118.152344 54.9375 L 117.371094 54.515625 L 119.027344 51.328125 C 119.285156 50.808594 119.394531 50.386719 119.355469 50.0625 C 119.324219 49.730469 119.140625 49.476563 118.808594 49.296875 C 118.402344 49.089844 118 49.078125 117.605469 49.265625 C 117.207031 49.445313 116.875 49.789063 116.605469 50.296875 L 115.042969 53.328125 L 114.246094 52.90625 L 117.011719 47.5625 L 117.808594 47.984375 L 117.371094 48.8125 C 117.722656 48.5625 118.066406 48.433594 118.402344 48.421875 C 118.734375 48.402344 119.074219 48.480469 119.417969 48.65625 C 119.769531 48.835938 120.015625 49.085938 120.152344 49.40625 C 120.296875 49.71875 120.328125 50.101563 120.246094 50.546875 Z M 126.421875 55.800781 C 125.785156 55.46875 125.296875 55.324219 124.953125 55.363281 C 124.617188 55.40625 124.351563 55.621094 124.15625 56.003906 C 124 56.308594 123.96875 56.597656 124.0625 56.878906 C 124.15625 57.160156 124.359375 57.382813 124.671875 57.550781 C 125.117188 57.777344 125.5625 57.785156 126 57.566406 C 126.4375 57.355469 126.800781 56.972656 127.09375 56.410156 L 127.203125 56.207031 Z M 128.1875 56.253906 L 126.609375 59.300781 L 125.8125 58.894531 L 126.234375 58.082031 C 125.890625 58.320313 125.539063 58.445313 125.1875 58.457031 C 124.832031 58.464844 124.460938 58.371094 124.078125 58.175781 C 123.585938 57.914063 123.273438 57.554688 123.140625 57.097656 C 123.015625 56.640625 123.082031 56.152344 123.34375 55.628906 C 123.65625 55.035156 124.066406 54.683594 124.578125 54.566406 C 125.097656 54.441406 125.71875 54.566406 126.4375 54.941406 L 127.546875 55.519531 L 127.59375 55.441406 C 127.800781 55.035156 127.84375 54.660156 127.71875 54.316406 C 127.59375 53.964844 127.3125 53.671875 126.875 53.441406 C 126.613281 53.308594 126.332031 53.207031 126.03125 53.144531 C 125.726563 53.082031 125.421875 53.0625 125.109375 53.082031 L 125.515625 52.285156 C 125.878906 52.308594 126.210938 52.359375 126.515625 52.441406 C 126.816406 52.515625 127.097656 52.621094 127.359375 52.753906 C 128.046875 53.109375 128.457031 53.578125 128.59375 54.160156 C 128.738281 54.734375 128.601563 55.433594 128.1875 56.253906 Z M 134.355469 56.78125 L 133.933594 57.609375 C 133.777344 57.351563 133.605469 57.132813 133.417969 56.953125 C 133.230469 56.765625 133.015625 56.609375 132.777344 56.484375 C 132.265625 56.226563 131.777344 56.203125 131.308594 56.421875 C 130.839844 56.632813 130.433594 57.0625 130.089844 57.71875 C 129.753906 58.375 129.636719 58.960938 129.730469 59.46875 C 129.832031 59.96875 130.140625 60.347656 130.652344 60.609375 C 130.890625 60.734375 131.136719 60.816406 131.386719 60.859375 C 131.644531 60.910156 131.921875 60.925781 132.214844 60.90625 L 131.808594 61.71875 C 131.515625 61.71875 131.234375 61.679688 130.964844 61.609375 C 130.703125 61.546875 130.441406 61.445313 130.183594 61.3125 C 129.453125 60.9375 129.003906 60.390625 128.839844 59.671875 C 128.671875 58.945313 128.8125 58.148438 129.261719 57.28125 C 129.707031 56.417969 130.277344 55.851563 130.964844 55.578125 C 131.660156 55.296875 132.386719 55.351563 133.136719 55.734375 C 133.375 55.859375 133.59375 56.011719 133.792969 56.1875 C 134 56.367188 134.1875 56.5625 134.355469 56.78125 Z M 140.664063 62.3125 C 140.796875 62.480469 140.890625 62.726563 140.945313 63.046875 C 141.007813 63.371094 141.027344 63.78125 141.007813 64.28125 L 140.882813 66.671875 L 139.945313 66.1875 L 140.085938 63.9375 C 140.117188 63.34375 140.070313 62.921875 139.945313 62.671875 C 139.828125 62.414063 139.601563 62.195313 139.257813 62.015625 L 138.320313 61.515625 L 136.757813 64.53125 L 135.882813 64.078125 L 139.554688 56.953125 L 141.507813 57.96875 C 142.246094 58.355469 142.710938 58.808594 142.898438 59.328125 C 143.085938 59.851563 142.996094 60.460938 142.632813 61.15625 C 142.402344 61.59375 142.117188 61.917969 141.773438 62.125 C 141.4375 62.324219 141.070313 62.386719 140.664063 62.3125 Z M 140.023438 58.203125 L 138.726563 60.734375 L 139.804688 61.296875 C 140.230469 61.515625 140.605469 61.574219 140.929688 61.46875 C 141.25 61.367188 141.515625 61.105469 141.726563 60.6875 C 141.945313 60.273438 142 59.902344 141.898438 59.578125 C 141.792969 59.257813 141.527344 58.984375 141.101563 58.765625 Z M 146.257813 63.449219 C 145.839844 63.230469 145.414063 63.246094 144.976563 63.496094 C 144.539063 63.738281 144.152344 64.175781 143.820313 64.808594 C 143.484375 65.457031 143.351563 66.023438 143.414063 66.511719 C 143.476563 67 143.714844 67.355469 144.132813 67.574219 C 144.558594 67.792969 144.984375 67.78125 145.414063 67.542969 C 145.851563 67.300781 146.234375 66.859375 146.570313 66.214844 C 146.902344 65.582031 147.039063 65.019531 146.976563 64.527344 C 146.921875 64.027344 146.683594 63.667969 146.257813 63.449219 Z M 146.648438 62.714844 C 147.335938 63.070313 147.746094 63.597656 147.882813 64.292969 C 148.027344 64.992188 147.871094 65.777344 147.414063 66.652344 C 146.964844 67.527344 146.414063 68.109375 145.757813 68.402344 C 145.101563 68.703125 144.429688 68.675781 143.742188 68.324219 C 143.054688 67.96875 142.640625 67.441406 142.507813 66.746094 C 142.382813 66.039063 142.542969 65.246094 142.992188 64.371094 C 143.449219 63.496094 144 62.914063 144.648438 62.621094 C 145.292969 62.332031 145.960938 62.363281 146.648438 62.714844 Z M 150.910156 68.441406 C 150.273438 68.109375 149.785156 67.964844 149.441406 68.003906 C 149.105469 68.046875 148.839844 68.261719 148.644531 68.644531 C 148.488281 68.949219 148.457031 69.238281 148.550781 69.519531 C 148.644531 69.800781 148.847656 70.023438 149.160156 70.191406 C 149.605469 70.417969 150.050781 70.425781 150.488281 70.207031 C 150.925781 69.996094 151.289063 69.613281 151.582031 69.050781 L 151.691406 68.847656 Z M 152.675781 68.894531 L 151.097656 71.941406 L 150.300781 71.535156 L 150.722656 70.722656 C 150.378906 70.960938 150.027344 71.085938 149.675781 71.097656 C 149.320313 71.105469 148.949219 71.011719 148.566406 70.816406 C 148.074219 70.554688 147.761719 70.195313 147.628906 69.738281 C 147.503906 69.28125 147.570313 68.792969 147.832031 68.269531 C 148.144531 67.675781 148.554688 67.324219 149.066406 67.207031 C 149.585938 67.082031 150.207031 67.207031 150.925781 67.582031 L 152.035156 68.160156 L 152.082031 68.082031 C 152.289063 67.675781 152.332031 67.300781 152.207031 66.957031 C 152.082031 66.605469 151.800781 66.3125 151.363281 66.082031 C 151.101563 65.949219 150.820313 65.847656 150.519531 65.785156 C 150.214844 65.722656 149.910156 65.703125 149.597656 65.722656 L 150.003906 64.925781 C 150.367188 64.949219 150.699219 65 151.003906 65.082031 C 151.304688 65.15625 151.585938 65.261719 151.847656 65.394531 C 152.535156 65.75 152.945313 66.21875 153.082031 66.800781 C 153.226563 67.375 153.089844 68.074219 152.675781 68.894531 Z M 158.179688 70.109375 L 159.820313 67.296875 L 160.585938 67.75 L 156.367188 74.96875 L 155.601563 74.515625 L 156.054688 73.734375 C 155.710938 73.953125 155.371094 74.0625 155.039063 74.0625 C 154.703125 74.070313 154.367188 73.976563 154.023438 73.78125 C 153.449219 73.445313 153.132813 72.929688 153.070313 72.234375 C 153.007813 71.527344 153.214844 70.761719 153.695313 69.9375 C 154.171875 69.125 154.734375 68.574219 155.382813 68.28125 C 156.027344 67.980469 156.636719 67.996094 157.210938 68.328125 C 157.554688 68.527344 157.804688 68.773438 157.960938 69.0625 C 158.117188 69.355469 158.1875 69.703125 158.179688 70.109375 Z M 154.492188 70.390625 C 154.125 71.027344 153.953125 71.589844 153.976563 72.078125 C 153.996094 72.566406 154.210938 72.929688 154.617188 73.171875 C 155.03125 73.410156 155.460938 73.421875 155.898438 73.203125 C 156.34375 72.984375 156.75 72.554688 157.117188 71.921875 C 157.480469 71.296875 157.648438 70.742188 157.617188 70.25 C 157.59375 69.761719 157.375 69.398438 156.960938 69.15625 C 156.554688 68.917969 156.132813 68.90625 155.695313 69.125 C 155.257813 69.34375 154.855469 69.765625 154.492188 70.390625 Z M 154.492188 70.390625 "/>
<path style=" stroke:none;fill-rule:evenodd;fill:rgb(20%,20%,20%);fill-opacity:1;" d="M 99.894531 28.554688 L 99.050781 29.335938 C 99.070313 28.867188 99.011719 28.441406 98.878906 28.054688 C 98.753906 27.671875 98.550781 27.320313 98.269531 27.007813 C 97.714844 26.40625 97.085938 26.128906 96.378906 26.179688 C 95.667969 26.234375 94.925781 26.617188 94.144531 27.335938 C 93.363281 28.046875 92.914063 28.753906 92.800781 29.460938 C 92.695313 30.167969 92.917969 30.824219 93.472656 31.429688 C 93.753906 31.742188 94.074219 31.976563 94.441406 32.132813 C 94.816406 32.296875 95.242188 32.382813 95.722656 32.382813 L 94.894531 33.148438 C 94.476563 33.074219 94.089844 32.9375 93.738281 32.742188 C 93.382813 32.554688 93.066406 32.304688 92.785156 31.992188 C 92.042969 31.1875 91.730469 30.304688 91.847656 29.335938 C 91.972656 28.378906 92.507813 27.46875 93.457031 26.601563 C 94.402344 25.726563 95.363281 25.269531 96.332031 25.226563 C 97.308594 25.175781 98.167969 25.550781 98.910156 26.351563 C 99.199219 26.675781 99.425781 27.023438 99.582031 27.398438 C 99.746094 27.765625 99.851563 28.148438 99.894531 28.554688 Z M 101.140625 35.527344 L 98.46875 37.980469 L 97.875 37.324219 L 100.53125 34.902344 C 100.945313 34.515625 101.1875 34.152344 101.25 33.808594 C 101.320313 33.464844 101.226563 33.148438 100.96875 32.855469 C 100.632813 32.503906 100.25 32.339844 99.8125 32.371094 C 99.382813 32.394531 98.957031 32.601563 98.53125 32.996094 L 96.015625 35.292969 L 95.390625 34.621094 L 101.5625 28.980469 L 102.1875 29.652344 L 99.765625 31.871094 C 100.171875 31.777344 100.535156 31.777344 100.859375 31.871094 C 101.179688 31.957031 101.472656 32.136719 101.734375 32.417969 C 102.148438 32.878906 102.304688 33.371094 102.203125 33.902344 C 102.109375 34.421875 101.753906 34.964844 101.140625 35.527344 Z M 103.570313 39.050781 C 103.078125 38.519531 102.671875 38.21875 102.351563 38.144531 C 102.027344 38.0625 101.703125 38.171875 101.382813 38.472656 C 101.121094 38.699219 100.984375 38.960938 100.976563 39.253906 C 100.964844 39.554688 101.078125 39.835938 101.320313 40.097656 C 101.664063 40.460938 102.074219 40.617188 102.554688 40.566406 C 103.042969 40.523438 103.523438 40.289063 103.992188 39.863281 L 104.164063 39.707031 Z M 105.070313 40.082031 L 102.539063 42.410156 L 101.929688 41.753906 L 102.601563 41.144531 C 102.195313 41.226563 101.824219 41.214844 101.492188 41.113281 C 101.15625 41.019531 100.84375 40.808594 100.554688 40.488281 C 100.179688 40.070313 100.007813 39.621094 100.039063 39.144531 C 100.070313 38.675781 100.304688 38.246094 100.742188 37.847656 C 101.242188 37.390625 101.75 37.199219 102.273438 37.269531 C 102.792969 37.34375 103.328125 37.675781 103.882813 38.269531 L 104.726563 39.191406 L 104.804688 39.128906 C 105.136719 38.816406 105.304688 38.480469 105.304688 38.113281 C 105.304688 37.75 105.136719 37.386719 104.804688 37.019531 C 104.605469 36.800781 104.375 36.613281 104.117188 36.457031 C 103.855469 36.292969 103.574219 36.15625 103.273438 36.050781 L 103.945313 35.441406 C 104.265625 35.597656 104.554688 35.765625 104.804688 35.941406 C 105.0625 36.121094 105.292969 36.3125 105.492188 36.519531 C 106.023438 37.105469 106.25 37.691406 106.179688 38.285156 C 106.117188 38.867188 105.746094 39.464844 105.070313 40.082031 Z M 110.039063 39.191406 L 108.789063 40.347656 L 110.023438 41.691406 L 109.460938 42.207031 L 108.226563 40.863281 L 105.820313 43.066406 C 105.453125 43.398438 105.261719 43.652344 105.242188 43.832031 C 105.21875 44.019531 105.335938 44.246094 105.585938 44.519531 L 106.195313 45.191406 L 105.585938 45.753906 L 104.976563 45.082031 C 104.515625 44.570313 104.304688 44.121094 104.335938 43.738281 C 104.375 43.363281 104.671875 42.921875 105.226563 42.410156 L 107.632813 40.207031 L 107.179688 39.722656 L 107.742188 39.207031 L 108.195313 39.691406 L 109.445313 38.535156 Z M 110.828125 42.550781 L 111.421875 43.207031 L 106.984375 47.269531 L 106.390625 46.613281 Z M 112.5625 40.972656 L 113.15625 41.628906 L 112.234375 42.472656 L 111.640625 41.816406 Z M 114.46875 49.261719 L 114.171875 49.652344 L 110.953125 47.136719 C 110.566406 47.691406 110.394531 48.207031 110.4375 48.683594 C 110.488281 49.171875 110.742188 49.59375 111.203125 49.949219 C 111.472656 50.167969 111.757813 50.332031 112.0625 50.449219 C 112.375 50.574219 112.710938 50.667969 113.078125 50.730469 L 112.5 51.449219 C 112.15625 51.375 111.828125 51.265625 111.515625 51.121094 C 111.203125 50.984375 110.910156 50.808594 110.640625 50.589844 C 109.960938 50.058594 109.597656 49.417969 109.546875 48.667969 C 109.492188 47.929688 109.757813 47.179688 110.34375 46.417969 C 110.945313 45.648438 111.613281 45.183594 112.34375 45.027344 C 113.082031 44.863281 113.773438 45.027344 114.421875 45.527344 C 114.992188 45.976563 115.28125 46.535156 115.28125 47.199219 C 115.289063 47.867188 115.019531 48.550781 114.46875 49.261719 Z M 113.96875 48.480469 C 114.289063 48.054688 114.445313 47.632813 114.4375 47.214844 C 114.425781 46.800781 114.25 46.457031 113.90625 46.183594 C 113.507813 45.871094 113.097656 45.753906 112.671875 45.824219 C 112.242188 45.886719 111.84375 46.121094 111.46875 46.527344 Z M 120.246094 50.546875 C 120.652344 50.246094 121.035156 50.074219 121.402344 50.03125 C 121.777344 49.992188 122.152344 50.0625 122.527344 50.25 C 123.035156 50.523438 123.324219 50.921875 123.386719 51.453125 C 123.449219 51.976563 123.292969 52.59375 122.917969 53.3125 L 121.261719 56.53125 L 120.480469 56.125 L 122.136719 52.9375 C 122.394531 52.417969 122.511719 51.996094 122.480469 51.671875 C 122.449219 51.339844 122.265625 51.089844 121.933594 50.921875 C 121.515625 50.703125 121.109375 50.6875 120.714844 50.875 C 120.316406 51.054688 119.984375 51.398438 119.714844 51.90625 L 118.152344 54.9375 L 117.371094 54.515625 L 119.027344 51.328125 C 119.285156 50.808594 119.394531 50.386719 119.355469 50.0625 C 119.324219 49.730469 119.140625 49.476563 118.808594 49.296875 C 118.402344 49.089844 118 49.078125 117.605469 49.265625 C 117.207031 49.445313 116.875 49.789063 116.605469 50.296875 L 115.042969 53.328125 L 114.246094 52.90625 L 117.011719 47.5625 L 117.808594 47.984375 L 117.371094 48.8125 C 117.722656 48.5625 118.066406 48.433594 118.402344 48.421875 C 118.734375 48.402344 119.074219 48.480469 119.417969 48.65625 C 119.769531 48.835938 120.015625 49.085938 120.152344 49.40625 C 120.296875 49.71875 120.328125 50.101563 120.246094 50.546875 Z M 126.421875 55.800781 C 125.785156 55.46875 125.296875 55.324219 124.953125 55.363281 C 124.617188 55.40625 124.351563 55.621094 124.15625 56.003906 C 124 56.308594 123.96875 56.597656 124.0625 56.878906 C 124.15625 57.160156 124.359375 57.382813 124.671875 57.550781 C 125.117188 57.777344 125.5625 57.785156 126 57.566406 C 126.4375 57.355469 126.800781 56.972656 127.09375 56.410156 L 127.203125 56.207031 Z M 128.1875 56.253906 L 126.609375 59.300781 L 125.8125 58.894531 L 126.234375 58.082031 C 125.890625 58.320313 125.539063 58.445313 125.1875 58.457031 C 124.832031 58.464844 124.460938 58.371094 124.078125 58.175781 C 123.585938 57.914063 123.273438 57.554688 123.140625 57.097656 C 123.015625 56.640625 123.082031 56.152344 123.34375 55.628906 C 123.65625 55.035156 124.066406 54.683594 124.578125 54.566406 C 125.097656 54.441406 125.71875 54.566406 126.4375 54.941406 L 127.546875 55.519531 L 127.59375 55.441406 C 127.800781 55.035156 127.84375 54.660156 127.71875 54.316406 C 127.59375 53.964844 127.3125 53.671875 126.875 53.441406 C 126.613281 53.308594 126.332031 53.207031 126.03125 53.144531 C 125.726563 53.082031 125.421875 53.0625 125.109375 53.082031 L 125.515625 52.285156 C 125.878906 52.308594 126.210938 52.359375 126.515625 52.441406 C 126.816406 52.515625 127.097656 52.621094 127.359375 52.753906 C 128.046875 53.109375 128.457031 53.578125 128.59375 54.160156 C 128.738281 54.734375 128.601563 55.433594 128.1875 56.253906 Z M 134.355469 56.78125 L 133.933594 57.609375 C 133.777344 57.351563 133.605469 57.132813 133.417969 56.953125 C 133.230469 56.765625 133.015625 56.609375 132.777344 56.484375 C 132.265625 56.226563 131.777344 56.203125 131.308594 56.421875 C 130.839844 56.632813 130.433594 57.0625 130.089844 57.71875 C 129.753906 58.375 129.636719 58.960938 129.730469 59.46875 C 129.832031 59.96875 130.140625 60.347656 130.652344 60.609375 C 130.890625 60.734375 131.136719 60.816406 131.386719 60.859375 C 131.644531 60.910156 131.921875 60.925781 132.214844 60.90625 L 131.808594 61.71875 C 131.515625 61.71875 131.234375 61.679688 130.964844 61.609375 C 130.703125 61.546875 130.441406 61.445313 130.183594 61.3125 C 129.453125 60.9375 129.003906 60.390625 128.839844 59.671875 C 128.671875 58.945313 128.8125 58.148438 129.261719 57.28125 C 129.707031 56.417969 130.277344 55.851563 130.964844 55.578125 C 131.660156 55.296875 132.386719 55.351563 133.136719 55.734375 C 133.375 55.859375 133.59375 56.011719 133.792969 56.1875 C 134 56.367188 134.1875 56.5625 134.355469 56.78125 Z M 140.664063 62.3125 C 140.796875 62.480469 140.890625 62.726563 140.945313 63.046875 C 141.007813 63.371094 141.027344 63.78125 141.007813 64.28125 L 140.882813 66.671875 L 139.945313 66.1875 L 140.085938 63.9375 C 140.117188 63.34375 140.070313 62.921875 139.945313 62.671875 C 139.828125 62.414063 139.601563 62.195313 139.257813 62.015625 L 138.320313 61.515625 L 136.757813 64.53125 L 135.882813 64.078125 L 139.554688 56.953125 L 141.507813 57.96875 C 142.246094 58.355469 142.710938 58.808594 142.898438 59.328125 C 143.085938 59.851563 142.996094 60.460938 142.632813 61.15625 C 142.402344 61.59375 142.117188 61.917969 141.773438 62.125 C 141.4375 62.324219 141.070313 62.386719 140.664063 62.3125 Z M 140.023438 58.203125 L 138.726563 60.734375 L 139.804688 61.296875 C 140.230469 61.515625 140.605469 61.574219 140.929688 61.46875 C 141.25 61.367188 141.515625 61.105469 141.726563 60.6875 C 141.945313 60.273438 142 59.902344 141.898438 59.578125 C 141.792969 59.257813 141.527344 58.984375 141.101563 58.765625 Z M 146.257813 63.449219 C 145.839844 63.230469 145.414063 63.246094 144.976563 63.496094 C 144.539063 63.738281 144.152344 64.175781 143.820313 64.808594 C 143.484375 65.457031 143.351563 66.023438 143.414063 66.511719 C 143.476563 67 143.714844 67.355469 144.132813 67.574219 C 144.558594 67.792969 144.984375 67.78125 145.414063 67.542969 C 145.851563 67.300781 146.234375 66.859375 146.570313 66.214844 C 146.902344 65.582031 147.039063 65.019531 146.976563 64.527344 C 146.921875 64.027344 146.683594 63.667969 146.257813 63.449219 Z M 146.648438 62.714844 C 147.335938 63.070313 147.746094 63.597656 147.882813 64.292969 C 148.027344 64.992188 147.871094 65.777344 147.414063 66.652344 C 146.964844 67.527344 146.414063 68.109375 145.757813 68.402344 C 145.101563 68.703125 144.429688 68.675781 143.742188 68.324219 C 143.054688 67.96875 142.640625 67.441406 142.507813 66.746094 C 142.382813 66.039063 142.542969 65.246094 142.992188 64.371094 C 143.449219 63.496094 144 62.914063 144.648438 62.621094 C 145.292969 62.332031 145.960938 62.363281 146.648438 62.714844 Z M 150.910156 68.441406 C 150.273438 68.109375 149.785156 67.964844 149.441406 68.003906 C 149.105469 68.046875 148.839844 68.261719 148.644531 68.644531 C 148.488281 68.949219 148.457031 69.238281 148.550781 69.519531 C 148.644531 69.800781 148.847656 70.023438 149.160156 70.191406 C 149.605469 70.417969 150.050781 70.425781 150.488281 70.207031 C 150.925781 69.996094 151.289063 69.613281 151.582031 69.050781 L 151.691406 68.847656 Z M 152.675781 68.894531 L 151.097656 71.941406 L 150.300781 71.535156 L 150.722656 70.722656 C 150.378906 70.960938 150.027344 71.085938 149.675781 71.097656 C 149.320313 71.105469 148.949219 71.011719 148.566406 70.816406 C 148.074219 70.554688 147.761719 70.195313 147.628906 69.738281 C 147.503906 69.28125 147.570313 68.792969 147.832031 68.269531 C 148.144531 67.675781 148.554688 67.324219 149.066406 67.207031 C 149.585938 67.082031 150.207031 67.207031 150.925781 67.582031 L 152.035156 68.160156 L 152.082031 68.082031 C 152.289063 67.675781 152.332031 67.300781 152.207031 66.957031 C 152.082031 66.605469 151.800781 66.3125 151.363281 66.082031 C 151.101563 65.949219 150.820313 65.847656 150.519531 65.785156 C 150.214844 65.722656 149.910156 65.703125 149.597656 65.722656 L 150.003906 64.925781 C 150.367188 64.949219 150.699219 65 151.003906 65.082031 C 151.304688 65.15625 151.585938 65.261719 151.847656 65.394531 C 152.535156 65.75 152.945313 66.21875 153.082031 66.800781 C 153.226563 67.375 153.089844 68.074219 152.675781 68.894531 Z M 158.179688 70.109375 L 159.820313 67.296875 L 160.585938 67.75 L 156.367188 74.96875 L 155.601563 74.515625 L 156.054688 73.734375 C 155.710938 73.953125 155.371094 74.0625 155.039063 74.0625 C 154.703125 74.070313 154.367188 73.976563 154.023438 73.78125 C 153.449219 73.445313 153.132813 72.929688 153.070313 72.234375 C 153.007813 71.527344 153.214844 70.761719 153.695313 69.9375 C 154.171875 69.125 154.734375 68.574219 155.382813 68.28125 C 156.027344 67.980469 156.636719 67.996094 157.210938 68.328125 C 157.554688 68.527344 157.804688 68.773438 157.960938 69.0625 C 158.117188 69.355469 158.1875 69.703125 158.179688 70.109375 Z M 154.492188 70.390625 C 154.125 71.027344 153.953125 71.589844 153.976563 72.078125 C 153.996094 72.566406 154.210938 72.929688 154.617188 73.171875 C 155.03125 73.410156 155.460938 73.421875 155.898438 73.203125 C 156.34375 72.984375 156.75 72.554688 157.117188 71.921875 C 157.480469 71.296875 157.648438 70.742188 157.617188 70.25 C 157.59375 69.761719 157.375 69.398438 156.960938 69.15625 C 156.554688 68.917969 156.132813 68.90625 155.695313 69.125 C 155.257813 69.34375 154.855469 69.765625 154.492188 70.390625 Z M 154.492188 70.390625 "/>
<path style="fill:none;stroke-width:3;stroke-linecap:round;stroke-linejoin:round;stroke:rgb(100%,100%,100%);stroke-opacity:1;stroke-miterlimit:10;" d="M 36.613281 103.597656 L 37.597656 103.597656 L 39.113281 110.378906 L 40.628906 103.597656 L 41.722656 103.597656 L 43.253906 110.378906 L 44.753906 103.597656 L 45.753906 103.597656 L 43.941406 111.613281 L 42.707031 111.613281 L 41.191406 104.644531 L 39.644531 111.613281 L 38.425781 111.613281 Z M 47.003906 105.597656 L 47.894531 105.597656 L 47.894531 111.613281 L 47.003906 111.613281 Z M 47.003906 103.253906 L 47.894531 103.253906 L 47.894531 104.503906 L 47.003906 104.503906 Z M 54.253906 107.988281 L 54.253906 111.613281 L 53.363281 111.613281 L 53.363281 108.019531 C 53.363281 107.449219 53.257813 107.019531 53.050781 106.738281 C 52.851563 106.457031 52.554688 106.316406 52.160156 106.316406 C 51.679688 106.316406 51.300781 106.488281 51.019531 106.832031 C 50.746094 107.167969 50.613281 107.625 50.613281 108.207031 L 50.613281 111.613281 L 49.707031 111.613281 L 49.707031 105.597656 L 50.613281 105.597656 L 50.613281 106.535156 C 50.820313 106.171875 51.066406 105.902344 51.347656 105.722656 C 51.636719 105.546875 51.976563 105.457031 52.363281 105.457031 C 52.976563 105.457031 53.445313 105.671875 53.769531 106.097656 C 54.089844 106.527344 54.253906 107.15625 54.253906 107.988281 Z M 59.597656 106.503906 L 59.597656 103.253906 L 60.488281 103.253906 L 60.488281 111.613281 L 59.597656 111.613281 L 59.597656 110.707031 C 59.410156 111.074219 59.167969 111.34375 58.878906 111.519531 C 58.597656 111.683594 58.257813 111.769531 57.863281 111.769531 C 57.207031 111.769531 56.667969 111.484375 56.253906 110.910156 C 55.847656 110.328125 55.644531 109.5625 55.644531 108.613281 C 55.644531 107.667969 55.847656 106.90625 56.253906 106.332031 C 56.667969 105.75 57.207031 105.457031 57.863281 105.457031 C 58.257813 105.457031 58.597656 105.546875 58.878906 105.722656 C 59.167969 105.890625 59.410156 106.152344 59.597656 106.503906 Z M 56.566406 108.613281 C 56.566406 109.34375 56.695313 109.917969 56.957031 110.332031 C 57.226563 110.738281 57.597656 110.941406 58.066406 110.941406 C 58.542969 110.941406 58.917969 110.738281 59.191406 110.332031 C 59.460938 109.917969 59.597656 109.34375 59.597656 108.613281 C 59.597656 107.886719 59.460938 107.316406 59.191406 106.910156 C 58.917969 106.496094 58.542969 106.285156 58.066406 106.285156 C 57.597656 106.285156 57.226563 106.496094 56.957031 106.910156 C 56.695313 107.316406 56.566406 107.886719 56.566406 108.613281 Z M 64.410156 106.285156 C 63.929688 106.285156 63.550781 106.496094 63.269531 106.910156 C 62.996094 107.328125 62.863281 107.894531 62.863281 108.613281 C 62.863281 109.332031 62.996094 109.902344 63.269531 110.316406 C 63.550781 110.722656 63.929688 110.925781 64.410156 110.925781 C 64.886719 110.925781 65.261719 110.722656 65.535156 110.316406 C 65.816406 109.902344 65.957031 109.332031 65.957031 108.613281 C 65.957031 107.894531 65.816406 107.328125 65.535156 106.910156 C 65.261719 106.496094 64.886719 106.285156 64.410156 106.285156 Z M 64.410156 105.457031 C 65.179688 105.457031 65.785156 105.738281 66.222656 106.300781 C 66.667969 106.855469 66.894531 107.625 66.894531 108.613281 C 66.894531 109.59375 66.667969 110.363281 66.222656 110.925781 C 65.785156 111.488281 65.179688 111.769531 64.410156 111.769531 C 63.628906 111.769531 63.019531 111.488281 62.582031 110.925781 C 62.144531 110.363281 61.925781 109.59375 61.925781 108.613281 C 61.925781 107.625 62.144531 106.855469 62.582031 106.300781 C 63.019531 105.738281 63.628906 105.457031 64.410156 105.457031 Z M 67.722656 105.597656 L 68.660156 105.597656 L 70.347656 110.644531 L 72.050781 105.597656 L 72.988281 105.597656 L 70.957031 111.613281 L 69.753906 111.613281 Z M 78.847656 108.363281 L 78.847656 108.847656 L 74.753906 108.847656 C 74.792969 109.527344 74.980469 110.042969 75.316406 110.394531 C 75.648438 110.75 76.105469 110.925781 76.691406 110.925781 C 77.035156 110.925781 77.363281 110.878906 77.675781 110.785156 C 77.996094 110.691406 78.320313 110.558594 78.644531 110.378906 L 78.644531 111.300781 C 78.320313 111.457031 77.992188 111.574219 77.660156 111.644531 C 77.324219 111.726563 76.988281 111.769531 76.644531 111.769531 C 75.777344 111.769531 75.089844 111.496094 74.582031 110.941406 C 74.082031 110.378906 73.832031 109.621094 73.832031 108.660156 C 73.832031 107.683594 74.070313 106.90625 74.550781 106.332031 C 75.027344 105.75 75.675781 105.457031 76.488281 105.457031 C 77.214844 105.457031 77.789063 105.71875 78.207031 106.238281 C 78.632813 106.761719 78.847656 107.46875 78.847656 108.363281 Z M 77.957031 108.066406 C 77.945313 107.527344 77.808594 107.09375 77.550781 106.769531 C 77.289063 106.449219 76.941406 106.285156 76.503906 106.285156 C 76.003906 106.285156 75.601563 106.441406 75.300781 106.753906 C 74.996094 107.066406 74.824219 107.503906 74.785156 108.066406 Z M 83.457031 106.519531 C 83.351563 106.457031 83.238281 106.410156 83.113281 106.378906 C 82.996094 106.347656 82.871094 106.332031 82.738281 106.332031 C 82.226563 106.332031 81.835938 106.515625 81.566406 106.878906 C 81.304688 107.246094 81.175781 107.765625 81.175781 108.441406 L 81.175781 111.613281 L 80.269531 111.613281 L 80.269531 105.597656 L 81.175781 105.597656 L 81.175781 106.535156 C 81.363281 106.171875 81.601563 105.902344 81.894531 105.722656 C 82.195313 105.546875 82.558594 105.457031 82.988281 105.457031 C 83.050781 105.457031 83.117188 105.464844 83.191406 105.472656 C 83.273438 105.472656 83.355469 105.484375 83.441406 105.503906 Z M 49.253906 114.597656 L 50.238281 114.597656 L 50.238281 121.707031 L 53.753906 121.707031 L 53.753906 122.613281 L 49.253906 122.613281 Z M 57.191406 119.582031 C 56.472656 119.582031 55.972656 119.675781 55.691406 119.863281 C 55.417969 120.050781 55.285156 120.363281 55.285156 120.800781 C 55.285156 121.144531 55.386719 121.421875 55.597656 121.628906 C 55.804688 121.839844 56.085938 121.941406 56.441406 121.941406 C 56.941406 121.941406 57.335938 121.75 57.628906 121.363281 C 57.929688 120.96875 58.082031 120.453125 58.082031 119.816406 L 58.082031 119.582031 Z M 58.972656 119.175781 L 58.972656 122.613281 L 58.082031 122.613281 L 58.082031 121.707031 C 57.871094 122.074219 57.617188 122.34375 57.316406 122.519531 C 57.011719 122.683594 56.644531 122.769531 56.207031 122.769531 C 55.652344 122.769531 55.210938 122.597656 54.878906 122.253906 C 54.554688 121.910156 54.394531 121.449219 54.394531 120.863281 C 54.394531 120.1875 54.597656 119.675781 55.003906 119.332031 C 55.410156 118.988281 56.019531 118.816406 56.832031 118.816406 L 58.082031 118.816406 L 58.082031 118.722656 C 58.082031 118.265625 57.945313 117.910156 57.675781 117.660156 C 57.402344 117.410156 57.023438 117.285156 56.535156 117.285156 C 56.230469 117.285156 55.929688 117.328125 55.628906 117.410156 C 55.335938 117.496094 55.054688 117.621094 54.785156 117.785156 L 54.785156 116.878906 C 55.117188 116.734375 55.433594 116.628906 55.738281 116.566406 C 56.039063 116.496094 56.335938 116.457031 56.628906 116.457031 C 57.410156 116.457031 57.992188 116.683594 58.378906 117.128906 C 58.773438 117.578125 58.972656 118.261719 58.972656 119.175781 Z M 60.753906 114.253906 L 61.660156 114.253906 L 61.660156 119.191406 L 64.316406 116.597656 L 65.457031 116.597656 L 62.582031 119.410156 L 65.566406 122.613281 L 64.410156 122.613281 L 61.660156 119.675781 L 61.660156 122.613281 L 60.753906 122.613281 Z M 71.160156 119.363281 L 71.160156 119.847656 L 67.066406 119.847656 C 67.105469 120.527344 67.292969 121.042969 67.628906 121.394531 C 67.960938 121.75 68.417969 121.925781 69.003906 121.925781 C 69.347656 121.925781 69.675781 121.878906 69.988281 121.785156 C 70.308594 121.691406 70.632813 121.558594 70.957031 121.378906 L 70.957031 122.300781 C 70.632813 122.457031 70.304688 122.574219 69.972656 122.644531 C 69.636719 122.726563 69.300781 122.769531 68.957031 122.769531 C 68.089844 122.769531 67.402344 122.496094 66.894531 121.941406 C 66.394531 121.378906 66.144531 120.621094 66.144531 119.660156 C 66.144531 118.683594 66.382813 117.90625 66.863281 117.332031 C 67.339844 116.75 67.988281 116.457031 68.800781 116.457031 C 69.527344 116.457031 70.101563 116.71875 70.519531 117.238281 C 70.945313 117.761719 71.160156 118.46875 71.160156 119.363281 Z M 70.269531 119.066406 C 70.257813 118.527344 70.121094 118.09375 69.863281 117.769531 C 69.601563 117.449219 69.253906 117.285156 68.816406 117.285156 C 68.316406 117.285156 67.914063 117.441406 67.613281 117.753906 C 67.308594 118.066406 67.136719 118.503906 67.097656 119.066406 Z M 70.269531 119.066406 "/>
<path style=" stroke:none;fill-rule:evenodd;fill:rgb(41.960784%,58.039216%,69.019608%);fill-opacity:1;" d="M 36.613281 103.597656 L 37.597656 103.597656 L 39.113281 110.378906 L 40.628906 103.597656 L 41.722656 103.597656 L 43.253906 110.378906 L 44.753906 103.597656 L 45.753906 103.597656 L 43.941406 111.613281 L 42.707031 111.613281 L 41.191406 104.644531 L 39.644531 111.613281 L 38.425781 111.613281 Z M 47.003906 105.597656 L 47.894531 105.597656 L 47.894531 111.613281 L 47.003906 111.613281 Z M 47.003906 103.253906 L 47.894531 103.253906 L 47.894531 104.503906 L 47.003906 104.503906 Z M 54.253906 107.988281 L 54.253906 111.613281 L 53.363281 111.613281 L 53.363281 108.019531 C 53.363281 107.449219 53.257813 107.019531 53.050781 106.738281 C 52.851563 106.457031 52.554688 106.316406 52.160156 106.316406 C 51.679688 106.316406 51.300781 106.488281 51.019531 106.832031 C 50.746094 107.167969 50.613281 107.625 50.613281 108.207031 L 50.613281 111.613281 L 49.707031 111.613281 L 49.707031 105.597656 L 50.613281 105.597656 L 50.613281 106.535156 C 50.820313 106.171875 51.066406 105.902344 51.347656 105.722656 C 51.636719 105.546875 51.976563 105.457031 52.363281 105.457031 C 52.976563 105.457031 53.445313 105.671875 53.769531 106.097656 C 54.089844 106.527344 54.253906 107.15625 54.253906 107.988281 Z M 59.597656 106.503906 L 59.597656 103.253906 L 60.488281 103.253906 L 60.488281 111.613281 L 59.597656 111.613281 L 59.597656 110.707031 C 59.410156 111.074219 59.167969 111.34375 58.878906 111.519531 C 58.597656 111.683594 58.257813 111.769531 57.863281 111.769531 C 57.207031 111.769531 56.667969 111.484375 56.253906 110.910156 C 55.847656 110.328125 55.644531 109.5625 55.644531 108.613281 C 55.644531 107.667969 55.847656 106.90625 56.253906 106.332031 C 56.667969 105.75 57.207031 105.457031 57.863281 105.457031 C 58.257813 105.457031 58.597656 105.546875 58.878906 105.722656 C 59.167969 105.890625 59.410156 106.152344 59.597656 106.503906 Z M 56.566406 108.613281 C 56.566406 109.34375 56.695313 109.917969 56.957031 110.332031 C 57.226563 110.738281 57.597656 110.941406 58.066406 110.941406 C 58.542969 110.941406 58.917969 110.738281 59.191406 110.332031 C 59.460938 109.917969 59.597656 109.34375 59.597656 108.613281 C 59.597656 107.886719 59.460938 107.316406 59.191406 106.910156 C 58.917969 106.496094 58.542969 106.285156 58.066406 106.285156 C 57.597656 106.285156 57.226563 106.496094 56.957031 106.910156 C 56.695313 107.316406 56.566406 107.886719 56.566406 108.613281 Z M 64.410156 106.285156 C 63.929688 106.285156 63.550781 106.496094 63.269531 106.910156 C 62.996094 107.328125 62.863281 107.894531 62.863281 108.613281 C 62.863281 109.332031 62.996094 109.902344 63.269531 110.316406 C 63.550781 110.722656 63.929688 110.925781 64.410156 110.925781 C 64.886719 110.925781 65.261719 110.722656 65.535156 110.316406 C 65.816406 109.902344 65.957031 109.332031 65.957031 108.613281 C 65.957031 107.894531 65.816406 107.328125 65.535156 106.910156 C 65.261719 106.496094 64.886719 106.285156 64.410156 106.285156 Z M 64.410156 105.457031 C 65.179688 105.457031 65.785156 105.738281 66.222656 106.300781 C 66.667969 106.855469 66.894531 107.625 66.894531 108.613281 C 66.894531 109.59375 66.667969 110.363281 66.222656 110.925781 C 65.785156 111.488281 65.179688 111.769531 64.410156 111.769531 C 63.628906 111.769531 63.019531 111.488281 62.582031 110.925781 C 62.144531 110.363281 61.925781 109.59375 61.925781 108.613281 C 61.925781 107.625 62.144531 106.855469 62.582031 106.300781 C 63.019531 105.738281 63.628906 105.457031 64.410156 105.457031 Z M 67.722656 105.597656 L 68.660156 105.597656 L 70.347656 110.644531 L 72.050781 105.597656 L 72.988281 105.597656 L 70.957031 111.613281 L 69.753906 111.613281 Z M 78.847656 108.363281 L 78.847656 108.847656 L 74.753906 108.847656 C 74.792969 109.527344 74.980469 110.042969 75.316406 110.394531 C 75.648438 110.75 76.105469 110.925781 76.691406 110.925781 C 77.035156 110.925781 77.363281 110.878906 77.675781 110.785156 C 77.996094 110.691406 78.320313 110.558594 78.644531 110.378906 L 78.644531 111.300781 C 78.320313 111.457031 77.992188 111.574219 77.660156 111.644531 C 77.324219 111.726563 76.988281 111.769531 76.644531 111.769531 C 75.777344 111.769531 75.089844 111.496094 74.582031 110.941406 C 74.082031 110.378906 73.832031 109.621094 73.832031 108.660156 C 73.832031 107.683594 74.070313 106.90625 74.550781 106.332031 C 75.027344 105.75 75.675781 105.457031 76.488281 105.457031 C 77.214844 105.457031 77.789063 105.71875 78.207031 106.238281 C 78.632813 106.761719 78.847656 107.46875 78.847656 108.363281 Z M 77.957031 108.066406 C 77.945313 107.527344 77.808594 107.09375 77.550781 106.769531 C 77.289063 106.449219 76.941406 106.285156 76.503906 106.285156 C 76.003906 106.285156 75.601563 106.441406 75.300781 106.753906 C 74.996094 107.066406 74.824219 107.503906 74.785156 108.066406 Z M 83.457031 106.519531 C 83.351563 106.457031 83.238281 106.410156 83.113281 106.378906 C 82.996094 106.347656 82.871094 106.332031 82.738281 106.332031 C 82.226563 106.332031 81.835938 106.515625 81.566406 106.878906 C 81.304688 107.246094 81.175781 107.765625 81.175781 108.441406 L 81.175781 111.613281 L 80.269531 111.613281 L 80.269531 105.597656 L 81.175781 105.597656 L 81.175781 106.535156 C 81.363281 106.171875 81.601563 105.902344 81.894531 105.722656 C 82.195313 105.546875 82.558594 105.457031 82.988281 105.457031 C 83.050781 105.457031 83.117188 105.464844 83.191406 105.472656 C 83.273438 105.472656 83.355469 105.484375 83.441406 105.503906 Z M 49.253906 114.597656 L 50.238281 114.597656 L 50.238281 121.707031 L 53.753906 121.707031 L 53.753906 122.613281 L 49.253906 122.613281 Z M 57.191406 119.582031 C 56.472656 119.582031 55.972656 119.675781 55.691406 119.863281 C 55.417969 120.050781 55.285156 120.363281 55.285156 120.800781 C 55.285156 121.144531 55.386719 121.421875 55.597656 121.628906 C 55.804688 121.839844 56.085938 121.941406 56.441406 121.941406 C 56.941406 121.941406 57.335938 121.75 57.628906 121.363281 C 57.929688 120.96875 58.082031 120.453125 58.082031 119.816406 L 58.082031 119.582031 Z M 58.972656 119.175781 L 58.972656 122.613281 L 58.082031 122.613281 L 58.082031 121.707031 C 57.871094 122.074219 57.617188 122.34375 57.316406 122.519531 C 57.011719 122.683594 56.644531 122.769531 56.207031 122.769531 C 55.652344 122.769531 55.210938 122.597656 54.878906 122.253906 C 54.554688 121.910156 54.394531 121.449219 54.394531 120.863281 C 54.394531 120.1875 54.597656 119.675781 55.003906 119.332031 C 55.410156 118.988281 56.019531 118.816406 56.832031 118.816406 L 58.082031 118.816406 L 58.082031 118.722656 C 58.082031 118.265625 57.945313 117.910156 57.675781 117.660156 C 57.402344 117.410156 57.023438 117.285156 56.535156 117.285156 C 56.230469 117.285156 55.929688 117.328125 55.628906 117.410156 C 55.335938 117.496094 55.054688 117.621094 54.785156 117.785156 L 54.785156 116.878906 C 55.117188 116.734375 55.433594 116.628906 55.738281 116.566406 C 56.039063 116.496094 56.335938 116.457031 56.628906 116.457031 C 57.410156 116.457031 57.992188 116.683594 58.378906 117.128906 C 58.773438 117.578125 58.972656 118.261719 58.972656 119.175781 Z M 60.753906 114.253906 L 61.660156 114.253906 L 61.660156 119.191406 L 64.316406 116.597656 L 65.457031 116.597656 L 62.582031 119.410156 L 65.566406 122.613281 L 64.410156 122.613281 L 61.660156 119.675781 L 61.660156 122.613281 L 60.753906 122.613281 Z M 71.160156 119.363281 L 71.160156 119.847656 L 67.066406 119.847656 C 67.105469 120.527344 67.292969 121.042969 67.628906 121.394531 C 67.960938 121.75 68.417969 121.925781 69.003906 121.925781 C 69.347656 121.925781 69.675781 121.878906 69.988281 121.785156 C 70.308594 121.691406 70.632813 121.558594 70.957031 121.378906 L 70.957031 122.300781 C 70.632813 122.457031 70.304688 122.574219 69.972656 122.644531 C 69.636719 122.726563 69.300781 122.769531 68.957031 122.769531 C 68.089844 122.769531 67.402344 122.496094 66.894531 121.941406 C 66.394531 121.378906 66.144531 120.621094 66.144531 119.660156 C 66.144531 118.683594 66.382813 117.90625 66.863281 117.332031 C 67.339844 116.75 67.988281 116.457031 68.800781 116.457031 C 69.527344 116.457031 70.101563 116.71875 70.519531 117.238281 C 70.945313 117.761719 71.160156 118.46875 71.160156 119.363281 Z M 70.269531 119.066406 C 70.257813 118.527344 70.121094 118.09375 69.863281 117.769531 C 69.601563 117.449219 69.253906 117.285156 68.816406 117.285156 C 68.316406 117.285156 67.914063 117.441406 67.613281 117.753906 C 67.308594 118.066406 67.136719 118.503906 67.097656 119.066406 Z M 70.269531 119.066406 "/>
</g>
</svg>

