<?xml version="1.0" encoding="UTF-8"?>
<svg xmlns="http://www.w3.org/2000/svg" xmlns:xlink="http://www.w3.org/1999/xlink" width="256pt" height="256pt" viewBox="0 0 256 256" version="1.1">
<g id="surface2">
<rect x="0" y="0" width="256" height="256" style="fill:rgb(60%,70.196078%,80%);fill-opacity:1;stroke:none;"/>
<path style=" stroke:none;fill-rule:evenodd;fill:rgb(94.901961%,93.72549%,91.372549%);fill-opacity:1;" d="M -4 259 L 259 259 L 259 -4 L 259 259 Z M -4 259 "/>
<path style=" stroke:none;fill-rule:evenodd;fill:rgb(94.901961%,93.72549%,91.372549%);fill-opacity:1;" d="M 259 -4 L 180.949219 -4 L 178.515625 0.484375 L 170.863281 15.878906 L 168.808594 20.078125 L 166.273438 26.070313 L 164.523438 30.355469 L 163.558594 33.285156 L 162.117188 34.203125 L 160.632813 37.027344 L 157.839844 43.746094 L 155.078125 48.847656 L 151.039063 54.539063 L 146.988281 60.199219 L 142.722656 66.414063 L 141.605469 70.0625 L 142.101563 72.039063 L 141.046875 74.152344 L 140.628906 75.605469 L 137.894531 79.527344 L 136.363281 82.730469 L 135.414063 84.710938 L 134.121094 87.414063 L 130.378906 91.945313 L 127.902344 95.917969 L 115.78125 118.175781 L 110.253906 127.230469 L 105.792969 125.097656 L 103.746094 128.722656 L 102.976563 134.527344 L 104.773438 141.359375 L 102.972656 146.527344 L 100.660156 148.75 L 100.089844 149.164063 L 95.96875 152.136719 L 93.25 152.820313 L 90.890625 151.910156 L 89.59375 153.097656 L 80.230469 168.578125 L 77.019531 171.109375 L 78.378906 172.101563 L 74.476563 179.480469 L 83.636719 184.226563 L 78.980469 191.964844 L 64.238281 184.828125 L 62.78125 188.242188 L 62.164063 190.421875 L 59.765625 193.183594 L 55.40625 196.527344 L 52.246094 199.941406 L 50.433594 203.5 L 48.070313 206.335938 L 45.820313 208.371094 L 41.53125 211.457031 L 39.230469 215.335938 L 40.050781 218.929688 L 45.457031 223.800781 L 48.320313 226.84375 L 47.398438 229.511719 L 45.496094 234.550781 L 46.59375 237.472656 L 48.085938 243.070313 L 47.628906 245.175781 L 45.566406 248.15625 L 42.824219 248.820313 L 40.050781 248.359375 L 36.625 246.578125 L 34.476563 249.15625 L 33.808594 251.800781 L 32.550781 252.878906 L 31.445313 253.136719 L 30.164063 254.882813 L 28.414063 258.121094 L 28.25 259 L -4 259 L -4 -4 Z M 259 -4 "/>
<path style=" stroke:none;fill-rule:evenodd;fill:rgb(60%,70.196078%,80%);fill-opacity:1;" d="M -4 259 L 259 259 L 259 -4 L 180.949219 -4 L 178.515625 0.484375 L 170.863281 15.878906 L 168.808594 20.078125 L 166.273438 26.070313 L 164.523438 30.355469 L 163.558594 33.285156 L 162.117188 34.203125 L 160.632813 37.027344 L 157.84375 43.746094 L 155.078125 48.847656 L 151.039063 54.539063 L 146.988281 60.199219 L 142.722656 66.414063 L 141.609375 70.0625 L 142.101563 72.042969 L 141.046875 74.152344 L 140.628906 75.605469 L 137.894531 79.527344 L 136.363281 82.730469 L 135.414063 84.710938 L 134.121094 87.414063 L 130.378906 91.949219 L 127.902344 95.917969 L 115.78125 118.179688 L 110.253906 127.230469 L 105.792969 125.097656 L 103.746094 128.722656 L 102.976563 134.527344 L 104.773438 141.359375 L 102.972656 146.527344 L 100.660156 148.75 L 95.96875 152.136719 L 93.25 152.820313 L 90.890625 151.910156 L 89.597656 153.097656 L 80.230469 168.578125 L 77.019531 171.109375 L 78.378906 172.101563 L 74.476563 179.480469 L 83.636719 184.226563 L 78.980469 191.964844 L 64.238281 184.828125 L 62.78125 188.242188 L 62.164063 190.421875 L 59.765625 193.183594 L 55.40625 196.527344 L 52.246094 199.941406 L 50.433594 203.503906 L 48.070313 206.335938 L 45.820313 208.371094 L 41.53125 211.457031 L 39.230469 215.335938 L 40.050781 218.929688 L 45.457031 223.800781 L 48.320313 226.84375 L 47.398438 229.511719 L 45.496094 234.550781 L 46.59375 237.472656 L 48.085938 243.070313 L 47.628906 245.175781 L 45.566406 248.15625 L 42.824219 248.820313 L 40.050781 248.359375 L 36.625 246.578125 L 34.476563 249.15625 L 33.808594 251.800781 L 32.550781 252.882813 L 31.445313 253.136719 L 30.164063 254.882813 L 28.414063 258.121094 Z M -4 259 "/>
<path style="fill:none;stroke-width:1;stroke-linecap:round;stroke-linejoin:round;stroke:rgb(70.196078%,77.647059%,83.137255%);stroke-opacity:1;stroke-miterlimit:10;" d="M -4 259 L 259 259 L 259 -4 L 180.949219 -4 L 178.515625 0.484375 L 170.863281 15.878906 L 168.808594 20.078125 L 166.273438 26.070313 L 164.523438 30.355469 L 163.558594 33.285156 L 162.117188 34.203125 L 160.632813 37.027344 L 157.84375 43.746094 L 155.078125 48.847656 L 151.039063 54.539063 L 146.988281 60.199219 L 142.722656 66.414063 L 141.609375 70.0625 L 142.101563 72.042969 L 141.046875 74.152344 L 140.628906 75.605469 L 137.894531 79.527344 L 136.363281 82.730469 L 135.414063 84.710938 L 134.121094 87.414063 L 130.378906 91.949219 L 127.902344 95.917969 L 115.78125 118.179688 L 110.253906 127.230469 L 105.792969 125.097656 L 103.746094 128.722656 L 102.976563 134.527344 L 104.773438 141.359375 L 102.972656 146.527344 L 100.660156 148.75 L 95.96875 152.136719 L 93.25 152.820313 L 90.890625 151.910156 L 89.597656 153.097656 L 80.230469 168.578125 L 77.019531 171.109375 L 78.378906 172.101563 L 74.476563 179.480469 L 83.636719 184.226563 L 78.980469 191.964844 L 64.238281 184.828125 L 62.78125 188.242188 L 62.164063 190.421875 L 59.765625 193.183594 L 55.40625 196.527344 L 52.246094 199.941406 L 50.433594 203.503906 L 48.070313 206.335938 L 45.820313 208.371094 L 41.53125 211.457031 L 39.230469 215.335938 L 40.050781 218.929688 L 45.457031 223.800781 L 48.320313 226.84375 L 47.398438 229.511719 L 45.496094 234.550781 L 46.59375 237.472656 L 48.085938 243.070313 L 47.628906 245.175781 L 45.566406 248.15625 L 42.824219 248.820313 L 40.050781 248.359375 L 36.625 246.578125 L 34.476563 249.15625 L 33.808594 251.800781 L 32.550781 252.882813 L 31.445313 253.136719 L 30.164063 254.882813 L 28.414063 258.121094 L -4 259 "/>
<path style="fill:none;stroke-width:6;stroke-linecap:round;stroke-linejoin:round;stroke:rgb(60%,70.196078%,80%);stroke-opacity:1;stroke-miterlimit:10;" d="M 262 141.429688 L 208.828125 262 "/>
</g>
</svg>

