<?xml version="1.0" encoding="UTF-8"?>
<svg xmlns="http://www.w3.org/2000/svg" xmlns:xlink="http://www.w3.org/1999/xlink" width="256pt" height="256pt" viewBox="0 0 256 256" version="1.1">
<g id="surface2">
<rect x="0" y="0" width="256" height="256" style="fill:rgb(60%,70.196078%,80%);fill-opacity:1;stroke:none;"/>
<path style=" stroke:none;fill-rule:evenodd;fill:rgb(94.901961%,93.72549%,91.372549%);fill-opacity:1;" d="M 259 259 L 259 38.152344 L 258.1875 37.027344 L 243.792969 17.277344 L 235.769531 9.042969 L 228.75 1.222656 L 223.511719 -4 L -4 -4 L 259 -4 Z M 259 259 "/>
<path style=" stroke:none;fill-rule:evenodd;fill:rgb(70.980392%,82.352941%,61.176471%);fill-opacity:1;" d="M -4 -4 L 220.359375 -4 L 227.589844 3.207031 L 234.609375 11.027344 L 242.632813 19.261719 L 259.746094 34.140625 L 260 34.433594 L 260 14.59375 L 247.6875 7.277344 L 233.457031 -2.378906 L 231.582031 -4 Z M -4 -4 "/>
<path style=" stroke:none;fill-rule:evenodd;fill:rgb(70.980392%,82.352941%,61.176471%);fill-opacity:1;" d="M -4 -4 L 250.46875 -4 L 260 2.214844 L 260 -0.542969 L 258.152344 -1.316406 L 254.820313 -4 Z M -4 -4 "/>
<path style=" stroke:none;fill-rule:evenodd;fill:rgb(81.960784%,81.568627%,80.392157%);fill-opacity:1;" d="M 232.269531 -0.386719 L 246.386719 8.917969 L 247.6875 7.277344 L 233.457031 -2.378906 Z M 232.269531 -0.386719 "/>
<path style="fill:none;stroke-width:1;stroke-linecap:round;stroke-linejoin:round;stroke:rgb(81.960784%,81.960784%,81.960784%);stroke-opacity:1;stroke-miterlimit:10;" d="M 232.269531 -0.386719 L 246.386719 8.917969 L 247.6875 7.277344 L 233.457031 -2.378906 L 232.269531 -0.386719 "/>
<path style="fill:none;stroke-width:1;stroke-linecap:round;stroke-linejoin:round;stroke:rgb(100%,100%,100%);stroke-opacity:1;stroke-dasharray:2,3;stroke-miterlimit:10;" d="M 237.953125 8.667969 L 255.34375 17.933594 L 257 18.65625 "/>
<path style="fill:none;stroke-width:8;stroke-linecap:round;stroke-linejoin:round;stroke:rgb(75.686275%,70.980392%,61.568627%);stroke-opacity:1;stroke-miterlimit:10;" d="M 227.449219 -9 L 233.035156 -3.972656 L 240.898438 1.714844 L 249.136719 6.828125 L 255.703125 11.25 L 258.179688 12.664063 L 263.101563 15.144531 L 264 15.550781 "/>
<path style="fill:none;stroke-width:8;stroke-linecap:round;stroke-linejoin:round;stroke:rgb(75.686275%,70.980392%,61.568627%);stroke-opacity:1;stroke-miterlimit:10;" d="M 264 -1.417969 L 259.3125 -3.378906 L 255.042969 -6.820313 L 252.34375 -9 "/>
<path style="fill:none;stroke-width:11;stroke-linecap:round;stroke-linejoin:round;stroke:rgb(72.941176%,43.137255%,15.294118%);stroke-opacity:1;stroke-miterlimit:10;" d="M 267 9.152344 L 259.546875 5.324219 L 248.015625 -1.332031 L 242.671875 -4.863281 L 237.421875 -8.613281 L 233.273438 -12 "/>
<path style="fill:none;stroke-width:11;stroke-linecap:round;stroke-linejoin:round;stroke:rgb(72.941176%,43.137255%,15.294118%);stroke-opacity:1;stroke-miterlimit:10;" d="M 227.394531 -12 L 231.109375 -8.957031 L 235.796875 -5.425781 L 246.484375 2.011719 L 254.140625 6.511719 L 262.109375 10.792969 L 267 13.089844 "/>
<path style="fill:none;stroke-width:6;stroke-linecap:round;stroke-linejoin:round;stroke:rgb(100%,100%,100%);stroke-opacity:1;stroke-miterlimit:10;" d="M 227.449219 -9 L 233.035156 -3.972656 L 240.898438 1.714844 L 249.136719 6.828125 L 255.703125 11.25 L 258.179688 12.664063 L 263.101563 15.144531 L 264 15.550781 "/>
<path style="fill:none;stroke-width:6;stroke-linecap:round;stroke-linejoin:round;stroke:rgb(100%,100%,100%);stroke-opacity:1;stroke-miterlimit:10;" d="M 264 -1.417969 L 259.3125 -3.378906 L 255.042969 -6.820313 L 252.34375 -9 "/>
<path style="fill:none;stroke-width:9;stroke-linecap:round;stroke-linejoin:round;stroke:rgb(99.215686%,57.254902%,22.745098%);stroke-opacity:1;stroke-miterlimit:10;" d="M 267 9.152344 L 259.546875 5.324219 L 248.015625 -1.332031 L 242.671875 -4.863281 L 237.421875 -8.613281 L 233.273438 -12 "/>
<path style="fill:none;stroke-width:9;stroke-linecap:round;stroke-linejoin:round;stroke:rgb(99.215686%,57.254902%,22.745098%);stroke-opacity:1;stroke-miterlimit:10;" d="M 227.394531 -12 L 231.109375 -8.957031 L 235.796875 -5.425781 L 246.484375 2.011719 L 254.140625 6.511719 L 262.109375 10.792969 L 267 13.089844 "/>
</g>
</svg>

