<?xml version="1.0" encoding="UTF-8"?>
<svg xmlns="http://www.w3.org/2000/svg" xmlns:xlink="http://www.w3.org/1999/xlink" width="256pt" height="256pt" viewBox="0 0 256 256" version="1.1">
<g id="surface2">
<rect x="0" y="0" width="256" height="256" style="fill:rgb(94.901961%,93.72549%,91.372549%);fill-opacity:1;stroke:none;"/>
<path style="fill:none;stroke-width:2;stroke-linecap:round;stroke-linejoin:round;stroke:rgb(60%,70.196078%,80%);stroke-opacity:1;stroke-miterlimit:10;" d="M -3 136.8125 L -2 136.015625 L 21.144531 127.714844 L 26.148438 120.714844 L 26.148438 105.714844 L 33.5 96.511719 L 38.996094 95.011719 L 48.996094 95.011719 L 57 96.511719 L 70.496094 106.511719 L 79.996094 111.511719 L 90.996094 102.515625 L 98.648438 94.714844 L 108.078125 89.179688 L 115.148438 75.710938 L 122.9375 62.484375 L 130.003906 46.214844 L 137.648438 22.714844 L 141.496094 9.515625 L 150.648438 -2.285156 L 152.855469 -3 M 181.566406 -3 L 205.996094 3.511719 L 218.496094 1.011719 L 221.648438 -3 "/>
<path style="fill:none;stroke-width:1;stroke-linecap:round;stroke-linejoin:round;stroke:rgb(100%,100%,100%);stroke-opacity:1;stroke-dasharray:2,3;stroke-miterlimit:10;" d="M 248.863281 -2 L 236.542969 8.050781 L 193.636719 40.335938 L 181.152344 47.160156 L 164.042969 60.195313 L 155.550781 57.480469 L 153.238281 75.238281 L 149.90625 85.355469 L 138.304688 94.980469 L 130.425781 96.042969 L 114.554688 110.730469 L 105.261719 121.792969 L 93.898438 131.210938 L 84.125 140.984375 L 66.433594 154.0625 L 46.207031 161.125 L 20.515625 174.746094 L 15.738281 192.058594 L -2 206.703125 "/>
</g>
</svg>

