<?xml version="1.0" encoding="UTF-8"?>
<svg xmlns="http://www.w3.org/2000/svg" xmlns:xlink="http://www.w3.org/1999/xlink" width="256pt" height="256pt" viewBox="0 0 256 256" version="1.1">
<g id="surface2">
<rect x="0" y="0" width="256" height="256" style="fill:rgb(60%,70.196078%,80%);fill-opacity:1;stroke:none;"/>
<path style=" stroke:none;fill-rule:evenodd;fill:rgb(94.901961%,93.72549%,91.372549%);fill-opacity:1;" d="M 259 259 L -4 259 L 52.667969 259 L 68.035156 239.832031 L 101.03125 198.925781 L 131.121094 161.625 L 136.414063 145.078125 L 140.746094 130.421875 L 141.519531 128.945313 L 142.828125 127.394531 L 144.375 125.957031 L 146.308594 125.226563 L 149.582031 124.515625 L 153.546875 124.476563 L 164.796875 124.980469 L 211.191406 121.410156 L 243.605469 129.589844 L 244.644531 129.828125 L 245.871094 130.109375 L 247.300781 130.488281 L 248.277344 130.746094 L 249.164063 130.984375 L 259 133.601563 Z M 259 259 "/>
<path style=" stroke:none;fill-rule:evenodd;fill:rgb(94.901961%,93.72549%,91.372549%);fill-opacity:1;" d="M 259 -4 L -4 -4 L -4 259 L -4 -4 Z M 259 -4 "/>
<path style=" stroke:none;fill-rule:evenodd;fill:rgb(87.058824%,81.960784%,67.058824%);fill-opacity:1;" d="M 129.464844 200.691406 L 132.222656 203.886719 L 137.144531 199.636719 L 134.386719 196.441406 Z M 129.464844 200.691406 "/>
<path style=" stroke:none;fill-rule:evenodd;fill:rgb(60%,70.196078%,80%);fill-opacity:1;" d="M -4 259 L 52.671875 259 L 68.035156 239.832031 L 101.03125 198.925781 L 131.121094 161.625 L 136.414063 145.078125 L 140.746094 130.421875 L 141.523438 128.945313 L 142.828125 127.394531 L 144.375 125.957031 L 146.308594 125.226563 L 149.585938 124.515625 L 153.546875 124.476563 L 164.796875 124.980469 L 211.191406 121.410156 L 243.605469 129.589844 L 244.644531 129.828125 L 245.871094 130.109375 L 247.300781 130.488281 L 248.277344 130.746094 L 259 133.601563 L 259 259 L 259 -4 L 16.609375 -4 L -4 16.964844 Z M -4 259 "/>
<path style="fill:none;stroke-width:1;stroke-linecap:round;stroke-linejoin:round;stroke:rgb(70.196078%,77.647059%,83.137255%);stroke-opacity:1;stroke-miterlimit:10;" d="M -4 259 L 52.671875 259 L 68.035156 239.832031 L 101.03125 198.925781 L 131.121094 161.625 L 136.414063 145.078125 L 140.746094 130.421875 L 141.523438 128.945313 L 142.828125 127.394531 L 144.375 125.957031 L 146.308594 125.226563 L 149.585938 124.515625 L 153.546875 124.476563 L 164.796875 124.980469 L 211.191406 121.410156 L 243.605469 129.589844 L 244.644531 129.828125 L 245.871094 130.109375 L 247.300781 130.488281 L 248.277344 130.746094 L 259 133.601563 L 259 259 L 259 -4 L 16.609375 -4 L -4 16.964844 L -4 259 "/>
<path style=" stroke:none;fill-rule:evenodd;fill:rgb(60%,70.196078%,80%);fill-opacity:1;" d="M -4 259 L -4 16.964844 L 16.609375 -4 L -4 -4 Z M -8240539.863281 4966555.628906 Z M -8240539.863281 4967812.0625 Z M -8240539.863281 4967812.0625 "/>
<path style="fill:none;stroke-width:1;stroke-linecap:round;stroke-linejoin:round;stroke:rgb(70.196078%,77.647059%,83.137255%);stroke-opacity:1;stroke-miterlimit:10;" d="M -4 259 L -4 16.964844 L 16.609375 -4 L -4 -4 L -4 259 "/>
<path style="fill:none;stroke-width:1;stroke-linecap:round;stroke-linejoin:round;stroke:rgb(100%,100%,100%);stroke-opacity:1;stroke-dasharray:2,3;stroke-miterlimit:10;" d="M 216.710938 180.636719 L 222.855469 181.332031 "/>
<path style="fill:none;stroke-width:1;stroke-linecap:round;stroke-linejoin:round;stroke:rgb(100%,100%,100%);stroke-opacity:1;stroke-dasharray:2,3;stroke-miterlimit:10;" d="M 252.757813 184.914063 L 249.660156 184.515625 "/>
<path style="fill:none;stroke-width:1;stroke-linecap:round;stroke-linejoin:round;stroke:rgb(100%,100%,100%);stroke-opacity:1;stroke-dasharray:2,3;stroke-miterlimit:10;" d="M 229.285156 182.09375 L 229.992188 176.421875 "/>
<path style="fill:none;stroke-width:1;stroke-linecap:round;stroke-linejoin:round;stroke:rgb(100%,100%,100%);stroke-opacity:1;stroke-dasharray:2,3;stroke-miterlimit:10;" d="M 128.585938 231.335938 L 127.851563 229.175781 L 126.089844 226.011719 "/>
<path style="fill:none;stroke-width:1;stroke-linecap:round;stroke-linejoin:round;stroke:rgb(100%,100%,100%);stroke-opacity:1;stroke-dasharray:2,3;stroke-miterlimit:10;" d="M 229.191406 188.039063 L 229.886719 182.171875 "/>
<path style="fill:none;stroke-width:1;stroke-linecap:round;stroke-linejoin:round;stroke:rgb(100%,100%,100%);stroke-opacity:1;stroke-dasharray:2,3;stroke-miterlimit:10;" d="M 143.734375 227.429688 L 144.5 226.375 L 146.25 224.621094 L 148.5 222.628906 "/>
<path style="fill:none;stroke-width:1;stroke-linecap:round;stroke-linejoin:round;stroke:rgb(100%,100%,100%);stroke-opacity:1;stroke-dasharray:2,3;stroke-miterlimit:10;" d="M 201.621094 250.972656 L 195.929688 255.726563 "/>
<path style="fill:none;stroke-width:1;stroke-linecap:round;stroke-linejoin:round;stroke:rgb(100%,100%,100%);stroke-opacity:1;stroke-dasharray:2,3;stroke-miterlimit:10;" d="M 177.496094 193.875 L 169.203125 197.445313 "/>
<path style="fill:none;stroke-width:1;stroke-linecap:round;stroke-linejoin:round;stroke:rgb(100%,100%,100%);stroke-opacity:1;stroke-dasharray:2,3;stroke-miterlimit:10;" d="M 224.773438 175.8125 L 218.875 168.5 "/>
<path style="fill:none;stroke-width:1;stroke-linecap:round;stroke-linejoin:round;stroke:rgb(100%,100%,100%);stroke-opacity:1;stroke-dasharray:2,3;stroke-miterlimit:10;" d="M 235.027344 188.738281 L 240.8125 196.871094 "/>
<path style="fill:none;stroke-width:1;stroke-linecap:round;stroke-linejoin:round;stroke:rgb(100%,100%,100%);stroke-opacity:1;stroke-dasharray:2,3;stroke-miterlimit:10;" d="M 223.585938 187.476563 L 215.625 193.6875 "/>
<path style="fill:none;stroke-width:1;stroke-linecap:round;stroke-linejoin:round;stroke:rgb(100%,100%,100%);stroke-opacity:1;stroke-dasharray:2,3;stroke-miterlimit:10;" d="M 236.148438 177.1875 L 244.25 171.0625 "/>
<path style="fill:none;stroke-width:1;stroke-linecap:round;stroke-linejoin:round;stroke:rgb(100%,100%,100%);stroke-opacity:1;stroke-dasharray:2,3;stroke-miterlimit:10;" d="M 157.625 244.246094 L 160.960938 240.089844 L 162.828125 238.425781 L 164.113281 237.921875 L 165.945313 237.386719 "/>
<path style="fill:none;stroke-width:1;stroke-linecap:round;stroke-linejoin:round;stroke:rgb(100%,100%,100%);stroke-opacity:1;stroke-dasharray:2,3;stroke-miterlimit:10;" d="M 257 252.546875 L 252.117188 252.125 "/>
<path style="fill:none;stroke-width:1;stroke-linecap:round;stroke-linejoin:round;stroke:rgb(100%,100%,100%);stroke-opacity:1;stroke-dasharray:2,3;stroke-miterlimit:10;" d="M 201.609375 233.394531 L 195.871094 235.867188 L 186.746094 239.914063 "/>
<path style="fill:none;stroke-width:1;stroke-linecap:round;stroke-linejoin:round;stroke:rgb(100%,100%,100%);stroke-opacity:1;stroke-dasharray:2,3;stroke-miterlimit:10;" d="M 172.054688 204.945313 L 169.347656 223.566406 "/>
<path style="fill:none;stroke-width:1;stroke-linecap:round;stroke-linejoin:round;stroke:rgb(100%,100%,100%);stroke-opacity:1;stroke-dasharray:2,3;stroke-miterlimit:10;" d="M 222.855469 181.332031 L 224.195313 181.492188 L 229.285156 182.09375 L 235.597656 182.84375 L 242.800781 183.699219 "/>
<path style="fill:none;stroke-width:1;stroke-linecap:round;stroke-linejoin:round;stroke:rgb(100%,100%,100%);stroke-opacity:1;stroke-dasharray:2,3;stroke-miterlimit:10;" d="M 133.863281 246.367188 L 135.988281 247.429688 L 137.859375 248.117188 L 139.425781 248.992188 L 140.671875 249.992188 L 142.109375 250.679688 L 144.050781 251.367188 L 146.113281 251.242188 L 148.238281 250.804688 L 149.871094 250.183594 L 152.996094 248.0625 L 154.875 246.75 "/>
<path style="fill:none;stroke-width:1;stroke-linecap:round;stroke-linejoin:round;stroke:rgb(100%,100%,100%);stroke-opacity:1;stroke-dasharray:2,3;stroke-miterlimit:10;" d="M 133.25 228.414063 L 134.25 227 L 136.109375 224.554688 L 137.074219 223.617188 L 138.609375 222.679688 L 141 221.878906 L 142.8125 221.738281 L 144.625 221.878906 L 148.5 222.628906 L 151.246094 223.253906 L 153.914063 224.117188 "/>
<path style="fill:none;stroke-width:1;stroke-linecap:round;stroke-linejoin:round;stroke:rgb(100%,100%,100%);stroke-opacity:1;stroke-dasharray:2,3;stroke-miterlimit:10;" d="M 171.132813 257 L 172.863281 253.554688 L 173.164063 251.800781 L 173.179688 249.125 L 172.75 247.246094 L 171.953125 245.730469 L 170.875 244.5 L 167.375 241.871094 L 164.597656 239.75 L 162.828125 238.425781 L 159.75 236.121094 "/>
<path style="fill:none;stroke-width:1;stroke-linecap:round;stroke-linejoin:round;stroke:rgb(100%,100%,100%);stroke-opacity:1;stroke-dasharray:2,3;stroke-miterlimit:10;" d="M 107.648438 253.054688 L 109.613281 251.054688 L 111.921875 249.304688 L 114.050781 248.304688 L 116.988281 247.179688 L 120.296875 246.304688 L 123.550781 245.867188 L 126.609375 245.679688 L 130.613281 245.992188 L 133.863281 246.367188 L 137.738281 246.304688 L 141.550781 246.242188 L 147.804688 245.21875 "/>
<path style="fill:none;stroke-width:1;stroke-linecap:round;stroke-linejoin:round;stroke:rgb(100%,100%,100%);stroke-opacity:1;stroke-dasharray:2,3;stroke-miterlimit:10;" d="M 147.441406 257 L 149.773438 253.554688 L 152.808594 250.261719 L 155.5 248.066406 "/>
<path style="fill:none;stroke-width:1;stroke-linecap:round;stroke-linejoin:round;stroke:rgb(100%,100%,100%);stroke-opacity:1;stroke-dasharray:2,3;stroke-miterlimit:10;" d="M 111.660156 241.484375 L 115.238281 239.367188 L 117.613281 237.867188 L 119.675781 237.054688 L 121.800781 236.679688 L 123.988281 236.867188 L 126.296875 237.367188 L 128.671875 238.617188 L 130.859375 240.179688 L 133.175781 241.492188 L 136.359375 242.992188 L 138.363281 243.679688 L 141.550781 244.429688 L 145.546875 245.117188 L 147.804688 245.21875 L 151.75 245.371094 L 154.03125 245.546875 "/>
<path style="fill:none;stroke-width:1;stroke-linecap:round;stroke-linejoin:round;stroke:rgb(100%,100%,100%);stroke-opacity:1;stroke-dasharray:2,3;stroke-miterlimit:10;" d="M 224.773438 175.8125 L 224.195313 181.492188 L 223.585938 187.476563 L 229.191406 188.039063 L 235.027344 188.738281 L 235.597656 182.84375 L 236.148438 177.1875 L 229.992188 176.421875 L 224.773438 175.8125 "/>
<path style="fill:none;stroke-width:1;stroke-linecap:round;stroke-linejoin:round;stroke:rgb(100%,100%,100%);stroke-opacity:1;stroke-dasharray:2,3;stroke-miterlimit:10;" d="M 127.851563 229.175781 L 131.75 228.625 L 133.25 228.414063 L 136.25 227.996094 L 141.125 227.5 L 143.734375 227.429688 L 145.875 227.375 L 149.289063 227.675781 L 151 228.125 L 153.390625 229.078125 L 154.5 229.75 L 158.125 232.875 L 159.75 236.121094 L 159.757813 237.632813 L 159.625 239 L 158.75 241.625 L 157.625 244.246094 L 155.5 248.066406 "/>
<path style="fill:none;stroke-width:1;stroke-linecap:round;stroke-linejoin:round;stroke:rgb(100%,100%,100%);stroke-opacity:1;stroke-dasharray:2,3;stroke-miterlimit:10;" d="M 149.871094 250.183594 L 147.746094 252.183594 L 144.75 254.375 L 141.3125 256.683594 L 140.765625 257 "/>
<path style="fill:none;stroke-width:1;stroke-linecap:round;stroke-linejoin:round;stroke:rgb(100%,100%,100%);stroke-opacity:1;stroke-dasharray:2,3;stroke-miterlimit:10;" d="M 164.375 182.980469 L 171.496094 181 L 181.121094 177.617188 L 188.1875 175.996094 L 191.8125 175.621094 L 199.75 175.746094 L 205.0625 175.808594 L 206.875 176.25 L 208.25 177.375 L 209 178.183594 L 209.875 178.746094 L 211.125 179.277344 L 216.710938 180.636719 "/>
<path style="fill:none;stroke-width:1;stroke-linecap:round;stroke-linejoin:round;stroke:rgb(100%,100%,100%);stroke-opacity:1;stroke-dasharray:2,3;stroke-miterlimit:10;" d="M 117.398438 233.554688 L 126.089844 226.011719 L 128.5 224.121094 L 139.375 215.378906 L 140.882813 214.914063 L 142.175781 214.667969 L 143.464844 214.84375 L 145.25 215.378906 L 146.304688 216.042969 L 147.5 217.128906 L 153.914063 224.117188 L 157.246094 227.75 L 157.875 229.621094 L 158.125 232.875 "/>
<path style="fill:none;stroke-width:1;stroke-linecap:round;stroke-linejoin:round;stroke:rgb(100%,100%,100%);stroke-opacity:1;stroke-dasharray:2,3;stroke-miterlimit:10;" d="M 103.875 257 L 106.398438 254.304688 L 107.648438 253.054688 "/>
<path style="fill:none;stroke-width:1;stroke-linecap:round;stroke-linejoin:round;stroke:rgb(100%,100%,100%);stroke-opacity:1;stroke-dasharray:2,3;stroke-miterlimit:10;" d="M 171.496094 181 L 177.496094 193.875 L 185.371094 211.25 L 195.871094 235.867188 L 200.746094 248.496094 L 201.621094 250.972656 L 203.65625 257 "/>
<path style="fill:none;stroke-width:1;stroke-linecap:round;stroke-linejoin:round;stroke:rgb(100%,100%,100%);stroke-opacity:1;stroke-dasharray:2,3;stroke-miterlimit:10;" d="M 107.441406 257 L 107.648438 253.054688 L 108.773438 248.429688 L 111.148438 242.429688 L 111.660156 241.484375 L 113.648438 237.804688 L 117.398438 233.554688 L 122.023438 231.554688 L 123.875 230.929688 L 126.398438 230.804688 L 128.585938 231.335938 L 130.523438 231.804688 L 133.175781 232.855469 L 136.371094 234.125 L 141.875 236.496094 L 146.621094 238.871094 L 148.855469 240.265625 L 150.375 241.375 L 151.820313 242.667969 L 153.125 244.246094 L 154.03125 245.546875 L 154.875 246.75 L 155.5 248.066406 L 155.980469 249.730469 L 156.371094 251.75 L 157.246094 255.625 L 157.6875 257 "/>
<path style="fill:none;stroke-width:5;stroke-linecap:round;stroke-linejoin:round;stroke:rgb(75.686275%,70.980392%,61.568627%);stroke-opacity:1;stroke-miterlimit:10;" d="M 248.277344 130.746094 L 243.5 136.691406 "/>
<path style="fill:none;stroke-width:5;stroke-linecap:round;stroke-linejoin:round;stroke:rgb(75.686275%,70.980392%,61.568627%);stroke-opacity:1;stroke-miterlimit:10;" d="M 180.585938 226.25 L 174.867188 230.242188 L 172.761719 232.015625 "/>
<path style="fill:none;stroke-width:5;stroke-linecap:round;stroke-linejoin:round;stroke:rgb(75.686275%,70.980392%,61.568627%);stroke-opacity:1;stroke-miterlimit:10;" d="M 139.640625 190.828125 L 143.964844 191.425781 L 146.269531 191.539063 L 148.355469 191.320313 L 151.644531 190.523438 "/>
<path style="fill:none;stroke-width:5;stroke-linecap:round;stroke-linejoin:round;stroke:rgb(75.686275%,70.980392%,61.568627%);stroke-opacity:1;stroke-miterlimit:10;" d="M 175.507813 159.578125 L 170.152344 158.953125 L 167.179688 158.890625 L 162.234375 159.160156 "/>
<path style="fill:none;stroke-width:5;stroke-linecap:round;stroke-linejoin:round;stroke:rgb(75.686275%,70.980392%,61.568627%);stroke-opacity:1;stroke-miterlimit:10;" d="M 240.863281 147.632813 L 242.203125 142.242188 L 243.132813 138.464844 L 243.5 136.691406 L 244.644531 129.828125 "/>
<path style="fill:none;stroke-width:5;stroke-linecap:round;stroke-linejoin:round;stroke:rgb(75.686275%,70.980392%,61.568627%);stroke-opacity:1;stroke-miterlimit:10;" d="M 253.46875 183.796875 L 254.871094 182.9375 L 257.0625 182.875 L 259.433594 183.558594 L 260.722656 184.539063 L 260.875 185.84375 L 260.261719 187.167969 L 258.558594 187.9375 L 256.996094 187.9375 L 254.9375 187.433594 L 253.621094 186.625 L 252.757813 184.914063 L 253.46875 183.796875 "/>
<path style="fill:none;stroke-width:5;stroke-linecap:round;stroke-linejoin:round;stroke:rgb(75.686275%,70.980392%,61.568627%);stroke-opacity:1;stroke-miterlimit:10;" d="M 177.75 141.285156 L 175.601563 158.519531 L 175.507813 159.578125 L 174.929688 167.203125 "/>
<path style="fill:none;stroke-width:5;stroke-linecap:round;stroke-linejoin:round;stroke:rgb(75.686275%,70.980392%,61.568627%);stroke-opacity:1;stroke-miterlimit:10;" d="M 109.683594 204.972656 L 132.554688 184.941406 "/>
<path style="fill:none;stroke-width:5;stroke-linecap:round;stroke-linejoin:round;stroke:rgb(75.686275%,70.980392%,61.568627%);stroke-opacity:1;stroke-miterlimit:10;" d="M 104.25 198.5625 L 109.683594 204.972656 L 120.101563 217.269531 L 120.71875 218.085938 L 123.847656 222.226563 L 126.089844 226.011719 "/>
<path style="fill:none;stroke-width:5;stroke-linecap:round;stroke-linejoin:round;stroke:rgb(75.686275%,70.980392%,61.568627%);stroke-opacity:1;stroke-miterlimit:10;" d="M 252.144531 261 L 251.832031 259.1875 L 252.117188 252.125 L 255.28125 220.929688 "/>
<path style="fill:none;stroke-width:5;stroke-linecap:round;stroke-linejoin:round;stroke:rgb(75.686275%,70.980392%,61.568627%);stroke-opacity:1;stroke-miterlimit:10;" d="M 162.613281 167.113281 L 160.316406 177.546875 L 159.328125 181.714844 L 158.507813 183.859375 L 157.792969 184.953125 L 155.875 186.710938 L 151.644531 190.523438 L 145.5 196.070313 L 120.71875 218.085938 "/>
<path style="fill:none;stroke-width:5;stroke-linecap:round;stroke-linejoin:round;stroke:rgb(75.686275%,70.980392%,61.568627%);stroke-opacity:1;stroke-miterlimit:10;" d="M 261 142.261719 L 259.105469 142.246094 L 256.929688 142 L 243.132813 138.464844 "/>
<path style="fill:none;stroke-width:5;stroke-linecap:round;stroke-linejoin:round;stroke:rgb(75.686275%,70.980392%,61.568627%);stroke-opacity:1;stroke-miterlimit:10;" d="M 104.25 198.5625 L 78.117188 230.894531 L 54.820313 261 "/>
<path style="fill:none;stroke-width:5;stroke-linecap:round;stroke-linejoin:round;stroke:rgb(75.686275%,70.980392%,61.568627%);stroke-opacity:1;stroke-miterlimit:10;" d="M 162.507813 140.636719 L 165.757813 140.632813 L 172.507813 140.878906 L 177.75 141.285156 L 212.675781 143.972656 L 221.371094 144.71875 L 236.507813 146.574219 L 238.734375 146.976563 L 240.863281 147.632813 L 244.058594 148.617188 L 247.773438 150.039063 L 253.40625 152.332031 L 255.445313 153.507813 L 257.859375 155.917969 L 259.40625 158.585938 L 260.460938 161.429688 L 260.953125 164.523438 L 261 165.300781 "/>
<path style="fill:none;stroke-width:5;stroke-linecap:round;stroke-linejoin:round;stroke:rgb(75.686275%,70.980392%,61.568627%);stroke-opacity:1;stroke-miterlimit:10;" d="M 163.839844 126.308594 L 162.507813 140.636719 L 161.859375 147.378906 L 161.699219 150.160156 L 161.734375 152.144531 L 162.046875 156.851563 L 162.234375 159.160156 L 162.613281 167.113281 L 163.652344 177.398438 L 163.992188 181.144531 L 164.375 182.980469 L 164.953125 185.753906 L 167.492188 192.9375 L 169.203125 197.445313 L 172.054688 204.945313 L 177.820313 220.113281 L 180.585938 226.25 L 186.746094 239.914063 L 191.398438 250.238281 "/>
<path style="fill:none;stroke-width:5;stroke-linecap:round;stroke-linejoin:round;stroke:rgb(75.686275%,70.980392%,61.568627%);stroke-opacity:1;stroke-miterlimit:10;" d="M 212.976563 261 L 204.667969 237.40625 L 204 236.152344 L 202.410156 234.480469 L 201.609375 233.394531 L 200.320313 230.804688 L 187.792969 200.441406 L 187.441406 198.097656 L 187.742188 195.417969 L 187.34375 192.511719 L 179.316406 173.296875 L 177.824219 171.011719 L 175.902344 168.671875 L 174.929688 167.203125 L 167.289063 167.082031 L 162.613281 167.113281 "/>
<path style="fill:none;stroke-width:5;stroke-linecap:round;stroke-linejoin:round;stroke:rgb(75.686275%,70.980392%,61.568627%);stroke-opacity:1;stroke-miterlimit:10;" d="M 121.796875 176.457031 L 128.933594 182.046875 L 132.171875 184.625 L 139.640625 190.828125 L 142.210938 192.964844 L 145.5 196.070313 L 150.222656 201.195313 L 169.347656 223.566406 L 174.867188 230.242188 L 191.398438 250.238281 L 195.929688 255.726563 L 200.828125 261 "/>
<path style="fill:none;stroke-width:5;stroke-linecap:round;stroke-linejoin:round;stroke:rgb(75.686275%,70.980392%,61.568627%);stroke-opacity:1;stroke-miterlimit:10;" d="M 104.25 198.5625 L 121.796875 176.457031 L 124.765625 172.722656 L 131.457031 163.777344 L 132.664063 161.800781 L 133.101563 160.648438 L 135.355469 153.957031 L 138.648438 143.296875 L 141.621094 133.824219 L 142.734375 130.855469 L 143.414063 129.695313 L 144.28125 128.5625 L 145.148438 127.820313 L 147.066406 126.828125 L 149.480469 126.148438 L 151.398438 125.902344 L 154.617188 125.902344 L 162.539063 126.332031 L 163.839844 126.308594 L 165.757813 126.273438 L 181.109375 125.09375 L 199.925781 123.425781 L 201.660156 123.363281 L 203.390625 123.859375 L 205.683594 125.59375 L 206.671875 127.015625 L 207.355469 129.738281 L 207.972656 131.347656 L 208.835938 132.585938 L 209.828125 132.894531 L 240.128906 137.167969 L 243.132813 138.464844 "/>
<path style="fill:none;stroke-width:3;stroke-linecap:round;stroke-linejoin:round;stroke:rgb(98.039216%,98.039216%,96.078431%);stroke-opacity:1;stroke-miterlimit:10;" d="M 248.277344 130.746094 L 243.5 136.691406 "/>
<path style="fill:none;stroke-width:3;stroke-linecap:round;stroke-linejoin:round;stroke:rgb(98.039216%,98.039216%,96.078431%);stroke-opacity:1;stroke-miterlimit:10;" d="M 180.585938 226.25 L 174.867188 230.242188 L 172.761719 232.015625 "/>
<path style="fill:none;stroke-width:3;stroke-linecap:round;stroke-linejoin:round;stroke:rgb(98.039216%,98.039216%,96.078431%);stroke-opacity:1;stroke-miterlimit:10;" d="M 139.640625 190.828125 L 143.964844 191.425781 L 146.269531 191.539063 L 148.355469 191.320313 L 151.644531 190.523438 "/>
<path style="fill:none;stroke-width:3;stroke-linecap:round;stroke-linejoin:round;stroke:rgb(98.039216%,98.039216%,96.078431%);stroke-opacity:1;stroke-miterlimit:10;" d="M 175.507813 159.578125 L 170.152344 158.953125 L 167.179688 158.890625 L 162.234375 159.160156 "/>
<path style="fill:none;stroke-width:3;stroke-linecap:round;stroke-linejoin:round;stroke:rgb(98.039216%,98.039216%,96.078431%);stroke-opacity:1;stroke-miterlimit:10;" d="M 240.863281 147.632813 L 242.203125 142.242188 L 243.132813 138.464844 L 243.5 136.691406 L 244.644531 129.828125 "/>
<path style="fill:none;stroke-width:3;stroke-linecap:round;stroke-linejoin:round;stroke:rgb(98.039216%,98.039216%,96.078431%);stroke-opacity:1;stroke-miterlimit:10;" d="M 253.46875 183.796875 L 254.871094 182.9375 L 257.0625 182.875 L 259.433594 183.558594 L 260.722656 184.539063 L 260.875 185.84375 L 260.261719 187.167969 L 258.558594 187.9375 L 256.996094 187.9375 L 254.9375 187.433594 L 253.621094 186.625 L 252.757813 184.914063 L 253.46875 183.796875 "/>
<path style="fill:none;stroke-width:3;stroke-linecap:round;stroke-linejoin:round;stroke:rgb(98.039216%,98.039216%,96.078431%);stroke-opacity:1;stroke-miterlimit:10;" d="M 177.75 141.285156 L 175.601563 158.519531 L 175.507813 159.578125 L 174.929688 167.203125 "/>
<path style="fill:none;stroke-width:3;stroke-linecap:round;stroke-linejoin:round;stroke:rgb(98.039216%,98.039216%,96.078431%);stroke-opacity:1;stroke-miterlimit:10;" d="M 109.683594 204.972656 L 132.554688 184.941406 "/>
<path style="fill:none;stroke-width:3;stroke-linecap:round;stroke-linejoin:round;stroke:rgb(98.039216%,98.039216%,96.078431%);stroke-opacity:1;stroke-miterlimit:10;" d="M 104.25 198.5625 L 109.683594 204.972656 L 120.101563 217.269531 L 120.71875 218.085938 L 123.847656 222.226563 L 126.089844 226.011719 "/>
<path style="fill:none;stroke-width:3;stroke-linecap:round;stroke-linejoin:round;stroke:rgb(98.039216%,98.039216%,96.078431%);stroke-opacity:1;stroke-miterlimit:10;" d="M 252.144531 261 L 251.832031 259.1875 L 252.117188 252.125 L 255.28125 220.929688 "/>
<path style="fill:none;stroke-width:3;stroke-linecap:round;stroke-linejoin:round;stroke:rgb(98.039216%,98.039216%,96.078431%);stroke-opacity:1;stroke-miterlimit:10;" d="M 162.613281 167.113281 L 160.316406 177.546875 L 159.328125 181.714844 L 158.507813 183.859375 L 157.792969 184.953125 L 155.875 186.710938 L 151.644531 190.523438 L 145.5 196.070313 L 120.71875 218.085938 "/>
<path style="fill:none;stroke-width:3;stroke-linecap:round;stroke-linejoin:round;stroke:rgb(98.039216%,98.039216%,96.078431%);stroke-opacity:1;stroke-miterlimit:10;" d="M 261 142.261719 L 259.105469 142.246094 L 256.929688 142 L 243.132813 138.464844 "/>
<path style="fill:none;stroke-width:3;stroke-linecap:round;stroke-linejoin:round;stroke:rgb(98.039216%,98.039216%,96.078431%);stroke-opacity:1;stroke-miterlimit:10;" d="M 104.25 198.5625 L 78.117188 230.894531 L 54.820313 261 "/>
<path style="fill:none;stroke-width:3;stroke-linecap:round;stroke-linejoin:round;stroke:rgb(98.039216%,98.039216%,96.078431%);stroke-opacity:1;stroke-miterlimit:10;" d="M 162.507813 140.636719 L 165.757813 140.632813 L 172.507813 140.878906 L 177.75 141.285156 L 212.675781 143.972656 L 221.371094 144.71875 L 236.507813 146.574219 L 238.734375 146.976563 L 240.863281 147.632813 L 244.058594 148.617188 L 247.773438 150.039063 L 253.40625 152.332031 L 255.445313 153.507813 L 257.859375 155.917969 L 259.40625 158.585938 L 260.460938 161.429688 L 260.953125 164.523438 L 261 165.300781 "/>
<path style="fill:none;stroke-width:3;stroke-linecap:round;stroke-linejoin:round;stroke:rgb(98.039216%,98.039216%,96.078431%);stroke-opacity:1;stroke-miterlimit:10;" d="M 163.839844 126.308594 L 162.507813 140.636719 L 161.859375 147.378906 L 161.699219 150.160156 L 161.734375 152.144531 L 162.046875 156.851563 L 162.234375 159.160156 L 162.613281 167.113281 L 163.652344 177.398438 L 163.992188 181.144531 L 164.375 182.980469 L 164.953125 185.753906 L 167.492188 192.9375 L 169.203125 197.445313 L 172.054688 204.945313 L 177.820313 220.113281 L 180.585938 226.25 L 186.746094 239.914063 L 191.398438 250.238281 "/>
<path style="fill:none;stroke-width:3;stroke-linecap:round;stroke-linejoin:round;stroke:rgb(98.039216%,98.039216%,96.078431%);stroke-opacity:1;stroke-miterlimit:10;" d="M 212.976563 261 L 204.667969 237.40625 L 204 236.152344 L 202.410156 234.480469 L 201.609375 233.394531 L 200.320313 230.804688 L 187.792969 200.441406 L 187.441406 198.097656 L 187.742188 195.417969 L 187.34375 192.511719 L 179.316406 173.296875 L 177.824219 171.011719 L 175.902344 168.671875 L 174.929688 167.203125 L 167.289063 167.082031 L 162.613281 167.113281 "/>
<path style="fill:none;stroke-width:3;stroke-linecap:round;stroke-linejoin:round;stroke:rgb(98.039216%,98.039216%,96.078431%);stroke-opacity:1;stroke-miterlimit:10;" d="M 121.796875 176.457031 L 128.933594 182.046875 L 132.171875 184.625 L 139.640625 190.828125 L 142.210938 192.964844 L 145.5 196.070313 L 150.222656 201.195313 L 169.347656 223.566406 L 174.867188 230.242188 L 191.398438 250.238281 L 195.929688 255.726563 L 200.828125 261 "/>
<path style="fill:none;stroke-width:3;stroke-linecap:round;stroke-linejoin:round;stroke:rgb(98.039216%,98.039216%,96.078431%);stroke-opacity:1;stroke-miterlimit:10;" d="M 104.25 198.5625 L 121.796875 176.457031 L 124.765625 172.722656 L 131.457031 163.777344 L 132.664063 161.800781 L 133.101563 160.648438 L 135.355469 153.957031 L 138.648438 143.296875 L 141.621094 133.824219 L 142.734375 130.855469 L 143.414063 129.695313 L 144.28125 128.5625 L 145.148438 127.820313 L 147.066406 126.828125 L 149.480469 126.148438 L 151.398438 125.902344 L 154.617188 125.902344 L 162.539063 126.332031 L 163.839844 126.308594 L 165.757813 126.273438 L 181.109375 125.09375 L 199.925781 123.425781 L 201.660156 123.363281 L 203.390625 123.859375 L 205.683594 125.59375 L 206.671875 127.015625 L 207.355469 129.738281 L 207.972656 131.347656 L 208.835938 132.585938 L 209.828125 132.894531 L 240.128906 137.167969 L 243.132813 138.464844 "/>
<path style="fill:none;stroke-width:5;stroke-linecap:butt;stroke-linejoin:round;stroke:rgb(53.333333%,53.333333%,53.333333%);stroke-opacity:1;stroke-miterlimit:10;" d="M 249.660156 184.515625 L 242.800781 183.699219 "/>
<path style="fill:none;stroke-width:3;stroke-linecap:round;stroke-linejoin:round;stroke:rgb(98.039216%,98.039216%,96.078431%);stroke-opacity:1;stroke-miterlimit:10;" d="M 249.660156 184.515625 L 242.800781 183.699219 "/>
<path style="fill:none;stroke-width:3;stroke-linecap:round;stroke-linejoin:round;stroke:rgb(100%,100%,100%);stroke-opacity:1;stroke-miterlimit:10;" d="M 186.128906 180.78125 L 185.066406 181.234375 C 185.261719 180.796875 185.367188 180.375 185.378906 179.96875 C 185.386719 179.5625 185.308594 179.171875 185.144531 178.796875 C 184.832031 178.035156 184.332031 177.558594 183.644531 177.359375 C 182.957031 177.164063 182.121094 177.265625 181.144531 177.671875 C 180.175781 178.078125 179.511719 178.59375 179.160156 179.21875 C 178.816406 179.851563 178.800781 180.550781 179.113281 181.3125 C 179.277344 181.6875 179.507813 182.015625 179.800781 182.296875 C 180.101563 182.578125 180.472656 182.800781 180.910156 182.96875 L 179.878906 183.40625 C 179.511719 183.1875 179.195313 182.925781 178.925781 182.625 C 178.652344 182.332031 178.441406 181.988281 178.285156 181.59375 C 177.855469 180.582031 177.867188 179.644531 178.316406 178.78125 C 178.761719 177.914063 179.574219 177.234375 180.753906 176.734375 C 181.949219 176.246094 183.011719 176.148438 183.941406 176.4375 C 184.867188 176.71875 185.542969 177.367188 185.972656 178.375 C 186.136719 178.78125 186.230469 179.179688 186.253906 179.578125 C 186.285156 179.984375 186.242188 180.382813 186.128906 180.78125 Z M 185.605469 184.886719 C 185.417969 184.449219 185.078125 184.183594 184.589844 184.089844 C 184.097656 183.988281 183.519531 184.074219 182.855469 184.355469 C 182.1875 184.636719 181.71875 184.980469 181.449219 185.386719 C 181.175781 185.800781 181.136719 186.230469 181.324219 186.667969 C 181.5 187.105469 181.828125 187.371094 182.308594 187.464844 C 182.796875 187.566406 183.375 187.480469 184.042969 187.199219 C 184.707031 186.917969 185.175781 186.566406 185.449219 186.152344 C 185.730469 185.746094 185.78125 185.324219 185.605469 184.886719 Z M 186.371094 184.558594 C 186.660156 185.265625 186.636719 185.933594 186.292969 186.558594 C 185.949219 187.183594 185.316406 187.6875 184.402344 188.074219 C 183.496094 188.449219 182.699219 188.535156 182.011719 188.339844 C 181.324219 188.152344 180.832031 187.703125 180.542969 186.996094 C 180.238281 186.277344 180.261719 185.605469 180.605469 184.980469 C 180.949219 184.355469 181.574219 183.855469 182.480469 183.480469 C 183.394531 183.097656 184.199219 183.003906 184.886719 183.199219 C 185.574219 183.386719 186.066406 183.839844 186.371094 184.558594 Z M 187.449219 193.03125 C 187.9375 193.15625 188.3125 193.34375 188.574219 193.59375 C 188.84375 193.851563 189.027344 194.1875 189.121094 194.59375 C 189.234375 195.15625 189.109375 195.628906 188.746094 196.015625 C 188.378906 196.398438 187.800781 196.675781 187.011719 196.84375 L 183.464844 197.609375 L 183.277344 196.75 L 186.792969 196 C 187.363281 195.875 187.765625 195.691406 187.996094 195.453125 C 188.222656 195.210938 188.296875 194.910156 188.214844 194.546875 C 188.121094 194.097656 187.878906 193.773438 187.496094 193.578125 C 187.109375 193.378906 186.628906 193.34375 186.058594 193.46875 L 182.730469 194.1875 L 182.542969 193.328125 L 186.058594 192.578125 C 186.628906 192.453125 187.03125 192.269531 187.261719 192.03125 C 187.488281 191.789063 187.5625 191.484375 187.480469 191.109375 C 187.386719 190.660156 187.144531 190.335938 186.761719 190.140625 C 186.375 189.953125 185.894531 189.921875 185.324219 190.046875 L 181.996094 190.765625 L 181.808594 189.890625 L 187.683594 188.625 L 187.871094 189.5 L 186.964844 189.703125 C 187.371094 189.816406 187.6875 189.992188 187.917969 190.234375 C 188.144531 190.484375 188.296875 190.796875 188.371094 191.171875 C 188.453125 191.554688 188.417969 191.90625 188.261719 192.21875 C 188.113281 192.539063 187.84375 192.8125 187.449219 193.03125 Z M 192.316406 200.503906 L 191.488281 200.613281 L 191.378906 199.785156 C 191.335938 199.460938 191.238281 199.242188 191.082031 199.128906 C 190.925781 199.023438 190.664063 198.996094 190.300781 199.050781 L 189.769531 199.113281 L 189.957031 200.566406 L 189.191406 200.660156 L 189.003906 199.207031 L 183.800781 199.878906 L 183.691406 198.988281 L 188.894531 198.316406 L 188.785156 197.472656 L 189.550781 197.378906 L 189.660156 198.222656 L 190.082031 198.160156 C 190.738281 198.074219 191.238281 198.152344 191.582031 198.394531 C 191.925781 198.644531 192.132813 199.070313 192.207031 199.675781 Z M 190.335938 203.125 C 190.148438 202.6875 189.808594 202.421875 189.320313 202.328125 C 188.828125 202.226563 188.25 202.3125 187.585938 202.59375 C 186.929688 202.863281 186.460938 203.203125 186.179688 203.609375 C 185.90625 204.023438 185.867188 204.453125 186.054688 204.890625 C 186.242188 205.335938 186.574219 205.609375 187.054688 205.703125 C 187.542969 205.804688 188.117188 205.722656 188.773438 205.453125 C 189.4375 205.171875 189.914063 204.820313 190.195313 204.40625 C 190.476563 204 190.523438 203.570313 190.335938 203.125 Z M 191.101563 202.8125 C 191.390625 203.53125 191.367188 204.195313 191.023438 204.8125 C 190.679688 205.4375 190.046875 205.9375 189.132813 206.3125 C 188.234375 206.6875 187.4375 206.773438 186.742188 206.578125 C 186.054688 206.390625 185.5625 205.9375 185.273438 205.21875 C 184.96875 204.5 184.996094 203.828125 185.351563 203.203125 C 185.703125 202.585938 186.328125 202.09375 187.226563 201.71875 C 188.140625 201.34375 188.9375 201.257813 189.617188 201.453125 C 190.304688 201.640625 190.796875 202.09375 191.101563 202.8125 Z M 192.832031 209.777344 C 192.851563 209.652344 192.851563 209.527344 192.832031 209.402344 C 192.808594 209.285156 192.773438 209.167969 192.722656 209.042969 C 192.523438 208.5625 192.207031 208.269531 191.769531 208.167969 C 191.339844 208.0625 190.816406 208.140625 190.191406 208.402344 L 187.253906 209.605469 L 186.910156 208.777344 L 192.472656 206.480469 L 192.816406 207.308594 L 191.941406 207.667969 C 192.355469 207.710938 192.699219 207.835938 192.972656 208.042969 C 193.242188 208.25 193.460938 208.550781 193.628906 208.949219 C 193.648438 209 193.667969 209.0625 193.691406 209.136719 C 193.722656 209.207031 193.742188 209.285156 193.753906 209.371094 Z M 195.941406 210.441406 L 194.363281 211.082031 L 195.066406 212.769531 L 194.363281 213.066406 L 193.660156 211.378906 L 190.628906 212.628906 C 190.179688 212.804688 189.914063 212.976563 189.832031 213.144531 C 189.746094 213.308594 189.777344 213.570313 189.925781 213.925781 L 190.269531 214.753906 L 189.503906 215.066406 L 189.160156 214.238281 C 188.898438 213.601563 188.847656 213.105469 189.003906 212.753906 C 189.167969 212.410156 189.597656 212.097656 190.285156 211.816406 L 193.316406 210.566406 L 193.066406 209.957031 L 193.769531 209.660156 L 194.019531 210.269531 L 195.597656 209.628906 Z M 195.945313 220.816406 C 195.945313 221.035156 195.859375 221.285156 195.695313 221.566406 C 195.539063 221.847656 195.289063 222.175781 194.945313 222.550781 L 193.304688 224.285156 L 192.898438 223.316406 L 194.460938 221.691406 C 194.855469 221.253906 195.09375 220.898438 195.179688 220.628906 C 195.261719 220.355469 195.230469 220.039063 195.085938 219.675781 L 194.679688 218.707031 L 191.539063 220.003906 L 191.164063 219.082031 L 198.570313 216.019531 L 199.398438 218.066406 C 199.71875 218.835938 199.78125 219.476563 199.585938 219.988281 C 199.386719 220.507813 198.921875 220.917969 198.195313 221.222656 C 197.734375 221.410156 197.3125 221.472656 196.929688 221.410156 C 196.542969 221.347656 196.214844 221.148438 195.945313 220.816406 Z M 198.132813 217.285156 L 195.492188 218.378906 L 195.945313 219.503906 C 196.132813 219.941406 196.382813 220.222656 196.695313 220.347656 C 197.007813 220.480469 197.375 220.460938 197.804688 220.285156 C 198.242188 220.105469 198.527344 219.855469 198.664063 219.535156 C 198.796875 219.222656 198.773438 218.847656 198.585938 218.410156 Z M 199.488281 225.3125 C 199.300781 224.875 198.960938 224.609375 198.472656 224.515625 C 197.980469 224.414063 197.402344 224.5 196.738281 224.78125 C 196.082031 225.050781 195.613281 225.390625 195.332031 225.796875 C 195.058594 226.210938 195.019531 226.640625 195.207031 227.078125 C 195.394531 227.523438 195.726563 227.796875 196.207031 227.890625 C 196.695313 227.992188 197.269531 227.910156 197.925781 227.640625 C 198.589844 227.359375 199.066406 227.007813 199.347656 226.59375 C 199.628906 226.1875 199.675781 225.757813 199.488281 225.3125 Z M 200.253906 225 C 200.542969 225.71875 200.519531 226.382813 200.175781 227 C 199.832031 227.625 199.199219 228.125 198.285156 228.5 C 197.386719 228.875 196.589844 228.960938 195.894531 228.765625 C 195.207031 228.578125 194.714844 228.125 194.425781 227.40625 C 194.121094 226.6875 194.148438 226.015625 194.503906 225.390625 C 194.855469 224.773438 195.480469 224.28125 196.378906 223.90625 C 197.292969 223.53125 198.089844 223.445313 198.769531 223.640625 C 199.457031 223.828125 199.949219 224.28125 200.253906 225 Z M 200.042969 232.078125 C 199.71875 231.429688 199.410156 231.023438 199.121094 230.859375 C 198.839844 230.691406 198.5 230.707031 198.105469 230.90625 C 197.792969 231.050781 197.589844 231.265625 197.496094 231.546875 C 197.410156 231.828125 197.449219 232.128906 197.605469 232.453125 C 197.824219 232.898438 198.171875 233.171875 198.652344 233.265625 C 199.128906 233.359375 199.65625 233.265625 200.230469 232.984375 L 200.433594 232.875 Z M 201.183594 233.5 L 198.105469 235.015625 L 197.714844 234.21875 L 198.527344 233.8125 C 198.109375 233.789063 197.753906 233.679688 197.464844 233.484375 C 197.171875 233.285156 196.933594 232.988281 196.746094 232.59375 C 196.503906 232.101563 196.464844 231.632813 196.621094 231.1875 C 196.785156 230.738281 197.136719 230.390625 197.667969 230.140625 C 198.269531 229.839844 198.8125 229.796875 199.292969 230.015625 C 199.78125 230.226563 200.207031 230.691406 200.574219 231.421875 L 201.121094 232.546875 L 201.199219 232.5 C 201.613281 232.300781 201.875 232.023438 201.980469 231.671875 C 202.082031 231.316406 202.027344 230.921875 201.808594 230.484375 C 201.671875 230.214844 201.5 229.964844 201.292969 229.734375 C 201.09375 229.507813 200.859375 229.308594 200.589844 229.140625 L 201.402344 228.734375 C 201.683594 228.964844 201.921875 229.199219 202.121094 229.4375 C 202.316406 229.679688 202.480469 229.929688 202.605469 230.1875 C 202.949219 230.894531 203 231.519531 202.761719 232.0625 C 202.53125 232.613281 202.003906 233.09375 201.183594 233.5 Z M 205.382813 237.28125 L 208.148438 235.578125 L 208.617188 236.328125 L 201.507813 240.71875 L 201.039063 239.96875 L 201.804688 239.5 C 201.40625 239.53125 201.058594 239.46875 200.757813 239.3125 C 200.453125 239.15625 200.199219 238.910156 199.992188 238.578125 C 199.648438 238.015625 199.609375 237.40625 199.882813 236.75 C 200.164063 236.105469 200.703125 235.53125 201.507813 235.03125 C 202.320313 234.53125 203.078125 234.308594 203.789063 234.359375 C 204.496094 234.402344 205.023438 234.703125 205.367188 235.265625 C 205.574219 235.601563 205.679688 235.933594 205.679688 236.265625 C 205.6875 236.597656 205.589844 236.9375 205.382813 237.28125 Z M 201.992188 235.8125 C 201.375 236.195313 200.964844 236.609375 200.757813 237.046875 C 200.546875 237.484375 200.570313 237.90625 200.820313 238.3125 C 201.070313 238.71875 201.4375 238.925781 201.929688 238.9375 C 202.417969 238.957031 202.96875 238.773438 203.585938 238.390625 C 204.210938 238.003906 204.625 237.585938 204.835938 237.140625 C 205.042969 236.703125 205.023438 236.28125 204.773438 235.875 C 204.523438 235.46875 204.152344 235.261719 203.664063 235.25 C 203.171875 235.242188 202.617188 235.429688 201.992188 235.8125 Z M 201.992188 235.8125 "/>
<path style=" stroke:none;fill-rule:evenodd;fill:rgb(20%,20%,20%);fill-opacity:1;" d="M 186.128906 180.78125 L 185.066406 181.234375 C 185.261719 180.796875 185.367188 180.375 185.378906 179.96875 C 185.386719 179.5625 185.308594 179.171875 185.144531 178.796875 C 184.832031 178.035156 184.332031 177.558594 183.644531 177.359375 C 182.957031 177.164063 182.121094 177.265625 181.144531 177.671875 C 180.175781 178.078125 179.511719 178.59375 179.160156 179.21875 C 178.816406 179.851563 178.800781 180.550781 179.113281 181.3125 C 179.277344 181.6875 179.507813 182.015625 179.800781 182.296875 C 180.101563 182.578125 180.472656 182.800781 180.910156 182.96875 L 179.878906 183.40625 C 179.511719 183.1875 179.195313 182.925781 178.925781 182.625 C 178.652344 182.332031 178.441406 181.988281 178.285156 181.59375 C 177.855469 180.582031 177.867188 179.644531 178.316406 178.78125 C 178.761719 177.914063 179.574219 177.234375 180.753906 176.734375 C 181.949219 176.246094 183.011719 176.148438 183.941406 176.4375 C 184.867188 176.71875 185.542969 177.367188 185.972656 178.375 C 186.136719 178.78125 186.230469 179.179688 186.253906 179.578125 C 186.285156 179.984375 186.242188 180.382813 186.128906 180.78125 Z M 185.605469 184.886719 C 185.417969 184.449219 185.078125 184.183594 184.589844 184.089844 C 184.097656 183.988281 183.519531 184.074219 182.855469 184.355469 C 182.1875 184.636719 181.71875 184.980469 181.449219 185.386719 C 181.175781 185.800781 181.136719 186.230469 181.324219 186.667969 C 181.5 187.105469 181.828125 187.371094 182.308594 187.464844 C 182.796875 187.566406 183.375 187.480469 184.042969 187.199219 C 184.707031 186.917969 185.175781 186.566406 185.449219 186.152344 C 185.730469 185.746094 185.78125 185.324219 185.605469 184.886719 Z M 186.371094 184.558594 C 186.660156 185.265625 186.636719 185.933594 186.292969 186.558594 C 185.949219 187.183594 185.316406 187.6875 184.402344 188.074219 C 183.496094 188.449219 182.699219 188.535156 182.011719 188.339844 C 181.324219 188.152344 180.832031 187.703125 180.542969 186.996094 C 180.238281 186.277344 180.261719 185.605469 180.605469 184.980469 C 180.949219 184.355469 181.574219 183.855469 182.480469 183.480469 C 183.394531 183.097656 184.199219 183.003906 184.886719 183.199219 C 185.574219 183.386719 186.066406 183.839844 186.371094 184.558594 Z M 187.449219 193.03125 C 187.9375 193.15625 188.3125 193.34375 188.574219 193.59375 C 188.84375 193.851563 189.027344 194.1875 189.121094 194.59375 C 189.234375 195.15625 189.109375 195.628906 188.746094 196.015625 C 188.378906 196.398438 187.800781 196.675781 187.011719 196.84375 L 183.464844 197.609375 L 183.277344 196.75 L 186.792969 196 C 187.363281 195.875 187.765625 195.691406 187.996094 195.453125 C 188.222656 195.210938 188.296875 194.910156 188.214844 194.546875 C 188.121094 194.097656 187.878906 193.773438 187.496094 193.578125 C 187.109375 193.378906 186.628906 193.34375 186.058594 193.46875 L 182.730469 194.1875 L 182.542969 193.328125 L 186.058594 192.578125 C 186.628906 192.453125 187.03125 192.269531 187.261719 192.03125 C 187.488281 191.789063 187.5625 191.484375 187.480469 191.109375 C 187.386719 190.660156 187.144531 190.335938 186.761719 190.140625 C 186.375 189.953125 185.894531 189.921875 185.324219 190.046875 L 181.996094 190.765625 L 181.808594 189.890625 L 187.683594 188.625 L 187.871094 189.5 L 186.964844 189.703125 C 187.371094 189.816406 187.6875 189.992188 187.917969 190.234375 C 188.144531 190.484375 188.296875 190.796875 188.371094 191.171875 C 188.453125 191.554688 188.417969 191.90625 188.261719 192.21875 C 188.113281 192.539063 187.84375 192.8125 187.449219 193.03125 Z M 192.316406 200.503906 L 191.488281 200.613281 L 191.378906 199.785156 C 191.335938 199.460938 191.238281 199.242188 191.082031 199.128906 C 190.925781 199.023438 190.664063 198.996094 190.300781 199.050781 L 189.769531 199.113281 L 189.957031 200.566406 L 189.191406 200.660156 L 189.003906 199.207031 L 183.800781 199.878906 L 183.691406 198.988281 L 188.894531 198.316406 L 188.785156 197.472656 L 189.550781 197.378906 L 189.660156 198.222656 L 190.082031 198.160156 C 190.738281 198.074219 191.238281 198.152344 191.582031 198.394531 C 191.925781 198.644531 192.132813 199.070313 192.207031 199.675781 Z M 190.335938 203.125 C 190.148438 202.6875 189.808594 202.421875 189.320313 202.328125 C 188.828125 202.226563 188.25 202.3125 187.585938 202.59375 C 186.929688 202.863281 186.460938 203.203125 186.179688 203.609375 C 185.90625 204.023438 185.867188 204.453125 186.054688 204.890625 C 186.242188 205.335938 186.574219 205.609375 187.054688 205.703125 C 187.542969 205.804688 188.117188 205.722656 188.773438 205.453125 C 189.4375 205.171875 189.914063 204.820313 190.195313 204.40625 C 190.476563 204 190.523438 203.570313 190.335938 203.125 Z M 191.101563 202.8125 C 191.390625 203.53125 191.367188 204.195313 191.023438 204.8125 C 190.679688 205.4375 190.046875 205.9375 189.132813 206.3125 C 188.234375 206.6875 187.4375 206.773438 186.742188 206.578125 C 186.054688 206.390625 185.5625 205.9375 185.273438 205.21875 C 184.96875 204.5 184.996094 203.828125 185.351563 203.203125 C 185.703125 202.585938 186.328125 202.09375 187.226563 201.71875 C 188.140625 201.34375 188.9375 201.257813 189.617188 201.453125 C 190.304688 201.640625 190.796875 202.09375 191.101563 202.8125 Z M 192.832031 209.777344 C 192.851563 209.652344 192.851563 209.527344 192.832031 209.402344 C 192.808594 209.285156 192.773438 209.167969 192.722656 209.042969 C 192.523438 208.5625 192.207031 208.269531 191.769531 208.167969 C 191.339844 208.0625 190.816406 208.140625 190.191406 208.402344 L 187.253906 209.605469 L 186.910156 208.777344 L 192.472656 206.480469 L 192.816406 207.308594 L 191.941406 207.667969 C 192.355469 207.710938 192.699219 207.835938 192.972656 208.042969 C 193.242188 208.25 193.460938 208.550781 193.628906 208.949219 C 193.648438 209 193.667969 209.0625 193.691406 209.136719 C 193.722656 209.207031 193.742188 209.285156 193.753906 209.371094 Z M 195.941406 210.441406 L 194.363281 211.082031 L 195.066406 212.769531 L 194.363281 213.066406 L 193.660156 211.378906 L 190.628906 212.628906 C 190.179688 212.804688 189.914063 212.976563 189.832031 213.144531 C 189.746094 213.308594 189.777344 213.570313 189.925781 213.925781 L 190.269531 214.753906 L 189.503906 215.066406 L 189.160156 214.238281 C 188.898438 213.601563 188.847656 213.105469 189.003906 212.753906 C 189.167969 212.410156 189.597656 212.097656 190.285156 211.816406 L 193.316406 210.566406 L 193.066406 209.957031 L 193.769531 209.660156 L 194.019531 210.269531 L 195.597656 209.628906 Z M 195.945313 220.816406 C 195.945313 221.035156 195.859375 221.285156 195.695313 221.566406 C 195.539063 221.847656 195.289063 222.175781 194.945313 222.550781 L 193.304688 224.285156 L 192.898438 223.316406 L 194.460938 221.691406 C 194.855469 221.253906 195.09375 220.898438 195.179688 220.628906 C 195.261719 220.355469 195.230469 220.039063 195.085938 219.675781 L 194.679688 218.707031 L 191.539063 220.003906 L 191.164063 219.082031 L 198.570313 216.019531 L 199.398438 218.066406 C 199.71875 218.835938 199.78125 219.476563 199.585938 219.988281 C 199.386719 220.507813 198.921875 220.917969 198.195313 221.222656 C 197.734375 221.410156 197.3125 221.472656 196.929688 221.410156 C 196.542969 221.347656 196.214844 221.148438 195.945313 220.816406 Z M 198.132813 217.285156 L 195.492188 218.378906 L 195.945313 219.503906 C 196.132813 219.941406 196.382813 220.222656 196.695313 220.347656 C 197.007813 220.480469 197.375 220.460938 197.804688 220.285156 C 198.242188 220.105469 198.527344 219.855469 198.664063 219.535156 C 198.796875 219.222656 198.773438 218.847656 198.585938 218.410156 Z M 199.488281 225.3125 C 199.300781 224.875 198.960938 224.609375 198.472656 224.515625 C 197.980469 224.414063 197.402344 224.5 196.738281 224.78125 C 196.082031 225.050781 195.613281 225.390625 195.332031 225.796875 C 195.058594 226.210938 195.019531 226.640625 195.207031 227.078125 C 195.394531 227.523438 195.726563 227.796875 196.207031 227.890625 C 196.695313 227.992188 197.269531 227.910156 197.925781 227.640625 C 198.589844 227.359375 199.066406 227.007813 199.347656 226.59375 C 199.628906 226.1875 199.675781 225.757813 199.488281 225.3125 Z M 200.253906 225 C 200.542969 225.71875 200.519531 226.382813 200.175781 227 C 199.832031 227.625 199.199219 228.125 198.285156 228.5 C 197.386719 228.875 196.589844 228.960938 195.894531 228.765625 C 195.207031 228.578125 194.714844 228.125 194.425781 227.40625 C 194.121094 226.6875 194.148438 226.015625 194.503906 225.390625 C 194.855469 224.773438 195.480469 224.28125 196.378906 223.90625 C 197.292969 223.53125 198.089844 223.445313 198.769531 223.640625 C 199.457031 223.828125 199.949219 224.28125 200.253906 225 Z M 200.042969 232.078125 C 199.71875 231.429688 199.410156 231.023438 199.121094 230.859375 C 198.839844 230.691406 198.5 230.707031 198.105469 230.90625 C 197.792969 231.050781 197.589844 231.265625 197.496094 231.546875 C 197.410156 231.828125 197.449219 232.128906 197.605469 232.453125 C 197.824219 232.898438 198.171875 233.171875 198.652344 233.265625 C 199.128906 233.359375 199.65625 233.265625 200.230469 232.984375 L 200.433594 232.875 Z M 201.183594 233.5 L 198.105469 235.015625 L 197.714844 234.21875 L 198.527344 233.8125 C 198.109375 233.789063 197.753906 233.679688 197.464844 233.484375 C 197.171875 233.285156 196.933594 232.988281 196.746094 232.59375 C 196.503906 232.101563 196.464844 231.632813 196.621094 231.1875 C 196.785156 230.738281 197.136719 230.390625 197.667969 230.140625 C 198.269531 229.839844 198.8125 229.796875 199.292969 230.015625 C 199.78125 230.226563 200.207031 230.691406 200.574219 231.421875 L 201.121094 232.546875 L 201.199219 232.5 C 201.613281 232.300781 201.875 232.023438 201.980469 231.671875 C 202.082031 231.316406 202.027344 230.921875 201.808594 230.484375 C 201.671875 230.214844 201.5 229.964844 201.292969 229.734375 C 201.09375 229.507813 200.859375 229.308594 200.589844 229.140625 L 201.402344 228.734375 C 201.683594 228.964844 201.921875 229.199219 202.121094 229.4375 C 202.316406 229.679688 202.480469 229.929688 202.605469 230.1875 C 202.949219 230.894531 203 231.519531 202.761719 232.0625 C 202.53125 232.613281 202.003906 233.09375 201.183594 233.5 Z M 205.382813 237.28125 L 208.148438 235.578125 L 208.617188 236.328125 L 201.507813 240.71875 L 201.039063 239.96875 L 201.804688 239.5 C 201.40625 239.53125 201.058594 239.46875 200.757813 239.3125 C 200.453125 239.15625 200.199219 238.910156 199.992188 238.578125 C 199.648438 238.015625 199.609375 237.40625 199.882813 236.75 C 200.164063 236.105469 200.703125 235.53125 201.507813 235.03125 C 202.320313 234.53125 203.078125 234.308594 203.789063 234.359375 C 204.496094 234.402344 205.023438 234.703125 205.367188 235.265625 C 205.574219 235.601563 205.679688 235.933594 205.679688 236.265625 C 205.6875 236.597656 205.589844 236.9375 205.382813 237.28125 Z M 201.992188 235.8125 C 201.375 236.195313 200.964844 236.609375 200.757813 237.046875 C 200.546875 237.484375 200.570313 237.90625 200.820313 238.3125 C 201.070313 238.71875 201.4375 238.925781 201.929688 238.9375 C 202.417969 238.957031 202.96875 238.773438 203.585938 238.390625 C 204.210938 238.003906 204.625 237.585938 204.835938 237.140625 C 205.042969 236.703125 205.023438 236.28125 204.773438 235.875 C 204.523438 235.46875 204.152344 235.261719 203.664063 235.25 C 203.171875 235.242188 202.617188 235.429688 201.992188 235.8125 Z M 201.992188 235.8125 "/>
<path style="fill:none;stroke-width:3;stroke-linecap:round;stroke-linejoin:round;stroke:rgb(100%,100%,100%);stroke-opacity:1;stroke-miterlimit:10;" d="M 166.691406 167.609375 L 166.800781 168.578125 L 163.535156 168.90625 L 163.878906 172.4375 L 167.144531 172.109375 L 167.238281 173.078125 L 159.269531 173.875 L 159.175781 172.90625 L 162.972656 172.53125 L 162.628906 169 L 158.832031 169.375 L 158.722656 168.40625 Z M 162.714844 177.898438 C 162.640625 177.179688 162.496094 176.695313 162.277344 176.445313 C 162.066406 176.195313 161.746094 176.089844 161.308594 176.132813 C 160.972656 176.164063 160.714844 176.289063 160.527344 176.507813 C 160.339844 176.734375 160.261719 177.027344 160.292969 177.382813 C 160.34375 177.882813 160.574219 178.261719 160.980469 178.523438 C 161.394531 178.78125 161.921875 178.882813 162.558594 178.820313 L 162.792969 178.789063 Z M 163.292969 179.632813 L 159.871094 179.960938 L 159.777344 179.085938 L 160.683594 178.992188 C 160.296875 178.824219 160.003906 178.59375 159.808594 178.304688 C 159.609375 178.023438 159.488281 177.664063 159.449219 177.226563 C 159.394531 176.683594 159.527344 176.230469 159.839844 175.867188 C 160.152344 175.511719 160.59375 175.304688 161.167969 175.242188 C 161.84375 175.179688 162.371094 175.328125 162.746094 175.695313 C 163.128906 176.070313 163.363281 176.664063 163.449219 177.476563 L 163.558594 178.726563 L 163.652344 178.710938 C 164.109375 178.667969 164.449219 178.496094 164.667969 178.195313 C 164.886719 177.902344 164.972656 177.511719 164.933594 177.023438 C 164.902344 176.71875 164.828125 176.429688 164.714844 176.148438 C 164.609375 175.867188 164.464844 175.59375 164.277344 175.335938 L 165.167969 175.257813 C 165.34375 175.578125 165.480469 175.882813 165.574219 176.164063 C 165.675781 176.453125 165.738281 176.746094 165.761719 177.039063 C 165.832031 177.820313 165.667969 178.421875 165.261719 178.851563 C 164.863281 179.289063 164.207031 179.546875 163.292969 179.632813 Z M 160.109375 184.515625 C 159.351563 184.410156 158.84375 184.257813 158.59375 184.0625 C 158.335938 183.875 158.164063 183.585938 158.078125 183.203125 L 157.9375 182.5 L 158.734375 182.34375 L 158.84375 182.859375 C 158.898438 183.097656 159 183.269531 159.15625 183.375 C 159.304688 183.476563 159.625 183.566406 160.125 183.640625 L 160.609375 183.703125 L 165.96875 180.359375 L 166.15625 181.265625 L 161.890625 183.875 L 166.84375 184.59375 L 167.03125 185.515625 Z M 167.433594 193.363281 C 167.433594 193.589844 167.34375 193.839844 167.167969 194.113281 C 167 194.394531 166.738281 194.707031 166.386719 195.050781 L 164.652344 196.722656 L 164.308594 195.753906 L 165.917969 194.175781 C 166.332031 193.757813 166.589844 193.414063 166.683594 193.144531 C 166.777344 192.882813 166.753906 192.570313 166.621094 192.207031 L 166.261719 191.207031 L 163.074219 192.363281 L 162.730469 191.441406 L 170.261719 188.691406 L 171.011719 190.769531 C 171.300781 191.550781 171.332031 192.191406 171.105469 192.691406 C 170.886719 193.199219 170.410156 193.589844 169.683594 193.863281 C 169.214844 194.027344 168.785156 194.070313 168.402344 193.988281 C 168.027344 193.914063 167.703125 193.707031 167.433594 193.363281 Z M 169.761719 189.925781 L 167.089844 190.894531 L 167.496094 192.050781 C 167.660156 192.496094 167.902344 192.789063 168.214844 192.925781 C 168.527344 193.070313 168.902344 193.066406 169.339844 192.910156 C 169.777344 192.753906 170.0625 192.519531 170.199219 192.207031 C 170.34375 191.902344 170.332031 191.527344 170.167969 191.082031 Z M 170.835938 197.980469 C 170.667969 197.53125 170.339844 197.25 169.851563 197.136719 C 169.359375 197.035156 168.777344 197.109375 168.101563 197.371094 C 167.433594 197.621094 166.953125 197.941406 166.664063 198.339844 C 166.382813 198.746094 166.324219 199.171875 166.492188 199.621094 C 166.65625 200.066406 166.980469 200.347656 167.460938 200.464844 C 167.949219 200.578125 168.527344 200.511719 169.195313 200.261719 C 169.871094 200 170.355469 199.667969 170.648438 199.261719 C 170.9375 198.855469 171 198.425781 170.835938 197.980469 Z M 171.601563 197.683594 C 171.871094 198.410156 171.824219 199.078125 171.460938 199.683594 C 171.09375 200.296875 170.449219 200.78125 169.523438 201.136719 C 168.617188 201.480469 167.820313 201.546875 167.132813 201.339844 C 166.453125 201.128906 165.980469 200.660156 165.710938 199.933594 C 165.429688 199.203125 165.46875 198.53125 165.835938 197.917969 C 166.210938 197.3125 166.851563 196.839844 167.757813 196.496094 C 168.683594 196.144531 169.484375 196.070313 170.164063 196.277344 C 170.839844 196.488281 171.320313 196.957031 171.601563 197.683594 Z M 170.953125 204.792969 C 170.703125 204.113281 170.441406 203.683594 170.171875 203.496094 C 169.898438 203.308594 169.554688 203.292969 169.140625 203.449219 C 168.828125 203.574219 168.609375 203.765625 168.484375 204.027344 C 168.359375 204.296875 168.359375 204.597656 168.484375 204.933594 C 168.660156 205.402344 168.984375 205.703125 169.453125 205.839844 C 169.921875 205.972656 170.453125 205.925781 171.046875 205.699219 L 171.265625 205.621094 Z M 171.984375 206.308594 L 168.765625 207.527344 L 168.4375 206.699219 L 169.28125 206.371094 C 168.863281 206.308594 168.523438 206.167969 168.265625 205.949219 C 168.003906 205.730469 167.796875 205.417969 167.640625 205.011719 C 167.441406 204.488281 167.441406 204.015625 167.640625 203.589844 C 167.847656 203.160156 168.226563 202.84375 168.78125 202.636719 C 169.40625 202.398438 169.945313 202.410156 170.40625 202.667969 C 170.875 202.917969 171.253906 203.421875 171.546875 204.183594 L 171.984375 205.355469 L 172.078125 205.324219 C 172.503906 205.15625 172.785156 204.902344 172.921875 204.558594 C 173.066406 204.222656 173.050781 203.828125 172.875 203.371094 C 172.769531 203.078125 172.625 202.8125 172.4375 202.574219 C 172.257813 202.324219 172.039063 202.101563 171.78125 201.902344 L 172.625 201.589844 C 172.882813 201.851563 173.097656 202.113281 173.265625 202.371094 C 173.429688 202.621094 173.566406 202.878906 173.671875 203.152344 C 173.953125 203.878906 173.953125 204.503906 173.671875 205.027344 C 173.398438 205.558594 172.835938 205.984375 171.984375 206.308594 Z M 175.449219 210.753906 L 178.480469 209.597656 L 178.808594 210.441406 L 170.996094 213.410156 L 170.667969 212.566406 L 171.511719 212.238281 C 171.113281 212.195313 170.78125 212.070313 170.511719 211.863281 C 170.25 211.664063 170.050781 211.378906 169.917969 211.003906 C 169.675781 210.398438 169.75 209.800781 170.136719 209.207031 C 170.53125 208.613281 171.171875 208.152344 172.058594 207.816406 C 172.953125 207.472656 173.738281 207.394531 174.417969 207.582031 C 175.105469 207.761719 175.566406 208.152344 175.808594 208.753906 C 175.941406 209.128906 175.980469 209.476563 175.917969 209.800781 C 175.863281 210.132813 175.707031 210.449219 175.449219 210.753906 Z M 172.386719 208.675781 C 171.707031 208.933594 171.222656 209.261719 170.933594 209.660156 C 170.652344 210.054688 170.589844 210.472656 170.746094 210.910156 C 170.921875 211.355469 171.25 211.632813 171.730469 211.738281 C 172.207031 211.839844 172.785156 211.761719 173.464844 211.503906 C 174.152344 211.242188 174.640625 210.914063 174.933594 210.519531 C 175.222656 210.121094 175.28125 209.699219 175.105469 209.253906 C 174.949219 208.816406 174.625 208.542969 174.136719 208.441406 C 173.65625 208.339844 173.074219 208.414063 172.386719 208.675781 Z M 172.386719 208.675781 "/>
<path style=" stroke:none;fill-rule:evenodd;fill:rgb(20%,20%,20%);fill-opacity:1;" d="M 166.691406 167.609375 L 166.800781 168.578125 L 163.535156 168.90625 L 163.878906 172.4375 L 167.144531 172.109375 L 167.238281 173.078125 L 159.269531 173.875 L 159.175781 172.90625 L 162.972656 172.53125 L 162.628906 169 L 158.832031 169.375 L 158.722656 168.40625 Z M 162.714844 177.898438 C 162.640625 177.179688 162.496094 176.695313 162.277344 176.445313 C 162.066406 176.195313 161.746094 176.089844 161.308594 176.132813 C 160.972656 176.164063 160.714844 176.289063 160.527344 176.507813 C 160.339844 176.734375 160.261719 177.027344 160.292969 177.382813 C 160.34375 177.882813 160.574219 178.261719 160.980469 178.523438 C 161.394531 178.78125 161.921875 178.882813 162.558594 178.820313 L 162.792969 178.789063 Z M 163.292969 179.632813 L 159.871094 179.960938 L 159.777344 179.085938 L 160.683594 178.992188 C 160.296875 178.824219 160.003906 178.59375 159.808594 178.304688 C 159.609375 178.023438 159.488281 177.664063 159.449219 177.226563 C 159.394531 176.683594 159.527344 176.230469 159.839844 175.867188 C 160.152344 175.511719 160.59375 175.304688 161.167969 175.242188 C 161.84375 175.179688 162.371094 175.328125 162.746094 175.695313 C 163.128906 176.070313 163.363281 176.664063 163.449219 177.476563 L 163.558594 178.726563 L 163.652344 178.710938 C 164.109375 178.667969 164.449219 178.496094 164.667969 178.195313 C 164.886719 177.902344 164.972656 177.511719 164.933594 177.023438 C 164.902344 176.71875 164.828125 176.429688 164.714844 176.148438 C 164.609375 175.867188 164.464844 175.59375 164.277344 175.335938 L 165.167969 175.257813 C 165.34375 175.578125 165.480469 175.882813 165.574219 176.164063 C 165.675781 176.453125 165.738281 176.746094 165.761719 177.039063 C 165.832031 177.820313 165.667969 178.421875 165.261719 178.851563 C 164.863281 179.289063 164.207031 179.546875 163.292969 179.632813 Z M 160.109375 184.515625 C 159.351563 184.410156 158.84375 184.257813 158.59375 184.0625 C 158.335938 183.875 158.164063 183.585938 158.078125 183.203125 L 157.9375 182.5 L 158.734375 182.34375 L 158.84375 182.859375 C 158.898438 183.097656 159 183.269531 159.15625 183.375 C 159.304688 183.476563 159.625 183.566406 160.125 183.640625 L 160.609375 183.703125 L 165.96875 180.359375 L 166.15625 181.265625 L 161.890625 183.875 L 166.84375 184.59375 L 167.03125 185.515625 Z M 167.433594 193.363281 C 167.433594 193.589844 167.34375 193.839844 167.167969 194.113281 C 167 194.394531 166.738281 194.707031 166.386719 195.050781 L 164.652344 196.722656 L 164.308594 195.753906 L 165.917969 194.175781 C 166.332031 193.757813 166.589844 193.414063 166.683594 193.144531 C 166.777344 192.882813 166.753906 192.570313 166.621094 192.207031 L 166.261719 191.207031 L 163.074219 192.363281 L 162.730469 191.441406 L 170.261719 188.691406 L 171.011719 190.769531 C 171.300781 191.550781 171.332031 192.191406 171.105469 192.691406 C 170.886719 193.199219 170.410156 193.589844 169.683594 193.863281 C 169.214844 194.027344 168.785156 194.070313 168.402344 193.988281 C 168.027344 193.914063 167.703125 193.707031 167.433594 193.363281 Z M 169.761719 189.925781 L 167.089844 190.894531 L 167.496094 192.050781 C 167.660156 192.496094 167.902344 192.789063 168.214844 192.925781 C 168.527344 193.070313 168.902344 193.066406 169.339844 192.910156 C 169.777344 192.753906 170.0625 192.519531 170.199219 192.207031 C 170.34375 191.902344 170.332031 191.527344 170.167969 191.082031 Z M 170.835938 197.980469 C 170.667969 197.53125 170.339844 197.25 169.851563 197.136719 C 169.359375 197.035156 168.777344 197.109375 168.101563 197.371094 C 167.433594 197.621094 166.953125 197.941406 166.664063 198.339844 C 166.382813 198.746094 166.324219 199.171875 166.492188 199.621094 C 166.65625 200.066406 166.980469 200.347656 167.460938 200.464844 C 167.949219 200.578125 168.527344 200.511719 169.195313 200.261719 C 169.871094 200 170.355469 199.667969 170.648438 199.261719 C 170.9375 198.855469 171 198.425781 170.835938 197.980469 Z M 171.601563 197.683594 C 171.871094 198.410156 171.824219 199.078125 171.460938 199.683594 C 171.09375 200.296875 170.449219 200.78125 169.523438 201.136719 C 168.617188 201.480469 167.820313 201.546875 167.132813 201.339844 C 166.453125 201.128906 165.980469 200.660156 165.710938 199.933594 C 165.429688 199.203125 165.46875 198.53125 165.835938 197.917969 C 166.210938 197.3125 166.851563 196.839844 167.757813 196.496094 C 168.683594 196.144531 169.484375 196.070313 170.164063 196.277344 C 170.839844 196.488281 171.320313 196.957031 171.601563 197.683594 Z M 170.953125 204.792969 C 170.703125 204.113281 170.441406 203.683594 170.171875 203.496094 C 169.898438 203.308594 169.554688 203.292969 169.140625 203.449219 C 168.828125 203.574219 168.609375 203.765625 168.484375 204.027344 C 168.359375 204.296875 168.359375 204.597656 168.484375 204.933594 C 168.660156 205.402344 168.984375 205.703125 169.453125 205.839844 C 169.921875 205.972656 170.453125 205.925781 171.046875 205.699219 L 171.265625 205.621094 Z M 171.984375 206.308594 L 168.765625 207.527344 L 168.4375 206.699219 L 169.28125 206.371094 C 168.863281 206.308594 168.523438 206.167969 168.265625 205.949219 C 168.003906 205.730469 167.796875 205.417969 167.640625 205.011719 C 167.441406 204.488281 167.441406 204.015625 167.640625 203.589844 C 167.847656 203.160156 168.226563 202.84375 168.78125 202.636719 C 169.40625 202.398438 169.945313 202.410156 170.40625 202.667969 C 170.875 202.917969 171.253906 203.421875 171.546875 204.183594 L 171.984375 205.355469 L 172.078125 205.324219 C 172.503906 205.15625 172.785156 204.902344 172.921875 204.558594 C 173.066406 204.222656 173.050781 203.828125 172.875 203.371094 C 172.769531 203.078125 172.625 202.8125 172.4375 202.574219 C 172.257813 202.324219 172.039063 202.101563 171.78125 201.902344 L 172.625 201.589844 C 172.882813 201.851563 173.097656 202.113281 173.265625 202.371094 C 173.429688 202.621094 173.566406 202.878906 173.671875 203.152344 C 173.953125 203.878906 173.953125 204.503906 173.671875 205.027344 C 173.398438 205.558594 172.835938 205.984375 171.984375 206.308594 Z M 175.449219 210.753906 L 178.480469 209.597656 L 178.808594 210.441406 L 170.996094 213.410156 L 170.667969 212.566406 L 171.511719 212.238281 C 171.113281 212.195313 170.78125 212.070313 170.511719 211.863281 C 170.25 211.664063 170.050781 211.378906 169.917969 211.003906 C 169.675781 210.398438 169.75 209.800781 170.136719 209.207031 C 170.53125 208.613281 171.171875 208.152344 172.058594 207.816406 C 172.953125 207.472656 173.738281 207.394531 174.417969 207.582031 C 175.105469 207.761719 175.566406 208.152344 175.808594 208.753906 C 175.941406 209.128906 175.980469 209.476563 175.917969 209.800781 C 175.863281 210.132813 175.707031 210.449219 175.449219 210.753906 Z M 172.386719 208.675781 C 171.707031 208.933594 171.222656 209.261719 170.933594 209.660156 C 170.652344 210.054688 170.589844 210.472656 170.746094 210.910156 C 170.921875 211.355469 171.25 211.632813 171.730469 211.738281 C 172.207031 211.839844 172.785156 211.761719 173.464844 211.503906 C 174.152344 211.242188 174.640625 210.914063 174.933594 210.519531 C 175.222656 210.121094 175.28125 209.699219 175.105469 209.253906 C 174.949219 208.816406 174.625 208.542969 174.136719 208.441406 C 173.65625 208.339844 173.074219 208.414063 172.386719 208.675781 Z M 172.386719 208.675781 "/>
</g>
</svg>

