<?xml version="1.0" encoding="UTF-8"?>
<svg xmlns="http://www.w3.org/2000/svg" xmlns:xlink="http://www.w3.org/1999/xlink" width="256pt" height="256pt" viewBox="0 0 256 256" version="1.1">
<g id="surface2">
<rect x="0" y="0" width="256" height="256" style="fill:rgb(94.901961%,93.72549%,91.372549%);fill-opacity:1;stroke:none;"/>
<path style=" stroke:none;fill-rule:evenodd;fill:rgb(81.960784%,81.568627%,80.392157%);fill-opacity:1;" d="M -4 260 L 24.234375 260 L 24.726563 238.429688 L 35.21875 238.363281 L 36.160156 206.402344 L 27.933594 205.878906 L 14.925781 205.820313 L 11.273438 212.742188 L 11.015625 218.277344 L 12.347656 218.972656 L 11.4375 220.714844 L 4.402344 236.28125 L 5.914063 237.136719 L 4.1875 240.175781 L -2.914063 236.140625 L -3.765625 238.308594 L -4 241.632813 Z M -4 260 "/>
<path style="fill:none;stroke-width:1;stroke-linecap:round;stroke-linejoin:round;stroke:rgb(81.960784%,81.960784%,81.960784%);stroke-opacity:1;stroke-miterlimit:10;" d="M -4 260 L 24.234375 260 L 24.726563 238.429688 L 35.21875 238.363281 L 36.160156 206.402344 L 27.933594 205.878906 L 14.925781 205.820313 L 11.273438 212.742188 L 11.015625 218.277344 L 12.347656 218.972656 L 11.4375 220.714844 L 4.402344 236.28125 L 5.914063 237.136719 L 4.1875 240.175781 L -2.914063 236.140625 L -3.765625 238.308594 L -4 241.632813 L -4 260 "/>
<path style=" stroke:none;fill-rule:evenodd;fill:rgb(81.960784%,81.568627%,80.392157%);fill-opacity:1;" d="M 94.265625 117.960938 L 102.453125 116.066406 L 102.171875 128.851563 L 107.097656 131.121094 L 109.273438 133.394531 L 122.246094 133.441406 L 129.535156 132.683594 L 130.078125 116.496094 L 130.644531 68.527344 L 155.570313 68.28125 L 155.460938 62.328125 L 161.121094 62.53125 L 161.203125 57.902344 L 175.847656 58.105469 L 175.65625 56.828125 L 182.710938 57.0625 L 182.898438 41.34375 L 175.941406 41.394531 L 174.472656 40.066406 L 168.222656 46.695313 L 154.636719 56.164063 L 139.582031 61.324219 L 127.765625 62.214844 L 111.667969 62.117188 L 110.578125 62.046875 L 104.1875 63.351563 L 101.015625 65.125 L 98.363281 68.058594 L 96.519531 70.429688 L 95.429688 72.652344 L 95.027344 74.546875 L 94.980469 76.726563 L 95.070313 87.898438 L 96.824219 89.882813 L 96.488281 99.070313 L 94.503906 101.578125 L 94.644531 113.035156 Z M 94.265625 117.960938 "/>
<path style="fill:none;stroke-width:1;stroke-linecap:round;stroke-linejoin:round;stroke:rgb(81.960784%,81.960784%,81.960784%);stroke-opacity:1;stroke-miterlimit:10;" d="M 94.265625 117.960938 L 102.453125 116.066406 L 102.171875 128.851563 L 107.097656 131.121094 L 109.273438 133.394531 L 122.246094 133.441406 L 129.535156 132.683594 L 130.078125 116.496094 L 130.644531 68.527344 L 155.570313 68.28125 L 155.460938 62.328125 L 161.121094 62.53125 L 161.203125 57.902344 L 175.847656 58.105469 L 175.65625 56.828125 L 182.710938 57.0625 L 182.898438 41.34375 L 175.941406 41.394531 L 174.472656 40.066406 L 168.222656 46.695313 L 154.636719 56.164063 L 139.582031 61.324219 L 127.765625 62.214844 L 111.667969 62.117188 L 110.578125 62.046875 L 104.1875 63.351563 L 101.015625 65.125 L 98.363281 68.058594 L 96.519531 70.429688 L 95.429688 72.652344 L 95.027344 74.546875 L 94.980469 76.726563 L 95.070313 87.898438 L 96.824219 89.882813 L 96.488281 99.070313 L 94.503906 101.578125 L 94.644531 113.035156 L 94.265625 117.960938 "/>
<path style=" stroke:none;fill-rule:evenodd;fill:rgb(81.960784%,81.568627%,80.392157%);fill-opacity:1;" d="M 11.882813 123.496094 L 20.5 161.621094 L 22.875 165.746094 L 26.378906 168.746094 L 31.003906 170.121094 L 36 170.433594 L 46.664063 170.402344 L 53.1875 169.96875 L 54.976563 169.730469 L 56.578125 168.214844 L 57.582031 166.214844 L 57.949219 163.195313 L 58 159.371094 L 56.324219 156.851563 L 54.871094 155.902344 L 54.351563 150.714844 L 56.945313 147.433594 L 57.125 141.121094 L 57.511719 117.265625 L 39.046875 117.0625 L 38.980469 123.996094 Z M 11.882813 123.496094 "/>
<path style="fill:none;stroke-width:1;stroke-linecap:round;stroke-linejoin:round;stroke:rgb(81.960784%,81.960784%,81.960784%);stroke-opacity:1;stroke-miterlimit:10;" d="M 11.882813 123.496094 L 20.5 161.621094 L 22.875 165.746094 L 26.378906 168.746094 L 31.003906 170.121094 L 36 170.433594 L 46.664063 170.402344 L 53.1875 169.96875 L 54.976563 169.730469 L 56.578125 168.214844 L 57.582031 166.214844 L 57.949219 163.195313 L 58 159.371094 L 56.324219 156.851563 L 54.871094 155.902344 L 54.351563 150.714844 L 56.945313 147.433594 L 57.125 141.121094 L 57.511719 117.265625 L 39.046875 117.0625 L 38.980469 123.996094 L 11.882813 123.496094 "/>
<path style=" stroke:none;fill-rule:evenodd;fill:rgb(81.960784%,81.568627%,80.392157%);fill-opacity:1;" d="M 29.175781 189.199219 L 81.039063 189.84375 L 81.191406 187.363281 L 91.355469 187.464844 L 91.300781 189.84375 L 119.761719 190.4375 L 119.648438 197.507813 L 169.765625 197.855469 L 171.628906 195.5625 L 171.605469 182.121094 L 104.445313 181.515625 L 91.007813 180.464844 L 89.519531 180.433594 L 88.988281 181.640625 L 63.5625 181.292969 L 63.136719 180.082031 L 57.171875 180.054688 L 56.570313 180.957031 L 30.457031 180.992188 L 29.253906 181.898438 Z M 29.175781 189.199219 "/>
<path style="fill:none;stroke-width:1;stroke-linecap:round;stroke-linejoin:round;stroke:rgb(81.960784%,81.960784%,81.960784%);stroke-opacity:1;stroke-miterlimit:10;" d="M 29.175781 189.199219 L 81.039063 189.84375 L 81.191406 187.363281 L 91.355469 187.464844 L 91.300781 189.84375 L 119.761719 190.4375 L 119.648438 197.507813 L 169.765625 197.855469 L 171.628906 195.5625 L 171.605469 182.121094 L 104.445313 181.515625 L 91.007813 180.464844 L 89.519531 180.433594 L 88.988281 181.640625 L 63.5625 181.292969 L 63.136719 180.082031 L 57.171875 180.054688 L 56.570313 180.957031 L 30.457031 180.992188 L 29.253906 181.898438 L 29.175781 189.199219 "/>
<path style=" stroke:none;fill-rule:evenodd;fill:rgb(81.960784%,81.568627%,80.392157%);fill-opacity:1;" d="M 11.667969 123.417969 L 38.980469 123.996094 L 39.046875 117.0625 L 57.511719 117.265625 L 58.582031 117.261719 L 58.519531 106.289063 L 52.113281 99.355469 L 52.363281 89.574219 L 49.675781 89.449219 L 49.925781 84.605469 L 43.878906 79.363281 L 35.773438 83.238281 L 28.074219 89.078125 L 23.394531 94.3125 L 18.109375 102.816406 L 12.574219 116.054688 L 11.90625 119.355469 Z M 11.667969 123.417969 "/>
<path style="fill:none;stroke-width:1;stroke-linecap:round;stroke-linejoin:round;stroke:rgb(81.960784%,81.960784%,81.960784%);stroke-opacity:1;stroke-miterlimit:10;" d="M 11.667969 123.417969 L 38.980469 123.996094 L 39.046875 117.0625 L 57.511719 117.265625 L 58.582031 117.261719 L 58.519531 106.289063 L 52.113281 99.355469 L 52.363281 89.574219 L 49.675781 89.449219 L 49.925781 84.605469 L 43.878906 79.363281 L 35.773438 83.238281 L 28.074219 89.078125 L 23.394531 94.3125 L 18.109375 102.816406 L 12.574219 116.054688 L 11.90625 119.355469 L 11.667969 123.417969 "/>
<path style=" stroke:none;fill-rule:evenodd;fill:rgb(81.960784%,81.568627%,80.392157%);fill-opacity:1;" d="M 66.996094 143.4375 L 86.152344 143.476563 L 86.058594 123.125 L 84.558594 120.9375 L 84.996094 112.5 L 86.433594 112.1875 L 86.621094 111.1875 L 86.808594 98.558594 L 85.933594 96.871094 L 84.121094 95.996094 L 70.683594 95.875 L 70.558594 101.746094 L 67.871094 104.996094 L 67.9375 129.183594 L 67.464844 129.164063 Z M 66.996094 143.4375 "/>
<path style="fill:none;stroke-width:1;stroke-linecap:round;stroke-linejoin:round;stroke:rgb(81.960784%,81.960784%,81.960784%);stroke-opacity:1;stroke-miterlimit:10;" d="M 66.996094 143.4375 L 86.152344 143.476563 L 86.058594 123.125 L 84.558594 120.9375 L 84.996094 112.5 L 86.433594 112.1875 L 86.621094 111.1875 L 86.808594 98.558594 L 85.933594 96.871094 L 84.121094 95.996094 L 70.683594 95.875 L 70.558594 101.746094 L 67.871094 104.996094 L 67.9375 129.183594 L 67.464844 129.164063 L 66.996094 143.4375 "/>
<path style=" stroke:none;fill-rule:evenodd;fill:rgb(81.960784%,81.568627%,80.392157%);fill-opacity:1;" d="M 260 260 L 260 250.023438 L 254.390625 249.800781 L 254.160156 260 Z M 260 260 "/>
<path style="fill:none;stroke-width:1;stroke-linecap:round;stroke-linejoin:round;stroke:rgb(81.960784%,81.960784%,81.960784%);stroke-opacity:1;stroke-miterlimit:10;" d="M 260 260 L 260 250.023438 L 254.390625 249.800781 L 254.160156 260 L 260 260 "/>
<path style=" stroke:none;fill-rule:evenodd;fill:rgb(81.960784%,81.568627%,80.392157%);fill-opacity:1;" d="M 62.667969 165.570313 L 63.226563 169.457031 L 64.8125 170.722656 L 67.703125 171.21875 L 72.386719 170.722656 L 76.707031 169.125 L 79.804688 167.121094 L 82.308594 164.359375 L 84.898438 160.277344 L 85.664063 157.777344 L 85.957031 153.90625 L 86.144531 143.917969 L 66.011719 143.886719 L 66.453125 129.855469 L 63.667969 129.699219 L 63.339844 147.804688 L 65.707031 147.898438 L 65.226563 165.597656 Z M 62.667969 165.570313 "/>
<path style="fill:none;stroke-width:1;stroke-linecap:round;stroke-linejoin:round;stroke:rgb(81.960784%,81.960784%,81.960784%);stroke-opacity:1;stroke-miterlimit:10;" d="M 62.667969 165.570313 L 63.226563 169.457031 L 64.8125 170.722656 L 67.703125 171.21875 L 72.386719 170.722656 L 76.707031 169.125 L 79.804688 167.121094 L 82.308594 164.359375 L 84.898438 160.277344 L 85.664063 157.777344 L 85.957031 153.90625 L 86.144531 143.917969 L 66.011719 143.886719 L 66.453125 129.855469 L 63.667969 129.699219 L 63.339844 147.804688 L 65.707031 147.898438 L 65.226563 165.597656 L 62.667969 165.570313 "/>
<path style=" stroke:none;fill-rule:evenodd;fill:rgb(81.960784%,81.568627%,80.392157%);fill-opacity:1;" d="M 63.464844 113.46875 L 67.59375 113.59375 L 67.621094 104.875 L 70.375 101.558594 L 70.558594 93.1875 L 86.839844 93.039063 L 86.746094 70.507813 L 86.3125 69.375 L 83.839844 67.9375 L 82.777344 67.9375 L 77.59375 70.25 L 77.625 71.78125 L 74.25 73.125 L 73.0625 72.15625 L 71.5625 71.90625 L 69.527344 73.257813 L 67.9375 74.625 L 67.25 76.4375 L 66.6875 90.09375 L 66.40625 96.90625 L 66.21875 99.25 L 65.71875 100.3125 L 65.15625 101.21875 L 64.371094 101.914063 L 63.9375 102.125 Z M 63.464844 113.46875 "/>
<path style="fill:none;stroke-width:1;stroke-linecap:round;stroke-linejoin:round;stroke:rgb(81.960784%,81.960784%,81.960784%);stroke-opacity:1;stroke-miterlimit:10;" d="M 63.464844 113.46875 L 67.59375 113.59375 L 67.621094 104.875 L 70.375 101.558594 L 70.558594 93.1875 L 86.839844 93.039063 L 86.746094 70.507813 L 86.3125 69.375 L 83.839844 67.9375 L 82.777344 67.9375 L 77.59375 70.25 L 77.625 71.78125 L 74.25 73.125 L 73.0625 72.15625 L 71.5625 71.90625 L 69.527344 73.257813 L 67.9375 74.625 L 67.25 76.4375 L 66.6875 90.09375 L 66.40625 96.90625 L 66.21875 99.25 L 65.71875 100.3125 L 65.15625 101.21875 L 64.371094 101.914063 L 63.9375 102.125 L 63.464844 113.46875 "/>
<path style=" stroke:none;fill-rule:evenodd;fill:rgb(81.960784%,81.568627%,80.392157%);fill-opacity:1;" d="M 101.558594 137.441406 L 101.816406 161.066406 L 104.089844 161.113281 L 105.863281 163.359375 L 116.445313 163.488281 L 118.128906 159.621094 L 118.269531 137.511719 Z M 101.558594 137.441406 "/>
<path style="fill:none;stroke-width:1;stroke-linecap:round;stroke-linejoin:round;stroke:rgb(81.960784%,81.960784%,81.960784%);stroke-opacity:1;stroke-miterlimit:10;" d="M 101.558594 137.441406 L 101.816406 161.066406 L 104.089844 161.113281 L 105.863281 163.359375 L 116.445313 163.488281 L 118.128906 159.621094 L 118.269531 137.511719 L 101.558594 137.441406 "/>
<path style=" stroke:none;fill-rule:evenodd;fill:rgb(81.960784%,81.568627%,80.392157%);fill-opacity:1;" d="M 260 230.496094 L 260 207.53125 L 253.507813 207.414063 L 253.203125 234.375 Z M 260 230.496094 "/>
<path style="fill:none;stroke-width:1;stroke-linecap:round;stroke-linejoin:round;stroke:rgb(81.960784%,81.960784%,81.960784%);stroke-opacity:1;stroke-miterlimit:10;" d="M 260 230.496094 L 260 207.53125 L 253.507813 207.414063 L 253.203125 234.375 L 260 230.496094 "/>
<path style=" stroke:none;fill-rule:evenodd;fill:rgb(81.960784%,81.568627%,80.392157%);fill-opacity:1;" d="M 260 249.308594 L 260 231.21875 L 254.957031 233.945313 L 254.035156 235.101563 L 253.535156 236.621094 L 253.488281 249.070313 Z M 260 249.308594 "/>
<path style="fill:none;stroke-width:1;stroke-linecap:round;stroke-linejoin:round;stroke:rgb(81.960784%,81.960784%,81.960784%);stroke-opacity:1;stroke-miterlimit:10;" d="M 260 249.308594 L 260 231.21875 L 254.957031 233.945313 L 254.035156 235.101563 L 253.535156 236.621094 L 253.488281 249.070313 L 260 249.308594 "/>
<path style=" stroke:none;fill-rule:evenodd;fill:rgb(81.960784%,81.568627%,80.392157%);fill-opacity:1;" d="M 260 207.53125 L 260 194.914063 L 253.738281 194.835938 L 253.507813 207.414063 Z M 260 207.53125 "/>
<path style="fill:none;stroke-width:1;stroke-linecap:round;stroke-linejoin:round;stroke:rgb(81.960784%,81.960784%,81.960784%);stroke-opacity:1;stroke-miterlimit:10;" d="M 260 207.53125 L 260 194.914063 L 253.738281 194.835938 L 253.507813 207.414063 L 260 207.53125 "/>
<path style=" stroke:none;fill-rule:evenodd;fill:rgb(81.960784%,81.568627%,80.392157%);fill-opacity:1;" d="M 94.21875 139.785156 L 99.167969 139.949219 L 98.976563 127.3125 L 96.5625 124.992188 L 94.3125 127.285156 Z M 94.21875 139.785156 "/>
<path style="fill:none;stroke-width:1;stroke-linecap:round;stroke-linejoin:round;stroke:rgb(81.960784%,81.960784%,81.960784%);stroke-opacity:1;stroke-miterlimit:10;" d="M 94.21875 139.785156 L 99.167969 139.949219 L 98.976563 127.3125 L 96.5625 124.992188 L 94.3125 127.285156 L 94.21875 139.785156 "/>
<path style=" stroke:none;fill-rule:evenodd;fill:rgb(78.431373%,78.431373%,78.431373%);fill-opacity:1;" d="M 230.226563 259 L 230.492188 245.183594 L 234.890625 245.183594 L 236.894531 135.582031 L 212.894531 135.582031 L 209.964844 259 Z M 230.226563 259 "/>
<path style=" stroke:none;fill-rule:evenodd;fill:rgb(78.431373%,78.431373%,78.431373%);fill-opacity:1;" d="M 237.746094 91.703125 L 237.96875 87.269531 L 238.457031 45.335938 L 233.3125 45.273438 L 233.890625 -4 L 217.296875 -4 L 215.292969 -1.417969 L 204.816406 11.664063 L 203.34375 91.292969 Z M 237.746094 91.703125 "/>
<path style=" stroke:none;fill-rule:evenodd;fill:rgb(78.431373%,78.431373%,78.431373%);fill-opacity:1;" d="M 155.75 259 L 155.921875 246.867188 L 156.066406 233.828125 L 157.355469 227.714844 L 159.265625 221.648438 L 161.894531 215.726563 L 164.902344 209.757813 L 168.867188 203.449219 L 99.089844 202.242188 L 100.375 242.113281 L 100.257813 259 Z M 155.75 259 "/>
<path style=" stroke:none;fill-rule:evenodd;fill:rgb(78.431373%,78.431373%,78.431373%);fill-opacity:1;" d="M -4 259 L 259 259 L 259 -4 L 203.730469 -4 L 190.828125 10.640625 L 170.894531 33.132813 L 154.953125 46.660156 L 143.347656 51.710938 L 134.449219 53.707031 L 117.367188 53.917969 L 101.566406 54.273438 L 94.519531 56.765625 L 43.878906 79.363281 L 35.773438 83.238281 L 28.074219 89.078125 L 23.394531 94.3125 L 18.109375 102.816406 L 12.574219 116.054688 L 11.90625 119.355469 L 11.667969 123.417969 L -4 129.722656 Z M -4 259 "/>
<path style="fill:none;stroke-width:8;stroke-linecap:round;stroke-linejoin:round;stroke:rgb(75.686275%,70.980392%,61.568627%);stroke-opacity:1;stroke-miterlimit:10;" d="M 91.753906 115.464844 L 90.183594 115.410156 "/>
<path style="fill:none;stroke-width:8;stroke-linecap:round;stroke-linejoin:round;stroke:rgb(75.686275%,70.980392%,61.568627%);stroke-opacity:1;stroke-miterlimit:10;" d="M 73.4375 69.328125 L 74.871094 72.34375 "/>
<path style="fill:none;stroke-width:8;stroke-linecap:round;stroke-linejoin:round;stroke:rgb(75.686275%,70.980392%,61.568627%);stroke-opacity:1;stroke-miterlimit:10;" d="M 251.535156 226.4375 L 255.421875 226.4375 "/>
<path style="fill:none;stroke-width:8;stroke-linecap:round;stroke-linejoin:round;stroke:rgb(75.686275%,70.980392%,61.568627%);stroke-opacity:1;stroke-miterlimit:10;" d="M 56.113281 151.503906 L 51.847656 151.523438 "/>
<path style="fill:none;stroke-width:8;stroke-linecap:round;stroke-linejoin:round;stroke:rgb(75.686275%,70.980392%,61.568627%);stroke-opacity:1;stroke-miterlimit:10;" d="M 90.183594 115.410156 L 89.011719 115.320313 L 83.246094 115.25 "/>
<path style="fill:none;stroke-width:8;stroke-linecap:round;stroke-linejoin:round;stroke:rgb(75.686275%,70.980392%,61.568627%);stroke-opacity:1;stroke-miterlimit:10;" d="M 91.753906 115.464844 L 98.996094 115.496094 "/>
<path style="fill:none;stroke-width:8;stroke-linecap:round;stroke-linejoin:round;stroke:rgb(75.686275%,70.980392%,61.568627%);stroke-opacity:1;stroke-miterlimit:10;" d="M 91.125 176.5 L 91.007813 180.464844 L 91.007813 183.859375 "/>
<path style="fill:none;stroke-width:8;stroke-linecap:round;stroke-linejoin:round;stroke:rgb(75.686275%,70.980392%,61.568627%);stroke-opacity:1;stroke-miterlimit:10;" d="M 89.40625 72.667969 L 86.640625 65.785156 "/>
<path style="fill:none;stroke-width:8;stroke-linecap:round;stroke-linejoin:round;stroke:rgb(75.686275%,70.980392%,61.568627%);stroke-opacity:1;stroke-miterlimit:10;" d="M 86.640625 65.785156 L 90.859375 67.191406 L 94.160156 68.289063 "/>
<path style="fill:none;stroke-width:8;stroke-linecap:round;stroke-linejoin:round;stroke:rgb(75.686275%,70.980392%,61.568627%);stroke-opacity:1;stroke-miterlimit:10;" d="M 168.199219 184.984375 L 168.199219 194.109375 L 164.445313 193.984375 "/>
<path style="fill:none;stroke-width:8;stroke-linecap:round;stroke-linejoin:round;stroke:rgb(75.686275%,70.980392%,61.568627%);stroke-opacity:1;stroke-miterlimit:10;" d="M 8.691406 241.691406 L 8.902344 228.71875 "/>
<path style="fill:none;stroke-width:8;stroke-linecap:round;stroke-linejoin:round;stroke:rgb(75.686275%,70.980392%,61.568627%);stroke-opacity:1;stroke-miterlimit:10;" d="M 91.125 176.5 L 83.882813 172.128906 L 79.699219 169.796875 "/>
<path style="fill:none;stroke-width:8;stroke-linecap:round;stroke-linejoin:round;stroke:rgb(75.686275%,70.980392%,61.568627%);stroke-opacity:1;stroke-miterlimit:10;" d="M 4.664063 263.921875 L 4.875 250.523438 "/>
<path style="fill:none;stroke-width:8;stroke-linecap:round;stroke-linejoin:round;stroke:rgb(75.686275%,70.980392%,61.568627%);stroke-opacity:1;stroke-miterlimit:10;" d="M 60.015625 163.683594 L 73.464844 163.652344 "/>
<path style="fill:none;stroke-width:8;stroke-linecap:round;stroke-linejoin:round;stroke:rgb(75.686275%,70.980392%,61.568627%);stroke-opacity:1;stroke-miterlimit:10;" d="M 9.515625 264 L 9.519531 250.496094 "/>
<path style="fill:none;stroke-width:8;stroke-linecap:round;stroke-linejoin:round;stroke:rgb(75.686275%,70.980392%,61.568627%);stroke-opacity:1;stroke-miterlimit:10;" d="M 14.71875 264 L 14.863281 250.457031 "/>
<path style="fill:none;stroke-width:8;stroke-linecap:round;stroke-linejoin:round;stroke:rgb(75.686275%,70.980392%,61.568627%);stroke-opacity:1;stroke-miterlimit:10;" d="M 164.449219 184.929688 L 164.445313 193.984375 L 159.570313 193.859375 "/>
<path style="fill:none;stroke-width:8;stroke-linecap:round;stroke-linejoin:round;stroke:rgb(75.686275%,70.980392%,61.568627%);stroke-opacity:1;stroke-miterlimit:10;" d="M 91.125 176.5 L 90.9375 172.375 L 91.0625 165.25 L 89.738281 161.585938 "/>
<path style="fill:none;stroke-width:8;stroke-linecap:round;stroke-linejoin:round;stroke:rgb(75.686275%,70.980392%,61.568627%);stroke-opacity:1;stroke-miterlimit:10;" d="M 59.800781 176.945313 L 59.859375 173.015625 L 59.816406 170.222656 L 60.015625 163.683594 L 60.210938 157.371094 L 60.519531 155.710938 "/>
<path style="fill:none;stroke-width:8;stroke-linecap:round;stroke-linejoin:round;stroke:rgb(75.686275%,70.980392%,61.568627%);stroke-opacity:1;stroke-miterlimit:10;" d="M 103.050781 56.96875 L 100.5 57.3125 L 96.4375 58.625 L 92.808594 61.8125 L 90.371094 63.4375 L 87.25 63.5 L 82.78125 64.78125 "/>
<path style="fill:none;stroke-width:8;stroke-linecap:round;stroke-linejoin:round;stroke:rgb(75.686275%,70.980392%,61.568627%);stroke-opacity:1;stroke-miterlimit:10;" d="M 62.167969 154.929688 L 62.941406 154.054688 L 63.394531 153.03125 L 63.328125 150.871094 L 62.546875 149.542969 L 61.601563 148.796875 L 60.640625 148.429688 L 58.925781 148.4375 L 57.214844 149.371094 L 56.464844 150.394531 L 56.113281 151.503906 L 56.304688 153.363281 L 56.78125 154.246094 L 57.847656 155.230469 L 59.09375 155.71875 L 60.519531 155.710938 L 62.167969 154.929688 "/>
<path style="fill:none;stroke-width:8;stroke-linecap:round;stroke-linejoin:round;stroke:rgb(75.686275%,70.980392%,61.568627%);stroke-opacity:1;stroke-miterlimit:10;" d="M 185.125 181.441406 L 208.742188 181.757813 "/>
<path style="fill:none;stroke-width:8;stroke-linecap:round;stroke-linejoin:round;stroke:rgb(75.686275%,70.980392%,61.568627%);stroke-opacity:1;stroke-miterlimit:10;" d="M -1.367188 241.621094 L 8.691406 241.691406 L 13.613281 241.726563 L 18.679688 241.761719 L 21.757813 244.152344 "/>
<path style="fill:none;stroke-width:8;stroke-linecap:round;stroke-linejoin:round;stroke:rgb(75.686275%,70.980392%,61.568627%);stroke-opacity:1;stroke-miterlimit:10;" d="M 28.664063 236.523438 L 28.945313 208.652344 "/>
<path style="fill:none;stroke-width:8;stroke-linecap:round;stroke-linejoin:round;stroke:rgb(75.686275%,70.980392%,61.568627%);stroke-opacity:1;stroke-miterlimit:10;" d="M 18.679688 241.761719 L 18.957031 208.453125 "/>
<path style="fill:none;stroke-width:8;stroke-linecap:round;stroke-linejoin:round;stroke:rgb(75.686275%,70.980392%,61.568627%);stroke-opacity:1;stroke-miterlimit:10;" d="M 251.65625 213.816406 L 255.539063 213.855469 L 255.609375 208.496094 L 258.828125 208.523438 L 258.667969 226.949219 L 258.636719 230.34375 "/>
<path style="fill:none;stroke-width:8;stroke-linecap:round;stroke-linejoin:round;stroke:rgb(75.686275%,70.980392%,61.568627%);stroke-opacity:1;stroke-miterlimit:10;" d="M 159.574219 189.859375 L 122.800781 189.984375 "/>
<path style="fill:none;stroke-width:8;stroke-linecap:round;stroke-linejoin:round;stroke:rgb(75.686275%,70.980392%,61.568627%);stroke-opacity:1;stroke-miterlimit:10;" d="M 19.960938 247.03125 L 21.757813 244.152344 L 23.46875 241.414063 L 23.546875 236.484375 L 24.015625 208.554688 "/>
<path style="fill:none;stroke-width:8;stroke-linecap:round;stroke-linejoin:round;stroke:rgb(75.686275%,70.980392%,61.568627%);stroke-opacity:1;stroke-miterlimit:10;" d="M 86.640625 65.785156 L 82.78125 64.78125 L 73.4375 69.328125 L 65.417969 73.0625 L 54.976563 77.667969 L 49.175781 80.230469 L 46.332031 82.730469 "/>
<path style="fill:none;stroke-width:8;stroke-linecap:round;stroke-linejoin:round;stroke:rgb(75.686275%,70.980392%,61.568627%);stroke-opacity:1;stroke-miterlimit:10;" d="M 79.820313 183.71875 L 79.820313 188.734375 L 41.699219 188.109375 L 41.695313 183.238281 "/>
<path style="fill:none;stroke-width:8;stroke-linecap:round;stroke-linejoin:round;stroke:rgb(75.686275%,70.980392%,61.568627%);stroke-opacity:1;stroke-miterlimit:10;" d="M 54.976563 77.667969 L 56.355469 83.933594 L 55.449219 98.886719 L 58.324219 101.714844 L 61.496094 101.839844 L 64.121094 99.496094 L 64.667969 96.039063 L 65.308594 79.992188 L 65.417969 73.0625 "/>
<path style="fill:none;stroke-width:8;stroke-linecap:round;stroke-linejoin:round;stroke:rgb(75.686275%,70.980392%,61.568627%);stroke-opacity:1;stroke-miterlimit:10;" d="M 91.007813 183.859375 L 79.820313 183.71875 L 41.695313 183.238281 L 31.695313 183.109375 L 31.695313 188.109375 L 39.574219 188.234375 "/>
<path style="fill:none;stroke-width:8;stroke-linecap:round;stroke-linejoin:round;stroke:rgb(75.686275%,70.980392%,61.568627%);stroke-opacity:1;stroke-miterlimit:10;" d="M 91.007813 183.859375 L 159.574219 184.859375 L 164.449219 184.929688 L 168.199219 184.984375 "/>
<path style="fill:none;stroke-width:8;stroke-linecap:round;stroke-linejoin:round;stroke:rgb(75.686275%,70.980392%,61.568627%);stroke-opacity:1;stroke-miterlimit:10;" d="M 91.125 176.5 L 94.75 178.125 L 171.183594 178.75 "/>
<path style="fill:none;stroke-width:8;stroke-linecap:round;stroke-linejoin:round;stroke:rgb(75.686275%,70.980392%,61.568627%);stroke-opacity:1;stroke-miterlimit:10;" d="M 159.574219 184.859375 L 159.574219 189.859375 L 159.570313 193.859375 L 122.695313 194.734375 L 122.800781 189.984375 L 122.824219 188.984375 L 93.195313 188.484375 "/>
<path style="fill:none;stroke-width:8;stroke-linecap:round;stroke-linejoin:round;stroke:rgb(75.686275%,70.980392%,61.568627%);stroke-opacity:1;stroke-miterlimit:10;" d="M 13.613281 241.726563 L 14.101563 209.789063 L 15.003906 208.609375 L 16.113281 208.398438 L 18.957031 208.453125 L 24.015625 208.554688 L 28.945313 208.652344 L 33.589844 208.746094 L 33.523438 235.519531 L 32.757813 236.558594 L 28.664063 236.523438 L 23.546875 236.484375 "/>
<path style="fill:none;stroke-width:8;stroke-linecap:round;stroke-linejoin:round;stroke:rgb(75.686275%,70.980392%,61.568627%);stroke-opacity:1;stroke-miterlimit:10;" d="M -9 245.359375 L -6.152344 246.363281 L 19.960938 247.03125 L 20.128906 264 "/>
<path style="fill:none;stroke-width:8;stroke-linecap:round;stroke-linejoin:round;stroke:rgb(75.686275%,70.980392%,61.568627%);stroke-opacity:1;stroke-miterlimit:10;" d="M 210.515625 40.835938 L 208.742188 181.757813 "/>
<path style="fill:none;stroke-width:8;stroke-linecap:round;stroke-linejoin:round;stroke:rgb(75.686275%,70.980392%,61.568627%);stroke-opacity:1;stroke-miterlimit:10;" d="M 185.125 181.441406 L 184.480469 178.25 L 184.425781 171.457031 L 186.082031 35.652344 "/>
<path style="fill:none;stroke-width:8;stroke-linecap:round;stroke-linejoin:round;stroke:rgb(75.686275%,70.980392%,61.568627%);stroke-opacity:1;stroke-miterlimit:10;" d="M 208.742188 181.757813 L 208.304688 213.523438 L 207.644531 264 "/>
<path style="fill:none;stroke-width:8;stroke-linecap:round;stroke-linejoin:round;stroke:rgb(75.686275%,70.980392%,61.568627%);stroke-opacity:1;stroke-miterlimit:10;" d="M 158.039063 264 L 158.371094 241.957031 L 158.675781 238.300781 L 159.160156 235.039063 L 159.824219 232.039063 L 160.792969 228.5625 L 162.730469 222.699219 L 164.40625 218.292969 L 167.226563 212.519531 L 183.023438 186.605469 L 184.421875 183.753906 L 185.125 181.441406 "/>
<path style="fill:none;stroke-width:8;stroke-linecap:round;stroke-linejoin:round;stroke:rgb(75.686275%,70.980392%,61.568627%);stroke-opacity:1;stroke-miterlimit:10;" d="M -9 237.984375 L -8.085938 235.355469 L -4.285156 227.355469 L -0.140625 220.007813 L 4.964844 212.765625 L 9.917969 205.921875 L 11.757813 202.855469 L 13.644531 199.554688 L 15.253906 196.175781 L 16.304688 193.503906 L 17.871094 189.175781 L 19.277344 184.960938 L 19.878906 180.5625 L 19.878906 176.960938 L 20.273438 173.273438 "/>
<path style="fill:none;stroke-width:10;stroke-linecap:round;stroke-linejoin:round;stroke:rgb(72.941176%,43.137255%,15.294118%);stroke-opacity:1;stroke-miterlimit:10;" d="M 45.363281 44.546875 L 40.769531 46.804688 L 33.699219 55.675781 "/>
<path style="fill:none;stroke-width:10;stroke-linecap:round;stroke-linejoin:round;stroke:rgb(72.941176%,43.137255%,15.294118%);stroke-opacity:1;stroke-miterlimit:10;" d="M 31.886719 29.691406 L 42.488281 33.085938 L 44.886719 34.6875 L 45.941406 37.289063 L 46.277344 39.695313 L 47.117188 41.992188 "/>
<path style="fill:none;stroke-width:10;stroke-linecap:round;stroke-linejoin:round;stroke:rgb(72.941176%,43.137255%,15.294118%);stroke-opacity:1;stroke-miterlimit:10;" d="M 57.324219 28.347656 L 52.488281 31.488281 L 48.488281 32.488281 L 44.289063 32.289063 L 31.886719 29.691406 "/>
<path style="fill:none;stroke-width:10;stroke-linecap:round;stroke-linejoin:round;stroke:rgb(72.941176%,43.137255%,15.294118%);stroke-opacity:1;stroke-miterlimit:10;" d="M 120.34375 37.328125 L 124.089844 35.488281 L 139.085938 28.089844 L 147.6875 23.089844 L 155.886719 17.289063 "/>
<path style="fill:none;stroke-width:10;stroke-linecap:round;stroke-linejoin:round;stroke:rgb(72.941176%,43.137255%,15.294118%);stroke-opacity:1;stroke-miterlimit:10;" d="M 19.046875 84.542969 L -4.328125 109.898438 L -7.898438 114.074219 L -11 117.019531 "/>
<path style="fill:none;stroke-width:10;stroke-linecap:round;stroke-linejoin:round;stroke:rgb(72.941176%,43.137255%,15.294118%);stroke-opacity:1;stroke-miterlimit:10;" d="M 155.886719 17.289063 L 162.488281 11.6875 L 169.089844 4.488281 L 174.289063 -2.3125 L 180.398438 -11 "/>
<path style="fill:none;stroke-width:10;stroke-linecap:round;stroke-linejoin:round;stroke:rgb(72.941176%,43.137255%,15.294118%);stroke-opacity:1;stroke-miterlimit:10;" d="M 46.585938 71.570313 L 72.289063 61.289063 L 108.09375 43.203125 "/>
<path style="fill:none;stroke-width:10;stroke-linecap:round;stroke-linejoin:round;stroke:rgb(72.941176%,43.137255%,15.294118%);stroke-opacity:1;stroke-miterlimit:10;" d="M 160.289063 30.488281 L 164.289063 25.890625 L 167.886719 20.289063 L 171.085938 13.6875 L 180.6875 -7.710938 L 182.441406 -11 "/>
<path style="fill:none;stroke-width:10;stroke-linecap:round;stroke-linejoin:round;stroke:rgb(72.941176%,43.137255%,15.294118%);stroke-opacity:1;stroke-miterlimit:10;" d="M 8.753906 149.792969 L 6.746094 131.902344 L 6.546875 127.105469 L 6.746094 122.703125 L 7.546875 118.304688 L 8.746094 113.902344 L 11.800781 105.792969 L 15.800781 99.289063 L 22.800781 89.042969 L 28.988281 82.171875 "/>
<path style="fill:none;stroke-width:10;stroke-linecap:round;stroke-linejoin:round;stroke:rgb(72.941176%,43.137255%,15.294118%);stroke-opacity:1;stroke-miterlimit:10;" d="M 71.332031 -11 L 71.886719 -4.910156 L 71.1875 0.570313 L 69.585938 6.171875 L 65.730469 13.386719 L 59.957031 24.800781 "/>
<path style="fill:none;stroke-width:10;stroke-linecap:round;stroke-linejoin:round;stroke:rgb(72.941176%,43.137255%,15.294118%);stroke-opacity:1;stroke-miterlimit:10;" d="M 152.488281 -9.710938 L 152.289063 -4.3125 L 151.289063 0.886719 L 149.089844 6.6875 L 146.085938 11.6875 L 142.488281 15.6875 L 137.6875 19.289063 L 132.6875 21.886719 L 127.6875 23.089844 L 123.089844 23.289063 L 118.289063 22.488281 L 113.6875 20.890625 L 109.6875 18.488281 L 105.6875 14.890625 L 102.6875 10.890625 L 100.488281 6.089844 L 99.289063 1.085938 L 98.9375 -11 "/>
<path style="fill:none;stroke-width:10;stroke-linecap:round;stroke-linejoin:round;stroke:rgb(72.941176%,43.137255%,15.294118%);stroke-opacity:1;stroke-miterlimit:10;" d="M 160.289063 30.488281 L 175.339844 16.8125 L 205.277344 -11 "/>
<path style="fill:none;stroke-width:10;stroke-linecap:round;stroke-linejoin:round;stroke:rgb(72.941176%,43.137255%,15.294118%);stroke-opacity:1;stroke-miterlimit:10;" d="M 86.46875 -11 L 85.886719 -8.3125 L 85.289063 -2.109375 L 85.488281 3.285156 L 86.488281 8.886719 L 88.089844 14.085938 L 90.488281 19.6875 L 93.085938 24.488281 L 96.488281 28.6875 L 100.289063 32.488281 L 105.488281 36.488281 L 110.886719 39.488281 L 116.488281 41.289063 L 123.289063 42.691406 L 129.886719 43.089844 L 136.886719 42.488281 L 143.289063 41.089844 L 149.6875 38.488281 L 155.488281 34.6875 L 160.289063 30.488281 "/>
<path style="fill:none;stroke-width:10;stroke-linecap:round;stroke-linejoin:round;stroke:rgb(72.941176%,43.137255%,15.294118%);stroke-opacity:1;stroke-miterlimit:10;" d="M 72.289063 61.289063 L 91.691406 52.488281 L 97.6875 50.488281 L 103.6875 49.289063 L 110.488281 49.089844 L 130.886719 49.886719 L 137.488281 49.289063 L 144.289063 47.6875 L 150.488281 45.488281 L 156.289063 42.488281 L 161.488281 38.890625 L 166.289063 34.289063 L 185.6875 10.289063 L 194.089844 1.085938 L 205.914063 -11 "/>
<path style="fill:none;stroke-width:8;stroke-linecap:round;stroke-linejoin:round;stroke:rgb(75.686275%,70.980392%,61.568627%);stroke-opacity:1;stroke-miterlimit:10;" d="M 1.546875 188.503906 L 5.546875 183.703125 L 9.148438 180.703125 L 12.746094 178.902344 L 16.679688 177.558594 L 19.878906 176.960938 "/>
<path style="fill:none;stroke-width:8;stroke-linecap:round;stroke-linejoin:round;stroke:rgb(75.686275%,70.980392%,61.568627%);stroke-opacity:1;stroke-miterlimit:10;" d="M 20.273438 173.273438 L 14.53125 165.574219 L 12.542969 161.5 L 9.359375 153.390625 "/>
<path style="fill:none;stroke-width:8;stroke-linecap:round;stroke-linejoin:round;stroke:rgb(75.686275%,70.980392%,61.568627%);stroke-opacity:1;stroke-miterlimit:10;" d="M -6.652344 197.503906 L -4.253906 196.703125 L -0.851563 196.257813 L 1.625 196.414063 L 3.628906 197.003906 L 5.546875 198.300781 L 7.398438 199.949219 L 7.949219 200.90625 L 8.496094 202.816406 L 8.417969 205.09375 L 7.867188 206.980469 L 4.964844 212.765625 "/>
<path style="fill:none;stroke-width:8;stroke-linecap:round;stroke-linejoin:round;stroke:rgb(75.686275%,70.980392%,61.568627%);stroke-opacity:1;stroke-miterlimit:10;" d="M 16.304688 193.503906 L 22.277344 185.359375 L 25.078125 181.757813 L 28.675781 179.160156 L 33.078125 177.359375 L 39.925781 177.144531 "/>
<path style="fill:none;stroke-width:8;stroke-linecap:round;stroke-linejoin:round;stroke:rgb(75.686275%,70.980392%,61.568627%);stroke-opacity:1;stroke-miterlimit:10;" d="M 251.78125 191.699219 L 264 193.484375 "/>
<path style="fill:none;stroke-width:8;stroke-linecap:round;stroke-linejoin:round;stroke:rgb(75.686275%,70.980392%,61.568627%);stroke-opacity:1;stroke-miterlimit:10;" d="M 31.886719 29.691406 L 27.890625 28.089844 L 22.289063 24.6875 L -7.710938 3.285156 "/>
<path style="fill:none;stroke-width:8;stroke-linecap:round;stroke-linejoin:round;stroke:rgb(75.686275%,70.980392%,61.568627%);stroke-opacity:1;stroke-miterlimit:10;" d="M 9.359375 153.390625 L 8.753906 149.792969 L 7.546875 146.304688 L 4.949219 141.503906 L 1.347656 137.304688 L -2.851563 133.902344 L -8.050781 131.105469 L -9 130.847656 "/>
<path style="fill:none;stroke-width:8;stroke-linecap:round;stroke-linejoin:round;stroke:rgb(75.686275%,70.980392%,61.568627%);stroke-opacity:1;stroke-miterlimit:10;" d="M 253.671875 73.003906 L 264 73.019531 "/>
<path style="fill:none;stroke-width:8;stroke-linecap:round;stroke-linejoin:round;stroke:rgb(75.686275%,70.980392%,61.568627%);stroke-opacity:1;stroke-miterlimit:10;" d="M 33.699219 55.675781 L 8.972656 91.144531 L -8.179688 112.90625 L -9 113.855469 "/>
<path style="fill:none;stroke-width:8;stroke-linecap:round;stroke-linejoin:round;stroke:rgb(75.686275%,70.980392%,61.568627%);stroke-opacity:1;stroke-miterlimit:10;" d="M -9 199.070313 L -6.652344 197.503906 L -2.25 193.300781 L 1.546875 188.503906 L 4.546875 183.105469 L 7.148438 176.902344 L 8.949219 170.503906 L 9.75 163.703125 L 9.75 157.300781 L 9.359375 153.390625 "/>
<path style="fill:none;stroke-width:8;stroke-linecap:round;stroke-linejoin:round;stroke:rgb(75.686275%,70.980392%,61.568627%);stroke-opacity:1;stroke-miterlimit:10;" d="M 254.746094 -9 L 253.671875 73.003906 L 252.808594 118.597656 L 251.78125 191.699219 L 251.65625 213.816406 L 251.535156 226.4375 L 251.171875 264 "/>
<path style="fill:none;stroke-width:8;stroke-linecap:round;stroke-linejoin:round;stroke:rgb(75.686275%,70.980392%,61.568627%);stroke-opacity:1;stroke-miterlimit:10;" d="M 19.878906 176.960938 L 25.308594 177.027344 L 31.738281 176.824219 L 39.925781 177.144531 L 59.800781 176.945313 L 68.667969 177.011719 L 73.402344 176.507813 L 79.488281 175.1875 L 83.882813 172.128906 L 84.953125 171.382813 L 87.519531 167.597656 L 89.050781 164.28125 L 89.738281 161.585938 L 90.285156 159.457031 L 90.789063 152.640625 L 91.753906 115.464844 L 91.464844 93.84375 L 91.601563 78.070313 L 92.285156 73.207031 L 94.160156 68.289063 L 96.789063 64.378906 L 100.308594 61.460938 L 103.78125 59.5625 L 108.570313 58.550781 L 114.28125 58.695313 L 124.984375 58.722656 L 131.507813 58.621094 L 138.621094 57.25 L 145.683594 55.335938 L 153.074219 52.207031 L 159.074219 48.804688 L 164.472656 44.804688 L 169.988281 39.914063 L 212.78125 -9 "/>
<path style="fill:none;stroke-width:8;stroke-linecap:round;stroke-linejoin:round;stroke:rgb(75.686275%,70.980392%,61.568627%);stroke-opacity:1;stroke-miterlimit:10;" d="M 20.273438 173.273438 L 25.300781 173.5 L 31.640625 173.332031 L 40.140625 172.761719 L 54.960938 173.035156 L 59.859375 173.015625 L 65.742188 173.128906 L 68.457031 173.320313 L 72.484375 172.859375 L 77.824219 171.066406 L 79.699219 169.796875 L 81.4375 168.617188 L 83.761719 166.058594 L 86.289063 162.539063 L 87.769531 158.992188 L 88.253906 152.484375 L 89.019531 117.578125 L 89.011719 115.320313 L 88.925781 93.800781 L 89.066406 77.839844 L 89.40625 72.667969 L 90.859375 67.191406 L 94.457031 62.179688 L 98.488281 58.898438 L 103.050781 56.96875 L 108.476563 55.820313 L 114.476563 55.96875 L 125.171875 56.328125 L 131.925781 56.050781 L 138.820313 55.117188 L 146.203125 52.8125 L 152.566406 50.410156 L 159.136719 46.332031 L 163.71875 42.828125 L 168.714844 38.058594 L 209.359375 -9 "/>
<path style="fill:none;stroke-width:11;stroke-linecap:round;stroke-linejoin:round;stroke:rgb(72.941176%,43.137255%,15.294118%);stroke-opacity:1;stroke-miterlimit:10;" d="M 83.070313 -12 L 79.585938 -4.425781 L 74.589844 4.171875 L 70.773438 9.964844 "/>
<path style="fill:none;stroke-width:11;stroke-linecap:round;stroke-linejoin:round;stroke:rgb(72.941176%,43.137255%,15.294118%);stroke-opacity:1;stroke-miterlimit:10;" d="M 91.96875 17.699219 L 93.785156 9.972656 L 94.988281 2.371094 L 95.984375 -6.226563 L 96.347656 -12 "/>
<path style="fill:none;stroke-width:11;stroke-linecap:round;stroke-linejoin:round;stroke:rgb(72.941176%,43.137255%,15.294118%);stroke-opacity:1;stroke-miterlimit:10;" d="M 70.773438 9.964844 L 69.1875 12.375 L 59.957031 24.800781 L 57.324219 28.347656 L 47.117188 41.992188 L 45.363281 44.546875 L 19.046875 84.542969 L 6.546875 102.503906 L -1.453125 116.101563 L -7.25 127.304688 "/>
<path style="fill:none;stroke-width:11;stroke-linecap:round;stroke-linejoin:round;stroke:rgb(72.941176%,43.137255%,15.294118%);stroke-opacity:1;stroke-miterlimit:10;" d="M -3.453125 128.703125 L 1.546875 118.503906 L 10.1875 103.972656 L 15.988281 95.570313 L 21.585938 88.773438 L 28.988281 82.171875 L 36.789063 76.570313 L 46.585938 71.570313 L 55.988281 66.972656 L 62.589844 62.773438 L 69.386719 57.574219 L 74.988281 51.773438 L 80.988281 44.171875 L 85.386719 36.171875 L 89.71875 24.453125 "/>
<path style="fill:none;stroke-width:6;stroke-linecap:round;stroke-linejoin:round;stroke:rgb(100%,100%,100%);stroke-opacity:1;stroke-miterlimit:10;" d="M 91.753906 115.464844 L 90.183594 115.410156 "/>
<path style="fill:none;stroke-width:6;stroke-linecap:round;stroke-linejoin:round;stroke:rgb(100%,100%,100%);stroke-opacity:1;stroke-miterlimit:10;" d="M 73.4375 69.328125 L 74.871094 72.34375 "/>
<path style="fill:none;stroke-width:6;stroke-linecap:round;stroke-linejoin:round;stroke:rgb(100%,100%,100%);stroke-opacity:1;stroke-miterlimit:10;" d="M 251.535156 226.4375 L 255.421875 226.4375 "/>
<path style="fill:none;stroke-width:6;stroke-linecap:round;stroke-linejoin:round;stroke:rgb(100%,100%,100%);stroke-opacity:1;stroke-miterlimit:10;" d="M 56.113281 151.503906 L 51.847656 151.523438 "/>
<path style="fill:none;stroke-width:6;stroke-linecap:round;stroke-linejoin:round;stroke:rgb(100%,100%,100%);stroke-opacity:1;stroke-miterlimit:10;" d="M 90.183594 115.410156 L 89.011719 115.320313 L 83.246094 115.25 "/>
<path style="fill:none;stroke-width:6;stroke-linecap:round;stroke-linejoin:round;stroke:rgb(100%,100%,100%);stroke-opacity:1;stroke-miterlimit:10;" d="M 91.753906 115.464844 L 98.996094 115.496094 "/>
<path style="fill:none;stroke-width:6;stroke-linecap:round;stroke-linejoin:round;stroke:rgb(100%,100%,100%);stroke-opacity:1;stroke-miterlimit:10;" d="M 91.125 176.5 L 91.007813 180.464844 L 91.007813 183.859375 "/>
<path style="fill:none;stroke-width:6;stroke-linecap:round;stroke-linejoin:round;stroke:rgb(100%,100%,100%);stroke-opacity:1;stroke-miterlimit:10;" d="M 89.40625 72.667969 L 86.640625 65.785156 "/>
<path style="fill:none;stroke-width:6;stroke-linecap:round;stroke-linejoin:round;stroke:rgb(100%,100%,100%);stroke-opacity:1;stroke-miterlimit:10;" d="M 86.640625 65.785156 L 90.859375 67.191406 L 94.160156 68.289063 "/>
<path style="fill:none;stroke-width:6;stroke-linecap:round;stroke-linejoin:round;stroke:rgb(100%,100%,100%);stroke-opacity:1;stroke-miterlimit:10;" d="M 168.199219 184.984375 L 168.199219 194.109375 L 164.445313 193.984375 "/>
<path style="fill:none;stroke-width:6;stroke-linecap:round;stroke-linejoin:round;stroke:rgb(100%,100%,100%);stroke-opacity:1;stroke-miterlimit:10;" d="M 8.691406 241.691406 L 8.902344 228.71875 "/>
<path style="fill:none;stroke-width:6;stroke-linecap:round;stroke-linejoin:round;stroke:rgb(100%,100%,100%);stroke-opacity:1;stroke-miterlimit:10;" d="M 91.125 176.5 L 83.882813 172.128906 L 79.699219 169.796875 "/>
<path style="fill:none;stroke-width:6;stroke-linecap:round;stroke-linejoin:round;stroke:rgb(100%,100%,100%);stroke-opacity:1;stroke-miterlimit:10;" d="M 4.664063 263.921875 L 4.875 250.523438 "/>
<path style="fill:none;stroke-width:6;stroke-linecap:round;stroke-linejoin:round;stroke:rgb(100%,100%,100%);stroke-opacity:1;stroke-miterlimit:10;" d="M 60.015625 163.683594 L 73.464844 163.652344 "/>
<path style="fill:none;stroke-width:6;stroke-linecap:round;stroke-linejoin:round;stroke:rgb(100%,100%,100%);stroke-opacity:1;stroke-miterlimit:10;" d="M 9.515625 264 L 9.519531 250.496094 "/>
<path style="fill:none;stroke-width:6;stroke-linecap:round;stroke-linejoin:round;stroke:rgb(100%,100%,100%);stroke-opacity:1;stroke-miterlimit:10;" d="M 14.71875 264 L 14.863281 250.457031 "/>
<path style="fill:none;stroke-width:6;stroke-linecap:round;stroke-linejoin:round;stroke:rgb(100%,100%,100%);stroke-opacity:1;stroke-miterlimit:10;" d="M 164.449219 184.929688 L 164.445313 193.984375 L 159.570313 193.859375 "/>
<path style="fill:none;stroke-width:6;stroke-linecap:round;stroke-linejoin:round;stroke:rgb(100%,100%,100%);stroke-opacity:1;stroke-miterlimit:10;" d="M 91.125 176.5 L 90.9375 172.375 L 91.0625 165.25 L 89.738281 161.585938 "/>
<path style="fill:none;stroke-width:6;stroke-linecap:round;stroke-linejoin:round;stroke:rgb(100%,100%,100%);stroke-opacity:1;stroke-miterlimit:10;" d="M 59.800781 176.945313 L 59.859375 173.015625 L 59.816406 170.222656 L 60.015625 163.683594 L 60.210938 157.371094 L 60.519531 155.710938 "/>
<path style="fill:none;stroke-width:6;stroke-linecap:round;stroke-linejoin:round;stroke:rgb(100%,100%,100%);stroke-opacity:1;stroke-miterlimit:10;" d="M 103.050781 56.96875 L 100.5 57.3125 L 96.4375 58.625 L 92.808594 61.8125 L 90.371094 63.4375 L 87.25 63.5 L 82.78125 64.78125 "/>
<path style="fill:none;stroke-width:6;stroke-linecap:round;stroke-linejoin:round;stroke:rgb(100%,100%,100%);stroke-opacity:1;stroke-miterlimit:10;" d="M 62.167969 154.929688 L 62.941406 154.054688 L 63.394531 153.03125 L 63.328125 150.871094 L 62.546875 149.542969 L 61.601563 148.796875 L 60.640625 148.429688 L 58.925781 148.4375 L 57.214844 149.371094 L 56.464844 150.394531 L 56.113281 151.503906 L 56.304688 153.363281 L 56.78125 154.246094 L 57.847656 155.230469 L 59.09375 155.71875 L 60.519531 155.710938 L 62.167969 154.929688 "/>
<path style="fill:none;stroke-width:6;stroke-linecap:round;stroke-linejoin:round;stroke:rgb(100%,100%,100%);stroke-opacity:1;stroke-miterlimit:10;" d="M 185.125 181.441406 L 208.742188 181.757813 "/>
<path style="fill:none;stroke-width:6;stroke-linecap:round;stroke-linejoin:round;stroke:rgb(100%,100%,100%);stroke-opacity:1;stroke-miterlimit:10;" d="M -1.367188 241.621094 L 8.691406 241.691406 L 13.613281 241.726563 L 18.679688 241.761719 L 21.757813 244.152344 "/>
<path style="fill:none;stroke-width:6;stroke-linecap:round;stroke-linejoin:round;stroke:rgb(100%,100%,100%);stroke-opacity:1;stroke-miterlimit:10;" d="M 28.664063 236.523438 L 28.945313 208.652344 "/>
<path style="fill:none;stroke-width:6;stroke-linecap:round;stroke-linejoin:round;stroke:rgb(100%,100%,100%);stroke-opacity:1;stroke-miterlimit:10;" d="M 18.679688 241.761719 L 18.957031 208.453125 "/>
<path style="fill:none;stroke-width:6;stroke-linecap:round;stroke-linejoin:round;stroke:rgb(100%,100%,100%);stroke-opacity:1;stroke-miterlimit:10;" d="M 251.65625 213.816406 L 255.539063 213.855469 L 255.609375 208.496094 L 258.828125 208.523438 L 258.667969 226.949219 L 258.636719 230.34375 "/>
<path style="fill:none;stroke-width:6;stroke-linecap:round;stroke-linejoin:round;stroke:rgb(100%,100%,100%);stroke-opacity:1;stroke-miterlimit:10;" d="M 159.574219 189.859375 L 122.800781 189.984375 "/>
<path style="fill:none;stroke-width:6;stroke-linecap:round;stroke-linejoin:round;stroke:rgb(100%,100%,100%);stroke-opacity:1;stroke-miterlimit:10;" d="M 19.960938 247.03125 L 21.757813 244.152344 L 23.46875 241.414063 L 23.546875 236.484375 L 24.015625 208.554688 "/>
<path style="fill:none;stroke-width:6;stroke-linecap:round;stroke-linejoin:round;stroke:rgb(100%,100%,100%);stroke-opacity:1;stroke-miterlimit:10;" d="M 86.640625 65.785156 L 82.78125 64.78125 L 73.4375 69.328125 L 65.417969 73.0625 L 54.976563 77.667969 L 49.175781 80.230469 L 46.332031 82.730469 "/>
<path style="fill:none;stroke-width:6;stroke-linecap:round;stroke-linejoin:round;stroke:rgb(100%,100%,100%);stroke-opacity:1;stroke-miterlimit:10;" d="M 79.820313 183.71875 L 79.820313 188.734375 L 41.699219 188.109375 L 41.695313 183.238281 "/>
<path style="fill:none;stroke-width:6;stroke-linecap:round;stroke-linejoin:round;stroke:rgb(100%,100%,100%);stroke-opacity:1;stroke-miterlimit:10;" d="M 54.976563 77.667969 L 56.355469 83.933594 L 55.449219 98.886719 L 58.324219 101.714844 L 61.496094 101.839844 L 64.121094 99.496094 L 64.667969 96.039063 L 65.308594 79.992188 L 65.417969 73.0625 "/>
<path style="fill:none;stroke-width:6;stroke-linecap:round;stroke-linejoin:round;stroke:rgb(100%,100%,100%);stroke-opacity:1;stroke-miterlimit:10;" d="M 91.007813 183.859375 L 79.820313 183.71875 L 41.695313 183.238281 L 31.695313 183.109375 L 31.695313 188.109375 L 39.574219 188.234375 "/>
<path style="fill:none;stroke-width:6;stroke-linecap:round;stroke-linejoin:round;stroke:rgb(100%,100%,100%);stroke-opacity:1;stroke-miterlimit:10;" d="M 91.007813 183.859375 L 159.574219 184.859375 L 164.449219 184.929688 L 168.199219 184.984375 "/>
<path style="fill:none;stroke-width:6;stroke-linecap:round;stroke-linejoin:round;stroke:rgb(100%,100%,100%);stroke-opacity:1;stroke-miterlimit:10;" d="M 91.125 176.5 L 94.75 178.125 L 171.183594 178.75 "/>
<path style="fill:none;stroke-width:6;stroke-linecap:round;stroke-linejoin:round;stroke:rgb(100%,100%,100%);stroke-opacity:1;stroke-miterlimit:10;" d="M 159.574219 184.859375 L 159.574219 189.859375 L 159.570313 193.859375 L 122.695313 194.734375 L 122.800781 189.984375 L 122.824219 188.984375 L 93.195313 188.484375 "/>
<path style="fill:none;stroke-width:6;stroke-linecap:round;stroke-linejoin:round;stroke:rgb(100%,100%,100%);stroke-opacity:1;stroke-miterlimit:10;" d="M 13.613281 241.726563 L 14.101563 209.789063 L 15.003906 208.609375 L 16.113281 208.398438 L 18.957031 208.453125 L 24.015625 208.554688 L 28.945313 208.652344 L 33.589844 208.746094 L 33.523438 235.519531 L 32.757813 236.558594 L 28.664063 236.523438 L 23.546875 236.484375 "/>
<path style="fill:none;stroke-width:6;stroke-linecap:round;stroke-linejoin:round;stroke:rgb(100%,100%,100%);stroke-opacity:1;stroke-miterlimit:10;" d="M -9 245.359375 L -6.152344 246.363281 L 19.960938 247.03125 L 20.128906 264 "/>
<path style="fill:none;stroke-width:6;stroke-linecap:round;stroke-linejoin:round;stroke:rgb(100%,100%,100%);stroke-opacity:1;stroke-miterlimit:10;" d="M 210.515625 40.835938 L 208.742188 181.757813 "/>
<path style="fill:none;stroke-width:6;stroke-linecap:round;stroke-linejoin:round;stroke:rgb(100%,100%,100%);stroke-opacity:1;stroke-miterlimit:10;" d="M 185.125 181.441406 L 184.480469 178.25 L 184.425781 171.457031 L 186.082031 35.652344 "/>
<path style="fill:none;stroke-width:6;stroke-linecap:round;stroke-linejoin:round;stroke:rgb(100%,100%,100%);stroke-opacity:1;stroke-miterlimit:10;" d="M 208.742188 181.757813 L 208.304688 213.523438 L 207.644531 264 "/>
<path style="fill:none;stroke-width:6;stroke-linecap:round;stroke-linejoin:round;stroke:rgb(100%,100%,100%);stroke-opacity:1;stroke-miterlimit:10;" d="M 158.039063 264 L 158.371094 241.957031 L 158.675781 238.300781 L 159.160156 235.039063 L 159.824219 232.039063 L 160.792969 228.5625 L 162.730469 222.699219 L 164.40625 218.292969 L 167.226563 212.519531 L 183.023438 186.605469 L 184.421875 183.753906 L 185.125 181.441406 "/>
<path style="fill:none;stroke-width:6;stroke-linecap:round;stroke-linejoin:round;stroke:rgb(100%,100%,100%);stroke-opacity:1;stroke-miterlimit:10;" d="M -9 237.984375 L -8.085938 235.355469 L -4.285156 227.355469 L -0.140625 220.007813 L 4.964844 212.765625 L 9.917969 205.921875 L 11.757813 202.855469 L 13.644531 199.554688 L 15.253906 196.175781 L 16.304688 193.503906 L 17.871094 189.175781 L 19.277344 184.960938 L 19.878906 180.5625 L 19.878906 176.960938 L 20.273438 173.273438 "/>
<path style="fill:none;stroke-width:8;stroke-linecap:round;stroke-linejoin:round;stroke:rgb(99.215686%,57.254902%,22.745098%);stroke-opacity:1;stroke-miterlimit:10;" d="M 45.363281 44.546875 L 40.769531 46.804688 L 33.699219 55.675781 "/>
<path style="fill:none;stroke-width:8;stroke-linecap:round;stroke-linejoin:round;stroke:rgb(99.215686%,57.254902%,22.745098%);stroke-opacity:1;stroke-miterlimit:10;" d="M 31.886719 29.691406 L 42.488281 33.085938 L 44.886719 34.6875 L 45.941406 37.289063 L 46.277344 39.695313 L 47.117188 41.992188 "/>
<path style="fill:none;stroke-width:8;stroke-linecap:round;stroke-linejoin:round;stroke:rgb(99.215686%,57.254902%,22.745098%);stroke-opacity:1;stroke-miterlimit:10;" d="M 57.324219 28.347656 L 52.488281 31.488281 L 48.488281 32.488281 L 44.289063 32.289063 L 31.886719 29.691406 "/>
<path style="fill:none;stroke-width:8;stroke-linecap:round;stroke-linejoin:round;stroke:rgb(99.215686%,57.254902%,22.745098%);stroke-opacity:1;stroke-miterlimit:10;" d="M 120.34375 37.328125 L 124.089844 35.488281 L 139.085938 28.089844 L 147.6875 23.089844 L 155.886719 17.289063 "/>
<path style="fill:none;stroke-width:8;stroke-linecap:round;stroke-linejoin:round;stroke:rgb(99.215686%,57.254902%,22.745098%);stroke-opacity:1;stroke-miterlimit:10;" d="M 19.046875 84.542969 L -4.328125 109.898438 L -7.898438 114.074219 L -11 117.019531 "/>
<path style="fill:none;stroke-width:8;stroke-linecap:round;stroke-linejoin:round;stroke:rgb(99.215686%,57.254902%,22.745098%);stroke-opacity:1;stroke-miterlimit:10;" d="M 155.886719 17.289063 L 162.488281 11.6875 L 169.089844 4.488281 L 174.289063 -2.3125 L 180.398438 -11 "/>
<path style="fill:none;stroke-width:8;stroke-linecap:round;stroke-linejoin:round;stroke:rgb(99.215686%,57.254902%,22.745098%);stroke-opacity:1;stroke-miterlimit:10;" d="M 46.585938 71.570313 L 72.289063 61.289063 L 108.09375 43.203125 "/>
<path style="fill:none;stroke-width:8;stroke-linecap:round;stroke-linejoin:round;stroke:rgb(99.215686%,57.254902%,22.745098%);stroke-opacity:1;stroke-miterlimit:10;" d="M 160.289063 30.488281 L 164.289063 25.890625 L 167.886719 20.289063 L 171.085938 13.6875 L 180.6875 -7.710938 L 182.441406 -11 "/>
<path style="fill:none;stroke-width:8;stroke-linecap:round;stroke-linejoin:round;stroke:rgb(99.215686%,57.254902%,22.745098%);stroke-opacity:1;stroke-miterlimit:10;" d="M 8.753906 149.792969 L 6.746094 131.902344 L 6.546875 127.105469 L 6.746094 122.703125 L 7.546875 118.304688 L 8.746094 113.902344 L 11.800781 105.792969 L 15.800781 99.289063 L 22.800781 89.042969 L 28.988281 82.171875 "/>
<path style="fill:none;stroke-width:8;stroke-linecap:round;stroke-linejoin:round;stroke:rgb(99.215686%,57.254902%,22.745098%);stroke-opacity:1;stroke-miterlimit:10;" d="M 71.332031 -11 L 71.886719 -4.910156 L 71.1875 0.570313 L 69.585938 6.171875 L 65.730469 13.386719 L 59.957031 24.800781 "/>
<path style="fill:none;stroke-width:8;stroke-linecap:round;stroke-linejoin:round;stroke:rgb(99.215686%,57.254902%,22.745098%);stroke-opacity:1;stroke-miterlimit:10;" d="M 152.488281 -9.710938 L 152.289063 -4.3125 L 151.289063 0.886719 L 149.089844 6.6875 L 146.085938 11.6875 L 142.488281 15.6875 L 137.6875 19.289063 L 132.6875 21.886719 L 127.6875 23.089844 L 123.089844 23.289063 L 118.289063 22.488281 L 113.6875 20.890625 L 109.6875 18.488281 L 105.6875 14.890625 L 102.6875 10.890625 L 100.488281 6.089844 L 99.289063 1.085938 L 98.9375 -11 "/>
<path style="fill:none;stroke-width:8;stroke-linecap:round;stroke-linejoin:round;stroke:rgb(99.215686%,57.254902%,22.745098%);stroke-opacity:1;stroke-miterlimit:10;" d="M 160.289063 30.488281 L 175.339844 16.8125 L 205.277344 -11 "/>
<path style="fill:none;stroke-width:8;stroke-linecap:round;stroke-linejoin:round;stroke:rgb(99.215686%,57.254902%,22.745098%);stroke-opacity:1;stroke-miterlimit:10;" d="M 86.46875 -11 L 85.886719 -8.3125 L 85.289063 -2.109375 L 85.488281 3.285156 L 86.488281 8.886719 L 88.089844 14.085938 L 90.488281 19.6875 L 93.085938 24.488281 L 96.488281 28.6875 L 100.289063 32.488281 L 105.488281 36.488281 L 110.886719 39.488281 L 116.488281 41.289063 L 123.289063 42.691406 L 129.886719 43.089844 L 136.886719 42.488281 L 143.289063 41.089844 L 149.6875 38.488281 L 155.488281 34.6875 L 160.289063 30.488281 "/>
<path style="fill:none;stroke-width:8;stroke-linecap:round;stroke-linejoin:round;stroke:rgb(99.215686%,57.254902%,22.745098%);stroke-opacity:1;stroke-miterlimit:10;" d="M 72.289063 61.289063 L 91.691406 52.488281 L 97.6875 50.488281 L 103.6875 49.289063 L 110.488281 49.089844 L 130.886719 49.886719 L 137.488281 49.289063 L 144.289063 47.6875 L 150.488281 45.488281 L 156.289063 42.488281 L 161.488281 38.890625 L 166.289063 34.289063 L 185.6875 10.289063 L 194.089844 1.085938 L 205.914063 -11 "/>
<path style="fill:none;stroke-width:6;stroke-linecap:round;stroke-linejoin:round;stroke:rgb(100%,100%,100%);stroke-opacity:1;stroke-miterlimit:10;" d="M 1.546875 188.503906 L 5.546875 183.703125 L 9.148438 180.703125 L 12.746094 178.902344 L 16.679688 177.558594 L 19.878906 176.960938 "/>
<path style="fill:none;stroke-width:6;stroke-linecap:round;stroke-linejoin:round;stroke:rgb(100%,100%,100%);stroke-opacity:1;stroke-miterlimit:10;" d="M 20.273438 173.273438 L 14.53125 165.574219 L 12.542969 161.5 L 9.359375 153.390625 "/>
<path style="fill:none;stroke-width:6;stroke-linecap:round;stroke-linejoin:round;stroke:rgb(100%,100%,100%);stroke-opacity:1;stroke-miterlimit:10;" d="M -6.652344 197.503906 L -4.253906 196.703125 L -0.851563 196.257813 L 1.625 196.414063 L 3.628906 197.003906 L 5.546875 198.300781 L 7.398438 199.949219 L 7.949219 200.90625 L 8.496094 202.816406 L 8.417969 205.09375 L 7.867188 206.980469 L 4.964844 212.765625 "/>
<path style="fill:none;stroke-width:6;stroke-linecap:round;stroke-linejoin:round;stroke:rgb(100%,100%,100%);stroke-opacity:1;stroke-miterlimit:10;" d="M 16.304688 193.503906 L 22.277344 185.359375 L 25.078125 181.757813 L 28.675781 179.160156 L 33.078125 177.359375 L 39.925781 177.144531 "/>
<path style="fill:none;stroke-width:6;stroke-linecap:round;stroke-linejoin:round;stroke:rgb(100%,100%,100%);stroke-opacity:1;stroke-miterlimit:10;" d="M 251.78125 191.699219 L 264 193.484375 "/>
<path style="fill:none;stroke-width:6;stroke-linecap:round;stroke-linejoin:round;stroke:rgb(100%,100%,100%);stroke-opacity:1;stroke-miterlimit:10;" d="M 31.886719 29.691406 L 27.890625 28.089844 L 22.289063 24.6875 L -7.710938 3.285156 "/>
<path style="fill:none;stroke-width:6;stroke-linecap:round;stroke-linejoin:round;stroke:rgb(100%,100%,100%);stroke-opacity:1;stroke-miterlimit:10;" d="M 9.359375 153.390625 L 8.753906 149.792969 L 7.546875 146.304688 L 4.949219 141.503906 L 1.347656 137.304688 L -2.851563 133.902344 L -8.050781 131.105469 L -9 130.847656 "/>
<path style="fill:none;stroke-width:6;stroke-linecap:round;stroke-linejoin:round;stroke:rgb(100%,100%,100%);stroke-opacity:1;stroke-miterlimit:10;" d="M 253.671875 73.003906 L 264 73.019531 "/>
<path style="fill:none;stroke-width:6;stroke-linecap:round;stroke-linejoin:round;stroke:rgb(100%,100%,100%);stroke-opacity:1;stroke-miterlimit:10;" d="M 33.699219 55.675781 L 8.972656 91.144531 L -8.179688 112.90625 L -9 113.855469 "/>
<path style="fill:none;stroke-width:6;stroke-linecap:round;stroke-linejoin:round;stroke:rgb(100%,100%,100%);stroke-opacity:1;stroke-miterlimit:10;" d="M -9 199.070313 L -6.652344 197.503906 L -2.25 193.300781 L 1.546875 188.503906 L 4.546875 183.105469 L 7.148438 176.902344 L 8.949219 170.503906 L 9.75 163.703125 L 9.75 157.300781 L 9.359375 153.390625 "/>
<path style="fill:none;stroke-width:6;stroke-linecap:round;stroke-linejoin:round;stroke:rgb(100%,100%,100%);stroke-opacity:1;stroke-miterlimit:10;" d="M 254.746094 -9 L 253.671875 73.003906 L 252.808594 118.597656 L 251.78125 191.699219 L 251.65625 213.816406 L 251.535156 226.4375 L 251.171875 264 "/>
<path style="fill:none;stroke-width:6;stroke-linecap:round;stroke-linejoin:round;stroke:rgb(100%,100%,100%);stroke-opacity:1;stroke-miterlimit:10;" d="M 19.878906 176.960938 L 25.308594 177.027344 L 31.738281 176.824219 L 39.925781 177.144531 L 59.800781 176.945313 L 68.667969 177.011719 L 73.402344 176.507813 L 79.488281 175.1875 L 83.882813 172.128906 L 84.953125 171.382813 L 87.519531 167.597656 L 89.050781 164.28125 L 89.738281 161.585938 L 90.285156 159.457031 L 90.789063 152.640625 L 91.753906 115.464844 L 91.464844 93.84375 L 91.601563 78.070313 L 92.285156 73.207031 L 94.160156 68.289063 L 96.789063 64.378906 L 100.308594 61.460938 L 103.78125 59.5625 L 108.570313 58.550781 L 114.28125 58.695313 L 124.984375 58.722656 L 131.507813 58.621094 L 138.621094 57.25 L 145.683594 55.335938 L 153.074219 52.207031 L 159.074219 48.804688 L 164.472656 44.804688 L 169.988281 39.914063 L 212.78125 -9 "/>
<path style="fill:none;stroke-width:6;stroke-linecap:round;stroke-linejoin:round;stroke:rgb(100%,100%,100%);stroke-opacity:1;stroke-miterlimit:10;" d="M 20.273438 173.273438 L 25.300781 173.5 L 31.640625 173.332031 L 40.140625 172.761719 L 54.960938 173.035156 L 59.859375 173.015625 L 65.742188 173.128906 L 68.457031 173.320313 L 72.484375 172.859375 L 77.824219 171.066406 L 79.699219 169.796875 L 81.4375 168.617188 L 83.761719 166.058594 L 86.289063 162.539063 L 87.769531 158.992188 L 88.253906 152.484375 L 89.019531 117.578125 L 89.011719 115.320313 L 88.925781 93.800781 L 89.066406 77.839844 L 89.40625 72.667969 L 90.859375 67.191406 L 94.457031 62.179688 L 98.488281 58.898438 L 103.050781 56.96875 L 108.476563 55.820313 L 114.476563 55.96875 L 125.171875 56.328125 L 131.925781 56.050781 L 138.820313 55.117188 L 146.203125 52.8125 L 152.566406 50.410156 L 159.136719 46.332031 L 163.71875 42.828125 L 168.714844 38.058594 L 209.359375 -9 "/>
<path style="fill:none;stroke-width:9;stroke-linecap:round;stroke-linejoin:round;stroke:rgb(99.215686%,57.254902%,22.745098%);stroke-opacity:1;stroke-miterlimit:10;" d="M 83.070313 -12 L 79.585938 -4.425781 L 74.589844 4.171875 L 70.773438 9.964844 "/>
<path style="fill:none;stroke-width:9;stroke-linecap:round;stroke-linejoin:round;stroke:rgb(99.215686%,57.254902%,22.745098%);stroke-opacity:1;stroke-miterlimit:10;" d="M 91.96875 17.699219 L 93.785156 9.972656 L 94.988281 2.371094 L 95.984375 -6.226563 L 96.347656 -12 "/>
<path style="fill:none;stroke-width:9;stroke-linecap:round;stroke-linejoin:round;stroke:rgb(99.215686%,57.254902%,22.745098%);stroke-opacity:1;stroke-miterlimit:10;" d="M 70.773438 9.964844 L 69.1875 12.375 L 59.957031 24.800781 L 57.324219 28.347656 L 47.117188 41.992188 L 45.363281 44.546875 L 19.046875 84.542969 L 6.546875 102.503906 L -1.453125 116.101563 L -7.25 127.304688 "/>
<path style="fill:none;stroke-width:9;stroke-linecap:round;stroke-linejoin:round;stroke:rgb(99.215686%,57.254902%,22.745098%);stroke-opacity:1;stroke-miterlimit:10;" d="M -3.453125 128.703125 L 1.546875 118.503906 L 10.1875 103.972656 L 15.988281 95.570313 L 21.585938 88.773438 L 28.988281 82.171875 L 36.789063 76.570313 L 46.585938 71.570313 L 55.988281 66.972656 L 62.589844 62.773438 L 69.386719 57.574219 L 74.988281 51.773438 L 80.988281 44.171875 L 85.386719 36.171875 L 89.71875 24.453125 "/>
<path style="fill:none;stroke-width:10;stroke-linecap:butt;stroke-linejoin:round;stroke:rgb(53.333333%,53.333333%,53.333333%);stroke-opacity:1;stroke-miterlimit:10;" d="M 108.09375 43.203125 L 120.34375 37.328125 "/>
<path style="fill:none;stroke-width:11;stroke-linecap:butt;stroke-linejoin:round;stroke:rgb(53.333333%,53.333333%,53.333333%);stroke-opacity:1;stroke-miterlimit:10;" d="M 89.71875 24.453125 L 91.96875 17.699219 "/>
<path style="fill:none;stroke-width:8;stroke-linecap:round;stroke-linejoin:round;stroke:rgb(99.215686%,57.254902%,22.745098%);stroke-opacity:1;stroke-miterlimit:10;" d="M 108.09375 43.203125 L 120.34375 37.328125 "/>
<path style="fill:none;stroke-width:9;stroke-linecap:round;stroke-linejoin:round;stroke:rgb(99.215686%,57.254902%,22.745098%);stroke-opacity:1;stroke-miterlimit:10;" d="M 89.71875 24.453125 L 91.96875 17.699219 "/>
<path style="fill:none;stroke-width:4;stroke-linecap:round;stroke-linejoin:round;stroke:rgb(70.588235%,70.588235%,70.588235%);stroke-opacity:1;stroke-miterlimit:10;" d="M 196.539063 180.363281 L 195.675781 185.851563 L 194.167969 190.429688 L 191.6875 195.417969 L 180.183594 214.808594 L 177.363281 219.746094 L 175.378906 223.714844 L 174.015625 227.0625 L 172.613281 231.386719 L 172.0625 233.953125 L 171.023438 238.539063 L 170.59375 242.511719 L 170.226563 258.53125 L 170.210938 260 "/>
<path style="fill:none;stroke-width:4;stroke-linecap:round;stroke-linejoin:round;stroke:rgb(70.588235%,70.588235%,70.588235%);stroke-opacity:1;stroke-miterlimit:10;" d="M 195.867188 231.675781 L 172.613281 231.386719 L 158.265625 231.152344 "/>
<path style="fill:none;stroke-width:4;stroke-linecap:round;stroke-linejoin:round;stroke:rgb(70.588235%,70.588235%,70.588235%);stroke-opacity:1;stroke-miterlimit:10;" d="M 195.492188 260 L 195.867188 231.675781 L 196.539063 180.363281 L 198.429688 35.550781 "/>
<path style=" stroke:none;fill-rule:evenodd;fill:rgb(33.333333%,33.333333%,33.333333%);fill-opacity:1;" d="M 27.011719 78.390625 L 28.667969 77.171875 L 33.839844 84.234375 L 32.183594 85.453125 Z M 38.5 76.085938 C 38.195313 76.265625 38.03125 76.507813 38 76.820313 C 37.96875 77.125 38.078125 77.492188 38.328125 77.929688 C 38.578125 78.378906 38.84375 78.671875 39.125 78.804688 C 39.414063 78.941406 39.710938 78.921875 40.015625 78.742188 C 40.335938 78.554688 40.507813 78.3125 40.53125 78.007813 C 40.5625 77.707031 40.453125 77.332031 40.203125 76.882813 C 39.953125 76.445313 39.6875 76.160156 39.40625 76.023438 C 39.125 75.878906 38.820313 75.898438 38.5 76.085938 Z M 38.625 71.179688 L 39.421875 72.570313 C 39.046875 72.59375 38.707031 72.640625 38.40625 72.710938 C 38.101563 72.785156 37.832031 72.894531 37.59375 73.039063 C 37.0625 73.332031 36.746094 73.722656 36.640625 74.210938 C 36.527344 74.703125 36.625 75.28125 36.9375 75.945313 C 37.042969 75.675781 37.1875 75.429688 37.375 75.210938 C 37.570313 74.992188 37.8125 74.804688 38.09375 74.648438 C 38.789063 74.253906 39.476563 74.160156 40.15625 74.367188 C 40.84375 74.578125 41.394531 75.046875 41.8125 75.773438 C 42.28125 76.597656 42.410156 77.394531 42.203125 78.164063 C 42.003906 78.925781 41.503906 79.535156 40.703125 79.992188 C 39.796875 80.503906 38.910156 80.5625 38.046875 80.164063 C 37.183594 79.769531 36.40625 78.957031 35.71875 77.726563 C 35 76.46875 34.726563 75.320313 34.890625 74.289063 C 35.058594 73.25 35.636719 72.445313 36.625 71.882813 C 36.9375 71.707031 37.257813 71.5625 37.59375 71.445313 C 37.925781 71.320313 38.269531 71.234375 38.625 71.179688 Z M 40.273438 70.023438 L 45.570313 67.351563 L 46.132813 68.476563 L 46.773438 76.539063 L 45.007813 77.445313 L 44.398438 69.804688 L 41.007813 71.507813 Z M 51.882813 69.628906 C 51.539063 69.796875 51.324219 70.03125 51.242188 70.332031 C 51.15625 70.625 51.210938 70.964844 51.398438 71.347656 C 51.59375 71.734375 51.835938 71.984375 52.117188 72.097656 C 52.398438 72.214844 52.710938 72.1875 53.054688 72.019531 C 53.398438 71.855469 53.605469 71.628906 53.679688 71.347656 C 53.761719 71.058594 53.703125 70.71875 53.507813 70.332031 C 53.320313 69.9375 53.085938 69.683594 52.804688 69.566406 C 52.53125 69.441406 52.226563 69.464844 51.882813 69.628906 Z M 50.226563 69.613281 C 49.726563 69.675781 49.296875 69.613281 48.929688 69.425781 C 48.566406 69.238281 48.273438 68.921875 48.054688 68.472656 C 47.734375 67.808594 47.710938 67.191406 47.992188 66.628906 C 48.273438 66.066406 48.84375 65.574219 49.695313 65.144531 C 50.546875 64.730469 51.28125 64.582031 51.898438 64.707031 C 52.511719 64.832031 52.980469 65.230469 53.304688 65.894531 C 53.523438 66.34375 53.589844 66.769531 53.507813 67.175781 C 53.433594 67.582031 53.226563 67.964844 52.882813 68.316406 C 53.433594 68.234375 53.90625 68.300781 54.304688 68.519531 C 54.710938 68.730469 55.039063 69.082031 55.289063 69.582031 C 55.664063 70.375 55.71875 71.082031 55.460938 71.707031 C 55.199219 72.324219 54.605469 72.855469 53.679688 73.300781 C 52.761719 73.75 51.96875 73.894531 51.304688 73.738281 C 50.636719 73.574219 50.117188 73.09375 49.742188 72.300781 C 49.492188 71.800781 49.410156 71.328125 49.492188 70.878906 C 49.578125 70.421875 49.820313 70 50.226563 69.613281 Z M 49.882813 67.847656 C 50.03125 68.152344 50.222656 68.347656 50.460938 68.441406 C 50.710938 68.535156 50.976563 68.511719 51.257813 68.363281 C 51.539063 68.230469 51.714844 68.035156 51.789063 67.785156 C 51.859375 67.535156 51.824219 67.261719 51.679688 66.957031 C 51.523438 66.636719 51.324219 66.433594 51.085938 66.347656 C 50.855469 66.265625 50.601563 66.292969 50.320313 66.425781 C 50.039063 66.574219 49.859375 66.769531 49.773438 67.019531 C 49.691406 67.261719 49.726563 67.535156 49.882813 67.847656 Z M 49.882813 67.847656 "/>
<path style="fill:none;stroke-width:3;stroke-linecap:round;stroke-linejoin:round;stroke:rgb(100%,100%,100%);stroke-opacity:1;stroke-miterlimit:10;" d="M 85.597656 117.542969 L 86.753906 117.574219 C 86.410156 117.898438 86.152344 118.246094 85.972656 118.621094 C 85.796875 118.988281 85.703125 119.378906 85.691406 119.792969 C 85.683594 120.617188 85.953125 121.257813 86.503906 121.714844 C 87.046875 122.164063 87.847656 122.398438 88.910156 122.417969 C 89.964844 122.441406 90.777344 122.238281 91.347656 121.808594 C 91.921875 121.371094 92.214844 120.742188 92.222656 119.917969 C 92.234375 119.503906 92.160156 119.105469 92.003906 118.730469 C 91.847656 118.355469 91.597656 118.003906 91.253906 117.667969 L 92.378906 117.683594 C 92.640625 118.039063 92.828125 118.410156 92.941406 118.792969 C 93.066406 119.167969 93.121094 119.570313 93.113281 119.996094 C 93.089844 121.089844 92.707031 121.945313 91.957031 122.558594 C 91.199219 123.164063 90.175781 123.457031 88.894531 123.433594 C 87.605469 123.402344 86.59375 123.070313 85.863281 122.433594 C 85.125 121.789063 84.765625 120.917969 84.785156 119.824219 C 84.796875 119.386719 84.875 118.980469 85.019531 118.605469 C 85.15625 118.230469 85.347656 117.878906 85.597656 117.542969 Z M 89.972656 113.695313 C 89.972656 114.414063 90.074219 114.914063 90.269531 115.195313 C 90.457031 115.46875 90.769531 115.597656 91.207031 115.585938 C 91.550781 115.585938 91.828125 115.484375 92.035156 115.273438 C 92.234375 115.066406 92.332031 114.785156 92.332031 114.429688 C 92.332031 113.929688 92.140625 113.535156 91.753906 113.242188 C 91.359375 112.941406 90.84375 112.796875 90.207031 112.804688 L 89.972656 112.804688 Z M 89.566406 111.914063 L 93.003906 111.898438 L 93.003906 112.789063 L 92.097656 112.789063 C 92.464844 113 92.734375 113.253906 92.910156 113.554688 C 93.074219 113.859375 93.160156 114.226563 93.160156 114.664063 C 93.167969 115.21875 93.003906 115.660156 92.660156 115.992188 C 92.316406 116.316406 91.855469 116.476563 91.269531 116.476563 C 90.59375 116.488281 90.082031 116.289063 89.738281 115.882813 C 89.394531 115.476563 89.21875 114.867188 89.207031 114.054688 L 89.207031 112.804688 L 89.113281 112.804688 C 88.65625 112.804688 88.300781 112.941406 88.050781 113.210938 C 87.800781 113.484375 87.675781 113.863281 87.675781 114.351563 C 87.675781 114.65625 87.722656 114.957031 87.816406 115.257813 C 87.902344 115.550781 88.027344 115.832031 88.191406 116.101563 L 87.285156 116.101563 C 87.140625 115.78125 87.03125 115.46875 86.957031 115.164063 C 86.886719 114.863281 86.847656 114.566406 86.847656 114.273438 C 86.847656 113.492188 87.074219 112.90625 87.519531 112.507813 C 87.96875 112.113281 88.652344 111.914063 89.566406 111.914063 Z M 87.886719 106.945313 C 87.824219 107.050781 87.777344 107.164063 87.746094 107.289063 C 87.714844 107.40625 87.699219 107.53125 87.699219 107.664063 C 87.699219 108.175781 87.886719 108.566406 88.261719 108.835938 C 88.628906 109.097656 89.148438 109.226563 89.824219 109.226563 L 92.996094 109.210938 L 92.996094 110.117188 L 86.980469 110.148438 L 86.980469 109.242188 L 87.917969 109.226563 C 87.542969 109.039063 87.269531 108.800781 87.089844 108.507813 C 86.914063 108.21875 86.824219 107.859375 86.824219 107.429688 C 86.824219 107.367188 86.832031 107.300781 86.839844 107.226563 C 86.839844 107.144531 86.851563 107.0625 86.871094 106.976563 Z M 89.886719 102.460938 C 89.167969 102.460938 88.617188 102.597656 88.230469 102.867188 C 87.835938 103.128906 87.636719 103.503906 87.636719 103.992188 C 87.636719 104.460938 87.835938 104.832031 88.230469 105.101563 C 88.628906 105.363281 89.183594 105.492188 89.902344 105.492188 C 90.613281 105.492188 91.164063 105.359375 91.558594 105.085938 C 91.945313 104.816406 92.136719 104.445313 92.136719 103.976563 C 92.136719 103.488281 91.941406 103.113281 91.542969 102.851563 C 91.148438 102.59375 90.597656 102.460938 89.886719 102.460938 Z M 92.214844 101.554688 C 93.246094 101.554688 94.003906 101.757813 94.496094 102.164063 C 94.996094 102.570313 95.246094 103.195313 95.246094 104.039063 C 95.246094 104.351563 95.21875 104.648438 95.167969 104.929688 C 95.125 105.203125 95.050781 105.46875 94.949219 105.726563 L 93.996094 105.742188 C 94.152344 105.484375 94.261719 105.226563 94.324219 104.976563 C 94.394531 104.71875 94.433594 104.457031 94.433594 104.195313 C 94.433594 103.613281 94.261719 103.175781 93.917969 102.882813 C 93.582031 102.59375 93.078125 102.445313 92.402344 102.445313 L 91.902344 102.445313 C 92.257813 102.632813 92.523438 102.875 92.699219 103.164063 C 92.878906 103.445313 92.964844 103.785156 92.964844 104.179688 C 92.976563 104.847656 92.699219 105.382813 92.136719 105.789063 C 91.574219 106.195313 90.832031 106.40625 89.902344 106.414063 C 88.976563 106.414063 88.230469 106.21875 87.667969 105.820313 C 87.105469 105.414063 86.820313 104.878906 86.808594 104.210938 C 86.808594 103.816406 86.898438 103.472656 87.074219 103.179688 C 87.242188 102.890625 87.503906 102.648438 87.855469 102.460938 L 86.949219 102.476563 L 86.949219 101.585938 Z M 87.609375 97.648438 C 87.609375 98.128906 87.824219 98.507813 88.25 98.789063 C 88.667969 99.0625 89.234375 99.195313 89.953125 99.195313 C 90.671875 99.1875 91.234375 99.046875 91.640625 98.773438 C 92.046875 98.492188 92.25 98.113281 92.25 97.632813 C 92.25 97.15625 92.046875 96.78125 91.640625 96.507813 C 91.226563 96.226563 90.65625 96.09375 89.9375 96.101563 C 89.21875 96.101563 88.652344 96.242188 88.234375 96.523438 C 87.820313 96.796875 87.609375 97.171875 87.609375 97.648438 Z M 86.78125 97.664063 C 86.78125 96.894531 87.0625 96.285156 87.625 95.835938 C 88.179688 95.390625 88.949219 95.164063 89.9375 95.164063 C 90.917969 95.15625 91.6875 95.375 92.25 95.820313 C 92.8125 96.257813 93.09375 96.863281 93.09375 97.632813 C 93.101563 98.414063 92.828125 99.023438 92.265625 99.460938 C 91.703125 99.898438 90.933594 100.125 89.953125 100.132813 C 88.964844 100.132813 88.195313 99.921875 87.640625 99.492188 C 87.078125 99.054688 86.792969 98.445313 86.78125 97.664063 Z M 85.242188 86.167969 L 86.289063 86.167969 C 86.09375 86.535156 85.945313 86.882813 85.851563 87.214844 C 85.75 87.550781 85.695313 87.867188 85.695313 88.167969 C 85.6875 88.699219 85.796875 89.113281 86.023438 89.402344 C 86.253906 89.683594 86.578125 89.832031 86.992188 89.839844 C 87.347656 89.839844 87.617188 89.746094 87.804688 89.558594 C 87.984375 89.371094 88.132813 89.007813 88.257813 88.464844 L 88.382813 87.886719 C 88.550781 87.167969 88.832031 86.636719 89.226563 86.292969 C 89.613281 85.941406 90.128906 85.769531 90.773438 85.777344 C 91.554688 85.777344 92.144531 86.019531 92.539063 86.496094 C 92.9375 86.964844 93.132813 87.652344 93.132813 88.558594 C 93.121094 88.902344 93.070313 89.269531 92.976563 89.652344 C 92.894531 90.039063 92.765625 90.433594 92.585938 90.839844 L 91.476563 90.824219 C 91.738281 90.429688 91.929688 90.042969 92.054688 89.667969 C 92.179688 89.292969 92.25 88.925781 92.257813 88.558594 C 92.257813 88.007813 92.140625 87.574219 91.898438 87.261719 C 91.660156 86.949219 91.316406 86.792969 90.867188 86.792969 C 90.472656 86.785156 90.160156 86.886719 89.929688 87.105469 C 89.703125 87.324219 89.53125 87.683594 89.414063 88.183594 L 89.289063 88.777344 C 89.125 89.507813 88.867188 90.035156 88.523438 90.355469 C 88.171875 90.667969 87.6875 90.824219 87.070313 90.824219 C 86.363281 90.816406 85.804688 90.585938 85.398438 90.136719 C 84.992188 89.679688 84.796875 89.054688 84.804688 88.261719 C 84.804688 87.917969 84.847656 87.574219 84.929688 87.230469 C 85.003906 86.886719 85.109375 86.535156 85.242188 86.167969 Z M 89.796875 79.652344 L 90.28125 79.652344 L 90.25 83.746094 C 90.929688 83.714844 91.445313 83.539063 91.796875 83.214844 C 92.152344 82.882813 92.335938 82.425781 92.34375 81.839844 C 92.34375 81.496094 92.304688 81.164063 92.21875 80.839844 C 92.125 80.519531 91.992188 80.195313 91.8125 79.871094 L 92.734375 79.886719 C 92.890625 80.210938 93.003906 80.539063 93.078125 80.871094 C 93.148438 81.207031 93.1875 81.542969 93.1875 81.886719 C 93.175781 82.753906 92.890625 83.433594 92.328125 83.933594 C 91.765625 84.433594 91.007813 84.679688 90.046875 84.667969 C 89.070313 84.667969 88.292969 84.429688 87.71875 83.949219 C 87.148438 83.460938 86.867188 82.808594 86.875 81.996094 C 86.875 81.269531 87.140625 80.695313 87.671875 80.277344 C 88.195313 79.851563 88.902344 79.644531 89.796875 79.652344 Z M 89.5 80.542969 C 88.960938 80.554688 88.527344 80.691406 88.203125 80.949219 C 87.871094 81.199219 87.703125 81.542969 87.703125 81.980469 C 87.695313 82.480469 87.84375 82.886719 88.15625 83.199219 C 88.46875 83.503906 88.90625 83.675781 89.46875 83.714844 Z M 88.144531 74.980469 C 88.082031 75.085938 88.035156 75.199219 88.003906 75.324219 C 87.964844 75.441406 87.9375 75.566406 87.925781 75.699219 C 87.90625 76.210938 88.074219 76.605469 88.425781 76.886719 C 88.769531 77.167969 89.28125 77.324219 89.957031 77.355469 L 93.128906 77.511719 L 93.097656 78.417969 L 87.082031 78.136719 L 87.113281 77.230469 L 88.050781 77.261719 C 87.699219 77.066406 87.441406 76.816406 87.285156 76.511719 C 87.121094 76.199219 87.046875 75.832031 87.066406 75.402344 C 87.066406 75.339844 87.074219 75.273438 87.082031 75.199219 C 87.09375 75.117188 87.109375 75.035156 87.128906 74.949219 Z M 87.308594 74.40625 L 87.480469 73.484375 L 92.761719 72.734375 L 88.089844 70.15625 L 88.261719 69.234375 L 93.808594 72.3125 L 93.605469 73.484375 Z M 88.6875 67.777344 L 88.984375 66.933594 L 94.671875 68.886719 L 94.375 69.730469 Z M 86.46875 67.027344 L 86.765625 66.183594 L 87.953125 66.574219 L 87.65625 67.417969 Z M 92.535156 61.785156 L 93.285156 62.332031 C 93.015625 62.4375 92.777344 62.566406 92.566406 62.722656 C 92.359375 62.878906 92.183594 63.066406 92.035156 63.285156 C 91.691406 63.753906 91.59375 64.238281 91.738281 64.738281 C 91.875 65.238281 92.246094 65.703125 92.847656 66.128906 C 93.441406 66.558594 93.996094 66.761719 94.503906 66.738281 C 95.023438 66.707031 95.457031 66.457031 95.800781 65.988281 C 95.945313 65.769531 96.058594 65.542969 96.144531 65.300781 C 96.238281 65.050781 96.292969 64.78125 96.316406 64.488281 L 97.050781 65.019531 C 97.007813 65.300781 96.933594 65.574219 96.832031 65.832031 C 96.726563 66.082031 96.589844 66.328125 96.425781 66.566406 C 95.945313 67.234375 95.335938 67.597656 94.597656 67.660156 C 93.859375 67.714844 93.09375 67.457031 92.300781 66.894531 C 91.511719 66.324219 91.03125 65.675781 90.863281 64.957031 C 90.6875 64.230469 90.84375 63.519531 91.332031 62.832031 C 91.488281 62.613281 91.671875 62.417969 91.878906 62.238281 C 92.089844 62.0625 92.308594 61.910156 92.535156 61.785156 Z M 99.214844 59.511719 L 99.511719 59.902344 L 96.261719 62.402344 C 96.710938 62.914063 97.171875 63.210938 97.652344 63.292969 C 98.128906 63.367188 98.597656 63.226563 99.058594 62.871094 C 99.339844 62.652344 99.574219 62.414063 99.761719 62.152344 C 99.957031 61.882813 100.128906 61.582031 100.277344 61.246094 L 100.839844 61.964844 C 100.683594 62.289063 100.496094 62.585938 100.277344 62.855469 C 100.058594 63.117188 99.8125 63.351563 99.542969 63.558594 C 98.855469 64.089844 98.140625 64.292969 97.402344 64.167969 C 96.675781 64.035156 96.011719 63.589844 95.417969 62.839844 C 94.824219 62.058594 94.539063 61.292969 94.558594 60.542969 C 94.582031 59.785156 94.914063 59.160156 95.558594 58.667969 C 96.144531 58.222656 96.757813 58.074219 97.402344 58.230469 C 98.058594 58.378906 98.660156 58.804688 99.214844 59.511719 Z M 98.308594 59.824219 C 97.972656 59.410156 97.605469 59.152344 97.199219 59.058594 C 96.792969 58.957031 96.417969 59.039063 96.074219 59.308594 C 95.679688 59.613281 95.460938 59.980469 95.417969 60.417969 C 95.367188 60.855469 95.496094 61.304688 95.808594 61.761719 Z M 106.359375 56.605469 C 106.578125 56.648438 106.8125 56.773438 107.0625 56.980469 C 107.320313 57.179688 107.601563 57.476563 107.90625 57.871094 L 109.375 59.777344 L 108.34375 60.011719 L 106.984375 58.230469 C 106.628906 57.761719 106.320313 57.472656 106.0625 57.355469 C 105.800781 57.230469 105.484375 57.214844 105.109375 57.308594 L 104.078125 57.542969 L 104.859375 60.839844 L 103.890625 61.074219 L 102.046875 53.277344 L 104.203125 52.761719 C 105.003906 52.574219 105.644531 52.621094 106.125 52.902344 C 106.601563 53.175781 106.929688 53.691406 107.109375 54.449219 C 107.222656 54.929688 107.21875 55.355469 107.09375 55.730469 C 106.96875 56.105469 106.722656 56.398438 106.359375 56.605469 Z M 103.21875 53.902344 L 103.875 56.667969 L 105.0625 56.386719 C 105.519531 56.285156 105.835938 56.089844 106.015625 55.808594 C 106.191406 55.519531 106.226563 55.144531 106.125 54.683594 C 106.019531 54.226563 105.820313 53.910156 105.53125 53.730469 C 105.238281 53.554688 104.863281 53.519531 104.40625 53.621094 Z M 111.769531 54.574219 C 111.289063 54.566406 110.902344 54.761719 110.613281 55.167969 C 110.332031 55.574219 110.179688 56.136719 110.160156 56.855469 C 110.136719 57.574219 110.257813 58.148438 110.519531 58.574219 C 110.789063 58.992188 111.164063 59.207031 111.644531 59.214844 C 112.121094 59.226563 112.503906 59.027344 112.785156 58.621094 C 113.074219 58.214844 113.230469 57.652344 113.253906 56.933594 C 113.273438 56.214844 113.148438 55.648438 112.878906 55.230469 C 112.617188 54.804688 112.246094 54.585938 111.769531 54.574219 Z M 111.785156 53.746094 C 112.554688 53.769531 113.152344 54.066406 113.582031 54.636719 C 114.007813 55.199219 114.210938 55.976563 114.191406 56.964844 C 114.160156 57.945313 113.914063 58.710938 113.457031 59.261719 C 113.007813 59.816406 112.398438 60.078125 111.628906 60.058594 C 110.847656 60.035156 110.242188 59.742188 109.816406 59.167969 C 109.386719 58.597656 109.191406 57.820313 109.222656 56.839844 C 109.242188 55.851563 109.476563 55.085938 109.925781 54.542969 C 110.382813 53.992188 111.003906 53.726563 111.785156 53.746094 Z M 118.109375 57.054688 C 117.390625 57.035156 116.882813 57.113281 116.59375 57.289063 C 116.3125 57.46875 116.164063 57.773438 116.15625 58.210938 C 116.144531 58.554688 116.238281 58.835938 116.4375 59.054688 C 116.632813 59.273438 116.910156 59.390625 117.265625 59.398438 C 117.765625 59.410156 118.171875 59.226563 118.484375 58.851563 C 118.796875 58.46875 118.960938 57.957031 118.984375 57.320313 L 119 57.085938 Z M 119.890625 56.710938 L 119.78125 60.148438 L 118.890625 60.117188 L 118.921875 59.210938 C 118.703125 59.578125 118.4375 59.835938 118.125 59.992188 C 117.820313 60.15625 117.453125 60.230469 117.015625 60.210938 C 116.460938 60.1875 116.023438 60 115.703125 59.648438 C 115.390625 59.296875 115.242188 58.828125 115.265625 58.242188 C 115.285156 57.566406 115.503906 57.066406 115.921875 56.742188 C 116.335938 56.410156 116.953125 56.257813 117.765625 56.289063 L 119.015625 56.320313 L 119.015625 56.226563 C 119.035156 55.769531 118.910156 55.410156 118.640625 55.148438 C 118.378906 54.890625 118.003906 54.753906 117.515625 54.742188 C 117.210938 54.734375 116.910156 54.765625 116.609375 54.835938 C 116.316406 54.910156 116.03125 55.023438 115.75 55.179688 L 115.78125 54.273438 C 116.125 54.140625 116.445313 54.046875 116.75 53.992188 C 117.050781 53.929688 117.347656 53.90625 117.640625 53.914063 C 118.421875 53.945313 119 54.191406 119.375 54.648438 C 119.75 55.109375 119.921875 55.796875 119.890625 56.710938 Z M 125.324219 55.117188 L 125.355469 51.867188 L 126.246094 51.882813 L 126.152344 60.242188 L 125.261719 60.226563 L 125.277344 59.320313 C 125.078125 59.6875 124.832031 59.953125 124.542969 60.117188 C 124.261719 60.28125 123.921875 60.367188 123.527344 60.367188 C 122.871094 60.355469 122.339844 60.0625 121.933594 59.476563 C 121.527344 58.894531 121.328125 58.128906 121.339844 57.179688 C 121.347656 56.234375 121.5625 55.472656 121.980469 54.898438 C 122.394531 54.328125 122.933594 54.046875 123.589844 54.054688 C 123.984375 54.054688 124.324219 54.144531 124.605469 54.320313 C 124.894531 54.5 125.136719 54.765625 125.324219 55.117188 Z M 122.261719 57.195313 C 122.25 57.925781 122.375 58.5 122.636719 58.914063 C 122.894531 59.332031 123.261719 59.539063 123.730469 59.539063 C 124.207031 59.550781 124.582031 59.351563 124.855469 58.945313 C 125.136719 58.53125 125.28125 57.957031 125.292969 57.226563 C 125.300781 56.5 125.171875 55.929688 124.902344 55.523438 C 124.640625 55.109375 124.269531 54.894531 123.792969 54.882813 C 123.324219 54.882813 122.953125 55.085938 122.683594 55.492188 C 122.410156 55.898438 122.269531 56.46875 122.261719 57.195313 Z M 122.261719 57.195313 "/>
<path style=" stroke:none;fill-rule:evenodd;fill:rgb(20%,20%,20%);fill-opacity:1;" d="M 85.597656 117.542969 L 86.753906 117.574219 C 86.410156 117.898438 86.152344 118.246094 85.972656 118.621094 C 85.796875 118.988281 85.703125 119.378906 85.691406 119.792969 C 85.683594 120.617188 85.953125 121.257813 86.503906 121.714844 C 87.046875 122.164063 87.847656 122.398438 88.910156 122.417969 C 89.964844 122.441406 90.777344 122.238281 91.347656 121.808594 C 91.921875 121.371094 92.214844 120.742188 92.222656 119.917969 C 92.234375 119.503906 92.160156 119.105469 92.003906 118.730469 C 91.847656 118.355469 91.597656 118.003906 91.253906 117.667969 L 92.378906 117.683594 C 92.640625 118.039063 92.828125 118.410156 92.941406 118.792969 C 93.066406 119.167969 93.121094 119.570313 93.113281 119.996094 C 93.089844 121.089844 92.707031 121.945313 91.957031 122.558594 C 91.199219 123.164063 90.175781 123.457031 88.894531 123.433594 C 87.605469 123.402344 86.59375 123.070313 85.863281 122.433594 C 85.125 121.789063 84.765625 120.917969 84.785156 119.824219 C 84.796875 119.386719 84.875 118.980469 85.019531 118.605469 C 85.15625 118.230469 85.347656 117.878906 85.597656 117.542969 Z M 89.972656 113.695313 C 89.972656 114.414063 90.074219 114.914063 90.269531 115.195313 C 90.457031 115.46875 90.769531 115.597656 91.207031 115.585938 C 91.550781 115.585938 91.828125 115.484375 92.035156 115.273438 C 92.234375 115.066406 92.332031 114.785156 92.332031 114.429688 C 92.332031 113.929688 92.140625 113.535156 91.753906 113.242188 C 91.359375 112.941406 90.84375 112.796875 90.207031 112.804688 L 89.972656 112.804688 Z M 89.566406 111.914063 L 93.003906 111.898438 L 93.003906 112.789063 L 92.097656 112.789063 C 92.464844 113 92.734375 113.253906 92.910156 113.554688 C 93.074219 113.859375 93.160156 114.226563 93.160156 114.664063 C 93.167969 115.21875 93.003906 115.660156 92.660156 115.992188 C 92.316406 116.316406 91.855469 116.476563 91.269531 116.476563 C 90.59375 116.488281 90.082031 116.289063 89.738281 115.882813 C 89.394531 115.476563 89.21875 114.867188 89.207031 114.054688 L 89.207031 112.804688 L 89.113281 112.804688 C 88.65625 112.804688 88.300781 112.941406 88.050781 113.210938 C 87.800781 113.484375 87.675781 113.863281 87.675781 114.351563 C 87.675781 114.65625 87.722656 114.957031 87.816406 115.257813 C 87.902344 115.550781 88.027344 115.832031 88.191406 116.101563 L 87.285156 116.101563 C 87.140625 115.78125 87.03125 115.46875 86.957031 115.164063 C 86.886719 114.863281 86.847656 114.566406 86.847656 114.273438 C 86.847656 113.492188 87.074219 112.90625 87.519531 112.507813 C 87.96875 112.113281 88.652344 111.914063 89.566406 111.914063 Z M 87.886719 106.945313 C 87.824219 107.050781 87.777344 107.164063 87.746094 107.289063 C 87.714844 107.40625 87.699219 107.53125 87.699219 107.664063 C 87.699219 108.175781 87.886719 108.566406 88.261719 108.835938 C 88.628906 109.097656 89.148438 109.226563 89.824219 109.226563 L 92.996094 109.210938 L 92.996094 110.117188 L 86.980469 110.148438 L 86.980469 109.242188 L 87.917969 109.226563 C 87.542969 109.039063 87.269531 108.800781 87.089844 108.507813 C 86.914063 108.21875 86.824219 107.859375 86.824219 107.429688 C 86.824219 107.367188 86.832031 107.300781 86.839844 107.226563 C 86.839844 107.144531 86.851563 107.0625 86.871094 106.976563 Z M 89.886719 102.460938 C 89.167969 102.460938 88.617188 102.597656 88.230469 102.867188 C 87.835938 103.128906 87.636719 103.503906 87.636719 103.992188 C 87.636719 104.460938 87.835938 104.832031 88.230469 105.101563 C 88.628906 105.363281 89.183594 105.492188 89.902344 105.492188 C 90.613281 105.492188 91.164063 105.359375 91.558594 105.085938 C 91.945313 104.816406 92.136719 104.445313 92.136719 103.976563 C 92.136719 103.488281 91.941406 103.113281 91.542969 102.851563 C 91.148438 102.59375 90.597656 102.460938 89.886719 102.460938 Z M 92.214844 101.554688 C 93.246094 101.554688 94.003906 101.757813 94.496094 102.164063 C 94.996094 102.570313 95.246094 103.195313 95.246094 104.039063 C 95.246094 104.351563 95.21875 104.648438 95.167969 104.929688 C 95.125 105.203125 95.050781 105.46875 94.949219 105.726563 L 93.996094 105.742188 C 94.152344 105.484375 94.261719 105.226563 94.324219 104.976563 C 94.394531 104.71875 94.433594 104.457031 94.433594 104.195313 C 94.433594 103.613281 94.261719 103.175781 93.917969 102.882813 C 93.582031 102.59375 93.078125 102.445313 92.402344 102.445313 L 91.902344 102.445313 C 92.257813 102.632813 92.523438 102.875 92.699219 103.164063 C 92.878906 103.445313 92.964844 103.785156 92.964844 104.179688 C 92.976563 104.847656 92.699219 105.382813 92.136719 105.789063 C 91.574219 106.195313 90.832031 106.40625 89.902344 106.414063 C 88.976563 106.414063 88.230469 106.21875 87.667969 105.820313 C 87.105469 105.414063 86.820313 104.878906 86.808594 104.210938 C 86.808594 103.816406 86.898438 103.472656 87.074219 103.179688 C 87.242188 102.890625 87.503906 102.648438 87.855469 102.460938 L 86.949219 102.476563 L 86.949219 101.585938 Z M 87.609375 97.648438 C 87.609375 98.128906 87.824219 98.507813 88.25 98.789063 C 88.667969 99.0625 89.234375 99.195313 89.953125 99.195313 C 90.671875 99.1875 91.234375 99.046875 91.640625 98.773438 C 92.046875 98.492188 92.25 98.113281 92.25 97.632813 C 92.25 97.15625 92.046875 96.78125 91.640625 96.507813 C 91.226563 96.226563 90.65625 96.09375 89.9375 96.101563 C 89.21875 96.101563 88.652344 96.242188 88.234375 96.523438 C 87.820313 96.796875 87.609375 97.171875 87.609375 97.648438 Z M 86.78125 97.664063 C 86.78125 96.894531 87.0625 96.285156 87.625 95.835938 C 88.179688 95.390625 88.949219 95.164063 89.9375 95.164063 C 90.917969 95.15625 91.6875 95.375 92.25 95.820313 C 92.8125 96.257813 93.09375 96.863281 93.09375 97.632813 C 93.101563 98.414063 92.828125 99.023438 92.265625 99.460938 C 91.703125 99.898438 90.933594 100.125 89.953125 100.132813 C 88.964844 100.132813 88.195313 99.921875 87.640625 99.492188 C 87.078125 99.054688 86.792969 98.445313 86.78125 97.664063 Z M 85.242188 86.167969 L 86.289063 86.167969 C 86.09375 86.535156 85.945313 86.882813 85.851563 87.214844 C 85.75 87.550781 85.695313 87.867188 85.695313 88.167969 C 85.6875 88.699219 85.796875 89.113281 86.023438 89.402344 C 86.253906 89.683594 86.578125 89.832031 86.992188 89.839844 C 87.347656 89.839844 87.617188 89.746094 87.804688 89.558594 C 87.984375 89.371094 88.132813 89.007813 88.257813 88.464844 L 88.382813 87.886719 C 88.550781 87.167969 88.832031 86.636719 89.226563 86.292969 C 89.613281 85.941406 90.128906 85.769531 90.773438 85.777344 C 91.554688 85.777344 92.144531 86.019531 92.539063 86.496094 C 92.9375 86.964844 93.132813 87.652344 93.132813 88.558594 C 93.121094 88.902344 93.070313 89.269531 92.976563 89.652344 C 92.894531 90.039063 92.765625 90.433594 92.585938 90.839844 L 91.476563 90.824219 C 91.738281 90.429688 91.929688 90.042969 92.054688 89.667969 C 92.179688 89.292969 92.25 88.925781 92.257813 88.558594 C 92.257813 88.007813 92.140625 87.574219 91.898438 87.261719 C 91.660156 86.949219 91.316406 86.792969 90.867188 86.792969 C 90.472656 86.785156 90.160156 86.886719 89.929688 87.105469 C 89.703125 87.324219 89.53125 87.683594 89.414063 88.183594 L 89.289063 88.777344 C 89.125 89.507813 88.867188 90.035156 88.523438 90.355469 C 88.171875 90.667969 87.6875 90.824219 87.070313 90.824219 C 86.363281 90.816406 85.804688 90.585938 85.398438 90.136719 C 84.992188 89.679688 84.796875 89.054688 84.804688 88.261719 C 84.804688 87.917969 84.847656 87.574219 84.929688 87.230469 C 85.003906 86.886719 85.109375 86.535156 85.242188 86.167969 Z M 89.796875 79.652344 L 90.28125 79.652344 L 90.25 83.746094 C 90.929688 83.714844 91.445313 83.539063 91.796875 83.214844 C 92.152344 82.882813 92.335938 82.425781 92.34375 81.839844 C 92.34375 81.496094 92.304688 81.164063 92.21875 80.839844 C 92.125 80.519531 91.992188 80.195313 91.8125 79.871094 L 92.734375 79.886719 C 92.890625 80.210938 93.003906 80.539063 93.078125 80.871094 C 93.148438 81.207031 93.1875 81.542969 93.1875 81.886719 C 93.175781 82.753906 92.890625 83.433594 92.328125 83.933594 C 91.765625 84.433594 91.007813 84.679688 90.046875 84.667969 C 89.070313 84.667969 88.292969 84.429688 87.71875 83.949219 C 87.148438 83.460938 86.867188 82.808594 86.875 81.996094 C 86.875 81.269531 87.140625 80.695313 87.671875 80.277344 C 88.195313 79.851563 88.902344 79.644531 89.796875 79.652344 Z M 89.5 80.542969 C 88.960938 80.554688 88.527344 80.691406 88.203125 80.949219 C 87.871094 81.199219 87.703125 81.542969 87.703125 81.980469 C 87.695313 82.480469 87.84375 82.886719 88.15625 83.199219 C 88.46875 83.503906 88.90625 83.675781 89.46875 83.714844 Z M 88.144531 74.980469 C 88.082031 75.085938 88.035156 75.199219 88.003906 75.324219 C 87.964844 75.441406 87.9375 75.566406 87.925781 75.699219 C 87.90625 76.210938 88.074219 76.605469 88.425781 76.886719 C 88.769531 77.167969 89.28125 77.324219 89.957031 77.355469 L 93.128906 77.511719 L 93.097656 78.417969 L 87.082031 78.136719 L 87.113281 77.230469 L 88.050781 77.261719 C 87.699219 77.066406 87.441406 76.816406 87.285156 76.511719 C 87.121094 76.199219 87.046875 75.832031 87.066406 75.402344 C 87.066406 75.339844 87.074219 75.273438 87.082031 75.199219 C 87.09375 75.117188 87.109375 75.035156 87.128906 74.949219 Z M 87.308594 74.40625 L 87.480469 73.484375 L 92.761719 72.734375 L 88.089844 70.15625 L 88.261719 69.234375 L 93.808594 72.3125 L 93.605469 73.484375 Z M 88.6875 67.777344 L 88.984375 66.933594 L 94.671875 68.886719 L 94.375 69.730469 Z M 86.46875 67.027344 L 86.765625 66.183594 L 87.953125 66.574219 L 87.65625 67.417969 Z M 92.535156 61.785156 L 93.285156 62.332031 C 93.015625 62.4375 92.777344 62.566406 92.566406 62.722656 C 92.359375 62.878906 92.183594 63.066406 92.035156 63.285156 C 91.691406 63.753906 91.59375 64.238281 91.738281 64.738281 C 91.875 65.238281 92.246094 65.703125 92.847656 66.128906 C 93.441406 66.558594 93.996094 66.761719 94.503906 66.738281 C 95.023438 66.707031 95.457031 66.457031 95.800781 65.988281 C 95.945313 65.769531 96.058594 65.542969 96.144531 65.300781 C 96.238281 65.050781 96.292969 64.78125 96.316406 64.488281 L 97.050781 65.019531 C 97.007813 65.300781 96.933594 65.574219 96.832031 65.832031 C 96.726563 66.082031 96.589844 66.328125 96.425781 66.566406 C 95.945313 67.234375 95.335938 67.597656 94.597656 67.660156 C 93.859375 67.714844 93.09375 67.457031 92.300781 66.894531 C 91.511719 66.324219 91.03125 65.675781 90.863281 64.957031 C 90.6875 64.230469 90.84375 63.519531 91.332031 62.832031 C 91.488281 62.613281 91.671875 62.417969 91.878906 62.238281 C 92.089844 62.0625 92.308594 61.910156 92.535156 61.785156 Z M 99.214844 59.511719 L 99.511719 59.902344 L 96.261719 62.402344 C 96.710938 62.914063 97.171875 63.210938 97.652344 63.292969 C 98.128906 63.367188 98.597656 63.226563 99.058594 62.871094 C 99.339844 62.652344 99.574219 62.414063 99.761719 62.152344 C 99.957031 61.882813 100.128906 61.582031 100.277344 61.246094 L 100.839844 61.964844 C 100.683594 62.289063 100.496094 62.585938 100.277344 62.855469 C 100.058594 63.117188 99.8125 63.351563 99.542969 63.558594 C 98.855469 64.089844 98.140625 64.292969 97.402344 64.167969 C 96.675781 64.035156 96.011719 63.589844 95.417969 62.839844 C 94.824219 62.058594 94.539063 61.292969 94.558594 60.542969 C 94.582031 59.785156 94.914063 59.160156 95.558594 58.667969 C 96.144531 58.222656 96.757813 58.074219 97.402344 58.230469 C 98.058594 58.378906 98.660156 58.804688 99.214844 59.511719 Z M 98.308594 59.824219 C 97.972656 59.410156 97.605469 59.152344 97.199219 59.058594 C 96.792969 58.957031 96.417969 59.039063 96.074219 59.308594 C 95.679688 59.613281 95.460938 59.980469 95.417969 60.417969 C 95.367188 60.855469 95.496094 61.304688 95.808594 61.761719 Z M 106.359375 56.605469 C 106.578125 56.648438 106.8125 56.773438 107.0625 56.980469 C 107.320313 57.179688 107.601563 57.476563 107.90625 57.871094 L 109.375 59.777344 L 108.34375 60.011719 L 106.984375 58.230469 C 106.628906 57.761719 106.320313 57.472656 106.0625 57.355469 C 105.800781 57.230469 105.484375 57.214844 105.109375 57.308594 L 104.078125 57.542969 L 104.859375 60.839844 L 103.890625 61.074219 L 102.046875 53.277344 L 104.203125 52.761719 C 105.003906 52.574219 105.644531 52.621094 106.125 52.902344 C 106.601563 53.175781 106.929688 53.691406 107.109375 54.449219 C 107.222656 54.929688 107.21875 55.355469 107.09375 55.730469 C 106.96875 56.105469 106.722656 56.398438 106.359375 56.605469 Z M 103.21875 53.902344 L 103.875 56.667969 L 105.0625 56.386719 C 105.519531 56.285156 105.835938 56.089844 106.015625 55.808594 C 106.191406 55.519531 106.226563 55.144531 106.125 54.683594 C 106.019531 54.226563 105.820313 53.910156 105.53125 53.730469 C 105.238281 53.554688 104.863281 53.519531 104.40625 53.621094 Z M 111.769531 54.574219 C 111.289063 54.566406 110.902344 54.761719 110.613281 55.167969 C 110.332031 55.574219 110.179688 56.136719 110.160156 56.855469 C 110.136719 57.574219 110.257813 58.148438 110.519531 58.574219 C 110.789063 58.992188 111.164063 59.207031 111.644531 59.214844 C 112.121094 59.226563 112.503906 59.027344 112.785156 58.621094 C 113.074219 58.214844 113.230469 57.652344 113.253906 56.933594 C 113.273438 56.214844 113.148438 55.648438 112.878906 55.230469 C 112.617188 54.804688 112.246094 54.585938 111.769531 54.574219 Z M 111.785156 53.746094 C 112.554688 53.769531 113.152344 54.066406 113.582031 54.636719 C 114.007813 55.199219 114.210938 55.976563 114.191406 56.964844 C 114.160156 57.945313 113.914063 58.710938 113.457031 59.261719 C 113.007813 59.816406 112.398438 60.078125 111.628906 60.058594 C 110.847656 60.035156 110.242188 59.742188 109.816406 59.167969 C 109.386719 58.597656 109.191406 57.820313 109.222656 56.839844 C 109.242188 55.851563 109.476563 55.085938 109.925781 54.542969 C 110.382813 53.992188 111.003906 53.726563 111.785156 53.746094 Z M 118.109375 57.054688 C 117.390625 57.035156 116.882813 57.113281 116.59375 57.289063 C 116.3125 57.46875 116.164063 57.773438 116.15625 58.210938 C 116.144531 58.554688 116.238281 58.835938 116.4375 59.054688 C 116.632813 59.273438 116.910156 59.390625 117.265625 59.398438 C 117.765625 59.410156 118.171875 59.226563 118.484375 58.851563 C 118.796875 58.46875 118.960938 57.957031 118.984375 57.320313 L 119 57.085938 Z M 119.890625 56.710938 L 119.78125 60.148438 L 118.890625 60.117188 L 118.921875 59.210938 C 118.703125 59.578125 118.4375 59.835938 118.125 59.992188 C 117.820313 60.15625 117.453125 60.230469 117.015625 60.210938 C 116.460938 60.1875 116.023438 60 115.703125 59.648438 C 115.390625 59.296875 115.242188 58.828125 115.265625 58.242188 C 115.285156 57.566406 115.503906 57.066406 115.921875 56.742188 C 116.335938 56.410156 116.953125 56.257813 117.765625 56.289063 L 119.015625 56.320313 L 119.015625 56.226563 C 119.035156 55.769531 118.910156 55.410156 118.640625 55.148438 C 118.378906 54.890625 118.003906 54.753906 117.515625 54.742188 C 117.210938 54.734375 116.910156 54.765625 116.609375 54.835938 C 116.316406 54.910156 116.03125 55.023438 115.75 55.179688 L 115.78125 54.273438 C 116.125 54.140625 116.445313 54.046875 116.75 53.992188 C 117.050781 53.929688 117.347656 53.90625 117.640625 53.914063 C 118.421875 53.945313 119 54.191406 119.375 54.648438 C 119.75 55.109375 119.921875 55.796875 119.890625 56.710938 Z M 125.324219 55.117188 L 125.355469 51.867188 L 126.246094 51.882813 L 126.152344 60.242188 L 125.261719 60.226563 L 125.277344 59.320313 C 125.078125 59.6875 124.832031 59.953125 124.542969 60.117188 C 124.261719 60.28125 123.921875 60.367188 123.527344 60.367188 C 122.871094 60.355469 122.339844 60.0625 121.933594 59.476563 C 121.527344 58.894531 121.328125 58.128906 121.339844 57.179688 C 121.347656 56.234375 121.5625 55.472656 121.980469 54.898438 C 122.394531 54.328125 122.933594 54.046875 123.589844 54.054688 C 123.984375 54.054688 124.324219 54.144531 124.605469 54.320313 C 124.894531 54.5 125.136719 54.765625 125.324219 55.117188 Z M 122.261719 57.195313 C 122.25 57.925781 122.375 58.5 122.636719 58.914063 C 122.894531 59.332031 123.261719 59.539063 123.730469 59.539063 C 124.207031 59.550781 124.582031 59.351563 124.855469 58.945313 C 125.136719 58.53125 125.28125 57.957031 125.292969 57.226563 C 125.300781 56.5 125.171875 55.929688 124.902344 55.523438 C 124.640625 55.109375 124.269531 54.894531 123.792969 54.882813 C 123.324219 54.882813 122.953125 55.085938 122.683594 55.492188 C 122.410156 55.898438 122.269531 56.46875 122.261719 57.195313 Z M 122.261719 57.195313 "/>
</g>
</svg>

