<?xml version="1.0" encoding="UTF-8"?>
<svg xmlns="http://www.w3.org/2000/svg" xmlns:xlink="http://www.w3.org/1999/xlink" width="256pt" height="256pt" viewBox="0 0 256 256" version="1.1">
<g id="surface2">
<rect x="0" y="0" width="256" height="256" style="fill:rgb(94.901961%,93.72549%,91.372549%);fill-opacity:1;stroke:none;"/>
<path style="fill:none;stroke-width:8;stroke-linecap:round;stroke-linejoin:round;stroke:rgb(75.686275%,70.980392%,61.568627%);stroke-opacity:1;stroke-miterlimit:10;" d="M 15.359375 0.160156 L 8.90625 -0.199219 L 0.28125 6.203125 L -6.707031 12.019531 L -9 12.753906 "/>
<path style="fill:none;stroke-width:8;stroke-linecap:round;stroke-linejoin:round;stroke:rgb(75.686275%,70.980392%,61.568627%);stroke-opacity:1;stroke-miterlimit:10;" d="M 41.96875 96.128906 L 43.390625 83.546875 L 43.34375 80.3125 L 40.175781 65.378906 L 38.777344 61.394531 L 35.515625 55.578125 L 30.832031 50.023438 L 23.539063 44.140625 L 21.929688 42.015625 L 21.230469 39.402344 L 20.507813 28.816406 L 19.691406 24.699219 L 16.246094 16.59375 L 14.425781 10.582031 L 14.03125 7.902344 L 15.359375 0.160156 L 15.683594 -1.835938 L 16.535156 -9 "/>
<path style="fill:none;stroke-width:6;stroke-linecap:round;stroke-linejoin:round;stroke:rgb(100%,100%,100%);stroke-opacity:1;stroke-miterlimit:10;" d="M 15.359375 0.160156 L 8.90625 -0.199219 L 0.28125 6.203125 L -6.707031 12.019531 L -9 12.753906 "/>
<path style="fill:none;stroke-width:6;stroke-linecap:round;stroke-linejoin:round;stroke:rgb(100%,100%,100%);stroke-opacity:1;stroke-miterlimit:10;" d="M 41.96875 96.128906 L 43.390625 83.546875 L 43.34375 80.3125 L 40.175781 65.378906 L 38.777344 61.394531 L 35.515625 55.578125 L 30.832031 50.023438 L 23.539063 44.140625 L 21.929688 42.015625 L 21.230469 39.402344 L 20.507813 28.816406 L 19.691406 24.699219 L 16.246094 16.59375 L 14.425781 10.582031 L 14.03125 7.902344 L 15.359375 0.160156 L 15.683594 -1.835938 L 16.535156 -9 "/>
</g>
</svg>

