<?xml version="1.0" encoding="UTF-8"?>
<svg xmlns="http://www.w3.org/2000/svg" xmlns:xlink="http://www.w3.org/1999/xlink" width="256pt" height="256pt" viewBox="0 0 256 256" version="1.1">
<g id="surface2">
<rect x="0" y="0" width="256" height="256" style="fill:rgb(60%,70.196078%,80%);fill-opacity:1;stroke:none;"/>
<path style=" stroke:none;fill-rule:evenodd;fill:rgb(94.901961%,93.72549%,91.372549%);fill-opacity:1;" d="M 62.089844 191.050781 L 62.027344 192.550781 L 61.980469 205.03125 L 60.589844 229.195313 L 59.667969 246.011719 L 51.839844 259 L -4 259 L -4 131.738281 L 15.175781 136.84375 L 33.050781 158.988281 L 55.511719 152.257813 L 55.144531 151.007813 L 58.234375 145.0625 L 64.882813 143.105469 L 70.886719 146.476563 L 72.691406 152.875 L 69.253906 159.066406 L 62.574219 160.746094 L 56.90625 157.617188 L 56.171875 155.183594 L 35.058594 161.480469 L 36.164063 162.847656 L 37.808594 164.851563 L 39.03125 163.882813 L 45.519531 172.070313 L 45.066406 172.429688 L 46.816406 174.636719 L 45.996094 175.285156 L 47.707031 177.476563 L 49.171875 178.511719 L 52.398438 181.367188 L 52.449219 181.691406 L 52.839844 183.03125 L 54.457031 188.851563 L 55.324219 188.839844 L 55.285156 189.277344 L 62.074219 189.4375 Z M 62.089844 191.050781 "/>
<path style=" stroke:none;fill-rule:evenodd;fill:rgb(94.901961%,93.72549%,91.372549%);fill-opacity:1;" d="M 188.699219 259 L 197.460938 234.640625 L 257.085938 256.015625 L 259 250.460938 L 259 232.941406 L 212.648438 216.40625 L 221.730469 190.574219 L 259 204.085938 L 259 179.390625 L 234.394531 170.503906 L 242.949219 146.210938 L 259 152.085938 L 259 127.566406 L 253.535156 125.105469 L 259 113.730469 L 259 -4 L 259 259 Z M 188.699219 259 "/>
<path style=" stroke:none;fill-rule:evenodd;fill:rgb(94.901961%,93.72549%,91.372549%);fill-opacity:1;" d="M 259 -4 L -4 -4 L -4 259 L -4 -4 Z M 259 -4 "/>
<path style=" stroke:none;fill-rule:evenodd;fill:rgb(70.980392%,82.352941%,61.176471%);fill-opacity:1;" d="M 260 128.019531 L 260 -4 L 260 111.648438 L 253.535156 125.105469 Z M 260 128.019531 "/>
<path style=" stroke:none;fill-rule:evenodd;fill:rgb(98.039216%,98.039216%,96.078431%);fill-opacity:1;" d="M 55.144531 151.007813 L 55.511719 152.257813 L 55.78125 153.5625 L 56.175781 155.183594 L 56.90625 157.617188 L 62.574219 160.746094 L 69.253906 159.066406 L 72.691406 152.875 L 70.890625 146.476563 L 64.882813 143.109375 L 58.234375 145.0625 Z M 56.300781 151.121094 L 58.980469 145.964844 L 64.753906 144.269531 L 69.972656 147.199219 L 71.535156 152.738281 L 68.539063 158.136719 L 62.722656 159.601563 L 57.8125 156.882813 L 57.214844 154.898438 L 56.832031 153.324219 L 56.558594 152 Z M 56.300781 151.121094 "/>
<path style=" stroke:none;fill-rule:evenodd;fill:rgb(60%,70.196078%,80%);fill-opacity:1;" d="M -4 259 L -4 131.738281 L 15.175781 136.84375 L 33.050781 158.988281 L 55.511719 152.257813 L 55.144531 151.007813 L 58.234375 145.0625 L 64.882813 143.109375 L 70.890625 146.476563 L 72.691406 152.875 L 69.253906 159.066406 L 62.574219 160.746094 L 56.90625 157.617188 L 56.175781 155.183594 L 35.058594 161.480469 L 36.164063 162.847656 L 37.808594 164.851563 L 39.03125 163.882813 L 45.519531 172.070313 L 46.816406 174.636719 L 45.996094 175.285156 L 47.707031 177.476563 L 49.171875 178.511719 L 52.398438 181.367188 L 52.839844 183.03125 L 54.457031 188.851563 L 62.074219 189.4375 L 149.386719 259 L 188.699219 259 L 197.460938 234.640625 L 257.089844 256.015625 L 259 250.460938 L 259 232.941406 L 212.648438 216.40625 L 221.730469 190.574219 L 259 204.085938 L 259 179.390625 L 234.394531 170.503906 L 242.949219 146.210938 L 259 152.085938 L 259 127.566406 L 253.535156 125.105469 L 259 113.730469 L 259 -4 L -4 -4 Z M -4 259 "/>
<path style="fill:none;stroke-width:1;stroke-linecap:round;stroke-linejoin:round;stroke:rgb(70.196078%,77.647059%,83.137255%);stroke-opacity:1;stroke-miterlimit:10;" d="M -4 259 L -4 131.738281 L 15.175781 136.84375 L 33.050781 158.988281 L 55.511719 152.257813 L 55.144531 151.007813 L 58.234375 145.0625 L 64.882813 143.109375 L 70.890625 146.476563 L 72.691406 152.875 L 69.253906 159.066406 L 62.574219 160.746094 L 56.90625 157.617188 L 56.175781 155.183594 L 35.058594 161.480469 L 36.164063 162.847656 L 37.808594 164.851563 L 39.03125 163.882813 L 45.519531 172.070313 L 46.816406 174.636719 L 45.996094 175.285156 L 47.707031 177.476563 L 49.171875 178.511719 L 52.398438 181.367188 L 52.839844 183.03125 L 54.457031 188.851563 L 62.074219 189.4375 L 149.386719 259 L 188.699219 259 L 197.460938 234.640625 L 257.089844 256.015625 L 259 250.460938 L 259 232.941406 L 212.648438 216.40625 L 221.730469 190.574219 L 259 204.085938 L 259 179.390625 L 234.394531 170.503906 L 242.949219 146.210938 L 259 152.085938 L 259 127.566406 L 253.535156 125.105469 L 259 113.730469 L 259 -4 L -4 -4 L -4 259 "/>
<path style=" stroke:none;fill-rule:evenodd;fill:rgb(60%,70.196078%,80%);fill-opacity:1;" d="M -4 259 L 149.386719 259 L 62.074219 189.4375 L 62.089844 191.050781 L 62.027344 192.550781 L 61.980469 205.03125 L 60.589844 229.195313 L 59.667969 246.011719 L 51.839844 259 Z M -4 259 "/>
<path style="fill:none;stroke-width:1;stroke-linecap:round;stroke-linejoin:round;stroke:rgb(70.196078%,77.647059%,83.137255%);stroke-opacity:1;stroke-miterlimit:10;" d="M -4 259 L 149.386719 259 L 62.074219 189.4375 L 62.089844 191.050781 L 62.027344 192.550781 L 61.980469 205.03125 L 60.589844 229.195313 L 59.667969 246.011719 L 51.839844 259 L -4 259 "/>
<path style="fill:none;stroke-width:6;stroke-linecap:round;stroke-linejoin:round;stroke:rgb(60%,70.196078%,80%);stroke-opacity:1;stroke-miterlimit:10;" d="M 158.175781 3.878906 L 152.476563 133.527344 L 115.546875 262 "/>
<path style="fill:none;stroke-width:6;stroke-linecap:round;stroke-linejoin:round;stroke:rgb(60%,70.196078%,80%);stroke-opacity:1;stroke-miterlimit:10;" d="M 170.195313 -7 L 158.175781 3.878906 L -7 -4.074219 "/>
<path style="fill:none;stroke-width:9;stroke-linecap:round;stroke-linejoin:round;stroke:rgb(99.215686%,57.254902%,22.745098%);stroke-opacity:0.4;stroke-miterlimit:10;" d="M 113.292969 265 L 91.355469 224.386719 L 87.613281 217.128906 L 84.464844 210.421875 L 81.300781 202.726563 L 78.691406 195.375 L 76.351563 187.261719 L 21.324219 -10 "/>
<path style="fill:none;stroke-width:9;stroke-linecap:round;stroke-linejoin:round;stroke:rgb(99.215686%,57.254902%,22.745098%);stroke-opacity:0.4;stroke-miterlimit:10;" d="M 16.050781 -10 L 71.464844 188.644531 L 73.851563 196.929688 L 76.558594 204.542969 L 79.8125 212.46875 L 83.058594 219.375 L 86.863281 226.753906 L 107.519531 265 "/>
<path style="fill:none;stroke-width:1;stroke-linecap:round;stroke-linejoin:round;stroke:rgb(100%,100%,100%);stroke-opacity:1;stroke-dasharray:2,3;stroke-miterlimit:10;" d="M 8.628906 253.207031 L -2 252.285156 "/>
<path style="fill:none;stroke-width:1;stroke-linecap:round;stroke-linejoin:round;stroke:rgb(100%,100%,100%);stroke-opacity:1;stroke-dasharray:2,3;stroke-miterlimit:10;" d="M 12.992188 209.019531 L 33.101563 211.601563 "/>
<path style="fill:none;stroke-width:1;stroke-linecap:round;stroke-linejoin:round;stroke:rgb(100%,100%,100%);stroke-opacity:1;stroke-dasharray:2,3;stroke-miterlimit:10;" d="M 37.039063 212.066406 L 33.101563 211.601563 L 33.753906 212.421875 L 34.34375 213.699219 L 35.578125 214.234375 L 36.566406 213.867188 L 37.039063 212.066406 L 37.28125 210.027344 L 38.164063 208.878906 L 40.066406 208.40625 L 41.429688 208.589844 L 43.085938 209.535156 L 44.246094 210.5 L 45.160156 211.109375 L 47.082031 211.328125 "/>
<path style="fill:none;stroke-width:1;stroke-linecap:round;stroke-linejoin:round;stroke:rgb(100%,100%,100%);stroke-opacity:1;stroke-dasharray:2,3;stroke-miterlimit:10;" d="M 8.117188 186.097656 L 6.53125 195.429688 L 4.695313 202.289063 L 2.269531 211.234375 L 2.601563 213.074219 L 3.519531 214.496094 L 4.730469 215.617188 "/>
<path style="fill:none;stroke-width:1;stroke-linecap:round;stroke-linejoin:round;stroke:rgb(100%,100%,100%);stroke-opacity:1;stroke-dasharray:2,3;stroke-miterlimit:10;" d="M 28.125 238.363281 L 20.269531 223.917969 L 12.992188 209.019531 "/>
<path style="fill:none;stroke-width:1;stroke-linecap:round;stroke-linejoin:round;stroke:rgb(100%,100%,100%);stroke-opacity:1;stroke-dasharray:2,3;stroke-miterlimit:10;" d="M 14.578125 186.832031 L 15.375 192.246094 L 15.0625 199.5625 L 12.992188 209.019531 L 11.5 214.4375 L 10.5625 215.183594 L 9 215.433594 L 5.957031 215.238281 L 4.730469 215.617188 L 3.539063 215.992188 L 2.863281 216.175781 "/>
<path style="fill:none;stroke-width:1;stroke-linecap:round;stroke-linejoin:round;stroke:rgb(100%,100%,100%);stroke-opacity:1;stroke-dasharray:2,3;stroke-miterlimit:10;" d="M 11.152344 214.710938 L 11.875 216.371094 L 12.1875 219.621094 L 10.863281 232.253906 L 8.746094 252.371094 L 8.089844 257 "/>
<path style="fill:none;stroke-width:1;stroke-linecap:round;stroke-linejoin:round;stroke:rgb(100%,100%,100%);stroke-opacity:1;stroke-dasharray:2,3;stroke-miterlimit:10;" d="M 21.875 251.203125 L 10.863281 232.253906 L 20.269531 223.917969 L 33.101563 211.601563 L 15.375 192.246094 "/>
<path style="fill:none;stroke-width:1;stroke-linecap:round;stroke-linejoin:round;stroke:rgb(100%,100%,100%);stroke-opacity:1;stroke-dasharray:2,3;stroke-miterlimit:10;" d="M 36.179688 188.886719 L 33.101563 211.601563 L 32.65625 215.257813 L 32.25 218.183594 L 31.3125 224.871094 L 30.925781 227.894531 L 30.4375 231.1875 L 28.9375 236.4375 L 28.125 238.363281 L 25.1875 245.3125 L 22.1875 251.375 L 18.5 253.871094 L 14.257813 257 "/>
<path style="fill:none;stroke-width:1;stroke-linecap:round;stroke-linejoin:round;stroke:rgb(100%,100%,100%);stroke-opacity:1;stroke-dasharray:2,3;stroke-miterlimit:10;" d="M 257 119.933594 L 255.054688 124.085938 L 257 124.984375 "/>
<path style="fill:none;stroke-width:5;stroke-linecap:round;stroke-linejoin:round;stroke:rgb(75.686275%,70.980392%,61.568627%);stroke-opacity:1;stroke-miterlimit:10;" d="M 9.023438 186.167969 L 4.875 185.84375 "/>
<path style="fill:none;stroke-width:5;stroke-linecap:round;stroke-linejoin:round;stroke:rgb(75.686275%,70.980392%,61.568627%);stroke-opacity:1;stroke-miterlimit:10;" d="M -0.71875 220.929688 L 0.875 220.996094 L 2.1875 220.621094 L 3.3125 219.589844 L 3.878906 218.152344 L 3.722656 217.058594 L 2.863281 216.175781 L 1.59375 216.085938 L 0.308594 216.871094 L -0.1875 217.75 L -0.5 219.25 L -0.71875 220.929688 "/>
<path style="fill:none;stroke-width:5;stroke-linecap:round;stroke-linejoin:round;stroke:rgb(75.686275%,70.980392%,61.568627%);stroke-opacity:1;stroke-miterlimit:10;" d="M -2.53125 183.796875 L -1.128906 182.9375 L 1.0625 182.875 L 3.433594 183.558594 L 4.722656 184.539063 L 4.875 185.84375 L 4.261719 187.167969 L 2.558594 187.9375 L 0.996094 187.9375 L -1.0625 187.433594 L -2.378906 186.625 L -3.242188 184.914063 L -2.53125 183.796875 "/>
<path style="fill:none;stroke-width:5;stroke-linecap:round;stroke-linejoin:round;stroke:rgb(75.686275%,70.980392%,61.568627%);stroke-opacity:1;stroke-miterlimit:10;" d="M 9.023438 186.167969 L 14.578125 186.832031 L 36.179688 188.886719 L 49.457031 190.554688 L 51.785156 190.617188 "/>
<path style="fill:none;stroke-width:5;stroke-linecap:round;stroke-linejoin:round;stroke:rgb(75.686275%,70.980392%,61.568627%);stroke-opacity:1;stroke-miterlimit:10;" d="M -3.855469 261 L -4.167969 259.1875 L -3.882813 252.125 L -0.71875 220.929688 "/>
<path style="fill:none;stroke-width:5;stroke-linecap:round;stroke-linejoin:round;stroke:rgb(75.686275%,70.980392%,61.568627%);stroke-opacity:1;stroke-miterlimit:10;" d="M 49.054688 184.910156 L 46.167969 180.128906 L 34.292969 165.492188 L 18.542969 145.339844 L 17.695313 144.5625 L 16.316406 143.917969 L 14.734375 143.414063 L 6.367188 142.273438 L 3.105469 142.246094 L 0.929688 142 L -6 140.222656 "/>
<path style="fill:none;stroke-width:5;stroke-linecap:round;stroke-linejoin:round;stroke:rgb(75.686275%,70.980392%,61.568627%);stroke-opacity:1;stroke-miterlimit:10;" d="M 29.21875 261 L 30.84375 259.128906 L 39.300781 245.019531 L 43.347656 234.953125 L 47.082031 211.328125 L 47.765625 207.027344 L 49.457031 190.554688 L 49.054688 184.910156 "/>
<path style="fill:none;stroke-width:5;stroke-linecap:round;stroke-linejoin:round;stroke:rgb(75.686275%,70.980392%,61.568627%);stroke-opacity:1;stroke-miterlimit:10;" d="M -6 150.945313 L -2.59375 152.332031 L -0.554688 153.507813 L 1.859375 155.917969 L 3.40625 158.585938 L 4.460938 161.429688 L 4.953125 164.523438 L 5.386719 171.890625 L 5.882813 175.046875 L 6.597656 179.0625 L 8.101563 183.613281 L 9.023438 186.167969 "/>
<path style="fill:none;stroke-width:5;stroke-linecap:round;stroke-linejoin:round;stroke:rgb(75.686275%,70.980392%,61.568627%);stroke-opacity:1;stroke-miterlimit:10;" d="M 48.492188 261 L 57.835938 244.835938 L 55.648438 236.753906 L 56.394531 226.121094 L 51.785156 190.617188 L 50.335938 187.433594 L 49.054688 184.910156 "/>
<path style="fill:none;stroke-width:3;stroke-linecap:round;stroke-linejoin:round;stroke:rgb(98.039216%,98.039216%,96.078431%);stroke-opacity:1;stroke-miterlimit:10;" d="M 9.023438 186.167969 L 4.875 185.84375 "/>
<path style="fill:none;stroke-width:3;stroke-linecap:round;stroke-linejoin:round;stroke:rgb(98.039216%,98.039216%,96.078431%);stroke-opacity:1;stroke-miterlimit:10;" d="M -0.71875 220.929688 L 0.875 220.996094 L 2.1875 220.621094 L 3.3125 219.589844 L 3.878906 218.152344 L 3.722656 217.058594 L 2.863281 216.175781 L 1.59375 216.085938 L 0.308594 216.871094 L -0.1875 217.75 L -0.5 219.25 L -0.71875 220.929688 "/>
<path style="fill:none;stroke-width:3;stroke-linecap:round;stroke-linejoin:round;stroke:rgb(98.039216%,98.039216%,96.078431%);stroke-opacity:1;stroke-miterlimit:10;" d="M -2.53125 183.796875 L -1.128906 182.9375 L 1.0625 182.875 L 3.433594 183.558594 L 4.722656 184.539063 L 4.875 185.84375 L 4.261719 187.167969 L 2.558594 187.9375 L 0.996094 187.9375 L -1.0625 187.433594 L -2.378906 186.625 L -3.242188 184.914063 L -2.53125 183.796875 "/>
<path style="fill:none;stroke-width:3;stroke-linecap:round;stroke-linejoin:round;stroke:rgb(98.039216%,98.039216%,96.078431%);stroke-opacity:1;stroke-miterlimit:10;" d="M 9.023438 186.167969 L 14.578125 186.832031 L 36.179688 188.886719 L 49.457031 190.554688 L 51.785156 190.617188 "/>
<path style="fill:none;stroke-width:3;stroke-linecap:round;stroke-linejoin:round;stroke:rgb(98.039216%,98.039216%,96.078431%);stroke-opacity:1;stroke-miterlimit:10;" d="M -3.855469 261 L -4.167969 259.1875 L -3.882813 252.125 L -0.71875 220.929688 "/>
<path style="fill:none;stroke-width:3;stroke-linecap:round;stroke-linejoin:round;stroke:rgb(98.039216%,98.039216%,96.078431%);stroke-opacity:1;stroke-miterlimit:10;" d="M 49.054688 184.910156 L 46.167969 180.128906 L 34.292969 165.492188 L 18.542969 145.339844 L 17.695313 144.5625 L 16.316406 143.917969 L 14.734375 143.414063 L 6.367188 142.273438 L 3.105469 142.246094 L 0.929688 142 L -6 140.222656 "/>
<path style="fill:none;stroke-width:3;stroke-linecap:round;stroke-linejoin:round;stroke:rgb(98.039216%,98.039216%,96.078431%);stroke-opacity:1;stroke-miterlimit:10;" d="M 29.21875 261 L 30.84375 259.128906 L 39.300781 245.019531 L 43.347656 234.953125 L 47.082031 211.328125 L 47.765625 207.027344 L 49.457031 190.554688 L 49.054688 184.910156 "/>
<path style="fill:none;stroke-width:3;stroke-linecap:round;stroke-linejoin:round;stroke:rgb(98.039216%,98.039216%,96.078431%);stroke-opacity:1;stroke-miterlimit:10;" d="M -6 150.945313 L -2.59375 152.332031 L -0.554688 153.507813 L 1.859375 155.917969 L 3.40625 158.585938 L 4.460938 161.429688 L 4.953125 164.523438 L 5.386719 171.890625 L 5.882813 175.046875 L 6.597656 179.0625 L 8.101563 183.613281 L 9.023438 186.167969 "/>
<path style="fill:none;stroke-width:3;stroke-linecap:round;stroke-linejoin:round;stroke:rgb(98.039216%,98.039216%,96.078431%);stroke-opacity:1;stroke-miterlimit:10;" d="M 48.492188 261 L 57.835938 244.835938 L 55.648438 236.753906 L 56.394531 226.121094 L 51.785156 190.617188 L 50.335938 187.433594 L 49.054688 184.910156 "/>
<path style="fill:none;stroke-width:3;stroke-linecap:round;stroke-linejoin:round;stroke:rgb(100%,100%,100%);stroke-opacity:1;stroke-miterlimit:10;" d="M 137.40625 187.660156 L 140.765625 188.613281 L 141.265625 186.816406 C 141.441406 186.234375 141.429688 185.761719 141.234375 185.394531 C 141.046875 185.019531 140.667969 184.753906 140.09375 184.597656 C 139.523438 184.433594 139.058594 184.457031 138.703125 184.675781 C 138.351563 184.886719 138.085938 185.28125 137.90625 185.863281 Z M 133.671875 186.582031 L 136.421875 187.378906 L 136.890625 185.722656 C 137.046875 185.183594 137.054688 184.746094 136.90625 184.410156 C 136.761719 184.078125 136.449219 183.84375 135.96875 183.707031 C 135.511719 183.582031 135.132813 183.621094 134.828125 183.816406 C 134.527344 184.015625 134.296875 184.386719 134.140625 184.925781 Z M 132.328125 187.378906 L 133.140625 184.550781 C 133.390625 183.707031 133.777344 183.113281 134.296875 182.769531 C 134.820313 182.425781 135.4375 182.359375 136.15625 182.566406 C 136.71875 182.722656 137.132813 182.96875 137.390625 183.300781 C 137.652344 183.625 137.761719 184.027344 137.71875 184.503906 C 138 183.996094 138.390625 183.652344 138.890625 183.472656 C 139.382813 183.285156 139.9375 183.28125 140.5625 183.457031 C 141.363281 183.6875 141.914063 184.121094 142.21875 184.753906 C 142.53125 185.378906 142.550781 186.152344 142.28125 187.066406 L 141.4375 190.003906 Z M 140.921875 181.644531 L 136.796875 180.457031 L 137.078125 179.457031 L 141.171875 180.644531 C 141.820313 180.824219 142.339844 180.847656 142.734375 180.722656 C 143.121094 180.589844 143.375 180.296875 143.5 179.847656 C 143.65625 179.296875 143.585938 178.808594 143.296875 178.378906 C 143.007813 177.953125 142.527344 177.644531 141.859375 177.457031 L 137.984375 176.332031 L 138.265625 175.316406 L 145.09375 177.285156 L 144.8125 178.300781 L 143.765625 178.003906 C 144.109375 178.359375 144.332031 178.730469 144.4375 179.113281 C 144.550781 179.5 144.546875 179.90625 144.421875 180.332031 C 144.222656 181.03125 143.828125 181.496094 143.234375 181.722656 C 142.632813 181.941406 141.859375 181.917969 140.921875 181.644531 Z M 137.34375 177.878906 Z M 137.222656 171.683594 L 139.160156 172.230469 L 139.753906 170.152344 L 140.613281 170.402344 L 140.019531 172.480469 L 143.738281 173.558594 C 144.300781 173.714844 144.683594 173.746094 144.878906 173.652344 C 145.066406 173.558594 145.21875 173.308594 145.332031 172.902344 L 145.628906 171.855469 L 146.582031 172.121094 L 146.285156 173.167969 C 146.066406 173.941406 145.753906 174.429688 145.347656 174.636719 C 144.933594 174.847656 144.296875 174.832031 143.441406 174.589844 L 139.722656 173.511719 L 139.519531 174.246094 L 138.660156 173.996094 L 138.863281 173.261719 L 136.925781 172.714844 Z M 138.488281 167.285156 L 140.425781 167.832031 L 141.019531 165.753906 L 141.878906 166.003906 L 141.285156 168.082031 L 145.003906 169.160156 C 145.566406 169.316406 145.949219 169.347656 146.144531 169.253906 C 146.332031 169.160156 146.484375 168.910156 146.597656 168.503906 L 146.894531 167.457031 L 147.847656 167.722656 L 147.550781 168.769531 C 147.332031 169.542969 147.019531 170.03125 146.613281 170.238281 C 146.199219 170.449219 145.5625 170.433594 144.707031 170.191406 L 140.988281 169.113281 L 140.785156 169.847656 L 139.925781 169.597656 L 140.128906 168.863281 L 138.191406 168.316406 Z M 146.046875 160.074219 L 146.578125 160.230469 L 145.25 164.886719 C 146.042969 165.074219 146.695313 165.039063 147.203125 164.777344 C 147.714844 164.507813 148.0625 164.039063 148.25 163.371094 C 148.363281 162.988281 148.421875 162.597656 148.421875 162.199219 C 148.421875 161.804688 148.367188 161.398438 148.265625 160.980469 L 149.328125 161.292969 C 149.390625 161.691406 149.410156 162.089844 149.390625 162.496094 C 149.378906 162.902344 149.316406 163.304688 149.203125 163.699219 C 148.921875 164.679688 148.378906 165.367188 147.578125 165.761719 C 146.765625 166.160156 145.824219 166.199219 144.75 165.886719 C 143.625 165.566406 142.8125 165.039063 142.3125 164.308594 C 141.8125 163.570313 141.699219 162.738281 141.96875 161.808594 C 142.210938 160.988281 142.695313 160.417969 143.421875 160.105469 C 144.152344 159.792969 145.027344 159.785156 146.046875 160.074219 Z M 145.421875 161.011719 C 144.820313 160.835938 144.289063 160.847656 143.828125 161.042969 C 143.371094 161.230469 143.070313 161.574219 142.921875 162.074219 C 142.757813 162.648438 142.804688 163.152344 143.0625 163.589844 C 143.324219 164.027344 143.761719 164.363281 144.375 164.589844 Z M 145.460938 154.257813 C 145.359375 154.351563 145.273438 154.460938 145.210938 154.585938 C 145.140625 154.710938 145.078125 154.851563 145.023438 155.007813 C 144.859375 155.582031 144.9375 156.078125 145.257813 156.492188 C 145.582031 156.910156 146.128906 157.234375 146.898438 157.460938 L 150.507813 158.492188 L 150.210938 159.523438 L 143.382813 157.554688 L 143.679688 156.523438 L 144.742188 156.835938 C 144.378906 156.503906 144.144531 156.140625 144.039063 155.742188 C 143.9375 155.347656 143.953125 154.910156 144.085938 154.429688 C 144.109375 154.359375 144.140625 154.285156 144.179688 154.210938 C 144.210938 154.128906 144.253906 154.03125 144.304688 153.914063 Z M 147.382813 148.476563 C 146.96875 148.082031 146.691406 147.675781 146.554688 147.257813 C 146.410156 146.832031 146.40625 146.382813 146.539063 145.914063 C 146.726563 145.269531 147.125 144.847656 147.726563 144.648438 C 148.320313 144.441406 149.078125 144.46875 149.992188 144.726563 L 154.117188 145.914063 L 153.820313 146.929688 L 149.742188 145.757813 C 149.078125 145.570313 148.5625 145.535156 148.195313 145.648438 C 147.820313 145.765625 147.570313 146.035156 147.445313 146.460938 C 147.300781 146.984375 147.378906 147.453125 147.679688 147.867188 C 147.972656 148.285156 148.453125 148.59375 149.117188 148.789063 L 152.976563 149.898438 L 152.679688 150.914063 L 148.601563 149.742188 C 147.9375 149.554688 147.414063 149.519531 147.039063 149.632813 C 146.664063 149.75 146.421875 150.023438 146.304688 150.460938 C 146.148438 150.984375 146.226563 151.453125 146.539063 151.867188 C 146.84375 152.273438 147.320313 152.570313 147.976563 152.757813 L 151.835938 153.867188 L 151.539063 154.898438 L 144.710938 152.929688 L 145.007813 151.898438 L 146.070313 152.210938 C 145.71875 151.859375 145.488281 151.492188 145.382813 151.117188 C 145.269531 150.742188 145.273438 150.332031 145.398438 149.882813 C 145.523438 149.4375 145.757813 149.09375 146.101563 148.851563 C 146.445313 148.613281 146.875 148.488281 147.382813 148.476563 Z M 147.875 141.9375 L 148.15625 140.921875 L 154.984375 142.890625 L 154.703125 143.90625 Z M 145.21875 141.171875 L 145.5 140.15625 L 146.921875 140.578125 L 146.640625 141.59375 Z M 146.113281 138.046875 L 146.394531 137.03125 L 155.878906 139.765625 L 155.597656 140.78125 Z M 146.765625 135.402344 L 146.96875 134.355469 L 152.703125 135.417969 L 150.265625 131.792969 L 150.515625 130.449219 L 153.15625 134.402344 L 157.515625 131.621094 L 157.265625 132.964844 L 153.28125 135.527344 L 156.6875 136.152344 L 156.484375 137.199219 Z M 149.351563 119.3125 L 150.695313 119.375 C 150.28125 119.75 149.96875 120.15625 149.757813 120.59375 C 149.539063 121.023438 149.421875 121.480469 149.398438 121.96875 C 149.359375 122.949219 149.65625 123.710938 150.289063 124.25 C 150.914063 124.792969 151.851563 125.09375 153.101563 125.15625 C 154.351563 125.210938 155.320313 124.996094 156.007813 124.515625 C 156.695313 124.027344 157.0625 123.292969 157.101563 122.3125 C 157.125 121.824219 157.046875 121.355469 156.867188 120.90625 C 156.691406 120.449219 156.410156 120.015625 156.023438 119.609375 L 157.351563 119.671875 C 157.644531 120.078125 157.855469 120.515625 157.992188 120.984375 C 158.125 121.445313 158.183594 121.921875 158.164063 122.421875 C 158.101563 123.726563 157.617188 124.726563 156.710938 125.421875 C 155.796875 126.121094 154.578125 126.4375 153.054688 126.375 C 151.535156 126.304688 150.351563 125.882813 149.507813 125.109375 C 148.664063 124.328125 148.273438 123.289063 148.335938 121.984375 C 148.359375 121.476563 148.453125 121 148.617188 120.5625 C 148.785156 120.117188 149.03125 119.699219 149.351563 119.3125 Z M 154.101563 112.460938 L 158.398438 112.648438 L 158.351563 113.695313 L 154.101563 113.507813 C 153.425781 113.476563 152.914063 113.578125 152.570313 113.804688 C 152.226563 114.023438 152.046875 114.367188 152.023438 114.835938 C 152.003906 115.398438 152.1875 115.859375 152.570313 116.210938 C 152.957031 116.554688 153.5 116.742188 154.195313 116.773438 L 158.210938 116.945313 L 158.164063 118.007813 L 148.304688 117.570313 L 148.351563 116.507813 L 152.210938 116.679688 C 151.796875 116.410156 151.488281 116.101563 151.289063 115.757813 C 151.09375 115.414063 151.003906 115.019531 151.023438 114.570313 C 151.054688 113.84375 151.332031 113.300781 151.851563 112.945313 C 152.375 112.582031 153.125 112.421875 154.101563 112.460938 Z M 155.035156 107.484375 C 155.003906 108.339844 155.09375 108.9375 155.300781 109.28125 C 155.5 109.617188 155.859375 109.792969 156.378906 109.8125 C 156.785156 109.835938 157.121094 109.730469 157.378906 109.5 C 157.628906 109.261719 157.765625 108.929688 157.785156 108.5 C 157.808594 107.917969 157.597656 107.445313 157.160156 107.078125 C 156.714844 106.703125 156.109375 106.5 155.347656 106.46875 L 155.082031 106.453125 Z M 154.644531 105.375 L 158.707031 105.546875 L 158.660156 106.609375 L 157.582031 106.5625 C 158 106.8125 158.300781 107.125 158.488281 107.5 C 158.683594 107.867188 158.773438 108.308594 158.753906 108.828125 C 158.722656 109.484375 158.492188 109.996094 158.066406 110.359375 C 157.640625 110.726563 157.089844 110.890625 156.410156 110.859375 C 155.609375 110.828125 155.015625 110.5625 154.628906 110.0625 C 154.246094 109.5625 154.074219 108.835938 154.113281 107.875 L 154.175781 106.40625 L 154.050781 106.40625 C 153.519531 106.386719 153.105469 106.527344 152.800781 106.828125 C 152.488281 107.132813 152.316406 107.570313 152.285156 108.140625 C 152.277344 108.507813 152.3125 108.867188 152.394531 109.21875 C 152.480469 109.5625 152.609375 109.902344 152.785156 110.234375 L 151.707031 110.1875 C 151.5625 109.792969 151.457031 109.417969 151.394531 109.0625 C 151.324219 108.699219 151.292969 108.34375 151.300781 108 C 151.34375 107.074219 151.640625 106.390625 152.191406 105.953125 C 152.746094 105.515625 153.5625 105.324219 154.644531 105.375 Z M 154.742188 97.882813 L 159.039063 98.070313 L 158.992188 99.117188 L 154.742188 98.929688 C 154.066406 98.898438 153.554688 99 153.210938 99.226563 C 152.867188 99.445313 152.6875 99.789063 152.664063 100.257813 C 152.644531 100.820313 152.828125 101.28125 153.210938 101.632813 C 153.597656 101.976563 154.140625 102.164063 154.835938 102.195313 L 158.851563 102.367188 L 158.804688 103.429688 L 151.695313 103.117188 L 151.742188 102.054688 L 152.851563 102.101563 C 152.4375 101.832031 152.128906 101.523438 151.929688 101.179688 C 151.734375 100.835938 151.644531 100.441406 151.664063 99.992188 C 151.695313 99.265625 151.972656 98.722656 152.492188 98.367188 C 153.015625 98.003906 153.765625 97.84375 154.742188 97.882813 Z M 155.066406 90.46875 L 159.363281 90.65625 L 159.316406 91.703125 L 155.066406 91.515625 C 154.390625 91.484375 153.878906 91.585938 153.535156 91.8125 C 153.191406 92.03125 153.011719 92.375 152.988281 92.84375 C 152.96875 93.40625 153.152344 93.867188 153.535156 94.21875 C 153.921875 94.5625 154.464844 94.75 155.160156 94.78125 L 159.175781 94.953125 L 159.128906 96.015625 L 152.019531 95.703125 L 152.066406 94.640625 L 153.175781 94.6875 C 152.761719 94.417969 152.453125 94.109375 152.253906 93.765625 C 152.058594 93.421875 151.96875 93.027344 151.988281 92.578125 C 152.019531 91.851563 152.296875 91.308594 152.816406 90.953125 C 153.339844 90.589844 154.089844 90.429688 155.066406 90.46875 Z M 155.847656 82.914063 L 156.410156 82.945313 L 156.207031 87.789063 C 157.019531 87.769531 157.644531 87.578125 158.082031 87.210938 C 158.511719 86.835938 158.738281 86.300781 158.769531 85.601563 C 158.792969 85.195313 158.753906 84.804688 158.660156 84.429688 C 158.566406 84.046875 158.421875 83.660156 158.222656 83.273438 L 159.332031 83.320313 C 159.488281 83.707031 159.601563 84.101563 159.675781 84.507813 C 159.757813 84.90625 159.789063 85.304688 159.769531 85.710938 C 159.726563 86.734375 159.363281 87.53125 158.675781 88.101563 C 157.988281 88.664063 157.082031 88.921875 155.957031 88.867188 C 154.792969 88.816406 153.878906 88.492188 153.222656 87.898438 C 152.566406 87.304688 152.261719 86.53125 152.300781 85.570313 C 152.332031 84.707031 152.667969 84.039063 153.300781 83.570313 C 153.9375 83.09375 154.785156 82.875 155.847656 82.914063 Z M 155.472656 83.960938 C 154.839844 83.941406 154.324219 84.078125 153.925781 84.367188 C 153.519531 84.660156 153.308594 85.066406 153.285156 85.585938 C 153.253906 86.179688 153.417969 86.660156 153.769531 87.023438 C 154.125 87.390625 154.636719 87.613281 155.300781 87.695313 Z M 149.914063 80.917969 L 149.960938 79.871094 L 159.820313 80.308594 L 159.773438 81.355469 Z M 149.914063 80.917969 "/>
<path style=" stroke:none;fill-rule:evenodd;fill:rgb(41.960784%,58.039216%,69.019608%);fill-opacity:1;" d="M 137.40625 187.660156 L 140.765625 188.613281 L 141.265625 186.816406 C 141.441406 186.234375 141.429688 185.761719 141.234375 185.394531 C 141.046875 185.019531 140.667969 184.753906 140.09375 184.597656 C 139.523438 184.433594 139.058594 184.457031 138.703125 184.675781 C 138.351563 184.886719 138.085938 185.28125 137.90625 185.863281 Z M 133.671875 186.582031 L 136.421875 187.378906 L 136.890625 185.722656 C 137.046875 185.183594 137.054688 184.746094 136.90625 184.410156 C 136.761719 184.078125 136.449219 183.84375 135.96875 183.707031 C 135.511719 183.582031 135.132813 183.621094 134.828125 183.816406 C 134.527344 184.015625 134.296875 184.386719 134.140625 184.925781 Z M 132.328125 187.378906 L 133.140625 184.550781 C 133.390625 183.707031 133.777344 183.113281 134.296875 182.769531 C 134.820313 182.425781 135.4375 182.359375 136.15625 182.566406 C 136.71875 182.722656 137.132813 182.96875 137.390625 183.300781 C 137.652344 183.625 137.761719 184.027344 137.71875 184.503906 C 138 183.996094 138.390625 183.652344 138.890625 183.472656 C 139.382813 183.285156 139.9375 183.28125 140.5625 183.457031 C 141.363281 183.6875 141.914063 184.121094 142.21875 184.753906 C 142.53125 185.378906 142.550781 186.152344 142.28125 187.066406 L 141.4375 190.003906 Z M 140.921875 181.644531 L 136.796875 180.457031 L 137.078125 179.457031 L 141.171875 180.644531 C 141.820313 180.824219 142.339844 180.847656 142.734375 180.722656 C 143.121094 180.589844 143.375 180.296875 143.5 179.847656 C 143.65625 179.296875 143.585938 178.808594 143.296875 178.378906 C 143.007813 177.953125 142.527344 177.644531 141.859375 177.457031 L 137.984375 176.332031 L 138.265625 175.316406 L 145.09375 177.285156 L 144.8125 178.300781 L 143.765625 178.003906 C 144.109375 178.359375 144.332031 178.730469 144.4375 179.113281 C 144.550781 179.5 144.546875 179.90625 144.421875 180.332031 C 144.222656 181.03125 143.828125 181.496094 143.234375 181.722656 C 142.632813 181.941406 141.859375 181.917969 140.921875 181.644531 Z M 137.34375 177.878906 Z M 137.222656 171.683594 L 139.160156 172.230469 L 139.753906 170.152344 L 140.613281 170.402344 L 140.019531 172.480469 L 143.738281 173.558594 C 144.300781 173.714844 144.683594 173.746094 144.878906 173.652344 C 145.066406 173.558594 145.21875 173.308594 145.332031 172.902344 L 145.628906 171.855469 L 146.582031 172.121094 L 146.285156 173.167969 C 146.066406 173.941406 145.753906 174.429688 145.347656 174.636719 C 144.933594 174.847656 144.296875 174.832031 143.441406 174.589844 L 139.722656 173.511719 L 139.519531 174.246094 L 138.660156 173.996094 L 138.863281 173.261719 L 136.925781 172.714844 Z M 138.488281 167.285156 L 140.425781 167.832031 L 141.019531 165.753906 L 141.878906 166.003906 L 141.285156 168.082031 L 145.003906 169.160156 C 145.566406 169.316406 145.949219 169.347656 146.144531 169.253906 C 146.332031 169.160156 146.484375 168.910156 146.597656 168.503906 L 146.894531 167.457031 L 147.847656 167.722656 L 147.550781 168.769531 C 147.332031 169.542969 147.019531 170.03125 146.613281 170.238281 C 146.199219 170.449219 145.5625 170.433594 144.707031 170.191406 L 140.988281 169.113281 L 140.785156 169.847656 L 139.925781 169.597656 L 140.128906 168.863281 L 138.191406 168.316406 Z M 146.046875 160.074219 L 146.578125 160.230469 L 145.25 164.886719 C 146.042969 165.074219 146.695313 165.039063 147.203125 164.777344 C 147.714844 164.507813 148.0625 164.039063 148.25 163.371094 C 148.363281 162.988281 148.421875 162.597656 148.421875 162.199219 C 148.421875 161.804688 148.367188 161.398438 148.265625 160.980469 L 149.328125 161.292969 C 149.390625 161.691406 149.410156 162.089844 149.390625 162.496094 C 149.378906 162.902344 149.316406 163.304688 149.203125 163.699219 C 148.921875 164.679688 148.378906 165.367188 147.578125 165.761719 C 146.765625 166.160156 145.824219 166.199219 144.75 165.886719 C 143.625 165.566406 142.8125 165.039063 142.3125 164.308594 C 141.8125 163.570313 141.699219 162.738281 141.96875 161.808594 C 142.210938 160.988281 142.695313 160.417969 143.421875 160.105469 C 144.152344 159.792969 145.027344 159.785156 146.046875 160.074219 Z M 145.421875 161.011719 C 144.820313 160.835938 144.289063 160.847656 143.828125 161.042969 C 143.371094 161.230469 143.070313 161.574219 142.921875 162.074219 C 142.757813 162.648438 142.804688 163.152344 143.0625 163.589844 C 143.324219 164.027344 143.761719 164.363281 144.375 164.589844 Z M 145.460938 154.257813 C 145.359375 154.351563 145.273438 154.460938 145.210938 154.585938 C 145.140625 154.710938 145.078125 154.851563 145.023438 155.007813 C 144.859375 155.582031 144.9375 156.078125 145.257813 156.492188 C 145.582031 156.910156 146.128906 157.234375 146.898438 157.460938 L 150.507813 158.492188 L 150.210938 159.523438 L 143.382813 157.554688 L 143.679688 156.523438 L 144.742188 156.835938 C 144.378906 156.503906 144.144531 156.140625 144.039063 155.742188 C 143.9375 155.347656 143.953125 154.910156 144.085938 154.429688 C 144.109375 154.359375 144.140625 154.285156 144.179688 154.210938 C 144.210938 154.128906 144.253906 154.03125 144.304688 153.914063 Z M 147.382813 148.476563 C 146.96875 148.082031 146.691406 147.675781 146.554688 147.257813 C 146.410156 146.832031 146.40625 146.382813 146.539063 145.914063 C 146.726563 145.269531 147.125 144.847656 147.726563 144.648438 C 148.320313 144.441406 149.078125 144.46875 149.992188 144.726563 L 154.117188 145.914063 L 153.820313 146.929688 L 149.742188 145.757813 C 149.078125 145.570313 148.5625 145.535156 148.195313 145.648438 C 147.820313 145.765625 147.570313 146.035156 147.445313 146.460938 C 147.300781 146.984375 147.378906 147.453125 147.679688 147.867188 C 147.972656 148.285156 148.453125 148.59375 149.117188 148.789063 L 152.976563 149.898438 L 152.679688 150.914063 L 148.601563 149.742188 C 147.9375 149.554688 147.414063 149.519531 147.039063 149.632813 C 146.664063 149.75 146.421875 150.023438 146.304688 150.460938 C 146.148438 150.984375 146.226563 151.453125 146.539063 151.867188 C 146.84375 152.273438 147.320313 152.570313 147.976563 152.757813 L 151.835938 153.867188 L 151.539063 154.898438 L 144.710938 152.929688 L 145.007813 151.898438 L 146.070313 152.210938 C 145.71875 151.859375 145.488281 151.492188 145.382813 151.117188 C 145.269531 150.742188 145.273438 150.332031 145.398438 149.882813 C 145.523438 149.4375 145.757813 149.09375 146.101563 148.851563 C 146.445313 148.613281 146.875 148.488281 147.382813 148.476563 Z M 147.875 141.9375 L 148.15625 140.921875 L 154.984375 142.890625 L 154.703125 143.90625 Z M 145.21875 141.171875 L 145.5 140.15625 L 146.921875 140.578125 L 146.640625 141.59375 Z M 146.113281 138.046875 L 146.394531 137.03125 L 155.878906 139.765625 L 155.597656 140.78125 Z M 146.765625 135.402344 L 146.96875 134.355469 L 152.703125 135.417969 L 150.265625 131.792969 L 150.515625 130.449219 L 153.15625 134.402344 L 157.515625 131.621094 L 157.265625 132.964844 L 153.28125 135.527344 L 156.6875 136.152344 L 156.484375 137.199219 Z M 149.351563 119.3125 L 150.695313 119.375 C 150.28125 119.75 149.96875 120.15625 149.757813 120.59375 C 149.539063 121.023438 149.421875 121.480469 149.398438 121.96875 C 149.359375 122.949219 149.65625 123.710938 150.289063 124.25 C 150.914063 124.792969 151.851563 125.09375 153.101563 125.15625 C 154.351563 125.210938 155.320313 124.996094 156.007813 124.515625 C 156.695313 124.027344 157.0625 123.292969 157.101563 122.3125 C 157.125 121.824219 157.046875 121.355469 156.867188 120.90625 C 156.691406 120.449219 156.410156 120.015625 156.023438 119.609375 L 157.351563 119.671875 C 157.644531 120.078125 157.855469 120.515625 157.992188 120.984375 C 158.125 121.445313 158.183594 121.921875 158.164063 122.421875 C 158.101563 123.726563 157.617188 124.726563 156.710938 125.421875 C 155.796875 126.121094 154.578125 126.4375 153.054688 126.375 C 151.535156 126.304688 150.351563 125.882813 149.507813 125.109375 C 148.664063 124.328125 148.273438 123.289063 148.335938 121.984375 C 148.359375 121.476563 148.453125 121 148.617188 120.5625 C 148.785156 120.117188 149.03125 119.699219 149.351563 119.3125 Z M 154.101563 112.460938 L 158.398438 112.648438 L 158.351563 113.695313 L 154.101563 113.507813 C 153.425781 113.476563 152.914063 113.578125 152.570313 113.804688 C 152.226563 114.023438 152.046875 114.367188 152.023438 114.835938 C 152.003906 115.398438 152.1875 115.859375 152.570313 116.210938 C 152.957031 116.554688 153.5 116.742188 154.195313 116.773438 L 158.210938 116.945313 L 158.164063 118.007813 L 148.304688 117.570313 L 148.351563 116.507813 L 152.210938 116.679688 C 151.796875 116.410156 151.488281 116.101563 151.289063 115.757813 C 151.09375 115.414063 151.003906 115.019531 151.023438 114.570313 C 151.054688 113.84375 151.332031 113.300781 151.851563 112.945313 C 152.375 112.582031 153.125 112.421875 154.101563 112.460938 Z M 155.035156 107.484375 C 155.003906 108.339844 155.09375 108.9375 155.300781 109.28125 C 155.5 109.617188 155.859375 109.792969 156.378906 109.8125 C 156.785156 109.835938 157.121094 109.730469 157.378906 109.5 C 157.628906 109.261719 157.765625 108.929688 157.785156 108.5 C 157.808594 107.917969 157.597656 107.445313 157.160156 107.078125 C 156.714844 106.703125 156.109375 106.5 155.347656 106.46875 L 155.082031 106.453125 Z M 154.644531 105.375 L 158.707031 105.546875 L 158.660156 106.609375 L 157.582031 106.5625 C 158 106.8125 158.300781 107.125 158.488281 107.5 C 158.683594 107.867188 158.773438 108.308594 158.753906 108.828125 C 158.722656 109.484375 158.492188 109.996094 158.066406 110.359375 C 157.640625 110.726563 157.089844 110.890625 156.410156 110.859375 C 155.609375 110.828125 155.015625 110.5625 154.628906 110.0625 C 154.246094 109.5625 154.074219 108.835938 154.113281 107.875 L 154.175781 106.40625 L 154.050781 106.40625 C 153.519531 106.386719 153.105469 106.527344 152.800781 106.828125 C 152.488281 107.132813 152.316406 107.570313 152.285156 108.140625 C 152.277344 108.507813 152.3125 108.867188 152.394531 109.21875 C 152.480469 109.5625 152.609375 109.902344 152.785156 110.234375 L 151.707031 110.1875 C 151.5625 109.792969 151.457031 109.417969 151.394531 109.0625 C 151.324219 108.699219 151.292969 108.34375 151.300781 108 C 151.34375 107.074219 151.640625 106.390625 152.191406 105.953125 C 152.746094 105.515625 153.5625 105.324219 154.644531 105.375 Z M 154.742188 97.882813 L 159.039063 98.070313 L 158.992188 99.117188 L 154.742188 98.929688 C 154.066406 98.898438 153.554688 99 153.210938 99.226563 C 152.867188 99.445313 152.6875 99.789063 152.664063 100.257813 C 152.644531 100.820313 152.828125 101.28125 153.210938 101.632813 C 153.597656 101.976563 154.140625 102.164063 154.835938 102.195313 L 158.851563 102.367188 L 158.804688 103.429688 L 151.695313 103.117188 L 151.742188 102.054688 L 152.851563 102.101563 C 152.4375 101.832031 152.128906 101.523438 151.929688 101.179688 C 151.734375 100.835938 151.644531 100.441406 151.664063 99.992188 C 151.695313 99.265625 151.972656 98.722656 152.492188 98.367188 C 153.015625 98.003906 153.765625 97.84375 154.742188 97.882813 Z M 155.066406 90.46875 L 159.363281 90.65625 L 159.316406 91.703125 L 155.066406 91.515625 C 154.390625 91.484375 153.878906 91.585938 153.535156 91.8125 C 153.191406 92.03125 153.011719 92.375 152.988281 92.84375 C 152.96875 93.40625 153.152344 93.867188 153.535156 94.21875 C 153.921875 94.5625 154.464844 94.75 155.160156 94.78125 L 159.175781 94.953125 L 159.128906 96.015625 L 152.019531 95.703125 L 152.066406 94.640625 L 153.175781 94.6875 C 152.761719 94.417969 152.453125 94.109375 152.253906 93.765625 C 152.058594 93.421875 151.96875 93.027344 151.988281 92.578125 C 152.019531 91.851563 152.296875 91.308594 152.816406 90.953125 C 153.339844 90.589844 154.089844 90.429688 155.066406 90.46875 Z M 155.847656 82.914063 L 156.410156 82.945313 L 156.207031 87.789063 C 157.019531 87.769531 157.644531 87.578125 158.082031 87.210938 C 158.511719 86.835938 158.738281 86.300781 158.769531 85.601563 C 158.792969 85.195313 158.753906 84.804688 158.660156 84.429688 C 158.566406 84.046875 158.421875 83.660156 158.222656 83.273438 L 159.332031 83.320313 C 159.488281 83.707031 159.601563 84.101563 159.675781 84.507813 C 159.757813 84.90625 159.789063 85.304688 159.769531 85.710938 C 159.726563 86.734375 159.363281 87.53125 158.675781 88.101563 C 157.988281 88.664063 157.082031 88.921875 155.957031 88.867188 C 154.792969 88.816406 153.878906 88.492188 153.222656 87.898438 C 152.566406 87.304688 152.261719 86.53125 152.300781 85.570313 C 152.332031 84.707031 152.667969 84.039063 153.300781 83.570313 C 153.9375 83.09375 154.785156 82.875 155.847656 82.914063 Z M 155.472656 83.960938 C 154.839844 83.941406 154.324219 84.078125 153.925781 84.367188 C 153.519531 84.660156 153.308594 85.066406 153.285156 85.585938 C 153.253906 86.179688 153.417969 86.660156 153.769531 87.023438 C 154.125 87.390625 154.636719 87.613281 155.300781 87.695313 Z M 149.914063 80.917969 L 149.960938 79.871094 L 159.820313 80.308594 L 159.773438 81.355469 Z M 149.914063 80.917969 "/>
</g>
</svg>

