<?xml version="1.0" encoding="UTF-8"?>
<svg xmlns="http://www.w3.org/2000/svg" xmlns:xlink="http://www.w3.org/1999/xlink" width="256pt" height="256pt" viewBox="0 0 256 256" version="1.1">
<g id="surface2">
<rect x="0" y="0" width="256" height="256" style="fill:rgb(60%,70.196078%,80%);fill-opacity:1;stroke:none;"/>
<path style="fill:none;stroke-width:1;stroke-linecap:round;stroke-linejoin:round;stroke:rgb(70.196078%,77.647059%,83.137255%);stroke-opacity:1;stroke-miterlimit:10;" d="M -4 259 L 259 259 L 259 -4 L -4 -4 L -4 259 "/>
<path style="fill:none;stroke-width:6;stroke-linecap:round;stroke-linejoin:round;stroke:rgb(60%,70.196078%,80%);stroke-opacity:1;stroke-miterlimit:10;" d="M 107.867188 -7 L 34.210938 262 "/>
<path style="fill:none;stroke-width:3;stroke-linecap:round;stroke-linejoin:round;stroke:rgb(100%,100%,100%);stroke-opacity:1;stroke-miterlimit:10;" d="M 56.539063 162.949219 L 56.835938 161.839844 L 60.585938 162.855469 L 61.695313 158.808594 L 57.945313 157.792969 L 58.242188 156.667969 L 67.382813 159.167969 L 67.085938 160.292969 L 62.726563 159.105469 L 61.617188 163.152344 L 65.976563 164.339844 L 65.679688 165.449219 Z M 65.234375 156.355469 L 61.09375 155.230469 L 61.375 154.230469 L 65.484375 155.355469 C 66.132813 155.535156 66.648438 155.554688 67.03125 155.417969 C 67.417969 155.273438 67.671875 154.976563 67.796875 154.527344 C 67.953125 153.976563 67.882813 153.492188 67.59375 153.074219 C 67.292969 152.648438 66.804688 152.339844 66.125 152.152344 L 62.234375 151.089844 L 62.5 150.058594 L 69.359375 151.933594 L 69.09375 152.964844 L 68.03125 152.683594 C 68.382813 153.039063 68.617188 153.410156 68.734375 153.792969 C 68.847656 154.167969 68.847656 154.570313 68.734375 154.996094 C 68.535156 155.707031 68.140625 156.175781 67.546875 156.402344 C 66.953125 156.632813 66.183594 156.617188 65.234375 156.355469 Z M 61.640625 152.636719 Z M 65.242188 144.199219 L 61.523438 143.183594 L 61.789063 142.167969 L 71.320313 144.777344 L 71.054688 145.792969 L 70.023438 145.511719 C 70.367188 145.835938 70.59375 146.191406 70.710938 146.574219 C 70.824219 146.949219 70.820313 147.363281 70.695313 147.808594 C 70.484375 148.570313 69.984375 149.089844 69.195313 149.371094 C 68.40625 149.652344 67.472656 149.648438 66.398438 149.355469 C 65.328125 149.066406 64.523438 148.597656 63.992188 147.949219 C 63.453125 147.304688 63.285156 146.601563 63.492188 145.839844 C 63.617188 145.394531 63.820313 145.035156 64.101563 144.761719 C 64.382813 144.480469 64.765625 144.292969 65.242188 144.199219 Z M 66.679688 148.308594 C 67.503906 148.539063 68.195313 148.566406 68.757813 148.386719 C 69.3125 148.210938 69.65625 147.855469 69.804688 147.324219 C 69.960938 146.785156 69.84375 146.292969 69.460938 145.855469 C 69.066406 145.417969 68.457031 145.085938 67.632813 144.855469 C 66.800781 144.628906 66.109375 144.605469 65.554688 144.792969 C 65.003906 144.972656 64.648438 145.332031 64.492188 145.871094 C 64.347656 146.402344 64.46875 146.886719 64.851563 147.324219 C 65.238281 147.753906 65.847656 148.082031 66.679688 148.308594 Z M 66.328125 136.929688 L 67.390625 137.226563 C 67.152344 137.476563 66.949219 137.75 66.78125 138.039063 C 66.617188 138.320313 66.484375 138.625 66.390625 138.945313 C 66.257813 139.457031 66.242188 139.863281 66.34375 140.164063 C 66.449219 140.46875 66.671875 140.664063 67.015625 140.757813 C 67.277344 140.820313 67.507813 140.78125 67.703125 140.632813 C 67.890625 140.488281 68.132813 140.164063 68.421875 139.664063 L 68.59375 139.351563 C 68.96875 138.675781 69.355469 138.234375 69.75 138.023438 C 70.136719 137.804688 70.605469 137.773438 71.15625 137.929688 C 71.800781 138.109375 72.25 138.472656 72.5 139.023438 C 72.75 139.566406 72.769531 140.238281 72.5625 141.039063 C 72.46875 141.351563 72.332031 141.679688 72.15625 142.023438 C 71.988281 142.367188 71.78125 142.71875 71.53125 143.070313 L 70.359375 142.742188 C 70.695313 142.441406 70.964844 142.125 71.171875 141.789063 C 71.371094 141.457031 71.515625 141.113281 71.609375 140.757813 C 71.742188 140.28125 71.753906 139.890625 71.640625 139.585938 C 71.527344 139.273438 71.304688 139.070313 70.96875 138.976563 C 70.667969 138.894531 70.40625 138.925781 70.1875 139.070313 C 69.96875 139.21875 69.703125 139.582031 69.390625 140.164063 L 69.203125 140.476563 C 68.882813 141.070313 68.53125 141.46875 68.15625 141.664063 C 67.773438 141.863281 67.3125 141.890625 66.78125 141.742188 C 66.136719 141.566406 65.699219 141.222656 65.46875 140.710938 C 65.230469 140.191406 65.214844 139.554688 65.421875 138.804688 C 65.527344 138.429688 65.652344 138.085938 65.796875 137.773438 C 65.945313 137.460938 66.121094 137.179688 66.328125 136.929688 Z M 68.078125 132.773438 C 67.933594 133.316406 68.058594 133.8125 68.453125 134.257813 C 68.839844 134.695313 69.445313 135.03125 70.265625 135.257813 C 71.089844 135.488281 71.777344 135.507813 72.328125 135.320313 C 72.882813 135.125 73.226563 134.753906 73.375 134.210938 C 73.53125 133.671875 73.414063 133.175781 73.03125 132.726563 C 72.636719 132.28125 72.03125 131.945313 71.21875 131.726563 C 70.40625 131.507813 69.71875 131.492188 69.15625 131.679688 C 68.59375 131.867188 68.234375 132.234375 68.078125 132.773438 Z M 67.140625 132.507813 C 67.390625 131.625 67.902344 131.019531 68.671875 130.695313 C 69.445313 130.363281 70.390625 130.351563 71.515625 130.664063 C 72.640625 130.976563 73.453125 131.472656 73.953125 132.148438 C 74.460938 132.816406 74.59375 133.59375 74.34375 134.476563 C 74.101563 135.363281 73.597656 135.972656 72.828125 136.304688 C 72.046875 136.628906 71.09375 136.632813 69.96875 136.320313 C 68.84375 136.007813 68.03125 135.519531 67.53125 134.851563 C 67.03125 134.175781 66.902344 133.394531 67.140625 132.507813 Z M 72.671875 123.652344 L 76.8125 124.792969 L 76.53125 125.792969 L 72.4375 124.667969 C 71.78125 124.492188 71.261719 124.476563 70.875 124.621094 C 70.492188 124.769531 70.234375 125.066406 70.109375 125.511719 C 69.964844 126.054688 70.042969 126.539063 70.34375 126.964844 C 70.648438 127.382813 71.132813 127.683594 71.796875 127.871094 L 75.671875 128.933594 L 75.390625 129.949219 L 68.53125 128.074219 L 68.8125 127.058594 L 69.890625 127.355469 C 69.539063 127.003906 69.304688 126.632813 69.1875 126.246094 C 69.074219 125.863281 69.078125 125.457031 69.203125 125.027344 C 69.390625 124.320313 69.78125 123.851563 70.375 123.621094 C 70.960938 123.394531 71.726563 123.402344 72.671875 123.652344 Z M 75.144531 114.0625 C 75.300781 113.84375 75.558594 113.664063 75.910156 113.515625 C 76.265625 113.371094 76.730469 113.25 77.300781 113.15625 L 80.113281 112.71875 L 79.785156 113.921875 L 77.144531 114.328125 C 76.457031 114.421875 75.984375 114.574219 75.722656 114.78125 C 75.453125 114.980469 75.253906 115.296875 75.128906 115.734375 L 74.800781 116.953125 L 78.660156 118.015625 L 78.363281 119.125 L 69.222656 116.625 L 69.894531 114.125 C 70.15625 113.179688 70.566406 112.53125 71.128906 112.1875 C 71.683594 111.84375 72.402344 111.792969 73.285156 112.03125 C 73.859375 112.1875 74.308594 112.4375 74.628906 112.78125 C 74.953125 113.125 75.125 113.554688 75.144531 114.0625 Z M 70.535156 115.796875 L 73.785156 116.671875 L 74.160156 115.28125 C 74.316406 114.730469 74.292969 114.28125 74.082031 113.9375 C 73.875 113.59375 73.503906 113.351563 72.972656 113.203125 C 72.441406 113.058594 72.003906 113.085938 71.660156 113.28125 C 71.316406 113.480469 71.066406 113.855469 70.910156 114.40625 Z M 73.632813 109.460938 L 73.898438 108.445313 L 80.757813 110.320313 L 80.492188 111.335938 Z M 70.960938 108.726563 L 71.226563 107.710938 L 72.664063 108.101563 L 72.398438 109.117188 Z M 74.289063 107.058594 L 74.585938 105.980469 L 80.867188 105.636719 L 75.632813 102.121094 L 75.929688 101.042969 L 82.164063 105.230469 L 81.773438 106.605469 Z M 80.914063 95.226563 L 81.445313 95.382813 L 80.164063 100.054688 C 80.976563 100.210938 81.632813 100.160156 82.132813 99.898438 C 82.632813 99.628906 82.976563 99.15625 83.164063 98.476563 C 83.265625 98.09375 83.3125 97.707031 83.304688 97.320313 C 83.304688 96.925781 83.246094 96.515625 83.132813 96.085938 L 84.210938 96.382813 C 84.273438 96.789063 84.296875 97.195313 84.289063 97.601563 C 84.277344 98.007813 84.21875 98.410156 84.117188 98.804688 C 83.84375 99.796875 83.3125 100.492188 82.523438 100.898438 C 81.722656 101.296875 80.78125 101.34375 79.695313 101.039063 C 78.570313 100.738281 77.757813 100.222656 77.257813 99.492188 C 76.75 98.765625 76.617188 97.941406 76.867188 97.023438 C 77.097656 96.191406 77.570313 95.613281 78.289063 95.289063 C 79.007813 94.96875 79.882813 94.945313 80.914063 95.226563 Z M 80.304688 96.164063 C 79.691406 96 79.15625 96.015625 78.695313 96.210938 C 78.238281 96.410156 77.941406 96.765625 77.804688 97.273438 C 77.648438 97.847656 77.707031 98.347656 77.976563 98.773438 C 78.238281 99.203125 78.6875 99.53125 79.320313 99.757813 Z M 80.253906 89.40625 C 80.152344 89.5 80.0625 89.617188 79.988281 89.75 C 79.917969 89.875 79.859375 90.015625 79.816406 90.171875 C 79.660156 90.746094 79.75 91.242188 80.082031 91.65625 C 80.40625 92.074219 80.957031 92.390625 81.738281 92.609375 L 85.347656 93.59375 L 85.066406 94.609375 L 78.207031 92.734375 L 78.488281 91.71875 L 79.566406 92.015625 C 79.191406 91.695313 78.953125 91.335938 78.847656 90.9375 C 78.746094 90.53125 78.761719 90.089844 78.894531 89.609375 C 78.917969 89.539063 78.941406 89.460938 78.972656 89.375 C 78.996094 89.292969 79.03125 89.199219 79.082031 89.09375 Z M 80.253906 89.40625 "/>
<path style=" stroke:none;fill-rule:evenodd;fill:rgb(41.960784%,58.039216%,69.019608%);fill-opacity:1;" d="M 56.539063 162.949219 L 56.835938 161.839844 L 60.585938 162.855469 L 61.695313 158.808594 L 57.945313 157.792969 L 58.242188 156.667969 L 67.382813 159.167969 L 67.085938 160.292969 L 62.726563 159.105469 L 61.617188 163.152344 L 65.976563 164.339844 L 65.679688 165.449219 Z M 65.234375 156.355469 L 61.09375 155.230469 L 61.375 154.230469 L 65.484375 155.355469 C 66.132813 155.535156 66.648438 155.554688 67.03125 155.417969 C 67.417969 155.273438 67.671875 154.976563 67.796875 154.527344 C 67.953125 153.976563 67.882813 153.492188 67.59375 153.074219 C 67.292969 152.648438 66.804688 152.339844 66.125 152.152344 L 62.234375 151.089844 L 62.5 150.058594 L 69.359375 151.933594 L 69.09375 152.964844 L 68.03125 152.683594 C 68.382813 153.039063 68.617188 153.410156 68.734375 153.792969 C 68.847656 154.167969 68.847656 154.570313 68.734375 154.996094 C 68.535156 155.707031 68.140625 156.175781 67.546875 156.402344 C 66.953125 156.632813 66.183594 156.617188 65.234375 156.355469 Z M 61.640625 152.636719 Z M 65.242188 144.199219 L 61.523438 143.183594 L 61.789063 142.167969 L 71.320313 144.777344 L 71.054688 145.792969 L 70.023438 145.511719 C 70.367188 145.835938 70.59375 146.191406 70.710938 146.574219 C 70.824219 146.949219 70.820313 147.363281 70.695313 147.808594 C 70.484375 148.570313 69.984375 149.089844 69.195313 149.371094 C 68.40625 149.652344 67.472656 149.648438 66.398438 149.355469 C 65.328125 149.066406 64.523438 148.597656 63.992188 147.949219 C 63.453125 147.304688 63.285156 146.601563 63.492188 145.839844 C 63.617188 145.394531 63.820313 145.035156 64.101563 144.761719 C 64.382813 144.480469 64.765625 144.292969 65.242188 144.199219 Z M 66.679688 148.308594 C 67.503906 148.539063 68.195313 148.566406 68.757813 148.386719 C 69.3125 148.210938 69.65625 147.855469 69.804688 147.324219 C 69.960938 146.785156 69.84375 146.292969 69.460938 145.855469 C 69.066406 145.417969 68.457031 145.085938 67.632813 144.855469 C 66.800781 144.628906 66.109375 144.605469 65.554688 144.792969 C 65.003906 144.972656 64.648438 145.332031 64.492188 145.871094 C 64.347656 146.402344 64.46875 146.886719 64.851563 147.324219 C 65.238281 147.753906 65.847656 148.082031 66.679688 148.308594 Z M 66.328125 136.929688 L 67.390625 137.226563 C 67.152344 137.476563 66.949219 137.75 66.78125 138.039063 C 66.617188 138.320313 66.484375 138.625 66.390625 138.945313 C 66.257813 139.457031 66.242188 139.863281 66.34375 140.164063 C 66.449219 140.46875 66.671875 140.664063 67.015625 140.757813 C 67.277344 140.820313 67.507813 140.78125 67.703125 140.632813 C 67.890625 140.488281 68.132813 140.164063 68.421875 139.664063 L 68.59375 139.351563 C 68.96875 138.675781 69.355469 138.234375 69.75 138.023438 C 70.136719 137.804688 70.605469 137.773438 71.15625 137.929688 C 71.800781 138.109375 72.25 138.472656 72.5 139.023438 C 72.75 139.566406 72.769531 140.238281 72.5625 141.039063 C 72.46875 141.351563 72.332031 141.679688 72.15625 142.023438 C 71.988281 142.367188 71.78125 142.71875 71.53125 143.070313 L 70.359375 142.742188 C 70.695313 142.441406 70.964844 142.125 71.171875 141.789063 C 71.371094 141.457031 71.515625 141.113281 71.609375 140.757813 C 71.742188 140.28125 71.753906 139.890625 71.640625 139.585938 C 71.527344 139.273438 71.304688 139.070313 70.96875 138.976563 C 70.667969 138.894531 70.40625 138.925781 70.1875 139.070313 C 69.96875 139.21875 69.703125 139.582031 69.390625 140.164063 L 69.203125 140.476563 C 68.882813 141.070313 68.53125 141.46875 68.15625 141.664063 C 67.773438 141.863281 67.3125 141.890625 66.78125 141.742188 C 66.136719 141.566406 65.699219 141.222656 65.46875 140.710938 C 65.230469 140.191406 65.214844 139.554688 65.421875 138.804688 C 65.527344 138.429688 65.652344 138.085938 65.796875 137.773438 C 65.945313 137.460938 66.121094 137.179688 66.328125 136.929688 Z M 68.078125 132.773438 C 67.933594 133.316406 68.058594 133.8125 68.453125 134.257813 C 68.839844 134.695313 69.445313 135.03125 70.265625 135.257813 C 71.089844 135.488281 71.777344 135.507813 72.328125 135.320313 C 72.882813 135.125 73.226563 134.753906 73.375 134.210938 C 73.53125 133.671875 73.414063 133.175781 73.03125 132.726563 C 72.636719 132.28125 72.03125 131.945313 71.21875 131.726563 C 70.40625 131.507813 69.71875 131.492188 69.15625 131.679688 C 68.59375 131.867188 68.234375 132.234375 68.078125 132.773438 Z M 67.140625 132.507813 C 67.390625 131.625 67.902344 131.019531 68.671875 130.695313 C 69.445313 130.363281 70.390625 130.351563 71.515625 130.664063 C 72.640625 130.976563 73.453125 131.472656 73.953125 132.148438 C 74.460938 132.816406 74.59375 133.59375 74.34375 134.476563 C 74.101563 135.363281 73.597656 135.972656 72.828125 136.304688 C 72.046875 136.628906 71.09375 136.632813 69.96875 136.320313 C 68.84375 136.007813 68.03125 135.519531 67.53125 134.851563 C 67.03125 134.175781 66.902344 133.394531 67.140625 132.507813 Z M 72.671875 123.652344 L 76.8125 124.792969 L 76.53125 125.792969 L 72.4375 124.667969 C 71.78125 124.492188 71.261719 124.476563 70.875 124.621094 C 70.492188 124.769531 70.234375 125.066406 70.109375 125.511719 C 69.964844 126.054688 70.042969 126.539063 70.34375 126.964844 C 70.648438 127.382813 71.132813 127.683594 71.796875 127.871094 L 75.671875 128.933594 L 75.390625 129.949219 L 68.53125 128.074219 L 68.8125 127.058594 L 69.890625 127.355469 C 69.539063 127.003906 69.304688 126.632813 69.1875 126.246094 C 69.074219 125.863281 69.078125 125.457031 69.203125 125.027344 C 69.390625 124.320313 69.78125 123.851563 70.375 123.621094 C 70.960938 123.394531 71.726563 123.402344 72.671875 123.652344 Z M 75.144531 114.0625 C 75.300781 113.84375 75.558594 113.664063 75.910156 113.515625 C 76.265625 113.371094 76.730469 113.25 77.300781 113.15625 L 80.113281 112.71875 L 79.785156 113.921875 L 77.144531 114.328125 C 76.457031 114.421875 75.984375 114.574219 75.722656 114.78125 C 75.453125 114.980469 75.253906 115.296875 75.128906 115.734375 L 74.800781 116.953125 L 78.660156 118.015625 L 78.363281 119.125 L 69.222656 116.625 L 69.894531 114.125 C 70.15625 113.179688 70.566406 112.53125 71.128906 112.1875 C 71.683594 111.84375 72.402344 111.792969 73.285156 112.03125 C 73.859375 112.1875 74.308594 112.4375 74.628906 112.78125 C 74.953125 113.125 75.125 113.554688 75.144531 114.0625 Z M 70.535156 115.796875 L 73.785156 116.671875 L 74.160156 115.28125 C 74.316406 114.730469 74.292969 114.28125 74.082031 113.9375 C 73.875 113.59375 73.503906 113.351563 72.972656 113.203125 C 72.441406 113.058594 72.003906 113.085938 71.660156 113.28125 C 71.316406 113.480469 71.066406 113.855469 70.910156 114.40625 Z M 73.632813 109.460938 L 73.898438 108.445313 L 80.757813 110.320313 L 80.492188 111.335938 Z M 70.960938 108.726563 L 71.226563 107.710938 L 72.664063 108.101563 L 72.398438 109.117188 Z M 74.289063 107.058594 L 74.585938 105.980469 L 80.867188 105.636719 L 75.632813 102.121094 L 75.929688 101.042969 L 82.164063 105.230469 L 81.773438 106.605469 Z M 80.914063 95.226563 L 81.445313 95.382813 L 80.164063 100.054688 C 80.976563 100.210938 81.632813 100.160156 82.132813 99.898438 C 82.632813 99.628906 82.976563 99.15625 83.164063 98.476563 C 83.265625 98.09375 83.3125 97.707031 83.304688 97.320313 C 83.304688 96.925781 83.246094 96.515625 83.132813 96.085938 L 84.210938 96.382813 C 84.273438 96.789063 84.296875 97.195313 84.289063 97.601563 C 84.277344 98.007813 84.21875 98.410156 84.117188 98.804688 C 83.84375 99.796875 83.3125 100.492188 82.523438 100.898438 C 81.722656 101.296875 80.78125 101.34375 79.695313 101.039063 C 78.570313 100.738281 77.757813 100.222656 77.257813 99.492188 C 76.75 98.765625 76.617188 97.941406 76.867188 97.023438 C 77.097656 96.191406 77.570313 95.613281 78.289063 95.289063 C 79.007813 94.96875 79.882813 94.945313 80.914063 95.226563 Z M 80.304688 96.164063 C 79.691406 96 79.15625 96.015625 78.695313 96.210938 C 78.238281 96.410156 77.941406 96.765625 77.804688 97.273438 C 77.648438 97.847656 77.707031 98.347656 77.976563 98.773438 C 78.238281 99.203125 78.6875 99.53125 79.320313 99.757813 Z M 80.253906 89.40625 C 80.152344 89.5 80.0625 89.617188 79.988281 89.75 C 79.917969 89.875 79.859375 90.015625 79.816406 90.171875 C 79.660156 90.746094 79.75 91.242188 80.082031 91.65625 C 80.40625 92.074219 80.957031 92.390625 81.738281 92.609375 L 85.347656 93.59375 L 85.066406 94.609375 L 78.207031 92.734375 L 78.488281 91.71875 L 79.566406 92.015625 C 79.191406 91.695313 78.953125 91.335938 78.847656 90.9375 C 78.746094 90.53125 78.761719 90.089844 78.894531 89.609375 C 78.917969 89.539063 78.941406 89.460938 78.972656 89.375 C 78.996094 89.292969 79.03125 89.199219 79.082031 89.09375 Z M 80.253906 89.40625 "/>
</g>
</svg>

