<?xml version="1.0" encoding="UTF-8"?>
<svg xmlns="http://www.w3.org/2000/svg" xmlns:xlink="http://www.w3.org/1999/xlink" width="256pt" height="256pt" viewBox="0 0 256 256" version="1.1">
<g id="surface2">
<rect x="0" y="0" width="256" height="256" style="fill:rgb(94.901961%,93.72549%,91.372549%);fill-opacity:1;stroke:none;"/>
<path style=" stroke:none;fill-rule:evenodd;fill:rgb(60%,70.196078%,80%);fill-opacity:1;" d="M -4 259 L -4 -4 L 259 -4 L -4 -4 Z M -4 259 "/>
<path style="fill:none;stroke-width:1;stroke-linecap:round;stroke-linejoin:round;stroke:rgb(70.196078%,77.647059%,83.137255%);stroke-opacity:1;stroke-miterlimit:10;" d="M -4 259 L -4 -4 L 259 -4 L -4 -4 L -4 259 "/>
<path style="fill:none;stroke-width:8;stroke-linecap:round;stroke-linejoin:round;stroke:rgb(75.686275%,70.980392%,61.568627%);stroke-opacity:1;stroke-miterlimit:10;" d="M 15.070313 110.546875 L 16.773438 105.695313 L 18.125 90.203125 L 18.894531 87.164063 L 24.695313 78.496094 L 30.542969 68.101563 L 31.59375 65.691406 L 31.777344 63.6875 L 31.453125 62.125 L 28.492188 57.398438 "/>
<path style="fill:none;stroke-width:8;stroke-linecap:round;stroke-linejoin:round;stroke:rgb(75.686275%,70.980392%,61.568627%);stroke-opacity:1;stroke-miterlimit:10;" d="M -5.992188 54.828125 L -4.640625 56.207031 L -3.453125 56.988281 L -2.078125 57.460938 L 21.78125 59.839844 L 24.882813 59.746094 L 27.234375 58.835938 L 28.492188 57.398438 L 29.050781 56.425781 L 29.9375 52.480469 L 29.820313 48.851563 L 27.957031 38.929688 L 27.769531 33.949219 L 28.328125 28.253906 L 33.898438 8.25 L 34.667969 4.183594 L 35.085938 -2.078125 L 34.480469 -5.335938 L 33.804688 -6.367188 L 30.75 -9 "/>
<path style="fill:none;stroke-width:6;stroke-linecap:round;stroke-linejoin:round;stroke:rgb(100%,100%,100%);stroke-opacity:1;stroke-miterlimit:10;" d="M 15.070313 110.546875 L 16.773438 105.695313 L 18.125 90.203125 L 18.894531 87.164063 L 24.695313 78.496094 L 30.542969 68.101563 L 31.59375 65.691406 L 31.777344 63.6875 L 31.453125 62.125 L 28.492188 57.398438 "/>
<path style="fill:none;stroke-width:6;stroke-linecap:round;stroke-linejoin:round;stroke:rgb(100%,100%,100%);stroke-opacity:1;stroke-miterlimit:10;" d="M -5.992188 54.828125 L -4.640625 56.207031 L -3.453125 56.988281 L -2.078125 57.460938 L 21.78125 59.839844 L 24.882813 59.746094 L 27.234375 58.835938 L 28.492188 57.398438 L 29.050781 56.425781 L 29.9375 52.480469 L 29.820313 48.851563 L 27.957031 38.929688 L 27.769531 33.949219 L 28.328125 28.253906 L 33.898438 8.25 L 34.667969 4.183594 L 35.085938 -2.078125 L 34.480469 -5.335938 L 33.804688 -6.367188 L 30.75 -9 "/>
</g>
</svg>

