<?xml version="1.0" encoding="UTF-8"?>
<svg xmlns="http://www.w3.org/2000/svg" xmlns:xlink="http://www.w3.org/1999/xlink" width="256pt" height="256pt" viewBox="0 0 256 256" version="1.1">
<g id="surface2">
<rect x="0" y="0" width="256" height="256" style="fill:rgb(94.901961%,93.72549%,91.372549%);fill-opacity:1;stroke:none;"/>
<path style="fill:none;stroke-width:8;stroke-linecap:round;stroke-linejoin:round;stroke:rgb(75.686275%,70.980392%,61.568627%);stroke-opacity:1;stroke-miterlimit:10;" d="M 131.6875 2.65625 L 133.039063 3.636719 L 141.707031 12.800781 L 145.578125 15.964844 L 148.675781 17.335938 L 154.640625 17.792969 L 162.050781 17.628906 L 167.410156 19.355469 L 176.242188 20.628906 L 179.339844 20.433594 L 181.089844 20.007813 L 183.929688 18.703125 L 186.191406 17.238281 L 196.140625 8.855469 L 201.734375 3.441406 L 204.320313 2.460938 L 212.382813 1.320313 L 223.824219 1.875 L 229.625 0.960938 L 230.675781 0.996094 L 232.164063 0.210938 L 233.121094 -1.09375 L 234.078125 -3.863281 L 234.617188 -9 "/>
<path style="fill:none;stroke-width:6;stroke-linecap:round;stroke-linejoin:round;stroke:rgb(100%,100%,100%);stroke-opacity:1;stroke-miterlimit:10;" d="M 131.6875 2.65625 L 133.039063 3.636719 L 141.707031 12.800781 L 145.578125 15.964844 L 148.675781 17.335938 L 154.640625 17.792969 L 162.050781 17.628906 L 167.410156 19.355469 L 176.242188 20.628906 L 179.339844 20.433594 L 181.089844 20.007813 L 183.929688 18.703125 L 186.191406 17.238281 L 196.140625 8.855469 L 201.734375 3.441406 L 204.320313 2.460938 L 212.382813 1.320313 L 223.824219 1.875 L 229.625 0.960938 L 230.675781 0.996094 L 232.164063 0.210938 L 233.121094 -1.09375 L 234.078125 -3.863281 L 234.617188 -9 "/>
</g>
</svg>

