<?xml version="1.0" encoding="UTF-8"?>
<svg xmlns="http://www.w3.org/2000/svg" xmlns:xlink="http://www.w3.org/1999/xlink" width="256pt" height="256pt" viewBox="0 0 256 256" version="1.1">
<g id="surface2">
<rect x="0" y="0" width="256" height="256" style="fill:rgb(94.901961%,93.72549%,91.372549%);fill-opacity:1;stroke:none;"/>
<path style=" stroke:none;fill-rule:evenodd;fill:rgb(60%,70.196078%,80%);fill-opacity:1;" d="M -4 -4 L 259 -4 L 259 259 L 259 -4 Z M -4 -4 "/>
<path style="fill:none;stroke-width:1;stroke-linecap:round;stroke-linejoin:round;stroke:rgb(70.196078%,77.647059%,83.137255%);stroke-opacity:1;stroke-miterlimit:10;" d="M -4 -4 L 259 -4 L 259 259 L 259 -4 L -4 -4 "/>
<path style="fill:none;stroke-width:8;stroke-linecap:round;stroke-linejoin:round;stroke:rgb(75.686275%,70.980392%,61.568627%);stroke-opacity:1;stroke-miterlimit:10;" d="M 240.527344 264 L 240.625 259.910156 L 244.839844 239.667969 L 247.40625 230.472656 L 247.917969 215.804688 L 253.789063 204.945313 L 257.402344 198.824219 L 257.703125 196.167969 L 257.5625 184.25 L 262.132813 173.519531 L 263.972656 169.195313 L 264 169.113281 M 264 123.535156 L 260.242188 117.878906 L 258.285156 112.65625 L 257.238281 107.597656 L 257.75 101.285156 L 259.359375 87.191406 L 258.214844 73.097656 L 258.238281 65.726563 L 257.261719 53.300781 L 259.964844 34.429688 L 257.097656 27.222656 L 253.953125 16.171875 L 254.441406 12.488281 L 253.835938 8.644531 L 254.953125 1.433594 L 258.039063 -9 "/>
<path style="fill:none;stroke-width:6;stroke-linecap:round;stroke-linejoin:round;stroke:rgb(100%,100%,100%);stroke-opacity:1;stroke-miterlimit:10;" d="M 240.527344 264 L 240.625 259.910156 L 244.839844 239.667969 L 247.40625 230.472656 L 247.917969 215.804688 L 253.789063 204.945313 L 257.402344 198.824219 L 257.703125 196.167969 L 257.5625 184.25 L 262.132813 173.519531 L 263.972656 169.195313 L 264 169.113281 M 264 123.535156 L 260.242188 117.878906 L 258.285156 112.65625 L 257.238281 107.597656 L 257.75 101.285156 L 259.359375 87.191406 L 258.214844 73.097656 L 258.238281 65.726563 L 257.261719 53.300781 L 259.964844 34.429688 L 257.097656 27.222656 L 253.953125 16.171875 L 254.441406 12.488281 L 253.835938 8.644531 L 254.953125 1.433594 L 258.039063 -9 "/>
</g>
</svg>

