<?xml version="1.0" encoding="UTF-8"?>
<svg xmlns="http://www.w3.org/2000/svg" xmlns:xlink="http://www.w3.org/1999/xlink" width="256pt" height="256pt" viewBox="0 0 256 256" version="1.1">
<g id="surface2">
<rect x="0" y="0" width="256" height="256" style="fill:rgb(94.901961%,93.72549%,91.372549%);fill-opacity:1;stroke:none;"/>
<path style="fill:none;stroke-width:8;stroke-linecap:round;stroke-linejoin:round;stroke:rgb(75.686275%,70.980392%,61.568627%);stroke-opacity:1;stroke-miterlimit:10;" d="M -5.230469 20.410156 L 41.089844 1.398438 "/>
<path style="fill:none;stroke-width:8;stroke-linecap:round;stroke-linejoin:round;stroke:rgb(75.686275%,70.980392%,61.568627%);stroke-opacity:1;stroke-miterlimit:10;" d="M 174.492188 3.101563 L 175.085938 -9 "/>
<path style="fill:none;stroke-width:8;stroke-linecap:round;stroke-linejoin:round;stroke:rgb(75.686275%,70.980392%,61.568627%);stroke-opacity:1;stroke-miterlimit:10;" d="M 135.101563 264 L 135.347656 258.253906 L 141.007813 222.949219 L 142.734375 209.144531 L 142.476563 184.019531 L 142.898438 177.023438 L 141.988281 165.390625 L 142.429688 156.722656 L 144.203125 107.890625 L 140.984375 82.765625 L 139.425781 69.429688 L 138.539063 56.035156 L 138.65625 51.839844 L 139.261719 48.78125 L 144.808594 37.308594 L 148.863281 22.460938 L 149.769531 18.488281 L 152.402344 10.921875 L 153.617188 8.210938 L 155.898438 5.65625 L 157.320313 4.488281 L 159.324219 3.734375 L 161.492188 3.765625 L 163.214844 3.355469 L 174.492188 3.101563 L 211.519531 1.808594 L 215.109375 2.25 L 226.316406 5.308594 L 230.113281 5.402344 L 234.589844 5.152344 L 246.800781 -0.144531 L 252.972656 -3.203125 L 258.378906 -8.71875 L 258.558594 -9 "/>
<path style="fill:none;stroke-width:8;stroke-linecap:round;stroke-linejoin:round;stroke:rgb(75.686275%,70.980392%,61.568627%);stroke-opacity:1;stroke-miterlimit:10;" d="M -8.332031 44.777344 L -8.074219 39.074219 L -7.351563 33.429688 L -5.675781 23.40625 L -5.230469 20.410156 L -1.433594 -6.007813 L -1.0625 -9 "/>
<path style="fill:none;stroke-width:6;stroke-linecap:round;stroke-linejoin:round;stroke:rgb(100%,100%,100%);stroke-opacity:1;stroke-miterlimit:10;" d="M -5.230469 20.410156 L 41.089844 1.398438 "/>
<path style="fill:none;stroke-width:6;stroke-linecap:round;stroke-linejoin:round;stroke:rgb(100%,100%,100%);stroke-opacity:1;stroke-miterlimit:10;" d="M 174.492188 3.101563 L 175.085938 -9 "/>
<path style="fill:none;stroke-width:6;stroke-linecap:round;stroke-linejoin:round;stroke:rgb(100%,100%,100%);stroke-opacity:1;stroke-miterlimit:10;" d="M 135.101563 264 L 135.347656 258.253906 L 141.007813 222.949219 L 142.734375 209.144531 L 142.476563 184.019531 L 142.898438 177.023438 L 141.988281 165.390625 L 142.429688 156.722656 L 144.203125 107.890625 L 140.984375 82.765625 L 139.425781 69.429688 L 138.539063 56.035156 L 138.65625 51.839844 L 139.261719 48.78125 L 144.808594 37.308594 L 148.863281 22.460938 L 149.769531 18.488281 L 152.402344 10.921875 L 153.617188 8.210938 L 155.898438 5.65625 L 157.320313 4.488281 L 159.324219 3.734375 L 161.492188 3.765625 L 163.214844 3.355469 L 174.492188 3.101563 L 211.519531 1.808594 L 215.109375 2.25 L 226.316406 5.308594 L 230.113281 5.402344 L 234.589844 5.152344 L 246.800781 -0.144531 L 252.972656 -3.203125 L 258.378906 -8.71875 L 258.558594 -9 "/>
<path style="fill:none;stroke-width:6;stroke-linecap:round;stroke-linejoin:round;stroke:rgb(100%,99.215686%,54.509804%);stroke-opacity:1;stroke-miterlimit:10;" d="M -8.332031 44.777344 L -8.074219 39.074219 L -7.351563 33.429688 L -5.675781 23.40625 L -5.230469 20.410156 L -1.433594 -6.007813 L -1.0625 -9 "/>
<path style="fill:none;stroke-width:3;stroke-linecap:round;stroke-linejoin:round;stroke:rgb(100%,100%,100%);stroke-opacity:1;stroke-miterlimit:10;" d="M 139.382813 129.6875 L 139.429688 128.703125 L 146.882813 128.984375 C 147.851563 129.015625 148.542969 129.210938 148.960938 129.5625 C 149.386719 129.90625 149.589844 130.445313 149.570313 131.171875 L 149.554688 131.546875 L 148.648438 131.515625 L 148.664063 131.203125 C 148.671875 130.777344 148.542969 130.46875 148.273438 130.28125 C 148.011719 130.09375 147.53125 129.992188 146.835938 129.96875 Z M 142.253906 124.832031 C 142.234375 125.3125 142.425781 125.699219 142.832031 125.988281 C 143.238281 126.28125 143.800781 126.4375 144.519531 126.457031 C 145.238281 126.488281 145.8125 126.375 146.238281 126.113281 C 146.65625 125.84375 146.875 125.46875 146.894531 124.988281 C 146.917969 124.511719 146.730469 124.128906 146.332031 123.847656 C 145.925781 123.558594 145.363281 123.394531 144.644531 123.363281 C 143.925781 123.34375 143.355469 123.464844 142.925781 123.722656 C 142.5 123.984375 142.277344 124.355469 142.253906 124.832031 Z M 141.425781 124.800781 C 141.457031 124.03125 141.761719 123.4375 142.332031 123.019531 C 142.90625 122.59375 143.6875 122.394531 144.675781 122.425781 C 145.65625 122.457031 146.421875 122.707031 146.972656 123.175781 C 147.511719 123.636719 147.769531 124.25 147.738281 125.019531 C 147.707031 125.800781 147.40625 126.402344 146.832031 126.816406 C 146.25 127.234375 145.46875 127.425781 144.488281 127.394531 C 143.5 127.363281 142.734375 127.121094 142.191406 126.660156 C 141.652344 126.203125 141.394531 125.582031 141.425781 124.800781 Z M 142.003906 117.398438 L 142.941406 117.445313 C 142.785156 117.695313 142.671875 117.957031 142.597656 118.226563 C 142.515625 118.488281 142.46875 118.765625 142.457031 119.054688 C 142.449219 119.503906 142.515625 119.84375 142.660156 120.070313 C 142.796875 120.289063 143.011719 120.40625 143.300781 120.414063 C 143.53125 120.425781 143.714844 120.351563 143.847656 120.195313 C 143.984375 120.039063 144.125 119.726563 144.269531 119.257813 L 144.363281 118.960938 C 144.53125 118.335938 144.761719 117.894531 145.050781 117.632813 C 145.332031 117.375 145.71875 117.253906 146.207031 117.273438 C 146.761719 117.296875 147.191406 117.507813 147.503906 117.914063 C 147.816406 118.320313 147.960938 118.875 147.941406 119.570313 C 147.929688 119.863281 147.882813 120.164063 147.800781 120.476563 C 147.726563 120.789063 147.625 121.117188 147.488281 121.460938 L 146.472656 121.429688 C 146.671875 121.109375 146.828125 120.789063 146.941406 120.476563 C 147.046875 120.15625 147.105469 119.835938 147.113281 119.523438 C 147.125 119.109375 147.058594 118.785156 146.910156 118.554688 C 146.753906 118.316406 146.535156 118.191406 146.253906 118.179688 C 145.984375 118.171875 145.777344 118.25 145.628906 118.414063 C 145.472656 118.570313 145.324219 118.925781 145.175781 119.476563 L 145.066406 119.773438 C 144.921875 120.316406 144.714844 120.707031 144.441406 120.945313 C 144.160156 121.175781 143.785156 121.285156 143.316406 121.273438 C 142.753906 121.253906 142.328125 121.0625 142.035156 120.695313 C 141.746094 120.320313 141.609375 119.800781 141.628906 119.132813 C 141.640625 118.8125 141.675781 118.503906 141.738281 118.210938 C 141.800781 117.921875 141.890625 117.648438 142.003906 117.398438 Z M 144.832031 111.167969 L 145.316406 111.199219 L 145.160156 115.292969 C 145.847656 115.273438 146.375 115.101563 146.738281 114.777344 C 147.105469 114.457031 147.296875 114.003906 147.316406 113.417969 C 147.328125 113.074219 147.292969 112.746094 147.207031 112.433594 C 147.125 112.113281 147 111.785156 146.832031 111.449219 L 147.753906 111.480469 C 147.898438 111.816406 148.003906 112.148438 148.066406 112.480469 C 148.136719 112.816406 148.167969 113.152344 148.160156 113.496094 C 148.128906 114.363281 147.828125 115.039063 147.253906 115.527344 C 146.671875 116.007813 145.902344 116.230469 144.941406 116.199219 C 143.964844 116.167969 143.199219 115.902344 142.644531 115.402344 C 142.082031 114.902344 141.8125 114.246094 141.832031 113.433594 C 141.863281 112.707031 142.152344 112.136719 142.691406 111.730469 C 143.222656 111.324219 143.9375 111.136719 144.832031 111.167969 Z M 144.503906 112.058594 C 143.964844 112.050781 143.527344 112.167969 143.191406 112.417969 C 142.859375 112.667969 142.683594 113.011719 142.660156 113.449219 C 142.652344 113.949219 142.796875 114.355469 143.097656 114.667969 C 143.402344 114.980469 143.828125 115.167969 144.378906 115.230469 Z M 147.097656 108.644531 L 150.285156 108.472656 L 150.332031 109.378906 L 142.050781 109.847656 L 142.003906 108.941406 L 142.910156 108.878906 C 142.546875 108.714844 142.269531 108.496094 142.082031 108.222656 C 141.886719 107.953125 141.777344 107.613281 141.753906 107.207031 C 141.722656 106.550781 141.984375 106.011719 142.535156 105.582031 C 143.078125 105.144531 143.824219 104.902344 144.769531 104.847656 C 145.71875 104.796875 146.496094 104.953125 147.097656 105.316406 C 147.703125 105.683594 148.019531 106.191406 148.050781 106.847656 C 148.074219 107.253906 148.011719 107.605469 147.863281 107.894531 C 147.707031 108.1875 147.453125 108.4375 147.097656 108.644531 Z M 144.832031 105.753906 C 144.105469 105.796875 143.546875 105.964844 143.160156 106.253906 C 142.765625 106.535156 142.578125 106.910156 142.597656 107.378906 C 142.628906 107.859375 142.859375 108.222656 143.285156 108.472656 C 143.703125 108.714844 144.277344 108.8125 145.003906 108.769531 C 145.734375 108.730469 146.296875 108.5625 146.691406 108.269531 C 147.089844 107.980469 147.269531 107.59375 147.238281 107.113281 C 147.21875 106.644531 146.996094 106.292969 146.566406 106.050781 C 146.140625 105.8125 145.5625 105.714844 144.832031 105.753906 Z M 143.4375 98.921875 L 147.03125 98.46875 L 147.140625 99.34375 L 143.578125 99.796875 C 143.007813 99.871094 142.59375 100.027344 142.34375 100.265625 C 142.09375 100.507813 141.996094 100.824219 142.046875 101.21875 C 142.109375 101.6875 142.324219 102.042969 142.6875 102.28125 C 143.054688 102.511719 143.527344 102.589844 144.109375 102.515625 L 147.484375 102.078125 L 147.609375 102.96875 L 139.3125 104.03125 L 139.1875 103.140625 L 142.453125 102.71875 C 142.070313 102.5625 141.773438 102.355469 141.5625 102.09375 C 141.34375 101.835938 141.210938 101.511719 141.15625 101.125 C 141.085938 100.511719 141.242188 100.023438 141.625 99.65625 C 142.011719 99.28125 142.617188 99.039063 143.4375 98.921875 Z M 139.210938 93.484375 L 145.382813 92.6875 L 145.242188 91.53125 C 145.109375 90.53125 144.765625 89.835938 144.210938 89.4375 C 143.660156 89.042969 142.847656 88.917969 141.773438 89.0625 C 140.710938 89.199219 139.960938 89.527344 139.523438 90.046875 C 139.085938 90.570313 138.9375 91.328125 139.070313 92.328125 Z M 138.445313 94.578125 L 138.195313 92.59375 C 138.019531 91.199219 138.210938 90.136719 138.773438 89.40625 C 139.328125 88.679688 140.285156 88.230469 141.648438 88.0625 C 143.023438 87.886719 144.078125 88.085938 144.804688 88.65625 C 145.523438 89.21875 145.972656 90.195313 146.148438 91.578125 L 146.398438 93.5625 Z M 137.097656 83.851563 L 136.972656 82.882813 L 140.332031 82.476563 L 136.597656 79.664063 L 136.441406 78.414063 L 140.566406 81.539063 L 144.363281 77.210938 L 144.519531 78.476563 L 141.097656 82.382813 L 144.925781 81.929688 L 145.050781 82.898438 Z M 138.734375 75.050781 C 138.796875 75.53125 139.054688 75.886719 139.5 76.113281 C 139.949219 76.332031 140.527344 76.402344 141.234375 76.316406 C 141.953125 76.234375 142.5 76.03125 142.875 75.707031 C 143.25 75.386719 143.40625 74.984375 143.34375 74.503906 C 143.292969 74.035156 143.046875 73.6875 142.609375 73.457031 C 142.171875 73.230469 141.59375 73.15625 140.875 73.238281 C 140.167969 73.324219 139.621094 73.53125 139.234375 73.863281 C 138.851563 74.1875 138.683594 74.582031 138.734375 75.050781 Z M 137.921875 75.144531 C 137.839844 74.386719 138.046875 73.75 138.546875 73.238281 C 139.046875 72.730469 139.789063 72.417969 140.765625 72.300781 C 141.746094 72.1875 142.542969 72.324219 143.15625 72.707031 C 143.761719 73.082031 144.105469 73.652344 144.1875 74.410156 C 144.28125 75.191406 144.078125 75.832031 143.578125 76.332031 C 143.070313 76.824219 142.324219 77.125 141.34375 77.238281 C 140.367188 77.355469 139.574219 77.230469 138.96875 76.863281 C 138.367188 76.5 138.015625 75.925781 137.921875 75.144531 Z M 135.265625 71.453125 L 135.171875 70.578125 L 143.484375 69.640625 L 143.578125 70.515625 Z M 134.992188 68.511719 L 134.929688 67.621094 L 143.273438 67.074219 L 143.335938 67.964844 Z M 139.96875 62.972656 C 140.011719 63.691406 140.136719 64.183594 140.34375 64.441406 C 140.554688 64.703125 140.875 64.824219 141.3125 64.800781 C 141.65625 64.769531 141.929688 64.644531 142.125 64.425781 C 142.3125 64.207031 142.398438 63.921875 142.375 63.566406 C 142.34375 63.066406 142.125 62.6875 141.71875 62.425781 C 141.304688 62.15625 140.777344 62.042969 140.140625 62.082031 L 139.90625 62.097656 Z M 139.4375 61.238281 L 142.875 61.003906 L 142.9375 61.894531 L 142.03125 61.957031 C 142.40625 62.144531 142.695313 62.378906 142.890625 62.660156 C 143.078125 62.941406 143.1875 63.300781 143.21875 63.738281 C 143.25 64.292969 143.105469 64.746094 142.78125 65.097656 C 142.460938 65.453125 142.007813 65.644531 141.421875 65.675781 C 140.746094 65.730469 140.226563 65.5625 139.859375 65.175781 C 139.496094 64.792969 139.289063 64.191406 139.234375 63.378906 L 139.15625 62.144531 L 139.0625 62.144531 C 138.605469 62.175781 138.261719 62.332031 138.03125 62.613281 C 137.792969 62.894531 137.6875 63.28125 137.71875 63.769531 C 137.742188 64.074219 137.804688 64.371094 137.90625 64.660156 C 138.011719 64.953125 138.15625 65.230469 138.34375 65.488281 L 137.4375 65.550781 C 137.273438 65.230469 137.148438 64.921875 137.0625 64.628906 C 136.96875 64.328125 136.914063 64.03125 136.890625 63.738281 C 136.839844 62.96875 137.027344 62.375 137.453125 61.957031 C 137.871094 61.53125 138.53125 61.292969 139.4375 61.238281 Z M 137.472656 56.375 C 137.410156 56.492188 137.371094 56.605469 137.347656 56.71875 C 137.328125 56.835938 137.324219 56.960938 137.332031 57.09375 C 137.363281 57.605469 137.574219 57.984375 137.957031 58.234375 C 138.332031 58.476563 138.855469 58.570313 139.519531 58.515625 L 142.691406 58.3125 L 142.753906 59.21875 L 136.753906 59.609375 L 136.691406 58.703125 L 137.628906 58.640625 C 137.253906 58.484375 136.96875 58.265625 136.769531 57.984375 C 136.574219 57.695313 136.464844 57.339844 136.441406 56.921875 C 136.433594 56.859375 136.425781 56.792969 136.425781 56.71875 C 136.425781 56.636719 136.4375 56.554688 136.457031 56.46875 Z M 139.945313 48.992188 C 140.070313 48.816406 140.285156 48.664063 140.585938 48.539063 C 140.890625 48.40625 141.285156 48.289063 141.773438 48.195313 L 144.132813 47.789063 L 143.882813 48.804688 L 141.648438 49.179688 C 141.078125 49.285156 140.675781 49.425781 140.445313 49.601563 C 140.21875 49.769531 140.054688 50.039063 139.960938 50.414063 L 139.695313 51.445313 L 142.976563 52.289063 L 142.726563 53.242188 L 134.960938 51.242188 L 135.523438 49.101563 C 135.734375 48.300781 136.070313 47.753906 136.539063 47.460938 C 137.007813 47.160156 137.625 47.109375 138.382813 47.304688 C 138.863281 47.429688 139.238281 47.640625 139.507813 47.929688 C 139.78125 48.210938 139.925781 48.566406 139.945313 48.992188 Z M 136.070313 50.507813 L 138.835938 51.226563 L 139.148438 50.039063 C 139.265625 49.582031 139.238281 49.207031 139.070313 48.914063 C 138.894531 48.613281 138.582031 48.40625 138.132813 48.289063 C 137.675781 48.175781 137.300781 48.207031 137.007813 48.382813 C 136.707031 48.550781 136.5 48.863281 136.382813 49.320313 Z M 140.429688 43.300781 C 140.222656 43.738281 140.25 44.171875 140.507813 44.597656 C 140.757813 45.015625 141.207031 45.378906 141.851563 45.691406 C 142.5 46.003906 143.066406 46.128906 143.554688 46.066406 C 144.042969 46.003906 144.390625 45.753906 144.601563 45.316406 C 144.808594 44.890625 144.789063 44.464844 144.539063 44.035156 C 144.289063 43.597656 143.84375 43.222656 143.195313 42.910156 C 142.550781 42.597656 141.984375 42.480469 141.492188 42.550781 C 140.992188 42.625 140.640625 42.875 140.429688 43.300781 Z M 139.679688 42.941406 C 140.023438 42.253906 140.546875 41.832031 141.242188 41.675781 C 141.941406 41.511719 142.734375 41.640625 143.617188 42.066406 C 144.5 42.496094 145.101563 43.03125 145.414063 43.675781 C 145.726563 44.324219 145.710938 44.988281 145.367188 45.675781 C 145.03125 46.386719 144.515625 46.8125 143.820313 46.957031 C 143.125 47.105469 142.332031 46.964844 141.445313 46.535156 C 140.5625 46.109375 139.960938 45.582031 139.648438 44.957031 C 139.335938 44.324219 139.347656 43.652344 139.679688 42.941406 Z M 145.148438 38.410156 C 144.867188 39.066406 144.765625 39.5625 144.835938 39.894531 C 144.898438 40.21875 145.132813 40.464844 145.539063 40.628906 C 145.851563 40.765625 146.144531 40.777344 146.414063 40.660156 C 146.683594 40.546875 146.886719 40.328125 147.023438 40.003906 C 147.21875 39.546875 147.195313 39.105469 146.945313 38.675781 C 146.703125 38.25 146.296875 37.917969 145.710938 37.675781 L 145.492188 37.582031 Z M 145.460938 36.613281 L 148.632813 37.941406 L 148.289063 38.753906 L 147.445313 38.410156 C 147.703125 38.746094 147.855469 39.082031 147.898438 39.425781 C 147.9375 39.769531 147.871094 40.144531 147.695313 40.550781 C 147.484375 41.0625 147.15625 41.402344 146.710938 41.566406 C 146.273438 41.734375 145.789063 41.707031 145.257813 41.488281 C 144.632813 41.230469 144.242188 40.84375 144.085938 40.332031 C 143.921875 39.824219 143.992188 39.191406 144.304688 38.441406 L 144.789063 37.285156 L 144.695313 37.253906 C 144.28125 37.078125 143.90625 37.066406 143.570313 37.222656 C 143.226563 37.371094 142.960938 37.671875 142.773438 38.128906 C 142.648438 38.402344 142.570313 38.691406 142.539063 39.003906 C 142.5 39.316406 142.503906 39.628906 142.554688 39.941406 L 141.710938 39.582031 C 141.722656 39.21875 141.753906 38.886719 141.804688 38.582031 C 141.859375 38.28125 141.941406 37.996094 142.054688 37.722656 C 142.359375 37.003906 142.789063 36.550781 143.351563 36.363281 C 143.914063 36.175781 144.617188 36.261719 145.460938 36.613281 Z M 145.402344 30.957031 L 142.261719 30.097656 L 142.496094 29.238281 L 150.558594 31.441406 L 150.324219 32.300781 L 149.449219 32.066406 C 149.75 32.347656 149.949219 32.652344 150.042969 32.972656 C 150.136719 33.296875 150.128906 33.644531 150.027344 34.019531 C 149.847656 34.65625 149.425781 35.09375 148.761719 35.332031 C 148.097656 35.574219 147.304688 35.566406 146.386719 35.316406 C 145.472656 35.066406 144.789063 34.671875 144.339844 34.128906 C 143.894531 33.578125 143.757813 32.984375 143.933594 32.347656 C 144.039063 31.972656 144.210938 31.671875 144.449219 31.441406 C 144.691406 31.214844 145.007813 31.050781 145.402344 30.957031 Z M 146.636719 34.425781 C 147.335938 34.625 147.917969 34.652344 148.386719 34.503906 C 148.855469 34.359375 149.152344 34.0625 149.277344 33.613281 C 149.402344 33.144531 149.300781 32.730469 148.980469 32.363281 C 148.648438 31.988281 148.132813 31.703125 147.433594 31.503906 C 146.726563 31.316406 146.136719 31.300781 145.667969 31.457031 C 145.199219 31.605469 144.902344 31.910156 144.777344 32.378906 C 144.652344 32.828125 144.757813 33.234375 145.089844 33.597656 C 145.414063 33.964844 145.929688 34.238281 146.636719 34.425781 Z M 146.636719 34.425781 "/>
<path style=" stroke:none;fill-rule:evenodd;fill:rgb(20%,20%,20%);fill-opacity:1;" d="M 139.382813 129.6875 L 139.429688 128.703125 L 146.882813 128.984375 C 147.851563 129.015625 148.542969 129.210938 148.960938 129.5625 C 149.386719 129.90625 149.589844 130.445313 149.570313 131.171875 L 149.554688 131.546875 L 148.648438 131.515625 L 148.664063 131.203125 C 148.671875 130.777344 148.542969 130.46875 148.273438 130.28125 C 148.011719 130.09375 147.53125 129.992188 146.835938 129.96875 Z M 142.253906 124.832031 C 142.234375 125.3125 142.425781 125.699219 142.832031 125.988281 C 143.238281 126.28125 143.800781 126.4375 144.519531 126.457031 C 145.238281 126.488281 145.8125 126.375 146.238281 126.113281 C 146.65625 125.84375 146.875 125.46875 146.894531 124.988281 C 146.917969 124.511719 146.730469 124.128906 146.332031 123.847656 C 145.925781 123.558594 145.363281 123.394531 144.644531 123.363281 C 143.925781 123.34375 143.355469 123.464844 142.925781 123.722656 C 142.5 123.984375 142.277344 124.355469 142.253906 124.832031 Z M 141.425781 124.800781 C 141.457031 124.03125 141.761719 123.4375 142.332031 123.019531 C 142.90625 122.59375 143.6875 122.394531 144.675781 122.425781 C 145.65625 122.457031 146.421875 122.707031 146.972656 123.175781 C 147.511719 123.636719 147.769531 124.25 147.738281 125.019531 C 147.707031 125.800781 147.40625 126.402344 146.832031 126.816406 C 146.25 127.234375 145.46875 127.425781 144.488281 127.394531 C 143.5 127.363281 142.734375 127.121094 142.191406 126.660156 C 141.652344 126.203125 141.394531 125.582031 141.425781 124.800781 Z M 142.003906 117.398438 L 142.941406 117.445313 C 142.785156 117.695313 142.671875 117.957031 142.597656 118.226563 C 142.515625 118.488281 142.46875 118.765625 142.457031 119.054688 C 142.449219 119.503906 142.515625 119.84375 142.660156 120.070313 C 142.796875 120.289063 143.011719 120.40625 143.300781 120.414063 C 143.53125 120.425781 143.714844 120.351563 143.847656 120.195313 C 143.984375 120.039063 144.125 119.726563 144.269531 119.257813 L 144.363281 118.960938 C 144.53125 118.335938 144.761719 117.894531 145.050781 117.632813 C 145.332031 117.375 145.71875 117.253906 146.207031 117.273438 C 146.761719 117.296875 147.191406 117.507813 147.503906 117.914063 C 147.816406 118.320313 147.960938 118.875 147.941406 119.570313 C 147.929688 119.863281 147.882813 120.164063 147.800781 120.476563 C 147.726563 120.789063 147.625 121.117188 147.488281 121.460938 L 146.472656 121.429688 C 146.671875 121.109375 146.828125 120.789063 146.941406 120.476563 C 147.046875 120.15625 147.105469 119.835938 147.113281 119.523438 C 147.125 119.109375 147.058594 118.785156 146.910156 118.554688 C 146.753906 118.316406 146.535156 118.191406 146.253906 118.179688 C 145.984375 118.171875 145.777344 118.25 145.628906 118.414063 C 145.472656 118.570313 145.324219 118.925781 145.175781 119.476563 L 145.066406 119.773438 C 144.921875 120.316406 144.714844 120.707031 144.441406 120.945313 C 144.160156 121.175781 143.785156 121.285156 143.316406 121.273438 C 142.753906 121.253906 142.328125 121.0625 142.035156 120.695313 C 141.746094 120.320313 141.609375 119.800781 141.628906 119.132813 C 141.640625 118.8125 141.675781 118.503906 141.738281 118.210938 C 141.800781 117.921875 141.890625 117.648438 142.003906 117.398438 Z M 144.832031 111.167969 L 145.316406 111.199219 L 145.160156 115.292969 C 145.847656 115.273438 146.375 115.101563 146.738281 114.777344 C 147.105469 114.457031 147.296875 114.003906 147.316406 113.417969 C 147.328125 113.074219 147.292969 112.746094 147.207031 112.433594 C 147.125 112.113281 147 111.785156 146.832031 111.449219 L 147.753906 111.480469 C 147.898438 111.816406 148.003906 112.148438 148.066406 112.480469 C 148.136719 112.816406 148.167969 113.152344 148.160156 113.496094 C 148.128906 114.363281 147.828125 115.039063 147.253906 115.527344 C 146.671875 116.007813 145.902344 116.230469 144.941406 116.199219 C 143.964844 116.167969 143.199219 115.902344 142.644531 115.402344 C 142.082031 114.902344 141.8125 114.246094 141.832031 113.433594 C 141.863281 112.707031 142.152344 112.136719 142.691406 111.730469 C 143.222656 111.324219 143.9375 111.136719 144.832031 111.167969 Z M 144.503906 112.058594 C 143.964844 112.050781 143.527344 112.167969 143.191406 112.417969 C 142.859375 112.667969 142.683594 113.011719 142.660156 113.449219 C 142.652344 113.949219 142.796875 114.355469 143.097656 114.667969 C 143.402344 114.980469 143.828125 115.167969 144.378906 115.230469 Z M 147.097656 108.644531 L 150.285156 108.472656 L 150.332031 109.378906 L 142.050781 109.847656 L 142.003906 108.941406 L 142.910156 108.878906 C 142.546875 108.714844 142.269531 108.496094 142.082031 108.222656 C 141.886719 107.953125 141.777344 107.613281 141.753906 107.207031 C 141.722656 106.550781 141.984375 106.011719 142.535156 105.582031 C 143.078125 105.144531 143.824219 104.902344 144.769531 104.847656 C 145.71875 104.796875 146.496094 104.953125 147.097656 105.316406 C 147.703125 105.683594 148.019531 106.191406 148.050781 106.847656 C 148.074219 107.253906 148.011719 107.605469 147.863281 107.894531 C 147.707031 108.1875 147.453125 108.4375 147.097656 108.644531 Z M 144.832031 105.753906 C 144.105469 105.796875 143.546875 105.964844 143.160156 106.253906 C 142.765625 106.535156 142.578125 106.910156 142.597656 107.378906 C 142.628906 107.859375 142.859375 108.222656 143.285156 108.472656 C 143.703125 108.714844 144.277344 108.8125 145.003906 108.769531 C 145.734375 108.730469 146.296875 108.5625 146.691406 108.269531 C 147.089844 107.980469 147.269531 107.59375 147.238281 107.113281 C 147.21875 106.644531 146.996094 106.292969 146.566406 106.050781 C 146.140625 105.8125 145.5625 105.714844 144.832031 105.753906 Z M 143.4375 98.921875 L 147.03125 98.46875 L 147.140625 99.34375 L 143.578125 99.796875 C 143.007813 99.871094 142.59375 100.027344 142.34375 100.265625 C 142.09375 100.507813 141.996094 100.824219 142.046875 101.21875 C 142.109375 101.6875 142.324219 102.042969 142.6875 102.28125 C 143.054688 102.511719 143.527344 102.589844 144.109375 102.515625 L 147.484375 102.078125 L 147.609375 102.96875 L 139.3125 104.03125 L 139.1875 103.140625 L 142.453125 102.71875 C 142.070313 102.5625 141.773438 102.355469 141.5625 102.09375 C 141.34375 101.835938 141.210938 101.511719 141.15625 101.125 C 141.085938 100.511719 141.242188 100.023438 141.625 99.65625 C 142.011719 99.28125 142.617188 99.039063 143.4375 98.921875 Z M 139.210938 93.484375 L 145.382813 92.6875 L 145.242188 91.53125 C 145.109375 90.53125 144.765625 89.835938 144.210938 89.4375 C 143.660156 89.042969 142.847656 88.917969 141.773438 89.0625 C 140.710938 89.199219 139.960938 89.527344 139.523438 90.046875 C 139.085938 90.570313 138.9375 91.328125 139.070313 92.328125 Z M 138.445313 94.578125 L 138.195313 92.59375 C 138.019531 91.199219 138.210938 90.136719 138.773438 89.40625 C 139.328125 88.679688 140.285156 88.230469 141.648438 88.0625 C 143.023438 87.886719 144.078125 88.085938 144.804688 88.65625 C 145.523438 89.21875 145.972656 90.195313 146.148438 91.578125 L 146.398438 93.5625 Z M 137.097656 83.851563 L 136.972656 82.882813 L 140.332031 82.476563 L 136.597656 79.664063 L 136.441406 78.414063 L 140.566406 81.539063 L 144.363281 77.210938 L 144.519531 78.476563 L 141.097656 82.382813 L 144.925781 81.929688 L 145.050781 82.898438 Z M 138.734375 75.050781 C 138.796875 75.53125 139.054688 75.886719 139.5 76.113281 C 139.949219 76.332031 140.527344 76.402344 141.234375 76.316406 C 141.953125 76.234375 142.5 76.03125 142.875 75.707031 C 143.25 75.386719 143.40625 74.984375 143.34375 74.503906 C 143.292969 74.035156 143.046875 73.6875 142.609375 73.457031 C 142.171875 73.230469 141.59375 73.15625 140.875 73.238281 C 140.167969 73.324219 139.621094 73.53125 139.234375 73.863281 C 138.851563 74.1875 138.683594 74.582031 138.734375 75.050781 Z M 137.921875 75.144531 C 137.839844 74.386719 138.046875 73.75 138.546875 73.238281 C 139.046875 72.730469 139.789063 72.417969 140.765625 72.300781 C 141.746094 72.1875 142.542969 72.324219 143.15625 72.707031 C 143.761719 73.082031 144.105469 73.652344 144.1875 74.410156 C 144.28125 75.191406 144.078125 75.832031 143.578125 76.332031 C 143.070313 76.824219 142.324219 77.125 141.34375 77.238281 C 140.367188 77.355469 139.574219 77.230469 138.96875 76.863281 C 138.367188 76.5 138.015625 75.925781 137.921875 75.144531 Z M 135.265625 71.453125 L 135.171875 70.578125 L 143.484375 69.640625 L 143.578125 70.515625 Z M 134.992188 68.511719 L 134.929688 67.621094 L 143.273438 67.074219 L 143.335938 67.964844 Z M 139.96875 62.972656 C 140.011719 63.691406 140.136719 64.183594 140.34375 64.441406 C 140.554688 64.703125 140.875 64.824219 141.3125 64.800781 C 141.65625 64.769531 141.929688 64.644531 142.125 64.425781 C 142.3125 64.207031 142.398438 63.921875 142.375 63.566406 C 142.34375 63.066406 142.125 62.6875 141.71875 62.425781 C 141.304688 62.15625 140.777344 62.042969 140.140625 62.082031 L 139.90625 62.097656 Z M 139.4375 61.238281 L 142.875 61.003906 L 142.9375 61.894531 L 142.03125 61.957031 C 142.40625 62.144531 142.695313 62.378906 142.890625 62.660156 C 143.078125 62.941406 143.1875 63.300781 143.21875 63.738281 C 143.25 64.292969 143.105469 64.746094 142.78125 65.097656 C 142.460938 65.453125 142.007813 65.644531 141.421875 65.675781 C 140.746094 65.730469 140.226563 65.5625 139.859375 65.175781 C 139.496094 64.792969 139.289063 64.191406 139.234375 63.378906 L 139.15625 62.144531 L 139.0625 62.144531 C 138.605469 62.175781 138.261719 62.332031 138.03125 62.613281 C 137.792969 62.894531 137.6875 63.28125 137.71875 63.769531 C 137.742188 64.074219 137.804688 64.371094 137.90625 64.660156 C 138.011719 64.953125 138.15625 65.230469 138.34375 65.488281 L 137.4375 65.550781 C 137.273438 65.230469 137.148438 64.921875 137.0625 64.628906 C 136.96875 64.328125 136.914063 64.03125 136.890625 63.738281 C 136.839844 62.96875 137.027344 62.375 137.453125 61.957031 C 137.871094 61.53125 138.53125 61.292969 139.4375 61.238281 Z M 137.472656 56.375 C 137.410156 56.492188 137.371094 56.605469 137.347656 56.71875 C 137.328125 56.835938 137.324219 56.960938 137.332031 57.09375 C 137.363281 57.605469 137.574219 57.984375 137.957031 58.234375 C 138.332031 58.476563 138.855469 58.570313 139.519531 58.515625 L 142.691406 58.3125 L 142.753906 59.21875 L 136.753906 59.609375 L 136.691406 58.703125 L 137.628906 58.640625 C 137.253906 58.484375 136.96875 58.265625 136.769531 57.984375 C 136.574219 57.695313 136.464844 57.339844 136.441406 56.921875 C 136.433594 56.859375 136.425781 56.792969 136.425781 56.71875 C 136.425781 56.636719 136.4375 56.554688 136.457031 56.46875 Z M 139.945313 48.992188 C 140.070313 48.816406 140.285156 48.664063 140.585938 48.539063 C 140.890625 48.40625 141.285156 48.289063 141.773438 48.195313 L 144.132813 47.789063 L 143.882813 48.804688 L 141.648438 49.179688 C 141.078125 49.285156 140.675781 49.425781 140.445313 49.601563 C 140.21875 49.769531 140.054688 50.039063 139.960938 50.414063 L 139.695313 51.445313 L 142.976563 52.289063 L 142.726563 53.242188 L 134.960938 51.242188 L 135.523438 49.101563 C 135.734375 48.300781 136.070313 47.753906 136.539063 47.460938 C 137.007813 47.160156 137.625 47.109375 138.382813 47.304688 C 138.863281 47.429688 139.238281 47.640625 139.507813 47.929688 C 139.78125 48.210938 139.925781 48.566406 139.945313 48.992188 Z M 136.070313 50.507813 L 138.835938 51.226563 L 139.148438 50.039063 C 139.265625 49.582031 139.238281 49.207031 139.070313 48.914063 C 138.894531 48.613281 138.582031 48.40625 138.132813 48.289063 C 137.675781 48.175781 137.300781 48.207031 137.007813 48.382813 C 136.707031 48.550781 136.5 48.863281 136.382813 49.320313 Z M 140.429688 43.300781 C 140.222656 43.738281 140.25 44.171875 140.507813 44.597656 C 140.757813 45.015625 141.207031 45.378906 141.851563 45.691406 C 142.5 46.003906 143.066406 46.128906 143.554688 46.066406 C 144.042969 46.003906 144.390625 45.753906 144.601563 45.316406 C 144.808594 44.890625 144.789063 44.464844 144.539063 44.035156 C 144.289063 43.597656 143.84375 43.222656 143.195313 42.910156 C 142.550781 42.597656 141.984375 42.480469 141.492188 42.550781 C 140.992188 42.625 140.640625 42.875 140.429688 43.300781 Z M 139.679688 42.941406 C 140.023438 42.253906 140.546875 41.832031 141.242188 41.675781 C 141.941406 41.511719 142.734375 41.640625 143.617188 42.066406 C 144.5 42.496094 145.101563 43.03125 145.414063 43.675781 C 145.726563 44.324219 145.710938 44.988281 145.367188 45.675781 C 145.03125 46.386719 144.515625 46.8125 143.820313 46.957031 C 143.125 47.105469 142.332031 46.964844 141.445313 46.535156 C 140.5625 46.109375 139.960938 45.582031 139.648438 44.957031 C 139.335938 44.324219 139.347656 43.652344 139.679688 42.941406 Z M 145.148438 38.410156 C 144.867188 39.066406 144.765625 39.5625 144.835938 39.894531 C 144.898438 40.21875 145.132813 40.464844 145.539063 40.628906 C 145.851563 40.765625 146.144531 40.777344 146.414063 40.660156 C 146.683594 40.546875 146.886719 40.328125 147.023438 40.003906 C 147.21875 39.546875 147.195313 39.105469 146.945313 38.675781 C 146.703125 38.25 146.296875 37.917969 145.710938 37.675781 L 145.492188 37.582031 Z M 145.460938 36.613281 L 148.632813 37.941406 L 148.289063 38.753906 L 147.445313 38.410156 C 147.703125 38.746094 147.855469 39.082031 147.898438 39.425781 C 147.9375 39.769531 147.871094 40.144531 147.695313 40.550781 C 147.484375 41.0625 147.15625 41.402344 146.710938 41.566406 C 146.273438 41.734375 145.789063 41.707031 145.257813 41.488281 C 144.632813 41.230469 144.242188 40.84375 144.085938 40.332031 C 143.921875 39.824219 143.992188 39.191406 144.304688 38.441406 L 144.789063 37.285156 L 144.695313 37.253906 C 144.28125 37.078125 143.90625 37.066406 143.570313 37.222656 C 143.226563 37.371094 142.960938 37.671875 142.773438 38.128906 C 142.648438 38.402344 142.570313 38.691406 142.539063 39.003906 C 142.5 39.316406 142.503906 39.628906 142.554688 39.941406 L 141.710938 39.582031 C 141.722656 39.21875 141.753906 38.886719 141.804688 38.582031 C 141.859375 38.28125 141.941406 37.996094 142.054688 37.722656 C 142.359375 37.003906 142.789063 36.550781 143.351563 36.363281 C 143.914063 36.175781 144.617188 36.261719 145.460938 36.613281 Z M 145.402344 30.957031 L 142.261719 30.097656 L 142.496094 29.238281 L 150.558594 31.441406 L 150.324219 32.300781 L 149.449219 32.066406 C 149.75 32.347656 149.949219 32.652344 150.042969 32.972656 C 150.136719 33.296875 150.128906 33.644531 150.027344 34.019531 C 149.847656 34.65625 149.425781 35.09375 148.761719 35.332031 C 148.097656 35.574219 147.304688 35.566406 146.386719 35.316406 C 145.472656 35.066406 144.789063 34.671875 144.339844 34.128906 C 143.894531 33.578125 143.757813 32.984375 143.933594 32.347656 C 144.039063 31.972656 144.210938 31.671875 144.449219 31.441406 C 144.691406 31.214844 145.007813 31.050781 145.402344 30.957031 Z M 146.636719 34.425781 C 147.335938 34.625 147.917969 34.652344 148.386719 34.503906 C 148.855469 34.359375 149.152344 34.0625 149.277344 33.613281 C 149.402344 33.144531 149.300781 32.730469 148.980469 32.363281 C 148.648438 31.988281 148.132813 31.703125 147.433594 31.503906 C 146.726563 31.316406 146.136719 31.300781 145.667969 31.457031 C 145.199219 31.605469 144.902344 31.910156 144.777344 32.378906 C 144.652344 32.828125 144.757813 33.234375 145.089844 33.597656 C 145.414063 33.964844 145.929688 34.238281 146.636719 34.425781 Z M 146.636719 34.425781 "/>
</g>
</svg>

