<?xml version="1.0" encoding="UTF-8"?>
<svg xmlns="http://www.w3.org/2000/svg" xmlns:xlink="http://www.w3.org/1999/xlink" width="256pt" height="256pt" viewBox="0 0 256 256" version="1.1">
<g id="surface2">
<rect x="0" y="0" width="256" height="256" style="fill:rgb(94.901961%,93.72549%,91.372549%);fill-opacity:1;stroke:none;"/>
<path style="fill:none;stroke-width:8;stroke-linecap:round;stroke-linejoin:round;stroke:rgb(75.686275%,70.980392%,61.568627%);stroke-opacity:1;stroke-miterlimit:10;" d="M 106.445313 244.824219 L 117.421875 255.597656 "/>
<path style="fill:none;stroke-width:8;stroke-linecap:round;stroke-linejoin:round;stroke:rgb(75.686275%,70.980392%,61.568627%);stroke-opacity:1;stroke-miterlimit:10;" d="M 118.65625 238.070313 L 106.445313 244.824219 L 91.765625 247.085938 "/>
<path style="fill:none;stroke-width:8;stroke-linecap:round;stroke-linejoin:round;stroke:rgb(75.686275%,70.980392%,61.568627%);stroke-opacity:1;stroke-miterlimit:10;" d="M 121.660156 225.0625 L 119.378906 229.617188 L 118.65625 238.070313 L 117.511719 251.421875 L 117.421875 255.597656 L 117.304688 260.972656 L 117.234375 264 "/>
<path style="fill:none;stroke-width:8;stroke-linecap:round;stroke-linejoin:round;stroke:rgb(75.686275%,70.980392%,61.568627%);stroke-opacity:1;stroke-miterlimit:10;" d="M 121.660156 225.0625 L 118.46875 213.65625 L 118.074219 209.132813 L 119.144531 179.601563 L 119.960938 167.003906 L 121.054688 161.914063 L 127.929688 134.832031 L 131.144531 113.4375 L 139.207031 72.90625 L 140.839844 66.558594 L 142.238281 62.441406 L 147.339844 44.785156 L 148.925781 40.699219 L 163.417969 12.546875 L 168.242188 3.65625 L 168.894531 0.765625 L 169.125 -2.375 L 170.453125 -6.460938 L 172.132813 -8.15625 L 173.933594 -9 "/>
<path style="fill:none;stroke-width:8;stroke-linecap:round;stroke-linejoin:round;stroke:rgb(75.686275%,70.980392%,61.568627%);stroke-opacity:1;stroke-miterlimit:10;" d="M 264 254.902344 L 256.089844 251.703125 L 247.046875 247.652344 L 237.539063 243.753906 L 209.625 233.074219 L 203.824219 230.65625 L 200.886719 229.742188 L 197.695313 229.242188 L 195.738281 229.304688 L 192.5 230.183594 L 184.179688 234.296875 L 180.941406 234.675781 L 149.691406 230.183594 L 130.679688 226.914063 L 121.660156 225.0625 "/>
<path style="fill:none;stroke-width:6;stroke-linecap:round;stroke-linejoin:round;stroke:rgb(100%,100%,100%);stroke-opacity:1;stroke-miterlimit:10;" d="M 106.445313 244.824219 L 117.421875 255.597656 "/>
<path style="fill:none;stroke-width:6;stroke-linecap:round;stroke-linejoin:round;stroke:rgb(100%,100%,100%);stroke-opacity:1;stroke-miterlimit:10;" d="M 118.65625 238.070313 L 106.445313 244.824219 L 91.765625 247.085938 "/>
<path style="fill:none;stroke-width:6;stroke-linecap:round;stroke-linejoin:round;stroke:rgb(100%,100%,100%);stroke-opacity:1;stroke-miterlimit:10;" d="M 121.660156 225.0625 L 119.378906 229.617188 L 118.65625 238.070313 L 117.511719 251.421875 L 117.421875 255.597656 L 117.304688 260.972656 L 117.234375 264 "/>
<path style="fill:none;stroke-width:6;stroke-linecap:round;stroke-linejoin:round;stroke:rgb(100%,100%,100%);stroke-opacity:1;stroke-miterlimit:10;" d="M 121.660156 225.0625 L 118.46875 213.65625 L 118.074219 209.132813 L 119.144531 179.601563 L 119.960938 167.003906 L 121.054688 161.914063 L 127.929688 134.832031 L 131.144531 113.4375 L 139.207031 72.90625 L 140.839844 66.558594 L 142.238281 62.441406 L 147.339844 44.785156 L 148.925781 40.699219 L 163.417969 12.546875 L 168.242188 3.65625 L 168.894531 0.765625 L 169.125 -2.375 L 170.453125 -6.460938 L 172.132813 -8.15625 L 173.933594 -9 "/>
<path style="fill:none;stroke-width:6;stroke-linecap:round;stroke-linejoin:round;stroke:rgb(100%,100%,100%);stroke-opacity:1;stroke-miterlimit:10;" d="M 264 254.902344 L 256.089844 251.703125 L 247.046875 247.652344 L 237.539063 243.753906 L 209.625 233.074219 L 203.824219 230.65625 L 200.886719 229.742188 L 197.695313 229.242188 L 195.738281 229.304688 L 192.5 230.183594 L 184.179688 234.296875 L 180.941406 234.675781 L 149.691406 230.183594 L 130.679688 226.914063 L 121.660156 225.0625 "/>
<path style="fill:none;stroke-width:3;stroke-linecap:round;stroke-linejoin:round;stroke:rgb(100%,100%,100%);stroke-opacity:1;stroke-miterlimit:10;" d="M 125.328125 126.929688 L 126.359375 127.085938 C 126.109375 127.410156 125.917969 127.734375 125.78125 128.054688 C 125.636719 128.378906 125.539063 128.6875 125.484375 128.976563 C 125.414063 129.507813 125.46875 129.929688 125.65625 130.242188 C 125.84375 130.554688 126.140625 130.742188 126.546875 130.804688 C 126.902344 130.859375 127.183594 130.804688 127.390625 130.648438 C 127.589844 130.492188 127.789063 130.15625 127.984375 129.632813 L 128.1875 129.085938 C 128.460938 128.390625 128.8125 127.898438 129.25 127.617188 C 129.6875 127.328125 130.230469 127.226563 130.875 127.320313 C 131.648438 127.4375 132.195313 127.753906 132.515625 128.273438 C 132.835938 128.796875 132.929688 129.503906 132.796875 130.398438 C 132.742188 130.742188 132.644531 131.101563 132.5 131.476563 C 132.351563 131.84375 132.171875 132.210938 131.953125 132.585938 L 130.859375 132.414063 C 131.164063 132.070313 131.40625 131.722656 131.59375 131.367188 C 131.773438 131.003906 131.886719 130.640625 131.9375 130.273438 C 132.023438 129.734375 131.964844 129.289063 131.765625 128.945313 C 131.570313 128.601563 131.25 128.398438 130.8125 128.335938 C 130.417969 128.273438 130.09375 128.335938 129.84375 128.523438 C 129.585938 128.710938 129.367188 129.039063 129.1875 129.507813 L 128.96875 130.085938 C 128.699219 130.785156 128.371094 131.269531 127.984375 131.539063 C 127.601563 131.800781 127.101563 131.882813 126.484375 131.789063 C 125.789063 131.6875 125.273438 131.382813 124.9375 130.882813 C 124.59375 130.375 124.480469 129.726563 124.59375 128.945313 C 124.648438 128.613281 124.734375 128.28125 124.859375 127.945313 C 124.984375 127.601563 125.140625 127.265625 125.328125 126.929688 Z M 130.371094 121.203125 L 133.949219 121.734375 L 133.808594 122.609375 L 130.261719 122.078125 C 129.691406 121.996094 129.253906 122.039063 128.949219 122.203125 C 128.636719 122.359375 128.457031 122.632813 128.402344 123.015625 C 128.332031 123.496094 128.441406 123.898438 128.730469 124.21875 C 129.023438 124.53125 129.457031 124.734375 130.027344 124.828125 L 133.402344 125.328125 L 133.261719 126.234375 L 124.996094 124.984375 L 125.136719 124.078125 L 128.386719 124.578125 C 128.054688 124.308594 127.820313 124.023438 127.683594 123.71875 C 127.550781 123.40625 127.511719 123.0625 127.574219 122.6875 C 127.667969 122.074219 127.949219 121.640625 128.417969 121.390625 C 128.886719 121.140625 129.539063 121.078125 130.371094 121.203125 Z M 131.679688 114.914063 L 132.164063 114.992188 L 131.554688 119.039063 C 132.234375 119.09375 132.769531 118.984375 133.164063 118.710938 C 133.5625 118.429688 133.800781 118 133.882813 117.414063 C 133.9375 117.082031 133.941406 116.753906 133.898438 116.429688 C 133.859375 116.097656 133.773438 115.757813 133.648438 115.414063 L 134.554688 115.554688 C 134.65625 115.890625 134.726563 116.226563 134.757813 116.570313 C 134.789063 116.914063 134.777344 117.253906 134.726563 117.585938 C 134.601563 118.441406 134.226563 119.082031 133.601563 119.507813 C 132.96875 119.925781 132.175781 120.0625 131.226563 119.914063 C 130.257813 119.769531 129.523438 119.414063 129.023438 118.851563 C 128.523438 118.289063 128.332031 117.609375 128.445313 116.804688 C 128.5625 116.085938 128.910156 115.5625 129.492188 115.226563 C 130.066406 114.882813 130.796875 114.78125 131.679688 114.914063 Z M 131.257813 115.742188 C 130.71875 115.679688 130.269531 115.753906 129.914063 115.960938 C 129.5625 116.171875 129.351563 116.488281 129.289063 116.914063 C 129.207031 117.414063 129.300781 117.835938 129.570313 118.179688 C 129.832031 118.523438 130.238281 118.757813 130.789063 118.882813 Z M 132.804688 108.953125 L 133.273438 109.046875 L 132.507813 113.078125 C 133.175781 113.164063 133.71875 113.074219 134.132813 112.8125 C 134.550781 112.554688 134.8125 112.136719 134.914063 111.5625 C 134.976563 111.230469 134.992188 110.898438 134.960938 110.5625 C 134.929688 110.230469 134.859375 109.886719 134.742188 109.53125 L 135.648438 109.703125 C 135.742188 110.058594 135.792969 110.40625 135.804688 110.75 C 135.824219 111.085938 135.804688 111.421875 135.742188 111.765625 C 135.574219 112.609375 135.171875 113.230469 134.539063 113.625 C 133.894531 114.023438 133.097656 114.125 132.148438 113.9375 C 131.191406 113.761719 130.472656 113.382813 129.992188 112.796875 C 129.515625 112.214844 129.351563 111.527344 129.507813 110.734375 C 129.644531 110.015625 130.007813 109.5 130.601563 109.1875 C 131.1875 108.867188 131.921875 108.789063 132.804688 108.953125 Z M 132.335938 109.765625 C 131.804688 109.671875 131.359375 109.726563 130.992188 109.921875 C 130.628906 110.121094 130.40625 110.4375 130.320313 110.875 C 130.226563 111.367188 130.304688 111.789063 130.554688 112.140625 C 130.804688 112.496094 131.203125 112.746094 131.742188 112.890625 Z M 131.886719 104.074219 C 131.804688 104.167969 131.738281 104.273438 131.683594 104.386719 C 131.621094 104.492188 131.582031 104.613281 131.558594 104.746094 C 131.457031 105.246094 131.558594 105.664063 131.871094 105.996094 C 132.175781 106.332031 132.660156 106.558594 133.324219 106.683594 L 136.433594 107.308594 L 136.261719 108.199219 L 130.355469 107.027344 L 130.527344 106.136719 L 131.449219 106.324219 C 131.136719 106.074219 130.925781 105.789063 130.808594 105.464844 C 130.695313 105.132813 130.679688 104.753906 130.761719 104.324219 C 130.773438 104.273438 130.789063 104.210938 130.808594 104.136719 C 130.832031 104.054688 130.863281 103.976563 130.902344 103.902344 Z M 134.667969 96.960938 C 134.785156 96.785156 134.988281 96.625 135.277344 96.476563 C 135.570313 96.332031 135.960938 96.203125 136.449219 96.085938 L 138.777344 95.539063 L 138.574219 96.570313 L 136.386719 97.070313 C 135.816406 97.195313 135.417969 97.351563 135.199219 97.539063 C 134.980469 97.726563 134.835938 98.015625 134.761719 98.398438 L 134.542969 99.429688 L 137.871094 100.085938 L 137.683594 101.054688 L 129.824219 99.492188 L 130.261719 97.335938 C 130.417969 96.515625 130.722656 95.945313 131.167969 95.632813 C 131.617188 95.3125 132.226563 95.226563 132.996094 95.382813 C 133.488281 95.476563 133.878906 95.660156 134.167969 95.929688 C 134.449219 96.203125 134.617188 96.546875 134.667969 96.960938 Z M 130.886719 98.695313 L 133.667969 99.257813 L 133.917969 98.070313 C 134.011719 97.601563 133.964844 97.226563 133.777344 96.945313 C 133.589844 96.664063 133.269531 96.476563 132.808594 96.382813 C 132.351563 96.289063 131.980469 96.335938 131.699219 96.523438 C 131.417969 96.710938 131.230469 97.039063 131.136719 97.507813 Z M 134.210938 91.25 C 134.117188 91.71875 134.25 92.132813 134.601563 92.484375 C 134.957031 92.839844 135.488281 93.089844 136.195313 93.234375 C 136.894531 93.371094 137.472656 93.34375 137.929688 93.15625 C 138.390625 92.960938 138.664063 92.625 138.757813 92.15625 C 138.851563 91.6875 138.722656 91.28125 138.367188 90.9375 C 138.015625 90.585938 137.488281 90.339844 136.789063 90.203125 C 136.082031 90.058594 135.5 90.078125 135.039063 90.265625 C 134.582031 90.453125 134.304688 90.78125 134.210938 91.25 Z M 133.398438 91.09375 C 133.546875 90.335938 133.9375 89.792969 134.570313 89.46875 C 135.207031 89.148438 136.007813 89.085938 136.976563 89.28125 C 137.9375 89.46875 138.644531 89.835938 139.101563 90.375 C 139.570313 90.917969 139.730469 91.570313 139.585938 92.328125 C 139.429688 93.089844 139.03125 93.632813 138.398438 93.953125 C 137.765625 94.277344 136.96875 94.34375 136.007813 94.15625 C 135.039063 93.960938 134.328125 93.589844 133.867188 93.046875 C 133.398438 92.507813 133.242188 91.855469 133.398438 91.09375 Z M 137.703125 85.414063 C 137.570313 86.125 137.570313 86.632813 137.703125 86.945313 C 137.828125 87.25 138.105469 87.441406 138.53125 87.523438 C 138.875 87.597656 139.167969 87.554688 139.40625 87.398438 C 139.648438 87.234375 139.804688 86.972656 139.875 86.617188 C 139.96875 86.128906 139.855469 85.703125 139.53125 85.335938 C 139.199219 84.960938 138.71875 84.710938 138.09375 84.585938 L 137.875 84.539063 Z M 137.65625 83.585938 L 141.03125 84.257813 L 140.84375 85.132813 L 139.953125 84.960938 C 140.273438 85.242188 140.488281 85.550781 140.59375 85.882813 C 140.707031 86.207031 140.722656 86.582031 140.640625 87.007813 C 140.535156 87.550781 140.28125 87.953125 139.875 88.210938 C 139.46875 88.460938 138.980469 88.53125 138.40625 88.414063 C 137.742188 88.28125 137.28125 87.984375 137.03125 87.523438 C 136.78125 87.054688 136.734375 86.425781 136.890625 85.632813 L 137.125 84.398438 L 137.03125 84.367188 C 136.585938 84.285156 136.214844 84.351563 135.921875 84.570313 C 135.621094 84.78125 135.421875 85.125 135.328125 85.601563 C 135.265625 85.90625 135.246094 86.210938 135.265625 86.523438 C 135.289063 86.835938 135.355469 87.140625 135.46875 87.429688 L 134.578125 87.242188 C 134.507813 86.898438 134.46875 86.570313 134.46875 86.257813 C 134.460938 85.945313 134.480469 85.644531 134.53125 85.351563 C 134.6875 84.59375 135.027344 84.066406 135.546875 83.773438 C 136.058594 83.472656 136.761719 83.410156 137.65625 83.585938 Z M 137.058594 77.984375 L 133.871094 77.359375 L 134.042969 76.484375 L 142.246094 78.109375 L 142.074219 78.984375 L 141.183594 78.8125 C 141.503906 79.0625 141.722656 79.34375 141.839844 79.65625 C 141.953125 79.96875 141.972656 80.320313 141.902344 80.703125 C 141.765625 81.351563 141.375 81.820313 140.730469 82.109375 C 140.085938 82.402344 139.300781 82.460938 138.371094 82.28125 C 137.433594 82.09375 136.726563 81.742188 136.246094 81.21875 C 135.757813 80.699219 135.582031 80.117188 135.714844 79.46875 C 135.789063 79.085938 135.941406 78.773438 136.167969 78.53125 C 136.386719 78.28125 136.683594 78.101563 137.058594 77.984375 Z M 138.542969 81.375 C 139.253906 81.511719 139.835938 81.492188 140.292969 81.3125 C 140.753906 81.136719 141.027344 80.820313 141.121094 80.359375 C 141.214844 79.890625 141.085938 79.484375 140.730469 79.140625 C 140.378906 78.789063 139.847656 78.542969 139.136719 78.40625 C 138.417969 78.261719 137.835938 78.28125 137.386719 78.46875 C 136.929688 78.648438 136.652344 78.96875 136.558594 79.4375 C 136.464844 79.898438 136.597656 80.296875 136.949219 80.640625 C 137.292969 80.984375 137.824219 81.230469 138.542969 81.375 Z M 138.542969 81.375 "/>
<path style=" stroke:none;fill-rule:evenodd;fill:rgb(20%,20%,20%);fill-opacity:1;" d="M 125.328125 126.929688 L 126.359375 127.085938 C 126.109375 127.410156 125.917969 127.734375 125.78125 128.054688 C 125.636719 128.378906 125.539063 128.6875 125.484375 128.976563 C 125.414063 129.507813 125.46875 129.929688 125.65625 130.242188 C 125.84375 130.554688 126.140625 130.742188 126.546875 130.804688 C 126.902344 130.859375 127.183594 130.804688 127.390625 130.648438 C 127.589844 130.492188 127.789063 130.15625 127.984375 129.632813 L 128.1875 129.085938 C 128.460938 128.390625 128.8125 127.898438 129.25 127.617188 C 129.6875 127.328125 130.230469 127.226563 130.875 127.320313 C 131.648438 127.4375 132.195313 127.753906 132.515625 128.273438 C 132.835938 128.796875 132.929688 129.503906 132.796875 130.398438 C 132.742188 130.742188 132.644531 131.101563 132.5 131.476563 C 132.351563 131.84375 132.171875 132.210938 131.953125 132.585938 L 130.859375 132.414063 C 131.164063 132.070313 131.40625 131.722656 131.59375 131.367188 C 131.773438 131.003906 131.886719 130.640625 131.9375 130.273438 C 132.023438 129.734375 131.964844 129.289063 131.765625 128.945313 C 131.570313 128.601563 131.25 128.398438 130.8125 128.335938 C 130.417969 128.273438 130.09375 128.335938 129.84375 128.523438 C 129.585938 128.710938 129.367188 129.039063 129.1875 129.507813 L 128.96875 130.085938 C 128.699219 130.785156 128.371094 131.269531 127.984375 131.539063 C 127.601563 131.800781 127.101563 131.882813 126.484375 131.789063 C 125.789063 131.6875 125.273438 131.382813 124.9375 130.882813 C 124.59375 130.375 124.480469 129.726563 124.59375 128.945313 C 124.648438 128.613281 124.734375 128.28125 124.859375 127.945313 C 124.984375 127.601563 125.140625 127.265625 125.328125 126.929688 Z M 130.371094 121.203125 L 133.949219 121.734375 L 133.808594 122.609375 L 130.261719 122.078125 C 129.691406 121.996094 129.253906 122.039063 128.949219 122.203125 C 128.636719 122.359375 128.457031 122.632813 128.402344 123.015625 C 128.332031 123.496094 128.441406 123.898438 128.730469 124.21875 C 129.023438 124.53125 129.457031 124.734375 130.027344 124.828125 L 133.402344 125.328125 L 133.261719 126.234375 L 124.996094 124.984375 L 125.136719 124.078125 L 128.386719 124.578125 C 128.054688 124.308594 127.820313 124.023438 127.683594 123.71875 C 127.550781 123.40625 127.511719 123.0625 127.574219 122.6875 C 127.667969 122.074219 127.949219 121.640625 128.417969 121.390625 C 128.886719 121.140625 129.539063 121.078125 130.371094 121.203125 Z M 131.679688 114.914063 L 132.164063 114.992188 L 131.554688 119.039063 C 132.234375 119.09375 132.769531 118.984375 133.164063 118.710938 C 133.5625 118.429688 133.800781 118 133.882813 117.414063 C 133.9375 117.082031 133.941406 116.753906 133.898438 116.429688 C 133.859375 116.097656 133.773438 115.757813 133.648438 115.414063 L 134.554688 115.554688 C 134.65625 115.890625 134.726563 116.226563 134.757813 116.570313 C 134.789063 116.914063 134.777344 117.253906 134.726563 117.585938 C 134.601563 118.441406 134.226563 119.082031 133.601563 119.507813 C 132.96875 119.925781 132.175781 120.0625 131.226563 119.914063 C 130.257813 119.769531 129.523438 119.414063 129.023438 118.851563 C 128.523438 118.289063 128.332031 117.609375 128.445313 116.804688 C 128.5625 116.085938 128.910156 115.5625 129.492188 115.226563 C 130.066406 114.882813 130.796875 114.78125 131.679688 114.914063 Z M 131.257813 115.742188 C 130.71875 115.679688 130.269531 115.753906 129.914063 115.960938 C 129.5625 116.171875 129.351563 116.488281 129.289063 116.914063 C 129.207031 117.414063 129.300781 117.835938 129.570313 118.179688 C 129.832031 118.523438 130.238281 118.757813 130.789063 118.882813 Z M 132.804688 108.953125 L 133.273438 109.046875 L 132.507813 113.078125 C 133.175781 113.164063 133.71875 113.074219 134.132813 112.8125 C 134.550781 112.554688 134.8125 112.136719 134.914063 111.5625 C 134.976563 111.230469 134.992188 110.898438 134.960938 110.5625 C 134.929688 110.230469 134.859375 109.886719 134.742188 109.53125 L 135.648438 109.703125 C 135.742188 110.058594 135.792969 110.40625 135.804688 110.75 C 135.824219 111.085938 135.804688 111.421875 135.742188 111.765625 C 135.574219 112.609375 135.171875 113.230469 134.539063 113.625 C 133.894531 114.023438 133.097656 114.125 132.148438 113.9375 C 131.191406 113.761719 130.472656 113.382813 129.992188 112.796875 C 129.515625 112.214844 129.351563 111.527344 129.507813 110.734375 C 129.644531 110.015625 130.007813 109.5 130.601563 109.1875 C 131.1875 108.867188 131.921875 108.789063 132.804688 108.953125 Z M 132.335938 109.765625 C 131.804688 109.671875 131.359375 109.726563 130.992188 109.921875 C 130.628906 110.121094 130.40625 110.4375 130.320313 110.875 C 130.226563 111.367188 130.304688 111.789063 130.554688 112.140625 C 130.804688 112.496094 131.203125 112.746094 131.742188 112.890625 Z M 131.886719 104.074219 C 131.804688 104.167969 131.738281 104.273438 131.683594 104.386719 C 131.621094 104.492188 131.582031 104.613281 131.558594 104.746094 C 131.457031 105.246094 131.558594 105.664063 131.871094 105.996094 C 132.175781 106.332031 132.660156 106.558594 133.324219 106.683594 L 136.433594 107.308594 L 136.261719 108.199219 L 130.355469 107.027344 L 130.527344 106.136719 L 131.449219 106.324219 C 131.136719 106.074219 130.925781 105.789063 130.808594 105.464844 C 130.695313 105.132813 130.679688 104.753906 130.761719 104.324219 C 130.773438 104.273438 130.789063 104.210938 130.808594 104.136719 C 130.832031 104.054688 130.863281 103.976563 130.902344 103.902344 Z M 134.667969 96.960938 C 134.785156 96.785156 134.988281 96.625 135.277344 96.476563 C 135.570313 96.332031 135.960938 96.203125 136.449219 96.085938 L 138.777344 95.539063 L 138.574219 96.570313 L 136.386719 97.070313 C 135.816406 97.195313 135.417969 97.351563 135.199219 97.539063 C 134.980469 97.726563 134.835938 98.015625 134.761719 98.398438 L 134.542969 99.429688 L 137.871094 100.085938 L 137.683594 101.054688 L 129.824219 99.492188 L 130.261719 97.335938 C 130.417969 96.515625 130.722656 95.945313 131.167969 95.632813 C 131.617188 95.3125 132.226563 95.226563 132.996094 95.382813 C 133.488281 95.476563 133.878906 95.660156 134.167969 95.929688 C 134.449219 96.203125 134.617188 96.546875 134.667969 96.960938 Z M 130.886719 98.695313 L 133.667969 99.257813 L 133.917969 98.070313 C 134.011719 97.601563 133.964844 97.226563 133.777344 96.945313 C 133.589844 96.664063 133.269531 96.476563 132.808594 96.382813 C 132.351563 96.289063 131.980469 96.335938 131.699219 96.523438 C 131.417969 96.710938 131.230469 97.039063 131.136719 97.507813 Z M 134.210938 91.25 C 134.117188 91.71875 134.25 92.132813 134.601563 92.484375 C 134.957031 92.839844 135.488281 93.089844 136.195313 93.234375 C 136.894531 93.371094 137.472656 93.34375 137.929688 93.15625 C 138.390625 92.960938 138.664063 92.625 138.757813 92.15625 C 138.851563 91.6875 138.722656 91.28125 138.367188 90.9375 C 138.015625 90.585938 137.488281 90.339844 136.789063 90.203125 C 136.082031 90.058594 135.5 90.078125 135.039063 90.265625 C 134.582031 90.453125 134.304688 90.78125 134.210938 91.25 Z M 133.398438 91.09375 C 133.546875 90.335938 133.9375 89.792969 134.570313 89.46875 C 135.207031 89.148438 136.007813 89.085938 136.976563 89.28125 C 137.9375 89.46875 138.644531 89.835938 139.101563 90.375 C 139.570313 90.917969 139.730469 91.570313 139.585938 92.328125 C 139.429688 93.089844 139.03125 93.632813 138.398438 93.953125 C 137.765625 94.277344 136.96875 94.34375 136.007813 94.15625 C 135.039063 93.960938 134.328125 93.589844 133.867188 93.046875 C 133.398438 92.507813 133.242188 91.855469 133.398438 91.09375 Z M 137.703125 85.414063 C 137.570313 86.125 137.570313 86.632813 137.703125 86.945313 C 137.828125 87.25 138.105469 87.441406 138.53125 87.523438 C 138.875 87.597656 139.167969 87.554688 139.40625 87.398438 C 139.648438 87.234375 139.804688 86.972656 139.875 86.617188 C 139.96875 86.128906 139.855469 85.703125 139.53125 85.335938 C 139.199219 84.960938 138.71875 84.710938 138.09375 84.585938 L 137.875 84.539063 Z M 137.65625 83.585938 L 141.03125 84.257813 L 140.84375 85.132813 L 139.953125 84.960938 C 140.273438 85.242188 140.488281 85.550781 140.59375 85.882813 C 140.707031 86.207031 140.722656 86.582031 140.640625 87.007813 C 140.535156 87.550781 140.28125 87.953125 139.875 88.210938 C 139.46875 88.460938 138.980469 88.53125 138.40625 88.414063 C 137.742188 88.28125 137.28125 87.984375 137.03125 87.523438 C 136.78125 87.054688 136.734375 86.425781 136.890625 85.632813 L 137.125 84.398438 L 137.03125 84.367188 C 136.585938 84.285156 136.214844 84.351563 135.921875 84.570313 C 135.621094 84.78125 135.421875 85.125 135.328125 85.601563 C 135.265625 85.90625 135.246094 86.210938 135.265625 86.523438 C 135.289063 86.835938 135.355469 87.140625 135.46875 87.429688 L 134.578125 87.242188 C 134.507813 86.898438 134.46875 86.570313 134.46875 86.257813 C 134.460938 85.945313 134.480469 85.644531 134.53125 85.351563 C 134.6875 84.59375 135.027344 84.066406 135.546875 83.773438 C 136.058594 83.472656 136.761719 83.410156 137.65625 83.585938 Z M 137.058594 77.984375 L 133.871094 77.359375 L 134.042969 76.484375 L 142.246094 78.109375 L 142.074219 78.984375 L 141.183594 78.8125 C 141.503906 79.0625 141.722656 79.34375 141.839844 79.65625 C 141.953125 79.96875 141.972656 80.320313 141.902344 80.703125 C 141.765625 81.351563 141.375 81.820313 140.730469 82.109375 C 140.085938 82.402344 139.300781 82.460938 138.371094 82.28125 C 137.433594 82.09375 136.726563 81.742188 136.246094 81.21875 C 135.757813 80.699219 135.582031 80.117188 135.714844 79.46875 C 135.789063 79.085938 135.941406 78.773438 136.167969 78.53125 C 136.386719 78.28125 136.683594 78.101563 137.058594 77.984375 Z M 138.542969 81.375 C 139.253906 81.511719 139.835938 81.492188 140.292969 81.3125 C 140.753906 81.136719 141.027344 80.820313 141.121094 80.359375 C 141.214844 79.890625 141.085938 79.484375 140.730469 79.140625 C 140.378906 78.789063 139.847656 78.542969 139.136719 78.40625 C 138.417969 78.261719 137.835938 78.28125 137.386719 78.46875 C 136.929688 78.648438 136.652344 78.96875 136.558594 79.4375 C 136.464844 79.898438 136.597656 80.296875 136.949219 80.640625 C 137.292969 80.984375 137.824219 81.230469 138.542969 81.375 Z M 138.542969 81.375 "/>
</g>
</svg>

