<?xml version="1.0" encoding="UTF-8"?>
<svg xmlns="http://www.w3.org/2000/svg" xmlns:xlink="http://www.w3.org/1999/xlink" width="256pt" height="256pt" viewBox="0 0 256 256" version="1.1">
<g id="surface2">
<rect x="0" y="0" width="256" height="256" style="fill:rgb(60%,70.196078%,80%);fill-opacity:1;stroke:none;"/>
<path style=" stroke:none;fill-rule:evenodd;fill:rgb(94.901961%,93.72549%,91.372549%);fill-opacity:1;" d="M 259 -4 L 259 63.214844 L 254.847656 72.089844 L 250.503906 76.761719 L 245.71875 79.53125 L 242.503906 83.671875 L 241.703125 85.96875 L 242.433594 87.171875 L 240.925781 90.15625 L 248.3125 94.570313 L 238.046875 114.179688 L 205.824219 171.578125 L 202.59375 169.921875 L 201.1875 173.886719 L 201.699219 177.835938 L 204.175781 181.046875 L 208.679688 183.734375 L 209.4375 185.1875 L 208.011719 187.078125 L 205.976563 188.292969 L 204.140625 190.339844 L 204.265625 198.984375 L 203.453125 203.324219 L 201.625 209.457031 L 203.488281 219.253906 L 206.175781 226.789063 L 209.882813 233.011719 L 200.578125 251.515625 L 193.210938 259 L 134.523438 259 L 124.96875 253.796875 L 120.515625 254.546875 L 118.265625 257.734375 L 120.28125 259 L -4 259 L -4 -4 Z M 259 -4 "/>
<path style=" stroke:none;fill-rule:evenodd;fill:rgb(60%,70.196078%,80%);fill-opacity:1;" d="M -4 259 L 259 259 L 259 -4 L 259 63.214844 L 254.847656 72.089844 L 250.507813 76.761719 L 245.71875 79.53125 L 242.503906 83.671875 L 241.703125 85.96875 L 242.433594 87.171875 L 240.925781 90.15625 L 248.3125 94.570313 L 238.050781 114.179688 L 205.824219 171.578125 L 202.59375 169.921875 L 201.1875 173.886719 L 201.699219 177.835938 L 204.175781 181.046875 L 208.683594 183.734375 L 209.4375 185.1875 L 208.011719 187.078125 L 205.980469 188.296875 L 204.140625 190.339844 L 204.265625 198.984375 L 203.457031 203.324219 L 201.625 209.457031 L 203.488281 219.253906 L 206.175781 226.789063 L 209.882813 233.011719 L 200.578125 251.515625 L 193.214844 259 L 134.523438 259 L 124.96875 253.796875 L 120.515625 254.546875 L 118.265625 257.734375 L 120.28125 259 Z M -4 259 "/>
<path style="fill:none;stroke-width:1;stroke-linecap:round;stroke-linejoin:round;stroke:rgb(70.196078%,77.647059%,83.137255%);stroke-opacity:1;stroke-miterlimit:10;" d="M -4 259 L 259 259 L 259 -4 L 259 63.214844 L 254.847656 72.089844 L 250.507813 76.761719 L 245.71875 79.53125 L 242.503906 83.671875 L 241.703125 85.96875 L 242.433594 87.171875 L 240.925781 90.15625 L 248.3125 94.570313 L 238.050781 114.179688 L 205.824219 171.578125 L 202.59375 169.921875 L 201.1875 173.886719 L 201.699219 177.835938 L 204.175781 181.046875 L 208.683594 183.734375 L 209.4375 185.1875 L 208.011719 187.078125 L 205.980469 188.296875 L 204.140625 190.339844 L 204.265625 198.984375 L 203.457031 203.324219 L 201.625 209.457031 L 203.488281 219.253906 L 206.175781 226.789063 L 209.882813 233.011719 L 200.578125 251.515625 L 193.214844 259 L 134.523438 259 L 124.96875 253.796875 L 120.515625 254.546875 L 118.265625 257.734375 L 120.28125 259 L -4 259 "/>
<path style="fill:none;stroke-width:1;stroke-linecap:butt;stroke-linejoin:round;stroke:rgb(46.666667%,46.666667%,46.666667%);stroke-opacity:0.4;stroke-dasharray:2,2;stroke-miterlimit:10;" d="M 37.164063 257 L -2 234.65625 "/>
<path style="fill:none;stroke-width:1;stroke-linecap:butt;stroke-linejoin:round;stroke:rgb(46.666667%,46.666667%,46.666667%);stroke-opacity:0.4;stroke-dasharray:2,2;stroke-miterlimit:10;" d="M -2 238.6875 L 30.042969 257 "/>
<path style="fill:none;stroke-width:9;stroke-linecap:round;stroke-linejoin:round;stroke:rgb(99.215686%,57.254902%,22.745098%);stroke-opacity:0.4;stroke-miterlimit:10;" d="M 151.117188 160.640625 L 265 223.660156 "/>
<path style="fill:none;stroke-width:9;stroke-linecap:round;stroke-linejoin:round;stroke:rgb(99.215686%,57.254902%,22.745098%);stroke-opacity:0.4;stroke-miterlimit:10;" d="M 265 215.292969 L 154.476563 154.132813 "/>
<path style="fill:none;stroke-width:9;stroke-linecap:round;stroke-linejoin:round;stroke:rgb(99.215686%,57.254902%,22.745098%);stroke-opacity:0.4;stroke-miterlimit:10;" d="M 143.296875 174.535156 L 265 241.878906 "/>
</g>
</svg>

