<?xml version="1.0" encoding="UTF-8"?>
<svg xmlns="http://www.w3.org/2000/svg" xmlns:xlink="http://www.w3.org/1999/xlink" width="256pt" height="256pt" viewBox="0 0 256 256" version="1.1">
<g id="surface2">
<rect x="0" y="0" width="256" height="256" style="fill:rgb(94.901961%,93.72549%,91.372549%);fill-opacity:1;stroke:none;"/>
<path style="fill:none;stroke-width:1;stroke-linecap:round;stroke-linejoin:round;stroke:rgb(100%,100%,100%);stroke-opacity:1;stroke-dasharray:2,3;stroke-miterlimit:10;" d="M 257 103.460938 L 254.574219 98.375 L 253.5 95.78125 L 252.242188 90.652344 L 250.800781 82.582031 L 249.726563 73.058594 "/>
<path style="fill:none;stroke-width:8;stroke-linecap:round;stroke-linejoin:round;stroke:rgb(75.686275%,70.980392%,61.568627%);stroke-opacity:1;stroke-miterlimit:10;" d="M 112.246094 109.988281 L 79.695313 100.367188 "/>
<path style="fill:none;stroke-width:8;stroke-linecap:round;stroke-linejoin:round;stroke:rgb(75.686275%,70.980392%,61.568627%);stroke-opacity:1;stroke-miterlimit:10;" d="M 182.972656 -9 L 189.121094 -4.289063 L 190.074219 -2.265625 L 191.191406 5.203125 L 191.007813 7.453125 L 191.496094 9.289063 L 192.894531 11.722656 L 192.894531 13.242188 L 192.3125 14.921875 L 191.753906 17.167969 L 189.492188 19.761719 L 187.628906 20.332031 L 183.339844 20.332031 L 180.125 21.3125 L 176.980469 22.832031 L 171.597656 25.175781 L 167.472656 28.5625 L 164.488281 31.726563 L 161.878906 36 L 160.574219 37.707031 L 157.40625 42.359375 L 153.492188 48.878906 L 151.441406 51.886719 L 150.136719 53.308594 "/>
<path style="fill:none;stroke-width:8;stroke-linecap:round;stroke-linejoin:round;stroke:rgb(75.686275%,70.980392%,61.568627%);stroke-opacity:1;stroke-miterlimit:10;" d="M 249.726563 73.058594 L 248.65625 70.019531 L 246.605469 65.527344 L 245.371094 63.816406 L 240.546875 59.101563 L 238.308594 57.203125 L 235.605469 55.652344 L 233.484375 54.640625 L 230.503906 53.625 L 227.496094 53.054688 L 223.722656 52.835938 L 218.78125 53.183594 L 201.539063 56.03125 L 197.066406 56.222656 L 188.558594 55.589844 L 185.601563 55.777344 L 178.984375 56.980469 L 173.878906 57.171875 L 170.664063 56.726563 L 161.0625 54.828125 L 153.886719 53.625 L 150.136719 53.308594 L 123.992188 51.632813 "/>
<path style="fill:none;stroke-width:8;stroke-linecap:round;stroke-linejoin:round;stroke:rgb(75.686275%,70.980392%,61.568627%);stroke-opacity:1;stroke-miterlimit:10;" d="M 29.976563 264 L 32.300781 255.621094 L 36.796875 246.035156 L 47.679688 226.382813 L 48.960938 223.34375 L 50.589844 217.839844 L 52.410156 208.820313 L 53.316406 202.964844 L 54.390625 187.871094 L 55.648438 179.105469 L 56.648438 174.074219 L 65.386719 142.648438 L 72.867188 113.46875 L 75.851563 105.148438 L 77.644531 102.457031 L 79.695313 100.367188 L 81.324219 98.722656 L 88.527344 90.683594 L 102.53125 69.542969 L 105.605469 65.777344 L 108.402344 62.742188 L 111.734375 59.828125 L 112.945313 58.816406 L 115.578125 57.234375 L 121.242188 54.195313 L 123.386719 52.550781 L 123.992188 51.632813 L 124.738281 50.398438 L 125.109375 49.257813 L 125.480469 45.902344 L 126.601563 39.382813 L 134.640625 9.507813 L 138.183594 -1.695313 L 140.230469 -7.105469 L 141.015625 -9 "/>
<path style="fill:none;stroke-width:6;stroke-linecap:round;stroke-linejoin:round;stroke:rgb(100%,100%,100%);stroke-opacity:1;stroke-miterlimit:10;" d="M 112.246094 109.988281 L 79.695313 100.367188 "/>
<path style="fill:none;stroke-width:6;stroke-linecap:round;stroke-linejoin:round;stroke:rgb(100%,100%,100%);stroke-opacity:1;stroke-miterlimit:10;" d="M 182.972656 -9 L 189.121094 -4.289063 L 190.074219 -2.265625 L 191.191406 5.203125 L 191.007813 7.453125 L 191.496094 9.289063 L 192.894531 11.722656 L 192.894531 13.242188 L 192.3125 14.921875 L 191.753906 17.167969 L 189.492188 19.761719 L 187.628906 20.332031 L 183.339844 20.332031 L 180.125 21.3125 L 176.980469 22.832031 L 171.597656 25.175781 L 167.472656 28.5625 L 164.488281 31.726563 L 161.878906 36 L 160.574219 37.707031 L 157.40625 42.359375 L 153.492188 48.878906 L 151.441406 51.886719 L 150.136719 53.308594 "/>
<path style="fill:none;stroke-width:6;stroke-linecap:round;stroke-linejoin:round;stroke:rgb(100%,100%,100%);stroke-opacity:1;stroke-miterlimit:10;" d="M 249.726563 73.058594 L 248.65625 70.019531 L 246.605469 65.527344 L 245.371094 63.816406 L 240.546875 59.101563 L 238.308594 57.203125 L 235.605469 55.652344 L 233.484375 54.640625 L 230.503906 53.625 L 227.496094 53.054688 L 223.722656 52.835938 L 218.78125 53.183594 L 201.539063 56.03125 L 197.066406 56.222656 L 188.558594 55.589844 L 185.601563 55.777344 L 178.984375 56.980469 L 173.878906 57.171875 L 170.664063 56.726563 L 161.0625 54.828125 L 153.886719 53.625 L 150.136719 53.308594 L 123.992188 51.632813 "/>
<path style="fill:none;stroke-width:6;stroke-linecap:round;stroke-linejoin:round;stroke:rgb(100%,100%,100%);stroke-opacity:1;stroke-miterlimit:10;" d="M 29.976563 264 L 32.300781 255.621094 L 36.796875 246.035156 L 47.679688 226.382813 L 48.960938 223.34375 L 50.589844 217.839844 L 52.410156 208.820313 L 53.316406 202.964844 L 54.390625 187.871094 L 55.648438 179.105469 L 56.648438 174.074219 L 65.386719 142.648438 L 72.867188 113.46875 L 75.851563 105.148438 L 77.644531 102.457031 L 79.695313 100.367188 L 81.324219 98.722656 L 88.527344 90.683594 L 102.53125 69.542969 L 105.605469 65.777344 L 108.402344 62.742188 L 111.734375 59.828125 L 112.945313 58.816406 L 115.578125 57.234375 L 121.242188 54.195313 L 123.386719 52.550781 L 123.992188 51.632813 L 124.738281 50.398438 L 125.109375 49.257813 L 125.480469 45.902344 L 126.601563 39.382813 L 134.640625 9.507813 L 138.183594 -1.695313 L 140.230469 -7.105469 L 141.015625 -9 "/>
<path style="fill:none;stroke-width:3;stroke-linecap:round;stroke-linejoin:round;stroke:rgb(100%,100%,100%);stroke-opacity:1;stroke-miterlimit:10;" d="M 67.042969 147.382813 L 64.964844 146.804688 L 64.542969 148.335938 L 63.683594 148.101563 L 64.371094 145.632813 L 67.683594 146.554688 C 67.871094 147.003906 67.972656 147.46875 67.996094 147.945313 C 68.027344 148.425781 67.96875 148.914063 67.824219 149.414063 C 67.519531 150.5 66.933594 151.25 66.058594 151.664063 C 65.183594 152.070313 64.117188 152.097656 62.855469 151.742188 C 61.597656 151.398438 60.695313 150.828125 60.152344 150.023438 C 59.613281 149.210938 59.492188 148.265625 59.792969 147.179688 C 59.917969 146.722656 60.101563 146.304688 60.339844 145.929688 C 60.582031 145.554688 60.867188 145.234375 61.199219 144.960938 L 62.324219 145.273438 C 61.910156 145.523438 61.566406 145.820313 61.292969 146.164063 C 61.011719 146.507813 60.816406 146.898438 60.699219 147.335938 C 60.460938 148.179688 60.542969 148.894531 60.949219 149.476563 C 61.355469 150.0625 62.082031 150.492188 63.121094 150.773438 C 64.175781 151.066406 65.023438 151.070313 65.667969 150.789063 C 66.316406 150.5 66.753906 149.929688 66.996094 149.085938 C 67.089844 148.742188 67.136719 148.4375 67.136719 148.164063 C 67.136719 147.894531 67.105469 147.632813 67.042969 147.382813 Z M 66.546875 144.507813 L 63.03125 143.585938 L 63.25 142.726563 L 66.734375 143.648438 C 67.277344 143.785156 67.714844 143.796875 68.046875 143.679688 C 68.371094 143.554688 68.585938 143.300781 68.6875 142.914063 C 68.8125 142.445313 68.75 142.039063 68.5 141.695313 C 68.242188 141.34375 67.824219 141.085938 67.25 140.929688 L 63.953125 140.070313 L 64.1875 139.195313 L 70 140.726563 L 69.765625 141.601563 L 68.875 141.367188 C 69.175781 141.671875 69.375 141.984375 69.46875 142.304688 C 69.570313 142.617188 69.578125 142.960938 69.484375 143.335938 C 69.328125 143.929688 69 144.328125 68.5 144.523438 C 67.992188 144.722656 67.339844 144.71875 66.546875 144.507813 Z M 63.453125 141.382813 Z M 62.378906 136.84375 L 62.597656 135.984375 L 70.691406 138.0625 L 70.472656 138.921875 Z M 63.734375 131.523438 L 64.53125 131.726563 L 64.328125 132.554688 C 64.246094 132.867188 64.257813 133.101563 64.359375 133.257813 C 64.464844 133.414063 64.699219 133.539063 65.0625 133.632813 L 65.578125 133.757813 L 65.953125 132.335938 L 66.703125 132.539063 L 66.328125 133.960938 L 71.40625 135.257813 L 71.1875 136.117188 L 66.109375 134.820313 L 65.890625 135.648438 L 65.140625 135.445313 L 65.359375 134.617188 L 64.953125 134.523438 C 64.308594 134.359375 63.875 134.101563 63.65625 133.757813 C 63.429688 133.40625 63.386719 132.9375 63.53125 132.351563 Z M 65.035156 127.824219 L 65.285156 126.871094 L 68.457031 127.683594 L 69.332031 124.246094 L 66.160156 123.433594 L 66.410156 122.496094 L 74.175781 124.480469 L 73.925781 125.417969 L 70.238281 124.464844 L 69.363281 127.902344 L 73.050781 128.855469 L 72.800781 129.808594 Z M 68.820313 121.132813 L 69.039063 120.273438 L 74.867188 121.773438 L 74.648438 122.632813 Z M 66.554688 120.554688 L 66.773438 119.695313 L 67.976563 120.007813 L 67.757813 120.867188 Z M 67.238281 117.890625 L 67.457031 117.03125 L 75.550781 119.109375 L 75.332031 119.96875 Z M 67.921875 115.226563 L 68.140625 114.367188 L 76.234375 116.445313 L 76.015625 117.304688 Z M 75.25 107.519531 C 75.40625 107.355469 75.640625 107.222656 75.953125 107.128906 C 76.257813 107.027344 76.65625 106.953125 77.15625 106.910156 L 79.546875 106.722656 L 79.1875 107.707031 L 76.9375 107.878906 C 76.367188 107.921875 75.960938 108.019531 75.71875 108.175781 C 75.46875 108.324219 75.277344 108.574219 75.140625 108.925781 L 74.78125 109.925781 L 77.96875 111.082031 L 77.640625 112.019531 L 70.09375 109.300781 L 70.84375 107.222656 C 71.125 106.441406 71.515625 105.925781 72.015625 105.675781 C 72.507813 105.425781 73.121094 105.433594 73.859375 105.691406 C 74.328125 105.859375 74.6875 106.097656 74.9375 106.410156 C 75.179688 106.722656 75.28125 107.09375 75.25 107.519531 Z M 71.265625 108.660156 L 73.9375 109.628906 L 74.359375 108.488281 C 74.515625 108.042969 74.527344 107.660156 74.390625 107.347656 C 74.246094 107.035156 73.953125 106.800781 73.515625 106.644531 C 73.070313 106.488281 72.695313 106.484375 72.390625 106.628906 C 72.078125 106.777344 71.84375 107.074219 71.6875 107.519531 Z M 76.746094 101.90625 C 76.445313 102.28125 76.371094 102.710938 76.527344 103.1875 C 76.683594 103.65625 77.039063 104.121094 77.589844 104.578125 C 78.152344 105.027344 78.679688 105.273438 79.167969 105.3125 C 79.667969 105.355469 80.066406 105.1875 80.371094 104.8125 C 80.660156 104.4375 80.734375 104.015625 80.589844 103.546875 C 80.441406 103.078125 80.089844 102.621094 79.527344 102.171875 C 78.976563 101.714844 78.449219 101.464844 77.949219 101.421875 C 77.441406 101.371094 77.039063 101.53125 76.746094 101.90625 Z M 76.105469 101.390625 C 76.585938 100.789063 77.179688 100.492188 77.886719 100.5 C 78.597656 100.5 79.332031 100.8125 80.105469 101.4375 C 80.875 102.054688 81.339844 102.710938 81.496094 103.40625 C 81.660156 104.09375 81.503906 104.742188 81.027344 105.34375 C 80.535156 105.949219 79.933594 106.25 79.214844 106.25 C 78.507813 106.242188 77.769531 105.929688 76.996094 105.3125 C 76.226563 104.6875 75.761719 104.03125 75.605469 103.34375 C 75.449219 102.648438 75.617188 101.996094 76.105469 101.390625 Z M 82.671875 98.589844 C 82.183594 99.121094 81.914063 99.554688 81.859375 99.886719 C 81.808594 100.210938 81.945313 100.523438 82.265625 100.824219 C 82.515625 101.054688 82.785156 101.164063 83.078125 101.152344 C 83.378906 101.144531 83.648438 101.007813 83.890625 100.746094 C 84.234375 100.382813 84.363281 99.960938 84.28125 99.480469 C 84.195313 99.003906 83.921875 98.542969 83.453125 98.105469 L 83.28125 97.949219 Z M 83.59375 97.011719 L 86.109375 99.355469 L 85.5 100.011719 L 84.84375 99.386719 C 84.957031 99.785156 84.972656 100.152344 84.890625 100.496094 C 84.816406 100.839844 84.628906 101.167969 84.328125 101.480469 C 83.953125 101.886719 83.523438 102.097656 83.046875 102.105469 C 82.578125 102.105469 82.132813 101.910156 81.703125 101.511719 C 81.214844 101.042969 80.980469 100.542969 81 100.011719 C 81.023438 99.480469 81.308594 98.917969 81.859375 98.324219 L 82.71875 97.417969 L 82.65625 97.355469 C 82.324219 97.042969 81.976563 96.902344 81.609375 96.933594 C 81.234375 96.964844 80.882813 97.160156 80.546875 97.511719 C 80.351563 97.730469 80.179688 97.976563 80.03125 98.246094 C 79.886719 98.519531 79.78125 98.808594 79.71875 99.121094 L 79.0625 98.511719 C 79.179688 98.167969 79.3125 97.863281 79.46875 97.589844 C 79.625 97.320313 79.804688 97.082031 80 96.871094 C 80.542969 96.300781 81.109375 96.023438 81.703125 96.042969 C 82.296875 96.066406 82.925781 96.386719 83.59375 97.011719 Z M 85.953125 91.878906 L 83.546875 89.707031 L 84.140625 89.050781 L 90.359375 94.628906 L 89.765625 95.285156 L 89.09375 94.675781 C 89.238281 95.074219 89.273438 95.4375 89.203125 95.769531 C 89.140625 96.09375 88.976563 96.402344 88.71875 96.691406 C 88.28125 97.183594 87.707031 97.390625 87 97.316406 C 86.304688 97.234375 85.601563 96.875 84.890625 96.238281 C 84.183594 95.605469 83.757813 94.941406 83.609375 94.253906 C 83.453125 93.558594 83.59375 92.964844 84.03125 92.472656 C 84.292969 92.183594 84.585938 91.988281 84.90625 91.894531 C 85.21875 91.792969 85.570313 91.785156 85.953125 91.878906 Z M 85.515625 95.550781 C 86.058594 96.042969 86.570313 96.324219 87.046875 96.394531 C 87.535156 96.46875 87.9375 96.328125 88.25 95.972656 C 88.5625 95.621094 88.65625 95.207031 88.53125 94.738281 C 88.40625 94.261719 88.070313 93.777344 87.53125 93.285156 C 86.988281 92.796875 86.476563 92.515625 85.984375 92.441406 C 85.496094 92.371094 85.09375 92.511719 84.78125 92.863281 C 84.46875 93.21875 84.382813 93.636719 84.515625 94.113281 C 84.640625 94.582031 84.976563 95.0625 85.515625 95.550781 Z M 85.515625 95.550781 "/>
<path style=" stroke:none;fill-rule:evenodd;fill:rgb(20%,20%,20%);fill-opacity:1;" d="M 67.042969 147.382813 L 64.964844 146.804688 L 64.542969 148.335938 L 63.683594 148.101563 L 64.371094 145.632813 L 67.683594 146.554688 C 67.871094 147.003906 67.972656 147.46875 67.996094 147.945313 C 68.027344 148.425781 67.96875 148.914063 67.824219 149.414063 C 67.519531 150.5 66.933594 151.25 66.058594 151.664063 C 65.183594 152.070313 64.117188 152.097656 62.855469 151.742188 C 61.597656 151.398438 60.695313 150.828125 60.152344 150.023438 C 59.613281 149.210938 59.492188 148.265625 59.792969 147.179688 C 59.917969 146.722656 60.101563 146.304688 60.339844 145.929688 C 60.582031 145.554688 60.867188 145.234375 61.199219 144.960938 L 62.324219 145.273438 C 61.910156 145.523438 61.566406 145.820313 61.292969 146.164063 C 61.011719 146.507813 60.816406 146.898438 60.699219 147.335938 C 60.460938 148.179688 60.542969 148.894531 60.949219 149.476563 C 61.355469 150.0625 62.082031 150.492188 63.121094 150.773438 C 64.175781 151.066406 65.023438 151.070313 65.667969 150.789063 C 66.316406 150.5 66.753906 149.929688 66.996094 149.085938 C 67.089844 148.742188 67.136719 148.4375 67.136719 148.164063 C 67.136719 147.894531 67.105469 147.632813 67.042969 147.382813 Z M 66.546875 144.507813 L 63.03125 143.585938 L 63.25 142.726563 L 66.734375 143.648438 C 67.277344 143.785156 67.714844 143.796875 68.046875 143.679688 C 68.371094 143.554688 68.585938 143.300781 68.6875 142.914063 C 68.8125 142.445313 68.75 142.039063 68.5 141.695313 C 68.242188 141.34375 67.824219 141.085938 67.25 140.929688 L 63.953125 140.070313 L 64.1875 139.195313 L 70 140.726563 L 69.765625 141.601563 L 68.875 141.367188 C 69.175781 141.671875 69.375 141.984375 69.46875 142.304688 C 69.570313 142.617188 69.578125 142.960938 69.484375 143.335938 C 69.328125 143.929688 69 144.328125 68.5 144.523438 C 67.992188 144.722656 67.339844 144.71875 66.546875 144.507813 Z M 63.453125 141.382813 Z M 62.378906 136.84375 L 62.597656 135.984375 L 70.691406 138.0625 L 70.472656 138.921875 Z M 63.734375 131.523438 L 64.53125 131.726563 L 64.328125 132.554688 C 64.246094 132.867188 64.257813 133.101563 64.359375 133.257813 C 64.464844 133.414063 64.699219 133.539063 65.0625 133.632813 L 65.578125 133.757813 L 65.953125 132.335938 L 66.703125 132.539063 L 66.328125 133.960938 L 71.40625 135.257813 L 71.1875 136.117188 L 66.109375 134.820313 L 65.890625 135.648438 L 65.140625 135.445313 L 65.359375 134.617188 L 64.953125 134.523438 C 64.308594 134.359375 63.875 134.101563 63.65625 133.757813 C 63.429688 133.40625 63.386719 132.9375 63.53125 132.351563 Z M 65.035156 127.824219 L 65.285156 126.871094 L 68.457031 127.683594 L 69.332031 124.246094 L 66.160156 123.433594 L 66.410156 122.496094 L 74.175781 124.480469 L 73.925781 125.417969 L 70.238281 124.464844 L 69.363281 127.902344 L 73.050781 128.855469 L 72.800781 129.808594 Z M 68.820313 121.132813 L 69.039063 120.273438 L 74.867188 121.773438 L 74.648438 122.632813 Z M 66.554688 120.554688 L 66.773438 119.695313 L 67.976563 120.007813 L 67.757813 120.867188 Z M 67.238281 117.890625 L 67.457031 117.03125 L 75.550781 119.109375 L 75.332031 119.96875 Z M 67.921875 115.226563 L 68.140625 114.367188 L 76.234375 116.445313 L 76.015625 117.304688 Z M 75.25 107.519531 C 75.40625 107.355469 75.640625 107.222656 75.953125 107.128906 C 76.257813 107.027344 76.65625 106.953125 77.15625 106.910156 L 79.546875 106.722656 L 79.1875 107.707031 L 76.9375 107.878906 C 76.367188 107.921875 75.960938 108.019531 75.71875 108.175781 C 75.46875 108.324219 75.277344 108.574219 75.140625 108.925781 L 74.78125 109.925781 L 77.96875 111.082031 L 77.640625 112.019531 L 70.09375 109.300781 L 70.84375 107.222656 C 71.125 106.441406 71.515625 105.925781 72.015625 105.675781 C 72.507813 105.425781 73.121094 105.433594 73.859375 105.691406 C 74.328125 105.859375 74.6875 106.097656 74.9375 106.410156 C 75.179688 106.722656 75.28125 107.09375 75.25 107.519531 Z M 71.265625 108.660156 L 73.9375 109.628906 L 74.359375 108.488281 C 74.515625 108.042969 74.527344 107.660156 74.390625 107.347656 C 74.246094 107.035156 73.953125 106.800781 73.515625 106.644531 C 73.070313 106.488281 72.695313 106.484375 72.390625 106.628906 C 72.078125 106.777344 71.84375 107.074219 71.6875 107.519531 Z M 76.746094 101.90625 C 76.445313 102.28125 76.371094 102.710938 76.527344 103.1875 C 76.683594 103.65625 77.039063 104.121094 77.589844 104.578125 C 78.152344 105.027344 78.679688 105.273438 79.167969 105.3125 C 79.667969 105.355469 80.066406 105.1875 80.371094 104.8125 C 80.660156 104.4375 80.734375 104.015625 80.589844 103.546875 C 80.441406 103.078125 80.089844 102.621094 79.527344 102.171875 C 78.976563 101.714844 78.449219 101.464844 77.949219 101.421875 C 77.441406 101.371094 77.039063 101.53125 76.746094 101.90625 Z M 76.105469 101.390625 C 76.585938 100.789063 77.179688 100.492188 77.886719 100.5 C 78.597656 100.5 79.332031 100.8125 80.105469 101.4375 C 80.875 102.054688 81.339844 102.710938 81.496094 103.40625 C 81.660156 104.09375 81.503906 104.742188 81.027344 105.34375 C 80.535156 105.949219 79.933594 106.25 79.214844 106.25 C 78.507813 106.242188 77.769531 105.929688 76.996094 105.3125 C 76.226563 104.6875 75.761719 104.03125 75.605469 103.34375 C 75.449219 102.648438 75.617188 101.996094 76.105469 101.390625 Z M 82.671875 98.589844 C 82.183594 99.121094 81.914063 99.554688 81.859375 99.886719 C 81.808594 100.210938 81.945313 100.523438 82.265625 100.824219 C 82.515625 101.054688 82.785156 101.164063 83.078125 101.152344 C 83.378906 101.144531 83.648438 101.007813 83.890625 100.746094 C 84.234375 100.382813 84.363281 99.960938 84.28125 99.480469 C 84.195313 99.003906 83.921875 98.542969 83.453125 98.105469 L 83.28125 97.949219 Z M 83.59375 97.011719 L 86.109375 99.355469 L 85.5 100.011719 L 84.84375 99.386719 C 84.957031 99.785156 84.972656 100.152344 84.890625 100.496094 C 84.816406 100.839844 84.628906 101.167969 84.328125 101.480469 C 83.953125 101.886719 83.523438 102.097656 83.046875 102.105469 C 82.578125 102.105469 82.132813 101.910156 81.703125 101.511719 C 81.214844 101.042969 80.980469 100.542969 81 100.011719 C 81.023438 99.480469 81.308594 98.917969 81.859375 98.324219 L 82.71875 97.417969 L 82.65625 97.355469 C 82.324219 97.042969 81.976563 96.902344 81.609375 96.933594 C 81.234375 96.964844 80.882813 97.160156 80.546875 97.511719 C 80.351563 97.730469 80.179688 97.976563 80.03125 98.246094 C 79.886719 98.519531 79.78125 98.808594 79.71875 99.121094 L 79.0625 98.511719 C 79.179688 98.167969 79.3125 97.863281 79.46875 97.589844 C 79.625 97.320313 79.804688 97.082031 80 96.871094 C 80.542969 96.300781 81.109375 96.023438 81.703125 96.042969 C 82.296875 96.066406 82.925781 96.386719 83.59375 97.011719 Z M 85.953125 91.878906 L 83.546875 89.707031 L 84.140625 89.050781 L 90.359375 94.628906 L 89.765625 95.285156 L 89.09375 94.675781 C 89.238281 95.074219 89.273438 95.4375 89.203125 95.769531 C 89.140625 96.09375 88.976563 96.402344 88.71875 96.691406 C 88.28125 97.183594 87.707031 97.390625 87 97.316406 C 86.304688 97.234375 85.601563 96.875 84.890625 96.238281 C 84.183594 95.605469 83.757813 94.941406 83.609375 94.253906 C 83.453125 93.558594 83.59375 92.964844 84.03125 92.472656 C 84.292969 92.183594 84.585938 91.988281 84.90625 91.894531 C 85.21875 91.792969 85.570313 91.785156 85.953125 91.878906 Z M 85.515625 95.550781 C 86.058594 96.042969 86.570313 96.324219 87.046875 96.394531 C 87.535156 96.46875 87.9375 96.328125 88.25 95.972656 C 88.5625 95.621094 88.65625 95.207031 88.53125 94.738281 C 88.40625 94.261719 88.070313 93.777344 87.53125 93.285156 C 86.988281 92.796875 86.476563 92.515625 85.984375 92.441406 C 85.496094 92.371094 85.09375 92.511719 84.78125 92.863281 C 84.46875 93.21875 84.382813 93.636719 84.515625 94.113281 C 84.640625 94.582031 84.976563 95.0625 85.515625 95.550781 Z M 85.515625 95.550781 "/>
<path style="fill:none;stroke-width:3;stroke-linecap:round;stroke-linejoin:round;stroke:rgb(100%,100%,100%);stroke-opacity:1;stroke-miterlimit:10;" d="M 158.160156 51.195313 L 157.082031 57.335938 L 158.238281 57.539063 C 159.226563 57.707031 159.992188 57.585938 160.535156 57.179688 C 161.074219 56.765625 161.441406 56.023438 161.628906 54.960938 C 161.804688 53.898438 161.710938 53.082031 161.347656 52.507813 C 160.980469 51.9375 160.304688 51.566406 159.316406 51.398438 Z M 157.347656 50.148438 L 159.316406 50.492188 C 160.699219 50.734375 161.652344 51.226563 162.175781 51.976563 C 162.707031 52.726563 162.855469 53.78125 162.628906 55.132813 C 162.386719 56.5 161.886719 57.441406 161.128906 57.960938 C 160.367188 58.480469 159.300781 58.621094 157.925781 58.382813 L 155.957031 58.039063 Z M 163.710938 57.003906 L 164.429688 53.425781 L 165.304688 53.613281 L 164.601563 57.160156 C 164.484375 57.714844 164.496094 58.152344 164.632813 58.472656 C 164.777344 58.785156 165.042969 58.980469 165.429688 59.050781 C 165.917969 59.144531 166.328125 59.058594 166.664063 58.785156 C 166.996094 58.503906 167.21875 58.074219 167.335938 57.488281 L 168.007813 54.144531 L 168.867188 54.316406 L 167.695313 60.222656 L 166.835938 60.050781 L 167.007813 59.144531 C 166.726563 59.457031 166.429688 59.667969 166.117188 59.785156 C 165.804688 59.910156 165.460938 59.933594 165.085938 59.863281 C 164.480469 59.746094 164.058594 59.445313 163.820313 58.957031 C 163.589844 58.457031 163.554688 57.808594 163.710938 57.003906 Z M 166.632813 53.722656 Z M 174.378906 55.300781 L 174.269531 56.207031 C 174.039063 56.019531 173.804688 55.875 173.566406 55.769531 C 173.324219 55.667969 173.074219 55.597656 172.816406 55.566406 C 172.242188 55.496094 171.769531 55.640625 171.394531 56.003906 C 171.027344 56.371094 170.804688 56.917969 170.722656 57.644531 C 170.628906 58.375 170.710938 58.957031 170.972656 59.394531 C 171.242188 59.832031 171.664063 60.089844 172.238281 60.160156 C 172.496094 60.191406 172.757813 60.1875 173.019531 60.144531 C 173.277344 60.105469 173.542969 60.027344 173.816406 59.910156 L 173.707031 60.800781 C 173.433594 60.902344 173.164063 60.972656 172.894531 61.003906 C 172.621094 61.035156 172.339844 61.027344 172.050781 60.988281 C 171.238281 60.894531 170.628906 60.535156 170.222656 59.910156 C 169.816406 59.285156 169.675781 58.488281 169.800781 57.519531 C 169.914063 56.550781 170.242188 55.824219 170.785156 55.332031 C 171.335938 54.832031 172.027344 54.636719 172.863281 54.738281 C 173.132813 54.769531 173.398438 54.832031 173.660156 54.925781 C 173.917969 55.019531 174.160156 55.144531 174.378906 55.300781 Z M 175.3125 52.722656 L 176.21875 52.644531 L 176.59375 57.582031 L 179.03125 54.800781 L 180.171875 54.707031 L 177.53125 57.738281 L 180.734375 60.707031 L 179.578125 60.785156 L 176.625 58.066406 L 176.84375 60.988281 L 175.9375 61.066406 Z M 184.304688 52.097656 L 185.289063 52.035156 L 185.460938 55.300781 L 189.007813 55.128906 L 188.835938 51.863281 L 189.789063 51.800781 L 190.210938 59.800781 L 189.257813 59.863281 L 189.054688 56.050781 L 185.507813 56.222656 L 185.710938 60.035156 L 184.726563 60.097656 Z M 192.03125 53.816406 L 192.921875 53.894531 L 192.46875 59.894531 L 191.578125 59.816406 Z M 192.203125 51.472656 L 193.09375 51.550781 L 193 52.800781 L 192.109375 52.722656 Z M 194.949219 51.675781 L 195.839844 51.753906 L 195.214844 60.097656 L 194.324219 60.019531 Z M 197.296875 51.796875 L 198.1875 51.78125 L 198.3125 60.140625 L 197.421875 60.15625 Z M 206.667969 55.414063 C 206.886719 55.46875 207.109375 55.601563 207.339844 55.820313 C 207.578125 56.039063 207.839844 56.359375 208.121094 56.773438 L 209.449219 58.773438 L 208.417969 58.945313 L 207.167969 57.070313 C 206.84375 56.582031 206.558594 56.269531 206.308594 56.132813 C 206.066406 56 205.753906 55.960938 205.371094 56.023438 L 204.324219 56.195313 L 204.871094 59.539063 L 203.902344 59.695313 L 202.589844 51.789063 L 204.761719 51.429688 C 205.582031 51.296875 206.222656 51.382813 206.683594 51.695313 C 207.140625 52 207.4375 52.535156 207.574219 53.304688 C 207.644531 53.796875 207.609375 54.222656 207.464844 54.585938 C 207.316406 54.953125 207.050781 55.226563 206.667969 55.414063 Z M 203.714844 52.507813 L 204.167969 55.320313 L 205.371094 55.117188 C 205.847656 55.035156 206.1875 54.859375 206.386719 54.585938 C 206.582031 54.304688 206.644531 53.9375 206.574219 53.476563 C 206.488281 53.007813 206.3125 52.675781 206.042969 52.476563 C 205.769531 52.28125 205.394531 52.222656 204.917969 52.304688 Z M 211.84375 52.980469 C 211.375 53.066406 211.035156 53.335938 210.828125 53.792969 C 210.628906 54.242188 210.59375 54.824219 210.71875 55.542969 C 210.832031 56.253906 211.054688 56.789063 211.390625 57.152344 C 211.734375 57.507813 212.140625 57.644531 212.609375 57.558594 C 213.085938 57.488281 213.425781 57.226563 213.625 56.777344 C 213.832031 56.320313 213.878906 55.738281 213.765625 55.027344 C 213.640625 54.308594 213.40625 53.773438 213.0625 53.417969 C 212.726563 53.054688 212.320313 52.910156 211.84375 52.980469 Z M 211.71875 52.152344 C 212.476563 52.027344 213.117188 52.207031 213.640625 52.683594 C 214.171875 53.164063 214.519531 53.894531 214.6875 54.871094 C 214.84375 55.832031 214.75 56.628906 214.40625 57.261719 C 214.0625 57.886719 213.507813 58.261719 212.75 58.386719 C 211.976563 58.523438 211.332031 58.347656 210.8125 57.855469 C 210.289063 57.367188 209.953125 56.644531 209.796875 55.683594 C 209.632813 54.707031 209.714844 53.910156 210.046875 53.292969 C 210.390625 52.667969 210.945313 52.289063 211.71875 52.152344 Z M 218.53125 54.328125 C 217.820313 54.421875 217.34375 54.578125 217.09375 54.796875 C 216.84375 55.015625 216.742188 55.34375 216.796875 55.78125 C 216.835938 56.125 216.972656 56.386719 217.203125 56.5625 C 217.441406 56.742188 217.738281 56.804688 218.09375 56.75 C 218.582031 56.6875 218.953125 56.449219 219.203125 56.03125 C 219.453125 55.605469 219.535156 55.074219 219.453125 54.4375 L 219.421875 54.21875 Z M 220.25 53.703125 L 220.6875 57.109375 L 219.8125 57.21875 L 219.703125 56.3125 C 219.535156 56.699219 219.3125 57 219.03125 57.21875 C 218.75 57.429688 218.394531 57.558594 217.96875 57.609375 C 217.414063 57.683594 216.957031 57.570313 216.59375 57.265625 C 216.226563 56.964844 216.007813 56.527344 215.9375 55.953125 C 215.84375 55.277344 215.972656 54.746094 216.328125 54.359375 C 216.691406 53.964844 217.273438 53.714844 218.078125 53.609375 L 219.328125 53.453125 L 219.3125 53.359375 C 219.25 52.902344 219.066406 52.570313 218.765625 52.359375 C 218.460938 52.152344 218.070313 52.078125 217.59375 52.140625 C 217.289063 52.171875 216.992188 52.25 216.703125 52.375 C 216.421875 52.5 216.15625 52.664063 215.90625 52.859375 L 215.796875 51.953125 C 216.109375 51.765625 216.410156 51.621094 216.703125 51.515625 C 216.992188 51.402344 217.285156 51.328125 217.578125 51.296875 C 218.347656 51.195313 218.953125 51.34375 219.390625 51.75 C 219.835938 52.148438 220.125 52.796875 220.25 53.703125 Z M 225.554688 51.929688 L 225.570313 48.679688 L 226.460938 48.679688 L 226.429688 57.039063 L 225.539063 57.039063 L 225.539063 56.132813 C 225.351563 56.5 225.109375 56.769531 224.820313 56.945313 C 224.539063 57.109375 224.199219 57.195313 223.804688 57.195313 C 223.148438 57.183594 222.609375 56.894531 222.195313 56.320313 C 221.789063 55.738281 221.589844 54.972656 221.601563 54.023438 C 221.601563 53.078125 221.804688 52.316406 222.210938 51.742188 C 222.625 51.160156 223.164063 50.875 223.820313 50.882813 C 224.214844 50.882813 224.554688 50.972656 224.835938 51.148438 C 225.125 51.316406 225.367188 51.578125 225.554688 51.929688 Z M 222.523438 54.023438 C 222.511719 54.753906 222.636719 55.328125 222.898438 55.742188 C 223.167969 56.160156 223.539063 56.367188 224.007813 56.367188 C 224.484375 56.367188 224.859375 56.164063 225.132813 55.757813 C 225.402344 55.34375 225.542969 54.769531 225.554688 54.039063 C 225.554688 53.3125 225.417969 52.742188 225.148438 52.335938 C 224.875 51.921875 224.5 51.710938 224.023438 51.710938 C 223.554688 51.710938 223.183594 51.914063 222.914063 52.320313 C 222.652344 52.726563 222.523438 53.296875 222.523438 54.023438 Z M 222.523438 54.023438 "/>
<path style=" stroke:none;fill-rule:evenodd;fill:rgb(20%,20%,20%);fill-opacity:1;" d="M 158.160156 51.195313 L 157.082031 57.335938 L 158.238281 57.539063 C 159.226563 57.707031 159.992188 57.585938 160.535156 57.179688 C 161.074219 56.765625 161.441406 56.023438 161.628906 54.960938 C 161.804688 53.898438 161.710938 53.082031 161.347656 52.507813 C 160.980469 51.9375 160.304688 51.566406 159.316406 51.398438 Z M 157.347656 50.148438 L 159.316406 50.492188 C 160.699219 50.734375 161.652344 51.226563 162.175781 51.976563 C 162.707031 52.726563 162.855469 53.78125 162.628906 55.132813 C 162.386719 56.5 161.886719 57.441406 161.128906 57.960938 C 160.367188 58.480469 159.300781 58.621094 157.925781 58.382813 L 155.957031 58.039063 Z M 163.710938 57.003906 L 164.429688 53.425781 L 165.304688 53.613281 L 164.601563 57.160156 C 164.484375 57.714844 164.496094 58.152344 164.632813 58.472656 C 164.777344 58.785156 165.042969 58.980469 165.429688 59.050781 C 165.917969 59.144531 166.328125 59.058594 166.664063 58.785156 C 166.996094 58.503906 167.21875 58.074219 167.335938 57.488281 L 168.007813 54.144531 L 168.867188 54.316406 L 167.695313 60.222656 L 166.835938 60.050781 L 167.007813 59.144531 C 166.726563 59.457031 166.429688 59.667969 166.117188 59.785156 C 165.804688 59.910156 165.460938 59.933594 165.085938 59.863281 C 164.480469 59.746094 164.058594 59.445313 163.820313 58.957031 C 163.589844 58.457031 163.554688 57.808594 163.710938 57.003906 Z M 166.632813 53.722656 Z M 174.378906 55.300781 L 174.269531 56.207031 C 174.039063 56.019531 173.804688 55.875 173.566406 55.769531 C 173.324219 55.667969 173.074219 55.597656 172.816406 55.566406 C 172.242188 55.496094 171.769531 55.640625 171.394531 56.003906 C 171.027344 56.371094 170.804688 56.917969 170.722656 57.644531 C 170.628906 58.375 170.710938 58.957031 170.972656 59.394531 C 171.242188 59.832031 171.664063 60.089844 172.238281 60.160156 C 172.496094 60.191406 172.757813 60.1875 173.019531 60.144531 C 173.277344 60.105469 173.542969 60.027344 173.816406 59.910156 L 173.707031 60.800781 C 173.433594 60.902344 173.164063 60.972656 172.894531 61.003906 C 172.621094 61.035156 172.339844 61.027344 172.050781 60.988281 C 171.238281 60.894531 170.628906 60.535156 170.222656 59.910156 C 169.816406 59.285156 169.675781 58.488281 169.800781 57.519531 C 169.914063 56.550781 170.242188 55.824219 170.785156 55.332031 C 171.335938 54.832031 172.027344 54.636719 172.863281 54.738281 C 173.132813 54.769531 173.398438 54.832031 173.660156 54.925781 C 173.917969 55.019531 174.160156 55.144531 174.378906 55.300781 Z M 175.3125 52.722656 L 176.21875 52.644531 L 176.59375 57.582031 L 179.03125 54.800781 L 180.171875 54.707031 L 177.53125 57.738281 L 180.734375 60.707031 L 179.578125 60.785156 L 176.625 58.066406 L 176.84375 60.988281 L 175.9375 61.066406 Z M 184.304688 52.097656 L 185.289063 52.035156 L 185.460938 55.300781 L 189.007813 55.128906 L 188.835938 51.863281 L 189.789063 51.800781 L 190.210938 59.800781 L 189.257813 59.863281 L 189.054688 56.050781 L 185.507813 56.222656 L 185.710938 60.035156 L 184.726563 60.097656 Z M 192.03125 53.816406 L 192.921875 53.894531 L 192.46875 59.894531 L 191.578125 59.816406 Z M 192.203125 51.472656 L 193.09375 51.550781 L 193 52.800781 L 192.109375 52.722656 Z M 194.949219 51.675781 L 195.839844 51.753906 L 195.214844 60.097656 L 194.324219 60.019531 Z M 197.296875 51.796875 L 198.1875 51.78125 L 198.3125 60.140625 L 197.421875 60.15625 Z M 206.667969 55.414063 C 206.886719 55.46875 207.109375 55.601563 207.339844 55.820313 C 207.578125 56.039063 207.839844 56.359375 208.121094 56.773438 L 209.449219 58.773438 L 208.417969 58.945313 L 207.167969 57.070313 C 206.84375 56.582031 206.558594 56.269531 206.308594 56.132813 C 206.066406 56 205.753906 55.960938 205.371094 56.023438 L 204.324219 56.195313 L 204.871094 59.539063 L 203.902344 59.695313 L 202.589844 51.789063 L 204.761719 51.429688 C 205.582031 51.296875 206.222656 51.382813 206.683594 51.695313 C 207.140625 52 207.4375 52.535156 207.574219 53.304688 C 207.644531 53.796875 207.609375 54.222656 207.464844 54.585938 C 207.316406 54.953125 207.050781 55.226563 206.667969 55.414063 Z M 203.714844 52.507813 L 204.167969 55.320313 L 205.371094 55.117188 C 205.847656 55.035156 206.1875 54.859375 206.386719 54.585938 C 206.582031 54.304688 206.644531 53.9375 206.574219 53.476563 C 206.488281 53.007813 206.3125 52.675781 206.042969 52.476563 C 205.769531 52.28125 205.394531 52.222656 204.917969 52.304688 Z M 211.84375 52.980469 C 211.375 53.066406 211.035156 53.335938 210.828125 53.792969 C 210.628906 54.242188 210.59375 54.824219 210.71875 55.542969 C 210.832031 56.253906 211.054688 56.789063 211.390625 57.152344 C 211.734375 57.507813 212.140625 57.644531 212.609375 57.558594 C 213.085938 57.488281 213.425781 57.226563 213.625 56.777344 C 213.832031 56.320313 213.878906 55.738281 213.765625 55.027344 C 213.640625 54.308594 213.40625 53.773438 213.0625 53.417969 C 212.726563 53.054688 212.320313 52.910156 211.84375 52.980469 Z M 211.71875 52.152344 C 212.476563 52.027344 213.117188 52.207031 213.640625 52.683594 C 214.171875 53.164063 214.519531 53.894531 214.6875 54.871094 C 214.84375 55.832031 214.75 56.628906 214.40625 57.261719 C 214.0625 57.886719 213.507813 58.261719 212.75 58.386719 C 211.976563 58.523438 211.332031 58.347656 210.8125 57.855469 C 210.289063 57.367188 209.953125 56.644531 209.796875 55.683594 C 209.632813 54.707031 209.714844 53.910156 210.046875 53.292969 C 210.390625 52.667969 210.945313 52.289063 211.71875 52.152344 Z M 218.53125 54.328125 C 217.820313 54.421875 217.34375 54.578125 217.09375 54.796875 C 216.84375 55.015625 216.742188 55.34375 216.796875 55.78125 C 216.835938 56.125 216.972656 56.386719 217.203125 56.5625 C 217.441406 56.742188 217.738281 56.804688 218.09375 56.75 C 218.582031 56.6875 218.953125 56.449219 219.203125 56.03125 C 219.453125 55.605469 219.535156 55.074219 219.453125 54.4375 L 219.421875 54.21875 Z M 220.25 53.703125 L 220.6875 57.109375 L 219.8125 57.21875 L 219.703125 56.3125 C 219.535156 56.699219 219.3125 57 219.03125 57.21875 C 218.75 57.429688 218.394531 57.558594 217.96875 57.609375 C 217.414063 57.683594 216.957031 57.570313 216.59375 57.265625 C 216.226563 56.964844 216.007813 56.527344 215.9375 55.953125 C 215.84375 55.277344 215.972656 54.746094 216.328125 54.359375 C 216.691406 53.964844 217.273438 53.714844 218.078125 53.609375 L 219.328125 53.453125 L 219.3125 53.359375 C 219.25 52.902344 219.066406 52.570313 218.765625 52.359375 C 218.460938 52.152344 218.070313 52.078125 217.59375 52.140625 C 217.289063 52.171875 216.992188 52.25 216.703125 52.375 C 216.421875 52.5 216.15625 52.664063 215.90625 52.859375 L 215.796875 51.953125 C 216.109375 51.765625 216.410156 51.621094 216.703125 51.515625 C 216.992188 51.402344 217.285156 51.328125 217.578125 51.296875 C 218.347656 51.195313 218.953125 51.34375 219.390625 51.75 C 219.835938 52.148438 220.125 52.796875 220.25 53.703125 Z M 225.554688 51.929688 L 225.570313 48.679688 L 226.460938 48.679688 L 226.429688 57.039063 L 225.539063 57.039063 L 225.539063 56.132813 C 225.351563 56.5 225.109375 56.769531 224.820313 56.945313 C 224.539063 57.109375 224.199219 57.195313 223.804688 57.195313 C 223.148438 57.183594 222.609375 56.894531 222.195313 56.320313 C 221.789063 55.738281 221.589844 54.972656 221.601563 54.023438 C 221.601563 53.078125 221.804688 52.316406 222.210938 51.742188 C 222.625 51.160156 223.164063 50.875 223.820313 50.882813 C 224.214844 50.882813 224.554688 50.972656 224.835938 51.148438 C 225.125 51.316406 225.367188 51.578125 225.554688 51.929688 Z M 222.523438 54.023438 C 222.511719 54.753906 222.636719 55.328125 222.898438 55.742188 C 223.167969 56.160156 223.539063 56.367188 224.007813 56.367188 C 224.484375 56.367188 224.859375 56.164063 225.132813 55.757813 C 225.402344 55.34375 225.542969 54.769531 225.554688 54.039063 C 225.554688 53.3125 225.417969 52.742188 225.148438 52.335938 C 224.875 51.921875 224.5 51.710938 224.023438 51.710938 C 223.554688 51.710938 223.183594 51.914063 222.914063 52.320313 C 222.652344 52.726563 222.523438 53.296875 222.523438 54.023438 Z M 222.523438 54.023438 "/>
</g>
</svg>

