<?xml version="1.0" encoding="UTF-8"?>
<svg xmlns="http://www.w3.org/2000/svg" xmlns:xlink="http://www.w3.org/1999/xlink" width="256pt" height="256pt" viewBox="0 0 256 256" version="1.1">
<g id="surface2">
<rect x="0" y="0" width="256" height="256" style="fill:rgb(60%,70.196078%,80%);fill-opacity:1;stroke:none;"/>
<path style=" stroke:none;fill-rule:evenodd;fill:rgb(94.901961%,93.72549%,91.372549%);fill-opacity:1;" d="M 86.855469 217.980469 L -4 182.398438 L -4 259 L -4 -4 L 91.570313 -4 L 91.570313 219.660156 Z M 86.855469 217.980469 "/>
<path style=" stroke:none;fill-rule:evenodd;fill:rgb(94.901961%,93.72549%,91.372549%);fill-opacity:1;" d="M 259 259 L 197.523438 259 L 104.628906 224.3125 L 86.855469 217.980469 L 70.636719 211.628906 L 70.636719 -4 L 259 -4 Z M 259 259 "/>
<path style=" stroke:none;fill-rule:evenodd;fill:rgb(79.607843%,84.705882%,76.470588%);fill-opacity:1;" d="M -4 260 L -4 -4 L 260 -4 L -4 -4 Z M -4 260 "/>
<path style=" stroke:none;fill-rule:evenodd;fill:rgb(70.980392%,82.352941%,61.176471%);fill-opacity:1;" d="M -4 260 L -4 -4 L 260 -4 L -4 -4 Z M -4 260 "/>
<path style=" stroke:none;fill-rule:evenodd;fill:rgb(60%,70.196078%,80%);fill-opacity:1;" d="M -4 259 L 259 259 L 197.523438 259 L 104.628906 224.3125 L 86.855469 217.980469 L -4 182.398438 Z M -4 259 "/>
<path style="fill:none;stroke-width:1;stroke-linecap:round;stroke-linejoin:round;stroke:rgb(70.196078%,77.647059%,83.137255%);stroke-opacity:1;stroke-miterlimit:10;" d="M -4 259 L 259 259 L 197.523438 259 L 104.628906 224.3125 L 86.855469 217.980469 L -4 182.398438 L -4 259 "/>
<path style=" stroke:none;fill-rule:evenodd;fill:rgb(60%,70.196078%,80%);fill-opacity:1;" d="M -4 182.398438 L 86.855469 217.980469 L 104.628906 224.3125 L 197.523438 259 L 259 259 L 259 -4 L -4 -4 Z M -4 182.398438 "/>
<path style="fill:none;stroke-width:1;stroke-linecap:round;stroke-linejoin:round;stroke:rgb(70.196078%,77.647059%,83.137255%);stroke-opacity:1;stroke-miterlimit:10;" d="M -4 182.398438 L 86.855469 217.980469 L 104.628906 224.3125 L 197.523438 259 L 259 259 L 259 -4 L -4 -4 L -4 182.398438 "/>
<path style="fill:none;stroke-width:6;stroke-linecap:round;stroke-linejoin:round;stroke:rgb(60%,70.196078%,80%);stroke-opacity:1;stroke-miterlimit:10;" d="M 133.039063 262 L 94.203125 247.945313 "/>
<path style="fill:none;stroke-width:6;stroke-linecap:round;stroke-linejoin:round;stroke:rgb(60%,70.196078%,80%);stroke-opacity:1;stroke-miterlimit:10;" d="M 165.464844 -7 L 158.105469 17.425781 L 104.628906 224.3125 L 94.203125 247.945313 L 88.007813 262 "/>
<path style="fill:none;stroke-width:3;stroke-linecap:round;stroke-linejoin:round;stroke:rgb(100%,100%,100%);stroke-opacity:1;stroke-miterlimit:10;" d="M 115.550781 164.136719 L 115.832031 163.042969 L 119.597656 164.011719 L 120.644531 159.933594 L 116.878906 158.964844 L 117.175781 157.855469 L 126.363281 160.230469 L 126.066406 161.339844 L 121.691406 160.214844 L 120.644531 164.292969 L 125.019531 165.417969 L 124.738281 166.511719 Z M 124.175781 157.449219 L 120.003906 156.371094 L 120.269531 155.355469 L 124.410156 156.417969 C 125.058594 156.585938 125.574219 156.601563 125.957031 156.464844 C 126.34375 156.332031 126.59375 156.035156 126.707031 155.574219 C 126.851563 155.023438 126.773438 154.539063 126.472656 154.121094 C 126.160156 153.695313 125.667969 153.398438 124.988281 153.230469 L 121.082031 152.214844 L 121.347656 151.183594 L 128.238281 152.964844 L 127.972656 153.996094 L 126.910156 153.714844 C 127.273438 154.070313 127.511719 154.441406 127.628906 154.824219 C 127.753906 155.199219 127.757813 155.605469 127.644531 156.042969 C 127.457031 156.742188 127.070313 157.210938 126.488281 157.449219 C 125.894531 157.691406 125.125 157.691406 124.175781 157.449219 Z M 120.503906 153.761719 Z M 123.984375 145.277344 L 120.265625 144.324219 L 120.53125 143.308594 L 130.09375 145.777344 L 129.828125 146.792969 L 128.796875 146.527344 C 129.148438 146.839844 129.382813 147.191406 129.5 147.574219 C 129.625 147.949219 129.625 148.367188 129.5 148.824219 C 129.3125 149.574219 128.820313 150.101563 128.03125 150.402344 C 127.242188 150.695313 126.304688 150.699219 125.21875 150.417969 C 124.148438 150.136719 123.339844 149.679688 122.796875 149.042969 C 122.257813 148.398438 122.078125 147.699219 122.265625 146.949219 C 122.390625 146.492188 122.59375 146.128906 122.875 145.855469 C 123.15625 145.574219 123.527344 145.382813 123.984375 145.277344 Z M 125.5 149.371094 C 126.335938 149.589844 127.027344 149.605469 127.578125 149.417969 C 128.132813 149.222656 128.476563 148.855469 128.609375 148.324219 C 128.753906 147.785156 128.628906 147.300781 128.234375 146.871094 C 127.839844 146.445313 127.226563 146.121094 126.390625 145.902344 C 125.558594 145.683594 124.871094 145.667969 124.328125 145.855469 C 123.777344 146.042969 123.429688 146.410156 123.28125 146.949219 C 123.148438 147.480469 123.277344 147.964844 123.671875 148.402344 C 124.058594 148.832031 124.667969 149.152344 125.5 149.371094 Z M 124.96875 137.996094 L 126.046875 138.277344 C 125.808594 138.527344 125.609375 138.800781 125.453125 139.089844 C 125.296875 139.371094 125.171875 139.679688 125.078125 140.011719 C 124.953125 140.511719 124.945313 140.914063 125.046875 141.214844 C 125.152344 141.519531 125.375 141.710938 125.71875 141.792969 C 125.980469 141.867188 126.210938 141.832031 126.40625 141.683594 C 126.59375 141.539063 126.828125 141.207031 127.109375 140.683594 L 127.28125 140.386719 C 127.648438 139.699219 128.027344 139.246094 128.421875 139.027344 C 128.808594 138.808594 129.277344 138.769531 129.828125 138.902344 C 130.472656 139.070313 130.925781 139.429688 131.1875 139.980469 C 131.445313 140.535156 131.472656 141.210938 131.265625 142.011719 C 131.179688 142.335938 131.054688 142.667969 130.890625 143.011719 C 130.722656 143.355469 130.515625 143.707031 130.265625 144.058594 L 129.09375 143.746094 C 129.417969 143.433594 129.683594 143.113281 129.890625 142.777344 C 130.089844 142.445313 130.234375 142.097656 130.328125 141.730469 C 130.441406 141.253906 130.441406 140.863281 130.328125 140.558594 C 130.214844 140.257813 129.992188 140.066406 129.65625 139.980469 C 129.355469 139.898438 129.101563 139.929688 128.890625 140.074219 C 128.671875 140.222656 128.402344 140.585938 128.078125 141.167969 L 127.90625 141.496094 C 127.59375 142.089844 127.25 142.492188 126.875 142.699219 C 126.5 142.898438 126.046875 142.929688 125.515625 142.792969 C 124.871094 142.628906 124.429688 142.289063 124.1875 141.777344 C 123.9375 141.269531 123.90625 140.632813 124.09375 139.871094 C 124.199219 139.507813 124.324219 139.167969 124.46875 138.855469 C 124.605469 138.535156 124.773438 138.246094 124.96875 137.996094 Z M 126.679688 133.800781 C 126.546875 134.355469 126.675781 134.855469 127.070313 135.300781 C 127.457031 135.738281 128.0625 136.0625 128.882813 136.269531 C 129.71875 136.488281 130.410156 136.5 130.960938 136.300781 C 131.515625 136.105469 131.859375 135.730469 131.992188 135.175781 C 132.136719 134.636719 132.015625 134.144531 131.632813 133.707031 C 131.238281 133.261719 130.628906 132.933594 129.804688 132.722656 C 128.992188 132.515625 128.304688 132.511719 127.742188 132.707031 C 127.179688 132.894531 126.828125 133.261719 126.679688 133.800781 Z M 125.726563 133.550781 C 125.957031 132.667969 126.457031 132.058594 127.226563 131.722656 C 128 131.378906 128.945313 131.355469 130.070313 131.644531 C 131.207031 131.9375 132.027344 132.421875 132.539063 133.097656 C 133.046875 133.765625 133.1875 134.542969 132.960938 135.425781 C 132.730469 136.3125 132.230469 136.925781 131.460938 137.269531 C 130.691406 137.605469 129.738281 137.625 128.601563 137.332031 C 127.476563 137.042969 126.660156 136.5625 126.148438 135.894531 C 125.640625 135.21875 125.5 134.4375 125.726563 133.550781 Z M 131.128906 124.621094 L 135.285156 125.699219 L 135.019531 126.714844 L 130.910156 125.652344 C 130.253906 125.488281 129.738281 125.476563 129.363281 125.621094 C 128.980469 125.769531 128.722656 126.070313 128.597656 126.527344 C 128.464844 127.070313 128.546875 127.550781 128.847656 127.964844 C 129.152344 128.382813 129.640625 128.679688 130.316406 128.855469 L 134.207031 129.855469 L 133.941406 130.886719 L 127.050781 129.105469 L 127.316406 128.074219 L 128.394531 128.355469 C 128.050781 128.011719 127.816406 127.648438 127.691406 127.261719 C 127.566406 126.878906 127.5625 126.472656 127.675781 126.042969 C 127.863281 125.335938 128.25 124.863281 128.832031 124.621094 C 129.417969 124.382813 130.183594 124.382813 131.128906 124.621094 Z M 133.464844 115.007813 C 133.621094 114.78125 133.878906 114.59375 134.230469 114.445313 C 134.574219 114.300781 135.035156 114.171875 135.605469 114.054688 L 138.417969 113.585938 L 138.105469 114.789063 L 135.464844 115.242188 C 134.789063 115.347656 134.320313 115.503906 134.058594 115.710938 C 133.789063 115.921875 133.597656 116.242188 133.480469 116.679688 L 133.167969 117.914063 L 137.042969 118.914063 L 136.761719 120.007813 L 127.574219 117.632813 L 128.214844 115.132813 C 128.464844 114.1875 128.871094 113.539063 129.433594 113.195313 C 129.996094 112.84375 130.722656 112.78125 131.605469 113.007813 C 132.179688 113.15625 132.628906 113.398438 132.949219 113.742188 C 133.273438 114.078125 133.445313 114.5 133.464844 115.007813 Z M 128.886719 116.804688 L 132.136719 117.648438 L 132.496094 116.242188 C 132.644531 115.691406 132.613281 115.242188 132.402344 114.898438 C 132.195313 114.554688 131.824219 114.316406 131.292969 114.179688 C 130.753906 114.046875 130.316406 114.078125 129.980469 114.273438 C 129.636719 114.472656 129.394531 114.847656 129.246094 115.398438 Z M 131.886719 110.40625 L 132.152344 109.390625 L 139.042969 111.171875 L 138.777344 112.1875 Z M 129.214844 109.71875 L 129.480469 108.703125 L 130.917969 109.078125 L 130.652344 110.09375 Z M 132.511719 108.011719 L 132.777344 106.933594 L 139.058594 106.496094 L 133.777344 103.058594 L 134.058594 101.964844 L 140.355469 106.074219 L 139.996094 107.464844 Z M 138.964844 96.074219 L 139.511719 96.214844 L 138.308594 100.917969 C 139.101563 101.074219 139.753906 101.019531 140.261719 100.746094 C 140.761719 100.464844 141.097656 99.988281 141.277344 99.308594 C 141.371094 98.914063 141.40625 98.523438 141.386719 98.136719 C 141.375 97.753906 141.3125 97.347656 141.199219 96.917969 L 142.277344 97.199219 C 142.347656 97.605469 142.378906 98.011719 142.371094 98.417969 C 142.371094 98.824219 142.324219 99.226563 142.230469 99.621094 C 141.96875 100.613281 141.441406 101.316406 140.652344 101.730469 C 139.863281 102.136719 138.917969 102.199219 137.824219 101.917969 C 136.699219 101.628906 135.882813 101.121094 135.371094 100.402344 C 134.851563 99.683594 134.710938 98.863281 134.949219 97.933594 C 135.160156 97.089844 135.621094 96.507813 136.339844 96.183594 C 137.058594 95.851563 137.933594 95.816406 138.964844 96.074219 Z M 138.371094 97.027344 C 137.746094 96.871094 137.210938 96.898438 136.761719 97.105469 C 136.316406 97.304688 136.027344 97.660156 135.902344 98.167969 C 135.757813 98.742188 135.820313 99.246094 136.089844 99.683594 C 136.363281 100.113281 136.816406 100.433594 137.449219 100.652344 Z M 138.21875 90.289063 C 138.117188 90.375 138.03125 90.484375 137.96875 90.617188 C 137.90625 90.742188 137.855469 90.882813 137.8125 91.039063 C 137.65625 91.613281 137.746094 92.109375 138.078125 92.523438 C 138.414063 92.941406 138.96875 93.25 139.75 93.445313 L 143.375 94.382813 L 143.109375 95.414063 L 136.21875 93.632813 L 136.484375 92.601563 L 137.5625 92.882813 C 137.199219 92.5625 136.960938 92.203125 136.84375 91.804688 C 136.730469 91.410156 136.734375 90.972656 136.859375 90.492188 C 136.882813 90.421875 136.90625 90.34375 136.9375 90.257813 C 136.96875 90.175781 137.011719 90.082031 137.0625 89.976563 Z M 138.21875 90.289063 "/>
<path style=" stroke:none;fill-rule:evenodd;fill:rgb(41.960784%,58.039216%,69.019608%);fill-opacity:1;" d="M 115.550781 164.136719 L 115.832031 163.042969 L 119.597656 164.011719 L 120.644531 159.933594 L 116.878906 158.964844 L 117.175781 157.855469 L 126.363281 160.230469 L 126.066406 161.339844 L 121.691406 160.214844 L 120.644531 164.292969 L 125.019531 165.417969 L 124.738281 166.511719 Z M 124.175781 157.449219 L 120.003906 156.371094 L 120.269531 155.355469 L 124.410156 156.417969 C 125.058594 156.585938 125.574219 156.601563 125.957031 156.464844 C 126.34375 156.332031 126.59375 156.035156 126.707031 155.574219 C 126.851563 155.023438 126.773438 154.539063 126.472656 154.121094 C 126.160156 153.695313 125.667969 153.398438 124.988281 153.230469 L 121.082031 152.214844 L 121.347656 151.183594 L 128.238281 152.964844 L 127.972656 153.996094 L 126.910156 153.714844 C 127.273438 154.070313 127.511719 154.441406 127.628906 154.824219 C 127.753906 155.199219 127.757813 155.605469 127.644531 156.042969 C 127.457031 156.742188 127.070313 157.210938 126.488281 157.449219 C 125.894531 157.691406 125.125 157.691406 124.175781 157.449219 Z M 120.503906 153.761719 Z M 123.984375 145.277344 L 120.265625 144.324219 L 120.53125 143.308594 L 130.09375 145.777344 L 129.828125 146.792969 L 128.796875 146.527344 C 129.148438 146.839844 129.382813 147.191406 129.5 147.574219 C 129.625 147.949219 129.625 148.367188 129.5 148.824219 C 129.3125 149.574219 128.820313 150.101563 128.03125 150.402344 C 127.242188 150.695313 126.304688 150.699219 125.21875 150.417969 C 124.148438 150.136719 123.339844 149.679688 122.796875 149.042969 C 122.257813 148.398438 122.078125 147.699219 122.265625 146.949219 C 122.390625 146.492188 122.59375 146.128906 122.875 145.855469 C 123.15625 145.574219 123.527344 145.382813 123.984375 145.277344 Z M 125.5 149.371094 C 126.335938 149.589844 127.027344 149.605469 127.578125 149.417969 C 128.132813 149.222656 128.476563 148.855469 128.609375 148.324219 C 128.753906 147.785156 128.628906 147.300781 128.234375 146.871094 C 127.839844 146.445313 127.226563 146.121094 126.390625 145.902344 C 125.558594 145.683594 124.871094 145.667969 124.328125 145.855469 C 123.777344 146.042969 123.429688 146.410156 123.28125 146.949219 C 123.148438 147.480469 123.277344 147.964844 123.671875 148.402344 C 124.058594 148.832031 124.667969 149.152344 125.5 149.371094 Z M 124.96875 137.996094 L 126.046875 138.277344 C 125.808594 138.527344 125.609375 138.800781 125.453125 139.089844 C 125.296875 139.371094 125.171875 139.679688 125.078125 140.011719 C 124.953125 140.511719 124.945313 140.914063 125.046875 141.214844 C 125.152344 141.519531 125.375 141.710938 125.71875 141.792969 C 125.980469 141.867188 126.210938 141.832031 126.40625 141.683594 C 126.59375 141.539063 126.828125 141.207031 127.109375 140.683594 L 127.28125 140.386719 C 127.648438 139.699219 128.027344 139.246094 128.421875 139.027344 C 128.808594 138.808594 129.277344 138.769531 129.828125 138.902344 C 130.472656 139.070313 130.925781 139.429688 131.1875 139.980469 C 131.445313 140.535156 131.472656 141.210938 131.265625 142.011719 C 131.179688 142.335938 131.054688 142.667969 130.890625 143.011719 C 130.722656 143.355469 130.515625 143.707031 130.265625 144.058594 L 129.09375 143.746094 C 129.417969 143.433594 129.683594 143.113281 129.890625 142.777344 C 130.089844 142.445313 130.234375 142.097656 130.328125 141.730469 C 130.441406 141.253906 130.441406 140.863281 130.328125 140.558594 C 130.214844 140.257813 129.992188 140.066406 129.65625 139.980469 C 129.355469 139.898438 129.101563 139.929688 128.890625 140.074219 C 128.671875 140.222656 128.402344 140.585938 128.078125 141.167969 L 127.90625 141.496094 C 127.59375 142.089844 127.25 142.492188 126.875 142.699219 C 126.5 142.898438 126.046875 142.929688 125.515625 142.792969 C 124.871094 142.628906 124.429688 142.289063 124.1875 141.777344 C 123.9375 141.269531 123.90625 140.632813 124.09375 139.871094 C 124.199219 139.507813 124.324219 139.167969 124.46875 138.855469 C 124.605469 138.535156 124.773438 138.246094 124.96875 137.996094 Z M 126.679688 133.800781 C 126.546875 134.355469 126.675781 134.855469 127.070313 135.300781 C 127.457031 135.738281 128.0625 136.0625 128.882813 136.269531 C 129.71875 136.488281 130.410156 136.5 130.960938 136.300781 C 131.515625 136.105469 131.859375 135.730469 131.992188 135.175781 C 132.136719 134.636719 132.015625 134.144531 131.632813 133.707031 C 131.238281 133.261719 130.628906 132.933594 129.804688 132.722656 C 128.992188 132.515625 128.304688 132.511719 127.742188 132.707031 C 127.179688 132.894531 126.828125 133.261719 126.679688 133.800781 Z M 125.726563 133.550781 C 125.957031 132.667969 126.457031 132.058594 127.226563 131.722656 C 128 131.378906 128.945313 131.355469 130.070313 131.644531 C 131.207031 131.9375 132.027344 132.421875 132.539063 133.097656 C 133.046875 133.765625 133.1875 134.542969 132.960938 135.425781 C 132.730469 136.3125 132.230469 136.925781 131.460938 137.269531 C 130.691406 137.605469 129.738281 137.625 128.601563 137.332031 C 127.476563 137.042969 126.660156 136.5625 126.148438 135.894531 C 125.640625 135.21875 125.5 134.4375 125.726563 133.550781 Z M 131.128906 124.621094 L 135.285156 125.699219 L 135.019531 126.714844 L 130.910156 125.652344 C 130.253906 125.488281 129.738281 125.476563 129.363281 125.621094 C 128.980469 125.769531 128.722656 126.070313 128.597656 126.527344 C 128.464844 127.070313 128.546875 127.550781 128.847656 127.964844 C 129.152344 128.382813 129.640625 128.679688 130.316406 128.855469 L 134.207031 129.855469 L 133.941406 130.886719 L 127.050781 129.105469 L 127.316406 128.074219 L 128.394531 128.355469 C 128.050781 128.011719 127.816406 127.648438 127.691406 127.261719 C 127.566406 126.878906 127.5625 126.472656 127.675781 126.042969 C 127.863281 125.335938 128.25 124.863281 128.832031 124.621094 C 129.417969 124.382813 130.183594 124.382813 131.128906 124.621094 Z M 133.464844 115.007813 C 133.621094 114.78125 133.878906 114.59375 134.230469 114.445313 C 134.574219 114.300781 135.035156 114.171875 135.605469 114.054688 L 138.417969 113.585938 L 138.105469 114.789063 L 135.464844 115.242188 C 134.789063 115.347656 134.320313 115.503906 134.058594 115.710938 C 133.789063 115.921875 133.597656 116.242188 133.480469 116.679688 L 133.167969 117.914063 L 137.042969 118.914063 L 136.761719 120.007813 L 127.574219 117.632813 L 128.214844 115.132813 C 128.464844 114.1875 128.871094 113.539063 129.433594 113.195313 C 129.996094 112.84375 130.722656 112.78125 131.605469 113.007813 C 132.179688 113.15625 132.628906 113.398438 132.949219 113.742188 C 133.273438 114.078125 133.445313 114.5 133.464844 115.007813 Z M 128.886719 116.804688 L 132.136719 117.648438 L 132.496094 116.242188 C 132.644531 115.691406 132.613281 115.242188 132.402344 114.898438 C 132.195313 114.554688 131.824219 114.316406 131.292969 114.179688 C 130.753906 114.046875 130.316406 114.078125 129.980469 114.273438 C 129.636719 114.472656 129.394531 114.847656 129.246094 115.398438 Z M 131.886719 110.40625 L 132.152344 109.390625 L 139.042969 111.171875 L 138.777344 112.1875 Z M 129.214844 109.71875 L 129.480469 108.703125 L 130.917969 109.078125 L 130.652344 110.09375 Z M 132.511719 108.011719 L 132.777344 106.933594 L 139.058594 106.496094 L 133.777344 103.058594 L 134.058594 101.964844 L 140.355469 106.074219 L 139.996094 107.464844 Z M 138.964844 96.074219 L 139.511719 96.214844 L 138.308594 100.917969 C 139.101563 101.074219 139.753906 101.019531 140.261719 100.746094 C 140.761719 100.464844 141.097656 99.988281 141.277344 99.308594 C 141.371094 98.914063 141.40625 98.523438 141.386719 98.136719 C 141.375 97.753906 141.3125 97.347656 141.199219 96.917969 L 142.277344 97.199219 C 142.347656 97.605469 142.378906 98.011719 142.371094 98.417969 C 142.371094 98.824219 142.324219 99.226563 142.230469 99.621094 C 141.96875 100.613281 141.441406 101.316406 140.652344 101.730469 C 139.863281 102.136719 138.917969 102.199219 137.824219 101.917969 C 136.699219 101.628906 135.882813 101.121094 135.371094 100.402344 C 134.851563 99.683594 134.710938 98.863281 134.949219 97.933594 C 135.160156 97.089844 135.621094 96.507813 136.339844 96.183594 C 137.058594 95.851563 137.933594 95.816406 138.964844 96.074219 Z M 138.371094 97.027344 C 137.746094 96.871094 137.210938 96.898438 136.761719 97.105469 C 136.316406 97.304688 136.027344 97.660156 135.902344 98.167969 C 135.757813 98.742188 135.820313 99.246094 136.089844 99.683594 C 136.363281 100.113281 136.816406 100.433594 137.449219 100.652344 Z M 138.21875 90.289063 C 138.117188 90.375 138.03125 90.484375 137.96875 90.617188 C 137.90625 90.742188 137.855469 90.882813 137.8125 91.039063 C 137.65625 91.613281 137.746094 92.109375 138.078125 92.523438 C 138.414063 92.941406 138.96875 93.25 139.75 93.445313 L 143.375 94.382813 L 143.109375 95.414063 L 136.21875 93.632813 L 136.484375 92.601563 L 137.5625 92.882813 C 137.199219 92.5625 136.960938 92.203125 136.84375 91.804688 C 136.730469 91.410156 136.734375 90.972656 136.859375 90.492188 C 136.882813 90.421875 136.90625 90.34375 136.9375 90.257813 C 136.96875 90.175781 137.011719 90.082031 137.0625 89.976563 Z M 138.21875 90.289063 "/>
</g>
</svg>

