<?xml version="1.0" encoding="UTF-8"?>
<svg xmlns="http://www.w3.org/2000/svg" xmlns:xlink="http://www.w3.org/1999/xlink" width="256pt" height="256pt" viewBox="0 0 256 256" version="1.1">
<g id="surface2">
<rect x="0" y="0" width="256" height="256" style="fill:rgb(94.901961%,93.72549%,91.372549%);fill-opacity:1;stroke:none;"/>
<path style=" stroke:none;fill-rule:evenodd;fill:rgb(60%,70.196078%,80%);fill-opacity:1;" d="M 66.878906 211.320313 L 71.304688 217.066406 L 73.960938 221.320313 L 71.984375 224.128906 L 72.351563 227.167969 L 74.765625 229.132813 L 79.851563 229.5625 L 88.617188 229.753906 L 93.980469 226.753906 L 96.789063 224.222656 L 98.453125 221.359375 L 97.9375 213.867188 L 95.914063 212.070313 L 93.714844 210.859375 L 86.480469 210.371094 L 82.886719 211.070313 Z M 66.878906 211.320313 "/>
<path style="fill:none;stroke-width:1;stroke-linecap:round;stroke-linejoin:round;stroke:rgb(70.196078%,77.647059%,83.137255%);stroke-opacity:1;stroke-miterlimit:10;" d="M 66.878906 211.320313 L 71.304688 217.066406 L 73.960938 221.320313 L 71.984375 224.128906 L 72.351563 227.167969 L 74.765625 229.132813 L 79.851563 229.5625 L 88.617188 229.753906 L 93.980469 226.753906 L 96.789063 224.222656 L 98.453125 221.359375 L 97.9375 213.867188 L 95.914063 212.070313 L 93.714844 210.859375 L 86.480469 210.371094 L 82.886719 211.070313 L 66.878906 211.320313 "/>
<path style="fill:none;stroke-width:2;stroke-linecap:round;stroke-linejoin:round;stroke:rgb(60%,70.196078%,80%);stroke-opacity:1;stroke-miterlimit:10;" d="M 66.878906 211.320313 L 65.242188 211.992188 L 55.265625 205.835938 L 49.695313 203.664063 L 41.890625 206.6875 L 33.1875 209.023438 L 21.507813 219.425781 L 9.195313 221.125 L 3.890625 226.21875 L 0.492188 233.011719 L -3 234.726563 "/>
<path style="fill:none;stroke-width:2;stroke-linecap:round;stroke-linejoin:round;stroke:rgb(60%,70.196078%,80%);stroke-opacity:1;stroke-miterlimit:10;" d="M 161.363281 202.972656 L 157.179688 208.183594 L 142.058594 213.503906 L 131.3125 216.195313 L 118.929688 219.1875 L 111.226563 217.167969 L 98.453125 221.359375 "/>
<path style="fill:none;stroke-width:1;stroke-linecap:round;stroke-linejoin:round;stroke:rgb(100%,100%,100%);stroke-opacity:1;stroke-dasharray:2,3;stroke-miterlimit:10;" d="M 247.019531 187.320313 L 245.8125 186.742188 L 244.132813 188.019531 L 242.925781 188.375 "/>
<path style="fill:none;stroke-width:1;stroke-linecap:round;stroke-linejoin:round;stroke:rgb(100%,100%,100%);stroke-opacity:1;stroke-dasharray:2,3;stroke-miterlimit:10;" d="M 237.441406 194.101563 L 238.882813 195.835938 L 240.914063 197.273438 "/>
<path style="fill:none;stroke-width:1;stroke-linecap:round;stroke-linejoin:round;stroke:rgb(100%,100%,100%);stroke-opacity:1;stroke-dasharray:2,3;stroke-miterlimit:10;" d="M 253.390625 192.675781 L 256.238281 192.3125 L 257 191.976563 "/>
<path style="fill:none;stroke-width:1;stroke-linecap:round;stroke-linejoin:round;stroke:rgb(100%,100%,100%);stroke-opacity:1;stroke-dasharray:2,3;stroke-miterlimit:10;" d="M 116.691406 225.574219 L 113.6875 222.953125 L 112.097656 219.476563 "/>
<path style="fill:none;stroke-width:1;stroke-linecap:round;stroke-linejoin:round;stroke:rgb(100%,100%,100%);stroke-opacity:1;stroke-dasharray:2,3;stroke-miterlimit:10;" d="M 247.019531 187.320313 L 250.183594 187.28125 L 253.074219 186.359375 L 253.363281 183.136719 "/>
<path style="fill:none;stroke-width:1;stroke-linecap:round;stroke-linejoin:round;stroke:rgb(100%,100%,100%);stroke-opacity:1;stroke-dasharray:2,3;stroke-miterlimit:10;" d="M 247.4375 193.042969 L 251.769531 192.035156 L 253.390625 192.675781 L 254.601563 193.15625 L 257 194.019531 "/>
<path style="fill:none;stroke-width:1;stroke-linecap:round;stroke-linejoin:round;stroke:rgb(100%,100%,100%);stroke-opacity:1;stroke-dasharray:2,3;stroke-miterlimit:10;" d="M 247.4375 193.042969 L 246.105469 190.144531 L 247.019531 187.320313 L 247.574219 185.597656 L 246.546875 177.460938 L 248.492188 171.019531 L 251.089844 164.617188 L 252.132813 157.554688 L 250.597656 151.417969 L 248.117188 146.21875 L 246.347656 139.964844 L 246.113281 133.945313 L 243.398438 128.988281 L 238.792969 123.914063 L 234.664063 118.484375 L 228.527344 112.230469 L 225.21875 110.222656 L 219.910156 107.035156 L 217.785156 102.433594 L 218.726563 99.953125 L 222.742188 98.179688 L 227.226563 97.121094 L 231.710938 96.527344 L 238.558594 97.949219 L 243.164063 101.84375 L 249.535156 104.4375 L 254.375 107.859375 L 256.617188 112.113281 L 257 112.261719 "/>
<path style="fill:none;stroke-width:1;stroke-linecap:round;stroke-linejoin:round;stroke:rgb(100%,100%,100%);stroke-opacity:1;stroke-dasharray:2,3;stroke-miterlimit:10;" d="M 37.136719 257 L 42.808594 252.222656 L 47.632813 248.5 L 55.128906 244.128906 L 61.914063 243.007813 L 68.761719 243.421875 L 76.078125 246.964844 L 78.851563 249.382813 L 82.511719 252.746094 L 85.34375 254.574219 L 91.660156 254.515625 L 96.027344 252.6875 L 102.222656 249.972656 L 107.359375 245.371094 L 110.1875 241.355469 L 113.554688 237.578125 L 115.738281 232.976563 L 116.207031 227.191406 L 116.691406 225.574219 L 118.332031 223.945313 L 125.058594 222.707031 L 130.371094 221.171875 L 136.398438 219.144531 L 140.890625 215.679688 L 148.402344 213.320313 L 159.195313 210.898438 L 168.917969 210.492188 L 178.0625 211.4375 L 187.886719 209.984375 L 199.214844 207.808594 L 206.476563 206.53125 L 215.105469 204.488281 L 225.183594 202.886719 L 233.15625 197.160156 L 237.441406 194.101563 L 244.363281 194.398438 L 247.4375 193.042969 "/>
</g>
</svg>

