<?xml version="1.0" encoding="UTF-8"?>
<svg xmlns="http://www.w3.org/2000/svg" xmlns:xlink="http://www.w3.org/1999/xlink" width="256pt" height="256pt" viewBox="0 0 256 256" version="1.1">
<g id="surface2">
<rect x="0" y="0" width="256" height="256" style="fill:rgb(94.901961%,93.72549%,91.372549%);fill-opacity:1;stroke:none;"/>
<path style="fill:none;stroke-width:8;stroke-linecap:round;stroke-linejoin:round;stroke:rgb(75.686275%,70.980392%,61.568627%);stroke-opacity:1;stroke-miterlimit:10;" d="M 218.410156 110.160156 L 264 109.878906 "/>
<path style="fill:none;stroke-width:8;stroke-linecap:round;stroke-linejoin:round;stroke:rgb(75.686275%,70.980392%,61.568627%);stroke-opacity:1;stroke-miterlimit:10;" d="M -9 178.226563 L -8.128906 174.3125 L -3.933594 156.582031 L 2.472656 131.964844 L 4.105469 126.445313 "/>
<path style="fill:none;stroke-width:8;stroke-linecap:round;stroke-linejoin:round;stroke:rgb(75.686275%,70.980392%,61.568627%);stroke-opacity:1;stroke-miterlimit:10;" d="M 84.769531 264 L 83.679688 253.390625 L 80.464844 220.386719 L 78.878906 206.785156 L 77.761719 192.523438 L 78.085938 189.492188 "/>
<path style="fill:none;stroke-width:8;stroke-linecap:round;stroke-linejoin:round;stroke:rgb(75.686275%,70.980392%,61.568627%);stroke-opacity:1;stroke-miterlimit:10;" d="M 246.054688 264 L 245.695313 262.511719 L 241.945313 244.777344 L 240.148438 234.929688 L 237.097656 215.683594 L 233.160156 195.898438 L 229.128906 175.957031 L 223.164063 146.007813 L 221.8125 138.46875 L 220.648438 130.957031 L 219.386719 120.289063 L 218.410156 110.160156 L 217.664063 102.304688 L 211 38.621094 L 204.675781 -9 "/>
<path style="fill:none;stroke-width:6;stroke-linecap:round;stroke-linejoin:round;stroke:rgb(100%,100%,100%);stroke-opacity:1;stroke-miterlimit:10;" d="M 218.410156 110.160156 L 264 109.878906 "/>
<path style="fill:none;stroke-width:6;stroke-linecap:round;stroke-linejoin:round;stroke:rgb(100%,100%,100%);stroke-opacity:1;stroke-miterlimit:10;" d="M -9 178.226563 L -8.128906 174.3125 L -3.933594 156.582031 L 2.472656 131.964844 L 4.105469 126.445313 "/>
<path style="fill:none;stroke-width:6;stroke-linecap:round;stroke-linejoin:round;stroke:rgb(100%,100%,100%);stroke-opacity:1;stroke-miterlimit:10;" d="M 84.769531 264 L 83.679688 253.390625 L 80.464844 220.386719 L 78.878906 206.785156 L 77.761719 192.523438 L 78.085938 189.492188 "/>
<path style="fill:none;stroke-width:6;stroke-linecap:round;stroke-linejoin:round;stroke:rgb(100%,100%,100%);stroke-opacity:1;stroke-miterlimit:10;" d="M 246.054688 264 L 245.695313 262.511719 L 241.945313 244.777344 L 240.148438 234.929688 L 237.097656 215.683594 L 233.160156 195.898438 L 229.128906 175.957031 L 223.164063 146.007813 L 221.8125 138.46875 L 220.648438 130.957031 L 219.386719 120.289063 L 218.410156 110.160156 L 217.664063 102.304688 L 211 38.621094 L 204.675781 -9 "/>
<path style="fill:none;stroke-width:3;stroke-linecap:round;stroke-linejoin:round;stroke:rgb(100%,100%,100%);stroke-opacity:1;stroke-miterlimit:10;" d="M 221.816406 106.234375 L 220.769531 106.34375 C 220.925781 105.96875 221.035156 105.609375 221.097656 105.265625 C 221.160156 104.921875 221.175781 104.597656 221.144531 104.296875 C 221.089844 103.765625 220.933594 103.367188 220.675781 103.109375 C 220.425781 102.859375 220.089844 102.75 219.675781 102.78125 C 219.320313 102.820313 219.066406 102.941406 218.910156 103.140625 C 218.753906 103.335938 218.644531 103.710938 218.582031 104.265625 L 218.503906 104.859375 C 218.417969 105.597656 218.195313 106.15625 217.832031 106.53125 C 217.476563 106.914063 216.976563 107.140625 216.332031 107.203125 C 215.558594 107.285156 214.949219 107.113281 214.503906 106.6875 C 214.066406 106.257813 213.800781 105.59375 213.707031 104.6875 C 213.675781 104.34375 213.683594 103.972656 213.738281 103.578125 C 213.789063 103.191406 213.878906 102.789063 214.003906 102.375 L 215.113281 102.265625 C 214.902344 102.679688 214.753906 103.082031 214.660156 103.46875 C 214.574219 103.863281 214.550781 104.242188 214.582031 104.609375 C 214.632813 105.160156 214.792969 105.578125 215.066406 105.859375 C 215.347656 106.140625 215.707031 106.257813 216.144531 106.21875 C 216.539063 106.175781 216.835938 106.035156 217.035156 105.796875 C 217.242188 105.554688 217.378906 105.179688 217.441406 104.671875 L 217.519531 104.0625 C 217.601563 103.332031 217.800781 102.789063 218.113281 102.4375 C 218.425781 102.082031 218.882813 101.875 219.488281 101.8125 C 220.195313 101.738281 220.773438 101.90625 221.222656 102.3125 C 221.679688 102.71875 221.949219 103.316406 222.035156 104.109375 C 222.066406 104.453125 222.058594 104.800781 222.019531 105.15625 C 221.976563 105.507813 221.910156 105.867188 221.816406 106.234375 Z M 220.386719 112.234375 L 219.480469 112.3125 C 219.613281 112.050781 219.707031 111.789063 219.761719 111.53125 C 219.8125 111.269531 219.824219 111.007813 219.792969 110.75 C 219.738281 110.164063 219.496094 109.738281 219.058594 109.46875 C 218.628906 109.195313 218.046875 109.097656 217.308594 109.171875 C 216.578125 109.234375 216.027344 109.441406 215.652344 109.796875 C 215.285156 110.148438 215.128906 110.617188 215.183594 111.203125 C 215.214844 111.460938 215.277344 111.710938 215.371094 111.953125 C 215.464844 112.191406 215.597656 112.429688 215.777344 112.671875 L 214.871094 112.765625 C 214.714844 112.523438 214.589844 112.273438 214.496094 112.015625 C 214.410156 111.753906 214.359375 111.476563 214.339844 111.1875 C 214.253906 110.363281 214.472656 109.6875 214.996094 109.15625 C 215.515625 108.632813 216.253906 108.328125 217.214844 108.234375 C 218.191406 108.140625 218.984375 108.300781 219.589844 108.71875 C 220.191406 109.144531 220.535156 109.78125 220.621094 110.625 C 220.640625 110.894531 220.628906 111.164063 220.589844 111.4375 C 220.558594 111.71875 220.488281 111.984375 220.386719 112.234375 Z M 217.140625 113.996094 L 220.765625 113.652344 L 220.859375 114.527344 L 217.265625 114.871094 C 216.710938 114.921875 216.300781 115.0625 216.03125 115.292969 C 215.757813 115.519531 215.644531 115.832031 215.6875 116.230469 C 215.738281 116.71875 215.941406 117.082031 216.296875 117.324219 C 216.660156 117.5625 217.140625 117.65625 217.734375 117.605469 L 221.125 117.277344 L 221.203125 118.152344 L 215.21875 118.730469 L 215.140625 117.855469 L 216.0625 117.761719 C 215.675781 117.582031 215.378906 117.359375 215.171875 117.089844 C 214.960938 116.828125 214.84375 116.503906 214.8125 116.121094 C 214.75 115.503906 214.914063 115.015625 215.3125 114.652344 C 215.71875 114.296875 216.328125 114.078125 217.140625 113.996094 Z M 221.125 115.855469 Z M 223.1875 120.636719 L 221.5 120.824219 L 221.703125 122.652344 L 220.9375 122.746094 L 220.734375 120.917969 L 217.484375 121.277344 C 217.003906 121.328125 216.703125 121.421875 216.578125 121.558594 C 216.453125 121.691406 216.410156 121.949219 216.453125 122.324219 L 216.546875 123.230469 L 215.71875 123.324219 L 215.625 122.417969 C 215.539063 121.730469 215.628906 121.238281 215.890625 120.949219 C 216.148438 120.667969 216.648438 120.484375 217.390625 120.402344 L 220.640625 120.042969 L 220.5625 119.386719 L 221.328125 119.292969 L 221.40625 119.949219 L 223.09375 119.761719 Z M 223.636719 124.464844 L 221.933594 124.667969 L 222.136719 126.480469 L 221.386719 126.574219 L 221.183594 124.761719 L 217.933594 125.136719 C 217.441406 125.199219 217.136719 125.296875 217.011719 125.433594 C 216.886719 125.566406 216.847656 125.824219 216.902344 126.199219 L 216.996094 127.089844 L 216.167969 127.183594 L 216.074219 126.292969 C 215.988281 125.605469 216.074219 125.113281 216.324219 124.824219 C 216.582031 124.542969 217.082031 124.355469 217.824219 124.261719 L 221.074219 123.886719 L 220.996094 123.230469 L 221.746094 123.136719 L 221.824219 123.792969 L 223.527344 123.589844 Z M 220.960938 134.445313 C 220.90625 134.664063 220.765625 134.886719 220.539063 135.117188 C 220.320313 135.355469 219.996094 135.609375 219.570313 135.882813 L 217.570313 137.179688 L 217.414063 136.148438 L 219.320313 134.929688 C 219.808594 134.617188 220.121094 134.335938 220.257813 134.085938 C 220.402344 133.835938 220.449219 133.523438 220.398438 133.148438 L 220.242188 132.101563 L 216.882813 132.601563 L 216.726563 131.617188 L 224.648438 130.429688 L 224.976563 132.617188 C 225.101563 133.4375 225.007813 134.074219 224.695313 134.523438 C 224.382813 134.980469 223.839844 135.265625 223.070313 135.382813 C 222.570313 135.453125 222.136719 135.40625 221.773438 135.242188 C 221.417969 135.085938 221.148438 134.820313 220.960938 134.445313 Z M 223.929688 131.539063 L 221.117188 131.960938 L 221.289063 133.164063 C 221.359375 133.632813 221.53125 133.964844 221.804688 134.164063 C 222.074219 134.371094 222.445313 134.445313 222.914063 134.382813 C 223.371094 134.308594 223.699219 134.132813 223.898438 133.851563 C 224.105469 133.578125 224.171875 133.210938 224.101563 132.742188 Z M 223.386719 139.628906 C 223.300781 139.160156 223.03125 138.824219 222.574219 138.628906 C 222.113281 138.429688 221.53125 138.386719 220.824219 138.503906 C 220.113281 138.628906 219.578125 138.863281 219.214844 139.207031 C 218.859375 139.550781 218.722656 139.957031 218.808594 140.425781 C 218.890625 140.894531 219.15625 141.226563 219.605469 141.425781 C 220.0625 141.632813 220.644531 141.675781 221.355469 141.550781 C 222.0625 141.433594 222.597656 141.199219 222.964844 140.847656 C 223.328125 140.503906 223.46875 140.097656 223.386719 139.628906 Z M 224.199219 139.488281 C 224.332031 140.246094 224.160156 140.894531 223.683594 141.425781 C 223.214844 141.957031 222.488281 142.304688 221.511719 142.472656 C 220.550781 142.636719 219.753906 142.550781 219.121094 142.207031 C 218.496094 141.871094 218.113281 141.324219 217.980469 140.566406 C 217.84375 139.792969 218.015625 139.144531 218.496094 138.613281 C 218.984375 138.082031 219.707031 137.730469 220.667969 137.566406 C 221.644531 137.402344 222.441406 137.484375 223.058594 137.816406 C 223.683594 138.160156 224.0625 138.714844 224.199219 139.488281 Z M 222.273438 146.335938 C 222.136719 145.625 221.949219 145.152344 221.710938 144.914063 C 221.480469 144.683594 221.152344 144.609375 220.726563 144.695313 C 220.390625 144.757813 220.136719 144.90625 219.960938 145.148438 C 219.792969 145.398438 219.742188 145.695313 219.804688 146.039063 C 219.898438 146.527344 220.164063 146.882813 220.601563 147.101563 C 221.046875 147.320313 221.585938 147.371094 222.210938 147.257813 L 222.445313 147.210938 Z M 222.992188 148.007813 L 219.617188 148.648438 L 219.460938 147.773438 L 220.351563 147.601563 C 219.953125 147.476563 219.640625 147.277344 219.414063 147.007813 C 219.183594 146.746094 219.03125 146.398438 218.960938 145.960938 C 218.855469 145.417969 218.9375 144.953125 219.210938 144.570313 C 219.492188 144.183594 219.917969 143.933594 220.492188 143.820313 C 221.15625 143.695313 221.695313 143.796875 222.101563 144.132813 C 222.515625 144.476563 222.804688 145.046875 222.960938 145.851563 L 223.195313 147.070313 L 223.289063 147.054688 C 223.734375 146.96875 224.054688 146.773438 224.242188 146.460938 C 224.4375 146.148438 224.492188 145.75 224.398438 145.273438 C 224.34375 144.96875 224.246094 144.679688 224.101563 144.398438 C 223.964844 144.125 223.796875 143.875 223.601563 143.648438 L 224.492188 143.476563 C 224.6875 143.765625 224.84375 144.054688 224.960938 144.335938 C 225.085938 144.625 225.179688 144.917969 225.242188 145.210938 C 225.375 145.980469 225.261719 146.59375 224.898438 147.054688 C 224.53125 147.523438 223.898438 147.839844 222.992188 148.007813 Z M 225.683594 152.972656 L 228.871094 152.332031 L 229.042969 153.207031 L 220.839844 154.847656 L 220.667969 153.972656 L 221.558594 153.800781 C 221.171875 153.695313 220.863281 153.519531 220.636719 153.269531 C 220.40625 153.019531 220.253906 152.699219 220.183594 152.316406 C 220.046875 151.667969 220.222656 151.085938 220.714844 150.566406 C 221.203125 150.042969 221.910156 149.691406 222.839844 149.503906 C 223.777344 149.328125 224.5625 149.386719 225.199219 149.675781 C 225.84375 149.964844 226.234375 150.433594 226.371094 151.082031 C 226.441406 151.464844 226.421875 151.816406 226.308594 152.128906 C 226.203125 152.441406 225.996094 152.722656 225.683594 152.972656 Z M 223.011719 150.410156 C 222.300781 150.554688 221.769531 150.800781 221.417969 151.144531 C 221.0625 151.488281 220.933594 151.886719 221.027344 152.347656 C 221.121094 152.816406 221.394531 153.136719 221.855469 153.316406 C 222.3125 153.503906 222.894531 153.523438 223.605469 153.378906 C 224.324219 153.242188 224.855469 152.996094 225.199219 152.644531 C 225.550781 152.300781 225.683594 151.894531 225.589844 151.425781 C 225.496094 150.964844 225.21875 150.648438 224.761719 150.472656 C 224.3125 150.292969 223.730469 150.273438 223.011719 150.410156 Z M 223.011719 150.410156 "/>
<path style=" stroke:none;fill-rule:evenodd;fill:rgb(20%,20%,20%);fill-opacity:1;" d="M 221.816406 106.234375 L 220.769531 106.34375 C 220.925781 105.96875 221.035156 105.609375 221.097656 105.265625 C 221.160156 104.921875 221.175781 104.597656 221.144531 104.296875 C 221.089844 103.765625 220.933594 103.367188 220.675781 103.109375 C 220.425781 102.859375 220.089844 102.75 219.675781 102.78125 C 219.320313 102.820313 219.066406 102.941406 218.910156 103.140625 C 218.753906 103.335938 218.644531 103.710938 218.582031 104.265625 L 218.503906 104.859375 C 218.417969 105.597656 218.195313 106.15625 217.832031 106.53125 C 217.476563 106.914063 216.976563 107.140625 216.332031 107.203125 C 215.558594 107.285156 214.949219 107.113281 214.503906 106.6875 C 214.066406 106.257813 213.800781 105.59375 213.707031 104.6875 C 213.675781 104.34375 213.683594 103.972656 213.738281 103.578125 C 213.789063 103.191406 213.878906 102.789063 214.003906 102.375 L 215.113281 102.265625 C 214.902344 102.679688 214.753906 103.082031 214.660156 103.46875 C 214.574219 103.863281 214.550781 104.242188 214.582031 104.609375 C 214.632813 105.160156 214.792969 105.578125 215.066406 105.859375 C 215.347656 106.140625 215.707031 106.257813 216.144531 106.21875 C 216.539063 106.175781 216.835938 106.035156 217.035156 105.796875 C 217.242188 105.554688 217.378906 105.179688 217.441406 104.671875 L 217.519531 104.0625 C 217.601563 103.332031 217.800781 102.789063 218.113281 102.4375 C 218.425781 102.082031 218.882813 101.875 219.488281 101.8125 C 220.195313 101.738281 220.773438 101.90625 221.222656 102.3125 C 221.679688 102.71875 221.949219 103.316406 222.035156 104.109375 C 222.066406 104.453125 222.058594 104.800781 222.019531 105.15625 C 221.976563 105.507813 221.910156 105.867188 221.816406 106.234375 Z M 220.386719 112.234375 L 219.480469 112.3125 C 219.613281 112.050781 219.707031 111.789063 219.761719 111.53125 C 219.8125 111.269531 219.824219 111.007813 219.792969 110.75 C 219.738281 110.164063 219.496094 109.738281 219.058594 109.46875 C 218.628906 109.195313 218.046875 109.097656 217.308594 109.171875 C 216.578125 109.234375 216.027344 109.441406 215.652344 109.796875 C 215.285156 110.148438 215.128906 110.617188 215.183594 111.203125 C 215.214844 111.460938 215.277344 111.710938 215.371094 111.953125 C 215.464844 112.191406 215.597656 112.429688 215.777344 112.671875 L 214.871094 112.765625 C 214.714844 112.523438 214.589844 112.273438 214.496094 112.015625 C 214.410156 111.753906 214.359375 111.476563 214.339844 111.1875 C 214.253906 110.363281 214.472656 109.6875 214.996094 109.15625 C 215.515625 108.632813 216.253906 108.328125 217.214844 108.234375 C 218.191406 108.140625 218.984375 108.300781 219.589844 108.71875 C 220.191406 109.144531 220.535156 109.78125 220.621094 110.625 C 220.640625 110.894531 220.628906 111.164063 220.589844 111.4375 C 220.558594 111.71875 220.488281 111.984375 220.386719 112.234375 Z M 217.140625 113.996094 L 220.765625 113.652344 L 220.859375 114.527344 L 217.265625 114.871094 C 216.710938 114.921875 216.300781 115.0625 216.03125 115.292969 C 215.757813 115.519531 215.644531 115.832031 215.6875 116.230469 C 215.738281 116.71875 215.941406 117.082031 216.296875 117.324219 C 216.660156 117.5625 217.140625 117.65625 217.734375 117.605469 L 221.125 117.277344 L 221.203125 118.152344 L 215.21875 118.730469 L 215.140625 117.855469 L 216.0625 117.761719 C 215.675781 117.582031 215.378906 117.359375 215.171875 117.089844 C 214.960938 116.828125 214.84375 116.503906 214.8125 116.121094 C 214.75 115.503906 214.914063 115.015625 215.3125 114.652344 C 215.71875 114.296875 216.328125 114.078125 217.140625 113.996094 Z M 221.125 115.855469 Z M 223.1875 120.636719 L 221.5 120.824219 L 221.703125 122.652344 L 220.9375 122.746094 L 220.734375 120.917969 L 217.484375 121.277344 C 217.003906 121.328125 216.703125 121.421875 216.578125 121.558594 C 216.453125 121.691406 216.410156 121.949219 216.453125 122.324219 L 216.546875 123.230469 L 215.71875 123.324219 L 215.625 122.417969 C 215.539063 121.730469 215.628906 121.238281 215.890625 120.949219 C 216.148438 120.667969 216.648438 120.484375 217.390625 120.402344 L 220.640625 120.042969 L 220.5625 119.386719 L 221.328125 119.292969 L 221.40625 119.949219 L 223.09375 119.761719 Z M 223.636719 124.464844 L 221.933594 124.667969 L 222.136719 126.480469 L 221.386719 126.574219 L 221.183594 124.761719 L 217.933594 125.136719 C 217.441406 125.199219 217.136719 125.296875 217.011719 125.433594 C 216.886719 125.566406 216.847656 125.824219 216.902344 126.199219 L 216.996094 127.089844 L 216.167969 127.183594 L 216.074219 126.292969 C 215.988281 125.605469 216.074219 125.113281 216.324219 124.824219 C 216.582031 124.542969 217.082031 124.355469 217.824219 124.261719 L 221.074219 123.886719 L 220.996094 123.230469 L 221.746094 123.136719 L 221.824219 123.792969 L 223.527344 123.589844 Z M 220.960938 134.445313 C 220.90625 134.664063 220.765625 134.886719 220.539063 135.117188 C 220.320313 135.355469 219.996094 135.609375 219.570313 135.882813 L 217.570313 137.179688 L 217.414063 136.148438 L 219.320313 134.929688 C 219.808594 134.617188 220.121094 134.335938 220.257813 134.085938 C 220.402344 133.835938 220.449219 133.523438 220.398438 133.148438 L 220.242188 132.101563 L 216.882813 132.601563 L 216.726563 131.617188 L 224.648438 130.429688 L 224.976563 132.617188 C 225.101563 133.4375 225.007813 134.074219 224.695313 134.523438 C 224.382813 134.980469 223.839844 135.265625 223.070313 135.382813 C 222.570313 135.453125 222.136719 135.40625 221.773438 135.242188 C 221.417969 135.085938 221.148438 134.820313 220.960938 134.445313 Z M 223.929688 131.539063 L 221.117188 131.960938 L 221.289063 133.164063 C 221.359375 133.632813 221.53125 133.964844 221.804688 134.164063 C 222.074219 134.371094 222.445313 134.445313 222.914063 134.382813 C 223.371094 134.308594 223.699219 134.132813 223.898438 133.851563 C 224.105469 133.578125 224.171875 133.210938 224.101563 132.742188 Z M 223.386719 139.628906 C 223.300781 139.160156 223.03125 138.824219 222.574219 138.628906 C 222.113281 138.429688 221.53125 138.386719 220.824219 138.503906 C 220.113281 138.628906 219.578125 138.863281 219.214844 139.207031 C 218.859375 139.550781 218.722656 139.957031 218.808594 140.425781 C 218.890625 140.894531 219.15625 141.226563 219.605469 141.425781 C 220.0625 141.632813 220.644531 141.675781 221.355469 141.550781 C 222.0625 141.433594 222.597656 141.199219 222.964844 140.847656 C 223.328125 140.503906 223.46875 140.097656 223.386719 139.628906 Z M 224.199219 139.488281 C 224.332031 140.246094 224.160156 140.894531 223.683594 141.425781 C 223.214844 141.957031 222.488281 142.304688 221.511719 142.472656 C 220.550781 142.636719 219.753906 142.550781 219.121094 142.207031 C 218.496094 141.871094 218.113281 141.324219 217.980469 140.566406 C 217.84375 139.792969 218.015625 139.144531 218.496094 138.613281 C 218.984375 138.082031 219.707031 137.730469 220.667969 137.566406 C 221.644531 137.402344 222.441406 137.484375 223.058594 137.816406 C 223.683594 138.160156 224.0625 138.714844 224.199219 139.488281 Z M 222.273438 146.335938 C 222.136719 145.625 221.949219 145.152344 221.710938 144.914063 C 221.480469 144.683594 221.152344 144.609375 220.726563 144.695313 C 220.390625 144.757813 220.136719 144.90625 219.960938 145.148438 C 219.792969 145.398438 219.742188 145.695313 219.804688 146.039063 C 219.898438 146.527344 220.164063 146.882813 220.601563 147.101563 C 221.046875 147.320313 221.585938 147.371094 222.210938 147.257813 L 222.445313 147.210938 Z M 222.992188 148.007813 L 219.617188 148.648438 L 219.460938 147.773438 L 220.351563 147.601563 C 219.953125 147.476563 219.640625 147.277344 219.414063 147.007813 C 219.183594 146.746094 219.03125 146.398438 218.960938 145.960938 C 218.855469 145.417969 218.9375 144.953125 219.210938 144.570313 C 219.492188 144.183594 219.917969 143.933594 220.492188 143.820313 C 221.15625 143.695313 221.695313 143.796875 222.101563 144.132813 C 222.515625 144.476563 222.804688 145.046875 222.960938 145.851563 L 223.195313 147.070313 L 223.289063 147.054688 C 223.734375 146.96875 224.054688 146.773438 224.242188 146.460938 C 224.4375 146.148438 224.492188 145.75 224.398438 145.273438 C 224.34375 144.96875 224.246094 144.679688 224.101563 144.398438 C 223.964844 144.125 223.796875 143.875 223.601563 143.648438 L 224.492188 143.476563 C 224.6875 143.765625 224.84375 144.054688 224.960938 144.335938 C 225.085938 144.625 225.179688 144.917969 225.242188 145.210938 C 225.375 145.980469 225.261719 146.59375 224.898438 147.054688 C 224.53125 147.523438 223.898438 147.839844 222.992188 148.007813 Z M 225.683594 152.972656 L 228.871094 152.332031 L 229.042969 153.207031 L 220.839844 154.847656 L 220.667969 153.972656 L 221.558594 153.800781 C 221.171875 153.695313 220.863281 153.519531 220.636719 153.269531 C 220.40625 153.019531 220.253906 152.699219 220.183594 152.316406 C 220.046875 151.667969 220.222656 151.085938 220.714844 150.566406 C 221.203125 150.042969 221.910156 149.691406 222.839844 149.503906 C 223.777344 149.328125 224.5625 149.386719 225.199219 149.675781 C 225.84375 149.964844 226.234375 150.433594 226.371094 151.082031 C 226.441406 151.464844 226.421875 151.816406 226.308594 152.128906 C 226.203125 152.441406 225.996094 152.722656 225.683594 152.972656 Z M 223.011719 150.410156 C 222.300781 150.554688 221.769531 150.800781 221.417969 151.144531 C 221.0625 151.488281 220.933594 151.886719 221.027344 152.347656 C 221.121094 152.816406 221.394531 153.136719 221.855469 153.316406 C 222.3125 153.503906 222.894531 153.523438 223.605469 153.378906 C 224.324219 153.242188 224.855469 152.996094 225.199219 152.644531 C 225.550781 152.300781 225.683594 151.894531 225.589844 151.425781 C 225.496094 150.964844 225.21875 150.648438 224.761719 150.472656 C 224.3125 150.292969 223.730469 150.273438 223.011719 150.410156 Z M 223.011719 150.410156 "/>
</g>
</svg>

