<?xml version="1.0" encoding="UTF-8"?>
<svg xmlns="http://www.w3.org/2000/svg" xmlns:xlink="http://www.w3.org/1999/xlink" width="256pt" height="256pt" viewBox="0 0 256 256" version="1.1">
<g id="surface2">
<rect x="0" y="0" width="256" height="256" style="fill:rgb(60%,70.196078%,80%);fill-opacity:1;stroke:none;"/>
<path style=" stroke:none;fill-rule:evenodd;fill:rgb(94.901961%,93.72549%,91.372549%);fill-opacity:1;" d="M 48.628906 259 L 47.9375 258.34375 L 44.527344 256.222656 L 37.03125 256.40625 L 36.992188 256.390625 L 33.902344 254.785156 L 30.75 255.382813 L 27.742188 254.890625 L 22.492188 257.140625 L 23.027344 258.847656 L 25.304688 259 L -4 259 L -4 -4 L 64.652344 -4 L 64.652344 259 Z M 48.628906 259 "/>
<path style=" stroke:none;fill-rule:evenodd;fill:rgb(94.901961%,93.72549%,91.372549%);fill-opacity:1;" d="M 259 -4 L 259 56.109375 L 256.890625 59.605469 L 248.363281 70.050781 L 238.328125 88.125 L 237.636719 99.839844 L 242.640625 105.4375 L 244.765625 107.25 L 246.261719 107.332031 L 247.078125 107.375 L 249.457031 106.375 L 252.453125 104.875 L 254.519531 103.859375 L 256.578125 103.8125 L 257.832031 101.4375 L 259 101.109375 L 259 92.953125 L 257.285156 91.382813 L 258.230469 89.589844 L 259 88.742188 L 259 196.753906 L 250.386719 217.613281 L 248 227.75 L 246.933594 238.859375 L 247.921875 259 L 259 259 L 48.628906 259 L 47.9375 258.34375 L 44.527344 256.222656 L 43.71875 256.242188 L 43.71875 -4 Z M 259 -4 "/>
</g>
</svg>

