<?xml version="1.0" encoding="UTF-8"?>
<svg xmlns="http://www.w3.org/2000/svg" xmlns:xlink="http://www.w3.org/1999/xlink" width="256pt" height="256pt" viewBox="0 0 256 256" version="1.1">
<g id="surface2">
<rect x="0" y="0" width="256" height="256" style="fill:rgb(94.901961%,93.72549%,91.372549%);fill-opacity:1;stroke:none;"/>
<path style=" stroke:none;fill-rule:evenodd;fill:rgb(79.607843%,84.705882%,76.470588%);fill-opacity:1;" d="M -4 260 L -4 109.84375 L 2.890625 83.425781 L -0.726563 62.128906 L 3.84375 49.898438 L 4.734375 25.523438 L 15.738281 3.507813 L 16.929688 -4 L 260 -4 L -4 -4 Z M -4 260 "/>
<path style=" stroke:none;fill-rule:evenodd;fill:rgb(70.980392%,82.352941%,61.176471%);fill-opacity:1;" d="M -4 260 L -4 109.84375 L 2.890625 83.425781 L -0.726563 62.128906 L 3.84375 49.898438 L 4.734375 25.523438 L 15.738281 3.507813 L 16.929688 -4 L 260 -4 L -4 -4 Z M -4 260 "/>
<path style=" stroke:none;fill-rule:evenodd;fill:rgb(60%,70.196078%,80%);fill-opacity:1;" d="M -4 259 L 259 259 L 259 -4 L 16.929688 -4 L 15.738281 3.507813 L 4.734375 25.523438 L 3.84375 49.898438 L -0.726563 62.128906 L 2.890625 83.425781 L -4 109.84375 Z M -4 259 "/>
<path style="fill:none;stroke-width:1;stroke-linecap:round;stroke-linejoin:round;stroke:rgb(70.196078%,77.647059%,83.137255%);stroke-opacity:1;stroke-miterlimit:10;" d="M -4 259 L 259 259 L 259 -4 L 16.929688 -4 L 15.738281 3.507813 L 4.734375 25.523438 L 3.84375 49.898438 L -0.726563 62.128906 L 2.890625 83.425781 L -4 109.84375 L -4 259 "/>
<path style="fill:none;stroke-width:6;stroke-linecap:round;stroke-linejoin:round;stroke:rgb(60%,70.196078%,80%);stroke-opacity:1;stroke-miterlimit:10;" d="M 179.226563 173.296875 L 147.648438 262 "/>
<path style="fill:none;stroke-width:6;stroke-linecap:round;stroke-linejoin:round;stroke:rgb(60%,70.196078%,80%);stroke-opacity:1;stroke-miterlimit:10;" d="M 227.484375 -7 L 179.226563 173.296875 "/>
<path style="fill:none;stroke-width:3;stroke-linecap:round;stroke-linejoin:round;stroke:rgb(100%,100%,100%);stroke-opacity:1;stroke-miterlimit:10;" d="M 189.046875 118.675781 L 189.34375 117.566406 L 193.09375 118.566406 L 194.1875 114.503906 L 190.4375 113.503906 L 190.734375 112.394531 L 199.890625 114.847656 L 199.59375 115.957031 L 195.234375 114.785156 L 194.140625 118.847656 L 198.5 120.019531 L 198.203125 121.128906 Z M 197.726563 112.039063 L 193.570313 110.929688 L 193.835938 109.914063 L 197.960938 111.023438 C 198.609375 111.191406 199.128906 111.207031 199.523438 111.070313 C 199.910156 110.9375 200.160156 110.644531 200.273438 110.195313 C 200.417969 109.632813 200.339844 109.144531 200.039063 108.726563 C 199.738281 108.3125 199.253906 108.015625 198.585938 107.835938 L 194.679688 106.789063 L 194.945313 105.757813 L 201.820313 107.601563 L 201.554688 108.632813 L 200.492188 108.351563 C 200.84375 108.707031 201.078125 109.078125 201.195313 109.460938 C 201.320313 109.835938 201.324219 110.238281 201.210938 110.664063 C 201.011719 111.375 200.621094 111.847656 200.039063 112.085938 C 199.445313 112.316406 198.675781 112.300781 197.726563 112.039063 Z M 194.085938 108.351563 Z M 197.644531 99.886719 L 193.925781 98.902344 L 194.191406 97.886719 L 203.738281 100.433594 L 203.472656 101.449219 L 202.441406 101.167969 C 202.785156 101.492188 203.011719 101.847656 203.128906 102.230469 C 203.253906 102.605469 203.253906 103.019531 203.128906 103.464844 C 202.929688 104.226563 202.433594 104.753906 201.644531 105.042969 C 200.855469 105.324219 199.921875 105.320313 198.847656 105.027344 C 197.765625 104.746094 196.957031 104.289063 196.425781 103.652344 C 195.886719 103.007813 195.714844 102.304688 195.910156 101.542969 C 196.035156 101.097656 196.238281 100.738281 196.519531 100.464844 C 196.800781 100.183594 197.175781 99.992188 197.644531 99.886719 Z M 199.128906 103.980469 C 199.953125 104.210938 200.640625 104.238281 201.191406 104.058594 C 201.746094 103.871094 202.09375 103.511719 202.238281 102.980469 C 202.382813 102.429688 202.261719 101.941406 201.878906 101.511719 C 201.484375 101.085938 200.875 100.757813 200.050781 100.527344 C 199.21875 100.308594 198.527344 100.289063 197.972656 100.464844 C 197.421875 100.644531 197.074219 101.007813 196.925781 101.558594 C 196.78125 102.089844 196.90625 102.574219 197.300781 103.011719 C 197.6875 103.441406 198.296875 103.761719 199.128906 103.980469 Z M 198.691406 92.605469 L 199.769531 92.886719 C 199.519531 93.136719 199.316406 93.410156 199.160156 93.699219 C 199.003906 93.980469 198.878906 94.289063 198.785156 94.621094 C 198.652344 95.121094 198.636719 95.527344 198.738281 95.839844 C 198.84375 96.144531 199.0625 96.335938 199.394531 96.417969 C 199.667969 96.492188 199.902344 96.457031 200.097656 96.308594 C 200.285156 96.164063 200.519531 95.835938 200.800781 95.324219 L 200.988281 95.027344 C 201.355469 94.339844 201.734375 93.886719 202.128906 93.667969 C 202.515625 93.449219 202.984375 93.414063 203.535156 93.558594 C 204.179688 93.738281 204.628906 94.101563 204.878906 94.652344 C 205.136719 95.207031 205.164063 95.878906 204.957031 96.667969 C 204.863281 96.992188 204.730469 97.324219 204.566406 97.667969 C 204.398438 98.011719 204.191406 98.363281 203.941406 98.714844 L 202.769531 98.402344 C 203.082031 98.089844 203.34375 97.769531 203.550781 97.433594 C 203.761719 97.101563 203.910156 96.753906 204.003906 96.386719 C 204.128906 95.917969 204.132813 95.535156 204.019531 95.230469 C 203.90625 94.929688 203.683594 94.730469 203.347656 94.636719 C 203.046875 94.554688 202.792969 94.585938 202.582031 94.730469 C 202.363281 94.867188 202.097656 95.226563 201.785156 95.808594 L 201.597656 96.136719 C 201.277344 96.722656 200.925781 97.117188 200.550781 97.324219 C 200.167969 97.523438 199.707031 97.550781 199.175781 97.402344 C 198.53125 97.238281 198.09375 96.898438 197.863281 96.386719 C 197.625 95.878906 197.605469 95.246094 197.800781 94.496094 C 197.90625 94.121094 198.03125 93.777344 198.175781 93.464844 C 198.324219 93.144531 198.496094 92.855469 198.691406 92.605469 Z M 200.4375 88.4375 C 200.292969 88.980469 200.417969 89.476563 200.8125 89.921875 C 201.199219 90.359375 201.804688 90.6875 202.625 90.90625 C 203.449219 91.136719 204.136719 91.15625 204.6875 90.96875 C 205.242188 90.773438 205.589844 90.402344 205.734375 89.859375 C 205.878906 89.320313 205.757813 88.824219 205.375 88.375 C 204.980469 87.929688 204.375 87.59375 203.5625 87.375 C 202.742188 87.15625 202.054688 87.148438 201.5 87.34375 C 200.9375 87.53125 200.585938 87.898438 200.4375 88.4375 Z M 199.484375 88.1875 C 199.726563 87.304688 200.234375 86.695313 201.015625 86.359375 C 201.789063 86.015625 202.734375 85.996094 203.859375 86.296875 C 204.984375 86.601563 205.796875 87.089844 206.296875 87.765625 C 206.804688 88.445313 206.941406 89.226563 206.703125 90.109375 C 206.460938 90.996094 205.957031 91.605469 205.1875 91.9375 C 204.417969 92.261719 203.46875 92.273438 202.34375 91.96875 C 201.21875 91.667969 200.402344 91.183594 199.890625 90.515625 C 199.382813 89.851563 199.246094 89.074219 199.484375 88.1875 Z M 204.945313 79.292969 L 209.101563 80.402344 L 208.835938 81.417969 L 204.726563 80.324219 C 204.070313 80.148438 203.554688 80.132813 203.179688 80.277344 C 202.796875 80.414063 202.539063 80.710938 202.414063 81.167969 C 202.269531 81.710938 202.347656 82.195313 202.648438 82.621094 C 202.953125 83.039063 203.441406 83.339844 204.117188 83.527344 L 207.992188 84.558594 L 207.726563 85.574219 L 200.851563 83.730469 L 201.117188 82.714844 L 202.195313 83.011719 C 201.84375 82.648438 201.609375 82.277344 201.492188 81.902344 C 201.378906 81.527344 201.378906 81.121094 201.492188 80.683594 C 201.679688 79.976563 202.070313 79.507813 202.664063 79.277344 C 203.25 79.039063 204.007813 79.042969 204.945313 79.292969 Z M 207.386719 69.6875 C 207.535156 69.46875 207.785156 69.289063 208.136719 69.140625 C 208.492188 68.996094 208.960938 68.871094 209.542969 68.765625 L 212.339844 68.3125 L 212.011719 69.515625 L 209.371094 69.953125 C 208.695313 70.046875 208.226563 70.199219 207.964844 70.40625 C 207.695313 70.605469 207.503906 70.929688 207.386719 71.375 L 207.058594 72.59375 L 210.917969 73.625 L 210.621094 74.734375 L 201.464844 72.28125 L 202.136719 69.765625 C 202.386719 68.820313 202.792969 68.171875 203.355469 67.828125 C 203.917969 67.484375 204.644531 67.429688 205.527344 67.65625 C 206.101563 67.8125 206.550781 68.070313 206.871094 68.421875 C 207.183594 68.765625 207.355469 69.1875 207.386719 69.6875 Z M 202.777344 71.453125 L 206.027344 72.3125 L 206.402344 70.90625 C 206.550781 70.367188 206.523438 69.921875 206.324219 69.578125 C 206.117188 69.234375 205.746094 68.992188 205.214844 68.84375 C 204.675781 68.710938 204.230469 68.742188 203.886719 68.9375 C 203.542969 69.136719 203.300781 69.507813 203.152344 70.046875 Z M 205.832031 65.070313 L 206.113281 64.070313 L 212.988281 65.914063 L 212.707031 66.914063 Z M 203.160156 64.367188 L 203.441406 63.367188 L 204.878906 63.742188 L 204.597656 64.742188 Z M 206.484375 62.683594 L 206.765625 61.605469 L 213.046875 61.230469 L 207.796875 57.746094 L 208.09375 56.652344 L 214.34375 60.824219 L 213.984375 62.199219 Z M 213.039063 50.808594 L 213.585938 50.964844 L 212.335938 55.652344 C 213.128906 55.808594 213.78125 55.753906 214.289063 55.480469 C 214.789063 55.210938 215.132813 54.742188 215.320313 54.074219 C 215.421875 53.679688 215.464844 53.289063 215.445313 52.902344 C 215.433594 52.507813 215.375 52.101563 215.273438 51.683594 L 216.351563 51.964844 C 216.414063 52.371094 216.4375 52.777344 216.429688 53.183594 C 216.429688 53.589844 216.375 53.992188 216.273438 54.386719 C 216 55.367188 215.46875 56.058594 214.679688 56.464844 C 213.890625 56.871094 212.953125 56.929688 211.867188 56.636719 C 210.734375 56.335938 209.910156 55.824219 209.398438 55.105469 C 208.890625 54.386719 208.757813 53.566406 209.007813 52.636719 C 209.226563 51.804688 209.703125 51.226563 210.429688 50.902344 C 211.148438 50.570313 212.019531 50.539063 213.039063 50.808594 Z M 212.429688 51.761719 C 211.816406 51.597656 211.285156 51.617188 210.835938 51.824219 C 210.390625 52.023438 210.097656 52.371094 209.960938 52.871094 C 209.804688 53.445313 209.863281 53.949219 210.132813 54.386719 C 210.394531 54.816406 210.835938 55.144531 211.460938 55.371094 Z M 212.355469 44.992188 C 212.253906 45.097656 212.167969 45.210938 212.105469 45.335938 C 212.035156 45.460938 211.976563 45.609375 211.933594 45.773438 C 211.777344 46.347656 211.867188 46.84375 212.199219 47.257813 C 212.523438 47.675781 213.070313 47.988281 213.839844 48.195313 L 217.464844 49.164063 L 217.199219 50.179688 L 210.324219 48.335938 L 210.589844 47.320313 L 211.667969 47.617188 C 211.304688 47.285156 211.070313 46.925781 210.964844 46.539063 C 210.851563 46.144531 210.863281 45.703125 210.996094 45.210938 C 211.007813 45.148438 211.035156 45.078125 211.074219 44.992188 C 211.105469 44.898438 211.148438 44.800781 211.199219 44.695313 Z M 212.355469 44.992188 "/>
<path style=" stroke:none;fill-rule:evenodd;fill:rgb(41.960784%,58.039216%,69.019608%);fill-opacity:1;" d="M 189.046875 118.675781 L 189.34375 117.566406 L 193.09375 118.566406 L 194.1875 114.503906 L 190.4375 113.503906 L 190.734375 112.394531 L 199.890625 114.847656 L 199.59375 115.957031 L 195.234375 114.785156 L 194.140625 118.847656 L 198.5 120.019531 L 198.203125 121.128906 Z M 197.726563 112.039063 L 193.570313 110.929688 L 193.835938 109.914063 L 197.960938 111.023438 C 198.609375 111.191406 199.128906 111.207031 199.523438 111.070313 C 199.910156 110.9375 200.160156 110.644531 200.273438 110.195313 C 200.417969 109.632813 200.339844 109.144531 200.039063 108.726563 C 199.738281 108.3125 199.253906 108.015625 198.585938 107.835938 L 194.679688 106.789063 L 194.945313 105.757813 L 201.820313 107.601563 L 201.554688 108.632813 L 200.492188 108.351563 C 200.84375 108.707031 201.078125 109.078125 201.195313 109.460938 C 201.320313 109.835938 201.324219 110.238281 201.210938 110.664063 C 201.011719 111.375 200.621094 111.847656 200.039063 112.085938 C 199.445313 112.316406 198.675781 112.300781 197.726563 112.039063 Z M 194.085938 108.351563 Z M 197.644531 99.886719 L 193.925781 98.902344 L 194.191406 97.886719 L 203.738281 100.433594 L 203.472656 101.449219 L 202.441406 101.167969 C 202.785156 101.492188 203.011719 101.847656 203.128906 102.230469 C 203.253906 102.605469 203.253906 103.019531 203.128906 103.464844 C 202.929688 104.226563 202.433594 104.753906 201.644531 105.042969 C 200.855469 105.324219 199.921875 105.320313 198.847656 105.027344 C 197.765625 104.746094 196.957031 104.289063 196.425781 103.652344 C 195.886719 103.007813 195.714844 102.304688 195.910156 101.542969 C 196.035156 101.097656 196.238281 100.738281 196.519531 100.464844 C 196.800781 100.183594 197.175781 99.992188 197.644531 99.886719 Z M 199.128906 103.980469 C 199.953125 104.210938 200.640625 104.238281 201.191406 104.058594 C 201.746094 103.871094 202.09375 103.511719 202.238281 102.980469 C 202.382813 102.429688 202.261719 101.941406 201.878906 101.511719 C 201.484375 101.085938 200.875 100.757813 200.050781 100.527344 C 199.21875 100.308594 198.527344 100.289063 197.972656 100.464844 C 197.421875 100.644531 197.074219 101.007813 196.925781 101.558594 C 196.78125 102.089844 196.90625 102.574219 197.300781 103.011719 C 197.6875 103.441406 198.296875 103.761719 199.128906 103.980469 Z M 198.691406 92.605469 L 199.769531 92.886719 C 199.519531 93.136719 199.316406 93.410156 199.160156 93.699219 C 199.003906 93.980469 198.878906 94.289063 198.785156 94.621094 C 198.652344 95.121094 198.636719 95.527344 198.738281 95.839844 C 198.84375 96.144531 199.0625 96.335938 199.394531 96.417969 C 199.667969 96.492188 199.902344 96.457031 200.097656 96.308594 C 200.285156 96.164063 200.519531 95.835938 200.800781 95.324219 L 200.988281 95.027344 C 201.355469 94.339844 201.734375 93.886719 202.128906 93.667969 C 202.515625 93.449219 202.984375 93.414063 203.535156 93.558594 C 204.179688 93.738281 204.628906 94.101563 204.878906 94.652344 C 205.136719 95.207031 205.164063 95.878906 204.957031 96.667969 C 204.863281 96.992188 204.730469 97.324219 204.566406 97.667969 C 204.398438 98.011719 204.191406 98.363281 203.941406 98.714844 L 202.769531 98.402344 C 203.082031 98.089844 203.34375 97.769531 203.550781 97.433594 C 203.761719 97.101563 203.910156 96.753906 204.003906 96.386719 C 204.128906 95.917969 204.132813 95.535156 204.019531 95.230469 C 203.90625 94.929688 203.683594 94.730469 203.347656 94.636719 C 203.046875 94.554688 202.792969 94.585938 202.582031 94.730469 C 202.363281 94.867188 202.097656 95.226563 201.785156 95.808594 L 201.597656 96.136719 C 201.277344 96.722656 200.925781 97.117188 200.550781 97.324219 C 200.167969 97.523438 199.707031 97.550781 199.175781 97.402344 C 198.53125 97.238281 198.09375 96.898438 197.863281 96.386719 C 197.625 95.878906 197.605469 95.246094 197.800781 94.496094 C 197.90625 94.121094 198.03125 93.777344 198.175781 93.464844 C 198.324219 93.144531 198.496094 92.855469 198.691406 92.605469 Z M 200.4375 88.4375 C 200.292969 88.980469 200.417969 89.476563 200.8125 89.921875 C 201.199219 90.359375 201.804688 90.6875 202.625 90.90625 C 203.449219 91.136719 204.136719 91.15625 204.6875 90.96875 C 205.242188 90.773438 205.589844 90.402344 205.734375 89.859375 C 205.878906 89.320313 205.757813 88.824219 205.375 88.375 C 204.980469 87.929688 204.375 87.59375 203.5625 87.375 C 202.742188 87.15625 202.054688 87.148438 201.5 87.34375 C 200.9375 87.53125 200.585938 87.898438 200.4375 88.4375 Z M 199.484375 88.1875 C 199.726563 87.304688 200.234375 86.695313 201.015625 86.359375 C 201.789063 86.015625 202.734375 85.996094 203.859375 86.296875 C 204.984375 86.601563 205.796875 87.089844 206.296875 87.765625 C 206.804688 88.445313 206.941406 89.226563 206.703125 90.109375 C 206.460938 90.996094 205.957031 91.605469 205.1875 91.9375 C 204.417969 92.261719 203.46875 92.273438 202.34375 91.96875 C 201.21875 91.667969 200.402344 91.183594 199.890625 90.515625 C 199.382813 89.851563 199.246094 89.074219 199.484375 88.1875 Z M 204.945313 79.292969 L 209.101563 80.402344 L 208.835938 81.417969 L 204.726563 80.324219 C 204.070313 80.148438 203.554688 80.132813 203.179688 80.277344 C 202.796875 80.414063 202.539063 80.710938 202.414063 81.167969 C 202.269531 81.710938 202.347656 82.195313 202.648438 82.621094 C 202.953125 83.039063 203.441406 83.339844 204.117188 83.527344 L 207.992188 84.558594 L 207.726563 85.574219 L 200.851563 83.730469 L 201.117188 82.714844 L 202.195313 83.011719 C 201.84375 82.648438 201.609375 82.277344 201.492188 81.902344 C 201.378906 81.527344 201.378906 81.121094 201.492188 80.683594 C 201.679688 79.976563 202.070313 79.507813 202.664063 79.277344 C 203.25 79.039063 204.007813 79.042969 204.945313 79.292969 Z M 207.386719 69.6875 C 207.535156 69.46875 207.785156 69.289063 208.136719 69.140625 C 208.492188 68.996094 208.960938 68.871094 209.542969 68.765625 L 212.339844 68.3125 L 212.011719 69.515625 L 209.371094 69.953125 C 208.695313 70.046875 208.226563 70.199219 207.964844 70.40625 C 207.695313 70.605469 207.503906 70.929688 207.386719 71.375 L 207.058594 72.59375 L 210.917969 73.625 L 210.621094 74.734375 L 201.464844 72.28125 L 202.136719 69.765625 C 202.386719 68.820313 202.792969 68.171875 203.355469 67.828125 C 203.917969 67.484375 204.644531 67.429688 205.527344 67.65625 C 206.101563 67.8125 206.550781 68.070313 206.871094 68.421875 C 207.183594 68.765625 207.355469 69.1875 207.386719 69.6875 Z M 202.777344 71.453125 L 206.027344 72.3125 L 206.402344 70.90625 C 206.550781 70.367188 206.523438 69.921875 206.324219 69.578125 C 206.117188 69.234375 205.746094 68.992188 205.214844 68.84375 C 204.675781 68.710938 204.230469 68.742188 203.886719 68.9375 C 203.542969 69.136719 203.300781 69.507813 203.152344 70.046875 Z M 205.832031 65.070313 L 206.113281 64.070313 L 212.988281 65.914063 L 212.707031 66.914063 Z M 203.160156 64.367188 L 203.441406 63.367188 L 204.878906 63.742188 L 204.597656 64.742188 Z M 206.484375 62.683594 L 206.765625 61.605469 L 213.046875 61.230469 L 207.796875 57.746094 L 208.09375 56.652344 L 214.34375 60.824219 L 213.984375 62.199219 Z M 213.039063 50.808594 L 213.585938 50.964844 L 212.335938 55.652344 C 213.128906 55.808594 213.78125 55.753906 214.289063 55.480469 C 214.789063 55.210938 215.132813 54.742188 215.320313 54.074219 C 215.421875 53.679688 215.464844 53.289063 215.445313 52.902344 C 215.433594 52.507813 215.375 52.101563 215.273438 51.683594 L 216.351563 51.964844 C 216.414063 52.371094 216.4375 52.777344 216.429688 53.183594 C 216.429688 53.589844 216.375 53.992188 216.273438 54.386719 C 216 55.367188 215.46875 56.058594 214.679688 56.464844 C 213.890625 56.871094 212.953125 56.929688 211.867188 56.636719 C 210.734375 56.335938 209.910156 55.824219 209.398438 55.105469 C 208.890625 54.386719 208.757813 53.566406 209.007813 52.636719 C 209.226563 51.804688 209.703125 51.226563 210.429688 50.902344 C 211.148438 50.570313 212.019531 50.539063 213.039063 50.808594 Z M 212.429688 51.761719 C 211.816406 51.597656 211.285156 51.617188 210.835938 51.824219 C 210.390625 52.023438 210.097656 52.371094 209.960938 52.871094 C 209.804688 53.445313 209.863281 53.949219 210.132813 54.386719 C 210.394531 54.816406 210.835938 55.144531 211.460938 55.371094 Z M 212.355469 44.992188 C 212.253906 45.097656 212.167969 45.210938 212.105469 45.335938 C 212.035156 45.460938 211.976563 45.609375 211.933594 45.773438 C 211.777344 46.347656 211.867188 46.84375 212.199219 47.257813 C 212.523438 47.675781 213.070313 47.988281 213.839844 48.195313 L 217.464844 49.164063 L 217.199219 50.179688 L 210.324219 48.335938 L 210.589844 47.320313 L 211.667969 47.617188 C 211.304688 47.285156 211.070313 46.925781 210.964844 46.539063 C 210.851563 46.144531 210.863281 45.703125 210.996094 45.210938 C 211.007813 45.148438 211.035156 45.078125 211.074219 44.992188 C 211.105469 44.898438 211.148438 44.800781 211.199219 44.695313 Z M 212.355469 44.992188 "/>
</g>
</svg>

