<?xml version="1.0" encoding="UTF-8"?>
<svg xmlns="http://www.w3.org/2000/svg" xmlns:xlink="http://www.w3.org/1999/xlink" width="256pt" height="256pt" viewBox="0 0 256 256" version="1.1">
<g id="surface2">
<rect x="0" y="0" width="256" height="256" style="fill:rgb(60%,70.196078%,80%);fill-opacity:1;stroke:none;"/>
<path style=" stroke:none;fill-rule:evenodd;fill:rgb(94.901961%,93.72549%,91.372549%);fill-opacity:1;" d="M 259 259 L 259 106.914063 L 255.636719 105.855469 L 245.15625 102.890625 L 236.933594 100.789063 L 228.421875 98.796875 L 222.835938 97.707031 L 216.328125 96.425781 L 210.464844 95.300781 L 205.691406 94.738281 L 201.664063 94.300781 L 197.710938 94.140625 L 193.273438 94.230469 L 189.136719 94.589844 L 185.527344 94.972656 L 181.84375 95.542969 L 178.929688 96.085938 L 176.007813 96.6875 L 175.558594 97.414063 L 156.769531 91.667969 L 157.085938 90.953125 L 151.085938 83.953125 L 142.085938 76.753906 L 133.085938 70.550781 L 121.085938 65.152344 L 106.683594 61.351563 L 27.285156 47.550781 L -4 42.511719 L -4 -4 L 259 -4 Z M 259 259 "/>
<path style=" stroke:none;fill-rule:evenodd;fill:rgb(70.980392%,82.352941%,61.176471%);fill-opacity:1;" d="M -4 44.6875 L 26.125 49.539063 L 105.523438 63.335938 L 119.925781 67.136719 L 131.925781 72.539063 L 140.925781 78.738281 L 149.925781 85.9375 L 155.925781 92.9375 L 174.398438 99.398438 L 177.769531 98.070313 L 180.683594 97.527344 L 184.367188 96.960938 L 187.976563 96.574219 L 192.113281 96.214844 L 196.550781 96.128906 L 200.503906 96.285156 L 204.53125 96.726563 L 209.304688 97.289063 L 215.167969 98.410156 L 221.675781 99.695313 L 227.261719 100.785156 L 235.773438 102.773438 L 243.996094 104.878906 L 254.476563 107.84375 L 260 109.582031 L 260 260 L 260 100.019531 L 213.417969 85.242188 L 194.308594 86.328125 L 181.96875 89.730469 L 176.972656 91.105469 L 171.253906 90.601563 L 163.871094 88.425781 L 157.71875 83.941406 L 151.566406 73.082031 L 151.710938 64.902344 L 152.871094 59.109375 L 139.621094 54.335938 L 139.777344 53.222656 L 108.488281 40.464844 L 95.195313 34.851563 L 82.792969 30.855469 L 75.257813 28.9375 L 68.0625 27.554688 L 58.085938 26.921875 L 47.257813 27.203125 L 47.316406 30.523438 L 24.789063 31.039063 L 24.566406 27.664063 L 7.238281 27.933594 L -4 29.160156 Z M -4 44.6875 "/>
<path style=" stroke:none;fill-rule:evenodd;fill:rgb(70.980392%,82.352941%,61.176471%);fill-opacity:1;" d="M 121.652344 -4 L 121.480469 -3.550781 L 112.085938 21.230469 L 108.570313 30.726563 L 114.058594 33.914063 L 121.027344 36.695313 L 128.191406 38.769531 L 131.160156 39.179688 L 135.792969 39.824219 L 143.195313 40.222656 L 149.605469 39.875 L 158.195313 38.625 L 163.652344 37.132813 L 164.792969 36.824219 L 170.71875 34.777344 L 175.851563 32.378906 L 176.796875 32.011719 L 185.652344 26.980469 L 190.046875 23.542969 L 195.511719 19.214844 L 199.320313 14.289063 L 213.957031 -4 Z M 121.652344 -4 "/>
<path style=" stroke:none;fill-rule:evenodd;fill:rgb(87.058824%,81.960784%,67.058824%);fill-opacity:1;" d="M 130.878906 26.09375 L 133.433594 26.921875 L 141.535156 29.554688 L 151.460938 30.324219 L 157.300781 29.746094 L 161.238281 28.207031 L 164.886719 26.863281 L 169.703125 24.367188 L 173.207031 21.097656 L 177.148438 16.097656 L 179.484375 11.097656 L 181.675781 5.90625 L 182.695313 1.292969 L 183.425781 -3.128906 L 183.328125 -4 L 127.039063 -4 L 118.035156 21.671875 Z M 130.878906 26.09375 "/>
<path style=" stroke:none;fill-rule:evenodd;fill:rgb(70.980392%,82.352941%,61.176471%);fill-opacity:1;" d="M 45.101563 15.644531 L 55.640625 15.585938 L 66.414063 16.699219 L 74.535156 18.5625 L 83.195313 20.996094 L 108.570313 30.726563 L 112.085938 21.230469 L 121.480469 -3.550781 L 120.136719 -4 L 55.605469 -4 L 53.757813 -1.457031 L 50.699219 1.304688 L 36.5625 15.382813 Z M 45.101563 15.644531 "/>
<path style=" stroke:none;fill-rule:evenodd;fill:rgb(94.901961%,93.72549%,91.372549%);fill-opacity:1;" d="M 212.621094 45.90625 L 214.914063 46.679688 L 218.203125 47.796875 L 221.617188 48.957031 L 224.347656 49.886719 L 227.144531 50.832031 L 228.15625 51.175781 L 260 10.5625 L 260 -4 L 243.261719 -4 L 205.835938 43.601563 Z M 212.621094 45.90625 "/>
<path style="fill:none;stroke-width:1;stroke-linecap:round;stroke-linejoin:round;stroke:rgb(89.019608%,87.058824%,83.137255%);stroke-opacity:1;stroke-miterlimit:10;" d="M 212.621094 45.90625 L 214.914063 46.679688 L 218.203125 47.796875 L 221.617188 48.957031 L 224.347656 49.886719 L 227.144531 50.832031 L 228.15625 51.175781 L 260 10.5625 L 260 -4 L 243.261719 -4 L 205.835938 43.601563 L 212.621094 45.90625 "/>
<path style=" stroke:none;fill-rule:evenodd;fill:rgb(94.901961%,93.72549%,91.372549%);fill-opacity:1;" d="M 250.207031 58.320313 L 253.191406 59.296875 L 258.25 60.957031 L 260 61.480469 L 260 44.289063 L 249.097656 57.957031 Z M 250.207031 58.320313 "/>
<path style="fill:none;stroke-width:1;stroke-linecap:round;stroke-linejoin:round;stroke:rgb(89.019608%,87.058824%,83.137255%);stroke-opacity:1;stroke-miterlimit:10;" d="M 250.207031 58.320313 L 253.191406 59.296875 L 258.25 60.957031 L 260 61.480469 L 260 44.289063 L 249.097656 57.957031 L 250.207031 58.320313 "/>
<path style=" stroke:none;fill-rule:evenodd;fill:rgb(94.901961%,93.72549%,91.372549%);fill-opacity:1;" d="M 198.800781 64.121094 L 203.34375 65.695313 L 205.597656 66.476563 L 207.859375 67.28125 L 211.117188 68.441406 L 213.976563 69.457031 L 216.945313 70.511719 L 217.890625 70.851563 L 219.964844 71.535156 L 222.671875 72.433594 L 225.816406 73.472656 L 227.75 74.113281 L 229.488281 74.6875 L 231.425781 75.34375 L 234.566406 76.414063 L 237.320313 77.355469 L 240.257813 78.359375 L 243.136719 79.34375 L 244.445313 79.789063 L 246.296875 80.320313 L 250.078125 81.394531 L 260 84.222656 L 260 61.480469 L 258.25 60.957031 L 253.191406 59.296875 L 250.207031 58.320313 L 249.097656 57.957031 L 247.386719 57.398438 L 244.546875 56.46875 L 241.671875 55.53125 L 238.636719 54.539063 L 236.605469 53.875 L 235.035156 53.40625 L 233.050781 52.785156 L 229.925781 51.71875 L 228.15625 51.175781 L 227.144531 50.832031 L 224.347656 49.886719 L 221.617188 48.957031 L 218.203125 47.796875 L 214.914063 46.679688 L 212.621094 45.90625 L 205.835938 43.601563 L 203.535156 46.484375 L 202.269531 48.074219 L 200.601563 50.167969 L 198.664063 52.59375 L 197.917969 53.53125 L 193.8125 58.683594 L 191.476563 61.683594 Z M 198.800781 64.121094 "/>
<path style="fill:none;stroke-width:1;stroke-linecap:round;stroke-linejoin:round;stroke:rgb(89.019608%,87.058824%,83.137255%);stroke-opacity:1;stroke-miterlimit:10;" d="M 198.800781 64.121094 L 203.34375 65.695313 L 205.597656 66.476563 L 207.859375 67.28125 L 211.117188 68.441406 L 213.976563 69.457031 L 216.945313 70.511719 L 217.890625 70.851563 L 219.964844 71.535156 L 222.671875 72.433594 L 225.816406 73.472656 L 227.75 74.113281 L 229.488281 74.6875 L 231.425781 75.34375 L 234.566406 76.414063 L 237.320313 77.355469 L 240.257813 78.359375 L 243.136719 79.34375 L 244.445313 79.789063 L 246.296875 80.320313 L 250.078125 81.394531 L 260 84.222656 L 260 61.480469 L 258.25 60.957031 L 253.191406 59.296875 L 250.207031 58.320313 L 249.097656 57.957031 L 247.386719 57.398438 L 244.546875 56.46875 L 241.671875 55.53125 L 238.636719 54.539063 L 236.605469 53.875 L 235.035156 53.40625 L 233.050781 52.785156 L 229.925781 51.71875 L 228.15625 51.175781 L 227.144531 50.832031 L 224.347656 49.886719 L 221.617188 48.957031 L 218.203125 47.796875 L 214.914063 46.679688 L 212.621094 45.90625 L 205.835938 43.601563 L 203.535156 46.484375 L 202.269531 48.074219 L 200.601563 50.167969 L 198.664063 52.59375 L 197.917969 53.53125 L 193.8125 58.683594 L 191.476563 61.683594 L 198.800781 64.121094 "/>
<path style=" stroke:none;fill-rule:evenodd;fill:rgb(70.980392%,82.352941%,61.176471%);fill-opacity:1;" d="M 223.113281 77.9375 L 243.308594 85.285156 L 260 91.113281 L 260 260 L 260 85.894531 L 252.972656 82.199219 L 248.917969 83.457031 L 245.136719 82.382813 L 243.285156 81.851563 L 241.976563 81.40625 L 239.097656 80.421875 L 236.160156 79.417969 L 233.40625 78.476563 L 230.265625 77.40625 L 228.863281 76.925781 L 227.394531 76.4375 L 224.65625 75.535156 L 221.511719 74.496094 L 218.804688 73.597656 L 216.730469 72.914063 L 215.785156 72.574219 L 212.816406 71.519531 L 209.957031 70.503906 L 206.699219 69.34375 L 204.90625 68.707031 Z M 223.113281 77.9375 "/>
<path style=" stroke:none;fill-rule:evenodd;fill:rgb(94.901961%,93.72549%,91.372549%);fill-opacity:1;" d="M 229.925781 51.71875 L 233.050781 52.785156 L 235.035156 53.40625 L 236.605469 53.875 L 238.636719 54.539063 L 241.671875 55.53125 L 244.546875 56.46875 L 247.386719 57.398438 L 249.097656 57.957031 L 260 44.289063 L 260 -4 L 260 10.5625 L 228.15625 51.175781 Z M 229.925781 51.71875 "/>
<path style="fill:none;stroke-width:1;stroke-linecap:round;stroke-linejoin:round;stroke:rgb(89.019608%,87.058824%,83.137255%);stroke-opacity:1;stroke-miterlimit:10;" d="M 229.925781 51.71875 L 233.050781 52.785156 L 235.035156 53.40625 L 236.605469 53.875 L 238.636719 54.539063 L 241.671875 55.53125 L 244.546875 56.46875 L 247.386719 57.398438 L 249.097656 57.957031 L 260 44.289063 L 260 -4 L 260 10.5625 L 228.15625 51.175781 L 229.925781 51.71875 "/>
<path style=" stroke:none;fill-rule:evenodd;fill:rgb(94.901961%,93.72549%,91.372549%);fill-opacity:1;" d="M 200.820313 15.453125 L 217.671875 28.351563 L 243.199219 -4 L 260 -4 L 213.957031 -4 L 199.320313 14.289063 Z M 200.820313 15.453125 "/>
<path style="fill:none;stroke-width:1;stroke-linecap:round;stroke-linejoin:round;stroke:rgb(89.019608%,87.058824%,83.137255%);stroke-opacity:1;stroke-miterlimit:10;" d="M 200.820313 15.453125 L 217.671875 28.351563 L 243.199219 -4 L 260 -4 L 213.957031 -4 L 199.320313 14.289063 L 200.820313 15.453125 "/>
<path style=" stroke:none;fill-rule:evenodd;fill:rgb(70.980392%,82.352941%,61.176471%);fill-opacity:1;" d="M 160.105469 54.011719 L 182.398438 63.640625 L 203.171875 71.382813 L 203.691406 70.335938 L 197.640625 66.039063 L 191.183594 62.472656 L 181.722656 54.175781 L 179.511719 51.933594 L 178.449219 49.859375 L 178.039063 47.8125 L 178.234375 44.941406 L 178.9375 42.296875 L 179.9375 40.578125 L 186.527344 28.714844 L 169.300781 40.839844 L 162.203125 49.238281 Z M 160.105469 54.011719 "/>
<path style=" stroke:none;fill-rule:evenodd;fill:rgb(87.058824%,81.960784%,67.058824%);fill-opacity:1;" d="M 196.742188 -4 L 204.371094 1.992188 L 209.183594 -4 Z M 196.742188 -4 "/>
<path style=" stroke:none;fill-rule:evenodd;fill:rgb(81.960784%,81.568627%,80.392157%);fill-opacity:1;" d="M 24.566406 27.664063 L 24.789063 31.039063 L 47.316406 30.523438 L 47.257813 27.203125 Z M 24.566406 27.664063 "/>
<path style="fill:none;stroke-width:1;stroke-linecap:round;stroke-linejoin:round;stroke:rgb(81.960784%,81.960784%,81.960784%);stroke-opacity:1;stroke-miterlimit:10;" d="M 24.566406 27.664063 L 24.789063 31.039063 L 47.316406 30.523438 L 47.257813 27.203125 L 24.566406 27.664063 "/>
<path style=" stroke:none;fill-rule:evenodd;fill:rgb(81.960784%,81.568627%,80.392157%);fill-opacity:1;" d="M 187.730469 44.132813 L 189.28125 45.453125 L 192.304688 41.625 L 190.925781 40.535156 L 189.472656 39.539063 Z M 187.730469 44.132813 "/>
<path style="fill:none;stroke-width:1;stroke-linecap:round;stroke-linejoin:round;stroke:rgb(81.960784%,81.960784%,81.960784%);stroke-opacity:1;stroke-miterlimit:10;" d="M 187.730469 44.132813 L 189.28125 45.453125 L 192.304688 41.625 L 190.925781 40.535156 L 189.472656 39.539063 L 187.730469 44.132813 "/>
<path style="fill:none;stroke-width:1;stroke-linecap:round;stroke-linejoin:round;stroke:rgb(100%,100%,100%);stroke-opacity:1;stroke-dasharray:2,3;stroke-miterlimit:10;" d="M 224.546875 64.695313 L 225.285156 64.976563 "/>
<path style="fill:none;stroke-width:1;stroke-linecap:round;stroke-linejoin:round;stroke:rgb(100%,100%,100%);stroke-opacity:1;stroke-dasharray:2,3;stroke-miterlimit:10;" d="M 240.070313 63.691406 L 239.058594 63.4375 "/>
<path style="fill:none;stroke-width:1;stroke-linecap:round;stroke-linejoin:round;stroke:rgb(100%,100%,100%);stroke-opacity:1;stroke-dasharray:2,3;stroke-miterlimit:10;" d="M 226.21875 59.382813 L 227.324219 59.8125 "/>
<path style="fill:none;stroke-width:1;stroke-linecap:round;stroke-linejoin:round;stroke:rgb(100%,100%,100%);stroke-opacity:1;stroke-dasharray:2,3;stroke-miterlimit:10;" d="M 238.21875 69.179688 L 237.09375 68.664063 "/>
<path style="fill:none;stroke-width:1;stroke-linecap:round;stroke-linejoin:round;stroke:rgb(100%,100%,100%);stroke-opacity:1;stroke-dasharray:2,3;stroke-miterlimit:10;" d="M 30.976563 0.820313 L 30.789063 -0.46875 L 30.300781 -0.574219 "/>
<path style="fill:none;stroke-width:1;stroke-linecap:round;stroke-linejoin:round;stroke:rgb(100%,100%,100%);stroke-opacity:1;stroke-dasharray:2,3;stroke-miterlimit:10;" d="M 35.546875 1.164063 L 35.199219 0.0820313 L 34.519531 -0.0234375 "/>
<path style="fill:none;stroke-width:1;stroke-linecap:round;stroke-linejoin:round;stroke:rgb(100%,100%,100%);stroke-opacity:1;stroke-dasharray:2,3;stroke-miterlimit:10;" d="M 39.523438 2.003906 L 38.699219 0.59375 "/>
<path style="fill:none;stroke-width:1;stroke-linecap:round;stroke-linejoin:round;stroke:rgb(100%,100%,100%);stroke-opacity:1;stroke-dasharray:2,3;stroke-miterlimit:10;" d="M 29.089844 0.453125 L 28.828125 -0.742188 L 28.191406 -0.824219 "/>
<path style="fill:none;stroke-width:1;stroke-linecap:round;stroke-linejoin:round;stroke:rgb(100%,100%,100%);stroke-opacity:1;stroke-dasharray:2,3;stroke-miterlimit:10;" d="M 24.894531 -0.0390625 L 24.621094 -1.273438 L 23.890625 -1.359375 "/>
<path style="fill:none;stroke-width:1;stroke-linecap:round;stroke-linejoin:round;stroke:rgb(100%,100%,100%);stroke-opacity:1;stroke-dasharray:2,3;stroke-miterlimit:10;" d="M 26.953125 0.488281 L 26.667969 -1 L 26.144531 -1.070313 "/>
<path style="fill:none;stroke-width:1;stroke-linecap:round;stroke-linejoin:round;stroke:rgb(100%,100%,100%);stroke-opacity:1;stroke-dasharray:2,3;stroke-miterlimit:10;" d="M 37.394531 1.777344 L 37.335938 0.421875 L 36.597656 0.179688 "/>
<path style="fill:none;stroke-width:1;stroke-linecap:round;stroke-linejoin:round;stroke:rgb(100%,100%,100%);stroke-opacity:1;stroke-dasharray:2,3;stroke-miterlimit:10;" d="M 33.070313 1.269531 L 33.207031 0.183594 L 32.3125 -0.289063 "/>
<path style="fill:none;stroke-width:1;stroke-linecap:round;stroke-linejoin:round;stroke:rgb(100%,100%,100%);stroke-opacity:1;stroke-dasharray:2,3;stroke-miterlimit:10;" d="M 205.582031 19.085938 L 203.605469 21.316406 "/>
<path style="fill:none;stroke-width:1;stroke-linecap:round;stroke-linejoin:round;stroke:rgb(100%,100%,100%);stroke-opacity:1;stroke-dasharray:2,3;stroke-miterlimit:10;" d="M 226.78125 70.625 L 225.816406 73.472656 "/>
<path style="fill:none;stroke-width:1;stroke-linecap:round;stroke-linejoin:round;stroke:rgb(100%,100%,100%);stroke-opacity:1;stroke-dasharray:2,3;stroke-miterlimit:10;" d="M 223.578125 69.5625 L 222.671875 72.433594 "/>
<path style="fill:none;stroke-width:1;stroke-linecap:round;stroke-linejoin:round;stroke:rgb(100%,100%,100%);stroke-opacity:1;stroke-dasharray:2,3;stroke-miterlimit:10;" d="M 207.144531 63.6875 L 206.066406 66.644531 "/>
<path style="fill:none;stroke-width:1;stroke-linecap:round;stroke-linejoin:round;stroke:rgb(100%,100%,100%);stroke-opacity:1;stroke-dasharray:2,3;stroke-miterlimit:10;" d="M 208.9375 64.296875 L 207.859375 67.28125 "/>
<path style="fill:none;stroke-width:1;stroke-linecap:round;stroke-linejoin:round;stroke:rgb(100%,100%,100%);stroke-opacity:1;stroke-dasharray:2,3;stroke-miterlimit:10;" d="M 232.414063 72.269531 L 231.425781 75.34375 "/>
<path style="fill:none;stroke-width:1;stroke-linecap:round;stroke-linejoin:round;stroke:rgb(100%,100%,100%);stroke-opacity:1;stroke-dasharray:2,3;stroke-miterlimit:10;" d="M 235.648438 73.273438 L 234.566406 76.414063 "/>
<path style="fill:none;stroke-width:1;stroke-linecap:round;stroke-linejoin:round;stroke:rgb(100%,100%,100%);stroke-opacity:1;stroke-dasharray:2,3;stroke-miterlimit:10;" d="M 251.019531 78.109375 L 250.078125 81.394531 "/>
<path style="fill:none;stroke-width:1;stroke-linecap:round;stroke-linejoin:round;stroke:rgb(100%,100%,100%);stroke-opacity:1;stroke-dasharray:2,3;stroke-miterlimit:10;" d="M 240.746094 58.828125 L 241.671875 55.53125 "/>
<path style="fill:none;stroke-width:1;stroke-linecap:round;stroke-linejoin:round;stroke:rgb(100%,100%,100%);stroke-opacity:1;stroke-dasharray:2,3;stroke-miterlimit:10;" d="M 247.417969 77.027344 L 246.296875 80.320313 "/>
<path style="fill:none;stroke-width:1;stroke-linecap:round;stroke-linejoin:round;stroke:rgb(100%,100%,100%);stroke-opacity:1;stroke-dasharray:2,3;stroke-miterlimit:10;" d="M 237.585938 57.855469 L 238.636719 54.539063 "/>
<path style="fill:none;stroke-width:1;stroke-linecap:round;stroke-linejoin:round;stroke:rgb(100%,100%,100%);stroke-opacity:1;stroke-dasharray:2,3;stroke-miterlimit:10;" d="M 233.050781 52.785156 L 231.984375 56.21875 "/>
<path style="fill:none;stroke-width:1;stroke-linecap:round;stroke-linejoin:round;stroke:rgb(100%,100%,100%);stroke-opacity:1;stroke-dasharray:2,3;stroke-miterlimit:10;" d="M 229.925781 51.71875 L 228.757813 55.164063 "/>
<path style="fill:none;stroke-width:1;stroke-linecap:round;stroke-linejoin:round;stroke:rgb(100%,100%,100%);stroke-opacity:1;stroke-dasharray:2,3;stroke-miterlimit:10;" d="M 201.910156 61.433594 L 199.496094 64.363281 "/>
<path style="fill:none;stroke-width:1;stroke-linecap:round;stroke-linejoin:round;stroke:rgb(100%,100%,100%);stroke-opacity:1;stroke-dasharray:2,3;stroke-miterlimit:10;" d="M 223.441406 58.9375 L 222.449219 62.066406 L 222.28125 62.605469 "/>
<path style="fill:none;stroke-width:1;stroke-linecap:round;stroke-linejoin:round;stroke:rgb(100%,100%,100%);stroke-opacity:1;stroke-dasharray:2,3;stroke-miterlimit:10;" d="M 218.804688 57.46875 L 217.804688 60.621094 L 217.632813 61.171875 "/>
<path style="fill:none;stroke-width:1;stroke-linecap:round;stroke-linejoin:round;stroke:rgb(100%,100%,100%);stroke-opacity:1;stroke-dasharray:2,3;stroke-miterlimit:10;" d="M 206.679688 48.769531 L 203.535156 46.484375 "/>
<path style="fill:none;stroke-width:1;stroke-linecap:round;stroke-linejoin:round;stroke:rgb(100%,100%,100%);stroke-opacity:1;stroke-dasharray:2,3;stroke-miterlimit:10;" d="M 141.339844 71.726563 L 137.535156 72.59375 "/>
<path style="fill:none;stroke-width:1;stroke-linecap:round;stroke-linejoin:round;stroke:rgb(100%,100%,100%);stroke-opacity:1;stroke-dasharray:2,3;stroke-miterlimit:10;" d="M 205.503906 50.316406 L 202.269531 48.074219 "/>
<path style="fill:none;stroke-width:1;stroke-linecap:round;stroke-linejoin:round;stroke:rgb(100%,100%,100%);stroke-opacity:1;stroke-dasharray:2,3;stroke-miterlimit:10;" d="M 218.203125 47.796875 L 216.902344 51.550781 "/>
<path style="fill:none;stroke-width:1;stroke-linecap:round;stroke-linejoin:round;stroke:rgb(100%,100%,100%);stroke-opacity:1;stroke-dasharray:2,3;stroke-miterlimit:10;" d="M 203.707031 52.671875 L 200.601563 50.167969 "/>
<path style="fill:none;stroke-width:1;stroke-linecap:round;stroke-linejoin:round;stroke:rgb(100%,100%,100%);stroke-opacity:1;stroke-dasharray:2,3;stroke-miterlimit:10;" d="M 201.828125 55.144531 L 198.664063 52.59375 "/>
<path style="fill:none;stroke-width:1;stroke-linecap:round;stroke-linejoin:round;stroke:rgb(100%,100%,100%);stroke-opacity:1;stroke-dasharray:2,3;stroke-miterlimit:10;" d="M 214.914063 46.679688 L 213.28125 50.433594 "/>
<path style="fill:none;stroke-width:1;stroke-linecap:round;stroke-linejoin:round;stroke:rgb(100%,100%,100%);stroke-opacity:1;stroke-dasharray:2,3;stroke-miterlimit:10;" d="M 245.382813 65.929688 L 244.210938 69.789063 L 244.042969 70.300781 "/>
<path style="fill:none;stroke-width:1;stroke-linecap:round;stroke-linejoin:round;stroke:rgb(100%,100%,100%);stroke-opacity:1;stroke-dasharray:2,3;stroke-miterlimit:10;" d="M 251.878906 63.855469 L 253.191406 59.296875 "/>
<path style="fill:none;stroke-width:1;stroke-linecap:round;stroke-linejoin:round;stroke:rgb(100%,100%,100%);stroke-opacity:1;stroke-dasharray:2,3;stroke-miterlimit:10;" d="M 131.75 31.433594 L 133.433594 26.921875 "/>
<path style="fill:none;stroke-width:1;stroke-linecap:round;stroke-linejoin:round;stroke:rgb(100%,100%,100%);stroke-opacity:1;stroke-dasharray:2,3;stroke-miterlimit:10;" d="M 238.863281 72.792969 L 237.320313 77.355469 "/>
<path style="fill:none;stroke-width:1;stroke-linecap:round;stroke-linejoin:round;stroke:rgb(100%,100%,100%);stroke-opacity:1;stroke-dasharray:2,3;stroke-miterlimit:10;" d="M 248.957031 63.019531 L 250.207031 58.320313 "/>
<path style="fill:none;stroke-width:1;stroke-linecap:round;stroke-linejoin:round;stroke:rgb(100%,100%,100%);stroke-opacity:1;stroke-dasharray:2,3;stroke-miterlimit:10;" d="M 246.074219 62.089844 L 247.386719 57.398438 "/>
<path style="fill:none;stroke-width:1;stroke-linecap:round;stroke-linejoin:round;stroke:rgb(100%,100%,100%);stroke-opacity:1;stroke-dasharray:2,3;stroke-miterlimit:10;" d="M 241.832031 73.742188 L 240.257813 78.359375 "/>
<path style="fill:none;stroke-width:1;stroke-linecap:round;stroke-linejoin:round;stroke:rgb(100%,100%,100%);stroke-opacity:1;stroke-dasharray:2,3;stroke-miterlimit:10;" d="M 243.25 61.179688 L 244.546875 56.46875 "/>
<path style="fill:none;stroke-width:1;stroke-linecap:round;stroke-linejoin:round;stroke:rgb(100%,100%,100%);stroke-opacity:1;stroke-dasharray:2,3;stroke-miterlimit:10;" d="M 244.789063 74.691406 L 243.136719 79.34375 "/>
<path style="fill:none;stroke-width:1;stroke-linecap:round;stroke-linejoin:round;stroke:rgb(100%,100%,100%);stroke-opacity:1;stroke-dasharray:2,3;stroke-miterlimit:10;" d="M 212.707031 63.71875 L 211.117188 68.441406 "/>
<path style="fill:none;stroke-width:1;stroke-linecap:round;stroke-linejoin:round;stroke:rgb(100%,100%,100%);stroke-opacity:1;stroke-dasharray:2,3;stroke-miterlimit:10;" d="M 215.632813 64.660156 L 213.976563 69.457031 "/>
<path style="fill:none;stroke-width:1;stroke-linecap:round;stroke-linejoin:round;stroke:rgb(100%,100%,100%);stroke-opacity:1;stroke-dasharray:2,3;stroke-miterlimit:10;" d="M 227.144531 50.832031 L 225.378906 55.636719 "/>
<path style="fill:none;stroke-width:1;stroke-linecap:round;stroke-linejoin:round;stroke:rgb(100%,100%,100%);stroke-opacity:1;stroke-dasharray:2,3;stroke-miterlimit:10;" d="M 218.492188 65.582031 L 216.945313 70.511719 "/>
<path style="fill:none;stroke-width:1;stroke-linecap:round;stroke-linejoin:round;stroke:rgb(100%,100%,100%);stroke-opacity:1;stroke-dasharray:2,3;stroke-miterlimit:10;" d="M 222.570313 54.789063 L 224.347656 49.886719 "/>
<path style="fill:none;stroke-width:1;stroke-linecap:round;stroke-linejoin:round;stroke:rgb(100%,100%,100%);stroke-opacity:1;stroke-dasharray:2,3;stroke-miterlimit:10;" d="M 221.371094 66.507813 L 219.964844 71.535156 "/>
<path style="fill:none;stroke-width:1;stroke-linecap:round;stroke-linejoin:round;stroke:rgb(100%,100%,100%);stroke-opacity:1;stroke-dasharray:2,3;stroke-miterlimit:10;" d="M 221.617188 48.957031 L 219.542969 53.875 "/>
<path style="fill:none;stroke-width:1;stroke-linecap:round;stroke-linejoin:round;stroke:rgb(100%,100%,100%);stroke-opacity:1;stroke-dasharray:2,3;stroke-miterlimit:10;" d="M 153.0625 58.265625 L 151.15625 63.707031 "/>
<path style="fill:none;stroke-width:1;stroke-linecap:round;stroke-linejoin:round;stroke:rgb(100%,100%,100%);stroke-opacity:1;stroke-dasharray:2,3;stroke-miterlimit:10;" d="M 163.652344 37.132813 L 161.265625 31.125 "/>
<path style="fill:none;stroke-width:1;stroke-linecap:round;stroke-linejoin:round;stroke:rgb(100%,100%,100%);stroke-opacity:1;stroke-dasharray:2,3;stroke-miterlimit:10;" d="M 191.742188 3.277344 L 184.460938 3.109375 "/>
<path style="fill:none;stroke-width:1;stroke-linecap:round;stroke-linejoin:round;stroke:rgb(100%,100%,100%);stroke-opacity:1;stroke-dasharray:2,3;stroke-miterlimit:10;" d="M 185.851563 32.472656 L 191.308594 37.03125 L 189.253906 39.355469 L 188.957031 42.671875 "/>
<path style="fill:none;stroke-width:1;stroke-linecap:round;stroke-linejoin:round;stroke:rgb(100%,100%,100%);stroke-opacity:1;stroke-dasharray:2,3;stroke-miterlimit:10;" d="M 163.652344 37.132813 L 163.777344 38.472656 L 163.1875 39.90625 L 161.394531 42.703125 L 159.046875 46.011719 L 156.609375 50.230469 "/>
<path style="fill:none;stroke-width:1;stroke-linecap:round;stroke-linejoin:round;stroke:rgb(100%,100%,100%);stroke-opacity:1;stroke-dasharray:2,3;stroke-miterlimit:10;" d="M 241.914063 69.597656 L 238.523438 68.503906 L 239.90625 64.195313 L 243.242188 65.261719 L 242.078125 69.085938 L 241.914063 69.597656 "/>
<path style="fill:none;stroke-width:1;stroke-linecap:round;stroke-linejoin:round;stroke:rgb(100%,100%,100%);stroke-opacity:1;stroke-dasharray:2,3;stroke-miterlimit:10;" d="M 197.917969 53.53125 L 192.277344 49.050781 L 187.175781 44.824219 L 188.957031 42.671875 "/>
<path style="fill:none;stroke-width:1;stroke-linecap:round;stroke-linejoin:round;stroke:rgb(100%,100%,100%);stroke-opacity:1;stroke-dasharray:2,3;stroke-miterlimit:10;" d="M 195.492188 10.328125 L 190.035156 9.996094 L 184.582031 11.042969 L 180.421875 14.824219 "/>
<path style="fill:none;stroke-width:1;stroke-linecap:round;stroke-linejoin:round;stroke:rgb(100%,100%,100%);stroke-opacity:1;stroke-dasharray:2,3;stroke-miterlimit:10;" d="M 208.703125 54.265625 L 218.804688 57.46875 L 223.441406 58.9375 L 226.085938 59.773438 "/>
<path style="fill:none;stroke-width:1;stroke-linecap:round;stroke-linejoin:round;stroke:rgb(100%,100%,100%);stroke-opacity:1;stroke-dasharray:2,3;stroke-miterlimit:10;" d="M 224.925781 63.4375 L 226.085938 59.773438 L 226.542969 58.4375 L 232.84375 60.3125 L 235.035156 53.40625 "/>
<path style="fill:none;stroke-width:1;stroke-linecap:round;stroke-linejoin:round;stroke:rgb(100%,100%,100%);stroke-opacity:1;stroke-dasharray:2,3;stroke-miterlimit:10;" d="M 238.523438 68.503906 L 241.914063 69.597656 L 244.042969 70.300781 L 247.621094 71.417969 L 247.039063 73.125 L 253.90625 75.21875 L 254.566406 74.308594 "/>
<path style="fill:none;stroke-width:1;stroke-linecap:round;stroke-linejoin:round;stroke:rgb(100%,100%,100%);stroke-opacity:1;stroke-dasharray:2,3;stroke-miterlimit:10;" d="M 212.621094 45.90625 L 208.703125 54.265625 L 206.464844 59.039063 L 203.34375 65.695313 "/>
<path style="fill:none;stroke-width:1;stroke-linecap:round;stroke-linejoin:round;stroke:rgb(100%,100%,100%);stroke-opacity:1;stroke-dasharray:2,3;stroke-miterlimit:10;" d="M 102.191406 59.871094 L 103.214844 59.457031 L 105.183594 58.792969 L 106.5625 58.386719 L 107.625 58.164063 L 109.601563 57.898438 L 111.105469 57.753906 L 112.210938 57.75 L 113.234375 57.878906 L 114.230469 58.089844 L 115.320313 58.425781 L 116.316406 58.910156 L 118 59.886719 L 119.542969 61.089844 L 120.898438 62.675781 L 121.769531 63.929688 L 122.441406 65.105469 "/>
<path style="fill:none;stroke-width:1;stroke-linecap:round;stroke-linejoin:round;stroke:rgb(100%,100%,100%);stroke-opacity:1;stroke-dasharray:2,3;stroke-miterlimit:10;" d="M 191.308594 37.03125 L 199.972656 25.824219 L 202.800781 25.441406 L 205.214844 22.503906 L 207.214844 20.339844 "/>
<path style="fill:none;stroke-width:1;stroke-linecap:round;stroke-linejoin:round;stroke:rgb(100%,100%,100%);stroke-opacity:1;stroke-dasharray:2,3;stroke-miterlimit:10;" d="M 239.90625 64.195313 L 243.242188 65.261719 L 245.382813 65.929688 L 252.550781 68.144531 L 253.042969 66.636719 L 257 67.886719 "/>
<path style="fill:none;stroke-width:1;stroke-linecap:round;stroke-linejoin:round;stroke:rgb(100%,100%,100%);stroke-opacity:1;stroke-dasharray:2,3;stroke-miterlimit:10;" d="M 191.828125 -2 L 191.742188 3.277344 L 195.492188 10.328125 L 199.320313 14.289063 "/>
<path style="fill:none;stroke-width:1;stroke-linecap:round;stroke-linejoin:round;stroke:rgb(100%,100%,100%);stroke-opacity:1;stroke-dasharray:2,3;stroke-miterlimit:10;" d="M 236.605469 53.875 L 234.445313 60.757813 L 240.4375 62.589844 L 240.070313 63.691406 L 238.523438 68.503906 L 238.039063 69.964844 L 231.644531 67.9375 L 229.488281 74.6875 "/>
<path style="fill:none;stroke-width:1;stroke-linecap:round;stroke-linejoin:round;stroke:rgb(100%,100%,100%);stroke-opacity:1;stroke-dasharray:2,3;stroke-miterlimit:10;" d="M 208.703125 54.265625 L 206.464844 59.039063 L 211.847656 59.453125 L 217.632813 61.171875 L 219.5625 61.761719 L 222.28125 62.605469 L 224.925781 63.4375 L 224.546875 64.695313 L 224.207031 65.816406 L 229.863281 67.601563 L 227.75 74.113281 "/>
<path style="fill:none;stroke-width:1;stroke-linecap:round;stroke-linejoin:round;stroke:rgb(100%,100%,100%);stroke-opacity:1;stroke-dasharray:2,3;stroke-miterlimit:10;" d="M -2 6.925781 L -0.6875 6.8125 L 4.140625 7.535156 L 7.472656 7.867188 L 9.308594 7.867188 L 11.863281 6.757813 L 14.195313 6.257813 L 16.804688 6.535156 L 19.136719 6.867188 L 21.078125 5.757813 L 22.191406 4.589844 L 22.300781 2.59375 L 22.578125 -0.0742188 L 22.382813 -2 "/>
<path style="fill:none;stroke-width:1;stroke-linecap:round;stroke-linejoin:round;stroke:rgb(100%,100%,100%);stroke-opacity:1;stroke-dasharray:2,3;stroke-miterlimit:10;" d="M -2 42.191406 L 26.191406 46.996094 "/>
<path style="fill:none;stroke-width:1;stroke-linecap:round;stroke-linejoin:round;stroke:rgb(100%,100%,100%);stroke-opacity:1;stroke-dasharray:2,3;stroke-miterlimit:10;" d="M 119.523438 14.617188 L 115.355469 25.761719 L 121.875 27.875 L 131.75 31.433594 L 136.375 32.746094 L 141.25 33.375 L 144.75 33.6875 L 148 33.5 L 153.6875 32.875 L 159.3125 31.933594 L 161.265625 31.125 L 163.6875 30.125 L 167.5625 28.1875 L 171.4375 25.496094 L 174.875 22.433594 L 177.6875 19.25 L 180 15.621094 L 182.183594 11.496094 L 183.933594 5.6875 L 184.460938 3.109375 L 184.996094 0.496094 L 185.027344 -2 "/>
<path style="fill:none;stroke-width:1;stroke-linecap:round;stroke-linejoin:round;stroke:rgb(100%,100%,100%);stroke-opacity:1;stroke-dasharray:2,3;stroke-miterlimit:10;" d="M 131.160156 39.179688 L 134.972656 38.945313 L 137.457031 38.9375 L 140.125 38.617188 L 143.496094 38.15625 L 147.3125 37.414063 L 151.1875 36.558594 L 154.195313 35.4375 L 157.019531 33.757813 L 159.3125 31.933594 "/>
<path style="fill:none;stroke-width:8;stroke-linecap:round;stroke-linejoin:round;stroke:rgb(75.686275%,70.980392%,61.568627%);stroke-opacity:1;stroke-miterlimit:10;" d="M 34.980469 -3.28125 L 34.519531 -0.0234375 "/>
<path style="fill:none;stroke-width:8;stroke-linecap:round;stroke-linejoin:round;stroke:rgb(75.686275%,70.980392%,61.568627%);stroke-opacity:1;stroke-miterlimit:10;" d="M 37.257813 -3.0625 L 36.597656 0.179688 "/>
<path style="fill:none;stroke-width:8;stroke-linecap:round;stroke-linejoin:round;stroke:rgb(75.686275%,70.980392%,61.568627%);stroke-opacity:1;stroke-miterlimit:10;" d="M 39.253906 -2.847656 L 38.699219 0.59375 "/>
<path style="fill:none;stroke-width:8;stroke-linecap:round;stroke-linejoin:round;stroke:rgb(75.686275%,70.980392%,61.568627%);stroke-opacity:1;stroke-miterlimit:10;" d="M 233.386719 61.703125 L 239.058594 63.4375 "/>
<path style="fill:none;stroke-width:8;stroke-linecap:round;stroke-linejoin:round;stroke:rgb(75.686275%,70.980392%,61.568627%);stroke-opacity:1;stroke-miterlimit:10;" d="M 231.082031 66.742188 L 237.09375 68.664063 "/>
<path style="fill:none;stroke-width:8;stroke-linecap:round;stroke-linejoin:round;stroke:rgb(75.686275%,70.980392%,61.568627%);stroke-opacity:1;stroke-miterlimit:10;" d="M 257.472656 69.222656 L 256.984375 70.742188 L 256.5625 72.050781 L 254.566406 74.308594 L 247.417969 72.003906 "/>
<path style="fill:none;stroke-width:8;stroke-linecap:round;stroke-linejoin:round;stroke:rgb(75.686275%,70.980392%,61.568627%);stroke-opacity:1;stroke-miterlimit:10;" d="M 262.269531 62.164063 L 257.472656 69.222656 L 252.726563 67.636719 "/>
<path style="fill:none;stroke-width:8;stroke-linecap:round;stroke-linejoin:round;stroke:rgb(75.686275%,70.980392%,61.568627%);stroke-opacity:1;stroke-miterlimit:10;" d="M 228.554688 74.375 L 231.082031 66.742188 L 225.285156 64.976563 "/>
<path style="fill:none;stroke-width:8;stroke-linecap:round;stroke-linejoin:round;stroke:rgb(75.686275%,70.980392%,61.568627%);stroke-opacity:1;stroke-miterlimit:10;" d="M 235.914063 53.679688 L 233.386719 61.703125 L 227.324219 59.8125 "/>
<path style="fill:none;stroke-width:8;stroke-linecap:round;stroke-linejoin:round;stroke:rgb(75.686275%,70.980392%,61.568627%);stroke-opacity:1;stroke-miterlimit:10;" d="M 207.914063 20.875 L 203.578125 25.933594 L 200.808594 26.195313 L 190.21875 40.042969 L 188.957031 42.671875 "/>
<path style="fill:none;stroke-width:8;stroke-linecap:round;stroke-linejoin:round;stroke:rgb(75.686275%,70.980392%,61.568627%);stroke-opacity:1;stroke-miterlimit:10;" d="M 2.042969 27.011719 L 24.53125 27.0625 L 46.394531 26.617188 L 65.503906 25.871094 "/>
<path style="fill:none;stroke-width:10;stroke-linecap:round;stroke-linejoin:round;stroke:rgb(72.941176%,43.137255%,15.294118%);stroke-opacity:1;stroke-miterlimit:10;" d="M 230.992188 82.769531 L 213.875 74.816406 L 206.5 70.957031 L 191.476563 61.683594 "/>
<path style="fill:none;stroke-width:10;stroke-linecap:round;stroke-linejoin:round;stroke:rgb(72.941176%,43.137255%,15.294118%);stroke-opacity:1;stroke-miterlimit:10;" d="M 159.613281 51.277344 L 161.546875 48.230469 L 163.652344 45.324219 L 167.453125 41.324219 L 171.453125 37.722656 L 176.453125 34.324219 L 181.851563 31.125 L 186.25 28.324219 L 189.652344 25.925781 L 192.363281 22.804688 L 195.511719 19.214844 "/>
<path style="fill:none;stroke-width:10;stroke-linecap:round;stroke-linejoin:round;stroke:rgb(72.941176%,43.137255%,15.294118%);stroke-opacity:1;stroke-miterlimit:10;" d="M 195.511719 19.214844 L 190.253906 23.378906 L 185.652344 26.980469 L 176.796875 32.011719 L 170.171875 36.449219 L 165.734375 40.355469 L 162.453125 44.324219 L 159.878906 47.523438 L 157.878906 50.777344 "/>
<path style="fill:none;stroke-width:10;stroke-linecap:round;stroke-linejoin:round;stroke:rgb(72.941176%,43.137255%,15.294118%);stroke-opacity:1;stroke-miterlimit:10;" d="M 176.796875 32.011719 L 175.851563 32.378906 L 170.71875 34.777344 L 164.792969 36.824219 L 163.652344 37.132813 L 158.195313 38.625 L 150.59375 39.824219 L 143.195313 40.222656 L 135.792969 39.824219 L 131.160156 39.179688 L 128.191406 38.769531 L 121.402344 37.65625 L 104.621094 32.636719 "/>
<path style="fill:none;stroke-width:10;stroke-linecap:round;stroke-linejoin:round;stroke:rgb(72.941176%,43.137255%,15.294118%);stroke-opacity:1;stroke-miterlimit:10;" d="M 158.484375 58.882813 L 162.914063 62.03125 L 166.6875 64.089844 L 170.605469 65.882813 L 182.136719 70.671875 L 184.273438 72.183594 L 185.84375 73.964844 L 186.796875 75.886719 L 187.257813 77.425781 L 187.203125 79.292969 L 186.671875 81.574219 L 185.546875 83.464844 L 184.53125 84.574219 L 183.050781 85.722656 L 181.496094 86.433594 L 179.589844 87.164063 L 177.449219 87.6875 L 175.203125 87.945313 L 172.664063 87.90625 L 169.902344 87.5 L 167.46875 86.71875 L 165.121094 85.695313 L 163.351563 84.660156 L 161.648438 83.398438 L 160.042969 81.992188 L 158.652344 80.367188 L 157.3125 78.417969 L 156.554688 76.925781 L 155.78125 75.015625 L 155 72.804688 L 154.597656 70.546875 L 154.363281 68.261719 L 154.449219 66 L 154.6875 64.089844 L 155.128906 61.894531 L 155.660156 60.308594 "/>
<path style="fill:none;stroke-width:10;stroke-linecap:round;stroke-linejoin:round;stroke:rgb(72.941176%,43.137255%,15.294118%);stroke-opacity:1;stroke-miterlimit:10;" d="M 154.160156 59.320313 L 153.171875 63.039063 L 152.652344 66.324219 L 152.652344 70.125 L 153.328125 73.792969 L 154.859375 77.980469 L 157.578125 82.042969 L 160.765625 85.167969 L 164.09375 87.183594 L 167.917969 88.710938 L 171.175781 89.488281 L 175.109375 89.917969 L 180.203125 89.042969 L 186.859375 86.699219 L 193.421875 85.136719 L 199.546875 84.292969 L 205.953125 84.042969 L 209.515625 84.105469 L 213.046875 84.574219 L 219.578125 85.824219 L 225.703125 87.355469 L 231.734375 89.355469 L 266 101.019531 "/>
<path style="fill:none;stroke-width:8;stroke-linecap:round;stroke-linejoin:round;stroke:rgb(75.686275%,70.980392%,61.568627%);stroke-opacity:1;stroke-miterlimit:10;" d="M 199.320313 14.289063 L 200.820313 15.453125 L 205.582031 19.085938 "/>
<path style="fill:none;stroke-width:8;stroke-linecap:round;stroke-linejoin:round;stroke:rgb(75.686275%,70.980392%,61.568627%);stroke-opacity:1;stroke-miterlimit:10;" d="M 205.582031 19.085938 L 207.214844 20.339844 L 217.671875 28.351563 "/>
<path style="fill:none;stroke-width:8;stroke-linecap:round;stroke-linejoin:round;stroke:rgb(75.686275%,70.980392%,61.568627%);stroke-opacity:1;stroke-miterlimit:10;" d="M 106.007813 25.542969 L 93.304688 21.128906 L 91.8125 20.613281 L 74.523438 14.601563 L 71.257813 12.917969 L 53.757813 -1.457031 "/>
<path style="fill:none;stroke-width:8;stroke-linecap:round;stroke-linejoin:round;stroke:rgb(75.686275%,70.980392%,61.568627%);stroke-opacity:1;stroke-miterlimit:10;" d="M 205.835938 43.601563 L 212.621094 45.90625 L 214.914063 46.679688 L 218.203125 47.796875 L 221.617188 48.957031 L 224.347656 49.886719 L 227.144531 50.832031 L 228.15625 51.175781 L 229.925781 51.71875 L 233.050781 52.785156 L 235.035156 53.40625 L 236.605469 53.875 L 238.636719 54.539063 L 241.671875 55.53125 L 244.546875 56.46875 L 247.386719 57.398438 L 249.097656 57.957031 L 250.207031 58.320313 L 253.191406 59.296875 L 258.25 60.957031 L 261.445313 61.917969 L 264 62.6875 "/>
<path style="fill:none;stroke-width:8;stroke-linecap:round;stroke-linejoin:round;stroke:rgb(75.686275%,70.980392%,61.568627%);stroke-opacity:1;stroke-miterlimit:10;" d="M 111.832031 -9 L 115.910156 -5.839844 L 116.882813 -5.082031 L 118.132813 -3.582031 L 118.632813 -2.332031 L 117.539063 0.996094 L 112.679688 15.808594 L 110.757813 21.667969 L 110.140625 23.929688 L 108.382813 25.667969 L 106.007813 25.542969 "/>
<path style="fill:none;stroke-width:8;stroke-linecap:round;stroke-linejoin:round;stroke:rgb(75.686275%,70.980392%,61.568627%);stroke-opacity:1;stroke-miterlimit:10;" d="M 249.097656 57.957031 L 264 39.273438 "/>
<path style="fill:none;stroke-width:8;stroke-linecap:round;stroke-linejoin:round;stroke:rgb(75.686275%,70.980392%,61.568627%);stroke-opacity:1;stroke-miterlimit:10;" d="M 264 5.460938 L 228.15625 51.175781 "/>
<path style="fill:none;stroke-width:8;stroke-linecap:round;stroke-linejoin:round;stroke:rgb(75.686275%,70.980392%,61.568627%);stroke-opacity:1;stroke-miterlimit:10;" d="M 264 85.363281 L 250.078125 81.394531 L 246.296875 80.320313 L 244.445313 79.789063 L 243.136719 79.34375 L 240.257813 78.359375 L 237.320313 77.355469 L 234.566406 76.414063 L 231.425781 75.34375 L 230.023438 74.863281 L 228.554688 74.375 L 225.816406 73.472656 L 222.671875 72.433594 L 219.964844 71.535156 L 217.890625 70.851563 L 216.945313 70.511719 L 213.976563 69.457031 L 211.117188 68.441406 L 207.859375 67.28125 L 206.066406 66.644531 L 203.34375 65.695313 L 199.496094 64.363281 L 191.476563 61.683594 "/>
<path style="fill:none;stroke-width:8;stroke-linecap:round;stroke-linejoin:round;stroke:rgb(75.686275%,70.980392%,61.568627%);stroke-opacity:1;stroke-miterlimit:10;" d="M 247.144531 -9 L 217.671875 28.351563 L 205.835938 43.601563 L 203.535156 46.484375 L 202.269531 48.074219 L 200.601563 50.167969 L 198.664063 52.59375 L 197.917969 53.53125 L 193.8125 58.683594 L 191.476563 61.683594 "/>
<path style="fill:none;stroke-width:9;stroke-linecap:round;stroke-linejoin:round;stroke:rgb(75.686275%,70.980392%,61.568627%);stroke-opacity:1;stroke-miterlimit:10;" d="M 195.511719 19.214844 L 199.320313 14.289063 "/>
<path style="fill:none;stroke-width:9;stroke-linecap:round;stroke-linejoin:round;stroke:rgb(75.686275%,70.980392%,61.568627%);stroke-opacity:1;stroke-miterlimit:10;" d="M 191.476563 61.683594 L 181.722656 54.175781 L 179.511719 51.933594 L 178.449219 49.859375 L 178.039063 47.8125 L 178.234375 44.941406 L 178.9375 42.296875 "/>
<path style="fill:none;stroke-width:9;stroke-linecap:round;stroke-linejoin:round;stroke:rgb(75.686275%,70.980392%,61.568627%);stroke-opacity:1;stroke-miterlimit:10;" d="M 178.9375 42.296875 L 179.9375 40.578125 L 185.851563 32.472656 L 191.441406 26.246094 L 194.324219 22.089844 L 195.511719 19.214844 "/>
<path style="fill:none;stroke-width:9;stroke-linecap:round;stroke-linejoin:round;stroke:rgb(75.686275%,70.980392%,61.568627%);stroke-opacity:1;stroke-miterlimit:10;" d="M 199.320313 14.289063 L 218.761719 -10 "/>
<path style="fill:none;stroke-width:11;stroke-linecap:round;stroke-linejoin:round;stroke:rgb(72.941176%,43.137255%,15.294118%);stroke-opacity:1;stroke-miterlimit:10;" d="M 267 95.03125 L 230.992188 82.769531 L 214.792969 76.96875 L 187.394531 66.570313 L 171.992188 60.570313 L 104.621094 32.636719 L 100.59375 30.96875 L 92.792969 28.167969 L 73.992188 23.167969 L 64.195313 21.367188 L 54.195313 20.167969 L 44.792969 19.769531 L 30.59375 19.96875 L 17.59375 21.167969 L 2.195313 22.96875 L -11.007813 23.96875 L -12 24.023438 "/>
<path style="fill:none;stroke-width:11;stroke-linecap:round;stroke-linejoin:round;stroke:rgb(72.941176%,43.137255%,15.294118%);stroke-opacity:1;stroke-miterlimit:10;" d="M -12 28.542969 L -10.925781 28.457031 L 2.042969 27.011719 L 18.117188 25.222656 L 23.765625 24.605469 L 31.484375 24.011719 L 44.921875 23.886719 L 50.578125 24.105469 L 57.890625 24.761719 L 65.503906 25.871094 L 70.109375 26.542969 L 83.640625 29.605469 L 96.046875 33.480469 L 109.671875 38.667969 L 158.484375 58.882813 L 188.140625 71.324219 L 215.578125 81.824219 L 230.734375 87.199219 L 246.765625 92.667969 L 267 99.597656 "/>
<path style="fill:none;stroke-width:6;stroke-linecap:round;stroke-linejoin:round;stroke:rgb(100%,100%,100%);stroke-opacity:1;stroke-miterlimit:10;" d="M 34.980469 -3.28125 L 34.519531 -0.0234375 "/>
<path style="fill:none;stroke-width:6;stroke-linecap:round;stroke-linejoin:round;stroke:rgb(100%,100%,100%);stroke-opacity:1;stroke-miterlimit:10;" d="M 37.257813 -3.0625 L 36.597656 0.179688 "/>
<path style="fill:none;stroke-width:6;stroke-linecap:round;stroke-linejoin:round;stroke:rgb(100%,100%,100%);stroke-opacity:1;stroke-miterlimit:10;" d="M 39.253906 -2.847656 L 38.699219 0.59375 "/>
<path style="fill:none;stroke-width:6;stroke-linecap:round;stroke-linejoin:round;stroke:rgb(100%,100%,100%);stroke-opacity:1;stroke-miterlimit:10;" d="M 233.386719 61.703125 L 239.058594 63.4375 "/>
<path style="fill:none;stroke-width:6;stroke-linecap:round;stroke-linejoin:round;stroke:rgb(100%,100%,100%);stroke-opacity:1;stroke-miterlimit:10;" d="M 231.082031 66.742188 L 237.09375 68.664063 "/>
<path style="fill:none;stroke-width:6;stroke-linecap:round;stroke-linejoin:round;stroke:rgb(100%,100%,100%);stroke-opacity:1;stroke-miterlimit:10;" d="M 257.472656 69.222656 L 256.984375 70.742188 L 256.5625 72.050781 L 254.566406 74.308594 L 247.417969 72.003906 "/>
<path style="fill:none;stroke-width:6;stroke-linecap:round;stroke-linejoin:round;stroke:rgb(100%,100%,100%);stroke-opacity:1;stroke-miterlimit:10;" d="M 262.269531 62.164063 L 257.472656 69.222656 L 252.726563 67.636719 "/>
<path style="fill:none;stroke-width:6;stroke-linecap:round;stroke-linejoin:round;stroke:rgb(100%,100%,100%);stroke-opacity:1;stroke-miterlimit:10;" d="M 228.554688 74.375 L 231.082031 66.742188 L 225.285156 64.976563 "/>
<path style="fill:none;stroke-width:6;stroke-linecap:round;stroke-linejoin:round;stroke:rgb(100%,100%,100%);stroke-opacity:1;stroke-miterlimit:10;" d="M 235.914063 53.679688 L 233.386719 61.703125 L 227.324219 59.8125 "/>
<path style="fill:none;stroke-width:6;stroke-linecap:round;stroke-linejoin:round;stroke:rgb(100%,100%,100%);stroke-opacity:1;stroke-miterlimit:10;" d="M 207.914063 20.875 L 203.578125 25.933594 L 200.808594 26.195313 L 190.21875 40.042969 L 188.957031 42.671875 "/>
<path style="fill:none;stroke-width:6;stroke-linecap:round;stroke-linejoin:round;stroke:rgb(100%,100%,100%);stroke-opacity:1;stroke-miterlimit:10;" d="M 2.042969 27.011719 L 24.53125 27.0625 L 46.394531 26.617188 L 65.503906 25.871094 "/>
<path style="fill:none;stroke-width:8;stroke-linecap:round;stroke-linejoin:round;stroke:rgb(99.215686%,57.254902%,22.745098%);stroke-opacity:1;stroke-miterlimit:10;" d="M 230.992188 82.769531 L 213.875 74.816406 L 206.5 70.957031 L 191.476563 61.683594 "/>
<path style="fill:none;stroke-width:8;stroke-linecap:round;stroke-linejoin:round;stroke:rgb(99.215686%,57.254902%,22.745098%);stroke-opacity:1;stroke-miterlimit:10;" d="M 159.613281 51.277344 L 161.546875 48.230469 L 163.652344 45.324219 L 167.453125 41.324219 L 171.453125 37.722656 L 176.453125 34.324219 L 181.851563 31.125 L 186.25 28.324219 L 189.652344 25.925781 L 192.363281 22.804688 L 195.511719 19.214844 "/>
<path style="fill:none;stroke-width:8;stroke-linecap:round;stroke-linejoin:round;stroke:rgb(99.215686%,57.254902%,22.745098%);stroke-opacity:1;stroke-miterlimit:10;" d="M 195.511719 19.214844 L 190.253906 23.378906 L 185.652344 26.980469 L 176.796875 32.011719 L 170.171875 36.449219 L 165.734375 40.355469 L 162.453125 44.324219 L 159.878906 47.523438 L 157.878906 50.777344 "/>
<path style="fill:none;stroke-width:8;stroke-linecap:round;stroke-linejoin:round;stroke:rgb(99.215686%,57.254902%,22.745098%);stroke-opacity:1;stroke-miterlimit:10;" d="M 176.796875 32.011719 L 175.851563 32.378906 L 170.71875 34.777344 L 164.792969 36.824219 L 163.652344 37.132813 L 158.195313 38.625 L 150.59375 39.824219 L 143.195313 40.222656 L 135.792969 39.824219 L 131.160156 39.179688 L 128.191406 38.769531 L 121.402344 37.65625 L 104.621094 32.636719 "/>
<path style="fill:none;stroke-width:8;stroke-linecap:round;stroke-linejoin:round;stroke:rgb(99.215686%,57.254902%,22.745098%);stroke-opacity:1;stroke-miterlimit:10;" d="M 158.484375 58.882813 L 162.914063 62.03125 L 166.6875 64.089844 L 170.605469 65.882813 L 182.136719 70.671875 L 184.273438 72.183594 L 185.84375 73.964844 L 186.796875 75.886719 L 187.257813 77.425781 L 187.203125 79.292969 L 186.671875 81.574219 L 185.546875 83.464844 L 184.53125 84.574219 L 183.050781 85.722656 L 181.496094 86.433594 L 179.589844 87.164063 L 177.449219 87.6875 L 175.203125 87.945313 L 172.664063 87.90625 L 169.902344 87.5 L 167.46875 86.71875 L 165.121094 85.695313 L 163.351563 84.660156 L 161.648438 83.398438 L 160.042969 81.992188 L 158.652344 80.367188 L 157.3125 78.417969 L 156.554688 76.925781 L 155.78125 75.015625 L 155 72.804688 L 154.597656 70.546875 L 154.363281 68.261719 L 154.449219 66 L 154.6875 64.089844 L 155.128906 61.894531 L 155.660156 60.308594 "/>
<path style="fill:none;stroke-width:8;stroke-linecap:round;stroke-linejoin:round;stroke:rgb(99.215686%,57.254902%,22.745098%);stroke-opacity:1;stroke-miterlimit:10;" d="M 154.160156 59.320313 L 153.171875 63.039063 L 152.652344 66.324219 L 152.652344 70.125 L 153.328125 73.792969 L 154.859375 77.980469 L 157.578125 82.042969 L 160.765625 85.167969 L 164.09375 87.183594 L 167.917969 88.710938 L 171.175781 89.488281 L 175.109375 89.917969 L 180.203125 89.042969 L 186.859375 86.699219 L 193.421875 85.136719 L 199.546875 84.292969 L 205.953125 84.042969 L 209.515625 84.105469 L 213.046875 84.574219 L 219.578125 85.824219 L 225.703125 87.355469 L 231.734375 89.355469 L 266 101.019531 "/>
<path style="fill:none;stroke-width:6;stroke-linecap:round;stroke-linejoin:round;stroke:rgb(100%,100%,100%);stroke-opacity:1;stroke-miterlimit:10;" d="M 199.320313 14.289063 L 200.820313 15.453125 L 205.582031 19.085938 "/>
<path style="fill:none;stroke-width:6;stroke-linecap:round;stroke-linejoin:round;stroke:rgb(100%,100%,100%);stroke-opacity:1;stroke-miterlimit:10;" d="M 205.582031 19.085938 L 207.214844 20.339844 L 217.671875 28.351563 "/>
<path style="fill:none;stroke-width:6;stroke-linecap:round;stroke-linejoin:round;stroke:rgb(100%,100%,100%);stroke-opacity:1;stroke-miterlimit:10;" d="M 106.007813 25.542969 L 93.304688 21.128906 L 91.8125 20.613281 L 74.523438 14.601563 L 71.257813 12.917969 L 53.757813 -1.457031 "/>
<path style="fill:none;stroke-width:6;stroke-linecap:round;stroke-linejoin:round;stroke:rgb(100%,100%,100%);stroke-opacity:1;stroke-miterlimit:10;" d="M 205.835938 43.601563 L 212.621094 45.90625 L 214.914063 46.679688 L 218.203125 47.796875 L 221.617188 48.957031 L 224.347656 49.886719 L 227.144531 50.832031 L 228.15625 51.175781 L 229.925781 51.71875 L 233.050781 52.785156 L 235.035156 53.40625 L 236.605469 53.875 L 238.636719 54.539063 L 241.671875 55.53125 L 244.546875 56.46875 L 247.386719 57.398438 L 249.097656 57.957031 L 250.207031 58.320313 L 253.191406 59.296875 L 258.25 60.957031 L 261.445313 61.917969 L 264 62.6875 "/>
<path style="fill:none;stroke-width:6;stroke-linecap:round;stroke-linejoin:round;stroke:rgb(100%,100%,100%);stroke-opacity:1;stroke-miterlimit:10;" d="M 111.832031 -9 L 115.910156 -5.839844 L 116.882813 -5.082031 L 118.132813 -3.582031 L 118.632813 -2.332031 L 117.539063 0.996094 L 112.679688 15.808594 L 110.757813 21.667969 L 110.140625 23.929688 L 108.382813 25.667969 L 106.007813 25.542969 "/>
<path style="fill:none;stroke-width:6;stroke-linecap:round;stroke-linejoin:round;stroke:rgb(100%,100%,100%);stroke-opacity:1;stroke-miterlimit:10;" d="M 249.097656 57.957031 L 264 39.273438 "/>
<path style="fill:none;stroke-width:6;stroke-linecap:round;stroke-linejoin:round;stroke:rgb(100%,100%,100%);stroke-opacity:1;stroke-miterlimit:10;" d="M 264 5.460938 L 228.15625 51.175781 "/>
<path style="fill:none;stroke-width:6;stroke-linecap:round;stroke-linejoin:round;stroke:rgb(100%,100%,100%);stroke-opacity:1;stroke-miterlimit:10;" d="M 264 85.363281 L 250.078125 81.394531 L 246.296875 80.320313 L 244.445313 79.789063 L 243.136719 79.34375 L 240.257813 78.359375 L 237.320313 77.355469 L 234.566406 76.414063 L 231.425781 75.34375 L 230.023438 74.863281 L 228.554688 74.375 L 225.816406 73.472656 L 222.671875 72.433594 L 219.964844 71.535156 L 217.890625 70.851563 L 216.945313 70.511719 L 213.976563 69.457031 L 211.117188 68.441406 L 207.859375 67.28125 L 206.066406 66.644531 L 203.34375 65.695313 L 199.496094 64.363281 L 191.476563 61.683594 "/>
<path style="fill:none;stroke-width:6;stroke-linecap:round;stroke-linejoin:round;stroke:rgb(100%,100%,100%);stroke-opacity:1;stroke-miterlimit:10;" d="M 247.144531 -9 L 217.671875 28.351563 L 205.835938 43.601563 L 203.535156 46.484375 L 202.269531 48.074219 L 200.601563 50.167969 L 198.664063 52.59375 L 197.917969 53.53125 L 193.8125 58.683594 L 191.476563 61.683594 "/>
<path style="fill:none;stroke-width:7;stroke-linecap:round;stroke-linejoin:round;stroke:rgb(100%,99.215686%,54.509804%);stroke-opacity:1;stroke-miterlimit:10;" d="M 195.511719 19.214844 L 199.320313 14.289063 "/>
<path style="fill:none;stroke-width:7;stroke-linecap:round;stroke-linejoin:round;stroke:rgb(100%,99.215686%,54.509804%);stroke-opacity:1;stroke-miterlimit:10;" d="M 191.476563 61.683594 L 181.722656 54.175781 L 179.511719 51.933594 L 178.449219 49.859375 L 178.039063 47.8125 L 178.234375 44.941406 L 178.9375 42.296875 "/>
<path style="fill:none;stroke-width:7;stroke-linecap:round;stroke-linejoin:round;stroke:rgb(100%,99.215686%,54.509804%);stroke-opacity:1;stroke-miterlimit:10;" d="M 178.9375 42.296875 L 179.9375 40.578125 L 185.851563 32.472656 L 191.441406 26.246094 L 194.324219 22.089844 L 195.511719 19.214844 "/>
<path style="fill:none;stroke-width:7;stroke-linecap:round;stroke-linejoin:round;stroke:rgb(100%,99.215686%,54.509804%);stroke-opacity:1;stroke-miterlimit:10;" d="M 199.320313 14.289063 L 218.761719 -10 "/>
<path style="fill:none;stroke-width:9;stroke-linecap:round;stroke-linejoin:round;stroke:rgb(99.215686%,57.254902%,22.745098%);stroke-opacity:1;stroke-miterlimit:10;" d="M 267 95.03125 L 230.992188 82.769531 L 214.792969 76.96875 L 187.394531 66.570313 L 171.992188 60.570313 L 104.621094 32.636719 L 100.59375 30.96875 L 92.792969 28.167969 L 73.992188 23.167969 L 64.195313 21.367188 L 54.195313 20.167969 L 44.792969 19.769531 L 30.59375 19.96875 L 17.59375 21.167969 L 2.195313 22.96875 L -11.007813 23.96875 L -12 24.023438 "/>
<path style="fill:none;stroke-width:9;stroke-linecap:round;stroke-linejoin:round;stroke:rgb(99.215686%,57.254902%,22.745098%);stroke-opacity:1;stroke-miterlimit:10;" d="M -12 28.542969 L -10.925781 28.457031 L 2.042969 27.011719 L 18.117188 25.222656 L 23.765625 24.605469 L 31.484375 24.011719 L 44.921875 23.886719 L 50.578125 24.105469 L 57.890625 24.761719 L 65.503906 25.871094 L 70.109375 26.542969 L 83.640625 29.605469 L 96.046875 33.480469 L 109.671875 38.667969 L 158.484375 58.882813 L 188.140625 71.324219 L 215.578125 81.824219 L 230.734375 87.199219 L 246.765625 92.667969 L 267 99.597656 "/>
<path style="fill:none;stroke-width:5;stroke-linecap:butt;stroke-linejoin:round;stroke:rgb(53.333333%,53.333333%,53.333333%);stroke-opacity:1;stroke-miterlimit:10;" d="M 156.609375 50.230469 L 154.914063 53.855469 L 153.0625 58.265625 "/>
<path style="fill:none;stroke-width:10;stroke-linecap:butt;stroke-linejoin:round;stroke:rgb(53.333333%,53.333333%,53.333333%);stroke-opacity:1;stroke-miterlimit:10;" d="M 157.878906 50.777344 L 155.972656 54.78125 L 154.160156 59.320313 "/>
<path style="fill:none;stroke-width:10;stroke-linecap:butt;stroke-linejoin:round;stroke:rgb(53.333333%,53.333333%,53.333333%);stroke-opacity:1;stroke-miterlimit:10;" d="M 155.660156 60.308594 L 157.585938 55.339844 L 159.613281 51.277344 "/>
<path style="fill:none;stroke-width:3;stroke-linecap:round;stroke-linejoin:round;stroke:rgb(98.039216%,98.039216%,96.078431%);stroke-opacity:1;stroke-miterlimit:10;" d="M 156.609375 50.230469 L 154.914063 53.855469 L 153.0625 58.265625 "/>
<path style="fill:none;stroke-width:8;stroke-linecap:round;stroke-linejoin:round;stroke:rgb(99.215686%,57.254902%,22.745098%);stroke-opacity:1;stroke-miterlimit:10;" d="M 157.878906 50.777344 L 155.972656 54.78125 L 154.160156 59.320313 "/>
<path style="fill:none;stroke-width:8;stroke-linecap:round;stroke-linejoin:round;stroke:rgb(99.215686%,57.254902%,22.745098%);stroke-opacity:1;stroke-miterlimit:10;" d="M 155.660156 60.308594 L 157.585938 55.339844 L 159.613281 51.277344 "/>
<path style=" stroke:none;fill-rule:evenodd;fill:rgb(33.333333%,33.333333%,33.333333%);fill-opacity:1;" d="M 127.074219 44.9375 C 127.363281 45.0625 127.621094 45.085938 127.839844 45 C 128.058594 44.917969 128.222656 44.742188 128.339844 44.46875 C 128.453125 44.1875 128.464844 43.945313 128.371094 43.734375 C 128.277344 43.515625 128.082031 43.34375 127.792969 43.21875 L 126.761719 42.796875 L 126.042969 44.515625 Z M 125.667969 48.5 C 126.042969 48.65625 126.363281 48.679688 126.636719 48.578125 C 126.90625 48.484375 127.113281 48.261719 127.261719 47.90625 C 127.40625 47.554688 127.417969 47.25 127.292969 47 C 127.175781 46.75 126.933594 46.546875 126.558594 46.390625 L 125.464844 45.9375 L 124.574219 48.046875 Z M 128.621094 46.3125 C 128.964844 46.617188 129.171875 46.992188 129.246094 47.4375 C 129.328125 47.875 129.269531 48.34375 129.074219 48.84375 C 128.75 49.625 128.269531 50.109375 127.636719 50.296875 C 127 50.484375 126.199219 50.378906 125.230469 49.984375 L 122.105469 48.6875 L 125.449219 40.609375 L 128.261719 41.78125 C 129.269531 42.199219 129.933594 42.671875 130.246094 43.203125 C 130.566406 43.726563 130.578125 44.355469 130.277344 45.09375 C 130.109375 45.492188 129.886719 45.792969 129.605469 46 C 129.324219 46.210938 128.996094 46.3125 128.621094 46.3125 Z M 133.054688 43.757813 L 136.179688 45.054688 C 137.09375 45.429688 137.710938 45.953125 138.023438 46.617188 C 138.335938 47.273438 138.3125 48.03125 137.960938 48.882813 C 137.617188 49.726563 137.09375 50.273438 136.398438 50.523438 C 135.710938 50.773438 134.90625 50.710938 133.992188 50.335938 L 132.757813 49.820313 L 131.601563 52.617188 L 129.710938 51.835938 Z M 134.320313 46.054688 L 133.382813 48.304688 L 134.414063 48.726563 C 134.777344 48.882813 135.101563 48.90625 135.382813 48.789063 C 135.664063 48.675781 135.875 48.441406 136.023438 48.085938 C 136.179688 47.722656 136.195313 47.40625 136.070313 47.132813 C 135.953125 46.851563 135.714844 46.632813 135.351563 46.476563 Z M 134.320313 46.054688 "/>
</g>
</svg>

