<?xml version="1.0" encoding="UTF-8"?>
<svg xmlns="http://www.w3.org/2000/svg" xmlns:xlink="http://www.w3.org/1999/xlink" width="256pt" height="256pt" viewBox="0 0 256 256" version="1.1">
<g id="surface2">
<rect x="0" y="0" width="256" height="256" style="fill:rgb(94.901961%,93.72549%,91.372549%);fill-opacity:1;stroke:none;"/>
<path style="fill:none;stroke-width:8;stroke-linecap:round;stroke-linejoin:round;stroke:rgb(75.686275%,70.980392%,61.568627%);stroke-opacity:1;stroke-miterlimit:10;" d="M -9 201.105469 L -5.128906 202.882813 L 0.53125 206.28125 L 5.050781 209.9375 L 7.429688 212.488281 L 9.035156 215.980469 L 10.503906 221.210938 L 14.371094 239.011719 L 16.515625 247.832031 L 18.332031 252.046875 L 21.011719 255.933594 L 26.394531 259.789063 L 33.742188 264 M 154.199219 264 L 158.355469 262.992188 L 167.953125 260.902344 L 172.613281 261.621094 L 177.808594 264 M 182.964844 264 L 183.9375 263.285156 L 186.433594 260.835938 L 189.882813 258.84375 L 194.609375 257.308594 L 197.734375 257.011719 L 214.90625 257.472656 L 225.625 256.914063 L 235.667969 256.71875 L 239.046875 256.359375 L 249.277344 253.941406 L 260.089844 251.363281 L 264 250.03125 "/>
<path style="fill:none;stroke-width:6;stroke-linecap:round;stroke-linejoin:round;stroke:rgb(100%,100%,100%);stroke-opacity:1;stroke-miterlimit:10;" d="M -9 201.105469 L -5.128906 202.882813 L 0.53125 206.28125 L 5.050781 209.9375 L 7.429688 212.488281 L 9.035156 215.980469 L 10.503906 221.210938 L 14.371094 239.011719 L 16.515625 247.832031 L 18.332031 252.046875 L 21.011719 255.933594 L 26.394531 259.789063 L 33.742188 264 M 154.199219 264 L 158.355469 262.992188 L 167.953125 260.902344 L 172.613281 261.621094 L 177.808594 264 M 182.964844 264 L 183.9375 263.285156 L 186.433594 260.835938 L 189.882813 258.84375 L 194.609375 257.308594 L 197.734375 257.011719 L 214.90625 257.472656 L 225.625 256.914063 L 235.667969 256.71875 L 239.046875 256.359375 L 249.277344 253.941406 L 260.089844 251.363281 L 264 250.03125 "/>
</g>
</svg>

