<?xml version="1.0" encoding="UTF-8"?>
<svg xmlns="http://www.w3.org/2000/svg" xmlns:xlink="http://www.w3.org/1999/xlink" width="256pt" height="256pt" viewBox="0 0 256 256" version="1.1">
<g id="surface2">
<rect x="0" y="0" width="256" height="256" style="fill:rgb(94.901961%,93.72549%,91.372549%);fill-opacity:1;stroke:none;"/>
<path style=" stroke:none;fill-rule:evenodd;fill:rgb(70.980392%,82.352941%,61.176471%);fill-opacity:1;" d="M 260 260 L 260 194.675781 L 232.058594 260 Z M 260 260 "/>
<path style=" stroke:none;fill-rule:evenodd;fill:rgb(81.960784%,81.568627%,80.392157%);fill-opacity:1;" d="M 199.890625 23.941406 L 212.910156 -0.484375 L 206.3125 -4 L 202.71875 -4 L 190.492188 18.929688 Z M 199.890625 23.941406 "/>
<path style="fill:none;stroke-width:1;stroke-linecap:round;stroke-linejoin:round;stroke:rgb(81.960784%,81.960784%,81.960784%);stroke-opacity:1;stroke-miterlimit:10;" d="M 199.890625 23.941406 L 212.910156 -0.484375 L 206.3125 -4 L 202.71875 -4 L 190.492188 18.929688 L 199.890625 23.941406 "/>
<path style=" stroke:none;fill-rule:evenodd;fill:rgb(81.960784%,81.568627%,80.392157%);fill-opacity:1;" d="M 234.371094 225.890625 L 243.820313 229.910156 L 254.589844 204.597656 L 245.136719 200.578125 Z M 234.371094 225.890625 "/>
<path style="fill:none;stroke-width:1;stroke-linecap:round;stroke-linejoin:round;stroke:rgb(81.960784%,81.960784%,81.960784%);stroke-opacity:1;stroke-miterlimit:10;" d="M 234.371094 225.890625 L 243.820313 229.910156 L 254.589844 204.597656 L 245.136719 200.578125 L 234.371094 225.890625 "/>
<path style=" stroke:none;fill-rule:evenodd;fill:rgb(60%,70.196078%,80%);fill-opacity:1;" d="M -4 -4 L 67.867188 -4 L 68.753906 23.210938 L 67.152344 39.011719 L 63.753906 38.8125 L 58.554688 37.210938 L 61.753906 40.613281 L 67.152344 42.613281 L 67.152344 49.8125 L 69.753906 55.011719 L 71.753906 66.414063 L 70.953125 83.8125 L 74.953125 100.8125 L 82.554688 145.011719 L 83.355469 153.613281 L 79.753906 157.8125 L 86.554688 162.613281 L 97.152344 195.011719 L 103.683594 204.367188 L 128.875 237.65625 L 140.90625 253.035156 L 145.902344 259 L 259 259 L 223.773438 259 L 226.355469 232.210938 L 226.15625 200.011719 L 223.753906 176.011719 L 215.152344 145.8125 L 203.152344 116.011719 L 185.554688 86.613281 L 166.753906 43.613281 L 158.152344 26.613281 L 145.152344 6.414063 L 136.289063 -4 Z M 132.351563 95.8125 L 134.554688 75.414063 L 134.15625 62.613281 L 134.15625 58.011719 L 137.355469 55.613281 L 141.15625 55.8125 L 144.355469 59.8125 L 150.753906 73.011719 L 153.355469 79.8125 L 164.753906 109.414063 L 184.953125 156.011719 L 197.554688 184.613281 L 201.953125 204.414063 L 202.957031 224.414063 L 201.152344 241.410156 L 197.152344 245.210938 L 194.152344 244.8125 L 188.554688 240.011719 L 184.351563 239.613281 L 175.152344 229.011719 L 168.554688 217.011719 L 160.554688 208.414063 L 154.15625 199.011719 L 144.355469 174.613281 L 133.15625 144.011719 L 131.355469 123.011719 Z M 132.351563 95.8125 "/>
<path style="fill:none;stroke-width:1;stroke-linecap:round;stroke-linejoin:round;stroke:rgb(70.196078%,77.647059%,83.137255%);stroke-opacity:1;stroke-miterlimit:10;" d="M -4 -4 L 67.867188 -4 L 68.753906 23.210938 L 67.152344 39.011719 L 63.753906 38.8125 L 58.554688 37.210938 L 61.753906 40.613281 L 67.152344 42.613281 L 67.152344 49.8125 L 69.753906 55.011719 L 71.753906 66.414063 L 70.953125 83.8125 L 74.953125 100.8125 L 82.554688 145.011719 L 83.355469 153.613281 L 79.753906 157.8125 L 86.554688 162.613281 L 97.152344 195.011719 L 103.683594 204.367188 L 128.875 237.65625 L 140.90625 253.035156 L 145.902344 259 L 259 259 L 223.773438 259 L 226.355469 232.210938 L 226.15625 200.011719 L 223.753906 176.011719 L 215.152344 145.8125 L 203.152344 116.011719 L 185.554688 86.613281 L 166.753906 43.613281 L 158.152344 26.613281 L 145.152344 6.414063 L 136.289063 -4 L -4 -4 M 132.351563 95.8125 L 134.554688 75.414063 L 134.15625 62.613281 L 134.15625 58.011719 L 137.355469 55.613281 L 141.15625 55.8125 L 144.355469 59.8125 L 150.753906 73.011719 L 153.355469 79.8125 L 164.753906 109.414063 L 184.953125 156.011719 L 197.554688 184.613281 L 201.953125 204.414063 L 202.957031 224.414063 L 201.152344 241.410156 L 197.152344 245.210938 L 194.152344 244.8125 L 188.554688 240.011719 L 184.351563 239.613281 L 175.152344 229.011719 L 168.554688 217.011719 L 160.554688 208.414063 L 154.15625 199.011719 L 144.355469 174.613281 L 133.15625 144.011719 L 131.355469 123.011719 L 132.351563 95.8125 "/>
<path style="fill:none;stroke-width:16;stroke-linecap:round;stroke-linejoin:round;stroke:rgb(60%,70.196078%,80%);stroke-opacity:1;stroke-miterlimit:10;" d="M 88.792969 -17 L 99.199219 81.398438 L 113.589844 168.738281 L 188.894531 272 "/>
<path style="fill:none;stroke-width:6;stroke-linecap:round;stroke-linejoin:round;stroke:rgb(60%,70.196078%,80%);stroke-opacity:1;stroke-miterlimit:10;" d="M 89.851563 -7 L 99.199219 81.398438 L 113.589844 168.738281 L 181.605469 262 "/>
<path style="fill:none;stroke-width:1;stroke-linecap:butt;stroke-linejoin:round;stroke:rgb(46.666667%,46.666667%,46.666667%);stroke-opacity:1;stroke-dasharray:2,2;stroke-miterlimit:10;" d="M -2 165.382813 L 7.300781 170.574219 L 20.246094 179.832031 L 32.410156 190.0625 L 44.300781 202.027344 L 56.28125 216.796875 L 66.609375 230.855469 L 85.5 257 "/>
<path style="fill:none;stroke-width:1;stroke-linecap:butt;stroke-linejoin:round;stroke:rgb(46.666667%,46.666667%,46.666667%);stroke-opacity:1;stroke-dasharray:2,2;stroke-miterlimit:10;" d="M 81.351563 257 L 64.078125 233.199219 L 53.46875 218.710938 L 42.042969 204.476563 L 30.410156 192.167969 L 18.457031 182.011719 L 5.980469 173.261719 L -2 168.785156 "/>
<path style="fill:none;stroke-width:1;stroke-linecap:butt;stroke-linejoin:round;stroke:rgb(46.666667%,46.666667%,46.666667%);stroke-opacity:1;stroke-dasharray:2,2;stroke-miterlimit:10;" d="M 205.183594 20.121094 L 209.980469 13.679688 L 213.132813 9.128906 L 215.191406 4.96875 L 217.476563 -0.957031 L 217.878906 -2 "/>
<path style="fill:none;stroke-width:1;stroke-linecap:butt;stroke-linejoin:round;stroke:rgb(46.666667%,46.666667%,46.666667%);stroke-opacity:1;stroke-dasharray:2,2;stroke-miterlimit:10;" d="M 202.6875 24.691406 L 205.183594 20.121094 L 209.445313 11.972656 L 211.578125 6.996094 L 213.992188 -0.691406 L 214.640625 -2 "/>
<path style="fill:none;stroke-width:1;stroke-linecap:butt;stroke-linejoin:round;stroke:rgb(46.666667%,46.666667%,46.666667%);stroke-opacity:1;stroke-dasharray:2,2;stroke-miterlimit:10;" d="M 206.035156 20.445313 L 209.921875 17.578125 L 214.460938 15.484375 L 218.191406 14.703125 L 222.195313 14.308594 L 225.582031 14.445313 L 228.804688 15.25 L 232.558594 16.5625 "/>
<path style="fill:none;stroke-width:1;stroke-linecap:butt;stroke-linejoin:round;stroke:rgb(46.666667%,46.666667%,46.666667%);stroke-opacity:1;stroke-dasharray:2,2;stroke-miterlimit:10;" d="M 223.226563 -2 L 222.542969 -1.265625 L 220.84375 0.578125 L 218.554688 3.0625 L 215.28125 8.066406 L 212.582031 12.996094 L 209.703125 16.523438 L 206.035156 20.445313 L 202.6875 24.691406 L 200.726563 28.554688 L 198.867188 34.949219 "/>
<path style="fill:none;stroke-width:1;stroke-linecap:round;stroke-linejoin:round;stroke:rgb(100%,100%,100%);stroke-opacity:1;stroke-dasharray:2,3;stroke-miterlimit:10;" d="M 16.800781 -2 L 34.175781 28.796875 L 37.976563 31.59375 L 42.777344 33.195313 L 49.976563 36.195313 L 57.574219 42.398438 L 63.777344 49.59375 L 66.976563 56.796875 L 68.976563 63.996094 L 68.976563 70.394531 L 62.976563 99.597656 L 60.976563 104.394531 L 57.574219 109.597656 L 56.777344 113.394531 L 59.574219 126.996094 L 76.777344 167.394531 L 88.175781 188.597656 L 95.375 200.394531 L 130.777344 246.796875 L 139.304688 257 "/>
<path style="fill:none;stroke-width:8;stroke-linecap:round;stroke-linejoin:round;stroke:rgb(75.686275%,70.980392%,61.568627%);stroke-opacity:1;stroke-miterlimit:10;" d="M 196.910156 12.230469 L 204.894531 -2.957031 "/>
<path style="fill:none;stroke-width:8;stroke-linecap:round;stroke-linejoin:round;stroke:rgb(75.686275%,70.980392%,61.568627%);stroke-opacity:1;stroke-miterlimit:10;" d="M 255.726563 197.191406 L 251.945313 195.96875 L 247.519531 196.824219 L 246.683594 197.441406 L 246.40625 198.675781 L 247.136719 201.765625 L 252.8125 204.699219 "/>
<path style="fill:none;stroke-width:8;stroke-linecap:round;stroke-linejoin:round;stroke:rgb(75.686275%,70.980392%,61.568627%);stroke-opacity:1;stroke-miterlimit:10;" d="M 247.726563 202.527344 L 238.285156 223.726563 L 242.675781 225.914063 L 252.8125 204.699219 "/>
<path style="fill:none;stroke-width:8;stroke-linecap:round;stroke-linejoin:round;stroke:rgb(75.686275%,70.980392%,61.568627%);stroke-opacity:1;stroke-miterlimit:10;" d="M 193.476563 10.238281 L 196.910156 12.230469 L 193.277344 19.101563 L 198.285156 21.753906 L 209.964844 -0.238281 L 204.894531 -2.957031 L 201.425781 -4.660156 "/>
<path style="fill:none;stroke-width:8;stroke-linecap:round;stroke-linejoin:round;stroke:rgb(75.686275%,70.980392%,61.568627%);stroke-opacity:1;stroke-miterlimit:10;" d="M 183.5625 19.324219 L 191.128906 13.507813 L 193.476563 10.238281 L 195.035156 8.230469 L 201.425781 -4.660156 L 203.121094 -8.085938 L 214.785156 -2.289063 L 217.476563 -0.957031 L 220.84375 0.578125 L 230.910156 6.488281 "/>
<path style="fill:none;stroke-width:8;stroke-linecap:round;stroke-linejoin:round;stroke:rgb(75.686275%,70.980392%,61.568627%);stroke-opacity:1;stroke-miterlimit:10;" d="M 252.8125 204.699219 L 255.726563 197.191406 L 258.621094 189.371094 L 258.5 183.246094 L 256.625 177 L 254.746094 169.746094 L 256.074219 165.757813 L 261.574219 162.007813 L 264 160.792969 "/>
<path style="fill:none;stroke-width:10;stroke-linecap:round;stroke-linejoin:round;stroke:rgb(72.941176%,43.137255%,15.294118%);stroke-opacity:1;stroke-miterlimit:10;" d="M -11 123.675781 L -4.503906 125.207031 L -0.0625 126.355469 L 4.039063 127.59375 L 7.988281 129 L 11.742188 130.46875 L 15.074219 131.929688 L 18.535156 133.652344 L 21.976563 135.558594 L 25.078125 137.402344 L 28.191406 139.410156 L 31.292969 141.523438 L 34.054688 143.535156 L 36.789063 145.644531 L 39.601563 147.984375 L 42.175781 150.261719 L 44.667969 152.566406 L 47.105469 155.011719 L 49.617188 157.773438 L 51.84375 160.355469 L 65.609375 178.117188 L 70.824219 184.703125 L 85.710938 202.910156 "/>
<path style="fill:none;stroke-width:10;stroke-linecap:round;stroke-linejoin:round;stroke:rgb(72.941176%,43.137255%,15.294118%);stroke-opacity:1;stroke-miterlimit:10;" d="M -1.804688 61.59375 L 8.492188 53.976563 L 13.046875 50.65625 L 18.917969 46.648438 L 22.167969 44.574219 L 25.171875 43.078125 L 27.890625 42.054688 L 30.839844 41.3125 L 33.988281 40.917969 L 37.054688 40.851563 L 40.023438 41.125 L 43.148438 41.789063 L 46.328125 42.9375 L 49.023438 44.265625 L 51.453125 45.773438 L 53.878906 47.613281 L 55.867188 49.5625 L 57.675781 51.660156 L 59.191406 53.839844 L 60.539063 56.257813 L 61.691406 58.867188 L 62.515625 61.539063 L 63.050781 64.117188 L 63.339844 66.9375 L 63.371094 69.742188 L 63.066406 72.53125 L 62.414063 75.527344 L 61.507813 78.257813 L 60.273438 81.003906 L 58.726563 83.648438 L 56.945313 86.097656 L 54.722656 88.488281 L 52.167969 90.671875 L 49.496094 92.417969 L 46.730469 93.914063 L 43.957031 94.9375 L 41.113281 95.664063 L 38.292969 96.105469 L 35.179688 96.226563 L 32.082031 95.992188 L 29.132813 95.523438 L 26.027344 94.566406 L 23.132813 93.335938 L 20.203125 91.675781 L 17.53125 89.957031 L 14.53125 87.796875 L 11.777344 85.675781 L 8.816406 83.09375 L 5.929688 80.460938 L 2.964844 77.484375 L 0.28125 74.480469 L -2.410156 71.203125 L -5.519531 67.113281 L -9.914063 60.960938 L -11 59.382813 "/>
<path style="fill:none;stroke-width:10;stroke-linecap:round;stroke-linejoin:round;stroke:rgb(72.941176%,43.137255%,15.294118%);stroke-opacity:1;stroke-miterlimit:10;" d="M 82.367188 189.933594 L 65.171875 162.652344 L 61.09375 155.878906 L 57.113281 149.066406 L 53.347656 142.417969 L 49.613281 135.671875 L 46.097656 129.03125 L 44.457031 125.726563 L 43.417969 122.898438 L 42.664063 120.128906 L 42.214844 117.210938 L 42.144531 114.628906 L 42.316406 111.945313 L 42.664063 109.316406 L 43.386719 106.402344 L 44.449219 103.714844 L 45.714844 101.105469 L 47.34375 98.511719 L 49.121094 96.320313 L 51.171875 94.28125 L 53.453125 92.382813 L 56.207031 90.03125 L 58.597656 87.457031 L 60.515625 84.816406 L 62.171875 81.984375 L 63.5 79.03125 L 64.476563 76.09375 L 65.175781 72.875 L 65.511719 69.84375 L 65.472656 66.816406 L 65.164063 63.792969 L 64.585938 61.003906 L 63.695313 58.117188 L 62.449219 55.304688 L 61.007813 52.707031 L 59.367188 50.347656 L 57.429688 48.09375 L 55.277344 45.992188 L 52.664063 44.007813 L 50.0625 42.394531 L 46.960938 40.964844 L 43.664063 39.855469 L 40.273438 39.121094 L 37.0625 38.835938 L 33.804688 38.941406 L 30.445313 39.328125 L 27.128906 40.125 L 23.925781 41.292969 L 21.015625 42.816406 L 17.789063 44.976563 L -3.070313 59.929688 "/>
<path style="fill:none;stroke-width:10;stroke-linecap:round;stroke-linejoin:round;stroke:rgb(72.941176%,43.137255%,15.294118%);stroke-opacity:1;stroke-miterlimit:10;" d="M -11 72.925781 L 1.445313 87.828125 "/>
<path style="fill:none;stroke-width:8;stroke-linecap:round;stroke-linejoin:round;stroke:rgb(75.686275%,70.980392%,61.568627%);stroke-opacity:1;stroke-miterlimit:10;" d="M 205.128906 53.976563 L 208.621094 47.855469 L 220.703125 25.691406 L 226.550781 14.6875 L 230.910156 6.488281 L 234.101563 0.488281 L 239.328125 -9 "/>
<path style="fill:none;stroke-width:8;stroke-linecap:round;stroke-linejoin:round;stroke:rgb(75.686275%,70.980392%,61.568627%);stroke-opacity:1;stroke-miterlimit:10;" d="M 252.253906 107.980469 L 254.96875 102.703125 L 260.625 91.988281 L 264 84.492188 "/>
<path style="fill:none;stroke-width:8;stroke-linecap:round;stroke-linejoin:round;stroke:rgb(75.686275%,70.980392%,61.568627%);stroke-opacity:1;stroke-miterlimit:10;" d="M 234.101563 0.488281 L 264 16.445313 "/>
<path style="fill:none;stroke-width:8;stroke-linecap:round;stroke-linejoin:round;stroke:rgb(75.686275%,70.980392%,61.568627%);stroke-opacity:1;stroke-miterlimit:10;" d="M 208.621094 47.855469 L 264 77.0625 "/>
<path style="fill:none;stroke-width:8;stroke-linecap:round;stroke-linejoin:round;stroke:rgb(75.686275%,70.980392%,61.568627%);stroke-opacity:1;stroke-miterlimit:10;" d="M 166.5625 -9 L 167.609375 -7.074219 L 183.5625 19.324219 L 187.109375 25.199219 L 196.5625 42.714844 L 205.128906 53.976563 L 212.289063 63.367188 L 252.253906 107.980469 L 264 119.496094 "/>
<path style="fill:none;stroke-width:10;stroke-linecap:round;stroke-linejoin:round;stroke:rgb(75.686275%,70.980392%,61.568627%);stroke-opacity:1;stroke-miterlimit:10;" d="M 266 130.59375 L 226.417969 90.84375 L 179.835938 27.316406 L 160.066406 -11 "/>
<path style="fill:none;stroke-width:11;stroke-linecap:round;stroke-linejoin:round;stroke:rgb(72.941176%,43.137255%,15.294118%);stroke-opacity:1;stroke-miterlimit:10;" d="M 1.445313 87.828125 L 85.710938 202.910156 "/>
<path style="fill:none;stroke-width:11;stroke-linecap:round;stroke-linejoin:round;stroke:rgb(72.941176%,43.137255%,15.294118%);stroke-opacity:1;stroke-miterlimit:10;" d="M -12 69.429688 L -11.160156 70.617188 L 1.445313 87.828125 "/>
<path style="fill:none;stroke-width:11;stroke-linecap:round;stroke-linejoin:round;stroke:rgb(72.941176%,43.137255%,15.294118%);stroke-opacity:1;stroke-miterlimit:10;" d="M 82.367188 189.933594 L -6.882813 67.816406 "/>
<path style="fill:none;stroke-width:11;stroke-linecap:round;stroke-linejoin:round;stroke:rgb(72.941176%,43.137255%,15.294118%);stroke-opacity:1;stroke-miterlimit:10;" d="M 85.710938 202.910156 L 132.640625 267 "/>
<path style="fill:none;stroke-width:11;stroke-linecap:round;stroke-linejoin:round;stroke:rgb(72.941176%,43.137255%,15.294118%);stroke-opacity:1;stroke-miterlimit:10;" d="M 138.691406 267 L 82.367188 189.933594 "/>
<path style="fill:none;stroke-width:6;stroke-linecap:round;stroke-linejoin:round;stroke:rgb(100%,100%,100%);stroke-opacity:1;stroke-miterlimit:10;" d="M 196.910156 12.230469 L 204.894531 -2.957031 "/>
<path style="fill:none;stroke-width:6;stroke-linecap:round;stroke-linejoin:round;stroke:rgb(100%,100%,100%);stroke-opacity:1;stroke-miterlimit:10;" d="M 255.726563 197.191406 L 251.945313 195.96875 L 247.519531 196.824219 L 246.683594 197.441406 L 246.40625 198.675781 L 247.136719 201.765625 L 252.8125 204.699219 "/>
<path style="fill:none;stroke-width:6;stroke-linecap:round;stroke-linejoin:round;stroke:rgb(100%,100%,100%);stroke-opacity:1;stroke-miterlimit:10;" d="M 247.726563 202.527344 L 238.285156 223.726563 L 242.675781 225.914063 L 252.8125 204.699219 "/>
<path style="fill:none;stroke-width:6;stroke-linecap:round;stroke-linejoin:round;stroke:rgb(100%,100%,100%);stroke-opacity:1;stroke-miterlimit:10;" d="M 193.476563 10.238281 L 196.910156 12.230469 L 193.277344 19.101563 L 198.285156 21.753906 L 209.964844 -0.238281 L 204.894531 -2.957031 L 201.425781 -4.660156 "/>
<path style="fill:none;stroke-width:6;stroke-linecap:round;stroke-linejoin:round;stroke:rgb(100%,100%,100%);stroke-opacity:1;stroke-miterlimit:10;" d="M 183.5625 19.324219 L 191.128906 13.507813 L 193.476563 10.238281 L 195.035156 8.230469 L 201.425781 -4.660156 L 203.121094 -8.085938 L 214.785156 -2.289063 L 217.476563 -0.957031 L 220.84375 0.578125 L 230.910156 6.488281 "/>
<path style="fill:none;stroke-width:6;stroke-linecap:round;stroke-linejoin:round;stroke:rgb(100%,100%,100%);stroke-opacity:1;stroke-miterlimit:10;" d="M 252.8125 204.699219 L 255.726563 197.191406 L 258.621094 189.371094 L 258.5 183.246094 L 256.625 177 L 254.746094 169.746094 L 256.074219 165.757813 L 261.574219 162.007813 L 264 160.792969 "/>
<path style="fill:none;stroke-width:8;stroke-linecap:round;stroke-linejoin:round;stroke:rgb(99.215686%,57.254902%,22.745098%);stroke-opacity:1;stroke-miterlimit:10;" d="M -11 123.675781 L -4.503906 125.207031 L -0.0625 126.355469 L 4.039063 127.59375 L 7.988281 129 L 11.742188 130.46875 L 15.074219 131.929688 L 18.535156 133.652344 L 21.976563 135.558594 L 25.078125 137.402344 L 28.191406 139.410156 L 31.292969 141.523438 L 34.054688 143.535156 L 36.789063 145.644531 L 39.601563 147.984375 L 42.175781 150.261719 L 44.667969 152.566406 L 47.105469 155.011719 L 49.617188 157.773438 L 51.84375 160.355469 L 65.609375 178.117188 L 70.824219 184.703125 L 85.710938 202.910156 "/>
<path style="fill:none;stroke-width:8;stroke-linecap:round;stroke-linejoin:round;stroke:rgb(99.215686%,57.254902%,22.745098%);stroke-opacity:1;stroke-miterlimit:10;" d="M -1.804688 61.59375 L 8.492188 53.976563 L 13.046875 50.65625 L 18.917969 46.648438 L 22.167969 44.574219 L 25.171875 43.078125 L 27.890625 42.054688 L 30.839844 41.3125 L 33.988281 40.917969 L 37.054688 40.851563 L 40.023438 41.125 L 43.148438 41.789063 L 46.328125 42.9375 L 49.023438 44.265625 L 51.453125 45.773438 L 53.878906 47.613281 L 55.867188 49.5625 L 57.675781 51.660156 L 59.191406 53.839844 L 60.539063 56.257813 L 61.691406 58.867188 L 62.515625 61.539063 L 63.050781 64.117188 L 63.339844 66.9375 L 63.371094 69.742188 L 63.066406 72.53125 L 62.414063 75.527344 L 61.507813 78.257813 L 60.273438 81.003906 L 58.726563 83.648438 L 56.945313 86.097656 L 54.722656 88.488281 L 52.167969 90.671875 L 49.496094 92.417969 L 46.730469 93.914063 L 43.957031 94.9375 L 41.113281 95.664063 L 38.292969 96.105469 L 35.179688 96.226563 L 32.082031 95.992188 L 29.132813 95.523438 L 26.027344 94.566406 L 23.132813 93.335938 L 20.203125 91.675781 L 17.53125 89.957031 L 14.53125 87.796875 L 11.777344 85.675781 L 8.816406 83.09375 L 5.929688 80.460938 L 2.964844 77.484375 L 0.28125 74.480469 L -2.410156 71.203125 L -5.519531 67.113281 L -9.914063 60.960938 L -11 59.382813 "/>
<path style="fill:none;stroke-width:8;stroke-linecap:round;stroke-linejoin:round;stroke:rgb(99.215686%,57.254902%,22.745098%);stroke-opacity:1;stroke-miterlimit:10;" d="M 82.367188 189.933594 L 65.171875 162.652344 L 61.09375 155.878906 L 57.113281 149.066406 L 53.347656 142.417969 L 49.613281 135.671875 L 46.097656 129.03125 L 44.457031 125.726563 L 43.417969 122.898438 L 42.664063 120.128906 L 42.214844 117.210938 L 42.144531 114.628906 L 42.316406 111.945313 L 42.664063 109.316406 L 43.386719 106.402344 L 44.449219 103.714844 L 45.714844 101.105469 L 47.34375 98.511719 L 49.121094 96.320313 L 51.171875 94.28125 L 53.453125 92.382813 L 56.207031 90.03125 L 58.597656 87.457031 L 60.515625 84.816406 L 62.171875 81.984375 L 63.5 79.03125 L 64.476563 76.09375 L 65.175781 72.875 L 65.511719 69.84375 L 65.472656 66.816406 L 65.164063 63.792969 L 64.585938 61.003906 L 63.695313 58.117188 L 62.449219 55.304688 L 61.007813 52.707031 L 59.367188 50.347656 L 57.429688 48.09375 L 55.277344 45.992188 L 52.664063 44.007813 L 50.0625 42.394531 L 46.960938 40.964844 L 43.664063 39.855469 L 40.273438 39.121094 L 37.0625 38.835938 L 33.804688 38.941406 L 30.445313 39.328125 L 27.128906 40.125 L 23.925781 41.292969 L 21.015625 42.816406 L 17.789063 44.976563 L -3.070313 59.929688 "/>
<path style="fill:none;stroke-width:8;stroke-linecap:round;stroke-linejoin:round;stroke:rgb(99.215686%,57.254902%,22.745098%);stroke-opacity:1;stroke-miterlimit:10;" d="M -11 72.925781 L 1.445313 87.828125 "/>
<path style="fill:none;stroke-width:6;stroke-linecap:round;stroke-linejoin:round;stroke:rgb(100%,100%,100%);stroke-opacity:1;stroke-miterlimit:10;" d="M 205.128906 53.976563 L 208.621094 47.855469 L 220.703125 25.691406 L 226.550781 14.6875 L 230.910156 6.488281 L 234.101563 0.488281 L 239.328125 -9 "/>
<path style="fill:none;stroke-width:6;stroke-linecap:round;stroke-linejoin:round;stroke:rgb(100%,100%,100%);stroke-opacity:1;stroke-miterlimit:10;" d="M 252.253906 107.980469 L 254.96875 102.703125 L 260.625 91.988281 L 264 84.492188 "/>
<path style="fill:none;stroke-width:6;stroke-linecap:round;stroke-linejoin:round;stroke:rgb(100%,100%,100%);stroke-opacity:1;stroke-miterlimit:10;" d="M 234.101563 0.488281 L 264 16.445313 "/>
<path style="fill:none;stroke-width:6;stroke-linecap:round;stroke-linejoin:round;stroke:rgb(100%,100%,100%);stroke-opacity:1;stroke-miterlimit:10;" d="M 208.621094 47.855469 L 264 77.0625 "/>
<path style="fill:none;stroke-width:6;stroke-linecap:round;stroke-linejoin:round;stroke:rgb(100%,100%,100%);stroke-opacity:1;stroke-miterlimit:10;" d="M 166.5625 -9 L 167.609375 -7.074219 L 183.5625 19.324219 L 187.109375 25.199219 L 196.5625 42.714844 L 205.128906 53.976563 L 212.289063 63.367188 L 252.253906 107.980469 L 264 119.496094 "/>
<path style="fill:none;stroke-width:8;stroke-linecap:round;stroke-linejoin:round;stroke:rgb(100%,99.215686%,54.509804%);stroke-opacity:1;stroke-miterlimit:10;" d="M 266 130.59375 L 226.417969 90.84375 L 179.835938 27.316406 L 160.066406 -11 "/>
<path style="fill:none;stroke-width:9;stroke-linecap:round;stroke-linejoin:round;stroke:rgb(99.215686%,57.254902%,22.745098%);stroke-opacity:1;stroke-miterlimit:10;" d="M 1.445313 87.828125 L 85.710938 202.910156 "/>
<path style="fill:none;stroke-width:9;stroke-linecap:round;stroke-linejoin:round;stroke:rgb(99.215686%,57.254902%,22.745098%);stroke-opacity:1;stroke-miterlimit:10;" d="M -12 69.429688 L -11.160156 70.617188 L 1.445313 87.828125 "/>
<path style="fill:none;stroke-width:9;stroke-linecap:round;stroke-linejoin:round;stroke:rgb(99.215686%,57.254902%,22.745098%);stroke-opacity:1;stroke-miterlimit:10;" d="M 82.367188 189.933594 L -6.882813 67.816406 "/>
<path style="fill:none;stroke-width:9;stroke-linecap:round;stroke-linejoin:round;stroke:rgb(99.215686%,57.254902%,22.745098%);stroke-opacity:1;stroke-miterlimit:10;" d="M 85.710938 202.910156 L 132.640625 267 "/>
<path style="fill:none;stroke-width:9;stroke-linecap:round;stroke-linejoin:round;stroke:rgb(99.215686%,57.254902%,22.745098%);stroke-opacity:1;stroke-miterlimit:10;" d="M 138.691406 267 L 82.367188 189.933594 "/>
<path style=" stroke:none;fill-rule:evenodd;fill:rgb(33.333333%,33.333333%,33.333333%);fill-opacity:1;" d="M 29.128906 109.675781 L 30.472656 111.519531 L 27.316406 117.347656 L 32.160156 113.816406 L 33.300781 115.378906 L 26.238281 120.535156 L 24.894531 118.707031 L 28.050781 112.847656 L 23.207031 116.394531 L 22.066406 114.832031 Z M 33.816406 116.078125 L 35.128906 117.875 L 33.675781 121.171875 L 37.238281 120.78125 L 38.550781 122.5625 L 32.707031 123.125 L 29.722656 125.296875 L 28.519531 123.65625 L 31.503906 121.484375 Z M 39.03125 131.394531 C 38.800781 131.082031 38.53125 130.910156 38.21875 130.878906 C 37.90625 130.847656 37.578125 130.960938 37.234375 131.222656 C 36.890625 131.472656 36.6875 131.746094 36.625 132.050781 C 36.5625 132.351563 36.644531 132.660156 36.875 132.972656 C 37.09375 133.273438 37.351563 133.433594 37.65625 133.457031 C 37.957031 133.476563 38.28125 133.363281 38.625 133.113281 C 38.976563 132.851563 39.1875 132.574219 39.25 132.285156 C 39.320313 131.992188 39.25 131.695313 39.03125 131.394531 Z M 38.75 129.753906 C 38.601563 129.277344 38.585938 128.84375 38.703125 128.457031 C 38.816406 128.0625 39.078125 127.714844 39.484375 127.410156 C 40.078125 126.972656 40.675781 126.84375 41.28125 127.019531 C 41.894531 127.199219 42.484375 127.675781 43.046875 128.457031 C 43.609375 129.21875 43.878906 129.910156 43.859375 130.535156 C 43.835938 131.160156 43.53125 131.691406 42.9375 132.128906 C 42.53125 132.429688 42.125 132.574219 41.71875 132.566406 C 41.3125 132.566406 40.90625 132.417969 40.5 132.128906 C 40.675781 132.667969 40.691406 133.152344 40.546875 133.582031 C 40.410156 134.019531 40.117188 134.402344 39.671875 134.738281 C 38.960938 135.246094 38.273438 135.425781 37.609375 135.269531 C 36.953125 135.113281 36.320313 134.621094 35.71875 133.800781 C 35.113281 132.964844 34.835938 132.207031 34.890625 131.519531 C 34.941406 130.839844 35.320313 130.25 36.03125 129.738281 C 36.476563 129.40625 36.929688 129.246094 37.390625 129.253906 C 37.847656 129.265625 38.300781 129.433594 38.75 129.753906 Z M 40.4375 129.097656 C 40.15625 129.308594 39.988281 129.542969 39.9375 129.800781 C 39.894531 130.050781 39.96875 130.308594 40.15625 130.566406 C 40.34375 130.816406 40.5625 130.949219 40.8125 130.972656 C 41.0625 131.003906 41.328125 130.914063 41.609375 130.707031 C 41.890625 130.5 42.054688 130.277344 42.109375 130.035156 C 42.160156 129.785156 42.09375 129.535156 41.90625 129.285156 C 41.71875 129.027344 41.492188 128.878906 41.234375 128.847656 C 40.984375 128.816406 40.71875 128.902344 40.4375 129.097656 Z M 38.871094 137.496094 L 40.183594 136.542969 C 40.234375 136.894531 40.3125 137.214844 40.417969 137.496094 C 40.53125 137.785156 40.671875 138.046875 40.839844 138.277344 C 41.191406 138.765625 41.621094 139.042969 42.121094 139.105469 C 42.621094 139.167969 43.183594 139 43.808594 138.605469 C 43.503906 138.519531 43.234375 138.394531 42.996094 138.230469 C 42.753906 138.074219 42.546875 137.871094 42.371094 137.621094 C 41.890625 136.972656 41.714844 136.300781 41.839844 135.589844 C 41.972656 134.882813 42.386719 134.277344 43.074219 133.777344 C 43.832031 133.214844 44.597656 132.992188 45.371094 133.105469 C 46.152344 133.210938 46.816406 133.636719 47.371094 134.386719 C 47.972656 135.222656 48.136719 136.089844 47.855469 136.996094 C 47.574219 137.902344 46.863281 138.769531 45.730469 139.605469 C 44.550781 140.457031 43.4375 140.859375 42.386719 140.808594 C 41.332031 140.765625 40.46875 140.28125 39.792969 139.355469 C 39.5625 139.050781 39.375 138.746094 39.230469 138.433594 C 39.082031 138.128906 38.964844 137.816406 38.871094 137.496094 Z M 43.761719 137.042969 C 43.96875 137.324219 44.222656 137.457031 44.527344 137.449219 C 44.839844 137.449219 45.203125 137.296875 45.621094 136.996094 C 46.027344 136.695313 46.28125 136.394531 46.386719 136.089844 C 46.5 135.789063 46.453125 135.496094 46.246094 135.214844 C 46.027344 134.914063 45.753906 134.773438 45.433594 134.792969 C 45.121094 134.804688 44.761719 134.960938 44.355469 135.261719 C 43.9375 135.566406 43.675781 135.863281 43.574219 136.152344 C 43.480469 136.445313 43.542969 136.738281 43.761719 137.042969 Z M 48.996094 144.21875 C 49.878906 143.570313 50.441406 143.046875 50.683594 142.640625 C 50.921875 142.226563 50.917969 141.84375 50.667969 141.5 C 50.40625 141.148438 50.042969 141.027344 49.574219 141.140625 C 49.113281 141.246094 48.441406 141.621094 47.558594 142.265625 C 46.652344 142.921875 46.066406 143.457031 45.808594 143.875 C 45.558594 144.300781 45.5625 144.691406 45.824219 145.046875 C 46.074219 145.390625 46.4375 145.5 46.917969 145.375 C 47.394531 145.257813 48.089844 144.875 48.996094 144.21875 Z M 50.152344 145.875 C 48.984375 146.726563 47.917969 147.160156 46.949219 147.171875 C 45.988281 147.179688 45.203125 146.769531 44.589844 145.9375 C 43.972656 145.09375 43.816406 144.210938 44.121094 143.296875 C 44.421875 142.382813 45.15625 141.496094 46.324219 140.640625 C 47.5 139.789063 48.574219 139.355469 49.542969 139.34375 C 50.511719 139.335938 51.300781 139.75 51.917969 140.59375 C 52.53125 141.429688 52.683594 142.304688 52.371094 143.21875 C 52.066406 144.132813 51.328125 145.019531 50.152344 145.875 Z M 50.152344 145.875 "/>
<path style="fill:none;stroke-width:3;stroke-linecap:round;stroke-linejoin:round;stroke:rgb(100%,100%,100%);stroke-opacity:1;stroke-miterlimit:10;" d="M 183.988281 27.648438 L 179.628906 28.960938 L 181.285156 31.335938 Z M 184.628906 26.492188 L 185.316406 27.476563 L 179.863281 34.960938 L 179.222656 34.039063 L 180.660156 32.164063 L 178.628906 29.257813 L 176.363281 29.960938 L 175.722656 29.039063 Z M 187.542969 36.507813 C 188.082031 36.414063 188.546875 36.429688 188.933594 36.554688 C 189.316406 36.6875 189.644531 36.945313 189.917969 37.320313 C 190.292969 37.820313 190.386719 38.34375 190.199219 38.898438 C 190.011719 39.449219 189.5625 39.984375 188.855469 40.507813 L 185.652344 42.851563 L 185.058594 42.054688 L 188.214844 39.742188 C 188.734375 39.367188 189.058594 39.007813 189.183594 38.664063 C 189.308594 38.328125 189.246094 37.992188 188.996094 37.648438 C 188.703125 37.25 188.324219 37.042969 187.855469 37.023438 C 187.386719 37 186.890625 37.183594 186.371094 37.570313 L 183.386719 39.757813 L 182.808594 38.976563 L 185.964844 36.664063 C 186.484375 36.289063 186.800781 35.929688 186.917969 35.585938 C 187.042969 35.242188 186.980469 34.90625 186.730469 34.570313 C 186.4375 34.164063 186.058594 33.957031 185.589844 33.945313 C 185.121094 33.925781 184.625 34.109375 184.105469 34.492188 L 181.121094 36.679688 L 180.542969 35.898438 L 185.839844 32.023438 L 186.417969 32.804688 L 185.589844 33.398438 C 186.046875 33.359375 186.441406 33.40625 186.777344 33.539063 C 187.121094 33.664063 187.417969 33.898438 187.667969 34.242188 C 187.917969 34.585938 188.035156 34.953125 188.027344 35.335938 C 188.015625 35.71875 187.855469 36.109375 187.542969 36.507813 Z M 194.152344 43.675781 L 193.324219 44.285156 C 193.292969 43.972656 193.21875 43.675781 193.105469 43.394531 C 192.988281 43.105469 192.839844 42.832031 192.652344 42.582031 C 192.371094 42.199219 192.089844 41.953125 191.808594 41.847656 C 191.535156 41.746094 191.265625 41.792969 190.996094 41.988281 C 190.796875 42.136719 190.691406 42.324219 190.683594 42.550781 C 190.671875 42.769531 190.765625 43.128906 190.964844 43.628906 L 191.105469 43.941406 C 191.375 44.597656 191.472656 45.128906 191.402344 45.535156 C 191.339844 45.941406 191.09375 46.300781 190.667969 46.613281 C 190.167969 46.976563 189.644531 47.089844 189.105469 46.957031 C 188.5625 46.820313 188.066406 46.445313 187.621094 45.832031 C 187.433594 45.582031 187.265625 45.292969 187.121094 44.972656 C 186.972656 44.660156 186.839844 44.308594 186.714844 43.925781 L 187.621094 43.269531 C 187.671875 43.664063 187.753906 44.035156 187.871094 44.378906 C 187.996094 44.722656 188.15625 45.027344 188.355469 45.300781 C 188.625 45.664063 188.90625 45.898438 189.199219 46.003906 C 189.488281 46.105469 189.765625 46.058594 190.027344 45.863281 C 190.253906 45.695313 190.375 45.492188 190.386719 45.253906 C 190.40625 45.011719 190.300781 44.613281 190.074219 44.050781 L 189.933594 43.722656 C 189.691406 43.160156 189.609375 42.683594 189.683594 42.285156 C 189.765625 41.890625 190.011719 41.546875 190.417969 41.253906 C 190.917969 40.890625 191.417969 40.769531 191.917969 40.894531 C 192.425781 41.019531 192.890625 41.371094 193.308594 41.941406 C 193.527344 42.234375 193.703125 42.527344 193.839844 42.816406 C 193.984375 43.109375 194.089844 43.394531 194.152344 43.675781 Z M 197.476563 44.726563 L 195.976563 45.835938 L 197.164063 47.460938 L 196.476563 47.960938 L 195.289063 46.335938 L 192.414063 48.429688 C 191.984375 48.75 191.75 49.011719 191.710938 49.210938 C 191.667969 49.40625 191.765625 49.667969 192.007813 49.992188 L 192.601563 50.804688 L 191.867188 51.335938 L 191.273438 50.523438 C 190.824219 49.917969 190.640625 49.40625 190.726563 48.992188 C 190.808594 48.585938 191.179688 48.136719 191.835938 47.648438 L 194.710938 45.554688 L 194.289063 44.976563 L 194.976563 44.476563 L 195.398438 45.054688 L 196.898438 43.945313 Z M 198.464844 54.34375 L 198.042969 54.640625 L 195.402344 51.03125 C 194.816406 51.511719 194.480469 52.007813 194.386719 52.53125 C 194.292969 53.050781 194.4375 53.570313 194.824219 54.09375 C 195.042969 54.394531 195.292969 54.65625 195.574219 54.875 C 195.863281 55.09375 196.191406 55.285156 196.558594 55.453125 L 195.730469 56.0625 C 195.40625 55.863281 195.097656 55.644531 194.808594 55.40625 C 194.515625 55.164063 194.253906 54.894531 194.027344 54.59375 C 193.472656 53.832031 193.277344 53.046875 193.433594 52.234375 C 193.597656 51.433594 194.105469 50.726563 194.949219 50.109375 C 195.8125 49.476563 196.65625 49.183594 197.480469 49.234375 C 198.300781 49.277344 198.972656 49.664063 199.496094 50.390625 C 199.964844 51.027344 200.105469 51.695313 199.917969 52.40625 C 199.738281 53.113281 199.253906 53.757813 198.464844 54.34375 Z M 198.152344 53.34375 C 198.621094 53 198.910156 52.601563 199.027344 52.15625 C 199.140625 51.71875 199.050781 51.308594 198.761719 50.921875 C 198.449219 50.484375 198.058594 50.242188 197.589844 50.1875 C 197.121094 50.125 196.621094 50.257813 196.089844 50.578125 Z M 203.046875 57.167969 C 203.035156 57.050781 203.003906 56.933594 202.953125 56.808594 C 202.910156 56.683594 202.84375 56.558594 202.75 56.433594 C 202.4375 55.996094 202.03125 55.777344 201.53125 55.777344 C 201.03125 55.769531 200.476563 55.980469 199.875 56.417969 L 197.09375 58.464844 L 196.515625 57.683594 L 201.8125 53.808594 L 202.390625 54.589844 L 201.5625 55.183594 C 202.007813 55.121094 202.40625 55.167969 202.75 55.324219 C 203.101563 55.472656 203.414063 55.726563 203.6875 56.089844 C 203.726563 56.152344 203.769531 56.222656 203.8125 56.292969 C 203.851563 56.367188 203.894531 56.445313 203.9375 56.527344 Z M 205.953125 61.121094 L 208.828125 59.027344 L 209.390625 59.808594 L 202.03125 65.199219 L 201.46875 64.417969 L 202.265625 63.839844 C 201.828125 63.902344 201.4375 63.863281 201.09375 63.730469 C 200.757813 63.605469 200.460938 63.363281 200.203125 63.011719 C 199.773438 62.425781 199.6875 61.765625 199.9375 61.027344 C 200.1875 60.289063 200.722656 59.617188 201.546875 59.011719 C 202.378906 58.398438 203.179688 58.085938 203.953125 58.074219 C 204.734375 58.066406 205.335938 58.351563 205.765625 58.933594 C 206.023438 59.289063 206.171875 59.644531 206.203125 59.996094 C 206.234375 60.351563 206.148438 60.722656 205.953125 61.121094 Z M 202.140625 59.808594 C 201.503906 60.277344 201.09375 60.761719 200.90625 61.261719 C 200.71875 61.769531 200.773438 62.234375 201.078125 62.652344 C 201.378906 63.058594 201.800781 63.246094 202.34375 63.214844 C 202.882813 63.191406 203.472656 62.949219 204.109375 62.480469 C 204.753906 62.011719 205.164063 61.519531 205.34375 61.011719 C 205.53125 60.511719 205.472656 60.058594 205.171875 59.652344 C 204.867188 59.238281 204.445313 59.042969 203.90625 59.074219 C 203.375 59.097656 202.785156 59.339844 202.140625 59.808594 Z M 207.460938 67.027344 C 207 66.402344 206.601563 66.027344 206.257813 65.902344 C 205.921875 65.777344 205.558594 65.855469 205.164063 66.136719 C 204.859375 66.363281 204.683594 66.636719 204.632813 66.949219 C 204.589844 67.261719 204.683594 67.574219 204.914063 67.886719 C 205.234375 68.3125 205.664063 68.53125 206.195313 68.542969 C 206.726563 68.5625 207.277344 68.363281 207.851563 67.949219 L 208.039063 67.808594 Z M 208.976563 68.324219 L 205.945313 70.542969 L 205.382813 69.761719 L 206.195313 69.167969 C 205.734375 69.230469 205.328125 69.183594 204.976563 69.027344 C 204.632813 68.878906 204.3125 68.609375 204.023438 68.214844 C 203.667969 67.734375 203.539063 67.234375 203.632813 66.714844 C 203.734375 66.203125 204.039063 65.769531 204.539063 65.402344 C 205.140625 64.964844 205.726563 64.816406 206.289063 64.949219 C 206.851563 65.074219 207.390625 65.496094 207.914063 66.214844 L 208.726563 67.308594 L 208.804688 67.246094 C 209.210938 66.953125 209.433594 66.605469 209.476563 66.199219 C 209.515625 65.804688 209.382813 65.394531 209.070313 64.964844 C 208.871094 64.695313 208.636719 64.460938 208.367188 64.261719 C 208.105469 64.066406 207.820313 63.898438 207.507813 63.761719 L 208.304688 63.167969 C 208.636719 63.355469 208.933594 63.566406 209.195313 63.792969 C 209.453125 64.023438 209.679688 64.269531 209.867188 64.527344 C 210.375 65.214844 210.554688 65.871094 210.398438 66.496094 C 210.25 67.121094 209.777344 67.730469 208.976563 68.324219 Z M 214.105469 72.734375 C 214.644531 72.640625 215.109375 72.65625 215.496094 72.78125 C 215.878906 72.914063 216.207031 73.171875 216.480469 73.546875 C 216.855469 74.046875 216.949219 74.570313 216.761719 75.125 C 216.574219 75.675781 216.125 76.210938 215.417969 76.734375 L 212.214844 79.078125 L 211.621094 78.28125 L 214.777344 75.96875 C 215.296875 75.59375 215.621094 75.234375 215.746094 74.890625 C 215.871094 74.554688 215.808594 74.21875 215.558594 73.875 C 215.265625 73.476563 214.886719 73.269531 214.417969 73.25 C 213.949219 73.226563 213.453125 73.410156 212.933594 73.796875 L 209.949219 75.984375 L 209.371094 75.203125 L 212.527344 72.890625 C 213.046875 72.515625 213.363281 72.15625 213.480469 71.8125 C 213.605469 71.46875 213.542969 71.132813 213.292969 70.796875 C 213 70.390625 212.621094 70.183594 212.152344 70.171875 C 211.683594 70.152344 211.1875 70.335938 210.667969 70.71875 L 207.683594 72.90625 L 207.105469 72.125 L 212.402344 68.25 L 212.980469 69.03125 L 212.152344 69.625 C 212.609375 69.585938 213.003906 69.632813 213.339844 69.765625 C 213.683594 69.890625 213.980469 70.125 214.230469 70.46875 C 214.480469 70.8125 214.597656 71.179688 214.589844 71.5625 C 214.578125 71.945313 214.417969 72.335938 214.105469 72.734375 Z M 220.925781 84.003906 C 220.988281 84.242188 220.964844 84.527344 220.863281 84.863281 C 220.757813 85.207031 220.570313 85.613281 220.300781 86.082031 L 219.035156 88.378906 L 218.347656 87.441406 L 219.566406 85.300781 C 219.878906 84.746094 220.039063 84.316406 220.050781 84.003906 C 220.058594 83.691406 219.941406 83.363281 219.691406 83.019531 L 219.003906 82.097656 L 216.019531 84.285156 L 215.394531 83.425781 L 222.457031 78.253906 L 223.878906 80.191406 C 224.410156 80.910156 224.632813 81.574219 224.550781 82.175781 C 224.476563 82.777344 224.101563 83.332031 223.425781 83.832031 C 222.976563 84.152344 222.539063 84.332031 222.113281 84.363281 C 221.683594 84.394531 221.289063 84.273438 220.925781 84.003906 Z M 222.300781 79.691406 L 219.785156 81.519531 L 220.582031 82.597656 C 220.882813 83.011719 221.214844 83.246094 221.582031 83.300781 C 221.957031 83.351563 222.351563 83.226563 222.769531 82.925781 C 223.175781 82.621094 223.402344 82.296875 223.457031 81.941406 C 223.519531 81.578125 223.398438 81.1875 223.097656 80.769531 Z M 225.863281 87.800781 C 225.550781 87.386719 225.121094 87.199219 224.582031 87.238281 C 224.050781 87.269531 223.472656 87.519531 222.847656 87.988281 C 222.210938 88.457031 221.800781 88.945313 221.613281 89.457031 C 221.433594 89.964844 221.503906 90.429688 221.816406 90.847656 C 222.128906 91.261719 222.554688 91.457031 223.097656 91.425781 C 223.648438 91.394531 224.238281 91.144531 224.863281 90.675781 C 225.476563 90.207031 225.871094 89.710938 226.050781 89.191406 C 226.238281 88.679688 226.175781 88.21875 225.863281 87.800781 Z M 226.597656 87.253906 C 227.105469 87.933594 227.257813 88.644531 227.050781 89.394531 C 226.851563 90.152344 226.324219 90.855469 225.472656 91.503906 C 224.605469 92.148438 223.785156 92.460938 223.003906 92.441406 C 222.230469 92.429688 221.589844 92.085938 221.082031 91.410156 C 220.570313 90.730469 220.414063 90.011719 220.613281 89.253906 C 220.820313 88.503906 221.355469 87.808594 222.222656 87.160156 C 223.074219 86.515625 223.886719 86.203125 224.660156 86.222656 C 225.441406 86.234375 226.085938 86.578125 226.597656 87.253906 Z M 228.566406 94.703125 C 228.011719 94.152344 227.558594 93.839844 227.207031 93.765625 C 226.851563 93.695313 226.503906 93.824219 226.160156 94.15625 C 225.886719 94.425781 225.753906 94.71875 225.753906 95.03125 C 225.753906 95.351563 225.894531 95.65625 226.175781 95.9375 C 226.550781 96.3125 227.003906 96.46875 227.535156 96.40625 C 228.066406 96.34375 228.582031 96.0625 229.082031 95.5625 L 229.253906 95.390625 Z M 230.253906 95.765625 L 227.597656 98.40625 L 226.910156 97.71875 L 227.613281 97.015625 C 227.175781 97.140625 226.769531 97.148438 226.394531 97.046875 C 226.027344 96.953125 225.679688 96.734375 225.347656 96.390625 C 224.917969 95.960938 224.714844 95.488281 224.738281 94.96875 C 224.757813 94.445313 224.988281 93.96875 225.425781 93.53125 C 225.957031 93.011719 226.507813 92.777344 227.082031 92.828125 C 227.664063 92.871094 228.269531 93.203125 228.894531 93.828125 L 229.847656 94.796875 L 229.925781 94.71875 C 230.277344 94.367188 230.445313 93.992188 230.425781 93.59375 C 230.414063 93.1875 230.222656 92.796875 229.847656 92.421875 C 229.605469 92.195313 229.339844 91.996094 229.050781 91.828125 C 228.757813 91.664063 228.445313 91.539063 228.113281 91.453125 L 228.816406 90.75 C 229.179688 90.886719 229.503906 91.046875 229.785156 91.234375 C 230.074219 91.421875 230.335938 91.632813 230.566406 91.859375 C 231.167969 92.464844 231.445313 93.089844 231.394531 93.734375 C 231.339844 94.382813 230.960938 95.054688 230.253906 95.765625 Z M 235.683594 98.636719 L 238.214844 96.121094 L 238.886719 96.808594 L 232.417969 103.246094 L 231.746094 102.558594 L 232.449219 101.871094 C 232.011719 101.996094 231.613281 102.015625 231.261719 101.933594 C 230.917969 101.859375 230.589844 101.667969 230.277344 101.355469 C 229.765625 100.84375 229.578125 100.203125 229.714844 99.433594 C 229.859375 98.675781 230.296875 97.929688 231.027344 97.199219 C 231.753906 96.472656 232.5 96.042969 233.261719 95.917969 C 234.019531 95.792969 234.65625 95.988281 235.167969 96.496094 C 235.480469 96.808594 235.671875 97.136719 235.746094 97.480469 C 235.828125 97.824219 235.808594 98.210938 235.683594 98.636719 Z M 231.730469 97.902344 C 231.167969 98.457031 230.828125 98.996094 230.714844 99.527344 C 230.597656 100.066406 230.722656 100.515625 231.089844 100.871094 C 231.441406 101.234375 231.886719 101.359375 232.417969 101.246094 C 232.957031 101.128906 233.511719 100.796875 234.074219 100.246094 C 234.636719 99.683594 234.96875 99.140625 235.074219 98.621094 C 235.175781 98.101563 235.050781 97.660156 234.699219 97.292969 C 234.332031 96.941406 233.886719 96.816406 233.355469 96.917969 C 232.832031 97.011719 232.292969 97.339844 231.730469 97.902344 Z M 231.730469 97.902344 "/>
<path style=" stroke:none;fill-rule:evenodd;fill:rgb(20%,20%,20%);fill-opacity:1;" d="M 183.988281 27.648438 L 179.628906 28.960938 L 181.285156 31.335938 Z M 184.628906 26.492188 L 185.316406 27.476563 L 179.863281 34.960938 L 179.222656 34.039063 L 180.660156 32.164063 L 178.628906 29.257813 L 176.363281 29.960938 L 175.722656 29.039063 Z M 187.542969 36.507813 C 188.082031 36.414063 188.546875 36.429688 188.933594 36.554688 C 189.316406 36.6875 189.644531 36.945313 189.917969 37.320313 C 190.292969 37.820313 190.386719 38.34375 190.199219 38.898438 C 190.011719 39.449219 189.5625 39.984375 188.855469 40.507813 L 185.652344 42.851563 L 185.058594 42.054688 L 188.214844 39.742188 C 188.734375 39.367188 189.058594 39.007813 189.183594 38.664063 C 189.308594 38.328125 189.246094 37.992188 188.996094 37.648438 C 188.703125 37.25 188.324219 37.042969 187.855469 37.023438 C 187.386719 37 186.890625 37.183594 186.371094 37.570313 L 183.386719 39.757813 L 182.808594 38.976563 L 185.964844 36.664063 C 186.484375 36.289063 186.800781 35.929688 186.917969 35.585938 C 187.042969 35.242188 186.980469 34.90625 186.730469 34.570313 C 186.4375 34.164063 186.058594 33.957031 185.589844 33.945313 C 185.121094 33.925781 184.625 34.109375 184.105469 34.492188 L 181.121094 36.679688 L 180.542969 35.898438 L 185.839844 32.023438 L 186.417969 32.804688 L 185.589844 33.398438 C 186.046875 33.359375 186.441406 33.40625 186.777344 33.539063 C 187.121094 33.664063 187.417969 33.898438 187.667969 34.242188 C 187.917969 34.585938 188.035156 34.953125 188.027344 35.335938 C 188.015625 35.71875 187.855469 36.109375 187.542969 36.507813 Z M 194.152344 43.675781 L 193.324219 44.285156 C 193.292969 43.972656 193.21875 43.675781 193.105469 43.394531 C 192.988281 43.105469 192.839844 42.832031 192.652344 42.582031 C 192.371094 42.199219 192.089844 41.953125 191.808594 41.847656 C 191.535156 41.746094 191.265625 41.792969 190.996094 41.988281 C 190.796875 42.136719 190.691406 42.324219 190.683594 42.550781 C 190.671875 42.769531 190.765625 43.128906 190.964844 43.628906 L 191.105469 43.941406 C 191.375 44.597656 191.472656 45.128906 191.402344 45.535156 C 191.339844 45.941406 191.09375 46.300781 190.667969 46.613281 C 190.167969 46.976563 189.644531 47.089844 189.105469 46.957031 C 188.5625 46.820313 188.066406 46.445313 187.621094 45.832031 C 187.433594 45.582031 187.265625 45.292969 187.121094 44.972656 C 186.972656 44.660156 186.839844 44.308594 186.714844 43.925781 L 187.621094 43.269531 C 187.671875 43.664063 187.753906 44.035156 187.871094 44.378906 C 187.996094 44.722656 188.15625 45.027344 188.355469 45.300781 C 188.625 45.664063 188.90625 45.898438 189.199219 46.003906 C 189.488281 46.105469 189.765625 46.058594 190.027344 45.863281 C 190.253906 45.695313 190.375 45.492188 190.386719 45.253906 C 190.40625 45.011719 190.300781 44.613281 190.074219 44.050781 L 189.933594 43.722656 C 189.691406 43.160156 189.609375 42.683594 189.683594 42.285156 C 189.765625 41.890625 190.011719 41.546875 190.417969 41.253906 C 190.917969 40.890625 191.417969 40.769531 191.917969 40.894531 C 192.425781 41.019531 192.890625 41.371094 193.308594 41.941406 C 193.527344 42.234375 193.703125 42.527344 193.839844 42.816406 C 193.984375 43.109375 194.089844 43.394531 194.152344 43.675781 Z M 197.476563 44.726563 L 195.976563 45.835938 L 197.164063 47.460938 L 196.476563 47.960938 L 195.289063 46.335938 L 192.414063 48.429688 C 191.984375 48.75 191.75 49.011719 191.710938 49.210938 C 191.667969 49.40625 191.765625 49.667969 192.007813 49.992188 L 192.601563 50.804688 L 191.867188 51.335938 L 191.273438 50.523438 C 190.824219 49.917969 190.640625 49.40625 190.726563 48.992188 C 190.808594 48.585938 191.179688 48.136719 191.835938 47.648438 L 194.710938 45.554688 L 194.289063 44.976563 L 194.976563 44.476563 L 195.398438 45.054688 L 196.898438 43.945313 Z M 198.464844 54.34375 L 198.042969 54.640625 L 195.402344 51.03125 C 194.816406 51.511719 194.480469 52.007813 194.386719 52.53125 C 194.292969 53.050781 194.4375 53.570313 194.824219 54.09375 C 195.042969 54.394531 195.292969 54.65625 195.574219 54.875 C 195.863281 55.09375 196.191406 55.285156 196.558594 55.453125 L 195.730469 56.0625 C 195.40625 55.863281 195.097656 55.644531 194.808594 55.40625 C 194.515625 55.164063 194.253906 54.894531 194.027344 54.59375 C 193.472656 53.832031 193.277344 53.046875 193.433594 52.234375 C 193.597656 51.433594 194.105469 50.726563 194.949219 50.109375 C 195.8125 49.476563 196.65625 49.183594 197.480469 49.234375 C 198.300781 49.277344 198.972656 49.664063 199.496094 50.390625 C 199.964844 51.027344 200.105469 51.695313 199.917969 52.40625 C 199.738281 53.113281 199.253906 53.757813 198.464844 54.34375 Z M 198.152344 53.34375 C 198.621094 53 198.910156 52.601563 199.027344 52.15625 C 199.140625 51.71875 199.050781 51.308594 198.761719 50.921875 C 198.449219 50.484375 198.058594 50.242188 197.589844 50.1875 C 197.121094 50.125 196.621094 50.257813 196.089844 50.578125 Z M 203.046875 57.167969 C 203.035156 57.050781 203.003906 56.933594 202.953125 56.808594 C 202.910156 56.683594 202.84375 56.558594 202.75 56.433594 C 202.4375 55.996094 202.03125 55.777344 201.53125 55.777344 C 201.03125 55.769531 200.476563 55.980469 199.875 56.417969 L 197.09375 58.464844 L 196.515625 57.683594 L 201.8125 53.808594 L 202.390625 54.589844 L 201.5625 55.183594 C 202.007813 55.121094 202.40625 55.167969 202.75 55.324219 C 203.101563 55.472656 203.414063 55.726563 203.6875 56.089844 C 203.726563 56.152344 203.769531 56.222656 203.8125 56.292969 C 203.851563 56.367188 203.894531 56.445313 203.9375 56.527344 Z M 205.953125 61.121094 L 208.828125 59.027344 L 209.390625 59.808594 L 202.03125 65.199219 L 201.46875 64.417969 L 202.265625 63.839844 C 201.828125 63.902344 201.4375 63.863281 201.09375 63.730469 C 200.757813 63.605469 200.460938 63.363281 200.203125 63.011719 C 199.773438 62.425781 199.6875 61.765625 199.9375 61.027344 C 200.1875 60.289063 200.722656 59.617188 201.546875 59.011719 C 202.378906 58.398438 203.179688 58.085938 203.953125 58.074219 C 204.734375 58.066406 205.335938 58.351563 205.765625 58.933594 C 206.023438 59.289063 206.171875 59.644531 206.203125 59.996094 C 206.234375 60.351563 206.148438 60.722656 205.953125 61.121094 Z M 202.140625 59.808594 C 201.503906 60.277344 201.09375 60.761719 200.90625 61.261719 C 200.71875 61.769531 200.773438 62.234375 201.078125 62.652344 C 201.378906 63.058594 201.800781 63.246094 202.34375 63.214844 C 202.882813 63.191406 203.472656 62.949219 204.109375 62.480469 C 204.753906 62.011719 205.164063 61.519531 205.34375 61.011719 C 205.53125 60.511719 205.472656 60.058594 205.171875 59.652344 C 204.867188 59.238281 204.445313 59.042969 203.90625 59.074219 C 203.375 59.097656 202.785156 59.339844 202.140625 59.808594 Z M 207.460938 67.027344 C 207 66.402344 206.601563 66.027344 206.257813 65.902344 C 205.921875 65.777344 205.558594 65.855469 205.164063 66.136719 C 204.859375 66.363281 204.683594 66.636719 204.632813 66.949219 C 204.589844 67.261719 204.683594 67.574219 204.914063 67.886719 C 205.234375 68.3125 205.664063 68.53125 206.195313 68.542969 C 206.726563 68.5625 207.277344 68.363281 207.851563 67.949219 L 208.039063 67.808594 Z M 208.976563 68.324219 L 205.945313 70.542969 L 205.382813 69.761719 L 206.195313 69.167969 C 205.734375 69.230469 205.328125 69.183594 204.976563 69.027344 C 204.632813 68.878906 204.3125 68.609375 204.023438 68.214844 C 203.667969 67.734375 203.539063 67.234375 203.632813 66.714844 C 203.734375 66.203125 204.039063 65.769531 204.539063 65.402344 C 205.140625 64.964844 205.726563 64.816406 206.289063 64.949219 C 206.851563 65.074219 207.390625 65.496094 207.914063 66.214844 L 208.726563 67.308594 L 208.804688 67.246094 C 209.210938 66.953125 209.433594 66.605469 209.476563 66.199219 C 209.515625 65.804688 209.382813 65.394531 209.070313 64.964844 C 208.871094 64.695313 208.636719 64.460938 208.367188 64.261719 C 208.105469 64.066406 207.820313 63.898438 207.507813 63.761719 L 208.304688 63.167969 C 208.636719 63.355469 208.933594 63.566406 209.195313 63.792969 C 209.453125 64.023438 209.679688 64.269531 209.867188 64.527344 C 210.375 65.214844 210.554688 65.871094 210.398438 66.496094 C 210.25 67.121094 209.777344 67.730469 208.976563 68.324219 Z M 214.105469 72.734375 C 214.644531 72.640625 215.109375 72.65625 215.496094 72.78125 C 215.878906 72.914063 216.207031 73.171875 216.480469 73.546875 C 216.855469 74.046875 216.949219 74.570313 216.761719 75.125 C 216.574219 75.675781 216.125 76.210938 215.417969 76.734375 L 212.214844 79.078125 L 211.621094 78.28125 L 214.777344 75.96875 C 215.296875 75.59375 215.621094 75.234375 215.746094 74.890625 C 215.871094 74.554688 215.808594 74.21875 215.558594 73.875 C 215.265625 73.476563 214.886719 73.269531 214.417969 73.25 C 213.949219 73.226563 213.453125 73.410156 212.933594 73.796875 L 209.949219 75.984375 L 209.371094 75.203125 L 212.527344 72.890625 C 213.046875 72.515625 213.363281 72.15625 213.480469 71.8125 C 213.605469 71.46875 213.542969 71.132813 213.292969 70.796875 C 213 70.390625 212.621094 70.183594 212.152344 70.171875 C 211.683594 70.152344 211.1875 70.335938 210.667969 70.71875 L 207.683594 72.90625 L 207.105469 72.125 L 212.402344 68.25 L 212.980469 69.03125 L 212.152344 69.625 C 212.609375 69.585938 213.003906 69.632813 213.339844 69.765625 C 213.683594 69.890625 213.980469 70.125 214.230469 70.46875 C 214.480469 70.8125 214.597656 71.179688 214.589844 71.5625 C 214.578125 71.945313 214.417969 72.335938 214.105469 72.734375 Z M 220.925781 84.003906 C 220.988281 84.242188 220.964844 84.527344 220.863281 84.863281 C 220.757813 85.207031 220.570313 85.613281 220.300781 86.082031 L 219.035156 88.378906 L 218.347656 87.441406 L 219.566406 85.300781 C 219.878906 84.746094 220.039063 84.316406 220.050781 84.003906 C 220.058594 83.691406 219.941406 83.363281 219.691406 83.019531 L 219.003906 82.097656 L 216.019531 84.285156 L 215.394531 83.425781 L 222.457031 78.253906 L 223.878906 80.191406 C 224.410156 80.910156 224.632813 81.574219 224.550781 82.175781 C 224.476563 82.777344 224.101563 83.332031 223.425781 83.832031 C 222.976563 84.152344 222.539063 84.332031 222.113281 84.363281 C 221.683594 84.394531 221.289063 84.273438 220.925781 84.003906 Z M 222.300781 79.691406 L 219.785156 81.519531 L 220.582031 82.597656 C 220.882813 83.011719 221.214844 83.246094 221.582031 83.300781 C 221.957031 83.351563 222.351563 83.226563 222.769531 82.925781 C 223.175781 82.621094 223.402344 82.296875 223.457031 81.941406 C 223.519531 81.578125 223.398438 81.1875 223.097656 80.769531 Z M 225.863281 87.800781 C 225.550781 87.386719 225.121094 87.199219 224.582031 87.238281 C 224.050781 87.269531 223.472656 87.519531 222.847656 87.988281 C 222.210938 88.457031 221.800781 88.945313 221.613281 89.457031 C 221.433594 89.964844 221.503906 90.429688 221.816406 90.847656 C 222.128906 91.261719 222.554688 91.457031 223.097656 91.425781 C 223.648438 91.394531 224.238281 91.144531 224.863281 90.675781 C 225.476563 90.207031 225.871094 89.710938 226.050781 89.191406 C 226.238281 88.679688 226.175781 88.21875 225.863281 87.800781 Z M 226.597656 87.253906 C 227.105469 87.933594 227.257813 88.644531 227.050781 89.394531 C 226.851563 90.152344 226.324219 90.855469 225.472656 91.503906 C 224.605469 92.148438 223.785156 92.460938 223.003906 92.441406 C 222.230469 92.429688 221.589844 92.085938 221.082031 91.410156 C 220.570313 90.730469 220.414063 90.011719 220.613281 89.253906 C 220.820313 88.503906 221.355469 87.808594 222.222656 87.160156 C 223.074219 86.515625 223.886719 86.203125 224.660156 86.222656 C 225.441406 86.234375 226.085938 86.578125 226.597656 87.253906 Z M 228.566406 94.703125 C 228.011719 94.152344 227.558594 93.839844 227.207031 93.765625 C 226.851563 93.695313 226.503906 93.824219 226.160156 94.15625 C 225.886719 94.425781 225.753906 94.71875 225.753906 95.03125 C 225.753906 95.351563 225.894531 95.65625 226.175781 95.9375 C 226.550781 96.3125 227.003906 96.46875 227.535156 96.40625 C 228.066406 96.34375 228.582031 96.0625 229.082031 95.5625 L 229.253906 95.390625 Z M 230.253906 95.765625 L 227.597656 98.40625 L 226.910156 97.71875 L 227.613281 97.015625 C 227.175781 97.140625 226.769531 97.148438 226.394531 97.046875 C 226.027344 96.953125 225.679688 96.734375 225.347656 96.390625 C 224.917969 95.960938 224.714844 95.488281 224.738281 94.96875 C 224.757813 94.445313 224.988281 93.96875 225.425781 93.53125 C 225.957031 93.011719 226.507813 92.777344 227.082031 92.828125 C 227.664063 92.871094 228.269531 93.203125 228.894531 93.828125 L 229.847656 94.796875 L 229.925781 94.71875 C 230.277344 94.367188 230.445313 93.992188 230.425781 93.59375 C 230.414063 93.1875 230.222656 92.796875 229.847656 92.421875 C 229.605469 92.195313 229.339844 91.996094 229.050781 91.828125 C 228.757813 91.664063 228.445313 91.539063 228.113281 91.453125 L 228.816406 90.75 C 229.179688 90.886719 229.503906 91.046875 229.785156 91.234375 C 230.074219 91.421875 230.335938 91.632813 230.566406 91.859375 C 231.167969 92.464844 231.445313 93.089844 231.394531 93.734375 C 231.339844 94.382813 230.960938 95.054688 230.253906 95.765625 Z M 235.683594 98.636719 L 238.214844 96.121094 L 238.886719 96.808594 L 232.417969 103.246094 L 231.746094 102.558594 L 232.449219 101.871094 C 232.011719 101.996094 231.613281 102.015625 231.261719 101.933594 C 230.917969 101.859375 230.589844 101.667969 230.277344 101.355469 C 229.765625 100.84375 229.578125 100.203125 229.714844 99.433594 C 229.859375 98.675781 230.296875 97.929688 231.027344 97.199219 C 231.753906 96.472656 232.5 96.042969 233.261719 95.917969 C 234.019531 95.792969 234.65625 95.988281 235.167969 96.496094 C 235.480469 96.808594 235.671875 97.136719 235.746094 97.480469 C 235.828125 97.824219 235.808594 98.210938 235.683594 98.636719 Z M 231.730469 97.902344 C 231.167969 98.457031 230.828125 98.996094 230.714844 99.527344 C 230.597656 100.066406 230.722656 100.515625 231.089844 100.871094 C 231.441406 101.234375 231.886719 101.359375 232.417969 101.246094 C 232.957031 101.128906 233.511719 100.796875 234.074219 100.246094 C 234.636719 99.683594 234.96875 99.140625 235.074219 98.621094 C 235.175781 98.101563 235.050781 97.660156 234.699219 97.292969 C 234.332031 96.941406 233.886719 96.816406 233.355469 96.917969 C 232.832031 97.011719 232.292969 97.339844 231.730469 97.902344 Z M 231.730469 97.902344 "/>
<path style="fill:none;stroke-width:3;stroke-linecap:round;stroke-linejoin:round;stroke:rgb(100%,100%,100%);stroke-opacity:1;stroke-miterlimit:10;" d="M 106.484375 98.011719 L 106.765625 99.714844 L 100.75 102.902344 L 107.46875 104.011719 L 107.75 105.699219 L 98.390625 107.246094 L 98.203125 106.136719 L 106.421875 104.777344 L 99.65625 103.667969 L 99.453125 102.527344 L 105.53125 99.292969 L 97.3125 100.652344 L 97.125 99.558594 Z M 105.375 110.878906 C 105.28125 110.324219 104.960938 109.929688 104.421875 109.691406 C 103.890625 109.449219 103.203125 109.398438 102.359375 109.535156 C 101.515625 109.667969 100.878906 109.941406 100.453125 110.347656 C 100.023438 110.753906 99.859375 111.230469 99.953125 111.785156 C 100.046875 112.335938 100.359375 112.730469 100.890625 112.972656 C 101.429688 113.210938 102.117188 113.261719 102.953125 113.128906 C 103.785156 112.992188 104.421875 112.722656 104.859375 112.316406 C 105.296875 111.910156 105.46875 111.429688 105.375 110.878906 Z M 106.34375 110.722656 C 106.5 111.628906 106.289063 112.386719 105.71875 113.003906 C 105.144531 113.628906 104.285156 114.035156 103.140625 114.222656 C 101.984375 114.410156 101.035156 114.300781 100.296875 113.894531 C 99.566406 113.496094 99.125 112.847656 98.96875 111.941406 C 98.820313 111.035156 99.03125 110.269531 99.59375 109.644531 C 100.164063 109.019531 101.03125 108.613281 102.1875 108.425781 C 103.332031 108.238281 104.273438 108.347656 105.015625 108.753906 C 105.753906 109.160156 106.195313 109.816406 106.34375 110.722656 Z M 105.023438 121.078125 L 100.789063 121.78125 L 100.617188 120.734375 L 104.804688 120.046875 C 105.480469 119.929688 105.960938 119.726563 106.242188 119.4375 C 106.53125 119.15625 106.640625 118.785156 106.570313 118.328125 C 106.476563 117.765625 106.203125 117.351563 105.757813 117.09375 C 105.308594 116.832031 104.742188 116.757813 104.054688 116.875 L 100.085938 117.53125 L 99.914063 116.484375 L 109.664063 114.875 L 109.835938 115.921875 L 106.007813 116.5625 C 106.464844 116.738281 106.828125 116.972656 107.101563 117.265625 C 107.371094 117.566406 107.542969 117.9375 107.617188 118.375 C 107.730469 119.101563 107.570313 119.695313 107.132813 120.15625 C 106.695313 120.613281 105.992188 120.921875 105.023438 121.078125 Z M 105.136719 126.152344 C 104.988281 125.308594 104.78125 124.738281 104.511719 124.449219 C 104.25 124.167969 103.859375 124.066406 103.339844 124.152344 C 102.941406 124.214844 102.640625 124.386719 102.433594 124.667969 C 102.234375 124.949219 102.171875 125.296875 102.246094 125.714844 C 102.339844 126.296875 102.640625 126.71875 103.152344 126.980469 C 103.660156 127.25 104.292969 127.328125 105.042969 127.214844 L 105.308594 127.167969 Z M 105.964844 128.136719 L 101.949219 128.792969 L 101.777344 127.746094 L 102.839844 127.574219 C 102.378906 127.40625 102.015625 127.160156 101.746094 126.839844 C 101.484375 126.527344 101.3125 126.113281 101.230469 125.605469 C 101.113281 124.949219 101.230469 124.394531 101.574219 123.949219 C 101.917969 123.5 102.421875 123.222656 103.089844 123.121094 C 103.878906 122.984375 104.515625 123.121094 104.996094 123.527344 C 105.472656 123.933594 105.792969 124.609375 105.949219 125.558594 L 106.199219 127.011719 L 106.324219 126.996094 C 106.84375 126.910156 107.222656 126.6875 107.464844 126.324219 C 107.714844 125.957031 107.792969 125.488281 107.699219 124.917969 C 107.636719 124.5625 107.527344 124.222656 107.371094 123.902344 C 107.214844 123.589844 107.011719 123.285156 106.761719 122.996094 L 107.824219 122.808594 C 108.050781 123.171875 108.234375 123.519531 108.371094 123.855469 C 108.515625 124.199219 108.621094 124.535156 108.683594 124.871094 C 108.828125 125.785156 108.675781 126.515625 108.230469 127.058594 C 107.78125 127.597656 107.027344 127.957031 105.964844 128.136719 Z M 109.207031 129.167969 L 109.378906 130.214844 L 104.128906 132.417969 L 109.800781 132.792969 L 110.003906 134.011719 L 104.753906 136.214844 L 110.441406 136.605469 L 110.597656 137.636719 L 103.316406 137.152344 L 103.113281 135.917969 L 108.644531 133.605469 L 102.660156 133.199219 L 102.472656 131.980469 Z M 113.589844 138.710938 L 113.761719 139.757813 L 108.011719 140.710938 L 111.542969 143.304688 L 111.761719 144.632813 L 107.917969 141.820313 L 104.761719 145.914063 L 104.542969 144.570313 L 107.433594 140.804688 L 104.011719 141.367188 L 103.839844 140.320313 Z M 110.59375 154.023438 C 110.539063 154.273438 110.382813 154.539063 110.125 154.820313 C 109.863281 155.109375 109.492188 155.414063 109.015625 155.726563 L 106.640625 157.304688 L 106.4375 156.070313 L 108.671875 154.601563 C 109.253906 154.234375 109.625 153.902344 109.78125 153.601563 C 109.9375 153.296875 109.976563 152.921875 109.90625 152.476563 L 109.703125 151.226563 L 105.75 151.882813 L 105.5625 150.757813 L 114.921875 149.210938 L 115.34375 151.773438 C 115.5 152.742188 115.390625 153.496094 115.015625 154.039063 C 114.648438 154.578125 114.015625 154.929688 113.109375 155.085938 C 112.523438 155.179688 112.015625 155.132813 111.578125 154.945313 C 111.148438 154.765625 110.820313 154.460938 110.59375 154.023438 Z M 114.0625 150.507813 L 110.75 151.054688 L 110.984375 152.492188 C 111.078125 153.042969 111.285156 153.433594 111.609375 153.664063 C 111.941406 153.890625 112.378906 153.964844 112.921875 153.882813 C 113.472656 153.789063 113.863281 153.578125 114.09375 153.257813 C 114.320313 152.933594 114.390625 152.496094 114.296875 151.945313 Z M 113.898438 157.574219 L 114.054688 158.605469 L 107.039063 159.761719 L 106.882813 158.730469 Z M 116.632813 157.121094 L 116.789063 158.152344 L 115.320313 158.402344 L 115.164063 157.371094 Z M 114.300781 160.027344 L 114.472656 161.121094 L 108.910156 164.058594 L 115.128906 165.058594 L 115.300781 166.167969 L 107.894531 164.949219 L 107.675781 163.558594 Z M 115.476563 173.167969 L 114.976563 173.449219 L 112.617188 169.214844 C 111.929688 169.652344 111.496094 170.140625 111.320313 170.683594 C 111.152344 171.234375 111.242188 171.8125 111.585938 172.417969 C 111.78125 172.769531 112.023438 173.082031 112.304688 173.355469 C 112.585938 173.625 112.90625 173.875 113.273438 174.105469 L 112.304688 174.652344 C 111.96875 174.402344 111.667969 174.125 111.398438 173.824219 C 111.125 173.53125 110.890625 173.207031 110.695313 172.855469 C 110.195313 171.957031 110.085938 171.089844 110.367188 170.246094 C 110.648438 169.402344 111.28125 168.707031 112.273438 168.152344 C 113.292969 167.589844 114.234375 167.394531 115.101563 167.558594 C 115.976563 167.714844 116.648438 168.210938 117.117188 169.042969 C 117.53125 169.800781 117.59375 170.550781 117.304688 171.292969 C 117.011719 172.03125 116.402344 172.65625 115.476563 173.167969 Z M 115.257813 172.074219 C 115.808594 171.761719 116.179688 171.375 116.367188 170.917969 C 116.554688 170.457031 116.515625 170 116.257813 169.542969 C 115.976563 169.023438 115.585938 168.699219 115.085938 168.574219 C 114.59375 168.449219 114.042969 168.535156 113.429688 168.824219 Z M 120.359375 176.308594 C 120.359375 176.171875 120.328125 176.035156 120.265625 175.902344 C 120.210938 175.769531 120.140625 175.632813 120.046875 175.496094 C 119.691406 175.019531 119.25 174.777344 118.71875 174.777344 C 118.1875 174.769531 117.597656 175.003906 116.953125 175.480469 L 113.921875 177.683594 L 113.296875 176.824219 L 119.046875 172.636719 L 119.671875 173.496094 L 118.765625 174.152344 C 119.253906 174.070313 119.6875 174.113281 120.0625 174.277344 C 120.445313 174.433594 120.785156 174.714844 121.078125 175.121094 C 121.117188 175.175781 121.160156 175.242188 121.203125 175.324219 C 121.242188 175.410156 121.285156 175.503906 121.328125 175.605469 Z M 120.359375 176.308594 "/>
<path style=" stroke:none;fill-rule:evenodd;fill:rgb(41.960784%,58.039216%,69.019608%);fill-opacity:1;" d="M 106.484375 98.011719 L 106.765625 99.714844 L 100.75 102.902344 L 107.46875 104.011719 L 107.75 105.699219 L 98.390625 107.246094 L 98.203125 106.136719 L 106.421875 104.777344 L 99.65625 103.667969 L 99.453125 102.527344 L 105.53125 99.292969 L 97.3125 100.652344 L 97.125 99.558594 Z M 105.375 110.878906 C 105.28125 110.324219 104.960938 109.929688 104.421875 109.691406 C 103.890625 109.449219 103.203125 109.398438 102.359375 109.535156 C 101.515625 109.667969 100.878906 109.941406 100.453125 110.347656 C 100.023438 110.753906 99.859375 111.230469 99.953125 111.785156 C 100.046875 112.335938 100.359375 112.730469 100.890625 112.972656 C 101.429688 113.210938 102.117188 113.261719 102.953125 113.128906 C 103.785156 112.992188 104.421875 112.722656 104.859375 112.316406 C 105.296875 111.910156 105.46875 111.429688 105.375 110.878906 Z M 106.34375 110.722656 C 106.5 111.628906 106.289063 112.386719 105.71875 113.003906 C 105.144531 113.628906 104.285156 114.035156 103.140625 114.222656 C 101.984375 114.410156 101.035156 114.300781 100.296875 113.894531 C 99.566406 113.496094 99.125 112.847656 98.96875 111.941406 C 98.820313 111.035156 99.03125 110.269531 99.59375 109.644531 C 100.164063 109.019531 101.03125 108.613281 102.1875 108.425781 C 103.332031 108.238281 104.273438 108.347656 105.015625 108.753906 C 105.753906 109.160156 106.195313 109.816406 106.34375 110.722656 Z M 105.023438 121.078125 L 100.789063 121.78125 L 100.617188 120.734375 L 104.804688 120.046875 C 105.480469 119.929688 105.960938 119.726563 106.242188 119.4375 C 106.53125 119.15625 106.640625 118.785156 106.570313 118.328125 C 106.476563 117.765625 106.203125 117.351563 105.757813 117.09375 C 105.308594 116.832031 104.742188 116.757813 104.054688 116.875 L 100.085938 117.53125 L 99.914063 116.484375 L 109.664063 114.875 L 109.835938 115.921875 L 106.007813 116.5625 C 106.464844 116.738281 106.828125 116.972656 107.101563 117.265625 C 107.371094 117.566406 107.542969 117.9375 107.617188 118.375 C 107.730469 119.101563 107.570313 119.695313 107.132813 120.15625 C 106.695313 120.613281 105.992188 120.921875 105.023438 121.078125 Z M 105.136719 126.152344 C 104.988281 125.308594 104.78125 124.738281 104.511719 124.449219 C 104.25 124.167969 103.859375 124.066406 103.339844 124.152344 C 102.941406 124.214844 102.640625 124.386719 102.433594 124.667969 C 102.234375 124.949219 102.171875 125.296875 102.246094 125.714844 C 102.339844 126.296875 102.640625 126.71875 103.152344 126.980469 C 103.660156 127.25 104.292969 127.328125 105.042969 127.214844 L 105.308594 127.167969 Z M 105.964844 128.136719 L 101.949219 128.792969 L 101.777344 127.746094 L 102.839844 127.574219 C 102.378906 127.40625 102.015625 127.160156 101.746094 126.839844 C 101.484375 126.527344 101.3125 126.113281 101.230469 125.605469 C 101.113281 124.949219 101.230469 124.394531 101.574219 123.949219 C 101.917969 123.5 102.421875 123.222656 103.089844 123.121094 C 103.878906 122.984375 104.515625 123.121094 104.996094 123.527344 C 105.472656 123.933594 105.792969 124.609375 105.949219 125.558594 L 106.199219 127.011719 L 106.324219 126.996094 C 106.84375 126.910156 107.222656 126.6875 107.464844 126.324219 C 107.714844 125.957031 107.792969 125.488281 107.699219 124.917969 C 107.636719 124.5625 107.527344 124.222656 107.371094 123.902344 C 107.214844 123.589844 107.011719 123.285156 106.761719 122.996094 L 107.824219 122.808594 C 108.050781 123.171875 108.234375 123.519531 108.371094 123.855469 C 108.515625 124.199219 108.621094 124.535156 108.683594 124.871094 C 108.828125 125.785156 108.675781 126.515625 108.230469 127.058594 C 107.78125 127.597656 107.027344 127.957031 105.964844 128.136719 Z M 109.207031 129.167969 L 109.378906 130.214844 L 104.128906 132.417969 L 109.800781 132.792969 L 110.003906 134.011719 L 104.753906 136.214844 L 110.441406 136.605469 L 110.597656 137.636719 L 103.316406 137.152344 L 103.113281 135.917969 L 108.644531 133.605469 L 102.660156 133.199219 L 102.472656 131.980469 Z M 113.589844 138.710938 L 113.761719 139.757813 L 108.011719 140.710938 L 111.542969 143.304688 L 111.761719 144.632813 L 107.917969 141.820313 L 104.761719 145.914063 L 104.542969 144.570313 L 107.433594 140.804688 L 104.011719 141.367188 L 103.839844 140.320313 Z M 110.59375 154.023438 C 110.539063 154.273438 110.382813 154.539063 110.125 154.820313 C 109.863281 155.109375 109.492188 155.414063 109.015625 155.726563 L 106.640625 157.304688 L 106.4375 156.070313 L 108.671875 154.601563 C 109.253906 154.234375 109.625 153.902344 109.78125 153.601563 C 109.9375 153.296875 109.976563 152.921875 109.90625 152.476563 L 109.703125 151.226563 L 105.75 151.882813 L 105.5625 150.757813 L 114.921875 149.210938 L 115.34375 151.773438 C 115.5 152.742188 115.390625 153.496094 115.015625 154.039063 C 114.648438 154.578125 114.015625 154.929688 113.109375 155.085938 C 112.523438 155.179688 112.015625 155.132813 111.578125 154.945313 C 111.148438 154.765625 110.820313 154.460938 110.59375 154.023438 Z M 114.0625 150.507813 L 110.75 151.054688 L 110.984375 152.492188 C 111.078125 153.042969 111.285156 153.433594 111.609375 153.664063 C 111.941406 153.890625 112.378906 153.964844 112.921875 153.882813 C 113.472656 153.789063 113.863281 153.578125 114.09375 153.257813 C 114.320313 152.933594 114.390625 152.496094 114.296875 151.945313 Z M 113.898438 157.574219 L 114.054688 158.605469 L 107.039063 159.761719 L 106.882813 158.730469 Z M 116.632813 157.121094 L 116.789063 158.152344 L 115.320313 158.402344 L 115.164063 157.371094 Z M 114.300781 160.027344 L 114.472656 161.121094 L 108.910156 164.058594 L 115.128906 165.058594 L 115.300781 166.167969 L 107.894531 164.949219 L 107.675781 163.558594 Z M 115.476563 173.167969 L 114.976563 173.449219 L 112.617188 169.214844 C 111.929688 169.652344 111.496094 170.140625 111.320313 170.683594 C 111.152344 171.234375 111.242188 171.8125 111.585938 172.417969 C 111.78125 172.769531 112.023438 173.082031 112.304688 173.355469 C 112.585938 173.625 112.90625 173.875 113.273438 174.105469 L 112.304688 174.652344 C 111.96875 174.402344 111.667969 174.125 111.398438 173.824219 C 111.125 173.53125 110.890625 173.207031 110.695313 172.855469 C 110.195313 171.957031 110.085938 171.089844 110.367188 170.246094 C 110.648438 169.402344 111.28125 168.707031 112.273438 168.152344 C 113.292969 167.589844 114.234375 167.394531 115.101563 167.558594 C 115.976563 167.714844 116.648438 168.210938 117.117188 169.042969 C 117.53125 169.800781 117.59375 170.550781 117.304688 171.292969 C 117.011719 172.03125 116.402344 172.65625 115.476563 173.167969 Z M 115.257813 172.074219 C 115.808594 171.761719 116.179688 171.375 116.367188 170.917969 C 116.554688 170.457031 116.515625 170 116.257813 169.542969 C 115.976563 169.023438 115.585938 168.699219 115.085938 168.574219 C 114.59375 168.449219 114.042969 168.535156 113.429688 168.824219 Z M 120.359375 176.308594 C 120.359375 176.171875 120.328125 176.035156 120.265625 175.902344 C 120.210938 175.769531 120.140625 175.632813 120.046875 175.496094 C 119.691406 175.019531 119.25 174.777344 118.71875 174.777344 C 118.1875 174.769531 117.597656 175.003906 116.953125 175.480469 L 113.921875 177.683594 L 113.296875 176.824219 L 119.046875 172.636719 L 119.671875 173.496094 L 118.765625 174.152344 C 119.253906 174.070313 119.6875 174.113281 120.0625 174.277344 C 120.445313 174.433594 120.785156 174.714844 121.078125 175.121094 C 121.117188 175.175781 121.160156 175.242188 121.203125 175.324219 C 121.242188 175.410156 121.285156 175.503906 121.328125 175.605469 Z M 120.359375 176.308594 "/>
</g>
</svg>

