<?xml version="1.0" encoding="UTF-8"?>
<svg xmlns="http://www.w3.org/2000/svg" xmlns:xlink="http://www.w3.org/1999/xlink" width="256pt" height="256pt" viewBox="0 0 256 256" version="1.1">
<g id="surface2">
<rect x="0" y="0" width="256" height="256" style="fill:rgb(94.901961%,93.72549%,91.372549%);fill-opacity:1;stroke:none;"/>
<path style=" stroke:none;fill-rule:evenodd;fill:rgb(60%,70.196078%,80%);fill-opacity:1;" d="M -4 -4 L 259 -4 L 259 259 L 259 -4 Z M -8235614.453125 5399528.398438 Z M -8235614.453125 5399528.398438 "/>
<path style="fill:none;stroke-width:1;stroke-linecap:round;stroke-linejoin:round;stroke:rgb(70.196078%,77.647059%,83.137255%);stroke-opacity:1;stroke-miterlimit:10;" d="M -4 -4 L 259 -4 L 259 259 L 259 -4 L -4 -4 "/>
<path style=" stroke:none;fill-rule:evenodd;fill:rgb(60%,70.196078%,80%);fill-opacity:1;" d="M 213.976563 -4 L 216.992188 18.90625 L 233.390625 38.480469 L 244.324219 52.9375 L 252.609375 56.992188 L 259 63.515625 L 259 43.382813 L 248.203125 36.367188 L 242.914063 24.550781 L 242.207031 11.5 L 233.582031 -4 Z M 213.976563 -4 "/>
<path style="fill:none;stroke-width:1;stroke-linecap:round;stroke-linejoin:round;stroke:rgb(70.196078%,77.647059%,83.137255%);stroke-opacity:1;stroke-miterlimit:10;" d="M 213.976563 -4 L 216.992188 18.90625 L 233.390625 38.480469 L 244.324219 52.9375 L 252.609375 56.992188 L 259 63.515625 L 259 43.382813 L 248.203125 36.367188 L 242.914063 24.550781 L 242.207031 11.5 L 233.582031 -4 L 213.976563 -4 "/>
<path style="fill:none;stroke-width:8;stroke-linecap:round;stroke-linejoin:round;stroke:rgb(75.686275%,70.980392%,61.568627%);stroke-opacity:1;stroke-miterlimit:10;" d="M 264 5.707031 L 260.523438 -4.398438 L 257.851563 -9 "/>
<path style="fill:none;stroke-width:6;stroke-linecap:round;stroke-linejoin:round;stroke:rgb(100%,100%,100%);stroke-opacity:1;stroke-miterlimit:10;" d="M 264 5.707031 L 260.523438 -4.398438 L 257.851563 -9 "/>
</g>
</svg>

