<?xml version="1.0" encoding="UTF-8"?>
<svg xmlns="http://www.w3.org/2000/svg" xmlns:xlink="http://www.w3.org/1999/xlink" width="256pt" height="256pt" viewBox="0 0 256 256" version="1.1">
<g id="surface2">
<rect x="0" y="0" width="256" height="256" style="fill:rgb(94.901961%,93.72549%,91.372549%);fill-opacity:1;stroke:none;"/>
<path style="fill:none;stroke-width:8;stroke-linecap:round;stroke-linejoin:round;stroke:rgb(75.686275%,70.980392%,61.568627%);stroke-opacity:1;stroke-miterlimit:10;" d="M 264 175.835938 L 261.378906 178.425781 L 257.464844 183.605469 L 251.101563 195.140625 L 246.582031 204.582031 L 245.207031 208.578125 L 244.273438 214.316406 L 244.507813 221.363281 L 245.160156 225.097656 L 245.417969 231.324219 L 243.878906 241.550781 L 242.574219 245.714844 L 239.941406 250.433594 L 234.859375 256.921875 L 228.640625 264 "/>
<path style="fill:none;stroke-width:6;stroke-linecap:round;stroke-linejoin:round;stroke:rgb(100%,100%,100%);stroke-opacity:1;stroke-miterlimit:10;" d="M 264 175.835938 L 261.378906 178.425781 L 257.464844 183.605469 L 251.101563 195.140625 L 246.582031 204.582031 L 245.207031 208.578125 L 244.273438 214.316406 L 244.507813 221.363281 L 245.160156 225.097656 L 245.417969 231.324219 L 243.878906 241.550781 L 242.574219 245.714844 L 239.941406 250.433594 L 234.859375 256.921875 L 228.640625 264 "/>
</g>
</svg>

