<?xml version="1.0" encoding="UTF-8"?>
<svg xmlns="http://www.w3.org/2000/svg" xmlns:xlink="http://www.w3.org/1999/xlink" width="256pt" height="256pt" viewBox="0 0 256 256" version="1.1">
<g id="surface2">
<rect x="0" y="0" width="256" height="256" style="fill:rgb(94.901961%,93.72549%,91.372549%);fill-opacity:1;stroke:none;"/>
<path style=" stroke:none;fill-rule:evenodd;fill:rgb(81.960784%,81.568627%,80.392157%);fill-opacity:1;" d="M 85.414063 67.695313 L 88.707031 68.375 L 88 71.371094 L 101.246094 73.625 L 102.699219 71.175781 L 105.15625 59.144531 L 108.257813 45.246094 L 103.765625 41.171875 L 89.367188 49.824219 Z M 85.414063 67.695313 "/>
<path style="fill:none;stroke-width:1;stroke-linecap:round;stroke-linejoin:round;stroke:rgb(81.960784%,81.960784%,81.960784%);stroke-opacity:1;stroke-miterlimit:10;" d="M 85.414063 67.695313 L 88.707031 68.375 L 88 71.371094 L 101.246094 73.625 L 102.699219 71.175781 L 105.15625 59.144531 L 108.257813 45.246094 L 103.765625 41.171875 L 89.367188 49.824219 L 85.414063 67.695313 "/>
<path style="fill:none;stroke-width:8;stroke-linecap:round;stroke-linejoin:round;stroke:rgb(75.686275%,70.980392%,61.568627%);stroke-opacity:1;stroke-miterlimit:10;" d="M 91.039063 109.222656 L 90.074219 113.871094 "/>
<path style="fill:none;stroke-width:8;stroke-linecap:round;stroke-linejoin:round;stroke:rgb(75.686275%,70.980392%,61.568627%);stroke-opacity:1;stroke-miterlimit:10;" d="M 86.992188 32.761719 L 86.742188 34.761719 L 86.210938 37.675781 "/>
<path style="fill:none;stroke-width:8;stroke-linecap:round;stroke-linejoin:round;stroke:rgb(75.686275%,70.980392%,61.568627%);stroke-opacity:1;stroke-miterlimit:10;" d="M 94.546875 109.957031 L 95.714844 116.714844 "/>
<path style="fill:none;stroke-width:8;stroke-linecap:round;stroke-linejoin:round;stroke:rgb(75.686275%,70.980392%,61.568627%);stroke-opacity:1;stroke-miterlimit:10;" d="M 106.53125 59.433594 L 105.15625 59.144531 L 102.269531 58.484375 L 96.699219 57.210938 L 91.433594 56.273438 "/>
<path style="fill:none;stroke-width:8;stroke-linecap:round;stroke-linejoin:round;stroke:rgb(75.686275%,70.980392%,61.568627%);stroke-opacity:1;stroke-miterlimit:10;" d="M 100.363281 91.472656 L 97.75 90.75 L 83.992188 89.074219 L 81.507813 88.863281 "/>
<path style="fill:none;stroke-width:8;stroke-linecap:round;stroke-linejoin:round;stroke:rgb(75.686275%,70.980392%,61.568627%);stroke-opacity:1;stroke-miterlimit:10;" d="M 84.871094 67.539063 L 88.707031 68.375 L 94.472656 69.460938 L 99.839844 70.550781 L 102.699219 71.175781 L 104.234375 71.097656 "/>
<path style="fill:none;stroke-width:8;stroke-linecap:round;stroke-linejoin:round;stroke:rgb(75.686275%,70.980392%,61.568627%);stroke-opacity:1;stroke-miterlimit:10;" d="M 98.269531 47.65625 L 96.699219 57.210938 L 94.472656 69.460938 "/>
<path style="fill:none;stroke-width:8;stroke-linecap:round;stroke-linejoin:round;stroke:rgb(75.686275%,70.980392%,61.568627%);stroke-opacity:1;stroke-miterlimit:10;" d="M 246.667969 70.3125 L 255.519531 42.242188 "/>
<path style="fill:none;stroke-width:8;stroke-linecap:round;stroke-linejoin:round;stroke:rgb(75.686275%,70.980392%,61.568627%);stroke-opacity:1;stroke-miterlimit:10;" d="M 198.617188 43.089844 L 205.75 13.074219 "/>
<path style="fill:none;stroke-width:8;stroke-linecap:round;stroke-linejoin:round;stroke:rgb(75.686275%,70.980392%,61.568627%);stroke-opacity:1;stroke-miterlimit:10;" d="M 82.890625 37.660156 L 74.839844 79.847656 "/>
<path style="fill:none;stroke-width:8;stroke-linecap:round;stroke-linejoin:round;stroke:rgb(75.686275%,70.980392%,61.568627%);stroke-opacity:1;stroke-miterlimit:10;" d="M 90.363281 37.550781 L 84.871094 67.539063 L 80.992188 87.5 "/>
<path style="fill:none;stroke-width:8;stroke-linecap:round;stroke-linejoin:round;stroke:rgb(75.686275%,70.980392%,61.568627%);stroke-opacity:1;stroke-miterlimit:10;" d="M 89.496094 68.464844 L 91.433594 56.273438 L 92.050781 51.617188 L 98.269531 47.65625 L 104.597656 44.007813 L 102.269531 58.484375 L 99.839844 70.550781 "/>
<path style="fill:none;stroke-width:8;stroke-linecap:round;stroke-linejoin:round;stroke:rgb(75.686275%,70.980392%,61.568627%);stroke-opacity:1;stroke-miterlimit:10;" d="M 115.105469 28.726563 L 111.003906 40.832031 L 108.789063 48.578125 L 106.53125 59.433594 L 105.902344 62.472656 L 104.234375 71.097656 L 104.015625 72.757813 L 100.363281 91.472656 L 96.394531 111.804688 L 95.714844 116.714844 L 94.902344 122.59375 L 93.644531 131.25 "/>
<path style="fill:none;stroke-width:8;stroke-linecap:round;stroke-linejoin:round;stroke:rgb(75.686275%,70.980392%,61.568627%);stroke-opacity:1;stroke-miterlimit:10;" d="M 115.105469 28.726563 L 110.992188 34.511719 L 108.992188 35.824219 L 104.960938 38.308594 L 90.363281 37.550781 L 86.210938 37.675781 L 82.890625 37.660156 L 80.242188 37.761719 L 76.992188 39.511719 L 74.242188 43.261719 L 69.742188 68.25 L 70.242188 72.246094 L 71.492188 76 L 74.839844 79.847656 L 76.992188 82.324219 L 80.992188 87.5 L 81.507813 88.863281 L 84.492188 96.75 L 88.742188 109 L 90.074219 113.871094 L 91.492188 119.074219 L 93.644531 131.25 "/>
<path style="fill:none;stroke-width:10;stroke-linecap:round;stroke-linejoin:round;stroke:rgb(72.941176%,43.137255%,15.294118%);stroke-opacity:1;stroke-miterlimit:10;" d="M 121.164063 10.910156 L 118.367188 20.476563 L 115.105469 28.726563 "/>
<path style="fill:none;stroke-width:10;stroke-linecap:round;stroke-linejoin:round;stroke:rgb(72.941176%,43.137255%,15.294118%);stroke-opacity:1;stroke-miterlimit:10;" d="M 93.644531 131.25 L 94.015625 146.113281 L 92.757813 158.472656 "/>
<path style="fill:none;stroke-width:8;stroke-linecap:round;stroke-linejoin:round;stroke:rgb(75.686275%,70.980392%,61.568627%);stroke-opacity:1;stroke-miterlimit:10;" d="M 9.105469 108.855469 L 10.503906 108.261719 L 11.667969 107.195313 L 13.042969 105.5625 "/>
<path style="fill:none;stroke-width:8;stroke-linecap:round;stroke-linejoin:round;stroke:rgb(75.686275%,70.980392%,61.568627%);stroke-opacity:1;stroke-miterlimit:10;" d="M 162.851563 98.726563 L 155.976563 89.507813 L 152.738281 85.867188 "/>
<path style="fill:none;stroke-width:8;stroke-linecap:round;stroke-linejoin:round;stroke:rgb(75.686275%,70.980392%,61.568627%);stroke-opacity:1;stroke-miterlimit:10;" d="M 9.105469 108.855469 L 7.476563 108.199219 L 4.234375 106.285156 L -0.285156 103.652344 L -9 100.792969 "/>
<path style="fill:none;stroke-width:8;stroke-linecap:round;stroke-linejoin:round;stroke:rgb(75.686275%,70.980392%,61.568627%);stroke-opacity:1;stroke-miterlimit:10;" d="M 25.230469 93.648438 L 11.855469 59.964844 "/>
<path style="fill:none;stroke-width:8;stroke-linecap:round;stroke-linejoin:round;stroke:rgb(75.686275%,70.980392%,61.568627%);stroke-opacity:1;stroke-miterlimit:10;" d="M 127.199219 232.953125 L 125.101563 233.957031 L 114.523438 240.289063 L 109 243.175781 L 95.160156 251.738281 "/>
<path style="fill:none;stroke-width:8;stroke-linecap:round;stroke-linejoin:round;stroke:rgb(75.686275%,70.980392%,61.568627%);stroke-opacity:1;stroke-miterlimit:10;" d="M 11.855469 59.964844 L 7.660156 42.964844 L 6.824219 37.914063 L 6.101563 30.261719 L 6.101563 27.847656 L 6.449219 26.65625 L 6.9375 25.558594 L 10.246094 19.882813 "/>
<path style="fill:none;stroke-width:8;stroke-linecap:round;stroke-linejoin:round;stroke:rgb(75.686275%,70.980392%,61.568627%);stroke-opacity:1;stroke-miterlimit:10;" d="M 4.234375 106.285156 L 13.042969 105.5625 L 18.308594 97.597656 L 20.269531 95.621094 L 22.339844 94.398438 L 25.230469 93.648438 L 41.285156 93.519531 L 61.277344 93.519531 "/>
<path style="fill:none;stroke-width:8;stroke-linecap:round;stroke-linejoin:round;stroke:rgb(75.686275%,70.980392%,61.568627%);stroke-opacity:1;stroke-miterlimit:10;" d="M -9 238.1875 L 0.972656 236.089844 L 13.371094 233.894531 L 16.609375 233.769531 L 20.3125 234.613281 L 23.578125 236.339844 L 35.109375 247.097656 "/>
<path style="fill:none;stroke-width:8;stroke-linecap:round;stroke-linejoin:round;stroke:rgb(75.686275%,70.980392%,61.568627%);stroke-opacity:1;stroke-miterlimit:10;" d="M 127.199219 232.953125 L 129.832031 234.363281 L 130.996094 236.589844 L 131.671875 240.101563 L 133.46875 262.492188 L 133.46875 264 "/>
<path style="fill:none;stroke-width:8;stroke-linecap:round;stroke-linejoin:round;stroke:rgb(75.686275%,70.980392%,61.568627%);stroke-opacity:1;stroke-miterlimit:10;" d="M -9 190.308594 L 32.152344 199.335938 L 62.28125 205.667969 "/>
<path style="fill:none;stroke-width:8;stroke-linecap:round;stroke-linejoin:round;stroke:rgb(75.686275%,70.980392%,61.568627%);stroke-opacity:1;stroke-miterlimit:10;" d="M 61.277344 93.519531 L 58.902344 89.289063 L 53.03125 74.203125 L 52.238281 69.371094 L 52.445313 62.691406 L 54.777344 45.066406 L 54.683594 40.488281 L 53.796875 38.605469 L 51.46875 35.59375 L 49.046875 33.835938 L 45.921875 32.835938 L 32.523438 31.109375 L 27.398438 29.636719 L 21.175781 27.1875 L 16.167969 24.554688 L 11.179688 20.757813 L 10.246094 19.882813 "/>
<path style="fill:none;stroke-width:8;stroke-linecap:round;stroke-linejoin:round;stroke:rgb(75.686275%,70.980392%,61.568627%);stroke-opacity:1;stroke-miterlimit:10;" d="M -9 168.175781 L 21.269531 174.683594 L 63.027344 183.84375 L 65.402344 185.253906 L 66.476563 187.167969 L 66.519531 188.796875 L 64.050781 198.144531 L 62.28125 205.667969 L 61.09375 210.625 L 59.878906 214.449219 L 58.644531 217.148438 "/>
<path style="fill:none;stroke-width:8;stroke-linecap:round;stroke-linejoin:round;stroke:rgb(75.686275%,70.980392%,61.568627%);stroke-opacity:1;stroke-miterlimit:10;" d="M 113.253906 -9 L 109.417969 18.375 L 108.046875 23.269531 L 104.992188 25.761719 L 93.492188 31.511719 L 89.492188 32.761719 L 86.992188 32.761719 "/>
<path style="fill:none;stroke-width:8;stroke-linecap:round;stroke-linejoin:round;stroke:rgb(75.686275%,70.980392%,61.568627%);stroke-opacity:1;stroke-miterlimit:10;" d="M 231.101563 61.46875 L 223.320313 78.40625 L 217.214844 92.109375 L 216.957031 94.746094 L 217.261719 96.972656 L 218.613281 99.070313 L 221.5 101.550781 L 225.835938 104.058594 L 264 121.097656 "/>
<path style="fill:none;stroke-width:8;stroke-linecap:round;stroke-linejoin:round;stroke:rgb(75.686275%,70.980392%,61.568627%);stroke-opacity:1;stroke-miterlimit:10;" d="M -0.285156 103.652344 L 0.273438 98.507813 L -0.121094 96.75 L -7.136719 71.347656 L -8.625 61.4375 L -9 59.503906 M -9 7.726563 L -7.34375 7.617188 L -3.894531 8.089844 L -0.84375 9.34375 L 10.246094 19.882813 "/>
<path style="fill:none;stroke-width:8;stroke-linecap:round;stroke-linejoin:round;stroke:rgb(75.686275%,70.980392%,61.568627%);stroke-opacity:1;stroke-miterlimit:10;" d="M 174.757813 33.210938 L 180.980469 35.09375 L 198.617188 43.089844 L 203.746094 45.410156 L 219.519531 53.472656 L 224.714844 56.671875 L 231.101563 61.46875 L 234.757813 64.324219 L 243.195313 68.964844 L 246.667969 70.3125 L 253.9375 73.105469 L 264 76.496094 "/>
<path style="fill:none;stroke-width:8;stroke-linecap:round;stroke-linejoin:round;stroke:rgb(75.686275%,70.980392%,61.568627%);stroke-opacity:1;stroke-miterlimit:10;" d="M -9 144.003906 L 1.8125 146.207031 L 3.28125 146.144531 L 5.074219 145.015625 L 6.660156 142.101563 L 9.011719 130.875 L 9.804688 124.820313 L 9.945313 116.476563 L 9.105469 108.855469 "/>
<path style="fill:none;stroke-width:8;stroke-linecap:round;stroke-linejoin:round;stroke:rgb(75.686275%,70.980392%,61.568627%);stroke-opacity:1;stroke-miterlimit:10;" d="M 158.515625 127.171875 L 165.460938 127.453125 L 170.773438 128.113281 L 174.828125 128.113281 L 179.722656 128.742188 L 185.917969 128.804688 L 188.367188 129.398438 L 189.996094 130.527344 L 191.441406 132.222656 L 192.117188 134.542969 L 194.167969 149.34375 L 196.871094 159.757813 L 201.765625 172.550781 L 203.558594 176.847656 L 206.890625 181.679688 L 208.824219 183.558594 L 213.019531 185.597656 L 220.824219 188.390625 L 230.707031 191.242188 L 238.8125 194.597656 L 246.085938 196.042969 L 250.882813 196.167969 L 257.433594 195.507813 L 263.863281 195.476563 "/>
<path style="fill:none;stroke-width:8;stroke-linecap:round;stroke-linejoin:round;stroke:rgb(75.686275%,70.980392%,61.568627%);stroke-opacity:1;stroke-miterlimit:10;" d="M 41.285156 93.519531 L 41.707031 104.027344 L 41.402344 110.425781 L 37.277344 136.644531 L 37.582031 142.132813 L 37.90625 143.636719 L 39.257813 146.242188 L 41.496094 149.03125 L 42.824219 150.035156 L 46.644531 152.042969 L 48.417969 152.542969 L 67.871094 157.121094 L 72.8125 157.6875 L 73.929688 156.964844 L 75.234375 154.488281 L 75.820313 151.101563 L 75.539063 147.589844 L 70.109375 116.320313 L 68.570313 109.984375 L 64.515625 99.417969 L 61.277344 93.519531 "/>
<path style="fill:none;stroke-width:8;stroke-linecap:round;stroke-linejoin:round;stroke:rgb(75.686275%,70.980392%,61.568627%);stroke-opacity:1;stroke-miterlimit:10;" d="M 113.726563 264 L 116.039063 258.542969 L 127.199219 232.953125 L 131.8125 221.851563 L 149.660156 173.273438 L 152.902344 162.296875 L 155.230469 150.976563 L 158.515625 127.171875 L 160.03125 114.597656 L 161.171875 106.628906 L 162.851563 98.726563 L 163.734375 95.089844 L 172.054688 70.6875 L 174.640625 60.027344 L 175.316406 53.535156 L 174.757813 33.210938 L 175.503906 14.738281 L 175.015625 3.636719 L 173.871094 -7.71875 L 173.769531 -9 "/>
<path style="fill:none;stroke-width:11;stroke-linecap:round;stroke-linejoin:round;stroke:rgb(72.941176%,43.137255%,15.294118%);stroke-opacity:1;stroke-miterlimit:10;" d="M 74.472656 267 L 95.34375 183.152344 L 104.292969 146.367188 L 110.839844 116.164063 L 116.433594 85.710938 L 121.511719 51.464844 L 130.390625 -12 "/>
<path style="fill:none;stroke-width:11;stroke-linecap:round;stroke-linejoin:round;stroke:rgb(72.941176%,43.137255%,15.294118%);stroke-opacity:1;stroke-miterlimit:10;" d="M 124.40625 -12 L 121.164063 10.910156 L 115.5 50.867188 L 112.238281 70.785156 L 109.257813 86.714844 L 102.777344 117.667969 L 92.757813 158.472656 L 71.160156 245.621094 L 65.847656 267 "/>
<path style="fill:none;stroke-width:6;stroke-linecap:round;stroke-linejoin:round;stroke:rgb(100%,100%,100%);stroke-opacity:1;stroke-miterlimit:10;" d="M 91.039063 109.222656 L 90.074219 113.871094 "/>
<path style="fill:none;stroke-width:6;stroke-linecap:round;stroke-linejoin:round;stroke:rgb(100%,100%,100%);stroke-opacity:1;stroke-miterlimit:10;" d="M 86.992188 32.761719 L 86.742188 34.761719 L 86.210938 37.675781 "/>
<path style="fill:none;stroke-width:6;stroke-linecap:round;stroke-linejoin:round;stroke:rgb(100%,100%,100%);stroke-opacity:1;stroke-miterlimit:10;" d="M 94.546875 109.957031 L 95.714844 116.714844 "/>
<path style="fill:none;stroke-width:6;stroke-linecap:round;stroke-linejoin:round;stroke:rgb(100%,100%,100%);stroke-opacity:1;stroke-miterlimit:10;" d="M 106.53125 59.433594 L 105.15625 59.144531 L 102.269531 58.484375 L 96.699219 57.210938 L 91.433594 56.273438 "/>
<path style="fill:none;stroke-width:6;stroke-linecap:round;stroke-linejoin:round;stroke:rgb(100%,100%,100%);stroke-opacity:1;stroke-miterlimit:10;" d="M 100.363281 91.472656 L 97.75 90.75 L 83.992188 89.074219 L 81.507813 88.863281 "/>
<path style="fill:none;stroke-width:6;stroke-linecap:round;stroke-linejoin:round;stroke:rgb(100%,100%,100%);stroke-opacity:1;stroke-miterlimit:10;" d="M 84.871094 67.539063 L 88.707031 68.375 L 94.472656 69.460938 L 99.839844 70.550781 L 102.699219 71.175781 L 104.234375 71.097656 "/>
<path style="fill:none;stroke-width:6;stroke-linecap:round;stroke-linejoin:round;stroke:rgb(100%,100%,100%);stroke-opacity:1;stroke-miterlimit:10;" d="M 98.269531 47.65625 L 96.699219 57.210938 L 94.472656 69.460938 "/>
<path style="fill:none;stroke-width:6;stroke-linecap:round;stroke-linejoin:round;stroke:rgb(100%,100%,100%);stroke-opacity:1;stroke-miterlimit:10;" d="M 246.667969 70.3125 L 255.519531 42.242188 "/>
<path style="fill:none;stroke-width:6;stroke-linecap:round;stroke-linejoin:round;stroke:rgb(100%,100%,100%);stroke-opacity:1;stroke-miterlimit:10;" d="M 198.617188 43.089844 L 205.75 13.074219 "/>
<path style="fill:none;stroke-width:6;stroke-linecap:round;stroke-linejoin:round;stroke:rgb(100%,100%,100%);stroke-opacity:1;stroke-miterlimit:10;" d="M 82.890625 37.660156 L 74.839844 79.847656 "/>
<path style="fill:none;stroke-width:6;stroke-linecap:round;stroke-linejoin:round;stroke:rgb(100%,100%,100%);stroke-opacity:1;stroke-miterlimit:10;" d="M 90.363281 37.550781 L 84.871094 67.539063 L 80.992188 87.5 "/>
<path style="fill:none;stroke-width:6;stroke-linecap:round;stroke-linejoin:round;stroke:rgb(100%,100%,100%);stroke-opacity:1;stroke-miterlimit:10;" d="M 89.496094 68.464844 L 91.433594 56.273438 L 92.050781 51.617188 L 98.269531 47.65625 L 104.597656 44.007813 L 102.269531 58.484375 L 99.839844 70.550781 "/>
<path style="fill:none;stroke-width:6;stroke-linecap:round;stroke-linejoin:round;stroke:rgb(100%,100%,100%);stroke-opacity:1;stroke-miterlimit:10;" d="M 115.105469 28.726563 L 111.003906 40.832031 L 108.789063 48.578125 L 106.53125 59.433594 L 105.902344 62.472656 L 104.234375 71.097656 L 104.015625 72.757813 L 100.363281 91.472656 L 96.394531 111.804688 L 95.714844 116.714844 L 94.902344 122.59375 L 93.644531 131.25 "/>
<path style="fill:none;stroke-width:6;stroke-linecap:round;stroke-linejoin:round;stroke:rgb(100%,100%,100%);stroke-opacity:1;stroke-miterlimit:10;" d="M 115.105469 28.726563 L 110.992188 34.511719 L 108.992188 35.824219 L 104.960938 38.308594 L 90.363281 37.550781 L 86.210938 37.675781 L 82.890625 37.660156 L 80.242188 37.761719 L 76.992188 39.511719 L 74.242188 43.261719 L 69.742188 68.25 L 70.242188 72.246094 L 71.492188 76 L 74.839844 79.847656 L 76.992188 82.324219 L 80.992188 87.5 L 81.507813 88.863281 L 84.492188 96.75 L 88.742188 109 L 90.074219 113.871094 L 91.492188 119.074219 L 93.644531 131.25 "/>
<path style="fill:none;stroke-width:8;stroke-linecap:round;stroke-linejoin:round;stroke:rgb(99.215686%,57.254902%,22.745098%);stroke-opacity:1;stroke-miterlimit:10;" d="M 121.164063 10.910156 L 118.367188 20.476563 L 115.105469 28.726563 "/>
<path style="fill:none;stroke-width:8;stroke-linecap:round;stroke-linejoin:round;stroke:rgb(99.215686%,57.254902%,22.745098%);stroke-opacity:1;stroke-miterlimit:10;" d="M 93.644531 131.25 L 94.015625 146.113281 L 92.757813 158.472656 "/>
<path style="fill:none;stroke-width:6;stroke-linecap:round;stroke-linejoin:round;stroke:rgb(100%,100%,100%);stroke-opacity:1;stroke-miterlimit:10;" d="M 9.105469 108.855469 L 10.503906 108.261719 L 11.667969 107.195313 L 13.042969 105.5625 "/>
<path style="fill:none;stroke-width:6;stroke-linecap:round;stroke-linejoin:round;stroke:rgb(100%,100%,100%);stroke-opacity:1;stroke-miterlimit:10;" d="M 162.851563 98.726563 L 155.976563 89.507813 L 152.738281 85.867188 "/>
<path style="fill:none;stroke-width:6;stroke-linecap:round;stroke-linejoin:round;stroke:rgb(100%,100%,100%);stroke-opacity:1;stroke-miterlimit:10;" d="M 9.105469 108.855469 L 7.476563 108.199219 L 4.234375 106.285156 L -0.285156 103.652344 L -9 100.792969 "/>
<path style="fill:none;stroke-width:6;stroke-linecap:round;stroke-linejoin:round;stroke:rgb(100%,100%,100%);stroke-opacity:1;stroke-miterlimit:10;" d="M 25.230469 93.648438 L 11.855469 59.964844 "/>
<path style="fill:none;stroke-width:6;stroke-linecap:round;stroke-linejoin:round;stroke:rgb(100%,100%,100%);stroke-opacity:1;stroke-miterlimit:10;" d="M 127.199219 232.953125 L 125.101563 233.957031 L 114.523438 240.289063 L 109 243.175781 L 95.160156 251.738281 "/>
<path style="fill:none;stroke-width:6;stroke-linecap:round;stroke-linejoin:round;stroke:rgb(100%,100%,100%);stroke-opacity:1;stroke-miterlimit:10;" d="M 11.855469 59.964844 L 7.660156 42.964844 L 6.824219 37.914063 L 6.101563 30.261719 L 6.101563 27.847656 L 6.449219 26.65625 L 6.9375 25.558594 L 10.246094 19.882813 "/>
<path style="fill:none;stroke-width:6;stroke-linecap:round;stroke-linejoin:round;stroke:rgb(100%,100%,100%);stroke-opacity:1;stroke-miterlimit:10;" d="M 4.234375 106.285156 L 13.042969 105.5625 L 18.308594 97.597656 L 20.269531 95.621094 L 22.339844 94.398438 L 25.230469 93.648438 L 41.285156 93.519531 L 61.277344 93.519531 "/>
<path style="fill:none;stroke-width:6;stroke-linecap:round;stroke-linejoin:round;stroke:rgb(100%,100%,100%);stroke-opacity:1;stroke-miterlimit:10;" d="M -9 238.1875 L 0.972656 236.089844 L 13.371094 233.894531 L 16.609375 233.769531 L 20.3125 234.613281 L 23.578125 236.339844 L 35.109375 247.097656 "/>
<path style="fill:none;stroke-width:6;stroke-linecap:round;stroke-linejoin:round;stroke:rgb(100%,100%,100%);stroke-opacity:1;stroke-miterlimit:10;" d="M 127.199219 232.953125 L 129.832031 234.363281 L 130.996094 236.589844 L 131.671875 240.101563 L 133.46875 262.492188 L 133.46875 264 "/>
<path style="fill:none;stroke-width:6;stroke-linecap:round;stroke-linejoin:round;stroke:rgb(100%,100%,100%);stroke-opacity:1;stroke-miterlimit:10;" d="M -9 190.308594 L 32.152344 199.335938 L 62.28125 205.667969 "/>
<path style="fill:none;stroke-width:6;stroke-linecap:round;stroke-linejoin:round;stroke:rgb(100%,100%,100%);stroke-opacity:1;stroke-miterlimit:10;" d="M 61.277344 93.519531 L 58.902344 89.289063 L 53.03125 74.203125 L 52.238281 69.371094 L 52.445313 62.691406 L 54.777344 45.066406 L 54.683594 40.488281 L 53.796875 38.605469 L 51.46875 35.59375 L 49.046875 33.835938 L 45.921875 32.835938 L 32.523438 31.109375 L 27.398438 29.636719 L 21.175781 27.1875 L 16.167969 24.554688 L 11.179688 20.757813 L 10.246094 19.882813 "/>
<path style="fill:none;stroke-width:6;stroke-linecap:round;stroke-linejoin:round;stroke:rgb(100%,100%,100%);stroke-opacity:1;stroke-miterlimit:10;" d="M -9 168.175781 L 21.269531 174.683594 L 63.027344 183.84375 L 65.402344 185.253906 L 66.476563 187.167969 L 66.519531 188.796875 L 64.050781 198.144531 L 62.28125 205.667969 L 61.09375 210.625 L 59.878906 214.449219 L 58.644531 217.148438 "/>
<path style="fill:none;stroke-width:6;stroke-linecap:round;stroke-linejoin:round;stroke:rgb(100%,100%,100%);stroke-opacity:1;stroke-miterlimit:10;" d="M 113.253906 -9 L 109.417969 18.375 L 108.046875 23.269531 L 104.992188 25.761719 L 93.492188 31.511719 L 89.492188 32.761719 L 86.992188 32.761719 "/>
<path style="fill:none;stroke-width:6;stroke-linecap:round;stroke-linejoin:round;stroke:rgb(100%,100%,100%);stroke-opacity:1;stroke-miterlimit:10;" d="M 231.101563 61.46875 L 223.320313 78.40625 L 217.214844 92.109375 L 216.957031 94.746094 L 217.261719 96.972656 L 218.613281 99.070313 L 221.5 101.550781 L 225.835938 104.058594 L 264 121.097656 "/>
<path style="fill:none;stroke-width:6;stroke-linecap:round;stroke-linejoin:round;stroke:rgb(100%,100%,100%);stroke-opacity:1;stroke-miterlimit:10;" d="M -0.285156 103.652344 L 0.273438 98.507813 L -0.121094 96.75 L -7.136719 71.347656 L -8.625 61.4375 L -9 59.503906 M -9 7.726563 L -7.34375 7.617188 L -3.894531 8.089844 L -0.84375 9.34375 L 10.246094 19.882813 "/>
<path style="fill:none;stroke-width:6;stroke-linecap:round;stroke-linejoin:round;stroke:rgb(100%,100%,100%);stroke-opacity:1;stroke-miterlimit:10;" d="M 174.757813 33.210938 L 180.980469 35.09375 L 198.617188 43.089844 L 203.746094 45.410156 L 219.519531 53.472656 L 224.714844 56.671875 L 231.101563 61.46875 L 234.757813 64.324219 L 243.195313 68.964844 L 246.667969 70.3125 L 253.9375 73.105469 L 264 76.496094 "/>
<path style="fill:none;stroke-width:6;stroke-linecap:round;stroke-linejoin:round;stroke:rgb(100%,100%,100%);stroke-opacity:1;stroke-miterlimit:10;" d="M -9 144.003906 L 1.8125 146.207031 L 3.28125 146.144531 L 5.074219 145.015625 L 6.660156 142.101563 L 9.011719 130.875 L 9.804688 124.820313 L 9.945313 116.476563 L 9.105469 108.855469 "/>
<path style="fill:none;stroke-width:6;stroke-linecap:round;stroke-linejoin:round;stroke:rgb(100%,100%,100%);stroke-opacity:1;stroke-miterlimit:10;" d="M 158.515625 127.171875 L 165.460938 127.453125 L 170.773438 128.113281 L 174.828125 128.113281 L 179.722656 128.742188 L 185.917969 128.804688 L 188.367188 129.398438 L 189.996094 130.527344 L 191.441406 132.222656 L 192.117188 134.542969 L 194.167969 149.34375 L 196.871094 159.757813 L 201.765625 172.550781 L 203.558594 176.847656 L 206.890625 181.679688 L 208.824219 183.558594 L 213.019531 185.597656 L 220.824219 188.390625 L 230.707031 191.242188 L 238.8125 194.597656 L 246.085938 196.042969 L 250.882813 196.167969 L 257.433594 195.507813 L 263.863281 195.476563 "/>
<path style="fill:none;stroke-width:6;stroke-linecap:round;stroke-linejoin:round;stroke:rgb(100%,100%,100%);stroke-opacity:1;stroke-miterlimit:10;" d="M 41.285156 93.519531 L 41.707031 104.027344 L 41.402344 110.425781 L 37.277344 136.644531 L 37.582031 142.132813 L 37.90625 143.636719 L 39.257813 146.242188 L 41.496094 149.03125 L 42.824219 150.035156 L 46.644531 152.042969 L 48.417969 152.542969 L 67.871094 157.121094 L 72.8125 157.6875 L 73.929688 156.964844 L 75.234375 154.488281 L 75.820313 151.101563 L 75.539063 147.589844 L 70.109375 116.320313 L 68.570313 109.984375 L 64.515625 99.417969 L 61.277344 93.519531 "/>
<path style="fill:none;stroke-width:6;stroke-linecap:round;stroke-linejoin:round;stroke:rgb(100%,99.215686%,54.509804%);stroke-opacity:1;stroke-miterlimit:10;" d="M 113.726563 264 L 116.039063 258.542969 L 127.199219 232.953125 L 131.8125 221.851563 L 149.660156 173.273438 L 152.902344 162.296875 L 155.230469 150.976563 L 158.515625 127.171875 L 160.03125 114.597656 L 161.171875 106.628906 L 162.851563 98.726563 L 163.734375 95.089844 L 172.054688 70.6875 L 174.640625 60.027344 L 175.316406 53.535156 L 174.757813 33.210938 L 175.503906 14.738281 L 175.015625 3.636719 L 173.871094 -7.71875 L 173.769531 -9 "/>
<path style="fill:none;stroke-width:9;stroke-linecap:round;stroke-linejoin:round;stroke:rgb(99.215686%,57.254902%,22.745098%);stroke-opacity:1;stroke-miterlimit:10;" d="M 74.472656 267 L 95.34375 183.152344 L 104.292969 146.367188 L 110.839844 116.164063 L 116.433594 85.710938 L 121.511719 51.464844 L 130.390625 -12 "/>
<path style="fill:none;stroke-width:9;stroke-linecap:round;stroke-linejoin:round;stroke:rgb(99.215686%,57.254902%,22.745098%);stroke-opacity:1;stroke-miterlimit:10;" d="M 124.40625 -12 L 121.164063 10.910156 L 115.5 50.867188 L 112.238281 70.785156 L 109.257813 86.714844 L 102.777344 117.667969 L 92.757813 158.472656 L 71.160156 245.621094 L 65.847656 267 "/>
<path style=" stroke:none;fill-rule:evenodd;fill:rgb(33.333333%,33.333333%,33.333333%);fill-opacity:1;" d="M 93.503906 137.601563 L 93.988281 135.617188 L 102.488281 137.710938 L 102.003906 139.695313 Z M 100.699219 128.515625 C 100.617188 128.890625 100.664063 129.210938 100.839844 129.46875 C 101.019531 129.71875 101.316406 129.898438 101.730469 130 C 102.148438 130.09375 102.492188 130.074219 102.761719 129.9375 C 103.035156 129.792969 103.210938 129.53125 103.292969 129.15625 C 103.386719 128.792969 103.351563 128.484375 103.183594 128.234375 C 103.007813 127.984375 102.710938 127.8125 102.292969 127.71875 C 101.867188 127.617188 101.519531 127.632813 101.246094 127.765625 C 100.976563 127.902344 100.792969 128.152344 100.699219 128.515625 Z M 99.652344 129.78125 C 99.371094 130.210938 99.042969 130.507813 98.667969 130.671875 C 98.292969 130.828125 97.863281 130.851563 97.371094 130.734375 C 96.652344 130.558594 96.167969 130.179688 95.917969 129.59375 C 95.660156 129.011719 95.636719 128.257813 95.855469 127.328125 C 96.085938 126.414063 96.449219 125.761719 96.949219 125.375 C 97.441406 124.980469 98.042969 124.871094 98.761719 125.046875 C 99.253906 125.164063 99.628906 125.382813 99.886719 125.703125 C 100.148438 126.015625 100.304688 126.421875 100.355469 126.921875 C 100.636719 126.445313 100.988281 126.117188 101.402344 125.9375 C 101.820313 125.761719 102.304688 125.742188 102.855469 125.875 C 103.699219 126.085938 104.277344 126.496094 104.589844 127.109375 C 104.902344 127.714844 104.933594 128.511719 104.683594 129.5 C 104.441406 130.492188 104.046875 131.1875 103.496094 131.59375 C 102.933594 131.992188 102.230469 132.085938 101.386719 131.875 C 100.835938 131.742188 100.417969 131.5 100.136719 131.15625 C 99.847656 130.804688 99.683594 130.34375 99.652344 129.78125 Z M 98.058594 128.90625 C 98.394531 128.992188 98.675781 128.96875 98.902344 128.84375 C 99.121094 128.71875 99.269531 128.5 99.339844 128.1875 C 99.425781 127.886719 99.394531 127.632813 99.246094 127.421875 C 99.101563 127.203125 98.863281 127.054688 98.527344 126.96875 C 98.183594 126.886719 97.910156 126.90625 97.699219 127.03125 C 97.480469 127.15625 97.332031 127.371094 97.246094 127.671875 C 97.175781 127.984375 97.210938 128.25 97.355469 128.46875 C 97.492188 128.679688 97.726563 128.824219 98.058594 128.90625 Z M 97.085938 123.023438 L 98.492188 117.257813 L 99.726563 117.554688 L 106.273438 122.320313 L 105.789063 124.242188 L 99.601563 119.726563 L 98.695313 123.414063 Z M 97.085938 123.023438 "/>
<path style="fill:none;stroke-width:3;stroke-linecap:round;stroke-linejoin:round;stroke:rgb(100%,100%,100%);stroke-opacity:1;stroke-miterlimit:10;" d="M 146.871094 170.886719 C 146.652344 171.566406 146.761719 172.195313 147.199219 172.777344 C 147.636719 173.351563 148.335938 173.789063 149.292969 174.089844 C 150.253906 174.402344 151.074219 174.449219 151.761719 174.230469 C 152.449219 174.003906 152.902344 173.550781 153.121094 172.871094 C 153.328125 172.195313 153.214844 171.574219 152.777344 171.011719 C 152.339844 170.441406 151.644531 169.996094 150.683594 169.683594 C 149.726563 169.382813 148.902344 169.339844 148.214844 169.558594 C 147.527344 169.769531 147.082031 170.210938 146.871094 170.886719 Z M 146.027344 170.621094 C 146.332031 169.652344 146.933594 168.996094 147.839844 168.652344 C 148.738281 168.308594 149.789063 168.324219 150.996094 168.699219 C 152.195313 169.085938 153.0625 169.679688 153.605469 170.480469 C 154.144531 171.285156 154.265625 172.167969 153.964844 173.136719 C 153.652344 174.105469 153.046875 174.769531 152.152344 175.121094 C 151.246094 175.464844 150.191406 175.445313 148.980469 175.058594 C 147.773438 174.683594 146.902344 174.097656 146.371094 173.292969 C 145.832031 172.480469 145.714844 171.589844 146.027344 170.621094 Z M 147.25 166.054688 L 147.5 165.210938 L 155.515625 167.570313 L 155.265625 168.414063 Z M 151.976563 160.921875 L 148.820313 160.125 L 149.039063 159.265625 L 157.148438 161.3125 L 156.929688 162.171875 L 156.054688 161.953125 C 156.355469 162.214844 156.554688 162.507813 156.648438 162.828125 C 156.75 163.152344 156.75 163.5 156.648438 163.875 C 156.492188 164.511719 156.085938 164.960938 155.429688 165.21875 C 154.765625 165.480469 153.972656 165.496094 153.054688 165.265625 C 152.140625 165.027344 151.453125 164.636719 150.992188 164.09375 C 150.523438 163.554688 150.367188 162.964844 150.523438 162.328125 C 150.628906 161.953125 150.800781 161.648438 151.039063 161.40625 C 151.269531 161.167969 151.582031 161.007813 151.976563 160.921875 Z M 153.273438 164.375 C 153.984375 164.554688 154.570313 164.5625 155.039063 164.40625 C 155.5 164.242188 155.785156 163.933594 155.898438 163.484375 C 156.011719 163.015625 155.90625 162.605469 155.585938 162.25 C 155.253906 161.886719 154.734375 161.617188 154.023438 161.4375 C 153.316406 161.261719 152.726563 161.25 152.257813 161.40625 C 151.789063 161.5625 151.5 161.875 151.382813 162.34375 C 151.269531 162.792969 151.378906 163.199219 151.710938 163.5625 C 152.046875 163.929688 152.566406 164.199219 153.273438 164.375 Z M 150.371094 154.65625 L 150.558594 153.6875 L 153.886719 154.34375 L 151.183594 150.515625 L 151.417969 149.28125 L 154.386719 153.515625 L 159.324219 150.578125 L 159.089844 151.828125 L 154.636719 154.5 L 158.417969 155.234375 L 158.230469 156.203125 Z M 153.496094 148.824219 L 153.621094 147.933594 L 159.574219 148.761719 L 159.449219 149.652344 Z M 151.167969 148.511719 L 151.292969 147.621094 L 152.527344 147.792969 L 152.402344 148.683594 Z M 156.855469 141.960938 L 160.449219 142.460938 L 160.324219 143.351563 L 156.761719 142.867188 C 156.199219 142.785156 155.761719 142.828125 155.449219 142.992188 C 155.136719 143.148438 154.957031 143.425781 154.902344 143.820313 C 154.839844 144.300781 154.960938 144.703125 155.261719 145.023438 C 155.566406 145.335938 156.003906 145.53125 156.574219 145.601563 L 159.949219 146.070313 L 159.824219 146.976563 L 153.871094 146.148438 L 153.996094 145.242188 L 154.917969 145.382813 C 154.574219 145.125 154.339844 144.84375 154.214844 144.539063 C 154.082031 144.226563 154.039063 143.878906 154.089844 143.492188 C 154.175781 142.890625 154.449219 142.457031 154.917969 142.195313 C 155.386719 141.925781 156.035156 141.847656 156.855469 141.960938 Z M 158.121094 136.753906 C 157.414063 136.660156 156.847656 136.71875 156.417969 136.925781 C 155.992188 137.125 155.746094 137.46875 155.683594 137.957031 C 155.621094 138.417969 155.769531 138.808594 156.121094 139.128906 C 156.476563 139.453125 157.007813 139.660156 157.714844 139.753906 C 158.414063 139.847656 158.976563 139.792969 159.402344 139.582031 C 159.832031 139.375 160.074219 139.042969 160.136719 138.582031 C 160.199219 138.09375 160.054688 137.691406 159.699219 137.378906 C 159.347656 137.058594 158.820313 136.847656 158.121094 136.753906 Z M 160.542969 136.175781 C 161.574219 136.324219 162.300781 136.636719 162.730469 137.113281 C 163.167969 137.59375 163.328125 138.25 163.214844 139.082031 C 163.171875 139.386719 163.105469 139.671875 163.011719 139.941406 C 162.925781 140.214844 162.816406 140.46875 162.683594 140.707031 L 161.730469 140.582031 C 161.917969 140.34375 162.0625 140.105469 162.167969 139.863281 C 162.28125 139.613281 162.355469 139.363281 162.386719 139.113281 C 162.46875 138.53125 162.359375 138.074219 162.058594 137.738281 C 161.765625 137.40625 161.28125 137.191406 160.605469 137.097656 L 160.121094 137.035156 C 160.445313 137.265625 160.671875 137.535156 160.808594 137.847656 C 160.941406 138.152344 160.984375 138.5 160.933594 138.894531 C 160.839844 139.550781 160.492188 140.042969 159.886719 140.363281 C 159.273438 140.6875 158.507813 140.785156 157.589844 140.660156 C 156.675781 140.535156 155.964844 140.234375 155.464844 139.753906 C 154.957031 139.277344 154.746094 138.707031 154.839844 138.050781 C 154.894531 137.65625 155.023438 137.332031 155.230469 137.082031 C 155.441406 136.824219 155.730469 136.621094 156.105469 136.472656 L 155.214844 136.347656 L 155.339844 135.457031 Z M 156.230469 130.265625 L 157.152344 130.390625 C 156.976563 130.621094 156.835938 130.867188 156.730469 131.125 C 156.628906 131.375 156.554688 131.648438 156.511719 131.9375 C 156.449219 132.375 156.480469 132.714844 156.605469 132.953125 C 156.730469 133.195313 156.941406 133.335938 157.230469 133.375 C 157.449219 133.40625 157.636719 133.355469 157.792969 133.21875 C 157.941406 133.085938 158.105469 132.789063 158.292969 132.328125 L 158.417969 132.046875 C 158.648438 131.433594 158.917969 131.015625 159.230469 130.796875 C 159.535156 130.570313 159.929688 130.492188 160.417969 130.5625 C 160.960938 130.636719 161.367188 130.890625 161.636719 131.328125 C 161.90625 131.757813 161.996094 132.3125 161.902344 133 C 161.871094 133.292969 161.796875 133.59375 161.683594 133.90625 C 161.578125 134.210938 161.441406 134.523438 161.277344 134.84375 L 160.277344 134.703125 C 160.507813 134.414063 160.691406 134.117188 160.824219 133.8125 C 160.949219 133.5 161.035156 133.1875 161.074219 132.875 C 161.136719 132.46875 161.105469 132.140625 160.980469 131.890625 C 160.855469 131.640625 160.652344 131.496094 160.371094 131.453125 C 160.101563 131.421875 159.882813 131.480469 159.714844 131.625 C 159.550781 131.773438 159.367188 132.105469 159.167969 132.625 L 159.042969 132.90625 C 158.835938 133.449219 158.585938 133.824219 158.292969 134.03125 C 157.992188 134.230469 157.613281 134.296875 157.152344 134.234375 C 156.589844 134.152344 156.183594 133.914063 155.933594 133.515625 C 155.675781 133.121094 155.589844 132.59375 155.683594 131.9375 C 155.726563 131.617188 155.792969 131.3125 155.886719 131.03125 C 155.980469 130.742188 156.097656 130.484375 156.230469 130.265625 Z M 154.707031 125.195313 L 154.832031 124.226563 L 158.082031 124.617188 L 158.503906 121.101563 L 155.253906 120.710938 L 155.378906 119.742188 L 163.332031 120.695313 L 163.207031 121.664063 L 159.425781 121.210938 L 159.003906 124.726563 L 162.785156 125.179688 L 162.660156 126.148438 Z M 157.582031 118.078125 L 157.691406 117.203125 L 163.660156 117.921875 L 163.550781 118.796875 Z M 155.253906 117.796875 L 155.363281 116.921875 L 156.597656 117.078125 L 156.488281 117.953125 Z M 161.324219 112.191406 C 160.605469 112.097656 160.039063 112.15625 159.621094 112.363281 C 159.195313 112.574219 158.949219 112.921875 158.886719 113.410156 C 158.824219 113.871094 158.972656 114.261719 159.324219 114.582031 C 159.667969 114.894531 160.199219 115.097656 160.917969 115.191406 C 161.617188 115.296875 162.179688 115.246094 162.605469 115.035156 C 163.035156 114.816406 163.277344 114.480469 163.339844 114.019531 C 163.402344 113.53125 163.257813 113.128906 162.902344 112.816406 C 162.550781 112.503906 162.023438 112.296875 161.324219 112.191406 Z M 163.746094 111.628906 C 164.777344 111.765625 165.503906 112.074219 165.933594 112.550781 C 166.371094 113.019531 166.53125 113.675781 166.417969 114.519531 C 166.375 114.824219 166.308594 115.109375 166.214844 115.378906 C 166.128906 115.640625 166.015625 115.894531 165.871094 116.144531 L 164.917969 116.019531 C 165.113281 115.78125 165.265625 115.542969 165.371094 115.300781 C 165.472656 115.050781 165.546875 114.800781 165.589844 114.550781 C 165.660156 113.96875 165.550781 113.511719 165.261719 113.175781 C 164.96875 112.84375 164.484375 112.628906 163.808594 112.535156 L 163.324219 112.472656 C 163.636719 112.691406 163.859375 112.957031 163.996094 113.269531 C 164.140625 113.582031 164.1875 113.9375 164.136719 114.332031 C 164.042969 114.988281 163.695313 115.480469 163.089844 115.800781 C 162.476563 116.125 161.710938 116.222656 160.792969 116.097656 C 159.878906 115.972656 159.167969 115.675781 158.667969 115.207031 C 158.160156 114.730469 157.949219 114.160156 158.042969 113.503906 C 158.097656 113.109375 158.226563 112.78125 158.433594 112.519531 C 158.632813 112.25 158.925781 112.050781 159.308594 111.925781 L 158.417969 111.800781 L 158.542969 110.910156 Z M 161.933594 105.007813 L 165.511719 105.617188 L 165.355469 106.492188 L 161.808594 105.882813 C 161.246094 105.789063 160.816406 105.820313 160.511719 105.976563 C 160.199219 106.132813 160.007813 106.40625 159.933594 106.789063 C 159.851563 107.257813 159.957031 107.660156 160.246094 107.992188 C 160.527344 108.328125 160.957031 108.539063 161.527344 108.632813 L 164.886719 109.210938 L 164.746094 110.101563 L 156.511719 108.695313 L 156.652344 107.804688 L 159.886719 108.351563 C 159.566406 108.082031 159.339844 107.789063 159.214844 107.476563 C 159.089844 107.164063 159.058594 106.816406 159.121094 106.429688 C 159.226563 105.828125 159.519531 105.40625 159.996094 105.164063 C 160.464844 104.914063 161.113281 104.863281 161.933594 105.007813 Z M 159.832031 103.277344 L 160.019531 102.386719 L 164.847656 102.339844 L 160.503906 100.214844 L 160.738281 99.199219 L 165.550781 99.152344 L 161.207031 97.027344 L 161.410156 96.167969 L 166.972656 98.871094 L 166.738281 99.886719 L 161.675781 99.949219 L 166.238281 102.167969 L 166.003906 103.199219 Z M 165.410156 93.28125 C 165.191406 93.96875 165.136719 94.476563 165.238281 94.796875 C 165.332031 95.121094 165.589844 95.34375 166.003906 95.46875 C 166.328125 95.585938 166.621094 95.574219 166.878906 95.4375 C 167.140625 95.292969 167.324219 95.054688 167.441406 94.71875 C 167.585938 94.242188 167.523438 93.804688 167.253906 93.40625 C 166.972656 93 166.53125 92.699219 165.925781 92.5 L 165.691406 92.4375 Z M 165.582031 91.46875 L 168.847656 92.515625 L 168.582031 93.359375 L 167.722656 93.078125 C 168.003906 93.390625 168.179688 93.71875 168.253906 94.0625 C 168.324219 94.398438 168.292969 94.773438 168.160156 95.1875 C 167.992188 95.71875 167.695313 96.089844 167.269531 96.296875 C 166.84375 96.507813 166.347656 96.523438 165.785156 96.34375 C 165.152344 96.136719 164.734375 95.789063 164.535156 95.296875 C 164.328125 94.808594 164.34375 94.171875 164.582031 93.390625 L 164.972656 92.203125 L 164.878906 92.171875 C 164.441406 92.027344 164.0625 92.046875 163.738281 92.234375 C 163.417969 92.421875 163.183594 92.746094 163.035156 93.203125 C 162.941406 93.496094 162.890625 93.792969 162.878906 94.09375 C 162.871094 94.398438 162.902344 94.703125 162.972656 95.015625 L 162.113281 94.75 C 162.074219 94.386719 162.066406 94.046875 162.097656 93.734375 C 162.128906 93.421875 162.1875 93.132813 162.269531 92.859375 C 162.511719 92.109375 162.90625 91.621094 163.457031 91.390625 C 164 91.164063 164.707031 91.1875 165.582031 91.46875 Z M 170.667969 88.910156 C 171.261719 89.378906 171.621094 89.761719 171.746094 90.050781 C 171.871094 90.34375 171.871094 90.675781 171.746094 91.050781 L 171.511719 91.738281 L 170.746094 91.472656 L 170.917969 90.957031 C 171 90.738281 171 90.546875 170.917969 90.378906 C 170.832031 90.203125 170.59375 89.957031 170.199219 89.644531 L 169.808594 89.363281 L 163.511719 89.519531 L 163.808594 88.628906 L 168.792969 88.550781 L 164.917969 85.425781 L 165.214844 84.535156 Z M 170.667969 88.910156 "/>
<path style=" stroke:none;fill-rule:evenodd;fill:rgb(20%,20%,20%);fill-opacity:1;" d="M 146.871094 170.886719 C 146.652344 171.566406 146.761719 172.195313 147.199219 172.777344 C 147.636719 173.351563 148.335938 173.789063 149.292969 174.089844 C 150.253906 174.402344 151.074219 174.449219 151.761719 174.230469 C 152.449219 174.003906 152.902344 173.550781 153.121094 172.871094 C 153.328125 172.195313 153.214844 171.574219 152.777344 171.011719 C 152.339844 170.441406 151.644531 169.996094 150.683594 169.683594 C 149.726563 169.382813 148.902344 169.339844 148.214844 169.558594 C 147.527344 169.769531 147.082031 170.210938 146.871094 170.886719 Z M 146.027344 170.621094 C 146.332031 169.652344 146.933594 168.996094 147.839844 168.652344 C 148.738281 168.308594 149.789063 168.324219 150.996094 168.699219 C 152.195313 169.085938 153.0625 169.679688 153.605469 170.480469 C 154.144531 171.285156 154.265625 172.167969 153.964844 173.136719 C 153.652344 174.105469 153.046875 174.769531 152.152344 175.121094 C 151.246094 175.464844 150.191406 175.445313 148.980469 175.058594 C 147.773438 174.683594 146.902344 174.097656 146.371094 173.292969 C 145.832031 172.480469 145.714844 171.589844 146.027344 170.621094 Z M 147.25 166.054688 L 147.5 165.210938 L 155.515625 167.570313 L 155.265625 168.414063 Z M 151.976563 160.921875 L 148.820313 160.125 L 149.039063 159.265625 L 157.148438 161.3125 L 156.929688 162.171875 L 156.054688 161.953125 C 156.355469 162.214844 156.554688 162.507813 156.648438 162.828125 C 156.75 163.152344 156.75 163.5 156.648438 163.875 C 156.492188 164.511719 156.085938 164.960938 155.429688 165.21875 C 154.765625 165.480469 153.972656 165.496094 153.054688 165.265625 C 152.140625 165.027344 151.453125 164.636719 150.992188 164.09375 C 150.523438 163.554688 150.367188 162.964844 150.523438 162.328125 C 150.628906 161.953125 150.800781 161.648438 151.039063 161.40625 C 151.269531 161.167969 151.582031 161.007813 151.976563 160.921875 Z M 153.273438 164.375 C 153.984375 164.554688 154.570313 164.5625 155.039063 164.40625 C 155.5 164.242188 155.785156 163.933594 155.898438 163.484375 C 156.011719 163.015625 155.90625 162.605469 155.585938 162.25 C 155.253906 161.886719 154.734375 161.617188 154.023438 161.4375 C 153.316406 161.261719 152.726563 161.25 152.257813 161.40625 C 151.789063 161.5625 151.5 161.875 151.382813 162.34375 C 151.269531 162.792969 151.378906 163.199219 151.710938 163.5625 C 152.046875 163.929688 152.566406 164.199219 153.273438 164.375 Z M 150.371094 154.65625 L 150.558594 153.6875 L 153.886719 154.34375 L 151.183594 150.515625 L 151.417969 149.28125 L 154.386719 153.515625 L 159.324219 150.578125 L 159.089844 151.828125 L 154.636719 154.5 L 158.417969 155.234375 L 158.230469 156.203125 Z M 153.496094 148.824219 L 153.621094 147.933594 L 159.574219 148.761719 L 159.449219 149.652344 Z M 151.167969 148.511719 L 151.292969 147.621094 L 152.527344 147.792969 L 152.402344 148.683594 Z M 156.855469 141.960938 L 160.449219 142.460938 L 160.324219 143.351563 L 156.761719 142.867188 C 156.199219 142.785156 155.761719 142.828125 155.449219 142.992188 C 155.136719 143.148438 154.957031 143.425781 154.902344 143.820313 C 154.839844 144.300781 154.960938 144.703125 155.261719 145.023438 C 155.566406 145.335938 156.003906 145.53125 156.574219 145.601563 L 159.949219 146.070313 L 159.824219 146.976563 L 153.871094 146.148438 L 153.996094 145.242188 L 154.917969 145.382813 C 154.574219 145.125 154.339844 144.84375 154.214844 144.539063 C 154.082031 144.226563 154.039063 143.878906 154.089844 143.492188 C 154.175781 142.890625 154.449219 142.457031 154.917969 142.195313 C 155.386719 141.925781 156.035156 141.847656 156.855469 141.960938 Z M 158.121094 136.753906 C 157.414063 136.660156 156.847656 136.71875 156.417969 136.925781 C 155.992188 137.125 155.746094 137.46875 155.683594 137.957031 C 155.621094 138.417969 155.769531 138.808594 156.121094 139.128906 C 156.476563 139.453125 157.007813 139.660156 157.714844 139.753906 C 158.414063 139.847656 158.976563 139.792969 159.402344 139.582031 C 159.832031 139.375 160.074219 139.042969 160.136719 138.582031 C 160.199219 138.09375 160.054688 137.691406 159.699219 137.378906 C 159.347656 137.058594 158.820313 136.847656 158.121094 136.753906 Z M 160.542969 136.175781 C 161.574219 136.324219 162.300781 136.636719 162.730469 137.113281 C 163.167969 137.59375 163.328125 138.25 163.214844 139.082031 C 163.171875 139.386719 163.105469 139.671875 163.011719 139.941406 C 162.925781 140.214844 162.816406 140.46875 162.683594 140.707031 L 161.730469 140.582031 C 161.917969 140.34375 162.0625 140.105469 162.167969 139.863281 C 162.28125 139.613281 162.355469 139.363281 162.386719 139.113281 C 162.46875 138.53125 162.359375 138.074219 162.058594 137.738281 C 161.765625 137.40625 161.28125 137.191406 160.605469 137.097656 L 160.121094 137.035156 C 160.445313 137.265625 160.671875 137.535156 160.808594 137.847656 C 160.941406 138.152344 160.984375 138.5 160.933594 138.894531 C 160.839844 139.550781 160.492188 140.042969 159.886719 140.363281 C 159.273438 140.6875 158.507813 140.785156 157.589844 140.660156 C 156.675781 140.535156 155.964844 140.234375 155.464844 139.753906 C 154.957031 139.277344 154.746094 138.707031 154.839844 138.050781 C 154.894531 137.65625 155.023438 137.332031 155.230469 137.082031 C 155.441406 136.824219 155.730469 136.621094 156.105469 136.472656 L 155.214844 136.347656 L 155.339844 135.457031 Z M 156.230469 130.265625 L 157.152344 130.390625 C 156.976563 130.621094 156.835938 130.867188 156.730469 131.125 C 156.628906 131.375 156.554688 131.648438 156.511719 131.9375 C 156.449219 132.375 156.480469 132.714844 156.605469 132.953125 C 156.730469 133.195313 156.941406 133.335938 157.230469 133.375 C 157.449219 133.40625 157.636719 133.355469 157.792969 133.21875 C 157.941406 133.085938 158.105469 132.789063 158.292969 132.328125 L 158.417969 132.046875 C 158.648438 131.433594 158.917969 131.015625 159.230469 130.796875 C 159.535156 130.570313 159.929688 130.492188 160.417969 130.5625 C 160.960938 130.636719 161.367188 130.890625 161.636719 131.328125 C 161.90625 131.757813 161.996094 132.3125 161.902344 133 C 161.871094 133.292969 161.796875 133.59375 161.683594 133.90625 C 161.578125 134.210938 161.441406 134.523438 161.277344 134.84375 L 160.277344 134.703125 C 160.507813 134.414063 160.691406 134.117188 160.824219 133.8125 C 160.949219 133.5 161.035156 133.1875 161.074219 132.875 C 161.136719 132.46875 161.105469 132.140625 160.980469 131.890625 C 160.855469 131.640625 160.652344 131.496094 160.371094 131.453125 C 160.101563 131.421875 159.882813 131.480469 159.714844 131.625 C 159.550781 131.773438 159.367188 132.105469 159.167969 132.625 L 159.042969 132.90625 C 158.835938 133.449219 158.585938 133.824219 158.292969 134.03125 C 157.992188 134.230469 157.613281 134.296875 157.152344 134.234375 C 156.589844 134.152344 156.183594 133.914063 155.933594 133.515625 C 155.675781 133.121094 155.589844 132.59375 155.683594 131.9375 C 155.726563 131.617188 155.792969 131.3125 155.886719 131.03125 C 155.980469 130.742188 156.097656 130.484375 156.230469 130.265625 Z M 154.707031 125.195313 L 154.832031 124.226563 L 158.082031 124.617188 L 158.503906 121.101563 L 155.253906 120.710938 L 155.378906 119.742188 L 163.332031 120.695313 L 163.207031 121.664063 L 159.425781 121.210938 L 159.003906 124.726563 L 162.785156 125.179688 L 162.660156 126.148438 Z M 157.582031 118.078125 L 157.691406 117.203125 L 163.660156 117.921875 L 163.550781 118.796875 Z M 155.253906 117.796875 L 155.363281 116.921875 L 156.597656 117.078125 L 156.488281 117.953125 Z M 161.324219 112.191406 C 160.605469 112.097656 160.039063 112.15625 159.621094 112.363281 C 159.195313 112.574219 158.949219 112.921875 158.886719 113.410156 C 158.824219 113.871094 158.972656 114.261719 159.324219 114.582031 C 159.667969 114.894531 160.199219 115.097656 160.917969 115.191406 C 161.617188 115.296875 162.179688 115.246094 162.605469 115.035156 C 163.035156 114.816406 163.277344 114.480469 163.339844 114.019531 C 163.402344 113.53125 163.257813 113.128906 162.902344 112.816406 C 162.550781 112.503906 162.023438 112.296875 161.324219 112.191406 Z M 163.746094 111.628906 C 164.777344 111.765625 165.503906 112.074219 165.933594 112.550781 C 166.371094 113.019531 166.53125 113.675781 166.417969 114.519531 C 166.375 114.824219 166.308594 115.109375 166.214844 115.378906 C 166.128906 115.640625 166.015625 115.894531 165.871094 116.144531 L 164.917969 116.019531 C 165.113281 115.78125 165.265625 115.542969 165.371094 115.300781 C 165.472656 115.050781 165.546875 114.800781 165.589844 114.550781 C 165.660156 113.96875 165.550781 113.511719 165.261719 113.175781 C 164.96875 112.84375 164.484375 112.628906 163.808594 112.535156 L 163.324219 112.472656 C 163.636719 112.691406 163.859375 112.957031 163.996094 113.269531 C 164.140625 113.582031 164.1875 113.9375 164.136719 114.332031 C 164.042969 114.988281 163.695313 115.480469 163.089844 115.800781 C 162.476563 116.125 161.710938 116.222656 160.792969 116.097656 C 159.878906 115.972656 159.167969 115.675781 158.667969 115.207031 C 158.160156 114.730469 157.949219 114.160156 158.042969 113.503906 C 158.097656 113.109375 158.226563 112.78125 158.433594 112.519531 C 158.632813 112.25 158.925781 112.050781 159.308594 111.925781 L 158.417969 111.800781 L 158.542969 110.910156 Z M 161.933594 105.007813 L 165.511719 105.617188 L 165.355469 106.492188 L 161.808594 105.882813 C 161.246094 105.789063 160.816406 105.820313 160.511719 105.976563 C 160.199219 106.132813 160.007813 106.40625 159.933594 106.789063 C 159.851563 107.257813 159.957031 107.660156 160.246094 107.992188 C 160.527344 108.328125 160.957031 108.539063 161.527344 108.632813 L 164.886719 109.210938 L 164.746094 110.101563 L 156.511719 108.695313 L 156.652344 107.804688 L 159.886719 108.351563 C 159.566406 108.082031 159.339844 107.789063 159.214844 107.476563 C 159.089844 107.164063 159.058594 106.816406 159.121094 106.429688 C 159.226563 105.828125 159.519531 105.40625 159.996094 105.164063 C 160.464844 104.914063 161.113281 104.863281 161.933594 105.007813 Z M 159.832031 103.277344 L 160.019531 102.386719 L 164.847656 102.339844 L 160.503906 100.214844 L 160.738281 99.199219 L 165.550781 99.152344 L 161.207031 97.027344 L 161.410156 96.167969 L 166.972656 98.871094 L 166.738281 99.886719 L 161.675781 99.949219 L 166.238281 102.167969 L 166.003906 103.199219 Z M 165.410156 93.28125 C 165.191406 93.96875 165.136719 94.476563 165.238281 94.796875 C 165.332031 95.121094 165.589844 95.34375 166.003906 95.46875 C 166.328125 95.585938 166.621094 95.574219 166.878906 95.4375 C 167.140625 95.292969 167.324219 95.054688 167.441406 94.71875 C 167.585938 94.242188 167.523438 93.804688 167.253906 93.40625 C 166.972656 93 166.53125 92.699219 165.925781 92.5 L 165.691406 92.4375 Z M 165.582031 91.46875 L 168.847656 92.515625 L 168.582031 93.359375 L 167.722656 93.078125 C 168.003906 93.390625 168.179688 93.71875 168.253906 94.0625 C 168.324219 94.398438 168.292969 94.773438 168.160156 95.1875 C 167.992188 95.71875 167.695313 96.089844 167.269531 96.296875 C 166.84375 96.507813 166.347656 96.523438 165.785156 96.34375 C 165.152344 96.136719 164.734375 95.789063 164.535156 95.296875 C 164.328125 94.808594 164.34375 94.171875 164.582031 93.390625 L 164.972656 92.203125 L 164.878906 92.171875 C 164.441406 92.027344 164.0625 92.046875 163.738281 92.234375 C 163.417969 92.421875 163.183594 92.746094 163.035156 93.203125 C 162.941406 93.496094 162.890625 93.792969 162.878906 94.09375 C 162.871094 94.398438 162.902344 94.703125 162.972656 95.015625 L 162.113281 94.75 C 162.074219 94.386719 162.066406 94.046875 162.097656 93.734375 C 162.128906 93.421875 162.1875 93.132813 162.269531 92.859375 C 162.511719 92.109375 162.90625 91.621094 163.457031 91.390625 C 164 91.164063 164.707031 91.1875 165.582031 91.46875 Z M 170.667969 88.910156 C 171.261719 89.378906 171.621094 89.761719 171.746094 90.050781 C 171.871094 90.34375 171.871094 90.675781 171.746094 91.050781 L 171.511719 91.738281 L 170.746094 91.472656 L 170.917969 90.957031 C 171 90.738281 171 90.546875 170.917969 90.378906 C 170.832031 90.203125 170.59375 89.957031 170.199219 89.644531 L 169.808594 89.363281 L 163.511719 89.519531 L 163.808594 88.628906 L 168.792969 88.550781 L 164.917969 85.425781 L 165.214844 84.535156 Z M 170.667969 88.910156 "/>
</g>
</svg>

