<?xml version="1.0" encoding="UTF-8"?>
<svg xmlns="http://www.w3.org/2000/svg" xmlns:xlink="http://www.w3.org/1999/xlink" width="256pt" height="256pt" viewBox="0 0 256 256" version="1.1">
<g id="surface2">
<rect x="0" y="0" width="256" height="256" style="fill:rgb(94.901961%,93.72549%,91.372549%);fill-opacity:1;stroke:none;"/>
<path style=" stroke:none;fill-rule:evenodd;fill:rgb(81.960784%,81.568627%,80.392157%);fill-opacity:1;" d="M 33.855469 125.394531 L 33.917969 136.859375 L 35.167969 139.703125 L 37.972656 142.304688 L 40.773438 143.6875 L 43.875 144.257813 L 49.960938 143.28125 L 66.839844 138.730469 L 77.996094 135.558594 L 82.347656 134.746094 L 96.546875 133.527344 L 117.660156 133.363281 L 122.730469 133.28125 L 122.429688 118.566406 L 75.96875 119.296875 L 74.234375 120.195313 L 69.226563 124.828125 Z M 33.855469 125.394531 "/>
<path style="fill:none;stroke-width:1;stroke-linecap:round;stroke-linejoin:round;stroke:rgb(81.960784%,81.960784%,81.960784%);stroke-opacity:1;stroke-miterlimit:10;" d="M 33.855469 125.394531 L 33.917969 136.859375 L 35.167969 139.703125 L 37.972656 142.304688 L 40.773438 143.6875 L 43.875 144.257813 L 49.960938 143.28125 L 66.839844 138.730469 L 77.996094 135.558594 L 82.347656 134.746094 L 96.546875 133.527344 L 117.660156 133.363281 L 122.730469 133.28125 L 122.429688 118.566406 L 75.96875 119.296875 L 74.234375 120.195313 L 69.226563 124.828125 L 33.855469 125.394531 "/>
<path style=" stroke:none;fill-rule:evenodd;fill:rgb(81.960784%,81.568627%,80.392157%);fill-opacity:1;" d="M 127.195313 132.296875 L 128.871094 132.296875 L 128.738281 133.484375 L 141.15625 137.054688 L 147.128906 136.78125 L 151.625 132.753906 L 155.453125 120.949219 L 160.148438 111.253906 L 185.992188 82.800781 L 188.675781 78.316406 L 190.21875 72.554688 L 190.488281 68.253906 L 187.402344 65.601563 L 185.453125 68.160156 L 184.246094 71.910156 L 167.332031 89.9375 L 159.476563 92.039063 L 132.160156 118.664063 L 132.09375 120.585938 L 127.328125 120.492188 Z M 127.195313 132.296875 "/>
<path style="fill:none;stroke-width:1;stroke-linecap:round;stroke-linejoin:round;stroke:rgb(81.960784%,81.960784%,81.960784%);stroke-opacity:1;stroke-miterlimit:10;" d="M 127.195313 132.296875 L 128.871094 132.296875 L 128.738281 133.484375 L 141.15625 137.054688 L 147.128906 136.78125 L 151.625 132.753906 L 155.453125 120.949219 L 160.148438 111.253906 L 185.992188 82.800781 L 188.675781 78.316406 L 190.21875 72.554688 L 190.488281 68.253906 L 187.402344 65.601563 L 185.453125 68.160156 L 184.246094 71.910156 L 167.332031 89.9375 L 159.476563 92.039063 L 132.160156 118.664063 L 132.09375 120.585938 L 127.328125 120.492188 L 127.195313 132.296875 "/>
<path style=" stroke:none;fill-rule:evenodd;fill:rgb(81.960784%,81.568627%,80.392157%);fill-opacity:1;" d="M 45.789063 83.058594 L 78.355469 82.277344 L 84.394531 78.050781 L 95.089844 77.382813 L 94.84375 46.121094 L 91.335938 44.898438 L 77.703125 58.804688 L 74.765625 60.363281 L 63.828125 63.363281 L 45.789063 77.71875 Z M 45.789063 83.058594 "/>
<path style="fill:none;stroke-width:1;stroke-linecap:round;stroke-linejoin:round;stroke:rgb(81.960784%,81.960784%,81.960784%);stroke-opacity:1;stroke-miterlimit:10;" d="M 45.789063 83.058594 L 78.355469 82.277344 L 84.394531 78.050781 L 95.089844 77.382813 L 94.84375 46.121094 L 91.335938 44.898438 L 77.703125 58.804688 L 74.765625 60.363281 L 63.828125 63.363281 L 45.789063 77.71875 L 45.789063 83.058594 "/>
<path style=" stroke:none;fill-rule:evenodd;fill:rgb(81.960784%,81.568627%,80.392157%);fill-opacity:1;" d="M 131.167969 26.539063 L 131.328125 63.699219 L 138.675781 63.808594 L 145.859375 59.25 L 157.613281 46.789063 L 157.855469 29.097656 L 155.898438 27.09375 L 135.246094 25.871094 Z M 131.167969 26.539063 "/>
<path style="fill:none;stroke-width:1;stroke-linecap:round;stroke-linejoin:round;stroke:rgb(81.960784%,81.960784%,81.960784%);stroke-opacity:1;stroke-miterlimit:10;" d="M 131.167969 26.539063 L 131.328125 63.699219 L 138.675781 63.808594 L 145.859375 59.25 L 157.613281 46.789063 L 157.855469 29.097656 L 155.898438 27.09375 L 135.246094 25.871094 L 131.167969 26.539063 "/>
<path style=" stroke:none;fill-rule:evenodd;fill:rgb(81.960784%,81.568627%,80.392157%);fill-opacity:1;" d="M 160.753906 42.972656 L 171.144531 53.367188 L 174.585938 49.867188 L 175.453125 50.835938 L 176.480469 49.8125 L 186.554688 59.828125 L 188.09375 58 L 186.160156 50.785156 L 183.789063 45.828125 L 167.117188 29.507813 L 165.855469 30.589844 L 164.628906 29.832031 L 160.835938 33.546875 Z M 160.753906 42.972656 "/>
<path style="fill:none;stroke-width:1;stroke-linecap:round;stroke-linejoin:round;stroke:rgb(81.960784%,81.960784%,81.960784%);stroke-opacity:1;stroke-miterlimit:10;" d="M 160.753906 42.972656 L 171.144531 53.367188 L 174.585938 49.867188 L 175.453125 50.835938 L 176.480469 49.8125 L 186.554688 59.828125 L 188.09375 58 L 186.160156 50.785156 L 183.789063 45.828125 L 167.117188 29.507813 L 165.855469 30.589844 L 164.628906 29.832031 L 160.835938 33.546875 L 160.753906 42.972656 "/>
<path style=" stroke:none;fill-rule:evenodd;fill:rgb(81.960784%,81.568627%,80.392157%);fill-opacity:1;" d="M 34.023438 99.785156 L 34.136719 121.1875 L 38.414063 120.953125 L 38.417969 115.195313 L 42.703125 115.039063 L 42.53125 91.457031 L 39.789063 91.609375 L 40.304688 90.050781 L 37.503906 87.5625 L 35.90625 90.285156 L 34.820313 93.554688 L 34.136719 96.746094 Z M 34.023438 99.785156 "/>
<path style="fill:none;stroke-width:1;stroke-linecap:round;stroke-linejoin:round;stroke:rgb(81.960784%,81.960784%,81.960784%);stroke-opacity:1;stroke-miterlimit:10;" d="M 34.023438 99.785156 L 34.136719 121.1875 L 38.414063 120.953125 L 38.417969 115.195313 L 42.703125 115.039063 L 42.53125 91.457031 L 39.789063 91.609375 L 40.304688 90.050781 L 37.503906 87.5625 L 35.90625 90.285156 L 34.820313 93.554688 L 34.136719 96.746094 L 34.023438 99.785156 "/>
<path style=" stroke:none;fill-rule:evenodd;fill:rgb(81.960784%,81.568627%,80.392157%);fill-opacity:1;" d="M 105.699219 31.921875 L 128.273438 31.5 L 128.003906 26.597656 L 117.640625 27.019531 L 112.386719 27.917969 L 105.738281 30.132813 Z M 105.699219 31.921875 "/>
<path style="fill:none;stroke-width:1;stroke-linecap:round;stroke-linejoin:round;stroke:rgb(81.960784%,81.960784%,81.960784%);stroke-opacity:1;stroke-miterlimit:10;" d="M 105.699219 31.921875 L 128.273438 31.5 L 128.003906 26.597656 L 117.640625 27.019531 L 112.386719 27.917969 L 105.738281 30.132813 L 105.699219 31.921875 "/>
<path style=" stroke:none;fill-rule:evenodd;fill:rgb(81.960784%,81.568627%,80.392157%);fill-opacity:1;" d="M 177.863281 62.175781 L 180.472656 64.761719 L 179.242188 65.929688 L 181.421875 68.125 L 184.035156 65.023438 L 184.269531 63.46875 L 180.378906 59.589844 Z M 177.863281 62.175781 "/>
<path style="fill:none;stroke-width:1;stroke-linecap:round;stroke-linejoin:round;stroke:rgb(81.960784%,81.960784%,81.960784%);stroke-opacity:1;stroke-miterlimit:10;" d="M 177.863281 62.175781 L 180.472656 64.761719 L 179.242188 65.929688 L 181.421875 68.125 L 184.035156 65.023438 L 184.269531 63.46875 L 180.378906 59.589844 L 177.863281 62.175781 "/>
<path style=" stroke:none;fill-rule:evenodd;fill:rgb(81.960784%,81.568627%,80.392157%);fill-opacity:1;" d="M 166.234375 84.214844 L 166.871094 86.136719 L 170.058594 82.980469 L 169.523438 80.96875 Z M 166.234375 84.214844 "/>
<path style="fill:none;stroke-width:1;stroke-linecap:round;stroke-linejoin:round;stroke:rgb(81.960784%,81.960784%,81.960784%);stroke-opacity:1;stroke-miterlimit:10;" d="M 166.234375 84.214844 L 166.871094 86.136719 L 170.058594 82.980469 L 169.523438 80.96875 L 166.234375 84.214844 "/>
<path style="fill:none;stroke-width:1;stroke-linecap:butt;stroke-linejoin:round;stroke:rgb(46.666667%,46.666667%,46.666667%);stroke-opacity:1;stroke-dasharray:2,2;stroke-miterlimit:10;" d="M -2 195.816406 L 34 171.089844 "/>
<path style="fill:none;stroke-width:1;stroke-linecap:butt;stroke-linejoin:round;stroke:rgb(46.666667%,46.666667%,46.666667%);stroke-opacity:1;stroke-dasharray:2,2;stroke-miterlimit:10;" d="M 37.417969 168.746094 L 47.835938 162.5625 L 63.039063 157.164063 L 79.039063 153.761719 L 95.863281 151.796875 L 115.261719 151.597656 L 134.863281 155.195313 L 152.664063 161.394531 L 170.460938 170.597656 L 186.261719 181.394531 L 222.664063 209.796875 L 240.960938 221.777344 L 257 229.726563 "/>
<path style="fill:none;stroke-width:1;stroke-linecap:butt;stroke-linejoin:round;stroke:rgb(46.666667%,46.666667%,46.666667%);stroke-opacity:1;stroke-dasharray:2,2;stroke-miterlimit:10;" d="M 34 171.089844 L 37.417969 168.746094 "/>
<path style="fill:none;stroke-width:8;stroke-linecap:round;stroke-linejoin:round;stroke:rgb(75.686275%,70.980392%,61.568627%);stroke-opacity:1;stroke-miterlimit:10;" d="M 177.3125 31.632813 L 175.175781 33.835938 "/>
<path style="fill:none;stroke-width:8;stroke-linecap:round;stroke-linejoin:round;stroke:rgb(75.686275%,70.980392%,61.568627%);stroke-opacity:1;stroke-miterlimit:10;" d="M 171.847656 79.722656 L 172.410156 82.925781 "/>
<path style="fill:none;stroke-width:8;stroke-linecap:round;stroke-linejoin:round;stroke:rgb(75.686275%,70.980392%,61.568627%);stroke-opacity:1;stroke-miterlimit:10;" d="M 177.238281 35.929688 L 179.472656 33.476563 "/>
<path style="fill:none;stroke-width:8;stroke-linecap:round;stroke-linejoin:round;stroke:rgb(75.686275%,70.980392%,61.568627%);stroke-opacity:1;stroke-miterlimit:10;" d="M 79.132813 48.332031 L 81.984375 51.550781 "/>
<path style="fill:none;stroke-width:8;stroke-linecap:round;stroke-linejoin:round;stroke:rgb(75.686275%,70.980392%,61.568627%);stroke-opacity:1;stroke-miterlimit:10;" d="M 38.804688 82.28125 L 41.558594 84.449219 L 43.648438 84.4375 "/>
<path style="fill:none;stroke-width:8;stroke-linecap:round;stroke-linejoin:round;stroke:rgb(75.686275%,70.980392%,61.568627%);stroke-opacity:1;stroke-miterlimit:10;" d="M 37.890625 93.15625 L 43.652344 92.980469 "/>
<path style="fill:none;stroke-width:8;stroke-linecap:round;stroke-linejoin:round;stroke:rgb(75.686275%,70.980392%,61.568627%);stroke-opacity:1;stroke-miterlimit:10;" d="M 190.902344 60.289063 L 188.054688 61.445313 L 185.582031 62.597656 "/>
<path style="fill:none;stroke-width:8;stroke-linecap:round;stroke-linejoin:round;stroke:rgb(75.686275%,70.980392%,61.568627%);stroke-opacity:1;stroke-miterlimit:10;" d="M 69.628906 37.617188 L 73.59375 42.089844 "/>
<path style="fill:none;stroke-width:8;stroke-linecap:round;stroke-linejoin:round;stroke:rgb(75.686275%,70.980392%,61.568627%);stroke-opacity:1;stroke-miterlimit:10;" d="M 109.933594 26.753906 L 109.835938 33.078125 "/>
<path style="fill:none;stroke-width:8;stroke-linecap:round;stroke-linejoin:round;stroke:rgb(75.686275%,70.980392%,61.568627%);stroke-opacity:1;stroke-miterlimit:10;" d="M 36.808594 98.109375 L 43.65625 97.753906 "/>
<path style="fill:none;stroke-width:8;stroke-linecap:round;stroke-linejoin:round;stroke:rgb(75.686275%,70.980392%,61.568627%);stroke-opacity:1;stroke-miterlimit:10;" d="M 36.742188 114.140625 L 43.660156 113.902344 "/>
<path style="fill:none;stroke-width:8;stroke-linecap:round;stroke-linejoin:round;stroke:rgb(75.686275%,70.980392%,61.568627%);stroke-opacity:1;stroke-miterlimit:10;" d="M 36.730469 108.730469 L 43.660156 108.652344 "/>
<path style="fill:none;stroke-width:8;stroke-linecap:round;stroke-linejoin:round;stroke:rgb(75.686275%,70.980392%,61.568627%);stroke-opacity:1;stroke-miterlimit:10;" d="M 36.71875 103.40625 L 43.65625 103.402344 "/>
<path style="fill:none;stroke-width:8;stroke-linecap:round;stroke-linejoin:round;stroke:rgb(75.686275%,70.980392%,61.568627%);stroke-opacity:1;stroke-miterlimit:10;" d="M 115.195313 25.730469 L 115.171875 32.933594 "/>
<path style="fill:none;stroke-width:8;stroke-linecap:round;stroke-linejoin:round;stroke:rgb(75.686275%,70.980392%,61.568627%);stroke-opacity:1;stroke-miterlimit:10;" d="M 44.921875 76.925781 L 44.847656 84.28125 "/>
<path style="fill:none;stroke-width:8;stroke-linecap:round;stroke-linejoin:round;stroke:rgb(75.686275%,70.980392%,61.568627%);stroke-opacity:1;stroke-miterlimit:10;" d="M 183.460938 59.433594 L 187.898438 55.089844 L 189 54.40625 "/>
<path style="fill:none;stroke-width:8;stroke-linecap:round;stroke-linejoin:round;stroke:rgb(75.686275%,70.980392%,61.568627%);stroke-opacity:1;stroke-miterlimit:10;" d="M 120.507813 25.105469 L 120.386719 32.792969 "/>
<path style="fill:none;stroke-width:8;stroke-linecap:round;stroke-linejoin:round;stroke:rgb(75.686275%,70.980392%,61.568627%);stroke-opacity:1;stroke-miterlimit:10;" d="M 125.605469 24.9375 L 125.566406 32.652344 "/>
<path style="fill:none;stroke-width:8;stroke-linecap:round;stroke-linejoin:round;stroke:rgb(75.686275%,70.980392%,61.568627%);stroke-opacity:1;stroke-miterlimit:10;" d="M 179.097656 61.984375 L 184.511719 67.5 "/>
<path style="fill:none;stroke-width:8;stroke-linecap:round;stroke-linejoin:round;stroke:rgb(75.686275%,70.980392%,61.568627%);stroke-opacity:1;stroke-miterlimit:10;" d="M 185.097656 65.691406 L 191.441406 72.429688 "/>
<path style="fill:none;stroke-width:8;stroke-linecap:round;stroke-linejoin:round;stroke:rgb(75.686275%,70.980392%,61.568627%);stroke-opacity:1;stroke-miterlimit:10;" d="M 183.046875 71.554688 L 189.671875 78.398438 "/>
<path style="fill:none;stroke-width:8;stroke-linecap:round;stroke-linejoin:round;stroke:rgb(75.686275%,70.980392%,61.568627%);stroke-opacity:1;stroke-miterlimit:10;" d="M 187.109375 48.558594 L 184.894531 50.1875 L 179.816406 55.667969 "/>
<path style="fill:none;stroke-width:8;stroke-linecap:round;stroke-linejoin:round;stroke:rgb(75.686275%,70.980392%,61.568627%);stroke-opacity:1;stroke-miterlimit:10;" d="M 179.714844 75.640625 L 187.382813 83.351563 "/>
<path style="fill:none;stroke-width:8;stroke-linecap:round;stroke-linejoin:round;stroke:rgb(75.686275%,70.980392%,61.568627%);stroke-opacity:1;stroke-miterlimit:10;" d="M 176 79.210938 L 183.859375 87.199219 "/>
<path style="fill:none;stroke-width:8;stroke-linecap:round;stroke-linejoin:round;stroke:rgb(75.686275%,70.980392%,61.568627%);stroke-opacity:1;stroke-miterlimit:10;" d="M 172.410156 82.925781 L 180.382813 90.996094 "/>
<path style="fill:none;stroke-width:8;stroke-linecap:round;stroke-linejoin:round;stroke:rgb(75.686275%,70.980392%,61.568627%);stroke-opacity:1;stroke-miterlimit:10;" d="M 168.554688 86.800781 L 176.65625 95.070313 "/>
<path style="fill:none;stroke-width:8;stroke-linecap:round;stroke-linejoin:round;stroke:rgb(75.686275%,70.980392%,61.568627%);stroke-opacity:1;stroke-miterlimit:10;" d="M 176.058594 51.792969 L 180.449219 47.125 L 184.015625 43.324219 "/>
<path style="fill:none;stroke-width:8;stroke-linecap:round;stroke-linejoin:round;stroke:rgb(75.686275%,70.980392%,61.568627%);stroke-opacity:1;stroke-miterlimit:10;" d="M 49.9375 72.457031 L 50.117188 84.1875 "/>
<path style="fill:none;stroke-width:8;stroke-linecap:round;stroke-linejoin:round;stroke:rgb(75.686275%,70.980392%,61.568627%);stroke-opacity:1;stroke-miterlimit:10;" d="M 176.890625 43.453125 L 168.164063 52.511719 "/>
<path style="fill:none;stroke-width:8;stroke-linecap:round;stroke-linejoin:round;stroke:rgb(75.686275%,70.980392%,61.568627%);stroke-opacity:1;stroke-miterlimit:10;" d="M 173.210938 39.65625 L 164.417969 48.863281 "/>
<path style="fill:none;stroke-width:8;stroke-linecap:round;stroke-linejoin:round;stroke:rgb(75.686275%,70.980392%,61.568627%);stroke-opacity:1;stroke-miterlimit:10;" d="M 164.871094 88.960938 L 173.207031 98.839844 "/>
<path style="fill:none;stroke-width:8;stroke-linecap:round;stroke-linejoin:round;stroke:rgb(75.686275%,70.980392%,61.568627%);stroke-opacity:1;stroke-miterlimit:10;" d="M 169.496094 35.824219 L 160 45.601563 "/>
<path style="fill:none;stroke-width:8;stroke-linecap:round;stroke-linejoin:round;stroke:rgb(75.686275%,70.980392%,61.568627%);stroke-opacity:1;stroke-miterlimit:10;" d="M 32.140625 100.472656 L 21.5625 100.195313 L 17.140625 100.582031 "/>
<path style="fill:none;stroke-width:8;stroke-linecap:round;stroke-linejoin:round;stroke:rgb(75.686275%,70.980392%,61.568627%);stroke-opacity:1;stroke-miterlimit:10;" d="M 158.765625 91.042969 L 169.753906 102.613281 "/>
<path style="fill:none;stroke-width:8;stroke-linecap:round;stroke-linejoin:round;stroke:rgb(75.686275%,70.980392%,61.568627%);stroke-opacity:1;stroke-miterlimit:10;" d="M 17.140625 100.582031 L 20.429688 103.480469 L 32.179688 104.105469 "/>
<path style="fill:none;stroke-width:8;stroke-linecap:round;stroke-linejoin:round;stroke:rgb(75.686275%,70.980392%,61.568627%);stroke-opacity:1;stroke-miterlimit:10;" d="M 154.996094 94.824219 L 166.203125 106.488281 "/>
<path style="fill:none;stroke-width:8;stroke-linecap:round;stroke-linejoin:round;stroke:rgb(75.686275%,70.980392%,61.568627%);stroke-opacity:1;stroke-miterlimit:10;" d="M 55.429688 67.882813 L 55.460938 84.097656 "/>
<path style="fill:none;stroke-width:8;stroke-linecap:round;stroke-linejoin:round;stroke:rgb(75.686275%,70.980392%,61.568627%);stroke-opacity:1;stroke-miterlimit:10;" d="M 151.1875 98.714844 L 162.796875 110.730469 "/>
<path style="fill:none;stroke-width:8;stroke-linecap:round;stroke-linejoin:round;stroke:rgb(75.686275%,70.980392%,61.568627%);stroke-opacity:1;stroke-miterlimit:10;" d="M 67.84375 122.972656 L 68.085938 139.742188 "/>
<path style="fill:none;stroke-width:8;stroke-linecap:round;stroke-linejoin:round;stroke:rgb(75.686275%,70.980392%,61.568627%);stroke-opacity:1;stroke-miterlimit:10;" d="M 147.582031 102.394531 L 159.75 114.621094 "/>
<path style="fill:none;stroke-width:8;stroke-linecap:round;stroke-linejoin:round;stroke:rgb(75.686275%,70.980392%,61.568627%);stroke-opacity:1;stroke-miterlimit:10;" d="M 62.917969 123.683594 L 62.882813 141.175781 "/>
<path style="fill:none;stroke-width:8;stroke-linecap:round;stroke-linejoin:round;stroke:rgb(75.686275%,70.980392%,61.568627%);stroke-opacity:1;stroke-miterlimit:10;" d="M 99.050781 116.71875 L 99.28125 134.632813 "/>
<path style="fill:none;stroke-width:8;stroke-linecap:round;stroke-linejoin:round;stroke:rgb(75.686275%,70.980392%,61.568627%);stroke-opacity:1;stroke-miterlimit:10;" d="M 104.476563 116.710938 L 104.535156 134.679688 "/>
<path style="fill:none;stroke-width:8;stroke-linecap:round;stroke-linejoin:round;stroke:rgb(75.686275%,70.980392%,61.568627%);stroke-opacity:1;stroke-miterlimit:10;" d="M 109.546875 116.695313 L 109.84375 134.851563 "/>
<path style="fill:none;stroke-width:8;stroke-linecap:round;stroke-linejoin:round;stroke:rgb(75.686275%,70.980392%,61.568627%);stroke-opacity:1;stroke-miterlimit:10;" d="M 94.039063 116.730469 L 94.394531 134.9375 "/>
<path style="fill:none;stroke-width:8;stroke-linecap:round;stroke-linejoin:round;stroke:rgb(75.686275%,70.980392%,61.568627%);stroke-opacity:1;stroke-miterlimit:10;" d="M 114.558594 116.683594 L 114.972656 135.035156 "/>
<path style="fill:none;stroke-width:8;stroke-linecap:round;stroke-linejoin:round;stroke:rgb(75.686275%,70.980392%,61.568627%);stroke-opacity:1;stroke-miterlimit:10;" d="M 88.847656 116.746094 L 88.960938 135.277344 "/>
<path style="fill:none;stroke-width:8;stroke-linecap:round;stroke-linejoin:round;stroke:rgb(75.686275%,70.980392%,61.568627%);stroke-opacity:1;stroke-miterlimit:10;" d="M 120.042969 116.671875 L 120.28125 135.273438 "/>
<path style="fill:none;stroke-width:8;stroke-linecap:round;stroke-linejoin:round;stroke:rgb(75.686275%,70.980392%,61.568627%);stroke-opacity:1;stroke-miterlimit:10;" d="M 57.582031 124 L 57.652344 142.617188 "/>
<path style="fill:none;stroke-width:8;stroke-linecap:round;stroke-linejoin:round;stroke:rgb(75.686275%,70.980392%,61.568627%);stroke-opacity:1;stroke-miterlimit:10;" d="M 124.964844 116.660156 L 125 135.488281 "/>
<path style="fill:none;stroke-width:8;stroke-linecap:round;stroke-linejoin:round;stroke:rgb(75.686275%,70.980392%,61.568627%);stroke-opacity:1;stroke-miterlimit:10;" d="M 143.910156 106.144531 L 157.339844 119.839844 "/>
<path style="fill:none;stroke-width:8;stroke-linecap:round;stroke-linejoin:round;stroke:rgb(75.686275%,70.980392%,61.568627%);stroke-opacity:1;stroke-miterlimit:10;" d="M 72.980469 119.132813 L 73.234375 138.328125 "/>
<path style="fill:none;stroke-width:8;stroke-linecap:round;stroke-linejoin:round;stroke:rgb(75.686275%,70.980392%,61.568627%);stroke-opacity:1;stroke-miterlimit:10;" d="M 83.421875 116.753906 L 83.488281 136.132813 "/>
<path style="fill:none;stroke-width:8;stroke-linecap:round;stroke-linejoin:round;stroke:rgb(75.686275%,70.980392%,61.568627%);stroke-opacity:1;stroke-miterlimit:10;" d="M 3.164063 99.425781 L -2.984375 86.535156 L -4.574219 83.679688 L -5.777344 81.394531 "/>
<path style="fill:none;stroke-width:8;stroke-linecap:round;stroke-linejoin:round;stroke:rgb(75.686275%,70.980392%,61.568627%);stroke-opacity:1;stroke-miterlimit:10;" d="M 52.289063 123.898438 L 52.21875 144.113281 "/>
<path style="fill:none;stroke-width:8;stroke-linecap:round;stroke-linejoin:round;stroke:rgb(75.686275%,70.980392%,61.568627%);stroke-opacity:1;stroke-miterlimit:10;" d="M 78.410156 116.765625 L 78.691406 137.003906 "/>
<path style="fill:none;stroke-width:8;stroke-linecap:round;stroke-linejoin:round;stroke:rgb(75.686275%,70.980392%,61.568627%);stroke-opacity:1;stroke-miterlimit:10;" d="M 159.296875 26.296875 L 159.339844 37.15625 L 159.367188 44.898438 L 160.511719 46.175781 "/>
<path style="fill:none;stroke-width:8;stroke-linecap:round;stroke-linejoin:round;stroke:rgb(75.686275%,70.980392%,61.568627%);stroke-opacity:1;stroke-miterlimit:10;" d="M 60.347656 63.53125 L 60.605469 84.089844 "/>
<path style="fill:none;stroke-width:8;stroke-linecap:round;stroke-linejoin:round;stroke:rgb(75.686275%,70.980392%,61.568627%);stroke-opacity:1;stroke-miterlimit:10;" d="M 178.050781 77.261719 L 176.90625 76.160156 L 175.730469 76.125 L 171.847656 79.722656 L 169.890625 79.644531 L 165 84.558594 L 164.871094 88.960938 "/>
<path style="fill:none;stroke-width:8;stroke-linecap:round;stroke-linejoin:round;stroke:rgb(75.686275%,70.980392%,61.568627%);stroke-opacity:1;stroke-miterlimit:10;" d="M 47.21875 123.808594 L 47.378906 145.308594 "/>
<path style="fill:none;stroke-width:8;stroke-linecap:round;stroke-linejoin:round;stroke:rgb(75.686275%,70.980392%,61.568627%);stroke-opacity:1;stroke-miterlimit:10;" d="M 140.34375 109.785156 L 155.417969 125.277344 "/>
<path style="fill:none;stroke-width:8;stroke-linecap:round;stroke-linejoin:round;stroke:rgb(75.686275%,70.980392%,61.568627%);stroke-opacity:1;stroke-miterlimit:10;" d="M 42.148438 123.703125 L 42.140625 145.636719 "/>
<path style="fill:none;stroke-width:8;stroke-linecap:round;stroke-linejoin:round;stroke:rgb(75.686275%,70.980392%,61.568627%);stroke-opacity:1;stroke-miterlimit:10;" d="M 145.589844 139.773438 L 145.367188 137.648438 L 140.574219 132.679688 L 131.121094 122.871094 "/>
<path style="fill:none;stroke-width:8;stroke-linecap:round;stroke-linejoin:round;stroke:rgb(75.686275%,70.980392%,61.568627%);stroke-opacity:1;stroke-miterlimit:10;" d="M 65.507813 61.292969 L 65.785156 84.082031 "/>
<path style="fill:none;stroke-width:8;stroke-linecap:round;stroke-linejoin:round;stroke:rgb(75.686275%,70.980392%,61.568627%);stroke-opacity:1;stroke-miterlimit:10;" d="M 81.109375 59.222656 L 81.566406 82.140625 "/>
<path style="fill:none;stroke-width:8;stroke-linecap:round;stroke-linejoin:round;stroke:rgb(75.686275%,70.980392%,61.568627%);stroke-opacity:1;stroke-miterlimit:10;" d="M 70.9375 60.007813 L 71.09375 84.074219 "/>
<path style="fill:none;stroke-width:8;stroke-linecap:round;stroke-linejoin:round;stroke:rgb(75.686275%,70.980392%,61.568627%);stroke-opacity:1;stroke-miterlimit:10;" d="M 183.582031 4.347656 L 183.667969 7.519531 L 186.296875 14.410156 L 186.503906 18.820313 L 185.410156 23.039063 L 182.09375 26.492188 "/>
<path style="fill:none;stroke-width:8;stroke-linecap:round;stroke-linejoin:round;stroke:rgb(75.686275%,70.980392%,61.568627%);stroke-opacity:1;stroke-miterlimit:10;" d="M 136.554688 113.617188 L 153.957031 130.839844 "/>
<path style="fill:none;stroke-width:8;stroke-linecap:round;stroke-linejoin:round;stroke:rgb(75.686275%,70.980392%,61.568627%);stroke-opacity:1;stroke-miterlimit:10;" d="M 134.605469 119.414063 L 131.121094 122.871094 L 129.730469 124.289063 L 129.441406 130.394531 L 139.394531 133.894531 L 140.574219 132.679688 "/>
<path style="fill:none;stroke-width:8;stroke-linecap:round;stroke-linejoin:round;stroke:rgb(75.686275%,70.980392%,61.568627%);stroke-opacity:1;stroke-miterlimit:10;" d="M 154.996094 25.917969 L 155.144531 51.652344 "/>
<path style="fill:none;stroke-width:8;stroke-linecap:round;stroke-linejoin:round;stroke:rgb(75.686275%,70.980392%,61.568627%);stroke-opacity:1;stroke-miterlimit:10;" d="M 86.359375 53.894531 L 86.640625 79.722656 "/>
<path style="fill:none;stroke-width:8;stroke-linecap:round;stroke-linejoin:round;stroke:rgb(75.686275%,70.980392%,61.568627%);stroke-opacity:1;stroke-miterlimit:10;" d="M 76.09375 64.039063 L 81.109375 59.222656 L 86.359375 53.894531 L 91.578125 48.734375 L 95.992188 48.457031 "/>
<path style="fill:none;stroke-width:8;stroke-linecap:round;stroke-linejoin:round;stroke:rgb(75.686275%,70.980392%,61.568627%);stroke-opacity:1;stroke-miterlimit:10;" d="M 75.984375 57.75 L 76.09375 64.039063 L 76.4375 84.0625 "/>
<path style="fill:none;stroke-width:8;stroke-linecap:round;stroke-linejoin:round;stroke:rgb(75.686275%,70.980392%,61.568627%);stroke-opacity:1;stroke-miterlimit:10;" d="M 132.554688 116.660156 L 133.421875 118.253906 L 134.605469 119.414063 L 151.582031 136.03125 "/>
<path style="fill:none;stroke-width:8;stroke-linecap:round;stroke-linejoin:round;stroke:rgb(75.686275%,70.980392%,61.568627%);stroke-opacity:1;stroke-miterlimit:10;" d="M 183.988281 28.5 L 186.949219 25.308594 L 188.285156 23.160156 L 189.382813 20.492188 L 189.625 18.539063 L 189.527344 16.003906 L 189.144531 13.589844 L 186.378906 6.628906 L 187.910156 2.019531 "/>
<path style="fill:none;stroke-width:8;stroke-linecap:round;stroke-linejoin:round;stroke:rgb(75.686275%,70.980392%,61.568627%);stroke-opacity:1;stroke-miterlimit:10;" d="M 159.339844 37.15625 L 161.742188 36.777344 L 166.089844 32.308594 L 169.496094 35.824219 L 173.210938 39.65625 L 176.890625 43.453125 L 180.449219 47.125 "/>
<path style="fill:none;stroke-width:8;stroke-linecap:round;stroke-linejoin:round;stroke:rgb(75.686275%,70.980392%,61.568627%);stroke-opacity:1;stroke-miterlimit:10;" d="M 129.679688 32.542969 L 125.566406 32.652344 L 120.386719 32.792969 L 115.171875 32.933594 L 109.835938 33.078125 L 104.722656 33.214844 L 104.566406 28.71875 "/>
<path style="fill:none;stroke-width:8;stroke-linecap:round;stroke-linejoin:round;stroke:rgb(75.686275%,70.980392%,61.568627%);stroke-opacity:1;stroke-miterlimit:10;" d="M 91.578125 48.734375 L 91.867188 79.722656 "/>
<path style="fill:none;stroke-width:8;stroke-linecap:round;stroke-linejoin:round;stroke:rgb(75.686275%,70.980392%,61.568627%);stroke-opacity:1;stroke-miterlimit:10;" d="M 149.613281 25.796875 L 149.878906 57.375 "/>
<path style="fill:none;stroke-width:8;stroke-linecap:round;stroke-linejoin:round;stroke:rgb(75.686275%,70.980392%,61.568627%);stroke-opacity:1;stroke-miterlimit:10;" d="M 144.429688 25.402344 L 144.714844 62.03125 "/>
<path style="fill:none;stroke-width:8;stroke-linecap:round;stroke-linejoin:round;stroke:rgb(75.686275%,70.980392%,61.568627%);stroke-opacity:1;stroke-miterlimit:10;" d="M 45.332031 35.597656 L 42.929688 3.050781 L 42.808594 -3.558594 "/>
<path style="fill:none;stroke-width:8;stroke-linecap:round;stroke-linejoin:round;stroke:rgb(75.686275%,70.980392%,61.568627%);stroke-opacity:1;stroke-miterlimit:10;" d="M 43.648438 84.4375 L 43.652344 92.980469 L 43.65625 97.753906 L 43.65625 103.402344 L 43.660156 108.652344 L 43.660156 113.902344 L 43.667969 123.742188 "/>
<path style="fill:none;stroke-width:8;stroke-linecap:round;stroke-linejoin:round;stroke:rgb(75.686275%,70.980392%,61.568627%);stroke-opacity:1;stroke-miterlimit:10;" d="M 139.207031 25.125 L 139.5625 65.558594 "/>
<path style="fill:none;stroke-width:8;stroke-linecap:round;stroke-linejoin:round;stroke:rgb(75.686275%,70.980392%,61.568627%);stroke-opacity:1;stroke-miterlimit:10;" d="M 134.023438 24.769531 L 134.144531 67.210938 "/>
<path style="fill:none;stroke-width:8;stroke-linecap:round;stroke-linejoin:round;stroke:rgb(75.686275%,70.980392%,61.568627%);stroke-opacity:1;stroke-miterlimit:10;" d="M 41.558594 84.449219 L 38.476563 91.296875 L 37.890625 93.15625 L 37.050781 95.8125 L 36.808594 98.109375 L 36.71875 103.40625 L 36.730469 108.730469 L 36.742188 114.140625 L 36.765625 123.578125 L 36.789063 143.558594 "/>
<path style="fill:none;stroke-width:8;stroke-linecap:round;stroke-linejoin:round;stroke:rgb(75.686275%,70.980392%,61.568627%);stroke-opacity:1;stroke-miterlimit:10;" d="M 43.648438 84.4375 L 44.847656 84.28125 L 50.117188 84.1875 L 55.460938 84.097656 L 60.605469 84.089844 L 65.785156 84.082031 L 71.09375 84.074219 L 76.4375 84.0625 L 79.253906 84.0625 L 81.566406 82.140625 L 84.480469 79.722656 L 94.191406 79.722656 L 96.476563 77.941406 L 95.992188 48.457031 L 95.757813 34.136719 "/>
<path style="fill:none;stroke-width:8;stroke-linecap:round;stroke-linejoin:round;stroke:rgb(75.686275%,70.980392%,61.568627%);stroke-opacity:1;stroke-miterlimit:10;" d="M 235.578125 -9 L 247.179688 1.0625 L 255.101563 3.75 L 262.421875 4.496094 L 264 4.054688 "/>
<path style="fill:none;stroke-width:8;stroke-linecap:round;stroke-linejoin:round;stroke:rgb(75.686275%,70.980392%,61.568627%);stroke-opacity:1;stroke-miterlimit:10;" d="M 17.140625 100.582031 L 10.382813 98.949219 L 5.183594 98.746094 L 3.164063 99.425781 L 1.382813 100.148438 L -2.414063 102.949219 L -4.617188 106.949219 L -5.417969 111.546875 L -4.816406 114.949219 L -1.414063 132.550781 L -0.617188 140.550781 L -1.214844 147.550781 L -4.015625 155.550781 L -8.617188 163.75 L -9 164.40625 "/>
<path style="fill:none;stroke-width:8;stroke-linecap:round;stroke-linejoin:round;stroke:rgb(75.686275%,70.980392%,61.568627%);stroke-opacity:1;stroke-miterlimit:10;" d="M 32.257813 123.539063 L 36.765625 123.578125 L 42.148438 123.703125 L 43.667969 123.742188 L 47.21875 123.808594 L 52.289063 123.898438 L 57.582031 124 L 62.917969 123.683594 L 66.519531 123.335938 L 67.84375 122.972656 L 68.96875 122.667969 L 71.417969 120.664063 L 72.980469 119.132813 L 74.601563 117.546875 L 77.050781 116.769531 L 78.410156 116.765625 L 83.421875 116.753906 L 88.847656 116.746094 L 94.039063 116.730469 L 99.050781 116.71875 L 104.476563 116.710938 L 109.546875 116.695313 L 114.558594 116.683594 L 120.042969 116.671875 L 124.964844 116.660156 L 126.351563 116.660156 L 129.777344 116.769531 L 132.554688 116.660156 L 134.921875 115.324219 L 136.554688 113.617188 L 140.34375 109.785156 L 143.910156 106.144531 L 147.582031 102.394531 L 151.1875 98.714844 L 154.996094 94.824219 L 157.609375 92.15625 L 158.765625 91.042969 L 160.597656 90.039063 L 162.589844 89.398438 L 164.871094 88.960938 L 167.140625 87.992188 L 168.554688 86.800781 L 172.410156 82.925781 L 176 79.210938 L 178.050781 77.261719 L 179.714844 75.640625 L 181.808594 73.414063 L 183.046875 71.554688 L 183.523438 70.601563 L 184.511719 67.5 L 185.097656 65.691406 L 185.851563 63.585938 L 185.582031 62.597656 L 185.121094 61.140625 L 183.460938 59.433594 L 179.816406 55.667969 L 176.058594 51.792969 L 174.589844 52.015625 L 171.734375 54.6875 L 170.507813 54.796875 L 168.164063 52.511719 L 164.417969 48.863281 L 162.058594 46.566406 L 160.511719 46.175781 L 155.144531 51.652344 L 149.878906 57.375 L 144.714844 62.03125 L 141.453125 64.144531 L 139.5625 65.558594 L 138.183594 66.589844 L 136.308594 67.257813 L 134.675781 67.371094 L 133.207031 66.925781 L 131.085938 65.925781 L 130.1875 64.144531 L 130.023438 61.585938 L 129.679688 32.542969 L 129.910156 24.792969 "/>
<path style="fill:none;stroke-width:8;stroke-linecap:round;stroke-linejoin:round;stroke:rgb(75.686275%,70.980392%,61.568627%);stroke-opacity:1;stroke-miterlimit:10;" d="M 175.175781 33.835938 L 168.9375 28.652344 L 164.503906 26.765625 L 159.296875 26.296875 L 154.996094 25.917969 L 149.613281 25.796875 L 144.429688 25.402344 L 139.207031 25.125 L 134.023438 24.769531 L 129.910156 24.792969 L 125.605469 24.9375 L 120.507813 25.105469 L 115.195313 25.730469 L 111.582031 26.152344 L 109.933594 26.753906 L 104.566406 28.71875 L 103.382813 29.148438 L 98.382813 31.75 L 95.757813 34.136719 L 93.984375 35.75 L 87.582031 45.75 L 81.984375 51.550781 L 75.984375 57.75 L 70.9375 60.007813 L 65.507813 61.292969 L 60.785156 63.148438 L 55.429688 67.882813 L 49.9375 72.457031 L 44.921875 76.925781 L 38.804688 82.28125 L 37.585938 83.351563 L 34.382813 87.75 L 32.585938 92.546875 L 32.183594 96.949219 L 32.140625 100.472656 L 32.179688 104.105469 L 32.257813 123.539063 L 32.273438 125.910156 L 32.585938 138.109375 L 34.734375 141.597656 L 36.789063 143.558594 L 39.042969 145.035156 L 42.140625 145.636719 L 43.78125 145.957031 L 47.378906 145.308594 L 48.859375 145.039063 L 52.21875 144.113281 L 57.652344 142.617188 L 62.882813 141.175781 L 68.085938 139.742188 L 73.234375 138.328125 L 76.785156 137.347656 L 78.691406 137.003906 L 83.488281 136.132813 L 87.785156 135.351563 L 88.960938 135.277344 L 94.394531 134.9375 L 99.28125 134.632813 L 100.582031 134.550781 L 104.535156 134.679688 L 109.84375 134.851563 L 113.785156 134.980469 L 114.972656 135.035156 L 120.28125 135.273438 L 125 135.488281 L 131.671875 136.75 L 144.582031 140.148438 L 145.589844 139.773438 L 149.382813 138.347656 L 151.582031 136.03125 L 152.984375 134.550781 L 153.957031 130.839844 L 155.417969 125.277344 L 156.183594 122.351563 L 157.339844 119.839844 L 159.75 114.621094 L 162.796875 110.730469 L 165.785156 106.949219 L 169.753906 102.613281 L 173.207031 98.839844 L 176.65625 95.070313 L 180.382813 90.996094 L 183.859375 87.199219 L 187.382813 83.351563 L 189.671875 78.398438 L 190.984375 75.546875 L 191.441406 72.429688 L 192.183594 67.351563 L 190.902344 60.289063 L 189 54.40625 L 187.109375 48.558594 L 186.78125 47.550781 L 184.015625 43.324219 L 182.984375 41.75 L 177.238281 35.929688 L 175.175781 33.835938 "/>
<path style="fill:none;stroke-width:8;stroke-linecap:round;stroke-linejoin:round;stroke:rgb(75.686275%,70.980392%,61.568627%);stroke-opacity:1;stroke-miterlimit:10;" d="M 59.195313 35.394531 L 60.949219 37.300781 L 61.683594 38.894531 L 62.121094 40.023438 L 62.171875 41.691406 L 61.617188 44.582031 "/>
<path style="fill:none;stroke-width:8;stroke-linecap:round;stroke-linejoin:round;stroke:rgb(75.686275%,70.980392%,61.568627%);stroke-opacity:1;stroke-miterlimit:10;" d="M 126.472656 264 L 109.785156 255.148438 L 99.183594 247.949219 L 91.183594 239.949219 L 64.785156 209.949219 L 59.183594 202.148438 L 55.4375 197.167969 "/>
<path style="fill:none;stroke-width:8;stroke-linecap:round;stroke-linejoin:round;stroke:rgb(75.686275%,70.980392%,61.568627%);stroke-opacity:1;stroke-miterlimit:10;" d="M 69.628906 37.617188 L 65.183594 35.550781 L 60.785156 35.351563 L 59.195313 35.394531 L 45.332031 35.597656 L 16.242188 38.164063 L -3.214844 40.75 L -9 42.078125 "/>
<path style="fill:none;stroke-width:9;stroke-linecap:round;stroke-linejoin:round;stroke:rgb(75.686275%,70.980392%,61.568627%);stroke-opacity:1;stroke-miterlimit:10;" d="M 55.4375 197.167969 L 49.0625 186.246094 L 43.140625 178.074219 "/>
<path style="fill:none;stroke-width:9;stroke-linecap:round;stroke-linejoin:round;stroke:rgb(75.686275%,70.980392%,61.568627%);stroke-opacity:1;stroke-miterlimit:10;" d="M 43.140625 178.074219 L 26.058594 159.140625 "/>
<path style="fill:none;stroke-width:9;stroke-linecap:round;stroke-linejoin:round;stroke:rgb(75.686275%,70.980392%,61.568627%);stroke-opacity:1;stroke-miterlimit:10;" d="M 26.058594 159.140625 L 20.9375 152.046875 L 17.542969 146.773438 L 15.53125 140.75 L 14.8125 133.65625 L 17.140625 100.582031 "/>
<path style="fill:none;stroke-width:9;stroke-linecap:round;stroke-linejoin:round;stroke:rgb(75.686275%,70.980392%,61.568627%);stroke-opacity:1;stroke-miterlimit:10;" d="M 187.910156 2.019531 L 191.386719 0.148438 L 198.785156 -5.449219 L 202.789063 -10 "/>
<path style="fill:none;stroke-width:9;stroke-linecap:round;stroke-linejoin:round;stroke:rgb(75.686275%,70.980392%,61.568627%);stroke-opacity:1;stroke-miterlimit:10;" d="M 17.140625 100.582031 L 18.34375 93.386719 L 21.675781 84.992188 L 26.03125 77.699219 L 29.390625 73.144531 L 32.871094 69.574219 L 61.617188 44.582031 L 66.066406 40.714844 L 69.628906 37.617188 L 85.382813 23.75 L 94.582031 17.949219 L 104.785156 13.75 L 114.785156 11.148438 L 125.984375 10.347656 L 154.585938 10.949219 L 164.382813 10.148438 L 174.382813 7.75 L 183.582031 4.347656 L 187.910156 2.019531 "/>
<path style="fill:none;stroke-width:9;stroke-linecap:round;stroke-linejoin:round;stroke:rgb(75.686275%,70.980392%,61.568627%);stroke-opacity:1;stroke-miterlimit:10;" d="M 55.4375 197.167969 L 50.714844 205.445313 L 41.160156 235.3125 L 37.492188 246.546875 L 32.113281 258.347656 L 28.886719 263.523438 L 27.558594 265 "/>
<path style="fill:none;stroke-width:6;stroke-linecap:round;stroke-linejoin:round;stroke:rgb(100%,100%,100%);stroke-opacity:1;stroke-miterlimit:10;" d="M 177.3125 31.632813 L 175.175781 33.835938 "/>
<path style="fill:none;stroke-width:6;stroke-linecap:round;stroke-linejoin:round;stroke:rgb(100%,100%,100%);stroke-opacity:1;stroke-miterlimit:10;" d="M 171.847656 79.722656 L 172.410156 82.925781 "/>
<path style="fill:none;stroke-width:6;stroke-linecap:round;stroke-linejoin:round;stroke:rgb(100%,100%,100%);stroke-opacity:1;stroke-miterlimit:10;" d="M 177.238281 35.929688 L 179.472656 33.476563 "/>
<path style="fill:none;stroke-width:6;stroke-linecap:round;stroke-linejoin:round;stroke:rgb(100%,100%,100%);stroke-opacity:1;stroke-miterlimit:10;" d="M 79.132813 48.332031 L 81.984375 51.550781 "/>
<path style="fill:none;stroke-width:6;stroke-linecap:round;stroke-linejoin:round;stroke:rgb(100%,100%,100%);stroke-opacity:1;stroke-miterlimit:10;" d="M 38.804688 82.28125 L 41.558594 84.449219 L 43.648438 84.4375 "/>
<path style="fill:none;stroke-width:6;stroke-linecap:round;stroke-linejoin:round;stroke:rgb(100%,100%,100%);stroke-opacity:1;stroke-miterlimit:10;" d="M 37.890625 93.15625 L 43.652344 92.980469 "/>
<path style="fill:none;stroke-width:6;stroke-linecap:round;stroke-linejoin:round;stroke:rgb(100%,100%,100%);stroke-opacity:1;stroke-miterlimit:10;" d="M 190.902344 60.289063 L 188.054688 61.445313 L 185.582031 62.597656 "/>
<path style="fill:none;stroke-width:6;stroke-linecap:round;stroke-linejoin:round;stroke:rgb(100%,100%,100%);stroke-opacity:1;stroke-miterlimit:10;" d="M 69.628906 37.617188 L 73.59375 42.089844 "/>
<path style="fill:none;stroke-width:6;stroke-linecap:round;stroke-linejoin:round;stroke:rgb(100%,100%,100%);stroke-opacity:1;stroke-miterlimit:10;" d="M 109.933594 26.753906 L 109.835938 33.078125 "/>
<path style="fill:none;stroke-width:6;stroke-linecap:round;stroke-linejoin:round;stroke:rgb(100%,100%,100%);stroke-opacity:1;stroke-miterlimit:10;" d="M 36.808594 98.109375 L 43.65625 97.753906 "/>
<path style="fill:none;stroke-width:6;stroke-linecap:round;stroke-linejoin:round;stroke:rgb(100%,100%,100%);stroke-opacity:1;stroke-miterlimit:10;" d="M 36.742188 114.140625 L 43.660156 113.902344 "/>
<path style="fill:none;stroke-width:6;stroke-linecap:round;stroke-linejoin:round;stroke:rgb(100%,100%,100%);stroke-opacity:1;stroke-miterlimit:10;" d="M 36.730469 108.730469 L 43.660156 108.652344 "/>
<path style="fill:none;stroke-width:6;stroke-linecap:round;stroke-linejoin:round;stroke:rgb(100%,100%,100%);stroke-opacity:1;stroke-miterlimit:10;" d="M 36.71875 103.40625 L 43.65625 103.402344 "/>
<path style="fill:none;stroke-width:6;stroke-linecap:round;stroke-linejoin:round;stroke:rgb(100%,100%,100%);stroke-opacity:1;stroke-miterlimit:10;" d="M 115.195313 25.730469 L 115.171875 32.933594 "/>
<path style="fill:none;stroke-width:6;stroke-linecap:round;stroke-linejoin:round;stroke:rgb(100%,100%,100%);stroke-opacity:1;stroke-miterlimit:10;" d="M 44.921875 76.925781 L 44.847656 84.28125 "/>
<path style="fill:none;stroke-width:6;stroke-linecap:round;stroke-linejoin:round;stroke:rgb(100%,100%,100%);stroke-opacity:1;stroke-miterlimit:10;" d="M 183.460938 59.433594 L 187.898438 55.089844 L 189 54.40625 "/>
<path style="fill:none;stroke-width:6;stroke-linecap:round;stroke-linejoin:round;stroke:rgb(100%,100%,100%);stroke-opacity:1;stroke-miterlimit:10;" d="M 120.507813 25.105469 L 120.386719 32.792969 "/>
<path style="fill:none;stroke-width:6;stroke-linecap:round;stroke-linejoin:round;stroke:rgb(100%,100%,100%);stroke-opacity:1;stroke-miterlimit:10;" d="M 125.605469 24.9375 L 125.566406 32.652344 "/>
<path style="fill:none;stroke-width:6;stroke-linecap:round;stroke-linejoin:round;stroke:rgb(100%,100%,100%);stroke-opacity:1;stroke-miterlimit:10;" d="M 179.097656 61.984375 L 184.511719 67.5 "/>
<path style="fill:none;stroke-width:6;stroke-linecap:round;stroke-linejoin:round;stroke:rgb(100%,100%,100%);stroke-opacity:1;stroke-miterlimit:10;" d="M 185.097656 65.691406 L 191.441406 72.429688 "/>
<path style="fill:none;stroke-width:6;stroke-linecap:round;stroke-linejoin:round;stroke:rgb(100%,100%,100%);stroke-opacity:1;stroke-miterlimit:10;" d="M 183.046875 71.554688 L 189.671875 78.398438 "/>
<path style="fill:none;stroke-width:6;stroke-linecap:round;stroke-linejoin:round;stroke:rgb(100%,100%,100%);stroke-opacity:1;stroke-miterlimit:10;" d="M 187.109375 48.558594 L 184.894531 50.1875 L 179.816406 55.667969 "/>
<path style="fill:none;stroke-width:6;stroke-linecap:round;stroke-linejoin:round;stroke:rgb(100%,100%,100%);stroke-opacity:1;stroke-miterlimit:10;" d="M 179.714844 75.640625 L 187.382813 83.351563 "/>
<path style="fill:none;stroke-width:6;stroke-linecap:round;stroke-linejoin:round;stroke:rgb(100%,100%,100%);stroke-opacity:1;stroke-miterlimit:10;" d="M 176 79.210938 L 183.859375 87.199219 "/>
<path style="fill:none;stroke-width:6;stroke-linecap:round;stroke-linejoin:round;stroke:rgb(100%,100%,100%);stroke-opacity:1;stroke-miterlimit:10;" d="M 172.410156 82.925781 L 180.382813 90.996094 "/>
<path style="fill:none;stroke-width:6;stroke-linecap:round;stroke-linejoin:round;stroke:rgb(100%,100%,100%);stroke-opacity:1;stroke-miterlimit:10;" d="M 168.554688 86.800781 L 176.65625 95.070313 "/>
<path style="fill:none;stroke-width:6;stroke-linecap:round;stroke-linejoin:round;stroke:rgb(100%,100%,100%);stroke-opacity:1;stroke-miterlimit:10;" d="M 176.058594 51.792969 L 180.449219 47.125 L 184.015625 43.324219 "/>
<path style="fill:none;stroke-width:6;stroke-linecap:round;stroke-linejoin:round;stroke:rgb(100%,100%,100%);stroke-opacity:1;stroke-miterlimit:10;" d="M 49.9375 72.457031 L 50.117188 84.1875 "/>
<path style="fill:none;stroke-width:6;stroke-linecap:round;stroke-linejoin:round;stroke:rgb(100%,100%,100%);stroke-opacity:1;stroke-miterlimit:10;" d="M 176.890625 43.453125 L 168.164063 52.511719 "/>
<path style="fill:none;stroke-width:6;stroke-linecap:round;stroke-linejoin:round;stroke:rgb(100%,100%,100%);stroke-opacity:1;stroke-miterlimit:10;" d="M 173.210938 39.65625 L 164.417969 48.863281 "/>
<path style="fill:none;stroke-width:6;stroke-linecap:round;stroke-linejoin:round;stroke:rgb(100%,100%,100%);stroke-opacity:1;stroke-miterlimit:10;" d="M 164.871094 88.960938 L 173.207031 98.839844 "/>
<path style="fill:none;stroke-width:6;stroke-linecap:round;stroke-linejoin:round;stroke:rgb(100%,100%,100%);stroke-opacity:1;stroke-miterlimit:10;" d="M 169.496094 35.824219 L 160 45.601563 "/>
<path style="fill:none;stroke-width:6;stroke-linecap:round;stroke-linejoin:round;stroke:rgb(100%,100%,100%);stroke-opacity:1;stroke-miterlimit:10;" d="M 32.140625 100.472656 L 21.5625 100.195313 L 17.140625 100.582031 "/>
<path style="fill:none;stroke-width:6;stroke-linecap:round;stroke-linejoin:round;stroke:rgb(100%,100%,100%);stroke-opacity:1;stroke-miterlimit:10;" d="M 158.765625 91.042969 L 169.753906 102.613281 "/>
<path style="fill:none;stroke-width:6;stroke-linecap:round;stroke-linejoin:round;stroke:rgb(100%,100%,100%);stroke-opacity:1;stroke-miterlimit:10;" d="M 17.140625 100.582031 L 20.429688 103.480469 L 32.179688 104.105469 "/>
<path style="fill:none;stroke-width:6;stroke-linecap:round;stroke-linejoin:round;stroke:rgb(100%,100%,100%);stroke-opacity:1;stroke-miterlimit:10;" d="M 154.996094 94.824219 L 166.203125 106.488281 "/>
<path style="fill:none;stroke-width:6;stroke-linecap:round;stroke-linejoin:round;stroke:rgb(100%,100%,100%);stroke-opacity:1;stroke-miterlimit:10;" d="M 55.429688 67.882813 L 55.460938 84.097656 "/>
<path style="fill:none;stroke-width:6;stroke-linecap:round;stroke-linejoin:round;stroke:rgb(100%,100%,100%);stroke-opacity:1;stroke-miterlimit:10;" d="M 151.1875 98.714844 L 162.796875 110.730469 "/>
<path style="fill:none;stroke-width:6;stroke-linecap:round;stroke-linejoin:round;stroke:rgb(100%,100%,100%);stroke-opacity:1;stroke-miterlimit:10;" d="M 67.84375 122.972656 L 68.085938 139.742188 "/>
<path style="fill:none;stroke-width:6;stroke-linecap:round;stroke-linejoin:round;stroke:rgb(100%,100%,100%);stroke-opacity:1;stroke-miterlimit:10;" d="M 147.582031 102.394531 L 159.75 114.621094 "/>
<path style="fill:none;stroke-width:6;stroke-linecap:round;stroke-linejoin:round;stroke:rgb(100%,100%,100%);stroke-opacity:1;stroke-miterlimit:10;" d="M 62.917969 123.683594 L 62.882813 141.175781 "/>
<path style="fill:none;stroke-width:6;stroke-linecap:round;stroke-linejoin:round;stroke:rgb(100%,100%,100%);stroke-opacity:1;stroke-miterlimit:10;" d="M 99.050781 116.71875 L 99.28125 134.632813 "/>
<path style="fill:none;stroke-width:6;stroke-linecap:round;stroke-linejoin:round;stroke:rgb(100%,100%,100%);stroke-opacity:1;stroke-miterlimit:10;" d="M 104.476563 116.710938 L 104.535156 134.679688 "/>
<path style="fill:none;stroke-width:6;stroke-linecap:round;stroke-linejoin:round;stroke:rgb(100%,100%,100%);stroke-opacity:1;stroke-miterlimit:10;" d="M 109.546875 116.695313 L 109.84375 134.851563 "/>
<path style="fill:none;stroke-width:6;stroke-linecap:round;stroke-linejoin:round;stroke:rgb(100%,100%,100%);stroke-opacity:1;stroke-miterlimit:10;" d="M 94.039063 116.730469 L 94.394531 134.9375 "/>
<path style="fill:none;stroke-width:6;stroke-linecap:round;stroke-linejoin:round;stroke:rgb(100%,100%,100%);stroke-opacity:1;stroke-miterlimit:10;" d="M 114.558594 116.683594 L 114.972656 135.035156 "/>
<path style="fill:none;stroke-width:6;stroke-linecap:round;stroke-linejoin:round;stroke:rgb(100%,100%,100%);stroke-opacity:1;stroke-miterlimit:10;" d="M 88.847656 116.746094 L 88.960938 135.277344 "/>
<path style="fill:none;stroke-width:6;stroke-linecap:round;stroke-linejoin:round;stroke:rgb(100%,100%,100%);stroke-opacity:1;stroke-miterlimit:10;" d="M 120.042969 116.671875 L 120.28125 135.273438 "/>
<path style="fill:none;stroke-width:6;stroke-linecap:round;stroke-linejoin:round;stroke:rgb(100%,100%,100%);stroke-opacity:1;stroke-miterlimit:10;" d="M 57.582031 124 L 57.652344 142.617188 "/>
<path style="fill:none;stroke-width:6;stroke-linecap:round;stroke-linejoin:round;stroke:rgb(100%,100%,100%);stroke-opacity:1;stroke-miterlimit:10;" d="M 124.964844 116.660156 L 125 135.488281 "/>
<path style="fill:none;stroke-width:6;stroke-linecap:round;stroke-linejoin:round;stroke:rgb(100%,100%,100%);stroke-opacity:1;stroke-miterlimit:10;" d="M 143.910156 106.144531 L 157.339844 119.839844 "/>
<path style="fill:none;stroke-width:6;stroke-linecap:round;stroke-linejoin:round;stroke:rgb(100%,100%,100%);stroke-opacity:1;stroke-miterlimit:10;" d="M 72.980469 119.132813 L 73.234375 138.328125 "/>
<path style="fill:none;stroke-width:6;stroke-linecap:round;stroke-linejoin:round;stroke:rgb(100%,100%,100%);stroke-opacity:1;stroke-miterlimit:10;" d="M 83.421875 116.753906 L 83.488281 136.132813 "/>
<path style="fill:none;stroke-width:6;stroke-linecap:round;stroke-linejoin:round;stroke:rgb(100%,100%,100%);stroke-opacity:1;stroke-miterlimit:10;" d="M 3.164063 99.425781 L -2.984375 86.535156 L -4.574219 83.679688 L -5.777344 81.394531 "/>
<path style="fill:none;stroke-width:6;stroke-linecap:round;stroke-linejoin:round;stroke:rgb(100%,100%,100%);stroke-opacity:1;stroke-miterlimit:10;" d="M 52.289063 123.898438 L 52.21875 144.113281 "/>
<path style="fill:none;stroke-width:6;stroke-linecap:round;stroke-linejoin:round;stroke:rgb(100%,100%,100%);stroke-opacity:1;stroke-miterlimit:10;" d="M 78.410156 116.765625 L 78.691406 137.003906 "/>
<path style="fill:none;stroke-width:6;stroke-linecap:round;stroke-linejoin:round;stroke:rgb(100%,100%,100%);stroke-opacity:1;stroke-miterlimit:10;" d="M 159.296875 26.296875 L 159.339844 37.15625 L 159.367188 44.898438 L 160.511719 46.175781 "/>
<path style="fill:none;stroke-width:6;stroke-linecap:round;stroke-linejoin:round;stroke:rgb(100%,100%,100%);stroke-opacity:1;stroke-miterlimit:10;" d="M 60.347656 63.53125 L 60.605469 84.089844 "/>
<path style="fill:none;stroke-width:6;stroke-linecap:round;stroke-linejoin:round;stroke:rgb(100%,100%,100%);stroke-opacity:1;stroke-miterlimit:10;" d="M 178.050781 77.261719 L 176.90625 76.160156 L 175.730469 76.125 L 171.847656 79.722656 L 169.890625 79.644531 L 165 84.558594 L 164.871094 88.960938 "/>
<path style="fill:none;stroke-width:6;stroke-linecap:round;stroke-linejoin:round;stroke:rgb(100%,100%,100%);stroke-opacity:1;stroke-miterlimit:10;" d="M 47.21875 123.808594 L 47.378906 145.308594 "/>
<path style="fill:none;stroke-width:6;stroke-linecap:round;stroke-linejoin:round;stroke:rgb(100%,100%,100%);stroke-opacity:1;stroke-miterlimit:10;" d="M 140.34375 109.785156 L 155.417969 125.277344 "/>
<path style="fill:none;stroke-width:6;stroke-linecap:round;stroke-linejoin:round;stroke:rgb(100%,100%,100%);stroke-opacity:1;stroke-miterlimit:10;" d="M 42.148438 123.703125 L 42.140625 145.636719 "/>
<path style="fill:none;stroke-width:6;stroke-linecap:round;stroke-linejoin:round;stroke:rgb(100%,100%,100%);stroke-opacity:1;stroke-miterlimit:10;" d="M 145.589844 139.773438 L 145.367188 137.648438 L 140.574219 132.679688 L 131.121094 122.871094 "/>
<path style="fill:none;stroke-width:6;stroke-linecap:round;stroke-linejoin:round;stroke:rgb(100%,100%,100%);stroke-opacity:1;stroke-miterlimit:10;" d="M 65.507813 61.292969 L 65.785156 84.082031 "/>
<path style="fill:none;stroke-width:6;stroke-linecap:round;stroke-linejoin:round;stroke:rgb(100%,100%,100%);stroke-opacity:1;stroke-miterlimit:10;" d="M 81.109375 59.222656 L 81.566406 82.140625 "/>
<path style="fill:none;stroke-width:6;stroke-linecap:round;stroke-linejoin:round;stroke:rgb(100%,100%,100%);stroke-opacity:1;stroke-miterlimit:10;" d="M 70.9375 60.007813 L 71.09375 84.074219 "/>
<path style="fill:none;stroke-width:6;stroke-linecap:round;stroke-linejoin:round;stroke:rgb(100%,100%,100%);stroke-opacity:1;stroke-miterlimit:10;" d="M 183.582031 4.347656 L 183.667969 7.519531 L 186.296875 14.410156 L 186.503906 18.820313 L 185.410156 23.039063 L 182.09375 26.492188 "/>
<path style="fill:none;stroke-width:6;stroke-linecap:round;stroke-linejoin:round;stroke:rgb(100%,100%,100%);stroke-opacity:1;stroke-miterlimit:10;" d="M 136.554688 113.617188 L 153.957031 130.839844 "/>
<path style="fill:none;stroke-width:6;stroke-linecap:round;stroke-linejoin:round;stroke:rgb(100%,100%,100%);stroke-opacity:1;stroke-miterlimit:10;" d="M 134.605469 119.414063 L 131.121094 122.871094 L 129.730469 124.289063 L 129.441406 130.394531 L 139.394531 133.894531 L 140.574219 132.679688 "/>
<path style="fill:none;stroke-width:6;stroke-linecap:round;stroke-linejoin:round;stroke:rgb(100%,100%,100%);stroke-opacity:1;stroke-miterlimit:10;" d="M 154.996094 25.917969 L 155.144531 51.652344 "/>
<path style="fill:none;stroke-width:6;stroke-linecap:round;stroke-linejoin:round;stroke:rgb(100%,100%,100%);stroke-opacity:1;stroke-miterlimit:10;" d="M 86.359375 53.894531 L 86.640625 79.722656 "/>
<path style="fill:none;stroke-width:6;stroke-linecap:round;stroke-linejoin:round;stroke:rgb(100%,100%,100%);stroke-opacity:1;stroke-miterlimit:10;" d="M 76.09375 64.039063 L 81.109375 59.222656 L 86.359375 53.894531 L 91.578125 48.734375 L 95.992188 48.457031 "/>
<path style="fill:none;stroke-width:6;stroke-linecap:round;stroke-linejoin:round;stroke:rgb(100%,100%,100%);stroke-opacity:1;stroke-miterlimit:10;" d="M 75.984375 57.75 L 76.09375 64.039063 L 76.4375 84.0625 "/>
<path style="fill:none;stroke-width:6;stroke-linecap:round;stroke-linejoin:round;stroke:rgb(100%,100%,100%);stroke-opacity:1;stroke-miterlimit:10;" d="M 132.554688 116.660156 L 133.421875 118.253906 L 134.605469 119.414063 L 151.582031 136.03125 "/>
<path style="fill:none;stroke-width:6;stroke-linecap:round;stroke-linejoin:round;stroke:rgb(100%,100%,100%);stroke-opacity:1;stroke-miterlimit:10;" d="M 183.988281 28.5 L 186.949219 25.308594 L 188.285156 23.160156 L 189.382813 20.492188 L 189.625 18.539063 L 189.527344 16.003906 L 189.144531 13.589844 L 186.378906 6.628906 L 187.910156 2.019531 "/>
<path style="fill:none;stroke-width:6;stroke-linecap:round;stroke-linejoin:round;stroke:rgb(100%,100%,100%);stroke-opacity:1;stroke-miterlimit:10;" d="M 159.339844 37.15625 L 161.742188 36.777344 L 166.089844 32.308594 L 169.496094 35.824219 L 173.210938 39.65625 L 176.890625 43.453125 L 180.449219 47.125 "/>
<path style="fill:none;stroke-width:6;stroke-linecap:round;stroke-linejoin:round;stroke:rgb(100%,100%,100%);stroke-opacity:1;stroke-miterlimit:10;" d="M 129.679688 32.542969 L 125.566406 32.652344 L 120.386719 32.792969 L 115.171875 32.933594 L 109.835938 33.078125 L 104.722656 33.214844 L 104.566406 28.71875 "/>
<path style="fill:none;stroke-width:6;stroke-linecap:round;stroke-linejoin:round;stroke:rgb(100%,100%,100%);stroke-opacity:1;stroke-miterlimit:10;" d="M 91.578125 48.734375 L 91.867188 79.722656 "/>
<path style="fill:none;stroke-width:6;stroke-linecap:round;stroke-linejoin:round;stroke:rgb(100%,100%,100%);stroke-opacity:1;stroke-miterlimit:10;" d="M 149.613281 25.796875 L 149.878906 57.375 "/>
<path style="fill:none;stroke-width:6;stroke-linecap:round;stroke-linejoin:round;stroke:rgb(100%,100%,100%);stroke-opacity:1;stroke-miterlimit:10;" d="M 144.429688 25.402344 L 144.714844 62.03125 "/>
<path style="fill:none;stroke-width:6;stroke-linecap:round;stroke-linejoin:round;stroke:rgb(100%,100%,100%);stroke-opacity:1;stroke-miterlimit:10;" d="M 45.332031 35.597656 L 42.929688 3.050781 L 42.808594 -3.558594 "/>
<path style="fill:none;stroke-width:6;stroke-linecap:round;stroke-linejoin:round;stroke:rgb(100%,100%,100%);stroke-opacity:1;stroke-miterlimit:10;" d="M 43.648438 84.4375 L 43.652344 92.980469 L 43.65625 97.753906 L 43.65625 103.402344 L 43.660156 108.652344 L 43.660156 113.902344 L 43.667969 123.742188 "/>
<path style="fill:none;stroke-width:6;stroke-linecap:round;stroke-linejoin:round;stroke:rgb(100%,100%,100%);stroke-opacity:1;stroke-miterlimit:10;" d="M 139.207031 25.125 L 139.5625 65.558594 "/>
<path style="fill:none;stroke-width:6;stroke-linecap:round;stroke-linejoin:round;stroke:rgb(100%,100%,100%);stroke-opacity:1;stroke-miterlimit:10;" d="M 134.023438 24.769531 L 134.144531 67.210938 "/>
<path style="fill:none;stroke-width:6;stroke-linecap:round;stroke-linejoin:round;stroke:rgb(100%,100%,100%);stroke-opacity:1;stroke-miterlimit:10;" d="M 41.558594 84.449219 L 38.476563 91.296875 L 37.890625 93.15625 L 37.050781 95.8125 L 36.808594 98.109375 L 36.71875 103.40625 L 36.730469 108.730469 L 36.742188 114.140625 L 36.765625 123.578125 L 36.789063 143.558594 "/>
<path style="fill:none;stroke-width:6;stroke-linecap:round;stroke-linejoin:round;stroke:rgb(100%,100%,100%);stroke-opacity:1;stroke-miterlimit:10;" d="M 43.648438 84.4375 L 44.847656 84.28125 L 50.117188 84.1875 L 55.460938 84.097656 L 60.605469 84.089844 L 65.785156 84.082031 L 71.09375 84.074219 L 76.4375 84.0625 L 79.253906 84.0625 L 81.566406 82.140625 L 84.480469 79.722656 L 94.191406 79.722656 L 96.476563 77.941406 L 95.992188 48.457031 L 95.757813 34.136719 "/>
<path style="fill:none;stroke-width:6;stroke-linecap:round;stroke-linejoin:round;stroke:rgb(100%,100%,100%);stroke-opacity:1;stroke-miterlimit:10;" d="M 235.578125 -9 L 247.179688 1.0625 L 255.101563 3.75 L 262.421875 4.496094 L 264 4.054688 "/>
<path style="fill:none;stroke-width:6;stroke-linecap:round;stroke-linejoin:round;stroke:rgb(100%,100%,100%);stroke-opacity:1;stroke-miterlimit:10;" d="M 17.140625 100.582031 L 10.382813 98.949219 L 5.183594 98.746094 L 3.164063 99.425781 L 1.382813 100.148438 L -2.414063 102.949219 L -4.617188 106.949219 L -5.417969 111.546875 L -4.816406 114.949219 L -1.414063 132.550781 L -0.617188 140.550781 L -1.214844 147.550781 L -4.015625 155.550781 L -8.617188 163.75 L -9 164.40625 "/>
<path style="fill:none;stroke-width:6;stroke-linecap:round;stroke-linejoin:round;stroke:rgb(100%,100%,100%);stroke-opacity:1;stroke-miterlimit:10;" d="M 32.257813 123.539063 L 36.765625 123.578125 L 42.148438 123.703125 L 43.667969 123.742188 L 47.21875 123.808594 L 52.289063 123.898438 L 57.582031 124 L 62.917969 123.683594 L 66.519531 123.335938 L 67.84375 122.972656 L 68.96875 122.667969 L 71.417969 120.664063 L 72.980469 119.132813 L 74.601563 117.546875 L 77.050781 116.769531 L 78.410156 116.765625 L 83.421875 116.753906 L 88.847656 116.746094 L 94.039063 116.730469 L 99.050781 116.71875 L 104.476563 116.710938 L 109.546875 116.695313 L 114.558594 116.683594 L 120.042969 116.671875 L 124.964844 116.660156 L 126.351563 116.660156 L 129.777344 116.769531 L 132.554688 116.660156 L 134.921875 115.324219 L 136.554688 113.617188 L 140.34375 109.785156 L 143.910156 106.144531 L 147.582031 102.394531 L 151.1875 98.714844 L 154.996094 94.824219 L 157.609375 92.15625 L 158.765625 91.042969 L 160.597656 90.039063 L 162.589844 89.398438 L 164.871094 88.960938 L 167.140625 87.992188 L 168.554688 86.800781 L 172.410156 82.925781 L 176 79.210938 L 178.050781 77.261719 L 179.714844 75.640625 L 181.808594 73.414063 L 183.046875 71.554688 L 183.523438 70.601563 L 184.511719 67.5 L 185.097656 65.691406 L 185.851563 63.585938 L 185.582031 62.597656 L 185.121094 61.140625 L 183.460938 59.433594 L 179.816406 55.667969 L 176.058594 51.792969 L 174.589844 52.015625 L 171.734375 54.6875 L 170.507813 54.796875 L 168.164063 52.511719 L 164.417969 48.863281 L 162.058594 46.566406 L 160.511719 46.175781 L 155.144531 51.652344 L 149.878906 57.375 L 144.714844 62.03125 L 141.453125 64.144531 L 139.5625 65.558594 L 138.183594 66.589844 L 136.308594 67.257813 L 134.675781 67.371094 L 133.207031 66.925781 L 131.085938 65.925781 L 130.1875 64.144531 L 130.023438 61.585938 L 129.679688 32.542969 L 129.910156 24.792969 "/>
<path style="fill:none;stroke-width:6;stroke-linecap:round;stroke-linejoin:round;stroke:rgb(100%,100%,100%);stroke-opacity:1;stroke-miterlimit:10;" d="M 175.175781 33.835938 L 168.9375 28.652344 L 164.503906 26.765625 L 159.296875 26.296875 L 154.996094 25.917969 L 149.613281 25.796875 L 144.429688 25.402344 L 139.207031 25.125 L 134.023438 24.769531 L 129.910156 24.792969 L 125.605469 24.9375 L 120.507813 25.105469 L 115.195313 25.730469 L 111.582031 26.152344 L 109.933594 26.753906 L 104.566406 28.71875 L 103.382813 29.148438 L 98.382813 31.75 L 95.757813 34.136719 L 93.984375 35.75 L 87.582031 45.75 L 81.984375 51.550781 L 75.984375 57.75 L 70.9375 60.007813 L 65.507813 61.292969 L 60.785156 63.148438 L 55.429688 67.882813 L 49.9375 72.457031 L 44.921875 76.925781 L 38.804688 82.28125 L 37.585938 83.351563 L 34.382813 87.75 L 32.585938 92.546875 L 32.183594 96.949219 L 32.140625 100.472656 L 32.179688 104.105469 L 32.257813 123.539063 L 32.273438 125.910156 L 32.585938 138.109375 L 34.734375 141.597656 L 36.789063 143.558594 L 39.042969 145.035156 L 42.140625 145.636719 L 43.78125 145.957031 L 47.378906 145.308594 L 48.859375 145.039063 L 52.21875 144.113281 L 57.652344 142.617188 L 62.882813 141.175781 L 68.085938 139.742188 L 73.234375 138.328125 L 76.785156 137.347656 L 78.691406 137.003906 L 83.488281 136.132813 L 87.785156 135.351563 L 88.960938 135.277344 L 94.394531 134.9375 L 99.28125 134.632813 L 100.582031 134.550781 L 104.535156 134.679688 L 109.84375 134.851563 L 113.785156 134.980469 L 114.972656 135.035156 L 120.28125 135.273438 L 125 135.488281 L 131.671875 136.75 L 144.582031 140.148438 L 145.589844 139.773438 L 149.382813 138.347656 L 151.582031 136.03125 L 152.984375 134.550781 L 153.957031 130.839844 L 155.417969 125.277344 L 156.183594 122.351563 L 157.339844 119.839844 L 159.75 114.621094 L 162.796875 110.730469 L 165.785156 106.949219 L 169.753906 102.613281 L 173.207031 98.839844 L 176.65625 95.070313 L 180.382813 90.996094 L 183.859375 87.199219 L 187.382813 83.351563 L 189.671875 78.398438 L 190.984375 75.546875 L 191.441406 72.429688 L 192.183594 67.351563 L 190.902344 60.289063 L 189 54.40625 L 187.109375 48.558594 L 186.78125 47.550781 L 184.015625 43.324219 L 182.984375 41.75 L 177.238281 35.929688 L 175.175781 33.835938 "/>
<path style="fill:none;stroke-width:6;stroke-linecap:round;stroke-linejoin:round;stroke:rgb(100%,99.215686%,54.509804%);stroke-opacity:1;stroke-miterlimit:10;" d="M 59.195313 35.394531 L 60.949219 37.300781 L 61.683594 38.894531 L 62.121094 40.023438 L 62.171875 41.691406 L 61.617188 44.582031 "/>
<path style="fill:none;stroke-width:6;stroke-linecap:round;stroke-linejoin:round;stroke:rgb(100%,99.215686%,54.509804%);stroke-opacity:1;stroke-miterlimit:10;" d="M 126.472656 264 L 109.785156 255.148438 L 99.183594 247.949219 L 91.183594 239.949219 L 64.785156 209.949219 L 59.183594 202.148438 L 55.4375 197.167969 "/>
<path style="fill:none;stroke-width:6;stroke-linecap:round;stroke-linejoin:round;stroke:rgb(100%,99.215686%,54.509804%);stroke-opacity:1;stroke-miterlimit:10;" d="M 69.628906 37.617188 L 65.183594 35.550781 L 60.785156 35.351563 L 59.195313 35.394531 L 45.332031 35.597656 L 16.242188 38.164063 L -3.214844 40.75 L -9 42.078125 "/>
<path style="fill:none;stroke-width:7;stroke-linecap:round;stroke-linejoin:round;stroke:rgb(100%,99.215686%,54.509804%);stroke-opacity:1;stroke-miterlimit:10;" d="M 55.4375 197.167969 L 49.0625 186.246094 L 43.140625 178.074219 "/>
<path style="fill:none;stroke-width:7;stroke-linecap:round;stroke-linejoin:round;stroke:rgb(100%,99.215686%,54.509804%);stroke-opacity:1;stroke-miterlimit:10;" d="M 43.140625 178.074219 L 26.058594 159.140625 "/>
<path style="fill:none;stroke-width:7;stroke-linecap:round;stroke-linejoin:round;stroke:rgb(100%,99.215686%,54.509804%);stroke-opacity:1;stroke-miterlimit:10;" d="M 26.058594 159.140625 L 20.9375 152.046875 L 17.542969 146.773438 L 15.53125 140.75 L 14.8125 133.65625 L 17.140625 100.582031 "/>
<path style="fill:none;stroke-width:7;stroke-linecap:round;stroke-linejoin:round;stroke:rgb(100%,99.215686%,54.509804%);stroke-opacity:1;stroke-miterlimit:10;" d="M 187.910156 2.019531 L 191.386719 0.148438 L 198.785156 -5.449219 L 202.789063 -10 "/>
<path style="fill:none;stroke-width:7;stroke-linecap:round;stroke-linejoin:round;stroke:rgb(100%,99.215686%,54.509804%);stroke-opacity:1;stroke-miterlimit:10;" d="M 17.140625 100.582031 L 18.34375 93.386719 L 21.675781 84.992188 L 26.03125 77.699219 L 29.390625 73.144531 L 32.871094 69.574219 L 61.617188 44.582031 L 66.066406 40.714844 L 69.628906 37.617188 L 85.382813 23.75 L 94.582031 17.949219 L 104.785156 13.75 L 114.785156 11.148438 L 125.984375 10.347656 L 154.585938 10.949219 L 164.382813 10.148438 L 174.382813 7.75 L 183.582031 4.347656 L 187.910156 2.019531 "/>
<path style="fill:none;stroke-width:7;stroke-linecap:round;stroke-linejoin:round;stroke:rgb(100%,99.215686%,54.509804%);stroke-opacity:1;stroke-miterlimit:10;" d="M 55.4375 197.167969 L 50.714844 205.445313 L 41.160156 235.3125 L 37.492188 246.546875 L 32.113281 258.347656 L 28.886719 263.523438 L 27.558594 265 "/>
<path style="fill:none;stroke-width:8;stroke-linecap:butt;stroke-linejoin:round;stroke:rgb(53.333333%,53.333333%,53.333333%);stroke-opacity:1;stroke-miterlimit:10;" d="M 179.472656 33.476563 L 183.988281 28.5 "/>
<path style="fill:none;stroke-width:8;stroke-linecap:butt;stroke-linejoin:round;stroke:rgb(53.333333%,53.333333%,53.333333%);stroke-opacity:1;stroke-miterlimit:10;" d="M 182.09375 26.492188 L 177.3125 31.632813 "/>
<path style="fill:none;stroke-width:8;stroke-linecap:butt;stroke-linejoin:round;stroke:rgb(53.333333%,53.333333%,53.333333%);stroke-opacity:1;stroke-miterlimit:10;" d="M 73.59375 42.089844 L 79.132813 48.332031 "/>
<path style="fill:none;stroke-width:6;stroke-linecap:round;stroke-linejoin:round;stroke:rgb(100%,100%,100%);stroke-opacity:1;stroke-miterlimit:10;" d="M 179.472656 33.476563 L 183.988281 28.5 "/>
<path style="fill:none;stroke-width:6;stroke-linecap:round;stroke-linejoin:round;stroke:rgb(100%,100%,100%);stroke-opacity:1;stroke-miterlimit:10;" d="M 182.09375 26.492188 L 177.3125 31.632813 "/>
<path style="fill:none;stroke-width:6;stroke-linecap:round;stroke-linejoin:round;stroke:rgb(100%,100%,100%);stroke-opacity:1;stroke-miterlimit:10;" d="M 73.59375 42.089844 L 79.132813 48.332031 "/>
</g>
</svg>

