<?xml version="1.0" encoding="UTF-8"?>
<svg xmlns="http://www.w3.org/2000/svg" xmlns:xlink="http://www.w3.org/1999/xlink" width="256pt" height="256pt" viewBox="0 0 256 256" version="1.1">
<g id="surface2">
<rect x="0" y="0" width="256" height="256" style="fill:rgb(94.901961%,93.72549%,91.372549%);fill-opacity:1;stroke:none;"/>
<path style="fill:none;stroke-width:2;stroke-linecap:round;stroke-linejoin:round;stroke:rgb(60%,70.196078%,80%);stroke-opacity:1;stroke-miterlimit:10;" d="M -3 94.84375 L 12.066406 93.589844 L 34.480469 83.445313 L 49.289063 70.625 L 55.429688 52.65625 L 80.714844 44.886719 L 105.546875 42.179688 L 119.992188 47.324219 L 141.9375 63.035156 L 179.5 121.460938 L 187.355469 157.21875 L 212.550781 177.449219 L 233.140625 188.011719 L 248.039063 200.746094 L 247.945313 206.613281 L 242.707031 213.386719 L 238.554688 222.234375 L 242.257813 233.070313 L 254.628906 242.007813 L 258 244.230469 "/>
<path style="fill:none;stroke-width:3;stroke-linecap:round;stroke-linejoin:round;stroke:rgb(100%,100%,100%);stroke-opacity:1;stroke-miterlimit:10;" d="M 148.976563 68.542969 L 144.898438 69.589844 L 146.335938 71.824219 Z M 149.570313 67.496094 L 150.164063 68.433594 L 144.914063 75.074219 L 144.367188 74.214844 L 145.757813 72.558594 L 143.992188 69.824219 L 141.898438 70.386719 L 141.351563 69.511719 Z M 152.492188 71.40625 L 152.976563 72.15625 L 145.945313 76.671875 L 145.460938 75.921875 Z M 148.183594 78.484375 L 145.496094 80.203125 L 145.011719 79.4375 L 151.996094 74.953125 L 152.480469 75.71875 L 151.714844 76.203125 C 152.121094 76.171875 152.46875 76.230469 152.761719 76.375 C 153.050781 76.511719 153.308594 76.75 153.527344 77.09375 C 153.878906 77.644531 153.921875 78.25 153.652344 78.90625 C 153.390625 79.5625 152.859375 80.144531 152.058594 80.65625 C 151.265625 81.164063 150.515625 81.40625 149.808594 81.375 C 149.109375 81.34375 148.582031 81.050781 148.230469 80.5 C 148.011719 80.15625 147.894531 79.820313 147.886719 79.5 C 147.875 79.175781 147.972656 78.835938 148.183594 78.484375 Z M 151.574219 79.875 C 152.1875 79.476563 152.59375 79.054688 152.792969 78.609375 C 153 78.171875 152.980469 77.753906 152.730469 77.359375 C 152.46875 76.964844 152.089844 76.765625 151.589844 76.765625 C 151.097656 76.757813 150.546875 76.949219 149.933594 77.34375 C 149.328125 77.738281 148.921875 78.160156 148.714844 78.609375 C 148.515625 79.054688 148.546875 79.476563 148.808594 79.875 C 149.058594 80.269531 149.425781 80.46875 149.917969 80.46875 C 150.417969 80.46875 150.96875 80.269531 151.574219 79.875 Z M 157.378906 79 L 157.863281 79.75 L 150.832031 84.265625 L 150.347656 83.515625 Z M 155.707031 86.269531 C 155.320313 85.652344 154.972656 85.285156 154.660156 85.160156 C 154.355469 85.035156 154.023438 85.085938 153.660156 85.316406 C 153.367188 85.503906 153.191406 85.742188 153.128906 86.035156 C 153.066406 86.324219 153.128906 86.617188 153.316406 86.910156 C 153.585938 87.335938 153.964844 87.566406 154.457031 87.597656 C 154.945313 87.628906 155.460938 87.472656 156.003906 87.128906 L 156.191406 87.003906 Z M 157.019531 87.535156 L 154.128906 89.394531 L 153.644531 88.644531 L 154.410156 88.160156 C 153.980469 88.191406 153.617188 88.121094 153.316406 87.957031 C 153.011719 87.789063 152.742188 87.523438 152.503906 87.160156 C 152.210938 86.691406 152.117188 86.226563 152.222656 85.769531 C 152.335938 85.308594 152.636719 84.921875 153.128906 84.597656 C 153.699219 84.234375 154.238281 84.136719 154.738281 84.300781 C 155.246094 84.457031 155.722656 84.875 156.160156 85.550781 L 156.832031 86.597656 L 156.910156 86.535156 C 157.292969 86.292969 157.519531 85.992188 157.582031 85.628906 C 157.652344 85.273438 157.558594 84.890625 157.300781 84.472656 C 157.132813 84.222656 156.929688 83.996094 156.691406 83.785156 C 156.460938 83.578125 156.207031 83.40625 155.925781 83.269531 L 156.691406 82.785156 C 156.980469 82.984375 157.238281 83.191406 157.457031 83.410156 C 157.683594 83.628906 157.878906 83.859375 158.035156 84.097656 C 158.449219 84.753906 158.574219 85.363281 158.410156 85.925781 C 158.253906 86.496094 157.789063 87.035156 157.019531 87.535156 Z M 157.066406 89.570313 L 160.128906 87.601563 L 160.613281 88.351563 L 157.582031 90.304688 C 157.101563 90.605469 156.792969 90.917969 156.660156 91.242188 C 156.535156 91.5625 156.574219 91.890625 156.785156 92.226563 C 157.054688 92.640625 157.402344 92.871094 157.832031 92.914063 C 158.269531 92.964844 158.730469 92.828125 159.222656 92.507813 L 162.097656 90.664063 L 162.582031 91.414063 L 157.519531 94.664063 L 157.035156 93.914063 L 157.816406 93.414063 C 157.386719 93.433594 157.023438 93.371094 156.722656 93.226563 C 156.429688 93.078125 156.179688 92.84375 155.972656 92.523438 C 155.636719 92.011719 155.558594 91.5 155.738281 90.992188 C 155.925781 90.492188 156.367188 90.019531 157.066406 89.570313 Z M 161.457031 89.414063 Z M 165.304688 95.960938 L 164.507813 96.460938 C 164.484375 96.167969 164.433594 95.890625 164.351563 95.632813 C 164.265625 95.375 164.148438 95.125 163.992188 94.882813 C 163.742188 94.507813 163.492188 94.269531 163.242188 94.164063 C 163 94.050781 162.761719 94.070313 162.523438 94.226563 C 162.324219 94.351563 162.210938 94.519531 162.179688 94.726563 C 162.15625 94.9375 162.226563 95.269531 162.382813 95.726563 L 162.476563 96.023438 C 162.695313 96.648438 162.761719 97.140625 162.679688 97.507813 C 162.59375 97.871094 162.34375 98.1875 161.929688 98.460938 C 161.46875 98.75 160.996094 98.820313 160.507813 98.664063 C 160.015625 98.515625 159.578125 98.148438 159.195313 97.554688 C 159.039063 97.3125 158.902344 97.042969 158.789063 96.742188 C 158.671875 96.449219 158.570313 96.121094 158.476563 95.757813 L 159.320313 95.210938 C 159.351563 95.59375 159.414063 95.945313 159.507813 96.257813 C 159.601563 96.578125 159.730469 96.871094 159.898438 97.132813 C 160.125 97.484375 160.367188 97.714844 160.617188 97.820313 C 160.875 97.921875 161.125 97.898438 161.367188 97.742188 C 161.59375 97.59375 161.726563 97.414063 161.757813 97.195313 C 161.789063 96.976563 161.703125 96.601563 161.507813 96.070313 L 161.445313 95.757813 C 161.246094 95.238281 161.195313 94.800781 161.289063 94.445313 C 161.382813 94.09375 161.621094 93.789063 162.007813 93.539063 C 162.484375 93.238281 162.949219 93.15625 163.398438 93.289063 C 163.84375 93.425781 164.25 93.773438 164.617188 94.335938 C 164.792969 94.609375 164.9375 94.878906 165.054688 95.148438 C 165.167969 95.421875 165.25 95.6875 165.304688 95.960938 Z M 169.761719 98.894531 L 170.292969 99.722656 L 167.449219 101.550781 L 172.042969 102.441406 L 172.714844 103.503906 L 167.636719 102.503906 L 166.121094 108.050781 L 165.433594 106.972656 L 166.808594 101.957031 L 163.558594 104.050781 L 163.027344 103.222656 Z M 171.566406 105.394531 L 172.050781 106.144531 L 166.988281 109.394531 L 166.503906 108.644531 Z M 173.535156 104.128906 L 174.019531 104.878906 L 172.972656 105.550781 L 172.488281 104.800781 Z M 175.023438 106.445313 L 175.507813 107.195313 L 168.476563 111.710938 L 167.992188 110.960938 Z M 176.507813 108.757813 L 176.992188 109.507813 L 169.960938 114.023438 L 169.476563 113.273438 Z M 176.507813 108.757813 "/>
<path style=" stroke:none;fill-rule:evenodd;fill:rgb(41.960784%,58.039216%,69.019608%);fill-opacity:1;" d="M 148.976563 68.542969 L 144.898438 69.589844 L 146.335938 71.824219 Z M 149.570313 67.496094 L 150.164063 68.433594 L 144.914063 75.074219 L 144.367188 74.214844 L 145.757813 72.558594 L 143.992188 69.824219 L 141.898438 70.386719 L 141.351563 69.511719 Z M 152.492188 71.40625 L 152.976563 72.15625 L 145.945313 76.671875 L 145.460938 75.921875 Z M 148.183594 78.484375 L 145.496094 80.203125 L 145.011719 79.4375 L 151.996094 74.953125 L 152.480469 75.71875 L 151.714844 76.203125 C 152.121094 76.171875 152.46875 76.230469 152.761719 76.375 C 153.050781 76.511719 153.308594 76.75 153.527344 77.09375 C 153.878906 77.644531 153.921875 78.25 153.652344 78.90625 C 153.390625 79.5625 152.859375 80.144531 152.058594 80.65625 C 151.265625 81.164063 150.515625 81.40625 149.808594 81.375 C 149.109375 81.34375 148.582031 81.050781 148.230469 80.5 C 148.011719 80.15625 147.894531 79.820313 147.886719 79.5 C 147.875 79.175781 147.972656 78.835938 148.183594 78.484375 Z M 151.574219 79.875 C 152.1875 79.476563 152.59375 79.054688 152.792969 78.609375 C 153 78.171875 152.980469 77.753906 152.730469 77.359375 C 152.46875 76.964844 152.089844 76.765625 151.589844 76.765625 C 151.097656 76.757813 150.546875 76.949219 149.933594 77.34375 C 149.328125 77.738281 148.921875 78.160156 148.714844 78.609375 C 148.515625 79.054688 148.546875 79.476563 148.808594 79.875 C 149.058594 80.269531 149.425781 80.46875 149.917969 80.46875 C 150.417969 80.46875 150.96875 80.269531 151.574219 79.875 Z M 157.378906 79 L 157.863281 79.75 L 150.832031 84.265625 L 150.347656 83.515625 Z M 155.707031 86.269531 C 155.320313 85.652344 154.972656 85.285156 154.660156 85.160156 C 154.355469 85.035156 154.023438 85.085938 153.660156 85.316406 C 153.367188 85.503906 153.191406 85.742188 153.128906 86.035156 C 153.066406 86.324219 153.128906 86.617188 153.316406 86.910156 C 153.585938 87.335938 153.964844 87.566406 154.457031 87.597656 C 154.945313 87.628906 155.460938 87.472656 156.003906 87.128906 L 156.191406 87.003906 Z M 157.019531 87.535156 L 154.128906 89.394531 L 153.644531 88.644531 L 154.410156 88.160156 C 153.980469 88.191406 153.617188 88.121094 153.316406 87.957031 C 153.011719 87.789063 152.742188 87.523438 152.503906 87.160156 C 152.210938 86.691406 152.117188 86.226563 152.222656 85.769531 C 152.335938 85.308594 152.636719 84.921875 153.128906 84.597656 C 153.699219 84.234375 154.238281 84.136719 154.738281 84.300781 C 155.246094 84.457031 155.722656 84.875 156.160156 85.550781 L 156.832031 86.597656 L 156.910156 86.535156 C 157.292969 86.292969 157.519531 85.992188 157.582031 85.628906 C 157.652344 85.273438 157.558594 84.890625 157.300781 84.472656 C 157.132813 84.222656 156.929688 83.996094 156.691406 83.785156 C 156.460938 83.578125 156.207031 83.40625 155.925781 83.269531 L 156.691406 82.785156 C 156.980469 82.984375 157.238281 83.191406 157.457031 83.410156 C 157.683594 83.628906 157.878906 83.859375 158.035156 84.097656 C 158.449219 84.753906 158.574219 85.363281 158.410156 85.925781 C 158.253906 86.496094 157.789063 87.035156 157.019531 87.535156 Z M 157.066406 89.570313 L 160.128906 87.601563 L 160.613281 88.351563 L 157.582031 90.304688 C 157.101563 90.605469 156.792969 90.917969 156.660156 91.242188 C 156.535156 91.5625 156.574219 91.890625 156.785156 92.226563 C 157.054688 92.640625 157.402344 92.871094 157.832031 92.914063 C 158.269531 92.964844 158.730469 92.828125 159.222656 92.507813 L 162.097656 90.664063 L 162.582031 91.414063 L 157.519531 94.664063 L 157.035156 93.914063 L 157.816406 93.414063 C 157.386719 93.433594 157.023438 93.371094 156.722656 93.226563 C 156.429688 93.078125 156.179688 92.84375 155.972656 92.523438 C 155.636719 92.011719 155.558594 91.5 155.738281 90.992188 C 155.925781 90.492188 156.367188 90.019531 157.066406 89.570313 Z M 161.457031 89.414063 Z M 165.304688 95.960938 L 164.507813 96.460938 C 164.484375 96.167969 164.433594 95.890625 164.351563 95.632813 C 164.265625 95.375 164.148438 95.125 163.992188 94.882813 C 163.742188 94.507813 163.492188 94.269531 163.242188 94.164063 C 163 94.050781 162.761719 94.070313 162.523438 94.226563 C 162.324219 94.351563 162.210938 94.519531 162.179688 94.726563 C 162.15625 94.9375 162.226563 95.269531 162.382813 95.726563 L 162.476563 96.023438 C 162.695313 96.648438 162.761719 97.140625 162.679688 97.507813 C 162.59375 97.871094 162.34375 98.1875 161.929688 98.460938 C 161.46875 98.75 160.996094 98.820313 160.507813 98.664063 C 160.015625 98.515625 159.578125 98.148438 159.195313 97.554688 C 159.039063 97.3125 158.902344 97.042969 158.789063 96.742188 C 158.671875 96.449219 158.570313 96.121094 158.476563 95.757813 L 159.320313 95.210938 C 159.351563 95.59375 159.414063 95.945313 159.507813 96.257813 C 159.601563 96.578125 159.730469 96.871094 159.898438 97.132813 C 160.125 97.484375 160.367188 97.714844 160.617188 97.820313 C 160.875 97.921875 161.125 97.898438 161.367188 97.742188 C 161.59375 97.59375 161.726563 97.414063 161.757813 97.195313 C 161.789063 96.976563 161.703125 96.601563 161.507813 96.070313 L 161.445313 95.757813 C 161.246094 95.238281 161.195313 94.800781 161.289063 94.445313 C 161.382813 94.09375 161.621094 93.789063 162.007813 93.539063 C 162.484375 93.238281 162.949219 93.15625 163.398438 93.289063 C 163.84375 93.425781 164.25 93.773438 164.617188 94.335938 C 164.792969 94.609375 164.9375 94.878906 165.054688 95.148438 C 165.167969 95.421875 165.25 95.6875 165.304688 95.960938 Z M 169.761719 98.894531 L 170.292969 99.722656 L 167.449219 101.550781 L 172.042969 102.441406 L 172.714844 103.503906 L 167.636719 102.503906 L 166.121094 108.050781 L 165.433594 106.972656 L 166.808594 101.957031 L 163.558594 104.050781 L 163.027344 103.222656 Z M 171.566406 105.394531 L 172.050781 106.144531 L 166.988281 109.394531 L 166.503906 108.644531 Z M 173.535156 104.128906 L 174.019531 104.878906 L 172.972656 105.550781 L 172.488281 104.800781 Z M 175.023438 106.445313 L 175.507813 107.195313 L 168.476563 111.710938 L 167.992188 110.960938 Z M 176.507813 108.757813 L 176.992188 109.507813 L 169.960938 114.023438 L 169.476563 113.273438 Z M 176.507813 108.757813 "/>
</g>
</svg>

