<?xml version="1.0" encoding="UTF-8"?>
<svg xmlns="http://www.w3.org/2000/svg" xmlns:xlink="http://www.w3.org/1999/xlink" width="256pt" height="256pt" viewBox="0 0 256 256" version="1.1">
<g id="surface2">
<rect x="0" y="0" width="256" height="256" style="fill:rgb(60%,70.196078%,80%);fill-opacity:1;stroke:none;"/>
<path style=" stroke:none;fill-rule:evenodd;fill:rgb(94.901961%,93.72549%,91.372549%);fill-opacity:1;" d="M -4 259 L -4 248.886719 L 23.078125 246.808594 L 27.046875 248.835938 L 38.777344 249.34375 L 39.585938 251.558594 L 55.769531 252.125 L 55.777344 251.328125 L 60.457031 251.488281 L 61.648438 250.421875 L 61.707031 246.957031 L 62.976563 247.1875 L 63.652344 245.195313 L 65.703125 245.886719 L 62.644531 258.0625 L 66.6875 259 L 75.65625 259 L 76.226563 256.703125 L 81.230469 257.773438 L 80.96875 259 L 259 259 L 198.4375 259 L 198.4375 253 L 201.925781 250.203125 L 218.082031 238.292969 L 169.988281 191.699219 L 179.070313 182.324219 L 249.453125 250.449219 L 251.824219 248.171875 L 254.246094 219.1875 L 253.65625 215.511719 L 251.382813 212.199219 L 243.847656 201.40625 L 237.105469 206.539063 L 212.90625 171.152344 L 219.894531 166.585938 L 212.828125 156.542969 L 223.65625 149.398438 L 259 200.503906 L 259 259 L 259 -4 L 259 259 Z M -4 259 "/>
<path style=" stroke:none;fill-rule:evenodd;fill:rgb(94.901961%,93.72549%,91.372549%);fill-opacity:1;" d="M -4 -4 L 259 -4 L 151.882813 -4 L 147.863281 7.21875 L 139.4375 30.933594 L 137.1875 37.1875 L 130.246094 56.457031 L 127.320313 62.792969 L 123.96875 69.097656 L 120.046875 75.261719 L 114.234375 82.550781 L 109.121094 88.023438 L 104.09375 92.996094 L 98.894531 97.699219 L 93.703125 101.898438 L 92.140625 102.96875 L 90.445313 103.894531 L 88.5 104.675781 L 86.519531 105.304688 L 84.367188 105.738281 L 75.070313 106.488281 L 36.707031 109.644531 L 36.800781 111.996094 L 34.453125 112.171875 L 14.734375 114.121094 L 15.710938 126.125 L -4 128.71875 L -4 259 Z M -4 -4 "/>
<path style=" stroke:none;fill-rule:evenodd;fill:rgb(81.960784%,81.568627%,80.392157%);fill-opacity:1;" d="M 260 260 L 260 201.949219 L 223.65625 149.398438 L 212.828125 156.542969 L 219.894531 166.585938 L 212.910156 171.152344 L 237.105469 206.539063 L 243.847656 201.40625 L 251.382813 212.199219 L 253.660156 215.511719 L 254.246094 219.1875 L 251.824219 248.171875 L 249.453125 250.449219 L 179.070313 182.324219 L 169.988281 191.699219 L 218.082031 238.292969 L 201.925781 250.203125 L 198.4375 253 L 198.4375 260 L 80.753906 260 L 81.230469 257.773438 L 76.226563 256.703125 L 75.410156 260 L 70.992188 260 L 62.644531 258.0625 L 65.703125 245.886719 L 61.4375 260 Z M 260 260 "/>
<path style="fill:none;stroke-width:1;stroke-linecap:round;stroke-linejoin:round;stroke:rgb(81.960784%,81.960784%,81.960784%);stroke-opacity:1;stroke-miterlimit:10;" d="M 260 260 L 260 201.949219 L 223.65625 149.398438 L 212.828125 156.542969 L 219.894531 166.585938 L 212.910156 171.152344 L 237.105469 206.539063 L 243.847656 201.40625 L 251.382813 212.199219 L 253.660156 215.511719 L 254.246094 219.1875 L 251.824219 248.171875 L 249.453125 250.449219 L 179.070313 182.324219 L 169.988281 191.699219 L 218.082031 238.292969 L 201.925781 250.203125 L 198.4375 253 L 198.4375 260 L 80.753906 260 L 81.230469 257.773438 L 76.226563 256.703125 L 75.410156 260 L 70.992188 260 L 62.644531 258.0625 L 65.703125 245.886719 L 61.4375 260 L 260 260 "/>
<path style=" stroke:none;fill-rule:evenodd;fill:rgb(70.980392%,82.352941%,61.176471%);fill-opacity:1;" d="M 34.453125 112.171875 L 36.800781 112 L 36.707031 109.644531 L 75.070313 106.488281 L 84.367188 105.738281 L 86.519531 105.304688 L 88.5 104.675781 L 90.445313 103.894531 L 92.144531 102.96875 L 93.703125 101.898438 L 98.894531 97.699219 L 104.09375 92.996094 L 109.121094 88.023438 L 114.234375 82.550781 L 120.046875 75.261719 L 123.96875 69.097656 L 127.320313 62.792969 L 130.246094 56.457031 L 137.1875 37.1875 L 139.4375 30.933594 L 147.863281 7.21875 L 151.882813 -4 L 121.710938 -4 L 121.371094 -3.121094 L 99 52.003906 L 93.996094 60.128906 L 86.496094 69.878906 L 77.121094 79.632813 L 65.746094 87.128906 L 56.371094 91.882813 L 43.621094 95.753906 L 34.375 97.628906 Z M 34.453125 112.171875 "/>
<path style=" stroke:none;fill-rule:evenodd;fill:rgb(94.901961%,93.72549%,91.372549%);fill-opacity:1;" d="M -4 75.789063 L 28.402344 72.957031 L 26.46875 52.316406 L 46.859375 50.195313 L 43.144531 10.945313 L -4 18.363281 L -4 -4 Z M -4 75.789063 "/>
<path style="fill:none;stroke-width:1;stroke-linecap:round;stroke-linejoin:round;stroke:rgb(89.019608%,87.058824%,83.137255%);stroke-opacity:1;stroke-miterlimit:10;" d="M -4 75.789063 L 28.402344 72.957031 L 26.46875 52.316406 L 46.859375 50.195313 L 43.144531 10.945313 L -4 18.363281 L -4 -4 L -4 75.789063 "/>
<path style=" stroke:none;fill-rule:evenodd;fill:rgb(94.901961%,93.72549%,91.372549%);fill-opacity:1;" d="M 49.984375 11.382813 L 54.28125 48.605469 L 89.492188 45.675781 L 108.808594 -4 L 50.113281 -4 L 49.859375 -3.355469 Z M 49.984375 11.382813 "/>
<path style="fill:none;stroke-width:1;stroke-linecap:round;stroke-linejoin:round;stroke:rgb(89.019608%,87.058824%,83.137255%);stroke-opacity:1;stroke-miterlimit:10;" d="M 49.984375 11.382813 L 54.28125 48.605469 L 89.492188 45.675781 L 108.808594 -4 L 50.113281 -4 L 49.859375 -3.355469 L 49.984375 11.382813 "/>
<path style=" stroke:none;fill-rule:evenodd;fill:rgb(70.980392%,82.352941%,61.176471%);fill-opacity:1;" d="M -4 128.71875 L 15.710938 126.125 L 14.734375 114.121094 L 34.453125 112.171875 L 34.375 97.628906 L 6.128906 99.496094 L -4 101.816406 Z M -4 128.71875 "/>
<path style=" stroke:none;fill-rule:evenodd;fill:rgb(70.980392%,82.352941%,61.176471%);fill-opacity:1;" d="M 29.429688 53.519531 L 32.746094 89.257813 L 38.625 88.882813 L 51.871094 85.507813 L 65.625 78.753906 L 75.996094 70.503906 L 83.996094 62.128906 L 92.496094 49.378906 L 92.839844 47.78125 Z M 29.429688 53.519531 "/>
<path style=" stroke:none;fill-rule:evenodd;fill:rgb(87.058824%,81.960784%,67.058824%);fill-opacity:1;" d="M 98.472656 62.863281 L 99.597656 66.488281 L 101.722656 69.988281 L 105.097656 72.988281 L 108.972656 73.988281 L 112.472656 74.113281 L 116.097656 73.109375 L 118.722656 70.488281 L 121.972656 65.863281 L 129.722656 44.238281 L 128.347656 42.238281 L 127.097656 40.363281 L 126.472656 38.113281 L 110.972656 32.988281 L 98.972656 58.488281 Z M 98.472656 62.863281 "/>
<path style=" stroke:none;fill-rule:evenodd;fill:rgb(81.960784%,81.568627%,80.392157%);fill-opacity:1;" d="M 43.277344 28.464844 L 45.183594 49.414063 L 54.28125 48.605469 L 80.292969 46.300781 L 80.144531 43.5 L 78.160156 43.585938 L 73.507813 42.953125 L 73.363281 41.367188 L 68.949219 41.738281 L 54.605469 43.09375 L 52.636719 43.277344 L 51.359375 25.058594 L 49.984375 11.382813 L 44.363281 12.210938 L 45.800781 28.160156 Z M 43.277344 28.464844 "/>
<path style="fill:none;stroke-width:1;stroke-linecap:round;stroke-linejoin:round;stroke:rgb(81.960784%,81.960784%,81.960784%);stroke-opacity:1;stroke-miterlimit:10;" d="M 43.277344 28.464844 L 45.183594 49.414063 L 54.28125 48.605469 L 80.292969 46.300781 L 80.144531 43.5 L 78.160156 43.585938 L 73.507813 42.953125 L 73.363281 41.367188 L 68.949219 41.738281 L 54.605469 43.09375 L 52.636719 43.277344 L 51.359375 25.058594 L 49.984375 11.382813 L 44.363281 12.210938 L 45.800781 28.160156 L 43.277344 28.464844 "/>
<path style=" stroke:none;fill-rule:evenodd;fill:rgb(87.058824%,82.352941%,67.45098%);fill-opacity:1;" d="M -0.550781 12.367188 L 1.832031 12.042969 L 22.507813 9.039063 L 22.332031 6.828125 L 22.011719 4.390625 L 21.894531 2.941406 L 21.832031 0.625 L 17.054688 1.011719 L 13.710938 1.316406 L 5.554688 3.121094 L 4.601563 -4 L 1.824219 -4 L -2.269531 -3.398438 Z M -0.550781 12.367188 "/>
<path style=" stroke:none;fill-rule:evenodd;fill:rgb(87.058824%,81.960784%,67.058824%);fill-opacity:1;" d="M 35.757813 75.351563 L 36.382813 82.433594 L 51.417969 81.113281 L 50.796875 74.035156 Z M 35.757813 75.351563 "/>
<path style=" stroke:none;fill-rule:evenodd;fill:rgb(60%,70.196078%,80%);fill-opacity:1;" d="M -4 259 L -4 248.886719 L 23.078125 246.808594 L 27.046875 248.835938 L 15.710938 126.125 L -4 128.71875 Z M -4 259 "/>
<path style="fill:none;stroke-width:1;stroke-linecap:round;stroke-linejoin:round;stroke:rgb(70.196078%,77.647059%,83.137255%);stroke-opacity:1;stroke-miterlimit:10;" d="M -4 259 L -4 248.886719 L 23.078125 246.808594 L 27.046875 248.835938 L 15.710938 126.125 L -4 128.71875 L -4 259 "/>
<path style=" stroke:none;fill-rule:evenodd;fill:rgb(60%,70.196078%,80%);fill-opacity:1;" d="M 15.710938 126.125 L 27.046875 248.835938 L 38.777344 249.34375 L 39.589844 251.558594 L 55.769531 252.125 L 60.457031 251.488281 L 61.648438 250.421875 L 61.707031 246.957031 L 62.976563 247.1875 L 63.652344 245.195313 L 65.703125 245.886719 L 62.644531 258.0625 L 66.6875 259 L 75.65625 259 L 76.226563 256.703125 L 81.230469 257.773438 L 80.96875 259 L 259 259 L 198.4375 259 L 198.4375 253 L 201.925781 250.203125 L 218.082031 238.292969 L 169.988281 191.699219 L 179.070313 182.324219 L 249.453125 250.449219 L 251.824219 248.171875 L 254.246094 219.1875 L 253.660156 215.511719 L 251.382813 212.199219 L 243.847656 201.40625 L 237.105469 206.539063 L 212.910156 171.152344 L 219.894531 166.585938 L 212.828125 156.542969 L 223.65625 149.398438 L 259 200.503906 L 259 259 L 259 -4 L 151.882813 -4 L 147.863281 7.21875 L 139.4375 30.933594 L 137.1875 37.1875 L 130.246094 56.457031 L 127.320313 62.792969 L 123.96875 69.097656 L 120.046875 75.261719 L 114.234375 82.550781 L 109.121094 88.023438 L 104.09375 92.996094 L 98.894531 97.699219 L 93.703125 101.898438 L 92.144531 102.96875 L 90.445313 103.894531 L 88.5 104.675781 L 86.519531 105.304688 L 84.367188 105.738281 L 75.070313 106.488281 L 36.707031 109.644531 L 36.800781 112 L 34.453125 112.171875 L 14.734375 114.121094 Z M 15.710938 126.125 "/>
<path style="fill:none;stroke-width:1;stroke-linecap:round;stroke-linejoin:round;stroke:rgb(70.196078%,77.647059%,83.137255%);stroke-opacity:1;stroke-miterlimit:10;" d="M 15.710938 126.125 L 27.046875 248.835938 L 38.777344 249.34375 L 39.589844 251.558594 L 55.769531 252.125 L 60.457031 251.488281 L 61.648438 250.421875 L 61.707031 246.957031 L 62.976563 247.1875 L 63.652344 245.195313 L 65.703125 245.886719 L 62.644531 258.0625 L 66.6875 259 L 75.65625 259 L 76.226563 256.703125 L 81.230469 257.773438 L 80.96875 259 L 259 259 L 198.4375 259 L 198.4375 253 L 201.925781 250.203125 L 218.082031 238.292969 L 169.988281 191.699219 L 179.070313 182.324219 L 249.453125 250.449219 L 251.824219 248.171875 L 254.246094 219.1875 L 253.660156 215.511719 L 251.382813 212.199219 L 243.847656 201.40625 L 237.105469 206.539063 L 212.910156 171.152344 L 219.894531 166.585938 L 212.828125 156.542969 L 223.65625 149.398438 L 259 200.503906 L 259 259 L 259 -4 L 151.882813 -4 L 147.863281 7.21875 L 139.4375 30.933594 L 137.1875 37.1875 L 130.246094 56.457031 L 127.320313 62.792969 L 123.96875 69.097656 L 120.046875 75.261719 L 114.234375 82.550781 L 109.121094 88.023438 L 104.09375 92.996094 L 98.894531 97.699219 L 93.703125 101.898438 L 92.144531 102.96875 L 90.445313 103.894531 L 88.5 104.675781 L 86.519531 105.304688 L 84.367188 105.738281 L 75.070313 106.488281 L 36.707031 109.644531 L 36.800781 112 L 34.453125 112.171875 L 14.734375 114.121094 L 15.710938 126.125 "/>
<path style="fill:none;stroke-width:6;stroke-linecap:round;stroke-linejoin:round;stroke:rgb(60%,70.196078%,80%);stroke-opacity:1;stroke-miterlimit:10;" d="M 235.59375 -7 L 178.003906 130.488281 L 36.066406 200.699219 L -7 203.300781 "/>
<path style="fill:none;stroke-width:1;stroke-linecap:round;stroke-linejoin:round;stroke:rgb(100%,100%,100%);stroke-opacity:1;stroke-dasharray:2,3;stroke-miterlimit:10;" d="M 86.941406 77.476563 L 85.1875 75.863281 "/>
<path style="fill:none;stroke-width:1;stroke-linecap:round;stroke-linejoin:round;stroke:rgb(100%,100%,100%);stroke-opacity:1;stroke-dasharray:2,3;stroke-miterlimit:10;" d="M 53.769531 23.972656 L 51.273438 24.191406 "/>
<path style="fill:none;stroke-width:1;stroke-linecap:round;stroke-linejoin:round;stroke:rgb(100%,100%,100%);stroke-opacity:1;stroke-dasharray:2,3;stroke-miterlimit:10;" d="M 116.097656 73.109375 L 117.859375 76.109375 "/>
<path style="fill:none;stroke-width:1;stroke-linecap:round;stroke-linejoin:round;stroke:rgb(100%,100%,100%);stroke-opacity:1;stroke-dasharray:2,3;stroke-miterlimit:10;" d="M 127.890625 23.257813 L 126.414063 26.542969 "/>
<path style="fill:none;stroke-width:1;stroke-linecap:round;stroke-linejoin:round;stroke:rgb(100%,100%,100%);stroke-opacity:1;stroke-dasharray:2,3;stroke-miterlimit:10;" d="M 75.210938 24.644531 L 73.738281 25.734375 L 72.367188 26.558594 L 70.964844 27.265625 L 69.179688 27.957031 "/>
<path style="fill:none;stroke-width:1;stroke-linecap:round;stroke-linejoin:round;stroke:rgb(100%,100%,100%);stroke-opacity:1;stroke-dasharray:2,3;stroke-miterlimit:10;" d="M 69.574219 33.390625 L 71.339844 34.484375 L 73.324219 35.929688 L 74.402344 36.703125 L 75.554688 37.421875 "/>
<path style="fill:none;stroke-width:1;stroke-linecap:round;stroke-linejoin:round;stroke:rgb(100%,100%,100%);stroke-opacity:1;stroke-dasharray:2,3;stroke-miterlimit:10;" d="M 71.964844 17.894531 L 71.945313 16.527344 L 72.085938 15.289063 L 72.460938 14.054688 L 73.976563 10.5625 "/>
<path style="fill:none;stroke-width:1;stroke-linecap:round;stroke-linejoin:round;stroke:rgb(100%,100%,100%);stroke-opacity:1;stroke-dasharray:2,3;stroke-miterlimit:10;" d="M 76.484375 1.554688 L 78.367188 -2 "/>
<path style="fill:none;stroke-width:1;stroke-linecap:round;stroke-linejoin:round;stroke:rgb(100%,100%,100%);stroke-opacity:1;stroke-dasharray:2,3;stroke-miterlimit:10;" d="M 119.355469 23.765625 L 117.65625 28.09375 L 116.097656 32.066406 "/>
<path style="fill:none;stroke-width:1;stroke-linecap:round;stroke-linejoin:round;stroke:rgb(100%,100%,100%);stroke-opacity:1;stroke-dasharray:2,3;stroke-miterlimit:10;" d="M 130.863281 0.332031 L 124.359375 -2 "/>
<path style="fill:none;stroke-width:1;stroke-linecap:round;stroke-linejoin:round;stroke:rgb(100%,100%,100%);stroke-opacity:1;stroke-dasharray:2,3;stroke-miterlimit:10;" d="M 7.800781 45.464844 L 17.359375 44.421875 "/>
<path style="fill:none;stroke-width:1;stroke-linecap:round;stroke-linejoin:round;stroke:rgb(100%,100%,100%);stroke-opacity:1;stroke-dasharray:2,3;stroke-miterlimit:10;" d="M 129.363281 32.621094 L 117.65625 28.09375 "/>
<path style="fill:none;stroke-width:1;stroke-linecap:round;stroke-linejoin:round;stroke:rgb(100%,100%,100%);stroke-opacity:1;stroke-dasharray:2,3;stroke-miterlimit:10;" d="M 145.074219 6.746094 L 140.078125 5.011719 L 130.386719 1.648438 "/>
<path style="fill:none;stroke-width:1;stroke-linecap:round;stroke-linejoin:round;stroke:rgb(100%,100%,100%);stroke-opacity:1;stroke-dasharray:2,3;stroke-miterlimit:10;" d="M 145.996094 4.535156 L 140.875 2.675781 L 131.277344 -0.804688 "/>
<path style="fill:none;stroke-width:1;stroke-linecap:round;stroke-linejoin:round;stroke:rgb(100%,100%,100%);stroke-opacity:1;stroke-dasharray:2,3;stroke-miterlimit:10;" d="M 80.324219 6.585938 L 79.085938 5.90625 L 77.683594 4.746094 L 76.953125 3.710938 L 76.484375 1.554688 L 75.710938 -2 "/>
<path style="fill:none;stroke-width:1;stroke-linecap:round;stroke-linejoin:round;stroke:rgb(100%,100%,100%);stroke-opacity:1;stroke-dasharray:2,3;stroke-miterlimit:10;" d="M 67.859375 49.328125 L 68.226563 55.613281 L 69.453125 56.023438 L 71.261719 57.019531 L 72.253906 58.839844 L 72.078125 60.65625 L 71.144531 62.28125 L 75.332031 65.203125 "/>
<path style="fill:none;stroke-width:1;stroke-linecap:round;stroke-linejoin:round;stroke:rgb(100%,100%,100%);stroke-opacity:1;stroke-dasharray:2,3;stroke-miterlimit:10;" d="M 94.148438 38.015625 L 91.269531 36.667969 L 90.417969 35.84375 L 89.808594 34.871094 L 89.503906 33.648438 L 89.320313 32.492188 L 89.472656 30.84375 L 89.808594 29.109375 L 90.203125 27.675781 L 93.605469 18.34375 "/>
<path style="fill:none;stroke-width:1;stroke-linecap:round;stroke-linejoin:round;stroke:rgb(100%,100%,100%);stroke-opacity:1;stroke-dasharray:2,3;stroke-miterlimit:10;" d="M 100.171875 -2 L 100.476563 0.707031 L 100.992188 2.21875 L 101.8125 3.25 L 102.671875 3.855469 L 106.824219 5.730469 "/>
<path style="fill:none;stroke-width:1;stroke-linecap:round;stroke-linejoin:round;stroke:rgb(100%,100%,100%);stroke-opacity:1;stroke-dasharray:2,3;stroke-miterlimit:10;" d="M 86.390625 -2 L 87.136719 0.464844 L 87.007813 2.1875 L 86.273438 4.300781 L 85.152344 5.550781 L 83.773438 6.457031 L 82.09375 6.714844 L 80.324219 6.585938 L 78.03125 12.167969 "/>
<path style="fill:none;stroke-width:1;stroke-linecap:round;stroke-linejoin:round;stroke:rgb(100%,100%,100%);stroke-opacity:1;stroke-dasharray:2,3;stroke-miterlimit:10;" d="M 51.460938 7.695313 L 53.769531 23.972656 L 54.605469 43.09375 L 68.949219 41.738281 L 70.339844 39.886719 "/>
<path style="fill:none;stroke-width:1;stroke-linecap:round;stroke-linejoin:round;stroke:rgb(100%,100%,100%);stroke-opacity:1;stroke-dasharray:2,3;stroke-miterlimit:10;" d="M 75.46875 23.1875 L 75.210938 24.644531 L 74.515625 28.59375 L 74.359375 30.148438 L 74.359375 31.492188 L 74.484375 32.984375 L 75.460938 36.882813 L 75.550781 37.980469 L 75.25 39.039063 L 74.59375 39.925781 L 73.667969 40.527344 L 72.59375 40.761719 L 71.503906 40.605469 L 70.53125 40.074219 L 69.816406 39.242188 L 69.4375 38.207031 L 69.574219 33.390625 L 69.574219 30.972656 L 69.515625 29.628906 L 69.179688 27.957031 L 68.578125 26.117188 L 67.8125 24.160156 L 67.296875 22.753906 L 67.308594 21.257813 L 67.847656 19.859375 L 68.84375 18.734375 L 70.167969 18.039063 L 71.652344 17.851563 L 73.113281 18.195313 L 74.355469 19.03125 L 75.226563 20.25 L 75.613281 21.695313 L 75.46875 23.1875 "/>
<path style="fill:none;stroke-width:1;stroke-linecap:round;stroke-linejoin:round;stroke:rgb(100%,100%,100%);stroke-opacity:1;stroke-dasharray:2,3;stroke-miterlimit:10;" d="M 4.769531 14.902344 L 7.800781 45.464844 L 10.808594 75.84375 "/>
<path style="fill:none;stroke-width:1;stroke-linecap:round;stroke-linejoin:round;stroke:rgb(100%,100%,100%);stroke-opacity:1;stroke-dasharray:2,3;stroke-miterlimit:10;" d="M 112.769531 21.171875 L 119.355469 23.765625 L 126.414063 26.542969 L 132.773438 29.046875 L 138.390625 31.117188 L 135.386719 39.359375 L 129.023438 36.808594 L 116.097656 32.066406 L 109.226563 29.542969 "/>
<path style="fill:none;stroke-width:1;stroke-linecap:round;stroke-linejoin:round;stroke:rgb(100%,100%,100%);stroke-opacity:1;stroke-dasharray:2,3;stroke-miterlimit:10;" d="M 134.949219 20.0625 L 140.078125 5.011719 L 140.875 2.675781 L 142.46875 -2 M 131.707031 -2 L 131.277344 -0.804688 L 130.863281 0.332031 L 130.386719 1.648438 L 125.183594 16 L 124.722656 17.367188 L 124.644531 18.808594 L 124.960938 20.21875 L 125.644531 21.488281 L 126.648438 22.53125 L 127.890625 23.257813 L 129.289063 23.628906 L 130.730469 23.605469 L 132.113281 23.195313 L 133.335938 22.425781 L 134.304688 21.355469 L 134.949219 20.0625 "/>
<path style="fill:none;stroke-width:1;stroke-linecap:round;stroke-linejoin:round;stroke:rgb(100%,100%,100%);stroke-opacity:1;stroke-dasharray:2,3;stroke-miterlimit:10;" d="M 150.140625 -2 L 147.945313 1.40625 L 146.816406 3.105469 L 145.996094 4.535156 L 145.164063 6.40625 L 144.503906 8.859375 L 144.457031 10.226563 L 144.597656 12.207031 L 144.316406 14.613281 L 141.25 23.148438 L 139.316406 25.976563 L 136.722656 27.582031 L 134.082031 28.332031 L 132.773438 29.046875 L 131.820313 29.558594 L 129.964844 31.535156 L 129.363281 32.621094 L 128.972656 33.894531 L 128.816406 35.765625 L 129.023438 36.808594 L 129.234375 37.855469 L 131.1875 41.347656 L 132.097656 43.722656 L 132.515625 45.957031 L 132.097656 48.75 L 129.234375 56.21875 L 126.582031 62.15625 L 122.882813 69.136719 L 118.761719 74.859375 L 117.859375 76.109375 L 114.921875 80.167969 L 110.871094 84.914063 L 107.3125 87.914063 L 104.171875 90.152344 L 101.585938 92.382813 L 99.144531 95.386719 L 96.140625 98.945313 L 92.929688 101.460938 L 89.371094 103.066406 L 85.179688 103.273438 L 82.179688 103.414063 L 79.453125 104.113281 L 75.964844 105.300781 L 71.21875 105.71875 L 61.304688 106.488281 L 49.433594 107.605469 L 35.960938 108.792969 L 35.238281 99.242188 "/>
<path style="fill:none;stroke-width:8;stroke-linecap:round;stroke-linejoin:round;stroke:rgb(75.686275%,70.980392%,61.568627%);stroke-opacity:1;stroke-miterlimit:10;" d="M 20.464844 74.898438 L 18.019531 50.859375 L 17.359375 44.421875 L 14.878906 20.066406 L 14.421875 13.410156 "/>
<path style="fill:none;stroke-width:10;stroke-linecap:round;stroke-linejoin:round;stroke:rgb(72.941176%,43.137255%,15.294118%);stroke-opacity:1;stroke-miterlimit:10;" d="M 111.859375 -0.347656 L 104.605469 18.140625 L 103.351563 19.765625 L 100.804688 21.199219 "/>
<path style="fill:none;stroke-width:10;stroke-linecap:round;stroke-linejoin:round;stroke:rgb(72.941176%,43.137255%,15.294118%);stroke-opacity:1;stroke-miterlimit:10;" d="M 100.804688 21.199219 L 100.980469 26.390625 L 96.265625 45.835938 "/>
<path style="fill:none;stroke-width:10;stroke-linecap:round;stroke-linejoin:round;stroke:rgb(72.941176%,43.137255%,15.294118%);stroke-opacity:1;stroke-miterlimit:10;" d="M 31.71875 92.367188 L -10.125 94.160156 "/>
<path style="fill:none;stroke-width:10;stroke-linecap:round;stroke-linejoin:round;stroke:rgb(72.941176%,43.137255%,15.294118%);stroke-opacity:1;stroke-miterlimit:10;" d="M -11 102.054688 L -6.707031 101.554688 L 6.414063 98.476563 "/>
<path style="fill:none;stroke-width:8;stroke-linecap:round;stroke-linejoin:round;stroke:rgb(75.686275%,70.980392%,61.568627%);stroke-opacity:1;stroke-miterlimit:10;" d="M 30.109375 73.949219 L 31.601563 90.367188 "/>
<path style="fill:none;stroke-width:8;stroke-linecap:round;stroke-linejoin:round;stroke:rgb(75.686275%,70.980392%,61.568627%);stroke-opacity:1;stroke-miterlimit:10;" d="M 27.84375 53.132813 L 30.109375 73.949219 "/>
<path style="fill:none;stroke-width:8;stroke-linecap:round;stroke-linejoin:round;stroke:rgb(75.686275%,70.980392%,61.568627%);stroke-opacity:1;stroke-miterlimit:10;" d="M 24.679688 11.820313 L 23.121094 -9 "/>
<path style="fill:none;stroke-width:8;stroke-linecap:round;stroke-linejoin:round;stroke:rgb(75.686275%,70.980392%,61.568627%);stroke-opacity:1;stroke-miterlimit:10;" d="M 90.613281 46.933594 L 67.859375 49.328125 "/>
<path style="fill:none;stroke-width:8;stroke-linecap:round;stroke-linejoin:round;stroke:rgb(75.686275%,70.980392%,61.568627%);stroke-opacity:1;stroke-miterlimit:10;" d="M 100.804688 21.199219 L 94.148438 38.015625 L 90.613281 46.933594 "/>
<path style="fill:none;stroke-width:8;stroke-linecap:round;stroke-linejoin:round;stroke:rgb(75.686275%,70.980392%,61.568627%);stroke-opacity:1;stroke-miterlimit:10;" d="M 24.679688 11.820313 L 51.460938 7.695313 L 55.011719 6.957031 L 56.199219 6.441406 L 56.984375 5.789063 L 58.183594 4.042969 "/>
<path style="fill:none;stroke-width:8;stroke-linecap:round;stroke-linejoin:round;stroke:rgb(75.686275%,70.980392%,61.568627%);stroke-opacity:1;stroke-miterlimit:10;" d="M 67.859375 49.328125 L 64.925781 49.707031 L 44.539063 51.460938 L 27.84375 53.132813 "/>
<path style="fill:none;stroke-width:8;stroke-linecap:round;stroke-linejoin:round;stroke:rgb(75.686275%,70.980392%,61.568627%);stroke-opacity:1;stroke-miterlimit:10;" d="M 24.679688 11.820313 L 27.84375 53.132813 "/>
<path style="fill:none;stroke-width:8;stroke-linecap:round;stroke-linejoin:round;stroke:rgb(75.686275%,70.980392%,61.568627%);stroke-opacity:1;stroke-miterlimit:10;" d="M 31.601563 90.367188 L -9 94.058594 "/>
<path style="fill:none;stroke-width:8;stroke-linecap:round;stroke-linejoin:round;stroke:rgb(75.686275%,70.980392%,61.568627%);stroke-opacity:1;stroke-miterlimit:10;" d="M 112.667969 -9 L 111.582031 -6.496094 L 106.824219 5.730469 L 100.804688 21.199219 "/>
<path style="fill:none;stroke-width:8;stroke-linecap:round;stroke-linejoin:round;stroke:rgb(75.686275%,70.980392%,61.568627%);stroke-opacity:1;stroke-miterlimit:10;" d="M 220.226563 264 L 222.800781 260.277344 L 223.546875 256.046875 L 228.195313 249.554688 L 231.984375 246.535156 "/>
<path style="fill:none;stroke-width:8;stroke-linecap:round;stroke-linejoin:round;stroke:rgb(75.686275%,70.980392%,61.568627%);stroke-opacity:1;stroke-miterlimit:10;" d="M -9 17.035156 L -5.710938 16.527344 L -3.117188 16.121094 L 4.769531 14.902344 L 14.421875 13.410156 L 24.679688 11.820313 "/>
<path style="fill:none;stroke-width:8;stroke-linecap:round;stroke-linejoin:round;stroke:rgb(75.686275%,70.980392%,61.568627%);stroke-opacity:1;stroke-miterlimit:10;" d="M 258.890625 264 L 257.117188 256.320313 L 255.511719 250.644531 L 258.226563 212.453125 "/>
<path style="fill:none;stroke-width:8;stroke-linecap:round;stroke-linejoin:round;stroke:rgb(75.686275%,70.980392%,61.568627%);stroke-opacity:1;stroke-miterlimit:10;" d="M -9 77.71875 L -0.578125 76.964844 L 10.808594 75.84375 L 20.464844 74.898438 L 30.109375 73.949219 "/>
<path style="fill:none;stroke-width:8;stroke-linecap:round;stroke-linejoin:round;stroke:rgb(75.686275%,70.980392%,61.568627%);stroke-opacity:1;stroke-miterlimit:10;" d="M 249.429688 264 L 231.984375 246.535156 L 205.5 217.230469 "/>
<path style="fill:none;stroke-width:10;stroke-linecap:round;stroke-linejoin:round;stroke:rgb(75.686275%,70.980392%,61.568627%);stroke-opacity:1;stroke-miterlimit:10;" d="M 86.03125 15.34375 L 93.605469 18.34375 L 100.804688 21.199219 "/>
<path style="fill:none;stroke-width:10;stroke-linecap:round;stroke-linejoin:round;stroke:rgb(75.686275%,70.980392%,61.568627%);stroke-opacity:1;stroke-miterlimit:10;" d="M 58.183594 4.042969 L 73.976563 10.5625 L 78.03125 12.167969 L 86.03125 15.34375 "/>
<path style="fill:none;stroke-width:10;stroke-linecap:round;stroke-linejoin:round;stroke:rgb(75.686275%,70.980392%,61.568627%);stroke-opacity:1;stroke-miterlimit:10;" d="M 23.046875 -9.988281 L 45.441406 -1.027344 L 58.183594 4.042969 "/>
<path style="fill:none;stroke-width:11;stroke-linecap:round;stroke-linejoin:round;stroke:rgb(72.941176%,43.137255%,15.294118%);stroke-opacity:1;stroke-miterlimit:10;" d="M -12 100.21875 L 6.414063 98.476563 L 32.238281 95.894531 L 41.140625 94.367188 L 50.058594 91.667969 L 55.441406 89.816406 L 60.476563 87.867188 L 65.097656 85.105469 L 74.625 78.695313 L 79.027344 74.933594 L 86.042969 67.339844 L 93.3125 56.949219 L 97.664063 49.839844 L 122.402344 -12 "/>
<path style="fill:none;stroke-width:11;stroke-linecap:round;stroke-linejoin:round;stroke:rgb(72.941176%,43.137255%,15.294118%);stroke-opacity:1;stroke-miterlimit:10;" d="M 118.882813 -12 L 105.210938 23.496094 L 96.265625 45.835938 L 94.917969 48.953125 L 90.671875 55.820313 L 83.679688 65.367188 L 76.96875 72.230469 L 72.84375 75.855469 L 63.5 82.25 L 58.839844 84.710938 L 54.25 86.707031 L 48.867188 88.582031 L 40.253906 90.976563 L 31.71875 92.367188 L -12 96.855469 "/>
<path style="fill:none;stroke-width:6;stroke-linecap:round;stroke-linejoin:round;stroke:rgb(100%,100%,100%);stroke-opacity:1;stroke-miterlimit:10;" d="M 20.464844 74.898438 L 18.019531 50.859375 L 17.359375 44.421875 L 14.878906 20.066406 L 14.421875 13.410156 "/>
<path style="fill:none;stroke-width:8;stroke-linecap:round;stroke-linejoin:round;stroke:rgb(99.215686%,57.254902%,22.745098%);stroke-opacity:1;stroke-miterlimit:10;" d="M 111.859375 -0.347656 L 104.605469 18.140625 L 103.351563 19.765625 L 100.804688 21.199219 "/>
<path style="fill:none;stroke-width:8;stroke-linecap:round;stroke-linejoin:round;stroke:rgb(99.215686%,57.254902%,22.745098%);stroke-opacity:1;stroke-miterlimit:10;" d="M 100.804688 21.199219 L 100.980469 26.390625 L 96.265625 45.835938 "/>
<path style="fill:none;stroke-width:8;stroke-linecap:round;stroke-linejoin:round;stroke:rgb(99.215686%,57.254902%,22.745098%);stroke-opacity:1;stroke-miterlimit:10;" d="M 31.71875 92.367188 L -10.125 94.160156 "/>
<path style="fill:none;stroke-width:8;stroke-linecap:round;stroke-linejoin:round;stroke:rgb(99.215686%,57.254902%,22.745098%);stroke-opacity:1;stroke-miterlimit:10;" d="M -11 102.054688 L -6.707031 101.554688 L 6.414063 98.476563 "/>
<path style="fill:none;stroke-width:6;stroke-linecap:round;stroke-linejoin:round;stroke:rgb(100%,100%,100%);stroke-opacity:1;stroke-miterlimit:10;" d="M 30.109375 73.949219 L 31.601563 90.367188 "/>
<path style="fill:none;stroke-width:6;stroke-linecap:round;stroke-linejoin:round;stroke:rgb(100%,100%,100%);stroke-opacity:1;stroke-miterlimit:10;" d="M 27.84375 53.132813 L 30.109375 73.949219 "/>
<path style="fill:none;stroke-width:6;stroke-linecap:round;stroke-linejoin:round;stroke:rgb(100%,100%,100%);stroke-opacity:1;stroke-miterlimit:10;" d="M 24.679688 11.820313 L 23.121094 -9 "/>
<path style="fill:none;stroke-width:6;stroke-linecap:round;stroke-linejoin:round;stroke:rgb(100%,100%,100%);stroke-opacity:1;stroke-miterlimit:10;" d="M 90.613281 46.933594 L 67.859375 49.328125 "/>
<path style="fill:none;stroke-width:6;stroke-linecap:round;stroke-linejoin:round;stroke:rgb(100%,100%,100%);stroke-opacity:1;stroke-miterlimit:10;" d="M 100.804688 21.199219 L 94.148438 38.015625 L 90.613281 46.933594 "/>
<path style="fill:none;stroke-width:6;stroke-linecap:round;stroke-linejoin:round;stroke:rgb(100%,100%,100%);stroke-opacity:1;stroke-miterlimit:10;" d="M 24.679688 11.820313 L 51.460938 7.695313 L 55.011719 6.957031 L 56.199219 6.441406 L 56.984375 5.789063 L 58.183594 4.042969 "/>
<path style="fill:none;stroke-width:6;stroke-linecap:round;stroke-linejoin:round;stroke:rgb(100%,100%,100%);stroke-opacity:1;stroke-miterlimit:10;" d="M 67.859375 49.328125 L 64.925781 49.707031 L 44.539063 51.460938 L 27.84375 53.132813 "/>
<path style="fill:none;stroke-width:6;stroke-linecap:round;stroke-linejoin:round;stroke:rgb(100%,100%,100%);stroke-opacity:1;stroke-miterlimit:10;" d="M 24.679688 11.820313 L 27.84375 53.132813 "/>
<path style="fill:none;stroke-width:6;stroke-linecap:round;stroke-linejoin:round;stroke:rgb(100%,100%,100%);stroke-opacity:1;stroke-miterlimit:10;" d="M 31.601563 90.367188 L -9 94.058594 "/>
<path style="fill:none;stroke-width:6;stroke-linecap:round;stroke-linejoin:round;stroke:rgb(100%,100%,100%);stroke-opacity:1;stroke-miterlimit:10;" d="M 112.667969 -9 L 111.582031 -6.496094 L 106.824219 5.730469 L 100.804688 21.199219 "/>
<path style="fill:none;stroke-width:6;stroke-linecap:round;stroke-linejoin:round;stroke:rgb(100%,100%,100%);stroke-opacity:1;stroke-miterlimit:10;" d="M 220.226563 264 L 222.800781 260.277344 L 223.546875 256.046875 L 228.195313 249.554688 L 231.984375 246.535156 "/>
<path style="fill:none;stroke-width:6;stroke-linecap:round;stroke-linejoin:round;stroke:rgb(100%,100%,100%);stroke-opacity:1;stroke-miterlimit:10;" d="M -9 17.035156 L -5.710938 16.527344 L -3.117188 16.121094 L 4.769531 14.902344 L 14.421875 13.410156 L 24.679688 11.820313 "/>
<path style="fill:none;stroke-width:6;stroke-linecap:round;stroke-linejoin:round;stroke:rgb(100%,100%,100%);stroke-opacity:1;stroke-miterlimit:10;" d="M 258.890625 264 L 257.117188 256.320313 L 255.511719 250.644531 L 258.226563 212.453125 "/>
<path style="fill:none;stroke-width:6;stroke-linecap:round;stroke-linejoin:round;stroke:rgb(100%,100%,100%);stroke-opacity:1;stroke-miterlimit:10;" d="M -9 77.71875 L -0.578125 76.964844 L 10.808594 75.84375 L 20.464844 74.898438 L 30.109375 73.949219 "/>
<path style="fill:none;stroke-width:6;stroke-linecap:round;stroke-linejoin:round;stroke:rgb(100%,100%,100%);stroke-opacity:1;stroke-miterlimit:10;" d="M 249.429688 264 L 231.984375 246.535156 L 205.5 217.230469 "/>
<path style="fill:none;stroke-width:8;stroke-linecap:round;stroke-linejoin:round;stroke:rgb(100%,99.215686%,54.509804%);stroke-opacity:1;stroke-miterlimit:10;" d="M 86.03125 15.34375 L 93.605469 18.34375 L 100.804688 21.199219 "/>
<path style="fill:none;stroke-width:8;stroke-linecap:round;stroke-linejoin:round;stroke:rgb(100%,99.215686%,54.509804%);stroke-opacity:1;stroke-miterlimit:10;" d="M 58.183594 4.042969 L 73.976563 10.5625 L 78.03125 12.167969 L 86.03125 15.34375 "/>
<path style="fill:none;stroke-width:8;stroke-linecap:round;stroke-linejoin:round;stroke:rgb(100%,99.215686%,54.509804%);stroke-opacity:1;stroke-miterlimit:10;" d="M 23.046875 -9.988281 L 45.441406 -1.027344 L 58.183594 4.042969 "/>
<path style="fill:none;stroke-width:9;stroke-linecap:round;stroke-linejoin:round;stroke:rgb(99.215686%,57.254902%,22.745098%);stroke-opacity:1;stroke-miterlimit:10;" d="M -12 100.21875 L 6.414063 98.476563 L 32.238281 95.894531 L 41.140625 94.367188 L 50.058594 91.667969 L 55.441406 89.816406 L 60.476563 87.867188 L 65.097656 85.105469 L 74.625 78.695313 L 79.027344 74.933594 L 86.042969 67.339844 L 93.3125 56.949219 L 97.664063 49.839844 L 122.402344 -12 "/>
<path style="fill:none;stroke-width:9;stroke-linecap:round;stroke-linejoin:round;stroke:rgb(99.215686%,57.254902%,22.745098%);stroke-opacity:1;stroke-miterlimit:10;" d="M 118.882813 -12 L 105.210938 23.496094 L 96.265625 45.835938 L 94.917969 48.953125 L 90.671875 55.820313 L 83.679688 65.367188 L 76.96875 72.230469 L 72.84375 75.855469 L 63.5 82.25 L 58.839844 84.710938 L 54.25 86.707031 L 48.867188 88.582031 L 40.253906 90.976563 L 31.71875 92.367188 L -12 96.855469 "/>
<path style="fill:none;stroke-width:5;stroke-linecap:butt;stroke-linejoin:round;stroke:rgb(53.333333%,53.333333%,53.333333%);stroke-opacity:1;stroke-miterlimit:10;" d="M 85.1875 75.863281 L 75.332031 65.203125 "/>
<path style="fill:none;stroke-width:11;stroke-linecap:butt;stroke-linejoin:round;stroke:rgb(53.333333%,53.333333%,53.333333%);stroke-opacity:1;stroke-miterlimit:10;" d="M 265 21.835938 L 185.402344 -10 "/>
<path style="fill:none;stroke-width:11;stroke-linecap:butt;stroke-linejoin:round;stroke:rgb(53.333333%,53.333333%,53.333333%);stroke-opacity:1;stroke-miterlimit:10;" d="M 265 23.964844 L 180.539063 -10 "/>
<path style="fill:none;stroke-width:11;stroke-linecap:butt;stroke-linejoin:round;stroke:rgb(53.333333%,53.333333%,53.333333%);stroke-opacity:1;stroke-miterlimit:10;" d="M 164.992188 -10 L 265 30.183594 "/>
<path style="fill:none;stroke-width:11;stroke-linecap:butt;stroke-linejoin:round;stroke:rgb(53.333333%,53.333333%,53.333333%);stroke-opacity:1;stroke-miterlimit:10;" d="M 170.527344 -10 L 265 27.964844 "/>
<path style="fill:none;stroke-width:5;stroke-linecap:butt;stroke-linejoin:round;stroke:rgb(53.333333%,53.333333%,53.333333%);stroke-opacity:1;stroke-miterlimit:10;" d="M 226.40625 12.273438 L 227.773438 8.875 "/>
<path style="fill:none;stroke-width:5;stroke-linecap:butt;stroke-linejoin:round;stroke:rgb(53.333333%,53.333333%,53.333333%);stroke-opacity:1;stroke-miterlimit:10;" d="M 185.546875 -4 L 226.40625 12.273438 L 259 25.253906 "/>
<path style="fill:none;stroke-width:3;stroke-linecap:round;stroke-linejoin:round;stroke:rgb(98.039216%,98.039216%,96.078431%);stroke-opacity:1;stroke-miterlimit:10;" d="M 85.1875 75.863281 L 75.332031 65.203125 "/>
<path style="fill:none;stroke-width:9;stroke-linecap:round;stroke-linejoin:round;stroke:rgb(99.215686%,57.254902%,22.745098%);stroke-opacity:1;stroke-miterlimit:10;" d="M 265 21.835938 L 185.402344 -10 "/>
<path style="fill:none;stroke-width:9;stroke-linecap:round;stroke-linejoin:round;stroke:rgb(99.215686%,57.254902%,22.745098%);stroke-opacity:1;stroke-miterlimit:10;" d="M 265 23.964844 L 180.539063 -10 "/>
<path style="fill:none;stroke-width:9;stroke-linecap:round;stroke-linejoin:round;stroke:rgb(99.215686%,57.254902%,22.745098%);stroke-opacity:1;stroke-miterlimit:10;" d="M 164.992188 -10 L 265 30.183594 "/>
<path style="fill:none;stroke-width:9;stroke-linecap:round;stroke-linejoin:round;stroke:rgb(99.215686%,57.254902%,22.745098%);stroke-opacity:1;stroke-miterlimit:10;" d="M 170.527344 -10 L 265 27.964844 "/>
<path style="fill:none;stroke-width:3;stroke-linecap:round;stroke-linejoin:round;stroke:rgb(98.039216%,98.039216%,96.078431%);stroke-opacity:1;stroke-miterlimit:10;" d="M 226.40625 12.273438 L 227.773438 8.875 "/>
<path style="fill:none;stroke-width:3;stroke-linecap:round;stroke-linejoin:round;stroke:rgb(98.039216%,98.039216%,96.078431%);stroke-opacity:1;stroke-miterlimit:10;" d="M 185.546875 -4 L 226.40625 12.273438 L 259 25.253906 "/>
</g>
</svg>

