<?xml version="1.0" encoding="UTF-8"?>
<svg xmlns="http://www.w3.org/2000/svg" xmlns:xlink="http://www.w3.org/1999/xlink" width="256pt" height="256pt" viewBox="0 0 256 256" version="1.1">
<g id="surface2">
<rect x="0" y="0" width="256" height="256" style="fill:rgb(94.901961%,93.72549%,91.372549%);fill-opacity:1;stroke:none;"/>
<path style=" stroke:none;fill-rule:evenodd;fill:rgb(60%,70.196078%,80%);fill-opacity:1;" d="M -4 -4 L 259 -4 L 259 259 L 259 -4 Z M -8231945.476563 5377514.535156 Z M -8231945.476563 5377514.535156 "/>
<path style="fill:none;stroke-width:1;stroke-linecap:round;stroke-linejoin:round;stroke:rgb(70.196078%,77.647059%,83.137255%);stroke-opacity:1;stroke-miterlimit:10;" d="M -4 -4 L 259 -4 L 259 259 L 259 -4 L -4 -4 "/>
<path style="fill:none;stroke-width:2;stroke-linecap:round;stroke-linejoin:round;stroke:rgb(60%,70.196078%,80%);stroke-opacity:1;stroke-miterlimit:10;" d="M 160.617188 258 L 161.359375 256.265625 L 163.320313 250.382813 L 162.757813 244.777344 L 162.757813 237.078125 L 168.644531 226.988281 L 174.945313 222.226563 L 180.691406 220.828125 L 186.011719 220.96875 L 192.457031 221.105469 L 203.382813 221.105469 L 209.964844 218.164063 L 215.988281 212.839844 L 222.851563 207.238281 L 226.847656 204.859375 L 234.90625 207.214844 L 242.09375 212.722656 L 250.238281 217.273438 L 258 217.273438 "/>
<path style="fill:none;stroke-width:8;stroke-linecap:round;stroke-linejoin:round;stroke:rgb(75.686275%,70.980392%,61.568627%);stroke-opacity:1;stroke-miterlimit:10;" d="M 187.367188 264 L 190.109375 260.921875 L 197.980469 256.53125 L 208.089844 251.070313 L 217.726563 246.582031 L 229.117188 242.09375 L 241.011719 236.609375 L 264 225.949219 "/>
<path style="fill:none;stroke-width:6;stroke-linecap:round;stroke-linejoin:round;stroke:rgb(100%,100%,100%);stroke-opacity:1;stroke-miterlimit:10;" d="M 187.367188 264 L 190.109375 260.921875 L 197.980469 256.53125 L 208.089844 251.070313 L 217.726563 246.582031 L 229.117188 242.09375 L 241.011719 236.609375 L 264 225.949219 "/>
</g>
</svg>

