<?xml version="1.0" encoding="UTF-8"?>
<svg xmlns="http://www.w3.org/2000/svg" xmlns:xlink="http://www.w3.org/1999/xlink" width="256pt" height="256pt" viewBox="0 0 256 256" version="1.1">
<g id="surface2">
<rect x="0" y="0" width="256" height="256" style="fill:rgb(94.901961%,93.72549%,91.372549%);fill-opacity:1;stroke:none;"/>
<path style="fill:none;stroke-width:8;stroke-linecap:round;stroke-linejoin:round;stroke:rgb(75.686275%,70.980392%,61.568627%);stroke-opacity:1;stroke-miterlimit:10;" d="M -2.203125 125.910156 L 10.402344 129.113281 L 21.355469 132.035156 L 32.867188 134.515625 L 38.785156 134.890625 L 41.90625 135.769531 "/>
<path style="fill:none;stroke-width:8;stroke-linecap:round;stroke-linejoin:round;stroke:rgb(75.686275%,70.980392%,61.568627%);stroke-opacity:1;stroke-miterlimit:10;" d="M 124.976563 74.253906 L 153.894531 81.789063 L 173.398438 87.410156 "/>
<path style="fill:none;stroke-width:8;stroke-linecap:round;stroke-linejoin:round;stroke:rgb(75.686275%,70.980392%,61.568627%);stroke-opacity:1;stroke-miterlimit:10;" d="M 179.804688 118.625 L 178.570313 120.445313 L 177.941406 122.140625 L 175.378906 139.601563 L 175.378906 142.144531 L 178.175781 153.859375 L 179.503906 158.914063 L 180.855469 162.054688 L 182.300781 164.472656 L 183.652344 166.167969 L 185.609375 167.863281 L 189.734375 169.839844 "/>
<path style="fill:none;stroke-width:8;stroke-linecap:round;stroke-linejoin:round;stroke:rgb(75.686275%,70.980392%,61.568627%);stroke-opacity:1;stroke-miterlimit:10;" d="M 96.96875 144.941406 L 99.929688 141.675781 L 101.1875 139.257813 L 107.269531 121.890625 L 121.226563 83.894531 L 124.976563 74.253906 L 135.625 41.40625 "/>
<path style="fill:none;stroke-width:8;stroke-linecap:round;stroke-linejoin:round;stroke:rgb(75.686275%,70.980392%,61.568627%);stroke-opacity:1;stroke-miterlimit:10;" d="M -9 143.949219 L -2.203125 125.910156 L -1.785156 124.78125 L 1.898438 113.445313 L 4.855469 102.453125 L 7.933594 88.480469 L 8.75 86.8125 L 15.203125 78.839844 L 18.886719 74.851563 L 21.542969 71.144531 L 27.367188 58.960938 L 30.511719 48.691406 L 33.308594 37.636719 L 36.476563 24.101563 L 37.011719 18.667969 L 36.546875 14.210938 L 33.867188 0.328125 L 33.003906 -5.792969 L 32.875 -9 "/>
<path style="fill:none;stroke-width:8;stroke-linecap:round;stroke-linejoin:round;stroke:rgb(75.686275%,70.980392%,61.568627%);stroke-opacity:1;stroke-miterlimit:10;" d="M 221.375 264 L 217.414063 260.210938 L 209.167969 252.738281 L 205.671875 248.375 L 204.414063 246.332031 L 202.035156 239.015625 L 198.167969 212.703125 L 189.734375 169.839844 L 179.804688 118.625 L 173.398438 87.410156 L 164.496094 41.375 L 163.050781 30.257813 L 161.609375 11.289063 L 161.539063 3.4375 L 161.839844 -2.652344 L 162.5625 -7.835938 L 162.878906 -9 "/>
<path style="fill:none;stroke-width:6;stroke-linecap:round;stroke-linejoin:round;stroke:rgb(100%,100%,100%);stroke-opacity:1;stroke-miterlimit:10;" d="M -2.203125 125.910156 L 10.402344 129.113281 L 21.355469 132.035156 L 32.867188 134.515625 L 38.785156 134.890625 L 41.90625 135.769531 "/>
<path style="fill:none;stroke-width:6;stroke-linecap:round;stroke-linejoin:round;stroke:rgb(100%,100%,100%);stroke-opacity:1;stroke-miterlimit:10;" d="M 124.976563 74.253906 L 153.894531 81.789063 L 173.398438 87.410156 "/>
<path style="fill:none;stroke-width:6;stroke-linecap:round;stroke-linejoin:round;stroke:rgb(100%,100%,100%);stroke-opacity:1;stroke-miterlimit:10;" d="M 179.804688 118.625 L 178.570313 120.445313 L 177.941406 122.140625 L 175.378906 139.601563 L 175.378906 142.144531 L 178.175781 153.859375 L 179.503906 158.914063 L 180.855469 162.054688 L 182.300781 164.472656 L 183.652344 166.167969 L 185.609375 167.863281 L 189.734375 169.839844 "/>
<path style="fill:none;stroke-width:6;stroke-linecap:round;stroke-linejoin:round;stroke:rgb(100%,100%,100%);stroke-opacity:1;stroke-miterlimit:10;" d="M 96.96875 144.941406 L 99.929688 141.675781 L 101.1875 139.257813 L 107.269531 121.890625 L 121.226563 83.894531 L 124.976563 74.253906 L 135.625 41.40625 "/>
<path style="fill:none;stroke-width:6;stroke-linecap:round;stroke-linejoin:round;stroke:rgb(100%,100%,100%);stroke-opacity:1;stroke-miterlimit:10;" d="M -9 143.949219 L -2.203125 125.910156 L -1.785156 124.78125 L 1.898438 113.445313 L 4.855469 102.453125 L 7.933594 88.480469 L 8.75 86.8125 L 15.203125 78.839844 L 18.886719 74.851563 L 21.542969 71.144531 L 27.367188 58.960938 L 30.511719 48.691406 L 33.308594 37.636719 L 36.476563 24.101563 L 37.011719 18.667969 L 36.546875 14.210938 L 33.867188 0.328125 L 33.003906 -5.792969 L 32.875 -9 "/>
<path style="fill:none;stroke-width:6;stroke-linecap:round;stroke-linejoin:round;stroke:rgb(100%,99.215686%,54.509804%);stroke-opacity:1;stroke-miterlimit:10;" d="M 221.375 264 L 217.414063 260.210938 L 209.167969 252.738281 L 205.671875 248.375 L 204.414063 246.332031 L 202.035156 239.015625 L 198.167969 212.703125 L 189.734375 169.839844 L 179.804688 118.625 L 173.398438 87.410156 L 164.496094 41.375 L 163.050781 30.257813 L 161.609375 11.289063 L 161.539063 3.4375 L 161.839844 -2.652344 L 162.5625 -7.835938 L 162.878906 -9 "/>
<path style="fill:none;stroke-width:3;stroke-linecap:round;stroke-linejoin:round;stroke:rgb(100%,100%,100%);stroke-opacity:1;stroke-miterlimit:10;" d="M 172.601563 84.214844 L 169.726563 84.777344 L 170.023438 86.308594 C 170.125 86.816406 170.320313 87.171875 170.601563 87.371094 C 170.882813 87.578125 171.265625 87.636719 171.757813 87.542969 C 172.246094 87.449219 172.585938 87.25 172.773438 86.949219 C 172.960938 86.65625 173 86.253906 172.898438 85.746094 Z M 175.835938 83.574219 L 173.460938 84.042969 L 173.742188 85.449219 C 173.835938 85.917969 174 86.246094 174.242188 86.433594 C 174.492188 86.628906 174.8125 86.6875 175.210938 86.605469 C 175.605469 86.53125 175.875 86.359375 176.023438 86.089844 C 176.179688 85.816406 176.210938 85.449219 176.117188 84.980469 Z M 176.523438 82.433594 L 177.007813 84.886719 C 177.140625 85.613281 177.078125 86.207031 176.820313 86.667969 C 176.570313 87.136719 176.132813 87.433594 175.507813 87.558594 C 175.027344 87.652344 174.625 87.621094 174.304688 87.464844 C 173.992188 87.316406 173.757813 87.0625 173.601563 86.699219 C 173.578125 87.1875 173.414063 87.59375 173.101563 87.917969 C 172.796875 88.25 172.382813 88.46875 171.851563 88.574219 C 171.152344 88.71875 170.570313 88.609375 170.101563 88.246094 C 169.632813 87.890625 169.320313 87.316406 169.164063 86.527344 L 168.664063 83.980469 Z M 178.167969 88.964844 L 178.355469 89.839844 L 170.167969 91.527344 L 169.980469 90.652344 Z M 172.84375 92.769531 L 176.40625 92.050781 L 176.578125 92.925781 L 173.046875 93.644531 C 172.492188 93.757813 172.097656 93.941406 171.859375 94.191406 C 171.617188 94.441406 171.539063 94.757813 171.625 95.144531 C 171.71875 95.621094 171.957031 95.960938 172.34375 96.160156 C 172.738281 96.367188 173.226563 96.410156 173.8125 96.285156 L 177.140625 95.613281 L 177.3125 96.488281 L 171.421875 97.691406 L 171.25 96.816406 L 172.15625 96.628906 C 171.75 96.492188 171.429688 96.304688 171.203125 96.066406 C 170.972656 95.824219 170.816406 95.511719 170.734375 95.128906 C 170.609375 94.535156 170.726563 94.035156 171.09375 93.628906 C 171.457031 93.222656 172.039063 92.933594 172.84375 92.769531 Z M 177 94.207031 Z M 175.917969 103.375 L 175.433594 103.46875 L 174.605469 99.453125 C 173.957031 99.628906 173.496094 99.914063 173.214844 100.3125 C 172.933594 100.71875 172.847656 101.207031 172.964844 101.78125 C 173.027344 102.113281 173.136719 102.425781 173.292969 102.71875 C 173.457031 103.019531 173.65625 103.304688 173.886719 103.578125 L 172.996094 103.765625 C 172.777344 103.484375 172.59375 103.1875 172.449219 102.875 C 172.300781 102.5625 172.191406 102.238281 172.121094 101.90625 C 171.953125 101.050781 172.089844 100.316406 172.527344 99.703125 C 172.972656 99.097656 173.667969 98.703125 174.605469 98.515625 C 175.5625 98.320313 176.375 98.398438 177.042969 98.75 C 177.707031 99.101563 178.121094 99.679688 178.277344 100.484375 C 178.421875 101.191406 178.28125 101.804688 177.855469 102.328125 C 177.4375 102.847656 176.792969 103.195313 175.917969 103.375 Z M 176.011719 102.4375 C 176.542969 102.320313 176.9375 102.101563 177.199219 101.78125 C 177.46875 101.457031 177.558594 101.082031 177.464844 100.65625 C 177.371094 100.164063 177.136719 99.800781 176.761719 99.5625 C 176.394531 99.332031 175.933594 99.253906 175.371094 99.328125 Z M 181.511719 106.96875 L 181.808594 108.390625 L 176.839844 111.28125 L 182.558594 112.015625 L 182.855469 113.4375 L 174.996094 115.046875 L 174.792969 114.109375 L 181.699219 112.6875 L 175.933594 111.984375 L 175.746094 111.015625 L 180.761719 108.078125 L 173.855469 109.5 L 173.652344 108.578125 Z M 180.992188 117.898438 C 180.898438 117.429688 180.621094 117.101563 180.164063 116.914063 C 179.703125 116.726563 179.121094 116.699219 178.414063 116.835938 C 177.714844 116.980469 177.1875 117.226563 176.835938 117.570313 C 176.480469 117.921875 176.351563 118.335938 176.445313 118.804688 C 176.539063 119.273438 176.8125 119.601563 177.273438 119.789063 C 177.742188 119.984375 178.324219 120.011719 179.023438 119.867188 C 179.730469 119.730469 180.257813 119.484375 180.601563 119.132813 C 180.953125 118.777344 181.085938 118.367188 180.992188 117.898438 Z M 181.804688 117.742188 C 181.960938 118.5 181.804688 119.152344 181.335938 119.695313 C 180.875 120.234375 180.164063 120.601563 179.195313 120.789063 C 178.234375 120.984375 177.4375 120.921875 176.804688 120.601563 C 176.167969 120.277344 175.773438 119.734375 175.617188 118.976563 C 175.460938 118.214844 175.617188 117.5625 176.085938 117.023438 C 176.554688 116.480469 177.265625 116.109375 178.226563 115.914063 C 179.195313 115.726563 179.992188 115.796875 180.617188 116.117188 C 181.25 116.4375 181.648438 116.980469 181.804688 117.742188 Z M 178.847656 122.257813 L 182.425781 121.570313 L 182.597656 122.445313 L 179.050781 123.132813 C 178.496094 123.234375 178.097656 123.40625 177.847656 123.648438 C 177.605469 123.898438 177.527344 124.21875 177.613281 124.617188 C 177.707031 125.09375 177.945313 125.4375 178.332031 125.648438 C 178.714844 125.855469 179.199219 125.902344 179.785156 125.789063 L 183.128906 125.148438 L 183.285156 126.023438 L 177.378906 127.164063 L 177.222656 126.289063 L 178.128906 126.117188 C 177.730469 125.960938 177.414063 125.761719 177.175781 125.523438 C 176.945313 125.28125 176.792969 124.976563 176.722656 124.601563 C 176.605469 123.996094 176.730469 123.492188 177.097656 123.085938 C 177.460938 122.6875 178.042969 122.414063 178.847656 122.257813 Z M 182.988281 123.726563 Z M 182.152344 132.703125 L 178.589844 133.390625 L 178.417969 132.515625 L 181.949219 131.828125 C 182.511719 131.722656 182.910156 131.539063 183.152344 131.28125 C 183.390625 131.03125 183.472656 130.710938 183.402344 130.328125 C 183.308594 129.859375 183.066406 129.519531 182.683594 129.3125 C 182.296875 129.101563 181.816406 129.054688 181.246094 129.171875 L 177.902344 129.8125 L 177.730469 128.921875 L 183.636719 127.78125 L 183.808594 128.671875 L 182.886719 128.84375 C 183.28125 128.988281 183.59375 129.179688 183.824219 129.421875 C 184.050781 129.671875 184.203125 129.984375 184.277344 130.359375 C 184.390625 130.960938 184.265625 131.460938 183.902344 131.859375 C 183.546875 132.265625 182.964844 132.546875 182.152344 132.703125 Z M 186.675781 134.527344 L 185.003906 134.855469 L 185.347656 136.652344 L 184.597656 136.792969 L 184.253906 134.996094 L 181.050781 135.621094 C 180.570313 135.714844 180.269531 135.828125 180.144531 135.964844 C 180.027344 136.109375 180.007813 136.371094 180.082031 136.746094 L 180.253906 137.636719 L 179.441406 137.792969 L 179.269531 136.902344 C 179.144531 136.222656 179.195313 135.730469 179.425781 135.417969 C 179.652344 135.113281 180.136719 134.890625 180.878906 134.746094 L 184.082031 134.121094 L 183.957031 133.480469 L 184.707031 133.339844 L 184.832031 133.980469 L 186.503906 133.652344 Z M 183.101563 140.769531 C 182.964844 140.058594 182.777344 139.585938 182.539063 139.347656 C 182.308594 139.117188 181.980469 139.042969 181.554688 139.128906 C 181.210938 139.191406 180.953125 139.347656 180.789063 139.597656 C 180.632813 139.847656 180.585938 140.144531 180.648438 140.488281 C 180.742188 140.976563 181.007813 141.332031 181.445313 141.550781 C 181.890625 141.769531 182.429688 141.816406 183.054688 141.691406 L 183.273438 141.644531 Z M 183.851563 142.441406 L 180.476563 143.097656 L 180.304688 142.222656 L 181.195313 142.050781 C 180.796875 141.914063 180.484375 141.710938 180.257813 141.441406 C 180.027344 141.179688 179.871094 140.835938 179.789063 140.410156 C 179.683594 139.867188 179.765625 139.398438 180.039063 139.003906 C 180.320313 138.617188 180.746094 138.371094 181.320313 138.269531 C 181.984375 138.132813 182.527344 138.230469 182.945313 138.566406 C 183.359375 138.910156 183.648438 139.476563 183.804688 140.269531 L 184.039063 141.503906 L 184.117188 141.488281 C 184.574219 141.394531 184.898438 141.191406 185.085938 140.878906 C 185.28125 140.566406 185.335938 140.167969 185.242188 139.691406 C 185.1875 139.386719 185.089844 139.097656 184.945313 138.816406 C 184.808594 138.542969 184.632813 138.292969 184.414063 138.066406 L 185.304688 137.894531 C 185.511719 138.195313 185.679688 138.488281 185.804688 138.769531 C 185.929688 139.050781 186.015625 139.335938 186.070313 139.628906 C 186.226563 140.386719 186.117188 141.003906 185.742188 141.472656 C 185.375 141.941406 184.746094 142.261719 183.851563 142.441406 Z M 186.722656 143.75 L 186.894531 144.625 L 180.988281 145.765625 L 180.816406 144.890625 Z M 189.019531 143.296875 L 189.191406 144.171875 L 187.972656 144.40625 L 187.800781 143.53125 Z M 185.761719 151.328125 L 182.199219 152.015625 L 182.027344 151.140625 L 185.558594 150.453125 C 186.121094 150.347656 186.519531 150.164063 186.761719 149.90625 C 187 149.65625 187.082031 149.335938 187.011719 148.953125 C 186.917969 148.484375 186.675781 148.144531 186.292969 147.9375 C 185.90625 147.726563 185.425781 147.679688 184.855469 147.796875 L 181.511719 148.4375 L 181.339844 147.546875 L 187.246094 146.40625 L 187.417969 147.296875 L 186.496094 147.46875 C 186.890625 147.613281 187.203125 147.804688 187.433594 148.046875 C 187.660156 148.296875 187.8125 148.609375 187.886719 148.984375 C 188 149.585938 187.875 150.085938 187.511719 150.484375 C 187.15625 150.890625 186.574219 151.171875 185.761719 151.328125 Z M 187.492188 159.515625 C 187.449219 159.734375 187.320313 159.960938 187.101563 160.203125 C 186.890625 160.453125 186.578125 160.71875 186.164063 161 L 184.210938 162.390625 L 184.023438 161.375 L 185.867188 160.078125 C 186.34375 159.734375 186.648438 159.4375 186.773438 159.1875 C 186.90625 158.9375 186.9375 158.617188 186.867188 158.234375 L 186.664063 157.203125 L 183.335938 157.84375 L 183.148438 156.875 L 191.023438 155.34375 L 191.445313 157.5 C 191.601563 158.320313 191.527344 158.960938 191.226563 159.421875 C 190.921875 159.890625 190.386719 160.203125 189.617188 160.359375 C 189.125 160.453125 188.699219 160.425781 188.335938 160.28125 C 187.96875 160.144531 187.6875 159.890625 187.492188 159.515625 Z M 190.335938 156.484375 L 187.539063 157.03125 L 187.773438 158.21875 C 187.855469 158.6875 188.039063 159.015625 188.320313 159.203125 C 188.601563 159.398438 188.96875 159.457031 189.429688 159.375 C 189.898438 159.28125 190.226563 159.085938 190.414063 158.796875 C 190.601563 158.515625 190.652344 158.140625 190.570313 157.671875 Z M 190.082031 164.621094 C 189.988281 164.152344 189.707031 163.816406 189.238281 163.621094 C 188.777344 163.433594 188.195313 163.40625 187.488281 163.542969 C 186.789063 163.6875 186.261719 163.933594 185.910156 164.277344 C 185.554688 164.628906 185.425781 165.042969 185.519531 165.511719 C 185.613281 165.988281 185.886719 166.324219 186.347656 166.511719 C 186.804688 166.707031 187.382813 166.734375 188.082031 166.589844 C 188.789063 166.453125 189.320313 166.207031 189.675781 165.855469 C 190.039063 165.511719 190.175781 165.097656 190.082031 164.621094 Z M 190.894531 164.464844 C 191.039063 165.222656 190.878906 165.875 190.410156 166.417969 C 189.949219 166.957031 189.230469 167.324219 188.253906 167.511719 C 187.292969 167.699219 186.496094 167.625 185.863281 167.292969 C 185.226563 166.96875 184.835938 166.425781 184.691406 165.667969 C 184.542969 164.90625 184.707031 164.253906 185.175781 163.714844 C 185.644531 163.171875 186.355469 162.808594 187.316406 162.621094 C 188.292969 162.433594 189.097656 162.503906 189.722656 162.824219 C 190.355469 163.15625 190.746094 163.703125 190.894531 164.464844 Z M 189.046875 171.363281 C 188.898438 170.652344 188.707031 170.179688 188.46875 169.941406 C 188.238281 169.710938 187.910156 169.636719 187.484375 169.722656 C 187.140625 169.785156 186.882813 169.933594 186.71875 170.175781 C 186.5625 170.425781 186.515625 170.726563 186.578125 171.082031 C 186.679688 171.570313 186.953125 171.917969 187.390625 172.128906 C 187.835938 172.347656 188.375 172.398438 189 172.285156 L 189.21875 172.238281 Z M 189.796875 173.035156 L 186.421875 173.691406 L 186.25 172.816406 L 187.140625 172.644531 C 186.742188 172.507813 186.429688 172.304688 186.203125 172.035156 C 185.972656 171.773438 185.816406 171.429688 185.734375 171.003906 C 185.617188 170.460938 185.695313 169.992188 185.96875 169.597656 C 186.25 169.210938 186.675781 168.960938 187.25 168.847656 C 187.914063 168.722656 188.453125 168.824219 188.859375 169.160156 C 189.273438 169.492188 189.5625 170.054688 189.71875 170.847656 L 189.96875 172.082031 L 190.0625 172.066406 C 190.519531 171.980469 190.84375 171.777344 191.03125 171.457031 C 191.226563 171.144531 191.28125 170.746094 191.1875 170.269531 C 191.125 169.964844 191.019531 169.679688 190.875 169.410156 C 190.738281 169.136719 190.5625 168.886719 190.34375 168.660156 L 191.234375 168.472656 C 191.441406 168.773438 191.609375 169.066406 191.734375 169.347656 C 191.859375 169.628906 191.953125 169.914063 192.015625 170.207031 C 192.160156 170.964844 192.050781 171.582031 191.6875 172.050781 C 191.320313 172.527344 190.691406 172.855469 189.796875 173.035156 Z M 192.476563 178.003906 L 195.664063 177.378906 L 195.835938 178.253906 L 187.632813 179.863281 L 187.460938 178.988281 L 188.351563 178.816406 C 187.953125 178.699219 187.640625 178.519531 187.414063 178.269531 C 187.195313 178.019531 187.042969 177.699219 186.960938 177.316406 C 186.835938 176.667969 187.015625 176.085938 187.507813 175.566406 C 187.996094 175.042969 188.703125 174.695313 189.632813 174.519531 C 190.570313 174.332031 191.359375 174.386719 192.007813 174.675781 C 192.652344 174.976563 193.039063 175.449219 193.164063 176.097656 C 193.246094 176.480469 193.226563 176.832031 193.101563 177.144531 C 192.984375 177.457031 192.777344 177.742188 192.476563 178.003906 Z M 189.804688 175.425781 C 189.09375 175.558594 188.5625 175.800781 188.210938 176.144531 C 187.855469 176.488281 187.726563 176.886719 187.820313 177.347656 C 187.914063 177.824219 188.1875 178.152344 188.648438 178.332031 C 189.105469 178.519531 189.6875 178.542969 190.398438 178.410156 C 191.117188 178.261719 191.652344 178.019531 192.007813 177.675781 C 192.359375 177.332031 192.492188 176.917969 192.398438 176.441406 C 192.304688 175.980469 192.027344 175.660156 191.570313 175.472656 C 191.109375 175.292969 190.523438 175.277344 189.804688 175.425781 Z M 189.804688 175.425781 "/>
<path style=" stroke:none;fill-rule:evenodd;fill:rgb(20%,20%,20%);fill-opacity:1;" d="M 172.601563 84.214844 L 169.726563 84.777344 L 170.023438 86.308594 C 170.125 86.816406 170.320313 87.171875 170.601563 87.371094 C 170.882813 87.578125 171.265625 87.636719 171.757813 87.542969 C 172.246094 87.449219 172.585938 87.25 172.773438 86.949219 C 172.960938 86.65625 173 86.253906 172.898438 85.746094 Z M 175.835938 83.574219 L 173.460938 84.042969 L 173.742188 85.449219 C 173.835938 85.917969 174 86.246094 174.242188 86.433594 C 174.492188 86.628906 174.8125 86.6875 175.210938 86.605469 C 175.605469 86.53125 175.875 86.359375 176.023438 86.089844 C 176.179688 85.816406 176.210938 85.449219 176.117188 84.980469 Z M 176.523438 82.433594 L 177.007813 84.886719 C 177.140625 85.613281 177.078125 86.207031 176.820313 86.667969 C 176.570313 87.136719 176.132813 87.433594 175.507813 87.558594 C 175.027344 87.652344 174.625 87.621094 174.304688 87.464844 C 173.992188 87.316406 173.757813 87.0625 173.601563 86.699219 C 173.578125 87.1875 173.414063 87.59375 173.101563 87.917969 C 172.796875 88.25 172.382813 88.46875 171.851563 88.574219 C 171.152344 88.71875 170.570313 88.609375 170.101563 88.246094 C 169.632813 87.890625 169.320313 87.316406 169.164063 86.527344 L 168.664063 83.980469 Z M 178.167969 88.964844 L 178.355469 89.839844 L 170.167969 91.527344 L 169.980469 90.652344 Z M 172.84375 92.769531 L 176.40625 92.050781 L 176.578125 92.925781 L 173.046875 93.644531 C 172.492188 93.757813 172.097656 93.941406 171.859375 94.191406 C 171.617188 94.441406 171.539063 94.757813 171.625 95.144531 C 171.71875 95.621094 171.957031 95.960938 172.34375 96.160156 C 172.738281 96.367188 173.226563 96.410156 173.8125 96.285156 L 177.140625 95.613281 L 177.3125 96.488281 L 171.421875 97.691406 L 171.25 96.816406 L 172.15625 96.628906 C 171.75 96.492188 171.429688 96.304688 171.203125 96.066406 C 170.972656 95.824219 170.816406 95.511719 170.734375 95.128906 C 170.609375 94.535156 170.726563 94.035156 171.09375 93.628906 C 171.457031 93.222656 172.039063 92.933594 172.84375 92.769531 Z M 177 94.207031 Z M 175.917969 103.375 L 175.433594 103.46875 L 174.605469 99.453125 C 173.957031 99.628906 173.496094 99.914063 173.214844 100.3125 C 172.933594 100.71875 172.847656 101.207031 172.964844 101.78125 C 173.027344 102.113281 173.136719 102.425781 173.292969 102.71875 C 173.457031 103.019531 173.65625 103.304688 173.886719 103.578125 L 172.996094 103.765625 C 172.777344 103.484375 172.59375 103.1875 172.449219 102.875 C 172.300781 102.5625 172.191406 102.238281 172.121094 101.90625 C 171.953125 101.050781 172.089844 100.316406 172.527344 99.703125 C 172.972656 99.097656 173.667969 98.703125 174.605469 98.515625 C 175.5625 98.320313 176.375 98.398438 177.042969 98.75 C 177.707031 99.101563 178.121094 99.679688 178.277344 100.484375 C 178.421875 101.191406 178.28125 101.804688 177.855469 102.328125 C 177.4375 102.847656 176.792969 103.195313 175.917969 103.375 Z M 176.011719 102.4375 C 176.542969 102.320313 176.9375 102.101563 177.199219 101.78125 C 177.46875 101.457031 177.558594 101.082031 177.464844 100.65625 C 177.371094 100.164063 177.136719 99.800781 176.761719 99.5625 C 176.394531 99.332031 175.933594 99.253906 175.371094 99.328125 Z M 181.511719 106.96875 L 181.808594 108.390625 L 176.839844 111.28125 L 182.558594 112.015625 L 182.855469 113.4375 L 174.996094 115.046875 L 174.792969 114.109375 L 181.699219 112.6875 L 175.933594 111.984375 L 175.746094 111.015625 L 180.761719 108.078125 L 173.855469 109.5 L 173.652344 108.578125 Z M 180.992188 117.898438 C 180.898438 117.429688 180.621094 117.101563 180.164063 116.914063 C 179.703125 116.726563 179.121094 116.699219 178.414063 116.835938 C 177.714844 116.980469 177.1875 117.226563 176.835938 117.570313 C 176.480469 117.921875 176.351563 118.335938 176.445313 118.804688 C 176.539063 119.273438 176.8125 119.601563 177.273438 119.789063 C 177.742188 119.984375 178.324219 120.011719 179.023438 119.867188 C 179.730469 119.730469 180.257813 119.484375 180.601563 119.132813 C 180.953125 118.777344 181.085938 118.367188 180.992188 117.898438 Z M 181.804688 117.742188 C 181.960938 118.5 181.804688 119.152344 181.335938 119.695313 C 180.875 120.234375 180.164063 120.601563 179.195313 120.789063 C 178.234375 120.984375 177.4375 120.921875 176.804688 120.601563 C 176.167969 120.277344 175.773438 119.734375 175.617188 118.976563 C 175.460938 118.214844 175.617188 117.5625 176.085938 117.023438 C 176.554688 116.480469 177.265625 116.109375 178.226563 115.914063 C 179.195313 115.726563 179.992188 115.796875 180.617188 116.117188 C 181.25 116.4375 181.648438 116.980469 181.804688 117.742188 Z M 178.847656 122.257813 L 182.425781 121.570313 L 182.597656 122.445313 L 179.050781 123.132813 C 178.496094 123.234375 178.097656 123.40625 177.847656 123.648438 C 177.605469 123.898438 177.527344 124.21875 177.613281 124.617188 C 177.707031 125.09375 177.945313 125.4375 178.332031 125.648438 C 178.714844 125.855469 179.199219 125.902344 179.785156 125.789063 L 183.128906 125.148438 L 183.285156 126.023438 L 177.378906 127.164063 L 177.222656 126.289063 L 178.128906 126.117188 C 177.730469 125.960938 177.414063 125.761719 177.175781 125.523438 C 176.945313 125.28125 176.792969 124.976563 176.722656 124.601563 C 176.605469 123.996094 176.730469 123.492188 177.097656 123.085938 C 177.460938 122.6875 178.042969 122.414063 178.847656 122.257813 Z M 182.988281 123.726563 Z M 182.152344 132.703125 L 178.589844 133.390625 L 178.417969 132.515625 L 181.949219 131.828125 C 182.511719 131.722656 182.910156 131.539063 183.152344 131.28125 C 183.390625 131.03125 183.472656 130.710938 183.402344 130.328125 C 183.308594 129.859375 183.066406 129.519531 182.683594 129.3125 C 182.296875 129.101563 181.816406 129.054688 181.246094 129.171875 L 177.902344 129.8125 L 177.730469 128.921875 L 183.636719 127.78125 L 183.808594 128.671875 L 182.886719 128.84375 C 183.28125 128.988281 183.59375 129.179688 183.824219 129.421875 C 184.050781 129.671875 184.203125 129.984375 184.277344 130.359375 C 184.390625 130.960938 184.265625 131.460938 183.902344 131.859375 C 183.546875 132.265625 182.964844 132.546875 182.152344 132.703125 Z M 186.675781 134.527344 L 185.003906 134.855469 L 185.347656 136.652344 L 184.597656 136.792969 L 184.253906 134.996094 L 181.050781 135.621094 C 180.570313 135.714844 180.269531 135.828125 180.144531 135.964844 C 180.027344 136.109375 180.007813 136.371094 180.082031 136.746094 L 180.253906 137.636719 L 179.441406 137.792969 L 179.269531 136.902344 C 179.144531 136.222656 179.195313 135.730469 179.425781 135.417969 C 179.652344 135.113281 180.136719 134.890625 180.878906 134.746094 L 184.082031 134.121094 L 183.957031 133.480469 L 184.707031 133.339844 L 184.832031 133.980469 L 186.503906 133.652344 Z M 183.101563 140.769531 C 182.964844 140.058594 182.777344 139.585938 182.539063 139.347656 C 182.308594 139.117188 181.980469 139.042969 181.554688 139.128906 C 181.210938 139.191406 180.953125 139.347656 180.789063 139.597656 C 180.632813 139.847656 180.585938 140.144531 180.648438 140.488281 C 180.742188 140.976563 181.007813 141.332031 181.445313 141.550781 C 181.890625 141.769531 182.429688 141.816406 183.054688 141.691406 L 183.273438 141.644531 Z M 183.851563 142.441406 L 180.476563 143.097656 L 180.304688 142.222656 L 181.195313 142.050781 C 180.796875 141.914063 180.484375 141.710938 180.257813 141.441406 C 180.027344 141.179688 179.871094 140.835938 179.789063 140.410156 C 179.683594 139.867188 179.765625 139.398438 180.039063 139.003906 C 180.320313 138.617188 180.746094 138.371094 181.320313 138.269531 C 181.984375 138.132813 182.527344 138.230469 182.945313 138.566406 C 183.359375 138.910156 183.648438 139.476563 183.804688 140.269531 L 184.039063 141.503906 L 184.117188 141.488281 C 184.574219 141.394531 184.898438 141.191406 185.085938 140.878906 C 185.28125 140.566406 185.335938 140.167969 185.242188 139.691406 C 185.1875 139.386719 185.089844 139.097656 184.945313 138.816406 C 184.808594 138.542969 184.632813 138.292969 184.414063 138.066406 L 185.304688 137.894531 C 185.511719 138.195313 185.679688 138.488281 185.804688 138.769531 C 185.929688 139.050781 186.015625 139.335938 186.070313 139.628906 C 186.226563 140.386719 186.117188 141.003906 185.742188 141.472656 C 185.375 141.941406 184.746094 142.261719 183.851563 142.441406 Z M 186.722656 143.75 L 186.894531 144.625 L 180.988281 145.765625 L 180.816406 144.890625 Z M 189.019531 143.296875 L 189.191406 144.171875 L 187.972656 144.40625 L 187.800781 143.53125 Z M 185.761719 151.328125 L 182.199219 152.015625 L 182.027344 151.140625 L 185.558594 150.453125 C 186.121094 150.347656 186.519531 150.164063 186.761719 149.90625 C 187 149.65625 187.082031 149.335938 187.011719 148.953125 C 186.917969 148.484375 186.675781 148.144531 186.292969 147.9375 C 185.90625 147.726563 185.425781 147.679688 184.855469 147.796875 L 181.511719 148.4375 L 181.339844 147.546875 L 187.246094 146.40625 L 187.417969 147.296875 L 186.496094 147.46875 C 186.890625 147.613281 187.203125 147.804688 187.433594 148.046875 C 187.660156 148.296875 187.8125 148.609375 187.886719 148.984375 C 188 149.585938 187.875 150.085938 187.511719 150.484375 C 187.15625 150.890625 186.574219 151.171875 185.761719 151.328125 Z M 187.492188 159.515625 C 187.449219 159.734375 187.320313 159.960938 187.101563 160.203125 C 186.890625 160.453125 186.578125 160.71875 186.164063 161 L 184.210938 162.390625 L 184.023438 161.375 L 185.867188 160.078125 C 186.34375 159.734375 186.648438 159.4375 186.773438 159.1875 C 186.90625 158.9375 186.9375 158.617188 186.867188 158.234375 L 186.664063 157.203125 L 183.335938 157.84375 L 183.148438 156.875 L 191.023438 155.34375 L 191.445313 157.5 C 191.601563 158.320313 191.527344 158.960938 191.226563 159.421875 C 190.921875 159.890625 190.386719 160.203125 189.617188 160.359375 C 189.125 160.453125 188.699219 160.425781 188.335938 160.28125 C 187.96875 160.144531 187.6875 159.890625 187.492188 159.515625 Z M 190.335938 156.484375 L 187.539063 157.03125 L 187.773438 158.21875 C 187.855469 158.6875 188.039063 159.015625 188.320313 159.203125 C 188.601563 159.398438 188.96875 159.457031 189.429688 159.375 C 189.898438 159.28125 190.226563 159.085938 190.414063 158.796875 C 190.601563 158.515625 190.652344 158.140625 190.570313 157.671875 Z M 190.082031 164.621094 C 189.988281 164.152344 189.707031 163.816406 189.238281 163.621094 C 188.777344 163.433594 188.195313 163.40625 187.488281 163.542969 C 186.789063 163.6875 186.261719 163.933594 185.910156 164.277344 C 185.554688 164.628906 185.425781 165.042969 185.519531 165.511719 C 185.613281 165.988281 185.886719 166.324219 186.347656 166.511719 C 186.804688 166.707031 187.382813 166.734375 188.082031 166.589844 C 188.789063 166.453125 189.320313 166.207031 189.675781 165.855469 C 190.039063 165.511719 190.175781 165.097656 190.082031 164.621094 Z M 190.894531 164.464844 C 191.039063 165.222656 190.878906 165.875 190.410156 166.417969 C 189.949219 166.957031 189.230469 167.324219 188.253906 167.511719 C 187.292969 167.699219 186.496094 167.625 185.863281 167.292969 C 185.226563 166.96875 184.835938 166.425781 184.691406 165.667969 C 184.542969 164.90625 184.707031 164.253906 185.175781 163.714844 C 185.644531 163.171875 186.355469 162.808594 187.316406 162.621094 C 188.292969 162.433594 189.097656 162.503906 189.722656 162.824219 C 190.355469 163.15625 190.746094 163.703125 190.894531 164.464844 Z M 189.046875 171.363281 C 188.898438 170.652344 188.707031 170.179688 188.46875 169.941406 C 188.238281 169.710938 187.910156 169.636719 187.484375 169.722656 C 187.140625 169.785156 186.882813 169.933594 186.71875 170.175781 C 186.5625 170.425781 186.515625 170.726563 186.578125 171.082031 C 186.679688 171.570313 186.953125 171.917969 187.390625 172.128906 C 187.835938 172.347656 188.375 172.398438 189 172.285156 L 189.21875 172.238281 Z M 189.796875 173.035156 L 186.421875 173.691406 L 186.25 172.816406 L 187.140625 172.644531 C 186.742188 172.507813 186.429688 172.304688 186.203125 172.035156 C 185.972656 171.773438 185.816406 171.429688 185.734375 171.003906 C 185.617188 170.460938 185.695313 169.992188 185.96875 169.597656 C 186.25 169.210938 186.675781 168.960938 187.25 168.847656 C 187.914063 168.722656 188.453125 168.824219 188.859375 169.160156 C 189.273438 169.492188 189.5625 170.054688 189.71875 170.847656 L 189.96875 172.082031 L 190.0625 172.066406 C 190.519531 171.980469 190.84375 171.777344 191.03125 171.457031 C 191.226563 171.144531 191.28125 170.746094 191.1875 170.269531 C 191.125 169.964844 191.019531 169.679688 190.875 169.410156 C 190.738281 169.136719 190.5625 168.886719 190.34375 168.660156 L 191.234375 168.472656 C 191.441406 168.773438 191.609375 169.066406 191.734375 169.347656 C 191.859375 169.628906 191.953125 169.914063 192.015625 170.207031 C 192.160156 170.964844 192.050781 171.582031 191.6875 172.050781 C 191.320313 172.527344 190.691406 172.855469 189.796875 173.035156 Z M 192.476563 178.003906 L 195.664063 177.378906 L 195.835938 178.253906 L 187.632813 179.863281 L 187.460938 178.988281 L 188.351563 178.816406 C 187.953125 178.699219 187.640625 178.519531 187.414063 178.269531 C 187.195313 178.019531 187.042969 177.699219 186.960938 177.316406 C 186.835938 176.667969 187.015625 176.085938 187.507813 175.566406 C 187.996094 175.042969 188.703125 174.695313 189.632813 174.519531 C 190.570313 174.332031 191.359375 174.386719 192.007813 174.675781 C 192.652344 174.976563 193.039063 175.449219 193.164063 176.097656 C 193.246094 176.480469 193.226563 176.832031 193.101563 177.144531 C 192.984375 177.457031 192.777344 177.742188 192.476563 178.003906 Z M 189.804688 175.425781 C 189.09375 175.558594 188.5625 175.800781 188.210938 176.144531 C 187.855469 176.488281 187.726563 176.886719 187.820313 177.347656 C 187.914063 177.824219 188.1875 178.152344 188.648438 178.332031 C 189.105469 178.519531 189.6875 178.542969 190.398438 178.410156 C 191.117188 178.261719 191.652344 178.019531 192.007813 177.675781 C 192.359375 177.332031 192.492188 176.917969 192.398438 176.441406 C 192.304688 175.980469 192.027344 175.660156 191.570313 175.472656 C 191.109375 175.292969 190.523438 175.277344 189.804688 175.425781 Z M 189.804688 175.425781 "/>
<path style="fill:none;stroke-width:3;stroke-linecap:round;stroke-linejoin:round;stroke:rgb(100%,100%,100%);stroke-opacity:1;stroke-miterlimit:10;" d="M 107.714844 109.789063 L 108.699219 110.148438 C 108.386719 110.429688 108.132813 110.710938 107.933594 110.992188 C 107.738281 111.265625 107.585938 111.539063 107.480469 111.820313 C 107.292969 112.320313 107.257813 112.742188 107.371094 113.085938 C 107.488281 113.429688 107.738281 113.675781 108.121094 113.820313 C 108.457031 113.945313 108.742188 113.957031 108.980469 113.851563 C 109.222656 113.738281 109.492188 113.445313 109.792969 112.976563 L 110.089844 112.476563 C 110.488281 111.84375 110.933594 111.429688 111.433594 111.242188 C 111.925781 111.054688 112.472656 111.070313 113.074219 111.289063 C 113.800781 111.5625 114.269531 111.984375 114.480469 112.554688 C 114.699219 113.128906 114.652344 113.84375 114.339844 114.695313 C 114.214844 115.019531 114.042969 115.347656 113.824219 115.679688 C 113.613281 116.015625 113.359375 116.34375 113.058594 116.664063 L 112.027344 116.289063 C 112.394531 116 112.699219 115.695313 112.949219 115.382813 C 113.199219 115.070313 113.390625 114.742188 113.527344 114.398438 C 113.714844 113.878906 113.746094 113.4375 113.621094 113.070313 C 113.496094 112.695313 113.21875 112.429688 112.792969 112.273438 C 112.429688 112.140625 112.105469 112.132813 111.824219 112.257813 C 111.535156 112.382813 111.246094 112.660156 110.964844 113.085938 L 110.636719 113.617188 C 110.242188 114.234375 109.824219 114.640625 109.386719 114.835938 C 108.949219 115.023438 108.445313 115.007813 107.871094 114.789063 C 107.207031 114.550781 106.757813 114.148438 106.527344 113.585938 C 106.300781 113.023438 106.320313 112.375 106.589844 111.632813 C 106.714844 111.3125 106.871094 111 107.058594 110.695313 C 107.246094 110.382813 107.464844 110.082031 107.714844 109.789063 Z M 110.023438 108.578125 L 110.320313 107.734375 L 115.960938 109.8125 L 115.664063 110.65625 Z M 107.820313 107.78125 L 108.117188 106.9375 L 109.289063 107.359375 L 108.992188 108.203125 Z M 108.765625 105.199219 L 109.0625 104.355469 L 116.90625 107.230469 L 116.609375 108.074219 Z M 115.558594 102.132813 C 115.308594 102.8125 115.226563 103.316406 115.308594 103.648438 C 115.394531 103.972656 115.636719 104.207031 116.042969 104.351563 C 116.367188 104.46875 116.664063 104.460938 116.933594 104.335938 C 117.207031 104.210938 117.394531 103.984375 117.511719 103.648438 C 117.6875 103.179688 117.640625 102.742188 117.371094 102.335938 C 117.101563 101.921875 116.667969 101.601563 116.074219 101.382813 L 115.855469 101.304688 Z M 115.777344 100.320313 L 119.011719 101.507813 L 118.699219 102.351563 L 117.855469 102.039063 C 118.125 102.363281 118.285156 102.695313 118.339844 103.039063 C 118.402344 103.375 118.355469 103.742188 118.199219 104.148438 C 118.011719 104.671875 117.699219 105.03125 117.261719 105.226563 C 116.824219 105.414063 116.335938 105.40625 115.792969 105.195313 C 115.160156 104.96875 114.753906 104.601563 114.574219 104.101563 C 114.386719 103.601563 114.433594 102.972656 114.714844 102.210938 L 115.136719 101.039063 L 115.042969 101.007813 C 114.617188 100.851563 114.242188 100.859375 113.917969 101.023438 C 113.597656 101.191406 113.347656 101.503906 113.167969 101.960938 C 113.066406 102.242188 113.003906 102.539063 112.980469 102.851563 C 112.960938 103.15625 112.980469 103.460938 113.042969 103.773438 L 112.199219 103.460938 C 112.167969 103.109375 112.175781 102.773438 112.214844 102.460938 C 112.257813 102.148438 112.324219 101.859375 112.417969 101.585938 C 112.691406 100.859375 113.105469 100.390625 113.667969 100.179688 C 114.222656 99.960938 114.925781 100.007813 115.777344 100.320313 Z M 114.390625 93.449219 L 120.234375 95.589844 L 120.640625 94.480469 C 120.984375 93.542969 121 92.773438 120.6875 92.167969 C 120.386719 91.566406 119.730469 91.074219 118.71875 90.699219 C 117.710938 90.335938 116.890625 90.285156 116.265625 90.542969 C 115.632813 90.804688 115.140625 91.402344 114.796875 92.339844 Z M 113.203125 94.058594 L 113.90625 92.183594 C 114.386719 90.863281 115.042969 90.007813 115.875 89.621094 C 116.710938 89.238281 117.773438 89.277344 119.0625 89.746094 C 120.367188 90.226563 121.203125 90.886719 121.578125 91.730469 C 121.960938 92.566406 121.914063 93.636719 121.4375 94.949219 L 120.734375 96.824219 Z M 119.660156 84.996094 C 119.566406 85.070313 119.488281 85.160156 119.425781 85.261719 C 119.355469 85.355469 119.292969 85.464844 119.238281 85.589844 C 119.0625 86.070313 119.097656 86.503906 119.347656 86.886719 C 119.597656 87.261719 120.042969 87.566406 120.675781 87.792969 L 123.660156 88.886719 L 123.347656 89.730469 L 117.707031 87.652344 L 118.019531 86.808594 L 118.894531 87.136719 C 118.613281 86.835938 118.441406 86.519531 118.378906 86.183594 C 118.316406 85.839844 118.359375 85.464844 118.503906 85.058594 C 118.527344 85.007813 118.550781 84.945313 118.582031 84.871094 C 118.613281 84.789063 118.65625 84.714844 118.707031 84.652344 Z M 119.125 83.789063 L 119.4375 82.960938 L 125.0625 85.085938 L 124.75 85.914063 Z M 116.921875 82.960938 L 117.234375 82.132813 L 118.40625 82.585938 L 118.09375 83.414063 Z M 119.875 81.789063 L 120.21875 80.914063 L 125.53125 81.195313 L 121.4375 77.757813 L 121.78125 76.882813 L 126.65625 80.960938 L 126.21875 82.085938 Z M 126.351563 72.371094 L 126.804688 72.527344 L 125.429688 76.386719 C 126.085938 76.574219 126.640625 76.574219 127.085938 76.386719 C 127.535156 76.191406 127.855469 75.816406 128.054688 75.261719 C 128.167969 74.941406 128.230469 74.613281 128.242188 74.277344 C 128.261719 73.945313 128.246094 73.597656 128.195313 73.230469 L 129.054688 73.542969 C 129.085938 73.898438 129.078125 74.246094 129.039063 74.589844 C 129.007813 74.933594 128.933594 75.269531 128.820313 75.589844 C 128.527344 76.402344 128.039063 76.957031 127.351563 77.246094 C 126.65625 77.527344 125.851563 77.507813 124.945313 77.183594 C 124.03125 76.851563 123.378906 76.363281 122.992188 75.714844 C 122.609375 75.070313 122.550781 74.367188 122.820313 73.605469 C 123.070313 72.917969 123.515625 72.464844 124.148438 72.246094 C 124.773438 72.027344 125.507813 72.070313 126.351563 72.371094 Z M 125.773438 73.105469 C 125.265625 72.941406 124.816406 72.925781 124.429688 73.058594 C 124.035156 73.195313 123.765625 73.464844 123.617188 73.871094 C 123.441406 74.339844 123.453125 74.773438 123.648438 75.167969 C 123.847656 75.554688 124.195313 75.863281 124.695313 76.089844 Z M 125.773438 73.105469 "/>
<path style=" stroke:none;fill-rule:evenodd;fill:rgb(20%,20%,20%);fill-opacity:1;" d="M 107.714844 109.789063 L 108.699219 110.148438 C 108.386719 110.429688 108.132813 110.710938 107.933594 110.992188 C 107.738281 111.265625 107.585938 111.539063 107.480469 111.820313 C 107.292969 112.320313 107.257813 112.742188 107.371094 113.085938 C 107.488281 113.429688 107.738281 113.675781 108.121094 113.820313 C 108.457031 113.945313 108.742188 113.957031 108.980469 113.851563 C 109.222656 113.738281 109.492188 113.445313 109.792969 112.976563 L 110.089844 112.476563 C 110.488281 111.84375 110.933594 111.429688 111.433594 111.242188 C 111.925781 111.054688 112.472656 111.070313 113.074219 111.289063 C 113.800781 111.5625 114.269531 111.984375 114.480469 112.554688 C 114.699219 113.128906 114.652344 113.84375 114.339844 114.695313 C 114.214844 115.019531 114.042969 115.347656 113.824219 115.679688 C 113.613281 116.015625 113.359375 116.34375 113.058594 116.664063 L 112.027344 116.289063 C 112.394531 116 112.699219 115.695313 112.949219 115.382813 C 113.199219 115.070313 113.390625 114.742188 113.527344 114.398438 C 113.714844 113.878906 113.746094 113.4375 113.621094 113.070313 C 113.496094 112.695313 113.21875 112.429688 112.792969 112.273438 C 112.429688 112.140625 112.105469 112.132813 111.824219 112.257813 C 111.535156 112.382813 111.246094 112.660156 110.964844 113.085938 L 110.636719 113.617188 C 110.242188 114.234375 109.824219 114.640625 109.386719 114.835938 C 108.949219 115.023438 108.445313 115.007813 107.871094 114.789063 C 107.207031 114.550781 106.757813 114.148438 106.527344 113.585938 C 106.300781 113.023438 106.320313 112.375 106.589844 111.632813 C 106.714844 111.3125 106.871094 111 107.058594 110.695313 C 107.246094 110.382813 107.464844 110.082031 107.714844 109.789063 Z M 110.023438 108.578125 L 110.320313 107.734375 L 115.960938 109.8125 L 115.664063 110.65625 Z M 107.820313 107.78125 L 108.117188 106.9375 L 109.289063 107.359375 L 108.992188 108.203125 Z M 108.765625 105.199219 L 109.0625 104.355469 L 116.90625 107.230469 L 116.609375 108.074219 Z M 115.558594 102.132813 C 115.308594 102.8125 115.226563 103.316406 115.308594 103.648438 C 115.394531 103.972656 115.636719 104.207031 116.042969 104.351563 C 116.367188 104.46875 116.664063 104.460938 116.933594 104.335938 C 117.207031 104.210938 117.394531 103.984375 117.511719 103.648438 C 117.6875 103.179688 117.640625 102.742188 117.371094 102.335938 C 117.101563 101.921875 116.667969 101.601563 116.074219 101.382813 L 115.855469 101.304688 Z M 115.777344 100.320313 L 119.011719 101.507813 L 118.699219 102.351563 L 117.855469 102.039063 C 118.125 102.363281 118.285156 102.695313 118.339844 103.039063 C 118.402344 103.375 118.355469 103.742188 118.199219 104.148438 C 118.011719 104.671875 117.699219 105.03125 117.261719 105.226563 C 116.824219 105.414063 116.335938 105.40625 115.792969 105.195313 C 115.160156 104.96875 114.753906 104.601563 114.574219 104.101563 C 114.386719 103.601563 114.433594 102.972656 114.714844 102.210938 L 115.136719 101.039063 L 115.042969 101.007813 C 114.617188 100.851563 114.242188 100.859375 113.917969 101.023438 C 113.597656 101.191406 113.347656 101.503906 113.167969 101.960938 C 113.066406 102.242188 113.003906 102.539063 112.980469 102.851563 C 112.960938 103.15625 112.980469 103.460938 113.042969 103.773438 L 112.199219 103.460938 C 112.167969 103.109375 112.175781 102.773438 112.214844 102.460938 C 112.257813 102.148438 112.324219 101.859375 112.417969 101.585938 C 112.691406 100.859375 113.105469 100.390625 113.667969 100.179688 C 114.222656 99.960938 114.925781 100.007813 115.777344 100.320313 Z M 114.390625 93.449219 L 120.234375 95.589844 L 120.640625 94.480469 C 120.984375 93.542969 121 92.773438 120.6875 92.167969 C 120.386719 91.566406 119.730469 91.074219 118.71875 90.699219 C 117.710938 90.335938 116.890625 90.285156 116.265625 90.542969 C 115.632813 90.804688 115.140625 91.402344 114.796875 92.339844 Z M 113.203125 94.058594 L 113.90625 92.183594 C 114.386719 90.863281 115.042969 90.007813 115.875 89.621094 C 116.710938 89.238281 117.773438 89.277344 119.0625 89.746094 C 120.367188 90.226563 121.203125 90.886719 121.578125 91.730469 C 121.960938 92.566406 121.914063 93.636719 121.4375 94.949219 L 120.734375 96.824219 Z M 119.660156 84.996094 C 119.566406 85.070313 119.488281 85.160156 119.425781 85.261719 C 119.355469 85.355469 119.292969 85.464844 119.238281 85.589844 C 119.0625 86.070313 119.097656 86.503906 119.347656 86.886719 C 119.597656 87.261719 120.042969 87.566406 120.675781 87.792969 L 123.660156 88.886719 L 123.347656 89.730469 L 117.707031 87.652344 L 118.019531 86.808594 L 118.894531 87.136719 C 118.613281 86.835938 118.441406 86.519531 118.378906 86.183594 C 118.316406 85.839844 118.359375 85.464844 118.503906 85.058594 C 118.527344 85.007813 118.550781 84.945313 118.582031 84.871094 C 118.613281 84.789063 118.65625 84.714844 118.707031 84.652344 Z M 119.125 83.789063 L 119.4375 82.960938 L 125.0625 85.085938 L 124.75 85.914063 Z M 116.921875 82.960938 L 117.234375 82.132813 L 118.40625 82.585938 L 118.09375 83.414063 Z M 119.875 81.789063 L 120.21875 80.914063 L 125.53125 81.195313 L 121.4375 77.757813 L 121.78125 76.882813 L 126.65625 80.960938 L 126.21875 82.085938 Z M 126.351563 72.371094 L 126.804688 72.527344 L 125.429688 76.386719 C 126.085938 76.574219 126.640625 76.574219 127.085938 76.386719 C 127.535156 76.191406 127.855469 75.816406 128.054688 75.261719 C 128.167969 74.941406 128.230469 74.613281 128.242188 74.277344 C 128.261719 73.945313 128.246094 73.597656 128.195313 73.230469 L 129.054688 73.542969 C 129.085938 73.898438 129.078125 74.246094 129.039063 74.589844 C 129.007813 74.933594 128.933594 75.269531 128.820313 75.589844 C 128.527344 76.402344 128.039063 76.957031 127.351563 77.246094 C 126.65625 77.527344 125.851563 77.507813 124.945313 77.183594 C 124.03125 76.851563 123.378906 76.363281 122.992188 75.714844 C 122.609375 75.070313 122.550781 74.367188 122.820313 73.605469 C 123.070313 72.917969 123.515625 72.464844 124.148438 72.246094 C 124.773438 72.027344 125.507813 72.070313 126.351563 72.371094 Z M 125.773438 73.105469 C 125.265625 72.941406 124.816406 72.925781 124.429688 73.058594 C 124.035156 73.195313 123.765625 73.464844 123.617188 73.871094 C 123.441406 74.339844 123.453125 74.773438 123.648438 75.167969 C 123.847656 75.554688 124.195313 75.863281 124.695313 76.089844 Z M 125.773438 73.105469 "/>
</g>
</svg>

