<?xml version="1.0" encoding="UTF-8"?>
<svg xmlns="http://www.w3.org/2000/svg" xmlns:xlink="http://www.w3.org/1999/xlink" width="256pt" height="256pt" viewBox="0 0 256 256" version="1.1">
<g id="surface2">
<rect x="0" y="0" width="256" height="256" style="fill:rgb(94.901961%,93.72549%,91.372549%);fill-opacity:1;stroke:none;"/>
<path style="fill:none;stroke-width:8;stroke-linecap:round;stroke-linejoin:round;stroke:rgb(75.686275%,70.980392%,61.568627%);stroke-opacity:1;stroke-miterlimit:10;" d="M 103.460938 165.488281 L 87.058594 149.542969 L 84.542969 147.089844 "/>
<path style="fill:none;stroke-width:8;stroke-linecap:round;stroke-linejoin:round;stroke:rgb(75.686275%,70.980392%,61.568627%);stroke-opacity:1;stroke-miterlimit:10;" d="M 245.765625 189.234375 L 211.769531 200.441406 "/>
<path style="fill:none;stroke-width:8;stroke-linecap:round;stroke-linejoin:round;stroke:rgb(75.686275%,70.980392%,61.568627%);stroke-opacity:1;stroke-miterlimit:10;" d="M 238.332031 126.019531 L 264 117.09375 "/>
<path style="fill:none;stroke-width:8;stroke-linecap:round;stroke-linejoin:round;stroke:rgb(75.686275%,70.980392%,61.568627%);stroke-opacity:1;stroke-miterlimit:10;" d="M 240.570313 146.136719 L 231.785156 146.644531 L 216.800781 147.917969 L 210.277344 149.128906 L 154.445313 157.851563 L 141.46875 159.570313 L 137.902344 159.089844 L 132.355469 157.816406 L 126.34375 157.308594 L 120.589844 157.945313 L 114.25 159.027344 L 108.984375 161.289063 L 107.191406 162.976563 L 103.460938 165.488281 L 99.921875 167.878906 L 94.46875 169.246094 L 87.617188 169.660156 "/>
<path style="fill:none;stroke-width:8;stroke-linecap:round;stroke-linejoin:round;stroke:rgb(75.686275%,70.980392%,61.568627%);stroke-opacity:1;stroke-miterlimit:10;" d="M 81.746094 173.226563 L 87.617188 169.660156 L 85.078125 169.214844 L 82 167.527344 L 77.667969 165.585938 L 74.359375 165.265625 L 72.519531 166.09375 L 72.308594 167.621094 L 73.824219 170.265625 L 77.457031 172.523438 L 79.929688 173.511719 L 81.746094 173.226563 "/>
<path style="fill:none;stroke-width:8;stroke-linecap:round;stroke-linejoin:round;stroke:rgb(75.686275%,70.980392%,61.568627%);stroke-opacity:1;stroke-miterlimit:10;" d="M 255.355469 264 L 245.765625 189.234375 L 242.480469 163.546875 L 240.570313 146.136719 L 238.332031 126.019531 L 228.289063 35.167969 L 223.023438 -9 "/>
<path style="fill:none;stroke-width:6;stroke-linecap:round;stroke-linejoin:round;stroke:rgb(100%,100%,100%);stroke-opacity:1;stroke-miterlimit:10;" d="M 103.460938 165.488281 L 87.058594 149.542969 L 84.542969 147.089844 "/>
<path style="fill:none;stroke-width:6;stroke-linecap:round;stroke-linejoin:round;stroke:rgb(100%,100%,100%);stroke-opacity:1;stroke-miterlimit:10;" d="M 245.765625 189.234375 L 211.769531 200.441406 "/>
<path style="fill:none;stroke-width:6;stroke-linecap:round;stroke-linejoin:round;stroke:rgb(100%,100%,100%);stroke-opacity:1;stroke-miterlimit:10;" d="M 238.332031 126.019531 L 264 117.09375 "/>
<path style="fill:none;stroke-width:6;stroke-linecap:round;stroke-linejoin:round;stroke:rgb(100%,100%,100%);stroke-opacity:1;stroke-miterlimit:10;" d="M 240.570313 146.136719 L 231.785156 146.644531 L 216.800781 147.917969 L 210.277344 149.128906 L 154.445313 157.851563 L 141.46875 159.570313 L 137.902344 159.089844 L 132.355469 157.816406 L 126.34375 157.308594 L 120.589844 157.945313 L 114.25 159.027344 L 108.984375 161.289063 L 107.191406 162.976563 L 103.460938 165.488281 L 99.921875 167.878906 L 94.46875 169.246094 L 87.617188 169.660156 "/>
<path style="fill:none;stroke-width:6;stroke-linecap:round;stroke-linejoin:round;stroke:rgb(100%,100%,100%);stroke-opacity:1;stroke-miterlimit:10;" d="M 81.746094 173.226563 L 87.617188 169.660156 L 85.078125 169.214844 L 82 167.527344 L 77.667969 165.585938 L 74.359375 165.265625 L 72.519531 166.09375 L 72.308594 167.621094 L 73.824219 170.265625 L 77.457031 172.523438 L 79.929688 173.511719 L 81.746094 173.226563 "/>
<path style="fill:none;stroke-width:6;stroke-linecap:round;stroke-linejoin:round;stroke:rgb(100%,99.215686%,54.509804%);stroke-opacity:1;stroke-miterlimit:10;" d="M 255.355469 264 L 245.765625 189.234375 L 242.480469 163.546875 L 240.570313 146.136719 L 238.332031 126.019531 L 228.289063 35.167969 L 223.023438 -9 "/>
</g>
</svg>

