<?xml version="1.0" encoding="UTF-8"?>
<svg xmlns="http://www.w3.org/2000/svg" xmlns:xlink="http://www.w3.org/1999/xlink" width="256pt" height="256pt" viewBox="0 0 256 256" version="1.1">
<g id="surface2">
<rect x="0" y="0" width="256" height="256" style="fill:rgb(94.901961%,93.72549%,91.372549%);fill-opacity:1;stroke:none;"/>
<path style=" stroke:none;fill-rule:evenodd;fill:rgb(79.607843%,84.705882%,76.470588%);fill-opacity:1;" d="M -4 260 L 260 260 L -4 260 L -4 241.273438 L 2.589844 235.808594 L 7.980469 239.820313 L 28.277344 219.964844 L 35.738281 229.621094 L 45.46875 220.011719 L 48.503906 220.125 L 53.148438 225.421875 L 54 211.222656 L 61.957031 205.015625 L 63.558594 188.605469 L 57.742188 180.4375 L 56.980469 171.855469 L 55.160156 169.996094 L 55.382813 153.113281 L 62.679688 138.039063 L 63.367188 132.417969 L 60.117188 124.824219 L 38.894531 99.65625 L -3.097656 49.769531 L -4 48.75 L -4 -4 L 140.085938 -4 L 150.714844 7.921875 L 153.636719 10.164063 L 156.679688 9.359375 L 164.652344 1.300781 L 167.464844 -4 L -4 -4 L 260 -4 L 260 260 L 260 -4 L -4 -4 Z M -4 260 Z M -4 -4 Z M -4 260 Z M -4 -4 Z M -4 260 Z M -4 -4 Z M -4 260 Z M -4 135.449219 L -1.484375 146.84375 L -2.257813 151.820313 L -4 152.675781 Z M -4 -4 Z M 260 260 Z M 260 260 "/>
<path style=" stroke:none;fill-rule:evenodd;fill:rgb(60%,70.196078%,80%);fill-opacity:1;" d="M -4 259 L -4 -4 L 259 -4 L -4 -4 Z M -8240539.863281 5629450.980469 Z M -8240539.863281 5629450.980469 Z M -8240539.863281 5628194.546875 Z M -8240539.863281 5628194.546875 Z M -8240539.863281 5629450.980469 Z M -8240539.863281 5628194.546875 Z M -8240539.863281 5628194.546875 Z M -8240539.863281 5628194.546875 Z M -8240539.863281 5629450.980469 Z M -8240539.863281 5628194.546875 Z M -8240539.863281 5628194.546875 "/>
<path style="fill:none;stroke-width:1;stroke-linecap:round;stroke-linejoin:round;stroke:rgb(70.196078%,77.647059%,83.137255%);stroke-opacity:1;stroke-miterlimit:10;" d="M -4 259 L -4 -4 L 259 -4 L -4 -4 L -4 259 "/>
<path style=" stroke:none;fill-rule:evenodd;fill:rgb(60%,70.196078%,80%);fill-opacity:1;" d="M -4 259 L -4 -4 L 259 -4 L -4 -4 Z M -8240539.863281 5629450.980469 Z M -8240539.863281 5629450.980469 Z M -8240539.863281 5628194.546875 Z M -8240539.863281 5628194.546875 Z M -8240539.863281 5629450.980469 Z M -8240539.863281 5628194.546875 Z M -8240539.863281 5628194.546875 Z M -8240539.863281 5628194.546875 Z M -8240539.863281 5629450.980469 Z M -8240539.863281 5628194.546875 Z M -8240539.863281 5628194.546875 "/>
<path style="fill:none;stroke-width:1;stroke-linecap:round;stroke-linejoin:round;stroke:rgb(70.196078%,77.647059%,83.137255%);stroke-opacity:1;stroke-miterlimit:10;" d="M -4 259 L -4 -4 L 259 -4 L -4 -4 L -4 259 "/>
</g>
</svg>

