<?xml version="1.0" encoding="UTF-8"?>
<svg xmlns="http://www.w3.org/2000/svg" xmlns:xlink="http://www.w3.org/1999/xlink" width="256pt" height="256pt" viewBox="0 0 256 256" version="1.1">
<g id="surface2">
<rect x="0" y="0" width="256" height="256" style="fill:rgb(60%,70.196078%,80%);fill-opacity:1;stroke:none;"/>
<path style=" stroke:none;fill-rule:evenodd;fill:rgb(94.901961%,93.72549%,91.372549%);fill-opacity:1;" d="M 259 259 L -4 259 L 31.984375 259 L 31.3125 256.492188 L 29.230469 251.535156 L 27.136719 249.367188 L 22.273438 246.796875 L 18.28125 244.164063 L 15.8125 241.882813 L 14.484375 239.316406 L 14.542969 238.25 L 15.5 236.394531 L 13.058594 228.910156 L 12.324219 221.554688 L 15.5625 215.027344 L 20.324219 207.914063 L 31.453125 200.886719 L 54.523438 199.636719 L 56.039063 198.425781 L 76.960938 146.320313 L 77.234375 142.074219 L 76.296875 139.308594 L 76.355469 136.851563 L 77.78125 133.191406 L 79.570313 132.019531 L 81.765625 131.652344 L 83.886719 129.832031 L 89.636719 115.863281 L 90.480469 111.511719 L 90.527344 107.414063 L 89.902344 103.371094 L 88.40625 100.078125 L 83.261719 94.554688 L 75.753906 88.59375 L 70.933594 84.324219 L 70.78125 82.691406 L 71.222656 81.308594 L 73.371094 77.988281 L 76.023438 74.695313 L 77.164063 74.109375 L 78.617188 74.167969 L 99.796875 85.917969 L 101.960938 86.628906 L 104.054688 86.398438 L 106.0625 84.96875 L 124.722656 57.527344 L 132.175781 45.046875 L 138.421875 37.234375 L 138.546875 34.703125 L 126.269531 2.992188 L 125.617188 -2.6875 L 126.109375 -4 L 259 -4 Z M 259 259 "/>
</g>
</svg>

