<?xml version="1.0" encoding="UTF-8"?>
<svg xmlns="http://www.w3.org/2000/svg" xmlns:xlink="http://www.w3.org/1999/xlink" width="256pt" height="256pt" viewBox="0 0 256 256" version="1.1">
<g id="surface2">
<rect x="0" y="0" width="256" height="256" style="fill:rgb(94.901961%,93.72549%,91.372549%);fill-opacity:1;stroke:none;"/>
<path style=" stroke:none;fill-rule:evenodd;fill:rgb(79.607843%,84.705882%,76.470588%);fill-opacity:1;" d="M -4 260 L 260 260 L 260 -4 L 260 260 Z M -4 260 "/>
<path style=" stroke:none;fill-rule:evenodd;fill:rgb(70.980392%,82.352941%,61.176471%);fill-opacity:1;" d="M -4 260 L 260 260 L 260 -4 L 260 260 Z M -4 260 "/>
<path style="fill:none;stroke-width:10;stroke-linecap:round;stroke-linejoin:round;stroke:rgb(75.686275%,70.980392%,61.568627%);stroke-opacity:1;stroke-miterlimit:10;" d="M 70.25 -11 L 56.449219 13.539063 L 55.375 15.421875 L 46.847656 31.835938 L 41.183594 42.730469 L 34.800781 55.011719 L 16.300781 86.390625 L 2.527344 108.207031 L -3.972656 118.484375 L -11 128.976563 "/>
<path style="fill:none;stroke-width:8;stroke-linecap:round;stroke-linejoin:round;stroke:rgb(100%,99.215686%,54.509804%);stroke-opacity:1;stroke-miterlimit:10;" d="M 70.25 -11 L 56.449219 13.539063 L 55.375 15.421875 L 46.847656 31.835938 L 41.183594 42.730469 L 34.800781 55.011719 L 16.300781 86.390625 L 2.527344 108.207031 L -3.972656 118.484375 L -11 128.976563 "/>
</g>
</svg>

