<?xml version="1.0" encoding="UTF-8"?>
<svg xmlns="http://www.w3.org/2000/svg" xmlns:xlink="http://www.w3.org/1999/xlink" width="256pt" height="256pt" viewBox="0 0 256 256" version="1.1">
<g id="surface2">
<rect x="0" y="0" width="256" height="256" style="fill:rgb(94.901961%,93.72549%,91.372549%);fill-opacity:1;stroke:none;"/>
<path style="fill:none;stroke-width:8;stroke-linecap:round;stroke-linejoin:round;stroke:rgb(75.686275%,70.980392%,61.568627%);stroke-opacity:1;stroke-miterlimit:10;" d="M -9 248.8125 L -5.222656 248.0625 L 0.601563 246.210938 L 4.46875 243.980469 L 8.082031 241.082031 L 10.644531 236.300781 L 13.136719 232.984375 L 15.585938 231.488281 L 18.3125 231.136719 L 22.25 231.136719 L 33.550781 231.679688 L 36.90625 231.007813 L 39.117188 229.640625 L 43.289063 226.515625 L 47.949219 222.210938 L 50.070313 219.027344 L 51.097656 215.613281 "/>
<path style="fill:none;stroke-width:8;stroke-linecap:round;stroke-linejoin:round;stroke:rgb(75.686275%,70.980392%,61.568627%);stroke-opacity:1;stroke-miterlimit:10;" d="M 264 42.933594 L 262.582031 29.34375 L 259.039063 -1.574219 L 257.960938 -9 "/>
<path style="fill:none;stroke-width:8;stroke-linecap:round;stroke-linejoin:round;stroke:rgb(75.686275%,70.980392%,61.568627%);stroke-opacity:1;stroke-miterlimit:10;" d="M 264 257.835938 L 219.078125 263.199219 L 212.703125 264 M 7.203125 264 L -9 258.855469 "/>
<path style="fill:none;stroke-width:6;stroke-linecap:round;stroke-linejoin:round;stroke:rgb(100%,100%,100%);stroke-opacity:1;stroke-miterlimit:10;" d="M -9 248.8125 L -5.222656 248.0625 L 0.601563 246.210938 L 4.46875 243.980469 L 8.082031 241.082031 L 10.644531 236.300781 L 13.136719 232.984375 L 15.585938 231.488281 L 18.3125 231.136719 L 22.25 231.136719 L 33.550781 231.679688 L 36.90625 231.007813 L 39.117188 229.640625 L 43.289063 226.515625 L 47.949219 222.210938 L 50.070313 219.027344 L 51.097656 215.613281 "/>
<path style="fill:none;stroke-width:6;stroke-linecap:round;stroke-linejoin:round;stroke:rgb(100%,100%,100%);stroke-opacity:1;stroke-miterlimit:10;" d="M 264 42.933594 L 262.582031 29.34375 L 259.039063 -1.574219 L 257.960938 -9 "/>
<path style="fill:none;stroke-width:6;stroke-linecap:round;stroke-linejoin:round;stroke:rgb(100%,99.215686%,54.509804%);stroke-opacity:1;stroke-miterlimit:10;" d="M 264 257.835938 L 219.078125 263.199219 L 212.703125 264 M 7.203125 264 L -9 258.855469 "/>
</g>
</svg>

