<?xml version="1.0" encoding="UTF-8"?>
<svg xmlns="http://www.w3.org/2000/svg" xmlns:xlink="http://www.w3.org/1999/xlink" width="256pt" height="256pt" viewBox="0 0 256 256" version="1.1">
<g id="surface2">
<rect x="0" y="0" width="256" height="256" style="fill:rgb(60%,70.196078%,80%);fill-opacity:1;stroke:none;"/>
<path style=" stroke:none;fill-rule:evenodd;fill:rgb(94.901961%,93.72549%,91.372549%);fill-opacity:1;" d="M 259 -4 L 83.679688 -4 L 70.667969 4.328125 L 65.582031 7.476563 L 57.847656 14.921875 L 54.238281 16.890625 L 50.335938 18.5 L 49.570313 19.441406 L 44.824219 25.308594 L 42.8125 28.09375 L 41.371094 31.007813 L 37.679688 29.148438 L 29.75 25.765625 L 21.027344 37.703125 L 19.132813 36.730469 L 16.75 31.542969 L 15.5 30.296875 L 13.5625 30.265625 L 12.679688 31.734375 L 10.238281 44.328125 L 10.738281 50.035156 L 5.097656 58.730469 L -1.152344 72.089844 L -4 75.152344 L -4 259 L -4 -4 Z M 259 -4 "/>
<path style=" stroke:none;fill-rule:evenodd;fill:rgb(60%,70.196078%,80%);fill-opacity:1;" d="M -4 259 L 259 259 L 259 -4 L 83.679688 -4 L 70.667969 4.328125 L 65.582031 7.476563 L 57.847656 14.921875 L 54.238281 16.890625 L 50.335938 18.5 L 49.574219 19.441406 L 44.824219 25.308594 L 42.8125 28.09375 L 41.371094 31.007813 L 37.679688 29.148438 L 29.75 25.765625 L 21.027344 37.703125 L 19.132813 36.734375 L 16.753906 31.542969 L 15.5 30.296875 L 13.5625 30.265625 L 12.679688 31.734375 L 10.238281 44.328125 L 10.738281 50.035156 L 5.097656 58.730469 L -1.152344 72.089844 L -4 75.152344 Z M -4 259 "/>
<path style="fill:none;stroke-width:1;stroke-linecap:round;stroke-linejoin:round;stroke:rgb(70.196078%,77.647059%,83.137255%);stroke-opacity:1;stroke-miterlimit:10;" d="M -4 259 L 259 259 L 259 -4 L 83.679688 -4 L 70.667969 4.328125 L 65.582031 7.476563 L 57.847656 14.921875 L 54.238281 16.890625 L 50.335938 18.5 L 49.574219 19.441406 L 44.824219 25.308594 L 42.8125 28.09375 L 41.371094 31.007813 L 37.679688 29.148438 L 29.75 25.765625 L 21.027344 37.703125 L 19.132813 36.734375 L 16.753906 31.542969 L 15.5 30.296875 L 13.5625 30.265625 L 12.679688 31.734375 L 10.238281 44.328125 L 10.738281 50.035156 L 5.097656 58.730469 L -1.152344 72.089844 L -4 75.152344 L -4 259 "/>
<path style="fill:none;stroke-width:6;stroke-linecap:round;stroke-linejoin:round;stroke:rgb(60%,70.196078%,80%);stroke-opacity:1;stroke-miterlimit:10;" d="M 262 15.476563 L 122.378906 262 "/>
<path style="fill:none;stroke-width:9;stroke-linecap:round;stroke-linejoin:round;stroke:rgb(99.215686%,57.254902%,22.745098%);stroke-opacity:0.4;stroke-miterlimit:10;" d="M -10 213.144531 L 83.710938 265 "/>
<path style="fill:none;stroke-width:9;stroke-linecap:round;stroke-linejoin:round;stroke:rgb(99.215686%,57.254902%,22.745098%);stroke-opacity:0.4;stroke-miterlimit:10;" d="M 98.832031 265 L -10 204.777344 "/>
<path style="fill:none;stroke-width:9;stroke-linecap:round;stroke-linejoin:round;stroke:rgb(99.215686%,57.254902%,22.745098%);stroke-opacity:0.4;stroke-miterlimit:10;" d="M -10 231.367188 L 50.78125 265 "/>
<path style="fill:none;stroke-width:3;stroke-linecap:round;stroke-linejoin:round;stroke:rgb(100%,100%,100%);stroke-opacity:1;stroke-miterlimit:10;" d="M 169.414063 169.539063 L 169.976563 168.539063 L 173.351563 170.460938 L 175.429688 166.804688 L 172.054688 164.882813 L 172.617188 163.882813 L 180.867188 168.554688 L 180.304688 169.554688 L 176.382813 167.335938 L 174.304688 170.992188 L 178.226563 173.210938 L 177.664063 174.210938 Z M 179.480469 165.289063 L 175.746094 163.179688 L 176.261719 162.273438 L 179.980469 164.367188 C 180.554688 164.703125 181.042969 164.851563 181.449219 164.820313 C 181.863281 164.78125 182.1875 164.554688 182.417969 164.148438 C 182.699219 163.648438 182.746094 163.160156 182.558594 162.679688 C 182.371094 162.191406 181.972656 161.773438 181.371094 161.429688 L 177.855469 159.445313 L 178.386719 158.523438 L 184.574219 162.023438 L 184.042969 162.945313 L 183.089844 162.414063 C 183.347656 162.84375 183.484375 163.253906 183.496094 163.648438 C 183.503906 164.046875 183.402344 164.441406 183.183594 164.835938 C 182.828125 165.472656 182.332031 165.832031 181.699219 165.914063 C 181.074219 165.988281 180.335938 165.78125 179.480469 165.289063 Z M 176.902344 160.789063 Z M 182.46875 153.503906 L 179.125 151.613281 L 179.640625 150.707031 L 188.234375 155.566406 L 187.71875 156.472656 L 186.796875 155.941406 C 187.046875 156.339844 187.175781 156.738281 187.1875 157.144531 C 187.195313 157.542969 187.085938 157.941406 186.859375 158.347656 C 186.472656 159.027344 185.863281 159.40625 185.03125 159.488281 C 184.199219 159.574219 183.292969 159.339844 182.3125 158.785156 C 181.34375 158.234375 180.683594 157.578125 180.328125 156.816406 C 179.976563 156.058594 179.992188 155.339844 180.375 154.660156 C 180.605469 154.253906 180.890625 153.957031 181.234375 153.769531 C 181.570313 153.574219 181.980469 153.484375 182.46875 153.503906 Z M 182.859375 157.832031 C 183.609375 158.261719 184.277344 158.457031 184.859375 158.425781 C 185.441406 158.386719 185.867188 158.125 186.140625 157.644531 C 186.410156 157.15625 186.410156 156.65625 186.140625 156.144531 C 185.878906 155.625 185.375 155.152344 184.625 154.722656 C 183.875 154.296875 183.210938 154.105469 182.625 154.144531 C 182.042969 154.175781 181.617188 154.4375 181.34375 154.925781 C 181.074219 155.40625 181.074219 155.90625 181.34375 156.425781 C 181.605469 156.9375 182.109375 157.40625 182.859375 157.832031 Z M 185.296875 146.71875 L 186.265625 147.265625 C 185.964844 147.445313 185.699219 147.652344 185.46875 147.890625 C 185.242188 148.121094 185.042969 148.386719 184.875 148.6875 C 184.617188 149.148438 184.5 149.539063 184.53125 149.859375 C 184.554688 150.171875 184.71875 150.417969 185.03125 150.59375 C 185.261719 150.730469 185.492188 150.75 185.71875 150.65625 C 185.9375 150.5625 186.257813 150.308594 186.671875 149.890625 L 186.921875 149.640625 C 187.445313 149.070313 187.921875 148.730469 188.359375 148.625 C 188.796875 148.511719 189.257813 148.59375 189.75 148.875 C 190.332031 149.199219 190.675781 149.664063 190.78125 150.265625 C 190.882813 150.859375 190.734375 151.515625 190.328125 152.234375 C 190.160156 152.527344 189.953125 152.820313 189.703125 153.109375 C 189.453125 153.390625 189.160156 153.671875 188.828125 153.953125 L 187.78125 153.359375 C 188.167969 153.140625 188.5 152.898438 188.78125 152.625 C 189.070313 152.34375 189.3125 152.042969 189.5 151.71875 C 189.738281 151.292969 189.835938 150.917969 189.796875 150.59375 C 189.765625 150.273438 189.601563 150.027344 189.3125 149.859375 C 189.03125 149.703125 188.769531 149.667969 188.53125 149.75 C 188.292969 149.835938 187.945313 150.117188 187.484375 150.59375 L 187.21875 150.859375 C 186.761719 151.359375 186.324219 151.664063 185.90625 151.765625 C 185.492188 151.871094 185.042969 151.78125 184.5625 151.5 C 183.980469 151.179688 183.640625 150.734375 183.546875 150.171875 C 183.445313 149.609375 183.585938 148.992188 183.96875 148.3125 C 184.15625 147.980469 184.367188 147.679688 184.59375 147.40625 C 184.8125 147.136719 185.046875 146.90625 185.296875 146.71875 Z M 188.035156 143.117188 C 187.753906 143.609375 187.75 144.117188 188.019531 144.648438 C 188.28125 145.179688 188.78125 145.65625 189.519531 146.070313 C 190.269531 146.5 190.9375 146.6875 191.519531 146.632813 C 192.101563 146.582031 192.535156 146.3125 192.816406 145.820313 C 193.085938 145.332031 193.089844 144.828125 192.832031 144.304688 C 192.570313 143.773438 192.070313 143.300781 191.332031 142.882813 C 190.605469 142.46875 189.941406 142.28125 189.347656 142.320313 C 188.746094 142.363281 188.308594 142.628906 188.035156 143.117188 Z M 187.191406 142.632813 C 187.640625 141.832031 188.28125 141.367188 189.113281 141.242188 C 189.9375 141.117188 190.855469 141.34375 191.863281 141.914063 C 192.882813 142.488281 193.550781 143.164063 193.863281 143.945313 C 194.183594 144.726563 194.121094 145.519531 193.675781 146.320313 C 193.214844 147.113281 192.574219 147.570313 191.753906 147.695313 C 190.921875 147.820313 189.996094 147.597656 188.972656 147.023438 C 187.964844 146.453125 187.300781 145.773438 186.988281 144.992188 C 186.667969 144.210938 186.734375 143.425781 187.191406 142.632813 Z M 194.71875 135.390625 L 198.453125 137.515625 L 197.9375 138.4375 L 194.234375 136.34375 C 193.652344 136.011719 193.15625 135.867188 192.75 135.90625 C 192.335938 135.949219 192.011719 136.171875 191.78125 136.578125 C 191.5 137.070313 191.453125 137.558594 191.640625 138.046875 C 191.828125 138.527344 192.226563 138.9375 192.828125 139.28125 L 196.328125 141.265625 L 195.8125 142.1875 L 189.625 138.6875 L 190.140625 137.765625 L 191.109375 138.3125 C 190.859375 137.886719 190.730469 137.46875 190.71875 137.0625 C 190.699219 136.65625 190.796875 136.261719 191.015625 135.875 C 191.382813 135.242188 191.875 134.882813 192.5 134.796875 C 193.125 134.714844 193.867188 134.914063 194.71875 135.390625 Z M 199.472656 126.710938 C 199.671875 126.535156 199.964844 126.421875 200.347656 126.367188 C 200.722656 126.316406 201.199219 126.316406 201.785156 126.367188 L 204.613281 126.632813 L 203.988281 127.710938 L 201.332031 127.460938 C 200.644531 127.390625 200.152344 127.421875 199.847656 127.554688 C 199.535156 127.679688 199.265625 127.945313 199.035156 128.351563 L 198.410156 129.445313 L 201.894531 131.414063 L 201.332031 132.414063 L 193.082031 127.742188 L 194.363281 125.476563 C 194.855469 124.625 195.417969 124.101563 196.050781 123.914063 C 196.675781 123.71875 197.386719 123.84375 198.175781 124.289063 C 198.699219 124.582031 199.066406 124.9375 199.285156 125.351563 C 199.503906 125.769531 199.566406 126.222656 199.472656 126.710938 Z M 194.566406 127.257813 L 197.488281 128.914063 L 198.207031 127.648438 C 198.488281 127.160156 198.574219 126.722656 198.457031 126.335938 C 198.34375 125.953125 198.046875 125.625 197.566406 125.351563 C 197.089844 125.082031 196.660156 125 196.285156 125.101563 C 195.902344 125.207031 195.566406 125.503906 195.285156 125.992188 Z M 199.132813 121.878906 L 199.648438 120.972656 L 205.835938 124.472656 L 205.320313 125.378906 Z M 196.726563 120.519531 L 197.242188 119.613281 L 198.539063 120.332031 L 198.023438 121.238281 Z M 200.359375 119.722656 L 200.90625 118.753906 L 207.078125 119.957031 L 202.875 115.269531 L 203.421875 114.300781 L 208.4375 119.894531 L 207.734375 121.128906 Z M 209.675781 109.886719 L 210.160156 110.167969 L 207.785156 114.371094 C 208.515625 114.726563 209.160156 114.835938 209.722656 114.699219 C 210.273438 114.566406 210.722656 114.195313 211.066406 113.589844 C 211.261719 113.238281 211.402344 112.871094 211.488281 112.496094 C 211.582031 112.113281 211.628906 111.707031 211.628906 111.277344 L 212.597656 111.824219 C 212.566406 112.230469 212.488281 112.632813 212.363281 113.027344 C 212.246094 113.414063 212.089844 113.785156 211.894531 114.136719 C 211.394531 115.023438 210.707031 115.566406 209.832031 115.761719 C 208.96875 115.949219 208.046875 115.769531 207.066406 115.214844 C 206.058594 114.644531 205.394531 113.941406 205.082031 113.105469 C 204.769531 112.273438 204.847656 111.441406 205.316406 110.605469 C 205.746094 109.855469 206.347656 109.417969 207.128906 109.292969 C 207.902344 109.167969 208.75 109.367188 209.675781 109.886719 Z M 208.863281 110.636719 C 208.3125 110.324219 207.792969 110.210938 207.300781 110.292969 C 206.800781 110.367188 206.425781 110.632813 206.175781 111.089844 C 205.886719 111.601563 205.816406 112.101563 205.972656 112.589844 C 206.121094 113.070313 206.46875 113.503906 207.019531 113.886719 Z M 210.476563 104.070313 C 210.351563 104.144531 210.242188 104.234375 210.148438 104.335938 C 210.046875 104.429688 209.953125 104.550781 209.867188 104.695313 C 209.578125 105.21875 209.539063 105.722656 209.757813 106.210938 C 209.96875 106.703125 210.421875 107.144531 211.117188 107.539063 L 214.382813 109.382813 L 213.867188 110.304688 L 207.679688 106.804688 L 208.195313 105.882813 L 209.164063 106.429688 C 208.882813 106.015625 208.742188 105.601563 208.742188 105.195313 C 208.742188 104.78125 208.867188 104.351563 209.117188 103.914063 C 209.148438 103.851563 209.191406 103.789063 209.242188 103.726563 C 209.285156 103.65625 209.347656 103.570313 209.429688 103.476563 Z M 210.476563 104.070313 "/>
<path style=" stroke:none;fill-rule:evenodd;fill:rgb(41.960784%,58.039216%,69.019608%);fill-opacity:1;" d="M 169.414063 169.539063 L 169.976563 168.539063 L 173.351563 170.460938 L 175.429688 166.804688 L 172.054688 164.882813 L 172.617188 163.882813 L 180.867188 168.554688 L 180.304688 169.554688 L 176.382813 167.335938 L 174.304688 170.992188 L 178.226563 173.210938 L 177.664063 174.210938 Z M 179.480469 165.289063 L 175.746094 163.179688 L 176.261719 162.273438 L 179.980469 164.367188 C 180.554688 164.703125 181.042969 164.851563 181.449219 164.820313 C 181.863281 164.78125 182.1875 164.554688 182.417969 164.148438 C 182.699219 163.648438 182.746094 163.160156 182.558594 162.679688 C 182.371094 162.191406 181.972656 161.773438 181.371094 161.429688 L 177.855469 159.445313 L 178.386719 158.523438 L 184.574219 162.023438 L 184.042969 162.945313 L 183.089844 162.414063 C 183.347656 162.84375 183.484375 163.253906 183.496094 163.648438 C 183.503906 164.046875 183.402344 164.441406 183.183594 164.835938 C 182.828125 165.472656 182.332031 165.832031 181.699219 165.914063 C 181.074219 165.988281 180.335938 165.78125 179.480469 165.289063 Z M 176.902344 160.789063 Z M 182.46875 153.503906 L 179.125 151.613281 L 179.640625 150.707031 L 188.234375 155.566406 L 187.71875 156.472656 L 186.796875 155.941406 C 187.046875 156.339844 187.175781 156.738281 187.1875 157.144531 C 187.195313 157.542969 187.085938 157.941406 186.859375 158.347656 C 186.472656 159.027344 185.863281 159.40625 185.03125 159.488281 C 184.199219 159.574219 183.292969 159.339844 182.3125 158.785156 C 181.34375 158.234375 180.683594 157.578125 180.328125 156.816406 C 179.976563 156.058594 179.992188 155.339844 180.375 154.660156 C 180.605469 154.253906 180.890625 153.957031 181.234375 153.769531 C 181.570313 153.574219 181.980469 153.484375 182.46875 153.503906 Z M 182.859375 157.832031 C 183.609375 158.261719 184.277344 158.457031 184.859375 158.425781 C 185.441406 158.386719 185.867188 158.125 186.140625 157.644531 C 186.410156 157.15625 186.410156 156.65625 186.140625 156.144531 C 185.878906 155.625 185.375 155.152344 184.625 154.722656 C 183.875 154.296875 183.210938 154.105469 182.625 154.144531 C 182.042969 154.175781 181.617188 154.4375 181.34375 154.925781 C 181.074219 155.40625 181.074219 155.90625 181.34375 156.425781 C 181.605469 156.9375 182.109375 157.40625 182.859375 157.832031 Z M 185.296875 146.71875 L 186.265625 147.265625 C 185.964844 147.445313 185.699219 147.652344 185.46875 147.890625 C 185.242188 148.121094 185.042969 148.386719 184.875 148.6875 C 184.617188 149.148438 184.5 149.539063 184.53125 149.859375 C 184.554688 150.171875 184.71875 150.417969 185.03125 150.59375 C 185.261719 150.730469 185.492188 150.75 185.71875 150.65625 C 185.9375 150.5625 186.257813 150.308594 186.671875 149.890625 L 186.921875 149.640625 C 187.445313 149.070313 187.921875 148.730469 188.359375 148.625 C 188.796875 148.511719 189.257813 148.59375 189.75 148.875 C 190.332031 149.199219 190.675781 149.664063 190.78125 150.265625 C 190.882813 150.859375 190.734375 151.515625 190.328125 152.234375 C 190.160156 152.527344 189.953125 152.820313 189.703125 153.109375 C 189.453125 153.390625 189.160156 153.671875 188.828125 153.953125 L 187.78125 153.359375 C 188.167969 153.140625 188.5 152.898438 188.78125 152.625 C 189.070313 152.34375 189.3125 152.042969 189.5 151.71875 C 189.738281 151.292969 189.835938 150.917969 189.796875 150.59375 C 189.765625 150.273438 189.601563 150.027344 189.3125 149.859375 C 189.03125 149.703125 188.769531 149.667969 188.53125 149.75 C 188.292969 149.835938 187.945313 150.117188 187.484375 150.59375 L 187.21875 150.859375 C 186.761719 151.359375 186.324219 151.664063 185.90625 151.765625 C 185.492188 151.871094 185.042969 151.78125 184.5625 151.5 C 183.980469 151.179688 183.640625 150.734375 183.546875 150.171875 C 183.445313 149.609375 183.585938 148.992188 183.96875 148.3125 C 184.15625 147.980469 184.367188 147.679688 184.59375 147.40625 C 184.8125 147.136719 185.046875 146.90625 185.296875 146.71875 Z M 188.035156 143.117188 C 187.753906 143.609375 187.75 144.117188 188.019531 144.648438 C 188.28125 145.179688 188.78125 145.65625 189.519531 146.070313 C 190.269531 146.5 190.9375 146.6875 191.519531 146.632813 C 192.101563 146.582031 192.535156 146.3125 192.816406 145.820313 C 193.085938 145.332031 193.089844 144.828125 192.832031 144.304688 C 192.570313 143.773438 192.070313 143.300781 191.332031 142.882813 C 190.605469 142.46875 189.941406 142.28125 189.347656 142.320313 C 188.746094 142.363281 188.308594 142.628906 188.035156 143.117188 Z M 187.191406 142.632813 C 187.640625 141.832031 188.28125 141.367188 189.113281 141.242188 C 189.9375 141.117188 190.855469 141.34375 191.863281 141.914063 C 192.882813 142.488281 193.550781 143.164063 193.863281 143.945313 C 194.183594 144.726563 194.121094 145.519531 193.675781 146.320313 C 193.214844 147.113281 192.574219 147.570313 191.753906 147.695313 C 190.921875 147.820313 189.996094 147.597656 188.972656 147.023438 C 187.964844 146.453125 187.300781 145.773438 186.988281 144.992188 C 186.667969 144.210938 186.734375 143.425781 187.191406 142.632813 Z M 194.71875 135.390625 L 198.453125 137.515625 L 197.9375 138.4375 L 194.234375 136.34375 C 193.652344 136.011719 193.15625 135.867188 192.75 135.90625 C 192.335938 135.949219 192.011719 136.171875 191.78125 136.578125 C 191.5 137.070313 191.453125 137.558594 191.640625 138.046875 C 191.828125 138.527344 192.226563 138.9375 192.828125 139.28125 L 196.328125 141.265625 L 195.8125 142.1875 L 189.625 138.6875 L 190.140625 137.765625 L 191.109375 138.3125 C 190.859375 137.886719 190.730469 137.46875 190.71875 137.0625 C 190.699219 136.65625 190.796875 136.261719 191.015625 135.875 C 191.382813 135.242188 191.875 134.882813 192.5 134.796875 C 193.125 134.714844 193.867188 134.914063 194.71875 135.390625 Z M 199.472656 126.710938 C 199.671875 126.535156 199.964844 126.421875 200.347656 126.367188 C 200.722656 126.316406 201.199219 126.316406 201.785156 126.367188 L 204.613281 126.632813 L 203.988281 127.710938 L 201.332031 127.460938 C 200.644531 127.390625 200.152344 127.421875 199.847656 127.554688 C 199.535156 127.679688 199.265625 127.945313 199.035156 128.351563 L 198.410156 129.445313 L 201.894531 131.414063 L 201.332031 132.414063 L 193.082031 127.742188 L 194.363281 125.476563 C 194.855469 124.625 195.417969 124.101563 196.050781 123.914063 C 196.675781 123.71875 197.386719 123.84375 198.175781 124.289063 C 198.699219 124.582031 199.066406 124.9375 199.285156 125.351563 C 199.503906 125.769531 199.566406 126.222656 199.472656 126.710938 Z M 194.566406 127.257813 L 197.488281 128.914063 L 198.207031 127.648438 C 198.488281 127.160156 198.574219 126.722656 198.457031 126.335938 C 198.34375 125.953125 198.046875 125.625 197.566406 125.351563 C 197.089844 125.082031 196.660156 125 196.285156 125.101563 C 195.902344 125.207031 195.566406 125.503906 195.285156 125.992188 Z M 199.132813 121.878906 L 199.648438 120.972656 L 205.835938 124.472656 L 205.320313 125.378906 Z M 196.726563 120.519531 L 197.242188 119.613281 L 198.539063 120.332031 L 198.023438 121.238281 Z M 200.359375 119.722656 L 200.90625 118.753906 L 207.078125 119.957031 L 202.875 115.269531 L 203.421875 114.300781 L 208.4375 119.894531 L 207.734375 121.128906 Z M 209.675781 109.886719 L 210.160156 110.167969 L 207.785156 114.371094 C 208.515625 114.726563 209.160156 114.835938 209.722656 114.699219 C 210.273438 114.566406 210.722656 114.195313 211.066406 113.589844 C 211.261719 113.238281 211.402344 112.871094 211.488281 112.496094 C 211.582031 112.113281 211.628906 111.707031 211.628906 111.277344 L 212.597656 111.824219 C 212.566406 112.230469 212.488281 112.632813 212.363281 113.027344 C 212.246094 113.414063 212.089844 113.785156 211.894531 114.136719 C 211.394531 115.023438 210.707031 115.566406 209.832031 115.761719 C 208.96875 115.949219 208.046875 115.769531 207.066406 115.214844 C 206.058594 114.644531 205.394531 113.941406 205.082031 113.105469 C 204.769531 112.273438 204.847656 111.441406 205.316406 110.605469 C 205.746094 109.855469 206.347656 109.417969 207.128906 109.292969 C 207.902344 109.167969 208.75 109.367188 209.675781 109.886719 Z M 208.863281 110.636719 C 208.3125 110.324219 207.792969 110.210938 207.300781 110.292969 C 206.800781 110.367188 206.425781 110.632813 206.175781 111.089844 C 205.886719 111.601563 205.816406 112.101563 205.972656 112.589844 C 206.121094 113.070313 206.46875 113.503906 207.019531 113.886719 Z M 210.476563 104.070313 C 210.351563 104.144531 210.242188 104.234375 210.148438 104.335938 C 210.046875 104.429688 209.953125 104.550781 209.867188 104.695313 C 209.578125 105.21875 209.539063 105.722656 209.757813 106.210938 C 209.96875 106.703125 210.421875 107.144531 211.117188 107.539063 L 214.382813 109.382813 L 213.867188 110.304688 L 207.679688 106.804688 L 208.195313 105.882813 L 209.164063 106.429688 C 208.882813 106.015625 208.742188 105.601563 208.742188 105.195313 C 208.742188 104.78125 208.867188 104.351563 209.117188 103.914063 C 209.148438 103.851563 209.191406 103.789063 209.242188 103.726563 C 209.285156 103.65625 209.347656 103.570313 209.429688 103.476563 Z M 210.476563 104.070313 "/>
</g>
</svg>

