<?xml version="1.0" encoding="UTF-8"?>
<svg xmlns="http://www.w3.org/2000/svg" xmlns:xlink="http://www.w3.org/1999/xlink" width="256pt" height="256pt" viewBox="0 0 256 256" version="1.1">
<g id="surface2">
<rect x="0" y="0" width="256" height="256" style="fill:rgb(94.901961%,93.72549%,91.372549%);fill-opacity:1;stroke:none;"/>
<path style=" stroke:none;fill-rule:evenodd;fill:rgb(60%,70.196078%,80%);fill-opacity:1;" d="M -4 -4 L 259 -4 L 259 259 L 259 -4 Z M -4 -4 "/>
<path style="fill:none;stroke-width:1;stroke-linecap:round;stroke-linejoin:round;stroke:rgb(70.196078%,77.647059%,83.137255%);stroke-opacity:1;stroke-miterlimit:10;" d="M -4 -4 L 259 -4 L 259 259 L 259 -4 L -4 -4 "/>
<path style="fill:none;stroke-width:8;stroke-linecap:round;stroke-linejoin:round;stroke:rgb(75.686275%,70.980392%,61.568627%);stroke-opacity:1;stroke-miterlimit:10;" d="M 166.941406 25.390625 L 154.832031 31.207031 L 151.972656 35.667969 L 151.1875 42.675781 "/>
<path style="fill:none;stroke-width:8;stroke-linecap:round;stroke-linejoin:round;stroke:rgb(75.686275%,70.980392%,61.568627%);stroke-opacity:1;stroke-miterlimit:10;" d="M 264 133.613281 L 253.457031 135.71875 L 226.535156 142.417969 L 205.988281 156.75 L 197.191406 171.183594 L 206.316406 192.269531 "/>
<path style="fill:none;stroke-width:8;stroke-linecap:round;stroke-linejoin:round;stroke:rgb(75.686275%,70.980392%,61.568627%);stroke-opacity:1;stroke-miterlimit:10;" d="M 264 112.039063 L 244.289063 95.957031 L 182.589844 43.335938 L 166.941406 25.390625 L 160.835938 14.222656 L 154.691406 -0.367188 L 152.535156 -9 "/>
<path style="fill:none;stroke-width:6;stroke-linecap:round;stroke-linejoin:round;stroke:rgb(100%,100%,100%);stroke-opacity:1;stroke-miterlimit:10;" d="M 166.941406 25.390625 L 154.832031 31.207031 L 151.972656 35.667969 L 151.1875 42.675781 "/>
<path style="fill:none;stroke-width:6;stroke-linecap:round;stroke-linejoin:round;stroke:rgb(100%,100%,100%);stroke-opacity:1;stroke-miterlimit:10;" d="M 264 133.613281 L 253.457031 135.71875 L 226.535156 142.417969 L 205.988281 156.75 L 197.191406 171.183594 L 206.316406 192.269531 "/>
<path style="fill:none;stroke-width:6;stroke-linecap:round;stroke-linejoin:round;stroke:rgb(100%,99.215686%,54.509804%);stroke-opacity:1;stroke-miterlimit:10;" d="M 264 112.039063 L 244.289063 95.957031 L 182.589844 43.335938 L 166.941406 25.390625 L 160.835938 14.222656 L 154.691406 -0.367188 L 152.535156 -9 "/>
</g>
</svg>

