<?xml version="1.0" encoding="UTF-8"?>
<svg xmlns="http://www.w3.org/2000/svg" xmlns:xlink="http://www.w3.org/1999/xlink" width="256pt" height="256pt" viewBox="0 0 256 256" version="1.1">
<g id="surface2">
<rect x="0" y="0" width="256" height="256" style="fill:rgb(94.901961%,93.72549%,91.372549%);fill-opacity:1;stroke:none;"/>
<path style=" stroke:none;fill-rule:evenodd;fill:rgb(70.980392%,82.352941%,61.176471%);fill-opacity:1;" d="M -4 135.457031 L 1.574219 132.011719 L 5.507813 131.710938 L 11.917969 125.710938 L 19.304688 123.988281 L 23.367188 125.359375 L 33.5625 124.671875 L 38.75 122.136719 L 42.300781 117.765625 L 41.550781 112.929688 L 16.976563 86.640625 L 8.511719 80.941406 L 0.484375 72.875 L -4 70.21875 Z M 37.898438 113.671875 L 40.554688 116.636719 L 37.695313 119.40625 L 35.695313 118.46875 L 34.953125 116.398438 Z M 37.898438 113.671875 "/>
<path style=" stroke:none;fill-rule:evenodd;fill:rgb(60%,70.196078%,80%);fill-opacity:1;" d="M -4 259 L 259 259 L 259 57.652344 L 197.003906 73.789063 L 40.867188 120.097656 L 29.289063 125.929688 L 22.976563 124.875 L 15.59375 125.925781 L 12.035156 125.734375 L 7.714844 128.796875 L -4 134.863281 Z M -4 259 "/>
<path style="fill:none;stroke-width:1;stroke-linecap:round;stroke-linejoin:round;stroke:rgb(70.196078%,77.647059%,83.137255%);stroke-opacity:1;stroke-miterlimit:10;" d="M -4 259 L 259 259 L 259 57.652344 L 197.003906 73.789063 L 40.867188 120.097656 L 29.289063 125.929688 L 22.976563 124.875 L 15.59375 125.925781 L 12.035156 125.734375 L 7.714844 128.796875 L -4 134.863281 L -4 259 "/>
<path style=" stroke:none;fill-rule:evenodd;fill:rgb(60%,70.196078%,80%);fill-opacity:1;" d="M -4 -4 L -4 66.941406 L -2.816406 67.285156 L 23.691406 92.546875 L 41.351563 112.558594 L 40.867188 120.097656 L 197.003906 73.789063 L 259 57.652344 L 259 -4 L -4 -4 L 259 -4 Z M -4 -4 "/>
<path style="fill:none;stroke-width:1;stroke-linecap:round;stroke-linejoin:round;stroke:rgb(70.196078%,77.647059%,83.137255%);stroke-opacity:1;stroke-miterlimit:10;" d="M -4 -4 L -4 66.941406 L -2.816406 67.285156 L 23.691406 92.546875 L 41.351563 112.558594 L 40.867188 120.097656 L 197.003906 73.789063 L 259 57.652344 L 259 -4 L -4 -4 L 259 -4 L -4 -4 "/>
<path style="fill:none;stroke-width:6;stroke-linecap:round;stroke-linejoin:round;stroke:rgb(60%,70.196078%,80%);stroke-opacity:1;stroke-miterlimit:10;" d="M 124.746094 -7 L 203.707031 70.5625 L 262 176.203125 "/>
<path style="fill:none;stroke-width:1;stroke-linecap:round;stroke-linejoin:round;stroke:rgb(100%,100%,100%);stroke-opacity:1;stroke-dasharray:2,3;stroke-miterlimit:10;" d="M -2 125.347656 L -0.25 124.503906 L 4.410156 121.972656 L 7.371094 120.25 L 9.535156 117.847656 L 11.660156 116.097656 L 14.871094 116.003906 L 17.496094 116.128906 L 19.496094 114.628906 "/>
<path style="fill:none;stroke-width:3;stroke-linecap:round;stroke-linejoin:round;stroke:rgb(100%,100%,100%);stroke-opacity:1;stroke-miterlimit:10;" d="M 183.285156 44.222656 L 184.097656 45.019531 L 181.378906 47.800781 L 184.378906 50.753906 L 187.097656 47.972656 L 187.925781 48.769531 L 181.285156 55.535156 L 180.457031 54.738281 L 183.628906 51.519531 L 180.628906 48.566406 L 177.457031 51.785156 L 176.644531 50.988281 Z M 184.777344 55.042969 L 187.792969 51.964844 L 188.527344 52.699219 L 185.542969 55.746094 C 185.074219 56.226563 184.800781 56.660156 184.730469 57.058594 C 184.667969 57.464844 184.800781 57.832031 185.136719 58.167969 C 185.542969 58.5625 186 58.734375 186.511719 58.683594 C 187.03125 58.628906 187.535156 58.355469 188.027344 57.855469 L 190.855469 54.980469 L 191.605469 55.714844 L 186.621094 60.792969 L 185.871094 60.058594 L 186.636719 59.277344 C 186.15625 59.410156 185.71875 59.433594 185.324219 59.339844 C 184.9375 59.253906 184.589844 59.058594 184.277344 58.746094 C 183.753906 58.234375 183.535156 57.660156 183.621094 57.027344 C 183.703125 56.402344 184.089844 55.742188 184.777344 55.042969 Z M 189.792969 53.699219 Z M 195.402344 60.960938 L 198.105469 58.210938 L 198.839844 58.945313 L 191.917969 65.992188 L 191.183594 65.257813 L 191.933594 64.492188 C 191.484375 64.648438 191.0625 64.679688 190.667969 64.585938 C 190.28125 64.5 189.921875 64.292969 189.589844 63.960938 C 189.035156 63.417969 188.824219 62.730469 188.949219 61.898438 C 189.082031 61.066406 189.542969 60.253906 190.324219 59.460938 C 191.105469 58.671875 191.910156 58.203125 192.746094 58.054688 C 193.578125 57.898438 194.269531 58.09375 194.824219 58.632813 C 195.15625 58.96875 195.371094 59.328125 195.464844 59.710938 C 195.566406 60.085938 195.546875 60.503906 195.402344 60.960938 Z M 191.105469 60.226563 C 190.511719 60.84375 190.15625 61.4375 190.042969 62.007813 C 189.925781 62.578125 190.066406 63.058594 190.464844 63.445313 C 190.859375 63.839844 191.34375 63.96875 191.917969 63.835938 C 192.488281 63.710938 193.074219 63.339844 193.667969 62.726563 C 194.269531 62.109375 194.625 61.523438 194.730469 60.960938 C 194.84375 60.398438 194.703125 59.921875 194.308594 59.523438 C 193.910156 59.140625 193.425781 59.007813 192.855469 59.132813 C 192.292969 59.25 191.707031 59.613281 191.105469 60.226563 Z M 201.226563 65.460938 L 200.445313 66.242188 C 200.339844 65.910156 200.203125 65.609375 200.039063 65.335938 C 199.871094 65.054688 199.664063 64.789063 199.414063 64.539063 C 199.039063 64.175781 198.695313 63.96875 198.382813 63.914063 C 198.078125 63.851563 197.804688 63.945313 197.554688 64.195313 C 197.367188 64.394531 197.28125 64.613281 197.304688 64.851563 C 197.335938 65.09375 197.5 65.457031 197.804688 65.945313 L 197.992188 66.273438 C 198.398438 66.917969 198.601563 67.464844 198.601563 67.914063 C 198.601563 68.359375 198.398438 68.789063 197.992188 69.195313 C 197.523438 69.671875 196.984375 69.886719 196.382813 69.835938 C 195.789063 69.78125 195.195313 69.46875 194.601563 68.898438 C 194.359375 68.667969 194.132813 68.390625 193.914063 68.070313 C 193.695313 67.757813 193.496094 67.402344 193.320313 67.007813 L 194.164063 66.148438 C 194.277344 66.585938 194.429688 66.96875 194.617188 67.304688 C 194.8125 67.648438 195.046875 67.949219 195.320313 68.210938 C 195.664063 68.554688 195.996094 68.75 196.320313 68.804688 C 196.640625 68.855469 196.921875 68.757813 197.164063 68.507813 C 197.382813 68.289063 197.480469 68.046875 197.460938 67.789063 C 197.4375 67.527344 197.257813 67.121094 196.914063 66.570313 L 196.726563 66.242188 C 196.359375 65.671875 196.183594 65.171875 196.195313 64.742188 C 196.214844 64.316406 196.417969 63.90625 196.804688 63.507813 C 197.261719 63.03125 197.773438 62.816406 198.335938 62.867188 C 198.90625 62.910156 199.46875 63.207031 200.023438 63.757813 C 200.304688 64.03125 200.542969 64.304688 200.742188 64.585938 C 200.9375 64.867188 201.101563 65.160156 201.226563 65.460938 Z M 203.800781 69.386719 C 203.445313 68.960938 202.972656 68.777344 202.378906 68.839844 C 201.792969 68.894531 201.175781 69.183594 200.519531 69.714844 C 199.851563 70.257813 199.433594 70.808594 199.269531 71.371094 C 199.101563 71.933594 199.195313 72.425781 199.550781 72.855469 C 199.902344 73.292969 200.371094 73.484375 200.957031 73.433594 C 201.550781 73.378906 202.175781 73.082031 202.832031 72.542969 C 203.488281 72.011719 203.898438 71.457031 204.066406 70.886719 C 204.242188 70.324219 204.152344 69.824219 203.800781 69.386719 Z M 204.566406 68.761719 C 205.148438 69.480469 205.347656 70.253906 205.160156 71.074219 C 204.980469 71.894531 204.441406 72.671875 203.535156 73.402344 C 202.628906 74.140625 201.753906 74.519531 200.910156 74.542969 C 200.074219 74.5625 199.367188 74.214844 198.785156 73.496094 C 198.199219 72.785156 197.996094 72.019531 198.175781 71.199219 C 198.363281 70.378906 198.910156 69.597656 199.816406 68.855469 C 200.722656 68.128906 201.589844 67.753906 202.425781 67.730469 C 203.269531 67.710938 203.980469 68.054688 204.566406 68.761719 Z M 207.511719 78.894531 L 203.746094 80.972656 L 203.230469 80.050781 L 206.949219 78.003906 C 207.542969 77.667969 207.925781 77.316406 208.105469 76.941406 C 208.28125 76.574219 208.253906 76.191406 208.027344 75.785156 C 207.753906 75.285156 207.363281 74.988281 206.855469 74.894531 C 206.355469 74.800781 205.796875 74.925781 205.183594 75.269531 L 201.667969 77.207031 L 201.152344 76.285156 L 207.371094 72.847656 L 207.886719 73.769531 L 206.917969 74.300781 C 207.40625 74.324219 207.828125 74.433594 208.183594 74.628906 C 208.535156 74.816406 208.816406 75.109375 209.027344 75.503906 C 209.378906 76.136719 209.425781 76.742188 209.167969 77.316406 C 208.917969 77.898438 208.363281 78.425781 207.511719 78.894531 Z M 212.410156 87.507813 C 212.449219 87.765625 212.394531 88.070313 212.238281 88.414063 C 212.089844 88.765625 211.839844 89.179688 211.488281 89.648438 L 209.785156 91.929688 L 209.175781 90.835938 L 210.800781 88.710938 C 211.214844 88.15625 211.445313 87.714844 211.488281 87.382813 C 211.539063 87.046875 211.457031 86.683594 211.238281 86.289063 L 210.628906 85.179688 L 207.128906 87.117188 L 206.582031 86.117188 L 214.878906 81.539063 L 216.128906 83.804688 C 216.597656 84.660156 216.746094 85.402344 216.582031 86.039063 C 216.425781 86.683594 215.945313 87.226563 215.144531 87.664063 C 214.621094 87.953125 214.128906 88.085938 213.660156 88.054688 C 213.199219 88.03125 212.785156 87.851563 212.410156 87.507813 Z M 214.503906 83.054688 L 211.566406 84.664063 L 212.269531 85.929688 C 212.539063 86.417969 212.867188 86.71875 213.253906 86.835938 C 213.636719 86.949219 214.070313 86.871094 214.550781 86.601563 C 215.039063 86.339844 215.335938 86.015625 215.441406 85.632813 C 215.554688 85.246094 215.476563 84.8125 215.207031 84.320313 Z M 216.695313 89.746094 L 217.210938 90.667969 L 210.992188 94.105469 L 210.476563 93.183594 Z M 219.117188 88.417969 L 219.632813 89.339844 L 218.335938 90.058594 L 217.820313 89.136719 Z M 217.90625 91.921875 L 218.4375 92.890625 L 214.1875 97.53125 L 220.375 96.40625 L 220.90625 97.390625 L 213.53125 98.71875 L 212.84375 97.46875 Z M 221.390625 105.027344 L 220.90625 105.308594 L 218.578125 101.058594 C 217.890625 101.496094 217.457031 101.984375 217.28125 102.527344 C 217.101563 103.066406 217.1875 103.644531 217.53125 104.261719 C 217.71875 104.613281 217.945313 104.925781 218.21875 105.199219 C 218.5 105.480469 218.828125 105.734375 219.203125 105.964844 L 218.234375 106.496094 C 217.890625 106.246094 217.582031 105.96875 217.3125 105.667969 C 217.039063 105.375 216.804688 105.046875 216.609375 104.683594 C 216.109375 103.796875 216.003906 102.925781 216.296875 102.074219 C 216.597656 101.230469 217.238281 100.539063 218.21875 99.996094 C 219.238281 99.433594 220.179688 99.238281 221.046875 99.402344 C 221.921875 99.570313 222.59375 100.074219 223.0625 100.917969 C 223.476563 101.675781 223.535156 102.421875 223.234375 103.152344 C 222.941406 103.890625 222.328125 104.515625 221.390625 105.027344 Z M 221.203125 103.933594 C 221.753906 103.621094 222.125 103.234375 222.3125 102.777344 C 222.5 102.316406 222.460938 101.859375 222.203125 101.402344 C 221.921875 100.882813 221.53125 100.558594 221.03125 100.433594 C 220.539063 100.308594 219.992188 100.386719 219.390625 100.667969 Z M 225.933594 108.742188 C 225.933594 108.605469 225.910156 108.464844 225.871094 108.320313 C 225.839844 108.171875 225.785156 108.027344 225.714844 107.882813 C 225.421875 107.363281 225.015625 107.070313 224.496094 107.007813 C 223.972656 106.9375 223.359375 107.09375 222.652344 107.476563 L 219.371094 109.289063 L 218.855469 108.367188 L 225.074219 104.929688 L 225.589844 105.851563 L 224.621094 106.382813 C 225.109375 106.363281 225.53125 106.460938 225.886719 106.679688 C 226.238281 106.890625 226.535156 107.210938 226.777344 107.648438 C 226.808594 107.710938 226.839844 107.78125 226.871094 107.867188 C 226.902344 107.949219 226.9375 108.046875 226.980469 108.164063 Z M 225.933594 108.742188 "/>
<path style=" stroke:none;fill-rule:evenodd;fill:rgb(41.960784%,58.039216%,69.019608%);fill-opacity:1;" d="M 183.285156 44.222656 L 184.097656 45.019531 L 181.378906 47.800781 L 184.378906 50.753906 L 187.097656 47.972656 L 187.925781 48.769531 L 181.285156 55.535156 L 180.457031 54.738281 L 183.628906 51.519531 L 180.628906 48.566406 L 177.457031 51.785156 L 176.644531 50.988281 Z M 184.777344 55.042969 L 187.792969 51.964844 L 188.527344 52.699219 L 185.542969 55.746094 C 185.074219 56.226563 184.800781 56.660156 184.730469 57.058594 C 184.667969 57.464844 184.800781 57.832031 185.136719 58.167969 C 185.542969 58.5625 186 58.734375 186.511719 58.683594 C 187.03125 58.628906 187.535156 58.355469 188.027344 57.855469 L 190.855469 54.980469 L 191.605469 55.714844 L 186.621094 60.792969 L 185.871094 60.058594 L 186.636719 59.277344 C 186.15625 59.410156 185.71875 59.433594 185.324219 59.339844 C 184.9375 59.253906 184.589844 59.058594 184.277344 58.746094 C 183.753906 58.234375 183.535156 57.660156 183.621094 57.027344 C 183.703125 56.402344 184.089844 55.742188 184.777344 55.042969 Z M 189.792969 53.699219 Z M 195.402344 60.960938 L 198.105469 58.210938 L 198.839844 58.945313 L 191.917969 65.992188 L 191.183594 65.257813 L 191.933594 64.492188 C 191.484375 64.648438 191.0625 64.679688 190.667969 64.585938 C 190.28125 64.5 189.921875 64.292969 189.589844 63.960938 C 189.035156 63.417969 188.824219 62.730469 188.949219 61.898438 C 189.082031 61.066406 189.542969 60.253906 190.324219 59.460938 C 191.105469 58.671875 191.910156 58.203125 192.746094 58.054688 C 193.578125 57.898438 194.269531 58.09375 194.824219 58.632813 C 195.15625 58.96875 195.371094 59.328125 195.464844 59.710938 C 195.566406 60.085938 195.546875 60.503906 195.402344 60.960938 Z M 191.105469 60.226563 C 190.511719 60.84375 190.15625 61.4375 190.042969 62.007813 C 189.925781 62.578125 190.066406 63.058594 190.464844 63.445313 C 190.859375 63.839844 191.34375 63.96875 191.917969 63.835938 C 192.488281 63.710938 193.074219 63.339844 193.667969 62.726563 C 194.269531 62.109375 194.625 61.523438 194.730469 60.960938 C 194.84375 60.398438 194.703125 59.921875 194.308594 59.523438 C 193.910156 59.140625 193.425781 59.007813 192.855469 59.132813 C 192.292969 59.25 191.707031 59.613281 191.105469 60.226563 Z M 201.226563 65.460938 L 200.445313 66.242188 C 200.339844 65.910156 200.203125 65.609375 200.039063 65.335938 C 199.871094 65.054688 199.664063 64.789063 199.414063 64.539063 C 199.039063 64.175781 198.695313 63.96875 198.382813 63.914063 C 198.078125 63.851563 197.804688 63.945313 197.554688 64.195313 C 197.367188 64.394531 197.28125 64.613281 197.304688 64.851563 C 197.335938 65.09375 197.5 65.457031 197.804688 65.945313 L 197.992188 66.273438 C 198.398438 66.917969 198.601563 67.464844 198.601563 67.914063 C 198.601563 68.359375 198.398438 68.789063 197.992188 69.195313 C 197.523438 69.671875 196.984375 69.886719 196.382813 69.835938 C 195.789063 69.78125 195.195313 69.46875 194.601563 68.898438 C 194.359375 68.667969 194.132813 68.390625 193.914063 68.070313 C 193.695313 67.757813 193.496094 67.402344 193.320313 67.007813 L 194.164063 66.148438 C 194.277344 66.585938 194.429688 66.96875 194.617188 67.304688 C 194.8125 67.648438 195.046875 67.949219 195.320313 68.210938 C 195.664063 68.554688 195.996094 68.75 196.320313 68.804688 C 196.640625 68.855469 196.921875 68.757813 197.164063 68.507813 C 197.382813 68.289063 197.480469 68.046875 197.460938 67.789063 C 197.4375 67.527344 197.257813 67.121094 196.914063 66.570313 L 196.726563 66.242188 C 196.359375 65.671875 196.183594 65.171875 196.195313 64.742188 C 196.214844 64.316406 196.417969 63.90625 196.804688 63.507813 C 197.261719 63.03125 197.773438 62.816406 198.335938 62.867188 C 198.90625 62.910156 199.46875 63.207031 200.023438 63.757813 C 200.304688 64.03125 200.542969 64.304688 200.742188 64.585938 C 200.9375 64.867188 201.101563 65.160156 201.226563 65.460938 Z M 203.800781 69.386719 C 203.445313 68.960938 202.972656 68.777344 202.378906 68.839844 C 201.792969 68.894531 201.175781 69.183594 200.519531 69.714844 C 199.851563 70.257813 199.433594 70.808594 199.269531 71.371094 C 199.101563 71.933594 199.195313 72.425781 199.550781 72.855469 C 199.902344 73.292969 200.371094 73.484375 200.957031 73.433594 C 201.550781 73.378906 202.175781 73.082031 202.832031 72.542969 C 203.488281 72.011719 203.898438 71.457031 204.066406 70.886719 C 204.242188 70.324219 204.152344 69.824219 203.800781 69.386719 Z M 204.566406 68.761719 C 205.148438 69.480469 205.347656 70.253906 205.160156 71.074219 C 204.980469 71.894531 204.441406 72.671875 203.535156 73.402344 C 202.628906 74.140625 201.753906 74.519531 200.910156 74.542969 C 200.074219 74.5625 199.367188 74.214844 198.785156 73.496094 C 198.199219 72.785156 197.996094 72.019531 198.175781 71.199219 C 198.363281 70.378906 198.910156 69.597656 199.816406 68.855469 C 200.722656 68.128906 201.589844 67.753906 202.425781 67.730469 C 203.269531 67.710938 203.980469 68.054688 204.566406 68.761719 Z M 207.511719 78.894531 L 203.746094 80.972656 L 203.230469 80.050781 L 206.949219 78.003906 C 207.542969 77.667969 207.925781 77.316406 208.105469 76.941406 C 208.28125 76.574219 208.253906 76.191406 208.027344 75.785156 C 207.753906 75.285156 207.363281 74.988281 206.855469 74.894531 C 206.355469 74.800781 205.796875 74.925781 205.183594 75.269531 L 201.667969 77.207031 L 201.152344 76.285156 L 207.371094 72.847656 L 207.886719 73.769531 L 206.917969 74.300781 C 207.40625 74.324219 207.828125 74.433594 208.183594 74.628906 C 208.535156 74.816406 208.816406 75.109375 209.027344 75.503906 C 209.378906 76.136719 209.425781 76.742188 209.167969 77.316406 C 208.917969 77.898438 208.363281 78.425781 207.511719 78.894531 Z M 212.410156 87.507813 C 212.449219 87.765625 212.394531 88.070313 212.238281 88.414063 C 212.089844 88.765625 211.839844 89.179688 211.488281 89.648438 L 209.785156 91.929688 L 209.175781 90.835938 L 210.800781 88.710938 C 211.214844 88.15625 211.445313 87.714844 211.488281 87.382813 C 211.539063 87.046875 211.457031 86.683594 211.238281 86.289063 L 210.628906 85.179688 L 207.128906 87.117188 L 206.582031 86.117188 L 214.878906 81.539063 L 216.128906 83.804688 C 216.597656 84.660156 216.746094 85.402344 216.582031 86.039063 C 216.425781 86.683594 215.945313 87.226563 215.144531 87.664063 C 214.621094 87.953125 214.128906 88.085938 213.660156 88.054688 C 213.199219 88.03125 212.785156 87.851563 212.410156 87.507813 Z M 214.503906 83.054688 L 211.566406 84.664063 L 212.269531 85.929688 C 212.539063 86.417969 212.867188 86.71875 213.253906 86.835938 C 213.636719 86.949219 214.070313 86.871094 214.550781 86.601563 C 215.039063 86.339844 215.335938 86.015625 215.441406 85.632813 C 215.554688 85.246094 215.476563 84.8125 215.207031 84.320313 Z M 216.695313 89.746094 L 217.210938 90.667969 L 210.992188 94.105469 L 210.476563 93.183594 Z M 219.117188 88.417969 L 219.632813 89.339844 L 218.335938 90.058594 L 217.820313 89.136719 Z M 217.90625 91.921875 L 218.4375 92.890625 L 214.1875 97.53125 L 220.375 96.40625 L 220.90625 97.390625 L 213.53125 98.71875 L 212.84375 97.46875 Z M 221.390625 105.027344 L 220.90625 105.308594 L 218.578125 101.058594 C 217.890625 101.496094 217.457031 101.984375 217.28125 102.527344 C 217.101563 103.066406 217.1875 103.644531 217.53125 104.261719 C 217.71875 104.613281 217.945313 104.925781 218.21875 105.199219 C 218.5 105.480469 218.828125 105.734375 219.203125 105.964844 L 218.234375 106.496094 C 217.890625 106.246094 217.582031 105.96875 217.3125 105.667969 C 217.039063 105.375 216.804688 105.046875 216.609375 104.683594 C 216.109375 103.796875 216.003906 102.925781 216.296875 102.074219 C 216.597656 101.230469 217.238281 100.539063 218.21875 99.996094 C 219.238281 99.433594 220.179688 99.238281 221.046875 99.402344 C 221.921875 99.570313 222.59375 100.074219 223.0625 100.917969 C 223.476563 101.675781 223.535156 102.421875 223.234375 103.152344 C 222.941406 103.890625 222.328125 104.515625 221.390625 105.027344 Z M 221.203125 103.933594 C 221.753906 103.621094 222.125 103.234375 222.3125 102.777344 C 222.5 102.316406 222.460938 101.859375 222.203125 101.402344 C 221.921875 100.882813 221.53125 100.558594 221.03125 100.433594 C 220.539063 100.308594 219.992188 100.386719 219.390625 100.667969 Z M 225.933594 108.742188 C 225.933594 108.605469 225.910156 108.464844 225.871094 108.320313 C 225.839844 108.171875 225.785156 108.027344 225.714844 107.882813 C 225.421875 107.363281 225.015625 107.070313 224.496094 107.007813 C 223.972656 106.9375 223.359375 107.09375 222.652344 107.476563 L 219.371094 109.289063 L 218.855469 108.367188 L 225.074219 104.929688 L 225.589844 105.851563 L 224.621094 106.382813 C 225.109375 106.363281 225.53125 106.460938 225.886719 106.679688 C 226.238281 106.890625 226.535156 107.210938 226.777344 107.648438 C 226.808594 107.710938 226.839844 107.78125 226.871094 107.867188 C 226.902344 107.949219 226.9375 108.046875 226.980469 108.164063 Z M 225.933594 108.742188 "/>
</g>
</svg>

