<?xml version="1.0" encoding="UTF-8"?>
<svg xmlns="http://www.w3.org/2000/svg" xmlns:xlink="http://www.w3.org/1999/xlink" width="256pt" height="256pt" viewBox="0 0 256 256" version="1.1">
<g id="surface2">
<rect x="0" y="0" width="256" height="256" style="fill:rgb(60%,70.196078%,80%);fill-opacity:1;stroke:none;"/>
<path style=" stroke:none;fill-rule:evenodd;fill:rgb(94.901961%,93.72549%,91.372549%);fill-opacity:1;" d="M 259 259 L 192.566406 259 L 178.300781 230.109375 L 173.5 216.507813 L 170.5 205.507813 L 163.632813 159.753906 L 148.136719 70.839844 L 142.59375 56.058594 L 143.347656 53.78125 L 143.054688 50.480469 L 141.796875 47.566406 L 142.050781 41.507813 L 143.105469 28.789063 L 141.890625 8.34375 L 140.050781 -4 L 259 -4 Z M 259 259 "/>
<path style=" stroke:none;fill-rule:evenodd;fill:rgb(70.980392%,82.352941%,61.176471%);fill-opacity:1;" d="M 154.804688 -4 L 155.332031 7.960938 L 156.632813 29.855469 L 159.238281 52.628906 L 160.035156 61.460938 L 161.109375 70.964844 L 176.054688 158.5625 L 182.28125 196.691406 L 186.601563 212.46875 L 190.808594 223.175781 L 198.464844 242.042969 L 207.726563 257.792969 L 209.34375 260 L 260 260 L 246.519531 260 L 239.90625 242.203125 L 231.671875 217.082031 L 225.8125 199.785156 L 216.710938 183.089844 L 208.265625 168.746094 L 185.636719 120.210938 L 177.902344 97.738281 L 170.648438 80 L 167.023438 67.421875 L 166.109375 49.113281 L 171.234375 25.976563 L 173.957031 15.820313 L 175.125 8.953125 L 174.207031 2.464844 L 172.253906 -4 L 260 -4 Z M 154.804688 -4 "/>
<path style=" stroke:none;fill-rule:evenodd;fill:rgb(70.980392%,82.352941%,61.176471%);fill-opacity:1;" d="M 260 36.328125 L 260 -3.851563 L 259.519531 -4 L 246.585938 -4 L 236.335938 28.929688 Z M 260 36.328125 "/>
<path style=" stroke:none;fill-rule:evenodd;fill:rgb(87.058824%,81.960784%,67.058824%);fill-opacity:1;" d="M 181.339844 172.734375 L 181.96875 174.558594 L 192.023438 180.96875 L 195.792969 180.085938 L 197.804688 173.046875 L 194.472656 164.253906 L 191.835938 158.089844 L 190.140625 158.722656 L 181.84375 172.296875 Z M 181.339844 172.734375 "/>
<path style=" stroke:none;fill-rule:evenodd;fill:rgb(87.058824%,81.960784%,67.058824%);fill-opacity:1;" d="M 186.710938 201.125 L 189.351563 211.414063 L 194.042969 210.964844 L 201.308594 206.785156 L 202.082031 200.804688 L 199.058594 194.695313 L 192.757813 195.339844 L 187.546875 198.230469 Z M 186.710938 201.125 "/>
<path style=" stroke:none;fill-rule:evenodd;fill:rgb(87.058824%,81.960784%,67.058824%);fill-opacity:1;" d="M 203.460938 234.273438 L 203.863281 237.800781 L 205.070313 242.507813 L 206.339844 243.128906 L 213.582031 238.855469 L 214.976563 232.511719 L 213.121094 231.117188 L 211.046875 230.3125 L 208.9375 230.003906 L 205.378906 231.269531 Z M 203.460938 234.273438 "/>
<path style=" stroke:none;fill-rule:evenodd;fill:rgb(60%,70.196078%,80%);fill-opacity:1;" d="M 244.617188 22.261719 L 244.71875 23.726563 L 245.523438 24.585938 L 246.941406 24.9375 L 249.464844 25.445313 L 251.738281 26.046875 L 253.753906 26.351563 L 255.167969 25.242188 L 255.472656 23.828125 L 255.828125 21.960938 L 256.683594 17.871094 L 256.835938 13.78125 L 256.484375 12.011719 L 255.425781 11.609375 L 254.3125 11.660156 L 253.148438 12.667969 L 251.835938 14.433594 L 249.816406 17.667969 L 247.242188 19.382813 L 245.78125 20.496094 Z M 244.617188 22.261719 "/>
<path style="fill:none;stroke-width:1;stroke-linecap:round;stroke-linejoin:round;stroke:rgb(70.196078%,77.647059%,83.137255%);stroke-opacity:1;stroke-miterlimit:10;" d="M 244.617188 22.261719 L 244.71875 23.726563 L 245.523438 24.585938 L 246.941406 24.9375 L 249.464844 25.445313 L 251.738281 26.046875 L 253.753906 26.351563 L 255.167969 25.242188 L 255.472656 23.828125 L 255.828125 21.960938 L 256.683594 17.871094 L 256.835938 13.78125 L 256.484375 12.011719 L 255.425781 11.609375 L 254.3125 11.660156 L 253.148438 12.667969 L 251.835938 14.433594 L 249.816406 17.667969 L 247.242188 19.382813 L 245.78125 20.496094 L 244.617188 22.261719 "/>
<path style="fill:none;stroke-width:1;stroke-linecap:round;stroke-linejoin:round;stroke:rgb(100%,100%,100%);stroke-opacity:1;stroke-dasharray:2,3;stroke-miterlimit:10;" d="M 146.738281 42.011719 L 147.253906 45.878906 "/>
<path style="fill:none;stroke-width:1;stroke-linecap:round;stroke-linejoin:round;stroke:rgb(100%,100%,100%);stroke-opacity:1;stroke-dasharray:2,3;stroke-miterlimit:10;" d="M 201.0625 187.097656 L 198.9375 181.628906 L 197.183594 181.089844 "/>
<path style="fill:none;stroke-width:1;stroke-linecap:round;stroke-linejoin:round;stroke:rgb(100%,100%,100%);stroke-opacity:1;stroke-dasharray:2,3;stroke-miterlimit:10;" d="M 149.375 61.421875 L 150.847656 69.289063 "/>
<path style="fill:none;stroke-width:1;stroke-linecap:round;stroke-linejoin:round;stroke:rgb(100%,100%,100%);stroke-opacity:1;stroke-dasharray:2,3;stroke-miterlimit:10;" d="M 214.355469 247.523438 L 214.929688 248.480469 L 220.027344 257 "/>
<path style="fill:none;stroke-width:1;stroke-linecap:round;stroke-linejoin:round;stroke:rgb(100%,100%,100%);stroke-opacity:1;stroke-dasharray:2,3;stroke-miterlimit:10;" d="M 170.734375 51.253906 L 158.378906 52.492188 "/>
<path style="fill:none;stroke-width:1;stroke-linecap:round;stroke-linejoin:round;stroke:rgb(100%,100%,100%);stroke-opacity:1;stroke-dasharray:2,3;stroke-miterlimit:10;" d="M 175.941406 143.757813 L 178.804688 141.890625 L 182.007813 141.441406 L 184.792969 142.292969 L 186.339844 144.152344 L 187.96875 147.867188 L 192.425781 156.164063 L 195.644531 163.347656 L 199.5 171.472656 L 199.785156 173.660156 L 198.019531 177.808594 L 197.183594 181.089844 L 195.050781 182.855469 L 191.332031 184.464844 "/>
<path style="fill:none;stroke-width:1;stroke-linecap:round;stroke-linejoin:round;stroke:rgb(100%,100%,100%);stroke-opacity:1;stroke-dasharray:2,3;stroke-miterlimit:10;" d="M 214.929688 248.480469 L 212.824219 249.761719 L 211.183594 253.078125 L 210.6875 255.828125 L 210.949219 257 "/>
<path style="fill:none;stroke-width:1;stroke-linecap:round;stroke-linejoin:round;stroke:rgb(100%,100%,100%);stroke-opacity:1;stroke-dasharray:2,3;stroke-miterlimit:10;" d="M 184.578125 198.640625 L 186.492188 193.9375 L 189.992188 191.429688 L 199.558594 187.496094 L 201.0625 187.097656 L 203.890625 186.351563 L 210.210938 186.90625 L 212.996094 188.550781 L 215.597656 193.347656 L 220.085938 204.152344 L 224.171875 215.578125 L 227.019531 224.679688 L 228.476563 230.128906 L 228.445313 233.441406 L 227.640625 236.9375 L 225.90625 240.621094 L 220.796875 245.144531 L 219.773438 245.851563 "/>
<path style="fill:none;stroke-width:1;stroke-linecap:round;stroke-linejoin:round;stroke:rgb(100%,100%,100%);stroke-opacity:1;stroke-dasharray:2,3;stroke-miterlimit:10;" d="M 219.773438 245.851563 L 224.851563 246.441406 L 230.765625 248.859375 L 233.675781 251.800781 L 237.847656 257 "/>
<path style="fill:none;stroke-width:1;stroke-linecap:round;stroke-linejoin:round;stroke:rgb(100%,100%,100%);stroke-opacity:1;stroke-dasharray:2,3;stroke-miterlimit:10;" d="M 219.773438 245.851563 L 214.355469 247.523438 L 207.945313 246.933594 L 201.96875 243.3125 L 197.140625 233.589844 L 190.359375 217.492188 L 185.035156 200.804688 L 184.578125 198.640625 L 183.117188 191.761719 L 180.886719 177.863281 L 177.667969 161.175781 L 176.210938 147.925781 L 175.941406 143.757813 L 175.59375 138.359375 L 177.234375 128.699219 L 177.613281 122.789063 L 177.902344 97.738281 L 182.632813 94.988281 "/>
<path style="fill:none;stroke-width:1;stroke-linecap:round;stroke-linejoin:round;stroke:rgb(100%,100%,100%);stroke-opacity:1;stroke-dasharray:2,3;stroke-miterlimit:10;" d="M 144.414063 -2 L 144.8125 6.503906 L 146.371094 29.546875 L 146.738281 42.011719 L 145.972656 45.839844 L 146.085938 52.570313 L 146.710938 57.753906 L 148.777344 63.875 L 150.847656 69.289063 L 154.191406 90.242188 L 156.742188 104.609375 L 159.929688 121.570313 L 164.789063 151.664063 L 167.949219 173.542969 L 172.167969 203.257813 L 173.628906 210.628906 L 175.191406 215.878906 L 178.675781 224.414063 L 187.632813 244.371094 L 193.144531 255.332031 L 194.085938 257 "/>
<path style="fill:none;stroke-width:8;stroke-linecap:round;stroke-linejoin:round;stroke:rgb(75.686275%,70.980392%,61.568627%);stroke-opacity:1;stroke-miterlimit:10;" d="M 227.457031 52.15625 L 236.023438 71.238281 "/>
<path style="fill:none;stroke-width:8;stroke-linecap:round;stroke-linejoin:round;stroke:rgb(75.686275%,70.980392%,61.568627%);stroke-opacity:1;stroke-miterlimit:10;" d="M 209.097656 -9 L 206.011719 0.875 "/>
<path style="fill:none;stroke-width:8;stroke-linecap:round;stroke-linejoin:round;stroke:rgb(75.686275%,70.980392%,61.568627%);stroke-opacity:1;stroke-miterlimit:10;" d="M 182.632813 94.988281 L 236.023438 71.238281 "/>
<path style="fill:none;stroke-width:8;stroke-linecap:round;stroke-linejoin:round;stroke:rgb(75.686275%,70.980392%,61.568627%);stroke-opacity:1;stroke-miterlimit:10;" d="M 220.730469 176.742188 L 264 156.789063 "/>
<path style="fill:none;stroke-width:8;stroke-linecap:round;stroke-linejoin:round;stroke:rgb(75.686275%,70.980392%,61.568627%);stroke-opacity:1;stroke-miterlimit:10;" d="M 264 131.683594 L 211.164063 156.394531 "/>
<path style="fill:none;stroke-width:8;stroke-linecap:round;stroke-linejoin:round;stroke:rgb(75.686275%,70.980392%,61.568627%);stroke-opacity:1;stroke-miterlimit:10;" d="M 229.851563 196.609375 L 264 180.851563 "/>
<path style="fill:none;stroke-width:8;stroke-linecap:round;stroke-linejoin:round;stroke:rgb(75.686275%,70.980392%,61.568627%);stroke-opacity:1;stroke-miterlimit:10;" d="M 245.625 91.128906 L 192.359375 115.871094 "/>
<path style="fill:none;stroke-width:8;stroke-linecap:round;stroke-linejoin:round;stroke:rgb(75.686275%,70.980392%,61.568627%);stroke-opacity:1;stroke-miterlimit:10;" d="M 201.492188 135.671875 L 254.804688 110.898438 "/>
<path style="fill:none;stroke-width:8;stroke-linecap:round;stroke-linejoin:round;stroke:rgb(75.686275%,70.980392%,61.568627%);stroke-opacity:1;stroke-miterlimit:10;" d="M 250.875 259.058594 L 264 252.980469 "/>
<path style="fill:none;stroke-width:8;stroke-linecap:round;stroke-linejoin:round;stroke:rgb(75.686275%,70.980392%,61.568627%);stroke-opacity:1;stroke-miterlimit:10;" d="M 236.863281 217.789063 L 264 205.105469 "/>
<path style="fill:none;stroke-width:8;stroke-linecap:round;stroke-linejoin:round;stroke:rgb(75.686275%,70.980392%,61.568627%);stroke-opacity:1;stroke-miterlimit:10;" d="M 240.125 79.1875 L 264 86.488281 "/>
<path style="fill:none;stroke-width:8;stroke-linecap:round;stroke-linejoin:round;stroke:rgb(75.686275%,70.980392%,61.568627%);stroke-opacity:1;stroke-miterlimit:10;" d="M 264 109.78125 L 253.011719 106.847656 "/>
<path style="fill:none;stroke-width:8;stroke-linecap:round;stroke-linejoin:round;stroke:rgb(75.686275%,70.980392%,61.568627%);stroke-opacity:1;stroke-miterlimit:10;" d="M 236.023438 71.238281 L 240.125 79.1875 L 245.625 91.128906 L 253.011719 106.847656 L 254.804688 110.898438 L 264 131.15625 "/>
<path style="fill:none;stroke-width:8;stroke-linecap:round;stroke-linejoin:round;stroke:rgb(75.686275%,70.980392%,61.568627%);stroke-opacity:1;stroke-miterlimit:10;" d="M 264 63.507813 L 227.457031 52.15625 L 195.945313 42.226563 L 171.609375 46.316406 "/>
<path style="fill:none;stroke-width:8;stroke-linecap:round;stroke-linejoin:round;stroke:rgb(75.686275%,70.980392%,61.568627%);stroke-opacity:1;stroke-miterlimit:10;" d="M 178.292969 20.703125 L 180.703125 20.359375 L 192.722656 18.554688 L 194.242188 18.636719 L 232.785156 30.714844 L 264 40.480469 "/>
<path style="fill:none;stroke-width:8;stroke-linecap:round;stroke-linejoin:round;stroke:rgb(75.686275%,70.980392%,61.568627%);stroke-opacity:1;stroke-miterlimit:10;" d="M 182.632813 94.988281 L 179.316406 87.414063 L 174.628906 77.035156 L 172.710938 71.945313 L 171.363281 66.570313 L 170.757813 61.292969 L 170.59375 56.257813 L 170.734375 51.253906 L 171.214844 48.347656 L 171.609375 46.316406 L 172.492188 42.300781 L 178.292969 20.703125 L 178.828125 15.8125 L 178.878906 11.277344 L 178.804688 8.503906 L 178.613281 4.105469 L 178.035156 -0.0859375 L 177.113281 -3.890625 L 176.101563 -8.8125 L 176.015625 -9 "/>
<path style="fill:none;stroke-width:8;stroke-linecap:round;stroke-linejoin:round;stroke:rgb(75.686275%,70.980392%,61.568627%);stroke-opacity:1;stroke-miterlimit:10;" d="M 252.859375 264 L 250.875 259.058594 L 243.5625 239.953125 L 236.863281 217.789063 L 229.851563 196.609375 L 220.730469 176.742188 L 211.941406 158.09375 L 211.164063 156.394531 L 201.492188 135.671875 L 192.359375 115.871094 L 182.632813 94.988281 "/>
<path style="fill:none;stroke-width:8;stroke-linecap:round;stroke-linejoin:round;stroke:rgb(75.686275%,70.980392%,61.568627%);stroke-opacity:1;stroke-miterlimit:10;" d="M 227.457031 52.15625 L 226.835938 49.257813 L 232.785156 30.714844 L 245.128906 -9 "/>
<path style="fill:none;stroke-width:11;stroke-linecap:round;stroke-linejoin:round;stroke:rgb(72.941176%,43.137255%,15.294118%);stroke-opacity:1;stroke-miterlimit:10;" d="M 211.167969 267 L 205.675781 258.476563 L 199.6875 248.246094 L 193.488281 235.648438 L 189.089844 224.449219 L 184.6875 212.246094 L 181.089844 199.046875 L 178.289063 186.648438 L 176.289063 174.847656 L 172.886719 151.449219 L 170.6875 138.449219 L 168.488281 125.847656 L 160.6875 82.847656 L 158.6875 69.648438 L 157.089844 56.246094 L 155.128906 38.675781 L 153.648438 21.929688 L 152.457031 5.652344 L 151.910156 -7.957031 L 151.753906 -12 "/>
<path style="fill:none;stroke-width:11;stroke-linecap:round;stroke-linejoin:round;stroke:rgb(72.941176%,43.137255%,15.294118%);stroke-opacity:1;stroke-miterlimit:10;" d="M 148.347656 -12 L 148.488281 -8.152344 L 149.089844 5.246094 L 150.289063 22.246094 L 151.6875 38.449219 L 153.6875 56.246094 L 155.289063 69.648438 L 157.488281 83.246094 L 164.886719 126.25 L 167.085938 138.648438 L 169.089844 150.847656 L 172.6875 173.648438 L 174.6875 186.046875 L 177.488281 199.246094 L 181.089844 212.445313 L 185.289063 224.648438 L 190.289063 236.648438 L 196.6875 249.847656 L 202.675781 260.273438 L 207.011719 267 "/>
<path style="fill:none;stroke-width:6;stroke-linecap:round;stroke-linejoin:round;stroke:rgb(100%,100%,100%);stroke-opacity:1;stroke-miterlimit:10;" d="M 227.457031 52.15625 L 236.023438 71.238281 "/>
<path style="fill:none;stroke-width:6;stroke-linecap:round;stroke-linejoin:round;stroke:rgb(100%,100%,100%);stroke-opacity:1;stroke-miterlimit:10;" d="M 209.097656 -9 L 206.011719 0.875 "/>
<path style="fill:none;stroke-width:6;stroke-linecap:round;stroke-linejoin:round;stroke:rgb(100%,100%,100%);stroke-opacity:1;stroke-miterlimit:10;" d="M 182.632813 94.988281 L 236.023438 71.238281 "/>
<path style="fill:none;stroke-width:6;stroke-linecap:round;stroke-linejoin:round;stroke:rgb(100%,100%,100%);stroke-opacity:1;stroke-miterlimit:10;" d="M 220.730469 176.742188 L 264 156.789063 "/>
<path style="fill:none;stroke-width:6;stroke-linecap:round;stroke-linejoin:round;stroke:rgb(100%,100%,100%);stroke-opacity:1;stroke-miterlimit:10;" d="M 264 131.683594 L 211.164063 156.394531 "/>
<path style="fill:none;stroke-width:6;stroke-linecap:round;stroke-linejoin:round;stroke:rgb(100%,100%,100%);stroke-opacity:1;stroke-miterlimit:10;" d="M 229.851563 196.609375 L 264 180.851563 "/>
<path style="fill:none;stroke-width:6;stroke-linecap:round;stroke-linejoin:round;stroke:rgb(100%,100%,100%);stroke-opacity:1;stroke-miterlimit:10;" d="M 245.625 91.128906 L 192.359375 115.871094 "/>
<path style="fill:none;stroke-width:6;stroke-linecap:round;stroke-linejoin:round;stroke:rgb(100%,100%,100%);stroke-opacity:1;stroke-miterlimit:10;" d="M 201.492188 135.671875 L 254.804688 110.898438 "/>
<path style="fill:none;stroke-width:6;stroke-linecap:round;stroke-linejoin:round;stroke:rgb(100%,100%,100%);stroke-opacity:1;stroke-miterlimit:10;" d="M 250.875 259.058594 L 264 252.980469 "/>
<path style="fill:none;stroke-width:6;stroke-linecap:round;stroke-linejoin:round;stroke:rgb(100%,100%,100%);stroke-opacity:1;stroke-miterlimit:10;" d="M 236.863281 217.789063 L 264 205.105469 "/>
<path style="fill:none;stroke-width:6;stroke-linecap:round;stroke-linejoin:round;stroke:rgb(100%,100%,100%);stroke-opacity:1;stroke-miterlimit:10;" d="M 240.125 79.1875 L 264 86.488281 "/>
<path style="fill:none;stroke-width:6;stroke-linecap:round;stroke-linejoin:round;stroke:rgb(100%,100%,100%);stroke-opacity:1;stroke-miterlimit:10;" d="M 264 109.78125 L 253.011719 106.847656 "/>
<path style="fill:none;stroke-width:6;stroke-linecap:round;stroke-linejoin:round;stroke:rgb(100%,100%,100%);stroke-opacity:1;stroke-miterlimit:10;" d="M 236.023438 71.238281 L 240.125 79.1875 L 245.625 91.128906 L 253.011719 106.847656 L 254.804688 110.898438 L 264 131.15625 "/>
<path style="fill:none;stroke-width:6;stroke-linecap:round;stroke-linejoin:round;stroke:rgb(100%,100%,100%);stroke-opacity:1;stroke-miterlimit:10;" d="M 264 63.507813 L 227.457031 52.15625 L 195.945313 42.226563 L 171.609375 46.316406 "/>
<path style="fill:none;stroke-width:6;stroke-linecap:round;stroke-linejoin:round;stroke:rgb(100%,100%,100%);stroke-opacity:1;stroke-miterlimit:10;" d="M 178.292969 20.703125 L 180.703125 20.359375 L 192.722656 18.554688 L 194.242188 18.636719 L 232.785156 30.714844 L 264 40.480469 "/>
<path style="fill:none;stroke-width:6;stroke-linecap:round;stroke-linejoin:round;stroke:rgb(100%,100%,100%);stroke-opacity:1;stroke-miterlimit:10;" d="M 182.632813 94.988281 L 179.316406 87.414063 L 174.628906 77.035156 L 172.710938 71.945313 L 171.363281 66.570313 L 170.757813 61.292969 L 170.59375 56.257813 L 170.734375 51.253906 L 171.214844 48.347656 L 171.609375 46.316406 L 172.492188 42.300781 L 178.292969 20.703125 L 178.828125 15.8125 L 178.878906 11.277344 L 178.804688 8.503906 L 178.613281 4.105469 L 178.035156 -0.0859375 L 177.113281 -3.890625 L 176.101563 -8.8125 L 176.015625 -9 "/>
<path style="fill:none;stroke-width:6;stroke-linecap:round;stroke-linejoin:round;stroke:rgb(100%,100%,100%);stroke-opacity:1;stroke-miterlimit:10;" d="M 252.859375 264 L 250.875 259.058594 L 243.5625 239.953125 L 236.863281 217.789063 L 229.851563 196.609375 L 220.730469 176.742188 L 211.941406 158.09375 L 211.164063 156.394531 L 201.492188 135.671875 L 192.359375 115.871094 L 182.632813 94.988281 "/>
<path style="fill:none;stroke-width:6;stroke-linecap:round;stroke-linejoin:round;stroke:rgb(100%,100%,100%);stroke-opacity:1;stroke-miterlimit:10;" d="M 227.457031 52.15625 L 226.835938 49.257813 L 232.785156 30.714844 L 245.128906 -9 "/>
<path style="fill:none;stroke-width:9;stroke-linecap:round;stroke-linejoin:round;stroke:rgb(99.215686%,57.254902%,22.745098%);stroke-opacity:1;stroke-miterlimit:10;" d="M 211.167969 267 L 205.675781 258.476563 L 199.6875 248.246094 L 193.488281 235.648438 L 189.089844 224.449219 L 184.6875 212.246094 L 181.089844 199.046875 L 178.289063 186.648438 L 176.289063 174.847656 L 172.886719 151.449219 L 170.6875 138.449219 L 168.488281 125.847656 L 160.6875 82.847656 L 158.6875 69.648438 L 157.089844 56.246094 L 155.128906 38.675781 L 153.648438 21.929688 L 152.457031 5.652344 L 151.910156 -7.957031 L 151.753906 -12 "/>
<path style="fill:none;stroke-width:9;stroke-linecap:round;stroke-linejoin:round;stroke:rgb(99.215686%,57.254902%,22.745098%);stroke-opacity:1;stroke-miterlimit:10;" d="M 148.347656 -12 L 148.488281 -8.152344 L 149.089844 5.246094 L 150.289063 22.246094 L 151.6875 38.449219 L 153.6875 56.246094 L 155.289063 69.648438 L 157.488281 83.246094 L 164.886719 126.25 L 167.085938 138.648438 L 169.089844 150.847656 L 172.6875 173.648438 L 174.6875 186.046875 L 177.488281 199.246094 L 181.089844 212.445313 L 185.289063 224.648438 L 190.289063 236.648438 L 196.6875 249.847656 L 202.675781 260.273438 L 207.011719 267 "/>
<path style="fill:none;stroke-width:5;stroke-linecap:butt;stroke-linejoin:round;stroke:rgb(53.333333%,53.333333%,53.333333%);stroke-opacity:1;stroke-miterlimit:10;" d="M 158.378906 52.492188 L 148.289063 53.648438 "/>
<path style="fill:none;stroke-width:3;stroke-linecap:round;stroke-linejoin:round;stroke:rgb(98.039216%,98.039216%,96.078431%);stroke-opacity:1;stroke-miterlimit:10;" d="M 158.378906 52.492188 L 148.289063 53.648438 "/>
<path style="fill:none;stroke-width:3;stroke-linecap:round;stroke-linejoin:round;stroke:rgb(100%,100%,100%);stroke-opacity:1;stroke-miterlimit:10;" d="M 188.527344 210.085938 L 188.527344 211.132813 C 188.160156 210.9375 187.8125 210.789063 187.480469 210.695313 C 187.144531 210.601563 186.828125 210.554688 186.527344 210.554688 C 185.996094 210.554688 185.582031 210.671875 185.292969 210.898438 C 185.011719 211.128906 184.871094 211.453125 184.871094 211.867188 C 184.871094 212.222656 184.964844 212.492188 185.152344 212.679688 C 185.339844 212.859375 185.703125 213.003906 186.246094 213.117188 L 186.824219 213.242188 C 187.550781 213.398438 188.089844 213.675781 188.433594 214.070313 C 188.785156 214.457031 188.964844 214.972656 188.964844 215.617188 C 188.964844 216.398438 188.730469 216.992188 188.261719 217.398438 C 187.792969 217.796875 187.105469 217.992188 186.199219 217.992188 C 185.855469 217.992188 185.488281 217.945313 185.105469 217.851563 C 184.71875 217.769531 184.324219 217.644531 183.917969 217.476563 L 183.917969 216.367188 C 184.3125 216.617188 184.699219 216.804688 185.074219 216.929688 C 185.457031 217.054688 185.832031 217.117188 186.199219 217.117188 C 186.75 217.117188 187.175781 217 187.480469 216.757813 C 187.792969 216.507813 187.949219 216.160156 187.949219 215.710938 C 187.949219 215.316406 187.839844 215.007813 187.621094 214.789063 C 187.402344 214.5625 187.042969 214.390625 186.542969 214.273438 L 185.949219 214.148438 C 185.21875 213.992188 184.691406 213.742188 184.371094 213.398438 C 184.046875 213.054688 183.886719 212.578125 183.886719 211.960938 C 183.886719 211.253906 184.109375 210.695313 184.558594 210.289063 C 185.003906 209.875 185.625 209.664063 186.417969 209.664063 C 186.761719 209.664063 187.105469 209.703125 187.449219 209.773438 C 187.800781 209.847656 188.160156 209.953125 188.527344 210.085938 Z M 194.949219 214.210938 L 194.949219 217.835938 L 194.058594 217.835938 L 194.058594 214.242188 C 194.058594 213.671875 193.953125 213.242188 193.746094 212.960938 C 193.546875 212.679688 193.25 212.539063 192.855469 212.539063 C 192.375 212.539063 191.996094 212.710938 191.714844 213.054688 C 191.441406 213.390625 191.308594 213.847656 191.308594 214.429688 L 191.308594 217.835938 L 190.402344 217.835938 L 190.402344 209.476563 L 191.308594 209.476563 L 191.308594 212.757813 C 191.515625 212.394531 191.761719 212.125 192.042969 211.945313 C 192.332031 211.769531 192.671875 211.679688 193.058594 211.679688 C 193.671875 211.679688 194.140625 211.894531 194.464844 212.320313 C 194.785156 212.75 194.949219 213.378906 194.949219 214.210938 Z M 198.824219 212.507813 C 198.34375 212.507813 197.964844 212.71875 197.683594 213.132813 C 197.410156 213.550781 197.277344 214.117188 197.277344 214.835938 C 197.277344 215.554688 197.410156 216.125 197.683594 216.539063 C 197.964844 216.945313 198.34375 217.148438 198.824219 217.148438 C 199.300781 217.148438 199.675781 216.945313 199.949219 216.539063 C 200.230469 216.125 200.371094 215.554688 200.371094 214.835938 C 200.371094 214.117188 200.230469 213.550781 199.949219 213.132813 C 199.675781 212.71875 199.300781 212.507813 198.824219 212.507813 Z M 198.824219 211.679688 C 199.59375 211.679688 200.199219 211.960938 200.636719 212.523438 C 201.082031 213.078125 201.308594 213.847656 201.308594 214.835938 C 201.308594 215.816406 201.082031 216.585938 200.636719 217.148438 C 200.199219 217.710938 199.59375 217.992188 198.824219 217.992188 C 198.042969 217.992188 197.433594 217.710938 196.996094 217.148438 C 196.558594 216.585938 196.339844 215.816406 196.339844 214.835938 C 196.339844 213.847656 196.558594 213.078125 196.996094 212.523438 C 197.433594 211.960938 198.042969 211.679688 198.824219 211.679688 Z M 205.917969 212.742188 C 205.8125 212.679688 205.699219 212.632813 205.574219 212.601563 C 205.457031 212.570313 205.332031 212.554688 205.199219 212.554688 C 204.6875 212.554688 204.296875 212.738281 204.027344 213.101563 C 203.765625 213.46875 203.636719 213.988281 203.636719 214.664063 L 203.636719 217.835938 L 202.730469 217.835938 L 202.730469 211.820313 L 203.636719 211.820313 L 203.636719 212.757813 C 203.824219 212.394531 204.0625 212.125 204.355469 211.945313 C 204.65625 211.769531 205.019531 211.679688 205.449219 211.679688 C 205.511719 211.679688 205.578125 211.6875 205.652344 211.695313 C 205.734375 211.695313 205.816406 211.707031 205.902344 211.726563 Z M 211.464844 214.585938 L 211.464844 215.070313 L 207.371094 215.070313 C 207.410156 215.75 207.597656 216.265625 207.933594 216.617188 C 208.265625 216.972656 208.722656 217.148438 209.308594 217.148438 C 209.652344 217.148438 209.980469 217.101563 210.292969 217.007813 C 210.613281 216.914063 210.9375 216.78125 211.261719 216.601563 L 211.261719 217.523438 C 210.9375 217.679688 210.609375 217.796875 210.277344 217.867188 C 209.941406 217.949219 209.605469 217.992188 209.261719 217.992188 C 208.394531 217.992188 207.707031 217.71875 207.199219 217.164063 C 206.699219 216.601563 206.449219 215.84375 206.449219 214.882813 C 206.449219 213.90625 206.6875 213.128906 207.167969 212.554688 C 207.644531 211.972656 208.292969 211.679688 209.105469 211.679688 C 209.832031 211.679688 210.40625 211.941406 210.824219 212.460938 C 211.25 212.984375 211.464844 213.691406 211.464844 214.585938 Z M 210.574219 214.289063 C 210.5625 213.75 210.425781 213.316406 210.167969 212.992188 C 209.90625 212.671875 209.558594 212.507813 209.121094 212.507813 C 208.621094 212.507813 208.21875 212.664063 207.917969 212.976563 C 207.613281 213.289063 207.441406 213.726563 207.402344 214.289063 Z M 219.527344 214.070313 C 219.734375 214.15625 219.9375 214.328125 220.136719 214.585938 C 220.332031 214.835938 220.535156 215.191406 220.746094 215.648438 L 221.730469 217.835938 L 220.683594 217.835938 L 219.761719 215.773438 C 219.519531 215.242188 219.285156 214.890625 219.058594 214.710938 C 218.839844 214.535156 218.535156 214.445313 218.152344 214.445313 L 217.089844 214.445313 L 217.089844 217.835938 L 216.105469 217.835938 L 216.105469 209.820313 L 218.308594 209.820313 C 219.140625 209.820313 219.753906 210.015625 220.152344 210.398438 C 220.558594 210.773438 220.761719 211.351563 220.761719 212.132813 C 220.761719 212.632813 220.65625 213.050781 220.449219 213.382813 C 220.238281 213.71875 219.933594 213.945313 219.527344 214.070313 Z M 217.089844 210.710938 L 217.089844 213.554688 L 218.308594 213.554688 C 218.785156 213.554688 219.144531 213.4375 219.386719 213.195313 C 219.625 212.957031 219.746094 212.601563 219.746094 212.132813 C 219.746094 211.664063 219.625 211.3125 219.386719 211.070313 C 219.144531 210.832031 218.785156 210.710938 218.308594 210.710938 Z M 225.042969 212.507813 C 224.5625 212.507813 224.183594 212.71875 223.902344 213.132813 C 223.628906 213.550781 223.496094 214.117188 223.496094 214.835938 C 223.496094 215.554688 223.628906 216.125 223.902344 216.539063 C 224.183594 216.945313 224.5625 217.148438 225.042969 217.148438 C 225.519531 217.148438 225.894531 216.945313 226.167969 216.539063 C 226.449219 216.125 226.589844 215.554688 226.589844 214.835938 C 226.589844 214.117188 226.449219 213.550781 226.167969 213.132813 C 225.894531 212.71875 225.519531 212.507813 225.042969 212.507813 Z M 225.042969 211.679688 C 225.8125 211.679688 226.417969 211.960938 226.855469 212.523438 C 227.300781 213.078125 227.527344 213.847656 227.527344 214.835938 C 227.527344 215.816406 227.300781 216.585938 226.855469 217.148438 C 226.417969 217.710938 225.8125 217.992188 225.042969 217.992188 C 224.261719 217.992188 223.652344 217.710938 223.214844 217.148438 C 222.777344 216.585938 222.558594 215.816406 222.558594 214.835938 C 222.558594 213.847656 222.777344 213.078125 223.214844 212.523438 C 223.652344 211.960938 224.261719 211.679688 225.042969 211.679688 Z M 231.449219 214.804688 C 230.730469 214.804688 230.230469 214.898438 229.949219 215.085938 C 229.675781 215.273438 229.542969 215.585938 229.542969 216.023438 C 229.542969 216.367188 229.644531 216.644531 229.855469 216.851563 C 230.0625 217.0625 230.34375 217.164063 230.699219 217.164063 C 231.199219 217.164063 231.59375 216.972656 231.886719 216.585938 C 232.1875 216.191406 232.339844 215.675781 232.339844 215.039063 L 232.339844 214.804688 Z M 233.230469 214.398438 L 233.230469 217.835938 L 232.339844 217.835938 L 232.339844 216.929688 C 232.128906 217.296875 231.875 217.566406 231.574219 217.742188 C 231.269531 217.90625 230.902344 217.992188 230.464844 217.992188 C 229.910156 217.992188 229.46875 217.820313 229.136719 217.476563 C 228.8125 217.132813 228.652344 216.671875 228.652344 216.085938 C 228.652344 215.410156 228.855469 214.898438 229.261719 214.554688 C 229.667969 214.210938 230.277344 214.039063 231.089844 214.039063 L 232.339844 214.039063 L 232.339844 213.945313 C 232.339844 213.488281 232.203125 213.132813 231.933594 212.882813 C 231.660156 212.632813 231.28125 212.507813 230.792969 212.507813 C 230.488281 212.507813 230.1875 212.550781 229.886719 212.632813 C 229.59375 212.71875 229.3125 212.84375 229.042969 213.007813 L 229.042969 212.101563 C 229.375 211.957031 229.691406 211.851563 229.996094 211.789063 C 230.296875 211.71875 230.59375 211.679688 230.886719 211.679688 C 231.667969 211.679688 232.25 211.90625 232.636719 212.351563 C 233.03125 212.800781 233.230469 213.484375 233.230469 214.398438 Z M 238.621094 212.726563 L 238.621094 209.476563 L 239.511719 209.476563 L 239.511719 217.835938 L 238.621094 217.835938 L 238.621094 216.929688 C 238.433594 217.296875 238.191406 217.566406 237.902344 217.742188 C 237.621094 217.90625 237.28125 217.992188 236.886719 217.992188 C 236.230469 217.992188 235.691406 217.707031 235.277344 217.132813 C 234.871094 216.550781 234.667969 215.785156 234.667969 214.835938 C 234.667969 213.890625 234.871094 213.128906 235.277344 212.554688 C 235.691406 211.972656 236.230469 211.679688 236.886719 211.679688 C 237.28125 211.679688 237.621094 211.769531 237.902344 211.945313 C 238.191406 212.113281 238.433594 212.375 238.621094 212.726563 Z M 235.589844 214.835938 C 235.589844 215.566406 235.71875 216.140625 235.980469 216.554688 C 236.25 216.960938 236.621094 217.164063 237.089844 217.164063 C 237.566406 217.164063 237.941406 216.960938 238.214844 216.554688 C 238.484375 216.140625 238.621094 215.566406 238.621094 214.835938 C 238.621094 214.109375 238.484375 213.539063 238.214844 213.132813 C 237.941406 212.71875 237.566406 212.507813 237.089844 212.507813 C 236.621094 212.507813 236.25 212.71875 235.980469 213.132813 C 235.71875 213.539063 235.589844 214.109375 235.589844 214.835938 Z M 203.183594 221.710938 L 203.183594 224.726563 L 204.402344 224.726563 C 204.859375 224.726563 205.214844 224.597656 205.464844 224.335938 C 205.714844 224.066406 205.839844 223.691406 205.839844 223.210938 C 205.839844 222.734375 205.714844 222.363281 205.464844 222.101563 C 205.214844 221.84375 204.859375 221.710938 204.402344 221.710938 Z M 202.199219 220.820313 L 204.402344 220.820313 C 205.214844 220.820313 205.824219 221.023438 206.230469 221.429688 C 206.644531 221.835938 206.855469 222.429688 206.855469 223.210938 C 206.855469 224.003906 206.644531 224.601563 206.230469 225.007813 C 205.824219 225.414063 205.214844 225.617188 204.402344 225.617188 L 203.183594 225.617188 L 203.183594 228.835938 L 202.199219 228.835938 Z M 210.589844 225.804688 C 209.871094 225.804688 209.371094 225.898438 209.089844 226.085938 C 208.816406 226.273438 208.683594 226.585938 208.683594 227.023438 C 208.683594 227.367188 208.785156 227.644531 208.996094 227.851563 C 209.203125 228.0625 209.484375 228.164063 209.839844 228.164063 C 210.339844 228.164063 210.734375 227.972656 211.027344 227.585938 C 211.328125 227.191406 211.480469 226.675781 211.480469 226.039063 L 211.480469 225.804688 Z M 212.371094 225.398438 L 212.371094 228.835938 L 211.480469 228.835938 L 211.480469 227.929688 C 211.269531 228.296875 211.015625 228.566406 210.714844 228.742188 C 210.410156 228.90625 210.042969 228.992188 209.605469 228.992188 C 209.050781 228.992188 208.609375 228.820313 208.277344 228.476563 C 207.953125 228.132813 207.792969 227.671875 207.792969 227.085938 C 207.792969 226.410156 207.996094 225.898438 208.402344 225.554688 C 208.808594 225.210938 209.417969 225.039063 210.230469 225.039063 L 211.480469 225.039063 L 211.480469 224.945313 C 211.480469 224.488281 211.34375 224.132813 211.074219 223.882813 C 210.800781 223.632813 210.421875 223.507813 209.933594 223.507813 C 209.628906 223.507813 209.328125 223.550781 209.027344 223.632813 C 208.734375 223.71875 208.453125 223.84375 208.183594 224.007813 L 208.183594 223.101563 C 208.515625 222.957031 208.832031 222.851563 209.136719 222.789063 C 209.4375 222.71875 209.734375 222.679688 210.027344 222.679688 C 210.808594 222.679688 211.390625 222.90625 211.777344 223.351563 C 212.171875 223.800781 212.371094 224.484375 212.371094 225.398438 Z M 217.339844 223.742188 C 217.234375 223.679688 217.121094 223.632813 216.996094 223.601563 C 216.878906 223.570313 216.753906 223.554688 216.621094 223.554688 C 216.109375 223.554688 215.71875 223.738281 215.449219 224.101563 C 215.1875 224.46875 215.058594 224.988281 215.058594 225.664063 L 215.058594 228.835938 L 214.152344 228.835938 L 214.152344 222.820313 L 215.058594 222.820313 L 215.058594 223.757813 C 215.246094 223.394531 215.484375 223.125 215.777344 222.945313 C 216.078125 222.769531 216.441406 222.679688 216.871094 222.679688 C 216.933594 222.679688 217 222.6875 217.074219 222.695313 C 217.15625 222.695313 217.238281 222.707031 217.324219 222.726563 Z M 218.214844 220.476563 L 219.121094 220.476563 L 219.121094 225.414063 L 221.777344 222.820313 L 222.917969 222.820313 L 220.042969 225.632813 L 223.027344 228.835938 L 221.871094 228.835938 L 219.121094 225.898438 L 219.121094 228.835938 L 218.214844 228.835938 Z M 218.214844 220.476563 "/>
<path style=" stroke:none;fill-rule:evenodd;fill:rgb(0%,0%,0%);fill-opacity:1;" d="M 188.527344 210.085938 L 188.527344 211.132813 C 188.160156 210.9375 187.8125 210.789063 187.480469 210.695313 C 187.144531 210.601563 186.828125 210.554688 186.527344 210.554688 C 185.996094 210.554688 185.582031 210.671875 185.292969 210.898438 C 185.011719 211.128906 184.871094 211.453125 184.871094 211.867188 C 184.871094 212.222656 184.964844 212.492188 185.152344 212.679688 C 185.339844 212.859375 185.703125 213.003906 186.246094 213.117188 L 186.824219 213.242188 C 187.550781 213.398438 188.089844 213.675781 188.433594 214.070313 C 188.785156 214.457031 188.964844 214.972656 188.964844 215.617188 C 188.964844 216.398438 188.730469 216.992188 188.261719 217.398438 C 187.792969 217.796875 187.105469 217.992188 186.199219 217.992188 C 185.855469 217.992188 185.488281 217.945313 185.105469 217.851563 C 184.71875 217.769531 184.324219 217.644531 183.917969 217.476563 L 183.917969 216.367188 C 184.3125 216.617188 184.699219 216.804688 185.074219 216.929688 C 185.457031 217.054688 185.832031 217.117188 186.199219 217.117188 C 186.75 217.117188 187.175781 217 187.480469 216.757813 C 187.792969 216.507813 187.949219 216.160156 187.949219 215.710938 C 187.949219 215.316406 187.839844 215.007813 187.621094 214.789063 C 187.402344 214.5625 187.042969 214.390625 186.542969 214.273438 L 185.949219 214.148438 C 185.21875 213.992188 184.691406 213.742188 184.371094 213.398438 C 184.046875 213.054688 183.886719 212.578125 183.886719 211.960938 C 183.886719 211.253906 184.109375 210.695313 184.558594 210.289063 C 185.003906 209.875 185.625 209.664063 186.417969 209.664063 C 186.761719 209.664063 187.105469 209.703125 187.449219 209.773438 C 187.800781 209.847656 188.160156 209.953125 188.527344 210.085938 Z M 194.949219 214.210938 L 194.949219 217.835938 L 194.058594 217.835938 L 194.058594 214.242188 C 194.058594 213.671875 193.953125 213.242188 193.746094 212.960938 C 193.546875 212.679688 193.25 212.539063 192.855469 212.539063 C 192.375 212.539063 191.996094 212.710938 191.714844 213.054688 C 191.441406 213.390625 191.308594 213.847656 191.308594 214.429688 L 191.308594 217.835938 L 190.402344 217.835938 L 190.402344 209.476563 L 191.308594 209.476563 L 191.308594 212.757813 C 191.515625 212.394531 191.761719 212.125 192.042969 211.945313 C 192.332031 211.769531 192.671875 211.679688 193.058594 211.679688 C 193.671875 211.679688 194.140625 211.894531 194.464844 212.320313 C 194.785156 212.75 194.949219 213.378906 194.949219 214.210938 Z M 198.824219 212.507813 C 198.34375 212.507813 197.964844 212.71875 197.683594 213.132813 C 197.410156 213.550781 197.277344 214.117188 197.277344 214.835938 C 197.277344 215.554688 197.410156 216.125 197.683594 216.539063 C 197.964844 216.945313 198.34375 217.148438 198.824219 217.148438 C 199.300781 217.148438 199.675781 216.945313 199.949219 216.539063 C 200.230469 216.125 200.371094 215.554688 200.371094 214.835938 C 200.371094 214.117188 200.230469 213.550781 199.949219 213.132813 C 199.675781 212.71875 199.300781 212.507813 198.824219 212.507813 Z M 198.824219 211.679688 C 199.59375 211.679688 200.199219 211.960938 200.636719 212.523438 C 201.082031 213.078125 201.308594 213.847656 201.308594 214.835938 C 201.308594 215.816406 201.082031 216.585938 200.636719 217.148438 C 200.199219 217.710938 199.59375 217.992188 198.824219 217.992188 C 198.042969 217.992188 197.433594 217.710938 196.996094 217.148438 C 196.558594 216.585938 196.339844 215.816406 196.339844 214.835938 C 196.339844 213.847656 196.558594 213.078125 196.996094 212.523438 C 197.433594 211.960938 198.042969 211.679688 198.824219 211.679688 Z M 205.917969 212.742188 C 205.8125 212.679688 205.699219 212.632813 205.574219 212.601563 C 205.457031 212.570313 205.332031 212.554688 205.199219 212.554688 C 204.6875 212.554688 204.296875 212.738281 204.027344 213.101563 C 203.765625 213.46875 203.636719 213.988281 203.636719 214.664063 L 203.636719 217.835938 L 202.730469 217.835938 L 202.730469 211.820313 L 203.636719 211.820313 L 203.636719 212.757813 C 203.824219 212.394531 204.0625 212.125 204.355469 211.945313 C 204.65625 211.769531 205.019531 211.679688 205.449219 211.679688 C 205.511719 211.679688 205.578125 211.6875 205.652344 211.695313 C 205.734375 211.695313 205.816406 211.707031 205.902344 211.726563 Z M 211.464844 214.585938 L 211.464844 215.070313 L 207.371094 215.070313 C 207.410156 215.75 207.597656 216.265625 207.933594 216.617188 C 208.265625 216.972656 208.722656 217.148438 209.308594 217.148438 C 209.652344 217.148438 209.980469 217.101563 210.292969 217.007813 C 210.613281 216.914063 210.9375 216.78125 211.261719 216.601563 L 211.261719 217.523438 C 210.9375 217.679688 210.609375 217.796875 210.277344 217.867188 C 209.941406 217.949219 209.605469 217.992188 209.261719 217.992188 C 208.394531 217.992188 207.707031 217.71875 207.199219 217.164063 C 206.699219 216.601563 206.449219 215.84375 206.449219 214.882813 C 206.449219 213.90625 206.6875 213.128906 207.167969 212.554688 C 207.644531 211.972656 208.292969 211.679688 209.105469 211.679688 C 209.832031 211.679688 210.40625 211.941406 210.824219 212.460938 C 211.25 212.984375 211.464844 213.691406 211.464844 214.585938 Z M 210.574219 214.289063 C 210.5625 213.75 210.425781 213.316406 210.167969 212.992188 C 209.90625 212.671875 209.558594 212.507813 209.121094 212.507813 C 208.621094 212.507813 208.21875 212.664063 207.917969 212.976563 C 207.613281 213.289063 207.441406 213.726563 207.402344 214.289063 Z M 219.527344 214.070313 C 219.734375 214.15625 219.9375 214.328125 220.136719 214.585938 C 220.332031 214.835938 220.535156 215.191406 220.746094 215.648438 L 221.730469 217.835938 L 220.683594 217.835938 L 219.761719 215.773438 C 219.519531 215.242188 219.285156 214.890625 219.058594 214.710938 C 218.839844 214.535156 218.535156 214.445313 218.152344 214.445313 L 217.089844 214.445313 L 217.089844 217.835938 L 216.105469 217.835938 L 216.105469 209.820313 L 218.308594 209.820313 C 219.140625 209.820313 219.753906 210.015625 220.152344 210.398438 C 220.558594 210.773438 220.761719 211.351563 220.761719 212.132813 C 220.761719 212.632813 220.65625 213.050781 220.449219 213.382813 C 220.238281 213.71875 219.933594 213.945313 219.527344 214.070313 Z M 217.089844 210.710938 L 217.089844 213.554688 L 218.308594 213.554688 C 218.785156 213.554688 219.144531 213.4375 219.386719 213.195313 C 219.625 212.957031 219.746094 212.601563 219.746094 212.132813 C 219.746094 211.664063 219.625 211.3125 219.386719 211.070313 C 219.144531 210.832031 218.785156 210.710938 218.308594 210.710938 Z M 225.042969 212.507813 C 224.5625 212.507813 224.183594 212.71875 223.902344 213.132813 C 223.628906 213.550781 223.496094 214.117188 223.496094 214.835938 C 223.496094 215.554688 223.628906 216.125 223.902344 216.539063 C 224.183594 216.945313 224.5625 217.148438 225.042969 217.148438 C 225.519531 217.148438 225.894531 216.945313 226.167969 216.539063 C 226.449219 216.125 226.589844 215.554688 226.589844 214.835938 C 226.589844 214.117188 226.449219 213.550781 226.167969 213.132813 C 225.894531 212.71875 225.519531 212.507813 225.042969 212.507813 Z M 225.042969 211.679688 C 225.8125 211.679688 226.417969 211.960938 226.855469 212.523438 C 227.300781 213.078125 227.527344 213.847656 227.527344 214.835938 C 227.527344 215.816406 227.300781 216.585938 226.855469 217.148438 C 226.417969 217.710938 225.8125 217.992188 225.042969 217.992188 C 224.261719 217.992188 223.652344 217.710938 223.214844 217.148438 C 222.777344 216.585938 222.558594 215.816406 222.558594 214.835938 C 222.558594 213.847656 222.777344 213.078125 223.214844 212.523438 C 223.652344 211.960938 224.261719 211.679688 225.042969 211.679688 Z M 231.449219 214.804688 C 230.730469 214.804688 230.230469 214.898438 229.949219 215.085938 C 229.675781 215.273438 229.542969 215.585938 229.542969 216.023438 C 229.542969 216.367188 229.644531 216.644531 229.855469 216.851563 C 230.0625 217.0625 230.34375 217.164063 230.699219 217.164063 C 231.199219 217.164063 231.59375 216.972656 231.886719 216.585938 C 232.1875 216.191406 232.339844 215.675781 232.339844 215.039063 L 232.339844 214.804688 Z M 233.230469 214.398438 L 233.230469 217.835938 L 232.339844 217.835938 L 232.339844 216.929688 C 232.128906 217.296875 231.875 217.566406 231.574219 217.742188 C 231.269531 217.90625 230.902344 217.992188 230.464844 217.992188 C 229.910156 217.992188 229.46875 217.820313 229.136719 217.476563 C 228.8125 217.132813 228.652344 216.671875 228.652344 216.085938 C 228.652344 215.410156 228.855469 214.898438 229.261719 214.554688 C 229.667969 214.210938 230.277344 214.039063 231.089844 214.039063 L 232.339844 214.039063 L 232.339844 213.945313 C 232.339844 213.488281 232.203125 213.132813 231.933594 212.882813 C 231.660156 212.632813 231.28125 212.507813 230.792969 212.507813 C 230.488281 212.507813 230.1875 212.550781 229.886719 212.632813 C 229.59375 212.71875 229.3125 212.84375 229.042969 213.007813 L 229.042969 212.101563 C 229.375 211.957031 229.691406 211.851563 229.996094 211.789063 C 230.296875 211.71875 230.59375 211.679688 230.886719 211.679688 C 231.667969 211.679688 232.25 211.90625 232.636719 212.351563 C 233.03125 212.800781 233.230469 213.484375 233.230469 214.398438 Z M 238.621094 212.726563 L 238.621094 209.476563 L 239.511719 209.476563 L 239.511719 217.835938 L 238.621094 217.835938 L 238.621094 216.929688 C 238.433594 217.296875 238.191406 217.566406 237.902344 217.742188 C 237.621094 217.90625 237.28125 217.992188 236.886719 217.992188 C 236.230469 217.992188 235.691406 217.707031 235.277344 217.132813 C 234.871094 216.550781 234.667969 215.785156 234.667969 214.835938 C 234.667969 213.890625 234.871094 213.128906 235.277344 212.554688 C 235.691406 211.972656 236.230469 211.679688 236.886719 211.679688 C 237.28125 211.679688 237.621094 211.769531 237.902344 211.945313 C 238.191406 212.113281 238.433594 212.375 238.621094 212.726563 Z M 235.589844 214.835938 C 235.589844 215.566406 235.71875 216.140625 235.980469 216.554688 C 236.25 216.960938 236.621094 217.164063 237.089844 217.164063 C 237.566406 217.164063 237.941406 216.960938 238.214844 216.554688 C 238.484375 216.140625 238.621094 215.566406 238.621094 214.835938 C 238.621094 214.109375 238.484375 213.539063 238.214844 213.132813 C 237.941406 212.71875 237.566406 212.507813 237.089844 212.507813 C 236.621094 212.507813 236.25 212.71875 235.980469 213.132813 C 235.71875 213.539063 235.589844 214.109375 235.589844 214.835938 Z M 203.183594 221.710938 L 203.183594 224.726563 L 204.402344 224.726563 C 204.859375 224.726563 205.214844 224.597656 205.464844 224.335938 C 205.714844 224.066406 205.839844 223.691406 205.839844 223.210938 C 205.839844 222.734375 205.714844 222.363281 205.464844 222.101563 C 205.214844 221.84375 204.859375 221.710938 204.402344 221.710938 Z M 202.199219 220.820313 L 204.402344 220.820313 C 205.214844 220.820313 205.824219 221.023438 206.230469 221.429688 C 206.644531 221.835938 206.855469 222.429688 206.855469 223.210938 C 206.855469 224.003906 206.644531 224.601563 206.230469 225.007813 C 205.824219 225.414063 205.214844 225.617188 204.402344 225.617188 L 203.183594 225.617188 L 203.183594 228.835938 L 202.199219 228.835938 Z M 210.589844 225.804688 C 209.871094 225.804688 209.371094 225.898438 209.089844 226.085938 C 208.816406 226.273438 208.683594 226.585938 208.683594 227.023438 C 208.683594 227.367188 208.785156 227.644531 208.996094 227.851563 C 209.203125 228.0625 209.484375 228.164063 209.839844 228.164063 C 210.339844 228.164063 210.734375 227.972656 211.027344 227.585938 C 211.328125 227.191406 211.480469 226.675781 211.480469 226.039063 L 211.480469 225.804688 Z M 212.371094 225.398438 L 212.371094 228.835938 L 211.480469 228.835938 L 211.480469 227.929688 C 211.269531 228.296875 211.015625 228.566406 210.714844 228.742188 C 210.410156 228.90625 210.042969 228.992188 209.605469 228.992188 C 209.050781 228.992188 208.609375 228.820313 208.277344 228.476563 C 207.953125 228.132813 207.792969 227.671875 207.792969 227.085938 C 207.792969 226.410156 207.996094 225.898438 208.402344 225.554688 C 208.808594 225.210938 209.417969 225.039063 210.230469 225.039063 L 211.480469 225.039063 L 211.480469 224.945313 C 211.480469 224.488281 211.34375 224.132813 211.074219 223.882813 C 210.800781 223.632813 210.421875 223.507813 209.933594 223.507813 C 209.628906 223.507813 209.328125 223.550781 209.027344 223.632813 C 208.734375 223.71875 208.453125 223.84375 208.183594 224.007813 L 208.183594 223.101563 C 208.515625 222.957031 208.832031 222.851563 209.136719 222.789063 C 209.4375 222.71875 209.734375 222.679688 210.027344 222.679688 C 210.808594 222.679688 211.390625 222.90625 211.777344 223.351563 C 212.171875 223.800781 212.371094 224.484375 212.371094 225.398438 Z M 217.339844 223.742188 C 217.234375 223.679688 217.121094 223.632813 216.996094 223.601563 C 216.878906 223.570313 216.753906 223.554688 216.621094 223.554688 C 216.109375 223.554688 215.71875 223.738281 215.449219 224.101563 C 215.1875 224.46875 215.058594 224.988281 215.058594 225.664063 L 215.058594 228.835938 L 214.152344 228.835938 L 214.152344 222.820313 L 215.058594 222.820313 L 215.058594 223.757813 C 215.246094 223.394531 215.484375 223.125 215.777344 222.945313 C 216.078125 222.769531 216.441406 222.679688 216.871094 222.679688 C 216.933594 222.679688 217 222.6875 217.074219 222.695313 C 217.15625 222.695313 217.238281 222.707031 217.324219 222.726563 Z M 218.214844 220.476563 L 219.121094 220.476563 L 219.121094 225.414063 L 221.777344 222.820313 L 222.917969 222.820313 L 220.042969 225.632813 L 223.027344 228.835938 L 221.871094 228.835938 L 219.121094 225.898438 L 219.121094 228.835938 L 218.214844 228.835938 Z M 218.214844 220.476563 "/>
<path style=" stroke:none;fill-rule:evenodd;fill:rgb(33.333333%,33.333333%,33.333333%);fill-opacity:1;" d="M 165.847656 126.65625 C 165.898438 126.976563 166.011719 127.207031 166.191406 127.34375 C 166.378906 127.476563 166.621094 127.519531 166.925781 127.46875 C 167.226563 127.414063 167.441406 127.289063 167.566406 127.09375 C 167.691406 126.90625 167.726563 126.648438 167.675781 126.328125 L 167.472656 125.234375 L 165.644531 125.5625 Z M 162.097656 127.390625 C 162.160156 127.785156 162.300781 128.066406 162.519531 128.234375 C 162.746094 128.410156 163.050781 128.460938 163.425781 128.390625 C 163.808594 128.328125 164.074219 128.175781 164.222656 127.9375 C 164.367188 127.707031 164.410156 127.394531 164.347656 127 L 164.128906 125.828125 L 161.878906 126.21875 Z M 165.519531 128.6875 C 165.457031 129.15625 165.253906 129.535156 164.910156 129.828125 C 164.574219 130.128906 164.144531 130.328125 163.613281 130.421875 C 162.777344 130.566406 162.113281 130.421875 161.613281 129.984375 C 161.121094 129.554688 160.785156 128.828125 160.597656 127.796875 L 160.019531 124.46875 L 168.644531 122.953125 L 169.160156 125.953125 C 169.355469 127.035156 169.316406 127.851563 169.035156 128.40625 C 168.753906 128.957031 168.214844 129.300781 167.425781 129.4375 C 166.996094 129.507813 166.621094 129.484375 166.300781 129.359375 C 165.976563 129.234375 165.714844 129.007813 165.519531 128.6875 Z M 170.050781 131.058594 L 170.644531 134.386719 C 170.820313 135.363281 170.710938 136.160156 170.316406 136.777344 C 169.917969 137.402344 169.269531 137.792969 168.363281 137.949219 C 167.464844 138.113281 166.726563 137.972656 166.144531 137.527344 C 165.570313 137.078125 165.195313 136.363281 165.019531 135.386719 L 164.785156 134.074219 L 161.800781 134.605469 L 161.441406 132.589844 Z M 168.800781 133.371094 L 166.394531 133.792969 L 166.582031 134.886719 C 166.652344 135.269531 166.816406 135.550781 167.066406 135.730469 C 167.316406 135.90625 167.628906 135.957031 168.003906 135.886719 C 168.398438 135.824219 168.679688 135.667969 168.847656 135.417969 C 169.011719 135.167969 169.058594 134.847656 168.988281 134.464844 Z M 168.800781 133.371094 "/>
<path style="fill:none;stroke-width:3;stroke-linecap:round;stroke-linejoin:round;stroke:rgb(100%,100%,100%);stroke-opacity:1;stroke-miterlimit:10;" d="M 214.835938 155.402344 L 213.882813 155.839844 C 213.902344 155.433594 213.886719 155.058594 213.835938 154.714844 C 213.78125 154.378906 213.695313 154.074219 213.570313 153.792969 C 213.339844 153.316406 213.058594 152.992188 212.726563 152.824219 C 212.402344 152.660156 212.046875 152.664063 211.664063 152.839844 C 211.351563 152.988281 211.148438 153.183594 211.054688 153.433594 C 210.96875 153.683594 210.992188 154.078125 211.117188 154.621094 L 211.257813 155.199219 C 211.414063 155.917969 211.386719 156.515625 211.179688 156.996094 C 210.980469 157.484375 210.589844 157.863281 210.007813 158.136719 C 209.296875 158.46875 208.664063 158.503906 208.101563 158.246094 C 207.539063 157.984375 207.0625 157.441406 206.679688 156.621094 C 206.53125 156.308594 206.417969 155.957031 206.335938 155.574219 C 206.25 155.1875 206.203125 154.777344 206.195313 154.339844 L 207.195313 153.871094 C 207.132813 154.339844 207.121094 154.769531 207.164063 155.167969 C 207.214844 155.574219 207.320313 155.9375 207.476563 156.261719 C 207.703125 156.761719 207.992188 157.097656 208.335938 157.277344 C 208.6875 157.453125 209.070313 157.449219 209.476563 157.261719 C 209.839844 157.09375 210.078125 156.863281 210.195313 156.574219 C 210.308594 156.28125 210.308594 155.878906 210.195313 155.371094 L 210.054688 154.792969 C 209.898438 154.050781 209.902344 153.464844 210.070313 153.027344 C 210.246094 152.589844 210.617188 152.246094 211.179688 151.996094 C 211.824219 151.695313 212.421875 151.664063 212.976563 151.902344 C 213.539063 152.132813 213.984375 152.605469 214.320313 153.324219 C 214.464844 153.636719 214.578125 153.964844 214.664063 154.308594 C 214.746094 154.660156 214.804688 155.027344 214.835938 155.402344 Z M 213.820313 162.960938 L 210.539063 164.507813 L 210.164063 163.695313 L 213.414063 162.164063 C 213.933594 161.921875 214.277344 161.652344 214.445313 161.351563 C 214.609375 161.046875 214.609375 160.71875 214.445313 160.367188 C 214.246094 159.929688 213.933594 159.65625 213.507813 159.554688 C 213.078125 159.441406 212.601563 159.507813 212.070313 159.757813 L 208.992188 161.210938 L 208.601563 160.398438 L 216.164063 156.835938 L 216.554688 157.648438 L 213.585938 159.054688 C 214.011719 159.085938 214.359375 159.195313 214.632813 159.382813 C 214.914063 159.5625 215.136719 159.820313 215.304688 160.164063 C 215.5625 160.726563 215.570313 161.242188 215.320313 161.710938 C 215.070313 162.1875 214.570313 162.605469 213.820313 162.960938 Z M 217.011719 165.738281 C 216.800781 165.308594 216.453125 165.0625 215.964844 164.988281 C 215.472656 164.917969 214.90625 165.03125 214.261719 165.332031 C 213.605469 165.644531 213.144531 166.007813 212.886719 166.425781 C 212.636719 166.851563 212.613281 167.277344 212.824219 167.707031 C 213.019531 168.144531 213.363281 168.398438 213.855469 168.472656 C 214.34375 168.554688 214.917969 168.441406 215.574219 168.128906 C 216.21875 167.824219 216.667969 167.460938 216.917969 167.035156 C 217.175781 166.605469 217.207031 166.175781 217.011719 165.738281 Z M 217.761719 165.378906 C 218.082031 166.074219 218.089844 166.742188 217.777344 167.378906 C 217.464844 168.023438 216.859375 168.554688 215.964844 168.972656 C 215.078125 169.386719 214.285156 169.511719 213.589844 169.347656 C 212.890625 169.191406 212.378906 168.761719 212.058594 168.066406 C 211.722656 167.367188 211.71875 166.699219 212.042969 166.066406 C 212.363281 165.429688 212.96875 164.90625 213.855469 164.488281 C 214.75 164.074219 215.542969 163.941406 216.230469 164.097656 C 216.917969 164.253906 217.425781 164.683594 217.761719 165.378906 Z M 219.824219 172.253906 C 219.832031 172.128906 219.828125 172.003906 219.808594 171.878906 C 219.785156 171.761719 219.75 171.644531 219.699219 171.519531 C 219.480469 171.058594 219.144531 170.789063 218.699219 170.707031 C 218.25 170.625 217.722656 170.722656 217.121094 171.003906 L 214.246094 172.363281 L 213.855469 171.550781 L 219.292969 168.988281 L 219.683594 169.800781 L 218.839844 170.191406 C 219.253906 170.214844 219.605469 170.324219 219.886719 170.519531 C 220.167969 170.707031 220.394531 170.992188 220.574219 171.378906 C 220.605469 171.429688 220.628906 171.492188 220.652344 171.566406 C 220.683594 171.636719 220.714844 171.714844 220.746094 171.800781 Z M 220.503906 178.0625 L 220.066406 178.265625 L 218.332031 174.5625 C 217.738281 174.894531 217.351563 175.285156 217.175781 175.734375 C 216.996094 176.179688 217.027344 176.664063 217.269531 177.1875 C 217.414063 177.5 217.597656 177.78125 217.816406 178.03125 C 218.035156 178.289063 218.292969 178.53125 218.597656 178.75 L 217.753906 179.140625 C 217.480469 178.910156 217.238281 178.660156 217.019531 178.390625 C 216.808594 178.117188 216.632813 177.828125 216.488281 177.515625 C 216.121094 176.734375 216.085938 175.992188 216.378906 175.296875 C 216.667969 174.609375 217.246094 174.0625 218.113281 173.65625 C 218.996094 173.242188 219.804688 173.125 220.535156 173.3125 C 221.261719 173.5 221.800781 173.964844 222.144531 174.703125 C 222.457031 175.359375 222.460938 175.984375 222.160156 176.578125 C 221.867188 177.179688 221.316406 177.675781 220.503906 178.0625 Z M 220.410156 177.140625 C 220.886719 176.898438 221.214844 176.59375 221.394531 176.21875 C 221.582031 175.84375 221.582031 175.457031 221.394531 175.0625 C 221.183594 174.601563 220.871094 174.308594 220.457031 174.171875 C 220.050781 174.039063 219.585938 174.070313 219.066406 174.265625 Z M 224.339844 185.15625 C 224.359375 185.394531 224.292969 185.65625 224.136719 185.9375 C 223.980469 186.21875 223.738281 186.550781 223.417969 186.9375 L 221.839844 188.75 L 221.402344 187.796875 L 222.886719 186.09375 C 223.269531 185.65625 223.496094 185.296875 223.558594 185.015625 C 223.628906 184.734375 223.589844 184.414063 223.433594 184.0625 L 222.980469 183.109375 L 219.902344 184.53125 L 219.496094 183.625 L 226.777344 180.28125 L 227.699219 182.28125 C 228.042969 183.039063 228.125 183.679688 227.949219 184.203125 C 227.769531 184.722656 227.328125 185.148438 226.621094 185.484375 C 226.160156 185.691406 225.734375 185.769531 225.339844 185.71875 C 224.953125 185.664063 224.621094 185.476563 224.339844 185.15625 Z M 226.371094 181.5625 L 223.792969 182.75 L 224.308594 183.84375 C 224.503906 184.28125 224.761719 184.554688 225.074219 184.671875 C 225.394531 184.796875 225.769531 184.757813 226.199219 184.5625 C 226.625 184.363281 226.894531 184.101563 227.011719 183.78125 C 227.125 183.46875 227.082031 183.09375 226.886719 182.65625 Z M 228.066406 189.53125 C 227.867188 189.101563 227.519531 188.851563 227.019531 188.765625 C 226.527344 188.683594 225.957031 188.792969 225.300781 189.09375 C 224.652344 189.394531 224.199219 189.757813 223.941406 190.1875 C 223.679688 190.613281 223.648438 191.039063 223.847656 191.46875 C 224.042969 191.90625 224.386719 192.160156 224.878906 192.234375 C 225.367188 192.316406 225.933594 192.207031 226.582031 191.90625 C 227.238281 191.601563 227.695313 191.238281 227.957031 190.8125 C 228.226563 190.394531 228.261719 189.96875 228.066406 189.53125 Z M 228.816406 189.1875 C 229.136719 189.894531 229.136719 190.5625 228.816406 191.1875 C 228.492188 191.820313 227.878906 192.347656 226.972656 192.765625 C 226.085938 193.171875 225.292969 193.289063 224.597656 193.125 C 223.910156 192.957031 223.402344 192.519531 223.082031 191.8125 C 222.757813 191.101563 222.757813 190.429688 223.082031 189.796875 C 223.414063 189.171875 224.023438 188.65625 224.910156 188.25 C 225.816406 187.835938 226.613281 187.710938 227.300781 187.875 C 227.988281 188.042969 228.492188 188.480469 228.816406 189.1875 Z M 228.53125 196.320313 C 228.25 195.664063 227.96875 195.242188 227.6875 195.054688 C 227.414063 194.875 227.078125 194.871094 226.671875 195.039063 C 226.359375 195.171875 226.144531 195.375 226.03125 195.648438 C 225.914063 195.917969 225.925781 196.214844 226.0625 196.539063 C 226.257813 196.996094 226.59375 197.289063 227.0625 197.414063 C 227.539063 197.546875 228.070313 197.492188 228.65625 197.242188 L 228.875 197.148438 Z M 229.59375 197.804688 L 226.421875 199.132813 L 226.078125 198.320313 L 226.921875 197.976563 C 226.492188 197.914063 226.144531 197.777344 225.875 197.570313 C 225.601563 197.359375 225.378906 197.054688 225.203125 196.648438 C 224.992188 196.136719 224.984375 195.664063 225.171875 195.226563 C 225.367188 194.789063 225.734375 194.460938 226.265625 194.242188 C 226.890625 193.984375 227.4375 193.972656 227.90625 194.210938 C 228.382813 194.449219 228.78125 194.945313 229.09375 195.695313 L 229.578125 196.851563 L 229.671875 196.820313 C 230.085938 196.640625 230.359375 196.382813 230.484375 196.039063 C 230.617188 195.695313 230.585938 195.292969 230.390625 194.835938 C 230.273438 194.5625 230.117188 194.3125 229.921875 194.070313 C 229.734375 193.820313 229.507813 193.601563 229.25 193.414063 L 230.09375 193.070313 C 230.363281 193.320313 230.585938 193.570313 230.765625 193.820313 C 230.941406 194.070313 231.085938 194.332031 231.203125 194.601563 C 231.503906 195.320313 231.519531 195.945313 231.25 196.476563 C 230.988281 197.007813 230.4375 197.449219 229.59375 197.804688 Z M 232.917969 202.328125 L 236.011719 201.3125 L 236.277344 202.171875 L 228.339844 204.796875 L 228.074219 203.9375 L 228.933594 203.65625 C 228.527344 203.59375 228.199219 203.453125 227.949219 203.234375 C 227.699219 203.015625 227.511719 202.71875 227.386719 202.34375 C 227.175781 201.71875 227.28125 201.117188 227.699219 200.546875 C 228.113281 199.972656 228.769531 199.542969 229.667969 199.25 C 230.574219 198.949219 231.363281 198.902344 232.042969 199.109375 C 232.71875 199.320313 233.160156 199.734375 233.371094 200.359375 C 233.496094 200.734375 233.519531 201.082031 233.449219 201.40625 C 233.375 201.738281 233.199219 202.046875 232.917969 202.328125 Z M 229.964844 200.125 C 229.277344 200.351563 228.777344 200.65625 228.464844 201.03125 C 228.160156 201.414063 228.082031 201.828125 228.230469 202.265625 C 228.375 202.722656 228.6875 203.015625 229.167969 203.140625 C 229.644531 203.273438 230.230469 203.226563 230.917969 203 C 231.613281 202.769531 232.113281 202.460938 232.417969 202.078125 C 232.71875 201.691406 232.796875 201.269531 232.652344 200.8125 C 232.503906 200.375 232.191406 200.09375 231.714844 199.96875 C 231.246094 199.84375 230.660156 199.894531 229.964844 200.125 Z M 229.964844 200.125 "/>
<path style=" stroke:none;fill-rule:evenodd;fill:rgb(20%,20%,20%);fill-opacity:1;" d="M 214.835938 155.402344 L 213.882813 155.839844 C 213.902344 155.433594 213.886719 155.058594 213.835938 154.714844 C 213.78125 154.378906 213.695313 154.074219 213.570313 153.792969 C 213.339844 153.316406 213.058594 152.992188 212.726563 152.824219 C 212.402344 152.660156 212.046875 152.664063 211.664063 152.839844 C 211.351563 152.988281 211.148438 153.183594 211.054688 153.433594 C 210.96875 153.683594 210.992188 154.078125 211.117188 154.621094 L 211.257813 155.199219 C 211.414063 155.917969 211.386719 156.515625 211.179688 156.996094 C 210.980469 157.484375 210.589844 157.863281 210.007813 158.136719 C 209.296875 158.46875 208.664063 158.503906 208.101563 158.246094 C 207.539063 157.984375 207.0625 157.441406 206.679688 156.621094 C 206.53125 156.308594 206.417969 155.957031 206.335938 155.574219 C 206.25 155.1875 206.203125 154.777344 206.195313 154.339844 L 207.195313 153.871094 C 207.132813 154.339844 207.121094 154.769531 207.164063 155.167969 C 207.214844 155.574219 207.320313 155.9375 207.476563 156.261719 C 207.703125 156.761719 207.992188 157.097656 208.335938 157.277344 C 208.6875 157.453125 209.070313 157.449219 209.476563 157.261719 C 209.839844 157.09375 210.078125 156.863281 210.195313 156.574219 C 210.308594 156.28125 210.308594 155.878906 210.195313 155.371094 L 210.054688 154.792969 C 209.898438 154.050781 209.902344 153.464844 210.070313 153.027344 C 210.246094 152.589844 210.617188 152.246094 211.179688 151.996094 C 211.824219 151.695313 212.421875 151.664063 212.976563 151.902344 C 213.539063 152.132813 213.984375 152.605469 214.320313 153.324219 C 214.464844 153.636719 214.578125 153.964844 214.664063 154.308594 C 214.746094 154.660156 214.804688 155.027344 214.835938 155.402344 Z M 213.820313 162.960938 L 210.539063 164.507813 L 210.164063 163.695313 L 213.414063 162.164063 C 213.933594 161.921875 214.277344 161.652344 214.445313 161.351563 C 214.609375 161.046875 214.609375 160.71875 214.445313 160.367188 C 214.246094 159.929688 213.933594 159.65625 213.507813 159.554688 C 213.078125 159.441406 212.601563 159.507813 212.070313 159.757813 L 208.992188 161.210938 L 208.601563 160.398438 L 216.164063 156.835938 L 216.554688 157.648438 L 213.585938 159.054688 C 214.011719 159.085938 214.359375 159.195313 214.632813 159.382813 C 214.914063 159.5625 215.136719 159.820313 215.304688 160.164063 C 215.5625 160.726563 215.570313 161.242188 215.320313 161.710938 C 215.070313 162.1875 214.570313 162.605469 213.820313 162.960938 Z M 217.011719 165.738281 C 216.800781 165.308594 216.453125 165.0625 215.964844 164.988281 C 215.472656 164.917969 214.90625 165.03125 214.261719 165.332031 C 213.605469 165.644531 213.144531 166.007813 212.886719 166.425781 C 212.636719 166.851563 212.613281 167.277344 212.824219 167.707031 C 213.019531 168.144531 213.363281 168.398438 213.855469 168.472656 C 214.34375 168.554688 214.917969 168.441406 215.574219 168.128906 C 216.21875 167.824219 216.667969 167.460938 216.917969 167.035156 C 217.175781 166.605469 217.207031 166.175781 217.011719 165.738281 Z M 217.761719 165.378906 C 218.082031 166.074219 218.089844 166.742188 217.777344 167.378906 C 217.464844 168.023438 216.859375 168.554688 215.964844 168.972656 C 215.078125 169.386719 214.285156 169.511719 213.589844 169.347656 C 212.890625 169.191406 212.378906 168.761719 212.058594 168.066406 C 211.722656 167.367188 211.71875 166.699219 212.042969 166.066406 C 212.363281 165.429688 212.96875 164.90625 213.855469 164.488281 C 214.75 164.074219 215.542969 163.941406 216.230469 164.097656 C 216.917969 164.253906 217.425781 164.683594 217.761719 165.378906 Z M 219.824219 172.253906 C 219.832031 172.128906 219.828125 172.003906 219.808594 171.878906 C 219.785156 171.761719 219.75 171.644531 219.699219 171.519531 C 219.480469 171.058594 219.144531 170.789063 218.699219 170.707031 C 218.25 170.625 217.722656 170.722656 217.121094 171.003906 L 214.246094 172.363281 L 213.855469 171.550781 L 219.292969 168.988281 L 219.683594 169.800781 L 218.839844 170.191406 C 219.253906 170.214844 219.605469 170.324219 219.886719 170.519531 C 220.167969 170.707031 220.394531 170.992188 220.574219 171.378906 C 220.605469 171.429688 220.628906 171.492188 220.652344 171.566406 C 220.683594 171.636719 220.714844 171.714844 220.746094 171.800781 Z M 220.503906 178.0625 L 220.066406 178.265625 L 218.332031 174.5625 C 217.738281 174.894531 217.351563 175.285156 217.175781 175.734375 C 216.996094 176.179688 217.027344 176.664063 217.269531 177.1875 C 217.414063 177.5 217.597656 177.78125 217.816406 178.03125 C 218.035156 178.289063 218.292969 178.53125 218.597656 178.75 L 217.753906 179.140625 C 217.480469 178.910156 217.238281 178.660156 217.019531 178.390625 C 216.808594 178.117188 216.632813 177.828125 216.488281 177.515625 C 216.121094 176.734375 216.085938 175.992188 216.378906 175.296875 C 216.667969 174.609375 217.246094 174.0625 218.113281 173.65625 C 218.996094 173.242188 219.804688 173.125 220.535156 173.3125 C 221.261719 173.5 221.800781 173.964844 222.144531 174.703125 C 222.457031 175.359375 222.460938 175.984375 222.160156 176.578125 C 221.867188 177.179688 221.316406 177.675781 220.503906 178.0625 Z M 220.410156 177.140625 C 220.886719 176.898438 221.214844 176.59375 221.394531 176.21875 C 221.582031 175.84375 221.582031 175.457031 221.394531 175.0625 C 221.183594 174.601563 220.871094 174.308594 220.457031 174.171875 C 220.050781 174.039063 219.585938 174.070313 219.066406 174.265625 Z M 224.339844 185.15625 C 224.359375 185.394531 224.292969 185.65625 224.136719 185.9375 C 223.980469 186.21875 223.738281 186.550781 223.417969 186.9375 L 221.839844 188.75 L 221.402344 187.796875 L 222.886719 186.09375 C 223.269531 185.65625 223.496094 185.296875 223.558594 185.015625 C 223.628906 184.734375 223.589844 184.414063 223.433594 184.0625 L 222.980469 183.109375 L 219.902344 184.53125 L 219.496094 183.625 L 226.777344 180.28125 L 227.699219 182.28125 C 228.042969 183.039063 228.125 183.679688 227.949219 184.203125 C 227.769531 184.722656 227.328125 185.148438 226.621094 185.484375 C 226.160156 185.691406 225.734375 185.769531 225.339844 185.71875 C 224.953125 185.664063 224.621094 185.476563 224.339844 185.15625 Z M 226.371094 181.5625 L 223.792969 182.75 L 224.308594 183.84375 C 224.503906 184.28125 224.761719 184.554688 225.074219 184.671875 C 225.394531 184.796875 225.769531 184.757813 226.199219 184.5625 C 226.625 184.363281 226.894531 184.101563 227.011719 183.78125 C 227.125 183.46875 227.082031 183.09375 226.886719 182.65625 Z M 228.066406 189.53125 C 227.867188 189.101563 227.519531 188.851563 227.019531 188.765625 C 226.527344 188.683594 225.957031 188.792969 225.300781 189.09375 C 224.652344 189.394531 224.199219 189.757813 223.941406 190.1875 C 223.679688 190.613281 223.648438 191.039063 223.847656 191.46875 C 224.042969 191.90625 224.386719 192.160156 224.878906 192.234375 C 225.367188 192.316406 225.933594 192.207031 226.582031 191.90625 C 227.238281 191.601563 227.695313 191.238281 227.957031 190.8125 C 228.226563 190.394531 228.261719 189.96875 228.066406 189.53125 Z M 228.816406 189.1875 C 229.136719 189.894531 229.136719 190.5625 228.816406 191.1875 C 228.492188 191.820313 227.878906 192.347656 226.972656 192.765625 C 226.085938 193.171875 225.292969 193.289063 224.597656 193.125 C 223.910156 192.957031 223.402344 192.519531 223.082031 191.8125 C 222.757813 191.101563 222.757813 190.429688 223.082031 189.796875 C 223.414063 189.171875 224.023438 188.65625 224.910156 188.25 C 225.816406 187.835938 226.613281 187.710938 227.300781 187.875 C 227.988281 188.042969 228.492188 188.480469 228.816406 189.1875 Z M 228.53125 196.320313 C 228.25 195.664063 227.96875 195.242188 227.6875 195.054688 C 227.414063 194.875 227.078125 194.871094 226.671875 195.039063 C 226.359375 195.171875 226.144531 195.375 226.03125 195.648438 C 225.914063 195.917969 225.925781 196.214844 226.0625 196.539063 C 226.257813 196.996094 226.59375 197.289063 227.0625 197.414063 C 227.539063 197.546875 228.070313 197.492188 228.65625 197.242188 L 228.875 197.148438 Z M 229.59375 197.804688 L 226.421875 199.132813 L 226.078125 198.320313 L 226.921875 197.976563 C 226.492188 197.914063 226.144531 197.777344 225.875 197.570313 C 225.601563 197.359375 225.378906 197.054688 225.203125 196.648438 C 224.992188 196.136719 224.984375 195.664063 225.171875 195.226563 C 225.367188 194.789063 225.734375 194.460938 226.265625 194.242188 C 226.890625 193.984375 227.4375 193.972656 227.90625 194.210938 C 228.382813 194.449219 228.78125 194.945313 229.09375 195.695313 L 229.578125 196.851563 L 229.671875 196.820313 C 230.085938 196.640625 230.359375 196.382813 230.484375 196.039063 C 230.617188 195.695313 230.585938 195.292969 230.390625 194.835938 C 230.273438 194.5625 230.117188 194.3125 229.921875 194.070313 C 229.734375 193.820313 229.507813 193.601563 229.25 193.414063 L 230.09375 193.070313 C 230.363281 193.320313 230.585938 193.570313 230.765625 193.820313 C 230.941406 194.070313 231.085938 194.332031 231.203125 194.601563 C 231.503906 195.320313 231.519531 195.945313 231.25 196.476563 C 230.988281 197.007813 230.4375 197.449219 229.59375 197.804688 Z M 232.917969 202.328125 L 236.011719 201.3125 L 236.277344 202.171875 L 228.339844 204.796875 L 228.074219 203.9375 L 228.933594 203.65625 C 228.527344 203.59375 228.199219 203.453125 227.949219 203.234375 C 227.699219 203.015625 227.511719 202.71875 227.386719 202.34375 C 227.175781 201.71875 227.28125 201.117188 227.699219 200.546875 C 228.113281 199.972656 228.769531 199.542969 229.667969 199.25 C 230.574219 198.949219 231.363281 198.902344 232.042969 199.109375 C 232.71875 199.320313 233.160156 199.734375 233.371094 200.359375 C 233.496094 200.734375 233.519531 201.082031 233.449219 201.40625 C 233.375 201.738281 233.199219 202.046875 232.917969 202.328125 Z M 229.964844 200.125 C 229.277344 200.351563 228.777344 200.65625 228.464844 201.03125 C 228.160156 201.414063 228.082031 201.828125 228.230469 202.265625 C 228.375 202.722656 228.6875 203.015625 229.167969 203.140625 C 229.644531 203.273438 230.230469 203.226563 230.917969 203 C 231.613281 202.769531 232.113281 202.460938 232.417969 202.078125 C 232.71875 201.691406 232.796875 201.269531 232.652344 200.8125 C 232.503906 200.375 232.191406 200.09375 231.714844 199.96875 C 231.246094 199.84375 230.660156 199.894531 229.964844 200.125 Z M 229.964844 200.125 "/>
</g>
</svg>

