<?xml version="1.0" encoding="UTF-8"?>
<svg xmlns="http://www.w3.org/2000/svg" xmlns:xlink="http://www.w3.org/1999/xlink" width="256pt" height="256pt" viewBox="0 0 256 256" version="1.1">
<g id="surface2">
<rect x="0" y="0" width="256" height="256" style="fill:rgb(94.901961%,93.72549%,91.372549%);fill-opacity:1;stroke:none;"/>
<path style="fill:none;stroke-width:8;stroke-linecap:round;stroke-linejoin:round;stroke:rgb(75.686275%,70.980392%,61.568627%);stroke-opacity:1;stroke-miterlimit:10;" d="M 124.011719 264 L 122.082031 244.28125 L 122.359375 239.015625 L 123.269531 234.957031 L 134.988281 206.226563 L 136.574219 200.601563 L 136.855469 195.625 L 135.804688 186.988281 L 134.105469 179.234375 L 128.863281 162.445313 L 123.082031 146.902344 L 118.585938 131.359375 L 114.578125 116.175781 L 109.335938 90.160156 L 108.707031 82.046875 L 108.191406 63.820313 L 105.792969 52.332031 L 100.527344 35.742188 L 96.566406 25.925781 L 87.710938 8.285156 L 78.617188 -9 "/>
<path style="fill:none;stroke-width:6;stroke-linecap:round;stroke-linejoin:round;stroke:rgb(100%,100%,100%);stroke-opacity:1;stroke-miterlimit:10;" d="M 124.011719 264 L 122.082031 244.28125 L 122.359375 239.015625 L 123.269531 234.957031 L 134.988281 206.226563 L 136.574219 200.601563 L 136.855469 195.625 L 135.804688 186.988281 L 134.105469 179.234375 L 128.863281 162.445313 L 123.082031 146.902344 L 118.585938 131.359375 L 114.578125 116.175781 L 109.335938 90.160156 L 108.707031 82.046875 L 108.191406 63.820313 L 105.792969 52.332031 L 100.527344 35.742188 L 96.566406 25.925781 L 87.710938 8.285156 L 78.617188 -9 "/>
<path style="fill:none;stroke-width:3;stroke-linecap:round;stroke-linejoin:round;stroke:rgb(100%,100%,100%);stroke-opacity:1;stroke-miterlimit:10;" d="M 112.53125 90.25 L 108.375 89.515625 L 108.765625 92.140625 Z M 113.5 89.53125 L 113.65625 90.625 L 106.140625 94.515625 L 105.984375 93.515625 L 107.9375 92.578125 L 107.46875 89.359375 L 105.3125 89 L 105.171875 87.984375 Z M 112.09375 98.175781 L 115.265625 97.535156 L 115.4375 98.410156 L 107.25 100.066406 L 107.078125 99.191406 L 107.96875 99.019531 C 107.570313 98.902344 107.257813 98.722656 107.03125 98.472656 C 106.800781 98.230469 106.648438 97.917969 106.578125 97.535156 C 106.453125 96.886719 106.628906 96.304688 107.109375 95.785156 C 107.597656 95.261719 108.304688 94.910156 109.234375 94.722656 C 110.160156 94.535156 110.945313 94.589844 111.59375 94.878906 C 112.25 95.167969 112.640625 95.636719 112.765625 96.285156 C 112.835938 96.667969 112.816406 97.019531 112.703125 97.332031 C 112.597656 97.652344 112.394531 97.933594 112.09375 98.175781 Z M 109.421875 95.628906 C 108.710938 95.773438 108.179688 96.019531 107.828125 96.363281 C 107.472656 96.707031 107.34375 97.105469 107.4375 97.566406 C 107.53125 98.035156 107.804688 98.355469 108.265625 98.535156 C 108.722656 98.722656 109.304688 98.742188 110.015625 98.597656 C 110.734375 98.449219 111.265625 98.207031 111.609375 97.863281 C 111.960938 97.519531 112.09375 97.113281 112 96.644531 C 111.90625 96.183594 111.628906 95.863281 111.171875 95.675781 C 110.722656 95.496094 110.140625 95.480469 109.421875 95.628906 Z M 113.503906 100.679688 L 113.675781 101.554688 L 107.785156 102.742188 L 107.613281 101.867188 Z M 115.800781 100.210938 L 115.972656 101.085938 L 114.753906 101.335938 L 114.582031 100.460938 Z M 113.78125 106.640625 C 113.8125 106.515625 113.828125 106.390625 113.828125 106.265625 C 113.835938 106.148438 113.828125 106.023438 113.796875 105.890625 C 113.703125 105.390625 113.453125 105.046875 113.046875 104.859375 C 112.640625 104.671875 112.101563 104.644531 111.4375 104.78125 L 108.328125 105.40625 L 108.140625 104.515625 L 114.03125 103.328125 L 114.21875 104.21875 L 113.3125 104.40625 C 113.695313 104.507813 114.003906 104.6875 114.234375 104.9375 C 114.472656 105.195313 114.632813 105.535156 114.71875 105.953125 C 114.726563 106.015625 114.738281 106.082031 114.75 106.15625 C 114.757813 106.238281 114.757813 106.328125 114.75 106.421875 Z M 114.585938 109.542969 C 114.492188 109.074219 114.214844 108.738281 113.757813 108.542969 C 113.296875 108.355469 112.714844 108.332031 112.007813 108.480469 C 111.308594 108.625 110.78125 108.871094 110.429688 109.214844 C 110.074219 109.566406 109.945313 109.980469 110.039063 110.449219 C 110.132813 110.917969 110.40625 111.246094 110.867188 111.433594 C 111.335938 111.628906 111.917969 111.65625 112.617188 111.511719 C 113.324219 111.363281 113.851563 111.113281 114.195313 110.761719 C 114.546875 110.417969 114.679688 110.011719 114.585938 109.542969 Z M 115.398438 109.371094 C 115.554688 110.128906 115.402344 110.78125 114.945313 111.324219 C 114.484375 111.863281 113.773438 112.234375 112.804688 112.433594 C 111.84375 112.628906 111.042969 112.566406 110.398438 112.246094 C 109.761719 111.921875 109.367188 111.378906 109.210938 110.621094 C 109.0625 109.859375 109.21875 109.207031 109.679688 108.667969 C 110.148438 108.125 110.859375 107.753906 111.820313 107.558594 C 112.789063 107.363281 113.589844 107.425781 114.226563 107.746094 C 114.859375 108.066406 115.25 108.609375 115.398438 109.371094 Z M 114.738281 118.136719 L 111.207031 118.949219 L 111.003906 118.089844 L 114.503906 117.292969 C 115.066406 117.15625 115.457031 116.957031 115.675781 116.699219 C 115.902344 116.4375 115.976563 116.113281 115.894531 115.730469 C 115.789063 115.261719 115.539063 114.925781 115.144531 114.730469 C 114.757813 114.542969 114.277344 114.511719 113.707031 114.636719 L 110.394531 115.402344 L 110.191406 114.527344 L 116.050781 113.183594 L 116.253906 114.058594 L 115.347656 114.261719 C 115.742188 114.394531 116.054688 114.578125 116.285156 114.808594 C 116.523438 115.046875 116.691406 115.355469 116.785156 115.730469 C 116.917969 116.332031 116.816406 116.839844 116.472656 117.246094 C 116.128906 117.652344 115.550781 117.949219 114.738281 118.136719 Z M 117.515625 122.949219 L 120.65625 122.105469 L 120.875 122.980469 L 112.796875 125.121094 L 112.578125 124.246094 L 113.453125 124.011719 C 113.046875 123.925781 112.722656 123.769531 112.484375 123.542969 C 112.242188 123.3125 112.070313 123.003906 111.96875 122.621094 C 111.800781 121.984375 111.945313 121.390625 112.40625 120.839844 C 112.863281 120.296875 113.550781 119.90625 114.46875 119.667969 C 115.382813 119.429688 116.171875 119.433594 116.828125 119.683594 C 117.492188 119.921875 117.910156 120.359375 118.078125 120.996094 C 118.179688 121.378906 118.1875 121.734375 118.09375 122.058594 C 118 122.378906 117.804688 122.675781 117.515625 122.949219 Z M 114.703125 120.558594 C 113.992188 120.746094 113.472656 121.015625 113.140625 121.371094 C 112.816406 121.734375 112.710938 122.144531 112.828125 122.605469 C 112.953125 123.0625 113.25 123.371094 113.71875 123.527344 C 114.1875 123.683594 114.773438 123.667969 115.484375 123.480469 C 116.179688 123.292969 116.691406 123.015625 117.015625 122.652344 C 117.347656 122.285156 117.453125 121.875 117.328125 121.417969 C 117.210938 120.957031 116.921875 120.652344 116.453125 120.496094 C 115.984375 120.347656 115.398438 120.371094 114.703125 120.558594 Z M 116.824219 128.472656 C 116.644531 127.773438 116.425781 127.316406 116.167969 127.097656 C 115.917969 126.886719 115.578125 126.835938 115.152344 126.941406 C 114.816406 127.035156 114.578125 127.207031 114.433594 127.457031 C 114.285156 127.714844 114.261719 128.011719 114.355469 128.347656 C 114.480469 128.835938 114.765625 129.175781 115.214844 129.363281 C 115.671875 129.550781 116.207031 129.558594 116.824219 129.394531 L 117.058594 129.332031 Z M 117.667969 130.097656 L 114.339844 130.972656 L 114.121094 130.113281 L 114.996094 129.878906 C 114.589844 129.773438 114.261719 129.597656 114.011719 129.347656 C 113.769531 129.105469 113.59375 128.773438 113.480469 128.347656 C 113.34375 127.816406 113.402344 127.347656 113.652344 126.941406 C 113.902344 126.535156 114.308594 126.253906 114.871094 126.097656 C 115.527344 125.933594 116.074219 125.996094 116.511719 126.300781 C 116.949219 126.601563 117.269531 127.148438 117.480469 127.941406 L 117.792969 129.144531 L 117.886719 129.113281 C 118.324219 128.996094 118.628906 128.777344 118.808594 128.457031 C 118.984375 128.132813 119.011719 127.730469 118.886719 127.253906 C 118.800781 126.960938 118.683594 126.679688 118.527344 126.410156 C 118.371094 126.148438 118.175781 125.910156 117.949219 125.691406 L 118.824219 125.457031 C 119.042969 125.75 119.222656 126.027344 119.371094 126.300781 C 119.515625 126.570313 119.625 126.847656 119.699219 127.128906 C 119.894531 127.886719 119.828125 128.511719 119.496094 129.003906 C 119.160156 129.492188 118.550781 129.855469 117.667969 130.097656 Z M 121.488281 134.964844 L 120.597656 135.214844 C 120.679688 134.933594 120.722656 134.660156 120.722656 134.402344 C 120.730469 134.140625 120.699219 133.886719 120.628906 133.636719 C 120.472656 133.074219 120.152344 132.691406 119.675781 132.496094 C 119.195313 132.308594 118.601563 132.3125 117.894531 132.511719 C 117.183594 132.707031 116.679688 133.015625 116.378906 133.433594 C 116.074219 133.859375 116.003906 134.355469 116.160156 134.917969 C 116.230469 135.167969 116.339844 135.402344 116.488281 135.621094 C 116.632813 135.839844 116.808594 136.046875 117.019531 136.246094 L 116.144531 136.496094 C 115.957031 136.285156 115.789063 136.0625 115.644531 135.824219 C 115.507813 135.59375 115.402344 135.339844 115.332031 135.058594 C 115.101563 134.265625 115.195313 133.5625 115.613281 132.949219 C 116.027344 132.332031 116.707031 131.894531 117.644531 131.621094 C 118.582031 131.351563 119.382813 131.371094 120.050781 131.683594 C 120.726563 131.984375 121.183594 132.542969 121.425781 133.355469 C 121.496094 133.613281 121.539063 133.878906 121.550781 134.152344 C 121.558594 134.433594 121.539063 134.703125 121.488281 134.964844 Z M 124.378906 135.683594 L 124.628906 136.542969 L 119.878906 137.917969 L 123.113281 139.761719 L 123.425781 140.855469 L 119.925781 138.871094 L 117.675781 142.636719 L 117.363281 141.527344 L 119.425781 138.058594 L 116.597656 138.871094 L 116.347656 138.011719 Z M 125.992188 145.410156 L 123.132813 146.378906 L 123.523438 147.535156 C 123.667969 147.972656 123.902344 148.261719 124.226563 148.410156 C 124.558594 148.566406 124.953125 148.566406 125.414063 148.410156 C 125.871094 148.253906 126.183594 148.011719 126.351563 147.691406 C 126.515625 147.378906 126.527344 147.003906 126.382813 146.566406 Z M 126.523438 144.207031 L 127.226563 146.285156 C 127.484375 147.054688 127.484375 147.699219 127.226563 148.222656 C 126.976563 148.742188 126.480469 149.128906 125.742188 149.378906 C 124.992188 149.628906 124.355469 149.621094 123.835938 149.363281 C 123.324219 149.101563 122.9375 148.585938 122.679688 147.816406 L 122.289063 146.660156 L 119.242188 147.691406 L 118.929688 146.769531 Z M 124.597656 153.722656 C 124.347656 153.054688 124.082031 152.621094 123.800781 152.425781 C 123.527344 152.238281 123.191406 152.222656 122.785156 152.378906 C 122.460938 152.492188 122.238281 152.683594 122.113281 152.957031 C 121.988281 153.226563 121.988281 153.523438 122.113281 153.847656 C 122.289063 154.316406 122.613281 154.621094 123.082031 154.769531 C 123.550781 154.914063 124.082031 154.878906 124.675781 154.660156 L 124.894531 154.566406 Z M 125.582031 155.253906 L 122.363281 156.457031 L 122.050781 155.628906 L 122.894531 155.316406 C 122.496094 155.242188 122.164063 155.089844 121.894531 154.863281 C 121.621094 154.644531 121.414063 154.324219 121.269531 153.910156 C 121.070313 153.398438 121.070313 152.929688 121.269531 152.503906 C 121.476563 152.074219 121.855469 151.761719 122.410156 151.566406 C 123.042969 151.328125 123.589844 151.339844 124.050781 151.597656 C 124.519531 151.855469 124.898438 152.367188 125.191406 153.128906 L 125.613281 154.300781 L 125.691406 154.269531 C 126.128906 154.113281 126.414063 153.863281 126.550781 153.519531 C 126.695313 153.175781 126.683594 152.773438 126.519531 152.316406 C 126.414063 152.035156 126.269531 151.769531 126.082031 151.519531 C 125.902344 151.269531 125.691406 151.046875 125.441406 150.847656 L 126.285156 150.535156 C 126.535156 150.796875 126.742188 151.058594 126.910156 151.316406 C 127.074219 151.578125 127.210938 151.847656 127.316406 152.128906 C 127.585938 152.855469 127.582031 153.480469 127.300781 154.003906 C 127.019531 154.523438 126.445313 154.941406 125.582031 155.253906 Z M 128.882813 159.339844 C 128.890625 159.214844 128.890625 159.089844 128.882813 158.964844 C 128.871094 158.847656 128.84375 158.730469 128.804688 158.605469 C 128.625 158.125 128.320313 157.824219 127.882813 157.699219 C 127.445313 157.582031 126.90625 157.640625 126.273438 157.871094 L 123.304688 158.980469 L 122.992188 158.121094 L 128.632813 156.027344 L 128.945313 156.886719 L 128.070313 157.214844 C 128.464844 157.269531 128.796875 157.394531 129.070313 157.605469 C 129.339844 157.824219 129.546875 158.136719 129.695313 158.542969 C 129.726563 158.59375 129.75 158.65625 129.773438 158.730469 C 129.792969 158.800781 129.808594 158.886719 129.820313 158.980469 Z M 132.246094 159.144531 L 132.542969 160.003906 L 127.871094 161.597656 L 131.183594 163.269531 L 131.558594 164.347656 L 127.964844 162.550781 L 125.902344 166.394531 L 125.527344 165.300781 L 127.417969 161.753906 L 124.636719 162.707031 L 124.339844 161.847656 Z M 132.246094 159.144531 "/>
<path style=" stroke:none;fill-rule:evenodd;fill:rgb(20%,20%,20%);fill-opacity:1;" d="M 112.53125 90.25 L 108.375 89.515625 L 108.765625 92.140625 Z M 113.5 89.53125 L 113.65625 90.625 L 106.140625 94.515625 L 105.984375 93.515625 L 107.9375 92.578125 L 107.46875 89.359375 L 105.3125 89 L 105.171875 87.984375 Z M 112.09375 98.175781 L 115.265625 97.535156 L 115.4375 98.410156 L 107.25 100.066406 L 107.078125 99.191406 L 107.96875 99.019531 C 107.570313 98.902344 107.257813 98.722656 107.03125 98.472656 C 106.800781 98.230469 106.648438 97.917969 106.578125 97.535156 C 106.453125 96.886719 106.628906 96.304688 107.109375 95.785156 C 107.597656 95.261719 108.304688 94.910156 109.234375 94.722656 C 110.160156 94.535156 110.945313 94.589844 111.59375 94.878906 C 112.25 95.167969 112.640625 95.636719 112.765625 96.285156 C 112.835938 96.667969 112.816406 97.019531 112.703125 97.332031 C 112.597656 97.652344 112.394531 97.933594 112.09375 98.175781 Z M 109.421875 95.628906 C 108.710938 95.773438 108.179688 96.019531 107.828125 96.363281 C 107.472656 96.707031 107.34375 97.105469 107.4375 97.566406 C 107.53125 98.035156 107.804688 98.355469 108.265625 98.535156 C 108.722656 98.722656 109.304688 98.742188 110.015625 98.597656 C 110.734375 98.449219 111.265625 98.207031 111.609375 97.863281 C 111.960938 97.519531 112.09375 97.113281 112 96.644531 C 111.90625 96.183594 111.628906 95.863281 111.171875 95.675781 C 110.722656 95.496094 110.140625 95.480469 109.421875 95.628906 Z M 113.503906 100.679688 L 113.675781 101.554688 L 107.785156 102.742188 L 107.613281 101.867188 Z M 115.800781 100.210938 L 115.972656 101.085938 L 114.753906 101.335938 L 114.582031 100.460938 Z M 113.78125 106.640625 C 113.8125 106.515625 113.828125 106.390625 113.828125 106.265625 C 113.835938 106.148438 113.828125 106.023438 113.796875 105.890625 C 113.703125 105.390625 113.453125 105.046875 113.046875 104.859375 C 112.640625 104.671875 112.101563 104.644531 111.4375 104.78125 L 108.328125 105.40625 L 108.140625 104.515625 L 114.03125 103.328125 L 114.21875 104.21875 L 113.3125 104.40625 C 113.695313 104.507813 114.003906 104.6875 114.234375 104.9375 C 114.472656 105.195313 114.632813 105.535156 114.71875 105.953125 C 114.726563 106.015625 114.738281 106.082031 114.75 106.15625 C 114.757813 106.238281 114.757813 106.328125 114.75 106.421875 Z M 114.585938 109.542969 C 114.492188 109.074219 114.214844 108.738281 113.757813 108.542969 C 113.296875 108.355469 112.714844 108.332031 112.007813 108.480469 C 111.308594 108.625 110.78125 108.871094 110.429688 109.214844 C 110.074219 109.566406 109.945313 109.980469 110.039063 110.449219 C 110.132813 110.917969 110.40625 111.246094 110.867188 111.433594 C 111.335938 111.628906 111.917969 111.65625 112.617188 111.511719 C 113.324219 111.363281 113.851563 111.113281 114.195313 110.761719 C 114.546875 110.417969 114.679688 110.011719 114.585938 109.542969 Z M 115.398438 109.371094 C 115.554688 110.128906 115.402344 110.78125 114.945313 111.324219 C 114.484375 111.863281 113.773438 112.234375 112.804688 112.433594 C 111.84375 112.628906 111.042969 112.566406 110.398438 112.246094 C 109.761719 111.921875 109.367188 111.378906 109.210938 110.621094 C 109.0625 109.859375 109.21875 109.207031 109.679688 108.667969 C 110.148438 108.125 110.859375 107.753906 111.820313 107.558594 C 112.789063 107.363281 113.589844 107.425781 114.226563 107.746094 C 114.859375 108.066406 115.25 108.609375 115.398438 109.371094 Z M 114.738281 118.136719 L 111.207031 118.949219 L 111.003906 118.089844 L 114.503906 117.292969 C 115.066406 117.15625 115.457031 116.957031 115.675781 116.699219 C 115.902344 116.4375 115.976563 116.113281 115.894531 115.730469 C 115.789063 115.261719 115.539063 114.925781 115.144531 114.730469 C 114.757813 114.542969 114.277344 114.511719 113.707031 114.636719 L 110.394531 115.402344 L 110.191406 114.527344 L 116.050781 113.183594 L 116.253906 114.058594 L 115.347656 114.261719 C 115.742188 114.394531 116.054688 114.578125 116.285156 114.808594 C 116.523438 115.046875 116.691406 115.355469 116.785156 115.730469 C 116.917969 116.332031 116.816406 116.839844 116.472656 117.246094 C 116.128906 117.652344 115.550781 117.949219 114.738281 118.136719 Z M 117.515625 122.949219 L 120.65625 122.105469 L 120.875 122.980469 L 112.796875 125.121094 L 112.578125 124.246094 L 113.453125 124.011719 C 113.046875 123.925781 112.722656 123.769531 112.484375 123.542969 C 112.242188 123.3125 112.070313 123.003906 111.96875 122.621094 C 111.800781 121.984375 111.945313 121.390625 112.40625 120.839844 C 112.863281 120.296875 113.550781 119.90625 114.46875 119.667969 C 115.382813 119.429688 116.171875 119.433594 116.828125 119.683594 C 117.492188 119.921875 117.910156 120.359375 118.078125 120.996094 C 118.179688 121.378906 118.1875 121.734375 118.09375 122.058594 C 118 122.378906 117.804688 122.675781 117.515625 122.949219 Z M 114.703125 120.558594 C 113.992188 120.746094 113.472656 121.015625 113.140625 121.371094 C 112.816406 121.734375 112.710938 122.144531 112.828125 122.605469 C 112.953125 123.0625 113.25 123.371094 113.71875 123.527344 C 114.1875 123.683594 114.773438 123.667969 115.484375 123.480469 C 116.179688 123.292969 116.691406 123.015625 117.015625 122.652344 C 117.347656 122.285156 117.453125 121.875 117.328125 121.417969 C 117.210938 120.957031 116.921875 120.652344 116.453125 120.496094 C 115.984375 120.347656 115.398438 120.371094 114.703125 120.558594 Z M 116.824219 128.472656 C 116.644531 127.773438 116.425781 127.316406 116.167969 127.097656 C 115.917969 126.886719 115.578125 126.835938 115.152344 126.941406 C 114.816406 127.035156 114.578125 127.207031 114.433594 127.457031 C 114.285156 127.714844 114.261719 128.011719 114.355469 128.347656 C 114.480469 128.835938 114.765625 129.175781 115.214844 129.363281 C 115.671875 129.550781 116.207031 129.558594 116.824219 129.394531 L 117.058594 129.332031 Z M 117.667969 130.097656 L 114.339844 130.972656 L 114.121094 130.113281 L 114.996094 129.878906 C 114.589844 129.773438 114.261719 129.597656 114.011719 129.347656 C 113.769531 129.105469 113.59375 128.773438 113.480469 128.347656 C 113.34375 127.816406 113.402344 127.347656 113.652344 126.941406 C 113.902344 126.535156 114.308594 126.253906 114.871094 126.097656 C 115.527344 125.933594 116.074219 125.996094 116.511719 126.300781 C 116.949219 126.601563 117.269531 127.148438 117.480469 127.941406 L 117.792969 129.144531 L 117.886719 129.113281 C 118.324219 128.996094 118.628906 128.777344 118.808594 128.457031 C 118.984375 128.132813 119.011719 127.730469 118.886719 127.253906 C 118.800781 126.960938 118.683594 126.679688 118.527344 126.410156 C 118.371094 126.148438 118.175781 125.910156 117.949219 125.691406 L 118.824219 125.457031 C 119.042969 125.75 119.222656 126.027344 119.371094 126.300781 C 119.515625 126.570313 119.625 126.847656 119.699219 127.128906 C 119.894531 127.886719 119.828125 128.511719 119.496094 129.003906 C 119.160156 129.492188 118.550781 129.855469 117.667969 130.097656 Z M 121.488281 134.964844 L 120.597656 135.214844 C 120.679688 134.933594 120.722656 134.660156 120.722656 134.402344 C 120.730469 134.140625 120.699219 133.886719 120.628906 133.636719 C 120.472656 133.074219 120.152344 132.691406 119.675781 132.496094 C 119.195313 132.308594 118.601563 132.3125 117.894531 132.511719 C 117.183594 132.707031 116.679688 133.015625 116.378906 133.433594 C 116.074219 133.859375 116.003906 134.355469 116.160156 134.917969 C 116.230469 135.167969 116.339844 135.402344 116.488281 135.621094 C 116.632813 135.839844 116.808594 136.046875 117.019531 136.246094 L 116.144531 136.496094 C 115.957031 136.285156 115.789063 136.0625 115.644531 135.824219 C 115.507813 135.59375 115.402344 135.339844 115.332031 135.058594 C 115.101563 134.265625 115.195313 133.5625 115.613281 132.949219 C 116.027344 132.332031 116.707031 131.894531 117.644531 131.621094 C 118.582031 131.351563 119.382813 131.371094 120.050781 131.683594 C 120.726563 131.984375 121.183594 132.542969 121.425781 133.355469 C 121.496094 133.613281 121.539063 133.878906 121.550781 134.152344 C 121.558594 134.433594 121.539063 134.703125 121.488281 134.964844 Z M 124.378906 135.683594 L 124.628906 136.542969 L 119.878906 137.917969 L 123.113281 139.761719 L 123.425781 140.855469 L 119.925781 138.871094 L 117.675781 142.636719 L 117.363281 141.527344 L 119.425781 138.058594 L 116.597656 138.871094 L 116.347656 138.011719 Z M 125.992188 145.410156 L 123.132813 146.378906 L 123.523438 147.535156 C 123.667969 147.972656 123.902344 148.261719 124.226563 148.410156 C 124.558594 148.566406 124.953125 148.566406 125.414063 148.410156 C 125.871094 148.253906 126.183594 148.011719 126.351563 147.691406 C 126.515625 147.378906 126.527344 147.003906 126.382813 146.566406 Z M 126.523438 144.207031 L 127.226563 146.285156 C 127.484375 147.054688 127.484375 147.699219 127.226563 148.222656 C 126.976563 148.742188 126.480469 149.128906 125.742188 149.378906 C 124.992188 149.628906 124.355469 149.621094 123.835938 149.363281 C 123.324219 149.101563 122.9375 148.585938 122.679688 147.816406 L 122.289063 146.660156 L 119.242188 147.691406 L 118.929688 146.769531 Z M 124.597656 153.722656 C 124.347656 153.054688 124.082031 152.621094 123.800781 152.425781 C 123.527344 152.238281 123.191406 152.222656 122.785156 152.378906 C 122.460938 152.492188 122.238281 152.683594 122.113281 152.957031 C 121.988281 153.226563 121.988281 153.523438 122.113281 153.847656 C 122.289063 154.316406 122.613281 154.621094 123.082031 154.769531 C 123.550781 154.914063 124.082031 154.878906 124.675781 154.660156 L 124.894531 154.566406 Z M 125.582031 155.253906 L 122.363281 156.457031 L 122.050781 155.628906 L 122.894531 155.316406 C 122.496094 155.242188 122.164063 155.089844 121.894531 154.863281 C 121.621094 154.644531 121.414063 154.324219 121.269531 153.910156 C 121.070313 153.398438 121.070313 152.929688 121.269531 152.503906 C 121.476563 152.074219 121.855469 151.761719 122.410156 151.566406 C 123.042969 151.328125 123.589844 151.339844 124.050781 151.597656 C 124.519531 151.855469 124.898438 152.367188 125.191406 153.128906 L 125.613281 154.300781 L 125.691406 154.269531 C 126.128906 154.113281 126.414063 153.863281 126.550781 153.519531 C 126.695313 153.175781 126.683594 152.773438 126.519531 152.316406 C 126.414063 152.035156 126.269531 151.769531 126.082031 151.519531 C 125.902344 151.269531 125.691406 151.046875 125.441406 150.847656 L 126.285156 150.535156 C 126.535156 150.796875 126.742188 151.058594 126.910156 151.316406 C 127.074219 151.578125 127.210938 151.847656 127.316406 152.128906 C 127.585938 152.855469 127.582031 153.480469 127.300781 154.003906 C 127.019531 154.523438 126.445313 154.941406 125.582031 155.253906 Z M 128.882813 159.339844 C 128.890625 159.214844 128.890625 159.089844 128.882813 158.964844 C 128.871094 158.847656 128.84375 158.730469 128.804688 158.605469 C 128.625 158.125 128.320313 157.824219 127.882813 157.699219 C 127.445313 157.582031 126.90625 157.640625 126.273438 157.871094 L 123.304688 158.980469 L 122.992188 158.121094 L 128.632813 156.027344 L 128.945313 156.886719 L 128.070313 157.214844 C 128.464844 157.269531 128.796875 157.394531 129.070313 157.605469 C 129.339844 157.824219 129.546875 158.136719 129.695313 158.542969 C 129.726563 158.59375 129.75 158.65625 129.773438 158.730469 C 129.792969 158.800781 129.808594 158.886719 129.820313 158.980469 Z M 132.246094 159.144531 L 132.542969 160.003906 L 127.871094 161.597656 L 131.183594 163.269531 L 131.558594 164.347656 L 127.964844 162.550781 L 125.902344 166.394531 L 125.527344 165.300781 L 127.417969 161.753906 L 124.636719 162.707031 L 124.339844 161.847656 Z M 132.246094 159.144531 "/>
</g>
</svg>

