<?xml version="1.0" encoding="UTF-8"?>
<svg xmlns="http://www.w3.org/2000/svg" xmlns:xlink="http://www.w3.org/1999/xlink" width="256pt" height="256pt" viewBox="0 0 256 256" version="1.1">
<g id="surface2">
<rect x="0" y="0" width="256" height="256" style="fill:rgb(94.901961%,93.72549%,91.372549%);fill-opacity:1;stroke:none;"/>
<path style="fill:none;stroke-width:2;stroke-linecap:round;stroke-linejoin:round;stroke:rgb(60%,70.196078%,80%);stroke-opacity:1;stroke-miterlimit:10;" d="M 258 89.105469 L 256.675781 85.496094 L 248.398438 83.160156 L 239.480469 86.558594 L 233.007813 95.039063 L 226.320313 95.472656 L 214.640625 94.835938 L 204.242188 94.410156 L 193.414063 100.992188 L 183.222656 105.453125 L 176.582031 107.335938 L 171.144531 104.992188 L 164.328125 101.207031 L 157.535156 104.390625 L 147.980469 108.210938 L 136.515625 110.121094 L 131 111.183594 L 128.136719 115.015625 L 120.101563 125.605469 L 117.457031 131.144531 L 117.25 134.089844 L 116.75 141.070313 L 110.40625 153.433594 L 102.550781 166.804688 L 100.851563 185.699219 L 105.652344 198.109375 L 112.511719 209.21875 L 109.570313 218.039063 L 112.183594 225.878906 L 108.917969 235.027344 L 102.382813 239.925781 L 94.871094 252.667969 L 87.027344 257.894531 L 86.984375 258 "/>
<path style="fill:none;stroke-width:1;stroke-linecap:round;stroke-linejoin:round;stroke:rgb(100%,100%,100%);stroke-opacity:1;stroke-dasharray:2,3;stroke-miterlimit:10;" d="M 89.941406 205.738281 L 92.160156 207.101563 L 93.632813 208.609375 L 95.433594 209.496094 "/>
<path style="fill:none;stroke-width:1;stroke-linecap:round;stroke-linejoin:round;stroke:rgb(100%,100%,100%);stroke-opacity:1;stroke-dasharray:2,3;stroke-miterlimit:10;" d="M 109.066406 138.046875 L 113.945313 135.53125 L 117.25 134.089844 L 120.175781 132.816406 L 126.121094 131.140625 "/>
<path style="fill:none;stroke-width:1;stroke-linecap:round;stroke-linejoin:round;stroke:rgb(100%,100%,100%);stroke-opacity:1;stroke-dasharray:2,3;stroke-miterlimit:10;" d="M 59.285156 257 L 58.605469 253.066406 L 60.316406 248.816406 L 62.621094 245.75 L 67.339844 243.390625 L 72.414063 241.675781 L 78.261719 241.855469 L 81.621094 238.078125 L 84.335938 234.183594 L 86.167969 228.339844 L 87.050781 222.378906 L 87.347656 214.058594 L 89.941406 205.738281 L 91.183594 197.417969 L 91.539063 191.628906 L 93.25 182.128906 L 95.136719 171.917969 L 96.496094 163.007813 L 99.210938 155.042969 L 102.394531 149.730469 L 106.824219 145.1875 L 109.066406 138.046875 L 108.296875 134.859375 L 106.171875 130.371094 L 106.410156 127.011719 L 108.003906 124.175781 L 110.480469 121.582031 L 116.671875 118.765625 L 119.804688 118.789063 L 121.042969 120.761719 L 120.46875 122.664063 "/>
<path style="fill:none;stroke-width:1;stroke-linecap:round;stroke-linejoin:round;stroke:rgb(100%,100%,100%);stroke-opacity:1;stroke-dasharray:2,3;stroke-miterlimit:10;" d="M 121.480469 126.300781 L 126.121094 131.140625 L 131.253906 131.199219 L 137.214844 131.378906 L 139.574219 132.972656 L 142.585938 136.746094 L 146.894531 141.292969 L 150.082031 145.71875 L 154.625 146.367188 L 158.816406 143.121094 L 162.886719 140.109375 L 167.609375 137.984375 L 173.804688 137.925781 L 180.828125 139.109375 L 187.023438 139.285156 L 197.351563 138.871094 L 204.609375 138.105469 L 211.753906 135.09375 L 218.246094 130.960938 L 222.019531 126.476563 L 224.617188 123.824219 L 227.746094 122.523438 L 234.058594 120.398438 L 240.316406 119.21875 L 248.929688 117.214844 L 254.832031 115.679688 L 257 115.128906 "/>
<path style="fill:none;stroke-width:5;stroke-linecap:butt;stroke-linejoin:round;stroke:rgb(53.333333%,53.333333%,53.333333%);stroke-opacity:1;stroke-miterlimit:10;" d="M 120.46875 122.664063 L 121.480469 126.300781 "/>
<path style="fill:none;stroke-width:3;stroke-linecap:round;stroke-linejoin:round;stroke:rgb(98.039216%,98.039216%,96.078431%);stroke-opacity:1;stroke-miterlimit:10;" d="M 120.46875 122.664063 L 121.480469 126.300781 "/>
</g>
</svg>

