<?xml version="1.0" encoding="UTF-8"?>
<svg xmlns="http://www.w3.org/2000/svg" xmlns:xlink="http://www.w3.org/1999/xlink" width="256pt" height="256pt" viewBox="0 0 256 256" version="1.1">
<g id="surface2">
<rect x="0" y="0" width="256" height="256" style="fill:rgb(94.901961%,93.72549%,91.372549%);fill-opacity:1;stroke:none;"/>
<path style=" stroke:none;fill-rule:evenodd;fill:rgb(79.607843%,84.705882%,76.470588%);fill-opacity:1;" d="M 115.109375 5.648438 L 115.535156 6.136719 L 117.289063 6.246094 L 118.390625 5.992188 L 119.570313 6.378906 L 120.53125 5.941406 L 121.578125 5.941406 L 123.0625 5.714844 L 123.382813 4.328125 L 122.886719 1.09375 L 121.746094 -0.113281 L 121.675781 -1.71875 L 122.410156 -2.660156 L 123.351563 -4 L 118 -4 L 116.757813 -1.640625 L 117.0625 -0.550781 L 115.976563 0.0078125 L 116.054688 1.179688 L 115.765625 2.417969 L 115.464844 3.414063 L 115.519531 4.445313 L 115.003906 5.039063 Z M 118.117188 2.699219 L 118.375 2.671875 L 118.066406 3.847656 L 118.699219 4.800781 L 117.820313 3.980469 L 116.960938 3.902344 Z M 118.117188 2.699219 "/>
<path style=" stroke:none;fill-rule:evenodd;fill:rgb(79.607843%,84.705882%,76.470588%);fill-opacity:1;" d="M 121.761719 -0.121094 L 122.675781 0.722656 L 122.941406 3.910156 L 123.6875 5.191406 L 124.839844 4.636719 L 125.511719 3.128906 L 126.089844 1.769531 L 126.632813 0.742188 L 126.832031 -0.511719 L 127.375 -1.960938 L 127.71875 -2.925781 L 127.558594 -3.980469 L 123.378906 -4 L 122.59375 -2.898438 L 121.800781 -1.96875 L 121.691406 -1.5 Z M 122.75 -2.304688 L 123.09375 -2.308594 L 122.605469 -2.171875 Z M 123.671875 -3.417969 L 123.914063 -3.46875 L 123.617188 -3.257813 Z M 123.671875 -3.417969 "/>
<path style=" stroke:none;fill-rule:evenodd;fill:rgb(70.980392%,82.352941%,61.176471%);fill-opacity:1;" d="M 149.164063 -4 L 149.414063 -3.742188 L 149.914063 -2.433594 L 151.257813 -0.835938 L 152.984375 1.703125 L 153.574219 2.855469 L 154.902344 3.609375 L 156.640625 4.589844 L 157.273438 6.390625 L 157.976563 7.226563 L 159.722656 8.007813 L 158.003906 7.203125 L 157.308594 6.375 L 156.671875 4.570313 L 155.652344 3.585938 L 154.0625 3.210938 L 153.011719 1.683594 L 151.285156 -0.855469 L 150.253906 -1.914063 L 149.476563 -3.6875 L 149.203125 -4 Z M 149.164063 -4 "/>
<path style=" stroke:none;fill-rule:evenodd;fill:rgb(81.960784%,81.568627%,80.392157%);fill-opacity:1;" d="M 51.78125 5.113281 L 52.164063 5.503906 L 51.785156 4.929688 Z M 51.78125 5.113281 "/>
<path style="fill:none;stroke-width:1;stroke-linecap:round;stroke-linejoin:round;stroke:rgb(81.960784%,81.960784%,81.960784%);stroke-opacity:1;stroke-miterlimit:10;" d="M 51.78125 5.113281 L 52.164063 5.503906 L 51.785156 4.929688 L 51.78125 5.113281 "/>
<path style=" stroke:none;fill-rule:evenodd;fill:rgb(60%,70.196078%,80%);fill-opacity:1;" d="M 133.644531 4.65625 L 133.675781 4.785156 L 134.761719 4.253906 L 133.828125 4.515625 Z M 133.644531 4.65625 "/>
<path style="fill:none;stroke-width:1;stroke-linecap:round;stroke-linejoin:round;stroke:rgb(70.196078%,77.647059%,83.137255%);stroke-opacity:1;stroke-miterlimit:10;" d="M 133.644531 4.65625 L 133.675781 4.785156 L 134.761719 4.253906 L 133.828125 4.515625 L 133.644531 4.65625 "/>
<path style=" stroke:none;fill-rule:evenodd;fill:rgb(60%,70.196078%,80%);fill-opacity:1;" d="M 134.804688 4.183594 L 134.863281 4.347656 L 136.144531 4.199219 L 137.421875 4.453125 L 138.589844 3.890625 L 139.273438 2.796875 L 140.421875 2.238281 L 139.164063 2.25 L 138.351563 3.535156 L 137.027344 3.820313 L 135.742188 3.832031 L 135.089844 3.988281 Z M 134.804688 4.183594 "/>
<path style="fill:none;stroke-width:1;stroke-linecap:round;stroke-linejoin:round;stroke:rgb(70.196078%,77.647059%,83.137255%);stroke-opacity:1;stroke-miterlimit:10;" d="M 134.804688 4.183594 L 134.863281 4.347656 L 136.144531 4.199219 L 137.421875 4.453125 L 138.589844 3.890625 L 139.273438 2.796875 L 140.421875 2.238281 L 139.164063 2.25 L 138.351563 3.535156 L 137.027344 3.820313 L 135.742188 3.832031 L 135.089844 3.988281 L 134.804688 4.183594 "/>
<path style=" stroke:none;fill-rule:evenodd;fill:rgb(60%,70.196078%,80%);fill-opacity:1;" d="M 140.433594 2.386719 L 141.261719 2.617188 L 140.519531 2.164063 Z M 140.433594 2.386719 "/>
<path style="fill:none;stroke-width:1;stroke-linecap:round;stroke-linejoin:round;stroke:rgb(70.196078%,77.647059%,83.137255%);stroke-opacity:1;stroke-miterlimit:10;" d="M 140.433594 2.386719 L 141.261719 2.617188 L 140.519531 2.164063 L 140.433594 2.386719 "/>
<path style=" stroke:none;fill-rule:evenodd;fill:rgb(60%,70.196078%,80%);fill-opacity:1;" d="M 129.695313 5.121094 L 129.710938 5.226563 L 131.21875 5.320313 L 130.636719 4.996094 Z M 129.695313 5.121094 "/>
<path style="fill:none;stroke-width:1;stroke-linecap:round;stroke-linejoin:round;stroke:rgb(70.196078%,77.647059%,83.137255%);stroke-opacity:1;stroke-miterlimit:10;" d="M 129.695313 5.121094 L 129.710938 5.226563 L 131.21875 5.320313 L 130.636719 4.996094 L 129.695313 5.121094 "/>
<path style=" stroke:none;fill-rule:evenodd;fill:rgb(60%,70.196078%,80%);fill-opacity:1;" d="M 19.316406 0.972656 L 19.527344 1.332031 L 19.511719 0.628906 Z M 19.316406 0.972656 "/>
<path style="fill:none;stroke-width:1;stroke-linecap:round;stroke-linejoin:round;stroke:rgb(70.196078%,77.647059%,83.137255%);stroke-opacity:1;stroke-miterlimit:10;" d="M 19.316406 0.972656 L 19.527344 1.332031 L 19.511719 0.628906 L 19.316406 0.972656 "/>
<path style=" stroke:none;fill-rule:evenodd;fill:rgb(60%,70.196078%,80%);fill-opacity:1;" d="M 254.207031 0.902344 L 254.414063 0.945313 L 254.507813 0.324219 Z M 254.207031 0.902344 "/>
<path style="fill:none;stroke-width:1;stroke-linecap:round;stroke-linejoin:round;stroke:rgb(70.196078%,77.647059%,83.137255%);stroke-opacity:1;stroke-miterlimit:10;" d="M 254.207031 0.902344 L 254.414063 0.945313 L 254.507813 0.324219 L 254.207031 0.902344 "/>
<path style="fill:none;stroke-width:1;stroke-linecap:round;stroke-linejoin:round;stroke:rgb(60%,70.196078%,80%);stroke-opacity:1;stroke-miterlimit:10;" d="M 72.164063 6.34375 L 73.113281 5.28125 L 73.8125 3.503906 L 72.628906 1.636719 L 73.457031 -0.738281 L 73.039063 -2 "/>
<path style="fill:none;stroke-width:1;stroke-linecap:round;stroke-linejoin:round;stroke:rgb(60%,70.196078%,80%);stroke-opacity:1;stroke-miterlimit:10;" d="M 132.539063 63.066406 L 131.261719 64.414063 L 130.140625 65.386719 L 128.75 65.660156 L 127.878906 66.222656 L 127.023438 66.871094 L 126.234375 68.339844 L 125.59375 69.121094 L 124.59375 69.054688 L 123.585938 68.949219 L 123.191406 69.949219 L 122.210938 70.984375 L 121.214844 71.132813 L 120.0625 71.117188 L 119.292969 70.050781 L 117.617188 69.570313 L 116.714844 68.75 L 116.347656 67.574219 L 115.246094 67.304688 L 114.988281 66.238281 L 113.769531 65.886719 L 112.113281 64.222656 L 111.523438 62.988281 L 110.792969 62.085938 L 109.183594 61.949219 L 107.628906 61.976563 L 106.09375 61.5625 L 105.078125 60.609375 L 103.164063 60.101563 L 102.925781 58.976563 L 101.769531 58.792969 L 100.597656 59.117188 L 99.851563 59.84375 L 99.039063 60.660156 L 98.257813 59.867188 L 97.460938 58.652344 L 96.257813 58.816406 L 94.761719 58.945313 L 93.507813 59.011719 L 92.457031 59.285156 L 91.410156 59.789063 L 90.578125 59.121094 L 88.46875 57.355469 L 87.3125 57.046875 L 86.84375 55.996094 L 85.757813 55.542969 L 84.621094 54.777344 L 83.476563 54.300781 L 82.800781 53.421875 L 82.652344 52.203125 L 82.386719 50.957031 L 81.945313 49.671875 L 80.871094 49.292969 L 80.164063 48.527344 L 79.773438 47.566406 L 79.402344 46.542969 L 79.503906 45.523438 L 78.332031 44.820313 L 77.5 43.6875 L 76.5 43.960938 L 75.492188 43.753906 L 74.53125 43.398438 L 74.1875 42.308594 L 73.445313 41.050781 L 73.609375 40.042969 L 72.511719 39.527344 L 71.375 38.554688 L 70.636719 37.707031 L 69.523438 37.472656 L 69.15625 36.496094 L 69.984375 35.316406 L 69.753906 34.136719 L 69.257813 33.199219 L 68.015625 33.164063 L 67.550781 34.210938 L 66.746094 33.277344 L 66.460938 31.984375 L 65.472656 31.066406 L 64.320313 30.785156 L 65.445313 30.230469 L 64.386719 29.699219 L 65.765625 28.71875 L 64.703125 28.660156 L 65.179688 27.703125 L 66.382813 23.808594 L 66.953125 22.546875 L 65.882813 21.800781 L 66.628906 20.917969 L 65.710938 19.871094 L 64.679688 20.257813 L 64.078125 19.277344 L 63.59375 17.8125 L 64.292969 17.011719 L 65.550781 16.710938 L 65.691406 14.222656 L 64.242188 13.253906 L 64.011719 11.621094 L 65.652344 10.710938 L 66.746094 10.410156 L 67.929688 10.433594 L 68.929688 10.125 L 71.414063 10.730469 L 72.222656 10.007813 L 72.058594 8.210938 L 72.417969 7.246094 L 72.164063 6.34375 "/>
<path style="fill:none;stroke-width:1;stroke-linecap:round;stroke-linejoin:round;stroke:rgb(60%,70.196078%,80%);stroke-opacity:1;stroke-miterlimit:10;" d="M 100.015625 17.355469 L 99.351563 16.4375 L 100.132813 15.402344 L 97.820313 15.183594 L 96.730469 14.425781 L 95.730469 14.203125 L 95.1875 12.890625 L 94.167969 12.113281 L 93.296875 11.261719 L 92.082031 10.941406 L 90.917969 10.28125 L 90.585938 9.308594 L 89.449219 8.390625 L 88.003906 7.855469 L 86.625 8.03125 L 85.796875 8.984375 L 84.550781 9.1875 L 83.234375 9.230469 L 81.910156 8.816406 L 81.273438 7.898438 L 80.050781 7.402344 L 78.664063 7.179688 L 77.503906 7.234375 L 76.671875 6.167969 L 76.285156 4.949219 L 76.296875 3.664063 L 75.828125 2.640625 L 74.539063 2.21875 L 74.023438 1.109375 L 72.925781 0.980469 L 72.832031 0.785156 "/>
<path style="fill:none;stroke-width:1;stroke-linecap:round;stroke-linejoin:round;stroke:rgb(60%,70.196078%,80%);stroke-opacity:1;stroke-miterlimit:10;" d="M 159.597656 8.589844 L 159.074219 7.628906 L 158.023438 7.46875 L 157.101563 6.621094 L 156.527344 5.609375 L 156.261719 4.316406 L 155.398438 3.546875 L 153.90625 3.230469 L 153.144531 1.96875 L 153.40625 0.941406 L 152.730469 0.167969 L 152.3125 -0.832031 L 150.855469 -1.449219 L 150.445313 -2 "/>
<path style="fill:none;stroke-width:1;stroke-linecap:butt;stroke-linejoin:round;stroke:rgb(46.666667%,46.666667%,46.666667%);stroke-opacity:1;stroke-dasharray:2,2;stroke-miterlimit:10;" d="M 72.730469 7.6875 L 72.34375 9.972656 L 71.921875 11.386719 L 70.308594 12.28125 L 69.113281 12.148438 L 67.75 11.199219 L 66.394531 11.15625 L 65.304688 11.460938 L 64.945313 12.988281 L 65.800781 13.921875 L 66.183594 14.988281 L 65.714844 17.164063 L 65.722656 18.890625 L 66.671875 20.375 L 67.601563 23.617188 L 67.21875 29.074219 L 66.863281 30.667969 L 67.097656 31.695313 L 69.789063 32.625 L 71.167969 33.367188 L 71.820313 36.273438 L 72.4375 37.75 L 73.742188 39.214844 L 78.046875 43.796875 L 79.34375 44.730469 L 82.535156 50.089844 L 82.957031 51.210938 L 85.226563 55.078125 "/>
<path style="fill:none;stroke-width:1;stroke-linecap:butt;stroke-linejoin:round;stroke:rgb(46.666667%,46.666667%,46.666667%);stroke-opacity:1;stroke-dasharray:2,2;stroke-miterlimit:10;" d="M 23.25 7.5625 L 22.09375 4.457031 L 21.144531 1.097656 "/>
<path style="fill:none;stroke-width:1;stroke-linecap:butt;stroke-linejoin:round;stroke:rgb(46.666667%,46.666667%,46.666667%);stroke-opacity:1;stroke-dasharray:2,2;stroke-miterlimit:10;" d="M 75.4375 2.113281 L 75.3125 2.511719 "/>
<path style="fill:none;stroke-width:1;stroke-linecap:butt;stroke-linejoin:round;stroke:rgb(46.666667%,46.666667%,46.666667%);stroke-opacity:1;stroke-dasharray:2,2;stroke-miterlimit:10;" d="M 75.445313 2.085938 L 75.4375 2.113281 "/>
<path style="fill:none;stroke-width:1;stroke-linecap:butt;stroke-linejoin:round;stroke:rgb(46.666667%,46.666667%,46.666667%);stroke-opacity:1;stroke-dasharray:2,2;stroke-miterlimit:10;" d="M 75.015625 -1.84375 L 75.5 1.339844 L 75.445313 2.085938 "/>
<path style="fill:none;stroke-width:1;stroke-linecap:butt;stroke-linejoin:round;stroke:rgb(46.666667%,46.666667%,46.666667%);stroke-opacity:1;stroke-dasharray:2,2;stroke-miterlimit:10;" d="M 75.289063 2.609375 L 74.335938 5.746094 L 72.730469 7.6875 "/>
<path style="fill:none;stroke-width:1;stroke-linecap:butt;stroke-linejoin:round;stroke:rgb(46.666667%,46.666667%,46.666667%);stroke-opacity:1;stroke-dasharray:2,2;stroke-miterlimit:10;" d="M 75.3125 2.511719 L 75.289063 2.609375 "/>
<path style="fill:none;stroke-width:1;stroke-linecap:butt;stroke-linejoin:round;stroke:rgb(46.666667%,46.666667%,46.666667%);stroke-opacity:1;stroke-dasharray:2,2;stroke-miterlimit:10;" d="M 21.144531 1.097656 L 21.140625 1.078125 "/>
<path style="fill:none;stroke-width:1;stroke-linecap:butt;stroke-linejoin:round;stroke:rgb(46.666667%,46.666667%,46.666667%);stroke-opacity:1;stroke-dasharray:2,2;stroke-miterlimit:10;" d="M 21.140625 1.078125 L 20.707031 -2 "/>
<path style="fill:none;stroke-width:1;stroke-linecap:butt;stroke-linejoin:round;stroke:rgb(46.666667%,46.666667%,46.666667%);stroke-opacity:1;stroke-dasharray:2,2;stroke-miterlimit:10;" d="M 23.34375 8.566406 L 23.25 7.5625 "/>
<path style="fill:none;stroke-width:1.75;stroke-linecap:round;stroke-linejoin:round;stroke:rgb(75.686275%,70.980392%,61.568627%);stroke-opacity:1;stroke-miterlimit:10;" d="M 160.691406 8.359375 L 160.941406 7.980469 "/>
<path style="fill:none;stroke-width:1.75;stroke-linecap:round;stroke-linejoin:round;stroke:rgb(75.686275%,70.980392%,61.568627%);stroke-opacity:1;stroke-miterlimit:10;" d="M 36.707031 11.425781 L 37.648438 10.417969 L 39.269531 9.816406 L 40.597656 9.414063 L 41.40625 7.605469 "/>
<path style="fill:none;stroke-width:0.5;stroke-linecap:round;stroke-linejoin:round;stroke:rgb(75.686275%,70.980392%,61.568627%);stroke-opacity:1;stroke-miterlimit:10;" d="M 125.4375 4.484375 L 125.542969 4.484375 "/>
<path style="fill:none;stroke-width:0.5;stroke-linecap:round;stroke-linejoin:round;stroke:rgb(75.686275%,70.980392%,61.568627%);stroke-opacity:1;stroke-miterlimit:10;" d="M 125.929688 2.796875 L 126.167969 1.71875 L 126.667969 0.75 L 126.835938 -0.433594 "/>
<path style="fill:none;stroke-width:1.75;stroke-linecap:round;stroke-linejoin:round;stroke:rgb(75.686275%,70.980392%,61.568627%);stroke-opacity:1;stroke-miterlimit:10;" d="M 74.328125 1.90625 L 74.433594 1.757813 "/>
<path style="fill:none;stroke-width:0.5;stroke-linecap:round;stroke-linejoin:round;stroke:rgb(75.686275%,70.980392%,61.568627%);stroke-opacity:1;stroke-miterlimit:10;" d="M 105.222656 14.636719 L 106.402344 13.875 L 107.714844 13.726563 L 109.015625 13.085938 L 110.066406 11.625 L 110.820313 10.1875 L 111.828125 9.742188 L 112.296875 8.667969 L 113.914063 7.484375 "/>
<path style="fill:none;stroke-width:0.5;stroke-linecap:round;stroke-linejoin:round;stroke:rgb(75.686275%,70.980392%,61.568627%);stroke-opacity:1;stroke-miterlimit:10;" d="M 98.765625 15.054688 L 98.792969 12.460938 L 99.78125 10.011719 L 101.382813 8.390625 L 103.742188 7.601563 "/>
<path style="fill:none;stroke-width:4;stroke-linecap:round;stroke-linejoin:round;stroke:rgb(86.666667%,62.352941%,6.666667%);stroke-opacity:1;stroke-miterlimit:10;" d="M 20.375 -5 L 20.597656 -3.210938 L 21.246094 1.234375 L 22.40625 5.039063 "/>
<path style="fill:none;stroke-width:1.75;stroke-linecap:round;stroke-linejoin:round;stroke:rgb(75.686275%,70.980392%,61.568627%);stroke-opacity:1;stroke-miterlimit:10;" d="M 223.160156 3.414063 L 220.761719 1.164063 L 220.210938 -0.363281 L 219.40625 -1.199219 L 218.96875 -2.421875 L 218.671875 -3 "/>
<path style="fill:none;stroke-width:1.75;stroke-linecap:round;stroke-linejoin:round;stroke:rgb(75.686275%,70.980392%,61.568627%);stroke-opacity:1;stroke-miterlimit:10;" d="M 223.191406 3.53125 L 223.160156 3.414063 "/>
<path style="fill:none;stroke-width:1.75;stroke-linecap:round;stroke-linejoin:round;stroke:rgb(75.686275%,70.980392%,61.568627%);stroke-opacity:1;stroke-miterlimit:10;" d="M 74.433594 1.757813 L 74.632813 1.484375 "/>
<path style="fill:none;stroke-width:3;stroke-linecap:round;stroke-linejoin:round;stroke:rgb(86.666667%,62.352941%,6.666667%);stroke-opacity:1;stroke-miterlimit:10;" d="M 21.417969 1.878906 L 21.441406 1.875 "/>
<path style="fill:none;stroke-width:0.5;stroke-linecap:round;stroke-linejoin:round;stroke:rgb(75.686275%,70.980392%,61.568627%);stroke-opacity:1;stroke-miterlimit:10;" d="M 62.945313 13.875 L 63.25 12.515625 L 62.820313 10.996094 L 61.484375 9.183594 L 60.898438 7.648438 "/>
<path style="fill:none;stroke-width:1.75;stroke-linecap:round;stroke-linejoin:round;stroke:rgb(75.686275%,70.980392%,61.568627%);stroke-opacity:1;stroke-miterlimit:10;" d="M 68.042969 12.648438 L 69.210938 12.421875 L 71.453125 11.859375 L 72.179688 11 L 72.339844 8.738281 L 72.542969 7.679688 "/>
<path style="fill:none;stroke-width:0.5;stroke-linecap:round;stroke-linejoin:round;stroke:rgb(75.686275%,70.980392%,61.568627%);stroke-opacity:1;stroke-miterlimit:10;" d="M 55.613281 0.410156 L 57.351563 0.566406 L 58.148438 1.371094 L 59.332031 2.6875 L 59.984375 3.546875 L 59.902344 4.585938 L 60.65625 5.492188 L 61.058594 6.867188 L 60.898438 7.648438 "/>
<path style="fill:none;stroke-width:2;stroke-linecap:round;stroke-linejoin:round;stroke:rgb(75.686275%,70.980392%,61.568627%);stroke-opacity:1;stroke-miterlimit:10;" d="M 74.453125 0.972656 L 74.550781 -0.894531 L 74.414063 -1.25 "/>
<path style="fill:none;stroke-width:2;stroke-linecap:round;stroke-linejoin:round;stroke:rgb(75.686275%,70.980392%,61.568627%);stroke-opacity:1;stroke-miterlimit:10;" d="M 79.914063 5.023438 L 78.492188 3.929688 L 77.296875 3.410156 L 75.972656 2.304688 L 74.632813 1.484375 "/>
<path style="fill:none;stroke-width:0.5;stroke-linecap:round;stroke-linejoin:round;stroke:rgb(75.686275%,70.980392%,61.568627%);stroke-opacity:1;stroke-miterlimit:10;" d="M 55.613281 0.410156 L 55.933594 -0.960938 "/>
<path style="fill:none;stroke-width:1.75;stroke-linecap:round;stroke-linejoin:round;stroke:rgb(75.686275%,70.980392%,61.568627%);stroke-opacity:1;stroke-miterlimit:10;" d="M 72.542969 7.679688 L 72.773438 6.175781 L 73.878906 4.285156 L 74.03125 2.96875 L 74.328125 1.90625 "/>
<path style="fill:none;stroke-width:1.75;stroke-linecap:round;stroke-linejoin:round;stroke:rgb(75.686275%,70.980392%,61.568627%);stroke-opacity:1;stroke-miterlimit:10;" d="M 87.125 7.886719 L 87.097656 7.824219 "/>
<path style="fill:none;stroke-width:2;stroke-linecap:round;stroke-linejoin:round;stroke:rgb(75.686275%,70.980392%,61.568627%);stroke-opacity:1;stroke-miterlimit:10;" d="M 74.632813 1.484375 L 74.453125 0.972656 "/>
<path style="fill:none;stroke-width:1.75;stroke-linecap:round;stroke-linejoin:round;stroke:rgb(75.686275%,70.980392%,61.568627%);stroke-opacity:1;stroke-miterlimit:10;" d="M 159.300781 8.96875 L 158.363281 8.539063 L 157.710938 7.921875 "/>
<path style="fill:none;stroke-width:0.5;stroke-linecap:round;stroke-linejoin:round;stroke:rgb(75.686275%,70.980392%,61.568627%);stroke-opacity:1;stroke-miterlimit:10;" d="M 154.878906 3.472656 L 157.09375 4.757813 L 157.632813 6.738281 L 160.035156 7.300781 L 161.609375 7.199219 "/>
<path style="fill:none;stroke-width:0.5;stroke-linecap:round;stroke-linejoin:round;stroke:rgb(75.686275%,70.980392%,61.568627%);stroke-opacity:1;stroke-miterlimit:10;" d="M 177.910156 7.90625 L 178.261719 6.886719 L 179.679688 5.027344 "/>
<path style="fill:none;stroke-width:1.75;stroke-linecap:round;stroke-linejoin:round;stroke:rgb(75.686275%,70.980392%,61.568627%);stroke-opacity:1;stroke-miterlimit:10;" d="M 160.941406 7.980469 L 161.589844 7.210938 L 163.125 6.449219 L 167.140625 3.328125 L 169.421875 1.847656 L 171.585938 0.695313 L 173.011719 0.410156 L 175.089844 -0.585938 L 175.855469 -1.324219 L 175.992188 -1.738281 "/>
<path style="fill:none;stroke-width:0.5;stroke-linecap:round;stroke-linejoin:round;stroke:rgb(75.686275%,70.980392%,61.568627%);stroke-opacity:1;stroke-miterlimit:10;" d="M 143.871094 4.027344 L 144.359375 2.445313 L 145.355469 2.15625 L 146.632813 1.144531 L 146.925781 -2 "/>
<path style="fill:none;stroke-width:1.75;stroke-linecap:round;stroke-linejoin:round;stroke:rgb(75.686275%,70.980392%,61.568627%);stroke-opacity:1;stroke-miterlimit:10;" d="M 157.710938 7.921875 L 155.792969 4.460938 L 155.21875 3.882813 "/>
<path style="fill:none;stroke-width:0.5;stroke-linecap:round;stroke-linejoin:round;stroke:rgb(75.686275%,70.980392%,61.568627%);stroke-opacity:1;stroke-miterlimit:10;" d="M 179.679688 5.027344 L 180.570313 3.875 L 180.808594 2.804688 L 181.296875 1.480469 L 181.457031 0.140625 L 180.636719 -1.035156 L 179.238281 -1.691406 "/>
<path style="fill:none;stroke-width:1.75;stroke-linecap:round;stroke-linejoin:round;stroke:rgb(75.686275%,70.980392%,61.568627%);stroke-opacity:1;stroke-miterlimit:10;" d="M 155.144531 3.8125 L 154.277344 0.773438 L 152.863281 -1.023438 L 151.832031 -1.910156 L 151.378906 -2.859375 L 151.378906 -3 "/>
<path style="fill:none;stroke-width:1.75;stroke-linecap:round;stroke-linejoin:round;stroke:rgb(75.686275%,70.980392%,61.568627%);stroke-opacity:1;stroke-miterlimit:10;" d="M 155.21875 3.882813 L 155.144531 3.8125 "/>
<path style="fill:none;stroke-width:3;stroke-linecap:round;stroke-linejoin:round;stroke:rgb(86.666667%,62.352941%,6.666667%);stroke-opacity:1;stroke-miterlimit:10;" d="M 21.839844 3.253906 L 21.847656 3.0625 "/>
<path style="fill:none;stroke-width:4;stroke-linecap:round;stroke-linejoin:round;stroke:rgb(72.941176%,43.137255%,15.294118%);stroke-opacity:1;stroke-miterlimit:10;" d="M 23.367188 7.75 L 23.128906 6.640625 "/>
<path style="fill:none;stroke-width:4;stroke-linecap:round;stroke-linejoin:round;stroke:rgb(72.941176%,43.137255%,15.294118%);stroke-opacity:1;stroke-miterlimit:10;" d="M 23.316406 7.621094 L 23.273438 7.941406 "/>
<path style="fill:none;stroke-width:4;stroke-linecap:round;stroke-linejoin:round;stroke:rgb(86.666667%,62.352941%,6.666667%);stroke-opacity:1;stroke-miterlimit:10;" d="M 22.429688 5.03125 L 21.273438 1.226563 L 20.625 -3.214844 L 20.402344 -5 "/>
<path style="fill:none;stroke-width:4;stroke-linecap:round;stroke-linejoin:round;stroke:rgb(86.666667%,62.352941%,6.666667%);stroke-opacity:1;stroke-miterlimit:10;" d="M 22.40625 5.039063 L 23.097656 6.65625 "/>
<path style="fill:none;stroke-width:4;stroke-linecap:round;stroke-linejoin:round;stroke:rgb(72.941176%,43.137255%,15.294118%);stroke-opacity:1;stroke-miterlimit:10;" d="M 23.292969 8.082031 L 23.367188 7.75 "/>
<path style="fill:none;stroke-width:4;stroke-linecap:round;stroke-linejoin:round;stroke:rgb(72.941176%,43.137255%,15.294118%);stroke-opacity:1;stroke-miterlimit:10;" d="M 23.273438 7.941406 L 23.121094 8.410156 "/>
<path style="fill:none;stroke-width:4;stroke-linecap:round;stroke-linejoin:round;stroke:rgb(72.941176%,43.137255%,15.294118%);stroke-opacity:1;stroke-miterlimit:10;" d="M 23.179688 8.417969 L 23.292969 8.082031 "/>
<path style="fill:none;stroke-width:4;stroke-linecap:round;stroke-linejoin:round;stroke:rgb(72.941176%,43.137255%,15.294118%);stroke-opacity:1;stroke-miterlimit:10;" d="M 23.097656 6.65625 L 23.316406 7.621094 "/>
<path style="fill:none;stroke-width:4;stroke-linecap:round;stroke-linejoin:round;stroke:rgb(86.666667%,62.352941%,6.666667%);stroke-opacity:1;stroke-miterlimit:10;" d="M 23.128906 6.640625 L 22.429688 5.03125 "/>
<path style="fill:none;stroke-width:0.5;stroke-linecap:round;stroke-linejoin:round;stroke:rgb(75.686275%,70.980392%,61.568627%);stroke-opacity:1;stroke-miterlimit:10;" d="M 16.363281 18.054688 L 15.574219 16.660156 L 14.3125 16.351563 L 13.027344 15.816406 L 10.179688 12.210938 L 8.414063 10.726563 L 7.609375 9.121094 L 6.40625 8.253906 L 5.878906 7.9375 "/>
<path style="fill:none;stroke-width:0.5;stroke-linecap:round;stroke-linejoin:round;stroke:rgb(75.686275%,70.980392%,61.568627%);stroke-opacity:1;stroke-miterlimit:10;" d="M 48.355469 18.710938 L 47.007813 15.121094 L 44.671875 11.511719 L 44.582031 10.027344 L 43.792969 8.253906 L 43.957031 7.617188 "/>
<path style="fill:none;stroke-width:1.75;stroke-linecap:round;stroke-linejoin:round;stroke:rgb(75.686275%,70.980392%,61.568627%);stroke-opacity:1;stroke-miterlimit:10;" d="M 41.40625 7.605469 L 41.230469 6.542969 L 42.203125 6.101563 L 44.207031 5.847656 "/>
<path style="fill:none;stroke-width:0.5;stroke-linecap:round;stroke-linejoin:round;stroke:rgb(75.686275%,70.980392%,61.568627%);stroke-opacity:1;stroke-miterlimit:10;" d="M 5.878906 7.9375 L 5.449219 7.597656 "/>
<path style="fill:none;stroke-width:0.5;stroke-linecap:round;stroke-linejoin:round;stroke:rgb(75.686275%,70.980392%,61.568627%);stroke-opacity:1;stroke-miterlimit:10;" d="M 5.445313 7.5625 L 5.449219 7.597656 "/>
<path style="fill:none;stroke-width:0.5;stroke-linecap:round;stroke-linejoin:round;stroke:rgb(75.686275%,70.980392%,61.568627%);stroke-opacity:1;stroke-miterlimit:10;" d="M 4.890625 6.753906 L 5.582031 4.65625 L 6.386719 3.613281 L 6.011719 2.640625 L 4.929688 1.902344 L 4.417969 -0.285156 L 4.238281 -1.632813 L 4.324219 -2 "/>
<path style="fill:none;stroke-width:0.5;stroke-linecap:round;stroke-linejoin:round;stroke:rgb(75.686275%,70.980392%,61.568627%);stroke-opacity:1;stroke-miterlimit:10;" d="M 4.835938 6.808594 L 2.617188 6.964844 L 1.023438 6.316406 L -1.007813 4.90625 L -1.457031 4.335938 "/>
<path style="fill:none;stroke-width:1.75;stroke-linecap:round;stroke-linejoin:round;stroke:rgb(75.686275%,70.980392%,61.568627%);stroke-opacity:1;stroke-miterlimit:10;" d="M 51.699219 1.535156 L 53.128906 1.589844 L 55.84375 -0.730469 L 56.050781 -2.246094 L 55.988281 -3 "/>
<path style="fill:none;stroke-width:1.75;stroke-linecap:round;stroke-linejoin:round;stroke:rgb(75.686275%,70.980392%,61.568627%);stroke-opacity:1;stroke-miterlimit:10;" d="M 44.207031 5.847656 L 45.414063 5.5625 L 46.488281 4.769531 L 47.734375 4.917969 L 49.15625 4.757813 L 49.898438 3.808594 L 50.894531 3.492188 L 51.382813 2.691406 "/>
<path style="fill:none;stroke-width:0.5;stroke-linecap:round;stroke-linejoin:round;stroke:rgb(75.686275%,70.980392%,61.568627%);stroke-opacity:1;stroke-miterlimit:10;" d="M 5.445313 7.5625 L 4.835938 6.808594 "/>
<path style="fill:none;stroke-width:0.5;stroke-linecap:round;stroke-linejoin:round;stroke:rgb(75.686275%,70.980392%,61.568627%);stroke-opacity:1;stroke-miterlimit:10;" d="M 43.957031 7.617188 L 43.707031 6.484375 L 43.820313 5.761719 "/>
<path style="fill:none;stroke-width:1.75;stroke-linecap:round;stroke-linejoin:round;stroke:rgb(75.686275%,70.980392%,61.568627%);stroke-opacity:1;stroke-miterlimit:10;" d="M 23.703125 13.171875 L 23.578125 11.992188 L 23.679688 9.507813 L 23.539063 7.675781 "/>
<path style="fill:none;stroke-width:1.75;stroke-linecap:round;stroke-linejoin:round;stroke:rgb(75.686275%,70.980392%,61.568627%);stroke-opacity:1;stroke-miterlimit:10;" d="M 51.382813 2.691406 L 51.699219 1.535156 "/>
<path style="fill:none;stroke-width:3;stroke-linecap:round;stroke-linejoin:round;stroke:rgb(86.666667%,62.352941%,6.666667%);stroke-opacity:1;stroke-miterlimit:10;" d="M 21.769531 3.109375 L 21.792969 3.101563 "/>
<path style="fill:none;stroke-width:0.5;stroke-linecap:round;stroke-linejoin:round;stroke:rgb(75.686275%,70.980392%,61.568627%);stroke-opacity:1;stroke-miterlimit:10;" d="M 125.542969 4.484375 L 125.90625 2.882813 "/>
<path style="fill:none;stroke-width:1.75;stroke-linecap:round;stroke-linejoin:round;stroke:rgb(75.686275%,70.980392%,61.568627%);stroke-opacity:1;stroke-miterlimit:10;" d="M 98.433594 16.382813 L 94.785156 13.507813 L 93.300781 12.820313 L 91.714844 11.851563 L 89.402344 9.144531 L 88.421875 8.25 L 87.210938 8.003906 "/>
<path style="fill:none;stroke-width:0.5;stroke-linecap:round;stroke-linejoin:round;stroke:rgb(75.686275%,70.980392%,61.568627%);stroke-opacity:1;stroke-miterlimit:10;" d="M 130.527344 17.375 L 132.191406 17.109375 L 134.863281 15.90625 L 135.976563 15.285156 L 136.707031 14.445313 L 137.871094 13.714844 L 138.527344 12.558594 L 138.480469 10.667969 L 139.238281 9.496094 L 139.355469 8.148438 L 139.605469 7.75 "/>
<path style="fill:none;stroke-width:0.5;stroke-linecap:round;stroke-linejoin:round;stroke:rgb(75.686275%,70.980392%,61.568627%);stroke-opacity:1;stroke-miterlimit:10;" d="M 115.042969 6.175781 L 114.945313 4.851563 L 115.1875 1.972656 L 116 -0.5625 L 116.527344 -1.59375 L 116.464844 -2 "/>
<path style="fill:none;stroke-width:2;stroke-linecap:round;stroke-linejoin:round;stroke:rgb(75.686275%,70.980392%,61.568627%);stroke-opacity:1;stroke-miterlimit:10;" d="M 98.136719 1.417969 L 95.410156 2.976563 L 94.359375 3.910156 L 93.238281 5.398438 L 91.746094 6.519531 L 89.546875 7.457031 L 87.03125 7.695313 L 85.601563 7.570313 L 82.90625 6.769531 L 81.660156 5.691406 L 79.914063 5.023438 "/>
<path style="fill:none;stroke-width:0.5;stroke-linecap:round;stroke-linejoin:round;stroke:rgb(75.686275%,70.980392%,61.568627%);stroke-opacity:1;stroke-miterlimit:10;" d="M 139.605469 7.75 L 140.332031 6.292969 L 142.40625 4.964844 L 143.601563 4.273438 L 143.871094 4.027344 "/>
<path style="fill:none;stroke-width:0.5;stroke-linecap:round;stroke-linejoin:round;stroke:rgb(75.686275%,70.980392%,61.568627%);stroke-opacity:1;stroke-miterlimit:10;" d="M 113.914063 7.484375 L 115 6.535156 L 115.042969 6.175781 "/>
<path style="fill:none;stroke-width:0.5;stroke-linecap:round;stroke-linejoin:round;stroke:rgb(75.686275%,70.980392%,61.568627%);stroke-opacity:1;stroke-miterlimit:10;" d="M 115.042969 6.175781 L 117.378906 6.289063 L 118.78125 6.554688 L 121.289063 6.222656 L 123.058594 5.75 L 125.074219 4.503906 L 125.375 4.488281 "/>
<path style="fill:none;stroke-width:2;stroke-linecap:round;stroke-linejoin:round;stroke:rgb(75.686275%,70.980392%,61.568627%);stroke-opacity:1;stroke-miterlimit:10;" d="M 98.136719 1.417969 L 101.339844 -2.21875 L 101.894531 -3 "/>
<path style="fill:none;stroke-width:0.5;stroke-linecap:round;stroke-linejoin:round;stroke:rgb(75.686275%,70.980392%,61.568627%);stroke-opacity:1;stroke-miterlimit:10;" d="M 103.742188 7.601563 L 104.519531 6.945313 L 105.644531 6.105469 L 106.617188 4.125 L 107.046875 2.421875 L 108.054688 1.347656 L 106.617188 0.703125 L 105.59375 -0.363281 L 104.601563 -0.570313 L 103.496094 -2 "/>
<path style="fill:none;stroke-width:1.75;stroke-linecap:round;stroke-linejoin:round;stroke:rgb(75.686275%,70.980392%,61.568627%);stroke-opacity:1;stroke-miterlimit:10;" d="M 87.097656 7.824219 L 87.082031 7.691406 "/>
<path style="fill:none;stroke-width:1.75;stroke-linecap:round;stroke-linejoin:round;stroke:rgb(75.686275%,70.980392%,61.568627%);stroke-opacity:1;stroke-miterlimit:10;" d="M 87.210938 8.003906 L 87.125 7.886719 "/>
<path style="fill:none;stroke-width:0.5;stroke-linecap:round;stroke-linejoin:round;stroke:rgb(75.686275%,70.980392%,61.568627%);stroke-opacity:1;stroke-miterlimit:10;" d="M 125.375 4.488281 L 125.4375 4.484375 "/>
<path style="fill:none;stroke-width:0.5;stroke-linecap:round;stroke-linejoin:round;stroke:rgb(75.686275%,70.980392%,61.568627%);stroke-opacity:1;stroke-miterlimit:10;" d="M 125.90625 2.882813 L 125.929688 2.796875 "/>
<path style="fill:none;stroke-width:1.75;stroke-linecap:round;stroke-linejoin:round;stroke:rgb(75.686275%,70.980392%,61.568627%);stroke-opacity:1;stroke-miterlimit:10;" d="M 228.296875 9.394531 L 226.332031 7.566406 "/>
<path style="fill:none;stroke-width:0.5;stroke-linecap:round;stroke-linejoin:round;stroke:rgb(75.686275%,70.980392%,61.568627%);stroke-opacity:1;stroke-miterlimit:10;" d="M 192.953125 8.957031 L 192.863281 7.773438 "/>
<path style="fill:none;stroke-width:0.5;stroke-linecap:round;stroke-linejoin:round;stroke:rgb(75.686275%,70.980392%,61.568627%);stroke-opacity:1;stroke-miterlimit:10;" d="M 246.8125 7.992188 L 246.605469 7.582031 "/>
<path style="fill:none;stroke-width:0.5;stroke-linecap:round;stroke-linejoin:round;stroke:rgb(75.686275%,70.980392%,61.568627%);stroke-opacity:1;stroke-miterlimit:10;" d="M 253.039063 10.753906 L 251.601563 10.015625 L 250.4375 10.332031 L 248.183594 9.289063 L 246.8125 7.992188 "/>
<path style="fill:none;stroke-width:0.5;stroke-linecap:round;stroke-linejoin:round;stroke:rgb(75.686275%,70.980392%,61.568627%);stroke-opacity:1;stroke-miterlimit:10;" d="M 192.863281 7.773438 L 191.390625 6.03125 L 189.570313 5.269531 L 186.820313 3.242188 L 185.941406 2.476563 L 185.367188 1.628906 L 183.230469 0.664063 L 182.195313 -0.183594 L 181.816406 -0.234375 "/>
<path style="fill:none;stroke-width:0.5;stroke-linecap:round;stroke-linejoin:round;stroke:rgb(75.686275%,70.980392%,61.568627%);stroke-opacity:1;stroke-miterlimit:10;" d="M 185.480469 1.800781 L 186.742188 1.972656 L 188 2.277344 L 189.664063 0.800781 L 193.207031 0.789063 L 194.898438 1.351563 L 196.035156 1.636719 L 197.371094 2.234375 L 202.386719 2.238281 L 203.921875 1.933594 L 205.257813 1.890625 L 206.3125 2.394531 L 207.992188 1.996094 L 209.511719 1.539063 L 210.613281 1.234375 L 212.265625 1.425781 L 214.445313 2.597656 L 216.0625 2.28125 L 217.335938 1.441406 L 218.636719 1.523438 L 219.722656 1.308594 L 220.574219 0.933594 "/>
<path style="fill:none;stroke-width:0.5;stroke-linecap:round;stroke-linejoin:round;stroke:rgb(75.686275%,70.980392%,61.568627%);stroke-opacity:1;stroke-miterlimit:10;" d="M 212.558594 6.980469 L 212.515625 4.578125 L 213.46875 3.109375 L 213.972656 2.382813 "/>
<path style="fill:none;stroke-width:0.5;stroke-linecap:round;stroke-linejoin:round;stroke:rgb(75.686275%,70.980392%,61.568627%);stroke-opacity:1;stroke-miterlimit:10;" d="M 228.53125 9.117188 L 229.09375 7.5625 "/>
<path style="fill:none;stroke-width:1.75;stroke-linecap:round;stroke-linejoin:round;stroke:rgb(75.686275%,70.980392%,61.568627%);stroke-opacity:1;stroke-miterlimit:10;" d="M 226.332031 7.566406 L 224.863281 5.863281 L 223.925781 5.253906 L 223.347656 4.289063 L 223.191406 3.53125 "/>
<path style="fill:none;stroke-width:0.5;stroke-linecap:round;stroke-linejoin:round;stroke:rgb(75.686275%,70.980392%,61.568627%);stroke-opacity:1;stroke-miterlimit:10;" d="M 191.171875 0.8125 L 192.5625 -0.542969 L 193.605469 -2 "/>
<path style="fill:none;stroke-width:0.5;stroke-linecap:round;stroke-linejoin:round;stroke:rgb(75.686275%,70.980392%,61.568627%);stroke-opacity:1;stroke-miterlimit:10;" d="M 246.605469 7.582031 L 246.058594 6.476563 L 244.875 5.050781 L 243.726563 4.066406 L 242.449219 2.148438 L 242.117188 -1.304688 L 242.347656 -2 "/>
<path style="fill:none;stroke-width:1.75;stroke-linecap:round;stroke-linejoin:round;stroke:rgb(75.686275%,70.980392%,61.568627%);stroke-opacity:1;stroke-miterlimit:10;" d="M 220.613281 0.933594 L 220.664063 0.933594 "/>
<path style="fill:none;stroke-width:0.5;stroke-linecap:round;stroke-linejoin:round;stroke:rgb(75.686275%,70.980392%,61.568627%);stroke-opacity:1;stroke-miterlimit:10;" d="M 229.09375 7.5625 L 230.09375 6.929688 L 230.890625 5.695313 L 231.730469 4.285156 L 233.171875 2.859375 L 233.179688 -2 "/>
<path style="fill:none;stroke-width:1.75;stroke-linecap:round;stroke-linejoin:round;stroke:rgb(75.686275%,70.980392%,61.568627%);stroke-opacity:1;stroke-miterlimit:10;" d="M 220.574219 0.933594 L 220.613281 0.933594 "/>
<path style="fill:none;stroke-width:0.75;stroke-linecap:round;stroke-linejoin:round;stroke:rgb(100%,99.215686%,54.509804%);stroke-opacity:1;stroke-miterlimit:10;" d="M 160.691406 8.359375 L 160.941406 7.980469 "/>
<path style="fill:none;stroke-width:0.75;stroke-linecap:round;stroke-linejoin:round;stroke:rgb(100%,99.215686%,54.509804%);stroke-opacity:1;stroke-miterlimit:10;" d="M 36.707031 11.425781 L 37.648438 10.417969 L 39.269531 9.816406 L 40.597656 9.414063 L 41.40625 7.605469 "/>
<path style="fill:none;stroke-width:0.75;stroke-linecap:round;stroke-linejoin:round;stroke:rgb(100%,99.215686%,54.509804%);stroke-opacity:1;stroke-miterlimit:10;" d="M 74.328125 1.90625 L 74.433594 1.757813 "/>
<path style="fill:none;stroke-width:2;stroke-linecap:round;stroke-linejoin:round;stroke:rgb(100%,76.470588%,27.058824%);stroke-opacity:1;stroke-miterlimit:10;" d="M 20.375 -5 L 20.597656 -3.210938 L 21.246094 1.234375 L 22.40625 5.039063 "/>
<path style="fill:none;stroke-width:0.75;stroke-linecap:round;stroke-linejoin:round;stroke:rgb(100%,99.215686%,54.509804%);stroke-opacity:1;stroke-miterlimit:10;" d="M 223.160156 3.414063 L 220.761719 1.164063 L 220.210938 -0.363281 L 219.40625 -1.199219 L 218.96875 -2.421875 L 218.671875 -3 "/>
<path style="fill:none;stroke-width:0.75;stroke-linecap:round;stroke-linejoin:round;stroke:rgb(100%,99.215686%,54.509804%);stroke-opacity:1;stroke-miterlimit:10;" d="M 223.191406 3.53125 L 223.160156 3.414063 "/>
<path style="fill:none;stroke-width:0.75;stroke-linecap:round;stroke-linejoin:round;stroke:rgb(100%,99.215686%,54.509804%);stroke-opacity:1;stroke-miterlimit:10;" d="M 74.433594 1.757813 L 74.632813 1.484375 "/>
<path style="fill:none;stroke-width:1;stroke-linecap:round;stroke-linejoin:round;stroke:rgb(100%,76.470588%,27.058824%);stroke-opacity:1;stroke-miterlimit:10;" d="M 21.417969 1.878906 L 21.441406 1.875 "/>
<path style="fill:none;stroke-width:0.75;stroke-linecap:round;stroke-linejoin:round;stroke:rgb(100%,99.215686%,54.509804%);stroke-opacity:1;stroke-miterlimit:10;" d="M 68.042969 12.648438 L 69.210938 12.421875 L 71.453125 11.859375 L 72.179688 11 L 72.339844 8.738281 L 72.542969 7.679688 "/>
<path style="fill:none;stroke-width:1;stroke-linecap:round;stroke-linejoin:round;stroke:rgb(100%,99.215686%,54.509804%);stroke-opacity:1;stroke-miterlimit:10;" d="M 74.453125 0.972656 L 74.550781 -0.894531 L 74.414063 -1.25 "/>
<path style="fill:none;stroke-width:1;stroke-linecap:round;stroke-linejoin:round;stroke:rgb(100%,99.215686%,54.509804%);stroke-opacity:1;stroke-miterlimit:10;" d="M 79.914063 5.023438 L 78.492188 3.929688 L 77.296875 3.410156 L 75.972656 2.304688 L 74.632813 1.484375 "/>
<path style="fill:none;stroke-width:0.75;stroke-linecap:round;stroke-linejoin:round;stroke:rgb(100%,99.215686%,54.509804%);stroke-opacity:1;stroke-miterlimit:10;" d="M 72.542969 7.679688 L 72.773438 6.175781 L 73.878906 4.285156 L 74.03125 2.96875 L 74.328125 1.90625 "/>
<path style="fill:none;stroke-width:0.75;stroke-linecap:round;stroke-linejoin:round;stroke:rgb(100%,99.215686%,54.509804%);stroke-opacity:1;stroke-miterlimit:10;" d="M 87.125 7.886719 L 87.097656 7.824219 "/>
<path style="fill:none;stroke-width:1;stroke-linecap:round;stroke-linejoin:round;stroke:rgb(100%,99.215686%,54.509804%);stroke-opacity:1;stroke-miterlimit:10;" d="M 74.632813 1.484375 L 74.453125 0.972656 "/>
<path style="fill:none;stroke-width:0.75;stroke-linecap:round;stroke-linejoin:round;stroke:rgb(100%,99.215686%,54.509804%);stroke-opacity:1;stroke-miterlimit:10;" d="M 159.300781 8.96875 L 158.363281 8.539063 L 157.710938 7.921875 "/>
<path style="fill:none;stroke-width:0.75;stroke-linecap:round;stroke-linejoin:round;stroke:rgb(100%,99.215686%,54.509804%);stroke-opacity:1;stroke-miterlimit:10;" d="M 160.941406 7.980469 L 161.589844 7.210938 L 163.125 6.449219 L 167.140625 3.328125 L 169.421875 1.847656 L 171.585938 0.695313 L 173.011719 0.410156 L 175.089844 -0.585938 L 175.855469 -1.324219 L 175.992188 -1.738281 "/>
<path style="fill:none;stroke-width:0.75;stroke-linecap:round;stroke-linejoin:round;stroke:rgb(100%,99.215686%,54.509804%);stroke-opacity:1;stroke-miterlimit:10;" d="M 157.710938 7.921875 L 155.792969 4.460938 L 155.21875 3.882813 "/>
<path style="fill:none;stroke-width:0.75;stroke-linecap:round;stroke-linejoin:round;stroke:rgb(100%,99.215686%,54.509804%);stroke-opacity:1;stroke-miterlimit:10;" d="M 155.144531 3.8125 L 154.277344 0.773438 L 152.863281 -1.023438 L 151.832031 -1.910156 L 151.378906 -2.859375 L 151.378906 -3 "/>
<path style="fill:none;stroke-width:0.75;stroke-linecap:round;stroke-linejoin:round;stroke:rgb(100%,99.215686%,54.509804%);stroke-opacity:1;stroke-miterlimit:10;" d="M 155.21875 3.882813 L 155.144531 3.8125 "/>
<path style="fill:none;stroke-width:1;stroke-linecap:round;stroke-linejoin:round;stroke:rgb(100%,76.470588%,27.058824%);stroke-opacity:1;stroke-miterlimit:10;" d="M 21.839844 3.253906 L 21.847656 3.0625 "/>
<path style="fill:none;stroke-width:2;stroke-linecap:round;stroke-linejoin:round;stroke:rgb(99.215686%,57.254902%,22.745098%);stroke-opacity:1;stroke-miterlimit:10;" d="M 23.367188 7.75 L 23.128906 6.640625 "/>
<path style="fill:none;stroke-width:2;stroke-linecap:round;stroke-linejoin:round;stroke:rgb(99.215686%,57.254902%,22.745098%);stroke-opacity:1;stroke-miterlimit:10;" d="M 23.316406 7.621094 L 23.273438 7.941406 "/>
<path style="fill:none;stroke-width:2;stroke-linecap:round;stroke-linejoin:round;stroke:rgb(100%,76.470588%,27.058824%);stroke-opacity:1;stroke-miterlimit:10;" d="M 22.429688 5.03125 L 21.273438 1.226563 L 20.625 -3.214844 L 20.402344 -5 "/>
<path style="fill:none;stroke-width:2;stroke-linecap:round;stroke-linejoin:round;stroke:rgb(100%,76.470588%,27.058824%);stroke-opacity:1;stroke-miterlimit:10;" d="M 22.40625 5.039063 L 23.097656 6.65625 "/>
<path style="fill:none;stroke-width:2;stroke-linecap:round;stroke-linejoin:round;stroke:rgb(99.215686%,57.254902%,22.745098%);stroke-opacity:1;stroke-miterlimit:10;" d="M 23.292969 8.082031 L 23.367188 7.75 "/>
<path style="fill:none;stroke-width:2;stroke-linecap:round;stroke-linejoin:round;stroke:rgb(99.215686%,57.254902%,22.745098%);stroke-opacity:1;stroke-miterlimit:10;" d="M 23.273438 7.941406 L 23.121094 8.410156 "/>
<path style="fill:none;stroke-width:2;stroke-linecap:round;stroke-linejoin:round;stroke:rgb(99.215686%,57.254902%,22.745098%);stroke-opacity:1;stroke-miterlimit:10;" d="M 23.179688 8.417969 L 23.292969 8.082031 "/>
<path style="fill:none;stroke-width:2;stroke-linecap:round;stroke-linejoin:round;stroke:rgb(99.215686%,57.254902%,22.745098%);stroke-opacity:1;stroke-miterlimit:10;" d="M 23.097656 6.65625 L 23.316406 7.621094 "/>
<path style="fill:none;stroke-width:2;stroke-linecap:round;stroke-linejoin:round;stroke:rgb(100%,76.470588%,27.058824%);stroke-opacity:1;stroke-miterlimit:10;" d="M 23.128906 6.640625 L 22.429688 5.03125 "/>
<path style="fill:none;stroke-width:0.75;stroke-linecap:round;stroke-linejoin:round;stroke:rgb(100%,99.215686%,54.509804%);stroke-opacity:1;stroke-miterlimit:10;" d="M 41.40625 7.605469 L 41.230469 6.542969 L 42.203125 6.101563 L 44.207031 5.847656 "/>
<path style="fill:none;stroke-width:0.75;stroke-linecap:round;stroke-linejoin:round;stroke:rgb(100%,99.215686%,54.509804%);stroke-opacity:1;stroke-miterlimit:10;" d="M 51.699219 1.535156 L 53.128906 1.589844 L 55.84375 -0.730469 L 56.050781 -2.246094 L 55.988281 -3 "/>
<path style="fill:none;stroke-width:0.75;stroke-linecap:round;stroke-linejoin:round;stroke:rgb(100%,99.215686%,54.509804%);stroke-opacity:1;stroke-miterlimit:10;" d="M 44.207031 5.847656 L 45.414063 5.5625 L 46.488281 4.769531 L 47.734375 4.917969 L 49.15625 4.757813 L 49.898438 3.808594 L 50.894531 3.492188 L 51.382813 2.691406 "/>
<path style="fill:none;stroke-width:0.75;stroke-linecap:round;stroke-linejoin:round;stroke:rgb(100%,99.215686%,54.509804%);stroke-opacity:1;stroke-miterlimit:10;" d="M 23.703125 13.171875 L 23.578125 11.992188 L 23.679688 9.507813 L 23.539063 7.675781 "/>
<path style="fill:none;stroke-width:0.75;stroke-linecap:round;stroke-linejoin:round;stroke:rgb(100%,99.215686%,54.509804%);stroke-opacity:1;stroke-miterlimit:10;" d="M 51.382813 2.691406 L 51.699219 1.535156 "/>
<path style="fill:none;stroke-width:1;stroke-linecap:round;stroke-linejoin:round;stroke:rgb(100%,76.470588%,27.058824%);stroke-opacity:1;stroke-miterlimit:10;" d="M 21.769531 3.109375 L 21.792969 3.101563 "/>
<path style="fill:none;stroke-width:0.75;stroke-linecap:round;stroke-linejoin:round;stroke:rgb(100%,99.215686%,54.509804%);stroke-opacity:1;stroke-miterlimit:10;" d="M 98.433594 16.382813 L 94.785156 13.507813 L 93.300781 12.820313 L 91.714844 11.851563 L 89.402344 9.144531 L 88.421875 8.25 L 87.210938 8.003906 "/>
<path style="fill:none;stroke-width:1;stroke-linecap:round;stroke-linejoin:round;stroke:rgb(100%,99.215686%,54.509804%);stroke-opacity:1;stroke-miterlimit:10;" d="M 98.136719 1.417969 L 95.410156 2.976563 L 94.359375 3.910156 L 93.238281 5.398438 L 91.746094 6.519531 L 89.546875 7.457031 L 87.03125 7.695313 L 85.601563 7.570313 L 82.90625 6.769531 L 81.660156 5.691406 L 79.914063 5.023438 "/>
<path style="fill:none;stroke-width:1;stroke-linecap:round;stroke-linejoin:round;stroke:rgb(100%,99.215686%,54.509804%);stroke-opacity:1;stroke-miterlimit:10;" d="M 98.136719 1.417969 L 101.339844 -2.21875 L 101.894531 -3 "/>
<path style="fill:none;stroke-width:0.75;stroke-linecap:round;stroke-linejoin:round;stroke:rgb(100%,99.215686%,54.509804%);stroke-opacity:1;stroke-miterlimit:10;" d="M 87.097656 7.824219 L 87.082031 7.691406 "/>
<path style="fill:none;stroke-width:0.75;stroke-linecap:round;stroke-linejoin:round;stroke:rgb(100%,99.215686%,54.509804%);stroke-opacity:1;stroke-miterlimit:10;" d="M 87.210938 8.003906 L 87.125 7.886719 "/>
<path style="fill:none;stroke-width:0.75;stroke-linecap:round;stroke-linejoin:round;stroke:rgb(100%,99.215686%,54.509804%);stroke-opacity:1;stroke-miterlimit:10;" d="M 228.296875 9.394531 L 226.332031 7.566406 "/>
<path style="fill:none;stroke-width:0.75;stroke-linecap:round;stroke-linejoin:round;stroke:rgb(100%,99.215686%,54.509804%);stroke-opacity:1;stroke-miterlimit:10;" d="M 226.332031 7.566406 L 224.863281 5.863281 L 223.925781 5.253906 L 223.347656 4.289063 L 223.191406 3.53125 "/>
<path style="fill:none;stroke-width:0.75;stroke-linecap:round;stroke-linejoin:round;stroke:rgb(100%,99.215686%,54.509804%);stroke-opacity:1;stroke-miterlimit:10;" d="M 220.613281 0.933594 L 220.664063 0.933594 "/>
<path style="fill:none;stroke-width:0.75;stroke-linecap:round;stroke-linejoin:round;stroke:rgb(100%,99.215686%,54.509804%);stroke-opacity:1;stroke-miterlimit:10;" d="M 220.574219 0.933594 L 220.613281 0.933594 "/>
</g>
</svg>

