<?xml version="1.0" encoding="UTF-8"?>
<svg xmlns="http://www.w3.org/2000/svg" xmlns:xlink="http://www.w3.org/1999/xlink" width="256pt" height="256pt" viewBox="0 0 256 256" version="1.1">
<g id="surface2">
<rect x="0" y="0" width="256" height="256" style="fill:rgb(94.901961%,93.72549%,91.372549%);fill-opacity:1;stroke:none;"/>
<path style="fill:none;stroke-width:1;stroke-linecap:round;stroke-linejoin:round;stroke:rgb(100%,100%,100%);stroke-opacity:1;stroke-dasharray:2,3;stroke-miterlimit:10;" d="M 66.539063 229.664063 L 69.429688 232.367188 L 71.269531 230.183594 L 73.523438 230.210938 L 75.898438 231.023438 L 77.832031 230.054688 L 80.992188 227.742188 "/>
<path style="fill:none;stroke-width:1;stroke-linecap:round;stroke-linejoin:round;stroke:rgb(100%,100%,100%);stroke-opacity:1;stroke-dasharray:2,3;stroke-miterlimit:10;" d="M 6.304688 257 L 16.878906 245.511719 L 24.164063 243.195313 L 29.925781 238.703125 L 35.070313 232.164063 L 41.648438 228.140625 L 47.195313 228.6875 L 50.285156 231.207031 L 54.933594 231.835938 L 66.539063 229.664063 L 70.230469 221.128906 L 75.042969 217.617188 L 79.578125 211.566406 L 87.03125 203.636719 L 94.414063 192.425781 L 98.9375 182.988281 L 105.820313 175.90625 L 111.519531 166.273438 L 119.1875 161.164063 L 122.078125 155.988281 L 127.097656 153.660156 L 136.039063 149.738281 L 144.945313 142.679688 L 145.730469 135.796875 L 146.441406 130.652344 L 151.476563 128.394531 L 158.769531 126.1875 L 167.660156 121.804688 L 175.8125 111.417969 L 179.160156 102.765625 L 184.269531 94.902344 L 188.882813 87.667969 L 194.296875 85.660156 L 193.359375 78.550781 L 197.425781 76.148438 L 202.402344 76.359375 L 209.558594 82.015625 L 215.5625 79.726563 L 221.382813 75.164063 L 226.347656 69.144531 L 235.121094 62.578125 L 244.238281 57.542969 L 254.765625 51.175781 L 257 49.632813 "/>
</g>
</svg>

