<?xml version="1.0" encoding="UTF-8"?>
<svg xmlns="http://www.w3.org/2000/svg" xmlns:xlink="http://www.w3.org/1999/xlink" width="256pt" height="256pt" viewBox="0 0 256 256" version="1.1">
<g id="surface2">
<rect x="0" y="0" width="256" height="256" style="fill:rgb(94.901961%,93.72549%,91.372549%);fill-opacity:1;stroke:none;"/>
<path style="fill:none;stroke-width:8;stroke-linecap:round;stroke-linejoin:round;stroke:rgb(75.686275%,70.980392%,61.568627%);stroke-opacity:1;stroke-miterlimit:10;" d="M 264 170.980469 L 262.363281 168.25 L 255.023438 154.476563 L 244.003906 136.109375 L 239.414063 123.253906 L 238.039063 116.828125 L 238.039063 110.875 L 238.945313 103.972656 L 240.789063 98.019531 "/>
<path style="fill:none;stroke-width:8;stroke-linecap:round;stroke-linejoin:round;stroke:rgb(75.686275%,70.980392%,61.568627%);stroke-opacity:1;stroke-miterlimit:10;" d="M 250.71875 264 L 249.59375 260.253906 L 247.289063 254.207031 L 241.160156 242.527344 L 237.710938 237.269531 L 236.082031 234.007813 L 235.707031 231.792969 L 235.894531 229.703125 L 236.941406 227.867188 L 239.15625 225.585938 L 241.441406 224.035156 "/>
<path style="fill:none;stroke-width:6;stroke-linecap:round;stroke-linejoin:round;stroke:rgb(100%,100%,100%);stroke-opacity:1;stroke-miterlimit:10;" d="M 264 170.980469 L 262.363281 168.25 L 255.023438 154.476563 L 244.003906 136.109375 L 239.414063 123.253906 L 238.039063 116.828125 L 238.039063 110.875 L 238.945313 103.972656 L 240.789063 98.019531 "/>
<path style="fill:none;stroke-width:6;stroke-linecap:round;stroke-linejoin:round;stroke:rgb(100%,100%,100%);stroke-opacity:1;stroke-miterlimit:10;" d="M 250.71875 264 L 249.59375 260.253906 L 247.289063 254.207031 L 241.160156 242.527344 L 237.710938 237.269531 L 236.082031 234.007813 L 235.707031 231.792969 L 235.894531 229.703125 L 236.941406 227.867188 L 239.15625 225.585938 L 241.441406 224.035156 "/>
</g>
</svg>

