<?xml version="1.0" encoding="UTF-8"?>
<svg xmlns="http://www.w3.org/2000/svg" xmlns:xlink="http://www.w3.org/1999/xlink" width="256pt" height="256pt" viewBox="0 0 256 256" version="1.1">
<g id="surface2">
<rect x="0" y="0" width="256" height="256" style="fill:rgb(94.901961%,93.72549%,91.372549%);fill-opacity:1;stroke:none;"/>
<path style=" stroke:none;fill-rule:evenodd;fill:rgb(60%,70.196078%,80%);fill-opacity:1;" d="M 258.183594 171.914063 L 259 172.085938 L 259 158.160156 L 248.476563 157.777344 L 244.050781 156.390625 L 241.808594 158.097656 Z M 258.183594 171.914063 "/>
<path style="fill:none;stroke-width:1;stroke-linecap:round;stroke-linejoin:round;stroke:rgb(70.196078%,77.647059%,83.137255%);stroke-opacity:1;stroke-miterlimit:10;" d="M 258.183594 171.914063 L 259 172.085938 L 259 158.160156 L 248.476563 157.777344 L 244.050781 156.390625 L 241.808594 158.097656 L 258.183594 171.914063 "/>
<path style="fill:none;stroke-width:8;stroke-linecap:round;stroke-linejoin:round;stroke:rgb(75.686275%,70.980392%,61.568627%);stroke-opacity:1;stroke-miterlimit:10;" d="M 232.1875 264 L 232.304688 260.042969 L 233.679688 256.636719 L 234.261719 255.554688 L 241.53125 247.789063 L 251.972656 235.203125 L 254.652344 230.617188 L 257.003906 222.0625 L 257.726563 217.804688 L 257.75 209.511719 L 257.238281 205.777344 L 256.234375 202.53125 L 254.117188 198.828125 L 250.433594 195.78125 L 245.191406 192.832031 L 242.070313 192.308594 L 220.5625 192.832031 L 217.296875 193.519531 L 196.628906 200.304688 L 187.566406 201.027344 L 184.164063 200.699219 L 180.367188 199.417969 L 176.824219 197.8125 L 162.398438 189 L 158.71875 186.113281 L 156.132813 182.871094 L 153.382813 177.691406 L 152.378906 174.578125 L 151.796875 171.171875 L 151.542969 156.164063 L 153.265625 143.644531 L 154.269531 141.710938 L 156.855469 139.484375 L 159.511719 138.464844 L 172.304688 139.253906 L 185.117188 141.382813 L 188.871094 141.316406 L 192.878906 140.53125 L 195.230469 139.320313 L 198.308594 136.664063 L 202.527344 132.273438 L 203.480469 131.617188 L 211.171875 130.011719 L 214.058594 128.765625 L 218.535156 124.636719 L 220.609375 120.804688 L 220.933594 118.605469 L 220.28125 107.5625 L 220.769531 105.105469 L 221.285156 103.957031 L 228.832031 92.683594 L 235.425781 83.707031 L 248.105469 70.203125 L 257.65625 54.277344 L 258.800781 51 L 260.335938 43.691406 L 262.691406 37.824219 L 264 35.359375 "/>
<path style="fill:none;stroke-width:6;stroke-linecap:round;stroke-linejoin:round;stroke:rgb(100%,100%,100%);stroke-opacity:1;stroke-miterlimit:10;" d="M 232.1875 264 L 232.304688 260.042969 L 233.679688 256.636719 L 234.261719 255.554688 L 241.53125 247.789063 L 251.972656 235.203125 L 254.652344 230.617188 L 257.003906 222.0625 L 257.726563 217.804688 L 257.75 209.511719 L 257.238281 205.777344 L 256.234375 202.53125 L 254.117188 198.828125 L 250.433594 195.78125 L 245.191406 192.832031 L 242.070313 192.308594 L 220.5625 192.832031 L 217.296875 193.519531 L 196.628906 200.304688 L 187.566406 201.027344 L 184.164063 200.699219 L 180.367188 199.417969 L 176.824219 197.8125 L 162.398438 189 L 158.71875 186.113281 L 156.132813 182.871094 L 153.382813 177.691406 L 152.378906 174.578125 L 151.796875 171.171875 L 151.542969 156.164063 L 153.265625 143.644531 L 154.269531 141.710938 L 156.855469 139.484375 L 159.511719 138.464844 L 172.304688 139.253906 L 185.117188 141.382813 L 188.871094 141.316406 L 192.878906 140.53125 L 195.230469 139.320313 L 198.308594 136.664063 L 202.527344 132.273438 L 203.480469 131.617188 L 211.171875 130.011719 L 214.058594 128.765625 L 218.535156 124.636719 L 220.609375 120.804688 L 220.933594 118.605469 L 220.28125 107.5625 L 220.769531 105.105469 L 221.285156 103.957031 L 228.832031 92.683594 L 235.425781 83.707031 L 248.105469 70.203125 L 257.65625 54.277344 L 258.800781 51 L 260.335938 43.691406 L 262.691406 37.824219 L 264 35.359375 "/>
</g>
</svg>

