<?xml version="1.0" encoding="UTF-8"?>
<svg xmlns="http://www.w3.org/2000/svg" xmlns:xlink="http://www.w3.org/1999/xlink" width="256pt" height="256pt" viewBox="0 0 256 256" version="1.1">
<g id="surface2">
<rect x="0" y="0" width="256" height="256" style="fill:rgb(94.901961%,93.72549%,91.372549%);fill-opacity:1;stroke:none;"/>
<path style=" stroke:none;fill-rule:evenodd;fill:rgb(94.901961%,93.72549%,91.372549%);fill-opacity:1;" d="M -4 260 L 260 260 L 183.730469 260 L 141.265625 221.933594 L 91.535156 194.789063 L 67.371094 153.71875 L 55.019531 116.378906 L 23.019531 126.378906 L 9.519531 109.878906 L 47.519531 94.878906 L 37.519531 56.378906 L -4 69.265625 Z M -4 260 "/>
<path style="fill:none;stroke-width:1;stroke-linecap:round;stroke-linejoin:round;stroke:rgb(89.019608%,87.058824%,83.137255%);stroke-opacity:1;stroke-miterlimit:10;" d="M -4 260 L 260 260 L 183.730469 260 L 141.265625 221.933594 L 91.535156 194.789063 L 67.371094 153.71875 L 55.019531 116.378906 L 23.019531 126.378906 L 9.519531 109.878906 L 47.519531 94.878906 L 37.519531 56.378906 L -4 69.265625 L -4 260 "/>
<path style=" stroke:none;fill-rule:evenodd;fill:rgb(70.980392%,82.352941%,61.176471%);fill-opacity:1;" d="M 192.0625 260 L 260 260 L 260 216.355469 L 222.835938 221.859375 L 211.832031 213.859375 L 185.074219 253.703125 Z M 192.0625 260 "/>
<path style=" stroke:none;fill-rule:evenodd;fill:rgb(81.960784%,81.568627%,80.392157%);fill-opacity:1;" d="M 97.828125 142.46875 L 98.546875 143.703125 L 99.886719 148.128906 L 100.195313 158 L 115.726563 156.050781 L 114.699219 148.542969 L 116.546875 148.335938 L 117.886719 147.203125 L 119.738281 146.6875 L 122 147.613281 L 123.132813 148.4375 L 124.160156 154.917969 L 125.601563 155.019531 L 122.824219 132.804688 L 98.445313 136.816406 L 98.960938 140.929688 L 97.828125 141.03125 Z M 97.828125 142.46875 "/>
<path style="fill:none;stroke-width:1;stroke-linecap:round;stroke-linejoin:round;stroke:rgb(81.960784%,81.960784%,81.960784%);stroke-opacity:1;stroke-miterlimit:10;" d="M 97.828125 142.46875 L 98.546875 143.703125 L 99.886719 148.128906 L 100.195313 158 L 115.726563 156.050781 L 114.699219 148.542969 L 116.546875 148.335938 L 117.886719 147.203125 L 119.738281 146.6875 L 122 147.613281 L 123.132813 148.4375 L 124.160156 154.917969 L 125.601563 155.019531 L 122.824219 132.804688 L 98.445313 136.816406 L 98.960938 140.929688 L 97.828125 141.03125 L 97.828125 142.46875 "/>
<path style="fill:none;stroke-width:8;stroke-linecap:round;stroke-linejoin:round;stroke:rgb(75.686275%,70.980392%,61.568627%);stroke-opacity:1;stroke-miterlimit:10;" d="M 164.378906 90.753906 L 165.523438 90.003906 L 165.796875 88.660156 L 165.046875 87.519531 L 163.707031 87.242188 L 162.5625 87.992188 L 162.285156 89.335938 L 163.039063 90.476563 L 164.378906 90.753906 "/>
<path style="fill:none;stroke-width:8;stroke-linecap:round;stroke-linejoin:round;stroke:rgb(75.686275%,70.980392%,61.568627%);stroke-opacity:1;stroke-miterlimit:10;" d="M 234.425781 3.761719 L 254.34375 -0.3125 "/>
<path style="fill:none;stroke-width:8;stroke-linecap:round;stroke-linejoin:round;stroke:rgb(75.686275%,70.980392%,61.568627%);stroke-opacity:1;stroke-miterlimit:10;" d="M 162.546875 89.984375 L 160.265625 92.265625 L 159.058594 94.945313 L 157.015625 97.925781 L 154.476563 100.867188 L 150.105469 104.058594 L 145.320313 107.414063 "/>
<path style="fill:none;stroke-width:8;stroke-linecap:round;stroke-linejoin:round;stroke:rgb(75.686275%,70.980392%,61.568627%);stroke-opacity:1;stroke-miterlimit:10;" d="M 219.050781 17.964844 L 216.324219 3.589844 L 213.878906 -9 "/>
<path style="fill:none;stroke-width:8;stroke-linecap:round;stroke-linejoin:round;stroke:rgb(75.686275%,70.980392%,61.568627%);stroke-opacity:1;stroke-miterlimit:10;" d="M 223.867188 17.027344 L 221.789063 2.5625 L 219.347656 -9 "/>
<path style="fill:none;stroke-width:8;stroke-linecap:round;stroke-linejoin:round;stroke:rgb(75.686275%,70.980392%,61.568627%);stroke-opacity:1;stroke-miterlimit:10;" d="M 231.90625 0.625 L 231.273438 -3.355469 L 245.621094 -6.246094 L 254.792969 -8.09375 L 255.660156 -4.210938 "/>
<path style="fill:none;stroke-width:8;stroke-linecap:round;stroke-linejoin:round;stroke:rgb(75.686275%,70.980392%,61.568627%);stroke-opacity:1;stroke-miterlimit:10;" d="M 233.761719 0.246094 L 234.425781 3.761719 L 235.632813 10.144531 L 255.589844 5.824219 L 254.34375 -0.3125 L 253.632813 -3.800781 "/>
<path style="fill:none;stroke-width:8;stroke-linecap:round;stroke-linejoin:round;stroke:rgb(75.686275%,70.980392%,61.568627%);stroke-opacity:1;stroke-miterlimit:10;" d="M 210.585938 4.660156 L 208.042969 -9 M 225.214844 -9 L 227.523438 1.488281 "/>
<path style="fill:none;stroke-width:8;stroke-linecap:round;stroke-linejoin:round;stroke:rgb(75.686275%,70.980392%,61.568627%);stroke-opacity:1;stroke-miterlimit:10;" d="M 210.585938 4.660156 L 213.328125 19.074219 L 219.050781 17.964844 L 223.867188 17.027344 L 229.972656 15.847656 L 227.523438 1.488281 "/>
<path style="fill:none;stroke-width:8;stroke-linecap:round;stroke-linejoin:round;stroke:rgb(75.686275%,70.980392%,61.568627%);stroke-opacity:1;stroke-miterlimit:10;" d="M 204.136719 29.265625 L 205.976563 24.207031 L 206.570313 18.394531 L 206.035156 12.347656 L 205.214844 5.664063 L 203.429688 -4.730469 L 201.976563 -9 "/>
<path style="fill:none;stroke-width:8;stroke-linecap:round;stroke-linejoin:round;stroke:rgb(75.686275%,70.980392%,61.568627%);stroke-opacity:1;stroke-miterlimit:10;" d="M 113.808594 56.398438 L 163.820313 32.609375 L 165.5 30.597656 L 166.253906 27.746094 L 165.75 24.058594 L 165.832031 21.625 L 168.683594 19.949219 "/>
<path style="fill:none;stroke-width:8;stroke-linecap:round;stroke-linejoin:round;stroke:rgb(75.686275%,70.980392%,61.568627%);stroke-opacity:1;stroke-miterlimit:10;" d="M 264 -5.21875 L 255.660156 -4.210938 L 253.632813 -3.800781 L 246.28125 -2.304688 L 233.761719 0.246094 L 231.90625 0.625 L 227.523438 1.488281 L 221.789063 2.5625 L 216.324219 3.589844 L 210.585938 4.660156 L 205.214844 5.664063 L 201.214844 6.414063 "/>
<path style="fill:none;stroke-width:8;stroke-linecap:round;stroke-linejoin:round;stroke:rgb(75.686275%,70.980392%,61.568627%);stroke-opacity:1;stroke-miterlimit:10;" d="M 192.925781 54.734375 L 193.226563 66.550781 L 192.550781 68.394531 L 191.179688 69.8125 L 188.835938 70.988281 L 186.519531 71.558594 L 183.550781 71.535156 L 152.519531 72.308594 L 150.203125 73.105469 L 130.097656 89.101563 "/>
<path style="fill:none;stroke-width:8;stroke-linecap:round;stroke-linejoin:round;stroke:rgb(75.686275%,70.980392%,61.568627%);stroke-opacity:1;stroke-miterlimit:10;" d="M 204.316406 30.664063 L 206.808594 31.589844 L 211.351563 35.992188 L 214.195313 39.808594 L 221.117188 51.015625 L 226.148438 57.449219 L 229.15625 60.40625 L 237.964844 67.394531 L 242.671875 69.703125 L 247.726563 71.058594 L 249.40625 70.996094 L 251.011719 70.410156 L 255.648438 66.53125 L 264 56.972656 "/>
<path style="fill:none;stroke-width:8;stroke-linecap:round;stroke-linejoin:round;stroke:rgb(75.686275%,70.980392%,61.568627%);stroke-opacity:1;stroke-miterlimit:10;" d="M 108.105469 221.449219 L 102.835938 228.003906 L 100.507813 231.542969 "/>
<path style="fill:none;stroke-width:8;stroke-linecap:round;stroke-linejoin:round;stroke:rgb(75.686275%,70.980392%,61.568627%);stroke-opacity:1;stroke-miterlimit:10;" d="M 202.289063 139.949219 L 205.554688 140.800781 L 207.414063 140.988281 L 210.839844 140.730469 L 214.992188 140.648438 "/>
<path style="fill:none;stroke-width:8;stroke-linecap:round;stroke-linejoin:round;stroke:rgb(75.686275%,70.980392%,61.568627%);stroke-opacity:1;stroke-miterlimit:10;" d="M 92.25 158.105469 L 92.027344 156.472656 L 90.714844 155.476563 L 89.082031 155.703125 L 88.082031 157.015625 L 88.308594 158.648438 L 89.625 159.644531 L 91.257813 159.421875 L 92.25 158.105469 "/>
<path style="fill:none;stroke-width:8;stroke-linecap:round;stroke-linejoin:round;stroke:rgb(75.686275%,70.980392%,61.568627%);stroke-opacity:1;stroke-miterlimit:10;" d="M 37.335938 201.035156 L 63.410156 194.417969 "/>
<path style="fill:none;stroke-width:8;stroke-linecap:round;stroke-linejoin:round;stroke:rgb(75.686275%,70.980392%,61.568627%);stroke-opacity:1;stroke-miterlimit:10;" d="M 40.714844 144.574219 L 48.707031 120.179688 L 49.734375 116.820313 L 49.890625 111.558594 "/>
<path style="fill:none;stroke-width:8;stroke-linecap:round;stroke-linejoin:round;stroke:rgb(75.686275%,70.980392%,61.568627%);stroke-opacity:1;stroke-miterlimit:10;" d="M 26.773438 89.265625 L 27.527344 85.464844 L 27.457031 83.09375 L 20.257813 57.050781 L 18.089844 48.214844 "/>
<path style="fill:none;stroke-width:8;stroke-linecap:round;stroke-linejoin:round;stroke:rgb(75.686275%,70.980392%,61.568627%);stroke-opacity:1;stroke-miterlimit:10;" d="M -9 24.804688 L -1.742188 22.722656 L 0.960938 21.734375 L 2.640625 20.964844 L 7.253906 17.765625 L 14.523438 13.914063 "/>
<path style="fill:none;stroke-width:8;stroke-linecap:round;stroke-linejoin:round;stroke:rgb(75.686275%,70.980392%,61.568627%);stroke-opacity:1;stroke-miterlimit:10;" d="M 23.707031 264 L 21.046875 254.757813 L 19.882813 252.140625 L 18.390625 249.832031 L 14.988281 246.875 L 12.964844 245.582031 L 9.746094 244.199219 "/>
<path style="fill:none;stroke-width:8;stroke-linecap:round;stroke-linejoin:round;stroke:rgb(75.686275%,70.980392%,61.568627%);stroke-opacity:1;stroke-miterlimit:10;" d="M -9 188.988281 L 5.785156 185.828125 L 8.863281 184.96875 L 30.835938 178.59375 "/>
<path style="fill:none;stroke-width:8;stroke-linecap:round;stroke-linejoin:round;stroke:rgb(75.686275%,70.980392%,61.568627%);stroke-opacity:1;stroke-miterlimit:10;" d="M 20.464844 151.132813 L 9.886719 133.371094 L 8.117188 131.429688 L -1.4375 122.839844 L -5.75 119.546875 L -9 116.613281 "/>
<path style="fill:none;stroke-width:8;stroke-linecap:round;stroke-linejoin:round;stroke:rgb(75.686275%,70.980392%,61.568627%);stroke-opacity:1;stroke-miterlimit:10;" d="M 145.320313 107.414063 L 140.449219 99.183594 L 135.972656 93.898438 L 130.097656 89.101563 L 125.695313 86.121094 L 121.367188 81.714844 L 118.136719 75.992188 L 117.183594 70.046875 L 116.378906 62.707031 L 113.808594 56.398438 L 103.3125 39.589844 L 100.597656 33.277344 L 97.875 22.011719 "/>
<path style="fill:none;stroke-width:8;stroke-linecap:round;stroke-linejoin:round;stroke:rgb(75.686275%,70.980392%,61.568627%);stroke-opacity:1;stroke-miterlimit:10;" d="M 214.433594 138.28125 L 206.863281 138.777344 L 202.289063 139.949219 L 200.542969 140.398438 L 182.75 140.902344 L 170.214844 140.84375 L 165.796875 140.289063 L 161.992188 140.007813 L 158.078125 140.230469 L 154.105469 143.644531 L 149.960938 148.621094 L 145.378906 151.417969 L 141.402344 153.992188 L 137.710938 155.28125 L 112.308594 158.191406 L 101.566406 160.09375 L 92.25 158.105469 "/>
<path style="fill:none;stroke-width:8;stroke-linecap:round;stroke-linejoin:round;stroke:rgb(75.686275%,70.980392%,61.568627%);stroke-opacity:1;stroke-miterlimit:10;" d="M 66.019531 204.546875 L 71.355469 203.222656 L 83.824219 200.113281 L 85.851563 200.113281 L 87.527344 200.789063 L 89.789063 202.761719 L 97.828125 212.335938 L 101.601563 216 L 108.105469 221.449219 L 114.859375 225.941406 L 124.25 233.824219 L 138.347656 243.367188 L 154.125 256.941406 L 159.742188 262.296875 L 160.773438 264 "/>
<path style="fill:none;stroke-width:8;stroke-linecap:round;stroke-linejoin:round;stroke:rgb(75.686275%,70.980392%,61.568627%);stroke-opacity:1;stroke-miterlimit:10;" d="M -4.574219 264 L -3.300781 263.007813 L 1.523438 257.957031 L 5.0625 252.816406 L 9.746094 244.199219 L 13.894531 234.101563 L 15.527344 228.710938 L 16.574219 221.261719 L 16.597656 215.875 L 15.851563 210.457031 L 14.78125 205.714844 L 11.796875 196.234375 L 8.863281 184.96875 "/>
<path style="fill:none;stroke-width:8;stroke-linecap:round;stroke-linejoin:round;stroke:rgb(75.686275%,70.980392%,61.568627%);stroke-opacity:1;stroke-miterlimit:10;" d="M 20.464844 151.132813 L 23.820313 157.597656 L 26.828125 167.082031 L 29.738281 174.53125 L 30.835938 178.59375 L 32.980469 185.367188 L 35.867188 196.171875 L 37.335938 201.035156 L 42.160156 223.078125 L 45.050781 235.421875 L 50.804688 262.820313 L 51.21875 264 "/>
<path style="fill:none;stroke-width:8;stroke-linecap:round;stroke-linejoin:round;stroke:rgb(75.686275%,70.980392%,61.568627%);stroke-opacity:1;stroke-miterlimit:10;" d="M -9 161.613281 L 2.199219 158 L 10.632813 155.9375 L 15.011719 154.089844 L 20.464844 151.132813 L 31.371094 144.882813 L 35.753906 143.960938 L 38.78125 144.144531 L 40.714844 144.574219 L 42.8125 145.4375 L 46.773438 148.148438 L 49.453125 150.703125 L 50.875 152.488281 L 52.367188 155.535156 L 60.265625 182.441406 L 63.410156 194.417969 L 66.019531 204.546875 L 67.535156 211.535156 L 77.367188 252.476563 L 80.855469 264 "/>
<path style="fill:none;stroke-width:8;stroke-linecap:round;stroke-linejoin:round;stroke:rgb(75.686275%,70.980392%,61.568627%);stroke-opacity:1;stroke-miterlimit:10;" d="M 199.242188 -9 L 201.214844 6.414063 L 204.136719 29.265625 L 204.316406 30.664063 L 206.878906 49.722656 L 206.808594 68.65625 L 208.042969 74.320313 L 211.9375 85.742188 L 213.007813 91.160156 L 213.054688 99.289063 L 212.332031 109.757813 L 212.542969 121.761719 L 213.660156 135.03125 L 214.433594 138.28125 L 214.992188 140.648438 L 215.640625 143.375 L 219.742188 148.824219 L 222.933594 151.71875 L 227.292969 154.613281 L 232.675781 157.261719 L 239.058594 160.832031 L 242.066406 163.203125 L 245.351563 166.433594 L 247.425781 168.988281 L 250.105469 173.484375 L 252.691406 178.71875 L 255.277344 184.8125 L 258.445313 190.570313 L 261.03125 193.957031 L 263.96875 196.941406 L 264 196.96875 "/>
<path style="fill:none;stroke-width:10;stroke-linecap:round;stroke-linejoin:round;stroke:rgb(75.686275%,70.980392%,61.568627%);stroke-opacity:1;stroke-miterlimit:10;" d="M 162.632813 -11 L 157.804688 -7.945313 L 142.964844 0.769531 L 132.5 6.402344 L 120.335938 12.4375 L 109.199219 17.457031 L 100.785156 21.027344 L 97.875 22.011719 L 93.515625 24.046875 L 91.488281 24.382813 L 90.113281 24.875 L 76.667969 29.710938 L 45.796875 39.285156 L 37.242188 42.054688 L 18.089844 48.214844 L -8.988281 56.648438 L -11 57.25 "/>
<path style="fill:none;stroke-width:6;stroke-linecap:round;stroke-linejoin:round;stroke:rgb(100%,100%,100%);stroke-opacity:1;stroke-miterlimit:10;" d="M 164.378906 90.753906 L 165.523438 90.003906 L 165.796875 88.660156 L 165.046875 87.519531 L 163.707031 87.242188 L 162.5625 87.992188 L 162.285156 89.335938 L 163.039063 90.476563 L 164.378906 90.753906 "/>
<path style="fill:none;stroke-width:6;stroke-linecap:round;stroke-linejoin:round;stroke:rgb(100%,100%,100%);stroke-opacity:1;stroke-miterlimit:10;" d="M 234.425781 3.761719 L 254.34375 -0.3125 "/>
<path style="fill:none;stroke-width:6;stroke-linecap:round;stroke-linejoin:round;stroke:rgb(100%,100%,100%);stroke-opacity:1;stroke-miterlimit:10;" d="M 162.546875 89.984375 L 160.265625 92.265625 L 159.058594 94.945313 L 157.015625 97.925781 L 154.476563 100.867188 L 150.105469 104.058594 L 145.320313 107.414063 "/>
<path style="fill:none;stroke-width:6;stroke-linecap:round;stroke-linejoin:round;stroke:rgb(100%,100%,100%);stroke-opacity:1;stroke-miterlimit:10;" d="M 219.050781 17.964844 L 216.324219 3.589844 L 213.878906 -9 "/>
<path style="fill:none;stroke-width:6;stroke-linecap:round;stroke-linejoin:round;stroke:rgb(100%,100%,100%);stroke-opacity:1;stroke-miterlimit:10;" d="M 223.867188 17.027344 L 221.789063 2.5625 L 219.347656 -9 "/>
<path style="fill:none;stroke-width:6;stroke-linecap:round;stroke-linejoin:round;stroke:rgb(100%,100%,100%);stroke-opacity:1;stroke-miterlimit:10;" d="M 231.90625 0.625 L 231.273438 -3.355469 L 245.621094 -6.246094 L 254.792969 -8.09375 L 255.660156 -4.210938 "/>
<path style="fill:none;stroke-width:6;stroke-linecap:round;stroke-linejoin:round;stroke:rgb(100%,100%,100%);stroke-opacity:1;stroke-miterlimit:10;" d="M 233.761719 0.246094 L 234.425781 3.761719 L 235.632813 10.144531 L 255.589844 5.824219 L 254.34375 -0.3125 L 253.632813 -3.800781 "/>
<path style="fill:none;stroke-width:6;stroke-linecap:round;stroke-linejoin:round;stroke:rgb(100%,100%,100%);stroke-opacity:1;stroke-miterlimit:10;" d="M 210.585938 4.660156 L 208.042969 -9 M 225.214844 -9 L 227.523438 1.488281 "/>
<path style="fill:none;stroke-width:6;stroke-linecap:round;stroke-linejoin:round;stroke:rgb(100%,100%,100%);stroke-opacity:1;stroke-miterlimit:10;" d="M 210.585938 4.660156 L 213.328125 19.074219 L 219.050781 17.964844 L 223.867188 17.027344 L 229.972656 15.847656 L 227.523438 1.488281 "/>
<path style="fill:none;stroke-width:6;stroke-linecap:round;stroke-linejoin:round;stroke:rgb(100%,100%,100%);stroke-opacity:1;stroke-miterlimit:10;" d="M 204.136719 29.265625 L 205.976563 24.207031 L 206.570313 18.394531 L 206.035156 12.347656 L 205.214844 5.664063 L 203.429688 -4.730469 L 201.976563 -9 "/>
<path style="fill:none;stroke-width:6;stroke-linecap:round;stroke-linejoin:round;stroke:rgb(100%,100%,100%);stroke-opacity:1;stroke-miterlimit:10;" d="M 113.808594 56.398438 L 163.820313 32.609375 L 165.5 30.597656 L 166.253906 27.746094 L 165.75 24.058594 L 165.832031 21.625 L 168.683594 19.949219 "/>
<path style="fill:none;stroke-width:6;stroke-linecap:round;stroke-linejoin:round;stroke:rgb(100%,100%,100%);stroke-opacity:1;stroke-miterlimit:10;" d="M 264 -5.21875 L 255.660156 -4.210938 L 253.632813 -3.800781 L 246.28125 -2.304688 L 233.761719 0.246094 L 231.90625 0.625 L 227.523438 1.488281 L 221.789063 2.5625 L 216.324219 3.589844 L 210.585938 4.660156 L 205.214844 5.664063 L 201.214844 6.414063 "/>
<path style="fill:none;stroke-width:6;stroke-linecap:round;stroke-linejoin:round;stroke:rgb(100%,100%,100%);stroke-opacity:1;stroke-miterlimit:10;" d="M 192.925781 54.734375 L 193.226563 66.550781 L 192.550781 68.394531 L 191.179688 69.8125 L 188.835938 70.988281 L 186.519531 71.558594 L 183.550781 71.535156 L 152.519531 72.308594 L 150.203125 73.105469 L 130.097656 89.101563 "/>
<path style="fill:none;stroke-width:6;stroke-linecap:round;stroke-linejoin:round;stroke:rgb(100%,100%,100%);stroke-opacity:1;stroke-miterlimit:10;" d="M 204.316406 30.664063 L 206.808594 31.589844 L 211.351563 35.992188 L 214.195313 39.808594 L 221.117188 51.015625 L 226.148438 57.449219 L 229.15625 60.40625 L 237.964844 67.394531 L 242.671875 69.703125 L 247.726563 71.058594 L 249.40625 70.996094 L 251.011719 70.410156 L 255.648438 66.53125 L 264 56.972656 "/>
<path style="fill:none;stroke-width:6;stroke-linecap:round;stroke-linejoin:round;stroke:rgb(100%,100%,100%);stroke-opacity:1;stroke-miterlimit:10;" d="M 108.105469 221.449219 L 102.835938 228.003906 L 100.507813 231.542969 "/>
<path style="fill:none;stroke-width:6;stroke-linecap:round;stroke-linejoin:round;stroke:rgb(100%,100%,100%);stroke-opacity:1;stroke-miterlimit:10;" d="M 202.289063 139.949219 L 205.554688 140.800781 L 207.414063 140.988281 L 210.839844 140.730469 L 214.992188 140.648438 "/>
<path style="fill:none;stroke-width:6;stroke-linecap:round;stroke-linejoin:round;stroke:rgb(100%,100%,100%);stroke-opacity:1;stroke-miterlimit:10;" d="M 92.25 158.105469 L 92.027344 156.472656 L 90.714844 155.476563 L 89.082031 155.703125 L 88.082031 157.015625 L 88.308594 158.648438 L 89.625 159.644531 L 91.257813 159.421875 L 92.25 158.105469 "/>
<path style="fill:none;stroke-width:6;stroke-linecap:round;stroke-linejoin:round;stroke:rgb(100%,100%,100%);stroke-opacity:1;stroke-miterlimit:10;" d="M 37.335938 201.035156 L 63.410156 194.417969 "/>
<path style="fill:none;stroke-width:6;stroke-linecap:round;stroke-linejoin:round;stroke:rgb(100%,100%,100%);stroke-opacity:1;stroke-miterlimit:10;" d="M 40.714844 144.574219 L 48.707031 120.179688 L 49.734375 116.820313 L 49.890625 111.558594 "/>
<path style="fill:none;stroke-width:6;stroke-linecap:round;stroke-linejoin:round;stroke:rgb(100%,100%,100%);stroke-opacity:1;stroke-miterlimit:10;" d="M 26.773438 89.265625 L 27.527344 85.464844 L 27.457031 83.09375 L 20.257813 57.050781 L 18.089844 48.214844 "/>
<path style="fill:none;stroke-width:6;stroke-linecap:round;stroke-linejoin:round;stroke:rgb(100%,100%,100%);stroke-opacity:1;stroke-miterlimit:10;" d="M -9 24.804688 L -1.742188 22.722656 L 0.960938 21.734375 L 2.640625 20.964844 L 7.253906 17.765625 L 14.523438 13.914063 "/>
<path style="fill:none;stroke-width:6;stroke-linecap:round;stroke-linejoin:round;stroke:rgb(100%,100%,100%);stroke-opacity:1;stroke-miterlimit:10;" d="M 23.707031 264 L 21.046875 254.757813 L 19.882813 252.140625 L 18.390625 249.832031 L 14.988281 246.875 L 12.964844 245.582031 L 9.746094 244.199219 "/>
<path style="fill:none;stroke-width:6;stroke-linecap:round;stroke-linejoin:round;stroke:rgb(100%,100%,100%);stroke-opacity:1;stroke-miterlimit:10;" d="M -9 188.988281 L 5.785156 185.828125 L 8.863281 184.96875 L 30.835938 178.59375 "/>
<path style="fill:none;stroke-width:6;stroke-linecap:round;stroke-linejoin:round;stroke:rgb(100%,100%,100%);stroke-opacity:1;stroke-miterlimit:10;" d="M 20.464844 151.132813 L 9.886719 133.371094 L 8.117188 131.429688 L -1.4375 122.839844 L -5.75 119.546875 L -9 116.613281 "/>
<path style="fill:none;stroke-width:6;stroke-linecap:round;stroke-linejoin:round;stroke:rgb(100%,100%,100%);stroke-opacity:1;stroke-miterlimit:10;" d="M 145.320313 107.414063 L 140.449219 99.183594 L 135.972656 93.898438 L 130.097656 89.101563 L 125.695313 86.121094 L 121.367188 81.714844 L 118.136719 75.992188 L 117.183594 70.046875 L 116.378906 62.707031 L 113.808594 56.398438 L 103.3125 39.589844 L 100.597656 33.277344 L 97.875 22.011719 "/>
<path style="fill:none;stroke-width:6;stroke-linecap:round;stroke-linejoin:round;stroke:rgb(100%,100%,100%);stroke-opacity:1;stroke-miterlimit:10;" d="M 214.433594 138.28125 L 206.863281 138.777344 L 202.289063 139.949219 L 200.542969 140.398438 L 182.75 140.902344 L 170.214844 140.84375 L 165.796875 140.289063 L 161.992188 140.007813 L 158.078125 140.230469 L 154.105469 143.644531 L 149.960938 148.621094 L 145.378906 151.417969 L 141.402344 153.992188 L 137.710938 155.28125 L 112.308594 158.191406 L 101.566406 160.09375 L 92.25 158.105469 "/>
<path style="fill:none;stroke-width:6;stroke-linecap:round;stroke-linejoin:round;stroke:rgb(100%,100%,100%);stroke-opacity:1;stroke-miterlimit:10;" d="M 66.019531 204.546875 L 71.355469 203.222656 L 83.824219 200.113281 L 85.851563 200.113281 L 87.527344 200.789063 L 89.789063 202.761719 L 97.828125 212.335938 L 101.601563 216 L 108.105469 221.449219 L 114.859375 225.941406 L 124.25 233.824219 L 138.347656 243.367188 L 154.125 256.941406 L 159.742188 262.296875 L 160.773438 264 "/>
<path style="fill:none;stroke-width:6;stroke-linecap:round;stroke-linejoin:round;stroke:rgb(100%,100%,100%);stroke-opacity:1;stroke-miterlimit:10;" d="M -4.574219 264 L -3.300781 263.007813 L 1.523438 257.957031 L 5.0625 252.816406 L 9.746094 244.199219 L 13.894531 234.101563 L 15.527344 228.710938 L 16.574219 221.261719 L 16.597656 215.875 L 15.851563 210.457031 L 14.78125 205.714844 L 11.796875 196.234375 L 8.863281 184.96875 "/>
<path style="fill:none;stroke-width:6;stroke-linecap:round;stroke-linejoin:round;stroke:rgb(100%,100%,100%);stroke-opacity:1;stroke-miterlimit:10;" d="M 20.464844 151.132813 L 23.820313 157.597656 L 26.828125 167.082031 L 29.738281 174.53125 L 30.835938 178.59375 L 32.980469 185.367188 L 35.867188 196.171875 L 37.335938 201.035156 L 42.160156 223.078125 L 45.050781 235.421875 L 50.804688 262.820313 L 51.21875 264 "/>
<path style="fill:none;stroke-width:6;stroke-linecap:round;stroke-linejoin:round;stroke:rgb(100%,100%,100%);stroke-opacity:1;stroke-miterlimit:10;" d="M -9 161.613281 L 2.199219 158 L 10.632813 155.9375 L 15.011719 154.089844 L 20.464844 151.132813 L 31.371094 144.882813 L 35.753906 143.960938 L 38.78125 144.144531 L 40.714844 144.574219 L 42.8125 145.4375 L 46.773438 148.148438 L 49.453125 150.703125 L 50.875 152.488281 L 52.367188 155.535156 L 60.265625 182.441406 L 63.410156 194.417969 L 66.019531 204.546875 L 67.535156 211.535156 L 77.367188 252.476563 L 80.855469 264 "/>
<path style="fill:none;stroke-width:6;stroke-linecap:round;stroke-linejoin:round;stroke:rgb(100%,100%,100%);stroke-opacity:1;stroke-miterlimit:10;" d="M 199.242188 -9 L 201.214844 6.414063 L 204.136719 29.265625 L 204.316406 30.664063 L 206.878906 49.722656 L 206.808594 68.65625 L 208.042969 74.320313 L 211.9375 85.742188 L 213.007813 91.160156 L 213.054688 99.289063 L 212.332031 109.757813 L 212.542969 121.761719 L 213.660156 135.03125 L 214.433594 138.28125 L 214.992188 140.648438 L 215.640625 143.375 L 219.742188 148.824219 L 222.933594 151.71875 L 227.292969 154.613281 L 232.675781 157.261719 L 239.058594 160.832031 L 242.066406 163.203125 L 245.351563 166.433594 L 247.425781 168.988281 L 250.105469 173.484375 L 252.691406 178.71875 L 255.277344 184.8125 L 258.445313 190.570313 L 261.03125 193.957031 L 263.96875 196.941406 L 264 196.96875 "/>
<path style="fill:none;stroke-width:8;stroke-linecap:round;stroke-linejoin:round;stroke:rgb(100%,99.215686%,54.509804%);stroke-opacity:1;stroke-miterlimit:10;" d="M 162.632813 -11 L 157.804688 -7.945313 L 142.964844 0.769531 L 132.5 6.402344 L 120.335938 12.4375 L 109.199219 17.457031 L 100.785156 21.027344 L 97.875 22.011719 L 93.515625 24.046875 L 91.488281 24.382813 L 90.113281 24.875 L 76.667969 29.710938 L 45.796875 39.285156 L 37.242188 42.054688 L 18.089844 48.214844 L -8.988281 56.648438 L -11 57.25 "/>
<path style="fill:none;stroke-width:3;stroke-linecap:round;stroke-linejoin:round;stroke:rgb(100%,100%,100%);stroke-opacity:1;stroke-miterlimit:10;" d="M 210.105469 64.191406 C 210.105469 63.480469 209.8125 62.914063 209.230469 62.488281 C 208.644531 62.058594 207.847656 61.847656 206.839844 61.847656 C 205.828125 61.847656 205.027344 62.054688 204.433594 62.472656 C 203.839844 62.886719 203.542969 63.449219 203.542969 64.160156 C 203.542969 64.867188 203.832031 65.429688 204.417969 65.847656 C 205.011719 66.261719 205.8125 66.472656 206.824219 66.472656 C 207.832031 66.472656 208.628906 66.269531 209.214844 65.863281 C 209.808594 65.457031 210.105469 64.898438 210.105469 64.191406 Z M 210.996094 64.191406 C 210.996094 65.199219 210.613281 66.003906 209.855469 66.597656 C 209.09375 67.199219 208.078125 67.503906 206.808594 67.503906 C 205.546875 67.492188 204.542969 67.183594 203.792969 66.582031 C 203.042969 65.976563 202.667969 65.167969 202.667969 64.160156 C 202.667969 63.136719 203.042969 62.324219 203.792969 61.722656 C 204.550781 61.117188 205.566406 60.820313 206.839844 60.832031 C 208.109375 60.832031 209.121094 61.132813 209.871094 61.738281 C 210.621094 62.351563 210.996094 63.167969 210.996094 64.191406 Z M 211.273438 68.246094 L 211.414063 69.121094 L 203.164063 70.511719 L 203.023438 69.636719 Z M 209.511719 74.804688 L 212.652344 73.960938 L 212.871094 74.820313 L 204.792969 76.992188 L 204.574219 76.132813 L 205.449219 75.898438 C 205.042969 75.8125 204.71875 75.65625 204.480469 75.429688 C 204.238281 75.199219 204.066406 74.890625 203.964844 74.507813 C 203.796875 73.871094 203.9375 73.277344 204.386719 72.726563 C 204.84375 72.183594 205.527344 71.789063 206.433594 71.539063 C 207.347656 71.300781 208.140625 71.304688 208.808594 71.554688 C 209.484375 71.792969 209.90625 72.230469 210.074219 72.867188 C 210.175781 73.25 210.183594 73.601563 210.089844 73.914063 C 209.996094 74.234375 209.800781 74.53125 209.511719 74.804688 Z M 206.667969 72.429688 C 205.96875 72.617188 205.457031 72.890625 205.136719 73.257813 C 204.8125 73.621094 204.707031 74.03125 204.824219 74.492188 C 204.949219 74.949219 205.246094 75.25 205.714844 75.398438 C 206.183594 75.554688 206.765625 75.539063 207.464844 75.351563 C 208.171875 75.164063 208.6875 74.886719 209.011719 74.523438 C 209.332031 74.15625 209.433594 73.746094 209.308594 73.289063 C 209.191406 72.828125 208.902344 72.523438 208.433594 72.367188 C 207.964844 72.21875 207.375 72.242188 206.667969 72.429688 Z M 215.121094 84.777344 L 214.027344 85.136719 C 214.246094 84.707031 214.375 84.292969 214.417969 83.886719 C 214.46875 83.488281 214.433594 83.09375 214.308594 82.699219 C 214.046875 81.917969 213.578125 81.402344 212.902344 81.152344 C 212.234375 80.914063 211.394531 80.957031 210.386719 81.277344 C 209.386719 81.609375 208.6875 82.074219 208.292969 82.667969 C 207.90625 83.261719 207.84375 83.949219 208.105469 84.730469 C 208.230469 85.125 208.425781 85.46875 208.699219 85.761719 C 208.96875 86.0625 209.316406 86.324219 209.746094 86.542969 L 208.683594 86.902344 C 208.328125 86.640625 208.027344 86.347656 207.777344 86.027344 C 207.535156 85.714844 207.347656 85.355469 207.214844 84.949219 C 206.878906 83.90625 206.96875 82.972656 207.480469 82.152344 C 207.988281 81.328125 208.855469 80.714844 210.074219 80.308594 C 211.300781 79.914063 212.371094 79.898438 213.277344 80.261719 C 214.183594 80.617188 214.800781 81.3125 215.136719 82.355469 C 215.269531 82.769531 215.332031 83.175781 215.324219 83.574219 C 215.324219 83.980469 215.253906 84.378906 215.121094 84.777344 Z M 211.636719 89.832031 C 211.53125 89.121094 211.359375 88.648438 211.121094 88.410156 C 210.890625 88.167969 210.5625 88.085938 210.136719 88.160156 C 209.792969 88.210938 209.53125 88.351563 209.355469 88.582031 C 209.175781 88.820313 209.121094 89.117188 209.183594 89.472656 C 209.253906 89.960938 209.511719 90.320313 209.949219 90.550781 C 210.394531 90.789063 210.933594 90.863281 211.558594 90.769531 L 211.792969 90.722656 Z M 212.324219 91.535156 L 208.933594 92.082031 L 208.792969 91.207031 L 209.683594 91.066406 C 209.285156 90.910156 208.980469 90.695313 208.761719 90.425781 C 208.542969 90.164063 208.394531 89.816406 208.324219 89.378906 C 208.238281 88.835938 208.339844 88.371094 208.621094 87.988281 C 208.910156 87.613281 209.347656 87.378906 209.933594 87.285156 C 210.597656 87.179688 211.128906 87.300781 211.527344 87.644531 C 211.933594 87.988281 212.203125 88.558594 212.339844 89.363281 L 212.542969 90.597656 L 212.636719 90.582031 C 213.082031 90.507813 213.40625 90.316406 213.605469 90.003906 C 213.8125 89.699219 213.878906 89.308594 213.808594 88.832031 C 213.753906 88.527344 213.660156 88.238281 213.527344 87.957031 C 213.402344 87.675781 213.234375 87.414063 213.027344 87.175781 L 213.917969 87.035156 C 214.113281 87.335938 214.269531 87.628906 214.386719 87.910156 C 214.5 88.199219 214.582031 88.492188 214.636719 88.785156 C 214.761719 89.554688 214.628906 90.167969 214.246094 90.628906 C 213.871094 91.085938 213.230469 91.386719 212.324219 91.535156 Z M 213.796875 97.46875 C 214.242188 97.695313 214.566406 97.96875 214.765625 98.28125 C 214.972656 98.59375 215.070313 98.957031 215.0625 99.375 C 215.0625 99.945313 214.835938 100.378906 214.390625 100.671875 C 213.953125 100.972656 213.328125 101.113281 212.515625 101.09375 L 208.890625 101.046875 L 208.890625 100.15625 L 212.484375 100.203125 C 213.066406 100.210938 213.5 100.128906 213.78125 99.953125 C 214.0625 99.773438 214.207031 99.5 214.21875 99.125 C 214.21875 98.664063 214.050781 98.296875 213.71875 98.015625 C 213.382813 97.742188 212.925781 97.601563 212.34375 97.59375 L 208.9375 97.546875 L 208.953125 96.65625 L 212.546875 96.703125 C 213.128906 96.710938 213.554688 96.625 213.828125 96.4375 C 214.109375 96.257813 214.253906 95.984375 214.265625 95.609375 C 214.273438 95.148438 214.109375 94.785156 213.765625 94.515625 C 213.429688 94.242188 212.972656 94.101563 212.390625 94.09375 L 208.984375 94.046875 L 209 93.140625 L 215.015625 93.234375 L 215 94.140625 L 214.0625 94.125 C 214.4375 94.320313 214.707031 94.566406 214.875 94.859375 C 215.039063 95.148438 215.125 95.488281 215.125 95.875 C 215.113281 96.269531 214.992188 96.601563 214.765625 96.875 C 214.546875 97.144531 214.222656 97.34375 213.796875 97.46875 Z M 209.664063 103.527344 L 206.476563 103.308594 L 206.539063 102.402344 L 214.820313 102.980469 L 214.757813 103.886719 L 213.851563 103.824219 C 214.195313 104.03125 214.4375 104.28125 214.585938 104.574219 C 214.742188 104.863281 214.804688 105.207031 214.773438 105.605469 C 214.730469 106.261719 214.40625 106.769531 213.804688 107.136719 C 213.199219 107.5 212.429688 107.652344 211.492188 107.589844 C 210.542969 107.527344 209.792969 107.269531 209.242188 106.824219 C 208.691406 106.375 208.4375 105.824219 208.476563 105.167969 C 208.507813 104.769531 208.625 104.4375 208.820313 104.167969 C 209.007813 103.90625 209.289063 103.691406 209.664063 103.527344 Z M 211.554688 106.667969 C 212.273438 106.71875 212.84375 106.625 213.273438 106.386719 C 213.699219 106.144531 213.929688 105.792969 213.960938 105.324219 C 214 104.855469 213.824219 104.472656 213.429688 104.183594 C 213.03125 103.890625 212.476563 103.71875 211.757813 103.667969 C 211.027344 103.613281 210.449219 103.707031 210.023438 103.949219 C 209.59375 104.1875 209.359375 104.542969 209.320313 105.011719 C 209.289063 105.480469 209.46875 105.859375 209.867188 106.152344 C 210.261719 106.441406 210.824219 106.613281 211.554688 106.667969 Z M 210.8125 109.050781 L 214.453125 109.050781 L 214.453125 109.941406 L 210.84375 109.941406 C 210.28125 109.929688 209.851563 110.023438 209.5625 110.222656 C 209.269531 110.417969 209.125 110.714844 209.125 111.113281 C 209.125 111.601563 209.289063 111.980469 209.625 112.253906 C 209.96875 112.535156 210.4375 112.679688 211.03125 112.691406 L 214.4375 112.691406 L 214.4375 113.582031 L 208.421875 113.566406 L 208.421875 112.675781 L 209.34375 112.675781 C 208.976563 112.457031 208.707031 112.207031 208.53125 111.925781 C 208.355469 111.644531 208.265625 111.308594 208.265625 110.925781 C 208.277344 110.308594 208.492188 109.839844 208.921875 109.519531 C 209.359375 109.195313 209.988281 109.039063 210.8125 109.050781 Z M 214.578125 111.300781 Z M 214.335938 118.835938 L 213.398438 118.867188 C 213.53125 118.59375 213.632813 118.324219 213.695313 118.054688 C 213.765625 117.792969 213.796875 117.515625 213.789063 117.226563 C 213.777344 116.777344 213.695313 116.445313 213.539063 116.226563 C 213.390625 116.015625 213.171875 115.914063 212.882813 115.914063 C 212.652344 115.914063 212.46875 115.992188 212.335938 116.148438 C 212.210938 116.3125 212.089844 116.636719 211.976563 117.117188 L 211.898438 117.414063 C 211.761719 118.046875 211.558594 118.5 211.289063 118.773438 C 211.015625 119.042969 210.636719 119.183594 210.148438 119.195313 C 209.59375 119.203125 209.152344 119.011719 208.820313 118.617188 C 208.484375 118.230469 208.316406 117.6875 208.304688 116.992188 C 208.296875 116.699219 208.320313 116.398438 208.382813 116.085938 C 208.433594 115.773438 208.523438 115.4375 208.648438 115.085938 L 209.664063 115.070313 C 209.476563 115.402344 209.335938 115.726563 209.242188 116.039063 C 209.15625 116.359375 209.121094 116.679688 209.132813 116.992188 C 209.132813 117.40625 209.214844 117.730469 209.382813 117.960938 C 209.546875 118.1875 209.773438 118.296875 210.054688 118.289063 C 210.324219 118.289063 210.53125 118.199219 210.679688 118.023438 C 210.824219 117.855469 210.953125 117.496094 211.070313 116.945313 L 211.148438 116.648438 C 211.261719 116.09375 211.449219 115.695313 211.710938 115.445313 C 211.980469 115.195313 212.351563 115.0625 212.820313 115.054688 C 213.382813 115.042969 213.820313 115.214844 214.132813 115.570313 C 214.445313 115.921875 214.605469 116.433594 214.617188 117.101563 C 214.625 117.421875 214.605469 117.730469 214.554688 118.023438 C 214.5 118.3125 214.429688 118.585938 214.335938 118.835938 Z M 212.765625 127.175781 C 212.691406 127.382813 212.535156 127.597656 212.296875 127.816406 C 212.054688 128.042969 211.722656 128.277344 211.296875 128.519531 L 209.1875 129.691406 L 209.109375 128.644531 L 211.09375 127.550781 C 211.59375 127.269531 211.921875 127.007813 212.078125 126.769531 C 212.234375 126.527344 212.296875 126.214844 212.265625 125.832031 L 212.171875 124.785156 L 208.796875 125.066406 L 208.71875 124.082031 L 216.703125 123.410156 L 216.890625 125.597656 C 216.960938 126.429688 216.820313 127.058594 216.46875 127.488281 C 216.125 127.925781 215.566406 128.175781 214.796875 128.238281 C 214.296875 128.277344 213.867188 128.210938 213.515625 128.035156 C 213.171875 127.855469 212.921875 127.570313 212.765625 127.175781 Z M 215.890625 124.472656 L 213.0625 124.707031 L 213.171875 125.910156 C 213.210938 126.386719 213.363281 126.738281 213.625 126.957031 C 213.882813 127.175781 214.25 127.261719 214.71875 127.222656 C 215.1875 127.191406 215.523438 127.042969 215.734375 126.785156 C 215.953125 126.523438 216.039063 126.152344 216 125.675781 Z M 214.816406 132.507813 C 214.773438 132.027344 214.527344 131.671875 214.082031 131.445313 C 213.644531 131.214844 213.066406 131.136719 212.347656 131.210938 C 211.628906 131.28125 211.082031 131.476563 210.707031 131.789063 C 210.332031 132.101563 210.164063 132.496094 210.207031 132.976563 C 210.257813 133.453125 210.496094 133.808594 210.925781 134.039063 C 211.363281 134.277344 211.941406 134.359375 212.660156 134.289063 C 213.378906 134.214844 213.929688 134.015625 214.316406 133.695313 C 214.699219 133.382813 214.867188 132.984375 214.816406 132.507813 Z M 215.644531 132.429688 C 215.726563 133.199219 215.511719 133.828125 215.003906 134.320313 C 214.492188 134.820313 213.742188 135.117188 212.753906 135.210938 C 211.785156 135.304688 210.996094 135.15625 210.394531 134.773438 C 209.789063 134.398438 209.445313 133.824219 209.363281 133.054688 C 209.289063 132.273438 209.507813 131.636719 210.019531 131.148438 C 210.539063 130.65625 211.285156 130.367188 212.253906 130.273438 C 213.242188 130.179688 214.035156 130.320313 214.628906 130.695313 C 215.230469 131.070313 215.570313 131.648438 215.644531 132.429688 Z M 213.648438 139.15625 C 213.480469 138.457031 213.273438 137.992188 213.023438 137.765625 C 212.78125 137.546875 212.449219 137.484375 212.023438 137.578125 C 211.6875 137.660156 211.445313 137.828125 211.289063 138.078125 C 211.132813 138.328125 211.09375 138.625 211.179688 138.96875 C 211.292969 139.457031 211.574219 139.800781 212.023438 140 C 212.46875 140.207031 213 140.238281 213.617188 140.09375 L 213.851563 140.03125 Z M 214.445313 140.796875 L 211.101563 141.59375 L 210.898438 140.734375 L 211.773438 140.53125 C 211.375 140.40625 211.058594 140.210938 210.820313 139.953125 C 210.578125 139.703125 210.414063 139.363281 210.320313 138.9375 C 210.183594 138.394531 210.246094 137.925781 210.507813 137.53125 C 210.765625 137.132813 211.183594 136.867188 211.757813 136.734375 C 212.414063 136.578125 212.953125 136.65625 213.382813 136.96875 C 213.808594 137.289063 214.117188 137.847656 214.304688 138.640625 L 214.585938 139.859375 L 214.679688 139.828125 C 215.125 139.722656 215.4375 139.507813 215.617188 139.1875 C 215.804688 138.863281 215.839844 138.460938 215.726563 137.984375 C 215.664063 137.691406 215.554688 137.410156 215.398438 137.140625 C 215.25 136.878906 215.070313 136.632813 214.851563 136.40625 L 215.726563 136.1875 C 215.945313 136.480469 216.117188 136.765625 216.242188 137.046875 C 216.375 137.328125 216.480469 137.609375 216.554688 137.890625 C 216.730469 138.648438 216.648438 139.269531 216.304688 139.75 C 215.960938 140.238281 215.339844 140.585938 214.445313 140.796875 Z M 218.410156 144.890625 L 221.238281 143.265625 L 221.675781 144.03125 L 214.425781 148.203125 L 213.988281 147.4375 L 214.769531 146.984375 C 214.363281 147.003906 214.007813 146.929688 213.707031 146.765625 C 213.414063 146.597656 213.167969 146.34375 212.972656 146 C 212.648438 145.4375 212.632813 144.832031 212.925781 144.1875 C 213.226563 143.539063 213.785156 142.980469 214.597656 142.5 C 215.417969 142.03125 216.183594 141.835938 216.894531 141.90625 C 217.601563 141.96875 218.117188 142.28125 218.441406 142.84375 C 218.636719 143.1875 218.738281 143.527344 218.738281 143.859375 C 218.738281 144.203125 218.628906 144.546875 218.410156 144.890625 Z M 215.066406 143.296875 C 214.441406 143.660156 214.011719 144.0625 213.785156 144.5 C 213.554688 144.945313 213.558594 145.375 213.800781 145.78125 C 214.039063 146.195313 214.402344 146.414063 214.894531 146.4375 C 215.394531 146.46875 215.957031 146.300781 216.582031 145.9375 C 217.214844 145.570313 217.644531 145.171875 217.863281 144.734375 C 218.089844 144.296875 218.085938 143.867188 217.847656 143.453125 C 217.605469 143.046875 217.242188 142.828125 216.753906 142.796875 C 216.261719 142.765625 215.699219 142.933594 215.066406 143.296875 Z M 215.066406 143.296875 "/>
<path style=" stroke:none;fill-rule:evenodd;fill:rgb(20%,20%,20%);fill-opacity:1;" d="M 210.105469 64.191406 C 210.105469 63.480469 209.8125 62.914063 209.230469 62.488281 C 208.644531 62.058594 207.847656 61.847656 206.839844 61.847656 C 205.828125 61.847656 205.027344 62.054688 204.433594 62.472656 C 203.839844 62.886719 203.542969 63.449219 203.542969 64.160156 C 203.542969 64.867188 203.832031 65.429688 204.417969 65.847656 C 205.011719 66.261719 205.8125 66.472656 206.824219 66.472656 C 207.832031 66.472656 208.628906 66.269531 209.214844 65.863281 C 209.808594 65.457031 210.105469 64.898438 210.105469 64.191406 Z M 210.996094 64.191406 C 210.996094 65.199219 210.613281 66.003906 209.855469 66.597656 C 209.09375 67.199219 208.078125 67.503906 206.808594 67.503906 C 205.546875 67.492188 204.542969 67.183594 203.792969 66.582031 C 203.042969 65.976563 202.667969 65.167969 202.667969 64.160156 C 202.667969 63.136719 203.042969 62.324219 203.792969 61.722656 C 204.550781 61.117188 205.566406 60.820313 206.839844 60.832031 C 208.109375 60.832031 209.121094 61.132813 209.871094 61.738281 C 210.621094 62.351563 210.996094 63.167969 210.996094 64.191406 Z M 211.273438 68.246094 L 211.414063 69.121094 L 203.164063 70.511719 L 203.023438 69.636719 Z M 209.511719 74.804688 L 212.652344 73.960938 L 212.871094 74.820313 L 204.792969 76.992188 L 204.574219 76.132813 L 205.449219 75.898438 C 205.042969 75.8125 204.71875 75.65625 204.480469 75.429688 C 204.238281 75.199219 204.066406 74.890625 203.964844 74.507813 C 203.796875 73.871094 203.9375 73.277344 204.386719 72.726563 C 204.84375 72.183594 205.527344 71.789063 206.433594 71.539063 C 207.347656 71.300781 208.140625 71.304688 208.808594 71.554688 C 209.484375 71.792969 209.90625 72.230469 210.074219 72.867188 C 210.175781 73.25 210.183594 73.601563 210.089844 73.914063 C 209.996094 74.234375 209.800781 74.53125 209.511719 74.804688 Z M 206.667969 72.429688 C 205.96875 72.617188 205.457031 72.890625 205.136719 73.257813 C 204.8125 73.621094 204.707031 74.03125 204.824219 74.492188 C 204.949219 74.949219 205.246094 75.25 205.714844 75.398438 C 206.183594 75.554688 206.765625 75.539063 207.464844 75.351563 C 208.171875 75.164063 208.6875 74.886719 209.011719 74.523438 C 209.332031 74.15625 209.433594 73.746094 209.308594 73.289063 C 209.191406 72.828125 208.902344 72.523438 208.433594 72.367188 C 207.964844 72.21875 207.375 72.242188 206.667969 72.429688 Z M 215.121094 84.777344 L 214.027344 85.136719 C 214.246094 84.707031 214.375 84.292969 214.417969 83.886719 C 214.46875 83.488281 214.433594 83.09375 214.308594 82.699219 C 214.046875 81.917969 213.578125 81.402344 212.902344 81.152344 C 212.234375 80.914063 211.394531 80.957031 210.386719 81.277344 C 209.386719 81.609375 208.6875 82.074219 208.292969 82.667969 C 207.90625 83.261719 207.84375 83.949219 208.105469 84.730469 C 208.230469 85.125 208.425781 85.46875 208.699219 85.761719 C 208.96875 86.0625 209.316406 86.324219 209.746094 86.542969 L 208.683594 86.902344 C 208.328125 86.640625 208.027344 86.347656 207.777344 86.027344 C 207.535156 85.714844 207.347656 85.355469 207.214844 84.949219 C 206.878906 83.90625 206.96875 82.972656 207.480469 82.152344 C 207.988281 81.328125 208.855469 80.714844 210.074219 80.308594 C 211.300781 79.914063 212.371094 79.898438 213.277344 80.261719 C 214.183594 80.617188 214.800781 81.3125 215.136719 82.355469 C 215.269531 82.769531 215.332031 83.175781 215.324219 83.574219 C 215.324219 83.980469 215.253906 84.378906 215.121094 84.777344 Z M 211.636719 89.832031 C 211.53125 89.121094 211.359375 88.648438 211.121094 88.410156 C 210.890625 88.167969 210.5625 88.085938 210.136719 88.160156 C 209.792969 88.210938 209.53125 88.351563 209.355469 88.582031 C 209.175781 88.820313 209.121094 89.117188 209.183594 89.472656 C 209.253906 89.960938 209.511719 90.320313 209.949219 90.550781 C 210.394531 90.789063 210.933594 90.863281 211.558594 90.769531 L 211.792969 90.722656 Z M 212.324219 91.535156 L 208.933594 92.082031 L 208.792969 91.207031 L 209.683594 91.066406 C 209.285156 90.910156 208.980469 90.695313 208.761719 90.425781 C 208.542969 90.164063 208.394531 89.816406 208.324219 89.378906 C 208.238281 88.835938 208.339844 88.371094 208.621094 87.988281 C 208.910156 87.613281 209.347656 87.378906 209.933594 87.285156 C 210.597656 87.179688 211.128906 87.300781 211.527344 87.644531 C 211.933594 87.988281 212.203125 88.558594 212.339844 89.363281 L 212.542969 90.597656 L 212.636719 90.582031 C 213.082031 90.507813 213.40625 90.316406 213.605469 90.003906 C 213.8125 89.699219 213.878906 89.308594 213.808594 88.832031 C 213.753906 88.527344 213.660156 88.238281 213.527344 87.957031 C 213.402344 87.675781 213.234375 87.414063 213.027344 87.175781 L 213.917969 87.035156 C 214.113281 87.335938 214.269531 87.628906 214.386719 87.910156 C 214.5 88.199219 214.582031 88.492188 214.636719 88.785156 C 214.761719 89.554688 214.628906 90.167969 214.246094 90.628906 C 213.871094 91.085938 213.230469 91.386719 212.324219 91.535156 Z M 213.796875 97.46875 C 214.242188 97.695313 214.566406 97.96875 214.765625 98.28125 C 214.972656 98.59375 215.070313 98.957031 215.0625 99.375 C 215.0625 99.945313 214.835938 100.378906 214.390625 100.671875 C 213.953125 100.972656 213.328125 101.113281 212.515625 101.09375 L 208.890625 101.046875 L 208.890625 100.15625 L 212.484375 100.203125 C 213.066406 100.210938 213.5 100.128906 213.78125 99.953125 C 214.0625 99.773438 214.207031 99.5 214.21875 99.125 C 214.21875 98.664063 214.050781 98.296875 213.71875 98.015625 C 213.382813 97.742188 212.925781 97.601563 212.34375 97.59375 L 208.9375 97.546875 L 208.953125 96.65625 L 212.546875 96.703125 C 213.128906 96.710938 213.554688 96.625 213.828125 96.4375 C 214.109375 96.257813 214.253906 95.984375 214.265625 95.609375 C 214.273438 95.148438 214.109375 94.785156 213.765625 94.515625 C 213.429688 94.242188 212.972656 94.101563 212.390625 94.09375 L 208.984375 94.046875 L 209 93.140625 L 215.015625 93.234375 L 215 94.140625 L 214.0625 94.125 C 214.4375 94.320313 214.707031 94.566406 214.875 94.859375 C 215.039063 95.148438 215.125 95.488281 215.125 95.875 C 215.113281 96.269531 214.992188 96.601563 214.765625 96.875 C 214.546875 97.144531 214.222656 97.34375 213.796875 97.46875 Z M 209.664063 103.527344 L 206.476563 103.308594 L 206.539063 102.402344 L 214.820313 102.980469 L 214.757813 103.886719 L 213.851563 103.824219 C 214.195313 104.03125 214.4375 104.28125 214.585938 104.574219 C 214.742188 104.863281 214.804688 105.207031 214.773438 105.605469 C 214.730469 106.261719 214.40625 106.769531 213.804688 107.136719 C 213.199219 107.5 212.429688 107.652344 211.492188 107.589844 C 210.542969 107.527344 209.792969 107.269531 209.242188 106.824219 C 208.691406 106.375 208.4375 105.824219 208.476563 105.167969 C 208.507813 104.769531 208.625 104.4375 208.820313 104.167969 C 209.007813 103.90625 209.289063 103.691406 209.664063 103.527344 Z M 211.554688 106.667969 C 212.273438 106.71875 212.84375 106.625 213.273438 106.386719 C 213.699219 106.144531 213.929688 105.792969 213.960938 105.324219 C 214 104.855469 213.824219 104.472656 213.429688 104.183594 C 213.03125 103.890625 212.476563 103.71875 211.757813 103.667969 C 211.027344 103.613281 210.449219 103.707031 210.023438 103.949219 C 209.59375 104.1875 209.359375 104.542969 209.320313 105.011719 C 209.289063 105.480469 209.46875 105.859375 209.867188 106.152344 C 210.261719 106.441406 210.824219 106.613281 211.554688 106.667969 Z M 210.8125 109.050781 L 214.453125 109.050781 L 214.453125 109.941406 L 210.84375 109.941406 C 210.28125 109.929688 209.851563 110.023438 209.5625 110.222656 C 209.269531 110.417969 209.125 110.714844 209.125 111.113281 C 209.125 111.601563 209.289063 111.980469 209.625 112.253906 C 209.96875 112.535156 210.4375 112.679688 211.03125 112.691406 L 214.4375 112.691406 L 214.4375 113.582031 L 208.421875 113.566406 L 208.421875 112.675781 L 209.34375 112.675781 C 208.976563 112.457031 208.707031 112.207031 208.53125 111.925781 C 208.355469 111.644531 208.265625 111.308594 208.265625 110.925781 C 208.277344 110.308594 208.492188 109.839844 208.921875 109.519531 C 209.359375 109.195313 209.988281 109.039063 210.8125 109.050781 Z M 214.578125 111.300781 Z M 214.335938 118.835938 L 213.398438 118.867188 C 213.53125 118.59375 213.632813 118.324219 213.695313 118.054688 C 213.765625 117.792969 213.796875 117.515625 213.789063 117.226563 C 213.777344 116.777344 213.695313 116.445313 213.539063 116.226563 C 213.390625 116.015625 213.171875 115.914063 212.882813 115.914063 C 212.652344 115.914063 212.46875 115.992188 212.335938 116.148438 C 212.210938 116.3125 212.089844 116.636719 211.976563 117.117188 L 211.898438 117.414063 C 211.761719 118.046875 211.558594 118.5 211.289063 118.773438 C 211.015625 119.042969 210.636719 119.183594 210.148438 119.195313 C 209.59375 119.203125 209.152344 119.011719 208.820313 118.617188 C 208.484375 118.230469 208.316406 117.6875 208.304688 116.992188 C 208.296875 116.699219 208.320313 116.398438 208.382813 116.085938 C 208.433594 115.773438 208.523438 115.4375 208.648438 115.085938 L 209.664063 115.070313 C 209.476563 115.402344 209.335938 115.726563 209.242188 116.039063 C 209.15625 116.359375 209.121094 116.679688 209.132813 116.992188 C 209.132813 117.40625 209.214844 117.730469 209.382813 117.960938 C 209.546875 118.1875 209.773438 118.296875 210.054688 118.289063 C 210.324219 118.289063 210.53125 118.199219 210.679688 118.023438 C 210.824219 117.855469 210.953125 117.496094 211.070313 116.945313 L 211.148438 116.648438 C 211.261719 116.09375 211.449219 115.695313 211.710938 115.445313 C 211.980469 115.195313 212.351563 115.0625 212.820313 115.054688 C 213.382813 115.042969 213.820313 115.214844 214.132813 115.570313 C 214.445313 115.921875 214.605469 116.433594 214.617188 117.101563 C 214.625 117.421875 214.605469 117.730469 214.554688 118.023438 C 214.5 118.3125 214.429688 118.585938 214.335938 118.835938 Z M 212.765625 127.175781 C 212.691406 127.382813 212.535156 127.597656 212.296875 127.816406 C 212.054688 128.042969 211.722656 128.277344 211.296875 128.519531 L 209.1875 129.691406 L 209.109375 128.644531 L 211.09375 127.550781 C 211.59375 127.269531 211.921875 127.007813 212.078125 126.769531 C 212.234375 126.527344 212.296875 126.214844 212.265625 125.832031 L 212.171875 124.785156 L 208.796875 125.066406 L 208.71875 124.082031 L 216.703125 123.410156 L 216.890625 125.597656 C 216.960938 126.429688 216.820313 127.058594 216.46875 127.488281 C 216.125 127.925781 215.566406 128.175781 214.796875 128.238281 C 214.296875 128.277344 213.867188 128.210938 213.515625 128.035156 C 213.171875 127.855469 212.921875 127.570313 212.765625 127.175781 Z M 215.890625 124.472656 L 213.0625 124.707031 L 213.171875 125.910156 C 213.210938 126.386719 213.363281 126.738281 213.625 126.957031 C 213.882813 127.175781 214.25 127.261719 214.71875 127.222656 C 215.1875 127.191406 215.523438 127.042969 215.734375 126.785156 C 215.953125 126.523438 216.039063 126.152344 216 125.675781 Z M 214.816406 132.507813 C 214.773438 132.027344 214.527344 131.671875 214.082031 131.445313 C 213.644531 131.214844 213.066406 131.136719 212.347656 131.210938 C 211.628906 131.28125 211.082031 131.476563 210.707031 131.789063 C 210.332031 132.101563 210.164063 132.496094 210.207031 132.976563 C 210.257813 133.453125 210.496094 133.808594 210.925781 134.039063 C 211.363281 134.277344 211.941406 134.359375 212.660156 134.289063 C 213.378906 134.214844 213.929688 134.015625 214.316406 133.695313 C 214.699219 133.382813 214.867188 132.984375 214.816406 132.507813 Z M 215.644531 132.429688 C 215.726563 133.199219 215.511719 133.828125 215.003906 134.320313 C 214.492188 134.820313 213.742188 135.117188 212.753906 135.210938 C 211.785156 135.304688 210.996094 135.15625 210.394531 134.773438 C 209.789063 134.398438 209.445313 133.824219 209.363281 133.054688 C 209.289063 132.273438 209.507813 131.636719 210.019531 131.148438 C 210.539063 130.65625 211.285156 130.367188 212.253906 130.273438 C 213.242188 130.179688 214.035156 130.320313 214.628906 130.695313 C 215.230469 131.070313 215.570313 131.648438 215.644531 132.429688 Z M 213.648438 139.15625 C 213.480469 138.457031 213.273438 137.992188 213.023438 137.765625 C 212.78125 137.546875 212.449219 137.484375 212.023438 137.578125 C 211.6875 137.660156 211.445313 137.828125 211.289063 138.078125 C 211.132813 138.328125 211.09375 138.625 211.179688 138.96875 C 211.292969 139.457031 211.574219 139.800781 212.023438 140 C 212.46875 140.207031 213 140.238281 213.617188 140.09375 L 213.851563 140.03125 Z M 214.445313 140.796875 L 211.101563 141.59375 L 210.898438 140.734375 L 211.773438 140.53125 C 211.375 140.40625 211.058594 140.210938 210.820313 139.953125 C 210.578125 139.703125 210.414063 139.363281 210.320313 138.9375 C 210.183594 138.394531 210.246094 137.925781 210.507813 137.53125 C 210.765625 137.132813 211.183594 136.867188 211.757813 136.734375 C 212.414063 136.578125 212.953125 136.65625 213.382813 136.96875 C 213.808594 137.289063 214.117188 137.847656 214.304688 138.640625 L 214.585938 139.859375 L 214.679688 139.828125 C 215.125 139.722656 215.4375 139.507813 215.617188 139.1875 C 215.804688 138.863281 215.839844 138.460938 215.726563 137.984375 C 215.664063 137.691406 215.554688 137.410156 215.398438 137.140625 C 215.25 136.878906 215.070313 136.632813 214.851563 136.40625 L 215.726563 136.1875 C 215.945313 136.480469 216.117188 136.765625 216.242188 137.046875 C 216.375 137.328125 216.480469 137.609375 216.554688 137.890625 C 216.730469 138.648438 216.648438 139.269531 216.304688 139.75 C 215.960938 140.238281 215.339844 140.585938 214.445313 140.796875 Z M 218.410156 144.890625 L 221.238281 143.265625 L 221.675781 144.03125 L 214.425781 148.203125 L 213.988281 147.4375 L 214.769531 146.984375 C 214.363281 147.003906 214.007813 146.929688 213.707031 146.765625 C 213.414063 146.597656 213.167969 146.34375 212.972656 146 C 212.648438 145.4375 212.632813 144.832031 212.925781 144.1875 C 213.226563 143.539063 213.785156 142.980469 214.597656 142.5 C 215.417969 142.03125 216.183594 141.835938 216.894531 141.90625 C 217.601563 141.96875 218.117188 142.28125 218.441406 142.84375 C 218.636719 143.1875 218.738281 143.527344 218.738281 143.859375 C 218.738281 144.203125 218.628906 144.546875 218.410156 144.890625 Z M 215.066406 143.296875 C 214.441406 143.660156 214.011719 144.0625 213.785156 144.5 C 213.554688 144.945313 213.558594 145.375 213.800781 145.78125 C 214.039063 146.195313 214.402344 146.414063 214.894531 146.4375 C 215.394531 146.46875 215.957031 146.300781 216.582031 145.9375 C 217.214844 145.570313 217.644531 145.171875 217.863281 144.734375 C 218.089844 144.296875 218.085938 143.867188 217.847656 143.453125 C 217.605469 143.046875 217.242188 142.828125 216.753906 142.796875 C 216.261719 142.765625 215.699219 142.933594 215.066406 143.296875 Z M 215.066406 143.296875 "/>
<path style="fill:none;stroke-width:3;stroke-linecap:round;stroke-linejoin:round;stroke:rgb(100%,100%,100%);stroke-opacity:1;stroke-miterlimit:10;" d="M 53.605469 149.59375 L 56.355469 155.046875 L 55.542969 155.453125 L 54.386719 153.171875 L 48.042969 156.375 L 47.605469 155.5 L 53.949219 152.296875 L 52.792969 150 Z M 52.75 160.289063 C 52.550781 159.601563 52.320313 159.148438 52.0625 158.929688 C 51.8125 158.71875 51.472656 158.679688 51.046875 158.804688 C 50.722656 158.90625 50.488281 159.089844 50.34375 159.351563 C 50.195313 159.609375 50.175781 159.90625 50.28125 160.242188 C 50.414063 160.71875 50.710938 161.046875 51.171875 161.226563 C 51.628906 161.402344 52.164063 161.402344 52.78125 161.226563 L 53 161.148438 Z M 53.640625 161.898438 L 50.34375 162.867188 L 50.09375 162.007813 L 50.96875 161.757813 C 50.5625 161.664063 50.226563 161.492188 49.96875 161.242188 C 49.71875 161 49.53125 160.671875 49.40625 160.257813 C 49.25 159.726563 49.289063 159.25 49.53125 158.835938 C 49.78125 158.417969 50.179688 158.125 50.734375 157.960938 C 51.390625 157.773438 51.9375 157.828125 52.375 158.117188 C 52.820313 158.417969 53.160156 158.960938 53.390625 159.742188 L 53.734375 160.945313 L 53.828125 160.914063 C 54.265625 160.777344 54.566406 160.542969 54.734375 160.210938 C 54.898438 159.886719 54.910156 159.492188 54.765625 159.023438 C 54.679688 158.730469 54.554688 158.449219 54.390625 158.179688 C 54.234375 157.917969 54.035156 157.6875 53.796875 157.476563 L 54.671875 157.226563 C 54.910156 157.507813 55.101563 157.785156 55.25 158.054688 C 55.394531 158.324219 55.507813 158.601563 55.59375 158.882813 C 55.8125 159.632813 55.757813 160.257813 55.4375 160.757813 C 55.125 161.257813 54.523438 161.636719 53.640625 161.898438 Z M 56.644531 166.183594 C 56.675781 166.066406 56.683594 165.949219 56.675781 165.824219 C 56.664063 165.707031 56.644531 165.582031 56.613281 165.449219 C 56.464844 164.957031 56.179688 164.636719 55.753906 164.480469 C 55.324219 164.332031 54.789063 164.355469 54.144531 164.542969 L 51.097656 165.433594 L 50.847656 164.574219 L 56.613281 162.886719 L 56.863281 163.746094 L 55.972656 163.996094 C 56.367188 164.089844 56.695313 164.25 56.957031 164.480469 C 57.214844 164.707031 57.402344 165.03125 57.519531 165.449219 C 57.539063 165.5 57.554688 165.5625 57.566406 165.636719 C 57.585938 165.71875 57.597656 165.800781 57.597656 165.886719 Z M 55.601563 170.003906 C 55.402344 169.316406 55.171875 168.863281 54.914063 168.644531 C 54.664063 168.433594 54.324219 168.394531 53.898438 168.519531 C 53.574219 168.621094 53.339844 168.804688 53.195313 169.066406 C 53.046875 169.324219 53.027344 169.621094 53.132813 169.957031 C 53.265625 170.433594 53.5625 170.761719 54.023438 170.941406 C 54.480469 171.117188 55.015625 171.117188 55.632813 170.941406 L 55.851563 170.863281 Z M 56.492188 171.613281 L 53.195313 172.582031 L 52.945313 171.722656 L 53.820313 171.472656 C 53.414063 171.378906 53.078125 171.207031 52.820313 170.957031 C 52.570313 170.714844 52.382813 170.386719 52.257813 169.972656 C 52.101563 169.441406 52.140625 168.964844 52.382813 168.550781 C 52.632813 168.132813 53.03125 167.839844 53.585938 167.675781 C 54.242188 167.488281 54.789063 167.542969 55.226563 167.832031 C 55.671875 168.132813 56.011719 168.675781 56.242188 169.457031 L 56.585938 170.660156 L 56.679688 170.628906 C 57.117188 170.492188 57.417969 170.257813 57.585938 169.925781 C 57.75 169.601563 57.761719 169.207031 57.617188 168.738281 C 57.53125 168.445313 57.40625 168.164063 57.242188 167.894531 C 57.085938 167.632813 56.886719 167.402344 56.648438 167.191406 L 57.523438 166.941406 C 57.761719 167.222656 57.953125 167.5 58.101563 167.769531 C 58.246094 168.039063 58.359375 168.316406 58.445313 168.597656 C 58.664063 169.347656 58.609375 169.972656 58.289063 170.472656 C 57.976563 170.972656 57.375 171.351563 56.492188 171.613281 Z M 61.726563 176.316406 L 55.742188 178.066406 L 56.070313 179.191406 C 56.351563 180.148438 56.792969 180.777344 57.398438 181.082031 C 58.011719 181.382813 58.839844 181.382813 59.882813 181.082031 C 60.902344 180.777344 61.589844 180.335938 61.945313 179.753906 C 62.296875 179.167969 62.335938 178.398438 62.054688 177.441406 Z M 62.289063 175.128906 L 62.851563 177.035156 C 63.246094 178.386719 63.226563 179.464844 62.789063 180.269531 C 62.351563 181.082031 61.476563 181.679688 60.164063 182.066406 C 58.828125 182.449219 57.761719 182.417969 56.960938 181.972656 C 56.15625 181.523438 55.558594 180.628906 55.164063 179.285156 L 54.601563 177.378906 Z M 62.402344 186.292969 C 62.441406 186.1875 62.464844 186.074219 62.464844 185.949219 C 62.464844 185.824219 62.449219 185.691406 62.417969 185.558594 C 62.28125 185.066406 62 184.738281 61.574219 184.574219 C 61.15625 184.40625 60.621094 184.40625 59.964844 184.574219 L 56.902344 185.386719 L 56.667969 184.511719 L 62.480469 182.980469 L 62.714844 183.855469 L 61.808594 184.089844 C 62.214844 184.191406 62.535156 184.363281 62.777344 184.605469 C 63.027344 184.84375 63.207031 185.167969 63.324219 185.574219 C 63.332031 185.636719 63.34375 185.703125 63.355469 185.777344 C 63.375 185.859375 63.386719 185.941406 63.386719 186.027344 Z M 63.527344 186.957031 L 63.761719 187.816406 L 57.949219 189.347656 L 57.714844 188.488281 Z M 65.792969 186.363281 L 66.027344 187.222656 L 64.824219 187.535156 L 64.589844 186.675781 Z M 64.070313 188.988281 L 64.304688 189.894531 L 59.851563 192.816406 L 65.164063 193.175781 L 65.398438 194.082031 L 59.070313 193.660156 L 58.773438 192.488281 Z M 64.191406 200.46875 L 63.722656 200.59375 L 62.691406 196.625 C 62.042969 196.832031 61.589844 197.140625 61.332031 197.546875 C 61.082031 197.960938 61.027344 198.453125 61.175781 199.015625 C 61.269531 199.347656 61.398438 199.65625 61.566406 199.9375 C 61.730469 200.226563 61.945313 200.503906 62.207031 200.765625 L 61.300781 201 C 61.070313 200.726563 60.871094 200.4375 60.707031 200.125 C 60.550781 199.820313 60.429688 199.503906 60.347656 199.171875 C 60.128906 198.335938 60.226563 197.609375 60.644531 196.984375 C 61.058594 196.359375 61.730469 195.925781 62.660156 195.6875 C 63.605469 195.4375 64.417969 195.476563 65.097656 195.796875 C 65.785156 196.117188 66.226563 196.675781 66.425781 197.46875 C 66.613281 198.164063 66.503906 198.785156 66.097656 199.328125 C 65.699219 199.867188 65.066406 200.25 64.191406 200.46875 Z M 64.269531 199.53125 C 64.777344 199.382813 65.160156 199.144531 65.410156 198.8125 C 65.660156 198.476563 65.726563 198.097656 65.613281 197.671875 C 65.488281 197.191406 65.238281 196.84375 64.863281 196.625 C 64.488281 196.414063 64.023438 196.359375 63.472656 196.453125 Z M 64.269531 199.53125 "/>
<path style=" stroke:none;fill-rule:evenodd;fill:rgb(20%,20%,20%);fill-opacity:1;" d="M 53.605469 149.59375 L 56.355469 155.046875 L 55.542969 155.453125 L 54.386719 153.171875 L 48.042969 156.375 L 47.605469 155.5 L 53.949219 152.296875 L 52.792969 150 Z M 52.75 160.289063 C 52.550781 159.601563 52.320313 159.148438 52.0625 158.929688 C 51.8125 158.71875 51.472656 158.679688 51.046875 158.804688 C 50.722656 158.90625 50.488281 159.089844 50.34375 159.351563 C 50.195313 159.609375 50.175781 159.90625 50.28125 160.242188 C 50.414063 160.71875 50.710938 161.046875 51.171875 161.226563 C 51.628906 161.402344 52.164063 161.402344 52.78125 161.226563 L 53 161.148438 Z M 53.640625 161.898438 L 50.34375 162.867188 L 50.09375 162.007813 L 50.96875 161.757813 C 50.5625 161.664063 50.226563 161.492188 49.96875 161.242188 C 49.71875 161 49.53125 160.671875 49.40625 160.257813 C 49.25 159.726563 49.289063 159.25 49.53125 158.835938 C 49.78125 158.417969 50.179688 158.125 50.734375 157.960938 C 51.390625 157.773438 51.9375 157.828125 52.375 158.117188 C 52.820313 158.417969 53.160156 158.960938 53.390625 159.742188 L 53.734375 160.945313 L 53.828125 160.914063 C 54.265625 160.777344 54.566406 160.542969 54.734375 160.210938 C 54.898438 159.886719 54.910156 159.492188 54.765625 159.023438 C 54.679688 158.730469 54.554688 158.449219 54.390625 158.179688 C 54.234375 157.917969 54.035156 157.6875 53.796875 157.476563 L 54.671875 157.226563 C 54.910156 157.507813 55.101563 157.785156 55.25 158.054688 C 55.394531 158.324219 55.507813 158.601563 55.59375 158.882813 C 55.8125 159.632813 55.757813 160.257813 55.4375 160.757813 C 55.125 161.257813 54.523438 161.636719 53.640625 161.898438 Z M 56.644531 166.183594 C 56.675781 166.066406 56.683594 165.949219 56.675781 165.824219 C 56.664063 165.707031 56.644531 165.582031 56.613281 165.449219 C 56.464844 164.957031 56.179688 164.636719 55.753906 164.480469 C 55.324219 164.332031 54.789063 164.355469 54.144531 164.542969 L 51.097656 165.433594 L 50.847656 164.574219 L 56.613281 162.886719 L 56.863281 163.746094 L 55.972656 163.996094 C 56.367188 164.089844 56.695313 164.25 56.957031 164.480469 C 57.214844 164.707031 57.402344 165.03125 57.519531 165.449219 C 57.539063 165.5 57.554688 165.5625 57.566406 165.636719 C 57.585938 165.71875 57.597656 165.800781 57.597656 165.886719 Z M 55.601563 170.003906 C 55.402344 169.316406 55.171875 168.863281 54.914063 168.644531 C 54.664063 168.433594 54.324219 168.394531 53.898438 168.519531 C 53.574219 168.621094 53.339844 168.804688 53.195313 169.066406 C 53.046875 169.324219 53.027344 169.621094 53.132813 169.957031 C 53.265625 170.433594 53.5625 170.761719 54.023438 170.941406 C 54.480469 171.117188 55.015625 171.117188 55.632813 170.941406 L 55.851563 170.863281 Z M 56.492188 171.613281 L 53.195313 172.582031 L 52.945313 171.722656 L 53.820313 171.472656 C 53.414063 171.378906 53.078125 171.207031 52.820313 170.957031 C 52.570313 170.714844 52.382813 170.386719 52.257813 169.972656 C 52.101563 169.441406 52.140625 168.964844 52.382813 168.550781 C 52.632813 168.132813 53.03125 167.839844 53.585938 167.675781 C 54.242188 167.488281 54.789063 167.542969 55.226563 167.832031 C 55.671875 168.132813 56.011719 168.675781 56.242188 169.457031 L 56.585938 170.660156 L 56.679688 170.628906 C 57.117188 170.492188 57.417969 170.257813 57.585938 169.925781 C 57.75 169.601563 57.761719 169.207031 57.617188 168.738281 C 57.53125 168.445313 57.40625 168.164063 57.242188 167.894531 C 57.085938 167.632813 56.886719 167.402344 56.648438 167.191406 L 57.523438 166.941406 C 57.761719 167.222656 57.953125 167.5 58.101563 167.769531 C 58.246094 168.039063 58.359375 168.316406 58.445313 168.597656 C 58.664063 169.347656 58.609375 169.972656 58.289063 170.472656 C 57.976563 170.972656 57.375 171.351563 56.492188 171.613281 Z M 61.726563 176.316406 L 55.742188 178.066406 L 56.070313 179.191406 C 56.351563 180.148438 56.792969 180.777344 57.398438 181.082031 C 58.011719 181.382813 58.839844 181.382813 59.882813 181.082031 C 60.902344 180.777344 61.589844 180.335938 61.945313 179.753906 C 62.296875 179.167969 62.335938 178.398438 62.054688 177.441406 Z M 62.289063 175.128906 L 62.851563 177.035156 C 63.246094 178.386719 63.226563 179.464844 62.789063 180.269531 C 62.351563 181.082031 61.476563 181.679688 60.164063 182.066406 C 58.828125 182.449219 57.761719 182.417969 56.960938 181.972656 C 56.15625 181.523438 55.558594 180.628906 55.164063 179.285156 L 54.601563 177.378906 Z M 62.402344 186.292969 C 62.441406 186.1875 62.464844 186.074219 62.464844 185.949219 C 62.464844 185.824219 62.449219 185.691406 62.417969 185.558594 C 62.28125 185.066406 62 184.738281 61.574219 184.574219 C 61.15625 184.40625 60.621094 184.40625 59.964844 184.574219 L 56.902344 185.386719 L 56.667969 184.511719 L 62.480469 182.980469 L 62.714844 183.855469 L 61.808594 184.089844 C 62.214844 184.191406 62.535156 184.363281 62.777344 184.605469 C 63.027344 184.84375 63.207031 185.167969 63.324219 185.574219 C 63.332031 185.636719 63.34375 185.703125 63.355469 185.777344 C 63.375 185.859375 63.386719 185.941406 63.386719 186.027344 Z M 63.527344 186.957031 L 63.761719 187.816406 L 57.949219 189.347656 L 57.714844 188.488281 Z M 65.792969 186.363281 L 66.027344 187.222656 L 64.824219 187.535156 L 64.589844 186.675781 Z M 64.070313 188.988281 L 64.304688 189.894531 L 59.851563 192.816406 L 65.164063 193.175781 L 65.398438 194.082031 L 59.070313 193.660156 L 58.773438 192.488281 Z M 64.191406 200.46875 L 63.722656 200.59375 L 62.691406 196.625 C 62.042969 196.832031 61.589844 197.140625 61.332031 197.546875 C 61.082031 197.960938 61.027344 198.453125 61.175781 199.015625 C 61.269531 199.347656 61.398438 199.65625 61.566406 199.9375 C 61.730469 200.226563 61.945313 200.503906 62.207031 200.765625 L 61.300781 201 C 61.070313 200.726563 60.871094 200.4375 60.707031 200.125 C 60.550781 199.820313 60.429688 199.503906 60.347656 199.171875 C 60.128906 198.335938 60.226563 197.609375 60.644531 196.984375 C 61.058594 196.359375 61.730469 195.925781 62.660156 195.6875 C 63.605469 195.4375 64.417969 195.476563 65.097656 195.796875 C 65.785156 196.117188 66.226563 196.675781 66.425781 197.46875 C 66.613281 198.164063 66.503906 198.785156 66.097656 199.328125 C 65.699219 199.867188 65.066406 200.25 64.191406 200.46875 Z M 64.269531 199.53125 C 64.777344 199.382813 65.160156 199.144531 65.410156 198.8125 C 65.660156 198.476563 65.726563 198.097656 65.613281 197.671875 C 65.488281 197.191406 65.238281 196.84375 64.863281 196.625 C 64.488281 196.414063 64.023438 196.359375 63.472656 196.453125 Z M 64.269531 199.53125 "/>
<path style="fill:none;stroke-width:3;stroke-linecap:round;stroke-linejoin:round;stroke:rgb(100%,100%,100%);stroke-opacity:1;stroke-miterlimit:10;" d="M 106.40625 38.324219 L 101.015625 41.464844 L 101.609375 42.480469 C 102.109375 43.34375 102.691406 43.847656 103.359375 43.996094 C 104.023438 44.140625 104.828125 43.9375 105.765625 43.386719 C 106.691406 42.855469 107.253906 42.261719 107.453125 41.605469 C 107.648438 40.957031 107.5 40.207031 107 39.339844 Z M 106.671875 37.027344 L 107.6875 38.746094 C 108.394531 39.964844 108.632813 41.015625 108.40625 41.902344 C 108.175781 42.796875 107.46875 43.589844 106.28125 44.277344 C 105.082031 44.972656 104.035156 45.203125 103.140625 44.964844 C 102.253906 44.722656 101.460938 44 100.765625 42.792969 L 99.75 41.074219 Z M 105.636719 46.359375 L 108.730469 44.4375 L 109.199219 45.1875 L 106.136719 47.09375 C 105.65625 47.394531 105.34375 47.703125 105.199219 48.015625 C 105.0625 48.335938 105.097656 48.671875 105.308594 49.015625 C 105.566406 49.421875 105.910156 49.648438 106.339844 49.703125 C 106.777344 49.765625 107.25 49.640625 107.761719 49.328125 L 110.652344 47.515625 L 111.121094 48.28125 L 106.011719 51.46875 L 105.542969 50.703125 L 106.324219 50.21875 C 105.894531 50.226563 105.53125 50.160156 105.230469 50.015625 C 104.9375 49.867188 104.691406 49.628906 104.496094 49.296875 C 104.160156 48.773438 104.09375 48.265625 104.292969 47.765625 C 104.488281 47.265625 104.9375 46.796875 105.636719 46.359375 Z M 110.011719 46.25 Z M 108.210938 53.28125 L 105.507813 54.96875 L 105.023438 54.1875 L 112.070313 49.796875 L 112.554688 50.578125 L 111.773438 51.0625 C 112.167969 51.03125 112.511719 51.089844 112.804688 51.234375 C 113.105469 51.382813 113.367188 51.625 113.585938 51.96875 C 113.929688 52.519531 113.960938 53.117188 113.679688 53.765625 C 113.40625 54.421875 112.871094 55 112.070313 55.5 C 111.265625 56.007813 110.511719 56.242188 109.804688 56.203125 C 109.105469 56.160156 108.585938 55.863281 108.242188 55.3125 C 108.023438 54.96875 107.90625 54.628906 107.898438 54.296875 C 107.898438 53.972656 108 53.632813 108.210938 53.28125 Z M 111.585938 54.71875 C 112.199219 54.332031 112.609375 53.914063 112.820313 53.46875 C 113.027344 53.03125 113.007813 52.613281 112.757813 52.21875 C 112.507813 51.8125 112.136719 51.609375 111.648438 51.609375 C 111.15625 51.601563 110.605469 51.789063 109.992188 52.171875 C 109.367188 52.554688 108.949219 52.96875 108.742188 53.40625 C 108.53125 53.851563 108.554688 54.28125 108.804688 54.6875 C 109.054688 55.082031 109.421875 55.28125 109.914063 55.28125 C 110.402344 55.289063 110.960938 55.101563 111.585938 54.71875 Z M 115.667969 57.664063 C 115.46875 57.226563 115.121094 56.972656 114.621094 56.898438 C 114.128906 56.816406 113.558594 56.921875 112.902344 57.210938 C 112.246094 57.5 111.78125 57.855469 111.511719 58.273438 C 111.25 58.6875 111.21875 59.117188 111.417969 59.554688 C 111.613281 59.992188 111.953125 60.25 112.433594 60.335938 C 112.921875 60.429688 113.496094 60.328125 114.152344 60.039063 C 114.808594 59.746094 115.269531 59.386719 115.542969 58.960938 C 115.824219 58.53125 115.863281 58.101563 115.667969 57.664063 Z M 116.417969 57.335938 C 116.730469 58.042969 116.71875 58.710938 116.386719 59.335938 C 116.050781 59.96875 115.433594 60.492188 114.527344 60.898438 C 113.640625 61.292969 112.847656 61.402344 112.152344 61.226563 C 111.464844 61.046875 110.964844 60.605469 110.652344 59.898438 C 110.328125 59.1875 110.332031 58.515625 110.667969 57.882813 C 111.011719 57.257813 111.625 56.75 112.511719 56.351563 C 113.417969 55.945313 114.214844 55.832031 114.902344 56.007813 C 115.589844 56.1875 116.09375 56.628906 116.417969 57.335938 Z M 116.347656 66.378906 L 112.785156 67.066406 L 112.613281 66.191406 L 116.144531 65.503906 C 116.707031 65.386719 117.101563 65.199219 117.332031 64.941406 C 117.570313 64.691406 117.652344 64.371094 117.582031 63.988281 C 117.488281 63.519531 117.246094 63.179688 116.863281 62.972656 C 116.476563 62.773438 115.996094 62.726563 115.425781 62.832031 L 112.082031 63.488281 L 111.910156 62.597656 L 117.816406 61.441406 L 117.988281 62.332031 L 117.066406 62.519531 C 117.460938 62.652344 117.773438 62.839844 118.003906 63.082031 C 118.230469 63.332031 118.382813 63.648438 118.457031 64.035156 C 118.582031 64.636719 118.460938 65.136719 118.097656 65.535156 C 117.742188 65.929688 117.160156 66.210938 116.347656 66.378906 Z M 120.761719 68.429688 L 119.074219 68.632813 L 119.292969 70.445313 L 118.542969 70.539063 L 118.324219 68.726563 L 115.074219 69.117188 C 114.582031 69.167969 114.277344 69.261719 114.152344 69.398438 C 114.035156 69.542969 114 69.804688 114.042969 70.179688 L 114.152344 71.070313 L 113.324219 71.164063 L 113.214844 70.273438 C 113.128906 69.585938 113.214844 69.09375 113.464844 68.804688 C 113.722656 68.511719 114.222656 68.324219 114.964844 68.242188 L 118.214844 67.851563 L 118.136719 67.195313 L 118.886719 67.101563 L 118.964844 67.757813 L 120.652344 67.554688 Z M 123.484375 78.496094 L 122.4375 78.964844 C 122.613281 78.527344 122.703125 78.105469 122.703125 77.699219 C 122.710938 77.292969 122.632813 76.894531 122.46875 76.511719 C 122.132813 75.75 121.625 75.285156 120.9375 75.105469 C 120.25 74.929688 119.421875 75.054688 118.453125 75.480469 C 117.484375 75.894531 116.828125 76.417969 116.484375 77.042969 C 116.148438 77.667969 116.148438 78.359375 116.484375 79.121094 C 116.648438 79.503906 116.878906 79.832031 117.171875 80.105469 C 117.472656 80.375 117.851563 80.59375 118.3125 80.761719 L 117.28125 81.214844 C 116.90625 81.003906 116.582031 80.75 116.3125 80.449219 C 116.039063 80.15625 115.816406 79.8125 115.640625 79.417969 C 115.203125 78.417969 115.195313 77.480469 115.625 76.605469 C 116.0625 75.738281 116.867188 75.054688 118.046875 74.542969 C 119.222656 74.023438 120.273438 73.902344 121.203125 74.183594 C 122.140625 74.457031 122.828125 75.089844 123.265625 76.089844 C 123.441406 76.496094 123.546875 76.894531 123.578125 77.292969 C 123.609375 77.699219 123.578125 78.097656 123.484375 78.496094 Z M 123.53125 81.71875 C 123.21875 81.355469 122.8125 81.203125 122.3125 81.265625 C 121.820313 81.320313 121.300781 81.578125 120.75 82.046875 C 120.207031 82.507813 119.867188 82.972656 119.734375 83.453125 C 119.597656 83.941406 119.6875 84.367188 120 84.734375 C 120.300781 85.097656 120.695313 85.25 121.1875 85.1875 C 121.6875 85.125 122.207031 84.863281 122.75 84.40625 C 123.300781 83.9375 123.644531 83.460938 123.78125 82.984375 C 123.914063 82.507813 123.832031 82.085938 123.53125 81.71875 Z M 124.15625 81.1875 C 124.65625 81.773438 124.835938 82.414063 124.703125 83.109375 C 124.566406 83.804688 124.117188 84.476563 123.359375 85.125 C 122.617188 85.757813 121.890625 86.085938 121.171875 86.109375 C 120.453125 86.128906 119.84375 85.847656 119.34375 85.265625 C 118.832031 84.671875 118.648438 84.023438 118.796875 83.328125 C 118.953125 82.640625 119.398438 81.980469 120.140625 81.34375 C 120.898438 80.699219 121.628906 80.367188 122.328125 80.34375 C 123.035156 80.3125 123.644531 80.59375 124.15625 81.1875 Z M 124.121094 86.648438 L 126.339844 83.757813 L 127.042969 84.289063 L 124.839844 87.164063 C 124.503906 87.613281 124.328125 88.007813 124.308594 88.351563 C 124.285156 88.695313 124.4375 88.984375 124.761719 89.226563 C 125.144531 89.527344 125.550781 89.625 125.980469 89.523438 C 126.40625 89.429688 126.796875 89.140625 127.152344 88.664063 L 129.230469 85.960938 L 129.933594 86.507813 L 126.277344 91.289063 L 125.574219 90.742188 L 126.136719 90.007813 C 125.738281 90.164063 125.375 90.226563 125.042969 90.195313 C 124.71875 90.171875 124.402344 90.042969 124.089844 89.804688 C 123.597656 89.429688 123.355469 88.96875 123.355469 88.429688 C 123.363281 87.898438 123.621094 87.304688 124.121094 86.648438 Z M 128.199219 85.007813 Z M 133.296875 90.296875 C 133.242188 90.183594 133.179688 90.078125 133.109375 89.984375 C 133.035156 89.882813 132.945313 89.789063 132.84375 89.703125 C 132.4375 89.390625 132.015625 89.296875 131.578125 89.421875 C 131.148438 89.539063 130.722656 89.859375 130.296875 90.390625 L 128.34375 92.890625 L 127.640625 92.328125 L 131.359375 87.59375 L 132.0625 88.15625 L 131.484375 88.90625 C 131.867188 88.730469 132.226563 88.664063 132.5625 88.703125 C 132.90625 88.746094 133.25 88.902344 133.59375 89.171875 C 133.632813 89.214844 133.679688 89.261719 133.734375 89.3125 C 133.796875 89.367188 133.851563 89.429688 133.90625 89.5 Z M 136.355469 89.402344 L 135.277344 90.730469 L 136.683594 91.886719 L 136.214844 92.480469 L 134.808594 91.324219 L 132.730469 93.855469 C 132.425781 94.230469 132.277344 94.511719 132.277344 94.699219 C 132.285156 94.886719 132.4375 95.097656 132.730469 95.339844 L 133.417969 95.902344 L 132.886719 96.542969 L 132.199219 95.980469 C 131.65625 95.542969 131.375 95.125 131.355469 94.730469 C 131.34375 94.34375 131.574219 93.867188 132.042969 93.292969 L 134.121094 90.761719 L 133.605469 90.355469 L 134.074219 89.761719 L 134.589844 90.167969 L 135.667969 88.839844 Z M 136.355469 89.402344 "/>
<path style=" stroke:none;fill-rule:evenodd;fill:rgb(20%,20%,20%);fill-opacity:1;" d="M 106.40625 38.324219 L 101.015625 41.464844 L 101.609375 42.480469 C 102.109375 43.34375 102.691406 43.847656 103.359375 43.996094 C 104.023438 44.140625 104.828125 43.9375 105.765625 43.386719 C 106.691406 42.855469 107.253906 42.261719 107.453125 41.605469 C 107.648438 40.957031 107.5 40.207031 107 39.339844 Z M 106.671875 37.027344 L 107.6875 38.746094 C 108.394531 39.964844 108.632813 41.015625 108.40625 41.902344 C 108.175781 42.796875 107.46875 43.589844 106.28125 44.277344 C 105.082031 44.972656 104.035156 45.203125 103.140625 44.964844 C 102.253906 44.722656 101.460938 44 100.765625 42.792969 L 99.75 41.074219 Z M 105.636719 46.359375 L 108.730469 44.4375 L 109.199219 45.1875 L 106.136719 47.09375 C 105.65625 47.394531 105.34375 47.703125 105.199219 48.015625 C 105.0625 48.335938 105.097656 48.671875 105.308594 49.015625 C 105.566406 49.421875 105.910156 49.648438 106.339844 49.703125 C 106.777344 49.765625 107.25 49.640625 107.761719 49.328125 L 110.652344 47.515625 L 111.121094 48.28125 L 106.011719 51.46875 L 105.542969 50.703125 L 106.324219 50.21875 C 105.894531 50.226563 105.53125 50.160156 105.230469 50.015625 C 104.9375 49.867188 104.691406 49.628906 104.496094 49.296875 C 104.160156 48.773438 104.09375 48.265625 104.292969 47.765625 C 104.488281 47.265625 104.9375 46.796875 105.636719 46.359375 Z M 110.011719 46.25 Z M 108.210938 53.28125 L 105.507813 54.96875 L 105.023438 54.1875 L 112.070313 49.796875 L 112.554688 50.578125 L 111.773438 51.0625 C 112.167969 51.03125 112.511719 51.089844 112.804688 51.234375 C 113.105469 51.382813 113.367188 51.625 113.585938 51.96875 C 113.929688 52.519531 113.960938 53.117188 113.679688 53.765625 C 113.40625 54.421875 112.871094 55 112.070313 55.5 C 111.265625 56.007813 110.511719 56.242188 109.804688 56.203125 C 109.105469 56.160156 108.585938 55.863281 108.242188 55.3125 C 108.023438 54.96875 107.90625 54.628906 107.898438 54.296875 C 107.898438 53.972656 108 53.632813 108.210938 53.28125 Z M 111.585938 54.71875 C 112.199219 54.332031 112.609375 53.914063 112.820313 53.46875 C 113.027344 53.03125 113.007813 52.613281 112.757813 52.21875 C 112.507813 51.8125 112.136719 51.609375 111.648438 51.609375 C 111.15625 51.601563 110.605469 51.789063 109.992188 52.171875 C 109.367188 52.554688 108.949219 52.96875 108.742188 53.40625 C 108.53125 53.851563 108.554688 54.28125 108.804688 54.6875 C 109.054688 55.082031 109.421875 55.28125 109.914063 55.28125 C 110.402344 55.289063 110.960938 55.101563 111.585938 54.71875 Z M 115.667969 57.664063 C 115.46875 57.226563 115.121094 56.972656 114.621094 56.898438 C 114.128906 56.816406 113.558594 56.921875 112.902344 57.210938 C 112.246094 57.5 111.78125 57.855469 111.511719 58.273438 C 111.25 58.6875 111.21875 59.117188 111.417969 59.554688 C 111.613281 59.992188 111.953125 60.25 112.433594 60.335938 C 112.921875 60.429688 113.496094 60.328125 114.152344 60.039063 C 114.808594 59.746094 115.269531 59.386719 115.542969 58.960938 C 115.824219 58.53125 115.863281 58.101563 115.667969 57.664063 Z M 116.417969 57.335938 C 116.730469 58.042969 116.71875 58.710938 116.386719 59.335938 C 116.050781 59.96875 115.433594 60.492188 114.527344 60.898438 C 113.640625 61.292969 112.847656 61.402344 112.152344 61.226563 C 111.464844 61.046875 110.964844 60.605469 110.652344 59.898438 C 110.328125 59.1875 110.332031 58.515625 110.667969 57.882813 C 111.011719 57.257813 111.625 56.75 112.511719 56.351563 C 113.417969 55.945313 114.214844 55.832031 114.902344 56.007813 C 115.589844 56.1875 116.09375 56.628906 116.417969 57.335938 Z M 116.347656 66.378906 L 112.785156 67.066406 L 112.613281 66.191406 L 116.144531 65.503906 C 116.707031 65.386719 117.101563 65.199219 117.332031 64.941406 C 117.570313 64.691406 117.652344 64.371094 117.582031 63.988281 C 117.488281 63.519531 117.246094 63.179688 116.863281 62.972656 C 116.476563 62.773438 115.996094 62.726563 115.425781 62.832031 L 112.082031 63.488281 L 111.910156 62.597656 L 117.816406 61.441406 L 117.988281 62.332031 L 117.066406 62.519531 C 117.460938 62.652344 117.773438 62.839844 118.003906 63.082031 C 118.230469 63.332031 118.382813 63.648438 118.457031 64.035156 C 118.582031 64.636719 118.460938 65.136719 118.097656 65.535156 C 117.742188 65.929688 117.160156 66.210938 116.347656 66.378906 Z M 120.761719 68.429688 L 119.074219 68.632813 L 119.292969 70.445313 L 118.542969 70.539063 L 118.324219 68.726563 L 115.074219 69.117188 C 114.582031 69.167969 114.277344 69.261719 114.152344 69.398438 C 114.035156 69.542969 114 69.804688 114.042969 70.179688 L 114.152344 71.070313 L 113.324219 71.164063 L 113.214844 70.273438 C 113.128906 69.585938 113.214844 69.09375 113.464844 68.804688 C 113.722656 68.511719 114.222656 68.324219 114.964844 68.242188 L 118.214844 67.851563 L 118.136719 67.195313 L 118.886719 67.101563 L 118.964844 67.757813 L 120.652344 67.554688 Z M 123.484375 78.496094 L 122.4375 78.964844 C 122.613281 78.527344 122.703125 78.105469 122.703125 77.699219 C 122.710938 77.292969 122.632813 76.894531 122.46875 76.511719 C 122.132813 75.75 121.625 75.285156 120.9375 75.105469 C 120.25 74.929688 119.421875 75.054688 118.453125 75.480469 C 117.484375 75.894531 116.828125 76.417969 116.484375 77.042969 C 116.148438 77.667969 116.148438 78.359375 116.484375 79.121094 C 116.648438 79.503906 116.878906 79.832031 117.171875 80.105469 C 117.472656 80.375 117.851563 80.59375 118.3125 80.761719 L 117.28125 81.214844 C 116.90625 81.003906 116.582031 80.75 116.3125 80.449219 C 116.039063 80.15625 115.816406 79.8125 115.640625 79.417969 C 115.203125 78.417969 115.195313 77.480469 115.625 76.605469 C 116.0625 75.738281 116.867188 75.054688 118.046875 74.542969 C 119.222656 74.023438 120.273438 73.902344 121.203125 74.183594 C 122.140625 74.457031 122.828125 75.089844 123.265625 76.089844 C 123.441406 76.496094 123.546875 76.894531 123.578125 77.292969 C 123.609375 77.699219 123.578125 78.097656 123.484375 78.496094 Z M 123.53125 81.71875 C 123.21875 81.355469 122.8125 81.203125 122.3125 81.265625 C 121.820313 81.320313 121.300781 81.578125 120.75 82.046875 C 120.207031 82.507813 119.867188 82.972656 119.734375 83.453125 C 119.597656 83.941406 119.6875 84.367188 120 84.734375 C 120.300781 85.097656 120.695313 85.25 121.1875 85.1875 C 121.6875 85.125 122.207031 84.863281 122.75 84.40625 C 123.300781 83.9375 123.644531 83.460938 123.78125 82.984375 C 123.914063 82.507813 123.832031 82.085938 123.53125 81.71875 Z M 124.15625 81.1875 C 124.65625 81.773438 124.835938 82.414063 124.703125 83.109375 C 124.566406 83.804688 124.117188 84.476563 123.359375 85.125 C 122.617188 85.757813 121.890625 86.085938 121.171875 86.109375 C 120.453125 86.128906 119.84375 85.847656 119.34375 85.265625 C 118.832031 84.671875 118.648438 84.023438 118.796875 83.328125 C 118.953125 82.640625 119.398438 81.980469 120.140625 81.34375 C 120.898438 80.699219 121.628906 80.367188 122.328125 80.34375 C 123.035156 80.3125 123.644531 80.59375 124.15625 81.1875 Z M 124.121094 86.648438 L 126.339844 83.757813 L 127.042969 84.289063 L 124.839844 87.164063 C 124.503906 87.613281 124.328125 88.007813 124.308594 88.351563 C 124.285156 88.695313 124.4375 88.984375 124.761719 89.226563 C 125.144531 89.527344 125.550781 89.625 125.980469 89.523438 C 126.40625 89.429688 126.796875 89.140625 127.152344 88.664063 L 129.230469 85.960938 L 129.933594 86.507813 L 126.277344 91.289063 L 125.574219 90.742188 L 126.136719 90.007813 C 125.738281 90.164063 125.375 90.226563 125.042969 90.195313 C 124.71875 90.171875 124.402344 90.042969 124.089844 89.804688 C 123.597656 89.429688 123.355469 88.96875 123.355469 88.429688 C 123.363281 87.898438 123.621094 87.304688 124.121094 86.648438 Z M 128.199219 85.007813 Z M 133.296875 90.296875 C 133.242188 90.183594 133.179688 90.078125 133.109375 89.984375 C 133.035156 89.882813 132.945313 89.789063 132.84375 89.703125 C 132.4375 89.390625 132.015625 89.296875 131.578125 89.421875 C 131.148438 89.539063 130.722656 89.859375 130.296875 90.390625 L 128.34375 92.890625 L 127.640625 92.328125 L 131.359375 87.59375 L 132.0625 88.15625 L 131.484375 88.90625 C 131.867188 88.730469 132.226563 88.664063 132.5625 88.703125 C 132.90625 88.746094 133.25 88.902344 133.59375 89.171875 C 133.632813 89.214844 133.679688 89.261719 133.734375 89.3125 C 133.796875 89.367188 133.851563 89.429688 133.90625 89.5 Z M 136.355469 89.402344 L 135.277344 90.730469 L 136.683594 91.886719 L 136.214844 92.480469 L 134.808594 91.324219 L 132.730469 93.855469 C 132.425781 94.230469 132.277344 94.511719 132.277344 94.699219 C 132.285156 94.886719 132.4375 95.097656 132.730469 95.339844 L 133.417969 95.902344 L 132.886719 96.542969 L 132.199219 95.980469 C 131.65625 95.542969 131.375 95.125 131.355469 94.730469 C 131.34375 94.34375 131.574219 93.867188 132.042969 93.292969 L 134.121094 90.761719 L 133.605469 90.355469 L 134.074219 89.761719 L 134.589844 90.167969 L 135.667969 88.839844 Z M 136.355469 89.402344 "/>
</g>
</svg>

