<?xml version="1.0" encoding="UTF-8"?>
<svg xmlns="http://www.w3.org/2000/svg" xmlns:xlink="http://www.w3.org/1999/xlink" width="256pt" height="256pt" viewBox="0 0 256 256" version="1.1">
<g id="surface2">
<rect x="0" y="0" width="256" height="256" style="fill:rgb(94.901961%,93.72549%,91.372549%);fill-opacity:1;stroke:none;"/>
<path style="fill:none;stroke-width:2;stroke-linecap:round;stroke-linejoin:round;stroke:rgb(60%,70.196078%,80%);stroke-opacity:1;stroke-miterlimit:10;" d="M 234.730469 -3 L 238.921875 0.953125 L 252.105469 13.976563 L 258 29.246094 "/>
<path style="fill:none;stroke-width:8;stroke-linecap:round;stroke-linejoin:round;stroke:rgb(75.686275%,70.980392%,61.568627%);stroke-opacity:1;stroke-miterlimit:10;" d="M 264 97.324219 L 218.90625 119.421875 L 217.648438 119.421875 L 216.015625 118.691406 L 212.125 114.039063 L 209.609375 112.140625 L 207.09375 111.636719 L 200.3125 111.636719 "/>
<path style="fill:none;stroke-width:9;stroke-linecap:round;stroke-linejoin:round;stroke:rgb(75.686275%,70.980392%,61.568627%);stroke-opacity:1;stroke-miterlimit:10;" d="M 223.242188 -10 L 227.410156 -0.617188 L 248.757813 46.570313 L 264.71875 82.011719 L 265 82.65625 "/>
<path style="fill:none;stroke-width:6;stroke-linecap:round;stroke-linejoin:round;stroke:rgb(100%,100%,100%);stroke-opacity:1;stroke-miterlimit:10;" d="M 264 97.324219 L 218.90625 119.421875 L 217.648438 119.421875 L 216.015625 118.691406 L 212.125 114.039063 L 209.609375 112.140625 L 207.09375 111.636719 L 200.3125 111.636719 "/>
<path style="fill:none;stroke-width:7;stroke-linecap:round;stroke-linejoin:round;stroke:rgb(100%,99.215686%,54.509804%);stroke-opacity:1;stroke-miterlimit:10;" d="M 223.242188 -10 L 227.410156 -0.617188 L 248.757813 46.570313 L 264.71875 82.011719 L 265 82.65625 "/>
</g>
</svg>

