<?xml version="1.0" encoding="UTF-8"?>
<svg xmlns="http://www.w3.org/2000/svg" xmlns:xlink="http://www.w3.org/1999/xlink" width="256pt" height="256pt" viewBox="0 0 256 256" version="1.1">
<g id="surface2">
<rect x="0" y="0" width="256" height="256" style="fill:rgb(94.901961%,93.72549%,91.372549%);fill-opacity:1;stroke:none;"/>
<path style="fill:none;stroke-width:8;stroke-linecap:round;stroke-linejoin:round;stroke:rgb(75.686275%,70.980392%,61.568627%);stroke-opacity:1;stroke-miterlimit:10;" d="M 215.125 264 L 212.941406 259.871094 L 210.65625 257.875 L 208.539063 257.03125 L 201.5 255.90625 L 197.957031 254.628906 L 195.347656 252.472656 L 190.128906 246.074219 L 188.429688 244.703125 L 186.308594 243.921875 "/>
<path style="fill:none;stroke-width:8;stroke-linecap:round;stroke-linejoin:round;stroke:rgb(75.686275%,70.980392%,61.568627%);stroke-opacity:1;stroke-miterlimit:10;" d="M 264 2.417969 L 242.320313 -9 "/>
<path style="fill:none;stroke-width:8;stroke-linecap:round;stroke-linejoin:round;stroke:rgb(75.686275%,70.980392%,61.568627%);stroke-opacity:1;stroke-miterlimit:10;" d="M 264 170.472656 L 263.644531 168.941406 L 263.691406 165.472656 L 264 164.390625 M 264 103.664063 L 255.445313 99.667969 L 222.820313 82.03125 L 188.542969 63.765625 L 181.390625 59.550781 L 169.109375 53.902344 L 162.773438 51.839844 L 160.371094 50.46875 L 159.207031 49.25 L 155.828125 47.597656 "/>
<path style="fill:none;stroke-width:6;stroke-linecap:round;stroke-linejoin:round;stroke:rgb(100%,100%,100%);stroke-opacity:1;stroke-miterlimit:10;" d="M 215.125 264 L 212.941406 259.871094 L 210.65625 257.875 L 208.539063 257.03125 L 201.5 255.90625 L 197.957031 254.628906 L 195.347656 252.472656 L 190.128906 246.074219 L 188.429688 244.703125 L 186.308594 243.921875 "/>
<path style="fill:none;stroke-width:6;stroke-linecap:round;stroke-linejoin:round;stroke:rgb(100%,100%,100%);stroke-opacity:1;stroke-miterlimit:10;" d="M 264 2.417969 L 242.320313 -9 "/>
<path style="fill:none;stroke-width:6;stroke-linecap:round;stroke-linejoin:round;stroke:rgb(100%,100%,100%);stroke-opacity:1;stroke-miterlimit:10;" d="M 264 170.472656 L 263.644531 168.941406 L 263.691406 165.472656 L 264 164.390625 M 264 103.664063 L 255.445313 99.667969 L 222.820313 82.03125 L 188.542969 63.765625 L 181.390625 59.550781 L 169.109375 53.902344 L 162.773438 51.839844 L 160.371094 50.46875 L 159.207031 49.25 L 155.828125 47.597656 "/>
</g>
</svg>

