<?xml version="1.0" encoding="UTF-8"?>
<svg xmlns="http://www.w3.org/2000/svg" xmlns:xlink="http://www.w3.org/1999/xlink" width="256pt" height="256pt" viewBox="0 0 256 256" version="1.1">
<g id="surface2">
<rect x="0" y="0" width="256" height="256" style="fill:rgb(94.901961%,93.72549%,91.372549%);fill-opacity:1;stroke:none;"/>
<path style=" stroke:none;fill-rule:evenodd;fill:rgb(60%,70.196078%,80%);fill-opacity:1;" d="M -4 -4 L 45.804688 -4 L 81.113281 35.382813 L 103.441406 55.570313 L 131.269531 83.09375 L 149.007813 106.949219 L 165.523438 141.203125 L 212.316406 184.015625 L 242.285156 225.609375 L 259 244.761719 L 259 259 L 259 -4 Z M -4 -4 "/>
<path style="fill:none;stroke-width:1;stroke-linecap:round;stroke-linejoin:round;stroke:rgb(70.196078%,77.647059%,83.137255%);stroke-opacity:1;stroke-miterlimit:10;" d="M -4 -4 L 45.804688 -4 L 81.113281 35.382813 L 103.441406 55.570313 L 131.269531 83.09375 L 149.007813 106.949219 L 165.523438 141.203125 L 212.316406 184.015625 L 242.285156 225.609375 L 259 244.761719 L 259 259 L 259 -4 L -4 -4 "/>
<path style=" stroke:none;fill-rule:evenodd;fill:rgb(60%,70.196078%,80%);fill-opacity:1;" d="M -4 -4 L 45.804688 -4 L 81.113281 35.382813 L 103.441406 55.570313 L 131.269531 83.09375 L 149.007813 106.949219 L 165.523438 141.203125 L 212.316406 184.015625 L 242.285156 225.609375 L 259 244.761719 L 259 259 L 259 -4 Z M -4 -4 "/>
<path style="fill:none;stroke-width:1;stroke-linecap:round;stroke-linejoin:round;stroke:rgb(70.196078%,77.647059%,83.137255%);stroke-opacity:1;stroke-miterlimit:10;" d="M -4 -4 L 45.804688 -4 L 81.113281 35.382813 L 103.441406 55.570313 L 131.269531 83.09375 L 149.007813 106.949219 L 165.523438 141.203125 L 212.316406 184.015625 L 242.285156 225.609375 L 259 244.761719 L 259 259 L 259 -4 L -4 -4 "/>
<path style="fill:none;stroke-width:8;stroke-linecap:round;stroke-linejoin:round;stroke:rgb(75.686275%,70.980392%,61.568627%);stroke-opacity:1;stroke-miterlimit:10;" d="M 228.097656 264 L 213.152344 250.628906 L 204.761719 242.417969 L 179.667969 216.273438 L 155.597656 181.328125 L 128.519531 140.136719 L 124.628906 134.621094 L 119.875 126.933594 L 103.421875 103.875 L 82.101563 71.71875 L 74.574219 60.648438 L 56.355469 33.023438 L 52.394531 27.699219 L 36.175781 3.953125 L 28.089844 -9 "/>
<path style="fill:none;stroke-width:6;stroke-linecap:round;stroke-linejoin:round;stroke:rgb(100%,100%,100%);stroke-opacity:1;stroke-miterlimit:10;" d="M 228.097656 264 L 213.152344 250.628906 L 204.761719 242.417969 L 179.667969 216.273438 L 155.597656 181.328125 L 128.519531 140.136719 L 124.628906 134.621094 L 119.875 126.933594 L 103.421875 103.875 L 82.101563 71.71875 L 74.574219 60.648438 L 56.355469 33.023438 L 52.394531 27.699219 L 36.175781 3.953125 L 28.089844 -9 "/>
<path style="fill:none;stroke-width:3;stroke-linecap:round;stroke-linejoin:round;stroke:rgb(100%,100%,100%);stroke-opacity:1;stroke-miterlimit:10;" d="M 112.003906 108.972656 L 112.582031 109.785156 L 106.785156 113.910156 L 108.816406 116.769531 L 108.082031 117.300781 L 105.472656 113.628906 Z M 112.550781 118.339844 C 112.132813 117.746094 111.769531 117.390625 111.457031 117.277344 C 111.144531 117.164063 110.804688 117.238281 110.441406 117.496094 C 110.167969 117.691406 110.007813 117.9375 109.957031 118.230469 C 109.902344 118.519531 109.980469 118.8125 110.191406 119.105469 C 110.480469 119.511719 110.871094 119.71875 111.363281 119.730469 C 111.851563 119.738281 112.355469 119.5625 112.878906 119.199219 L 113.066406 119.058594 Z M 113.910156 119.542969 L 111.113281 121.542969 L 110.597656 120.824219 L 111.332031 120.292969 C 110.925781 120.34375 110.558594 120.296875 110.238281 120.152344 C 109.925781 120.003906 109.636719 119.75 109.378906 119.386719 C 109.066406 118.9375 108.949219 118.480469 109.035156 118.011719 C 109.128906 117.542969 109.410156 117.144531 109.878906 116.808594 C 110.429688 116.414063 110.960938 116.285156 111.472656 116.417969 C 111.992188 116.542969 112.492188 116.941406 112.972656 117.605469 L 113.691406 118.621094 L 113.769531 118.558594 C 114.144531 118.296875 114.351563 117.984375 114.394531 117.621094 C 114.445313 117.257813 114.332031 116.871094 114.050781 116.464844 C 113.871094 116.226563 113.664063 116.007813 113.425781 115.808594 C 113.183594 115.613281 112.917969 115.457031 112.628906 115.339844 L 113.363281 114.808594 C 113.664063 114.996094 113.929688 115.195313 114.160156 115.402344 C 114.398438 115.613281 114.601563 115.832031 114.769531 116.058594 C 115.226563 116.695313 115.382813 117.300781 115.238281 117.871094 C 115.101563 118.453125 114.660156 119.011719 113.910156 119.542969 Z M 118.964844 118.132813 L 119.496094 118.882813 L 115.464844 121.757813 L 119.121094 122.398438 L 119.777344 123.320313 L 115.824219 122.632813 L 114.949219 126.914063 L 114.277344 125.976563 L 115.074219 122.039063 L 112.683594 123.742188 L 112.152344 122.992188 Z M 120.652344 129.667969 L 120.261719 129.933594 L 118.011719 126.511719 C 117.457031 126.925781 117.125 127.371094 117.011719 127.839844 C 116.90625 128.316406 117.015625 128.800781 117.339844 129.292969 C 117.535156 129.574219 117.761719 129.816406 118.011719 130.027344 C 118.261719 130.246094 118.546875 130.4375 118.871094 130.605469 L 118.105469 131.121094 C 117.792969 130.933594 117.511719 130.722656 117.261719 130.496094 C 117.019531 130.265625 116.808594 130.003906 116.621094 129.714844 C 116.140625 128.996094 115.988281 128.265625 116.167969 127.527344 C 116.355469 126.800781 116.847656 126.175781 117.652344 125.652344 C 118.464844 125.113281 119.246094 124.882813 119.996094 124.964844 C 120.746094 125.050781 121.34375 125.429688 121.792969 126.105469 C 122.199219 126.710938 122.296875 127.328125 122.089844 127.964844 C 121.878906 128.609375 121.402344 129.175781 120.652344 129.667969 Z M 120.417969 128.761719 C 120.863281 128.457031 121.152344 128.109375 121.277344 127.714844 C 121.402344 127.316406 121.34375 126.9375 121.105469 126.574219 C 120.824219 126.160156 120.46875 125.910156 120.042969 125.824219 C 119.613281 125.742188 119.15625 125.839844 118.667969 126.121094 Z M 125.492188 136.144531 C 125.53125 136.363281 125.5 136.621094 125.398438 136.925781 C 125.304688 137.226563 125.121094 137.597656 124.851563 138.035156 L 123.585938 140.066406 L 123.007813 139.207031 L 124.210938 137.285156 C 124.511719 136.792969 124.671875 136.402344 124.695313 136.113281 C 124.714844 135.832031 124.621094 135.527344 124.414063 135.207031 L 123.820313 134.332031 L 121.007813 136.222656 L 120.460938 135.394531 L 127.117188 130.925781 L 128.335938 132.769531 C 128.804688 133.457031 128.992188 134.074219 128.898438 134.613281 C 128.804688 135.164063 128.433594 135.660156 127.789063 136.097656 C 127.371094 136.367188 126.964844 136.507813 126.570313 136.519531 C 126.171875 136.539063 125.8125 136.414063 125.492188 136.144531 Z M 126.929688 132.253906 L 124.570313 133.832031 L 125.242188 134.847656 C 125.511719 135.242188 125.808594 135.472656 126.132813 135.535156 C 126.464844 135.605469 126.824219 135.511719 127.210938 135.253906 C 127.59375 134.992188 127.824219 134.695313 127.898438 134.363281 C 127.96875 134.03125 127.871094 133.667969 127.601563 133.269531 Z M 129.863281 139.847656 C 129.589844 139.453125 129.207031 139.261719 128.707031 139.269531 C 128.207031 139.269531 127.660156 139.46875 127.066406 139.863281 C 126.472656 140.269531 126.082031 140.699219 125.894531 141.160156 C 125.707031 141.617188 125.746094 142.042969 126.019531 142.441406 C 126.289063 142.835938 126.667969 143.035156 127.160156 143.035156 C 127.660156 143.035156 128.207031 142.832031 128.800781 142.425781 C 129.394531 142.027344 129.785156 141.597656 129.972656 141.128906 C 130.167969 140.667969 130.132813 140.246094 129.863281 139.847656 Z M 130.550781 139.378906 C 130.976563 140.015625 131.085938 140.667969 130.878906 141.347656 C 130.667969 142.023438 130.152344 142.636719 129.332031 143.191406 C 128.519531 143.742188 127.753906 143.992188 127.035156 143.941406 C 126.324219 143.898438 125.757813 143.558594 125.332031 142.925781 C 124.894531 142.277344 124.785156 141.613281 125.003906 140.925781 C 125.222656 140.25 125.738281 139.636719 126.550781 139.082031 C 127.371094 138.53125 128.132813 138.28125 128.832031 138.332031 C 129.539063 138.386719 130.113281 138.734375 130.550781 139.378906 Z M 131.503906 146.433594 C 131.105469 145.839844 130.753906 145.472656 130.441406 145.339844 C 130.136719 145.214844 129.804688 145.273438 129.441406 145.511719 C 129.148438 145.699219 128.972656 145.9375 128.910156 146.230469 C 128.855469 146.519531 128.929688 146.8125 129.128906 147.105469 C 129.398438 147.519531 129.777344 147.746094 130.269531 147.777344 C 130.769531 147.816406 131.285156 147.667969 131.816406 147.324219 L 132.003906 147.183594 Z M 132.832031 147.714844 L 129.957031 149.605469 L 129.472656 148.855469 L 130.222656 148.355469 C 129.804688 148.375 129.441406 148.308594 129.128906 148.152344 C 128.824219 147.996094 128.554688 147.734375 128.316406 147.371094 C 128.003906 146.902344 127.898438 146.4375 128.003906 145.980469 C 128.117188 145.519531 128.417969 145.132813 128.910156 144.808594 C 129.472656 144.445313 130.007813 144.339844 130.519531 144.496094 C 131.027344 144.644531 131.507813 145.054688 131.957031 145.730469 L 132.644531 146.777344 L 132.722656 146.714844 C 133.105469 146.464844 133.324219 146.15625 133.378906 145.792969 C 133.441406 145.4375 133.335938 145.054688 133.066406 144.636719 C 132.898438 144.386719 132.699219 144.160156 132.472656 143.949219 C 132.242188 143.742188 131.980469 143.574219 131.691406 143.449219 L 132.457031 142.949219 C 132.746094 143.148438 133.003906 143.355469 133.222656 143.574219 C 133.449219 143.792969 133.644531 144.023438 133.800781 144.261719 C 134.238281 144.917969 134.371094 145.53125 134.207031 146.105469 C 134.050781 146.675781 133.589844 147.214844 132.832031 147.714844 Z M 137.175781 151.296875 L 139.894531 149.515625 L 140.394531 150.25 L 133.410156 154.84375 L 132.910156 154.109375 L 133.660156 153.609375 C 133.253906 153.648438 132.898438 153.597656 132.597656 153.453125 C 132.304688 153.304688 132.050781 153.066406 131.832031 152.734375 C 131.476563 152.179688 131.425781 151.578125 131.675781 150.921875 C 131.925781 150.265625 132.445313 149.679688 133.238281 149.15625 C 134.027344 148.636719 134.777344 148.390625 135.488281 148.421875 C 136.207031 148.445313 136.742188 148.730469 137.097656 149.28125 C 137.316406 149.617188 137.429688 149.949219 137.441406 150.28125 C 137.460938 150.613281 137.371094 150.953125 137.175781 151.296875 Z M 133.753906 149.9375 C 133.148438 150.335938 132.746094 150.75 132.550781 151.1875 C 132.351563 151.632813 132.378906 152.054688 132.628906 152.453125 C 132.898438 152.847656 133.277344 153.046875 133.769531 153.046875 C 134.257813 153.054688 134.804688 152.863281 135.410156 152.46875 C 136.023438 152.0625 136.429688 151.628906 136.628906 151.171875 C 136.824219 150.722656 136.789063 150.304688 136.519531 149.90625 C 136.269531 149.511719 135.898438 149.320313 135.410156 149.328125 C 134.917969 149.328125 134.367188 149.53125 133.753906 149.9375 Z M 133.753906 149.9375 "/>
<path style=" stroke:none;fill-rule:evenodd;fill:rgb(20%,20%,20%);fill-opacity:1;" d="M 112.003906 108.972656 L 112.582031 109.785156 L 106.785156 113.910156 L 108.816406 116.769531 L 108.082031 117.300781 L 105.472656 113.628906 Z M 112.550781 118.339844 C 112.132813 117.746094 111.769531 117.390625 111.457031 117.277344 C 111.144531 117.164063 110.804688 117.238281 110.441406 117.496094 C 110.167969 117.691406 110.007813 117.9375 109.957031 118.230469 C 109.902344 118.519531 109.980469 118.8125 110.191406 119.105469 C 110.480469 119.511719 110.871094 119.71875 111.363281 119.730469 C 111.851563 119.738281 112.355469 119.5625 112.878906 119.199219 L 113.066406 119.058594 Z M 113.910156 119.542969 L 111.113281 121.542969 L 110.597656 120.824219 L 111.332031 120.292969 C 110.925781 120.34375 110.558594 120.296875 110.238281 120.152344 C 109.925781 120.003906 109.636719 119.75 109.378906 119.386719 C 109.066406 118.9375 108.949219 118.480469 109.035156 118.011719 C 109.128906 117.542969 109.410156 117.144531 109.878906 116.808594 C 110.429688 116.414063 110.960938 116.285156 111.472656 116.417969 C 111.992188 116.542969 112.492188 116.941406 112.972656 117.605469 L 113.691406 118.621094 L 113.769531 118.558594 C 114.144531 118.296875 114.351563 117.984375 114.394531 117.621094 C 114.445313 117.257813 114.332031 116.871094 114.050781 116.464844 C 113.871094 116.226563 113.664063 116.007813 113.425781 115.808594 C 113.183594 115.613281 112.917969 115.457031 112.628906 115.339844 L 113.363281 114.808594 C 113.664063 114.996094 113.929688 115.195313 114.160156 115.402344 C 114.398438 115.613281 114.601563 115.832031 114.769531 116.058594 C 115.226563 116.695313 115.382813 117.300781 115.238281 117.871094 C 115.101563 118.453125 114.660156 119.011719 113.910156 119.542969 Z M 118.964844 118.132813 L 119.496094 118.882813 L 115.464844 121.757813 L 119.121094 122.398438 L 119.777344 123.320313 L 115.824219 122.632813 L 114.949219 126.914063 L 114.277344 125.976563 L 115.074219 122.039063 L 112.683594 123.742188 L 112.152344 122.992188 Z M 120.652344 129.667969 L 120.261719 129.933594 L 118.011719 126.511719 C 117.457031 126.925781 117.125 127.371094 117.011719 127.839844 C 116.90625 128.316406 117.015625 128.800781 117.339844 129.292969 C 117.535156 129.574219 117.761719 129.816406 118.011719 130.027344 C 118.261719 130.246094 118.546875 130.4375 118.871094 130.605469 L 118.105469 131.121094 C 117.792969 130.933594 117.511719 130.722656 117.261719 130.496094 C 117.019531 130.265625 116.808594 130.003906 116.621094 129.714844 C 116.140625 128.996094 115.988281 128.265625 116.167969 127.527344 C 116.355469 126.800781 116.847656 126.175781 117.652344 125.652344 C 118.464844 125.113281 119.246094 124.882813 119.996094 124.964844 C 120.746094 125.050781 121.34375 125.429688 121.792969 126.105469 C 122.199219 126.710938 122.296875 127.328125 122.089844 127.964844 C 121.878906 128.609375 121.402344 129.175781 120.652344 129.667969 Z M 120.417969 128.761719 C 120.863281 128.457031 121.152344 128.109375 121.277344 127.714844 C 121.402344 127.316406 121.34375 126.9375 121.105469 126.574219 C 120.824219 126.160156 120.46875 125.910156 120.042969 125.824219 C 119.613281 125.742188 119.15625 125.839844 118.667969 126.121094 Z M 125.492188 136.144531 C 125.53125 136.363281 125.5 136.621094 125.398438 136.925781 C 125.304688 137.226563 125.121094 137.597656 124.851563 138.035156 L 123.585938 140.066406 L 123.007813 139.207031 L 124.210938 137.285156 C 124.511719 136.792969 124.671875 136.402344 124.695313 136.113281 C 124.714844 135.832031 124.621094 135.527344 124.414063 135.207031 L 123.820313 134.332031 L 121.007813 136.222656 L 120.460938 135.394531 L 127.117188 130.925781 L 128.335938 132.769531 C 128.804688 133.457031 128.992188 134.074219 128.898438 134.613281 C 128.804688 135.164063 128.433594 135.660156 127.789063 136.097656 C 127.371094 136.367188 126.964844 136.507813 126.570313 136.519531 C 126.171875 136.539063 125.8125 136.414063 125.492188 136.144531 Z M 126.929688 132.253906 L 124.570313 133.832031 L 125.242188 134.847656 C 125.511719 135.242188 125.808594 135.472656 126.132813 135.535156 C 126.464844 135.605469 126.824219 135.511719 127.210938 135.253906 C 127.59375 134.992188 127.824219 134.695313 127.898438 134.363281 C 127.96875 134.03125 127.871094 133.667969 127.601563 133.269531 Z M 129.863281 139.847656 C 129.589844 139.453125 129.207031 139.261719 128.707031 139.269531 C 128.207031 139.269531 127.660156 139.46875 127.066406 139.863281 C 126.472656 140.269531 126.082031 140.699219 125.894531 141.160156 C 125.707031 141.617188 125.746094 142.042969 126.019531 142.441406 C 126.289063 142.835938 126.667969 143.035156 127.160156 143.035156 C 127.660156 143.035156 128.207031 142.832031 128.800781 142.425781 C 129.394531 142.027344 129.785156 141.597656 129.972656 141.128906 C 130.167969 140.667969 130.132813 140.246094 129.863281 139.847656 Z M 130.550781 139.378906 C 130.976563 140.015625 131.085938 140.667969 130.878906 141.347656 C 130.667969 142.023438 130.152344 142.636719 129.332031 143.191406 C 128.519531 143.742188 127.753906 143.992188 127.035156 143.941406 C 126.324219 143.898438 125.757813 143.558594 125.332031 142.925781 C 124.894531 142.277344 124.785156 141.613281 125.003906 140.925781 C 125.222656 140.25 125.738281 139.636719 126.550781 139.082031 C 127.371094 138.53125 128.132813 138.28125 128.832031 138.332031 C 129.539063 138.386719 130.113281 138.734375 130.550781 139.378906 Z M 131.503906 146.433594 C 131.105469 145.839844 130.753906 145.472656 130.441406 145.339844 C 130.136719 145.214844 129.804688 145.273438 129.441406 145.511719 C 129.148438 145.699219 128.972656 145.9375 128.910156 146.230469 C 128.855469 146.519531 128.929688 146.8125 129.128906 147.105469 C 129.398438 147.519531 129.777344 147.746094 130.269531 147.777344 C 130.769531 147.816406 131.285156 147.667969 131.816406 147.324219 L 132.003906 147.183594 Z M 132.832031 147.714844 L 129.957031 149.605469 L 129.472656 148.855469 L 130.222656 148.355469 C 129.804688 148.375 129.441406 148.308594 129.128906 148.152344 C 128.824219 147.996094 128.554688 147.734375 128.316406 147.371094 C 128.003906 146.902344 127.898438 146.4375 128.003906 145.980469 C 128.117188 145.519531 128.417969 145.132813 128.910156 144.808594 C 129.472656 144.445313 130.007813 144.339844 130.519531 144.496094 C 131.027344 144.644531 131.507813 145.054688 131.957031 145.730469 L 132.644531 146.777344 L 132.722656 146.714844 C 133.105469 146.464844 133.324219 146.15625 133.378906 145.792969 C 133.441406 145.4375 133.335938 145.054688 133.066406 144.636719 C 132.898438 144.386719 132.699219 144.160156 132.472656 143.949219 C 132.242188 143.742188 131.980469 143.574219 131.691406 143.449219 L 132.457031 142.949219 C 132.746094 143.148438 133.003906 143.355469 133.222656 143.574219 C 133.449219 143.792969 133.644531 144.023438 133.800781 144.261719 C 134.238281 144.917969 134.371094 145.53125 134.207031 146.105469 C 134.050781 146.675781 133.589844 147.214844 132.832031 147.714844 Z M 137.175781 151.296875 L 139.894531 149.515625 L 140.394531 150.25 L 133.410156 154.84375 L 132.910156 154.109375 L 133.660156 153.609375 C 133.253906 153.648438 132.898438 153.597656 132.597656 153.453125 C 132.304688 153.304688 132.050781 153.066406 131.832031 152.734375 C 131.476563 152.179688 131.425781 151.578125 131.675781 150.921875 C 131.925781 150.265625 132.445313 149.679688 133.238281 149.15625 C 134.027344 148.636719 134.777344 148.390625 135.488281 148.421875 C 136.207031 148.445313 136.742188 148.730469 137.097656 149.28125 C 137.316406 149.617188 137.429688 149.949219 137.441406 150.28125 C 137.460938 150.613281 137.371094 150.953125 137.175781 151.296875 Z M 133.753906 149.9375 C 133.148438 150.335938 132.746094 150.75 132.550781 151.1875 C 132.351563 151.632813 132.378906 152.054688 132.628906 152.453125 C 132.898438 152.847656 133.277344 153.046875 133.769531 153.046875 C 134.257813 153.054688 134.804688 152.863281 135.410156 152.46875 C 136.023438 152.0625 136.429688 151.628906 136.628906 151.171875 C 136.824219 150.722656 136.789063 150.304688 136.519531 149.90625 C 136.269531 149.511719 135.898438 149.320313 135.410156 149.328125 C 134.917969 149.328125 134.367188 149.53125 133.753906 149.9375 Z M 133.753906 149.9375 "/>
<path style="fill:none;stroke-width:3;stroke-linecap:round;stroke-linejoin:round;stroke:rgb(100%,100%,100%);stroke-opacity:1;stroke-miterlimit:10;" d="M 175.539063 63.476563 L 176.523438 63.476563 L 176.523438 70.585938 L 180.039063 70.585938 L 180.039063 71.492188 L 175.539063 71.492188 Z M 183.117188 66.164063 C 182.636719 66.164063 182.257813 66.375 181.976563 66.789063 C 181.703125 67.207031 181.570313 67.773438 181.570313 68.492188 C 181.570313 69.210938 181.703125 69.78125 181.976563 70.195313 C 182.257813 70.601563 182.636719 70.804688 183.117188 70.804688 C 183.59375 70.804688 183.96875 70.601563 184.242188 70.195313 C 184.523438 69.78125 184.664063 69.210938 184.664063 68.492188 C 184.664063 67.773438 184.523438 67.207031 184.242188 66.789063 C 183.96875 66.375 183.59375 66.164063 183.117188 66.164063 Z M 183.117188 65.335938 C 183.886719 65.335938 184.492188 65.617188 184.929688 66.179688 C 185.375 66.734375 185.601563 67.503906 185.601563 68.492188 C 185.601563 69.472656 185.375 70.242188 184.929688 70.804688 C 184.492188 71.367188 183.886719 71.648438 183.117188 71.648438 C 182.335938 71.648438 181.726563 71.367188 181.289063 70.804688 C 180.851563 70.242188 180.632813 69.472656 180.632813 68.492188 C 180.632813 67.503906 180.851563 66.734375 181.289063 66.179688 C 181.726563 65.617188 182.335938 65.335938 183.117188 65.335938 Z M 186.539063 65.476563 L 187.445313 65.476563 L 188.554688 70.164063 L 189.664063 65.476563 L 190.710938 65.476563 L 191.820313 70.164063 L 192.929688 65.476563 L 193.820313 65.476563 L 192.398438 71.492188 L 191.351563 71.492188 L 190.179688 66.554688 L 189.007813 71.492188 L 187.960938 71.492188 Z M 199.789063 68.242188 L 199.789063 68.726563 L 195.695313 68.726563 C 195.734375 69.40625 195.921875 69.921875 196.257813 70.273438 C 196.589844 70.628906 197.046875 70.804688 197.632813 70.804688 C 197.976563 70.804688 198.304688 70.757813 198.617188 70.664063 C 198.9375 70.570313 199.261719 70.4375 199.585938 70.257813 L 199.585938 71.179688 C 199.261719 71.335938 198.933594 71.453125 198.601563 71.523438 C 198.265625 71.605469 197.929688 71.648438 197.585938 71.648438 C 196.71875 71.648438 196.03125 71.375 195.523438 70.820313 C 195.023438 70.257813 194.773438 69.5 194.773438 68.539063 C 194.773438 67.5625 195.011719 66.785156 195.492188 66.210938 C 195.96875 65.628906 196.617188 65.335938 197.429688 65.335938 C 198.15625 65.335938 198.730469 65.597656 199.148438 66.117188 C 199.574219 66.640625 199.789063 67.347656 199.789063 68.242188 Z M 198.898438 67.945313 C 198.886719 67.40625 198.75 66.972656 198.492188 66.648438 C 198.230469 66.328125 197.882813 66.164063 197.445313 66.164063 C 196.945313 66.164063 196.542969 66.320313 196.242188 66.632813 C 195.9375 66.945313 195.765625 67.382813 195.726563 67.945313 Z M 204.398438 66.398438 C 204.292969 66.335938 204.179688 66.289063 204.054688 66.257813 C 203.9375 66.226563 203.8125 66.210938 203.679688 66.210938 C 203.167969 66.210938 202.777344 66.394531 202.507813 66.757813 C 202.246094 67.125 202.117188 67.644531 202.117188 68.320313 L 202.117188 71.492188 L 201.210938 71.492188 L 201.210938 65.476563 L 202.117188 65.476563 L 202.117188 66.414063 C 202.304688 66.050781 202.542969 65.78125 202.835938 65.601563 C 203.136719 65.425781 203.5 65.335938 203.929688 65.335938 C 203.992188 65.335938 204.058594 65.34375 204.132813 65.351563 C 204.214844 65.351563 204.296875 65.363281 204.382813 65.382813 Z M 165.945313 75.085938 L 165.945313 76.242188 C 165.609375 75.898438 165.257813 75.644531 164.882813 75.476563 C 164.515625 75.3125 164.125 75.226563 163.710938 75.226563 C 162.886719 75.226563 162.25 75.507813 161.804688 76.070313 C 161.367188 76.625 161.148438 77.429688 161.148438 78.492188 C 161.148438 79.546875 161.367188 80.351563 161.804688 80.914063 C 162.25 81.476563 162.886719 81.757813 163.710938 81.757813 C 164.125 81.757813 164.515625 81.675781 164.882813 81.507813 C 165.257813 81.34375 165.609375 81.085938 165.945313 80.742188 L 165.945313 81.867188 C 165.601563 82.128906 165.234375 82.328125 164.851563 82.460938 C 164.476563 82.585938 164.074219 82.648438 163.648438 82.648438 C 162.554688 82.648438 161.695313 82.28125 161.070313 81.539063 C 160.445313 80.789063 160.132813 79.773438 160.132813 78.492188 C 160.132813 77.203125 160.445313 76.1875 161.070313 75.445313 C 161.695313 74.695313 162.554688 74.320313 163.648438 74.320313 C 164.085938 74.320313 164.492188 74.390625 164.867188 74.523438 C 165.25 74.648438 165.609375 74.835938 165.945313 75.085938 Z M 171.914063 78.867188 L 171.914063 82.492188 L 171.023438 82.492188 L 171.023438 78.898438 C 171.023438 78.328125 170.917969 77.898438 170.710938 77.617188 C 170.511719 77.335938 170.214844 77.195313 169.820313 77.195313 C 169.339844 77.195313 168.960938 77.367188 168.679688 77.710938 C 168.40625 78.046875 168.273438 78.503906 168.273438 79.085938 L 168.273438 82.492188 L 167.367188 82.492188 L 167.367188 74.132813 L 168.273438 74.132813 L 168.273438 77.414063 C 168.480469 77.050781 168.726563 76.78125 169.007813 76.601563 C 169.296875 76.425781 169.636719 76.335938 170.023438 76.335938 C 170.636719 76.335938 171.105469 76.550781 171.429688 76.976563 C 171.75 77.40625 171.914063 78.035156 171.914063 78.867188 Z M 176.148438 79.460938 C 175.429688 79.460938 174.929688 79.554688 174.648438 79.742188 C 174.375 79.929688 174.242188 80.242188 174.242188 80.679688 C 174.242188 81.023438 174.34375 81.300781 174.554688 81.507813 C 174.761719 81.71875 175.042969 81.820313 175.398438 81.820313 C 175.898438 81.820313 176.292969 81.628906 176.585938 81.242188 C 176.886719 80.847656 177.039063 80.332031 177.039063 79.695313 L 177.039063 79.460938 Z M 177.929688 79.054688 L 177.929688 82.492188 L 177.039063 82.492188 L 177.039063 81.585938 C 176.828125 81.953125 176.574219 82.222656 176.273438 82.398438 C 175.96875 82.5625 175.601563 82.648438 175.164063 82.648438 C 174.609375 82.648438 174.167969 82.476563 173.835938 82.132813 C 173.511719 81.789063 173.351563 81.328125 173.351563 80.742188 C 173.351563 80.066406 173.554688 79.554688 173.960938 79.210938 C 174.367188 78.867188 174.976563 78.695313 175.789063 78.695313 L 177.039063 78.695313 L 177.039063 78.601563 C 177.039063 78.144531 176.902344 77.789063 176.632813 77.539063 C 176.359375 77.289063 175.980469 77.164063 175.492188 77.164063 C 175.1875 77.164063 174.886719 77.207031 174.585938 77.289063 C 174.292969 77.375 174.011719 77.5 173.742188 77.664063 L 173.742188 76.757813 C 174.074219 76.613281 174.390625 76.507813 174.695313 76.445313 C 174.996094 76.375 175.292969 76.335938 175.585938 76.335938 C 176.367188 76.335938 176.949219 76.5625 177.335938 77.007813 C 177.730469 77.457031 177.929688 78.140625 177.929688 79.054688 Z M 180.632813 74.773438 L 180.632813 76.476563 L 182.460938 76.476563 L 182.460938 77.242188 L 180.632813 77.242188 L 180.632813 80.507813 C 180.632813 81 180.6875 81.316406 180.804688 81.460938 C 180.929688 81.597656 181.179688 81.664063 181.554688 81.664063 L 182.460938 81.664063 L 182.460938 82.492188 L 181.554688 82.492188 C 180.867188 82.492188 180.390625 82.351563 180.132813 82.070313 C 179.871094 81.78125 179.742188 81.257813 179.742188 80.507813 L 179.742188 77.242188 L 179.085938 77.242188 L 179.085938 76.476563 L 179.742188 76.476563 L 179.742188 74.773438 Z M 188.257813 79.242188 L 188.257813 79.726563 L 184.164063 79.726563 C 184.203125 80.40625 184.390625 80.921875 184.726563 81.273438 C 185.058594 81.628906 185.515625 81.804688 186.101563 81.804688 C 186.445313 81.804688 186.773438 81.757813 187.085938 81.664063 C 187.40625 81.570313 187.730469 81.4375 188.054688 81.257813 L 188.054688 82.179688 C 187.730469 82.335938 187.402344 82.453125 187.070313 82.523438 C 186.734375 82.605469 186.398438 82.648438 186.054688 82.648438 C 185.1875 82.648438 184.5 82.375 183.992188 81.820313 C 183.492188 81.257813 183.242188 80.5 183.242188 79.539063 C 183.242188 78.5625 183.480469 77.785156 183.960938 77.210938 C 184.4375 76.628906 185.085938 76.335938 185.898438 76.335938 C 186.625 76.335938 187.199219 76.597656 187.617188 77.117188 C 188.042969 77.640625 188.257813 78.347656 188.257813 79.242188 Z M 187.367188 78.945313 C 187.355469 78.40625 187.21875 77.972656 186.960938 77.648438 C 186.699219 77.328125 186.351563 77.164063 185.914063 77.164063 C 185.414063 77.164063 185.011719 77.320313 184.710938 77.632813 C 184.40625 77.945313 184.234375 78.382813 184.195313 78.945313 Z M 192.179688 79.460938 C 191.460938 79.460938 190.960938 79.554688 190.679688 79.742188 C 190.40625 79.929688 190.273438 80.242188 190.273438 80.679688 C 190.273438 81.023438 190.375 81.300781 190.585938 81.507813 C 190.792969 81.71875 191.074219 81.820313 191.429688 81.820313 C 191.929688 81.820313 192.324219 81.628906 192.617188 81.242188 C 192.917969 80.847656 193.070313 80.332031 193.070313 79.695313 L 193.070313 79.460938 Z M 193.960938 79.054688 L 193.960938 82.492188 L 193.070313 82.492188 L 193.070313 81.585938 C 192.859375 81.953125 192.605469 82.222656 192.304688 82.398438 C 192 82.5625 191.632813 82.648438 191.195313 82.648438 C 190.640625 82.648438 190.199219 82.476563 189.867188 82.132813 C 189.542969 81.789063 189.382813 81.328125 189.382813 80.742188 C 189.382813 80.066406 189.585938 79.554688 189.992188 79.210938 C 190.398438 78.867188 191.007813 78.695313 191.820313 78.695313 L 193.070313 78.695313 L 193.070313 78.601563 C 193.070313 78.144531 192.933594 77.789063 192.664063 77.539063 C 192.390625 77.289063 192.011719 77.164063 191.523438 77.164063 C 191.21875 77.164063 190.917969 77.207031 190.617188 77.289063 C 190.324219 77.375 190.042969 77.5 189.773438 77.664063 L 189.773438 76.757813 C 190.105469 76.613281 190.421875 76.507813 190.726563 76.445313 C 191.027344 76.375 191.324219 76.335938 191.617188 76.335938 C 192.398438 76.335938 192.980469 76.5625 193.367188 77.007813 C 193.761719 77.457031 193.960938 78.140625 193.960938 79.054688 Z M 195.695313 80.117188 L 195.695313 76.476563 L 196.585938 76.476563 L 196.585938 80.085938 C 196.585938 80.648438 196.683594 81.078125 196.882813 81.367188 C 197.078125 81.648438 197.375 81.789063 197.773438 81.789063 C 198.261719 81.789063 198.640625 81.625 198.914063 81.289063 C 199.195313 80.945313 199.335938 80.476563 199.335938 79.882813 L 199.335938 76.476563 L 200.226563 76.476563 L 200.226563 82.492188 L 199.335938 82.492188 L 199.335938 81.570313 C 199.117188 81.9375 198.867188 82.207031 198.585938 82.382813 C 198.304688 82.558594 197.96875 82.648438 197.585938 82.648438 C 196.96875 82.648438 196.5 82.4375 196.179688 82.007813 C 195.855469 81.570313 195.695313 80.941406 195.695313 80.117188 Z M 197.929688 76.335938 Z M 205.632813 79.414063 C 205.632813 78.695313 205.496094 78.144531 205.226563 77.757813 C 204.964844 77.363281 204.589844 77.164063 204.101563 77.164063 C 203.632813 77.164063 203.261719 77.363281 202.992188 77.757813 C 202.730469 78.144531 202.601563 78.695313 202.601563 79.414063 C 202.601563 80.125 202.730469 80.675781 202.992188 81.070313 C 203.261719 81.46875 203.632813 81.664063 204.101563 81.664063 C 204.589844 81.664063 204.964844 81.46875 205.226563 81.070313 C 205.496094 80.675781 205.632813 80.125 205.632813 79.414063 Z M 206.523438 81.742188 C 206.523438 82.773438 206.3125 83.53125 205.898438 84.023438 C 205.492188 84.523438 204.867188 84.773438 204.023438 84.773438 C 203.710938 84.773438 203.414063 84.746094 203.132813 84.695313 C 202.859375 84.640625 202.59375 84.5625 202.335938 84.460938 L 202.335938 83.507813 C 202.59375 83.664063 202.851563 83.777344 203.101563 83.851563 C 203.359375 83.921875 203.621094 83.960938 203.882813 83.960938 C 204.464844 83.960938 204.902344 83.789063 205.195313 83.445313 C 205.484375 83.109375 205.632813 82.605469 205.632813 81.929688 L 205.632813 81.429688 C 205.445313 81.785156 205.203125 82.050781 204.914063 82.226563 C 204.632813 82.40625 204.292969 82.492188 203.898438 82.492188 C 203.230469 82.492188 202.695313 82.210938 202.289063 81.648438 C 201.882813 81.085938 201.679688 80.34375 201.679688 79.414063 C 201.679688 78.488281 201.882813 77.742188 202.289063 77.179688 C 202.695313 76.617188 203.230469 76.335938 203.898438 76.335938 C 204.292969 76.335938 204.632813 76.425781 204.914063 76.601563 C 205.203125 76.769531 205.445313 77.03125 205.632813 77.382813 L 205.632813 76.476563 L 206.523438 76.476563 Z M 210.804688 79.460938 C 210.085938 79.460938 209.585938 79.554688 209.304688 79.742188 C 209.03125 79.929688 208.898438 80.242188 208.898438 80.679688 C 208.898438 81.023438 209 81.300781 209.210938 81.507813 C 209.417969 81.71875 209.699219 81.820313 210.054688 81.820313 C 210.554688 81.820313 210.949219 81.628906 211.242188 81.242188 C 211.542969 80.847656 211.695313 80.332031 211.695313 79.695313 L 211.695313 79.460938 Z M 212.585938 79.054688 L 212.585938 82.492188 L 211.695313 82.492188 L 211.695313 81.585938 C 211.484375 81.953125 211.230469 82.222656 210.929688 82.398438 C 210.625 82.5625 210.257813 82.648438 209.820313 82.648438 C 209.265625 82.648438 208.824219 82.476563 208.492188 82.132813 C 208.167969 81.789063 208.007813 81.328125 208.007813 80.742188 C 208.007813 80.066406 208.210938 79.554688 208.617188 79.210938 C 209.023438 78.867188 209.632813 78.695313 210.445313 78.695313 L 211.695313 78.695313 L 211.695313 78.601563 C 211.695313 78.144531 211.558594 77.789063 211.289063 77.539063 C 211.015625 77.289063 210.636719 77.164063 210.148438 77.164063 C 209.84375 77.164063 209.542969 77.207031 209.242188 77.289063 C 208.949219 77.375 208.667969 77.5 208.398438 77.664063 L 208.398438 76.757813 C 208.730469 76.613281 209.046875 76.507813 209.351563 76.445313 C 209.652344 76.375 209.949219 76.335938 210.242188 76.335938 C 211.023438 76.335938 211.605469 76.5625 211.992188 77.007813 C 212.386719 77.457031 212.585938 78.140625 212.585938 79.054688 Z M 216.664063 83.054688 C 216.414063 83.773438 216.167969 84.234375 215.929688 84.445313 C 215.6875 84.664063 215.371094 84.773438 214.976563 84.773438 L 214.257813 84.773438 L 214.257813 83.960938 L 214.789063 83.960938 C 215.027344 83.960938 215.214844 83.890625 215.351563 83.757813 C 215.484375 83.632813 215.636719 83.328125 215.804688 82.851563 L 215.960938 82.398438 L 213.773438 76.476563 L 214.710938 76.476563 L 216.398438 81.179688 L 218.101563 76.476563 L 219.039063 76.476563 Z M 178.539063 85.476563 L 179.523438 85.476563 L 179.523438 92.585938 L 183.039063 92.585938 L 183.039063 93.492188 L 178.539063 93.492188 Z M 186.476563 90.460938 C 185.757813 90.460938 185.257813 90.554688 184.976563 90.742188 C 184.703125 90.929688 184.570313 91.242188 184.570313 91.679688 C 184.570313 92.023438 184.671875 92.300781 184.882813 92.507813 C 185.089844 92.71875 185.371094 92.820313 185.726563 92.820313 C 186.226563 92.820313 186.621094 92.628906 186.914063 92.242188 C 187.214844 91.847656 187.367188 91.332031 187.367188 90.695313 L 187.367188 90.460938 Z M 188.257813 90.054688 L 188.257813 93.492188 L 187.367188 93.492188 L 187.367188 92.585938 C 187.15625 92.953125 186.902344 93.222656 186.601563 93.398438 C 186.296875 93.5625 185.929688 93.648438 185.492188 93.648438 C 184.9375 93.648438 184.496094 93.476563 184.164063 93.132813 C 183.839844 92.789063 183.679688 92.328125 183.679688 91.742188 C 183.679688 91.066406 183.882813 90.554688 184.289063 90.210938 C 184.695313 89.867188 185.304688 89.695313 186.117188 89.695313 L 187.367188 89.695313 L 187.367188 89.601563 C 187.367188 89.144531 187.230469 88.789063 186.960938 88.539063 C 186.6875 88.289063 186.308594 88.164063 185.820313 88.164063 C 185.515625 88.164063 185.214844 88.207031 184.914063 88.289063 C 184.621094 88.375 184.339844 88.5 184.070313 88.664063 L 184.070313 87.757813 C 184.402344 87.613281 184.71875 87.507813 185.023438 87.445313 C 185.324219 87.375 185.621094 87.335938 185.914063 87.335938 C 186.695313 87.335938 187.277344 87.5625 187.664063 88.007813 C 188.058594 88.457031 188.257813 89.140625 188.257813 90.054688 Z M 190.039063 85.132813 L 190.945313 85.132813 L 190.945313 90.070313 L 193.601563 87.476563 L 194.742188 87.476563 L 191.867188 90.289063 L 194.851563 93.492188 L 193.695313 93.492188 L 190.945313 90.554688 L 190.945313 93.492188 L 190.039063 93.492188 Z M 200.445313 90.242188 L 200.445313 90.726563 L 196.351563 90.726563 C 196.390625 91.40625 196.578125 91.921875 196.914063 92.273438 C 197.246094 92.628906 197.703125 92.804688 198.289063 92.804688 C 198.632813 92.804688 198.960938 92.757813 199.273438 92.664063 C 199.59375 92.570313 199.917969 92.4375 200.242188 92.257813 L 200.242188 93.179688 C 199.917969 93.335938 199.589844 93.453125 199.257813 93.523438 C 198.921875 93.605469 198.585938 93.648438 198.242188 93.648438 C 197.375 93.648438 196.6875 93.375 196.179688 92.820313 C 195.679688 92.257813 195.429688 91.5 195.429688 90.539063 C 195.429688 89.5625 195.667969 88.785156 196.148438 88.210938 C 196.625 87.628906 197.273438 87.335938 198.085938 87.335938 C 198.8125 87.335938 199.386719 87.597656 199.804688 88.117188 C 200.230469 88.640625 200.445313 89.347656 200.445313 90.242188 Z M 199.554688 89.945313 C 199.542969 89.40625 199.40625 88.972656 199.148438 88.648438 C 198.886719 88.328125 198.539063 88.164063 198.101563 88.164063 C 197.601563 88.164063 197.199219 88.320313 196.898438 88.632813 C 196.59375 88.945313 196.421875 89.382813 196.382813 89.945313 Z M 199.554688 89.945313 "/>
<path style=" stroke:none;fill-rule:evenodd;fill:rgb(41.960784%,58.039216%,69.019608%);fill-opacity:1;" d="M 175.539063 63.476563 L 176.523438 63.476563 L 176.523438 70.585938 L 180.039063 70.585938 L 180.039063 71.492188 L 175.539063 71.492188 Z M 183.117188 66.164063 C 182.636719 66.164063 182.257813 66.375 181.976563 66.789063 C 181.703125 67.207031 181.570313 67.773438 181.570313 68.492188 C 181.570313 69.210938 181.703125 69.78125 181.976563 70.195313 C 182.257813 70.601563 182.636719 70.804688 183.117188 70.804688 C 183.59375 70.804688 183.96875 70.601563 184.242188 70.195313 C 184.523438 69.78125 184.664063 69.210938 184.664063 68.492188 C 184.664063 67.773438 184.523438 67.207031 184.242188 66.789063 C 183.96875 66.375 183.59375 66.164063 183.117188 66.164063 Z M 183.117188 65.335938 C 183.886719 65.335938 184.492188 65.617188 184.929688 66.179688 C 185.375 66.734375 185.601563 67.503906 185.601563 68.492188 C 185.601563 69.472656 185.375 70.242188 184.929688 70.804688 C 184.492188 71.367188 183.886719 71.648438 183.117188 71.648438 C 182.335938 71.648438 181.726563 71.367188 181.289063 70.804688 C 180.851563 70.242188 180.632813 69.472656 180.632813 68.492188 C 180.632813 67.503906 180.851563 66.734375 181.289063 66.179688 C 181.726563 65.617188 182.335938 65.335938 183.117188 65.335938 Z M 186.539063 65.476563 L 187.445313 65.476563 L 188.554688 70.164063 L 189.664063 65.476563 L 190.710938 65.476563 L 191.820313 70.164063 L 192.929688 65.476563 L 193.820313 65.476563 L 192.398438 71.492188 L 191.351563 71.492188 L 190.179688 66.554688 L 189.007813 71.492188 L 187.960938 71.492188 Z M 199.789063 68.242188 L 199.789063 68.726563 L 195.695313 68.726563 C 195.734375 69.40625 195.921875 69.921875 196.257813 70.273438 C 196.589844 70.628906 197.046875 70.804688 197.632813 70.804688 C 197.976563 70.804688 198.304688 70.757813 198.617188 70.664063 C 198.9375 70.570313 199.261719 70.4375 199.585938 70.257813 L 199.585938 71.179688 C 199.261719 71.335938 198.933594 71.453125 198.601563 71.523438 C 198.265625 71.605469 197.929688 71.648438 197.585938 71.648438 C 196.71875 71.648438 196.03125 71.375 195.523438 70.820313 C 195.023438 70.257813 194.773438 69.5 194.773438 68.539063 C 194.773438 67.5625 195.011719 66.785156 195.492188 66.210938 C 195.96875 65.628906 196.617188 65.335938 197.429688 65.335938 C 198.15625 65.335938 198.730469 65.597656 199.148438 66.117188 C 199.574219 66.640625 199.789063 67.347656 199.789063 68.242188 Z M 198.898438 67.945313 C 198.886719 67.40625 198.75 66.972656 198.492188 66.648438 C 198.230469 66.328125 197.882813 66.164063 197.445313 66.164063 C 196.945313 66.164063 196.542969 66.320313 196.242188 66.632813 C 195.9375 66.945313 195.765625 67.382813 195.726563 67.945313 Z M 204.398438 66.398438 C 204.292969 66.335938 204.179688 66.289063 204.054688 66.257813 C 203.9375 66.226563 203.8125 66.210938 203.679688 66.210938 C 203.167969 66.210938 202.777344 66.394531 202.507813 66.757813 C 202.246094 67.125 202.117188 67.644531 202.117188 68.320313 L 202.117188 71.492188 L 201.210938 71.492188 L 201.210938 65.476563 L 202.117188 65.476563 L 202.117188 66.414063 C 202.304688 66.050781 202.542969 65.78125 202.835938 65.601563 C 203.136719 65.425781 203.5 65.335938 203.929688 65.335938 C 203.992188 65.335938 204.058594 65.34375 204.132813 65.351563 C 204.214844 65.351563 204.296875 65.363281 204.382813 65.382813 Z M 165.945313 75.085938 L 165.945313 76.242188 C 165.609375 75.898438 165.257813 75.644531 164.882813 75.476563 C 164.515625 75.3125 164.125 75.226563 163.710938 75.226563 C 162.886719 75.226563 162.25 75.507813 161.804688 76.070313 C 161.367188 76.625 161.148438 77.429688 161.148438 78.492188 C 161.148438 79.546875 161.367188 80.351563 161.804688 80.914063 C 162.25 81.476563 162.886719 81.757813 163.710938 81.757813 C 164.125 81.757813 164.515625 81.675781 164.882813 81.507813 C 165.257813 81.34375 165.609375 81.085938 165.945313 80.742188 L 165.945313 81.867188 C 165.601563 82.128906 165.234375 82.328125 164.851563 82.460938 C 164.476563 82.585938 164.074219 82.648438 163.648438 82.648438 C 162.554688 82.648438 161.695313 82.28125 161.070313 81.539063 C 160.445313 80.789063 160.132813 79.773438 160.132813 78.492188 C 160.132813 77.203125 160.445313 76.1875 161.070313 75.445313 C 161.695313 74.695313 162.554688 74.320313 163.648438 74.320313 C 164.085938 74.320313 164.492188 74.390625 164.867188 74.523438 C 165.25 74.648438 165.609375 74.835938 165.945313 75.085938 Z M 171.914063 78.867188 L 171.914063 82.492188 L 171.023438 82.492188 L 171.023438 78.898438 C 171.023438 78.328125 170.917969 77.898438 170.710938 77.617188 C 170.511719 77.335938 170.214844 77.195313 169.820313 77.195313 C 169.339844 77.195313 168.960938 77.367188 168.679688 77.710938 C 168.40625 78.046875 168.273438 78.503906 168.273438 79.085938 L 168.273438 82.492188 L 167.367188 82.492188 L 167.367188 74.132813 L 168.273438 74.132813 L 168.273438 77.414063 C 168.480469 77.050781 168.726563 76.78125 169.007813 76.601563 C 169.296875 76.425781 169.636719 76.335938 170.023438 76.335938 C 170.636719 76.335938 171.105469 76.550781 171.429688 76.976563 C 171.75 77.40625 171.914063 78.035156 171.914063 78.867188 Z M 176.148438 79.460938 C 175.429688 79.460938 174.929688 79.554688 174.648438 79.742188 C 174.375 79.929688 174.242188 80.242188 174.242188 80.679688 C 174.242188 81.023438 174.34375 81.300781 174.554688 81.507813 C 174.761719 81.71875 175.042969 81.820313 175.398438 81.820313 C 175.898438 81.820313 176.292969 81.628906 176.585938 81.242188 C 176.886719 80.847656 177.039063 80.332031 177.039063 79.695313 L 177.039063 79.460938 Z M 177.929688 79.054688 L 177.929688 82.492188 L 177.039063 82.492188 L 177.039063 81.585938 C 176.828125 81.953125 176.574219 82.222656 176.273438 82.398438 C 175.96875 82.5625 175.601563 82.648438 175.164063 82.648438 C 174.609375 82.648438 174.167969 82.476563 173.835938 82.132813 C 173.511719 81.789063 173.351563 81.328125 173.351563 80.742188 C 173.351563 80.066406 173.554688 79.554688 173.960938 79.210938 C 174.367188 78.867188 174.976563 78.695313 175.789063 78.695313 L 177.039063 78.695313 L 177.039063 78.601563 C 177.039063 78.144531 176.902344 77.789063 176.632813 77.539063 C 176.359375 77.289063 175.980469 77.164063 175.492188 77.164063 C 175.1875 77.164063 174.886719 77.207031 174.585938 77.289063 C 174.292969 77.375 174.011719 77.5 173.742188 77.664063 L 173.742188 76.757813 C 174.074219 76.613281 174.390625 76.507813 174.695313 76.445313 C 174.996094 76.375 175.292969 76.335938 175.585938 76.335938 C 176.367188 76.335938 176.949219 76.5625 177.335938 77.007813 C 177.730469 77.457031 177.929688 78.140625 177.929688 79.054688 Z M 180.632813 74.773438 L 180.632813 76.476563 L 182.460938 76.476563 L 182.460938 77.242188 L 180.632813 77.242188 L 180.632813 80.507813 C 180.632813 81 180.6875 81.316406 180.804688 81.460938 C 180.929688 81.597656 181.179688 81.664063 181.554688 81.664063 L 182.460938 81.664063 L 182.460938 82.492188 L 181.554688 82.492188 C 180.867188 82.492188 180.390625 82.351563 180.132813 82.070313 C 179.871094 81.78125 179.742188 81.257813 179.742188 80.507813 L 179.742188 77.242188 L 179.085938 77.242188 L 179.085938 76.476563 L 179.742188 76.476563 L 179.742188 74.773438 Z M 188.257813 79.242188 L 188.257813 79.726563 L 184.164063 79.726563 C 184.203125 80.40625 184.390625 80.921875 184.726563 81.273438 C 185.058594 81.628906 185.515625 81.804688 186.101563 81.804688 C 186.445313 81.804688 186.773438 81.757813 187.085938 81.664063 C 187.40625 81.570313 187.730469 81.4375 188.054688 81.257813 L 188.054688 82.179688 C 187.730469 82.335938 187.402344 82.453125 187.070313 82.523438 C 186.734375 82.605469 186.398438 82.648438 186.054688 82.648438 C 185.1875 82.648438 184.5 82.375 183.992188 81.820313 C 183.492188 81.257813 183.242188 80.5 183.242188 79.539063 C 183.242188 78.5625 183.480469 77.785156 183.960938 77.210938 C 184.4375 76.628906 185.085938 76.335938 185.898438 76.335938 C 186.625 76.335938 187.199219 76.597656 187.617188 77.117188 C 188.042969 77.640625 188.257813 78.347656 188.257813 79.242188 Z M 187.367188 78.945313 C 187.355469 78.40625 187.21875 77.972656 186.960938 77.648438 C 186.699219 77.328125 186.351563 77.164063 185.914063 77.164063 C 185.414063 77.164063 185.011719 77.320313 184.710938 77.632813 C 184.40625 77.945313 184.234375 78.382813 184.195313 78.945313 Z M 192.179688 79.460938 C 191.460938 79.460938 190.960938 79.554688 190.679688 79.742188 C 190.40625 79.929688 190.273438 80.242188 190.273438 80.679688 C 190.273438 81.023438 190.375 81.300781 190.585938 81.507813 C 190.792969 81.71875 191.074219 81.820313 191.429688 81.820313 C 191.929688 81.820313 192.324219 81.628906 192.617188 81.242188 C 192.917969 80.847656 193.070313 80.332031 193.070313 79.695313 L 193.070313 79.460938 Z M 193.960938 79.054688 L 193.960938 82.492188 L 193.070313 82.492188 L 193.070313 81.585938 C 192.859375 81.953125 192.605469 82.222656 192.304688 82.398438 C 192 82.5625 191.632813 82.648438 191.195313 82.648438 C 190.640625 82.648438 190.199219 82.476563 189.867188 82.132813 C 189.542969 81.789063 189.382813 81.328125 189.382813 80.742188 C 189.382813 80.066406 189.585938 79.554688 189.992188 79.210938 C 190.398438 78.867188 191.007813 78.695313 191.820313 78.695313 L 193.070313 78.695313 L 193.070313 78.601563 C 193.070313 78.144531 192.933594 77.789063 192.664063 77.539063 C 192.390625 77.289063 192.011719 77.164063 191.523438 77.164063 C 191.21875 77.164063 190.917969 77.207031 190.617188 77.289063 C 190.324219 77.375 190.042969 77.5 189.773438 77.664063 L 189.773438 76.757813 C 190.105469 76.613281 190.421875 76.507813 190.726563 76.445313 C 191.027344 76.375 191.324219 76.335938 191.617188 76.335938 C 192.398438 76.335938 192.980469 76.5625 193.367188 77.007813 C 193.761719 77.457031 193.960938 78.140625 193.960938 79.054688 Z M 195.695313 80.117188 L 195.695313 76.476563 L 196.585938 76.476563 L 196.585938 80.085938 C 196.585938 80.648438 196.683594 81.078125 196.882813 81.367188 C 197.078125 81.648438 197.375 81.789063 197.773438 81.789063 C 198.261719 81.789063 198.640625 81.625 198.914063 81.289063 C 199.195313 80.945313 199.335938 80.476563 199.335938 79.882813 L 199.335938 76.476563 L 200.226563 76.476563 L 200.226563 82.492188 L 199.335938 82.492188 L 199.335938 81.570313 C 199.117188 81.9375 198.867188 82.207031 198.585938 82.382813 C 198.304688 82.558594 197.96875 82.648438 197.585938 82.648438 C 196.96875 82.648438 196.5 82.4375 196.179688 82.007813 C 195.855469 81.570313 195.695313 80.941406 195.695313 80.117188 Z M 197.929688 76.335938 Z M 205.632813 79.414063 C 205.632813 78.695313 205.496094 78.144531 205.226563 77.757813 C 204.964844 77.363281 204.589844 77.164063 204.101563 77.164063 C 203.632813 77.164063 203.261719 77.363281 202.992188 77.757813 C 202.730469 78.144531 202.601563 78.695313 202.601563 79.414063 C 202.601563 80.125 202.730469 80.675781 202.992188 81.070313 C 203.261719 81.46875 203.632813 81.664063 204.101563 81.664063 C 204.589844 81.664063 204.964844 81.46875 205.226563 81.070313 C 205.496094 80.675781 205.632813 80.125 205.632813 79.414063 Z M 206.523438 81.742188 C 206.523438 82.773438 206.3125 83.53125 205.898438 84.023438 C 205.492188 84.523438 204.867188 84.773438 204.023438 84.773438 C 203.710938 84.773438 203.414063 84.746094 203.132813 84.695313 C 202.859375 84.640625 202.59375 84.5625 202.335938 84.460938 L 202.335938 83.507813 C 202.59375 83.664063 202.851563 83.777344 203.101563 83.851563 C 203.359375 83.921875 203.621094 83.960938 203.882813 83.960938 C 204.464844 83.960938 204.902344 83.789063 205.195313 83.445313 C 205.484375 83.109375 205.632813 82.605469 205.632813 81.929688 L 205.632813 81.429688 C 205.445313 81.785156 205.203125 82.050781 204.914063 82.226563 C 204.632813 82.40625 204.292969 82.492188 203.898438 82.492188 C 203.230469 82.492188 202.695313 82.210938 202.289063 81.648438 C 201.882813 81.085938 201.679688 80.34375 201.679688 79.414063 C 201.679688 78.488281 201.882813 77.742188 202.289063 77.179688 C 202.695313 76.617188 203.230469 76.335938 203.898438 76.335938 C 204.292969 76.335938 204.632813 76.425781 204.914063 76.601563 C 205.203125 76.769531 205.445313 77.03125 205.632813 77.382813 L 205.632813 76.476563 L 206.523438 76.476563 Z M 210.804688 79.460938 C 210.085938 79.460938 209.585938 79.554688 209.304688 79.742188 C 209.03125 79.929688 208.898438 80.242188 208.898438 80.679688 C 208.898438 81.023438 209 81.300781 209.210938 81.507813 C 209.417969 81.71875 209.699219 81.820313 210.054688 81.820313 C 210.554688 81.820313 210.949219 81.628906 211.242188 81.242188 C 211.542969 80.847656 211.695313 80.332031 211.695313 79.695313 L 211.695313 79.460938 Z M 212.585938 79.054688 L 212.585938 82.492188 L 211.695313 82.492188 L 211.695313 81.585938 C 211.484375 81.953125 211.230469 82.222656 210.929688 82.398438 C 210.625 82.5625 210.257813 82.648438 209.820313 82.648438 C 209.265625 82.648438 208.824219 82.476563 208.492188 82.132813 C 208.167969 81.789063 208.007813 81.328125 208.007813 80.742188 C 208.007813 80.066406 208.210938 79.554688 208.617188 79.210938 C 209.023438 78.867188 209.632813 78.695313 210.445313 78.695313 L 211.695313 78.695313 L 211.695313 78.601563 C 211.695313 78.144531 211.558594 77.789063 211.289063 77.539063 C 211.015625 77.289063 210.636719 77.164063 210.148438 77.164063 C 209.84375 77.164063 209.542969 77.207031 209.242188 77.289063 C 208.949219 77.375 208.667969 77.5 208.398438 77.664063 L 208.398438 76.757813 C 208.730469 76.613281 209.046875 76.507813 209.351563 76.445313 C 209.652344 76.375 209.949219 76.335938 210.242188 76.335938 C 211.023438 76.335938 211.605469 76.5625 211.992188 77.007813 C 212.386719 77.457031 212.585938 78.140625 212.585938 79.054688 Z M 216.664063 83.054688 C 216.414063 83.773438 216.167969 84.234375 215.929688 84.445313 C 215.6875 84.664063 215.371094 84.773438 214.976563 84.773438 L 214.257813 84.773438 L 214.257813 83.960938 L 214.789063 83.960938 C 215.027344 83.960938 215.214844 83.890625 215.351563 83.757813 C 215.484375 83.632813 215.636719 83.328125 215.804688 82.851563 L 215.960938 82.398438 L 213.773438 76.476563 L 214.710938 76.476563 L 216.398438 81.179688 L 218.101563 76.476563 L 219.039063 76.476563 Z M 178.539063 85.476563 L 179.523438 85.476563 L 179.523438 92.585938 L 183.039063 92.585938 L 183.039063 93.492188 L 178.539063 93.492188 Z M 186.476563 90.460938 C 185.757813 90.460938 185.257813 90.554688 184.976563 90.742188 C 184.703125 90.929688 184.570313 91.242188 184.570313 91.679688 C 184.570313 92.023438 184.671875 92.300781 184.882813 92.507813 C 185.089844 92.71875 185.371094 92.820313 185.726563 92.820313 C 186.226563 92.820313 186.621094 92.628906 186.914063 92.242188 C 187.214844 91.847656 187.367188 91.332031 187.367188 90.695313 L 187.367188 90.460938 Z M 188.257813 90.054688 L 188.257813 93.492188 L 187.367188 93.492188 L 187.367188 92.585938 C 187.15625 92.953125 186.902344 93.222656 186.601563 93.398438 C 186.296875 93.5625 185.929688 93.648438 185.492188 93.648438 C 184.9375 93.648438 184.496094 93.476563 184.164063 93.132813 C 183.839844 92.789063 183.679688 92.328125 183.679688 91.742188 C 183.679688 91.066406 183.882813 90.554688 184.289063 90.210938 C 184.695313 89.867188 185.304688 89.695313 186.117188 89.695313 L 187.367188 89.695313 L 187.367188 89.601563 C 187.367188 89.144531 187.230469 88.789063 186.960938 88.539063 C 186.6875 88.289063 186.308594 88.164063 185.820313 88.164063 C 185.515625 88.164063 185.214844 88.207031 184.914063 88.289063 C 184.621094 88.375 184.339844 88.5 184.070313 88.664063 L 184.070313 87.757813 C 184.402344 87.613281 184.71875 87.507813 185.023438 87.445313 C 185.324219 87.375 185.621094 87.335938 185.914063 87.335938 C 186.695313 87.335938 187.277344 87.5625 187.664063 88.007813 C 188.058594 88.457031 188.257813 89.140625 188.257813 90.054688 Z M 190.039063 85.132813 L 190.945313 85.132813 L 190.945313 90.070313 L 193.601563 87.476563 L 194.742188 87.476563 L 191.867188 90.289063 L 194.851563 93.492188 L 193.695313 93.492188 L 190.945313 90.554688 L 190.945313 93.492188 L 190.039063 93.492188 Z M 200.445313 90.242188 L 200.445313 90.726563 L 196.351563 90.726563 C 196.390625 91.40625 196.578125 91.921875 196.914063 92.273438 C 197.246094 92.628906 197.703125 92.804688 198.289063 92.804688 C 198.632813 92.804688 198.960938 92.757813 199.273438 92.664063 C 199.59375 92.570313 199.917969 92.4375 200.242188 92.257813 L 200.242188 93.179688 C 199.917969 93.335938 199.589844 93.453125 199.257813 93.523438 C 198.921875 93.605469 198.585938 93.648438 198.242188 93.648438 C 197.375 93.648438 196.6875 93.375 196.179688 92.820313 C 195.679688 92.257813 195.429688 91.5 195.429688 90.539063 C 195.429688 89.5625 195.667969 88.785156 196.148438 88.210938 C 196.625 87.628906 197.273438 87.335938 198.085938 87.335938 C 198.8125 87.335938 199.386719 87.597656 199.804688 88.117188 C 200.230469 88.640625 200.445313 89.347656 200.445313 90.242188 Z M 199.554688 89.945313 C 199.542969 89.40625 199.40625 88.972656 199.148438 88.648438 C 198.886719 88.328125 198.539063 88.164063 198.101563 88.164063 C 197.601563 88.164063 197.199219 88.320313 196.898438 88.632813 C 196.59375 88.945313 196.421875 89.382813 196.382813 89.945313 Z M 199.554688 89.945313 "/>
</g>
</svg>

