<?xml version="1.0" encoding="UTF-8"?>
<svg xmlns="http://www.w3.org/2000/svg" xmlns:xlink="http://www.w3.org/1999/xlink" width="256pt" height="256pt" viewBox="0 0 256 256" version="1.1">
<g id="surface2">
<rect x="0" y="0" width="256" height="256" style="fill:rgb(94.901961%,93.72549%,91.372549%);fill-opacity:1;stroke:none;"/>
<path style="fill:none;stroke-width:8;stroke-linecap:round;stroke-linejoin:round;stroke:rgb(75.686275%,70.980392%,61.568627%);stroke-opacity:1;stroke-miterlimit:10;" d="M 233.84375 -9 L 233.632813 -7.128906 L 231.910156 10.359375 L 231.746094 16.1875 L 231.746094 21.707031 L 232.210938 28.003906 L 233.332031 34.332031 L 234.589844 39.691406 L 235.21875 43.464844 L 235.378906 47.234375 L 234.726563 51.195313 L 231.417969 62.695313 L 228.902344 68.058594 L 228.109375 70.738281 "/>
<path style="fill:none;stroke-width:8;stroke-linecap:round;stroke-linejoin:round;stroke:rgb(75.686275%,70.980392%,61.568627%);stroke-opacity:1;stroke-miterlimit:10;" d="M 245.996094 -9 L 264 5.078125 "/>
<path style="fill:none;stroke-width:6;stroke-linecap:round;stroke-linejoin:round;stroke:rgb(100%,100%,100%);stroke-opacity:1;stroke-miterlimit:10;" d="M 233.84375 -9 L 233.632813 -7.128906 L 231.910156 10.359375 L 231.746094 16.1875 L 231.746094 21.707031 L 232.210938 28.003906 L 233.332031 34.332031 L 234.589844 39.691406 L 235.21875 43.464844 L 235.378906 47.234375 L 234.726563 51.195313 L 231.417969 62.695313 L 228.902344 68.058594 L 228.109375 70.738281 "/>
<path style="fill:none;stroke-width:6;stroke-linecap:round;stroke-linejoin:round;stroke:rgb(100%,100%,100%);stroke-opacity:1;stroke-miterlimit:10;" d="M 245.996094 -9 L 264 5.078125 "/>
</g>
</svg>

