<?xml version="1.0" encoding="UTF-8"?>
<svg xmlns="http://www.w3.org/2000/svg" xmlns:xlink="http://www.w3.org/1999/xlink" width="256pt" height="256pt" viewBox="0 0 256 256" version="1.1">
<g id="surface2">
<rect x="0" y="0" width="256" height="256" style="fill:rgb(94.901961%,93.72549%,91.372549%);fill-opacity:1;stroke:none;"/>
<path style="fill:none;stroke-width:2;stroke-linecap:round;stroke-linejoin:round;stroke:rgb(60%,70.196078%,80%);stroke-opacity:1;stroke-miterlimit:10;" d="M 123.886719 -3 L 99.386719 19.445313 L 83.523438 38.871094 L 71.3125 55.859375 L 60.367188 65.910156 L 51.542969 77.613281 L 42.914063 85.847656 L 32.707031 94.195313 L 25.140625 98.984375 L 20.589844 108.410156 L 22.785156 117.242188 L 29.796875 126.726563 L 35.445313 135.300781 L 32.539063 141.792969 L 22.417969 150.058594 L 10.21875 157.820313 L 0.722656 169.726563 L 1.949219 185.917969 L -3 196.730469 "/>
<path style="fill:none;stroke-width:1;stroke-linecap:round;stroke-linejoin:round;stroke:rgb(100%,100%,100%);stroke-opacity:1;stroke-dasharray:2,3;stroke-miterlimit:10;" d="M 7.136719 205.921875 L 6.136719 204.972656 L 5.699219 203.664063 "/>
<path style="fill:none;stroke-width:1;stroke-linecap:round;stroke-linejoin:round;stroke:rgb(100%,100%,100%);stroke-opacity:1;stroke-dasharray:2,3;stroke-miterlimit:10;" d="M -2 215.375 L 2.152344 212.335938 L 7.136719 205.921875 L 11.53125 200.261719 L 11.53125 194.714844 L 15.425781 190.820313 L 17.433594 181.023438 L 30.414063 170.046875 L 42.046875 172.226563 L 48.457031 161.542969 L 59.140625 157.699219 L 59.996094 147.015625 L 48.90625 135.28125 L 46.746094 128.210938 L 32.859375 120.09375 L 35.421875 102.570313 L 53.15625 84.410156 L 69.183594 73.085938 L 105.023438 38.070313 L 145.054688 -2 "/>
</g>
</svg>

