<?xml version="1.0" encoding="UTF-8"?>
<svg xmlns="http://www.w3.org/2000/svg" xmlns:xlink="http://www.w3.org/1999/xlink" width="256pt" height="256pt" viewBox="0 0 256 256" version="1.1">
<g id="surface2">
<rect x="0" y="0" width="256" height="256" style="fill:rgb(94.901961%,93.72549%,91.372549%);fill-opacity:1;stroke:none;"/>
<path style=" stroke:none;fill-rule:evenodd;fill:rgb(70.980392%,82.352941%,61.176471%);fill-opacity:1;" d="M -4 -4 L -4 260 L 140 260 L 147.75 255.25 L 159.5 184.75 L 160.75 170.25 L 158 159 L 144.5 127.75 L 131.5 105.75 L 125.5 97.25 L 117.5 69 L 118 34.75 L 113.488281 11.25 L 107.75 -0.25 L 103.464844 -4 Z M -4 -4 "/>
<path style=" stroke:none;fill-rule:evenodd;fill:rgb(79.607843%,84.705882%,76.470588%);fill-opacity:1;" d="M -4 260 L -4 253.671875 L 13.96875 226.277344 L 35.078125 205.71875 L 44.796875 189.46875 L 44.796875 180.441406 L 42.578125 170.160156 L 37.160156 152.386719 L 12.71875 162.664063 L 0.773438 166.273438 L -4 166.023438 L -4 129.316406 L 62.023438 118.636719 L 63.410156 134.886719 L 69.523438 142.523438 L 90.078125 158.777344 L 109.796875 137.390625 L 110.636719 128.640625 L 117.582031 115.863281 L 116.328125 99.054688 L 115.636719 87.800781 L 111.050781 65.027344 L 107.023438 49.742188 L 98.96875 34.605469 L 86.050781 17.386719 L 75.910156 4.058594 L 68.574219 -4 L -4 -4 Z M -4 260 "/>
<path style=" stroke:none;fill-rule:evenodd;fill:rgb(94.901961%,93.72549%,91.372549%);fill-opacity:1;" d="M -4 -4 L 99.339844 -4 L 112.90625 9.027344 L 136.40625 1.527344 L 137.789063 -4 Z M -4 -4 "/>
<path style="fill:none;stroke-width:1;stroke-linecap:round;stroke-linejoin:round;stroke:rgb(89.019608%,87.058824%,83.137255%);stroke-opacity:1;stroke-miterlimit:10;" d="M -4 -4 L 99.339844 -4 L 112.90625 9.027344 L 136.40625 1.527344 L 137.789063 -4 L -4 -4 "/>
<path style=" stroke:none;fill-rule:evenodd;fill:rgb(79.607843%,84.705882%,76.470588%);fill-opacity:1;" d="M -4 -4 L 81.367188 -4 L 93.550781 10.167969 L 115.910156 37.25 L 112.296875 11.96875 L 106.046875 -0.113281 L 101.730469 -4 Z M -4 -4 "/>
<path style=" stroke:none;fill-rule:evenodd;fill:rgb(79.607843%,84.705882%,76.470588%);fill-opacity:1;" d="M 134.808594 260 L 145.492188 253.910156 L 147.019531 240.582031 L 137.710938 245.230469 L 109.941406 249.46875 L 73.292969 260 L 32.6875 260 L 29.386719 258.363281 L 28.671875 260 Z M 134.808594 260 "/>
<path style=" stroke:none;fill-rule:evenodd;fill:rgb(87.058824%,82.352941%,67.45098%);fill-opacity:1;" d="M 145.453125 -4 L 147.445313 2.292969 L 147.441406 3.367188 L 149.894531 7.90625 L 149.277344 9.195313 L 153.035156 20.125 L 164.261719 16.542969 L 165.878906 21.640625 L 159.046875 23.820313 L 161.976563 33.0625 L 174.808594 28.96875 L 170.273438 14.652344 L 173.121094 13.742188 L 169.375 1.910156 L 177.972656 -0.835938 L 176.972656 -4 Z M 145.453125 -4 "/>
<path style=" stroke:none;fill-rule:evenodd;fill:rgb(89.803922%,77.647059%,76.470588%);fill-opacity:1;" d="M 184.957031 172.167969 L 185.714844 175.441406 L 193.277344 173.679688 L 194.179688 177.578125 L 187.953125 179.027344 L 189.21875 184.496094 L 195.367188 183.0625 L 196.1875 186.613281 L 188.667969 188.367188 L 189.449219 191.75 L 197.191406 189.949219 L 198.316406 194.820313 L 196.960938 195.132813 L 197.300781 196.59375 L 198.609375 196.289063 L 198.910156 197.59375 L 200.941406 197.121094 L 201.3125 198.734375 L 202.410156 198.476563 L 203.433594 198.921875 L 204.640625 198.738281 L 205.871094 197.941406 L 215.746094 195.394531 L 212.925781 183.207031 L 209.664063 183.96875 L 208.863281 180.5 L 217.984375 178.371094 L 219.292969 178.199219 L 219.0625 177.203125 L 222.246094 176.464844 L 222.515625 177.636719 L 223.855469 177.324219 L 223.582031 176.132813 L 227.691406 175.175781 L 228.054688 174.113281 L 227.328125 170.976563 L 226.539063 170.171875 L 221.199219 171.417969 L 220.703125 169.257813 L 218.128906 169.855469 L 218.628906 172.039063 L 217.660156 171.359375 L 206.195313 174.035156 L 202.703125 174.039063 L 203.226563 176.328125 L 198.566406 177.414063 L 196.5625 172.585938 L 206.417969 170.289063 L 206.003906 168.496094 L 205.128906 167.835938 L 196.042969 169.957031 L 193.460938 158.785156 L 192.734375 155.640625 L 189.449219 156.40625 L 191.199219 163.984375 L 189.390625 164.402344 L 189.742188 165.925781 L 191.511719 165.515625 L 192.632813 170.375 Z M 198.617188 181.347656 L 199.476563 181.148438 L 204.148438 179.949219 L 202.003906 180.722656 L 202.597656 183.355469 L 204.421875 182.941406 L 204.019531 181.136719 L 204.671875 182.273438 L 206.648438 182.542969 L 207.878906 181.519531 L 208.464844 184.140625 L 199.691406 186.128906 Z M 206.429688 175.082031 L 208.398438 174.636719 L 209.429688 179.238281 L 207.464844 179.683594 L 207.167969 178.355469 Z M 206.429688 175.082031 "/>
<path style=" stroke:none;fill-rule:evenodd;fill:rgb(81.960784%,81.568627%,80.392157%);fill-opacity:1;" d="M 140.121094 213.117188 L 150.097656 215.351563 L 156.121094 177.867188 L 145.84375 175.601563 Z M 140.121094 213.117188 "/>
<path style="fill:none;stroke-width:1;stroke-linecap:round;stroke-linejoin:round;stroke:rgb(81.960784%,81.960784%,81.960784%);stroke-opacity:1;stroke-miterlimit:10;" d="M 140.121094 213.117188 L 150.097656 215.351563 L 156.121094 177.867188 L 145.84375 175.601563 L 140.121094 213.117188 "/>
<path style=" stroke:none;fill-rule:evenodd;fill:rgb(81.960784%,81.568627%,80.392157%);fill-opacity:1;" d="M 42.40625 153.167969 L 46.96875 167.480469 L 55.03125 162.855469 L 60.28125 157.027344 L 60.28125 144.355469 L 57.15625 143.980469 L 49.84375 144.476563 L 44.714844 147.152344 Z M 42.40625 153.167969 "/>
<path style="fill:none;stroke-width:1;stroke-linecap:round;stroke-linejoin:round;stroke:rgb(81.960784%,81.960784%,81.960784%);stroke-opacity:1;stroke-miterlimit:10;" d="M 42.40625 153.167969 L 46.96875 167.480469 L 55.03125 162.855469 L 60.28125 157.027344 L 60.28125 144.355469 L 57.15625 143.980469 L 49.84375 144.476563 L 44.714844 147.152344 L 42.40625 153.167969 "/>
<path style=" stroke:none;fill-rule:evenodd;fill:rgb(87.058824%,81.960784%,67.058824%);fill-opacity:1;" d="M 57.023438 231.832031 L 59.242188 237.386719 L 60.773438 242.660156 L 77.300781 237.109375 L 71.050781 219.332031 L 65.773438 220.582031 L 61.742188 223.355469 L 58.96875 227.523438 Z M 57.023438 231.832031 "/>
<path style=" stroke:none;fill-rule:evenodd;fill:rgb(87.058824%,81.960784%,67.058824%);fill-opacity:1;" d="M 87.855469 221.273438 L 88.410156 227.664063 L 89.796875 230.300781 L 107.160156 228.777344 L 100.910156 211.550781 L 93.6875 213.496094 L 88.410156 217.105469 Z M 87.855469 221.273438 "/>
<path style=" stroke:none;fill-rule:evenodd;fill:rgb(87.058824%,81.960784%,67.058824%);fill-opacity:1;" d="M 119.800781 204.050781 L 135.074219 206.410156 L 137.992188 191.273438 L 131.742188 189.609375 L 126.324219 190.582031 L 121.878906 194.050781 L 120.492188 199.46875 Z M 119.800781 204.050781 "/>
<path style=" stroke:none;fill-rule:evenodd;fill:rgb(87.058824%,81.960784%,67.058824%);fill-opacity:1;" d="M 112.574219 215.71875 L 112.992188 220.445313 L 114.378906 224.75 L 129.097656 223.21875 L 127.433594 209.75 L 120.347656 209.75 L 115.347656 212.25 Z M 112.574219 215.71875 "/>
<path style=" stroke:none;fill-rule:evenodd;fill:rgb(87.058824%,81.960784%,67.058824%);fill-opacity:1;" d="M 32.015625 124.332031 L 36.1875 138.914063 L 50.628906 131.136719 L 49.378906 125.71875 L 43.6875 123.636719 L 37.855469 123.492188 Z M 32.015625 124.332031 "/>
<path style=" stroke:none;fill-rule:evenodd;fill:rgb(87.058824%,81.960784%,67.058824%);fill-opacity:1;" d="M 62.660156 260 L 63.289063 260 L 78.476563 255.847656 L 75.785156 245.984375 L 60.007813 250.300781 Z M 62.660156 260 "/>
<path style=" stroke:none;fill-rule:evenodd;fill:rgb(87.058824%,81.960784%,67.058824%);fill-opacity:1;" d="M 38.96875 247.664063 L 40.078125 251.414063 L 54.105469 248.082031 L 49.796875 236.140625 L 43.128906 238.773438 L 39.800781 242.800781 Z M 38.96875 247.664063 "/>
<path style=" stroke:none;fill-rule:evenodd;fill:rgb(87.058824%,81.960784%,67.058824%);fill-opacity:1;" d="M 47.65625 254.738281 L 49 259.664063 L 58.859375 256.972656 L 57.511719 252.042969 Z M 47.65625 254.738281 "/>
<path style="fill:none;stroke-width:1;stroke-linecap:round;stroke-linejoin:round;stroke:rgb(100%,100%,100%);stroke-opacity:1;stroke-dasharray:2,3;stroke-miterlimit:10;" d="M 2.84375 153.726563 L 4.058594 158.945313 "/>
<path style="fill:none;stroke-width:1;stroke-linecap:round;stroke-linejoin:round;stroke:rgb(100%,100%,100%);stroke-opacity:1;stroke-dasharray:2,3;stroke-miterlimit:10;" d="M 46.59375 139.226563 L 49.277344 138.71875 L 53.65625 139.464844 L 57.59375 140.027344 L 61.46875 140.480469 L 64.96875 140.730469 L 70.21875 139.152344 L 73.59375 136.914063 "/>
<path style="fill:none;stroke-width:1;stroke-linecap:round;stroke-linejoin:round;stroke:rgb(100%,100%,100%);stroke-opacity:1;stroke-dasharray:2,3;stroke-miterlimit:10;" d="M 9.863281 107.558594 L 13.363281 97.496094 L 9.113281 85.742188 L 7.113281 65.746094 "/>
<path style="fill:none;stroke-width:1;stroke-linecap:round;stroke-linejoin:round;stroke:rgb(100%,100%,100%);stroke-opacity:1;stroke-dasharray:2,3;stroke-miterlimit:10;" d="M 19.609375 53.746094 L 39.363281 50.996094 L 56.859375 57.746094 L 74.96875 58.203125 "/>
<path style="fill:none;stroke-width:1;stroke-linecap:round;stroke-linejoin:round;stroke:rgb(100%,100%,100%);stroke-opacity:1;stroke-dasharray:2,3;stroke-miterlimit:10;" d="M -2 108.941406 L 2.972656 107.855469 L 8.03125 107.539063 L 9.863281 107.558594 L 12.777344 107.589844 L 16.34375 108.792969 L 19.96875 110.652344 L 22.78125 112.851563 L 25.28125 115.21875 L 27.09375 117.417969 L 30.03125 130.664063 L 32.328125 139.226563 L 37.46875 140.964844 L 46.59375 139.226563 L 45.777344 141.28125 L 43.964844 143.59375 L 41.902344 144.464844 L 40.371094 148.496094 "/>
<path style="fill:none;stroke-width:1;stroke-linecap:round;stroke-linejoin:round;stroke:rgb(100%,100%,100%);stroke-opacity:1;stroke-dasharray:2,3;stroke-miterlimit:10;" d="M -2 180.835938 L -0.628906 179.246094 L 5.59375 172.476563 L 5.347656 167.355469 L 4.058594 158.945313 "/>
<path style="fill:none;stroke-width:1;stroke-linecap:round;stroke-linejoin:round;stroke:rgb(100%,100%,100%);stroke-opacity:1;stroke-dasharray:2,3;stroke-miterlimit:10;" d="M -2 160.433594 L 4.058594 158.945313 L 37.871094 150.621094 L 40.371094 148.496094 L 33.496094 145.871094 L 2.84375 153.726563 L -2 154.964844 "/>
<path style="fill:none;stroke-width:1;stroke-linecap:round;stroke-linejoin:round;stroke:rgb(100%,100%,100%);stroke-opacity:1;stroke-dasharray:2,3;stroke-miterlimit:10;" d="M 59.808594 257 L 57.855469 249.054688 L 125.773438 229.542969 L 131.882813 227.535156 L 140.121094 213.117188 "/>
<path style="fill:none;stroke-width:1;stroke-linecap:round;stroke-linejoin:round;stroke:rgb(100%,100%,100%);stroke-opacity:1;stroke-dasharray:2,3;stroke-miterlimit:10;" d="M -2 68.898438 L 7.113281 65.746094 L 19.609375 53.746094 L 13.113281 40.246094 L 4.859375 37.996094 L -2 33.667969 "/>
<path style="fill:none;stroke-width:1;stroke-linecap:round;stroke-linejoin:round;stroke:rgb(100%,100%,100%);stroke-opacity:1;stroke-dasharray:2,3;stroke-miterlimit:10;" d="M 73.59375 136.914063 L 84.363281 124.242188 L 93.359375 105.746094 L 99.609375 80.496094 L 78.113281 64.746094 L 74.96875 58.203125 L 68.863281 45.496094 L 70.859375 25.742188 L 66.863281 9.246094 L 50.109375 -1.503906 L 48.035156 -2 "/>
<path style="fill:none;stroke-width:8;stroke-linecap:round;stroke-linejoin:round;stroke:rgb(75.686275%,70.980392%,61.568627%);stroke-opacity:1;stroke-miterlimit:10;" d="M 187.773438 198.960938 L 186.785156 199.433594 L 186.03125 200.6875 L 186.210938 202.117188 L 186.851563 202.898438 L 187.84375 203.332031 L 189.21875 203.113281 L 190.105469 202.289063 L 190.429688 201.078125 L 189.679688 199.476563 L 187.773438 198.960938 "/>
<path style="fill:none;stroke-width:8;stroke-linecap:round;stroke-linejoin:round;stroke:rgb(75.686275%,70.980392%,61.568627%);stroke-opacity:1;stroke-miterlimit:10;" d="M 232.90625 170.136719 L 232.566406 174.09375 L 232.074219 178.359375 L 232.074219 184.578125 "/>
<path style="fill:none;stroke-width:8;stroke-linecap:round;stroke-linejoin:round;stroke:rgb(75.686275%,70.980392%,61.568627%);stroke-opacity:1;stroke-miterlimit:10;" d="M 260.496094 173.242188 L 258.472656 177.550781 L 257.296875 180.046875 L 256.257813 181.847656 L 255.285156 183.652344 L 253.277344 186.144531 L 252.027344 188.5 "/>
<path style="fill:none;stroke-width:8;stroke-linecap:round;stroke-linejoin:round;stroke:rgb(75.686275%,70.980392%,61.568627%);stroke-opacity:1;stroke-miterlimit:10;" d="M 175.953125 184.546875 L 179.03125 190.070313 L 179.539063 191.097656 L 181.457031 194.957031 L 184.296875 197.554688 L 186.785156 199.433594 "/>
<path style="fill:none;stroke-width:8;stroke-linecap:round;stroke-linejoin:round;stroke:rgb(75.686275%,70.980392%,61.568627%);stroke-opacity:1;stroke-miterlimit:10;" d="M 175.871094 177.050781 L 179.445313 178.015625 L 182.566406 179.125 L 184.226563 181.550781 L 184.78125 184.597656 L 184.226563 186.746094 L 182.980469 188.480469 L 180.96875 189.933594 L 179.539063 191.097656 "/>
<path style="fill:none;stroke-width:8;stroke-linecap:round;stroke-linejoin:round;stroke:rgb(75.686275%,70.980392%,61.568627%);stroke-opacity:1;stroke-miterlimit:10;" d="M 218.453125 190.949219 L 232.074219 184.578125 L 242.460938 178.503906 L 244.824219 174.988281 "/>
<path style="fill:none;stroke-width:8;stroke-linecap:round;stroke-linejoin:round;stroke:rgb(75.686275%,70.980392%,61.568627%);stroke-opacity:1;stroke-miterlimit:10;" d="M 264 104.960938 L 256.832031 102.109375 L 254.476563 101.171875 L 250.046875 100.714844 "/>
<path style="fill:none;stroke-width:8;stroke-linecap:round;stroke-linejoin:round;stroke:rgb(75.686275%,70.980392%,61.568627%);stroke-opacity:1;stroke-miterlimit:10;" d="M 258.460938 60.074219 L 253.167969 56.121094 L 252.261719 52.765625 L 253.984375 48.050781 L 259.15625 36.523438 L 261.425781 34.253906 L 264 33.183594 "/>
<path style="fill:none;stroke-width:8;stroke-linecap:round;stroke-linejoin:round;stroke:rgb(75.686275%,70.980392%,61.568627%);stroke-opacity:1;stroke-miterlimit:10;" d="M 161.449219 187.945313 L 175.953125 184.546875 L 175.953125 180.117188 L 175.871094 177.050781 L 175.8125 175.058594 L 180.664063 159.054688 L 182.050781 155.867188 L 185.863281 153.714844 L 190.296875 152.746094 L 196.117188 152.609375 L 201.65625 154.757813 L 219.535156 161.199219 L 225.976563 163 L 229.027344 164.527344 L 232.90625 170.136719 L 237.757813 173.117188 L 244.824219 174.988281 L 254.523438 172.980469 L 260.496094 173.242188 L 263.878906 173.394531 L 264 173.449219 M 264 191.699219 L 256.671875 188.21875 "/>
<path style="fill:none;stroke-width:8;stroke-linecap:round;stroke-linejoin:round;stroke:rgb(75.686275%,70.980392%,61.568627%);stroke-opacity:1;stroke-miterlimit:10;" d="M 256.332031 120.289063 L 264 124.007813 M 264 46.445313 L 258.460938 60.074219 L 252.738281 74.15625 L 248.5 86.28125 L 247.796875 90.582031 L 250.046875 100.714844 L 252.671875 112.527344 L 253.957031 117.273438 L 256.332031 120.289063 "/>
<path style="fill:none;stroke-width:10;stroke-linecap:round;stroke-linejoin:round;stroke:rgb(72.941176%,43.137255%,15.294118%);stroke-opacity:1;stroke-miterlimit:10;" d="M 109.972656 143.222656 L 103.375 150.824219 L 97.378906 156.683594 "/>
<path style="fill:none;stroke-width:10;stroke-linecap:round;stroke-linejoin:round;stroke:rgb(72.941176%,43.137255%,15.294118%);stroke-opacity:1;stroke-miterlimit:10;" d="M 204.875 98.851563 L 216.671875 79.652344 "/>
<path style="fill:none;stroke-width:10;stroke-linecap:round;stroke-linejoin:round;stroke:rgb(72.941176%,43.137255%,15.294118%);stroke-opacity:1;stroke-miterlimit:10;" d="M 168.875 141.253906 L 176.273438 134.453125 L 182.472656 128.054688 L 188.472656 121.054688 "/>
<path style="fill:none;stroke-width:10;stroke-linecap:round;stroke-linejoin:round;stroke:rgb(72.941176%,43.137255%,15.294118%);stroke-opacity:1;stroke-miterlimit:10;" d="M 166.972656 139.820313 L 174.472656 134.25 L 181.273438 128.453125 L 188.472656 121.054688 "/>
<path style="fill:none;stroke-width:10;stroke-linecap:round;stroke-linejoin:round;stroke:rgb(72.941176%,43.137255%,15.294118%);stroke-opacity:1;stroke-miterlimit:10;" d="M 223.273438 69.453125 L 230.074219 59.253906 L 236.875 48.050781 L 242.875 37.054688 L 252.207031 19.046875 "/>
<path style="fill:none;stroke-width:10;stroke-linecap:round;stroke-linejoin:round;stroke:rgb(72.941176%,43.137255%,15.294118%);stroke-opacity:1;stroke-miterlimit:10;" d="M 78.800781 3.714844 L 97.972656 31.023438 L 102.570313 38.421875 L 106.371094 45.421875 L 109.773438 52.820313 "/>
<path style="fill:none;stroke-width:10;stroke-linecap:round;stroke-linejoin:round;stroke:rgb(72.941176%,43.137255%,15.294118%);stroke-opacity:1;stroke-miterlimit:10;" d="M 154.773438 95.421875 L 150.773438 97.222656 L 146.972656 98.621094 L 142.972656 99.019531 L 139.171875 98.621094 L 135.972656 97.421875 L 133.175781 95.222656 L 130.574219 92.222656 L 129.375 89.023438 L 129.171875 85.824219 L 130.171875 82.222656 L 132.371094 79.824219 L 135.574219 78.425781 L 138.972656 78.222656 L 142.171875 79.421875 L 162.199219 94.117188 "/>
<path style="fill:none;stroke-width:10;stroke-linecap:round;stroke-linejoin:round;stroke:rgb(72.941176%,43.137255%,15.294118%);stroke-opacity:1;stroke-miterlimit:10;" d="M 85.449219 196.941406 L 95.375 192.023438 L 112.371094 184.421875 L 118.574219 181.222656 L 159.175781 154.625 "/>
<path style="fill:none;stroke-width:10;stroke-linecap:round;stroke-linejoin:round;stroke:rgb(72.941176%,43.137255%,15.294118%);stroke-opacity:1;stroke-miterlimit:10;" d="M 206.972656 100.023438 L 211.371094 96.621094 L 215.972656 94.222656 L 220.773438 93.023438 L 225.175781 93.421875 L 228.773438 95.023438 L 231.773438 98.023438 L 233.375 101.222656 L 234.171875 105.023438 L 233.574219 108.625 L 231.574219 112.421875 L 228.972656 115.222656 L 225.574219 118.023438 L 221.773438 120.019531 L 217.371094 120.824219 L 213.375 120.625 L 209.972656 119.621094 L 186.601563 106.3125 "/>
<path style="fill:none;stroke-width:10;stroke-linecap:round;stroke-linejoin:round;stroke:rgb(72.941176%,43.137255%,15.294118%);stroke-opacity:1;stroke-miterlimit:10;" d="M 169.539063 143.222656 L 174.574219 141.222656 L 180.570313 139.222656 L 186.773438 137.621094 L 192.972656 137.023438 L 198.773438 137.023438 L 205.773438 137.421875 L 212.773438 138.421875 L 220.574219 140.222656 L 227.375 142.421875 L 235.171875 145.421875 L 244.773438 149.824219 L 254.171875 154.625 L 265 160.714844 "/>
<path style="fill:none;stroke-width:10;stroke-linecap:round;stroke-linejoin:round;stroke:rgb(72.941176%,43.137255%,15.294118%);stroke-opacity:1;stroke-miterlimit:10;" d="M 80.230469 172.9375 L 74.140625 177.957031 L 68.84375 182.378906 L 55.042969 192.777344 L 45.84375 200.378906 L 36.175781 209.621094 L 27.042969 219.777344 L 19.84375 228.980469 L 13.042969 239.175781 L 7.246094 249.578125 "/>
<path style="fill:none;stroke-width:10;stroke-linecap:round;stroke-linejoin:round;stroke:rgb(72.941176%,43.137255%,15.294118%);stroke-opacity:1;stroke-miterlimit:10;" d="M 109.773438 52.820313 L 111.773438 59.621094 L 113.574219 67.421875 L 115.171875 75.421875 L 116.773438 83.621094 L 117.972656 91.820313 L 118.972656 102.222656 L 119.574219 113.625 L 119.171875 118.621094 L 118.171875 123.824219 L 115.972656 129.421875 L 113.371094 134.625 L 108.972656 141.425781 L 103.773438 148.625 L 97.378906 156.683594 "/>
<path style="fill:none;stroke-width:10;stroke-linecap:round;stroke-linejoin:round;stroke:rgb(72.941176%,43.137255%,15.294118%);stroke-opacity:1;stroke-miterlimit:10;" d="M 109.773438 52.820313 L 112.574219 60.421875 L 115.375 69.023438 L 120.574219 86.625 L 122.171875 94.023438 L 123.375 102.023438 L 123.972656 110.023438 L 123.972656 118.023438 L 123.375 130.824219 L 123.972656 135.625 L 125.371094 139.621094 L 127.371094 143.222656 L 129.773438 146.222656 L 133.574219 149.222656 L 137.972656 151.222656 L 142.574219 151.824219 L 146.972656 151.421875 "/>
<path style="fill:none;stroke-width:10;stroke-linecap:round;stroke-linejoin:round;stroke:rgb(72.941176%,43.137255%,15.294118%);stroke-opacity:1;stroke-miterlimit:10;" d="M 219.0625 46.777344 L 211.972656 54.023438 L 204.171875 60.421875 L 197.574219 64.421875 L 191.574219 67.222656 L 184.972656 69.222656 L 177.371094 70.625 L 170.972656 71.023438 L 164.171875 70.625 L 157.773438 69.621094 L 151.171875 67.820313 L 144.972656 65.222656 L 138.574219 61.621094 L 132.972656 57.222656 L 108.398438 34.117188 "/>
<path style="fill:none;stroke-width:10;stroke-linecap:round;stroke-linejoin:round;stroke:rgb(72.941176%,43.137255%,15.294118%);stroke-opacity:1;stroke-miterlimit:10;" d="M 257.371094 -11 L 255.671875 -7.347656 L 251.273438 1.050781 L 246.074219 9.652344 L 219.0625 46.777344 L 212.460938 54.777344 L 205.261719 61.976563 L 198.261719 67.976563 L 191.460938 72.976563 L 184.460938 77.378906 "/>
<path style="fill:none;stroke-width:10;stroke-linecap:round;stroke-linejoin:round;stroke:rgb(72.941176%,43.137255%,15.294118%);stroke-opacity:1;stroke-miterlimit:10;" d="M 266 152.414063 L 261.074219 147.652344 L 255.671875 141.253906 L 250.273438 133.652344 L 246.472656 126.453125 L 242.671875 117.652344 L 239.773438 107.625 L 236.773438 97.222656 L 234.171875 90.222656 L 230.371094 83.820313 L 225.773438 78.824219 L 220.773438 75.222656 L 215.972656 73.023438 L 210.773438 72.023438 L 205.175781 72.023438 L 199.574219 73.222656 L 194.773438 75.222656 L 190.773438 77.824219 L 187.375 81.023438 L 184.371094 85.222656 "/>
<path style="fill:none;stroke-width:10;stroke-linecap:round;stroke-linejoin:round;stroke:rgb(72.941176%,43.137255%,15.294118%);stroke-opacity:1;stroke-miterlimit:10;" d="M 14.246094 254.578125 L 20.042969 247.777344 L 26.246094 241.378906 L 32.847656 234.941406 L 39.847656 228.34375 L 46.449219 222.742188 L 53.847656 217.140625 L 61.25 212.339844 L 64.859375 210.175781 L 69.25 207.542969 L 85.449219 196.941406 L 146.648438 158.140625 "/>
<path style="fill:none;stroke-width:10;stroke-linecap:round;stroke-linejoin:round;stroke:rgb(72.941176%,43.137255%,15.294118%);stroke-opacity:1;stroke-miterlimit:10;" d="M 266 151.128906 L 262.273438 146.851563 L 257.273438 140.253906 L 252.875 133.253906 L 249.074219 125.652344 L 245.472656 116.453125 L 242.875 107.253906 L 240.675781 97.253906 L 239.472656 87.253906 L 239.074219 77.851563 L 239.675781 68.652344 L 240.675781 59.453125 L 242.472656 49.453125 L 245.074219 39.652344 L 248.671875 29.253906 L 252.207031 19.046875 L 261.972656 -5.574219 "/>
<path style="fill:none;stroke-width:8;stroke-linecap:round;stroke-linejoin:round;stroke:rgb(75.686275%,70.980392%,61.568627%);stroke-opacity:1;stroke-miterlimit:10;" d="M 147.375 35.824219 L 139.351563 43.289063 "/>
<path style="fill:none;stroke-width:8;stroke-linecap:round;stroke-linejoin:round;stroke:rgb(75.686275%,70.980392%,61.568627%);stroke-opacity:1;stroke-miterlimit:10;" d="M 186.972656 12.222656 L 197.800781 -4.882813 "/>
<path style="fill:none;stroke-width:8;stroke-linecap:round;stroke-linejoin:round;stroke:rgb(75.686275%,70.980392%,61.568627%);stroke-opacity:1;stroke-miterlimit:10;" d="M 187.296875 21.273438 L 200.171875 37.222656 "/>
<path style="fill:none;stroke-width:8;stroke-linecap:round;stroke-linejoin:round;stroke:rgb(75.686275%,70.980392%,61.568627%);stroke-opacity:1;stroke-miterlimit:10;" d="M 74.140625 177.957031 L 64.242188 180.578125 L 60.84375 180.378906 L 57.242188 179.378906 L 53.445313 177.578125 L 49.84375 174.378906 L 46.84375 169.378906 "/>
<path style="fill:none;stroke-width:8;stroke-linecap:round;stroke-linejoin:round;stroke:rgb(75.686275%,70.980392%,61.568627%);stroke-opacity:1;stroke-miterlimit:10;" d="M 224.015625 -9 L 232.378906 8.542969 "/>
<path style="fill:none;stroke-width:8;stroke-linecap:round;stroke-linejoin:round;stroke:rgb(75.686275%,70.980392%,61.568627%);stroke-opacity:1;stroke-miterlimit:10;" d="M 46.84375 169.378906 L 48.644531 175.378906 L 49.445313 180.179688 L 49.644531 184.378906 L 48.84375 189.378906 L 47.042969 194.378906 L 44.445313 198.980469 L 36.175781 209.621094 "/>
<path style="fill:none;stroke-width:8;stroke-linecap:round;stroke-linejoin:round;stroke:rgb(75.686275%,70.980392%,61.568627%);stroke-opacity:1;stroke-miterlimit:10;" d="M 36.175781 209.621094 L 28.84375 216.777344 L 15.84375 230.777344 L 9.246094 238.976563 L 3.996094 247.878906 "/>
<path style="fill:none;stroke-width:8;stroke-linecap:round;stroke-linejoin:round;stroke:rgb(75.686275%,70.980392%,61.568627%);stroke-opacity:1;stroke-miterlimit:10;" d="M 264 200.738281 L 258.480469 201.828125 L 250.574219 203.535156 L 244.878906 204.847656 "/>
<path style="fill:none;stroke-width:8;stroke-linecap:round;stroke-linejoin:round;stroke:rgb(75.686275%,70.980392%,61.568627%);stroke-opacity:1;stroke-miterlimit:10;" d="M 121.839844 -9 L 121.746094 -5.753906 L 121.242188 -3.691406 L 120.425781 -2.507813 L 111.753906 3.496094 "/>
<path style="fill:none;stroke-width:8;stroke-linecap:round;stroke-linejoin:round;stroke:rgb(75.686275%,70.980392%,61.568627%);stroke-opacity:1;stroke-miterlimit:10;" d="M 245.785156 208.535156 L 250.777344 209.371094 L 255.304688 209.527344 L 259.398438 210.914063 L 264 214.476563 "/>
<path style="fill:none;stroke-width:8;stroke-linecap:round;stroke-linejoin:round;stroke:rgb(75.686275%,70.980392%,61.568627%);stroke-opacity:1;stroke-miterlimit:10;" d="M 232.378906 8.542969 L 234.519531 11.113281 L 236.335938 11.742188 L 237.972656 10.988281 L 239.414063 9.730469 L 241.046875 7.097656 L 244.625 -0.5 L 247.449219 -8.976563 L 247.453125 -9 "/>
<path style="fill:none;stroke-width:8;stroke-linecap:round;stroke-linejoin:round;stroke:rgb(75.686275%,70.980392%,61.568627%);stroke-opacity:1;stroke-miterlimit:10;" d="M 21.867188 264 L 26.464844 254.605469 L 35.078125 240.027344 L 50.773438 222.523438 L 64.859375 210.175781 "/>
<path style="fill:none;stroke-width:8;stroke-linecap:round;stroke-linejoin:round;stroke:rgb(75.686275%,70.980392%,61.568627%);stroke-opacity:1;stroke-miterlimit:10;" d="M 46.84375 169.378906 L 45.242188 165.378906 L 43.242188 160.179688 L 41.84375 155.777344 L 41.445313 152.378906 L 42.242188 149.175781 L 44.042969 146.378906 L 46.84375 144.378906 L 50.84375 143.179688 L 57.375 142.824219 L 62.773438 143.222656 L 67.371094 144.222656 L 71.773438 146.621094 L 75.371094 149.421875 L 91.773438 166.621094 L 94.773438 167.824219 L 98.972656 167.824219 L 142.574219 151.824219 "/>
<path style="fill:none;stroke-width:8;stroke-linecap:round;stroke-linejoin:round;stroke:rgb(75.686275%,70.980392%,61.568627%);stroke-opacity:1;stroke-miterlimit:10;" d="M 117.996094 20.90625 L 121.191406 20.074219 L 124.125 19.769531 L 126.644531 19.796875 L 129.183594 20.136719 L 133.191406 21.304688 L 135.800781 22.535156 L 140.179688 25.734375 L 142.835938 28.71875 L 147.375 35.824219 L 151.972656 40.625 L 156.171875 43.222656 L 160.773438 45.222656 L 165.574219 46.621094 L 171.335938 47.664063 L 174.832031 47.757813 L 179.574219 47.421875 L 184.371094 46.820313 L 188.574219 45.621094 L 191.972656 43.824219 L 200.171875 37.222656 L 206.570313 31.820313 L 208.171875 29.222656 L 211.175781 21.621094 L 211.574219 18.023438 L 210 13.917969 L 204.398438 3.519531 L 202 -0.714844 L 200.375 -2.976563 L 197.800781 -4.882813 L 186.972656 -8.378906 L 185.175781 -8.578125 L 183.171875 -8.179688 "/>
<path style="fill:none;stroke-width:8;stroke-linecap:round;stroke-linejoin:round;stroke:rgb(75.686275%,70.980392%,61.568627%);stroke-opacity:1;stroke-miterlimit:10;" d="M 264 248.992188 L 260.699219 261.398438 L 260.035156 264 M 194.238281 264 L 198.820313 244.273438 "/>
<path style="fill:none;stroke-width:9;stroke-linecap:round;stroke-linejoin:round;stroke:rgb(75.686275%,70.980392%,61.568627%);stroke-opacity:1;stroke-miterlimit:10;" d="M 111.753906 3.496094 L 112.40625 4.753906 "/>
<path style="fill:none;stroke-width:9;stroke-linecap:round;stroke-linejoin:round;stroke:rgb(75.686275%,70.980392%,61.568627%);stroke-opacity:1;stroke-miterlimit:10;" d="M 115.527344 11.679688 L 115.964844 13.265625 "/>
<path style="fill:none;stroke-width:9;stroke-linecap:round;stroke-linejoin:round;stroke:rgb(75.686275%,70.980392%,61.568627%);stroke-opacity:1;stroke-miterlimit:10;" d="M 152.574219 240.957031 L 152.175781 244.503906 "/>
<path style="fill:none;stroke-width:9;stroke-linecap:round;stroke-linejoin:round;stroke:rgb(75.686275%,70.980392%,61.568627%);stroke-opacity:1;stroke-miterlimit:10;" d="M 151.082031 253.660156 L 150.488281 258.382813 "/>
<path style="fill:none;stroke-width:9;stroke-linecap:round;stroke-linejoin:round;stroke:rgb(75.686275%,70.980392%,61.568627%);stroke-opacity:1;stroke-miterlimit:10;" d="M 107.773438 -2.324219 L 110.132813 0.5 L 111.753906 3.496094 "/>
<path style="fill:none;stroke-width:9;stroke-linecap:round;stroke-linejoin:round;stroke:rgb(75.686275%,70.980392%,61.568627%);stroke-opacity:1;stroke-miterlimit:10;" d="M 112.40625 4.753906 L 113.59375 7.035156 L 115.527344 11.679688 "/>
<path style="fill:none;stroke-width:9;stroke-linecap:round;stroke-linejoin:round;stroke:rgb(75.686275%,70.980392%,61.568627%);stroke-opacity:1;stroke-miterlimit:10;" d="M 115.964844 13.265625 L 116.648438 15.742188 L 117.996094 20.90625 "/>
<path style="fill:none;stroke-width:9;stroke-linecap:round;stroke-linejoin:round;stroke:rgb(75.686275%,70.980392%,61.568627%);stroke-opacity:1;stroke-miterlimit:10;" d="M 152.175781 244.503906 L 151.082031 253.660156 "/>
<path style="fill:none;stroke-width:9;stroke-linecap:round;stroke-linejoin:round;stroke:rgb(75.686275%,70.980392%,61.568627%);stroke-opacity:1;stroke-miterlimit:10;" d="M 161.449219 187.945313 L 159.816406 197.742188 "/>
<path style="fill:none;stroke-width:9;stroke-linecap:round;stroke-linejoin:round;stroke:rgb(75.686275%,70.980392%,61.568627%);stroke-opacity:1;stroke-miterlimit:10;" d="M 162.675781 177.878906 L 161.449219 187.945313 "/>
<path style="fill:none;stroke-width:9;stroke-linecap:round;stroke-linejoin:round;stroke:rgb(75.686275%,70.980392%,61.568627%);stroke-opacity:1;stroke-miterlimit:10;" d="M 159.859375 247.871094 L 151.082031 253.660156 "/>
<path style="fill:none;stroke-width:9;stroke-linecap:round;stroke-linejoin:round;stroke:rgb(75.686275%,70.980392%,61.568627%);stroke-opacity:1;stroke-miterlimit:10;" d="M 117.996094 20.90625 L 119.371094 27.421875 L 120.175781 32.824219 "/>
<path style="fill:none;stroke-width:9;stroke-linecap:round;stroke-linejoin:round;stroke:rgb(75.686275%,70.980392%,61.568627%);stroke-opacity:1;stroke-miterlimit:10;" d="M 159.816406 197.742188 L 157.75 210.167969 "/>
<path style="fill:none;stroke-width:9;stroke-linecap:round;stroke-linejoin:round;stroke:rgb(75.686275%,70.980392%,61.568627%);stroke-opacity:1;stroke-miterlimit:10;" d="M 159.175781 154.625 L 161.046875 159.941406 L 162.246094 166.140625 L 162.847656 172.140625 L 162.675781 177.878906 "/>
<path style="fill:none;stroke-width:9;stroke-linecap:round;stroke-linejoin:round;stroke:rgb(75.686275%,70.980392%,61.568627%);stroke-opacity:1;stroke-miterlimit:10;" d="M 157.75 210.167969 L 153.488281 235.757813 L 152.574219 240.957031 "/>
<path style="fill:none;stroke-width:9;stroke-linecap:round;stroke-linejoin:round;stroke:rgb(75.686275%,70.980392%,61.568627%);stroke-opacity:1;stroke-miterlimit:10;" d="M 151.082031 253.660156 L 148.414063 255.820313 L 137.128906 263.175781 L 134.035156 265 "/>
<path style="fill:none;stroke-width:9;stroke-linecap:round;stroke-linejoin:round;stroke:rgb(75.686275%,70.980392%,61.568627%);stroke-opacity:1;stroke-miterlimit:10;" d="M 120.175781 67.023438 L 120.972656 73.824219 L 122.375 81.023438 L 124.375 88.023438 L 126.972656 94.222656 L 129.773438 100.222656 L 134.375 107.824219 L 145.574219 125.621094 L 148.972656 131.820313 L 151.773438 137.222656 L 154.773438 143.824219 L 156.972656 149.023438 L 159.175781 154.625 "/>
<path style="fill:none;stroke-width:9;stroke-linecap:round;stroke-linejoin:round;stroke:rgb(75.686275%,70.980392%,61.568627%);stroke-opacity:1;stroke-miterlimit:10;" d="M 265 202.925781 L 260.371094 203.355469 L 253.667969 204.039063 L 244.878906 204.847656 L 234.480469 206.238281 L 222.210938 207.800781 L 213.269531 210.808594 L 207.253906 213.152344 L 199.808594 216.980469 L 190.050781 224.425781 L 179.585938 232.25 L 168.246094 241.113281 L 159.859375 247.871094 "/>
<path style="fill:none;stroke-width:9;stroke-linecap:round;stroke-linejoin:round;stroke:rgb(75.686275%,70.980392%,61.568627%);stroke-opacity:1;stroke-miterlimit:10;" d="M 150.488281 258.382813 L 162.753906 248.757813 L 168.773438 244.207031 L 181.761719 235.277344 L 192.300781 227.398438 L 201.808594 220.148438 L 208.789063 216.558594 L 214.542969 214.3125 L 223.050781 211.453125 L 234.949219 209.9375 L 245.785156 208.535156 L 254.046875 207.746094 L 260.730469 207.066406 L 265 206.511719 "/>
<path style="fill:none;stroke-width:11;stroke-linecap:round;stroke-linejoin:round;stroke:rgb(72.941176%,43.137255%,15.294118%);stroke-opacity:1;stroke-miterlimit:10;" d="M 224.972656 59.621094 L 232.171875 48.824219 L 239.171875 38.023438 L 245.773438 26.222656 L 252.171875 14.621094 L 257.574219 4.222656 L 261.972656 -5.574219 L 264.402344 -12 "/>
<path style="fill:none;stroke-width:11;stroke-linecap:round;stroke-linejoin:round;stroke:rgb(72.941176%,43.137255%,15.294118%);stroke-opacity:1;stroke-miterlimit:10;" d="M 259.214844 -12 L 254.171875 -0.179688 L 247.972656 12.222656 L 241.773438 23.621094 L 234.972656 35.222656 L 227.972656 46.222656 L 220.972656 56.824219 "/>
<path style="fill:none;stroke-width:11;stroke-linecap:round;stroke-linejoin:round;stroke:rgb(72.941176%,43.137255%,15.294118%);stroke-opacity:1;stroke-miterlimit:10;" d="M 13.042969 253.777344 L 18.644531 245.378906 L 25.046875 237.179688 L 32.644531 228.78125 L 40.644531 220.78125 L 48.84375 213.777344 L 57.375 207.421875 L 95.574219 181.425781 "/>
<path style="fill:none;stroke-width:11;stroke-linecap:round;stroke-linejoin:round;stroke:rgb(72.941176%,43.137255%,15.294118%);stroke-opacity:1;stroke-miterlimit:10;" d="M 92.972656 177.421875 L 54.773438 203.421875 L 46.246094 209.78125 L 38.046875 216.777344 L 29.445313 225.179688 L 21.84375 233.578125 L 15.246094 242.179688 L 9.246094 250.777344 "/>
<path style="fill:none;stroke-width:11;stroke-linecap:round;stroke-linejoin:round;stroke:rgb(72.941176%,43.137255%,15.294118%);stroke-opacity:1;stroke-miterlimit:10;" d="M 65.425781 -12 L 70.398438 -6.488281 L 78.800781 3.714844 L 87.800781 14.914063 L 96.601563 26.117188 L 105.199219 36.714844 L 114.199219 46.714844 L 123.597656 57.316406 L 132.800781 67.316406 L 142.199219 76.515625 L 152 85.515625 L 162.199219 94.117188 L 172.199219 101.515625 L 183.199219 109.316406 L 195.199219 117.714844 L 206.199219 125.3125 L 219.601563 133.714844 L 254.199219 153.714844 L 265 160.714844 L 267 162.046875 "/>
<path style="fill:none;stroke-width:11;stroke-linecap:round;stroke-linejoin:round;stroke:rgb(72.941176%,43.137255%,15.294118%);stroke-opacity:1;stroke-miterlimit:10;" d="M 267 157.203125 L 256.199219 150.316406 L 220.800781 129.914063 L 209.800781 122.714844 L 198.597656 114.914063 L 186.601563 106.3125 L 175.597656 97.914063 L 165.597656 89.515625 L 156.199219 81.316406 L 146.199219 72.316406 L 136.199219 62.914063 L 126.597656 53.714844 L 117.199219 43.914063 L 108.398438 34.117188 L 99.800781 23.515625 L 91.398438 12.914063 L 82.796875 1.914063 L 74.597656 -8.285156 L 71.375 -12 "/>
<path style="fill:none;stroke-width:6;stroke-linecap:round;stroke-linejoin:round;stroke:rgb(100%,100%,100%);stroke-opacity:1;stroke-miterlimit:10;" d="M 187.773438 198.960938 L 186.785156 199.433594 L 186.03125 200.6875 L 186.210938 202.117188 L 186.851563 202.898438 L 187.84375 203.332031 L 189.21875 203.113281 L 190.105469 202.289063 L 190.429688 201.078125 L 189.679688 199.476563 L 187.773438 198.960938 "/>
<path style="fill:none;stroke-width:6;stroke-linecap:round;stroke-linejoin:round;stroke:rgb(100%,100%,100%);stroke-opacity:1;stroke-miterlimit:10;" d="M 232.90625 170.136719 L 232.566406 174.09375 L 232.074219 178.359375 L 232.074219 184.578125 "/>
<path style="fill:none;stroke-width:6;stroke-linecap:round;stroke-linejoin:round;stroke:rgb(100%,100%,100%);stroke-opacity:1;stroke-miterlimit:10;" d="M 260.496094 173.242188 L 258.472656 177.550781 L 257.296875 180.046875 L 256.257813 181.847656 L 255.285156 183.652344 L 253.277344 186.144531 L 252.027344 188.5 "/>
<path style="fill:none;stroke-width:6;stroke-linecap:round;stroke-linejoin:round;stroke:rgb(100%,100%,100%);stroke-opacity:1;stroke-miterlimit:10;" d="M 175.953125 184.546875 L 179.03125 190.070313 L 179.539063 191.097656 L 181.457031 194.957031 L 184.296875 197.554688 L 186.785156 199.433594 "/>
<path style="fill:none;stroke-width:6;stroke-linecap:round;stroke-linejoin:round;stroke:rgb(100%,100%,100%);stroke-opacity:1;stroke-miterlimit:10;" d="M 175.871094 177.050781 L 179.445313 178.015625 L 182.566406 179.125 L 184.226563 181.550781 L 184.78125 184.597656 L 184.226563 186.746094 L 182.980469 188.480469 L 180.96875 189.933594 L 179.539063 191.097656 "/>
<path style="fill:none;stroke-width:6;stroke-linecap:round;stroke-linejoin:round;stroke:rgb(100%,100%,100%);stroke-opacity:1;stroke-miterlimit:10;" d="M 218.453125 190.949219 L 232.074219 184.578125 L 242.460938 178.503906 L 244.824219 174.988281 "/>
<path style="fill:none;stroke-width:6;stroke-linecap:round;stroke-linejoin:round;stroke:rgb(100%,100%,100%);stroke-opacity:1;stroke-miterlimit:10;" d="M 264 104.960938 L 256.832031 102.109375 L 254.476563 101.171875 L 250.046875 100.714844 "/>
<path style="fill:none;stroke-width:6;stroke-linecap:round;stroke-linejoin:round;stroke:rgb(100%,100%,100%);stroke-opacity:1;stroke-miterlimit:10;" d="M 258.460938 60.074219 L 253.167969 56.121094 L 252.261719 52.765625 L 253.984375 48.050781 L 259.15625 36.523438 L 261.425781 34.253906 L 264 33.183594 "/>
<path style="fill:none;stroke-width:6;stroke-linecap:round;stroke-linejoin:round;stroke:rgb(100%,100%,100%);stroke-opacity:1;stroke-miterlimit:10;" d="M 161.449219 187.945313 L 175.953125 184.546875 L 175.953125 180.117188 L 175.871094 177.050781 L 175.8125 175.058594 L 180.664063 159.054688 L 182.050781 155.867188 L 185.863281 153.714844 L 190.296875 152.746094 L 196.117188 152.609375 L 201.65625 154.757813 L 219.535156 161.199219 L 225.976563 163 L 229.027344 164.527344 L 232.90625 170.136719 L 237.757813 173.117188 L 244.824219 174.988281 L 254.523438 172.980469 L 260.496094 173.242188 L 263.878906 173.394531 L 264 173.449219 M 264 191.699219 L 256.671875 188.21875 "/>
<path style="fill:none;stroke-width:6;stroke-linecap:round;stroke-linejoin:round;stroke:rgb(100%,100%,100%);stroke-opacity:1;stroke-miterlimit:10;" d="M 256.332031 120.289063 L 264 124.007813 M 264 46.445313 L 258.460938 60.074219 L 252.738281 74.15625 L 248.5 86.28125 L 247.796875 90.582031 L 250.046875 100.714844 L 252.671875 112.527344 L 253.957031 117.273438 L 256.332031 120.289063 "/>
<path style="fill:none;stroke-width:8;stroke-linecap:round;stroke-linejoin:round;stroke:rgb(99.215686%,57.254902%,22.745098%);stroke-opacity:1;stroke-miterlimit:10;" d="M 109.972656 143.222656 L 103.375 150.824219 L 97.378906 156.683594 "/>
<path style="fill:none;stroke-width:8;stroke-linecap:round;stroke-linejoin:round;stroke:rgb(99.215686%,57.254902%,22.745098%);stroke-opacity:1;stroke-miterlimit:10;" d="M 204.875 98.851563 L 216.671875 79.652344 "/>
<path style="fill:none;stroke-width:8;stroke-linecap:round;stroke-linejoin:round;stroke:rgb(99.215686%,57.254902%,22.745098%);stroke-opacity:1;stroke-miterlimit:10;" d="M 168.875 141.253906 L 176.273438 134.453125 L 182.472656 128.054688 L 188.472656 121.054688 "/>
<path style="fill:none;stroke-width:8;stroke-linecap:round;stroke-linejoin:round;stroke:rgb(99.215686%,57.254902%,22.745098%);stroke-opacity:1;stroke-miterlimit:10;" d="M 166.972656 139.820313 L 174.472656 134.25 L 181.273438 128.453125 L 188.472656 121.054688 "/>
<path style="fill:none;stroke-width:8;stroke-linecap:round;stroke-linejoin:round;stroke:rgb(99.215686%,57.254902%,22.745098%);stroke-opacity:1;stroke-miterlimit:10;" d="M 223.273438 69.453125 L 230.074219 59.253906 L 236.875 48.050781 L 242.875 37.054688 L 252.207031 19.046875 "/>
<path style="fill:none;stroke-width:8;stroke-linecap:round;stroke-linejoin:round;stroke:rgb(99.215686%,57.254902%,22.745098%);stroke-opacity:1;stroke-miterlimit:10;" d="M 78.800781 3.714844 L 97.972656 31.023438 L 102.570313 38.421875 L 106.371094 45.421875 L 109.773438 52.820313 "/>
<path style="fill:none;stroke-width:8;stroke-linecap:round;stroke-linejoin:round;stroke:rgb(99.215686%,57.254902%,22.745098%);stroke-opacity:1;stroke-miterlimit:10;" d="M 154.773438 95.421875 L 150.773438 97.222656 L 146.972656 98.621094 L 142.972656 99.019531 L 139.171875 98.621094 L 135.972656 97.421875 L 133.175781 95.222656 L 130.574219 92.222656 L 129.375 89.023438 L 129.171875 85.824219 L 130.171875 82.222656 L 132.371094 79.824219 L 135.574219 78.425781 L 138.972656 78.222656 L 142.171875 79.421875 L 162.199219 94.117188 "/>
<path style="fill:none;stroke-width:8;stroke-linecap:round;stroke-linejoin:round;stroke:rgb(99.215686%,57.254902%,22.745098%);stroke-opacity:1;stroke-miterlimit:10;" d="M 85.449219 196.941406 L 95.375 192.023438 L 112.371094 184.421875 L 118.574219 181.222656 L 159.175781 154.625 "/>
<path style="fill:none;stroke-width:8;stroke-linecap:round;stroke-linejoin:round;stroke:rgb(99.215686%,57.254902%,22.745098%);stroke-opacity:1;stroke-miterlimit:10;" d="M 206.972656 100.023438 L 211.371094 96.621094 L 215.972656 94.222656 L 220.773438 93.023438 L 225.175781 93.421875 L 228.773438 95.023438 L 231.773438 98.023438 L 233.375 101.222656 L 234.171875 105.023438 L 233.574219 108.625 L 231.574219 112.421875 L 228.972656 115.222656 L 225.574219 118.023438 L 221.773438 120.019531 L 217.371094 120.824219 L 213.375 120.625 L 209.972656 119.621094 L 186.601563 106.3125 "/>
<path style="fill:none;stroke-width:8;stroke-linecap:round;stroke-linejoin:round;stroke:rgb(99.215686%,57.254902%,22.745098%);stroke-opacity:1;stroke-miterlimit:10;" d="M 169.539063 143.222656 L 174.574219 141.222656 L 180.570313 139.222656 L 186.773438 137.621094 L 192.972656 137.023438 L 198.773438 137.023438 L 205.773438 137.421875 L 212.773438 138.421875 L 220.574219 140.222656 L 227.375 142.421875 L 235.171875 145.421875 L 244.773438 149.824219 L 254.171875 154.625 L 265 160.714844 "/>
<path style="fill:none;stroke-width:8;stroke-linecap:round;stroke-linejoin:round;stroke:rgb(99.215686%,57.254902%,22.745098%);stroke-opacity:1;stroke-miterlimit:10;" d="M 80.230469 172.9375 L 74.140625 177.957031 L 68.84375 182.378906 L 55.042969 192.777344 L 45.84375 200.378906 L 36.175781 209.621094 L 27.042969 219.777344 L 19.84375 228.980469 L 13.042969 239.175781 L 7.246094 249.578125 "/>
<path style="fill:none;stroke-width:8;stroke-linecap:round;stroke-linejoin:round;stroke:rgb(99.215686%,57.254902%,22.745098%);stroke-opacity:1;stroke-miterlimit:10;" d="M 109.773438 52.820313 L 111.773438 59.621094 L 113.574219 67.421875 L 115.171875 75.421875 L 116.773438 83.621094 L 117.972656 91.820313 L 118.972656 102.222656 L 119.574219 113.625 L 119.171875 118.621094 L 118.171875 123.824219 L 115.972656 129.421875 L 113.371094 134.625 L 108.972656 141.425781 L 103.773438 148.625 L 97.378906 156.683594 "/>
<path style="fill:none;stroke-width:8;stroke-linecap:round;stroke-linejoin:round;stroke:rgb(99.215686%,57.254902%,22.745098%);stroke-opacity:1;stroke-miterlimit:10;" d="M 109.773438 52.820313 L 112.574219 60.421875 L 115.375 69.023438 L 120.574219 86.625 L 122.171875 94.023438 L 123.375 102.023438 L 123.972656 110.023438 L 123.972656 118.023438 L 123.375 130.824219 L 123.972656 135.625 L 125.371094 139.621094 L 127.371094 143.222656 L 129.773438 146.222656 L 133.574219 149.222656 L 137.972656 151.222656 L 142.574219 151.824219 L 146.972656 151.421875 "/>
<path style="fill:none;stroke-width:8;stroke-linecap:round;stroke-linejoin:round;stroke:rgb(99.215686%,57.254902%,22.745098%);stroke-opacity:1;stroke-miterlimit:10;" d="M 219.0625 46.777344 L 211.972656 54.023438 L 204.171875 60.421875 L 197.574219 64.421875 L 191.574219 67.222656 L 184.972656 69.222656 L 177.371094 70.625 L 170.972656 71.023438 L 164.171875 70.625 L 157.773438 69.621094 L 151.171875 67.820313 L 144.972656 65.222656 L 138.574219 61.621094 L 132.972656 57.222656 L 108.398438 34.117188 "/>
<path style="fill:none;stroke-width:8;stroke-linecap:round;stroke-linejoin:round;stroke:rgb(99.215686%,57.254902%,22.745098%);stroke-opacity:1;stroke-miterlimit:10;" d="M 257.371094 -11 L 255.671875 -7.347656 L 251.273438 1.050781 L 246.074219 9.652344 L 219.0625 46.777344 L 212.460938 54.777344 L 205.261719 61.976563 L 198.261719 67.976563 L 191.460938 72.976563 L 184.460938 77.378906 "/>
<path style="fill:none;stroke-width:8;stroke-linecap:round;stroke-linejoin:round;stroke:rgb(99.215686%,57.254902%,22.745098%);stroke-opacity:1;stroke-miterlimit:10;" d="M 266 152.414063 L 261.074219 147.652344 L 255.671875 141.253906 L 250.273438 133.652344 L 246.472656 126.453125 L 242.671875 117.652344 L 239.773438 107.625 L 236.773438 97.222656 L 234.171875 90.222656 L 230.371094 83.820313 L 225.773438 78.824219 L 220.773438 75.222656 L 215.972656 73.023438 L 210.773438 72.023438 L 205.175781 72.023438 L 199.574219 73.222656 L 194.773438 75.222656 L 190.773438 77.824219 L 187.375 81.023438 L 184.371094 85.222656 "/>
<path style="fill:none;stroke-width:8;stroke-linecap:round;stroke-linejoin:round;stroke:rgb(99.215686%,57.254902%,22.745098%);stroke-opacity:1;stroke-miterlimit:10;" d="M 14.246094 254.578125 L 20.042969 247.777344 L 26.246094 241.378906 L 32.847656 234.941406 L 39.847656 228.34375 L 46.449219 222.742188 L 53.847656 217.140625 L 61.25 212.339844 L 64.859375 210.175781 L 69.25 207.542969 L 85.449219 196.941406 L 146.648438 158.140625 "/>
<path style="fill:none;stroke-width:8;stroke-linecap:round;stroke-linejoin:round;stroke:rgb(99.215686%,57.254902%,22.745098%);stroke-opacity:1;stroke-miterlimit:10;" d="M 266 151.128906 L 262.273438 146.851563 L 257.273438 140.253906 L 252.875 133.253906 L 249.074219 125.652344 L 245.472656 116.453125 L 242.875 107.253906 L 240.675781 97.253906 L 239.472656 87.253906 L 239.074219 77.851563 L 239.675781 68.652344 L 240.675781 59.453125 L 242.472656 49.453125 L 245.074219 39.652344 L 248.671875 29.253906 L 252.207031 19.046875 L 261.972656 -5.574219 "/>
<path style="fill:none;stroke-width:6;stroke-linecap:round;stroke-linejoin:round;stroke:rgb(100%,100%,100%);stroke-opacity:1;stroke-miterlimit:10;" d="M 147.375 35.824219 L 139.351563 43.289063 "/>
<path style="fill:none;stroke-width:6;stroke-linecap:round;stroke-linejoin:round;stroke:rgb(100%,100%,100%);stroke-opacity:1;stroke-miterlimit:10;" d="M 186.972656 12.222656 L 197.800781 -4.882813 "/>
<path style="fill:none;stroke-width:6;stroke-linecap:round;stroke-linejoin:round;stroke:rgb(100%,100%,100%);stroke-opacity:1;stroke-miterlimit:10;" d="M 187.296875 21.273438 L 200.171875 37.222656 "/>
<path style="fill:none;stroke-width:6;stroke-linecap:round;stroke-linejoin:round;stroke:rgb(100%,100%,100%);stroke-opacity:1;stroke-miterlimit:10;" d="M 74.140625 177.957031 L 64.242188 180.578125 L 60.84375 180.378906 L 57.242188 179.378906 L 53.445313 177.578125 L 49.84375 174.378906 L 46.84375 169.378906 "/>
<path style="fill:none;stroke-width:6;stroke-linecap:round;stroke-linejoin:round;stroke:rgb(100%,100%,100%);stroke-opacity:1;stroke-miterlimit:10;" d="M 224.015625 -9 L 232.378906 8.542969 "/>
<path style="fill:none;stroke-width:6;stroke-linecap:round;stroke-linejoin:round;stroke:rgb(100%,100%,100%);stroke-opacity:1;stroke-miterlimit:10;" d="M 46.84375 169.378906 L 48.644531 175.378906 L 49.445313 180.179688 L 49.644531 184.378906 L 48.84375 189.378906 L 47.042969 194.378906 L 44.445313 198.980469 L 36.175781 209.621094 "/>
<path style="fill:none;stroke-width:6;stroke-linecap:round;stroke-linejoin:round;stroke:rgb(100%,100%,100%);stroke-opacity:1;stroke-miterlimit:10;" d="M 36.175781 209.621094 L 28.84375 216.777344 L 15.84375 230.777344 L 9.246094 238.976563 L 3.996094 247.878906 "/>
<path style="fill:none;stroke-width:6;stroke-linecap:round;stroke-linejoin:round;stroke:rgb(100%,100%,100%);stroke-opacity:1;stroke-miterlimit:10;" d="M 264 200.738281 L 258.480469 201.828125 L 250.574219 203.535156 L 244.878906 204.847656 "/>
<path style="fill:none;stroke-width:6;stroke-linecap:round;stroke-linejoin:round;stroke:rgb(100%,100%,100%);stroke-opacity:1;stroke-miterlimit:10;" d="M 121.839844 -9 L 121.746094 -5.753906 L 121.242188 -3.691406 L 120.425781 -2.507813 L 111.753906 3.496094 "/>
<path style="fill:none;stroke-width:6;stroke-linecap:round;stroke-linejoin:round;stroke:rgb(100%,100%,100%);stroke-opacity:1;stroke-miterlimit:10;" d="M 245.785156 208.535156 L 250.777344 209.371094 L 255.304688 209.527344 L 259.398438 210.914063 L 264 214.476563 "/>
<path style="fill:none;stroke-width:6;stroke-linecap:round;stroke-linejoin:round;stroke:rgb(100%,100%,100%);stroke-opacity:1;stroke-miterlimit:10;" d="M 232.378906 8.542969 L 234.519531 11.113281 L 236.335938 11.742188 L 237.972656 10.988281 L 239.414063 9.730469 L 241.046875 7.097656 L 244.625 -0.5 L 247.449219 -8.976563 L 247.453125 -9 "/>
<path style="fill:none;stroke-width:6;stroke-linecap:round;stroke-linejoin:round;stroke:rgb(100%,100%,100%);stroke-opacity:1;stroke-miterlimit:10;" d="M 21.867188 264 L 26.464844 254.605469 L 35.078125 240.027344 L 50.773438 222.523438 L 64.859375 210.175781 "/>
<path style="fill:none;stroke-width:6;stroke-linecap:round;stroke-linejoin:round;stroke:rgb(100%,100%,100%);stroke-opacity:1;stroke-miterlimit:10;" d="M 46.84375 169.378906 L 45.242188 165.378906 L 43.242188 160.179688 L 41.84375 155.777344 L 41.445313 152.378906 L 42.242188 149.175781 L 44.042969 146.378906 L 46.84375 144.378906 L 50.84375 143.179688 L 57.375 142.824219 L 62.773438 143.222656 L 67.371094 144.222656 L 71.773438 146.621094 L 75.371094 149.421875 L 91.773438 166.621094 L 94.773438 167.824219 L 98.972656 167.824219 L 142.574219 151.824219 "/>
<path style="fill:none;stroke-width:6;stroke-linecap:round;stroke-linejoin:round;stroke:rgb(100%,100%,100%);stroke-opacity:1;stroke-miterlimit:10;" d="M 117.996094 20.90625 L 121.191406 20.074219 L 124.125 19.769531 L 126.644531 19.796875 L 129.183594 20.136719 L 133.191406 21.304688 L 135.800781 22.535156 L 140.179688 25.734375 L 142.835938 28.71875 L 147.375 35.824219 L 151.972656 40.625 L 156.171875 43.222656 L 160.773438 45.222656 L 165.574219 46.621094 L 171.335938 47.664063 L 174.832031 47.757813 L 179.574219 47.421875 L 184.371094 46.820313 L 188.574219 45.621094 L 191.972656 43.824219 L 200.171875 37.222656 L 206.570313 31.820313 L 208.171875 29.222656 L 211.175781 21.621094 L 211.574219 18.023438 L 210 13.917969 L 204.398438 3.519531 L 202 -0.714844 L 200.375 -2.976563 L 197.800781 -4.882813 L 186.972656 -8.378906 L 185.175781 -8.578125 L 183.171875 -8.179688 "/>
<path style="fill:none;stroke-width:6;stroke-linecap:round;stroke-linejoin:round;stroke:rgb(100%,100%,100%);stroke-opacity:1;stroke-miterlimit:10;" d="M 264 248.992188 L 260.699219 261.398438 L 260.035156 264 M 194.238281 264 L 198.820313 244.273438 "/>
<path style="fill:none;stroke-width:7;stroke-linecap:round;stroke-linejoin:round;stroke:rgb(100%,99.215686%,54.509804%);stroke-opacity:1;stroke-miterlimit:10;" d="M 111.753906 3.496094 L 112.40625 4.753906 "/>
<path style="fill:none;stroke-width:7;stroke-linecap:round;stroke-linejoin:round;stroke:rgb(100%,99.215686%,54.509804%);stroke-opacity:1;stroke-miterlimit:10;" d="M 115.527344 11.679688 L 115.964844 13.265625 "/>
<path style="fill:none;stroke-width:7;stroke-linecap:round;stroke-linejoin:round;stroke:rgb(100%,99.215686%,54.509804%);stroke-opacity:1;stroke-miterlimit:10;" d="M 152.574219 240.957031 L 152.175781 244.503906 "/>
<path style="fill:none;stroke-width:7;stroke-linecap:round;stroke-linejoin:round;stroke:rgb(100%,99.215686%,54.509804%);stroke-opacity:1;stroke-miterlimit:10;" d="M 151.082031 253.660156 L 150.488281 258.382813 "/>
<path style="fill:none;stroke-width:7;stroke-linecap:round;stroke-linejoin:round;stroke:rgb(100%,99.215686%,54.509804%);stroke-opacity:1;stroke-miterlimit:10;" d="M 107.773438 -2.324219 L 110.132813 0.5 L 111.753906 3.496094 "/>
<path style="fill:none;stroke-width:7;stroke-linecap:round;stroke-linejoin:round;stroke:rgb(100%,99.215686%,54.509804%);stroke-opacity:1;stroke-miterlimit:10;" d="M 112.40625 4.753906 L 113.59375 7.035156 L 115.527344 11.679688 "/>
<path style="fill:none;stroke-width:7;stroke-linecap:round;stroke-linejoin:round;stroke:rgb(100%,99.215686%,54.509804%);stroke-opacity:1;stroke-miterlimit:10;" d="M 115.964844 13.265625 L 116.648438 15.742188 L 117.996094 20.90625 "/>
<path style="fill:none;stroke-width:7;stroke-linecap:round;stroke-linejoin:round;stroke:rgb(100%,99.215686%,54.509804%);stroke-opacity:1;stroke-miterlimit:10;" d="M 152.175781 244.503906 L 151.082031 253.660156 "/>
<path style="fill:none;stroke-width:7;stroke-linecap:round;stroke-linejoin:round;stroke:rgb(100%,99.215686%,54.509804%);stroke-opacity:1;stroke-miterlimit:10;" d="M 161.449219 187.945313 L 159.816406 197.742188 "/>
<path style="fill:none;stroke-width:7;stroke-linecap:round;stroke-linejoin:round;stroke:rgb(100%,99.215686%,54.509804%);stroke-opacity:1;stroke-miterlimit:10;" d="M 162.675781 177.878906 L 161.449219 187.945313 "/>
<path style="fill:none;stroke-width:7;stroke-linecap:round;stroke-linejoin:round;stroke:rgb(100%,99.215686%,54.509804%);stroke-opacity:1;stroke-miterlimit:10;" d="M 159.859375 247.871094 L 151.082031 253.660156 "/>
<path style="fill:none;stroke-width:7;stroke-linecap:round;stroke-linejoin:round;stroke:rgb(100%,99.215686%,54.509804%);stroke-opacity:1;stroke-miterlimit:10;" d="M 117.996094 20.90625 L 119.371094 27.421875 L 120.175781 32.824219 "/>
<path style="fill:none;stroke-width:7;stroke-linecap:round;stroke-linejoin:round;stroke:rgb(100%,99.215686%,54.509804%);stroke-opacity:1;stroke-miterlimit:10;" d="M 159.816406 197.742188 L 157.75 210.167969 "/>
<path style="fill:none;stroke-width:7;stroke-linecap:round;stroke-linejoin:round;stroke:rgb(100%,99.215686%,54.509804%);stroke-opacity:1;stroke-miterlimit:10;" d="M 159.175781 154.625 L 161.046875 159.941406 L 162.246094 166.140625 L 162.847656 172.140625 L 162.675781 177.878906 "/>
<path style="fill:none;stroke-width:7;stroke-linecap:round;stroke-linejoin:round;stroke:rgb(100%,99.215686%,54.509804%);stroke-opacity:1;stroke-miterlimit:10;" d="M 157.75 210.167969 L 153.488281 235.757813 L 152.574219 240.957031 "/>
<path style="fill:none;stroke-width:7;stroke-linecap:round;stroke-linejoin:round;stroke:rgb(100%,99.215686%,54.509804%);stroke-opacity:1;stroke-miterlimit:10;" d="M 151.082031 253.660156 L 148.414063 255.820313 L 137.128906 263.175781 L 134.035156 265 "/>
<path style="fill:none;stroke-width:7;stroke-linecap:round;stroke-linejoin:round;stroke:rgb(100%,99.215686%,54.509804%);stroke-opacity:1;stroke-miterlimit:10;" d="M 120.175781 67.023438 L 120.972656 73.824219 L 122.375 81.023438 L 124.375 88.023438 L 126.972656 94.222656 L 129.773438 100.222656 L 134.375 107.824219 L 145.574219 125.621094 L 148.972656 131.820313 L 151.773438 137.222656 L 154.773438 143.824219 L 156.972656 149.023438 L 159.175781 154.625 "/>
<path style="fill:none;stroke-width:7;stroke-linecap:round;stroke-linejoin:round;stroke:rgb(100%,99.215686%,54.509804%);stroke-opacity:1;stroke-miterlimit:10;" d="M 265 202.925781 L 260.371094 203.355469 L 253.667969 204.039063 L 244.878906 204.847656 L 234.480469 206.238281 L 222.210938 207.800781 L 213.269531 210.808594 L 207.253906 213.152344 L 199.808594 216.980469 L 190.050781 224.425781 L 179.585938 232.25 L 168.246094 241.113281 L 159.859375 247.871094 "/>
<path style="fill:none;stroke-width:7;stroke-linecap:round;stroke-linejoin:round;stroke:rgb(100%,99.215686%,54.509804%);stroke-opacity:1;stroke-miterlimit:10;" d="M 150.488281 258.382813 L 162.753906 248.757813 L 168.773438 244.207031 L 181.761719 235.277344 L 192.300781 227.398438 L 201.808594 220.148438 L 208.789063 216.558594 L 214.542969 214.3125 L 223.050781 211.453125 L 234.949219 209.9375 L 245.785156 208.535156 L 254.046875 207.746094 L 260.730469 207.066406 L 265 206.511719 "/>
<path style="fill:none;stroke-width:9;stroke-linecap:round;stroke-linejoin:round;stroke:rgb(99.215686%,57.254902%,22.745098%);stroke-opacity:1;stroke-miterlimit:10;" d="M 224.972656 59.621094 L 232.171875 48.824219 L 239.171875 38.023438 L 245.773438 26.222656 L 252.171875 14.621094 L 257.574219 4.222656 L 261.972656 -5.574219 L 264.402344 -12 "/>
<path style="fill:none;stroke-width:9;stroke-linecap:round;stroke-linejoin:round;stroke:rgb(99.215686%,57.254902%,22.745098%);stroke-opacity:1;stroke-miterlimit:10;" d="M 259.214844 -12 L 254.171875 -0.179688 L 247.972656 12.222656 L 241.773438 23.621094 L 234.972656 35.222656 L 227.972656 46.222656 L 220.972656 56.824219 "/>
<path style="fill:none;stroke-width:9;stroke-linecap:round;stroke-linejoin:round;stroke:rgb(99.215686%,57.254902%,22.745098%);stroke-opacity:1;stroke-miterlimit:10;" d="M 13.042969 253.777344 L 18.644531 245.378906 L 25.046875 237.179688 L 32.644531 228.78125 L 40.644531 220.78125 L 48.84375 213.777344 L 57.375 207.421875 L 95.574219 181.425781 "/>
<path style="fill:none;stroke-width:9;stroke-linecap:round;stroke-linejoin:round;stroke:rgb(99.215686%,57.254902%,22.745098%);stroke-opacity:1;stroke-miterlimit:10;" d="M 92.972656 177.421875 L 54.773438 203.421875 L 46.246094 209.78125 L 38.046875 216.777344 L 29.445313 225.179688 L 21.84375 233.578125 L 15.246094 242.179688 L 9.246094 250.777344 "/>
<path style="fill:none;stroke-width:9;stroke-linecap:round;stroke-linejoin:round;stroke:rgb(99.215686%,57.254902%,22.745098%);stroke-opacity:1;stroke-miterlimit:10;" d="M 65.425781 -12 L 70.398438 -6.488281 L 78.800781 3.714844 L 87.800781 14.914063 L 96.601563 26.117188 L 105.199219 36.714844 L 114.199219 46.714844 L 123.597656 57.316406 L 132.800781 67.316406 L 142.199219 76.515625 L 152 85.515625 L 162.199219 94.117188 L 172.199219 101.515625 L 183.199219 109.316406 L 195.199219 117.714844 L 206.199219 125.3125 L 219.601563 133.714844 L 254.199219 153.714844 L 265 160.714844 L 267 162.046875 "/>
<path style="fill:none;stroke-width:9;stroke-linecap:round;stroke-linejoin:round;stroke:rgb(99.215686%,57.254902%,22.745098%);stroke-opacity:1;stroke-miterlimit:10;" d="M 267 157.203125 L 256.199219 150.316406 L 220.800781 129.914063 L 209.800781 122.714844 L 198.597656 114.914063 L 186.601563 106.3125 L 175.597656 97.914063 L 165.597656 89.515625 L 156.199219 81.316406 L 146.199219 72.316406 L 136.199219 62.914063 L 126.597656 53.714844 L 117.199219 43.914063 L 108.398438 34.117188 L 99.800781 23.515625 L 91.398438 12.914063 L 82.796875 1.914063 L 74.597656 -8.285156 L 71.375 -12 "/>
<path style="fill:none;stroke-width:10;stroke-linecap:butt;stroke-linejoin:round;stroke:rgb(53.333333%,53.333333%,53.333333%);stroke-opacity:1;stroke-miterlimit:10;" d="M 216.671875 79.652344 L 223.273438 69.453125 "/>
<path style="fill:none;stroke-width:10;stroke-linecap:butt;stroke-linejoin:round;stroke:rgb(53.333333%,53.333333%,53.333333%);stroke-opacity:1;stroke-miterlimit:10;" d="M 194.074219 114.253906 L 203.371094 103.621094 L 206.972656 100.023438 "/>
<path style="fill:none;stroke-width:10;stroke-linecap:butt;stroke-linejoin:round;stroke:rgb(53.333333%,53.333333%,53.333333%);stroke-opacity:1;stroke-miterlimit:10;" d="M 7.503906 264 L 14.246094 254.578125 "/>
<path style="fill:none;stroke-width:10;stroke-linecap:butt;stroke-linejoin:round;stroke:rgb(53.333333%,53.333333%,53.333333%);stroke-opacity:1;stroke-miterlimit:10;" d="M 7.246094 249.578125 L 2.246094 259.777344 L 0.472656 264 "/>
<path style="fill:none;stroke-width:10;stroke-linecap:butt;stroke-linejoin:round;stroke:rgb(53.333333%,53.333333%,53.333333%);stroke-opacity:1;stroke-miterlimit:10;" d="M 146.972656 151.421875 L 151.773438 149.625 L 157.171875 146.421875 L 166.972656 139.820313 "/>
<path style="fill:none;stroke-width:10;stroke-linecap:butt;stroke-linejoin:round;stroke:rgb(53.333333%,53.333333%,53.333333%);stroke-opacity:1;stroke-miterlimit:10;" d="M 146.648438 158.140625 L 161.773438 148.023438 L 169.539063 143.222656 "/>
<path style="fill:none;stroke-width:10;stroke-linecap:butt;stroke-linejoin:round;stroke:rgb(53.333333%,53.333333%,53.333333%);stroke-opacity:1;stroke-miterlimit:10;" d="M 188.472656 121.054688 L 194.074219 114.253906 L 199.273438 107.054688 L 204.875 98.851563 "/>
<path style="fill:none;stroke-width:10;stroke-linecap:butt;stroke-linejoin:round;stroke:rgb(53.333333%,53.333333%,53.333333%);stroke-opacity:1;stroke-miterlimit:10;" d="M 146.648438 158.140625 L 161.273438 147.253906 L 168.875 141.253906 "/>
<path style="fill:none;stroke-width:8;stroke-linecap:butt;stroke-linejoin:round;stroke:rgb(53.333333%,53.333333%,53.333333%);stroke-opacity:1;stroke-miterlimit:10;" d="M 3.996094 247.878906 L -2.554688 256.976563 L -5.59375 262 "/>
<path style="fill:none;stroke-width:9;stroke-linecap:butt;stroke-linejoin:round;stroke:rgb(53.333333%,53.333333%,53.333333%);stroke-opacity:1;stroke-miterlimit:10;" d="M 120.175781 32.824219 L 120.574219 39.023438 L 119.972656 60.023438 L 120.175781 67.023438 "/>
<path style="fill:none;stroke-width:11;stroke-linecap:butt;stroke-linejoin:round;stroke:rgb(53.333333%,53.333333%,53.333333%);stroke-opacity:1;stroke-miterlimit:10;" d="M 6.230469 265 L 7.246094 263.175781 L 13.042969 253.777344 "/>
<path style="fill:none;stroke-width:11;stroke-linecap:butt;stroke-linejoin:round;stroke:rgb(53.333333%,53.333333%,53.333333%);stroke-opacity:1;stroke-miterlimit:10;" d="M 9.246094 250.777344 L 3.242188 260.378906 L 0.6875 265 "/>
<path style="fill:none;stroke-width:10;stroke-linecap:butt;stroke-linejoin:round;stroke:rgb(53.333333%,53.333333%,53.333333%);stroke-opacity:1;stroke-miterlimit:10;" d="M 97.378906 156.683594 L 84.972656 168.824219 L 80.230469 172.9375 "/>
<path style="fill:none;stroke-width:10;stroke-linecap:butt;stroke-linejoin:round;stroke:rgb(53.333333%,53.333333%,53.333333%);stroke-opacity:1;stroke-miterlimit:10;" d="M 184.460938 77.378906 L 169.773438 85.425781 L 162.074219 90.054688 L 154.773438 95.421875 L 147.574219 101.023438 L 141.660156 106.378906 L 135.859375 111.976563 L 130.261719 117.976563 L 124.660156 124.574219 L 119.460938 131.375 L 109.972656 143.222656 "/>
<path style="fill:none;stroke-width:10;stroke-linecap:butt;stroke-linejoin:round;stroke:rgb(53.333333%,53.333333%,53.333333%);stroke-opacity:1;stroke-miterlimit:10;" d="M 184.371094 85.222656 L 181.375 91.621094 L 177.171875 99.824219 L 172.371094 107.824219 L 167.171875 114.824219 L 159.175781 123.222656 L 151.171875 130.421875 L 143.375 137.222656 L 131.574219 147.019531 L 92.972656 177.421875 "/>
<path style="fill:none;stroke-width:11;stroke-linecap:butt;stroke-linejoin:round;stroke:rgb(53.333333%,53.333333%,53.333333%);stroke-opacity:1;stroke-miterlimit:10;" d="M 220.972656 56.824219 L 213.972656 66.621094 L 206.171875 76.421875 L 199.375 85.023438 L 191.371094 94.421875 L 183.574219 103.023438 L 176.171875 110.621094 L 169.375 117.421875 L 161.171875 125.222656 L 152.972656 132.621094 L 143.578125 140.566406 L 132.777344 149.363281 L 121.179688 157.964844 L 109.179688 166.363281 L 92.972656 177.421875 "/>
<path style="fill:none;stroke-width:11;stroke-linecap:butt;stroke-linejoin:round;stroke:rgb(53.333333%,53.333333%,53.333333%);stroke-opacity:1;stroke-miterlimit:10;" d="M 95.574219 181.425781 L 112.972656 169.625 L 124.773438 161.425781 L 135.972656 153.023438 L 147.972656 143.421875 L 156.773438 135.824219 L 164.574219 128.824219 L 172.773438 121.023438 L 179.574219 114.222656 L 187.375 105.820313 L 194.972656 97.421875 L 202.972656 88.222656 L 210.773438 78.625 L 217.972656 69.222656 L 224.972656 59.621094 "/>
<path style="fill:none;stroke-width:8;stroke-linecap:round;stroke-linejoin:round;stroke:rgb(99.215686%,57.254902%,22.745098%);stroke-opacity:1;stroke-miterlimit:10;" d="M 216.671875 79.652344 L 223.273438 69.453125 "/>
<path style="fill:none;stroke-width:8;stroke-linecap:round;stroke-linejoin:round;stroke:rgb(99.215686%,57.254902%,22.745098%);stroke-opacity:1;stroke-miterlimit:10;" d="M 194.074219 114.253906 L 203.371094 103.621094 L 206.972656 100.023438 "/>
<path style="fill:none;stroke-width:8;stroke-linecap:round;stroke-linejoin:round;stroke:rgb(99.215686%,57.254902%,22.745098%);stroke-opacity:1;stroke-miterlimit:10;" d="M 7.503906 264 L 14.246094 254.578125 "/>
<path style="fill:none;stroke-width:8;stroke-linecap:round;stroke-linejoin:round;stroke:rgb(99.215686%,57.254902%,22.745098%);stroke-opacity:1;stroke-miterlimit:10;" d="M 7.246094 249.578125 L 2.246094 259.777344 L 0.472656 264 "/>
<path style="fill:none;stroke-width:8;stroke-linecap:round;stroke-linejoin:round;stroke:rgb(99.215686%,57.254902%,22.745098%);stroke-opacity:1;stroke-miterlimit:10;" d="M 146.972656 151.421875 L 151.773438 149.625 L 157.171875 146.421875 L 166.972656 139.820313 "/>
<path style="fill:none;stroke-width:8;stroke-linecap:round;stroke-linejoin:round;stroke:rgb(99.215686%,57.254902%,22.745098%);stroke-opacity:1;stroke-miterlimit:10;" d="M 146.648438 158.140625 L 161.773438 148.023438 L 169.539063 143.222656 "/>
<path style="fill:none;stroke-width:8;stroke-linecap:round;stroke-linejoin:round;stroke:rgb(99.215686%,57.254902%,22.745098%);stroke-opacity:1;stroke-miterlimit:10;" d="M 188.472656 121.054688 L 194.074219 114.253906 L 199.273438 107.054688 L 204.875 98.851563 "/>
<path style="fill:none;stroke-width:8;stroke-linecap:round;stroke-linejoin:round;stroke:rgb(99.215686%,57.254902%,22.745098%);stroke-opacity:1;stroke-miterlimit:10;" d="M 146.648438 158.140625 L 161.273438 147.253906 L 168.875 141.253906 "/>
<path style="fill:none;stroke-width:6;stroke-linecap:round;stroke-linejoin:round;stroke:rgb(100%,100%,100%);stroke-opacity:1;stroke-miterlimit:10;" d="M 3.996094 247.878906 L -2.554688 256.976563 L -5.59375 262 "/>
<path style="fill:none;stroke-width:7;stroke-linecap:round;stroke-linejoin:round;stroke:rgb(100%,99.215686%,54.509804%);stroke-opacity:1;stroke-miterlimit:10;" d="M 120.175781 32.824219 L 120.574219 39.023438 L 119.972656 60.023438 L 120.175781 67.023438 "/>
<path style="fill:none;stroke-width:9;stroke-linecap:round;stroke-linejoin:round;stroke:rgb(99.215686%,57.254902%,22.745098%);stroke-opacity:1;stroke-miterlimit:10;" d="M 6.230469 265 L 7.246094 263.175781 L 13.042969 253.777344 "/>
<path style="fill:none;stroke-width:9;stroke-linecap:round;stroke-linejoin:round;stroke:rgb(99.215686%,57.254902%,22.745098%);stroke-opacity:1;stroke-miterlimit:10;" d="M 9.246094 250.777344 L 3.242188 260.378906 L 0.6875 265 "/>
<path style="fill:none;stroke-width:8;stroke-linecap:round;stroke-linejoin:round;stroke:rgb(99.215686%,57.254902%,22.745098%);stroke-opacity:1;stroke-miterlimit:10;" d="M 97.378906 156.683594 L 84.972656 168.824219 L 80.230469 172.9375 "/>
<path style="fill:none;stroke-width:8;stroke-linecap:round;stroke-linejoin:round;stroke:rgb(99.215686%,57.254902%,22.745098%);stroke-opacity:1;stroke-miterlimit:10;" d="M 184.460938 77.378906 L 169.773438 85.425781 L 162.074219 90.054688 L 154.773438 95.421875 L 147.574219 101.023438 L 141.660156 106.378906 L 135.859375 111.976563 L 130.261719 117.976563 L 124.660156 124.574219 L 119.460938 131.375 L 109.972656 143.222656 "/>
<path style="fill:none;stroke-width:8;stroke-linecap:round;stroke-linejoin:round;stroke:rgb(99.215686%,57.254902%,22.745098%);stroke-opacity:1;stroke-miterlimit:10;" d="M 184.371094 85.222656 L 181.375 91.621094 L 177.171875 99.824219 L 172.371094 107.824219 L 167.171875 114.824219 L 159.175781 123.222656 L 151.171875 130.421875 L 143.375 137.222656 L 131.574219 147.019531 L 92.972656 177.421875 "/>
<path style="fill:none;stroke-width:9;stroke-linecap:round;stroke-linejoin:round;stroke:rgb(99.215686%,57.254902%,22.745098%);stroke-opacity:1;stroke-miterlimit:10;" d="M 220.972656 56.824219 L 213.972656 66.621094 L 206.171875 76.421875 L 199.375 85.023438 L 191.371094 94.421875 L 183.574219 103.023438 L 176.171875 110.621094 L 169.375 117.421875 L 161.171875 125.222656 L 152.972656 132.621094 L 143.578125 140.566406 L 132.777344 149.363281 L 121.179688 157.964844 L 109.179688 166.363281 L 92.972656 177.421875 "/>
<path style="fill:none;stroke-width:9;stroke-linecap:round;stroke-linejoin:round;stroke:rgb(99.215686%,57.254902%,22.745098%);stroke-opacity:1;stroke-miterlimit:10;" d="M 95.574219 181.425781 L 112.972656 169.625 L 124.773438 161.425781 L 135.972656 153.023438 L 147.972656 143.421875 L 156.773438 135.824219 L 164.574219 128.824219 L 172.773438 121.023438 L 179.574219 114.222656 L 187.375 105.820313 L 194.972656 97.421875 L 202.972656 88.222656 L 210.773438 78.625 L 217.972656 69.222656 L 224.972656 59.621094 "/>
<path style=" stroke:none;fill-rule:evenodd;fill:rgb(33.333333%,33.333333%,33.333333%);fill-opacity:1;" d="M 154.605469 85.242188 C 154.1875 85.15625 153.792969 85.023438 153.417969 84.835938 C 153.042969 84.648438 152.691406 84.40625 152.371094 84.117188 C 151.390625 83.242188 150.886719 82.242188 150.855469 81.117188 C 150.824219 80.003906 151.269531 78.929688 152.199219 77.898438 C 153.136719 76.847656 154.160156 76.273438 155.277344 76.179688 C 156.390625 76.085938 157.4375 76.476563 158.417969 77.351563 C 158.738281 77.644531 159.015625 77.960938 159.246094 78.304688 C 159.472656 78.648438 159.652344 79.03125 159.777344 79.445313 L 158.574219 80.789063 C 158.488281 80.332031 158.355469 79.9375 158.167969 79.601563 C 157.980469 79.257813 157.734375 78.953125 157.433594 78.679688 C 156.890625 78.191406 156.292969 78.003906 155.636719 78.117188 C 154.988281 78.234375 154.363281 78.628906 153.761719 79.304688 C 153.167969 79.972656 152.847656 80.632813 152.808594 81.289063 C 152.777344 81.945313 153.03125 82.515625 153.574219 83.007813 C 153.875 83.277344 154.203125 83.480469 154.558594 83.617188 C 154.921875 83.761719 155.339844 83.851563 155.808594 83.882813 Z M 161.320313 80.144531 L 162.867188 81.503906 L 157.117188 88.097656 L 155.570313 86.738281 Z M 164.359375 82.777344 L 166.90625 84.996094 C 167.664063 85.644531 168.082031 86.332031 168.15625 87.058594 C 168.226563 87.777344 167.96875 88.488281 167.375 89.183594 C 166.769531 89.878906 166.101563 90.234375 165.375 90.246094 C 164.65625 90.265625 163.914063 89.953125 163.15625 89.308594 L 162.15625 88.433594 L 160.171875 90.730469 L 158.625 89.386719 Z M 164.828125 85.355469 L 163.234375 87.199219 L 164.0625 87.917969 C 164.363281 88.179688 164.664063 88.300781 164.96875 88.277344 C 165.269531 88.257813 165.546875 88.101563 165.796875 87.808594 C 166.054688 87.507813 166.171875 87.210938 166.140625 86.917969 C 166.117188 86.617188 165.957031 86.335938 165.65625 86.074219 Z M 164.828125 85.355469 "/>
<path style=" stroke:none;fill-rule:evenodd;fill:rgb(33.333333%,33.333333%,33.333333%);fill-opacity:1;" d="M 46.039063 215.007813 C 45.839844 215.5625 45.578125 216.066406 45.257813 216.523438 C 44.933594 216.984375 44.554688 217.398438 44.117188 217.773438 C 43.125 218.628906 42.070313 219 40.945313 218.882813 C 39.832031 218.769531 38.820313 218.1875 37.914063 217.132813 C 36.988281 216.0625 36.554688 214.96875 36.617188 213.851563 C 36.679688 212.738281 37.226563 211.734375 38.257813 210.835938 C 38.65625 210.492188 39.070313 210.207031 39.507813 209.976563 C 39.945313 209.75 40.398438 209.578125 40.867188 209.460938 L 42.039063 210.820313 C 41.527344 210.90625 41.058594 211.039063 40.632813 211.226563 C 40.21875 211.40625 39.847656 211.632813 39.523438 211.914063 C 38.910156 212.4375 38.601563 213.03125 38.601563 213.695313 C 38.601563 214.363281 38.90625 215.050781 39.507813 215.757813 C 40.113281 216.457031 40.734375 216.859375 41.382813 216.960938 C 42.039063 217.066406 42.65625 216.867188 43.242188 216.367188 C 43.40625 216.222656 43.546875 216.082031 43.664063 215.945313 C 43.777344 215.800781 43.867188 215.664063 43.929688 215.539063 L 42.820313 214.242188 L 41.882813 215.054688 L 40.898438 213.914063 L 43.289063 211.835938 Z M 52.300781 210.308594 C 52.132813 210.707031 51.925781 211.070313 51.675781 211.402344 C 51.433594 211.738281 51.144531 212.039063 50.800781 212.308594 C 49.757813 213.121094 48.683594 213.441406 47.582031 213.261719 C 46.480469 213.085938 45.5 212.449219 44.644531 211.355469 C 43.78125 210.253906 43.402344 209.148438 43.503906 208.042969 C 43.597656 206.929688 44.167969 205.964844 45.207031 205.152344 C 45.550781 204.882813 45.917969 204.667969 46.300781 204.511719 C 46.675781 204.355469 47.082031 204.246094 47.519531 204.183594 L 48.628906 205.605469 C 48.148438 205.605469 47.726563 205.667969 47.363281 205.792969 C 46.996094 205.917969 46.65625 206.105469 46.332031 206.355469 C 45.761719 206.804688 45.472656 207.363281 45.472656 208.027344 C 45.464844 208.683594 45.734375 209.367188 46.285156 210.074219 C 46.839844 210.785156 47.429688 211.214844 48.066406 211.371094 C 48.710938 211.519531 49.320313 211.367188 49.894531 210.917969 C 50.214844 210.667969 50.480469 210.382813 50.691406 210.058594 C 50.898438 209.726563 51.058594 209.332031 51.175781 208.871094 Z M 48.65625 202.699219 L 51.390625 200.714844 C 52.203125 200.132813 52.96875 199.882813 53.6875 199.964844 C 54.414063 200.050781 55.050781 200.460938 55.59375 201.199219 C 56.125 201.941406 56.316406 202.667969 56.171875 203.386719 C 56.035156 204.105469 55.5625 204.757813 54.75 205.339844 L 53.671875 206.121094 L 55.453125 208.574219 L 53.796875 209.777344 Z M 51.28125 202.824219 L 52.703125 204.792969 L 53.609375 204.136719 C 53.921875 203.910156 54.097656 203.648438 54.140625 203.355469 C 54.191406 203.054688 54.109375 202.746094 53.890625 202.433594 C 53.648438 202.113281 53.382813 201.929688 53.09375 201.886719 C 52.804688 201.847656 52.5 201.941406 52.1875 202.167969 Z M 51.28125 202.824219 "/>
<path style="fill:none;stroke-width:3;stroke-linecap:round;stroke-linejoin:round;stroke:rgb(100%,100%,100%);stroke-opacity:1;stroke-miterlimit:10;" d="M 157.484375 39.886719 C 156.859375 39.554688 156.21875 39.550781 155.5625 39.871094 C 154.90625 40.195313 154.34375 40.800781 153.875 41.683594 C 153.394531 42.582031 153.203125 43.386719 153.296875 44.105469 C 153.398438 44.8125 153.765625 45.332031 154.390625 45.667969 C 155.003906 46 155.628906 46.003906 156.265625 45.683594 C 156.910156 45.359375 157.472656 44.75 157.953125 43.855469 C 158.421875 42.972656 158.613281 42.175781 158.53125 41.464844 C 158.445313 40.746094 158.097656 40.222656 157.484375 39.886719 Z M 157.890625 39.105469 C 158.773438 39.574219 159.304688 40.289063 159.484375 41.246094 C 159.660156 42.195313 159.453125 43.226563 158.859375 44.339844 C 158.265625 45.453125 157.519531 46.199219 156.625 46.574219 C 155.738281 46.957031 154.851563 46.917969 153.96875 46.449219 C 153.0625 45.96875 152.519531 45.253906 152.34375 44.308594 C 152.164063 43.363281 152.378906 42.324219 152.984375 41.199219 C 153.578125 40.085938 154.316406 39.339844 155.203125 38.964844 C 156.085938 38.582031 156.984375 38.628906 157.890625 39.105469 Z M 162.234375 46.582031 C 161.554688 46.355469 161.054688 46.285156 160.734375 46.378906 C 160.410156 46.472656 160.179688 46.730469 160.046875 47.144531 C 159.941406 47.46875 159.953125 47.761719 160.078125 48.019531 C 160.210938 48.28125 160.453125 48.464844 160.796875 48.582031 C 161.265625 48.738281 161.703125 48.675781 162.109375 48.394531 C 162.515625 48.113281 162.816406 47.671875 163.015625 47.066406 L 163.078125 46.847656 Z M 164.0625 46.738281 L 163 50.003906 L 162.140625 49.722656 L 162.421875 48.863281 C 162.109375 49.144531 161.78125 49.320313 161.4375 49.394531 C 161.101563 49.464844 160.726563 49.433594 160.3125 49.300781 C 159.789063 49.121094 159.425781 48.820313 159.21875 48.394531 C 159.007813 47.96875 159 47.480469 159.1875 46.925781 C 159.394531 46.28125 159.742188 45.859375 160.234375 45.660156 C 160.734375 45.453125 161.367188 45.472656 162.140625 45.722656 L 163.328125 46.113281 L 163.359375 46.019531 C 163.492188 45.59375 163.472656 45.21875 163.296875 44.894531 C 163.117188 44.574219 162.796875 44.332031 162.328125 44.175781 C 162.046875 44.082031 161.75 44.03125 161.4375 44.019531 C 161.132813 44.011719 160.828125 44.042969 160.515625 44.113281 L 160.796875 43.253906 C 161.160156 43.222656 161.492188 43.222656 161.796875 43.253906 C 162.109375 43.285156 162.40625 43.34375 162.6875 43.425781 C 163.425781 43.675781 163.910156 44.074219 164.140625 44.613281 C 164.378906 45.15625 164.351563 45.863281 164.0625 46.738281 Z M 166.761719 42.359375 L 167.652344 42.53125 L 166.730469 47.390625 L 169.824219 45.328125 L 170.949219 45.546875 L 167.589844 47.78125 L 169.933594 51.46875 L 168.792969 51.265625 L 166.636719 47.859375 L 166.089844 50.75 L 165.199219 50.578125 Z M 175.605469 44.503906 L 175.777344 47.503906 L 176.996094 47.441406 C 177.453125 47.410156 177.796875 47.261719 178.027344 46.988281 C 178.265625 46.707031 178.375 46.328125 178.355469 45.847656 C 178.324219 45.371094 178.171875 45.011719 177.902344 44.769531 C 177.640625 44.519531 177.28125 44.410156 176.824219 44.441406 Z M 174.574219 43.675781 L 176.777344 43.550781 C 177.589844 43.5 178.207031 43.667969 178.636719 44.050781 C 179.0625 44.4375 179.300781 45.019531 179.355469 45.800781 C 179.394531 46.582031 179.222656 47.1875 178.839844 47.613281 C 178.453125 48.042969 177.855469 48.28125 177.042969 48.332031 L 175.824219 48.394531 L 176.011719 51.613281 L 175.027344 51.675781 Z M 183.289063 47.8125 C 182.578125 47.929688 182.105469 48.101563 181.867188 48.328125 C 181.625 48.558594 181.539063 48.886719 181.601563 49.3125 C 181.664063 49.65625 181.808594 49.917969 182.039063 50.09375 C 182.277344 50.261719 182.574219 50.320313 182.929688 50.265625 C 183.417969 50.183594 183.777344 49.929688 184.007813 49.5 C 184.234375 49.0625 184.296875 48.527344 184.195313 47.890625 L 184.164063 47.671875 Z M 184.992188 47.125 L 185.539063 50.515625 L 184.648438 50.65625 L 184.507813 49.765625 C 184.359375 50.152344 184.152344 50.460938 183.882813 50.6875 C 183.609375 50.90625 183.261719 51.046875 182.835938 51.109375 C 182.292969 51.203125 181.828125 51.109375 181.445313 50.828125 C 181.070313 50.539063 180.835938 50.101563 180.742188 49.515625 C 180.636719 48.851563 180.757813 48.3125 181.101563 47.90625 C 181.445313 47.5 182.011719 47.234375 182.804688 47.109375 L 184.039063 46.90625 L 184.023438 46.8125 C 183.949219 46.367188 183.757813 46.039063 183.445313 45.828125 C 183.140625 45.621094 182.75 45.558594 182.273438 45.640625 C 181.96875 45.695313 181.679688 45.789063 181.398438 45.921875 C 181.125 46.046875 180.871094 46.214844 180.632813 46.421875 L 180.476563 45.53125 C 180.789063 45.335938 181.085938 45.179688 181.367188 45.0625 C 181.65625 44.9375 181.949219 44.855469 182.242188 44.8125 C 183.011719 44.6875 183.625 44.820313 184.085938 45.203125 C 184.542969 45.578125 184.84375 46.21875 184.992188 47.125 Z M 189.238281 44.042969 C 189.121094 44.023438 189.003906 44.019531 188.878906 44.027344 C 188.753906 44.039063 188.628906 44.066406 188.503906 44.105469 C 188.023438 44.273438 187.722656 44.574219 187.597656 45.011719 C 187.472656 45.441406 187.519531 45.972656 187.738281 46.605469 L 188.785156 49.605469 L 187.925781 49.902344 L 185.941406 44.230469 L 186.800781 43.933594 L 187.113281 44.808594 C 187.164063 44.402344 187.300781 44.070313 187.519531 43.808594 C 187.738281 43.539063 188.050781 43.335938 188.457031 43.199219 C 188.519531 43.179688 188.585938 43.160156 188.660156 43.136719 C 188.730469 43.117188 188.808594 43.101563 188.894531 43.089844 Z M 187.890625 40.964844 L 188.65625 40.464844 L 191.40625 44.574219 L 192.171875 40.949219 L 193.125 40.324219 L 192.28125 44.246094 L 196.546875 45.261719 L 195.578125 45.902344 L 191.671875 44.980469 L 193.296875 47.417969 L 192.53125 47.917969 Z M 196.316406 36.3125 L 200.269531 41.125 L 201.175781 40.375 C 201.945313 39.742188 202.347656 39.085938 202.378906 38.40625 C 202.417969 37.730469 202.097656 36.96875 201.410156 36.125 C 200.722656 35.304688 200.042969 34.84375 199.378906 34.75 C 198.714844 34.65625 197.996094 34.929688 197.222656 35.5625 Z M 194.972656 36.25 L 196.519531 34.96875 C 197.605469 34.085938 198.605469 33.683594 199.519531 33.765625 C 200.433594 33.839844 201.332031 34.40625 202.207031 35.46875 C 203.082031 36.542969 203.464844 37.539063 203.363281 38.453125 C 203.269531 39.371094 202.683594 40.273438 201.613281 41.15625 L 200.066406 42.4375 Z M 205.078125 31.65625 C 204.964844 31.667969 204.851563 31.703125 204.734375 31.765625 C 204.621094 31.820313 204.511719 31.886719 204.40625 31.96875 C 204.023438 32.304688 203.84375 32.695313 203.875 33.140625 C 203.90625 33.589844 204.140625 34.074219 204.578125 34.59375 L 206.625 37.015625 L 205.9375 37.59375 L 202.0625 33 L 202.75 32.421875 L 203.34375 33.140625 C 203.261719 32.734375 203.277344 32.371094 203.390625 32.046875 C 203.496094 31.714844 203.714844 31.414063 204.046875 31.140625 C 204.089844 31.101563 204.148438 31.058594 204.21875 31.015625 C 204.28125 30.964844 204.351563 30.917969 204.421875 30.875 Z M 204.777344 30.503906 L 205.339844 29.800781 L 210.042969 33.550781 L 209.480469 34.253906 Z M 202.949219 29.050781 L 203.511719 28.347656 L 204.480469 29.128906 L 203.917969 29.832031 Z M 205.75 29.285156 L 206.125 28.425781 L 211.421875 28.925781 L 207.5 25.316406 L 207.875 24.457031 L 212.546875 28.753906 L 212.0625 29.863281 Z M 212.042969 19.859375 L 212.496094 20 L 211.402344 23.9375 C 212.070313 24.085938 212.621094 24.042969 213.058594 23.8125 C 213.488281 23.585938 213.777344 23.1875 213.933594 22.625 C 214.027344 22.292969 214.066406 21.960938 214.058594 21.625 C 214.046875 21.292969 214.003906 20.949219 213.933594 20.59375 L 214.824219 20.84375 C 214.875 21.199219 214.894531 21.546875 214.886719 21.890625 C 214.875 22.234375 214.824219 22.574219 214.730469 22.90625 C 214.5 23.742188 214.050781 24.324219 213.386719 24.65625 C 212.710938 24.992188 211.910156 25.03125 210.980469 24.78125 C 210.035156 24.511719 209.347656 24.074219 208.917969 23.46875 C 208.492188 22.855469 208.386719 22.152344 208.605469 21.359375 C 208.792969 20.664063 209.199219 20.183594 209.824219 19.921875 C 210.441406 19.652344 211.179688 19.632813 212.042969 19.859375 Z M 211.511719 20.640625 C 210.992188 20.515625 210.539063 20.539063 210.152344 20.703125 C 209.769531 20.859375 209.519531 21.148438 209.402344 21.5625 C 209.269531 22.054688 209.316406 22.484375 209.542969 22.859375 C 209.761719 23.234375 210.136719 23.511719 210.667969 23.6875 Z M 211.511719 20.640625 "/>
<path style=" stroke:none;fill-rule:evenodd;fill:rgb(20%,20%,20%);fill-opacity:1;" d="M 157.484375 39.886719 C 156.859375 39.554688 156.21875 39.550781 155.5625 39.871094 C 154.90625 40.195313 154.34375 40.800781 153.875 41.683594 C 153.394531 42.582031 153.203125 43.386719 153.296875 44.105469 C 153.398438 44.8125 153.765625 45.332031 154.390625 45.667969 C 155.003906 46 155.628906 46.003906 156.265625 45.683594 C 156.910156 45.359375 157.472656 44.75 157.953125 43.855469 C 158.421875 42.972656 158.613281 42.175781 158.53125 41.464844 C 158.445313 40.746094 158.097656 40.222656 157.484375 39.886719 Z M 157.890625 39.105469 C 158.773438 39.574219 159.304688 40.289063 159.484375 41.246094 C 159.660156 42.195313 159.453125 43.226563 158.859375 44.339844 C 158.265625 45.453125 157.519531 46.199219 156.625 46.574219 C 155.738281 46.957031 154.851563 46.917969 153.96875 46.449219 C 153.0625 45.96875 152.519531 45.253906 152.34375 44.308594 C 152.164063 43.363281 152.378906 42.324219 152.984375 41.199219 C 153.578125 40.085938 154.316406 39.339844 155.203125 38.964844 C 156.085938 38.582031 156.984375 38.628906 157.890625 39.105469 Z M 162.234375 46.582031 C 161.554688 46.355469 161.054688 46.285156 160.734375 46.378906 C 160.410156 46.472656 160.179688 46.730469 160.046875 47.144531 C 159.941406 47.46875 159.953125 47.761719 160.078125 48.019531 C 160.210938 48.28125 160.453125 48.464844 160.796875 48.582031 C 161.265625 48.738281 161.703125 48.675781 162.109375 48.394531 C 162.515625 48.113281 162.816406 47.671875 163.015625 47.066406 L 163.078125 46.847656 Z M 164.0625 46.738281 L 163 50.003906 L 162.140625 49.722656 L 162.421875 48.863281 C 162.109375 49.144531 161.78125 49.320313 161.4375 49.394531 C 161.101563 49.464844 160.726563 49.433594 160.3125 49.300781 C 159.789063 49.121094 159.425781 48.820313 159.21875 48.394531 C 159.007813 47.96875 159 47.480469 159.1875 46.925781 C 159.394531 46.28125 159.742188 45.859375 160.234375 45.660156 C 160.734375 45.453125 161.367188 45.472656 162.140625 45.722656 L 163.328125 46.113281 L 163.359375 46.019531 C 163.492188 45.59375 163.472656 45.21875 163.296875 44.894531 C 163.117188 44.574219 162.796875 44.332031 162.328125 44.175781 C 162.046875 44.082031 161.75 44.03125 161.4375 44.019531 C 161.132813 44.011719 160.828125 44.042969 160.515625 44.113281 L 160.796875 43.253906 C 161.160156 43.222656 161.492188 43.222656 161.796875 43.253906 C 162.109375 43.285156 162.40625 43.34375 162.6875 43.425781 C 163.425781 43.675781 163.910156 44.074219 164.140625 44.613281 C 164.378906 45.15625 164.351563 45.863281 164.0625 46.738281 Z M 166.761719 42.359375 L 167.652344 42.53125 L 166.730469 47.390625 L 169.824219 45.328125 L 170.949219 45.546875 L 167.589844 47.78125 L 169.933594 51.46875 L 168.792969 51.265625 L 166.636719 47.859375 L 166.089844 50.75 L 165.199219 50.578125 Z M 175.605469 44.503906 L 175.777344 47.503906 L 176.996094 47.441406 C 177.453125 47.410156 177.796875 47.261719 178.027344 46.988281 C 178.265625 46.707031 178.375 46.328125 178.355469 45.847656 C 178.324219 45.371094 178.171875 45.011719 177.902344 44.769531 C 177.640625 44.519531 177.28125 44.410156 176.824219 44.441406 Z M 174.574219 43.675781 L 176.777344 43.550781 C 177.589844 43.5 178.207031 43.667969 178.636719 44.050781 C 179.0625 44.4375 179.300781 45.019531 179.355469 45.800781 C 179.394531 46.582031 179.222656 47.1875 178.839844 47.613281 C 178.453125 48.042969 177.855469 48.28125 177.042969 48.332031 L 175.824219 48.394531 L 176.011719 51.613281 L 175.027344 51.675781 Z M 183.289063 47.8125 C 182.578125 47.929688 182.105469 48.101563 181.867188 48.328125 C 181.625 48.558594 181.539063 48.886719 181.601563 49.3125 C 181.664063 49.65625 181.808594 49.917969 182.039063 50.09375 C 182.277344 50.261719 182.574219 50.320313 182.929688 50.265625 C 183.417969 50.183594 183.777344 49.929688 184.007813 49.5 C 184.234375 49.0625 184.296875 48.527344 184.195313 47.890625 L 184.164063 47.671875 Z M 184.992188 47.125 L 185.539063 50.515625 L 184.648438 50.65625 L 184.507813 49.765625 C 184.359375 50.152344 184.152344 50.460938 183.882813 50.6875 C 183.609375 50.90625 183.261719 51.046875 182.835938 51.109375 C 182.292969 51.203125 181.828125 51.109375 181.445313 50.828125 C 181.070313 50.539063 180.835938 50.101563 180.742188 49.515625 C 180.636719 48.851563 180.757813 48.3125 181.101563 47.90625 C 181.445313 47.5 182.011719 47.234375 182.804688 47.109375 L 184.039063 46.90625 L 184.023438 46.8125 C 183.949219 46.367188 183.757813 46.039063 183.445313 45.828125 C 183.140625 45.621094 182.75 45.558594 182.273438 45.640625 C 181.96875 45.695313 181.679688 45.789063 181.398438 45.921875 C 181.125 46.046875 180.871094 46.214844 180.632813 46.421875 L 180.476563 45.53125 C 180.789063 45.335938 181.085938 45.179688 181.367188 45.0625 C 181.65625 44.9375 181.949219 44.855469 182.242188 44.8125 C 183.011719 44.6875 183.625 44.820313 184.085938 45.203125 C 184.542969 45.578125 184.84375 46.21875 184.992188 47.125 Z M 189.238281 44.042969 C 189.121094 44.023438 189.003906 44.019531 188.878906 44.027344 C 188.753906 44.039063 188.628906 44.066406 188.503906 44.105469 C 188.023438 44.273438 187.722656 44.574219 187.597656 45.011719 C 187.472656 45.441406 187.519531 45.972656 187.738281 46.605469 L 188.785156 49.605469 L 187.925781 49.902344 L 185.941406 44.230469 L 186.800781 43.933594 L 187.113281 44.808594 C 187.164063 44.402344 187.300781 44.070313 187.519531 43.808594 C 187.738281 43.539063 188.050781 43.335938 188.457031 43.199219 C 188.519531 43.179688 188.585938 43.160156 188.660156 43.136719 C 188.730469 43.117188 188.808594 43.101563 188.894531 43.089844 Z M 187.890625 40.964844 L 188.65625 40.464844 L 191.40625 44.574219 L 192.171875 40.949219 L 193.125 40.324219 L 192.28125 44.246094 L 196.546875 45.261719 L 195.578125 45.902344 L 191.671875 44.980469 L 193.296875 47.417969 L 192.53125 47.917969 Z M 196.316406 36.3125 L 200.269531 41.125 L 201.175781 40.375 C 201.945313 39.742188 202.347656 39.085938 202.378906 38.40625 C 202.417969 37.730469 202.097656 36.96875 201.410156 36.125 C 200.722656 35.304688 200.042969 34.84375 199.378906 34.75 C 198.714844 34.65625 197.996094 34.929688 197.222656 35.5625 Z M 194.972656 36.25 L 196.519531 34.96875 C 197.605469 34.085938 198.605469 33.683594 199.519531 33.765625 C 200.433594 33.839844 201.332031 34.40625 202.207031 35.46875 C 203.082031 36.542969 203.464844 37.539063 203.363281 38.453125 C 203.269531 39.371094 202.683594 40.273438 201.613281 41.15625 L 200.066406 42.4375 Z M 205.078125 31.65625 C 204.964844 31.667969 204.851563 31.703125 204.734375 31.765625 C 204.621094 31.820313 204.511719 31.886719 204.40625 31.96875 C 204.023438 32.304688 203.84375 32.695313 203.875 33.140625 C 203.90625 33.589844 204.140625 34.074219 204.578125 34.59375 L 206.625 37.015625 L 205.9375 37.59375 L 202.0625 33 L 202.75 32.421875 L 203.34375 33.140625 C 203.261719 32.734375 203.277344 32.371094 203.390625 32.046875 C 203.496094 31.714844 203.714844 31.414063 204.046875 31.140625 C 204.089844 31.101563 204.148438 31.058594 204.21875 31.015625 C 204.28125 30.964844 204.351563 30.917969 204.421875 30.875 Z M 204.777344 30.503906 L 205.339844 29.800781 L 210.042969 33.550781 L 209.480469 34.253906 Z M 202.949219 29.050781 L 203.511719 28.347656 L 204.480469 29.128906 L 203.917969 29.832031 Z M 205.75 29.285156 L 206.125 28.425781 L 211.421875 28.925781 L 207.5 25.316406 L 207.875 24.457031 L 212.546875 28.753906 L 212.0625 29.863281 Z M 212.042969 19.859375 L 212.496094 20 L 211.402344 23.9375 C 212.070313 24.085938 212.621094 24.042969 213.058594 23.8125 C 213.488281 23.585938 213.777344 23.1875 213.933594 22.625 C 214.027344 22.292969 214.066406 21.960938 214.058594 21.625 C 214.046875 21.292969 214.003906 20.949219 213.933594 20.59375 L 214.824219 20.84375 C 214.875 21.199219 214.894531 21.546875 214.886719 21.890625 C 214.875 22.234375 214.824219 22.574219 214.730469 22.90625 C 214.5 23.742188 214.050781 24.324219 213.386719 24.65625 C 212.710938 24.992188 211.910156 25.03125 210.980469 24.78125 C 210.035156 24.511719 209.347656 24.074219 208.917969 23.46875 C 208.492188 22.855469 208.386719 22.152344 208.605469 21.359375 C 208.792969 20.664063 209.199219 20.183594 209.824219 19.921875 C 210.441406 19.652344 211.179688 19.632813 212.042969 19.859375 Z M 211.511719 20.640625 C 210.992188 20.515625 210.539063 20.539063 210.152344 20.703125 C 209.769531 20.859375 209.519531 21.148438 209.402344 21.5625 C 209.269531 22.054688 209.316406 22.484375 209.542969 22.859375 C 209.761719 23.234375 210.136719 23.511719 210.667969 23.6875 Z M 211.511719 20.640625 "/>
</g>
</svg>

