<?xml version="1.0" encoding="UTF-8"?>
<svg xmlns="http://www.w3.org/2000/svg" xmlns:xlink="http://www.w3.org/1999/xlink" width="256pt" height="256pt" viewBox="0 0 256 256" version="1.1">
<g id="surface2">
<rect x="0" y="0" width="256" height="256" style="fill:rgb(94.901961%,93.72549%,91.372549%);fill-opacity:1;stroke:none;"/>
<path style="fill:none;stroke-width:8;stroke-linecap:round;stroke-linejoin:round;stroke:rgb(75.686275%,70.980392%,61.568627%);stroke-opacity:1;stroke-miterlimit:10;" d="M -9 90.832031 L 1.035156 88.597656 L 4.53125 87.625 L 8.351563 85.808594 L 10.542969 84.191406 L 13.59375 81.371094 L 17.417969 77.15625 L 24.011719 67.429688 L 27.273438 64.773438 L 34.984375 61.335938 L 39.25 58.875 L 48.269531 46.75 L 50.296875 45.261719 L 52.625 44.804688 L 69.214844 46.945313 L 74.414063 46.394531 L 77.1875 45.777344 L 80.285156 43.898438 L 81.730469 42.472656 L 83.035156 40.558594 L 85.226563 36.214844 L 98.320313 11.777344 L 112.703125 -9 "/>
<path style="fill:none;stroke-width:6;stroke-linecap:round;stroke-linejoin:round;stroke:rgb(100%,100%,100%);stroke-opacity:1;stroke-miterlimit:10;" d="M -9 90.832031 L 1.035156 88.597656 L 4.53125 87.625 L 8.351563 85.808594 L 10.542969 84.191406 L 13.59375 81.371094 L 17.417969 77.15625 L 24.011719 67.429688 L 27.273438 64.773438 L 34.984375 61.335938 L 39.25 58.875 L 48.269531 46.75 L 50.296875 45.261719 L 52.625 44.804688 L 69.214844 46.945313 L 74.414063 46.394531 L 77.1875 45.777344 L 80.285156 43.898438 L 81.730469 42.472656 L 83.035156 40.558594 L 85.226563 36.214844 L 98.320313 11.777344 L 112.703125 -9 "/>
</g>
</svg>

