<?xml version="1.0" encoding="UTF-8"?>
<svg xmlns="http://www.w3.org/2000/svg" xmlns:xlink="http://www.w3.org/1999/xlink" width="256pt" height="256pt" viewBox="0 0 256 256" version="1.1">
<g id="surface2">
<rect x="0" y="0" width="256" height="256" style="fill:rgb(60%,70.196078%,80%);fill-opacity:1;stroke:none;"/>
<path style=" stroke:none;fill-rule:evenodd;fill:rgb(94.901961%,93.72549%,91.372549%);fill-opacity:1;" d="M 259 -4 L -4 -4 L -4 259 L -4 -4 Z M 259 -4 "/>
<path style=" stroke:none;fill-rule:evenodd;fill:rgb(60%,70.196078%,80%);fill-opacity:1;" d="M -4 259 L 259 259 L 259 -4 L 259 9.84375 L 14.066406 259 Z M -4 259 "/>
<path style="fill:none;stroke-width:1;stroke-linecap:round;stroke-linejoin:round;stroke:rgb(70.196078%,77.647059%,83.137255%);stroke-opacity:1;stroke-miterlimit:10;" d="M -4 259 L 259 259 L 259 -4 L 259 9.84375 L 14.066406 259 L -4 259 "/>
<path style=" stroke:none;fill-rule:evenodd;fill:rgb(60%,70.196078%,80%);fill-opacity:1;" d="M -4 259 L 14.066406 259 L 259 9.84375 L 259 -4 L -4 -4 Z M -8241762.855469 4966555.628906 Z M -8241762.855469 4967812.0625 Z M -8241762.855469 4967812.0625 "/>
<path style="fill:none;stroke-width:1;stroke-linecap:round;stroke-linejoin:round;stroke:rgb(70.196078%,77.647059%,83.137255%);stroke-opacity:1;stroke-miterlimit:10;" d="M -4 259 L 14.066406 259 L 259 9.84375 L 259 -4 L -4 -4 L -4 259 "/>
<path style="fill:none;stroke-width:6;stroke-linecap:round;stroke-linejoin:round;stroke:rgb(60%,70.196078%,80%);stroke-opacity:1;stroke-miterlimit:10;" d="M 164.070313 -7 L 75.953125 261.878906 L 75.90625 262 "/>
<path style="fill:none;stroke-width:3;stroke-linecap:round;stroke-linejoin:round;stroke:rgb(100%,100%,100%);stroke-opacity:1;stroke-miterlimit:10;" d="M 103.886719 162.234375 L 104.246094 161.140625 L 107.949219 162.359375 L 109.261719 158.375 L 105.558594 157.15625 L 105.917969 156.046875 L 114.933594 159 L 114.574219 160.109375 L 110.277344 158.703125 L 108.964844 162.6875 L 113.261719 164.09375 L 112.902344 165.1875 Z M 112.921875 156.09375 L 108.84375 154.75 L 109.171875 153.765625 L 113.21875 155.09375 C 113.855469 155.304688 114.371094 155.351563 114.765625 155.234375 C 115.164063 155.109375 115.429688 154.824219 115.578125 154.375 C 115.753906 153.835938 115.703125 153.351563 115.421875 152.921875 C 115.140625 152.484375 114.671875 152.15625 114.015625 151.9375 L 110.1875 150.671875 L 110.515625 149.65625 L 117.265625 151.875 L 116.9375 152.890625 L 115.890625 152.546875 C 116.222656 152.921875 116.4375 153.304688 116.53125 153.6875 C 116.625 154.074219 116.597656 154.480469 116.453125 154.90625 C 116.234375 155.605469 115.820313 156.054688 115.21875 156.25 C 114.617188 156.449219 113.851563 156.398438 112.921875 156.09375 Z M 109.5 152.203125 Z M 113.515625 143.949219 L 109.859375 142.746094 L 110.1875 141.746094 L 119.578125 144.824219 L 119.25 145.824219 L 118.234375 145.496094 C 118.554688 145.832031 118.765625 146.195313 118.859375 146.589844 C 118.953125 146.976563 118.925781 147.386719 118.78125 147.824219 C 118.539063 148.574219 118.019531 149.074219 117.21875 149.324219 C 116.417969 149.566406 115.484375 149.507813 114.421875 149.152344 C 113.371094 148.808594 112.59375 148.304688 112.09375 147.636719 C 111.585938 146.960938 111.449219 146.246094 111.6875 145.496094 C 111.835938 145.058594 112.058594 144.710938 112.359375 144.449219 C 112.652344 144.191406 113.039063 144.023438 113.515625 143.949219 Z M 114.765625 148.121094 C 115.578125 148.394531 116.273438 148.457031 116.84375 148.308594 C 117.40625 148.152344 117.769531 147.808594 117.9375 147.277344 C 118.113281 146.746094 118.015625 146.257813 117.640625 145.808594 C 117.277344 145.351563 116.6875 144.988281 115.875 144.714844 C 115.054688 144.445313 114.367188 144.386719 113.8125 144.542969 C 113.25 144.691406 112.882813 145.027344 112.703125 145.558594 C 112.539063 146.089844 112.636719 146.585938 113 147.042969 C 113.355469 147.492188 113.945313 147.851563 114.765625 148.121094 Z M 114.953125 136.738281 L 116 137.082031 C 115.75 137.3125 115.539063 137.566406 115.359375 137.847656 C 115.183594 138.121094 115.042969 138.417969 114.9375 138.738281 C 114.78125 139.238281 114.746094 139.644531 114.828125 139.957031 C 114.914063 140.261719 115.125 140.46875 115.46875 140.582031 C 115.71875 140.667969 115.949219 140.640625 116.15625 140.503906 C 116.355469 140.371094 116.609375 140.058594 116.921875 139.566406 L 117.125 139.269531 C 117.523438 138.613281 117.921875 138.191406 118.328125 138.003906 C 118.734375 137.808594 119.210938 137.796875 119.75 137.972656 C 120.382813 138.183594 120.8125 138.566406 121.03125 139.128906 C 121.25 139.691406 121.226563 140.363281 120.96875 141.144531 C 120.863281 141.46875 120.71875 141.796875 120.53125 142.128906 C 120.351563 142.453125 120.128906 142.785156 119.859375 143.128906 L 118.71875 142.753906 C 119.054688 142.464844 119.335938 142.15625 119.5625 141.832031 C 119.78125 141.5 119.945313 141.15625 120.0625 140.800781 C 120.21875 140.34375 120.242188 139.957031 120.140625 139.644531 C 120.035156 139.332031 119.824219 139.125 119.5 139.019531 C 119.199219 138.917969 118.9375 138.933594 118.71875 139.066406 C 118.5 139.191406 118.21875 139.535156 117.875 140.097656 L 117.65625 140.410156 C 117.3125 140.996094 116.949219 141.375 116.5625 141.550781 C 116.167969 141.730469 115.710938 141.734375 115.1875 141.566406 C 114.554688 141.359375 114.132813 140.996094 113.921875 140.472656 C 113.703125 139.941406 113.71875 139.308594 113.96875 138.566406 C 114.085938 138.203125 114.230469 137.871094 114.40625 137.566406 C 114.574219 137.253906 114.757813 136.980469 114.953125 136.738281 Z M 116.929688 132.652344 C 116.753906 133.195313 116.847656 133.699219 117.210938 134.167969 C 117.578125 134.636719 118.164063 135.003906 118.976563 135.261719 C 119.789063 135.535156 120.476563 135.589844 121.039063 135.433594 C 121.601563 135.269531 121.96875 134.914063 122.148438 134.371094 C 122.324219 133.839844 122.230469 133.347656 121.867188 132.886719 C 121.503906 132.417969 120.921875 132.050781 120.117188 131.777344 C 119.316406 131.519531 118.628906 131.464844 118.054688 131.621094 C 117.484375 131.777344 117.109375 132.121094 116.929688 132.652344 Z M 115.992188 132.355469 C 116.285156 131.492188 116.828125 130.914063 117.617188 130.621094 C 118.410156 130.332031 119.359375 130.367188 120.460938 130.730469 C 121.578125 131.097656 122.359375 131.632813 122.820313 132.339844 C 123.289063 133.039063 123.375 133.820313 123.085938 134.683594 C 122.804688 135.558594 122.273438 136.144531 121.492188 136.433594 C 120.703125 136.714844 119.75 136.675781 118.632813 136.308594 C 117.53125 135.945313 116.742188 135.414063 116.273438 134.714844 C 115.804688 134.019531 115.710938 133.230469 115.992188 132.355469 Z M 121.953125 123.773438 L 126.03125 125.117188 L 125.703125 126.117188 L 121.671875 124.789063 C 121.027344 124.582031 120.511719 124.539063 120.125 124.664063 C 119.730469 124.789063 119.460938 125.078125 119.3125 125.523438 C 119.136719 126.054688 119.1875 126.539063 119.46875 126.976563 C 119.742188 127.414063 120.210938 127.742188 120.875 127.960938 L 124.6875 129.210938 L 124.359375 130.210938 L 117.609375 127.992188 L 117.9375 126.992188 L 118.984375 127.335938 C 118.664063 126.972656 118.453125 126.597656 118.359375 126.210938 C 118.257813 125.816406 118.273438 125.40625 118.40625 124.976563 C 118.636719 124.289063 119.054688 123.84375 119.65625 123.632813 C 120.25 123.425781 121.015625 123.472656 121.953125 123.773438 Z M 124.890625 114.34375 C 125.070313 114.125 125.339844 113.953125 125.703125 113.828125 C 126.058594 113.695313 126.523438 113.59375 127.09375 113.53125 L 129.921875 113.234375 L 129.53125 114.421875 L 126.890625 114.6875 C 126.203125 114.75 125.726563 114.882813 125.453125 115.078125 C 125.171875 115.265625 124.960938 115.574219 124.8125 116 L 124.421875 117.203125 L 128.21875 118.453125 L 127.859375 119.546875 L 118.84375 116.59375 L 119.65625 114.125 C 119.960938 113.199219 120.402344 112.578125 120.984375 112.265625 C 121.570313 111.945313 122.292969 111.921875 123.15625 112.203125 C 123.730469 112.390625 124.167969 112.667969 124.46875 113.03125 C 124.761719 113.398438 124.902344 113.835938 124.890625 114.34375 Z M 120.21875 115.828125 L 123.40625 116.875 L 123.859375 115.5 C 124.039063 114.96875 124.03125 114.527344 123.84375 114.171875 C 123.65625 113.808594 123.296875 113.539063 122.765625 113.359375 C 122.246094 113.195313 121.8125 113.203125 121.46875 113.390625 C 121.117188 113.570313 120.851563 113.921875 120.671875 114.453125 Z M 123.625 109.652344 L 123.953125 108.652344 L 130.703125 110.871094 L 130.375 111.871094 Z M 120.984375 108.792969 L 121.3125 107.792969 L 122.734375 108.261719 L 122.40625 109.261719 Z M 124.402344 107.28125 L 124.746094 106.234375 L 131.042969 106.1875 L 125.996094 102.421875 L 126.339844 101.359375 L 132.339844 105.859375 L 131.902344 107.21875 Z M 131.589844 95.800781 L 132.121094 95.988281 L 130.621094 100.597656 C 131.414063 100.796875 132.070313 100.777344 132.589844 100.535156 C 133.101563 100.285156 133.464844 99.832031 133.683594 99.175781 C 133.808594 98.792969 133.875 98.402344 133.886719 98.003906 C 133.90625 97.609375 133.871094 97.203125 133.777344 96.785156 L 134.824219 97.128906 C 134.875 97.535156 134.878906 97.949219 134.839844 98.363281 C 134.808594 98.769531 134.730469 99.167969 134.605469 99.550781 C 134.292969 100.519531 133.730469 101.1875 132.917969 101.550781 C 132.105469 101.90625 131.164063 101.910156 130.089844 101.566406 C 128.988281 101.203125 128.199219 100.644531 127.730469 99.894531 C 127.253906 99.136719 127.160156 98.300781 127.449219 97.394531 C 127.722656 96.574219 128.226563 96.019531 128.964844 95.738281 C 129.707031 95.457031 130.582031 95.480469 131.589844 95.800781 Z M 130.933594 96.722656 C 130.332031 96.527344 129.800781 96.515625 129.339844 96.691406 C 128.871094 96.859375 128.558594 97.1875 128.402344 97.675781 C 128.214844 98.238281 128.246094 98.75 128.496094 99.207031 C 128.738281 99.65625 129.164063 100.011719 129.777344 100.269531 Z M 131.222656 89.953125 C 131.109375 90.046875 131.015625 90.15625 130.941406 90.28125 C 130.871094 90.398438 130.808594 90.539063 130.753906 90.703125 C 130.566406 91.265625 130.628906 91.765625 130.941406 92.203125 C 131.246094 92.632813 131.777344 92.96875 132.535156 93.21875 L 136.097656 94.390625 L 135.769531 95.390625 L 129.019531 93.171875 L 129.347656 92.171875 L 130.394531 92.515625 C 130.050781 92.171875 129.839844 91.804688 129.753906 91.40625 C 129.660156 91 129.691406 90.5625 129.847656 90.09375 C 129.871094 90.023438 129.902344 89.949219 129.941406 89.875 C 129.972656 89.792969 130.019531 89.695313 130.082031 89.578125 Z M 131.222656 89.953125 "/>
<path style=" stroke:none;fill-rule:evenodd;fill:rgb(41.960784%,58.039216%,69.019608%);fill-opacity:1;" d="M 103.886719 162.234375 L 104.246094 161.140625 L 107.949219 162.359375 L 109.261719 158.375 L 105.558594 157.15625 L 105.917969 156.046875 L 114.933594 159 L 114.574219 160.109375 L 110.277344 158.703125 L 108.964844 162.6875 L 113.261719 164.09375 L 112.902344 165.1875 Z M 112.921875 156.09375 L 108.84375 154.75 L 109.171875 153.765625 L 113.21875 155.09375 C 113.855469 155.304688 114.371094 155.351563 114.765625 155.234375 C 115.164063 155.109375 115.429688 154.824219 115.578125 154.375 C 115.753906 153.835938 115.703125 153.351563 115.421875 152.921875 C 115.140625 152.484375 114.671875 152.15625 114.015625 151.9375 L 110.1875 150.671875 L 110.515625 149.65625 L 117.265625 151.875 L 116.9375 152.890625 L 115.890625 152.546875 C 116.222656 152.921875 116.4375 153.304688 116.53125 153.6875 C 116.625 154.074219 116.597656 154.480469 116.453125 154.90625 C 116.234375 155.605469 115.820313 156.054688 115.21875 156.25 C 114.617188 156.449219 113.851563 156.398438 112.921875 156.09375 Z M 109.5 152.203125 Z M 113.515625 143.949219 L 109.859375 142.746094 L 110.1875 141.746094 L 119.578125 144.824219 L 119.25 145.824219 L 118.234375 145.496094 C 118.554688 145.832031 118.765625 146.195313 118.859375 146.589844 C 118.953125 146.976563 118.925781 147.386719 118.78125 147.824219 C 118.539063 148.574219 118.019531 149.074219 117.21875 149.324219 C 116.417969 149.566406 115.484375 149.507813 114.421875 149.152344 C 113.371094 148.808594 112.59375 148.304688 112.09375 147.636719 C 111.585938 146.960938 111.449219 146.246094 111.6875 145.496094 C 111.835938 145.058594 112.058594 144.710938 112.359375 144.449219 C 112.652344 144.191406 113.039063 144.023438 113.515625 143.949219 Z M 114.765625 148.121094 C 115.578125 148.394531 116.273438 148.457031 116.84375 148.308594 C 117.40625 148.152344 117.769531 147.808594 117.9375 147.277344 C 118.113281 146.746094 118.015625 146.257813 117.640625 145.808594 C 117.277344 145.351563 116.6875 144.988281 115.875 144.714844 C 115.054688 144.445313 114.367188 144.386719 113.8125 144.542969 C 113.25 144.691406 112.882813 145.027344 112.703125 145.558594 C 112.539063 146.089844 112.636719 146.585938 113 147.042969 C 113.355469 147.492188 113.945313 147.851563 114.765625 148.121094 Z M 114.953125 136.738281 L 116 137.082031 C 115.75 137.3125 115.539063 137.566406 115.359375 137.847656 C 115.183594 138.121094 115.042969 138.417969 114.9375 138.738281 C 114.78125 139.238281 114.746094 139.644531 114.828125 139.957031 C 114.914063 140.261719 115.125 140.46875 115.46875 140.582031 C 115.71875 140.667969 115.949219 140.640625 116.15625 140.503906 C 116.355469 140.371094 116.609375 140.058594 116.921875 139.566406 L 117.125 139.269531 C 117.523438 138.613281 117.921875 138.191406 118.328125 138.003906 C 118.734375 137.808594 119.210938 137.796875 119.75 137.972656 C 120.382813 138.183594 120.8125 138.566406 121.03125 139.128906 C 121.25 139.691406 121.226563 140.363281 120.96875 141.144531 C 120.863281 141.46875 120.71875 141.796875 120.53125 142.128906 C 120.351563 142.453125 120.128906 142.785156 119.859375 143.128906 L 118.71875 142.753906 C 119.054688 142.464844 119.335938 142.15625 119.5625 141.832031 C 119.78125 141.5 119.945313 141.15625 120.0625 140.800781 C 120.21875 140.34375 120.242188 139.957031 120.140625 139.644531 C 120.035156 139.332031 119.824219 139.125 119.5 139.019531 C 119.199219 138.917969 118.9375 138.933594 118.71875 139.066406 C 118.5 139.191406 118.21875 139.535156 117.875 140.097656 L 117.65625 140.410156 C 117.3125 140.996094 116.949219 141.375 116.5625 141.550781 C 116.167969 141.730469 115.710938 141.734375 115.1875 141.566406 C 114.554688 141.359375 114.132813 140.996094 113.921875 140.472656 C 113.703125 139.941406 113.71875 139.308594 113.96875 138.566406 C 114.085938 138.203125 114.230469 137.871094 114.40625 137.566406 C 114.574219 137.253906 114.757813 136.980469 114.953125 136.738281 Z M 116.929688 132.652344 C 116.753906 133.195313 116.847656 133.699219 117.210938 134.167969 C 117.578125 134.636719 118.164063 135.003906 118.976563 135.261719 C 119.789063 135.535156 120.476563 135.589844 121.039063 135.433594 C 121.601563 135.269531 121.96875 134.914063 122.148438 134.371094 C 122.324219 133.839844 122.230469 133.347656 121.867188 132.886719 C 121.503906 132.417969 120.921875 132.050781 120.117188 131.777344 C 119.316406 131.519531 118.628906 131.464844 118.054688 131.621094 C 117.484375 131.777344 117.109375 132.121094 116.929688 132.652344 Z M 115.992188 132.355469 C 116.285156 131.492188 116.828125 130.914063 117.617188 130.621094 C 118.410156 130.332031 119.359375 130.367188 120.460938 130.730469 C 121.578125 131.097656 122.359375 131.632813 122.820313 132.339844 C 123.289063 133.039063 123.375 133.820313 123.085938 134.683594 C 122.804688 135.558594 122.273438 136.144531 121.492188 136.433594 C 120.703125 136.714844 119.75 136.675781 118.632813 136.308594 C 117.53125 135.945313 116.742188 135.414063 116.273438 134.714844 C 115.804688 134.019531 115.710938 133.230469 115.992188 132.355469 Z M 121.953125 123.773438 L 126.03125 125.117188 L 125.703125 126.117188 L 121.671875 124.789063 C 121.027344 124.582031 120.511719 124.539063 120.125 124.664063 C 119.730469 124.789063 119.460938 125.078125 119.3125 125.523438 C 119.136719 126.054688 119.1875 126.539063 119.46875 126.976563 C 119.742188 127.414063 120.210938 127.742188 120.875 127.960938 L 124.6875 129.210938 L 124.359375 130.210938 L 117.609375 127.992188 L 117.9375 126.992188 L 118.984375 127.335938 C 118.664063 126.972656 118.453125 126.597656 118.359375 126.210938 C 118.257813 125.816406 118.273438 125.40625 118.40625 124.976563 C 118.636719 124.289063 119.054688 123.84375 119.65625 123.632813 C 120.25 123.425781 121.015625 123.472656 121.953125 123.773438 Z M 124.890625 114.34375 C 125.070313 114.125 125.339844 113.953125 125.703125 113.828125 C 126.058594 113.695313 126.523438 113.59375 127.09375 113.53125 L 129.921875 113.234375 L 129.53125 114.421875 L 126.890625 114.6875 C 126.203125 114.75 125.726563 114.882813 125.453125 115.078125 C 125.171875 115.265625 124.960938 115.574219 124.8125 116 L 124.421875 117.203125 L 128.21875 118.453125 L 127.859375 119.546875 L 118.84375 116.59375 L 119.65625 114.125 C 119.960938 113.199219 120.402344 112.578125 120.984375 112.265625 C 121.570313 111.945313 122.292969 111.921875 123.15625 112.203125 C 123.730469 112.390625 124.167969 112.667969 124.46875 113.03125 C 124.761719 113.398438 124.902344 113.835938 124.890625 114.34375 Z M 120.21875 115.828125 L 123.40625 116.875 L 123.859375 115.5 C 124.039063 114.96875 124.03125 114.527344 123.84375 114.171875 C 123.65625 113.808594 123.296875 113.539063 122.765625 113.359375 C 122.246094 113.195313 121.8125 113.203125 121.46875 113.390625 C 121.117188 113.570313 120.851563 113.921875 120.671875 114.453125 Z M 123.625 109.652344 L 123.953125 108.652344 L 130.703125 110.871094 L 130.375 111.871094 Z M 120.984375 108.792969 L 121.3125 107.792969 L 122.734375 108.261719 L 122.40625 109.261719 Z M 124.402344 107.28125 L 124.746094 106.234375 L 131.042969 106.1875 L 125.996094 102.421875 L 126.339844 101.359375 L 132.339844 105.859375 L 131.902344 107.21875 Z M 131.589844 95.800781 L 132.121094 95.988281 L 130.621094 100.597656 C 131.414063 100.796875 132.070313 100.777344 132.589844 100.535156 C 133.101563 100.285156 133.464844 99.832031 133.683594 99.175781 C 133.808594 98.792969 133.875 98.402344 133.886719 98.003906 C 133.90625 97.609375 133.871094 97.203125 133.777344 96.785156 L 134.824219 97.128906 C 134.875 97.535156 134.878906 97.949219 134.839844 98.363281 C 134.808594 98.769531 134.730469 99.167969 134.605469 99.550781 C 134.292969 100.519531 133.730469 101.1875 132.917969 101.550781 C 132.105469 101.90625 131.164063 101.910156 130.089844 101.566406 C 128.988281 101.203125 128.199219 100.644531 127.730469 99.894531 C 127.253906 99.136719 127.160156 98.300781 127.449219 97.394531 C 127.722656 96.574219 128.226563 96.019531 128.964844 95.738281 C 129.707031 95.457031 130.582031 95.480469 131.589844 95.800781 Z M 130.933594 96.722656 C 130.332031 96.527344 129.800781 96.515625 129.339844 96.691406 C 128.871094 96.859375 128.558594 97.1875 128.402344 97.675781 C 128.214844 98.238281 128.246094 98.75 128.496094 99.207031 C 128.738281 99.65625 129.164063 100.011719 129.777344 100.269531 Z M 131.222656 89.953125 C 131.109375 90.046875 131.015625 90.15625 130.941406 90.28125 C 130.871094 90.398438 130.808594 90.539063 130.753906 90.703125 C 130.566406 91.265625 130.628906 91.765625 130.941406 92.203125 C 131.246094 92.632813 131.777344 92.96875 132.535156 93.21875 L 136.097656 94.390625 L 135.769531 95.390625 L 129.019531 93.171875 L 129.347656 92.171875 L 130.394531 92.515625 C 130.050781 92.171875 129.839844 91.804688 129.753906 91.40625 C 129.660156 91 129.691406 90.5625 129.847656 90.09375 C 129.871094 90.023438 129.902344 89.949219 129.941406 89.875 C 129.972656 89.792969 130.019531 89.695313 130.082031 89.578125 Z M 131.222656 89.953125 "/>
</g>
</svg>

