<?xml version="1.0" encoding="UTF-8"?>
<svg xmlns="http://www.w3.org/2000/svg" xmlns:xlink="http://www.w3.org/1999/xlink" width="256pt" height="256pt" viewBox="0 0 256 256" version="1.1">
<g id="surface2">
<rect x="0" y="0" width="256" height="256" style="fill:rgb(94.901961%,93.72549%,91.372549%);fill-opacity:1;stroke:none;"/>
<path style=" stroke:none;fill-rule:evenodd;fill:rgb(60%,70.196078%,80%);fill-opacity:1;" d="M -4 259 L -4 -4 L 259 -4 L -4 -4 Z M -4 259 "/>
<path style="fill:none;stroke-width:1;stroke-linecap:round;stroke-linejoin:round;stroke:rgb(70.196078%,77.647059%,83.137255%);stroke-opacity:1;stroke-miterlimit:10;" d="M -4 259 L -4 -4 L 259 -4 L -4 -4 L -4 259 "/>
<path style="fill:none;stroke-width:8;stroke-linecap:round;stroke-linejoin:round;stroke:rgb(75.686275%,70.980392%,61.568627%);stroke-opacity:1;stroke-miterlimit:10;" d="M 13.699219 264 L 14.277344 259.195313 L 15.304688 234.824219 L 16.214844 230.316406 L 20.199219 219.210938 L 21.011719 215.050781 L 21.128906 213.140625 L 20.921875 211.011719 L 18.589844 199.40625 L 17.472656 191.644531 L 12.742188 166.050781 L 10.503906 156.382813 L 9.570313 146.839844 L 7.054688 132.292969 "/>
<path style="fill:none;stroke-width:6;stroke-linecap:round;stroke-linejoin:round;stroke:rgb(100%,100%,100%);stroke-opacity:1;stroke-miterlimit:10;" d="M 13.699219 264 L 14.277344 259.195313 L 15.304688 234.824219 L 16.214844 230.316406 L 20.199219 219.210938 L 21.011719 215.050781 L 21.128906 213.140625 L 20.921875 211.011719 L 18.589844 199.40625 L 17.472656 191.644531 L 12.742188 166.050781 L 10.503906 156.382813 L 9.570313 146.839844 L 7.054688 132.292969 "/>
</g>
</svg>

