<?xml version="1.0" encoding="UTF-8"?>
<svg xmlns="http://www.w3.org/2000/svg" xmlns:xlink="http://www.w3.org/1999/xlink" width="256pt" height="256pt" viewBox="0 0 256 256" version="1.1">
<g id="surface2">
<rect x="0" y="0" width="256" height="256" style="fill:rgb(60%,70.196078%,80%);fill-opacity:1;stroke:none;"/>
<path style=" stroke:none;fill-rule:evenodd;fill:rgb(94.901961%,93.72549%,91.372549%);fill-opacity:1;" d="M -4 -4 L 64.652344 -4 L 64.652344 2.015625 L 55.222656 -2.199219 L 51.085938 -4 L -4 -4 L -4 259 Z M -4 -4 "/>
<path style=" stroke:none;fill-rule:evenodd;fill:rgb(94.901961%,93.72549%,91.372549%);fill-opacity:1;" d="M 259 -4 L 259 54.164063 L 258.34375 53.804688 L 257.820313 54.519531 L 256.289063 53.886719 L 250.035156 65.152344 L 251.390625 65.957031 L 250.320313 67.839844 L 252.175781 69.050781 L 252.027344 69.472656 L 254.792969 71.125 L 250.597656 78.769531 L 247.308594 76.996094 L 236.757813 96.3125 L 239.964844 98.222656 L 237.847656 101.6875 L 147.847656 51.300781 L 146.347656 45.300781 L 138.722656 39.800781 L 105.597656 23.050781 L 92.972656 14.675781 L 55.222656 -2.199219 L 51.085938 -4 Z M 259 -4 "/>
</g>
</svg>

