<?xml version="1.0" encoding="UTF-8"?>
<svg xmlns="http://www.w3.org/2000/svg" xmlns:xlink="http://www.w3.org/1999/xlink" width="256pt" height="256pt" viewBox="0 0 256 256" version="1.1">
<g id="surface2">
<rect x="0" y="0" width="256" height="256" style="fill:rgb(94.901961%,93.72549%,91.372549%);fill-opacity:1;stroke:none;"/>
<path style=" stroke:none;fill-rule:evenodd;fill:rgb(60%,70.196078%,80%);fill-opacity:1;" d="M -4 259 L 259 259 L 259 -4 L -4 -4 L 259 -4 L 23.042969 -4 L 11.714844 7.183594 L 1.882813 21.933594 L -4 30.621094 Z M -4 259 "/>
<path style="fill:none;stroke-width:1;stroke-linecap:round;stroke-linejoin:round;stroke:rgb(70.196078%,77.647059%,83.137255%);stroke-opacity:1;stroke-miterlimit:10;" d="M -4 259 L 259 259 L 259 -4 L -4 -4 L 259 -4 L 23.042969 -4 L 11.714844 7.183594 L 1.882813 21.933594 L -4 30.621094 L -4 259 "/>
<path style=" stroke:none;fill-rule:evenodd;fill:rgb(60%,70.196078%,80%);fill-opacity:1;" d="M -4 19.0625 L 0.765625 12.277344 L 1.269531 10.027344 L 3.019531 8.027344 L 4.519531 4.777344 L 6.519531 4.027344 L 14.542969 -4 L 8.574219 -4 L 7.269531 -2.972656 L 3.265625 1.027344 L 0.515625 2.777344 L -1.734375 3.277344 L -2.230469 6.777344 L -2.984375 8.027344 L -4 9.230469 Z M -4 19.0625 "/>
<path style="fill:none;stroke-width:1;stroke-linecap:round;stroke-linejoin:round;stroke:rgb(70.196078%,77.647059%,83.137255%);stroke-opacity:1;stroke-miterlimit:10;" d="M -4 19.0625 L 0.765625 12.277344 L 1.269531 10.027344 L 3.019531 8.027344 L 4.519531 4.777344 L 6.519531 4.027344 L 14.542969 -4 L 8.574219 -4 L 7.269531 -2.972656 L 3.265625 1.027344 L 0.515625 2.777344 L -1.734375 3.277344 L -2.230469 6.777344 L -2.984375 8.027344 L -4 9.230469 L -4 19.0625 "/>
<path style="fill:none;stroke-width:6;stroke-linecap:round;stroke-linejoin:round;stroke:rgb(60%,70.196078%,80%);stroke-opacity:1;stroke-miterlimit:10;" d="M 262 114.152344 L 157.09375 241.75 "/>
<path style="fill:none;stroke-width:6;stroke-linecap:round;stroke-linejoin:round;stroke:rgb(60%,70.196078%,80%);stroke-opacity:1;stroke-miterlimit:10;" d="M 157.09375 241.75 L 144.785156 262 "/>
<path style="fill:none;stroke-width:1;stroke-linecap:butt;stroke-linejoin:round;stroke:rgb(46.666667%,46.666667%,46.666667%);stroke-opacity:1;stroke-dasharray:2,2;stroke-miterlimit:10;" d="M -2 19.695313 L 6.109375 8.898438 L 13.8125 -0.335938 L 15.6875 -2 "/>
<path style="fill:none;stroke-width:10;stroke-linecap:round;stroke-linejoin:round;stroke:rgb(75.686275%,70.980392%,61.568627%);stroke-opacity:1;stroke-miterlimit:10;" d="M -11 -0.207031 L -7.664063 -2.929688 L -3.558594 -6.042969 L 0.390625 -8.929688 L 3.320313 -11 "/>
<path style="fill:none;stroke-width:8;stroke-linecap:round;stroke-linejoin:round;stroke:rgb(100%,99.215686%,54.509804%);stroke-opacity:1;stroke-miterlimit:10;" d="M -11 -0.207031 L -7.664063 -2.929688 L -3.558594 -6.042969 L 0.390625 -8.929688 L 3.320313 -11 "/>
<path style="fill:none;stroke-width:3;stroke-linecap:round;stroke-linejoin:round;stroke:rgb(100%,100%,100%);stroke-opacity:1;stroke-miterlimit:10;" d="M 181.820313 204.378906 L 182.539063 203.488281 L 185.539063 205.957031 L 188.210938 202.722656 L 185.210938 200.253906 L 185.945313 199.363281 L 193.273438 205.378906 L 192.539063 206.269531 L 189.054688 203.394531 L 186.382813 206.628906 L 189.867188 209.503906 L 189.148438 210.394531 Z M 192.46875 201.945313 L 189.15625 199.210938 L 189.8125 198.398438 L 193.09375 201.101563 C 193.617188 201.53125 194.078125 201.757813 194.484375 201.789063 C 194.898438 201.820313 195.253906 201.65625 195.546875 201.289063 C 195.910156 200.851563 196.039063 200.378906 195.9375 199.867188 C 195.84375 199.359375 195.523438 198.882813 194.984375 198.445313 L 191.875 195.882813 L 192.546875 195.070313 L 198.03125 199.585938 L 197.359375 200.398438 L 196.515625 199.710938 C 196.691406 200.179688 196.753906 200.613281 196.703125 201.007813 C 196.648438 201.40625 196.476563 201.773438 196.1875 202.117188 C 195.726563 202.679688 195.179688 202.945313 194.546875 202.914063 C 193.921875 202.882813 193.230469 202.5625 192.46875 201.945313 Z M 190.6875 197.054688 Z M 197.429688 190.820313 L 194.460938 188.382813 L 195.117188 187.585938 L 202.742188 193.851563 L 202.085938 194.648438 L 201.257813 193.976563 C 201.445313 194.414063 201.507813 194.832031 201.445313 195.226563 C 201.390625 195.625 201.21875 196.003906 200.929688 196.367188 C 200.429688 196.960938 199.757813 197.226563 198.914063 197.164063 C 198.082031 197.101563 197.238281 196.71875 196.382813 196.007813 C 195.519531 195.300781 194.976563 194.539063 194.757813 193.726563 C 194.53125 192.914063 194.664063 192.210938 195.164063 191.617188 C 195.457031 191.253906 195.789063 191.007813 196.164063 190.882813 C 196.539063 190.75 196.960938 190.726563 197.429688 190.820313 Z M 197.070313 195.164063 C 197.726563 195.707031 198.347656 196.015625 198.929688 196.085938 C 199.511719 196.148438 199.980469 195.96875 200.335938 195.539063 C 200.6875 195.101563 200.777344 194.609375 200.601563 194.054688 C 200.421875 193.492188 200.007813 192.941406 199.351563 192.398438 C 198.6875 191.847656 198.066406 191.539063 197.492188 191.476563 C 196.910156 191.414063 196.441406 191.601563 196.085938 192.039063 C 195.734375 192.46875 195.644531 192.957031 195.820313 193.507813 C 195.988281 194.0625 196.40625 194.613281 197.070313 195.164063 Z M 201.394531 184.632813 L 202.238281 185.335938 C 201.917969 185.460938 201.625 185.625 201.363281 185.820313 C 201.105469 186.007813 200.863281 186.238281 200.644531 186.507813 C 200.3125 186.90625 200.128906 187.265625 200.097656 187.585938 C 200.066406 187.910156 200.1875 188.179688 200.457031 188.398438 C 200.667969 188.578125 200.890625 188.640625 201.128906 188.585938 C 201.371094 188.523438 201.722656 188.320313 202.191406 187.976563 L 202.472656 187.773438 C 203.089844 187.316406 203.617188 187.066406 204.066406 187.023438 C 204.511719 186.984375 204.960938 187.144531 205.410156 187.507813 C 205.917969 187.9375 206.175781 188.457031 206.175781 189.070313 C 206.175781 189.675781 205.914063 190.296875 205.394531 190.929688 C 205.183594 191.191406 204.929688 191.441406 204.628906 191.679688 C 204.335938 191.921875 204.003906 192.144531 203.628906 192.351563 L 202.691406 191.585938 C 203.121094 191.441406 203.492188 191.257813 203.816406 191.039063 C 204.136719 190.820313 204.417969 190.566406 204.660156 190.273438 C 204.972656 189.898438 205.136719 189.550781 205.160156 189.226563 C 205.179688 188.90625 205.054688 188.632813 204.785156 188.414063 C 204.542969 188.21875 204.300781 188.140625 204.050781 188.179688 C 203.800781 188.210938 203.40625 188.425781 202.863281 188.820313 L 202.566406 189.039063 C 202.035156 189.457031 201.558594 189.679688 201.128906 189.710938 C 200.691406 189.734375 200.265625 189.566406 199.847656 189.210938 C 199.328125 188.796875 199.066406 188.304688 199.066406 187.742188 C 199.058594 187.171875 199.300781 186.582031 199.800781 185.976563 C 200.042969 185.675781 200.296875 185.414063 200.566406 185.195313 C 200.828125 184.96875 201.105469 184.78125 201.394531 184.632813 Z M 204.703125 181.550781 C 204.351563 181.988281 204.257813 182.488281 204.421875 183.050781 C 204.589844 183.613281 205.007813 184.167969 205.671875 184.707031 C 206.328125 185.25 206.949219 185.550781 207.53125 185.613281 C 208.113281 185.667969 208.582031 185.472656 208.9375 185.035156 C 209.300781 184.597656 209.394531 184.097656 209.21875 183.535156 C 209.050781 182.972656 208.644531 182.425781 208 181.894531 C 207.34375 181.355469 206.726563 181.050781 206.140625 180.988281 C 205.546875 180.925781 205.070313 181.113281 204.703125 181.550781 Z M 203.9375 180.925781 C 204.523438 180.21875 205.234375 179.875 206.078125 179.894531 C 206.921875 179.917969 207.796875 180.296875 208.703125 181.035156 C 209.597656 181.777344 210.132813 182.558594 210.3125 183.378906 C 210.488281 184.203125 210.285156 184.96875 209.703125 185.675781 C 209.128906 186.386719 208.421875 186.730469 207.578125 186.707031 C 206.734375 186.6875 205.867188 186.308594 204.96875 185.566406 C 204.0625 184.828125 203.523438 184.046875 203.34375 183.222656 C 203.167969 182.402344 203.367188 181.636719 203.9375 180.925781 Z M 212.605469 175.101563 L 215.917969 177.835938 L 215.246094 178.632813 L 211.964844 175.929688 C 211.445313 175.503906 210.980469 175.28125 210.574219 175.257813 C 210.160156 175.226563 209.804688 175.394531 209.511719 175.757813 C 209.148438 176.1875 209.019531 176.65625 209.121094 177.164063 C 209.226563 177.675781 209.542969 178.15625 210.074219 178.601563 L 213.183594 181.148438 L 212.511719 181.960938 L 207.027344 177.445313 L 207.699219 176.632813 L 208.542969 177.335938 C 208.386719 176.867188 208.335938 176.4375 208.386719 176.039063 C 208.429688 175.644531 208.589844 175.273438 208.871094 174.929688 C 209.339844 174.367188 209.894531 174.101563 210.527344 174.132813 C 211.152344 174.164063 211.84375 174.488281 212.605469 175.101563 Z M 218.789063 167.371094 C 219.015625 167.226563 219.320313 167.160156 219.695313 167.167969 C 220.078125 167.179688 220.554688 167.261719 221.117188 167.417969 L 223.867188 168.167969 L 223.070313 169.121094 L 220.492188 168.417969 C 219.824219 168.230469 219.328125 168.175781 219.007813 168.246094 C 218.6875 168.320313 218.378906 168.535156 218.085938 168.886719 L 217.273438 169.855469 L 220.367188 172.402344 L 219.648438 173.292969 L 212.320313 167.277344 L 213.960938 165.277344 C 214.585938 164.519531 215.226563 164.097656 215.882813 164.011719 C 216.539063 163.929688 217.222656 164.179688 217.929688 164.761719 C 218.390625 165.136719 218.691406 165.550781 218.835938 165.996094 C 218.980469 166.433594 218.964844 166.894531 218.789063 167.371094 Z M 213.867188 167.058594 L 216.460938 169.183594 L 217.382813 168.074219 C 217.75 167.636719 217.910156 167.222656 217.867188 166.824219 C 217.816406 166.417969 217.578125 166.042969 217.148438 165.699219 C 216.722656 165.347656 216.316406 165.191406 215.929688 165.230469 C 215.535156 165.273438 215.15625 165.511719 214.789063 165.949219 Z M 219.292969 162.535156 L 219.964844 161.722656 L 225.449219 166.238281 L 224.777344 167.050781 Z M 217.152344 160.785156 L 217.824219 159.972656 L 218.964844 160.910156 L 218.292969 161.722656 Z M 220.875 160.617188 L 221.578125 159.757813 L 227.453125 162.007813 L 224.125 156.664063 L 224.828125 155.804688 L 228.796875 162.179688 L 227.890625 163.273438 Z M 231.738281 152.535156 L 232.175781 152.894531 L 229.097656 156.628906 C 229.765625 157.097656 230.378906 157.316406 230.941406 157.285156 C 231.511719 157.246094 232.023438 156.957031 232.472656 156.425781 C 232.730469 156.113281 232.933594 155.78125 233.082031 155.425781 C 233.238281 155.0625 233.347656 154.660156 233.410156 154.222656 L 234.269531 154.925781 C 234.164063 155.332031 234.023438 155.722656 233.847656 156.097656 C 233.667969 156.464844 233.449219 156.800781 233.191406 157.113281 C 232.542969 157.894531 231.773438 158.308594 230.878906 158.347656 C 229.996094 158.390625 229.121094 158.050781 228.253906 157.332031 C 227.347656 156.59375 226.8125 155.792969 226.644531 154.925781 C 226.480469 154.050781 226.703125 153.246094 227.316406 152.503906 C 227.859375 151.839844 228.527344 151.511719 229.316406 151.519531 C 230.109375 151.519531 230.914063 151.859375 231.738281 152.535156 Z M 230.800781 153.128906 C 230.3125 152.722656 229.824219 152.519531 229.332031 152.519531 C 228.832031 152.519531 228.417969 152.71875 228.082031 153.113281 C 227.707031 153.574219 227.558594 154.058594 227.628906 154.566406 C 227.691406 155.066406 227.957031 155.550781 228.425781 156.019531 Z M 233.53125 146.941406 C 233.398438 146.996094 233.273438 147.0625 233.15625 147.144531 C 233.03125 147.230469 232.917969 147.339844 232.8125 147.472656 C 232.4375 147.933594 232.3125 148.421875 232.4375 148.941406 C 232.5625 149.453125 232.9375 149.964844 233.5625 150.472656 L 236.453125 152.847656 L 235.78125 153.660156 L 230.296875 149.144531 L 230.96875 148.332031 L 231.8125 149.035156 C 231.625 148.589844 231.5625 148.160156 231.625 147.753906 C 231.6875 147.347656 231.875 146.953125 232.1875 146.566406 C 232.242188 146.515625 232.304688 146.457031 232.375 146.394531 C 232.4375 146.332031 232.511719 146.265625 232.59375 146.191406 Z M 233.53125 146.941406 "/>
<path style=" stroke:none;fill-rule:evenodd;fill:rgb(41.960784%,58.039216%,69.019608%);fill-opacity:1;" d="M 181.820313 204.378906 L 182.539063 203.488281 L 185.539063 205.957031 L 188.210938 202.722656 L 185.210938 200.253906 L 185.945313 199.363281 L 193.273438 205.378906 L 192.539063 206.269531 L 189.054688 203.394531 L 186.382813 206.628906 L 189.867188 209.503906 L 189.148438 210.394531 Z M 192.46875 201.945313 L 189.15625 199.210938 L 189.8125 198.398438 L 193.09375 201.101563 C 193.617188 201.53125 194.078125 201.757813 194.484375 201.789063 C 194.898438 201.820313 195.253906 201.65625 195.546875 201.289063 C 195.910156 200.851563 196.039063 200.378906 195.9375 199.867188 C 195.84375 199.359375 195.523438 198.882813 194.984375 198.445313 L 191.875 195.882813 L 192.546875 195.070313 L 198.03125 199.585938 L 197.359375 200.398438 L 196.515625 199.710938 C 196.691406 200.179688 196.753906 200.613281 196.703125 201.007813 C 196.648438 201.40625 196.476563 201.773438 196.1875 202.117188 C 195.726563 202.679688 195.179688 202.945313 194.546875 202.914063 C 193.921875 202.882813 193.230469 202.5625 192.46875 201.945313 Z M 190.6875 197.054688 Z M 197.429688 190.820313 L 194.460938 188.382813 L 195.117188 187.585938 L 202.742188 193.851563 L 202.085938 194.648438 L 201.257813 193.976563 C 201.445313 194.414063 201.507813 194.832031 201.445313 195.226563 C 201.390625 195.625 201.21875 196.003906 200.929688 196.367188 C 200.429688 196.960938 199.757813 197.226563 198.914063 197.164063 C 198.082031 197.101563 197.238281 196.71875 196.382813 196.007813 C 195.519531 195.300781 194.976563 194.539063 194.757813 193.726563 C 194.53125 192.914063 194.664063 192.210938 195.164063 191.617188 C 195.457031 191.253906 195.789063 191.007813 196.164063 190.882813 C 196.539063 190.75 196.960938 190.726563 197.429688 190.820313 Z M 197.070313 195.164063 C 197.726563 195.707031 198.347656 196.015625 198.929688 196.085938 C 199.511719 196.148438 199.980469 195.96875 200.335938 195.539063 C 200.6875 195.101563 200.777344 194.609375 200.601563 194.054688 C 200.421875 193.492188 200.007813 192.941406 199.351563 192.398438 C 198.6875 191.847656 198.066406 191.539063 197.492188 191.476563 C 196.910156 191.414063 196.441406 191.601563 196.085938 192.039063 C 195.734375 192.46875 195.644531 192.957031 195.820313 193.507813 C 195.988281 194.0625 196.40625 194.613281 197.070313 195.164063 Z M 201.394531 184.632813 L 202.238281 185.335938 C 201.917969 185.460938 201.625 185.625 201.363281 185.820313 C 201.105469 186.007813 200.863281 186.238281 200.644531 186.507813 C 200.3125 186.90625 200.128906 187.265625 200.097656 187.585938 C 200.066406 187.910156 200.1875 188.179688 200.457031 188.398438 C 200.667969 188.578125 200.890625 188.640625 201.128906 188.585938 C 201.371094 188.523438 201.722656 188.320313 202.191406 187.976563 L 202.472656 187.773438 C 203.089844 187.316406 203.617188 187.066406 204.066406 187.023438 C 204.511719 186.984375 204.960938 187.144531 205.410156 187.507813 C 205.917969 187.9375 206.175781 188.457031 206.175781 189.070313 C 206.175781 189.675781 205.914063 190.296875 205.394531 190.929688 C 205.183594 191.191406 204.929688 191.441406 204.628906 191.679688 C 204.335938 191.921875 204.003906 192.144531 203.628906 192.351563 L 202.691406 191.585938 C 203.121094 191.441406 203.492188 191.257813 203.816406 191.039063 C 204.136719 190.820313 204.417969 190.566406 204.660156 190.273438 C 204.972656 189.898438 205.136719 189.550781 205.160156 189.226563 C 205.179688 188.90625 205.054688 188.632813 204.785156 188.414063 C 204.542969 188.21875 204.300781 188.140625 204.050781 188.179688 C 203.800781 188.210938 203.40625 188.425781 202.863281 188.820313 L 202.566406 189.039063 C 202.035156 189.457031 201.558594 189.679688 201.128906 189.710938 C 200.691406 189.734375 200.265625 189.566406 199.847656 189.210938 C 199.328125 188.796875 199.066406 188.304688 199.066406 187.742188 C 199.058594 187.171875 199.300781 186.582031 199.800781 185.976563 C 200.042969 185.675781 200.296875 185.414063 200.566406 185.195313 C 200.828125 184.96875 201.105469 184.78125 201.394531 184.632813 Z M 204.703125 181.550781 C 204.351563 181.988281 204.257813 182.488281 204.421875 183.050781 C 204.589844 183.613281 205.007813 184.167969 205.671875 184.707031 C 206.328125 185.25 206.949219 185.550781 207.53125 185.613281 C 208.113281 185.667969 208.582031 185.472656 208.9375 185.035156 C 209.300781 184.597656 209.394531 184.097656 209.21875 183.535156 C 209.050781 182.972656 208.644531 182.425781 208 181.894531 C 207.34375 181.355469 206.726563 181.050781 206.140625 180.988281 C 205.546875 180.925781 205.070313 181.113281 204.703125 181.550781 Z M 203.9375 180.925781 C 204.523438 180.21875 205.234375 179.875 206.078125 179.894531 C 206.921875 179.917969 207.796875 180.296875 208.703125 181.035156 C 209.597656 181.777344 210.132813 182.558594 210.3125 183.378906 C 210.488281 184.203125 210.285156 184.96875 209.703125 185.675781 C 209.128906 186.386719 208.421875 186.730469 207.578125 186.707031 C 206.734375 186.6875 205.867188 186.308594 204.96875 185.566406 C 204.0625 184.828125 203.523438 184.046875 203.34375 183.222656 C 203.167969 182.402344 203.367188 181.636719 203.9375 180.925781 Z M 212.605469 175.101563 L 215.917969 177.835938 L 215.246094 178.632813 L 211.964844 175.929688 C 211.445313 175.503906 210.980469 175.28125 210.574219 175.257813 C 210.160156 175.226563 209.804688 175.394531 209.511719 175.757813 C 209.148438 176.1875 209.019531 176.65625 209.121094 177.164063 C 209.226563 177.675781 209.542969 178.15625 210.074219 178.601563 L 213.183594 181.148438 L 212.511719 181.960938 L 207.027344 177.445313 L 207.699219 176.632813 L 208.542969 177.335938 C 208.386719 176.867188 208.335938 176.4375 208.386719 176.039063 C 208.429688 175.644531 208.589844 175.273438 208.871094 174.929688 C 209.339844 174.367188 209.894531 174.101563 210.527344 174.132813 C 211.152344 174.164063 211.84375 174.488281 212.605469 175.101563 Z M 218.789063 167.371094 C 219.015625 167.226563 219.320313 167.160156 219.695313 167.167969 C 220.078125 167.179688 220.554688 167.261719 221.117188 167.417969 L 223.867188 168.167969 L 223.070313 169.121094 L 220.492188 168.417969 C 219.824219 168.230469 219.328125 168.175781 219.007813 168.246094 C 218.6875 168.320313 218.378906 168.535156 218.085938 168.886719 L 217.273438 169.855469 L 220.367188 172.402344 L 219.648438 173.292969 L 212.320313 167.277344 L 213.960938 165.277344 C 214.585938 164.519531 215.226563 164.097656 215.882813 164.011719 C 216.539063 163.929688 217.222656 164.179688 217.929688 164.761719 C 218.390625 165.136719 218.691406 165.550781 218.835938 165.996094 C 218.980469 166.433594 218.964844 166.894531 218.789063 167.371094 Z M 213.867188 167.058594 L 216.460938 169.183594 L 217.382813 168.074219 C 217.75 167.636719 217.910156 167.222656 217.867188 166.824219 C 217.816406 166.417969 217.578125 166.042969 217.148438 165.699219 C 216.722656 165.347656 216.316406 165.191406 215.929688 165.230469 C 215.535156 165.273438 215.15625 165.511719 214.789063 165.949219 Z M 219.292969 162.535156 L 219.964844 161.722656 L 225.449219 166.238281 L 224.777344 167.050781 Z M 217.152344 160.785156 L 217.824219 159.972656 L 218.964844 160.910156 L 218.292969 161.722656 Z M 220.875 160.617188 L 221.578125 159.757813 L 227.453125 162.007813 L 224.125 156.664063 L 224.828125 155.804688 L 228.796875 162.179688 L 227.890625 163.273438 Z M 231.738281 152.535156 L 232.175781 152.894531 L 229.097656 156.628906 C 229.765625 157.097656 230.378906 157.316406 230.941406 157.285156 C 231.511719 157.246094 232.023438 156.957031 232.472656 156.425781 C 232.730469 156.113281 232.933594 155.78125 233.082031 155.425781 C 233.238281 155.0625 233.347656 154.660156 233.410156 154.222656 L 234.269531 154.925781 C 234.164063 155.332031 234.023438 155.722656 233.847656 156.097656 C 233.667969 156.464844 233.449219 156.800781 233.191406 157.113281 C 232.542969 157.894531 231.773438 158.308594 230.878906 158.347656 C 229.996094 158.390625 229.121094 158.050781 228.253906 157.332031 C 227.347656 156.59375 226.8125 155.792969 226.644531 154.925781 C 226.480469 154.050781 226.703125 153.246094 227.316406 152.503906 C 227.859375 151.839844 228.527344 151.511719 229.316406 151.519531 C 230.109375 151.519531 230.914063 151.859375 231.738281 152.535156 Z M 230.800781 153.128906 C 230.3125 152.722656 229.824219 152.519531 229.332031 152.519531 C 228.832031 152.519531 228.417969 152.71875 228.082031 153.113281 C 227.707031 153.574219 227.558594 154.058594 227.628906 154.566406 C 227.691406 155.066406 227.957031 155.550781 228.425781 156.019531 Z M 233.53125 146.941406 C 233.398438 146.996094 233.273438 147.0625 233.15625 147.144531 C 233.03125 147.230469 232.917969 147.339844 232.8125 147.472656 C 232.4375 147.933594 232.3125 148.421875 232.4375 148.941406 C 232.5625 149.453125 232.9375 149.964844 233.5625 150.472656 L 236.453125 152.847656 L 235.78125 153.660156 L 230.296875 149.144531 L 230.96875 148.332031 L 231.8125 149.035156 C 231.625 148.589844 231.5625 148.160156 231.625 147.753906 C 231.6875 147.347656 231.875 146.953125 232.1875 146.566406 C 232.242188 146.515625 232.304688 146.457031 232.375 146.394531 C 232.4375 146.332031 232.511719 146.265625 232.59375 146.191406 Z M 233.53125 146.941406 "/>
</g>
</svg>

