<?xml version="1.0" encoding="UTF-8"?>
<svg xmlns="http://www.w3.org/2000/svg" xmlns:xlink="http://www.w3.org/1999/xlink" width="256pt" height="256pt" viewBox="0 0 256 256" version="1.1">
<g id="surface2">
<rect x="0" y="0" width="256" height="256" style="fill:rgb(60%,70.196078%,80%);fill-opacity:1;stroke:none;"/>
<path style=" stroke:none;fill-rule:evenodd;fill:rgb(94.901961%,93.72549%,91.372549%);fill-opacity:1;" d="M 62.121094 124.8125 L 62.625 122.832031 L 63.6875 122.25 L 64.875 122.3125 L 65.9375 122.6875 L 66.1875 124.0625 L 65.9375 125.0625 L 65.371094 125.75 L 64.308594 126.125 L 63.0625 125.875 Z M 62.121094 124.8125 "/>
<path style=" stroke:none;fill-rule:evenodd;fill:rgb(94.901961%,93.72549%,91.372549%);fill-opacity:1;" d="M 259 259 L -4 259 L 259 259 L 259 -4 Z M 259 259 "/>
<path style=" stroke:none;fill-rule:evenodd;fill:rgb(94.901961%,93.72549%,91.372549%);fill-opacity:1;" d="M -4 -4 L 5.328125 -4 L 5.71875 -3.84375 L 6.0625 -2.03125 L 6.0625 -0.808594 L 1.53125 5.21875 L -2.820313 6.21875 L -4 5.820313 L -4 259 Z M -4 -4 "/>
<path style=" stroke:none;fill-rule:evenodd;fill:rgb(94.901961%,93.72549%,91.372549%);fill-opacity:1;" d="M -4 -4 L 5.328125 -4 L 5.71875 -3.84375 L 6.0625 -2.03125 L 6.0625 -0.808594 L 1.53125 5.21875 L -2.820313 6.21875 L -4 5.820313 Z M -4 -4 "/>
</g>
</svg>

