<?xml version="1.0" encoding="UTF-8"?>
<svg xmlns="http://www.w3.org/2000/svg" xmlns:xlink="http://www.w3.org/1999/xlink" width="256pt" height="256pt" viewBox="0 0 256 256" version="1.1">
<g id="surface2">
<rect x="0" y="0" width="256" height="256" style="fill:rgb(94.901961%,93.72549%,91.372549%);fill-opacity:1;stroke:none;"/>
<path style="fill:none;stroke-width:2;stroke-linecap:round;stroke-linejoin:round;stroke:rgb(60%,70.196078%,80%);stroke-opacity:1;stroke-miterlimit:10;" d="M 209.703125 258 L 199.773438 249.585938 L 185.265625 231.632813 L 171.90625 212.847656 L 135.871094 167.761719 L 94.464844 122.628906 L 78.507813 115.714844 L 60.636719 84.421875 L 46.136719 74.699219 L 30.78125 54.765625 L 19.582031 42.289063 L -0.00390625 22.125 L -3 19.519531 "/>
<path style="fill:none;stroke-width:1;stroke-linecap:round;stroke-linejoin:round;stroke:rgb(100%,100%,100%);stroke-opacity:1;stroke-dasharray:2,3;stroke-miterlimit:10;" d="M -2 28.878906 L -0.683594 29.304688 L 10.164063 41.855469 L 18.644531 57.453125 L 17.753906 60.121094 L 15.644531 62.535156 L 14.457031 67.769531 L 3.367188 70.1875 L -2 79.992188 M -2 118.707031 L 8.304688 114.480469 L 19.304688 111.480469 L 39.992188 122.832031 L 50.304688 126.480469 L 72.632813 155.203125 L 82.363281 162.5625 L 86.605469 164.070313 L 90.132813 162.519531 L 99.914063 172.734375 L 102.582031 180.414063 L 121.527344 189.679688 L 127.929688 191.753906 L 133.804688 196.480469 L 144.039063 204.804688 L 160.550781 214.203125 L 164.089844 216.027344 L 170.132813 222.652344 L 179.53125 234.835938 L 186.496094 242.347656 L 189.671875 243.332031 L 194.105469 248.582031 L 197.804688 250.683594 L 200.699219 253.34375 L 202.84375 257 "/>
</g>
</svg>

