<?xml version="1.0" encoding="UTF-8"?>
<svg xmlns="http://www.w3.org/2000/svg" xmlns:xlink="http://www.w3.org/1999/xlink" width="256pt" height="256pt" viewBox="0 0 256 256" version="1.1">
<g id="surface2">
<rect x="0" y="0" width="256" height="256" style="fill:rgb(94.901961%,93.72549%,91.372549%);fill-opacity:1;stroke:none;"/>
<path style=" stroke:none;fill-rule:evenodd;fill:rgb(60%,70.196078%,80%);fill-opacity:1;" d="M -4 259 L 259 259 L 248.613281 259 L 255.011719 253.03125 L 259 249.628906 L 259 11.40625 L -4 11.800781 L -4 140.480469 L -3.585938 142.628906 L -3.585938 156.03125 L -2.605469 167.417969 L -0.785156 178.429688 L 0.144531 186.160156 L 2.886719 193.984375 L 4.8125 208.230469 L 11.015625 233.03125 L 16.566406 257.59375 L 16.683594 259 Z M -8231945.476563 5099861.804688 Z M -8231945.476563 5099861.804688 "/>
<path style="fill:none;stroke-width:1;stroke-linecap:round;stroke-linejoin:round;stroke:rgb(70.196078%,77.647059%,83.137255%);stroke-opacity:1;stroke-miterlimit:10;" d="M -4 259 L 259 259 L 248.613281 259 L 255.011719 253.03125 L 259 249.628906 L 259 11.40625 L -4 11.800781 L -4 140.480469 L -3.585938 142.628906 L -3.585938 156.03125 L -2.605469 167.417969 L -0.785156 178.429688 L 0.144531 186.160156 L 2.886719 193.984375 L 4.8125 208.230469 L 11.015625 233.03125 L 16.566406 257.59375 L 16.683594 259 L -4 259 "/>
<path style=" stroke:none;fill-rule:evenodd;fill:rgb(60%,70.196078%,80%);fill-opacity:1;" d="M -4 -4 L -4 11.800781 L 259 11.40625 L 259 -4 Z M -4 -4 "/>
<path style="fill:none;stroke-width:1;stroke-linecap:round;stroke-linejoin:round;stroke:rgb(70.196078%,77.647059%,83.137255%);stroke-opacity:1;stroke-miterlimit:10;" d="M -4 -4 L -4 11.800781 L 259 11.40625 L 259 -4 L -4 -4 "/>
<path style="fill:none;stroke-width:6;stroke-linecap:round;stroke-linejoin:round;stroke:rgb(60%,70.196078%,80%);stroke-opacity:1;stroke-miterlimit:10;" d="M 177.515625 -7 L 173.789063 197.160156 L 158.917969 262 "/>
<path style="fill:none;stroke-width:1;stroke-linecap:butt;stroke-linejoin:round;stroke:rgb(46.666667%,46.666667%,46.666667%);stroke-opacity:1;stroke-dasharray:2,2;stroke-miterlimit:10;" d="M -2 196.796875 L 2.511719 216.355469 L 9.613281 242.222656 L 12.222656 253.75 L 12.695313 257 "/>
<path style="fill:none;stroke-width:3;stroke-linecap:butt;stroke-linejoin:round;stroke:rgb(100%,100%,100%);stroke-opacity:1;stroke-miterlimit:10;" d="M 169.863281 166.265625 L 169.894531 165.125 L 173.785156 165.1875 L 173.863281 160.984375 L 169.972656 160.921875 L 169.988281 159.765625 L 179.472656 159.9375 L 179.457031 161.09375 L 174.941406 161.015625 L 174.863281 165.21875 L 179.378906 165.296875 L 179.347656 166.4375 Z M 176.695313 157.75 L 172.398438 157.671875 L 172.414063 156.625 L 176.679688 156.703125 C 177.347656 156.714844 177.851563 156.605469 178.195313 156.375 C 178.539063 156.148438 178.71875 155.796875 178.726563 155.328125 C 178.738281 154.757813 178.546875 154.304688 178.148438 153.96875 C 177.753906 153.636719 177.207031 153.460938 176.507813 153.4375 L 172.476563 153.375 L 172.492188 152.3125 L 179.601563 152.4375 L 179.585938 153.5 L 178.492188 153.484375 C 178.929688 153.734375 179.253906 154.03125 179.460938 154.375 C 179.65625 154.71875 179.75 155.117188 179.742188 155.5625 C 179.71875 156.292969 179.457031 156.84375 178.945313 157.21875 C 178.425781 157.585938 177.675781 157.761719 176.695313 157.75 Z M 172.273438 155.03125 Z M 173.691406 145.957031 L 169.847656 145.878906 L 169.863281 144.832031 L 179.738281 145.019531 L 179.722656 146.066406 L 178.660156 146.050781 C 179.078125 146.269531 179.390625 146.550781 179.597656 146.894531 C 179.792969 147.238281 179.886719 147.644531 179.878906 148.113281 C 179.855469 148.894531 179.503906 149.527344 178.816406 150.003906 C 178.121094 150.472656 177.214844 150.699219 176.097656 150.675781 C 174.984375 150.65625 174.089844 150.402344 173.410156 149.910156 C 172.722656 149.410156 172.390625 148.769531 172.410156 147.988281 C 172.421875 147.519531 172.53125 147.121094 172.738281 146.785156 C 172.949219 146.441406 173.265625 146.167969 173.691406 145.957031 Z M 176.113281 149.582031 C 176.96875 149.59375 177.644531 149.449219 178.144531 149.144531 C 178.636719 148.832031 178.886719 148.402344 178.894531 147.847656 C 178.90625 147.285156 178.671875 146.84375 178.191406 146.519531 C 177.703125 146.1875 177.03125 146.015625 176.175781 146.003906 C 175.3125 145.984375 174.636719 146.128906 174.144531 146.441406 C 173.65625 146.753906 173.40625 147.191406 173.394531 147.753906 C 173.386719 148.308594 173.621094 148.746094 174.097656 149.066406 C 174.578125 149.390625 175.25 149.5625 176.113281 149.582031 Z M 172.949219 138.644531 L 174.058594 138.660156 C 173.894531 138.964844 173.761719 139.277344 173.667969 139.597656 C 173.574219 139.910156 173.527344 140.238281 173.527344 140.582031 C 173.519531 141.105469 173.601563 141.5 173.777344 141.769531 C 173.945313 142.03125 174.207031 142.167969 174.558594 142.175781 C 174.832031 142.175781 175.042969 142.082031 175.199219 141.894531 C 175.355469 141.707031 175.511719 141.332031 175.667969 140.769531 L 175.761719 140.425781 C 175.949219 139.6875 176.210938 139.167969 176.542969 138.863281 C 176.867188 138.550781 177.316406 138.402344 177.886719 138.410156 C 178.554688 138.421875 179.082031 138.667969 179.464844 139.144531 C 179.839844 139.613281 180.015625 140.261719 179.996094 141.082031 C 179.996094 141.417969 179.953125 141.769531 179.871094 142.144531 C 179.785156 142.519531 179.667969 142.910156 179.511719 143.316406 L 178.308594 143.285156 C 178.539063 142.910156 178.714844 142.535156 178.839844 142.160156 C 178.957031 141.785156 179.011719 141.410156 179.011719 141.035156 C 179.023438 140.546875 178.941406 140.167969 178.761719 139.894531 C 178.574219 139.625 178.308594 139.488281 177.964844 139.488281 C 177.652344 139.480469 177.414063 139.574219 177.246094 139.769531 C 177.070313 139.957031 176.894531 140.371094 176.714844 141.003906 L 176.621094 141.363281 C 176.457031 142.019531 176.214844 142.496094 175.902344 142.785156 C 175.582031 143.066406 175.144531 143.203125 174.589844 143.191406 C 173.925781 143.183594 173.414063 142.957031 173.058594 142.519531 C 172.695313 142.082031 172.523438 141.472656 172.542969 140.691406 C 172.542969 140.308594 172.582031 139.941406 172.652344 139.597656 C 172.726563 139.253906 172.824219 138.9375 172.949219 138.644531 Z M 173.640625 134.175781 C 173.632813 134.738281 173.871094 135.1875 174.359375 135.519531 C 174.839844 135.855469 175.507813 136.03125 176.359375 136.050781 C 177.214844 136.0625 177.886719 135.910156 178.375 135.597656 C 178.867188 135.277344 179.117188 134.832031 179.125 134.269531 C 179.136719 133.707031 178.902344 133.261719 178.421875 132.925781 C 177.933594 132.582031 177.265625 132.40625 176.421875 132.394531 C 175.578125 132.375 174.90625 132.527344 174.40625 132.847656 C 173.90625 133.171875 173.652344 133.613281 173.640625 134.175781 Z M 172.65625 134.160156 C 172.679688 133.246094 173.027344 132.53125 173.703125 132.019531 C 174.371094 131.511719 175.289063 131.265625 176.453125 131.285156 C 177.621094 131.308594 178.53125 131.582031 179.1875 132.113281 C 179.835938 132.644531 180.144531 133.371094 180.125 134.285156 C 180.113281 135.203125 179.777344 135.917969 179.109375 136.425781 C 178.433594 136.9375 177.511719 137.183594 176.34375 137.160156 C 175.179688 137.140625 174.273438 136.863281 173.625 136.332031 C 172.96875 135.800781 172.648438 135.078125 172.65625 134.160156 Z M 175.816406 124.207031 L 180.113281 124.285156 L 180.097656 125.332031 L 175.847656 125.253906 C 175.171875 125.246094 174.667969 125.359375 174.332031 125.597656 C 173.988281 125.828125 173.816406 126.175781 173.816406 126.644531 C 173.808594 127.207031 174 127.65625 174.394531 127.988281 C 174.78125 128.324219 175.324219 128.496094 176.019531 128.503906 L 180.035156 128.582031 L 180.019531 129.644531 L 172.910156 129.519531 L 172.925781 128.457031 L 174.035156 128.472656 C 173.621094 128.214844 173.308594 127.917969 173.097656 127.582031 C 172.890625 127.238281 172.792969 126.84375 172.800781 126.394531 C 172.8125 125.667969 173.074219 125.113281 173.582031 124.738281 C 174.09375 124.363281 174.839844 124.1875 175.816406 124.207031 Z M 175.863281 114.304688 C 175.957031 114.054688 176.160156 113.816406 176.472656 113.585938 C 176.777344 113.359375 177.199219 113.128906 177.738281 112.898438 L 180.347656 111.773438 L 180.332031 113.023438 L 177.863281 114.070313 C 177.230469 114.332031 176.808594 114.59375 176.597656 114.851563 C 176.390625 115.113281 176.28125 115.472656 176.269531 115.929688 L 176.253906 117.195313 L 180.253906 117.273438 L 180.222656 118.414063 L 170.738281 118.242188 L 170.785156 115.648438 C 170.808594 114.671875 171.050781 113.945313 171.519531 113.476563 C 171.980469 113.007813 172.667969 112.78125 173.582031 112.789063 C 174.175781 112.800781 174.671875 112.9375 175.066406 113.195313 C 175.453125 113.457031 175.71875 113.828125 175.863281 114.304688 Z M 171.832031 117.117188 L 175.191406 117.179688 L 175.207031 115.726563 C 175.21875 115.164063 175.082031 114.742188 174.800781 114.460938 C 174.519531 114.171875 174.105469 114.019531 173.550781 114.007813 C 173 114 172.582031 114.132813 172.300781 114.414063 C 172.011719 114.6875 171.859375 115.101563 171.847656 115.664063 Z M 173.261719 110.210938 L 173.292969 109.164063 L 180.402344 109.289063 L 180.371094 110.335938 Z M 170.496094 110.148438 L 170.527344 109.101563 L 172.011719 109.132813 L 171.980469 110.179688 Z M 173.304688 107.726563 L 173.335938 106.617188 L 179.335938 104.726563 L 173.398438 102.617188 L 173.429688 101.492188 L 180.492188 104.023438 L 180.460938 105.445313 Z M 176.824219 94.636719 L 177.386719 94.636719 L 177.292969 99.480469 C 178.105469 99.449219 178.726563 99.242188 179.152344 98.855469 C 179.570313 98.472656 179.789063 97.929688 179.808594 97.230469 C 179.808594 96.824219 179.761719 96.433594 179.667969 96.058594 C 179.566406 95.683594 179.402344 95.304688 179.183594 94.917969 L 180.292969 94.949219 C 180.472656 95.324219 180.597656 95.710938 180.683594 96.105469 C 180.765625 96.503906 180.808594 96.902344 180.808594 97.308594 C 180.785156 98.332031 180.445313 99.136719 179.777344 99.730469 C 179.101563 100.316406 178.199219 100.597656 177.074219 100.574219 C 175.910156 100.554688 174.992188 100.257813 174.324219 99.683594 C 173.648438 99.101563 173.316406 98.332031 173.324219 97.371094 C 173.347656 96.507813 173.667969 95.832031 174.292969 95.339844 C 174.917969 94.851563 175.761719 94.617188 176.824219 94.636719 Z M 176.449219 95.683594 C 175.816406 95.675781 175.304688 95.824219 174.917969 96.136719 C 174.523438 96.441406 174.320313 96.851563 174.308594 97.371094 C 174.300781 97.964844 174.476563 98.441406 174.839844 98.792969 C 175.207031 99.148438 175.722656 99.355469 176.386719 99.417969 Z M 174.75 89.152344 C 174.667969 89.269531 174.609375 89.398438 174.578125 89.542969 C 174.539063 89.679688 174.515625 89.832031 174.515625 89.996094 C 174.507813 90.589844 174.710938 91.050781 175.125 91.371094 C 175.542969 91.695313 176.152344 91.867188 176.953125 91.886719 L 180.703125 91.949219 L 180.6875 93.011719 L 173.578125 92.886719 L 173.59375 91.824219 L 174.703125 91.839844 C 174.277344 91.613281 173.964844 91.320313 173.765625 90.964844 C 173.558594 90.613281 173.460938 90.183594 173.46875 89.683594 C 173.46875 89.613281 173.476563 89.535156 173.484375 89.449219 C 173.496094 89.355469 173.515625 89.253906 173.546875 89.136719 Z M 174.75 89.152344 "/>
<path style=" stroke:none;fill-rule:evenodd;fill:rgb(41.960784%,58.039216%,69.019608%);fill-opacity:1;" d="M 169.863281 166.265625 L 169.894531 165.125 L 173.785156 165.1875 L 173.863281 160.984375 L 169.972656 160.921875 L 169.988281 159.765625 L 179.472656 159.9375 L 179.457031 161.09375 L 174.941406 161.015625 L 174.863281 165.21875 L 179.378906 165.296875 L 179.347656 166.4375 Z M 176.695313 157.75 L 172.398438 157.671875 L 172.414063 156.625 L 176.679688 156.703125 C 177.347656 156.714844 177.851563 156.605469 178.195313 156.375 C 178.539063 156.148438 178.71875 155.796875 178.726563 155.328125 C 178.738281 154.757813 178.546875 154.304688 178.148438 153.96875 C 177.753906 153.636719 177.207031 153.460938 176.507813 153.4375 L 172.476563 153.375 L 172.492188 152.3125 L 179.601563 152.4375 L 179.585938 153.5 L 178.492188 153.484375 C 178.929688 153.734375 179.253906 154.03125 179.460938 154.375 C 179.65625 154.71875 179.75 155.117188 179.742188 155.5625 C 179.71875 156.292969 179.457031 156.84375 178.945313 157.21875 C 178.425781 157.585938 177.675781 157.761719 176.695313 157.75 Z M 172.273438 155.03125 Z M 173.691406 145.957031 L 169.847656 145.878906 L 169.863281 144.832031 L 179.738281 145.019531 L 179.722656 146.066406 L 178.660156 146.050781 C 179.078125 146.269531 179.390625 146.550781 179.597656 146.894531 C 179.792969 147.238281 179.886719 147.644531 179.878906 148.113281 C 179.855469 148.894531 179.503906 149.527344 178.816406 150.003906 C 178.121094 150.472656 177.214844 150.699219 176.097656 150.675781 C 174.984375 150.65625 174.089844 150.402344 173.410156 149.910156 C 172.722656 149.410156 172.390625 148.769531 172.410156 147.988281 C 172.421875 147.519531 172.53125 147.121094 172.738281 146.785156 C 172.949219 146.441406 173.265625 146.167969 173.691406 145.957031 Z M 176.113281 149.582031 C 176.96875 149.59375 177.644531 149.449219 178.144531 149.144531 C 178.636719 148.832031 178.886719 148.402344 178.894531 147.847656 C 178.90625 147.285156 178.671875 146.84375 178.191406 146.519531 C 177.703125 146.1875 177.03125 146.015625 176.175781 146.003906 C 175.3125 145.984375 174.636719 146.128906 174.144531 146.441406 C 173.65625 146.753906 173.40625 147.191406 173.394531 147.753906 C 173.386719 148.308594 173.621094 148.746094 174.097656 149.066406 C 174.578125 149.390625 175.25 149.5625 176.113281 149.582031 Z M 172.949219 138.644531 L 174.058594 138.660156 C 173.894531 138.964844 173.761719 139.277344 173.667969 139.597656 C 173.574219 139.910156 173.527344 140.238281 173.527344 140.582031 C 173.519531 141.105469 173.601563 141.5 173.777344 141.769531 C 173.945313 142.03125 174.207031 142.167969 174.558594 142.175781 C 174.832031 142.175781 175.042969 142.082031 175.199219 141.894531 C 175.355469 141.707031 175.511719 141.332031 175.667969 140.769531 L 175.761719 140.425781 C 175.949219 139.6875 176.210938 139.167969 176.542969 138.863281 C 176.867188 138.550781 177.316406 138.402344 177.886719 138.410156 C 178.554688 138.421875 179.082031 138.667969 179.464844 139.144531 C 179.839844 139.613281 180.015625 140.261719 179.996094 141.082031 C 179.996094 141.417969 179.953125 141.769531 179.871094 142.144531 C 179.785156 142.519531 179.667969 142.910156 179.511719 143.316406 L 178.308594 143.285156 C 178.539063 142.910156 178.714844 142.535156 178.839844 142.160156 C 178.957031 141.785156 179.011719 141.410156 179.011719 141.035156 C 179.023438 140.546875 178.941406 140.167969 178.761719 139.894531 C 178.574219 139.625 178.308594 139.488281 177.964844 139.488281 C 177.652344 139.480469 177.414063 139.574219 177.246094 139.769531 C 177.070313 139.957031 176.894531 140.371094 176.714844 141.003906 L 176.621094 141.363281 C 176.457031 142.019531 176.214844 142.496094 175.902344 142.785156 C 175.582031 143.066406 175.144531 143.203125 174.589844 143.191406 C 173.925781 143.183594 173.414063 142.957031 173.058594 142.519531 C 172.695313 142.082031 172.523438 141.472656 172.542969 140.691406 C 172.542969 140.308594 172.582031 139.941406 172.652344 139.597656 C 172.726563 139.253906 172.824219 138.9375 172.949219 138.644531 Z M 173.640625 134.175781 C 173.632813 134.738281 173.871094 135.1875 174.359375 135.519531 C 174.839844 135.855469 175.507813 136.03125 176.359375 136.050781 C 177.214844 136.0625 177.886719 135.910156 178.375 135.597656 C 178.867188 135.277344 179.117188 134.832031 179.125 134.269531 C 179.136719 133.707031 178.902344 133.261719 178.421875 132.925781 C 177.933594 132.582031 177.265625 132.40625 176.421875 132.394531 C 175.578125 132.375 174.90625 132.527344 174.40625 132.847656 C 173.90625 133.171875 173.652344 133.613281 173.640625 134.175781 Z M 172.65625 134.160156 C 172.679688 133.246094 173.027344 132.53125 173.703125 132.019531 C 174.371094 131.511719 175.289063 131.265625 176.453125 131.285156 C 177.621094 131.308594 178.53125 131.582031 179.1875 132.113281 C 179.835938 132.644531 180.144531 133.371094 180.125 134.285156 C 180.113281 135.203125 179.777344 135.917969 179.109375 136.425781 C 178.433594 136.9375 177.511719 137.183594 176.34375 137.160156 C 175.179688 137.140625 174.273438 136.863281 173.625 136.332031 C 172.96875 135.800781 172.648438 135.078125 172.65625 134.160156 Z M 175.816406 124.207031 L 180.113281 124.285156 L 180.097656 125.332031 L 175.847656 125.253906 C 175.171875 125.246094 174.667969 125.359375 174.332031 125.597656 C 173.988281 125.828125 173.816406 126.175781 173.816406 126.644531 C 173.808594 127.207031 174 127.65625 174.394531 127.988281 C 174.78125 128.324219 175.324219 128.496094 176.019531 128.503906 L 180.035156 128.582031 L 180.019531 129.644531 L 172.910156 129.519531 L 172.925781 128.457031 L 174.035156 128.472656 C 173.621094 128.214844 173.308594 127.917969 173.097656 127.582031 C 172.890625 127.238281 172.792969 126.84375 172.800781 126.394531 C 172.8125 125.667969 173.074219 125.113281 173.582031 124.738281 C 174.09375 124.363281 174.839844 124.1875 175.816406 124.207031 Z M 175.863281 114.304688 C 175.957031 114.054688 176.160156 113.816406 176.472656 113.585938 C 176.777344 113.359375 177.199219 113.128906 177.738281 112.898438 L 180.347656 111.773438 L 180.332031 113.023438 L 177.863281 114.070313 C 177.230469 114.332031 176.808594 114.59375 176.597656 114.851563 C 176.390625 115.113281 176.28125 115.472656 176.269531 115.929688 L 176.253906 117.195313 L 180.253906 117.273438 L 180.222656 118.414063 L 170.738281 118.242188 L 170.785156 115.648438 C 170.808594 114.671875 171.050781 113.945313 171.519531 113.476563 C 171.980469 113.007813 172.667969 112.78125 173.582031 112.789063 C 174.175781 112.800781 174.671875 112.9375 175.066406 113.195313 C 175.453125 113.457031 175.71875 113.828125 175.863281 114.304688 Z M 171.832031 117.117188 L 175.191406 117.179688 L 175.207031 115.726563 C 175.21875 115.164063 175.082031 114.742188 174.800781 114.460938 C 174.519531 114.171875 174.105469 114.019531 173.550781 114.007813 C 173 114 172.582031 114.132813 172.300781 114.414063 C 172.011719 114.6875 171.859375 115.101563 171.847656 115.664063 Z M 173.261719 110.210938 L 173.292969 109.164063 L 180.402344 109.289063 L 180.371094 110.335938 Z M 170.496094 110.148438 L 170.527344 109.101563 L 172.011719 109.132813 L 171.980469 110.179688 Z M 173.304688 107.726563 L 173.335938 106.617188 L 179.335938 104.726563 L 173.398438 102.617188 L 173.429688 101.492188 L 180.492188 104.023438 L 180.460938 105.445313 Z M 176.824219 94.636719 L 177.386719 94.636719 L 177.292969 99.480469 C 178.105469 99.449219 178.726563 99.242188 179.152344 98.855469 C 179.570313 98.472656 179.789063 97.929688 179.808594 97.230469 C 179.808594 96.824219 179.761719 96.433594 179.667969 96.058594 C 179.566406 95.683594 179.402344 95.304688 179.183594 94.917969 L 180.292969 94.949219 C 180.472656 95.324219 180.597656 95.710938 180.683594 96.105469 C 180.765625 96.503906 180.808594 96.902344 180.808594 97.308594 C 180.785156 98.332031 180.445313 99.136719 179.777344 99.730469 C 179.101563 100.316406 178.199219 100.597656 177.074219 100.574219 C 175.910156 100.554688 174.992188 100.257813 174.324219 99.683594 C 173.648438 99.101563 173.316406 98.332031 173.324219 97.371094 C 173.347656 96.507813 173.667969 95.832031 174.292969 95.339844 C 174.917969 94.851563 175.761719 94.617188 176.824219 94.636719 Z M 176.449219 95.683594 C 175.816406 95.675781 175.304688 95.824219 174.917969 96.136719 C 174.523438 96.441406 174.320313 96.851563 174.308594 97.371094 C 174.300781 97.964844 174.476563 98.441406 174.839844 98.792969 C 175.207031 99.148438 175.722656 99.355469 176.386719 99.417969 Z M 174.75 89.152344 C 174.667969 89.269531 174.609375 89.398438 174.578125 89.542969 C 174.539063 89.679688 174.515625 89.832031 174.515625 89.996094 C 174.507813 90.589844 174.710938 91.050781 175.125 91.371094 C 175.542969 91.695313 176.152344 91.867188 176.953125 91.886719 L 180.703125 91.949219 L 180.6875 93.011719 L 173.578125 92.886719 L 173.59375 91.824219 L 174.703125 91.839844 C 174.277344 91.613281 173.964844 91.320313 173.765625 90.964844 C 173.558594 90.613281 173.460938 90.183594 173.46875 89.683594 C 173.46875 89.613281 173.476563 89.535156 173.484375 89.449219 C 173.496094 89.355469 173.515625 89.253906 173.546875 89.136719 Z M 174.75 89.152344 "/>
</g>
</svg>

