<?xml version="1.0" encoding="UTF-8"?>
<svg xmlns="http://www.w3.org/2000/svg" xmlns:xlink="http://www.w3.org/1999/xlink" width="256pt" height="256pt" viewBox="0 0 256 256" version="1.1">
<g id="surface2">
<rect x="0" y="0" width="256" height="256" style="fill:rgb(94.901961%,93.72549%,91.372549%);fill-opacity:1;stroke:none;"/>
<path style="fill:none;stroke-width:2;stroke-linecap:round;stroke-linejoin:round;stroke:rgb(60%,70.196078%,80%);stroke-opacity:1;stroke-miterlimit:10;" d="M 217.769531 -3 L 218.121094 8.902344 L 219.191406 14.59375 L 224.828125 22.246094 L 228.675781 27.070313 L 234.960938 31.941406 L 243.148438 36.132813 L 247.773438 38.277344 L 251.574219 41.976563 L 253.371094 44.402344 L 254.820313 47.832031 L 253.601563 57.648438 L 248.730469 79.292969 L 248.824219 83.65625 L 249.539063 87.335938 L 251.441406 89.238281 L 254.964844 89.769531 L 258 89.746094 M 258 112.351563 L 254.585938 115.742188 L 253.277344 123.472656 L 254.347656 126.328125 L 257.675781 128.589844 L 258 129.21875 M 258 168.253906 L 252.324219 177.121094 L 251.136719 182.113281 L 252.324219 185.566406 L 255.535156 188.300781 L 258 189.699219 "/>
</g>
</svg>

