<?xml version="1.0" encoding="UTF-8"?>
<svg xmlns="http://www.w3.org/2000/svg" xmlns:xlink="http://www.w3.org/1999/xlink" width="256pt" height="256pt" viewBox="0 0 256 256" version="1.1">
<g id="surface2">
<rect x="0" y="0" width="256" height="256" style="fill:rgb(94.901961%,93.72549%,91.372549%);fill-opacity:1;stroke:none;"/>
<path style="fill:none;stroke-width:6;stroke-linecap:round;stroke-linejoin:round;stroke:rgb(60%,70.196078%,80%);stroke-opacity:1;stroke-miterlimit:10;" d="M 247.878906 262 L 257.121094 250.148438 L 262 251.390625 "/>
<path style="fill:none;stroke-width:8;stroke-linecap:round;stroke-linejoin:round;stroke:rgb(75.686275%,70.980392%,61.568627%);stroke-opacity:1;stroke-miterlimit:10;" d="M 264 236.605469 L 252.320313 241.453125 L 239.367188 245.410156 L 229.625 246.355469 L 218.8125 245.375 L 214.503906 245.410156 L 210.703125 246.09375 L 195.769531 246.878906 L 189.40625 246.78125 L 182.460938 247.273438 L 177.40625 248.222656 L 166.246094 251.816406 L 152.589844 257.214844 L 147.230469 260.15625 L 141.976563 264 "/>
<path style="fill:none;stroke-width:6;stroke-linecap:round;stroke-linejoin:round;stroke:rgb(100%,100%,100%);stroke-opacity:1;stroke-miterlimit:10;" d="M 264 236.605469 L 252.320313 241.453125 L 239.367188 245.410156 L 229.625 246.355469 L 218.8125 245.375 L 214.503906 245.410156 L 210.703125 246.09375 L 195.769531 246.878906 L 189.40625 246.78125 L 182.460938 247.273438 L 177.40625 248.222656 L 166.246094 251.816406 L 152.589844 257.214844 L 147.230469 260.15625 L 141.976563 264 "/>
</g>
</svg>

