<?xml version="1.0" encoding="UTF-8"?>
<svg xmlns="http://www.w3.org/2000/svg" xmlns:xlink="http://www.w3.org/1999/xlink" width="256pt" height="256pt" viewBox="0 0 256 256" version="1.1">
<g id="surface2">
<rect x="0" y="0" width="256" height="256" style="fill:rgb(94.901961%,93.72549%,91.372549%);fill-opacity:1;stroke:none;"/>
<path style=" stroke:none;fill-rule:evenodd;fill:rgb(70.980392%,82.352941%,61.176471%);fill-opacity:1;" d="M -4 -4 L -4 260 L -4 -4 L 260 -4 Z M -4 -4 "/>
<path style=" stroke:none;fill-rule:evenodd;fill:rgb(79.607843%,84.705882%,76.470588%);fill-opacity:1;" d="M -4 -4 L -4 260 L -4 -4 L 260 -4 Z M -4 -4 "/>
<path style="fill:none;stroke-width:8;stroke-linecap:round;stroke-linejoin:round;stroke:rgb(75.686275%,70.980392%,61.568627%);stroke-opacity:1;stroke-miterlimit:10;" d="M 213.722656 42.292969 L 243.625 44.460938 "/>
<path style="fill:none;stroke-width:8;stroke-linecap:round;stroke-linejoin:round;stroke:rgb(75.686275%,70.980392%,61.568627%);stroke-opacity:1;stroke-miterlimit:10;" d="M 136.644531 47.578125 L 141.121094 46.125 L 144.246094 45.003906 L 147.339844 44.164063 L 150.589844 42.164063 L 154.339844 39.414063 L 157.839844 37.289063 L 160.839844 35.289063 L 163.496094 34.128906 L 166.714844 33.664063 L 171.691406 33.816406 "/>
<path style="fill:none;stroke-width:8;stroke-linecap:round;stroke-linejoin:round;stroke:rgb(75.686275%,70.980392%,61.568627%);stroke-opacity:1;stroke-miterlimit:10;" d="M 29.125 207.007813 L 30.925781 185.003906 L 30.125 181.007813 L 28.324219 177.402344 L 25.125 175.003906 L 20.925781 174.207031 L 11.527344 173.605469 L 6.523438 172.203125 L 3.324219 169.40625 L 1.523438 165.203125 L 0.925781 161.003906 L 1.125 157.203125 "/>
<path style="fill:none;stroke-width:8;stroke-linecap:round;stroke-linejoin:round;stroke:rgb(75.686275%,70.980392%,61.568627%);stroke-opacity:1;stroke-miterlimit:10;" d="M 241.136719 77.851563 L 246.195313 77.71875 L 249.996094 78.320313 L 252.996094 79.917969 L 254.996094 82.519531 L 264 104.539063 "/>
<path style="fill:none;stroke-width:8;stroke-linecap:round;stroke-linejoin:round;stroke:rgb(75.686275%,70.980392%,61.568627%);stroke-opacity:1;stroke-miterlimit:10;" d="M 218.820313 174.492188 L 218.253906 165.203125 L 217 162 L 214.738281 160.089844 L 210.316406 158.582031 L 163.121094 159.722656 L 158.117188 159.226563 L 154.246094 157.472656 L 135.25 144.824219 L 132.234375 140.5625 "/>
<path style="fill:none;stroke-width:8;stroke-linecap:round;stroke-linejoin:round;stroke:rgb(75.686275%,70.980392%,61.568627%);stroke-opacity:1;stroke-miterlimit:10;" d="M 244.9375 26.851563 L 251.199219 27.121094 L 254.796875 27.71875 L 257.796875 29.316406 L 259.996094 31.917969 L 264 39.390625 "/>
<path style="fill:none;stroke-width:8;stroke-linecap:round;stroke-linejoin:round;stroke:rgb(75.686275%,70.980392%,61.568627%);stroke-opacity:1;stroke-miterlimit:10;" d="M 164.480469 254.070313 L 130.324219 252.40625 L 89.125 249.605469 L 78.324219 248.804688 L 74.722656 246.605469 L 72.125 242.605469 L 69.324219 239.402344 L 64.921875 235.605469 L 62.324219 232.40625 L 61.125 228.605469 L 59.523438 220.601563 L 57.726563 217.203125 L 53.523438 211.804688 L 50.125 208.804688 L 45.925781 207.203125 L 40.324219 207.007813 L 29.125 207.007813 L -9 203.996094 "/>
<path style="fill:none;stroke-width:8;stroke-linecap:round;stroke-linejoin:round;stroke:rgb(75.686275%,70.980392%,61.568627%);stroke-opacity:1;stroke-miterlimit:10;" d="M 136.824219 93.636719 L 137.328125 88.109375 L 137.078125 51.703125 L 136.644531 47.578125 L 135.070313 44.605469 L 127.851563 34.25 L 125.839844 30.792969 L 125.085938 27.21875 L 126.152344 15.039063 L 125.273438 11.148438 L 116.800781 -5.675781 L 116.953125 -9 "/>
<path style="fill:none;stroke-width:8;stroke-linecap:round;stroke-linejoin:round;stroke:rgb(75.686275%,70.980392%,61.568627%);stroke-opacity:1;stroke-miterlimit:10;" d="M 47.226563 -9 L 47.121094 -5.496094 L 46.496094 1.503906 L 45.371094 5.5 L 42.746094 12.253906 L 38.496094 20.25 L 35.746094 26.253906 L 32.871094 32.003906 L 29.496094 40.875 L 27.871094 45.378906 L 25.246094 54.625 L 23.996094 59.753906 L 22.746094 68.125 L 22.371094 77.875 L 21.996094 88.878906 L 22.621094 96.378906 L 23.121094 103.753906 L 22.996094 110.628906 L 21.871094 118.753906 L 19.746094 125.875 L 17.371094 130.621094 L 14.621094 135.871094 L 10.996094 140.121094 L 6.871094 144.871094 L 3.746094 148.996094 L 2.246094 152.496094 L 1.125 157.203125 "/>
<path style="fill:none;stroke-width:8;stroke-linecap:round;stroke-linejoin:round;stroke:rgb(75.686275%,70.980392%,61.568627%);stroke-opacity:1;stroke-miterlimit:10;" d="M 239.355469 130.820313 L 201.167969 130.175781 L 192.753906 129.296875 L 187.859375 127.035156 L 184.46875 124.652344 L 182.082031 121.265625 L 179.820313 117.621094 L 178.566406 114.480469 L 176.429688 98.914063 L 171.285156 60.121094 L 171.035156 47.1875 L 171.691406 33.816406 L 172.792969 19.691406 L 174.171875 15.550781 L 176.183594 12.410156 L 178.945313 10.527344 L 182.585938 9.273438 L 185.597656 9.144531 L 211.585938 10.527344 L 214.097656 11.34375 L 216.734375 13.164063 L 217.863281 15.234375 L 218.429688 17.496094 L 218.804688 19.691406 L 214.601563 36.765625 L 214.035156 40.21875 L 213.722656 42.292969 L 213.34375 45.996094 L 213.15625 52.148438 L 213.660156 58.675781 L 214.601563 63.632813 L 218.996094 80.585938 L 219.433594 83.722656 L 219.246094 86.613281 L 218.367188 89.183594 L 217.175781 91.191406 L 215.730469 92.699219 L 213.722656 94.207031 L 211.523438 95.148438 L 208.824219 96.027344 L 205.875 96.339844 L 187.976563 97.066406 L 182.472656 97.507813 L 176.429688 98.914063 "/>
<path style="fill:none;stroke-width:8;stroke-linecap:round;stroke-linejoin:round;stroke:rgb(75.686275%,70.980392%,61.568627%);stroke-opacity:1;stroke-miterlimit:10;" d="M 162.4375 264 L 164.480469 254.070313 L 164.371094 231.222656 L 164.65625 223.933594 L 163.179688 218.21875 L 159.820313 211.34375 L 157.34375 204.128906 L 156.433594 196.15625 L 156.585938 190.410156 L 157.625 187.082031 L 159.726563 184.761719 L 164.027344 183.222656 L 188.621094 178.472656 L 218.820313 174.492188 L 236.535156 173.652344 L 245.9375 173.851563 L 264 174.933594 "/>
<path style="fill:none;stroke-width:8;stroke-linecap:round;stroke-linejoin:round;stroke:rgb(75.686275%,70.980392%,61.568627%);stroke-opacity:1;stroke-miterlimit:10;" d="M 229.757813 264 L 232.136719 230.25 L 236.535156 173.652344 L 238.9375 139.050781 L 239.355469 130.820313 L 239.734375 122.050781 L 240.136719 104.449219 L 240.335938 91.050781 L 241.136719 77.851563 L 243.625 44.460938 L 244.9375 26.851563 L 247.390625 -9 "/>
<path style="fill:none;stroke-width:6;stroke-linecap:round;stroke-linejoin:round;stroke:rgb(100%,100%,100%);stroke-opacity:1;stroke-miterlimit:10;" d="M 213.722656 42.292969 L 243.625 44.460938 "/>
<path style="fill:none;stroke-width:6;stroke-linecap:round;stroke-linejoin:round;stroke:rgb(100%,100%,100%);stroke-opacity:1;stroke-miterlimit:10;" d="M 136.644531 47.578125 L 141.121094 46.125 L 144.246094 45.003906 L 147.339844 44.164063 L 150.589844 42.164063 L 154.339844 39.414063 L 157.839844 37.289063 L 160.839844 35.289063 L 163.496094 34.128906 L 166.714844 33.664063 L 171.691406 33.816406 "/>
<path style="fill:none;stroke-width:6;stroke-linecap:round;stroke-linejoin:round;stroke:rgb(100%,100%,100%);stroke-opacity:1;stroke-miterlimit:10;" d="M 29.125 207.007813 L 30.925781 185.003906 L 30.125 181.007813 L 28.324219 177.402344 L 25.125 175.003906 L 20.925781 174.207031 L 11.527344 173.605469 L 6.523438 172.203125 L 3.324219 169.40625 L 1.523438 165.203125 L 0.925781 161.003906 L 1.125 157.203125 "/>
<path style="fill:none;stroke-width:6;stroke-linecap:round;stroke-linejoin:round;stroke:rgb(100%,100%,100%);stroke-opacity:1;stroke-miterlimit:10;" d="M 241.136719 77.851563 L 246.195313 77.71875 L 249.996094 78.320313 L 252.996094 79.917969 L 254.996094 82.519531 L 264 104.539063 "/>
<path style="fill:none;stroke-width:6;stroke-linecap:round;stroke-linejoin:round;stroke:rgb(100%,100%,100%);stroke-opacity:1;stroke-miterlimit:10;" d="M 218.820313 174.492188 L 218.253906 165.203125 L 217 162 L 214.738281 160.089844 L 210.316406 158.582031 L 163.121094 159.722656 L 158.117188 159.226563 L 154.246094 157.472656 L 135.25 144.824219 L 132.234375 140.5625 "/>
<path style="fill:none;stroke-width:6;stroke-linecap:round;stroke-linejoin:round;stroke:rgb(100%,100%,100%);stroke-opacity:1;stroke-miterlimit:10;" d="M 244.9375 26.851563 L 251.199219 27.121094 L 254.796875 27.71875 L 257.796875 29.316406 L 259.996094 31.917969 L 264 39.390625 "/>
<path style="fill:none;stroke-width:6;stroke-linecap:round;stroke-linejoin:round;stroke:rgb(100%,100%,100%);stroke-opacity:1;stroke-miterlimit:10;" d="M 164.480469 254.070313 L 130.324219 252.40625 L 89.125 249.605469 L 78.324219 248.804688 L 74.722656 246.605469 L 72.125 242.605469 L 69.324219 239.402344 L 64.921875 235.605469 L 62.324219 232.40625 L 61.125 228.605469 L 59.523438 220.601563 L 57.726563 217.203125 L 53.523438 211.804688 L 50.125 208.804688 L 45.925781 207.203125 L 40.324219 207.007813 L 29.125 207.007813 L -9 203.996094 "/>
<path style="fill:none;stroke-width:6;stroke-linecap:round;stroke-linejoin:round;stroke:rgb(100%,100%,100%);stroke-opacity:1;stroke-miterlimit:10;" d="M 136.824219 93.636719 L 137.328125 88.109375 L 137.078125 51.703125 L 136.644531 47.578125 L 135.070313 44.605469 L 127.851563 34.25 L 125.839844 30.792969 L 125.085938 27.21875 L 126.152344 15.039063 L 125.273438 11.148438 L 116.800781 -5.675781 L 116.953125 -9 "/>
<path style="fill:none;stroke-width:6;stroke-linecap:round;stroke-linejoin:round;stroke:rgb(100%,100%,100%);stroke-opacity:1;stroke-miterlimit:10;" d="M 47.226563 -9 L 47.121094 -5.496094 L 46.496094 1.503906 L 45.371094 5.5 L 42.746094 12.253906 L 38.496094 20.25 L 35.746094 26.253906 L 32.871094 32.003906 L 29.496094 40.875 L 27.871094 45.378906 L 25.246094 54.625 L 23.996094 59.753906 L 22.746094 68.125 L 22.371094 77.875 L 21.996094 88.878906 L 22.621094 96.378906 L 23.121094 103.753906 L 22.996094 110.628906 L 21.871094 118.753906 L 19.746094 125.875 L 17.371094 130.621094 L 14.621094 135.871094 L 10.996094 140.121094 L 6.871094 144.871094 L 3.746094 148.996094 L 2.246094 152.496094 L 1.125 157.203125 "/>
<path style="fill:none;stroke-width:6;stroke-linecap:round;stroke-linejoin:round;stroke:rgb(100%,100%,100%);stroke-opacity:1;stroke-miterlimit:10;" d="M 239.355469 130.820313 L 201.167969 130.175781 L 192.753906 129.296875 L 187.859375 127.035156 L 184.46875 124.652344 L 182.082031 121.265625 L 179.820313 117.621094 L 178.566406 114.480469 L 176.429688 98.914063 L 171.285156 60.121094 L 171.035156 47.1875 L 171.691406 33.816406 L 172.792969 19.691406 L 174.171875 15.550781 L 176.183594 12.410156 L 178.945313 10.527344 L 182.585938 9.273438 L 185.597656 9.144531 L 211.585938 10.527344 L 214.097656 11.34375 L 216.734375 13.164063 L 217.863281 15.234375 L 218.429688 17.496094 L 218.804688 19.691406 L 214.601563 36.765625 L 214.035156 40.21875 L 213.722656 42.292969 L 213.34375 45.996094 L 213.15625 52.148438 L 213.660156 58.675781 L 214.601563 63.632813 L 218.996094 80.585938 L 219.433594 83.722656 L 219.246094 86.613281 L 218.367188 89.183594 L 217.175781 91.191406 L 215.730469 92.699219 L 213.722656 94.207031 L 211.523438 95.148438 L 208.824219 96.027344 L 205.875 96.339844 L 187.976563 97.066406 L 182.472656 97.507813 L 176.429688 98.914063 "/>
<path style="fill:none;stroke-width:6;stroke-linecap:round;stroke-linejoin:round;stroke:rgb(100%,100%,100%);stroke-opacity:1;stroke-miterlimit:10;" d="M 162.4375 264 L 164.480469 254.070313 L 164.371094 231.222656 L 164.65625 223.933594 L 163.179688 218.21875 L 159.820313 211.34375 L 157.34375 204.128906 L 156.433594 196.15625 L 156.585938 190.410156 L 157.625 187.082031 L 159.726563 184.761719 L 164.027344 183.222656 L 188.621094 178.472656 L 218.820313 174.492188 L 236.535156 173.652344 L 245.9375 173.851563 L 264 174.933594 "/>
<path style="fill:none;stroke-width:6;stroke-linecap:round;stroke-linejoin:round;stroke:rgb(100%,99.215686%,54.509804%);stroke-opacity:1;stroke-miterlimit:10;" d="M 229.757813 264 L 232.136719 230.25 L 236.535156 173.652344 L 238.9375 139.050781 L 239.355469 130.820313 L 239.734375 122.050781 L 240.136719 104.449219 L 240.335938 91.050781 L 241.136719 77.851563 L 243.625 44.460938 L 244.9375 26.851563 L 247.390625 -9 "/>
<path style="fill:none;stroke-width:3;stroke-linecap:round;stroke-linejoin:round;stroke:rgb(100%,100%,100%);stroke-opacity:1;stroke-miterlimit:10;" d="M 23.207031 107.859375 C 23.300781 107.652344 23.484375 107.460938 23.753906 107.28125 C 24.015625 107.09375 24.378906 106.90625 24.847656 106.71875 L 27.066406 105.828125 L 27.019531 106.875 L 24.925781 107.703125 C 24.386719 107.921875 24.019531 108.140625 23.832031 108.359375 C 23.644531 108.570313 23.542969 108.867188 23.519531 109.25 L 23.472656 110.3125 L 26.863281 110.46875 L 26.816406 111.453125 L 18.816406 111.078125 L 18.910156 108.875 C 18.953125 108.042969 19.171875 107.4375 19.566406 107.0625 C 19.964844 106.679688 20.550781 106.5 21.332031 106.53125 C 21.832031 106.554688 22.246094 106.679688 22.566406 106.90625 C 22.890625 107.125 23.105469 107.445313 23.207031 107.859375 Z M 19.738281 110.140625 L 22.582031 110.265625 L 22.628906 109.046875 C 22.652344 108.570313 22.550781 108.203125 22.332031 107.953125 C 22.105469 107.703125 21.753906 107.570313 21.285156 107.546875 C 20.816406 107.527344 20.457031 107.632813 20.207031 107.859375 C 19.949219 108.089844 19.808594 108.445313 19.785156 108.921875 Z M 23.585938 99.777344 L 24.070313 99.761719 L 24.257813 103.855469 C 24.9375 103.785156 25.445313 103.574219 25.789063 103.230469 C 26.125 102.878906 26.273438 102.410156 26.242188 101.824219 C 26.234375 101.480469 26.175781 101.152344 26.070313 100.839844 C 25.957031 100.527344 25.804688 100.214844 25.617188 99.902344 L 26.539063 99.855469 C 26.707031 100.167969 26.835938 100.492188 26.929688 100.824219 C 27.023438 101.160156 27.078125 101.496094 27.085938 101.839844 C 27.125 102.707031 26.882813 103.402344 26.351563 103.933594 C 25.8125 104.457031 25.0625 104.738281 24.101563 104.777344 C 23.125 104.832031 22.335938 104.632813 21.742188 104.183594 C 21.140625 103.726563 20.820313 103.089844 20.789063 102.277344 C 20.757813 101.550781 20.992188 100.960938 21.492188 100.511719 C 21.992188 100.066406 22.691406 99.820313 23.585938 99.777344 Z M 23.335938 100.683594 C 22.796875 100.714844 22.367188 100.871094 22.054688 101.152344 C 21.742188 101.425781 21.597656 101.777344 21.617188 102.214844 C 21.640625 102.714844 21.816406 103.113281 22.148438 103.402344 C 22.472656 103.695313 22.914063 103.847656 23.476563 103.855469 Z M 21.371094 94.894531 L 18.136719 95.144531 L 18.074219 94.253906 L 26.402344 93.613281 L 26.464844 94.503906 L 25.558594 94.566406 C 25.945313 94.734375 26.238281 94.953125 26.433594 95.222656 C 26.621094 95.496094 26.730469 95.828125 26.761719 96.222656 C 26.804688 96.871094 26.554688 97.421875 26.011719 97.878906 C 25.460938 98.339844 24.714844 98.605469 23.777344 98.675781 C 22.832031 98.738281 22.054688 98.589844 21.449219 98.222656 C 20.835938 97.859375 20.507813 97.355469 20.464844 96.707031 C 20.433594 96.3125 20.496094 95.964844 20.652344 95.660156 C 20.800781 95.359375 21.039063 95.105469 21.371094 94.894531 Z M 23.714844 97.753906 C 24.433594 97.691406 24.992188 97.515625 25.386719 97.222656 C 25.773438 96.921875 25.949219 96.542969 25.917969 96.082031 C 25.878906 95.605469 25.644531 95.246094 25.214844 95.003906 C 24.777344 94.765625 24.199219 94.675781 23.480469 94.738281 C 22.753906 94.792969 22.195313 94.96875 21.808594 95.269531 C 21.414063 95.574219 21.238281 95.964844 21.277344 96.441406 C 21.308594 96.902344 21.542969 97.25 21.980469 97.488281 C 22.410156 97.71875 22.988281 97.808594 23.714844 97.753906 Z M 22.390625 85.515625 C 22.476563 85.308594 22.648438 85.109375 22.90625 84.921875 C 23.167969 84.726563 23.527344 84.527344 23.984375 84.328125 L 26.1875 83.375 L 26.171875 84.421875 L 24.09375 85.3125 C 23.5625 85.542969 23.210938 85.765625 23.03125 85.984375 C 22.84375 86.203125 22.746094 86.507813 22.734375 86.890625 L 22.71875 87.953125 L 26.109375 88.015625 L 26.09375 89 L 18.078125 88.875 L 18.109375 86.671875 C 18.132813 85.839844 18.335938 85.226563 18.71875 84.828125 C 19.105469 84.433594 19.6875 84.242188 20.46875 84.25 C 20.96875 84.261719 21.386719 84.375 21.71875 84.59375 C 22.042969 84.804688 22.265625 85.109375 22.390625 85.515625 Z M 18.984375 87.890625 L 21.828125 87.9375 L 21.84375 86.71875 C 21.855469 86.242188 21.746094 85.882813 21.515625 85.640625 C 21.277344 85.402344 20.921875 85.277344 20.453125 85.265625 C 19.984375 85.257813 19.632813 85.371094 19.390625 85.609375 C 19.140625 85.839844 19.011719 86.195313 19 86.671875 Z M 20.972656 79.953125 C 20.953125 80.433594 21.144531 80.820313 21.550781 81.109375 C 21.957031 81.402344 22.519531 81.558594 23.238281 81.578125 C 23.957031 81.609375 24.53125 81.496094 24.957031 81.234375 C 25.375 80.964844 25.59375 80.589844 25.613281 80.109375 C 25.625 79.632813 25.433594 79.25 25.035156 78.96875 C 24.628906 78.679688 24.066406 78.515625 23.347656 78.484375 C 22.628906 78.464844 22.058594 78.585938 21.628906 78.84375 C 21.203125 79.105469 20.984375 79.476563 20.972656 79.953125 Z M 20.144531 79.921875 C 20.167969 79.152344 20.464844 78.558594 21.035156 78.140625 C 21.609375 77.714844 22.390625 77.515625 23.378906 77.546875 C 24.359375 77.589844 25.125 77.839844 25.675781 78.296875 C 26.214844 78.757813 26.476563 79.371094 26.457031 80.140625 C 26.425781 80.921875 26.125 81.527344 25.550781 81.953125 C 24.96875 82.371094 24.1875 82.558594 23.207031 82.515625 C 22.21875 82.484375 21.453125 82.242188 20.910156 81.78125 C 20.371094 81.324219 20.113281 80.703125 20.144531 79.921875 Z M 20.808594 72.097656 L 21.730469 72.128906 C 21.566406 72.371094 21.441406 72.613281 21.355469 72.863281 C 21.261719 73.113281 21.210938 73.371094 21.199219 73.628906 C 21.179688 74.214844 21.367188 74.671875 21.761719 75.003906 C 22.160156 75.339844 22.726563 75.519531 23.464844 75.550781 C 24.195313 75.574219 24.769531 75.433594 25.183594 75.128906 C 25.601563 74.828125 25.820313 74.386719 25.839844 73.800781 C 25.851563 73.542969 25.824219 73.285156 25.761719 73.035156 C 25.699219 72.785156 25.597656 72.53125 25.449219 72.269531 L 26.355469 72.300781 C 26.480469 72.5625 26.566406 72.828125 26.621094 73.097656 C 26.671875 73.359375 26.691406 73.636719 26.683594 73.925781 C 26.652344 74.75 26.347656 75.390625 25.761719 75.847656 C 25.167969 76.308594 24.386719 76.519531 23.417969 76.488281 C 22.441406 76.449219 21.679688 76.175781 21.136719 75.675781 C 20.597656 75.167969 20.339844 74.488281 20.371094 73.644531 C 20.382813 73.375 20.425781 73.109375 20.496094 72.847656 C 20.570313 72.578125 20.675781 72.328125 20.808594 72.097656 Z M 18.351563 70.308594 L 18.414063 69.402344 L 23.335938 69.808594 L 20.976563 66.949219 L 21.070313 65.808594 L 23.632813 68.917969 L 27.070313 66.199219 L 26.976563 67.355469 L 23.820313 69.839844 L 26.742188 70.089844 L 26.679688 70.996094 Z M 24.65625 58.488281 C 24.78125 58.300781 24.992188 58.140625 25.28125 58.003906 C 25.5625 57.859375 25.949219 57.722656 26.4375 57.597656 L 28.765625 57.066406 L 28.5625 58.097656 L 26.375 58.597656 C 25.804688 58.722656 25.40625 58.878906 25.1875 59.066406 C 24.960938 59.253906 24.808594 59.535156 24.734375 59.910156 L 24.53125 60.941406 L 27.859375 61.613281 L 27.65625 62.582031 L 19.796875 61.003906 L 20.234375 58.847656 C 20.402344 58.035156 20.714844 57.46875 21.171875 57.144531 C 21.621094 56.824219 22.226563 56.738281 22.984375 56.894531 C 23.476563 56.988281 23.867188 57.171875 24.15625 57.441406 C 24.4375 57.714844 24.605469 58.0625 24.65625 58.488281 Z M 20.875 60.207031 L 23.65625 60.769531 L 23.890625 59.582031 C 23.984375 59.113281 23.9375 58.738281 23.75 58.457031 C 23.5625 58.175781 23.242188 57.988281 22.78125 57.894531 C 22.324219 57.800781 21.953125 57.847656 21.671875 58.035156 C 21.390625 58.222656 21.203125 58.550781 21.109375 59.019531 Z M 24.421875 52.742188 C 24.296875 53.203125 24.402344 53.617188 24.734375 53.992188 C 25.058594 54.367188 25.570313 54.648438 26.265625 54.835938 C 26.953125 55.023438 27.539063 55.039063 28.015625 54.882813 C 28.484375 54.726563 28.78125 54.421875 28.90625 53.960938 C 29.039063 53.503906 28.945313 53.085938 28.625 52.710938 C 28.292969 52.328125 27.78125 52.039063 27.09375 51.851563 C 26.398438 51.664063 25.8125 51.65625 25.34375 51.820313 C 24.867188 51.976563 24.558594 52.285156 24.421875 52.742188 Z M 23.625 52.523438 C 23.835938 51.785156 24.265625 51.273438 24.921875 50.992188 C 25.570313 50.710938 26.371094 50.703125 27.328125 50.960938 C 28.265625 51.222656 28.945313 51.644531 29.375 52.226563 C 29.8125 52.800781 29.925781 53.457031 29.71875 54.195313 C 29.507813 54.945313 29.078125 55.457031 28.421875 55.726563 C 27.757813 56 26.953125 56.003906 26.015625 55.742188 C 25.058594 55.484375 24.371094 55.070313 23.953125 54.507813 C 23.527344 53.9375 23.417969 53.273438 23.625 52.523438 Z M 28.40625 47.210938 C 28.199219 47.898438 28.148438 48.40625 28.25 48.726563 C 28.355469 49.039063 28.617188 49.257813 29.03125 49.382813 C 29.355469 49.476563 29.648438 49.457031 29.90625 49.320313 C 30.167969 49.1875 30.347656 48.945313 30.453125 48.601563 C 30.597656 48.125 30.523438 47.6875 30.234375 47.289063 C 29.945313 46.882813 29.492188 46.59375 28.875 46.414063 L 28.65625 46.351563 Z M 28.515625 45.382813 L 31.8125 46.367188 L 31.5625 47.210938 L 30.6875 46.945313 C 30.976563 47.257813 31.164063 47.585938 31.25 47.929688 C 31.332031 48.265625 31.3125 48.640625 31.1875 49.054688 C 31.03125 49.585938 30.738281 49.960938 30.3125 50.179688 C 29.886719 50.398438 29.398438 50.425781 28.84375 50.257813 C 28.1875 50.070313 27.757813 49.734375 27.546875 49.242188 C 27.328125 48.753906 27.335938 48.117188 27.5625 47.335938 L 27.921875 46.132813 L 27.828125 46.101563 C 27.390625 45.976563 27.015625 46.007813 26.703125 46.195313 C 26.382813 46.382813 26.152344 46.710938 26.015625 47.179688 C 25.933594 47.472656 25.886719 47.773438 25.875 48.085938 C 25.867188 48.390625 25.90625 48.695313 26 49.007813 L 25.125 48.742188 C 25.085938 48.378906 25.074219 48.046875 25.09375 47.742188 C 25.117188 47.429688 25.167969 47.140625 25.25 46.867188 C 25.46875 46.117188 25.851563 45.617188 26.390625 45.367188 C 26.933594 45.117188 27.640625 45.125 28.515625 45.382813 Z M 28.753906 39.769531 L 25.707031 38.644531 L 26.003906 37.800781 L 33.847656 40.691406 L 33.550781 41.535156 L 32.707031 41.222656 C 32.964844 41.527344 33.128906 41.839844 33.191406 42.160156 C 33.253906 42.484375 33.214844 42.832031 33.082031 43.207031 C 32.851563 43.824219 32.398438 44.222656 31.722656 44.410156 C 31.035156 44.597656 30.25 44.53125 29.363281 44.207031 C 28.46875 43.875 27.824219 43.417969 27.425781 42.832031 C 27.019531 42.25 26.933594 41.652344 27.160156 41.035156 C 27.296875 40.660156 27.496094 40.371094 27.753906 40.160156 C 28.015625 39.953125 28.347656 39.824219 28.753906 39.769531 Z M 29.691406 43.347656 C 30.378906 43.597656 30.964844 43.671875 31.441406 43.566406 C 31.910156 43.453125 32.226563 43.175781 32.394531 42.738281 C 32.558594 42.292969 32.496094 41.871094 32.207031 41.472656 C 31.917969 41.078125 31.425781 40.753906 30.738281 40.503906 C 30.050781 40.246094 29.46875 40.171875 28.988281 40.285156 C 28.511719 40.402344 28.1875 40.683594 28.019531 41.128906 C 27.855469 41.566406 27.921875 41.984375 28.222656 42.378906 C 28.515625 42.765625 29.003906 43.089844 29.691406 43.347656 Z M 29.691406 43.347656 "/>
<path style=" stroke:none;fill-rule:evenodd;fill:rgb(20%,20%,20%);fill-opacity:1;" d="M 23.207031 107.859375 C 23.300781 107.652344 23.484375 107.460938 23.753906 107.28125 C 24.015625 107.09375 24.378906 106.90625 24.847656 106.71875 L 27.066406 105.828125 L 27.019531 106.875 L 24.925781 107.703125 C 24.386719 107.921875 24.019531 108.140625 23.832031 108.359375 C 23.644531 108.570313 23.542969 108.867188 23.519531 109.25 L 23.472656 110.3125 L 26.863281 110.46875 L 26.816406 111.453125 L 18.816406 111.078125 L 18.910156 108.875 C 18.953125 108.042969 19.171875 107.4375 19.566406 107.0625 C 19.964844 106.679688 20.550781 106.5 21.332031 106.53125 C 21.832031 106.554688 22.246094 106.679688 22.566406 106.90625 C 22.890625 107.125 23.105469 107.445313 23.207031 107.859375 Z M 19.738281 110.140625 L 22.582031 110.265625 L 22.628906 109.046875 C 22.652344 108.570313 22.550781 108.203125 22.332031 107.953125 C 22.105469 107.703125 21.753906 107.570313 21.285156 107.546875 C 20.816406 107.527344 20.457031 107.632813 20.207031 107.859375 C 19.949219 108.089844 19.808594 108.445313 19.785156 108.921875 Z M 23.585938 99.777344 L 24.070313 99.761719 L 24.257813 103.855469 C 24.9375 103.785156 25.445313 103.574219 25.789063 103.230469 C 26.125 102.878906 26.273438 102.410156 26.242188 101.824219 C 26.234375 101.480469 26.175781 101.152344 26.070313 100.839844 C 25.957031 100.527344 25.804688 100.214844 25.617188 99.902344 L 26.539063 99.855469 C 26.707031 100.167969 26.835938 100.492188 26.929688 100.824219 C 27.023438 101.160156 27.078125 101.496094 27.085938 101.839844 C 27.125 102.707031 26.882813 103.402344 26.351563 103.933594 C 25.8125 104.457031 25.0625 104.738281 24.101563 104.777344 C 23.125 104.832031 22.335938 104.632813 21.742188 104.183594 C 21.140625 103.726563 20.820313 103.089844 20.789063 102.277344 C 20.757813 101.550781 20.992188 100.960938 21.492188 100.511719 C 21.992188 100.066406 22.691406 99.820313 23.585938 99.777344 Z M 23.335938 100.683594 C 22.796875 100.714844 22.367188 100.871094 22.054688 101.152344 C 21.742188 101.425781 21.597656 101.777344 21.617188 102.214844 C 21.640625 102.714844 21.816406 103.113281 22.148438 103.402344 C 22.472656 103.695313 22.914063 103.847656 23.476563 103.855469 Z M 21.371094 94.894531 L 18.136719 95.144531 L 18.074219 94.253906 L 26.402344 93.613281 L 26.464844 94.503906 L 25.558594 94.566406 C 25.945313 94.734375 26.238281 94.953125 26.433594 95.222656 C 26.621094 95.496094 26.730469 95.828125 26.761719 96.222656 C 26.804688 96.871094 26.554688 97.421875 26.011719 97.878906 C 25.460938 98.339844 24.714844 98.605469 23.777344 98.675781 C 22.832031 98.738281 22.054688 98.589844 21.449219 98.222656 C 20.835938 97.859375 20.507813 97.355469 20.464844 96.707031 C 20.433594 96.3125 20.496094 95.964844 20.652344 95.660156 C 20.800781 95.359375 21.039063 95.105469 21.371094 94.894531 Z M 23.714844 97.753906 C 24.433594 97.691406 24.992188 97.515625 25.386719 97.222656 C 25.773438 96.921875 25.949219 96.542969 25.917969 96.082031 C 25.878906 95.605469 25.644531 95.246094 25.214844 95.003906 C 24.777344 94.765625 24.199219 94.675781 23.480469 94.738281 C 22.753906 94.792969 22.195313 94.96875 21.808594 95.269531 C 21.414063 95.574219 21.238281 95.964844 21.277344 96.441406 C 21.308594 96.902344 21.542969 97.25 21.980469 97.488281 C 22.410156 97.71875 22.988281 97.808594 23.714844 97.753906 Z M 22.390625 85.515625 C 22.476563 85.308594 22.648438 85.109375 22.90625 84.921875 C 23.167969 84.726563 23.527344 84.527344 23.984375 84.328125 L 26.1875 83.375 L 26.171875 84.421875 L 24.09375 85.3125 C 23.5625 85.542969 23.210938 85.765625 23.03125 85.984375 C 22.84375 86.203125 22.746094 86.507813 22.734375 86.890625 L 22.71875 87.953125 L 26.109375 88.015625 L 26.09375 89 L 18.078125 88.875 L 18.109375 86.671875 C 18.132813 85.839844 18.335938 85.226563 18.71875 84.828125 C 19.105469 84.433594 19.6875 84.242188 20.46875 84.25 C 20.96875 84.261719 21.386719 84.375 21.71875 84.59375 C 22.042969 84.804688 22.265625 85.109375 22.390625 85.515625 Z M 18.984375 87.890625 L 21.828125 87.9375 L 21.84375 86.71875 C 21.855469 86.242188 21.746094 85.882813 21.515625 85.640625 C 21.277344 85.402344 20.921875 85.277344 20.453125 85.265625 C 19.984375 85.257813 19.632813 85.371094 19.390625 85.609375 C 19.140625 85.839844 19.011719 86.195313 19 86.671875 Z M 20.972656 79.953125 C 20.953125 80.433594 21.144531 80.820313 21.550781 81.109375 C 21.957031 81.402344 22.519531 81.558594 23.238281 81.578125 C 23.957031 81.609375 24.53125 81.496094 24.957031 81.234375 C 25.375 80.964844 25.59375 80.589844 25.613281 80.109375 C 25.625 79.632813 25.433594 79.25 25.035156 78.96875 C 24.628906 78.679688 24.066406 78.515625 23.347656 78.484375 C 22.628906 78.464844 22.058594 78.585938 21.628906 78.84375 C 21.203125 79.105469 20.984375 79.476563 20.972656 79.953125 Z M 20.144531 79.921875 C 20.167969 79.152344 20.464844 78.558594 21.035156 78.140625 C 21.609375 77.714844 22.390625 77.515625 23.378906 77.546875 C 24.359375 77.589844 25.125 77.839844 25.675781 78.296875 C 26.214844 78.757813 26.476563 79.371094 26.457031 80.140625 C 26.425781 80.921875 26.125 81.527344 25.550781 81.953125 C 24.96875 82.371094 24.1875 82.558594 23.207031 82.515625 C 22.21875 82.484375 21.453125 82.242188 20.910156 81.78125 C 20.371094 81.324219 20.113281 80.703125 20.144531 79.921875 Z M 20.808594 72.097656 L 21.730469 72.128906 C 21.566406 72.371094 21.441406 72.613281 21.355469 72.863281 C 21.261719 73.113281 21.210938 73.371094 21.199219 73.628906 C 21.179688 74.214844 21.367188 74.671875 21.761719 75.003906 C 22.160156 75.339844 22.726563 75.519531 23.464844 75.550781 C 24.195313 75.574219 24.769531 75.433594 25.183594 75.128906 C 25.601563 74.828125 25.820313 74.386719 25.839844 73.800781 C 25.851563 73.542969 25.824219 73.285156 25.761719 73.035156 C 25.699219 72.785156 25.597656 72.53125 25.449219 72.269531 L 26.355469 72.300781 C 26.480469 72.5625 26.566406 72.828125 26.621094 73.097656 C 26.671875 73.359375 26.691406 73.636719 26.683594 73.925781 C 26.652344 74.75 26.347656 75.390625 25.761719 75.847656 C 25.167969 76.308594 24.386719 76.519531 23.417969 76.488281 C 22.441406 76.449219 21.679688 76.175781 21.136719 75.675781 C 20.597656 75.167969 20.339844 74.488281 20.371094 73.644531 C 20.382813 73.375 20.425781 73.109375 20.496094 72.847656 C 20.570313 72.578125 20.675781 72.328125 20.808594 72.097656 Z M 18.351563 70.308594 L 18.414063 69.402344 L 23.335938 69.808594 L 20.976563 66.949219 L 21.070313 65.808594 L 23.632813 68.917969 L 27.070313 66.199219 L 26.976563 67.355469 L 23.820313 69.839844 L 26.742188 70.089844 L 26.679688 70.996094 Z M 24.65625 58.488281 C 24.78125 58.300781 24.992188 58.140625 25.28125 58.003906 C 25.5625 57.859375 25.949219 57.722656 26.4375 57.597656 L 28.765625 57.066406 L 28.5625 58.097656 L 26.375 58.597656 C 25.804688 58.722656 25.40625 58.878906 25.1875 59.066406 C 24.960938 59.253906 24.808594 59.535156 24.734375 59.910156 L 24.53125 60.941406 L 27.859375 61.613281 L 27.65625 62.582031 L 19.796875 61.003906 L 20.234375 58.847656 C 20.402344 58.035156 20.714844 57.46875 21.171875 57.144531 C 21.621094 56.824219 22.226563 56.738281 22.984375 56.894531 C 23.476563 56.988281 23.867188 57.171875 24.15625 57.441406 C 24.4375 57.714844 24.605469 58.0625 24.65625 58.488281 Z M 20.875 60.207031 L 23.65625 60.769531 L 23.890625 59.582031 C 23.984375 59.113281 23.9375 58.738281 23.75 58.457031 C 23.5625 58.175781 23.242188 57.988281 22.78125 57.894531 C 22.324219 57.800781 21.953125 57.847656 21.671875 58.035156 C 21.390625 58.222656 21.203125 58.550781 21.109375 59.019531 Z M 24.421875 52.742188 C 24.296875 53.203125 24.402344 53.617188 24.734375 53.992188 C 25.058594 54.367188 25.570313 54.648438 26.265625 54.835938 C 26.953125 55.023438 27.539063 55.039063 28.015625 54.882813 C 28.484375 54.726563 28.78125 54.421875 28.90625 53.960938 C 29.039063 53.503906 28.945313 53.085938 28.625 52.710938 C 28.292969 52.328125 27.78125 52.039063 27.09375 51.851563 C 26.398438 51.664063 25.8125 51.65625 25.34375 51.820313 C 24.867188 51.976563 24.558594 52.285156 24.421875 52.742188 Z M 23.625 52.523438 C 23.835938 51.785156 24.265625 51.273438 24.921875 50.992188 C 25.570313 50.710938 26.371094 50.703125 27.328125 50.960938 C 28.265625 51.222656 28.945313 51.644531 29.375 52.226563 C 29.8125 52.800781 29.925781 53.457031 29.71875 54.195313 C 29.507813 54.945313 29.078125 55.457031 28.421875 55.726563 C 27.757813 56 26.953125 56.003906 26.015625 55.742188 C 25.058594 55.484375 24.371094 55.070313 23.953125 54.507813 C 23.527344 53.9375 23.417969 53.273438 23.625 52.523438 Z M 28.40625 47.210938 C 28.199219 47.898438 28.148438 48.40625 28.25 48.726563 C 28.355469 49.039063 28.617188 49.257813 29.03125 49.382813 C 29.355469 49.476563 29.648438 49.457031 29.90625 49.320313 C 30.167969 49.1875 30.347656 48.945313 30.453125 48.601563 C 30.597656 48.125 30.523438 47.6875 30.234375 47.289063 C 29.945313 46.882813 29.492188 46.59375 28.875 46.414063 L 28.65625 46.351563 Z M 28.515625 45.382813 L 31.8125 46.367188 L 31.5625 47.210938 L 30.6875 46.945313 C 30.976563 47.257813 31.164063 47.585938 31.25 47.929688 C 31.332031 48.265625 31.3125 48.640625 31.1875 49.054688 C 31.03125 49.585938 30.738281 49.960938 30.3125 50.179688 C 29.886719 50.398438 29.398438 50.425781 28.84375 50.257813 C 28.1875 50.070313 27.757813 49.734375 27.546875 49.242188 C 27.328125 48.753906 27.335938 48.117188 27.5625 47.335938 L 27.921875 46.132813 L 27.828125 46.101563 C 27.390625 45.976563 27.015625 46.007813 26.703125 46.195313 C 26.382813 46.382813 26.152344 46.710938 26.015625 47.179688 C 25.933594 47.472656 25.886719 47.773438 25.875 48.085938 C 25.867188 48.390625 25.90625 48.695313 26 49.007813 L 25.125 48.742188 C 25.085938 48.378906 25.074219 48.046875 25.09375 47.742188 C 25.117188 47.429688 25.167969 47.140625 25.25 46.867188 C 25.46875 46.117188 25.851563 45.617188 26.390625 45.367188 C 26.933594 45.117188 27.640625 45.125 28.515625 45.382813 Z M 28.753906 39.769531 L 25.707031 38.644531 L 26.003906 37.800781 L 33.847656 40.691406 L 33.550781 41.535156 L 32.707031 41.222656 C 32.964844 41.527344 33.128906 41.839844 33.191406 42.160156 C 33.253906 42.484375 33.214844 42.832031 33.082031 43.207031 C 32.851563 43.824219 32.398438 44.222656 31.722656 44.410156 C 31.035156 44.597656 30.25 44.53125 29.363281 44.207031 C 28.46875 43.875 27.824219 43.417969 27.425781 42.832031 C 27.019531 42.25 26.933594 41.652344 27.160156 41.035156 C 27.296875 40.660156 27.496094 40.371094 27.753906 40.160156 C 28.015625 39.953125 28.347656 39.824219 28.753906 39.769531 Z M 29.691406 43.347656 C 30.378906 43.597656 30.964844 43.671875 31.441406 43.566406 C 31.910156 43.453125 32.226563 43.175781 32.394531 42.738281 C 32.558594 42.292969 32.496094 41.871094 32.207031 41.472656 C 31.917969 41.078125 31.425781 40.753906 30.738281 40.503906 C 30.050781 40.246094 29.46875 40.171875 28.988281 40.285156 C 28.511719 40.402344 28.1875 40.683594 28.019531 41.128906 C 27.855469 41.566406 27.921875 41.984375 28.222656 42.378906 C 28.515625 42.765625 29.003906 43.089844 29.691406 43.347656 Z M 29.691406 43.347656 "/>
<path style="fill:none;stroke-width:3;stroke-linecap:round;stroke-linejoin:round;stroke:rgb(100%,100%,100%);stroke-opacity:1;stroke-miterlimit:10;" d="M 151.949219 151.074219 L 153.199219 151.824219 L 151.964844 157.449219 L 156.355469 153.746094 L 157.605469 154.496094 L 153.464844 161.355469 L 152.652344 160.855469 L 156.292969 154.824219 L 151.855469 158.574219 L 151.011719 158.058594 L 152.261719 152.402344 L 148.621094 158.433594 L 147.808594 157.933594 Z M 159.472656 160.058594 C 158.761719 159.914063 158.253906 159.902344 157.941406 160.027344 C 157.636719 160.152344 157.441406 160.429688 157.347656 160.855469 C 157.285156 161.199219 157.332031 161.496094 157.488281 161.746094 C 157.652344 161.988281 157.914063 162.144531 158.269531 162.214844 C 158.757813 162.320313 159.183594 162.210938 159.550781 161.886719 C 159.914063 161.554688 160.160156 161.082031 160.285156 160.464844 L 160.332031 160.230469 Z M 161.285156 160.027344 L 160.597656 163.386719 L 159.722656 163.199219 L 159.910156 162.308594 C 159.636719 162.621094 159.335938 162.832031 159.003906 162.949219 C 158.667969 163.0625 158.289063 163.074219 157.863281 162.980469 C 157.320313 162.863281 156.917969 162.609375 156.660156 162.214844 C 156.410156 161.808594 156.347656 161.320313 156.472656 160.746094 C 156.605469 160.089844 156.910156 159.632813 157.378906 159.371094 C 157.847656 159.113281 158.476563 159.066406 159.269531 159.230469 L 160.488281 159.480469 L 160.503906 159.386719 C 160.597656 158.941406 160.535156 158.570313 160.316406 158.277344 C 160.105469 157.976563 159.761719 157.773438 159.285156 157.667969 C 158.992188 157.605469 158.691406 157.589844 158.378906 157.621094 C 158.074219 157.644531 157.773438 157.707031 157.472656 157.808594 L 157.660156 156.933594 C 158.011719 156.851563 158.347656 156.808594 158.660156 156.808594 C 158.972656 156.800781 159.269531 156.824219 159.550781 156.886719 C 160.320313 157.042969 160.847656 157.382813 161.128906 157.902344 C 161.417969 158.414063 161.472656 159.121094 161.285156 160.027344 Z M 167.660156 159.976563 L 167.675781 163.601563 L 166.785156 163.601563 L 166.769531 160.007813 C 166.757813 159.4375 166.648438 159.007813 166.441406 158.726563 C 166.242188 158.445313 165.945313 158.3125 165.550781 158.320313 C 165.070313 158.320313 164.691406 158.492188 164.410156 158.835938 C 164.136719 159.171875 164.007813 159.628906 164.019531 160.210938 L 164.035156 163.617188 L 163.128906 163.632813 L 163.097656 157.617188 L 164.003906 157.601563 L 164.003906 158.539063 C 164.210938 158.175781 164.457031 157.90625 164.738281 157.726563 C 165.027344 157.550781 165.367188 157.460938 165.753906 157.460938 C 166.367188 157.453125 166.835938 157.660156 167.160156 158.085938 C 167.480469 158.515625 167.648438 159.144531 167.660156 159.976563 Z M 171.492188 158.1875 C 171.011719 158.199219 170.636719 158.417969 170.367188 158.84375 C 170.105469 159.273438 169.980469 159.84375 169.992188 160.5625 C 170.011719 161.28125 170.164063 161.84375 170.445313 162.25 C 170.734375 162.648438 171.121094 162.839844 171.601563 162.828125 C 172.078125 162.820313 172.449219 162.605469 172.710938 162.1875 C 172.980469 161.773438 173.105469 161.203125 173.085938 160.484375 C 173.074219 159.765625 172.921875 159.203125 172.632813 158.796875 C 172.351563 158.382813 171.96875 158.179688 171.492188 158.1875 Z M 171.460938 157.359375 C 172.230469 157.351563 172.84375 157.617188 173.304688 158.15625 C 173.761719 158.699219 174 159.464844 174.023438 160.453125 C 174.054688 161.433594 173.851563 162.214844 173.414063 162.796875 C 172.984375 163.371094 172.386719 163.660156 171.617188 163.671875 C 170.835938 163.691406 170.21875 163.429688 169.773438 162.875 C 169.324219 162.324219 169.085938 161.558594 169.054688 160.578125 C 169.03125 159.589844 169.230469 158.8125 169.648438 158.25 C 170.074219 157.679688 170.679688 157.382813 171.460938 157.359375 Z M 178.582031 158.257813 C 178.476563 158.195313 178.363281 158.148438 178.238281 158.117188 C 178.121094 158.085938 177.996094 158.078125 177.863281 158.085938 C 177.351563 158.097656 176.964844 158.289063 176.707031 158.664063 C 176.457031 159.03125 176.335938 159.550781 176.347656 160.226563 L 176.425781 163.398438 L 175.519531 163.429688 L 175.378906 157.414063 L 176.285156 157.382813 L 176.300781 158.320313 C 176.476563 157.957031 176.710938 157.679688 177.003906 157.492188 C 177.292969 157.304688 177.652344 157.207031 178.082031 157.195313 C 178.144531 157.195313 178.210938 157.203125 178.285156 157.210938 C 178.367188 157.210938 178.457031 157.222656 178.550781 157.242188 Z M 188.035156 155.710938 L 188.050781 156.867188 C 187.714844 156.535156 187.363281 156.289063 186.988281 156.132813 C 186.613281 155.976563 186.214844 155.90625 185.800781 155.914063 C 184.976563 155.9375 184.347656 156.234375 183.910156 156.804688 C 183.480469 157.367188 183.285156 158.179688 183.316406 159.242188 C 183.335938 160.296875 183.574219 161.097656 184.035156 161.648438 C 184.492188 162.203125 185.132813 162.46875 185.957031 162.445313 C 186.371094 162.4375 186.761719 162.34375 187.128906 162.164063 C 187.492188 161.988281 187.835938 161.722656 188.160156 161.367188 L 188.191406 162.492188 C 187.855469 162.765625 187.496094 162.972656 187.113281 163.117188 C 186.738281 163.253906 186.335938 163.324219 185.910156 163.335938 C 184.816406 163.355469 183.945313 163.003906 183.300781 162.273438 C 182.664063 161.546875 182.332031 160.539063 182.300781 159.257813 C 182.269531 157.96875 182.554688 156.941406 183.160156 156.179688 C 183.761719 155.421875 184.613281 155.03125 185.707031 155.007813 C 186.144531 155 186.554688 155.054688 186.941406 155.179688 C 187.324219 155.296875 187.691406 155.472656 188.035156 155.710938 Z M 191.640625 157.699219 C 191.160156 157.710938 190.785156 157.929688 190.515625 158.355469 C 190.253906 158.785156 190.128906 159.355469 190.140625 160.074219 C 190.160156 160.792969 190.3125 161.355469 190.59375 161.761719 C 190.882813 162.160156 191.269531 162.351563 191.75 162.339844 C 192.226563 162.332031 192.597656 162.117188 192.859375 161.699219 C 193.128906 161.285156 193.253906 160.714844 193.234375 159.996094 C 193.222656 159.277344 193.070313 158.714844 192.78125 158.308594 C 192.5 157.894531 192.117188 157.691406 191.640625 157.699219 Z M 191.609375 156.871094 C 192.378906 156.863281 192.992188 157.128906 193.453125 157.667969 C 193.910156 158.210938 194.148438 158.976563 194.171875 159.964844 C 194.203125 160.945313 194 161.726563 193.5625 162.308594 C 193.132813 162.882813 192.535156 163.171875 191.765625 163.183594 C 190.984375 163.203125 190.367188 162.941406 189.921875 162.386719 C 189.472656 161.835938 189.234375 161.070313 189.203125 160.089844 C 189.179688 159.101563 189.378906 158.324219 189.796875 157.761719 C 190.222656 157.191406 190.828125 156.894531 191.609375 156.871094 Z M 195.5625 160.566406 L 195.484375 156.925781 L 196.375 156.894531 L 196.453125 160.503906 C 196.472656 161.066406 196.582031 161.488281 196.78125 161.769531 C 196.988281 162.050781 197.289063 162.1875 197.6875 162.175781 C 198.175781 162.167969 198.550781 161.988281 198.8125 161.644531 C 199.082031 161.300781 199.210938 160.832031 199.203125 160.238281 L 199.125 156.832031 L 200.015625 156.816406 L 200.15625 162.832031 L 199.265625 162.847656 L 199.25 161.925781 C 199.03125 162.300781 198.78125 162.582031 198.5 162.769531 C 198.226563 162.949219 197.898438 163.039063 197.515625 163.050781 C 196.898438 163.058594 196.425781 162.859375 196.09375 162.441406 C 195.757813 162.015625 195.582031 161.390625 195.5625 160.566406 Z M 197.703125 156.722656 Z M 205.011719 157.617188 C 204.90625 157.554688 204.792969 157.507813 204.667969 157.476563 C 204.550781 157.445313 204.425781 157.4375 204.292969 157.445313 C 203.78125 157.457031 203.394531 157.648438 203.136719 158.023438 C 202.886719 158.390625 202.765625 158.910156 202.777344 159.585938 L 202.855469 162.757813 L 201.949219 162.789063 L 201.808594 156.773438 L 202.714844 156.742188 L 202.730469 157.679688 C 202.90625 157.316406 203.140625 157.039063 203.433594 156.851563 C 203.722656 156.664063 204.082031 156.566406 204.511719 156.554688 C 204.574219 156.554688 204.640625 156.5625 204.714844 156.570313 C 204.796875 156.570313 204.886719 156.582031 204.980469 156.601563 Z M 206.746094 154.941406 L 206.792969 156.644531 L 208.621094 156.597656 L 208.636719 157.363281 L 206.808594 157.410156 L 206.886719 160.675781 C 206.894531 161.167969 206.964844 161.484375 207.089844 161.628906 C 207.214844 161.765625 207.464844 161.828125 207.839844 161.816406 L 208.746094 161.785156 L 208.761719 162.613281 L 207.855469 162.644531 C 207.167969 162.65625 206.6875 162.527344 206.417969 162.253906 C 206.15625 161.972656 206.015625 161.457031 205.996094 160.707031 L 205.917969 157.441406 L 205.261719 157.457031 L 205.246094 156.691406 L 205.902344 156.675781 L 205.855469 154.972656 Z M 206.746094 154.941406 "/>
<path style=" stroke:none;fill-rule:evenodd;fill:rgb(20%,20%,20%);fill-opacity:1;" d="M 151.949219 151.074219 L 153.199219 151.824219 L 151.964844 157.449219 L 156.355469 153.746094 L 157.605469 154.496094 L 153.464844 161.355469 L 152.652344 160.855469 L 156.292969 154.824219 L 151.855469 158.574219 L 151.011719 158.058594 L 152.261719 152.402344 L 148.621094 158.433594 L 147.808594 157.933594 Z M 159.472656 160.058594 C 158.761719 159.914063 158.253906 159.902344 157.941406 160.027344 C 157.636719 160.152344 157.441406 160.429688 157.347656 160.855469 C 157.285156 161.199219 157.332031 161.496094 157.488281 161.746094 C 157.652344 161.988281 157.914063 162.144531 158.269531 162.214844 C 158.757813 162.320313 159.183594 162.210938 159.550781 161.886719 C 159.914063 161.554688 160.160156 161.082031 160.285156 160.464844 L 160.332031 160.230469 Z M 161.285156 160.027344 L 160.597656 163.386719 L 159.722656 163.199219 L 159.910156 162.308594 C 159.636719 162.621094 159.335938 162.832031 159.003906 162.949219 C 158.667969 163.0625 158.289063 163.074219 157.863281 162.980469 C 157.320313 162.863281 156.917969 162.609375 156.660156 162.214844 C 156.410156 161.808594 156.347656 161.320313 156.472656 160.746094 C 156.605469 160.089844 156.910156 159.632813 157.378906 159.371094 C 157.847656 159.113281 158.476563 159.066406 159.269531 159.230469 L 160.488281 159.480469 L 160.503906 159.386719 C 160.597656 158.941406 160.535156 158.570313 160.316406 158.277344 C 160.105469 157.976563 159.761719 157.773438 159.285156 157.667969 C 158.992188 157.605469 158.691406 157.589844 158.378906 157.621094 C 158.074219 157.644531 157.773438 157.707031 157.472656 157.808594 L 157.660156 156.933594 C 158.011719 156.851563 158.347656 156.808594 158.660156 156.808594 C 158.972656 156.800781 159.269531 156.824219 159.550781 156.886719 C 160.320313 157.042969 160.847656 157.382813 161.128906 157.902344 C 161.417969 158.414063 161.472656 159.121094 161.285156 160.027344 Z M 167.660156 159.976563 L 167.675781 163.601563 L 166.785156 163.601563 L 166.769531 160.007813 C 166.757813 159.4375 166.648438 159.007813 166.441406 158.726563 C 166.242188 158.445313 165.945313 158.3125 165.550781 158.320313 C 165.070313 158.320313 164.691406 158.492188 164.410156 158.835938 C 164.136719 159.171875 164.007813 159.628906 164.019531 160.210938 L 164.035156 163.617188 L 163.128906 163.632813 L 163.097656 157.617188 L 164.003906 157.601563 L 164.003906 158.539063 C 164.210938 158.175781 164.457031 157.90625 164.738281 157.726563 C 165.027344 157.550781 165.367188 157.460938 165.753906 157.460938 C 166.367188 157.453125 166.835938 157.660156 167.160156 158.085938 C 167.480469 158.515625 167.648438 159.144531 167.660156 159.976563 Z M 171.492188 158.1875 C 171.011719 158.199219 170.636719 158.417969 170.367188 158.84375 C 170.105469 159.273438 169.980469 159.84375 169.992188 160.5625 C 170.011719 161.28125 170.164063 161.84375 170.445313 162.25 C 170.734375 162.648438 171.121094 162.839844 171.601563 162.828125 C 172.078125 162.820313 172.449219 162.605469 172.710938 162.1875 C 172.980469 161.773438 173.105469 161.203125 173.085938 160.484375 C 173.074219 159.765625 172.921875 159.203125 172.632813 158.796875 C 172.351563 158.382813 171.96875 158.179688 171.492188 158.1875 Z M 171.460938 157.359375 C 172.230469 157.351563 172.84375 157.617188 173.304688 158.15625 C 173.761719 158.699219 174 159.464844 174.023438 160.453125 C 174.054688 161.433594 173.851563 162.214844 173.414063 162.796875 C 172.984375 163.371094 172.386719 163.660156 171.617188 163.671875 C 170.835938 163.691406 170.21875 163.429688 169.773438 162.875 C 169.324219 162.324219 169.085938 161.558594 169.054688 160.578125 C 169.03125 159.589844 169.230469 158.8125 169.648438 158.25 C 170.074219 157.679688 170.679688 157.382813 171.460938 157.359375 Z M 178.582031 158.257813 C 178.476563 158.195313 178.363281 158.148438 178.238281 158.117188 C 178.121094 158.085938 177.996094 158.078125 177.863281 158.085938 C 177.351563 158.097656 176.964844 158.289063 176.707031 158.664063 C 176.457031 159.03125 176.335938 159.550781 176.347656 160.226563 L 176.425781 163.398438 L 175.519531 163.429688 L 175.378906 157.414063 L 176.285156 157.382813 L 176.300781 158.320313 C 176.476563 157.957031 176.710938 157.679688 177.003906 157.492188 C 177.292969 157.304688 177.652344 157.207031 178.082031 157.195313 C 178.144531 157.195313 178.210938 157.203125 178.285156 157.210938 C 178.367188 157.210938 178.457031 157.222656 178.550781 157.242188 Z M 188.035156 155.710938 L 188.050781 156.867188 C 187.714844 156.535156 187.363281 156.289063 186.988281 156.132813 C 186.613281 155.976563 186.214844 155.90625 185.800781 155.914063 C 184.976563 155.9375 184.347656 156.234375 183.910156 156.804688 C 183.480469 157.367188 183.285156 158.179688 183.316406 159.242188 C 183.335938 160.296875 183.574219 161.097656 184.035156 161.648438 C 184.492188 162.203125 185.132813 162.46875 185.957031 162.445313 C 186.371094 162.4375 186.761719 162.34375 187.128906 162.164063 C 187.492188 161.988281 187.835938 161.722656 188.160156 161.367188 L 188.191406 162.492188 C 187.855469 162.765625 187.496094 162.972656 187.113281 163.117188 C 186.738281 163.253906 186.335938 163.324219 185.910156 163.335938 C 184.816406 163.355469 183.945313 163.003906 183.300781 162.273438 C 182.664063 161.546875 182.332031 160.539063 182.300781 159.257813 C 182.269531 157.96875 182.554688 156.941406 183.160156 156.179688 C 183.761719 155.421875 184.613281 155.03125 185.707031 155.007813 C 186.144531 155 186.554688 155.054688 186.941406 155.179688 C 187.324219 155.296875 187.691406 155.472656 188.035156 155.710938 Z M 191.640625 157.699219 C 191.160156 157.710938 190.785156 157.929688 190.515625 158.355469 C 190.253906 158.785156 190.128906 159.355469 190.140625 160.074219 C 190.160156 160.792969 190.3125 161.355469 190.59375 161.761719 C 190.882813 162.160156 191.269531 162.351563 191.75 162.339844 C 192.226563 162.332031 192.597656 162.117188 192.859375 161.699219 C 193.128906 161.285156 193.253906 160.714844 193.234375 159.996094 C 193.222656 159.277344 193.070313 158.714844 192.78125 158.308594 C 192.5 157.894531 192.117188 157.691406 191.640625 157.699219 Z M 191.609375 156.871094 C 192.378906 156.863281 192.992188 157.128906 193.453125 157.667969 C 193.910156 158.210938 194.148438 158.976563 194.171875 159.964844 C 194.203125 160.945313 194 161.726563 193.5625 162.308594 C 193.132813 162.882813 192.535156 163.171875 191.765625 163.183594 C 190.984375 163.203125 190.367188 162.941406 189.921875 162.386719 C 189.472656 161.835938 189.234375 161.070313 189.203125 160.089844 C 189.179688 159.101563 189.378906 158.324219 189.796875 157.761719 C 190.222656 157.191406 190.828125 156.894531 191.609375 156.871094 Z M 195.5625 160.566406 L 195.484375 156.925781 L 196.375 156.894531 L 196.453125 160.503906 C 196.472656 161.066406 196.582031 161.488281 196.78125 161.769531 C 196.988281 162.050781 197.289063 162.1875 197.6875 162.175781 C 198.175781 162.167969 198.550781 161.988281 198.8125 161.644531 C 199.082031 161.300781 199.210938 160.832031 199.203125 160.238281 L 199.125 156.832031 L 200.015625 156.816406 L 200.15625 162.832031 L 199.265625 162.847656 L 199.25 161.925781 C 199.03125 162.300781 198.78125 162.582031 198.5 162.769531 C 198.226563 162.949219 197.898438 163.039063 197.515625 163.050781 C 196.898438 163.058594 196.425781 162.859375 196.09375 162.441406 C 195.757813 162.015625 195.582031 161.390625 195.5625 160.566406 Z M 197.703125 156.722656 Z M 205.011719 157.617188 C 204.90625 157.554688 204.792969 157.507813 204.667969 157.476563 C 204.550781 157.445313 204.425781 157.4375 204.292969 157.445313 C 203.78125 157.457031 203.394531 157.648438 203.136719 158.023438 C 202.886719 158.390625 202.765625 158.910156 202.777344 159.585938 L 202.855469 162.757813 L 201.949219 162.789063 L 201.808594 156.773438 L 202.714844 156.742188 L 202.730469 157.679688 C 202.90625 157.316406 203.140625 157.039063 203.433594 156.851563 C 203.722656 156.664063 204.082031 156.566406 204.511719 156.554688 C 204.574219 156.554688 204.640625 156.5625 204.714844 156.570313 C 204.796875 156.570313 204.886719 156.582031 204.980469 156.601563 Z M 206.746094 154.941406 L 206.792969 156.644531 L 208.621094 156.597656 L 208.636719 157.363281 L 206.808594 157.410156 L 206.886719 160.675781 C 206.894531 161.167969 206.964844 161.484375 207.089844 161.628906 C 207.214844 161.765625 207.464844 161.828125 207.839844 161.816406 L 208.746094 161.785156 L 208.761719 162.613281 L 207.855469 162.644531 C 207.167969 162.65625 206.6875 162.527344 206.417969 162.253906 C 206.15625 161.972656 206.015625 161.457031 205.996094 160.707031 L 205.917969 157.441406 L 205.261719 157.457031 L 205.246094 156.691406 L 205.902344 156.675781 L 205.855469 154.972656 Z M 206.746094 154.941406 "/>
</g>
</svg>

