<?xml version="1.0" encoding="UTF-8"?>
<svg xmlns="http://www.w3.org/2000/svg" xmlns:xlink="http://www.w3.org/1999/xlink" width="256pt" height="256pt" viewBox="0 0 256 256" version="1.1">
<g id="surface2">
<rect x="0" y="0" width="256" height="256" style="fill:rgb(94.901961%,93.72549%,91.372549%);fill-opacity:1;stroke:none;"/>
<path style="fill:none;stroke-width:8;stroke-linecap:round;stroke-linejoin:round;stroke:rgb(75.686275%,70.980392%,61.568627%);stroke-opacity:1;stroke-miterlimit:10;" d="M 53.703125 264 L 50.964844 261.082031 L 45.347656 253.3125 "/>
<path style="fill:none;stroke-width:8;stroke-linecap:round;stroke-linejoin:round;stroke:rgb(75.686275%,70.980392%,61.568627%);stroke-opacity:1;stroke-miterlimit:10;" d="M -9 197.496094 L -5.871094 197.261719 L -0.953125 196.949219 L 15.546875 195.859375 "/>
<path style="fill:none;stroke-width:8;stroke-linecap:round;stroke-linejoin:round;stroke:rgb(75.686275%,70.980392%,61.568627%);stroke-opacity:1;stroke-miterlimit:10;" d="M 26.871094 264 L 31.132813 262.457031 L 38.496094 260.273438 L 42.503906 258.273438 L 44.460938 255.402344 L 45.347656 253.3125 L 45.582031 249.128906 L 45.089844 246.882813 L 42.203125 241.828125 L 36.144531 234.246094 L 34.488281 231.75 L 32.277344 227.066406 L 28.453125 218.203125 L 25.984375 213.429688 L 24.445313 210.464844 L 17.363281 199.667969 L 15.546875 195.859375 L 14.449219 191.863281 L 14.707031 185.121094 L 17.59375 165.429688 L 19.855469 155.316406 L 27.148438 132.566406 L 29.386719 121.675781 L 32.34375 102.480469 L 36.238281 81.257813 L 38.964844 58.597656 L 40.804688 48.269531 L 45.089844 31.664063 L 46.28125 25.609375 L 47.003906 21.269531 L 48.332031 -1.390625 L 48.445313 -8.253906 L 48.441406 -9 "/>
<path style="fill:none;stroke-width:6;stroke-linecap:round;stroke-linejoin:round;stroke:rgb(100%,100%,100%);stroke-opacity:1;stroke-miterlimit:10;" d="M 53.703125 264 L 50.964844 261.082031 L 45.347656 253.3125 "/>
<path style="fill:none;stroke-width:6;stroke-linecap:round;stroke-linejoin:round;stroke:rgb(100%,100%,100%);stroke-opacity:1;stroke-miterlimit:10;" d="M -9 197.496094 L -5.871094 197.261719 L -0.953125 196.949219 L 15.546875 195.859375 "/>
<path style="fill:none;stroke-width:6;stroke-linecap:round;stroke-linejoin:round;stroke:rgb(100%,99.215686%,54.509804%);stroke-opacity:1;stroke-miterlimit:10;" d="M 26.871094 264 L 31.132813 262.457031 L 38.496094 260.273438 L 42.503906 258.273438 L 44.460938 255.402344 L 45.347656 253.3125 L 45.582031 249.128906 L 45.089844 246.882813 L 42.203125 241.828125 L 36.144531 234.246094 L 34.488281 231.75 L 32.277344 227.066406 L 28.453125 218.203125 L 25.984375 213.429688 L 24.445313 210.464844 L 17.363281 199.667969 L 15.546875 195.859375 L 14.449219 191.863281 L 14.707031 185.121094 L 17.59375 165.429688 L 19.855469 155.316406 L 27.148438 132.566406 L 29.386719 121.675781 L 32.34375 102.480469 L 36.238281 81.257813 L 38.964844 58.597656 L 40.804688 48.269531 L 45.089844 31.664063 L 46.28125 25.609375 L 47.003906 21.269531 L 48.332031 -1.390625 L 48.445313 -8.253906 L 48.441406 -9 "/>
</g>
</svg>

