<?xml version="1.0" encoding="UTF-8"?>
<svg xmlns="http://www.w3.org/2000/svg" xmlns:xlink="http://www.w3.org/1999/xlink" width="256pt" height="256pt" viewBox="0 0 256 256" version="1.1">
<g id="surface2">
<rect x="0" y="0" width="256" height="256" style="fill:rgb(94.901961%,93.72549%,91.372549%);fill-opacity:1;stroke:none;"/>
<path style="fill:none;stroke-width:2;stroke-linecap:round;stroke-linejoin:round;stroke:rgb(60%,70.196078%,80%);stroke-opacity:1;stroke-miterlimit:10;" d="M -3 254.390625 L 16.867188 249.738281 L 48.234375 235.863281 L 44.816406 227.820313 L 34.558594 222.191406 L 7.417969 220.582031 L -3 217.179688 M -3 27.207031 L 1.460938 25.917969 L 4.019531 17.53125 L 3.453125 11.703125 L 2.171875 2.175781 L 4.875 -2.941406 L 11.128906 0.757813 L 22.503906 6.015625 L 24.921875 11.5625 L 26.058594 14.6875 L 38.429688 19.664063 L 48.234375 18.386719 L 49.945313 9 L 45.820313 0.328125 L 43.324219 -3 "/>
<path style="fill:none;stroke-width:1;stroke-linecap:round;stroke-linejoin:round;stroke:rgb(100%,100%,100%);stroke-opacity:1;stroke-dasharray:2,3;stroke-miterlimit:10;" d="M 191.019531 257 L 192.210938 240.882813 L 189.367188 226.988281 L 183.855469 213.09375 L 187.054688 198.699219 L 186.878906 190.265625 L 184.210938 182.820313 L 172.476563 168.925781 L 160.566406 148.078125 L 151.679688 144.230469 L 135.324219 131.328125 L 128.390625 109.613281 L 123.410156 99.9375 L 118.789063 94.972656 L 117.191406 89.886719 L 118.789063 76.859375 L 121.101563 71.894531 L 123.765625 73.507813 L 128.210938 64.820313 L 130.523438 53.285156 L 132.476563 52.292969 L 135.675781 41.246094 L 135.5 32.4375 L 128.746094 24.992188 L 126.96875 18.789063 L 129.097656 1.914063 L 128.457031 -2 "/>
</g>
</svg>

