<?xml version="1.0" encoding="UTF-8"?>
<svg xmlns="http://www.w3.org/2000/svg" xmlns:xlink="http://www.w3.org/1999/xlink" width="256pt" height="256pt" viewBox="0 0 256 256" version="1.1">
<g id="surface2">
<rect x="0" y="0" width="256" height="256" style="fill:rgb(94.901961%,93.72549%,91.372549%);fill-opacity:1;stroke:none;"/>
<path style=" stroke:none;fill-rule:evenodd;fill:rgb(60%,70.196078%,80%);fill-opacity:1;" d="M 14.574219 90.433594 L 23.292969 99.488281 L 33.1875 107.203125 L 44.425781 107.875 L 51.132813 102.339844 L 50.378906 97.054688 L 35.703125 91.269531 L 15.996094 88.753906 Z M 14.574219 90.433594 "/>
<path style="fill:none;stroke-width:1;stroke-linecap:round;stroke-linejoin:round;stroke:rgb(70.196078%,77.647059%,83.137255%);stroke-opacity:1;stroke-miterlimit:10;" d="M 14.574219 90.433594 L 23.292969 99.488281 L 33.1875 107.203125 L 44.425781 107.875 L 51.132813 102.339844 L 50.378906 97.054688 L 35.703125 91.269531 L 15.996094 88.753906 L 14.574219 90.433594 "/>
<path style="fill:none;stroke-width:2;stroke-linecap:round;stroke-linejoin:round;stroke:rgb(60%,70.196078%,80%);stroke-opacity:1;stroke-miterlimit:10;" d="M 230.261719 19.417969 L 203.804688 -3 "/>
<path style="fill:none;stroke-width:1;stroke-linecap:round;stroke-linejoin:round;stroke:rgb(100%,100%,100%);stroke-opacity:1;stroke-dasharray:2,3;stroke-miterlimit:10;" d="M 92.777344 239.390625 L 93.269531 241.832031 "/>
<path style="fill:none;stroke-width:1;stroke-linecap:round;stroke-linejoin:round;stroke:rgb(100%,100%,100%);stroke-opacity:1;stroke-dasharray:2,3;stroke-miterlimit:10;" d="M 247.578125 39.277344 L 244.035156 42.894531 L 237.601563 48.1875 L 231.671875 54.371094 L 228.960938 54.246094 L 223.535156 57.652344 L 219.058594 64.148438 L 215.207031 70.582031 L 211.804688 80.230469 L 208.902344 85.84375 L 205.117188 89.25 L 200.007813 90.640625 L 194.269531 92.910156 L 191.367188 95.054688 L 187.203125 95.054688 L 182.410156 96.882813 L 178.183594 102.5625 L 174.144531 107.734375 L 171.875 112.023438 L 168.34375 116.121094 L 163.738281 117.574219 L 160.773438 119.464844 L 157.117188 123.945313 L 156.421875 126.972656 L 154.53125 128.230469 L 150.871094 129.429688 L 146.457031 128.484375 L 140.96875 129.621094 L 136.300781 132.144531 L 132.582031 133.722656 L 130.371094 136.875 L 125.390625 142.488281 L 121.417969 149.679688 L 117.820313 155.417969 L 116.9375 162.609375 L 116.5 171.667969 L 111.6875 176.109375 L 109.1875 184.296875 L 105.6875 194.171875 L 106.8125 203.296875 L 103.082031 216.824219 L 97.800781 222.449219 L 95.832031 225.761719 L 95.457031 228.105469 L 96.859375 232.261719 L 96.640625 236.011719 L 96.429688 238.546875 "/>
<path style="fill:none;stroke-width:1;stroke-linecap:round;stroke-linejoin:round;stroke:rgb(100%,100%,100%);stroke-opacity:1;stroke-dasharray:2,3;stroke-miterlimit:10;" d="M 257 238.28125 L 251.398438 234.222656 L 247.089844 231.707031 L 240.996094 230.378906 L 236.886719 229.652344 L 233.042969 227.664063 L 230.722656 225.148438 L 225.617188 222.558594 L 222.109375 221.304688 L 214.988281 219.148438 L 209.367188 217.085938 L 201.398438 213.804688 L 198.121094 209.871094 L 197.464844 204.902344 L 194.089844 202.371094 L 188.375 200.121094 L 184.25 197.78125 L 181.15625 194.40625 L 173 188.875 L 168.503906 186.4375 L 165.503906 185.21875 L 159.601563 186.625 L 155.101563 186.8125 L 148.726563 187.28125 L 142.636719 188.6875 L 138.511719 194.125 L 135.890625 199.09375 L 132.234375 202.464844 L 129.328125 204.433594 L 126.046875 206.121094 L 124.828125 210.058594 L 121.734375 212.585938 L 117.332031 214.554688 L 115.738281 217.085938 L 114.425781 219.992188 L 111.519531 225.425781 L 107.539063 227.996094 L 105.898438 230.957031 L 101.179688 233.847656 L 99.253906 235.738281 L 96.429688 238.546875 L 92.777344 239.390625 L 90.058594 238.363281 L 86.707031 236.550781 L 85.609375 237.363281 L 84.789063 238.597656 L 84.652344 239.691406 "/>
<path style="fill:none;stroke-width:1;stroke-linecap:round;stroke-linejoin:round;stroke:rgb(100%,100%,100%);stroke-opacity:1;stroke-dasharray:2,3;stroke-miterlimit:10;" d="M 201.085938 -2 L 203.136719 1.5 L 217.214844 9.800781 L 226.167969 19.777344 L 232.648438 22.289063 L 240.050781 32.867188 L 247.578125 39.277344 L 249.140625 40.609375 L 251.792969 41.914063 L 257 46.691406 "/>
</g>
</svg>

