<?xml version="1.0" encoding="UTF-8"?>
<svg xmlns="http://www.w3.org/2000/svg" xmlns:xlink="http://www.w3.org/1999/xlink" width="256pt" height="256pt" viewBox="0 0 256 256" version="1.1">
<g id="surface2">
<rect x="0" y="0" width="256" height="256" style="fill:rgb(60%,70.196078%,80%);fill-opacity:1;stroke:none;"/>
<path style="fill:none;stroke-width:6;stroke-linecap:round;stroke-linejoin:round;stroke:rgb(60%,70.196078%,80%);stroke-opacity:1;stroke-miterlimit:10;" d="M 117.777344 -7 L 148.742188 55.75 L 251.625 262 "/>
<path style="fill:none;stroke-width:3;stroke-linecap:round;stroke-linejoin:round;stroke:rgb(100%,100%,100%);stroke-opacity:1;stroke-miterlimit:10;" d="M 172.078125 92.492188 L 175.296875 98.945313 L 174.328125 99.429688 L 172.984375 96.726563 L 165.46875 100.476563 L 164.953125 99.445313 L 172.46875 95.695313 L 171.109375 92.976563 Z M 173.5 106.976563 L 169.65625 108.898438 L 169.203125 107.960938 L 173 106.070313 C 173.613281 105.765625 174.015625 105.433594 174.203125 105.070313 C 174.390625 104.703125 174.378906 104.308594 174.171875 103.882813 C 173.921875 103.382813 173.539063 103.078125 173.03125 102.960938 C 172.53125 102.847656 171.96875 102.945313 171.34375 103.257813 L 167.75 105.054688 L 167.265625 104.101563 L 176.109375 99.695313 L 176.59375 100.648438 L 173.125 102.382813 C 173.601563 102.40625 174.015625 102.519531 174.359375 102.726563 C 174.703125 102.9375 174.976563 103.242188 175.1875 103.648438 C 175.507813 104.292969 175.523438 104.898438 175.234375 105.460938 C 174.953125 106.03125 174.375 106.539063 173.5 106.976563 Z M 176.484375 113.960938 L 175.984375 114.210938 L 173.828125 109.867188 C 173.117188 110.28125 172.664063 110.757813 172.46875 111.289063 C 172.269531 111.828125 172.328125 112.414063 172.640625 113.039063 C 172.828125 113.402344 173.050781 113.726563 173.3125 114.007813 C 173.570313 114.289063 173.882813 114.546875 174.25 114.789063 L 173.265625 115.289063 C 172.929688 115.027344 172.632813 114.742188 172.375 114.429688 C 172.113281 114.117188 171.890625 113.777344 171.703125 113.414063 C 171.253906 112.507813 171.191406 111.636719 171.515625 110.804688 C 171.835938 109.980469 172.503906 109.316406 173.515625 108.804688 C 174.554688 108.285156 175.507813 108.128906 176.375 108.335938 C 177.238281 108.535156 177.882813 109.066406 178.3125 109.929688 C 178.695313 110.699219 178.722656 111.445313 178.390625 112.164063 C 178.066406 112.890625 177.429688 113.492188 176.484375 113.960938 Z M 176.328125 112.851563 C 176.890625 112.570313 177.273438 112.199219 177.484375 111.742188 C 177.691406 111.292969 177.675781 110.835938 177.4375 110.367188 C 177.175781 109.835938 176.800781 109.5 176.3125 109.351563 C 175.820313 109.207031 175.269531 109.257813 174.65625 109.507813 Z M 183.988281 116.359375 L 184.675781 117.75 L 179.269531 124.671875 L 186.363281 121.125 L 186.863281 122.140625 L 178.378906 126.375 L 177.691406 124.96875 L 183.097656 118.0625 L 176.003906 121.59375 L 175.503906 120.59375 Z M 183.890625 129.394531 C 183.503906 128.632813 183.140625 128.152344 182.796875 127.957031 C 182.453125 127.757813 182.050781 127.773438 181.59375 128.003906 C 181.226563 128.179688 180.988281 128.429688 180.875 128.753906 C 180.769531 129.085938 180.8125 129.445313 181 129.832031 C 181.257813 130.351563 181.671875 130.664063 182.234375 130.769531 C 182.796875 130.882813 183.421875 130.769531 184.109375 130.425781 L 184.34375 130.316406 Z M 185.265625 131.050781 L 181.625 132.863281 L 181.140625 131.910156 L 182.109375 131.425781 C 181.617188 131.414063 181.203125 131.292969 180.859375 131.066406 C 180.515625 130.835938 180.222656 130.488281 179.984375 130.019531 C 179.691406 129.425781 179.644531 128.863281 179.84375 128.332031 C 180.039063 127.808594 180.441406 127.398438 181.046875 127.097656 C 181.765625 126.746094 182.410156 126.691406 182.984375 126.941406 C 183.566406 127.191406 184.070313 127.742188 184.5 128.597656 L 185.15625 129.910156 L 185.265625 129.847656 C 185.742188 129.617188 186.046875 129.289063 186.171875 128.863281 C 186.296875 128.445313 186.226563 127.980469 185.96875 127.472656 C 185.8125 127.152344 185.609375 126.859375 185.359375 126.597656 C 185.117188 126.339844 184.835938 126.105469 184.515625 125.894531 L 185.46875 125.410156 C 185.800781 125.683594 186.082031 125.964844 186.3125 126.253906 C 186.550781 126.535156 186.75 126.828125 186.90625 127.128906 C 187.3125 127.960938 187.378906 128.699219 187.109375 129.347656 C 186.847656 130.003906 186.234375 130.570313 185.265625 131.050781 Z M 189.625 135.4375 C 189.644531 135.300781 189.640625 135.160156 189.609375 135.015625 C 189.578125 134.878906 189.519531 134.734375 189.4375 134.578125 C 189.175781 134.046875 188.785156 133.742188 188.265625 133.65625 C 187.742188 133.5625 187.125 133.695313 186.40625 134.046875 L 183.046875 135.71875 L 182.5625 134.765625 L 188.921875 131.59375 L 189.40625 132.546875 L 188.421875 133.046875 C 188.898438 133.039063 189.3125 133.148438 189.65625 133.375 C 190 133.59375 190.285156 133.925781 190.515625 134.375 C 190.546875 134.445313 190.578125 134.523438 190.609375 134.609375 C 190.640625 134.691406 190.664063 134.789063 190.6875 134.90625 Z M 191.773438 139.742188 C 191.792969 139.605469 191.789063 139.464844 191.757813 139.320313 C 191.726563 139.183594 191.667969 139.039063 191.585938 138.882813 C 191.324219 138.351563 190.933594 138.046875 190.414063 137.960938 C 189.890625 137.867188 189.273438 138 188.554688 138.351563 L 185.195313 140.023438 L 184.710938 139.070313 L 191.070313 135.898438 L 191.554688 136.851563 L 190.570313 137.351563 C 191.046875 137.34375 191.460938 137.453125 191.804688 137.679688 C 192.148438 137.898438 192.433594 138.230469 192.664063 138.679688 C 192.695313 138.75 192.726563 138.828125 192.757813 138.914063 C 192.789063 138.996094 192.8125 139.09375 192.835938 139.210938 Z M 193.625 142.816406 C 193.375 142.316406 192.957031 142.03125 192.375 141.957031 C 191.789063 141.875 191.113281 142.027344 190.34375 142.410156 C 189.582031 142.785156 189.054688 143.226563 188.765625 143.738281 C 188.484375 144.257813 188.46875 144.769531 188.71875 145.269531 C 188.96875 145.769531 189.382813 146.054688 189.96875 146.128906 C 190.550781 146.210938 191.21875 146.066406 191.96875 145.691406 C 192.726563 145.316406 193.253906 144.867188 193.546875 144.347656 C 193.847656 143.824219 193.875 143.316406 193.625 142.816406 Z M 194.5 142.378906 C 194.90625 143.199219 194.925781 143.992188 194.5625 144.753906 C 194.207031 145.511719 193.507813 146.152344 192.46875 146.675781 C 191.425781 147.195313 190.488281 147.367188 189.65625 147.191406 C 188.832031 147.023438 188.21875 146.527344 187.8125 145.707031 C 187.40625 144.882813 187.378906 144.089844 187.734375 143.332031 C 188.097656 142.582031 188.800781 141.949219 189.84375 141.425781 C 190.882813 140.90625 191.816406 140.730469 192.640625 140.894531 C 193.472656 141.0625 194.09375 141.558594 194.5 142.378906 Z M 196.164063 146.09375 L 196.632813 147.046875 L 192.257813 150.6875 L 197.804688 149.390625 L 198.351563 150.5 L 193.976563 154.140625 L 199.523438 152.84375 L 199.992188 153.78125 L 192.898438 155.453125 L 192.335938 154.34375 L 196.945313 150.515625 L 191.101563 151.875 L 190.554688 150.765625 Z M 202.351563 158.949219 L 201.351563 159.433594 C 201.359375 159.089844 201.335938 158.753906 201.273438 158.433594 C 201.210938 158.121094 201.101563 157.808594 200.945313 157.496094 C 200.714844 157.027344 200.460938 156.714844 200.179688 156.558594 C 199.898438 156.402344 199.601563 156.402344 199.289063 156.558594 C 199.046875 156.683594 198.902344 156.867188 198.851563 157.105469 C 198.808594 157.347656 198.84375 157.746094 198.960938 158.308594 L 199.039063 158.667969 C 199.203125 159.417969 199.214844 160 199.070313 160.417969 C 198.921875 160.84375 198.59375 161.1875 198.085938 161.449219 C 197.480469 161.738281 196.898438 161.761719 196.335938 161.511719 C 195.78125 161.261719 195.324219 160.769531 194.960938 160.042969 C 194.8125 159.738281 194.6875 159.40625 194.585938 159.042969 C 194.492188 158.675781 194.417969 158.277344 194.367188 157.839844 L 195.445313 157.308594 C 195.414063 157.753906 195.433594 158.167969 195.507813 158.542969 C 195.578125 158.925781 195.699219 159.285156 195.867188 159.621094 C 196.085938 160.058594 196.335938 160.355469 196.617188 160.511719 C 196.90625 160.667969 197.203125 160.667969 197.507813 160.511719 C 197.789063 160.375 197.960938 160.183594 198.023438 159.933594 C 198.09375 159.683594 198.058594 159.238281 197.914063 158.605469 L 197.835938 158.230469 C 197.679688 157.574219 197.671875 157.042969 197.820313 156.636719 C 197.976563 156.230469 198.296875 155.910156 198.789063 155.667969 C 199.382813 155.367188 199.9375 155.332031 200.460938 155.558594 C 200.980469 155.789063 201.417969 156.253906 201.773438 156.949219 C 201.9375 157.292969 202.070313 157.628906 202.164063 157.964844 C 202.265625 158.296875 202.328125 158.625 202.351563 158.949219 Z M 202.351563 158.949219 "/>
<path style=" stroke:none;fill-rule:evenodd;fill:rgb(41.960784%,58.039216%,69.019608%);fill-opacity:1;" d="M 172.078125 92.492188 L 175.296875 98.945313 L 174.328125 99.429688 L 172.984375 96.726563 L 165.46875 100.476563 L 164.953125 99.445313 L 172.46875 95.695313 L 171.109375 92.976563 Z M 173.5 106.976563 L 169.65625 108.898438 L 169.203125 107.960938 L 173 106.070313 C 173.613281 105.765625 174.015625 105.433594 174.203125 105.070313 C 174.390625 104.703125 174.378906 104.308594 174.171875 103.882813 C 173.921875 103.382813 173.539063 103.078125 173.03125 102.960938 C 172.53125 102.847656 171.96875 102.945313 171.34375 103.257813 L 167.75 105.054688 L 167.265625 104.101563 L 176.109375 99.695313 L 176.59375 100.648438 L 173.125 102.382813 C 173.601563 102.40625 174.015625 102.519531 174.359375 102.726563 C 174.703125 102.9375 174.976563 103.242188 175.1875 103.648438 C 175.507813 104.292969 175.523438 104.898438 175.234375 105.460938 C 174.953125 106.03125 174.375 106.539063 173.5 106.976563 Z M 176.484375 113.960938 L 175.984375 114.210938 L 173.828125 109.867188 C 173.117188 110.28125 172.664063 110.757813 172.46875 111.289063 C 172.269531 111.828125 172.328125 112.414063 172.640625 113.039063 C 172.828125 113.402344 173.050781 113.726563 173.3125 114.007813 C 173.570313 114.289063 173.882813 114.546875 174.25 114.789063 L 173.265625 115.289063 C 172.929688 115.027344 172.632813 114.742188 172.375 114.429688 C 172.113281 114.117188 171.890625 113.777344 171.703125 113.414063 C 171.253906 112.507813 171.191406 111.636719 171.515625 110.804688 C 171.835938 109.980469 172.503906 109.316406 173.515625 108.804688 C 174.554688 108.285156 175.507813 108.128906 176.375 108.335938 C 177.238281 108.535156 177.882813 109.066406 178.3125 109.929688 C 178.695313 110.699219 178.722656 111.445313 178.390625 112.164063 C 178.066406 112.890625 177.429688 113.492188 176.484375 113.960938 Z M 176.328125 112.851563 C 176.890625 112.570313 177.273438 112.199219 177.484375 111.742188 C 177.691406 111.292969 177.675781 110.835938 177.4375 110.367188 C 177.175781 109.835938 176.800781 109.5 176.3125 109.351563 C 175.820313 109.207031 175.269531 109.257813 174.65625 109.507813 Z M 183.988281 116.359375 L 184.675781 117.75 L 179.269531 124.671875 L 186.363281 121.125 L 186.863281 122.140625 L 178.378906 126.375 L 177.691406 124.96875 L 183.097656 118.0625 L 176.003906 121.59375 L 175.503906 120.59375 Z M 183.890625 129.394531 C 183.503906 128.632813 183.140625 128.152344 182.796875 127.957031 C 182.453125 127.757813 182.050781 127.773438 181.59375 128.003906 C 181.226563 128.179688 180.988281 128.429688 180.875 128.753906 C 180.769531 129.085938 180.8125 129.445313 181 129.832031 C 181.257813 130.351563 181.671875 130.664063 182.234375 130.769531 C 182.796875 130.882813 183.421875 130.769531 184.109375 130.425781 L 184.34375 130.316406 Z M 185.265625 131.050781 L 181.625 132.863281 L 181.140625 131.910156 L 182.109375 131.425781 C 181.617188 131.414063 181.203125 131.292969 180.859375 131.066406 C 180.515625 130.835938 180.222656 130.488281 179.984375 130.019531 C 179.691406 129.425781 179.644531 128.863281 179.84375 128.332031 C 180.039063 127.808594 180.441406 127.398438 181.046875 127.097656 C 181.765625 126.746094 182.410156 126.691406 182.984375 126.941406 C 183.566406 127.191406 184.070313 127.742188 184.5 128.597656 L 185.15625 129.910156 L 185.265625 129.847656 C 185.742188 129.617188 186.046875 129.289063 186.171875 128.863281 C 186.296875 128.445313 186.226563 127.980469 185.96875 127.472656 C 185.8125 127.152344 185.609375 126.859375 185.359375 126.597656 C 185.117188 126.339844 184.835938 126.105469 184.515625 125.894531 L 185.46875 125.410156 C 185.800781 125.683594 186.082031 125.964844 186.3125 126.253906 C 186.550781 126.535156 186.75 126.828125 186.90625 127.128906 C 187.3125 127.960938 187.378906 128.699219 187.109375 129.347656 C 186.847656 130.003906 186.234375 130.570313 185.265625 131.050781 Z M 189.625 135.4375 C 189.644531 135.300781 189.640625 135.160156 189.609375 135.015625 C 189.578125 134.878906 189.519531 134.734375 189.4375 134.578125 C 189.175781 134.046875 188.785156 133.742188 188.265625 133.65625 C 187.742188 133.5625 187.125 133.695313 186.40625 134.046875 L 183.046875 135.71875 L 182.5625 134.765625 L 188.921875 131.59375 L 189.40625 132.546875 L 188.421875 133.046875 C 188.898438 133.039063 189.3125 133.148438 189.65625 133.375 C 190 133.59375 190.285156 133.925781 190.515625 134.375 C 190.546875 134.445313 190.578125 134.523438 190.609375 134.609375 C 190.640625 134.691406 190.664063 134.789063 190.6875 134.90625 Z M 191.773438 139.742188 C 191.792969 139.605469 191.789063 139.464844 191.757813 139.320313 C 191.726563 139.183594 191.667969 139.039063 191.585938 138.882813 C 191.324219 138.351563 190.933594 138.046875 190.414063 137.960938 C 189.890625 137.867188 189.273438 138 188.554688 138.351563 L 185.195313 140.023438 L 184.710938 139.070313 L 191.070313 135.898438 L 191.554688 136.851563 L 190.570313 137.351563 C 191.046875 137.34375 191.460938 137.453125 191.804688 137.679688 C 192.148438 137.898438 192.433594 138.230469 192.664063 138.679688 C 192.695313 138.75 192.726563 138.828125 192.757813 138.914063 C 192.789063 138.996094 192.8125 139.09375 192.835938 139.210938 Z M 193.625 142.816406 C 193.375 142.316406 192.957031 142.03125 192.375 141.957031 C 191.789063 141.875 191.113281 142.027344 190.34375 142.410156 C 189.582031 142.785156 189.054688 143.226563 188.765625 143.738281 C 188.484375 144.257813 188.46875 144.769531 188.71875 145.269531 C 188.96875 145.769531 189.382813 146.054688 189.96875 146.128906 C 190.550781 146.210938 191.21875 146.066406 191.96875 145.691406 C 192.726563 145.316406 193.253906 144.867188 193.546875 144.347656 C 193.847656 143.824219 193.875 143.316406 193.625 142.816406 Z M 194.5 142.378906 C 194.90625 143.199219 194.925781 143.992188 194.5625 144.753906 C 194.207031 145.511719 193.507813 146.152344 192.46875 146.675781 C 191.425781 147.195313 190.488281 147.367188 189.65625 147.191406 C 188.832031 147.023438 188.21875 146.527344 187.8125 145.707031 C 187.40625 144.882813 187.378906 144.089844 187.734375 143.332031 C 188.097656 142.582031 188.800781 141.949219 189.84375 141.425781 C 190.882813 140.90625 191.816406 140.730469 192.640625 140.894531 C 193.472656 141.0625 194.09375 141.558594 194.5 142.378906 Z M 196.164063 146.09375 L 196.632813 147.046875 L 192.257813 150.6875 L 197.804688 149.390625 L 198.351563 150.5 L 193.976563 154.140625 L 199.523438 152.84375 L 199.992188 153.78125 L 192.898438 155.453125 L 192.335938 154.34375 L 196.945313 150.515625 L 191.101563 151.875 L 190.554688 150.765625 Z M 202.351563 158.949219 L 201.351563 159.433594 C 201.359375 159.089844 201.335938 158.753906 201.273438 158.433594 C 201.210938 158.121094 201.101563 157.808594 200.945313 157.496094 C 200.714844 157.027344 200.460938 156.714844 200.179688 156.558594 C 199.898438 156.402344 199.601563 156.402344 199.289063 156.558594 C 199.046875 156.683594 198.902344 156.867188 198.851563 157.105469 C 198.808594 157.347656 198.84375 157.746094 198.960938 158.308594 L 199.039063 158.667969 C 199.203125 159.417969 199.214844 160 199.070313 160.417969 C 198.921875 160.84375 198.59375 161.1875 198.085938 161.449219 C 197.480469 161.738281 196.898438 161.761719 196.335938 161.511719 C 195.78125 161.261719 195.324219 160.769531 194.960938 160.042969 C 194.8125 159.738281 194.6875 159.40625 194.585938 159.042969 C 194.492188 158.675781 194.417969 158.277344 194.367188 157.839844 L 195.445313 157.308594 C 195.414063 157.753906 195.433594 158.167969 195.507813 158.542969 C 195.578125 158.925781 195.699219 159.285156 195.867188 159.621094 C 196.085938 160.058594 196.335938 160.355469 196.617188 160.511719 C 196.90625 160.667969 197.203125 160.667969 197.507813 160.511719 C 197.789063 160.375 197.960938 160.183594 198.023438 159.933594 C 198.09375 159.683594 198.058594 159.238281 197.914063 158.605469 L 197.835938 158.230469 C 197.679688 157.574219 197.671875 157.042969 197.820313 156.636719 C 197.976563 156.230469 198.296875 155.910156 198.789063 155.667969 C 199.382813 155.367188 199.9375 155.332031 200.460938 155.558594 C 200.980469 155.789063 201.417969 156.253906 201.773438 156.949219 C 201.9375 157.292969 202.070313 157.628906 202.164063 157.964844 C 202.265625 158.296875 202.328125 158.625 202.351563 158.949219 Z M 202.351563 158.949219 "/>
</g>
</svg>

