<?xml version="1.0" encoding="UTF-8"?>
<svg xmlns="http://www.w3.org/2000/svg" xmlns:xlink="http://www.w3.org/1999/xlink" width="256pt" height="256pt" viewBox="0 0 256 256" version="1.1">
<g id="surface2">
<rect x="0" y="0" width="256" height="256" style="fill:rgb(94.901961%,93.72549%,91.372549%);fill-opacity:1;stroke:none;"/>
<path style="fill:none;stroke-width:8;stroke-linecap:round;stroke-linejoin:round;stroke:rgb(75.686275%,70.980392%,61.568627%);stroke-opacity:1;stroke-miterlimit:10;" d="M 264 116.375 L 261.589844 114.355469 L 255.226563 112.355469 L 248.886719 108.859375 "/>
<path style="fill:none;stroke-width:8;stroke-linecap:round;stroke-linejoin:round;stroke:rgb(75.686275%,70.980392%,61.568627%);stroke-opacity:1;stroke-miterlimit:10;" d="M 155.554688 264 L 157.21875 263.179688 L 160.925781 260.992188 L 166.890625 256.058594 L 175.859375 246.09375 L 183.550781 236.945313 L 188.910156 231.851563 L 196.578125 226.542969 L 203.101563 223.109375 L 205.78125 222.046875 L 208.414063 221.390625 L 213.914063 220.890625 L 217.570313 220.890625 L 227.871094 222.140625 L 232.4375 222.140625 L 234.535156 221.921875 L 238.101563 220.859375 L 242.0625 218.921875 L 243.972656 217.515625 L 247.023438 214.894531 L 250.007813 211.332031 L 252.546875 207.554688 L 262.960938 188.003906 L 264 185.957031 "/>
<path style="fill:none;stroke-width:6;stroke-linecap:round;stroke-linejoin:round;stroke:rgb(100%,100%,100%);stroke-opacity:1;stroke-miterlimit:10;" d="M 264 116.375 L 261.589844 114.355469 L 255.226563 112.355469 L 248.886719 108.859375 "/>
<path style="fill:none;stroke-width:6;stroke-linecap:round;stroke-linejoin:round;stroke:rgb(100%,99.215686%,54.509804%);stroke-opacity:1;stroke-miterlimit:10;" d="M 155.554688 264 L 157.21875 263.179688 L 160.925781 260.992188 L 166.890625 256.058594 L 175.859375 246.09375 L 183.550781 236.945313 L 188.910156 231.851563 L 196.578125 226.542969 L 203.101563 223.109375 L 205.78125 222.046875 L 208.414063 221.390625 L 213.914063 220.890625 L 217.570313 220.890625 L 227.871094 222.140625 L 232.4375 222.140625 L 234.535156 221.921875 L 238.101563 220.859375 L 242.0625 218.921875 L 243.972656 217.515625 L 247.023438 214.894531 L 250.007813 211.332031 L 252.546875 207.554688 L 262.960938 188.003906 L 264 185.957031 "/>
</g>
</svg>

