<?xml version="1.0" encoding="UTF-8"?>
<svg xmlns="http://www.w3.org/2000/svg" xmlns:xlink="http://www.w3.org/1999/xlink" width="256pt" height="256pt" viewBox="0 0 256 256" version="1.1">
<g id="surface2">
<rect x="0" y="0" width="256" height="256" style="fill:rgb(94.901961%,93.72549%,91.372549%);fill-opacity:1;stroke:none;"/>
<path style="fill:none;stroke-width:8;stroke-linecap:round;stroke-linejoin:round;stroke:rgb(75.686275%,70.980392%,61.568627%);stroke-opacity:1;stroke-miterlimit:10;" d="M 217.820313 264 L 215.132813 261.1875 L 203.992188 247.996094 L 198.75 240.011719 L 195.210938 232.710938 L 192.972656 226.066406 L 189.851563 219.585938 L 186.867188 215.726563 L 182.042969 211.929688 L 174.585938 206.824219 L 172.257813 204.859375 L 166.222656 198.214844 L 164.078125 194.875 L 157.855469 182.011719 L 152.941406 172.226563 L 149.722656 167.382813 L 135.953125 150.917969 L 131.945313 147.285156 L 128.824219 145.289063 L 119.570313 140.085938 L 113.910156 135.664063 L 101.09375 124.4375 L 81.871094 113.210938 L 71.152344 108.269531 L 52.601563 100.804688 L 27.484375 92.625 L 22.472656 89.941406 L 17.253906 86.207031 L 11.546875 80.871094 L -6.398438 62.117188 L -9 58.980469 "/>
<path style="fill:none;stroke-width:6;stroke-linecap:round;stroke-linejoin:round;stroke:rgb(100%,100%,100%);stroke-opacity:1;stroke-miterlimit:10;" d="M 217.820313 264 L 215.132813 261.1875 L 203.992188 247.996094 L 198.75 240.011719 L 195.210938 232.710938 L 192.972656 226.066406 L 189.851563 219.585938 L 186.867188 215.726563 L 182.042969 211.929688 L 174.585938 206.824219 L 172.257813 204.859375 L 166.222656 198.214844 L 164.078125 194.875 L 157.855469 182.011719 L 152.941406 172.226563 L 149.722656 167.382813 L 135.953125 150.917969 L 131.945313 147.285156 L 128.824219 145.289063 L 119.570313 140.085938 L 113.910156 135.664063 L 101.09375 124.4375 L 81.871094 113.210938 L 71.152344 108.269531 L 52.601563 100.804688 L 27.484375 92.625 L 22.472656 89.941406 L 17.253906 86.207031 L 11.546875 80.871094 L -6.398438 62.117188 L -9 58.980469 "/>
<path style="fill:none;stroke-width:3;stroke-linecap:round;stroke-linejoin:round;stroke:rgb(100%,100%,100%);stroke-opacity:1;stroke-miterlimit:10;" d="M 94.464844 117.152344 L 91.308594 119.949219 L 93.605469 121.277344 Z M 94.527344 115.949219 L 95.496094 116.511719 L 93.824219 124.824219 L 92.933594 124.308594 L 93.417969 122.199219 L 90.621094 120.558594 L 88.996094 122.011719 L 88.105469 121.496094 Z M 100.339844 122.75 L 102.011719 119.953125 L 102.761719 120.40625 L 98.480469 127.59375 L 97.730469 127.140625 L 98.199219 126.359375 C 97.84375 126.578125 97.5 126.6875 97.167969 126.6875 C 96.832031 126.695313 96.496094 126.601563 96.152344 126.40625 C 95.589844 126.0625 95.277344 125.535156 95.214844 124.828125 C 95.160156 124.121094 95.375 123.359375 95.855469 122.546875 C 96.34375 121.734375 96.910156 121.183594 97.558594 120.890625 C 98.203125 120.601563 98.808594 120.625 99.371094 120.96875 C 99.714844 121.167969 99.964844 121.417969 100.121094 121.71875 C 100.285156 122.011719 100.359375 122.355469 100.339844 122.75 Z M 96.652344 123.015625 C 96.277344 123.640625 96.097656 124.199219 96.121094 124.6875 C 96.140625 125.175781 96.347656 125.539063 96.746094 125.78125 C 97.160156 126.03125 97.589844 126.046875 98.027344 125.828125 C 98.472656 125.609375 98.886719 125.1875 99.261719 124.5625 C 99.636719 123.9375 99.808594 123.382813 99.777344 122.890625 C 99.753906 122.402344 99.535156 122.03125 99.121094 121.78125 C 98.722656 121.542969 98.308594 121.53125 97.871094 121.75 C 97.433594 121.96875 97.027344 122.390625 96.652344 123.015625 Z M 103.332031 123.71875 L 104.003906 124.296875 L 100.035156 128.828125 L 99.363281 128.25 Z M 104.878906 121.96875 L 105.550781 122.546875 L 104.722656 123.484375 L 104.050781 122.90625 Z M 107.152344 128.296875 C 107.121094 128.171875 107.066406 128.0625 106.996094 127.96875 C 106.933594 127.867188 106.847656 127.773438 106.746094 127.6875 C 106.359375 127.34375 105.949219 127.226563 105.511719 127.328125 C 105.074219 127.421875 104.628906 127.726563 104.183594 128.234375 L 102.089844 130.625 L 101.402344 130.03125 L 105.371094 125.5 L 106.058594 126.09375 L 105.433594 126.8125 C 105.808594 126.65625 106.167969 126.609375 106.511719 126.671875 C 106.855469 126.734375 107.1875 126.90625 107.511719 127.1875 C 107.550781 127.230469 107.597656 127.277344 107.652344 127.328125 C 107.714844 127.382813 107.769531 127.445313 107.824219 127.515625 Z M 109.582031 130.113281 C 109.214844 129.800781 108.789063 129.714844 108.300781 129.847656 C 107.820313 129.972656 107.347656 130.308594 106.878906 130.847656 C 106.398438 131.378906 106.128906 131.890625 106.066406 132.378906 C 106.003906 132.878906 106.152344 133.285156 106.519531 133.597656 C 106.882813 133.910156 107.300781 133.996094 107.769531 133.863281 C 108.246094 133.738281 108.726563 133.410156 109.207031 132.878906 C 109.675781 132.335938 109.945313 131.824219 110.019531 131.332031 C 110.089844 130.832031 109.945313 130.425781 109.582031 130.113281 Z M 110.128906 129.488281 C 110.710938 130 110.980469 130.609375 110.941406 131.316406 C 110.910156 132.027344 110.570313 132.753906 109.925781 133.503906 C 109.277344 134.230469 108.601563 134.664063 107.894531 134.800781 C 107.183594 134.933594 106.539063 134.746094 105.957031 134.238281 C 105.371094 133.714844 105.101563 133.097656 105.144531 132.378906 C 105.183594 131.671875 105.527344 130.953125 106.175781 130.222656 C 106.820313 129.472656 107.492188 129.035156 108.191406 128.910156 C 108.898438 128.777344 109.542969 128.96875 110.128906 129.488281 Z M 114.898438 136.875 L 112.570313 139.65625 L 111.882813 139.078125 L 114.195313 136.328125 C 114.558594 135.890625 114.75 135.5 114.773438 135.15625 C 114.804688 134.804688 114.667969 134.5 114.367188 134.25 C 114 133.9375 113.601563 133.824219 113.164063 133.90625 C 112.734375 133.992188 112.335938 134.257813 111.960938 134.703125 L 109.773438 137.3125 L 109.085938 136.734375 L 112.945313 132.125 L 113.632813 132.703125 L 113.039063 133.421875 C 113.421875 133.277344 113.78125 133.230469 114.117188 133.28125 C 114.460938 133.324219 114.777344 133.46875 115.070313 133.71875 C 115.539063 134.117188 115.761719 134.585938 115.742188 135.125 C 115.71875 135.65625 115.4375 136.238281 114.898438 136.875 Z M 120.070313 138.863281 L 121.976563 136.238281 L 122.695313 136.769531 L 117.789063 143.535156 L 117.070313 143.003906 L 117.601563 142.269531 C 117.246094 142.457031 116.898438 142.535156 116.554688 142.503906 C 116.21875 142.472656 115.890625 142.339844 115.570313 142.113281 C 115.039063 141.726563 114.773438 141.179688 114.773438 140.472656 C 114.78125 139.765625 115.070313 139.03125 115.632813 138.269531 C 116.183594 137.5 116.792969 137 117.460938 136.769531 C 118.136719 136.542969 118.742188 136.621094 119.273438 137.003906 C 119.59375 137.234375 119.824219 137.503906 119.960938 137.816406 C 120.09375 138.128906 120.132813 138.480469 120.070313 138.863281 Z M 116.382813 138.800781 C 115.953125 139.386719 115.726563 139.921875 115.695313 140.410156 C 115.664063 140.898438 115.839844 141.285156 116.226563 141.566406 C 116.609375 141.847656 117.03125 141.898438 117.492188 141.722656 C 117.960938 141.542969 118.40625 141.164063 118.835938 140.582031 C 119.261719 139.988281 119.484375 139.449219 119.507813 138.957031 C 119.527344 138.46875 119.34375 138.082031 118.960938 137.800781 C 118.574219 137.519531 118.152344 137.46875 117.695313 137.644531 C 117.246094 137.824219 116.808594 138.207031 116.382813 138.800781 Z M 123.332031 143.308594 C 122.707031 142.964844 122.226563 142.808594 121.894531 142.839844 C 121.558594 142.863281 121.289063 143.066406 121.082031 143.449219 C 120.914063 143.753906 120.867188 144.042969 120.941406 144.324219 C 121.023438 144.605469 121.214844 144.832031 121.519531 145.011719 C 121.957031 145.25 122.398438 145.269531 122.847656 145.074219 C 123.304688 144.875 123.691406 144.5 124.003906 143.949219 L 124.113281 143.746094 Z M 125.082031 143.824219 L 123.394531 146.824219 L 122.628906 146.386719 L 123.066406 145.589844 C 122.699219 145.816406 122.347656 145.933594 122.003906 145.933594 C 121.660156 145.933594 121.292969 145.828125 120.910156 145.621094 C 120.429688 145.347656 120.128906 144.980469 120.003906 144.511719 C 119.886719 144.054688 119.976563 143.570313 120.269531 143.058594 C 120.601563 142.476563 121.027344 142.132813 121.550781 142.027344 C 122.070313 141.925781 122.683594 142.070313 123.394531 142.464844 L 124.488281 143.074219 L 124.535156 142.996094 C 124.761719 142.601563 124.816406 142.230469 124.691406 141.886719 C 124.574219 141.535156 124.308594 141.238281 123.894531 140.996094 C 123.621094 140.851563 123.335938 140.742188 123.035156 140.667969 C 122.742188 140.597656 122.441406 140.566406 122.128906 140.574219 L 122.566406 139.777344 C 122.929688 139.820313 123.257813 139.886719 123.550781 139.980469 C 123.839844 140.066406 124.117188 140.179688 124.378906 140.324219 C 125.054688 140.710938 125.449219 141.195313 125.566406 141.777344 C 125.691406 142.351563 125.527344 143.035156 125.082031 143.824219 Z M 131.203125 144.714844 L 130.734375 145.511719 C 130.597656 145.253906 130.441406 145.023438 130.265625 144.824219 C 130.085938 144.628906 129.882813 144.460938 129.65625 144.324219 C 129.15625 144.035156 128.664063 143.980469 128.1875 144.167969 C 127.71875 144.355469 127.289063 144.769531 126.90625 145.402344 C 126.53125 146.027344 126.375 146.597656 126.4375 147.105469 C 126.507813 147.613281 126.796875 148.015625 127.296875 148.308594 C 127.523438 148.441406 127.765625 148.542969 128.015625 148.605469 C 128.265625 148.675781 128.535156 148.707031 128.828125 148.699219 L 128.375 149.480469 C 128.082031 149.46875 127.804688 149.421875 127.546875 149.339844 C 127.285156 149.265625 127.03125 149.152344 126.78125 148.996094 C 126.070313 148.578125 125.65625 148 125.53125 147.261719 C 125.414063 146.535156 125.601563 145.753906 126.09375 144.917969 C 126.59375 144.074219 127.195313 143.535156 127.90625 143.292969 C 128.613281 143.054688 129.332031 143.152344 130.0625 143.589844 C 130.289063 143.726563 130.5 143.894531 130.6875 144.089844 C 130.882813 144.277344 131.054688 144.488281 131.203125 144.714844 Z M 134.289063 143.796875 L 134.976563 144.375 L 131.820313 148.15625 L 135.523438 147.875 L 136.382813 148.609375 L 132.382813 148.921875 L 132.617188 153.28125 L 131.726563 152.546875 L 131.507813 148.53125 L 129.617188 150.78125 L 128.929688 150.203125 Z M 140.960938 152.03125 L 138.648438 153.96875 L 139.429688 154.90625 C 139.71875 155.25 140.046875 155.429688 140.414063 155.453125 C 140.777344 155.484375 141.140625 155.34375 141.507813 155.03125 C 141.871094 154.730469 142.074219 154.398438 142.117188 154.03125 C 142.15625 153.667969 142.03125 153.3125 141.742188 152.96875 Z M 141.007813 150.71875 L 142.414063 152.40625 C 142.933594 153.03125 143.171875 153.632813 143.132813 154.203125 C 143.089844 154.777344 142.765625 155.3125 142.164063 155.8125 C 141.558594 156.320313 140.964844 156.550781 140.382813 156.5 C 139.808594 156.445313 139.261719 156.109375 138.742188 155.484375 L 137.960938 154.546875 L 135.492188 156.609375 L 134.867188 155.859375 Z M 142.574219 160.34375 C 142.113281 159.800781 141.722656 159.484375 141.402344 159.390625 C 141.078125 159.296875 140.75 159.390625 140.417969 159.671875 C 140.15625 159.890625 140.011719 160.144531 139.980469 160.4375 C 139.957031 160.726563 140.058594 161.007813 140.277344 161.28125 C 140.597656 161.65625 141.003906 161.832031 141.496094 161.8125 C 141.996094 161.789063 142.484375 161.578125 142.964844 161.171875 L 143.152344 161.03125 Z M 144.027344 161.453125 L 141.386719 163.65625 L 140.824219 162.96875 L 141.511719 162.390625 C 141.105469 162.460938 140.734375 162.4375 140.402344 162.3125 C 140.078125 162.1875 139.777344 161.957031 139.496094 161.625 C 139.140625 161.195313 138.988281 160.75 139.042969 160.28125 C 139.09375 159.8125 139.34375 159.390625 139.792969 159.015625 C 140.3125 158.578125 140.832031 158.40625 141.355469 158.5 C 141.875 158.59375 142.394531 158.953125 142.917969 159.578125 L 143.730469 160.53125 L 143.808594 160.46875 C 144.160156 160.175781 144.34375 159.847656 144.355469 159.484375 C 144.375 159.109375 144.230469 158.734375 143.917969 158.359375 C 143.730469 158.132813 143.503906 157.929688 143.246094 157.75 C 142.984375 157.574219 142.703125 157.4375 142.402344 157.34375 L 143.089844 156.765625 C 143.421875 156.933594 143.707031 157.109375 143.949219 157.296875 C 144.199219 157.476563 144.417969 157.679688 144.605469 157.90625 C 145.105469 158.5 145.308594 159.09375 145.214844 159.6875 C 145.121094 160.269531 144.722656 160.859375 144.027344 161.453125 Z M 148.476563 164.195313 C 148.464844 164.082031 148.429688 163.96875 148.367188 163.851563 C 148.3125 163.738281 148.246094 163.628906 148.164063 163.523438 C 147.839844 163.128906 147.453125 162.945313 147.007813 162.976563 C 146.558594 163.007813 146.074219 163.242188 145.554688 163.679688 L 143.117188 165.710938 L 142.539063 165.023438 L 147.148438 161.164063 L 147.726563 161.851563 L 147.007813 162.445313 C 147.402344 162.363281 147.761719 162.378906 148.085938 162.492188 C 148.417969 162.609375 148.71875 162.828125 148.992188 163.148438 C 149.03125 163.203125 149.074219 163.257813 149.117188 163.320313 C 149.167969 163.382813 149.214844 163.453125 149.257813 163.523438 Z M 151.636719 162.960938 L 152.183594 163.695313 L 148.261719 166.679688 L 151.933594 167.210938 L 152.621094 168.117188 L 148.636719 167.539063 L 147.902344 171.851563 L 147.199219 170.929688 L 147.871094 166.960938 L 145.527344 168.742188 L 144.980469 168.007813 Z M 151.636719 162.960938 "/>
<path style=" stroke:none;fill-rule:evenodd;fill:rgb(20%,20%,20%);fill-opacity:1;" d="M 94.464844 117.152344 L 91.308594 119.949219 L 93.605469 121.277344 Z M 94.527344 115.949219 L 95.496094 116.511719 L 93.824219 124.824219 L 92.933594 124.308594 L 93.417969 122.199219 L 90.621094 120.558594 L 88.996094 122.011719 L 88.105469 121.496094 Z M 100.339844 122.75 L 102.011719 119.953125 L 102.761719 120.40625 L 98.480469 127.59375 L 97.730469 127.140625 L 98.199219 126.359375 C 97.84375 126.578125 97.5 126.6875 97.167969 126.6875 C 96.832031 126.695313 96.496094 126.601563 96.152344 126.40625 C 95.589844 126.0625 95.277344 125.535156 95.214844 124.828125 C 95.160156 124.121094 95.375 123.359375 95.855469 122.546875 C 96.34375 121.734375 96.910156 121.183594 97.558594 120.890625 C 98.203125 120.601563 98.808594 120.625 99.371094 120.96875 C 99.714844 121.167969 99.964844 121.417969 100.121094 121.71875 C 100.285156 122.011719 100.359375 122.355469 100.339844 122.75 Z M 96.652344 123.015625 C 96.277344 123.640625 96.097656 124.199219 96.121094 124.6875 C 96.140625 125.175781 96.347656 125.539063 96.746094 125.78125 C 97.160156 126.03125 97.589844 126.046875 98.027344 125.828125 C 98.472656 125.609375 98.886719 125.1875 99.261719 124.5625 C 99.636719 123.9375 99.808594 123.382813 99.777344 122.890625 C 99.753906 122.402344 99.535156 122.03125 99.121094 121.78125 C 98.722656 121.542969 98.308594 121.53125 97.871094 121.75 C 97.433594 121.96875 97.027344 122.390625 96.652344 123.015625 Z M 103.332031 123.71875 L 104.003906 124.296875 L 100.035156 128.828125 L 99.363281 128.25 Z M 104.878906 121.96875 L 105.550781 122.546875 L 104.722656 123.484375 L 104.050781 122.90625 Z M 107.152344 128.296875 C 107.121094 128.171875 107.066406 128.0625 106.996094 127.96875 C 106.933594 127.867188 106.847656 127.773438 106.746094 127.6875 C 106.359375 127.34375 105.949219 127.226563 105.511719 127.328125 C 105.074219 127.421875 104.628906 127.726563 104.183594 128.234375 L 102.089844 130.625 L 101.402344 130.03125 L 105.371094 125.5 L 106.058594 126.09375 L 105.433594 126.8125 C 105.808594 126.65625 106.167969 126.609375 106.511719 126.671875 C 106.855469 126.734375 107.1875 126.90625 107.511719 127.1875 C 107.550781 127.230469 107.597656 127.277344 107.652344 127.328125 C 107.714844 127.382813 107.769531 127.445313 107.824219 127.515625 Z M 109.582031 130.113281 C 109.214844 129.800781 108.789063 129.714844 108.300781 129.847656 C 107.820313 129.972656 107.347656 130.308594 106.878906 130.847656 C 106.398438 131.378906 106.128906 131.890625 106.066406 132.378906 C 106.003906 132.878906 106.152344 133.285156 106.519531 133.597656 C 106.882813 133.910156 107.300781 133.996094 107.769531 133.863281 C 108.246094 133.738281 108.726563 133.410156 109.207031 132.878906 C 109.675781 132.335938 109.945313 131.824219 110.019531 131.332031 C 110.089844 130.832031 109.945313 130.425781 109.582031 130.113281 Z M 110.128906 129.488281 C 110.710938 130 110.980469 130.609375 110.941406 131.316406 C 110.910156 132.027344 110.570313 132.753906 109.925781 133.503906 C 109.277344 134.230469 108.601563 134.664063 107.894531 134.800781 C 107.183594 134.933594 106.539063 134.746094 105.957031 134.238281 C 105.371094 133.714844 105.101563 133.097656 105.144531 132.378906 C 105.183594 131.671875 105.527344 130.953125 106.175781 130.222656 C 106.820313 129.472656 107.492188 129.035156 108.191406 128.910156 C 108.898438 128.777344 109.542969 128.96875 110.128906 129.488281 Z M 114.898438 136.875 L 112.570313 139.65625 L 111.882813 139.078125 L 114.195313 136.328125 C 114.558594 135.890625 114.75 135.5 114.773438 135.15625 C 114.804688 134.804688 114.667969 134.5 114.367188 134.25 C 114 133.9375 113.601563 133.824219 113.164063 133.90625 C 112.734375 133.992188 112.335938 134.257813 111.960938 134.703125 L 109.773438 137.3125 L 109.085938 136.734375 L 112.945313 132.125 L 113.632813 132.703125 L 113.039063 133.421875 C 113.421875 133.277344 113.78125 133.230469 114.117188 133.28125 C 114.460938 133.324219 114.777344 133.46875 115.070313 133.71875 C 115.539063 134.117188 115.761719 134.585938 115.742188 135.125 C 115.71875 135.65625 115.4375 136.238281 114.898438 136.875 Z M 120.070313 138.863281 L 121.976563 136.238281 L 122.695313 136.769531 L 117.789063 143.535156 L 117.070313 143.003906 L 117.601563 142.269531 C 117.246094 142.457031 116.898438 142.535156 116.554688 142.503906 C 116.21875 142.472656 115.890625 142.339844 115.570313 142.113281 C 115.039063 141.726563 114.773438 141.179688 114.773438 140.472656 C 114.78125 139.765625 115.070313 139.03125 115.632813 138.269531 C 116.183594 137.5 116.792969 137 117.460938 136.769531 C 118.136719 136.542969 118.742188 136.621094 119.273438 137.003906 C 119.59375 137.234375 119.824219 137.503906 119.960938 137.816406 C 120.09375 138.128906 120.132813 138.480469 120.070313 138.863281 Z M 116.382813 138.800781 C 115.953125 139.386719 115.726563 139.921875 115.695313 140.410156 C 115.664063 140.898438 115.839844 141.285156 116.226563 141.566406 C 116.609375 141.847656 117.03125 141.898438 117.492188 141.722656 C 117.960938 141.542969 118.40625 141.164063 118.835938 140.582031 C 119.261719 139.988281 119.484375 139.449219 119.507813 138.957031 C 119.527344 138.46875 119.34375 138.082031 118.960938 137.800781 C 118.574219 137.519531 118.152344 137.46875 117.695313 137.644531 C 117.246094 137.824219 116.808594 138.207031 116.382813 138.800781 Z M 123.332031 143.308594 C 122.707031 142.964844 122.226563 142.808594 121.894531 142.839844 C 121.558594 142.863281 121.289063 143.066406 121.082031 143.449219 C 120.914063 143.753906 120.867188 144.042969 120.941406 144.324219 C 121.023438 144.605469 121.214844 144.832031 121.519531 145.011719 C 121.957031 145.25 122.398438 145.269531 122.847656 145.074219 C 123.304688 144.875 123.691406 144.5 124.003906 143.949219 L 124.113281 143.746094 Z M 125.082031 143.824219 L 123.394531 146.824219 L 122.628906 146.386719 L 123.066406 145.589844 C 122.699219 145.816406 122.347656 145.933594 122.003906 145.933594 C 121.660156 145.933594 121.292969 145.828125 120.910156 145.621094 C 120.429688 145.347656 120.128906 144.980469 120.003906 144.511719 C 119.886719 144.054688 119.976563 143.570313 120.269531 143.058594 C 120.601563 142.476563 121.027344 142.132813 121.550781 142.027344 C 122.070313 141.925781 122.683594 142.070313 123.394531 142.464844 L 124.488281 143.074219 L 124.535156 142.996094 C 124.761719 142.601563 124.816406 142.230469 124.691406 141.886719 C 124.574219 141.535156 124.308594 141.238281 123.894531 140.996094 C 123.621094 140.851563 123.335938 140.742188 123.035156 140.667969 C 122.742188 140.597656 122.441406 140.566406 122.128906 140.574219 L 122.566406 139.777344 C 122.929688 139.820313 123.257813 139.886719 123.550781 139.980469 C 123.839844 140.066406 124.117188 140.179688 124.378906 140.324219 C 125.054688 140.710938 125.449219 141.195313 125.566406 141.777344 C 125.691406 142.351563 125.527344 143.035156 125.082031 143.824219 Z M 131.203125 144.714844 L 130.734375 145.511719 C 130.597656 145.253906 130.441406 145.023438 130.265625 144.824219 C 130.085938 144.628906 129.882813 144.460938 129.65625 144.324219 C 129.15625 144.035156 128.664063 143.980469 128.1875 144.167969 C 127.71875 144.355469 127.289063 144.769531 126.90625 145.402344 C 126.53125 146.027344 126.375 146.597656 126.4375 147.105469 C 126.507813 147.613281 126.796875 148.015625 127.296875 148.308594 C 127.523438 148.441406 127.765625 148.542969 128.015625 148.605469 C 128.265625 148.675781 128.535156 148.707031 128.828125 148.699219 L 128.375 149.480469 C 128.082031 149.46875 127.804688 149.421875 127.546875 149.339844 C 127.285156 149.265625 127.03125 149.152344 126.78125 148.996094 C 126.070313 148.578125 125.65625 148 125.53125 147.261719 C 125.414063 146.535156 125.601563 145.753906 126.09375 144.917969 C 126.59375 144.074219 127.195313 143.535156 127.90625 143.292969 C 128.613281 143.054688 129.332031 143.152344 130.0625 143.589844 C 130.289063 143.726563 130.5 143.894531 130.6875 144.089844 C 130.882813 144.277344 131.054688 144.488281 131.203125 144.714844 Z M 134.289063 143.796875 L 134.976563 144.375 L 131.820313 148.15625 L 135.523438 147.875 L 136.382813 148.609375 L 132.382813 148.921875 L 132.617188 153.28125 L 131.726563 152.546875 L 131.507813 148.53125 L 129.617188 150.78125 L 128.929688 150.203125 Z M 140.960938 152.03125 L 138.648438 153.96875 L 139.429688 154.90625 C 139.71875 155.25 140.046875 155.429688 140.414063 155.453125 C 140.777344 155.484375 141.140625 155.34375 141.507813 155.03125 C 141.871094 154.730469 142.074219 154.398438 142.117188 154.03125 C 142.15625 153.667969 142.03125 153.3125 141.742188 152.96875 Z M 141.007813 150.71875 L 142.414063 152.40625 C 142.933594 153.03125 143.171875 153.632813 143.132813 154.203125 C 143.089844 154.777344 142.765625 155.3125 142.164063 155.8125 C 141.558594 156.320313 140.964844 156.550781 140.382813 156.5 C 139.808594 156.445313 139.261719 156.109375 138.742188 155.484375 L 137.960938 154.546875 L 135.492188 156.609375 L 134.867188 155.859375 Z M 142.574219 160.34375 C 142.113281 159.800781 141.722656 159.484375 141.402344 159.390625 C 141.078125 159.296875 140.75 159.390625 140.417969 159.671875 C 140.15625 159.890625 140.011719 160.144531 139.980469 160.4375 C 139.957031 160.726563 140.058594 161.007813 140.277344 161.28125 C 140.597656 161.65625 141.003906 161.832031 141.496094 161.8125 C 141.996094 161.789063 142.484375 161.578125 142.964844 161.171875 L 143.152344 161.03125 Z M 144.027344 161.453125 L 141.386719 163.65625 L 140.824219 162.96875 L 141.511719 162.390625 C 141.105469 162.460938 140.734375 162.4375 140.402344 162.3125 C 140.078125 162.1875 139.777344 161.957031 139.496094 161.625 C 139.140625 161.195313 138.988281 160.75 139.042969 160.28125 C 139.09375 159.8125 139.34375 159.390625 139.792969 159.015625 C 140.3125 158.578125 140.832031 158.40625 141.355469 158.5 C 141.875 158.59375 142.394531 158.953125 142.917969 159.578125 L 143.730469 160.53125 L 143.808594 160.46875 C 144.160156 160.175781 144.34375 159.847656 144.355469 159.484375 C 144.375 159.109375 144.230469 158.734375 143.917969 158.359375 C 143.730469 158.132813 143.503906 157.929688 143.246094 157.75 C 142.984375 157.574219 142.703125 157.4375 142.402344 157.34375 L 143.089844 156.765625 C 143.421875 156.933594 143.707031 157.109375 143.949219 157.296875 C 144.199219 157.476563 144.417969 157.679688 144.605469 157.90625 C 145.105469 158.5 145.308594 159.09375 145.214844 159.6875 C 145.121094 160.269531 144.722656 160.859375 144.027344 161.453125 Z M 148.476563 164.195313 C 148.464844 164.082031 148.429688 163.96875 148.367188 163.851563 C 148.3125 163.738281 148.246094 163.628906 148.164063 163.523438 C 147.839844 163.128906 147.453125 162.945313 147.007813 162.976563 C 146.558594 163.007813 146.074219 163.242188 145.554688 163.679688 L 143.117188 165.710938 L 142.539063 165.023438 L 147.148438 161.164063 L 147.726563 161.851563 L 147.007813 162.445313 C 147.402344 162.363281 147.761719 162.378906 148.085938 162.492188 C 148.417969 162.609375 148.71875 162.828125 148.992188 163.148438 C 149.03125 163.203125 149.074219 163.257813 149.117188 163.320313 C 149.167969 163.382813 149.214844 163.453125 149.257813 163.523438 Z M 151.636719 162.960938 L 152.183594 163.695313 L 148.261719 166.679688 L 151.933594 167.210938 L 152.621094 168.117188 L 148.636719 167.539063 L 147.902344 171.851563 L 147.199219 170.929688 L 147.871094 166.960938 L 145.527344 168.742188 L 144.980469 168.007813 Z M 151.636719 162.960938 "/>
</g>
</svg>

