<?xml version="1.0" encoding="UTF-8"?>
<svg xmlns="http://www.w3.org/2000/svg" xmlns:xlink="http://www.w3.org/1999/xlink" width="256pt" height="256pt" viewBox="0 0 256 256" version="1.1">
<g id="surface2">
<rect x="0" y="0" width="256" height="256" style="fill:rgb(94.901961%,93.72549%,91.372549%);fill-opacity:1;stroke:none;"/>
<path style="fill:none;stroke-width:8;stroke-linecap:round;stroke-linejoin:round;stroke:rgb(75.686275%,70.980392%,61.568627%);stroke-opacity:1;stroke-miterlimit:10;" d="M 264 237.527344 L 261.007813 228.621094 L 253.496094 206.253906 "/>
<path style="fill:none;stroke-width:8;stroke-linecap:round;stroke-linejoin:round;stroke:rgb(75.686275%,70.980392%,61.568627%);stroke-opacity:1;stroke-miterlimit:10;" d="M 169.09375 264 L 179.164063 252.554688 L 184.953125 246.039063 L 191.210938 240.242188 L 200.320313 232.882813 L 214.066406 223.789063 L 226.601563 216.277344 L 232.574219 213.179688 L 237.90625 211.15625 L 253.496094 206.253906 L 264 202.636719 "/>
<path style="fill:none;stroke-width:6;stroke-linecap:round;stroke-linejoin:round;stroke:rgb(100%,100%,100%);stroke-opacity:1;stroke-miterlimit:10;" d="M 264 237.527344 L 261.007813 228.621094 L 253.496094 206.253906 "/>
<path style="fill:none;stroke-width:6;stroke-linecap:round;stroke-linejoin:round;stroke:rgb(100%,99.215686%,54.509804%);stroke-opacity:1;stroke-miterlimit:10;" d="M 169.09375 264 L 179.164063 252.554688 L 184.953125 246.039063 L 191.210938 240.242188 L 200.320313 232.882813 L 214.066406 223.789063 L 226.601563 216.277344 L 232.574219 213.179688 L 237.90625 211.15625 L 253.496094 206.253906 L 264 202.636719 "/>
</g>
</svg>

