<?xml version="1.0" encoding="UTF-8"?>
<svg xmlns="http://www.w3.org/2000/svg" xmlns:xlink="http://www.w3.org/1999/xlink" width="256pt" height="256pt" viewBox="0 0 256 256" version="1.1">
<g id="surface2">
<rect x="0" y="0" width="256" height="256" style="fill:rgb(94.901961%,93.72549%,91.372549%);fill-opacity:1;stroke:none;"/>
<path style=" stroke:none;fill-rule:evenodd;fill:rgb(60%,70.196078%,80%);fill-opacity:1;" d="M 259 259 L 259 -4 Z M -8236837.445313 5516935.671875 Z M -8236837.445313 5516935.671875 "/>
<path style="fill:none;stroke-width:1;stroke-linecap:round;stroke-linejoin:round;stroke:rgb(100%,100%,100%);stroke-opacity:1;stroke-dasharray:2,3;stroke-miterlimit:10;" d="M -2 95.015625 L 2.488281 97.523438 L 8.523438 100.457031 L 28.261719 107.558594 L 36.578125 113.484375 L 40.121094 115.441406 L 45.945313 117.035156 L 61.117188 127.363281 L 66.265625 131.660156 "/>
<path style="fill:none;stroke-width:1;stroke-linecap:round;stroke-linejoin:round;stroke:rgb(100%,100%,100%);stroke-opacity:1;stroke-dasharray:2,3;stroke-miterlimit:10;" d="M 65.578125 -2 L 70.925781 7.355469 L 74.886719 15.207031 L 79.359375 26.285156 L 79.757813 29.734375 L 72.929688 64.785156 L 71.113281 78.695313 L 71.460938 86.285156 L 75.257813 111.433594 L 75.421875 115.210938 L 74.839844 118.632813 L 73.417969 121.824219 L 69.808594 127.425781 L 66.265625 131.660156 "/>
</g>
</svg>

