<?xml version="1.0" encoding="UTF-8"?>
<svg xmlns="http://www.w3.org/2000/svg" xmlns:xlink="http://www.w3.org/1999/xlink" width="256pt" height="256pt" viewBox="0 0 256 256" version="1.1">
<g id="surface2">
<rect x="0" y="0" width="256" height="256" style="fill:rgb(94.901961%,93.72549%,91.372549%);fill-opacity:1;stroke:none;"/>
<path style="fill:none;stroke-width:2;stroke-linecap:round;stroke-linejoin:round;stroke:rgb(60%,70.196078%,80%);stroke-opacity:1;stroke-miterlimit:10;" d="M 208.269531 258 L 208.496094 254.742188 L 209.410156 246.179688 L 209.410156 223.929688 L 208.910156 218.679688 L 207.660156 215.929688 L 206.910156 210.429688 L 208.25 204.742188 L 203.910156 198.929688 L 202.746094 194.742188 L 202.746094 189.742188 L 204.910156 180.929688 L 203.75 174.742188 L 202.410156 170.179688 L 200.660156 167.179688 L 199.410156 159.429688 L 197.660156 153.429688 L 197.496094 145.242188 L 199.746094 141.492188 L 203.246094 136.492188 L 206.160156 131.429688 L 210.660156 128.425781 L 211.910156 121.179688 L 210.660156 118.179688 L 208.910156 114.929688 L 205.996094 110.753906 L 206.996094 106.003906 L 206.746094 102.003906 L 212.246094 96.753906 L 214.160156 89.429688 L 209.746094 83.503906 L 205.5 80.503906 L 201.496094 77.753906 L 196.746094 74.253906 L 196.246094 69.253906 L 196.910156 64.679688 L 197.910156 62.675781 L 196.910156 56.929688 L 197.246094 50.753906 L 197.75 46.753906 L 200.160156 43.929688 L 198.910156 40.179688 L 201.410156 33.179688 L 202.371094 23.957031 L 200.910156 18.679688 L 197.410156 15.679688 L 197.160156 5.179688 L 194.660156 -1.070313 L 192.890625 -3 M 99.738281 -3 L 96.660156 -1.820313 L 91.421875 -3 "/>
<path style="fill:none;stroke-width:2;stroke-linecap:round;stroke-linejoin:round;stroke:rgb(60%,70.196078%,80%);stroke-opacity:1;stroke-miterlimit:10;" d="M 258 45.785156 L 256.621094 46.503906 L 250.125 45.253906 L 244.125 44.503906 L 239.996094 42.753906 L 235.246094 44.253906 L 231.535156 47.550781 L 225.125 49.628906 L 219.125 51.378906 L 213.785156 52.929688 L 209.246094 53.253906 L 205.371094 51.003906 L 203.035156 48.054688 L 200.160156 43.929688 "/>
</g>
</svg>

