<?xml version="1.0" encoding="UTF-8"?>
<svg xmlns="http://www.w3.org/2000/svg" xmlns:xlink="http://www.w3.org/1999/xlink" width="256pt" height="256pt" viewBox="0 0 256 256" version="1.1">
<g id="surface2">
<rect x="0" y="0" width="256" height="256" style="fill:rgb(94.901961%,93.72549%,91.372549%);fill-opacity:1;stroke:none;"/>
<path style=" stroke:none;fill-rule:evenodd;fill:rgb(60%,70.196078%,80%);fill-opacity:1;" d="M 169.664063 22.132813 L 171.671875 25.839844 L 198.078125 35.875 L 203.328125 29.855469 L 199.234375 21.339844 L 195.609375 13.792969 L 187.730469 7.773438 L 185.417969 2.054688 L 175.53125 7.304688 L 170.128906 13.484375 Z M 169.664063 22.132813 "/>
<path style="fill:none;stroke-width:1;stroke-linecap:round;stroke-linejoin:round;stroke:rgb(70.196078%,77.647059%,83.137255%);stroke-opacity:1;stroke-miterlimit:10;" d="M 169.664063 22.132813 L 171.671875 25.839844 L 198.078125 35.875 L 203.328125 29.855469 L 199.234375 21.339844 L 195.609375 13.792969 L 187.730469 7.773438 L 185.417969 2.054688 L 175.53125 7.304688 L 170.128906 13.484375 L 169.664063 22.132813 "/>
<path style="fill:none;stroke-width:1;stroke-linecap:round;stroke-linejoin:round;stroke:rgb(100%,100%,100%);stroke-opacity:1;stroke-dasharray:2,3;stroke-miterlimit:10;" d="M 59.925781 -2 L 74.582031 29.746094 L 76.867188 33.492188 L 88.285156 44.375 L 91.640625 48.027344 L 93.714844 51.1875 L 98.679688 63.992188 L 101.21875 73.277344 L 102.078125 78.460938 L 102.3125 95.726563 L 101.335938 109.378906 L 99.679688 113.09375 L 98.117188 115.210938 L 95.113281 117.949219 L 75.867188 131.210938 L 71.578125 135.1875 L 69.667969 137.726563 L 68.6875 139.8125 L 68.011719 143.265625 L 66.941406 152.257813 L 66.613281 168.320313 L 66.054688 171.449219 L 65.101563 173.566406 L 63.050781 175.976563 L 61.160156 177.347656 L 59.066406 178.292969 L 55.964844 178.488281 L 49.441406 176.792969 L 31.730469 169.265625 L 29.519531 169.167969 L 27.492188 170.046875 L 25.789063 172.882813 L 25.71875 175.230469 L 28.867188 198.492188 L 34.550781 223.222656 L 35.109375 228.140625 L 35.085938 238.339844 L 38.675781 249.449219 L 40.023438 257 "/>
<path style="fill:none;stroke-width:1;stroke-linecap:round;stroke-linejoin:round;stroke:rgb(100%,100%,100%);stroke-opacity:1;stroke-dasharray:2,3;stroke-miterlimit:10;" d="M 187.183594 -2 L 198.179688 6 L 199.234375 21.339844 L 212.726563 36 L 225.425781 40.546875 L 232.726563 36.898438 L 248.175781 41.449219 L 257 41.964844 "/>
</g>
</svg>

