<?xml version="1.0" encoding="UTF-8"?>
<svg xmlns="http://www.w3.org/2000/svg" xmlns:xlink="http://www.w3.org/1999/xlink" width="256pt" height="256pt" viewBox="0 0 256 256" version="1.1">
<g id="surface2">
<rect x="0" y="0" width="256" height="256" style="fill:rgb(60%,70.196078%,80%);fill-opacity:1;stroke:none;"/>
<path style=" stroke:none;fill-rule:evenodd;fill:rgb(94.901961%,93.72549%,91.372549%);fill-opacity:1;" d="M -4 -4 L 259 -4 L 259 259 L 109.898438 259 L 109.929688 258.425781 L 110.246094 252.769531 L 109.972656 244.144531 L 111.375 237.144531 L 111.972656 233.148438 L 114.574219 225.542969 L 118.171875 217.148438 L 122.371094 197.945313 L 124.171875 197.746094 L 124.570313 196.144531 L 122.972656 195.144531 L 128.972656 164.144531 L 133.773438 144.945313 L 135.972656 141.34375 L 151.773438 124.148438 L 155.171875 121.746094 L 166.34375 116.710938 L 169.570313 113.945313 L 191.972656 103.144531 L 196.171875 99.144531 L 205.972656 94.945313 L 215.972656 89.34375 L 219.171875 88.34375 L 222.375 88.546875 L 225.371094 89.945313 L 244.574219 92.945313 L 256.773438 94.945313 L 259 95.871094 L 259 67 L 224.171875 58.746094 L 223.773438 56.746094 L 219.972656 55.746094 L 218.972656 57.945313 L 215.570313 57.945313 L 212.171875 58.746094 L 186.914063 72.886719 L 133.371094 99.945313 L 119.574219 104.746094 L 111.171875 110.945313 L 107.171875 116.945313 L 103.570313 126.144531 L 97.171875 153.148438 L 94.171875 166.34375 L 93.773438 173.746094 L 92.972656 181.542969 L 88.574219 192.347656 L 87.773438 200.746094 L 83.972656 207.546875 L 73.171875 245.347656 L 71.570313 254.746094 L 71.570313 259 L -4 259 Z M -4 -4 "/>
<path style=" stroke:none;fill-rule:evenodd;fill:rgb(81.960784%,81.568627%,80.392157%);fill-opacity:1;" d="M -4 171.234375 L 72.441406 182.320313 L 75.71875 167.816406 L 76.820313 162.882813 L 72.269531 161.902344 L 73.609375 153.125 L 78.757813 134.960938 L 81.191406 135.5625 L 83.371094 136.207031 L 91.042969 103.144531 L 89.574219 102.753906 L 89.53125 101.722656 L 88.210938 100.136719 L 87.570313 98.835938 L 87.304688 97.644531 L 87.765625 94.003906 L 88.042969 92.003906 L 88.046875 90.796875 L 87.691406 89.710938 L 87.0625 88.8125 L 87.320313 86.0625 L 58.363281 82.175781 L 49.195313 80.660156 L 51.4375 65.558594 L 50.417969 66.691406 L 49.332031 66.804688 L 49.054688 65.28125 L 39.835938 63.808594 L 25.648438 61.683594 L 21.492188 60.765625 L 8.710938 115.363281 L -4 169.472656 Z M -4 171.234375 "/>
<path style="fill:none;stroke-width:1;stroke-linecap:round;stroke-linejoin:round;stroke:rgb(81.960784%,81.960784%,81.960784%);stroke-opacity:1;stroke-miterlimit:10;" d="M -4 171.234375 L 72.441406 182.320313 L 75.71875 167.816406 L 76.820313 162.882813 L 72.269531 161.902344 L 73.609375 153.125 L 78.757813 134.960938 L 81.191406 135.5625 L 83.371094 136.207031 L 91.042969 103.144531 L 89.574219 102.753906 L 89.53125 101.722656 L 88.210938 100.136719 L 87.570313 98.835938 L 87.304688 97.644531 L 87.765625 94.003906 L 88.042969 92.003906 L 88.046875 90.796875 L 87.691406 89.710938 L 87.0625 88.8125 L 87.320313 86.0625 L 58.363281 82.175781 L 49.195313 80.660156 L 51.4375 65.558594 L 50.417969 66.691406 L 49.332031 66.804688 L 49.054688 65.28125 L 39.835938 63.808594 L 25.648438 61.683594 L 21.492188 60.765625 L 8.710938 115.363281 L -4 169.472656 L -4 171.234375 "/>
<path style=" stroke:none;fill-rule:evenodd;fill:rgb(81.960784%,81.568627%,80.392157%);fill-opacity:1;" d="M -4 49.957031 L 51.097656 58.59375 L 52.582031 49.980469 L 63.855469 51.941406 L 70.574219 52.992188 L 100.484375 57.398438 L 100.839844 56.113281 L 102.394531 56.410156 L 107.296875 35.628906 L 107.207031 33.894531 L 106.972656 32.378906 L 106.101563 30.671875 L 104.789063 31.691406 L 103.839844 30.625 L 102.890625 30.035156 L 101.070313 29.375 L 99.621094 29.464844 L 96.453125 28.898438 L 94.9375 28.425781 L 93.648438 27.8125 L 92.675781 27.449219 L 91.046875 26.90625 L 90.050781 26.703125 L 84.921875 25.996094 L 85.203125 23.949219 L 55.984375 19.066406 L 27.558594 14.871094 L 3.847656 11.367188 L 2.839844 10.996094 L 1.597656 10.605469 L -0.511719 10.246094 L -4 9.625 Z M -4 49.957031 "/>
<path style="fill:none;stroke-width:1;stroke-linecap:round;stroke-linejoin:round;stroke:rgb(81.960784%,81.960784%,81.960784%);stroke-opacity:1;stroke-miterlimit:10;" d="M -4 49.957031 L 51.097656 58.59375 L 52.582031 49.980469 L 63.855469 51.941406 L 70.574219 52.992188 L 100.484375 57.398438 L 100.839844 56.113281 L 102.394531 56.410156 L 107.296875 35.628906 L 107.207031 33.894531 L 106.972656 32.378906 L 106.101563 30.671875 L 104.789063 31.691406 L 103.839844 30.625 L 102.890625 30.035156 L 101.070313 29.375 L 99.621094 29.464844 L 96.453125 28.898438 L 94.9375 28.425781 L 93.648438 27.8125 L 92.675781 27.449219 L 91.046875 26.90625 L 90.050781 26.703125 L 84.921875 25.996094 L 85.203125 23.949219 L 55.984375 19.066406 L 27.558594 14.871094 L 3.847656 11.367188 L 2.839844 10.996094 L 1.597656 10.605469 L -0.511719 10.246094 L -4 9.625 L -4 49.957031 "/>
<path style=" stroke:none;fill-rule:evenodd;fill:rgb(81.960784%,81.568627%,80.392157%);fill-opacity:1;" d="M 141.164063 0.554688 L 152.058594 2.964844 L 159.292969 4.082031 L 172.125 6.191406 L 190.34375 7.789063 L 207.613281 12.136719 L 230.953125 14.933594 L 260 19.382813 L 260 -0.15625 L 256.574219 -0.957031 L 255.640625 -4 L 124.878906 -4 L 124.625 -3.367188 Z M 141.164063 0.554688 "/>
<path style="fill:none;stroke-width:1;stroke-linecap:round;stroke-linejoin:round;stroke:rgb(81.960784%,81.960784%,81.960784%);stroke-opacity:1;stroke-miterlimit:10;" d="M 141.164063 0.554688 L 152.058594 2.964844 L 159.292969 4.082031 L 172.125 6.191406 L 190.34375 7.789063 L 207.613281 12.136719 L 230.953125 14.933594 L 260 19.382813 L 260 -0.15625 L 256.574219 -0.957031 L 255.640625 -4 L 124.878906 -4 L 124.625 -3.367188 L 141.164063 0.554688 "/>
<path style=" stroke:none;fill-rule:evenodd;fill:rgb(81.960784%,81.568627%,80.392157%);fill-opacity:1;" d="M 102.550781 95.5625 L 102.570313 95.96875 L 102.921875 96.980469 L 103.589844 97.894531 L 104.523438 98.480469 L 105.664063 98.8125 L 107.257813 99.058594 L 108.261719 99.179688 L 113.6875 98.886719 L 131.886719 88.488281 L 134.6875 83.6875 L 134.886719 78.488281 L 131.886719 64.488281 L 141.25 64.105469 L 141.117188 65.617188 L 144.339844 66.769531 L 147.355469 66.945313 L 149.664063 67.097656 L 161.832031 63.472656 L 179.742188 56.15625 L 199.269531 44.546875 L 199.984375 43.785156 L 200.605469 42.570313 L 201.082031 40.921875 L 202.464844 30.734375 L 203.371094 28.9375 L 199.230469 28.316406 L 196.546875 27.878906 L 192.320313 27.226563 L 187.019531 26.316406 L 182.847656 25.757813 L 181.527344 25.636719 L 181.324219 27.042969 L 179.15625 26.800781 L 179.347656 25.230469 L 172.214844 24.234375 L 123.699219 16.953125 L 122.65625 18.285156 L 120.929688 18.039063 L 102.597656 94.070313 L 102.566406 94.867188 Z M 102.550781 95.5625 "/>
<path style="fill:none;stroke-width:1;stroke-linecap:round;stroke-linejoin:round;stroke:rgb(81.960784%,81.960784%,81.960784%);stroke-opacity:1;stroke-miterlimit:10;" d="M 102.550781 95.5625 L 102.570313 95.96875 L 102.921875 96.980469 L 103.589844 97.894531 L 104.523438 98.480469 L 105.664063 98.8125 L 107.257813 99.058594 L 108.261719 99.179688 L 113.6875 98.886719 L 131.886719 88.488281 L 134.6875 83.6875 L 134.886719 78.488281 L 131.886719 64.488281 L 141.25 64.105469 L 141.117188 65.617188 L 144.339844 66.769531 L 147.355469 66.945313 L 149.664063 67.097656 L 161.832031 63.472656 L 179.742188 56.15625 L 199.269531 44.546875 L 199.984375 43.785156 L 200.605469 42.570313 L 201.082031 40.921875 L 202.464844 30.734375 L 203.371094 28.9375 L 199.230469 28.316406 L 196.546875 27.878906 L 192.320313 27.226563 L 187.019531 26.316406 L 182.847656 25.757813 L 181.527344 25.636719 L 181.324219 27.042969 L 179.15625 26.800781 L 179.347656 25.230469 L 172.214844 24.234375 L 123.699219 16.953125 L 122.65625 18.285156 L 120.929688 18.039063 L 102.597656 94.070313 L 102.566406 94.867188 L 102.550781 95.5625 "/>
<path style=" stroke:none;fill-rule:evenodd;fill:rgb(81.960784%,81.568627%,80.392157%);fill-opacity:1;" d="M 253.25 212.839844 L 260 201.59375 L 260 179.800781 L 243.632813 207.066406 Z M 253.25 212.839844 "/>
<path style="fill:none;stroke-width:1;stroke-linecap:round;stroke-linejoin:round;stroke:rgb(81.960784%,81.960784%,81.960784%);stroke-opacity:1;stroke-miterlimit:10;" d="M 253.25 212.839844 L 260 201.59375 L 260 179.800781 L 243.632813 207.066406 L 253.25 212.839844 "/>
<path style=" stroke:none;fill-rule:evenodd;fill:rgb(81.960784%,81.568627%,80.392157%);fill-opacity:1;" d="M 168.871094 211.601563 L 185.570313 222.085938 L 196.015625 203.9375 L 191.347656 201.089844 Z M 168.871094 211.601563 "/>
<path style="fill:none;stroke-width:1;stroke-linecap:round;stroke-linejoin:round;stroke:rgb(81.960784%,81.960784%,81.960784%);stroke-opacity:1;stroke-miterlimit:10;" d="M 168.871094 211.601563 L 185.570313 222.085938 L 196.015625 203.9375 L 191.347656 201.089844 L 168.871094 211.601563 "/>
<path style=" stroke:none;fill-rule:evenodd;fill:rgb(81.960784%,81.568627%,80.392157%);fill-opacity:1;" d="M 227.324219 166.851563 L 230.113281 173.804688 L 239.007813 170.003906 L 238.085938 166.714844 L 232.601563 165.46875 L 232.113281 164.421875 Z M 227.324219 166.851563 "/>
<path style="fill:none;stroke-width:1;stroke-linecap:round;stroke-linejoin:round;stroke:rgb(81.960784%,81.960784%,81.960784%);stroke-opacity:1;stroke-miterlimit:10;" d="M 227.324219 166.851563 L 230.113281 173.804688 L 239.007813 170.003906 L 238.085938 166.714844 L 232.601563 165.46875 L 232.113281 164.421875 L 227.324219 166.851563 "/>
<path style=" stroke:none;fill-rule:evenodd;fill:rgb(78.431373%,78.431373%,78.431373%);fill-opacity:1;" d="M 259 259 L 165.558594 259 L 175.167969 243.023438 L 147.925781 225.269531 L 141.25 226.820313 L 128.492188 220.179688 L 122.492188 245.582031 L 121.417969 259 Z M 259 259 "/>
<path style=" stroke:none;fill-rule:evenodd;fill:rgb(78.431373%,78.431373%,78.431373%);fill-opacity:1;" d="M 113.820313 259 L 259 259 L 259 -4 L 259 99.425781 L 255.824219 97.199219 L 247.425781 95.421875 L 216.320313 91.71875 L 196.890625 100.402344 L 196.105469 102.964844 L 171.621094 115.277344 L 170.980469 116.773438 L 153.898438 124.605469 L 152.046875 128.089844 L 149.414063 129.015625 L 144.21875 139.195313 L 143.929688 142.183594 L 139.234375 144.960938 L 130.621094 175.570313 L 130.480469 178.273438 L 132.1875 181.546875 L 136.960938 184.34375 L 123.871094 203.867188 L 120.4375 218.484375 L 114.457031 236.433594 L 113.476563 243.59375 Z M 113.820313 259 "/>
<path style=" stroke:none;fill-rule:evenodd;fill:rgb(60%,70.196078%,80%);fill-opacity:1;" d="M -4 99.632813 L -3.25 99.820313 L -1.796875 97.878906 L 2.367188 79.636719 L 4.863281 70.832031 L 6.527344 62.921875 L 6.734375 58.761719 L 5.902344 56.472656 L 3.613281 56.609375 L 1.117188 58 L -2.835938 72.496094 L -4 77.628906 Z M -4 99.632813 "/>
<path style="fill:none;stroke-width:1;stroke-linecap:round;stroke-linejoin:round;stroke:rgb(70.196078%,77.647059%,83.137255%);stroke-opacity:1;stroke-miterlimit:10;" d="M -4 99.632813 L -3.25 99.820313 L -1.796875 97.878906 L 2.367188 79.636719 L 4.863281 70.832031 L 6.527344 62.921875 L 6.734375 58.761719 L 5.902344 56.472656 L 3.613281 56.609375 L 1.117188 58 L -2.835938 72.496094 L -4 77.628906 L -4 99.632813 "/>
<path style="fill:none;stroke-width:8;stroke-linecap:round;stroke-linejoin:round;stroke:rgb(75.686275%,70.980392%,61.568627%);stroke-opacity:1;stroke-miterlimit:10;" d="M 193.867188 30.378906 L 190.335938 46.574219 "/>
<path style="fill:none;stroke-width:8;stroke-linecap:round;stroke-linejoin:round;stroke:rgb(75.686275%,70.980392%,61.568627%);stroke-opacity:1;stroke-miterlimit:10;" d="M 188.523438 30.394531 L 184.421875 49.929688 "/>
<path style="fill:none;stroke-width:8;stroke-linecap:round;stroke-linejoin:round;stroke:rgb(75.686275%,70.980392%,61.568627%);stroke-opacity:1;stroke-miterlimit:10;" d="M 140.558594 87.644531 L 135.960938 67.648438 L 135.402344 65.296875 "/>
<path style="fill:none;stroke-width:8;stroke-linecap:round;stroke-linejoin:round;stroke:rgb(75.686275%,70.980392%,61.568627%);stroke-opacity:1;stroke-miterlimit:10;" d="M 123.25 89.558594 L 127.398438 70.214844 L 129.007813 66.996094 "/>
<path style="fill:none;stroke-width:8;stroke-linecap:round;stroke-linejoin:round;stroke:rgb(75.686275%,70.980392%,61.568627%);stroke-opacity:1;stroke-miterlimit:10;" d="M 183.644531 29.371094 L 178.328125 53.386719 "/>
<path style="fill:none;stroke-width:8;stroke-linecap:round;stroke-linejoin:round;stroke:rgb(75.686275%,70.980392%,61.568627%);stroke-opacity:1;stroke-miterlimit:10;" d="M 176.695313 116.710938 L 187.351563 140.53125 "/>
<path style="fill:none;stroke-width:8;stroke-linecap:round;stroke-linejoin:round;stroke:rgb(75.686275%,70.980392%,61.568627%);stroke-opacity:1;stroke-miterlimit:10;" d="M 70.796875 174.007813 L 43.976563 169.839844 "/>
<path style="fill:none;stroke-width:8;stroke-linecap:round;stroke-linejoin:round;stroke:rgb(75.686275%,70.980392%,61.568627%);stroke-opacity:1;stroke-miterlimit:10;" d="M 44.6875 165.019531 L 71.917969 169.335938 "/>
<path style="fill:none;stroke-width:8;stroke-linecap:round;stroke-linejoin:round;stroke:rgb(75.686275%,70.980392%,61.568627%);stroke-opacity:1;stroke-miterlimit:10;" d="M 46.984375 149.257813 L 74.621094 153.503906 "/>
<path style="fill:none;stroke-width:8;stroke-linecap:round;stroke-linejoin:round;stroke:rgb(75.686275%,70.980392%,61.568627%);stroke-opacity:1;stroke-miterlimit:10;" d="M 264 139.417969 L 253.832031 156.570313 "/>
<path style="fill:none;stroke-width:8;stroke-linecap:round;stroke-linejoin:round;stroke:rgb(75.686275%,70.980392%,61.568627%);stroke-opacity:1;stroke-miterlimit:10;" d="M 47.738281 144.074219 L 75.683594 148.402344 "/>
<path style="fill:none;stroke-width:8;stroke-linecap:round;stroke-linejoin:round;stroke:rgb(75.686275%,70.980392%,61.568627%);stroke-opacity:1;stroke-miterlimit:10;" d="M -2.890625 28.945313 L 25.117188 32.984375 "/>
<path style="fill:none;stroke-width:8;stroke-linecap:round;stroke-linejoin:round;stroke:rgb(75.686275%,70.980392%,61.568627%);stroke-opacity:1;stroke-miterlimit:10;" d="M 25.925781 27.980469 L -2.109375 23.820313 "/>
<path style="fill:none;stroke-width:8;stroke-linecap:round;stroke-linejoin:round;stroke:rgb(75.686275%,70.980392%,61.568627%);stroke-opacity:1;stroke-miterlimit:10;" d="M -1.375 18.996094 L 26.699219 23.175781 "/>
<path style="fill:none;stroke-width:8;stroke-linecap:round;stroke-linejoin:round;stroke:rgb(75.686275%,70.980392%,61.568627%);stroke-opacity:1;stroke-miterlimit:10;" d="M 23.710938 63.476563 L 51.984375 67.621094 "/>
<path style="fill:none;stroke-width:8;stroke-linecap:round;stroke-linejoin:round;stroke:rgb(75.686275%,70.980392%,61.568627%);stroke-opacity:1;stroke-miterlimit:10;" d="M 76.703125 143.515625 L 48.429688 139.308594 "/>
<path style="fill:none;stroke-width:8;stroke-linecap:round;stroke-linejoin:round;stroke:rgb(75.686275%,70.980392%,61.568627%);stroke-opacity:1;stroke-miterlimit:10;" d="M 178.789063 28.347656 L 171.933594 56.4375 "/>
<path style="fill:none;stroke-width:8;stroke-linecap:round;stroke-linejoin:round;stroke:rgb(75.686275%,70.980392%,61.568627%);stroke-opacity:1;stroke-miterlimit:10;" d="M 51.210938 72.679688 L 22.523438 68.378906 "/>
<path style="fill:none;stroke-width:8;stroke-linecap:round;stroke-linejoin:round;stroke:rgb(75.686275%,70.980392%,61.568627%);stroke-opacity:1;stroke-miterlimit:10;" d="M 21.375 73.132813 L 50.445313 77.695313 "/>
<path style="fill:none;stroke-width:8;stroke-linecap:round;stroke-linejoin:round;stroke:rgb(75.686275%,70.980392%,61.568627%);stroke-opacity:1;stroke-miterlimit:10;" d="M 18.804688 83.730469 L 48.839844 88.191406 "/>
<path style="fill:none;stroke-width:8;stroke-linecap:round;stroke-linejoin:round;stroke:rgb(75.686275%,70.980392%,61.568627%);stroke-opacity:1;stroke-miterlimit:10;" d="M 80.203125 133.867188 L 49.867188 129.4375 "/>
<path style="fill:none;stroke-width:8;stroke-linecap:round;stroke-linejoin:round;stroke:rgb(75.686275%,70.980392%,61.568627%);stroke-opacity:1;stroke-miterlimit:10;" d="M 17.578125 88.800781 L 48.078125 93.164063 "/>
<path style="fill:none;stroke-width:8;stroke-linecap:round;stroke-linejoin:round;stroke:rgb(75.686275%,70.980392%,61.568627%);stroke-opacity:1;stroke-miterlimit:10;" d="M 55.707031 89.269531 L 86.34375 93.714844 "/>
<path style="fill:none;stroke-width:8;stroke-linecap:round;stroke-linejoin:round;stroke:rgb(75.686275%,70.980392%,61.568627%);stroke-opacity:1;stroke-miterlimit:10;" d="M 16.378906 93.753906 L 47.3125 98.191406 "/>
<path style="fill:none;stroke-width:8;stroke-linecap:round;stroke-linejoin:round;stroke:rgb(75.686275%,70.980392%,61.568627%);stroke-opacity:1;stroke-miterlimit:10;" d="M 50.613281 124.3125 L 81.640625 128.96875 "/>
<path style="fill:none;stroke-width:8;stroke-linecap:round;stroke-linejoin:round;stroke:rgb(75.686275%,70.980392%,61.568627%);stroke-opacity:1;stroke-miterlimit:10;" d="M 15.210938 98.5625 L 46.542969 103.21875 "/>
<path style="fill:none;stroke-width:8;stroke-linecap:round;stroke-linejoin:round;stroke:rgb(75.686275%,70.980392%,61.568627%);stroke-opacity:1;stroke-miterlimit:10;" d="M 82.828125 123.976563 L 51.339844 119.304688 "/>
<path style="fill:none;stroke-width:8;stroke-linecap:round;stroke-linejoin:round;stroke:rgb(75.686275%,70.980392%,61.568627%);stroke-opacity:1;stroke-miterlimit:10;" d="M 172.644531 27.347656 L 166.707031 58.710938 "/>
<path style="fill:none;stroke-width:8;stroke-linecap:round;stroke-linejoin:round;stroke:rgb(75.686275%,70.980392%,61.568627%);stroke-opacity:1;stroke-miterlimit:10;" d="M 86.644531 98.640625 L 54.992188 94.199219 "/>
<path style="fill:none;stroke-width:8;stroke-linecap:round;stroke-linejoin:round;stroke:rgb(75.686275%,70.980392%,61.568627%);stroke-opacity:1;stroke-miterlimit:10;" d="M 52.050781 114.414063 L 83.972656 119.148438 "/>
<path style="fill:none;stroke-width:8;stroke-linecap:round;stroke-linejoin:round;stroke:rgb(75.686275%,70.980392%,61.568627%);stroke-opacity:1;stroke-miterlimit:10;" d="M 12.871094 108.222656 L 44.996094 113.34375 "/>
<path style="fill:none;stroke-width:8;stroke-linecap:round;stroke-linejoin:round;stroke:rgb(75.686275%,70.980392%,61.568627%);stroke-opacity:1;stroke-miterlimit:10;" d="M 88.140625 132.285156 L 82.527344 138.351563 L 81.105469 141.367188 L 79.199219 149.515625 L 77.398438 155.722656 L 76.285156 157.386719 L 74.726563 157.945313 L 73.339844 157.769531 L 72.464844 156.757813 "/>
<path style="fill:none;stroke-width:8;stroke-linecap:round;stroke-linejoin:round;stroke:rgb(75.686275%,70.980392%,61.568627%);stroke-opacity:1;stroke-miterlimit:10;" d="M 11.613281 113.421875 L 44.25 118.210938 "/>
<path style="fill:none;stroke-width:8;stroke-linecap:round;stroke-linejoin:round;stroke:rgb(75.686275%,70.980392%,61.568627%);stroke-opacity:1;stroke-miterlimit:10;" d="M 53.527344 104.257813 L 86.335938 109.195313 "/>
<path style="fill:none;stroke-width:8;stroke-linecap:round;stroke-linejoin:round;stroke:rgb(75.686275%,70.980392%,61.568627%);stroke-opacity:1;stroke-miterlimit:10;" d="M 10.433594 118.28125 L 43.476563 123.273438 "/>
<path style="fill:none;stroke-width:8;stroke-linecap:round;stroke-linejoin:round;stroke:rgb(75.686275%,70.980392%,61.568627%);stroke-opacity:1;stroke-miterlimit:10;" d="M 54.265625 99.191406 L 87.523438 104.191406 "/>
<path style="fill:none;stroke-width:8;stroke-linecap:round;stroke-linejoin:round;stroke:rgb(75.686275%,70.980392%,61.568627%);stroke-opacity:1;stroke-miterlimit:10;" d="M 9.238281 123.214844 L 42.714844 128.265625 "/>
<path style="fill:none;stroke-width:8;stroke-linecap:round;stroke-linejoin:round;stroke:rgb(75.686275%,70.980392%,61.568627%);stroke-opacity:1;stroke-miterlimit:10;" d="M 42.039063 132.699219 L 8.039063 128.171875 "/>
<path style="fill:none;stroke-width:8;stroke-linecap:round;stroke-linejoin:round;stroke:rgb(75.686275%,70.980392%,61.568627%);stroke-opacity:1;stroke-miterlimit:10;" d="M 6.824219 133.175781 L 41.1875 138.265625 "/>
<path style="fill:none;stroke-width:8;stroke-linecap:round;stroke-linejoin:round;stroke:rgb(75.686275%,70.980392%,61.568627%);stroke-opacity:1;stroke-miterlimit:10;" d="M 116.941406 92.847656 L 124.898438 58.921875 "/>
<path style="fill:none;stroke-width:8;stroke-linecap:round;stroke-linejoin:round;stroke:rgb(75.686275%,70.980392%,61.568627%);stroke-opacity:1;stroke-miterlimit:10;" d="M 167.898438 26.574219 L 161.3125 61.0625 "/>
<path style="fill:none;stroke-width:8;stroke-linecap:round;stroke-linejoin:round;stroke:rgb(75.686275%,70.980392%,61.568627%);stroke-opacity:1;stroke-miterlimit:10;" d="M 40.484375 142.839844 L 5.671875 137.933594 "/>
<path style="fill:none;stroke-width:8;stroke-linecap:round;stroke-linejoin:round;stroke:rgb(75.686275%,70.980392%,61.568627%);stroke-opacity:1;stroke-miterlimit:10;" d="M 4.503906 142.753906 L 39.664063 148.214844 "/>
<path style="fill:none;stroke-width:8;stroke-linecap:round;stroke-linejoin:round;stroke:rgb(75.686275%,70.980392%,61.568627%);stroke-opacity:1;stroke-miterlimit:10;" d="M 38.867188 153.421875 L 3.203125 148.117188 "/>
<path style="fill:none;stroke-width:8;stroke-linecap:round;stroke-linejoin:round;stroke:rgb(75.686275%,70.980392%,61.568627%);stroke-opacity:1;stroke-miterlimit:10;" d="M 1.933594 153.363281 L 38.070313 158.636719 "/>
<path style="fill:none;stroke-width:8;stroke-linecap:round;stroke-linejoin:round;stroke:rgb(75.686275%,70.980392%,61.568627%);stroke-opacity:1;stroke-miterlimit:10;" d="M 41.898438 133.589844 L 49.128906 134.515625 L 78.4375 138.738281 "/>
<path style="fill:none;stroke-width:8;stroke-linecap:round;stroke-linejoin:round;stroke:rgb(75.686275%,70.980392%,61.568627%);stroke-opacity:1;stroke-miterlimit:10;" d="M 37.355469 163.3125 L 0.804688 158.023438 "/>
<path style="fill:none;stroke-width:8;stroke-linecap:round;stroke-linejoin:round;stroke:rgb(75.686275%,70.980392%,61.568627%);stroke-opacity:1;stroke-miterlimit:10;" d="M -0.285156 162.519531 L 36.609375 168.207031 "/>
<path style="fill:none;stroke-width:8;stroke-linecap:round;stroke-linejoin:round;stroke:rgb(75.686275%,70.980392%,61.568627%);stroke-opacity:1;stroke-miterlimit:10;" d="M 114.773438 56.582031 L 123.59375 19.992188 "/>
<path style="fill:none;stroke-width:8;stroke-linecap:round;stroke-linejoin:round;stroke:rgb(75.686275%,70.980392%,61.568627%);stroke-opacity:1;stroke-miterlimit:10;" d="M 162.820313 25.75 L 155.503906 62.796875 "/>
<path style="fill:none;stroke-width:8;stroke-linecap:round;stroke-linejoin:round;stroke:rgb(75.686275%,70.980392%,61.568627%);stroke-opacity:1;stroke-miterlimit:10;" d="M 133.425781 20.964844 L 124.898438 58.921875 "/>
<path style="fill:none;stroke-width:8;stroke-linecap:round;stroke-linejoin:round;stroke:rgb(75.686275%,70.980392%,61.568627%);stroke-opacity:1;stroke-miterlimit:10;" d="M 130.140625 60.132813 L 138.128906 21.730469 "/>
<path style="fill:none;stroke-width:8;stroke-linecap:round;stroke-linejoin:round;stroke:rgb(75.686275%,70.980392%,61.568627%);stroke-opacity:1;stroke-miterlimit:10;" d="M 134.832031 61.21875 L 143.230469 22.5625 "/>
<path style="fill:none;stroke-width:8;stroke-linecap:round;stroke-linejoin:round;stroke:rgb(75.686275%,70.980392%,61.568627%);stroke-opacity:1;stroke-miterlimit:10;" d="M 147.914063 23.324219 L 139.839844 62.375 "/>
<path style="fill:none;stroke-width:8;stroke-linecap:round;stroke-linejoin:round;stroke:rgb(75.686275%,70.980392%,61.568627%);stroke-opacity:1;stroke-miterlimit:10;" d="M 144.753906 63.511719 L 153.042969 24.15625 "/>
<path style="fill:none;stroke-width:8;stroke-linecap:round;stroke-linejoin:round;stroke:rgb(75.686275%,70.980392%,61.568627%);stroke-opacity:1;stroke-miterlimit:10;" d="M 157.636719 24.90625 L 149.480469 64.601563 "/>
<path style="fill:none;stroke-width:8;stroke-linecap:round;stroke-linejoin:round;stroke:rgb(75.686275%,70.980392%,61.568627%);stroke-opacity:1;stroke-miterlimit:10;" d="M 63.9375 60.742188 L 64.9375 56.144531 L 66.335938 54.941406 L 67.9375 54.542969 L 70.136719 54.941406 L 91.335938 58.144531 L 93.339844 58.941406 L 96.335938 62.34375 L 98.535156 63.34375 "/>
<path style="fill:none;stroke-width:8;stroke-linecap:round;stroke-linejoin:round;stroke:rgb(75.686275%,70.980392%,61.568627%);stroke-opacity:1;stroke-miterlimit:10;" d="M 48.535156 15.585938 L 47.65625 18.125 L 45.746094 18.5 L 32.113281 16.683594 L 30.886719 17.027344 L 30.003906 18.300781 L 27.453125 38.808594 "/>
<path style="fill:none;stroke-width:8;stroke-linecap:round;stroke-linejoin:round;stroke:rgb(75.686275%,70.980392%,61.568627%);stroke-opacity:1;stroke-miterlimit:10;" d="M 200.074219 168.902344 L 201.71875 166.652344 L 224.117188 156.65625 L 227.316406 156.253906 L 229.917969 156.253906 L 232.71875 157.851563 L 235.117188 160.054688 L 237.71875 162.253906 L 240.574219 164.347656 "/>
<path style="fill:none;stroke-width:8;stroke-linecap:round;stroke-linejoin:round;stroke:rgb(75.686275%,70.980392%,61.568627%);stroke-opacity:1;stroke-miterlimit:10;" d="M 202.875 194.6875 L 197.992188 202.417969 L 175.128906 239.636719 "/>
<path style="fill:none;stroke-width:8;stroke-linecap:round;stroke-linejoin:round;stroke:rgb(75.686275%,70.980392%,61.568627%);stroke-opacity:1;stroke-miterlimit:10;" d="M 53.917969 54.96875 L 25.632813 50.816406 L -5.53125 46.292969 "/>
<path style="fill:none;stroke-width:8;stroke-linecap:round;stroke-linejoin:round;stroke:rgb(75.686275%,70.980392%,61.568627%);stroke-opacity:1;stroke-miterlimit:10;" d="M -4.703125 40.847656 L 26.472656 45.292969 L 54.789063 49.277344 "/>
<path style="fill:none;stroke-width:8;stroke-linecap:round;stroke-linejoin:round;stroke:rgb(75.686275%,70.980392%,61.568627%);stroke-opacity:1;stroke-miterlimit:10;" d="M 57.632813 76.03125 L 77.265625 79.410156 L 91.046875 81.667969 L 92.273438 82.550781 L 93.253906 84.21875 L 93.648438 85.785156 L 93.355469 87.453125 L 89.183594 95.058594 L 88.988281 96.671875 L 89.285156 98.292969 L 90.117188 99.375 L 92.125 100.5 L 96.574219 101.945313 "/>
<path style="fill:none;stroke-width:8;stroke-linecap:round;stroke-linejoin:round;stroke:rgb(75.686275%,70.980392%,61.568627%);stroke-opacity:1;stroke-miterlimit:10;" d="M 164.132813 150.964844 L 187.351563 140.53125 L 222.785156 124.609375 "/>
<path style="fill:none;stroke-width:8;stroke-linecap:round;stroke-linejoin:round;stroke:rgb(75.686275%,70.980392%,61.568627%);stroke-opacity:1;stroke-miterlimit:10;" d="M 211.664063 99.300781 L 219.765625 95.554688 L 221.703125 95.417969 L 223.230469 95.417969 L 238.351563 97.011719 L 239.671875 97.84375 L 240.296875 99.160156 L 238.28125 121.566406 L 222.785156 124.609375 "/>
<path style="fill:none;stroke-width:8;stroke-linecap:round;stroke-linejoin:round;stroke:rgb(75.686275%,70.980392%,61.568627%);stroke-opacity:1;stroke-miterlimit:10;" d="M 102.058594 44.3125 L 63.027344 38.546875 L 31.613281 33.902344 "/>
<path style="fill:none;stroke-width:8;stroke-linecap:round;stroke-linejoin:round;stroke:rgb(75.686275%,70.980392%,61.568627%);stroke-opacity:1;stroke-miterlimit:10;" d="M 32.421875 28.886719 L 63.730469 33.496094 L 103.203125 39.300781 "/>
<path style="fill:none;stroke-width:8;stroke-linecap:round;stroke-linejoin:round;stroke:rgb(75.686275%,70.980392%,61.568627%);stroke-opacity:1;stroke-miterlimit:10;" d="M 104.382813 34.148438 L 64.433594 28.453125 L 33.207031 24 "/>
<path style="fill:none;stroke-width:8;stroke-linecap:round;stroke-linejoin:round;stroke:rgb(75.686275%,70.980392%,61.568627%);stroke-opacity:1;stroke-miterlimit:10;" d="M 14.027344 103.453125 L 45.78125 108.222656 L 52.796875 109.277344 L 85.160156 114.140625 "/>
<path style="fill:none;stroke-width:8;stroke-linecap:round;stroke-linejoin:round;stroke:rgb(75.686275%,70.980392%,61.568627%);stroke-opacity:1;stroke-miterlimit:10;" d="M 128.679688 20.195313 L 119.9375 57.773438 L 110.453125 96.234375 "/>
<path style="fill:none;stroke-width:8;stroke-linecap:round;stroke-linejoin:round;stroke:rgb(75.686275%,70.980392%,61.568627%);stroke-opacity:1;stroke-miterlimit:10;" d="M 103.527344 81.410156 L 101.9375 78.144531 L 100.761719 77.445313 L 99.136719 76.742188 L 66.9375 71.941406 L 64.9375 70.945313 L 63.136719 69.144531 L 62.734375 67.34375 L 63.9375 60.742188 L 65.335938 59.140625 L 66.738281 58.742188 L 70.136719 59.34375 L 98.535156 63.34375 L 103.960938 64.046875 L 106.136719 63.945313 L 107.335938 63.140625 L 108.738281 60.34375 "/>
<path style="fill:none;stroke-width:8;stroke-linecap:round;stroke-linejoin:round;stroke:rgb(75.686275%,70.980392%,61.568627%);stroke-opacity:1;stroke-miterlimit:10;" d="M 252.425781 120.742188 L 253.855469 124.207031 L 264 130.09375 "/>
<path style="fill:none;stroke-width:8;stroke-linecap:round;stroke-linejoin:round;stroke:rgb(75.686275%,70.980392%,61.568627%);stroke-opacity:1;stroke-miterlimit:10;" d="M -3.738281 34.507813 L 24.214844 38.59375 L 27.453125 38.808594 L 30.75 39.28125 L 55.765625 42.878906 L 62.238281 43.964844 L 100.914063 49.375 "/>
<path style="fill:none;stroke-width:8;stroke-linecap:round;stroke-linejoin:round;stroke:rgb(75.686275%,70.980392%,61.568627%);stroke-opacity:1;stroke-miterlimit:10;" d="M 192.394531 199.039063 L 197.992188 202.417969 L 264 242.265625 "/>
<path style="fill:none;stroke-width:8;stroke-linecap:round;stroke-linejoin:round;stroke:rgb(75.686275%,70.980392%,61.568627%);stroke-opacity:1;stroke-miterlimit:10;" d="M 55.765625 42.878906 L 54.789063 49.277344 L 53.917969 54.96875 L 51.984375 67.621094 L 51.210938 72.679688 L 50.445313 77.695313 L 49.667969 82.777344 L 48.839844 88.191406 L 48.078125 93.164063 L 47.3125 98.191406 L 46.542969 103.21875 L 45.78125 108.222656 L 44.996094 113.34375 L 44.25 118.210938 L 43.476563 123.273438 L 42.714844 128.265625 L 42.039063 132.699219 L 41.1875 138.265625 L 40.484375 142.839844 L 39.664063 148.214844 L 38.867188 153.421875 L 38.070313 158.636719 L 37.355469 163.3125 L 36.609375 168.207031 L 35.804688 173.46875 "/>
<path style="fill:none;stroke-width:8;stroke-linecap:round;stroke-linejoin:round;stroke:rgb(75.686275%,70.980392%,61.568627%);stroke-opacity:1;stroke-miterlimit:10;" d="M 30.75 39.28125 L 31.613281 33.902344 L 32.421875 28.886719 L 33.207031 24 L 33.703125 20.902344 L 43.480469 21.664063 L 49.515625 21.457031 L 52.292969 21.597656 L 65.121094 23.519531 L 90.714844 27.355469 L 95.570313 29.226563 L 101.535156 30.195313 L 103.132813 30.890625 L 104.171875 32.207031 L 104.382813 34.148438 L 103.203125 39.300781 L 102.058594 44.3125 L 100.914063 49.375 L 100.007813 53.292969 L 99.246094 53.988281 L 97.652344 53.988281 L 61.65625 48.371094 "/>
<path style="fill:none;stroke-width:8;stroke-linecap:round;stroke-linejoin:round;stroke:rgb(75.686275%,70.980392%,61.568627%);stroke-opacity:1;stroke-miterlimit:10;" d="M 65.121094 23.519531 L 64.433594 28.453125 L 63.730469 33.496094 L 63.027344 38.546875 L 62.238281 43.964844 L 61.65625 48.371094 L 57.632813 76.03125 L 56.5 83.839844 L 55.707031 89.269531 L 54.992188 94.199219 L 54.265625 99.191406 L 53.527344 104.257813 L 52.796875 109.277344 L 52.050781 114.414063 L 51.339844 119.304688 L 50.613281 124.3125 L 49.867188 129.4375 L 49.128906 134.515625 L 48.429688 139.308594 L 47.738281 144.074219 L 46.984375 149.257813 L 46.222656 154.507813 L 45.5 159.472656 L 44.6875 165.019531 L 43.976563 169.839844 L 43.292969 174.507813 "/>
<path style="fill:none;stroke-width:8;stroke-linecap:round;stroke-linejoin:round;stroke:rgb(75.686275%,70.980392%,61.568627%);stroke-opacity:1;stroke-miterlimit:10;" d="M 20.148438 78.191406 L 49.667969 82.777344 L 56.5 83.839844 L 83.917969 88.097656 L 85.027344 88.585938 L 86 89.972656 L 86.34375 91.425781 L 86.34375 96.285156 L 86.644531 98.640625 L 87.59375 101.902344 L 87.523438 104.191406 L 86.335938 109.195313 L 85.160156 114.140625 L 83.972656 119.148438 L 82.828125 123.976563 L 81.640625 128.96875 L 81.003906 131.65625 L 80.203125 133.867188 L 78.4375 138.738281 L 76.703125 143.515625 L 75.683594 148.402344 L 74.621094 153.503906 L 73.511719 155.863281 L 72.464844 156.757813 L 71.640625 157.457031 L 68.933594 157.875 L 46.222656 154.507813 L 38.867188 153.421875 "/>
<path style="fill:none;stroke-width:8;stroke-linecap:round;stroke-linejoin:round;stroke:rgb(75.686275%,70.980392%,61.568627%);stroke-opacity:1;stroke-miterlimit:10;" d="M 264 222.167969 L 213.550781 192.707031 L 210.398438 192.421875 L 206.953125 192.996094 L 202.875 194.6875 L 192.394531 199.039063 L 160.023438 213.925781 L 157.921875 213.828125 L 155.4375 212.492188 L 143.679688 206.664063 L 142.152344 206.664063 L 136.515625 214.59375 "/>
<path style="fill:none;stroke-width:8;stroke-linecap:round;stroke-linejoin:round;stroke:rgb(75.686275%,70.980392%,61.568627%);stroke-opacity:1;stroke-miterlimit:10;" d="M -9 61.535156 L -7.519531 59.339844 L -5.636719 49.433594 L -5.53125 46.292969 L -4.703125 40.847656 L -4.441406 39.125 L -3.738281 34.507813 L -3.367188 31.777344 L -2.890625 28.945313 L -2.109375 23.820313 L -1.675781 20.960938 L -1.375 18.996094 L -0.503906 13.285156 L 26.761719 17.652344 L 27.449219 18.53125 L 26.699219 23.175781 L 25.925781 27.980469 L 25.117188 32.984375 L 24.214844 38.59375 "/>
<path style="fill:none;stroke-width:8;stroke-linecap:round;stroke-linejoin:round;stroke:rgb(75.686275%,70.980392%,61.568627%);stroke-opacity:1;stroke-miterlimit:10;" d="M 113.972656 29.34375 L 103.230469 27.789063 L 101.863281 27.621094 L 93.429688 25.1875 L 88.03125 22.789063 L 82.429688 21.390625 L 48.535156 15.585938 L 2.816406 8.046875 L -9 6.085938 "/>
<path style="fill:none;stroke-width:8;stroke-linecap:round;stroke-linejoin:round;stroke:rgb(75.686275%,70.980392%,61.568627%);stroke-opacity:1;stroke-miterlimit:10;" d="M 45.5 159.472656 L 71.292969 163.839844 L 72.125 164.808594 L 72.542969 166.75 L 71.917969 169.335938 L 70.796875 174.007813 L 70.324219 175.976563 L 68.867188 177.78125 L 67.476563 178.265625 L 43.292969 174.507813 L 35.804688 173.46875 L 2.003906 168.347656 L 0.894531 167.238281 L -0.0078125 165.085938 L -0.285156 162.519531 L 0.804688 158.023438 L 1.933594 153.363281 L 3.203125 148.117188 L 4.503906 142.753906 L 5.671875 137.933594 L 6.824219 133.175781 L 8.039063 128.171875 L 9.238281 123.214844 L 10.433594 118.28125 L 11.613281 113.421875 L 12.871094 108.222656 L 14.027344 103.453125 L 15.210938 98.5625 L 16.378906 93.753906 L 17.578125 88.800781 L 18.804688 83.730469 L 20.148438 78.191406 L 21.375 73.132813 L 22.523438 68.378906 L 23.710938 63.476563 L 25.632813 50.816406 L 26.472656 45.292969 L 27.453125 38.808594 "/>
<path style="fill:none;stroke-width:8;stroke-linecap:round;stroke-linejoin:round;stroke:rgb(75.686275%,70.980392%,61.568627%);stroke-opacity:1;stroke-miterlimit:10;" d="M 229.917969 156.253906 L 230.886719 143.046875 L 222.785156 124.609375 L 211.664063 99.300781 L 179.933594 113.230469 L 176.695313 116.710938 L 155.3125 126.375 L 154.28125 127.894531 L 154.476563 128.921875 L 158.742188 139.222656 L 141.996094 146.679688 L 140.78125 147.714844 L 139.671875 149.242188 L 138.769531 151.148438 L 131.417969 175.011719 L 131.347656 176.675781 L 131.695313 178.164063 L 132.355469 179.554688 L 133.429688 180.492188 L 143.207031 185.96875 L 145.253906 185.898438 L 146.363281 185.066406 L 168.105469 167.148438 L 168.9375 165.433594 L 169.28125 163.472656 L 168.988281 161.558594 L 164.132813 150.964844 L 158.742188 139.222656 "/>
<path style="fill:none;stroke-width:8;stroke-linecap:round;stroke-linejoin:round;stroke:rgb(75.686275%,70.980392%,61.568627%);stroke-opacity:1;stroke-miterlimit:10;" d="M 116.417969 17.808594 L 123.59375 19.992188 L 126.414063 19.824219 L 128.679688 20.195313 L 133.425781 20.964844 L 138.128906 21.730469 L 143.230469 22.5625 L 147.914063 23.324219 L 153.042969 24.15625 L 157.636719 24.90625 L 162.820313 25.75 L 167.898438 26.574219 L 172.644531 27.347656 L 178.789063 28.347656 L 183.644531 29.371094 L 188.523438 30.394531 L 190.375 29.839844 L 193.867188 30.378906 L 199.585938 31.253906 L 197.097656 42.5625 L 190.335938 46.574219 L 184.421875 49.929688 L 178.328125 53.386719 L 176.300781 54.535156 L 171.933594 56.4375 L 166.707031 58.710938 L 161.3125 61.0625 L 155.503906 62.796875 L 149.480469 64.601563 L 144.753906 63.511719 L 139.839844 62.375 L 134.832031 61.21875 L 130.140625 60.132813 L 124.898438 58.921875 L 119.9375 57.773438 L 114.773438 56.582031 L 105.757813 94.136719 L 105.980469 95.1875 L 110.453125 96.234375 L 116.941406 92.847656 L 123.25 89.558594 L 128.953125 86.582031 L 129.78125 85.753906 L 130.390625 84.925781 L 131.164063 82.710938 L 131.386719 81.160156 L 131.304688 79.1875 L 131.148438 78.179688 L 130.648438 76.175781 L 130.257813 74.367188 L 129.53125 71.839844 L 128.953125 69.625 L 129.007813 66.996094 L 129.203125 64.703125 L 130.140625 60.132813 "/>
<path style="fill:none;stroke-width:8;stroke-linecap:round;stroke-linejoin:round;stroke:rgb(75.686275%,70.980392%,61.568627%);stroke-opacity:1;stroke-miterlimit:10;" d="M 238.28125 121.566406 L 252.425781 120.742188 L 264 121.378906 M 264 162.5625 L 253.832031 156.570313 L 230.886719 143.046875 "/>
<path style="fill:none;stroke-width:8;stroke-linecap:round;stroke-linejoin:round;stroke:rgb(75.686275%,70.980392%,61.568627%);stroke-opacity:1;stroke-miterlimit:10;" d="M 116.890625 264 L 116.585938 260.371094 L 116.988281 254.773438 L 121.585938 229.96875 L 125.917969 205.851563 L 127.117188 202.855469 L 129.117188 200.253906 L 132.71875 198.054688 L 136.519531 197.253906 L 140.519531 197.855469 L 144.71875 199.855469 L 153.917969 205.253906 L 157.519531 206.453125 L 162.316406 206.65625 L 166.71875 205.851563 L 198.917969 191.453125 L 201.316406 189.054688 L 202.519531 186.453125 L 202.917969 183.050781 L 201.917969 179.65625 L 199.71875 174.453125 L 199.519531 170.855469 L 200.074219 168.902344 "/>
<path style="fill:none;stroke-width:10;stroke-linecap:round;stroke-linejoin:round;stroke:rgb(72.941176%,43.137255%,15.294118%);stroke-opacity:1;stroke-miterlimit:10;" d="M 92.460938 11.011719 L 113.222656 11.453125 L 117.570313 12.347656 "/>
<path style="fill:none;stroke-width:10;stroke-linecap:round;stroke-linejoin:round;stroke:rgb(72.941176%,43.137255%,15.294118%);stroke-opacity:1;stroke-miterlimit:10;" d="M 39.703125 -4.121094 L 44.625 -0.5 L 50.585938 2.210938 L 56.699219 4.515625 L 63.855469 5.972656 L 82.84375 9.375 L 92.460938 11.011719 "/>
<path style="fill:none;stroke-width:10;stroke-linecap:round;stroke-linejoin:round;stroke:rgb(72.941176%,43.137255%,15.294118%);stroke-opacity:1;stroke-miterlimit:10;" d="M 33.90625 -7.601563 L 39.703125 -4.121094 L 47.351563 -0.949219 L 55.113281 1.417969 L 60.085938 2.28125 L 64.9375 2.679688 L 71.667969 2.679688 L 90.878906 1.429688 L 98.023438 1.152344 L 105.792969 1.359375 L 113.789063 1.894531 "/>
<path style="fill:none;stroke-width:10;stroke-linecap:round;stroke-linejoin:round;stroke:rgb(72.941176%,43.137255%,15.294118%);stroke-opacity:1;stroke-miterlimit:10;" d="M -11 -4.414063 L -7.226563 -2.855469 L 4.171875 1.144531 L 13.726563 3.507813 L 26.457031 6.652344 L 37.949219 8.847656 L 53.351563 10.449219 L 64.613281 10.820313 L 92.460938 11.011719 "/>
<path style="fill:none;stroke-width:10;stroke-linecap:round;stroke-linejoin:round;stroke:rgb(72.941176%,43.137255%,15.294118%);stroke-opacity:1;stroke-miterlimit:10;" d="M 117.570313 12.347656 L 245.574219 31.34375 L 255.574219 33.34375 L 264.574219 35.542969 L 266 35.933594 "/>
<path style="fill:none;stroke-width:8;stroke-linecap:round;stroke-linejoin:round;stroke:rgb(75.686275%,70.980392%,61.568627%);stroke-opacity:1;stroke-miterlimit:10;" d="M 117.570313 12.347656 L 116.417969 17.808594 L 113.972656 29.34375 "/>
<path style="fill:none;stroke-width:8;stroke-linecap:round;stroke-linejoin:round;stroke:rgb(75.686275%,70.980392%,61.568627%);stroke-opacity:1;stroke-miterlimit:10;" d="M 113.972656 29.34375 L 112.359375 32.449219 L 110.558594 36.046875 L 103.960938 64.046875 L 100.761719 77.445313 L 96.960938 93.449219 L 96.5625 97.246094 L 96.574219 101.945313 "/>
<path style="fill:none;stroke-width:8;stroke-linecap:round;stroke-linejoin:round;stroke:rgb(75.686275%,70.980392%,61.568627%);stroke-opacity:1;stroke-miterlimit:10;" d="M 96.574219 101.945313 L 98.960938 97.847656 L 100.359375 94.246094 L 103.527344 81.410156 L 104.359375 78.046875 L 108.738281 60.34375 L 114.160156 36.449219 L 114.359375 33.246094 L 113.972656 29.34375 "/>
<path style="fill:none;stroke-width:8;stroke-linecap:round;stroke-linejoin:round;stroke:rgb(75.686275%,70.980392%,61.568627%);stroke-opacity:1;stroke-miterlimit:10;" d="M 96.574219 101.945313 L 92.171875 116.945313 L 88.140625 132.285156 L 77.289063 180.890625 "/>
<path style="fill:none;stroke-width:8;stroke-linecap:round;stroke-linejoin:round;stroke:rgb(75.686275%,70.980392%,61.568627%);stroke-opacity:1;stroke-miterlimit:10;" d="M 264 178.226563 L 240.574219 164.347656 "/>
<path style="fill:none;stroke-width:8;stroke-linecap:round;stroke-linejoin:round;stroke:rgb(75.686275%,70.980392%,61.568627%);stroke-opacity:1;stroke-miterlimit:10;" d="M 96.574219 101.945313 L 102.574219 103.144531 L 106.574219 103.746094 L 110.972656 103.144531 L 114.773438 101.34375 L 140.558594 87.644531 L 202.972656 54.144531 L 207.574219 51.945313 L 213.371094 50.945313 L 218.773438 51.347656 L 264 62.21875 "/>
<path style="fill:none;stroke-width:9;stroke-linecap:round;stroke-linejoin:round;stroke:rgb(75.686275%,70.980392%,61.568627%);stroke-opacity:1;stroke-miterlimit:10;" d="M 122.414063 -10 L 117.570313 12.347656 "/>
<path style="fill:none;stroke-width:11;stroke-linecap:round;stroke-linejoin:round;stroke:rgb(72.941176%,43.137255%,15.294118%);stroke-opacity:1;stroke-miterlimit:10;" d="M 50.386719 -12 L 98.160156 -2.59375 L 114 0.695313 "/>
<path style="fill:none;stroke-width:11;stroke-linecap:round;stroke-linejoin:round;stroke:rgb(72.941176%,43.137255%,15.294118%);stroke-opacity:1;stroke-miterlimit:10;" d="M 128.632813 3.847656 L 267 26.394531 "/>
<path style="fill:none;stroke-width:6;stroke-linecap:round;stroke-linejoin:round;stroke:rgb(100%,100%,100%);stroke-opacity:1;stroke-miterlimit:10;" d="M 193.867188 30.378906 L 190.335938 46.574219 "/>
<path style="fill:none;stroke-width:6;stroke-linecap:round;stroke-linejoin:round;stroke:rgb(100%,100%,100%);stroke-opacity:1;stroke-miterlimit:10;" d="M 188.523438 30.394531 L 184.421875 49.929688 "/>
<path style="fill:none;stroke-width:6;stroke-linecap:round;stroke-linejoin:round;stroke:rgb(100%,100%,100%);stroke-opacity:1;stroke-miterlimit:10;" d="M 140.558594 87.644531 L 135.960938 67.648438 L 135.402344 65.296875 "/>
<path style="fill:none;stroke-width:6;stroke-linecap:round;stroke-linejoin:round;stroke:rgb(100%,100%,100%);stroke-opacity:1;stroke-miterlimit:10;" d="M 123.25 89.558594 L 127.398438 70.214844 L 129.007813 66.996094 "/>
<path style="fill:none;stroke-width:6;stroke-linecap:round;stroke-linejoin:round;stroke:rgb(100%,100%,100%);stroke-opacity:1;stroke-miterlimit:10;" d="M 183.644531 29.371094 L 178.328125 53.386719 "/>
<path style="fill:none;stroke-width:6;stroke-linecap:round;stroke-linejoin:round;stroke:rgb(100%,100%,100%);stroke-opacity:1;stroke-miterlimit:10;" d="M 176.695313 116.710938 L 187.351563 140.53125 "/>
<path style="fill:none;stroke-width:6;stroke-linecap:round;stroke-linejoin:round;stroke:rgb(100%,100%,100%);stroke-opacity:1;stroke-miterlimit:10;" d="M 70.796875 174.007813 L 43.976563 169.839844 "/>
<path style="fill:none;stroke-width:6;stroke-linecap:round;stroke-linejoin:round;stroke:rgb(100%,100%,100%);stroke-opacity:1;stroke-miterlimit:10;" d="M 44.6875 165.019531 L 71.917969 169.335938 "/>
<path style="fill:none;stroke-width:6;stroke-linecap:round;stroke-linejoin:round;stroke:rgb(100%,100%,100%);stroke-opacity:1;stroke-miterlimit:10;" d="M 46.984375 149.257813 L 74.621094 153.503906 "/>
<path style="fill:none;stroke-width:6;stroke-linecap:round;stroke-linejoin:round;stroke:rgb(100%,100%,100%);stroke-opacity:1;stroke-miterlimit:10;" d="M 264 139.417969 L 253.832031 156.570313 "/>
<path style="fill:none;stroke-width:6;stroke-linecap:round;stroke-linejoin:round;stroke:rgb(100%,100%,100%);stroke-opacity:1;stroke-miterlimit:10;" d="M 47.738281 144.074219 L 75.683594 148.402344 "/>
<path style="fill:none;stroke-width:6;stroke-linecap:round;stroke-linejoin:round;stroke:rgb(100%,100%,100%);stroke-opacity:1;stroke-miterlimit:10;" d="M -2.890625 28.945313 L 25.117188 32.984375 "/>
<path style="fill:none;stroke-width:6;stroke-linecap:round;stroke-linejoin:round;stroke:rgb(100%,100%,100%);stroke-opacity:1;stroke-miterlimit:10;" d="M 25.925781 27.980469 L -2.109375 23.820313 "/>
<path style="fill:none;stroke-width:6;stroke-linecap:round;stroke-linejoin:round;stroke:rgb(100%,100%,100%);stroke-opacity:1;stroke-miterlimit:10;" d="M -1.375 18.996094 L 26.699219 23.175781 "/>
<path style="fill:none;stroke-width:6;stroke-linecap:round;stroke-linejoin:round;stroke:rgb(100%,100%,100%);stroke-opacity:1;stroke-miterlimit:10;" d="M 23.710938 63.476563 L 51.984375 67.621094 "/>
<path style="fill:none;stroke-width:6;stroke-linecap:round;stroke-linejoin:round;stroke:rgb(100%,100%,100%);stroke-opacity:1;stroke-miterlimit:10;" d="M 76.703125 143.515625 L 48.429688 139.308594 "/>
<path style="fill:none;stroke-width:6;stroke-linecap:round;stroke-linejoin:round;stroke:rgb(100%,100%,100%);stroke-opacity:1;stroke-miterlimit:10;" d="M 178.789063 28.347656 L 171.933594 56.4375 "/>
<path style="fill:none;stroke-width:6;stroke-linecap:round;stroke-linejoin:round;stroke:rgb(100%,100%,100%);stroke-opacity:1;stroke-miterlimit:10;" d="M 51.210938 72.679688 L 22.523438 68.378906 "/>
<path style="fill:none;stroke-width:6;stroke-linecap:round;stroke-linejoin:round;stroke:rgb(100%,100%,100%);stroke-opacity:1;stroke-miterlimit:10;" d="M 21.375 73.132813 L 50.445313 77.695313 "/>
<path style="fill:none;stroke-width:6;stroke-linecap:round;stroke-linejoin:round;stroke:rgb(100%,100%,100%);stroke-opacity:1;stroke-miterlimit:10;" d="M 18.804688 83.730469 L 48.839844 88.191406 "/>
<path style="fill:none;stroke-width:6;stroke-linecap:round;stroke-linejoin:round;stroke:rgb(100%,100%,100%);stroke-opacity:1;stroke-miterlimit:10;" d="M 80.203125 133.867188 L 49.867188 129.4375 "/>
<path style="fill:none;stroke-width:6;stroke-linecap:round;stroke-linejoin:round;stroke:rgb(100%,100%,100%);stroke-opacity:1;stroke-miterlimit:10;" d="M 17.578125 88.800781 L 48.078125 93.164063 "/>
<path style="fill:none;stroke-width:6;stroke-linecap:round;stroke-linejoin:round;stroke:rgb(100%,100%,100%);stroke-opacity:1;stroke-miterlimit:10;" d="M 55.707031 89.269531 L 86.34375 93.714844 "/>
<path style="fill:none;stroke-width:6;stroke-linecap:round;stroke-linejoin:round;stroke:rgb(100%,100%,100%);stroke-opacity:1;stroke-miterlimit:10;" d="M 16.378906 93.753906 L 47.3125 98.191406 "/>
<path style="fill:none;stroke-width:6;stroke-linecap:round;stroke-linejoin:round;stroke:rgb(100%,100%,100%);stroke-opacity:1;stroke-miterlimit:10;" d="M 50.613281 124.3125 L 81.640625 128.96875 "/>
<path style="fill:none;stroke-width:6;stroke-linecap:round;stroke-linejoin:round;stroke:rgb(100%,100%,100%);stroke-opacity:1;stroke-miterlimit:10;" d="M 15.210938 98.5625 L 46.542969 103.21875 "/>
<path style="fill:none;stroke-width:6;stroke-linecap:round;stroke-linejoin:round;stroke:rgb(100%,100%,100%);stroke-opacity:1;stroke-miterlimit:10;" d="M 82.828125 123.976563 L 51.339844 119.304688 "/>
<path style="fill:none;stroke-width:6;stroke-linecap:round;stroke-linejoin:round;stroke:rgb(100%,100%,100%);stroke-opacity:1;stroke-miterlimit:10;" d="M 172.644531 27.347656 L 166.707031 58.710938 "/>
<path style="fill:none;stroke-width:6;stroke-linecap:round;stroke-linejoin:round;stroke:rgb(100%,100%,100%);stroke-opacity:1;stroke-miterlimit:10;" d="M 86.644531 98.640625 L 54.992188 94.199219 "/>
<path style="fill:none;stroke-width:6;stroke-linecap:round;stroke-linejoin:round;stroke:rgb(100%,100%,100%);stroke-opacity:1;stroke-miterlimit:10;" d="M 52.050781 114.414063 L 83.972656 119.148438 "/>
<path style="fill:none;stroke-width:6;stroke-linecap:round;stroke-linejoin:round;stroke:rgb(100%,100%,100%);stroke-opacity:1;stroke-miterlimit:10;" d="M 12.871094 108.222656 L 44.996094 113.34375 "/>
<path style="fill:none;stroke-width:6;stroke-linecap:round;stroke-linejoin:round;stroke:rgb(100%,100%,100%);stroke-opacity:1;stroke-miterlimit:10;" d="M 88.140625 132.285156 L 82.527344 138.351563 L 81.105469 141.367188 L 79.199219 149.515625 L 77.398438 155.722656 L 76.285156 157.386719 L 74.726563 157.945313 L 73.339844 157.769531 L 72.464844 156.757813 "/>
<path style="fill:none;stroke-width:6;stroke-linecap:round;stroke-linejoin:round;stroke:rgb(100%,100%,100%);stroke-opacity:1;stroke-miterlimit:10;" d="M 11.613281 113.421875 L 44.25 118.210938 "/>
<path style="fill:none;stroke-width:6;stroke-linecap:round;stroke-linejoin:round;stroke:rgb(100%,100%,100%);stroke-opacity:1;stroke-miterlimit:10;" d="M 53.527344 104.257813 L 86.335938 109.195313 "/>
<path style="fill:none;stroke-width:6;stroke-linecap:round;stroke-linejoin:round;stroke:rgb(100%,100%,100%);stroke-opacity:1;stroke-miterlimit:10;" d="M 10.433594 118.28125 L 43.476563 123.273438 "/>
<path style="fill:none;stroke-width:6;stroke-linecap:round;stroke-linejoin:round;stroke:rgb(100%,100%,100%);stroke-opacity:1;stroke-miterlimit:10;" d="M 54.265625 99.191406 L 87.523438 104.191406 "/>
<path style="fill:none;stroke-width:6;stroke-linecap:round;stroke-linejoin:round;stroke:rgb(100%,100%,100%);stroke-opacity:1;stroke-miterlimit:10;" d="M 9.238281 123.214844 L 42.714844 128.265625 "/>
<path style="fill:none;stroke-width:6;stroke-linecap:round;stroke-linejoin:round;stroke:rgb(100%,100%,100%);stroke-opacity:1;stroke-miterlimit:10;" d="M 42.039063 132.699219 L 8.039063 128.171875 "/>
<path style="fill:none;stroke-width:6;stroke-linecap:round;stroke-linejoin:round;stroke:rgb(100%,100%,100%);stroke-opacity:1;stroke-miterlimit:10;" d="M 6.824219 133.175781 L 41.1875 138.265625 "/>
<path style="fill:none;stroke-width:6;stroke-linecap:round;stroke-linejoin:round;stroke:rgb(100%,100%,100%);stroke-opacity:1;stroke-miterlimit:10;" d="M 116.941406 92.847656 L 124.898438 58.921875 "/>
<path style="fill:none;stroke-width:6;stroke-linecap:round;stroke-linejoin:round;stroke:rgb(100%,100%,100%);stroke-opacity:1;stroke-miterlimit:10;" d="M 167.898438 26.574219 L 161.3125 61.0625 "/>
<path style="fill:none;stroke-width:6;stroke-linecap:round;stroke-linejoin:round;stroke:rgb(100%,100%,100%);stroke-opacity:1;stroke-miterlimit:10;" d="M 40.484375 142.839844 L 5.671875 137.933594 "/>
<path style="fill:none;stroke-width:6;stroke-linecap:round;stroke-linejoin:round;stroke:rgb(100%,100%,100%);stroke-opacity:1;stroke-miterlimit:10;" d="M 4.503906 142.753906 L 39.664063 148.214844 "/>
<path style="fill:none;stroke-width:6;stroke-linecap:round;stroke-linejoin:round;stroke:rgb(100%,100%,100%);stroke-opacity:1;stroke-miterlimit:10;" d="M 38.867188 153.421875 L 3.203125 148.117188 "/>
<path style="fill:none;stroke-width:6;stroke-linecap:round;stroke-linejoin:round;stroke:rgb(100%,100%,100%);stroke-opacity:1;stroke-miterlimit:10;" d="M 1.933594 153.363281 L 38.070313 158.636719 "/>
<path style="fill:none;stroke-width:6;stroke-linecap:round;stroke-linejoin:round;stroke:rgb(100%,100%,100%);stroke-opacity:1;stroke-miterlimit:10;" d="M 41.898438 133.589844 L 49.128906 134.515625 L 78.4375 138.738281 "/>
<path style="fill:none;stroke-width:6;stroke-linecap:round;stroke-linejoin:round;stroke:rgb(100%,100%,100%);stroke-opacity:1;stroke-miterlimit:10;" d="M 37.355469 163.3125 L 0.804688 158.023438 "/>
<path style="fill:none;stroke-width:6;stroke-linecap:round;stroke-linejoin:round;stroke:rgb(100%,100%,100%);stroke-opacity:1;stroke-miterlimit:10;" d="M -0.285156 162.519531 L 36.609375 168.207031 "/>
<path style="fill:none;stroke-width:6;stroke-linecap:round;stroke-linejoin:round;stroke:rgb(100%,100%,100%);stroke-opacity:1;stroke-miterlimit:10;" d="M 114.773438 56.582031 L 123.59375 19.992188 "/>
<path style="fill:none;stroke-width:6;stroke-linecap:round;stroke-linejoin:round;stroke:rgb(100%,100%,100%);stroke-opacity:1;stroke-miterlimit:10;" d="M 162.820313 25.75 L 155.503906 62.796875 "/>
<path style="fill:none;stroke-width:6;stroke-linecap:round;stroke-linejoin:round;stroke:rgb(100%,100%,100%);stroke-opacity:1;stroke-miterlimit:10;" d="M 133.425781 20.964844 L 124.898438 58.921875 "/>
<path style="fill:none;stroke-width:6;stroke-linecap:round;stroke-linejoin:round;stroke:rgb(100%,100%,100%);stroke-opacity:1;stroke-miterlimit:10;" d="M 130.140625 60.132813 L 138.128906 21.730469 "/>
<path style="fill:none;stroke-width:6;stroke-linecap:round;stroke-linejoin:round;stroke:rgb(100%,100%,100%);stroke-opacity:1;stroke-miterlimit:10;" d="M 134.832031 61.21875 L 143.230469 22.5625 "/>
<path style="fill:none;stroke-width:6;stroke-linecap:round;stroke-linejoin:round;stroke:rgb(100%,100%,100%);stroke-opacity:1;stroke-miterlimit:10;" d="M 147.914063 23.324219 L 139.839844 62.375 "/>
<path style="fill:none;stroke-width:6;stroke-linecap:round;stroke-linejoin:round;stroke:rgb(100%,100%,100%);stroke-opacity:1;stroke-miterlimit:10;" d="M 144.753906 63.511719 L 153.042969 24.15625 "/>
<path style="fill:none;stroke-width:6;stroke-linecap:round;stroke-linejoin:round;stroke:rgb(100%,100%,100%);stroke-opacity:1;stroke-miterlimit:10;" d="M 157.636719 24.90625 L 149.480469 64.601563 "/>
<path style="fill:none;stroke-width:6;stroke-linecap:round;stroke-linejoin:round;stroke:rgb(100%,100%,100%);stroke-opacity:1;stroke-miterlimit:10;" d="M 63.9375 60.742188 L 64.9375 56.144531 L 66.335938 54.941406 L 67.9375 54.542969 L 70.136719 54.941406 L 91.335938 58.144531 L 93.339844 58.941406 L 96.335938 62.34375 L 98.535156 63.34375 "/>
<path style="fill:none;stroke-width:6;stroke-linecap:round;stroke-linejoin:round;stroke:rgb(100%,100%,100%);stroke-opacity:1;stroke-miterlimit:10;" d="M 48.535156 15.585938 L 47.65625 18.125 L 45.746094 18.5 L 32.113281 16.683594 L 30.886719 17.027344 L 30.003906 18.300781 L 27.453125 38.808594 "/>
<path style="fill:none;stroke-width:6;stroke-linecap:round;stroke-linejoin:round;stroke:rgb(100%,100%,100%);stroke-opacity:1;stroke-miterlimit:10;" d="M 200.074219 168.902344 L 201.71875 166.652344 L 224.117188 156.65625 L 227.316406 156.253906 L 229.917969 156.253906 L 232.71875 157.851563 L 235.117188 160.054688 L 237.71875 162.253906 L 240.574219 164.347656 "/>
<path style="fill:none;stroke-width:6;stroke-linecap:round;stroke-linejoin:round;stroke:rgb(100%,100%,100%);stroke-opacity:1;stroke-miterlimit:10;" d="M 202.875 194.6875 L 197.992188 202.417969 L 175.128906 239.636719 "/>
<path style="fill:none;stroke-width:6;stroke-linecap:round;stroke-linejoin:round;stroke:rgb(100%,100%,100%);stroke-opacity:1;stroke-miterlimit:10;" d="M 53.917969 54.96875 L 25.632813 50.816406 L -5.53125 46.292969 "/>
<path style="fill:none;stroke-width:6;stroke-linecap:round;stroke-linejoin:round;stroke:rgb(100%,100%,100%);stroke-opacity:1;stroke-miterlimit:10;" d="M -4.703125 40.847656 L 26.472656 45.292969 L 54.789063 49.277344 "/>
<path style="fill:none;stroke-width:6;stroke-linecap:round;stroke-linejoin:round;stroke:rgb(100%,100%,100%);stroke-opacity:1;stroke-miterlimit:10;" d="M 57.632813 76.03125 L 77.265625 79.410156 L 91.046875 81.667969 L 92.273438 82.550781 L 93.253906 84.21875 L 93.648438 85.785156 L 93.355469 87.453125 L 89.183594 95.058594 L 88.988281 96.671875 L 89.285156 98.292969 L 90.117188 99.375 L 92.125 100.5 L 96.574219 101.945313 "/>
<path style="fill:none;stroke-width:6;stroke-linecap:round;stroke-linejoin:round;stroke:rgb(100%,100%,100%);stroke-opacity:1;stroke-miterlimit:10;" d="M 164.132813 150.964844 L 187.351563 140.53125 L 222.785156 124.609375 "/>
<path style="fill:none;stroke-width:6;stroke-linecap:round;stroke-linejoin:round;stroke:rgb(100%,100%,100%);stroke-opacity:1;stroke-miterlimit:10;" d="M 211.664063 99.300781 L 219.765625 95.554688 L 221.703125 95.417969 L 223.230469 95.417969 L 238.351563 97.011719 L 239.671875 97.84375 L 240.296875 99.160156 L 238.28125 121.566406 L 222.785156 124.609375 "/>
<path style="fill:none;stroke-width:6;stroke-linecap:round;stroke-linejoin:round;stroke:rgb(100%,100%,100%);stroke-opacity:1;stroke-miterlimit:10;" d="M 102.058594 44.3125 L 63.027344 38.546875 L 31.613281 33.902344 "/>
<path style="fill:none;stroke-width:6;stroke-linecap:round;stroke-linejoin:round;stroke:rgb(100%,100%,100%);stroke-opacity:1;stroke-miterlimit:10;" d="M 32.421875 28.886719 L 63.730469 33.496094 L 103.203125 39.300781 "/>
<path style="fill:none;stroke-width:6;stroke-linecap:round;stroke-linejoin:round;stroke:rgb(100%,100%,100%);stroke-opacity:1;stroke-miterlimit:10;" d="M 104.382813 34.148438 L 64.433594 28.453125 L 33.207031 24 "/>
<path style="fill:none;stroke-width:6;stroke-linecap:round;stroke-linejoin:round;stroke:rgb(100%,100%,100%);stroke-opacity:1;stroke-miterlimit:10;" d="M 14.027344 103.453125 L 45.78125 108.222656 L 52.796875 109.277344 L 85.160156 114.140625 "/>
<path style="fill:none;stroke-width:6;stroke-linecap:round;stroke-linejoin:round;stroke:rgb(100%,100%,100%);stroke-opacity:1;stroke-miterlimit:10;" d="M 128.679688 20.195313 L 119.9375 57.773438 L 110.453125 96.234375 "/>
<path style="fill:none;stroke-width:6;stroke-linecap:round;stroke-linejoin:round;stroke:rgb(100%,100%,100%);stroke-opacity:1;stroke-miterlimit:10;" d="M 103.527344 81.410156 L 101.9375 78.144531 L 100.761719 77.445313 L 99.136719 76.742188 L 66.9375 71.941406 L 64.9375 70.945313 L 63.136719 69.144531 L 62.734375 67.34375 L 63.9375 60.742188 L 65.335938 59.140625 L 66.738281 58.742188 L 70.136719 59.34375 L 98.535156 63.34375 L 103.960938 64.046875 L 106.136719 63.945313 L 107.335938 63.140625 L 108.738281 60.34375 "/>
<path style="fill:none;stroke-width:6;stroke-linecap:round;stroke-linejoin:round;stroke:rgb(100%,100%,100%);stroke-opacity:1;stroke-miterlimit:10;" d="M 252.425781 120.742188 L 253.855469 124.207031 L 264 130.09375 "/>
<path style="fill:none;stroke-width:6;stroke-linecap:round;stroke-linejoin:round;stroke:rgb(100%,100%,100%);stroke-opacity:1;stroke-miterlimit:10;" d="M -3.738281 34.507813 L 24.214844 38.59375 L 27.453125 38.808594 L 30.75 39.28125 L 55.765625 42.878906 L 62.238281 43.964844 L 100.914063 49.375 "/>
<path style="fill:none;stroke-width:6;stroke-linecap:round;stroke-linejoin:round;stroke:rgb(100%,100%,100%);stroke-opacity:1;stroke-miterlimit:10;" d="M 192.394531 199.039063 L 197.992188 202.417969 L 264 242.265625 "/>
<path style="fill:none;stroke-width:6;stroke-linecap:round;stroke-linejoin:round;stroke:rgb(100%,100%,100%);stroke-opacity:1;stroke-miterlimit:10;" d="M 55.765625 42.878906 L 54.789063 49.277344 L 53.917969 54.96875 L 51.984375 67.621094 L 51.210938 72.679688 L 50.445313 77.695313 L 49.667969 82.777344 L 48.839844 88.191406 L 48.078125 93.164063 L 47.3125 98.191406 L 46.542969 103.21875 L 45.78125 108.222656 L 44.996094 113.34375 L 44.25 118.210938 L 43.476563 123.273438 L 42.714844 128.265625 L 42.039063 132.699219 L 41.1875 138.265625 L 40.484375 142.839844 L 39.664063 148.214844 L 38.867188 153.421875 L 38.070313 158.636719 L 37.355469 163.3125 L 36.609375 168.207031 L 35.804688 173.46875 "/>
<path style="fill:none;stroke-width:6;stroke-linecap:round;stroke-linejoin:round;stroke:rgb(100%,100%,100%);stroke-opacity:1;stroke-miterlimit:10;" d="M 30.75 39.28125 L 31.613281 33.902344 L 32.421875 28.886719 L 33.207031 24 L 33.703125 20.902344 L 43.480469 21.664063 L 49.515625 21.457031 L 52.292969 21.597656 L 65.121094 23.519531 L 90.714844 27.355469 L 95.570313 29.226563 L 101.535156 30.195313 L 103.132813 30.890625 L 104.171875 32.207031 L 104.382813 34.148438 L 103.203125 39.300781 L 102.058594 44.3125 L 100.914063 49.375 L 100.007813 53.292969 L 99.246094 53.988281 L 97.652344 53.988281 L 61.65625 48.371094 "/>
<path style="fill:none;stroke-width:6;stroke-linecap:round;stroke-linejoin:round;stroke:rgb(100%,100%,100%);stroke-opacity:1;stroke-miterlimit:10;" d="M 65.121094 23.519531 L 64.433594 28.453125 L 63.730469 33.496094 L 63.027344 38.546875 L 62.238281 43.964844 L 61.65625 48.371094 L 57.632813 76.03125 L 56.5 83.839844 L 55.707031 89.269531 L 54.992188 94.199219 L 54.265625 99.191406 L 53.527344 104.257813 L 52.796875 109.277344 L 52.050781 114.414063 L 51.339844 119.304688 L 50.613281 124.3125 L 49.867188 129.4375 L 49.128906 134.515625 L 48.429688 139.308594 L 47.738281 144.074219 L 46.984375 149.257813 L 46.222656 154.507813 L 45.5 159.472656 L 44.6875 165.019531 L 43.976563 169.839844 L 43.292969 174.507813 "/>
<path style="fill:none;stroke-width:6;stroke-linecap:round;stroke-linejoin:round;stroke:rgb(100%,100%,100%);stroke-opacity:1;stroke-miterlimit:10;" d="M 20.148438 78.191406 L 49.667969 82.777344 L 56.5 83.839844 L 83.917969 88.097656 L 85.027344 88.585938 L 86 89.972656 L 86.34375 91.425781 L 86.34375 96.285156 L 86.644531 98.640625 L 87.59375 101.902344 L 87.523438 104.191406 L 86.335938 109.195313 L 85.160156 114.140625 L 83.972656 119.148438 L 82.828125 123.976563 L 81.640625 128.96875 L 81.003906 131.65625 L 80.203125 133.867188 L 78.4375 138.738281 L 76.703125 143.515625 L 75.683594 148.402344 L 74.621094 153.503906 L 73.511719 155.863281 L 72.464844 156.757813 L 71.640625 157.457031 L 68.933594 157.875 L 46.222656 154.507813 L 38.867188 153.421875 "/>
<path style="fill:none;stroke-width:6;stroke-linecap:round;stroke-linejoin:round;stroke:rgb(100%,100%,100%);stroke-opacity:1;stroke-miterlimit:10;" d="M 264 222.167969 L 213.550781 192.707031 L 210.398438 192.421875 L 206.953125 192.996094 L 202.875 194.6875 L 192.394531 199.039063 L 160.023438 213.925781 L 157.921875 213.828125 L 155.4375 212.492188 L 143.679688 206.664063 L 142.152344 206.664063 L 136.515625 214.59375 "/>
<path style="fill:none;stroke-width:6;stroke-linecap:round;stroke-linejoin:round;stroke:rgb(100%,100%,100%);stroke-opacity:1;stroke-miterlimit:10;" d="M -9 61.535156 L -7.519531 59.339844 L -5.636719 49.433594 L -5.53125 46.292969 L -4.703125 40.847656 L -4.441406 39.125 L -3.738281 34.507813 L -3.367188 31.777344 L -2.890625 28.945313 L -2.109375 23.820313 L -1.675781 20.960938 L -1.375 18.996094 L -0.503906 13.285156 L 26.761719 17.652344 L 27.449219 18.53125 L 26.699219 23.175781 L 25.925781 27.980469 L 25.117188 32.984375 L 24.214844 38.59375 "/>
<path style="fill:none;stroke-width:6;stroke-linecap:round;stroke-linejoin:round;stroke:rgb(100%,100%,100%);stroke-opacity:1;stroke-miterlimit:10;" d="M 113.972656 29.34375 L 103.230469 27.789063 L 101.863281 27.621094 L 93.429688 25.1875 L 88.03125 22.789063 L 82.429688 21.390625 L 48.535156 15.585938 L 2.816406 8.046875 L -9 6.085938 "/>
<path style="fill:none;stroke-width:6;stroke-linecap:round;stroke-linejoin:round;stroke:rgb(100%,100%,100%);stroke-opacity:1;stroke-miterlimit:10;" d="M 45.5 159.472656 L 71.292969 163.839844 L 72.125 164.808594 L 72.542969 166.75 L 71.917969 169.335938 L 70.796875 174.007813 L 70.324219 175.976563 L 68.867188 177.78125 L 67.476563 178.265625 L 43.292969 174.507813 L 35.804688 173.46875 L 2.003906 168.347656 L 0.894531 167.238281 L -0.0078125 165.085938 L -0.285156 162.519531 L 0.804688 158.023438 L 1.933594 153.363281 L 3.203125 148.117188 L 4.503906 142.753906 L 5.671875 137.933594 L 6.824219 133.175781 L 8.039063 128.171875 L 9.238281 123.214844 L 10.433594 118.28125 L 11.613281 113.421875 L 12.871094 108.222656 L 14.027344 103.453125 L 15.210938 98.5625 L 16.378906 93.753906 L 17.578125 88.800781 L 18.804688 83.730469 L 20.148438 78.191406 L 21.375 73.132813 L 22.523438 68.378906 L 23.710938 63.476563 L 25.632813 50.816406 L 26.472656 45.292969 L 27.453125 38.808594 "/>
<path style="fill:none;stroke-width:6;stroke-linecap:round;stroke-linejoin:round;stroke:rgb(100%,100%,100%);stroke-opacity:1;stroke-miterlimit:10;" d="M 229.917969 156.253906 L 230.886719 143.046875 L 222.785156 124.609375 L 211.664063 99.300781 L 179.933594 113.230469 L 176.695313 116.710938 L 155.3125 126.375 L 154.28125 127.894531 L 154.476563 128.921875 L 158.742188 139.222656 L 141.996094 146.679688 L 140.78125 147.714844 L 139.671875 149.242188 L 138.769531 151.148438 L 131.417969 175.011719 L 131.347656 176.675781 L 131.695313 178.164063 L 132.355469 179.554688 L 133.429688 180.492188 L 143.207031 185.96875 L 145.253906 185.898438 L 146.363281 185.066406 L 168.105469 167.148438 L 168.9375 165.433594 L 169.28125 163.472656 L 168.988281 161.558594 L 164.132813 150.964844 L 158.742188 139.222656 "/>
<path style="fill:none;stroke-width:6;stroke-linecap:round;stroke-linejoin:round;stroke:rgb(100%,100%,100%);stroke-opacity:1;stroke-miterlimit:10;" d="M 116.417969 17.808594 L 123.59375 19.992188 L 126.414063 19.824219 L 128.679688 20.195313 L 133.425781 20.964844 L 138.128906 21.730469 L 143.230469 22.5625 L 147.914063 23.324219 L 153.042969 24.15625 L 157.636719 24.90625 L 162.820313 25.75 L 167.898438 26.574219 L 172.644531 27.347656 L 178.789063 28.347656 L 183.644531 29.371094 L 188.523438 30.394531 L 190.375 29.839844 L 193.867188 30.378906 L 199.585938 31.253906 L 197.097656 42.5625 L 190.335938 46.574219 L 184.421875 49.929688 L 178.328125 53.386719 L 176.300781 54.535156 L 171.933594 56.4375 L 166.707031 58.710938 L 161.3125 61.0625 L 155.503906 62.796875 L 149.480469 64.601563 L 144.753906 63.511719 L 139.839844 62.375 L 134.832031 61.21875 L 130.140625 60.132813 L 124.898438 58.921875 L 119.9375 57.773438 L 114.773438 56.582031 L 105.757813 94.136719 L 105.980469 95.1875 L 110.453125 96.234375 L 116.941406 92.847656 L 123.25 89.558594 L 128.953125 86.582031 L 129.78125 85.753906 L 130.390625 84.925781 L 131.164063 82.710938 L 131.386719 81.160156 L 131.304688 79.1875 L 131.148438 78.179688 L 130.648438 76.175781 L 130.257813 74.367188 L 129.53125 71.839844 L 128.953125 69.625 L 129.007813 66.996094 L 129.203125 64.703125 L 130.140625 60.132813 "/>
<path style="fill:none;stroke-width:6;stroke-linecap:round;stroke-linejoin:round;stroke:rgb(100%,100%,100%);stroke-opacity:1;stroke-miterlimit:10;" d="M 238.28125 121.566406 L 252.425781 120.742188 L 264 121.378906 M 264 162.5625 L 253.832031 156.570313 L 230.886719 143.046875 "/>
<path style="fill:none;stroke-width:6;stroke-linecap:round;stroke-linejoin:round;stroke:rgb(100%,100%,100%);stroke-opacity:1;stroke-miterlimit:10;" d="M 116.890625 264 L 116.585938 260.371094 L 116.988281 254.773438 L 121.585938 229.96875 L 125.917969 205.851563 L 127.117188 202.855469 L 129.117188 200.253906 L 132.71875 198.054688 L 136.519531 197.253906 L 140.519531 197.855469 L 144.71875 199.855469 L 153.917969 205.253906 L 157.519531 206.453125 L 162.316406 206.65625 L 166.71875 205.851563 L 198.917969 191.453125 L 201.316406 189.054688 L 202.519531 186.453125 L 202.917969 183.050781 L 201.917969 179.65625 L 199.71875 174.453125 L 199.519531 170.855469 L 200.074219 168.902344 "/>
<path style="fill:none;stroke-width:8;stroke-linecap:round;stroke-linejoin:round;stroke:rgb(99.215686%,57.254902%,22.745098%);stroke-opacity:1;stroke-miterlimit:10;" d="M 92.460938 11.011719 L 113.222656 11.453125 L 117.570313 12.347656 "/>
<path style="fill:none;stroke-width:8;stroke-linecap:round;stroke-linejoin:round;stroke:rgb(99.215686%,57.254902%,22.745098%);stroke-opacity:1;stroke-miterlimit:10;" d="M 39.703125 -4.121094 L 44.625 -0.5 L 50.585938 2.210938 L 56.699219 4.515625 L 63.855469 5.972656 L 82.84375 9.375 L 92.460938 11.011719 "/>
<path style="fill:none;stroke-width:8;stroke-linecap:round;stroke-linejoin:round;stroke:rgb(99.215686%,57.254902%,22.745098%);stroke-opacity:1;stroke-miterlimit:10;" d="M 33.90625 -7.601563 L 39.703125 -4.121094 L 47.351563 -0.949219 L 55.113281 1.417969 L 60.085938 2.28125 L 64.9375 2.679688 L 71.667969 2.679688 L 90.878906 1.429688 L 98.023438 1.152344 L 105.792969 1.359375 L 113.789063 1.894531 "/>
<path style="fill:none;stroke-width:8;stroke-linecap:round;stroke-linejoin:round;stroke:rgb(99.215686%,57.254902%,22.745098%);stroke-opacity:1;stroke-miterlimit:10;" d="M -11 -4.414063 L -7.226563 -2.855469 L 4.171875 1.144531 L 13.726563 3.507813 L 26.457031 6.652344 L 37.949219 8.847656 L 53.351563 10.449219 L 64.613281 10.820313 L 92.460938 11.011719 "/>
<path style="fill:none;stroke-width:8;stroke-linecap:round;stroke-linejoin:round;stroke:rgb(99.215686%,57.254902%,22.745098%);stroke-opacity:1;stroke-miterlimit:10;" d="M 117.570313 12.347656 L 245.574219 31.34375 L 255.574219 33.34375 L 264.574219 35.542969 L 266 35.933594 "/>
<path style="fill:none;stroke-width:6;stroke-linecap:round;stroke-linejoin:round;stroke:rgb(100%,100%,100%);stroke-opacity:1;stroke-miterlimit:10;" d="M 117.570313 12.347656 L 116.417969 17.808594 L 113.972656 29.34375 "/>
<path style="fill:none;stroke-width:6;stroke-linecap:round;stroke-linejoin:round;stroke:rgb(100%,100%,100%);stroke-opacity:1;stroke-miterlimit:10;" d="M 113.972656 29.34375 L 112.359375 32.449219 L 110.558594 36.046875 L 103.960938 64.046875 L 100.761719 77.445313 L 96.960938 93.449219 L 96.5625 97.246094 L 96.574219 101.945313 "/>
<path style="fill:none;stroke-width:6;stroke-linecap:round;stroke-linejoin:round;stroke:rgb(100%,100%,100%);stroke-opacity:1;stroke-miterlimit:10;" d="M 96.574219 101.945313 L 98.960938 97.847656 L 100.359375 94.246094 L 103.527344 81.410156 L 104.359375 78.046875 L 108.738281 60.34375 L 114.160156 36.449219 L 114.359375 33.246094 L 113.972656 29.34375 "/>
<path style="fill:none;stroke-width:6;stroke-linecap:round;stroke-linejoin:round;stroke:rgb(100%,100%,100%);stroke-opacity:1;stroke-miterlimit:10;" d="M 96.574219 101.945313 L 92.171875 116.945313 L 88.140625 132.285156 L 77.289063 180.890625 "/>
<path style="fill:none;stroke-width:6;stroke-linecap:round;stroke-linejoin:round;stroke:rgb(100%,100%,100%);stroke-opacity:1;stroke-miterlimit:10;" d="M 264 178.226563 L 240.574219 164.347656 "/>
<path style="fill:none;stroke-width:6;stroke-linecap:round;stroke-linejoin:round;stroke:rgb(100%,100%,100%);stroke-opacity:1;stroke-miterlimit:10;" d="M 96.574219 101.945313 L 102.574219 103.144531 L 106.574219 103.746094 L 110.972656 103.144531 L 114.773438 101.34375 L 140.558594 87.644531 L 202.972656 54.144531 L 207.574219 51.945313 L 213.371094 50.945313 L 218.773438 51.347656 L 264 62.21875 "/>
<path style="fill:none;stroke-width:7;stroke-linecap:round;stroke-linejoin:round;stroke:rgb(100%,99.215686%,54.509804%);stroke-opacity:1;stroke-miterlimit:10;" d="M 122.414063 -10 L 117.570313 12.347656 "/>
<path style="fill:none;stroke-width:9;stroke-linecap:round;stroke-linejoin:round;stroke:rgb(99.215686%,57.254902%,22.745098%);stroke-opacity:1;stroke-miterlimit:10;" d="M 50.386719 -12 L 98.160156 -2.59375 L 114 0.695313 "/>
<path style="fill:none;stroke-width:9;stroke-linecap:round;stroke-linejoin:round;stroke:rgb(99.215686%,57.254902%,22.745098%);stroke-opacity:1;stroke-miterlimit:10;" d="M 128.632813 3.847656 L 267 26.394531 "/>
<path style="fill:none;stroke-width:10;stroke-linecap:butt;stroke-linejoin:round;stroke:rgb(53.333333%,53.333333%,53.333333%);stroke-opacity:1;stroke-miterlimit:10;" d="M 113.789063 1.894531 L 122.785156 2.585938 "/>
<path style="fill:none;stroke-width:11;stroke-linecap:butt;stroke-linejoin:round;stroke:rgb(53.333333%,53.333333%,53.333333%);stroke-opacity:1;stroke-miterlimit:10;" d="M 122.785156 2.585938 L 128.632813 3.847656 "/>
<path style="fill:none;stroke-width:11;stroke-linecap:butt;stroke-linejoin:round;stroke:rgb(53.333333%,53.333333%,53.333333%);stroke-opacity:1;stroke-miterlimit:10;" d="M 114 0.695313 L 122.785156 2.585938 "/>
<path style="fill:none;stroke-width:8;stroke-linecap:round;stroke-linejoin:round;stroke:rgb(99.215686%,57.254902%,22.745098%);stroke-opacity:1;stroke-miterlimit:10;" d="M 113.789063 1.894531 L 122.785156 2.585938 "/>
<path style="fill:none;stroke-width:9;stroke-linecap:round;stroke-linejoin:round;stroke:rgb(99.215686%,57.254902%,22.745098%);stroke-opacity:1;stroke-miterlimit:10;" d="M 122.785156 2.585938 L 128.632813 3.847656 "/>
<path style="fill:none;stroke-width:9;stroke-linecap:round;stroke-linejoin:round;stroke:rgb(99.215686%,57.254902%,22.745098%);stroke-opacity:1;stroke-miterlimit:10;" d="M 114 0.695313 L 122.785156 2.585938 "/>
<path style="fill:none;stroke-width:3;stroke-linecap:round;stroke-linejoin:round;stroke:rgb(100%,100%,100%);stroke-opacity:1;stroke-miterlimit:10;" d="M 149.375 79.359375 L 150.8125 82.015625 L 151.890625 81.4375 C 152.296875 81.21875 152.539063 80.933594 152.625 80.578125 C 152.71875 80.226563 152.65625 79.839844 152.4375 79.421875 C 152.207031 78.996094 151.921875 78.730469 151.578125 78.625 C 151.234375 78.511719 150.859375 78.5625 150.453125 78.78125 Z M 148.09375 79.046875 L 150.03125 78 C 150.75 77.617188 151.382813 77.507813 151.9375 77.671875 C 152.488281 77.839844 152.953125 78.265625 153.328125 78.953125 C 153.703125 79.652344 153.804688 80.277344 153.640625 80.828125 C 153.472656 81.371094 153.03125 81.835938 152.3125 82.21875 L 151.234375 82.796875 L 152.75 85.640625 L 151.890625 86.109375 Z M 157.835938 79.460938 C 157.199219 79.804688 156.804688 80.128906 156.648438 80.429688 C 156.5 80.722656 156.53125 81.0625 156.742188 81.445313 C 156.90625 81.75 157.132813 81.941406 157.414063 82.023438 C 157.695313 82.109375 157.992188 82.066406 158.304688 81.898438 C 158.742188 81.660156 158.996094 81.300781 159.070313 80.820313 C 159.140625 80.332031 159.027344 79.804688 158.726563 79.242188 L 158.617188 79.039063 Z M 159.226563 78.257813 L 160.851563 81.289063 L 160.054688 81.710938 L 159.632813 80.914063 C 159.621094 81.34375 159.523438 81.703125 159.335938 81.992188 C 159.15625 82.285156 158.875 82.535156 158.492188 82.742188 C 158 83.003906 157.527344 83.0625 157.070313 82.914063 C 156.621094 82.769531 156.257813 82.4375 155.976563 81.914063 C 155.65625 81.320313 155.59375 80.78125 155.789063 80.289063 C 155.988281 79.789063 156.445313 79.347656 157.164063 78.960938 L 158.257813 78.367188 L 158.210938 78.289063 C 157.992188 77.882813 157.703125 77.640625 157.351563 77.554688 C 157.007813 77.460938 156.617188 77.53125 156.179688 77.757813 C 155.921875 77.90625 155.675781 78.085938 155.445313 78.304688 C 155.21875 78.515625 155.03125 78.753906 154.882813 79.023438 L 154.445313 78.226563 C 154.675781 77.9375 154.910156 77.691406 155.148438 77.492188 C 155.378906 77.296875 155.617188 77.125 155.867188 76.976563 C 156.5625 76.613281 157.1875 76.535156 157.742188 76.742188 C 158.292969 76.953125 158.789063 77.457031 159.226563 78.257813 Z M 164.710938 75.109375 L 166.429688 78.296875 L 165.632813 78.71875 L 163.929688 75.546875 C 163.65625 75.046875 163.367188 74.726563 163.054688 74.578125 C 162.75 74.421875 162.429688 74.4375 162.085938 74.625 C 161.65625 74.855469 161.40625 75.1875 161.320313 75.625 C 161.226563 76.054688 161.320313 76.523438 161.601563 77.03125 L 163.210938 80.03125 L 162.414063 80.453125 L 159.570313 75.15625 L 160.367188 74.734375 L 160.804688 75.5625 C 160.828125 75.136719 160.921875 74.777344 161.085938 74.484375 C 161.253906 74.195313 161.507813 73.960938 161.851563 73.78125 C 162.390625 73.492188 162.902344 73.453125 163.382813 73.671875 C 163.871094 73.890625 164.3125 74.371094 164.710938 75.109375 Z M 169.636719 68.683594 L 170.355469 72.839844 L 172.699219 71.574219 Z M 168.621094 68.011719 L 169.605469 67.496094 L 175.824219 73.261719 L 174.933594 73.730469 L 173.386719 72.230469 L 170.527344 73.777344 L 170.917969 75.886719 L 169.996094 76.386719 Z M 178.128906 66.5 C 178.117188 66 178.195313 65.589844 178.363281 65.265625 C 178.539063 64.933594 178.808594 64.667969 179.175781 64.46875 C 179.683594 64.199219 180.175781 64.1875 180.644531 64.4375 C 181.113281 64.679688 181.539063 65.15625 181.925781 65.875 L 183.644531 69.0625 L 182.863281 69.484375 L 181.160156 66.3125 C 180.886719 65.804688 180.605469 65.46875 180.316406 65.3125 C 180.023438 65.148438 179.710938 65.152344 179.378906 65.328125 C 178.980469 65.546875 178.742188 65.875 178.660156 66.3125 C 178.574219 66.742188 178.675781 67.210938 178.957031 67.71875 L 180.566406 70.71875 L 179.769531 71.140625 L 178.066406 67.96875 C 177.792969 67.460938 177.511719 67.125 177.222656 66.96875 C 176.929688 66.8125 176.617188 66.824219 176.285156 67 C 175.878906 67.210938 175.640625 67.53125 175.566406 67.96875 C 175.484375 68.398438 175.582031 68.867188 175.863281 69.375 L 177.472656 72.375 L 176.675781 72.796875 L 173.832031 67.5 L 174.628906 67.078125 L 175.066406 67.90625 C 175.066406 67.480469 175.15625 67.125 175.332031 66.84375 C 175.511719 66.554688 175.765625 66.3125 176.097656 66.125 C 176.449219 65.9375 176.800781 65.875 177.144531 65.9375 C 177.488281 66 177.816406 66.1875 178.128906 66.5 Z M 189.25 61.785156 C 189.46875 61.765625 189.722656 61.824219 190.015625 61.957031 C 190.316406 62.082031 190.664063 62.296875 191.0625 62.597656 L 192.96875 64.050781 L 192.046875 64.550781 L 190.265625 63.175781 C 189.796875 62.824219 189.421875 62.621094 189.140625 62.566406 C 188.859375 62.515625 188.546875 62.582031 188.203125 62.769531 L 187.265625 63.269531 L 188.875 66.253906 L 188.015625 66.722656 L 184.21875 59.660156 L 186.15625 58.613281 C 186.886719 58.21875 187.515625 58.09375 188.046875 58.238281 C 188.585938 58.386719 189.039063 58.800781 189.40625 59.488281 C 189.644531 59.9375 189.75 60.359375 189.71875 60.753906 C 189.695313 61.140625 189.539063 61.484375 189.25 61.785156 Z M 185.5 59.972656 L 186.84375 62.488281 L 187.921875 61.910156 C 188.335938 61.683594 188.597656 61.40625 188.703125 61.082031 C 188.804688 60.75 188.742188 60.375 188.515625 59.957031 C 188.296875 59.550781 188.019531 59.300781 187.6875 59.207031 C 187.363281 59.105469 186.996094 59.167969 186.578125 59.394531 Z M 193.371094 57.796875 C 192.945313 58.027344 192.710938 58.390625 192.667969 58.890625 C 192.628906 59.382813 192.773438 59.945313 193.105469 60.578125 C 193.449219 61.214844 193.832031 61.648438 194.261719 61.875 C 194.699219 62.105469 195.128906 62.105469 195.558594 61.875 C 195.972656 61.648438 196.207031 61.289063 196.261719 60.796875 C 196.3125 60.308594 196.167969 59.746094 195.824219 59.109375 C 195.488281 58.476563 195.097656 58.042969 194.652344 57.8125 C 194.214844 57.574219 193.785156 57.570313 193.371094 57.796875 Z M 192.980469 57.0625 C 193.65625 56.699219 194.316406 56.65625 194.964844 56.9375 C 195.621094 57.21875 196.183594 57.796875 196.652344 58.671875 C 197.121094 59.539063 197.292969 60.324219 197.167969 61.03125 C 197.042969 61.730469 196.640625 62.261719 195.964844 62.625 C 195.277344 63 194.605469 63.042969 193.949219 62.75 C 193.300781 62.460938 192.746094 61.882813 192.277344 61.015625 C 191.808594 60.140625 191.636719 59.359375 191.761719 58.671875 C 191.886719 57.976563 192.292969 57.4375 192.980469 57.0625 Z M 200.089844 56.78125 C 199.453125 57.125 199.058594 57.449219 198.902344 57.75 C 198.753906 58.042969 198.785156 58.382813 198.996094 58.765625 C 199.160156 59.070313 199.386719 59.261719 199.667969 59.34375 C 199.949219 59.429688 200.246094 59.386719 200.558594 59.21875 C 200.996094 58.980469 201.25 58.621094 201.324219 58.140625 C 201.394531 57.652344 201.28125 57.125 200.980469 56.5625 L 200.871094 56.359375 Z M 201.480469 55.578125 L 203.105469 58.609375 L 202.308594 59.03125 L 201.886719 58.234375 C 201.875 58.664063 201.777344 59.023438 201.589844 59.3125 C 201.410156 59.605469 201.128906 59.855469 200.746094 60.0625 C 200.253906 60.324219 199.78125 60.382813 199.324219 60.234375 C 198.875 60.089844 198.511719 59.757813 198.230469 59.234375 C 197.910156 58.640625 197.847656 58.101563 198.042969 57.609375 C 198.242188 57.109375 198.699219 56.667969 199.417969 56.28125 L 200.511719 55.6875 L 200.464844 55.609375 C 200.246094 55.203125 199.957031 54.960938 199.605469 54.875 C 199.261719 54.78125 198.871094 54.851563 198.433594 55.078125 C 198.175781 55.226563 197.929688 55.40625 197.699219 55.625 C 197.472656 55.835938 197.285156 56.074219 197.136719 56.34375 L 196.699219 55.546875 C 196.929688 55.257813 197.164063 55.011719 197.402344 54.8125 C 197.632813 54.617188 197.871094 54.445313 198.121094 54.296875 C 198.816406 53.933594 199.441406 53.855469 199.996094 54.0625 C 200.546875 54.273438 201.042969 54.777344 201.480469 55.578125 Z M 205.546875 51.707031 L 204.140625 48.785156 L 204.9375 48.410156 L 208.578125 55.925781 L 207.78125 56.300781 L 207.390625 55.488281 C 207.378906 55.894531 207.28125 56.238281 207.09375 56.519531 C 206.90625 56.800781 206.632813 57.03125 206.28125 57.207031 C 205.695313 57.488281 205.09375 57.464844 204.46875 57.128906 C 203.84375 56.785156 203.324219 56.1875 202.90625 55.332031 C 202.5 54.480469 202.359375 53.703125 202.484375 53.003906 C 202.601563 52.296875 202.949219 51.800781 203.53125 51.519531 C 203.882813 51.34375 204.226563 51.269531 204.5625 51.300781 C 204.90625 51.332031 205.234375 51.46875 205.546875 51.707031 Z M 203.75 54.925781 C 204.070313 55.582031 204.4375 56.042969 204.84375 56.300781 C 205.257813 56.550781 205.679688 56.574219 206.109375 56.363281 C 206.535156 56.15625 206.78125 55.808594 206.84375 55.316406 C 206.914063 54.828125 206.789063 54.253906 206.46875 53.597656 C 206.15625 52.941406 205.785156 52.488281 205.359375 52.238281 C 204.929688 51.988281 204.503906 51.96875 204.078125 52.175781 C 203.652344 52.386719 203.414063 52.734375 203.359375 53.222656 C 203.308594 53.703125 203.4375 54.269531 203.75 54.925781 Z M 203.75 54.925781 "/>
<path style=" stroke:none;fill-rule:evenodd;fill:rgb(20%,20%,20%);fill-opacity:1;" d="M 149.375 79.359375 L 150.8125 82.015625 L 151.890625 81.4375 C 152.296875 81.21875 152.539063 80.933594 152.625 80.578125 C 152.71875 80.226563 152.65625 79.839844 152.4375 79.421875 C 152.207031 78.996094 151.921875 78.730469 151.578125 78.625 C 151.234375 78.511719 150.859375 78.5625 150.453125 78.78125 Z M 148.09375 79.046875 L 150.03125 78 C 150.75 77.617188 151.382813 77.507813 151.9375 77.671875 C 152.488281 77.839844 152.953125 78.265625 153.328125 78.953125 C 153.703125 79.652344 153.804688 80.277344 153.640625 80.828125 C 153.472656 81.371094 153.03125 81.835938 152.3125 82.21875 L 151.234375 82.796875 L 152.75 85.640625 L 151.890625 86.109375 Z M 157.835938 79.460938 C 157.199219 79.804688 156.804688 80.128906 156.648438 80.429688 C 156.5 80.722656 156.53125 81.0625 156.742188 81.445313 C 156.90625 81.75 157.132813 81.941406 157.414063 82.023438 C 157.695313 82.109375 157.992188 82.066406 158.304688 81.898438 C 158.742188 81.660156 158.996094 81.300781 159.070313 80.820313 C 159.140625 80.332031 159.027344 79.804688 158.726563 79.242188 L 158.617188 79.039063 Z M 159.226563 78.257813 L 160.851563 81.289063 L 160.054688 81.710938 L 159.632813 80.914063 C 159.621094 81.34375 159.523438 81.703125 159.335938 81.992188 C 159.15625 82.285156 158.875 82.535156 158.492188 82.742188 C 158 83.003906 157.527344 83.0625 157.070313 82.914063 C 156.621094 82.769531 156.257813 82.4375 155.976563 81.914063 C 155.65625 81.320313 155.59375 80.78125 155.789063 80.289063 C 155.988281 79.789063 156.445313 79.347656 157.164063 78.960938 L 158.257813 78.367188 L 158.210938 78.289063 C 157.992188 77.882813 157.703125 77.640625 157.351563 77.554688 C 157.007813 77.460938 156.617188 77.53125 156.179688 77.757813 C 155.921875 77.90625 155.675781 78.085938 155.445313 78.304688 C 155.21875 78.515625 155.03125 78.753906 154.882813 79.023438 L 154.445313 78.226563 C 154.675781 77.9375 154.910156 77.691406 155.148438 77.492188 C 155.378906 77.296875 155.617188 77.125 155.867188 76.976563 C 156.5625 76.613281 157.1875 76.535156 157.742188 76.742188 C 158.292969 76.953125 158.789063 77.457031 159.226563 78.257813 Z M 164.710938 75.109375 L 166.429688 78.296875 L 165.632813 78.71875 L 163.929688 75.546875 C 163.65625 75.046875 163.367188 74.726563 163.054688 74.578125 C 162.75 74.421875 162.429688 74.4375 162.085938 74.625 C 161.65625 74.855469 161.40625 75.1875 161.320313 75.625 C 161.226563 76.054688 161.320313 76.523438 161.601563 77.03125 L 163.210938 80.03125 L 162.414063 80.453125 L 159.570313 75.15625 L 160.367188 74.734375 L 160.804688 75.5625 C 160.828125 75.136719 160.921875 74.777344 161.085938 74.484375 C 161.253906 74.195313 161.507813 73.960938 161.851563 73.78125 C 162.390625 73.492188 162.902344 73.453125 163.382813 73.671875 C 163.871094 73.890625 164.3125 74.371094 164.710938 75.109375 Z M 169.636719 68.683594 L 170.355469 72.839844 L 172.699219 71.574219 Z M 168.621094 68.011719 L 169.605469 67.496094 L 175.824219 73.261719 L 174.933594 73.730469 L 173.386719 72.230469 L 170.527344 73.777344 L 170.917969 75.886719 L 169.996094 76.386719 Z M 178.128906 66.5 C 178.117188 66 178.195313 65.589844 178.363281 65.265625 C 178.539063 64.933594 178.808594 64.667969 179.175781 64.46875 C 179.683594 64.199219 180.175781 64.1875 180.644531 64.4375 C 181.113281 64.679688 181.539063 65.15625 181.925781 65.875 L 183.644531 69.0625 L 182.863281 69.484375 L 181.160156 66.3125 C 180.886719 65.804688 180.605469 65.46875 180.316406 65.3125 C 180.023438 65.148438 179.710938 65.152344 179.378906 65.328125 C 178.980469 65.546875 178.742188 65.875 178.660156 66.3125 C 178.574219 66.742188 178.675781 67.210938 178.957031 67.71875 L 180.566406 70.71875 L 179.769531 71.140625 L 178.066406 67.96875 C 177.792969 67.460938 177.511719 67.125 177.222656 66.96875 C 176.929688 66.8125 176.617188 66.824219 176.285156 67 C 175.878906 67.210938 175.640625 67.53125 175.566406 67.96875 C 175.484375 68.398438 175.582031 68.867188 175.863281 69.375 L 177.472656 72.375 L 176.675781 72.796875 L 173.832031 67.5 L 174.628906 67.078125 L 175.066406 67.90625 C 175.066406 67.480469 175.15625 67.125 175.332031 66.84375 C 175.511719 66.554688 175.765625 66.3125 176.097656 66.125 C 176.449219 65.9375 176.800781 65.875 177.144531 65.9375 C 177.488281 66 177.816406 66.1875 178.128906 66.5 Z M 189.25 61.785156 C 189.46875 61.765625 189.722656 61.824219 190.015625 61.957031 C 190.316406 62.082031 190.664063 62.296875 191.0625 62.597656 L 192.96875 64.050781 L 192.046875 64.550781 L 190.265625 63.175781 C 189.796875 62.824219 189.421875 62.621094 189.140625 62.566406 C 188.859375 62.515625 188.546875 62.582031 188.203125 62.769531 L 187.265625 63.269531 L 188.875 66.253906 L 188.015625 66.722656 L 184.21875 59.660156 L 186.15625 58.613281 C 186.886719 58.21875 187.515625 58.09375 188.046875 58.238281 C 188.585938 58.386719 189.039063 58.800781 189.40625 59.488281 C 189.644531 59.9375 189.75 60.359375 189.71875 60.753906 C 189.695313 61.140625 189.539063 61.484375 189.25 61.785156 Z M 185.5 59.972656 L 186.84375 62.488281 L 187.921875 61.910156 C 188.335938 61.683594 188.597656 61.40625 188.703125 61.082031 C 188.804688 60.75 188.742188 60.375 188.515625 59.957031 C 188.296875 59.550781 188.019531 59.300781 187.6875 59.207031 C 187.363281 59.105469 186.996094 59.167969 186.578125 59.394531 Z M 193.371094 57.796875 C 192.945313 58.027344 192.710938 58.390625 192.667969 58.890625 C 192.628906 59.382813 192.773438 59.945313 193.105469 60.578125 C 193.449219 61.214844 193.832031 61.648438 194.261719 61.875 C 194.699219 62.105469 195.128906 62.105469 195.558594 61.875 C 195.972656 61.648438 196.207031 61.289063 196.261719 60.796875 C 196.3125 60.308594 196.167969 59.746094 195.824219 59.109375 C 195.488281 58.476563 195.097656 58.042969 194.652344 57.8125 C 194.214844 57.574219 193.785156 57.570313 193.371094 57.796875 Z M 192.980469 57.0625 C 193.65625 56.699219 194.316406 56.65625 194.964844 56.9375 C 195.621094 57.21875 196.183594 57.796875 196.652344 58.671875 C 197.121094 59.539063 197.292969 60.324219 197.167969 61.03125 C 197.042969 61.730469 196.640625 62.261719 195.964844 62.625 C 195.277344 63 194.605469 63.042969 193.949219 62.75 C 193.300781 62.460938 192.746094 61.882813 192.277344 61.015625 C 191.808594 60.140625 191.636719 59.359375 191.761719 58.671875 C 191.886719 57.976563 192.292969 57.4375 192.980469 57.0625 Z M 200.089844 56.78125 C 199.453125 57.125 199.058594 57.449219 198.902344 57.75 C 198.753906 58.042969 198.785156 58.382813 198.996094 58.765625 C 199.160156 59.070313 199.386719 59.261719 199.667969 59.34375 C 199.949219 59.429688 200.246094 59.386719 200.558594 59.21875 C 200.996094 58.980469 201.25 58.621094 201.324219 58.140625 C 201.394531 57.652344 201.28125 57.125 200.980469 56.5625 L 200.871094 56.359375 Z M 201.480469 55.578125 L 203.105469 58.609375 L 202.308594 59.03125 L 201.886719 58.234375 C 201.875 58.664063 201.777344 59.023438 201.589844 59.3125 C 201.410156 59.605469 201.128906 59.855469 200.746094 60.0625 C 200.253906 60.324219 199.78125 60.382813 199.324219 60.234375 C 198.875 60.089844 198.511719 59.757813 198.230469 59.234375 C 197.910156 58.640625 197.847656 58.101563 198.042969 57.609375 C 198.242188 57.109375 198.699219 56.667969 199.417969 56.28125 L 200.511719 55.6875 L 200.464844 55.609375 C 200.246094 55.203125 199.957031 54.960938 199.605469 54.875 C 199.261719 54.78125 198.871094 54.851563 198.433594 55.078125 C 198.175781 55.226563 197.929688 55.40625 197.699219 55.625 C 197.472656 55.835938 197.285156 56.074219 197.136719 56.34375 L 196.699219 55.546875 C 196.929688 55.257813 197.164063 55.011719 197.402344 54.8125 C 197.632813 54.617188 197.871094 54.445313 198.121094 54.296875 C 198.816406 53.933594 199.441406 53.855469 199.996094 54.0625 C 200.546875 54.273438 201.042969 54.777344 201.480469 55.578125 Z M 205.546875 51.707031 L 204.140625 48.785156 L 204.9375 48.410156 L 208.578125 55.925781 L 207.78125 56.300781 L 207.390625 55.488281 C 207.378906 55.894531 207.28125 56.238281 207.09375 56.519531 C 206.90625 56.800781 206.632813 57.03125 206.28125 57.207031 C 205.695313 57.488281 205.09375 57.464844 204.46875 57.128906 C 203.84375 56.785156 203.324219 56.1875 202.90625 55.332031 C 202.5 54.480469 202.359375 53.703125 202.484375 53.003906 C 202.601563 52.296875 202.949219 51.800781 203.53125 51.519531 C 203.882813 51.34375 204.226563 51.269531 204.5625 51.300781 C 204.90625 51.332031 205.234375 51.46875 205.546875 51.707031 Z M 203.75 54.925781 C 204.070313 55.582031 204.4375 56.042969 204.84375 56.300781 C 205.257813 56.550781 205.679688 56.574219 206.109375 56.363281 C 206.535156 56.15625 206.78125 55.808594 206.84375 55.316406 C 206.914063 54.828125 206.789063 54.253906 206.46875 53.597656 C 206.15625 52.941406 205.785156 52.488281 205.359375 52.238281 C 204.929688 51.988281 204.503906 51.96875 204.078125 52.175781 C 203.652344 52.386719 203.414063 52.734375 203.359375 53.222656 C 203.308594 53.703125 203.4375 54.269531 203.75 54.925781 Z M 203.75 54.925781 "/>
</g>
</svg>

