<?xml version="1.0" encoding="UTF-8"?>
<svg xmlns="http://www.w3.org/2000/svg" xmlns:xlink="http://www.w3.org/1999/xlink" width="256pt" height="256pt" viewBox="0 0 256 256" version="1.1">
<g id="surface2">
<rect x="0" y="0" width="256" height="256" style="fill:rgb(94.901961%,93.72549%,91.372549%);fill-opacity:1;stroke:none;"/>
<path style=" stroke:none;fill-rule:evenodd;fill:rgb(60%,70.196078%,80%);fill-opacity:1;" d="M -4 -4 L 259 -4 L 259 259 L 259 -4 Z M -8239283.429688 5386075.480469 Z M -8239283.429688 5386075.480469 "/>
<path style="fill:none;stroke-width:1;stroke-linecap:round;stroke-linejoin:round;stroke:rgb(70.196078%,77.647059%,83.137255%);stroke-opacity:1;stroke-miterlimit:10;" d="M -4 -4 L 259 -4 L 259 259 L 259 -4 L -4 -4 "/>
<path style="fill:none;stroke-width:1;stroke-linecap:round;stroke-linejoin:round;stroke:rgb(100%,100%,100%);stroke-opacity:1;stroke-dasharray:2,3;stroke-miterlimit:10;" d="M 257 110.085938 L 242.882813 105.675781 L 231.910156 97.582031 L 215.832031 79.953125 L 199.007813 68.199219 L 160.210938 74.042969 L 150.703125 78.441406 L 143.363281 88.011719 L 130.171875 118.101563 L 114.070313 132.039063 L 97.972656 137.917969 L 66.511719 142.316406 L 40.160156 148.898438 L 26.25 158.4375 L 6.488281 178.988281 L -2 183.636719 "/>
</g>
</svg>

