<?xml version="1.0" encoding="UTF-8"?>
<svg xmlns="http://www.w3.org/2000/svg" xmlns:xlink="http://www.w3.org/1999/xlink" width="256pt" height="256pt" viewBox="0 0 256 256" version="1.1">
<g id="surface2">
<rect x="0" y="0" width="256" height="256" style="fill:rgb(94.901961%,93.72549%,91.372549%);fill-opacity:1;stroke:none;"/>
<path style=" stroke:none;fill-rule:evenodd;fill:rgb(60%,70.196078%,80%);fill-opacity:1;" d="M -4 -4 L 259 -4 L 259 259 L 259 -4 Z M -4 -4 "/>
<path style="fill:none;stroke-width:1;stroke-linecap:round;stroke-linejoin:round;stroke:rgb(70.196078%,77.647059%,83.137255%);stroke-opacity:1;stroke-miterlimit:10;" d="M -4 -4 L 259 -4 L 259 259 L 259 -4 L -4 -4 "/>
<path style="fill:none;stroke-width:2;stroke-linecap:round;stroke-linejoin:round;stroke:rgb(60%,70.196078%,80%);stroke-opacity:1;stroke-miterlimit:10;" d="M 127.699219 -3 L 128.007813 -0.875 L 132.324219 10.808594 L 129.074219 20.675781 L 114.242188 32.515625 L 109.171875 43.933594 L 107.785156 64.578125 L 125.5 99.464844 L 122.296875 110.828125 L 114.507813 143.371094 L 108.375 172.230469 L 107.894531 185.992188 L 102.238281 203.433594 L 90.929688 231.226563 L 75.09375 241 L 61.984375 249.5625 L 56.839844 258 "/>
<path style="fill:none;stroke-width:3;stroke-linecap:round;stroke-linejoin:round;stroke:rgb(100%,100%,100%);stroke-opacity:1;stroke-miterlimit:10;" d="M 109.019531 154.171875 L 111.972656 154.796875 L 112.222656 153.59375 C 112.316406 153.148438 112.261719 152.777344 112.050781 152.484375 C 111.84375 152.183594 111.503906 151.980469 111.035156 151.875 C 110.566406 151.78125 110.183594 151.828125 109.878906 152.015625 C 109.566406 152.203125 109.363281 152.523438 109.269531 152.96875 Z M 107.941406 154.9375 L 108.394531 152.78125 C 108.5625 151.992188 108.890625 151.4375 109.378906 151.125 C 109.871094 150.8125 110.496094 150.734375 111.253906 150.890625 C 112.027344 151.058594 112.566406 151.386719 112.878906 151.875 C 113.191406 152.355469 113.265625 152.992188 113.097656 153.78125 L 112.847656 154.984375 L 115.988281 155.65625 L 115.785156 156.609375 Z M 114.558594 147.785156 C 114.414063 148.484375 114.402344 148.988281 114.527344 149.300781 C 114.652344 149.605469 114.933594 149.800781 115.371094 149.894531 C 115.707031 149.96875 115.996094 149.925781 116.246094 149.769531 C 116.488281 149.605469 116.644531 149.347656 116.714844 149.003906 C 116.820313 148.515625 116.714844 148.082031 116.402344 147.707031 C 116.082031 147.332031 115.605469 147.082031 114.980469 146.957031 L 114.746094 146.910156 Z M 114.542969 145.941406 L 117.902344 146.660156 L 117.714844 147.535156 L 116.824219 147.347656 C 117.144531 147.628906 117.359375 147.9375 117.464844 148.269531 C 117.566406 148.59375 117.574219 148.96875 117.480469 149.394531 C 117.363281 149.9375 117.105469 150.332031 116.699219 150.582031 C 116.292969 150.832031 115.804688 150.902344 115.230469 150.785156 C 114.574219 150.640625 114.121094 150.332031 113.871094 149.863281 C 113.613281 149.394531 113.566406 148.761719 113.730469 147.957031 L 113.996094 146.738281 L 113.902344 146.722656 C 113.457031 146.628906 113.082031 146.691406 112.777344 146.910156 C 112.476563 147.121094 112.273438 147.464844 112.167969 147.941406 C 112.105469 148.234375 112.089844 148.535156 112.121094 148.847656 C 112.144531 149.152344 112.207031 149.453125 112.308594 149.753906 L 111.417969 149.566406 C 111.347656 149.214844 111.308594 148.878906 111.308594 148.566406 C 111.308594 148.253906 111.339844 147.957031 111.402344 147.675781 C 111.558594 146.917969 111.898438 146.390625 112.417969 146.097656 C 112.941406 145.808594 113.648438 145.753906 114.542969 145.941406 Z M 115.941406 144.507813 L 112.394531 143.679688 L 112.597656 142.820313 L 116.113281 143.632813 C 116.667969 143.757813 117.105469 143.757813 117.425781 143.632813 C 117.75 143.507813 117.953125 143.253906 118.035156 142.867188 C 118.148438 142.390625 118.074219 141.976563 117.816406 141.632813 C 117.546875 141.28125 117.121094 141.035156 116.535156 140.898438 L 113.222656 140.132813 L 113.425781 139.273438 L 119.285156 140.632813 L 119.082031 141.492188 L 118.191406 141.289063 C 118.492188 141.59375 118.695313 141.898438 118.800781 142.210938 C 118.914063 142.523438 118.929688 142.867188 118.847656 143.242188 C 118.699219 143.835938 118.382813 144.242188 117.894531 144.460938 C 117.394531 144.671875 116.746094 144.6875 115.941406 144.507813 Z M 112.769531 141.476563 Z M 111.578125 136.914063 L 111.78125 136.039063 L 119.90625 137.992188 L 119.703125 138.867188 Z M 115.136719 126.121094 L 116.261719 126.386719 C 115.855469 126.628906 115.527344 126.910156 115.277344 127.230469 C 115.027344 127.554688 114.855469 127.917969 114.761719 128.324219 C 114.566406 129.128906 114.691406 129.808594 115.136719 130.371094 C 115.574219 130.933594 116.308594 131.335938 117.339844 131.574219 C 118.363281 131.824219 119.195313 131.800781 119.839844 131.496094 C 120.488281 131.195313 120.90625 130.644531 121.105469 129.839844 C 121.199219 129.433594 121.207031 129.035156 121.136719 128.636719 C 121.0625 128.242188 120.894531 127.839844 120.636719 127.433594 L 121.730469 127.699219 C 121.894531 128.097656 122 128.492188 122.042969 128.886719 C 122.082031 129.285156 122.058594 129.691406 121.964844 130.105469 C 121.703125 131.167969 121.140625 131.917969 120.277344 132.355469 C 119.402344 132.792969 118.339844 132.863281 117.089844 132.558594 C 115.832031 132.269531 114.914063 131.730469 114.339844 130.949219 C 113.757813 130.160156 113.597656 129.230469 113.855469 128.167969 C 113.960938 127.742188 114.121094 127.363281 114.339844 127.027344 C 114.558594 126.683594 114.824219 126.382813 115.136719 126.121094 Z M 118.460938 122.171875 C 118.367188 122.265625 118.296875 122.367188 118.242188 122.46875 C 118.179688 122.574219 118.132813 122.695313 118.101563 122.828125 C 117.988281 123.328125 118.078125 123.75 118.367188 124.09375 C 118.660156 124.4375 119.140625 124.6875 119.804688 124.84375 L 122.882813 125.578125 L 122.664063 126.46875 L 116.820313 125.0625 L 117.039063 124.171875 L 117.945313 124.390625 C 117.632813 124.132813 117.425781 123.835938 117.320313 123.5 C 117.21875 123.167969 117.21875 122.792969 117.320313 122.375 C 117.332031 122.324219 117.351563 122.261719 117.382813 122.1875 C 117.40625 122.117188 117.4375 122.039063 117.476563 121.953125 Z M 121.546875 117.222656 L 122.015625 117.332031 L 121.0625 121.316406 C 121.730469 121.433594 122.277344 121.371094 122.703125 121.128906 C 123.121094 120.878906 123.398438 120.472656 123.53125 119.910156 C 123.601563 119.578125 123.632813 119.25 123.625 118.925781 C 123.613281 118.59375 123.554688 118.246094 123.453125 117.878906 L 124.359375 118.082031 C 124.429688 118.449219 124.46875 118.800781 124.46875 119.144531 C 124.46875 119.480469 124.425781 119.8125 124.34375 120.144531 C 124.144531 120.988281 123.71875 121.59375 123.0625 121.957031 C 122.398438 122.3125 121.59375 122.378906 120.65625 122.160156 C 119.710938 121.933594 119.011719 121.515625 118.5625 120.910156 C 118.117188 120.308594 117.984375 119.613281 118.171875 118.832031 C 118.339844 118.125 118.726563 117.628906 119.328125 117.347656 C 119.933594 117.058594 120.671875 117.015625 121.546875 117.222656 Z M 121.046875 118.003906 C 120.515625 117.890625 120.0625 117.925781 119.6875 118.113281 C 119.3125 118.292969 119.074219 118.59375 118.96875 119.019531 C 118.855469 119.5 118.917969 119.925781 119.15625 120.300781 C 119.386719 120.667969 119.765625 120.933594 120.296875 121.097656 Z M 122.964844 111.285156 L 123.433594 111.410156 L 122.480469 115.394531 C 123.148438 115.511719 123.695313 115.449219 124.121094 115.207031 C 124.539063 114.96875 124.816406 114.5625 124.949219 113.988281 C 125.03125 113.65625 125.0625 113.324219 125.042969 112.988281 C 125.03125 112.65625 124.972656 112.3125 124.871094 111.957031 L 125.777344 112.175781 C 125.847656 112.53125 125.886719 112.878906 125.886719 113.222656 C 125.886719 113.558594 125.84375 113.890625 125.761719 114.222656 C 125.5625 115.066406 125.136719 115.671875 124.480469 116.035156 C 123.816406 116.390625 123.011719 116.457031 122.074219 116.238281 C 121.128906 116.011719 120.429688 115.597656 119.980469 115.003906 C 119.535156 114.402344 119.402344 113.703125 119.589844 112.910156 C 119.757813 112.203125 120.144531 111.703125 120.746094 111.410156 C 121.351563 111.121094 122.089844 111.078125 122.964844 111.285156 Z M 122.464844 112.082031 C 121.945313 111.96875 121.496094 112 121.121094 112.175781 C 120.738281 112.355469 120.492188 112.65625 120.386719 113.082031 C 120.273438 113.5625 120.335938 113.988281 120.574219 114.363281 C 120.804688 114.730469 121.183594 115 121.714844 115.175781 Z M 118.398438 108.554688 L 118.648438 107.679688 L 123.398438 109.023438 L 121.617188 105.773438 L 121.929688 104.664063 L 123.867188 108.195313 L 127.757813 106.195313 L 127.445313 107.304688 L 123.867188 109.148438 L 126.695313 109.945313 L 126.445313 110.820313 Z M 118.398438 108.554688 "/>
<path style=" stroke:none;fill-rule:evenodd;fill:rgb(41.960784%,58.039216%,69.019608%);fill-opacity:1;" d="M 109.019531 154.171875 L 111.972656 154.796875 L 112.222656 153.59375 C 112.316406 153.148438 112.261719 152.777344 112.050781 152.484375 C 111.84375 152.183594 111.503906 151.980469 111.035156 151.875 C 110.566406 151.78125 110.183594 151.828125 109.878906 152.015625 C 109.566406 152.203125 109.363281 152.523438 109.269531 152.96875 Z M 107.941406 154.9375 L 108.394531 152.78125 C 108.5625 151.992188 108.890625 151.4375 109.378906 151.125 C 109.871094 150.8125 110.496094 150.734375 111.253906 150.890625 C 112.027344 151.058594 112.566406 151.386719 112.878906 151.875 C 113.191406 152.355469 113.265625 152.992188 113.097656 153.78125 L 112.847656 154.984375 L 115.988281 155.65625 L 115.785156 156.609375 Z M 114.558594 147.785156 C 114.414063 148.484375 114.402344 148.988281 114.527344 149.300781 C 114.652344 149.605469 114.933594 149.800781 115.371094 149.894531 C 115.707031 149.96875 115.996094 149.925781 116.246094 149.769531 C 116.488281 149.605469 116.644531 149.347656 116.714844 149.003906 C 116.820313 148.515625 116.714844 148.082031 116.402344 147.707031 C 116.082031 147.332031 115.605469 147.082031 114.980469 146.957031 L 114.746094 146.910156 Z M 114.542969 145.941406 L 117.902344 146.660156 L 117.714844 147.535156 L 116.824219 147.347656 C 117.144531 147.628906 117.359375 147.9375 117.464844 148.269531 C 117.566406 148.59375 117.574219 148.96875 117.480469 149.394531 C 117.363281 149.9375 117.105469 150.332031 116.699219 150.582031 C 116.292969 150.832031 115.804688 150.902344 115.230469 150.785156 C 114.574219 150.640625 114.121094 150.332031 113.871094 149.863281 C 113.613281 149.394531 113.566406 148.761719 113.730469 147.957031 L 113.996094 146.738281 L 113.902344 146.722656 C 113.457031 146.628906 113.082031 146.691406 112.777344 146.910156 C 112.476563 147.121094 112.273438 147.464844 112.167969 147.941406 C 112.105469 148.234375 112.089844 148.535156 112.121094 148.847656 C 112.144531 149.152344 112.207031 149.453125 112.308594 149.753906 L 111.417969 149.566406 C 111.347656 149.214844 111.308594 148.878906 111.308594 148.566406 C 111.308594 148.253906 111.339844 147.957031 111.402344 147.675781 C 111.558594 146.917969 111.898438 146.390625 112.417969 146.097656 C 112.941406 145.808594 113.648438 145.753906 114.542969 145.941406 Z M 115.941406 144.507813 L 112.394531 143.679688 L 112.597656 142.820313 L 116.113281 143.632813 C 116.667969 143.757813 117.105469 143.757813 117.425781 143.632813 C 117.75 143.507813 117.953125 143.253906 118.035156 142.867188 C 118.148438 142.390625 118.074219 141.976563 117.816406 141.632813 C 117.546875 141.28125 117.121094 141.035156 116.535156 140.898438 L 113.222656 140.132813 L 113.425781 139.273438 L 119.285156 140.632813 L 119.082031 141.492188 L 118.191406 141.289063 C 118.492188 141.59375 118.695313 141.898438 118.800781 142.210938 C 118.914063 142.523438 118.929688 142.867188 118.847656 143.242188 C 118.699219 143.835938 118.382813 144.242188 117.894531 144.460938 C 117.394531 144.671875 116.746094 144.6875 115.941406 144.507813 Z M 112.769531 141.476563 Z M 111.578125 136.914063 L 111.78125 136.039063 L 119.90625 137.992188 L 119.703125 138.867188 Z M 115.136719 126.121094 L 116.261719 126.386719 C 115.855469 126.628906 115.527344 126.910156 115.277344 127.230469 C 115.027344 127.554688 114.855469 127.917969 114.761719 128.324219 C 114.566406 129.128906 114.691406 129.808594 115.136719 130.371094 C 115.574219 130.933594 116.308594 131.335938 117.339844 131.574219 C 118.363281 131.824219 119.195313 131.800781 119.839844 131.496094 C 120.488281 131.195313 120.90625 130.644531 121.105469 129.839844 C 121.199219 129.433594 121.207031 129.035156 121.136719 128.636719 C 121.0625 128.242188 120.894531 127.839844 120.636719 127.433594 L 121.730469 127.699219 C 121.894531 128.097656 122 128.492188 122.042969 128.886719 C 122.082031 129.285156 122.058594 129.691406 121.964844 130.105469 C 121.703125 131.167969 121.140625 131.917969 120.277344 132.355469 C 119.402344 132.792969 118.339844 132.863281 117.089844 132.558594 C 115.832031 132.269531 114.914063 131.730469 114.339844 130.949219 C 113.757813 130.160156 113.597656 129.230469 113.855469 128.167969 C 113.960938 127.742188 114.121094 127.363281 114.339844 127.027344 C 114.558594 126.683594 114.824219 126.382813 115.136719 126.121094 Z M 118.460938 122.171875 C 118.367188 122.265625 118.296875 122.367188 118.242188 122.46875 C 118.179688 122.574219 118.132813 122.695313 118.101563 122.828125 C 117.988281 123.328125 118.078125 123.75 118.367188 124.09375 C 118.660156 124.4375 119.140625 124.6875 119.804688 124.84375 L 122.882813 125.578125 L 122.664063 126.46875 L 116.820313 125.0625 L 117.039063 124.171875 L 117.945313 124.390625 C 117.632813 124.132813 117.425781 123.835938 117.320313 123.5 C 117.21875 123.167969 117.21875 122.792969 117.320313 122.375 C 117.332031 122.324219 117.351563 122.261719 117.382813 122.1875 C 117.40625 122.117188 117.4375 122.039063 117.476563 121.953125 Z M 121.546875 117.222656 L 122.015625 117.332031 L 121.0625 121.316406 C 121.730469 121.433594 122.277344 121.371094 122.703125 121.128906 C 123.121094 120.878906 123.398438 120.472656 123.53125 119.910156 C 123.601563 119.578125 123.632813 119.25 123.625 118.925781 C 123.613281 118.59375 123.554688 118.246094 123.453125 117.878906 L 124.359375 118.082031 C 124.429688 118.449219 124.46875 118.800781 124.46875 119.144531 C 124.46875 119.480469 124.425781 119.8125 124.34375 120.144531 C 124.144531 120.988281 123.71875 121.59375 123.0625 121.957031 C 122.398438 122.3125 121.59375 122.378906 120.65625 122.160156 C 119.710938 121.933594 119.011719 121.515625 118.5625 120.910156 C 118.117188 120.308594 117.984375 119.613281 118.171875 118.832031 C 118.339844 118.125 118.726563 117.628906 119.328125 117.347656 C 119.933594 117.058594 120.671875 117.015625 121.546875 117.222656 Z M 121.046875 118.003906 C 120.515625 117.890625 120.0625 117.925781 119.6875 118.113281 C 119.3125 118.292969 119.074219 118.59375 118.96875 119.019531 C 118.855469 119.5 118.917969 119.925781 119.15625 120.300781 C 119.386719 120.667969 119.765625 120.933594 120.296875 121.097656 Z M 122.964844 111.285156 L 123.433594 111.410156 L 122.480469 115.394531 C 123.148438 115.511719 123.695313 115.449219 124.121094 115.207031 C 124.539063 114.96875 124.816406 114.5625 124.949219 113.988281 C 125.03125 113.65625 125.0625 113.324219 125.042969 112.988281 C 125.03125 112.65625 124.972656 112.3125 124.871094 111.957031 L 125.777344 112.175781 C 125.847656 112.53125 125.886719 112.878906 125.886719 113.222656 C 125.886719 113.558594 125.84375 113.890625 125.761719 114.222656 C 125.5625 115.066406 125.136719 115.671875 124.480469 116.035156 C 123.816406 116.390625 123.011719 116.457031 122.074219 116.238281 C 121.128906 116.011719 120.429688 115.597656 119.980469 115.003906 C 119.535156 114.402344 119.402344 113.703125 119.589844 112.910156 C 119.757813 112.203125 120.144531 111.703125 120.746094 111.410156 C 121.351563 111.121094 122.089844 111.078125 122.964844 111.285156 Z M 122.464844 112.082031 C 121.945313 111.96875 121.496094 112 121.121094 112.175781 C 120.738281 112.355469 120.492188 112.65625 120.386719 113.082031 C 120.273438 113.5625 120.335938 113.988281 120.574219 114.363281 C 120.804688 114.730469 121.183594 115 121.714844 115.175781 Z M 118.398438 108.554688 L 118.648438 107.679688 L 123.398438 109.023438 L 121.617188 105.773438 L 121.929688 104.664063 L 123.867188 108.195313 L 127.757813 106.195313 L 127.445313 107.304688 L 123.867188 109.148438 L 126.695313 109.945313 L 126.445313 110.820313 Z M 118.398438 108.554688 "/>
</g>
</svg>

