<?xml version="1.0" encoding="UTF-8"?>
<svg xmlns="http://www.w3.org/2000/svg" xmlns:xlink="http://www.w3.org/1999/xlink" width="256pt" height="256pt" viewBox="0 0 256 256" version="1.1">
<g id="surface2">
<rect x="0" y="0" width="256" height="256" style="fill:rgb(94.901961%,93.72549%,91.372549%);fill-opacity:1;stroke:none;"/>
<path style=" stroke:none;fill-rule:evenodd;fill:rgb(87.058824%,81.960784%,67.058824%);fill-opacity:1;" d="M 250.609375 0.613281 L 252.933594 4.09375 L 256.566406 8.808594 L 260 11.480469 L 260 -4 L 248.574219 -4 L 248.058594 -3.5625 Z M 250.609375 0.613281 "/>
<path style=" stroke:none;fill-rule:evenodd;fill:rgb(87.058824%,81.960784%,67.058824%);fill-opacity:1;" d="M 230.335938 12.273438 L 242.210938 25.699219 L 244.875 25.390625 L 257.925781 14.007813 L 249.824219 7.570313 L 246.109375 6.644531 L 240.851563 6.398438 L 235.964844 8.253906 L 231.882813 10.792969 Z M 230.335938 12.273438 "/>
<path style=" stroke:none;fill-rule:evenodd;fill:rgb(81.960784%,81.568627%,80.392157%);fill-opacity:1;" d="M 106.074219 135.726563 L 108.078125 142.277344 L 115.492188 140.09375 L 114.992188 137.089844 L 108.078125 132.316406 L 107.277344 133.679688 Z M 106.074219 135.726563 "/>
<path style="fill:none;stroke-width:1;stroke-linecap:round;stroke-linejoin:round;stroke:rgb(81.960784%,81.960784%,81.960784%);stroke-opacity:1;stroke-miterlimit:10;" d="M 106.074219 135.726563 L 108.078125 142.277344 L 115.492188 140.09375 L 114.992188 137.089844 L 108.078125 132.316406 L 107.277344 133.679688 L 106.074219 135.726563 "/>
<path style="fill:none;stroke-width:8;stroke-linecap:round;stroke-linejoin:round;stroke:rgb(75.686275%,70.980392%,61.568627%);stroke-opacity:1;stroke-miterlimit:10;" d="M 120.273438 46.542969 L 123.609375 48.550781 L 126.652344 50.882813 "/>
<path style="fill:none;stroke-width:8;stroke-linecap:round;stroke-linejoin:round;stroke:rgb(75.686275%,70.980392%,61.568627%);stroke-opacity:1;stroke-miterlimit:10;" d="M 50.058594 66.832031 L 69.191406 89.925781 L 73.21875 94.566406 L 73.886719 99.027344 L 72.011719 105.34375 L 71.132813 109 L 70.742188 112.367188 L 72.269531 115.730469 L 74.234375 117.050781 L 94.296875 128.296875 L 99.367188 130.265625 L 104.675781 131.769531 L 107.277344 133.679688 "/>
<path style="fill:none;stroke-width:8;stroke-linecap:round;stroke-linejoin:round;stroke:rgb(75.686275%,70.980392%,61.568627%);stroke-opacity:1;stroke-miterlimit:10;" d="M 118.4375 44.933594 L 120.273438 46.542969 "/>
<path style="fill:none;stroke-width:8;stroke-linecap:round;stroke-linejoin:round;stroke:rgb(75.686275%,70.980392%,61.568627%);stroke-opacity:1;stroke-miterlimit:10;" d="M 233.363281 81.832031 L 241.96875 112.609375 "/>
<path style="fill:none;stroke-width:8;stroke-linecap:round;stroke-linejoin:round;stroke:rgb(75.686275%,70.980392%,61.568627%);stroke-opacity:1;stroke-miterlimit:10;" d="M 105.390625 66.246094 L 108.285156 63.234375 L 120.273438 46.542969 L 123.839844 39.195313 "/>
<path style="fill:none;stroke-width:8;stroke-linecap:round;stroke-linejoin:round;stroke:rgb(75.686275%,70.980392%,61.568627%);stroke-opacity:1;stroke-miterlimit:10;" d="M 123.839844 39.195313 L 118.4375 44.933594 L 106.714844 61.449219 L 105.390625 66.246094 "/>
<path style="fill:none;stroke-width:8;stroke-linecap:round;stroke-linejoin:round;stroke:rgb(75.686275%,70.980392%,61.568627%);stroke-opacity:1;stroke-miterlimit:10;" d="M 123.839844 39.195313 L 135.925781 28.789063 L 139.652344 24.507813 L 143.527344 16.296875 L 153.136719 -9 "/>
<path style="fill:none;stroke-width:8;stroke-linecap:round;stroke-linejoin:round;stroke:rgb(75.686275%,70.980392%,61.568627%);stroke-opacity:1;stroke-miterlimit:10;" d="M 98.449219 -9 L 97.988281 -7.570313 L 97.515625 -1.226563 L 98.75 4.605469 L 100.558594 8.101563 L 123.839844 39.195313 "/>
<path style="fill:none;stroke-width:8;stroke-linecap:round;stroke-linejoin:round;stroke:rgb(75.686275%,70.980392%,61.568627%);stroke-opacity:1;stroke-miterlimit:10;" d="M -9 16.894531 L -3.226563 23.035156 L 6.976563 32.558594 L 32.042969 48.050781 L 37.453125 52.945313 L 44.875 60.578125 L 50.058594 66.832031 "/>
<path style="fill:none;stroke-width:8;stroke-linecap:round;stroke-linejoin:round;stroke:rgb(75.686275%,70.980392%,61.568627%);stroke-opacity:1;stroke-miterlimit:10;" d="M 216.109375 143.429688 L 208.058594 152.773438 L 205.8125 157.054688 L 204.398438 163.585938 L 204.632813 169.945313 L 206.066406 175.332031 L 217.460938 194.335938 L 220.503906 199.785156 L 221.863281 203.699219 L 222.246094 206.804688 L 222.460938 209.046875 L 222.097656 212.652344 L 221.4375 216.394531 L 220.738281 220.25 L 220.398438 223.636719 L 220.839844 230.40625 L 222.242188 238.160156 L 225.96875 248.414063 L 232.003906 256.917969 L 236.375 261.503906 L 239.542969 264 "/>
<path style="fill:none;stroke-width:8;stroke-linecap:round;stroke-linejoin:round;stroke:rgb(75.686275%,70.980392%,61.568627%);stroke-opacity:1;stroke-miterlimit:10;" d="M 194.382813 98.859375 L 198.621094 92.324219 L 202.746094 87.714844 L 206.1875 84.984375 L 211.039063 82.675781 L 217.554688 81.765625 L 229.765625 82.105469 L 233.363281 81.832031 L 235.769531 80.957031 L 238.359375 79.390625 L 242.242188 76.449219 L 245.621094 73.628906 L 251.699219 66.640625 L 255.011719 61.921875 L 259.851563 56.085938 L 262.582031 53.816406 L 264 53.117188 "/>
<path style="fill:none;stroke-width:8;stroke-linecap:round;stroke-linejoin:round;stroke:rgb(75.686275%,70.980392%,61.568627%);stroke-opacity:1;stroke-miterlimit:10;" d="M 44.875 60.578125 L 53.347656 54.972656 L 58.21875 52.847656 L 64.859375 50.339844 L 67.980469 49.578125 L 70.5 49.578125 L 77.324219 50.179688 L 82.566406 51.195313 L 86.644531 53.164063 L 89.953125 55.324219 L 98.484375 62.179688 L 105.390625 66.246094 L 124.511719 81.417969 L 134.019531 86.75 L 141.21875 89.101563 L 150.167969 90.910156 L 156.203125 91.511719 L 164.964844 91.164063 L 176.636719 92.179688 L 181.109375 93.164063 L 194.382813 98.859375 L 198.125 102.375 L 201.464844 106.210938 L 204.308594 110.953125 L 205.582031 114.085938 L 206.492188 117.894531 L 208.203125 125.882813 L 208.820313 129.554688 L 209.933594 133.296875 L 211.527344 137.339844 L 213.585938 140.699219 L 216.109375 143.429688 L 222.75 148.71875 L 226.246094 150.496094 L 231.511719 151.671875 L 238.128906 151.890625 L 243.558594 151.734375 L 248.242188 150.558594 L 252.925781 148.433594 L 257.609375 145.128906 L 260.734375 141.226563 L 263.667969 138.527344 L 264 138.28125 "/>
<path style="fill:none;stroke-width:6;stroke-linecap:round;stroke-linejoin:round;stroke:rgb(100%,100%,100%);stroke-opacity:1;stroke-miterlimit:10;" d="M 120.273438 46.542969 L 123.609375 48.550781 L 126.652344 50.882813 "/>
<path style="fill:none;stroke-width:6;stroke-linecap:round;stroke-linejoin:round;stroke:rgb(100%,100%,100%);stroke-opacity:1;stroke-miterlimit:10;" d="M 50.058594 66.832031 L 69.191406 89.925781 L 73.21875 94.566406 L 73.886719 99.027344 L 72.011719 105.34375 L 71.132813 109 L 70.742188 112.367188 L 72.269531 115.730469 L 74.234375 117.050781 L 94.296875 128.296875 L 99.367188 130.265625 L 104.675781 131.769531 L 107.277344 133.679688 "/>
<path style="fill:none;stroke-width:6;stroke-linecap:round;stroke-linejoin:round;stroke:rgb(100%,100%,100%);stroke-opacity:1;stroke-miterlimit:10;" d="M 118.4375 44.933594 L 120.273438 46.542969 "/>
<path style="fill:none;stroke-width:6;stroke-linecap:round;stroke-linejoin:round;stroke:rgb(100%,100%,100%);stroke-opacity:1;stroke-miterlimit:10;" d="M 233.363281 81.832031 L 241.96875 112.609375 "/>
<path style="fill:none;stroke-width:6;stroke-linecap:round;stroke-linejoin:round;stroke:rgb(100%,100%,100%);stroke-opacity:1;stroke-miterlimit:10;" d="M 105.390625 66.246094 L 108.285156 63.234375 L 120.273438 46.542969 L 123.839844 39.195313 "/>
<path style="fill:none;stroke-width:6;stroke-linecap:round;stroke-linejoin:round;stroke:rgb(100%,100%,100%);stroke-opacity:1;stroke-miterlimit:10;" d="M 123.839844 39.195313 L 118.4375 44.933594 L 106.714844 61.449219 L 105.390625 66.246094 "/>
<path style="fill:none;stroke-width:6;stroke-linecap:round;stroke-linejoin:round;stroke:rgb(100%,100%,100%);stroke-opacity:1;stroke-miterlimit:10;" d="M 123.839844 39.195313 L 135.925781 28.789063 L 139.652344 24.507813 L 143.527344 16.296875 L 153.136719 -9 "/>
<path style="fill:none;stroke-width:6;stroke-linecap:round;stroke-linejoin:round;stroke:rgb(100%,100%,100%);stroke-opacity:1;stroke-miterlimit:10;" d="M 98.449219 -9 L 97.988281 -7.570313 L 97.515625 -1.226563 L 98.75 4.605469 L 100.558594 8.101563 L 123.839844 39.195313 "/>
<path style="fill:none;stroke-width:6;stroke-linecap:round;stroke-linejoin:round;stroke:rgb(100%,100%,100%);stroke-opacity:1;stroke-miterlimit:10;" d="M -9 16.894531 L -3.226563 23.035156 L 6.976563 32.558594 L 32.042969 48.050781 L 37.453125 52.945313 L 44.875 60.578125 L 50.058594 66.832031 "/>
<path style="fill:none;stroke-width:6;stroke-linecap:round;stroke-linejoin:round;stroke:rgb(100%,100%,100%);stroke-opacity:1;stroke-miterlimit:10;" d="M 216.109375 143.429688 L 208.058594 152.773438 L 205.8125 157.054688 L 204.398438 163.585938 L 204.632813 169.945313 L 206.066406 175.332031 L 217.460938 194.335938 L 220.503906 199.785156 L 221.863281 203.699219 L 222.246094 206.804688 L 222.460938 209.046875 L 222.097656 212.652344 L 221.4375 216.394531 L 220.738281 220.25 L 220.398438 223.636719 L 220.839844 230.40625 L 222.242188 238.160156 L 225.96875 248.414063 L 232.003906 256.917969 L 236.375 261.503906 L 239.542969 264 "/>
<path style="fill:none;stroke-width:6;stroke-linecap:round;stroke-linejoin:round;stroke:rgb(100%,100%,100%);stroke-opacity:1;stroke-miterlimit:10;" d="M 194.382813 98.859375 L 198.621094 92.324219 L 202.746094 87.714844 L 206.1875 84.984375 L 211.039063 82.675781 L 217.554688 81.765625 L 229.765625 82.105469 L 233.363281 81.832031 L 235.769531 80.957031 L 238.359375 79.390625 L 242.242188 76.449219 L 245.621094 73.628906 L 251.699219 66.640625 L 255.011719 61.921875 L 259.851563 56.085938 L 262.582031 53.816406 L 264 53.117188 "/>
<path style="fill:none;stroke-width:6;stroke-linecap:round;stroke-linejoin:round;stroke:rgb(100%,100%,100%);stroke-opacity:1;stroke-miterlimit:10;" d="M 44.875 60.578125 L 53.347656 54.972656 L 58.21875 52.847656 L 64.859375 50.339844 L 67.980469 49.578125 L 70.5 49.578125 L 77.324219 50.179688 L 82.566406 51.195313 L 86.644531 53.164063 L 89.953125 55.324219 L 98.484375 62.179688 L 105.390625 66.246094 L 124.511719 81.417969 L 134.019531 86.75 L 141.21875 89.101563 L 150.167969 90.910156 L 156.203125 91.511719 L 164.964844 91.164063 L 176.636719 92.179688 L 181.109375 93.164063 L 194.382813 98.859375 L 198.125 102.375 L 201.464844 106.210938 L 204.308594 110.953125 L 205.582031 114.085938 L 206.492188 117.894531 L 208.203125 125.882813 L 208.820313 129.554688 L 209.933594 133.296875 L 211.527344 137.339844 L 213.585938 140.699219 L 216.109375 143.429688 L 222.75 148.71875 L 226.246094 150.496094 L 231.511719 151.671875 L 238.128906 151.890625 L 243.558594 151.734375 L 248.242188 150.558594 L 252.925781 148.433594 L 257.609375 145.128906 L 260.734375 141.226563 L 263.667969 138.527344 L 264 138.28125 "/>
<path style="fill:none;stroke-width:3;stroke-linecap:round;stroke-linejoin:round;stroke:rgb(100%,100%,100%);stroke-opacity:1;stroke-miterlimit:10;" d="M 130.265625 80.726563 L 129.65625 81.710938 C 129.5625 81.242188 129.398438 80.84375 129.171875 80.507813 C 128.941406 80.164063 128.648438 79.882813 128.296875 79.664063 C 127.597656 79.238281 126.910156 79.144531 126.234375 79.382813 C 125.566406 79.625 124.957031 80.191406 124.40625 81.085938 C 123.851563 81.984375 123.613281 82.789063 123.6875 83.507813 C 123.769531 84.214844 124.160156 84.78125 124.859375 85.210938 C 125.210938 85.429688 125.59375 85.5625 126 85.617188 C 126.40625 85.679688 126.835938 85.652344 127.296875 85.539063 L 126.703125 86.492188 C 126.273438 86.523438 125.863281 86.496094 125.46875 86.414063 C 125.082031 86.328125 124.707031 86.171875 124.34375 85.945313 C 123.414063 85.371094 122.878906 84.605469 122.734375 83.648438 C 122.597656 82.679688 122.867188 81.648438 123.546875 80.554688 C 124.222656 79.460938 125.019531 78.765625 125.9375 78.460938 C 126.863281 78.148438 127.789063 78.28125 128.71875 78.851563 C 129.09375 79.082031 129.40625 79.359375 129.65625 79.679688 C 129.914063 79.992188 130.117188 80.34375 130.265625 80.726563 Z M 132.214844 84.203125 C 131.796875 83.976563 131.363281 83.976563 130.917969 84.203125 C 130.46875 84.433594 130.074219 84.859375 129.730469 85.484375 C 129.375 86.109375 129.21875 86.671875 129.261719 87.171875 C 129.3125 87.660156 129.546875 88.019531 129.964844 88.25 C 130.378906 88.476563 130.808594 88.476563 131.246094 88.25 C 131.683594 88.03125 132.078125 87.609375 132.433594 86.984375 C 132.777344 86.359375 132.925781 85.796875 132.886719 85.296875 C 132.855469 84.796875 132.628906 84.433594 132.214844 84.203125 Z M 132.621094 83.46875 C 133.296875 83.84375 133.691406 84.386719 133.808594 85.09375 C 133.921875 85.792969 133.738281 86.574219 133.261719 87.4375 C 132.78125 88.289063 132.214844 88.859375 131.558594 89.140625 C 130.902344 89.421875 130.234375 89.375 129.558594 89 C 128.871094 88.625 128.46875 88.082031 128.355469 87.375 C 128.25 86.667969 128.4375 85.886719 128.917969 85.03125 C 129.394531 84.167969 129.957031 83.601563 130.605469 83.328125 C 131.261719 83.046875 131.933594 83.09375 132.621094 83.46875 Z M 134.496094 88.613281 L 135.621094 85.160156 L 136.480469 85.425781 L 135.371094 88.863281 C 135.191406 89.394531 135.152344 89.828125 135.246094 90.160156 C 135.347656 90.496094 135.589844 90.722656 135.964844 90.847656 C 136.421875 91.003906 136.832031 90.960938 137.199219 90.722656 C 137.574219 90.484375 137.855469 90.082031 138.042969 89.519531 L 139.089844 86.285156 L 139.933594 86.566406 L 138.074219 92.285156 L 137.230469 92.003906 L 137.511719 91.128906 C 137.1875 91.410156 136.863281 91.589844 136.542969 91.675781 C 136.230469 91.757813 135.886719 91.738281 135.511719 91.613281 C 134.925781 91.425781 134.546875 91.074219 134.371094 90.566406 C 134.203125 90.058594 134.246094 89.40625 134.496094 88.613281 Z M 137.792969 85.707031 Z M 145.414063 90.320313 L 144.617188 93.851563 L 143.742188 93.648438 L 144.523438 90.148438 C 144.648438 89.585938 144.640625 89.148438 144.507813 88.835938 C 144.371094 88.515625 144.109375 88.3125 143.726563 88.226563 C 143.257813 88.125 142.851563 88.207031 142.507813 88.476563 C 142.164063 88.75 141.929688 89.164063 141.804688 89.726563 L 141.054688 93.054688 L 140.179688 92.851563 L 141.492188 86.976563 L 142.367188 87.179688 L 142.164063 88.101563 C 142.445313 87.789063 142.742188 87.578125 143.054688 87.460938 C 143.375 87.347656 143.730469 87.332031 144.117188 87.414063 C 144.710938 87.550781 145.117188 87.867188 145.335938 88.367188 C 145.5625 88.859375 145.589844 89.507813 145.414063 90.320313 Z M 148.820313 86.84375 L 148.476563 88.515625 L 150.257813 88.875 L 150.117188 89.625 L 148.335938 89.265625 L 147.679688 92.46875 C 147.585938 92.949219 147.578125 93.273438 147.664063 93.4375 C 147.757813 93.59375 147.992188 93.710938 148.367188 93.78125 L 149.242188 93.953125 L 149.070313 94.765625 L 148.195313 94.59375 C 147.515625 94.457031 147.078125 94.222656 146.882813 93.890625 C 146.683594 93.558594 146.65625 93.027344 146.804688 92.296875 L 147.460938 89.09375 L 146.820313 88.953125 L 146.960938 88.203125 L 147.601563 88.34375 L 147.945313 86.671875 Z M 154.273438 90.21875 C 154.179688 90.148438 154.070313 90.089844 153.945313 90.046875 C 153.828125 90.007813 153.703125 89.980469 153.570313 89.96875 C 153.058594 89.917969 152.652344 90.058594 152.351563 90.390625 C 152.046875 90.726563 151.867188 91.230469 151.804688 91.90625 L 151.476563 95.0625 L 150.585938 94.96875 L 151.195313 88.984375 L 152.085938 89.078125 L 151.992188 90.015625 C 152.210938 89.664063 152.476563 89.414063 152.789063 89.265625 C 153.109375 89.121094 153.484375 89.070313 153.914063 89.109375 C 153.976563 89.121094 154.042969 89.132813 154.117188 89.140625 C 154.199219 89.152344 154.28125 89.171875 154.367188 89.203125 Z M 157.289063 95.898438 C 157.027344 96.617188 156.777344 97.078125 156.539063 97.289063 C 156.296875 97.496094 155.980469 97.601563 155.585938 97.601563 L 154.867188 97.585938 L 154.867188 96.773438 L 155.398438 96.789063 C 155.636719 96.789063 155.824219 96.71875 155.960938 96.585938 C 156.09375 96.460938 156.25 96.15625 156.429688 95.679688 L 156.585938 95.242188 L 154.460938 89.289063 L 155.398438 89.304688 L 157.039063 94.023438 L 158.789063 89.335938 L 159.726563 89.335938 Z M 160.402344 89.347656 L 161.308594 89.363281 L 162.386719 94.050781 L 163.527344 89.378906 L 164.574219 89.394531 L 165.652344 94.082031 L 166.792969 89.410156 L 167.683594 89.410156 L 166.214844 95.425781 L 165.167969 95.410156 L 164.042969 90.457031 L 162.824219 95.394531 L 161.777344 95.378906 Z M 171.359375 92.699219 C 170.640625 92.636719 170.132813 92.691406 169.84375 92.855469 C 169.5625 93.011719 169.398438 93.304688 169.359375 93.730469 C 169.328125 94.074219 169.40625 94.363281 169.59375 94.589844 C 169.78125 94.820313 170.050781 94.949219 170.40625 94.980469 C 170.90625 95.023438 171.316406 94.863281 171.640625 94.496094 C 171.972656 94.132813 172.171875 93.636719 172.234375 93.011719 L 172.25 92.777344 Z M 173.171875 92.449219 L 172.875 95.871094 L 171.984375 95.792969 L 172.0625 94.886719 C 171.820313 95.230469 171.539063 95.472656 171.21875 95.621094 C 170.90625 95.765625 170.53125 95.816406 170.09375 95.777344 C 169.550781 95.734375 169.128906 95.527344 168.828125 95.152344 C 168.535156 94.777344 168.414063 94.300781 168.46875 93.714844 C 168.519531 93.050781 168.765625 92.566406 169.203125 92.261719 C 169.640625 91.949219 170.257813 91.832031 171.0625 91.902344 L 172.3125 92.011719 L 172.328125 91.917969 C 172.359375 91.460938 172.25 91.097656 172 90.824219 C 171.757813 90.542969 171.394531 90.382813 170.90625 90.339844 C 170.601563 90.320313 170.300781 90.339844 170 90.402344 C 169.695313 90.457031 169.40625 90.550781 169.125 90.683594 L 169.203125 89.777344 C 169.546875 89.664063 169.867188 89.585938 170.171875 89.542969 C 170.472656 89.503906 170.769531 89.496094 171.0625 89.527344 C 171.84375 89.589844 172.410156 89.867188 172.765625 90.355469 C 173.117188 90.835938 173.253906 91.535156 173.171875 92.449219 Z M 175.46875 87.707031 L 176.34375 87.785156 L 175.53125 96.113281 L 174.65625 96.035156 Z M 178.820313 88.246094 L 179.695313 88.480469 L 178.429688 93.246094 L 181.648438 91.433594 L 182.757813 91.714844 L 179.257813 93.699219 L 181.320313 97.558594 L 180.195313 97.261719 L 178.304688 93.714844 L 177.539063 96.558594 L 176.664063 96.324219 Z M 189.1875 96.894531 C 189.351563 97.050781 189.476563 97.285156 189.5625 97.597656 C 189.644531 97.910156 189.6875 98.316406 189.6875 98.816406 L 189.734375 101.207031 L 188.765625 100.800781 L 188.734375 98.550781 C 188.722656 97.96875 188.648438 97.550781 188.515625 97.300781 C 188.378906 97.050781 188.132813 96.847656 187.78125 96.691406 L 186.8125 96.269531 L 185.46875 99.378906 L 184.5625 98.988281 L 187.71875 91.628906 L 189.75 92.503906 C 190.507813 92.839844 191 93.261719 191.21875 93.769531 C 191.4375 94.269531 191.394531 94.878906 191.09375 95.597656 C 190.894531 96.058594 190.632813 96.402344 190.3125 96.628906 C 189.988281 96.847656 189.613281 96.9375 189.1875 96.894531 Z M 188.28125 92.832031 L 187.15625 95.441406 L 188.28125 95.925781 C 188.71875 96.113281 189.09375 96.144531 189.40625 96.019531 C 189.71875 95.894531 189.96875 95.621094 190.15625 95.191406 C 190.34375 94.753906 190.375 94.378906 190.25 94.066406 C 190.125 93.753906 189.84375 93.503906 189.40625 93.316406 Z M 194.835938 98.1875 C 194.429688 97.929688 193.996094 97.898438 193.539063 98.09375 C 193.078125 98.292969 192.65625 98.695313 192.273438 99.296875 C 191.875 99.902344 191.679688 100.453125 191.679688 100.953125 C 191.6875 101.441406 191.898438 101.816406 192.304688 102.078125 C 192.699219 102.335938 193.121094 102.367188 193.570313 102.171875 C 194.027344 101.984375 194.453125 101.585938 194.851563 100.984375 C 195.234375 100.382813 195.429688 99.828125 195.429688 99.328125 C 195.429688 98.828125 195.230469 98.449219 194.835938 98.1875 Z M 195.289063 97.5 C 195.933594 97.917969 196.289063 98.484375 196.351563 99.203125 C 196.421875 99.914063 196.1875 100.679688 195.648438 101.5 C 195.117188 102.320313 194.511719 102.84375 193.835938 103.0625 C 193.15625 103.289063 192.496094 103.195313 191.851563 102.78125 C 191.195313 102.351563 190.835938 101.785156 190.773438 101.078125 C 190.710938 100.371094 190.945313 99.605469 191.476563 98.78125 C 192.015625 97.960938 192.621094 97.433594 193.289063 97.203125 C 193.964844 96.976563 194.632813 97.074219 195.289063 97.5 Z M 198.164063 104.023438 C 197.671875 103.503906 197.261719 103.207031 196.929688 103.132813 C 196.605469 103.0625 196.289063 103.175781 195.976563 103.476563 C 195.726563 103.703125 195.589844 103.96875 195.570313 104.273438 C 195.558594 104.574219 195.671875 104.851563 195.914063 105.101563 C 196.257813 105.464844 196.671875 105.621094 197.164063 105.570313 C 197.652344 105.515625 198.132813 105.277344 198.601563 104.851563 L 198.773438 104.679688 Z M 199.679688 105.070313 L 197.164063 107.414063 L 196.554688 106.757813 L 197.210938 106.132813 C 196.8125 106.226563 196.449219 106.21875 196.117188 106.117188 C 195.78125 106.023438 195.464844 105.8125 195.164063 105.492188 C 194.789063 105.09375 194.609375 104.65625 194.632813 104.179688 C 194.664063 103.710938 194.890625 103.273438 195.320313 102.867188 C 195.808594 102.410156 196.3125 102.210938 196.835938 102.273438 C 197.367188 102.335938 197.914063 102.664063 198.476563 103.257813 L 199.320313 104.164063 L 199.398438 104.101563 C 199.730469 103.789063 199.898438 103.453125 199.898438 103.085938 C 199.898438 102.710938 199.730469 102.347656 199.398438 101.992188 C 199.1875 101.773438 198.949219 101.585938 198.679688 101.429688 C 198.417969 101.265625 198.136719 101.140625 197.835938 101.054688 L 198.492188 100.429688 C 198.824219 100.578125 199.121094 100.738281 199.382813 100.914063 C 199.640625 101.09375 199.871094 101.285156 200.070313 101.492188 C 200.601563 102.066406 200.835938 102.648438 200.773438 103.242188 C 200.710938 103.835938 200.34375 104.445313 199.679688 105.070313 Z M 204.066406 108.507813 L 206.800781 106.742188 L 207.285156 107.492188 L 200.253906 112.023438 L 199.769531 111.273438 L 200.535156 110.789063 C 200.117188 110.828125 199.761719 110.773438 199.472656 110.617188 C 199.179688 110.46875 198.925781 110.230469 198.707031 109.898438 C 198.351563 109.34375 198.304688 108.734375 198.566406 108.070313 C 198.824219 107.414063 199.351563 106.832031 200.144531 106.320313 C 200.945313 105.8125 201.699219 105.570313 202.410156 105.601563 C 203.117188 105.632813 203.648438 105.925781 204.003906 106.476563 C 204.222656 106.8125 204.332031 107.144531 204.332031 107.476563 C 204.339844 107.808594 204.253906 108.152344 204.066406 108.507813 Z M 200.644531 107.101563 C 200.039063 107.496094 199.632813 107.917969 199.425781 108.367188 C 199.226563 108.8125 199.253906 109.234375 199.503906 109.632813 C 199.761719 110.027344 200.136719 110.226563 200.628906 110.226563 C 201.128906 110.234375 201.679688 110.042969 202.285156 109.648438 C 202.898438 109.25 203.304688 108.824219 203.503906 108.367188 C 203.710938 107.917969 203.683594 107.496094 203.425781 107.101563 C 203.175781 106.707031 202.800781 106.507813 202.300781 106.507813 C 201.808594 106.507813 201.257813 106.707031 200.644531 107.101563 Z M 200.644531 107.101563 "/>
<path style=" stroke:none;fill-rule:evenodd;fill:rgb(20%,20%,20%);fill-opacity:1;" d="M 130.265625 80.726563 L 129.65625 81.710938 C 129.5625 81.242188 129.398438 80.84375 129.171875 80.507813 C 128.941406 80.164063 128.648438 79.882813 128.296875 79.664063 C 127.597656 79.238281 126.910156 79.144531 126.234375 79.382813 C 125.566406 79.625 124.957031 80.191406 124.40625 81.085938 C 123.851563 81.984375 123.613281 82.789063 123.6875 83.507813 C 123.769531 84.214844 124.160156 84.78125 124.859375 85.210938 C 125.210938 85.429688 125.59375 85.5625 126 85.617188 C 126.40625 85.679688 126.835938 85.652344 127.296875 85.539063 L 126.703125 86.492188 C 126.273438 86.523438 125.863281 86.496094 125.46875 86.414063 C 125.082031 86.328125 124.707031 86.171875 124.34375 85.945313 C 123.414063 85.371094 122.878906 84.605469 122.734375 83.648438 C 122.597656 82.679688 122.867188 81.648438 123.546875 80.554688 C 124.222656 79.460938 125.019531 78.765625 125.9375 78.460938 C 126.863281 78.148438 127.789063 78.28125 128.71875 78.851563 C 129.09375 79.082031 129.40625 79.359375 129.65625 79.679688 C 129.914063 79.992188 130.117188 80.34375 130.265625 80.726563 Z M 132.214844 84.203125 C 131.796875 83.976563 131.363281 83.976563 130.917969 84.203125 C 130.46875 84.433594 130.074219 84.859375 129.730469 85.484375 C 129.375 86.109375 129.21875 86.671875 129.261719 87.171875 C 129.3125 87.660156 129.546875 88.019531 129.964844 88.25 C 130.378906 88.476563 130.808594 88.476563 131.246094 88.25 C 131.683594 88.03125 132.078125 87.609375 132.433594 86.984375 C 132.777344 86.359375 132.925781 85.796875 132.886719 85.296875 C 132.855469 84.796875 132.628906 84.433594 132.214844 84.203125 Z M 132.621094 83.46875 C 133.296875 83.84375 133.691406 84.386719 133.808594 85.09375 C 133.921875 85.792969 133.738281 86.574219 133.261719 87.4375 C 132.78125 88.289063 132.214844 88.859375 131.558594 89.140625 C 130.902344 89.421875 130.234375 89.375 129.558594 89 C 128.871094 88.625 128.46875 88.082031 128.355469 87.375 C 128.25 86.667969 128.4375 85.886719 128.917969 85.03125 C 129.394531 84.167969 129.957031 83.601563 130.605469 83.328125 C 131.261719 83.046875 131.933594 83.09375 132.621094 83.46875 Z M 134.496094 88.613281 L 135.621094 85.160156 L 136.480469 85.425781 L 135.371094 88.863281 C 135.191406 89.394531 135.152344 89.828125 135.246094 90.160156 C 135.347656 90.496094 135.589844 90.722656 135.964844 90.847656 C 136.421875 91.003906 136.832031 90.960938 137.199219 90.722656 C 137.574219 90.484375 137.855469 90.082031 138.042969 89.519531 L 139.089844 86.285156 L 139.933594 86.566406 L 138.074219 92.285156 L 137.230469 92.003906 L 137.511719 91.128906 C 137.1875 91.410156 136.863281 91.589844 136.542969 91.675781 C 136.230469 91.757813 135.886719 91.738281 135.511719 91.613281 C 134.925781 91.425781 134.546875 91.074219 134.371094 90.566406 C 134.203125 90.058594 134.246094 89.40625 134.496094 88.613281 Z M 137.792969 85.707031 Z M 145.414063 90.320313 L 144.617188 93.851563 L 143.742188 93.648438 L 144.523438 90.148438 C 144.648438 89.585938 144.640625 89.148438 144.507813 88.835938 C 144.371094 88.515625 144.109375 88.3125 143.726563 88.226563 C 143.257813 88.125 142.851563 88.207031 142.507813 88.476563 C 142.164063 88.75 141.929688 89.164063 141.804688 89.726563 L 141.054688 93.054688 L 140.179688 92.851563 L 141.492188 86.976563 L 142.367188 87.179688 L 142.164063 88.101563 C 142.445313 87.789063 142.742188 87.578125 143.054688 87.460938 C 143.375 87.347656 143.730469 87.332031 144.117188 87.414063 C 144.710938 87.550781 145.117188 87.867188 145.335938 88.367188 C 145.5625 88.859375 145.589844 89.507813 145.414063 90.320313 Z M 148.820313 86.84375 L 148.476563 88.515625 L 150.257813 88.875 L 150.117188 89.625 L 148.335938 89.265625 L 147.679688 92.46875 C 147.585938 92.949219 147.578125 93.273438 147.664063 93.4375 C 147.757813 93.59375 147.992188 93.710938 148.367188 93.78125 L 149.242188 93.953125 L 149.070313 94.765625 L 148.195313 94.59375 C 147.515625 94.457031 147.078125 94.222656 146.882813 93.890625 C 146.683594 93.558594 146.65625 93.027344 146.804688 92.296875 L 147.460938 89.09375 L 146.820313 88.953125 L 146.960938 88.203125 L 147.601563 88.34375 L 147.945313 86.671875 Z M 154.273438 90.21875 C 154.179688 90.148438 154.070313 90.089844 153.945313 90.046875 C 153.828125 90.007813 153.703125 89.980469 153.570313 89.96875 C 153.058594 89.917969 152.652344 90.058594 152.351563 90.390625 C 152.046875 90.726563 151.867188 91.230469 151.804688 91.90625 L 151.476563 95.0625 L 150.585938 94.96875 L 151.195313 88.984375 L 152.085938 89.078125 L 151.992188 90.015625 C 152.210938 89.664063 152.476563 89.414063 152.789063 89.265625 C 153.109375 89.121094 153.484375 89.070313 153.914063 89.109375 C 153.976563 89.121094 154.042969 89.132813 154.117188 89.140625 C 154.199219 89.152344 154.28125 89.171875 154.367188 89.203125 Z M 157.289063 95.898438 C 157.027344 96.617188 156.777344 97.078125 156.539063 97.289063 C 156.296875 97.496094 155.980469 97.601563 155.585938 97.601563 L 154.867188 97.585938 L 154.867188 96.773438 L 155.398438 96.789063 C 155.636719 96.789063 155.824219 96.71875 155.960938 96.585938 C 156.09375 96.460938 156.25 96.15625 156.429688 95.679688 L 156.585938 95.242188 L 154.460938 89.289063 L 155.398438 89.304688 L 157.039063 94.023438 L 158.789063 89.335938 L 159.726563 89.335938 Z M 160.402344 89.347656 L 161.308594 89.363281 L 162.386719 94.050781 L 163.527344 89.378906 L 164.574219 89.394531 L 165.652344 94.082031 L 166.792969 89.410156 L 167.683594 89.410156 L 166.214844 95.425781 L 165.167969 95.410156 L 164.042969 90.457031 L 162.824219 95.394531 L 161.777344 95.378906 Z M 171.359375 92.699219 C 170.640625 92.636719 170.132813 92.691406 169.84375 92.855469 C 169.5625 93.011719 169.398438 93.304688 169.359375 93.730469 C 169.328125 94.074219 169.40625 94.363281 169.59375 94.589844 C 169.78125 94.820313 170.050781 94.949219 170.40625 94.980469 C 170.90625 95.023438 171.316406 94.863281 171.640625 94.496094 C 171.972656 94.132813 172.171875 93.636719 172.234375 93.011719 L 172.25 92.777344 Z M 173.171875 92.449219 L 172.875 95.871094 L 171.984375 95.792969 L 172.0625 94.886719 C 171.820313 95.230469 171.539063 95.472656 171.21875 95.621094 C 170.90625 95.765625 170.53125 95.816406 170.09375 95.777344 C 169.550781 95.734375 169.128906 95.527344 168.828125 95.152344 C 168.535156 94.777344 168.414063 94.300781 168.46875 93.714844 C 168.519531 93.050781 168.765625 92.566406 169.203125 92.261719 C 169.640625 91.949219 170.257813 91.832031 171.0625 91.902344 L 172.3125 92.011719 L 172.328125 91.917969 C 172.359375 91.460938 172.25 91.097656 172 90.824219 C 171.757813 90.542969 171.394531 90.382813 170.90625 90.339844 C 170.601563 90.320313 170.300781 90.339844 170 90.402344 C 169.695313 90.457031 169.40625 90.550781 169.125 90.683594 L 169.203125 89.777344 C 169.546875 89.664063 169.867188 89.585938 170.171875 89.542969 C 170.472656 89.503906 170.769531 89.496094 171.0625 89.527344 C 171.84375 89.589844 172.410156 89.867188 172.765625 90.355469 C 173.117188 90.835938 173.253906 91.535156 173.171875 92.449219 Z M 175.46875 87.707031 L 176.34375 87.785156 L 175.53125 96.113281 L 174.65625 96.035156 Z M 178.820313 88.246094 L 179.695313 88.480469 L 178.429688 93.246094 L 181.648438 91.433594 L 182.757813 91.714844 L 179.257813 93.699219 L 181.320313 97.558594 L 180.195313 97.261719 L 178.304688 93.714844 L 177.539063 96.558594 L 176.664063 96.324219 Z M 189.1875 96.894531 C 189.351563 97.050781 189.476563 97.285156 189.5625 97.597656 C 189.644531 97.910156 189.6875 98.316406 189.6875 98.816406 L 189.734375 101.207031 L 188.765625 100.800781 L 188.734375 98.550781 C 188.722656 97.96875 188.648438 97.550781 188.515625 97.300781 C 188.378906 97.050781 188.132813 96.847656 187.78125 96.691406 L 186.8125 96.269531 L 185.46875 99.378906 L 184.5625 98.988281 L 187.71875 91.628906 L 189.75 92.503906 C 190.507813 92.839844 191 93.261719 191.21875 93.769531 C 191.4375 94.269531 191.394531 94.878906 191.09375 95.597656 C 190.894531 96.058594 190.632813 96.402344 190.3125 96.628906 C 189.988281 96.847656 189.613281 96.9375 189.1875 96.894531 Z M 188.28125 92.832031 L 187.15625 95.441406 L 188.28125 95.925781 C 188.71875 96.113281 189.09375 96.144531 189.40625 96.019531 C 189.71875 95.894531 189.96875 95.621094 190.15625 95.191406 C 190.34375 94.753906 190.375 94.378906 190.25 94.066406 C 190.125 93.753906 189.84375 93.503906 189.40625 93.316406 Z M 194.835938 98.1875 C 194.429688 97.929688 193.996094 97.898438 193.539063 98.09375 C 193.078125 98.292969 192.65625 98.695313 192.273438 99.296875 C 191.875 99.902344 191.679688 100.453125 191.679688 100.953125 C 191.6875 101.441406 191.898438 101.816406 192.304688 102.078125 C 192.699219 102.335938 193.121094 102.367188 193.570313 102.171875 C 194.027344 101.984375 194.453125 101.585938 194.851563 100.984375 C 195.234375 100.382813 195.429688 99.828125 195.429688 99.328125 C 195.429688 98.828125 195.230469 98.449219 194.835938 98.1875 Z M 195.289063 97.5 C 195.933594 97.917969 196.289063 98.484375 196.351563 99.203125 C 196.421875 99.914063 196.1875 100.679688 195.648438 101.5 C 195.117188 102.320313 194.511719 102.84375 193.835938 103.0625 C 193.15625 103.289063 192.496094 103.195313 191.851563 102.78125 C 191.195313 102.351563 190.835938 101.785156 190.773438 101.078125 C 190.710938 100.371094 190.945313 99.605469 191.476563 98.78125 C 192.015625 97.960938 192.621094 97.433594 193.289063 97.203125 C 193.964844 96.976563 194.632813 97.074219 195.289063 97.5 Z M 198.164063 104.023438 C 197.671875 103.503906 197.261719 103.207031 196.929688 103.132813 C 196.605469 103.0625 196.289063 103.175781 195.976563 103.476563 C 195.726563 103.703125 195.589844 103.96875 195.570313 104.273438 C 195.558594 104.574219 195.671875 104.851563 195.914063 105.101563 C 196.257813 105.464844 196.671875 105.621094 197.164063 105.570313 C 197.652344 105.515625 198.132813 105.277344 198.601563 104.851563 L 198.773438 104.679688 Z M 199.679688 105.070313 L 197.164063 107.414063 L 196.554688 106.757813 L 197.210938 106.132813 C 196.8125 106.226563 196.449219 106.21875 196.117188 106.117188 C 195.78125 106.023438 195.464844 105.8125 195.164063 105.492188 C 194.789063 105.09375 194.609375 104.65625 194.632813 104.179688 C 194.664063 103.710938 194.890625 103.273438 195.320313 102.867188 C 195.808594 102.410156 196.3125 102.210938 196.835938 102.273438 C 197.367188 102.335938 197.914063 102.664063 198.476563 103.257813 L 199.320313 104.164063 L 199.398438 104.101563 C 199.730469 103.789063 199.898438 103.453125 199.898438 103.085938 C 199.898438 102.710938 199.730469 102.347656 199.398438 101.992188 C 199.1875 101.773438 198.949219 101.585938 198.679688 101.429688 C 198.417969 101.265625 198.136719 101.140625 197.835938 101.054688 L 198.492188 100.429688 C 198.824219 100.578125 199.121094 100.738281 199.382813 100.914063 C 199.640625 101.09375 199.871094 101.285156 200.070313 101.492188 C 200.601563 102.066406 200.835938 102.648438 200.773438 103.242188 C 200.710938 103.835938 200.34375 104.445313 199.679688 105.070313 Z M 204.066406 108.507813 L 206.800781 106.742188 L 207.285156 107.492188 L 200.253906 112.023438 L 199.769531 111.273438 L 200.535156 110.789063 C 200.117188 110.828125 199.761719 110.773438 199.472656 110.617188 C 199.179688 110.46875 198.925781 110.230469 198.707031 109.898438 C 198.351563 109.34375 198.304688 108.734375 198.566406 108.070313 C 198.824219 107.414063 199.351563 106.832031 200.144531 106.320313 C 200.945313 105.8125 201.699219 105.570313 202.410156 105.601563 C 203.117188 105.632813 203.648438 105.925781 204.003906 106.476563 C 204.222656 106.8125 204.332031 107.144531 204.332031 107.476563 C 204.339844 107.808594 204.253906 108.152344 204.066406 108.507813 Z M 200.644531 107.101563 C 200.039063 107.496094 199.632813 107.917969 199.425781 108.367188 C 199.226563 108.8125 199.253906 109.234375 199.503906 109.632813 C 199.761719 110.027344 200.136719 110.226563 200.628906 110.226563 C 201.128906 110.234375 201.679688 110.042969 202.285156 109.648438 C 202.898438 109.25 203.304688 108.824219 203.503906 108.367188 C 203.710938 107.917969 203.683594 107.496094 203.425781 107.101563 C 203.175781 106.707031 202.800781 106.507813 202.300781 106.507813 C 201.808594 106.507813 201.257813 106.707031 200.644531 107.101563 Z M 200.644531 107.101563 "/>
<path style="fill:none;stroke-width:3;stroke-linecap:round;stroke-linejoin:round;stroke:rgb(100%,100%,100%);stroke-opacity:1;stroke-miterlimit:10;" d="M 210.335938 174.960938 L 209.351563 175.320313 C 209.414063 174.914063 209.429688 174.539063 209.398438 174.195313 C 209.375 173.851563 209.3125 173.539063 209.210938 173.257813 C 209.023438 172.757813 208.773438 172.414063 208.460938 172.226563 C 208.148438 172.039063 207.792969 172.019531 207.398438 172.164063 C 207.0625 172.289063 206.84375 172.46875 206.742188 172.695313 C 206.648438 172.933594 206.636719 173.324219 206.710938 173.867188 L 206.804688 174.460938 C 206.90625 175.1875 206.835938 175.78125 206.585938 176.242188 C 206.335938 176.710938 205.90625 177.058594 205.304688 177.289063 C 204.574219 177.558594 203.9375 177.542969 203.398438 177.242188 C 202.867188 176.9375 202.445313 176.359375 202.132813 175.507813 C 202.007813 175.183594 201.917969 174.828125 201.867188 174.445313 C 201.824219 174.058594 201.808594 173.640625 201.820313 173.195313 L 202.851563 172.804688 C 202.757813 173.273438 202.714844 173.703125 202.726563 174.101563 C 202.746094 174.496094 202.820313 174.867188 202.945313 175.210938 C 203.132813 175.730469 203.390625 176.089844 203.726563 176.289063 C 204.070313 176.496094 204.453125 176.523438 204.882813 176.367188 C 205.246094 176.230469 205.496094 176.023438 205.632813 175.742188 C 205.765625 175.460938 205.796875 175.0625 205.726563 174.554688 L 205.632813 173.945313 C 205.527344 173.214844 205.578125 172.640625 205.789063 172.210938 C 206.007813 171.785156 206.40625 171.46875 206.992188 171.257813 C 207.65625 171.007813 208.257813 171.023438 208.789063 171.304688 C 209.328125 171.585938 209.742188 172.097656 210.023438 172.835938 C 210.136719 173.15625 210.21875 173.496094 210.273438 173.851563 C 210.324219 174.203125 210.34375 174.574219 210.335938 174.960938 Z M 209.625 181.988281 L 206.515625 183.847656 L 206.0625 183.097656 L 209.140625 181.253906 C 209.628906 180.949219 209.941406 180.636719 210.078125 180.316406 C 210.222656 180.003906 210.191406 179.679688 209.984375 179.347656 C 209.734375 178.933594 209.390625 178.691406 208.953125 178.628906 C 208.523438 178.566406 208.0625 178.6875 207.5625 178.988281 L 204.640625 180.738281 L 204.171875 179.957031 L 211.34375 175.660156 L 211.8125 176.441406 L 209 178.128906 C 209.414063 178.121094 209.773438 178.191406 210.078125 178.347656 C 210.378906 178.496094 210.628906 178.734375 210.828125 179.066406 C 211.140625 179.585938 211.195313 180.097656 211 180.597656 C 210.800781 181.097656 210.34375 181.558594 209.625 181.988281 Z M 211.292969 185.921875 C 210.917969 185.304688 210.578125 184.925781 210.277344 184.78125 C 209.984375 184.644531 209.644531 184.6875 209.261719 184.90625 C 208.96875 185.082031 208.785156 185.316406 208.714844 185.609375 C 208.640625 185.898438 208.699219 186.195313 208.886719 186.5 C 209.144531 186.925781 209.515625 187.164063 209.996094 187.21875 C 210.484375 187.269531 211.003906 187.132813 211.558594 186.8125 L 211.746094 186.6875 Z M 212.558594 187.25 L 209.605469 189.015625 L 209.152344 188.25 L 209.933594 187.78125 C 209.515625 187.789063 209.152344 187.707031 208.839844 187.53125 C 208.535156 187.363281 208.269531 187.09375 208.042969 186.71875 C 207.761719 186.25 207.683594 185.785156 207.808594 185.328125 C 207.941406 184.867188 208.261719 184.492188 208.761719 184.1875 C 209.34375 183.84375 209.886719 183.757813 210.386719 183.921875 C 210.886719 184.089844 211.34375 184.523438 211.761719 185.21875 L 212.402344 186.296875 L 212.496094 186.25 C 212.878906 186.007813 213.109375 185.707031 213.183594 185.34375 C 213.253906 184.988281 213.167969 184.601563 212.917969 184.1875 C 212.761719 183.929688 212.574219 183.695313 212.355469 183.484375 C 212.136719 183.265625 211.878906 183.085938 211.589844 182.9375 L 212.371094 182.46875 C 212.671875 182.679688 212.925781 182.898438 213.136719 183.125 C 213.355469 183.34375 213.535156 183.578125 213.683594 183.828125 C 214.089844 184.507813 214.199219 185.125 214.011719 185.6875 C 213.824219 186.257813 213.339844 186.78125 212.558594 187.25 Z M 216.535156 190.652344 C 216.535156 190.527344 216.511719 190.40625 216.472656 190.292969 C 216.441406 190.175781 216.394531 190.058594 216.332031 189.933594 C 216.058594 189.496094 215.699219 189.261719 215.253906 189.230469 C 214.804688 189.191406 214.289063 189.347656 213.707031 189.699219 L 210.988281 191.324219 L 210.519531 190.542969 L 215.675781 187.449219 L 216.144531 188.230469 L 215.347656 188.714844 C 215.753906 188.683594 216.105469 188.753906 216.410156 188.917969 C 216.722656 189.074219 216.988281 189.335938 217.207031 189.699219 C 217.238281 189.753906 217.269531 189.8125 217.300781 189.886719 C 217.339844 189.957031 217.371094 190.035156 217.394531 190.121094 Z M 218.816406 194.546875 L 221.613281 192.90625 L 222.066406 193.671875 L 214.847656 197.875 L 214.394531 197.109375 L 215.175781 196.65625 C 214.769531 196.664063 214.414063 196.59375 214.113281 196.4375 C 213.820313 196.28125 213.574219 196.03125 213.378906 195.6875 C 213.042969 195.125 213.023438 194.515625 213.316406 193.859375 C 213.617188 193.214844 214.179688 192.652344 215.003906 192.171875 C 215.824219 191.703125 216.585938 191.507813 217.285156 191.578125 C 217.992188 191.640625 218.511719 191.953125 218.847656 192.515625 C 219.042969 192.859375 219.136719 193.195313 219.128906 193.515625 C 219.128906 193.847656 219.023438 194.191406 218.816406 194.546875 Z M 215.457031 192.96875 C 214.820313 193.34375 214.394531 193.742188 214.175781 194.171875 C 213.957031 194.609375 213.964844 195.03125 214.207031 195.4375 C 214.445313 195.851563 214.808594 196.078125 215.300781 196.109375 C 215.789063 196.140625 216.351563 195.96875 216.988281 195.59375 C 217.613281 195.226563 218.035156 194.820313 218.253906 194.375 C 218.480469 193.9375 218.476563 193.507813 218.238281 193.09375 C 217.996094 192.6875 217.628906 192.476563 217.128906 192.453125 C 216.636719 192.433594 216.082031 192.605469 215.457031 192.96875 Z M 221.234375 198.816406 C 221.035156 198.378906 220.6875 198.125 220.1875 198.050781 C 219.6875 197.980469 219.113281 198.09375 218.46875 198.394531 C 217.8125 198.707031 217.359375 199.070313 217.109375 199.488281 C 216.859375 199.914063 216.832031 200.347656 217.03125 200.785156 C 217.238281 201.210938 217.582031 201.460938 218.0625 201.535156 C 218.550781 201.617188 219.125 201.503906 219.78125 201.191406 C 220.425781 200.886719 220.878906 200.523438 221.140625 200.097656 C 221.410156 199.667969 221.441406 199.242188 221.234375 198.816406 Z M 221.984375 198.472656 C 222.316406 199.167969 222.320313 199.835938 222 200.472656 C 221.6875 201.105469 221.082031 201.632813 220.1875 202.050781 C 219.300781 202.464844 218.507813 202.589844 217.8125 202.425781 C 217.113281 202.269531 216.597656 201.839844 216.265625 201.144531 C 215.941406 200.433594 215.941406 199.761719 216.265625 199.128906 C 216.585938 198.492188 217.191406 197.96875 218.078125 197.550781 C 218.972656 197.136719 219.765625 197.011719 220.453125 197.175781 C 221.148438 197.332031 221.660156 197.765625 221.984375 198.472656 Z M 221.878906 207.515625 L 218.300781 208.140625 L 218.144531 207.265625 L 221.691406 206.640625 C 222.253906 206.546875 222.652344 206.367188 222.894531 206.109375 C 223.144531 205.859375 223.230469 205.539063 223.160156 205.15625 C 223.074219 204.675781 222.839844 204.332031 222.457031 204.125 C 222.082031 203.914063 221.605469 203.859375 221.035156 203.953125 L 217.675781 204.546875 L 217.519531 203.65625 L 223.441406 202.609375 L 223.597656 203.5 L 222.675781 203.671875 C 223.070313 203.816406 223.378906 204.015625 223.597656 204.265625 C 223.824219 204.515625 223.972656 204.832031 224.035156 205.21875 C 224.136719 205.820313 224.007813 206.316406 223.644531 206.703125 C 223.277344 207.097656 222.691406 207.367188 221.878906 207.515625 Z M 224.558594 218.210938 L 223.417969 218.023438 C 223.800781 217.75 224.109375 217.445313 224.339844 217.101563 C 224.566406 216.765625 224.714844 216.398438 224.777344 215.992188 C 224.910156 215.179688 224.738281 214.507813 224.261719 213.976563 C 223.78125 213.453125 223.019531 213.105469 221.980469 212.929688 C 220.9375 212.761719 220.097656 212.851563 219.464844 213.195313 C 218.839844 213.546875 218.457031 214.132813 218.324219 214.945313 C 218.261719 215.351563 218.28125 215.746094 218.386719 216.132813 C 218.488281 216.527344 218.6875 216.917969 218.980469 217.304688 L 217.855469 217.117188 C 217.667969 216.730469 217.539063 216.339844 217.464844 215.945313 C 217.394531 215.546875 217.394531 215.140625 217.464844 214.726563 C 217.644531 213.640625 218.148438 212.851563 218.980469 212.351563 C 219.8125 211.859375 220.863281 211.71875 222.136719 211.929688 C 223.40625 212.136719 224.359375 212.605469 224.996094 213.335938 C 225.628906 214.074219 225.859375 214.984375 225.683594 216.070313 C 225.609375 216.496094 225.472656 216.886719 225.277344 217.242188 C 225.089844 217.59375 224.847656 217.917969 224.558594 218.210938 Z M 222.09375 221.339844 C 222.144531 220.859375 221.976563 220.457031 221.59375 220.136719 C 221.207031 219.8125 220.660156 219.613281 219.953125 219.542969 C 219.234375 219.457031 218.65625 219.53125 218.21875 219.761719 C 217.78125 219.988281 217.535156 220.34375 217.484375 220.824219 C 217.429688 221.292969 217.59375 221.6875 217.96875 222.011719 C 218.34375 222.332031 218.890625 222.535156 219.609375 222.621094 C 220.316406 222.691406 220.894531 222.613281 221.34375 222.386719 C 221.789063 222.15625 222.039063 221.808594 222.09375 221.339844 Z M 222.90625 221.433594 C 222.820313 222.191406 222.476563 222.761719 221.875 223.136719 C 221.269531 223.519531 220.476563 223.660156 219.5 223.558594 C 218.519531 223.441406 217.773438 223.128906 217.265625 222.621094 C 216.765625 222.121094 216.558594 221.488281 216.640625 220.730469 C 216.734375 219.949219 217.085938 219.371094 217.6875 218.996094 C 218.289063 218.628906 219.082031 218.503906 220.0625 218.621094 C 221.039063 218.722656 221.78125 219.019531 222.28125 219.511719 C 222.789063 220.011719 223 220.652344 222.90625 221.433594 Z M 218.878906 225.128906 L 222.503906 224.894531 L 222.550781 225.785156 L 218.957031 226.019531 C 218.394531 226.050781 217.976563 226.175781 217.707031 226.394531 C 217.433594 226.613281 217.308594 226.917969 217.332031 227.316406 C 217.363281 227.792969 217.554688 228.160156 217.910156 228.410156 C 218.273438 228.667969 218.753906 228.777344 219.347656 228.738281 L 222.738281 228.519531 L 222.800781 229.410156 L 216.800781 229.800781 L 216.738281 228.910156 L 217.660156 228.847656 C 217.273438 228.648438 216.980469 228.417969 216.785156 228.160156 C 216.597656 227.898438 216.488281 227.574219 216.457031 227.191406 C 216.425781 226.574219 216.613281 226.089844 217.019531 225.738281 C 217.433594 225.382813 218.054688 225.179688 218.878906 225.128906 Z M 222.785156 227.113281 Z M 222.644531 234.265625 C 222.695313 234.148438 222.726563 234.03125 222.738281 233.90625 C 222.746094 233.78125 222.738281 233.65625 222.707031 233.53125 C 222.621094 233.019531 222.371094 232.664063 221.957031 232.46875 C 221.550781 232.269531 221.011719 232.234375 220.347656 232.359375 L 217.222656 232.921875 L 217.066406 232.03125 L 222.988281 230.953125 L 223.144531 231.84375 L 222.222656 232.015625 C 222.617188 232.140625 222.929688 232.332031 223.160156 232.59375 C 223.386719 232.851563 223.539063 233.191406 223.613281 233.609375 C 223.621094 233.671875 223.632813 233.738281 223.644531 233.8125 C 223.652344 233.894531 223.652344 233.976563 223.644531 234.0625 Z M 225.558594 235.546875 L 223.886719 235.859375 L 224.214844 237.65625 L 223.449219 237.796875 L 223.121094 236 L 219.917969 236.59375 C 219.4375 236.675781 219.136719 236.789063 219.011719 236.9375 C 218.894531 237.082031 218.875 237.335938 218.949219 237.703125 L 219.105469 238.59375 L 218.292969 238.75 L 218.136719 237.859375 C 218.011719 237.179688 218.0625 236.6875 218.292969 236.375 C 218.53125 236.070313 219.019531 235.851563 219.761719 235.71875 L 222.964844 235.125 L 222.839844 234.484375 L 223.605469 234.34375 L 223.730469 234.984375 L 225.402344 234.671875 Z M 225.558594 235.546875 "/>
<path style=" stroke:none;fill-rule:evenodd;fill:rgb(20%,20%,20%);fill-opacity:1;" d="M 210.335938 174.960938 L 209.351563 175.320313 C 209.414063 174.914063 209.429688 174.539063 209.398438 174.195313 C 209.375 173.851563 209.3125 173.539063 209.210938 173.257813 C 209.023438 172.757813 208.773438 172.414063 208.460938 172.226563 C 208.148438 172.039063 207.792969 172.019531 207.398438 172.164063 C 207.0625 172.289063 206.84375 172.46875 206.742188 172.695313 C 206.648438 172.933594 206.636719 173.324219 206.710938 173.867188 L 206.804688 174.460938 C 206.90625 175.1875 206.835938 175.78125 206.585938 176.242188 C 206.335938 176.710938 205.90625 177.058594 205.304688 177.289063 C 204.574219 177.558594 203.9375 177.542969 203.398438 177.242188 C 202.867188 176.9375 202.445313 176.359375 202.132813 175.507813 C 202.007813 175.183594 201.917969 174.828125 201.867188 174.445313 C 201.824219 174.058594 201.808594 173.640625 201.820313 173.195313 L 202.851563 172.804688 C 202.757813 173.273438 202.714844 173.703125 202.726563 174.101563 C 202.746094 174.496094 202.820313 174.867188 202.945313 175.210938 C 203.132813 175.730469 203.390625 176.089844 203.726563 176.289063 C 204.070313 176.496094 204.453125 176.523438 204.882813 176.367188 C 205.246094 176.230469 205.496094 176.023438 205.632813 175.742188 C 205.765625 175.460938 205.796875 175.0625 205.726563 174.554688 L 205.632813 173.945313 C 205.527344 173.214844 205.578125 172.640625 205.789063 172.210938 C 206.007813 171.785156 206.40625 171.46875 206.992188 171.257813 C 207.65625 171.007813 208.257813 171.023438 208.789063 171.304688 C 209.328125 171.585938 209.742188 172.097656 210.023438 172.835938 C 210.136719 173.15625 210.21875 173.496094 210.273438 173.851563 C 210.324219 174.203125 210.34375 174.574219 210.335938 174.960938 Z M 209.625 181.988281 L 206.515625 183.847656 L 206.0625 183.097656 L 209.140625 181.253906 C 209.628906 180.949219 209.941406 180.636719 210.078125 180.316406 C 210.222656 180.003906 210.191406 179.679688 209.984375 179.347656 C 209.734375 178.933594 209.390625 178.691406 208.953125 178.628906 C 208.523438 178.566406 208.0625 178.6875 207.5625 178.988281 L 204.640625 180.738281 L 204.171875 179.957031 L 211.34375 175.660156 L 211.8125 176.441406 L 209 178.128906 C 209.414063 178.121094 209.773438 178.191406 210.078125 178.347656 C 210.378906 178.496094 210.628906 178.734375 210.828125 179.066406 C 211.140625 179.585938 211.195313 180.097656 211 180.597656 C 210.800781 181.097656 210.34375 181.558594 209.625 181.988281 Z M 211.292969 185.921875 C 210.917969 185.304688 210.578125 184.925781 210.277344 184.78125 C 209.984375 184.644531 209.644531 184.6875 209.261719 184.90625 C 208.96875 185.082031 208.785156 185.316406 208.714844 185.609375 C 208.640625 185.898438 208.699219 186.195313 208.886719 186.5 C 209.144531 186.925781 209.515625 187.164063 209.996094 187.21875 C 210.484375 187.269531 211.003906 187.132813 211.558594 186.8125 L 211.746094 186.6875 Z M 212.558594 187.25 L 209.605469 189.015625 L 209.152344 188.25 L 209.933594 187.78125 C 209.515625 187.789063 209.152344 187.707031 208.839844 187.53125 C 208.535156 187.363281 208.269531 187.09375 208.042969 186.71875 C 207.761719 186.25 207.683594 185.785156 207.808594 185.328125 C 207.941406 184.867188 208.261719 184.492188 208.761719 184.1875 C 209.34375 183.84375 209.886719 183.757813 210.386719 183.921875 C 210.886719 184.089844 211.34375 184.523438 211.761719 185.21875 L 212.402344 186.296875 L 212.496094 186.25 C 212.878906 186.007813 213.109375 185.707031 213.183594 185.34375 C 213.253906 184.988281 213.167969 184.601563 212.917969 184.1875 C 212.761719 183.929688 212.574219 183.695313 212.355469 183.484375 C 212.136719 183.265625 211.878906 183.085938 211.589844 182.9375 L 212.371094 182.46875 C 212.671875 182.679688 212.925781 182.898438 213.136719 183.125 C 213.355469 183.34375 213.535156 183.578125 213.683594 183.828125 C 214.089844 184.507813 214.199219 185.125 214.011719 185.6875 C 213.824219 186.257813 213.339844 186.78125 212.558594 187.25 Z M 216.535156 190.652344 C 216.535156 190.527344 216.511719 190.40625 216.472656 190.292969 C 216.441406 190.175781 216.394531 190.058594 216.332031 189.933594 C 216.058594 189.496094 215.699219 189.261719 215.253906 189.230469 C 214.804688 189.191406 214.289063 189.347656 213.707031 189.699219 L 210.988281 191.324219 L 210.519531 190.542969 L 215.675781 187.449219 L 216.144531 188.230469 L 215.347656 188.714844 C 215.753906 188.683594 216.105469 188.753906 216.410156 188.917969 C 216.722656 189.074219 216.988281 189.335938 217.207031 189.699219 C 217.238281 189.753906 217.269531 189.8125 217.300781 189.886719 C 217.339844 189.957031 217.371094 190.035156 217.394531 190.121094 Z M 218.816406 194.546875 L 221.613281 192.90625 L 222.066406 193.671875 L 214.847656 197.875 L 214.394531 197.109375 L 215.175781 196.65625 C 214.769531 196.664063 214.414063 196.59375 214.113281 196.4375 C 213.820313 196.28125 213.574219 196.03125 213.378906 195.6875 C 213.042969 195.125 213.023438 194.515625 213.316406 193.859375 C 213.617188 193.214844 214.179688 192.652344 215.003906 192.171875 C 215.824219 191.703125 216.585938 191.507813 217.285156 191.578125 C 217.992188 191.640625 218.511719 191.953125 218.847656 192.515625 C 219.042969 192.859375 219.136719 193.195313 219.128906 193.515625 C 219.128906 193.847656 219.023438 194.191406 218.816406 194.546875 Z M 215.457031 192.96875 C 214.820313 193.34375 214.394531 193.742188 214.175781 194.171875 C 213.957031 194.609375 213.964844 195.03125 214.207031 195.4375 C 214.445313 195.851563 214.808594 196.078125 215.300781 196.109375 C 215.789063 196.140625 216.351563 195.96875 216.988281 195.59375 C 217.613281 195.226563 218.035156 194.820313 218.253906 194.375 C 218.480469 193.9375 218.476563 193.507813 218.238281 193.09375 C 217.996094 192.6875 217.628906 192.476563 217.128906 192.453125 C 216.636719 192.433594 216.082031 192.605469 215.457031 192.96875 Z M 221.234375 198.816406 C 221.035156 198.378906 220.6875 198.125 220.1875 198.050781 C 219.6875 197.980469 219.113281 198.09375 218.46875 198.394531 C 217.8125 198.707031 217.359375 199.070313 217.109375 199.488281 C 216.859375 199.914063 216.832031 200.347656 217.03125 200.785156 C 217.238281 201.210938 217.582031 201.460938 218.0625 201.535156 C 218.550781 201.617188 219.125 201.503906 219.78125 201.191406 C 220.425781 200.886719 220.878906 200.523438 221.140625 200.097656 C 221.410156 199.667969 221.441406 199.242188 221.234375 198.816406 Z M 221.984375 198.472656 C 222.316406 199.167969 222.320313 199.835938 222 200.472656 C 221.6875 201.105469 221.082031 201.632813 220.1875 202.050781 C 219.300781 202.464844 218.507813 202.589844 217.8125 202.425781 C 217.113281 202.269531 216.597656 201.839844 216.265625 201.144531 C 215.941406 200.433594 215.941406 199.761719 216.265625 199.128906 C 216.585938 198.492188 217.191406 197.96875 218.078125 197.550781 C 218.972656 197.136719 219.765625 197.011719 220.453125 197.175781 C 221.148438 197.332031 221.660156 197.765625 221.984375 198.472656 Z M 221.878906 207.515625 L 218.300781 208.140625 L 218.144531 207.265625 L 221.691406 206.640625 C 222.253906 206.546875 222.652344 206.367188 222.894531 206.109375 C 223.144531 205.859375 223.230469 205.539063 223.160156 205.15625 C 223.074219 204.675781 222.839844 204.332031 222.457031 204.125 C 222.082031 203.914063 221.605469 203.859375 221.035156 203.953125 L 217.675781 204.546875 L 217.519531 203.65625 L 223.441406 202.609375 L 223.597656 203.5 L 222.675781 203.671875 C 223.070313 203.816406 223.378906 204.015625 223.597656 204.265625 C 223.824219 204.515625 223.972656 204.832031 224.035156 205.21875 C 224.136719 205.820313 224.007813 206.316406 223.644531 206.703125 C 223.277344 207.097656 222.691406 207.367188 221.878906 207.515625 Z M 224.558594 218.210938 L 223.417969 218.023438 C 223.800781 217.75 224.109375 217.445313 224.339844 217.101563 C 224.566406 216.765625 224.714844 216.398438 224.777344 215.992188 C 224.910156 215.179688 224.738281 214.507813 224.261719 213.976563 C 223.78125 213.453125 223.019531 213.105469 221.980469 212.929688 C 220.9375 212.761719 220.097656 212.851563 219.464844 213.195313 C 218.839844 213.546875 218.457031 214.132813 218.324219 214.945313 C 218.261719 215.351563 218.28125 215.746094 218.386719 216.132813 C 218.488281 216.527344 218.6875 216.917969 218.980469 217.304688 L 217.855469 217.117188 C 217.667969 216.730469 217.539063 216.339844 217.464844 215.945313 C 217.394531 215.546875 217.394531 215.140625 217.464844 214.726563 C 217.644531 213.640625 218.148438 212.851563 218.980469 212.351563 C 219.8125 211.859375 220.863281 211.71875 222.136719 211.929688 C 223.40625 212.136719 224.359375 212.605469 224.996094 213.335938 C 225.628906 214.074219 225.859375 214.984375 225.683594 216.070313 C 225.609375 216.496094 225.472656 216.886719 225.277344 217.242188 C 225.089844 217.59375 224.847656 217.917969 224.558594 218.210938 Z M 222.09375 221.339844 C 222.144531 220.859375 221.976563 220.457031 221.59375 220.136719 C 221.207031 219.8125 220.660156 219.613281 219.953125 219.542969 C 219.234375 219.457031 218.65625 219.53125 218.21875 219.761719 C 217.78125 219.988281 217.535156 220.34375 217.484375 220.824219 C 217.429688 221.292969 217.59375 221.6875 217.96875 222.011719 C 218.34375 222.332031 218.890625 222.535156 219.609375 222.621094 C 220.316406 222.691406 220.894531 222.613281 221.34375 222.386719 C 221.789063 222.15625 222.039063 221.808594 222.09375 221.339844 Z M 222.90625 221.433594 C 222.820313 222.191406 222.476563 222.761719 221.875 223.136719 C 221.269531 223.519531 220.476563 223.660156 219.5 223.558594 C 218.519531 223.441406 217.773438 223.128906 217.265625 222.621094 C 216.765625 222.121094 216.558594 221.488281 216.640625 220.730469 C 216.734375 219.949219 217.085938 219.371094 217.6875 218.996094 C 218.289063 218.628906 219.082031 218.503906 220.0625 218.621094 C 221.039063 218.722656 221.78125 219.019531 222.28125 219.511719 C 222.789063 220.011719 223 220.652344 222.90625 221.433594 Z M 218.878906 225.128906 L 222.503906 224.894531 L 222.550781 225.785156 L 218.957031 226.019531 C 218.394531 226.050781 217.976563 226.175781 217.707031 226.394531 C 217.433594 226.613281 217.308594 226.917969 217.332031 227.316406 C 217.363281 227.792969 217.554688 228.160156 217.910156 228.410156 C 218.273438 228.667969 218.753906 228.777344 219.347656 228.738281 L 222.738281 228.519531 L 222.800781 229.410156 L 216.800781 229.800781 L 216.738281 228.910156 L 217.660156 228.847656 C 217.273438 228.648438 216.980469 228.417969 216.785156 228.160156 C 216.597656 227.898438 216.488281 227.574219 216.457031 227.191406 C 216.425781 226.574219 216.613281 226.089844 217.019531 225.738281 C 217.433594 225.382813 218.054688 225.179688 218.878906 225.128906 Z M 222.785156 227.113281 Z M 222.644531 234.265625 C 222.695313 234.148438 222.726563 234.03125 222.738281 233.90625 C 222.746094 233.78125 222.738281 233.65625 222.707031 233.53125 C 222.621094 233.019531 222.371094 232.664063 221.957031 232.46875 C 221.550781 232.269531 221.011719 232.234375 220.347656 232.359375 L 217.222656 232.921875 L 217.066406 232.03125 L 222.988281 230.953125 L 223.144531 231.84375 L 222.222656 232.015625 C 222.617188 232.140625 222.929688 232.332031 223.160156 232.59375 C 223.386719 232.851563 223.539063 233.191406 223.613281 233.609375 C 223.621094 233.671875 223.632813 233.738281 223.644531 233.8125 C 223.652344 233.894531 223.652344 233.976563 223.644531 234.0625 Z M 225.558594 235.546875 L 223.886719 235.859375 L 224.214844 237.65625 L 223.449219 237.796875 L 223.121094 236 L 219.917969 236.59375 C 219.4375 236.675781 219.136719 236.789063 219.011719 236.9375 C 218.894531 237.082031 218.875 237.335938 218.949219 237.703125 L 219.105469 238.59375 L 218.292969 238.75 L 218.136719 237.859375 C 218.011719 237.179688 218.0625 236.6875 218.292969 236.375 C 218.53125 236.070313 219.019531 235.851563 219.761719 235.71875 L 222.964844 235.125 L 222.839844 234.484375 L 223.605469 234.34375 L 223.730469 234.984375 L 225.402344 234.671875 Z M 225.558594 235.546875 "/>
</g>
</svg>

