<?xml version="1.0" encoding="UTF-8"?>
<svg xmlns="http://www.w3.org/2000/svg" xmlns:xlink="http://www.w3.org/1999/xlink" width="256pt" height="256pt" viewBox="0 0 256 256" version="1.1">
<g id="surface2">
<rect x="0" y="0" width="256" height="256" style="fill:rgb(94.901961%,93.72549%,91.372549%);fill-opacity:1;stroke:none;"/>
<path style="fill:none;stroke-width:1;stroke-linecap:round;stroke-linejoin:round;stroke:rgb(100%,100%,100%);stroke-opacity:1;stroke-dasharray:2,3;stroke-miterlimit:10;" d="M 27.484375 257 L 28.625 256.777344 L 32.960938 255.019531 L 34.824219 253.714844 L 36.898438 250.980469 L 43.234375 237.457031 L 44.445313 233.90625 L 46.589844 231.527344 L 48.757813 231.199219 L 50.949219 231.917969 L 56.285156 236.054688 L 58.382813 236.902344 L 63.019531 236.773438 L 67.328125 235.046875 L 71.035156 232.210938 L 74.15625 228.722656 L 77.277344 226.148438 L 82.21875 224.390625 L 101.839844 221.621094 L 104.773438 221.621094 L 118.6875 223.378906 L 132.691406 223.28125 L 149.398438 219.078125 L 160.347656 217.320313 L 173.09375 213.148438 L 175.660156 212.722656 L 189.59375 214.125 L 203.039063 216.960938 L 209.703125 217.773438 L 212.03125 217.742188 L 228.320313 214.453125 L 244.980469 215.039063 L 249.59375 215.625 L 257 218.867188 "/>
</g>
</svg>

