<?xml version="1.0" encoding="UTF-8"?>
<svg xmlns="http://www.w3.org/2000/svg" xmlns:xlink="http://www.w3.org/1999/xlink" width="256pt" height="256pt" viewBox="0 0 256 256" version="1.1">
<g id="surface2">
<rect x="0" y="0" width="256" height="256" style="fill:rgb(94.901961%,93.72549%,91.372549%);fill-opacity:1;stroke:none;"/>
<path style=" stroke:none;fill-rule:evenodd;fill:rgb(60%,70.196078%,80%);fill-opacity:1;" d="M -4 259 L -4 -4 L 259 -4 L -4 -4 Z M -4 259 "/>
<path style="fill:none;stroke-width:1;stroke-linecap:round;stroke-linejoin:round;stroke:rgb(70.196078%,77.647059%,83.137255%);stroke-opacity:1;stroke-miterlimit:10;" d="M -4 259 L -4 -4 L 259 -4 L -4 -4 L -4 259 "/>
<path style=" stroke:none;fill-rule:evenodd;fill:rgb(60%,70.196078%,80%);fill-opacity:1;" d="M 153.824219 58.589844 L 160.28125 77.265625 L 174.578125 85.105469 L 187.257813 98.246094 L 169.964844 144.589844 L 170.195313 160.039063 L 176.191406 178.023438 L 176.652344 185.398438 L 171.671875 190.527344 L 176.65625 204.191406 L 181.871094 212.832031 L 187.375 215.277344 L 196.953125 214.460938 L 210.15625 214.738281 L 220.011719 219.292969 L 228.3125 225.457031 L 239.207031 229.953125 L 248.316406 234.855469 L 254.710938 241.484375 L 256.960938 249.839844 L 258.277344 259 L 259 187.335938 L 257.578125 187.472656 L 251.816406 180.785156 L 252.277344 168.335938 L 246.050781 158.421875 L 233.832031 155.425781 L 232.214844 141.359375 L 256.886719 78.648438 L 250.199219 62.277344 L 257.347656 27.464844 L 259 22.671875 L 259 -4 L 222.679688 -4 L 206.855469 12.246094 L 197.171875 4.410156 L 178.496094 15.703125 L 167.199219 24.695313 L 148.984375 35.070313 Z M 153.824219 58.589844 "/>
<path style="fill:none;stroke-width:1;stroke-linecap:round;stroke-linejoin:round;stroke:rgb(70.196078%,77.647059%,83.137255%);stroke-opacity:1;stroke-miterlimit:10;" d="M 153.824219 58.589844 L 160.28125 77.265625 L 174.578125 85.105469 L 187.257813 98.246094 L 169.964844 144.589844 L 170.195313 160.039063 L 176.191406 178.023438 L 176.652344 185.398438 L 171.671875 190.527344 L 176.65625 204.191406 L 181.871094 212.832031 L 187.375 215.277344 L 196.953125 214.460938 L 210.15625 214.738281 L 220.011719 219.292969 L 228.3125 225.457031 L 239.207031 229.953125 L 248.316406 234.855469 L 254.710938 241.484375 L 256.960938 249.839844 L 258.277344 259 L 259 187.335938 L 257.578125 187.472656 L 251.816406 180.785156 L 252.277344 168.335938 L 246.050781 158.421875 L 233.832031 155.425781 L 232.214844 141.359375 L 256.886719 78.648438 L 250.199219 62.277344 L 257.347656 27.464844 L 259 22.671875 L 259 -4 L 222.679688 -4 L 206.855469 12.246094 L 197.171875 4.410156 L 178.496094 15.703125 L 167.199219 24.695313 L 148.984375 35.070313 L 153.824219 58.589844 "/>
<path style="fill:none;stroke-width:8;stroke-linecap:round;stroke-linejoin:round;stroke:rgb(75.686275%,70.980392%,61.568627%);stroke-opacity:1;stroke-miterlimit:10;" d="M 170.339844 191.964844 L 164.09375 193.464844 L 142.65625 200.167969 L 139.394531 200.808594 L 132.894531 199.722656 L 127.160156 199.433594 L 110.6875 197.390625 L 101.34375 197.613281 L 95.539063 198.605469 L 89.878906 199.210938 L 82.609375 200.550781 L 78.15625 201.894531 L 76.175781 203.011719 L 71.632813 206.621094 L 67.671875 207.898438 L 66.132813 208.121094 L 59.84375 207.703125 L 56.648438 208.023438 L 53.714844 209.015625 L 47.328125 211.761719 L 38.335938 214.824219 L 31.390625 218.050781 L 27.03125 221.308594 L 25.167969 222.457031 L 22.511719 223 L 19.203125 223 L 17.574219 222.679688 L 12.5625 220 L 9.441406 219.582031 L 6.363281 219.773438 "/>
<path style="fill:none;stroke-width:8;stroke-linecap:round;stroke-linejoin:round;stroke:rgb(75.686275%,70.980392%,61.568627%);stroke-opacity:1;stroke-miterlimit:10;" d="M 183.644531 215.878906 L 177.75 216.582031 "/>
<path style="fill:none;stroke-width:8;stroke-linecap:round;stroke-linejoin:round;stroke:rgb(75.686275%,70.980392%,61.568627%);stroke-opacity:1;stroke-miterlimit:10;" d="M 180.964844 213.929688 L 164.351563 212.496094 L 157.011719 213.261719 "/>
<path style="fill:none;stroke-width:8;stroke-linecap:round;stroke-linejoin:round;stroke:rgb(75.686275%,70.980392%,61.568627%);stroke-opacity:1;stroke-miterlimit:10;" d="M 257.660156 264 L 256.496094 259.304688 L 255.667969 255.65625 L 254.9375 250.296875 L 254.304688 245.816406 L 253.574219 243.136719 L 251.773438 240.703125 L 248.414063 237.488281 L 243.203125 233.9375 L 238.671875 231.546875 L 232.734375 229.746094 L 226.75 227.3125 L 223.234375 225.523438 L 216.988281 220.09375 L 212.863281 217.378906 L 208.367188 216.230469 L 198.535156 216.199219 "/>
<path style="fill:none;stroke-width:8;stroke-linecap:round;stroke-linejoin:round;stroke:rgb(75.686275%,70.980392%,61.568627%);stroke-opacity:1;stroke-miterlimit:10;" d="M 264 168.007813 L 262.753906 159.296875 L 262.148438 157.636719 L 259.1875 153.773438 L 253.386719 149.8125 L 247.792969 147.003906 L 246.371094 145.34375 L 246.046875 142.46875 L 247.816406 128.164063 L 250.308594 117.914063 L 251.335938 114.941406 L 257.019531 104.214844 L 262.683594 97.890625 L 263.636719 96.167969 L 264 95.207031 "/>
<path style="fill:none;stroke-width:8;stroke-linecap:round;stroke-linejoin:round;stroke:rgb(75.686275%,70.980392%,61.568627%);stroke-opacity:1;stroke-miterlimit:10;" d="M 198.535156 216.199219 L 187.628906 216.742188 L 183.644531 215.878906 L 180.964844 213.929688 L 179.542969 212.78125 L 178.121094 211.183594 L 176.445313 208.054688 L 173.765625 201.0625 L 170.339844 191.964844 L 159.574219 158.019531 L 151.019531 132.855469 L 149.625 127.683594 L 149.53125 115.867188 L 151.511719 83.296875 L 151.207031 76.144531 L 150.042969 67.394531 L 148.574219 52.035156 L 146.59375 40.476563 L 145.078125 25.402344 L 144.449219 9.148438 L 143.960938 3.558594 L 142.304688 -2.253906 L 139.835938 -8.800781 L 139.785156 -9 "/>
<path style="fill:none;stroke-width:6;stroke-linecap:round;stroke-linejoin:round;stroke:rgb(100%,100%,100%);stroke-opacity:1;stroke-miterlimit:10;" d="M 170.339844 191.964844 L 164.09375 193.464844 L 142.65625 200.167969 L 139.394531 200.808594 L 132.894531 199.722656 L 127.160156 199.433594 L 110.6875 197.390625 L 101.34375 197.613281 L 95.539063 198.605469 L 89.878906 199.210938 L 82.609375 200.550781 L 78.15625 201.894531 L 76.175781 203.011719 L 71.632813 206.621094 L 67.671875 207.898438 L 66.132813 208.121094 L 59.84375 207.703125 L 56.648438 208.023438 L 53.714844 209.015625 L 47.328125 211.761719 L 38.335938 214.824219 L 31.390625 218.050781 L 27.03125 221.308594 L 25.167969 222.457031 L 22.511719 223 L 19.203125 223 L 17.574219 222.679688 L 12.5625 220 L 9.441406 219.582031 L 6.363281 219.773438 "/>
<path style="fill:none;stroke-width:6;stroke-linecap:round;stroke-linejoin:round;stroke:rgb(100%,100%,100%);stroke-opacity:1;stroke-miterlimit:10;" d="M 183.644531 215.878906 L 177.75 216.582031 "/>
<path style="fill:none;stroke-width:6;stroke-linecap:round;stroke-linejoin:round;stroke:rgb(100%,100%,100%);stroke-opacity:1;stroke-miterlimit:10;" d="M 180.964844 213.929688 L 164.351563 212.496094 L 157.011719 213.261719 "/>
<path style="fill:none;stroke-width:6;stroke-linecap:round;stroke-linejoin:round;stroke:rgb(100%,100%,100%);stroke-opacity:1;stroke-miterlimit:10;" d="M 257.660156 264 L 256.496094 259.304688 L 255.667969 255.65625 L 254.9375 250.296875 L 254.304688 245.816406 L 253.574219 243.136719 L 251.773438 240.703125 L 248.414063 237.488281 L 243.203125 233.9375 L 238.671875 231.546875 L 232.734375 229.746094 L 226.75 227.3125 L 223.234375 225.523438 L 216.988281 220.09375 L 212.863281 217.378906 L 208.367188 216.230469 L 198.535156 216.199219 "/>
<path style="fill:none;stroke-width:6;stroke-linecap:round;stroke-linejoin:round;stroke:rgb(100%,100%,100%);stroke-opacity:1;stroke-miterlimit:10;" d="M 264 168.007813 L 262.753906 159.296875 L 262.148438 157.636719 L 259.1875 153.773438 L 253.386719 149.8125 L 247.792969 147.003906 L 246.371094 145.34375 L 246.046875 142.46875 L 247.816406 128.164063 L 250.308594 117.914063 L 251.335938 114.941406 L 257.019531 104.214844 L 262.683594 97.890625 L 263.636719 96.167969 L 264 95.207031 "/>
<path style="fill:none;stroke-width:6;stroke-linecap:round;stroke-linejoin:round;stroke:rgb(100%,100%,100%);stroke-opacity:1;stroke-miterlimit:10;" d="M 198.535156 216.199219 L 187.628906 216.742188 L 183.644531 215.878906 L 180.964844 213.929688 L 179.542969 212.78125 L 178.121094 211.183594 L 176.445313 208.054688 L 173.765625 201.0625 L 170.339844 191.964844 L 159.574219 158.019531 L 151.019531 132.855469 L 149.625 127.683594 L 149.53125 115.867188 L 151.511719 83.296875 L 151.207031 76.144531 L 150.042969 67.394531 L 148.574219 52.035156 L 146.59375 40.476563 L 145.078125 25.402344 L 144.449219 9.148438 L 143.960938 3.558594 L 142.304688 -2.253906 L 139.835938 -8.800781 L 139.785156 -9 "/>
<path style="fill:none;stroke-width:3;stroke-linecap:round;stroke-linejoin:round;stroke:rgb(100%,100%,100%);stroke-opacity:1;stroke-miterlimit:10;" d="M 153.46875 60.980469 L 153.5625 61.949219 L 146.484375 62.621094 L 146.8125 66.121094 L 145.90625 66.214844 L 145.484375 61.746094 Z M 149.367188 69.363281 C 149.273438 68.652344 149.117188 68.175781 148.898438 67.925781 C 148.679688 67.675781 148.351563 67.574219 147.914063 67.628906 C 147.570313 67.667969 147.308594 67.804688 147.132813 68.035156 C 146.953125 68.273438 146.886719 68.570313 146.929688 68.925781 C 146.992188 69.414063 147.230469 69.785156 147.648438 70.035156 C 148.074219 70.285156 148.605469 70.367188 149.242188 70.285156 L 149.476563 70.253906 Z M 149.976563 71.082031 L 146.570313 71.503906 L 146.460938 70.628906 L 147.367188 70.519531 C 146.96875 70.351563 146.667969 70.128906 146.460938 69.847656 C 146.25 69.574219 146.121094 69.222656 146.070313 68.785156 C 145.996094 68.230469 146.109375 67.773438 146.414063 67.410156 C 146.726563 67.042969 147.167969 66.824219 147.742188 66.753906 C 148.417969 66.667969 148.949219 66.804688 149.335938 67.160156 C 149.71875 67.523438 149.964844 68.113281 150.070313 68.925781 L 150.226563 70.160156 L 150.320313 70.144531 C 150.777344 70.089844 151.109375 69.914063 151.320313 69.613281 C 151.527344 69.308594 151.601563 68.917969 151.539063 68.441406 C 151.507813 68.136719 151.433594 67.839844 151.320313 67.550781 C 151.203125 67.269531 151.046875 67.007813 150.851563 66.769531 L 151.742188 66.660156 C 151.929688 66.960938 152.074219 67.257813 152.179688 67.550781 C 152.28125 67.851563 152.351563 68.148438 152.382813 68.441406 C 152.476563 69.210938 152.324219 69.816406 151.929688 70.253906 C 151.542969 70.691406 150.890625 70.964844 149.976563 71.082031 Z M 155.074219 72.328125 L 155.183594 73.21875 L 150.277344 73.75 L 153.136719 76.109375 L 153.261719 77.25 L 150.152344 74.703125 L 147.292969 78.015625 L 147.167969 76.859375 L 149.792969 73.796875 L 146.871094 74.125 L 146.761719 73.234375 Z M 150.726563 83.195313 L 150.242188 83.210938 L 150.085938 79.117188 C 149.40625 79.179688 148.898438 79.382813 148.554688 79.726563 C 148.21875 80.070313 148.0625 80.53125 148.085938 81.117188 C 148.09375 81.460938 148.152344 81.789063 148.257813 82.101563 C 148.359375 82.421875 148.507813 82.742188 148.695313 83.054688 L 147.773438 83.085938 C 147.605469 82.773438 147.476563 82.449219 147.382813 82.117188 C 147.296875 81.78125 147.253906 81.445313 147.242188 81.101563 C 147.210938 80.234375 147.460938 79.542969 147.992188 79.023438 C 148.53125 78.5 149.28125 78.21875 150.242188 78.179688 C 151.21875 78.148438 152.007813 78.359375 152.601563 78.820313 C 153.203125 79.277344 153.515625 79.914063 153.539063 80.726563 C 153.570313 81.453125 153.328125 82.039063 152.820313 82.476563 C 152.320313 82.921875 151.621094 83.164063 150.726563 83.195313 Z M 150.992188 82.289063 C 151.53125 82.257813 151.960938 82.105469 152.273438 81.835938 C 152.585938 81.5625 152.730469 81.210938 152.710938 80.773438 C 152.699219 80.273438 152.53125 79.875 152.210938 79.585938 C 151.886719 79.292969 151.4375 79.136719 150.867188 79.117188 Z M 154.289063 88.972656 L 148.070313 88.582031 L 148.007813 89.753906 C 147.945313 90.742188 148.148438 91.480469 148.617188 91.972656 C 149.09375 92.472656 149.875 92.757813 150.960938 92.832031 C 152.023438 92.894531 152.8125 92.707031 153.335938 92.269531 C 153.867188 91.839844 154.164063 91.132813 154.226563 90.144531 Z M 155.242188 88.035156 L 155.117188 90.035156 C 155.03125 91.429688 154.648438 92.433594 153.960938 93.050781 C 153.28125 93.664063 152.261719 93.929688 150.898438 93.847656 C 149.511719 93.761719 148.511719 93.371094 147.898438 92.675781 C 147.296875 91.976563 147.035156 90.933594 147.117188 89.550781 L 147.242188 87.550781 Z M 149.746094 99.941406 L 149.261719 99.910156 L 149.511719 95.832031 C 148.832031 95.832031 148.308594 95.988281 147.933594 96.300781 C 147.558594 96.613281 147.355469 97.058594 147.324219 97.644531 C 147.300781 97.988281 147.328125 98.316406 147.402344 98.628906 C 147.472656 98.949219 147.589844 99.277344 147.746094 99.613281 L 146.824219 99.550781 C 146.691406 99.214844 146.597656 98.882813 146.542969 98.550781 C 146.480469 98.214844 146.460938 97.878906 146.480469 97.535156 C 146.535156 96.667969 146.847656 96.003906 147.433594 95.535156 C 148.027344 95.066406 148.800781 94.855469 149.761719 94.910156 C 150.730469 94.972656 151.484375 95.257813 152.027344 95.769531 C 152.578125 96.289063 152.832031 96.957031 152.792969 97.769531 C 152.738281 98.488281 152.4375 99.039063 151.886719 99.425781 C 151.34375 99.820313 150.628906 99.992188 149.746094 99.941406 Z M 150.105469 99.066406 C 150.636719 99.085938 151.066406 98.976563 151.402344 98.738281 C 151.746094 98.507813 151.925781 98.175781 151.949219 97.738281 C 151.980469 97.238281 151.847656 96.824219 151.558594 96.503906 C 151.265625 96.179688 150.84375 95.980469 150.292969 95.910156 Z M 152.035156 105.007813 L 151.097656 104.945313 C 151.253906 104.703125 151.371094 104.453125 151.457031 104.195313 C 151.550781 103.933594 151.601563 103.65625 151.613281 103.367188 C 151.644531 102.917969 151.585938 102.578125 151.441406 102.351563 C 151.304688 102.121094 151.089844 101.996094 150.800781 101.976563 C 150.582031 101.964844 150.402344 102.03125 150.269531 102.179688 C 150.132813 102.324219 149.988281 102.636719 149.832031 103.117188 L 149.738281 103.398438 C 149.550781 104.03125 149.308594 104.46875 149.019531 104.710938 C 148.726563 104.949219 148.335938 105.054688 147.847656 105.023438 C 147.292969 104.992188 146.863281 104.765625 146.550781 104.351563 C 146.25 103.945313 146.125 103.390625 146.175781 102.695313 C 146.1875 102.402344 146.234375 102.101563 146.316406 101.789063 C 146.402344 101.484375 146.511719 101.164063 146.660156 100.820313 L 147.675781 100.882813 C 147.464844 101.203125 147.304688 101.523438 147.191406 101.835938 C 147.074219 102.148438 147.007813 102.460938 146.988281 102.773438 C 146.964844 103.1875 147.027344 103.511719 147.175781 103.742188 C 147.320313 103.980469 147.535156 104.109375 147.816406 104.132813 C 148.085938 104.152344 148.300781 104.078125 148.457031 103.914063 C 148.613281 103.757813 148.773438 103.40625 148.941406 102.867188 L 149.050781 102.570313 C 149.207031 102.027344 149.425781 101.640625 149.707031 101.414063 C 149.988281 101.183594 150.355469 101.085938 150.816406 101.117188 C 151.378906 101.148438 151.800781 101.351563 152.082031 101.726563 C 152.371094 102.109375 152.496094 102.636719 152.457031 103.304688 C 152.433594 103.625 152.386719 103.929688 152.316406 104.210938 C 152.242188 104.5 152.148438 104.765625 152.035156 105.007813 Z M 151.28125 108.78125 C 151.3125 108.300781 151.128906 107.910156 150.734375 107.609375 C 150.335938 107.304688 149.78125 107.132813 149.0625 107.09375 C 148.34375 107.039063 147.769531 107.140625 147.34375 107.390625 C 146.914063 107.648438 146.6875 108.019531 146.65625 108.5 C 146.625 108.976563 146.804688 109.363281 147.203125 109.65625 C 147.597656 109.945313 148.15625 110.117188 148.875 110.171875 C 149.59375 110.210938 150.164063 110.109375 150.59375 109.859375 C 151.019531 109.617188 151.25 109.257813 151.28125 108.78125 Z M 152.109375 108.828125 C 152.066406 109.597656 151.753906 110.179688 151.171875 110.578125 C 150.585938 110.984375 149.804688 111.160156 148.828125 111.109375 C 147.847656 111.046875 147.085938 110.773438 146.546875 110.296875 C 146.015625 109.828125 145.773438 109.207031 145.8125 108.4375 C 145.867188 107.65625 146.179688 107.0625 146.765625 106.65625 C 147.359375 106.257813 148.144531 106.09375 149.125 106.15625 C 150.101563 106.207031 150.859375 106.46875 151.390625 106.9375 C 151.921875 107.414063 152.160156 108.046875 152.109375 108.828125 Z M 154.074219 112.894531 L 154.027344 113.785156 L 145.683594 113.285156 L 145.730469 112.394531 Z M 148.617188 117.832031 C 148.625 117.113281 148.539063 116.613281 148.351563 116.332031 C 148.164063 116.050781 147.851563 115.910156 147.414063 115.910156 C 147.070313 115.910156 146.792969 116.007813 146.585938 116.207031 C 146.375 116.414063 146.273438 116.695313 146.273438 117.050781 C 146.261719 117.550781 146.449219 117.949219 146.835938 118.253906 C 147.230469 118.554688 147.746094 118.707031 148.382813 118.707031 L 148.617188 118.722656 Z M 149.007813 119.613281 L 145.570313 119.582031 L 145.585938 118.691406 L 146.492188 118.691406 C 146.125 118.480469 145.855469 118.226563 145.679688 117.925781 C 145.515625 117.621094 145.4375 117.253906 145.445313 116.816406 C 145.445313 116.261719 145.617188 115.820313 145.960938 115.488281 C 146.3125 115.164063 146.78125 115.007813 147.367188 115.019531 C 148.042969 115.019531 148.546875 115.222656 148.882813 115.628906 C 149.226563 116.042969 149.390625 116.660156 149.382813 117.472656 L 149.382813 118.722656 L 149.476563 118.722656 C 149.933594 118.722656 150.289063 118.585938 150.539063 118.316406 C 150.789063 118.054688 150.917969 117.679688 150.929688 117.191406 C 150.929688 116.886719 150.886719 116.585938 150.804688 116.285156 C 150.71875 115.992188 150.59375 115.710938 150.429688 115.441406 L 151.335938 115.441406 C 151.480469 115.773438 151.585938 116.089844 151.648438 116.394531 C 151.71875 116.695313 151.757813 116.992188 151.757813 117.285156 C 151.746094 118.066406 151.511719 118.648438 151.054688 119.035156 C 150.605469 119.429688 149.921875 119.621094 149.007813 119.613281 Z M 153.300781 122.285156 L 151.597656 122.300781 L 151.613281 124.128906 L 150.847656 124.128906 L 150.832031 122.300781 L 147.566406 122.332031 C 147.074219 122.332031 146.757813 122.394531 146.613281 122.519531 C 146.476563 122.644531 146.410156 122.894531 146.410156 123.269531 L 146.425781 124.175781 L 145.597656 124.175781 L 145.582031 123.269531 C 145.582031 122.582031 145.722656 122.105469 146.003906 121.847656 C 146.285156 121.585938 146.800781 121.449219 147.550781 121.441406 L 150.816406 121.410156 L 150.816406 120.753906 L 151.582031 120.753906 L 151.582031 121.410156 L 153.285156 121.394531 Z M 151.613281 125.300781 L 151.628906 126.191406 L 145.613281 126.238281 L 145.597656 125.347656 Z M 153.957031 125.285156 L 153.972656 126.175781 L 152.722656 126.175781 L 152.707031 125.285156 Z M 151.625 129.742188 C 151.507813 129.28125 151.21875 128.964844 150.75 128.789063 C 150.28125 128.621094 149.695313 128.625 149 128.804688 C 148.300781 128.980469 147.785156 129.25 147.453125 129.617188 C 147.117188 129.980469 147.007813 130.390625 147.125 130.851563 C 147.25 131.320313 147.539063 131.636719 148 131.804688 C 148.457031 131.980469 149.035156 131.980469 149.734375 131.804688 C 150.429688 131.625 150.953125 131.355469 151.296875 130.992188 C 151.640625 130.625 151.75 130.210938 151.625 129.742188 Z M 152.4375 129.554688 C 152.625 130.304688 152.5 130.960938 152.0625 131.523438 C 151.632813 132.085938 150.9375 132.484375 149.96875 132.726563 C 149.019531 132.964844 148.21875 132.933594 147.5625 132.632813 C 146.90625 132.328125 146.484375 131.804688 146.296875 131.054688 C 146.117188 130.304688 146.25 129.648438 146.6875 129.085938 C 147.125 128.53125 147.816406 128.136719 148.765625 127.898438 C 149.734375 127.660156 150.539063 127.691406 151.1875 127.992188 C 151.84375 128.28125 152.257813 128.804688 152.4375 129.554688 Z M 152.464844 138.238281 L 149.027344 139.410156 L 148.746094 138.582031 L 152.152344 137.425781 C 152.691406 137.238281 153.0625 137.003906 153.261719 136.722656 C 153.457031 136.441406 153.496094 136.113281 153.371094 135.738281 C 153.214844 135.277344 152.925781 134.972656 152.511719 134.816406 C 152.105469 134.667969 151.625 134.691406 151.074219 134.878906 L 147.855469 135.972656 L 147.558594 135.113281 L 153.261719 133.175781 L 153.558594 134.035156 L 152.667969 134.332031 C 153.074219 134.414063 153.40625 134.558594 153.667969 134.769531 C 153.925781 134.988281 154.121094 135.277344 154.246094 135.644531 C 154.441406 136.226563 154.390625 136.738281 154.089844 137.175781 C 153.785156 137.621094 153.246094 137.976563 152.464844 138.238281 Z M 155.277344 146.128906 C 155.277344 146.355469 155.183594 146.605469 154.996094 146.878906 C 154.816406 147.148438 154.550781 147.457031 154.199219 147.800781 L 152.433594 149.441406 L 152.089844 148.441406 L 153.746094 146.910156 C 154.171875 146.503906 154.433594 146.164063 154.527344 145.894531 C 154.621094 145.632813 154.605469 145.320313 154.480469 144.957031 L 154.136719 143.941406 L 150.933594 145.035156 L 150.621094 144.113281 L 158.214844 141.535156 L 158.917969 143.613281 C 159.1875 144.402344 159.207031 145.050781 158.980469 145.550781 C 158.75 146.050781 158.265625 146.429688 157.527344 146.691406 C 157.046875 146.847656 156.613281 146.878906 156.230469 146.785156 C 155.855469 146.699219 155.535156 146.480469 155.277344 146.128906 Z M 157.683594 142.738281 L 154.980469 143.660156 L 155.371094 144.816406 C 155.527344 145.273438 155.753906 145.574219 156.058594 145.722656 C 156.371094 145.867188 156.75 145.867188 157.199219 145.722656 C 157.636719 145.566406 157.925781 145.335938 158.074219 145.035156 C 158.230469 144.730469 158.230469 144.351563 158.074219 143.894531 Z M 158.535156 150.855469 C 158.386719 150.394531 158.070313 150.105469 157.582031 149.980469 C 157.101563 149.855469 156.523438 149.90625 155.847656 150.136719 C 155.160156 150.363281 154.664063 150.675781 154.363281 151.074219 C 154.070313 151.46875 153.996094 151.894531 154.144531 152.355469 C 154.300781 152.800781 154.613281 153.089844 155.082031 153.214844 C 155.558594 153.339844 156.144531 153.285156 156.832031 153.058594 C 157.507813 152.828125 157.996094 152.515625 158.300781 152.121094 C 158.613281 151.722656 158.691406 151.300781 158.535156 150.855469 Z M 159.316406 150.589844 C 159.566406 151.316406 159.496094 151.980469 159.113281 152.574219 C 158.738281 153.175781 158.082031 153.636719 157.144531 153.949219 C 156.214844 154.261719 155.414063 154.296875 154.738281 154.058594 C 154.058594 153.828125 153.597656 153.347656 153.347656 152.621094 C 153.097656 151.878906 153.164063 151.207031 153.550781 150.605469 C 153.945313 150.011719 154.605469 149.558594 155.535156 149.246094 C 156.472656 148.933594 157.273438 148.898438 157.941406 149.136719 C 158.605469 149.367188 159.066406 149.847656 159.316406 150.589844 Z M 158.394531 157.664063 C 158.175781 156.976563 157.929688 156.527344 157.660156 156.320313 C 157.398438 156.121094 157.058594 156.089844 156.644531 156.226563 C 156.320313 156.339844 156.089844 156.527344 155.957031 156.789063 C 155.832031 157.046875 155.820313 157.34375 155.925781 157.679688 C 156.082031 158.15625 156.386719 158.476563 156.847656 158.632813 C 157.316406 158.796875 157.851563 158.78125 158.457031 158.585938 L 158.675781 158.507813 Z M 159.347656 159.226563 L 156.082031 160.304688 L 155.800781 159.460938 L 156.660156 159.179688 C 156.253906 159.09375 155.917969 158.933594 155.660156 158.695313 C 155.410156 158.464844 155.214844 158.140625 155.082031 157.726563 C 154.902344 157.203125 154.925781 156.730469 155.144531 156.304688 C 155.363281 155.886719 155.746094 155.589844 156.300781 155.414063 C 156.945313 155.195313 157.496094 155.222656 157.957031 155.492188 C 158.414063 155.773438 158.769531 156.296875 159.019531 157.070313 L 159.410156 158.257813 L 159.488281 158.226563 C 159.925781 158.089844 160.222656 157.851563 160.378906 157.507813 C 160.535156 157.171875 160.535156 156.773438 160.378906 156.304688 C 160.285156 156.023438 160.148438 155.75 159.972656 155.492188 C 159.792969 155.234375 159.585938 155.007813 159.347656 154.820313 L 160.207031 154.523438 C 160.457031 154.796875 160.660156 155.066406 160.816406 155.335938 C 160.972656 155.59375 161.097656 155.867188 161.191406 156.148438 C 161.441406 156.886719 161.410156 157.511719 161.097656 158.023438 C 160.792969 158.53125 160.210938 158.933594 159.347656 159.226563 Z M 162.589844 163.851563 L 165.683594 162.867188 L 165.949219 163.710938 L 157.980469 166.242188 L 157.714844 165.398438 L 158.574219 165.117188 C 158.175781 165.042969 157.847656 164.898438 157.589844 164.679688 C 157.339844 164.460938 157.15625 164.164063 157.042969 163.789063 C 156.832031 163.164063 156.941406 162.5625 157.371094 161.992188 C 157.808594 161.417969 158.480469 160.992188 159.386719 160.710938 C 160.292969 160.421875 161.078125 160.390625 161.746094 160.617188 C 162.421875 160.835938 162.863281 161.257813 163.074219 161.882813 C 163.1875 162.257813 163.203125 162.605469 163.121094 162.929688 C 163.046875 163.25 162.871094 163.558594 162.589844 163.851563 Z M 159.652344 161.601563 C 158.953125 161.820313 158.449219 162.117188 158.136719 162.492188 C 157.832031 162.867188 157.75 163.277344 157.886719 163.726563 C 158.03125 164.183594 158.339844 164.480469 158.808594 164.617188 C 159.285156 164.75 159.875 164.710938 160.574219 164.492188 C 161.269531 164.273438 161.769531 163.96875 162.074219 163.585938 C 162.386719 163.199219 162.46875 162.777344 162.324219 162.320313 C 162.1875 161.871094 161.878906 161.585938 161.402344 161.460938 C 160.933594 161.335938 160.347656 161.382813 159.652344 161.601563 Z M 159.652344 161.601563 "/>
<path style=" stroke:none;fill-rule:evenodd;fill:rgb(20%,20%,20%);fill-opacity:1;" d="M 153.46875 60.980469 L 153.5625 61.949219 L 146.484375 62.621094 L 146.8125 66.121094 L 145.90625 66.214844 L 145.484375 61.746094 Z M 149.367188 69.363281 C 149.273438 68.652344 149.117188 68.175781 148.898438 67.925781 C 148.679688 67.675781 148.351563 67.574219 147.914063 67.628906 C 147.570313 67.667969 147.308594 67.804688 147.132813 68.035156 C 146.953125 68.273438 146.886719 68.570313 146.929688 68.925781 C 146.992188 69.414063 147.230469 69.785156 147.648438 70.035156 C 148.074219 70.285156 148.605469 70.367188 149.242188 70.285156 L 149.476563 70.253906 Z M 149.976563 71.082031 L 146.570313 71.503906 L 146.460938 70.628906 L 147.367188 70.519531 C 146.96875 70.351563 146.667969 70.128906 146.460938 69.847656 C 146.25 69.574219 146.121094 69.222656 146.070313 68.785156 C 145.996094 68.230469 146.109375 67.773438 146.414063 67.410156 C 146.726563 67.042969 147.167969 66.824219 147.742188 66.753906 C 148.417969 66.667969 148.949219 66.804688 149.335938 67.160156 C 149.71875 67.523438 149.964844 68.113281 150.070313 68.925781 L 150.226563 70.160156 L 150.320313 70.144531 C 150.777344 70.089844 151.109375 69.914063 151.320313 69.613281 C 151.527344 69.308594 151.601563 68.917969 151.539063 68.441406 C 151.507813 68.136719 151.433594 67.839844 151.320313 67.550781 C 151.203125 67.269531 151.046875 67.007813 150.851563 66.769531 L 151.742188 66.660156 C 151.929688 66.960938 152.074219 67.257813 152.179688 67.550781 C 152.28125 67.851563 152.351563 68.148438 152.382813 68.441406 C 152.476563 69.210938 152.324219 69.816406 151.929688 70.253906 C 151.542969 70.691406 150.890625 70.964844 149.976563 71.082031 Z M 155.074219 72.328125 L 155.183594 73.21875 L 150.277344 73.75 L 153.136719 76.109375 L 153.261719 77.25 L 150.152344 74.703125 L 147.292969 78.015625 L 147.167969 76.859375 L 149.792969 73.796875 L 146.871094 74.125 L 146.761719 73.234375 Z M 150.726563 83.195313 L 150.242188 83.210938 L 150.085938 79.117188 C 149.40625 79.179688 148.898438 79.382813 148.554688 79.726563 C 148.21875 80.070313 148.0625 80.53125 148.085938 81.117188 C 148.09375 81.460938 148.152344 81.789063 148.257813 82.101563 C 148.359375 82.421875 148.507813 82.742188 148.695313 83.054688 L 147.773438 83.085938 C 147.605469 82.773438 147.476563 82.449219 147.382813 82.117188 C 147.296875 81.78125 147.253906 81.445313 147.242188 81.101563 C 147.210938 80.234375 147.460938 79.542969 147.992188 79.023438 C 148.53125 78.5 149.28125 78.21875 150.242188 78.179688 C 151.21875 78.148438 152.007813 78.359375 152.601563 78.820313 C 153.203125 79.277344 153.515625 79.914063 153.539063 80.726563 C 153.570313 81.453125 153.328125 82.039063 152.820313 82.476563 C 152.320313 82.921875 151.621094 83.164063 150.726563 83.195313 Z M 150.992188 82.289063 C 151.53125 82.257813 151.960938 82.105469 152.273438 81.835938 C 152.585938 81.5625 152.730469 81.210938 152.710938 80.773438 C 152.699219 80.273438 152.53125 79.875 152.210938 79.585938 C 151.886719 79.292969 151.4375 79.136719 150.867188 79.117188 Z M 154.289063 88.972656 L 148.070313 88.582031 L 148.007813 89.753906 C 147.945313 90.742188 148.148438 91.480469 148.617188 91.972656 C 149.09375 92.472656 149.875 92.757813 150.960938 92.832031 C 152.023438 92.894531 152.8125 92.707031 153.335938 92.269531 C 153.867188 91.839844 154.164063 91.132813 154.226563 90.144531 Z M 155.242188 88.035156 L 155.117188 90.035156 C 155.03125 91.429688 154.648438 92.433594 153.960938 93.050781 C 153.28125 93.664063 152.261719 93.929688 150.898438 93.847656 C 149.511719 93.761719 148.511719 93.371094 147.898438 92.675781 C 147.296875 91.976563 147.035156 90.933594 147.117188 89.550781 L 147.242188 87.550781 Z M 149.746094 99.941406 L 149.261719 99.910156 L 149.511719 95.832031 C 148.832031 95.832031 148.308594 95.988281 147.933594 96.300781 C 147.558594 96.613281 147.355469 97.058594 147.324219 97.644531 C 147.300781 97.988281 147.328125 98.316406 147.402344 98.628906 C 147.472656 98.949219 147.589844 99.277344 147.746094 99.613281 L 146.824219 99.550781 C 146.691406 99.214844 146.597656 98.882813 146.542969 98.550781 C 146.480469 98.214844 146.460938 97.878906 146.480469 97.535156 C 146.535156 96.667969 146.847656 96.003906 147.433594 95.535156 C 148.027344 95.066406 148.800781 94.855469 149.761719 94.910156 C 150.730469 94.972656 151.484375 95.257813 152.027344 95.769531 C 152.578125 96.289063 152.832031 96.957031 152.792969 97.769531 C 152.738281 98.488281 152.4375 99.039063 151.886719 99.425781 C 151.34375 99.820313 150.628906 99.992188 149.746094 99.941406 Z M 150.105469 99.066406 C 150.636719 99.085938 151.066406 98.976563 151.402344 98.738281 C 151.746094 98.507813 151.925781 98.175781 151.949219 97.738281 C 151.980469 97.238281 151.847656 96.824219 151.558594 96.503906 C 151.265625 96.179688 150.84375 95.980469 150.292969 95.910156 Z M 152.035156 105.007813 L 151.097656 104.945313 C 151.253906 104.703125 151.371094 104.453125 151.457031 104.195313 C 151.550781 103.933594 151.601563 103.65625 151.613281 103.367188 C 151.644531 102.917969 151.585938 102.578125 151.441406 102.351563 C 151.304688 102.121094 151.089844 101.996094 150.800781 101.976563 C 150.582031 101.964844 150.402344 102.03125 150.269531 102.179688 C 150.132813 102.324219 149.988281 102.636719 149.832031 103.117188 L 149.738281 103.398438 C 149.550781 104.03125 149.308594 104.46875 149.019531 104.710938 C 148.726563 104.949219 148.335938 105.054688 147.847656 105.023438 C 147.292969 104.992188 146.863281 104.765625 146.550781 104.351563 C 146.25 103.945313 146.125 103.390625 146.175781 102.695313 C 146.1875 102.402344 146.234375 102.101563 146.316406 101.789063 C 146.402344 101.484375 146.511719 101.164063 146.660156 100.820313 L 147.675781 100.882813 C 147.464844 101.203125 147.304688 101.523438 147.191406 101.835938 C 147.074219 102.148438 147.007813 102.460938 146.988281 102.773438 C 146.964844 103.1875 147.027344 103.511719 147.175781 103.742188 C 147.320313 103.980469 147.535156 104.109375 147.816406 104.132813 C 148.085938 104.152344 148.300781 104.078125 148.457031 103.914063 C 148.613281 103.757813 148.773438 103.40625 148.941406 102.867188 L 149.050781 102.570313 C 149.207031 102.027344 149.425781 101.640625 149.707031 101.414063 C 149.988281 101.183594 150.355469 101.085938 150.816406 101.117188 C 151.378906 101.148438 151.800781 101.351563 152.082031 101.726563 C 152.371094 102.109375 152.496094 102.636719 152.457031 103.304688 C 152.433594 103.625 152.386719 103.929688 152.316406 104.210938 C 152.242188 104.5 152.148438 104.765625 152.035156 105.007813 Z M 151.28125 108.78125 C 151.3125 108.300781 151.128906 107.910156 150.734375 107.609375 C 150.335938 107.304688 149.78125 107.132813 149.0625 107.09375 C 148.34375 107.039063 147.769531 107.140625 147.34375 107.390625 C 146.914063 107.648438 146.6875 108.019531 146.65625 108.5 C 146.625 108.976563 146.804688 109.363281 147.203125 109.65625 C 147.597656 109.945313 148.15625 110.117188 148.875 110.171875 C 149.59375 110.210938 150.164063 110.109375 150.59375 109.859375 C 151.019531 109.617188 151.25 109.257813 151.28125 108.78125 Z M 152.109375 108.828125 C 152.066406 109.597656 151.753906 110.179688 151.171875 110.578125 C 150.585938 110.984375 149.804688 111.160156 148.828125 111.109375 C 147.847656 111.046875 147.085938 110.773438 146.546875 110.296875 C 146.015625 109.828125 145.773438 109.207031 145.8125 108.4375 C 145.867188 107.65625 146.179688 107.0625 146.765625 106.65625 C 147.359375 106.257813 148.144531 106.09375 149.125 106.15625 C 150.101563 106.207031 150.859375 106.46875 151.390625 106.9375 C 151.921875 107.414063 152.160156 108.046875 152.109375 108.828125 Z M 154.074219 112.894531 L 154.027344 113.785156 L 145.683594 113.285156 L 145.730469 112.394531 Z M 148.617188 117.832031 C 148.625 117.113281 148.539063 116.613281 148.351563 116.332031 C 148.164063 116.050781 147.851563 115.910156 147.414063 115.910156 C 147.070313 115.910156 146.792969 116.007813 146.585938 116.207031 C 146.375 116.414063 146.273438 116.695313 146.273438 117.050781 C 146.261719 117.550781 146.449219 117.949219 146.835938 118.253906 C 147.230469 118.554688 147.746094 118.707031 148.382813 118.707031 L 148.617188 118.722656 Z M 149.007813 119.613281 L 145.570313 119.582031 L 145.585938 118.691406 L 146.492188 118.691406 C 146.125 118.480469 145.855469 118.226563 145.679688 117.925781 C 145.515625 117.621094 145.4375 117.253906 145.445313 116.816406 C 145.445313 116.261719 145.617188 115.820313 145.960938 115.488281 C 146.3125 115.164063 146.78125 115.007813 147.367188 115.019531 C 148.042969 115.019531 148.546875 115.222656 148.882813 115.628906 C 149.226563 116.042969 149.390625 116.660156 149.382813 117.472656 L 149.382813 118.722656 L 149.476563 118.722656 C 149.933594 118.722656 150.289063 118.585938 150.539063 118.316406 C 150.789063 118.054688 150.917969 117.679688 150.929688 117.191406 C 150.929688 116.886719 150.886719 116.585938 150.804688 116.285156 C 150.71875 115.992188 150.59375 115.710938 150.429688 115.441406 L 151.335938 115.441406 C 151.480469 115.773438 151.585938 116.089844 151.648438 116.394531 C 151.71875 116.695313 151.757813 116.992188 151.757813 117.285156 C 151.746094 118.066406 151.511719 118.648438 151.054688 119.035156 C 150.605469 119.429688 149.921875 119.621094 149.007813 119.613281 Z M 153.300781 122.285156 L 151.597656 122.300781 L 151.613281 124.128906 L 150.847656 124.128906 L 150.832031 122.300781 L 147.566406 122.332031 C 147.074219 122.332031 146.757813 122.394531 146.613281 122.519531 C 146.476563 122.644531 146.410156 122.894531 146.410156 123.269531 L 146.425781 124.175781 L 145.597656 124.175781 L 145.582031 123.269531 C 145.582031 122.582031 145.722656 122.105469 146.003906 121.847656 C 146.285156 121.585938 146.800781 121.449219 147.550781 121.441406 L 150.816406 121.410156 L 150.816406 120.753906 L 151.582031 120.753906 L 151.582031 121.410156 L 153.285156 121.394531 Z M 151.613281 125.300781 L 151.628906 126.191406 L 145.613281 126.238281 L 145.597656 125.347656 Z M 153.957031 125.285156 L 153.972656 126.175781 L 152.722656 126.175781 L 152.707031 125.285156 Z M 151.625 129.742188 C 151.507813 129.28125 151.21875 128.964844 150.75 128.789063 C 150.28125 128.621094 149.695313 128.625 149 128.804688 C 148.300781 128.980469 147.785156 129.25 147.453125 129.617188 C 147.117188 129.980469 147.007813 130.390625 147.125 130.851563 C 147.25 131.320313 147.539063 131.636719 148 131.804688 C 148.457031 131.980469 149.035156 131.980469 149.734375 131.804688 C 150.429688 131.625 150.953125 131.355469 151.296875 130.992188 C 151.640625 130.625 151.75 130.210938 151.625 129.742188 Z M 152.4375 129.554688 C 152.625 130.304688 152.5 130.960938 152.0625 131.523438 C 151.632813 132.085938 150.9375 132.484375 149.96875 132.726563 C 149.019531 132.964844 148.21875 132.933594 147.5625 132.632813 C 146.90625 132.328125 146.484375 131.804688 146.296875 131.054688 C 146.117188 130.304688 146.25 129.648438 146.6875 129.085938 C 147.125 128.53125 147.816406 128.136719 148.765625 127.898438 C 149.734375 127.660156 150.539063 127.691406 151.1875 127.992188 C 151.84375 128.28125 152.257813 128.804688 152.4375 129.554688 Z M 152.464844 138.238281 L 149.027344 139.410156 L 148.746094 138.582031 L 152.152344 137.425781 C 152.691406 137.238281 153.0625 137.003906 153.261719 136.722656 C 153.457031 136.441406 153.496094 136.113281 153.371094 135.738281 C 153.214844 135.277344 152.925781 134.972656 152.511719 134.816406 C 152.105469 134.667969 151.625 134.691406 151.074219 134.878906 L 147.855469 135.972656 L 147.558594 135.113281 L 153.261719 133.175781 L 153.558594 134.035156 L 152.667969 134.332031 C 153.074219 134.414063 153.40625 134.558594 153.667969 134.769531 C 153.925781 134.988281 154.121094 135.277344 154.246094 135.644531 C 154.441406 136.226563 154.390625 136.738281 154.089844 137.175781 C 153.785156 137.621094 153.246094 137.976563 152.464844 138.238281 Z M 155.277344 146.128906 C 155.277344 146.355469 155.183594 146.605469 154.996094 146.878906 C 154.816406 147.148438 154.550781 147.457031 154.199219 147.800781 L 152.433594 149.441406 L 152.089844 148.441406 L 153.746094 146.910156 C 154.171875 146.503906 154.433594 146.164063 154.527344 145.894531 C 154.621094 145.632813 154.605469 145.320313 154.480469 144.957031 L 154.136719 143.941406 L 150.933594 145.035156 L 150.621094 144.113281 L 158.214844 141.535156 L 158.917969 143.613281 C 159.1875 144.402344 159.207031 145.050781 158.980469 145.550781 C 158.75 146.050781 158.265625 146.429688 157.527344 146.691406 C 157.046875 146.847656 156.613281 146.878906 156.230469 146.785156 C 155.855469 146.699219 155.535156 146.480469 155.277344 146.128906 Z M 157.683594 142.738281 L 154.980469 143.660156 L 155.371094 144.816406 C 155.527344 145.273438 155.753906 145.574219 156.058594 145.722656 C 156.371094 145.867188 156.75 145.867188 157.199219 145.722656 C 157.636719 145.566406 157.925781 145.335938 158.074219 145.035156 C 158.230469 144.730469 158.230469 144.351563 158.074219 143.894531 Z M 158.535156 150.855469 C 158.386719 150.394531 158.070313 150.105469 157.582031 149.980469 C 157.101563 149.855469 156.523438 149.90625 155.847656 150.136719 C 155.160156 150.363281 154.664063 150.675781 154.363281 151.074219 C 154.070313 151.46875 153.996094 151.894531 154.144531 152.355469 C 154.300781 152.800781 154.613281 153.089844 155.082031 153.214844 C 155.558594 153.339844 156.144531 153.285156 156.832031 153.058594 C 157.507813 152.828125 157.996094 152.515625 158.300781 152.121094 C 158.613281 151.722656 158.691406 151.300781 158.535156 150.855469 Z M 159.316406 150.589844 C 159.566406 151.316406 159.496094 151.980469 159.113281 152.574219 C 158.738281 153.175781 158.082031 153.636719 157.144531 153.949219 C 156.214844 154.261719 155.414063 154.296875 154.738281 154.058594 C 154.058594 153.828125 153.597656 153.347656 153.347656 152.621094 C 153.097656 151.878906 153.164063 151.207031 153.550781 150.605469 C 153.945313 150.011719 154.605469 149.558594 155.535156 149.246094 C 156.472656 148.933594 157.273438 148.898438 157.941406 149.136719 C 158.605469 149.367188 159.066406 149.847656 159.316406 150.589844 Z M 158.394531 157.664063 C 158.175781 156.976563 157.929688 156.527344 157.660156 156.320313 C 157.398438 156.121094 157.058594 156.089844 156.644531 156.226563 C 156.320313 156.339844 156.089844 156.527344 155.957031 156.789063 C 155.832031 157.046875 155.820313 157.34375 155.925781 157.679688 C 156.082031 158.15625 156.386719 158.476563 156.847656 158.632813 C 157.316406 158.796875 157.851563 158.78125 158.457031 158.585938 L 158.675781 158.507813 Z M 159.347656 159.226563 L 156.082031 160.304688 L 155.800781 159.460938 L 156.660156 159.179688 C 156.253906 159.09375 155.917969 158.933594 155.660156 158.695313 C 155.410156 158.464844 155.214844 158.140625 155.082031 157.726563 C 154.902344 157.203125 154.925781 156.730469 155.144531 156.304688 C 155.363281 155.886719 155.746094 155.589844 156.300781 155.414063 C 156.945313 155.195313 157.496094 155.222656 157.957031 155.492188 C 158.414063 155.773438 158.769531 156.296875 159.019531 157.070313 L 159.410156 158.257813 L 159.488281 158.226563 C 159.925781 158.089844 160.222656 157.851563 160.378906 157.507813 C 160.535156 157.171875 160.535156 156.773438 160.378906 156.304688 C 160.285156 156.023438 160.148438 155.75 159.972656 155.492188 C 159.792969 155.234375 159.585938 155.007813 159.347656 154.820313 L 160.207031 154.523438 C 160.457031 154.796875 160.660156 155.066406 160.816406 155.335938 C 160.972656 155.59375 161.097656 155.867188 161.191406 156.148438 C 161.441406 156.886719 161.410156 157.511719 161.097656 158.023438 C 160.792969 158.53125 160.210938 158.933594 159.347656 159.226563 Z M 162.589844 163.851563 L 165.683594 162.867188 L 165.949219 163.710938 L 157.980469 166.242188 L 157.714844 165.398438 L 158.574219 165.117188 C 158.175781 165.042969 157.847656 164.898438 157.589844 164.679688 C 157.339844 164.460938 157.15625 164.164063 157.042969 163.789063 C 156.832031 163.164063 156.941406 162.5625 157.371094 161.992188 C 157.808594 161.417969 158.480469 160.992188 159.386719 160.710938 C 160.292969 160.421875 161.078125 160.390625 161.746094 160.617188 C 162.421875 160.835938 162.863281 161.257813 163.074219 161.882813 C 163.1875 162.257813 163.203125 162.605469 163.121094 162.929688 C 163.046875 163.25 162.871094 163.558594 162.589844 163.851563 Z M 159.652344 161.601563 C 158.953125 161.820313 158.449219 162.117188 158.136719 162.492188 C 157.832031 162.867188 157.75 163.277344 157.886719 163.726563 C 158.03125 164.183594 158.339844 164.480469 158.808594 164.617188 C 159.285156 164.75 159.875 164.710938 160.574219 164.492188 C 161.269531 164.273438 161.769531 163.96875 162.074219 163.585938 C 162.386719 163.199219 162.46875 162.777344 162.324219 162.320313 C 162.1875 161.871094 161.878906 161.585938 161.402344 161.460938 C 160.933594 161.335938 160.347656 161.382813 159.652344 161.601563 Z M 159.652344 161.601563 "/>
</g>
</svg>

