<?xml version="1.0" encoding="UTF-8"?>
<svg xmlns="http://www.w3.org/2000/svg" xmlns:xlink="http://www.w3.org/1999/xlink" width="256pt" height="256pt" viewBox="0 0 256 256" version="1.1">
<g id="surface2">
<rect x="0" y="0" width="256" height="256" style="fill:rgb(94.901961%,93.72549%,91.372549%);fill-opacity:1;stroke:none;"/>
<path style="fill:none;stroke-width:8;stroke-linecap:round;stroke-linejoin:round;stroke:rgb(75.686275%,70.980392%,61.568627%);stroke-opacity:1;stroke-miterlimit:10;" d="M 163.003906 45.085938 L 155.640625 43.53125 L 151.238281 42.007813 L 149.910156 41.199219 L 147.835938 39.925781 L 144.363281 36.230469 L 140.589844 34.054688 L 138.886719 32.40625 L 128.820313 17.617188 L 121.527344 9.847656 L 119.316406 6.335938 L 118.058594 2.734375 L 116.820313 -5.316406 L 115.609375 -6.992188 L 113.253906 -9 "/>
<path style="fill:none;stroke-width:6;stroke-linecap:round;stroke-linejoin:round;stroke:rgb(100%,100%,100%);stroke-opacity:1;stroke-miterlimit:10;" d="M 163.003906 45.085938 L 155.640625 43.53125 L 151.238281 42.007813 L 149.910156 41.199219 L 147.835938 39.925781 L 144.363281 36.230469 L 140.589844 34.054688 L 138.886719 32.40625 L 128.820313 17.617188 L 121.527344 9.847656 L 119.316406 6.335938 L 118.058594 2.734375 L 116.820313 -5.316406 L 115.609375 -6.992188 L 113.253906 -9 "/>
</g>
</svg>

