<?xml version="1.0" encoding="UTF-8"?>
<svg xmlns="http://www.w3.org/2000/svg" xmlns:xlink="http://www.w3.org/1999/xlink" width="256pt" height="256pt" viewBox="0 0 256 256" version="1.1">
<g id="surface2">
<rect x="0" y="0" width="256" height="256" style="fill:rgb(94.901961%,93.72549%,91.372549%);fill-opacity:1;stroke:none;"/>
<path style=" stroke:none;fill-rule:evenodd;fill:rgb(70.980392%,82.352941%,61.176471%);fill-opacity:1;" d="M -4 -4 L -4 260 L -4 -4 L 260 -4 Z M -4 -4 "/>
<path style=" stroke:none;fill-rule:evenodd;fill:rgb(79.607843%,84.705882%,76.470588%);fill-opacity:1;" d="M -4 -4 L -4 260 L -4 -4 L 260 -4 Z M -4 -4 "/>
<path style="fill:none;stroke-width:8;stroke-linecap:round;stroke-linejoin:round;stroke:rgb(75.686275%,70.980392%,61.568627%);stroke-opacity:1;stroke-miterlimit:10;" d="M 35.523438 58.203125 L 59.726563 56.402344 "/>
<path style="fill:none;stroke-width:8;stroke-linecap:round;stroke-linejoin:round;stroke:rgb(75.686275%,70.980392%,61.568627%);stroke-opacity:1;stroke-miterlimit:10;" d="M 197.78125 264 L 206.371094 230.722656 L 206.621094 227.972656 L 205.117188 225.476563 "/>
<path style="fill:none;stroke-width:8;stroke-linecap:round;stroke-linejoin:round;stroke:rgb(75.686275%,70.980392%,61.568627%);stroke-opacity:1;stroke-miterlimit:10;" d="M 84.324219 102.003906 L 57.125 100.804688 L 45.125 100.40625 L 34.125 100.804688 "/>
<path style="fill:none;stroke-width:8;stroke-linecap:round;stroke-linejoin:round;stroke:rgb(75.686275%,70.980392%,61.568627%);stroke-opacity:1;stroke-miterlimit:10;" d="M 48.675781 264 L 52.121094 258.226563 L 56.371094 249.222656 "/>
<path style="fill:none;stroke-width:8;stroke-linecap:round;stroke-linejoin:round;stroke:rgb(75.686275%,70.980392%,61.568627%);stroke-opacity:1;stroke-miterlimit:10;" d="M 8.609375 264 L 9.300781 252.074219 L 8.703125 244.871094 L 4.601563 242.867188 L -0.800781 242.207031 L -7.304688 241.332031 "/>
<path style="fill:none;stroke-width:8;stroke-linecap:round;stroke-linejoin:round;stroke:rgb(75.686275%,70.980392%,61.568627%);stroke-opacity:1;stroke-miterlimit:10;" d="M 158.121094 253.222656 L 157.621094 214.722656 L 158.371094 208.472656 L 159.621094 202.476563 L 162.121094 192.472656 L 165.371094 175.476563 L 166.871094 171.722656 L 170.621094 168.472656 L 175.371094 168.222656 L 187.871094 169.222656 "/>
<path style="fill:none;stroke-width:8;stroke-linecap:round;stroke-linejoin:round;stroke:rgb(75.686275%,70.980392%,61.568627%);stroke-opacity:1;stroke-miterlimit:10;" d="M 179.621094 255.976563 L 170.121094 254.722656 L 158.121094 253.222656 L 150.871094 253.726563 L 147.371094 254.722656 L 143.617188 257.226563 L 139.621094 258.722656 L 133.871094 258.472656 L 121.371094 255.722656 L 113.371094 254.722656 L 107.621094 255.222656 L 103.871094 257.722656 L 100.375 264 "/>
<path style="fill:none;stroke-width:8;stroke-linecap:round;stroke-linejoin:round;stroke:rgb(75.686275%,70.980392%,61.568627%);stroke-opacity:1;stroke-miterlimit:10;" d="M 85.125 13.40625 L 84.125 27.601563 L 83.324219 35.402344 L 83.523438 43.804688 L 85.125 64.203125 L 85.523438 77.003906 L 84.324219 102.003906 L 81.925781 143.003906 "/>
<path style="fill:none;stroke-width:8;stroke-linecap:round;stroke-linejoin:round;stroke:rgb(75.686275%,70.980392%,61.568627%);stroke-opacity:1;stroke-miterlimit:10;" d="M 81.925781 143.003906 L 83.332031 157.785156 L 84.050781 170.316406 L 80.015625 182.992188 L 70.261719 195.023438 L 56.539063 202.722656 L 39.832031 207.1875 L 24.324219 205.605469 L 5.757813 192.882813 L -3.355469 157.226563 "/>
<path style="fill:none;stroke-width:8;stroke-linecap:round;stroke-linejoin:round;stroke:rgb(75.686275%,70.980392%,61.568627%);stroke-opacity:1;stroke-miterlimit:10;" d="M 29.324219 9.203125 L 28.324219 26.40625 L 28.125 32.207031 L 28.925781 37.605469 L 34.925781 53.804688 L 35.523438 58.203125 L 34.125 100.804688 L 34.726563 109.605469 L 40.265625 163.832031 L 39.476563 180.476563 "/>
<path style="fill:none;stroke-width:8;stroke-linecap:round;stroke-linejoin:round;stroke:rgb(75.686275%,70.980392%,61.568627%);stroke-opacity:1;stroke-miterlimit:10;" d="M 264 205.339844 L 186.324219 199.207031 "/>
<path style="fill:none;stroke-width:8;stroke-linecap:round;stroke-linejoin:round;stroke:rgb(75.686275%,70.980392%,61.568627%);stroke-opacity:1;stroke-miterlimit:10;" d="M 264 143.570313 L 262.871094 144.871094 L 259.746094 148.996094 L 258.246094 152.496094 L 257.125 157.203125 "/>
<path style="fill:none;stroke-width:8;stroke-linecap:round;stroke-linejoin:round;stroke:rgb(75.686275%,70.980392%,61.568627%);stroke-opacity:1;stroke-miterlimit:10;" d="M 193.925781 20.605469 L 133.324219 23.804688 L 124.726563 23.804688 L 119.324219 22.605469 L 113.523438 20.003906 L 105.523438 16.207031 L 99.125 14.605469 L 85.125 13.40625 L 29.324219 9.203125 L -9 7.886719 "/>
<path style="fill:none;stroke-width:8;stroke-linecap:round;stroke-linejoin:round;stroke:rgb(75.686275%,70.980392%,61.568627%);stroke-opacity:1;stroke-miterlimit:10;" d="M 179.003906 264 L 179.621094 255.976563 L 186.324219 199.207031 L 187.871094 169.222656 L 188.925781 135.003906 L 192.925781 73.402344 L 193.324219 63.601563 L 193.925781 20.605469 L 193.6875 -9 "/>
<path style="fill:none;stroke-width:6;stroke-linecap:round;stroke-linejoin:round;stroke:rgb(100%,100%,100%);stroke-opacity:1;stroke-miterlimit:10;" d="M 35.523438 58.203125 L 59.726563 56.402344 "/>
<path style="fill:none;stroke-width:6;stroke-linecap:round;stroke-linejoin:round;stroke:rgb(100%,100%,100%);stroke-opacity:1;stroke-miterlimit:10;" d="M 197.78125 264 L 206.371094 230.722656 L 206.621094 227.972656 L 205.117188 225.476563 "/>
<path style="fill:none;stroke-width:6;stroke-linecap:round;stroke-linejoin:round;stroke:rgb(100%,100%,100%);stroke-opacity:1;stroke-miterlimit:10;" d="M 84.324219 102.003906 L 57.125 100.804688 L 45.125 100.40625 L 34.125 100.804688 "/>
<path style="fill:none;stroke-width:6;stroke-linecap:round;stroke-linejoin:round;stroke:rgb(100%,100%,100%);stroke-opacity:1;stroke-miterlimit:10;" d="M 48.675781 264 L 52.121094 258.226563 L 56.371094 249.222656 "/>
<path style="fill:none;stroke-width:6;stroke-linecap:round;stroke-linejoin:round;stroke:rgb(100%,100%,100%);stroke-opacity:1;stroke-miterlimit:10;" d="M 8.609375 264 L 9.300781 252.074219 L 8.703125 244.871094 L 4.601563 242.867188 L -0.800781 242.207031 L -7.304688 241.332031 "/>
<path style="fill:none;stroke-width:6;stroke-linecap:round;stroke-linejoin:round;stroke:rgb(100%,100%,100%);stroke-opacity:1;stroke-miterlimit:10;" d="M 158.121094 253.222656 L 157.621094 214.722656 L 158.371094 208.472656 L 159.621094 202.476563 L 162.121094 192.472656 L 165.371094 175.476563 L 166.871094 171.722656 L 170.621094 168.472656 L 175.371094 168.222656 L 187.871094 169.222656 "/>
<path style="fill:none;stroke-width:6;stroke-linecap:round;stroke-linejoin:round;stroke:rgb(100%,100%,100%);stroke-opacity:1;stroke-miterlimit:10;" d="M 179.621094 255.976563 L 170.121094 254.722656 L 158.121094 253.222656 L 150.871094 253.726563 L 147.371094 254.722656 L 143.617188 257.226563 L 139.621094 258.722656 L 133.871094 258.472656 L 121.371094 255.722656 L 113.371094 254.722656 L 107.621094 255.222656 L 103.871094 257.722656 L 100.375 264 "/>
<path style="fill:none;stroke-width:6;stroke-linecap:round;stroke-linejoin:round;stroke:rgb(100%,100%,100%);stroke-opacity:1;stroke-miterlimit:10;" d="M 85.125 13.40625 L 84.125 27.601563 L 83.324219 35.402344 L 83.523438 43.804688 L 85.125 64.203125 L 85.523438 77.003906 L 84.324219 102.003906 L 81.925781 143.003906 "/>
<path style="fill:none;stroke-width:6;stroke-linecap:round;stroke-linejoin:round;stroke:rgb(100%,100%,100%);stroke-opacity:1;stroke-miterlimit:10;" d="M 81.925781 143.003906 L 83.332031 157.785156 L 84.050781 170.316406 L 80.015625 182.992188 L 70.261719 195.023438 L 56.539063 202.722656 L 39.832031 207.1875 L 24.324219 205.605469 L 5.757813 192.882813 L -3.355469 157.226563 "/>
<path style="fill:none;stroke-width:6;stroke-linecap:round;stroke-linejoin:round;stroke:rgb(100%,100%,100%);stroke-opacity:1;stroke-miterlimit:10;" d="M 29.324219 9.203125 L 28.324219 26.40625 L 28.125 32.207031 L 28.925781 37.605469 L 34.925781 53.804688 L 35.523438 58.203125 L 34.125 100.804688 L 34.726563 109.605469 L 40.265625 163.832031 L 39.476563 180.476563 "/>
<path style="fill:none;stroke-width:6;stroke-linecap:round;stroke-linejoin:round;stroke:rgb(100%,100%,100%);stroke-opacity:1;stroke-miterlimit:10;" d="M 264 205.339844 L 186.324219 199.207031 "/>
<path style="fill:none;stroke-width:6;stroke-linecap:round;stroke-linejoin:round;stroke:rgb(100%,100%,100%);stroke-opacity:1;stroke-miterlimit:10;" d="M 264 143.570313 L 262.871094 144.871094 L 259.746094 148.996094 L 258.246094 152.496094 L 257.125 157.203125 "/>
<path style="fill:none;stroke-width:6;stroke-linecap:round;stroke-linejoin:round;stroke:rgb(100%,100%,100%);stroke-opacity:1;stroke-miterlimit:10;" d="M 193.925781 20.605469 L 133.324219 23.804688 L 124.726563 23.804688 L 119.324219 22.605469 L 113.523438 20.003906 L 105.523438 16.207031 L 99.125 14.605469 L 85.125 13.40625 L 29.324219 9.203125 L -9 7.886719 "/>
<path style="fill:none;stroke-width:6;stroke-linecap:round;stroke-linejoin:round;stroke:rgb(100%,100%,100%);stroke-opacity:1;stroke-miterlimit:10;" d="M 179.003906 264 L 179.621094 255.976563 L 186.324219 199.207031 L 187.871094 169.222656 L 188.925781 135.003906 L 192.925781 73.402344 L 193.324219 63.601563 L 193.925781 20.605469 L 193.6875 -9 "/>
<path style="fill:none;stroke-width:3;stroke-linecap:round;stroke-linejoin:round;stroke:rgb(100%,100%,100%);stroke-opacity:1;stroke-miterlimit:10;" d="M 188 169.539063 L 190.9375 169.648438 L 190.984375 168.085938 C 191.007813 167.566406 190.902344 167.175781 190.671875 166.914063 C 190.445313 166.644531 190.078125 166.5 189.578125 166.476563 C 189.078125 166.46875 188.703125 166.585938 188.453125 166.835938 C 188.203125 167.078125 188.070313 167.457031 188.046875 167.976563 Z M 184.703125 169.414063 L 187.125 169.507813 L 187.171875 168.070313 C 187.195313 167.59375 187.109375 167.234375 186.921875 166.992188 C 186.726563 166.742188 186.421875 166.613281 186.015625 166.601563 C 185.609375 166.582031 185.304688 166.6875 185.09375 166.914063 C 184.886719 167.144531 184.773438 167.5 184.75 167.976563 Z M 183.765625 170.367188 L 183.859375 167.867188 C 183.890625 167.128906 184.089844 166.5625 184.453125 166.164063 C 184.808594 165.769531 185.304688 165.582031 185.9375 165.601563 C 186.429688 165.625 186.8125 165.742188 187.09375 165.960938 C 187.367188 166.179688 187.53125 166.492188 187.59375 166.898438 C 187.730469 166.421875 187.984375 166.054688 188.359375 165.804688 C 188.734375 165.554688 189.195313 165.441406 189.734375 165.460938 C 190.453125 165.484375 191 165.722656 191.375 166.179688 C 191.75 166.628906 191.921875 167.257813 191.890625 168.070313 L 191.78125 170.664063 Z M 189.664063 163.890625 L 186.023438 163.78125 L 186.039063 162.890625 L 189.648438 163 C 190.210938 163.023438 190.644531 162.9375 190.945313 162.75 C 191.238281 162.5625 191.390625 162.273438 191.398438 161.875 C 191.410156 161.386719 191.253906 161 190.929688 160.71875 C 190.597656 160.429688 190.132813 160.273438 189.539063 160.25 L 186.132813 160.140625 L 186.164063 159.25 L 192.179688 159.4375 L 192.148438 160.328125 L 191.226563 160.296875 C 191.582031 160.527344 191.84375 160.789063 192.007813 161.078125 C 192.183594 161.359375 192.261719 161.695313 192.242188 162.078125 C 192.230469 162.695313 192.007813 163.15625 191.570313 163.46875 C 191.125 163.78125 190.488281 163.921875 189.664063 163.890625 Z M 185.945313 161.546875 Z M 189.125 152.878906 L 189.609375 152.894531 L 189.484375 156.988281 C 190.164063 156.96875 190.683594 156.796875 191.046875 156.472656 C 191.414063 156.152344 191.605469 155.699219 191.625 155.113281 C 191.636719 154.769531 191.601563 154.4375 191.515625 154.113281 C 191.433594 153.792969 191.308594 153.46875 191.140625 153.144531 L 192.0625 153.160156 C 192.207031 153.496094 192.3125 153.828125 192.375 154.160156 C 192.445313 154.496094 192.476563 154.832031 192.46875 155.175781 C 192.4375 156.042969 192.136719 156.71875 191.5625 157.207031 C 190.992188 157.699219 190.226563 157.925781 189.265625 157.894531 C 188.289063 157.863281 187.515625 157.605469 186.953125 157.113281 C 186.390625 156.613281 186.121094 155.957031 186.140625 155.144531 C 186.164063 154.417969 186.445313 153.847656 186.984375 153.441406 C 187.515625 153.035156 188.230469 152.847656 189.125 152.878906 Z M 188.796875 153.753906 C 188.257813 153.746094 187.824219 153.871094 187.5 154.128906 C 187.167969 154.378906 186.992188 154.722656 186.96875 155.160156 C 186.960938 155.660156 187.105469 156.066406 187.40625 156.378906 C 187.710938 156.683594 188.140625 156.863281 188.703125 156.925781 Z M 188.9375 146.898438 L 192.5625 147.007813 L 192.53125 147.898438 L 188.9375 147.789063 C 188.367188 147.769531 187.9375 147.859375 187.65625 148.054688 C 187.367188 148.253906 187.214844 148.550781 187.203125 148.945313 C 187.183594 149.425781 187.339844 149.8125 187.671875 150.101563 C 188.007813 150.382813 188.464844 150.53125 189.046875 150.539063 L 192.453125 150.648438 L 192.421875 151.554688 L 186.40625 151.367188 L 186.4375 150.460938 L 187.375 150.492188 C 187.011719 150.273438 186.746094 150.019531 186.578125 149.726563 C 186.414063 149.4375 186.335938 149.097656 186.34375 148.710938 C 186.367188 148.097656 186.59375 147.632813 187.03125 147.320313 C 187.46875 147.007813 188.105469 146.867188 188.9375 146.898438 Z M 189.660156 142.683594 C 189.640625 143.402344 189.71875 143.902344 189.894531 144.183594 C 190.074219 144.464844 190.378906 144.613281 190.816406 144.621094 C 191.160156 144.632813 191.441406 144.539063 191.660156 144.339844 C 191.871094 144.144531 191.980469 143.867188 191.988281 143.511719 C 192.011719 143.011719 191.828125 142.605469 191.441406 142.292969 C 191.058594 141.980469 190.546875 141.816406 189.910156 141.792969 L 189.675781 141.792969 Z M 189.300781 140.886719 L 192.738281 140.996094 L 192.707031 141.886719 L 191.800781 141.855469 C 192.167969 142.074219 192.425781 142.339844 192.582031 142.652344 C 192.746094 142.957031 192.824219 143.324219 192.816406 143.761719 C 192.792969 144.316406 192.605469 144.753906 192.253906 145.074219 C 191.902344 145.386719 191.433594 145.539063 190.847656 145.527344 C 190.171875 145.507813 189.671875 145.289063 189.347656 144.871094 C 189.015625 144.457031 188.859375 143.839844 188.878906 143.027344 L 188.910156 141.777344 L 188.816406 141.761719 C 188.359375 141.753906 188.003906 141.882813 187.753906 142.152344 C 187.496094 142.414063 187.355469 142.789063 187.332031 143.277344 C 187.324219 143.582031 187.359375 143.882813 187.441406 144.183594 C 187.515625 144.476563 187.628906 144.757813 187.785156 145.027344 L 186.878906 145.011719 C 186.746094 144.667969 186.652344 144.347656 186.597656 144.042969 C 186.535156 143.742188 186.511719 143.445313 186.519531 143.152344 C 186.542969 142.371094 186.78125 141.792969 187.238281 141.417969 C 187.699219 141.042969 188.386719 140.867188 189.300781 140.886719 Z M 193.019531 134.238281 L 184.863281 136.550781 L 184.925781 135.535156 L 191.785156 133.613281 L 185.175781 130.972656 L 185.238281 129.957031 L 193.082031 133.128906 Z M 187.296875 129.019531 L 187.359375 128.128906 L 193.359375 128.519531 L 193.296875 129.410156 Z M 184.953125 128.863281 L 185.015625 127.972656 L 186.265625 128.066406 L 186.203125 128.957031 Z M 187.867188 122.855469 L 188.804688 122.917969 C 188.648438 123.167969 188.53125 123.425781 188.445313 123.683594 C 188.351563 123.933594 188.296875 124.207031 188.273438 124.496094 C 188.253906 124.945313 188.3125 125.285156 188.445313 125.511719 C 188.582031 125.742188 188.796875 125.867188 189.085938 125.886719 C 189.316406 125.898438 189.5 125.832031 189.632813 125.683594 C 189.769531 125.539063 189.914063 125.226563 190.070313 124.746094 L 190.164063 124.464844 C 190.351563 123.851563 190.59375 123.417969 190.882813 123.167969 C 191.175781 122.917969 191.566406 122.808594 192.054688 122.839844 C 192.609375 122.882813 193.035156 123.113281 193.335938 123.527344 C 193.636719 123.933594 193.765625 124.488281 193.726563 125.183594 C 193.703125 125.476563 193.652344 125.777344 193.570313 126.089844 C 193.484375 126.394531 193.375 126.714844 193.226563 127.058594 L 192.210938 126.996094 C 192.421875 126.675781 192.582031 126.355469 192.695313 126.042969 C 192.8125 125.730469 192.878906 125.417969 192.898438 125.105469 C 192.929688 124.691406 192.875 124.367188 192.726563 124.136719 C 192.582031 123.898438 192.367188 123.769531 192.085938 123.746094 C 191.816406 123.738281 191.601563 123.808594 191.445313 123.964844 C 191.289063 124.113281 191.128906 124.457031 190.960938 124.996094 L 190.851563 125.292969 C 190.6875 125.835938 190.460938 126.222656 190.179688 126.449219 C 189.898438 126.679688 189.53125 126.777344 189.070313 126.746094 C 188.507813 126.707031 188.085938 126.496094 187.804688 126.121094 C 187.523438 125.738281 187.40625 125.210938 187.445313 124.542969 C 187.46875 124.222656 187.515625 123.917969 187.585938 123.636719 C 187.660156 123.355469 187.753906 123.097656 187.867188 122.855469 Z M 186.167969 120.148438 L 187.871094 120.257813 L 187.980469 118.429688 L 188.746094 118.476563 L 188.636719 120.304688 L 191.886719 120.523438 C 192.378906 120.554688 192.695313 120.519531 192.839844 120.414063 C 192.988281 120.300781 193.070313 120.054688 193.089844 119.679688 L 193.152344 118.773438 L 193.980469 118.820313 L 193.917969 119.726563 C 193.875 120.414063 193.707031 120.878906 193.402344 121.117188 C 193.101563 121.359375 192.574219 121.457031 191.824219 121.414063 L 188.574219 121.195313 L 188.527344 121.851563 L 187.761719 121.804688 L 187.808594 121.148438 L 186.105469 121.039063 Z M 191.1875 115 C 191.148438 115.71875 191.210938 116.226563 191.375 116.515625 C 191.542969 116.808594 191.84375 116.964844 192.28125 116.984375 C 192.625 117.015625 192.914063 116.933594 193.140625 116.734375 C 193.359375 116.539063 193.480469 116.261719 193.5 115.90625 C 193.53125 115.40625 193.367188 115 193 114.6875 C 192.625 114.367188 192.121094 114.183594 191.484375 114.140625 L 191.25 114.125 Z M 190.890625 113.21875 L 194.328125 113.4375 L 194.28125 114.328125 L 193.375 114.265625 C 193.71875 114.507813 193.96875 114.78125 194.125 115.09375 C 194.28125 115.398438 194.34375 115.765625 194.3125 116.203125 C 194.28125 116.757813 194.082031 117.183594 193.71875 117.484375 C 193.34375 117.789063 192.867188 117.921875 192.28125 117.890625 C 191.605469 117.851563 191.117188 117.617188 190.8125 117.1875 C 190.5 116.75 190.371094 116.125 190.421875 115.3125 L 190.5 114.078125 L 190.40625 114.078125 C 189.949219 114.046875 189.585938 114.15625 189.3125 114.40625 C 189.042969 114.65625 188.890625 115.027344 188.859375 115.515625 C 188.839844 115.820313 188.867188 116.121094 188.9375 116.421875 C 189 116.726563 189.105469 117.015625 189.25 117.296875 L 188.34375 117.234375 C 188.21875 116.890625 188.136719 116.570313 188.09375 116.265625 C 188.042969 115.953125 188.027344 115.652344 188.046875 115.359375 C 188.101563 114.589844 188.359375 114.027344 188.828125 113.671875 C 189.296875 113.308594 189.984375 113.15625 190.890625 113.21875 Z M 191.125 104.785156 C 191.21875 104.589844 191.402344 104.402344 191.671875 104.222656 C 191.933594 104.035156 192.296875 103.855469 192.765625 103.675781 L 195.015625 102.832031 L 194.953125 103.878906 L 192.828125 104.660156 C 192.289063 104.871094 191.921875 105.078125 191.734375 105.285156 C 191.539063 105.496094 191.429688 105.792969 191.40625 106.175781 L 191.328125 107.238281 L 194.71875 107.457031 L 194.65625 108.441406 L 186.65625 107.925781 L 186.796875 105.722656 C 186.851563 104.902344 187.078125 104.300781 187.484375 103.925781 C 187.890625 103.542969 188.484375 103.375 189.265625 103.425781 C 189.765625 103.457031 190.179688 103.59375 190.5 103.832031 C 190.824219 104.0625 191.03125 104.378906 191.125 104.785156 Z M 187.609375 106.988281 L 190.453125 107.175781 L 190.53125 105.957031 C 190.5625 105.488281 190.46875 105.128906 190.25 104.878906 C 190.023438 104.621094 189.671875 104.472656 189.203125 104.441406 C 188.734375 104.410156 188.375 104.511719 188.125 104.738281 C 187.867188 104.957031 187.71875 105.300781 187.6875 105.769531 Z M 189.929688 99.171875 C 189.898438 99.652344 190.082031 100.042969 190.476563 100.34375 C 190.875 100.648438 191.425781 100.824219 192.132813 100.875 C 192.851563 100.917969 193.429688 100.8125 193.867188 100.5625 C 194.296875 100.3125 194.523438 99.949219 194.554688 99.46875 C 194.585938 99 194.40625 98.617188 194.007813 98.3125 C 193.613281 98.011719 193.054688 97.839844 192.335938 97.796875 C 191.628906 97.746094 191.0625 97.84375 190.632813 98.09375 C 190.195313 98.34375 189.960938 98.703125 189.929688 99.171875 Z M 189.101563 99.109375 C 189.144531 98.351563 189.460938 97.765625 190.054688 97.359375 C 190.640625 96.953125 191.421875 96.789063 192.398438 96.859375 C 193.378906 96.921875 194.132813 97.195313 194.664063 97.671875 C 195.195313 98.152344 195.4375 98.773438 195.398438 99.53125 C 195.34375 100.3125 195.023438 100.90625 194.429688 101.3125 C 193.835938 101.710938 193.050781 101.875 192.070313 101.8125 C 191.09375 101.742188 190.34375 101.46875 189.820313 101 C 189.289063 100.523438 189.050781 99.890625 189.101563 99.109375 Z M 192.621094 92.921875 C 192.582031 93.640625 192.644531 94.148438 192.808594 94.4375 C 192.976563 94.730469 193.277344 94.886719 193.714844 94.90625 C 194.058594 94.9375 194.347656 94.855469 194.574219 94.65625 C 194.792969 94.460938 194.914063 94.183594 194.933594 93.828125 C 194.964844 93.328125 194.800781 92.921875 194.433594 92.609375 C 194.058594 92.289063 193.554688 92.105469 192.917969 92.0625 L 192.683594 92.046875 Z M 192.324219 91.140625 L 195.761719 91.359375 L 195.714844 92.25 L 194.808594 92.1875 C 195.152344 92.429688 195.402344 92.703125 195.558594 93.015625 C 195.714844 93.320313 195.777344 93.6875 195.746094 94.125 C 195.714844 94.679688 195.515625 95.105469 195.152344 95.40625 C 194.777344 95.710938 194.300781 95.84375 193.714844 95.8125 C 193.039063 95.773438 192.550781 95.539063 192.246094 95.109375 C 191.933594 94.671875 191.804688 94.046875 191.855469 93.234375 L 191.933594 92 L 191.839844 92 C 191.382813 91.96875 191.019531 92.078125 190.746094 92.328125 C 190.476563 92.578125 190.324219 92.949219 190.292969 93.4375 C 190.273438 93.742188 190.300781 94.042969 190.371094 94.34375 C 190.433594 94.648438 190.539063 94.9375 190.683594 95.21875 L 189.777344 95.15625 C 189.652344 94.8125 189.570313 94.492188 189.527344 94.1875 C 189.476563 93.875 189.460938 93.574219 189.480469 93.28125 C 189.535156 92.511719 189.792969 91.949219 190.261719 91.59375 C 190.730469 91.230469 191.417969 91.078125 192.324219 91.140625 Z M 191.027344 85.652344 L 187.777344 85.433594 L 187.824219 84.542969 L 196.167969 85.089844 L 196.121094 85.980469 L 195.214844 85.917969 C 195.558594 86.136719 195.808594 86.394531 195.964844 86.683594 C 196.121094 86.976563 196.183594 87.320313 196.152344 87.714844 C 196.109375 88.371094 195.789063 88.886719 195.183594 89.261719 C 194.582031 89.628906 193.804688 89.785156 192.855469 89.730469 C 191.917969 89.667969 191.175781 89.414063 190.621094 88.964844 C 190.070313 88.507813 189.816406 87.949219 189.855469 87.292969 C 189.886719 86.898438 189.996094 86.570313 190.183594 86.308594 C 190.371094 86.039063 190.652344 85.820313 191.027344 85.652344 Z M 192.917969 88.808594 C 193.648438 88.851563 194.226563 88.753906 194.652344 88.511719 C 195.082031 88.273438 195.308594 87.917969 195.339844 87.449219 C 195.371094 86.972656 195.195313 86.585938 194.808594 86.292969 C 194.414063 86.003906 193.851563 85.835938 193.121094 85.792969 C 192.402344 85.742188 191.832031 85.835938 191.402344 86.074219 C 190.964844 86.316406 190.730469 86.675781 190.699219 87.152344 C 190.667969 87.621094 190.851563 88.003906 191.246094 88.292969 C 191.644531 88.585938 192.199219 88.757813 192.917969 88.808594 Z M 192.917969 88.808594 "/>
<path style=" stroke:none;fill-rule:evenodd;fill:rgb(20%,20%,20%);fill-opacity:1;" d="M 188 169.539063 L 190.9375 169.648438 L 190.984375 168.085938 C 191.007813 167.566406 190.902344 167.175781 190.671875 166.914063 C 190.445313 166.644531 190.078125 166.5 189.578125 166.476563 C 189.078125 166.46875 188.703125 166.585938 188.453125 166.835938 C 188.203125 167.078125 188.070313 167.457031 188.046875 167.976563 Z M 184.703125 169.414063 L 187.125 169.507813 L 187.171875 168.070313 C 187.195313 167.59375 187.109375 167.234375 186.921875 166.992188 C 186.726563 166.742188 186.421875 166.613281 186.015625 166.601563 C 185.609375 166.582031 185.304688 166.6875 185.09375 166.914063 C 184.886719 167.144531 184.773438 167.5 184.75 167.976563 Z M 183.765625 170.367188 L 183.859375 167.867188 C 183.890625 167.128906 184.089844 166.5625 184.453125 166.164063 C 184.808594 165.769531 185.304688 165.582031 185.9375 165.601563 C 186.429688 165.625 186.8125 165.742188 187.09375 165.960938 C 187.367188 166.179688 187.53125 166.492188 187.59375 166.898438 C 187.730469 166.421875 187.984375 166.054688 188.359375 165.804688 C 188.734375 165.554688 189.195313 165.441406 189.734375 165.460938 C 190.453125 165.484375 191 165.722656 191.375 166.179688 C 191.75 166.628906 191.921875 167.257813 191.890625 168.070313 L 191.78125 170.664063 Z M 189.664063 163.890625 L 186.023438 163.78125 L 186.039063 162.890625 L 189.648438 163 C 190.210938 163.023438 190.644531 162.9375 190.945313 162.75 C 191.238281 162.5625 191.390625 162.273438 191.398438 161.875 C 191.410156 161.386719 191.253906 161 190.929688 160.71875 C 190.597656 160.429688 190.132813 160.273438 189.539063 160.25 L 186.132813 160.140625 L 186.164063 159.25 L 192.179688 159.4375 L 192.148438 160.328125 L 191.226563 160.296875 C 191.582031 160.527344 191.84375 160.789063 192.007813 161.078125 C 192.183594 161.359375 192.261719 161.695313 192.242188 162.078125 C 192.230469 162.695313 192.007813 163.15625 191.570313 163.46875 C 191.125 163.78125 190.488281 163.921875 189.664063 163.890625 Z M 185.945313 161.546875 Z M 189.125 152.878906 L 189.609375 152.894531 L 189.484375 156.988281 C 190.164063 156.96875 190.683594 156.796875 191.046875 156.472656 C 191.414063 156.152344 191.605469 155.699219 191.625 155.113281 C 191.636719 154.769531 191.601563 154.4375 191.515625 154.113281 C 191.433594 153.792969 191.308594 153.46875 191.140625 153.144531 L 192.0625 153.160156 C 192.207031 153.496094 192.3125 153.828125 192.375 154.160156 C 192.445313 154.496094 192.476563 154.832031 192.46875 155.175781 C 192.4375 156.042969 192.136719 156.71875 191.5625 157.207031 C 190.992188 157.699219 190.226563 157.925781 189.265625 157.894531 C 188.289063 157.863281 187.515625 157.605469 186.953125 157.113281 C 186.390625 156.613281 186.121094 155.957031 186.140625 155.144531 C 186.164063 154.417969 186.445313 153.847656 186.984375 153.441406 C 187.515625 153.035156 188.230469 152.847656 189.125 152.878906 Z M 188.796875 153.753906 C 188.257813 153.746094 187.824219 153.871094 187.5 154.128906 C 187.167969 154.378906 186.992188 154.722656 186.96875 155.160156 C 186.960938 155.660156 187.105469 156.066406 187.40625 156.378906 C 187.710938 156.683594 188.140625 156.863281 188.703125 156.925781 Z M 188.9375 146.898438 L 192.5625 147.007813 L 192.53125 147.898438 L 188.9375 147.789063 C 188.367188 147.769531 187.9375 147.859375 187.65625 148.054688 C 187.367188 148.253906 187.214844 148.550781 187.203125 148.945313 C 187.183594 149.425781 187.339844 149.8125 187.671875 150.101563 C 188.007813 150.382813 188.464844 150.53125 189.046875 150.539063 L 192.453125 150.648438 L 192.421875 151.554688 L 186.40625 151.367188 L 186.4375 150.460938 L 187.375 150.492188 C 187.011719 150.273438 186.746094 150.019531 186.578125 149.726563 C 186.414063 149.4375 186.335938 149.097656 186.34375 148.710938 C 186.367188 148.097656 186.59375 147.632813 187.03125 147.320313 C 187.46875 147.007813 188.105469 146.867188 188.9375 146.898438 Z M 189.660156 142.683594 C 189.640625 143.402344 189.71875 143.902344 189.894531 144.183594 C 190.074219 144.464844 190.378906 144.613281 190.816406 144.621094 C 191.160156 144.632813 191.441406 144.539063 191.660156 144.339844 C 191.871094 144.144531 191.980469 143.867188 191.988281 143.511719 C 192.011719 143.011719 191.828125 142.605469 191.441406 142.292969 C 191.058594 141.980469 190.546875 141.816406 189.910156 141.792969 L 189.675781 141.792969 Z M 189.300781 140.886719 L 192.738281 140.996094 L 192.707031 141.886719 L 191.800781 141.855469 C 192.167969 142.074219 192.425781 142.339844 192.582031 142.652344 C 192.746094 142.957031 192.824219 143.324219 192.816406 143.761719 C 192.792969 144.316406 192.605469 144.753906 192.253906 145.074219 C 191.902344 145.386719 191.433594 145.539063 190.847656 145.527344 C 190.171875 145.507813 189.671875 145.289063 189.347656 144.871094 C 189.015625 144.457031 188.859375 143.839844 188.878906 143.027344 L 188.910156 141.777344 L 188.816406 141.761719 C 188.359375 141.753906 188.003906 141.882813 187.753906 142.152344 C 187.496094 142.414063 187.355469 142.789063 187.332031 143.277344 C 187.324219 143.582031 187.359375 143.882813 187.441406 144.183594 C 187.515625 144.476563 187.628906 144.757813 187.785156 145.027344 L 186.878906 145.011719 C 186.746094 144.667969 186.652344 144.347656 186.597656 144.042969 C 186.535156 143.742188 186.511719 143.445313 186.519531 143.152344 C 186.542969 142.371094 186.78125 141.792969 187.238281 141.417969 C 187.699219 141.042969 188.386719 140.867188 189.300781 140.886719 Z M 193.019531 134.238281 L 184.863281 136.550781 L 184.925781 135.535156 L 191.785156 133.613281 L 185.175781 130.972656 L 185.238281 129.957031 L 193.082031 133.128906 Z M 187.296875 129.019531 L 187.359375 128.128906 L 193.359375 128.519531 L 193.296875 129.410156 Z M 184.953125 128.863281 L 185.015625 127.972656 L 186.265625 128.066406 L 186.203125 128.957031 Z M 187.867188 122.855469 L 188.804688 122.917969 C 188.648438 123.167969 188.53125 123.425781 188.445313 123.683594 C 188.351563 123.933594 188.296875 124.207031 188.273438 124.496094 C 188.253906 124.945313 188.3125 125.285156 188.445313 125.511719 C 188.582031 125.742188 188.796875 125.867188 189.085938 125.886719 C 189.316406 125.898438 189.5 125.832031 189.632813 125.683594 C 189.769531 125.539063 189.914063 125.226563 190.070313 124.746094 L 190.164063 124.464844 C 190.351563 123.851563 190.59375 123.417969 190.882813 123.167969 C 191.175781 122.917969 191.566406 122.808594 192.054688 122.839844 C 192.609375 122.882813 193.035156 123.113281 193.335938 123.527344 C 193.636719 123.933594 193.765625 124.488281 193.726563 125.183594 C 193.703125 125.476563 193.652344 125.777344 193.570313 126.089844 C 193.484375 126.394531 193.375 126.714844 193.226563 127.058594 L 192.210938 126.996094 C 192.421875 126.675781 192.582031 126.355469 192.695313 126.042969 C 192.8125 125.730469 192.878906 125.417969 192.898438 125.105469 C 192.929688 124.691406 192.875 124.367188 192.726563 124.136719 C 192.582031 123.898438 192.367188 123.769531 192.085938 123.746094 C 191.816406 123.738281 191.601563 123.808594 191.445313 123.964844 C 191.289063 124.113281 191.128906 124.457031 190.960938 124.996094 L 190.851563 125.292969 C 190.6875 125.835938 190.460938 126.222656 190.179688 126.449219 C 189.898438 126.679688 189.53125 126.777344 189.070313 126.746094 C 188.507813 126.707031 188.085938 126.496094 187.804688 126.121094 C 187.523438 125.738281 187.40625 125.210938 187.445313 124.542969 C 187.46875 124.222656 187.515625 123.917969 187.585938 123.636719 C 187.660156 123.355469 187.753906 123.097656 187.867188 122.855469 Z M 186.167969 120.148438 L 187.871094 120.257813 L 187.980469 118.429688 L 188.746094 118.476563 L 188.636719 120.304688 L 191.886719 120.523438 C 192.378906 120.554688 192.695313 120.519531 192.839844 120.414063 C 192.988281 120.300781 193.070313 120.054688 193.089844 119.679688 L 193.152344 118.773438 L 193.980469 118.820313 L 193.917969 119.726563 C 193.875 120.414063 193.707031 120.878906 193.402344 121.117188 C 193.101563 121.359375 192.574219 121.457031 191.824219 121.414063 L 188.574219 121.195313 L 188.527344 121.851563 L 187.761719 121.804688 L 187.808594 121.148438 L 186.105469 121.039063 Z M 191.1875 115 C 191.148438 115.71875 191.210938 116.226563 191.375 116.515625 C 191.542969 116.808594 191.84375 116.964844 192.28125 116.984375 C 192.625 117.015625 192.914063 116.933594 193.140625 116.734375 C 193.359375 116.539063 193.480469 116.261719 193.5 115.90625 C 193.53125 115.40625 193.367188 115 193 114.6875 C 192.625 114.367188 192.121094 114.183594 191.484375 114.140625 L 191.25 114.125 Z M 190.890625 113.21875 L 194.328125 113.4375 L 194.28125 114.328125 L 193.375 114.265625 C 193.71875 114.507813 193.96875 114.78125 194.125 115.09375 C 194.28125 115.398438 194.34375 115.765625 194.3125 116.203125 C 194.28125 116.757813 194.082031 117.183594 193.71875 117.484375 C 193.34375 117.789063 192.867188 117.921875 192.28125 117.890625 C 191.605469 117.851563 191.117188 117.617188 190.8125 117.1875 C 190.5 116.75 190.371094 116.125 190.421875 115.3125 L 190.5 114.078125 L 190.40625 114.078125 C 189.949219 114.046875 189.585938 114.15625 189.3125 114.40625 C 189.042969 114.65625 188.890625 115.027344 188.859375 115.515625 C 188.839844 115.820313 188.867188 116.121094 188.9375 116.421875 C 189 116.726563 189.105469 117.015625 189.25 117.296875 L 188.34375 117.234375 C 188.21875 116.890625 188.136719 116.570313 188.09375 116.265625 C 188.042969 115.953125 188.027344 115.652344 188.046875 115.359375 C 188.101563 114.589844 188.359375 114.027344 188.828125 113.671875 C 189.296875 113.308594 189.984375 113.15625 190.890625 113.21875 Z M 191.125 104.785156 C 191.21875 104.589844 191.402344 104.402344 191.671875 104.222656 C 191.933594 104.035156 192.296875 103.855469 192.765625 103.675781 L 195.015625 102.832031 L 194.953125 103.878906 L 192.828125 104.660156 C 192.289063 104.871094 191.921875 105.078125 191.734375 105.285156 C 191.539063 105.496094 191.429688 105.792969 191.40625 106.175781 L 191.328125 107.238281 L 194.71875 107.457031 L 194.65625 108.441406 L 186.65625 107.925781 L 186.796875 105.722656 C 186.851563 104.902344 187.078125 104.300781 187.484375 103.925781 C 187.890625 103.542969 188.484375 103.375 189.265625 103.425781 C 189.765625 103.457031 190.179688 103.59375 190.5 103.832031 C 190.824219 104.0625 191.03125 104.378906 191.125 104.785156 Z M 187.609375 106.988281 L 190.453125 107.175781 L 190.53125 105.957031 C 190.5625 105.488281 190.46875 105.128906 190.25 104.878906 C 190.023438 104.621094 189.671875 104.472656 189.203125 104.441406 C 188.734375 104.410156 188.375 104.511719 188.125 104.738281 C 187.867188 104.957031 187.71875 105.300781 187.6875 105.769531 Z M 189.929688 99.171875 C 189.898438 99.652344 190.082031 100.042969 190.476563 100.34375 C 190.875 100.648438 191.425781 100.824219 192.132813 100.875 C 192.851563 100.917969 193.429688 100.8125 193.867188 100.5625 C 194.296875 100.3125 194.523438 99.949219 194.554688 99.46875 C 194.585938 99 194.40625 98.617188 194.007813 98.3125 C 193.613281 98.011719 193.054688 97.839844 192.335938 97.796875 C 191.628906 97.746094 191.0625 97.84375 190.632813 98.09375 C 190.195313 98.34375 189.960938 98.703125 189.929688 99.171875 Z M 189.101563 99.109375 C 189.144531 98.351563 189.460938 97.765625 190.054688 97.359375 C 190.640625 96.953125 191.421875 96.789063 192.398438 96.859375 C 193.378906 96.921875 194.132813 97.195313 194.664063 97.671875 C 195.195313 98.152344 195.4375 98.773438 195.398438 99.53125 C 195.34375 100.3125 195.023438 100.90625 194.429688 101.3125 C 193.835938 101.710938 193.050781 101.875 192.070313 101.8125 C 191.09375 101.742188 190.34375 101.46875 189.820313 101 C 189.289063 100.523438 189.050781 99.890625 189.101563 99.109375 Z M 192.621094 92.921875 C 192.582031 93.640625 192.644531 94.148438 192.808594 94.4375 C 192.976563 94.730469 193.277344 94.886719 193.714844 94.90625 C 194.058594 94.9375 194.347656 94.855469 194.574219 94.65625 C 194.792969 94.460938 194.914063 94.183594 194.933594 93.828125 C 194.964844 93.328125 194.800781 92.921875 194.433594 92.609375 C 194.058594 92.289063 193.554688 92.105469 192.917969 92.0625 L 192.683594 92.046875 Z M 192.324219 91.140625 L 195.761719 91.359375 L 195.714844 92.25 L 194.808594 92.1875 C 195.152344 92.429688 195.402344 92.703125 195.558594 93.015625 C 195.714844 93.320313 195.777344 93.6875 195.746094 94.125 C 195.714844 94.679688 195.515625 95.105469 195.152344 95.40625 C 194.777344 95.710938 194.300781 95.84375 193.714844 95.8125 C 193.039063 95.773438 192.550781 95.539063 192.246094 95.109375 C 191.933594 94.671875 191.804688 94.046875 191.855469 93.234375 L 191.933594 92 L 191.839844 92 C 191.382813 91.96875 191.019531 92.078125 190.746094 92.328125 C 190.476563 92.578125 190.324219 92.949219 190.292969 93.4375 C 190.273438 93.742188 190.300781 94.042969 190.371094 94.34375 C 190.433594 94.648438 190.539063 94.9375 190.683594 95.21875 L 189.777344 95.15625 C 189.652344 94.8125 189.570313 94.492188 189.527344 94.1875 C 189.476563 93.875 189.460938 93.574219 189.480469 93.28125 C 189.535156 92.511719 189.792969 91.949219 190.261719 91.59375 C 190.730469 91.230469 191.417969 91.078125 192.324219 91.140625 Z M 191.027344 85.652344 L 187.777344 85.433594 L 187.824219 84.542969 L 196.167969 85.089844 L 196.121094 85.980469 L 195.214844 85.917969 C 195.558594 86.136719 195.808594 86.394531 195.964844 86.683594 C 196.121094 86.976563 196.183594 87.320313 196.152344 87.714844 C 196.109375 88.371094 195.789063 88.886719 195.183594 89.261719 C 194.582031 89.628906 193.804688 89.785156 192.855469 89.730469 C 191.917969 89.667969 191.175781 89.414063 190.621094 88.964844 C 190.070313 88.507813 189.816406 87.949219 189.855469 87.292969 C 189.886719 86.898438 189.996094 86.570313 190.183594 86.308594 C 190.371094 86.039063 190.652344 85.820313 191.027344 85.652344 Z M 192.917969 88.808594 C 193.648438 88.851563 194.226563 88.753906 194.652344 88.511719 C 195.082031 88.273438 195.308594 87.917969 195.339844 87.449219 C 195.371094 86.972656 195.195313 86.585938 194.808594 86.292969 C 194.414063 86.003906 193.851563 85.835938 193.121094 85.792969 C 192.402344 85.742188 191.832031 85.835938 191.402344 86.074219 C 190.964844 86.316406 190.730469 86.675781 190.699219 87.152344 C 190.667969 87.621094 190.851563 88.003906 191.246094 88.292969 C 191.644531 88.585938 192.199219 88.757813 192.917969 88.808594 Z M 192.917969 88.808594 "/>
<path style="fill:none;stroke-width:3;stroke-linecap:round;stroke-linejoin:round;stroke:rgb(100%,100%,100%);stroke-opacity:1;stroke-miterlimit:10;" d="M 38.699219 65.621094 L 37.542969 65.574219 C 37.894531 65.25 38.160156 64.90625 38.339844 64.542969 C 38.515625 64.175781 38.609375 63.785156 38.621094 63.371094 C 38.652344 62.546875 38.394531 61.90625 37.855469 61.449219 C 37.3125 60.988281 36.511719 60.738281 35.449219 60.699219 C 34.394531 60.667969 33.578125 60.863281 32.996094 61.292969 C 32.421875 61.71875 32.121094 62.34375 32.089844 63.167969 C 32.078125 63.582031 32.152344 63.980469 32.308594 64.355469 C 32.464844 64.730469 32.707031 65.089844 33.042969 65.433594 L 31.917969 65.386719 C 31.667969 65.03125 31.488281 64.660156 31.371094 64.277344 C 31.246094 63.902344 31.191406 63.5 31.199219 63.074219 C 31.242188 61.980469 31.640625 61.128906 32.402344 60.527344 C 33.171875 59.921875 34.199219 59.640625 35.480469 59.683594 C 36.769531 59.722656 37.777344 60.066406 38.496094 60.714844 C 39.222656 61.371094 39.566406 62.246094 39.527344 63.339844 C 39.515625 63.777344 39.4375 64.183594 39.292969 64.558594 C 39.15625 64.933594 38.957031 65.285156 38.699219 65.621094 Z M 34.191406 69.382813 C 34.210938 68.664063 34.132813 68.164063 33.957031 67.882813 C 33.777344 67.601563 33.472656 67.453125 33.035156 67.445313 C 32.691406 67.433594 32.410156 67.527344 32.191406 67.726563 C 31.980469 67.921875 31.867188 68.199219 31.847656 68.554688 C 31.835938 69.054688 32.019531 69.460938 32.394531 69.773438 C 32.777344 70.085938 33.289063 70.25 33.925781 70.273438 L 34.160156 70.273438 Z M 34.535156 71.179688 L 31.097656 71.070313 L 31.128906 70.179688 L 32.035156 70.210938 C 31.679688 69.992188 31.425781 69.726563 31.269531 69.414063 C 31.105469 69.109375 31.027344 68.742188 31.035156 68.304688 C 31.058594 67.75 31.246094 67.3125 31.597656 66.992188 C 31.949219 66.679688 32.417969 66.53125 33.003906 66.554688 C 33.679688 66.574219 34.179688 66.792969 34.503906 67.210938 C 34.835938 67.625 34.992188 68.242188 34.972656 69.054688 L 34.925781 70.304688 L 35.019531 70.304688 C 35.476563 70.324219 35.835938 70.199219 36.097656 69.929688 C 36.355469 69.667969 36.492188 69.292969 36.503906 68.804688 C 36.511719 68.5 36.480469 68.199219 36.410156 67.898438 C 36.335938 67.605469 36.222656 67.320313 36.066406 67.039063 L 36.972656 67.070313 C 37.105469 67.414063 37.199219 67.734375 37.253906 68.039063 C 37.316406 68.339844 37.339844 68.636719 37.332031 68.929688 C 37.308594 69.710938 37.066406 70.289063 36.597656 70.664063 C 36.136719 71.039063 35.449219 71.210938 34.535156 71.179688 Z M 36.023438 76.207031 C 36.09375 76.101563 36.148438 75.988281 36.179688 75.863281 C 36.21875 75.746094 36.242188 75.621094 36.242188 75.488281 C 36.261719 74.976563 36.089844 74.582031 35.726563 74.300781 C 35.371094 74.027344 34.855469 73.882813 34.179688 73.863281 L 31.007813 73.753906 L 31.039063 72.847656 L 37.054688 73.050781 L 37.023438 73.957031 L 36.085938 73.925781 C 36.449219 74.121094 36.714844 74.371094 36.882813 74.675781 C 37.046875 74.976563 37.121094 75.339844 37.101563 75.769531 C 37.101563 75.832031 37.09375 75.898438 37.085938 75.972656 C 37.085938 76.054688 37.070313 76.136719 37.039063 76.222656 Z M 38.59375 78.078125 L 36.890625 78.03125 L 36.828125 79.859375 L 36.0625 79.828125 L 36.125 78 L 32.859375 77.890625 C 32.367188 77.878906 32.050781 77.929688 31.90625 78.046875 C 31.757813 78.160156 31.679688 78.40625 31.671875 78.78125 L 31.640625 79.6875 L 30.8125 79.65625 L 30.84375 78.75 C 30.867188 78.0625 31.019531 77.59375 31.3125 77.34375 C 31.613281 77.09375 32.140625 76.976563 32.890625 77 L 36.15625 77.109375 L 36.171875 76.453125 L 36.9375 76.484375 L 36.921875 77.140625 L 38.625 77.1875 Z M 33.871094 85.5625 L 33.386719 85.546875 L 33.527344 81.453125 C 32.847656 81.472656 32.328125 81.640625 31.964844 81.953125 C 31.597656 82.273438 31.40625 82.726563 31.386719 83.3125 C 31.375 83.65625 31.410156 83.988281 31.496094 84.3125 C 31.578125 84.632813 31.703125 84.960938 31.871094 85.296875 L 30.949219 85.265625 C 30.804688 84.929688 30.699219 84.597656 30.636719 84.265625 C 30.566406 83.929688 30.535156 83.59375 30.542969 83.25 C 30.574219 82.382813 30.875 81.707031 31.449219 81.21875 C 32.019531 80.726563 32.785156 80.5 33.746094 80.53125 C 34.722656 80.5625 35.496094 80.828125 36.058594 81.328125 C 36.621094 81.828125 36.886719 82.484375 36.855469 83.296875 C 36.832031 84.023438 36.550781 84.59375 36.011719 85 C 35.480469 85.40625 34.765625 85.59375 33.871094 85.5625 Z M 34.199219 84.671875 C 34.738281 84.679688 35.175781 84.5625 35.511719 84.3125 C 35.84375 84.0625 36.015625 83.71875 36.027344 83.28125 C 36.046875 82.78125 35.90625 82.375 35.605469 82.0625 C 35.300781 81.75 34.871094 81.5625 34.308594 81.5 Z M 35.5625 90.230469 C 35.632813 90.125 35.6875 90.011719 35.71875 89.886719 C 35.757813 89.769531 35.78125 89.644531 35.78125 89.511719 C 35.800781 89 35.628906 88.605469 35.265625 88.324219 C 34.910156 88.050781 34.394531 87.90625 33.71875 87.886719 L 30.546875 87.777344 L 30.578125 86.871094 L 36.59375 87.074219 L 36.5625 87.980469 L 35.625 87.949219 C 35.988281 88.144531 36.253906 88.394531 36.421875 88.699219 C 36.585938 89 36.660156 89.363281 36.640625 89.792969 C 36.640625 89.855469 36.632813 89.921875 36.625 89.996094 C 36.625 90.078125 36.609375 90.160156 36.578125 90.246094 Z M 33.539063 95.714844 L 33.054688 95.699219 L 33.195313 91.605469 C 32.515625 91.625 31.996094 91.792969 31.632813 92.105469 C 31.265625 92.425781 31.074219 92.878906 31.054688 93.464844 C 31.042969 93.808594 31.078125 94.140625 31.164063 94.464844 C 31.246094 94.785156 31.371094 95.113281 31.539063 95.449219 L 30.617188 95.417969 C 30.472656 95.082031 30.367188 94.75 30.304688 94.417969 C 30.234375 94.082031 30.203125 93.746094 30.210938 93.402344 C 30.242188 92.535156 30.542969 91.859375 31.117188 91.371094 C 31.6875 90.878906 32.453125 90.652344 33.414063 90.683594 C 34.390625 90.714844 35.164063 90.980469 35.726563 91.480469 C 36.289063 91.980469 36.554688 92.636719 36.523438 93.449219 C 36.5 94.175781 36.21875 94.746094 35.679688 95.152344 C 35.148438 95.558594 34.433594 95.746094 33.539063 95.714844 Z M 33.867188 94.824219 C 34.40625 94.832031 34.84375 94.714844 35.179688 94.464844 C 35.511719 94.214844 35.683594 93.871094 35.695313 93.433594 C 35.714844 92.933594 35.574219 92.527344 35.273438 92.214844 C 34.96875 91.902344 34.539063 91.714844 33.976563 91.652344 Z M 37.933594 98.195313 L 36.230469 98.148438 L 36.167969 99.976563 L 35.402344 99.945313 L 35.464844 98.117188 L 32.199219 98.007813 C 31.707031 97.996094 31.390625 98.046875 31.246094 98.164063 C 31.097656 98.277344 31.019531 98.523438 31.011719 98.898438 L 30.980469 99.804688 L 30.152344 99.773438 L 30.183594 98.867188 C 30.207031 98.179688 30.359375 97.710938 30.652344 97.460938 C 30.953125 97.210938 31.480469 97.09375 32.230469 97.117188 L 35.496094 97.226563 L 35.511719 96.570313 L 36.277344 96.601563 L 36.261719 97.257813 L 37.964844 97.304688 Z M 37.554688 104.988281 L 31.335938 105.457031 L 31.429688 106.613281 C 31.5 107.613281 31.804688 108.324219 32.335938 108.753906 C 32.867188 109.179688 33.667969 109.351563 34.742188 109.269531 C 35.8125 109.183594 36.585938 108.894531 37.054688 108.394531 C 37.523438 107.894531 37.71875 107.144531 37.648438 106.144531 Z M 38.382813 103.941406 L 38.523438 105.925781 C 38.625 107.332031 38.375 108.382813 37.773438 109.082031 C 37.179688 109.777344 36.195313 110.179688 34.820313 110.285156 C 33.445313 110.386719 32.40625 110.132813 31.710938 109.519531 C 31.023438 108.914063 30.625 107.914063 30.523438 106.519531 L 30.382813 104.535156 Z M 36.359375 114.828125 C 36.398438 114.710938 36.429688 114.59375 36.453125 114.46875 C 36.472656 114.351563 36.476563 114.226563 36.46875 114.09375 C 36.414063 113.582031 36.195313 113.210938 35.8125 112.984375 C 35.425781 112.753906 34.894531 112.671875 34.21875 112.734375 L 31.0625 113.0625 L 30.96875 112.171875 L 36.953125 111.5625 L 37.046875 112.453125 L 36.109375 112.546875 C 36.492188 112.691406 36.785156 112.90625 36.984375 113.1875 C 37.191406 113.46875 37.316406 113.820313 37.359375 114.25 C 37.367188 114.3125 37.375 114.378906 37.375 114.453125 C 37.382813 114.535156 37.378906 114.617188 37.359375 114.703125 Z M 37.367188 115.648438 L 37.460938 116.523438 L 31.476563 117.132813 L 31.382813 116.257813 Z M 39.695313 115.414063 L 39.789063 116.289063 L 38.554688 116.414063 L 38.460938 115.539063 Z M 37.582031 117.746094 L 37.675781 118.683594 L 32.832031 120.871094 L 38.019531 122.042969 L 38.113281 122.980469 L 31.925781 121.574219 L 31.800781 120.371094 Z M 35.960938 129.089844 L 35.476563 129.136719 L 35.070313 125.074219 C 34.390625 125.175781 33.890625 125.410156 33.570313 125.777344 C 33.257813 126.152344 33.132813 126.628906 33.195313 127.214844 C 33.226563 127.558594 33.304688 127.878906 33.429688 128.183594 C 33.5625 128.484375 33.734375 128.785156 33.945313 129.089844 L 33.023438 129.183594 C 32.835938 128.871094 32.683594 128.550781 32.570313 128.230469 C 32.453125 127.917969 32.382813 127.589844 32.351563 127.246094 C 32.257813 126.378906 32.460938 125.667969 32.960938 125.105469 C 33.46875 124.550781 34.203125 124.230469 35.164063 124.136719 C 36.140625 124.03125 36.9375 124.1875 37.554688 124.605469 C 38.179688 125.019531 38.53125 125.636719 38.617188 126.449219 C 38.6875 127.175781 38.484375 127.777344 38.007813 128.246094 C 37.527344 128.714844 36.84375 128.996094 35.960938 129.089844 Z M 36.164063 128.167969 C 36.703125 128.105469 37.121094 127.925781 37.414063 127.636719 C 37.703125 127.34375 37.828125 126.980469 37.789063 126.542969 C 37.734375 126.042969 37.539063 125.65625 37.195313 125.386719 C 36.859375 125.113281 36.414063 124.996094 35.851563 125.027344 Z M 36.164063 128.167969 "/>
<path style=" stroke:none;fill-rule:evenodd;fill:rgb(20%,20%,20%);fill-opacity:1;" d="M 38.699219 65.621094 L 37.542969 65.574219 C 37.894531 65.25 38.160156 64.90625 38.339844 64.542969 C 38.515625 64.175781 38.609375 63.785156 38.621094 63.371094 C 38.652344 62.546875 38.394531 61.90625 37.855469 61.449219 C 37.3125 60.988281 36.511719 60.738281 35.449219 60.699219 C 34.394531 60.667969 33.578125 60.863281 32.996094 61.292969 C 32.421875 61.71875 32.121094 62.34375 32.089844 63.167969 C 32.078125 63.582031 32.152344 63.980469 32.308594 64.355469 C 32.464844 64.730469 32.707031 65.089844 33.042969 65.433594 L 31.917969 65.386719 C 31.667969 65.03125 31.488281 64.660156 31.371094 64.277344 C 31.246094 63.902344 31.191406 63.5 31.199219 63.074219 C 31.242188 61.980469 31.640625 61.128906 32.402344 60.527344 C 33.171875 59.921875 34.199219 59.640625 35.480469 59.683594 C 36.769531 59.722656 37.777344 60.066406 38.496094 60.714844 C 39.222656 61.371094 39.566406 62.246094 39.527344 63.339844 C 39.515625 63.777344 39.4375 64.183594 39.292969 64.558594 C 39.15625 64.933594 38.957031 65.285156 38.699219 65.621094 Z M 34.191406 69.382813 C 34.210938 68.664063 34.132813 68.164063 33.957031 67.882813 C 33.777344 67.601563 33.472656 67.453125 33.035156 67.445313 C 32.691406 67.433594 32.410156 67.527344 32.191406 67.726563 C 31.980469 67.921875 31.867188 68.199219 31.847656 68.554688 C 31.835938 69.054688 32.019531 69.460938 32.394531 69.773438 C 32.777344 70.085938 33.289063 70.25 33.925781 70.273438 L 34.160156 70.273438 Z M 34.535156 71.179688 L 31.097656 71.070313 L 31.128906 70.179688 L 32.035156 70.210938 C 31.679688 69.992188 31.425781 69.726563 31.269531 69.414063 C 31.105469 69.109375 31.027344 68.742188 31.035156 68.304688 C 31.058594 67.75 31.246094 67.3125 31.597656 66.992188 C 31.949219 66.679688 32.417969 66.53125 33.003906 66.554688 C 33.679688 66.574219 34.179688 66.792969 34.503906 67.210938 C 34.835938 67.625 34.992188 68.242188 34.972656 69.054688 L 34.925781 70.304688 L 35.019531 70.304688 C 35.476563 70.324219 35.835938 70.199219 36.097656 69.929688 C 36.355469 69.667969 36.492188 69.292969 36.503906 68.804688 C 36.511719 68.5 36.480469 68.199219 36.410156 67.898438 C 36.335938 67.605469 36.222656 67.320313 36.066406 67.039063 L 36.972656 67.070313 C 37.105469 67.414063 37.199219 67.734375 37.253906 68.039063 C 37.316406 68.339844 37.339844 68.636719 37.332031 68.929688 C 37.308594 69.710938 37.066406 70.289063 36.597656 70.664063 C 36.136719 71.039063 35.449219 71.210938 34.535156 71.179688 Z M 36.023438 76.207031 C 36.09375 76.101563 36.148438 75.988281 36.179688 75.863281 C 36.21875 75.746094 36.242188 75.621094 36.242188 75.488281 C 36.261719 74.976563 36.089844 74.582031 35.726563 74.300781 C 35.371094 74.027344 34.855469 73.882813 34.179688 73.863281 L 31.007813 73.753906 L 31.039063 72.847656 L 37.054688 73.050781 L 37.023438 73.957031 L 36.085938 73.925781 C 36.449219 74.121094 36.714844 74.371094 36.882813 74.675781 C 37.046875 74.976563 37.121094 75.339844 37.101563 75.769531 C 37.101563 75.832031 37.09375 75.898438 37.085938 75.972656 C 37.085938 76.054688 37.070313 76.136719 37.039063 76.222656 Z M 38.59375 78.078125 L 36.890625 78.03125 L 36.828125 79.859375 L 36.0625 79.828125 L 36.125 78 L 32.859375 77.890625 C 32.367188 77.878906 32.050781 77.929688 31.90625 78.046875 C 31.757813 78.160156 31.679688 78.40625 31.671875 78.78125 L 31.640625 79.6875 L 30.8125 79.65625 L 30.84375 78.75 C 30.867188 78.0625 31.019531 77.59375 31.3125 77.34375 C 31.613281 77.09375 32.140625 76.976563 32.890625 77 L 36.15625 77.109375 L 36.171875 76.453125 L 36.9375 76.484375 L 36.921875 77.140625 L 38.625 77.1875 Z M 33.871094 85.5625 L 33.386719 85.546875 L 33.527344 81.453125 C 32.847656 81.472656 32.328125 81.640625 31.964844 81.953125 C 31.597656 82.273438 31.40625 82.726563 31.386719 83.3125 C 31.375 83.65625 31.410156 83.988281 31.496094 84.3125 C 31.578125 84.632813 31.703125 84.960938 31.871094 85.296875 L 30.949219 85.265625 C 30.804688 84.929688 30.699219 84.597656 30.636719 84.265625 C 30.566406 83.929688 30.535156 83.59375 30.542969 83.25 C 30.574219 82.382813 30.875 81.707031 31.449219 81.21875 C 32.019531 80.726563 32.785156 80.5 33.746094 80.53125 C 34.722656 80.5625 35.496094 80.828125 36.058594 81.328125 C 36.621094 81.828125 36.886719 82.484375 36.855469 83.296875 C 36.832031 84.023438 36.550781 84.59375 36.011719 85 C 35.480469 85.40625 34.765625 85.59375 33.871094 85.5625 Z M 34.199219 84.671875 C 34.738281 84.679688 35.175781 84.5625 35.511719 84.3125 C 35.84375 84.0625 36.015625 83.71875 36.027344 83.28125 C 36.046875 82.78125 35.90625 82.375 35.605469 82.0625 C 35.300781 81.75 34.871094 81.5625 34.308594 81.5 Z M 35.5625 90.230469 C 35.632813 90.125 35.6875 90.011719 35.71875 89.886719 C 35.757813 89.769531 35.78125 89.644531 35.78125 89.511719 C 35.800781 89 35.628906 88.605469 35.265625 88.324219 C 34.910156 88.050781 34.394531 87.90625 33.71875 87.886719 L 30.546875 87.777344 L 30.578125 86.871094 L 36.59375 87.074219 L 36.5625 87.980469 L 35.625 87.949219 C 35.988281 88.144531 36.253906 88.394531 36.421875 88.699219 C 36.585938 89 36.660156 89.363281 36.640625 89.792969 C 36.640625 89.855469 36.632813 89.921875 36.625 89.996094 C 36.625 90.078125 36.609375 90.160156 36.578125 90.246094 Z M 33.539063 95.714844 L 33.054688 95.699219 L 33.195313 91.605469 C 32.515625 91.625 31.996094 91.792969 31.632813 92.105469 C 31.265625 92.425781 31.074219 92.878906 31.054688 93.464844 C 31.042969 93.808594 31.078125 94.140625 31.164063 94.464844 C 31.246094 94.785156 31.371094 95.113281 31.539063 95.449219 L 30.617188 95.417969 C 30.472656 95.082031 30.367188 94.75 30.304688 94.417969 C 30.234375 94.082031 30.203125 93.746094 30.210938 93.402344 C 30.242188 92.535156 30.542969 91.859375 31.117188 91.371094 C 31.6875 90.878906 32.453125 90.652344 33.414063 90.683594 C 34.390625 90.714844 35.164063 90.980469 35.726563 91.480469 C 36.289063 91.980469 36.554688 92.636719 36.523438 93.449219 C 36.5 94.175781 36.21875 94.746094 35.679688 95.152344 C 35.148438 95.558594 34.433594 95.746094 33.539063 95.714844 Z M 33.867188 94.824219 C 34.40625 94.832031 34.84375 94.714844 35.179688 94.464844 C 35.511719 94.214844 35.683594 93.871094 35.695313 93.433594 C 35.714844 92.933594 35.574219 92.527344 35.273438 92.214844 C 34.96875 91.902344 34.539063 91.714844 33.976563 91.652344 Z M 37.933594 98.195313 L 36.230469 98.148438 L 36.167969 99.976563 L 35.402344 99.945313 L 35.464844 98.117188 L 32.199219 98.007813 C 31.707031 97.996094 31.390625 98.046875 31.246094 98.164063 C 31.097656 98.277344 31.019531 98.523438 31.011719 98.898438 L 30.980469 99.804688 L 30.152344 99.773438 L 30.183594 98.867188 C 30.207031 98.179688 30.359375 97.710938 30.652344 97.460938 C 30.953125 97.210938 31.480469 97.09375 32.230469 97.117188 L 35.496094 97.226563 L 35.511719 96.570313 L 36.277344 96.601563 L 36.261719 97.257813 L 37.964844 97.304688 Z M 37.554688 104.988281 L 31.335938 105.457031 L 31.429688 106.613281 C 31.5 107.613281 31.804688 108.324219 32.335938 108.753906 C 32.867188 109.179688 33.667969 109.351563 34.742188 109.269531 C 35.8125 109.183594 36.585938 108.894531 37.054688 108.394531 C 37.523438 107.894531 37.71875 107.144531 37.648438 106.144531 Z M 38.382813 103.941406 L 38.523438 105.925781 C 38.625 107.332031 38.375 108.382813 37.773438 109.082031 C 37.179688 109.777344 36.195313 110.179688 34.820313 110.285156 C 33.445313 110.386719 32.40625 110.132813 31.710938 109.519531 C 31.023438 108.914063 30.625 107.914063 30.523438 106.519531 L 30.382813 104.535156 Z M 36.359375 114.828125 C 36.398438 114.710938 36.429688 114.59375 36.453125 114.46875 C 36.472656 114.351563 36.476563 114.226563 36.46875 114.09375 C 36.414063 113.582031 36.195313 113.210938 35.8125 112.984375 C 35.425781 112.753906 34.894531 112.671875 34.21875 112.734375 L 31.0625 113.0625 L 30.96875 112.171875 L 36.953125 111.5625 L 37.046875 112.453125 L 36.109375 112.546875 C 36.492188 112.691406 36.785156 112.90625 36.984375 113.1875 C 37.191406 113.46875 37.316406 113.820313 37.359375 114.25 C 37.367188 114.3125 37.375 114.378906 37.375 114.453125 C 37.382813 114.535156 37.378906 114.617188 37.359375 114.703125 Z M 37.367188 115.648438 L 37.460938 116.523438 L 31.476563 117.132813 L 31.382813 116.257813 Z M 39.695313 115.414063 L 39.789063 116.289063 L 38.554688 116.414063 L 38.460938 115.539063 Z M 37.582031 117.746094 L 37.675781 118.683594 L 32.832031 120.871094 L 38.019531 122.042969 L 38.113281 122.980469 L 31.925781 121.574219 L 31.800781 120.371094 Z M 35.960938 129.089844 L 35.476563 129.136719 L 35.070313 125.074219 C 34.390625 125.175781 33.890625 125.410156 33.570313 125.777344 C 33.257813 126.152344 33.132813 126.628906 33.195313 127.214844 C 33.226563 127.558594 33.304688 127.878906 33.429688 128.183594 C 33.5625 128.484375 33.734375 128.785156 33.945313 129.089844 L 33.023438 129.183594 C 32.835938 128.871094 32.683594 128.550781 32.570313 128.230469 C 32.453125 127.917969 32.382813 127.589844 32.351563 127.246094 C 32.257813 126.378906 32.460938 125.667969 32.960938 125.105469 C 33.46875 124.550781 34.203125 124.230469 35.164063 124.136719 C 36.140625 124.03125 36.9375 124.1875 37.554688 124.605469 C 38.179688 125.019531 38.53125 125.636719 38.617188 126.449219 C 38.6875 127.175781 38.484375 127.777344 38.007813 128.246094 C 37.527344 128.714844 36.84375 128.996094 35.960938 129.089844 Z M 36.164063 128.167969 C 36.703125 128.105469 37.121094 127.925781 37.414063 127.636719 C 37.703125 127.34375 37.828125 126.980469 37.789063 126.542969 C 37.734375 126.042969 37.539063 125.65625 37.195313 125.386719 C 36.859375 125.113281 36.414063 124.996094 35.851563 125.027344 Z M 36.164063 128.167969 "/>
<path style="fill:none;stroke-width:3;stroke-linecap:round;stroke-linejoin:round;stroke:rgb(100%,100%,100%);stroke-opacity:1;stroke-miterlimit:10;" d="M 84.0625 110.277344 C 84.167969 110.082031 84.355469 109.894531 84.625 109.714844 C 84.886719 109.527344 85.25 109.347656 85.71875 109.167969 L 87.96875 108.308594 L 87.90625 109.355469 L 85.78125 110.152344 C 85.242188 110.351563 84.875 110.558594 84.6875 110.777344 C 84.492188 110.988281 84.382813 111.285156 84.359375 111.667969 L 84.296875 112.730469 L 87.6875 112.933594 L 87.640625 113.917969 L 79.640625 113.449219 L 79.765625 111.246094 C 79.820313 110.414063 80.046875 109.808594 80.453125 109.433594 C 80.851563 109.058594 81.4375 108.898438 82.21875 108.949219 C 82.71875 108.972656 83.132813 109.097656 83.453125 109.324219 C 83.765625 109.554688 83.96875 109.871094 84.0625 110.277344 Z M 80.578125 112.511719 L 83.40625 112.683594 L 83.484375 111.464844 C 83.515625 110.988281 83.421875 110.621094 83.203125 110.371094 C 82.976563 110.121094 82.625 109.988281 82.15625 109.964844 C 81.6875 109.933594 81.328125 110.027344 81.078125 110.246094 C 80.828125 110.464844 80.6875 110.816406 80.65625 111.292969 Z M 85.152344 104.460938 C 85.113281 105.179688 85.179688 105.6875 85.355469 105.976563 C 85.523438 106.257813 85.824219 106.410156 86.261719 106.429688 C 86.605469 106.453125 86.886719 106.367188 87.105469 106.179688 C 87.324219 105.984375 87.445313 105.707031 87.464844 105.351563 C 87.496094 104.851563 87.324219 104.441406 86.949219 104.117188 C 86.574219 103.796875 86.070313 103.617188 85.433594 103.585938 L 85.199219 103.570313 Z M 84.839844 102.664063 L 88.277344 102.867188 L 88.230469 103.742188 L 87.324219 103.695313 C 87.679688 103.925781 87.929688 104.195313 88.074219 104.507813 C 88.230469 104.820313 88.296875 105.195313 88.277344 105.632813 C 88.246094 106.1875 88.046875 106.617188 87.683594 106.929688 C 87.320313 107.234375 86.847656 107.367188 86.261719 107.335938 C 85.585938 107.296875 85.089844 107.0625 84.777344 106.632813 C 84.457031 106.207031 84.316406 105.585938 84.355469 104.773438 L 84.433594 103.523438 L 84.339844 103.523438 C 83.882813 103.492188 83.523438 103.609375 83.261719 103.867188 C 83.003906 104.117188 82.855469 104.488281 82.824219 104.976563 C 82.804688 105.28125 82.832031 105.582031 82.902344 105.882813 C 82.964844 106.1875 83.074219 106.476563 83.230469 106.757813 L 82.324219 106.710938 C 82.199219 106.367188 82.113281 106.046875 82.058594 105.742188 C 82.007813 105.429688 81.988281 105.128906 81.996094 104.835938 C 82.050781 104.054688 82.308594 103.488281 82.777344 103.132813 C 83.246094 102.769531 83.933594 102.613281 84.839844 102.664063 Z M 82.332031 101.351563 L 82.378906 100.414063 L 87.503906 98.960938 L 82.535156 97.023438 L 82.582031 96.085938 L 88.503906 98.398438 L 88.441406 99.601563 Z M 85.628906 90.359375 L 86.113281 90.390625 L 85.925781 94.484375 C 86.605469 94.476563 87.128906 94.3125 87.503906 94 C 87.871094 93.679688 88.0625 93.226563 88.082031 92.640625 C 88.105469 92.296875 88.078125 91.964844 88.003906 91.640625 C 87.921875 91.320313 87.796875 90.992188 87.628906 90.65625 L 88.550781 90.703125 C 88.695313 91.039063 88.800781 91.371094 88.863281 91.703125 C 88.925781 92.039063 88.945313 92.375 88.925781 92.71875 C 88.882813 93.585938 88.578125 94.257813 88.003906 94.734375 C 87.421875 95.214844 86.652344 95.433594 85.691406 95.390625 C 84.714844 95.339844 83.949219 95.0625 83.394531 94.5625 C 82.832031 94.054688 82.574219 93.390625 82.613281 92.578125 C 82.644531 91.851563 82.933594 91.289063 83.472656 90.890625 C 84.015625 90.496094 84.734375 90.320313 85.628906 90.359375 Z M 85.285156 91.234375 C 84.746094 91.226563 84.308594 91.34375 83.972656 91.59375 C 83.640625 91.835938 83.464844 92.171875 83.441406 92.609375 C 83.421875 93.109375 83.5625 93.523438 83.863281 93.84375 C 84.15625 94.15625 84.582031 94.34375 85.144531 94.40625 Z M 85.546875 84.382813 L 89.171875 84.554688 L 89.125 85.445313 L 85.53125 85.273438 C 84.960938 85.242188 84.527344 85.328125 84.234375 85.523438 C 83.945313 85.710938 83.789063 86.003906 83.765625 86.398438 C 83.746094 86.878906 83.902344 87.265625 84.234375 87.554688 C 84.558594 87.847656 85.011719 88.007813 85.59375 88.039063 L 89 88.195313 L 88.953125 89.101563 L 82.9375 88.820313 L 82.984375 87.914063 L 83.921875 87.945313 C 83.558594 87.726563 83.296875 87.472656 83.140625 87.179688 C 82.976563 86.878906 82.902344 86.535156 82.921875 86.148438 C 82.953125 85.535156 83.195313 85.078125 83.640625 84.773438 C 84.078125 84.472656 84.714844 84.34375 85.546875 84.382813 Z M 85.847656 78.105469 L 89.472656 78.277344 L 89.425781 79.167969 L 85.832031 78.996094 C 85.261719 78.964844 84.828125 79.050781 84.535156 79.246094 C 84.246094 79.433594 84.089844 79.726563 84.066406 80.121094 C 84.046875 80.601563 84.203125 80.988281 84.535156 81.277344 C 84.859375 81.570313 85.3125 81.730469 85.894531 81.761719 L 89.300781 81.917969 L 89.253906 82.824219 L 83.238281 82.542969 L 83.285156 81.636719 L 84.222656 81.667969 C 83.859375 81.449219 83.597656 81.195313 83.441406 80.902344 C 83.277344 80.601563 83.203125 80.257813 83.222656 79.871094 C 83.253906 79.257813 83.496094 78.800781 83.941406 78.496094 C 84.378906 78.195313 85.015625 78.066406 85.847656 78.105469 Z M 86.386719 73.824219 C 86.410156 74.542969 86.519531 75.039063 86.714844 75.308594 C 86.902344 75.582031 87.214844 75.710938 87.652344 75.699219 C 87.996094 75.691406 88.273438 75.582031 88.480469 75.371094 C 88.679688 75.152344 88.773438 74.867188 88.761719 74.511719 C 88.753906 74.011719 88.550781 73.621094 88.152344 73.339844 C 87.746094 73.050781 87.226563 72.914063 86.589844 72.933594 L 86.355469 72.933594 Z M 85.933594 72.058594 L 89.371094 71.964844 L 89.386719 72.855469 L 88.480469 72.886719 C 88.855469 73.085938 89.136719 73.335938 89.324219 73.636719 C 89.503906 73.929688 89.59375 74.292969 89.605469 74.730469 C 89.613281 75.285156 89.457031 75.730469 89.121094 76.074219 C 88.789063 76.410156 88.332031 76.582031 87.746094 76.589844 C 87.070313 76.613281 86.554688 76.425781 86.199219 76.027344 C 85.847656 75.632813 85.660156 75.027344 85.636719 74.214844 L 85.589844 72.964844 L 85.496094 72.964844 C 85.039063 72.976563 84.691406 73.121094 84.449219 73.402344 C 84.210938 73.683594 84.097656 74.070313 84.105469 74.558594 C 84.117188 74.863281 84.167969 75.160156 84.261719 75.449219 C 84.355469 75.742188 84.488281 76.023438 84.652344 76.292969 L 83.746094 76.308594 C 83.589844 75.988281 83.476563 75.675781 83.402344 75.371094 C 83.332031 75.070313 83.289063 74.773438 83.277344 74.480469 C 83.257813 73.699219 83.464844 73.113281 83.902344 72.714844 C 84.339844 72.308594 85.019531 72.089844 85.933594 72.058594 Z M 82.019531 66.273438 L 88.238281 65.929688 L 88.175781 64.757813 C 88.125 63.757813 87.839844 63.046875 87.316406 62.617188 C 86.785156 62.179688 85.980469 61.992188 84.894531 62.054688 C 83.832031 62.117188 83.066406 62.394531 82.597656 62.882813 C 82.121094 63.363281 81.90625 64.101563 81.957031 65.101563 Z M 81.191406 67.304688 L 81.082031 65.304688 C 81 63.898438 81.265625 62.859375 81.878906 62.179688 C 82.484375 61.492188 83.46875 61.113281 84.832031 61.039063 C 86.21875 60.96875 87.253906 61.238281 87.941406 61.851563 C 88.621094 62.46875 89 63.472656 89.082031 64.867188 L 89.191406 66.867188 Z M 83.425781 56.472656 C 83.363281 56.578125 83.324219 56.691406 83.300781 56.816406 C 83.28125 56.933594 83.277344 57.058594 83.285156 57.191406 C 83.328125 57.703125 83.542969 58.078125 83.925781 58.316406 C 84.3125 58.546875 84.84375 58.636719 85.519531 58.582031 L 88.675781 58.332031 L 88.753906 59.238281 L 82.753906 59.707031 L 82.675781 58.800781 L 83.613281 58.722656 C 83.238281 58.566406 82.953125 58.355469 82.753906 58.082031 C 82.546875 57.800781 82.425781 57.449219 82.394531 57.019531 C 82.386719 56.957031 82.378906 56.890625 82.378906 56.816406 C 82.378906 56.734375 82.390625 56.652344 82.410156 56.566406 Z M 82.421875 55.609375 L 82.359375 54.71875 L 88.359375 54.25 L 88.421875 55.140625 Z M 80.09375 55.796875 L 80.03125 54.90625 L 81.265625 54.8125 L 81.328125 55.703125 Z M 82.269531 53.507813 L 82.191406 52.570313 L 87.082031 50.507813 L 81.925781 49.195313 L 81.847656 48.257813 L 88.003906 49.820313 L 88.097656 51.007813 Z M 84.253906 42.210938 L 84.738281 42.195313 L 84.972656 46.273438 C 85.652344 46.191406 86.15625 45.972656 86.488281 45.617188 C 86.824219 45.265625 86.972656 44.796875 86.941406 44.210938 C 86.921875 43.867188 86.855469 43.546875 86.738281 43.242188 C 86.625 42.929688 86.472656 42.617188 86.285156 42.304688 L 87.207031 42.242188 C 87.375 42.554688 87.511719 42.875 87.613281 43.195313 C 87.707031 43.519531 87.765625 43.851563 87.785156 44.195313 C 87.835938 45.0625 87.605469 45.765625 87.082031 46.304688 C 86.550781 46.847656 85.808594 47.144531 84.847656 47.195313 C 83.878906 47.257813 83.09375 47.066406 82.488281 46.617188 C 81.875 46.171875 81.546875 45.539063 81.503906 44.726563 C 81.464844 44 81.691406 43.414063 82.191406 42.976563 C 82.683594 42.53125 83.371094 42.273438 84.253906 42.210938 Z M 84.003906 43.132813 C 83.464844 43.175781 83.042969 43.332031 82.738281 43.601563 C 82.4375 43.875 82.300781 44.226563 82.332031 44.664063 C 82.363281 45.164063 82.546875 45.5625 82.878906 45.851563 C 83.203125 46.132813 83.640625 46.28125 84.191406 46.289063 Z M 84.003906 43.132813 "/>
<path style=" stroke:none;fill-rule:evenodd;fill:rgb(20%,20%,20%);fill-opacity:1;" d="M 84.0625 110.277344 C 84.167969 110.082031 84.355469 109.894531 84.625 109.714844 C 84.886719 109.527344 85.25 109.347656 85.71875 109.167969 L 87.96875 108.308594 L 87.90625 109.355469 L 85.78125 110.152344 C 85.242188 110.351563 84.875 110.558594 84.6875 110.777344 C 84.492188 110.988281 84.382813 111.285156 84.359375 111.667969 L 84.296875 112.730469 L 87.6875 112.933594 L 87.640625 113.917969 L 79.640625 113.449219 L 79.765625 111.246094 C 79.820313 110.414063 80.046875 109.808594 80.453125 109.433594 C 80.851563 109.058594 81.4375 108.898438 82.21875 108.949219 C 82.71875 108.972656 83.132813 109.097656 83.453125 109.324219 C 83.765625 109.554688 83.96875 109.871094 84.0625 110.277344 Z M 80.578125 112.511719 L 83.40625 112.683594 L 83.484375 111.464844 C 83.515625 110.988281 83.421875 110.621094 83.203125 110.371094 C 82.976563 110.121094 82.625 109.988281 82.15625 109.964844 C 81.6875 109.933594 81.328125 110.027344 81.078125 110.246094 C 80.828125 110.464844 80.6875 110.816406 80.65625 111.292969 Z M 85.152344 104.460938 C 85.113281 105.179688 85.179688 105.6875 85.355469 105.976563 C 85.523438 106.257813 85.824219 106.410156 86.261719 106.429688 C 86.605469 106.453125 86.886719 106.367188 87.105469 106.179688 C 87.324219 105.984375 87.445313 105.707031 87.464844 105.351563 C 87.496094 104.851563 87.324219 104.441406 86.949219 104.117188 C 86.574219 103.796875 86.070313 103.617188 85.433594 103.585938 L 85.199219 103.570313 Z M 84.839844 102.664063 L 88.277344 102.867188 L 88.230469 103.742188 L 87.324219 103.695313 C 87.679688 103.925781 87.929688 104.195313 88.074219 104.507813 C 88.230469 104.820313 88.296875 105.195313 88.277344 105.632813 C 88.246094 106.1875 88.046875 106.617188 87.683594 106.929688 C 87.320313 107.234375 86.847656 107.367188 86.261719 107.335938 C 85.585938 107.296875 85.089844 107.0625 84.777344 106.632813 C 84.457031 106.207031 84.316406 105.585938 84.355469 104.773438 L 84.433594 103.523438 L 84.339844 103.523438 C 83.882813 103.492188 83.523438 103.609375 83.261719 103.867188 C 83.003906 104.117188 82.855469 104.488281 82.824219 104.976563 C 82.804688 105.28125 82.832031 105.582031 82.902344 105.882813 C 82.964844 106.1875 83.074219 106.476563 83.230469 106.757813 L 82.324219 106.710938 C 82.199219 106.367188 82.113281 106.046875 82.058594 105.742188 C 82.007813 105.429688 81.988281 105.128906 81.996094 104.835938 C 82.050781 104.054688 82.308594 103.488281 82.777344 103.132813 C 83.246094 102.769531 83.933594 102.613281 84.839844 102.664063 Z M 82.332031 101.351563 L 82.378906 100.414063 L 87.503906 98.960938 L 82.535156 97.023438 L 82.582031 96.085938 L 88.503906 98.398438 L 88.441406 99.601563 Z M 85.628906 90.359375 L 86.113281 90.390625 L 85.925781 94.484375 C 86.605469 94.476563 87.128906 94.3125 87.503906 94 C 87.871094 93.679688 88.0625 93.226563 88.082031 92.640625 C 88.105469 92.296875 88.078125 91.964844 88.003906 91.640625 C 87.921875 91.320313 87.796875 90.992188 87.628906 90.65625 L 88.550781 90.703125 C 88.695313 91.039063 88.800781 91.371094 88.863281 91.703125 C 88.925781 92.039063 88.945313 92.375 88.925781 92.71875 C 88.882813 93.585938 88.578125 94.257813 88.003906 94.734375 C 87.421875 95.214844 86.652344 95.433594 85.691406 95.390625 C 84.714844 95.339844 83.949219 95.0625 83.394531 94.5625 C 82.832031 94.054688 82.574219 93.390625 82.613281 92.578125 C 82.644531 91.851563 82.933594 91.289063 83.472656 90.890625 C 84.015625 90.496094 84.734375 90.320313 85.628906 90.359375 Z M 85.285156 91.234375 C 84.746094 91.226563 84.308594 91.34375 83.972656 91.59375 C 83.640625 91.835938 83.464844 92.171875 83.441406 92.609375 C 83.421875 93.109375 83.5625 93.523438 83.863281 93.84375 C 84.15625 94.15625 84.582031 94.34375 85.144531 94.40625 Z M 85.546875 84.382813 L 89.171875 84.554688 L 89.125 85.445313 L 85.53125 85.273438 C 84.960938 85.242188 84.527344 85.328125 84.234375 85.523438 C 83.945313 85.710938 83.789063 86.003906 83.765625 86.398438 C 83.746094 86.878906 83.902344 87.265625 84.234375 87.554688 C 84.558594 87.847656 85.011719 88.007813 85.59375 88.039063 L 89 88.195313 L 88.953125 89.101563 L 82.9375 88.820313 L 82.984375 87.914063 L 83.921875 87.945313 C 83.558594 87.726563 83.296875 87.472656 83.140625 87.179688 C 82.976563 86.878906 82.902344 86.535156 82.921875 86.148438 C 82.953125 85.535156 83.195313 85.078125 83.640625 84.773438 C 84.078125 84.472656 84.714844 84.34375 85.546875 84.382813 Z M 85.847656 78.105469 L 89.472656 78.277344 L 89.425781 79.167969 L 85.832031 78.996094 C 85.261719 78.964844 84.828125 79.050781 84.535156 79.246094 C 84.246094 79.433594 84.089844 79.726563 84.066406 80.121094 C 84.046875 80.601563 84.203125 80.988281 84.535156 81.277344 C 84.859375 81.570313 85.3125 81.730469 85.894531 81.761719 L 89.300781 81.917969 L 89.253906 82.824219 L 83.238281 82.542969 L 83.285156 81.636719 L 84.222656 81.667969 C 83.859375 81.449219 83.597656 81.195313 83.441406 80.902344 C 83.277344 80.601563 83.203125 80.257813 83.222656 79.871094 C 83.253906 79.257813 83.496094 78.800781 83.941406 78.496094 C 84.378906 78.195313 85.015625 78.066406 85.847656 78.105469 Z M 86.386719 73.824219 C 86.410156 74.542969 86.519531 75.039063 86.714844 75.308594 C 86.902344 75.582031 87.214844 75.710938 87.652344 75.699219 C 87.996094 75.691406 88.273438 75.582031 88.480469 75.371094 C 88.679688 75.152344 88.773438 74.867188 88.761719 74.511719 C 88.753906 74.011719 88.550781 73.621094 88.152344 73.339844 C 87.746094 73.050781 87.226563 72.914063 86.589844 72.933594 L 86.355469 72.933594 Z M 85.933594 72.058594 L 89.371094 71.964844 L 89.386719 72.855469 L 88.480469 72.886719 C 88.855469 73.085938 89.136719 73.335938 89.324219 73.636719 C 89.503906 73.929688 89.59375 74.292969 89.605469 74.730469 C 89.613281 75.285156 89.457031 75.730469 89.121094 76.074219 C 88.789063 76.410156 88.332031 76.582031 87.746094 76.589844 C 87.070313 76.613281 86.554688 76.425781 86.199219 76.027344 C 85.847656 75.632813 85.660156 75.027344 85.636719 74.214844 L 85.589844 72.964844 L 85.496094 72.964844 C 85.039063 72.976563 84.691406 73.121094 84.449219 73.402344 C 84.210938 73.683594 84.097656 74.070313 84.105469 74.558594 C 84.117188 74.863281 84.167969 75.160156 84.261719 75.449219 C 84.355469 75.742188 84.488281 76.023438 84.652344 76.292969 L 83.746094 76.308594 C 83.589844 75.988281 83.476563 75.675781 83.402344 75.371094 C 83.332031 75.070313 83.289063 74.773438 83.277344 74.480469 C 83.257813 73.699219 83.464844 73.113281 83.902344 72.714844 C 84.339844 72.308594 85.019531 72.089844 85.933594 72.058594 Z M 82.019531 66.273438 L 88.238281 65.929688 L 88.175781 64.757813 C 88.125 63.757813 87.839844 63.046875 87.316406 62.617188 C 86.785156 62.179688 85.980469 61.992188 84.894531 62.054688 C 83.832031 62.117188 83.066406 62.394531 82.597656 62.882813 C 82.121094 63.363281 81.90625 64.101563 81.957031 65.101563 Z M 81.191406 67.304688 L 81.082031 65.304688 C 81 63.898438 81.265625 62.859375 81.878906 62.179688 C 82.484375 61.492188 83.46875 61.113281 84.832031 61.039063 C 86.21875 60.96875 87.253906 61.238281 87.941406 61.851563 C 88.621094 62.46875 89 63.472656 89.082031 64.867188 L 89.191406 66.867188 Z M 83.425781 56.472656 C 83.363281 56.578125 83.324219 56.691406 83.300781 56.816406 C 83.28125 56.933594 83.277344 57.058594 83.285156 57.191406 C 83.328125 57.703125 83.542969 58.078125 83.925781 58.316406 C 84.3125 58.546875 84.84375 58.636719 85.519531 58.582031 L 88.675781 58.332031 L 88.753906 59.238281 L 82.753906 59.707031 L 82.675781 58.800781 L 83.613281 58.722656 C 83.238281 58.566406 82.953125 58.355469 82.753906 58.082031 C 82.546875 57.800781 82.425781 57.449219 82.394531 57.019531 C 82.386719 56.957031 82.378906 56.890625 82.378906 56.816406 C 82.378906 56.734375 82.390625 56.652344 82.410156 56.566406 Z M 82.421875 55.609375 L 82.359375 54.71875 L 88.359375 54.25 L 88.421875 55.140625 Z M 80.09375 55.796875 L 80.03125 54.90625 L 81.265625 54.8125 L 81.328125 55.703125 Z M 82.269531 53.507813 L 82.191406 52.570313 L 87.082031 50.507813 L 81.925781 49.195313 L 81.847656 48.257813 L 88.003906 49.820313 L 88.097656 51.007813 Z M 84.253906 42.210938 L 84.738281 42.195313 L 84.972656 46.273438 C 85.652344 46.191406 86.15625 45.972656 86.488281 45.617188 C 86.824219 45.265625 86.972656 44.796875 86.941406 44.210938 C 86.921875 43.867188 86.855469 43.546875 86.738281 43.242188 C 86.625 42.929688 86.472656 42.617188 86.285156 42.304688 L 87.207031 42.242188 C 87.375 42.554688 87.511719 42.875 87.613281 43.195313 C 87.707031 43.519531 87.765625 43.851563 87.785156 44.195313 C 87.835938 45.0625 87.605469 45.765625 87.082031 46.304688 C 86.550781 46.847656 85.808594 47.144531 84.847656 47.195313 C 83.878906 47.257813 83.09375 47.066406 82.488281 46.617188 C 81.875 46.171875 81.546875 45.539063 81.503906 44.726563 C 81.464844 44 81.691406 43.414063 82.191406 42.976563 C 82.683594 42.53125 83.371094 42.273438 84.253906 42.210938 Z M 84.003906 43.132813 C 83.464844 43.175781 83.042969 43.332031 82.738281 43.601563 C 82.4375 43.875 82.300781 44.226563 82.332031 44.664063 C 82.363281 45.164063 82.546875 45.5625 82.878906 45.851563 C 83.203125 46.132813 83.640625 46.28125 84.191406 46.289063 Z M 84.003906 43.132813 "/>
</g>
</svg>

