<?xml version="1.0" encoding="UTF-8"?>
<svg xmlns="http://www.w3.org/2000/svg" xmlns:xlink="http://www.w3.org/1999/xlink" width="256pt" height="256pt" viewBox="0 0 256 256" version="1.1">
<g id="surface2">
<rect x="0" y="0" width="256" height="256" style="fill:rgb(94.901961%,93.72549%,91.372549%);fill-opacity:1;stroke:none;"/>
<path style="fill:none;stroke-width:1;stroke-linecap:round;stroke-linejoin:round;stroke:rgb(100%,100%,100%);stroke-opacity:1;stroke-dasharray:2,3;stroke-miterlimit:10;" d="M -2 217.554688 L 4.011719 220.1875 L 15.5 223.476563 L 19.273438 223.769531 L 25.960938 223.28125 L 30.527344 224.097656 L 47.585938 231.722656 L 51.195313 232.796875 L 55.832031 233.285156 L 72.679688 231.949219 L 82.863281 229.308594 L 102.738281 226.148438 L 117.304688 226.28125 L 120.402344 225.042969 L 121.800781 223.28125 L 124.527344 211.617188 L 130.351563 194.769531 L 133.335938 189.425781 L 135.175781 187.210938 L 137.015625 185.777344 L 143.261719 182.617188 L 156.566406 180.855469 L 161.390625 179.878906 L 164.652344 178.671875 L 188.652344 165.929688 L 190.609375 164.238281 L 192.382813 161.238281 L 195.480469 153.679688 L 198.066406 150.191406 L 209.925781 139.339844 L 215.03125 135.984375 L 218.292969 135.007813 L 223.464844 135.855469 L 244.902344 144.425781 L 256.203125 145.304688 L 257 145.300781 "/>
</g>
</svg>

