<?xml version="1.0" encoding="UTF-8"?>
<svg xmlns="http://www.w3.org/2000/svg" xmlns:xlink="http://www.w3.org/1999/xlink" width="256pt" height="256pt" viewBox="0 0 256 256" version="1.1">
<g id="surface2">
<rect x="0" y="0" width="256" height="256" style="fill:rgb(94.901961%,93.72549%,91.372549%);fill-opacity:1;stroke:none;"/>
<path style="fill:none;stroke-width:1;stroke-linecap:round;stroke-linejoin:round;stroke:rgb(100%,100%,100%);stroke-opacity:1;stroke-dasharray:2,3;stroke-miterlimit:10;" d="M 175.722656 257 L 232.871094 206.753906 L 246.785156 199.890625 L 257 197.894531 "/>
<path style="fill:none;stroke-width:8;stroke-linecap:round;stroke-linejoin:round;stroke:rgb(75.686275%,70.980392%,61.568627%);stroke-opacity:1;stroke-miterlimit:10;" d="M 160.867188 264 L 165.019531 260.546875 L 172.941406 253.621094 L 181.609375 245.753906 L 195.636719 233.320313 L 204.792969 225.011719 L 221.59375 211.882813 L 229.726563 205.996094 L 235.273438 202.566406 L 238.953125 200.867188 L 243.566406 198.914063 L 249.464844 196.964844 L 250.816406 196.710938 L 253.960938 196.429688 L 264 194.390625 "/>
<path style="fill:none;stroke-width:8;stroke-linecap:round;stroke-linejoin:round;stroke:rgb(75.686275%,70.980392%,61.568627%);stroke-opacity:1;stroke-miterlimit:10;" d="M -2.578125 264 L -4.292969 262.058594 L -5.621094 260.609375 L -9 256.945313 "/>
<path style="fill:none;stroke-width:6;stroke-linecap:round;stroke-linejoin:round;stroke:rgb(100%,100%,100%);stroke-opacity:1;stroke-miterlimit:10;" d="M 160.867188 264 L 165.019531 260.546875 L 172.941406 253.621094 L 181.609375 245.753906 L 195.636719 233.320313 L 204.792969 225.011719 L 221.59375 211.882813 L 229.726563 205.996094 L 235.273438 202.566406 L 238.953125 200.867188 L 243.566406 198.914063 L 249.464844 196.964844 L 250.816406 196.710938 L 253.960938 196.429688 L 264 194.390625 "/>
<path style="fill:none;stroke-width:6;stroke-linecap:round;stroke-linejoin:round;stroke:rgb(100%,100%,100%);stroke-opacity:1;stroke-miterlimit:10;" d="M -2.578125 264 L -4.292969 262.058594 L -5.621094 260.609375 L -9 256.945313 "/>
</g>
</svg>

