<?xml version="1.0" encoding="UTF-8"?>
<svg xmlns="http://www.w3.org/2000/svg" xmlns:xlink="http://www.w3.org/1999/xlink" width="256pt" height="256pt" viewBox="0 0 256 256" version="1.1">
<g id="surface2">
<rect x="0" y="0" width="256" height="256" style="fill:rgb(60%,70.196078%,80%);fill-opacity:1;stroke:none;"/>
<path style=" stroke:none;fill-rule:evenodd;fill:rgb(94.901961%,93.72549%,91.372549%);fill-opacity:1;" d="M -4 259 L -4 -4 L -4 109.910156 L 5.296875 121.792969 L 7.433594 143.863281 L 16.828125 185.011719 L 23.804688 192.273438 L 37.191406 199.25 L 38.757813 202.527344 L 39.148438 205.265625 L 38.898438 206.941406 L 38.1875 207.933594 L 36.867188 208.472656 L 35.195313 208.222656 L 33.023438 207.472656 L 30.78125 206.085938 L 28.253906 205.625 L 25.195313 206.191406 L 16.082031 210.605469 L 9.601563 215.730469 L 5.542969 223.8125 L 3.40625 229.933594 L 4.40625 236.484375 L 8.820313 242.464844 L 22.34375 253.855469 L 23.269531 259 L 245.609375 259 L 259 246.242188 L 259 -4 L 259 259 L 259 -4 L 259 259 Z M -4 259 "/>
</g>
</svg>

