<?xml version="1.0" encoding="UTF-8"?>
<svg xmlns="http://www.w3.org/2000/svg" xmlns:xlink="http://www.w3.org/1999/xlink" width="256pt" height="256pt" viewBox="0 0 256 256" version="1.1">
<g id="surface2">
<rect x="0" y="0" width="256" height="256" style="fill:rgb(94.901961%,93.72549%,91.372549%);fill-opacity:1;stroke:none;"/>
<path style=" stroke:none;fill-rule:evenodd;fill:rgb(60%,70.196078%,80%);fill-opacity:1;" d="M -4 259 L -4 -4 L 259 -4 L -4 -4 Z M -4 259 "/>
<path style="fill:none;stroke-width:1;stroke-linecap:round;stroke-linejoin:round;stroke:rgb(70.196078%,77.647059%,83.137255%);stroke-opacity:1;stroke-miterlimit:10;" d="M -4 259 L -4 -4 L 259 -4 L -4 -4 L -4 259 "/>
<path style="fill:none;stroke-width:1;stroke-linecap:round;stroke-linejoin:round;stroke:rgb(100%,100%,100%);stroke-opacity:1;stroke-dasharray:2,3;stroke-miterlimit:10;" d="M 217.734375 257 L 231.582031 183.757813 L 249.269531 97.605469 L 256.375 65.445313 L 247.636719 43.03125 "/>
<path style="fill:none;stroke-width:1;stroke-linecap:round;stroke-linejoin:round;stroke:rgb(100%,100%,100%);stroke-opacity:1;stroke-dasharray:2,3;stroke-miterlimit:10;" d="M -2 191.488281 L 0.875 189.3125 L 18.351563 174.6875 L 39.4375 161.53125 L 94.035156 137.390625 L 132.878906 115.550781 L 135.113281 111.75 L 135.113281 104.566406 L 132.25 99.359375 L 129.800781 94.027344 L 129.476563 88.246094 L 130.335938 84.03125 L 134.8125 77.710938 L 145.949219 69.886719 L 175.496094 53.792969 L 209.375 41.144531 L 225.734375 38.78125 "/>
</g>
</svg>

