<?xml version="1.0" encoding="UTF-8"?>
<svg xmlns="http://www.w3.org/2000/svg" xmlns:xlink="http://www.w3.org/1999/xlink" width="256pt" height="256pt" viewBox="0 0 256 256" version="1.1">
<g id="surface2">
<rect x="0" y="0" width="256" height="256" style="fill:rgb(94.901961%,93.72549%,91.372549%);fill-opacity:1;stroke:none;"/>
<path style="fill:none;stroke-width:8;stroke-linecap:round;stroke-linejoin:round;stroke:rgb(75.686275%,70.980392%,61.568627%);stroke-opacity:1;stroke-miterlimit:10;" d="M 27.910156 264 L 28.144531 259.203125 L 29.613281 252.777344 L 31.988281 247.417969 L 34.320313 244.191406 L 35.855469 243.15625 L 37.230469 242.800781 L 39.863281 242.964844 L 43.5 244.289063 L 50.257813 244.867188 L 54.078125 244.546875 L 58.832031 243.511719 L 62.140625 241.800781 L 63.980469 240.058594 L 66.636719 235.472656 L 67.523438 230.984375 "/>
<path style="fill:none;stroke-width:6;stroke-linecap:round;stroke-linejoin:round;stroke:rgb(100%,100%,100%);stroke-opacity:1;stroke-miterlimit:10;" d="M 27.910156 264 L 28.144531 259.203125 L 29.613281 252.777344 L 31.988281 247.417969 L 34.320313 244.191406 L 35.855469 243.15625 L 37.230469 242.800781 L 39.863281 242.964844 L 43.5 244.289063 L 50.257813 244.867188 L 54.078125 244.546875 L 58.832031 243.511719 L 62.140625 241.800781 L 63.980469 240.058594 L 66.636719 235.472656 L 67.523438 230.984375 "/>
</g>
</svg>

