<?xml version="1.0" encoding="UTF-8"?>
<svg xmlns="http://www.w3.org/2000/svg" xmlns:xlink="http://www.w3.org/1999/xlink" width="256pt" height="256pt" viewBox="0 0 256 256" version="1.1">
<g id="surface2">
<rect x="0" y="0" width="256" height="256" style="fill:rgb(94.901961%,93.72549%,91.372549%);fill-opacity:1;stroke:none;"/>
<path style=" stroke:none;fill-rule:evenodd;fill:rgb(81.960784%,81.568627%,80.392157%);fill-opacity:1;" d="M -4 260 L 101.914063 260 L 107.832031 217.316406 L 101.714844 216.683594 L 90.738281 239.050781 L 80.234375 260 Z M -4 260 "/>
<path style="fill:none;stroke-width:1;stroke-linecap:round;stroke-linejoin:round;stroke:rgb(81.960784%,81.960784%,81.960784%);stroke-opacity:1;stroke-miterlimit:10;" d="M -4 260 L 101.914063 260 L 107.832031 217.316406 L 101.714844 216.683594 L 90.738281 239.050781 L 80.234375 260 L -4 260 "/>
<path style=" stroke:none;fill-rule:evenodd;fill:rgb(81.960784%,81.568627%,80.392157%);fill-opacity:1;" d="M 145.953125 260 L 149.738281 247.289063 L 155.378906 239.582031 L 153.226563 235.007813 L 154.738281 230.839844 L 156.484375 226.015625 L 158.285156 221.058594 L 161.769531 209.777344 L 166.820313 188.46875 L 165.886719 186.324219 L 167.359375 183.714844 L 171.058594 179.199219 L 174.765625 173.726563 L 174.511719 164.523438 L 179.007813 142.042969 L 128.292969 128.066406 L 115.042969 222.941406 L 109.148438 260 Z M 145.953125 260 "/>
<path style="fill:none;stroke-width:1;stroke-linecap:round;stroke-linejoin:round;stroke:rgb(81.960784%,81.960784%,81.960784%);stroke-opacity:1;stroke-miterlimit:10;" d="M 145.953125 260 L 149.738281 247.289063 L 155.378906 239.582031 L 153.226563 235.007813 L 154.738281 230.839844 L 156.484375 226.015625 L 158.285156 221.058594 L 161.769531 209.777344 L 166.820313 188.46875 L 165.886719 186.324219 L 167.359375 183.714844 L 171.058594 179.199219 L 174.765625 173.726563 L 174.511719 164.523438 L 179.007813 142.042969 L 128.292969 128.066406 L 115.042969 222.941406 L 109.148438 260 L 145.953125 260 "/>
<path style=" stroke:none;fill-rule:evenodd;fill:rgb(60%,70.196078%,80%);fill-opacity:1;" d="M 259 259 L 259 -4 L 200.960938 -4 L 202.011719 -0.433594 L 208.300781 -0.753906 L 199.914063 4.570313 L 198.699219 6.34375 L 198.457031 9.328125 L 200.960938 10.78125 L 197.652344 14.089844 L 194.910156 20.058594 L 196.441406 37.398438 L 195.824219 42.007813 L 183.058594 39.78125 L 176.707031 38.464844 L 173.140625 44.519531 L 171.578125 43.644531 L 161.027344 63.867188 L 160.613281 65.152344 L 158.839844 70.660156 L 156.167969 78.980469 L 154.636719 83.738281 L 152.425781 90.605469 L 147.03125 89.441406 L 145.261719 99.246094 L 146.914063 108.105469 L 146.394531 111.816406 L 153.496094 112.691406 L 153.496094 111.605469 L 162.011719 112.777344 L 188.527344 120.542969 L 189.027344 125.386719 L 191.660156 127.597656 L 190.238281 129.230469 L 176.332031 129.855469 L 171.40625 131.609375 L 159.589844 128.222656 L 158.878906 129.855469 L 158.589844 133.066406 L 166.382813 136.195313 L 167.859375 136.785156 L 171.5 138.5 L 174.363281 139.855469 L 175.71875 140.492188 L 176.628906 140.921875 L 179.007813 142.042969 L 178.902344 143.851563 L 178.546875 150.226563 L 174.511719 164.523438 L 174.253906 175.363281 L 165.886719 186.324219 L 166.820313 188.46875 L 162.269531 207.660156 L 161.769531 209.777344 L 160.625 214.605469 L 160.058594 216.171875 L 159.039063 218.980469 L 158.285156 221.058594 L 156.484375 226.015625 L 154.738281 230.839844 L 153.226563 235.007813 L 155.378906 239.582031 L 149.203125 248.769531 L 147.921875 253.140625 L 146.929688 256.519531 L 146.203125 259 Z M 259 259 "/>
<path style="fill:none;stroke-width:1;stroke-linecap:round;stroke-linejoin:round;stroke:rgb(70.196078%,77.647059%,83.137255%);stroke-opacity:1;stroke-miterlimit:10;" d="M 259 259 L 259 -4 L 200.960938 -4 L 202.011719 -0.433594 L 208.300781 -0.753906 L 199.914063 4.570313 L 198.699219 6.34375 L 198.457031 9.328125 L 200.960938 10.78125 L 197.652344 14.089844 L 194.910156 20.058594 L 196.441406 37.398438 L 195.824219 42.007813 L 183.058594 39.78125 L 176.707031 38.464844 L 173.140625 44.519531 L 171.578125 43.644531 L 161.027344 63.867188 L 160.613281 65.152344 L 158.839844 70.660156 L 156.167969 78.980469 L 154.636719 83.738281 L 152.425781 90.605469 L 147.03125 89.441406 L 145.261719 99.246094 L 146.914063 108.105469 L 146.394531 111.816406 L 153.496094 112.691406 L 153.496094 111.605469 L 162.011719 112.777344 L 188.527344 120.542969 L 189.027344 125.386719 L 191.660156 127.597656 L 190.238281 129.230469 L 176.332031 129.855469 L 171.40625 131.609375 L 159.589844 128.222656 L 158.878906 129.855469 L 158.589844 133.066406 L 166.382813 136.195313 L 167.859375 136.785156 L 171.5 138.5 L 174.363281 139.855469 L 175.71875 140.492188 L 176.628906 140.921875 L 179.007813 142.042969 L 178.902344 143.851563 L 178.546875 150.226563 L 174.511719 164.523438 L 174.253906 175.363281 L 165.886719 186.324219 L 166.820313 188.46875 L 162.269531 207.660156 L 161.769531 209.777344 L 160.625 214.605469 L 160.058594 216.171875 L 159.039063 218.980469 L 158.285156 221.058594 L 156.484375 226.015625 L 154.738281 230.839844 L 153.226563 235.007813 L 155.378906 239.582031 L 149.203125 248.769531 L 147.921875 253.140625 L 146.929688 256.519531 L 146.203125 259 L 259 259 "/>
<path style="fill:none;stroke-width:2;stroke-linecap:round;stroke-linejoin:round;stroke:rgb(60%,70.196078%,80%);stroke-opacity:1;stroke-miterlimit:10;" d="M -3 93.785156 L 7.4375 97.160156 L 18.945313 98.042969 L 25.039063 100.160156 L 28.300781 102.132813 L 32.664063 104.777344 L 39.328125 108.8125 L 45.824219 112.75 L 53.84375 116.171875 L 71.972656 110.320313 L 84.496094 109.542969 L 96.515625 111.496094 L 106.910156 113.847656 L 113.878906 115.929688 L 131.640625 122.449219 L 158.878906 129.855469 "/>
<path style="fill:none;stroke-width:1;stroke-linecap:butt;stroke-linejoin:round;stroke:rgb(46.666667%,46.666667%,46.666667%);stroke-opacity:1;stroke-dasharray:2,2;stroke-miterlimit:10;" d="M -2 61.519531 L 2.472656 63.609375 L 8.742188 65.722656 L 25.308594 70.421875 L 36.84375 72.195313 L 49.472656 73.035156 L 65.527344 72.597656 L 80.371094 71.199219 L 85.753906 70.296875 L 91.578125 68.960938 L 98.40625 66.625 L 106.117188 63.515625 L 110.359375 61.304688 L 117.09375 56.953125 L 126.089844 49.578125 L 136.585938 37.859375 L 143.039063 30.753906 L 147.566406 25.089844 L 153.757813 14.277344 L 157.21875 5.933594 L 159.1875 -2 "/>
<path style="fill:none;stroke-width:1;stroke-linecap:butt;stroke-linejoin:round;stroke:rgb(46.666667%,46.666667%,46.666667%);stroke-opacity:1;stroke-dasharray:2,2;stroke-miterlimit:10;" d="M 116.78125 192.234375 L 119.621094 175.222656 L 123.664063 150.949219 L 127.730469 123.742188 "/>
<path style="fill:none;stroke-width:1;stroke-linecap:butt;stroke-linejoin:round;stroke:rgb(46.666667%,46.666667%,46.666667%);stroke-opacity:1;stroke-dasharray:2,2;stroke-miterlimit:10;" d="M 181.699219 -2 L 180.125 1.890625 L 177.910156 7.148438 L 169.546875 21.613281 "/>
<path style="fill:none;stroke-width:1;stroke-linecap:butt;stroke-linejoin:round;stroke:rgb(46.666667%,46.666667%,46.666667%);stroke-opacity:1;stroke-dasharray:2,2;stroke-miterlimit:10;" d="M 172.640625 -2 L 169.941406 12.746094 L 167.644531 18.59375 L 164.164063 25.316406 L 156.570313 35.554688 L 151.292969 42.136719 L 147.390625 47.714844 L 144.046875 54.738281 "/>
<path style="fill:none;stroke-width:1;stroke-linecap:butt;stroke-linejoin:round;stroke:rgb(46.666667%,46.666667%,46.666667%);stroke-opacity:1;stroke-dasharray:2,2;stroke-miterlimit:10;" d="M 136.585938 37.859375 L 126.089844 49.578125 L 117.09375 56.953125 L 110.359375 61.304688 L 106.117188 63.515625 L 98.40625 66.625 L 91.578125 68.960938 L 85.753906 70.296875 L 80.371094 71.199219 L 65.527344 72.597656 L 49.472656 73.035156 L 36.84375 72.195313 L 25.308594 70.421875 L 8.742188 65.722656 L 2.472656 63.609375 L -2 61.519531 "/>
<path style="fill:none;stroke-width:1;stroke-linecap:butt;stroke-linejoin:round;stroke:rgb(46.666667%,46.666667%,46.666667%);stroke-opacity:1;stroke-dasharray:2,2;stroke-miterlimit:10;" d="M 106.726563 257 L 113.972656 211.800781 L 116.78125 192.234375 L 118.492188 175.03125 "/>
<path style="fill:none;stroke-width:1;stroke-linecap:butt;stroke-linejoin:round;stroke:rgb(46.666667%,46.666667%,46.666667%);stroke-opacity:1;stroke-dasharray:2,2;stroke-miterlimit:10;" d="M 126.820313 123.453125 L 122.445313 150.671875 L 120.386719 164.4375 L 118.492188 175.03125 L 112.667969 211.832031 L 105.539063 257 "/>
<path style="fill:none;stroke-width:1;stroke-linecap:butt;stroke-linejoin:round;stroke:rgb(46.666667%,46.666667%,46.666667%);stroke-opacity:1;stroke-dasharray:2,2;stroke-miterlimit:10;" d="M 127.734375 117.367188 L 126.820313 123.453125 "/>
<path style="fill:none;stroke-width:1;stroke-linecap:butt;stroke-linejoin:round;stroke:rgb(46.666667%,46.666667%,46.666667%);stroke-opacity:1;stroke-dasharray:2,2;stroke-miterlimit:10;" d="M 159.1875 -2 L 157.21875 5.933594 L 153.757813 14.277344 "/>
<path style="fill:none;stroke-width:1;stroke-linecap:butt;stroke-linejoin:round;stroke:rgb(46.666667%,46.666667%,46.666667%);stroke-opacity:1;stroke-dasharray:2,2;stroke-miterlimit:10;" d="M 153.757813 14.277344 L 147.566406 25.089844 L 143.039063 30.753906 L 136.585938 37.859375 "/>
<path style="fill:none;stroke-width:1;stroke-linecap:butt;stroke-linejoin:round;stroke:rgb(46.666667%,46.666667%,46.666667%);stroke-opacity:1;stroke-dasharray:2,2;stroke-miterlimit:10;" d="M 128.734375 117.371094 L 135.4375 80.371094 L 137.796875 70.394531 L 142.003906 58.476563 L 144.046875 54.738281 L 146.679688 50.425781 L 152.308594 42.753906 L 157.765625 36.039063 L 166.027344 25.4375 L 169.546875 21.613281 L 171.804688 19.03125 L 181.777344 9.292969 L 184.320313 5.871094 L 188.488281 -2 "/>
<path style="fill:none;stroke-width:1;stroke-linecap:butt;stroke-linejoin:round;stroke:rgb(46.666667%,46.666667%,46.666667%);stroke-opacity:1;stroke-dasharray:2,2;stroke-miterlimit:10;" d="M 127.730469 123.742188 L 128.734375 117.371094 "/>
<path style="fill:none;stroke-width:1;stroke-linecap:butt;stroke-linejoin:round;stroke:rgb(46.666667%,46.666667%,46.666667%);stroke-opacity:1;stroke-dasharray:2,2;stroke-miterlimit:10;" d="M 151.878906 2.421875 L 144.933594 31.890625 L 142.257813 44.71875 "/>
<path style="fill:none;stroke-width:1;stroke-linecap:butt;stroke-linejoin:round;stroke:rgb(46.666667%,46.666667%,46.666667%);stroke-opacity:1;stroke-dasharray:2,2;stroke-miterlimit:10;" d="M 142.257813 44.71875 L 138.742188 59.285156 L 136.621094 70.296875 L 134.511719 80.210938 L 127.734375 117.367188 "/>
<path style="fill:none;stroke-width:1;stroke-linecap:butt;stroke-linejoin:round;stroke:rgb(46.666667%,46.666667%,46.666667%);stroke-opacity:1;stroke-dasharray:2,2;stroke-miterlimit:10;" d="M 152.828125 -2 L 151.878906 2.421875 "/>
<path style="fill:none;stroke-width:8;stroke-linecap:round;stroke-linejoin:round;stroke:rgb(75.686275%,70.980392%,61.568627%);stroke-opacity:1;stroke-miterlimit:10;" d="M 131.570313 79.851563 L 134.511719 80.210938 L 139.601563 80.941406 L 148.359375 80.566406 "/>
<path style="fill:none;stroke-width:8;stroke-linecap:round;stroke-linejoin:round;stroke:rgb(75.686275%,70.980392%,61.568627%);stroke-opacity:1;stroke-miterlimit:10;" d="M 103.835938 210.398438 L 107.191406 210.992188 L 112.667969 211.832031 L 113.972656 211.800781 L 116.277344 211.425781 L 120.101563 209.746094 L 121.542969 208.53125 L 123.222656 205.484375 L 124.339844 201.566406 L 126.601563 187.007813 "/>
<path style="fill:none;stroke-width:8;stroke-linecap:round;stroke-linejoin:round;stroke:rgb(75.686275%,70.980392%,61.568627%);stroke-opacity:1;stroke-miterlimit:10;" d="M 127.136719 264 L 129.496094 251.875 L 129.996094 239.800781 L 120.785156 226.730469 "/>
<path style="fill:none;stroke-width:8;stroke-linecap:round;stroke-linejoin:round;stroke:rgb(75.686275%,70.980392%,61.568627%);stroke-opacity:1;stroke-miterlimit:10;" d="M -9 74.765625 L -3.066406 74.925781 L 7.921875 75.527344 L 25.953125 80.53125 L 33.628906 81.339844 L 48.859375 81.042969 L 71.132813 79.726563 L 81.839844 81.222656 L 91.808594 80.84375 L 95.925781 84.152344 L 102.160156 89.074219 L 109.289063 94.925781 L 120.914063 97.726563 L 123.796875 107.0625 L 126.011719 109.140625 "/>
<path style="fill:none;stroke-width:8;stroke-linecap:round;stroke-linejoin:round;stroke:rgb(75.686275%,70.980392%,61.568627%);stroke-opacity:1;stroke-miterlimit:10;" d="M 31.808594 52.410156 L 27.195313 50.824219 L 11.140625 44.257813 L 7.972656 43.234375 L -3.679688 40.898438 L -6.101563 39.59375 L -7.105469 38.566406 "/>
<path style="fill:none;stroke-width:8;stroke-linecap:round;stroke-linejoin:round;stroke:rgb(75.686275%,70.980392%,61.568627%);stroke-opacity:1;stroke-miterlimit:10;" d="M 118.398438 149.679688 L 122.445313 150.671875 L 123.664063 150.949219 L 124.847656 151.453125 L 125.828125 152.773438 L 125.808594 154.066406 L 123.457031 171.300781 L 124.132813 174.097656 L 125.367188 175 L 160.363281 182.964844 "/>
<path style="fill:none;stroke-width:8;stroke-linecap:round;stroke-linejoin:round;stroke:rgb(75.686275%,70.980392%,61.568627%);stroke-opacity:1;stroke-miterlimit:10;" d="M 73.378906 34.925781 L 33.882813 31.101563 L -6.21875 27.585938 "/>
<path style="fill:none;stroke-width:8;stroke-linecap:round;stroke-linejoin:round;stroke:rgb(75.686275%,70.980392%,61.568627%);stroke-opacity:1;stroke-miterlimit:10;" d="M -9 244.410156 L -4.496094 245.953125 L 5.011719 251.238281 L 7.015625 252.949219 L 10.230469 256.746094 L 11.421875 258.984375 L 12.328125 262.28125 L 12.328125 264 "/>
<path style="fill:none;stroke-width:8;stroke-linecap:round;stroke-linejoin:round;stroke:rgb(75.686275%,70.980392%,61.568627%);stroke-opacity:1;stroke-miterlimit:10;" d="M -2.410156 -9 L -3.679688 6.121094 L -6.21875 27.585938 L -7.335938 37.882813 L -7.105469 38.566406 "/>
<path style="fill:none;stroke-width:8;stroke-linecap:round;stroke-linejoin:round;stroke:rgb(75.686275%,70.980392%,61.568627%);stroke-opacity:1;stroke-miterlimit:10;" d="M 119.003906 17.445313 L 75.382813 13.554688 L 35.933594 10.070313 L 7.132813 7.367188 L -3.679688 6.121094 "/>
<path style="fill:none;stroke-width:8;stroke-linecap:round;stroke-linejoin:round;stroke:rgb(75.686275%,70.980392%,61.568627%);stroke-opacity:1;stroke-miterlimit:10;" d="M 77.414063 -9 L 77.292969 -7.660156 L 75.382813 13.554688 L 73.378906 34.925781 L 71.351563 55.988281 "/>
<path style="fill:none;stroke-width:8;stroke-linecap:round;stroke-linejoin:round;stroke:rgb(75.686275%,70.980392%,61.568627%);stroke-opacity:1;stroke-miterlimit:10;" d="M 121.394531 -9 L 120.914063 -3.710938 L 119.003906 17.445313 L 118.003906 28.644531 L 117.09375 30.914063 L 116.277344 31.972656 L 81.792969 51.910156 L 74.429688 55.148438 L 71.351563 55.988281 L 69.769531 56.265625 L 65.222656 56.265625 L 35.328125 53.21875 L 31.808594 52.410156 "/>
<path style="fill:none;stroke-width:8;stroke-linecap:round;stroke-linejoin:round;stroke:rgb(75.686275%,70.980392%,61.568627%);stroke-opacity:1;stroke-miterlimit:10;" d="M 37.554688 -9 L 35.933594 10.070313 L 33.882813 31.101563 L 31.808594 52.410156 "/>
<path style="fill:none;stroke-width:8;stroke-linecap:round;stroke-linejoin:round;stroke:rgb(75.686275%,70.980392%,61.568627%);stroke-opacity:1;stroke-miterlimit:10;" d="M -9 141.609375 L 4.382813 146.539063 L 11.023438 148.375 L 17.199219 149.152344 L 21.207031 148.839844 L 25.238281 147.722656 L 28.453125 145.855469 L 33.605469 141.25 L 38.078125 135.277344 L 44.089844 125.605469 L 46.910156 122.246094 L 49.074219 120.722656 L 52.78125 119.445313 L 65.761719 117.300781 L 77.203125 116.613281 L 88.199219 116.738281 L 93.488281 117.144531 L 97.894531 117.796875 L 104.628906 119.226563 L 109.101563 120.691406 L 122.664063 126.847656 "/>
<path style="fill:none;stroke-width:8;stroke-linecap:round;stroke-linejoin:round;stroke:rgb(75.686275%,70.980392%,61.568627%);stroke-opacity:1;stroke-miterlimit:10;" d="M 144.054688 -9 L 142.449219 -0.871094 L 138.792969 31.902344 L 136.871094 47.527344 L 135.359375 60.9375 L 133.25 73.277344 L 131.570313 79.851563 L 130.167969 86.503906 L 126.8125 105.324219 L 126.011719 109.140625 L 124.394531 116.871094 "/>
<path style="fill:none;stroke-width:8;stroke-linecap:round;stroke-linejoin:round;stroke:rgb(75.686275%,70.980392%,61.568627%);stroke-opacity:1;stroke-miterlimit:10;" d="M 123.410156 122.515625 L 122.664063 126.847656 L 118.398438 149.679688 L 114.25 171.300781 L 108.542969 196.527344 L 105.863281 205.484375 L 103.835938 210.398438 L 101.714844 216.683594 L 100.710938 219.046875 L 98.683594 222.871094 L 92.066406 236.402344 L 90.738281 239.050781 L 78.230469 264 "/>
<path style="fill:none;stroke-width:6;stroke-linecap:round;stroke-linejoin:round;stroke:rgb(100%,100%,100%);stroke-opacity:1;stroke-miterlimit:10;" d="M 131.570313 79.851563 L 134.511719 80.210938 L 139.601563 80.941406 L 148.359375 80.566406 "/>
<path style="fill:none;stroke-width:6;stroke-linecap:round;stroke-linejoin:round;stroke:rgb(100%,100%,100%);stroke-opacity:1;stroke-miterlimit:10;" d="M 103.835938 210.398438 L 107.191406 210.992188 L 112.667969 211.832031 L 113.972656 211.800781 L 116.277344 211.425781 L 120.101563 209.746094 L 121.542969 208.53125 L 123.222656 205.484375 L 124.339844 201.566406 L 126.601563 187.007813 "/>
<path style="fill:none;stroke-width:6;stroke-linecap:round;stroke-linejoin:round;stroke:rgb(100%,100%,100%);stroke-opacity:1;stroke-miterlimit:10;" d="M 127.136719 264 L 129.496094 251.875 L 129.996094 239.800781 L 120.785156 226.730469 "/>
<path style="fill:none;stroke-width:6;stroke-linecap:round;stroke-linejoin:round;stroke:rgb(100%,100%,100%);stroke-opacity:1;stroke-miterlimit:10;" d="M -9 74.765625 L -3.066406 74.925781 L 7.921875 75.527344 L 25.953125 80.53125 L 33.628906 81.339844 L 48.859375 81.042969 L 71.132813 79.726563 L 81.839844 81.222656 L 91.808594 80.84375 L 95.925781 84.152344 L 102.160156 89.074219 L 109.289063 94.925781 L 120.914063 97.726563 L 123.796875 107.0625 L 126.011719 109.140625 "/>
<path style="fill:none;stroke-width:6;stroke-linecap:round;stroke-linejoin:round;stroke:rgb(100%,100%,100%);stroke-opacity:1;stroke-miterlimit:10;" d="M 31.808594 52.410156 L 27.195313 50.824219 L 11.140625 44.257813 L 7.972656 43.234375 L -3.679688 40.898438 L -6.101563 39.59375 L -7.105469 38.566406 "/>
<path style="fill:none;stroke-width:6;stroke-linecap:round;stroke-linejoin:round;stroke:rgb(100%,100%,100%);stroke-opacity:1;stroke-miterlimit:10;" d="M 118.398438 149.679688 L 122.445313 150.671875 L 123.664063 150.949219 L 124.847656 151.453125 L 125.828125 152.773438 L 125.808594 154.066406 L 123.457031 171.300781 L 124.132813 174.097656 L 125.367188 175 L 160.363281 182.964844 "/>
<path style="fill:none;stroke-width:6;stroke-linecap:round;stroke-linejoin:round;stroke:rgb(100%,100%,100%);stroke-opacity:1;stroke-miterlimit:10;" d="M 73.378906 34.925781 L 33.882813 31.101563 L -6.21875 27.585938 "/>
<path style="fill:none;stroke-width:6;stroke-linecap:round;stroke-linejoin:round;stroke:rgb(100%,100%,100%);stroke-opacity:1;stroke-miterlimit:10;" d="M -9 244.410156 L -4.496094 245.953125 L 5.011719 251.238281 L 7.015625 252.949219 L 10.230469 256.746094 L 11.421875 258.984375 L 12.328125 262.28125 L 12.328125 264 "/>
<path style="fill:none;stroke-width:6;stroke-linecap:round;stroke-linejoin:round;stroke:rgb(100%,100%,100%);stroke-opacity:1;stroke-miterlimit:10;" d="M -2.410156 -9 L -3.679688 6.121094 L -6.21875 27.585938 L -7.335938 37.882813 L -7.105469 38.566406 "/>
<path style="fill:none;stroke-width:6;stroke-linecap:round;stroke-linejoin:round;stroke:rgb(100%,100%,100%);stroke-opacity:1;stroke-miterlimit:10;" d="M 119.003906 17.445313 L 75.382813 13.554688 L 35.933594 10.070313 L 7.132813 7.367188 L -3.679688 6.121094 "/>
<path style="fill:none;stroke-width:6;stroke-linecap:round;stroke-linejoin:round;stroke:rgb(100%,100%,100%);stroke-opacity:1;stroke-miterlimit:10;" d="M 77.414063 -9 L 77.292969 -7.660156 L 75.382813 13.554688 L 73.378906 34.925781 L 71.351563 55.988281 "/>
<path style="fill:none;stroke-width:6;stroke-linecap:round;stroke-linejoin:round;stroke:rgb(100%,100%,100%);stroke-opacity:1;stroke-miterlimit:10;" d="M 121.394531 -9 L 120.914063 -3.710938 L 119.003906 17.445313 L 118.003906 28.644531 L 117.09375 30.914063 L 116.277344 31.972656 L 81.792969 51.910156 L 74.429688 55.148438 L 71.351563 55.988281 L 69.769531 56.265625 L 65.222656 56.265625 L 35.328125 53.21875 L 31.808594 52.410156 "/>
<path style="fill:none;stroke-width:6;stroke-linecap:round;stroke-linejoin:round;stroke:rgb(100%,100%,100%);stroke-opacity:1;stroke-miterlimit:10;" d="M 37.554688 -9 L 35.933594 10.070313 L 33.882813 31.101563 L 31.808594 52.410156 "/>
<path style="fill:none;stroke-width:6;stroke-linecap:round;stroke-linejoin:round;stroke:rgb(100%,100%,100%);stroke-opacity:1;stroke-miterlimit:10;" d="M -9 141.609375 L 4.382813 146.539063 L 11.023438 148.375 L 17.199219 149.152344 L 21.207031 148.839844 L 25.238281 147.722656 L 28.453125 145.855469 L 33.605469 141.25 L 38.078125 135.277344 L 44.089844 125.605469 L 46.910156 122.246094 L 49.074219 120.722656 L 52.78125 119.445313 L 65.761719 117.300781 L 77.203125 116.613281 L 88.199219 116.738281 L 93.488281 117.144531 L 97.894531 117.796875 L 104.628906 119.226563 L 109.101563 120.691406 L 122.664063 126.847656 "/>
<path style="fill:none;stroke-width:6;stroke-linecap:round;stroke-linejoin:round;stroke:rgb(100%,99.215686%,54.509804%);stroke-opacity:1;stroke-miterlimit:10;" d="M 144.054688 -9 L 142.449219 -0.871094 L 138.792969 31.902344 L 136.871094 47.527344 L 135.359375 60.9375 L 133.25 73.277344 L 131.570313 79.851563 L 130.167969 86.503906 L 126.8125 105.324219 L 126.011719 109.140625 L 124.394531 116.871094 "/>
<path style="fill:none;stroke-width:6;stroke-linecap:round;stroke-linejoin:round;stroke:rgb(100%,99.215686%,54.509804%);stroke-opacity:1;stroke-miterlimit:10;" d="M 123.410156 122.515625 L 122.664063 126.847656 L 118.398438 149.679688 L 114.25 171.300781 L 108.542969 196.527344 L 105.863281 205.484375 L 103.835938 210.398438 L 101.714844 216.683594 L 100.710938 219.046875 L 98.683594 222.871094 L 92.066406 236.402344 L 90.738281 239.050781 L 78.230469 264 "/>
<path style="fill:none;stroke-width:8;stroke-linecap:butt;stroke-linejoin:round;stroke:rgb(53.333333%,53.333333%,53.333333%);stroke-opacity:1;stroke-miterlimit:10;" d="M 124.394531 116.871094 L 123.410156 122.515625 "/>
<path style="fill:none;stroke-width:6;stroke-linecap:round;stroke-linejoin:round;stroke:rgb(100%,99.215686%,54.509804%);stroke-opacity:1;stroke-miterlimit:10;" d="M 124.394531 116.871094 L 123.410156 122.515625 "/>
<path style="fill:none;stroke-width:3;stroke-linecap:round;stroke-linejoin:round;stroke:rgb(100%,100%,100%);stroke-opacity:1;stroke-miterlimit:10;" d="M 101.519531 217.300781 C 101.675781 217.144531 101.917969 217.027344 102.238281 216.941406 C 102.550781 216.859375 102.964844 216.816406 103.472656 216.816406 L 105.863281 216.785156 L 105.441406 217.753906 L 103.175781 217.769531 C 102.59375 217.78125 102.175781 217.855469 101.925781 217.988281 C 101.675781 218.113281 101.472656 218.355469 101.316406 218.707031 L 100.894531 219.675781 L 104.003906 221.035156 L 103.613281 221.941406 L 96.269531 218.738281 L 97.144531 216.722656 C 97.480469 215.964844 97.902344 215.472656 98.410156 215.253906 C 98.921875 215.035156 99.535156 215.082031 100.253906 215.394531 C 100.714844 215.59375 101.050781 215.859375 101.269531 216.191406 C 101.488281 216.515625 101.574219 216.886719 101.519531 217.300781 Z M 97.472656 218.175781 L 100.082031 219.316406 L 100.566406 218.207031 C 100.765625 217.769531 100.800781 217.394531 100.675781 217.082031 C 100.550781 216.769531 100.277344 216.519531 99.847656 216.332031 C 99.410156 216.144531 99.035156 216.113281 98.722656 216.238281 C 98.410156 216.355469 98.15625 216.628906 97.957031 217.066406 Z M 100.683594 213.410156 L 100.964844 212.566406 L 106.667969 214.488281 L 106.386719 215.332031 Z M 98.464844 212.660156 L 98.746094 211.816406 L 99.933594 212.222656 L 99.652344 213.066406 Z M 101.414063 211.324219 L 101.742188 210.449219 L 107.054688 210.714844 L 102.976563 207.292969 L 103.304688 206.417969 L 108.179688 210.480469 L 107.757813 211.605469 Z M 107.71875 201.816406 L 108.1875 201.972656 L 106.921875 205.863281 C 107.578125 206.03125 108.125 206.011719 108.5625 205.800781 C 109 205.59375 109.3125 205.214844 109.5 204.660156 C 109.601563 204.328125 109.660156 204 109.671875 203.675781 C 109.679688 203.34375 109.648438 202.996094 109.578125 202.628906 L 110.453125 202.925781 C 110.503906 203.269531 110.515625 203.613281 110.484375 203.957031 C 110.460938 204.300781 110.398438 204.640625 110.296875 204.972656 C 110.023438 205.796875 109.546875 206.363281 108.859375 206.675781 C 108.171875 206.980469 107.371094 206.980469 106.453125 206.675781 C 105.527344 206.375 104.859375 205.90625 104.453125 205.269531 C 104.046875 204.636719 103.976563 203.933594 104.234375 203.160156 C 104.453125 202.472656 104.882813 202.011719 105.515625 201.769531 C 106.140625 201.53125 106.875 201.546875 107.71875 201.816406 Z M 107.171875 202.582031 C 106.652344 202.417969 106.199219 202.40625 105.8125 202.550781 C 105.429688 202.699219 105.167969 202.980469 105.03125 203.394531 C 104.875 203.875 104.902344 204.308594 105.109375 204.691406 C 105.308594 205.078125 105.667969 205.378906 106.1875 205.597656 Z M 107.308594 196.871094 C 107.214844 196.957031 107.136719 197.050781 107.074219 197.152344 C 107.003906 197.257813 106.949219 197.371094 106.917969 197.496094 C 106.773438 197.988281 106.835938 198.414063 107.105469 198.777344 C 107.378906 199.132813 107.839844 199.410156 108.496094 199.605469 L 111.527344 200.511719 L 111.261719 201.371094 L 105.496094 199.652344 L 105.761719 198.792969 L 106.667969 199.058594 C 106.367188 198.777344 106.175781 198.472656 106.089844 198.136719 C 106.007813 197.792969 106.027344 197.417969 106.152344 197.011719 C 106.175781 196.949219 106.195313 196.882813 106.214844 196.808594 C 106.238281 196.738281 106.273438 196.664063 106.324219 196.589844 Z M 110.28125 189.917969 C 110.40625 189.730469 110.621094 189.570313 110.921875 189.433594 C 111.214844 189.289063 111.601563 189.167969 112.078125 189.074219 L 114.4375 188.589844 L 114.203125 189.621094 L 111.984375 190.058594 C 111.421875 190.183594 111.03125 190.335938 110.8125 190.511719 C 110.585938 190.691406 110.429688 190.964844 110.34375 191.339844 L 110.109375 192.371094 L 113.421875 193.121094 L 113.203125 194.089844 L 105.390625 192.324219 L 105.875 190.167969 C 106.054688 189.355469 106.371094 188.800781 106.828125 188.496094 C 107.289063 188.183594 107.898438 188.113281 108.65625 188.277344 C 109.148438 188.394531 109.53125 188.589844 109.8125 188.871094 C 110.09375 189.144531 110.25 189.492188 110.28125 189.917969 Z M 106.46875 191.542969 L 109.25 192.183594 L 109.515625 190.996094 C 109.621094 190.527344 109.585938 190.148438 109.40625 189.855469 C 109.21875 189.566406 108.898438 189.367188 108.4375 189.261719 C 107.980469 189.167969 107.609375 189.210938 107.328125 189.386719 C 107.039063 189.566406 106.839844 189.886719 106.734375 190.355469 Z M 109.96875 184.195313 C 109.867188 184.664063 109.984375 185.078125 110.328125 185.429688 C 110.671875 185.785156 111.199219 186.046875 111.90625 186.210938 C 112.605469 186.367188 113.1875 186.359375 113.65625 186.179688 C 114.117188 186.003906 114.398438 185.679688 114.5 185.210938 C 114.601563 184.742188 114.492188 184.332031 114.15625 183.976563 C 113.8125 183.613281 113.292969 183.351563 112.59375 183.195313 C 111.886719 183.03125 111.296875 183.039063 110.828125 183.226563 C 110.359375 183.40625 110.074219 183.726563 109.96875 184.195313 Z M 109.171875 184.007813 C 109.339844 183.257813 109.746094 182.734375 110.390625 182.429688 C 111.027344 182.117188 111.828125 182.070313 112.796875 182.289063 C 113.746094 182.5 114.445313 182.882813 114.890625 183.445313 C 115.347656 184 115.492188 184.648438 115.328125 185.398438 C 115.148438 186.160156 114.738281 186.691406 114.09375 186.992188 C 113.449219 187.296875 112.652344 187.34375 111.703125 187.132813 C 110.734375 186.914063 110.027344 186.53125 109.578125 185.976563 C 109.132813 185.425781 108.996094 184.769531 109.171875 184.007813 Z M 113.632813 178.4375 C 113.476563 179.148438 113.460938 179.65625 113.585938 179.96875 C 113.703125 180.273438 113.972656 180.46875 114.398438 180.5625 C 114.734375 180.648438 115.023438 180.609375 115.273438 180.453125 C 115.523438 180.296875 115.6875 180.046875 115.757813 179.703125 C 115.871094 179.214844 115.773438 178.78125 115.460938 178.40625 C 115.140625 178.03125 114.664063 177.773438 114.039063 177.625 L 113.820313 177.578125 Z M 113.617188 176.609375 L 116.976563 177.375 L 116.773438 178.25 L 115.882813 178.046875 C 116.203125 178.328125 116.414063 178.636719 116.507813 178.96875 C 116.609375 179.304688 116.617188 179.683594 116.523438 180.109375 C 116.398438 180.640625 116.132813 181.03125 115.726563 181.28125 C 115.3125 181.53125 114.820313 181.589844 114.257813 181.453125 C 113.59375 181.308594 113.140625 181 112.898438 180.53125 C 112.660156 180.054688 112.628906 179.417969 112.804688 178.625 L 113.070313 177.40625 L 112.976563 177.390625 C 112.53125 177.289063 112.15625 177.339844 111.851563 177.546875 C 111.550781 177.757813 111.347656 178.101563 111.242188 178.578125 C 111.171875 178.882813 111.144531 179.183594 111.164063 179.484375 C 111.1875 179.789063 111.25 180.09375 111.351563 180.40625 L 110.460938 180.203125 C 110.390625 179.839844 110.359375 179.507813 110.367188 179.203125 C 110.367188 178.890625 110.398438 178.589844 110.460938 178.296875 C 110.640625 177.539063 110.988281 177.015625 111.507813 176.734375 C 112.03125 176.453125 112.734375 176.414063 113.617188 176.609375 Z M 113.132813 171.003906 L 109.960938 170.316406 L 110.148438 169.441406 L 118.320313 171.207031 L 118.132813 172.082031 L 117.242188 171.894531 C 117.5625 172.144531 117.777344 172.433594 117.882813 172.753906 C 117.984375 173.066406 117.996094 173.417969 117.914063 173.800781 C 117.777344 174.449219 117.382813 174.910156 116.726563 175.191406 C 116.070313 175.472656 115.28125 175.511719 114.351563 175.300781 C 113.425781 175.105469 112.726563 174.746094 112.257813 174.222656 C 111.78125 173.703125 111.609375 173.121094 111.742188 172.472656 C 111.828125 172.089844 111.984375 171.777344 112.210938 171.535156 C 112.441406 171.285156 112.75 171.109375 113.132813 171.003906 Z M 114.554688 174.394531 C 115.273438 174.550781 115.863281 174.546875 116.320313 174.378906 C 116.78125 174.203125 117.054688 173.886719 117.148438 173.425781 C 117.25 172.957031 117.132813 172.550781 116.789063 172.207031 C 116.445313 171.855469 115.914063 171.597656 115.195313 171.441406 C 114.488281 171.296875 113.90625 171.3125 113.445313 171.488281 C 112.988281 171.65625 112.707031 171.972656 112.601563 172.441406 C 112.507813 172.902344 112.632813 173.308594 112.976563 173.660156 C 113.320313 174.003906 113.847656 174.25 114.554688 174.394531 Z M 114.554688 174.394531 "/>
<path style=" stroke:none;fill-rule:evenodd;fill:rgb(20%,20%,20%);fill-opacity:1;" d="M 101.519531 217.300781 C 101.675781 217.144531 101.917969 217.027344 102.238281 216.941406 C 102.550781 216.859375 102.964844 216.816406 103.472656 216.816406 L 105.863281 216.785156 L 105.441406 217.753906 L 103.175781 217.769531 C 102.59375 217.78125 102.175781 217.855469 101.925781 217.988281 C 101.675781 218.113281 101.472656 218.355469 101.316406 218.707031 L 100.894531 219.675781 L 104.003906 221.035156 L 103.613281 221.941406 L 96.269531 218.738281 L 97.144531 216.722656 C 97.480469 215.964844 97.902344 215.472656 98.410156 215.253906 C 98.921875 215.035156 99.535156 215.082031 100.253906 215.394531 C 100.714844 215.59375 101.050781 215.859375 101.269531 216.191406 C 101.488281 216.515625 101.574219 216.886719 101.519531 217.300781 Z M 97.472656 218.175781 L 100.082031 219.316406 L 100.566406 218.207031 C 100.765625 217.769531 100.800781 217.394531 100.675781 217.082031 C 100.550781 216.769531 100.277344 216.519531 99.847656 216.332031 C 99.410156 216.144531 99.035156 216.113281 98.722656 216.238281 C 98.410156 216.355469 98.15625 216.628906 97.957031 217.066406 Z M 100.683594 213.410156 L 100.964844 212.566406 L 106.667969 214.488281 L 106.386719 215.332031 Z M 98.464844 212.660156 L 98.746094 211.816406 L 99.933594 212.222656 L 99.652344 213.066406 Z M 101.414063 211.324219 L 101.742188 210.449219 L 107.054688 210.714844 L 102.976563 207.292969 L 103.304688 206.417969 L 108.179688 210.480469 L 107.757813 211.605469 Z M 107.71875 201.816406 L 108.1875 201.972656 L 106.921875 205.863281 C 107.578125 206.03125 108.125 206.011719 108.5625 205.800781 C 109 205.59375 109.3125 205.214844 109.5 204.660156 C 109.601563 204.328125 109.660156 204 109.671875 203.675781 C 109.679688 203.34375 109.648438 202.996094 109.578125 202.628906 L 110.453125 202.925781 C 110.503906 203.269531 110.515625 203.613281 110.484375 203.957031 C 110.460938 204.300781 110.398438 204.640625 110.296875 204.972656 C 110.023438 205.796875 109.546875 206.363281 108.859375 206.675781 C 108.171875 206.980469 107.371094 206.980469 106.453125 206.675781 C 105.527344 206.375 104.859375 205.90625 104.453125 205.269531 C 104.046875 204.636719 103.976563 203.933594 104.234375 203.160156 C 104.453125 202.472656 104.882813 202.011719 105.515625 201.769531 C 106.140625 201.53125 106.875 201.546875 107.71875 201.816406 Z M 107.171875 202.582031 C 106.652344 202.417969 106.199219 202.40625 105.8125 202.550781 C 105.429688 202.699219 105.167969 202.980469 105.03125 203.394531 C 104.875 203.875 104.902344 204.308594 105.109375 204.691406 C 105.308594 205.078125 105.667969 205.378906 106.1875 205.597656 Z M 107.308594 196.871094 C 107.214844 196.957031 107.136719 197.050781 107.074219 197.152344 C 107.003906 197.257813 106.949219 197.371094 106.917969 197.496094 C 106.773438 197.988281 106.835938 198.414063 107.105469 198.777344 C 107.378906 199.132813 107.839844 199.410156 108.496094 199.605469 L 111.527344 200.511719 L 111.261719 201.371094 L 105.496094 199.652344 L 105.761719 198.792969 L 106.667969 199.058594 C 106.367188 198.777344 106.175781 198.472656 106.089844 198.136719 C 106.007813 197.792969 106.027344 197.417969 106.152344 197.011719 C 106.175781 196.949219 106.195313 196.882813 106.214844 196.808594 C 106.238281 196.738281 106.273438 196.664063 106.324219 196.589844 Z M 110.28125 189.917969 C 110.40625 189.730469 110.621094 189.570313 110.921875 189.433594 C 111.214844 189.289063 111.601563 189.167969 112.078125 189.074219 L 114.4375 188.589844 L 114.203125 189.621094 L 111.984375 190.058594 C 111.421875 190.183594 111.03125 190.335938 110.8125 190.511719 C 110.585938 190.691406 110.429688 190.964844 110.34375 191.339844 L 110.109375 192.371094 L 113.421875 193.121094 L 113.203125 194.089844 L 105.390625 192.324219 L 105.875 190.167969 C 106.054688 189.355469 106.371094 188.800781 106.828125 188.496094 C 107.289063 188.183594 107.898438 188.113281 108.65625 188.277344 C 109.148438 188.394531 109.53125 188.589844 109.8125 188.871094 C 110.09375 189.144531 110.25 189.492188 110.28125 189.917969 Z M 106.46875 191.542969 L 109.25 192.183594 L 109.515625 190.996094 C 109.621094 190.527344 109.585938 190.148438 109.40625 189.855469 C 109.21875 189.566406 108.898438 189.367188 108.4375 189.261719 C 107.980469 189.167969 107.609375 189.210938 107.328125 189.386719 C 107.039063 189.566406 106.839844 189.886719 106.734375 190.355469 Z M 109.96875 184.195313 C 109.867188 184.664063 109.984375 185.078125 110.328125 185.429688 C 110.671875 185.785156 111.199219 186.046875 111.90625 186.210938 C 112.605469 186.367188 113.1875 186.359375 113.65625 186.179688 C 114.117188 186.003906 114.398438 185.679688 114.5 185.210938 C 114.601563 184.742188 114.492188 184.332031 114.15625 183.976563 C 113.8125 183.613281 113.292969 183.351563 112.59375 183.195313 C 111.886719 183.03125 111.296875 183.039063 110.828125 183.226563 C 110.359375 183.40625 110.074219 183.726563 109.96875 184.195313 Z M 109.171875 184.007813 C 109.339844 183.257813 109.746094 182.734375 110.390625 182.429688 C 111.027344 182.117188 111.828125 182.070313 112.796875 182.289063 C 113.746094 182.5 114.445313 182.882813 114.890625 183.445313 C 115.347656 184 115.492188 184.648438 115.328125 185.398438 C 115.148438 186.160156 114.738281 186.691406 114.09375 186.992188 C 113.449219 187.296875 112.652344 187.34375 111.703125 187.132813 C 110.734375 186.914063 110.027344 186.53125 109.578125 185.976563 C 109.132813 185.425781 108.996094 184.769531 109.171875 184.007813 Z M 113.632813 178.4375 C 113.476563 179.148438 113.460938 179.65625 113.585938 179.96875 C 113.703125 180.273438 113.972656 180.46875 114.398438 180.5625 C 114.734375 180.648438 115.023438 180.609375 115.273438 180.453125 C 115.523438 180.296875 115.6875 180.046875 115.757813 179.703125 C 115.871094 179.214844 115.773438 178.78125 115.460938 178.40625 C 115.140625 178.03125 114.664063 177.773438 114.039063 177.625 L 113.820313 177.578125 Z M 113.617188 176.609375 L 116.976563 177.375 L 116.773438 178.25 L 115.882813 178.046875 C 116.203125 178.328125 116.414063 178.636719 116.507813 178.96875 C 116.609375 179.304688 116.617188 179.683594 116.523438 180.109375 C 116.398438 180.640625 116.132813 181.03125 115.726563 181.28125 C 115.3125 181.53125 114.820313 181.589844 114.257813 181.453125 C 113.59375 181.308594 113.140625 181 112.898438 180.53125 C 112.660156 180.054688 112.628906 179.417969 112.804688 178.625 L 113.070313 177.40625 L 112.976563 177.390625 C 112.53125 177.289063 112.15625 177.339844 111.851563 177.546875 C 111.550781 177.757813 111.347656 178.101563 111.242188 178.578125 C 111.171875 178.882813 111.144531 179.183594 111.164063 179.484375 C 111.1875 179.789063 111.25 180.09375 111.351563 180.40625 L 110.460938 180.203125 C 110.390625 179.839844 110.359375 179.507813 110.367188 179.203125 C 110.367188 178.890625 110.398438 178.589844 110.460938 178.296875 C 110.640625 177.539063 110.988281 177.015625 111.507813 176.734375 C 112.03125 176.453125 112.734375 176.414063 113.617188 176.609375 Z M 113.132813 171.003906 L 109.960938 170.316406 L 110.148438 169.441406 L 118.320313 171.207031 L 118.132813 172.082031 L 117.242188 171.894531 C 117.5625 172.144531 117.777344 172.433594 117.882813 172.753906 C 117.984375 173.066406 117.996094 173.417969 117.914063 173.800781 C 117.777344 174.449219 117.382813 174.910156 116.726563 175.191406 C 116.070313 175.472656 115.28125 175.511719 114.351563 175.300781 C 113.425781 175.105469 112.726563 174.746094 112.257813 174.222656 C 111.78125 173.703125 111.609375 173.121094 111.742188 172.472656 C 111.828125 172.089844 111.984375 171.777344 112.210938 171.535156 C 112.441406 171.285156 112.75 171.109375 113.132813 171.003906 Z M 114.554688 174.394531 C 115.273438 174.550781 115.863281 174.546875 116.320313 174.378906 C 116.78125 174.203125 117.054688 173.886719 117.148438 173.425781 C 117.25 172.957031 117.132813 172.550781 116.789063 172.207031 C 116.445313 171.855469 115.914063 171.597656 115.195313 171.441406 C 114.488281 171.296875 113.90625 171.3125 113.445313 171.488281 C 112.988281 171.65625 112.707031 171.972656 112.601563 172.441406 C 112.507813 172.902344 112.632813 173.308594 112.976563 173.660156 C 113.320313 174.003906 113.847656 174.25 114.554688 174.394531 Z M 114.554688 174.394531 "/>
</g>
</svg>

