<?xml version="1.0" encoding="UTF-8"?>
<svg xmlns="http://www.w3.org/2000/svg" xmlns:xlink="http://www.w3.org/1999/xlink" width="256pt" height="256pt" viewBox="0 0 256 256" version="1.1">
<g id="surface2">
<rect x="0" y="0" width="256" height="256" style="fill:rgb(94.901961%,93.72549%,91.372549%);fill-opacity:1;stroke:none;"/>
<path style=" stroke:none;fill-rule:evenodd;fill:rgb(60%,70.196078%,80%);fill-opacity:1;" d="M -4 259 L 259 259 L -4 259 L 259 259 L 259 -4 L 259 259 Z M -8235614.453125 5518125.222656 Z M -8235614.453125 5518125.222656 Z M -8235614.453125 5518125.222656 "/>
<path style="fill:none;stroke-width:1;stroke-linecap:round;stroke-linejoin:round;stroke:rgb(70.196078%,77.647059%,83.137255%);stroke-opacity:1;stroke-miterlimit:10;" d="M -4 259 L 259 259 L -4 259 L 259 259 L 259 -4 L 259 259 L -4 259 "/>
<path style="fill:none;stroke-width:1;stroke-linecap:round;stroke-linejoin:round;stroke:rgb(100%,100%,100%);stroke-opacity:1;stroke-dasharray:2,3;stroke-miterlimit:10;" d="M -2 41.789063 L 7.628906 42.351563 L 19.429688 53.25 L 30.328125 66 L 42.175781 88.699219 L 51.277344 112.347656 L 53.976563 128.699219 L 60.328125 151.449219 L 79.425781 174.148438 L 103.078125 192.351563 L 113.976563 208.699219 L 126.726563 226 L 140.328125 236.898438 L 159.457031 237.109375 L 180.34375 234.28125 L 191.277344 248.699219 L 198.789063 257 "/>
</g>
</svg>

