<?xml version="1.0" encoding="UTF-8"?>
<svg xmlns="http://www.w3.org/2000/svg" xmlns:xlink="http://www.w3.org/1999/xlink" width="256pt" height="256pt" viewBox="0 0 256 256" version="1.1">
<g id="surface2">
<rect x="0" y="0" width="256" height="256" style="fill:rgb(94.901961%,93.72549%,91.372549%);fill-opacity:1;stroke:none;"/>
<path style="fill:none;stroke-width:1;stroke-linecap:round;stroke-linejoin:round;stroke:rgb(100%,100%,100%);stroke-opacity:1;stroke-dasharray:2,3;stroke-miterlimit:10;" d="M 162.136719 -2 L 163.871094 6.910156 L 166.941406 16.433594 L 171.242188 28.109375 L 165.714844 32.105469 L 156.5 32.410156 L 149.738281 28.109375 L 142.367188 27.1875 L 133.761719 29.953125 L 127.925781 33.332031 L 124.375 35.4375 L 115.332031 37.328125 L 111.03125 40.707031 L 108.265625 47.464844 L 109.800781 52.6875 L 123.320313 52.6875 L 131.308594 52.074219 L 140.464844 52.007813 L 145.4375 59.140625 L 150.234375 68.039063 L 154.960938 74.5 L 151.273438 78.492188 L 146.667969 79.109375 L 139.292969 79.722656 L 123.570313 80.101563 "/>
<path style="fill:none;stroke-width:1;stroke-linecap:round;stroke-linejoin:round;stroke:rgb(100%,100%,100%);stroke-opacity:1;stroke-dasharray:2,3;stroke-miterlimit:10;" d="M 257 34.894531 L 255.351563 30.015625 L 253.371094 26.511719 L 246.03125 16.929688 L 242.628906 14.367188 L 236.617188 12.515625 L 227.320313 10.792969 L 221.261719 8.097656 L 217.742188 5.792969 L 213.828125 1.539063 L 210.285156 -1.316406 L 208.902344 -2 "/>
<path style="fill:none;stroke-width:1;stroke-linecap:round;stroke-linejoin:round;stroke:rgb(100%,100%,100%);stroke-opacity:1;stroke-dasharray:2,3;stroke-miterlimit:10;" d="M 111.117188 -2 L 110.972656 5.761719 L 109.550781 13.035156 L 108.199219 17.0625 L 106.476563 20.046875 L 103.5625 23.683594 L 102.863281 26.378906 L 103.9375 28.101563 L 106.035156 28.976563 L 116.308594 30.667969 L 120.527344 32.421875 L 124.375 35.4375 L 132.292969 44.273438 L 138.984375 50.179688 L 140.464844 52.007813 L 142.175781 55.214844 L 142.59375 58.007813 L 142.359375 61.1875 L 140.847656 65.734375 L 138.238281 69.144531 L 130.875 75.636719 L 123.570313 80.101563 L 120.785156 81.808594 L 108.015625 90.769531 L 89.417969 105.476563 L 83.359375 108.824219 L 74.761719 110.996094 L 68.613281 114.730469 L 62.226563 117.785156 L 59.289063 120.445313 L 55.46875 128.335938 L 52.71875 130.351563 L 42.140625 134.601563 L 27.648438 143.695313 L 19.585938 148.175781 L 10.589844 151.550781 L 8.238281 153.207031 L -2 163.203125 "/>
</g>
</svg>

