<?xml version="1.0" encoding="UTF-8"?>
<svg xmlns="http://www.w3.org/2000/svg" xmlns:xlink="http://www.w3.org/1999/xlink" width="256pt" height="256pt" viewBox="0 0 256 256" version="1.1">
<g id="surface2">
<rect x="0" y="0" width="256" height="256" style="fill:rgb(94.901961%,93.72549%,91.372549%);fill-opacity:1;stroke:none;"/>
<path style=" stroke:none;fill-rule:evenodd;fill:rgb(60%,70.196078%,80%);fill-opacity:1;" d="M -4 259 L -4 -4 L 259 -4 L -4 -4 L -4 259 L -4 -4 Z M -4 259 "/>
<path style="fill:none;stroke-width:1;stroke-linecap:round;stroke-linejoin:round;stroke:rgb(70.196078%,77.647059%,83.137255%);stroke-opacity:1;stroke-miterlimit:10;" d="M -4 259 L -4 -4 L 259 -4 L -4 -4 L -4 259 L -4 -4 L -4 259 "/>
<path style="fill:none;stroke-width:1;stroke-linecap:round;stroke-linejoin:round;stroke:rgb(100%,100%,100%);stroke-opacity:1;stroke-dasharray:2,3;stroke-miterlimit:10;" d="M 144.207031 -2 L 142.625 8.398438 L 134.886719 51.589844 L 110.792969 73.90625 L 112.796875 98.332031 "/>
<path style="fill:none;stroke-width:3;stroke-linecap:round;stroke-linejoin:round;stroke:rgb(100%,100%,100%);stroke-opacity:1;stroke-miterlimit:10;" d="M 110.75 68.46875 L 111.484375 67.796875 L 116.328125 73 L 118.90625 70.609375 L 119.515625 71.28125 L 116.203125 74.34375 Z M 118.140625 65.285156 C 117.796875 65.609375 117.667969 66.019531 117.75 66.519531 C 117.835938 67.011719 118.121094 67.515625 118.609375 68.035156 C 119.089844 68.566406 119.566406 68.890625 120.046875 69.003906 C 120.535156 69.121094 120.953125 69.015625 121.296875 68.691406 C 121.648438 68.371094 121.785156 67.964844 121.703125 67.472656 C 121.628906 66.984375 121.351563 66.472656 120.875 65.941406 C 120.382813 65.421875 119.894531 65.105469 119.40625 64.988281 C 118.917969 64.863281 118.496094 64.964844 118.140625 65.285156 Z M 117.578125 64.675781 C 118.152344 64.15625 118.792969 63.949219 119.5 64.050781 C 120.195313 64.15625 120.882813 64.574219 121.5625 65.300781 C 122.21875 66.019531 122.578125 66.738281 122.640625 67.457031 C 122.703125 68.167969 122.445313 68.78125 121.875 69.300781 C 121.300781 69.832031 120.660156 70.042969 119.953125 69.925781 C 119.257813 69.8125 118.578125 69.394531 117.921875 68.675781 C 117.246094 67.949219 116.875 67.234375 116.8125 66.535156 C 116.75 65.828125 117.007813 65.207031 117.578125 64.675781 Z M 122.578125 61.175781 C 122.234375 61.5 122.105469 61.910156 122.1875 62.410156 C 122.273438 62.902344 122.558594 63.40625 123.046875 63.925781 C 123.527344 64.457031 124.003906 64.78125 124.484375 64.894531 C 124.972656 65.011719 125.390625 64.90625 125.734375 64.582031 C 126.085938 64.261719 126.222656 63.855469 126.140625 63.363281 C 126.066406 62.875 125.789063 62.363281 125.3125 61.832031 C 124.820313 61.3125 124.332031 60.996094 123.84375 60.878906 C 123.355469 60.753906 122.933594 60.855469 122.578125 61.175781 Z M 122.015625 60.566406 C 122.589844 60.046875 123.230469 59.839844 123.9375 59.941406 C 124.632813 60.046875 125.320313 60.464844 126 61.191406 C 126.65625 61.910156 127.015625 62.628906 127.078125 63.347656 C 127.140625 64.058594 126.882813 64.671875 126.3125 65.191406 C 125.738281 65.722656 125.097656 65.933594 124.390625 65.816406 C 123.695313 65.703125 123.015625 65.285156 122.359375 64.566406 C 121.683594 63.839844 121.3125 63.125 121.25 62.425781 C 121.1875 61.71875 121.445313 61.097656 122.015625 60.566406 Z M 129.933594 56.691406 L 132.402344 59.347656 L 131.746094 59.941406 L 129.308594 57.300781 C 128.910156 56.886719 128.546875 56.644531 128.214844 56.582031 C 127.882813 56.511719 127.570313 56.609375 127.277344 56.878906 C 126.925781 57.203125 126.761719 57.582031 126.792969 58.019531 C 126.816406 58.457031 127.023438 58.890625 127.417969 59.316406 L 129.730469 61.816406 L 129.074219 62.425781 L 124.980469 58.019531 L 125.636719 57.410156 L 126.277344 58.097656 C 126.183594 57.683594 126.183594 57.3125 126.277344 56.988281 C 126.363281 56.667969 126.550781 56.375 126.839844 56.113281 C 127.289063 55.699219 127.777344 55.535156 128.308594 55.628906 C 128.828125 55.722656 129.371094 56.078125 129.933594 56.691406 Z M 137.457031 53.003906 L 129.066406 51.816406 L 129.535156 50.910156 L 136.597656 51.925781 L 131.613281 46.832031 L 132.082031 45.925781 L 137.972656 52.019531 Z M 137.082031 44.8125 C 136.957031 45.523438 136.964844 46.027344 137.097656 46.328125 C 137.234375 46.632813 137.519531 46.824219 137.957031 46.90625 C 138.292969 46.960938 138.582031 46.902344 138.832031 46.734375 C 139.074219 46.570313 139.222656 46.3125 139.285156 45.96875 C 139.371094 45.46875 139.246094 45.042969 138.910156 44.6875 C 138.578125 44.324219 138.097656 44.085938 137.472656 43.96875 L 137.238281 43.9375 Z M 136.988281 42.984375 L 140.378906 43.59375 L 140.222656 44.46875 L 139.332031 44.3125 C 139.652344 44.585938 139.871094 44.886719 139.988281 45.21875 C 140.113281 45.542969 140.132813 45.917969 140.050781 46.34375 C 139.957031 46.898438 139.710938 47.304688 139.316406 47.5625 C 138.921875 47.824219 138.4375 47.902344 137.863281 47.796875 C 137.199219 47.683594 136.730469 47.398438 136.457031 46.9375 C 136.1875 46.46875 136.125 45.835938 136.269531 45.03125 L 136.488281 43.796875 L 136.394531 43.78125 C 135.949219 43.699219 135.578125 43.773438 135.285156 44 C 134.984375 44.21875 134.792969 44.574219 134.707031 45.0625 C 134.65625 45.355469 134.644531 45.65625 134.675781 45.96875 C 134.707031 46.273438 134.78125 46.574219 134.894531 46.875 L 134.003906 46.703125 C 133.921875 46.351563 133.875 46.023438 133.863281 45.71875 C 133.84375 45.40625 133.859375 45.109375 133.910156 44.828125 C 134.046875 44.058594 134.371094 43.523438 134.878906 43.21875 C 135.390625 42.90625 136.09375 42.828125 136.988281 42.984375 Z M 132.480469 40.332031 L 132.636719 39.457031 L 140.871094 40.925781 L 140.714844 41.800781 Z M 132.964844 37.625 L 133.121094 36.75 L 141.355469 38.21875 L 141.199219 39.09375 Z M 139.292969 31.261719 L 139.777344 31.355469 L 139.058594 35.371094 C 139.726563 35.457031 140.269531 35.367188 140.683594 35.105469 C 141.089844 34.835938 141.339844 34.410156 141.433594 33.824219 C 141.496094 33.492188 141.511719 33.164063 141.480469 32.839844 C 141.441406 32.507813 141.355469 32.164063 141.230469 31.808594 L 142.136719 31.964844 C 142.238281 32.320313 142.300781 32.667969 142.324219 33.011719 C 142.34375 33.355469 142.324219 33.695313 142.261719 34.027344 C 142.105469 34.882813 141.707031 35.511719 141.074219 35.917969 C 140.441406 36.316406 139.648438 36.429688 138.699219 36.261719 C 137.730469 36.085938 137.007813 35.710938 136.527344 35.136719 C 136.039063 34.566406 135.867188 33.878906 136.011719 33.074219 C 136.136719 32.355469 136.496094 31.835938 137.089844 31.511719 C 137.683594 31.191406 138.417969 31.105469 139.292969 31.261719 Z M 138.855469 32.089844 C 138.316406 32.007813 137.863281 32.066406 137.496094 32.261719 C 137.132813 32.460938 136.910156 32.773438 136.824219 33.199219 C 136.742188 33.691406 136.832031 34.113281 137.089844 34.464844 C 137.339844 34.820313 137.742188 35.070313 138.292969 35.214844 Z M 143.695313 28.261719 C 144.359375 28.648438 144.777344 28.976563 144.945313 29.246094 C 145.121094 29.519531 145.171875 29.851563 145.101563 30.246094 L 144.976563 30.949219 L 144.179688 30.808594 L 144.273438 30.277344 C 144.3125 30.050781 144.277344 29.855469 144.164063 29.699219 C 144.058594 29.535156 143.789063 29.324219 143.351563 29.074219 L 142.929688 28.839844 L 136.710938 29.949219 L 136.882813 29.027344 L 141.804688 28.199219 L 137.476563 25.699219 L 137.648438 24.777344 Z M 143.695313 28.261719 "/>
<path style=" stroke:none;fill-rule:evenodd;fill:rgb(20%,20%,20%);fill-opacity:1;" d="M 110.75 68.46875 L 111.484375 67.796875 L 116.328125 73 L 118.90625 70.609375 L 119.515625 71.28125 L 116.203125 74.34375 Z M 118.140625 65.285156 C 117.796875 65.609375 117.667969 66.019531 117.75 66.519531 C 117.835938 67.011719 118.121094 67.515625 118.609375 68.035156 C 119.089844 68.566406 119.566406 68.890625 120.046875 69.003906 C 120.535156 69.121094 120.953125 69.015625 121.296875 68.691406 C 121.648438 68.371094 121.785156 67.964844 121.703125 67.472656 C 121.628906 66.984375 121.351563 66.472656 120.875 65.941406 C 120.382813 65.421875 119.894531 65.105469 119.40625 64.988281 C 118.917969 64.863281 118.496094 64.964844 118.140625 65.285156 Z M 117.578125 64.675781 C 118.152344 64.15625 118.792969 63.949219 119.5 64.050781 C 120.195313 64.15625 120.882813 64.574219 121.5625 65.300781 C 122.21875 66.019531 122.578125 66.738281 122.640625 67.457031 C 122.703125 68.167969 122.445313 68.78125 121.875 69.300781 C 121.300781 69.832031 120.660156 70.042969 119.953125 69.925781 C 119.257813 69.8125 118.578125 69.394531 117.921875 68.675781 C 117.246094 67.949219 116.875 67.234375 116.8125 66.535156 C 116.75 65.828125 117.007813 65.207031 117.578125 64.675781 Z M 122.578125 61.175781 C 122.234375 61.5 122.105469 61.910156 122.1875 62.410156 C 122.273438 62.902344 122.558594 63.40625 123.046875 63.925781 C 123.527344 64.457031 124.003906 64.78125 124.484375 64.894531 C 124.972656 65.011719 125.390625 64.90625 125.734375 64.582031 C 126.085938 64.261719 126.222656 63.855469 126.140625 63.363281 C 126.066406 62.875 125.789063 62.363281 125.3125 61.832031 C 124.820313 61.3125 124.332031 60.996094 123.84375 60.878906 C 123.355469 60.753906 122.933594 60.855469 122.578125 61.175781 Z M 122.015625 60.566406 C 122.589844 60.046875 123.230469 59.839844 123.9375 59.941406 C 124.632813 60.046875 125.320313 60.464844 126 61.191406 C 126.65625 61.910156 127.015625 62.628906 127.078125 63.347656 C 127.140625 64.058594 126.882813 64.671875 126.3125 65.191406 C 125.738281 65.722656 125.097656 65.933594 124.390625 65.816406 C 123.695313 65.703125 123.015625 65.285156 122.359375 64.566406 C 121.683594 63.839844 121.3125 63.125 121.25 62.425781 C 121.1875 61.71875 121.445313 61.097656 122.015625 60.566406 Z M 129.933594 56.691406 L 132.402344 59.347656 L 131.746094 59.941406 L 129.308594 57.300781 C 128.910156 56.886719 128.546875 56.644531 128.214844 56.582031 C 127.882813 56.511719 127.570313 56.609375 127.277344 56.878906 C 126.925781 57.203125 126.761719 57.582031 126.792969 58.019531 C 126.816406 58.457031 127.023438 58.890625 127.417969 59.316406 L 129.730469 61.816406 L 129.074219 62.425781 L 124.980469 58.019531 L 125.636719 57.410156 L 126.277344 58.097656 C 126.183594 57.683594 126.183594 57.3125 126.277344 56.988281 C 126.363281 56.667969 126.550781 56.375 126.839844 56.113281 C 127.289063 55.699219 127.777344 55.535156 128.308594 55.628906 C 128.828125 55.722656 129.371094 56.078125 129.933594 56.691406 Z M 137.457031 53.003906 L 129.066406 51.816406 L 129.535156 50.910156 L 136.597656 51.925781 L 131.613281 46.832031 L 132.082031 45.925781 L 137.972656 52.019531 Z M 137.082031 44.8125 C 136.957031 45.523438 136.964844 46.027344 137.097656 46.328125 C 137.234375 46.632813 137.519531 46.824219 137.957031 46.90625 C 138.292969 46.960938 138.582031 46.902344 138.832031 46.734375 C 139.074219 46.570313 139.222656 46.3125 139.285156 45.96875 C 139.371094 45.46875 139.246094 45.042969 138.910156 44.6875 C 138.578125 44.324219 138.097656 44.085938 137.472656 43.96875 L 137.238281 43.9375 Z M 136.988281 42.984375 L 140.378906 43.59375 L 140.222656 44.46875 L 139.332031 44.3125 C 139.652344 44.585938 139.871094 44.886719 139.988281 45.21875 C 140.113281 45.542969 140.132813 45.917969 140.050781 46.34375 C 139.957031 46.898438 139.710938 47.304688 139.316406 47.5625 C 138.921875 47.824219 138.4375 47.902344 137.863281 47.796875 C 137.199219 47.683594 136.730469 47.398438 136.457031 46.9375 C 136.1875 46.46875 136.125 45.835938 136.269531 45.03125 L 136.488281 43.796875 L 136.394531 43.78125 C 135.949219 43.699219 135.578125 43.773438 135.285156 44 C 134.984375 44.21875 134.792969 44.574219 134.707031 45.0625 C 134.65625 45.355469 134.644531 45.65625 134.675781 45.96875 C 134.707031 46.273438 134.78125 46.574219 134.894531 46.875 L 134.003906 46.703125 C 133.921875 46.351563 133.875 46.023438 133.863281 45.71875 C 133.84375 45.40625 133.859375 45.109375 133.910156 44.828125 C 134.046875 44.058594 134.371094 43.523438 134.878906 43.21875 C 135.390625 42.90625 136.09375 42.828125 136.988281 42.984375 Z M 132.480469 40.332031 L 132.636719 39.457031 L 140.871094 40.925781 L 140.714844 41.800781 Z M 132.964844 37.625 L 133.121094 36.75 L 141.355469 38.21875 L 141.199219 39.09375 Z M 139.292969 31.261719 L 139.777344 31.355469 L 139.058594 35.371094 C 139.726563 35.457031 140.269531 35.367188 140.683594 35.105469 C 141.089844 34.835938 141.339844 34.410156 141.433594 33.824219 C 141.496094 33.492188 141.511719 33.164063 141.480469 32.839844 C 141.441406 32.507813 141.355469 32.164063 141.230469 31.808594 L 142.136719 31.964844 C 142.238281 32.320313 142.300781 32.667969 142.324219 33.011719 C 142.34375 33.355469 142.324219 33.695313 142.261719 34.027344 C 142.105469 34.882813 141.707031 35.511719 141.074219 35.917969 C 140.441406 36.316406 139.648438 36.429688 138.699219 36.261719 C 137.730469 36.085938 137.007813 35.710938 136.527344 35.136719 C 136.039063 34.566406 135.867188 33.878906 136.011719 33.074219 C 136.136719 32.355469 136.496094 31.835938 137.089844 31.511719 C 137.683594 31.191406 138.417969 31.105469 139.292969 31.261719 Z M 138.855469 32.089844 C 138.316406 32.007813 137.863281 32.066406 137.496094 32.261719 C 137.132813 32.460938 136.910156 32.773438 136.824219 33.199219 C 136.742188 33.691406 136.832031 34.113281 137.089844 34.464844 C 137.339844 34.820313 137.742188 35.070313 138.292969 35.214844 Z M 143.695313 28.261719 C 144.359375 28.648438 144.777344 28.976563 144.945313 29.246094 C 145.121094 29.519531 145.171875 29.851563 145.101563 30.246094 L 144.976563 30.949219 L 144.179688 30.808594 L 144.273438 30.277344 C 144.3125 30.050781 144.277344 29.855469 144.164063 29.699219 C 144.058594 29.535156 143.789063 29.324219 143.351563 29.074219 L 142.929688 28.839844 L 136.710938 29.949219 L 136.882813 29.027344 L 141.804688 28.199219 L 137.476563 25.699219 L 137.648438 24.777344 Z M 143.695313 28.261719 "/>
</g>
</svg>

