<?xml version="1.0" encoding="UTF-8"?>
<svg xmlns="http://www.w3.org/2000/svg" xmlns:xlink="http://www.w3.org/1999/xlink" width="256pt" height="256pt" viewBox="0 0 256 256" version="1.1">
<g id="surface2">
<rect x="0" y="0" width="256" height="256" style="fill:rgb(94.901961%,93.72549%,91.372549%);fill-opacity:1;stroke:none;"/>
<path style="fill:none;stroke-width:8;stroke-linecap:round;stroke-linejoin:round;stroke:rgb(75.686275%,70.980392%,61.568627%);stroke-opacity:1;stroke-miterlimit:10;" d="M 31.351563 87.347656 L 27.878906 109.066406 "/>
<path style="fill:none;stroke-width:8;stroke-linecap:round;stroke-linejoin:round;stroke:rgb(75.686275%,70.980392%,61.568627%);stroke-opacity:1;stroke-miterlimit:10;" d="M 76.371094 43.964844 L 73.503906 48.167969 L 71.105469 56.886719 L 67.867188 65.828125 L 60.410156 83.554688 "/>
<path style="fill:none;stroke-width:8;stroke-linecap:round;stroke-linejoin:round;stroke:rgb(75.686275%,70.980392%,61.568627%);stroke-opacity:1;stroke-miterlimit:10;" d="M 60.410156 83.554688 L 58.679688 88.863281 L 48.875 115.910156 L 27.878906 109.066406 "/>
<path style="fill:none;stroke-width:8;stroke-linecap:round;stroke-linejoin:round;stroke:rgb(75.686275%,70.980392%,61.568627%);stroke-opacity:1;stroke-miterlimit:10;" d="M 76.394531 19.964844 L 90.839844 22.066406 L 120.480469 24.167969 L 126.914063 23.949219 L 130.289063 23.542969 L 133.085938 22.410156 L 137.839844 19.429688 "/>
<path style="fill:none;stroke-width:8;stroke-linecap:round;stroke-linejoin:round;stroke:rgb(75.686275%,70.980392%,61.568627%);stroke-opacity:1;stroke-miterlimit:10;" d="M 31.351563 87.347656 L 33.078125 80.917969 L 34.03125 79.222656 L 35.011719 78.410156 L 35.988281 77.96875 L 38.457031 77.6875 L 60.410156 83.554688 L 82.640625 90.171875 L 88.394531 92.273438 "/>
<path style="fill:none;stroke-width:8;stroke-linecap:round;stroke-linejoin:round;stroke:rgb(75.686275%,70.980392%,61.568627%);stroke-opacity:1;stroke-miterlimit:10;" d="M -9 15.8125 L 4.929688 17.519531 L 7.792969 17.109375 L 11.382813 15.605469 L 17.230469 10.585938 L 25.082031 1.140625 L 27.648438 -1.085938 L 29.859375 -1.933594 L 32.9375 -1.996094 L 41.976563 0.921875 L 69.054688 11.242188 L 76.71875 13.910156 "/>
<path style="fill:none;stroke-width:8;stroke-linecap:round;stroke-linejoin:round;stroke:rgb(75.686275%,70.980392%,61.568627%);stroke-opacity:1;stroke-miterlimit:10;" d="M 145.132813 155.515625 L 152.125 156.113281 L 174.378906 161.351563 L 179.480469 161.851563 L 185.820313 161.976563 L 192.320313 161.289063 L 207.558594 157.867188 L 227.832031 152.035156 L 238.574219 148.394531 L 254.816406 141.714844 L 264 138.128906 "/>
<path style="fill:none;stroke-width:9;stroke-linecap:round;stroke-linejoin:round;stroke:rgb(75.686275%,70.980392%,61.568627%);stroke-opacity:1;stroke-miterlimit:10;" d="M 82.324219 -10 L 79.191406 -0.207031 L 77.234375 8.609375 L 76.71875 13.910156 L 76.394531 19.964844 L 76.019531 37.816406 L 76.371094 43.964844 L 76.953125 48.542969 L 82.617188 79.003906 L 83.710938 82.894531 L 86.25 88.636719 L 88.394531 92.273438 L 92.144531 97.230469 L 95.875 100.746094 L 101.792969 104.886719 L 115.191406 112.226563 L 123.136719 118.5 L 129.195313 126.058594 L 140.03125 141.964844 L 142.757813 146.765625 L 143.78125 149.179688 L 145.132813 155.515625 "/>
<path style="fill:none;stroke-width:9;stroke-linecap:round;stroke-linejoin:round;stroke:rgb(75.686275%,70.980392%,61.568627%);stroke-opacity:1;stroke-miterlimit:10;" d="M 120.488281 265 L 130.222656 245.292969 L 135.230469 233.625 L 137.210938 227.035156 L 138.84375 217.972656 L 144.25 176.597656 L 145.4375 161.976563 L 145.132813 155.515625 "/>
<path style="fill:none;stroke-width:6;stroke-linecap:round;stroke-linejoin:round;stroke:rgb(100%,100%,100%);stroke-opacity:1;stroke-miterlimit:10;" d="M 31.351563 87.347656 L 27.878906 109.066406 "/>
<path style="fill:none;stroke-width:6;stroke-linecap:round;stroke-linejoin:round;stroke:rgb(100%,100%,100%);stroke-opacity:1;stroke-miterlimit:10;" d="M 76.371094 43.964844 L 73.503906 48.167969 L 71.105469 56.886719 L 67.867188 65.828125 L 60.410156 83.554688 "/>
<path style="fill:none;stroke-width:6;stroke-linecap:round;stroke-linejoin:round;stroke:rgb(100%,100%,100%);stroke-opacity:1;stroke-miterlimit:10;" d="M 60.410156 83.554688 L 58.679688 88.863281 L 48.875 115.910156 L 27.878906 109.066406 "/>
<path style="fill:none;stroke-width:6;stroke-linecap:round;stroke-linejoin:round;stroke:rgb(100%,100%,100%);stroke-opacity:1;stroke-miterlimit:10;" d="M 76.394531 19.964844 L 90.839844 22.066406 L 120.480469 24.167969 L 126.914063 23.949219 L 130.289063 23.542969 L 133.085938 22.410156 L 137.839844 19.429688 "/>
<path style="fill:none;stroke-width:6;stroke-linecap:round;stroke-linejoin:round;stroke:rgb(100%,100%,100%);stroke-opacity:1;stroke-miterlimit:10;" d="M 31.351563 87.347656 L 33.078125 80.917969 L 34.03125 79.222656 L 35.011719 78.410156 L 35.988281 77.96875 L 38.457031 77.6875 L 60.410156 83.554688 L 82.640625 90.171875 L 88.394531 92.273438 "/>
<path style="fill:none;stroke-width:6;stroke-linecap:round;stroke-linejoin:round;stroke:rgb(100%,100%,100%);stroke-opacity:1;stroke-miterlimit:10;" d="M -9 15.8125 L 4.929688 17.519531 L 7.792969 17.109375 L 11.382813 15.605469 L 17.230469 10.585938 L 25.082031 1.140625 L 27.648438 -1.085938 L 29.859375 -1.933594 L 32.9375 -1.996094 L 41.976563 0.921875 L 69.054688 11.242188 L 76.71875 13.910156 "/>
<path style="fill:none;stroke-width:6;stroke-linecap:round;stroke-linejoin:round;stroke:rgb(100%,100%,100%);stroke-opacity:1;stroke-miterlimit:10;" d="M 145.132813 155.515625 L 152.125 156.113281 L 174.378906 161.351563 L 179.480469 161.851563 L 185.820313 161.976563 L 192.320313 161.289063 L 207.558594 157.867188 L 227.832031 152.035156 L 238.574219 148.394531 L 254.816406 141.714844 L 264 138.128906 "/>
<path style="fill:none;stroke-width:7;stroke-linecap:round;stroke-linejoin:round;stroke:rgb(100%,99.215686%,54.509804%);stroke-opacity:1;stroke-miterlimit:10;" d="M 82.324219 -10 L 79.191406 -0.207031 L 77.234375 8.609375 L 76.71875 13.910156 L 76.394531 19.964844 L 76.019531 37.816406 L 76.371094 43.964844 L 76.953125 48.542969 L 82.617188 79.003906 L 83.710938 82.894531 L 86.25 88.636719 L 88.394531 92.273438 L 92.144531 97.230469 L 95.875 100.746094 L 101.792969 104.886719 L 115.191406 112.226563 L 123.136719 118.5 L 129.195313 126.058594 L 140.03125 141.964844 L 142.757813 146.765625 L 143.78125 149.179688 L 145.132813 155.515625 "/>
<path style="fill:none;stroke-width:7;stroke-linecap:round;stroke-linejoin:round;stroke:rgb(100%,99.215686%,54.509804%);stroke-opacity:1;stroke-miterlimit:10;" d="M 120.488281 265 L 130.222656 245.292969 L 135.230469 233.625 L 137.210938 227.035156 L 138.84375 217.972656 L 144.25 176.597656 L 145.4375 161.976563 L 145.132813 155.515625 "/>
<path style="fill:none;stroke-width:3;stroke-linecap:round;stroke-linejoin:round;stroke:rgb(100%,100%,100%);stroke-opacity:1;stroke-miterlimit:10;" d="M 80.316406 43.074219 L 79.160156 43.136719 C 79.347656 42.71875 79.480469 42.328125 79.566406 41.964844 C 79.660156 41.609375 79.695313 41.265625 79.675781 40.933594 C 79.644531 40.347656 79.492188 39.90625 79.222656 39.605469 C 78.960938 39.300781 78.597656 39.167969 78.128906 39.199219 C 77.742188 39.21875 77.457031 39.339844 77.269531 39.558594 C 77.082031 39.777344 76.945313 40.183594 76.863281 40.777344 L 76.753906 41.417969 C 76.628906 42.21875 76.367188 42.816406 75.972656 43.214844 C 75.574219 43.621094 75.023438 43.84375 74.316406 43.886719 C 73.460938 43.9375 72.800781 43.71875 72.332031 43.230469 C 71.863281 42.75 71.601563 42.019531 71.550781 41.042969 C 71.53125 40.667969 71.550781 40.265625 71.613281 39.839844 C 71.683594 39.421875 71.804688 38.984375 71.972656 38.527344 L 73.191406 38.449219 C 72.941406 38.894531 72.757813 39.328125 72.644531 39.746094 C 72.539063 40.171875 72.496094 40.582031 72.519531 40.980469 C 72.550781 41.59375 72.707031 42.050781 72.988281 42.355469 C 73.277344 42.667969 73.667969 42.808594 74.160156 42.777344 C 74.585938 42.753906 74.914063 42.621094 75.144531 42.371094 C 75.371094 42.128906 75.527344 41.734375 75.613281 41.183594 L 75.722656 40.527344 C 75.855469 39.722656 76.097656 39.136719 76.441406 38.761719 C 76.792969 38.386719 77.304688 38.175781 77.972656 38.136719 C 78.753906 38.09375 79.378906 38.300781 79.847656 38.761719 C 80.316406 39.230469 80.574219 39.890625 80.628906 40.746094 C 80.648438 41.121094 80.632813 41.5 80.582031 41.886719 C 80.527344 42.269531 80.441406 42.667969 80.316406 43.074219 Z M 80.570313 45.855469 L 78.726563 46.089844 L 78.976563 48.074219 L 78.132813 48.183594 L 77.882813 46.199219 L 74.351563 46.652344 C 73.820313 46.714844 73.484375 46.816406 73.351563 46.964844 C 73.226563 47.121094 73.1875 47.394531 73.242188 47.792969 L 73.367188 48.792969 L 72.460938 48.902344 L 72.335938 47.902344 C 72.242188 47.160156 72.328125 46.625 72.601563 46.292969 C 72.882813 45.96875 73.421875 45.761719 74.226563 45.667969 L 77.757813 45.214844 L 77.664063 44.527344 L 78.507813 44.417969 L 78.601563 45.105469 L 80.445313 44.871094 Z M 76.441406 52.433594 C 76.304688 51.660156 76.113281 51.144531 75.863281 50.886719 C 75.613281 50.625 75.253906 50.542969 74.785156 50.636719 C 74.398438 50.707031 74.117188 50.875 73.941406 51.136719 C 73.761719 51.394531 73.710938 51.71875 73.785156 52.105469 C 73.878906 52.625 74.164063 53.011719 74.644531 53.261719 C 75.121094 53.511719 75.710938 53.566406 76.410156 53.433594 L 76.628906 53.386719 Z M 77.253906 54.261719 L 73.566406 54.949219 L 73.394531 53.996094 L 74.378906 53.808594 C 73.949219 53.660156 73.605469 53.441406 73.347656 53.152344 C 73.097656 52.859375 72.929688 52.480469 72.847656 52.011719 C 72.730469 51.417969 72.832031 50.910156 73.144531 50.496094 C 73.457031 50.078125 73.917969 49.8125 74.535156 49.699219 C 75.261719 49.5625 75.851563 49.675781 76.300781 50.042969 C 76.746094 50.417969 77.054688 51.035156 77.222656 51.902344 L 77.472656 53.246094 L 77.566406 53.214844 C 78.066406 53.128906 78.417969 52.917969 78.628906 52.574219 C 78.835938 52.230469 78.894531 51.796875 78.800781 51.277344 C 78.738281 50.941406 78.628906 50.625 78.472656 50.324219 C 78.324219 50.03125 78.136719 49.753906 77.910156 49.496094 L 78.894531 49.324219 C 79.113281 49.636719 79.289063 49.949219 79.425781 50.261719 C 79.558594 50.574219 79.652344 50.890625 79.707031 51.214844 C 79.863281 52.046875 79.738281 52.71875 79.332031 53.230469 C 78.925781 53.738281 78.230469 54.082031 77.253906 54.261719 Z M 82.382813 56.304688 L 80.554688 56.648438 L 80.929688 58.617188 L 80.101563 58.773438 L 79.726563 56.804688 L 76.226563 57.460938 C 75.703125 57.554688 75.382813 57.671875 75.257813 57.820313 C 75.132813 57.976563 75.105469 58.257813 75.179688 58.664063 L 75.367188 59.648438 L 74.476563 59.820313 L 74.289063 58.835938 C 74.152344 58.09375 74.210938 57.554688 74.460938 57.210938 C 74.71875 56.875 75.25 56.636719 76.054688 56.492188 L 79.554688 55.835938 L 79.414063 55.148438 L 80.242188 54.992188 L 80.382813 55.679688 L 82.210938 55.335938 Z M 79.109375 65.390625 L 78.609375 65.484375 L 77.796875 61.09375 C 77.066406 61.269531 76.539063 61.566406 76.21875 61.984375 C 75.90625 62.410156 75.804688 62.941406 75.921875 63.578125 C 75.992188 63.941406 76.109375 64.285156 76.265625 64.609375 C 76.429688 64.941406 76.648438 65.257813 76.921875 65.5625 L 75.90625 65.75 C 75.6875 65.4375 75.5 65.101563 75.34375 64.75 C 75.1875 64.40625 75.078125 64.050781 75.015625 63.6875 C 74.835938 62.769531 75 61.984375 75.5 61.328125 C 76 60.671875 76.765625 60.242188 77.796875 60.046875 C 78.847656 59.859375 79.726563 59.964844 80.4375 60.359375 C 81.15625 60.753906 81.597656 61.390625 81.765625 62.265625 C 81.910156 63.046875 81.742188 63.710938 81.265625 64.265625 C 80.796875 64.828125 80.078125 65.203125 79.109375 65.390625 Z M 79.265625 64.375 C 79.835938 64.257813 80.269531 64.023438 80.5625 63.671875 C 80.851563 63.316406 80.957031 62.90625 80.875 62.4375 C 80.769531 61.90625 80.519531 61.507813 80.125 61.25 C 79.726563 61 79.222656 60.90625 78.609375 60.96875 Z M 85.152344 69.410156 L 85.355469 70.457031 L 81.808594 71.113281 L 82.511719 74.925781 L 86.058594 74.269531 L 86.261719 75.300781 L 77.652344 76.894531 L 77.449219 75.863281 L 81.558594 75.097656 L 80.855469 71.285156 L 76.746094 72.050781 L 76.542969 71.003906 Z M 84.496094 77.667969 L 84.699219 78.621094 L 78.292969 80.027344 L 78.089844 79.074219 Z M 86.996094 77.121094 L 87.199219 78.074219 L 85.855469 78.355469 L 85.652344 77.402344 Z M 83.550781 85.035156 C 84.277344 84.761719 84.792969 84.417969 85.097656 84.003906 C 85.398438 83.585938 85.457031 83.132813 85.269531 82.644531 C 85.089844 82.152344 84.746094 81.847656 84.238281 81.722656 C 83.738281 81.597656 83.121094 81.667969 82.394531 81.941406 C 81.652344 82.210938 81.132813 82.554688 80.832031 82.972656 C 80.539063 83.398438 80.480469 83.855469 80.660156 84.347656 C 80.847656 84.835938 81.191406 85.136719 81.691406 85.253906 C 82.191406 85.378906 82.808594 85.304688 83.550781 85.035156 Z M 81.503906 86.847656 C 80.449219 87.230469 79.589844 87.308594 78.925781 87.082031 C 78.261719 86.851563 77.765625 86.304688 77.441406 85.441406 C 77.328125 85.117188 77.246094 84.804688 77.191406 84.503906 C 77.140625 84.199219 77.121094 83.898438 77.128906 83.597656 L 78.097656 83.238281 C 78.046875 83.550781 78.03125 83.851563 78.050781 84.144531 C 78.0625 84.433594 78.121094 84.714844 78.222656 84.988281 C 78.441406 85.582031 78.777344 85.960938 79.238281 86.128906 C 79.695313 86.292969 80.277344 86.246094 80.988281 85.988281 L 81.472656 85.800781 C 81.054688 85.757813 80.699219 85.621094 80.410156 85.394531 C 80.117188 85.164063 79.894531 84.847656 79.738281 84.441406 C 79.488281 83.753906 79.570313 83.097656 79.988281 82.472656 C 80.414063 81.847656 81.101563 81.359375 82.050781 81.003906 C 82.996094 80.652344 83.835938 80.574219 84.566406 80.769531 C 85.292969 80.96875 85.785156 81.410156 86.035156 82.097656 C 86.191406 82.503906 86.230469 82.886719 86.160156 83.253906 C 86.085938 83.617188 85.902344 83.957031 85.613281 84.269531 L 86.550781 83.925781 L 86.894531 84.847656 Z M 87.644531 91.933594 L 84.160156 93.824219 L 83.691406 92.964844 L 87.144531 91.089844 C 87.683594 90.796875 88.039063 90.480469 88.207031 90.136719 C 88.371094 89.800781 88.351563 89.449219 88.144531 89.074219 C 87.894531 88.605469 87.535156 88.332031 87.066406 88.246094 C 86.605469 88.152344 86.089844 88.257813 85.519531 88.558594 L 82.269531 90.324219 L 81.800781 89.464844 L 89.832031 85.121094 L 90.300781 85.980469 L 87.144531 87.683594 C 87.601563 87.695313 87.988281 87.792969 88.300781 87.980469 C 88.621094 88.167969 88.882813 88.445313 89.082031 88.808594 C 89.402344 89.390625 89.445313 89.949219 89.207031 90.480469 C 88.964844 91.019531 88.445313 91.503906 87.644531 91.933594 Z M 90.417969 91.484375 L 91.042969 92.21875 L 87.902344 96.46875 L 92.605469 94.078125 L 93.339844 94.953125 L 90.199219 99.1875 L 94.902344 96.796875 L 95.527344 97.53125 L 89.511719 100.59375 L 88.777344 99.71875 L 92.074219 95.28125 L 87.136719 97.765625 L 86.402344 96.90625 Z M 96.402344 102.402344 C 95.785156 101.925781 95.296875 101.675781 94.933594 101.652344 C 94.578125 101.621094 94.253906 101.800781 93.964844 102.183594 C 93.722656 102.488281 93.625 102.792969 93.667969 103.105469 C 93.707031 103.417969 93.886719 103.691406 94.199219 103.933594 C 94.613281 104.265625 95.082031 104.363281 95.605469 104.230469 C 96.125 104.09375 96.597656 103.746094 97.027344 103.183594 L 97.167969 102.996094 Z M 98.214844 103.230469 L 95.917969 106.199219 L 95.152344 105.605469 L 95.761719 104.808594 C 95.355469 104.984375 94.957031 105.046875 94.574219 104.996094 C 94.1875 104.953125 93.808594 104.785156 93.433594 104.496094 C 92.953125 104.121094 92.6875 103.671875 92.636719 103.152344 C 92.59375 102.644531 92.765625 102.144531 93.152344 101.652344 C 93.597656 101.070313 94.113281 100.769531 94.699219 100.746094 C 95.28125 100.714844 95.921875 100.972656 96.621094 101.511719 L 97.699219 102.339844 L 97.761719 102.246094 C 98.0625 101.851563 98.175781 101.457031 98.105469 101.058594 C 98.042969 100.664063 97.800781 100.304688 97.386719 99.980469 C 97.125 99.785156 96.839844 99.621094 96.527344 99.496094 C 96.214844 99.371094 95.886719 99.289063 95.542969 99.246094 L 96.152344 98.449219 C 96.527344 98.542969 96.871094 98.664063 97.183594 98.808594 C 97.496094 98.957031 97.777344 99.128906 98.027344 99.324219 C 98.703125 99.855469 99.058594 100.445313 99.089844 101.089844 C 99.121094 101.738281 98.828125 102.449219 98.214844 103.230469 Z M 99.71875 109.398438 C 99.070313 109.929688 98.570313 110.226563 98.21875 110.289063 C 97.875 110.351563 97.519531 110.265625 97.15625 110.039063 L 96.5 109.648438 L 96.984375 108.882813 L 97.46875 109.179688 C 97.695313 109.3125 97.910156 109.359375 98.109375 109.320313 C 98.304688 109.277344 98.613281 109.078125 99.03125 108.726563 L 99.453125 108.398438 L 100.796875 101.648438 L 101.65625 102.179688 L 100.546875 107.523438 L 104.8125 104.117188 L 105.703125 104.648438 Z M 111.820313 110.132813 C 112.203125 110.488281 112.429688 110.90625 112.492188 111.382813 C 112.5625 111.851563 112.464844 112.328125 112.195313 112.820313 C 111.777344 113.578125 111.21875 114.039063 110.523438 114.195313 C 109.835938 114.351563 109.0625 114.195313 108.210938 113.726563 C 107.917969 113.570313 107.632813 113.371094 107.351563 113.132813 C 107.078125 112.902344 106.8125 112.632813 106.554688 112.320313 L 107.101563 111.320313 C 107.277344 111.632813 107.496094 111.921875 107.757813 112.179688 C 108.015625 112.4375 108.308594 112.65625 108.632813 112.835938 C 109.214844 113.15625 109.730469 113.273438 110.179688 113.179688 C 110.636719 113.085938 111 112.792969 111.273438 112.304688 C 111.523438 111.859375 111.574219 111.429688 111.429688 111.023438 C 111.28125 110.609375 110.953125 110.257813 110.445313 109.976563 L 109.648438 109.539063 L 110.117188 108.695313 L 110.945313 109.164063 C 111.402344 109.414063 111.808594 109.503906 112.164063 109.429688 C 112.515625 109.359375 112.796875 109.128906 113.007813 108.742188 C 113.226563 108.359375 113.265625 107.988281 113.132813 107.632813 C 112.996094 107.28125 112.695313 106.972656 112.226563 106.710938 C 111.964844 106.578125 111.671875 106.460938 111.351563 106.367188 C 111.039063 106.265625 110.667969 106.179688 110.242188 106.117188 L 110.742188 105.195313 C 111.15625 105.28125 111.53125 105.378906 111.867188 105.492188 C 112.210938 105.609375 112.515625 105.738281 112.789063 105.882813 C 113.496094 106.269531 113.960938 106.757813 114.179688 107.351563 C 114.398438 107.9375 114.339844 108.53125 114.007813 109.132813 C 113.777344 109.5625 113.46875 109.863281 113.085938 110.039063 C 112.710938 110.21875 112.289063 110.25 111.820313 110.132813 Z M 113.507813 115.570313 L 116.507813 117.757813 L 115.914063 118.570313 L 111.882813 115.617188 L 112.476563 114.804688 C 113.070313 114.679688 113.882813 114.507813 114.914063 114.289063 C 115.945313 114.0625 116.59375 113.910156 116.867188 113.835938 C 117.386719 113.691406 117.789063 113.539063 118.070313 113.382813 C 118.359375 113.226563 118.585938 113.035156 118.742188 112.804688 C 119.023438 112.429688 119.132813 112.039063 119.070313 111.632813 C 119.007813 111.226563 118.789063 110.882813 118.414063 110.601563 C 118.140625 110.40625 117.820313 110.25 117.445313 110.132813 C 117.078125 110.007813 116.648438 109.929688 116.148438 109.898438 L 116.851563 108.929688 C 117.308594 109.035156 117.714844 109.160156 118.070313 109.304688 C 118.433594 109.441406 118.742188 109.597656 118.992188 109.773438 C 119.648438 110.265625 120.039063 110.835938 120.164063 111.492188 C 120.289063 112.140625 120.121094 112.769531 119.664063 113.382813 C 119.453125 113.675781 119.203125 113.914063 118.914063 114.101563 C 118.632813 114.289063 118.230469 114.46875 117.710938 114.632813 C 117.5625 114.664063 117.140625 114.757813 116.445313 114.914063 C 115.746094 115.070313 114.765625 115.289063 113.507813 115.570313 Z M 113.507813 115.570313 "/>
<path style=" stroke:none;fill-rule:evenodd;fill:rgb(20%,20%,20%);fill-opacity:1;" d="M 80.316406 43.074219 L 79.160156 43.136719 C 79.347656 42.71875 79.480469 42.328125 79.566406 41.964844 C 79.660156 41.609375 79.695313 41.265625 79.675781 40.933594 C 79.644531 40.347656 79.492188 39.90625 79.222656 39.605469 C 78.960938 39.300781 78.597656 39.167969 78.128906 39.199219 C 77.742188 39.21875 77.457031 39.339844 77.269531 39.558594 C 77.082031 39.777344 76.945313 40.183594 76.863281 40.777344 L 76.753906 41.417969 C 76.628906 42.21875 76.367188 42.816406 75.972656 43.214844 C 75.574219 43.621094 75.023438 43.84375 74.316406 43.886719 C 73.460938 43.9375 72.800781 43.71875 72.332031 43.230469 C 71.863281 42.75 71.601563 42.019531 71.550781 41.042969 C 71.53125 40.667969 71.550781 40.265625 71.613281 39.839844 C 71.683594 39.421875 71.804688 38.984375 71.972656 38.527344 L 73.191406 38.449219 C 72.941406 38.894531 72.757813 39.328125 72.644531 39.746094 C 72.539063 40.171875 72.496094 40.582031 72.519531 40.980469 C 72.550781 41.59375 72.707031 42.050781 72.988281 42.355469 C 73.277344 42.667969 73.667969 42.808594 74.160156 42.777344 C 74.585938 42.753906 74.914063 42.621094 75.144531 42.371094 C 75.371094 42.128906 75.527344 41.734375 75.613281 41.183594 L 75.722656 40.527344 C 75.855469 39.722656 76.097656 39.136719 76.441406 38.761719 C 76.792969 38.386719 77.304688 38.175781 77.972656 38.136719 C 78.753906 38.09375 79.378906 38.300781 79.847656 38.761719 C 80.316406 39.230469 80.574219 39.890625 80.628906 40.746094 C 80.648438 41.121094 80.632813 41.5 80.582031 41.886719 C 80.527344 42.269531 80.441406 42.667969 80.316406 43.074219 Z M 80.570313 45.855469 L 78.726563 46.089844 L 78.976563 48.074219 L 78.132813 48.183594 L 77.882813 46.199219 L 74.351563 46.652344 C 73.820313 46.714844 73.484375 46.816406 73.351563 46.964844 C 73.226563 47.121094 73.1875 47.394531 73.242188 47.792969 L 73.367188 48.792969 L 72.460938 48.902344 L 72.335938 47.902344 C 72.242188 47.160156 72.328125 46.625 72.601563 46.292969 C 72.882813 45.96875 73.421875 45.761719 74.226563 45.667969 L 77.757813 45.214844 L 77.664063 44.527344 L 78.507813 44.417969 L 78.601563 45.105469 L 80.445313 44.871094 Z M 76.441406 52.433594 C 76.304688 51.660156 76.113281 51.144531 75.863281 50.886719 C 75.613281 50.625 75.253906 50.542969 74.785156 50.636719 C 74.398438 50.707031 74.117188 50.875 73.941406 51.136719 C 73.761719 51.394531 73.710938 51.71875 73.785156 52.105469 C 73.878906 52.625 74.164063 53.011719 74.644531 53.261719 C 75.121094 53.511719 75.710938 53.566406 76.410156 53.433594 L 76.628906 53.386719 Z M 77.253906 54.261719 L 73.566406 54.949219 L 73.394531 53.996094 L 74.378906 53.808594 C 73.949219 53.660156 73.605469 53.441406 73.347656 53.152344 C 73.097656 52.859375 72.929688 52.480469 72.847656 52.011719 C 72.730469 51.417969 72.832031 50.910156 73.144531 50.496094 C 73.457031 50.078125 73.917969 49.8125 74.535156 49.699219 C 75.261719 49.5625 75.851563 49.675781 76.300781 50.042969 C 76.746094 50.417969 77.054688 51.035156 77.222656 51.902344 L 77.472656 53.246094 L 77.566406 53.214844 C 78.066406 53.128906 78.417969 52.917969 78.628906 52.574219 C 78.835938 52.230469 78.894531 51.796875 78.800781 51.277344 C 78.738281 50.941406 78.628906 50.625 78.472656 50.324219 C 78.324219 50.03125 78.136719 49.753906 77.910156 49.496094 L 78.894531 49.324219 C 79.113281 49.636719 79.289063 49.949219 79.425781 50.261719 C 79.558594 50.574219 79.652344 50.890625 79.707031 51.214844 C 79.863281 52.046875 79.738281 52.71875 79.332031 53.230469 C 78.925781 53.738281 78.230469 54.082031 77.253906 54.261719 Z M 82.382813 56.304688 L 80.554688 56.648438 L 80.929688 58.617188 L 80.101563 58.773438 L 79.726563 56.804688 L 76.226563 57.460938 C 75.703125 57.554688 75.382813 57.671875 75.257813 57.820313 C 75.132813 57.976563 75.105469 58.257813 75.179688 58.664063 L 75.367188 59.648438 L 74.476563 59.820313 L 74.289063 58.835938 C 74.152344 58.09375 74.210938 57.554688 74.460938 57.210938 C 74.71875 56.875 75.25 56.636719 76.054688 56.492188 L 79.554688 55.835938 L 79.414063 55.148438 L 80.242188 54.992188 L 80.382813 55.679688 L 82.210938 55.335938 Z M 79.109375 65.390625 L 78.609375 65.484375 L 77.796875 61.09375 C 77.066406 61.269531 76.539063 61.566406 76.21875 61.984375 C 75.90625 62.410156 75.804688 62.941406 75.921875 63.578125 C 75.992188 63.941406 76.109375 64.285156 76.265625 64.609375 C 76.429688 64.941406 76.648438 65.257813 76.921875 65.5625 L 75.90625 65.75 C 75.6875 65.4375 75.5 65.101563 75.34375 64.75 C 75.1875 64.40625 75.078125 64.050781 75.015625 63.6875 C 74.835938 62.769531 75 61.984375 75.5 61.328125 C 76 60.671875 76.765625 60.242188 77.796875 60.046875 C 78.847656 59.859375 79.726563 59.964844 80.4375 60.359375 C 81.15625 60.753906 81.597656 61.390625 81.765625 62.265625 C 81.910156 63.046875 81.742188 63.710938 81.265625 64.265625 C 80.796875 64.828125 80.078125 65.203125 79.109375 65.390625 Z M 79.265625 64.375 C 79.835938 64.257813 80.269531 64.023438 80.5625 63.671875 C 80.851563 63.316406 80.957031 62.90625 80.875 62.4375 C 80.769531 61.90625 80.519531 61.507813 80.125 61.25 C 79.726563 61 79.222656 60.90625 78.609375 60.96875 Z M 85.152344 69.410156 L 85.355469 70.457031 L 81.808594 71.113281 L 82.511719 74.925781 L 86.058594 74.269531 L 86.261719 75.300781 L 77.652344 76.894531 L 77.449219 75.863281 L 81.558594 75.097656 L 80.855469 71.285156 L 76.746094 72.050781 L 76.542969 71.003906 Z M 84.496094 77.667969 L 84.699219 78.621094 L 78.292969 80.027344 L 78.089844 79.074219 Z M 86.996094 77.121094 L 87.199219 78.074219 L 85.855469 78.355469 L 85.652344 77.402344 Z M 83.550781 85.035156 C 84.277344 84.761719 84.792969 84.417969 85.097656 84.003906 C 85.398438 83.585938 85.457031 83.132813 85.269531 82.644531 C 85.089844 82.152344 84.746094 81.847656 84.238281 81.722656 C 83.738281 81.597656 83.121094 81.667969 82.394531 81.941406 C 81.652344 82.210938 81.132813 82.554688 80.832031 82.972656 C 80.539063 83.398438 80.480469 83.855469 80.660156 84.347656 C 80.847656 84.835938 81.191406 85.136719 81.691406 85.253906 C 82.191406 85.378906 82.808594 85.304688 83.550781 85.035156 Z M 81.503906 86.847656 C 80.449219 87.230469 79.589844 87.308594 78.925781 87.082031 C 78.261719 86.851563 77.765625 86.304688 77.441406 85.441406 C 77.328125 85.117188 77.246094 84.804688 77.191406 84.503906 C 77.140625 84.199219 77.121094 83.898438 77.128906 83.597656 L 78.097656 83.238281 C 78.046875 83.550781 78.03125 83.851563 78.050781 84.144531 C 78.0625 84.433594 78.121094 84.714844 78.222656 84.988281 C 78.441406 85.582031 78.777344 85.960938 79.238281 86.128906 C 79.695313 86.292969 80.277344 86.246094 80.988281 85.988281 L 81.472656 85.800781 C 81.054688 85.757813 80.699219 85.621094 80.410156 85.394531 C 80.117188 85.164063 79.894531 84.847656 79.738281 84.441406 C 79.488281 83.753906 79.570313 83.097656 79.988281 82.472656 C 80.414063 81.847656 81.101563 81.359375 82.050781 81.003906 C 82.996094 80.652344 83.835938 80.574219 84.566406 80.769531 C 85.292969 80.96875 85.785156 81.410156 86.035156 82.097656 C 86.191406 82.503906 86.230469 82.886719 86.160156 83.253906 C 86.085938 83.617188 85.902344 83.957031 85.613281 84.269531 L 86.550781 83.925781 L 86.894531 84.847656 Z M 87.644531 91.933594 L 84.160156 93.824219 L 83.691406 92.964844 L 87.144531 91.089844 C 87.683594 90.796875 88.039063 90.480469 88.207031 90.136719 C 88.371094 89.800781 88.351563 89.449219 88.144531 89.074219 C 87.894531 88.605469 87.535156 88.332031 87.066406 88.246094 C 86.605469 88.152344 86.089844 88.257813 85.519531 88.558594 L 82.269531 90.324219 L 81.800781 89.464844 L 89.832031 85.121094 L 90.300781 85.980469 L 87.144531 87.683594 C 87.601563 87.695313 87.988281 87.792969 88.300781 87.980469 C 88.621094 88.167969 88.882813 88.445313 89.082031 88.808594 C 89.402344 89.390625 89.445313 89.949219 89.207031 90.480469 C 88.964844 91.019531 88.445313 91.503906 87.644531 91.933594 Z M 90.417969 91.484375 L 91.042969 92.21875 L 87.902344 96.46875 L 92.605469 94.078125 L 93.339844 94.953125 L 90.199219 99.1875 L 94.902344 96.796875 L 95.527344 97.53125 L 89.511719 100.59375 L 88.777344 99.71875 L 92.074219 95.28125 L 87.136719 97.765625 L 86.402344 96.90625 Z M 96.402344 102.402344 C 95.785156 101.925781 95.296875 101.675781 94.933594 101.652344 C 94.578125 101.621094 94.253906 101.800781 93.964844 102.183594 C 93.722656 102.488281 93.625 102.792969 93.667969 103.105469 C 93.707031 103.417969 93.886719 103.691406 94.199219 103.933594 C 94.613281 104.265625 95.082031 104.363281 95.605469 104.230469 C 96.125 104.09375 96.597656 103.746094 97.027344 103.183594 L 97.167969 102.996094 Z M 98.214844 103.230469 L 95.917969 106.199219 L 95.152344 105.605469 L 95.761719 104.808594 C 95.355469 104.984375 94.957031 105.046875 94.574219 104.996094 C 94.1875 104.953125 93.808594 104.785156 93.433594 104.496094 C 92.953125 104.121094 92.6875 103.671875 92.636719 103.152344 C 92.59375 102.644531 92.765625 102.144531 93.152344 101.652344 C 93.597656 101.070313 94.113281 100.769531 94.699219 100.746094 C 95.28125 100.714844 95.921875 100.972656 96.621094 101.511719 L 97.699219 102.339844 L 97.761719 102.246094 C 98.0625 101.851563 98.175781 101.457031 98.105469 101.058594 C 98.042969 100.664063 97.800781 100.304688 97.386719 99.980469 C 97.125 99.785156 96.839844 99.621094 96.527344 99.496094 C 96.214844 99.371094 95.886719 99.289063 95.542969 99.246094 L 96.152344 98.449219 C 96.527344 98.542969 96.871094 98.664063 97.183594 98.808594 C 97.496094 98.957031 97.777344 99.128906 98.027344 99.324219 C 98.703125 99.855469 99.058594 100.445313 99.089844 101.089844 C 99.121094 101.738281 98.828125 102.449219 98.214844 103.230469 Z M 99.71875 109.398438 C 99.070313 109.929688 98.570313 110.226563 98.21875 110.289063 C 97.875 110.351563 97.519531 110.265625 97.15625 110.039063 L 96.5 109.648438 L 96.984375 108.882813 L 97.46875 109.179688 C 97.695313 109.3125 97.910156 109.359375 98.109375 109.320313 C 98.304688 109.277344 98.613281 109.078125 99.03125 108.726563 L 99.453125 108.398438 L 100.796875 101.648438 L 101.65625 102.179688 L 100.546875 107.523438 L 104.8125 104.117188 L 105.703125 104.648438 Z M 111.820313 110.132813 C 112.203125 110.488281 112.429688 110.90625 112.492188 111.382813 C 112.5625 111.851563 112.464844 112.328125 112.195313 112.820313 C 111.777344 113.578125 111.21875 114.039063 110.523438 114.195313 C 109.835938 114.351563 109.0625 114.195313 108.210938 113.726563 C 107.917969 113.570313 107.632813 113.371094 107.351563 113.132813 C 107.078125 112.902344 106.8125 112.632813 106.554688 112.320313 L 107.101563 111.320313 C 107.277344 111.632813 107.496094 111.921875 107.757813 112.179688 C 108.015625 112.4375 108.308594 112.65625 108.632813 112.835938 C 109.214844 113.15625 109.730469 113.273438 110.179688 113.179688 C 110.636719 113.085938 111 112.792969 111.273438 112.304688 C 111.523438 111.859375 111.574219 111.429688 111.429688 111.023438 C 111.28125 110.609375 110.953125 110.257813 110.445313 109.976563 L 109.648438 109.539063 L 110.117188 108.695313 L 110.945313 109.164063 C 111.402344 109.414063 111.808594 109.503906 112.164063 109.429688 C 112.515625 109.359375 112.796875 109.128906 113.007813 108.742188 C 113.226563 108.359375 113.265625 107.988281 113.132813 107.632813 C 112.996094 107.28125 112.695313 106.972656 112.226563 106.710938 C 111.964844 106.578125 111.671875 106.460938 111.351563 106.367188 C 111.039063 106.265625 110.667969 106.179688 110.242188 106.117188 L 110.742188 105.195313 C 111.15625 105.28125 111.53125 105.378906 111.867188 105.492188 C 112.210938 105.609375 112.515625 105.738281 112.789063 105.882813 C 113.496094 106.269531 113.960938 106.757813 114.179688 107.351563 C 114.398438 107.9375 114.339844 108.53125 114.007813 109.132813 C 113.777344 109.5625 113.46875 109.863281 113.085938 110.039063 C 112.710938 110.21875 112.289063 110.25 111.820313 110.132813 Z M 113.507813 115.570313 L 116.507813 117.757813 L 115.914063 118.570313 L 111.882813 115.617188 L 112.476563 114.804688 C 113.070313 114.679688 113.882813 114.507813 114.914063 114.289063 C 115.945313 114.0625 116.59375 113.910156 116.867188 113.835938 C 117.386719 113.691406 117.789063 113.539063 118.070313 113.382813 C 118.359375 113.226563 118.585938 113.035156 118.742188 112.804688 C 119.023438 112.429688 119.132813 112.039063 119.070313 111.632813 C 119.007813 111.226563 118.789063 110.882813 118.414063 110.601563 C 118.140625 110.40625 117.820313 110.25 117.445313 110.132813 C 117.078125 110.007813 116.648438 109.929688 116.148438 109.898438 L 116.851563 108.929688 C 117.308594 109.035156 117.714844 109.160156 118.070313 109.304688 C 118.433594 109.441406 118.742188 109.597656 118.992188 109.773438 C 119.648438 110.265625 120.039063 110.835938 120.164063 111.492188 C 120.289063 112.140625 120.121094 112.769531 119.664063 113.382813 C 119.453125 113.675781 119.203125 113.914063 118.914063 114.101563 C 118.632813 114.289063 118.230469 114.46875 117.710938 114.632813 C 117.5625 114.664063 117.140625 114.757813 116.445313 114.914063 C 115.746094 115.070313 114.765625 115.289063 113.507813 115.570313 Z M 113.507813 115.570313 "/>
</g>
</svg>

