<?xml version="1.0" encoding="UTF-8"?>
<svg xmlns="http://www.w3.org/2000/svg" xmlns:xlink="http://www.w3.org/1999/xlink" width="256pt" height="256pt" viewBox="0 0 256 256" version="1.1">
<g id="surface2">
<rect x="0" y="0" width="256" height="256" style="fill:rgb(94.901961%,93.72549%,91.372549%);fill-opacity:1;stroke:none;"/>
<path style=" stroke:none;fill-rule:evenodd;fill:rgb(60%,70.196078%,80%);fill-opacity:1;" d="M -4 -4 L 259 -4 L 259 259 L 259 -4 Z M -4 -4 "/>
<path style="fill:none;stroke-width:1;stroke-linecap:round;stroke-linejoin:round;stroke:rgb(70.196078%,77.647059%,83.137255%);stroke-opacity:1;stroke-miterlimit:10;" d="M -4 -4 L 259 -4 L 259 259 L 259 -4 L -4 -4 "/>
<path style="fill:none;stroke-width:8;stroke-linecap:round;stroke-linejoin:round;stroke:rgb(75.686275%,70.980392%,61.568627%);stroke-opacity:1;stroke-miterlimit:10;" d="M 264 122.953125 L 227.777344 132.746094 L 211.453125 143.070313 L 179.652344 168.175781 L 170.117188 171.066406 L 148.222656 170.9375 L 137.648438 173.15625 L 90.789063 206.066406 L 61.664063 212.800781 L 48.546875 211.980469 L 42.773438 206.171875 L 40.589844 190.398438 L 35.316406 183.625 L 16.023438 174.34375 L -1.574219 153.730469 L -9 146.976563 "/>
<path style="fill:none;stroke-width:6;stroke-linecap:round;stroke-linejoin:round;stroke:rgb(100%,100%,100%);stroke-opacity:1;stroke-miterlimit:10;" d="M 264 122.953125 L 227.777344 132.746094 L 211.453125 143.070313 L 179.652344 168.175781 L 170.117188 171.066406 L 148.222656 170.9375 L 137.648438 173.15625 L 90.789063 206.066406 L 61.664063 212.800781 L 48.546875 211.980469 L 42.773438 206.171875 L 40.589844 190.398438 L 35.316406 183.625 L 16.023438 174.34375 L -1.574219 153.730469 L -9 146.976563 "/>
<path style="fill:none;stroke-width:3;stroke-linecap:round;stroke-linejoin:round;stroke:rgb(100%,100%,100%);stroke-opacity:1;stroke-miterlimit:10;" d="M 68.960938 214.046875 L 68.460938 211.9375 L 66.914063 212.296875 L 66.726563 211.4375 L 69.226563 210.859375 L 69.992188 214.203125 C 69.699219 214.578125 69.34375 214.898438 68.929688 215.15625 C 68.523438 215.40625 68.0625 215.589844 67.554688 215.703125 C 66.460938 215.953125 65.523438 215.792969 64.742188 215.21875 C 63.960938 214.648438 63.421875 213.730469 63.117188 212.46875 C 62.828125 211.1875 62.910156 210.117188 63.367188 209.25 C 63.8125 208.386719 64.585938 207.828125 65.679688 207.578125 C 66.136719 207.476563 66.589844 207.445313 67.039063 207.484375 C 67.484375 207.515625 67.90625 207.609375 68.304688 207.765625 L 68.570313 208.890625 C 68.140625 208.652344 67.710938 208.496094 67.273438 208.421875 C 66.835938 208.339844 66.398438 208.351563 65.960938 208.453125 C 65.105469 208.652344 64.523438 209.070313 64.210938 209.703125 C 63.898438 210.328125 63.859375 211.171875 64.101563 212.234375 C 64.351563 213.289063 64.75 214.03125 65.304688 214.46875 C 65.867188 214.898438 66.574219 215.011719 67.429688 214.8125 C 67.773438 214.730469 68.0625 214.632813 68.304688 214.515625 C 68.554688 214.390625 68.773438 214.234375 68.960938 214.046875 Z M 73.5625 211.039063 C 72.863281 211.207031 72.398438 211.414063 72.171875 211.664063 C 71.953125 211.90625 71.894531 212.238281 72 212.664063 C 72.070313 213 72.234375 213.242188 72.484375 213.398438 C 72.734375 213.554688 73.03125 213.59375 73.375 213.507813 C 73.851563 213.394531 74.191406 213.113281 74.390625 212.664063 C 74.597656 212.21875 74.632813 211.6875 74.5 211.070313 L 74.4375 210.835938 Z M 75.203125 210.242188 L 75.984375 213.585938 L 75.125 213.789063 L 74.921875 212.898438 C 74.796875 213.316406 74.601563 213.644531 74.34375 213.882813 C 74.09375 214.113281 73.753906 214.273438 73.328125 214.367188 C 72.785156 214.492188 72.316406 214.425781 71.921875 214.164063 C 71.523438 213.894531 71.265625 213.476563 71.140625 212.914063 C 70.984375 212.257813 71.0625 211.71875 71.375 211.289063 C 71.695313 210.863281 72.253906 210.554688 73.046875 210.367188 L 74.265625 210.085938 L 74.25 209.992188 C 74.144531 209.554688 73.929688 209.25 73.609375 209.070313 C 73.285156 208.882813 72.890625 208.847656 72.421875 208.960938 C 72.117188 209.023438 71.832031 209.128906 71.5625 209.273438 C 71.300781 209.421875 71.050781 209.609375 70.8125 209.835938 L 70.609375 208.945313 C 70.914063 208.738281 71.195313 208.566406 71.46875 208.429688 C 71.75 208.296875 72.03125 208.191406 72.3125 208.117188 C 73.070313 207.941406 73.691406 208.03125 74.171875 208.382813 C 74.660156 208.726563 75.003906 209.347656 75.203125 210.242188 Z M 79.6875 207.503906 C 79.570313 207.472656 79.453125 207.457031 79.328125 207.457031 C 79.203125 207.457031 79.070313 207.472656 78.9375 207.503906 C 78.445313 207.621094 78.113281 207.886719 77.9375 208.300781 C 77.757813 208.707031 77.742188 209.238281 77.890625 209.894531 L 78.609375 212.988281 L 77.734375 213.191406 L 76.375 207.332031 L 77.25 207.128906 L 77.46875 208.035156 C 77.570313 207.640625 77.742188 207.324219 77.984375 207.082031 C 78.234375 206.84375 78.566406 206.675781 78.984375 206.582031 C 79.046875 206.574219 79.117188 206.5625 79.203125 206.550781 C 79.285156 206.53125 79.363281 206.519531 79.4375 206.519531 Z M 85.300781 207.726563 L 86.113281 211.257813 L 85.253906 211.445313 L 84.441406 207.945313 C 84.316406 207.382813 84.121094 206.992188 83.863281 206.773438 C 83.601563 206.546875 83.277344 206.476563 82.894531 206.570313 C 82.425781 206.675781 82.089844 206.925781 81.894531 207.320313 C 81.695313 207.707031 81.664063 208.1875 81.800781 208.757813 L 82.566406 212.070313 L 81.691406 212.273438 L 80.332031 206.414063 L 81.207031 206.210938 L 81.425781 207.117188 C 81.550781 206.722656 81.726563 206.40625 81.957031 206.164063 C 82.195313 205.925781 82.503906 205.765625 82.878906 205.679688 C 83.480469 205.546875 83.988281 205.648438 84.394531 205.992188 C 84.808594 206.335938 85.113281 206.914063 85.300781 207.726563 Z M 91.574219 206.21875 L 91.714844 206.6875 L 87.808594 207.90625 C 88.058594 208.542969 88.390625 208.980469 88.808594 209.21875 C 89.234375 209.460938 89.722656 209.492188 90.277344 209.3125 C 90.609375 209.210938 90.910156 209.070313 91.183594 208.890625 C 91.453125 208.703125 91.714844 208.480469 91.964844 208.21875 L 92.246094 209.09375 C 91.996094 209.335938 91.71875 209.542969 91.417969 209.71875 C 91.125 209.898438 90.8125 210.039063 90.480469 210.140625 C 89.65625 210.402344 88.917969 210.339844 88.261719 209.953125 C 87.613281 209.570313 87.152344 208.921875 86.871094 208.015625 C 86.582031 207.078125 86.574219 206.261719 86.855469 205.5625 C 87.136719 204.867188 87.667969 204.398438 88.449219 204.15625 C 89.136719 203.9375 89.761719 204.015625 90.324219 204.390625 C 90.886719 204.757813 91.300781 205.367188 91.574219 206.21875 Z M 90.621094 206.203125 C 90.453125 205.695313 90.199219 205.324219 89.855469 205.09375 C 89.511719 204.867188 89.128906 204.820313 88.714844 204.953125 C 88.234375 205.101563 87.894531 205.367188 87.699219 205.75 C 87.5 206.136719 87.46875 206.601563 87.605469 207.140625 Z M 91.128906 201.285156 L 92.113281 202.675781 L 93.613281 201.628906 L 94.050781 202.253906 L 92.550781 203.300781 L 94.425781 205.972656 C 94.707031 206.378906 94.933594 206.609375 95.113281 206.660156 C 95.300781 206.703125 95.542969 206.613281 95.847656 206.394531 L 96.597656 205.878906 L 97.066406 206.550781 L 96.316406 207.066406 C 95.753906 207.464844 95.277344 207.621094 94.894531 207.535156 C 94.519531 207.453125 94.117188 207.105469 93.691406 206.488281 L 91.816406 203.816406 L 91.285156 204.191406 L 90.847656 203.566406 L 91.378906 203.191406 L 90.394531 201.800781 Z M 96.011719 197.484375 L 96.808594 196.921875 L 100.902344 202.75 L 103.777344 200.734375 L 104.292969 201.46875 L 100.621094 204.046875 Z M 105.371094 197.003906 C 104.777344 197.421875 104.421875 197.785156 104.308594 198.097656 C 104.195313 198.410156 104.261719 198.746094 104.511719 199.097656 C 104.707031 199.378906 104.949219 199.546875 105.230469 199.597656 C 105.519531 199.652344 105.8125 199.578125 106.105469 199.378906 C 106.519531 199.089844 106.734375 198.699219 106.746094 198.207031 C 106.765625 197.71875 106.59375 197.21875 106.230469 196.707031 L 106.089844 196.503906 Z M 106.605469 195.660156 L 108.574219 198.472656 L 107.839844 198.988281 L 107.324219 198.253906 C 107.363281 198.660156 107.308594 199.019531 107.152344 199.332031 C 107.003906 199.644531 106.753906 199.925781 106.402344 200.175781 C 105.953125 200.5 105.496094 200.613281 105.027344 200.519531 C 104.558594 200.425781 104.160156 200.140625 103.824219 199.660156 C 103.429688 199.109375 103.300781 198.578125 103.433594 198.066406 C 103.570313 197.546875 103.972656 197.050781 104.636719 196.582031 L 105.652344 195.878906 L 105.605469 195.800781 C 105.34375 195.425781 105.03125 195.214844 104.667969 195.160156 C 104.304688 195.109375 103.917969 195.222656 103.511719 195.503906 C 103.261719 195.683594 103.042969 195.890625 102.855469 196.128906 C 102.660156 196.371094 102.496094 196.636719 102.371094 196.925781 L 101.855469 196.191406 C 102.042969 195.871094 102.242188 195.597656 102.449219 195.378906 C 102.660156 195.152344 102.882813 194.953125 103.121094 194.785156 C 103.757813 194.339844 104.359375 194.1875 104.933594 194.332031 C 105.515625 194.46875 106.074219 194.910156 106.605469 195.660156 Z M 105.238281 190.597656 L 105.972656 190.082031 L 108.800781 194.128906 L 109.488281 190.472656 L 110.425781 189.816406 L 109.675781 193.769531 L 113.972656 194.675781 L 113.019531 195.347656 L 109.082031 194.519531 L 110.769531 196.925781 L 110.035156 197.441406 Z M 116.664063 188.800781 L 116.945313 189.191406 L 113.601563 191.550781 C 114.027344 192.082031 114.480469 192.402344 114.960938 192.503906 C 115.4375 192.597656 115.914063 192.480469 116.382813 192.144531 C 116.664063 191.949219 116.902344 191.71875 117.101563 191.457031 C 117.308594 191.199219 117.5 190.902344 117.679688 190.566406 L 118.210938 191.332031 C 118.023438 191.644531 117.8125 191.925781 117.585938 192.175781 C 117.367188 192.425781 117.117188 192.652344 116.835938 192.847656 C 116.125 193.347656 115.402344 193.519531 114.664063 193.363281 C 113.9375 193.199219 113.296875 192.71875 112.742188 191.925781 C 112.179688 191.125 111.929688 190.355469 111.992188 189.613281 C 112.054688 188.863281 112.421875 188.253906 113.085938 187.785156 C 113.679688 187.371094 114.292969 187.25 114.929688 187.425781 C 115.574219 187.605469 116.152344 188.0625 116.664063 188.800781 Z M 115.789063 189.066406 C 115.464844 188.640625 115.101563 188.371094 114.695313 188.253906 C 114.296875 188.128906 113.925781 188.199219 113.570313 188.457031 C 113.15625 188.738281 112.914063 189.097656 112.851563 189.535156 C 112.78125 189.964844 112.894531 190.417969 113.195313 190.894531 Z M 122.96875 183.742188 C 123.1875 183.691406 123.445313 183.710938 123.75 183.804688 C 124.0625 183.898438 124.441406 184.078125 124.890625 184.335938 L 126.9375 185.554688 L 126.09375 186.164063 L 124.140625 185.007813 C 123.640625 184.707031 123.242188 184.550781 122.953125 184.539063 C 122.671875 184.519531 122.375 184.617188 122.0625 184.835938 L 121.1875 185.445313 L 123.140625 188.226563 L 122.34375 188.789063 L 117.734375 182.226563 L 119.53125 180.960938 C 120.21875 180.484375 120.839844 180.285156 121.390625 180.367188 C 121.929688 180.453125 122.425781 180.8125 122.875 181.445313 C 123.164063 181.863281 123.320313 182.269531 123.34375 182.664063 C 123.363281 183.050781 123.238281 183.410156 122.96875 183.742188 Z M 119.046875 182.398438 L 120.6875 184.726563 L 121.6875 184.023438 C 122.082031 183.753906 122.304688 183.453125 122.359375 183.117188 C 122.410156 182.773438 122.300781 182.410156 122.03125 182.023438 C 121.757813 181.640625 121.464844 181.421875 121.140625 181.367188 C 120.808594 181.316406 120.445313 181.425781 120.046875 181.695313 Z M 126.597656 179.292969 C 126.203125 179.574219 126.015625 179.964844 126.035156 180.464844 C 126.046875 180.957031 126.261719 181.496094 126.675781 182.089844 C 127.082031 182.675781 127.511719 183.058594 127.972656 183.246094 C 128.441406 183.425781 128.871094 183.371094 129.269531 183.089844 C 129.652344 182.820313 129.839844 182.441406 129.832031 181.949219 C 129.820313 181.449219 129.613281 180.910156 129.207031 180.324219 C 128.789063 179.730469 128.347656 179.347656 127.878906 179.167969 C 127.410156 178.980469 126.984375 179.023438 126.597656 179.292969 Z M 126.128906 178.621094 C 126.753906 178.183594 127.402344 178.066406 128.082031 178.261719 C 128.769531 178.460938 129.398438 178.964844 129.972656 179.777344 C 130.535156 180.582031 130.792969 181.339844 130.753906 182.058594 C 130.710938 182.769531 130.378906 183.339844 129.753906 183.777344 C 129.105469 184.238281 128.445313 184.363281 127.769531 184.152344 C 127.09375 183.945313 126.472656 183.441406 125.910156 182.636719 C 125.339844 181.824219 125.074219 181.070313 125.113281 180.371094 C 125.144531 179.664063 125.484375 179.082031 126.128906 178.621094 Z M 133.152344 177.488281 C 132.558594 177.90625 132.203125 178.269531 132.089844 178.582031 C 131.976563 178.894531 132.042969 179.230469 132.292969 179.582031 C 132.488281 179.863281 132.730469 180.03125 133.011719 180.082031 C 133.300781 180.136719 133.59375 180.0625 133.886719 179.863281 C 134.300781 179.574219 134.515625 179.183594 134.527344 178.691406 C 134.546875 178.203125 134.375 177.703125 134.011719 177.191406 L 133.871094 176.988281 Z M 134.386719 176.144531 L 136.355469 178.957031 L 135.621094 179.472656 L 135.105469 178.738281 C 135.144531 179.144531 135.089844 179.503906 134.933594 179.816406 C 134.785156 180.128906 134.535156 180.410156 134.183594 180.660156 C 133.734375 180.984375 133.277344 181.097656 132.808594 181.003906 C 132.339844 180.910156 131.941406 180.625 131.605469 180.144531 C 131.210938 179.59375 131.082031 179.0625 131.214844 178.550781 C 131.351563 178.03125 131.753906 177.535156 132.417969 177.066406 L 133.433594 176.363281 L 133.386719 176.285156 C 133.125 175.910156 132.8125 175.699219 132.449219 175.644531 C 132.085938 175.59375 131.699219 175.707031 131.292969 175.988281 C 131.042969 176.167969 130.824219 176.375 130.636719 176.613281 C 130.441406 176.855469 130.277344 177.121094 130.152344 177.410156 L 129.636719 176.675781 C 129.824219 176.355469 130.023438 176.082031 130.230469 175.863281 C 130.441406 175.636719 130.664063 175.4375 130.902344 175.269531 C 131.539063 174.824219 132.140625 174.671875 132.714844 174.816406 C 133.296875 174.953125 133.855469 175.394531 134.386719 176.144531 Z M 138.398438 172.265625 L 137.039063 169.3125 L 137.851563 168.9375 L 141.351563 176.53125 L 140.539063 176.90625 L 140.164063 176.078125 C 140.140625 176.496094 140.039063 176.84375 139.851563 177.125 C 139.664063 177.398438 139.390625 177.617188 139.039063 177.78125 C 138.433594 178.054688 137.824219 178.011719 137.210938 177.65625 C 136.605469 177.304688 136.101563 176.699219 135.695313 175.84375 C 135.300781 174.980469 135.171875 174.199219 135.304688 173.5 C 135.429688 172.804688 135.796875 172.320313 136.398438 172.046875 C 136.75 171.882813 137.09375 171.820313 137.429688 171.859375 C 137.761719 171.890625 138.085938 172.027344 138.398438 172.265625 Z M 136.523438 175.46875 C 136.835938 176.125 137.199219 176.585938 137.617188 176.84375 C 138.03125 177.105469 138.449219 177.136719 138.867188 176.9375 C 139.304688 176.742188 139.558594 176.398438 139.632813 175.90625 C 139.703125 175.417969 139.585938 174.84375 139.273438 174.1875 C 138.96875 173.523438 138.609375 173.058594 138.195313 172.796875 C 137.777344 172.539063 137.351563 172.507813 136.914063 172.703125 C 136.496094 172.902344 136.253906 173.246094 136.179688 173.734375 C 136.109375 174.226563 136.222656 174.804688 136.523438 175.46875 Z M 148.078125 167.390625 L 148.25 168.421875 C 147.851563 168.296875 147.484375 168.214844 147.140625 168.171875 C 146.796875 168.132813 146.472656 168.136719 146.171875 168.1875 C 145.648438 168.273438 145.265625 168.449219 145.015625 168.71875 C 144.773438 168.980469 144.6875 169.320313 144.75 169.734375 C 144.8125 170.078125 144.945313 170.328125 145.15625 170.484375 C 145.363281 170.640625 145.75 170.730469 146.3125 170.75 L 146.890625 170.78125 C 147.640625 170.824219 148.21875 171.011719 148.625 171.34375 C 149.03125 171.679688 149.28125 172.164063 149.375 172.796875 C 149.5 173.570313 149.363281 174.1875 148.96875 174.65625 C 148.570313 175.125 147.929688 175.433594 147.046875 175.578125 C 146.703125 175.632813 146.332031 175.648438 145.9375 175.625 C 145.539063 175.59375 145.125 175.527344 144.6875 175.421875 L 144.515625 174.328125 C 144.953125 174.515625 145.367188 174.640625 145.765625 174.703125 C 146.160156 174.765625 146.539063 174.773438 146.90625 174.71875 C 147.445313 174.625 147.847656 174.433594 148.109375 174.140625 C 148.367188 173.851563 148.460938 173.484375 148.390625 173.046875 C 148.328125 172.652344 148.171875 172.367188 147.921875 172.1875 C 147.679688 172 147.300781 171.886719 146.78125 171.84375 L 146.1875 171.8125 C 145.4375 171.773438 144.875 171.609375 144.5 171.328125 C 144.125 171.039063 143.886719 170.589844 143.78125 169.984375 C 143.679688 169.289063 143.8125 168.703125 144.1875 168.234375 C 144.5625 167.757813 145.140625 167.453125 145.921875 167.328125 C 146.265625 167.265625 146.613281 167.246094 146.96875 167.265625 C 147.320313 167.277344 147.691406 167.320313 148.078125 167.390625 Z M 152.660156 169.636719 C 152.179688 169.636719 151.800781 169.847656 151.519531 170.261719 C 151.246094 170.679688 151.105469 171.246094 151.097656 171.964844 C 151.097656 172.683594 151.230469 173.253906 151.503906 173.667969 C 151.773438 174.074219 152.148438 174.277344 152.628906 174.277344 C 153.105469 174.277344 153.488281 174.074219 153.769531 173.667969 C 154.050781 173.261719 154.191406 172.699219 154.191406 171.980469 C 154.199219 171.261719 154.066406 170.695313 153.785156 170.277344 C 153.511719 169.851563 153.136719 169.636719 152.660156 169.636719 Z M 152.660156 168.808594 C 153.429688 168.820313 154.035156 169.105469 154.472656 169.667969 C 154.917969 170.222656 155.136719 170.992188 155.128906 171.980469 C 155.128906 172.960938 154.902344 173.730469 154.457031 174.292969 C 154.007813 174.855469 153.398438 175.128906 152.628906 175.121094 C 151.847656 175.121094 151.238281 174.839844 150.800781 174.277344 C 150.371094 173.707031 150.160156 172.929688 150.160156 171.949219 C 150.167969 170.960938 150.394531 170.191406 150.832031 169.636719 C 151.269531 169.085938 151.878906 168.808594 152.660156 168.808594 Z M 156.503906 172.609375 L 156.519531 168.96875 L 157.410156 168.984375 L 157.394531 172.59375 C 157.394531 173.15625 157.488281 173.585938 157.675781 173.875 C 157.871094 174.15625 158.167969 174.296875 158.566406 174.296875 C 159.054688 174.296875 159.441406 174.132813 159.722656 173.796875 C 160.003906 173.464844 160.144531 173 160.144531 172.40625 L 160.160156 169 L 161.050781 169 L 161.019531 175.015625 L 160.128906 175.015625 L 160.128906 174.09375 C 159.910156 174.460938 159.660156 174.730469 159.378906 174.90625 C 159.097656 175.070313 158.761719 175.15625 158.378906 175.15625 C 157.761719 175.15625 157.292969 174.9375 156.972656 174.5 C 156.648438 174.0625 156.492188 173.433594 156.503906 172.609375 Z M 158.753906 168.84375 Z M 163.785156 167.316406 L 163.769531 169.019531 L 165.597656 169.019531 L 165.597656 169.785156 L 163.769531 169.785156 L 163.753906 173.050781 C 163.742188 173.542969 163.792969 173.859375 163.910156 174.003906 C 164.035156 174.140625 164.285156 174.207031 164.660156 174.207031 L 165.566406 174.207031 L 165.566406 175.035156 L 164.660156 175.035156 C 163.972656 175.035156 163.496094 174.890625 163.238281 174.597656 C 162.976563 174.308594 162.851563 173.785156 162.863281 173.035156 L 162.878906 169.769531 L 162.222656 169.769531 L 162.222656 169.003906 L 162.878906 169.003906 L 162.894531 167.300781 Z M 171.273438 170.933594 L 171.601563 174.542969 L 170.710938 174.621094 L 170.398438 171.042969 C 170.34375 170.472656 170.203125 170.054688 169.976563 169.792969 C 169.746094 169.535156 169.433594 169.417969 169.039063 169.449219 C 168.558594 169.492188 168.199219 169.695313 167.960938 170.058594 C 167.71875 170.425781 167.625 170.898438 167.679688 171.480469 L 167.976563 174.871094 L 167.070313 174.949219 L 166.320313 166.621094 L 167.226563 166.542969 L 167.523438 169.808594 C 167.6875 169.425781 167.90625 169.132813 168.179688 168.933594 C 168.449219 168.738281 168.777344 168.621094 169.164063 168.589844 C 169.777344 168.539063 170.261719 168.710938 170.617188 169.105469 C 170.980469 169.492188 171.199219 170.101563 171.273438 170.933594 Z M 171.273438 170.933594 "/>
<path style=" stroke:none;fill-rule:evenodd;fill:rgb(20%,20%,20%);fill-opacity:1;" d="M 68.960938 214.046875 L 68.460938 211.9375 L 66.914063 212.296875 L 66.726563 211.4375 L 69.226563 210.859375 L 69.992188 214.203125 C 69.699219 214.578125 69.34375 214.898438 68.929688 215.15625 C 68.523438 215.40625 68.0625 215.589844 67.554688 215.703125 C 66.460938 215.953125 65.523438 215.792969 64.742188 215.21875 C 63.960938 214.648438 63.421875 213.730469 63.117188 212.46875 C 62.828125 211.1875 62.910156 210.117188 63.367188 209.25 C 63.8125 208.386719 64.585938 207.828125 65.679688 207.578125 C 66.136719 207.476563 66.589844 207.445313 67.039063 207.484375 C 67.484375 207.515625 67.90625 207.609375 68.304688 207.765625 L 68.570313 208.890625 C 68.140625 208.652344 67.710938 208.496094 67.273438 208.421875 C 66.835938 208.339844 66.398438 208.351563 65.960938 208.453125 C 65.105469 208.652344 64.523438 209.070313 64.210938 209.703125 C 63.898438 210.328125 63.859375 211.171875 64.101563 212.234375 C 64.351563 213.289063 64.75 214.03125 65.304688 214.46875 C 65.867188 214.898438 66.574219 215.011719 67.429688 214.8125 C 67.773438 214.730469 68.0625 214.632813 68.304688 214.515625 C 68.554688 214.390625 68.773438 214.234375 68.960938 214.046875 Z M 73.5625 211.039063 C 72.863281 211.207031 72.398438 211.414063 72.171875 211.664063 C 71.953125 211.90625 71.894531 212.238281 72 212.664063 C 72.070313 213 72.234375 213.242188 72.484375 213.398438 C 72.734375 213.554688 73.03125 213.59375 73.375 213.507813 C 73.851563 213.394531 74.191406 213.113281 74.390625 212.664063 C 74.597656 212.21875 74.632813 211.6875 74.5 211.070313 L 74.4375 210.835938 Z M 75.203125 210.242188 L 75.984375 213.585938 L 75.125 213.789063 L 74.921875 212.898438 C 74.796875 213.316406 74.601563 213.644531 74.34375 213.882813 C 74.09375 214.113281 73.753906 214.273438 73.328125 214.367188 C 72.785156 214.492188 72.316406 214.425781 71.921875 214.164063 C 71.523438 213.894531 71.265625 213.476563 71.140625 212.914063 C 70.984375 212.257813 71.0625 211.71875 71.375 211.289063 C 71.695313 210.863281 72.253906 210.554688 73.046875 210.367188 L 74.265625 210.085938 L 74.25 209.992188 C 74.144531 209.554688 73.929688 209.25 73.609375 209.070313 C 73.285156 208.882813 72.890625 208.847656 72.421875 208.960938 C 72.117188 209.023438 71.832031 209.128906 71.5625 209.273438 C 71.300781 209.421875 71.050781 209.609375 70.8125 209.835938 L 70.609375 208.945313 C 70.914063 208.738281 71.195313 208.566406 71.46875 208.429688 C 71.75 208.296875 72.03125 208.191406 72.3125 208.117188 C 73.070313 207.941406 73.691406 208.03125 74.171875 208.382813 C 74.660156 208.726563 75.003906 209.347656 75.203125 210.242188 Z M 79.6875 207.503906 C 79.570313 207.472656 79.453125 207.457031 79.328125 207.457031 C 79.203125 207.457031 79.070313 207.472656 78.9375 207.503906 C 78.445313 207.621094 78.113281 207.886719 77.9375 208.300781 C 77.757813 208.707031 77.742188 209.238281 77.890625 209.894531 L 78.609375 212.988281 L 77.734375 213.191406 L 76.375 207.332031 L 77.25 207.128906 L 77.46875 208.035156 C 77.570313 207.640625 77.742188 207.324219 77.984375 207.082031 C 78.234375 206.84375 78.566406 206.675781 78.984375 206.582031 C 79.046875 206.574219 79.117188 206.5625 79.203125 206.550781 C 79.285156 206.53125 79.363281 206.519531 79.4375 206.519531 Z M 85.300781 207.726563 L 86.113281 211.257813 L 85.253906 211.445313 L 84.441406 207.945313 C 84.316406 207.382813 84.121094 206.992188 83.863281 206.773438 C 83.601563 206.546875 83.277344 206.476563 82.894531 206.570313 C 82.425781 206.675781 82.089844 206.925781 81.894531 207.320313 C 81.695313 207.707031 81.664063 208.1875 81.800781 208.757813 L 82.566406 212.070313 L 81.691406 212.273438 L 80.332031 206.414063 L 81.207031 206.210938 L 81.425781 207.117188 C 81.550781 206.722656 81.726563 206.40625 81.957031 206.164063 C 82.195313 205.925781 82.503906 205.765625 82.878906 205.679688 C 83.480469 205.546875 83.988281 205.648438 84.394531 205.992188 C 84.808594 206.335938 85.113281 206.914063 85.300781 207.726563 Z M 91.574219 206.21875 L 91.714844 206.6875 L 87.808594 207.90625 C 88.058594 208.542969 88.390625 208.980469 88.808594 209.21875 C 89.234375 209.460938 89.722656 209.492188 90.277344 209.3125 C 90.609375 209.210938 90.910156 209.070313 91.183594 208.890625 C 91.453125 208.703125 91.714844 208.480469 91.964844 208.21875 L 92.246094 209.09375 C 91.996094 209.335938 91.71875 209.542969 91.417969 209.71875 C 91.125 209.898438 90.8125 210.039063 90.480469 210.140625 C 89.65625 210.402344 88.917969 210.339844 88.261719 209.953125 C 87.613281 209.570313 87.152344 208.921875 86.871094 208.015625 C 86.582031 207.078125 86.574219 206.261719 86.855469 205.5625 C 87.136719 204.867188 87.667969 204.398438 88.449219 204.15625 C 89.136719 203.9375 89.761719 204.015625 90.324219 204.390625 C 90.886719 204.757813 91.300781 205.367188 91.574219 206.21875 Z M 90.621094 206.203125 C 90.453125 205.695313 90.199219 205.324219 89.855469 205.09375 C 89.511719 204.867188 89.128906 204.820313 88.714844 204.953125 C 88.234375 205.101563 87.894531 205.367188 87.699219 205.75 C 87.5 206.136719 87.46875 206.601563 87.605469 207.140625 Z M 91.128906 201.285156 L 92.113281 202.675781 L 93.613281 201.628906 L 94.050781 202.253906 L 92.550781 203.300781 L 94.425781 205.972656 C 94.707031 206.378906 94.933594 206.609375 95.113281 206.660156 C 95.300781 206.703125 95.542969 206.613281 95.847656 206.394531 L 96.597656 205.878906 L 97.066406 206.550781 L 96.316406 207.066406 C 95.753906 207.464844 95.277344 207.621094 94.894531 207.535156 C 94.519531 207.453125 94.117188 207.105469 93.691406 206.488281 L 91.816406 203.816406 L 91.285156 204.191406 L 90.847656 203.566406 L 91.378906 203.191406 L 90.394531 201.800781 Z M 96.011719 197.484375 L 96.808594 196.921875 L 100.902344 202.75 L 103.777344 200.734375 L 104.292969 201.46875 L 100.621094 204.046875 Z M 105.371094 197.003906 C 104.777344 197.421875 104.421875 197.785156 104.308594 198.097656 C 104.195313 198.410156 104.261719 198.746094 104.511719 199.097656 C 104.707031 199.378906 104.949219 199.546875 105.230469 199.597656 C 105.519531 199.652344 105.8125 199.578125 106.105469 199.378906 C 106.519531 199.089844 106.734375 198.699219 106.746094 198.207031 C 106.765625 197.71875 106.59375 197.21875 106.230469 196.707031 L 106.089844 196.503906 Z M 106.605469 195.660156 L 108.574219 198.472656 L 107.839844 198.988281 L 107.324219 198.253906 C 107.363281 198.660156 107.308594 199.019531 107.152344 199.332031 C 107.003906 199.644531 106.753906 199.925781 106.402344 200.175781 C 105.953125 200.5 105.496094 200.613281 105.027344 200.519531 C 104.558594 200.425781 104.160156 200.140625 103.824219 199.660156 C 103.429688 199.109375 103.300781 198.578125 103.433594 198.066406 C 103.570313 197.546875 103.972656 197.050781 104.636719 196.582031 L 105.652344 195.878906 L 105.605469 195.800781 C 105.34375 195.425781 105.03125 195.214844 104.667969 195.160156 C 104.304688 195.109375 103.917969 195.222656 103.511719 195.503906 C 103.261719 195.683594 103.042969 195.890625 102.855469 196.128906 C 102.660156 196.371094 102.496094 196.636719 102.371094 196.925781 L 101.855469 196.191406 C 102.042969 195.871094 102.242188 195.597656 102.449219 195.378906 C 102.660156 195.152344 102.882813 194.953125 103.121094 194.785156 C 103.757813 194.339844 104.359375 194.1875 104.933594 194.332031 C 105.515625 194.46875 106.074219 194.910156 106.605469 195.660156 Z M 105.238281 190.597656 L 105.972656 190.082031 L 108.800781 194.128906 L 109.488281 190.472656 L 110.425781 189.816406 L 109.675781 193.769531 L 113.972656 194.675781 L 113.019531 195.347656 L 109.082031 194.519531 L 110.769531 196.925781 L 110.035156 197.441406 Z M 116.664063 188.800781 L 116.945313 189.191406 L 113.601563 191.550781 C 114.027344 192.082031 114.480469 192.402344 114.960938 192.503906 C 115.4375 192.597656 115.914063 192.480469 116.382813 192.144531 C 116.664063 191.949219 116.902344 191.71875 117.101563 191.457031 C 117.308594 191.199219 117.5 190.902344 117.679688 190.566406 L 118.210938 191.332031 C 118.023438 191.644531 117.8125 191.925781 117.585938 192.175781 C 117.367188 192.425781 117.117188 192.652344 116.835938 192.847656 C 116.125 193.347656 115.402344 193.519531 114.664063 193.363281 C 113.9375 193.199219 113.296875 192.71875 112.742188 191.925781 C 112.179688 191.125 111.929688 190.355469 111.992188 189.613281 C 112.054688 188.863281 112.421875 188.253906 113.085938 187.785156 C 113.679688 187.371094 114.292969 187.25 114.929688 187.425781 C 115.574219 187.605469 116.152344 188.0625 116.664063 188.800781 Z M 115.789063 189.066406 C 115.464844 188.640625 115.101563 188.371094 114.695313 188.253906 C 114.296875 188.128906 113.925781 188.199219 113.570313 188.457031 C 113.15625 188.738281 112.914063 189.097656 112.851563 189.535156 C 112.78125 189.964844 112.894531 190.417969 113.195313 190.894531 Z M 122.96875 183.742188 C 123.1875 183.691406 123.445313 183.710938 123.75 183.804688 C 124.0625 183.898438 124.441406 184.078125 124.890625 184.335938 L 126.9375 185.554688 L 126.09375 186.164063 L 124.140625 185.007813 C 123.640625 184.707031 123.242188 184.550781 122.953125 184.539063 C 122.671875 184.519531 122.375 184.617188 122.0625 184.835938 L 121.1875 185.445313 L 123.140625 188.226563 L 122.34375 188.789063 L 117.734375 182.226563 L 119.53125 180.960938 C 120.21875 180.484375 120.839844 180.285156 121.390625 180.367188 C 121.929688 180.453125 122.425781 180.8125 122.875 181.445313 C 123.164063 181.863281 123.320313 182.269531 123.34375 182.664063 C 123.363281 183.050781 123.238281 183.410156 122.96875 183.742188 Z M 119.046875 182.398438 L 120.6875 184.726563 L 121.6875 184.023438 C 122.082031 183.753906 122.304688 183.453125 122.359375 183.117188 C 122.410156 182.773438 122.300781 182.410156 122.03125 182.023438 C 121.757813 181.640625 121.464844 181.421875 121.140625 181.367188 C 120.808594 181.316406 120.445313 181.425781 120.046875 181.695313 Z M 126.597656 179.292969 C 126.203125 179.574219 126.015625 179.964844 126.035156 180.464844 C 126.046875 180.957031 126.261719 181.496094 126.675781 182.089844 C 127.082031 182.675781 127.511719 183.058594 127.972656 183.246094 C 128.441406 183.425781 128.871094 183.371094 129.269531 183.089844 C 129.652344 182.820313 129.839844 182.441406 129.832031 181.949219 C 129.820313 181.449219 129.613281 180.910156 129.207031 180.324219 C 128.789063 179.730469 128.347656 179.347656 127.878906 179.167969 C 127.410156 178.980469 126.984375 179.023438 126.597656 179.292969 Z M 126.128906 178.621094 C 126.753906 178.183594 127.402344 178.066406 128.082031 178.261719 C 128.769531 178.460938 129.398438 178.964844 129.972656 179.777344 C 130.535156 180.582031 130.792969 181.339844 130.753906 182.058594 C 130.710938 182.769531 130.378906 183.339844 129.753906 183.777344 C 129.105469 184.238281 128.445313 184.363281 127.769531 184.152344 C 127.09375 183.945313 126.472656 183.441406 125.910156 182.636719 C 125.339844 181.824219 125.074219 181.070313 125.113281 180.371094 C 125.144531 179.664063 125.484375 179.082031 126.128906 178.621094 Z M 133.152344 177.488281 C 132.558594 177.90625 132.203125 178.269531 132.089844 178.582031 C 131.976563 178.894531 132.042969 179.230469 132.292969 179.582031 C 132.488281 179.863281 132.730469 180.03125 133.011719 180.082031 C 133.300781 180.136719 133.59375 180.0625 133.886719 179.863281 C 134.300781 179.574219 134.515625 179.183594 134.527344 178.691406 C 134.546875 178.203125 134.375 177.703125 134.011719 177.191406 L 133.871094 176.988281 Z M 134.386719 176.144531 L 136.355469 178.957031 L 135.621094 179.472656 L 135.105469 178.738281 C 135.144531 179.144531 135.089844 179.503906 134.933594 179.816406 C 134.785156 180.128906 134.535156 180.410156 134.183594 180.660156 C 133.734375 180.984375 133.277344 181.097656 132.808594 181.003906 C 132.339844 180.910156 131.941406 180.625 131.605469 180.144531 C 131.210938 179.59375 131.082031 179.0625 131.214844 178.550781 C 131.351563 178.03125 131.753906 177.535156 132.417969 177.066406 L 133.433594 176.363281 L 133.386719 176.285156 C 133.125 175.910156 132.8125 175.699219 132.449219 175.644531 C 132.085938 175.59375 131.699219 175.707031 131.292969 175.988281 C 131.042969 176.167969 130.824219 176.375 130.636719 176.613281 C 130.441406 176.855469 130.277344 177.121094 130.152344 177.410156 L 129.636719 176.675781 C 129.824219 176.355469 130.023438 176.082031 130.230469 175.863281 C 130.441406 175.636719 130.664063 175.4375 130.902344 175.269531 C 131.539063 174.824219 132.140625 174.671875 132.714844 174.816406 C 133.296875 174.953125 133.855469 175.394531 134.386719 176.144531 Z M 138.398438 172.265625 L 137.039063 169.3125 L 137.851563 168.9375 L 141.351563 176.53125 L 140.539063 176.90625 L 140.164063 176.078125 C 140.140625 176.496094 140.039063 176.84375 139.851563 177.125 C 139.664063 177.398438 139.390625 177.617188 139.039063 177.78125 C 138.433594 178.054688 137.824219 178.011719 137.210938 177.65625 C 136.605469 177.304688 136.101563 176.699219 135.695313 175.84375 C 135.300781 174.980469 135.171875 174.199219 135.304688 173.5 C 135.429688 172.804688 135.796875 172.320313 136.398438 172.046875 C 136.75 171.882813 137.09375 171.820313 137.429688 171.859375 C 137.761719 171.890625 138.085938 172.027344 138.398438 172.265625 Z M 136.523438 175.46875 C 136.835938 176.125 137.199219 176.585938 137.617188 176.84375 C 138.03125 177.105469 138.449219 177.136719 138.867188 176.9375 C 139.304688 176.742188 139.558594 176.398438 139.632813 175.90625 C 139.703125 175.417969 139.585938 174.84375 139.273438 174.1875 C 138.96875 173.523438 138.609375 173.058594 138.195313 172.796875 C 137.777344 172.539063 137.351563 172.507813 136.914063 172.703125 C 136.496094 172.902344 136.253906 173.246094 136.179688 173.734375 C 136.109375 174.226563 136.222656 174.804688 136.523438 175.46875 Z M 148.078125 167.390625 L 148.25 168.421875 C 147.851563 168.296875 147.484375 168.214844 147.140625 168.171875 C 146.796875 168.132813 146.472656 168.136719 146.171875 168.1875 C 145.648438 168.273438 145.265625 168.449219 145.015625 168.71875 C 144.773438 168.980469 144.6875 169.320313 144.75 169.734375 C 144.8125 170.078125 144.945313 170.328125 145.15625 170.484375 C 145.363281 170.640625 145.75 170.730469 146.3125 170.75 L 146.890625 170.78125 C 147.640625 170.824219 148.21875 171.011719 148.625 171.34375 C 149.03125 171.679688 149.28125 172.164063 149.375 172.796875 C 149.5 173.570313 149.363281 174.1875 148.96875 174.65625 C 148.570313 175.125 147.929688 175.433594 147.046875 175.578125 C 146.703125 175.632813 146.332031 175.648438 145.9375 175.625 C 145.539063 175.59375 145.125 175.527344 144.6875 175.421875 L 144.515625 174.328125 C 144.953125 174.515625 145.367188 174.640625 145.765625 174.703125 C 146.160156 174.765625 146.539063 174.773438 146.90625 174.71875 C 147.445313 174.625 147.847656 174.433594 148.109375 174.140625 C 148.367188 173.851563 148.460938 173.484375 148.390625 173.046875 C 148.328125 172.652344 148.171875 172.367188 147.921875 172.1875 C 147.679688 172 147.300781 171.886719 146.78125 171.84375 L 146.1875 171.8125 C 145.4375 171.773438 144.875 171.609375 144.5 171.328125 C 144.125 171.039063 143.886719 170.589844 143.78125 169.984375 C 143.679688 169.289063 143.8125 168.703125 144.1875 168.234375 C 144.5625 167.757813 145.140625 167.453125 145.921875 167.328125 C 146.265625 167.265625 146.613281 167.246094 146.96875 167.265625 C 147.320313 167.277344 147.691406 167.320313 148.078125 167.390625 Z M 152.660156 169.636719 C 152.179688 169.636719 151.800781 169.847656 151.519531 170.261719 C 151.246094 170.679688 151.105469 171.246094 151.097656 171.964844 C 151.097656 172.683594 151.230469 173.253906 151.503906 173.667969 C 151.773438 174.074219 152.148438 174.277344 152.628906 174.277344 C 153.105469 174.277344 153.488281 174.074219 153.769531 173.667969 C 154.050781 173.261719 154.191406 172.699219 154.191406 171.980469 C 154.199219 171.261719 154.066406 170.695313 153.785156 170.277344 C 153.511719 169.851563 153.136719 169.636719 152.660156 169.636719 Z M 152.660156 168.808594 C 153.429688 168.820313 154.035156 169.105469 154.472656 169.667969 C 154.917969 170.222656 155.136719 170.992188 155.128906 171.980469 C 155.128906 172.960938 154.902344 173.730469 154.457031 174.292969 C 154.007813 174.855469 153.398438 175.128906 152.628906 175.121094 C 151.847656 175.121094 151.238281 174.839844 150.800781 174.277344 C 150.371094 173.707031 150.160156 172.929688 150.160156 171.949219 C 150.167969 170.960938 150.394531 170.191406 150.832031 169.636719 C 151.269531 169.085938 151.878906 168.808594 152.660156 168.808594 Z M 156.503906 172.609375 L 156.519531 168.96875 L 157.410156 168.984375 L 157.394531 172.59375 C 157.394531 173.15625 157.488281 173.585938 157.675781 173.875 C 157.871094 174.15625 158.167969 174.296875 158.566406 174.296875 C 159.054688 174.296875 159.441406 174.132813 159.722656 173.796875 C 160.003906 173.464844 160.144531 173 160.144531 172.40625 L 160.160156 169 L 161.050781 169 L 161.019531 175.015625 L 160.128906 175.015625 L 160.128906 174.09375 C 159.910156 174.460938 159.660156 174.730469 159.378906 174.90625 C 159.097656 175.070313 158.761719 175.15625 158.378906 175.15625 C 157.761719 175.15625 157.292969 174.9375 156.972656 174.5 C 156.648438 174.0625 156.492188 173.433594 156.503906 172.609375 Z M 158.753906 168.84375 Z M 163.785156 167.316406 L 163.769531 169.019531 L 165.597656 169.019531 L 165.597656 169.785156 L 163.769531 169.785156 L 163.753906 173.050781 C 163.742188 173.542969 163.792969 173.859375 163.910156 174.003906 C 164.035156 174.140625 164.285156 174.207031 164.660156 174.207031 L 165.566406 174.207031 L 165.566406 175.035156 L 164.660156 175.035156 C 163.972656 175.035156 163.496094 174.890625 163.238281 174.597656 C 162.976563 174.308594 162.851563 173.785156 162.863281 173.035156 L 162.878906 169.769531 L 162.222656 169.769531 L 162.222656 169.003906 L 162.878906 169.003906 L 162.894531 167.300781 Z M 171.273438 170.933594 L 171.601563 174.542969 L 170.710938 174.621094 L 170.398438 171.042969 C 170.34375 170.472656 170.203125 170.054688 169.976563 169.792969 C 169.746094 169.535156 169.433594 169.417969 169.039063 169.449219 C 168.558594 169.492188 168.199219 169.695313 167.960938 170.058594 C 167.71875 170.425781 167.625 170.898438 167.679688 171.480469 L 167.976563 174.871094 L 167.070313 174.949219 L 166.320313 166.621094 L 167.226563 166.542969 L 167.523438 169.808594 C 167.6875 169.425781 167.90625 169.132813 168.179688 168.933594 C 168.449219 168.738281 168.777344 168.621094 169.164063 168.589844 C 169.777344 168.539063 170.261719 168.710938 170.617188 169.105469 C 170.980469 169.492188 171.199219 170.101563 171.273438 170.933594 Z M 171.273438 170.933594 "/>
</g>
</svg>

