<?xml version="1.0" encoding="UTF-8"?>
<svg xmlns="http://www.w3.org/2000/svg" xmlns:xlink="http://www.w3.org/1999/xlink" width="256pt" height="256pt" viewBox="0 0 256 256" version="1.1">
<g id="surface2">
<rect x="0" y="0" width="256" height="256" style="fill:rgb(94.901961%,93.72549%,91.372549%);fill-opacity:1;stroke:none;"/>
<path style="fill:none;stroke-width:1;stroke-linecap:round;stroke-linejoin:round;stroke:rgb(100%,100%,100%);stroke-opacity:1;stroke-dasharray:2,3;stroke-miterlimit:10;" d="M -2 256.667969 L 2.117188 255.425781 L 3.65625 255.859375 L 6.171875 256.570313 L 7.144531 257 M 8.839844 257 L 11.4375 256.105469 L 14.132813 254.0625 L 16.578125 251.894531 L 19.707031 250.746094 L 22.082031 249.375 L 25.808594 250.097656 L 30.019531 249.574219 L 32.652344 249.230469 L 34.636719 247.652344 L 37.792969 247.25 L 38.351563 245.144531 L 39.511719 245.097656 L 43.183594 240.929688 L 47.363281 237.246094 L 51.980469 233.066406 L 52.164063 230.492188 L 53.6875 226.667969 L 54.808594 221.667969 L 57.246094 216.945313 L 60.023438 212.386719 L 61.785156 206.46875 L 62.242188 201.132813 L 61.730469 195.683594 L 66.191406 186.992188 L 71.671875 182.625 L 76.992188 179.476563 L 81.542969 176.203125 L 84.125 173.539063 L 85.734375 171.679688 L 86.167969 169.265625 L 86.542969 164.617188 L 89.15625 162.328125 L 91.308594 162.886719 L 92.507813 166.535156 L 93.105469 168.335938 L 94.347656 169.882813 L 97.628906 169.699219 L 100.539063 168.027344 L 102.460938 167.714844 L 106.3125 171.328125 L 113.054688 175.449219 L 121.605469 174.65625 L 126.386719 176.472656 L 131.011719 173.949219 L 138.9375 172.386719 L 142.304688 173.109375 L 146.925781 173.046875 L 150.230469 171.90625 L 152.503906 169.480469 L 158.039063 168.902344 L 162.925781 167.519531 L 171.371094 160.8125 L 177.996094 160.351563 L 185.554688 163.539063 L 195.890625 161.523438 L 205.183594 156.792969 L 211.992188 155.164063 L 218.554688 154.101563 L 223.472656 153.347656 L 227.183594 152.042969 L 228.867188 154.914063 L 230.679688 156.351563 L 236.617188 152.042969 L 244.328125 151.546875 L 254.179688 149.914063 L 257 147.6875 "/>
</g>
</svg>

