<?xml version="1.0" encoding="UTF-8"?>
<svg xmlns="http://www.w3.org/2000/svg" xmlns:xlink="http://www.w3.org/1999/xlink" width="256pt" height="256pt" viewBox="0 0 256 256" version="1.1">
<g id="surface2">
<rect x="0" y="0" width="256" height="256" style="fill:rgb(94.901961%,93.72549%,91.372549%);fill-opacity:1;stroke:none;"/>
<path style="fill:none;stroke-width:8;stroke-linecap:round;stroke-linejoin:round;stroke:rgb(75.686275%,70.980392%,61.568627%);stroke-opacity:1;stroke-miterlimit:10;" d="M 160.15625 73.039063 L 161.71875 69.113281 L 163.742188 57.585938 L 164.699219 39.726563 L 164.09375 25.066406 L 164.464844 21.394531 L 165.304688 18.480469 L 178.539063 -1.144531 "/>
<path style="fill:none;stroke-width:8;stroke-linecap:round;stroke-linejoin:round;stroke:rgb(75.686275%,70.980392%,61.568627%);stroke-opacity:1;stroke-miterlimit:10;" d="M 51.988281 205.386719 L 19.226563 184.777344 L 15.078125 181.101563 L 11.863281 177.429688 L 6.363281 168.25 L -0.976563 154.476563 L -9 141.105469 "/>
<path style="fill:none;stroke-width:8;stroke-linecap:round;stroke-linejoin:round;stroke:rgb(75.686275%,70.980392%,61.568627%);stroke-opacity:1;stroke-miterlimit:10;" d="M 40.945313 175.246094 L 61.425781 178.632813 L 78.949219 185.28125 L 107.308594 195.320313 L 129 214.539063 L 139.859375 243.699219 L 141.839844 256.109375 L 142.828125 264 "/>
<path style="fill:none;stroke-width:8;stroke-linecap:round;stroke-linejoin:round;stroke:rgb(75.686275%,70.980392%,61.568627%);stroke-opacity:1;stroke-miterlimit:10;" d="M 65.515625 264 L 63.429688 252.085938 L 60.285156 236.003906 L 51.988281 205.386719 L 49.984375 198.011719 L 47.632813 191.804688 L 43.832031 183.097656 L 40.945313 175.246094 L 39.777344 171.222656 L 38.472656 163.277344 L 37.03125 145.484375 L 36.285156 138.613281 L 35.632813 135.792969 L 34.582031 132.691406 L 30.296875 123.507813 L 27.265625 112.238281 L 25.914063 101.820313 L 26.335938 100.363281 L 27.894531 98.050781 L 29.269531 97.195313 L 30.550781 96.4375 L 32.183594 96.4375 L 33.628906 96.816406 L 37.074219 98.496094 L 39.265625 98.90625 L 42.296875 98.367188 L 45.253906 97.039063 L 47.726563 94.503906 L 51.058594 91.59375 L 69.910156 65.820313 L 75.964844 59.328125 L 78.4375 57.933594 L 80.277344 57.394531 L 81.816406 57.332031 L 84.191406 57.648438 L 89.085938 59.199219 "/>
<path style="fill:none;stroke-width:8;stroke-linecap:round;stroke-linejoin:round;stroke:rgb(75.686275%,70.980392%,61.568627%);stroke-opacity:1;stroke-miterlimit:10;" d="M 237.214844 215.105469 L 243.484375 220.585938 L 264 241.265625 "/>
<path style="fill:none;stroke-width:9;stroke-linecap:round;stroke-linejoin:round;stroke:rgb(75.686275%,70.980392%,61.568627%);stroke-opacity:1;stroke-miterlimit:10;" d="M 140.605469 84.40625 L 146.757813 77.722656 L 148.925781 74.429688 L 152.328125 67.148438 L 152.792969 56.792969 L 152.582031 52.363281 "/>
<path style="fill:none;stroke-width:9;stroke-linecap:round;stroke-linejoin:round;stroke:rgb(75.686275%,70.980392%,61.568627%);stroke-opacity:1;stroke-miterlimit:10;" d="M 169.800781 90.832031 L 163.953125 86.875 L 162.089844 85.925781 L 158.78125 84.878906 L 155.238281 84.058594 L 149.761719 83.328125 L 144.449219 83.867188 L 140.605469 84.40625 L 125.878906 88.519531 L 121.519531 88.773438 L 117.839844 88.519531 L 115.53125 88.078125 L 111.851563 86.683594 L 106.117188 83.707031 L 102.4375 80.480469 L 98.753906 76.804688 L 97.148438 74.273438 L 89.085938 59.199219 L 87.105469 53.183594 L 82.652344 36.65625 L 71.074219 -8.5625 L 70.726563 -10 "/>
<path style="fill:none;stroke-width:9;stroke-linecap:round;stroke-linejoin:round;stroke:rgb(75.686275%,70.980392%,61.568627%);stroke-opacity:1;stroke-miterlimit:10;" d="M 145.273438 -10 L 145.21875 -8.023438 L 145.546875 2.140625 L 146.082031 12.117188 L 147.6875 26.492188 L 149.902344 40.867188 L 152.582031 52.363281 L 154.375 58.472656 L 157.871094 67.558594 L 160.15625 73.039063 L 163 79.179688 L 169.800781 90.832031 L 176.46875 101.628906 L 214.84375 161.410156 L 221.066406 174.042969 L 227.660156 191.011719 L 237.214844 215.105469 L 239.613281 223.8125 L 243.808594 240.625 L 244.878906 247.023438 L 246.21875 265 "/>
<path style="fill:none;stroke-width:6;stroke-linecap:round;stroke-linejoin:round;stroke:rgb(100%,100%,100%);stroke-opacity:1;stroke-miterlimit:10;" d="M 160.15625 73.039063 L 161.71875 69.113281 L 163.742188 57.585938 L 164.699219 39.726563 L 164.09375 25.066406 L 164.464844 21.394531 L 165.304688 18.480469 L 178.539063 -1.144531 "/>
<path style="fill:none;stroke-width:6;stroke-linecap:round;stroke-linejoin:round;stroke:rgb(100%,100%,100%);stroke-opacity:1;stroke-miterlimit:10;" d="M 51.988281 205.386719 L 19.226563 184.777344 L 15.078125 181.101563 L 11.863281 177.429688 L 6.363281 168.25 L -0.976563 154.476563 L -9 141.105469 "/>
<path style="fill:none;stroke-width:6;stroke-linecap:round;stroke-linejoin:round;stroke:rgb(100%,100%,100%);stroke-opacity:1;stroke-miterlimit:10;" d="M 40.945313 175.246094 L 61.425781 178.632813 L 78.949219 185.28125 L 107.308594 195.320313 L 129 214.539063 L 139.859375 243.699219 L 141.839844 256.109375 L 142.828125 264 "/>
<path style="fill:none;stroke-width:6;stroke-linecap:round;stroke-linejoin:round;stroke:rgb(100%,100%,100%);stroke-opacity:1;stroke-miterlimit:10;" d="M 65.515625 264 L 63.429688 252.085938 L 60.285156 236.003906 L 51.988281 205.386719 L 49.984375 198.011719 L 47.632813 191.804688 L 43.832031 183.097656 L 40.945313 175.246094 L 39.777344 171.222656 L 38.472656 163.277344 L 37.03125 145.484375 L 36.285156 138.613281 L 35.632813 135.792969 L 34.582031 132.691406 L 30.296875 123.507813 L 27.265625 112.238281 L 25.914063 101.820313 L 26.335938 100.363281 L 27.894531 98.050781 L 29.269531 97.195313 L 30.550781 96.4375 L 32.183594 96.4375 L 33.628906 96.816406 L 37.074219 98.496094 L 39.265625 98.90625 L 42.296875 98.367188 L 45.253906 97.039063 L 47.726563 94.503906 L 51.058594 91.59375 L 69.910156 65.820313 L 75.964844 59.328125 L 78.4375 57.933594 L 80.277344 57.394531 L 81.816406 57.332031 L 84.191406 57.648438 L 89.085938 59.199219 "/>
<path style="fill:none;stroke-width:6;stroke-linecap:round;stroke-linejoin:round;stroke:rgb(100%,100%,100%);stroke-opacity:1;stroke-miterlimit:10;" d="M 237.214844 215.105469 L 243.484375 220.585938 L 264 241.265625 "/>
<path style="fill:none;stroke-width:7;stroke-linecap:round;stroke-linejoin:round;stroke:rgb(100%,99.215686%,54.509804%);stroke-opacity:1;stroke-miterlimit:10;" d="M 140.605469 84.40625 L 146.757813 77.722656 L 148.925781 74.429688 L 152.328125 67.148438 L 152.792969 56.792969 L 152.582031 52.363281 "/>
<path style="fill:none;stroke-width:7;stroke-linecap:round;stroke-linejoin:round;stroke:rgb(100%,99.215686%,54.509804%);stroke-opacity:1;stroke-miterlimit:10;" d="M 169.800781 90.832031 L 163.953125 86.875 L 162.089844 85.925781 L 158.78125 84.878906 L 155.238281 84.058594 L 149.761719 83.328125 L 144.449219 83.867188 L 140.605469 84.40625 L 125.878906 88.519531 L 121.519531 88.773438 L 117.839844 88.519531 L 115.53125 88.078125 L 111.851563 86.683594 L 106.117188 83.707031 L 102.4375 80.480469 L 98.753906 76.804688 L 97.148438 74.273438 L 89.085938 59.199219 L 87.105469 53.183594 L 82.652344 36.65625 L 71.074219 -8.5625 L 70.726563 -10 "/>
<path style="fill:none;stroke-width:7;stroke-linecap:round;stroke-linejoin:round;stroke:rgb(100%,99.215686%,54.509804%);stroke-opacity:1;stroke-miterlimit:10;" d="M 145.273438 -10 L 145.21875 -8.023438 L 145.546875 2.140625 L 146.082031 12.117188 L 147.6875 26.492188 L 149.902344 40.867188 L 152.582031 52.363281 L 154.375 58.472656 L 157.871094 67.558594 L 160.15625 73.039063 L 163 79.179688 L 169.800781 90.832031 L 176.46875 101.628906 L 214.84375 161.410156 L 221.066406 174.042969 L 227.660156 191.011719 L 237.214844 215.105469 L 239.613281 223.8125 L 243.808594 240.625 L 244.878906 247.023438 L 246.21875 265 "/>
<path style="fill:none;stroke-width:3;stroke-linecap:round;stroke-linejoin:round;stroke:rgb(100%,100%,100%);stroke-opacity:1;stroke-miterlimit:10;" d="M 169.632813 82.117188 L 170.367188 83.351563 L 165.789063 90.054688 L 172.117188 86.367188 L 172.632813 87.257813 L 165.070313 91.664063 L 164.351563 90.414063 L 168.914063 83.726563 L 162.601563 87.414063 L 162.070313 86.523438 Z M 171.867188 95.976563 L 171.429688 96.242188 L 169.085938 92.445313 C 168.46875 92.871094 168.089844 93.339844 167.945313 93.851563 C 167.808594 94.359375 167.914063 94.890625 168.257813 95.445313 C 168.445313 95.757813 168.667969 96.039063 168.929688 96.289063 C 169.199219 96.539063 169.515625 96.75 169.882813 96.929688 L 169.007813 97.476563 C 168.683594 97.265625 168.386719 97.027344 168.117188 96.757813 C 167.855469 96.484375 167.625 96.1875 167.429688 95.867188 C 166.9375 95.074219 166.808594 94.28125 167.039063 93.492188 C 167.265625 92.699219 167.828125 92.03125 168.726563 91.476563 C 169.632813 90.914063 170.484375 90.695313 171.289063 90.820313 C 172.101563 90.9375 172.742188 91.375 173.210938 92.132813 C 173.625 92.808594 173.714844 93.492188 173.476563 94.179688 C 173.246094 94.867188 172.710938 95.464844 171.867188 95.976563 Z M 171.632813 94.976563 C 172.132813 94.671875 172.453125 94.304688 172.601563 93.867188 C 172.746094 93.429688 172.695313 93.007813 172.445313 92.601563 C 172.164063 92.144531 171.792969 91.867188 171.335938 91.773438 C 170.875 91.679688 170.367188 91.769531 169.804688 92.039063 Z M 174.949219 95.269531 L 175.464844 96.082031 L 171.761719 99.816406 L 176.746094 98.144531 L 177.355469 99.113281 L 173.652344 102.847656 L 178.636719 101.160156 L 179.152344 101.988281 L 172.761719 104.144531 L 172.167969 103.175781 L 176.058594 99.253906 L 170.808594 101.019531 L 170.214844 100.050781 Z M 185.953125 109.050781 L 184.984375 109.675781 C 184.941406 109.226563 184.867188 108.820313 184.765625 108.457031 C 184.660156 108.09375 184.515625 107.777344 184.328125 107.503906 C 184.015625 107.003906 183.671875 106.691406 183.296875 106.566406 C 182.921875 106.441406 182.535156 106.503906 182.140625 106.753906 C 181.816406 106.964844 181.625 107.214844 181.5625 107.503906 C 181.507813 107.785156 181.59375 108.203125 181.8125 108.753906 L 182.03125 109.363281 C 182.320313 110.132813 182.390625 110.789063 182.234375 111.332031 C 182.085938 111.882813 181.710938 112.347656 181.109375 112.722656 C 180.390625 113.191406 179.707031 113.324219 179.0625 113.128906 C 178.425781 112.929688 177.84375 112.414063 177.3125 111.582031 C 177.101563 111.269531 176.925781 110.910156 176.78125 110.503906 C 176.632813 110.105469 176.519531 109.664063 176.4375 109.175781 L 177.46875 108.519531 C 177.46875 109.027344 177.519531 109.492188 177.625 109.910156 C 177.738281 110.335938 177.90625 110.714844 178.125 111.050781 C 178.457031 111.570313 178.820313 111.898438 179.21875 112.035156 C 179.625 112.167969 180.03125 112.105469 180.4375 111.847656 C 180.800781 111.605469 181.019531 111.320313 181.09375 110.988281 C 181.164063 110.664063 181.109375 110.238281 180.921875 109.707031 L 180.6875 109.097656 C 180.414063 108.339844 180.335938 107.707031 180.453125 107.207031 C 180.578125 106.707031 180.921875 106.28125 181.484375 105.925781 C 182.140625 105.5 182.785156 105.375 183.421875 105.550781 C 184.066406 105.71875 184.617188 106.160156 185.078125 106.878906 C 185.273438 107.191406 185.445313 107.53125 185.59375 107.894531 C 185.738281 108.261719 185.859375 108.644531 185.953125 109.050781 Z M 187.566406 115.574219 L 186.707031 116.121094 C 186.714844 115.796875 186.679688 115.496094 186.597656 115.214844 C 186.511719 114.933594 186.398438 114.671875 186.253906 114.433594 C 185.910156 113.902344 185.457031 113.617188 184.894531 113.574219 C 184.339844 113.523438 183.726563 113.714844 183.050781 114.152344 C 182.371094 114.578125 181.941406 115.050781 181.753906 115.574219 C 181.566406 116.105469 181.644531 116.636719 181.988281 117.167969 C 182.132813 117.40625 182.316406 117.621094 182.535156 117.808594 C 182.761719 117.996094 183.019531 118.160156 183.300781 118.308594 L 182.457031 118.839844 C 182.207031 118.683594 181.972656 118.5 181.753906 118.292969 C 181.535156 118.09375 181.335938 117.855469 181.160156 117.574219 C 180.679688 116.832031 180.558594 116.074219 180.800781 115.292969 C 181.039063 114.523438 181.605469 113.851563 182.503906 113.277344 C 183.398438 112.695313 184.246094 112.464844 185.050781 112.589844 C 185.851563 112.707031 186.496094 113.148438 186.988281 113.917969 C 187.152344 114.167969 187.285156 114.433594 187.378906 114.714844 C 187.480469 114.996094 187.542969 115.28125 187.566406 115.574219 Z M 189.304688 119.179688 C 189.023438 118.742188 188.605469 118.523438 188.054688 118.523438 C 187.511719 118.515625 186.914063 118.722656 186.257813 119.148438 C 185.589844 119.574219 185.148438 120.027344 184.929688 120.507813 C 184.710938 120.996094 184.746094 121.464844 185.039063 121.914063 C 185.308594 122.351563 185.714844 122.570313 186.257813 122.570313 C 186.808594 122.578125 187.414063 122.375 188.070313 121.960938 C 188.714844 121.542969 189.148438 121.085938 189.367188 120.585938 C 189.59375 120.085938 189.574219 119.617188 189.304688 119.179688 Z M 190.070313 118.695313 C 190.515625 119.414063 190.609375 120.136719 190.351563 120.867188 C 190.101563 121.59375 189.527344 122.25 188.632813 122.835938 C 187.726563 123.40625 186.882813 123.65625 186.101563 123.585938 C 185.328125 123.523438 184.71875 123.132813 184.273438 122.414063 C 183.804688 121.695313 183.699219 120.964844 183.960938 120.226563 C 184.21875 119.5 184.804688 118.847656 185.710938 118.273438 C 186.605469 117.691406 187.4375 117.4375 188.210938 117.507813 C 188.980469 117.582031 189.601563 117.976563 190.070313 118.695313 Z M 194.359375 122.226563 L 192.78125 123.226563 L 193.859375 124.914063 L 193.15625 125.367188 L 192.078125 123.679688 L 189.078125 125.601563 C 188.628906 125.890625 188.375 126.132813 188.3125 126.320313 C 188.257813 126.515625 188.34375 126.789063 188.5625 127.132813 L 189.109375 127.976563 L 188.34375 128.460938 L 187.796875 127.617188 C 187.390625 126.980469 187.238281 126.460938 187.34375 126.054688 C 187.457031 125.648438 187.859375 125.21875 188.546875 124.773438 L 191.546875 122.851563 L 191.15625 122.257813 L 191.859375 121.804688 L 192.25 122.398438 L 193.828125 121.398438 Z M 196.695313 124.601563 L 197.226563 125.414063 L 189.554688 130.335938 L 189.023438 129.523438 Z M 194.878906 132.515625 C 194.460938 131.859375 194.085938 131.457031 193.753906 131.3125 C 193.417969 131.179688 193.050781 131.234375 192.644531 131.484375 C 192.320313 131.691406 192.121094 131.953125 192.050781 132.265625 C 191.988281 132.578125 192.066406 132.898438 192.285156 133.234375 C 192.566406 133.679688 192.972656 133.925781 193.503906 133.96875 C 194.042969 134.019531 194.613281 133.851563 195.207031 133.46875 L 195.410156 133.34375 Z M 196.300781 133.90625 L 193.144531 135.9375 L 192.628906 135.125 L 193.472656 134.578125 C 193.011719 134.609375 192.613281 134.535156 192.269531 134.359375 C 191.933594 134.179688 191.636719 133.890625 191.378906 133.484375 C 191.042969 132.984375 190.941406 132.476563 191.066406 131.96875 C 191.199219 131.46875 191.535156 131.046875 192.066406 130.703125 C 192.679688 130.308594 193.261719 130.199219 193.816406 130.375 C 194.378906 130.542969 194.898438 130.996094 195.378906 131.734375 L 196.113281 132.890625 L 196.207031 132.828125 C 196.621094 132.554688 196.863281 132.222656 196.925781 131.828125 C 196.996094 131.429688 196.886719 131.011719 196.597656 130.5625 C 196.417969 130.28125 196.207031 130.03125 195.957031 129.8125 C 195.707031 129.59375 195.425781 129.40625 195.113281 129.25 L 195.941406 128.703125 C 196.273438 128.921875 196.558594 129.15625 196.800781 129.40625 C 197.039063 129.648438 197.246094 129.902344 197.425781 130.171875 C 197.882813 130.890625 198.019531 131.554688 197.832031 132.171875 C 197.652344 132.785156 197.144531 133.363281 196.300781 133.90625 Z M 200.214844 139.609375 L 196.871094 141.75 L 196.339844 140.921875 L 199.636719 138.796875 C 200.167969 138.460938 200.5 138.117188 200.636719 137.765625 C 200.78125 137.410156 200.734375 137.054688 200.496094 136.703125 C 200.214844 136.257813 199.839844 136.007813 199.371094 135.953125 C 198.902344 135.890625 198.390625 136.039063 197.839844 136.390625 L 194.730469 138.390625 L 194.199219 137.578125 L 199.714844 134.03125 L 200.246094 134.84375 L 199.402344 135.390625 C 199.847656 135.382813 200.238281 135.460938 200.574219 135.625 C 200.90625 135.78125 201.1875 136.039063 201.417969 136.390625 C 201.78125 136.953125 201.859375 137.503906 201.652344 138.046875 C 201.453125 138.597656 200.972656 139.117188 200.214844 139.609375 Z M 204.707031 143.636719 L 207.691406 141.714844 L 208.207031 142.527344 L 200.535156 147.449219 L 200.019531 146.636719 L 200.847656 146.105469 C 200.410156 146.136719 200.023438 146.074219 199.691406 145.917969 C 199.367188 145.769531 199.085938 145.511719 198.847656 145.136719 C 198.460938 144.53125 198.414063 143.871094 198.707031 143.152344 C 198.996094 142.433594 199.582031 141.800781 200.457031 141.246094 C 201.320313 140.683594 202.136719 140.425781 202.910156 140.464844 C 203.679688 140.496094 204.257813 140.816406 204.644531 141.417969 C 204.882813 141.792969 205.007813 142.160156 205.019531 142.511719 C 205.027344 142.863281 204.925781 143.238281 204.707031 143.636719 Z M 200.988281 142.089844 C 200.320313 142.515625 199.878906 142.972656 199.660156 143.464844 C 199.441406 143.964844 199.464844 144.425781 199.738281 144.855469 C 200.019531 145.28125 200.429688 145.496094 200.972656 145.496094 C 201.511719 145.503906 202.117188 145.296875 202.785156 144.871094 C 203.449219 144.433594 203.886719 143.96875 204.097656 143.480469 C 204.316406 142.988281 204.285156 142.53125 204.003906 142.105469 C 203.730469 141.679688 203.324219 141.460938 202.785156 141.449219 C 202.253906 141.441406 201.652344 141.652344 200.988281 142.089844 Z M 208.964844 152.972656 C 209.015625 153.222656 208.980469 153.507813 208.855469 153.832031 C 208.730469 154.164063 208.519531 154.554688 208.230469 155.003906 L 206.808594 157.222656 L 206.183594 156.253906 L 207.527344 154.191406 C 207.878906 153.660156 208.074219 153.238281 208.105469 152.925781 C 208.136719 152.613281 208.03125 152.277344 207.792969 151.925781 L 207.167969 150.941406 L 204.058594 152.941406 L 203.496094 152.050781 L 210.855469 147.316406 L 212.152344 149.347656 C 212.628906 150.097656 212.8125 150.777344 212.699219 151.378906 C 212.59375 151.980469 212.1875 152.507813 211.480469 152.957031 C 211.011719 153.257813 210.5625 153.410156 210.136719 153.410156 C 209.707031 153.417969 209.316406 153.273438 208.964844 152.972656 Z M 210.605469 148.738281 L 207.996094 150.410156 L 208.730469 151.550781 C 209 151.976563 209.316406 152.226563 209.683594 152.300781 C 210.046875 152.382813 210.441406 152.285156 210.871094 152.003906 C 211.296875 151.730469 211.546875 151.417969 211.621094 151.066406 C 211.703125 150.703125 211.609375 150.308594 211.339844 149.878906 Z M 213.65625 157.113281 C 213.375 156.675781 212.957031 156.457031 212.40625 156.457031 C 211.863281 156.449219 211.265625 156.65625 210.609375 157.082031 C 209.941406 157.507813 209.5 157.960938 209.28125 158.441406 C 209.0625 158.929688 209.097656 159.398438 209.390625 159.847656 C 209.660156 160.285156 210.066406 160.503906 210.609375 160.503906 C 211.160156 160.511719 211.765625 160.308594 212.421875 159.894531 C 213.066406 159.476563 213.5 159.019531 213.71875 158.519531 C 213.945313 158.019531 213.925781 157.550781 213.65625 157.113281 Z M 214.421875 156.628906 C 214.867188 157.347656 214.960938 158.070313 214.703125 158.800781 C 214.453125 159.527344 213.878906 160.183594 212.984375 160.769531 C 212.078125 161.339844 211.234375 161.589844 210.453125 161.519531 C 209.679688 161.457031 209.070313 161.066406 208.625 160.347656 C 208.15625 159.628906 208.050781 158.898438 208.3125 158.160156 C 208.570313 157.433594 209.15625 156.78125 210.0625 156.207031 C 210.957031 155.625 211.789063 155.371094 212.5625 155.441406 C 213.332031 155.515625 213.953125 155.910156 214.421875 156.628906 Z M 214.949219 164.453125 C 214.59375 163.753906 214.253906 163.316406 213.933594 163.140625 C 213.621094 162.960938 213.25 162.984375 212.824219 163.203125 C 212.480469 163.378906 212.261719 163.617188 212.167969 163.921875 C 212.074219 164.222656 212.113281 164.550781 212.292969 164.90625 C 212.542969 165.375 212.925781 165.65625 213.449219 165.75 C 213.96875 165.851563 214.542969 165.742188 215.167969 165.421875 L 215.386719 165.3125 Z M 216.246094 165.953125 L 212.902344 167.671875 L 212.449219 166.8125 L 213.339844 166.359375 C 212.890625 166.335938 212.503906 166.222656 212.183594 166.015625 C 211.859375 165.804688 211.589844 165.488281 211.371094 165.0625 C 211.089844 164.53125 211.035156 164.019531 211.214844 163.53125 C 211.390625 163.039063 211.761719 162.652344 212.324219 162.359375 C 212.980469 162.027344 213.574219 161.976563 214.105469 162.203125 C 214.644531 162.421875 215.121094 162.925781 215.527344 163.71875 L 216.136719 164.921875 L 216.230469 164.875 C 216.675781 164.644531 216.953125 164.332031 217.058594 163.9375 C 217.160156 163.550781 217.09375 163.125 216.855469 162.65625 C 216.707031 162.355469 216.519531 162.085938 216.292969 161.84375 C 216.0625 161.605469 215.796875 161.390625 215.496094 161.203125 L 216.386719 160.75 C 216.6875 161 216.949219 161.261719 217.167969 161.53125 C 217.386719 161.792969 217.566406 162.0625 217.714844 162.34375 C 218.109375 163.101563 218.183594 163.78125 217.933594 164.375 C 217.691406 164.976563 217.128906 165.503906 216.246094 165.953125 Z M 220.460938 170.421875 L 223.664063 168.84375 L 224.085938 169.703125 L 215.898438 173.734375 L 215.476563 172.875 L 216.367188 172.4375 C 215.917969 172.425781 215.539063 172.320313 215.226563 172.125 C 214.921875 171.9375 214.671875 171.644531 214.476563 171.25 C 214.164063 170.601563 214.195313 169.9375 214.570313 169.25 C 214.945313 168.570313 215.589844 168.007813 216.507813 167.546875 C 217.433594 167.089844 218.277344 166.921875 219.039063 167.046875 C 219.808594 167.171875 220.351563 167.558594 220.664063 168.203125 C 220.859375 168.597656 220.9375 168.972656 220.898438 169.328125 C 220.867188 169.691406 220.71875 170.054688 220.460938 170.421875 Z M 216.945313 168.453125 C 216.234375 168.804688 215.742188 169.210938 215.460938 169.671875 C 215.1875 170.140625 215.167969 170.601563 215.398438 171.0625 C 215.625 171.519531 216.007813 171.78125 216.539063 171.84375 C 217.078125 171.914063 217.703125 171.773438 218.414063 171.421875 C 219.132813 171.078125 219.625 170.671875 219.898438 170.203125 C 220.167969 169.742188 220.1875 169.285156 219.960938 168.828125 C 219.730469 168.371094 219.351563 168.109375 218.820313 168.046875 C 218.289063 167.976563 217.664063 168.109375 216.945313 168.453125 Z M 216.945313 168.453125 "/>
<path style=" stroke:none;fill-rule:evenodd;fill:rgb(20%,20%,20%);fill-opacity:1;" d="M 169.632813 82.117188 L 170.367188 83.351563 L 165.789063 90.054688 L 172.117188 86.367188 L 172.632813 87.257813 L 165.070313 91.664063 L 164.351563 90.414063 L 168.914063 83.726563 L 162.601563 87.414063 L 162.070313 86.523438 Z M 171.867188 95.976563 L 171.429688 96.242188 L 169.085938 92.445313 C 168.46875 92.871094 168.089844 93.339844 167.945313 93.851563 C 167.808594 94.359375 167.914063 94.890625 168.257813 95.445313 C 168.445313 95.757813 168.667969 96.039063 168.929688 96.289063 C 169.199219 96.539063 169.515625 96.75 169.882813 96.929688 L 169.007813 97.476563 C 168.683594 97.265625 168.386719 97.027344 168.117188 96.757813 C 167.855469 96.484375 167.625 96.1875 167.429688 95.867188 C 166.9375 95.074219 166.808594 94.28125 167.039063 93.492188 C 167.265625 92.699219 167.828125 92.03125 168.726563 91.476563 C 169.632813 90.914063 170.484375 90.695313 171.289063 90.820313 C 172.101563 90.9375 172.742188 91.375 173.210938 92.132813 C 173.625 92.808594 173.714844 93.492188 173.476563 94.179688 C 173.246094 94.867188 172.710938 95.464844 171.867188 95.976563 Z M 171.632813 94.976563 C 172.132813 94.671875 172.453125 94.304688 172.601563 93.867188 C 172.746094 93.429688 172.695313 93.007813 172.445313 92.601563 C 172.164063 92.144531 171.792969 91.867188 171.335938 91.773438 C 170.875 91.679688 170.367188 91.769531 169.804688 92.039063 Z M 174.949219 95.269531 L 175.464844 96.082031 L 171.761719 99.816406 L 176.746094 98.144531 L 177.355469 99.113281 L 173.652344 102.847656 L 178.636719 101.160156 L 179.152344 101.988281 L 172.761719 104.144531 L 172.167969 103.175781 L 176.058594 99.253906 L 170.808594 101.019531 L 170.214844 100.050781 Z M 185.953125 109.050781 L 184.984375 109.675781 C 184.941406 109.226563 184.867188 108.820313 184.765625 108.457031 C 184.660156 108.09375 184.515625 107.777344 184.328125 107.503906 C 184.015625 107.003906 183.671875 106.691406 183.296875 106.566406 C 182.921875 106.441406 182.535156 106.503906 182.140625 106.753906 C 181.816406 106.964844 181.625 107.214844 181.5625 107.503906 C 181.507813 107.785156 181.59375 108.203125 181.8125 108.753906 L 182.03125 109.363281 C 182.320313 110.132813 182.390625 110.789063 182.234375 111.332031 C 182.085938 111.882813 181.710938 112.347656 181.109375 112.722656 C 180.390625 113.191406 179.707031 113.324219 179.0625 113.128906 C 178.425781 112.929688 177.84375 112.414063 177.3125 111.582031 C 177.101563 111.269531 176.925781 110.910156 176.78125 110.503906 C 176.632813 110.105469 176.519531 109.664063 176.4375 109.175781 L 177.46875 108.519531 C 177.46875 109.027344 177.519531 109.492188 177.625 109.910156 C 177.738281 110.335938 177.90625 110.714844 178.125 111.050781 C 178.457031 111.570313 178.820313 111.898438 179.21875 112.035156 C 179.625 112.167969 180.03125 112.105469 180.4375 111.847656 C 180.800781 111.605469 181.019531 111.320313 181.09375 110.988281 C 181.164063 110.664063 181.109375 110.238281 180.921875 109.707031 L 180.6875 109.097656 C 180.414063 108.339844 180.335938 107.707031 180.453125 107.207031 C 180.578125 106.707031 180.921875 106.28125 181.484375 105.925781 C 182.140625 105.5 182.785156 105.375 183.421875 105.550781 C 184.066406 105.71875 184.617188 106.160156 185.078125 106.878906 C 185.273438 107.191406 185.445313 107.53125 185.59375 107.894531 C 185.738281 108.261719 185.859375 108.644531 185.953125 109.050781 Z M 187.566406 115.574219 L 186.707031 116.121094 C 186.714844 115.796875 186.679688 115.496094 186.597656 115.214844 C 186.511719 114.933594 186.398438 114.671875 186.253906 114.433594 C 185.910156 113.902344 185.457031 113.617188 184.894531 113.574219 C 184.339844 113.523438 183.726563 113.714844 183.050781 114.152344 C 182.371094 114.578125 181.941406 115.050781 181.753906 115.574219 C 181.566406 116.105469 181.644531 116.636719 181.988281 117.167969 C 182.132813 117.40625 182.316406 117.621094 182.535156 117.808594 C 182.761719 117.996094 183.019531 118.160156 183.300781 118.308594 L 182.457031 118.839844 C 182.207031 118.683594 181.972656 118.5 181.753906 118.292969 C 181.535156 118.09375 181.335938 117.855469 181.160156 117.574219 C 180.679688 116.832031 180.558594 116.074219 180.800781 115.292969 C 181.039063 114.523438 181.605469 113.851563 182.503906 113.277344 C 183.398438 112.695313 184.246094 112.464844 185.050781 112.589844 C 185.851563 112.707031 186.496094 113.148438 186.988281 113.917969 C 187.152344 114.167969 187.285156 114.433594 187.378906 114.714844 C 187.480469 114.996094 187.542969 115.28125 187.566406 115.574219 Z M 189.304688 119.179688 C 189.023438 118.742188 188.605469 118.523438 188.054688 118.523438 C 187.511719 118.515625 186.914063 118.722656 186.257813 119.148438 C 185.589844 119.574219 185.148438 120.027344 184.929688 120.507813 C 184.710938 120.996094 184.746094 121.464844 185.039063 121.914063 C 185.308594 122.351563 185.714844 122.570313 186.257813 122.570313 C 186.808594 122.578125 187.414063 122.375 188.070313 121.960938 C 188.714844 121.542969 189.148438 121.085938 189.367188 120.585938 C 189.59375 120.085938 189.574219 119.617188 189.304688 119.179688 Z M 190.070313 118.695313 C 190.515625 119.414063 190.609375 120.136719 190.351563 120.867188 C 190.101563 121.59375 189.527344 122.25 188.632813 122.835938 C 187.726563 123.40625 186.882813 123.65625 186.101563 123.585938 C 185.328125 123.523438 184.71875 123.132813 184.273438 122.414063 C 183.804688 121.695313 183.699219 120.964844 183.960938 120.226563 C 184.21875 119.5 184.804688 118.847656 185.710938 118.273438 C 186.605469 117.691406 187.4375 117.4375 188.210938 117.507813 C 188.980469 117.582031 189.601563 117.976563 190.070313 118.695313 Z M 194.359375 122.226563 L 192.78125 123.226563 L 193.859375 124.914063 L 193.15625 125.367188 L 192.078125 123.679688 L 189.078125 125.601563 C 188.628906 125.890625 188.375 126.132813 188.3125 126.320313 C 188.257813 126.515625 188.34375 126.789063 188.5625 127.132813 L 189.109375 127.976563 L 188.34375 128.460938 L 187.796875 127.617188 C 187.390625 126.980469 187.238281 126.460938 187.34375 126.054688 C 187.457031 125.648438 187.859375 125.21875 188.546875 124.773438 L 191.546875 122.851563 L 191.15625 122.257813 L 191.859375 121.804688 L 192.25 122.398438 L 193.828125 121.398438 Z M 196.695313 124.601563 L 197.226563 125.414063 L 189.554688 130.335938 L 189.023438 129.523438 Z M 194.878906 132.515625 C 194.460938 131.859375 194.085938 131.457031 193.753906 131.3125 C 193.417969 131.179688 193.050781 131.234375 192.644531 131.484375 C 192.320313 131.691406 192.121094 131.953125 192.050781 132.265625 C 191.988281 132.578125 192.066406 132.898438 192.285156 133.234375 C 192.566406 133.679688 192.972656 133.925781 193.503906 133.96875 C 194.042969 134.019531 194.613281 133.851563 195.207031 133.46875 L 195.410156 133.34375 Z M 196.300781 133.90625 L 193.144531 135.9375 L 192.628906 135.125 L 193.472656 134.578125 C 193.011719 134.609375 192.613281 134.535156 192.269531 134.359375 C 191.933594 134.179688 191.636719 133.890625 191.378906 133.484375 C 191.042969 132.984375 190.941406 132.476563 191.066406 131.96875 C 191.199219 131.46875 191.535156 131.046875 192.066406 130.703125 C 192.679688 130.308594 193.261719 130.199219 193.816406 130.375 C 194.378906 130.542969 194.898438 130.996094 195.378906 131.734375 L 196.113281 132.890625 L 196.207031 132.828125 C 196.621094 132.554688 196.863281 132.222656 196.925781 131.828125 C 196.996094 131.429688 196.886719 131.011719 196.597656 130.5625 C 196.417969 130.28125 196.207031 130.03125 195.957031 129.8125 C 195.707031 129.59375 195.425781 129.40625 195.113281 129.25 L 195.941406 128.703125 C 196.273438 128.921875 196.558594 129.15625 196.800781 129.40625 C 197.039063 129.648438 197.246094 129.902344 197.425781 130.171875 C 197.882813 130.890625 198.019531 131.554688 197.832031 132.171875 C 197.652344 132.785156 197.144531 133.363281 196.300781 133.90625 Z M 200.214844 139.609375 L 196.871094 141.75 L 196.339844 140.921875 L 199.636719 138.796875 C 200.167969 138.460938 200.5 138.117188 200.636719 137.765625 C 200.78125 137.410156 200.734375 137.054688 200.496094 136.703125 C 200.214844 136.257813 199.839844 136.007813 199.371094 135.953125 C 198.902344 135.890625 198.390625 136.039063 197.839844 136.390625 L 194.730469 138.390625 L 194.199219 137.578125 L 199.714844 134.03125 L 200.246094 134.84375 L 199.402344 135.390625 C 199.847656 135.382813 200.238281 135.460938 200.574219 135.625 C 200.90625 135.78125 201.1875 136.039063 201.417969 136.390625 C 201.78125 136.953125 201.859375 137.503906 201.652344 138.046875 C 201.453125 138.597656 200.972656 139.117188 200.214844 139.609375 Z M 204.707031 143.636719 L 207.691406 141.714844 L 208.207031 142.527344 L 200.535156 147.449219 L 200.019531 146.636719 L 200.847656 146.105469 C 200.410156 146.136719 200.023438 146.074219 199.691406 145.917969 C 199.367188 145.769531 199.085938 145.511719 198.847656 145.136719 C 198.460938 144.53125 198.414063 143.871094 198.707031 143.152344 C 198.996094 142.433594 199.582031 141.800781 200.457031 141.246094 C 201.320313 140.683594 202.136719 140.425781 202.910156 140.464844 C 203.679688 140.496094 204.257813 140.816406 204.644531 141.417969 C 204.882813 141.792969 205.007813 142.160156 205.019531 142.511719 C 205.027344 142.863281 204.925781 143.238281 204.707031 143.636719 Z M 200.988281 142.089844 C 200.320313 142.515625 199.878906 142.972656 199.660156 143.464844 C 199.441406 143.964844 199.464844 144.425781 199.738281 144.855469 C 200.019531 145.28125 200.429688 145.496094 200.972656 145.496094 C 201.511719 145.503906 202.117188 145.296875 202.785156 144.871094 C 203.449219 144.433594 203.886719 143.96875 204.097656 143.480469 C 204.316406 142.988281 204.285156 142.53125 204.003906 142.105469 C 203.730469 141.679688 203.324219 141.460938 202.785156 141.449219 C 202.253906 141.441406 201.652344 141.652344 200.988281 142.089844 Z M 208.964844 152.972656 C 209.015625 153.222656 208.980469 153.507813 208.855469 153.832031 C 208.730469 154.164063 208.519531 154.554688 208.230469 155.003906 L 206.808594 157.222656 L 206.183594 156.253906 L 207.527344 154.191406 C 207.878906 153.660156 208.074219 153.238281 208.105469 152.925781 C 208.136719 152.613281 208.03125 152.277344 207.792969 151.925781 L 207.167969 150.941406 L 204.058594 152.941406 L 203.496094 152.050781 L 210.855469 147.316406 L 212.152344 149.347656 C 212.628906 150.097656 212.8125 150.777344 212.699219 151.378906 C 212.59375 151.980469 212.1875 152.507813 211.480469 152.957031 C 211.011719 153.257813 210.5625 153.410156 210.136719 153.410156 C 209.707031 153.417969 209.316406 153.273438 208.964844 152.972656 Z M 210.605469 148.738281 L 207.996094 150.410156 L 208.730469 151.550781 C 209 151.976563 209.316406 152.226563 209.683594 152.300781 C 210.046875 152.382813 210.441406 152.285156 210.871094 152.003906 C 211.296875 151.730469 211.546875 151.417969 211.621094 151.066406 C 211.703125 150.703125 211.609375 150.308594 211.339844 149.878906 Z M 213.65625 157.113281 C 213.375 156.675781 212.957031 156.457031 212.40625 156.457031 C 211.863281 156.449219 211.265625 156.65625 210.609375 157.082031 C 209.941406 157.507813 209.5 157.960938 209.28125 158.441406 C 209.0625 158.929688 209.097656 159.398438 209.390625 159.847656 C 209.660156 160.285156 210.066406 160.503906 210.609375 160.503906 C 211.160156 160.511719 211.765625 160.308594 212.421875 159.894531 C 213.066406 159.476563 213.5 159.019531 213.71875 158.519531 C 213.945313 158.019531 213.925781 157.550781 213.65625 157.113281 Z M 214.421875 156.628906 C 214.867188 157.347656 214.960938 158.070313 214.703125 158.800781 C 214.453125 159.527344 213.878906 160.183594 212.984375 160.769531 C 212.078125 161.339844 211.234375 161.589844 210.453125 161.519531 C 209.679688 161.457031 209.070313 161.066406 208.625 160.347656 C 208.15625 159.628906 208.050781 158.898438 208.3125 158.160156 C 208.570313 157.433594 209.15625 156.78125 210.0625 156.207031 C 210.957031 155.625 211.789063 155.371094 212.5625 155.441406 C 213.332031 155.515625 213.953125 155.910156 214.421875 156.628906 Z M 214.949219 164.453125 C 214.59375 163.753906 214.253906 163.316406 213.933594 163.140625 C 213.621094 162.960938 213.25 162.984375 212.824219 163.203125 C 212.480469 163.378906 212.261719 163.617188 212.167969 163.921875 C 212.074219 164.222656 212.113281 164.550781 212.292969 164.90625 C 212.542969 165.375 212.925781 165.65625 213.449219 165.75 C 213.96875 165.851563 214.542969 165.742188 215.167969 165.421875 L 215.386719 165.3125 Z M 216.246094 165.953125 L 212.902344 167.671875 L 212.449219 166.8125 L 213.339844 166.359375 C 212.890625 166.335938 212.503906 166.222656 212.183594 166.015625 C 211.859375 165.804688 211.589844 165.488281 211.371094 165.0625 C 211.089844 164.53125 211.035156 164.019531 211.214844 163.53125 C 211.390625 163.039063 211.761719 162.652344 212.324219 162.359375 C 212.980469 162.027344 213.574219 161.976563 214.105469 162.203125 C 214.644531 162.421875 215.121094 162.925781 215.527344 163.71875 L 216.136719 164.921875 L 216.230469 164.875 C 216.675781 164.644531 216.953125 164.332031 217.058594 163.9375 C 217.160156 163.550781 217.09375 163.125 216.855469 162.65625 C 216.707031 162.355469 216.519531 162.085938 216.292969 161.84375 C 216.0625 161.605469 215.796875 161.390625 215.496094 161.203125 L 216.386719 160.75 C 216.6875 161 216.949219 161.261719 217.167969 161.53125 C 217.386719 161.792969 217.566406 162.0625 217.714844 162.34375 C 218.109375 163.101563 218.183594 163.78125 217.933594 164.375 C 217.691406 164.976563 217.128906 165.503906 216.246094 165.953125 Z M 220.460938 170.421875 L 223.664063 168.84375 L 224.085938 169.703125 L 215.898438 173.734375 L 215.476563 172.875 L 216.367188 172.4375 C 215.917969 172.425781 215.539063 172.320313 215.226563 172.125 C 214.921875 171.9375 214.671875 171.644531 214.476563 171.25 C 214.164063 170.601563 214.195313 169.9375 214.570313 169.25 C 214.945313 168.570313 215.589844 168.007813 216.507813 167.546875 C 217.433594 167.089844 218.277344 166.921875 219.039063 167.046875 C 219.808594 167.171875 220.351563 167.558594 220.664063 168.203125 C 220.859375 168.597656 220.9375 168.972656 220.898438 169.328125 C 220.867188 169.691406 220.71875 170.054688 220.460938 170.421875 Z M 216.945313 168.453125 C 216.234375 168.804688 215.742188 169.210938 215.460938 169.671875 C 215.1875 170.140625 215.167969 170.601563 215.398438 171.0625 C 215.625 171.519531 216.007813 171.78125 216.539063 171.84375 C 217.078125 171.914063 217.703125 171.773438 218.414063 171.421875 C 219.132813 171.078125 219.625 170.671875 219.898438 170.203125 C 220.167969 169.742188 220.1875 169.285156 219.960938 168.828125 C 219.730469 168.371094 219.351563 168.109375 218.820313 168.046875 C 218.289063 167.976563 217.664063 168.109375 216.945313 168.453125 Z M 216.945313 168.453125 "/>
<path style="fill:none;stroke-width:3;stroke-linecap:round;stroke-linejoin:round;stroke:rgb(100%,100%,100%);stroke-opacity:1;stroke-miterlimit:10;" d="M 83.097656 21.253906 L 84.738281 27.707031 L 83.769531 27.957031 L 83.082031 25.238281 L 75.582031 27.160156 L 75.316406 26.128906 L 82.816406 24.207031 L 82.128906 21.503906 Z M 81.578125 34.609375 L 77.734375 35.59375 L 77.5 34.640625 L 81.296875 33.671875 C 81.898438 33.515625 82.320313 33.289063 82.5625 33 C 82.800781 32.707031 82.867188 32.359375 82.765625 31.953125 C 82.628906 31.429688 82.347656 31.070313 81.921875 30.875 C 81.492188 30.675781 80.96875 30.65625 80.34375 30.8125 L 76.75 31.734375 L 76.515625 30.796875 L 85.359375 28.53125 L 85.59375 29.46875 L 82.125 30.359375 C 82.5625 30.472656 82.914063 30.660156 83.1875 30.921875 C 83.457031 31.179688 83.644531 31.515625 83.75 31.921875 C 83.90625 32.566406 83.800781 33.117188 83.4375 33.578125 C 83.070313 34.035156 82.453125 34.378906 81.578125 34.609375 Z M 82.113281 39.25 C 81.914063 38.5 81.679688 38 81.410156 37.75 C 81.136719 37.5 80.773438 37.4375 80.316406 37.5625 C 79.941406 37.664063 79.667969 37.851563 79.503906 38.125 C 79.347656 38.40625 79.320313 38.738281 79.425781 39.125 C 79.558594 39.632813 79.871094 39.992188 80.363281 40.203125 C 80.863281 40.410156 81.449219 40.425781 82.128906 40.25 L 82.363281 40.1875 Z M 83.050781 41 L 79.425781 41.96875 L 79.175781 41.03125 L 80.144531 40.78125 C 79.707031 40.664063 79.347656 40.472656 79.066406 40.203125 C 78.792969 39.929688 78.597656 39.5625 78.472656 39.09375 C 78.316406 38.507813 78.378906 38 78.660156 37.5625 C 78.941406 37.125 79.382813 36.828125 79.988281 36.671875 C 80.695313 36.476563 81.289063 36.539063 81.769531 36.875 C 82.246094 37.207031 82.601563 37.800781 82.832031 38.65625 L 83.175781 39.96875 L 83.285156 39.9375 C 83.761719 39.8125 84.089844 39.566406 84.269531 39.203125 C 84.457031 38.847656 84.480469 38.414063 84.347656 37.90625 C 84.261719 37.582031 84.132813 37.28125 83.957031 37 C 83.789063 36.71875 83.585938 36.453125 83.347656 36.203125 L 84.300781 35.953125 C 84.550781 36.257813 84.746094 36.550781 84.894531 36.84375 C 85.050781 37.144531 85.167969 37.453125 85.253906 37.765625 C 85.472656 38.597656 85.398438 39.28125 85.035156 39.8125 C 84.679688 40.34375 84.019531 40.738281 83.050781 41 Z M 87.148438 46.351563 L 86.164063 46.617188 C 86.265625 46.304688 86.320313 46 86.320313 45.710938 C 86.328125 45.429688 86.296875 45.152344 86.226563 44.882813 C 86.058594 44.265625 85.714844 43.851563 85.195313 43.632813 C 84.683594 43.414063 84.042969 43.40625 83.273438 43.617188 C 82.492188 43.824219 81.929688 44.152344 81.585938 44.601563 C 81.25 45.058594 81.167969 45.59375 81.335938 46.210938 C 81.40625 46.480469 81.523438 46.734375 81.679688 46.976563 C 81.835938 47.214844 82.027344 47.445313 82.257813 47.664063 L 81.289063 47.929688 C 81.089844 47.699219 80.914063 47.453125 80.757813 47.195313 C 80.609375 46.933594 80.496094 46.648438 80.414063 46.335938 C 80.183594 45.480469 80.296875 44.71875 80.757813 44.054688 C 81.226563 43.386719 81.976563 42.914063 83.007813 42.632813 C 84.027344 42.363281 84.902344 42.40625 85.632813 42.757813 C 86.359375 43.101563 86.84375 43.714844 87.085938 44.601563 C 87.167969 44.890625 87.214844 45.183594 87.226563 45.476563 C 87.234375 45.777344 87.210938 46.070313 87.148438 46.351563 Z M 86.652344 53.335938 L 82.824219 54.398438 L 82.558594 53.445313 L 86.339844 52.398438 C 86.941406 52.230469 87.359375 52 87.589844 51.710938 C 87.828125 51.417969 87.894531 51.0625 87.792969 50.648438 C 87.644531 50.136719 87.347656 49.78125 86.902344 49.585938 C 86.464844 49.398438 85.933594 49.390625 85.308594 49.570313 L 81.746094 50.554688 L 81.496094 49.632813 L 90.292969 47.195313 L 90.542969 48.117188 L 87.089844 49.070313 C 87.535156 49.195313 87.894531 49.382813 88.167969 49.632813 C 88.4375 49.882813 88.625 50.210938 88.730469 50.617188 C 88.90625 51.261719 88.824219 51.8125 88.480469 52.273438 C 88.136719 52.742188 87.527344 53.09375 86.652344 53.335938 Z M 88.574219 60.097656 L 88.089844 60.269531 L 86.558594 56.082031 C 85.878906 56.382813 85.417969 56.769531 85.167969 57.238281 C 84.925781 57.707031 84.921875 58.246094 85.152344 58.863281 C 85.277344 59.207031 85.441406 59.523438 85.652344 59.816406 C 85.871094 60.105469 86.136719 60.378906 86.449219 60.628906 L 85.480469 60.988281 C 85.21875 60.714844 84.984375 60.425781 84.777344 60.113281 C 84.566406 59.800781 84.394531 59.464844 84.261719 59.113281 C 83.9375 58.226563 83.96875 57.417969 84.355469 56.691406 C 84.738281 55.972656 85.417969 55.433594 86.386719 55.066406 C 87.394531 54.703125 88.285156 54.65625 89.058594 54.925781 C 89.828125 55.199219 90.371094 55.746094 90.683594 56.582031 C 90.953125 57.332031 90.902344 58.019531 90.527344 58.644531 C 90.152344 59.277344 89.5 59.761719 88.574219 60.097656 Z M 88.558594 59.066406 C 89.109375 58.867188 89.5 58.570313 89.730469 58.175781 C 89.957031 57.777344 89.988281 57.351563 89.824219 56.894531 C 89.636719 56.394531 89.324219 56.050781 88.886719 55.863281 C 88.457031 55.675781 87.949219 55.664063 87.355469 55.832031 Z M 92.703125 63.695313 C 92.703125 63.578125 92.6875 63.453125 92.65625 63.320313 C 92.625 63.195313 92.570313 63.058594 92.5 62.914063 C 92.25 62.433594 91.878906 62.160156 91.390625 62.085938 C 90.898438 62.015625 90.328125 62.15625 89.671875 62.507813 L 86.625 64.132813 L 86.171875 63.289063 L 91.953125 60.195313 L 92.40625 61.039063 L 91.515625 61.523438 C 91.960938 61.523438 92.347656 61.625 92.671875 61.820313 C 92.992188 62.007813 93.265625 62.304688 93.484375 62.710938 C 93.515625 62.773438 93.546875 62.839844 93.578125 62.914063 C 93.609375 62.996094 93.640625 63.085938 93.671875 63.179688 Z M 97.269531 67.550781 L 94.363281 69.113281 L 95.003906 70.300781 C 95.230469 70.726563 95.535156 70.992188 95.910156 71.097656 C 96.292969 71.199219 96.722656 71.128906 97.191406 70.878906 C 97.648438 70.628906 97.941406 70.316406 98.066406 69.941406 C 98.191406 69.566406 98.136719 69.167969 97.910156 68.738281 Z M 97.628906 66.160156 L 98.769531 68.285156 C 99.175781 69.058594 99.289063 69.742188 99.113281 70.347656 C 98.933594 70.960938 98.472656 71.472656 97.722656 71.878906 C 96.949219 72.285156 96.261719 72.386719 95.660156 72.191406 C 95.054688 72.003906 94.550781 71.523438 94.144531 70.753906 L 93.503906 69.566406 L 90.410156 71.222656 L 89.910156 70.285156 Z M 97.632813 76.675781 C 97.171875 76.039063 96.773438 75.660156 96.429688 75.535156 C 96.09375 75.402344 95.730469 75.472656 95.335938 75.753906 C 95.023438 75.980469 94.839844 76.253906 94.789063 76.566406 C 94.734375 76.878906 94.824219 77.195313 95.054688 77.519531 C 95.367188 77.945313 95.789063 78.167969 96.320313 78.191406 C 96.859375 78.210938 97.421875 78.011719 98.007813 77.597656 L 98.195313 77.457031 Z M 99.117188 78.003906 L 96.070313 80.175781 L 95.507813 79.378906 L 96.320313 78.800781 C 95.871094 78.851563 95.46875 78.792969 95.117188 78.628906 C 94.761719 78.472656 94.449219 78.199219 94.179688 77.816406 C 93.824219 77.324219 93.695313 76.824219 93.789063 76.316406 C 93.890625 75.804688 94.199219 75.371094 94.710938 75.003906 C 95.3125 74.578125 95.898438 74.4375 96.460938 74.582031 C 97.03125 74.71875 97.574219 75.152344 98.085938 75.878906 L 98.882813 76.972656 L 98.960938 76.910156 C 99.367188 76.617188 99.59375 76.273438 99.648438 75.878906 C 99.699219 75.484375 99.570313 75.066406 99.257813 74.628906 C 99.058594 74.359375 98.828125 74.125 98.570313 73.925781 C 98.308594 73.71875 98.015625 73.542969 97.695313 73.394531 L 98.507813 72.816406 C 98.851563 73.015625 99.148438 73.230469 99.398438 73.457031 C 99.648438 73.6875 99.867188 73.933594 100.054688 74.191406 C 100.554688 74.890625 100.726563 75.550781 100.570313 76.175781 C 100.414063 76.808594 99.929688 77.417969 99.117188 78.003906 Z M 104.195313 80.621094 C 104.171875 80.507813 104.125 80.394531 104.054688 80.277344 C 103.980469 80.152344 103.886719 80.039063 103.773438 79.933594 C 103.375 79.558594 102.933594 79.414063 102.445313 79.496094 C 101.964844 79.582031 101.464844 79.886719 100.945313 80.417969 L 98.554688 82.917969 L 97.851563 82.246094 L 102.398438 77.511719 L 103.101563 78.183594 L 102.398438 78.917969 C 102.824219 78.761719 103.21875 78.730469 103.585938 78.824219 C 103.960938 78.917969 104.3125 79.121094 104.648438 79.433594 C 104.699219 79.488281 104.746094 79.542969 104.789063 79.605469 C 104.839844 79.667969 104.898438 79.746094 104.960938 79.839844 Z M 106.929688 78.164063 L 107.726563 78.726563 L 104.617188 83.132813 L 108.617188 82.492188 L 109.617188 83.210938 L 105.289063 83.898438 L 105.945313 88.648438 L 104.914063 87.914063 L 104.304688 83.570313 L 102.460938 86.179688 L 101.664063 85.617188 Z M 116.070313 88.226563 C 116.265625 88.382813 116.429688 88.628906 116.554688 88.960938 C 116.6875 89.296875 116.792969 89.722656 116.867188 90.242188 L 117.257813 92.835938 L 116.148438 92.523438 L 115.820313 90.101563 C 115.726563 89.46875 115.585938 89.023438 115.398438 88.773438 C 115.210938 88.515625 114.914063 88.328125 114.507813 88.210938 L 113.398438 87.882813 L 112.382813 91.445313 L 111.351563 91.164063 L 113.757813 82.742188 L 116.070313 83.398438 C 116.933594 83.648438 117.523438 84.035156 117.835938 84.554688 C 118.148438 85.078125 118.183594 85.742188 117.945313 86.554688 C 117.796875 87.085938 117.5625 87.5 117.242188 87.789063 C 116.929688 88.082031 116.539063 88.226563 116.070313 88.226563 Z M 114.523438 83.960938 L 113.664063 86.945313 L 114.945313 87.320313 C 115.445313 87.457031 115.855469 87.4375 116.179688 87.257813 C 116.5 87.070313 116.730469 86.734375 116.867188 86.242188 C 117.011719 85.753906 116.996094 85.347656 116.820313 85.023438 C 116.640625 84.703125 116.304688 84.472656 115.804688 84.335938 Z M 122.035156 87.253906 C 121.511719 87.253906 121.101563 87.484375 120.800781 87.941406 C 120.507813 88.402344 120.363281 89.019531 120.363281 89.800781 C 120.363281 90.59375 120.511719 91.214844 120.816406 91.660156 C 121.117188 92.097656 121.535156 92.316406 122.066406 92.316406 C 122.574219 92.316406 122.976563 92.09375 123.269531 91.644531 C 123.570313 91.1875 123.722656 90.566406 123.722656 89.785156 C 123.722656 89.015625 123.566406 88.402344 123.253906 87.941406 C 122.949219 87.484375 122.542969 87.253906 122.035156 87.253906 Z M 122.035156 86.347656 C 122.878906 86.347656 123.539063 86.652344 124.019531 87.253906 C 124.507813 87.859375 124.753906 88.699219 124.753906 89.769531 C 124.761719 90.84375 124.527344 91.691406 124.050781 92.316406 C 123.570313 92.933594 122.910156 93.238281 122.066406 93.238281 C 121.210938 93.238281 120.542969 92.9375 120.066406 92.332031 C 119.585938 91.71875 119.339844 90.875 119.332031 89.800781 C 119.332031 88.730469 119.566406 87.886719 120.035156 87.269531 C 120.511719 86.65625 121.179688 86.347656 122.035156 86.347656 Z M 129.214844 88.78125 C 128.464844 88.980469 127.964844 89.214844 127.714844 89.484375 C 127.472656 89.757813 127.417969 90.121094 127.542969 90.578125 C 127.636719 90.953125 127.816406 91.226563 128.089844 91.390625 C 128.359375 91.546875 128.6875 91.574219 129.074219 91.46875 C 129.582031 91.34375 129.941406 91.039063 130.152344 90.546875 C 130.371094 90.046875 130.390625 89.453125 130.214844 88.765625 L 130.152344 88.546875 Z M 130.964844 87.859375 L 131.917969 91.484375 L 130.980469 91.734375 L 130.730469 90.765625 C 130.613281 91.203125 130.421875 91.558594 130.152344 91.828125 C 129.878906 92.101563 129.515625 92.296875 129.058594 92.421875 C 128.464844 92.570313 127.949219 92.5 127.511719 92.21875 C 127.074219 91.9375 126.777344 91.496094 126.621094 90.890625 C 126.433594 90.171875 126.503906 89.578125 126.839844 89.109375 C 127.171875 88.640625 127.765625 88.296875 128.621094 88.078125 L 129.933594 87.734375 L 129.902344 87.625 C 129.777344 87.136719 129.535156 86.796875 129.183594 86.609375 C 128.828125 86.421875 128.394531 86.398438 127.886719 86.53125 C 127.5625 86.617188 127.261719 86.742188 126.980469 86.90625 C 126.699219 87.074219 126.433594 87.289063 126.183594 87.546875 L 125.933594 86.578125 C 126.238281 86.328125 126.535156 86.132813 126.839844 85.984375 C 127.152344 85.828125 127.464844 85.710938 127.777344 85.625 C 128.597656 85.40625 129.269531 85.484375 129.792969 85.859375 C 130.324219 86.226563 130.714844 86.890625 130.964844 87.859375 Z M 136.144531 84.535156 L 135.191406 81.113281 L 136.128906 80.863281 L 138.582031 89.644531 L 137.644531 89.894531 L 137.378906 88.941406 C 137.285156 89.378906 137.113281 89.734375 136.863281 90.003906 C 136.621094 90.277344 136.292969 90.46875 135.878906 90.582031 C 135.179688 90.78125 134.527344 90.636719 133.925781 90.144531 C 133.332031 89.644531 132.894531 88.902344 132.613281 87.910156 C 132.34375 86.910156 132.339844 86.050781 132.597656 85.332031 C 132.847656 84.605469 133.320313 84.140625 134.019531 83.941406 C 134.433594 83.828125 134.816406 83.824219 135.160156 83.925781 C 135.511719 84.019531 135.839844 84.222656 136.144531 84.535156 Z M 133.566406 87.644531 C 133.785156 88.40625 134.097656 88.964844 134.503906 89.316406 C 134.910156 89.671875 135.355469 89.78125 135.847656 89.644531 C 136.347656 89.511719 136.675781 89.183594 136.832031 88.660156 C 136.996094 88.140625 136.972656 87.5 136.753906 86.738281 C 136.542969 85.980469 136.238281 85.425781 135.832031 85.082031 C 135.433594 84.730469 134.988281 84.621094 134.488281 84.753906 C 133.996094 84.890625 133.667969 85.21875 133.503906 85.738281 C 133.335938 86.25 133.355469 86.886719 133.566406 87.644531 Z M 133.566406 87.644531 "/>
<path style=" stroke:none;fill-rule:evenodd;fill:rgb(20%,20%,20%);fill-opacity:1;" d="M 83.097656 21.253906 L 84.738281 27.707031 L 83.769531 27.957031 L 83.082031 25.238281 L 75.582031 27.160156 L 75.316406 26.128906 L 82.816406 24.207031 L 82.128906 21.503906 Z M 81.578125 34.609375 L 77.734375 35.59375 L 77.5 34.640625 L 81.296875 33.671875 C 81.898438 33.515625 82.320313 33.289063 82.5625 33 C 82.800781 32.707031 82.867188 32.359375 82.765625 31.953125 C 82.628906 31.429688 82.347656 31.070313 81.921875 30.875 C 81.492188 30.675781 80.96875 30.65625 80.34375 30.8125 L 76.75 31.734375 L 76.515625 30.796875 L 85.359375 28.53125 L 85.59375 29.46875 L 82.125 30.359375 C 82.5625 30.472656 82.914063 30.660156 83.1875 30.921875 C 83.457031 31.179688 83.644531 31.515625 83.75 31.921875 C 83.90625 32.566406 83.800781 33.117188 83.4375 33.578125 C 83.070313 34.035156 82.453125 34.378906 81.578125 34.609375 Z M 82.113281 39.25 C 81.914063 38.5 81.679688 38 81.410156 37.75 C 81.136719 37.5 80.773438 37.4375 80.316406 37.5625 C 79.941406 37.664063 79.667969 37.851563 79.503906 38.125 C 79.347656 38.40625 79.320313 38.738281 79.425781 39.125 C 79.558594 39.632813 79.871094 39.992188 80.363281 40.203125 C 80.863281 40.410156 81.449219 40.425781 82.128906 40.25 L 82.363281 40.1875 Z M 83.050781 41 L 79.425781 41.96875 L 79.175781 41.03125 L 80.144531 40.78125 C 79.707031 40.664063 79.347656 40.472656 79.066406 40.203125 C 78.792969 39.929688 78.597656 39.5625 78.472656 39.09375 C 78.316406 38.507813 78.378906 38 78.660156 37.5625 C 78.941406 37.125 79.382813 36.828125 79.988281 36.671875 C 80.695313 36.476563 81.289063 36.539063 81.769531 36.875 C 82.246094 37.207031 82.601563 37.800781 82.832031 38.65625 L 83.175781 39.96875 L 83.285156 39.9375 C 83.761719 39.8125 84.089844 39.566406 84.269531 39.203125 C 84.457031 38.847656 84.480469 38.414063 84.347656 37.90625 C 84.261719 37.582031 84.132813 37.28125 83.957031 37 C 83.789063 36.71875 83.585938 36.453125 83.347656 36.203125 L 84.300781 35.953125 C 84.550781 36.257813 84.746094 36.550781 84.894531 36.84375 C 85.050781 37.144531 85.167969 37.453125 85.253906 37.765625 C 85.472656 38.597656 85.398438 39.28125 85.035156 39.8125 C 84.679688 40.34375 84.019531 40.738281 83.050781 41 Z M 87.148438 46.351563 L 86.164063 46.617188 C 86.265625 46.304688 86.320313 46 86.320313 45.710938 C 86.328125 45.429688 86.296875 45.152344 86.226563 44.882813 C 86.058594 44.265625 85.714844 43.851563 85.195313 43.632813 C 84.683594 43.414063 84.042969 43.40625 83.273438 43.617188 C 82.492188 43.824219 81.929688 44.152344 81.585938 44.601563 C 81.25 45.058594 81.167969 45.59375 81.335938 46.210938 C 81.40625 46.480469 81.523438 46.734375 81.679688 46.976563 C 81.835938 47.214844 82.027344 47.445313 82.257813 47.664063 L 81.289063 47.929688 C 81.089844 47.699219 80.914063 47.453125 80.757813 47.195313 C 80.609375 46.933594 80.496094 46.648438 80.414063 46.335938 C 80.183594 45.480469 80.296875 44.71875 80.757813 44.054688 C 81.226563 43.386719 81.976563 42.914063 83.007813 42.632813 C 84.027344 42.363281 84.902344 42.40625 85.632813 42.757813 C 86.359375 43.101563 86.84375 43.714844 87.085938 44.601563 C 87.167969 44.890625 87.214844 45.183594 87.226563 45.476563 C 87.234375 45.777344 87.210938 46.070313 87.148438 46.351563 Z M 86.652344 53.335938 L 82.824219 54.398438 L 82.558594 53.445313 L 86.339844 52.398438 C 86.941406 52.230469 87.359375 52 87.589844 51.710938 C 87.828125 51.417969 87.894531 51.0625 87.792969 50.648438 C 87.644531 50.136719 87.347656 49.78125 86.902344 49.585938 C 86.464844 49.398438 85.933594 49.390625 85.308594 49.570313 L 81.746094 50.554688 L 81.496094 49.632813 L 90.292969 47.195313 L 90.542969 48.117188 L 87.089844 49.070313 C 87.535156 49.195313 87.894531 49.382813 88.167969 49.632813 C 88.4375 49.882813 88.625 50.210938 88.730469 50.617188 C 88.90625 51.261719 88.824219 51.8125 88.480469 52.273438 C 88.136719 52.742188 87.527344 53.09375 86.652344 53.335938 Z M 88.574219 60.097656 L 88.089844 60.269531 L 86.558594 56.082031 C 85.878906 56.382813 85.417969 56.769531 85.167969 57.238281 C 84.925781 57.707031 84.921875 58.246094 85.152344 58.863281 C 85.277344 59.207031 85.441406 59.523438 85.652344 59.816406 C 85.871094 60.105469 86.136719 60.378906 86.449219 60.628906 L 85.480469 60.988281 C 85.21875 60.714844 84.984375 60.425781 84.777344 60.113281 C 84.566406 59.800781 84.394531 59.464844 84.261719 59.113281 C 83.9375 58.226563 83.96875 57.417969 84.355469 56.691406 C 84.738281 55.972656 85.417969 55.433594 86.386719 55.066406 C 87.394531 54.703125 88.285156 54.65625 89.058594 54.925781 C 89.828125 55.199219 90.371094 55.746094 90.683594 56.582031 C 90.953125 57.332031 90.902344 58.019531 90.527344 58.644531 C 90.152344 59.277344 89.5 59.761719 88.574219 60.097656 Z M 88.558594 59.066406 C 89.109375 58.867188 89.5 58.570313 89.730469 58.175781 C 89.957031 57.777344 89.988281 57.351563 89.824219 56.894531 C 89.636719 56.394531 89.324219 56.050781 88.886719 55.863281 C 88.457031 55.675781 87.949219 55.664063 87.355469 55.832031 Z M 92.703125 63.695313 C 92.703125 63.578125 92.6875 63.453125 92.65625 63.320313 C 92.625 63.195313 92.570313 63.058594 92.5 62.914063 C 92.25 62.433594 91.878906 62.160156 91.390625 62.085938 C 90.898438 62.015625 90.328125 62.15625 89.671875 62.507813 L 86.625 64.132813 L 86.171875 63.289063 L 91.953125 60.195313 L 92.40625 61.039063 L 91.515625 61.523438 C 91.960938 61.523438 92.347656 61.625 92.671875 61.820313 C 92.992188 62.007813 93.265625 62.304688 93.484375 62.710938 C 93.515625 62.773438 93.546875 62.839844 93.578125 62.914063 C 93.609375 62.996094 93.640625 63.085938 93.671875 63.179688 Z M 97.269531 67.550781 L 94.363281 69.113281 L 95.003906 70.300781 C 95.230469 70.726563 95.535156 70.992188 95.910156 71.097656 C 96.292969 71.199219 96.722656 71.128906 97.191406 70.878906 C 97.648438 70.628906 97.941406 70.316406 98.066406 69.941406 C 98.191406 69.566406 98.136719 69.167969 97.910156 68.738281 Z M 97.628906 66.160156 L 98.769531 68.285156 C 99.175781 69.058594 99.289063 69.742188 99.113281 70.347656 C 98.933594 70.960938 98.472656 71.472656 97.722656 71.878906 C 96.949219 72.285156 96.261719 72.386719 95.660156 72.191406 C 95.054688 72.003906 94.550781 71.523438 94.144531 70.753906 L 93.503906 69.566406 L 90.410156 71.222656 L 89.910156 70.285156 Z M 97.632813 76.675781 C 97.171875 76.039063 96.773438 75.660156 96.429688 75.535156 C 96.09375 75.402344 95.730469 75.472656 95.335938 75.753906 C 95.023438 75.980469 94.839844 76.253906 94.789063 76.566406 C 94.734375 76.878906 94.824219 77.195313 95.054688 77.519531 C 95.367188 77.945313 95.789063 78.167969 96.320313 78.191406 C 96.859375 78.210938 97.421875 78.011719 98.007813 77.597656 L 98.195313 77.457031 Z M 99.117188 78.003906 L 96.070313 80.175781 L 95.507813 79.378906 L 96.320313 78.800781 C 95.871094 78.851563 95.46875 78.792969 95.117188 78.628906 C 94.761719 78.472656 94.449219 78.199219 94.179688 77.816406 C 93.824219 77.324219 93.695313 76.824219 93.789063 76.316406 C 93.890625 75.804688 94.199219 75.371094 94.710938 75.003906 C 95.3125 74.578125 95.898438 74.4375 96.460938 74.582031 C 97.03125 74.71875 97.574219 75.152344 98.085938 75.878906 L 98.882813 76.972656 L 98.960938 76.910156 C 99.367188 76.617188 99.59375 76.273438 99.648438 75.878906 C 99.699219 75.484375 99.570313 75.066406 99.257813 74.628906 C 99.058594 74.359375 98.828125 74.125 98.570313 73.925781 C 98.308594 73.71875 98.015625 73.542969 97.695313 73.394531 L 98.507813 72.816406 C 98.851563 73.015625 99.148438 73.230469 99.398438 73.457031 C 99.648438 73.6875 99.867188 73.933594 100.054688 74.191406 C 100.554688 74.890625 100.726563 75.550781 100.570313 76.175781 C 100.414063 76.808594 99.929688 77.417969 99.117188 78.003906 Z M 104.195313 80.621094 C 104.171875 80.507813 104.125 80.394531 104.054688 80.277344 C 103.980469 80.152344 103.886719 80.039063 103.773438 79.933594 C 103.375 79.558594 102.933594 79.414063 102.445313 79.496094 C 101.964844 79.582031 101.464844 79.886719 100.945313 80.417969 L 98.554688 82.917969 L 97.851563 82.246094 L 102.398438 77.511719 L 103.101563 78.183594 L 102.398438 78.917969 C 102.824219 78.761719 103.21875 78.730469 103.585938 78.824219 C 103.960938 78.917969 104.3125 79.121094 104.648438 79.433594 C 104.699219 79.488281 104.746094 79.542969 104.789063 79.605469 C 104.839844 79.667969 104.898438 79.746094 104.960938 79.839844 Z M 106.929688 78.164063 L 107.726563 78.726563 L 104.617188 83.132813 L 108.617188 82.492188 L 109.617188 83.210938 L 105.289063 83.898438 L 105.945313 88.648438 L 104.914063 87.914063 L 104.304688 83.570313 L 102.460938 86.179688 L 101.664063 85.617188 Z M 116.070313 88.226563 C 116.265625 88.382813 116.429688 88.628906 116.554688 88.960938 C 116.6875 89.296875 116.792969 89.722656 116.867188 90.242188 L 117.257813 92.835938 L 116.148438 92.523438 L 115.820313 90.101563 C 115.726563 89.46875 115.585938 89.023438 115.398438 88.773438 C 115.210938 88.515625 114.914063 88.328125 114.507813 88.210938 L 113.398438 87.882813 L 112.382813 91.445313 L 111.351563 91.164063 L 113.757813 82.742188 L 116.070313 83.398438 C 116.933594 83.648438 117.523438 84.035156 117.835938 84.554688 C 118.148438 85.078125 118.183594 85.742188 117.945313 86.554688 C 117.796875 87.085938 117.5625 87.5 117.242188 87.789063 C 116.929688 88.082031 116.539063 88.226563 116.070313 88.226563 Z M 114.523438 83.960938 L 113.664063 86.945313 L 114.945313 87.320313 C 115.445313 87.457031 115.855469 87.4375 116.179688 87.257813 C 116.5 87.070313 116.730469 86.734375 116.867188 86.242188 C 117.011719 85.753906 116.996094 85.347656 116.820313 85.023438 C 116.640625 84.703125 116.304688 84.472656 115.804688 84.335938 Z M 122.035156 87.253906 C 121.511719 87.253906 121.101563 87.484375 120.800781 87.941406 C 120.507813 88.402344 120.363281 89.019531 120.363281 89.800781 C 120.363281 90.59375 120.511719 91.214844 120.816406 91.660156 C 121.117188 92.097656 121.535156 92.316406 122.066406 92.316406 C 122.574219 92.316406 122.976563 92.09375 123.269531 91.644531 C 123.570313 91.1875 123.722656 90.566406 123.722656 89.785156 C 123.722656 89.015625 123.566406 88.402344 123.253906 87.941406 C 122.949219 87.484375 122.542969 87.253906 122.035156 87.253906 Z M 122.035156 86.347656 C 122.878906 86.347656 123.539063 86.652344 124.019531 87.253906 C 124.507813 87.859375 124.753906 88.699219 124.753906 89.769531 C 124.761719 90.84375 124.527344 91.691406 124.050781 92.316406 C 123.570313 92.933594 122.910156 93.238281 122.066406 93.238281 C 121.210938 93.238281 120.542969 92.9375 120.066406 92.332031 C 119.585938 91.71875 119.339844 90.875 119.332031 89.800781 C 119.332031 88.730469 119.566406 87.886719 120.035156 87.269531 C 120.511719 86.65625 121.179688 86.347656 122.035156 86.347656 Z M 129.214844 88.78125 C 128.464844 88.980469 127.964844 89.214844 127.714844 89.484375 C 127.472656 89.757813 127.417969 90.121094 127.542969 90.578125 C 127.636719 90.953125 127.816406 91.226563 128.089844 91.390625 C 128.359375 91.546875 128.6875 91.574219 129.074219 91.46875 C 129.582031 91.34375 129.941406 91.039063 130.152344 90.546875 C 130.371094 90.046875 130.390625 89.453125 130.214844 88.765625 L 130.152344 88.546875 Z M 130.964844 87.859375 L 131.917969 91.484375 L 130.980469 91.734375 L 130.730469 90.765625 C 130.613281 91.203125 130.421875 91.558594 130.152344 91.828125 C 129.878906 92.101563 129.515625 92.296875 129.058594 92.421875 C 128.464844 92.570313 127.949219 92.5 127.511719 92.21875 C 127.074219 91.9375 126.777344 91.496094 126.621094 90.890625 C 126.433594 90.171875 126.503906 89.578125 126.839844 89.109375 C 127.171875 88.640625 127.765625 88.296875 128.621094 88.078125 L 129.933594 87.734375 L 129.902344 87.625 C 129.777344 87.136719 129.535156 86.796875 129.183594 86.609375 C 128.828125 86.421875 128.394531 86.398438 127.886719 86.53125 C 127.5625 86.617188 127.261719 86.742188 126.980469 86.90625 C 126.699219 87.074219 126.433594 87.289063 126.183594 87.546875 L 125.933594 86.578125 C 126.238281 86.328125 126.535156 86.132813 126.839844 85.984375 C 127.152344 85.828125 127.464844 85.710938 127.777344 85.625 C 128.597656 85.40625 129.269531 85.484375 129.792969 85.859375 C 130.324219 86.226563 130.714844 86.890625 130.964844 87.859375 Z M 136.144531 84.535156 L 135.191406 81.113281 L 136.128906 80.863281 L 138.582031 89.644531 L 137.644531 89.894531 L 137.378906 88.941406 C 137.285156 89.378906 137.113281 89.734375 136.863281 90.003906 C 136.621094 90.277344 136.292969 90.46875 135.878906 90.582031 C 135.179688 90.78125 134.527344 90.636719 133.925781 90.144531 C 133.332031 89.644531 132.894531 88.902344 132.613281 87.910156 C 132.34375 86.910156 132.339844 86.050781 132.597656 85.332031 C 132.847656 84.605469 133.320313 84.140625 134.019531 83.941406 C 134.433594 83.828125 134.816406 83.824219 135.160156 83.925781 C 135.511719 84.019531 135.839844 84.222656 136.144531 84.535156 Z M 133.566406 87.644531 C 133.785156 88.40625 134.097656 88.964844 134.503906 89.316406 C 134.910156 89.671875 135.355469 89.78125 135.847656 89.644531 C 136.347656 89.511719 136.675781 89.183594 136.832031 88.660156 C 136.996094 88.140625 136.972656 87.5 136.753906 86.738281 C 136.542969 85.980469 136.238281 85.425781 135.832031 85.082031 C 135.433594 84.730469 134.988281 84.621094 134.488281 84.753906 C 133.996094 84.890625 133.667969 85.21875 133.503906 85.738281 C 133.335938 86.25 133.355469 86.886719 133.566406 87.644531 Z M 133.566406 87.644531 "/>
</g>
</svg>

