<?xml version="1.0" encoding="UTF-8"?>
<svg xmlns="http://www.w3.org/2000/svg" xmlns:xlink="http://www.w3.org/1999/xlink" width="256pt" height="256pt" viewBox="0 0 256 256" version="1.1">
<g id="surface2">
<rect x="0" y="0" width="256" height="256" style="fill:rgb(94.901961%,93.72549%,91.372549%);fill-opacity:1;stroke:none;"/>
<path style=" stroke:none;fill-rule:evenodd;fill:rgb(79.607843%,84.705882%,76.470588%);fill-opacity:1;" d="M -4 260 L 260 260 L 260 -4 L 260 260 Z M -4 260 "/>
<path style=" stroke:none;fill-rule:evenodd;fill:rgb(70.980392%,82.352941%,61.176471%);fill-opacity:1;" d="M -4 260 L 260 260 L 260 -4 L 260 260 Z M -4 260 "/>
<path style="fill:none;stroke-width:10;stroke-linecap:round;stroke-linejoin:round;stroke:rgb(75.686275%,70.980392%,61.568627%);stroke-opacity:1;stroke-miterlimit:10;" d="M 266 7.597656 L 262.714844 12.570313 L 255.675781 23.21875 L 251.507813 30.933594 L 250.246094 33 L 247.894531 36.210938 L 247.265625 37.011719 L 244.328125 40.097656 L 241.113281 42.90625 L 229.8125 50.5625 L 205.066406 66.980469 L 194.464844 74.570313 L 182.464844 83.179688 L 168.15625 93.425781 L 164.894531 96.265625 L 161.46875 99.96875 L 158.929688 103.488281 L 156.414063 107.871094 L 154.710938 111.882813 L 150.308594 125.984375 L 148.417969 130.304688 L 145.019531 137.0625 L 142.128906 142 L 137.910156 148.296875 L 133.507813 154.003906 L 121.179688 167.859375 L 109.484375 180.082031 L 106.6875 183.84375 L 86.761719 216.433594 L 81.335938 225.289063 L 80.589844 226.617188 L 75.554688 235.5625 L 58.4375 266 "/>
<path style="fill:none;stroke-width:8;stroke-linecap:round;stroke-linejoin:round;stroke:rgb(100%,99.215686%,54.509804%);stroke-opacity:1;stroke-miterlimit:10;" d="M 266 7.597656 L 262.714844 12.570313 L 255.675781 23.21875 L 251.507813 30.933594 L 250.246094 33 L 247.894531 36.210938 L 247.265625 37.011719 L 244.328125 40.097656 L 241.113281 42.90625 L 229.8125 50.5625 L 205.066406 66.980469 L 194.464844 74.570313 L 182.464844 83.179688 L 168.15625 93.425781 L 164.894531 96.265625 L 161.46875 99.96875 L 158.929688 103.488281 L 156.414063 107.871094 L 154.710938 111.882813 L 150.308594 125.984375 L 148.417969 130.304688 L 145.019531 137.0625 L 142.128906 142 L 137.910156 148.296875 L 133.507813 154.003906 L 121.179688 167.859375 L 109.484375 180.082031 L 106.6875 183.84375 L 86.761719 216.433594 L 81.335938 225.289063 L 80.589844 226.617188 L 75.554688 235.5625 L 58.4375 266 "/>
<path style="fill:none;stroke-width:3;stroke-linecap:round;stroke-linejoin:round;stroke:rgb(100%,100%,100%);stroke-opacity:1;stroke-miterlimit:10;" d="M 128.351563 154.851563 L 130.820313 157.039063 L 131.710938 156.039063 C 132.035156 155.664063 132.179688 155.285156 132.148438 154.898438 C 132.109375 154.503906 131.882813 154.128906 131.476563 153.773438 C 131.09375 153.429688 130.707031 153.265625 130.320313 153.273438 C 129.925781 153.285156 129.566406 153.476563 129.242188 153.851563 Z M 126.914063 155.007813 L 128.507813 153.210938 C 129.09375 152.554688 129.703125 152.207031 130.335938 152.164063 C 130.960938 152.113281 131.59375 152.367188 132.226563 152.929688 C 132.882813 153.503906 133.226563 154.109375 133.257813 154.742188 C 133.289063 155.378906 133.011719 156.023438 132.429688 156.679688 L 131.539063 157.679688 L 134.179688 160.007813 L 133.476563 160.804688 Z M 132.695313 151.675781 L 133.289063 150.894531 L 138.492188 154.910156 L 137.898438 155.691406 Z M 130.679688 150.113281 L 131.273438 149.332031 L 132.351563 150.175781 L 131.757813 150.957031 Z M 139.886719 147.011719 L 140.308594 147.324219 L 137.683594 150.933594 C 138.308594 151.332031 138.882813 151.503906 139.402344 151.449219 C 139.933594 151.386719 140.386719 151.097656 140.761719 150.574219 C 140.980469 150.261719 141.152344 149.941406 141.277344 149.605469 C 141.410156 149.261719 141.496094 148.894531 141.527344 148.496094 L 142.355469 149.105469 C 142.28125 149.460938 142.171875 149.816406 142.027344 150.167969 C 141.878906 150.523438 141.699219 150.851563 141.480469 151.152344 C 140.925781 151.914063 140.238281 152.339844 139.417969 152.433594 C 138.597656 152.519531 137.761719 152.253906 136.917969 151.636719 C 136.054688 151.003906 135.523438 150.289063 135.324219 149.496094 C 135.117188 148.707031 135.277344 147.949219 135.808594 147.230469 C 136.277344 146.585938 136.878906 146.246094 137.605469 146.214844 C 138.335938 146.175781 139.097656 146.441406 139.886719 147.011719 Z M 139.042969 147.605469 C 138.574219 147.261719 138.113281 147.105469 137.652344 147.136719 C 137.195313 147.167969 136.824219 147.378906 136.542969 147.761719 C 136.222656 148.199219 136.105469 148.652344 136.199219 149.121094 C 136.292969 149.582031 136.570313 150.011719 137.027344 150.417969 Z M 141.03125 141.71875 C 140.929688 141.773438 140.824219 141.84375 140.71875 141.9375 C 140.617188 142.023438 140.515625 142.132813 140.421875 142.265625 C 140.121094 142.714844 140.058594 143.171875 140.234375 143.640625 C 140.402344 144.101563 140.792969 144.539063 141.40625 144.953125 L 144.28125 146.875 L 143.734375 147.6875 L 138.28125 144.03125 L 138.828125 143.21875 L 139.671875 143.78125 C 139.464844 143.398438 139.371094 143.015625 139.390625 142.640625 C 139.414063 142.257813 139.546875 141.875 139.796875 141.5 C 139.839844 141.4375 139.886719 141.375 139.9375 141.3125 C 139.992188 141.25 140.054688 141.183594 140.125 141.109375 Z M 143.9375 137.019531 C 143.625 136.5625 143.453125 136.136719 143.421875 135.738281 C 143.382813 135.332031 143.476563 134.925781 143.703125 134.519531 C 144.007813 133.980469 144.449219 133.675781 145.03125 133.613281 C 145.605469 133.550781 146.273438 133.734375 147.046875 134.160156 L 150.515625 136.082031 L 150.03125 136.941406 L 146.59375 135.050781 C 146.039063 134.738281 145.589844 134.597656 145.234375 134.628906 C 144.871094 134.652344 144.585938 134.84375 144.375 135.207031 C 144.136719 135.644531 144.109375 136.082031 144.296875 136.519531 C 144.476563 136.949219 144.851563 137.316406 145.421875 137.628906 L 148.65625 139.425781 L 148.1875 140.269531 L 144.75 138.378906 C 144.199219 138.066406 143.742188 137.933594 143.375 137.972656 C 143.011719 138.003906 142.730469 138.203125 142.53125 138.566406 C 142.292969 139.003906 142.261719 139.441406 142.4375 139.878906 C 142.617188 140.308594 142.992188 140.675781 143.5625 140.988281 L 146.796875 142.785156 L 146.328125 143.628906 L 140.578125 140.457031 L 141.046875 139.613281 L 141.9375 140.097656 C 141.710938 139.703125 141.589844 139.328125 141.578125 138.972656 C 141.558594 138.609375 141.652344 138.238281 141.859375 137.863281 C 142.058594 137.488281 142.335938 137.230469 142.6875 137.082031 C 143.042969 136.925781 143.460938 136.90625 143.9375 137.019531 Z M 147.222656 129.550781 C 147.003906 130.019531 147.035156 130.488281 147.316406 130.957031 C 147.597656 131.425781 148.09375 131.828125 148.800781 132.160156 C 149.519531 132.496094 150.144531 132.625 150.675781 132.550781 C 151.207031 132.46875 151.585938 132.1875 151.816406 131.707031 C 152.035156 131.25 151.996094 130.785156 151.707031 130.316406 C 151.425781 129.847656 150.933594 129.449219 150.222656 129.113281 C 149.527344 128.792969 148.90625 128.671875 148.363281 128.753906 C 147.824219 128.828125 147.441406 129.09375 147.222656 129.550781 Z M 146.410156 129.175781 C 146.765625 128.417969 147.324219 127.949219 148.082031 127.769531 C 148.832031 127.582031 149.691406 127.71875 150.660156 128.175781 C 151.628906 128.636719 152.289063 129.214844 152.644531 129.910156 C 152.996094 130.609375 152.996094 131.339844 152.644531 132.097656 C 152.277344 132.871094 151.714844 133.34375 150.957031 133.519531 C 150.199219 133.699219 149.332031 133.558594 148.363281 133.097656 C 147.394531 132.640625 146.738281 132.066406 146.394531 131.378906 C 146.042969 130.683594 146.046875 129.949219 146.410156 129.175781 Z M 152.183594 121.664063 L 155.949219 122.929688 L 155.636719 123.851563 L 151.917969 122.601563 C 151.324219 122.40625 150.851563 122.363281 150.496094 122.476563 C 150.132813 122.59375 149.882813 122.851563 149.746094 123.257813 C 149.582031 123.757813 149.628906 124.210938 149.886719 124.617188 C 150.136719 125.015625 150.570313 125.316406 151.183594 125.523438 L 154.699219 126.695313 L 154.386719 127.617188 L 148.167969 125.539063 L 148.480469 124.617188 L 149.433594 124.929688 C 149.132813 124.597656 148.941406 124.253906 148.855469 123.898438 C 148.773438 123.535156 148.800781 123.15625 148.933594 122.757813 C 149.144531 122.125 149.523438 121.710938 150.074219 121.523438 C 150.628906 121.335938 151.332031 121.382813 152.183594 121.664063 Z M 148.832031 117.578125 L 150.597656 118.140625 L 151.191406 116.234375 L 152.003906 116.484375 L 151.410156 118.390625 L 154.800781 119.453125 C 155.3125 119.609375 155.660156 119.652344 155.847656 119.578125 C 156.027344 119.496094 156.175781 119.261719 156.300781 118.875 L 156.597656 117.921875 L 157.457031 118.1875 L 157.160156 119.140625 C 156.929688 119.851563 156.628906 120.296875 156.253906 120.484375 C 155.871094 120.664063 155.285156 120.632813 154.503906 120.390625 L 151.113281 119.328125 L 150.910156 120 L 150.097656 119.75 L 150.300781 119.078125 L 148.535156 118.515625 Z M 156.515625 109.085938 C 156.695313 108.910156 156.953125 108.78125 157.296875 108.695313 C 157.632813 108.613281 158.070313 108.566406 158.609375 108.554688 L 161.234375 108.507813 L 160.78125 109.570313 L 158.328125 109.585938 C 157.683594 109.597656 157.226563 109.679688 156.953125 109.835938 C 156.671875 109.984375 156.449219 110.25 156.28125 110.632813 L 155.828125 111.695313 L 159.234375 113.164063 L 158.8125 114.148438 L 150.78125 110.679688 L 151.734375 108.460938 C 152.089844 107.640625 152.546875 107.109375 153.109375 106.867188 C 153.664063 106.628906 154.328125 106.675781 155.109375 107.007813 C 155.609375 107.226563 155.984375 107.519531 156.234375 107.882813 C 156.476563 108.238281 156.570313 108.640625 156.515625 109.085938 Z M 152.09375 110.085938 L 154.9375 111.320313 L 155.46875 110.085938 C 155.667969 109.617188 155.699219 109.210938 155.5625 108.867188 C 155.429688 108.515625 155.125 108.238281 154.65625 108.039063 C 154.1875 107.84375 153.78125 107.8125 153.4375 107.945313 C 153.09375 108.082031 152.824219 108.382813 152.625 108.851563 Z M 157.910156 102.976563 C 157.628906 103.414063 157.597656 103.882813 157.816406 104.382813 C 158.027344 104.882813 158.457031 105.34375 159.113281 105.757813 C 159.78125 106.195313 160.386719 106.410156 160.925781 106.398438 C 161.464844 106.390625 161.882813 106.160156 162.175781 105.710938 C 162.445313 105.273438 162.464844 104.8125 162.238281 104.320313 C 162.019531 103.820313 161.582031 103.359375 160.925781 102.929688 C 160.28125 102.515625 159.6875 102.3125 159.144531 102.320313 C 158.59375 102.320313 158.183594 102.539063 157.910156 102.976563 Z M 157.144531 102.492188 C 157.59375 101.785156 158.207031 101.394531 158.988281 101.320313 C 159.761719 101.238281 160.59375 101.484375 161.488281 102.054688 C 162.394531 102.640625 162.972656 103.300781 163.222656 104.039063 C 163.480469 104.78125 163.386719 105.503906 162.941406 106.210938 C 162.472656 106.929688 161.851563 107.328125 161.082031 107.398438 C 160.3125 107.460938 159.472656 107.203125 158.566406 106.617188 C 157.671875 106.046875 157.09375 105.394531 156.832031 104.664063 C 156.574219 103.9375 156.675781 103.210938 157.144531 102.492188 Z M 164.148438 98.96875 C 163.628906 99.542969 163.34375 100.011719 163.289063 100.375 C 163.226563 100.730469 163.378906 101.070313 163.742188 101.390625 C 164.023438 101.652344 164.320313 101.777344 164.632813 101.765625 C 164.953125 101.746094 165.25 101.585938 165.523438 101.28125 C 165.875 100.886719 166.007813 100.429688 165.914063 99.90625 C 165.820313 99.375 165.507813 98.875 164.976563 98.40625 L 164.804688 98.25 Z M 165.101563 97.21875 L 167.898438 99.71875 L 167.257813 100.453125 L 166.507813 99.78125 C 166.664063 100.210938 166.699219 100.609375 166.617188 100.984375 C 166.53125 101.359375 166.328125 101.726563 166.007813 102.078125 C 165.601563 102.527344 165.136719 102.761719 164.617188 102.78125 C 164.109375 102.792969 163.617188 102.585938 163.148438 102.15625 C 162.597656 101.667969 162.332031 101.136719 162.351563 100.5625 C 162.375 99.980469 162.679688 99.355469 163.273438 98.6875 L 164.179688 97.6875 L 164.101563 97.609375 C 163.726563 97.277344 163.34375 97.132813 162.945313 97.171875 C 162.539063 97.203125 162.160156 97.417969 161.804688 97.8125 C 161.578125 98.0625 161.394531 98.339844 161.257813 98.640625 C 161.113281 98.945313 161.003906 99.265625 160.929688 99.609375 L 160.195313 98.9375 C 160.3125 98.5625 160.457031 98.230469 160.632813 97.9375 C 160.800781 97.648438 160.988281 97.382813 161.195313 97.140625 C 161.769531 96.507813 162.378906 96.195313 163.023438 96.203125 C 163.671875 96.214844 164.359375 96.554688 165.101563 97.21875 Z M 168.351563 92.109375 L 166.132813 89.328125 L 166.882813 88.71875 L 172.585938 95.84375 L 171.835938 96.453125 L 171.226563 95.6875 C 171.296875 96.117188 171.273438 96.5 171.148438 96.84375 C 171.03125 97.1875 170.808594 97.496094 170.476563 97.765625 C 169.914063 98.214844 169.257813 98.328125 168.507813 98.109375 C 167.769531 97.890625 167.078125 97.382813 166.429688 96.578125 C 165.785156 95.777344 165.441406 94.992188 165.398438 94.21875 C 165.347656 93.4375 165.601563 92.824219 166.164063 92.375 C 166.5 92.105469 166.847656 91.949219 167.210938 91.90625 C 167.566406 91.867188 167.945313 91.933594 168.351563 92.109375 Z M 167.210938 95.953125 C 167.703125 96.570313 168.199219 96.964844 168.710938 97.140625 C 169.230469 97.308594 169.6875 97.230469 170.085938 96.90625 C 170.492188 96.585938 170.664063 96.15625 170.601563 95.625 C 170.546875 95.085938 170.277344 94.507813 169.789063 93.890625 C 169.289063 93.277344 168.78125 92.886719 168.273438 92.71875 C 167.765625 92.554688 167.304688 92.632813 166.898438 92.953125 C 166.503906 93.277344 166.332031 93.703125 166.382813 94.234375 C 166.4375 94.765625 166.710938 95.339844 167.210938 95.953125 Z M 167.210938 95.953125 "/>
<path style=" stroke:none;fill-rule:evenodd;fill:rgb(20%,20%,20%);fill-opacity:1;" d="M 128.351563 154.851563 L 130.820313 157.039063 L 131.710938 156.039063 C 132.035156 155.664063 132.179688 155.285156 132.148438 154.898438 C 132.109375 154.503906 131.882813 154.128906 131.476563 153.773438 C 131.09375 153.429688 130.707031 153.265625 130.320313 153.273438 C 129.925781 153.285156 129.566406 153.476563 129.242188 153.851563 Z M 126.914063 155.007813 L 128.507813 153.210938 C 129.09375 152.554688 129.703125 152.207031 130.335938 152.164063 C 130.960938 152.113281 131.59375 152.367188 132.226563 152.929688 C 132.882813 153.503906 133.226563 154.109375 133.257813 154.742188 C 133.289063 155.378906 133.011719 156.023438 132.429688 156.679688 L 131.539063 157.679688 L 134.179688 160.007813 L 133.476563 160.804688 Z M 132.695313 151.675781 L 133.289063 150.894531 L 138.492188 154.910156 L 137.898438 155.691406 Z M 130.679688 150.113281 L 131.273438 149.332031 L 132.351563 150.175781 L 131.757813 150.957031 Z M 139.886719 147.011719 L 140.308594 147.324219 L 137.683594 150.933594 C 138.308594 151.332031 138.882813 151.503906 139.402344 151.449219 C 139.933594 151.386719 140.386719 151.097656 140.761719 150.574219 C 140.980469 150.261719 141.152344 149.941406 141.277344 149.605469 C 141.410156 149.261719 141.496094 148.894531 141.527344 148.496094 L 142.355469 149.105469 C 142.28125 149.460938 142.171875 149.816406 142.027344 150.167969 C 141.878906 150.523438 141.699219 150.851563 141.480469 151.152344 C 140.925781 151.914063 140.238281 152.339844 139.417969 152.433594 C 138.597656 152.519531 137.761719 152.253906 136.917969 151.636719 C 136.054688 151.003906 135.523438 150.289063 135.324219 149.496094 C 135.117188 148.707031 135.277344 147.949219 135.808594 147.230469 C 136.277344 146.585938 136.878906 146.246094 137.605469 146.214844 C 138.335938 146.175781 139.097656 146.441406 139.886719 147.011719 Z M 139.042969 147.605469 C 138.574219 147.261719 138.113281 147.105469 137.652344 147.136719 C 137.195313 147.167969 136.824219 147.378906 136.542969 147.761719 C 136.222656 148.199219 136.105469 148.652344 136.199219 149.121094 C 136.292969 149.582031 136.570313 150.011719 137.027344 150.417969 Z M 141.03125 141.71875 C 140.929688 141.773438 140.824219 141.84375 140.71875 141.9375 C 140.617188 142.023438 140.515625 142.132813 140.421875 142.265625 C 140.121094 142.714844 140.058594 143.171875 140.234375 143.640625 C 140.402344 144.101563 140.792969 144.539063 141.40625 144.953125 L 144.28125 146.875 L 143.734375 147.6875 L 138.28125 144.03125 L 138.828125 143.21875 L 139.671875 143.78125 C 139.464844 143.398438 139.371094 143.015625 139.390625 142.640625 C 139.414063 142.257813 139.546875 141.875 139.796875 141.5 C 139.839844 141.4375 139.886719 141.375 139.9375 141.3125 C 139.992188 141.25 140.054688 141.183594 140.125 141.109375 Z M 143.9375 137.019531 C 143.625 136.5625 143.453125 136.136719 143.421875 135.738281 C 143.382813 135.332031 143.476563 134.925781 143.703125 134.519531 C 144.007813 133.980469 144.449219 133.675781 145.03125 133.613281 C 145.605469 133.550781 146.273438 133.734375 147.046875 134.160156 L 150.515625 136.082031 L 150.03125 136.941406 L 146.59375 135.050781 C 146.039063 134.738281 145.589844 134.597656 145.234375 134.628906 C 144.871094 134.652344 144.585938 134.84375 144.375 135.207031 C 144.136719 135.644531 144.109375 136.082031 144.296875 136.519531 C 144.476563 136.949219 144.851563 137.316406 145.421875 137.628906 L 148.65625 139.425781 L 148.1875 140.269531 L 144.75 138.378906 C 144.199219 138.066406 143.742188 137.933594 143.375 137.972656 C 143.011719 138.003906 142.730469 138.203125 142.53125 138.566406 C 142.292969 139.003906 142.261719 139.441406 142.4375 139.878906 C 142.617188 140.308594 142.992188 140.675781 143.5625 140.988281 L 146.796875 142.785156 L 146.328125 143.628906 L 140.578125 140.457031 L 141.046875 139.613281 L 141.9375 140.097656 C 141.710938 139.703125 141.589844 139.328125 141.578125 138.972656 C 141.558594 138.609375 141.652344 138.238281 141.859375 137.863281 C 142.058594 137.488281 142.335938 137.230469 142.6875 137.082031 C 143.042969 136.925781 143.460938 136.90625 143.9375 137.019531 Z M 147.222656 129.550781 C 147.003906 130.019531 147.035156 130.488281 147.316406 130.957031 C 147.597656 131.425781 148.09375 131.828125 148.800781 132.160156 C 149.519531 132.496094 150.144531 132.625 150.675781 132.550781 C 151.207031 132.46875 151.585938 132.1875 151.816406 131.707031 C 152.035156 131.25 151.996094 130.785156 151.707031 130.316406 C 151.425781 129.847656 150.933594 129.449219 150.222656 129.113281 C 149.527344 128.792969 148.90625 128.671875 148.363281 128.753906 C 147.824219 128.828125 147.441406 129.09375 147.222656 129.550781 Z M 146.410156 129.175781 C 146.765625 128.417969 147.324219 127.949219 148.082031 127.769531 C 148.832031 127.582031 149.691406 127.71875 150.660156 128.175781 C 151.628906 128.636719 152.289063 129.214844 152.644531 129.910156 C 152.996094 130.609375 152.996094 131.339844 152.644531 132.097656 C 152.277344 132.871094 151.714844 133.34375 150.957031 133.519531 C 150.199219 133.699219 149.332031 133.558594 148.363281 133.097656 C 147.394531 132.640625 146.738281 132.066406 146.394531 131.378906 C 146.042969 130.683594 146.046875 129.949219 146.410156 129.175781 Z M 152.183594 121.664063 L 155.949219 122.929688 L 155.636719 123.851563 L 151.917969 122.601563 C 151.324219 122.40625 150.851563 122.363281 150.496094 122.476563 C 150.132813 122.59375 149.882813 122.851563 149.746094 123.257813 C 149.582031 123.757813 149.628906 124.210938 149.886719 124.617188 C 150.136719 125.015625 150.570313 125.316406 151.183594 125.523438 L 154.699219 126.695313 L 154.386719 127.617188 L 148.167969 125.539063 L 148.480469 124.617188 L 149.433594 124.929688 C 149.132813 124.597656 148.941406 124.253906 148.855469 123.898438 C 148.773438 123.535156 148.800781 123.15625 148.933594 122.757813 C 149.144531 122.125 149.523438 121.710938 150.074219 121.523438 C 150.628906 121.335938 151.332031 121.382813 152.183594 121.664063 Z M 148.832031 117.578125 L 150.597656 118.140625 L 151.191406 116.234375 L 152.003906 116.484375 L 151.410156 118.390625 L 154.800781 119.453125 C 155.3125 119.609375 155.660156 119.652344 155.847656 119.578125 C 156.027344 119.496094 156.175781 119.261719 156.300781 118.875 L 156.597656 117.921875 L 157.457031 118.1875 L 157.160156 119.140625 C 156.929688 119.851563 156.628906 120.296875 156.253906 120.484375 C 155.871094 120.664063 155.285156 120.632813 154.503906 120.390625 L 151.113281 119.328125 L 150.910156 120 L 150.097656 119.75 L 150.300781 119.078125 L 148.535156 118.515625 Z M 156.515625 109.085938 C 156.695313 108.910156 156.953125 108.78125 157.296875 108.695313 C 157.632813 108.613281 158.070313 108.566406 158.609375 108.554688 L 161.234375 108.507813 L 160.78125 109.570313 L 158.328125 109.585938 C 157.683594 109.597656 157.226563 109.679688 156.953125 109.835938 C 156.671875 109.984375 156.449219 110.25 156.28125 110.632813 L 155.828125 111.695313 L 159.234375 113.164063 L 158.8125 114.148438 L 150.78125 110.679688 L 151.734375 108.460938 C 152.089844 107.640625 152.546875 107.109375 153.109375 106.867188 C 153.664063 106.628906 154.328125 106.675781 155.109375 107.007813 C 155.609375 107.226563 155.984375 107.519531 156.234375 107.882813 C 156.476563 108.238281 156.570313 108.640625 156.515625 109.085938 Z M 152.09375 110.085938 L 154.9375 111.320313 L 155.46875 110.085938 C 155.667969 109.617188 155.699219 109.210938 155.5625 108.867188 C 155.429688 108.515625 155.125 108.238281 154.65625 108.039063 C 154.1875 107.84375 153.78125 107.8125 153.4375 107.945313 C 153.09375 108.082031 152.824219 108.382813 152.625 108.851563 Z M 157.910156 102.976563 C 157.628906 103.414063 157.597656 103.882813 157.816406 104.382813 C 158.027344 104.882813 158.457031 105.34375 159.113281 105.757813 C 159.78125 106.195313 160.386719 106.410156 160.925781 106.398438 C 161.464844 106.390625 161.882813 106.160156 162.175781 105.710938 C 162.445313 105.273438 162.464844 104.8125 162.238281 104.320313 C 162.019531 103.820313 161.582031 103.359375 160.925781 102.929688 C 160.28125 102.515625 159.6875 102.3125 159.144531 102.320313 C 158.59375 102.320313 158.183594 102.539063 157.910156 102.976563 Z M 157.144531 102.492188 C 157.59375 101.785156 158.207031 101.394531 158.988281 101.320313 C 159.761719 101.238281 160.59375 101.484375 161.488281 102.054688 C 162.394531 102.640625 162.972656 103.300781 163.222656 104.039063 C 163.480469 104.78125 163.386719 105.503906 162.941406 106.210938 C 162.472656 106.929688 161.851563 107.328125 161.082031 107.398438 C 160.3125 107.460938 159.472656 107.203125 158.566406 106.617188 C 157.671875 106.046875 157.09375 105.394531 156.832031 104.664063 C 156.574219 103.9375 156.675781 103.210938 157.144531 102.492188 Z M 164.148438 98.96875 C 163.628906 99.542969 163.34375 100.011719 163.289063 100.375 C 163.226563 100.730469 163.378906 101.070313 163.742188 101.390625 C 164.023438 101.652344 164.320313 101.777344 164.632813 101.765625 C 164.953125 101.746094 165.25 101.585938 165.523438 101.28125 C 165.875 100.886719 166.007813 100.429688 165.914063 99.90625 C 165.820313 99.375 165.507813 98.875 164.976563 98.40625 L 164.804688 98.25 Z M 165.101563 97.21875 L 167.898438 99.71875 L 167.257813 100.453125 L 166.507813 99.78125 C 166.664063 100.210938 166.699219 100.609375 166.617188 100.984375 C 166.53125 101.359375 166.328125 101.726563 166.007813 102.078125 C 165.601563 102.527344 165.136719 102.761719 164.617188 102.78125 C 164.109375 102.792969 163.617188 102.585938 163.148438 102.15625 C 162.597656 101.667969 162.332031 101.136719 162.351563 100.5625 C 162.375 99.980469 162.679688 99.355469 163.273438 98.6875 L 164.179688 97.6875 L 164.101563 97.609375 C 163.726563 97.277344 163.34375 97.132813 162.945313 97.171875 C 162.539063 97.203125 162.160156 97.417969 161.804688 97.8125 C 161.578125 98.0625 161.394531 98.339844 161.257813 98.640625 C 161.113281 98.945313 161.003906 99.265625 160.929688 99.609375 L 160.195313 98.9375 C 160.3125 98.5625 160.457031 98.230469 160.632813 97.9375 C 160.800781 97.648438 160.988281 97.382813 161.195313 97.140625 C 161.769531 96.507813 162.378906 96.195313 163.023438 96.203125 C 163.671875 96.214844 164.359375 96.554688 165.101563 97.21875 Z M 168.351563 92.109375 L 166.132813 89.328125 L 166.882813 88.71875 L 172.585938 95.84375 L 171.835938 96.453125 L 171.226563 95.6875 C 171.296875 96.117188 171.273438 96.5 171.148438 96.84375 C 171.03125 97.1875 170.808594 97.496094 170.476563 97.765625 C 169.914063 98.214844 169.257813 98.328125 168.507813 98.109375 C 167.769531 97.890625 167.078125 97.382813 166.429688 96.578125 C 165.785156 95.777344 165.441406 94.992188 165.398438 94.21875 C 165.347656 93.4375 165.601563 92.824219 166.164063 92.375 C 166.5 92.105469 166.847656 91.949219 167.210938 91.90625 C 167.566406 91.867188 167.945313 91.933594 168.351563 92.109375 Z M 167.210938 95.953125 C 167.703125 96.570313 168.199219 96.964844 168.710938 97.140625 C 169.230469 97.308594 169.6875 97.230469 170.085938 96.90625 C 170.492188 96.585938 170.664063 96.15625 170.601563 95.625 C 170.546875 95.085938 170.277344 94.507813 169.789063 93.890625 C 169.289063 93.277344 168.78125 92.886719 168.273438 92.71875 C 167.765625 92.554688 167.304688 92.632813 166.898438 92.953125 C 166.503906 93.277344 166.332031 93.703125 166.382813 94.234375 C 166.4375 94.765625 166.710938 95.339844 167.210938 95.953125 Z M 167.210938 95.953125 "/>
</g>
</svg>

