<?xml version="1.0" encoding="UTF-8"?>
<svg xmlns="http://www.w3.org/2000/svg" xmlns:xlink="http://www.w3.org/1999/xlink" width="256pt" height="256pt" viewBox="0 0 256 256" version="1.1">
<g id="surface2">
<rect x="0" y="0" width="256" height="256" style="fill:rgb(60%,70.196078%,80%);fill-opacity:1;stroke:none;"/>
<path style=" stroke:none;fill-rule:evenodd;fill:rgb(94.901961%,93.72549%,91.372549%);fill-opacity:1;" d="M 259 259 L -4 259 L -4 187.441406 L 14.796875 185.914063 L 44.9375 176.230469 L 69.9375 168.199219 L 92.554688 146.503906 L 113.292969 130.414063 L 136.394531 109.046875 L 145.433594 99.558594 L 156.105469 88.886719 L 163.8125 82.367188 L 173.890625 75.546875 L 182.636719 72.433594 L 186.644531 72.054688 L 195.234375 71.25 L 199.980469 71.101563 L 206.203125 74.953125 L 207.984375 77.179688 L 207.386719 79.253906 L 197.457031 87.703125 L 187.527344 95.703125 L 184.265625 99.410156 L 180.410156 107.710938 L 171.074219 135.277344 L 166.925781 141.207031 L 160.105469 147.433594 L 131.058594 168.035156 L 123.515625 178.445313 L 120.679688 185.378906 L 116.679688 189.230469 L 112.976563 191.898438 L 110.15625 195.457031 L 108.824219 201.53125 L 109.417969 212.207031 L 106.15625 223.46875 L 93.703125 257.414063 L 92.699219 259 L 139.105469 259 L 141.703125 252.84375 L 141.703125 248.25 L 140.816406 239.949219 L 141.851563 236.6875 L 146.59375 228.980469 L 148.375 225.125 L 158.796875 217.414063 L 173.71875 203.335938 L 178.316406 196.222656 L 185.574219 190.738281 L 190.617188 184.363281 L 192.691406 179.03125 L 199.210938 171.472656 L 213.144531 163.023438 L 217.441406 156.054688 L 223.222656 143.902344 L 223.667969 133.972656 L 225.742188 128.933594 L 228.558594 125.226563 L 233.601563 123.003906 L 249.015625 117.519531 L 258.351563 109.660156 L 259 109.300781 L 259 -4 Z M 259 259 "/>
<path style=" stroke:none;fill-rule:evenodd;fill:rgb(70.980392%,82.352941%,61.176471%);fill-opacity:1;" d="M 158.496094 260 L 157.800781 251.234375 L 158.003906 249.800781 L 158.546875 248.957031 L 260 240.378906 L 260 260 L 260 -4 L 260 108.746094 L 258.351563 109.660156 L 249.015625 117.519531 L 233.601563 123.003906 L 228.5625 125.226563 L 225.742188 128.933594 L 223.667969 133.972656 L 223.222656 143.902344 L 217.445313 156.054688 L 213.148438 163.023438 L 199.210938 171.472656 L 192.691406 179.03125 L 190.617188 184.363281 L 185.574219 190.738281 L 178.316406 196.222656 L 173.71875 203.335938 L 158.796875 217.414063 L 148.375 225.125 L 146.59375 228.980469 L 141.851563 236.6875 L 140.816406 239.949219 L 141.703125 248.25 L 141.703125 252.84375 L 138.890625 259.511719 L 138.878906 260 Z M 158.496094 260 "/>
<path style=" stroke:none;fill-rule:evenodd;fill:rgb(94.901961%,93.72549%,91.372549%);fill-opacity:1;" d="M 160.78125 260 L 260 260 L 260 242.144531 L 159.976563 249.867188 Z M 160.78125 260 "/>
<path style="fill:none;stroke-width:1;stroke-linecap:round;stroke-linejoin:round;stroke:rgb(89.019608%,87.058824%,83.137255%);stroke-opacity:1;stroke-miterlimit:10;" d="M 160.78125 260 L 260 260 L 260 242.144531 L 159.976563 249.867188 L 160.78125 260 "/>
<path style=" stroke:none;fill-rule:evenodd;fill:rgb(70.980392%,82.352941%,61.176471%);fill-opacity:1;" d="M -4 188.242188 L 6.492188 187.496094 L 8.917969 218.449219 L 106.457031 211.230469 L 108.824219 201.53125 L 110.15625 195.457031 L 112.976563 191.898438 L 116.679688 189.230469 L 120.679688 185.378906 L 123.515625 178.445313 L 131.058594 168.035156 L 160.105469 147.433594 L 166.925781 141.207031 L 171.074219 135.277344 L 180.414063 107.710938 L 184.265625 99.410156 L 187.527344 95.703125 L 197.457031 87.703125 L 207.390625 79.253906 L 199.980469 71.101563 L 186.644531 72.058594 L 167.761719 80.867188 L 69.9375 168.199219 L 14.796875 185.914063 L -4 187.441406 Z M -4 188.242188 "/>
<path style=" stroke:none;fill-rule:evenodd;fill:rgb(87.058824%,81.960784%,67.058824%);fill-opacity:1;" d="M 254.488281 225.078125 L 260 224.742188 L 260 214.636719 L 253.875 215.011719 Z M 254.488281 225.078125 "/>
<path style="fill:none;stroke-width:8;stroke-linecap:round;stroke-linejoin:round;stroke:rgb(75.686275%,70.980392%,61.568627%);stroke-opacity:1;stroke-miterlimit:10;" d="M 199.398438 245.058594 L 200.757813 264 "/>
<path style="fill:none;stroke-width:8;stroke-linecap:round;stroke-linejoin:round;stroke:rgb(75.686275%,70.980392%,61.568627%);stroke-opacity:1;stroke-miterlimit:10;" d="M 241.066406 242.011719 L 242.667969 264 "/>
<path style="fill:none;stroke-width:8;stroke-linecap:round;stroke-linejoin:round;stroke:rgb(75.686275%,70.980392%,61.568627%);stroke-opacity:1;stroke-miterlimit:10;" d="M 158.8125 264 L 157.800781 251.234375 L 158.003906 249.800781 L 158.546875 248.957031 "/>
<path style="fill:none;stroke-width:8;stroke-linecap:round;stroke-linejoin:round;stroke:rgb(75.686275%,70.980392%,61.568627%);stroke-opacity:1;stroke-miterlimit:10;" d="M 106.457031 211.230469 L 52.605469 215.226563 L 30.644531 216.804688 L 8.917969 218.449219 L -9 219.648438 "/>
<path style="fill:none;stroke-width:8;stroke-linecap:round;stroke-linejoin:round;stroke:rgb(75.686275%,70.980392%,61.568627%);stroke-opacity:1;stroke-miterlimit:10;" d="M 264 240.058594 L 241.066406 242.011719 L 199.398438 245.058594 L 160.679688 247.886719 L 159.484375 248.269531 L 158.546875 248.957031 "/>
<path style="fill:none;stroke-width:8;stroke-linecap:round;stroke-linejoin:round;stroke:rgb(75.686275%,70.980392%,61.568627%);stroke-opacity:1;stroke-miterlimit:10;" d="M 6.675781 198.292969 L 5.367188 197.820313 L -9 198.84375 "/>
<path style="fill:none;stroke-width:8;stroke-linecap:round;stroke-linejoin:round;stroke:rgb(75.686275%,70.980392%,61.568627%);stroke-opacity:1;stroke-miterlimit:10;" d="M 30.644531 216.804688 L 34.148438 258.742188 L 34.558594 264 "/>
<path style="fill:none;stroke-width:8;stroke-linecap:round;stroke-linejoin:round;stroke:rgb(75.686275%,70.980392%,61.568627%);stroke-opacity:1;stroke-miterlimit:10;" d="M 228.019531 161.066406 L 235.769531 149.066406 L 244.019531 148.566406 L 255.015625 147.316406 L 264 145.4375 "/>
<path style="fill:none;stroke-width:8;stroke-linecap:round;stroke-linejoin:round;stroke:rgb(75.686275%,70.980392%,61.568627%);stroke-opacity:1;stroke-miterlimit:10;" d="M 56.46875 264 L 55.9375 257.390625 L 52.605469 215.226563 "/>
<path style="fill:none;stroke-width:8;stroke-linecap:round;stroke-linejoin:round;stroke:rgb(75.686275%,70.980392%,61.568627%);stroke-opacity:1;stroke-miterlimit:10;" d="M 12.667969 264 L 12.386719 260.460938 L 8.917969 218.449219 L 7.316406 199.472656 L 6.675781 198.292969 "/>
<path style="fill:none;stroke-width:8;stroke-linecap:round;stroke-linejoin:round;stroke:rgb(75.686275%,70.980392%,61.568627%);stroke-opacity:1;stroke-miterlimit:10;" d="M 91.433594 254.230469 L 55.9375 257.390625 L 34.148438 258.742188 L 12.386719 260.460938 L -9 262.140625 "/>
<path style="fill:none;stroke-width:6;stroke-linecap:round;stroke-linejoin:round;stroke:rgb(100%,100%,100%);stroke-opacity:1;stroke-miterlimit:10;" d="M 199.398438 245.058594 L 200.757813 264 "/>
<path style="fill:none;stroke-width:6;stroke-linecap:round;stroke-linejoin:round;stroke:rgb(100%,100%,100%);stroke-opacity:1;stroke-miterlimit:10;" d="M 241.066406 242.011719 L 242.667969 264 "/>
<path style="fill:none;stroke-width:6;stroke-linecap:round;stroke-linejoin:round;stroke:rgb(100%,100%,100%);stroke-opacity:1;stroke-miterlimit:10;" d="M 158.8125 264 L 157.800781 251.234375 L 158.003906 249.800781 L 158.546875 248.957031 "/>
<path style="fill:none;stroke-width:6;stroke-linecap:round;stroke-linejoin:round;stroke:rgb(100%,100%,100%);stroke-opacity:1;stroke-miterlimit:10;" d="M 106.457031 211.230469 L 52.605469 215.226563 L 30.644531 216.804688 L 8.917969 218.449219 L -9 219.648438 "/>
<path style="fill:none;stroke-width:6;stroke-linecap:round;stroke-linejoin:round;stroke:rgb(100%,100%,100%);stroke-opacity:1;stroke-miterlimit:10;" d="M 264 240.058594 L 241.066406 242.011719 L 199.398438 245.058594 L 160.679688 247.886719 L 159.484375 248.269531 L 158.546875 248.957031 "/>
<path style="fill:none;stroke-width:6;stroke-linecap:round;stroke-linejoin:round;stroke:rgb(100%,100%,100%);stroke-opacity:1;stroke-miterlimit:10;" d="M 6.675781 198.292969 L 5.367188 197.820313 L -9 198.84375 "/>
<path style="fill:none;stroke-width:6;stroke-linecap:round;stroke-linejoin:round;stroke:rgb(100%,100%,100%);stroke-opacity:1;stroke-miterlimit:10;" d="M 30.644531 216.804688 L 34.148438 258.742188 L 34.558594 264 "/>
<path style="fill:none;stroke-width:6;stroke-linecap:round;stroke-linejoin:round;stroke:rgb(100%,100%,100%);stroke-opacity:1;stroke-miterlimit:10;" d="M 228.019531 161.066406 L 235.769531 149.066406 L 244.019531 148.566406 L 255.015625 147.316406 L 264 145.4375 "/>
<path style="fill:none;stroke-width:6;stroke-linecap:round;stroke-linejoin:round;stroke:rgb(100%,100%,100%);stroke-opacity:1;stroke-miterlimit:10;" d="M 56.46875 264 L 55.9375 257.390625 L 52.605469 215.226563 "/>
<path style="fill:none;stroke-width:6;stroke-linecap:round;stroke-linejoin:round;stroke:rgb(100%,100%,100%);stroke-opacity:1;stroke-miterlimit:10;" d="M 12.667969 264 L 12.386719 260.460938 L 8.917969 218.449219 L 7.316406 199.472656 L 6.675781 198.292969 "/>
<path style="fill:none;stroke-width:6;stroke-linecap:round;stroke-linejoin:round;stroke:rgb(100%,100%,100%);stroke-opacity:1;stroke-miterlimit:10;" d="M 91.433594 254.230469 L 55.9375 257.390625 L 34.148438 258.742188 L 12.386719 260.460938 L -9 262.140625 "/>
<path style="fill:none;stroke-width:3;stroke-linecap:round;stroke-linejoin:round;stroke:rgb(100%,100%,100%);stroke-opacity:1;stroke-miterlimit:10;" d="M 85.847656 144.929688 L 85.847656 151.164063 L 87.019531 151.164063 C 88.019531 151.164063 88.746094 150.914063 89.207031 150.414063 C 89.675781 149.914063 89.910156 149.125 89.910156 148.039063 C 89.910156 146.96875 89.675781 146.179688 89.207031 145.679688 C 88.746094 145.179688 88.019531 144.929688 87.019531 144.929688 Z M 84.863281 144.039063 L 86.863281 144.039063 C 88.269531 144.039063 89.292969 144.363281 89.941406 145.007813 C 90.597656 145.65625 90.925781 146.664063 90.925781 148.039063 C 90.925781 149.425781 90.597656 150.441406 89.941406 151.085938 C 89.285156 151.734375 88.257813 152.054688 86.863281 152.054688 L 84.863281 152.054688 Z M 92.363281 149.679688 L 92.363281 146.039063 L 93.253906 146.039063 L 93.253906 149.648438 C 93.253906 150.210938 93.351563 150.640625 93.550781 150.929688 C 93.746094 151.210938 94.042969 151.351563 94.441406 151.351563 C 94.929688 151.351563 95.308594 151.1875 95.582031 150.851563 C 95.863281 150.507813 96.003906 150.039063 96.003906 149.445313 L 96.003906 146.039063 L 96.894531 146.039063 L 96.894531 152.054688 L 96.003906 152.054688 L 96.003906 151.132813 C 95.785156 151.5 95.535156 151.769531 95.253906 151.945313 C 94.972656 152.121094 94.636719 152.210938 94.253906 152.210938 C 93.636719 152.210938 93.167969 152 92.847656 151.570313 C 92.523438 151.132813 92.363281 150.503906 92.363281 149.679688 Z M 94.597656 145.898438 Z M 102.613281 149.054688 C 102.613281 148.328125 102.476563 147.757813 102.207031 147.351563 C 101.945313 146.9375 101.582031 146.726563 101.113281 146.726563 C 100.632813 146.726563 100.257813 146.9375 99.988281 147.351563 C 99.726563 147.757813 99.597656 148.328125 99.597656 149.054688 C 99.597656 149.785156 99.726563 150.359375 99.988281 150.773438 C 100.257813 151.179688 100.632813 151.382813 101.113281 151.382813 C 101.582031 151.382813 101.945313 151.179688 102.207031 150.773438 C 102.476563 150.359375 102.613281 149.785156 102.613281 149.054688 Z M 99.597656 146.945313 C 99.785156 146.59375 100.019531 146.332031 100.300781 146.164063 C 100.582031 145.988281 100.925781 145.898438 101.332031 145.898438 C 101.988281 145.898438 102.519531 146.191406 102.925781 146.773438 C 103.332031 147.347656 103.535156 148.109375 103.535156 149.054688 C 103.535156 150.003906 103.332031 150.769531 102.925781 151.351563 C 102.519531 151.925781 101.988281 152.210938 101.332031 152.210938 C 100.925781 152.210938 100.582031 152.125 100.300781 151.960938 C 100.019531 151.785156 99.785156 151.515625 99.597656 151.148438 L 99.597656 152.054688 L 98.691406 152.054688 L 98.691406 143.695313 L 99.597656 143.695313 Z M 107.113281 146.726563 C 106.632813 146.726563 106.253906 146.9375 105.972656 147.351563 C 105.699219 147.769531 105.566406 148.335938 105.566406 149.054688 C 105.566406 149.773438 105.699219 150.34375 105.972656 150.757813 C 106.253906 151.164063 106.632813 151.367188 107.113281 151.367188 C 107.589844 151.367188 107.964844 151.164063 108.238281 150.757813 C 108.519531 150.34375 108.660156 149.773438 108.660156 149.054688 C 108.660156 148.335938 108.519531 147.769531 108.238281 147.351563 C 107.964844 146.9375 107.589844 146.726563 107.113281 146.726563 Z M 107.113281 145.898438 C 107.882813 145.898438 108.488281 146.179688 108.925781 146.742188 C 109.371094 147.296875 109.597656 148.066406 109.597656 149.054688 C 109.597656 150.035156 109.371094 150.804688 108.925781 151.367188 C 108.488281 151.929688 107.882813 152.210938 107.113281 152.210938 C 106.332031 152.210938 105.722656 151.929688 105.285156 151.367188 C 104.847656 150.804688 104.628906 150.035156 104.628906 149.054688 C 104.628906 148.066406 104.847656 147.296875 105.285156 146.742188 C 105.722656 146.179688 106.332031 145.898438 107.113281 145.898438 Z M 114.519531 146.210938 L 114.519531 147.148438 C 114.257813 147.003906 113.992188 146.898438 113.722656 146.835938 C 113.460938 146.765625 113.183594 146.726563 112.894531 146.726563 C 112.445313 146.726563 112.113281 146.804688 111.894531 146.960938 C 111.675781 147.109375 111.566406 147.328125 111.566406 147.617188 C 111.566406 147.847656 111.644531 148.03125 111.800781 148.164063 C 111.957031 148.289063 112.273438 148.414063 112.753906 148.539063 L 113.050781 148.617188 C 113.683594 148.765625 114.132813 148.976563 114.394531 149.257813 C 114.664063 149.53125 114.800781 149.910156 114.800781 150.398438 C 114.800781 150.953125 114.601563 151.394531 114.207031 151.726563 C 113.808594 152.050781 113.261719 152.210938 112.566406 152.210938 C 112.273438 152.210938 111.972656 152.179688 111.660156 152.117188 C 111.347656 152.054688 111.011719 151.960938 110.660156 151.835938 L 110.660156 150.820313 C 110.992188 151.007813 111.316406 151.148438 111.628906 151.242188 C 111.949219 151.335938 112.269531 151.382813 112.582031 151.382813 C 112.996094 151.382813 113.320313 151.304688 113.550781 151.148438 C 113.777344 150.984375 113.894531 150.757813 113.894531 150.476563 C 113.894531 150.207031 113.808594 150 113.644531 149.851563 C 113.476563 149.707031 113.117188 149.570313 112.566406 149.445313 L 112.269531 149.351563 C 111.714844 149.226563 111.316406 149.035156 111.066406 148.773438 C 110.824219 148.503906 110.707031 148.132813 110.707031 147.664063 C 110.707031 147.101563 110.882813 146.671875 111.238281 146.367188 C 111.601563 146.054688 112.117188 145.898438 112.785156 145.898438 C 113.105469 145.898438 113.414063 145.925781 113.707031 145.976563 C 113.996094 146.03125 114.269531 146.109375 114.519531 146.210938 Z M 120.378906 144.929688 L 120.378906 147.945313 L 121.597656 147.945313 C 122.054688 147.945313 122.410156 147.816406 122.660156 147.554688 C 122.910156 147.285156 123.035156 146.910156 123.035156 146.429688 C 123.035156 145.953125 122.910156 145.582031 122.660156 145.320313 C 122.410156 145.0625 122.054688 144.929688 121.597656 144.929688 Z M 119.394531 144.039063 L 121.597656 144.039063 C 122.410156 144.039063 123.019531 144.242188 123.425781 144.648438 C 123.839844 145.054688 124.050781 145.648438 124.050781 146.429688 C 124.050781 147.222656 123.839844 147.820313 123.425781 148.226563 C 123.019531 148.632813 122.410156 148.835938 121.597656 148.835938 L 120.378906 148.835938 L 120.378906 152.054688 L 119.394531 152.054688 Z M 127.425781 146.726563 C 126.945313 146.726563 126.566406 146.9375 126.285156 147.351563 C 126.011719 147.769531 125.878906 148.335938 125.878906 149.054688 C 125.878906 149.773438 126.011719 150.34375 126.285156 150.757813 C 126.566406 151.164063 126.945313 151.367188 127.425781 151.367188 C 127.902344 151.367188 128.277344 151.164063 128.550781 150.757813 C 128.832031 150.34375 128.972656 149.773438 128.972656 149.054688 C 128.972656 148.335938 128.832031 147.769531 128.550781 147.351563 C 128.277344 146.9375 127.902344 146.726563 127.425781 146.726563 Z M 127.425781 145.898438 C 128.195313 145.898438 128.800781 146.179688 129.238281 146.742188 C 129.683594 147.296875 129.910156 148.066406 129.910156 149.054688 C 129.910156 150.035156 129.683594 150.804688 129.238281 151.367188 C 128.800781 151.929688 128.195313 152.210938 127.425781 152.210938 C 126.644531 152.210938 126.035156 151.929688 125.597656 151.367188 C 125.160156 150.804688 124.941406 150.035156 124.941406 149.054688 C 124.941406 148.066406 125.160156 147.296875 125.597656 146.742188 C 126.035156 146.179688 126.644531 145.898438 127.425781 145.898438 Z M 131.378906 146.039063 L 132.269531 146.039063 L 132.269531 152.054688 L 131.378906 152.054688 Z M 131.378906 143.695313 L 132.269531 143.695313 L 132.269531 144.945313 L 131.378906 144.945313 Z M 138.628906 148.429688 L 138.628906 152.054688 L 137.738281 152.054688 L 137.738281 148.460938 C 137.738281 147.890625 137.632813 147.460938 137.425781 147.179688 C 137.226563 146.898438 136.929688 146.757813 136.535156 146.757813 C 136.054688 146.757813 135.675781 146.929688 135.394531 147.273438 C 135.121094 147.609375 134.988281 148.066406 134.988281 148.648438 L 134.988281 152.054688 L 134.082031 152.054688 L 134.082031 146.039063 L 134.988281 146.039063 L 134.988281 146.976563 C 135.195313 146.613281 135.441406 146.34375 135.722656 146.164063 C 136.011719 145.988281 136.351563 145.898438 136.738281 145.898438 C 137.351563 145.898438 137.820313 146.113281 138.144531 146.539063 C 138.464844 146.96875 138.628906 147.597656 138.628906 148.429688 Z M 141.285156 144.335938 L 141.285156 146.039063 L 143.113281 146.039063 L 143.113281 146.804688 L 141.285156 146.804688 L 141.285156 150.070313 C 141.285156 150.5625 141.339844 150.878906 141.457031 151.023438 C 141.582031 151.160156 141.832031 151.226563 142.207031 151.226563 L 143.113281 151.226563 L 143.113281 152.054688 L 142.207031 152.054688 C 141.519531 152.054688 141.042969 151.914063 140.785156 151.632813 C 140.523438 151.34375 140.394531 150.820313 140.394531 150.070313 L 140.394531 146.804688 L 139.738281 146.804688 L 139.738281 146.039063 L 140.394531 146.039063 L 140.394531 144.335938 Z M 95.722656 155.039063 L 96.707031 155.039063 L 98.222656 161.820313 L 99.738281 155.039063 L 100.832031 155.039063 L 102.363281 161.820313 L 103.863281 155.039063 L 104.863281 155.039063 L 103.050781 163.054688 L 101.816406 163.054688 L 100.300781 156.085938 L 98.753906 163.054688 L 97.535156 163.054688 Z M 106.113281 157.039063 L 107.003906 157.039063 L 107.003906 163.054688 L 106.113281 163.054688 Z M 106.113281 154.695313 L 107.003906 154.695313 L 107.003906 155.945313 L 106.113281 155.945313 Z M 108.863281 154.695313 L 109.753906 154.695313 L 109.753906 163.054688 L 108.863281 163.054688 Z M 115.175781 157.945313 L 115.175781 154.695313 L 116.066406 154.695313 L 116.066406 163.054688 L 115.175781 163.054688 L 115.175781 162.148438 C 114.988281 162.515625 114.746094 162.785156 114.457031 162.960938 C 114.175781 163.125 113.835938 163.210938 113.441406 163.210938 C 112.785156 163.210938 112.246094 162.925781 111.832031 162.351563 C 111.425781 161.769531 111.222656 161.003906 111.222656 160.054688 C 111.222656 159.109375 111.425781 158.347656 111.832031 157.773438 C 112.246094 157.191406 112.785156 156.898438 113.441406 156.898438 C 113.835938 156.898438 114.175781 156.988281 114.457031 157.164063 C 114.746094 157.332031 114.988281 157.59375 115.175781 157.945313 Z M 112.144531 160.054688 C 112.144531 160.785156 112.273438 161.359375 112.535156 161.773438 C 112.804688 162.179688 113.175781 162.382813 113.644531 162.382813 C 114.121094 162.382813 114.496094 162.179688 114.769531 161.773438 C 115.039063 161.359375 115.175781 160.785156 115.175781 160.054688 C 115.175781 159.328125 115.039063 158.757813 114.769531 158.351563 C 114.496094 157.9375 114.121094 157.726563 113.644531 157.726563 C 113.175781 157.726563 112.804688 157.9375 112.535156 158.351563 C 112.273438 158.757813 112.144531 159.328125 112.144531 160.054688 Z M 117.894531 154.695313 L 118.785156 154.695313 L 118.785156 163.054688 L 117.894531 163.054688 Z M 120.644531 157.039063 L 121.535156 157.039063 L 121.535156 163.054688 L 120.644531 163.054688 Z M 120.644531 154.695313 L 121.535156 154.695313 L 121.535156 155.945313 L 120.644531 155.945313 Z M 126.128906 154.695313 L 126.128906 155.523438 L 125.285156 155.523438 C 124.960938 155.523438 124.738281 155.597656 124.613281 155.742188 C 124.488281 155.878906 124.425781 156.132813 124.425781 156.507813 L 124.425781 157.039063 L 125.894531 157.039063 L 125.894531 157.804688 L 124.425781 157.804688 L 124.425781 163.054688 L 123.535156 163.054688 L 123.535156 157.804688 L 122.675781 157.804688 L 122.675781 157.039063 L 123.535156 157.039063 L 123.535156 156.617188 C 123.535156 155.953125 123.675781 155.46875 123.957031 155.164063 C 124.238281 154.851563 124.679688 154.695313 125.285156 154.695313 Z M 131.503906 159.804688 L 131.503906 160.289063 L 127.410156 160.289063 C 127.449219 160.96875 127.636719 161.484375 127.972656 161.835938 C 128.304688 162.191406 128.761719 162.367188 129.347656 162.367188 C 129.691406 162.367188 130.019531 162.320313 130.332031 162.226563 C 130.652344 162.132813 130.976563 162 131.300781 161.820313 L 131.300781 162.742188 C 130.976563 162.898438 130.648438 163.015625 130.316406 163.085938 C 129.980469 163.167969 129.644531 163.210938 129.300781 163.210938 C 128.433594 163.210938 127.746094 162.9375 127.238281 162.382813 C 126.738281 161.820313 126.488281 161.0625 126.488281 160.101563 C 126.488281 159.125 126.726563 158.347656 127.207031 157.773438 C 127.683594 157.191406 128.332031 156.898438 129.144531 156.898438 C 129.871094 156.898438 130.445313 157.160156 130.863281 157.679688 C 131.289063 158.203125 131.503906 158.910156 131.503906 159.804688 Z M 130.613281 159.507813 C 130.601563 158.96875 130.464844 158.535156 130.207031 158.210938 C 129.945313 157.890625 129.597656 157.726563 129.160156 157.726563 C 128.660156 157.726563 128.257813 157.882813 127.957031 158.195313 C 127.652344 158.507813 127.480469 158.945313 127.441406 159.507813 Z M 93.691406 166.304688 L 93.691406 167.351563 C 93.324219 167.15625 92.976563 167.007813 92.644531 166.914063 C 92.308594 166.820313 91.992188 166.773438 91.691406 166.773438 C 91.160156 166.773438 90.746094 166.890625 90.457031 167.117188 C 90.175781 167.347656 90.035156 167.671875 90.035156 168.085938 C 90.035156 168.441406 90.128906 168.710938 90.316406 168.898438 C 90.503906 169.078125 90.867188 169.222656 91.410156 169.335938 L 91.988281 169.460938 C 92.714844 169.617188 93.253906 169.894531 93.597656 170.289063 C 93.949219 170.675781 94.128906 171.191406 94.128906 171.835938 C 94.128906 172.617188 93.894531 173.210938 93.425781 173.617188 C 92.957031 174.015625 92.269531 174.210938 91.363281 174.210938 C 91.019531 174.210938 90.652344 174.164063 90.269531 174.070313 C 89.882813 173.988281 89.488281 173.863281 89.082031 173.695313 L 89.082031 172.585938 C 89.476563 172.835938 89.863281 173.023438 90.238281 173.148438 C 90.621094 173.273438 90.996094 173.335938 91.363281 173.335938 C 91.914063 173.335938 92.339844 173.21875 92.644531 172.976563 C 92.957031 172.726563 93.113281 172.378906 93.113281 171.929688 C 93.113281 171.535156 93.003906 171.226563 92.785156 171.007813 C 92.566406 170.78125 92.207031 170.609375 91.707031 170.492188 L 91.113281 170.367188 C 90.382813 170.210938 89.855469 169.960938 89.535156 169.617188 C 89.210938 169.273438 89.050781 168.796875 89.050781 168.179688 C 89.050781 167.472656 89.273438 166.914063 89.722656 166.507813 C 90.167969 166.09375 90.789063 165.882813 91.582031 165.882813 C 91.925781 165.882813 92.269531 165.921875 92.613281 165.992188 C 92.964844 166.066406 93.324219 166.171875 93.691406 166.304688 Z M 98.066406 171.023438 C 97.347656 171.023438 96.847656 171.117188 96.566406 171.304688 C 96.292969 171.492188 96.160156 171.804688 96.160156 172.242188 C 96.160156 172.585938 96.261719 172.863281 96.472656 173.070313 C 96.679688 173.28125 96.960938 173.382813 97.316406 173.382813 C 97.816406 173.382813 98.210938 173.191406 98.503906 172.804688 C 98.804688 172.410156 98.957031 171.894531 98.957031 171.257813 L 98.957031 171.023438 Z M 99.847656 170.617188 L 99.847656 174.054688 L 98.957031 174.054688 L 98.957031 173.148438 C 98.746094 173.515625 98.492188 173.785156 98.191406 173.960938 C 97.886719 174.125 97.519531 174.210938 97.082031 174.210938 C 96.527344 174.210938 96.085938 174.039063 95.753906 173.695313 C 95.429688 173.351563 95.269531 172.890625 95.269531 172.304688 C 95.269531 171.628906 95.472656 171.117188 95.878906 170.773438 C 96.285156 170.429688 96.894531 170.257813 97.707031 170.257813 L 98.957031 170.257813 L 98.957031 170.164063 C 98.957031 169.707031 98.820313 169.351563 98.550781 169.101563 C 98.277344 168.851563 97.898438 168.726563 97.410156 168.726563 C 97.105469 168.726563 96.804688 168.769531 96.503906 168.851563 C 96.210938 168.9375 95.929688 169.0625 95.660156 169.226563 L 95.660156 168.320313 C 95.992188 168.175781 96.308594 168.070313 96.613281 168.007813 C 96.914063 167.9375 97.210938 167.898438 97.503906 167.898438 C 98.285156 167.898438 98.867188 168.125 99.253906 168.570313 C 99.648438 169.019531 99.847656 169.703125 99.847656 170.617188 Z M 106.175781 170.429688 L 106.175781 174.054688 L 105.285156 174.054688 L 105.285156 170.460938 C 105.285156 169.890625 105.179688 169.460938 104.972656 169.179688 C 104.773438 168.898438 104.476563 168.757813 104.082031 168.757813 C 103.601563 168.757813 103.222656 168.929688 102.941406 169.273438 C 102.667969 169.609375 102.535156 170.066406 102.535156 170.648438 L 102.535156 174.054688 L 101.628906 174.054688 L 101.628906 168.039063 L 102.535156 168.039063 L 102.535156 168.976563 C 102.742188 168.613281 102.988281 168.34375 103.269531 168.164063 C 103.558594 167.988281 103.898438 167.898438 104.285156 167.898438 C 104.898438 167.898438 105.367188 168.113281 105.691406 168.539063 C 106.011719 168.96875 106.175781 169.597656 106.175781 170.429688 Z M 111.847656 168.273438 L 111.847656 169.195313 C 111.597656 169.039063 111.347656 168.925781 111.097656 168.851563 C 110.847656 168.769531 110.589844 168.726563 110.332031 168.726563 C 109.746094 168.726563 109.292969 168.929688 108.972656 169.335938 C 108.660156 169.742188 108.503906 170.316406 108.503906 171.054688 C 108.503906 171.785156 108.660156 172.351563 108.972656 172.757813 C 109.292969 173.164063 109.746094 173.367188 110.332031 173.367188 C 110.589844 173.367188 110.847656 173.332031 111.097656 173.257813 C 111.347656 173.1875 111.597656 173.070313 111.847656 172.914063 L 111.847656 173.820313 C 111.597656 173.957031 111.335938 174.054688 111.066406 174.117188 C 110.804688 174.179688 110.527344 174.210938 110.238281 174.210938 C 109.414063 174.210938 108.761719 173.929688 108.285156 173.367188 C 107.804688 172.796875 107.566406 172.023438 107.566406 171.054688 C 107.566406 170.078125 107.804688 169.304688 108.285156 168.742188 C 108.773438 168.179688 109.441406 167.898438 110.285156 167.898438 C 110.554688 167.898438 110.820313 167.929688 111.082031 167.992188 C 111.351563 168.054688 111.605469 168.148438 111.847656 168.273438 Z M 114.269531 166.335938 L 114.269531 168.039063 L 116.097656 168.039063 L 116.097656 168.804688 L 114.269531 168.804688 L 114.269531 172.070313 C 114.269531 172.5625 114.324219 172.878906 114.441406 173.023438 C 114.566406 173.160156 114.816406 173.226563 115.191406 173.226563 L 116.097656 173.226563 L 116.097656 174.054688 L 115.191406 174.054688 C 114.503906 174.054688 114.027344 173.914063 113.769531 173.632813 C 113.507813 173.34375 113.378906 172.820313 113.378906 172.070313 L 113.378906 168.804688 L 112.722656 168.804688 L 112.722656 168.039063 L 113.378906 168.039063 L 113.378906 166.335938 Z M 117.175781 171.679688 L 117.175781 168.039063 L 118.066406 168.039063 L 118.066406 171.648438 C 118.066406 172.210938 118.164063 172.640625 118.363281 172.929688 C 118.558594 173.210938 118.855469 173.351563 119.253906 173.351563 C 119.742188 173.351563 120.121094 173.1875 120.394531 172.851563 C 120.675781 172.507813 120.816406 172.039063 120.816406 171.445313 L 120.816406 168.039063 L 121.707031 168.039063 L 121.707031 174.054688 L 120.816406 174.054688 L 120.816406 173.132813 C 120.597656 173.5 120.347656 173.769531 120.066406 173.945313 C 119.785156 174.121094 119.449219 174.210938 119.066406 174.210938 C 118.449219 174.210938 117.980469 174 117.660156 173.570313 C 117.335938 173.132813 117.175781 172.503906 117.175781 171.679688 Z M 119.410156 167.898438 Z M 126.003906 171.023438 C 125.285156 171.023438 124.785156 171.117188 124.503906 171.304688 C 124.230469 171.492188 124.097656 171.804688 124.097656 172.242188 C 124.097656 172.585938 124.199219 172.863281 124.410156 173.070313 C 124.617188 173.28125 124.898438 173.382813 125.253906 173.382813 C 125.753906 173.382813 126.148438 173.191406 126.441406 172.804688 C 126.742188 172.410156 126.894531 171.894531 126.894531 171.257813 L 126.894531 171.023438 Z M 127.785156 170.617188 L 127.785156 174.054688 L 126.894531 174.054688 L 126.894531 173.148438 C 126.683594 173.515625 126.429688 173.785156 126.128906 173.960938 C 125.824219 174.125 125.457031 174.210938 125.019531 174.210938 C 124.464844 174.210938 124.023438 174.039063 123.691406 173.695313 C 123.367188 173.351563 123.207031 172.890625 123.207031 172.304688 C 123.207031 171.628906 123.410156 171.117188 123.816406 170.773438 C 124.222656 170.429688 124.832031 170.257813 125.644531 170.257813 L 126.894531 170.257813 L 126.894531 170.164063 C 126.894531 169.707031 126.757813 169.351563 126.488281 169.101563 C 126.214844 168.851563 125.835938 168.726563 125.347656 168.726563 C 125.042969 168.726563 124.742188 168.769531 124.441406 168.851563 C 124.148438 168.9375 123.867188 169.0625 123.597656 169.226563 L 123.597656 168.320313 C 123.929688 168.175781 124.246094 168.070313 124.550781 168.007813 C 124.851563 167.9375 125.148438 167.898438 125.441406 167.898438 C 126.222656 167.898438 126.804688 168.125 127.191406 168.570313 C 127.585938 169.019531 127.785156 169.703125 127.785156 170.617188 Z M 132.753906 168.960938 C 132.648438 168.898438 132.535156 168.851563 132.410156 168.820313 C 132.292969 168.789063 132.167969 168.773438 132.035156 168.773438 C 131.523438 168.773438 131.132813 168.957031 130.863281 169.320313 C 130.601563 169.6875 130.472656 170.207031 130.472656 170.882813 L 130.472656 174.054688 L 129.566406 174.054688 L 129.566406 168.039063 L 130.472656 168.039063 L 130.472656 168.976563 C 130.660156 168.613281 130.898438 168.34375 131.191406 168.164063 C 131.492188 167.988281 131.855469 167.898438 132.285156 167.898438 C 132.347656 167.898438 132.414063 167.90625 132.488281 167.914063 C 132.570313 167.914063 132.652344 167.925781 132.738281 167.945313 Z M 135.925781 174.617188 C 135.675781 175.335938 135.429688 175.796875 135.191406 176.007813 C 134.949219 176.226563 134.632813 176.335938 134.238281 176.335938 L 133.519531 176.335938 L 133.519531 175.523438 L 134.050781 175.523438 C 134.289063 175.523438 134.476563 175.453125 134.613281 175.320313 C 134.746094 175.195313 134.898438 174.890625 135.066406 174.414063 L 135.222656 173.960938 L 133.035156 168.039063 L 133.972656 168.039063 L 135.660156 172.742188 L 137.363281 168.039063 L 138.300781 168.039063 Z M 135.925781 174.617188 "/>
<path style=" stroke:none;fill-rule:evenodd;fill:rgb(0%,0%,0%);fill-opacity:1;" d="M 85.847656 144.929688 L 85.847656 151.164063 L 87.019531 151.164063 C 88.019531 151.164063 88.746094 150.914063 89.207031 150.414063 C 89.675781 149.914063 89.910156 149.125 89.910156 148.039063 C 89.910156 146.96875 89.675781 146.179688 89.207031 145.679688 C 88.746094 145.179688 88.019531 144.929688 87.019531 144.929688 Z M 84.863281 144.039063 L 86.863281 144.039063 C 88.269531 144.039063 89.292969 144.363281 89.941406 145.007813 C 90.597656 145.65625 90.925781 146.664063 90.925781 148.039063 C 90.925781 149.425781 90.597656 150.441406 89.941406 151.085938 C 89.285156 151.734375 88.257813 152.054688 86.863281 152.054688 L 84.863281 152.054688 Z M 92.363281 149.679688 L 92.363281 146.039063 L 93.253906 146.039063 L 93.253906 149.648438 C 93.253906 150.210938 93.351563 150.640625 93.550781 150.929688 C 93.746094 151.210938 94.042969 151.351563 94.441406 151.351563 C 94.929688 151.351563 95.308594 151.1875 95.582031 150.851563 C 95.863281 150.507813 96.003906 150.039063 96.003906 149.445313 L 96.003906 146.039063 L 96.894531 146.039063 L 96.894531 152.054688 L 96.003906 152.054688 L 96.003906 151.132813 C 95.785156 151.5 95.535156 151.769531 95.253906 151.945313 C 94.972656 152.121094 94.636719 152.210938 94.253906 152.210938 C 93.636719 152.210938 93.167969 152 92.847656 151.570313 C 92.523438 151.132813 92.363281 150.503906 92.363281 149.679688 Z M 94.597656 145.898438 Z M 102.613281 149.054688 C 102.613281 148.328125 102.476563 147.757813 102.207031 147.351563 C 101.945313 146.9375 101.582031 146.726563 101.113281 146.726563 C 100.632813 146.726563 100.257813 146.9375 99.988281 147.351563 C 99.726563 147.757813 99.597656 148.328125 99.597656 149.054688 C 99.597656 149.785156 99.726563 150.359375 99.988281 150.773438 C 100.257813 151.179688 100.632813 151.382813 101.113281 151.382813 C 101.582031 151.382813 101.945313 151.179688 102.207031 150.773438 C 102.476563 150.359375 102.613281 149.785156 102.613281 149.054688 Z M 99.597656 146.945313 C 99.785156 146.59375 100.019531 146.332031 100.300781 146.164063 C 100.582031 145.988281 100.925781 145.898438 101.332031 145.898438 C 101.988281 145.898438 102.519531 146.191406 102.925781 146.773438 C 103.332031 147.347656 103.535156 148.109375 103.535156 149.054688 C 103.535156 150.003906 103.332031 150.769531 102.925781 151.351563 C 102.519531 151.925781 101.988281 152.210938 101.332031 152.210938 C 100.925781 152.210938 100.582031 152.125 100.300781 151.960938 C 100.019531 151.785156 99.785156 151.515625 99.597656 151.148438 L 99.597656 152.054688 L 98.691406 152.054688 L 98.691406 143.695313 L 99.597656 143.695313 Z M 107.113281 146.726563 C 106.632813 146.726563 106.253906 146.9375 105.972656 147.351563 C 105.699219 147.769531 105.566406 148.335938 105.566406 149.054688 C 105.566406 149.773438 105.699219 150.34375 105.972656 150.757813 C 106.253906 151.164063 106.632813 151.367188 107.113281 151.367188 C 107.589844 151.367188 107.964844 151.164063 108.238281 150.757813 C 108.519531 150.34375 108.660156 149.773438 108.660156 149.054688 C 108.660156 148.335938 108.519531 147.769531 108.238281 147.351563 C 107.964844 146.9375 107.589844 146.726563 107.113281 146.726563 Z M 107.113281 145.898438 C 107.882813 145.898438 108.488281 146.179688 108.925781 146.742188 C 109.371094 147.296875 109.597656 148.066406 109.597656 149.054688 C 109.597656 150.035156 109.371094 150.804688 108.925781 151.367188 C 108.488281 151.929688 107.882813 152.210938 107.113281 152.210938 C 106.332031 152.210938 105.722656 151.929688 105.285156 151.367188 C 104.847656 150.804688 104.628906 150.035156 104.628906 149.054688 C 104.628906 148.066406 104.847656 147.296875 105.285156 146.742188 C 105.722656 146.179688 106.332031 145.898438 107.113281 145.898438 Z M 114.519531 146.210938 L 114.519531 147.148438 C 114.257813 147.003906 113.992188 146.898438 113.722656 146.835938 C 113.460938 146.765625 113.183594 146.726563 112.894531 146.726563 C 112.445313 146.726563 112.113281 146.804688 111.894531 146.960938 C 111.675781 147.109375 111.566406 147.328125 111.566406 147.617188 C 111.566406 147.847656 111.644531 148.03125 111.800781 148.164063 C 111.957031 148.289063 112.273438 148.414063 112.753906 148.539063 L 113.050781 148.617188 C 113.683594 148.765625 114.132813 148.976563 114.394531 149.257813 C 114.664063 149.53125 114.800781 149.910156 114.800781 150.398438 C 114.800781 150.953125 114.601563 151.394531 114.207031 151.726563 C 113.808594 152.050781 113.261719 152.210938 112.566406 152.210938 C 112.273438 152.210938 111.972656 152.179688 111.660156 152.117188 C 111.347656 152.054688 111.011719 151.960938 110.660156 151.835938 L 110.660156 150.820313 C 110.992188 151.007813 111.316406 151.148438 111.628906 151.242188 C 111.949219 151.335938 112.269531 151.382813 112.582031 151.382813 C 112.996094 151.382813 113.320313 151.304688 113.550781 151.148438 C 113.777344 150.984375 113.894531 150.757813 113.894531 150.476563 C 113.894531 150.207031 113.808594 150 113.644531 149.851563 C 113.476563 149.707031 113.117188 149.570313 112.566406 149.445313 L 112.269531 149.351563 C 111.714844 149.226563 111.316406 149.035156 111.066406 148.773438 C 110.824219 148.503906 110.707031 148.132813 110.707031 147.664063 C 110.707031 147.101563 110.882813 146.671875 111.238281 146.367188 C 111.601563 146.054688 112.117188 145.898438 112.785156 145.898438 C 113.105469 145.898438 113.414063 145.925781 113.707031 145.976563 C 113.996094 146.03125 114.269531 146.109375 114.519531 146.210938 Z M 120.378906 144.929688 L 120.378906 147.945313 L 121.597656 147.945313 C 122.054688 147.945313 122.410156 147.816406 122.660156 147.554688 C 122.910156 147.285156 123.035156 146.910156 123.035156 146.429688 C 123.035156 145.953125 122.910156 145.582031 122.660156 145.320313 C 122.410156 145.0625 122.054688 144.929688 121.597656 144.929688 Z M 119.394531 144.039063 L 121.597656 144.039063 C 122.410156 144.039063 123.019531 144.242188 123.425781 144.648438 C 123.839844 145.054688 124.050781 145.648438 124.050781 146.429688 C 124.050781 147.222656 123.839844 147.820313 123.425781 148.226563 C 123.019531 148.632813 122.410156 148.835938 121.597656 148.835938 L 120.378906 148.835938 L 120.378906 152.054688 L 119.394531 152.054688 Z M 127.425781 146.726563 C 126.945313 146.726563 126.566406 146.9375 126.285156 147.351563 C 126.011719 147.769531 125.878906 148.335938 125.878906 149.054688 C 125.878906 149.773438 126.011719 150.34375 126.285156 150.757813 C 126.566406 151.164063 126.945313 151.367188 127.425781 151.367188 C 127.902344 151.367188 128.277344 151.164063 128.550781 150.757813 C 128.832031 150.34375 128.972656 149.773438 128.972656 149.054688 C 128.972656 148.335938 128.832031 147.769531 128.550781 147.351563 C 128.277344 146.9375 127.902344 146.726563 127.425781 146.726563 Z M 127.425781 145.898438 C 128.195313 145.898438 128.800781 146.179688 129.238281 146.742188 C 129.683594 147.296875 129.910156 148.066406 129.910156 149.054688 C 129.910156 150.035156 129.683594 150.804688 129.238281 151.367188 C 128.800781 151.929688 128.195313 152.210938 127.425781 152.210938 C 126.644531 152.210938 126.035156 151.929688 125.597656 151.367188 C 125.160156 150.804688 124.941406 150.035156 124.941406 149.054688 C 124.941406 148.066406 125.160156 147.296875 125.597656 146.742188 C 126.035156 146.179688 126.644531 145.898438 127.425781 145.898438 Z M 131.378906 146.039063 L 132.269531 146.039063 L 132.269531 152.054688 L 131.378906 152.054688 Z M 131.378906 143.695313 L 132.269531 143.695313 L 132.269531 144.945313 L 131.378906 144.945313 Z M 138.628906 148.429688 L 138.628906 152.054688 L 137.738281 152.054688 L 137.738281 148.460938 C 137.738281 147.890625 137.632813 147.460938 137.425781 147.179688 C 137.226563 146.898438 136.929688 146.757813 136.535156 146.757813 C 136.054688 146.757813 135.675781 146.929688 135.394531 147.273438 C 135.121094 147.609375 134.988281 148.066406 134.988281 148.648438 L 134.988281 152.054688 L 134.082031 152.054688 L 134.082031 146.039063 L 134.988281 146.039063 L 134.988281 146.976563 C 135.195313 146.613281 135.441406 146.34375 135.722656 146.164063 C 136.011719 145.988281 136.351563 145.898438 136.738281 145.898438 C 137.351563 145.898438 137.820313 146.113281 138.144531 146.539063 C 138.464844 146.96875 138.628906 147.597656 138.628906 148.429688 Z M 141.285156 144.335938 L 141.285156 146.039063 L 143.113281 146.039063 L 143.113281 146.804688 L 141.285156 146.804688 L 141.285156 150.070313 C 141.285156 150.5625 141.339844 150.878906 141.457031 151.023438 C 141.582031 151.160156 141.832031 151.226563 142.207031 151.226563 L 143.113281 151.226563 L 143.113281 152.054688 L 142.207031 152.054688 C 141.519531 152.054688 141.042969 151.914063 140.785156 151.632813 C 140.523438 151.34375 140.394531 150.820313 140.394531 150.070313 L 140.394531 146.804688 L 139.738281 146.804688 L 139.738281 146.039063 L 140.394531 146.039063 L 140.394531 144.335938 Z M 95.722656 155.039063 L 96.707031 155.039063 L 98.222656 161.820313 L 99.738281 155.039063 L 100.832031 155.039063 L 102.363281 161.820313 L 103.863281 155.039063 L 104.863281 155.039063 L 103.050781 163.054688 L 101.816406 163.054688 L 100.300781 156.085938 L 98.753906 163.054688 L 97.535156 163.054688 Z M 106.113281 157.039063 L 107.003906 157.039063 L 107.003906 163.054688 L 106.113281 163.054688 Z M 106.113281 154.695313 L 107.003906 154.695313 L 107.003906 155.945313 L 106.113281 155.945313 Z M 108.863281 154.695313 L 109.753906 154.695313 L 109.753906 163.054688 L 108.863281 163.054688 Z M 115.175781 157.945313 L 115.175781 154.695313 L 116.066406 154.695313 L 116.066406 163.054688 L 115.175781 163.054688 L 115.175781 162.148438 C 114.988281 162.515625 114.746094 162.785156 114.457031 162.960938 C 114.175781 163.125 113.835938 163.210938 113.441406 163.210938 C 112.785156 163.210938 112.246094 162.925781 111.832031 162.351563 C 111.425781 161.769531 111.222656 161.003906 111.222656 160.054688 C 111.222656 159.109375 111.425781 158.347656 111.832031 157.773438 C 112.246094 157.191406 112.785156 156.898438 113.441406 156.898438 C 113.835938 156.898438 114.175781 156.988281 114.457031 157.164063 C 114.746094 157.332031 114.988281 157.59375 115.175781 157.945313 Z M 112.144531 160.054688 C 112.144531 160.785156 112.273438 161.359375 112.535156 161.773438 C 112.804688 162.179688 113.175781 162.382813 113.644531 162.382813 C 114.121094 162.382813 114.496094 162.179688 114.769531 161.773438 C 115.039063 161.359375 115.175781 160.785156 115.175781 160.054688 C 115.175781 159.328125 115.039063 158.757813 114.769531 158.351563 C 114.496094 157.9375 114.121094 157.726563 113.644531 157.726563 C 113.175781 157.726563 112.804688 157.9375 112.535156 158.351563 C 112.273438 158.757813 112.144531 159.328125 112.144531 160.054688 Z M 117.894531 154.695313 L 118.785156 154.695313 L 118.785156 163.054688 L 117.894531 163.054688 Z M 120.644531 157.039063 L 121.535156 157.039063 L 121.535156 163.054688 L 120.644531 163.054688 Z M 120.644531 154.695313 L 121.535156 154.695313 L 121.535156 155.945313 L 120.644531 155.945313 Z M 126.128906 154.695313 L 126.128906 155.523438 L 125.285156 155.523438 C 124.960938 155.523438 124.738281 155.597656 124.613281 155.742188 C 124.488281 155.878906 124.425781 156.132813 124.425781 156.507813 L 124.425781 157.039063 L 125.894531 157.039063 L 125.894531 157.804688 L 124.425781 157.804688 L 124.425781 163.054688 L 123.535156 163.054688 L 123.535156 157.804688 L 122.675781 157.804688 L 122.675781 157.039063 L 123.535156 157.039063 L 123.535156 156.617188 C 123.535156 155.953125 123.675781 155.46875 123.957031 155.164063 C 124.238281 154.851563 124.679688 154.695313 125.285156 154.695313 Z M 131.503906 159.804688 L 131.503906 160.289063 L 127.410156 160.289063 C 127.449219 160.96875 127.636719 161.484375 127.972656 161.835938 C 128.304688 162.191406 128.761719 162.367188 129.347656 162.367188 C 129.691406 162.367188 130.019531 162.320313 130.332031 162.226563 C 130.652344 162.132813 130.976563 162 131.300781 161.820313 L 131.300781 162.742188 C 130.976563 162.898438 130.648438 163.015625 130.316406 163.085938 C 129.980469 163.167969 129.644531 163.210938 129.300781 163.210938 C 128.433594 163.210938 127.746094 162.9375 127.238281 162.382813 C 126.738281 161.820313 126.488281 161.0625 126.488281 160.101563 C 126.488281 159.125 126.726563 158.347656 127.207031 157.773438 C 127.683594 157.191406 128.332031 156.898438 129.144531 156.898438 C 129.871094 156.898438 130.445313 157.160156 130.863281 157.679688 C 131.289063 158.203125 131.503906 158.910156 131.503906 159.804688 Z M 130.613281 159.507813 C 130.601563 158.96875 130.464844 158.535156 130.207031 158.210938 C 129.945313 157.890625 129.597656 157.726563 129.160156 157.726563 C 128.660156 157.726563 128.257813 157.882813 127.957031 158.195313 C 127.652344 158.507813 127.480469 158.945313 127.441406 159.507813 Z M 93.691406 166.304688 L 93.691406 167.351563 C 93.324219 167.15625 92.976563 167.007813 92.644531 166.914063 C 92.308594 166.820313 91.992188 166.773438 91.691406 166.773438 C 91.160156 166.773438 90.746094 166.890625 90.457031 167.117188 C 90.175781 167.347656 90.035156 167.671875 90.035156 168.085938 C 90.035156 168.441406 90.128906 168.710938 90.316406 168.898438 C 90.503906 169.078125 90.867188 169.222656 91.410156 169.335938 L 91.988281 169.460938 C 92.714844 169.617188 93.253906 169.894531 93.597656 170.289063 C 93.949219 170.675781 94.128906 171.191406 94.128906 171.835938 C 94.128906 172.617188 93.894531 173.210938 93.425781 173.617188 C 92.957031 174.015625 92.269531 174.210938 91.363281 174.210938 C 91.019531 174.210938 90.652344 174.164063 90.269531 174.070313 C 89.882813 173.988281 89.488281 173.863281 89.082031 173.695313 L 89.082031 172.585938 C 89.476563 172.835938 89.863281 173.023438 90.238281 173.148438 C 90.621094 173.273438 90.996094 173.335938 91.363281 173.335938 C 91.914063 173.335938 92.339844 173.21875 92.644531 172.976563 C 92.957031 172.726563 93.113281 172.378906 93.113281 171.929688 C 93.113281 171.535156 93.003906 171.226563 92.785156 171.007813 C 92.566406 170.78125 92.207031 170.609375 91.707031 170.492188 L 91.113281 170.367188 C 90.382813 170.210938 89.855469 169.960938 89.535156 169.617188 C 89.210938 169.273438 89.050781 168.796875 89.050781 168.179688 C 89.050781 167.472656 89.273438 166.914063 89.722656 166.507813 C 90.167969 166.09375 90.789063 165.882813 91.582031 165.882813 C 91.925781 165.882813 92.269531 165.921875 92.613281 165.992188 C 92.964844 166.066406 93.324219 166.171875 93.691406 166.304688 Z M 98.066406 171.023438 C 97.347656 171.023438 96.847656 171.117188 96.566406 171.304688 C 96.292969 171.492188 96.160156 171.804688 96.160156 172.242188 C 96.160156 172.585938 96.261719 172.863281 96.472656 173.070313 C 96.679688 173.28125 96.960938 173.382813 97.316406 173.382813 C 97.816406 173.382813 98.210938 173.191406 98.503906 172.804688 C 98.804688 172.410156 98.957031 171.894531 98.957031 171.257813 L 98.957031 171.023438 Z M 99.847656 170.617188 L 99.847656 174.054688 L 98.957031 174.054688 L 98.957031 173.148438 C 98.746094 173.515625 98.492188 173.785156 98.191406 173.960938 C 97.886719 174.125 97.519531 174.210938 97.082031 174.210938 C 96.527344 174.210938 96.085938 174.039063 95.753906 173.695313 C 95.429688 173.351563 95.269531 172.890625 95.269531 172.304688 C 95.269531 171.628906 95.472656 171.117188 95.878906 170.773438 C 96.285156 170.429688 96.894531 170.257813 97.707031 170.257813 L 98.957031 170.257813 L 98.957031 170.164063 C 98.957031 169.707031 98.820313 169.351563 98.550781 169.101563 C 98.277344 168.851563 97.898438 168.726563 97.410156 168.726563 C 97.105469 168.726563 96.804688 168.769531 96.503906 168.851563 C 96.210938 168.9375 95.929688 169.0625 95.660156 169.226563 L 95.660156 168.320313 C 95.992188 168.175781 96.308594 168.070313 96.613281 168.007813 C 96.914063 167.9375 97.210938 167.898438 97.503906 167.898438 C 98.285156 167.898438 98.867188 168.125 99.253906 168.570313 C 99.648438 169.019531 99.847656 169.703125 99.847656 170.617188 Z M 106.175781 170.429688 L 106.175781 174.054688 L 105.285156 174.054688 L 105.285156 170.460938 C 105.285156 169.890625 105.179688 169.460938 104.972656 169.179688 C 104.773438 168.898438 104.476563 168.757813 104.082031 168.757813 C 103.601563 168.757813 103.222656 168.929688 102.941406 169.273438 C 102.667969 169.609375 102.535156 170.066406 102.535156 170.648438 L 102.535156 174.054688 L 101.628906 174.054688 L 101.628906 168.039063 L 102.535156 168.039063 L 102.535156 168.976563 C 102.742188 168.613281 102.988281 168.34375 103.269531 168.164063 C 103.558594 167.988281 103.898438 167.898438 104.285156 167.898438 C 104.898438 167.898438 105.367188 168.113281 105.691406 168.539063 C 106.011719 168.96875 106.175781 169.597656 106.175781 170.429688 Z M 111.847656 168.273438 L 111.847656 169.195313 C 111.597656 169.039063 111.347656 168.925781 111.097656 168.851563 C 110.847656 168.769531 110.589844 168.726563 110.332031 168.726563 C 109.746094 168.726563 109.292969 168.929688 108.972656 169.335938 C 108.660156 169.742188 108.503906 170.316406 108.503906 171.054688 C 108.503906 171.785156 108.660156 172.351563 108.972656 172.757813 C 109.292969 173.164063 109.746094 173.367188 110.332031 173.367188 C 110.589844 173.367188 110.847656 173.332031 111.097656 173.257813 C 111.347656 173.1875 111.597656 173.070313 111.847656 172.914063 L 111.847656 173.820313 C 111.597656 173.957031 111.335938 174.054688 111.066406 174.117188 C 110.804688 174.179688 110.527344 174.210938 110.238281 174.210938 C 109.414063 174.210938 108.761719 173.929688 108.285156 173.367188 C 107.804688 172.796875 107.566406 172.023438 107.566406 171.054688 C 107.566406 170.078125 107.804688 169.304688 108.285156 168.742188 C 108.773438 168.179688 109.441406 167.898438 110.285156 167.898438 C 110.554688 167.898438 110.820313 167.929688 111.082031 167.992188 C 111.351563 168.054688 111.605469 168.148438 111.847656 168.273438 Z M 114.269531 166.335938 L 114.269531 168.039063 L 116.097656 168.039063 L 116.097656 168.804688 L 114.269531 168.804688 L 114.269531 172.070313 C 114.269531 172.5625 114.324219 172.878906 114.441406 173.023438 C 114.566406 173.160156 114.816406 173.226563 115.191406 173.226563 L 116.097656 173.226563 L 116.097656 174.054688 L 115.191406 174.054688 C 114.503906 174.054688 114.027344 173.914063 113.769531 173.632813 C 113.507813 173.34375 113.378906 172.820313 113.378906 172.070313 L 113.378906 168.804688 L 112.722656 168.804688 L 112.722656 168.039063 L 113.378906 168.039063 L 113.378906 166.335938 Z M 117.175781 171.679688 L 117.175781 168.039063 L 118.066406 168.039063 L 118.066406 171.648438 C 118.066406 172.210938 118.164063 172.640625 118.363281 172.929688 C 118.558594 173.210938 118.855469 173.351563 119.253906 173.351563 C 119.742188 173.351563 120.121094 173.1875 120.394531 172.851563 C 120.675781 172.507813 120.816406 172.039063 120.816406 171.445313 L 120.816406 168.039063 L 121.707031 168.039063 L 121.707031 174.054688 L 120.816406 174.054688 L 120.816406 173.132813 C 120.597656 173.5 120.347656 173.769531 120.066406 173.945313 C 119.785156 174.121094 119.449219 174.210938 119.066406 174.210938 C 118.449219 174.210938 117.980469 174 117.660156 173.570313 C 117.335938 173.132813 117.175781 172.503906 117.175781 171.679688 Z M 119.410156 167.898438 Z M 126.003906 171.023438 C 125.285156 171.023438 124.785156 171.117188 124.503906 171.304688 C 124.230469 171.492188 124.097656 171.804688 124.097656 172.242188 C 124.097656 172.585938 124.199219 172.863281 124.410156 173.070313 C 124.617188 173.28125 124.898438 173.382813 125.253906 173.382813 C 125.753906 173.382813 126.148438 173.191406 126.441406 172.804688 C 126.742188 172.410156 126.894531 171.894531 126.894531 171.257813 L 126.894531 171.023438 Z M 127.785156 170.617188 L 127.785156 174.054688 L 126.894531 174.054688 L 126.894531 173.148438 C 126.683594 173.515625 126.429688 173.785156 126.128906 173.960938 C 125.824219 174.125 125.457031 174.210938 125.019531 174.210938 C 124.464844 174.210938 124.023438 174.039063 123.691406 173.695313 C 123.367188 173.351563 123.207031 172.890625 123.207031 172.304688 C 123.207031 171.628906 123.410156 171.117188 123.816406 170.773438 C 124.222656 170.429688 124.832031 170.257813 125.644531 170.257813 L 126.894531 170.257813 L 126.894531 170.164063 C 126.894531 169.707031 126.757813 169.351563 126.488281 169.101563 C 126.214844 168.851563 125.835938 168.726563 125.347656 168.726563 C 125.042969 168.726563 124.742188 168.769531 124.441406 168.851563 C 124.148438 168.9375 123.867188 169.0625 123.597656 169.226563 L 123.597656 168.320313 C 123.929688 168.175781 124.246094 168.070313 124.550781 168.007813 C 124.851563 167.9375 125.148438 167.898438 125.441406 167.898438 C 126.222656 167.898438 126.804688 168.125 127.191406 168.570313 C 127.585938 169.019531 127.785156 169.703125 127.785156 170.617188 Z M 132.753906 168.960938 C 132.648438 168.898438 132.535156 168.851563 132.410156 168.820313 C 132.292969 168.789063 132.167969 168.773438 132.035156 168.773438 C 131.523438 168.773438 131.132813 168.957031 130.863281 169.320313 C 130.601563 169.6875 130.472656 170.207031 130.472656 170.882813 L 130.472656 174.054688 L 129.566406 174.054688 L 129.566406 168.039063 L 130.472656 168.039063 L 130.472656 168.976563 C 130.660156 168.613281 130.898438 168.34375 131.191406 168.164063 C 131.492188 167.988281 131.855469 167.898438 132.285156 167.898438 C 132.347656 167.898438 132.414063 167.90625 132.488281 167.914063 C 132.570313 167.914063 132.652344 167.925781 132.738281 167.945313 Z M 135.925781 174.617188 C 135.675781 175.335938 135.429688 175.796875 135.191406 176.007813 C 134.949219 176.226563 134.632813 176.335938 134.238281 176.335938 L 133.519531 176.335938 L 133.519531 175.523438 L 134.050781 175.523438 C 134.289063 175.523438 134.476563 175.453125 134.613281 175.320313 C 134.746094 175.195313 134.898438 174.890625 135.066406 174.414063 L 135.222656 173.960938 L 133.035156 168.039063 L 133.972656 168.039063 L 135.660156 172.742188 L 137.363281 168.039063 L 138.300781 168.039063 Z M 135.925781 174.617188 "/>
</g>
</svg>

