<?xml version="1.0" encoding="UTF-8"?>
<svg xmlns="http://www.w3.org/2000/svg" xmlns:xlink="http://www.w3.org/1999/xlink" width="256pt" height="256pt" viewBox="0 0 256 256" version="1.1">
<g id="surface2">
<rect x="0" y="0" width="256" height="256" style="fill:rgb(94.901961%,93.72549%,91.372549%);fill-opacity:1;stroke:none;"/>
<path style="fill:none;stroke-width:8;stroke-linecap:round;stroke-linejoin:round;stroke:rgb(75.686275%,70.980392%,61.568627%);stroke-opacity:1;stroke-miterlimit:10;" d="M 91.363281 264 L 92.449219 262.621094 L 94.289063 260.980469 L 100.394531 258.710938 L 102.304688 257.167969 L 102.933594 256.347656 L 105.21875 251.75 L 107.875 245.214844 L 109.457031 242.851563 L 111.929688 240.652344 L 128.171875 232.933594 L 130.5 231.226563 L 135.136719 227.21875 L 138.257813 225.414063 L 139.9375 224.886719 L 143.851563 224.230469 L 152.964844 219.007813 L 160.675781 214.378906 L 164.824219 212.277344 "/>
<path style="fill:none;stroke-width:6;stroke-linecap:round;stroke-linejoin:round;stroke:rgb(100%,100%,100%);stroke-opacity:1;stroke-miterlimit:10;" d="M 91.363281 264 L 92.449219 262.621094 L 94.289063 260.980469 L 100.394531 258.710938 L 102.304688 257.167969 L 102.933594 256.347656 L 105.21875 251.75 L 107.875 245.214844 L 109.457031 242.851563 L 111.929688 240.652344 L 128.171875 232.933594 L 130.5 231.226563 L 135.136719 227.21875 L 138.257813 225.414063 L 139.9375 224.886719 L 143.851563 224.230469 L 152.964844 219.007813 L 160.675781 214.378906 L 164.824219 212.277344 "/>
</g>
</svg>

