<?xml version="1.0" encoding="UTF-8"?>
<svg xmlns="http://www.w3.org/2000/svg" xmlns:xlink="http://www.w3.org/1999/xlink" width="256pt" height="256pt" viewBox="0 0 256 256" version="1.1">
<g id="surface2">
<rect x="0" y="0" width="256" height="256" style="fill:rgb(94.901961%,93.72549%,91.372549%);fill-opacity:1;stroke:none;"/>
<path style="fill:none;stroke-width:1;stroke-linecap:round;stroke-linejoin:round;stroke:rgb(100%,100%,100%);stroke-opacity:1;stroke-dasharray:2,3;stroke-miterlimit:10;" d="M 15.839844 151.886719 L 14.886719 158.5 L 14.886719 162.347656 L 16.914063 175.902344 L 17.402344 184.894531 L 20.710938 191.347656 L 27.722656 201.058594 L 30.007813 205.457031 L 30.613281 207.671875 L 31.359375 215.851563 L 32.617188 221.488281 L 34.832031 224.8125 L 57.597656 249.839844 L 59.765625 253.652344 L 61.308594 257 "/>
<path style="fill:none;stroke-width:1;stroke-linecap:round;stroke-linejoin:round;stroke:rgb(100%,100%,100%);stroke-opacity:1;stroke-dasharray:2,3;stroke-miterlimit:10;" d="M 15.777344 152.304688 L 37.277344 167.449219 L 49.976563 175.597656 L 67.277344 173.800781 L 84.527344 185.601563 L 107.277344 192 L 117.277344 212 L 136.328125 223.800781 L 149.078125 223.800781 L 168.175781 238.347656 L 178.179688 247.449219 L 191.304688 257 "/>
<path style="fill:none;stroke-width:1;stroke-linecap:round;stroke-linejoin:round;stroke:rgb(100%,100%,100%);stroke-opacity:1;stroke-dasharray:2,3;stroke-miterlimit:10;" d="M -2 145.132813 L 0.203125 145.304688 L 6.054688 145.273438 L 11.414063 146.214844 L 13.835938 147.910156 L 15.839844 151.886719 "/>
</g>
</svg>

