<?xml version="1.0" encoding="UTF-8"?>
<svg xmlns="http://www.w3.org/2000/svg" xmlns:xlink="http://www.w3.org/1999/xlink" width="256pt" height="256pt" viewBox="0 0 256 256" version="1.1">
<g id="surface2">
<rect x="0" y="0" width="256" height="256" style="fill:rgb(94.901961%,93.72549%,91.372549%);fill-opacity:1;stroke:none;"/>
<path style=" stroke:none;fill-rule:evenodd;fill:rgb(70.980392%,82.352941%,61.176471%);fill-opacity:1;" d="M 252.789063 10.96875 L 260 25.910156 L 260 260 L 260 -4 L 248.695313 -4 L 248.695313 -3.609375 Z M 252.789063 10.96875 "/>
<path style=" stroke:none;fill-rule:evenodd;fill:rgb(79.607843%,84.705882%,76.470588%);fill-opacity:1;" d="M 252.789063 10.96875 L 260 25.910156 L 260 260 L 260 -4 L 248.695313 -4 L 248.695313 -3.609375 Z M 252.789063 10.96875 "/>
<path style=" stroke:none;fill-rule:evenodd;fill:rgb(70.980392%,82.352941%,61.176471%);fill-opacity:1;" d="M 229.769531 10.109375 L 236.769531 25.144531 L 241.457031 35.25 L 245.09375 33.378906 L 234.652344 7.574219 Z M 229.769531 10.109375 "/>
<path style=" stroke:none;fill-rule:evenodd;fill:rgb(79.607843%,84.705882%,76.470588%);fill-opacity:1;" d="M 229.769531 10.109375 L 236.769531 25.144531 L 241.457031 35.25 L 245.09375 33.378906 L 234.652344 7.574219 Z M 229.769531 10.109375 "/>
<path style=" stroke:none;fill-rule:evenodd;fill:rgb(60%,70.196078%,80%);fill-opacity:1;" d="M -4 259 L 259 259 L -4 259 L 259 259 L 259 70.394531 L 243.875 36.332031 L 235.589844 24.5625 L 51.742188 30.601563 L -4 32.429688 Z M -8235614.453125 5077847.941406 Z M -8235614.453125 5077847.941406 "/>
<path style="fill:none;stroke-width:1;stroke-linecap:round;stroke-linejoin:round;stroke:rgb(70.196078%,77.647059%,83.137255%);stroke-opacity:1;stroke-miterlimit:10;" d="M -4 259 L 259 259 L -4 259 L 259 259 L 259 70.394531 L 243.875 36.332031 L 235.589844 24.5625 L 51.742188 30.601563 L -4 32.429688 L -4 259 "/>
<path style=" stroke:none;fill-rule:evenodd;fill:rgb(60%,70.196078%,80%);fill-opacity:1;" d="M -4 -4 L -4 32.429688 L 51.742188 30.601563 L 235.589844 24.5625 L 233.578125 21.824219 L 233.148438 19.746094 L 234.191406 16.691406 L 233.429688 15.058594 L 231.042969 9.578125 L 230.164063 4.722656 L 227.261719 -4 Z M -4 -4 "/>
<path style="fill:none;stroke-width:1;stroke-linecap:round;stroke-linejoin:round;stroke:rgb(70.196078%,77.647059%,83.137255%);stroke-opacity:1;stroke-miterlimit:10;" d="M -4 -4 L -4 32.429688 L 51.742188 30.601563 L 235.589844 24.5625 L 233.578125 21.824219 L 233.148438 19.746094 L 234.191406 16.691406 L 233.429688 15.058594 L 231.042969 9.578125 L 230.164063 4.722656 L 227.261719 -4 L -4 -4 "/>
<path style="fill:none;stroke-width:6;stroke-linecap:round;stroke-linejoin:round;stroke:rgb(60%,70.196078%,80%);stroke-opacity:1;stroke-miterlimit:10;" d="M -7 54.109375 L 147.160156 188.148438 L 194.285156 262 "/>
<path style="fill:none;stroke-width:1;stroke-linecap:butt;stroke-linejoin:round;stroke:rgb(46.666667%,46.666667%,46.666667%);stroke-opacity:1;stroke-dasharray:2,2;stroke-miterlimit:10;" d="M 257 53.105469 L 243.648438 21.195313 L 234.949219 -2 "/>
<path style="fill:none;stroke-width:1;stroke-linecap:butt;stroke-linejoin:round;stroke:rgb(46.666667%,46.666667%,46.666667%);stroke-opacity:1;stroke-dasharray:2,2;stroke-miterlimit:10;" d="M 233.441406 -2 L 243.492188 23.660156 L 257 55.742188 "/>
<path style="fill:none;stroke-width:1;stroke-linecap:round;stroke-linejoin:round;stroke:rgb(100%,100%,100%);stroke-opacity:1;stroke-dasharray:2,3;stroke-miterlimit:10;" d="M 242.210938 23.265625 L 237.882813 14.617188 L 236.929688 13.730469 "/>
<path style="fill:none;stroke-width:1;stroke-linecap:round;stroke-linejoin:round;stroke:rgb(100%,100%,100%);stroke-opacity:1;stroke-dasharray:2,3;stroke-miterlimit:10;" d="M 239.324219 1.6875 L 240.261719 3.566406 L 241.449219 4.0625 L 242.074219 5.8125 L 242.417969 6.925781 L 243.824219 8.128906 L 247.496094 7.589844 "/>
<path style="fill:none;stroke-width:9;stroke-linecap:round;stroke-linejoin:round;stroke:rgb(75.686275%,70.980392%,61.568627%);stroke-opacity:1;stroke-miterlimit:10;" d="M 245.441406 -10 L 245.679688 -3.535156 L 246.542969 2.371094 L 247.496094 7.589844 L 249.828125 14.777344 L 252.203125 20.808594 L 265 46.25 "/>
<path style="fill:none;stroke-width:7;stroke-linecap:round;stroke-linejoin:round;stroke:rgb(100%,99.215686%,54.509804%);stroke-opacity:1;stroke-miterlimit:10;" d="M 245.441406 -10 L 245.679688 -3.535156 L 246.542969 2.371094 L 247.496094 7.589844 L 249.828125 14.777344 L 252.203125 20.808594 L 265 46.25 "/>
<path style="fill:none;stroke-width:5;stroke-linecap:butt;stroke-linejoin:round;stroke:rgb(53.333333%,53.333333%,53.333333%);stroke-opacity:1;stroke-miterlimit:10;" d="M 236.929688 13.730469 L 235.632813 9.757813 L 242.417969 6.925781 "/>
<path style="fill:none;stroke-width:3;stroke-linecap:round;stroke-linejoin:round;stroke:rgb(98.039216%,98.039216%,96.078431%);stroke-opacity:1;stroke-miterlimit:10;" d="M 236.929688 13.730469 L 235.632813 9.757813 L 242.417969 6.925781 "/>
<path style="fill:none;stroke-width:3;stroke-linecap:round;stroke-linejoin:round;stroke:rgb(100%,100%,100%);stroke-opacity:1;stroke-miterlimit:10;" d="M 77.386719 121.550781 L 78.246094 122.285156 L 75.699219 125.222656 L 78.871094 127.988281 L 81.417969 125.050781 L 82.292969 125.816406 L 76.074219 132.972656 L 75.199219 132.207031 L 78.167969 128.800781 L 74.996094 126.035156 L 72.027344 129.441406 L 71.167969 128.707031 Z M 79.527344 132.242188 L 82.355469 129.007813 L 83.152344 129.695313 L 80.339844 132.914063 C 79.902344 133.414063 79.660156 133.867188 79.621094 134.273438 C 79.578125 134.679688 79.734375 135.039063 80.089844 135.351563 C 80.515625 135.726563 80.984375 135.867188 81.496094 135.773438 C 82.003906 135.6875 82.488281 135.382813 82.949219 134.851563 L 85.605469 131.820313 L 86.402344 132.523438 L 81.730469 137.882813 L 80.933594 137.179688 L 81.652344 136.351563 C 81.171875 136.527344 80.734375 136.578125 80.339844 136.507813 C 79.953125 136.445313 79.589844 136.265625 79.246094 135.976563 C 78.691406 135.496094 78.4375 134.9375 78.480469 134.304688 C 78.53125 133.671875 78.878906 132.984375 79.527344 132.242188 Z M 84.464844 130.601563 Z M 90.5 137.519531 L 93.03125 134.613281 L 93.8125 135.300781 L 87.328125 142.753906 L 86.546875 142.066406 L 87.25 141.269531 C 86.800781 141.433594 86.378906 141.488281 85.984375 141.425781 C 85.597656 141.363281 85.226563 141.175781 84.875 140.863281 C 84.28125 140.351563 84.023438 139.675781 84.109375 138.832031 C 84.203125 138 84.613281 137.167969 85.34375 136.332031 C 86.070313 135.488281 86.84375 134.96875 87.65625 134.769531 C 88.476563 134.5625 89.1875 134.714844 89.78125 135.222656 C 90.132813 135.535156 90.367188 135.878906 90.484375 136.253906 C 90.609375 136.628906 90.613281 137.050781 90.5 137.519531 Z M 86.171875 137.050781 C 85.609375 137.699219 85.285156 138.308594 85.203125 138.878906 C 85.117188 139.460938 85.285156 139.933594 85.703125 140.300781 C 86.128906 140.664063 86.625 140.761719 87.1875 140.597656 C 87.75 140.441406 88.3125 140.039063 88.875 139.394531 C 89.4375 138.738281 89.753906 138.125 89.828125 137.550781 C 89.910156 136.980469 89.738281 136.511719 89.3125 136.144531 C 88.894531 135.78125 88.40625 135.675781 87.84375 135.832031 C 87.289063 135.988281 86.734375 136.394531 86.171875 137.050781 Z M 96.585938 141.640625 L 95.851563 142.484375 C 95.734375 142.164063 95.585938 141.867188 95.398438 141.59375 C 95.210938 141.324219 94.984375 141.074219 94.726563 140.84375 C 94.328125 140.5 93.96875 140.3125 93.648438 140.28125 C 93.335938 140.242188 93.0625 140.351563 92.835938 140.609375 C 92.65625 140.820313 92.589844 141.042969 92.632813 141.28125 C 92.683594 141.523438 92.875 141.882813 93.210938 142.359375 L 93.414063 142.65625 C 93.851563 143.28125 94.078125 143.816406 94.101563 144.265625 C 94.132813 144.710938 93.960938 145.15625 93.585938 145.59375 C 93.148438 146.09375 92.621094 146.332031 92.007813 146.3125 C 91.402344 146.300781 90.792969 146.023438 90.179688 145.484375 C 89.929688 145.265625 89.683594 145 89.445313 144.6875 C 89.203125 144.382813 88.984375 144.046875 88.789063 143.671875 L 89.585938 142.765625 C 89.71875 143.195313 89.890625 143.566406 90.101563 143.890625 C 90.308594 144.222656 90.554688 144.515625 90.835938 144.765625 C 91.210938 145.085938 91.558594 145.257813 91.882813 145.28125 C 92.203125 145.3125 92.480469 145.195313 92.710938 144.9375 C 92.90625 144.707031 92.992188 144.460938 92.960938 144.203125 C 92.929688 143.953125 92.726563 143.554688 92.351563 143.015625 L 92.132813 142.703125 C 91.746094 142.164063 91.542969 141.679688 91.523438 141.25 C 91.5 140.8125 91.671875 140.386719 92.039063 139.96875 C 92.476563 139.46875 92.976563 139.226563 93.539063 139.234375 C 94.109375 139.246094 94.695313 139.507813 95.289063 140.015625 C 95.578125 140.265625 95.828125 140.527344 96.039063 140.796875 C 96.257813 141.070313 96.4375 141.351563 96.585938 141.640625 Z M 99.558594 145.042969 C 99.128906 144.679688 98.636719 144.574219 98.074219 144.730469 C 97.511719 144.878906 96.949219 145.273438 96.386719 145.917969 C 95.824219 146.566406 95.503906 147.179688 95.433594 147.761719 C 95.359375 148.34375 95.535156 148.816406 95.964844 149.183594 C 96.390625 149.558594 96.886719 149.667969 97.449219 149.511719 C 98.019531 149.355469 98.582031 148.957031 99.136719 148.324219 C 99.6875 147.6875 100 147.082031 100.074219 146.496094 C 100.15625 145.902344 99.984375 145.417969 99.558594 145.042969 Z M 100.214844 144.292969 C 100.902344 144.898438 101.222656 145.621094 101.183594 146.464844 C 101.140625 147.308594 100.738281 148.171875 99.980469 149.058594 C 99.207031 149.933594 98.40625 150.449219 97.574219 150.605469 C 96.75 150.761719 95.996094 150.535156 95.308594 149.933594 C 94.609375 149.339844 94.28125 148.621094 94.324219 147.777344 C 94.363281 146.933594 94.769531 146.074219 95.542969 145.199219 C 96.300781 144.316406 97.09375 143.792969 97.917969 143.636719 C 98.75 143.480469 99.515625 143.699219 100.214844 144.292969 Z M 105.789063 153.113281 L 102.976563 156.363281 L 102.195313 155.675781 L 104.976563 152.472656 C 105.421875 151.964844 105.664063 151.503906 105.695313 151.097656 C 105.734375 150.683594 105.578125 150.316406 105.226563 150.003906 C 104.796875 149.640625 104.328125 149.503906 103.820313 149.597656 C 103.320313 149.683594 102.839844 149.984375 102.382813 150.503906 L 99.742188 153.535156 L 98.929688 152.847656 L 103.601563 147.488281 L 104.414063 148.175781 L 103.679688 149.003906 C 104.148438 148.847656 104.578125 148.800781 104.976563 148.863281 C 105.371094 148.925781 105.734375 149.105469 106.070313 149.394531 C 106.621094 149.875 106.871094 150.433594 106.820313 151.066406 C 106.777344 151.703125 106.433594 152.382813 105.789063 153.113281 Z M 113.367188 159.519531 C 113.492188 159.746094 113.542969 160.050781 113.523438 160.425781 C 113.5 160.808594 113.40625 161.285156 113.242188 161.847656 L 112.429688 164.566406 L 111.476563 163.753906 L 112.242188 161.191406 C 112.460938 160.535156 112.53125 160.039063 112.460938 159.707031 C 112.398438 159.386719 112.195313 159.078125 111.851563 158.785156 L 110.898438 157.941406 L 108.273438 160.957031 L 107.414063 160.222656 L 113.632813 153.066406 L 115.585938 154.753906 C 116.324219 155.402344 116.726563 156.058594 116.789063 156.722656 C 116.851563 157.378906 116.578125 158.050781 115.976563 158.738281 C 115.589844 159.1875 115.171875 159.472656 114.726563 159.597656 C 114.277344 159.730469 113.824219 159.707031 113.367188 159.519531 Z M 113.804688 154.597656 L 111.601563 157.144531 L 112.695313 158.097656 C 113.121094 158.472656 113.53125 158.644531 113.929688 158.613281 C 114.335938 158.574219 114.714844 158.34375 115.070313 157.925781 C 115.433594 157.511719 115.601563 157.105469 115.570313 156.707031 C 115.546875 156.3125 115.324219 155.925781 114.898438 155.550781 Z M 118.1875 160.160156 L 118.96875 160.847656 L 114.296875 166.207031 L 113.515625 165.519531 Z M 120 158.066406 L 120.78125 158.753906 L 119.796875 159.878906 L 119.015625 159.191406 Z M 120.0625 161.777344 L 120.890625 162.511719 L 118.484375 168.324219 L 123.90625 165.136719 L 124.765625 165.871094 L 118.265625 169.652344 L 117.203125 168.714844 Z M 127.832031 172.867188 L 127.472656 173.304688 L 123.816406 170.132813 C 123.324219 170.769531 123.085938 171.375 123.097656 171.945313 C 123.117188 172.515625 123.394531 173.03125 123.925781 173.492188 C 124.226563 173.761719 124.554688 173.976563 124.910156 174.132813 C 125.261719 174.296875 125.660156 174.421875 126.097656 174.507813 L 125.363281 175.351563 C 124.957031 175.226563 124.570313 175.070313 124.207031 174.882813 C 123.851563 174.695313 123.523438 174.46875 123.222656 174.210938 C 122.449219 173.53125 122.054688 172.746094 122.035156 171.851563 C 122.011719 170.96875 122.371094 170.101563 123.113281 169.257813 C 123.882813 168.375 124.707031 167.859375 125.582031 167.710938 C 126.457031 167.566406 127.257813 167.8125 127.988281 168.445313 C 128.632813 169.007813 128.941406 169.6875 128.910156 170.476563 C 128.886719 171.269531 128.527344 172.0625 127.832031 172.867188 Z M 127.253906 171.929688 C 127.667969 171.453125 127.882813 170.960938 127.894531 170.460938 C 127.914063 169.960938 127.726563 169.539063 127.332031 169.195313 C 126.882813 168.8125 126.410156 168.644531 125.910156 168.695313 C 125.410156 168.738281 124.917969 169 124.441406 169.476563 Z M 133.359375 174.796875 C 133.316406 174.671875 133.253906 174.554688 133.171875 174.4375 C 133.097656 174.3125 133 174.199219 132.875 174.09375 C 132.425781 173.699219 131.941406 173.558594 131.421875 173.671875 C 130.898438 173.789063 130.375 174.148438 129.84375 174.75 L 127.390625 177.578125 L 126.578125 176.890625 L 131.25 171.53125 L 132.0625 172.21875 L 131.328125 173.046875 C 131.773438 172.871094 132.203125 172.820313 132.609375 172.890625 C 133.015625 172.964844 133.40625 173.164063 133.78125 173.484375 C 133.832031 173.539063 133.882813 173.601563 133.9375 173.671875 C 134 173.734375 134.066406 173.808594 134.140625 173.890625 Z M 133.359375 174.796875 "/>
<path style=" stroke:none;fill-rule:evenodd;fill:rgb(41.960784%,58.039216%,69.019608%);fill-opacity:1;" d="M 77.386719 121.550781 L 78.246094 122.285156 L 75.699219 125.222656 L 78.871094 127.988281 L 81.417969 125.050781 L 82.292969 125.816406 L 76.074219 132.972656 L 75.199219 132.207031 L 78.167969 128.800781 L 74.996094 126.035156 L 72.027344 129.441406 L 71.167969 128.707031 Z M 79.527344 132.242188 L 82.355469 129.007813 L 83.152344 129.695313 L 80.339844 132.914063 C 79.902344 133.414063 79.660156 133.867188 79.621094 134.273438 C 79.578125 134.679688 79.734375 135.039063 80.089844 135.351563 C 80.515625 135.726563 80.984375 135.867188 81.496094 135.773438 C 82.003906 135.6875 82.488281 135.382813 82.949219 134.851563 L 85.605469 131.820313 L 86.402344 132.523438 L 81.730469 137.882813 L 80.933594 137.179688 L 81.652344 136.351563 C 81.171875 136.527344 80.734375 136.578125 80.339844 136.507813 C 79.953125 136.445313 79.589844 136.265625 79.246094 135.976563 C 78.691406 135.496094 78.4375 134.9375 78.480469 134.304688 C 78.53125 133.671875 78.878906 132.984375 79.527344 132.242188 Z M 84.464844 130.601563 Z M 90.5 137.519531 L 93.03125 134.613281 L 93.8125 135.300781 L 87.328125 142.753906 L 86.546875 142.066406 L 87.25 141.269531 C 86.800781 141.433594 86.378906 141.488281 85.984375 141.425781 C 85.597656 141.363281 85.226563 141.175781 84.875 140.863281 C 84.28125 140.351563 84.023438 139.675781 84.109375 138.832031 C 84.203125 138 84.613281 137.167969 85.34375 136.332031 C 86.070313 135.488281 86.84375 134.96875 87.65625 134.769531 C 88.476563 134.5625 89.1875 134.714844 89.78125 135.222656 C 90.132813 135.535156 90.367188 135.878906 90.484375 136.253906 C 90.609375 136.628906 90.613281 137.050781 90.5 137.519531 Z M 86.171875 137.050781 C 85.609375 137.699219 85.285156 138.308594 85.203125 138.878906 C 85.117188 139.460938 85.285156 139.933594 85.703125 140.300781 C 86.128906 140.664063 86.625 140.761719 87.1875 140.597656 C 87.75 140.441406 88.3125 140.039063 88.875 139.394531 C 89.4375 138.738281 89.753906 138.125 89.828125 137.550781 C 89.910156 136.980469 89.738281 136.511719 89.3125 136.144531 C 88.894531 135.78125 88.40625 135.675781 87.84375 135.832031 C 87.289063 135.988281 86.734375 136.394531 86.171875 137.050781 Z M 96.585938 141.640625 L 95.851563 142.484375 C 95.734375 142.164063 95.585938 141.867188 95.398438 141.59375 C 95.210938 141.324219 94.984375 141.074219 94.726563 140.84375 C 94.328125 140.5 93.96875 140.3125 93.648438 140.28125 C 93.335938 140.242188 93.0625 140.351563 92.835938 140.609375 C 92.65625 140.820313 92.589844 141.042969 92.632813 141.28125 C 92.683594 141.523438 92.875 141.882813 93.210938 142.359375 L 93.414063 142.65625 C 93.851563 143.28125 94.078125 143.816406 94.101563 144.265625 C 94.132813 144.710938 93.960938 145.15625 93.585938 145.59375 C 93.148438 146.09375 92.621094 146.332031 92.007813 146.3125 C 91.402344 146.300781 90.792969 146.023438 90.179688 145.484375 C 89.929688 145.265625 89.683594 145 89.445313 144.6875 C 89.203125 144.382813 88.984375 144.046875 88.789063 143.671875 L 89.585938 142.765625 C 89.71875 143.195313 89.890625 143.566406 90.101563 143.890625 C 90.308594 144.222656 90.554688 144.515625 90.835938 144.765625 C 91.210938 145.085938 91.558594 145.257813 91.882813 145.28125 C 92.203125 145.3125 92.480469 145.195313 92.710938 144.9375 C 92.90625 144.707031 92.992188 144.460938 92.960938 144.203125 C 92.929688 143.953125 92.726563 143.554688 92.351563 143.015625 L 92.132813 142.703125 C 91.746094 142.164063 91.542969 141.679688 91.523438 141.25 C 91.5 140.8125 91.671875 140.386719 92.039063 139.96875 C 92.476563 139.46875 92.976563 139.226563 93.539063 139.234375 C 94.109375 139.246094 94.695313 139.507813 95.289063 140.015625 C 95.578125 140.265625 95.828125 140.527344 96.039063 140.796875 C 96.257813 141.070313 96.4375 141.351563 96.585938 141.640625 Z M 99.558594 145.042969 C 99.128906 144.679688 98.636719 144.574219 98.074219 144.730469 C 97.511719 144.878906 96.949219 145.273438 96.386719 145.917969 C 95.824219 146.566406 95.503906 147.179688 95.433594 147.761719 C 95.359375 148.34375 95.535156 148.816406 95.964844 149.183594 C 96.390625 149.558594 96.886719 149.667969 97.449219 149.511719 C 98.019531 149.355469 98.582031 148.957031 99.136719 148.324219 C 99.6875 147.6875 100 147.082031 100.074219 146.496094 C 100.15625 145.902344 99.984375 145.417969 99.558594 145.042969 Z M 100.214844 144.292969 C 100.902344 144.898438 101.222656 145.621094 101.183594 146.464844 C 101.140625 147.308594 100.738281 148.171875 99.980469 149.058594 C 99.207031 149.933594 98.40625 150.449219 97.574219 150.605469 C 96.75 150.761719 95.996094 150.535156 95.308594 149.933594 C 94.609375 149.339844 94.28125 148.621094 94.324219 147.777344 C 94.363281 146.933594 94.769531 146.074219 95.542969 145.199219 C 96.300781 144.316406 97.09375 143.792969 97.917969 143.636719 C 98.75 143.480469 99.515625 143.699219 100.214844 144.292969 Z M 105.789063 153.113281 L 102.976563 156.363281 L 102.195313 155.675781 L 104.976563 152.472656 C 105.421875 151.964844 105.664063 151.503906 105.695313 151.097656 C 105.734375 150.683594 105.578125 150.316406 105.226563 150.003906 C 104.796875 149.640625 104.328125 149.503906 103.820313 149.597656 C 103.320313 149.683594 102.839844 149.984375 102.382813 150.503906 L 99.742188 153.535156 L 98.929688 152.847656 L 103.601563 147.488281 L 104.414063 148.175781 L 103.679688 149.003906 C 104.148438 148.847656 104.578125 148.800781 104.976563 148.863281 C 105.371094 148.925781 105.734375 149.105469 106.070313 149.394531 C 106.621094 149.875 106.871094 150.433594 106.820313 151.066406 C 106.777344 151.703125 106.433594 152.382813 105.789063 153.113281 Z M 113.367188 159.519531 C 113.492188 159.746094 113.542969 160.050781 113.523438 160.425781 C 113.5 160.808594 113.40625 161.285156 113.242188 161.847656 L 112.429688 164.566406 L 111.476563 163.753906 L 112.242188 161.191406 C 112.460938 160.535156 112.53125 160.039063 112.460938 159.707031 C 112.398438 159.386719 112.195313 159.078125 111.851563 158.785156 L 110.898438 157.941406 L 108.273438 160.957031 L 107.414063 160.222656 L 113.632813 153.066406 L 115.585938 154.753906 C 116.324219 155.402344 116.726563 156.058594 116.789063 156.722656 C 116.851563 157.378906 116.578125 158.050781 115.976563 158.738281 C 115.589844 159.1875 115.171875 159.472656 114.726563 159.597656 C 114.277344 159.730469 113.824219 159.707031 113.367188 159.519531 Z M 113.804688 154.597656 L 111.601563 157.144531 L 112.695313 158.097656 C 113.121094 158.472656 113.53125 158.644531 113.929688 158.613281 C 114.335938 158.574219 114.714844 158.34375 115.070313 157.925781 C 115.433594 157.511719 115.601563 157.105469 115.570313 156.707031 C 115.546875 156.3125 115.324219 155.925781 114.898438 155.550781 Z M 118.1875 160.160156 L 118.96875 160.847656 L 114.296875 166.207031 L 113.515625 165.519531 Z M 120 158.066406 L 120.78125 158.753906 L 119.796875 159.878906 L 119.015625 159.191406 Z M 120.0625 161.777344 L 120.890625 162.511719 L 118.484375 168.324219 L 123.90625 165.136719 L 124.765625 165.871094 L 118.265625 169.652344 L 117.203125 168.714844 Z M 127.832031 172.867188 L 127.472656 173.304688 L 123.816406 170.132813 C 123.324219 170.769531 123.085938 171.375 123.097656 171.945313 C 123.117188 172.515625 123.394531 173.03125 123.925781 173.492188 C 124.226563 173.761719 124.554688 173.976563 124.910156 174.132813 C 125.261719 174.296875 125.660156 174.421875 126.097656 174.507813 L 125.363281 175.351563 C 124.957031 175.226563 124.570313 175.070313 124.207031 174.882813 C 123.851563 174.695313 123.523438 174.46875 123.222656 174.210938 C 122.449219 173.53125 122.054688 172.746094 122.035156 171.851563 C 122.011719 170.96875 122.371094 170.101563 123.113281 169.257813 C 123.882813 168.375 124.707031 167.859375 125.582031 167.710938 C 126.457031 167.566406 127.257813 167.8125 127.988281 168.445313 C 128.632813 169.007813 128.941406 169.6875 128.910156 170.476563 C 128.886719 171.269531 128.527344 172.0625 127.832031 172.867188 Z M 127.253906 171.929688 C 127.667969 171.453125 127.882813 170.960938 127.894531 170.460938 C 127.914063 169.960938 127.726563 169.539063 127.332031 169.195313 C 126.882813 168.8125 126.410156 168.644531 125.910156 168.695313 C 125.410156 168.738281 124.917969 169 124.441406 169.476563 Z M 133.359375 174.796875 C 133.316406 174.671875 133.253906 174.554688 133.171875 174.4375 C 133.097656 174.3125 133 174.199219 132.875 174.09375 C 132.425781 173.699219 131.941406 173.558594 131.421875 173.671875 C 130.898438 173.789063 130.375 174.148438 129.84375 174.75 L 127.390625 177.578125 L 126.578125 176.890625 L 131.25 171.53125 L 132.0625 172.21875 L 131.328125 173.046875 C 131.773438 172.871094 132.203125 172.820313 132.609375 172.890625 C 133.015625 172.964844 133.40625 173.164063 133.78125 173.484375 C 133.832031 173.539063 133.882813 173.601563 133.9375 173.671875 C 134 173.734375 134.066406 173.808594 134.140625 173.890625 Z M 133.359375 174.796875 "/>
</g>
</svg>

