<?xml version="1.0" encoding="UTF-8"?>
<svg xmlns="http://www.w3.org/2000/svg" xmlns:xlink="http://www.w3.org/1999/xlink" width="256pt" height="256pt" viewBox="0 0 256 256" version="1.1">
<g id="surface2">
<rect x="0" y="0" width="256" height="256" style="fill:rgb(94.901961%,93.72549%,91.372549%);fill-opacity:1;stroke:none;"/>
<path style=" stroke:none;fill-rule:evenodd;fill:rgb(60%,70.196078%,80%);fill-opacity:1;" d="M -4 259 L -4 -4 L 259 -4 L -4 -4 L -4 259 L -4 -4 Z M -8233201.910156 5338345.335938 Z M -8233201.910156 5338345.335938 Z M -8233201.910156 5338345.335938 "/>
<path style="fill:none;stroke-width:1;stroke-linecap:round;stroke-linejoin:round;stroke:rgb(70.196078%,77.647059%,83.137255%);stroke-opacity:1;stroke-miterlimit:10;" d="M -4 259 L -4 -4 L 259 -4 L -4 -4 L -4 259 L -4 -4 L -4 259 "/>
<path style="fill:none;stroke-width:1;stroke-linecap:round;stroke-linejoin:round;stroke:rgb(100%,100%,100%);stroke-opacity:1;stroke-dasharray:2,3;stroke-miterlimit:10;" d="M 110.515625 257 L 113.492188 252.605469 L 119.316406 223.367188 L 119.316406 209.46875 L 128.054688 197.039063 L 154.992188 175.121094 L 160.769531 166.652344 L 164.453125 161.253906 L 168.085938 151.730469 L 177.546875 105.6875 L 181.902344 96.929688 L 195.023438 87.410156 L 211.03125 80.125 L 256.191406 70.601563 L 257 70.140625 "/>
</g>
</svg>

