<?xml version="1.0" encoding="UTF-8"?>
<svg xmlns="http://www.w3.org/2000/svg" xmlns:xlink="http://www.w3.org/1999/xlink" width="256pt" height="256pt" viewBox="0 0 256 256" version="1.1">
<g id="surface2">
<rect x="0" y="0" width="256" height="256" style="fill:rgb(94.901961%,93.72549%,91.372549%);fill-opacity:1;stroke:none;"/>
<path style="fill:none;stroke-width:2;stroke-linecap:round;stroke-linejoin:round;stroke:rgb(60%,70.196078%,80%);stroke-opacity:1;stroke-miterlimit:10;" d="M 202.832031 -3 L 171.167969 74.179688 L 155.167969 112.175781 L 133.167969 134.175781 L 94.167969 148.175781 L 58.167969 160.175781 L 25.167969 184.179688 L -3 212.714844 "/>
<path style="fill:none;stroke-width:3;stroke-linecap:round;stroke-linejoin:round;stroke:rgb(100%,100%,100%);stroke-opacity:1;stroke-miterlimit:10;" d="M 89.058594 145.644531 L 89.996094 145.332031 L 91.574219 149.941406 C 91.855469 150.746094 92.1875 151.28125 92.574219 151.550781 C 92.957031 151.8125 93.449219 151.84375 94.042969 151.644531 C 94.625 151.449219 94.988281 151.125 95.136719 150.675781 C 95.28125 150.21875 95.214844 149.589844 94.933594 148.785156 L 93.355469 144.175781 L 94.292969 143.863281 L 95.917969 148.582031 C 96.25 149.582031 96.28125 150.410156 96.011719 151.066406 C 95.738281 151.714844 95.175781 152.183594 94.324219 152.472656 C 93.449219 152.765625 92.703125 152.738281 92.089844 152.394531 C 91.484375 152.042969 91.015625 151.363281 90.683594 150.363281 Z M 99.132813 149.667969 L 100.210938 152.667969 L 99.367188 152.980469 L 96.570313 145.183594 L 97.414063 144.871094 L 97.726563 145.714844 C 97.777344 145.320313 97.90625 144.996094 98.117188 144.746094 C 98.324219 144.488281 98.621094 144.289063 99.007813 144.152344 C 99.621094 143.925781 100.214844 144.019531 100.789063 144.433594 C 101.359375 144.839844 101.808594 145.488281 102.132813 146.371094 C 102.453125 147.269531 102.523438 148.054688 102.335938 148.730469 C 102.148438 149.410156 101.746094 149.863281 101.132813 150.089844 C 100.746094 150.226563 100.390625 150.261719 100.070313 150.199219 C 99.746094 150.128906 99.433594 149.949219 99.132813 149.667969 Z M 101.273438 146.683594 C 101.023438 145.996094 100.703125 145.507813 100.320313 145.214844 C 99.933594 144.914063 99.523438 144.839844 99.085938 144.996094 C 98.625 145.164063 98.339844 145.488281 98.226563 145.964844 C 98.109375 146.433594 98.179688 147.011719 98.429688 147.699219 C 98.679688 148.386719 98.996094 148.882813 99.382813 149.183594 C 99.765625 149.488281 100.1875 149.554688 100.648438 149.386719 C 101.085938 149.230469 101.359375 148.914063 101.476563 148.433594 C 101.589844 147.957031 101.523438 147.371094 101.273438 146.683594 Z M 105.042969 147.546875 L 106.121094 150.546875 L 105.277344 150.859375 L 102.480469 143.0625 L 103.324219 142.75 L 103.636719 143.59375 C 103.6875 143.199219 103.816406 142.875 104.027344 142.625 C 104.234375 142.367188 104.53125 142.167969 104.917969 142.03125 C 105.53125 141.804688 106.125 141.898438 106.699219 142.3125 C 107.269531 142.71875 107.71875 143.367188 108.042969 144.25 C 108.363281 145.148438 108.433594 145.933594 108.246094 146.609375 C 108.058594 147.289063 107.65625 147.742188 107.042969 147.96875 C 106.65625 148.105469 106.300781 148.140625 105.980469 148.078125 C 105.65625 148.007813 105.34375 147.828125 105.042969 147.546875 Z M 107.183594 144.5625 C 106.933594 143.875 106.613281 143.386719 106.230469 143.09375 C 105.84375 142.792969 105.433594 142.71875 104.996094 142.875 C 104.535156 143.042969 104.25 143.367188 104.136719 143.84375 C 104.019531 144.3125 104.089844 144.890625 104.339844 145.578125 C 104.589844 146.265625 104.90625 146.761719 105.292969 147.0625 C 105.675781 147.367188 106.097656 147.433594 106.558594 147.265625 C 106.996094 147.109375 107.269531 146.792969 107.386719 146.3125 C 107.5 145.835938 107.433594 145.25 107.183594 144.5625 Z M 113.722656 141.957031 L 113.878906 142.410156 L 110.019531 143.785156 C 110.289063 144.421875 110.636719 144.847656 111.066406 145.066406 C 111.503906 145.285156 111.996094 145.296875 112.550781 145.097656 C 112.871094 144.984375 113.167969 144.832031 113.441406 144.644531 C 113.710938 144.449219 113.964844 144.207031 114.207031 143.925781 L 114.519531 144.785156 C 114.269531 145.046875 113.996094 145.269531 113.707031 145.457031 C 113.414063 145.636719 113.105469 145.78125 112.785156 145.894531 C 111.972656 146.1875 111.230469 146.160156 110.566406 145.816406 C 109.910156 145.464844 109.421875 144.832031 109.097656 143.925781 C 108.765625 143.011719 108.730469 142.199219 108.988281 141.488281 C 109.25 140.78125 109.757813 140.292969 110.519531 140.019531 C 111.207031 139.769531 111.835938 139.824219 112.410156 140.175781 C 112.980469 140.519531 113.417969 141.113281 113.722656 141.957031 Z M 112.769531 141.972656 C 112.582031 141.464844 112.308594 141.105469 111.957031 140.894531 C 111.601563 140.675781 111.222656 140.640625 110.816406 140.785156 C 110.347656 140.964844 110.019531 141.25 109.832031 141.644531 C 109.652344 142.042969 109.636719 142.511719 109.785156 143.050781 Z M 117.441406 138.664063 C 117.316406 138.644531 117.191406 138.640625 117.066406 138.648438 C 116.949219 138.660156 116.824219 138.6875 116.691406 138.726563 C 116.210938 138.90625 115.902344 139.210938 115.769531 139.648438 C 115.644531 140.078125 115.695313 140.609375 115.925781 141.242188 L 117.003906 144.226563 L 116.160156 144.539063 L 114.128906 138.882813 L 114.972656 138.570313 L 115.285156 139.445313 C 115.335938 139.039063 115.472656 138.707031 115.691406 138.445313 C 115.917969 138.175781 116.230469 137.96875 116.628906 137.820313 C 116.691406 137.800781 116.757813 137.78125 116.832031 137.757813 C 116.902344 137.738281 116.988281 137.722656 117.082031 137.710938 Z M 119.363281 134.871094 L 125.113281 132.808594 L 125.410156 133.667969 L 123.003906 134.527344 L 125.410156 141.214844 L 124.472656 141.542969 L 122.066406 134.855469 L 119.660156 135.730469 Z M 126.019531 134.574219 L 126.863281 134.230469 L 129.675781 138.152344 L 128.910156 133.371094 L 129.878906 132.980469 L 132.691406 136.886719 L 131.925781 132.121094 L 132.738281 131.777344 L 133.738281 137.886719 L 132.769531 138.292969 L 129.800781 134.183594 L 130.613281 139.183594 L 129.644531 139.589844 Z M 133.058594 131.445313 L 133.699219 130.804688 L 137.949219 135.054688 L 137.308594 135.695313 Z M 131.402344 129.789063 L 132.042969 129.148438 L 132.917969 130.023438 L 132.277344 130.664063 Z M 139.875 128 L 142.4375 130.5625 L 141.8125 131.1875 L 139.265625 128.640625 C 138.859375 128.234375 138.484375 128.007813 138.140625 127.953125 C 137.796875 127.902344 137.484375 128.015625 137.203125 128.296875 C 136.871094 128.632813 136.726563 129.015625 136.765625 129.453125 C 136.808594 129.890625 137.039063 130.320313 137.453125 130.734375 L 139.859375 133.140625 L 139.21875 133.78125 L 134.96875 129.53125 L 135.609375 128.890625 L 136.265625 129.546875 C 136.152344 129.140625 136.136719 128.777344 136.21875 128.453125 C 136.292969 128.121094 136.46875 127.8125 136.75 127.53125 C 137.179688 127.105469 137.65625 126.929688 138.1875 127 C 138.71875 127.074219 139.28125 127.40625 139.875 128 Z M 143.929688 123.664063 L 146.007813 125.742188 L 147.117188 124.632813 C 147.480469 124.269531 147.667969 123.910156 147.679688 123.554688 C 147.6875 123.203125 147.515625 122.847656 147.164063 122.492188 C 146.808594 122.140625 146.453125 121.972656 146.101563 121.992188 C 145.757813 122.003906 145.402344 122.191406 145.039063 122.554688 Z M 141.601563 121.335938 L 143.304688 123.039063 L 144.320313 122.023438 C 144.664063 121.679688 144.851563 121.359375 144.882813 121.054688 C 144.90625 120.742188 144.769531 120.441406 144.476563 120.148438 C 144.1875 119.859375 143.890625 119.726563 143.585938 119.757813 C 143.285156 119.789063 142.960938 119.976563 142.617188 120.320313 Z M 140.273438 121.382813 L 142.039063 119.617188 C 142.5625 119.097656 143.085938 118.816406 143.617188 118.773438 C 144.148438 118.734375 144.640625 118.9375 145.085938 119.382813 C 145.429688 119.726563 145.625 120.078125 145.679688 120.429688 C 145.742188 120.773438 145.65625 121.113281 145.429688 121.445313 C 145.855469 121.1875 146.289063 121.09375 146.726563 121.164063 C 147.171875 121.226563 147.589844 121.453125 147.976563 121.835938 C 148.484375 122.347656 148.71875 122.898438 148.679688 123.492188 C 148.648438 124.078125 148.34375 124.65625 147.773438 125.226563 L 145.945313 127.054688 Z M 149.34375 116.4375 C 149.21875 116.480469 149.105469 116.53125 149 116.59375 C 148.898438 116.65625 148.796875 116.734375 148.703125 116.828125 C 148.339844 117.195313 148.195313 117.601563 148.265625 118.046875 C 148.328125 118.484375 148.601563 118.945313 149.078125 119.421875 L 151.328125 121.671875 L 150.6875 122.3125 L 146.4375 118.0625 L 147.078125 117.421875 L 147.734375 118.078125 C 147.609375 117.683594 147.589844 117.320313 147.671875 116.984375 C 147.757813 116.652344 147.949219 116.335938 148.25 116.03125 C 148.304688 115.980469 148.359375 115.933594 148.421875 115.890625 C 148.476563 115.839844 148.542969 115.792969 148.625 115.75 Z M 151.3125 114.160156 C 150.980469 114.496094 150.859375 114.90625 150.953125 115.394531 C 151.046875 115.886719 151.351563 116.386719 151.859375 116.894531 C 152.371094 117.40625 152.871094 117.707031 153.359375 117.800781 C 153.847656 117.894531 154.257813 117.777344 154.59375 117.441406 C 154.9375 117.097656 155.054688 116.6875 154.953125 116.207031 C 154.859375 115.71875 154.554688 115.21875 154.046875 114.707031 C 153.535156 114.199219 153.039063 113.894531 152.5625 113.800781 C 152.074219 113.699219 151.65625 113.816406 151.3125 114.160156 Z M 150.71875 113.566406 C 151.273438 113.015625 151.902344 112.78125 152.609375 112.863281 C 153.316406 112.949219 154.019531 113.339844 154.71875 114.035156 C 155.414063 114.734375 155.804688 115.4375 155.890625 116.144531 C 155.972656 116.855469 155.738281 117.484375 155.1875 118.035156 C 154.632813 118.589844 154.003906 118.824219 153.296875 118.738281 C 152.601563 118.644531 151.902344 118.25 151.203125 117.550781 C 150.507813 116.855469 150.117188 116.15625 150.03125 115.457031 C 149.9375 114.75 150.167969 114.121094 150.71875 113.566406 Z M 154.578125 109.65625 C 154.359375 110.085938 154.375 110.515625 154.625 110.953125 C 154.867188 111.382813 155.308594 111.757813 155.953125 112.078125 C 156.589844 112.402344 157.15625 112.539063 157.65625 112.484375 C 158.144531 112.421875 158.5 112.179688 158.71875 111.75 C 158.925781 111.324219 158.90625 110.898438 158.65625 110.46875 C 158.414063 110.03125 157.976563 109.652344 157.34375 109.328125 C 156.699219 109.007813 156.132813 108.875 155.640625 108.9375 C 155.140625 108.992188 154.789063 109.230469 154.578125 109.65625 Z M 153.828125 109.28125 C 154.171875 108.59375 154.695313 108.179688 155.390625 108.03125 C 156.089844 107.886719 156.882813 108.039063 157.765625 108.484375 C 158.640625 108.933594 159.226563 109.484375 159.53125 110.140625 C 159.832031 110.789063 159.8125 111.453125 159.46875 112.140625 C 159.113281 112.839844 158.585938 113.257813 157.890625 113.390625 C 157.195313 113.527344 156.40625 113.371094 155.53125 112.921875 C 154.648438 112.476563 154.054688 111.933594 153.75 111.296875 C 153.449219 110.652344 153.476563 109.980469 153.828125 109.28125 Z M 153.410156 105.101563 L 153.769531 104.273438 L 158.316406 106.195313 L 156.957031 102.742188 L 157.394531 101.695313 L 158.878906 105.429688 L 162.988281 103.929688 L 162.535156 104.992188 L 158.769531 106.382813 L 161.472656 107.523438 L 161.113281 108.351563 Z M 153.410156 105.101563 "/>
<path style=" stroke:none;fill-rule:evenodd;fill:rgb(41.960784%,58.039216%,69.019608%);fill-opacity:1;" d="M 89.058594 145.644531 L 89.996094 145.332031 L 91.574219 149.941406 C 91.855469 150.746094 92.1875 151.28125 92.574219 151.550781 C 92.957031 151.8125 93.449219 151.84375 94.042969 151.644531 C 94.625 151.449219 94.988281 151.125 95.136719 150.675781 C 95.28125 150.21875 95.214844 149.589844 94.933594 148.785156 L 93.355469 144.175781 L 94.292969 143.863281 L 95.917969 148.582031 C 96.25 149.582031 96.28125 150.410156 96.011719 151.066406 C 95.738281 151.714844 95.175781 152.183594 94.324219 152.472656 C 93.449219 152.765625 92.703125 152.738281 92.089844 152.394531 C 91.484375 152.042969 91.015625 151.363281 90.683594 150.363281 Z M 99.132813 149.667969 L 100.210938 152.667969 L 99.367188 152.980469 L 96.570313 145.183594 L 97.414063 144.871094 L 97.726563 145.714844 C 97.777344 145.320313 97.90625 144.996094 98.117188 144.746094 C 98.324219 144.488281 98.621094 144.289063 99.007813 144.152344 C 99.621094 143.925781 100.214844 144.019531 100.789063 144.433594 C 101.359375 144.839844 101.808594 145.488281 102.132813 146.371094 C 102.453125 147.269531 102.523438 148.054688 102.335938 148.730469 C 102.148438 149.410156 101.746094 149.863281 101.132813 150.089844 C 100.746094 150.226563 100.390625 150.261719 100.070313 150.199219 C 99.746094 150.128906 99.433594 149.949219 99.132813 149.667969 Z M 101.273438 146.683594 C 101.023438 145.996094 100.703125 145.507813 100.320313 145.214844 C 99.933594 144.914063 99.523438 144.839844 99.085938 144.996094 C 98.625 145.164063 98.339844 145.488281 98.226563 145.964844 C 98.109375 146.433594 98.179688 147.011719 98.429688 147.699219 C 98.679688 148.386719 98.996094 148.882813 99.382813 149.183594 C 99.765625 149.488281 100.1875 149.554688 100.648438 149.386719 C 101.085938 149.230469 101.359375 148.914063 101.476563 148.433594 C 101.589844 147.957031 101.523438 147.371094 101.273438 146.683594 Z M 105.042969 147.546875 L 106.121094 150.546875 L 105.277344 150.859375 L 102.480469 143.0625 L 103.324219 142.75 L 103.636719 143.59375 C 103.6875 143.199219 103.816406 142.875 104.027344 142.625 C 104.234375 142.367188 104.53125 142.167969 104.917969 142.03125 C 105.53125 141.804688 106.125 141.898438 106.699219 142.3125 C 107.269531 142.71875 107.71875 143.367188 108.042969 144.25 C 108.363281 145.148438 108.433594 145.933594 108.246094 146.609375 C 108.058594 147.289063 107.65625 147.742188 107.042969 147.96875 C 106.65625 148.105469 106.300781 148.140625 105.980469 148.078125 C 105.65625 148.007813 105.34375 147.828125 105.042969 147.546875 Z M 107.183594 144.5625 C 106.933594 143.875 106.613281 143.386719 106.230469 143.09375 C 105.84375 142.792969 105.433594 142.71875 104.996094 142.875 C 104.535156 143.042969 104.25 143.367188 104.136719 143.84375 C 104.019531 144.3125 104.089844 144.890625 104.339844 145.578125 C 104.589844 146.265625 104.90625 146.761719 105.292969 147.0625 C 105.675781 147.367188 106.097656 147.433594 106.558594 147.265625 C 106.996094 147.109375 107.269531 146.792969 107.386719 146.3125 C 107.5 145.835938 107.433594 145.25 107.183594 144.5625 Z M 113.722656 141.957031 L 113.878906 142.410156 L 110.019531 143.785156 C 110.289063 144.421875 110.636719 144.847656 111.066406 145.066406 C 111.503906 145.285156 111.996094 145.296875 112.550781 145.097656 C 112.871094 144.984375 113.167969 144.832031 113.441406 144.644531 C 113.710938 144.449219 113.964844 144.207031 114.207031 143.925781 L 114.519531 144.785156 C 114.269531 145.046875 113.996094 145.269531 113.707031 145.457031 C 113.414063 145.636719 113.105469 145.78125 112.785156 145.894531 C 111.972656 146.1875 111.230469 146.160156 110.566406 145.816406 C 109.910156 145.464844 109.421875 144.832031 109.097656 143.925781 C 108.765625 143.011719 108.730469 142.199219 108.988281 141.488281 C 109.25 140.78125 109.757813 140.292969 110.519531 140.019531 C 111.207031 139.769531 111.835938 139.824219 112.410156 140.175781 C 112.980469 140.519531 113.417969 141.113281 113.722656 141.957031 Z M 112.769531 141.972656 C 112.582031 141.464844 112.308594 141.105469 111.957031 140.894531 C 111.601563 140.675781 111.222656 140.640625 110.816406 140.785156 C 110.347656 140.964844 110.019531 141.25 109.832031 141.644531 C 109.652344 142.042969 109.636719 142.511719 109.785156 143.050781 Z M 117.441406 138.664063 C 117.316406 138.644531 117.191406 138.640625 117.066406 138.648438 C 116.949219 138.660156 116.824219 138.6875 116.691406 138.726563 C 116.210938 138.90625 115.902344 139.210938 115.769531 139.648438 C 115.644531 140.078125 115.695313 140.609375 115.925781 141.242188 L 117.003906 144.226563 L 116.160156 144.539063 L 114.128906 138.882813 L 114.972656 138.570313 L 115.285156 139.445313 C 115.335938 139.039063 115.472656 138.707031 115.691406 138.445313 C 115.917969 138.175781 116.230469 137.96875 116.628906 137.820313 C 116.691406 137.800781 116.757813 137.78125 116.832031 137.757813 C 116.902344 137.738281 116.988281 137.722656 117.082031 137.710938 Z M 119.363281 134.871094 L 125.113281 132.808594 L 125.410156 133.667969 L 123.003906 134.527344 L 125.410156 141.214844 L 124.472656 141.542969 L 122.066406 134.855469 L 119.660156 135.730469 Z M 126.019531 134.574219 L 126.863281 134.230469 L 129.675781 138.152344 L 128.910156 133.371094 L 129.878906 132.980469 L 132.691406 136.886719 L 131.925781 132.121094 L 132.738281 131.777344 L 133.738281 137.886719 L 132.769531 138.292969 L 129.800781 134.183594 L 130.613281 139.183594 L 129.644531 139.589844 Z M 133.058594 131.445313 L 133.699219 130.804688 L 137.949219 135.054688 L 137.308594 135.695313 Z M 131.402344 129.789063 L 132.042969 129.148438 L 132.917969 130.023438 L 132.277344 130.664063 Z M 139.875 128 L 142.4375 130.5625 L 141.8125 131.1875 L 139.265625 128.640625 C 138.859375 128.234375 138.484375 128.007813 138.140625 127.953125 C 137.796875 127.902344 137.484375 128.015625 137.203125 128.296875 C 136.871094 128.632813 136.726563 129.015625 136.765625 129.453125 C 136.808594 129.890625 137.039063 130.320313 137.453125 130.734375 L 139.859375 133.140625 L 139.21875 133.78125 L 134.96875 129.53125 L 135.609375 128.890625 L 136.265625 129.546875 C 136.152344 129.140625 136.136719 128.777344 136.21875 128.453125 C 136.292969 128.121094 136.46875 127.8125 136.75 127.53125 C 137.179688 127.105469 137.65625 126.929688 138.1875 127 C 138.71875 127.074219 139.28125 127.40625 139.875 128 Z M 143.929688 123.664063 L 146.007813 125.742188 L 147.117188 124.632813 C 147.480469 124.269531 147.667969 123.910156 147.679688 123.554688 C 147.6875 123.203125 147.515625 122.847656 147.164063 122.492188 C 146.808594 122.140625 146.453125 121.972656 146.101563 121.992188 C 145.757813 122.003906 145.402344 122.191406 145.039063 122.554688 Z M 141.601563 121.335938 L 143.304688 123.039063 L 144.320313 122.023438 C 144.664063 121.679688 144.851563 121.359375 144.882813 121.054688 C 144.90625 120.742188 144.769531 120.441406 144.476563 120.148438 C 144.1875 119.859375 143.890625 119.726563 143.585938 119.757813 C 143.285156 119.789063 142.960938 119.976563 142.617188 120.320313 Z M 140.273438 121.382813 L 142.039063 119.617188 C 142.5625 119.097656 143.085938 118.816406 143.617188 118.773438 C 144.148438 118.734375 144.640625 118.9375 145.085938 119.382813 C 145.429688 119.726563 145.625 120.078125 145.679688 120.429688 C 145.742188 120.773438 145.65625 121.113281 145.429688 121.445313 C 145.855469 121.1875 146.289063 121.09375 146.726563 121.164063 C 147.171875 121.226563 147.589844 121.453125 147.976563 121.835938 C 148.484375 122.347656 148.71875 122.898438 148.679688 123.492188 C 148.648438 124.078125 148.34375 124.65625 147.773438 125.226563 L 145.945313 127.054688 Z M 149.34375 116.4375 C 149.21875 116.480469 149.105469 116.53125 149 116.59375 C 148.898438 116.65625 148.796875 116.734375 148.703125 116.828125 C 148.339844 117.195313 148.195313 117.601563 148.265625 118.046875 C 148.328125 118.484375 148.601563 118.945313 149.078125 119.421875 L 151.328125 121.671875 L 150.6875 122.3125 L 146.4375 118.0625 L 147.078125 117.421875 L 147.734375 118.078125 C 147.609375 117.683594 147.589844 117.320313 147.671875 116.984375 C 147.757813 116.652344 147.949219 116.335938 148.25 116.03125 C 148.304688 115.980469 148.359375 115.933594 148.421875 115.890625 C 148.476563 115.839844 148.542969 115.792969 148.625 115.75 Z M 151.3125 114.160156 C 150.980469 114.496094 150.859375 114.90625 150.953125 115.394531 C 151.046875 115.886719 151.351563 116.386719 151.859375 116.894531 C 152.371094 117.40625 152.871094 117.707031 153.359375 117.800781 C 153.847656 117.894531 154.257813 117.777344 154.59375 117.441406 C 154.9375 117.097656 155.054688 116.6875 154.953125 116.207031 C 154.859375 115.71875 154.554688 115.21875 154.046875 114.707031 C 153.535156 114.199219 153.039063 113.894531 152.5625 113.800781 C 152.074219 113.699219 151.65625 113.816406 151.3125 114.160156 Z M 150.71875 113.566406 C 151.273438 113.015625 151.902344 112.78125 152.609375 112.863281 C 153.316406 112.949219 154.019531 113.339844 154.71875 114.035156 C 155.414063 114.734375 155.804688 115.4375 155.890625 116.144531 C 155.972656 116.855469 155.738281 117.484375 155.1875 118.035156 C 154.632813 118.589844 154.003906 118.824219 153.296875 118.738281 C 152.601563 118.644531 151.902344 118.25 151.203125 117.550781 C 150.507813 116.855469 150.117188 116.15625 150.03125 115.457031 C 149.9375 114.75 150.167969 114.121094 150.71875 113.566406 Z M 154.578125 109.65625 C 154.359375 110.085938 154.375 110.515625 154.625 110.953125 C 154.867188 111.382813 155.308594 111.757813 155.953125 112.078125 C 156.589844 112.402344 157.15625 112.539063 157.65625 112.484375 C 158.144531 112.421875 158.5 112.179688 158.71875 111.75 C 158.925781 111.324219 158.90625 110.898438 158.65625 110.46875 C 158.414063 110.03125 157.976563 109.652344 157.34375 109.328125 C 156.699219 109.007813 156.132813 108.875 155.640625 108.9375 C 155.140625 108.992188 154.789063 109.230469 154.578125 109.65625 Z M 153.828125 109.28125 C 154.171875 108.59375 154.695313 108.179688 155.390625 108.03125 C 156.089844 107.886719 156.882813 108.039063 157.765625 108.484375 C 158.640625 108.933594 159.226563 109.484375 159.53125 110.140625 C 159.832031 110.789063 159.8125 111.453125 159.46875 112.140625 C 159.113281 112.839844 158.585938 113.257813 157.890625 113.390625 C 157.195313 113.527344 156.40625 113.371094 155.53125 112.921875 C 154.648438 112.476563 154.054688 111.933594 153.75 111.296875 C 153.449219 110.652344 153.476563 109.980469 153.828125 109.28125 Z M 153.410156 105.101563 L 153.769531 104.273438 L 158.316406 106.195313 L 156.957031 102.742188 L 157.394531 101.695313 L 158.878906 105.429688 L 162.988281 103.929688 L 162.535156 104.992188 L 158.769531 106.382813 L 161.472656 107.523438 L 161.113281 108.351563 Z M 153.410156 105.101563 "/>
</g>
</svg>

