<?xml version="1.0" encoding="UTF-8"?>
<svg xmlns="http://www.w3.org/2000/svg" xmlns:xlink="http://www.w3.org/1999/xlink" width="256pt" height="256pt" viewBox="0 0 256 256" version="1.1">
<g id="surface2">
<rect x="0" y="0" width="256" height="256" style="fill:rgb(94.901961%,93.72549%,91.372549%);fill-opacity:1;stroke:none;"/>
<path style="fill:none;stroke-width:2;stroke-linecap:round;stroke-linejoin:round;stroke:rgb(60%,70.196078%,80%);stroke-opacity:1;stroke-miterlimit:10;" d="M 208.679688 126.25 L 188.121094 190.265625 L 173.546875 258 "/>
<path style="fill:none;stroke-width:2;stroke-linecap:round;stroke-linejoin:round;stroke:rgb(60%,70.196078%,80%);stroke-opacity:1;stroke-miterlimit:10;" d="M 208.679688 126.25 L 211.625 106.691406 L 209.238281 65.15625 L 203.648438 61.820313 L 191.28125 80.742188 L 179.917969 79.734375 L 172.355469 74.726563 L 166.871094 64.292969 L 167.304688 51.066406 L 174.9375 38.703125 L 177.070313 24.132813 L 174.789063 6.496094 L 162.519531 5.886719 L 157.222656 -0.421875 L 157.691406 -3 "/>
<path style="fill:none;stroke-width:8;stroke-linecap:round;stroke-linejoin:round;stroke:rgb(75.686275%,70.980392%,61.568627%);stroke-opacity:1;stroke-miterlimit:10;" d="M 95.6875 264 L 102.816406 232.257813 L 102.957031 229.949219 L 102.632813 226.699219 "/>
<path style="fill:none;stroke-width:8;stroke-linecap:round;stroke-linejoin:round;stroke:rgb(75.686275%,70.980392%,61.568627%);stroke-opacity:1;stroke-miterlimit:10;" d="M 74.683594 264 L 73.039063 259.742188 L 67.957031 244.46875 L 66.46875 237.128906 L 65.90625 229.699219 L 65.816406 218.359375 L 66.515625 211.144531 L 70.101563 192.875 L 74.203125 176.226563 L 81.101563 152.398438 L 83.40625 142.777344 L 84.269531 135.25 L 84.199219 127.503906 L 83.152344 119.132813 L 78.1875 99.144531 L 77.046875 89.242188 L 76.765625 81.589844 L 76.441406 46.140625 L 77.09375 32.644531 L 79.144531 21.214844 L 81.542969 13.5625 L 84.105469 6.71875 L 91.75 -9 "/>
<path style="fill:none;stroke-width:8;stroke-linecap:round;stroke-linejoin:round;stroke:rgb(75.686275%,70.980392%,61.568627%);stroke-opacity:1;stroke-miterlimit:10;" d="M 76.765625 81.589844 L 61.15625 73.75 L 41 61.414063 L 16.414063 47.296875 L 5.136719 41.703125 L -9 33.875 "/>
<path style="fill:none;stroke-width:6;stroke-linecap:round;stroke-linejoin:round;stroke:rgb(100%,100%,100%);stroke-opacity:1;stroke-miterlimit:10;" d="M 95.6875 264 L 102.816406 232.257813 L 102.957031 229.949219 L 102.632813 226.699219 "/>
<path style="fill:none;stroke-width:6;stroke-linecap:round;stroke-linejoin:round;stroke:rgb(100%,100%,100%);stroke-opacity:1;stroke-miterlimit:10;" d="M 74.683594 264 L 73.039063 259.742188 L 67.957031 244.46875 L 66.46875 237.128906 L 65.90625 229.699219 L 65.816406 218.359375 L 66.515625 211.144531 L 70.101563 192.875 L 74.203125 176.226563 L 81.101563 152.398438 L 83.40625 142.777344 L 84.269531 135.25 L 84.199219 127.503906 L 83.152344 119.132813 L 78.1875 99.144531 L 77.046875 89.242188 L 76.765625 81.589844 L 76.441406 46.140625 L 77.09375 32.644531 L 79.144531 21.214844 L 81.542969 13.5625 L 84.105469 6.71875 L 91.75 -9 "/>
<path style="fill:none;stroke-width:6;stroke-linecap:round;stroke-linejoin:round;stroke:rgb(100%,100%,100%);stroke-opacity:1;stroke-miterlimit:10;" d="M 76.765625 81.589844 L 61.15625 73.75 L 41 61.414063 L 16.414063 47.296875 L 5.136719 41.703125 L -9 33.875 "/>
<path style="fill:none;stroke-width:3;stroke-linecap:round;stroke-linejoin:round;stroke:rgb(100%,100%,100%);stroke-opacity:1;stroke-miterlimit:10;" d="M 66.730469 189.785156 L 67.042969 188.503906 L 74.308594 187.003906 L 67.808594 185.394531 L 68.042969 184.472656 L 75.824219 186.394531 L 75.496094 187.675781 L 68.214844 189.175781 L 74.730469 190.785156 L 74.511719 191.707031 Z M 71.597656 181.234375 C 71.484375 181.695313 71.597656 182.109375 71.941406 182.484375 C 72.285156 182.859375 72.808594 183.132813 73.503906 183.296875 C 74.203125 183.476563 74.78125 183.476563 75.238281 183.296875 C 75.699219 183.121094 75.984375 182.804688 76.097656 182.34375 C 76.210938 181.875 76.105469 181.464844 75.785156 181.109375 C 75.453125 180.746094 74.9375 180.476563 74.238281 180.296875 C 73.542969 180.132813 72.957031 180.132813 72.488281 180.296875 C 72.011719 180.453125 71.714844 180.765625 71.597656 181.234375 Z M 70.785156 181.046875 C 70.972656 180.296875 71.390625 179.773438 72.035156 179.46875 C 72.683594 179.167969 73.488281 179.136719 74.457031 179.375 C 75.40625 179.617188 76.097656 180.015625 76.535156 180.578125 C 76.980469 181.140625 77.113281 181.796875 76.925781 182.546875 C 76.738281 183.296875 76.320313 183.824219 75.675781 184.125 C 75.019531 184.417969 74.21875 184.445313 73.269531 184.203125 C 72.300781 183.964844 71.597656 183.570313 71.160156 183.015625 C 70.722656 182.453125 70.597656 181.796875 70.785156 181.046875 Z M 73.589844 174.410156 C 73.507813 174.496094 73.433594 174.59375 73.371094 174.707031 C 73.308594 174.8125 73.261719 174.925781 73.230469 175.050781 C 73.097656 175.542969 73.175781 175.964844 73.464844 176.316406 C 73.746094 176.671875 74.214844 176.933594 74.871094 177.097656 L 77.933594 177.910156 L 77.714844 178.785156 L 71.902344 177.253906 L 72.121094 176.378906 L 73.027344 176.613281 C 72.726563 176.332031 72.527344 176.03125 72.433594 175.707031 C 72.332031 175.375 72.335938 175.003906 72.449219 174.597656 C 72.460938 174.535156 72.480469 174.46875 72.511719 174.394531 C 72.535156 174.3125 72.566406 174.238281 72.605469 174.175781 Z M 71.566406 171.933594 L 73.207031 172.402344 L 73.722656 170.636719 L 74.457031 170.855469 L 73.941406 172.621094 L 77.082031 173.527344 C 77.550781 173.664063 77.875 173.691406 78.050781 173.605469 C 78.21875 173.523438 78.355469 173.304688 78.457031 172.949219 L 78.707031 172.074219 L 79.503906 172.308594 L 79.253906 173.183594 C 79.054688 173.839844 78.785156 174.257813 78.441406 174.433594 C 78.089844 174.601563 77.550781 174.582031 76.832031 174.371094 L 73.691406 173.464844 L 73.519531 174.105469 L 72.785156 173.886719 L 72.957031 173.246094 L 71.316406 172.777344 Z M 77.597656 165.867188 L 81.082031 166.867188 L 80.832031 167.710938 L 77.378906 166.710938 C 76.828125 166.554688 76.390625 166.539063 76.066406 166.664063 C 75.734375 166.78125 75.511719 167.023438 75.394531 167.398438 C 75.269531 167.867188 75.332031 168.285156 75.582031 168.648438 C 75.832031 169.003906 76.238281 169.257813 76.800781 169.414063 L 80.066406 170.367188 L 79.816406 171.226563 L 71.785156 168.898438 L 72.035156 168.039063 L 75.191406 168.960938 C 74.902344 168.648438 74.714844 168.332031 74.628906 168.007813 C 74.535156 167.675781 74.542969 167.328125 74.644531 166.960938 C 74.824219 166.367188 75.160156 165.976563 75.660156 165.789063 C 76.152344 165.601563 76.796875 165.628906 77.597656 165.867188 Z M 76.839844 154.851563 L 77.949219 155.179688 C 77.535156 155.410156 77.195313 155.679688 76.933594 155.992188 C 76.664063 156.296875 76.472656 156.644531 76.355469 157.039063 C 76.128906 157.832031 76.222656 158.519531 76.636719 159.101563 C 77.042969 159.675781 77.757813 160.113281 78.777344 160.414063 C 79.789063 160.707031 80.628906 160.71875 81.292969 160.445313 C 81.960938 160.175781 82.40625 159.644531 82.636719 158.851563 C 82.75 158.457031 82.777344 158.0625 82.714844 157.664063 C 82.660156 157.257813 82.511719 156.847656 82.261719 156.429688 L 83.355469 156.742188 C 83.511719 157.148438 83.597656 157.554688 83.621094 157.960938 C 83.640625 158.359375 83.59375 158.757813 83.480469 159.164063 C 83.167969 160.21875 82.566406 160.941406 81.683594 161.335938 C 80.789063 161.722656 79.726563 161.738281 78.496094 161.382813 C 77.257813 161.019531 76.367188 160.4375 75.824219 159.632813 C 75.285156 158.832031 75.167969 157.90625 75.480469 156.851563 C 75.597656 156.4375 75.773438 156.066406 76.011719 155.742188 C 76.242188 155.410156 76.519531 155.113281 76.839844 154.851563 Z M 82.023438 150.121094 L 85.523438 151.042969 L 85.289063 151.917969 L 81.820313 150.996094 C 81.257813 150.851563 80.816406 150.839844 80.492188 150.964844 C 80.171875 151.089844 79.960938 151.347656 79.867188 151.730469 C 79.742188 152.199219 79.8125 152.613281 80.070313 152.964844 C 80.320313 153.308594 80.726563 153.554688 81.289063 153.699219 L 84.585938 154.574219 L 84.367188 155.449219 L 76.289063 153.324219 L 76.507813 152.449219 L 79.679688 153.277344 C 79.378906 152.976563 79.179688 152.667969 79.085938 152.355469 C 78.984375 152.035156 78.984375 151.683594 79.085938 151.308594 C 79.242188 150.714844 79.570313 150.320313 80.070313 150.121094 C 80.5625 149.914063 81.210938 149.914063 82.023438 150.121094 Z M 81.269531 145.949219 C 81.167969 146.417969 81.285156 146.839844 81.628906 147.214844 C 81.964844 147.582031 82.480469 147.847656 83.175781 148.011719 C 83.875 148.179688 84.457031 148.179688 84.925781 148.011719 C 85.394531 147.835938 85.683594 147.511719 85.785156 147.042969 C 85.898438 146.585938 85.789063 146.175781 85.457031 145.808594 C 85.113281 145.433594 84.59375 145.164063 83.894531 144.996094 C 83.199219 144.832031 82.613281 144.835938 82.144531 145.011719 C 81.675781 145.179688 81.386719 145.492188 81.269531 145.949219 Z M 80.472656 145.761719 C 80.652344 145.011719 81.0625 144.492188 81.707031 144.199219 C 82.355469 143.898438 83.15625 143.863281 84.113281 144.089844 C 85.074219 144.320313 85.769531 144.714844 86.207031 145.277344 C 86.652344 145.832031 86.789063 146.480469 86.613281 147.230469 C 86.433594 147.992188 86.023438 148.523438 85.378906 148.824219 C 84.722656 149.117188 83.917969 149.148438 82.957031 148.917969 C 82 148.691406 81.300781 148.300781 80.863281 147.746094 C 80.425781 147.183594 80.296875 146.523438 80.472656 145.761719 Z M 82.742188 138.730469 L 79.507813 138.324219 L 79.617188 137.449219 L 87.914063 138.496094 L 87.804688 139.371094 L 86.898438 139.261719 C 87.242188 139.492188 87.480469 139.761719 87.617188 140.074219 C 87.75 140.378906 87.792969 140.722656 87.742188 141.105469 C 87.65625 141.761719 87.304688 142.257813 86.679688 142.589844 C 86.054688 142.925781 85.273438 143.035156 84.335938 142.917969 C 83.390625 142.804688 82.65625 142.507813 82.132813 142.027344 C 81.613281 141.550781 81.394531 140.980469 81.476563 140.324219 C 81.53125 139.941406 81.660156 139.617188 81.867188 139.355469 C 82.078125 139.085938 82.367188 138.878906 82.742188 138.730469 Z M 84.460938 142.011719 C 85.179688 142.105469 85.757813 142.050781 86.195313 141.839844 C 86.632813 141.621094 86.882813 141.277344 86.945313 140.808594 C 87 140.339844 86.84375 139.945313 86.476563 139.621094 C 86.101563 139.300781 85.554688 139.089844 84.835938 138.996094 C 84.109375 138.902344 83.523438 138.964844 83.085938 139.183594 C 82.640625 139.402344 82.390625 139.746094 82.335938 140.214844 C 82.273438 140.683594 82.429688 141.082031 82.804688 141.402344 C 83.179688 141.714844 83.734375 141.917969 84.460938 142.011719 Z M 82.109375 136.019531 L 82.1875 135.128906 L 88.1875 135.582031 L 88.109375 136.472656 Z M 79.78125 135.847656 L 79.859375 134.957031 L 81.09375 135.050781 L 81.015625 135.941406 Z M 79.886719 133.523438 L 79.886719 132.617188 L 84.824219 132.570313 L 82.199219 129.929688 L 82.199219 128.789063 L 85.027344 131.648438 L 88.214844 128.632813 L 88.214844 129.789063 L 85.308594 132.570313 L 88.246094 132.539063 L 88.246094 133.445313 Z M 84.375 123.023438 L 84.859375 122.976563 L 85.28125 127.054688 C 85.960938 126.953125 86.453125 126.71875 86.765625 126.351563 C 87.078125 125.976563 87.210938 125.5 87.15625 124.914063 C 87.117188 124.570313 87.03125 124.25 86.90625 123.945313 C 86.78125 123.632813 86.617188 123.328125 86.40625 123.023438 L 87.328125 122.929688 C 87.515625 123.242188 87.667969 123.5625 87.78125 123.882813 C 87.886719 124.195313 87.960938 124.523438 88 124.867188 C 88.085938 125.734375 87.875 126.445313 87.375 127.007813 C 86.875 127.5625 86.148438 127.882813 85.1875 127.976563 C 84.21875 128.082031 83.421875 127.929688 82.796875 127.523438 C 82.171875 127.109375 81.820313 126.492188 81.734375 125.679688 C 81.664063 124.953125 81.867188 124.351563 82.34375 123.882813 C 82.8125 123.40625 83.492188 123.117188 84.375 123.023438 Z M 84.171875 123.945313 C 83.632813 124.019531 83.214844 124.203125 82.921875 124.492188 C 82.632813 124.773438 82.511719 125.132813 82.5625 125.570313 C 82.617188 126.070313 82.8125 126.457031 83.15625 126.726563 C 83.492188 127 83.9375 127.125 84.5 127.101563 Z M 83.351563 116.960938 L 83.835938 116.882813 L 84.554688 120.914063 C 85.210938 120.769531 85.6875 120.5 85.976563 120.101563 C 86.269531 119.707031 86.363281 119.222656 86.257813 118.648438 C 86.195313 118.316406 86.09375 118.003906 85.945313 117.710938 C 85.789063 117.410156 85.597656 117.113281 85.367188 116.820313 L 86.273438 116.648438 C 86.484375 116.953125 86.660156 117.257813 86.804688 117.570313 C 86.941406 117.882813 87.035156 118.207031 87.085938 118.539063 C 87.242188 119.394531 87.09375 120.125 86.632813 120.726563 C 86.164063 121.320313 85.460938 121.703125 84.523438 121.867188 C 83.554688 122.03125 82.75 121.933594 82.101563 121.570313 C 81.445313 121.195313 81.046875 120.609375 80.898438 119.804688 C 80.773438 119.085938 80.9375 118.472656 81.382813 117.960938 C 81.820313 117.453125 82.476563 117.117188 83.351563 116.960938 Z M 83.210938 117.914063 C 82.679688 118.019531 82.28125 118.226563 82.007813 118.539063 C 81.738281 118.851563 81.640625 119.222656 81.710938 119.648438 C 81.796875 120.140625 82.019531 120.507813 82.382813 120.757813 C 82.75 121 83.207031 121.085938 83.757813 121.023438 Z M 77.628906 113.582031 L 77.394531 112.628906 L 84.300781 110.910156 L 83.457031 107.488281 L 84.332031 107.269531 L 85.410156 111.644531 Z M 80.566406 104.664063 C 80.734375 105.363281 80.941406 105.828125 81.191406 106.054688 C 81.441406 106.273438 81.777344 106.332031 82.191406 106.226563 C 82.527344 106.144531 82.769531 105.976563 82.925781 105.726563 C 83.074219 105.46875 83.105469 105.164063 83.019531 104.820313 C 82.90625 104.332031 82.625 103.992188 82.175781 103.804688 C 81.71875 103.609375 81.183594 103.585938 80.566406 103.742188 L 80.347656 103.804688 Z M 79.722656 103.039063 L 83.066406 102.210938 L 83.285156 103.070313 L 82.410156 103.289063 C 82.816406 103.40625 83.140625 103.59375 83.378906 103.851563 C 83.621094 104.101563 83.792969 104.441406 83.894531 104.867188 C 84.03125 105.398438 83.972656 105.863281 83.722656 106.257813 C 83.464844 106.65625 83.046875 106.925781 82.472656 107.070313 C 81.816406 107.234375 81.277344 107.164063 80.847656 106.851563 C 80.410156 106.539063 80.09375 105.992188 79.894531 105.210938 L 79.597656 103.992188 L 79.503906 104.007813 C 79.066406 104.125 78.761719 104.34375 78.582031 104.664063 C 78.40625 104.988281 78.375 105.382813 78.488281 105.851563 C 78.5625 106.144531 78.675781 106.425781 78.832031 106.695313 C 78.988281 106.96875 79.175781 107.210938 79.394531 107.429688 L 78.519531 107.648438 C 78.292969 107.367188 78.109375 107.09375 77.972656 106.820313 C 77.839844 106.539063 77.734375 106.253906 77.660156 105.960938 C 77.472656 105.210938 77.550781 104.59375 77.894531 104.101563 C 78.230469 103.613281 78.839844 103.257813 79.722656 103.039063 Z M 74.511719 102.25 L 74.355469 101.359375 L 79.214844 100.4375 L 76.167969 98.3125 L 75.949219 97.1875 L 79.246094 99.484375 L 81.839844 95.953125 L 82.058594 97.09375 L 79.683594 100.34375 L 82.574219 99.796875 L 82.730469 100.6875 Z M 78.003906 91.070313 L 78.488281 91.007813 L 78.957031 95.085938 C 79.636719 94.972656 80.128906 94.726563 80.441406 94.351563 C 80.746094 93.976563 80.863281 93.5 80.800781 92.914063 C 80.761719 92.582031 80.675781 92.265625 80.550781 91.960938 C 80.417969 91.648438 80.25 91.34375 80.050781 91.039063 L 80.957031 90.929688 C 81.144531 91.242188 81.300781 91.5625 81.425781 91.882813 C 81.542969 92.207031 81.613281 92.535156 81.644531 92.867188 C 81.75 93.734375 81.558594 94.445313 81.066406 95.007813 C 80.566406 95.570313 79.839844 95.910156 78.878906 96.023438 C 77.910156 96.128906 77.113281 95.976563 76.488281 95.570313 C 75.855469 95.164063 75.496094 94.554688 75.410156 93.742188 C 75.316406 93.023438 75.503906 92.425781 75.972656 91.945313 C 76.441406 91.46875 77.121094 91.175781 78.003906 91.070313 Z M 77.816406 91.992188 C 77.285156 92.066406 76.875 92.253906 76.582031 92.554688 C 76.292969 92.847656 76.167969 93.207031 76.207031 93.632813 C 76.269531 94.132813 76.480469 94.519531 76.832031 94.789063 C 77.175781 95.050781 77.625 95.171875 78.175781 95.148438 Z M 77.074219 83.105469 C 77.148438 82.898438 77.308594 82.691406 77.558594 82.480469 C 77.808594 82.273438 78.160156 82.058594 78.605469 81.839844 L 80.761719 80.777344 L 80.792969 81.824219 L 78.761719 82.808594 C 78.242188 83.070313 77.898438 83.316406 77.730469 83.542969 C 77.554688 83.773438 77.476563 84.082031 77.496094 84.464844 L 77.527344 85.527344 L 80.917969 85.417969 L 80.949219 86.402344 L 72.933594 86.667969 L 72.855469 84.464844 C 72.835938 83.632813 73.007813 83.007813 73.371094 82.589844 C 73.738281 82.175781 74.308594 81.957031 75.089844 81.933594 C 75.589844 81.914063 76.011719 82.003906 76.355469 82.199219 C 76.699219 82.398438 76.941406 82.699219 77.074219 83.105469 Z M 73.792969 85.652344 L 76.636719 85.558594 L 76.589844 84.339844 C 76.582031 83.863281 76.449219 83.507813 76.199219 83.277344 C 75.949219 83.039063 75.589844 82.929688 75.121094 82.949219 C 74.652344 82.960938 74.304688 83.089844 74.074219 83.339844 C 73.847656 83.589844 73.738281 83.957031 73.746094 84.433594 Z M 75.398438 77.609375 C 75.410156 78.089844 75.625 78.464844 76.039063 78.734375 C 76.457031 79.007813 77.023438 79.140625 77.742188 79.140625 C 78.460938 79.132813 79.03125 78.984375 79.445313 78.703125 C 79.851563 78.421875 80.050781 78.042969 80.039063 77.5625 C 80.039063 77.085938 79.832031 76.710938 79.414063 76.4375 C 79 76.167969 78.429688 76.039063 77.710938 76.046875 C 76.992188 76.046875 76.429688 76.1875 76.023438 76.46875 C 75.609375 76.75 75.398438 77.132813 75.398438 77.609375 Z M 74.570313 77.625 C 74.570313 76.855469 74.847656 76.246094 75.398438 75.796875 C 75.953125 75.351563 76.722656 75.121094 77.710938 75.109375 C 78.691406 75.101563 79.46875 75.3125 80.039063 75.75 C 80.601563 76.1875 80.882813 76.792969 80.882813 77.5625 C 80.890625 78.34375 80.625 78.960938 80.070313 79.40625 C 79.507813 79.84375 78.738281 80.070313 77.757813 80.078125 C 76.769531 80.089844 75.992188 79.882813 75.429688 79.453125 C 74.867188 79.015625 74.582031 78.40625 74.570313 77.625 Z M 77.640625 71.1875 C 77.652344 71.90625 77.75 72.402344 77.9375 72.671875 C 78.125 72.945313 78.4375 73.078125 78.875 73.078125 C 79.21875 73.078125 79.496094 72.976563 79.703125 72.765625 C 79.914063 72.546875 80.011719 72.261719 80 71.90625 C 80 71.40625 79.804688 71.011719 79.40625 70.71875 C 79.011719 70.429688 78.496094 70.289063 77.859375 70.296875 L 77.625 70.296875 Z M 77.21875 69.40625 L 80.65625 69.375 L 80.65625 70.265625 L 79.75 70.28125 C 80.125 70.480469 80.402344 70.730469 80.578125 71.03125 C 80.742188 71.335938 80.832031 71.703125 80.84375 72.140625 C 80.84375 72.695313 80.679688 73.136719 80.34375 73.46875 C 80 73.804688 79.539063 73.96875 78.953125 73.96875 C 78.277344 73.980469 77.765625 73.78125 77.421875 73.375 C 77.070313 72.96875 76.886719 72.359375 76.875 71.546875 L 76.859375 70.296875 L 76.765625 70.296875 C 76.308594 70.308594 75.960938 70.449219 75.71875 70.71875 C 75.46875 70.992188 75.34375 71.371094 75.34375 71.859375 C 75.355469 72.164063 75.402344 72.464844 75.484375 72.765625 C 75.570313 73.058594 75.695313 73.339844 75.859375 73.609375 L 74.953125 73.609375 C 74.808594 73.289063 74.703125 72.976563 74.640625 72.671875 C 74.570313 72.371094 74.527344 72.074219 74.515625 71.78125 C 74.515625 71 74.742188 70.414063 75.1875 70.015625 C 75.625 69.621094 76.304688 69.417969 77.21875 69.40625 Z M 75.488281 64.03125 L 72.238281 64.0625 L 72.238281 63.171875 L 80.597656 63.09375 L 80.597656 63.984375 L 79.691406 64 C 80.066406 64.179688 80.34375 64.414063 80.519531 64.703125 C 80.683594 64.984375 80.769531 65.324219 80.769531 65.71875 C 80.777344 66.375 80.5 66.914063 79.925781 67.328125 C 79.355469 67.746094 78.59375 67.960938 77.644531 67.96875 C 76.699219 67.980469 75.933594 67.78125 75.347656 67.375 C 74.765625 66.96875 74.46875 66.4375 74.457031 65.78125 C 74.457031 65.386719 74.546875 65.042969 74.722656 64.75 C 74.890625 64.460938 75.144531 64.21875 75.488281 64.03125 Z M 77.628906 67.046875 C 78.359375 67.039063 78.933594 66.898438 79.347656 66.625 C 79.753906 66.355469 79.953125 65.984375 79.941406 65.515625 C 79.941406 65.039063 79.734375 64.667969 79.316406 64.40625 C 78.902344 64.136719 78.328125 64.007813 77.597656 64.015625 C 76.871094 64.015625 76.300781 64.15625 75.894531 64.4375 C 75.488281 64.710938 75.285156 65.085938 75.285156 65.5625 C 75.296875 66.03125 75.511719 66.398438 75.925781 66.65625 C 76.332031 66.917969 76.902344 67.046875 77.628906 67.046875 Z M 77.628906 67.046875 "/>
<path style=" stroke:none;fill-rule:evenodd;fill:rgb(20%,20%,20%);fill-opacity:1;" d="M 66.730469 189.785156 L 67.042969 188.503906 L 74.308594 187.003906 L 67.808594 185.394531 L 68.042969 184.472656 L 75.824219 186.394531 L 75.496094 187.675781 L 68.214844 189.175781 L 74.730469 190.785156 L 74.511719 191.707031 Z M 71.597656 181.234375 C 71.484375 181.695313 71.597656 182.109375 71.941406 182.484375 C 72.285156 182.859375 72.808594 183.132813 73.503906 183.296875 C 74.203125 183.476563 74.78125 183.476563 75.238281 183.296875 C 75.699219 183.121094 75.984375 182.804688 76.097656 182.34375 C 76.210938 181.875 76.105469 181.464844 75.785156 181.109375 C 75.453125 180.746094 74.9375 180.476563 74.238281 180.296875 C 73.542969 180.132813 72.957031 180.132813 72.488281 180.296875 C 72.011719 180.453125 71.714844 180.765625 71.597656 181.234375 Z M 70.785156 181.046875 C 70.972656 180.296875 71.390625 179.773438 72.035156 179.46875 C 72.683594 179.167969 73.488281 179.136719 74.457031 179.375 C 75.40625 179.617188 76.097656 180.015625 76.535156 180.578125 C 76.980469 181.140625 77.113281 181.796875 76.925781 182.546875 C 76.738281 183.296875 76.320313 183.824219 75.675781 184.125 C 75.019531 184.417969 74.21875 184.445313 73.269531 184.203125 C 72.300781 183.964844 71.597656 183.570313 71.160156 183.015625 C 70.722656 182.453125 70.597656 181.796875 70.785156 181.046875 Z M 73.589844 174.410156 C 73.507813 174.496094 73.433594 174.59375 73.371094 174.707031 C 73.308594 174.8125 73.261719 174.925781 73.230469 175.050781 C 73.097656 175.542969 73.175781 175.964844 73.464844 176.316406 C 73.746094 176.671875 74.214844 176.933594 74.871094 177.097656 L 77.933594 177.910156 L 77.714844 178.785156 L 71.902344 177.253906 L 72.121094 176.378906 L 73.027344 176.613281 C 72.726563 176.332031 72.527344 176.03125 72.433594 175.707031 C 72.332031 175.375 72.335938 175.003906 72.449219 174.597656 C 72.460938 174.535156 72.480469 174.46875 72.511719 174.394531 C 72.535156 174.3125 72.566406 174.238281 72.605469 174.175781 Z M 71.566406 171.933594 L 73.207031 172.402344 L 73.722656 170.636719 L 74.457031 170.855469 L 73.941406 172.621094 L 77.082031 173.527344 C 77.550781 173.664063 77.875 173.691406 78.050781 173.605469 C 78.21875 173.523438 78.355469 173.304688 78.457031 172.949219 L 78.707031 172.074219 L 79.503906 172.308594 L 79.253906 173.183594 C 79.054688 173.839844 78.785156 174.257813 78.441406 174.433594 C 78.089844 174.601563 77.550781 174.582031 76.832031 174.371094 L 73.691406 173.464844 L 73.519531 174.105469 L 72.785156 173.886719 L 72.957031 173.246094 L 71.316406 172.777344 Z M 77.597656 165.867188 L 81.082031 166.867188 L 80.832031 167.710938 L 77.378906 166.710938 C 76.828125 166.554688 76.390625 166.539063 76.066406 166.664063 C 75.734375 166.78125 75.511719 167.023438 75.394531 167.398438 C 75.269531 167.867188 75.332031 168.285156 75.582031 168.648438 C 75.832031 169.003906 76.238281 169.257813 76.800781 169.414063 L 80.066406 170.367188 L 79.816406 171.226563 L 71.785156 168.898438 L 72.035156 168.039063 L 75.191406 168.960938 C 74.902344 168.648438 74.714844 168.332031 74.628906 168.007813 C 74.535156 167.675781 74.542969 167.328125 74.644531 166.960938 C 74.824219 166.367188 75.160156 165.976563 75.660156 165.789063 C 76.152344 165.601563 76.796875 165.628906 77.597656 165.867188 Z M 76.839844 154.851563 L 77.949219 155.179688 C 77.535156 155.410156 77.195313 155.679688 76.933594 155.992188 C 76.664063 156.296875 76.472656 156.644531 76.355469 157.039063 C 76.128906 157.832031 76.222656 158.519531 76.636719 159.101563 C 77.042969 159.675781 77.757813 160.113281 78.777344 160.414063 C 79.789063 160.707031 80.628906 160.71875 81.292969 160.445313 C 81.960938 160.175781 82.40625 159.644531 82.636719 158.851563 C 82.75 158.457031 82.777344 158.0625 82.714844 157.664063 C 82.660156 157.257813 82.511719 156.847656 82.261719 156.429688 L 83.355469 156.742188 C 83.511719 157.148438 83.597656 157.554688 83.621094 157.960938 C 83.640625 158.359375 83.59375 158.757813 83.480469 159.164063 C 83.167969 160.21875 82.566406 160.941406 81.683594 161.335938 C 80.789063 161.722656 79.726563 161.738281 78.496094 161.382813 C 77.257813 161.019531 76.367188 160.4375 75.824219 159.632813 C 75.285156 158.832031 75.167969 157.90625 75.480469 156.851563 C 75.597656 156.4375 75.773438 156.066406 76.011719 155.742188 C 76.242188 155.410156 76.519531 155.113281 76.839844 154.851563 Z M 82.023438 150.121094 L 85.523438 151.042969 L 85.289063 151.917969 L 81.820313 150.996094 C 81.257813 150.851563 80.816406 150.839844 80.492188 150.964844 C 80.171875 151.089844 79.960938 151.347656 79.867188 151.730469 C 79.742188 152.199219 79.8125 152.613281 80.070313 152.964844 C 80.320313 153.308594 80.726563 153.554688 81.289063 153.699219 L 84.585938 154.574219 L 84.367188 155.449219 L 76.289063 153.324219 L 76.507813 152.449219 L 79.679688 153.277344 C 79.378906 152.976563 79.179688 152.667969 79.085938 152.355469 C 78.984375 152.035156 78.984375 151.683594 79.085938 151.308594 C 79.242188 150.714844 79.570313 150.320313 80.070313 150.121094 C 80.5625 149.914063 81.210938 149.914063 82.023438 150.121094 Z M 81.269531 145.949219 C 81.167969 146.417969 81.285156 146.839844 81.628906 147.214844 C 81.964844 147.582031 82.480469 147.847656 83.175781 148.011719 C 83.875 148.179688 84.457031 148.179688 84.925781 148.011719 C 85.394531 147.835938 85.683594 147.511719 85.785156 147.042969 C 85.898438 146.585938 85.789063 146.175781 85.457031 145.808594 C 85.113281 145.433594 84.59375 145.164063 83.894531 144.996094 C 83.199219 144.832031 82.613281 144.835938 82.144531 145.011719 C 81.675781 145.179688 81.386719 145.492188 81.269531 145.949219 Z M 80.472656 145.761719 C 80.652344 145.011719 81.0625 144.492188 81.707031 144.199219 C 82.355469 143.898438 83.15625 143.863281 84.113281 144.089844 C 85.074219 144.320313 85.769531 144.714844 86.207031 145.277344 C 86.652344 145.832031 86.789063 146.480469 86.613281 147.230469 C 86.433594 147.992188 86.023438 148.523438 85.378906 148.824219 C 84.722656 149.117188 83.917969 149.148438 82.957031 148.917969 C 82 148.691406 81.300781 148.300781 80.863281 147.746094 C 80.425781 147.183594 80.296875 146.523438 80.472656 145.761719 Z M 82.742188 138.730469 L 79.507813 138.324219 L 79.617188 137.449219 L 87.914063 138.496094 L 87.804688 139.371094 L 86.898438 139.261719 C 87.242188 139.492188 87.480469 139.761719 87.617188 140.074219 C 87.75 140.378906 87.792969 140.722656 87.742188 141.105469 C 87.65625 141.761719 87.304688 142.257813 86.679688 142.589844 C 86.054688 142.925781 85.273438 143.035156 84.335938 142.917969 C 83.390625 142.804688 82.65625 142.507813 82.132813 142.027344 C 81.613281 141.550781 81.394531 140.980469 81.476563 140.324219 C 81.53125 139.941406 81.660156 139.617188 81.867188 139.355469 C 82.078125 139.085938 82.367188 138.878906 82.742188 138.730469 Z M 84.460938 142.011719 C 85.179688 142.105469 85.757813 142.050781 86.195313 141.839844 C 86.632813 141.621094 86.882813 141.277344 86.945313 140.808594 C 87 140.339844 86.84375 139.945313 86.476563 139.621094 C 86.101563 139.300781 85.554688 139.089844 84.835938 138.996094 C 84.109375 138.902344 83.523438 138.964844 83.085938 139.183594 C 82.640625 139.402344 82.390625 139.746094 82.335938 140.214844 C 82.273438 140.683594 82.429688 141.082031 82.804688 141.402344 C 83.179688 141.714844 83.734375 141.917969 84.460938 142.011719 Z M 82.109375 136.019531 L 82.1875 135.128906 L 88.1875 135.582031 L 88.109375 136.472656 Z M 79.78125 135.847656 L 79.859375 134.957031 L 81.09375 135.050781 L 81.015625 135.941406 Z M 79.886719 133.523438 L 79.886719 132.617188 L 84.824219 132.570313 L 82.199219 129.929688 L 82.199219 128.789063 L 85.027344 131.648438 L 88.214844 128.632813 L 88.214844 129.789063 L 85.308594 132.570313 L 88.246094 132.539063 L 88.246094 133.445313 Z M 84.375 123.023438 L 84.859375 122.976563 L 85.28125 127.054688 C 85.960938 126.953125 86.453125 126.71875 86.765625 126.351563 C 87.078125 125.976563 87.210938 125.5 87.15625 124.914063 C 87.117188 124.570313 87.03125 124.25 86.90625 123.945313 C 86.78125 123.632813 86.617188 123.328125 86.40625 123.023438 L 87.328125 122.929688 C 87.515625 123.242188 87.667969 123.5625 87.78125 123.882813 C 87.886719 124.195313 87.960938 124.523438 88 124.867188 C 88.085938 125.734375 87.875 126.445313 87.375 127.007813 C 86.875 127.5625 86.148438 127.882813 85.1875 127.976563 C 84.21875 128.082031 83.421875 127.929688 82.796875 127.523438 C 82.171875 127.109375 81.820313 126.492188 81.734375 125.679688 C 81.664063 124.953125 81.867188 124.351563 82.34375 123.882813 C 82.8125 123.40625 83.492188 123.117188 84.375 123.023438 Z M 84.171875 123.945313 C 83.632813 124.019531 83.214844 124.203125 82.921875 124.492188 C 82.632813 124.773438 82.511719 125.132813 82.5625 125.570313 C 82.617188 126.070313 82.8125 126.457031 83.15625 126.726563 C 83.492188 127 83.9375 127.125 84.5 127.101563 Z M 83.351563 116.960938 L 83.835938 116.882813 L 84.554688 120.914063 C 85.210938 120.769531 85.6875 120.5 85.976563 120.101563 C 86.269531 119.707031 86.363281 119.222656 86.257813 118.648438 C 86.195313 118.316406 86.09375 118.003906 85.945313 117.710938 C 85.789063 117.410156 85.597656 117.113281 85.367188 116.820313 L 86.273438 116.648438 C 86.484375 116.953125 86.660156 117.257813 86.804688 117.570313 C 86.941406 117.882813 87.035156 118.207031 87.085938 118.539063 C 87.242188 119.394531 87.09375 120.125 86.632813 120.726563 C 86.164063 121.320313 85.460938 121.703125 84.523438 121.867188 C 83.554688 122.03125 82.75 121.933594 82.101563 121.570313 C 81.445313 121.195313 81.046875 120.609375 80.898438 119.804688 C 80.773438 119.085938 80.9375 118.472656 81.382813 117.960938 C 81.820313 117.453125 82.476563 117.117188 83.351563 116.960938 Z M 83.210938 117.914063 C 82.679688 118.019531 82.28125 118.226563 82.007813 118.539063 C 81.738281 118.851563 81.640625 119.222656 81.710938 119.648438 C 81.796875 120.140625 82.019531 120.507813 82.382813 120.757813 C 82.75 121 83.207031 121.085938 83.757813 121.023438 Z M 77.628906 113.582031 L 77.394531 112.628906 L 84.300781 110.910156 L 83.457031 107.488281 L 84.332031 107.269531 L 85.410156 111.644531 Z M 80.566406 104.664063 C 80.734375 105.363281 80.941406 105.828125 81.191406 106.054688 C 81.441406 106.273438 81.777344 106.332031 82.191406 106.226563 C 82.527344 106.144531 82.769531 105.976563 82.925781 105.726563 C 83.074219 105.46875 83.105469 105.164063 83.019531 104.820313 C 82.90625 104.332031 82.625 103.992188 82.175781 103.804688 C 81.71875 103.609375 81.183594 103.585938 80.566406 103.742188 L 80.347656 103.804688 Z M 79.722656 103.039063 L 83.066406 102.210938 L 83.285156 103.070313 L 82.410156 103.289063 C 82.816406 103.40625 83.140625 103.59375 83.378906 103.851563 C 83.621094 104.101563 83.792969 104.441406 83.894531 104.867188 C 84.03125 105.398438 83.972656 105.863281 83.722656 106.257813 C 83.464844 106.65625 83.046875 106.925781 82.472656 107.070313 C 81.816406 107.234375 81.277344 107.164063 80.847656 106.851563 C 80.410156 106.539063 80.09375 105.992188 79.894531 105.210938 L 79.597656 103.992188 L 79.503906 104.007813 C 79.066406 104.125 78.761719 104.34375 78.582031 104.664063 C 78.40625 104.988281 78.375 105.382813 78.488281 105.851563 C 78.5625 106.144531 78.675781 106.425781 78.832031 106.695313 C 78.988281 106.96875 79.175781 107.210938 79.394531 107.429688 L 78.519531 107.648438 C 78.292969 107.367188 78.109375 107.09375 77.972656 106.820313 C 77.839844 106.539063 77.734375 106.253906 77.660156 105.960938 C 77.472656 105.210938 77.550781 104.59375 77.894531 104.101563 C 78.230469 103.613281 78.839844 103.257813 79.722656 103.039063 Z M 74.511719 102.25 L 74.355469 101.359375 L 79.214844 100.4375 L 76.167969 98.3125 L 75.949219 97.1875 L 79.246094 99.484375 L 81.839844 95.953125 L 82.058594 97.09375 L 79.683594 100.34375 L 82.574219 99.796875 L 82.730469 100.6875 Z M 78.003906 91.070313 L 78.488281 91.007813 L 78.957031 95.085938 C 79.636719 94.972656 80.128906 94.726563 80.441406 94.351563 C 80.746094 93.976563 80.863281 93.5 80.800781 92.914063 C 80.761719 92.582031 80.675781 92.265625 80.550781 91.960938 C 80.417969 91.648438 80.25 91.34375 80.050781 91.039063 L 80.957031 90.929688 C 81.144531 91.242188 81.300781 91.5625 81.425781 91.882813 C 81.542969 92.207031 81.613281 92.535156 81.644531 92.867188 C 81.75 93.734375 81.558594 94.445313 81.066406 95.007813 C 80.566406 95.570313 79.839844 95.910156 78.878906 96.023438 C 77.910156 96.128906 77.113281 95.976563 76.488281 95.570313 C 75.855469 95.164063 75.496094 94.554688 75.410156 93.742188 C 75.316406 93.023438 75.503906 92.425781 75.972656 91.945313 C 76.441406 91.46875 77.121094 91.175781 78.003906 91.070313 Z M 77.816406 91.992188 C 77.285156 92.066406 76.875 92.253906 76.582031 92.554688 C 76.292969 92.847656 76.167969 93.207031 76.207031 93.632813 C 76.269531 94.132813 76.480469 94.519531 76.832031 94.789063 C 77.175781 95.050781 77.625 95.171875 78.175781 95.148438 Z M 77.074219 83.105469 C 77.148438 82.898438 77.308594 82.691406 77.558594 82.480469 C 77.808594 82.273438 78.160156 82.058594 78.605469 81.839844 L 80.761719 80.777344 L 80.792969 81.824219 L 78.761719 82.808594 C 78.242188 83.070313 77.898438 83.316406 77.730469 83.542969 C 77.554688 83.773438 77.476563 84.082031 77.496094 84.464844 L 77.527344 85.527344 L 80.917969 85.417969 L 80.949219 86.402344 L 72.933594 86.667969 L 72.855469 84.464844 C 72.835938 83.632813 73.007813 83.007813 73.371094 82.589844 C 73.738281 82.175781 74.308594 81.957031 75.089844 81.933594 C 75.589844 81.914063 76.011719 82.003906 76.355469 82.199219 C 76.699219 82.398438 76.941406 82.699219 77.074219 83.105469 Z M 73.792969 85.652344 L 76.636719 85.558594 L 76.589844 84.339844 C 76.582031 83.863281 76.449219 83.507813 76.199219 83.277344 C 75.949219 83.039063 75.589844 82.929688 75.121094 82.949219 C 74.652344 82.960938 74.304688 83.089844 74.074219 83.339844 C 73.847656 83.589844 73.738281 83.957031 73.746094 84.433594 Z M 75.398438 77.609375 C 75.410156 78.089844 75.625 78.464844 76.039063 78.734375 C 76.457031 79.007813 77.023438 79.140625 77.742188 79.140625 C 78.460938 79.132813 79.03125 78.984375 79.445313 78.703125 C 79.851563 78.421875 80.050781 78.042969 80.039063 77.5625 C 80.039063 77.085938 79.832031 76.710938 79.414063 76.4375 C 79 76.167969 78.429688 76.039063 77.710938 76.046875 C 76.992188 76.046875 76.429688 76.1875 76.023438 76.46875 C 75.609375 76.75 75.398438 77.132813 75.398438 77.609375 Z M 74.570313 77.625 C 74.570313 76.855469 74.847656 76.246094 75.398438 75.796875 C 75.953125 75.351563 76.722656 75.121094 77.710938 75.109375 C 78.691406 75.101563 79.46875 75.3125 80.039063 75.75 C 80.601563 76.1875 80.882813 76.792969 80.882813 77.5625 C 80.890625 78.34375 80.625 78.960938 80.070313 79.40625 C 79.507813 79.84375 78.738281 80.070313 77.757813 80.078125 C 76.769531 80.089844 75.992188 79.882813 75.429688 79.453125 C 74.867188 79.015625 74.582031 78.40625 74.570313 77.625 Z M 77.640625 71.1875 C 77.652344 71.90625 77.75 72.402344 77.9375 72.671875 C 78.125 72.945313 78.4375 73.078125 78.875 73.078125 C 79.21875 73.078125 79.496094 72.976563 79.703125 72.765625 C 79.914063 72.546875 80.011719 72.261719 80 71.90625 C 80 71.40625 79.804688 71.011719 79.40625 70.71875 C 79.011719 70.429688 78.496094 70.289063 77.859375 70.296875 L 77.625 70.296875 Z M 77.21875 69.40625 L 80.65625 69.375 L 80.65625 70.265625 L 79.75 70.28125 C 80.125 70.480469 80.402344 70.730469 80.578125 71.03125 C 80.742188 71.335938 80.832031 71.703125 80.84375 72.140625 C 80.84375 72.695313 80.679688 73.136719 80.34375 73.46875 C 80 73.804688 79.539063 73.96875 78.953125 73.96875 C 78.277344 73.980469 77.765625 73.78125 77.421875 73.375 C 77.070313 72.96875 76.886719 72.359375 76.875 71.546875 L 76.859375 70.296875 L 76.765625 70.296875 C 76.308594 70.308594 75.960938 70.449219 75.71875 70.71875 C 75.46875 70.992188 75.34375 71.371094 75.34375 71.859375 C 75.355469 72.164063 75.402344 72.464844 75.484375 72.765625 C 75.570313 73.058594 75.695313 73.339844 75.859375 73.609375 L 74.953125 73.609375 C 74.808594 73.289063 74.703125 72.976563 74.640625 72.671875 C 74.570313 72.371094 74.527344 72.074219 74.515625 71.78125 C 74.515625 71 74.742188 70.414063 75.1875 70.015625 C 75.625 69.621094 76.304688 69.417969 77.21875 69.40625 Z M 75.488281 64.03125 L 72.238281 64.0625 L 72.238281 63.171875 L 80.597656 63.09375 L 80.597656 63.984375 L 79.691406 64 C 80.066406 64.179688 80.34375 64.414063 80.519531 64.703125 C 80.683594 64.984375 80.769531 65.324219 80.769531 65.71875 C 80.777344 66.375 80.5 66.914063 79.925781 67.328125 C 79.355469 67.746094 78.59375 67.960938 77.644531 67.96875 C 76.699219 67.980469 75.933594 67.78125 75.347656 67.375 C 74.765625 66.96875 74.46875 66.4375 74.457031 65.78125 C 74.457031 65.386719 74.546875 65.042969 74.722656 64.75 C 74.890625 64.460938 75.144531 64.21875 75.488281 64.03125 Z M 77.628906 67.046875 C 78.359375 67.039063 78.933594 66.898438 79.347656 66.625 C 79.753906 66.355469 79.953125 65.984375 79.941406 65.515625 C 79.941406 65.039063 79.734375 64.667969 79.316406 64.40625 C 78.902344 64.136719 78.328125 64.007813 77.597656 64.015625 C 76.871094 64.015625 76.300781 64.15625 75.894531 64.4375 C 75.488281 64.710938 75.285156 65.085938 75.285156 65.5625 C 75.296875 66.03125 75.511719 66.398438 75.925781 66.65625 C 76.332031 66.917969 76.902344 67.046875 77.628906 67.046875 Z M 77.628906 67.046875 "/>
<path style="fill:none;stroke-width:3;stroke-linecap:round;stroke-linejoin:round;stroke:rgb(100%,100%,100%);stroke-opacity:1;stroke-miterlimit:10;" d="M 182.285156 218.140625 L 185.160156 218.765625 L 185.488281 217.234375 C 185.605469 216.726563 185.574219 216.320313 185.394531 216.015625 C 185.207031 215.714844 184.871094 215.511719 184.378906 215.40625 C 183.890625 215.304688 183.503906 215.351563 183.222656 215.546875 C 182.933594 215.746094 182.730469 216.101563 182.613281 216.609375 Z M 179.066406 217.453125 L 181.441406 217.96875 L 181.753906 216.5625 C 181.847656 216.09375 181.824219 215.726563 181.675781 215.453125 C 181.53125 215.171875 181.253906 214.992188 180.847656 214.90625 C 180.453125 214.824219 180.136719 214.875 179.894531 215.0625 C 179.644531 215.25 179.472656 215.578125 179.378906 216.046875 Z M 177.988281 218.21875 L 178.519531 215.78125 C 178.675781 215.0625 178.96875 214.542969 179.394531 214.21875 C 179.8125 213.886719 180.332031 213.789063 180.957031 213.921875 C 181.4375 214.027344 181.796875 214.210938 182.035156 214.46875 C 182.265625 214.730469 182.375 215.070313 182.363281 215.484375 C 182.574219 215.039063 182.886719 214.726563 183.300781 214.546875 C 183.707031 214.359375 184.175781 214.324219 184.707031 214.4375 C 185.417969 214.585938 185.910156 214.914063 186.191406 215.421875 C 186.480469 215.933594 186.542969 216.585938 186.378906 217.375 L 185.832031 219.90625 Z M 179.089844 211.527344 L 179.277344 210.667969 L 187.449219 212.433594 L 187.261719 213.292969 Z M 185.386719 207.570313 C 185.230469 208.269531 185.222656 208.773438 185.355469 209.085938 C 185.480469 209.398438 185.757813 209.601563 186.183594 209.695313 C 186.519531 209.769531 186.808594 209.726563 187.058594 209.570313 C 187.300781 209.40625 187.460938 209.148438 187.542969 208.804688 C 187.644531 208.316406 187.542969 207.882813 187.230469 207.507813 C 186.910156 207.132813 186.433594 206.878906 185.808594 206.742188 L 185.574219 206.695313 Z M 185.371094 205.742188 L 188.730469 206.460938 L 188.542969 207.335938 L 187.652344 207.148438 C 187.964844 207.429688 188.171875 207.738281 188.277344 208.070313 C 188.378906 208.394531 188.386719 208.769531 188.292969 209.195313 C 188.175781 209.738281 187.917969 210.132813 187.511719 210.382813 C 187.105469 210.632813 186.621094 210.695313 186.058594 210.570313 C 185.394531 210.4375 184.933594 210.132813 184.683594 209.664063 C 184.425781 209.195313 184.382813 208.5625 184.558594 207.757813 L 184.824219 206.539063 L 184.746094 206.523438 C 184.300781 206.421875 183.925781 206.476563 183.621094 206.695313 C 183.320313 206.90625 183.117188 207.25 183.011719 207.726563 C 182.949219 208.019531 182.929688 208.320313 182.949219 208.632813 C 182.960938 208.945313 183.019531 209.25 183.121094 209.539063 L 182.230469 209.351563 C 182.167969 209 182.136719 208.664063 182.136719 208.351563 C 182.128906 208.039063 182.152344 207.742188 182.214844 207.460938 C 182.382813 206.703125 182.726563 206.175781 183.246094 205.882813 C 183.769531 205.59375 184.476563 205.546875 185.371094 205.742188 Z M 184.273438 199.660156 L 185.179688 199.863281 C 184.972656 200.0625 184.804688 200.277344 184.679688 200.503906 C 184.554688 200.734375 184.46875 200.980469 184.414063 201.238281 C 184.289063 201.800781 184.394531 202.285156 184.726563 202.691406 C 185.050781 203.089844 185.570313 203.363281 186.289063 203.519531 C 187.007813 203.667969 187.601563 203.628906 188.070313 203.410156 C 188.53125 203.183594 188.820313 202.785156 188.945313 202.222656 C 188.996094 201.964844 189.011719 201.703125 188.992188 201.441406 C 188.96875 201.183594 188.914063 200.917969 188.820313 200.644531 L 189.695313 200.832031 C 189.777344 201.105469 189.820313 201.375 189.820313 201.644531 C 189.828125 201.917969 189.804688 202.199219 189.742188 202.488281 C 189.574219 203.292969 189.164063 203.871094 188.507813 204.222656 C 187.84375 204.566406 187.035156 204.640625 186.085938 204.441406 C 185.128906 204.234375 184.429688 203.832031 183.992188 203.238281 C 183.546875 202.644531 183.410156 201.9375 183.585938 201.113281 C 183.640625 200.84375 183.726563 200.589844 183.851563 200.347656 C 183.96875 200.097656 184.109375 199.871094 184.273438 199.660156 Z M 182.074219 197.640625 L 182.261719 196.765625 L 187.089844 197.8125 L 185.121094 194.65625 L 185.355469 193.546875 L 187.511719 196.953125 L 191.261719 194.703125 L 191.011719 195.84375 L 187.558594 197.90625 L 190.433594 198.53125 L 190.246094 199.40625 Z M 186.675781 183.664063 L 187.769531 184.007813 C 187.34375 184.226563 186.996094 184.488281 186.722656 184.789063 C 186.453125 185.09375 186.253906 185.441406 186.128906 185.835938 C 185.890625 186.628906 185.96875 187.320313 186.363281 187.914063 C 186.761719 188.5 187.46875 188.945313 188.488281 189.257813 C 189.488281 189.582031 190.328125 189.617188 191.003906 189.367188 C 191.671875 189.109375 192.121094 188.582031 192.363281 187.789063 C 192.488281 187.394531 192.523438 186.992188 192.472656 186.585938 C 192.429688 186.179688 192.292969 185.773438 192.066406 185.367188 L 193.144531 185.695313 C 193.289063 186.101563 193.367188 186.507813 193.378906 186.914063 C 193.386719 187.3125 193.332031 187.710938 193.207031 188.117188 C 192.882813 189.160156 192.273438 189.867188 191.378906 190.242188 C 190.472656 190.617188 189.410156 190.613281 188.191406 190.226563 C 186.953125 189.84375 186.074219 189.242188 185.550781 188.429688 C 185.03125 187.609375 184.933594 186.675781 185.253906 185.632813 C 185.390625 185.21875 185.578125 184.847656 185.816406 184.523438 C 186.046875 184.191406 186.332031 183.90625 186.675781 183.664063 Z M 190.292969 179.960938 C 190.199219 180.035156 190.121094 180.128906 190.058594 180.242188 C 189.988281 180.347656 189.929688 180.460938 189.886719 180.585938 C 189.730469 181.078125 189.789063 181.503906 190.058594 181.867188 C 190.320313 182.234375 190.773438 182.519531 191.417969 182.726563 L 194.433594 183.695313 L 194.152344 184.554688 L 188.417969 182.710938 L 188.699219 181.851563 L 189.605469 182.148438 C 189.316406 181.847656 189.132813 181.53125 189.058594 181.195313 C 188.976563 180.863281 189.003906 180.492188 189.136719 180.085938 C 189.148438 180.023438 189.167969 179.957031 189.199219 179.882813 C 189.230469 179.8125 189.273438 179.734375 189.324219 179.648438 Z M 193.738281 175.234375 L 194.191406 175.390625 L 192.941406 179.296875 C 193.597656 179.464844 194.152344 179.445313 194.597656 179.234375 C 195.035156 179.027344 195.339844 178.640625 195.519531 178.078125 C 195.621094 177.757813 195.675781 177.429688 195.675781 177.09375 C 195.683594 176.761719 195.660156 176.414063 195.597656 176.046875 L 196.472656 176.328125 C 196.511719 176.683594 196.523438 177.03125 196.503906 177.375 C 196.480469 177.71875 196.417969 178.054688 196.316406 178.375 C 196.042969 179.199219 195.570313 179.765625 194.894531 180.078125 C 194.207031 180.390625 193.40625 180.402344 192.488281 180.109375 C 191.5625 179.808594 190.894531 179.34375 190.488281 178.71875 C 190.082031 178.085938 190.003906 177.382813 190.253906 176.609375 C 190.472656 175.914063 190.894531 175.445313 191.519531 175.203125 C 192.144531 174.953125 192.886719 174.964844 193.738281 175.234375 Z M 193.175781 176 C 192.65625 175.84375 192.203125 175.84375 191.816406 176 C 191.433594 176.148438 191.171875 176.429688 191.035156 176.84375 C 190.878906 177.324219 190.90625 177.757813 191.113281 178.140625 C 191.324219 178.515625 191.6875 178.8125 192.207031 179.03125 Z M 195.601563 169.433594 L 196.054688 169.589844 L 194.804688 173.496094 C 195.460938 173.664063 196.015625 173.644531 196.460938 173.433594 C 196.898438 173.226563 197.203125 172.839844 197.382813 172.277344 C 197.484375 171.957031 197.539063 171.628906 197.539063 171.292969 C 197.546875 170.960938 197.523438 170.613281 197.460938 170.246094 L 198.335938 170.527344 C 198.375 170.882813 198.386719 171.230469 198.367188 171.574219 C 198.34375 171.917969 198.28125 172.253906 198.179688 172.574219 C 197.90625 173.398438 197.433594 173.964844 196.757813 174.277344 C 196.070313 174.589844 195.269531 174.601563 194.351563 174.308594 C 193.425781 174.007813 192.757813 173.542969 192.351563 172.917969 C 191.945313 172.285156 191.867188 171.582031 192.117188 170.808594 C 192.335938 170.113281 192.757813 169.644531 193.382813 169.402344 C 194.007813 169.152344 194.75 169.164063 195.601563 169.433594 Z M 195.039063 170.199219 C 194.519531 170.042969 194.066406 170.042969 193.679688 170.199219 C 193.296875 170.347656 193.035156 170.628906 192.898438 171.042969 C 192.742188 171.523438 192.769531 171.957031 192.976563 172.339844 C 193.1875 172.714844 193.550781 173.011719 194.070313 173.230469 Z M 191.167969 166.519531 L 191.449219 165.660156 L 196.136719 167.175781 L 194.480469 163.847656 L 194.824219 162.753906 L 196.636719 166.347656 L 200.605469 164.488281 L 200.246094 165.597656 L 196.605469 167.332031 L 199.402344 168.222656 L 199.121094 169.082031 Z M 191.167969 166.519531 "/>
<path style=" stroke:none;fill-rule:evenodd;fill:rgb(41.960784%,58.039216%,69.019608%);fill-opacity:1;" d="M 182.285156 218.140625 L 185.160156 218.765625 L 185.488281 217.234375 C 185.605469 216.726563 185.574219 216.320313 185.394531 216.015625 C 185.207031 215.714844 184.871094 215.511719 184.378906 215.40625 C 183.890625 215.304688 183.503906 215.351563 183.222656 215.546875 C 182.933594 215.746094 182.730469 216.101563 182.613281 216.609375 Z M 179.066406 217.453125 L 181.441406 217.96875 L 181.753906 216.5625 C 181.847656 216.09375 181.824219 215.726563 181.675781 215.453125 C 181.53125 215.171875 181.253906 214.992188 180.847656 214.90625 C 180.453125 214.824219 180.136719 214.875 179.894531 215.0625 C 179.644531 215.25 179.472656 215.578125 179.378906 216.046875 Z M 177.988281 218.21875 L 178.519531 215.78125 C 178.675781 215.0625 178.96875 214.542969 179.394531 214.21875 C 179.8125 213.886719 180.332031 213.789063 180.957031 213.921875 C 181.4375 214.027344 181.796875 214.210938 182.035156 214.46875 C 182.265625 214.730469 182.375 215.070313 182.363281 215.484375 C 182.574219 215.039063 182.886719 214.726563 183.300781 214.546875 C 183.707031 214.359375 184.175781 214.324219 184.707031 214.4375 C 185.417969 214.585938 185.910156 214.914063 186.191406 215.421875 C 186.480469 215.933594 186.542969 216.585938 186.378906 217.375 L 185.832031 219.90625 Z M 179.089844 211.527344 L 179.277344 210.667969 L 187.449219 212.433594 L 187.261719 213.292969 Z M 185.386719 207.570313 C 185.230469 208.269531 185.222656 208.773438 185.355469 209.085938 C 185.480469 209.398438 185.757813 209.601563 186.183594 209.695313 C 186.519531 209.769531 186.808594 209.726563 187.058594 209.570313 C 187.300781 209.40625 187.460938 209.148438 187.542969 208.804688 C 187.644531 208.316406 187.542969 207.882813 187.230469 207.507813 C 186.910156 207.132813 186.433594 206.878906 185.808594 206.742188 L 185.574219 206.695313 Z M 185.371094 205.742188 L 188.730469 206.460938 L 188.542969 207.335938 L 187.652344 207.148438 C 187.964844 207.429688 188.171875 207.738281 188.277344 208.070313 C 188.378906 208.394531 188.386719 208.769531 188.292969 209.195313 C 188.175781 209.738281 187.917969 210.132813 187.511719 210.382813 C 187.105469 210.632813 186.621094 210.695313 186.058594 210.570313 C 185.394531 210.4375 184.933594 210.132813 184.683594 209.664063 C 184.425781 209.195313 184.382813 208.5625 184.558594 207.757813 L 184.824219 206.539063 L 184.746094 206.523438 C 184.300781 206.421875 183.925781 206.476563 183.621094 206.695313 C 183.320313 206.90625 183.117188 207.25 183.011719 207.726563 C 182.949219 208.019531 182.929688 208.320313 182.949219 208.632813 C 182.960938 208.945313 183.019531 209.25 183.121094 209.539063 L 182.230469 209.351563 C 182.167969 209 182.136719 208.664063 182.136719 208.351563 C 182.128906 208.039063 182.152344 207.742188 182.214844 207.460938 C 182.382813 206.703125 182.726563 206.175781 183.246094 205.882813 C 183.769531 205.59375 184.476563 205.546875 185.371094 205.742188 Z M 184.273438 199.660156 L 185.179688 199.863281 C 184.972656 200.0625 184.804688 200.277344 184.679688 200.503906 C 184.554688 200.734375 184.46875 200.980469 184.414063 201.238281 C 184.289063 201.800781 184.394531 202.285156 184.726563 202.691406 C 185.050781 203.089844 185.570313 203.363281 186.289063 203.519531 C 187.007813 203.667969 187.601563 203.628906 188.070313 203.410156 C 188.53125 203.183594 188.820313 202.785156 188.945313 202.222656 C 188.996094 201.964844 189.011719 201.703125 188.992188 201.441406 C 188.96875 201.183594 188.914063 200.917969 188.820313 200.644531 L 189.695313 200.832031 C 189.777344 201.105469 189.820313 201.375 189.820313 201.644531 C 189.828125 201.917969 189.804688 202.199219 189.742188 202.488281 C 189.574219 203.292969 189.164063 203.871094 188.507813 204.222656 C 187.84375 204.566406 187.035156 204.640625 186.085938 204.441406 C 185.128906 204.234375 184.429688 203.832031 183.992188 203.238281 C 183.546875 202.644531 183.410156 201.9375 183.585938 201.113281 C 183.640625 200.84375 183.726563 200.589844 183.851563 200.347656 C 183.96875 200.097656 184.109375 199.871094 184.273438 199.660156 Z M 182.074219 197.640625 L 182.261719 196.765625 L 187.089844 197.8125 L 185.121094 194.65625 L 185.355469 193.546875 L 187.511719 196.953125 L 191.261719 194.703125 L 191.011719 195.84375 L 187.558594 197.90625 L 190.433594 198.53125 L 190.246094 199.40625 Z M 186.675781 183.664063 L 187.769531 184.007813 C 187.34375 184.226563 186.996094 184.488281 186.722656 184.789063 C 186.453125 185.09375 186.253906 185.441406 186.128906 185.835938 C 185.890625 186.628906 185.96875 187.320313 186.363281 187.914063 C 186.761719 188.5 187.46875 188.945313 188.488281 189.257813 C 189.488281 189.582031 190.328125 189.617188 191.003906 189.367188 C 191.671875 189.109375 192.121094 188.582031 192.363281 187.789063 C 192.488281 187.394531 192.523438 186.992188 192.472656 186.585938 C 192.429688 186.179688 192.292969 185.773438 192.066406 185.367188 L 193.144531 185.695313 C 193.289063 186.101563 193.367188 186.507813 193.378906 186.914063 C 193.386719 187.3125 193.332031 187.710938 193.207031 188.117188 C 192.882813 189.160156 192.273438 189.867188 191.378906 190.242188 C 190.472656 190.617188 189.410156 190.613281 188.191406 190.226563 C 186.953125 189.84375 186.074219 189.242188 185.550781 188.429688 C 185.03125 187.609375 184.933594 186.675781 185.253906 185.632813 C 185.390625 185.21875 185.578125 184.847656 185.816406 184.523438 C 186.046875 184.191406 186.332031 183.90625 186.675781 183.664063 Z M 190.292969 179.960938 C 190.199219 180.035156 190.121094 180.128906 190.058594 180.242188 C 189.988281 180.347656 189.929688 180.460938 189.886719 180.585938 C 189.730469 181.078125 189.789063 181.503906 190.058594 181.867188 C 190.320313 182.234375 190.773438 182.519531 191.417969 182.726563 L 194.433594 183.695313 L 194.152344 184.554688 L 188.417969 182.710938 L 188.699219 181.851563 L 189.605469 182.148438 C 189.316406 181.847656 189.132813 181.53125 189.058594 181.195313 C 188.976563 180.863281 189.003906 180.492188 189.136719 180.085938 C 189.148438 180.023438 189.167969 179.957031 189.199219 179.882813 C 189.230469 179.8125 189.273438 179.734375 189.324219 179.648438 Z M 193.738281 175.234375 L 194.191406 175.390625 L 192.941406 179.296875 C 193.597656 179.464844 194.152344 179.445313 194.597656 179.234375 C 195.035156 179.027344 195.339844 178.640625 195.519531 178.078125 C 195.621094 177.757813 195.675781 177.429688 195.675781 177.09375 C 195.683594 176.761719 195.660156 176.414063 195.597656 176.046875 L 196.472656 176.328125 C 196.511719 176.683594 196.523438 177.03125 196.503906 177.375 C 196.480469 177.71875 196.417969 178.054688 196.316406 178.375 C 196.042969 179.199219 195.570313 179.765625 194.894531 180.078125 C 194.207031 180.390625 193.40625 180.402344 192.488281 180.109375 C 191.5625 179.808594 190.894531 179.34375 190.488281 178.71875 C 190.082031 178.085938 190.003906 177.382813 190.253906 176.609375 C 190.472656 175.914063 190.894531 175.445313 191.519531 175.203125 C 192.144531 174.953125 192.886719 174.964844 193.738281 175.234375 Z M 193.175781 176 C 192.65625 175.84375 192.203125 175.84375 191.816406 176 C 191.433594 176.148438 191.171875 176.429688 191.035156 176.84375 C 190.878906 177.324219 190.90625 177.757813 191.113281 178.140625 C 191.324219 178.515625 191.6875 178.8125 192.207031 179.03125 Z M 195.601563 169.433594 L 196.054688 169.589844 L 194.804688 173.496094 C 195.460938 173.664063 196.015625 173.644531 196.460938 173.433594 C 196.898438 173.226563 197.203125 172.839844 197.382813 172.277344 C 197.484375 171.957031 197.539063 171.628906 197.539063 171.292969 C 197.546875 170.960938 197.523438 170.613281 197.460938 170.246094 L 198.335938 170.527344 C 198.375 170.882813 198.386719 171.230469 198.367188 171.574219 C 198.34375 171.917969 198.28125 172.253906 198.179688 172.574219 C 197.90625 173.398438 197.433594 173.964844 196.757813 174.277344 C 196.070313 174.589844 195.269531 174.601563 194.351563 174.308594 C 193.425781 174.007813 192.757813 173.542969 192.351563 172.917969 C 191.945313 172.285156 191.867188 171.582031 192.117188 170.808594 C 192.335938 170.113281 192.757813 169.644531 193.382813 169.402344 C 194.007813 169.152344 194.75 169.164063 195.601563 169.433594 Z M 195.039063 170.199219 C 194.519531 170.042969 194.066406 170.042969 193.679688 170.199219 C 193.296875 170.347656 193.035156 170.628906 192.898438 171.042969 C 192.742188 171.523438 192.769531 171.957031 192.976563 172.339844 C 193.1875 172.714844 193.550781 173.011719 194.070313 173.230469 Z M 191.167969 166.519531 L 191.449219 165.660156 L 196.136719 167.175781 L 194.480469 163.847656 L 194.824219 162.753906 L 196.636719 166.347656 L 200.605469 164.488281 L 200.246094 165.597656 L 196.605469 167.332031 L 199.402344 168.222656 L 199.121094 169.082031 Z M 191.167969 166.519531 "/>
</g>
</svg>

