<?xml version="1.0" encoding="UTF-8"?>
<svg xmlns="http://www.w3.org/2000/svg" xmlns:xlink="http://www.w3.org/1999/xlink" width="256pt" height="256pt" viewBox="0 0 256 256" version="1.1">
<g id="surface2">
<rect x="0" y="0" width="256" height="256" style="fill:rgb(94.901961%,93.72549%,91.372549%);fill-opacity:1;stroke:none;"/>
<path style="fill:none;stroke-width:1;stroke-linecap:round;stroke-linejoin:round;stroke:rgb(100%,100%,100%);stroke-opacity:1;stroke-dasharray:2,3;stroke-miterlimit:10;" d="M 225.277344 257 L 224.359375 255.019531 L 224.195313 253.628906 L 229.066406 238.648438 L 229.136719 235.480469 L 228.4375 233.667969 L 221.914063 227.066406 L 216.902344 223.476563 L 215.320313 221.277344 L 210.679688 213.285156 L 207.675781 209.535156 L 202.992188 199.667969 L 202.710938 191.320313 L 202.152344 186.46875 L 201.851563 169.773438 L 201.335938 168.609375 L 198.566406 164.984375 L 196.816406 163.140625 L 191.738281 156.800781 L 189.617188 153.210938 L 186.820313 149.652344 L 183.746094 144.992188 L 181.066406 139.554688 L 180.527344 137.84375 L 180.527344 132.601563 L 177.570313 123.476563 L 175.03125 119.886719 L 169.949219 115.453125 L 167.039063 110.601563 L 166.617188 108.886719 L 164.800781 80.578125 L 164.03125 75.757813 L 161.980469 71.421875 L 158.976563 65.921875 L 158.671875 64.789063 L 159 58.125 L 164.335938 41.300781 L 170.460938 29.132813 L 171.230469 26.902344 L 171.394531 23.796875 L 167.386719 5.710938 L 166.941406 -2 "/>
<path style="fill:none;stroke-width:3;stroke-linecap:round;stroke-linejoin:round;stroke:rgb(100%,100%,100%);stroke-opacity:1;stroke-miterlimit:10;" d="M 168.941406 98.964844 L 164.863281 97.902344 L 165.035156 100.542969 Z M 169.972656 98.339844 L 170.035156 99.433594 L 162.207031 102.699219 L 162.144531 101.683594 L 164.175781 100.902344 L 163.957031 97.667969 L 161.863281 97.136719 L 161.785156 96.105469 Z M 167.59375 106.9375 L 170.84375 106.734375 L 170.90625 107.625 L 162.5625 108.15625 L 162.5 107.265625 L 163.40625 107.203125 C 163.03125 107.046875 162.75 106.832031 162.5625 106.5625 C 162.375 106.289063 162.265625 105.957031 162.234375 105.5625 C 162.195313 104.90625 162.445313 104.351563 163 103.90625 C 163.550781 103.457031 164.300781 103.203125 165.25 103.140625 C 166.1875 103.078125 166.957031 103.234375 167.5625 103.609375 C 168.164063 103.984375 168.488281 104.5 168.53125 105.15625 C 168.5625 105.550781 168.5 105.894531 168.34375 106.1875 C 168.1875 106.476563 167.9375 106.726563 167.59375 106.9375 Z M 165.3125 104.0625 C 164.582031 104.101563 164.019531 104.269531 163.625 104.5625 C 163.226563 104.851563 163.046875 105.234375 163.078125 105.703125 C 163.109375 106.179688 163.335938 106.539063 163.765625 106.78125 C 164.191406 107.019531 164.769531 107.117188 165.5 107.078125 C 166.21875 107.023438 166.773438 106.851563 167.171875 106.5625 C 167.566406 106.269531 167.75 105.882813 167.71875 105.40625 C 167.6875 104.9375 167.457031 104.582031 167.03125 104.34375 C 166.601563 104.101563 166.03125 104.007813 165.3125 104.0625 Z M 168.8125 109.027344 L 169.109375 109.871094 L 163.421875 111.824219 L 163.125 110.980469 Z M 171.03125 108.261719 L 171.328125 109.105469 L 170.140625 109.511719 L 169.84375 108.667969 Z M 170.535156 114.296875 C 170.535156 114.171875 170.511719 114.046875 170.472656 113.921875 C 170.441406 113.804688 170.394531 113.691406 170.332031 113.578125 C 170.058594 113.140625 169.699219 112.90625 169.253906 112.875 C 168.804688 112.835938 168.289063 112.992188 167.707031 113.34375 L 164.988281 114.96875 L 164.519531 114.1875 L 169.675781 111.09375 L 170.144531 111.875 L 169.347656 112.359375 C 169.753906 112.328125 170.105469 112.398438 170.410156 112.5625 C 170.722656 112.71875 170.988281 112.980469 171.207031 113.34375 C 171.238281 113.398438 171.269531 113.457031 171.300781 113.53125 C 171.339844 113.601563 171.371094 113.679688 171.394531 113.765625 Z M 172.691406 115.953125 C 172.347656 115.621094 171.929688 115.515625 171.441406 115.640625 C 170.960938 115.757813 170.472656 116.074219 169.972656 116.59375 C 169.480469 117.117188 169.195313 117.621094 169.113281 118.109375 C 169.039063 118.597656 169.175781 119.007813 169.519531 119.34375 C 169.871094 119.664063 170.289063 119.769531 170.769531 119.65625 C 171.257813 119.539063 171.746094 119.222656 172.238281 118.703125 C 172.738281 118.179688 173.023438 117.679688 173.097656 117.1875 C 173.179688 116.6875 173.042969 116.277344 172.691406 115.953125 Z M 173.269531 115.359375 C 173.832031 115.882813 174.082031 116.5 174.019531 117.21875 C 173.957031 117.925781 173.585938 118.640625 172.910156 119.359375 C 172.242188 120.078125 171.554688 120.484375 170.847656 120.578125 C 170.136719 120.679688 169.503906 120.472656 168.941406 119.953125 C 168.378906 119.410156 168.128906 118.785156 168.191406 118.078125 C 168.261719 117.382813 168.632813 116.671875 169.300781 115.953125 C 169.976563 115.234375 170.664063 114.824219 171.363281 114.71875 C 172.070313 114.605469 172.707031 114.820313 173.269531 115.359375 Z M 176.933594 123.527344 L 174.042969 125.714844 L 173.511719 124.996094 L 176.386719 122.839844 C 176.84375 122.496094 177.125 122.15625 177.230469 121.824219 C 177.332031 121.488281 177.265625 121.167969 177.027344 120.855469 C 176.734375 120.472656 176.371094 120.273438 175.933594 120.261719 C 175.496094 120.242188 175.042969 120.410156 174.574219 120.761719 L 171.855469 122.808594 L 171.308594 122.089844 L 176.105469 118.464844 L 176.652344 119.183594 L 175.917969 119.746094 C 176.332031 119.695313 176.699219 119.730469 177.011719 119.855469 C 177.324219 119.980469 177.597656 120.195313 177.839844 120.496094 C 178.203125 120.988281 178.308594 121.484375 178.152344 121.996094 C 178.003906 122.515625 177.597656 123.027344 176.933594 123.527344 Z M 180.164063 127.871094 L 183.257813 126.871094 L 183.523438 127.714844 L 175.570313 130.292969 L 175.304688 129.449219 L 176.164063 129.167969 C 175.757813 129.105469 175.421875 128.964844 175.164063 128.746094 C 174.914063 128.527344 174.730469 128.222656 174.617188 127.839844 C 174.40625 127.214844 174.515625 126.613281 174.945313 126.042969 C 175.371094 125.480469 176.039063 125.054688 176.945313 124.761719 C 177.839844 124.472656 178.625 124.429688 179.304688 124.636719 C 179.980469 124.847656 180.421875 125.261719 180.632813 125.886719 C 180.746094 126.269531 180.761719 126.625 180.679688 126.949219 C 180.605469 127.28125 180.433594 127.589844 180.164063 127.871094 Z M 177.226563 125.636719 C 176.527344 125.855469 176.023438 126.15625 175.710938 126.542969 C 175.40625 126.925781 175.328125 127.34375 175.476563 127.792969 C 175.621094 128.238281 175.929688 128.527344 176.398438 128.652344 C 176.875 128.785156 177.464844 128.746094 178.164063 128.527344 C 178.851563 128.296875 179.34375 127.988281 179.648438 127.605469 C 179.960938 127.21875 180.042969 126.800781 179.898438 126.355469 C 179.75 125.90625 179.4375 125.613281 178.960938 125.480469 C 178.492188 125.355469 177.914063 125.40625 177.226563 125.636719 Z M 179.199219 133.414063 C 179.09375 132.695313 178.925781 132.210938 178.699219 131.960938 C 178.46875 131.71875 178.140625 131.632813 177.714844 131.695313 C 177.371094 131.746094 177.109375 131.890625 176.933594 132.132813 C 176.765625 132.371094 176.707031 132.664063 176.761719 133.007813 C 176.832031 133.507813 177.082031 133.871094 177.511719 134.101563 C 177.9375 134.339844 178.464844 134.414063 179.089844 134.320313 L 179.324219 134.289063 Z M 179.855469 135.101563 L 176.449219 135.601563 L 176.324219 134.726563 L 177.214844 134.601563 C 176.828125 134.445313 176.527344 134.226563 176.308594 133.945313 C 176.097656 133.671875 175.957031 133.320313 175.886719 132.882813 C 175.8125 132.339844 175.921875 131.882813 176.214844 131.507813 C 176.503906 131.140625 176.941406 130.917969 177.527344 130.835938 C 178.191406 130.730469 178.722656 130.855469 179.121094 131.210938 C 179.515625 131.5625 179.769531 132.140625 179.886719 132.945313 L 180.074219 134.179688 L 180.167969 134.164063 C 180.625 134.089844 180.953125 133.902344 181.152344 133.601563 C 181.359375 133.296875 181.433594 132.902344 181.371094 132.414063 C 181.316406 132.109375 181.230469 131.820313 181.105469 131.539063 C 180.988281 131.265625 180.828125 131.007813 180.621094 130.757813 L 181.511719 130.632813 C 181.707031 130.933594 181.859375 131.230469 181.964844 131.523438 C 182.078125 131.8125 182.15625 132.105469 182.199219 132.398438 C 182.3125 133.167969 182.175781 133.777344 181.792969 134.226563 C 181.40625 134.671875 180.761719 134.964844 179.855469 135.101563 Z M 183.40625 140.105469 L 182.5 140.324219 C 182.59375 140.042969 182.644531 139.769531 182.65625 139.511719 C 182.675781 139.25 182.65625 138.996094 182.59375 138.746094 C 182.457031 138.183594 182.15625 137.792969 181.6875 137.574219 C 181.21875 137.355469 180.625 137.332031 179.90625 137.511719 C 179.195313 137.675781 178.679688 137.964844 178.359375 138.371094 C 178.046875 138.785156 177.957031 139.277344 178.09375 139.839844 C 178.15625 140.089844 178.25 140.324219 178.375 140.542969 C 178.5 140.769531 178.671875 140.988281 178.890625 141.199219 L 178.015625 141.402344 C 177.816406 141.203125 177.65625 140.980469 177.53125 140.730469 C 177.40625 140.480469 177.3125 140.214844 177.25 139.933594 C 177.050781 139.128906 177.171875 138.433594 177.609375 137.839844 C 178.046875 137.246094 178.738281 136.832031 179.6875 136.605469 C 180.632813 136.378906 181.4375 136.429688 182.09375 136.761719 C 182.757813 137.09375 183.191406 137.671875 183.390625 138.496094 C 183.453125 138.753906 183.484375 139.019531 183.484375 139.292969 C 183.484375 139.574219 183.457031 139.84375 183.40625 140.105469 Z M 186.0625 139.765625 L 186.484375 140.578125 L 182.125 142.890625 L 185.640625 144.015625 L 186.171875 145.015625 L 182.34375 143.796875 L 180.921875 147.9375 L 180.375 146.90625 L 181.6875 143.109375 L 179.09375 144.484375 L 178.671875 143.671875 Z M 189.871094 148.386719 L 187.449219 150.199219 L 188.183594 151.167969 C 188.453125 151.542969 188.769531 151.75 189.136719 151.792969 C 189.5 151.832031 189.875 151.707031 190.261719 151.417969 C 190.644531 151.125 190.863281 150.804688 190.917969 150.449219 C 190.980469 150.097656 190.875 149.730469 190.605469 149.355469 Z M 189.980469 147.074219 L 191.308594 148.824219 C 191.796875 149.480469 192 150.097656 191.917969 150.667969 C 191.84375 151.238281 191.496094 151.761719 190.871094 152.230469 C 190.234375 152.707031 189.628906 152.902344 189.058594 152.808594 C 188.496094 152.722656 187.96875 152.355469 187.480469 151.699219 L 186.746094 150.730469 L 184.167969 152.667969 L 183.574219 151.886719 Z M 190.84375 156.839844 C 190.445313 156.234375 190.09375 155.871094 189.78125 155.746094 C 189.46875 155.621094 189.128906 155.679688 188.765625 155.917969 C 188.472656 156.105469 188.300781 156.34375 188.25 156.636719 C 188.195313 156.925781 188.265625 157.21875 188.453125 157.511719 C 188.734375 157.925781 189.113281 158.152344 189.59375 158.183594 C 190.082031 158.214844 190.59375 158.050781 191.125 157.699219 L 191.328125 157.574219 Z M 192.15625 158.105469 L 189.296875 159.996094 L 188.796875 159.246094 L 189.546875 158.746094 C 189.128906 158.777344 188.765625 158.714844 188.453125 158.558594 C 188.148438 158.402344 187.878906 158.140625 187.640625 157.777344 C 187.335938 157.316406 187.238281 156.855469 187.34375 156.386719 C 187.445313 155.925781 187.738281 155.539063 188.21875 155.214844 C 188.789063 154.839844 189.332031 154.730469 189.84375 154.886719 C 190.351563 155.035156 190.832031 155.445313 191.28125 156.121094 L 191.96875 157.152344 L 192.046875 157.105469 C 192.421875 156.84375 192.640625 156.53125 192.703125 156.167969 C 192.765625 155.8125 192.660156 155.433594 192.390625 155.027344 C 192.222656 154.777344 192.019531 154.554688 191.78125 154.355469 C 191.550781 154.148438 191.296875 153.976563 191.015625 153.839844 L 191.765625 153.339844 C 192.066406 153.539063 192.328125 153.746094 192.546875 153.964844 C 192.765625 154.175781 192.957031 154.398438 193.125 154.636719 C 193.550781 155.285156 193.6875 155.890625 193.53125 156.464844 C 193.382813 157.046875 192.925781 157.59375 192.15625 158.105469 Z M 196.507813 161.019531 C 196.496094 160.894531 196.464844 160.78125 196.414063 160.675781 C 196.371094 160.5625 196.304688 160.453125 196.210938 160.347656 C 195.898438 159.953125 195.511719 159.765625 195.054688 159.785156 C 194.605469 159.796875 194.117188 160.015625 193.585938 160.441406 L 191.117188 162.425781 L 190.554688 161.707031 L 195.242188 157.941406 L 195.804688 158.660156 L 195.085938 159.253906 C 195.480469 159.171875 195.839844 159.191406 196.164063 159.316406 C 196.484375 159.433594 196.777344 159.65625 197.039063 159.988281 C 197.078125 160.042969 197.125 160.097656 197.179688 160.160156 C 197.230469 160.222656 197.273438 160.296875 197.304688 160.378906 Z M 199.550781 159.519531 L 200.144531 160.207031 L 196.378906 163.425781 L 200.082031 163.769531 L 200.832031 164.628906 L 196.816406 164.269531 L 196.316406 168.613281 L 195.566406 167.738281 L 196.019531 163.738281 L 193.785156 165.644531 L 193.191406 164.957031 Z M 199.550781 159.519531 "/>
<path style=" stroke:none;fill-rule:evenodd;fill:rgb(20%,20%,20%);fill-opacity:1;" d="M 168.941406 98.964844 L 164.863281 97.902344 L 165.035156 100.542969 Z M 169.972656 98.339844 L 170.035156 99.433594 L 162.207031 102.699219 L 162.144531 101.683594 L 164.175781 100.902344 L 163.957031 97.667969 L 161.863281 97.136719 L 161.785156 96.105469 Z M 167.59375 106.9375 L 170.84375 106.734375 L 170.90625 107.625 L 162.5625 108.15625 L 162.5 107.265625 L 163.40625 107.203125 C 163.03125 107.046875 162.75 106.832031 162.5625 106.5625 C 162.375 106.289063 162.265625 105.957031 162.234375 105.5625 C 162.195313 104.90625 162.445313 104.351563 163 103.90625 C 163.550781 103.457031 164.300781 103.203125 165.25 103.140625 C 166.1875 103.078125 166.957031 103.234375 167.5625 103.609375 C 168.164063 103.984375 168.488281 104.5 168.53125 105.15625 C 168.5625 105.550781 168.5 105.894531 168.34375 106.1875 C 168.1875 106.476563 167.9375 106.726563 167.59375 106.9375 Z M 165.3125 104.0625 C 164.582031 104.101563 164.019531 104.269531 163.625 104.5625 C 163.226563 104.851563 163.046875 105.234375 163.078125 105.703125 C 163.109375 106.179688 163.335938 106.539063 163.765625 106.78125 C 164.191406 107.019531 164.769531 107.117188 165.5 107.078125 C 166.21875 107.023438 166.773438 106.851563 167.171875 106.5625 C 167.566406 106.269531 167.75 105.882813 167.71875 105.40625 C 167.6875 104.9375 167.457031 104.582031 167.03125 104.34375 C 166.601563 104.101563 166.03125 104.007813 165.3125 104.0625 Z M 168.8125 109.027344 L 169.109375 109.871094 L 163.421875 111.824219 L 163.125 110.980469 Z M 171.03125 108.261719 L 171.328125 109.105469 L 170.140625 109.511719 L 169.84375 108.667969 Z M 170.535156 114.296875 C 170.535156 114.171875 170.511719 114.046875 170.472656 113.921875 C 170.441406 113.804688 170.394531 113.691406 170.332031 113.578125 C 170.058594 113.140625 169.699219 112.90625 169.253906 112.875 C 168.804688 112.835938 168.289063 112.992188 167.707031 113.34375 L 164.988281 114.96875 L 164.519531 114.1875 L 169.675781 111.09375 L 170.144531 111.875 L 169.347656 112.359375 C 169.753906 112.328125 170.105469 112.398438 170.410156 112.5625 C 170.722656 112.71875 170.988281 112.980469 171.207031 113.34375 C 171.238281 113.398438 171.269531 113.457031 171.300781 113.53125 C 171.339844 113.601563 171.371094 113.679688 171.394531 113.765625 Z M 172.691406 115.953125 C 172.347656 115.621094 171.929688 115.515625 171.441406 115.640625 C 170.960938 115.757813 170.472656 116.074219 169.972656 116.59375 C 169.480469 117.117188 169.195313 117.621094 169.113281 118.109375 C 169.039063 118.597656 169.175781 119.007813 169.519531 119.34375 C 169.871094 119.664063 170.289063 119.769531 170.769531 119.65625 C 171.257813 119.539063 171.746094 119.222656 172.238281 118.703125 C 172.738281 118.179688 173.023438 117.679688 173.097656 117.1875 C 173.179688 116.6875 173.042969 116.277344 172.691406 115.953125 Z M 173.269531 115.359375 C 173.832031 115.882813 174.082031 116.5 174.019531 117.21875 C 173.957031 117.925781 173.585938 118.640625 172.910156 119.359375 C 172.242188 120.078125 171.554688 120.484375 170.847656 120.578125 C 170.136719 120.679688 169.503906 120.472656 168.941406 119.953125 C 168.378906 119.410156 168.128906 118.785156 168.191406 118.078125 C 168.261719 117.382813 168.632813 116.671875 169.300781 115.953125 C 169.976563 115.234375 170.664063 114.824219 171.363281 114.71875 C 172.070313 114.605469 172.707031 114.820313 173.269531 115.359375 Z M 176.933594 123.527344 L 174.042969 125.714844 L 173.511719 124.996094 L 176.386719 122.839844 C 176.84375 122.496094 177.125 122.15625 177.230469 121.824219 C 177.332031 121.488281 177.265625 121.167969 177.027344 120.855469 C 176.734375 120.472656 176.371094 120.273438 175.933594 120.261719 C 175.496094 120.242188 175.042969 120.410156 174.574219 120.761719 L 171.855469 122.808594 L 171.308594 122.089844 L 176.105469 118.464844 L 176.652344 119.183594 L 175.917969 119.746094 C 176.332031 119.695313 176.699219 119.730469 177.011719 119.855469 C 177.324219 119.980469 177.597656 120.195313 177.839844 120.496094 C 178.203125 120.988281 178.308594 121.484375 178.152344 121.996094 C 178.003906 122.515625 177.597656 123.027344 176.933594 123.527344 Z M 180.164063 127.871094 L 183.257813 126.871094 L 183.523438 127.714844 L 175.570313 130.292969 L 175.304688 129.449219 L 176.164063 129.167969 C 175.757813 129.105469 175.421875 128.964844 175.164063 128.746094 C 174.914063 128.527344 174.730469 128.222656 174.617188 127.839844 C 174.40625 127.214844 174.515625 126.613281 174.945313 126.042969 C 175.371094 125.480469 176.039063 125.054688 176.945313 124.761719 C 177.839844 124.472656 178.625 124.429688 179.304688 124.636719 C 179.980469 124.847656 180.421875 125.261719 180.632813 125.886719 C 180.746094 126.269531 180.761719 126.625 180.679688 126.949219 C 180.605469 127.28125 180.433594 127.589844 180.164063 127.871094 Z M 177.226563 125.636719 C 176.527344 125.855469 176.023438 126.15625 175.710938 126.542969 C 175.40625 126.925781 175.328125 127.34375 175.476563 127.792969 C 175.621094 128.238281 175.929688 128.527344 176.398438 128.652344 C 176.875 128.785156 177.464844 128.746094 178.164063 128.527344 C 178.851563 128.296875 179.34375 127.988281 179.648438 127.605469 C 179.960938 127.21875 180.042969 126.800781 179.898438 126.355469 C 179.75 125.90625 179.4375 125.613281 178.960938 125.480469 C 178.492188 125.355469 177.914063 125.40625 177.226563 125.636719 Z M 179.199219 133.414063 C 179.09375 132.695313 178.925781 132.210938 178.699219 131.960938 C 178.46875 131.71875 178.140625 131.632813 177.714844 131.695313 C 177.371094 131.746094 177.109375 131.890625 176.933594 132.132813 C 176.765625 132.371094 176.707031 132.664063 176.761719 133.007813 C 176.832031 133.507813 177.082031 133.871094 177.511719 134.101563 C 177.9375 134.339844 178.464844 134.414063 179.089844 134.320313 L 179.324219 134.289063 Z M 179.855469 135.101563 L 176.449219 135.601563 L 176.324219 134.726563 L 177.214844 134.601563 C 176.828125 134.445313 176.527344 134.226563 176.308594 133.945313 C 176.097656 133.671875 175.957031 133.320313 175.886719 132.882813 C 175.8125 132.339844 175.921875 131.882813 176.214844 131.507813 C 176.503906 131.140625 176.941406 130.917969 177.527344 130.835938 C 178.191406 130.730469 178.722656 130.855469 179.121094 131.210938 C 179.515625 131.5625 179.769531 132.140625 179.886719 132.945313 L 180.074219 134.179688 L 180.167969 134.164063 C 180.625 134.089844 180.953125 133.902344 181.152344 133.601563 C 181.359375 133.296875 181.433594 132.902344 181.371094 132.414063 C 181.316406 132.109375 181.230469 131.820313 181.105469 131.539063 C 180.988281 131.265625 180.828125 131.007813 180.621094 130.757813 L 181.511719 130.632813 C 181.707031 130.933594 181.859375 131.230469 181.964844 131.523438 C 182.078125 131.8125 182.15625 132.105469 182.199219 132.398438 C 182.3125 133.167969 182.175781 133.777344 181.792969 134.226563 C 181.40625 134.671875 180.761719 134.964844 179.855469 135.101563 Z M 183.40625 140.105469 L 182.5 140.324219 C 182.59375 140.042969 182.644531 139.769531 182.65625 139.511719 C 182.675781 139.25 182.65625 138.996094 182.59375 138.746094 C 182.457031 138.183594 182.15625 137.792969 181.6875 137.574219 C 181.21875 137.355469 180.625 137.332031 179.90625 137.511719 C 179.195313 137.675781 178.679688 137.964844 178.359375 138.371094 C 178.046875 138.785156 177.957031 139.277344 178.09375 139.839844 C 178.15625 140.089844 178.25 140.324219 178.375 140.542969 C 178.5 140.769531 178.671875 140.988281 178.890625 141.199219 L 178.015625 141.402344 C 177.816406 141.203125 177.65625 140.980469 177.53125 140.730469 C 177.40625 140.480469 177.3125 140.214844 177.25 139.933594 C 177.050781 139.128906 177.171875 138.433594 177.609375 137.839844 C 178.046875 137.246094 178.738281 136.832031 179.6875 136.605469 C 180.632813 136.378906 181.4375 136.429688 182.09375 136.761719 C 182.757813 137.09375 183.191406 137.671875 183.390625 138.496094 C 183.453125 138.753906 183.484375 139.019531 183.484375 139.292969 C 183.484375 139.574219 183.457031 139.84375 183.40625 140.105469 Z M 186.0625 139.765625 L 186.484375 140.578125 L 182.125 142.890625 L 185.640625 144.015625 L 186.171875 145.015625 L 182.34375 143.796875 L 180.921875 147.9375 L 180.375 146.90625 L 181.6875 143.109375 L 179.09375 144.484375 L 178.671875 143.671875 Z M 189.871094 148.386719 L 187.449219 150.199219 L 188.183594 151.167969 C 188.453125 151.542969 188.769531 151.75 189.136719 151.792969 C 189.5 151.832031 189.875 151.707031 190.261719 151.417969 C 190.644531 151.125 190.863281 150.804688 190.917969 150.449219 C 190.980469 150.097656 190.875 149.730469 190.605469 149.355469 Z M 189.980469 147.074219 L 191.308594 148.824219 C 191.796875 149.480469 192 150.097656 191.917969 150.667969 C 191.84375 151.238281 191.496094 151.761719 190.871094 152.230469 C 190.234375 152.707031 189.628906 152.902344 189.058594 152.808594 C 188.496094 152.722656 187.96875 152.355469 187.480469 151.699219 L 186.746094 150.730469 L 184.167969 152.667969 L 183.574219 151.886719 Z M 190.84375 156.839844 C 190.445313 156.234375 190.09375 155.871094 189.78125 155.746094 C 189.46875 155.621094 189.128906 155.679688 188.765625 155.917969 C 188.472656 156.105469 188.300781 156.34375 188.25 156.636719 C 188.195313 156.925781 188.265625 157.21875 188.453125 157.511719 C 188.734375 157.925781 189.113281 158.152344 189.59375 158.183594 C 190.082031 158.214844 190.59375 158.050781 191.125 157.699219 L 191.328125 157.574219 Z M 192.15625 158.105469 L 189.296875 159.996094 L 188.796875 159.246094 L 189.546875 158.746094 C 189.128906 158.777344 188.765625 158.714844 188.453125 158.558594 C 188.148438 158.402344 187.878906 158.140625 187.640625 157.777344 C 187.335938 157.316406 187.238281 156.855469 187.34375 156.386719 C 187.445313 155.925781 187.738281 155.539063 188.21875 155.214844 C 188.789063 154.839844 189.332031 154.730469 189.84375 154.886719 C 190.351563 155.035156 190.832031 155.445313 191.28125 156.121094 L 191.96875 157.152344 L 192.046875 157.105469 C 192.421875 156.84375 192.640625 156.53125 192.703125 156.167969 C 192.765625 155.8125 192.660156 155.433594 192.390625 155.027344 C 192.222656 154.777344 192.019531 154.554688 191.78125 154.355469 C 191.550781 154.148438 191.296875 153.976563 191.015625 153.839844 L 191.765625 153.339844 C 192.066406 153.539063 192.328125 153.746094 192.546875 153.964844 C 192.765625 154.175781 192.957031 154.398438 193.125 154.636719 C 193.550781 155.285156 193.6875 155.890625 193.53125 156.464844 C 193.382813 157.046875 192.925781 157.59375 192.15625 158.105469 Z M 196.507813 161.019531 C 196.496094 160.894531 196.464844 160.78125 196.414063 160.675781 C 196.371094 160.5625 196.304688 160.453125 196.210938 160.347656 C 195.898438 159.953125 195.511719 159.765625 195.054688 159.785156 C 194.605469 159.796875 194.117188 160.015625 193.585938 160.441406 L 191.117188 162.425781 L 190.554688 161.707031 L 195.242188 157.941406 L 195.804688 158.660156 L 195.085938 159.253906 C 195.480469 159.171875 195.839844 159.191406 196.164063 159.316406 C 196.484375 159.433594 196.777344 159.65625 197.039063 159.988281 C 197.078125 160.042969 197.125 160.097656 197.179688 160.160156 C 197.230469 160.222656 197.273438 160.296875 197.304688 160.378906 Z M 199.550781 159.519531 L 200.144531 160.207031 L 196.378906 163.425781 L 200.082031 163.769531 L 200.832031 164.628906 L 196.816406 164.269531 L 196.316406 168.613281 L 195.566406 167.738281 L 196.019531 163.738281 L 193.785156 165.644531 L 193.191406 164.957031 Z M 199.550781 159.519531 "/>
</g>
</svg>

