<?xml version="1.0" encoding="UTF-8"?>
<svg xmlns="http://www.w3.org/2000/svg" xmlns:xlink="http://www.w3.org/1999/xlink" width="256pt" height="256pt" viewBox="0 0 256 256" version="1.1">
<g id="surface2">
<rect x="0" y="0" width="256" height="256" style="fill:rgb(60%,70.196078%,80%);fill-opacity:1;stroke:none;"/>
<path style=" stroke:none;fill-rule:evenodd;fill:rgb(94.901961%,93.72549%,91.372549%);fill-opacity:1;" d="M 259 -4 L 259 142.691406 L 243.535156 140.894531 L 243.320313 141.8125 L 251.40625 142.847656 L 251.402344 145.113281 L 252.4375 146.636719 L 252.246094 149.855469 L 259 150.671875 L 259 259 L -4 259 L -4 -4 Z M 259 -4 "/>
<path style=" stroke:none;fill-rule:evenodd;fill:rgb(60%,70.196078%,80%);fill-opacity:1;" d="M 251.40625 142.847656 L 251.402344 145.113281 L 252.4375 146.636719 L 252.246094 149.855469 L 259 150.671875 L 259 259 L 259 -4 L 259 142.691406 L 243.535156 140.894531 L 243.320313 141.816406 Z M 251.40625 142.847656 "/>
<path style="fill:none;stroke-width:1;stroke-linecap:round;stroke-linejoin:round;stroke:rgb(70.196078%,77.647059%,83.137255%);stroke-opacity:1;stroke-miterlimit:10;" d="M 251.40625 142.847656 L 251.402344 145.113281 L 252.4375 146.636719 L 252.246094 149.855469 L 259 150.671875 L 259 259 L 259 -4 L 259 142.691406 L 243.535156 140.894531 L 243.320313 141.816406 L 251.40625 142.847656 "/>
</g>
</svg>

