<?xml version="1.0" encoding="UTF-8"?>
<svg xmlns="http://www.w3.org/2000/svg" xmlns:xlink="http://www.w3.org/1999/xlink" width="256pt" height="256pt" viewBox="0 0 256 256" version="1.1">
<g id="surface2">
<rect x="0" y="0" width="256" height="256" style="fill:rgb(60%,70.196078%,80%);fill-opacity:1;stroke:none;"/>
<path style="fill:none;stroke-width:1;stroke-linecap:round;stroke-linejoin:round;stroke:rgb(70.196078%,77.647059%,83.137255%);stroke-opacity:1;stroke-miterlimit:10;" d="M -4 259 L 259 259 L 259 -4 L -4 -4 L -4 259 "/>
<path style="fill:none;stroke-width:3;stroke-linecap:round;stroke-linejoin:round;stroke:rgb(100%,100%,100%);stroke-opacity:1;stroke-miterlimit:10;" d="M 113.476563 112.570313 L 114.460938 112.570313 L 114.460938 117.445313 C 114.460938 118.300781 114.601563 118.921875 114.882813 119.304688 C 115.164063 119.679688 115.617188 119.867188 116.242188 119.867188 C 116.867188 119.867188 117.320313 119.679688 117.601563 119.304688 C 117.882813 118.921875 118.023438 118.300781 118.023438 117.445313 L 118.023438 112.570313 L 119.007813 112.570313 L 119.007813 117.570313 C 119.007813 118.625 118.773438 119.414063 118.304688 119.945313 C 117.835938 120.476563 117.148438 120.742188 116.242188 120.742188 C 115.324219 120.742188 114.632813 120.476563 114.164063 119.945313 C 113.703125 119.414063 113.476563 118.625 113.476563 117.570313 Z M 121.664063 119.679688 L 121.664063 122.867188 L 120.757813 122.867188 L 120.757813 114.570313 L 121.664063 114.570313 L 121.664063 115.476563 C 121.851563 115.125 122.085938 114.863281 122.367188 114.695313 C 122.648438 114.519531 122.992188 114.429688 123.398438 114.429688 C 124.054688 114.429688 124.585938 114.722656 124.992188 115.304688 C 125.398438 115.878906 125.601563 116.640625 125.601563 117.585938 C 125.601563 118.535156 125.398438 119.300781 124.992188 119.882813 C 124.585938 120.457031 124.054688 120.742188 123.398438 120.742188 C 122.992188 120.742188 122.648438 120.65625 122.367188 120.492188 C 122.085938 120.316406 121.851563 120.046875 121.664063 119.679688 Z M 124.679688 117.585938 C 124.679688 116.859375 124.542969 116.289063 124.273438 115.882813 C 124.011719 115.46875 123.648438 115.257813 123.179688 115.257813 C 122.699219 115.257813 122.324219 115.46875 122.054688 115.882813 C 121.792969 116.289063 121.664063 116.859375 121.664063 117.585938 C 121.664063 118.316406 121.792969 118.890625 122.054688 119.304688 C 122.324219 119.710938 122.699219 119.914063 123.179688 119.914063 C 123.648438 119.914063 124.011719 119.710938 124.273438 119.304688 C 124.542969 118.890625 124.679688 118.316406 124.679688 117.585938 Z M 127.945313 119.679688 L 127.945313 122.867188 L 127.039063 122.867188 L 127.039063 114.570313 L 127.945313 114.570313 L 127.945313 115.476563 C 128.132813 115.125 128.367188 114.863281 128.648438 114.695313 C 128.929688 114.519531 129.273438 114.429688 129.679688 114.429688 C 130.335938 114.429688 130.867188 114.722656 131.273438 115.304688 C 131.679688 115.878906 131.882813 116.640625 131.882813 117.585938 C 131.882813 118.535156 131.679688 119.300781 131.273438 119.882813 C 130.867188 120.457031 130.335938 120.742188 129.679688 120.742188 C 129.273438 120.742188 128.929688 120.65625 128.648438 120.492188 C 128.367188 120.316406 128.132813 120.046875 127.945313 119.679688 Z M 130.960938 117.585938 C 130.960938 116.859375 130.824219 116.289063 130.554688 115.882813 C 130.292969 115.46875 129.929688 115.257813 129.460938 115.257813 C 128.980469 115.257813 128.605469 115.46875 128.335938 115.882813 C 128.074219 116.289063 127.945313 116.859375 127.945313 117.585938 C 127.945313 118.316406 128.074219 118.890625 128.335938 119.304688 C 128.605469 119.710938 128.980469 119.914063 129.460938 119.914063 C 129.929688 119.914063 130.292969 119.710938 130.554688 119.304688 C 130.824219 118.890625 130.960938 118.316406 130.960938 117.585938 Z M 137.992188 117.335938 L 137.992188 117.820313 L 133.898438 117.820313 C 133.9375 118.5 134.125 119.015625 134.460938 119.367188 C 134.792969 119.722656 135.25 119.898438 135.835938 119.898438 C 136.179688 119.898438 136.507813 119.851563 136.820313 119.757813 C 137.140625 119.664063 137.464844 119.53125 137.789063 119.351563 L 137.789063 120.273438 C 137.464844 120.429688 137.136719 120.546875 136.804688 120.617188 C 136.46875 120.699219 136.132813 120.742188 135.789063 120.742188 C 134.921875 120.742188 134.234375 120.46875 133.726563 119.914063 C 133.226563 119.351563 132.976563 118.59375 132.976563 117.632813 C 132.976563 116.65625 133.214844 115.878906 133.695313 115.304688 C 134.171875 114.722656 134.820313 114.429688 135.632813 114.429688 C 136.359375 114.429688 136.933594 114.691406 137.351563 115.210938 C 137.777344 115.734375 137.992188 116.441406 137.992188 117.335938 Z M 137.101563 117.039063 C 137.089844 116.5 136.953125 116.066406 136.695313 115.742188 C 136.433594 115.421875 136.085938 115.257813 135.648438 115.257813 C 135.148438 115.257813 134.746094 115.414063 134.445313 115.726563 C 134.140625 116.039063 133.96875 116.476563 133.929688 117.039063 Z M 142.601563 115.492188 C 142.496094 115.429688 142.382813 115.382813 142.257813 115.351563 C 142.140625 115.320313 142.015625 115.304688 141.882813 115.304688 C 141.371094 115.304688 140.980469 115.488281 140.710938 115.851563 C 140.449219 116.21875 140.320313 116.738281 140.320313 117.414063 L 140.320313 120.585938 L 139.414063 120.585938 L 139.414063 114.570313 L 140.320313 114.570313 L 140.320313 115.507813 C 140.507813 115.144531 140.746094 114.875 141.039063 114.695313 C 141.339844 114.519531 141.703125 114.429688 142.132813 114.429688 C 142.195313 114.429688 142.261719 114.4375 142.335938 114.445313 C 142.417969 114.445313 142.5 114.457031 142.585938 114.476563 Z M 103.992188 124.179688 L 103.992188 125.335938 C 103.65625 124.992188 103.304688 124.738281 102.929688 124.570313 C 102.5625 124.40625 102.171875 124.320313 101.757813 124.320313 C 100.933594 124.320313 100.296875 124.601563 99.851563 125.164063 C 99.414063 125.71875 99.195313 126.523438 99.195313 127.585938 C 99.195313 128.640625 99.414063 129.445313 99.851563 130.007813 C 100.296875 130.570313 100.933594 130.851563 101.757813 130.851563 C 102.171875 130.851563 102.5625 130.769531 102.929688 130.601563 C 103.304688 130.4375 103.65625 130.179688 103.992188 129.835938 L 103.992188 130.960938 C 103.648438 131.222656 103.28125 131.421875 102.898438 131.554688 C 102.523438 131.679688 102.121094 131.742188 101.695313 131.742188 C 100.601563 131.742188 99.742188 131.375 99.117188 130.632813 C 98.492188 129.882813 98.179688 128.867188 98.179688 127.585938 C 98.179688 126.296875 98.492188 125.28125 99.117188 124.539063 C 99.742188 123.789063 100.601563 123.414063 101.695313 123.414063 C 102.132813 123.414063 102.539063 123.484375 102.914063 123.617188 C 103.296875 123.742188 103.65625 123.929688 103.992188 124.179688 Z M 109.960938 127.960938 L 109.960938 131.585938 L 109.070313 131.585938 L 109.070313 127.992188 C 109.070313 127.421875 108.964844 126.992188 108.757813 126.710938 C 108.558594 126.429688 108.261719 126.289063 107.867188 126.289063 C 107.386719 126.289063 107.007813 126.460938 106.726563 126.804688 C 106.453125 127.140625 106.320313 127.597656 106.320313 128.179688 L 106.320313 131.585938 L 105.414063 131.585938 L 105.414063 123.226563 L 106.320313 123.226563 L 106.320313 126.507813 C 106.527344 126.144531 106.773438 125.875 107.054688 125.695313 C 107.34375 125.519531 107.683594 125.429688 108.070313 125.429688 C 108.683594 125.429688 109.152344 125.644531 109.476563 126.070313 C 109.796875 126.5 109.960938 127.128906 109.960938 127.960938 Z M 114.195313 128.554688 C 113.476563 128.554688 112.976563 128.648438 112.695313 128.835938 C 112.421875 129.023438 112.289063 129.335938 112.289063 129.773438 C 112.289063 130.117188 112.390625 130.394531 112.601563 130.601563 C 112.808594 130.8125 113.089844 130.914063 113.445313 130.914063 C 113.945313 130.914063 114.339844 130.722656 114.632813 130.335938 C 114.933594 129.941406 115.085938 129.425781 115.085938 128.789063 L 115.085938 128.554688 Z M 115.976563 128.148438 L 115.976563 131.585938 L 115.085938 131.585938 L 115.085938 130.679688 C 114.875 131.046875 114.621094 131.316406 114.320313 131.492188 C 114.015625 131.65625 113.648438 131.742188 113.210938 131.742188 C 112.65625 131.742188 112.214844 131.570313 111.882813 131.226563 C 111.558594 130.882813 111.398438 130.421875 111.398438 129.835938 C 111.398438 129.160156 111.601563 128.648438 112.007813 128.304688 C 112.414063 127.960938 113.023438 127.789063 113.835938 127.789063 L 115.085938 127.789063 L 115.085938 127.695313 C 115.085938 127.238281 114.949219 126.882813 114.679688 126.632813 C 114.40625 126.382813 114.027344 126.257813 113.539063 126.257813 C 113.234375 126.257813 112.933594 126.300781 112.632813 126.382813 C 112.339844 126.46875 112.058594 126.59375 111.789063 126.757813 L 111.789063 125.851563 C 112.121094 125.707031 112.4375 125.601563 112.742188 125.539063 C 113.042969 125.46875 113.339844 125.429688 113.632813 125.429688 C 114.414063 125.429688 114.996094 125.65625 115.382813 126.101563 C 115.777344 126.550781 115.976563 127.234375 115.976563 128.148438 Z M 118.679688 123.867188 L 118.679688 125.570313 L 120.507813 125.570313 L 120.507813 126.335938 L 118.679688 126.335938 L 118.679688 129.601563 C 118.679688 130.09375 118.734375 130.410156 118.851563 130.554688 C 118.976563 130.691406 119.226563 130.757813 119.601563 130.757813 L 120.507813 130.757813 L 120.507813 131.585938 L 119.601563 131.585938 C 118.914063 131.585938 118.4375 131.445313 118.179688 131.164063 C 117.917969 130.875 117.789063 130.351563 117.789063 129.601563 L 117.789063 126.335938 L 117.132813 126.335938 L 117.132813 125.570313 L 117.789063 125.570313 L 117.789063 123.867188 Z M 126.304688 128.335938 L 126.304688 128.820313 L 122.210938 128.820313 C 122.25 129.5 122.4375 130.015625 122.773438 130.367188 C 123.105469 130.722656 123.5625 130.898438 124.148438 130.898438 C 124.492188 130.898438 124.820313 130.851563 125.132813 130.757813 C 125.453125 130.664063 125.777344 130.53125 126.101563 130.351563 L 126.101563 131.273438 C 125.777344 131.429688 125.449219 131.546875 125.117188 131.617188 C 124.78125 131.699219 124.445313 131.742188 124.101563 131.742188 C 123.234375 131.742188 122.546875 131.46875 122.039063 130.914063 C 121.539063 130.351563 121.289063 129.59375 121.289063 128.632813 C 121.289063 127.65625 121.527344 126.878906 122.007813 126.304688 C 122.484375 125.722656 123.132813 125.429688 123.945313 125.429688 C 124.671875 125.429688 125.246094 125.691406 125.664063 126.210938 C 126.089844 126.734375 126.304688 127.441406 126.304688 128.335938 Z M 125.414063 128.039063 C 125.402344 127.5 125.265625 127.066406 125.007813 126.742188 C 124.746094 126.421875 124.398438 126.257813 123.960938 126.257813 C 123.460938 126.257813 123.058594 126.414063 122.757813 126.726563 C 122.453125 127.039063 122.28125 127.476563 122.242188 128.039063 Z M 130.226563 128.554688 C 129.507813 128.554688 129.007813 128.648438 128.726563 128.835938 C 128.453125 129.023438 128.320313 129.335938 128.320313 129.773438 C 128.320313 130.117188 128.421875 130.394531 128.632813 130.601563 C 128.839844 130.8125 129.121094 130.914063 129.476563 130.914063 C 129.976563 130.914063 130.371094 130.722656 130.664063 130.335938 C 130.964844 129.941406 131.117188 129.425781 131.117188 128.789063 L 131.117188 128.554688 Z M 132.007813 128.148438 L 132.007813 131.585938 L 131.117188 131.585938 L 131.117188 130.679688 C 130.90625 131.046875 130.652344 131.316406 130.351563 131.492188 C 130.046875 131.65625 129.679688 131.742188 129.242188 131.742188 C 128.6875 131.742188 128.246094 131.570313 127.914063 131.226563 C 127.589844 130.882813 127.429688 130.421875 127.429688 129.835938 C 127.429688 129.160156 127.632813 128.648438 128.039063 128.304688 C 128.445313 127.960938 129.054688 127.789063 129.867188 127.789063 L 131.117188 127.789063 L 131.117188 127.695313 C 131.117188 127.238281 130.980469 126.882813 130.710938 126.632813 C 130.4375 126.382813 130.058594 126.257813 129.570313 126.257813 C 129.265625 126.257813 128.964844 126.300781 128.664063 126.382813 C 128.371094 126.46875 128.089844 126.59375 127.820313 126.757813 L 127.820313 125.851563 C 128.152344 125.707031 128.46875 125.601563 128.773438 125.539063 C 129.074219 125.46875 129.371094 125.429688 129.664063 125.429688 C 130.445313 125.429688 131.027344 125.65625 131.414063 126.101563 C 131.808594 126.550781 132.007813 127.234375 132.007813 128.148438 Z M 133.742188 129.210938 L 133.742188 125.570313 L 134.632813 125.570313 L 134.632813 129.179688 C 134.632813 129.742188 134.730469 130.171875 134.929688 130.460938 C 135.125 130.742188 135.421875 130.882813 135.820313 130.882813 C 136.308594 130.882813 136.6875 130.71875 136.960938 130.382813 C 137.242188 130.039063 137.382813 129.570313 137.382813 128.976563 L 137.382813 125.570313 L 138.273438 125.570313 L 138.273438 131.585938 L 137.382813 131.585938 L 137.382813 130.664063 C 137.164063 131.03125 136.914063 131.300781 136.632813 131.476563 C 136.351563 131.652344 136.015625 131.742188 135.632813 131.742188 C 135.015625 131.742188 134.546875 131.53125 134.226563 131.101563 C 133.902344 130.664063 133.742188 130.035156 133.742188 129.210938 Z M 135.976563 125.429688 Z M 143.679688 128.507813 C 143.679688 127.789063 143.542969 127.238281 143.273438 126.851563 C 143.011719 126.457031 142.636719 126.257813 142.148438 126.257813 C 141.679688 126.257813 141.308594 126.457031 141.039063 126.851563 C 140.777344 127.238281 140.648438 127.789063 140.648438 128.507813 C 140.648438 129.21875 140.777344 129.769531 141.039063 130.164063 C 141.308594 130.5625 141.679688 130.757813 142.148438 130.757813 C 142.636719 130.757813 143.011719 130.5625 143.273438 130.164063 C 143.542969 129.769531 143.679688 129.21875 143.679688 128.507813 Z M 144.570313 130.835938 C 144.570313 131.867188 144.359375 132.625 143.945313 133.117188 C 143.539063 133.617188 142.914063 133.867188 142.070313 133.867188 C 141.757813 133.867188 141.460938 133.839844 141.179688 133.789063 C 140.90625 133.734375 140.640625 133.65625 140.382813 133.554688 L 140.382813 132.601563 C 140.640625 132.757813 140.898438 132.871094 141.148438 132.945313 C 141.40625 133.015625 141.667969 133.054688 141.929688 133.054688 C 142.511719 133.054688 142.949219 132.882813 143.242188 132.539063 C 143.53125 132.203125 143.679688 131.699219 143.679688 131.023438 L 143.679688 130.523438 C 143.492188 130.878906 143.25 131.144531 142.960938 131.320313 C 142.679688 131.5 142.339844 131.585938 141.945313 131.585938 C 141.277344 131.585938 140.742188 131.304688 140.335938 130.742188 C 139.929688 130.179688 139.726563 129.4375 139.726563 128.507813 C 139.726563 127.582031 139.929688 126.835938 140.335938 126.273438 C 140.742188 125.710938 141.277344 125.429688 141.945313 125.429688 C 142.339844 125.429688 142.679688 125.519531 142.960938 125.695313 C 143.25 125.863281 143.492188 126.125 143.679688 126.476563 L 143.679688 125.570313 L 144.570313 125.570313 Z M 148.851563 128.554688 C 148.132813 128.554688 147.632813 128.648438 147.351563 128.835938 C 147.078125 129.023438 146.945313 129.335938 146.945313 129.773438 C 146.945313 130.117188 147.046875 130.394531 147.257813 130.601563 C 147.464844 130.8125 147.746094 130.914063 148.101563 130.914063 C 148.601563 130.914063 148.996094 130.722656 149.289063 130.335938 C 149.589844 129.941406 149.742188 129.425781 149.742188 128.789063 L 149.742188 128.554688 Z M 150.632813 128.148438 L 150.632813 131.585938 L 149.742188 131.585938 L 149.742188 130.679688 C 149.53125 131.046875 149.277344 131.316406 148.976563 131.492188 C 148.671875 131.65625 148.304688 131.742188 147.867188 131.742188 C 147.3125 131.742188 146.871094 131.570313 146.539063 131.226563 C 146.214844 130.882813 146.054688 130.421875 146.054688 129.835938 C 146.054688 129.160156 146.257813 128.648438 146.664063 128.304688 C 147.070313 127.960938 147.679688 127.789063 148.492188 127.789063 L 149.742188 127.789063 L 149.742188 127.695313 C 149.742188 127.238281 149.605469 126.882813 149.335938 126.632813 C 149.0625 126.382813 148.683594 126.257813 148.195313 126.257813 C 147.890625 126.257813 147.589844 126.300781 147.289063 126.382813 C 146.996094 126.46875 146.714844 126.59375 146.445313 126.757813 L 146.445313 125.851563 C 146.777344 125.707031 147.09375 125.601563 147.398438 125.539063 C 147.699219 125.46875 147.996094 125.429688 148.289063 125.429688 C 149.070313 125.429688 149.652344 125.65625 150.039063 126.101563 C 150.433594 126.550781 150.632813 127.234375 150.632813 128.148438 Z M 154.710938 132.148438 C 154.460938 132.867188 154.214844 133.328125 153.976563 133.539063 C 153.734375 133.757813 153.417969 133.867188 153.023438 133.867188 L 152.304688 133.867188 L 152.304688 133.054688 L 152.835938 133.054688 C 153.074219 133.054688 153.261719 132.984375 153.398438 132.851563 C 153.53125 132.726563 153.683594 132.421875 153.851563 131.945313 L 154.007813 131.492188 L 151.820313 125.570313 L 152.757813 125.570313 L 154.445313 130.273438 L 156.148438 125.570313 L 157.085938 125.570313 Z M 116.585938 134.570313 L 117.570313 134.570313 L 117.570313 141.679688 L 121.085938 141.679688 L 121.085938 142.585938 L 116.585938 142.585938 Z M 124.523438 139.554688 C 123.804688 139.554688 123.304688 139.648438 123.023438 139.835938 C 122.75 140.023438 122.617188 140.335938 122.617188 140.773438 C 122.617188 141.117188 122.71875 141.394531 122.929688 141.601563 C 123.136719 141.8125 123.417969 141.914063 123.773438 141.914063 C 124.273438 141.914063 124.667969 141.722656 124.960938 141.335938 C 125.261719 140.941406 125.414063 140.425781 125.414063 139.789063 L 125.414063 139.554688 Z M 126.304688 139.148438 L 126.304688 142.585938 L 125.414063 142.585938 L 125.414063 141.679688 C 125.203125 142.046875 124.949219 142.316406 124.648438 142.492188 C 124.34375 142.65625 123.976563 142.742188 123.539063 142.742188 C 122.984375 142.742188 122.542969 142.570313 122.210938 142.226563 C 121.886719 141.882813 121.726563 141.421875 121.726563 140.835938 C 121.726563 140.160156 121.929688 139.648438 122.335938 139.304688 C 122.742188 138.960938 123.351563 138.789063 124.164063 138.789063 L 125.414063 138.789063 L 125.414063 138.695313 C 125.414063 138.238281 125.277344 137.882813 125.007813 137.632813 C 124.734375 137.382813 124.355469 137.257813 123.867188 137.257813 C 123.5625 137.257813 123.261719 137.300781 122.960938 137.382813 C 122.667969 137.46875 122.386719 137.59375 122.117188 137.757813 L 122.117188 136.851563 C 122.449219 136.707031 122.765625 136.601563 123.070313 136.539063 C 123.371094 136.46875 123.667969 136.429688 123.960938 136.429688 C 124.742188 136.429688 125.324219 136.65625 125.710938 137.101563 C 126.105469 137.550781 126.304688 138.234375 126.304688 139.148438 Z M 128.085938 134.226563 L 128.992188 134.226563 L 128.992188 139.164063 L 131.648438 136.570313 L 132.789063 136.570313 L 129.914063 139.382813 L 132.898438 142.585938 L 131.742188 142.585938 L 128.992188 139.648438 L 128.992188 142.585938 L 128.085938 142.585938 Z M 138.492188 139.335938 L 138.492188 139.820313 L 134.398438 139.820313 C 134.4375 140.5 134.625 141.015625 134.960938 141.367188 C 135.292969 141.722656 135.75 141.898438 136.335938 141.898438 C 136.679688 141.898438 137.007813 141.851563 137.320313 141.757813 C 137.640625 141.664063 137.964844 141.53125 138.289063 141.351563 L 138.289063 142.273438 C 137.964844 142.429688 137.636719 142.546875 137.304688 142.617188 C 136.96875 142.699219 136.632813 142.742188 136.289063 142.742188 C 135.421875 142.742188 134.734375 142.46875 134.226563 141.914063 C 133.726563 141.351563 133.476563 140.59375 133.476563 139.632813 C 133.476563 138.65625 133.714844 137.878906 134.195313 137.304688 C 134.671875 136.722656 135.320313 136.429688 136.132813 136.429688 C 136.859375 136.429688 137.433594 136.691406 137.851563 137.210938 C 138.277344 137.734375 138.492188 138.441406 138.492188 139.335938 Z M 137.601563 139.039063 C 137.589844 138.5 137.453125 138.066406 137.195313 137.742188 C 136.933594 137.421875 136.585938 137.257813 136.148438 137.257813 C 135.648438 137.257813 135.246094 137.414063 134.945313 137.726563 C 134.640625 138.039063 134.46875 138.476563 134.429688 139.039063 Z M 137.601563 139.039063 "/>
<path style=" stroke:none;fill-rule:evenodd;fill:rgb(41.960784%,58.039216%,69.019608%);fill-opacity:1;" d="M 113.476563 112.570313 L 114.460938 112.570313 L 114.460938 117.445313 C 114.460938 118.300781 114.601563 118.921875 114.882813 119.304688 C 115.164063 119.679688 115.617188 119.867188 116.242188 119.867188 C 116.867188 119.867188 117.320313 119.679688 117.601563 119.304688 C 117.882813 118.921875 118.023438 118.300781 118.023438 117.445313 L 118.023438 112.570313 L 119.007813 112.570313 L 119.007813 117.570313 C 119.007813 118.625 118.773438 119.414063 118.304688 119.945313 C 117.835938 120.476563 117.148438 120.742188 116.242188 120.742188 C 115.324219 120.742188 114.632813 120.476563 114.164063 119.945313 C 113.703125 119.414063 113.476563 118.625 113.476563 117.570313 Z M 121.664063 119.679688 L 121.664063 122.867188 L 120.757813 122.867188 L 120.757813 114.570313 L 121.664063 114.570313 L 121.664063 115.476563 C 121.851563 115.125 122.085938 114.863281 122.367188 114.695313 C 122.648438 114.519531 122.992188 114.429688 123.398438 114.429688 C 124.054688 114.429688 124.585938 114.722656 124.992188 115.304688 C 125.398438 115.878906 125.601563 116.640625 125.601563 117.585938 C 125.601563 118.535156 125.398438 119.300781 124.992188 119.882813 C 124.585938 120.457031 124.054688 120.742188 123.398438 120.742188 C 122.992188 120.742188 122.648438 120.65625 122.367188 120.492188 C 122.085938 120.316406 121.851563 120.046875 121.664063 119.679688 Z M 124.679688 117.585938 C 124.679688 116.859375 124.542969 116.289063 124.273438 115.882813 C 124.011719 115.46875 123.648438 115.257813 123.179688 115.257813 C 122.699219 115.257813 122.324219 115.46875 122.054688 115.882813 C 121.792969 116.289063 121.664063 116.859375 121.664063 117.585938 C 121.664063 118.316406 121.792969 118.890625 122.054688 119.304688 C 122.324219 119.710938 122.699219 119.914063 123.179688 119.914063 C 123.648438 119.914063 124.011719 119.710938 124.273438 119.304688 C 124.542969 118.890625 124.679688 118.316406 124.679688 117.585938 Z M 127.945313 119.679688 L 127.945313 122.867188 L 127.039063 122.867188 L 127.039063 114.570313 L 127.945313 114.570313 L 127.945313 115.476563 C 128.132813 115.125 128.367188 114.863281 128.648438 114.695313 C 128.929688 114.519531 129.273438 114.429688 129.679688 114.429688 C 130.335938 114.429688 130.867188 114.722656 131.273438 115.304688 C 131.679688 115.878906 131.882813 116.640625 131.882813 117.585938 C 131.882813 118.535156 131.679688 119.300781 131.273438 119.882813 C 130.867188 120.457031 130.335938 120.742188 129.679688 120.742188 C 129.273438 120.742188 128.929688 120.65625 128.648438 120.492188 C 128.367188 120.316406 128.132813 120.046875 127.945313 119.679688 Z M 130.960938 117.585938 C 130.960938 116.859375 130.824219 116.289063 130.554688 115.882813 C 130.292969 115.46875 129.929688 115.257813 129.460938 115.257813 C 128.980469 115.257813 128.605469 115.46875 128.335938 115.882813 C 128.074219 116.289063 127.945313 116.859375 127.945313 117.585938 C 127.945313 118.316406 128.074219 118.890625 128.335938 119.304688 C 128.605469 119.710938 128.980469 119.914063 129.460938 119.914063 C 129.929688 119.914063 130.292969 119.710938 130.554688 119.304688 C 130.824219 118.890625 130.960938 118.316406 130.960938 117.585938 Z M 137.992188 117.335938 L 137.992188 117.820313 L 133.898438 117.820313 C 133.9375 118.5 134.125 119.015625 134.460938 119.367188 C 134.792969 119.722656 135.25 119.898438 135.835938 119.898438 C 136.179688 119.898438 136.507813 119.851563 136.820313 119.757813 C 137.140625 119.664063 137.464844 119.53125 137.789063 119.351563 L 137.789063 120.273438 C 137.464844 120.429688 137.136719 120.546875 136.804688 120.617188 C 136.46875 120.699219 136.132813 120.742188 135.789063 120.742188 C 134.921875 120.742188 134.234375 120.46875 133.726563 119.914063 C 133.226563 119.351563 132.976563 118.59375 132.976563 117.632813 C 132.976563 116.65625 133.214844 115.878906 133.695313 115.304688 C 134.171875 114.722656 134.820313 114.429688 135.632813 114.429688 C 136.359375 114.429688 136.933594 114.691406 137.351563 115.210938 C 137.777344 115.734375 137.992188 116.441406 137.992188 117.335938 Z M 137.101563 117.039063 C 137.089844 116.5 136.953125 116.066406 136.695313 115.742188 C 136.433594 115.421875 136.085938 115.257813 135.648438 115.257813 C 135.148438 115.257813 134.746094 115.414063 134.445313 115.726563 C 134.140625 116.039063 133.96875 116.476563 133.929688 117.039063 Z M 142.601563 115.492188 C 142.496094 115.429688 142.382813 115.382813 142.257813 115.351563 C 142.140625 115.320313 142.015625 115.304688 141.882813 115.304688 C 141.371094 115.304688 140.980469 115.488281 140.710938 115.851563 C 140.449219 116.21875 140.320313 116.738281 140.320313 117.414063 L 140.320313 120.585938 L 139.414063 120.585938 L 139.414063 114.570313 L 140.320313 114.570313 L 140.320313 115.507813 C 140.507813 115.144531 140.746094 114.875 141.039063 114.695313 C 141.339844 114.519531 141.703125 114.429688 142.132813 114.429688 C 142.195313 114.429688 142.261719 114.4375 142.335938 114.445313 C 142.417969 114.445313 142.5 114.457031 142.585938 114.476563 Z M 103.992188 124.179688 L 103.992188 125.335938 C 103.65625 124.992188 103.304688 124.738281 102.929688 124.570313 C 102.5625 124.40625 102.171875 124.320313 101.757813 124.320313 C 100.933594 124.320313 100.296875 124.601563 99.851563 125.164063 C 99.414063 125.71875 99.195313 126.523438 99.195313 127.585938 C 99.195313 128.640625 99.414063 129.445313 99.851563 130.007813 C 100.296875 130.570313 100.933594 130.851563 101.757813 130.851563 C 102.171875 130.851563 102.5625 130.769531 102.929688 130.601563 C 103.304688 130.4375 103.65625 130.179688 103.992188 129.835938 L 103.992188 130.960938 C 103.648438 131.222656 103.28125 131.421875 102.898438 131.554688 C 102.523438 131.679688 102.121094 131.742188 101.695313 131.742188 C 100.601563 131.742188 99.742188 131.375 99.117188 130.632813 C 98.492188 129.882813 98.179688 128.867188 98.179688 127.585938 C 98.179688 126.296875 98.492188 125.28125 99.117188 124.539063 C 99.742188 123.789063 100.601563 123.414063 101.695313 123.414063 C 102.132813 123.414063 102.539063 123.484375 102.914063 123.617188 C 103.296875 123.742188 103.65625 123.929688 103.992188 124.179688 Z M 109.960938 127.960938 L 109.960938 131.585938 L 109.070313 131.585938 L 109.070313 127.992188 C 109.070313 127.421875 108.964844 126.992188 108.757813 126.710938 C 108.558594 126.429688 108.261719 126.289063 107.867188 126.289063 C 107.386719 126.289063 107.007813 126.460938 106.726563 126.804688 C 106.453125 127.140625 106.320313 127.597656 106.320313 128.179688 L 106.320313 131.585938 L 105.414063 131.585938 L 105.414063 123.226563 L 106.320313 123.226563 L 106.320313 126.507813 C 106.527344 126.144531 106.773438 125.875 107.054688 125.695313 C 107.34375 125.519531 107.683594 125.429688 108.070313 125.429688 C 108.683594 125.429688 109.152344 125.644531 109.476563 126.070313 C 109.796875 126.5 109.960938 127.128906 109.960938 127.960938 Z M 114.195313 128.554688 C 113.476563 128.554688 112.976563 128.648438 112.695313 128.835938 C 112.421875 129.023438 112.289063 129.335938 112.289063 129.773438 C 112.289063 130.117188 112.390625 130.394531 112.601563 130.601563 C 112.808594 130.8125 113.089844 130.914063 113.445313 130.914063 C 113.945313 130.914063 114.339844 130.722656 114.632813 130.335938 C 114.933594 129.941406 115.085938 129.425781 115.085938 128.789063 L 115.085938 128.554688 Z M 115.976563 128.148438 L 115.976563 131.585938 L 115.085938 131.585938 L 115.085938 130.679688 C 114.875 131.046875 114.621094 131.316406 114.320313 131.492188 C 114.015625 131.65625 113.648438 131.742188 113.210938 131.742188 C 112.65625 131.742188 112.214844 131.570313 111.882813 131.226563 C 111.558594 130.882813 111.398438 130.421875 111.398438 129.835938 C 111.398438 129.160156 111.601563 128.648438 112.007813 128.304688 C 112.414063 127.960938 113.023438 127.789063 113.835938 127.789063 L 115.085938 127.789063 L 115.085938 127.695313 C 115.085938 127.238281 114.949219 126.882813 114.679688 126.632813 C 114.40625 126.382813 114.027344 126.257813 113.539063 126.257813 C 113.234375 126.257813 112.933594 126.300781 112.632813 126.382813 C 112.339844 126.46875 112.058594 126.59375 111.789063 126.757813 L 111.789063 125.851563 C 112.121094 125.707031 112.4375 125.601563 112.742188 125.539063 C 113.042969 125.46875 113.339844 125.429688 113.632813 125.429688 C 114.414063 125.429688 114.996094 125.65625 115.382813 126.101563 C 115.777344 126.550781 115.976563 127.234375 115.976563 128.148438 Z M 118.679688 123.867188 L 118.679688 125.570313 L 120.507813 125.570313 L 120.507813 126.335938 L 118.679688 126.335938 L 118.679688 129.601563 C 118.679688 130.09375 118.734375 130.410156 118.851563 130.554688 C 118.976563 130.691406 119.226563 130.757813 119.601563 130.757813 L 120.507813 130.757813 L 120.507813 131.585938 L 119.601563 131.585938 C 118.914063 131.585938 118.4375 131.445313 118.179688 131.164063 C 117.917969 130.875 117.789063 130.351563 117.789063 129.601563 L 117.789063 126.335938 L 117.132813 126.335938 L 117.132813 125.570313 L 117.789063 125.570313 L 117.789063 123.867188 Z M 126.304688 128.335938 L 126.304688 128.820313 L 122.210938 128.820313 C 122.25 129.5 122.4375 130.015625 122.773438 130.367188 C 123.105469 130.722656 123.5625 130.898438 124.148438 130.898438 C 124.492188 130.898438 124.820313 130.851563 125.132813 130.757813 C 125.453125 130.664063 125.777344 130.53125 126.101563 130.351563 L 126.101563 131.273438 C 125.777344 131.429688 125.449219 131.546875 125.117188 131.617188 C 124.78125 131.699219 124.445313 131.742188 124.101563 131.742188 C 123.234375 131.742188 122.546875 131.46875 122.039063 130.914063 C 121.539063 130.351563 121.289063 129.59375 121.289063 128.632813 C 121.289063 127.65625 121.527344 126.878906 122.007813 126.304688 C 122.484375 125.722656 123.132813 125.429688 123.945313 125.429688 C 124.671875 125.429688 125.246094 125.691406 125.664063 126.210938 C 126.089844 126.734375 126.304688 127.441406 126.304688 128.335938 Z M 125.414063 128.039063 C 125.402344 127.5 125.265625 127.066406 125.007813 126.742188 C 124.746094 126.421875 124.398438 126.257813 123.960938 126.257813 C 123.460938 126.257813 123.058594 126.414063 122.757813 126.726563 C 122.453125 127.039063 122.28125 127.476563 122.242188 128.039063 Z M 130.226563 128.554688 C 129.507813 128.554688 129.007813 128.648438 128.726563 128.835938 C 128.453125 129.023438 128.320313 129.335938 128.320313 129.773438 C 128.320313 130.117188 128.421875 130.394531 128.632813 130.601563 C 128.839844 130.8125 129.121094 130.914063 129.476563 130.914063 C 129.976563 130.914063 130.371094 130.722656 130.664063 130.335938 C 130.964844 129.941406 131.117188 129.425781 131.117188 128.789063 L 131.117188 128.554688 Z M 132.007813 128.148438 L 132.007813 131.585938 L 131.117188 131.585938 L 131.117188 130.679688 C 130.90625 131.046875 130.652344 131.316406 130.351563 131.492188 C 130.046875 131.65625 129.679688 131.742188 129.242188 131.742188 C 128.6875 131.742188 128.246094 131.570313 127.914063 131.226563 C 127.589844 130.882813 127.429688 130.421875 127.429688 129.835938 C 127.429688 129.160156 127.632813 128.648438 128.039063 128.304688 C 128.445313 127.960938 129.054688 127.789063 129.867188 127.789063 L 131.117188 127.789063 L 131.117188 127.695313 C 131.117188 127.238281 130.980469 126.882813 130.710938 126.632813 C 130.4375 126.382813 130.058594 126.257813 129.570313 126.257813 C 129.265625 126.257813 128.964844 126.300781 128.664063 126.382813 C 128.371094 126.46875 128.089844 126.59375 127.820313 126.757813 L 127.820313 125.851563 C 128.152344 125.707031 128.46875 125.601563 128.773438 125.539063 C 129.074219 125.46875 129.371094 125.429688 129.664063 125.429688 C 130.445313 125.429688 131.027344 125.65625 131.414063 126.101563 C 131.808594 126.550781 132.007813 127.234375 132.007813 128.148438 Z M 133.742188 129.210938 L 133.742188 125.570313 L 134.632813 125.570313 L 134.632813 129.179688 C 134.632813 129.742188 134.730469 130.171875 134.929688 130.460938 C 135.125 130.742188 135.421875 130.882813 135.820313 130.882813 C 136.308594 130.882813 136.6875 130.71875 136.960938 130.382813 C 137.242188 130.039063 137.382813 129.570313 137.382813 128.976563 L 137.382813 125.570313 L 138.273438 125.570313 L 138.273438 131.585938 L 137.382813 131.585938 L 137.382813 130.664063 C 137.164063 131.03125 136.914063 131.300781 136.632813 131.476563 C 136.351563 131.652344 136.015625 131.742188 135.632813 131.742188 C 135.015625 131.742188 134.546875 131.53125 134.226563 131.101563 C 133.902344 130.664063 133.742188 130.035156 133.742188 129.210938 Z M 135.976563 125.429688 Z M 143.679688 128.507813 C 143.679688 127.789063 143.542969 127.238281 143.273438 126.851563 C 143.011719 126.457031 142.636719 126.257813 142.148438 126.257813 C 141.679688 126.257813 141.308594 126.457031 141.039063 126.851563 C 140.777344 127.238281 140.648438 127.789063 140.648438 128.507813 C 140.648438 129.21875 140.777344 129.769531 141.039063 130.164063 C 141.308594 130.5625 141.679688 130.757813 142.148438 130.757813 C 142.636719 130.757813 143.011719 130.5625 143.273438 130.164063 C 143.542969 129.769531 143.679688 129.21875 143.679688 128.507813 Z M 144.570313 130.835938 C 144.570313 131.867188 144.359375 132.625 143.945313 133.117188 C 143.539063 133.617188 142.914063 133.867188 142.070313 133.867188 C 141.757813 133.867188 141.460938 133.839844 141.179688 133.789063 C 140.90625 133.734375 140.640625 133.65625 140.382813 133.554688 L 140.382813 132.601563 C 140.640625 132.757813 140.898438 132.871094 141.148438 132.945313 C 141.40625 133.015625 141.667969 133.054688 141.929688 133.054688 C 142.511719 133.054688 142.949219 132.882813 143.242188 132.539063 C 143.53125 132.203125 143.679688 131.699219 143.679688 131.023438 L 143.679688 130.523438 C 143.492188 130.878906 143.25 131.144531 142.960938 131.320313 C 142.679688 131.5 142.339844 131.585938 141.945313 131.585938 C 141.277344 131.585938 140.742188 131.304688 140.335938 130.742188 C 139.929688 130.179688 139.726563 129.4375 139.726563 128.507813 C 139.726563 127.582031 139.929688 126.835938 140.335938 126.273438 C 140.742188 125.710938 141.277344 125.429688 141.945313 125.429688 C 142.339844 125.429688 142.679688 125.519531 142.960938 125.695313 C 143.25 125.863281 143.492188 126.125 143.679688 126.476563 L 143.679688 125.570313 L 144.570313 125.570313 Z M 148.851563 128.554688 C 148.132813 128.554688 147.632813 128.648438 147.351563 128.835938 C 147.078125 129.023438 146.945313 129.335938 146.945313 129.773438 C 146.945313 130.117188 147.046875 130.394531 147.257813 130.601563 C 147.464844 130.8125 147.746094 130.914063 148.101563 130.914063 C 148.601563 130.914063 148.996094 130.722656 149.289063 130.335938 C 149.589844 129.941406 149.742188 129.425781 149.742188 128.789063 L 149.742188 128.554688 Z M 150.632813 128.148438 L 150.632813 131.585938 L 149.742188 131.585938 L 149.742188 130.679688 C 149.53125 131.046875 149.277344 131.316406 148.976563 131.492188 C 148.671875 131.65625 148.304688 131.742188 147.867188 131.742188 C 147.3125 131.742188 146.871094 131.570313 146.539063 131.226563 C 146.214844 130.882813 146.054688 130.421875 146.054688 129.835938 C 146.054688 129.160156 146.257813 128.648438 146.664063 128.304688 C 147.070313 127.960938 147.679688 127.789063 148.492188 127.789063 L 149.742188 127.789063 L 149.742188 127.695313 C 149.742188 127.238281 149.605469 126.882813 149.335938 126.632813 C 149.0625 126.382813 148.683594 126.257813 148.195313 126.257813 C 147.890625 126.257813 147.589844 126.300781 147.289063 126.382813 C 146.996094 126.46875 146.714844 126.59375 146.445313 126.757813 L 146.445313 125.851563 C 146.777344 125.707031 147.09375 125.601563 147.398438 125.539063 C 147.699219 125.46875 147.996094 125.429688 148.289063 125.429688 C 149.070313 125.429688 149.652344 125.65625 150.039063 126.101563 C 150.433594 126.550781 150.632813 127.234375 150.632813 128.148438 Z M 154.710938 132.148438 C 154.460938 132.867188 154.214844 133.328125 153.976563 133.539063 C 153.734375 133.757813 153.417969 133.867188 153.023438 133.867188 L 152.304688 133.867188 L 152.304688 133.054688 L 152.835938 133.054688 C 153.074219 133.054688 153.261719 132.984375 153.398438 132.851563 C 153.53125 132.726563 153.683594 132.421875 153.851563 131.945313 L 154.007813 131.492188 L 151.820313 125.570313 L 152.757813 125.570313 L 154.445313 130.273438 L 156.148438 125.570313 L 157.085938 125.570313 Z M 116.585938 134.570313 L 117.570313 134.570313 L 117.570313 141.679688 L 121.085938 141.679688 L 121.085938 142.585938 L 116.585938 142.585938 Z M 124.523438 139.554688 C 123.804688 139.554688 123.304688 139.648438 123.023438 139.835938 C 122.75 140.023438 122.617188 140.335938 122.617188 140.773438 C 122.617188 141.117188 122.71875 141.394531 122.929688 141.601563 C 123.136719 141.8125 123.417969 141.914063 123.773438 141.914063 C 124.273438 141.914063 124.667969 141.722656 124.960938 141.335938 C 125.261719 140.941406 125.414063 140.425781 125.414063 139.789063 L 125.414063 139.554688 Z M 126.304688 139.148438 L 126.304688 142.585938 L 125.414063 142.585938 L 125.414063 141.679688 C 125.203125 142.046875 124.949219 142.316406 124.648438 142.492188 C 124.34375 142.65625 123.976563 142.742188 123.539063 142.742188 C 122.984375 142.742188 122.542969 142.570313 122.210938 142.226563 C 121.886719 141.882813 121.726563 141.421875 121.726563 140.835938 C 121.726563 140.160156 121.929688 139.648438 122.335938 139.304688 C 122.742188 138.960938 123.351563 138.789063 124.164063 138.789063 L 125.414063 138.789063 L 125.414063 138.695313 C 125.414063 138.238281 125.277344 137.882813 125.007813 137.632813 C 124.734375 137.382813 124.355469 137.257813 123.867188 137.257813 C 123.5625 137.257813 123.261719 137.300781 122.960938 137.382813 C 122.667969 137.46875 122.386719 137.59375 122.117188 137.757813 L 122.117188 136.851563 C 122.449219 136.707031 122.765625 136.601563 123.070313 136.539063 C 123.371094 136.46875 123.667969 136.429688 123.960938 136.429688 C 124.742188 136.429688 125.324219 136.65625 125.710938 137.101563 C 126.105469 137.550781 126.304688 138.234375 126.304688 139.148438 Z M 128.085938 134.226563 L 128.992188 134.226563 L 128.992188 139.164063 L 131.648438 136.570313 L 132.789063 136.570313 L 129.914063 139.382813 L 132.898438 142.585938 L 131.742188 142.585938 L 128.992188 139.648438 L 128.992188 142.585938 L 128.085938 142.585938 Z M 138.492188 139.335938 L 138.492188 139.820313 L 134.398438 139.820313 C 134.4375 140.5 134.625 141.015625 134.960938 141.367188 C 135.292969 141.722656 135.75 141.898438 136.335938 141.898438 C 136.679688 141.898438 137.007813 141.851563 137.320313 141.757813 C 137.640625 141.664063 137.964844 141.53125 138.289063 141.351563 L 138.289063 142.273438 C 137.964844 142.429688 137.636719 142.546875 137.304688 142.617188 C 136.96875 142.699219 136.632813 142.742188 136.289063 142.742188 C 135.421875 142.742188 134.734375 142.46875 134.226563 141.914063 C 133.726563 141.351563 133.476563 140.59375 133.476563 139.632813 C 133.476563 138.65625 133.714844 137.878906 134.195313 137.304688 C 134.671875 136.722656 135.320313 136.429688 136.132813 136.429688 C 136.859375 136.429688 137.433594 136.691406 137.851563 137.210938 C 138.277344 137.734375 138.492188 138.441406 138.492188 139.335938 Z M 137.601563 139.039063 C 137.589844 138.5 137.453125 138.066406 137.195313 137.742188 C 136.933594 137.421875 136.585938 137.257813 136.148438 137.257813 C 135.648438 137.257813 135.246094 137.414063 134.945313 137.726563 C 134.640625 138.039063 134.46875 138.476563 134.429688 139.039063 Z M 137.601563 139.039063 "/>
</g>
</svg>

