<?xml version="1.0" encoding="UTF-8"?>
<svg xmlns="http://www.w3.org/2000/svg" xmlns:xlink="http://www.w3.org/1999/xlink" width="256pt" height="256pt" viewBox="0 0 256 256" version="1.1">
<g id="surface2">
<rect x="0" y="0" width="256" height="256" style="fill:rgb(94.901961%,93.72549%,91.372549%);fill-opacity:1;stroke:none;"/>
<path style="fill:none;stroke-width:8;stroke-linecap:round;stroke-linejoin:round;stroke:rgb(75.686275%,70.980392%,61.568627%);stroke-opacity:1;stroke-miterlimit:10;" d="M 156.382813 264 L 145.34375 184.421875 L 140.496094 141.851563 L 130.011719 67.269531 L 129.730469 65.230469 L 119.027344 -9 "/>
<path style="fill:none;stroke-width:6;stroke-linecap:round;stroke-linejoin:round;stroke:rgb(100%,100%,100%);stroke-opacity:1;stroke-miterlimit:10;" d="M 156.382813 264 L 145.34375 184.421875 L 140.496094 141.851563 L 130.011719 67.269531 L 129.730469 65.230469 L 119.027344 -9 "/>
<path style="fill:none;stroke-width:3;stroke-linecap:round;stroke-linejoin:round;stroke:rgb(100%,100%,100%);stroke-opacity:1;stroke-miterlimit:10;" d="M 136.636719 89.945313 L 135.496094 90.101563 C 135.785156 89.726563 135.984375 89.339844 136.089844 88.945313 C 136.203125 88.558594 136.234375 88.15625 136.183594 87.742188 C 136.066406 86.929688 135.703125 86.339844 135.089844 85.976563 C 134.484375 85.621094 133.65625 85.515625 132.605469 85.664063 C 131.550781 85.808594 130.78125 86.136719 130.292969 86.648438 C 129.800781 87.167969 129.613281 87.835938 129.730469 88.648438 C 129.78125 89.0625 129.910156 89.445313 130.121094 89.789063 C 130.339844 90.132813 130.644531 90.445313 131.042969 90.726563 L 129.933594 90.882813 C 129.621094 90.578125 129.371094 90.246094 129.183594 89.882813 C 129.003906 89.527344 128.886719 89.136719 128.824219 88.710938 C 128.675781 87.625 128.925781 86.726563 129.574219 86.007813 C 130.230469 85.289063 131.191406 84.839844 132.464844 84.664063 C 133.734375 84.488281 134.78125 84.65625 135.605469 85.164063 C 136.4375 85.671875 136.925781 86.46875 137.074219 87.554688 C 137.136719 87.992188 137.125 88.40625 137.042969 88.804688 C 136.96875 89.199219 136.832031 89.578125 136.636719 89.945313 Z M 135.082031 93.769531 C 135.019531 93.300781 134.757813 92.957031 134.300781 92.738281 C 133.839844 92.519531 133.257813 92.457031 132.550781 92.550781 C 131.839844 92.652344 131.304688 92.871094 130.941406 93.207031 C 130.574219 93.539063 130.425781 93.941406 130.488281 94.410156 C 130.550781 94.886719 130.804688 95.230469 131.253906 95.441406 C 131.699219 95.660156 132.277344 95.714844 132.988281 95.613281 C 133.695313 95.519531 134.238281 95.304688 134.613281 94.972656 C 134.988281 94.648438 135.144531 94.246094 135.082031 93.769531 Z M 135.894531 93.644531 C 135.996094 94.402344 135.804688 95.042969 135.316406 95.566406 C 134.824219 96.085938 134.089844 96.414063 133.113281 96.550781 C 132.144531 96.683594 131.347656 96.570313 130.722656 96.207031 C 130.105469 95.839844 129.746094 95.277344 129.644531 94.519531 C 129.539063 93.746094 129.730469 93.105469 130.222656 92.597656 C 130.722656 92.085938 131.457031 91.761719 132.425781 91.628906 C 133.402344 91.496094 134.199219 91.601563 134.816406 91.957031 C 135.429688 92.308594 135.789063 92.871094 135.894531 93.644531 Z M 132.703125 97.992188 L 136.296875 97.476563 L 136.40625 98.367188 L 132.828125 98.882813 C 132.273438 98.953125 131.875 99.109375 131.625 99.351563 C 131.375 99.589844 131.273438 99.902344 131.328125 100.289063 C 131.398438 100.777344 131.617188 101.132813 131.984375 101.351563 C 132.359375 101.578125 132.835938 101.652344 133.421875 101.570313 L 136.796875 101.085938 L 136.921875 101.976563 L 130.96875 102.820313 L 130.84375 101.929688 L 131.75 101.804688 C 131.363281 101.636719 131.0625 101.421875 130.84375 101.164063 C 130.632813 100.914063 130.5 100.59375 130.4375 100.210938 C 130.351563 99.605469 130.503906 99.109375 130.890625 98.726563 C 131.273438 98.351563 131.878906 98.105469 132.703125 97.992188 Z M 136.734375 99.679688 Z M 135.4375 108.601563 L 131.84375 109.101563 L 131.734375 108.210938 L 135.296875 107.710938 C 135.859375 107.625 136.265625 107.464844 136.515625 107.226563 C 136.765625 106.996094 136.863281 106.683594 136.8125 106.289063 C 136.738281 105.808594 136.515625 105.453125 136.140625 105.226563 C 135.765625 105.007813 135.289063 104.9375 134.71875 105.023438 L 131.34375 105.492188 L 131.21875 104.585938 L 137.171875 103.742188 L 137.296875 104.648438 L 136.375 104.789063 C 136.757813 104.945313 137.054688 105.148438 137.265625 105.398438 C 137.484375 105.65625 137.625 105.980469 137.6875 106.367188 C 137.769531 106.96875 137.617188 107.464844 137.234375 107.851563 C 136.859375 108.234375 136.257813 108.484375 135.4375 108.601563 Z M 139.859375 110.648438 L 138.171875 110.882813 L 138.421875 112.695313 L 137.671875 112.804688 L 137.421875 110.992188 L 134.1875 111.445313 C 133.695313 111.515625 133.390625 111.621094 133.265625 111.757813 C 133.140625 111.902344 133.101563 112.15625 133.15625 112.523438 L 133.28125 113.429688 L 132.46875 113.539063 L 132.34375 112.632813 C 132.25 111.953125 132.320313 111.464844 132.5625 111.164063 C 132.8125 110.859375 133.3125 110.65625 134.0625 110.554688 L 137.296875 110.101563 L 137.203125 109.460938 L 137.953125 109.351563 L 138.046875 109.992188 L 139.734375 109.757813 Z M 132.382813 117.003906 C 131.644531 116.855469 131.15625 116.679688 130.914063 116.472656 C 130.664063 116.261719 130.507813 115.960938 130.445313 115.566406 L 130.351563 114.863281 L 131.164063 114.753906 L 131.242188 115.269531 C 131.273438 115.507813 131.367188 115.683594 131.523438 115.800781 C 131.671875 115.925781 131.988281 116.035156 132.476563 116.128906 L 132.945313 116.207031 L 138.507813 113.222656 L 138.632813 114.144531 L 134.210938 116.472656 L 139.101563 117.503906 L 139.242188 118.441406 Z M 141.839844 122.523438 L 141.964844 123.507813 L 134.917969 124.492188 L 135.417969 127.976563 L 134.527344 128.101563 L 133.902344 123.632813 Z M 140.609375 128.222656 L 140.734375 129.113281 L 134.78125 129.957031 L 134.65625 129.066406 Z M 142.9375 127.910156 L 143.0625 128.800781 L 141.828125 128.972656 L 141.703125 128.082031 Z M 139.257813 135.757813 L 135.664063 136.257813 L 135.554688 135.367188 L 139.117188 134.867188 C 139.679688 134.78125 140.085938 134.621094 140.335938 134.382813 C 140.585938 134.152344 140.683594 133.839844 140.632813 133.445313 C 140.558594 132.964844 140.335938 132.609375 139.960938 132.382813 C 139.585938 132.164063 139.109375 132.09375 138.539063 132.179688 L 135.164063 132.648438 L 135.039063 131.742188 L 140.992188 130.898438 L 141.117188 131.804688 L 140.195313 131.945313 C 140.578125 132.101563 140.875 132.304688 141.085938 132.554688 C 141.304688 132.8125 141.445313 133.136719 141.507813 133.523438 C 141.589844 134.125 141.4375 134.621094 141.054688 135.007813 C 140.679688 135.390625 140.078125 135.640625 139.257813 135.757813 Z M 139.753906 142.152344 L 139.269531 142.214844 L 138.722656 138.152344 C 138.054688 138.285156 137.570313 138.542969 137.269531 138.917969 C 136.964844 139.292969 136.855469 139.769531 136.941406 140.355469 C 136.980469 140.699219 137.066406 141.019531 137.191406 141.324219 C 137.324219 141.625 137.507813 141.921875 137.738281 142.214844 L 136.832031 142.339844 C 136.621094 142.035156 136.457031 141.722656 136.332031 141.402344 C 136.214844 141.089844 136.132813 140.761719 136.082031 140.417969 C 135.964844 139.5625 136.148438 138.847656 136.628906 138.277344 C 137.117188 137.703125 137.835938 137.347656 138.785156 137.214844 C 139.753906 137.078125 140.554688 137.207031 141.191406 137.605469 C 141.824219 138 142.199219 138.597656 142.316406 139.402344 C 142.410156 140.121094 142.226563 140.722656 141.769531 141.214844 C 141.308594 141.714844 140.636719 142.027344 139.753906 142.152344 Z M 139.941406 141.214844 C 140.472656 141.128906 140.878906 140.9375 141.160156 140.636719 C 141.449219 140.34375 141.566406 139.980469 141.503906 139.542969 C 141.441406 139.050781 141.230469 138.675781 140.878906 138.417969 C 140.523438 138.15625 140.066406 138.042969 139.503906 138.074219 Z M 141.191406 150.078125 C 141.136719 150.296875 140.992188 150.515625 140.753906 150.734375 C 140.523438 150.960938 140.195313 151.207031 139.769531 151.46875 L 137.707031 152.6875 L 137.582031 151.65625 L 139.519531 150.5 C 140.027344 150.195313 140.355469 149.925781 140.503906 149.6875 C 140.660156 149.445313 140.714844 149.132813 140.675781 148.75 L 140.550781 147.6875 L 137.175781 148.078125 L 137.066406 147.109375 L 145.035156 146.203125 L 145.285156 148.390625 C 145.378906 149.210938 145.257813 149.84375 144.925781 150.28125 C 144.589844 150.726563 144.039063 151 143.269531 151.09375 C 142.769531 151.144531 142.335938 151.082031 141.972656 150.90625 C 141.617188 150.738281 141.355469 150.460938 141.191406 150.078125 Z M 144.253906 147.265625 L 141.425781 147.59375 L 141.566406 148.8125 C 141.617188 149.28125 141.773438 149.617188 142.035156 149.828125 C 142.304688 150.046875 142.675781 150.128906 143.144531 150.078125 C 143.601563 150.023438 143.933594 149.863281 144.144531 149.59375 C 144.363281 149.320313 144.445313 148.953125 144.394531 148.484375 Z M 143.378906 155.375 C 143.324219 154.894531 143.074219 154.539063 142.628906 154.3125 C 142.179688 154.082031 141.601563 154.007813 140.894531 154.09375 C 140.175781 154.175781 139.628906 154.378906 139.253906 154.703125 C 138.878906 155.023438 138.714844 155.425781 138.769531 155.90625 C 138.820313 156.375 139.066406 156.722656 139.503906 156.953125 C 139.941406 157.179688 140.519531 157.253906 141.238281 157.171875 C 141.945313 157.085938 142.492188 156.882813 142.878906 156.5625 C 143.261719 156.238281 143.429688 155.84375 143.378906 155.375 Z M 144.191406 155.28125 C 144.273438 156.039063 144.066406 156.675781 143.566406 157.1875 C 143.066406 157.695313 142.324219 158.003906 141.347656 158.109375 C 140.367188 158.222656 139.570313 158.085938 138.957031 157.703125 C 138.351563 157.328125 138.007813 156.757813 137.925781 156 C 137.832031 155.21875 138.039063 154.578125 138.550781 154.078125 C 139.058594 153.585938 139.804688 153.285156 140.785156 153.171875 C 141.761719 153.066406 142.550781 153.195313 143.144531 153.5625 C 143.746094 153.925781 144.097656 154.5 144.191406 155.28125 Z M 141.828125 162.007813 C 141.742188 161.289063 141.59375 160.796875 141.375 160.539063 C 141.15625 160.289063 140.828125 160.1875 140.390625 160.242188 C 140.046875 160.28125 139.78125 160.417969 139.59375 160.648438 C 139.414063 160.875 139.347656 161.167969 139.390625 161.523438 C 139.453125 162.023438 139.691406 162.398438 140.109375 162.648438 C 140.523438 162.898438 141.050781 162.984375 141.6875 162.914063 L 141.921875 162.882813 Z M 142.421875 163.726563 L 139 164.117188 L 138.90625 163.226563 L 139.8125 163.117188 C 139.425781 162.949219 139.128906 162.726563 138.921875 162.445313 C 138.710938 162.171875 138.582031 161.820313 138.53125 161.382813 C 138.46875 160.828125 138.585938 160.371094 138.890625 160.007813 C 139.203125 159.652344 139.644531 159.4375 140.21875 159.367188 C 140.894531 159.292969 141.425781 159.4375 141.8125 159.804688 C 142.195313 160.167969 142.4375 160.757813 142.53125 161.570313 L 142.671875 162.804688 L 142.765625 162.789063 C 143.222656 162.734375 143.5625 162.558594 143.78125 162.257813 C 144 161.964844 144.082031 161.574219 144.03125 161.085938 C 144 160.78125 143.921875 160.484375 143.796875 160.195313 C 143.679688 159.914063 143.523438 159.652344 143.328125 159.414063 L 144.234375 159.304688 C 144.421875 159.617188 144.5625 159.917969 144.65625 160.210938 C 144.75 160.5 144.8125 160.792969 144.84375 161.085938 C 144.9375 161.855469 144.78125 162.460938 144.375 162.898438 C 143.976563 163.34375 143.328125 163.621094 142.421875 163.726563 Z M 144.699219 168.890625 L 147.933594 168.515625 L 148.027344 169.40625 L 139.714844 170.359375 L 139.621094 169.46875 L 140.527344 169.359375 C 140.140625 169.210938 139.84375 169.007813 139.636719 168.75 C 139.425781 168.488281 139.300781 168.160156 139.261719 167.765625 C 139.1875 167.109375 139.410156 166.546875 139.933594 166.078125 C 140.464844 165.609375 141.203125 165.316406 142.152344 165.203125 C 143.089844 165.097656 143.863281 165.210938 144.480469 165.546875 C 145.105469 165.890625 145.453125 166.390625 145.527344 167.046875 C 145.566406 167.441406 145.519531 167.789063 145.386719 168.09375 C 145.261719 168.394531 145.03125 168.660156 144.699219 168.890625 Z M 142.261719 166.109375 C 141.53125 166.191406 140.972656 166.390625 140.589844 166.703125 C 140.214844 167.015625 140.050781 167.40625 140.105469 167.875 C 140.167969 168.34375 140.417969 168.6875 140.855469 168.90625 C 141.292969 169.132813 141.875 169.207031 142.605469 169.125 C 143.324219 169.039063 143.871094 168.835938 144.246094 168.515625 C 144.628906 168.203125 144.792969 167.8125 144.730469 167.34375 C 144.675781 166.875 144.433594 166.53125 143.996094 166.3125 C 143.558594 166.09375 142.980469 166.023438 142.261719 166.109375 Z M 142.261719 166.109375 "/>
<path style=" stroke:none;fill-rule:evenodd;fill:rgb(20%,20%,20%);fill-opacity:1;" d="M 136.636719 89.945313 L 135.496094 90.101563 C 135.785156 89.726563 135.984375 89.339844 136.089844 88.945313 C 136.203125 88.558594 136.234375 88.15625 136.183594 87.742188 C 136.066406 86.929688 135.703125 86.339844 135.089844 85.976563 C 134.484375 85.621094 133.65625 85.515625 132.605469 85.664063 C 131.550781 85.808594 130.78125 86.136719 130.292969 86.648438 C 129.800781 87.167969 129.613281 87.835938 129.730469 88.648438 C 129.78125 89.0625 129.910156 89.445313 130.121094 89.789063 C 130.339844 90.132813 130.644531 90.445313 131.042969 90.726563 L 129.933594 90.882813 C 129.621094 90.578125 129.371094 90.246094 129.183594 89.882813 C 129.003906 89.527344 128.886719 89.136719 128.824219 88.710938 C 128.675781 87.625 128.925781 86.726563 129.574219 86.007813 C 130.230469 85.289063 131.191406 84.839844 132.464844 84.664063 C 133.734375 84.488281 134.78125 84.65625 135.605469 85.164063 C 136.4375 85.671875 136.925781 86.46875 137.074219 87.554688 C 137.136719 87.992188 137.125 88.40625 137.042969 88.804688 C 136.96875 89.199219 136.832031 89.578125 136.636719 89.945313 Z M 135.082031 93.769531 C 135.019531 93.300781 134.757813 92.957031 134.300781 92.738281 C 133.839844 92.519531 133.257813 92.457031 132.550781 92.550781 C 131.839844 92.652344 131.304688 92.871094 130.941406 93.207031 C 130.574219 93.539063 130.425781 93.941406 130.488281 94.410156 C 130.550781 94.886719 130.804688 95.230469 131.253906 95.441406 C 131.699219 95.660156 132.277344 95.714844 132.988281 95.613281 C 133.695313 95.519531 134.238281 95.304688 134.613281 94.972656 C 134.988281 94.648438 135.144531 94.246094 135.082031 93.769531 Z M 135.894531 93.644531 C 135.996094 94.402344 135.804688 95.042969 135.316406 95.566406 C 134.824219 96.085938 134.089844 96.414063 133.113281 96.550781 C 132.144531 96.683594 131.347656 96.570313 130.722656 96.207031 C 130.105469 95.839844 129.746094 95.277344 129.644531 94.519531 C 129.539063 93.746094 129.730469 93.105469 130.222656 92.597656 C 130.722656 92.085938 131.457031 91.761719 132.425781 91.628906 C 133.402344 91.496094 134.199219 91.601563 134.816406 91.957031 C 135.429688 92.308594 135.789063 92.871094 135.894531 93.644531 Z M 132.703125 97.992188 L 136.296875 97.476563 L 136.40625 98.367188 L 132.828125 98.882813 C 132.273438 98.953125 131.875 99.109375 131.625 99.351563 C 131.375 99.589844 131.273438 99.902344 131.328125 100.289063 C 131.398438 100.777344 131.617188 101.132813 131.984375 101.351563 C 132.359375 101.578125 132.835938 101.652344 133.421875 101.570313 L 136.796875 101.085938 L 136.921875 101.976563 L 130.96875 102.820313 L 130.84375 101.929688 L 131.75 101.804688 C 131.363281 101.636719 131.0625 101.421875 130.84375 101.164063 C 130.632813 100.914063 130.5 100.59375 130.4375 100.210938 C 130.351563 99.605469 130.503906 99.109375 130.890625 98.726563 C 131.273438 98.351563 131.878906 98.105469 132.703125 97.992188 Z M 136.734375 99.679688 Z M 135.4375 108.601563 L 131.84375 109.101563 L 131.734375 108.210938 L 135.296875 107.710938 C 135.859375 107.625 136.265625 107.464844 136.515625 107.226563 C 136.765625 106.996094 136.863281 106.683594 136.8125 106.289063 C 136.738281 105.808594 136.515625 105.453125 136.140625 105.226563 C 135.765625 105.007813 135.289063 104.9375 134.71875 105.023438 L 131.34375 105.492188 L 131.21875 104.585938 L 137.171875 103.742188 L 137.296875 104.648438 L 136.375 104.789063 C 136.757813 104.945313 137.054688 105.148438 137.265625 105.398438 C 137.484375 105.65625 137.625 105.980469 137.6875 106.367188 C 137.769531 106.96875 137.617188 107.464844 137.234375 107.851563 C 136.859375 108.234375 136.257813 108.484375 135.4375 108.601563 Z M 139.859375 110.648438 L 138.171875 110.882813 L 138.421875 112.695313 L 137.671875 112.804688 L 137.421875 110.992188 L 134.1875 111.445313 C 133.695313 111.515625 133.390625 111.621094 133.265625 111.757813 C 133.140625 111.902344 133.101563 112.15625 133.15625 112.523438 L 133.28125 113.429688 L 132.46875 113.539063 L 132.34375 112.632813 C 132.25 111.953125 132.320313 111.464844 132.5625 111.164063 C 132.8125 110.859375 133.3125 110.65625 134.0625 110.554688 L 137.296875 110.101563 L 137.203125 109.460938 L 137.953125 109.351563 L 138.046875 109.992188 L 139.734375 109.757813 Z M 132.382813 117.003906 C 131.644531 116.855469 131.15625 116.679688 130.914063 116.472656 C 130.664063 116.261719 130.507813 115.960938 130.445313 115.566406 L 130.351563 114.863281 L 131.164063 114.753906 L 131.242188 115.269531 C 131.273438 115.507813 131.367188 115.683594 131.523438 115.800781 C 131.671875 115.925781 131.988281 116.035156 132.476563 116.128906 L 132.945313 116.207031 L 138.507813 113.222656 L 138.632813 114.144531 L 134.210938 116.472656 L 139.101563 117.503906 L 139.242188 118.441406 Z M 141.839844 122.523438 L 141.964844 123.507813 L 134.917969 124.492188 L 135.417969 127.976563 L 134.527344 128.101563 L 133.902344 123.632813 Z M 140.609375 128.222656 L 140.734375 129.113281 L 134.78125 129.957031 L 134.65625 129.066406 Z M 142.9375 127.910156 L 143.0625 128.800781 L 141.828125 128.972656 L 141.703125 128.082031 Z M 139.257813 135.757813 L 135.664063 136.257813 L 135.554688 135.367188 L 139.117188 134.867188 C 139.679688 134.78125 140.085938 134.621094 140.335938 134.382813 C 140.585938 134.152344 140.683594 133.839844 140.632813 133.445313 C 140.558594 132.964844 140.335938 132.609375 139.960938 132.382813 C 139.585938 132.164063 139.109375 132.09375 138.539063 132.179688 L 135.164063 132.648438 L 135.039063 131.742188 L 140.992188 130.898438 L 141.117188 131.804688 L 140.195313 131.945313 C 140.578125 132.101563 140.875 132.304688 141.085938 132.554688 C 141.304688 132.8125 141.445313 133.136719 141.507813 133.523438 C 141.589844 134.125 141.4375 134.621094 141.054688 135.007813 C 140.679688 135.390625 140.078125 135.640625 139.257813 135.757813 Z M 139.753906 142.152344 L 139.269531 142.214844 L 138.722656 138.152344 C 138.054688 138.285156 137.570313 138.542969 137.269531 138.917969 C 136.964844 139.292969 136.855469 139.769531 136.941406 140.355469 C 136.980469 140.699219 137.066406 141.019531 137.191406 141.324219 C 137.324219 141.625 137.507813 141.921875 137.738281 142.214844 L 136.832031 142.339844 C 136.621094 142.035156 136.457031 141.722656 136.332031 141.402344 C 136.214844 141.089844 136.132813 140.761719 136.082031 140.417969 C 135.964844 139.5625 136.148438 138.847656 136.628906 138.277344 C 137.117188 137.703125 137.835938 137.347656 138.785156 137.214844 C 139.753906 137.078125 140.554688 137.207031 141.191406 137.605469 C 141.824219 138 142.199219 138.597656 142.316406 139.402344 C 142.410156 140.121094 142.226563 140.722656 141.769531 141.214844 C 141.308594 141.714844 140.636719 142.027344 139.753906 142.152344 Z M 139.941406 141.214844 C 140.472656 141.128906 140.878906 140.9375 141.160156 140.636719 C 141.449219 140.34375 141.566406 139.980469 141.503906 139.542969 C 141.441406 139.050781 141.230469 138.675781 140.878906 138.417969 C 140.523438 138.15625 140.066406 138.042969 139.503906 138.074219 Z M 141.191406 150.078125 C 141.136719 150.296875 140.992188 150.515625 140.753906 150.734375 C 140.523438 150.960938 140.195313 151.207031 139.769531 151.46875 L 137.707031 152.6875 L 137.582031 151.65625 L 139.519531 150.5 C 140.027344 150.195313 140.355469 149.925781 140.503906 149.6875 C 140.660156 149.445313 140.714844 149.132813 140.675781 148.75 L 140.550781 147.6875 L 137.175781 148.078125 L 137.066406 147.109375 L 145.035156 146.203125 L 145.285156 148.390625 C 145.378906 149.210938 145.257813 149.84375 144.925781 150.28125 C 144.589844 150.726563 144.039063 151 143.269531 151.09375 C 142.769531 151.144531 142.335938 151.082031 141.972656 150.90625 C 141.617188 150.738281 141.355469 150.460938 141.191406 150.078125 Z M 144.253906 147.265625 L 141.425781 147.59375 L 141.566406 148.8125 C 141.617188 149.28125 141.773438 149.617188 142.035156 149.828125 C 142.304688 150.046875 142.675781 150.128906 143.144531 150.078125 C 143.601563 150.023438 143.933594 149.863281 144.144531 149.59375 C 144.363281 149.320313 144.445313 148.953125 144.394531 148.484375 Z M 143.378906 155.375 C 143.324219 154.894531 143.074219 154.539063 142.628906 154.3125 C 142.179688 154.082031 141.601563 154.007813 140.894531 154.09375 C 140.175781 154.175781 139.628906 154.378906 139.253906 154.703125 C 138.878906 155.023438 138.714844 155.425781 138.769531 155.90625 C 138.820313 156.375 139.066406 156.722656 139.503906 156.953125 C 139.941406 157.179688 140.519531 157.253906 141.238281 157.171875 C 141.945313 157.085938 142.492188 156.882813 142.878906 156.5625 C 143.261719 156.238281 143.429688 155.84375 143.378906 155.375 Z M 144.191406 155.28125 C 144.273438 156.039063 144.066406 156.675781 143.566406 157.1875 C 143.066406 157.695313 142.324219 158.003906 141.347656 158.109375 C 140.367188 158.222656 139.570313 158.085938 138.957031 157.703125 C 138.351563 157.328125 138.007813 156.757813 137.925781 156 C 137.832031 155.21875 138.039063 154.578125 138.550781 154.078125 C 139.058594 153.585938 139.804688 153.285156 140.785156 153.171875 C 141.761719 153.066406 142.550781 153.195313 143.144531 153.5625 C 143.746094 153.925781 144.097656 154.5 144.191406 155.28125 Z M 141.828125 162.007813 C 141.742188 161.289063 141.59375 160.796875 141.375 160.539063 C 141.15625 160.289063 140.828125 160.1875 140.390625 160.242188 C 140.046875 160.28125 139.78125 160.417969 139.59375 160.648438 C 139.414063 160.875 139.347656 161.167969 139.390625 161.523438 C 139.453125 162.023438 139.691406 162.398438 140.109375 162.648438 C 140.523438 162.898438 141.050781 162.984375 141.6875 162.914063 L 141.921875 162.882813 Z M 142.421875 163.726563 L 139 164.117188 L 138.90625 163.226563 L 139.8125 163.117188 C 139.425781 162.949219 139.128906 162.726563 138.921875 162.445313 C 138.710938 162.171875 138.582031 161.820313 138.53125 161.382813 C 138.46875 160.828125 138.585938 160.371094 138.890625 160.007813 C 139.203125 159.652344 139.644531 159.4375 140.21875 159.367188 C 140.894531 159.292969 141.425781 159.4375 141.8125 159.804688 C 142.195313 160.167969 142.4375 160.757813 142.53125 161.570313 L 142.671875 162.804688 L 142.765625 162.789063 C 143.222656 162.734375 143.5625 162.558594 143.78125 162.257813 C 144 161.964844 144.082031 161.574219 144.03125 161.085938 C 144 160.78125 143.921875 160.484375 143.796875 160.195313 C 143.679688 159.914063 143.523438 159.652344 143.328125 159.414063 L 144.234375 159.304688 C 144.421875 159.617188 144.5625 159.917969 144.65625 160.210938 C 144.75 160.5 144.8125 160.792969 144.84375 161.085938 C 144.9375 161.855469 144.78125 162.460938 144.375 162.898438 C 143.976563 163.34375 143.328125 163.621094 142.421875 163.726563 Z M 144.699219 168.890625 L 147.933594 168.515625 L 148.027344 169.40625 L 139.714844 170.359375 L 139.621094 169.46875 L 140.527344 169.359375 C 140.140625 169.210938 139.84375 169.007813 139.636719 168.75 C 139.425781 168.488281 139.300781 168.160156 139.261719 167.765625 C 139.1875 167.109375 139.410156 166.546875 139.933594 166.078125 C 140.464844 165.609375 141.203125 165.316406 142.152344 165.203125 C 143.089844 165.097656 143.863281 165.210938 144.480469 165.546875 C 145.105469 165.890625 145.453125 166.390625 145.527344 167.046875 C 145.566406 167.441406 145.519531 167.789063 145.386719 168.09375 C 145.261719 168.394531 145.03125 168.660156 144.699219 168.890625 Z M 142.261719 166.109375 C 141.53125 166.191406 140.972656 166.390625 140.589844 166.703125 C 140.214844 167.015625 140.050781 167.40625 140.105469 167.875 C 140.167969 168.34375 140.417969 168.6875 140.855469 168.90625 C 141.292969 169.132813 141.875 169.207031 142.605469 169.125 C 143.324219 169.039063 143.871094 168.835938 144.246094 168.515625 C 144.628906 168.203125 144.792969 167.8125 144.730469 167.34375 C 144.675781 166.875 144.433594 166.53125 143.996094 166.3125 C 143.558594 166.09375 142.980469 166.023438 142.261719 166.109375 Z M 142.261719 166.109375 "/>
</g>
</svg>

