<?xml version="1.0" encoding="UTF-8"?>
<svg xmlns="http://www.w3.org/2000/svg" xmlns:xlink="http://www.w3.org/1999/xlink" width="256pt" height="256pt" viewBox="0 0 256 256" version="1.1">
<g id="surface2">
<rect x="0" y="0" width="256" height="256" style="fill:rgb(60%,70.196078%,80%);fill-opacity:1;stroke:none;"/>
<path style=" stroke:none;fill-rule:evenodd;fill:rgb(94.901961%,93.72549%,91.372549%);fill-opacity:1;" d="M 259 259 L -4 259 L -4 -4 L 82.65625 -4 L 90.859375 2.03125 L 95.964844 4.792969 L 100.460938 6.832031 L 102.4375 11.023438 L 105.6875 14.941406 L 108.683594 18.476563 L 123.800781 36.011719 L 132.859375 46.054688 L 137.804688 51.441406 L 141.402344 55.808594 L 150.082031 66.007813 L 153.710938 68.203125 L 159.769531 63.867188 L 167.882813 70.167969 L 170.324219 67.367188 L 164.132813 60.554688 L 163.214844 61.398438 L 162.554688 60.675781 L 176.707031 47.910156 L 178.023438 47.863281 L 176.386719 52.882813 L 171.546875 63.21875 L 171.472656 65.140625 L 171.757813 66.703125 L 172.425781 67.082031 L 173.988281 67.101563 L 174.675781 66.625 L 178.578125 62.398438 L 182.511719 59.417969 L 183.371094 59.726563 L 183.273438 60.503906 L 182.816406 61.003906 L 181.980469 60.679688 L 181.292969 62.050781 L 180.433594 64.21875 L 181.746094 65.175781 L 177.003906 71.867188 L 181.957031 75.644531 L 183.730469 73.375 L 183.214844 72.859375 L 183.808594 71.851563 L 186.835938 68.238281 L 186.113281 67.5 L 187.75 65.160156 L 188.59375 63.3125 L 190.640625 63.316406 L 191.75 64.671875 L 191.328125 66.394531 L 188.070313 70.667969 L 192.589844 74.1875 L 193.753906 72.933594 L 196.328125 69.796875 L 199.863281 65.316406 L 202.261719 62.546875 L 205.230469 60.261719 L 206.800781 60.578125 L 207.511719 61.679688 L 206.488281 65.992188 L 205.019531 63.753906 L 202.296875 65.851563 L 195.5625 73.921875 L 191.945313 79.007813 L 186.746094 83.777344 L 185.574219 82.945313 L 184.535156 84.230469 L 188.644531 87.441406 L 192.734375 84.792969 L 194.292969 86.707031 L 212.066406 69.121094 L 213.925781 65.792969 L 214.550781 64.179688 L 215.503906 64.503906 L 216.054688 66.46875 L 215.527344 68.355469 L 210.636719 74.964844 L 202.601563 81 L 206.140625 86.589844 L 216.871094 80.972656 L 221.546875 78.84375 L 223.273438 79.449219 L 225.238281 82.265625 L 224.25 83.652344 L 223.261719 84.574219 L 216.472656 90.175781 L 211.203125 93.382813 L 210.015625 94.230469 L 212.464844 98.96875 L 216.097656 98.128906 L 227.0625 96.277344 L 230.132813 95.933594 L 231.289063 96.050781 L 231.988281 97.097656 L 232.015625 98.410156 L 231.386719 99.902344 L 220.777344 104.960938 L 214.902344 107.285156 L 215.785156 111.863281 L 223.652344 111.605469 L 236.277344 112.238281 L 236.378906 113.949219 L 235.328125 115.195313 L 233.480469 115.554688 L 232.894531 113.953125 L 229.808594 113.957031 L 220.660156 113.480469 L 213.128906 114.550781 L 213.792969 117.597656 L 219.933594 116.285156 L 220.257813 117.5625 L 216.550781 118.371094 L 217.054688 120.441406 L 216.308594 120.648438 L 217.074219 123.582031 L 217.835938 123.410156 L 218.203125 125.484375 L 220.90625 124.882813 L 220.714844 124.023438 L 221.707031 123.738281 L 221.808594 124.269531 L 224.871094 123.640625 L 225.117188 125.199219 L 216.144531 127.519531 L 216.140625 128.3125 L 216.675781 128.390625 L 216.558594 130.125 L 217.167969 136.949219 L 212.734375 137.773438 L 205.910156 139.320313 L 200.917969 140.644531 L 202.054688 147.707031 L 242.285156 140.742188 L 243.335938 145.953125 L 177.328125 157.792969 L 178.929688 167.394531 L 244.726563 155.707031 L 246.34375 163.234375 L 179.726563 174.394531 L 180.125 176.191406 L 183.09375 188.683594 L 184.863281 196.136719 L 205.0625 193.539063 L 208.863281 192.136719 L 208.84375 189.753906 L 251.089844 185.316406 L 252.308594 191.003906 L 183.183594 198.902344 L 184.921875 207.359375 L 178.339844 207.84375 L 178.203125 212.976563 L 179.71875 213.015625 L 179.90625 218.359375 L 179.8125 227.703125 L 180.28125 227.640625 L 179.9375 248.484375 L 179.4375 248.390625 L 179.65625 252.515625 L 179.28125 252.828125 L 179.191406 259 Z M 259 259 "/>
<path style=" stroke:none;fill-rule:evenodd;fill:rgb(94.901961%,93.72549%,91.372549%);fill-opacity:1;" d="M 172.847656 260 L 173 254.703125 L 173.25 241.421875 L 173.019531 238.148438 L 172.921875 237.09375 L 173.90625 236.390625 L 174.15625 223.390625 L 172.503906 219.199219 L 172.757813 207.847656 L 161.691406 206.136719 L 136.09375 204.195313 L 133.59375 220.035156 L 131.6875 232.441406 L 130.75 243.351563 L 130.3125 252.128906 L 130.3125 260 Z M 172.847656 260 "/>
<path style="fill:none;stroke-width:1;stroke-linecap:round;stroke-linejoin:round;stroke:rgb(89.019608%,87.058824%,83.137255%);stroke-opacity:1;stroke-miterlimit:10;" d="M 172.847656 260 L 173 254.703125 L 173.25 241.421875 L 173.019531 238.148438 L 172.921875 237.09375 L 173.90625 236.390625 L 174.15625 223.390625 L 172.503906 219.199219 L 172.757813 207.847656 L 161.691406 206.136719 L 136.09375 204.195313 L 133.59375 220.035156 L 131.6875 232.441406 L 130.75 243.351563 L 130.3125 252.128906 L 130.3125 260 L 172.847656 260 "/>
<path style=" stroke:none;fill-rule:evenodd;fill:rgb(87.058824%,82.352941%,67.45098%);fill-opacity:1;" d="M -4 75.355469 L 3.488281 74.574219 L 4.945313 73.761719 L 5.414063 72.820313 L 5.777344 71.597656 L -4 55.460938 Z M -4 75.355469 "/>
<path style=" stroke:none;fill-rule:evenodd;fill:rgb(70.980392%,82.352941%,61.176471%);fill-opacity:1;" d="M -4 47.207031 L 6.632813 65.453125 L 41.832031 53.253906 L 38.03125 41.65625 L 32.429688 29.652344 L 22.628906 20.253906 L 16.230469 17.65625 L 10.433594 15.253906 L -0.167969 10.855469 L -4 18.996094 Z M -4 47.207031 "/>
<path style=" stroke:none;fill-rule:evenodd;fill:rgb(94.901961%,93.72549%,91.372549%);fill-opacity:1;" d="M -4 47.207031 L 6.632813 65.453125 L 41.832031 53.253906 L 38.03125 41.65625 L 32.429688 29.652344 L 22.628906 20.253906 L 16.230469 17.65625 L 10.433594 15.253906 L -0.167969 10.855469 L -4 18.996094 Z M -4 47.207031 "/>
<path style="fill:none;stroke-width:1;stroke-linecap:round;stroke-linejoin:round;stroke:rgb(89.019608%,87.058824%,83.137255%);stroke-opacity:1;stroke-miterlimit:10;" d="M -4 47.207031 L 6.632813 65.453125 L 41.832031 53.253906 L 38.03125 41.65625 L 32.429688 29.652344 L 22.628906 20.253906 L 16.230469 17.65625 L 10.433594 15.253906 L -0.167969 10.855469 L -4 18.996094 L -4 47.207031 "/>
<path style=" stroke:none;fill-rule:evenodd;fill:rgb(87.058824%,81.960784%,67.058824%);fill-opacity:1;" d="M 74.890625 49.519531 L 94.109375 82.726563 L 107.601563 75.371094 L 114.3125 71.828125 L 128.53125 63.140625 L 125.402344 58.070313 L 123.40625 59.273438 L 121.742188 56.644531 L 122.605469 52.222656 L 122.207031 47.609375 L 118.609375 40.183594 L 114.636719 35.714844 L 112.371094 33.445313 L 109.8125 32.144531 L 106.304688 30.707031 L 102.867188 30.273438 L 100.226563 30.371094 L 97.433594 31.019531 L 94.898438 32.085938 L 92.46875 33.703125 L 89.816406 36.175781 L 87.152344 33.945313 Z M 74.890625 49.519531 "/>
<path style=" stroke:none;fill-rule:evenodd;fill:rgb(87.058824%,81.960784%,67.058824%);fill-opacity:1;" d="M 90.25 35.964844 L 92.152344 43.078125 L 90.925781 45.679688 L 92.105469 62.632813 L 93.144531 64.871094 L 95.640625 66.292969 L 98.726563 66.21875 L 104.539063 65.410156 L 122.039063 56.242188 L 122.605469 52.222656 L 122.207031 47.609375 L 118.609375 40.183594 L 114.636719 35.714844 L 112.371094 33.445313 L 109.8125 32.144531 L 106.304688 30.707031 L 102.867188 30.273438 L 100.226563 30.371094 L 97.433594 31.019531 L 94.898438 32.085938 L 92.46875 33.703125 Z M 90.25 35.964844 "/>
<path style=" stroke:none;fill-rule:evenodd;fill:rgb(70.980392%,82.352941%,61.176471%);fill-opacity:1;" d="M 150.089844 157.738281 L 150.636719 163.855469 L 155.636719 164.453125 L 155.976563 197.746094 L 174.8125 198.125 L 174.53125 207.816406 L 178.339844 207.84375 L 184.921875 207.359375 L 183.183594 198.902344 L 252.308594 191.003906 L 251.089844 185.316406 L 208.847656 189.753906 L 208.863281 192.136719 L 205.0625 193.539063 L 184.863281 196.136719 L 183.09375 188.683594 L 160.050781 188.289063 L 159.648438 155.890625 Z M 150.089844 157.738281 "/>
<path style=" stroke:none;fill-rule:evenodd;fill:rgb(87.058824%,82.352941%,67.45098%);fill-opacity:1;" d="M 23.859375 260 L 41.179688 260 L 33.832031 220.925781 L 17.101563 224.070313 Z M 23.859375 260 "/>
<path style=" stroke:none;fill-rule:evenodd;fill:rgb(81.960784%,81.568627%,80.392157%);fill-opacity:1;" d="M 132.015625 241.78125 L 132.046875 259.6875 L 136.390625 259.15625 L 155.359375 256.96875 L 153.828125 242.9375 L 173.265625 240.8125 L 173.019531 238.148438 L 172.921875 237.09375 L 172.734375 235.78125 L 152.265625 237.96875 L 133.609375 240.8125 L 133.390625 241.59375 Z M 132.015625 241.78125 "/>
<path style="fill:none;stroke-width:1;stroke-linecap:round;stroke-linejoin:round;stroke:rgb(81.960784%,81.960784%,81.960784%);stroke-opacity:1;stroke-miterlimit:10;" d="M 132.015625 241.78125 L 132.046875 259.6875 L 136.390625 259.15625 L 155.359375 256.96875 L 153.828125 242.9375 L 173.265625 240.8125 L 173.019531 238.148438 L 172.921875 237.09375 L 172.734375 235.78125 L 152.265625 237.96875 L 133.609375 240.8125 L 133.390625 241.59375 L 132.015625 241.78125 "/>
<path style=" stroke:none;fill-rule:evenodd;fill:rgb(70.980392%,82.352941%,61.176471%);fill-opacity:1;" d="M 92.289063 17.117188 L 96.628906 19.871094 L 101.203125 23.210938 L 107.203125 26.410156 L 111.820313 29.582031 L 115.890625 33.101563 L 118.964844 36.769531 L 120.929688 39.738281 L 122.835938 43.34375 L 124.925781 47.96875 L 128.917969 54.839844 L 130.90625 57.429688 L 134.859375 62.144531 L 141.402344 55.808594 L 123.800781 36.011719 L 108.683594 18.476563 L 105.6875 14.945313 L 102.4375 11.023438 L 100.460938 6.832031 Z M 92.289063 17.117188 "/>
<path style=" stroke:none;fill-rule:evenodd;fill:rgb(81.960784%,81.568627%,80.392157%);fill-opacity:1;" d="M 168.378906 142.652344 L 173.4375 146.25 L 177.554688 146.070313 L 200.683594 137.894531 L 200.683594 134.929688 L 206.496094 130.75 L 206.375 127.785156 L 204.011719 125.726563 L 199.53125 125.484375 L 172.144531 136.011719 Z M 168.378906 142.652344 "/>
<path style="fill:none;stroke-width:1;stroke-linecap:round;stroke-linejoin:round;stroke:rgb(81.960784%,81.960784%,81.960784%);stroke-opacity:1;stroke-miterlimit:10;" d="M 168.378906 142.652344 L 173.4375 146.25 L 177.554688 146.070313 L 200.683594 137.894531 L 200.683594 134.929688 L 206.496094 130.75 L 206.375 127.785156 L 204.011719 125.726563 L 199.53125 125.484375 L 172.144531 136.011719 L 168.378906 142.652344 "/>
<path style=" stroke:none;fill-rule:evenodd;fill:rgb(70.980392%,82.352941%,61.176471%);fill-opacity:1;" d="M 9.371094 109.828125 L 20.988281 129.605469 L 36.113281 120.71875 L 24.5 100.945313 Z M 9.371094 109.828125 "/>
<path style=" stroke:none;fill-rule:evenodd;fill:rgb(81.960784%,81.568627%,80.392157%);fill-opacity:1;" d="M 173.609375 152.519531 L 174.152344 157.042969 L 242.480469 145.542969 L 241.769531 141.347656 L 201.667969 148.378906 L 200.355469 140.9375 L 196.5 141.832031 L 188.546875 146.039063 L 178.875 150.238281 Z M 173.609375 152.519531 "/>
<path style="fill:none;stroke-width:1;stroke-linecap:round;stroke-linejoin:round;stroke:rgb(81.960784%,81.960784%,81.960784%);stroke-opacity:1;stroke-miterlimit:10;" d="M 173.609375 152.519531 L 174.152344 157.042969 L 242.480469 145.542969 L 241.769531 141.347656 L 201.667969 148.378906 L 200.355469 140.9375 L 196.5 141.832031 L 188.546875 146.039063 L 178.875 150.238281 L 173.609375 152.519531 "/>
<path style=" stroke:none;fill-rule:evenodd;fill:rgb(87.058824%,82.352941%,67.45098%);fill-opacity:1;" d="M 23.191406 132.589844 L 33.566406 150.265625 L 48.019531 141.777344 L 37.640625 124.101563 Z M 23.191406 132.589844 "/>
<path style=" stroke:none;fill-rule:evenodd;fill:rgb(81.960784%,81.568627%,80.392157%);fill-opacity:1;" d="M 78.519531 214.824219 L 81.859375 233.957031 L 82.222656 236.050781 L 97.402344 233.382813 L 97.050781 231.363281 L 93.699219 212.15625 Z M 78.519531 214.824219 "/>
<path style="fill:none;stroke-width:1;stroke-linecap:round;stroke-linejoin:round;stroke:rgb(81.960784%,81.960784%,81.960784%);stroke-opacity:1;stroke-miterlimit:10;" d="M 78.519531 214.824219 L 81.859375 233.957031 L 82.222656 236.050781 L 97.402344 233.382813 L 97.050781 231.363281 L 93.699219 212.15625 L 78.519531 214.824219 "/>
<path style=" stroke:none;fill-rule:evenodd;fill:rgb(81.960784%,81.568627%,80.392157%);fill-opacity:1;" d="M 57.871094 150.582031 L 63.390625 159.992188 L 64.289063 161.707031 L 69.128906 169.820313 L 76.304688 165.714844 L 74.183594 162.070313 L 73.566406 161.007813 L 68.984375 153.144531 L 68.523438 152.25 L 65.851563 153.769531 L 74.558594 148.097656 L 71.347656 142.625 Z M 57.871094 150.582031 "/>
<path style="fill:none;stroke-width:1;stroke-linecap:round;stroke-linejoin:round;stroke:rgb(81.960784%,81.960784%,81.960784%);stroke-opacity:1;stroke-miterlimit:10;" d="M 57.871094 150.582031 L 63.390625 159.992188 L 64.289063 161.707031 L 69.128906 169.820313 L 76.304688 165.714844 L 74.183594 162.070313 L 73.566406 161.007813 L 68.984375 153.144531 L 68.523438 152.25 L 65.851563 153.769531 L 74.558594 148.097656 L 71.347656 142.625 L 57.871094 150.582031 "/>
<path style=" stroke:none;fill-rule:evenodd;fill:rgb(81.960784%,81.568627%,80.392157%);fill-opacity:1;" d="M 143.90625 207.59375 L 145.15625 222.15625 L 160.46875 220.21875 L 159.03125 206.21875 Z M 143.90625 207.59375 "/>
<path style="fill:none;stroke-width:1;stroke-linecap:round;stroke-linejoin:round;stroke:rgb(81.960784%,81.960784%,81.960784%);stroke-opacity:1;stroke-miterlimit:10;" d="M 143.90625 207.59375 L 145.15625 222.15625 L 160.46875 220.21875 L 159.03125 206.21875 L 143.90625 207.59375 "/>
<path style=" stroke:none;fill-rule:evenodd;fill:rgb(81.960784%,81.568627%,80.392157%);fill-opacity:1;" d="M 124.570313 260 L 123.375 254.007813 L 122.324219 260 Z M 124.570313 260 "/>
<path style="fill:none;stroke-width:1;stroke-linecap:round;stroke-linejoin:round;stroke:rgb(81.960784%,81.960784%,81.960784%);stroke-opacity:1;stroke-miterlimit:10;" d="M 124.570313 260 L 123.375 254.007813 L 122.324219 260 L 124.570313 260 "/>
<path style=" stroke:none;fill-rule:evenodd;fill:rgb(70.980392%,82.352941%,61.176471%);fill-opacity:1;" d="M 63.375 84.664063 L 66.015625 89.664063 L 69.953125 87.636719 L 69.109375 86.140625 L 71.320313 84.835938 L 72.238281 86.296875 L 74.738281 84.902344 L 72.035156 79.898438 Z M 63.375 84.664063 "/>
<path style="fill:none;stroke-width:1;stroke-linecap:round;stroke-linejoin:round;stroke:rgb(100%,100%,100%);stroke-opacity:1;stroke-dasharray:2,3;stroke-miterlimit:10;" d="M 174.785156 241.242188 L 173.609375 241.320313 "/>
<path style="fill:none;stroke-width:1;stroke-linecap:round;stroke-linejoin:round;stroke:rgb(100%,100%,100%);stroke-opacity:1;stroke-dasharray:2,3;stroke-miterlimit:10;" d="M 173.6875 218.890625 L 175.003906 218.921875 "/>
<path style="fill:none;stroke-width:1;stroke-linecap:round;stroke-linejoin:round;stroke:rgb(100%,100%,100%);stroke-opacity:1;stroke-dasharray:2,3;stroke-miterlimit:10;" d="M 175.046875 208.90625 L 173.671875 208.703125 "/>
<path style="fill:none;stroke-width:1;stroke-linecap:round;stroke-linejoin:round;stroke:rgb(100%,100%,100%);stroke-opacity:1;stroke-dasharray:2,3;stroke-miterlimit:10;" d="M 125.625 238.15625 L 126.5 233.1875 "/>
<path style="fill:none;stroke-width:1;stroke-linecap:round;stroke-linejoin:round;stroke:rgb(100%,100%,100%);stroke-opacity:1;stroke-dasharray:2,3;stroke-miterlimit:10;" d="M 196.597656 99.429688 L 191.398438 99.414063 "/>
<path style="fill:none;stroke-width:1;stroke-linecap:round;stroke-linejoin:round;stroke:rgb(100%,100%,100%);stroke-opacity:1;stroke-dasharray:2,3;stroke-miterlimit:10;" d="M 173.671875 208.703125 L 173.6875 218.890625 "/>
<path style="fill:none;stroke-width:1;stroke-linecap:round;stroke-linejoin:round;stroke:rgb(100%,100%,100%);stroke-opacity:1;stroke-dasharray:2,3;stroke-miterlimit:10;" d="M 191.398438 99.414063 L 187.507813 101.652344 L 184.019531 103.65625 L 182.261719 104.949219 "/>
<path style="fill:none;stroke-width:1;stroke-linecap:round;stroke-linejoin:round;stroke:rgb(100%,100%,100%);stroke-opacity:1;stroke-dasharray:2,3;stroke-miterlimit:10;" d="M 126.5 233.1875 L 123.234375 232.507813 L 120.03125 232.375 L 119.359375 235.078125 L 119 237.375 L 122.507813 237.65625 L 125.625 238.15625 "/>
<path style="fill:none;stroke-width:1;stroke-linecap:round;stroke-linejoin:round;stroke:rgb(100%,100%,100%);stroke-opacity:1;stroke-dasharray:2,3;stroke-miterlimit:10;" d="M 104.449219 142.964844 L 119.054688 134.261719 L 122.226563 132.742188 "/>
<path style="fill:none;stroke-width:1;stroke-linecap:round;stroke-linejoin:round;stroke:rgb(100%,100%,100%);stroke-opacity:1;stroke-dasharray:2,3;stroke-miterlimit:10;" d="M 81.886719 32.695313 L 82.953125 33.460938 L 79.554688 38.03125 L 83.53125 33.839844 L 80.726563 39.042969 L 81.699219 39.675781 "/>
<path style="fill:none;stroke-width:1;stroke-linecap:round;stroke-linejoin:round;stroke:rgb(100%,100%,100%);stroke-opacity:1;stroke-dasharray:2,3;stroke-miterlimit:10;" d="M 200.386719 120.800781 L 187.507813 101.652344 "/>
<path style="fill:none;stroke-width:1;stroke-linecap:round;stroke-linejoin:round;stroke:rgb(100%,100%,100%);stroke-opacity:1;stroke-dasharray:2,3;stroke-miterlimit:10;" d="M 173.34375 257 L 173.421875 251.898438 L 173.5 244.570313 L 173.609375 241.320313 "/>
<path style="fill:none;stroke-width:1;stroke-linecap:round;stroke-linejoin:round;stroke:rgb(100%,100%,100%);stroke-opacity:1;stroke-dasharray:2,3;stroke-miterlimit:10;" d="M 156.085938 73.050781 L 150.589844 70.289063 L 144.46875 67.226563 L 137.964844 62.660156 L 134.027344 58.851563 L 132.058594 56.800781 "/>
<path style="fill:none;stroke-width:1;stroke-linecap:round;stroke-linejoin:round;stroke:rgb(100%,100%,100%);stroke-opacity:1;stroke-dasharray:2,3;stroke-miterlimit:10;" d="M 119 237.375 L 117.21875 244.1875 L 114.691406 257 "/>
<path style="fill:none;stroke-width:1;stroke-linecap:round;stroke-linejoin:round;stroke:rgb(100%,100%,100%);stroke-opacity:1;stroke-dasharray:2,3;stroke-miterlimit:10;" d="M 191.085938 99.542969 L 185.105469 89.507813 L 175.757813 82.914063 L 174.339844 81.910156 L 165.992188 77.621094 L 161.582031 75.835938 "/>
<path style="fill:none;stroke-width:1;stroke-linecap:round;stroke-linejoin:round;stroke:rgb(100%,100%,100%);stroke-opacity:1;stroke-dasharray:2,3;stroke-miterlimit:10;" d="M 184.019531 103.65625 L 172.660156 85.984375 L 167.578125 81.503906 L 164.238281 78.484375 L 156.085938 73.050781 "/>
<path style="fill:none;stroke-width:1;stroke-linecap:round;stroke-linejoin:round;stroke:rgb(100%,100%,100%);stroke-opacity:1;stroke-dasharray:2,3;stroke-miterlimit:10;" d="M 125.625 238.15625 L 124.5625 243.75 L 121.917969 257 "/>
<path style="fill:none;stroke-width:1;stroke-linecap:round;stroke-linejoin:round;stroke:rgb(100%,100%,100%);stroke-opacity:1;stroke-dasharray:2,3;stroke-miterlimit:10;" d="M 176.4375 196.53125 L 183.40625 197.351563 L 249.820313 189.082031 "/>
<path style="fill:none;stroke-width:1;stroke-linecap:round;stroke-linejoin:round;stroke:rgb(100%,100%,100%);stroke-opacity:1;stroke-dasharray:2,3;stroke-miterlimit:10;" d="M 9.464844 -2 L 20.503906 3.503906 L 60.515625 32.441406 L 64.441406 35.488281 L 67.628906 39.128906 L 70.128906 42.378906 L 74.257813 49.546875 L 94.625 84.925781 L 96.574219 88.355469 L 116.382813 122.65625 L 121.65625 131.785156 L 122.226563 132.742188 L 123.148438 134.035156 L 124.253906 134.871094 L 125.820313 135.230469 L 126.949219 135.195313 L 128.054688 134.953125 L 129.835938 133.175781 L 138.886719 121.230469 L 176.304688 103.078125 L 176.546875 104.121094 "/>
<path style="fill:none;stroke-width:8;stroke-linecap:round;stroke-linejoin:round;stroke:rgb(75.686275%,70.980392%,61.568627%);stroke-opacity:1;stroke-miterlimit:10;" d="M 97.050781 231.363281 L 99.683594 230.933594 "/>
<path style="fill:none;stroke-width:8;stroke-linecap:round;stroke-linejoin:round;stroke:rgb(75.686275%,70.980392%,61.568627%);stroke-opacity:1;stroke-miterlimit:10;" d="M 141.902344 125.648438 L 139.761719 126.152344 L 137.789063 127.605469 "/>
<path style="fill:none;stroke-width:8;stroke-linecap:round;stroke-linejoin:round;stroke:rgb(75.686275%,70.980392%,61.568627%);stroke-opacity:1;stroke-miterlimit:10;" d="M 199.449219 149.878906 L 198.617188 145.054688 L 190.175781 146.632813 "/>
<path style="fill:none;stroke-width:8;stroke-linecap:round;stroke-linejoin:round;stroke:rgb(75.686275%,70.980392%,61.568627%);stroke-opacity:1;stroke-miterlimit:10;" d="M 139.8125 241.542969 L 140.207031 259.960938 "/>
<path style="fill:none;stroke-width:8;stroke-linecap:round;stroke-linejoin:round;stroke:rgb(75.686275%,70.980392%,61.568627%);stroke-opacity:1;stroke-miterlimit:10;" d="M 145.296875 259.609375 L 144.65625 241.058594 "/>
<path style="fill:none;stroke-width:8;stroke-linecap:round;stroke-linejoin:round;stroke:rgb(75.686275%,70.980392%,61.568627%);stroke-opacity:1;stroke-miterlimit:10;" d="M 143.113281 128.972656 L 141.296875 128.023438 L 139.636719 128.078125 L 137.902344 128.957031 L 136.515625 130.605469 L 125.578125 145.457031 "/>
<path style="fill:none;stroke-width:8;stroke-linecap:round;stroke-linejoin:round;stroke:rgb(75.686275%,70.980392%,61.568627%);stroke-opacity:1;stroke-miterlimit:10;" d="M 150.359375 240.484375 L 152.640625 258.921875 L 168.609375 257.328125 "/>
<path style="fill:none;stroke-width:8;stroke-linecap:round;stroke-linejoin:round;stroke:rgb(75.686275%,70.980392%,61.568627%);stroke-opacity:1;stroke-miterlimit:10;" d="M 206.675781 126.769531 L 173.722656 138.207031 L 170.496094 144.746094 "/>
<path style="fill:none;stroke-width:8;stroke-linecap:round;stroke-linejoin:round;stroke:rgb(75.686275%,70.980392%,61.568627%);stroke-opacity:1;stroke-miterlimit:10;" d="M 165.285156 147.292969 L 169.175781 145.265625 L 170.496094 144.746094 L 175.71875 142.695313 L 188.109375 137.902344 L 205.757813 132.292969 "/>
<path style="fill:none;stroke-width:8;stroke-linecap:round;stroke-linejoin:round;stroke:rgb(75.686275%,70.980392%,61.568627%);stroke-opacity:1;stroke-miterlimit:10;" d="M 183.769531 107.777344 L 182.382813 107.835938 L 180.582031 108.328125 L 147.046875 125.398438 L 145.246094 125.765625 L 141.902344 125.648438 "/>
<path style="fill:none;stroke-width:8;stroke-linecap:round;stroke-linejoin:round;stroke:rgb(75.686275%,70.980392%,61.568627%);stroke-opacity:1;stroke-miterlimit:10;" d="M 186.183594 111.324219 L 184.878906 111.390625 L 149.546875 128.800781 L 147.214844 128.800781 L 144.664063 126.859375 L 141.902344 125.648438 "/>
<path style="fill:none;stroke-width:8;stroke-linecap:round;stroke-linejoin:round;stroke:rgb(75.686275%,70.980392%,61.568627%);stroke-opacity:1;stroke-miterlimit:10;" d="M 189.089844 115.476563 L 187.859375 115.628906 L 185.699219 116.488281 L 150.195313 132.601563 L 148.339844 132.730469 L 146.480469 131.609375 L 143.113281 128.972656 "/>
<path style="fill:none;stroke-width:8;stroke-linecap:round;stroke-linejoin:round;stroke:rgb(75.686275%,70.980392%,61.568627%);stroke-opacity:1;stroke-miterlimit:10;" d="M 193.277344 121.515625 L 190.019531 120.292969 L 151.964844 136.402344 L 149.546875 136.835938 L 147.949219 136.015625 L 143.113281 128.972656 "/>
<path style="fill:none;stroke-width:8;stroke-linecap:round;stroke-linejoin:round;stroke:rgb(75.686275%,70.980392%,61.568627%);stroke-opacity:1;stroke-miterlimit:10;" d="M 133.921875 260.390625 L 134.515625 242.078125 L 139.8125 241.542969 L 144.65625 241.058594 L 150.359375 240.484375 L 173.019531 238.148438 L 174.816406 238.015625 "/>
<path style="fill:none;stroke-width:8;stroke-linecap:round;stroke-linejoin:round;stroke:rgb(75.686275%,70.980392%,61.568627%);stroke-opacity:1;stroke-miterlimit:10;" d="M 134.859375 62.144531 L 133.558594 60.894531 L 130.90625 57.429688 L 128.917969 54.839844 L 124.925781 47.96875 L 122.835938 43.34375 L 120.929688 39.738281 L 118.964844 36.769531 L 115.890625 33.101563 L 111.820313 29.582031 L 107.203125 26.410156 L 101.203125 23.210938 L 96.628906 19.871094 L 92.289063 17.117188 "/>
<path style="fill:none;stroke-width:8;stroke-linecap:round;stroke-linejoin:round;stroke:rgb(75.686275%,70.980392%,61.568627%);stroke-opacity:1;stroke-miterlimit:10;" d="M 173.28125 154.207031 L 199.449219 149.878906 L 240.515625 143.09375 "/>
<path style="fill:none;stroke-width:8;stroke-linecap:round;stroke-linejoin:round;stroke:rgb(75.686275%,70.980392%,61.568627%);stroke-opacity:1;stroke-miterlimit:10;" d="M 129.800781 156.574219 L 136.941406 161.074219 L 171.050781 152.953125 L 173.28125 154.207031 L 179.546875 186.84375 "/>
<path style="fill:none;stroke-width:5;stroke-linecap:round;stroke-linejoin:round;stroke:rgb(75.686275%,70.980392%,61.568627%);stroke-opacity:1;stroke-miterlimit:10;" d="M 88.28125 30.941406 L 96.628906 19.871094 "/>
<path style="fill:none;stroke-width:5;stroke-linecap:round;stroke-linejoin:round;stroke:rgb(75.686275%,70.980392%,61.568627%);stroke-opacity:1;stroke-miterlimit:10;" d="M 74.257813 49.546875 L 81.699219 39.675781 L 86.265625 33.617188 "/>
<path style="fill:none;stroke-width:5;stroke-linecap:round;stroke-linejoin:round;stroke:rgb(75.686275%,70.980392%,61.568627%);stroke-opacity:1;stroke-miterlimit:10;" d="M 174.574219 261 L 174.785156 241.242188 L 174.816406 238.015625 L 174.992188 221.277344 L 175.003906 218.921875 L 175.046875 208.90625 "/>
<path style="fill:none;stroke-width:8;stroke-linecap:round;stroke-linejoin:round;stroke:rgb(75.686275%,70.980392%,61.568627%);stroke-opacity:1;stroke-miterlimit:10;" d="M 87.84375 163.171875 L 86.640625 163.851563 "/>
<path style="fill:none;stroke-width:8;stroke-linecap:round;stroke-linejoin:round;stroke:rgb(75.686275%,70.980392%,61.568627%);stroke-opacity:1;stroke-miterlimit:10;" d="M 113.207031 185.058594 L 116.828125 193.871094 "/>
<path style="fill:none;stroke-width:8;stroke-linecap:round;stroke-linejoin:round;stroke:rgb(75.686275%,70.980392%,61.568627%);stroke-opacity:1;stroke-miterlimit:10;" d="M 102.015625 153.46875 L 108.535156 164.949219 "/>
<path style="fill:none;stroke-width:8;stroke-linecap:round;stroke-linejoin:round;stroke:rgb(75.686275%,70.980392%,61.568627%);stroke-opacity:1;stroke-miterlimit:10;" d="M 102.015625 153.46875 L 87.84375 163.171875 "/>
<path style="fill:none;stroke-width:8;stroke-linecap:round;stroke-linejoin:round;stroke:rgb(75.686275%,70.980392%,61.568627%);stroke-opacity:1;stroke-miterlimit:10;" d="M 60.375 158.839844 L 62.3125 161.421875 L 64.199219 164.644531 L 65.527344 167.625 L 66.574219 170.972656 L 67.34375 175.117188 "/>
<path style="fill:none;stroke-width:8;stroke-linecap:round;stroke-linejoin:round;stroke:rgb(75.686275%,70.980392%,61.568627%);stroke-opacity:1;stroke-miterlimit:10;" d="M 108.535156 164.949219 L 109.707031 168.316406 L 113.207031 185.058594 "/>
<path style="fill:none;stroke-width:8;stroke-linecap:round;stroke-linejoin:round;stroke:rgb(75.686275%,70.980392%,61.568627%);stroke-opacity:1;stroke-miterlimit:10;" d="M 128.527344 158.929688 L 120.996094 161.597656 L 117.679688 163.507813 L 115.039063 164.292969 L 111.9375 164.613281 L 108.535156 164.949219 "/>
<path style="fill:none;stroke-width:8;stroke-linecap:round;stroke-linejoin:round;stroke:rgb(75.686275%,70.980392%,61.568627%);stroke-opacity:1;stroke-miterlimit:10;" d="M 38.542969 121.285156 L 20.554688 132.460938 "/>
<path style="fill:none;stroke-width:8;stroke-linecap:round;stroke-linejoin:round;stroke:rgb(75.686275%,70.980392%,61.568627%);stroke-opacity:1;stroke-miterlimit:10;" d="M 5.429688 171.5625 L 1.222656 173.226563 L -9 175.542969 "/>
<path style="fill:none;stroke-width:8;stroke-linecap:round;stroke-linejoin:round;stroke:rgb(75.686275%,70.980392%,61.568627%);stroke-opacity:1;stroke-miterlimit:10;" d="M 86.640625 163.851563 L 84.070313 165.351563 L 67.34375 175.117188 "/>
<path style="fill:none;stroke-width:8;stroke-linecap:round;stroke-linejoin:round;stroke:rgb(75.686275%,70.980392%,61.568627%);stroke-opacity:1;stroke-miterlimit:10;" d="M 87.84375 163.171875 L 96.945313 160.695313 L 99.949219 161.09375 L 103.234375 163.050781 L 106.609375 165.382813 L 108.535156 164.949219 "/>
<path style="fill:none;stroke-width:8;stroke-linecap:round;stroke-linejoin:round;stroke:rgb(75.686275%,70.980392%,61.568627%);stroke-opacity:1;stroke-miterlimit:10;" d="M 123.175781 234.414063 L 119.359375 235.078125 L 101.109375 238.253906 "/>
<path style="fill:none;stroke-width:8;stroke-linecap:round;stroke-linejoin:round;stroke:rgb(75.686275%,70.980392%,61.568627%);stroke-opacity:1;stroke-miterlimit:10;" d="M 205.757813 132.292969 L 207.390625 130.773438 L 207.511719 127.929688 L 206.675781 126.769531 L 202.949219 124.578125 L 199.835938 124.460938 L 194.730469 126.449219 L 192.003906 127.113281 L 191.097656 126.65625 "/>
<path style="fill:none;stroke-width:8;stroke-linecap:round;stroke-linejoin:round;stroke:rgb(75.686275%,70.980392%,61.568627%);stroke-opacity:1;stroke-miterlimit:10;" d="M 108.261719 115.570313 L 87.359375 127.886719 "/>
<path style="fill:none;stroke-width:8;stroke-linecap:round;stroke-linejoin:round;stroke:rgb(75.686275%,70.980392%,61.568627%);stroke-opacity:1;stroke-miterlimit:10;" d="M -9 114.332031 L 4.546875 105.804688 "/>
<path style="fill:none;stroke-width:8;stroke-linecap:round;stroke-linejoin:round;stroke:rgb(75.686275%,70.980392%,61.568627%);stroke-opacity:1;stroke-miterlimit:10;" d="M 129.746094 154.789063 L 135.125 153.683594 L 138.488281 152.585938 L 155.96875 148.179688 L 165.285156 147.292969 "/>
<path style="fill:none;stroke-width:8;stroke-linecap:round;stroke-linejoin:round;stroke:rgb(75.686275%,70.980392%,61.568627%);stroke-opacity:1;stroke-miterlimit:10;" d="M 200.609375 139.480469 L 202.054688 137.433594 L 206.183594 135.371094 L 208.40625 133.109375 L 209.652344 129.683594 L 209.183594 127.148438 L 207.859375 125.007813 L 205.757813 123.371094 L 202.09375 122.550781 L 198.394531 123.410156 L 194.574219 125.242188 L 191.097656 126.65625 L 189.402344 127.347656 "/>
<path style="fill:none;stroke-width:8;stroke-linecap:round;stroke-linejoin:round;stroke:rgb(75.686275%,70.980392%,61.568627%);stroke-opacity:1;stroke-miterlimit:10;" d="M 101.109375 238.253906 L 105.59375 264 "/>
<path style="fill:none;stroke-width:8;stroke-linecap:round;stroke-linejoin:round;stroke:rgb(75.686275%,70.980392%,61.568627%);stroke-opacity:1;stroke-miterlimit:10;" d="M -9 25.109375 L -7.058594 20.769531 L -6.207031 18.828125 L 0.945313 2.546875 L 2.449219 -0.882813 "/>
<path style="fill:none;stroke-width:8;stroke-linecap:round;stroke-linejoin:round;stroke:rgb(75.686275%,70.980392%,61.568627%);stroke-opacity:1;stroke-miterlimit:10;" d="M 33.394531 70.582031 L 54.738281 107.863281 "/>
<path style="fill:none;stroke-width:8;stroke-linecap:round;stroke-linejoin:round;stroke:rgb(75.686275%,70.980392%,61.568627%);stroke-opacity:1;stroke-miterlimit:10;" d="M 60.375 158.839844 L 45.277344 162.527344 L 38.847656 164.09375 L 26.496094 166.792969 L 24.085938 167.269531 L 8.503906 170.34375 L 5.429688 171.5625 "/>
<path style="fill:none;stroke-width:8;stroke-linecap:round;stroke-linejoin:round;stroke:rgb(75.686275%,70.980392%,61.568627%);stroke-opacity:1;stroke-miterlimit:10;" d="M -9 226.503906 L -7.269531 226.183594 L -5.132813 225.78125 L 12.3125 222.476563 L 14.449219 222.070313 L 16.503906 221.691406 L 35.933594 218.109375 "/>
<path style="fill:none;stroke-width:8;stroke-linecap:round;stroke-linejoin:round;stroke:rgb(75.686275%,70.980392%,61.568627%);stroke-opacity:1;stroke-miterlimit:10;" d="M 36.886719 118.429688 L 54.738281 107.863281 L 70.464844 98.710938 L 92.101563 86.1875 "/>
<path style="fill:none;stroke-width:8;stroke-linecap:round;stroke-linejoin:round;stroke:rgb(75.686275%,70.980392%,61.568627%);stroke-opacity:1;stroke-miterlimit:10;" d="M 72.878906 53.808594 L 55.15625 64.039063 L 33.394531 70.582031 L 11.816406 76.601563 "/>
<path style="fill:none;stroke-width:8;stroke-linecap:round;stroke-linejoin:round;stroke:rgb(75.686275%,70.980392%,61.568627%);stroke-opacity:1;stroke-miterlimit:10;" d="M 86.640625 163.851563 L 99.683594 230.933594 L 101.109375 238.253906 "/>
<path style="fill:none;stroke-width:8;stroke-linecap:round;stroke-linejoin:round;stroke:rgb(75.686275%,70.980392%,61.568627%);stroke-opacity:1;stroke-miterlimit:10;" d="M 165.285156 147.292969 L 172.765625 147.136719 L 178.296875 146.632813 L 184.492188 144.800781 L 191.269531 142.460938 L 200.609375 139.480469 L 202.835938 138.769531 L 207.046875 137.398438 L 209.65625 135.839844 L 210.984375 133.660156 L 211.917969 130.933594 L 211.835938 128.371094 L 210.035156 123.972656 L 206.851563 121.582031 L 204.359375 120.957031 L 200.386719 120.800781 L 198.398438 121.425781 L 191.894531 125.242188 L 189.402344 127.347656 "/>
<path style="fill:none;stroke-width:8;stroke-linecap:round;stroke-linejoin:round;stroke:rgb(75.686275%,70.980392%,61.568627%);stroke-opacity:1;stroke-miterlimit:10;" d="M 60.375 158.839844 L 38.542969 121.285156 L 36.886719 118.429688 L 11.816406 76.601563 "/>
<path style="fill:none;stroke-width:8;stroke-linecap:round;stroke-linejoin:round;stroke:rgb(75.686275%,70.980392%,61.568627%);stroke-opacity:1;stroke-miterlimit:10;" d="M 38.847656 164.09375 L 20.554688 132.460938 L 4.546875 105.804688 L -0.464844 97.390625 L -9 98.265625 "/>
<path style="fill:none;stroke-width:8;stroke-linecap:round;stroke-linejoin:round;stroke:rgb(75.686275%,70.980392%,61.568627%);stroke-opacity:1;stroke-miterlimit:10;" d="M -9 217.101563 L -7.714844 223.851563 L -7.269531 226.183594 L -6.9375 227.953125 L -0.183594 264 "/>
<path style="fill:none;stroke-width:8;stroke-linecap:round;stroke-linejoin:round;stroke:rgb(75.686275%,70.980392%,61.568627%);stroke-opacity:1;stroke-miterlimit:10;" d="M 26.496094 166.792969 L 26.863281 168.804688 L 35.933594 218.109375 L 44.289063 264 "/>
<path style="fill:none;stroke-width:8;stroke-linecap:round;stroke-linejoin:round;stroke:rgb(75.686275%,70.980392%,61.568627%);stroke-opacity:1;stroke-miterlimit:10;" d="M 67.34375 175.117188 L 83.503906 264 "/>
<path style="fill:none;stroke-width:8;stroke-linecap:round;stroke-linejoin:round;stroke:rgb(75.686275%,70.980392%,61.568627%);stroke-opacity:1;stroke-miterlimit:10;" d="M 63.902344 264 L 45.277344 162.527344 "/>
<path style="fill:none;stroke-width:8;stroke-linecap:round;stroke-linejoin:round;stroke:rgb(75.686275%,70.980392%,61.568627%);stroke-opacity:1;stroke-miterlimit:10;" d="M 51.078125 29.804688 L 48.605469 34.574219 L 52.429688 48.828125 L 54.671875 61.332031 L 55.15625 64.039063 L 57.980469 76.117188 L 59.5 79.46875 L 69.445313 96.917969 L 70.464844 98.710938 L 87.359375 127.886719 L 98.191406 146.191406 L 101.292969 152.089844 L 102.015625 153.46875 "/>
<path style="fill:none;stroke-width:8;stroke-linecap:round;stroke-linejoin:round;stroke:rgb(75.686275%,70.980392%,61.568627%);stroke-opacity:1;stroke-miterlimit:10;" d="M -9 78.539063 L 11.816406 76.601563 "/>
<path style="fill:none;stroke-width:8;stroke-linecap:round;stroke-linejoin:round;stroke:rgb(75.686275%,70.980392%,61.568627%);stroke-opacity:1;stroke-miterlimit:10;" d="M 11.816406 76.601563 L -7.027344 45.71875 L -9 43.074219 "/>
<path style="fill:none;stroke-width:8;stroke-linecap:round;stroke-linejoin:round;stroke:rgb(75.686275%,70.980392%,61.568627%);stroke-opacity:1;stroke-miterlimit:10;" d="M -9 140.628906 L -8.164063 146.222656 L -6.730469 148.308594 L -3.816406 149.316406 L -1.671875 151.03125 L 0.441406 153.699219 L 1.679688 156.414063 L 2.703125 158.933594 L 4.015625 162.9375 L 5.242188 167.890625 L 5.429688 171.5625 L 5.59375 174.921875 L 14.449219 222.070313 L 14.792969 223.925781 L 22.164063 264 "/>
<path style="fill:none;stroke-width:8;stroke-linecap:round;stroke-linejoin:round;stroke:rgb(75.686275%,70.980392%,61.568627%);stroke-opacity:1;stroke-miterlimit:10;" d="M 129.800781 156.574219 L 129.746094 154.789063 L 128.898438 151.300781 "/>
<path style="fill:none;stroke-width:8;stroke-linecap:round;stroke-linejoin:round;stroke:rgb(75.686275%,70.980392%,61.568627%);stroke-opacity:1;stroke-miterlimit:10;" d="M 128.898438 151.300781 L 125.578125 145.457031 "/>
<path style="fill:none;stroke-width:9;stroke-linecap:round;stroke-linejoin:round;stroke:rgb(75.686275%,70.980392%,61.568627%);stroke-opacity:1;stroke-miterlimit:10;" d="M 129.800781 156.574219 L 128.527344 158.929688 "/>
<path style="fill:none;stroke-width:9;stroke-linecap:round;stroke-linejoin:round;stroke:rgb(75.686275%,70.980392%,61.568627%);stroke-opacity:1;stroke-miterlimit:10;" d="M 123.308594 230.082031 L 123.234375 232.507813 L 123.175781 234.414063 "/>
<path style="fill:none;stroke-width:9;stroke-linecap:round;stroke-linejoin:round;stroke:rgb(75.686275%,70.980392%,61.568627%);stroke-opacity:1;stroke-miterlimit:10;" d="M 116.027344 188.75 L 116.828125 193.871094 "/>
<path style="fill:none;stroke-width:9;stroke-linecap:round;stroke-linejoin:round;stroke:rgb(75.686275%,70.980392%,61.568627%);stroke-opacity:1;stroke-miterlimit:10;" d="M 128.527344 158.929688 L 124.78125 164.617188 "/>
<path style="fill:none;stroke-width:9;stroke-linecap:round;stroke-linejoin:round;stroke:rgb(75.686275%,70.980392%,61.568627%);stroke-opacity:1;stroke-miterlimit:10;" d="M 108.261719 115.570313 L 103.625 107.140625 "/>
<path style="fill:none;stroke-width:9;stroke-linecap:round;stroke-linejoin:round;stroke:rgb(75.686275%,70.980392%,61.568627%);stroke-opacity:1;stroke-miterlimit:10;" d="M 123.175781 234.414063 L 122.507813 237.65625 L 120.640625 246.777344 "/>
<path style="fill:none;stroke-width:9;stroke-linecap:round;stroke-linejoin:round;stroke:rgb(75.686275%,70.980392%,61.568627%);stroke-opacity:1;stroke-miterlimit:10;" d="M 125.578125 145.457031 L 120.476563 136.5625 L 119.054688 134.261719 L 118.84375 133.945313 "/>
<path style="fill:none;stroke-width:9;stroke-linecap:round;stroke-linejoin:round;stroke:rgb(75.686275%,70.980392%,61.568627%);stroke-opacity:1;stroke-miterlimit:10;" d="M 118.84375 133.945313 L 108.261719 115.570313 "/>
<path style="fill:none;stroke-width:9;stroke-linecap:round;stroke-linejoin:round;stroke:rgb(75.686275%,70.980392%,61.568627%);stroke-opacity:1;stroke-miterlimit:10;" d="M 124.78125 164.617188 L 118.144531 174.695313 L 116.941406 178.605469 L 116.0625 182.796875 L 116.027344 188.75 "/>
<path style="fill:none;stroke-width:9;stroke-linecap:round;stroke-linejoin:round;stroke:rgb(75.686275%,70.980392%,61.568627%);stroke-opacity:1;stroke-miterlimit:10;" d="M 120.640625 246.777344 L 116.902344 265 "/>
<path style="fill:none;stroke-width:9;stroke-linecap:round;stroke-linejoin:round;stroke:rgb(75.686275%,70.980392%,61.568627%);stroke-opacity:1;stroke-miterlimit:10;" d="M 116.828125 193.871094 L 123.308594 230.082031 "/>
<path style="fill:none;stroke-width:9;stroke-linecap:round;stroke-linejoin:round;stroke:rgb(75.686275%,70.980392%,61.568627%);stroke-opacity:1;stroke-miterlimit:10;" d="M 103.625 107.140625 L 92.101563 86.1875 L 72.878906 53.808594 L 66.839844 43.054688 L 51.078125 29.804688 L 20.058594 6.84375 L 10.820313 1.9375 L 2.449219 -0.882813 L -10 -3.859375 "/>
<path style="fill:none;stroke-width:8;stroke-linecap:round;stroke-linejoin:round;stroke:rgb(75.686275%,70.980392%,61.568627%);stroke-opacity:1;stroke-miterlimit:10;" d="M 134.859375 62.144531 L 133.167969 62.78125 L 131.832031 63.441406 "/>
<path style="fill:none;stroke-width:8;stroke-linecap:round;stroke-linejoin:round;stroke:rgb(75.686275%,70.980392%,61.568627%);stroke-opacity:1;stroke-miterlimit:10;" d="M 95.1875 84.648438 L 92.101563 86.1875 "/>
<path style="fill:none;stroke-width:8;stroke-linecap:round;stroke-linejoin:round;stroke:rgb(75.686275%,70.980392%,61.568627%);stroke-opacity:1;stroke-miterlimit:10;" d="M 196.5625 132.324219 L 197.789063 127.417969 L 195.910156 120.773438 L 185.726563 105.5625 L 182.261719 104.949219 "/>
<path style="fill:none;stroke-width:6;stroke-linecap:round;stroke-linejoin:round;stroke:rgb(100%,100%,100%);stroke-opacity:1;stroke-miterlimit:10;" d="M 97.050781 231.363281 L 99.683594 230.933594 "/>
<path style="fill:none;stroke-width:6;stroke-linecap:round;stroke-linejoin:round;stroke:rgb(100%,100%,100%);stroke-opacity:1;stroke-miterlimit:10;" d="M 141.902344 125.648438 L 139.761719 126.152344 L 137.789063 127.605469 "/>
<path style="fill:none;stroke-width:6;stroke-linecap:round;stroke-linejoin:round;stroke:rgb(100%,100%,100%);stroke-opacity:1;stroke-miterlimit:10;" d="M 199.449219 149.878906 L 198.617188 145.054688 L 190.175781 146.632813 "/>
<path style="fill:none;stroke-width:6;stroke-linecap:round;stroke-linejoin:round;stroke:rgb(100%,100%,100%);stroke-opacity:1;stroke-miterlimit:10;" d="M 139.8125 241.542969 L 140.207031 259.960938 "/>
<path style="fill:none;stroke-width:6;stroke-linecap:round;stroke-linejoin:round;stroke:rgb(100%,100%,100%);stroke-opacity:1;stroke-miterlimit:10;" d="M 145.296875 259.609375 L 144.65625 241.058594 "/>
<path style="fill:none;stroke-width:6;stroke-linecap:round;stroke-linejoin:round;stroke:rgb(100%,100%,100%);stroke-opacity:1;stroke-miterlimit:10;" d="M 143.113281 128.972656 L 141.296875 128.023438 L 139.636719 128.078125 L 137.902344 128.957031 L 136.515625 130.605469 L 125.578125 145.457031 "/>
<path style="fill:none;stroke-width:6;stroke-linecap:round;stroke-linejoin:round;stroke:rgb(100%,100%,100%);stroke-opacity:1;stroke-miterlimit:10;" d="M 150.359375 240.484375 L 152.640625 258.921875 L 168.609375 257.328125 "/>
<path style="fill:none;stroke-width:6;stroke-linecap:round;stroke-linejoin:round;stroke:rgb(100%,100%,100%);stroke-opacity:1;stroke-miterlimit:10;" d="M 206.675781 126.769531 L 173.722656 138.207031 L 170.496094 144.746094 "/>
<path style="fill:none;stroke-width:6;stroke-linecap:round;stroke-linejoin:round;stroke:rgb(100%,100%,100%);stroke-opacity:1;stroke-miterlimit:10;" d="M 165.285156 147.292969 L 169.175781 145.265625 L 170.496094 144.746094 L 175.71875 142.695313 L 188.109375 137.902344 L 205.757813 132.292969 "/>
<path style="fill:none;stroke-width:6;stroke-linecap:round;stroke-linejoin:round;stroke:rgb(100%,100%,100%);stroke-opacity:1;stroke-miterlimit:10;" d="M 183.769531 107.777344 L 182.382813 107.835938 L 180.582031 108.328125 L 147.046875 125.398438 L 145.246094 125.765625 L 141.902344 125.648438 "/>
<path style="fill:none;stroke-width:6;stroke-linecap:round;stroke-linejoin:round;stroke:rgb(100%,100%,100%);stroke-opacity:1;stroke-miterlimit:10;" d="M 186.183594 111.324219 L 184.878906 111.390625 L 149.546875 128.800781 L 147.214844 128.800781 L 144.664063 126.859375 L 141.902344 125.648438 "/>
<path style="fill:none;stroke-width:6;stroke-linecap:round;stroke-linejoin:round;stroke:rgb(100%,100%,100%);stroke-opacity:1;stroke-miterlimit:10;" d="M 189.089844 115.476563 L 187.859375 115.628906 L 185.699219 116.488281 L 150.195313 132.601563 L 148.339844 132.730469 L 146.480469 131.609375 L 143.113281 128.972656 "/>
<path style="fill:none;stroke-width:6;stroke-linecap:round;stroke-linejoin:round;stroke:rgb(100%,100%,100%);stroke-opacity:1;stroke-miterlimit:10;" d="M 193.277344 121.515625 L 190.019531 120.292969 L 151.964844 136.402344 L 149.546875 136.835938 L 147.949219 136.015625 L 143.113281 128.972656 "/>
<path style="fill:none;stroke-width:6;stroke-linecap:round;stroke-linejoin:round;stroke:rgb(100%,100%,100%);stroke-opacity:1;stroke-miterlimit:10;" d="M 133.921875 260.390625 L 134.515625 242.078125 L 139.8125 241.542969 L 144.65625 241.058594 L 150.359375 240.484375 L 173.019531 238.148438 L 174.816406 238.015625 "/>
<path style="fill:none;stroke-width:6;stroke-linecap:round;stroke-linejoin:round;stroke:rgb(100%,100%,100%);stroke-opacity:1;stroke-miterlimit:10;" d="M 134.859375 62.144531 L 133.558594 60.894531 L 130.90625 57.429688 L 128.917969 54.839844 L 124.925781 47.96875 L 122.835938 43.34375 L 120.929688 39.738281 L 118.964844 36.769531 L 115.890625 33.101563 L 111.820313 29.582031 L 107.203125 26.410156 L 101.203125 23.210938 L 96.628906 19.871094 L 92.289063 17.117188 "/>
<path style="fill:none;stroke-width:6;stroke-linecap:round;stroke-linejoin:round;stroke:rgb(100%,100%,100%);stroke-opacity:1;stroke-miterlimit:10;" d="M 173.28125 154.207031 L 199.449219 149.878906 L 240.515625 143.09375 "/>
<path style="fill:none;stroke-width:6;stroke-linecap:round;stroke-linejoin:round;stroke:rgb(100%,100%,100%);stroke-opacity:1;stroke-miterlimit:10;" d="M 129.800781 156.574219 L 136.941406 161.074219 L 171.050781 152.953125 L 173.28125 154.207031 L 179.546875 186.84375 "/>
<path style="fill:none;stroke-width:3;stroke-linecap:round;stroke-linejoin:round;stroke:rgb(98.039216%,98.039216%,96.078431%);stroke-opacity:1;stroke-miterlimit:10;" d="M 88.28125 30.941406 L 96.628906 19.871094 "/>
<path style="fill:none;stroke-width:3;stroke-linecap:round;stroke-linejoin:round;stroke:rgb(98.039216%,98.039216%,96.078431%);stroke-opacity:1;stroke-miterlimit:10;" d="M 74.257813 49.546875 L 81.699219 39.675781 L 86.265625 33.617188 "/>
<path style="fill:none;stroke-width:3;stroke-linecap:round;stroke-linejoin:round;stroke:rgb(98.039216%,98.039216%,96.078431%);stroke-opacity:1;stroke-miterlimit:10;" d="M 174.574219 261 L 174.785156 241.242188 L 174.816406 238.015625 L 174.992188 221.277344 L 175.003906 218.921875 L 175.046875 208.90625 "/>
<path style="fill:none;stroke-width:6;stroke-linecap:round;stroke-linejoin:round;stroke:rgb(100%,100%,100%);stroke-opacity:1;stroke-miterlimit:10;" d="M 87.84375 163.171875 L 86.640625 163.851563 "/>
<path style="fill:none;stroke-width:6;stroke-linecap:round;stroke-linejoin:round;stroke:rgb(100%,100%,100%);stroke-opacity:1;stroke-miterlimit:10;" d="M 113.207031 185.058594 L 116.828125 193.871094 "/>
<path style="fill:none;stroke-width:6;stroke-linecap:round;stroke-linejoin:round;stroke:rgb(100%,100%,100%);stroke-opacity:1;stroke-miterlimit:10;" d="M 102.015625 153.46875 L 108.535156 164.949219 "/>
<path style="fill:none;stroke-width:6;stroke-linecap:round;stroke-linejoin:round;stroke:rgb(100%,100%,100%);stroke-opacity:1;stroke-miterlimit:10;" d="M 102.015625 153.46875 L 87.84375 163.171875 "/>
<path style="fill:none;stroke-width:6;stroke-linecap:round;stroke-linejoin:round;stroke:rgb(100%,100%,100%);stroke-opacity:1;stroke-miterlimit:10;" d="M 60.375 158.839844 L 62.3125 161.421875 L 64.199219 164.644531 L 65.527344 167.625 L 66.574219 170.972656 L 67.34375 175.117188 "/>
<path style="fill:none;stroke-width:6;stroke-linecap:round;stroke-linejoin:round;stroke:rgb(100%,100%,100%);stroke-opacity:1;stroke-miterlimit:10;" d="M 108.535156 164.949219 L 109.707031 168.316406 L 113.207031 185.058594 "/>
<path style="fill:none;stroke-width:6;stroke-linecap:round;stroke-linejoin:round;stroke:rgb(100%,100%,100%);stroke-opacity:1;stroke-miterlimit:10;" d="M 128.527344 158.929688 L 120.996094 161.597656 L 117.679688 163.507813 L 115.039063 164.292969 L 111.9375 164.613281 L 108.535156 164.949219 "/>
<path style="fill:none;stroke-width:6;stroke-linecap:round;stroke-linejoin:round;stroke:rgb(100%,100%,100%);stroke-opacity:1;stroke-miterlimit:10;" d="M 38.542969 121.285156 L 20.554688 132.460938 "/>
<path style="fill:none;stroke-width:6;stroke-linecap:round;stroke-linejoin:round;stroke:rgb(100%,100%,100%);stroke-opacity:1;stroke-miterlimit:10;" d="M 5.429688 171.5625 L 1.222656 173.226563 L -9 175.542969 "/>
<path style="fill:none;stroke-width:6;stroke-linecap:round;stroke-linejoin:round;stroke:rgb(100%,100%,100%);stroke-opacity:1;stroke-miterlimit:10;" d="M 86.640625 163.851563 L 84.070313 165.351563 L 67.34375 175.117188 "/>
<path style="fill:none;stroke-width:6;stroke-linecap:round;stroke-linejoin:round;stroke:rgb(100%,100%,100%);stroke-opacity:1;stroke-miterlimit:10;" d="M 87.84375 163.171875 L 96.945313 160.695313 L 99.949219 161.09375 L 103.234375 163.050781 L 106.609375 165.382813 L 108.535156 164.949219 "/>
<path style="fill:none;stroke-width:6;stroke-linecap:round;stroke-linejoin:round;stroke:rgb(100%,100%,100%);stroke-opacity:1;stroke-miterlimit:10;" d="M 123.175781 234.414063 L 119.359375 235.078125 L 101.109375 238.253906 "/>
<path style="fill:none;stroke-width:6;stroke-linecap:round;stroke-linejoin:round;stroke:rgb(100%,100%,100%);stroke-opacity:1;stroke-miterlimit:10;" d="M 205.757813 132.292969 L 207.390625 130.773438 L 207.511719 127.929688 L 206.675781 126.769531 L 202.949219 124.578125 L 199.835938 124.460938 L 194.730469 126.449219 L 192.003906 127.113281 L 191.097656 126.65625 "/>
<path style="fill:none;stroke-width:6;stroke-linecap:round;stroke-linejoin:round;stroke:rgb(100%,100%,100%);stroke-opacity:1;stroke-miterlimit:10;" d="M 108.261719 115.570313 L 87.359375 127.886719 "/>
<path style="fill:none;stroke-width:6;stroke-linecap:round;stroke-linejoin:round;stroke:rgb(100%,100%,100%);stroke-opacity:1;stroke-miterlimit:10;" d="M -9 114.332031 L 4.546875 105.804688 "/>
<path style="fill:none;stroke-width:6;stroke-linecap:round;stroke-linejoin:round;stroke:rgb(100%,100%,100%);stroke-opacity:1;stroke-miterlimit:10;" d="M 129.746094 154.789063 L 135.125 153.683594 L 138.488281 152.585938 L 155.96875 148.179688 L 165.285156 147.292969 "/>
<path style="fill:none;stroke-width:6;stroke-linecap:round;stroke-linejoin:round;stroke:rgb(100%,100%,100%);stroke-opacity:1;stroke-miterlimit:10;" d="M 200.609375 139.480469 L 202.054688 137.433594 L 206.183594 135.371094 L 208.40625 133.109375 L 209.652344 129.683594 L 209.183594 127.148438 L 207.859375 125.007813 L 205.757813 123.371094 L 202.09375 122.550781 L 198.394531 123.410156 L 194.574219 125.242188 L 191.097656 126.65625 L 189.402344 127.347656 "/>
<path style="fill:none;stroke-width:6;stroke-linecap:round;stroke-linejoin:round;stroke:rgb(100%,100%,100%);stroke-opacity:1;stroke-miterlimit:10;" d="M 101.109375 238.253906 L 105.59375 264 "/>
<path style="fill:none;stroke-width:6;stroke-linecap:round;stroke-linejoin:round;stroke:rgb(100%,100%,100%);stroke-opacity:1;stroke-miterlimit:10;" d="M -9 25.109375 L -7.058594 20.769531 L -6.207031 18.828125 L 0.945313 2.546875 L 2.449219 -0.882813 "/>
<path style="fill:none;stroke-width:6;stroke-linecap:round;stroke-linejoin:round;stroke:rgb(100%,100%,100%);stroke-opacity:1;stroke-miterlimit:10;" d="M 33.394531 70.582031 L 54.738281 107.863281 "/>
<path style="fill:none;stroke-width:6;stroke-linecap:round;stroke-linejoin:round;stroke:rgb(100%,100%,100%);stroke-opacity:1;stroke-miterlimit:10;" d="M 60.375 158.839844 L 45.277344 162.527344 L 38.847656 164.09375 L 26.496094 166.792969 L 24.085938 167.269531 L 8.503906 170.34375 L 5.429688 171.5625 "/>
<path style="fill:none;stroke-width:6;stroke-linecap:round;stroke-linejoin:round;stroke:rgb(100%,100%,100%);stroke-opacity:1;stroke-miterlimit:10;" d="M -9 226.503906 L -7.269531 226.183594 L -5.132813 225.78125 L 12.3125 222.476563 L 14.449219 222.070313 L 16.503906 221.691406 L 35.933594 218.109375 "/>
<path style="fill:none;stroke-width:6;stroke-linecap:round;stroke-linejoin:round;stroke:rgb(100%,100%,100%);stroke-opacity:1;stroke-miterlimit:10;" d="M 36.886719 118.429688 L 54.738281 107.863281 L 70.464844 98.710938 L 92.101563 86.1875 "/>
<path style="fill:none;stroke-width:6;stroke-linecap:round;stroke-linejoin:round;stroke:rgb(100%,100%,100%);stroke-opacity:1;stroke-miterlimit:10;" d="M 72.878906 53.808594 L 55.15625 64.039063 L 33.394531 70.582031 L 11.816406 76.601563 "/>
<path style="fill:none;stroke-width:6;stroke-linecap:round;stroke-linejoin:round;stroke:rgb(100%,100%,100%);stroke-opacity:1;stroke-miterlimit:10;" d="M 86.640625 163.851563 L 99.683594 230.933594 L 101.109375 238.253906 "/>
<path style="fill:none;stroke-width:6;stroke-linecap:round;stroke-linejoin:round;stroke:rgb(100%,100%,100%);stroke-opacity:1;stroke-miterlimit:10;" d="M 165.285156 147.292969 L 172.765625 147.136719 L 178.296875 146.632813 L 184.492188 144.800781 L 191.269531 142.460938 L 200.609375 139.480469 L 202.835938 138.769531 L 207.046875 137.398438 L 209.65625 135.839844 L 210.984375 133.660156 L 211.917969 130.933594 L 211.835938 128.371094 L 210.035156 123.972656 L 206.851563 121.582031 L 204.359375 120.957031 L 200.386719 120.800781 L 198.398438 121.425781 L 191.894531 125.242188 L 189.402344 127.347656 "/>
<path style="fill:none;stroke-width:6;stroke-linecap:round;stroke-linejoin:round;stroke:rgb(100%,100%,100%);stroke-opacity:1;stroke-miterlimit:10;" d="M 60.375 158.839844 L 38.542969 121.285156 L 36.886719 118.429688 L 11.816406 76.601563 "/>
<path style="fill:none;stroke-width:6;stroke-linecap:round;stroke-linejoin:round;stroke:rgb(100%,100%,100%);stroke-opacity:1;stroke-miterlimit:10;" d="M 38.847656 164.09375 L 20.554688 132.460938 L 4.546875 105.804688 L -0.464844 97.390625 L -9 98.265625 "/>
<path style="fill:none;stroke-width:6;stroke-linecap:round;stroke-linejoin:round;stroke:rgb(100%,100%,100%);stroke-opacity:1;stroke-miterlimit:10;" d="M -9 217.101563 L -7.714844 223.851563 L -7.269531 226.183594 L -6.9375 227.953125 L -0.183594 264 "/>
<path style="fill:none;stroke-width:6;stroke-linecap:round;stroke-linejoin:round;stroke:rgb(100%,100%,100%);stroke-opacity:1;stroke-miterlimit:10;" d="M 26.496094 166.792969 L 26.863281 168.804688 L 35.933594 218.109375 L 44.289063 264 "/>
<path style="fill:none;stroke-width:6;stroke-linecap:round;stroke-linejoin:round;stroke:rgb(100%,100%,100%);stroke-opacity:1;stroke-miterlimit:10;" d="M 67.34375 175.117188 L 83.503906 264 "/>
<path style="fill:none;stroke-width:6;stroke-linecap:round;stroke-linejoin:round;stroke:rgb(100%,100%,100%);stroke-opacity:1;stroke-miterlimit:10;" d="M 63.902344 264 L 45.277344 162.527344 "/>
<path style="fill:none;stroke-width:6;stroke-linecap:round;stroke-linejoin:round;stroke:rgb(100%,100%,100%);stroke-opacity:1;stroke-miterlimit:10;" d="M 51.078125 29.804688 L 48.605469 34.574219 L 52.429688 48.828125 L 54.671875 61.332031 L 55.15625 64.039063 L 57.980469 76.117188 L 59.5 79.46875 L 69.445313 96.917969 L 70.464844 98.710938 L 87.359375 127.886719 L 98.191406 146.191406 L 101.292969 152.089844 L 102.015625 153.46875 "/>
<path style="fill:none;stroke-width:6;stroke-linecap:round;stroke-linejoin:round;stroke:rgb(100%,100%,100%);stroke-opacity:1;stroke-miterlimit:10;" d="M -9 78.539063 L 11.816406 76.601563 "/>
<path style="fill:none;stroke-width:6;stroke-linecap:round;stroke-linejoin:round;stroke:rgb(100%,100%,100%);stroke-opacity:1;stroke-miterlimit:10;" d="M 11.816406 76.601563 L -7.027344 45.71875 L -9 43.074219 "/>
<path style="fill:none;stroke-width:6;stroke-linecap:round;stroke-linejoin:round;stroke:rgb(100%,100%,100%);stroke-opacity:1;stroke-miterlimit:10;" d="M -9 140.628906 L -8.164063 146.222656 L -6.730469 148.308594 L -3.816406 149.316406 L -1.671875 151.03125 L 0.441406 153.699219 L 1.679688 156.414063 L 2.703125 158.933594 L 4.015625 162.9375 L 5.242188 167.890625 L 5.429688 171.5625 L 5.59375 174.921875 L 14.449219 222.070313 L 14.792969 223.925781 L 22.164063 264 "/>
<path style="fill:none;stroke-width:6;stroke-linecap:round;stroke-linejoin:round;stroke:rgb(100%,99.215686%,54.509804%);stroke-opacity:1;stroke-miterlimit:10;" d="M 129.800781 156.574219 L 129.746094 154.789063 L 128.898438 151.300781 "/>
<path style="fill:none;stroke-width:6;stroke-linecap:round;stroke-linejoin:round;stroke:rgb(100%,99.215686%,54.509804%);stroke-opacity:1;stroke-miterlimit:10;" d="M 128.898438 151.300781 L 125.578125 145.457031 "/>
<path style="fill:none;stroke-width:7;stroke-linecap:round;stroke-linejoin:round;stroke:rgb(100%,99.215686%,54.509804%);stroke-opacity:1;stroke-miterlimit:10;" d="M 129.800781 156.574219 L 128.527344 158.929688 "/>
<path style="fill:none;stroke-width:7;stroke-linecap:round;stroke-linejoin:round;stroke:rgb(100%,99.215686%,54.509804%);stroke-opacity:1;stroke-miterlimit:10;" d="M 123.308594 230.082031 L 123.234375 232.507813 L 123.175781 234.414063 "/>
<path style="fill:none;stroke-width:7;stroke-linecap:round;stroke-linejoin:round;stroke:rgb(100%,99.215686%,54.509804%);stroke-opacity:1;stroke-miterlimit:10;" d="M 116.027344 188.75 L 116.828125 193.871094 "/>
<path style="fill:none;stroke-width:7;stroke-linecap:round;stroke-linejoin:round;stroke:rgb(100%,99.215686%,54.509804%);stroke-opacity:1;stroke-miterlimit:10;" d="M 128.527344 158.929688 L 124.78125 164.617188 "/>
<path style="fill:none;stroke-width:7;stroke-linecap:round;stroke-linejoin:round;stroke:rgb(100%,99.215686%,54.509804%);stroke-opacity:1;stroke-miterlimit:10;" d="M 108.261719 115.570313 L 103.625 107.140625 "/>
<path style="fill:none;stroke-width:7;stroke-linecap:round;stroke-linejoin:round;stroke:rgb(100%,99.215686%,54.509804%);stroke-opacity:1;stroke-miterlimit:10;" d="M 123.175781 234.414063 L 122.507813 237.65625 L 120.640625 246.777344 "/>
<path style="fill:none;stroke-width:7;stroke-linecap:round;stroke-linejoin:round;stroke:rgb(100%,99.215686%,54.509804%);stroke-opacity:1;stroke-miterlimit:10;" d="M 125.578125 145.457031 L 120.476563 136.5625 L 119.054688 134.261719 L 118.84375 133.945313 "/>
<path style="fill:none;stroke-width:7;stroke-linecap:round;stroke-linejoin:round;stroke:rgb(100%,99.215686%,54.509804%);stroke-opacity:1;stroke-miterlimit:10;" d="M 118.84375 133.945313 L 108.261719 115.570313 "/>
<path style="fill:none;stroke-width:7;stroke-linecap:round;stroke-linejoin:round;stroke:rgb(100%,99.215686%,54.509804%);stroke-opacity:1;stroke-miterlimit:10;" d="M 124.78125 164.617188 L 118.144531 174.695313 L 116.941406 178.605469 L 116.0625 182.796875 L 116.027344 188.75 "/>
<path style="fill:none;stroke-width:7;stroke-linecap:round;stroke-linejoin:round;stroke:rgb(100%,99.215686%,54.509804%);stroke-opacity:1;stroke-miterlimit:10;" d="M 120.640625 246.777344 L 116.902344 265 "/>
<path style="fill:none;stroke-width:7;stroke-linecap:round;stroke-linejoin:round;stroke:rgb(100%,99.215686%,54.509804%);stroke-opacity:1;stroke-miterlimit:10;" d="M 116.828125 193.871094 L 123.308594 230.082031 "/>
<path style="fill:none;stroke-width:7;stroke-linecap:round;stroke-linejoin:round;stroke:rgb(100%,99.215686%,54.509804%);stroke-opacity:1;stroke-miterlimit:10;" d="M 103.625 107.140625 L 92.101563 86.1875 L 72.878906 53.808594 L 66.839844 43.054688 L 51.078125 29.804688 L 20.058594 6.84375 L 10.820313 1.9375 L 2.449219 -0.882813 L -10 -3.859375 "/>
<path style="fill:none;stroke-width:6;stroke-linecap:round;stroke-linejoin:round;stroke:rgb(100%,100%,100%);stroke-opacity:1;stroke-miterlimit:10;" d="M 134.859375 62.144531 L 133.167969 62.78125 L 131.832031 63.441406 "/>
<path style="fill:none;stroke-width:6;stroke-linecap:round;stroke-linejoin:round;stroke:rgb(100%,100%,100%);stroke-opacity:1;stroke-miterlimit:10;" d="M 95.1875 84.648438 L 92.101563 86.1875 "/>
<path style="fill:none;stroke-width:6;stroke-linecap:round;stroke-linejoin:round;stroke:rgb(100%,100%,100%);stroke-opacity:1;stroke-miterlimit:10;" d="M 196.5625 132.324219 L 197.789063 127.417969 L 195.910156 120.773438 L 185.726563 105.5625 L 182.261719 104.949219 "/>
<path style="fill:none;stroke-width:8;stroke-linecap:butt;stroke-linejoin:round;stroke:rgb(53.333333%,53.333333%,53.333333%);stroke-opacity:1;stroke-miterlimit:10;" d="M 189.402344 127.347656 L 133.171875 149.652344 L 128.898438 151.300781 "/>
<path style="fill:none;stroke-width:8;stroke-linecap:butt;stroke-linejoin:round;stroke:rgb(53.333333%,53.333333%,53.333333%);stroke-opacity:1;stroke-miterlimit:10;" d="M 186.183594 111.324219 L 183.769531 107.777344 "/>
<path style="fill:none;stroke-width:8;stroke-linecap:butt;stroke-linejoin:round;stroke:rgb(53.333333%,53.333333%,53.333333%);stroke-opacity:1;stroke-miterlimit:10;" d="M 189.089844 115.476563 L 186.183594 111.324219 "/>
<path style="fill:none;stroke-width:8;stroke-linecap:butt;stroke-linejoin:round;stroke:rgb(53.333333%,53.333333%,53.333333%);stroke-opacity:1;stroke-miterlimit:10;" d="M 193.277344 121.515625 L 189.089844 115.476563 "/>
<path style="fill:none;stroke-width:8;stroke-linecap:butt;stroke-linejoin:round;stroke:rgb(53.333333%,53.333333%,53.333333%);stroke-opacity:1;stroke-miterlimit:10;" d="M 196.5625 132.324219 L 195.882813 127.777344 L 193.277344 121.515625 "/>
<path style="fill:none;stroke-width:8;stroke-linecap:butt;stroke-linejoin:round;stroke:rgb(53.333333%,53.333333%,53.333333%);stroke-opacity:1;stroke-miterlimit:10;" d="M 132.992188 134.28125 L 130.5625 135.949219 L 128.59375 136.679688 L 126.4375 136.949219 L 120.476563 136.5625 "/>
<path style="fill:none;stroke-width:8;stroke-linecap:butt;stroke-linejoin:round;stroke:rgb(53.333333%,53.333333%,53.333333%);stroke-opacity:1;stroke-miterlimit:10;" d="M 137.789063 127.605469 L 132.992188 134.28125 L 129.117188 140.121094 L 125.578125 145.457031 "/>
<path style="fill:none;stroke-width:8;stroke-linecap:butt;stroke-linejoin:round;stroke:rgb(53.333333%,53.333333%,53.333333%);stroke-opacity:1;stroke-miterlimit:10;" d="M 131.832031 63.441406 L 95.1875 84.648438 "/>
<path style="fill:none;stroke-width:8;stroke-linecap:butt;stroke-linejoin:round;stroke:rgb(53.333333%,53.333333%,53.333333%);stroke-opacity:1;stroke-miterlimit:10;" d="M 183.769531 107.777344 L 182.261719 104.949219 L 179.46875 104.003906 L 176.546875 104.121094 L 143.53125 122.59375 L 140.667969 124.453125 L 137.789063 127.605469 "/>
<path style="fill:none;stroke-width:8;stroke-linecap:butt;stroke-linejoin:round;stroke:rgb(53.333333%,53.333333%,53.333333%);stroke-opacity:1;stroke-miterlimit:10;" d="M 129.800781 156.574219 L 136.453125 157.140625 L 157.757813 152.707031 L 172.8125 149.101563 L 181.054688 146.238281 L 188.769531 141.554688 L 191.542969 139.066406 L 194.917969 135.539063 L 196.5625 132.324219 "/>
<path style="fill:none;stroke-width:6;stroke-linecap:round;stroke-linejoin:round;stroke:rgb(100%,100%,100%);stroke-opacity:1;stroke-miterlimit:10;" d="M 189.402344 127.347656 L 133.171875 149.652344 L 128.898438 151.300781 "/>
<path style="fill:none;stroke-width:6;stroke-linecap:round;stroke-linejoin:round;stroke:rgb(100%,100%,100%);stroke-opacity:1;stroke-miterlimit:10;" d="M 186.183594 111.324219 L 183.769531 107.777344 "/>
<path style="fill:none;stroke-width:6;stroke-linecap:round;stroke-linejoin:round;stroke:rgb(100%,100%,100%);stroke-opacity:1;stroke-miterlimit:10;" d="M 189.089844 115.476563 L 186.183594 111.324219 "/>
<path style="fill:none;stroke-width:6;stroke-linecap:round;stroke-linejoin:round;stroke:rgb(100%,100%,100%);stroke-opacity:1;stroke-miterlimit:10;" d="M 193.277344 121.515625 L 189.089844 115.476563 "/>
<path style="fill:none;stroke-width:6;stroke-linecap:round;stroke-linejoin:round;stroke:rgb(100%,100%,100%);stroke-opacity:1;stroke-miterlimit:10;" d="M 196.5625 132.324219 L 195.882813 127.777344 L 193.277344 121.515625 "/>
<path style="fill:none;stroke-width:6;stroke-linecap:round;stroke-linejoin:round;stroke:rgb(100%,100%,100%);stroke-opacity:1;stroke-miterlimit:10;" d="M 132.992188 134.28125 L 130.5625 135.949219 L 128.59375 136.679688 L 126.4375 136.949219 L 120.476563 136.5625 "/>
<path style="fill:none;stroke-width:6;stroke-linecap:round;stroke-linejoin:round;stroke:rgb(100%,100%,100%);stroke-opacity:1;stroke-miterlimit:10;" d="M 137.789063 127.605469 L 132.992188 134.28125 L 129.117188 140.121094 L 125.578125 145.457031 "/>
<path style="fill:none;stroke-width:6;stroke-linecap:round;stroke-linejoin:round;stroke:rgb(100%,100%,100%);stroke-opacity:1;stroke-miterlimit:10;" d="M 131.832031 63.441406 L 95.1875 84.648438 "/>
<path style="fill:none;stroke-width:6;stroke-linecap:round;stroke-linejoin:round;stroke:rgb(100%,100%,100%);stroke-opacity:1;stroke-miterlimit:10;" d="M 183.769531 107.777344 L 182.261719 104.949219 L 179.46875 104.003906 L 176.546875 104.121094 L 143.53125 122.59375 L 140.667969 124.453125 L 137.789063 127.605469 "/>
<path style="fill:none;stroke-width:6;stroke-linecap:round;stroke-linejoin:round;stroke:rgb(100%,100%,100%);stroke-opacity:1;stroke-miterlimit:10;" d="M 129.800781 156.574219 L 136.453125 157.140625 L 157.757813 152.707031 L 172.8125 149.101563 L 181.054688 146.238281 L 188.769531 141.554688 L 191.542969 139.066406 L 194.917969 135.539063 L 196.5625 132.324219 "/>
<path style="fill:none;stroke-width:3;stroke-linecap:round;stroke-linejoin:round;stroke:rgb(100%,100%,100%);stroke-opacity:1;stroke-miterlimit:10;" d="M 58.085938 59.128906 L 57.054688 59.316406 C 57.1875 58.917969 57.273438 58.550781 57.304688 58.207031 C 57.335938 57.863281 57.324219 57.542969 57.273438 57.253906 C 57.179688 56.722656 56.992188 56.332031 56.710938 56.082031 C 56.4375 55.839844 56.101563 55.761719 55.695313 55.847656 C 55.351563 55.910156 55.101563 56.050781 54.945313 56.269531 C 54.796875 56.488281 54.714844 56.871094 54.695313 57.425781 L 54.679688 58.003906 C 54.65625 58.753906 54.484375 59.332031 54.164063 59.738281 C 53.839844 60.152344 53.359375 60.417969 52.726563 60.535156 C 51.953125 60.667969 51.328125 60.542969 50.851563 60.160156 C 50.371094 59.773438 50.054688 59.132813 49.898438 58.238281 C 49.835938 57.902344 49.8125 57.539063 49.835938 57.144531 C 49.855469 56.746094 49.914063 56.332031 50.007813 55.894531 L 51.101563 55.691406 C 50.914063 56.136719 50.789063 56.558594 50.726563 56.957031 C 50.671875 57.351563 50.683594 57.726563 50.757813 58.082031 C 50.851563 58.621094 51.042969 59.023438 51.335938 59.285156 C 51.636719 59.542969 52.007813 59.632813 52.445313 59.550781 C 52.828125 59.476563 53.117188 59.316406 53.304688 59.066406 C 53.492188 58.816406 53.589844 58.433594 53.601563 57.925781 L 53.632813 57.300781 C 53.652344 56.558594 53.804688 55.996094 54.085938 55.613281 C 54.367188 55.238281 54.808594 55 55.414063 54.894531 C 56.109375 54.769531 56.703125 54.894531 57.195313 55.269531 C 57.683594 55.632813 57.996094 56.207031 58.132813 56.988281 C 58.195313 57.320313 58.21875 57.664063 58.210938 58.019531 C 58.199219 58.371094 58.15625 58.742188 58.085938 59.128906 Z M 58.558594 61.855469 L 56.871094 62.167969 L 57.214844 63.964844 L 56.464844 64.105469 L 56.121094 62.308594 L 52.917969 62.917969 C 52.4375 63 52.136719 63.113281 52.011719 63.261719 C 51.894531 63.40625 51.875 63.660156 51.949219 64.027344 L 52.121094 64.917969 L 51.308594 65.074219 L 51.136719 64.183594 C 51.011719 63.503906 51.0625 63.011719 51.292969 62.699219 C 51.53125 62.394531 52.019531 62.175781 52.761719 62.042969 L 55.964844 61.433594 L 55.839844 60.792969 L 56.589844 60.652344 L 56.714844 61.292969 L 58.402344 60.980469 Z M 53.886719 65.761719 L 57.433594 64.933594 L 57.636719 65.792969 L 54.121094 66.621094 C 53.566406 66.746094 53.175781 66.9375 52.949219 67.199219 C 52.71875 67.457031 52.652344 67.78125 52.746094 68.167969 C 52.847656 68.644531 53.09375 68.980469 53.480469 69.167969 C 53.875 69.355469 54.363281 69.378906 54.949219 69.246094 L 58.261719 68.464844 L 58.464844 69.339844 L 52.605469 70.714844 L 52.402344 69.839844 L 53.292969 69.636719 C 52.894531 69.511719 52.578125 69.328125 52.339844 69.089844 C 52.097656 68.847656 51.9375 68.542969 51.855469 68.167969 C 51.707031 67.574219 51.808594 67.066406 52.152344 66.652344 C 52.503906 66.246094 53.082031 65.949219 53.886719 65.761719 Z M 58.089844 67.074219 Z M 53.027344 74.867188 C 52.277344 74.792969 51.773438 74.664063 51.511719 74.476563 C 51.242188 74.296875 51.058594 74.015625 50.964844 73.632813 L 50.792969 72.945313 L 51.589844 72.742188 L 51.714844 73.257813 C 51.769531 73.484375 51.871094 73.648438 52.027344 73.742188 C 52.183594 73.84375 52.519531 73.921875 53.027344 73.976563 L 53.511719 74.023438 L 58.730469 70.492188 L 58.964844 71.414063 L 54.792969 74.164063 L 59.761719 74.710938 L 59.980469 75.617188 Z M 60.035156 75.730469 L 60.441406 76.574219 L 56.691406 80.339844 L 61.972656 79.605469 L 62.394531 80.433594 L 56.097656 81.324219 L 55.566406 80.246094 Z M 62.820313 86.804688 L 62.398438 87.039063 L 60.382813 83.492188 C 59.808594 83.867188 59.449219 84.28125 59.304688 84.742188 C 59.15625 85.210938 59.230469 85.695313 59.523438 86.195313 C 59.6875 86.496094 59.890625 86.761719 60.132813 86.992188 C 60.371094 87.21875 60.652344 87.433594 60.976563 87.632813 L 60.164063 88.085938 C 59.859375 87.886719 59.59375 87.65625 59.367188 87.398438 C 59.136719 87.148438 58.933594 86.875 58.757813 86.585938 C 58.328125 85.835938 58.230469 85.101563 58.460938 84.382813 C 58.699219 83.664063 59.234375 83.066406 60.070313 82.585938 C 60.921875 82.109375 61.71875 81.9375 62.460938 82.070313 C 63.199219 82.195313 63.773438 82.613281 64.179688 83.320313 C 64.53125 83.953125 64.585938 84.578125 64.335938 85.195313 C 64.09375 85.820313 63.589844 86.355469 62.820313 86.804688 Z M 62.632813 85.898438 C 63.101563 85.617188 63.40625 85.277344 63.554688 84.882813 C 63.710938 84.496094 63.679688 84.117188 63.460938 83.742188 C 63.210938 83.304688 62.875 83.035156 62.460938 82.929688 C 62.042969 82.828125 61.578125 82.894531 61.070313 83.132813 Z M 67.511719 89.804688 L 66.699219 90.273438 C 66.699219 89.96875 66.660156 89.683594 66.589844 89.414063 C 66.515625 89.152344 66.40625 88.898438 66.261719 88.648438 C 66.03125 88.253906 65.796875 88.003906 65.558594 87.898438 C 65.328125 87.785156 65.089844 87.796875 64.839844 87.929688 C 64.640625 88.046875 64.519531 88.207031 64.480469 88.414063 C 64.4375 88.613281 64.480469 88.949219 64.605469 89.429688 L 64.699219 89.710938 C 64.886719 90.335938 64.921875 90.828125 64.808594 91.195313 C 64.703125 91.570313 64.4375 91.882813 64.011719 92.132813 C 63.53125 92.402344 63.046875 92.445313 62.558594 92.257813 C 62.078125 92.078125 61.667969 91.6875 61.324219 91.085938 C 61.175781 90.824219 61.058594 90.542969 60.964844 90.242188 C 60.871094 89.9375 60.785156 89.605469 60.714844 89.242188 L 61.605469 88.742188 C 61.605469 89.117188 61.640625 89.464844 61.714844 89.789063 C 61.785156 90.109375 61.902344 90.40625 62.058594 90.679688 C 62.265625 91.042969 62.496094 91.28125 62.746094 91.398438 C 62.996094 91.511719 63.246094 91.5 63.496094 91.367188 C 63.722656 91.230469 63.859375 91.054688 63.902344 90.835938 C 63.953125 90.625 63.894531 90.25 63.730469 89.710938 L 63.667969 89.398438 C 63.511719 88.859375 63.484375 88.414063 63.589844 88.070313 C 63.691406 87.726563 63.949219 87.441406 64.355469 87.210938 C 64.84375 86.929688 65.308594 86.875 65.746094 87.039063 C 66.191406 87.195313 66.582031 87.566406 66.917969 88.148438 C 67.082031 88.429688 67.214844 88.707031 67.308594 88.976563 C 67.410156 89.257813 67.480469 89.53125 67.511719 89.804688 Z M 67.125 94.816406 C 66.769531 94.191406 66.441406 93.804688 66.140625 93.660156 C 65.835938 93.511719 65.5 93.550781 65.125 93.769531 C 64.820313 93.933594 64.628906 94.160156 64.546875 94.441406 C 64.472656 94.722656 64.523438 95.019531 64.703125 95.332031 C 64.941406 95.769531 65.304688 96.019531 65.796875 96.082031 C 66.296875 96.144531 66.820313 96.011719 67.375 95.691406 L 67.578125 95.582031 Z M 68.359375 96.160156 L 65.375 97.863281 L 64.9375 97.082031 L 65.71875 96.628906 C 65.300781 96.636719 64.941406 96.550781 64.640625 96.363281 C 64.335938 96.183594 64.078125 95.910156 63.859375 95.535156 C 63.585938 95.054688 63.519531 94.585938 63.65625 94.128906 C 63.800781 93.667969 64.125 93.300781 64.625 93.019531 C 65.21875 92.675781 65.757813 92.597656 66.25 92.785156 C 66.75 92.972656 67.203125 93.417969 67.609375 94.128906 L 68.234375 95.207031 L 68.3125 95.160156 C 68.71875 94.929688 68.957031 94.632813 69.03125 94.269531 C 69.113281 93.914063 69.035156 93.523438 68.796875 93.097656 C 68.640625 92.839844 68.453125 92.597656 68.234375 92.378906 C 68.015625 92.160156 67.765625 91.980469 67.484375 91.832031 L 68.28125 91.378906 C 68.570313 91.597656 68.820313 91.824219 69.03125 92.050781 C 69.238281 92.28125 69.414063 92.519531 69.5625 92.769531 C 69.945313 93.445313 70.039063 94.066406 69.84375 94.628906 C 69.65625 95.191406 69.160156 95.699219 68.359375 96.160156 Z M 71.683594 101.546875 L 68.542969 103.359375 L 68.089844 102.578125 L 71.199219 100.78125 C 71.699219 100.5 72.019531 100.195313 72.167969 99.875 C 72.3125 99.5625 72.285156 99.234375 72.089844 98.890625 C 71.847656 98.484375 71.511719 98.246094 71.074219 98.171875 C 70.636719 98.101563 70.167969 98.210938 69.667969 98.5 L 66.714844 100.203125 L 66.261719 99.40625 L 71.480469 96.40625 L 71.933594 97.203125 L 71.121094 97.671875 C 71.535156 97.664063 71.894531 97.742188 72.199219 97.90625 C 72.5 98.074219 72.746094 98.324219 72.933594 98.65625 C 73.246094 99.1875 73.292969 99.695313 73.074219 100.1875 C 72.863281 100.675781 72.402344 101.128906 71.683594 101.546875 Z M 76.539063 101.785156 L 75.070313 102.644531 L 75.992188 104.238281 L 75.335938 104.628906 L 74.414063 103.035156 L 71.585938 104.660156 C 71.15625 104.910156 70.914063 105.117188 70.851563 105.285156 C 70.796875 105.460938 70.867188 105.710938 71.054688 106.035156 L 71.507813 106.832031 L 70.789063 107.253906 L 70.335938 106.457031 C 69.992188 105.863281 69.875 105.378906 69.992188 105.003906 C 70.117188 104.636719 70.5 104.269531 71.148438 103.894531 L 73.976563 102.269531 L 73.648438 101.707031 L 74.304688 101.316406 L 74.632813 101.878906 L 76.101563 101.019531 Z M 79.632813 108.277344 L 77.023438 109.792969 L 77.632813 110.855469 C 77.859375 111.25 78.152344 111.488281 78.507813 111.574219 C 78.859375 111.65625 79.246094 111.578125 79.664063 111.339844 C 80.070313 111.097656 80.324219 110.800781 80.429688 110.449219 C 80.53125 110.105469 80.46875 109.738281 80.242188 109.339844 Z M 79.898438 106.996094 L 81.007813 108.902344 C 81.414063 109.601563 81.539063 110.230469 81.382813 110.792969 C 81.234375 111.355469 80.828125 111.832031 80.164063 112.230469 C 79.476563 112.625 78.851563 112.746094 78.289063 112.589844 C 77.734375 112.433594 77.257813 112.003906 76.851563 111.308594 L 76.242188 110.246094 L 73.460938 111.855469 L 72.960938 111.011719 Z M 83.171875 111.957031 L 83.625 112.722656 L 76.390625 116.910156 L 75.9375 116.144531 Z M 81.175781 119.136719 C 80.808594 118.511719 80.476563 118.125 80.175781 117.980469 C 79.882813 117.832031 79.542969 117.871094 79.160156 118.089844 C 78.867188 118.253906 78.679688 118.480469 78.597656 118.761719 C 78.523438 119.050781 78.574219 119.347656 78.753906 119.652344 C 79.003906 120.089844 79.367188 120.339844 79.847656 120.402344 C 80.335938 120.464844 80.855469 120.332031 81.410156 120.011719 L 81.613281 119.902344 Z M 82.410156 120.464844 L 79.441406 122.183594 L 78.988281 121.417969 L 79.769531 120.964844 C 79.351563 120.964844 78.992188 120.875 78.691406 120.699219 C 78.386719 120.53125 78.128906 120.253906 77.910156 119.871094 C 77.636719 119.390625 77.566406 118.921875 77.691406 118.464844 C 77.824219 118.015625 78.148438 117.648438 78.660156 117.355469 C 79.242188 117.011719 79.785156 116.929688 80.285156 117.105469 C 80.785156 117.285156 81.238281 117.722656 81.644531 118.433594 L 82.269531 119.511719 L 82.347656 119.464844 C 82.753906 119.234375 82.992188 118.9375 83.066406 118.574219 C 83.148438 118.21875 83.070313 117.828125 82.832031 117.402344 C 82.675781 117.144531 82.488281 116.910156 82.269531 116.699219 C 82.050781 116.480469 81.800781 116.300781 81.519531 116.152344 L 82.316406 115.699219 C 82.605469 115.910156 82.855469 116.128906 83.066406 116.355469 C 83.273438 116.585938 83.449219 116.832031 83.597656 117.089844 C 83.980469 117.765625 84.082031 118.378906 83.894531 118.933594 C 83.707031 119.496094 83.210938 120.003906 82.410156 120.464844 Z M 87.308594 124.242188 L 86.511719 124.695313 C 86.519531 124.414063 86.496094 124.140625 86.433594 123.882813 C 86.378906 123.621094 86.285156 123.375 86.152344 123.148438 C 85.859375 122.648438 85.457031 122.363281 84.949219 122.289063 C 84.449219 122.21875 83.875 122.367188 83.230469 122.742188 C 82.605469 123.105469 82.191406 123.527344 81.996094 124.007813 C 81.796875 124.484375 81.84375 124.976563 82.136719 125.476563 C 82.269531 125.703125 82.433594 125.90625 82.621094 126.085938 C 82.808594 126.273438 83.03125 126.429688 83.292969 126.554688 L 82.511719 127.007813 C 82.269531 126.871094 82.050781 126.699219 81.855469 126.492188 C 81.667969 126.292969 81.5 126.070313 81.355469 125.820313 C 80.949219 125.109375 80.871094 124.402344 81.121094 123.695313 C 81.378906 122.996094 81.925781 122.410156 82.761719 121.929688 C 83.605469 121.441406 84.390625 121.269531 85.121094 121.414063 C 85.847656 121.550781 86.425781 121.984375 86.855469 122.710938 C 86.988281 122.941406 87.09375 123.183594 87.167969 123.445313 C 87.25 123.703125 87.296875 123.96875 87.308594 124.242188 Z M 88.230469 130.839844 L 87.824219 131.074219 L 85.761719 127.542969 C 85.199219 127.925781 84.84375 128.355469 84.699219 128.824219 C 84.5625 129.292969 84.640625 129.777344 84.933594 130.277344 C 85.109375 130.578125 85.316406 130.839844 85.558594 131.058594 C 85.796875 131.285156 86.074219 131.496094 86.386719 131.683594 L 85.589844 132.152344 C 85.296875 131.941406 85.03125 131.714844 84.792969 131.464844 C 84.550781 131.222656 84.347656 130.953125 84.183594 130.652344 C 83.746094 129.910156 83.640625 129.183594 83.871094 128.464844 C 84.097656 127.746094 84.625 127.144531 85.449219 126.652344 C 86.292969 126.164063 87.082031 125.980469 87.824219 126.105469 C 88.5625 126.230469 89.140625 126.644531 89.558594 127.339844 C 89.921875 127.964844 89.984375 128.589844 89.746094 129.214844 C 89.515625 129.839844 89.011719 130.378906 88.230469 130.839844 Z M 88.042969 129.917969 C 88.511719 129.636719 88.8125 129.300781 88.949219 128.917969 C 89.09375 128.53125 89.058594 128.152344 88.839844 127.777344 C 88.589844 127.339844 88.25 127.070313 87.824219 126.964844 C 87.40625 126.863281 86.949219 126.933594 86.449219 127.183594 Z M 88.042969 129.917969 "/>
<path style=" stroke:none;fill-rule:evenodd;fill:rgb(20%,20%,20%);fill-opacity:1;" d="M 58.085938 59.128906 L 57.054688 59.316406 C 57.1875 58.917969 57.273438 58.550781 57.304688 58.207031 C 57.335938 57.863281 57.324219 57.542969 57.273438 57.253906 C 57.179688 56.722656 56.992188 56.332031 56.710938 56.082031 C 56.4375 55.839844 56.101563 55.761719 55.695313 55.847656 C 55.351563 55.910156 55.101563 56.050781 54.945313 56.269531 C 54.796875 56.488281 54.714844 56.871094 54.695313 57.425781 L 54.679688 58.003906 C 54.65625 58.753906 54.484375 59.332031 54.164063 59.738281 C 53.839844 60.152344 53.359375 60.417969 52.726563 60.535156 C 51.953125 60.667969 51.328125 60.542969 50.851563 60.160156 C 50.371094 59.773438 50.054688 59.132813 49.898438 58.238281 C 49.835938 57.902344 49.8125 57.539063 49.835938 57.144531 C 49.855469 56.746094 49.914063 56.332031 50.007813 55.894531 L 51.101563 55.691406 C 50.914063 56.136719 50.789063 56.558594 50.726563 56.957031 C 50.671875 57.351563 50.683594 57.726563 50.757813 58.082031 C 50.851563 58.621094 51.042969 59.023438 51.335938 59.285156 C 51.636719 59.542969 52.007813 59.632813 52.445313 59.550781 C 52.828125 59.476563 53.117188 59.316406 53.304688 59.066406 C 53.492188 58.816406 53.589844 58.433594 53.601563 57.925781 L 53.632813 57.300781 C 53.652344 56.558594 53.804688 55.996094 54.085938 55.613281 C 54.367188 55.238281 54.808594 55 55.414063 54.894531 C 56.109375 54.769531 56.703125 54.894531 57.195313 55.269531 C 57.683594 55.632813 57.996094 56.207031 58.132813 56.988281 C 58.195313 57.320313 58.21875 57.664063 58.210938 58.019531 C 58.199219 58.371094 58.15625 58.742188 58.085938 59.128906 Z M 58.558594 61.855469 L 56.871094 62.167969 L 57.214844 63.964844 L 56.464844 64.105469 L 56.121094 62.308594 L 52.917969 62.917969 C 52.4375 63 52.136719 63.113281 52.011719 63.261719 C 51.894531 63.40625 51.875 63.660156 51.949219 64.027344 L 52.121094 64.917969 L 51.308594 65.074219 L 51.136719 64.183594 C 51.011719 63.503906 51.0625 63.011719 51.292969 62.699219 C 51.53125 62.394531 52.019531 62.175781 52.761719 62.042969 L 55.964844 61.433594 L 55.839844 60.792969 L 56.589844 60.652344 L 56.714844 61.292969 L 58.402344 60.980469 Z M 53.886719 65.761719 L 57.433594 64.933594 L 57.636719 65.792969 L 54.121094 66.621094 C 53.566406 66.746094 53.175781 66.9375 52.949219 67.199219 C 52.71875 67.457031 52.652344 67.78125 52.746094 68.167969 C 52.847656 68.644531 53.09375 68.980469 53.480469 69.167969 C 53.875 69.355469 54.363281 69.378906 54.949219 69.246094 L 58.261719 68.464844 L 58.464844 69.339844 L 52.605469 70.714844 L 52.402344 69.839844 L 53.292969 69.636719 C 52.894531 69.511719 52.578125 69.328125 52.339844 69.089844 C 52.097656 68.847656 51.9375 68.542969 51.855469 68.167969 C 51.707031 67.574219 51.808594 67.066406 52.152344 66.652344 C 52.503906 66.246094 53.082031 65.949219 53.886719 65.761719 Z M 58.089844 67.074219 Z M 53.027344 74.867188 C 52.277344 74.792969 51.773438 74.664063 51.511719 74.476563 C 51.242188 74.296875 51.058594 74.015625 50.964844 73.632813 L 50.792969 72.945313 L 51.589844 72.742188 L 51.714844 73.257813 C 51.769531 73.484375 51.871094 73.648438 52.027344 73.742188 C 52.183594 73.84375 52.519531 73.921875 53.027344 73.976563 L 53.511719 74.023438 L 58.730469 70.492188 L 58.964844 71.414063 L 54.792969 74.164063 L 59.761719 74.710938 L 59.980469 75.617188 Z M 60.035156 75.730469 L 60.441406 76.574219 L 56.691406 80.339844 L 61.972656 79.605469 L 62.394531 80.433594 L 56.097656 81.324219 L 55.566406 80.246094 Z M 62.820313 86.804688 L 62.398438 87.039063 L 60.382813 83.492188 C 59.808594 83.867188 59.449219 84.28125 59.304688 84.742188 C 59.15625 85.210938 59.230469 85.695313 59.523438 86.195313 C 59.6875 86.496094 59.890625 86.761719 60.132813 86.992188 C 60.371094 87.21875 60.652344 87.433594 60.976563 87.632813 L 60.164063 88.085938 C 59.859375 87.886719 59.59375 87.65625 59.367188 87.398438 C 59.136719 87.148438 58.933594 86.875 58.757813 86.585938 C 58.328125 85.835938 58.230469 85.101563 58.460938 84.382813 C 58.699219 83.664063 59.234375 83.066406 60.070313 82.585938 C 60.921875 82.109375 61.71875 81.9375 62.460938 82.070313 C 63.199219 82.195313 63.773438 82.613281 64.179688 83.320313 C 64.53125 83.953125 64.585938 84.578125 64.335938 85.195313 C 64.09375 85.820313 63.589844 86.355469 62.820313 86.804688 Z M 62.632813 85.898438 C 63.101563 85.617188 63.40625 85.277344 63.554688 84.882813 C 63.710938 84.496094 63.679688 84.117188 63.460938 83.742188 C 63.210938 83.304688 62.875 83.035156 62.460938 82.929688 C 62.042969 82.828125 61.578125 82.894531 61.070313 83.132813 Z M 67.511719 89.804688 L 66.699219 90.273438 C 66.699219 89.96875 66.660156 89.683594 66.589844 89.414063 C 66.515625 89.152344 66.40625 88.898438 66.261719 88.648438 C 66.03125 88.253906 65.796875 88.003906 65.558594 87.898438 C 65.328125 87.785156 65.089844 87.796875 64.839844 87.929688 C 64.640625 88.046875 64.519531 88.207031 64.480469 88.414063 C 64.4375 88.613281 64.480469 88.949219 64.605469 89.429688 L 64.699219 89.710938 C 64.886719 90.335938 64.921875 90.828125 64.808594 91.195313 C 64.703125 91.570313 64.4375 91.882813 64.011719 92.132813 C 63.53125 92.402344 63.046875 92.445313 62.558594 92.257813 C 62.078125 92.078125 61.667969 91.6875 61.324219 91.085938 C 61.175781 90.824219 61.058594 90.542969 60.964844 90.242188 C 60.871094 89.9375 60.785156 89.605469 60.714844 89.242188 L 61.605469 88.742188 C 61.605469 89.117188 61.640625 89.464844 61.714844 89.789063 C 61.785156 90.109375 61.902344 90.40625 62.058594 90.679688 C 62.265625 91.042969 62.496094 91.28125 62.746094 91.398438 C 62.996094 91.511719 63.246094 91.5 63.496094 91.367188 C 63.722656 91.230469 63.859375 91.054688 63.902344 90.835938 C 63.953125 90.625 63.894531 90.25 63.730469 89.710938 L 63.667969 89.398438 C 63.511719 88.859375 63.484375 88.414063 63.589844 88.070313 C 63.691406 87.726563 63.949219 87.441406 64.355469 87.210938 C 64.84375 86.929688 65.308594 86.875 65.746094 87.039063 C 66.191406 87.195313 66.582031 87.566406 66.917969 88.148438 C 67.082031 88.429688 67.214844 88.707031 67.308594 88.976563 C 67.410156 89.257813 67.480469 89.53125 67.511719 89.804688 Z M 67.125 94.816406 C 66.769531 94.191406 66.441406 93.804688 66.140625 93.660156 C 65.835938 93.511719 65.5 93.550781 65.125 93.769531 C 64.820313 93.933594 64.628906 94.160156 64.546875 94.441406 C 64.472656 94.722656 64.523438 95.019531 64.703125 95.332031 C 64.941406 95.769531 65.304688 96.019531 65.796875 96.082031 C 66.296875 96.144531 66.820313 96.011719 67.375 95.691406 L 67.578125 95.582031 Z M 68.359375 96.160156 L 65.375 97.863281 L 64.9375 97.082031 L 65.71875 96.628906 C 65.300781 96.636719 64.941406 96.550781 64.640625 96.363281 C 64.335938 96.183594 64.078125 95.910156 63.859375 95.535156 C 63.585938 95.054688 63.519531 94.585938 63.65625 94.128906 C 63.800781 93.667969 64.125 93.300781 64.625 93.019531 C 65.21875 92.675781 65.757813 92.597656 66.25 92.785156 C 66.75 92.972656 67.203125 93.417969 67.609375 94.128906 L 68.234375 95.207031 L 68.3125 95.160156 C 68.71875 94.929688 68.957031 94.632813 69.03125 94.269531 C 69.113281 93.914063 69.035156 93.523438 68.796875 93.097656 C 68.640625 92.839844 68.453125 92.597656 68.234375 92.378906 C 68.015625 92.160156 67.765625 91.980469 67.484375 91.832031 L 68.28125 91.378906 C 68.570313 91.597656 68.820313 91.824219 69.03125 92.050781 C 69.238281 92.28125 69.414063 92.519531 69.5625 92.769531 C 69.945313 93.445313 70.039063 94.066406 69.84375 94.628906 C 69.65625 95.191406 69.160156 95.699219 68.359375 96.160156 Z M 71.683594 101.546875 L 68.542969 103.359375 L 68.089844 102.578125 L 71.199219 100.78125 C 71.699219 100.5 72.019531 100.195313 72.167969 99.875 C 72.3125 99.5625 72.285156 99.234375 72.089844 98.890625 C 71.847656 98.484375 71.511719 98.246094 71.074219 98.171875 C 70.636719 98.101563 70.167969 98.210938 69.667969 98.5 L 66.714844 100.203125 L 66.261719 99.40625 L 71.480469 96.40625 L 71.933594 97.203125 L 71.121094 97.671875 C 71.535156 97.664063 71.894531 97.742188 72.199219 97.90625 C 72.5 98.074219 72.746094 98.324219 72.933594 98.65625 C 73.246094 99.1875 73.292969 99.695313 73.074219 100.1875 C 72.863281 100.675781 72.402344 101.128906 71.683594 101.546875 Z M 76.539063 101.785156 L 75.070313 102.644531 L 75.992188 104.238281 L 75.335938 104.628906 L 74.414063 103.035156 L 71.585938 104.660156 C 71.15625 104.910156 70.914063 105.117188 70.851563 105.285156 C 70.796875 105.460938 70.867188 105.710938 71.054688 106.035156 L 71.507813 106.832031 L 70.789063 107.253906 L 70.335938 106.457031 C 69.992188 105.863281 69.875 105.378906 69.992188 105.003906 C 70.117188 104.636719 70.5 104.269531 71.148438 103.894531 L 73.976563 102.269531 L 73.648438 101.707031 L 74.304688 101.316406 L 74.632813 101.878906 L 76.101563 101.019531 Z M 79.632813 108.277344 L 77.023438 109.792969 L 77.632813 110.855469 C 77.859375 111.25 78.152344 111.488281 78.507813 111.574219 C 78.859375 111.65625 79.246094 111.578125 79.664063 111.339844 C 80.070313 111.097656 80.324219 110.800781 80.429688 110.449219 C 80.53125 110.105469 80.46875 109.738281 80.242188 109.339844 Z M 79.898438 106.996094 L 81.007813 108.902344 C 81.414063 109.601563 81.539063 110.230469 81.382813 110.792969 C 81.234375 111.355469 80.828125 111.832031 80.164063 112.230469 C 79.476563 112.625 78.851563 112.746094 78.289063 112.589844 C 77.734375 112.433594 77.257813 112.003906 76.851563 111.308594 L 76.242188 110.246094 L 73.460938 111.855469 L 72.960938 111.011719 Z M 83.171875 111.957031 L 83.625 112.722656 L 76.390625 116.910156 L 75.9375 116.144531 Z M 81.175781 119.136719 C 80.808594 118.511719 80.476563 118.125 80.175781 117.980469 C 79.882813 117.832031 79.542969 117.871094 79.160156 118.089844 C 78.867188 118.253906 78.679688 118.480469 78.597656 118.761719 C 78.523438 119.050781 78.574219 119.347656 78.753906 119.652344 C 79.003906 120.089844 79.367188 120.339844 79.847656 120.402344 C 80.335938 120.464844 80.855469 120.332031 81.410156 120.011719 L 81.613281 119.902344 Z M 82.410156 120.464844 L 79.441406 122.183594 L 78.988281 121.417969 L 79.769531 120.964844 C 79.351563 120.964844 78.992188 120.875 78.691406 120.699219 C 78.386719 120.53125 78.128906 120.253906 77.910156 119.871094 C 77.636719 119.390625 77.566406 118.921875 77.691406 118.464844 C 77.824219 118.015625 78.148438 117.648438 78.660156 117.355469 C 79.242188 117.011719 79.785156 116.929688 80.285156 117.105469 C 80.785156 117.285156 81.238281 117.722656 81.644531 118.433594 L 82.269531 119.511719 L 82.347656 119.464844 C 82.753906 119.234375 82.992188 118.9375 83.066406 118.574219 C 83.148438 118.21875 83.070313 117.828125 82.832031 117.402344 C 82.675781 117.144531 82.488281 116.910156 82.269531 116.699219 C 82.050781 116.480469 81.800781 116.300781 81.519531 116.152344 L 82.316406 115.699219 C 82.605469 115.910156 82.855469 116.128906 83.066406 116.355469 C 83.273438 116.585938 83.449219 116.832031 83.597656 117.089844 C 83.980469 117.765625 84.082031 118.378906 83.894531 118.933594 C 83.707031 119.496094 83.210938 120.003906 82.410156 120.464844 Z M 87.308594 124.242188 L 86.511719 124.695313 C 86.519531 124.414063 86.496094 124.140625 86.433594 123.882813 C 86.378906 123.621094 86.285156 123.375 86.152344 123.148438 C 85.859375 122.648438 85.457031 122.363281 84.949219 122.289063 C 84.449219 122.21875 83.875 122.367188 83.230469 122.742188 C 82.605469 123.105469 82.191406 123.527344 81.996094 124.007813 C 81.796875 124.484375 81.84375 124.976563 82.136719 125.476563 C 82.269531 125.703125 82.433594 125.90625 82.621094 126.085938 C 82.808594 126.273438 83.03125 126.429688 83.292969 126.554688 L 82.511719 127.007813 C 82.269531 126.871094 82.050781 126.699219 81.855469 126.492188 C 81.667969 126.292969 81.5 126.070313 81.355469 125.820313 C 80.949219 125.109375 80.871094 124.402344 81.121094 123.695313 C 81.378906 122.996094 81.925781 122.410156 82.761719 121.929688 C 83.605469 121.441406 84.390625 121.269531 85.121094 121.414063 C 85.847656 121.550781 86.425781 121.984375 86.855469 122.710938 C 86.988281 122.941406 87.09375 123.183594 87.167969 123.445313 C 87.25 123.703125 87.296875 123.96875 87.308594 124.242188 Z M 88.230469 130.839844 L 87.824219 131.074219 L 85.761719 127.542969 C 85.199219 127.925781 84.84375 128.355469 84.699219 128.824219 C 84.5625 129.292969 84.640625 129.777344 84.933594 130.277344 C 85.109375 130.578125 85.316406 130.839844 85.558594 131.058594 C 85.796875 131.285156 86.074219 131.496094 86.386719 131.683594 L 85.589844 132.152344 C 85.296875 131.941406 85.03125 131.714844 84.792969 131.464844 C 84.550781 131.222656 84.347656 130.953125 84.183594 130.652344 C 83.746094 129.910156 83.640625 129.183594 83.871094 128.464844 C 84.097656 127.746094 84.625 127.144531 85.449219 126.652344 C 86.292969 126.164063 87.082031 125.980469 87.824219 126.105469 C 88.5625 126.230469 89.140625 126.644531 89.558594 127.339844 C 89.921875 127.964844 89.984375 128.589844 89.746094 129.214844 C 89.515625 129.839844 89.011719 130.378906 88.230469 130.839844 Z M 88.042969 129.917969 C 88.511719 129.636719 88.8125 129.300781 88.949219 128.917969 C 89.09375 128.53125 89.058594 128.152344 88.839844 127.777344 C 88.589844 127.339844 88.25 127.070313 87.824219 126.964844 C 87.40625 126.863281 86.949219 126.933594 86.449219 127.183594 Z M 88.042969 129.917969 "/>
</g>
</svg>

