<?xml version="1.0" encoding="UTF-8"?>
<svg xmlns="http://www.w3.org/2000/svg" xmlns:xlink="http://www.w3.org/1999/xlink" width="256pt" height="256pt" viewBox="0 0 256 256" version="1.1">
<g id="surface2">
<rect x="0" y="0" width="256" height="256" style="fill:rgb(60%,70.196078%,80%);fill-opacity:1;stroke:none;"/>
<path style=" stroke:none;fill-rule:evenodd;fill:rgb(94.901961%,93.72549%,91.372549%);fill-opacity:1;" d="M 259 -4 L 185.53125 -4 L 179.929688 6.703125 L 170.796875 17.710938 L 165.515625 24.796875 L 159.652344 32.335938 L 158.238281 40.292969 L 151.210938 54.898438 L 145.53125 66.046875 L 136.363281 82.558594 L 127.777344 100.261719 L 123.039063 112.105469 L 123.585938 122.929688 L 117.351563 137.246094 L 109.128906 134.554688 L 102.996094 128.8125 L 95.050781 129.929688 L 84.171875 143.625 L 78.410156 153.921875 L 72.613281 165.652344 L 71.285156 173.664063 L 69.96875 183.792969 L 69.847656 190.324219 L 75.316406 193.523438 L 98.613281 204.316406 L 95.410156 210.457031 L 93.359375 209.554688 L 91.570313 213.378906 L 82.921875 209.03125 L 81.820313 211.34375 L 90.871094 215.789063 L 88.601563 220.605469 L 82.765625 218.859375 L 80.785156 219.660156 L 76.5 225.523438 L 68.535156 225.742188 L 63.976563 225.910156 L 59.042969 225.054688 L 52.207031 223.011719 L 50.585938 222.527344 L 48.644531 223.019531 L 47.625 225.9375 L 48.941406 229.277344 L 50.863281 230.160156 L 50.355469 231.980469 L 57.457031 234.597656 L 62.734375 240.078125 L 61.953125 242.625 L 63.460938 243.3125 L 67.058594 251.164063 L 68.644531 258.539063 L 67.851563 259 L 61.957031 259 L 60.488281 258.816406 L 55.652344 256.910156 L 48.113281 256.511719 L 43.085938 255.964844 L 37.644531 254.394531 L 34.875 258.160156 L 34.828125 259 L -4 259 L -4 -4 Z M 259 -4 "/>
<path style=" stroke:none;fill-rule:evenodd;fill:rgb(60%,70.196078%,80%);fill-opacity:1;" d="M -4 259 L 259 259 L 259 -4 L 185.535156 -4 L 179.929688 6.703125 L 170.796875 17.710938 L 165.515625 24.796875 L 159.652344 32.335938 L 158.238281 40.292969 L 151.210938 54.898438 L 145.535156 66.050781 L 136.363281 82.558594 L 127.777344 100.261719 L 123.039063 112.105469 L 123.585938 122.929688 L 117.351563 137.246094 L 109.128906 134.554688 L 102.996094 128.8125 L 95.050781 129.929688 L 84.171875 143.625 L 78.410156 153.925781 L 72.617188 165.652344 L 71.285156 173.664063 L 69.96875 183.792969 L 69.847656 190.324219 L 75.316406 193.523438 L 98.617188 204.316406 L 95.410156 210.460938 L 93.359375 209.554688 L 91.570313 213.378906 L 82.925781 209.03125 L 81.820313 211.34375 L 90.871094 215.789063 L 88.601563 220.605469 L 82.769531 218.863281 L 80.789063 219.664063 L 76.503906 225.523438 L 68.535156 225.742188 L 63.976563 225.910156 L 59.042969 225.054688 L 52.207031 223.011719 L 50.585938 222.527344 L 48.644531 223.019531 L 47.625 225.9375 L 48.941406 229.277344 L 50.867188 230.160156 L 50.359375 231.980469 L 57.457031 234.597656 L 62.734375 240.078125 L 61.953125 242.625 L 63.460938 243.3125 L 67.058594 251.164063 L 68.644531 258.542969 L 61.957031 259 L 60.488281 258.816406 L 55.652344 256.910156 L 48.113281 256.511719 L 43.085938 255.964844 L 37.644531 254.394531 L 34.875 258.160156 L 34.828125 259 Z M -4 259 "/>
<path style="fill:none;stroke-width:1;stroke-linecap:round;stroke-linejoin:round;stroke:rgb(70.196078%,77.647059%,83.137255%);stroke-opacity:1;stroke-miterlimit:10;" d="M -4 259 L 259 259 L 259 -4 L 185.535156 -4 L 179.929688 6.703125 L 170.796875 17.710938 L 165.515625 24.796875 L 159.652344 32.335938 L 158.238281 40.292969 L 151.210938 54.898438 L 145.535156 66.050781 L 136.363281 82.558594 L 127.777344 100.261719 L 123.039063 112.105469 L 123.585938 122.929688 L 117.351563 137.246094 L 109.128906 134.554688 L 102.996094 128.8125 L 95.050781 129.929688 L 84.171875 143.625 L 78.410156 153.925781 L 72.617188 165.652344 L 71.285156 173.664063 L 69.96875 183.792969 L 69.847656 190.324219 L 75.316406 193.523438 L 98.617188 204.316406 L 95.410156 210.460938 L 93.359375 209.554688 L 91.570313 213.378906 L 82.925781 209.03125 L 81.820313 211.34375 L 90.871094 215.789063 L 88.601563 220.605469 L 82.769531 218.863281 L 80.789063 219.664063 L 76.503906 225.523438 L 68.535156 225.742188 L 63.976563 225.910156 L 59.042969 225.054688 L 52.207031 223.011719 L 50.585938 222.527344 L 48.644531 223.019531 L 47.625 225.9375 L 48.941406 229.277344 L 50.867188 230.160156 L 50.359375 231.980469 L 57.457031 234.597656 L 62.734375 240.078125 L 61.953125 242.625 L 63.460938 243.3125 L 67.058594 251.164063 L 68.644531 258.542969 L 61.957031 259 L 60.488281 258.816406 L 55.652344 256.910156 L 48.113281 256.511719 L 43.085938 255.964844 L 37.644531 254.394531 L 34.875 258.160156 L 34.828125 259 L -4 259 "/>
</g>
</svg>

