<?xml version="1.0" encoding="UTF-8"?>
<svg xmlns="http://www.w3.org/2000/svg" xmlns:xlink="http://www.w3.org/1999/xlink" width="256pt" height="256pt" viewBox="0 0 256 256" version="1.1">
<g id="surface2">
<rect x="0" y="0" width="256" height="256" style="fill:rgb(94.901961%,93.72549%,91.372549%);fill-opacity:1;stroke:none;"/>
<path style=" stroke:none;fill-rule:evenodd;fill:rgb(60%,70.196078%,80%);fill-opacity:1;" d="M -4 259 L 259 259 L 0.882813 259 L -4 255.207031 Z M -4 259 "/>
<path style="fill:none;stroke-width:1;stroke-linecap:round;stroke-linejoin:round;stroke:rgb(70.196078%,77.647059%,83.137255%);stroke-opacity:1;stroke-miterlimit:10;" d="M -4 259 L 259 259 L 0.882813 259 L -4 255.207031 L -4 259 "/>
<path style="fill:none;stroke-width:8;stroke-linecap:round;stroke-linejoin:round;stroke:rgb(75.686275%,70.980392%,61.568627%);stroke-opacity:1;stroke-miterlimit:10;" d="M 15.761719 257.796875 L 11.429688 259.960938 L 7.117188 255.53125 L 1.386719 252.148438 L -2.925781 247.355469 L -7.375 242.492188 L -9 239.15625 M -9 225.5625 L -7.492188 224.433594 "/>
<path style="fill:none;stroke-width:8;stroke-linecap:round;stroke-linejoin:round;stroke:rgb(75.686275%,70.980392%,61.568627%);stroke-opacity:1;stroke-miterlimit:10;" d="M -9 26.605469 L 2.203125 25.863281 L 11.21875 23.171875 L 16.601563 22.152344 L 18.976563 21.988281 L 33.167969 23.367188 L 46.871094 24.027344 L 62.414063 27.210938 L 65.816406 27.277344 L 67.097656 27.113281 L 73.363281 23.730469 L 78.445313 21.824219 L 80.144531 20.9375 L 84.386719 16.867188 L 92.449219 6.621094 L 94.289063 4.980469 L 100.394531 2.710938 L 102.304688 1.167969 L 102.933594 0.347656 L 105.21875 -4.25 L 107.148438 -9 "/>
<path style="fill:none;stroke-width:9;stroke-linecap:round;stroke-linejoin:round;stroke:rgb(75.686275%,70.980392%,61.568627%);stroke-opacity:1;stroke-miterlimit:10;" d="M 20.839844 265 L 15.761719 257.796875 L -3.414063 230.574219 L -7.492188 224.433594 L -10 220.847656 "/>
<path style="fill:none;stroke-width:6;stroke-linecap:round;stroke-linejoin:round;stroke:rgb(100%,100%,100%);stroke-opacity:1;stroke-miterlimit:10;" d="M 15.761719 257.796875 L 11.429688 259.960938 L 7.117188 255.53125 L 1.386719 252.148438 L -2.925781 247.355469 L -7.375 242.492188 L -9 239.15625 M -9 225.5625 L -7.492188 224.433594 "/>
<path style="fill:none;stroke-width:6;stroke-linecap:round;stroke-linejoin:round;stroke:rgb(100%,100%,100%);stroke-opacity:1;stroke-miterlimit:10;" d="M -9 26.605469 L 2.203125 25.863281 L 11.21875 23.171875 L 16.601563 22.152344 L 18.976563 21.988281 L 33.167969 23.367188 L 46.871094 24.027344 L 62.414063 27.210938 L 65.816406 27.277344 L 67.097656 27.113281 L 73.363281 23.730469 L 78.445313 21.824219 L 80.144531 20.9375 L 84.386719 16.867188 L 92.449219 6.621094 L 94.289063 4.980469 L 100.394531 2.710938 L 102.304688 1.167969 L 102.933594 0.347656 L 105.21875 -4.25 L 107.148438 -9 "/>
<path style="fill:none;stroke-width:7;stroke-linecap:round;stroke-linejoin:round;stroke:rgb(100%,99.215686%,54.509804%);stroke-opacity:1;stroke-miterlimit:10;" d="M 20.839844 265 L 15.761719 257.796875 L -3.414063 230.574219 L -7.492188 224.433594 L -10 220.847656 "/>
</g>
</svg>

