<?xml version="1.0" encoding="UTF-8"?>
<svg xmlns="http://www.w3.org/2000/svg" xmlns:xlink="http://www.w3.org/1999/xlink" width="256pt" height="256pt" viewBox="0 0 256 256" version="1.1">
<g id="surface2">
<rect x="0" y="0" width="256" height="256" style="fill:rgb(60%,70.196078%,80%);fill-opacity:1;stroke:none;"/>
<path style=" stroke:none;fill-rule:evenodd;fill:rgb(94.901961%,93.72549%,91.372549%);fill-opacity:1;" d="M 259 -4 L 259 113.988281 L 256.804688 114.933594 L 255.964844 115.566406 L 252.015625 126.253906 L 235.683594 158.269531 L 226.460938 182.171875 L 225.554688 188.40625 L 220.085938 191.410156 L 215.152344 197.097656 L 192.484375 238.726563 L 181.867188 259 L -4 259 L -4 -4 Z M 259 -4 "/>
<path style=" stroke:none;fill-rule:evenodd;fill:rgb(79.607843%,84.705882%,76.470588%);fill-opacity:1;" d="M 197.101563 41.429688 L 200.4375 44.46875 L 239.664063 59.179688 L 260 64.441406 L 260 -4 L 207.636719 -4 L 203.660156 2.691406 L 194.308594 24.636719 L 193.8125 34.6875 Z M 197.101563 41.429688 "/>
<path style=" stroke:none;fill-rule:evenodd;fill:rgb(70.980392%,82.352941%,61.176471%);fill-opacity:1;" d="M 197.101563 41.429688 L 200.4375 44.46875 L 239.664063 59.179688 L 260 64.441406 L 260 -4 L 207.636719 -4 L 203.660156 2.691406 L 194.308594 24.636719 L 193.8125 34.6875 Z M 197.101563 41.429688 "/>
<path style=" stroke:none;fill-rule:evenodd;fill:rgb(60%,70.196078%,80%);fill-opacity:1;" d="M -4 259 L 259 259 L 259 -4 L 259 113.988281 L 256.804688 114.933594 L 255.964844 115.566406 L 252.015625 126.253906 L 235.683594 158.269531 L 226.460938 182.171875 L 225.554688 188.40625 L 220.085938 191.410156 L 215.152344 197.097656 L 192.484375 238.726563 L 181.867188 259 Z M -4 259 "/>
<path style="fill:none;stroke-width:1;stroke-linecap:round;stroke-linejoin:round;stroke:rgb(70.196078%,77.647059%,83.137255%);stroke-opacity:1;stroke-miterlimit:10;" d="M -4 259 L 259 259 L 259 -4 L 259 113.988281 L 256.804688 114.933594 L 255.964844 115.566406 L 252.015625 126.253906 L 235.683594 158.269531 L 226.460938 182.171875 L 225.554688 188.40625 L 220.085938 191.410156 L 215.152344 197.097656 L 192.484375 238.726563 L 181.867188 259 L -4 259 "/>
<path style="fill:none;stroke-width:11;stroke-linecap:butt;stroke-linejoin:round;stroke:rgb(53.333333%,53.333333%,53.333333%);stroke-opacity:1;stroke-miterlimit:10;" d="M 237.753906 66.953125 L 265 73.980469 "/>
<path style="fill:none;stroke-width:11;stroke-linecap:butt;stroke-linejoin:round;stroke:rgb(53.333333%,53.333333%,53.333333%);stroke-opacity:1;stroke-miterlimit:10;" d="M 265 69.566406 L 238.863281 62.757813 "/>
<path style="fill:none;stroke-width:5;stroke-linecap:butt;stroke-linejoin:round;stroke:rgb(53.333333%,53.333333%,53.333333%);stroke-opacity:1;stroke-miterlimit:10;" d="M 239.304688 60.839844 L 259 65.953125 "/>
<path style="fill:none;stroke-width:11;stroke-linecap:butt;stroke-linejoin:round;stroke:rgb(53.333333%,53.333333%,53.333333%);stroke-opacity:1;stroke-miterlimit:10;" d="M 237.941406 66.445313 L 265 73.410156 "/>
<path style="fill:none;stroke-width:11;stroke-linecap:butt;stroke-linejoin:round;stroke:rgb(53.333333%,53.333333%,53.333333%);stroke-opacity:1;stroke-miterlimit:10;" d="M 265 70.179688 L 238.734375 63.335938 "/>
<path style="fill:none;stroke-width:9;stroke-linecap:round;stroke-linejoin:round;stroke:rgb(99.215686%,57.254902%,22.745098%);stroke-opacity:1;stroke-miterlimit:10;" d="M 237.753906 66.953125 L 265 73.980469 "/>
<path style="fill:none;stroke-width:9;stroke-linecap:round;stroke-linejoin:round;stroke:rgb(99.215686%,57.254902%,22.745098%);stroke-opacity:1;stroke-miterlimit:10;" d="M 265 69.566406 L 238.863281 62.757813 "/>
<path style="fill:none;stroke-width:3;stroke-linecap:round;stroke-linejoin:round;stroke:rgb(98.039216%,98.039216%,96.078431%);stroke-opacity:1;stroke-miterlimit:10;" d="M 239.304688 60.839844 L 259 65.953125 "/>
<path style="fill:none;stroke-width:9;stroke-linecap:round;stroke-linejoin:round;stroke:rgb(99.215686%,57.254902%,22.745098%);stroke-opacity:1;stroke-miterlimit:10;" d="M 237.941406 66.445313 L 265 73.410156 "/>
<path style="fill:none;stroke-width:9;stroke-linecap:round;stroke-linejoin:round;stroke:rgb(99.215686%,57.254902%,22.745098%);stroke-opacity:1;stroke-miterlimit:10;" d="M 265 70.179688 L 238.734375 63.335938 "/>
</g>
</svg>

