<?xml version="1.0" encoding="UTF-8"?>
<svg xmlns="http://www.w3.org/2000/svg" xmlns:xlink="http://www.w3.org/1999/xlink" width="256pt" height="256pt" viewBox="0 0 256 256" version="1.1">
<g id="surface2">
<rect x="0" y="0" width="256" height="256" style="fill:rgb(94.901961%,93.72549%,91.372549%);fill-opacity:1;stroke:none;"/>
<path style="fill:none;stroke-width:8;stroke-linecap:round;stroke-linejoin:round;stroke:rgb(75.686275%,70.980392%,61.568627%);stroke-opacity:1;stroke-miterlimit:10;" d="M -9 86.363281 L -4.183594 89.863281 L 2.925781 94.496094 L 9.679688 97.933594 L 27.53125 108.886719 L 31.585938 112.644531 L 38.785156 122.558594 L 41.769531 125.800781 L 44.773438 127.941406 L 47.988281 129.332031 L 56.796875 131.796875 L 61.480469 132.152344 L 67.492188 131.796875 L 74.15625 130.792969 L 79.796875 129.398438 L 86.878906 128.425781 L 94.125 126.707031 L 99.71875 125.183594 L 102.351563 124.148438 L 107.570313 122.074219 L 120.714844 117.539063 L 124.769531 117.246094 L 131.734375 118.703125 L 134.4375 118.964844 L 150.820313 117.925781 L 155.667969 118.023438 L 163.730469 120.257813 L 168.34375 120.453125 L 172.699219 119.707031 L 179.132813 118.023438 L 190.617188 113.875 L 192.554688 113.390625 L 196.5625 113.128906 L 202.105469 113.550781 L 203.410156 113.84375 L 213.898438 118.023438 L 218.675781 120.390625 L 221.445313 120.875 L 231.234375 120.453125 L 233.472656 120.941406 L 236.40625 122.429688 L 239.015625 124.503906 L 239.785156 125.316406 L 242.070313 128.847656 L 243.675781 132.347656 L 244.304688 135.296875 L 244.910156 147.542969 L 246.496094 154.898438 L 247.800781 157.847656 L 251.4375 163.421875 L 252.925781 167.472656 L 255.628906 183.125 L 258.21875 201.398438 L 261.058594 208.785156 L 264 215.101563 "/>
<path style="fill:none;stroke-width:6;stroke-linecap:round;stroke-linejoin:round;stroke:rgb(100%,100%,100%);stroke-opacity:1;stroke-miterlimit:10;" d="M -9 86.363281 L -4.183594 89.863281 L 2.925781 94.496094 L 9.679688 97.933594 L 27.53125 108.886719 L 31.585938 112.644531 L 38.785156 122.558594 L 41.769531 125.800781 L 44.773438 127.941406 L 47.988281 129.332031 L 56.796875 131.796875 L 61.480469 132.152344 L 67.492188 131.796875 L 74.15625 130.792969 L 79.796875 129.398438 L 86.878906 128.425781 L 94.125 126.707031 L 99.71875 125.183594 L 102.351563 124.148438 L 107.570313 122.074219 L 120.714844 117.539063 L 124.769531 117.246094 L 131.734375 118.703125 L 134.4375 118.964844 L 150.820313 117.925781 L 155.667969 118.023438 L 163.730469 120.257813 L 168.34375 120.453125 L 172.699219 119.707031 L 179.132813 118.023438 L 190.617188 113.875 L 192.554688 113.390625 L 196.5625 113.128906 L 202.105469 113.550781 L 203.410156 113.84375 L 213.898438 118.023438 L 218.675781 120.390625 L 221.445313 120.875 L 231.234375 120.453125 L 233.472656 120.941406 L 236.40625 122.429688 L 239.015625 124.503906 L 239.785156 125.316406 L 242.070313 128.847656 L 243.675781 132.347656 L 244.304688 135.296875 L 244.910156 147.542969 L 246.496094 154.898438 L 247.800781 157.847656 L 251.4375 163.421875 L 252.925781 167.472656 L 255.628906 183.125 L 258.21875 201.398438 L 261.058594 208.785156 L 264 215.101563 "/>
</g>
</svg>

