<?xml version="1.0" encoding="UTF-8"?>
<svg xmlns="http://www.w3.org/2000/svg" xmlns:xlink="http://www.w3.org/1999/xlink" width="256pt" height="256pt" viewBox="0 0 256 256" version="1.1">
<g id="surface2">
<rect x="0" y="0" width="256" height="256" style="fill:rgb(94.901961%,93.72549%,91.372549%);fill-opacity:1;stroke:none;"/>
<path style="fill:none;stroke-width:8;stroke-linecap:round;stroke-linejoin:round;stroke:rgb(75.686275%,70.980392%,61.568627%);stroke-opacity:1;stroke-miterlimit:10;" d="M -9 255.105469 L 41.984375 253.785156 L 50.582031 251.679688 "/>
<path style="fill:none;stroke-width:8;stroke-linecap:round;stroke-linejoin:round;stroke:rgb(75.686275%,70.980392%,61.568627%);stroke-opacity:1;stroke-miterlimit:10;" d="M 264 145.046875 L 222.96875 144.871094 "/>
<path style="fill:none;stroke-width:8;stroke-linecap:round;stroke-linejoin:round;stroke:rgb(75.686275%,70.980392%,61.568627%);stroke-opacity:1;stroke-miterlimit:10;" d="M 52.089844 264 L 50.582031 251.679688 L 41.101563 173.964844 L 33.992188 116.859375 L 27.839844 64.792969 L 18.847656 -5.570313 L 18.421875 -9 "/>
<path style="fill:none;stroke-width:6;stroke-linecap:round;stroke-linejoin:round;stroke:rgb(100%,100%,100%);stroke-opacity:1;stroke-miterlimit:10;" d="M -9 255.105469 L 41.984375 253.785156 L 50.582031 251.679688 "/>
<path style="fill:none;stroke-width:6;stroke-linecap:round;stroke-linejoin:round;stroke:rgb(100%,100%,100%);stroke-opacity:1;stroke-miterlimit:10;" d="M 264 145.046875 L 222.96875 144.871094 "/>
<path style="fill:none;stroke-width:6;stroke-linecap:round;stroke-linejoin:round;stroke:rgb(100%,100%,100%);stroke-opacity:1;stroke-miterlimit:10;" d="M 52.089844 264 L 50.582031 251.679688 L 41.101563 173.964844 L 33.992188 116.859375 L 27.839844 64.792969 L 18.847656 -5.570313 L 18.421875 -9 "/>
<path style="fill:none;stroke-width:3;stroke-linecap:round;stroke-linejoin:round;stroke:rgb(100%,100%,100%);stroke-opacity:1;stroke-miterlimit:10;" d="M 32.316406 104.121094 L 29.410156 104.464844 L 29.582031 106.011719 C 29.644531 106.53125 29.804688 106.90625 30.066406 107.136719 C 30.335938 107.363281 30.722656 107.449219 31.222656 107.386719 C 31.722656 107.332031 32.070313 107.160156 32.269531 106.871094 C 32.476563 106.589844 32.550781 106.1875 32.488281 105.667969 Z M 35.597656 103.730469 L 33.191406 104.027344 L 33.347656 105.464844 C 33.410156 105.933594 33.554688 106.269531 33.785156 106.480469 C 34.011719 106.6875 34.324219 106.769531 34.722656 106.730469 C 35.128906 106.675781 35.414063 106.519531 35.582031 106.261719 C 35.757813 106 35.816406 105.636719 35.753906 105.167969 Z M 36.347656 102.667969 L 36.644531 105.136719 C 36.726563 105.875 36.621094 106.464844 36.332031 106.902344 C 36.050781 107.347656 35.589844 107.609375 34.957031 107.683594 C 34.476563 107.734375 34.082031 107.675781 33.769531 107.511719 C 33.457031 107.34375 33.238281 107.066406 33.113281 106.683594 C 33.058594 107.171875 32.867188 107.566406 32.535156 107.871094 C 32.210938 108.171875 31.777344 108.355469 31.238281 108.417969 C 30.519531 108.5 29.941406 108.347656 29.503906 107.964844 C 29.066406 107.578125 28.800781 106.980469 28.707031 106.167969 L 28.394531 103.605469 Z M 37.488281 109.339844 L 37.597656 110.214844 L 29.300781 111.199219 L 29.191406 110.324219 Z M 35.484375 112.351563 L 35.59375 113.226563 L 29.625 113.929688 L 29.515625 113.054688 Z M 37.8125 112.070313 L 37.921875 112.945313 L 36.6875 113.101563 L 36.578125 112.226563 Z M 36.058594 118.519531 L 35.136719 118.628906 C 35.25 118.347656 35.324219 118.070313 35.355469 117.800781 C 35.394531 117.539063 35.394531 117.261719 35.355469 116.972656 C 35.300781 116.523438 35.1875 116.195313 35.011719 115.988281 C 34.832031 115.789063 34.597656 115.710938 34.308594 115.753906 C 34.078125 115.773438 33.90625 115.867188 33.792969 116.035156 C 33.6875 116.210938 33.597656 116.550781 33.527344 117.050781 L 33.496094 117.347656 C 33.421875 117.992188 33.265625 118.464844 33.027344 118.769531 C 32.785156 119.070313 32.421875 119.246094 31.933594 119.300781 C 31.390625 119.371094 30.933594 119.226563 30.558594 118.863281 C 30.183594 118.507813 29.953125 117.988281 29.871094 117.300781 C 29.828125 117.007813 29.816406 116.707031 29.839844 116.394531 C 29.871094 116.082031 29.925781 115.738281 30.011719 115.363281 L 31.011719 115.238281 C 30.875 115.601563 30.777344 115.945313 30.714844 116.269531 C 30.660156 116.589844 30.65625 116.910156 30.699219 117.222656 C 30.75 117.636719 30.863281 117.945313 31.042969 118.144531 C 31.230469 118.351563 31.464844 118.441406 31.746094 118.410156 C 32.015625 118.378906 32.214844 118.269531 32.339844 118.082031 C 32.464844 117.894531 32.558594 117.523438 32.621094 116.972656 L 32.683594 116.660156 C 32.734375 116.097656 32.875 115.679688 33.105469 115.410156 C 33.332031 115.136719 33.683594 114.972656 34.152344 114.910156 C 34.714844 114.847656 35.167969 114.972656 35.511719 115.285156 C 35.863281 115.605469 36.078125 116.101563 36.152344 116.769531 C 36.191406 117.089844 36.203125 117.398438 36.183594 117.691406 C 36.171875 117.980469 36.128906 118.257813 36.058594 118.519531 Z M 36.695313 123.632813 L 35.773438 123.742188 C 35.875 123.460938 35.945313 123.183594 35.976563 122.914063 C 36.007813 122.640625 36.007813 122.367188 35.976563 122.085938 C 35.921875 121.636719 35.808594 121.308594 35.632813 121.101563 C 35.453125 120.902344 35.21875 120.824219 34.929688 120.867188 C 34.699219 120.898438 34.527344 120.996094 34.414063 121.164063 C 34.308594 121.339844 34.226563 121.671875 34.164063 122.164063 L 34.117188 122.476563 C 34.054688 123.121094 33.902344 123.589844 33.664063 123.882813 C 33.421875 124.183594 33.058594 124.367188 32.570313 124.429688 C 32.027344 124.492188 31.570313 124.34375 31.195313 123.992188 C 30.820313 123.636719 30.585938 123.117188 30.492188 122.429688 C 30.460938 122.136719 30.453125 121.828125 30.476563 121.507813 C 30.496094 121.195313 30.546875 120.855469 30.632813 120.492188 L 31.632813 120.367188 C 31.496094 120.710938 31.402344 121.046875 31.351563 121.382813 C 31.296875 121.714844 31.289063 122.039063 31.320313 122.351563 C 31.371094 122.757813 31.492188 123.0625 31.679688 123.273438 C 31.867188 123.480469 32.101563 123.570313 32.382813 123.539063 C 32.652344 123.496094 32.851563 123.382813 32.976563 123.195313 C 33.101563 123.015625 33.1875 122.648438 33.242188 122.085938 L 33.304688 121.789063 C 33.355469 121.214844 33.496094 120.792969 33.726563 120.523438 C 33.964844 120.25 34.320313 120.085938 34.789063 120.023438 C 35.339844 119.960938 35.789063 120.085938 36.132813 120.398438 C 36.484375 120.710938 36.703125 121.199219 36.789063 121.867188 C 36.828125 122.179688 36.839844 122.484375 36.820313 122.789063 C 36.808594 123.089844 36.765625 123.371094 36.695313 123.632813 Z M 35.65625 132.117188 C 35.59375 132.335938 35.445313 132.554688 35.21875 132.773438 C 35 133 34.671875 133.25 34.234375 133.523438 L 32.1875 134.773438 L 32.0625 133.726563 L 34 132.570313 C 34.5 132.257813 34.816406 131.976563 34.953125 131.726563 C 35.097656 131.484375 35.148438 131.179688 35.109375 130.804688 L 34.96875 129.742188 L 31.609375 130.164063 L 31.5 129.195313 L 39.453125 128.210938 L 39.71875 130.382813 C 39.820313 131.214844 39.707031 131.851563 39.375 132.289063 C 39.050781 132.734375 38.5 133.007813 37.71875 133.101563 C 37.226563 133.164063 36.804688 133.109375 36.453125 132.945313 C 36.097656 132.789063 35.832031 132.511719 35.65625 132.117188 Z M 38.6875 129.289063 L 35.859375 129.632813 L 36.015625 130.835938 C 36.078125 131.3125 36.238281 131.65625 36.5 131.867188 C 36.769531 132.074219 37.132813 132.152344 37.59375 132.101563 C 38.0625 132.039063 38.398438 131.871094 38.609375 131.601563 C 38.828125 131.339844 38.90625 130.96875 38.84375 130.492188 Z M 37.882813 137.40625 C 37.820313 136.925781 37.5625 136.570313 37.117188 136.34375 C 36.679688 136.125 36.105469 136.054688 35.398438 136.140625 C 34.679688 136.234375 34.132813 136.441406 33.757813 136.765625 C 33.382813 137.097656 33.226563 137.503906 33.289063 137.984375 C 33.351563 138.453125 33.601563 138.796875 34.039063 139.015625 C 34.476563 139.242188 35.054688 139.3125 35.773438 139.21875 C 36.480469 139.132813 37.023438 138.925781 37.398438 138.59375 C 37.78125 138.269531 37.945313 137.875 37.882813 137.40625 Z M 38.710938 137.296875 C 38.804688 138.054688 38.601563 138.691406 38.101563 139.203125 C 37.609375 139.710938 36.875 140.023438 35.898438 140.140625 C 34.917969 140.265625 34.121094 140.140625 33.507813 139.765625 C 32.890625 139.398438 32.539063 138.835938 32.445313 138.078125 C 32.351563 137.296875 32.554688 136.65625 33.054688 136.15625 C 33.554688 135.65625 34.292969 135.34375 35.273438 135.21875 C 36.25 135.101563 37.042969 135.222656 37.648438 135.578125 C 38.261719 135.941406 38.617188 136.515625 38.710938 137.296875 Z M 36.410156 144.035156 C 36.316406 143.324219 36.160156 142.839844 35.941406 142.582031 C 35.722656 142.332031 35.394531 142.238281 34.957031 142.300781 C 34.613281 142.339844 34.351563 142.476563 34.175781 142.707031 C 33.996094 142.945313 33.929688 143.242188 33.972656 143.597656 C 34.035156 144.085938 34.273438 144.449219 34.691406 144.691406 C 35.117188 144.941406 35.648438 145.027344 36.285156 144.957031 L 36.519531 144.925781 Z M 37.019531 145.753906 L 33.613281 146.175781 L 33.503906 145.300781 L 34.410156 145.191406 C 34.011719 145.023438 33.710938 144.800781 33.503906 144.519531 C 33.292969 144.238281 33.164063 143.882813 33.113281 143.457031 C 33.039063 142.902344 33.152344 142.445313 33.457031 142.082031 C 33.769531 141.714844 34.210938 141.496094 34.785156 141.425781 C 35.460938 141.339844 35.992188 141.476563 36.378906 141.832031 C 36.761719 142.195313 37.007813 142.785156 37.113281 143.597656 L 37.269531 144.832031 L 37.363281 144.816406 C 37.820313 144.761719 38.152344 144.585938 38.363281 144.285156 C 38.570313 143.980469 38.648438 143.589844 38.597656 143.113281 C 38.554688 142.808594 38.476563 142.511719 38.363281 142.222656 C 38.246094 141.941406 38.089844 141.679688 37.894531 141.441406 L 38.785156 141.332031 C 38.972656 141.632813 39.117188 141.929688 39.222656 142.222656 C 39.324219 142.511719 39.394531 142.804688 39.425781 143.097656 C 39.527344 143.867188 39.382813 144.472656 38.988281 144.910156 C 38.589844 145.355469 37.933594 145.636719 37.019531 145.753906 Z M 39.347656 150.910156 L 42.582031 150.503906 L 42.691406 151.378906 L 34.394531 152.410156 L 34.285156 151.535156 L 35.191406 151.425781 C 34.792969 151.277344 34.492188 151.070313 34.285156 150.800781 C 34.085938 150.539063 33.960938 150.214844 33.910156 149.832031 C 33.824219 149.175781 34.042969 148.605469 34.566406 148.128906 C 35.085938 147.660156 35.820313 147.363281 36.769531 147.238281 C 37.707031 147.121094 38.488281 147.230469 39.113281 147.566406 C 39.738281 147.898438 40.089844 148.394531 40.175781 149.050781 C 40.226563 149.433594 40.179688 149.777344 40.035156 150.082031 C 39.898438 150.394531 39.667969 150.667969 39.347656 150.910156 Z M 36.894531 148.144531 C 36.164063 148.238281 35.613281 148.441406 35.238281 148.753906 C 34.863281 149.074219 34.699219 149.472656 34.753906 149.941406 C 34.816406 150.410156 35.066406 150.753906 35.503906 150.972656 C 35.949219 151.191406 36.539063 151.253906 37.269531 151.160156 C 37.988281 151.074219 38.527344 150.871094 38.894531 150.550781 C 39.269531 150.226563 39.425781 149.832031 39.363281 149.363281 C 39.308594 148.894531 39.066406 148.550781 38.628906 148.332031 C 38.191406 148.121094 37.613281 148.058594 36.894531 148.144531 Z M 36.894531 148.144531 "/>
<path style=" stroke:none;fill-rule:evenodd;fill:rgb(20%,20%,20%);fill-opacity:1;" d="M 32.316406 104.121094 L 29.410156 104.464844 L 29.582031 106.011719 C 29.644531 106.53125 29.804688 106.90625 30.066406 107.136719 C 30.335938 107.363281 30.722656 107.449219 31.222656 107.386719 C 31.722656 107.332031 32.070313 107.160156 32.269531 106.871094 C 32.476563 106.589844 32.550781 106.1875 32.488281 105.667969 Z M 35.597656 103.730469 L 33.191406 104.027344 L 33.347656 105.464844 C 33.410156 105.933594 33.554688 106.269531 33.785156 106.480469 C 34.011719 106.6875 34.324219 106.769531 34.722656 106.730469 C 35.128906 106.675781 35.414063 106.519531 35.582031 106.261719 C 35.757813 106 35.816406 105.636719 35.753906 105.167969 Z M 36.347656 102.667969 L 36.644531 105.136719 C 36.726563 105.875 36.621094 106.464844 36.332031 106.902344 C 36.050781 107.347656 35.589844 107.609375 34.957031 107.683594 C 34.476563 107.734375 34.082031 107.675781 33.769531 107.511719 C 33.457031 107.34375 33.238281 107.066406 33.113281 106.683594 C 33.058594 107.171875 32.867188 107.566406 32.535156 107.871094 C 32.210938 108.171875 31.777344 108.355469 31.238281 108.417969 C 30.519531 108.5 29.941406 108.347656 29.503906 107.964844 C 29.066406 107.578125 28.800781 106.980469 28.707031 106.167969 L 28.394531 103.605469 Z M 37.488281 109.339844 L 37.597656 110.214844 L 29.300781 111.199219 L 29.191406 110.324219 Z M 35.484375 112.351563 L 35.59375 113.226563 L 29.625 113.929688 L 29.515625 113.054688 Z M 37.8125 112.070313 L 37.921875 112.945313 L 36.6875 113.101563 L 36.578125 112.226563 Z M 36.058594 118.519531 L 35.136719 118.628906 C 35.25 118.347656 35.324219 118.070313 35.355469 117.800781 C 35.394531 117.539063 35.394531 117.261719 35.355469 116.972656 C 35.300781 116.523438 35.1875 116.195313 35.011719 115.988281 C 34.832031 115.789063 34.597656 115.710938 34.308594 115.753906 C 34.078125 115.773438 33.90625 115.867188 33.792969 116.035156 C 33.6875 116.210938 33.597656 116.550781 33.527344 117.050781 L 33.496094 117.347656 C 33.421875 117.992188 33.265625 118.464844 33.027344 118.769531 C 32.785156 119.070313 32.421875 119.246094 31.933594 119.300781 C 31.390625 119.371094 30.933594 119.226563 30.558594 118.863281 C 30.183594 118.507813 29.953125 117.988281 29.871094 117.300781 C 29.828125 117.007813 29.816406 116.707031 29.839844 116.394531 C 29.871094 116.082031 29.925781 115.738281 30.011719 115.363281 L 31.011719 115.238281 C 30.875 115.601563 30.777344 115.945313 30.714844 116.269531 C 30.660156 116.589844 30.65625 116.910156 30.699219 117.222656 C 30.75 117.636719 30.863281 117.945313 31.042969 118.144531 C 31.230469 118.351563 31.464844 118.441406 31.746094 118.410156 C 32.015625 118.378906 32.214844 118.269531 32.339844 118.082031 C 32.464844 117.894531 32.558594 117.523438 32.621094 116.972656 L 32.683594 116.660156 C 32.734375 116.097656 32.875 115.679688 33.105469 115.410156 C 33.332031 115.136719 33.683594 114.972656 34.152344 114.910156 C 34.714844 114.847656 35.167969 114.972656 35.511719 115.285156 C 35.863281 115.605469 36.078125 116.101563 36.152344 116.769531 C 36.191406 117.089844 36.203125 117.398438 36.183594 117.691406 C 36.171875 117.980469 36.128906 118.257813 36.058594 118.519531 Z M 36.695313 123.632813 L 35.773438 123.742188 C 35.875 123.460938 35.945313 123.183594 35.976563 122.914063 C 36.007813 122.640625 36.007813 122.367188 35.976563 122.085938 C 35.921875 121.636719 35.808594 121.308594 35.632813 121.101563 C 35.453125 120.902344 35.21875 120.824219 34.929688 120.867188 C 34.699219 120.898438 34.527344 120.996094 34.414063 121.164063 C 34.308594 121.339844 34.226563 121.671875 34.164063 122.164063 L 34.117188 122.476563 C 34.054688 123.121094 33.902344 123.589844 33.664063 123.882813 C 33.421875 124.183594 33.058594 124.367188 32.570313 124.429688 C 32.027344 124.492188 31.570313 124.34375 31.195313 123.992188 C 30.820313 123.636719 30.585938 123.117188 30.492188 122.429688 C 30.460938 122.136719 30.453125 121.828125 30.476563 121.507813 C 30.496094 121.195313 30.546875 120.855469 30.632813 120.492188 L 31.632813 120.367188 C 31.496094 120.710938 31.402344 121.046875 31.351563 121.382813 C 31.296875 121.714844 31.289063 122.039063 31.320313 122.351563 C 31.371094 122.757813 31.492188 123.0625 31.679688 123.273438 C 31.867188 123.480469 32.101563 123.570313 32.382813 123.539063 C 32.652344 123.496094 32.851563 123.382813 32.976563 123.195313 C 33.101563 123.015625 33.1875 122.648438 33.242188 122.085938 L 33.304688 121.789063 C 33.355469 121.214844 33.496094 120.792969 33.726563 120.523438 C 33.964844 120.25 34.320313 120.085938 34.789063 120.023438 C 35.339844 119.960938 35.789063 120.085938 36.132813 120.398438 C 36.484375 120.710938 36.703125 121.199219 36.789063 121.867188 C 36.828125 122.179688 36.839844 122.484375 36.820313 122.789063 C 36.808594 123.089844 36.765625 123.371094 36.695313 123.632813 Z M 35.65625 132.117188 C 35.59375 132.335938 35.445313 132.554688 35.21875 132.773438 C 35 133 34.671875 133.25 34.234375 133.523438 L 32.1875 134.773438 L 32.0625 133.726563 L 34 132.570313 C 34.5 132.257813 34.816406 131.976563 34.953125 131.726563 C 35.097656 131.484375 35.148438 131.179688 35.109375 130.804688 L 34.96875 129.742188 L 31.609375 130.164063 L 31.5 129.195313 L 39.453125 128.210938 L 39.71875 130.382813 C 39.820313 131.214844 39.707031 131.851563 39.375 132.289063 C 39.050781 132.734375 38.5 133.007813 37.71875 133.101563 C 37.226563 133.164063 36.804688 133.109375 36.453125 132.945313 C 36.097656 132.789063 35.832031 132.511719 35.65625 132.117188 Z M 38.6875 129.289063 L 35.859375 129.632813 L 36.015625 130.835938 C 36.078125 131.3125 36.238281 131.65625 36.5 131.867188 C 36.769531 132.074219 37.132813 132.152344 37.59375 132.101563 C 38.0625 132.039063 38.398438 131.871094 38.609375 131.601563 C 38.828125 131.339844 38.90625 130.96875 38.84375 130.492188 Z M 37.882813 137.40625 C 37.820313 136.925781 37.5625 136.570313 37.117188 136.34375 C 36.679688 136.125 36.105469 136.054688 35.398438 136.140625 C 34.679688 136.234375 34.132813 136.441406 33.757813 136.765625 C 33.382813 137.097656 33.226563 137.503906 33.289063 137.984375 C 33.351563 138.453125 33.601563 138.796875 34.039063 139.015625 C 34.476563 139.242188 35.054688 139.3125 35.773438 139.21875 C 36.480469 139.132813 37.023438 138.925781 37.398438 138.59375 C 37.78125 138.269531 37.945313 137.875 37.882813 137.40625 Z M 38.710938 137.296875 C 38.804688 138.054688 38.601563 138.691406 38.101563 139.203125 C 37.609375 139.710938 36.875 140.023438 35.898438 140.140625 C 34.917969 140.265625 34.121094 140.140625 33.507813 139.765625 C 32.890625 139.398438 32.539063 138.835938 32.445313 138.078125 C 32.351563 137.296875 32.554688 136.65625 33.054688 136.15625 C 33.554688 135.65625 34.292969 135.34375 35.273438 135.21875 C 36.25 135.101563 37.042969 135.222656 37.648438 135.578125 C 38.261719 135.941406 38.617188 136.515625 38.710938 137.296875 Z M 36.410156 144.035156 C 36.316406 143.324219 36.160156 142.839844 35.941406 142.582031 C 35.722656 142.332031 35.394531 142.238281 34.957031 142.300781 C 34.613281 142.339844 34.351563 142.476563 34.175781 142.707031 C 33.996094 142.945313 33.929688 143.242188 33.972656 143.597656 C 34.035156 144.085938 34.273438 144.449219 34.691406 144.691406 C 35.117188 144.941406 35.648438 145.027344 36.285156 144.957031 L 36.519531 144.925781 Z M 37.019531 145.753906 L 33.613281 146.175781 L 33.503906 145.300781 L 34.410156 145.191406 C 34.011719 145.023438 33.710938 144.800781 33.503906 144.519531 C 33.292969 144.238281 33.164063 143.882813 33.113281 143.457031 C 33.039063 142.902344 33.152344 142.445313 33.457031 142.082031 C 33.769531 141.714844 34.210938 141.496094 34.785156 141.425781 C 35.460938 141.339844 35.992188 141.476563 36.378906 141.832031 C 36.761719 142.195313 37.007813 142.785156 37.113281 143.597656 L 37.269531 144.832031 L 37.363281 144.816406 C 37.820313 144.761719 38.152344 144.585938 38.363281 144.285156 C 38.570313 143.980469 38.648438 143.589844 38.597656 143.113281 C 38.554688 142.808594 38.476563 142.511719 38.363281 142.222656 C 38.246094 141.941406 38.089844 141.679688 37.894531 141.441406 L 38.785156 141.332031 C 38.972656 141.632813 39.117188 141.929688 39.222656 142.222656 C 39.324219 142.511719 39.394531 142.804688 39.425781 143.097656 C 39.527344 143.867188 39.382813 144.472656 38.988281 144.910156 C 38.589844 145.355469 37.933594 145.636719 37.019531 145.753906 Z M 39.347656 150.910156 L 42.582031 150.503906 L 42.691406 151.378906 L 34.394531 152.410156 L 34.285156 151.535156 L 35.191406 151.425781 C 34.792969 151.277344 34.492188 151.070313 34.285156 150.800781 C 34.085938 150.539063 33.960938 150.214844 33.910156 149.832031 C 33.824219 149.175781 34.042969 148.605469 34.566406 148.128906 C 35.085938 147.660156 35.820313 147.363281 36.769531 147.238281 C 37.707031 147.121094 38.488281 147.230469 39.113281 147.566406 C 39.738281 147.898438 40.089844 148.394531 40.175781 149.050781 C 40.226563 149.433594 40.179688 149.777344 40.035156 150.082031 C 39.898438 150.394531 39.667969 150.667969 39.347656 150.910156 Z M 36.894531 148.144531 C 36.164063 148.238281 35.613281 148.441406 35.238281 148.753906 C 34.863281 149.074219 34.699219 149.472656 34.753906 149.941406 C 34.816406 150.410156 35.066406 150.753906 35.503906 150.972656 C 35.949219 151.191406 36.539063 151.253906 37.269531 151.160156 C 37.988281 151.074219 38.527344 150.871094 38.894531 150.550781 C 39.269531 150.226563 39.425781 149.832031 39.363281 149.363281 C 39.308594 148.894531 39.066406 148.550781 38.628906 148.332031 C 38.191406 148.121094 37.613281 148.058594 36.894531 148.144531 Z M 36.894531 148.144531 "/>
</g>
</svg>

