<?xml version="1.0" encoding="UTF-8"?>
<svg xmlns="http://www.w3.org/2000/svg" xmlns:xlink="http://www.w3.org/1999/xlink" width="256pt" height="256pt" viewBox="0 0 256 256" version="1.1">
<g id="surface2">
<rect x="0" y="0" width="256" height="256" style="fill:rgb(94.901961%,93.72549%,91.372549%);fill-opacity:1;stroke:none;"/>
<path style=" stroke:none;fill-rule:evenodd;fill:rgb(79.607843%,84.705882%,76.470588%);fill-opacity:1;" d="M -4 6.566406 L -3.902344 6.234375 L -3.578125 5.257813 L -3.320313 4.035156 L -2.234375 1.984375 L -2.316406 0.105469 L -0.746094 -3.417969 L -4 -4 Z M 8088007.5 5166990.238281 Z M 8088007.5 5166990.238281 "/>
<path style=" stroke:none;fill-rule:evenodd;fill:rgb(70.980392%,82.352941%,61.176471%);fill-opacity:1;" d="M 44.546875 -4 L 44.933594 -3.347656 L 47.011719 -1.171875 L 50.464844 3.902344 L 51.082031 5.445313 L 52.664063 7.023438 L 54.304688 7.71875 L 55.757813 7.726563 L 57.78125 9.679688 L 59.046875 13.277344 L 60.453125 14.949219 L 62.316406 15.503906 L 63.949219 16.515625 L 62.4375 15.480469 L 60.507813 14.902344 L 59.113281 13.246094 L 57.84375 9.640625 L 55.804688 7.671875 L 54.121094 7.589844 L 52.625 6.917969 L 51.695313 6.15625 L 50.527344 3.867188 L 47.070313 -1.214844 L 45.011719 -3.324219 L 44.714844 -4 Z M 44.546875 -4 "/>
<path style=" stroke:none;fill-rule:evenodd;fill:rgb(60%,70.196078%,80%);fill-opacity:1;" d="M 11.785156 9.8125 L 11.851563 10.074219 L 13.074219 9.355469 L 14.027344 9.007813 L 12.191406 9.078125 L 12.160156 9.535156 Z M 11.785156 9.8125 "/>
<path style="fill:none;stroke-width:1;stroke-linecap:round;stroke-linejoin:round;stroke:rgb(70.196078%,77.647059%,83.137255%);stroke-opacity:1;stroke-miterlimit:10;" d="M 11.785156 9.8125 L 11.851563 10.074219 L 13.074219 9.355469 L 14.027344 9.007813 L 12.191406 9.078125 L 12.160156 9.535156 L 11.785156 9.8125 "/>
<path style=" stroke:none;fill-rule:evenodd;fill:rgb(60%,70.196078%,80%);fill-opacity:1;" d="M 14.113281 8.867188 L 14.222656 9.191406 L 16.792969 8.902344 L 19.34375 9.40625 L 21.105469 9.09375 L 22.804688 7.199219 L 23.046875 6.097656 L 23.910156 5.488281 L 25.34375 4.972656 L 22.828125 4.996094 L 21.199219 7.566406 L 20.207031 8.007813 L 18.550781 8.140625 L 15.984375 8.164063 L 14.675781 8.476563 Z M 14.113281 8.867188 "/>
<path style="fill:none;stroke-width:1;stroke-linecap:round;stroke-linejoin:round;stroke:rgb(70.196078%,77.647059%,83.137255%);stroke-opacity:1;stroke-miterlimit:10;" d="M 14.113281 8.867188 L 14.222656 9.191406 L 16.792969 8.902344 L 19.34375 9.40625 L 21.105469 9.09375 L 22.804688 7.199219 L 23.046875 6.097656 L 23.910156 5.488281 L 25.34375 4.972656 L 22.828125 4.996094 L 21.199219 7.566406 L 20.207031 8.007813 L 18.550781 8.140625 L 15.984375 8.164063 L 14.675781 8.476563 L 14.113281 8.867188 "/>
<path style=" stroke:none;fill-rule:evenodd;fill:rgb(60%,70.196078%,80%);fill-opacity:1;" d="M 25.367188 5.277344 L 27.027344 5.738281 L 28.472656 5.484375 L 25.78125 4.996094 L 25.539063 4.828125 Z M 25.367188 5.277344 "/>
<path style="fill:none;stroke-width:1;stroke-linecap:round;stroke-linejoin:round;stroke:rgb(70.196078%,77.647059%,83.137255%);stroke-opacity:1;stroke-miterlimit:10;" d="M 25.367188 5.277344 L 27.027344 5.738281 L 28.472656 5.484375 L 25.78125 4.996094 L 25.539063 4.828125 L 25.367188 5.277344 "/>
<path style=" stroke:none;fill-rule:evenodd;fill:rgb(60%,70.196078%,80%);fill-opacity:1;" d="M 3.894531 10.738281 L 3.917969 10.953125 L 5.003906 11.191406 L 6.9375 11.136719 L 5.769531 10.492188 Z M 3.894531 10.738281 "/>
<path style="fill:none;stroke-width:1;stroke-linecap:round;stroke-linejoin:round;stroke:rgb(70.196078%,77.647059%,83.137255%);stroke-opacity:1;stroke-miterlimit:10;" d="M 3.894531 10.738281 L 3.917969 10.953125 L 5.003906 11.191406 L 6.9375 11.136719 L 5.769531 10.492188 L 3.894531 10.738281 "/>
<path style=" stroke:none;fill-rule:evenodd;fill:rgb(60%,70.196078%,80%);fill-opacity:1;" d="M 252.917969 2.300781 L 253.332031 2.390625 L 253.800781 1.339844 L 253.519531 1.148438 Z M 252.917969 2.300781 "/>
<path style="fill:none;stroke-width:1;stroke-linecap:round;stroke-linejoin:round;stroke:rgb(70.196078%,77.647059%,83.137255%);stroke-opacity:1;stroke-miterlimit:10;" d="M 252.917969 2.300781 L 253.332031 2.390625 L 253.800781 1.339844 L 253.519531 1.148438 L 252.917969 2.300781 "/>
<path style="fill:none;stroke-width:2;stroke-linecap:round;stroke-linejoin:round;stroke:rgb(60%,70.196078%,80%);stroke-opacity:1;stroke-miterlimit:10;" d="M 9.578125 126.632813 L 7.972656 127.375 L 7.023438 129.328125 L 5.390625 130.121094 L 4.777344 131.273438 L 2 131.820313 L 0.585938 132.425781 L 0.636719 133.597656 L -1.191406 133.9375 L -2.882813 134.285156 L -3 134.511719 "/>
<path style="fill:none;stroke-width:2;stroke-linecap:round;stroke-linejoin:round;stroke:rgb(60%,70.196078%,80%);stroke-opacity:1;stroke-miterlimit:10;" d="M 63.699219 17.683594 L 64.109375 16.761719 L 62.652344 15.753906 L 61.570313 15.308594 L 60.546875 15.4375 L 59.421875 15.605469 L 58.707031 13.742188 L 58.007813 12.753906 L 57.550781 11.71875 L 57.804688 10.664063 L 57.023438 9.132813 L 55.808594 7.832031 L 54.378906 8.578125 L 53.320313 7.789063 L 52.316406 6.964844 L 51.730469 5.921875 L 50.789063 4.441406 L 51.316406 2.382813 L 49.960938 0.835938 L 48.777344 -0.472656 L 48.203125 -1.890625 L 46.214844 -2.394531 L 45.761719 -3 "/>
<path style="fill:none;stroke-width:0.5;stroke-linecap:round;stroke-linejoin:round;stroke:rgb(75.686275%,70.980392%,61.568627%);stroke-opacity:1;stroke-miterlimit:10;" d="M 126.585938 12.21875 L 127.035156 9.222656 "/>
<path style="fill:none;stroke-width:0.5;stroke-linecap:round;stroke-linejoin:round;stroke:rgb(75.686275%,70.980392%,61.568627%);stroke-opacity:1;stroke-miterlimit:10;" d="M 115.214844 1.316406 L 116.167969 1.828125 "/>
<path style="fill:none;stroke-width:0.5;stroke-linecap:round;stroke-linejoin:round;stroke:rgb(75.686275%,70.980392%,61.568627%);stroke-opacity:1;stroke-miterlimit:10;" d="M 94.132813 14.054688 L 95.113281 14.527344 L 95.335938 14.058594 "/>
<path style="fill:none;stroke-width:0.5;stroke-linecap:round;stroke-linejoin:round;stroke:rgb(75.686275%,70.980392%,61.568627%);stroke-opacity:1;stroke-miterlimit:10;" d="M 53.914063 5.777344 L 53.652344 5.75 "/>
<path style="fill:none;stroke-width:0.5;stroke-linecap:round;stroke-linejoin:round;stroke:rgb(75.686275%,70.980392%,61.568627%);stroke-opacity:1;stroke-miterlimit:10;" d="M 72.171875 5.199219 L 71.476563 5.113281 "/>
<path style="fill:none;stroke-width:0.5;stroke-linecap:round;stroke-linejoin:round;stroke:rgb(75.686275%,70.980392%,61.568627%);stroke-opacity:1;stroke-miterlimit:10;" d="M 53.835938 5.332031 L 53.988281 5.25 "/>
<path style="fill:none;stroke-width:0.5;stroke-linecap:round;stroke-linejoin:round;stroke:rgb(75.686275%,70.980392%,61.568627%);stroke-opacity:1;stroke-miterlimit:10;" d="M 52.378906 14.996094 L 52.039063 14.054688 "/>
<path style="fill:none;stroke-width:0.5;stroke-linecap:round;stroke-linejoin:round;stroke:rgb(75.686275%,70.980392%,61.568627%);stroke-opacity:1;stroke-miterlimit:10;" d="M 77.730469 13.253906 L 78.070313 11.765625 L 78.71875 10.257813 "/>
<path style="fill:none;stroke-width:0.5;stroke-linecap:round;stroke-linejoin:round;stroke:rgb(75.686275%,70.980392%,61.568627%);stroke-opacity:1;stroke-miterlimit:10;" d="M 59.359375 15.777344 L 58.691406 16.28125 "/>
<path style="fill:none;stroke-width:0.5;stroke-linecap:round;stroke-linejoin:round;stroke:rgb(75.686275%,70.980392%,61.568627%);stroke-opacity:1;stroke-miterlimit:10;" d="M 58.5625 14.714844 L 58.117188 15.175781 "/>
<path style="fill:none;stroke-width:0.5;stroke-linecap:round;stroke-linejoin:round;stroke:rgb(75.686275%,70.980392%,61.568627%);stroke-opacity:1;stroke-miterlimit:10;" d="M 103.535156 11.207031 L 103.289063 10.777344 "/>
<path style="fill:none;stroke-width:0.5;stroke-linecap:round;stroke-linejoin:round;stroke:rgb(75.686275%,70.980392%,61.568627%);stroke-opacity:1;stroke-miterlimit:10;" d="M 100.148438 17.367188 L 99.113281 16.949219 L 98.179688 16.855469 "/>
<path style="fill:none;stroke-width:0.5;stroke-linecap:round;stroke-linejoin:round;stroke:rgb(75.686275%,70.980392%,61.568627%);stroke-opacity:1;stroke-miterlimit:10;" d="M 155.046875 12.429688 L 154.382813 11.675781 L 154.050781 11.003906 "/>
<path style="fill:none;stroke-width:0.5;stroke-linecap:round;stroke-linejoin:round;stroke:rgb(75.686275%,70.980392%,61.568627%);stroke-opacity:1;stroke-miterlimit:10;" d="M 31.375 3.875 L 31.335938 3.082031 "/>
<path style="fill:none;stroke-width:0.5;stroke-linecap:round;stroke-linejoin:round;stroke:rgb(75.686275%,70.980392%,61.568627%);stroke-opacity:1;stroke-miterlimit:10;" d="M 73.804688 10.898438 L 73.890625 10.4375 "/>
<path style="fill:none;stroke-width:0.5;stroke-linecap:round;stroke-linejoin:round;stroke:rgb(75.686275%,70.980392%,61.568627%);stroke-opacity:1;stroke-miterlimit:10;" d="M 72.597656 11.902344 L 72.503906 11.441406 "/>
<path style="fill:none;stroke-width:0.5;stroke-linecap:round;stroke-linejoin:round;stroke:rgb(75.686275%,70.980392%,61.568627%);stroke-opacity:1;stroke-miterlimit:10;" d="M 155.035156 0.617188 L 153.335938 0.617188 "/>
<path style="fill:none;stroke-width:0.5;stroke-linecap:round;stroke-linejoin:round;stroke:rgb(75.686275%,70.980392%,61.568627%);stroke-opacity:1;stroke-miterlimit:10;" d="M 54.046875 6.550781 L 53.800781 6.371094 "/>
<path style="fill:none;stroke-width:0.5;stroke-linecap:round;stroke-linejoin:round;stroke:rgb(75.686275%,70.980392%,61.568627%);stroke-opacity:1;stroke-miterlimit:10;" d="M 54.332031 7.597656 L 53.972656 7.480469 "/>
<path style="fill:none;stroke-width:0.5;stroke-linecap:round;stroke-linejoin:round;stroke:rgb(75.686275%,70.980392%,61.568627%);stroke-opacity:1;stroke-miterlimit:10;" d="M 109.523438 5.167969 L 108.738281 4.535156 "/>
<path style="fill:none;stroke-width:0.5;stroke-linecap:round;stroke-linejoin:round;stroke:rgb(75.686275%,70.980392%,61.568627%);stroke-opacity:1;stroke-miterlimit:10;" d="M 54.015625 5.273438 L 55.003906 5.003906 L 56.125 5.285156 L 54.691406 5.492188 L 54.015625 5.273438 "/>
<path style="fill:none;stroke-width:0.5;stroke-linecap:round;stroke-linejoin:round;stroke:rgb(75.686275%,70.980392%,61.568627%);stroke-opacity:1;stroke-miterlimit:10;" d="M 30.003906 4.3125 L 29.953125 3.808594 "/>
<path style="fill:none;stroke-width:0.5;stroke-linecap:round;stroke-linejoin:round;stroke:rgb(75.686275%,70.980392%,61.568627%);stroke-opacity:1;stroke-miterlimit:10;" d="M 232.675781 9.273438 L 232.738281 7.746094 L 232.769531 6.375 L 233.070313 5.382813 L 233.921875 3.789063 L 234.785156 3.058594 L 235.652344 2.6875 "/>
<path style="fill:none;stroke-width:0.5;stroke-linecap:round;stroke-linejoin:round;stroke:rgb(75.686275%,70.980392%,61.568627%);stroke-opacity:1;stroke-miterlimit:10;" d="M 112.242188 14.0625 L 112.347656 14.527344 "/>
<path style="fill:none;stroke-width:0.5;stroke-linecap:round;stroke-linejoin:round;stroke:rgb(75.686275%,70.980392%,61.568627%);stroke-opacity:1;stroke-miterlimit:10;" d="M 85.214844 3.171875 L 85.800781 3.917969 "/>
<path style="fill:none;stroke-width:0.5;stroke-linecap:round;stroke-linejoin:round;stroke:rgb(75.686275%,70.980392%,61.568627%);stroke-opacity:1;stroke-miterlimit:10;" d="M 35.367188 4.703125 L 35.171875 5.921875 L 35.226563 6.296875 "/>
<path style="fill:none;stroke-width:0.5;stroke-linecap:round;stroke-linejoin:round;stroke:rgb(75.686275%,70.980392%,61.568627%);stroke-opacity:1;stroke-miterlimit:10;" d="M 6.433594 16.363281 L 6.855469 15.972656 "/>
<path style="fill:none;stroke-width:0.5;stroke-linecap:round;stroke-linejoin:round;stroke:rgb(75.686275%,70.980392%,61.568627%);stroke-opacity:1;stroke-miterlimit:10;" d="M 232.015625 8.695313 L 231.175781 9.304688 "/>
<path style="fill:none;stroke-width:0.5;stroke-linecap:round;stroke-linejoin:round;stroke:rgb(75.686275%,70.980392%,61.568627%);stroke-opacity:1;stroke-miterlimit:10;" d="M 18.164063 8.125 L 18.25 8.25 "/>
<path style="fill:none;stroke-width:0.5;stroke-linecap:round;stroke-linejoin:round;stroke:rgb(75.686275%,70.980392%,61.568627%);stroke-opacity:1;stroke-miterlimit:10;" d="M 170.101563 9.144531 L 169.039063 8.820313 L 168.917969 8.863281 "/>
<path style="fill:none;stroke-width:0.5;stroke-linecap:round;stroke-linejoin:round;stroke:rgb(75.686275%,70.980392%,61.568627%);stroke-opacity:1;stroke-miterlimit:10;" d="M 167.378906 14.328125 L 168.25 13.617188 "/>
<path style="fill:none;stroke-width:0.5;stroke-linecap:round;stroke-linejoin:round;stroke:rgb(75.686275%,70.980392%,61.568627%);stroke-opacity:1;stroke-miterlimit:10;" d="M 182.867188 12.6875 L 183.6875 11.9375 L 184.28125 12.003906 "/>
<path style="fill:none;stroke-width:0.5;stroke-linecap:round;stroke-linejoin:round;stroke:rgb(75.686275%,70.980392%,61.568627%);stroke-opacity:1;stroke-miterlimit:10;" d="M 228.589844 1.964844 L 229.871094 2.011719 "/>
<path style="fill:none;stroke-width:0.5;stroke-linecap:round;stroke-linejoin:round;stroke:rgb(75.686275%,70.980392%,61.568627%);stroke-opacity:1;stroke-miterlimit:10;" d="M 192.691406 6.238281 L 193.414063 6.929688 L 194.4375 6.257813 L 195.195313 5.492188 L 195.710938 6.296875 "/>
<path style="fill:none;stroke-width:0.5;stroke-linecap:round;stroke-linejoin:round;stroke:rgb(75.686275%,70.980392%,61.568627%);stroke-opacity:1;stroke-miterlimit:10;" d="M 211.796875 15.632813 L 210.996094 15.230469 "/>
<path style="fill:none;stroke-width:0.5;stroke-linecap:round;stroke-linejoin:round;stroke:rgb(75.686275%,70.980392%,61.568627%);stroke-opacity:1;stroke-miterlimit:10;" d="M 207.832031 12.335938 L 208.40625 11.320313 L 208.242188 11.136719 "/>
<path style="fill:none;stroke-width:0.5;stroke-linecap:round;stroke-linejoin:round;stroke:rgb(75.686275%,70.980392%,61.568627%);stroke-opacity:1;stroke-miterlimit:10;" d="M 217.109375 4.144531 L 217.171875 3.84375 "/>
<path style="fill:none;stroke-width:0.5;stroke-linecap:round;stroke-linejoin:round;stroke:rgb(75.686275%,70.980392%,61.568627%);stroke-opacity:1;stroke-miterlimit:10;" d="M 217.476563 2.160156 L 217.515625 0.710938 L 217.542969 0.546875 "/>
<path style="fill:none;stroke-width:0.5;stroke-linecap:round;stroke-linejoin:round;stroke:rgb(75.686275%,70.980392%,61.568627%);stroke-opacity:1;stroke-miterlimit:10;" d="M 146.164063 14.414063 L 142.855469 13.90625 "/>
<path style="fill:none;stroke-width:0.5;stroke-linecap:round;stroke-linejoin:round;stroke:rgb(75.686275%,70.980392%,61.568627%);stroke-opacity:1;stroke-miterlimit:10;" d="M 147.125 11.253906 L 147.414063 10.273438 L 146.710938 9.558594 L 146.707031 9.28125 "/>
<path style="fill:none;stroke-width:0.5;stroke-linecap:round;stroke-linejoin:round;stroke:rgb(75.686275%,70.980392%,61.568627%);stroke-opacity:1;stroke-miterlimit:10;" d="M 148.449219 11.308594 L 148 10.4375 "/>
<path style="fill:none;stroke-width:0.5;stroke-linecap:round;stroke-linejoin:round;stroke:rgb(75.686275%,70.980392%,61.568627%);stroke-opacity:1;stroke-miterlimit:10;" d="M 122.59375 9.113281 L 122.578125 7.929688 L 122.082031 7.527344 "/>
<path style="fill:none;stroke-width:0.5;stroke-linecap:round;stroke-linejoin:round;stroke:rgb(75.686275%,70.980392%,61.568627%);stroke-opacity:1;stroke-miterlimit:10;" d="M 245.371094 11.292969 L 246.554688 11.269531 L 246.980469 11.210938 "/>
<path style="fill:none;stroke-width:0.5;stroke-linecap:round;stroke-linejoin:round;stroke:rgb(75.686275%,70.980392%,61.568627%);stroke-opacity:1;stroke-miterlimit:10;" d="M 214.128906 14.648438 L 214.421875 15.53125 "/>
<path style="fill:none;stroke-width:0.5;stroke-linecap:round;stroke-linejoin:round;stroke:rgb(75.686275%,70.980392%,61.568627%);stroke-opacity:1;stroke-miterlimit:10;" d="M 194.078125 16.132813 L 194.453125 15.953125 "/>
<path style="fill:none;stroke-width:0.5;stroke-linecap:round;stroke-linejoin:round;stroke:rgb(75.686275%,70.980392%,61.568627%);stroke-opacity:1;stroke-miterlimit:10;" d="M 100.347656 16.515625 L 100.320313 16.316406 "/>
<path style="fill:none;stroke-width:0.5;stroke-linecap:round;stroke-linejoin:round;stroke:rgb(75.686275%,70.980392%,61.568627%);stroke-opacity:1;stroke-miterlimit:10;" d="M 102.066406 13.28125 L 102.523438 11.808594 "/>
<path style="fill:none;stroke-width:0.5;stroke-linecap:round;stroke-linejoin:round;stroke:rgb(75.686275%,70.980392%,61.568627%);stroke-opacity:1;stroke-miterlimit:10;" d="M 79.800781 0.996094 L 80.53125 0.894531 "/>
<path style="fill:none;stroke-width:0.5;stroke-linecap:round;stroke-linejoin:round;stroke:rgb(75.686275%,70.980392%,61.568627%);stroke-opacity:1;stroke-miterlimit:10;" d="M 83.023438 16.222656 L 82.980469 15.054688 L 82.648438 14.078125 L 82.5625 12.796875 L 83.363281 11.570313 L 84.40625 11.550781 L 85.902344 10.410156 L 86.980469 10.203125 L 88.34375 9.988281 L 89.5625 9.757813 L 90.757813 9.574219 L 92.226563 9.511719 L 93.195313 9.152344 L 94.53125 9.148438 L 95.175781 9.164063 "/>
<path style="fill:none;stroke-width:0.5;stroke-linecap:round;stroke-linejoin:round;stroke:rgb(75.686275%,70.980392%,61.568627%);stroke-opacity:1;stroke-miterlimit:10;" d="M 95.175781 9.164063 L 96.210938 9.117188 L 97.195313 8.933594 L 98.082031 8.316406 L 99.304688 7.832031 L 100.449219 7.554688 L 101.421875 7.136719 L 102.179688 6.445313 L 102.683594 5.558594 L 103.050781 4.445313 L 103.738281 3.230469 L 104.113281 2.171875 L 103.828125 1.054688 L 103.707031 0.0078125 L 103.660156 -1.3125 L 103.648438 -2 "/>
<path style="fill:none;stroke-width:0.5;stroke-linecap:round;stroke-linejoin:round;stroke:rgb(75.686275%,70.980392%,61.568627%);stroke-opacity:1;stroke-miterlimit:10;" d="M 99.355469 10.996094 L 99.363281 9.152344 L 99.375 8.003906 L 99.394531 6.574219 L 99.375 5.4375 L 99.386719 4.304688 L 100.335938 3.859375 L 100.671875 3.230469 "/>
<path style="fill:none;stroke-width:0.5;stroke-linecap:round;stroke-linejoin:round;stroke:rgb(75.686275%,70.980392%,61.568627%);stroke-opacity:1;stroke-miterlimit:10;" d="M 162.09375 3.347656 L 162.351563 4.363281 "/>
<path style="fill:none;stroke-width:0.5;stroke-linecap:round;stroke-linejoin:round;stroke:rgb(75.686275%,70.980392%,61.568627%);stroke-opacity:1;stroke-miterlimit:10;" d="M 108.777344 6.058594 L 109.523438 5.167969 "/>
<path style="fill:none;stroke-width:0.5;stroke-linecap:round;stroke-linejoin:round;stroke:rgb(75.686275%,70.980392%,61.568627%);stroke-opacity:1;stroke-miterlimit:10;" d="M 50.507813 16.511719 L 50.039063 16.898438 "/>
<path style="fill:none;stroke-width:0.5;stroke-linecap:round;stroke-linejoin:round;stroke:rgb(75.686275%,70.980392%,61.568627%);stroke-opacity:1;stroke-miterlimit:10;" d="M 41.261719 20.785156 L 42.277344 21.234375 L 43.898438 21.015625 L 44.886719 20.839844 L 46.3125 21.03125 L 47.804688 21.328125 L 49.007813 20.722656 L 50.238281 19.996094 L 51.535156 19.886719 L 52.644531 20.035156 L 53.640625 19.371094 L 54.367188 18.324219 L 55.066406 16.78125 L 54.976563 16.421875 "/>
<path style="fill:none;stroke-width:0.5;stroke-linecap:round;stroke-linejoin:round;stroke:rgb(75.686275%,70.980392%,61.568627%);stroke-opacity:1;stroke-miterlimit:10;" d="M 61.746094 3.703125 L 61.8125 2.550781 L 61.683594 1.367188 L 61.351563 0.398438 L 60.710938 -0.78125 L 60.703125 -2 "/>
<path style="fill:none;stroke-width:0.5;stroke-linecap:round;stroke-linejoin:round;stroke:rgb(75.686275%,70.980392%,61.568627%);stroke-opacity:1;stroke-miterlimit:10;" d="M 55.433594 7.359375 L 56.136719 6.621094 L 57.132813 6.382813 L 58.230469 5.960938 L 59.289063 5.636719 L 60.199219 5.097656 L 61.039063 4.386719 L 61.789063 3.683594 L 62.960938 3.289063 L 63.925781 2.996094 L 65.078125 2.792969 L 66.40625 3.128906 L 67.363281 3.429688 L 69.460938 3.441406 "/>
<path style="fill:none;stroke-width:0.5;stroke-linecap:round;stroke-linejoin:round;stroke:rgb(75.686275%,70.980392%,61.568627%);stroke-opacity:1;stroke-miterlimit:10;" d="M 73.730469 10.960938 L 73.210938 10.078125 L 72.964844 8.691406 L 72.257813 7.746094 L 72.144531 6.710938 L 72.171875 5.199219 L 72.171875 4.039063 L 70.292969 3.449219 L 69.460938 3.441406 "/>
<path style="fill:none;stroke-width:0.5;stroke-linecap:round;stroke-linejoin:round;stroke:rgb(75.686275%,70.980392%,61.568627%);stroke-opacity:1;stroke-miterlimit:10;" d="M 51.402344 6.816406 L 51.238281 7.042969 "/>
<path style="fill:none;stroke-width:0.5;stroke-linecap:round;stroke-linejoin:round;stroke:rgb(75.686275%,70.980392%,61.568627%);stroke-opacity:1;stroke-miterlimit:10;" d="M 60.796875 15.082031 L 60.746094 15.171875 "/>
<path style="fill:none;stroke-width:0.5;stroke-linecap:round;stroke-linejoin:round;stroke:rgb(75.686275%,70.980392%,61.568627%);stroke-opacity:1;stroke-miterlimit:10;" d="M 82.855469 17.371094 L 83.015625 16.328125 L 83.023438 16.222656 "/>
<path style="fill:none;stroke-width:0.5;stroke-linecap:round;stroke-linejoin:round;stroke:rgb(75.686275%,70.980392%,61.568627%);stroke-opacity:1;stroke-miterlimit:10;" d="M 42.308594 19.515625 L 42.933594 18.621094 L 43.964844 18.34375 L 45.183594 18.394531 L 46.347656 18.136719 L 49.25 17.160156 L 50.039063 16.898438 "/>
<path style="fill:none;stroke-width:0.5;stroke-linecap:round;stroke-linejoin:round;stroke:rgb(75.686275%,70.980392%,61.568627%);stroke-opacity:1;stroke-miterlimit:10;" d="M 50.761719 4.914063 L 50.226563 4.996094 "/>
<path style="fill:none;stroke-width:0.5;stroke-linecap:round;stroke-linejoin:round;stroke:rgb(75.686275%,70.980392%,61.568627%);stroke-opacity:1;stroke-miterlimit:10;" d="M 63.402344 13.71875 L 63.222656 13.613281 "/>
<path style="fill:none;stroke-width:0.5;stroke-linecap:round;stroke-linejoin:round;stroke:rgb(75.686275%,70.980392%,61.568627%);stroke-opacity:1;stroke-miterlimit:10;" d="M 48.3125 3.632813 L 48.097656 4.085938 "/>
<path style="fill:none;stroke-width:0.5;stroke-linecap:round;stroke-linejoin:round;stroke:rgb(75.686275%,70.980392%,61.568627%);stroke-opacity:1;stroke-miterlimit:10;" d="M 73.230469 9.902344 L 73.601563 9.953125 "/>
<path style="fill:none;stroke-width:0.5;stroke-linecap:round;stroke-linejoin:round;stroke:rgb(75.686275%,70.980392%,61.568627%);stroke-opacity:1;stroke-miterlimit:10;" d="M 68.496094 14.46875 L 68.59375 14.570313 "/>
<path style="fill:none;stroke-width:0.5;stroke-linecap:round;stroke-linejoin:round;stroke:rgb(75.686275%,70.980392%,61.568627%);stroke-opacity:1;stroke-miterlimit:10;" d="M 48.765625 12.269531 L 48.863281 13.347656 L 48.609375 14.375 L 47.347656 13.839844 L 46.746094 13.222656 "/>
<path style="fill:none;stroke-width:0.5;stroke-linecap:round;stroke-linejoin:round;stroke:rgb(75.686275%,70.980392%,61.568627%);stroke-opacity:1;stroke-miterlimit:10;" d="M 52.644531 1.480469 L 52.691406 2.125 "/>
<path style="fill:none;stroke-width:0.5;stroke-linecap:round;stroke-linejoin:round;stroke:rgb(75.686275%,70.980392%,61.568627%);stroke-opacity:1;stroke-miterlimit:10;" d="M 50.695313 4.761719 L 50.613281 4.894531 "/>
<path style="fill:none;stroke-width:0.5;stroke-linecap:round;stroke-linejoin:round;stroke:rgb(75.686275%,70.980392%,61.568627%);stroke-opacity:1;stroke-miterlimit:10;" d="M 47.578125 3.929688 L 48.15625 3.996094 "/>
<path style="fill:none;stroke-width:0.5;stroke-linecap:round;stroke-linejoin:round;stroke:rgb(75.686275%,70.980392%,61.568627%);stroke-opacity:1;stroke-miterlimit:10;" d="M 53.019531 1.988281 L 52.878906 1.773438 "/>
<path style="fill:none;stroke-width:0.5;stroke-linecap:round;stroke-linejoin:round;stroke:rgb(75.686275%,70.980392%,61.568627%);stroke-opacity:1;stroke-miterlimit:10;" d="M 55.757813 7.386719 L 56.449219 6.972656 "/>
<path style="fill:none;stroke-width:0.5;stroke-linecap:round;stroke-linejoin:round;stroke:rgb(75.686275%,70.980392%,61.568627%);stroke-opacity:1;stroke-miterlimit:10;" d="M 57.324219 6.292969 L 58.171875 7.132813 L 59.105469 7.121094 "/>
<path style="fill:none;stroke-width:0.5;stroke-linecap:round;stroke-linejoin:round;stroke:rgb(75.686275%,70.980392%,61.568627%);stroke-opacity:1;stroke-miterlimit:10;" d="M 75.21875 2.699219 L 75.007813 2.777344 "/>
<path style="fill:none;stroke-width:0.5;stroke-linecap:round;stroke-linejoin:round;stroke:rgb(75.686275%,70.980392%,61.568627%);stroke-opacity:1;stroke-miterlimit:10;" d="M 71.199219 13.066406 L 70.191406 12.886719 L 70.066406 12.558594 "/>
<path style="fill:none;stroke-width:0.5;stroke-linecap:round;stroke-linejoin:round;stroke:rgb(75.686275%,70.980392%,61.568627%);stroke-opacity:1;stroke-miterlimit:10;" d="M 66.609375 14.714844 L 66.355469 15.625 "/>
<path style="fill:none;stroke-width:0.5;stroke-linecap:round;stroke-linejoin:round;stroke:rgb(75.686275%,70.980392%,61.568627%);stroke-opacity:1;stroke-miterlimit:10;" d="M 55.597656 6.859375 L 54.246094 6.757813 L 54.085938 6.773438 "/>
<path style="fill:none;stroke-width:0.5;stroke-linecap:round;stroke-linejoin:round;stroke:rgb(75.686275%,70.980392%,61.568627%);stroke-opacity:1;stroke-miterlimit:10;" d="M 48.847656 16.496094 L 48.28125 15.625 L 48.105469 14.835938 "/>
<path style="fill:none;stroke-width:0.5;stroke-linecap:round;stroke-linejoin:round;stroke:rgb(75.686275%,70.980392%,61.568627%);stroke-opacity:1;stroke-miterlimit:10;" d="M 77.457031 20.429688 L 77.429688 19.253906 L 77.519531 18.171875 L 77.703125 16.535156 L 79.046875 16.511719 L 80.800781 16.492188 L 81.859375 15.917969 L 82.59375 15.003906 L 82.785156 14.507813 "/>
<path style="fill:none;stroke-width:0.5;stroke-linecap:round;stroke-linejoin:round;stroke:rgb(75.686275%,70.980392%,61.568627%);stroke-opacity:1;stroke-miterlimit:10;" d="M 88.742188 1.605469 L 88.761719 -0.25 L 89.3125 -1.59375 L 89.539063 -2 "/>
<path style="fill:none;stroke-width:0.5;stroke-linecap:round;stroke-linejoin:round;stroke:rgb(75.686275%,70.980392%,61.568627%);stroke-opacity:1;stroke-miterlimit:10;" d="M 82.566406 12.722656 L 81.242188 12.757813 L 80.132813 12.734375 L 78.804688 13.113281 L 77.742188 13.253906 L 76.59375 13.023438 L 75.5625 12.621094 L 74.664063 12.074219 L 73.820313 11.171875 L 73.730469 10.960938 "/>
<path style="fill:none;stroke-width:0.5;stroke-linecap:round;stroke-linejoin:round;stroke:rgb(75.686275%,70.980392%,61.568627%);stroke-opacity:1;stroke-miterlimit:10;" d="M 66.40625 3.128906 L 66.398438 1.808594 L 66.394531 0.492188 L 66.398438 -0.53125 L 66.359375 -1.992188 L 66.363281 -2 "/>
<path style="fill:none;stroke-width:0.5;stroke-linecap:round;stroke-linejoin:round;stroke:rgb(75.686275%,70.980392%,61.568627%);stroke-opacity:1;stroke-miterlimit:10;" d="M 53.542969 3.660156 L 51.9375 3.640625 L 51.070313 3.578125 "/>
<path style="fill:none;stroke-width:0.5;stroke-linecap:round;stroke-linejoin:round;stroke:rgb(75.686275%,70.980392%,61.568627%);stroke-opacity:1;stroke-miterlimit:10;" d="M 81.019531 5.894531 L 80.179688 5.242188 L 79.707031 3.398438 L 80.011719 2.367188 L 80.195313 1.351563 L 79.265625 0.34375 L 78.566406 -0.621094 L 78.269531 -1.972656 L 78.269531 -2 "/>
<path style="fill:none;stroke-width:0.5;stroke-linecap:round;stroke-linejoin:round;stroke:rgb(75.686275%,70.980392%,61.568627%);stroke-opacity:1;stroke-miterlimit:10;" d="M 63.316406 15.097656 L 63.328125 13.875 L 64.566406 13.039063 L 65.546875 12.449219 L 66.542969 11.554688 L 67.261719 10.8125 L 67.699219 9.542969 L 68.03125 8.585938 L 68.335938 7.457031 L 68.671875 6.488281 L 69.027344 5.480469 L 69.34375 4.375 L 69.460938 3.441406 "/>
<path style="fill:none;stroke-width:0.5;stroke-linecap:round;stroke-linejoin:round;stroke:rgb(75.686275%,70.980392%,61.568627%);stroke-opacity:1;stroke-miterlimit:10;" d="M 54.949219 16.3125 L 55.066406 15.28125 L 54.871094 14.269531 L 55.164063 13.75 "/>
<path style="fill:none;stroke-width:0.5;stroke-linecap:round;stroke-linejoin:round;stroke:rgb(75.686275%,70.980392%,61.568627%);stroke-opacity:1;stroke-miterlimit:10;" d="M 69.460938 3.441406 L 69.804688 2.324219 L 70.394531 1.496094 L 71.144531 0.621094 L 71.617188 -0.578125 L 72.171875 -2 "/>
<path style="fill:none;stroke-width:0.5;stroke-linecap:round;stroke-linejoin:round;stroke:rgb(75.686275%,70.980392%,61.568627%);stroke-opacity:1;stroke-miterlimit:10;" d="M 50.507813 16.511719 L 51.5625 15.832031 L 52.378906 14.996094 L 53.265625 14.464844 L 54.292969 14.304688 L 55.164063 13.75 L 56.449219 12.324219 L 57.203125 11.800781 "/>
<path style="fill:none;stroke-width:0.5;stroke-linecap:round;stroke-linejoin:round;stroke:rgb(75.686275%,70.980392%,61.568627%);stroke-opacity:1;stroke-miterlimit:10;" d="M 76.277344 9.03125 L 75.785156 8.097656 L 75.523438 7.035156 L 75.847656 6.070313 L 75.945313 4.972656 L 75.792969 3.878906 L 75.632813 2.859375 L 74.710938 2.445313 L 74.761719 1.097656 L 74.761719 -0.6875 L 74.769531 -2 "/>
<path style="fill:none;stroke-width:0.5;stroke-linecap:round;stroke-linejoin:round;stroke:rgb(75.686275%,70.980392%,61.568627%);stroke-opacity:1;stroke-miterlimit:10;" d="M 93.398438 -0.0742188 L 94.015625 0.0546875 "/>
<path style="fill:none;stroke-width:0.5;stroke-linecap:round;stroke-linejoin:round;stroke:rgb(75.686275%,70.980392%,61.568627%);stroke-opacity:1;stroke-miterlimit:10;" d="M 85.371094 3.09375 L 84.929688 1.980469 L 84.777344 0.8125 L 84.542969 -0.425781 L 84.425781 -1.550781 L 84.480469 -2 "/>
<path style="fill:none;stroke-width:0.5;stroke-linecap:round;stroke-linejoin:round;stroke:rgb(75.686275%,70.980392%,61.568627%);stroke-opacity:1;stroke-miterlimit:10;" d="M 74.757813 0.96875 L 73.089844 0.632813 L 71.925781 0.613281 L 71.144531 0.621094 "/>
<path style="fill:none;stroke-width:0.5;stroke-linecap:round;stroke-linejoin:round;stroke:rgb(75.686275%,70.980392%,61.568627%);stroke-opacity:1;stroke-miterlimit:10;" d="M 50.257813 3.566406 L 50.625 4.519531 L 51.171875 6.117188 L 51.308594 7.003906 "/>
<path style="fill:none;stroke-width:0.5;stroke-linecap:round;stroke-linejoin:round;stroke:rgb(75.686275%,70.980392%,61.568627%);stroke-opacity:1;stroke-miterlimit:10;" d="M 236.773438 13.699219 L 237.9375 13.683594 L 239.039063 13.691406 L 240.433594 13.683594 L 241.671875 14.527344 L 242.691406 14.367188 L 243.417969 13.632813 L 244.453125 12.902344 L 245.675781 12.894531 "/>
<path style="fill:none;stroke-width:0.5;stroke-linecap:round;stroke-linejoin:round;stroke:rgb(75.686275%,70.980392%,61.568627%);stroke-opacity:1;stroke-miterlimit:10;" d="M 29.4375 22.09375 L 29.179688 20.894531 L 28.929688 19.609375 L 28.921875 18.484375 L 29.0625 17.144531 L 29.515625 16.207031 "/>
<path style="fill:none;stroke-width:0.5;stroke-linecap:round;stroke-linejoin:round;stroke:rgb(75.686275%,70.980392%,61.568627%);stroke-opacity:1;stroke-miterlimit:10;" d="M 31.648438 20.414063 L 31.734375 19.265625 L 32.222656 18.171875 L 32.207031 16.605469 L 32.167969 16.273438 "/>
<path style="fill:none;stroke-width:0.5;stroke-linecap:round;stroke-linejoin:round;stroke:rgb(75.686275%,70.980392%,61.568627%);stroke-opacity:1;stroke-miterlimit:10;" d="M 7.910156 15.472656 L 8.714844 14.707031 L 9.273438 13.824219 L 10.34375 13.703125 L 11.183594 13.539063 "/>
<path style="fill:none;stroke-width:0.5;stroke-linecap:round;stroke-linejoin:round;stroke:rgb(75.686275%,70.980392%,61.568627%);stroke-opacity:1;stroke-miterlimit:10;" d="M 11.023438 12.503906 L 11.191406 13.527344 L 11.183594 13.539063 "/>
<path style="fill:none;stroke-width:0.5;stroke-linecap:round;stroke-linejoin:round;stroke:rgb(75.686275%,70.980392%,61.568627%);stroke-opacity:1;stroke-miterlimit:10;" d="M 25.359375 15.628906 L 24.914063 15.199219 "/>
<path style="fill:none;stroke-width:0.5;stroke-linecap:round;stroke-linejoin:round;stroke:rgb(75.686275%,70.980392%,61.568627%);stroke-opacity:1;stroke-miterlimit:10;" d="M 29.515625 16.207031 L 29.972656 15.230469 L 30.421875 14.03125 L 30.753906 13.476563 "/>
<path style="fill:none;stroke-width:0.5;stroke-linecap:round;stroke-linejoin:round;stroke:rgb(75.686275%,70.980392%,61.568627%);stroke-opacity:1;stroke-miterlimit:10;" d="M 32.152344 13.859375 L 32.15625 14 "/>
<path style="fill:none;stroke-width:0.5;stroke-linecap:round;stroke-linejoin:round;stroke:rgb(75.686275%,70.980392%,61.568627%);stroke-opacity:1;stroke-miterlimit:10;" d="M 41.980469 15.328125 L 40.585938 15.292969 "/>
<path style="fill:none;stroke-width:0.5;stroke-linecap:round;stroke-linejoin:round;stroke:rgb(75.686275%,70.980392%,61.568627%);stroke-opacity:1;stroke-miterlimit:10;" d="M 42.308594 19.515625 L 42.21875 18.511719 L 42.203125 17.09375 L 42.105469 16.429688 "/>
<path style="fill:none;stroke-width:0.5;stroke-linecap:round;stroke-linejoin:round;stroke:rgb(75.686275%,70.980392%,61.568627%);stroke-opacity:1;stroke-miterlimit:10;" d="M 32.167969 16.273438 L 33.074219 15.671875 L 33.949219 15.308594 "/>
<path style="fill:none;stroke-width:0.5;stroke-linecap:round;stroke-linejoin:round;stroke:rgb(75.686275%,70.980392%,61.568627%);stroke-opacity:1;stroke-miterlimit:10;" d="M 32.15625 14 L 32.171875 15.050781 L 32.136719 16.109375 L 32.167969 16.273438 "/>
<path style="fill:none;stroke-width:0.5;stroke-linecap:round;stroke-linejoin:round;stroke:rgb(75.686275%,70.980392%,61.568627%);stroke-opacity:1;stroke-miterlimit:10;" d="M 35.683594 16.28125 L 36.199219 15.324219 L 36.769531 14.441406 L 36.523438 13.390625 L 35.585938 13.785156 L 34.507813 13.777344 L 33.539063 14.328125 L 32.457031 13.90625 L 31.390625 13.890625 L 30.863281 13.664063 "/>
<path style="fill:none;stroke-width:0.5;stroke-linecap:round;stroke-linejoin:round;stroke:rgb(75.686275%,70.980392%,61.568627%);stroke-opacity:1;stroke-miterlimit:10;" d="M 37.894531 1.992188 L 39.015625 2.125 L 39.390625 2.433594 "/>
<path style="fill:none;stroke-width:0.5;stroke-linecap:round;stroke-linejoin:round;stroke:rgb(75.686275%,70.980392%,61.568627%);stroke-opacity:1;stroke-miterlimit:10;" d="M 38.347656 16.230469 L 38.691406 15.21875 L 38.875 14.199219 L 38.554688 13.183594 L 38.523438 12.121094 L 38.296875 10.988281 L 38.140625 9.925781 L 38.785156 9.035156 L 39.40625 8.1875 L 39.421875 7.144531 L 39.925781 6.152344 L 40.0625 5.140625 L 40.03125 4.136719 L 40.078125 3.855469 "/>
<path style="fill:none;stroke-width:0.5;stroke-linecap:round;stroke-linejoin:round;stroke:rgb(75.686275%,70.980392%,61.568627%);stroke-opacity:1;stroke-miterlimit:10;" d="M 36.4375 20.53125 L 37.46875 19.449219 L 38.050781 18.136719 L 38.371094 16.925781 L 38.488281 16.289063 "/>
<path style="fill:none;stroke-width:0.5;stroke-linecap:round;stroke-linejoin:round;stroke:rgb(75.686275%,70.980392%,61.568627%);stroke-opacity:1;stroke-miterlimit:10;" d="M 9.925781 -2 L 9.3125 -0.878906 L 8.71875 0.25 L 8.308594 1.5 "/>
<path style="fill:none;stroke-width:0.5;stroke-linecap:round;stroke-linejoin:round;stroke:rgb(75.686275%,70.980392%,61.568627%);stroke-opacity:1;stroke-miterlimit:10;" d="M 4.261719 3.570313 L 5.238281 2.945313 L 6.160156 2.441406 L 7.007813 3.273438 L 8.039063 3.792969 L 8.421875 2.371094 L 8.308594 1.5 "/>
<path style="fill:none;stroke-width:0.5;stroke-linecap:round;stroke-linejoin:round;stroke:rgb(75.686275%,70.980392%,61.568627%);stroke-opacity:1;stroke-miterlimit:10;" d="M 28.695313 4.679688 L 27.566406 4.445313 L 26.433594 4.253906 L 25.445313 3.980469 L 24.1875 3.496094 L 23.042969 3.320313 L 22.011719 3.3125 L 21.488281 4.203125 L 20.738281 5.117188 L 19.839844 5.570313 L 19.015625 4.894531 L 17.96875 5.320313 L 17.425781 4.382813 L 16.507813 4.808594 L 15.695313 5.628906 L 14.847656 6.289063 "/>
<path style="fill:none;stroke-width:0.5;stroke-linecap:round;stroke-linejoin:round;stroke:rgb(75.686275%,70.980392%,61.568627%);stroke-opacity:1;stroke-miterlimit:10;" d="M 24.980469 10.695313 L 24.296875 10.460938 "/>
<path style="fill:none;stroke-width:0.5;stroke-linecap:round;stroke-linejoin:round;stroke:rgb(75.686275%,70.980392%,61.568627%);stroke-opacity:1;stroke-miterlimit:10;" d="M 2.203125 6.054688 L 1.265625 5.8125 "/>
<path style="fill:none;stroke-width:0.5;stroke-linecap:round;stroke-linejoin:round;stroke:rgb(75.686275%,70.980392%,61.568627%);stroke-opacity:1;stroke-miterlimit:10;" d="M 10.832031 9.054688 L 10.480469 8.023438 L 10.324219 6.597656 L 10.207031 5.3125 L 11.007813 4.324219 L 12.222656 2.996094 L 11.910156 2.039063 L 11.605469 0.824219 L 11.808594 -0.441406 L 11.976563 -1.488281 L 10.890625 -1.472656 L 10.042969 -2 "/>
<path style="fill:none;stroke-width:0.5;stroke-linecap:round;stroke-linejoin:round;stroke:rgb(75.686275%,70.980392%,61.568627%);stroke-opacity:1;stroke-miterlimit:10;" d="M 7.566406 11.058594 L 6.410156 11.757813 L 5.261719 12.050781 L 4.296875 12.632813 L 2.355469 12.878906 L 0.890625 12.84375 L -1.09375 11.933594 L -2 11.539063 "/>
<path style="fill:none;stroke-width:0.5;stroke-linecap:round;stroke-linejoin:round;stroke:rgb(75.686275%,70.980392%,61.568627%);stroke-opacity:1;stroke-miterlimit:10;" d="M 7.550781 15.992188 L 7.910156 15.472656 "/>
<path style="fill:none;stroke-width:0.5;stroke-linecap:round;stroke-linejoin:round;stroke:rgb(75.686275%,70.980392%,61.568627%);stroke-opacity:1;stroke-miterlimit:10;" d="M 4.109375 3.78125 L 3.367188 2.863281 L 2.820313 1.773438 L 2.472656 1.179688 "/>
<path style="fill:none;stroke-width:0.5;stroke-linecap:round;stroke-linejoin:round;stroke:rgb(75.686275%,70.980392%,61.568627%);stroke-opacity:1;stroke-miterlimit:10;" d="M 25.269531 0.890625 L 25.894531 -0.242188 L 25.945313 -1.402344 "/>
<path style="fill:none;stroke-width:0.5;stroke-linecap:round;stroke-linejoin:round;stroke:rgb(75.686275%,70.980392%,61.568627%);stroke-opacity:1;stroke-miterlimit:10;" d="M 11.023438 12.503906 L 10.175781 11.558594 L 9.0625 11.222656 L 7.976563 11.1875 L 9.046875 10.816406 L 10.097656 10.765625 L 11.171875 10.546875 L 12.171875 10.179688 L 13.175781 10.007813 L 14.226563 9.933594 L 14.082031 8.90625 L 13.859375 8.699219 "/>
<path style="fill:none;stroke-width:0.5;stroke-linecap:round;stroke-linejoin:round;stroke:rgb(75.686275%,70.980392%,61.568627%);stroke-opacity:1;stroke-miterlimit:10;" d="M 5.59375 15.945313 L 5.164063 15.585938 "/>
<path style="fill:none;stroke-width:0.5;stroke-linecap:round;stroke-linejoin:round;stroke:rgb(75.686275%,70.980392%,61.568627%);stroke-opacity:1;stroke-miterlimit:10;" d="M 25.128906 13.316406 L 24.023438 13.285156 L 23.253906 12.539063 L 23.257813 11.492188 L 24.078125 10.828125 L 26.082031 10.714844 L 27.183594 10.75 L 28.300781 10.703125 L 28.472656 10.730469 "/>
<path style="fill:none;stroke-width:0.5;stroke-linecap:round;stroke-linejoin:round;stroke:rgb(75.686275%,70.980392%,61.568627%);stroke-opacity:1;stroke-miterlimit:10;" d="M 5.164063 15.585938 L 4.652344 14.667969 L 4.226563 13.570313 L 3.925781 12.472656 L 3.832031 10.816406 "/>
<path style="fill:none;stroke-width:0.5;stroke-linecap:round;stroke-linejoin:round;stroke:rgb(75.686275%,70.980392%,61.568627%);stroke-opacity:1;stroke-miterlimit:10;" d="M 30.753906 13.476563 L 30.839844 12.425781 L 30.960938 11.316406 L 30.914063 10.269531 L 31.0625 9.300781 "/>
<path style="fill:none;stroke-width:0.5;stroke-linecap:round;stroke-linejoin:round;stroke:rgb(75.686275%,70.980392%,61.568627%);stroke-opacity:1;stroke-miterlimit:10;" d="M 20.054688 -0.136719 L 21.25 0.015625 L 22.738281 -0.0625 L 23.859375 -0.0273438 L 24.664063 -1.136719 L 25.589844 -1.734375 L 25.851563 -2 "/>
<path style="fill:none;stroke-width:0.5;stroke-linecap:round;stroke-linejoin:round;stroke:rgb(75.686275%,70.980392%,61.568627%);stroke-opacity:1;stroke-miterlimit:10;" d="M 20.972656 -2 L 20.554688 -0.984375 L 20.046875 -0.0859375 L 19.351563 0.644531 L 18.695313 1.429688 L 18.007813 2.199219 L 17.101563 2.46875 "/>
<path style="fill:none;stroke-width:0.5;stroke-linecap:round;stroke-linejoin:round;stroke:rgb(75.686275%,70.980392%,61.568627%);stroke-opacity:1;stroke-miterlimit:10;" d="M -2 9.683594 L -0.910156 9.941406 L 0.480469 10.542969 L 1.839844 10.828125 L 3.820313 10.59375 L 5.644531 10.296875 L 6.839844 9.898438 L 8.8125 9.1875 L 10.148438 9.089844 L 12.734375 8.933594 L 13.742188 8.730469 L 15.550781 8.167969 L 17.542969 8.042969 L 19.398438 8.097656 L 20.523438 7.855469 L 21.285156 6.960938 L 21.71875 6.007813 L 22.820313 4.921875 L 24.171875 4.492188 L 25.976563 4.777344 L 27.109375 4.890625 L 28.695313 4.679688 L 30.003906 4.3125 L 31.375 3.875 L 32.710938 3.664063 L 35.675781 4.460938 "/>
<path style="fill:none;stroke-width:0.5;stroke-linecap:round;stroke-linejoin:round;stroke:rgb(75.686275%,70.980392%,61.568627%);stroke-opacity:1;stroke-miterlimit:10;" d="M 30.863281 13.664063 L 30.753906 13.476563 "/>
<path style="fill:none;stroke-width:0.5;stroke-linecap:round;stroke-linejoin:round;stroke:rgb(75.686275%,70.980392%,61.568627%);stroke-opacity:1;stroke-miterlimit:10;" d="M 7.125 12.03125 L 8.199219 12.1875 L 9.339844 11.917969 L 10.597656 12.28125 L 11.710938 12.773438 L 13.058594 12.511719 L 13.742188 13.496094 L 14.726563 14.632813 L 15.175781 16.054688 "/>
<path style="fill:none;stroke-width:0.5;stroke-linecap:round;stroke-linejoin:round;stroke:rgb(75.686275%,70.980392%,61.568627%);stroke-opacity:1;stroke-miterlimit:10;" d="M 8.308594 1.5 L 7.246094 1.558594 L 6.617188 0.777344 L 6.5625 0.675781 "/>
<path style="fill:none;stroke-width:0.5;stroke-linecap:round;stroke-linejoin:round;stroke:rgb(75.686275%,70.980392%,61.568627%);stroke-opacity:1;stroke-miterlimit:10;" d="M -2 8.570313 L -0.96875 7.363281 L 0.117188 6.460938 L 1.109375 5.890625 L 2.425781 4.804688 L 3.53125 3.933594 L 4.4375 2.621094 L 5.117188 1.558594 L 6.230469 0.796875 L 7.222656 0.664063 L 7.957031 -0.398438 L 9.074219 -1.535156 L 9.488281 -2 "/>
<path style="fill:none;stroke-width:0.5;stroke-linecap:round;stroke-linejoin:round;stroke:rgb(75.686275%,70.980392%,61.568627%);stroke-opacity:1;stroke-miterlimit:10;" d="M 32.140625 1.269531 L 31.085938 1.238281 L 30.085938 0.226563 L 30.046875 -0.808594 L 30.042969 -1.828125 L 30.066406 -2 "/>
<path style="fill:none;stroke-width:0.5;stroke-linecap:round;stroke-linejoin:round;stroke:rgb(75.686275%,70.980392%,61.568627%);stroke-opacity:1;stroke-miterlimit:10;" d="M 10.757813 10.570313 L 11.867188 11.011719 L 13.152344 11.078125 L 14.414063 10.863281 L 15.457031 10.742188 L 16.09375 9.734375 "/>
<path style="fill:none;stroke-width:0.5;stroke-linecap:round;stroke-linejoin:round;stroke:rgb(75.686275%,70.980392%,61.568627%);stroke-opacity:1;stroke-miterlimit:10;" d="M 19.9375 15.003906 L 19.945313 14 L 20.660156 12.851563 L 21.667969 11.929688 L 22.710938 12.183594 L 23.273438 12.640625 "/>
<path style="fill:none;stroke-width:0.5;stroke-linecap:round;stroke-linejoin:round;stroke:rgb(75.686275%,70.980392%,61.568627%);stroke-opacity:1;stroke-miterlimit:10;" d="M 3.828125 10.726563 L 3.820313 10.59375 "/>
<path style="fill:none;stroke-width:0.5;stroke-linecap:round;stroke-linejoin:round;stroke:rgb(75.686275%,70.980392%,61.568627%);stroke-opacity:1;stroke-miterlimit:10;" d="M 11.066406 10.109375 L 11.472656 10.324219 "/>
<path style="fill:none;stroke-width:0.5;stroke-linecap:round;stroke-linejoin:round;stroke:rgb(75.686275%,70.980392%,61.568627%);stroke-opacity:1;stroke-miterlimit:10;" d="M 11.136719 9.035156 L 11.054688 10.019531 "/>
<path style="fill:none;stroke-width:0.5;stroke-linecap:round;stroke-linejoin:round;stroke:rgb(75.686275%,70.980392%,61.568627%);stroke-opacity:1;stroke-miterlimit:10;" d="M 103.515625 11.234375 L 102.691406 11.390625 "/>
<path style="fill:none;stroke-width:0.5;stroke-linecap:round;stroke-linejoin:round;stroke:rgb(75.686275%,70.980392%,61.568627%);stroke-opacity:1;stroke-miterlimit:10;" d="M 100.972656 14.382813 L 102.386719 13.921875 L 102.558594 13.933594 "/>
<path style="fill:none;stroke-width:0.5;stroke-linecap:round;stroke-linejoin:round;stroke:rgb(75.686275%,70.980392%,61.568627%);stroke-opacity:1;stroke-miterlimit:10;" d="M 111.792969 11.292969 L 112.472656 11.675781 "/>
<path style="fill:none;stroke-width:0.5;stroke-linecap:round;stroke-linejoin:round;stroke:rgb(75.686275%,70.980392%,61.568627%);stroke-opacity:1;stroke-miterlimit:10;" d="M 118.652344 12.601563 L 119.105469 12.59375 "/>
<path style="fill:none;stroke-width:0.5;stroke-linecap:round;stroke-linejoin:round;stroke:rgb(75.686275%,70.980392%,61.568627%);stroke-opacity:1;stroke-miterlimit:10;" d="M 102.523438 11.808594 L 101.546875 11.582031 L 100.179688 11.253906 L 99.113281 10.917969 L 98.121094 10.550781 L 96.996094 10.125 L 96.003906 9.65625 L 95.175781 9.164063 "/>
<path style="fill:none;stroke-width:0.5;stroke-linecap:round;stroke-linejoin:round;stroke:rgb(75.686275%,70.980392%,61.568627%);stroke-opacity:1;stroke-miterlimit:10;" d="M 107.757813 11.664063 L 106.152344 11.492188 L 104.878906 10.859375 L 103.855469 10.558594 "/>
<path style="fill:none;stroke-width:0.5;stroke-linecap:round;stroke-linejoin:round;stroke:rgb(75.686275%,70.980392%,61.568627%);stroke-opacity:1;stroke-miterlimit:10;" d="M 117.558594 12.25 L 117.570313 10.867188 L 117.015625 10.007813 L 116.292969 9.304688 L 115.332031 8.519531 L 115.097656 7.421875 L 114.84375 6.40625 L 115.476563 5.605469 L 115.589844 4.5625 L 115.609375 4.527344 "/>
<path style="fill:none;stroke-width:0.5;stroke-linecap:round;stroke-linejoin:round;stroke:rgb(75.686275%,70.980392%,61.568627%);stroke-opacity:1;stroke-miterlimit:10;" d="M 102.523438 11.808594 L 103.433594 11.277344 L 103.492188 11.269531 "/>
<path style="fill:none;stroke-width:0.5;stroke-linecap:round;stroke-linejoin:round;stroke:rgb(75.686275%,70.980392%,61.568627%);stroke-opacity:1;stroke-miterlimit:10;" d="M 207.441406 15.652344 L 207.390625 13.089844 L 207.375 12.320313 "/>
<path style="fill:none;stroke-width:0.5;stroke-linecap:round;stroke-linejoin:round;stroke:rgb(75.686275%,70.980392%,61.568627%);stroke-opacity:1;stroke-miterlimit:10;" d="M 190.710938 7.019531 L 191.875 6.976563 L 192.691406 6.238281 L 193.628906 5.289063 L 194.332031 4.574219 L 195.214844 3.851563 L 196.121094 3.039063 L 196.9375 2.347656 L 197.84375 1.664063 L 198.828125 1.304688 L 198.984375 0.234375 L 200.316406 -0.53125 L 200.609375 -0.0078125 "/>
<path style="fill:none;stroke-width:0.5;stroke-linecap:round;stroke-linejoin:round;stroke:rgb(75.686275%,70.980392%,61.568627%);stroke-opacity:1;stroke-miterlimit:10;" d="M 214.636719 3.472656 L 215.851563 2.664063 L 216.730469 2.183594 L 217.792969 2.171875 L 218.863281 2.113281 L 219.957031 1.929688 L 221.035156 2.273438 L 222.394531 2.308594 L 223.398438 2.355469 L 224.566406 2.375 L 225.648438 2.378906 L 227.019531 2.441406 L 228.210938 2.476563 L 228.570313 2.484375 "/>
<path style="fill:none;stroke-width:0.5;stroke-linecap:round;stroke-linejoin:round;stroke:rgb(75.686275%,70.980392%,61.568627%);stroke-opacity:1;stroke-miterlimit:10;" d="M 223.417969 4.308594 L 222.628906 3.203125 L 222.394531 2.308594 "/>
<path style="fill:none;stroke-width:0.5;stroke-linecap:round;stroke-linejoin:round;stroke:rgb(75.686275%,70.980392%,61.568627%);stroke-opacity:1;stroke-miterlimit:10;" d="M 136.414063 12.742188 L 136.742188 11.46875 L 136.746094 9.585938 L 136.742188 9.417969 "/>
<path style="fill:none;stroke-width:0.5;stroke-linecap:round;stroke-linejoin:round;stroke:rgb(75.686275%,70.980392%,61.568627%);stroke-opacity:1;stroke-miterlimit:10;" d="M 174.808594 13.378906 L 174.660156 12.589844 "/>
<path style="fill:none;stroke-width:0.5;stroke-linecap:round;stroke-linejoin:round;stroke:rgb(75.686275%,70.980392%,61.568627%);stroke-opacity:1;stroke-miterlimit:10;" d="M 163.804688 15.933594 L 162.617188 14.945313 L 162.363281 13.789063 L 162.285156 11.980469 L 162.300781 10.703125 L 162.304688 9.441406 L 163.238281 8.824219 L 164.273438 8.820313 L 165.730469 8.851563 L 166.59375 9.574219 L 167.5 10.460938 L 168.523438 11.042969 L 169.445313 11.722656 L 169.511719 11.800781 "/>
<path style="fill:none;stroke-width:0.5;stroke-linecap:round;stroke-linejoin:round;stroke:rgb(75.686275%,70.980392%,61.568627%);stroke-opacity:1;stroke-miterlimit:10;" d="M 169.445313 11.722656 L 169.511719 11.65625 "/>
<path style="fill:none;stroke-width:0.5;stroke-linecap:round;stroke-linejoin:round;stroke:rgb(75.686275%,70.980392%,61.568627%);stroke-opacity:1;stroke-miterlimit:10;" d="M 125.457031 11.777344 L 125.5 10.15625 L 125.652344 9.035156 L 126.394531 8.085938 L 126.769531 6.921875 L 126.746094 5.539063 L 126.699219 4.195313 L 126.625 2.957031 L 126.84375 2.125 "/>
<path style="fill:none;stroke-width:0.5;stroke-linecap:round;stroke-linejoin:round;stroke:rgb(75.686275%,70.980392%,61.568627%);stroke-opacity:1;stroke-miterlimit:10;" d="M 200.738281 6.824219 L 201.289063 5.609375 L 202.1875 4.21875 L 202.886719 3.308594 L 203.597656 2.53125 L 203.839844 1.4375 L 203.835938 0.34375 L 203.824219 -0.714844 L 203.828125 -1.902344 L 203.832031 -2 "/>
<path style="fill:none;stroke-width:0.5;stroke-linecap:round;stroke-linejoin:round;stroke:rgb(75.686275%,70.980392%,61.568627%);stroke-opacity:1;stroke-miterlimit:10;" d="M 167.929688 14.902344 L 169.429688 14.507813 L 170.644531 14.175781 L 171.875 14.046875 L 172.933594 13.839844 L 173.878906 13.476563 L 175.179688 13.335938 L 176.472656 13.222656 L 177.699219 13.230469 L 178.871094 13.070313 L 179.804688 12.519531 L 180.871094 12.414063 L 182.3125 12.578125 L 184.511719 13.710938 L 185.53125 13.734375 L 186.496094 13.121094 L 187.617188 12.328125 L 188.660156 12.078125 L 190.105469 11.945313 L 191.832031 11.816406 L 192.714844 11.324219 "/>
<path style="fill:none;stroke-width:0.5;stroke-linecap:round;stroke-linejoin:round;stroke:rgb(75.686275%,70.980392%,61.568627%);stroke-opacity:1;stroke-miterlimit:10;" d="M 222.394531 2.308594 L 222.46875 0.433594 L 222.425781 -0.691406 L 221.960938 -1.609375 L 221.632813 -2 "/>
<path style="fill:none;stroke-width:0.5;stroke-linecap:round;stroke-linejoin:round;stroke:rgb(75.686275%,70.980392%,61.568627%);stroke-opacity:1;stroke-miterlimit:10;" d="M 190.613281 6.753906 L 190.714844 5.699219 L 190.917969 4.539063 L 190.96875 3.445313 L 190.902344 2.285156 L 190.65625 1.058594 L 190.484375 -0.0390625 L 190.625 -1.613281 L 190.664063 -2 "/>
<path style="fill:none;stroke-width:0.5;stroke-linecap:round;stroke-linejoin:round;stroke:rgb(75.686275%,70.980392%,61.568627%);stroke-opacity:1;stroke-miterlimit:10;" d="M 228.585938 4.328125 L 227.496094 4.257813 L 226.410156 4.300781 L 225.347656 4.34375 L 223.53125 4.308594 L 222.925781 5.332031 L 222.871094 7.003906 L 222.800781 9.035156 L 222.738281 10.882813 L 222.738281 12.046875 L 223.085938 13.109375 L 223.828125 13.871094 L 224.414063 14.738281 L 225.6875 15.519531 L 225.882813 15.625 "/>
<path style="fill:none;stroke-width:0.5;stroke-linecap:round;stroke-linejoin:round;stroke:rgb(75.686275%,70.980392%,61.568627%);stroke-opacity:1;stroke-miterlimit:10;" d="M 123.753906 11.101563 L 123.8125 12.253906 L 122.160156 12.246094 L 121.066406 12.25 L 119.917969 12.253906 L 118.839844 12.253906 L 117.71875 12.304688 L 116.8125 11.617188 L 115.457031 11.492188 L 114.433594 11.613281 L 113.140625 11.773438 L 112.058594 11.914063 L 111.046875 11.988281 L 110.015625 12.035156 L 109.007813 12.039063 L 107.910156 11.714844 L 107.757813 11.664063 "/>
<path style="fill:none;stroke-width:0.5;stroke-linecap:round;stroke-linejoin:round;stroke:rgb(75.686275%,70.980392%,61.568627%);stroke-opacity:1;stroke-miterlimit:10;" d="M 150.40625 15.144531 L 151.238281 14.488281 L 151.441406 14.183594 "/>
<path style="fill:none;stroke-width:0.5;stroke-linecap:round;stroke-linejoin:round;stroke:rgb(75.686275%,70.980392%,61.568627%);stroke-opacity:1;stroke-miterlimit:10;" d="M 191.40625 9.488281 L 190.359375 9.816406 L 189.054688 9.714844 L 188.015625 9.277344 L 187.117188 8.785156 L 185.894531 8.722656 L 184.902344 8.421875 "/>
<path style="fill:none;stroke-width:0.5;stroke-linecap:round;stroke-linejoin:round;stroke:rgb(75.686275%,70.980392%,61.568627%);stroke-opacity:1;stroke-miterlimit:10;" d="M 145.453125 9.449219 L 144.433594 9.429688 L 142.855469 9.449219 L 141.949219 9.460938 "/>
<path style="fill:none;stroke-width:0.5;stroke-linecap:round;stroke-linejoin:round;stroke:rgb(75.686275%,70.980392%,61.568627%);stroke-opacity:1;stroke-miterlimit:10;" d="M 111.683594 7.988281 L 112.46875 7.363281 L 113.570313 6.988281 L 114.59375 6.625 L 114.828125 6.601563 "/>
<path style="fill:none;stroke-width:0.5;stroke-linecap:round;stroke-linejoin:round;stroke:rgb(75.686275%,70.980392%,61.568627%);stroke-opacity:1;stroke-miterlimit:10;" d="M 112.378906 16.21875 L 112.40625 15.152344 L 112.242188 14.0625 L 111.84375 12.128906 L 111.777344 10.710938 L 111.769531 9.546875 L 111.753906 8.527344 L 111.683594 7.988281 "/>
<path style="fill:none;stroke-width:0.5;stroke-linecap:round;stroke-linejoin:round;stroke:rgb(75.686275%,70.980392%,61.568627%);stroke-opacity:1;stroke-miterlimit:10;" d="M 129.1875 15.167969 L 130.179688 14.019531 L 131.828125 11.867188 L 132.15625 10.738281 L 132.054688 9.609375 L 132.820313 9.25 "/>
<path style="fill:none;stroke-width:0.5;stroke-linecap:round;stroke-linejoin:round;stroke:rgb(75.686275%,70.980392%,61.568627%);stroke-opacity:1;stroke-miterlimit:10;" d="M 132.914063 9.375 L 132.824219 8.042969 L 132.847656 6.402344 L 132.828125 4.0625 L 132.839844 2.390625 L 132.847656 0.601563 L 132.871094 -1.175781 L 132.871094 -2 "/>
<path style="fill:none;stroke-width:0.5;stroke-linecap:round;stroke-linejoin:round;stroke:rgb(75.686275%,70.980392%,61.568627%);stroke-opacity:1;stroke-miterlimit:10;" d="M 152.351563 8.847656 L 152.347656 5.980469 L 152.34375 4.558594 L 152.34375 4.367188 "/>
<path style="fill:none;stroke-width:0.5;stroke-linecap:round;stroke-linejoin:round;stroke:rgb(75.686275%,70.980392%,61.568627%);stroke-opacity:1;stroke-miterlimit:10;" d="M 149.808594 10.058594 L 149.167969 10.871094 L 148.128906 11.328125 L 147.125 11.253906 L 146.003906 11.050781 L 145.453125 9.875 L 145.484375 7.363281 L 145.523438 5.511719 L 145.636719 1.125 L 144.351563 0.449219 L 143.246094 0.417969 L 141.910156 0.40625 L 141.65625 0.398438 "/>
<path style="fill:none;stroke-width:0.5;stroke-linecap:round;stroke-linejoin:round;stroke:rgb(75.686275%,70.980392%,61.568627%);stroke-opacity:1;stroke-miterlimit:10;" d="M 201.519531 5.195313 L 200.660156 5.292969 "/>
<path style="fill:none;stroke-width:0.5;stroke-linecap:round;stroke-linejoin:round;stroke:rgb(75.686275%,70.980392%,61.568627%);stroke-opacity:1;stroke-miterlimit:10;" d="M 200.746094 5.207031 L 200.648438 5.140625 "/>
<path style="fill:none;stroke-width:0.5;stroke-linecap:round;stroke-linejoin:round;stroke:rgb(75.686275%,70.980392%,61.568627%);stroke-opacity:1;stroke-miterlimit:10;" d="M 238.902344 2.753906 L 238.90625 1.664063 L 238.957031 0.492188 L 239.816406 -0.433594 L 241.078125 -1.230469 L 241.960938 -2 "/>
<path style="fill:none;stroke-width:0.5;stroke-linecap:round;stroke-linejoin:round;stroke:rgb(75.686275%,70.980392%,61.568627%);stroke-opacity:1;stroke-miterlimit:10;" d="M 250.574219 6.683594 L 250.503906 5.128906 L 250.597656 4.089844 L 251.1875 3.15625 L 252.660156 3.085938 L 253.71875 3.113281 L 255.5 3.160156 L 256.570313 3.191406 L 257 3.070313 "/>
<path style="fill:none;stroke-width:0.5;stroke-linecap:round;stroke-linejoin:round;stroke:rgb(75.686275%,70.980392%,61.568627%);stroke-opacity:1;stroke-miterlimit:10;" d="M 251.1875 3.15625 L 251.449219 3.066406 "/>
<path style="fill:none;stroke-width:0.5;stroke-linecap:round;stroke-linejoin:round;stroke:rgb(75.686275%,70.980392%,61.568627%);stroke-opacity:1;stroke-miterlimit:10;" d="M 254.734375 12.226563 L 255.480469 11.925781 "/>
<path style="fill:none;stroke-width:0.5;stroke-linecap:round;stroke-linejoin:round;stroke:rgb(75.686275%,70.980392%,61.568627%);stroke-opacity:1;stroke-miterlimit:10;" d="M 253.738281 2.25 L 253.53125 2.3125 "/>
<path style="fill:none;stroke-width:0.5;stroke-linecap:round;stroke-linejoin:round;stroke:rgb(75.686275%,70.980392%,61.568627%);stroke-opacity:1;stroke-miterlimit:10;" d="M 232.796875 6.078125 L 232.203125 5.886719 "/>
<path style="fill:none;stroke-width:0.5;stroke-linecap:round;stroke-linejoin:round;stroke:rgb(75.686275%,70.980392%,61.568627%);stroke-opacity:1;stroke-miterlimit:10;" d="M 232.5 6.128906 L 232.773438 6.335938 "/>
<path style="fill:none;stroke-width:0.5;stroke-linecap:round;stroke-linejoin:round;stroke:rgb(75.686275%,70.980392%,61.568627%);stroke-opacity:1;stroke-miterlimit:10;" d="M 252.933594 8.785156 L 253.351563 7.722656 L 254.332031 7.488281 L 254.378906 5.164063 L 254.457031 3.140625 "/>
<path style="fill:none;stroke-width:0.5;stroke-linecap:round;stroke-linejoin:round;stroke:rgb(75.686275%,70.980392%,61.568627%);stroke-opacity:1;stroke-miterlimit:10;" d="M 245.605469 2.925781 L 244.601563 2.953125 L 243.351563 2.882813 L 242.316406 2.851563 L 241.101563 2.8125 L 239.992188 2.785156 L 238.902344 2.753906 L 236.234375 2.683594 L 234.898438 2.652344 L 234.558594 3.183594 "/>
<path style="fill:none;stroke-width:0.5;stroke-linecap:round;stroke-linejoin:round;stroke:rgb(75.686275%,70.980392%,61.568627%);stroke-opacity:1;stroke-miterlimit:10;" d="M 256.5 14.34375 L 255.714844 13.523438 L 254.734375 12.226563 L 253.808594 11.847656 L 252.976563 10.484375 L 253.144531 9.449219 L 252.609375 8.425781 L 251.640625 7.648438 L 250.644531 6.757813 L 249.59375 6.269531 L 248.566406 5.710938 L 247.71875 5.171875 L 246.636719 4.832031 L 245.753906 4.332031 L 245.605469 2.925781 L 245.621094 1.890625 L 245.65625 0.304688 L 245.6875 -1.09375 L 245.699219 -2 "/>
<path style="fill:none;stroke-width:0.5;stroke-linecap:round;stroke-linejoin:round;stroke:rgb(75.686275%,70.980392%,61.568627%);stroke-opacity:1;stroke-miterlimit:10;" d="M 233.808594 15.625 L 232.699219 14.984375 L 231.589844 14.734375 L 230.746094 14.191406 L 229.945313 13.582031 L 229.878906 13.324219 "/>
<path style="fill:none;stroke-width:0.5;stroke-linecap:round;stroke-linejoin:round;stroke:rgb(75.686275%,70.980392%,61.568627%);stroke-opacity:1;stroke-miterlimit:10;" d="M 238.003906 13.679688 L 238.71875 12.933594 L 239.421875 11.796875 L 240 10.980469 L 240.453125 10.042969 L 240.203125 8.660156 L 240.167969 7.628906 L 240.867188 6.359375 L 241.0625 3.882813 L 241.101563 2.8125 "/>
<path style="fill:none;stroke-width:0.5;stroke-linecap:round;stroke-linejoin:round;stroke:rgb(75.686275%,70.980392%,61.568627%);stroke-opacity:1;stroke-miterlimit:10;" d="M 248.6875 15.664063 L 247.996094 14.925781 L 246.710938 14.707031 L 245.675781 12.894531 L 245.386719 11.84375 L 245.402344 10.25 L 245.421875 9.230469 L 244.648438 8.332031 L 244.066406 7.503906 L 243.472656 5.523438 L 243.300781 4.125 L 243.339844 3.046875 L 243.351563 2.882813 "/>
<path style="fill:none;stroke-width:0.5;stroke-linecap:round;stroke-linejoin:round;stroke:rgb(75.686275%,70.980392%,61.568627%);stroke-opacity:1;stroke-miterlimit:10;" d="M 13.433594 23.855469 L 13.402344 22.816406 L 11.671875 21.636719 L 10.492188 21 L 9.824219 20.113281 L 9.21875 18.867188 L 8.238281 17.75 L 7.234375 16.898438 L 6.1875 16.148438 L 5.59375 15.945313 "/>
<path style="fill:none;stroke-width:0.5;stroke-linecap:round;stroke-linejoin:round;stroke:rgb(75.686275%,70.980392%,61.568627%);stroke-opacity:1;stroke-miterlimit:10;" d="M 50.957031 3.570313 L 49.414063 3.578125 L 48.363281 3.578125 L 47.28125 4.105469 L 46.117188 4.464844 L 44.714844 4.578125 L 43.484375 4.558594 L 42.183594 4.492188 L 41.082031 4.28125 L 40.125 3.910156 L 39.582031 2.777344 L 39.074219 1.875 L 37.90625 1.621094 "/>
<path style="fill:none;stroke-width:0.5;stroke-linecap:round;stroke-linejoin:round;stroke:rgb(75.686275%,70.980392%,61.568627%);stroke-opacity:1;stroke-miterlimit:10;" d="M 50.386719 3.566406 L 50.421875 3.601563 "/>
<path style="fill:none;stroke-width:0.5;stroke-linecap:round;stroke-linejoin:round;stroke:rgb(75.686275%,70.980392%,61.568627%);stroke-opacity:1;stroke-miterlimit:10;" d="M 42.105469 16.429688 L 41.980469 15.328125 L 42.003906 14.027344 L 42.265625 12.722656 L 42.679688 11.628906 L 43.15625 10.71875 L 43.433594 9.273438 L 43.492188 8.214844 L 43.484375 7.050781 L 43.484375 4.558594 "/>
<path style="fill:none;stroke-width:0.5;stroke-linecap:round;stroke-linejoin:round;stroke:rgb(75.686275%,70.980392%,61.568627%);stroke-opacity:1;stroke-miterlimit:10;" d="M 254.410156 3.140625 L 253.707031 2.414063 L 254.027344 1.449219 L 253 1.601563 L 252.652344 2.605469 L 252.660156 3.085938 "/>
<path style="fill:none;stroke-width:0.5;stroke-linecap:round;stroke-linejoin:round;stroke:rgb(75.686275%,70.980392%,61.568627%);stroke-opacity:1;stroke-miterlimit:10;" d="M 251.335938 3.070313 L 251.214844 1.546875 L 251.164063 0.273438 L 251.152344 -0.734375 L 251.203125 -1.941406 L 251.203125 -2 "/>
<path style="fill:none;stroke-width:0.5;stroke-linecap:round;stroke-linejoin:round;stroke:rgb(75.686275%,70.980392%,61.568627%);stroke-opacity:1;stroke-miterlimit:10;" d="M 164.460938 18.355469 L 163.929688 17.503906 L 163.867188 16.28125 L 163.804688 15.933594 "/>
<path style="fill:none;stroke-width:0.5;stroke-linecap:round;stroke-linejoin:round;stroke:rgb(75.686275%,70.980392%,61.568627%);stroke-opacity:1;stroke-miterlimit:10;" d="M 209.644531 16.652344 L 210.976563 16.089844 L 211.679688 15.683594 "/>
<path style="fill:none;stroke-width:0.5;stroke-linecap:round;stroke-linejoin:round;stroke:rgb(75.686275%,70.980392%,61.568627%);stroke-opacity:1;stroke-miterlimit:10;" d="M 173.59375 23.367188 L 174.585938 22.710938 L 175.3125 21.882813 L 175.816406 20.820313 L 176.851563 20.003906 L 177.476563 19.140625 L 178.734375 18.097656 L 179.789063 17.492188 L 181.015625 17.203125 L 182.082031 17.296875 L 184.796875 17.839844 L 186.183594 17.953125 L 187.488281 17.988281 L 188.703125 17.539063 L 189.820313 17.226563 L 190.890625 16.65625 L 192.847656 16.074219 L 194.078125 16.132813 L 195.5 16.410156 L 196.671875 16.410156 L 197.570313 16.082031 "/>
<path style="fill:none;stroke-width:0.5;stroke-linecap:round;stroke-linejoin:round;stroke:rgb(75.686275%,70.980392%,61.568627%);stroke-opacity:1;stroke-miterlimit:10;" d="M 115.894531 18.578125 L 114.804688 17.976563 L 113.597656 17.417969 L 111.257813 17.207031 L 108.292969 17.039063 L 107.273438 17.011719 L 103.296875 16.9375 L 103.125 18.398438 L 103.042969 18.554688 "/>
<path style="fill:none;stroke-width:0.5;stroke-linecap:round;stroke-linejoin:round;stroke:rgb(75.686275%,70.980392%,61.568627%);stroke-opacity:1;stroke-miterlimit:10;" d="M 112.65625 17.277344 L 112.378906 16.21875 "/>
<path style="fill:none;stroke-width:0.5;stroke-linecap:round;stroke-linejoin:round;stroke:rgb(75.686275%,70.980392%,61.568627%);stroke-opacity:1;stroke-miterlimit:10;" d="M 238.128906 16.484375 L 237.21875 17.359375 L 235.925781 17.222656 L 234.976563 17.617188 L 232.945313 18.1875 L 231.203125 18.433594 L 229.296875 18.164063 L 228.011719 17.511719 L 226.707031 16.292969 L 225.882813 15.625 "/>
<path style="fill:none;stroke-width:0.5;stroke-linecap:round;stroke-linejoin:round;stroke:rgb(75.686275%,70.980392%,61.568627%);stroke-opacity:1;stroke-miterlimit:10;" d="M 153.121094 22.777344 L 153.722656 21.105469 L 154.175781 19.824219 L 154.441406 18.527344 L 154.65625 17.359375 L 154.933594 16.121094 L 154.960938 15.910156 "/>
<path style="fill:none;stroke-width:0.5;stroke-linecap:round;stroke-linejoin:round;stroke:rgb(75.686275%,70.980392%,61.568627%);stroke-opacity:1;stroke-miterlimit:10;" d="M 209.644531 16.652344 L 208.308594 16.738281 L 207.484375 15.945313 L 207.441406 15.652344 "/>
<path style="fill:none;stroke-width:0.5;stroke-linecap:round;stroke-linejoin:round;stroke:rgb(75.686275%,70.980392%,61.568627%);stroke-opacity:1;stroke-miterlimit:10;" d="M 163.277344 28.488281 L 163.554688 27.40625 L 164.03125 25.59375 L 164.503906 24.453125 L 165.003906 23.46875 L 165.871094 21.621094 L 165.90625 20.542969 L 165.601563 19.570313 L 165.554688 18.542969 L 166.652344 17.257813 L 167.449219 16.25 L 167.757813 15.953125 "/>
<path style="fill:none;stroke-width:0.5;stroke-linecap:round;stroke-linejoin:round;stroke:rgb(75.686275%,70.980392%,61.568627%);stroke-opacity:1;stroke-miterlimit:10;" d="M 151.234375 21.476563 L 151.183594 20.015625 L 151.179688 18.929688 L 151.375 17.871094 L 151.109375 16.648438 L 150.859375 15.964844 "/>
<path style="fill:none;stroke-width:0.5;stroke-linecap:round;stroke-linejoin:round;stroke:rgb(75.686275%,70.980392%,61.568627%);stroke-opacity:1;stroke-miterlimit:10;" d="M 142.835938 18.402344 L 142.789063 16.800781 L 142.800781 15.929688 "/>
<path style="fill:none;stroke-width:0.5;stroke-linecap:round;stroke-linejoin:round;stroke:rgb(75.686275%,70.980392%,61.568627%);stroke-opacity:1;stroke-miterlimit:10;" d="M 100.347656 16.515625 L 100.824219 17.367188 "/>
<path style="fill:none;stroke-width:0.5;stroke-linecap:round;stroke-linejoin:round;stroke:rgb(75.686275%,70.980392%,61.568627%);stroke-opacity:1;stroke-miterlimit:10;" d="M 121.535156 18.984375 L 121.539063 17.464844 L 120.996094 16.554688 L 120.988281 16.050781 "/>
<path style="fill:none;stroke-width:0.5;stroke-linecap:round;stroke-linejoin:round;stroke:rgb(75.686275%,70.980392%,61.568627%);stroke-opacity:1;stroke-miterlimit:10;" d="M 250.578125 22.007813 L 249.851563 21.25 L 249.308594 19.78125 L 249.457031 18.671875 L 249.207031 17.675781 L 249.035156 16.675781 L 248.6875 15.664063 "/>
<path style="fill:none;stroke-width:0.5;stroke-linecap:round;stroke-linejoin:round;stroke:rgb(75.686275%,70.980392%,61.568627%);stroke-opacity:1;stroke-miterlimit:10;" d="M 255.273438 22.589844 L 254.933594 21.566406 L 255.78125 20.195313 L 256.453125 19.371094 L 257 18.730469 "/>
<path style="fill:none;stroke-width:0.5;stroke-linecap:round;stroke-linejoin:round;stroke:rgb(75.686275%,70.980392%,61.568627%);stroke-opacity:1;stroke-miterlimit:10;" d="M 235.019531 17.546875 L 234.363281 16.417969 L 233.808594 15.625 "/>
<path style="fill:none;stroke-width:0.5;stroke-linecap:round;stroke-linejoin:round;stroke:rgb(75.686275%,70.980392%,61.568627%);stroke-opacity:1;stroke-miterlimit:10;" d="M 100.824219 17.367188 L 100.347656 16.515625 "/>
<path style="fill:none;stroke-width:0.5;stroke-linecap:round;stroke-linejoin:round;stroke:rgb(75.686275%,70.980392%,61.568627%);stroke-opacity:1;stroke-miterlimit:10;" d="M 150.886719 5.734375 L 151.117188 5.226563 "/>
<path style="fill:none;stroke-width:0.5;stroke-linecap:round;stroke-linejoin:round;stroke:rgb(75.686275%,70.980392%,61.568627%);stroke-opacity:1;stroke-miterlimit:10;" d="M 167.757813 15.953125 L 167.886719 14.960938 L 167.929688 14.902344 "/>
<path style="fill:none;stroke-width:0.5;stroke-linecap:round;stroke-linejoin:round;stroke:rgb(75.686275%,70.980392%,61.568627%);stroke-opacity:1;stroke-miterlimit:10;" d="M 169.429688 14.507813 L 169.53125 14.347656 "/>
<path style="fill:none;stroke-width:0.5;stroke-linecap:round;stroke-linejoin:round;stroke:rgb(75.686275%,70.980392%,61.568627%);stroke-opacity:1;stroke-miterlimit:10;" d="M 127.828125 1.121094 L 127.78125 -0.550781 L 127.78125 -2 "/>
<path style="fill:none;stroke-width:0.5;stroke-linecap:round;stroke-linejoin:round;stroke:rgb(75.686275%,70.980392%,61.568627%);stroke-opacity:1;stroke-miterlimit:10;" d="M 111.683594 7.988281 L 111.007813 7.019531 L 110.171875 6.261719 L 109.582031 5.453125 L 109.648438 3.527344 L 109.8125 2.371094 L 110.199219 1.441406 "/>
<path style="fill:none;stroke-width:0.5;stroke-linecap:round;stroke-linejoin:round;stroke:rgb(75.686275%,70.980392%,61.568627%);stroke-opacity:1;stroke-miterlimit:10;" d="M 120.988281 16.050781 L 121.03125 14.523438 L 121.066406 13.4375 L 121.066406 12.25 L 121.078125 11.152344 L 121.128906 9.742188 L 122.128906 9.132813 L 124.007813 9.101563 L 125.085938 9.101563 L 125.582031 9.191406 "/>
<path style="fill:none;stroke-width:0.5;stroke-linecap:round;stroke-linejoin:round;stroke:rgb(75.686275%,70.980392%,61.568627%);stroke-opacity:1;stroke-miterlimit:10;" d="M 162.28125 4.394531 L 161.878906 5.328125 L 161.433594 5.90625 "/>
<path style="fill:none;stroke-width:0.5;stroke-linecap:round;stroke-linejoin:round;stroke:rgb(75.686275%,70.980392%,61.568627%);stroke-opacity:1;stroke-miterlimit:10;" d="M 165.800781 8.859375 L 165.929688 7.855469 L 166.089844 7.785156 "/>
<path style="fill:none;stroke-width:0.5;stroke-linecap:round;stroke-linejoin:round;stroke:rgb(75.686275%,70.980392%,61.568627%);stroke-opacity:1;stroke-miterlimit:10;" d="M 222.792969 9.136719 L 221.730469 9.113281 L 219.5 9.054688 L 218.351563 8.960938 L 217.054688 8.898438 L 215.804688 8.964844 L 214.765625 9.101563 L 213.652344 9.140625 L 212.734375 9.980469 L 211.652344 10.851563 L 209.992188 11.652344 L 208.996094 12.066406 L 207.832031 12.335938 L 206.441406 11.949219 L 206.28125 11.890625 "/>
<path style="fill:none;stroke-width:0.5;stroke-linecap:round;stroke-linejoin:round;stroke:rgb(75.686275%,70.980392%,61.568627%);stroke-opacity:1;stroke-miterlimit:10;" d="M 214.46875 9.027344 L 214.554688 5.921875 L 215.433594 5.300781 L 216.296875 4.6875 L 217.402344 3.941406 L 217.605469 2.699219 L 217.625 2.171875 "/>
<path style="fill:none;stroke-width:0.5;stroke-linecap:round;stroke-linejoin:round;stroke:rgb(75.686275%,70.980392%,61.568627%);stroke-opacity:1;stroke-miterlimit:10;" d="M 196.019531 13.601563 L 197.316406 13.957031 L 198.3125 14.195313 L 199.6875 14.34375 L 200.730469 14.335938 L 200.835938 12.847656 L 200.804688 11.390625 L 200.820313 10.019531 L 200.753906 7.984375 L 200.738281 6.824219 L 200.714844 5.777344 L 200.632813 4.449219 L 200.632813 3.089844 L 200.609375 1.941406 L 200.625 0.824219 L 200.714844 -0.195313 L 201.761719 -0.753906 L 202.390625 -1.625 L 202.527344 -2 "/>
<path style="fill:none;stroke-width:0.5;stroke-linecap:round;stroke-linejoin:round;stroke:rgb(75.686275%,70.980392%,61.568627%);stroke-opacity:1;stroke-miterlimit:10;" d="M 193.628906 5.289063 L 193.585938 5.75 "/>
<path style="fill:none;stroke-width:0.5;stroke-linecap:round;stroke-linejoin:round;stroke:rgb(75.686275%,70.980392%,61.568627%);stroke-opacity:1;stroke-miterlimit:10;" d="M 177.140625 4.796875 L 177.234375 4.085938 "/>
<path style="fill:none;stroke-width:0.5;stroke-linecap:round;stroke-linejoin:round;stroke:rgb(75.686275%,70.980392%,61.568627%);stroke-opacity:1;stroke-miterlimit:10;" d="M 146.734375 11.210938 L 146.890625 11.308594 "/>
<path style="fill:none;stroke-width:0.5;stroke-linecap:round;stroke-linejoin:round;stroke:rgb(75.686275%,70.980392%,61.568627%);stroke-opacity:1;stroke-miterlimit:10;" d="M 200.796875 10.871094 L 201.226563 11.109375 "/>
<path style="fill:none;stroke-width:0.5;stroke-linecap:round;stroke-linejoin:round;stroke:rgb(75.686275%,70.980392%,61.568627%);stroke-opacity:1;stroke-miterlimit:10;" d="M 171.550781 15.015625 L 171.472656 14.074219 "/>
<path style="fill:none;stroke-width:0.5;stroke-linecap:round;stroke-linejoin:round;stroke:rgb(75.686275%,70.980392%,61.568627%);stroke-opacity:1;stroke-miterlimit:10;" d="M 142.15625 9.457031 L 142.007813 9.628906 "/>
<path style="fill:none;stroke-width:0.5;stroke-linecap:round;stroke-linejoin:round;stroke:rgb(75.686275%,70.980392%,61.568627%);stroke-opacity:1;stroke-miterlimit:10;" d="M 172 14.042969 L 171.765625 15.015625 L 171.511719 14.519531 "/>
<path style="fill:none;stroke-width:0.5;stroke-linecap:round;stroke-linejoin:round;stroke:rgb(75.686275%,70.980392%,61.568627%);stroke-opacity:1;stroke-miterlimit:10;" d="M 141.472656 8.691406 L 141.605469 8.6875 "/>
<path style="fill:none;stroke-width:0.5;stroke-linecap:round;stroke-linejoin:round;stroke:rgb(75.686275%,70.980392%,61.568627%);stroke-opacity:1;stroke-miterlimit:10;" d="M 132.847656 6.292969 L 132.523438 5.894531 "/>
<path style="fill:none;stroke-width:0.5;stroke-linecap:round;stroke-linejoin:round;stroke:rgb(75.686275%,70.980392%,61.568627%);stroke-opacity:1;stroke-miterlimit:10;" d="M 211.679688 15.683594 L 213.71875 15.625 L 214.277344 15.59375 "/>
<path style="fill:none;stroke-width:0.5;stroke-linecap:round;stroke-linejoin:round;stroke:rgb(75.686275%,70.980392%,61.568627%);stroke-opacity:1;stroke-miterlimit:10;" d="M 203.03125 14.824219 L 202.039063 14.339844 L 200.960938 14.355469 L 200.683594 14.351563 "/>
<path style="fill:none;stroke-width:0.5;stroke-linecap:round;stroke-linejoin:round;stroke:rgb(75.686275%,70.980392%,61.568627%);stroke-opacity:1;stroke-miterlimit:10;" d="M 200.835938 14.1875 L 200.960938 14.355469 "/>
<path style="fill:none;stroke-width:0.5;stroke-linecap:round;stroke-linejoin:round;stroke:rgb(75.686275%,70.980392%,61.568627%);stroke-opacity:1;stroke-miterlimit:10;" d="M 210.894531 3.511719 L 212.851563 3.507813 L 214.015625 3.5 L 214.636719 3.472656 "/>
<path style="fill:none;stroke-width:0.5;stroke-linecap:round;stroke-linejoin:round;stroke:rgb(75.686275%,70.980392%,61.568627%);stroke-opacity:1;stroke-miterlimit:10;" d="M 113.464844 2.3125 L 114.355469 1.628906 L 115.347656 1.265625 L 116.378906 0.992188 L 117.335938 0.34375 L 118.476563 -0.390625 L 119.207031 -1.375 L 119.320313 -2 "/>
<path style="fill:none;stroke-width:0.5;stroke-linecap:round;stroke-linejoin:round;stroke:rgb(75.686275%,70.980392%,61.568627%);stroke-opacity:1;stroke-miterlimit:10;" d="M 155.277344 4.3125 L 155.042969 3.140625 L 155.035156 0.617188 L 155.027344 -0.480469 L 154.996094 -2 "/>
<path style="fill:none;stroke-width:0.5;stroke-linecap:round;stroke-linejoin:round;stroke:rgb(75.686275%,70.980392%,61.568627%);stroke-opacity:1;stroke-miterlimit:10;" d="M 141.515625 8.378906 L 141.207031 9.351563 L 140.066406 9.425781 L 138.371094 9.425781 L 136.742188 9.417969 L 135.238281 9.394531 L 132.914063 9.375 L 132.71875 9.371094 "/>
<path style="fill:none;stroke-width:0.5;stroke-linecap:round;stroke-linejoin:round;stroke:rgb(75.686275%,70.980392%,61.568627%);stroke-opacity:1;stroke-miterlimit:10;" d="M 142.800781 15.929688 L 142.847656 14.507813 L 142.847656 13.027344 L 142.660156 11.707031 L 142.28125 10.496094 L 141.949219 9.460938 L 141.515625 8.378906 L 141.527344 6.710938 L 141.566406 4.984375 L 141.605469 3 L 141.628906 1.832031 L 141.65625 0.398438 L 141.679688 -0.789063 L 141.707031 -1.980469 L 141.707031 -2 "/>
<path style="fill:none;stroke-width:0.5;stroke-linecap:round;stroke-linejoin:round;stroke:rgb(75.686275%,70.980392%,61.568627%);stroke-opacity:1;stroke-miterlimit:10;" d="M 118.101563 13.652344 L 118.652344 12.601563 L 118.839844 12.253906 "/>
<path style="fill:none;stroke-width:0.5;stroke-linecap:round;stroke-linejoin:round;stroke:rgb(75.686275%,70.980392%,61.568627%);stroke-opacity:1;stroke-miterlimit:10;" d="M 154.960938 15.910156 L 154.992188 14.910156 L 155.011719 13.644531 L 155.046875 12.429688 L 155.871094 10.652344 L 156.03125 10.386719 "/>
<path style="fill:none;stroke-width:0.5;stroke-linecap:round;stroke-linejoin:round;stroke:rgb(75.686275%,70.980392%,61.568627%);stroke-opacity:1;stroke-miterlimit:10;" d="M 214.277344 15.59375 L 215.875 14.652344 L 216.890625 13.800781 L 217.90625 13.023438 L 218.773438 12.453125 L 219.539063 11.804688 L 220.039063 10.761719 L 220.589844 9.550781 L 220.824219 9.097656 "/>
<path style="fill:none;stroke-width:0.5;stroke-linecap:round;stroke-linejoin:round;stroke:rgb(75.686275%,70.980392%,61.568627%);stroke-opacity:1;stroke-miterlimit:10;" d="M 195.71875 13.835938 L 195.898438 13.695313 "/>
<path style="fill:none;stroke-width:0.5;stroke-linecap:round;stroke-linejoin:round;stroke:rgb(75.686275%,70.980392%,61.568627%);stroke-opacity:1;stroke-miterlimit:10;" d="M 158.625 11.398438 L 158.503906 10.304688 L 157.808594 9.414063 L 157.363281 8.367188 L 157.230469 7.195313 L 157.105469 5.957031 L 157.121094 5.289063 "/>
<path style="fill:none;stroke-width:0.5;stroke-linecap:round;stroke-linejoin:round;stroke:rgb(75.686275%,70.980392%,61.568627%);stroke-opacity:1;stroke-miterlimit:10;" d="M 167.929688 14.902344 L 167.140625 14.1875 L 165.699219 13.949219 L 164.988281 13.191406 L 164.503906 12.300781 L 163.605469 11.792969 L 162.535156 11.402344 L 160.550781 11.347656 L 159.332031 11.359375 L 158.289063 11.375 L 157.132813 10.953125 L 156.167969 10.453125 L 154.917969 9.835938 L 153.464844 9 L 152.351563 8.847656 L 151.324219 8.824219 L 150.46875 9.511719 L 149.691406 10.246094 L 149.253906 11.195313 L 149.203125 12.515625 L 149.605469 13.617188 L 150.035156 14.570313 L 150.597656 15.410156 L 150.859375 15.964844 "/>
<path style="fill:none;stroke-width:0.75;stroke-linecap:round;stroke-linejoin:round;stroke:rgb(75.686275%,70.980392%,61.568627%);stroke-opacity:1;stroke-miterlimit:10;" d="M 250.578125 22.007813 L 249.375 21.984375 L 248.277344 21.007813 L 247.167969 20.484375 L 246.074219 20.773438 L 244.933594 20.589844 L 244.035156 20.125 L 242.933594 19.746094 L 241.800781 19.230469 L 240.726563 18.972656 L 240.082031 18.121094 L 239.289063 17.179688 L 238.371094 16.679688 L 238.128906 16.484375 "/>
<path style="fill:none;stroke-width:0.75;stroke-linecap:round;stroke-linejoin:round;stroke:rgb(75.686275%,70.980392%,61.568627%);stroke-opacity:1;stroke-miterlimit:10;" d="M 201.558594 18.734375 L 202.296875 17.902344 L 202.519531 16.433594 L 202.6875 15.625 "/>
<path style="fill:none;stroke-width:0.75;stroke-linecap:round;stroke-linejoin:round;stroke:rgb(75.686275%,70.980392%,61.568627%);stroke-opacity:1;stroke-miterlimit:10;" d="M 100.320313 16.316406 L 100.726563 15.386719 L 100.972656 14.382813 L 101.804688 13.789063 L 102.769531 12.359375 L 103.492188 11.269531 L 103.855469 10.558594 "/>
<path style="fill:none;stroke-width:0.75;stroke-linecap:round;stroke-linejoin:round;stroke:rgb(75.686275%,70.980392%,61.568627%);stroke-opacity:1;stroke-miterlimit:10;" d="M 108.132813 0.03125 L 106.75 -0.390625 L 106.441406 -0.351563 "/>
<path style="fill:none;stroke-width:0.75;stroke-linecap:round;stroke-linejoin:round;stroke:rgb(75.686275%,70.980392%,61.568627%);stroke-opacity:1;stroke-miterlimit:10;" d="M 32.246094 8.558594 L 32.824219 7.613281 L 33.03125 5.789063 L 33.855469 5.132813 L 34.949219 4.914063 L 36.367188 4.058594 L 37.171875 3.421875 L 37.84375 2.613281 L 37.933594 0.9375 L 38.089844 -0.316406 L 38.320313 -1.398438 L 38.296875 -2 "/>
<path style="fill:none;stroke-width:0.75;stroke-linecap:round;stroke-linejoin:round;stroke:rgb(75.686275%,70.980392%,61.568627%);stroke-opacity:1;stroke-miterlimit:10;" d="M 103.855469 10.558594 L 104.8125 9.382813 L 105.472656 8.554688 L 105.84375 7.355469 L 106.070313 6.246094 L 106.722656 5.339844 L 107.074219 3.582031 L 107.519531 2.59375 L 107.472656 0.960938 L 106.792969 0.191406 L 106.253906 -0.65625 L 105.777344 -1.570313 L 104.941406 -2 "/>
<path style="fill:none;stroke-width:0.75;stroke-linecap:round;stroke-linejoin:round;stroke:rgb(75.686275%,70.980392%,61.568627%);stroke-opacity:1;stroke-miterlimit:10;" d="M 5.554688 35.253906 L 6.621094 35.050781 L 7.882813 34.820313 L 8.882813 34.71875 L 10.125 33.945313 L 11.515625 33.417969 L 12.472656 33.117188 L 13.703125 32.570313 L 16.191406 31.242188 L 17.402344 29.972656 L 18.144531 29.207031 L 19.277344 28.480469 L 20.160156 28.007813 L 21.101563 26.628906 L 21.558594 25.613281 L 21.519531 24.519531 L 21.347656 23.410156 L 21.429688 22.019531 L 21.914063 20.832031 L 22.671875 19.988281 L 23.160156 18.964844 L 23.226563 17.746094 L 23.234375 16.695313 L 23.710938 16.003906 "/>
<path style="fill:none;stroke-width:0.75;stroke-linecap:round;stroke-linejoin:round;stroke:rgb(75.686275%,70.980392%,61.568627%);stroke-opacity:1;stroke-miterlimit:10;" d="M 130.230469 16.042969 L 129.28125 15.253906 L 127.453125 12.773438 L 126.585938 12.21875 L 125.457031 11.777344 L 124.195313 11.292969 L 123.046875 10.527344 L 122.191406 9.765625 L 121.28125 9.15625 L 120.035156 8.304688 L 119.160156 7.695313 L 118.140625 6.984375 L 117.332031 6.328125 L 116.574219 5.632813 L 115.808594 4.816406 L 115.238281 3.753906 L 114.328125 3.003906 L 113.550781 2.34375 L 112.417969 2.050781 L 111.34375 1.960938 L 110.324219 1.535156 L 109.480469 0.796875 L 108.683594 0.046875 L 108.132813 0.03125 "/>
<path style="fill:none;stroke-width:0.75;stroke-linecap:round;stroke-linejoin:round;stroke:rgb(75.686275%,70.980392%,61.568627%);stroke-opacity:1;stroke-miterlimit:10;" d="M 115.464844 4.105469 L 117.507813 4.425781 L 118.59375 4.550781 L 119.550781 5.085938 L 120.683594 5.011719 L 121.605469 4.558594 L 122.515625 3.460938 L 123.367188 2.394531 L 124.878906 2.078125 L 126.84375 2.125 L 128.226563 2.105469 L 129.601563 2.074219 L 130.910156 2.074219 L 132.359375 2.191406 L 133.976563 3.042969 L 135.75 3.703125 L 136.753906 3.851563 L 137.769531 4.261719 L 138.789063 4.757813 L 139.96875 4.972656 L 141.566406 4.984375 L 142.707031 4.980469 L 144.328125 4.980469 L 145.535156 4.984375 L 147.703125 4.988281 L 149.101563 4.976563 L 151.117188 5.226563 L 151.953125 4.636719 L 154.1875 4.292969 L 155.277344 4.3125 L 156.222656 4.671875 L 157.121094 5.289063 L 158.757813 5.105469 L 160.007813 4.664063 L 161.15625 4.4375 L 162.238281 4.410156 L 163.179688 3.75 L 164.429688 3.242188 L 165.589844 2.964844 L 166.9375 3.042969 L 167.941406 3.113281 L 169.03125 3.355469 L 169.96875 3.738281 L 171.210938 4.402344 L 172.203125 5.09375 L 173.140625 5.664063 L 174.230469 5.589844 L 175.203125 5.289063 L 176.3125 5.15625 L 177.644531 4.53125 L 178.75 3.667969 L 179.972656 3.53125 L 181.777344 3.550781 L 183.457031 3.207031 L 184.523438 2.683594 L 185.648438 2.371094 "/>
<path style="fill:none;stroke-width:0.75;stroke-linecap:round;stroke-linejoin:round;stroke:rgb(75.686275%,70.980392%,61.568627%);stroke-opacity:1;stroke-miterlimit:10;" d="M 237.707031 15.667969 L 237.226563 14.566406 L 236.679688 13.542969 L 235.523438 12.261719 L 234.734375 11.277344 L 233.96875 10.359375 L 232.742188 9.335938 L 231.957031 8.632813 L 231.503906 7.4375 L 230.625 6.25 L 229.398438 4.796875 L 228.558594 4.242188 L 228.570313 2.484375 L 228.605469 1.351563 L 228.652344 0.113281 L 228.691406 -1.214844 L 228.722656 -2 "/>
<path style="fill:none;stroke-width:0.75;stroke-linecap:round;stroke-linejoin:round;stroke:rgb(75.686275%,70.980392%,61.568627%);stroke-opacity:1;stroke-miterlimit:10;" d="M 169.617188 14.460938 L 169.53125 12.65625 L 169.503906 10.136719 L 170.101563 9.144531 L 170.902344 8.226563 L 171.328125 6.972656 L 171.96875 5.996094 L 172.441406 5.265625 "/>
<path style="fill:none;stroke-width:0.75;stroke-linecap:round;stroke-linejoin:round;stroke:rgb(75.686275%,70.980392%,61.568627%);stroke-opacity:1;stroke-miterlimit:10;" d="M 54.253906 7.445313 L 55.433594 7.359375 L 56.425781 7.960938 L 57.304688 8.917969 L 58.152344 9.570313 L 58.839844 10.382813 L 58.875 11.460938 L 59.355469 12.710938 L 59.726563 13.828125 L 60.457031 14.792969 L 61.441406 15.097656 L 63.203125 15.101563 L 64.367188 15.109375 L 65.347656 14.757813 L 66.347656 14.679688 L 67.421875 14.824219 L 67.714844 14.902344 "/>
<path style="fill:none;stroke-width:0.75;stroke-linecap:round;stroke-linejoin:round;stroke:rgb(75.686275%,70.980392%,61.568627%);stroke-opacity:1;stroke-miterlimit:10;" d="M 126.84375 2.125 L 127.617188 1.324219 L 128.558594 0.402344 L 129.332031 -0.273438 L 130.351563 -1.699219 L 130.550781 -2 "/>
<path style="fill:none;stroke-width:0.75;stroke-linecap:round;stroke-linejoin:round;stroke:rgb(75.686275%,70.980392%,61.568627%);stroke-opacity:1;stroke-miterlimit:10;" d="M 23.710938 16.003906 L 24.566406 15.46875 L 25.125 13.398438 L 25.492188 12.359375 L 26.351563 11.8125 L 27.527344 11.234375 L 28.472656 10.730469 L 29.488281 10.300781 L 30.246094 9.609375 L 31.582031 9.097656 L 32.246094 8.558594 "/>
<path style="fill:none;stroke-width:0.75;stroke-linecap:round;stroke-linejoin:round;stroke:rgb(75.686275%,70.980392%,61.568627%);stroke-opacity:1;stroke-miterlimit:10;" d="M 238.128906 16.484375 L 237.707031 15.667969 "/>
<path style="fill:none;stroke-width:0.75;stroke-linecap:round;stroke-linejoin:round;stroke:rgb(75.686275%,70.980392%,61.568627%);stroke-opacity:1;stroke-miterlimit:10;" d="M 202.6875 15.625 L 203.140625 14.699219 L 204.210938 14.539063 L 204.992188 13.429688 L 205.335938 12.492188 L 206.199219 11.953125 L 207.015625 10.589844 L 207.523438 9.664063 L 208.242188 8.742188 L 209.171875 7.847656 L 210.09375 7.066406 L 210.785156 6.339844 L 210.882813 4.789063 L 210.894531 3.511719 L 210.894531 2.253906 L 210.910156 0.253906 L 210.902344 -0.910156 L 210.894531 -2 "/>
<path style="fill:none;stroke-width:0.75;stroke-linecap:round;stroke-linejoin:round;stroke:rgb(75.686275%,70.980392%,61.568627%);stroke-opacity:1;stroke-miterlimit:10;" d="M 130.402344 18.417969 L 130.390625 17.335938 L 130.316406 16.175781 L 130.230469 16.042969 "/>
<path style="fill:none;stroke-width:2;stroke-linecap:round;stroke-linejoin:round;stroke:rgb(75.686275%,70.980392%,61.568627%);stroke-opacity:1;stroke-miterlimit:10;" d="M 190.820313 7.324219 L 190.082031 5.933594 L 189.074219 5.128906 L 187.40625 3.953125 L 186.144531 2.960938 L 185.796875 1.925781 L 185.261719 0.859375 L 184.925781 -0.226563 L 183.746094 -1.417969 L 183.136719 -2.246094 L 182.769531 -3 "/>
<path style="fill:none;stroke-width:2;stroke-linecap:round;stroke-linejoin:round;stroke:rgb(75.686275%,70.980392%,61.568627%);stroke-opacity:1;stroke-miterlimit:10;" d="M 185.722656 2.367188 L 185.828125 2.363281 "/>
<path style="fill:none;stroke-width:2;stroke-linecap:round;stroke-linejoin:round;stroke:rgb(75.686275%,70.980392%,61.568627%);stroke-opacity:1;stroke-miterlimit:10;" d="M 201.09375 19.292969 L 200.183594 18.808594 L 199.234375 17.898438 L 197.570313 16.082031 L 197.164063 15.628906 "/>
<path style="fill:none;stroke-width:2;stroke-linecap:round;stroke-linejoin:round;stroke:rgb(75.686275%,70.980392%,61.568627%);stroke-opacity:1;stroke-miterlimit:10;" d="M 197.164063 15.628906 L 195.71875 13.835938 L 194.671875 12.726563 L 192.914063 11.4375 L 191.925781 10.351563 L 191.40625 9.488281 L 191.027344 8.507813 L 190.882813 7.5625 "/>
<path style="fill:none;stroke-width:2;stroke-linecap:round;stroke-linejoin:round;stroke:rgb(75.686275%,70.980392%,61.568627%);stroke-opacity:1;stroke-miterlimit:10;" d="M 54.789063 8.125 L 54.203125 7.308594 L 53.914063 5.777344 L 53.542969 3.660156 L 53.292969 2.542969 L 52.644531 1.480469 L 51.75 0.34375 L 50.417969 -1.324219 L 49.054688 -2.515625 L 48.464844 -3 "/>
<path style="fill:none;stroke-width:2;stroke-linecap:round;stroke-linejoin:round;stroke:rgb(75.686275%,70.980392%,61.568627%);stroke-opacity:1;stroke-miterlimit:10;" d="M 66.382813 16.460938 L 67.015625 15.542969 L 67.878906 14.792969 L 69.378906 14.128906 L 70.582031 13.507813 L 71.960938 12.4375 L 73.652344 11.023438 L 74.492188 10.371094 L 76.0625 9.191406 L 77.292969 8.269531 L 78.15625 7.628906 L 79.144531 6.933594 L 80.753906 6.0625 L 83.089844 4.375 L 84.53125 3.535156 L 87.402344 2.015625 L 88.515625 1.632813 L 89.988281 1.457031 L 91.042969 1.109375 L 92.1875 0.476563 L 93.398438 -0.0742188 L 94.394531 -0.519531 L 95.285156 -1.125 L 96.128906 -2.046875 L 96.480469 -2.972656 "/>
<path style="fill:none;stroke-width:2;stroke-linecap:round;stroke-linejoin:round;stroke:rgb(75.686275%,70.980392%,61.568627%);stroke-opacity:1;stroke-miterlimit:10;" d="M 59.921875 16.347656 L 59.210938 15.625 L 58.609375 14.808594 L 57.605469 12.652344 L 56.757813 10.832031 L 56.089844 9.425781 L 54.9375 8.261719 "/>
<path style="fill:none;stroke-width:2;stroke-linecap:round;stroke-linejoin:round;stroke:rgb(75.686275%,70.980392%,61.568627%);stroke-opacity:1;stroke-miterlimit:10;" d="M 63.105469 18.4375 L 61.699219 17.863281 L 60.347656 16.785156 L 59.921875 16.347656 "/>
<path style="fill:none;stroke-width:2;stroke-linecap:round;stroke-linejoin:round;stroke:rgb(75.686275%,70.980392%,61.568627%);stroke-opacity:1;stroke-miterlimit:10;" d="M 65.886719 17.21875 L 66.382813 16.460938 "/>
<path style="fill:none;stroke-width:0.5;stroke-linecap:round;stroke-linejoin:round;stroke:rgb(75.686275%,70.980392%,61.568627%);stroke-opacity:1;stroke-miterlimit:10;" d="M 3.832031 10.816406 L 3.828125 10.726563 "/>
<path style="fill:none;stroke-width:0.5;stroke-linecap:round;stroke-linejoin:round;stroke:rgb(75.686275%,70.980392%,61.568627%);stroke-opacity:1;stroke-miterlimit:10;" d="M 11.054688 10.019531 L 11.066406 10.109375 "/>
<path style="fill:none;stroke-width:0.5;stroke-linecap:round;stroke-linejoin:round;stroke:rgb(75.686275%,70.980392%,61.568627%);stroke-opacity:1;stroke-miterlimit:10;" d="M 51.070313 3.578125 L 50.957031 3.570313 "/>
<path style="fill:none;stroke-width:0.5;stroke-linecap:round;stroke-linejoin:round;stroke:rgb(75.686275%,70.980392%,61.568627%);stroke-opacity:1;stroke-miterlimit:10;" d="M 195.898438 13.695313 L 196.019531 13.601563 "/>
<path style="fill:none;stroke-width:2;stroke-linecap:round;stroke-linejoin:round;stroke:rgb(75.686275%,70.980392%,61.568627%);stroke-opacity:1;stroke-miterlimit:10;" d="M 190.882813 7.5625 L 190.820313 7.324219 "/>
<path style="fill:none;stroke-width:2;stroke-linecap:round;stroke-linejoin:round;stroke:rgb(75.686275%,70.980392%,61.568627%);stroke-opacity:1;stroke-miterlimit:10;" d="M 185.648438 2.371094 L 185.722656 2.367188 "/>
<path style="fill:none;stroke-width:2;stroke-linecap:round;stroke-linejoin:round;stroke:rgb(75.686275%,70.980392%,61.568627%);stroke-opacity:1;stroke-miterlimit:10;" d="M 54.9375 8.261719 L 54.789063 8.125 "/>
<path style="fill:none;stroke-width:1;stroke-linecap:round;stroke-linejoin:round;stroke:rgb(100%,99.215686%,54.509804%);stroke-opacity:1;stroke-miterlimit:10;" d="M 190.820313 7.324219 L 190.082031 5.933594 L 189.074219 5.128906 L 187.40625 3.953125 L 186.144531 2.960938 L 185.796875 1.925781 L 185.261719 0.859375 L 184.925781 -0.226563 L 183.746094 -1.417969 L 183.136719 -2.246094 L 182.769531 -3 "/>
<path style="fill:none;stroke-width:1;stroke-linecap:round;stroke-linejoin:round;stroke:rgb(100%,99.215686%,54.509804%);stroke-opacity:1;stroke-miterlimit:10;" d="M 185.722656 2.367188 L 185.828125 2.363281 "/>
<path style="fill:none;stroke-width:1;stroke-linecap:round;stroke-linejoin:round;stroke:rgb(100%,99.215686%,54.509804%);stroke-opacity:1;stroke-miterlimit:10;" d="M 201.09375 19.292969 L 200.183594 18.808594 L 199.234375 17.898438 L 197.570313 16.082031 L 197.164063 15.628906 "/>
<path style="fill:none;stroke-width:1;stroke-linecap:round;stroke-linejoin:round;stroke:rgb(100%,99.215686%,54.509804%);stroke-opacity:1;stroke-miterlimit:10;" d="M 197.164063 15.628906 L 195.71875 13.835938 L 194.671875 12.726563 L 192.914063 11.4375 L 191.925781 10.351563 L 191.40625 9.488281 L 191.027344 8.507813 L 190.882813 7.5625 "/>
<path style="fill:none;stroke-width:1;stroke-linecap:round;stroke-linejoin:round;stroke:rgb(100%,99.215686%,54.509804%);stroke-opacity:1;stroke-miterlimit:10;" d="M 54.789063 8.125 L 54.203125 7.308594 L 53.914063 5.777344 L 53.542969 3.660156 L 53.292969 2.542969 L 52.644531 1.480469 L 51.75 0.34375 L 50.417969 -1.324219 L 49.054688 -2.515625 L 48.464844 -3 "/>
<path style="fill:none;stroke-width:1;stroke-linecap:round;stroke-linejoin:round;stroke:rgb(100%,99.215686%,54.509804%);stroke-opacity:1;stroke-miterlimit:10;" d="M 66.382813 16.460938 L 67.015625 15.542969 L 67.878906 14.792969 L 69.378906 14.128906 L 70.582031 13.507813 L 71.960938 12.4375 L 73.652344 11.023438 L 74.492188 10.371094 L 76.0625 9.191406 L 77.292969 8.269531 L 78.15625 7.628906 L 79.144531 6.933594 L 80.753906 6.0625 L 83.089844 4.375 L 84.53125 3.535156 L 87.402344 2.015625 L 88.515625 1.632813 L 89.988281 1.457031 L 91.042969 1.109375 L 92.1875 0.476563 L 93.398438 -0.0742188 L 94.394531 -0.519531 L 95.285156 -1.125 L 96.128906 -2.046875 L 96.480469 -2.972656 "/>
<path style="fill:none;stroke-width:1;stroke-linecap:round;stroke-linejoin:round;stroke:rgb(100%,99.215686%,54.509804%);stroke-opacity:1;stroke-miterlimit:10;" d="M 59.921875 16.347656 L 59.210938 15.625 L 58.609375 14.808594 L 57.605469 12.652344 L 56.757813 10.832031 L 56.089844 9.425781 L 54.9375 8.261719 "/>
<path style="fill:none;stroke-width:1;stroke-linecap:round;stroke-linejoin:round;stroke:rgb(100%,99.215686%,54.509804%);stroke-opacity:1;stroke-miterlimit:10;" d="M 63.105469 18.4375 L 61.699219 17.863281 L 60.347656 16.785156 L 59.921875 16.347656 "/>
<path style="fill:none;stroke-width:1;stroke-linecap:round;stroke-linejoin:round;stroke:rgb(100%,99.215686%,54.509804%);stroke-opacity:1;stroke-miterlimit:10;" d="M 65.886719 17.21875 L 66.382813 16.460938 "/>
<path style="fill:none;stroke-width:1;stroke-linecap:round;stroke-linejoin:round;stroke:rgb(100%,99.215686%,54.509804%);stroke-opacity:1;stroke-miterlimit:10;" d="M 190.882813 7.5625 L 190.820313 7.324219 "/>
<path style="fill:none;stroke-width:1;stroke-linecap:round;stroke-linejoin:round;stroke:rgb(100%,99.215686%,54.509804%);stroke-opacity:1;stroke-miterlimit:10;" d="M 185.648438 2.371094 L 185.722656 2.367188 "/>
<path style="fill:none;stroke-width:1;stroke-linecap:round;stroke-linejoin:round;stroke:rgb(100%,99.215686%,54.509804%);stroke-opacity:1;stroke-miterlimit:10;" d="M 54.9375 8.261719 L 54.789063 8.125 "/>
</g>
</svg>

