<?xml version="1.0" encoding="UTF-8"?>
<svg xmlns="http://www.w3.org/2000/svg" xmlns:xlink="http://www.w3.org/1999/xlink" width="256pt" height="256pt" viewBox="0 0 256 256" version="1.1">
<g id="surface2">
<rect x="0" y="0" width="256" height="256" style="fill:rgb(60%,70.196078%,80%);fill-opacity:1;stroke:none;"/>
<path style=" stroke:none;fill-rule:evenodd;fill:rgb(94.901961%,93.72549%,91.372549%);fill-opacity:1;" d="M 259 -4 L 259 22.074219 L 255.894531 23.058594 L 238.375 26.074219 L 221 19.898438 L 212.242188 5.828125 L 211.945313 -4 L -4 -4 L -4 259 L -4 -4 Z M 259 -4 "/>
<path style="fill:none;stroke-width:8;stroke-linecap:round;stroke-linejoin:round;stroke:rgb(75.686275%,70.980392%,61.568627%);stroke-opacity:1;stroke-miterlimit:10;" d="M 225.296875 -9 L 225.328125 -5.941406 L 225.304688 -0.261719 L 225.980469 2.101563 L 226.792969 3.792969 L 228.144531 5.570313 L 231.058594 8.179688 L 232.898438 9.132813 L 236.417969 10.144531 L 242.804688 10.945313 L 248.839844 10.789063 L 255.222656 9.410156 L 264 6.53125 "/>
<path style="fill:none;stroke-width:6;stroke-linecap:round;stroke-linejoin:round;stroke:rgb(100%,100%,100%);stroke-opacity:1;stroke-miterlimit:10;" d="M 225.296875 -9 L 225.328125 -5.941406 L 225.304688 -0.261719 L 225.980469 2.101563 L 226.792969 3.792969 L 228.144531 5.570313 L 231.058594 8.179688 L 232.898438 9.132813 L 236.417969 10.144531 L 242.804688 10.945313 L 248.839844 10.789063 L 255.222656 9.410156 L 264 6.53125 "/>
</g>
</svg>

