<?xml version="1.0" encoding="UTF-8"?>
<svg xmlns="http://www.w3.org/2000/svg" xmlns:xlink="http://www.w3.org/1999/xlink" width="256pt" height="256pt" viewBox="0 0 256 256" version="1.1">
<g id="surface2">
<rect x="0" y="0" width="256" height="256" style="fill:rgb(94.901961%,93.72549%,91.372549%);fill-opacity:1;stroke:none;"/>
<path style="fill:none;stroke-width:8;stroke-linecap:round;stroke-linejoin:round;stroke:rgb(75.686275%,70.980392%,61.568627%);stroke-opacity:1;stroke-miterlimit:10;" d="M -9 71.695313 L -6.289063 67.910156 L -2.535156 61.011719 L -0.554688 58.421875 L 2.238281 55.960938 L 11.070313 50.003906 L 13.542969 48.933594 L 25.75 47.769531 L 27.570313 47.414063 L 31.902344 45.273438 L 34.210938 43.625 L 35.585938 41.453125 L 38.660156 24.359375 L 39.265625 22.058594 L 41.804688 16.75 L 43.972656 12.832031 L 46.863281 4.703125 L 47.863281 -2 L 47.882813 -9 "/>
<path style="fill:none;stroke-width:6;stroke-linecap:round;stroke-linejoin:round;stroke:rgb(100%,100%,100%);stroke-opacity:1;stroke-miterlimit:10;" d="M -9 71.695313 L -6.289063 67.910156 L -2.535156 61.011719 L -0.554688 58.421875 L 2.238281 55.960938 L 11.070313 50.003906 L 13.542969 48.933594 L 25.75 47.769531 L 27.570313 47.414063 L 31.902344 45.273438 L 34.210938 43.625 L 35.585938 41.453125 L 38.660156 24.359375 L 39.265625 22.058594 L 41.804688 16.75 L 43.972656 12.832031 L 46.863281 4.703125 L 47.863281 -2 L 47.882813 -9 "/>
</g>
</svg>

