<?xml version="1.0" encoding="UTF-8"?>
<svg xmlns="http://www.w3.org/2000/svg" xmlns:xlink="http://www.w3.org/1999/xlink" width="256pt" height="256pt" viewBox="0 0 256 256" version="1.1">
<g id="surface2">
<rect x="0" y="0" width="256" height="256" style="fill:rgb(94.901961%,93.72549%,91.372549%);fill-opacity:1;stroke:none;"/>
<path style=" stroke:none;fill-rule:evenodd;fill:rgb(60%,70.196078%,80%);fill-opacity:1;" d="M -4 -4 L 259 -4 L 259 259 L 259 -4 Z M -4 -4 "/>
<path style="fill:none;stroke-width:1;stroke-linecap:round;stroke-linejoin:round;stroke:rgb(70.196078%,77.647059%,83.137255%);stroke-opacity:1;stroke-miterlimit:10;" d="M -4 -4 L 259 -4 L 259 259 L 259 -4 L -4 -4 "/>
<path style="fill:none;stroke-width:1;stroke-linecap:round;stroke-linejoin:round;stroke:rgb(100%,100%,100%);stroke-opacity:1;stroke-dasharray:2,3;stroke-miterlimit:10;" d="M -2 20.75 L 1.648438 24.753906 L 35.746094 73.84375 L 81.671875 134.820313 "/>
<path style="fill:none;stroke-width:1;stroke-linecap:round;stroke-linejoin:round;stroke:rgb(100%,100%,100%);stroke-opacity:1;stroke-dasharray:2,3;stroke-miterlimit:10;" d="M 81.625 -2 L 90.605469 1.953125 L 99.308594 13.003906 L 104.949219 23.351563 L 108.714844 29.703125 L 119.53125 31.582031 L 121.882813 37.695313 L 120 46.632813 L 127.058594 54.15625 L 135.289063 60.746094 L 143.28125 70.621094 L 155.980469 81.4375 L 155.039063 88.492188 L 166.5625 97.429688 L 172.914063 99.542969 L 180.910156 105.421875 L 192.074219 111.945313 L 196.621094 115.316406 L 200.664063 118.121094 L 209.597656 124.238281 L 211.480469 131.292969 L 207.011719 137.875 L 201.605469 141.402344 L 193.371094 139.757813 L 184.671875 133.644531 L 175.5 126.117188 L 164.683594 120.476563 L 156.453125 115.300781 L 141.402344 114.59375 L 135.523438 108.480469 L 123.765625 101.191406 L 108.949219 98.132813 L 100.484375 103.777344 L 94.605469 110.597656 L 86.84375 125.648438 L 81.671875 134.820313 L 81.90625 143.523438 L 74.144531 154.574219 L 76.496094 162.804688 L 80.964844 174.089844 L 77.4375 181.144531 L 80.023438 193.140625 L 75.085938 209.367188 L 72.261719 222.066406 L 75.085938 233.824219 L 77.90625 243.464844 L 76.734375 256.871094 L 76.714844 257 "/>
</g>
</svg>

