<?xml version="1.0" encoding="UTF-8"?>
<svg xmlns="http://www.w3.org/2000/svg" xmlns:xlink="http://www.w3.org/1999/xlink" width="256pt" height="256pt" viewBox="0 0 256 256" version="1.1">
<g id="surface2">
<rect x="0" y="0" width="256" height="256" style="fill:rgb(60%,70.196078%,80%);fill-opacity:1;stroke:none;"/>
<path style=" stroke:none;fill-rule:evenodd;fill:rgb(94.901961%,93.72549%,91.372549%);fill-opacity:1;" d="M 155.996094 259 L 159.691406 253.960938 L 160.820313 243.816406 L 162.980469 241.03125 L 167.421875 238.617188 L 170.824219 233.617188 L 171.054688 230.597656 L 175.222656 225.214844 L 175.90625 207.628906 L 178.421875 195.617188 L 179.332031 192.390625 L 182.421875 191.015625 L 183.222656 185.019531 L 182.296875 181.839844 L 183.824219 176.417969 L 187.820313 171.019531 L 188.390625 164.429688 L 191.621094 159.019531 L 189.363281 153.175781 L 189.550781 151.027344 L 186.222656 141.214844 L 190.914063 135.222656 L 191.222656 118.417969 L 196.300781 65.824219 L 192.421875 41.21875 L 188.621094 28.015625 L 191.621094 15.21875 L 195.023438 9.617188 L 198.222656 -0.582031 L 195.628906 -4 L 192.667969 -4 L 188.023438 5.617188 L 185.621094 4.816406 L 185.355469 -4 L 259 -4 L 259 259 Z M 155.996094 259 "/>
<path style=" stroke:none;fill-rule:evenodd;fill:rgb(94.901961%,93.72549%,91.372549%);fill-opacity:1;" d="M 259 -4 L -4 -4 L 81.765625 -4 L 79.449219 -0.527344 L 77.460938 7.042969 L 76.671875 10.054688 L 72.5 9.117188 L 72.339844 9.800781 L 74.332031 10.214844 L 73.804688 13.035156 L 73.125 16.683594 L 73.9375 17 L 72.226563 21.578125 L 69.84375 32.464844 L 70.558594 32.753906 L 70.28125 34.171875 L 71.410156 38.257813 L 69.941406 58.425781 L 66.597656 59.5 L 63.964844 62.089844 L 61.855469 69.765625 L 63.988281 75.285156 L 58.597656 80.519531 L 62.058594 86.4375 L 57.527344 90.472656 L 66.113281 102.097656 L 65.4375 103.386719 L 64.023438 103.5 L 63.171875 102.464844 L 60.679688 121.316406 L 62.457031 130.113281 L 62.441406 135.835938 L 59.320313 138.839844 L 58.328125 147.808594 L 55.402344 165.070313 L 50.589844 176.273438 L 46.074219 175.957031 L 43.074219 179.761719 L 35.132813 218.75 L 43.082031 222.429688 L 33.035156 259 L -4 259 L -4 -4 Z M 259 -4 "/>
<path style="fill:none;stroke-width:1;stroke-linecap:butt;stroke-linejoin:round;stroke:rgb(46.666667%,46.666667%,46.666667%);stroke-opacity:1;stroke-dasharray:2,2;stroke-miterlimit:10;" d="M 257 88.734375 L 251.414063 96.449219 L 243.402344 107.148438 L 230.410156 125.332031 L 223.128906 135.285156 L 220.621094 139.78125 L 217.714844 145.734375 L 215.972656 150.550781 L 214.335938 156.5 L 213.296875 161.449219 L 212.570313 167.535156 L 212.3125 172.15625 L 212.613281 178.066406 L 213.832031 185.925781 L 215.132813 191.332031 L 216.253906 195.359375 L 218.300781 200.4375 L 220.851563 205.589844 L 223.050781 209.425781 L 226.429688 214.191406 L 229.972656 218.402344 L 232.757813 221.546875 L 237.082031 225.582031 L 241.484375 228.824219 L 245.683594 231.605469 L 250.539063 234.285156 L 254.84375 236.234375 L 257 236.984375 "/>
<path style="fill:none;stroke-width:1;stroke-linecap:butt;stroke-linejoin:round;stroke:rgb(46.666667%,46.666667%,46.666667%);stroke-opacity:1;stroke-dasharray:2,2;stroke-miterlimit:10;" d="M 236.292969 114.996094 L 241.523438 106.644531 L 245.339844 99.953125 L 249.082031 93.582031 "/>
<path style="fill:none;stroke-width:1;stroke-linecap:butt;stroke-linejoin:round;stroke:rgb(46.666667%,46.666667%,46.666667%);stroke-opacity:1;stroke-dasharray:2,2;stroke-miterlimit:10;" d="M 257 238.296875 L 254.570313 237.351563 L 250.136719 235.507813 L 245.171875 232.75 L 236.402344 226.710938 L 232.175781 222.816406 L 228.699219 219.132813 L 225.378906 215.007813 L 222.023438 209.972656 L 219.730469 206.316406 L 217.015625 200.652344 L 215.066406 195.625 L 213.671875 191.210938 L 212.445313 185.964844 L 211.402344 177.953125 L 211.152344 172.246094 L 211.203125 167.316406 L 211.976563 161.496094 L 213.03125 156.421875 L 214.667969 150.351563 L 216.617188 145.34375 L 219.394531 139.476563 L 223.527344 132.46875 L 229.925781 123.765625 L 236.292969 114.996094 L 248.683594 98.097656 L 257 86.632813 "/>
<path style="fill:none;stroke-width:8;stroke-linecap:round;stroke-linejoin:round;stroke:rgb(75.686275%,70.980392%,61.568627%);stroke-opacity:1;stroke-miterlimit:10;" d="M 264 89.871094 L 256.507813 93.550781 L 251.414063 96.449219 L 248.683594 98.097656 L 245.339844 99.953125 L 241.410156 102.117188 L 237.800781 104.097656 L 231.894531 106.867188 L 210.292969 112.265625 "/>
<path style="fill:none;stroke-width:6;stroke-linecap:round;stroke-linejoin:round;stroke:rgb(100%,100%,100%);stroke-opacity:1;stroke-miterlimit:10;" d="M 264 89.871094 L 256.507813 93.550781 L 251.414063 96.449219 L 248.683594 98.097656 L 245.339844 99.953125 L 241.410156 102.117188 L 237.800781 104.097656 L 231.894531 106.867188 L 210.292969 112.265625 "/>
</g>
</svg>

