<?xml version="1.0" encoding="UTF-8"?>
<svg xmlns="http://www.w3.org/2000/svg" xmlns:xlink="http://www.w3.org/1999/xlink" width="256pt" height="256pt" viewBox="0 0 256 256" version="1.1">
<g id="surface2">
<rect x="0" y="0" width="256" height="256" style="fill:rgb(94.901961%,93.72549%,91.372549%);fill-opacity:1;stroke:none;"/>
<path style=" stroke:none;fill-rule:evenodd;fill:rgb(60%,70.196078%,80%);fill-opacity:1;" d="M -4 -4 L -4 259 L 259 259 L -4 259 Z M -4 -4 "/>
<path style="fill:none;stroke-width:1;stroke-linecap:round;stroke-linejoin:round;stroke:rgb(70.196078%,77.647059%,83.137255%);stroke-opacity:1;stroke-miterlimit:10;" d="M -4 -4 L -4 259 L 259 259 L -4 259 L -4 -4 "/>
<path style=" stroke:none;fill-rule:evenodd;fill:rgb(60%,70.196078%,80%);fill-opacity:1;" d="M 167.152344 -4 L 169.304688 -0.65625 L 188.304688 3.34375 L 202.304688 1.34375 L 220.300781 3.34375 L 230.304688 5.34375 L 247.304688 6.34375 L 259 4.394531 L 259 -4 Z M 167.152344 -4 "/>
<path style="fill:none;stroke-width:1;stroke-linecap:round;stroke-linejoin:round;stroke:rgb(70.196078%,77.647059%,83.137255%);stroke-opacity:1;stroke-miterlimit:10;" d="M 167.152344 -4 L 169.304688 -0.65625 L 188.304688 3.34375 L 202.304688 1.34375 L 220.300781 3.34375 L 230.304688 5.34375 L 247.304688 6.34375 L 259 4.394531 L 259 -4 L 167.152344 -4 "/>
<path style="fill:none;stroke-width:2;stroke-linecap:round;stroke-linejoin:round;stroke:rgb(60%,70.196078%,80%);stroke-opacity:1;stroke-miterlimit:10;" d="M 258 162.601563 L 256.414063 162.78125 L 249.414063 165.78125 L 241.410156 176.78125 L 237.414063 189.78125 L 232.414063 200.78125 L 225.414063 205.78125 L 215.410156 211.78125 L 196.414063 206.78125 L 187.410156 214.78125 L 181.410156 226.78125 L 174.410156 231.78125 L 166.414063 249.78125 L 161.273438 258 "/>
<path style="fill:none;stroke-width:1;stroke-linecap:round;stroke-linejoin:round;stroke:rgb(100%,100%,100%);stroke-opacity:1;stroke-dasharray:2,3;stroke-miterlimit:10;" d="M 63.75 257 L 46.414063 245.78125 L 29.414063 245.78125 L 13.410156 220.78125 L 1.414063 210.78125 "/>
</g>
</svg>

