<?xml version="1.0" encoding="UTF-8"?>
<svg xmlns="http://www.w3.org/2000/svg" xmlns:xlink="http://www.w3.org/1999/xlink" width="256pt" height="256pt" viewBox="0 0 256 256" version="1.1">
<g id="surface2">
<rect x="0" y="0" width="256" height="256" style="fill:rgb(94.901961%,93.72549%,91.372549%);fill-opacity:1;stroke:none;"/>
<path style=" stroke:none;fill-rule:evenodd;fill:rgb(81.960784%,81.960784%,81.960784%);fill-opacity:1;" d="M 259.464844 102.351563 L 260 98.417969 L 260 -2.070313 L 247.1875 -4 L 237.589844 -4 L 231.09375 40.261719 L 194.171875 35.761719 L 188.441406 90.300781 Z M 259.464844 102.351563 "/>
<path style=" stroke:none;fill-rule:evenodd;fill:rgb(87.058824%,81.960784%,67.058824%);fill-opacity:1;" d="M -4 194.671875 L 20.78125 222.34375 L 30.84375 214.191406 L 36.980469 204.734375 L 36.277344 197.589844 L 31.445313 190.949219 L 18.96875 177.464844 L 14.039063 175.050781 L 8.90625 175.050781 L 2.867188 177.867188 L -4 183.890625 Z M -4 194.671875 "/>
<path style=" stroke:none;fill-rule:evenodd;fill:rgb(87.058824%,81.960784%,67.058824%);fill-opacity:1;" d="M -4 258.695313 L -3.128906 260 L 32.0625 260 L 34.824219 254.753906 L 17.65625 234.574219 L 13.09375 234.574219 L -4 249.089844 Z M -4 258.695313 "/>
<path style=" stroke:none;fill-rule:evenodd;fill:rgb(87.058824%,81.960784%,67.058824%);fill-opacity:1;" d="M 17.964844 229.394531 L 24.230469 237.046875 L 29.410156 242.074219 L 37.375 245.789063 L 42.171875 245.707031 L 47.042969 244.242188 L 60.574219 235.734375 L 48.898438 215.703125 L 44.105469 210.371094 L 41.628906 210.289063 L 38.921875 212.917969 L 22.527344 224.90625 Z M 17.964844 229.394531 "/>
<path style=" stroke:none;fill-rule:evenodd;fill:rgb(87.058824%,81.960784%,67.058824%);fill-opacity:1;" d="M -4 143.574219 L -1.226563 142.660156 L -1.929688 140.847656 L 6.421875 138.332031 L 3.203125 128.875 L -4 130.910156 Z M -4 143.574219 "/>
<path style="fill:none;stroke-width:8;stroke-linecap:round;stroke-linejoin:round;stroke:rgb(75.686275%,70.980392%,61.568627%);stroke-opacity:1;stroke-miterlimit:10;" d="M 234.308594 50.96875 L 231.320313 70.011719 "/>
<path style="fill:none;stroke-width:8;stroke-linecap:round;stroke-linejoin:round;stroke:rgb(75.686275%,70.980392%,61.568627%);stroke-opacity:1;stroke-miterlimit:10;" d="M 244.113281 72.03125 L 231.320313 70.011719 L 204.773438 65.8125 "/>
<path style="fill:none;stroke-width:8;stroke-linecap:round;stroke-linejoin:round;stroke:rgb(75.686275%,70.980392%,61.568627%);stroke-opacity:1;stroke-miterlimit:10;" d="M 203.171875 76.734375 L 207.777344 77.59375 L 209.621094 77.199219 L 210.691406 75.742188 L 211.46875 74.484375 L 236.339844 78.253906 L 236.925781 79.445313 L 237.507813 80.96875 L 244.324219 82.734375 "/>
<path style="fill:none;stroke-width:8;stroke-linecap:round;stroke-linejoin:round;stroke:rgb(75.686275%,70.980392%,61.568627%);stroke-opacity:1;stroke-miterlimit:10;" d="M 264 54.894531 L 261.308594 55.289063 L 259.125 54.957031 L 248.292969 52.707031 L 247.097656 52.539063 L 244.695313 52.507813 L 234.308594 50.96875 L 211.128906 47.542969 L 209.671875 47.605469 L 208.507813 48.269531 L 207.386719 49.199219 L 206.949219 50.984375 L 204.773438 65.8125 L 203.171875 76.734375 L 201.121094 90.703125 "/>
<path style="fill:none;stroke-width:8;stroke-linecap:round;stroke-linejoin:round;stroke:rgb(75.686275%,70.980392%,61.568627%);stroke-opacity:1;stroke-miterlimit:10;" d="M 255.8125 -4.710938 L 247.097656 52.539063 L 244.113281 72.03125 L 244.601563 74.679688 L 244.601563 79.710938 L 244.324219 82.734375 L 242.171875 106.585938 "/>
<path style="fill:none;stroke-width:10;stroke-linecap:round;stroke-linejoin:round;stroke:rgb(72.941176%,43.137255%,15.294118%);stroke-opacity:1;stroke-miterlimit:10;" d="M 35.03125 31.023438 L 21.984375 5.097656 L 20.507813 1.90625 L 19.417969 -0.917969 L 18.304688 -3.816406 L 17.648438 -5.898438 L 17.082031 -7.988281 L 16.363281 -11 "/>
<path style="fill:none;stroke-width:10;stroke-linecap:round;stroke-linejoin:round;stroke:rgb(72.941176%,43.137255%,15.294118%);stroke-opacity:1;stroke-miterlimit:10;" d="M 1.09375 -11 L 17.394531 15.054688 L 30.121094 32.351563 "/>
<path style="fill:none;stroke-width:8;stroke-linecap:round;stroke-linejoin:round;stroke:rgb(75.686275%,70.980392%,61.568627%);stroke-opacity:1;stroke-miterlimit:10;" d="M 111.757813 222.390625 L 111.152344 219.503906 L 109.921875 216.605469 L 107.792969 215.992188 L 106.335938 217.367188 L 105.660156 219.8125 L 106.671875 220.574219 L 111.757813 222.390625 "/>
<path style="fill:none;stroke-width:8;stroke-linecap:round;stroke-linejoin:round;stroke:rgb(75.686275%,70.980392%,61.568627%);stroke-opacity:1;stroke-miterlimit:10;" d="M 105.304688 260.273438 L 97.054688 237.921875 "/>
<path style="fill:none;stroke-width:8;stroke-linecap:round;stroke-linejoin:round;stroke:rgb(75.686275%,70.980392%,61.568627%);stroke-opacity:1;stroke-miterlimit:10;" d="M 106.691406 160.480469 L 107.382813 156.875 L 104.851563 153.429688 L 101.746094 152.957031 L 99.5625 155.152344 L 99.101563 159.699219 L 101.746094 161.734375 L 104.390625 161.578125 L 106.691406 160.480469 "/>
<path style="fill:none;stroke-width:8;stroke-linecap:round;stroke-linejoin:round;stroke:rgb(75.686275%,70.980392%,61.568627%);stroke-opacity:1;stroke-miterlimit:10;" d="M -8.871094 27.433594 L -6.84375 25.347656 L -3.84375 22.246094 L -0.03125 18.234375 L -0.550781 16.425781 L -1.898438 14.867188 L -3.765625 13.738281 L -5.425781 14.375 L -6.984375 15.859375 L -7.554688 18.050781 L -8.871094 27.433594 "/>
<path style="fill:none;stroke-width:8;stroke-linecap:round;stroke-linejoin:round;stroke:rgb(75.686275%,70.980392%,61.568627%);stroke-opacity:1;stroke-miterlimit:10;" d="M 161.683594 -9 L 157.925781 18.332031 "/>
<path style="fill:none;stroke-width:8;stroke-linecap:round;stroke-linejoin:round;stroke:rgb(75.686275%,70.980392%,61.568627%);stroke-opacity:1;stroke-miterlimit:10;" d="M 143.890625 18.632813 L 157.925781 18.332031 L 180.867188 21.558594 "/>
<path style="fill:none;stroke-width:8;stroke-linecap:round;stroke-linejoin:round;stroke:rgb(75.686275%,70.980392%,61.568627%);stroke-opacity:1;stroke-miterlimit:10;" d="M 40.621094 -9 L 32.125 -4.867188 L 30.128906 -3.382813 L 29.753906 -0.878906 L 31 1.121094 L 33.121094 1.992188 L 35.121094 2.121094 L 37.15625 1.167969 L 38.496094 -0.878906 L 40.78125 -4.457031 L 42.121094 -7.753906 L 42.617188 -9 "/>
<path style="fill:none;stroke-width:8;stroke-linecap:round;stroke-linejoin:round;stroke:rgb(75.686275%,70.980392%,61.568627%);stroke-opacity:1;stroke-miterlimit:10;" d="M 244.941406 264 L 249.355469 236.335938 "/>
<path style="fill:none;stroke-width:8;stroke-linecap:round;stroke-linejoin:round;stroke:rgb(75.686275%,70.980392%,61.568627%);stroke-opacity:1;stroke-miterlimit:10;" d="M 264 180.011719 L 217.136719 170.859375 "/>
<path style="fill:none;stroke-width:8;stroke-linecap:round;stroke-linejoin:round;stroke:rgb(75.686275%,70.980392%,61.568627%);stroke-opacity:1;stroke-miterlimit:10;" d="M 113.492188 88.582031 L 121.871094 99.148438 L 154.144531 122.484375 L 173.652344 141.207031 "/>
<path style="fill:none;stroke-width:8;stroke-linecap:round;stroke-linejoin:round;stroke:rgb(75.686275%,70.980392%,61.568627%);stroke-opacity:1;stroke-miterlimit:10;" d="M 143.890625 18.632813 L 140.976563 52.253906 L 138.695313 60.511719 L 121.871094 99.148438 "/>
<path style="fill:none;stroke-width:8;stroke-linecap:round;stroke-linejoin:round;stroke:rgb(75.686275%,70.980392%,61.568627%);stroke-opacity:1;stroke-miterlimit:10;" d="M 180.867188 21.558594 L 170.476563 82.863281 L 154.144531 122.484375 "/>
<path style="fill:none;stroke-width:8;stroke-linecap:round;stroke-linejoin:round;stroke:rgb(75.686275%,70.980392%,61.568627%);stroke-opacity:1;stroke-miterlimit:10;" d="M 171.691406 264 L 171.371094 259.191406 L 169.617188 255.386719 L 165.875 252.039063 L 160.085938 246.6875 L 147.878906 237.703125 L 133.886719 231.917969 L 111.757813 222.390625 "/>
<path style="fill:none;stroke-width:8;stroke-linecap:round;stroke-linejoin:round;stroke:rgb(75.686275%,70.980392%,61.568627%);stroke-opacity:1;stroke-miterlimit:10;" d="M 155.492188 264 L 158.324219 261.792969 L 165.875 252.039063 L 174.460938 241.945313 L 187.347656 228.816406 L 189.703125 224.542969 L 190.371094 217.519531 L 188.917969 210.804688 L 183.089844 200.726563 L 175.003906 194.796875 L 149.703125 185.550781 L 121.757813 171.917969 L 106.691406 160.480469 "/>
<path style="fill:none;stroke-width:9;stroke-linecap:round;stroke-linejoin:round;stroke:rgb(75.686275%,70.980392%,61.568627%);stroke-opacity:1;stroke-miterlimit:10;" d="M -10 48.988281 L 4.128906 37.734375 L 16.726563 27.730469 "/>
<path style="fill:none;stroke-width:9;stroke-linecap:round;stroke-linejoin:round;stroke:rgb(75.686275%,70.980392%,61.568627%);stroke-opacity:1;stroke-miterlimit:10;" d="M 37.128906 13.53125 L 51.527344 5.730469 L 68.328125 -2.066406 L 83.925781 -7.667969 L 91.875 -10 M 222.085938 -10 L 255.8125 -4.710938 L 265 -3.371094 "/>
<path style="fill:none;stroke-width:11;stroke-linecap:round;stroke-linejoin:round;stroke:rgb(72.941176%,43.137255%,15.294118%);stroke-opacity:1;stroke-miterlimit:10;" d="M 4.695313 -12 L 8.375 -4.914063 L 13.105469 3.855469 L 17.179688 11.304688 L 21.640625 18.855469 L 25.753906 25.625 L 30.121094 32.351563 "/>
<path style="fill:none;stroke-width:11;stroke-linecap:round;stroke-linejoin:round;stroke:rgb(72.941176%,43.137255%,15.294118%);stroke-opacity:1;stroke-miterlimit:10;" d="M 35.03125 31.023438 L 30.140625 23.289063 L 25.398438 15.585938 L 22.789063 11.15625 L 20.316406 6.753906 L 17.082031 0.90625 L 12.109375 -8.289063 L 10.238281 -12 "/>
<path style="fill:none;stroke-width:11;stroke-linecap:round;stroke-linejoin:round;stroke:rgb(72.941176%,43.137255%,15.294118%);stroke-opacity:1;stroke-miterlimit:10;" d="M 267 228.859375 L 165.105469 161.113281 L 151.660156 151.882813 L 142.855469 145.574219 L 134.25 138.933594 L 126.515625 132.726563 L 119.238281 126.613281 L 111.691406 120.054688 L 104.4375 113.382813 L 96.011719 105.246094 L 87.753906 96.792969 L 79.523438 88.242188 L 71.597656 79.324219 L 64.414063 70.984375 L 57.617188 62.550781 L 51.449219 54.503906 L 45.367188 46.1875 L 40.089844 38.625 L 35.03125 31.023438 "/>
<path style="fill:none;stroke-width:11;stroke-linecap:round;stroke-linejoin:round;stroke:rgb(72.941176%,43.137255%,15.294118%);stroke-opacity:1;stroke-miterlimit:10;" d="M 30.121094 32.351563 L 35.394531 40.3125 L 41.257813 48.765625 L 47.277344 57.085938 L 53.589844 65.273438 L 60.304688 73.574219 L 67.039063 81.492188 L 74.6875 90.128906 L 82.773438 98.75 L 89.929688 106.070313 L 93.222656 109.378906 L 97.402344 113.414063 L 105.824219 121.269531 L 113.519531 128.234375 L 122.191406 135.457031 L 130.886719 142.484375 L 140.550781 149.839844 L 149.976563 156.714844 L 158.117188 162.289063 L 170.125 170.378906 L 267 234.769531 "/>
<path style="fill:none;stroke-width:6;stroke-linecap:round;stroke-linejoin:round;stroke:rgb(100%,100%,100%);stroke-opacity:1;stroke-miterlimit:10;" d="M 234.308594 50.96875 L 231.320313 70.011719 "/>
<path style="fill:none;stroke-width:6;stroke-linecap:round;stroke-linejoin:round;stroke:rgb(100%,100%,100%);stroke-opacity:1;stroke-miterlimit:10;" d="M 244.113281 72.03125 L 231.320313 70.011719 L 204.773438 65.8125 "/>
<path style="fill:none;stroke-width:6;stroke-linecap:round;stroke-linejoin:round;stroke:rgb(100%,100%,100%);stroke-opacity:1;stroke-miterlimit:10;" d="M 203.171875 76.734375 L 207.777344 77.59375 L 209.621094 77.199219 L 210.691406 75.742188 L 211.46875 74.484375 L 236.339844 78.253906 L 236.925781 79.445313 L 237.507813 80.96875 L 244.324219 82.734375 "/>
<path style="fill:none;stroke-width:6;stroke-linecap:round;stroke-linejoin:round;stroke:rgb(100%,100%,100%);stroke-opacity:1;stroke-miterlimit:10;" d="M 264 54.894531 L 261.308594 55.289063 L 259.125 54.957031 L 248.292969 52.707031 L 247.097656 52.539063 L 244.695313 52.507813 L 234.308594 50.96875 L 211.128906 47.542969 L 209.671875 47.605469 L 208.507813 48.269531 L 207.386719 49.199219 L 206.949219 50.984375 L 204.773438 65.8125 L 203.171875 76.734375 L 201.121094 90.703125 "/>
<path style="fill:none;stroke-width:6;stroke-linecap:round;stroke-linejoin:round;stroke:rgb(100%,100%,100%);stroke-opacity:1;stroke-miterlimit:10;" d="M 255.8125 -4.710938 L 247.097656 52.539063 L 244.113281 72.03125 L 244.601563 74.679688 L 244.601563 79.710938 L 244.324219 82.734375 L 242.171875 106.585938 "/>
<path style="fill:none;stroke-width:8;stroke-linecap:round;stroke-linejoin:round;stroke:rgb(99.215686%,57.254902%,22.745098%);stroke-opacity:1;stroke-miterlimit:10;" d="M 35.03125 31.023438 L 21.984375 5.097656 L 20.507813 1.90625 L 19.417969 -0.917969 L 18.304688 -3.816406 L 17.648438 -5.898438 L 17.082031 -7.988281 L 16.363281 -11 "/>
<path style="fill:none;stroke-width:8;stroke-linecap:round;stroke-linejoin:round;stroke:rgb(99.215686%,57.254902%,22.745098%);stroke-opacity:1;stroke-miterlimit:10;" d="M 1.09375 -11 L 17.394531 15.054688 L 30.121094 32.351563 "/>
<path style="fill:none;stroke-width:6;stroke-linecap:round;stroke-linejoin:round;stroke:rgb(100%,100%,100%);stroke-opacity:1;stroke-miterlimit:10;" d="M 111.757813 222.390625 L 111.152344 219.503906 L 109.921875 216.605469 L 107.792969 215.992188 L 106.335938 217.367188 L 105.660156 219.8125 L 106.671875 220.574219 L 111.757813 222.390625 "/>
<path style="fill:none;stroke-width:6;stroke-linecap:round;stroke-linejoin:round;stroke:rgb(100%,100%,100%);stroke-opacity:1;stroke-miterlimit:10;" d="M 105.304688 260.273438 L 97.054688 237.921875 "/>
<path style="fill:none;stroke-width:6;stroke-linecap:round;stroke-linejoin:round;stroke:rgb(100%,100%,100%);stroke-opacity:1;stroke-miterlimit:10;" d="M 106.691406 160.480469 L 107.382813 156.875 L 104.851563 153.429688 L 101.746094 152.957031 L 99.5625 155.152344 L 99.101563 159.699219 L 101.746094 161.734375 L 104.390625 161.578125 L 106.691406 160.480469 "/>
<path style="fill:none;stroke-width:6;stroke-linecap:round;stroke-linejoin:round;stroke:rgb(100%,100%,100%);stroke-opacity:1;stroke-miterlimit:10;" d="M -8.871094 27.433594 L -6.84375 25.347656 L -3.84375 22.246094 L -0.03125 18.234375 L -0.550781 16.425781 L -1.898438 14.867188 L -3.765625 13.738281 L -5.425781 14.375 L -6.984375 15.859375 L -7.554688 18.050781 L -8.871094 27.433594 "/>
<path style="fill:none;stroke-width:6;stroke-linecap:round;stroke-linejoin:round;stroke:rgb(100%,100%,100%);stroke-opacity:1;stroke-miterlimit:10;" d="M 161.683594 -9 L 157.925781 18.332031 "/>
<path style="fill:none;stroke-width:6;stroke-linecap:round;stroke-linejoin:round;stroke:rgb(100%,100%,100%);stroke-opacity:1;stroke-miterlimit:10;" d="M 143.890625 18.632813 L 157.925781 18.332031 L 180.867188 21.558594 "/>
<path style="fill:none;stroke-width:6;stroke-linecap:round;stroke-linejoin:round;stroke:rgb(100%,100%,100%);stroke-opacity:1;stroke-miterlimit:10;" d="M 40.621094 -9 L 32.125 -4.867188 L 30.128906 -3.382813 L 29.753906 -0.878906 L 31 1.121094 L 33.121094 1.992188 L 35.121094 2.121094 L 37.15625 1.167969 L 38.496094 -0.878906 L 40.78125 -4.457031 L 42.121094 -7.753906 L 42.617188 -9 "/>
<path style="fill:none;stroke-width:6;stroke-linecap:round;stroke-linejoin:round;stroke:rgb(100%,100%,100%);stroke-opacity:1;stroke-miterlimit:10;" d="M 244.941406 264 L 249.355469 236.335938 "/>
<path style="fill:none;stroke-width:6;stroke-linecap:round;stroke-linejoin:round;stroke:rgb(100%,100%,100%);stroke-opacity:1;stroke-miterlimit:10;" d="M 264 180.011719 L 217.136719 170.859375 "/>
<path style="fill:none;stroke-width:6;stroke-linecap:round;stroke-linejoin:round;stroke:rgb(100%,100%,100%);stroke-opacity:1;stroke-miterlimit:10;" d="M 113.492188 88.582031 L 121.871094 99.148438 L 154.144531 122.484375 L 173.652344 141.207031 "/>
<path style="fill:none;stroke-width:6;stroke-linecap:round;stroke-linejoin:round;stroke:rgb(100%,100%,100%);stroke-opacity:1;stroke-miterlimit:10;" d="M 143.890625 18.632813 L 140.976563 52.253906 L 138.695313 60.511719 L 121.871094 99.148438 "/>
<path style="fill:none;stroke-width:6;stroke-linecap:round;stroke-linejoin:round;stroke:rgb(100%,100%,100%);stroke-opacity:1;stroke-miterlimit:10;" d="M 180.867188 21.558594 L 170.476563 82.863281 L 154.144531 122.484375 "/>
<path style="fill:none;stroke-width:6;stroke-linecap:round;stroke-linejoin:round;stroke:rgb(100%,100%,100%);stroke-opacity:1;stroke-miterlimit:10;" d="M 171.691406 264 L 171.371094 259.191406 L 169.617188 255.386719 L 165.875 252.039063 L 160.085938 246.6875 L 147.878906 237.703125 L 133.886719 231.917969 L 111.757813 222.390625 "/>
<path style="fill:none;stroke-width:6;stroke-linecap:round;stroke-linejoin:round;stroke:rgb(100%,100%,100%);stroke-opacity:1;stroke-miterlimit:10;" d="M 155.492188 264 L 158.324219 261.792969 L 165.875 252.039063 L 174.460938 241.945313 L 187.347656 228.816406 L 189.703125 224.542969 L 190.371094 217.519531 L 188.917969 210.804688 L 183.089844 200.726563 L 175.003906 194.796875 L 149.703125 185.550781 L 121.757813 171.917969 L 106.691406 160.480469 "/>
<path style="fill:none;stroke-width:7;stroke-linecap:round;stroke-linejoin:round;stroke:rgb(100%,99.215686%,54.509804%);stroke-opacity:1;stroke-miterlimit:10;" d="M -10 48.988281 L 4.128906 37.734375 L 16.726563 27.730469 "/>
<path style="fill:none;stroke-width:7;stroke-linecap:round;stroke-linejoin:round;stroke:rgb(100%,99.215686%,54.509804%);stroke-opacity:1;stroke-miterlimit:10;" d="M 37.128906 13.53125 L 51.527344 5.730469 L 68.328125 -2.066406 L 83.925781 -7.667969 L 91.875 -10 M 222.085938 -10 L 255.8125 -4.710938 L 265 -3.371094 "/>
<path style="fill:none;stroke-width:9;stroke-linecap:round;stroke-linejoin:round;stroke:rgb(99.215686%,57.254902%,22.745098%);stroke-opacity:1;stroke-miterlimit:10;" d="M 4.695313 -12 L 8.375 -4.914063 L 13.105469 3.855469 L 17.179688 11.304688 L 21.640625 18.855469 L 25.753906 25.625 L 30.121094 32.351563 "/>
<path style="fill:none;stroke-width:9;stroke-linecap:round;stroke-linejoin:round;stroke:rgb(99.215686%,57.254902%,22.745098%);stroke-opacity:1;stroke-miterlimit:10;" d="M 35.03125 31.023438 L 30.140625 23.289063 L 25.398438 15.585938 L 22.789063 11.15625 L 20.316406 6.753906 L 17.082031 0.90625 L 12.109375 -8.289063 L 10.238281 -12 "/>
<path style="fill:none;stroke-width:9;stroke-linecap:round;stroke-linejoin:round;stroke:rgb(99.215686%,57.254902%,22.745098%);stroke-opacity:1;stroke-miterlimit:10;" d="M 267 228.859375 L 165.105469 161.113281 L 151.660156 151.882813 L 142.855469 145.574219 L 134.25 138.933594 L 126.515625 132.726563 L 119.238281 126.613281 L 111.691406 120.054688 L 104.4375 113.382813 L 96.011719 105.246094 L 87.753906 96.792969 L 79.523438 88.242188 L 71.597656 79.324219 L 64.414063 70.984375 L 57.617188 62.550781 L 51.449219 54.503906 L 45.367188 46.1875 L 40.089844 38.625 L 35.03125 31.023438 "/>
<path style="fill:none;stroke-width:9;stroke-linecap:round;stroke-linejoin:round;stroke:rgb(99.215686%,57.254902%,22.745098%);stroke-opacity:1;stroke-miterlimit:10;" d="M 30.121094 32.351563 L 35.394531 40.3125 L 41.257813 48.765625 L 47.277344 57.085938 L 53.589844 65.273438 L 60.304688 73.574219 L 67.039063 81.492188 L 74.6875 90.128906 L 82.773438 98.75 L 89.929688 106.070313 L 93.222656 109.378906 L 97.402344 113.414063 L 105.824219 121.269531 L 113.519531 128.234375 L 122.191406 135.457031 L 130.886719 142.484375 L 140.550781 149.839844 L 149.976563 156.714844 L 158.117188 162.289063 L 170.125 170.378906 L 267 234.769531 "/>
<path style="fill:none;stroke-width:9;stroke-linecap:butt;stroke-linejoin:round;stroke:rgb(53.333333%,53.333333%,53.333333%);stroke-opacity:1;stroke-miterlimit:10;" d="M 16.726563 27.730469 L 25.527344 21.132813 L 37.128906 13.53125 "/>
<path style="fill:none;stroke-width:7;stroke-linecap:round;stroke-linejoin:round;stroke:rgb(100%,99.215686%,54.509804%);stroke-opacity:1;stroke-miterlimit:10;" d="M 16.726563 27.730469 L 25.527344 21.132813 L 37.128906 13.53125 "/>
<path style=" stroke:none;fill-rule:evenodd;fill:rgb(33.333333%,33.333333%,33.333333%);fill-opacity:1;" d="M 131.109375 137.199219 L 132.703125 138.480469 L 127.203125 145.292969 L 125.609375 144.011719 Z M 132.019531 148.765625 L 133.003906 147.484375 C 133.167969 147.808594 133.339844 148.089844 133.519531 148.328125 C 133.707031 148.578125 133.914063 148.789063 134.144531 148.96875 C 134.621094 149.332031 135.105469 149.472656 135.597656 149.390625 C 136.097656 149.304688 136.589844 148.984375 137.082031 148.421875 C 136.769531 148.429688 136.472656 148.390625 136.191406 148.296875 C 135.917969 148.214844 135.660156 148.078125 135.410156 147.890625 C 134.773438 147.402344 134.414063 146.804688 134.332031 146.09375 C 134.257813 145.386719 134.480469 144.695313 135.003906 144.015625 C 135.574219 143.257813 136.246094 142.820313 137.019531 142.703125 C 137.800781 142.578125 138.558594 142.796875 139.300781 143.359375 C 140.121094 143.984375 140.523438 144.777344 140.503906 145.734375 C 140.492188 146.683594 140.058594 147.71875 139.207031 148.84375 C 138.332031 149.988281 137.378906 150.691406 136.347656 150.953125 C 135.316406 151.210938 134.347656 151 133.441406 150.3125 C 133.136719 150.082031 132.871094 149.835938 132.644531 149.578125 C 132.425781 149.328125 132.214844 149.054688 132.019531 148.765625 Z M 136.582031 146.9375 C 136.863281 147.15625 137.148438 147.21875 137.441406 147.125 C 137.730469 147.03125 138.035156 146.78125 138.347656 146.375 C 138.660156 145.96875 138.820313 145.609375 138.832031 145.296875 C 138.851563 144.976563 138.722656 144.703125 138.441406 144.484375 C 138.148438 144.265625 137.851563 144.210938 137.550781 144.3125 C 137.257813 144.417969 136.957031 144.671875 136.644531 145.078125 C 136.332031 145.484375 136.167969 145.84375 136.160156 146.15625 C 136.148438 146.460938 136.289063 146.71875 136.582031 146.9375 Z M 143.691406 152.257813 C 144.335938 151.382813 144.714844 150.710938 144.832031 150.242188 C 144.945313 149.773438 144.832031 149.414063 144.488281 149.164063 C 144.132813 148.90625 143.746094 148.898438 143.332031 149.148438 C 142.914063 149.390625 142.382813 149.945313 141.738281 150.820313 C 141.082031 151.726563 140.691406 152.421875 140.566406 152.898438 C 140.449219 153.375 140.570313 153.746094 140.925781 154.007813 C 141.269531 154.257813 141.648438 154.25 142.066406 153.992188 C 142.492188 153.742188 143.035156 153.164063 143.691406 152.257813 Z M 145.316406 153.492188 C 144.460938 154.65625 143.570313 155.390625 142.644531 155.695313 C 141.726563 155.996094 140.851563 155.84375 140.019531 155.242188 C 139.183594 154.617188 138.773438 153.824219 138.785156 152.867188 C 138.804688 151.898438 139.242188 150.832031 140.097656 149.664063 C 140.960938 148.488281 141.851563 147.75 142.769531 147.445313 C 143.683594 147.132813 144.558594 147.289063 145.394531 147.914063 C 146.226563 148.519531 146.636719 149.304688 146.628906 150.273438 C 146.617188 151.242188 146.179688 152.316406 145.316406 153.492188 Z M 145.316406 153.492188 "/>
<path style="fill:none;stroke-width:3;stroke-linecap:round;stroke-linejoin:round;stroke:rgb(100%,100%,100%);stroke-opacity:1;stroke-miterlimit:10;" d="M 155.644531 108.984375 L 156.613281 109.390625 C 156.300781 109.640625 156.035156 109.902344 155.816406 110.171875 C 155.597656 110.445313 155.433594 110.71875 155.316406 111 C 155.121094 111.492188 155.074219 111.914063 155.175781 112.265625 C 155.28125 112.621094 155.527344 112.875 155.910156 113.03125 C 156.234375 113.167969 156.519531 113.1875 156.769531 113.09375 C 157.011719 112.992188 157.285156 112.710938 157.597656 112.25 L 157.925781 111.75 C 158.34375 111.148438 158.800781 110.757813 159.300781 110.578125 C 159.792969 110.402344 160.339844 110.4375 160.941406 110.6875 C 161.660156 110.980469 162.113281 111.421875 162.300781 112.015625 C 162.496094 112.601563 162.417969 113.308594 162.066406 114.140625 C 161.941406 114.464844 161.761719 114.789063 161.535156 115.109375 C 161.316406 115.421875 161.050781 115.734375 160.738281 116.046875 L 159.707031 115.625 C 160.082031 115.355469 160.402344 115.070313 160.660156 114.765625 C 160.917969 114.464844 161.117188 114.140625 161.253906 113.796875 C 161.472656 113.289063 161.523438 112.851563 161.410156 112.484375 C 161.304688 112.109375 161.042969 111.835938 160.628906 111.65625 C 160.265625 111.511719 159.9375 111.496094 159.644531 111.609375 C 159.355469 111.726563 159.0625 111.992188 158.769531 112.40625 L 158.425781 112.90625 C 158.011719 113.523438 157.582031 113.914063 157.144531 114.078125 C 156.699219 114.246094 156.1875 114.214844 155.613281 113.984375 C 154.96875 113.714844 154.542969 113.296875 154.332031 112.734375 C 154.113281 112.164063 154.15625 111.507813 154.457031 110.765625 C 154.582031 110.453125 154.75 110.152344 154.957031 109.859375 C 155.15625 109.558594 155.386719 109.265625 155.644531 108.984375 Z M 161.695313 106.726563 C 161.414063 107.394531 161.3125 107.894531 161.382813 108.226563 C 161.445313 108.550781 161.679688 108.796875 162.085938 108.960938 C 162.398438 109.085938 162.691406 109.097656 162.960938 108.992188 C 163.230469 108.878906 163.433594 108.660156 163.570313 108.335938 C 163.765625 107.867188 163.742188 107.425781 163.492188 107.007813 C 163.242188 106.582031 162.828125 106.25 162.242188 106.007813 L 162.023438 105.914063 Z M 161.992188 104.929688 L 165.164063 106.242188 L 164.820313 107.070313 L 163.976563 106.726563 C 164.246094 107.050781 164.402344 107.390625 164.445313 107.742188 C 164.484375 108.085938 164.421875 108.460938 164.257813 108.867188 C 164.039063 109.378906 163.703125 109.722656 163.257813 109.898438 C 162.820313 110.066406 162.332031 110.035156 161.789063 109.804688 C 161.164063 109.554688 160.773438 109.175781 160.617188 108.664063 C 160.453125 108.15625 160.523438 107.523438 160.835938 106.773438 L 161.304688 105.617188 L 161.226563 105.585938 C 160.800781 105.410156 160.425781 105.398438 160.101563 105.554688 C 159.769531 105.710938 159.507813 106.015625 159.320313 106.460938 C 159.207031 106.742188 159.132813 107.039063 159.101563 107.351563 C 159.0625 107.65625 159.0625 107.960938 159.101563 108.273438 L 158.273438 107.929688 C 158.265625 107.566406 158.285156 107.234375 158.335938 106.929688 C 158.390625 106.628906 158.472656 106.34375 158.585938 106.070313 C 158.890625 105.34375 159.320313 104.882813 159.882813 104.695313 C 160.4375 104.507813 161.140625 104.585938 161.992188 104.929688 Z M 160.304688 102.261719 L 160.648438 101.433594 L 166.210938 103.730469 L 165.867188 104.558594 Z M 158.132813 101.371094 L 158.476563 100.542969 L 159.632813 101.027344 L 159.289063 101.855469 Z M 165.289063 96.46875 L 168.632813 97.84375 L 168.289063 98.671875 L 164.960938 97.296875 C 164.441406 97.078125 164.015625 97.011719 163.679688 97.09375 C 163.335938 97.179688 163.09375 97.402344 162.945313 97.765625 C 162.757813 98.214844 162.769531 98.632813 162.976563 99.015625 C 163.1875 99.402344 163.554688 99.703125 164.085938 99.921875 L 167.242188 101.21875 L 166.898438 102.046875 L 161.335938 99.75 L 161.679688 98.921875 L 162.554688 99.28125 C 162.285156 98.949219 162.125 98.617188 162.070313 98.28125 C 162.019531 97.949219 162.070313 97.605469 162.226563 97.25 C 162.457031 96.6875 162.832031 96.339844 163.351563 96.203125 C 163.875 96.058594 164.519531 96.148438 165.289063 96.46875 Z M 162.496094 92.457031 L 164.074219 93.097656 L 164.777344 91.410156 L 165.480469 91.707031 L 164.777344 93.394531 L 167.808594 94.644531 C 168.257813 94.832031 168.570313 94.894531 168.746094 94.832031 C 168.925781 94.769531 169.082031 94.566406 169.230469 94.222656 L 169.574219 93.394531 L 170.339844 93.707031 L 169.996094 94.535156 C 169.734375 95.171875 169.417969 95.558594 169.042969 95.691406 C 168.679688 95.816406 168.152344 95.738281 167.464844 95.457031 L 164.433594 94.207031 L 164.183594 94.816406 L 163.480469 94.519531 L 163.730469 93.910156 L 162.152344 93.269531 Z M 164.589844 86.628906 L 164.964844 85.707031 L 171.527344 88.425781 L 172.855469 85.175781 L 173.699219 85.519531 L 171.996094 89.691406 Z M 171.78125 83.460938 L 168.21875 82.710938 L 168.40625 81.835938 L 171.9375 82.585938 C 172.492188 82.703125 172.929688 82.695313 173.25 82.570313 C 173.574219 82.4375 173.777344 82.175781 173.859375 81.789063 C 173.960938 81.3125 173.882813 80.898438 173.609375 80.554688 C 173.328125 80.210938 172.902344 79.976563 172.328125 79.851563 L 168.984375 79.148438 L 169.171875 78.289063 L 175.0625 79.539063 L 174.875 80.398438 L 173.96875 80.210938 C 174.28125 80.503906 174.492188 80.804688 174.609375 81.117188 C 174.722656 81.429688 174.738281 81.773438 174.65625 82.148438 C 174.53125 82.753906 174.222656 83.171875 173.734375 83.398438 C 173.246094 83.617188 172.59375 83.640625 171.78125 83.460938 Z M 168.5625 80.492188 Z M 170.382813 72.769531 L 171.289063 72.925781 C 171.101563 73.15625 170.953125 73.386719 170.835938 73.613281 C 170.710938 73.84375 170.625 74.089844 170.570313 74.347656 C 170.476563 74.921875 170.609375 75.402344 170.960938 75.785156 C 171.304688 76.160156 171.84375 76.410156 172.570313 76.535156 C 173.289063 76.660156 173.878906 76.605469 174.335938 76.363281 C 174.785156 76.113281 175.054688 75.703125 175.148438 75.128906 C 175.203125 74.871094 175.210938 74.609375 175.179688 74.347656 C 175.148438 74.089844 175.078125 73.824219 174.960938 73.550781 L 175.851563 73.691406 C 175.945313 73.972656 175.996094 74.25 176.007813 74.519531 C 176.027344 74.792969 176.011719 75.074219 175.960938 75.363281 C 175.824219 76.175781 175.4375 76.769531 174.804688 77.144531 C 174.160156 77.511719 173.363281 77.613281 172.414063 77.457031 C 171.445313 77.292969 170.726563 76.925781 170.257813 76.363281 C 169.78125 75.792969 169.613281 75.089844 169.757813 74.253906 C 169.800781 73.984375 169.875 73.722656 169.976563 73.472656 C 170.082031 73.222656 170.21875 72.988281 170.382813 72.769531 Z M 170.402344 71.222656 L 170.558594 70.347656 L 176.496094 71.347656 L 176.339844 72.222656 Z M 168.105469 70.832031 L 168.261719 69.957031 L 169.480469 70.160156 L 169.324219 71.035156 Z M 168.5625 68.121094 L 168.71875 67.246094 L 176.953125 68.636719 L 176.796875 69.511719 Z M 169.023438 65.410156 L 169.179688 64.535156 L 177.414063 65.925781 L 177.257813 66.800781 Z M 175.277344 58.980469 L 175.746094 59.058594 L 175.074219 63.089844 C 175.753906 63.164063 176.292969 63.070313 176.699219 62.808594 C 177.105469 62.539063 177.355469 62.117188 177.449219 61.542969 C 177.511719 61.210938 177.523438 60.878906 177.480469 60.542969 C 177.441406 60.210938 177.355469 59.871094 177.230469 59.527344 L 178.136719 59.683594 C 178.238281 60.019531 178.300781 60.355469 178.324219 60.699219 C 178.34375 61.042969 178.328125 61.386719 178.277344 61.730469 C 178.128906 62.585938 177.738281 63.214844 177.105469 63.621094 C 176.472656 64.019531 175.683594 64.132813 174.746094 63.964844 C 173.777344 63.808594 173.050781 63.449219 172.558594 62.886719 C 172.070313 62.316406 171.894531 61.628906 172.027344 60.824219 C 172.152344 60.105469 172.507813 59.585938 173.089844 59.261719 C 173.664063 58.929688 174.394531 58.835938 175.277344 58.980469 Z M 174.839844 59.808594 C 174.308594 59.726563 173.863281 59.789063 173.496094 59.996094 C 173.132813 60.195313 172.914063 60.511719 172.839844 60.949219 C 172.757813 61.441406 172.847656 61.863281 173.105469 62.214844 C 173.367188 62.558594 173.769531 62.800781 174.308594 62.933594 Z M 172.398438 52.796875 L 178.554688 53.828125 L 178.742188 52.671875 C 178.910156 51.683594 178.785156 50.917969 178.367188 50.375 C 177.953125 49.835938 177.210938 49.476563 176.148438 49.296875 C 175.085938 49.121094 174.269531 49.21875 173.695313 49.59375 C 173.125 49.96875 172.753906 50.652344 172.585938 51.640625 Z M 171.351563 53.609375 L 171.695313 51.640625 C 171.925781 50.257813 172.414063 49.296875 173.164063 48.765625 C 173.90625 48.226563 174.957031 48.070313 176.320313 48.296875 C 177.6875 48.527344 178.628906 49.023438 179.148438 49.78125 C 179.679688 50.542969 179.828125 51.609375 179.601563 52.984375 L 179.257813 54.953125 Z M 176.046875 43.527344 C 175.964844 43.621094 175.898438 43.726563 175.84375 43.839844 C 175.792969 43.945313 175.757813 44.066406 175.734375 44.199219 C 175.652344 44.699219 175.765625 45.113281 176.078125 45.433594 C 176.390625 45.757813 176.882813 45.976563 177.546875 46.089844 L 180.671875 46.621094 L 180.53125 47.511719 L 174.59375 46.511719 L 174.734375 45.621094 L 175.671875 45.777344 C 175.339844 45.527344 175.117188 45.242188 175 44.917969 C 174.875 44.597656 174.851563 44.222656 174.921875 43.792969 C 174.933594 43.730469 174.949219 43.664063 174.96875 43.589844 C 174.980469 43.519531 175 43.445313 175.03125 43.371094 Z M 175.273438 42.460938 L 175.429688 41.585938 L 181.367188 42.585938 L 181.210938 43.460938 Z M 172.976563 42.070313 L 173.132813 41.195313 L 174.351563 41.398438 L 174.195313 42.273438 Z M 175.625 40.375 L 175.78125 39.453125 L 181.046875 38.640625 L 176.34375 36.109375 L 176.5 35.1875 L 182.109375 38.1875 L 181.90625 39.375 Z M 180.210938 29.863281 L 180.679688 29.941406 L 180.007813 33.972656 C 180.6875 34.046875 181.226563 33.953125 181.632813 33.691406 C 182.039063 33.421875 182.289063 33 182.382813 32.425781 C 182.445313 32.09375 182.457031 31.761719 182.414063 31.425781 C 182.375 31.09375 182.289063 30.753906 182.164063 30.410156 L 183.070313 30.566406 C 183.171875 30.902344 183.234375 31.238281 183.257813 31.582031 C 183.277344 31.925781 183.261719 32.269531 183.210938 32.613281 C 183.0625 33.46875 182.671875 34.097656 182.039063 34.503906 C 181.40625 34.902344 180.617188 35.015625 179.679688 34.847656 C 178.710938 34.691406 177.984375 34.332031 177.492188 33.769531 C 177.003906 33.199219 176.828125 32.511719 176.960938 31.707031 C 177.085938 30.988281 177.441406 30.46875 178.023438 30.144531 C 178.597656 29.8125 179.328125 29.71875 180.210938 29.863281 Z M 179.773438 30.691406 C 179.242188 30.609375 178.796875 30.671875 178.429688 30.878906 C 178.066406 31.078125 177.847656 31.394531 177.773438 31.832031 C 177.691406 32.324219 177.78125 32.746094 178.039063 33.097656 C 178.300781 33.441406 178.703125 33.683594 179.242188 33.816406 Z M 179.773438 30.691406 "/>
<path style=" stroke:none;fill-rule:evenodd;fill:rgb(20%,20%,20%);fill-opacity:1;" d="M 155.644531 108.984375 L 156.613281 109.390625 C 156.300781 109.640625 156.035156 109.902344 155.816406 110.171875 C 155.597656 110.445313 155.433594 110.71875 155.316406 111 C 155.121094 111.492188 155.074219 111.914063 155.175781 112.265625 C 155.28125 112.621094 155.527344 112.875 155.910156 113.03125 C 156.234375 113.167969 156.519531 113.1875 156.769531 113.09375 C 157.011719 112.992188 157.285156 112.710938 157.597656 112.25 L 157.925781 111.75 C 158.34375 111.148438 158.800781 110.757813 159.300781 110.578125 C 159.792969 110.402344 160.339844 110.4375 160.941406 110.6875 C 161.660156 110.980469 162.113281 111.421875 162.300781 112.015625 C 162.496094 112.601563 162.417969 113.308594 162.066406 114.140625 C 161.941406 114.464844 161.761719 114.789063 161.535156 115.109375 C 161.316406 115.421875 161.050781 115.734375 160.738281 116.046875 L 159.707031 115.625 C 160.082031 115.355469 160.402344 115.070313 160.660156 114.765625 C 160.917969 114.464844 161.117188 114.140625 161.253906 113.796875 C 161.472656 113.289063 161.523438 112.851563 161.410156 112.484375 C 161.304688 112.109375 161.042969 111.835938 160.628906 111.65625 C 160.265625 111.511719 159.9375 111.496094 159.644531 111.609375 C 159.355469 111.726563 159.0625 111.992188 158.769531 112.40625 L 158.425781 112.90625 C 158.011719 113.523438 157.582031 113.914063 157.144531 114.078125 C 156.699219 114.246094 156.1875 114.214844 155.613281 113.984375 C 154.96875 113.714844 154.542969 113.296875 154.332031 112.734375 C 154.113281 112.164063 154.15625 111.507813 154.457031 110.765625 C 154.582031 110.453125 154.75 110.152344 154.957031 109.859375 C 155.15625 109.558594 155.386719 109.265625 155.644531 108.984375 Z M 161.695313 106.726563 C 161.414063 107.394531 161.3125 107.894531 161.382813 108.226563 C 161.445313 108.550781 161.679688 108.796875 162.085938 108.960938 C 162.398438 109.085938 162.691406 109.097656 162.960938 108.992188 C 163.230469 108.878906 163.433594 108.660156 163.570313 108.335938 C 163.765625 107.867188 163.742188 107.425781 163.492188 107.007813 C 163.242188 106.582031 162.828125 106.25 162.242188 106.007813 L 162.023438 105.914063 Z M 161.992188 104.929688 L 165.164063 106.242188 L 164.820313 107.070313 L 163.976563 106.726563 C 164.246094 107.050781 164.402344 107.390625 164.445313 107.742188 C 164.484375 108.085938 164.421875 108.460938 164.257813 108.867188 C 164.039063 109.378906 163.703125 109.722656 163.257813 109.898438 C 162.820313 110.066406 162.332031 110.035156 161.789063 109.804688 C 161.164063 109.554688 160.773438 109.175781 160.617188 108.664063 C 160.453125 108.15625 160.523438 107.523438 160.835938 106.773438 L 161.304688 105.617188 L 161.226563 105.585938 C 160.800781 105.410156 160.425781 105.398438 160.101563 105.554688 C 159.769531 105.710938 159.507813 106.015625 159.320313 106.460938 C 159.207031 106.742188 159.132813 107.039063 159.101563 107.351563 C 159.0625 107.65625 159.0625 107.960938 159.101563 108.273438 L 158.273438 107.929688 C 158.265625 107.566406 158.285156 107.234375 158.335938 106.929688 C 158.390625 106.628906 158.472656 106.34375 158.585938 106.070313 C 158.890625 105.34375 159.320313 104.882813 159.882813 104.695313 C 160.4375 104.507813 161.140625 104.585938 161.992188 104.929688 Z M 160.304688 102.261719 L 160.648438 101.433594 L 166.210938 103.730469 L 165.867188 104.558594 Z M 158.132813 101.371094 L 158.476563 100.542969 L 159.632813 101.027344 L 159.289063 101.855469 Z M 165.289063 96.46875 L 168.632813 97.84375 L 168.289063 98.671875 L 164.960938 97.296875 C 164.441406 97.078125 164.015625 97.011719 163.679688 97.09375 C 163.335938 97.179688 163.09375 97.402344 162.945313 97.765625 C 162.757813 98.214844 162.769531 98.632813 162.976563 99.015625 C 163.1875 99.402344 163.554688 99.703125 164.085938 99.921875 L 167.242188 101.21875 L 166.898438 102.046875 L 161.335938 99.75 L 161.679688 98.921875 L 162.554688 99.28125 C 162.285156 98.949219 162.125 98.617188 162.070313 98.28125 C 162.019531 97.949219 162.070313 97.605469 162.226563 97.25 C 162.457031 96.6875 162.832031 96.339844 163.351563 96.203125 C 163.875 96.058594 164.519531 96.148438 165.289063 96.46875 Z M 162.496094 92.457031 L 164.074219 93.097656 L 164.777344 91.410156 L 165.480469 91.707031 L 164.777344 93.394531 L 167.808594 94.644531 C 168.257813 94.832031 168.570313 94.894531 168.746094 94.832031 C 168.925781 94.769531 169.082031 94.566406 169.230469 94.222656 L 169.574219 93.394531 L 170.339844 93.707031 L 169.996094 94.535156 C 169.734375 95.171875 169.417969 95.558594 169.042969 95.691406 C 168.679688 95.816406 168.152344 95.738281 167.464844 95.457031 L 164.433594 94.207031 L 164.183594 94.816406 L 163.480469 94.519531 L 163.730469 93.910156 L 162.152344 93.269531 Z M 164.589844 86.628906 L 164.964844 85.707031 L 171.527344 88.425781 L 172.855469 85.175781 L 173.699219 85.519531 L 171.996094 89.691406 Z M 171.78125 83.460938 L 168.21875 82.710938 L 168.40625 81.835938 L 171.9375 82.585938 C 172.492188 82.703125 172.929688 82.695313 173.25 82.570313 C 173.574219 82.4375 173.777344 82.175781 173.859375 81.789063 C 173.960938 81.3125 173.882813 80.898438 173.609375 80.554688 C 173.328125 80.210938 172.902344 79.976563 172.328125 79.851563 L 168.984375 79.148438 L 169.171875 78.289063 L 175.0625 79.539063 L 174.875 80.398438 L 173.96875 80.210938 C 174.28125 80.503906 174.492188 80.804688 174.609375 81.117188 C 174.722656 81.429688 174.738281 81.773438 174.65625 82.148438 C 174.53125 82.753906 174.222656 83.171875 173.734375 83.398438 C 173.246094 83.617188 172.59375 83.640625 171.78125 83.460938 Z M 168.5625 80.492188 Z M 170.382813 72.769531 L 171.289063 72.925781 C 171.101563 73.15625 170.953125 73.386719 170.835938 73.613281 C 170.710938 73.84375 170.625 74.089844 170.570313 74.347656 C 170.476563 74.921875 170.609375 75.402344 170.960938 75.785156 C 171.304688 76.160156 171.84375 76.410156 172.570313 76.535156 C 173.289063 76.660156 173.878906 76.605469 174.335938 76.363281 C 174.785156 76.113281 175.054688 75.703125 175.148438 75.128906 C 175.203125 74.871094 175.210938 74.609375 175.179688 74.347656 C 175.148438 74.089844 175.078125 73.824219 174.960938 73.550781 L 175.851563 73.691406 C 175.945313 73.972656 175.996094 74.25 176.007813 74.519531 C 176.027344 74.792969 176.011719 75.074219 175.960938 75.363281 C 175.824219 76.175781 175.4375 76.769531 174.804688 77.144531 C 174.160156 77.511719 173.363281 77.613281 172.414063 77.457031 C 171.445313 77.292969 170.726563 76.925781 170.257813 76.363281 C 169.78125 75.792969 169.613281 75.089844 169.757813 74.253906 C 169.800781 73.984375 169.875 73.722656 169.976563 73.472656 C 170.082031 73.222656 170.21875 72.988281 170.382813 72.769531 Z M 170.402344 71.222656 L 170.558594 70.347656 L 176.496094 71.347656 L 176.339844 72.222656 Z M 168.105469 70.832031 L 168.261719 69.957031 L 169.480469 70.160156 L 169.324219 71.035156 Z M 168.5625 68.121094 L 168.71875 67.246094 L 176.953125 68.636719 L 176.796875 69.511719 Z M 169.023438 65.410156 L 169.179688 64.535156 L 177.414063 65.925781 L 177.257813 66.800781 Z M 175.277344 58.980469 L 175.746094 59.058594 L 175.074219 63.089844 C 175.753906 63.164063 176.292969 63.070313 176.699219 62.808594 C 177.105469 62.539063 177.355469 62.117188 177.449219 61.542969 C 177.511719 61.210938 177.523438 60.878906 177.480469 60.542969 C 177.441406 60.210938 177.355469 59.871094 177.230469 59.527344 L 178.136719 59.683594 C 178.238281 60.019531 178.300781 60.355469 178.324219 60.699219 C 178.34375 61.042969 178.328125 61.386719 178.277344 61.730469 C 178.128906 62.585938 177.738281 63.214844 177.105469 63.621094 C 176.472656 64.019531 175.683594 64.132813 174.746094 63.964844 C 173.777344 63.808594 173.050781 63.449219 172.558594 62.886719 C 172.070313 62.316406 171.894531 61.628906 172.027344 60.824219 C 172.152344 60.105469 172.507813 59.585938 173.089844 59.261719 C 173.664063 58.929688 174.394531 58.835938 175.277344 58.980469 Z M 174.839844 59.808594 C 174.308594 59.726563 173.863281 59.789063 173.496094 59.996094 C 173.132813 60.195313 172.914063 60.511719 172.839844 60.949219 C 172.757813 61.441406 172.847656 61.863281 173.105469 62.214844 C 173.367188 62.558594 173.769531 62.800781 174.308594 62.933594 Z M 172.398438 52.796875 L 178.554688 53.828125 L 178.742188 52.671875 C 178.910156 51.683594 178.785156 50.917969 178.367188 50.375 C 177.953125 49.835938 177.210938 49.476563 176.148438 49.296875 C 175.085938 49.121094 174.269531 49.21875 173.695313 49.59375 C 173.125 49.96875 172.753906 50.652344 172.585938 51.640625 Z M 171.351563 53.609375 L 171.695313 51.640625 C 171.925781 50.257813 172.414063 49.296875 173.164063 48.765625 C 173.90625 48.226563 174.957031 48.070313 176.320313 48.296875 C 177.6875 48.527344 178.628906 49.023438 179.148438 49.78125 C 179.679688 50.542969 179.828125 51.609375 179.601563 52.984375 L 179.257813 54.953125 Z M 176.046875 43.527344 C 175.964844 43.621094 175.898438 43.726563 175.84375 43.839844 C 175.792969 43.945313 175.757813 44.066406 175.734375 44.199219 C 175.652344 44.699219 175.765625 45.113281 176.078125 45.433594 C 176.390625 45.757813 176.882813 45.976563 177.546875 46.089844 L 180.671875 46.621094 L 180.53125 47.511719 L 174.59375 46.511719 L 174.734375 45.621094 L 175.671875 45.777344 C 175.339844 45.527344 175.117188 45.242188 175 44.917969 C 174.875 44.597656 174.851563 44.222656 174.921875 43.792969 C 174.933594 43.730469 174.949219 43.664063 174.96875 43.589844 C 174.980469 43.519531 175 43.445313 175.03125 43.371094 Z M 175.273438 42.460938 L 175.429688 41.585938 L 181.367188 42.585938 L 181.210938 43.460938 Z M 172.976563 42.070313 L 173.132813 41.195313 L 174.351563 41.398438 L 174.195313 42.273438 Z M 175.625 40.375 L 175.78125 39.453125 L 181.046875 38.640625 L 176.34375 36.109375 L 176.5 35.1875 L 182.109375 38.1875 L 181.90625 39.375 Z M 180.210938 29.863281 L 180.679688 29.941406 L 180.007813 33.972656 C 180.6875 34.046875 181.226563 33.953125 181.632813 33.691406 C 182.039063 33.421875 182.289063 33 182.382813 32.425781 C 182.445313 32.09375 182.457031 31.761719 182.414063 31.425781 C 182.375 31.09375 182.289063 30.753906 182.164063 30.410156 L 183.070313 30.566406 C 183.171875 30.902344 183.234375 31.238281 183.257813 31.582031 C 183.277344 31.925781 183.261719 32.269531 183.210938 32.613281 C 183.0625 33.46875 182.671875 34.097656 182.039063 34.503906 C 181.40625 34.902344 180.617188 35.015625 179.679688 34.847656 C 178.710938 34.691406 177.984375 34.332031 177.492188 33.769531 C 177.003906 33.199219 176.828125 32.511719 176.960938 31.707031 C 177.085938 30.988281 177.441406 30.46875 178.023438 30.144531 C 178.597656 29.8125 179.328125 29.71875 180.210938 29.863281 Z M 179.773438 30.691406 C 179.242188 30.609375 178.796875 30.671875 178.429688 30.878906 C 178.066406 31.078125 177.847656 31.394531 177.773438 31.832031 C 177.691406 32.324219 177.78125 32.746094 178.039063 33.097656 C 178.300781 33.441406 178.703125 33.683594 179.242188 33.816406 Z M 179.773438 30.691406 "/>
<path style="fill:none;stroke-width:3;stroke-linecap:round;stroke-linejoin:round;stroke:rgb(100%,100%,100%);stroke-opacity:1;stroke-miterlimit:10;" d="M 122.464844 87.742188 L 123.042969 86.414063 L 128.777344 86.914063 L 124.511719 83.023438 L 125.105469 81.679688 L 132.449219 84.882813 L 132.058594 85.757813 L 125.589844 82.945313 L 129.902344 86.835938 L 129.511719 87.742188 L 123.714844 87.257813 L 130.183594 90.070313 L 129.808594 90.945313 Z M 127.691406 80.734375 L 128.050781 79.921875 L 133.566406 82.328125 L 133.207031 83.140625 Z M 125.535156 79.796875 L 125.894531 78.984375 L 127.050781 79.484375 L 126.691406 80.296875 Z M 130.554688 74.742188 L 131.398438 75.117188 C 131.160156 75.285156 130.957031 75.46875 130.789063 75.664063 C 130.613281 75.863281 130.472656 76.082031 130.367188 76.320313 C 130.128906 76.851563 130.132813 77.347656 130.382813 77.804688 C 130.632813 78.253906 131.097656 78.625 131.773438 78.914063 C 132.441406 79.207031 133.023438 79.289063 133.523438 79.164063 C 134.023438 79.03125 134.390625 78.695313 134.632813 78.164063 C 134.734375 77.925781 134.804688 77.679688 134.835938 77.429688 C 134.867188 77.171875 134.855469 76.894531 134.804688 76.601563 L 135.632813 76.960938 C 135.664063 77.242188 135.652344 77.519531 135.601563 77.789063 C 135.546875 78.050781 135.464844 78.316406 135.351563 78.585938 C 135.027344 79.347656 134.511719 79.832031 133.804688 80.039063 C 133.085938 80.25 132.285156 80.160156 131.398438 79.773438 C 130.503906 79.390625 129.894531 78.863281 129.570313 78.195313 C 129.25 77.53125 129.253906 76.804688 129.585938 76.023438 C 129.703125 75.785156 129.84375 75.554688 130.007813 75.335938 C 130.164063 75.117188 130.347656 74.921875 130.554688 74.742188 Z M 134.941406 70.054688 L 138.269531 71.507813 L 137.910156 72.320313 L 134.613281 70.882813 C 134.09375 70.65625 133.667969 70.582031 133.332031 70.664063 C 132.988281 70.738281 132.734375 70.957031 132.566406 71.320313 C 132.378906 71.757813 132.390625 72.175781 132.597656 72.570313 C 132.796875 72.957031 133.160156 73.265625 133.691406 73.492188 L 136.816406 74.851563 L 136.457031 75.679688 L 128.785156 72.335938 L 129.144531 71.507813 L 132.160156 72.820313 C 131.910156 72.476563 131.765625 72.144531 131.722656 71.820313 C 131.671875 71.488281 131.722656 71.144531 131.878906 70.789063 C 132.121094 70.226563 132.5 69.882813 133.019531 69.757813 C 133.542969 69.625 134.183594 69.722656 134.941406 70.054688 Z M 137.183594 66.421875 C 136.894531 67.078125 136.777344 67.574219 136.839844 67.90625 C 136.902344 68.230469 137.136719 68.480469 137.542969 68.65625 C 137.855469 68.792969 138.152344 68.808594 138.433594 68.703125 C 138.703125 68.589844 138.90625 68.371094 139.042969 68.046875 C 139.25 67.589844 139.230469 67.148438 138.980469 66.71875 C 138.738281 66.292969 138.332031 65.953125 137.746094 65.703125 L 137.527344 65.609375 Z M 137.511719 64.625 L 140.667969 66 L 140.308594 66.8125 L 139.480469 66.453125 C 139.730469 66.789063 139.871094 67.125 139.902344 67.46875 C 139.941406 67.8125 139.875 68.1875 139.699219 68.59375 C 139.480469 69.09375 139.144531 69.429688 138.699219 69.59375 C 138.261719 69.761719 137.773438 69.726563 137.230469 69.484375 C 136.617188 69.214844 136.230469 68.828125 136.074219 68.328125 C 135.917969 67.820313 136.003906 67.1875 136.324219 66.4375 L 136.824219 65.296875 L 136.746094 65.265625 C 136.320313 65.078125 135.941406 65.058594 135.605469 65.203125 C 135.273438 65.351563 135.007813 65.652344 134.808594 66.109375 C 134.683594 66.382813 134.605469 66.667969 134.574219 66.96875 C 134.535156 67.273438 134.535156 67.585938 134.574219 67.90625 L 133.746094 67.53125 C 133.746094 67.179688 133.777344 66.851563 133.839844 66.546875 C 133.894531 66.246094 133.976563 65.960938 134.089844 65.6875 C 134.402344 64.96875 134.847656 64.523438 135.417969 64.34375 C 135.980469 64.167969 136.679688 64.261719 137.511719 64.625 Z M 139.949219 58.59375 L 140.417969 58.765625 L 139.027344 62.625 C 139.675781 62.8125 140.222656 62.8125 140.667969 62.625 C 141.117188 62.429688 141.4375 62.054688 141.636719 61.5 C 141.75 61.179688 141.816406 60.855469 141.839844 60.53125 C 141.859375 60.199219 141.84375 59.84375 141.792969 59.46875 L 142.652344 59.78125 C 142.683594 60.148438 142.675781 60.5 142.636719 60.84375 C 142.59375 61.179688 142.515625 61.507813 142.402344 61.828125 C 142.109375 62.640625 141.621094 63.195313 140.933594 63.484375 C 140.238281 63.765625 139.433594 63.746094 138.527344 63.421875 C 137.613281 63.089844 136.964844 62.601563 136.589844 61.953125 C 136.207031 61.308594 136.152344 60.601563 136.433594 59.828125 C 136.683594 59.140625 137.128906 58.6875 137.761719 58.46875 C 138.386719 58.25 139.117188 58.292969 139.949219 58.59375 Z M 139.386719 59.34375 C 138.867188 59.167969 138.410156 59.148438 138.011719 59.28125 C 137.617188 59.417969 137.347656 59.6875 137.199219 60.09375 C 137.035156 60.5625 137.050781 60.996094 137.246094 61.390625 C 137.433594 61.777344 137.789063 62.089844 138.308594 62.328125 Z M 135.46875 55.789063 L 135.703125 54.929688 L 143.765625 57.164063 L 143.53125 58.023438 Z M 137.0625 50.871094 L 137.15625 49.886719 L 144.234375 50.496094 L 144.53125 46.996094 L 145.4375 47.074219 L 145.046875 51.558594 Z M 142.726563 43.390625 C 142.664063 44.109375 142.71875 44.617188 142.882813 44.90625 C 143.039063 45.1875 143.332031 45.351563 143.757813 45.390625 C 144.101563 45.421875 144.390625 45.34375 144.617188 45.15625 C 144.847656 44.96875 144.976563 44.699219 145.007813 44.34375 C 145.050781 43.84375 144.890625 43.433594 144.523438 43.109375 C 144.160156 42.777344 143.664063 42.585938 143.039063 42.53125 L 142.804688 42.5 Z M 142.476563 41.578125 L 145.898438 41.875 L 145.820313 42.765625 L 144.914063 42.6875 C 145.257813 42.929688 145.5 43.210938 145.648438 43.53125 C 145.792969 43.84375 145.84375 44.21875 145.804688 44.65625 C 145.761719 45.199219 145.554688 45.621094 145.179688 45.921875 C 144.804688 46.214844 144.328125 46.335938 143.742188 46.28125 C 143.078125 46.230469 142.59375 45.984375 142.289063 45.546875 C 141.976563 45.109375 141.859375 44.492188 141.929688 43.6875 L 142.039063 42.4375 L 141.945313 42.4375 C 141.488281 42.398438 141.125 42.5 140.851563 42.75 C 140.570313 43 140.410156 43.371094 140.367188 43.859375 C 140.347656 44.164063 140.367188 44.464844 140.429688 44.765625 C 140.484375 45.058594 140.578125 45.34375 140.710938 45.625 L 139.804688 45.546875 C 139.691406 45.203125 139.613281 44.882813 139.570313 44.578125 C 139.53125 44.277344 139.523438 43.980469 139.554688 43.6875 C 139.617188 42.90625 139.894531 42.339844 140.382813 41.984375 C 140.863281 41.632813 141.5625 41.496094 142.476563 41.578125 Z M 142.828125 35.257813 L 146.4375 35.570313 L 146.359375 36.460938 L 142.78125 36.148438 C 142.210938 36.097656 141.777344 36.164063 141.484375 36.351563 C 141.183594 36.53125 141.011719 36.816406 140.96875 37.210938 C 140.929688 37.691406 141.070313 38.082031 141.390625 38.382813 C 141.703125 38.675781 142.152344 38.847656 142.734375 38.898438 L 146.125 39.195313 L 146.046875 40.101563 L 140.046875 39.585938 L 140.125 38.679688 L 141.0625 38.757813 C 140.71875 38.53125 140.46875 38.265625 140.3125 37.960938 C 140.15625 37.660156 140.101563 37.316406 140.140625 36.929688 C 140.195313 36.316406 140.449219 35.867188 140.90625 35.585938 C 141.355469 35.296875 141.996094 35.1875 142.828125 35.257813 Z M 143.761719 28.90625 L 144.246094 28.953125 L 143.886719 33.03125 C 144.554688 33.042969 145.082031 32.902344 145.464844 32.609375 C 145.851563 32.308594 146.070313 31.867188 146.121094 31.28125 C 146.152344 30.9375 146.136719 30.605469 146.074219 30.28125 C 146.003906 29.960938 145.894531 29.625 145.746094 29.28125 L 146.667969 29.359375 C 146.792969 29.703125 146.875 30.046875 146.917969 30.390625 C 146.96875 30.726563 146.984375 31.0625 146.964844 31.40625 C 146.878906 32.261719 146.542969 32.917969 145.949219 33.375 C 145.347656 33.835938 144.570313 34.023438 143.621094 33.9375 C 142.644531 33.855469 141.886719 33.546875 141.355469 33.015625 C 140.816406 32.484375 140.582031 31.820313 140.652344 31.015625 C 140.714844 30.289063 141.027344 29.734375 141.589844 29.359375 C 142.144531 28.984375 142.867188 28.835938 143.761719 28.90625 Z M 143.386719 29.765625 C 142.847656 29.734375 142.402344 29.839844 142.058594 30.078125 C 141.707031 30.308594 141.511719 30.640625 141.480469 31.078125 C 141.441406 31.578125 141.566406 31.992188 141.855469 32.3125 C 142.136719 32.636719 142.554688 32.839844 143.105469 32.921875 Z M 143.386719 29.765625 "/>
<path style=" stroke:none;fill-rule:evenodd;fill:rgb(20%,20%,20%);fill-opacity:1;" d="M 122.464844 87.742188 L 123.042969 86.414063 L 128.777344 86.914063 L 124.511719 83.023438 L 125.105469 81.679688 L 132.449219 84.882813 L 132.058594 85.757813 L 125.589844 82.945313 L 129.902344 86.835938 L 129.511719 87.742188 L 123.714844 87.257813 L 130.183594 90.070313 L 129.808594 90.945313 Z M 127.691406 80.734375 L 128.050781 79.921875 L 133.566406 82.328125 L 133.207031 83.140625 Z M 125.535156 79.796875 L 125.894531 78.984375 L 127.050781 79.484375 L 126.691406 80.296875 Z M 130.554688 74.742188 L 131.398438 75.117188 C 131.160156 75.285156 130.957031 75.46875 130.789063 75.664063 C 130.613281 75.863281 130.472656 76.082031 130.367188 76.320313 C 130.128906 76.851563 130.132813 77.347656 130.382813 77.804688 C 130.632813 78.253906 131.097656 78.625 131.773438 78.914063 C 132.441406 79.207031 133.023438 79.289063 133.523438 79.164063 C 134.023438 79.03125 134.390625 78.695313 134.632813 78.164063 C 134.734375 77.925781 134.804688 77.679688 134.835938 77.429688 C 134.867188 77.171875 134.855469 76.894531 134.804688 76.601563 L 135.632813 76.960938 C 135.664063 77.242188 135.652344 77.519531 135.601563 77.789063 C 135.546875 78.050781 135.464844 78.316406 135.351563 78.585938 C 135.027344 79.347656 134.511719 79.832031 133.804688 80.039063 C 133.085938 80.25 132.285156 80.160156 131.398438 79.773438 C 130.503906 79.390625 129.894531 78.863281 129.570313 78.195313 C 129.25 77.53125 129.253906 76.804688 129.585938 76.023438 C 129.703125 75.785156 129.84375 75.554688 130.007813 75.335938 C 130.164063 75.117188 130.347656 74.921875 130.554688 74.742188 Z M 134.941406 70.054688 L 138.269531 71.507813 L 137.910156 72.320313 L 134.613281 70.882813 C 134.09375 70.65625 133.667969 70.582031 133.332031 70.664063 C 132.988281 70.738281 132.734375 70.957031 132.566406 71.320313 C 132.378906 71.757813 132.390625 72.175781 132.597656 72.570313 C 132.796875 72.957031 133.160156 73.265625 133.691406 73.492188 L 136.816406 74.851563 L 136.457031 75.679688 L 128.785156 72.335938 L 129.144531 71.507813 L 132.160156 72.820313 C 131.910156 72.476563 131.765625 72.144531 131.722656 71.820313 C 131.671875 71.488281 131.722656 71.144531 131.878906 70.789063 C 132.121094 70.226563 132.5 69.882813 133.019531 69.757813 C 133.542969 69.625 134.183594 69.722656 134.941406 70.054688 Z M 137.183594 66.421875 C 136.894531 67.078125 136.777344 67.574219 136.839844 67.90625 C 136.902344 68.230469 137.136719 68.480469 137.542969 68.65625 C 137.855469 68.792969 138.152344 68.808594 138.433594 68.703125 C 138.703125 68.589844 138.90625 68.371094 139.042969 68.046875 C 139.25 67.589844 139.230469 67.148438 138.980469 66.71875 C 138.738281 66.292969 138.332031 65.953125 137.746094 65.703125 L 137.527344 65.609375 Z M 137.511719 64.625 L 140.667969 66 L 140.308594 66.8125 L 139.480469 66.453125 C 139.730469 66.789063 139.871094 67.125 139.902344 67.46875 C 139.941406 67.8125 139.875 68.1875 139.699219 68.59375 C 139.480469 69.09375 139.144531 69.429688 138.699219 69.59375 C 138.261719 69.761719 137.773438 69.726563 137.230469 69.484375 C 136.617188 69.214844 136.230469 68.828125 136.074219 68.328125 C 135.917969 67.820313 136.003906 67.1875 136.324219 66.4375 L 136.824219 65.296875 L 136.746094 65.265625 C 136.320313 65.078125 135.941406 65.058594 135.605469 65.203125 C 135.273438 65.351563 135.007813 65.652344 134.808594 66.109375 C 134.683594 66.382813 134.605469 66.667969 134.574219 66.96875 C 134.535156 67.273438 134.535156 67.585938 134.574219 67.90625 L 133.746094 67.53125 C 133.746094 67.179688 133.777344 66.851563 133.839844 66.546875 C 133.894531 66.246094 133.976563 65.960938 134.089844 65.6875 C 134.402344 64.96875 134.847656 64.523438 135.417969 64.34375 C 135.980469 64.167969 136.679688 64.261719 137.511719 64.625 Z M 139.949219 58.59375 L 140.417969 58.765625 L 139.027344 62.625 C 139.675781 62.8125 140.222656 62.8125 140.667969 62.625 C 141.117188 62.429688 141.4375 62.054688 141.636719 61.5 C 141.75 61.179688 141.816406 60.855469 141.839844 60.53125 C 141.859375 60.199219 141.84375 59.84375 141.792969 59.46875 L 142.652344 59.78125 C 142.683594 60.148438 142.675781 60.5 142.636719 60.84375 C 142.59375 61.179688 142.515625 61.507813 142.402344 61.828125 C 142.109375 62.640625 141.621094 63.195313 140.933594 63.484375 C 140.238281 63.765625 139.433594 63.746094 138.527344 63.421875 C 137.613281 63.089844 136.964844 62.601563 136.589844 61.953125 C 136.207031 61.308594 136.152344 60.601563 136.433594 59.828125 C 136.683594 59.140625 137.128906 58.6875 137.761719 58.46875 C 138.386719 58.25 139.117188 58.292969 139.949219 58.59375 Z M 139.386719 59.34375 C 138.867188 59.167969 138.410156 59.148438 138.011719 59.28125 C 137.617188 59.417969 137.347656 59.6875 137.199219 60.09375 C 137.035156 60.5625 137.050781 60.996094 137.246094 61.390625 C 137.433594 61.777344 137.789063 62.089844 138.308594 62.328125 Z M 135.46875 55.789063 L 135.703125 54.929688 L 143.765625 57.164063 L 143.53125 58.023438 Z M 137.0625 50.871094 L 137.15625 49.886719 L 144.234375 50.496094 L 144.53125 46.996094 L 145.4375 47.074219 L 145.046875 51.558594 Z M 142.726563 43.390625 C 142.664063 44.109375 142.71875 44.617188 142.882813 44.90625 C 143.039063 45.1875 143.332031 45.351563 143.757813 45.390625 C 144.101563 45.421875 144.390625 45.34375 144.617188 45.15625 C 144.847656 44.96875 144.976563 44.699219 145.007813 44.34375 C 145.050781 43.84375 144.890625 43.433594 144.523438 43.109375 C 144.160156 42.777344 143.664063 42.585938 143.039063 42.53125 L 142.804688 42.5 Z M 142.476563 41.578125 L 145.898438 41.875 L 145.820313 42.765625 L 144.914063 42.6875 C 145.257813 42.929688 145.5 43.210938 145.648438 43.53125 C 145.792969 43.84375 145.84375 44.21875 145.804688 44.65625 C 145.761719 45.199219 145.554688 45.621094 145.179688 45.921875 C 144.804688 46.214844 144.328125 46.335938 143.742188 46.28125 C 143.078125 46.230469 142.59375 45.984375 142.289063 45.546875 C 141.976563 45.109375 141.859375 44.492188 141.929688 43.6875 L 142.039063 42.4375 L 141.945313 42.4375 C 141.488281 42.398438 141.125 42.5 140.851563 42.75 C 140.570313 43 140.410156 43.371094 140.367188 43.859375 C 140.347656 44.164063 140.367188 44.464844 140.429688 44.765625 C 140.484375 45.058594 140.578125 45.34375 140.710938 45.625 L 139.804688 45.546875 C 139.691406 45.203125 139.613281 44.882813 139.570313 44.578125 C 139.53125 44.277344 139.523438 43.980469 139.554688 43.6875 C 139.617188 42.90625 139.894531 42.339844 140.382813 41.984375 C 140.863281 41.632813 141.5625 41.496094 142.476563 41.578125 Z M 142.828125 35.257813 L 146.4375 35.570313 L 146.359375 36.460938 L 142.78125 36.148438 C 142.210938 36.097656 141.777344 36.164063 141.484375 36.351563 C 141.183594 36.53125 141.011719 36.816406 140.96875 37.210938 C 140.929688 37.691406 141.070313 38.082031 141.390625 38.382813 C 141.703125 38.675781 142.152344 38.847656 142.734375 38.898438 L 146.125 39.195313 L 146.046875 40.101563 L 140.046875 39.585938 L 140.125 38.679688 L 141.0625 38.757813 C 140.71875 38.53125 140.46875 38.265625 140.3125 37.960938 C 140.15625 37.660156 140.101563 37.316406 140.140625 36.929688 C 140.195313 36.316406 140.449219 35.867188 140.90625 35.585938 C 141.355469 35.296875 141.996094 35.1875 142.828125 35.257813 Z M 143.761719 28.90625 L 144.246094 28.953125 L 143.886719 33.03125 C 144.554688 33.042969 145.082031 32.902344 145.464844 32.609375 C 145.851563 32.308594 146.070313 31.867188 146.121094 31.28125 C 146.152344 30.9375 146.136719 30.605469 146.074219 30.28125 C 146.003906 29.960938 145.894531 29.625 145.746094 29.28125 L 146.667969 29.359375 C 146.792969 29.703125 146.875 30.046875 146.917969 30.390625 C 146.96875 30.726563 146.984375 31.0625 146.964844 31.40625 C 146.878906 32.261719 146.542969 32.917969 145.949219 33.375 C 145.347656 33.835938 144.570313 34.023438 143.621094 33.9375 C 142.644531 33.855469 141.886719 33.546875 141.355469 33.015625 C 140.816406 32.484375 140.582031 31.820313 140.652344 31.015625 C 140.714844 30.289063 141.027344 29.734375 141.589844 29.359375 C 142.144531 28.984375 142.867188 28.835938 143.761719 28.90625 Z M 143.386719 29.765625 C 142.847656 29.734375 142.402344 29.839844 142.058594 30.078125 C 141.707031 30.308594 141.511719 30.640625 141.480469 31.078125 C 141.441406 31.578125 141.566406 31.992188 141.855469 32.3125 C 142.136719 32.636719 142.554688 32.839844 143.105469 32.921875 Z M 143.386719 29.765625 "/>
</g>
</svg>

