<?xml version="1.0" encoding="UTF-8"?>
<svg xmlns="http://www.w3.org/2000/svg" xmlns:xlink="http://www.w3.org/1999/xlink" width="256pt" height="256pt" viewBox="0 0 256 256" version="1.1">
<g id="surface2">
<rect x="0" y="0" width="256" height="256" style="fill:rgb(60%,70.196078%,80%);fill-opacity:1;stroke:none;"/>
<path style=" stroke:none;fill-rule:evenodd;fill:rgb(94.901961%,93.72549%,91.372549%);fill-opacity:1;" d="M 259 -4 L 195.035156 -4 L 193.691406 -0.914063 L 219.855469 14.894531 L 215.644531 22.0625 L 193.460938 8.867188 L 193.917969 7.617188 L 190.621094 7.046875 L 186.976563 9.210938 L 178.675781 23.539063 L 176.742188 25.589844 L 173.894531 31.390625 L 168.550781 41.742188 L 165.367188 49.476563 L 161.382813 56.417969 L 155.242188 66.542969 L 148.484375 74.929688 L 130.363281 103.914063 L 104.667969 88.984375 L 94.484375 106.382813 L 94.878906 109.195313 L 94.816406 110.488281 L 94.769531 111.539063 L 94.058594 113.71875 L 92.519531 116.410156 L 90.253906 118.824219 L 88.167969 120.015625 L 87.460938 120.480469 L 85.621094 121.316406 L 75.152344 139.078125 L 100.085938 153.925781 L 90.273438 173.394531 L 89.867188 177.804688 L 90.917969 182.449219 L 119.417969 200.703125 L 113.378906 211.5625 L 106.980469 217.015625 L 102.4375 221.222656 L 105.304688 227.269531 L 105.652344 229.757813 L 98.949219 240.152344 L 94.257813 245.164063 L 86.3125 250.316406 L 72.742188 259 L -4 259 L -4 -4 Z M 259 -4 "/>
<path style=" stroke:none;fill-rule:evenodd;fill:rgb(60%,70.196078%,80%);fill-opacity:1;" d="M -4 259 L 259 259 L 259 -4 L 195.035156 -4 L 193.691406 -0.914063 L 219.855469 14.898438 L 215.644531 22.0625 L 193.460938 8.867188 L 193.917969 7.617188 L 190.621094 7.046875 L 186.976563 9.210938 L 178.675781 23.539063 L 176.742188 25.589844 L 173.894531 31.390625 L 168.550781 41.742188 L 165.367188 49.476563 L 161.382813 56.417969 L 155.242188 66.542969 L 148.484375 74.929688 L 130.363281 103.914063 L 104.667969 88.984375 L 94.488281 106.382813 L 94.878906 109.195313 L 94.816406 110.488281 L 94.769531 111.539063 L 94.058594 113.71875 L 92.519531 116.410156 L 90.253906 118.824219 L 88.167969 120.015625 L 85.621094 121.316406 L 75.152344 139.078125 L 100.085938 153.925781 L 90.273438 173.394531 L 89.867188 177.804688 L 90.917969 182.449219 L 119.417969 200.707031 L 113.378906 211.5625 L 106.980469 217.015625 L 102.4375 221.222656 L 105.304688 227.269531 L 105.652344 229.757813 L 98.949219 240.152344 L 94.257813 245.164063 L 86.316406 250.316406 L 72.742188 259 Z M -4 259 "/>
<path style="fill:none;stroke-width:1;stroke-linecap:round;stroke-linejoin:round;stroke:rgb(70.196078%,77.647059%,83.137255%);stroke-opacity:1;stroke-miterlimit:10;" d="M -4 259 L 259 259 L 259 -4 L 195.035156 -4 L 193.691406 -0.914063 L 219.855469 14.898438 L 215.644531 22.0625 L 193.460938 8.867188 L 193.917969 7.617188 L 190.621094 7.046875 L 186.976563 9.210938 L 178.675781 23.539063 L 176.742188 25.589844 L 173.894531 31.390625 L 168.550781 41.742188 L 165.367188 49.476563 L 161.382813 56.417969 L 155.242188 66.542969 L 148.484375 74.929688 L 130.363281 103.914063 L 104.667969 88.984375 L 94.488281 106.382813 L 94.878906 109.195313 L 94.816406 110.488281 L 94.769531 111.539063 L 94.058594 113.71875 L 92.519531 116.410156 L 90.253906 118.824219 L 88.167969 120.015625 L 85.621094 121.316406 L 75.152344 139.078125 L 100.085938 153.925781 L 90.273438 173.394531 L 89.867188 177.804688 L 90.917969 182.449219 L 119.417969 200.707031 L 113.378906 211.5625 L 106.980469 217.015625 L 102.4375 221.222656 L 105.304688 227.269531 L 105.652344 229.757813 L 98.949219 240.152344 L 94.257813 245.164063 L 86.316406 250.316406 L 72.742188 259 L -4 259 "/>
</g>
</svg>

