<?xml version="1.0" encoding="UTF-8"?>
<svg xmlns="http://www.w3.org/2000/svg" xmlns:xlink="http://www.w3.org/1999/xlink" width="256pt" height="256pt" viewBox="0 0 256 256" version="1.1">
<g id="surface2">
<rect x="0" y="0" width="256" height="256" style="fill:rgb(94.901961%,93.72549%,91.372549%);fill-opacity:1;stroke:none;"/>
<path style="fill:none;stroke-width:1;stroke-linecap:round;stroke-linejoin:round;stroke:rgb(100%,100%,100%);stroke-opacity:1;stroke-dasharray:2,3;stroke-miterlimit:10;" d="M 257 89.664063 L 252.003906 97.164063 L 249.882813 99.097656 L 246.292969 101.0625 L 242.332031 101.71875 L 236.695313 100.800781 L 221.875 94.902344 L 211.109375 89.597656 L 201.695313 85.699219 L 198.828125 85.207031 L 196.453125 85.433594 L 178.417969 95.230469 L 174.898438 96.507813 L 172.429688 97.035156 L 170.492188 97.035156 L 168.304688 96.574219 L 159.074219 92.578125 L 148.378906 90.25 L 140.363281 87.238281 L 132.933594 83.566406 L 125.078125 80.457031 L 121.398438 79.929688 L 115.410156 80.585938 L 113.382813 81.371094 L 104.316406 88.808594 L 98.304688 92.445313 L 93.785156 94.378906 L 85.769531 98.410156 L 81.902344 100.996094 L 71.253906 109.875 L 62.863281 116.234375 L 55.664063 123.078125 L 49.324219 128.257813 L 35.648438 141.066406 L 15.769531 158.921875 L 11.996094 160.820313 L 10.316406 161.246094 L 8.851563 161.246094 L 5.144531 158.921875 L -0.261719 153.710938 "/>
<path style="fill:none;stroke-width:3;stroke-linecap:round;stroke-linejoin:round;stroke:rgb(100%,100%,100%);stroke-opacity:1;stroke-miterlimit:10;" d="M 86.71875 94.675781 L 87.40625 98.832031 L 89.765625 97.597656 Z M 85.734375 93.988281 L 86.71875 93.472656 L 92.859375 99.316406 L 91.96875 99.785156 L 90.4375 98.269531 L 87.546875 99.769531 L 87.921875 101.894531 L 87 102.378906 Z M 94.699219 92.835938 L 93.324219 89.898438 L 94.136719 89.523438 L 97.652344 97.101563 L 96.839844 97.476563 L 96.464844 96.648438 C 96.441406 97.066406 96.339844 97.414063 96.152344 97.695313 C 95.964844 97.96875 95.691406 98.1875 95.339844 98.351563 C 94.734375 98.625 94.125 98.582031 93.511719 98.226563 C 92.90625 97.875 92.402344 97.269531 91.996094 96.414063 C 91.601563 95.550781 91.464844 94.769531 91.589844 94.070313 C 91.714844 93.375 92.082031 92.890625 92.683594 92.617188 C 93.035156 92.453125 93.378906 92.390625 93.714844 92.429688 C 94.046875 92.460938 94.375 92.597656 94.699219 92.835938 Z M 92.824219 96.023438 C 93.136719 96.679688 93.5 97.144531 93.917969 97.414063 C 94.332031 97.675781 94.75 97.707031 95.167969 97.507813 C 95.605469 97.3125 95.859375 96.96875 95.933594 96.476563 C 96.003906 95.988281 95.886719 95.414063 95.574219 94.757813 C 95.269531 94.09375 94.910156 93.632813 94.496094 93.382813 C 94.078125 93.125 93.652344 93.09375 93.214844 93.289063 C 92.796875 93.488281 92.554688 93.828125 92.480469 94.304688 C 92.410156 94.785156 92.523438 95.359375 92.824219 96.023438 Z M 96.722656 90.871094 L 97.519531 90.480469 L 100.191406 95.871094 L 99.394531 96.261719 Z M 95.691406 88.761719 L 96.488281 88.371094 L 97.035156 89.496094 L 96.238281 89.886719 Z M 102.152344 88.835938 C 102.035156 88.835938 101.917969 88.859375 101.792969 88.898438 C 101.675781 88.929688 101.5625 88.984375 101.449219 89.054688 C 101.011719 89.316406 100.773438 89.671875 100.730469 90.117188 C 100.691406 90.566406 100.847656 91.078125 101.199219 91.648438 L 102.839844 94.367188 L 102.074219 94.835938 L 98.964844 89.695313 L 99.730469 89.226563 L 100.214844 90.023438 C 100.195313 89.617188 100.269531 89.265625 100.433594 88.960938 C 100.589844 88.660156 100.851563 88.394531 101.214844 88.164063 C 101.269531 88.132813 101.328125 88.101563 101.402344 88.070313 C 101.472656 88.039063 101.546875 88.003906 101.621094 87.960938 Z M 104.34375 86.902344 C 103.960938 87.183594 103.78125 87.574219 103.8125 88.074219 C 103.84375 88.574219 104.074219 89.113281 104.5 89.683594 C 104.929688 90.269531 105.375 90.644531 105.84375 90.808594 C 106.3125 90.964844 106.738281 90.902344 107.125 90.621094 C 107.507813 90.332031 107.6875 89.941406 107.65625 89.449219 C 107.632813 88.949219 107.410156 88.410156 106.984375 87.824219 C 106.554688 87.253906 106.101563 86.882813 105.625 86.714844 C 105.15625 86.550781 104.730469 86.613281 104.34375 86.902344 Z M 103.84375 86.246094 C 104.46875 85.777344 105.125 85.632813 105.8125 85.808594 C 106.5 85.988281 107.140625 86.472656 107.734375 87.261719 C 108.316406 88.054688 108.597656 88.808594 108.578125 89.527344 C 108.566406 90.238281 108.25 90.824219 107.625 91.292969 C 107 91.761719 106.34375 91.902344 105.65625 91.714844 C 104.96875 91.527344 104.335938 91.039063 103.75 90.246094 C 103.15625 89.457031 102.871094 88.710938 102.890625 88.011719 C 102.902344 87.304688 103.21875 86.714844 103.84375 86.246094 Z M 111.988281 83.003906 L 114.285156 85.800781 L 113.597656 86.363281 L 111.316406 83.582031 C 110.949219 83.144531 110.601563 82.886719 110.269531 82.800781 C 109.9375 82.707031 109.613281 82.785156 109.300781 83.035156 C 108.9375 83.339844 108.753906 83.707031 108.753906 84.144531 C 108.753906 84.582031 108.941406 85.027344 109.316406 85.472656 L 111.472656 88.113281 L 110.769531 88.691406 L 106.957031 84.035156 L 107.660156 83.457031 L 108.253906 84.191406 C 108.183594 83.777344 108.203125 83.40625 108.316406 83.082031 C 108.421875 82.761719 108.621094 82.480469 108.910156 82.238281 C 109.390625 81.855469 109.890625 81.722656 110.410156 81.847656 C 110.929688 81.972656 111.457031 82.359375 111.988281 83.003906 Z M 116.34375 79.730469 L 115.328125 76.636719 L 116.171875 76.355469 L 118.765625 84.308594 L 117.921875 84.589844 L 117.640625 83.730469 C 117.578125 84.128906 117.429688 84.457031 117.203125 84.714844 C 116.984375 84.964844 116.6875 85.152344 116.3125 85.277344 C 115.6875 85.488281 115.085938 85.378906 114.515625 84.949219 C 113.953125 84.523438 113.523438 83.855469 113.21875 82.949219 C 112.929688 82.054688 112.890625 81.269531 113.109375 80.589844 C 113.320313 79.914063 113.734375 79.472656 114.359375 79.261719 C 114.734375 79.136719 115.082031 79.117188 115.40625 79.199219 C 115.738281 79.273438 116.050781 79.449219 116.34375 79.730469 Z M 114.09375 82.667969 C 114.320313 83.367188 114.628906 83.871094 115.015625 84.183594 C 115.398438 84.488281 115.816406 84.566406 116.265625 84.417969 C 116.710938 84.273438 117 83.964844 117.125 83.496094 C 117.257813 83.019531 117.210938 82.429688 116.984375 81.730469 C 116.765625 81.042969 116.457031 80.550781 116.0625 80.246094 C 115.675781 79.933594 115.257813 79.851563 114.8125 79.996094 C 114.363281 80.144531 114.078125 80.457031 113.953125 80.933594 C 113.828125 81.402344 113.875 81.980469 114.09375 82.667969 Z M 121.609375 81.277344 C 120.890625 81.269531 120.390625 81.355469 120.109375 81.542969 C 119.835938 81.730469 119.695313 82.042969 119.6875 82.480469 C 119.6875 82.824219 119.785156 83.101563 119.984375 83.308594 C 120.191406 83.519531 120.472656 83.628906 120.828125 83.636719 C 121.328125 83.636719 121.726563 83.445313 122.03125 83.058594 C 122.332031 82.675781 122.488281 82.164063 122.5 81.527344 L 122.5 81.292969 Z M 123.390625 80.886719 L 123.359375 84.324219 L 122.46875 84.324219 L 122.484375 83.417969 C 122.265625 83.773438 122.003906 84.039063 121.703125 84.214844 C 121.398438 84.378906 121.03125 84.457031 120.59375 84.449219 C 120.039063 84.449219 119.601563 84.277344 119.28125 83.933594 C 118.957031 83.582031 118.796875 83.113281 118.796875 82.527344 C 118.804688 81.851563 119.015625 81.347656 119.421875 81.011719 C 119.828125 80.667969 120.4375 80.503906 121.25 80.511719 L 122.5 80.527344 L 122.5 80.433594 C 122.507813 79.976563 122.378906 79.621094 122.109375 79.371094 C 121.835938 79.113281 121.457031 78.980469 120.96875 78.980469 C 120.664063 78.972656 120.363281 79.007813 120.0625 79.089844 C 119.769531 79.175781 119.488281 79.300781 119.21875 79.464844 L 119.234375 78.558594 C 119.566406 78.414063 119.882813 78.308594 120.1875 78.246094 C 120.488281 78.175781 120.785156 78.144531 121.078125 78.152344 C 121.859375 78.152344 122.441406 78.382813 122.828125 78.839844 C 123.210938 79.289063 123.398438 79.972656 123.390625 80.886719 Z M 129.390625 80.261719 L 129.078125 81.136719 C 128.898438 80.910156 128.703125 80.714844 128.484375 80.558594 C 128.273438 80.402344 128.050781 80.285156 127.8125 80.199219 C 127.257813 80.003906 126.765625 80.042969 126.328125 80.324219 C 125.898438 80.597656 125.5625 81.082031 125.3125 81.777344 C 125.070313 82.464844 125.03125 83.054688 125.1875 83.542969 C 125.351563 84.035156 125.710938 84.375 126.265625 84.574219 C 126.503906 84.65625 126.753906 84.703125 127.015625 84.714844 C 127.273438 84.722656 127.546875 84.699219 127.828125 84.636719 L 127.53125 85.496094 C 127.257813 85.535156 126.988281 85.542969 126.71875 85.511719 C 126.445313 85.480469 126.171875 85.417969 125.890625 85.324219 C 125.117188 85.042969 124.597656 84.558594 124.328125 83.871094 C 124.066406 83.183594 124.097656 82.382813 124.421875 81.464844 C 124.753906 80.539063 125.242188 79.894531 125.890625 79.527344 C 126.535156 79.164063 127.253906 79.121094 128.046875 79.402344 C 128.296875 79.496094 128.535156 79.617188 128.765625 79.761719 C 129.003906 79.910156 129.210938 80.074219 129.390625 80.261719 Z M 131.871094 78.480469 L 132.714844 78.839844 L 130.777344 83.386719 L 134.230469 82.042969 L 135.277344 82.496094 L 131.542969 83.949219 L 133.027344 88.058594 L 131.964844 87.605469 L 130.589844 83.824219 L 129.433594 86.527344 L 128.589844 86.167969 Z M 140.464844 83.703125 L 139.261719 86.46875 L 140.386719 86.96875 C 140.800781 87.148438 141.175781 87.167969 141.511719 87.03125 C 141.84375 86.898438 142.109375 86.605469 142.308594 86.15625 C 142.496094 85.71875 142.527344 85.328125 142.402344 84.984375 C 142.277344 84.640625 142.003906 84.382813 141.589844 84.203125 Z M 139.933594 82.5 L 141.949219 83.390625 C 142.6875 83.714844 143.167969 84.148438 143.386719 84.6875 C 143.605469 85.230469 143.558594 85.855469 143.246094 86.5625 C 142.921875 87.292969 142.488281 87.761719 141.949219 87.96875 C 141.40625 88.167969 140.765625 88.105469 140.027344 87.78125 L 138.902344 87.28125 L 137.605469 90.234375 L 136.714844 89.84375 Z M 145.71875 90.265625 C 145.050781 90.015625 144.554688 89.933594 144.234375 90.015625 C 143.910156 90.101563 143.671875 90.34375 143.515625 90.75 C 143.398438 91.074219 143.40625 91.371094 143.53125 91.640625 C 143.65625 91.914063 143.878906 92.109375 144.203125 92.234375 C 144.671875 92.398438 145.113281 92.347656 145.53125 92.078125 C 145.945313 91.820313 146.265625 91.390625 146.484375 90.796875 L 146.5625 90.578125 Z M 147.53125 90.515625 L 146.34375 93.734375 L 145.515625 93.421875 L 145.828125 92.578125 C 145.503906 92.835938 145.171875 92.992188 144.828125 93.046875 C 144.492188 93.109375 144.117188 93.066406 143.703125 92.921875 C 143.191406 92.722656 142.835938 92.40625 142.640625 91.96875 C 142.453125 91.53125 142.460938 91.042969 142.671875 90.5 C 142.910156 89.867188 143.273438 89.460938 143.765625 89.28125 C 144.265625 89.09375 144.894531 89.140625 145.65625 89.421875 L 146.828125 89.859375 L 146.875 89.78125 C 147.03125 89.34375 147.023438 88.964844 146.859375 88.640625 C 146.691406 88.308594 146.378906 88.058594 145.921875 87.890625 C 145.640625 87.789063 145.34375 87.726563 145.03125 87.703125 C 144.71875 87.671875 144.40625 87.6875 144.09375 87.75 L 144.421875 86.90625 C 144.773438 86.886719 145.101563 86.898438 145.40625 86.9375 C 145.71875 86.980469 146.015625 87.054688 146.296875 87.15625 C 147.023438 87.429688 147.492188 87.839844 147.703125 88.390625 C 147.910156 88.945313 147.851563 89.652344 147.53125 90.515625 Z M 152.785156 90.078125 C 152.699219 90.007813 152.601563 89.945313 152.488281 89.890625 C 152.382813 89.828125 152.261719 89.789063 152.128906 89.765625 C 151.628906 89.652344 151.207031 89.746094 150.863281 90.046875 C 150.527344 90.339844 150.289063 90.820313 150.144531 91.484375 L 149.472656 94.578125 L 148.597656 94.390625 L 149.878906 88.515625 L 150.753906 88.703125 L 150.550781 89.609375 C 150.820313 89.296875 151.117188 89.089844 151.441406 88.984375 C 151.773438 88.871094 152.148438 88.859375 152.566406 88.953125 C 152.628906 88.964844 152.695313 88.984375 152.769531 89.015625 C 152.839844 89.039063 152.914063 89.0625 152.988281 89.09375 Z M 154.351563 87.082031 L 155.226563 87.269531 L 154.179688 92.097656 L 157.320313 90.144531 L 158.445313 90.378906 L 155.039063 92.519531 L 157.273438 96.285156 L 156.132813 96.035156 L 154.070313 92.566406 L 153.445313 95.441406 L 152.570313 95.253906 Z M 154.351563 87.082031 "/>
<path style=" stroke:none;fill-rule:evenodd;fill:rgb(20%,20%,20%);fill-opacity:1;" d="M 86.71875 94.675781 L 87.40625 98.832031 L 89.765625 97.597656 Z M 85.734375 93.988281 L 86.71875 93.472656 L 92.859375 99.316406 L 91.96875 99.785156 L 90.4375 98.269531 L 87.546875 99.769531 L 87.921875 101.894531 L 87 102.378906 Z M 94.699219 92.835938 L 93.324219 89.898438 L 94.136719 89.523438 L 97.652344 97.101563 L 96.839844 97.476563 L 96.464844 96.648438 C 96.441406 97.066406 96.339844 97.414063 96.152344 97.695313 C 95.964844 97.96875 95.691406 98.1875 95.339844 98.351563 C 94.734375 98.625 94.125 98.582031 93.511719 98.226563 C 92.90625 97.875 92.402344 97.269531 91.996094 96.414063 C 91.601563 95.550781 91.464844 94.769531 91.589844 94.070313 C 91.714844 93.375 92.082031 92.890625 92.683594 92.617188 C 93.035156 92.453125 93.378906 92.390625 93.714844 92.429688 C 94.046875 92.460938 94.375 92.597656 94.699219 92.835938 Z M 92.824219 96.023438 C 93.136719 96.679688 93.5 97.144531 93.917969 97.414063 C 94.332031 97.675781 94.75 97.707031 95.167969 97.507813 C 95.605469 97.3125 95.859375 96.96875 95.933594 96.476563 C 96.003906 95.988281 95.886719 95.414063 95.574219 94.757813 C 95.269531 94.09375 94.910156 93.632813 94.496094 93.382813 C 94.078125 93.125 93.652344 93.09375 93.214844 93.289063 C 92.796875 93.488281 92.554688 93.828125 92.480469 94.304688 C 92.410156 94.785156 92.523438 95.359375 92.824219 96.023438 Z M 96.722656 90.871094 L 97.519531 90.480469 L 100.191406 95.871094 L 99.394531 96.261719 Z M 95.691406 88.761719 L 96.488281 88.371094 L 97.035156 89.496094 L 96.238281 89.886719 Z M 102.152344 88.835938 C 102.035156 88.835938 101.917969 88.859375 101.792969 88.898438 C 101.675781 88.929688 101.5625 88.984375 101.449219 89.054688 C 101.011719 89.316406 100.773438 89.671875 100.730469 90.117188 C 100.691406 90.566406 100.847656 91.078125 101.199219 91.648438 L 102.839844 94.367188 L 102.074219 94.835938 L 98.964844 89.695313 L 99.730469 89.226563 L 100.214844 90.023438 C 100.195313 89.617188 100.269531 89.265625 100.433594 88.960938 C 100.589844 88.660156 100.851563 88.394531 101.214844 88.164063 C 101.269531 88.132813 101.328125 88.101563 101.402344 88.070313 C 101.472656 88.039063 101.546875 88.003906 101.621094 87.960938 Z M 104.34375 86.902344 C 103.960938 87.183594 103.78125 87.574219 103.8125 88.074219 C 103.84375 88.574219 104.074219 89.113281 104.5 89.683594 C 104.929688 90.269531 105.375 90.644531 105.84375 90.808594 C 106.3125 90.964844 106.738281 90.902344 107.125 90.621094 C 107.507813 90.332031 107.6875 89.941406 107.65625 89.449219 C 107.632813 88.949219 107.410156 88.410156 106.984375 87.824219 C 106.554688 87.253906 106.101563 86.882813 105.625 86.714844 C 105.15625 86.550781 104.730469 86.613281 104.34375 86.902344 Z M 103.84375 86.246094 C 104.46875 85.777344 105.125 85.632813 105.8125 85.808594 C 106.5 85.988281 107.140625 86.472656 107.734375 87.261719 C 108.316406 88.054688 108.597656 88.808594 108.578125 89.527344 C 108.566406 90.238281 108.25 90.824219 107.625 91.292969 C 107 91.761719 106.34375 91.902344 105.65625 91.714844 C 104.96875 91.527344 104.335938 91.039063 103.75 90.246094 C 103.15625 89.457031 102.871094 88.710938 102.890625 88.011719 C 102.902344 87.304688 103.21875 86.714844 103.84375 86.246094 Z M 111.988281 83.003906 L 114.285156 85.800781 L 113.597656 86.363281 L 111.316406 83.582031 C 110.949219 83.144531 110.601563 82.886719 110.269531 82.800781 C 109.9375 82.707031 109.613281 82.785156 109.300781 83.035156 C 108.9375 83.339844 108.753906 83.707031 108.753906 84.144531 C 108.753906 84.582031 108.941406 85.027344 109.316406 85.472656 L 111.472656 88.113281 L 110.769531 88.691406 L 106.957031 84.035156 L 107.660156 83.457031 L 108.253906 84.191406 C 108.183594 83.777344 108.203125 83.40625 108.316406 83.082031 C 108.421875 82.761719 108.621094 82.480469 108.910156 82.238281 C 109.390625 81.855469 109.890625 81.722656 110.410156 81.847656 C 110.929688 81.972656 111.457031 82.359375 111.988281 83.003906 Z M 116.34375 79.730469 L 115.328125 76.636719 L 116.171875 76.355469 L 118.765625 84.308594 L 117.921875 84.589844 L 117.640625 83.730469 C 117.578125 84.128906 117.429688 84.457031 117.203125 84.714844 C 116.984375 84.964844 116.6875 85.152344 116.3125 85.277344 C 115.6875 85.488281 115.085938 85.378906 114.515625 84.949219 C 113.953125 84.523438 113.523438 83.855469 113.21875 82.949219 C 112.929688 82.054688 112.890625 81.269531 113.109375 80.589844 C 113.320313 79.914063 113.734375 79.472656 114.359375 79.261719 C 114.734375 79.136719 115.082031 79.117188 115.40625 79.199219 C 115.738281 79.273438 116.050781 79.449219 116.34375 79.730469 Z M 114.09375 82.667969 C 114.320313 83.367188 114.628906 83.871094 115.015625 84.183594 C 115.398438 84.488281 115.816406 84.566406 116.265625 84.417969 C 116.710938 84.273438 117 83.964844 117.125 83.496094 C 117.257813 83.019531 117.210938 82.429688 116.984375 81.730469 C 116.765625 81.042969 116.457031 80.550781 116.0625 80.246094 C 115.675781 79.933594 115.257813 79.851563 114.8125 79.996094 C 114.363281 80.144531 114.078125 80.457031 113.953125 80.933594 C 113.828125 81.402344 113.875 81.980469 114.09375 82.667969 Z M 121.609375 81.277344 C 120.890625 81.269531 120.390625 81.355469 120.109375 81.542969 C 119.835938 81.730469 119.695313 82.042969 119.6875 82.480469 C 119.6875 82.824219 119.785156 83.101563 119.984375 83.308594 C 120.191406 83.519531 120.472656 83.628906 120.828125 83.636719 C 121.328125 83.636719 121.726563 83.445313 122.03125 83.058594 C 122.332031 82.675781 122.488281 82.164063 122.5 81.527344 L 122.5 81.292969 Z M 123.390625 80.886719 L 123.359375 84.324219 L 122.46875 84.324219 L 122.484375 83.417969 C 122.265625 83.773438 122.003906 84.039063 121.703125 84.214844 C 121.398438 84.378906 121.03125 84.457031 120.59375 84.449219 C 120.039063 84.449219 119.601563 84.277344 119.28125 83.933594 C 118.957031 83.582031 118.796875 83.113281 118.796875 82.527344 C 118.804688 81.851563 119.015625 81.347656 119.421875 81.011719 C 119.828125 80.667969 120.4375 80.503906 121.25 80.511719 L 122.5 80.527344 L 122.5 80.433594 C 122.507813 79.976563 122.378906 79.621094 122.109375 79.371094 C 121.835938 79.113281 121.457031 78.980469 120.96875 78.980469 C 120.664063 78.972656 120.363281 79.007813 120.0625 79.089844 C 119.769531 79.175781 119.488281 79.300781 119.21875 79.464844 L 119.234375 78.558594 C 119.566406 78.414063 119.882813 78.308594 120.1875 78.246094 C 120.488281 78.175781 120.785156 78.144531 121.078125 78.152344 C 121.859375 78.152344 122.441406 78.382813 122.828125 78.839844 C 123.210938 79.289063 123.398438 79.972656 123.390625 80.886719 Z M 129.390625 80.261719 L 129.078125 81.136719 C 128.898438 80.910156 128.703125 80.714844 128.484375 80.558594 C 128.273438 80.402344 128.050781 80.285156 127.8125 80.199219 C 127.257813 80.003906 126.765625 80.042969 126.328125 80.324219 C 125.898438 80.597656 125.5625 81.082031 125.3125 81.777344 C 125.070313 82.464844 125.03125 83.054688 125.1875 83.542969 C 125.351563 84.035156 125.710938 84.375 126.265625 84.574219 C 126.503906 84.65625 126.753906 84.703125 127.015625 84.714844 C 127.273438 84.722656 127.546875 84.699219 127.828125 84.636719 L 127.53125 85.496094 C 127.257813 85.535156 126.988281 85.542969 126.71875 85.511719 C 126.445313 85.480469 126.171875 85.417969 125.890625 85.324219 C 125.117188 85.042969 124.597656 84.558594 124.328125 83.871094 C 124.066406 83.183594 124.097656 82.382813 124.421875 81.464844 C 124.753906 80.539063 125.242188 79.894531 125.890625 79.527344 C 126.535156 79.164063 127.253906 79.121094 128.046875 79.402344 C 128.296875 79.496094 128.535156 79.617188 128.765625 79.761719 C 129.003906 79.910156 129.210938 80.074219 129.390625 80.261719 Z M 131.871094 78.480469 L 132.714844 78.839844 L 130.777344 83.386719 L 134.230469 82.042969 L 135.277344 82.496094 L 131.542969 83.949219 L 133.027344 88.058594 L 131.964844 87.605469 L 130.589844 83.824219 L 129.433594 86.527344 L 128.589844 86.167969 Z M 140.464844 83.703125 L 139.261719 86.46875 L 140.386719 86.96875 C 140.800781 87.148438 141.175781 87.167969 141.511719 87.03125 C 141.84375 86.898438 142.109375 86.605469 142.308594 86.15625 C 142.496094 85.71875 142.527344 85.328125 142.402344 84.984375 C 142.277344 84.640625 142.003906 84.382813 141.589844 84.203125 Z M 139.933594 82.5 L 141.949219 83.390625 C 142.6875 83.714844 143.167969 84.148438 143.386719 84.6875 C 143.605469 85.230469 143.558594 85.855469 143.246094 86.5625 C 142.921875 87.292969 142.488281 87.761719 141.949219 87.96875 C 141.40625 88.167969 140.765625 88.105469 140.027344 87.78125 L 138.902344 87.28125 L 137.605469 90.234375 L 136.714844 89.84375 Z M 145.71875 90.265625 C 145.050781 90.015625 144.554688 89.933594 144.234375 90.015625 C 143.910156 90.101563 143.671875 90.34375 143.515625 90.75 C 143.398438 91.074219 143.40625 91.371094 143.53125 91.640625 C 143.65625 91.914063 143.878906 92.109375 144.203125 92.234375 C 144.671875 92.398438 145.113281 92.347656 145.53125 92.078125 C 145.945313 91.820313 146.265625 91.390625 146.484375 90.796875 L 146.5625 90.578125 Z M 147.53125 90.515625 L 146.34375 93.734375 L 145.515625 93.421875 L 145.828125 92.578125 C 145.503906 92.835938 145.171875 92.992188 144.828125 93.046875 C 144.492188 93.109375 144.117188 93.066406 143.703125 92.921875 C 143.191406 92.722656 142.835938 92.40625 142.640625 91.96875 C 142.453125 91.53125 142.460938 91.042969 142.671875 90.5 C 142.910156 89.867188 143.273438 89.460938 143.765625 89.28125 C 144.265625 89.09375 144.894531 89.140625 145.65625 89.421875 L 146.828125 89.859375 L 146.875 89.78125 C 147.03125 89.34375 147.023438 88.964844 146.859375 88.640625 C 146.691406 88.308594 146.378906 88.058594 145.921875 87.890625 C 145.640625 87.789063 145.34375 87.726563 145.03125 87.703125 C 144.71875 87.671875 144.40625 87.6875 144.09375 87.75 L 144.421875 86.90625 C 144.773438 86.886719 145.101563 86.898438 145.40625 86.9375 C 145.71875 86.980469 146.015625 87.054688 146.296875 87.15625 C 147.023438 87.429688 147.492188 87.839844 147.703125 88.390625 C 147.910156 88.945313 147.851563 89.652344 147.53125 90.515625 Z M 152.785156 90.078125 C 152.699219 90.007813 152.601563 89.945313 152.488281 89.890625 C 152.382813 89.828125 152.261719 89.789063 152.128906 89.765625 C 151.628906 89.652344 151.207031 89.746094 150.863281 90.046875 C 150.527344 90.339844 150.289063 90.820313 150.144531 91.484375 L 149.472656 94.578125 L 148.597656 94.390625 L 149.878906 88.515625 L 150.753906 88.703125 L 150.550781 89.609375 C 150.820313 89.296875 151.117188 89.089844 151.441406 88.984375 C 151.773438 88.871094 152.148438 88.859375 152.566406 88.953125 C 152.628906 88.964844 152.695313 88.984375 152.769531 89.015625 C 152.839844 89.039063 152.914063 89.0625 152.988281 89.09375 Z M 154.351563 87.082031 L 155.226563 87.269531 L 154.179688 92.097656 L 157.320313 90.144531 L 158.445313 90.378906 L 155.039063 92.519531 L 157.273438 96.285156 L 156.132813 96.035156 L 154.070313 92.566406 L 153.445313 95.441406 L 152.570313 95.253906 Z M 154.351563 87.082031 "/>
</g>
</svg>

