<?xml version="1.0" encoding="UTF-8"?>
<svg xmlns="http://www.w3.org/2000/svg" xmlns:xlink="http://www.w3.org/1999/xlink" width="256pt" height="256pt" viewBox="0 0 256 256" version="1.1">
<g id="surface2">
<rect x="0" y="0" width="256" height="256" style="fill:rgb(94.901961%,93.72549%,91.372549%);fill-opacity:1;stroke:none;"/>
<path style=" stroke:none;fill-rule:evenodd;fill:rgb(60%,70.196078%,80%);fill-opacity:1;" d="M -4 -4 L 259 -4 L 259 259 L 259 -4 Z M -4 -4 "/>
<path style="fill:none;stroke-width:1;stroke-linecap:round;stroke-linejoin:round;stroke:rgb(70.196078%,77.647059%,83.137255%);stroke-opacity:1;stroke-miterlimit:10;" d="M -4 -4 L 259 -4 L 259 259 L 259 -4 L -4 -4 "/>
<path style="fill:none;stroke-width:1;stroke-linecap:round;stroke-linejoin:round;stroke:rgb(100%,100%,100%);stroke-opacity:1;stroke-dasharray:2,3;stroke-miterlimit:10;" d="M 99.800781 257 L 95.210938 245.726563 L 91.148438 238.039063 L 82.210938 233.351563 L 77.398438 230.476563 L 75.460938 225.289063 L 74.398438 215.539063 L 67.648438 213.164063 L 62.335938 217.351563 L 54.519531 219.664063 L 49.460938 219.039063 L 45.460938 213.539063 L 38.835938 210.535156 L 30.210938 208.226563 L 26.273438 204.789063 L 18.148438 199.539063 L 12.085938 194.160156 L 6.335938 191.726563 L -1.164063 190.039063 L -2 189.625 M -2 144.035156 L -0.414063 142.476563 L 0.710938 137.972656 L 0.59375 134.320313 "/>
</g>
</svg>

