<?xml version="1.0" encoding="UTF-8"?>
<svg xmlns="http://www.w3.org/2000/svg" xmlns:xlink="http://www.w3.org/1999/xlink" width="256pt" height="256pt" viewBox="0 0 256 256" version="1.1">
<g id="surface2">
<rect x="0" y="0" width="256" height="256" style="fill:rgb(94.901961%,93.72549%,91.372549%);fill-opacity:1;stroke:none;"/>
<path style="fill:none;stroke-width:8;stroke-linecap:round;stroke-linejoin:round;stroke:rgb(75.686275%,70.980392%,61.568627%);stroke-opacity:1;stroke-miterlimit:10;" d="M 10.710938 -9 L 5.609375 -7.035156 L 0.367188 -3.375 L -1.519531 -1.347656 L -4.082031 2.3125 L -9 16.832031 "/>
<path style="fill:none;stroke-width:8;stroke-linecap:round;stroke-linejoin:round;stroke:rgb(75.686275%,70.980392%,61.568627%);stroke-opacity:1;stroke-miterlimit:10;" d="M 264 21.070313 L 245.828125 19.402344 L 230.472656 18.160156 L 175.015625 9.207031 L 171.425781 8.128906 L 153.0625 0.253906 L 145.699219 -3.441406 L 134.328125 -9 "/>
<path style="fill:none;stroke-width:6;stroke-linecap:round;stroke-linejoin:round;stroke:rgb(100%,100%,100%);stroke-opacity:1;stroke-miterlimit:10;" d="M 10.710938 -9 L 5.609375 -7.035156 L 0.367188 -3.375 L -1.519531 -1.347656 L -4.082031 2.3125 L -9 16.832031 "/>
<path style="fill:none;stroke-width:6;stroke-linecap:round;stroke-linejoin:round;stroke:rgb(100%,100%,100%);stroke-opacity:1;stroke-miterlimit:10;" d="M 264 21.070313 L 245.828125 19.402344 L 230.472656 18.160156 L 175.015625 9.207031 L 171.425781 8.128906 L 153.0625 0.253906 L 145.699219 -3.441406 L 134.328125 -9 "/>
</g>
</svg>

