<?xml version="1.0" encoding="UTF-8"?>
<svg xmlns="http://www.w3.org/2000/svg" xmlns:xlink="http://www.w3.org/1999/xlink" width="256pt" height="256pt" viewBox="0 0 256 256" version="1.1">
<g id="surface2">
<rect x="0" y="0" width="256" height="256" style="fill:rgb(60%,70.196078%,80%);fill-opacity:1;stroke:none;"/>
<path style=" stroke:none;fill-rule:evenodd;fill:rgb(94.901961%,93.72549%,91.372549%);fill-opacity:1;" d="M -4 259 L 115.300781 259 L 66.359375 236.601563 L 78.988281 210.226563 L 128.1875 232.3125 L 136.898438 213.804688 L 127.6875 206.765625 L 127.703125 206.171875 L 89.558594 189.082031 L 102.269531 162.378906 L 136.835938 178.019531 L 137.234375 178.210938 L 149.054688 183.554688 L 151.203125 184.523438 L 151.632813 181.695313 L 152.386719 180.019531 L 153.414063 178.335938 L 154.75 176.214844 L 155.746094 171.210938 L 155.78125 166.730469 L 156.394531 163.8125 L 158.625 158.914063 L 161.054688 153.738281 L 160.886719 152.636719 L 160.714844 151.476563 L 163.867188 141.4375 L 147.558594 133.695313 L 142.753906 129.890625 L 141.703125 131.171875 L 133.847656 125.386719 L 178.109375 69.421875 L 179.640625 69.171875 L 184.554688 71.449219 L 184.328125 72.039063 L 185.527344 72.578125 L 186.246094 72.90625 L 203.90625 80.882813 L 206.035156 75.824219 L 204.902344 75.289063 L 204.300781 75 L 197.371094 71.71875 L 197 71.542969 L 200.046875 63.398438 L 205.875 67.171875 L 206.34375 67.585938 L 206.800781 67.890625 L 211.628906 71.164063 L 215.097656 66.90625 L 211.363281 63.023438 L 207.304688 60.492188 L 208.234375 59.496094 L 207.984375 59.222656 L 208.820313 56.992188 L 206.515625 55.796875 L 208.703125 51.613281 L 210.082031 48.785156 L 212.679688 50.257813 L 212.65625 48.097656 L 211.832031 47.710938 L 211.917969 46.429688 L 222.160156 36.324219 L 234.195313 32.34375 L 235.671875 35.660156 L 239.992188 33.703125 L 238.976563 31.503906 L 241.140625 30.699219 L 244.242188 30.25 L 246.621094 30.074219 L 259 29.929688 L 259 -4 L 259 259 Z M -4 259 "/>
<path style=" stroke:none;fill-rule:evenodd;fill:rgb(94.901961%,93.72549%,91.372549%);fill-opacity:1;" d="M -4 -4 L 259 -4 L 68.886719 -4 L 76.980469 5.667969 L 66.742188 14.289063 L 56.457031 22.949219 L 42.246094 5.917969 L 39.976563 7.722656 L 30.296875 2.578125 L 27.613281 4.792969 L 35.195313 13.695313 L 34.070313 14.640625 L 44.730469 27.507813 L 40.046875 31.421875 L 13.023438 -0.761719 L 5.449219 5.675781 L 5.164063 5.890625 L 0.800781 9.492188 L 29.089844 42.691406 L 23.699219 47.308594 L -4 14.539063 Z M -4 -4 "/>
<path style=" stroke:none;fill-rule:evenodd;fill:rgb(70.980392%,82.352941%,61.176471%);fill-opacity:1;" d="M 142.589844 260 L 158.25 217.25 L 173.414063 172.34375 L 165.246094 169.609375 L 162.253906 167.492188 L 163.535156 162.472656 L 164.628906 158.394531 L 169.847656 148.300781 L 172.878906 134.363281 L 175.347656 127.832031 L 179.566406 121.738281 L 182.347656 114.832031 L 183.816406 110.238281 L 188.660156 95.113281 L 203.785156 97.363281 L 212.0625 79.730469 L 213.410156 79.042969 L 220.582031 79.820313 L 228.976563 69.621094 L 229.996094 66.453125 L 229.011719 62.691406 L 226.1875 61.691406 L 224.515625 60.628906 L 215.492188 52.203125 L 210.664063 62.3125 L 215.289063 67.070313 L 211.652344 71.40625 L 204.855469 66.867188 L 200.046875 63.398438 L 197 71.542969 L 204.300781 75 L 206.035156 75.824219 L 203.90625 80.882813 L 186.246094 72.90625 L 184.328125 72.039063 L 179.640625 69.171875 L 178.109375 69.421875 L 133.847656 125.386719 L 141.703125 131.171875 L 142.753906 129.890625 L 147.558594 133.695313 L 163.867188 141.4375 L 160.714844 151.476563 L 160.886719 152.636719 L 161.054688 153.738281 L 158.625 158.914063 L 156.394531 163.8125 L 155.785156 166.730469 L 155.746094 171.210938 L 154.75 176.214844 L 153.414063 178.335938 L 152.386719 180.019531 L 151.632813 181.695313 L 151.203125 184.523438 L 149.054688 183.554688 L 137.234375 178.210938 L 102.269531 162.378906 L 89.558594 189.082031 L 127.8125 206.117188 L 136.898438 213.804688 L 128.1875 232.3125 L 78.988281 210.226563 L 66.359375 236.601563 L 117.488281 260 Z M 142.589844 260 "/>
<path style=" stroke:none;fill-rule:evenodd;fill:rgb(98.039216%,98.039216%,96.078431%);fill-opacity:1;" d="M -4 14.539063 L 23.699219 47.308594 L 29.089844 42.691406 L 0.800781 9.492188 L 5.164063 5.890625 L 13.027344 -0.761719 L 40.046875 31.421875 L 44.730469 27.507813 L 34.070313 14.640625 L 35.195313 13.695313 L 27.613281 4.792969 L 30.296875 2.578125 L 39.980469 7.722656 L 42.25 5.917969 L 38 1 L 33.5 2.875 L 28.753906 -4 L 10.074219 -4 L -2.03125 6.167969 L -4 7.820313 Z M -4 14.539063 "/>
<path style=" stroke:none;fill-rule:evenodd;fill:rgb(70.980392%,82.352941%,61.176471%);fill-opacity:1;" d="M 231.449219 47.351563 L 231.984375 48.914063 L 233.785156 51.503906 L 235.613281 52.574219 L 239.40625 53.324219 L 241.746094 52.210938 L 242.761719 52.261719 L 244.738281 51.636719 L 246.847656 51.453125 L 252.425781 51.632813 L 254.210938 51.710938 L 260 51.964844 L 260 29.917969 L 246.621094 30.074219 L 244.242188 30.25 L 241.140625 30.699219 L 238.976563 31.503906 L 239.992188 33.703125 L 235.671875 35.660156 L 236.40625 37.574219 L 235.09375 38.253906 L 233.984375 39.40625 L 232.828125 41.101563 L 231.601563 43.25 L 231.285156 45.855469 Z M 231.449219 47.351563 "/>
<path style=" stroke:none;fill-rule:evenodd;fill:rgb(87.058824%,82.352941%,67.45098%);fill-opacity:1;" d="M 260 160.769531 L 260 142.433594 L 253.734375 140.152344 L 247.84375 156.351563 Z M 260 160.769531 "/>
<path style=" stroke:none;fill-rule:evenodd;fill:rgb(87.058824%,81.960784%,67.058824%);fill-opacity:1;" d="M 95.0625 182.738281 L 102.882813 186.238281 L 104.144531 186.800781 L 107.859375 178.492188 L 112.027344 169.179688 L 102.949219 165.117188 Z M 95.0625 182.738281 "/>
<path style=" stroke:none;fill-rule:evenodd;fill:rgb(87.058824%,81.960784%,67.058824%);fill-opacity:1;" d="M 104.144531 186.800781 L 122.324219 195.054688 L 126.085938 186.726563 L 107.859375 178.492188 Z M 104.144531 186.800781 "/>
<path style=" stroke:none;fill-rule:evenodd;fill:rgb(87.058824%,81.960784%,67.058824%);fill-opacity:1;" d="M 100.753906 191.015625 L 120.148438 199.78125 L 122.324219 195.054688 L 102.882813 186.238281 Z M 100.753906 191.015625 "/>
<path style=" stroke:none;fill-rule:evenodd;fill:rgb(87.058824%,81.960784%,67.058824%);fill-opacity:1;" d="M 131.550781 180.925781 L 140.667969 184.9375 L 141.472656 183.121094 L 132.351563 179.109375 Z M 131.550781 180.925781 "/>
<path style=" stroke:none;fill-rule:evenodd;fill:rgb(70.980392%,82.352941%,61.176471%);fill-opacity:1;" d="M 174.6875 201.449219 L 182.394531 204.242188 L 175.019531 200.539063 Z M 174.6875 201.449219 "/>
<path style=" stroke:none;fill-rule:evenodd;fill:rgb(70.980392%,82.352941%,61.176471%);fill-opacity:1;" d="M 175.429688 199.210938 L 179.804688 200.789063 L 183.222656 202.023438 L 175.648438 198.605469 Z M 175.429688 199.210938 "/>
<path style=" stroke:none;fill-rule:evenodd;fill:rgb(60%,70.196078%,80%);fill-opacity:1;" d="M -4 259 L 115.300781 259 L 66.359375 236.601563 L 78.988281 210.226563 L 128.1875 232.3125 L 136.898438 213.804688 L 127.6875 206.765625 L 89.558594 189.082031 L 102.269531 162.378906 L 136.835938 178.019531 L 149.054688 183.554688 L 151.203125 184.523438 L 151.632813 181.695313 L 152.386719 180.019531 L 153.414063 178.335938 L 154.75 176.214844 L 155.746094 171.210938 L 155.785156 166.730469 L 156.394531 163.8125 L 158.625 158.914063 L 161.054688 153.738281 L 160.886719 152.636719 L 160.714844 151.476563 L 163.867188 141.4375 L 147.558594 133.695313 L 142.753906 129.890625 L 141.703125 131.171875 L 133.847656 125.386719 L 178.109375 69.421875 L 179.640625 69.171875 L 184.554688 71.449219 L 185.527344 72.578125 L 203.90625 80.882813 L 206.035156 75.824219 L 204.902344 75.289063 L 197.371094 71.71875 L 200.046875 63.398438 L 205.875 67.171875 L 206.800781 67.890625 L 211.628906 71.164063 L 215.097656 66.90625 L 211.363281 63.023438 L 207.304688 60.492188 L 208.234375 59.496094 L 208.820313 56.992188 L 206.515625 55.796875 L 208.703125 51.613281 L 210.082031 48.785156 L 212.679688 50.257813 L 212.65625 48.097656 L 211.917969 46.433594 L 222.160156 36.324219 L 234.195313 32.34375 L 235.671875 35.660156 L 239.992188 33.703125 L 238.976563 31.503906 L 241.140625 30.699219 L 244.242188 30.25 L 246.621094 30.074219 L 259 29.929688 L 259 -4 L 68.886719 -4 L 76.980469 5.667969 L 66.742188 14.289063 L 56.457031 22.953125 L 42.25 5.917969 L 39.980469 7.722656 L 30.296875 2.578125 L 27.613281 4.792969 L 35.195313 13.695313 L 34.070313 14.640625 L 44.730469 27.507813 L 40.046875 31.421875 L 13.027344 -0.761719 L 5.449219 5.675781 L 0.800781 9.492188 L 29.089844 42.691406 L 23.699219 47.308594 L -4 14.539063 Z M -4 259 "/>
<path style="fill:none;stroke-width:1;stroke-linecap:round;stroke-linejoin:round;stroke:rgb(70.196078%,77.647059%,83.137255%);stroke-opacity:1;stroke-miterlimit:10;" d="M -4 259 L 115.300781 259 L 66.359375 236.601563 L 78.988281 210.226563 L 128.1875 232.3125 L 136.898438 213.804688 L 127.6875 206.765625 L 89.558594 189.082031 L 102.269531 162.378906 L 136.835938 178.019531 L 149.054688 183.554688 L 151.203125 184.523438 L 151.632813 181.695313 L 152.386719 180.019531 L 153.414063 178.335938 L 154.75 176.214844 L 155.746094 171.210938 L 155.785156 166.730469 L 156.394531 163.8125 L 158.625 158.914063 L 161.054688 153.738281 L 160.886719 152.636719 L 160.714844 151.476563 L 163.867188 141.4375 L 147.558594 133.695313 L 142.753906 129.890625 L 141.703125 131.171875 L 133.847656 125.386719 L 178.109375 69.421875 L 179.640625 69.171875 L 184.554688 71.449219 L 185.527344 72.578125 L 203.90625 80.882813 L 206.035156 75.824219 L 204.902344 75.289063 L 197.371094 71.71875 L 200.046875 63.398438 L 205.875 67.171875 L 206.800781 67.890625 L 211.628906 71.164063 L 215.097656 66.90625 L 211.363281 63.023438 L 207.304688 60.492188 L 208.234375 59.496094 L 208.820313 56.992188 L 206.515625 55.796875 L 208.703125 51.613281 L 210.082031 48.785156 L 212.679688 50.257813 L 212.65625 48.097656 L 211.917969 46.433594 L 222.160156 36.324219 L 234.195313 32.34375 L 235.671875 35.660156 L 239.992188 33.703125 L 238.976563 31.503906 L 241.140625 30.699219 L 244.242188 30.25 L 246.621094 30.074219 L 259 29.929688 L 259 -4 L 68.886719 -4 L 76.980469 5.667969 L 66.742188 14.289063 L 56.457031 22.953125 L 42.25 5.917969 L 39.980469 7.722656 L 30.296875 2.578125 L 27.613281 4.792969 L 35.195313 13.695313 L 34.070313 14.640625 L 44.730469 27.507813 L 40.046875 31.421875 L 13.027344 -0.761719 L 5.449219 5.675781 L 0.800781 9.492188 L 29.089844 42.691406 L 23.699219 47.308594 L -4 14.539063 L -4 259 "/>
<path style=" stroke:none;fill-rule:evenodd;fill:rgb(60%,70.196078%,80%);fill-opacity:1;" d="M 163.292969 179.144531 L 167.316406 180.722656 L 168.296875 178.113281 L 164.214844 176.589844 Z M 163.292969 179.144531 "/>
<path style="fill:none;stroke-width:1;stroke-linecap:round;stroke-linejoin:round;stroke:rgb(70.196078%,77.647059%,83.137255%);stroke-opacity:1;stroke-miterlimit:10;" d="M 163.292969 179.144531 L 167.316406 180.722656 L 168.296875 178.113281 L 164.214844 176.589844 L 163.292969 179.144531 "/>
<path style=" stroke:none;fill-rule:evenodd;fill:rgb(60%,70.196078%,80%);fill-opacity:1;" d="M 133.191406 207.53125 L 137.929688 211.136719 L 138.621094 210.152344 L 139.804688 208.339844 L 140.867188 207.964844 L 141.992188 208.773438 L 142.742188 209.835938 L 143.242188 211.652344 L 144.742188 213.273438 L 146.117188 213.273438 L 148.179688 211.773438 L 146.929688 211.210938 L 145.867188 210.460938 L 143.679688 208.339844 L 142.179688 206.277344 L 141.867188 203.398438 L 142.054688 200.960938 L 143.367188 197.773438 L 144.179688 196.503906 L 148.148438 186.011719 L 143.800781 183.964844 Z M 133.191406 207.53125 "/>
<path style="fill:none;stroke-width:1;stroke-linecap:round;stroke-linejoin:round;stroke:rgb(70.196078%,77.647059%,83.137255%);stroke-opacity:1;stroke-miterlimit:10;" d="M 133.191406 207.53125 L 137.929688 211.136719 L 138.621094 210.152344 L 139.804688 208.339844 L 140.867188 207.964844 L 141.992188 208.773438 L 142.742188 209.835938 L 143.242188 211.652344 L 144.742188 213.273438 L 146.117188 213.273438 L 148.179688 211.773438 L 146.929688 211.210938 L 145.867188 210.460938 L 143.679688 208.339844 L 142.179688 206.277344 L 141.867188 203.398438 L 142.054688 200.960938 L 143.367188 197.773438 L 144.179688 196.503906 L 148.148438 186.011719 L 143.800781 183.964844 L 133.191406 207.53125 "/>
<path style="fill:none;stroke-width:6;stroke-linecap:round;stroke-linejoin:round;stroke:rgb(60%,70.196078%,80%);stroke-opacity:1;stroke-miterlimit:10;" d="M 197.058594 -7 L -7 177.679688 "/>
<path style="fill:none;stroke-width:8;stroke-linecap:round;stroke-linejoin:round;stroke:rgb(99.215686%,57.254902%,22.745098%);stroke-opacity:0.4;stroke-miterlimit:10;" d="M 211.082031 143.273438 L 203.390625 150.226563 "/>
<path style="fill:none;stroke-width:9;stroke-linecap:round;stroke-linejoin:round;stroke:rgb(99.215686%,57.254902%,22.745098%);stroke-opacity:0.4;stroke-miterlimit:10;" d="M 211.191406 144.625 L 203.390625 150.226563 "/>
<path style="fill:none;stroke-width:9;stroke-linecap:round;stroke-linejoin:round;stroke:rgb(99.215686%,57.254902%,22.745098%);stroke-opacity:0.4;stroke-miterlimit:10;" d="M 203.390625 150.226563 L 195.257813 157.96875 "/>
<path style="fill:none;stroke-width:9;stroke-linecap:round;stroke-linejoin:round;stroke:rgb(99.215686%,57.254902%,22.745098%);stroke-opacity:0.4;stroke-miterlimit:10;" d="M 193.894531 161.882813 L 204.191406 152.226563 L 212.390625 146.226563 "/>
<path style="fill:none;stroke-width:1;stroke-linecap:round;stroke-linejoin:round;stroke:rgb(100%,100%,100%);stroke-opacity:1;stroke-dasharray:2,3;stroke-miterlimit:10;" d="M 169.320313 127.390625 L 169.9375 127.152344 "/>
<path style="fill:none;stroke-width:1;stroke-linecap:round;stroke-linejoin:round;stroke:rgb(100%,100%,100%);stroke-opacity:1;stroke-dasharray:2,3;stroke-miterlimit:10;" d="M 206.324219 140.710938 L 204.753906 140.25 "/>
<path style="fill:none;stroke-width:1;stroke-linecap:round;stroke-linejoin:round;stroke:rgb(100%,100%,100%);stroke-opacity:1;stroke-dasharray:2,3;stroke-miterlimit:10;" d="M 179.644531 107.105469 L 181.457031 106.542969 L 182.996094 106.390625 "/>
<path style="fill:none;stroke-width:1;stroke-linecap:round;stroke-linejoin:round;stroke:rgb(100%,100%,100%);stroke-opacity:1;stroke-dasharray:2,3;stroke-miterlimit:10;" d="M 171.429688 126.339844 L 174.757813 125.011719 "/>
<path style="fill:none;stroke-width:1;stroke-linecap:round;stroke-linejoin:round;stroke:rgb(100%,100%,100%);stroke-opacity:1;stroke-dasharray:2,3;stroke-miterlimit:10;" d="M 175.332031 116.417969 L 177.894531 115.234375 L 180.253906 115.078125 "/>
<path style="fill:none;stroke-width:1;stroke-linecap:round;stroke-linejoin:round;stroke:rgb(100%,100%,100%);stroke-opacity:1;stroke-dasharray:2,3;stroke-miterlimit:10;" d="M 153.21875 186.941406 L 149.578125 185.277344 L 148.457031 184.746094 "/>
<path style="fill:none;stroke-width:1;stroke-linecap:round;stroke-linejoin:round;stroke:rgb(100%,100%,100%);stroke-opacity:1;stroke-dasharray:2,3;stroke-miterlimit:10;" d="M 191.414063 85.117188 L 191.964844 81.941406 L 193.527344 78.621094 "/>
<path style="fill:none;stroke-width:1;stroke-linecap:round;stroke-linejoin:round;stroke:rgb(100%,100%,100%);stroke-opacity:1;stroke-dasharray:2,3;stroke-miterlimit:10;" d="M 168.363281 122.660156 L 169.945313 121.96875 L 171.207031 121.105469 L 173.457031 118.234375 "/>
<path style="fill:none;stroke-width:1;stroke-linecap:round;stroke-linejoin:round;stroke:rgb(100%,100%,100%);stroke-opacity:1;stroke-dasharray:2,3;stroke-miterlimit:10;" d="M 172.207031 113.171875 L 175.082031 109.859375 L 177.082031 108.296875 "/>
<path style="fill:none;stroke-width:1;stroke-linecap:round;stroke-linejoin:round;stroke:rgb(100%,100%,100%);stroke-opacity:1;stroke-dasharray:2,3;stroke-miterlimit:10;" d="M 216.714844 66.046875 L 212.316406 71.980469 "/>
<path style="fill:none;stroke-width:1;stroke-linecap:round;stroke-linejoin:round;stroke:rgb(100%,100%,100%);stroke-opacity:1;stroke-dasharray:2,3;stroke-miterlimit:10;" d="M 137.394531 212.394531 L 141.457031 215.742188 L 144.371094 217.609375 "/>
<path style="fill:none;stroke-width:1;stroke-linecap:round;stroke-linejoin:round;stroke:rgb(100%,100%,100%);stroke-opacity:1;stroke-dasharray:2,3;stroke-miterlimit:10;" d="M 247.65625 58.855469 L 249.722656 58.390625 L 251.609375 57.386719 L 252.425781 51.632813 L 252.613281 50.34375 "/>
<path style="fill:none;stroke-width:1;stroke-linecap:round;stroke-linejoin:round;stroke:rgb(100%,100%,100%);stroke-opacity:1;stroke-dasharray:2,3;stroke-miterlimit:10;" d="M 165.949219 219.027344 L 176.636719 222.949219 "/>
<path style="fill:none;stroke-width:1;stroke-linecap:round;stroke-linejoin:round;stroke:rgb(100%,100%,100%);stroke-opacity:1;stroke-dasharray:2,3;stroke-miterlimit:10;" d="M 172.925781 199.164063 L 183.707031 203.003906 "/>
<path style="fill:none;stroke-width:1;stroke-linecap:round;stroke-linejoin:round;stroke:rgb(100%,100%,100%);stroke-opacity:1;stroke-dasharray:2,3;stroke-miterlimit:10;" d="M 205.222656 144 L 216.410156 147.808594 "/>
<path style="fill:none;stroke-width:1;stroke-linecap:round;stroke-linejoin:round;stroke:rgb(100%,100%,100%);stroke-opacity:1;stroke-dasharray:2,3;stroke-miterlimit:10;" d="M 212.316406 71.980469 L 217.191406 75.222656 L 215.296875 78.132813 L 213.0625 80.265625 "/>
<path style="fill:none;stroke-width:1;stroke-linecap:round;stroke-linejoin:round;stroke:rgb(100%,100%,100%);stroke-opacity:1;stroke-dasharray:2,3;stroke-miterlimit:10;" d="M 193.003906 177.425781 L 189.640625 179.246094 L 186.933594 180.585938 L 183.734375 180.371094 L 181.152344 178.996094 "/>
<path style="fill:none;stroke-width:1;stroke-linecap:round;stroke-linejoin:round;stroke:rgb(100%,100%,100%);stroke-opacity:1;stroke-dasharray:2,3;stroke-miterlimit:10;" d="M 206.929688 77.683594 L 207.804688 74.261719 L 202.492188 70.574219 L 204.855469 66.867188 "/>
<path style="fill:none;stroke-width:1;stroke-linecap:round;stroke-linejoin:round;stroke:rgb(100%,100%,100%);stroke-opacity:1;stroke-dasharray:2,3;stroke-miterlimit:10;" d="M 165.964844 119.402344 L 165.359375 115.898438 L 164.195313 114.539063 L 162.074219 112.929688 L 159.644531 111.339844 L 158.074219 110.761719 L 156.046875 110.144531 "/>
<path style="fill:none;stroke-width:1;stroke-linecap:round;stroke-linejoin:round;stroke:rgb(100%,100%,100%);stroke-opacity:1;stroke-dasharray:2,3;stroke-miterlimit:10;" d="M 168.160156 139.609375 L 166.207031 142.589844 L 164.644531 146.265625 L 162.15625 150.746094 L 160.886719 152.636719 "/>
<path style="fill:none;stroke-width:1;stroke-linecap:round;stroke-linejoin:round;stroke:rgb(100%,100%,100%);stroke-opacity:1;stroke-dasharray:2,3;stroke-miterlimit:10;" d="M 226.929688 74.691406 L 216.714844 66.046875 L 212.316406 62.355469 "/>
<path style="fill:none;stroke-width:1;stroke-linecap:round;stroke-linejoin:round;stroke:rgb(100%,100%,100%);stroke-opacity:1;stroke-dasharray:2,3;stroke-miterlimit:10;" d="M 170.296875 135.582031 L 171.085938 138.132813 L 172.03125 139.390625 L 173.367188 139.625 L 174.472656 137.144531 L 174.355469 132.460938 L 177.699219 125.921875 L 179.789063 123.800781 L 180.535156 124.582031 L 180.1875 125.167969 "/>
<path style="fill:none;stroke-width:1;stroke-linecap:round;stroke-linejoin:round;stroke:rgb(100%,100%,100%);stroke-opacity:1;stroke-dasharray:2,3;stroke-miterlimit:10;" d="M 244.546875 51.175781 L 240.308594 52.5 L 238.53125 52.589844 L 237.058594 52.375 L 233.980469 50.289063 L 232.496094 48.613281 L 232.183594 47.1875 L 232.304688 43.257813 L 234.160156 40.105469 L 235.308594 38.902344 L 236.863281 37.894531 "/>
<path style="fill:none;stroke-width:1;stroke-linecap:round;stroke-linejoin:round;stroke:rgb(100%,100%,100%);stroke-opacity:1;stroke-dasharray:2,3;stroke-miterlimit:10;" d="M 140.234375 223.335938 L 137.617188 225.710938 L 135.554688 227.273438 L 131.742188 230.023438 L 129.542969 232.140625 L 130.492188 233.839844 L 131.1875 235.640625 L 132.679688 237.777344 L 134.554688 239.585938 L 137.914063 240.980469 "/>
<path style="fill:none;stroke-width:1;stroke-linecap:round;stroke-linejoin:round;stroke:rgb(100%,100%,100%);stroke-opacity:1;stroke-dasharray:2,3;stroke-miterlimit:10;" d="M 129.542969 232.140625 L 128.304688 233.773438 L 128.804688 235.023438 L 128.179688 236.710938 L 126.992188 239.277344 L 126.492188 241.335938 L 126.117188 243.585938 L 125.742188 245.460938 L 125.304688 247.464844 L 124.304688 249.648438 L 122.867188 251.835938 L 121.929688 253.710938 L 121.117188 256.273438 L 121.007813 257 "/>
<path style="fill:none;stroke-width:1;stroke-linecap:round;stroke-linejoin:round;stroke:rgb(100%,100%,100%);stroke-opacity:1;stroke-dasharray:2,3;stroke-miterlimit:10;" d="M 149.578125 185.277344 L 145.742188 195.589844 L 146.054688 198.085938 L 145.304688 199.714844 L 144.742188 201.777344 L 144.679688 203.585938 L 145.429688 204.835938 L 146.679688 206.523438 L 147.804688 208.277344 L 148.117188 209.402344 L 147.679688 210.773438 L 146.929688 211.210938 "/>
<path style="fill:none;stroke-width:1;stroke-linecap:round;stroke-linejoin:round;stroke:rgb(100%,100%,100%);stroke-opacity:1;stroke-dasharray:2,3;stroke-miterlimit:10;" d="M 157.949219 128.011719 L 161.339844 127.554688 L 165.917969 127.386719 L 169.320313 127.390625 L 166.710938 129.988281 L 165.695313 131.203125 L 164.789063 133.351563 L 164.675781 135.785156 L 165.976563 137.933594 L 168.160156 139.609375 L 169.488281 141.328125 "/>
<path style="fill:none;stroke-width:1;stroke-linecap:round;stroke-linejoin:round;stroke:rgb(100%,100%,100%);stroke-opacity:1;stroke-dasharray:2,3;stroke-miterlimit:10;" d="M 138.707031 230.675781 L 136.804688 231.148438 L 134.992188 231.835938 L 133.054688 233.089844 L 131.1875 235.640625 L 130.492188 236.585938 L 129.554688 239.652344 L 128.992188 242.835938 L 128.929688 246.210938 L 128.242188 248.777344 L 127.054688 251.398438 L 125.367188 253.710938 L 122.742188 256.335938 L 122.101563 257 "/>
<path style="fill:none;stroke-width:1;stroke-linecap:round;stroke-linejoin:round;stroke:rgb(100%,100%,100%);stroke-opacity:1;stroke-dasharray:2,3;stroke-miterlimit:10;" d="M 204.753906 140.25 L 203.242188 139.792969 L 199.8125 150.058594 L 198.703125 149.699219 L 201.722656 140.523438 L 199.421875 139.578125 L 198.667969 141.582031 L 197.179688 148.648438 "/>
<path style="fill:none;stroke-width:1;stroke-linecap:round;stroke-linejoin:round;stroke:rgb(100%,100%,100%);stroke-opacity:1;stroke-dasharray:2,3;stroke-miterlimit:10;" d="M 167.6875 113.957031 L 166.292969 111.414063 L 164.582031 106.757813 L 164.035156 102.851563 L 164.105469 99.597656 L 164.71875 96.996094 L 166.054688 93.605469 L 167.699219 90.867188 L 169.410156 87.71875 L 171.261719 84.773438 L 172.527344 82.375 L 173.144531 80.011719 L 172.953125 78.507813 "/>
<path style="fill:none;stroke-width:1;stroke-linecap:round;stroke-linejoin:round;stroke:rgb(100%,100%,100%);stroke-opacity:1;stroke-dasharray:2,3;stroke-miterlimit:10;" d="M 257 50.90625 L 252.613281 50.34375 L 250.605469 50.085938 L 244.546875 51.175781 "/>
<path style="fill:none;stroke-width:1;stroke-linecap:round;stroke-linejoin:round;stroke:rgb(100%,100%,100%);stroke-opacity:1;stroke-dasharray:2,3;stroke-miterlimit:10;" d="M 186.644531 96.296875 L 185.269531 96.921875 L 182.832031 98.234375 L 178.644531 102.546875 L 175.082031 107.984375 L 172.207031 113.171875 L 170.457031 118.105469 L 168.363281 122.660156 L 166.957031 124.167969 L 165.925781 125.035156 L 164.707031 125.601563 L 157.949219 128.011719 "/>
<path style="fill:none;stroke-width:1;stroke-linecap:round;stroke-linejoin:round;stroke:rgb(100%,100%,100%);stroke-opacity:1;stroke-dasharray:2,3;stroke-miterlimit:10;" d="M 257 30.730469 L 248.457031 30.863281 L 242.898438 32.746094 L 242.34375 34.144531 L 241.179688 34.617188 L 240.949219 35.648438 L 239.714844 36.394531 L 236.863281 37.894531 "/>
<path style="fill:none;stroke-width:1;stroke-linecap:round;stroke-linejoin:round;stroke:rgb(100%,100%,100%);stroke-opacity:1;stroke-dasharray:2,3;stroke-miterlimit:10;" d="M 144.308594 182.875 L 102.644531 163.867188 L 91.394531 188.304688 L 129.453125 205.816406 L 131.117188 207.222656 L 132.691406 208.523438 "/>
<path style="fill:none;stroke-width:1;stroke-linecap:round;stroke-linejoin:round;stroke:rgb(100%,100%,100%);stroke-opacity:1;stroke-dasharray:2,3;stroke-miterlimit:10;" d="M 209.175781 78.832031 L 206.929688 77.683594 L 204.152344 82.835938 L 193.527344 78.621094 L 188.996094 76.253906 L 181.101563 71.945313 L 177.652344 72.367188 L 172.953125 78.507813 L 149.089844 109.691406 L 141.738281 119.84375 L 140.65625 123.3125 L 140.617188 125.191406 L 142.308594 126.191406 L 145.367188 127.8125 L 148.058594 128.5625 L 149.96875 128.941406 L 153.933594 128.96875 L 157.949219 128.011719 L 162.175781 125.871094 L 165.121094 122.070313 L 165.964844 119.402344 L 167.6875 113.957031 L 167.6875 106.835938 L 168.03125 101.902344 L 169.160156 97.078125 L 170.699219 92.042969 L 172.207031 88.890625 L 174.878906 85.742188 L 179.707031 81.703125 L 184.332031 78.3125 L 188.996094 76.253906 "/>
<path style="fill:none;stroke-width:8;stroke-linecap:round;stroke-linejoin:round;stroke:rgb(75.686275%,70.980392%,61.568627%);stroke-opacity:1;stroke-miterlimit:10;" d="M 209.175781 78.832031 L 213.0625 80.265625 L 213.765625 80.742188 "/>
<path style="fill:none;stroke-width:10;stroke-linecap:round;stroke-linejoin:round;stroke:rgb(72.941176%,43.137255%,15.294118%);stroke-opacity:1;stroke-miterlimit:10;" d="M 246.410156 123.460938 L 232.464844 129.699219 L 220.28125 136.671875 L 211.082031 143.273438 "/>
<path style="fill:none;stroke-width:10;stroke-linecap:round;stroke-linejoin:round;stroke:rgb(72.941176%,43.137255%,15.294118%);stroke-opacity:1;stroke-miterlimit:10;" d="M 219.058594 142.214844 L 224.125 140.5 L 226.164063 139.511719 L 228.40625 138.390625 L 230.6875 137.34375 L 233.21875 136.046875 L 237.007813 134.238281 L 240.949219 132.339844 L 244.703125 130.917969 L 250.265625 128.847656 L 257.148438 126.84375 "/>
<path style="fill:none;stroke-width:8;stroke-linecap:round;stroke-linejoin:round;stroke:rgb(75.686275%,70.980392%,61.568627%);stroke-opacity:1;stroke-miterlimit:10;" d="M 250.046875 115.039063 L 246.410156 123.460938 "/>
<path style="fill:none;stroke-width:8;stroke-linecap:round;stroke-linejoin:round;stroke:rgb(75.686275%,70.980392%,61.568627%);stroke-opacity:1;stroke-miterlimit:10;" d="M 259.53125 118.421875 L 250.046875 115.039063 "/>
<path style="fill:none;stroke-width:8;stroke-linecap:round;stroke-linejoin:round;stroke:rgb(75.686275%,70.980392%,61.568627%);stroke-opacity:1;stroke-miterlimit:10;" d="M 206.472656 96.042969 L 219.683594 102.160156 "/>
<path style="fill:none;stroke-width:8;stroke-linecap:round;stroke-linejoin:round;stroke:rgb(75.686275%,70.980392%,61.568627%);stroke-opacity:1;stroke-miterlimit:10;" d="M 219.683594 102.160156 L 225 87.824219 "/>
<path style="fill:none;stroke-width:8;stroke-linecap:round;stroke-linejoin:round;stroke:rgb(75.686275%,70.980392%,61.568627%);stroke-opacity:1;stroke-miterlimit:10;" d="M 234.960938 89.996094 L 234.117188 92.105469 L 228.46875 105.664063 "/>
<path style="fill:none;stroke-width:8;stroke-linecap:round;stroke-linejoin:round;stroke:rgb(75.686275%,70.980392%,61.568627%);stroke-opacity:1;stroke-miterlimit:10;" d="M 231.652344 69.167969 L 226.929688 74.691406 L 221.601563 82.914063 L 220.636719 85.273438 "/>
<path style="fill:none;stroke-width:8;stroke-linecap:round;stroke-linejoin:round;stroke:rgb(75.686275%,70.980392%,61.568627%);stroke-opacity:1;stroke-miterlimit:10;" d="M 244.546875 51.175781 L 247.65625 58.855469 L 252.292969 70.300781 "/>
<path style="fill:none;stroke-width:8;stroke-linecap:round;stroke-linejoin:round;stroke:rgb(75.686275%,70.980392%,61.568627%);stroke-opacity:1;stroke-miterlimit:10;" d="M 224.890625 150.539063 L 227.972656 142.429688 L 228.578125 141.445313 L 229.542969 140.519531 L 230.59375 139.90625 L 241.5625 134.796875 L 242.746094 134.53125 "/>
<path style="fill:none;stroke-width:8;stroke-linecap:round;stroke-linejoin:round;stroke:rgb(75.686275%,70.980392%,61.568627%);stroke-opacity:1;stroke-miterlimit:10;" d="M 245.457031 157.628906 L 224.890625 150.539063 L 216.410156 147.808594 "/>
<path style="fill:none;stroke-width:8;stroke-linecap:round;stroke-linejoin:round;stroke:rgb(75.686275%,70.980392%,61.568627%);stroke-opacity:1;stroke-miterlimit:10;" d="M 246.410156 123.460938 L 215.9375 112.941406 "/>
<path style="fill:none;stroke-width:8;stroke-linecap:round;stroke-linejoin:round;stroke:rgb(75.686275%,70.980392%,61.568627%);stroke-opacity:1;stroke-miterlimit:10;" d="M 250.046875 115.039063 L 248.839844 113.324219 L 228.46875 105.664063 L 219.683594 102.160156 "/>
<path style="fill:none;stroke-width:8;stroke-linecap:round;stroke-linejoin:round;stroke:rgb(75.686275%,70.980392%,61.568627%);stroke-opacity:1;stroke-miterlimit:10;" d="M 264 254.316406 L 253.167969 250.550781 "/>
<path style="fill:none;stroke-width:8;stroke-linecap:round;stroke-linejoin:round;stroke:rgb(75.686275%,70.980392%,61.568627%);stroke-opacity:1;stroke-miterlimit:10;" d="M 204.410156 146.238281 L 205.222656 144 L 206.324219 140.710938 L 215.9375 112.941406 L 219.683594 102.160156 "/>
<path style="fill:none;stroke-width:8;stroke-linecap:round;stroke-linejoin:round;stroke:rgb(75.686275%,70.980392%,61.568627%);stroke-opacity:1;stroke-miterlimit:10;" d="M 242.746094 134.53125 L 243.855469 134.605469 L 245.136719 135.027344 L 252.425781 137.585938 L 264 141.835938 "/>
<path style="fill:none;stroke-width:8;stroke-linecap:round;stroke-linejoin:round;stroke:rgb(75.686275%,70.980392%,61.568627%);stroke-opacity:1;stroke-miterlimit:10;" d="M 264 164.273438 L 245.457031 157.628906 "/>
<path style="fill:none;stroke-width:8;stroke-linecap:round;stroke-linejoin:round;stroke:rgb(75.686275%,70.980392%,61.568627%);stroke-opacity:1;stroke-miterlimit:10;" d="M 264 70.757813 L 252.292969 70.300781 L 231.652344 69.167969 "/>
<path style="fill:none;stroke-width:8;stroke-linecap:round;stroke-linejoin:round;stroke:rgb(75.686275%,70.980392%,61.568627%);stroke-opacity:1;stroke-miterlimit:10;" d="M 253.167969 250.550781 L 216.234375 237.398438 L 196.40625 230.238281 L 176.636719 222.949219 "/>
<path style="fill:none;stroke-width:8;stroke-linecap:round;stroke-linejoin:round;stroke:rgb(75.686275%,70.980392%,61.568627%);stroke-opacity:1;stroke-miterlimit:10;" d="M 183.707031 203.003906 L 203.652344 210.167969 L 223.527344 217.511719 L 260.390625 230.972656 "/>
<path style="fill:none;stroke-width:8;stroke-linecap:round;stroke-linejoin:round;stroke:rgb(75.686275%,70.980392%,61.568627%);stroke-opacity:1;stroke-miterlimit:10;" d="M 264 209.664063 L 230.796875 197.472656 L 210.898438 190.25 L 191 182.996094 "/>
<path style="fill:none;stroke-width:8;stroke-linecap:round;stroke-linejoin:round;stroke:rgb(75.686275%,70.980392%,61.568627%);stroke-opacity:1;stroke-miterlimit:10;" d="M 198.199219 162.988281 L 218.003906 170.273438 L 237.976563 177.527344 L 264 187.070313 "/>
<path style="fill:none;stroke-width:8;stroke-linecap:round;stroke-linejoin:round;stroke:rgb(75.686275%,70.980392%,61.568627%);stroke-opacity:1;stroke-miterlimit:10;" d="M 161.050781 264 L 176.636719 222.949219 L 183.707031 203.003906 L 191 182.996094 L 193.003906 177.425781 L 198.199219 162.988281 L 199.566406 159.296875 "/>
<path style="fill:none;stroke-width:8;stroke-linecap:round;stroke-linejoin:round;stroke:rgb(75.686275%,70.980392%,61.568627%);stroke-opacity:1;stroke-miterlimit:10;" d="M 224.890625 150.539063 L 218.003906 170.273438 L 210.898438 190.25 L 203.652344 210.167969 L 196.40625 230.238281 L 184.09375 264 "/>
<path style="fill:none;stroke-width:8;stroke-linecap:round;stroke-linejoin:round;stroke:rgb(75.686275%,70.980392%,61.568627%);stroke-opacity:1;stroke-miterlimit:10;" d="M 264 221.277344 L 260.390625 230.972656 L 253.167969 250.550781 L 248.261719 264 "/>
<path style="fill:none;stroke-width:8;stroke-linecap:round;stroke-linejoin:round;stroke:rgb(75.686275%,70.980392%,61.568627%);stroke-opacity:1;stroke-miterlimit:10;" d="M 206.605469 264 L 216.234375 237.398438 L 223.527344 217.511719 L 230.796875 197.472656 L 237.976563 177.527344 L 245.457031 157.628906 L 252.425781 137.585938 L 253.160156 135.457031 L 255.699219 128.792969 L 257.148438 126.84375 "/>
<path style="fill:none;stroke-width:9;stroke-linecap:round;stroke-linejoin:round;stroke:rgb(75.686275%,70.980392%,61.568627%);stroke-opacity:1;stroke-miterlimit:10;" d="M 212.488281 83.046875 L 212.042969 84.074219 "/>
<path style="fill:none;stroke-width:9;stroke-linecap:round;stroke-linejoin:round;stroke:rgb(75.686275%,70.980392%,61.568627%);stroke-opacity:1;stroke-miterlimit:10;" d="M 213.765625 80.742188 L 212.488281 83.046875 "/>
<path style="fill:none;stroke-width:9;stroke-linecap:round;stroke-linejoin:round;stroke:rgb(75.686275%,70.980392%,61.568627%);stroke-opacity:1;stroke-miterlimit:10;" d="M 221.601563 82.914063 L 218.53125 81.386719 L 215.21875 80.523438 L 213.765625 80.742188 "/>
<path style="fill:none;stroke-width:9;stroke-linecap:round;stroke-linejoin:round;stroke:rgb(75.686275%,70.980392%,61.568627%);stroke-opacity:1;stroke-miterlimit:10;" d="M 256.917969 102.570313 L 247.933594 97.398438 "/>
<path style="fill:none;stroke-width:9;stroke-linecap:round;stroke-linejoin:round;stroke:rgb(75.686275%,70.980392%,61.568627%);stroke-opacity:1;stroke-miterlimit:10;" d="M 234.117188 92.105469 L 237.5 93.75 L 246.8125 98.3125 "/>
<path style="fill:none;stroke-width:9;stroke-linecap:round;stroke-linejoin:round;stroke:rgb(75.686275%,70.980392%,61.568627%);stroke-opacity:1;stroke-miterlimit:10;" d="M 246.8125 98.3125 L 247.933594 97.398438 L 249.800781 96.191406 L 252.429688 95.09375 L 254.734375 94.347656 L 256.855469 93.75 L 259.71875 93.242188 L 263.339844 93.226563 "/>
<path style="fill:none;stroke-width:9;stroke-linecap:round;stroke-linejoin:round;stroke:rgb(75.686275%,70.980392%,61.568627%);stroke-opacity:1;stroke-miterlimit:10;" d="M 212.488281 83.046875 L 215.457031 82.871094 L 220.636719 85.273438 L 225 87.824219 L 234.117188 92.105469 "/>
<path style="fill:none;stroke-width:9;stroke-linecap:round;stroke-linejoin:round;stroke:rgb(75.686275%,70.980392%,61.568627%);stroke-opacity:1;stroke-miterlimit:10;" d="M 246.8125 98.3125 L 262.480469 110.476563 L 265 113.046875 "/>
<path style="fill:none;stroke-width:9;stroke-linecap:round;stroke-linejoin:round;stroke:rgb(75.686275%,70.980392%,61.568627%);stroke-opacity:1;stroke-miterlimit:10;" d="M 247.933594 97.398438 L 234.960938 89.996094 L 221.601563 82.914063 "/>
<path style="fill:none;stroke-width:9;stroke-linecap:round;stroke-linejoin:round;stroke:rgb(75.686275%,70.980392%,61.568627%);stroke-opacity:1;stroke-miterlimit:10;" d="M 212.042969 84.074219 L 206.472656 96.042969 L 201.496094 106.980469 L 198.859375 113.144531 L 196.984375 117.652344 L 190.417969 134.710938 L 167.953125 196.980469 L 160.378906 218.035156 L 143.273438 265 "/>
<path style="fill:none;stroke-width:10;stroke-linecap:round;stroke-linejoin:round;stroke:rgb(75.686275%,70.980392%,61.568627%);stroke-opacity:1;stroke-miterlimit:10;" d="M 259.53125 118.421875 L 257.542969 119.074219 L 254.691406 119.878906 L 250.992188 121.066406 L 249.894531 121.660156 L 248.113281 122.527344 L 246.410156 123.460938 "/>
<path style="fill:none;stroke-width:10;stroke-linecap:round;stroke-linejoin:round;stroke:rgb(75.686275%,70.980392%,61.568627%);stroke-opacity:1;stroke-miterlimit:10;" d="M -11 3.921875 L -6.9375 0.59375 L 0.539063 -5.585938 "/>
<path style="fill:none;stroke-width:11;stroke-linecap:round;stroke-linejoin:round;stroke:rgb(72.941176%,43.137255%,15.294118%);stroke-opacity:1;stroke-miterlimit:10;" d="M 212.390625 146.226563 L 219.058594 142.214844 L 226.441406 137.910156 L 233.132813 134.320313 L 236.945313 132.457031 L 240.824219 130.726563 L 246.113281 128.605469 L 250.167969 127.105469 L 254.5 125.644531 L 258.261719 124.59375 L 262.101563 123.613281 L 265.800781 122.945313 L 267 122.8125 "/>
<path style="fill:none;stroke-width:11;stroke-linecap:round;stroke-linejoin:round;stroke:rgb(72.941176%,43.137255%,15.294118%);stroke-opacity:1;stroke-miterlimit:10;" d="M 267 121.816406 L 264.628906 122.070313 L 260.921875 122.757813 L 257.269531 123.710938 L 254.421875 124.652344 L 250.605469 125.839844 L 246.289063 127.492188 L 242.011719 129.117188 L 237.769531 130.863281 L 232.589844 133.628906 L 221.390625 139.027344 L 211.191406 144.625 "/>
<path style="fill:none;stroke-width:11;stroke-linecap:round;stroke-linejoin:round;stroke:rgb(72.941176%,43.137255%,15.294118%);stroke-opacity:1;stroke-miterlimit:10;" d="M 195.257813 157.96875 L 189.988281 163.425781 L 184.390625 170.230469 L 178.988281 177.828125 L 174.589844 186.027344 L 170.191406 197.027344 L 144.292969 267 "/>
<path style="fill:none;stroke-width:11;stroke-linecap:round;stroke-linejoin:round;stroke:rgb(72.941176%,43.137255%,15.294118%);stroke-opacity:1;stroke-miterlimit:10;" d="M 146.164063 267 L 172.027344 197.46875 L 176.429688 186.871094 L 178.839844 181.027344 L 179.980469 178.839844 L 185.589844 171.828125 L 190.789063 165.429688 L 193.894531 161.882813 "/>
<path style="fill:none;stroke-width:6;stroke-linecap:round;stroke-linejoin:round;stroke:rgb(100%,100%,100%);stroke-opacity:1;stroke-miterlimit:10;" d="M 209.175781 78.832031 L 213.0625 80.265625 L 213.765625 80.742188 "/>
<path style="fill:none;stroke-width:8;stroke-linecap:round;stroke-linejoin:round;stroke:rgb(99.215686%,57.254902%,22.745098%);stroke-opacity:1;stroke-miterlimit:10;" d="M 246.410156 123.460938 L 232.464844 129.699219 L 220.28125 136.671875 L 211.082031 143.273438 "/>
<path style="fill:none;stroke-width:8;stroke-linecap:round;stroke-linejoin:round;stroke:rgb(99.215686%,57.254902%,22.745098%);stroke-opacity:1;stroke-miterlimit:10;" d="M 219.058594 142.214844 L 224.125 140.5 L 226.164063 139.511719 L 228.40625 138.390625 L 230.6875 137.34375 L 233.21875 136.046875 L 237.007813 134.238281 L 240.949219 132.339844 L 244.703125 130.917969 L 250.265625 128.847656 L 257.148438 126.84375 "/>
<path style="fill:none;stroke-width:6;stroke-linecap:round;stroke-linejoin:round;stroke:rgb(100%,100%,100%);stroke-opacity:1;stroke-miterlimit:10;" d="M 250.046875 115.039063 L 246.410156 123.460938 "/>
<path style="fill:none;stroke-width:6;stroke-linecap:round;stroke-linejoin:round;stroke:rgb(100%,100%,100%);stroke-opacity:1;stroke-miterlimit:10;" d="M 259.53125 118.421875 L 250.046875 115.039063 "/>
<path style="fill:none;stroke-width:6;stroke-linecap:round;stroke-linejoin:round;stroke:rgb(100%,100%,100%);stroke-opacity:1;stroke-miterlimit:10;" d="M 206.472656 96.042969 L 219.683594 102.160156 "/>
<path style="fill:none;stroke-width:6;stroke-linecap:round;stroke-linejoin:round;stroke:rgb(100%,100%,100%);stroke-opacity:1;stroke-miterlimit:10;" d="M 219.683594 102.160156 L 225 87.824219 "/>
<path style="fill:none;stroke-width:6;stroke-linecap:round;stroke-linejoin:round;stroke:rgb(100%,100%,100%);stroke-opacity:1;stroke-miterlimit:10;" d="M 234.960938 89.996094 L 234.117188 92.105469 L 228.46875 105.664063 "/>
<path style="fill:none;stroke-width:6;stroke-linecap:round;stroke-linejoin:round;stroke:rgb(100%,100%,100%);stroke-opacity:1;stroke-miterlimit:10;" d="M 231.652344 69.167969 L 226.929688 74.691406 L 221.601563 82.914063 L 220.636719 85.273438 "/>
<path style="fill:none;stroke-width:6;stroke-linecap:round;stroke-linejoin:round;stroke:rgb(100%,100%,100%);stroke-opacity:1;stroke-miterlimit:10;" d="M 244.546875 51.175781 L 247.65625 58.855469 L 252.292969 70.300781 "/>
<path style="fill:none;stroke-width:6;stroke-linecap:round;stroke-linejoin:round;stroke:rgb(100%,100%,100%);stroke-opacity:1;stroke-miterlimit:10;" d="M 224.890625 150.539063 L 227.972656 142.429688 L 228.578125 141.445313 L 229.542969 140.519531 L 230.59375 139.90625 L 241.5625 134.796875 L 242.746094 134.53125 "/>
<path style="fill:none;stroke-width:6;stroke-linecap:round;stroke-linejoin:round;stroke:rgb(100%,100%,100%);stroke-opacity:1;stroke-miterlimit:10;" d="M 245.457031 157.628906 L 224.890625 150.539063 L 216.410156 147.808594 "/>
<path style="fill:none;stroke-width:6;stroke-linecap:round;stroke-linejoin:round;stroke:rgb(100%,100%,100%);stroke-opacity:1;stroke-miterlimit:10;" d="M 246.410156 123.460938 L 215.9375 112.941406 "/>
<path style="fill:none;stroke-width:6;stroke-linecap:round;stroke-linejoin:round;stroke:rgb(100%,100%,100%);stroke-opacity:1;stroke-miterlimit:10;" d="M 250.046875 115.039063 L 248.839844 113.324219 L 228.46875 105.664063 L 219.683594 102.160156 "/>
<path style="fill:none;stroke-width:6;stroke-linecap:round;stroke-linejoin:round;stroke:rgb(100%,100%,100%);stroke-opacity:1;stroke-miterlimit:10;" d="M 264 254.316406 L 253.167969 250.550781 "/>
<path style="fill:none;stroke-width:6;stroke-linecap:round;stroke-linejoin:round;stroke:rgb(100%,100%,100%);stroke-opacity:1;stroke-miterlimit:10;" d="M 204.410156 146.238281 L 205.222656 144 L 206.324219 140.710938 L 215.9375 112.941406 L 219.683594 102.160156 "/>
<path style="fill:none;stroke-width:6;stroke-linecap:round;stroke-linejoin:round;stroke:rgb(100%,100%,100%);stroke-opacity:1;stroke-miterlimit:10;" d="M 242.746094 134.53125 L 243.855469 134.605469 L 245.136719 135.027344 L 252.425781 137.585938 L 264 141.835938 "/>
<path style="fill:none;stroke-width:6;stroke-linecap:round;stroke-linejoin:round;stroke:rgb(100%,100%,100%);stroke-opacity:1;stroke-miterlimit:10;" d="M 264 164.273438 L 245.457031 157.628906 "/>
<path style="fill:none;stroke-width:6;stroke-linecap:round;stroke-linejoin:round;stroke:rgb(100%,100%,100%);stroke-opacity:1;stroke-miterlimit:10;" d="M 264 70.757813 L 252.292969 70.300781 L 231.652344 69.167969 "/>
<path style="fill:none;stroke-width:6;stroke-linecap:round;stroke-linejoin:round;stroke:rgb(100%,100%,100%);stroke-opacity:1;stroke-miterlimit:10;" d="M 253.167969 250.550781 L 216.234375 237.398438 L 196.40625 230.238281 L 176.636719 222.949219 "/>
<path style="fill:none;stroke-width:6;stroke-linecap:round;stroke-linejoin:round;stroke:rgb(100%,100%,100%);stroke-opacity:1;stroke-miterlimit:10;" d="M 183.707031 203.003906 L 203.652344 210.167969 L 223.527344 217.511719 L 260.390625 230.972656 "/>
<path style="fill:none;stroke-width:6;stroke-linecap:round;stroke-linejoin:round;stroke:rgb(100%,100%,100%);stroke-opacity:1;stroke-miterlimit:10;" d="M 264 209.664063 L 230.796875 197.472656 L 210.898438 190.25 L 191 182.996094 "/>
<path style="fill:none;stroke-width:6;stroke-linecap:round;stroke-linejoin:round;stroke:rgb(100%,100%,100%);stroke-opacity:1;stroke-miterlimit:10;" d="M 198.199219 162.988281 L 218.003906 170.273438 L 237.976563 177.527344 L 264 187.070313 "/>
<path style="fill:none;stroke-width:6;stroke-linecap:round;stroke-linejoin:round;stroke:rgb(100%,100%,100%);stroke-opacity:1;stroke-miterlimit:10;" d="M 161.050781 264 L 176.636719 222.949219 L 183.707031 203.003906 L 191 182.996094 L 193.003906 177.425781 L 198.199219 162.988281 L 199.566406 159.296875 "/>
<path style="fill:none;stroke-width:6;stroke-linecap:round;stroke-linejoin:round;stroke:rgb(100%,100%,100%);stroke-opacity:1;stroke-miterlimit:10;" d="M 224.890625 150.539063 L 218.003906 170.273438 L 210.898438 190.25 L 203.652344 210.167969 L 196.40625 230.238281 L 184.09375 264 "/>
<path style="fill:none;stroke-width:6;stroke-linecap:round;stroke-linejoin:round;stroke:rgb(100%,100%,100%);stroke-opacity:1;stroke-miterlimit:10;" d="M 264 221.277344 L 260.390625 230.972656 L 253.167969 250.550781 L 248.261719 264 "/>
<path style="fill:none;stroke-width:6;stroke-linecap:round;stroke-linejoin:round;stroke:rgb(100%,99.215686%,54.509804%);stroke-opacity:1;stroke-miterlimit:10;" d="M 206.605469 264 L 216.234375 237.398438 L 223.527344 217.511719 L 230.796875 197.472656 L 237.976563 177.527344 L 245.457031 157.628906 L 252.425781 137.585938 L 253.160156 135.457031 L 255.699219 128.792969 L 257.148438 126.84375 "/>
<path style="fill:none;stroke-width:7;stroke-linecap:round;stroke-linejoin:round;stroke:rgb(100%,99.215686%,54.509804%);stroke-opacity:1;stroke-miterlimit:10;" d="M 212.488281 83.046875 L 212.042969 84.074219 "/>
<path style="fill:none;stroke-width:7;stroke-linecap:round;stroke-linejoin:round;stroke:rgb(100%,99.215686%,54.509804%);stroke-opacity:1;stroke-miterlimit:10;" d="M 213.765625 80.742188 L 212.488281 83.046875 "/>
<path style="fill:none;stroke-width:7;stroke-linecap:round;stroke-linejoin:round;stroke:rgb(100%,99.215686%,54.509804%);stroke-opacity:1;stroke-miterlimit:10;" d="M 221.601563 82.914063 L 218.53125 81.386719 L 215.21875 80.523438 L 213.765625 80.742188 "/>
<path style="fill:none;stroke-width:7;stroke-linecap:round;stroke-linejoin:round;stroke:rgb(100%,99.215686%,54.509804%);stroke-opacity:1;stroke-miterlimit:10;" d="M 256.917969 102.570313 L 247.933594 97.398438 "/>
<path style="fill:none;stroke-width:7;stroke-linecap:round;stroke-linejoin:round;stroke:rgb(100%,99.215686%,54.509804%);stroke-opacity:1;stroke-miterlimit:10;" d="M 234.117188 92.105469 L 237.5 93.75 L 246.8125 98.3125 "/>
<path style="fill:none;stroke-width:7;stroke-linecap:round;stroke-linejoin:round;stroke:rgb(100%,99.215686%,54.509804%);stroke-opacity:1;stroke-miterlimit:10;" d="M 246.8125 98.3125 L 247.933594 97.398438 L 249.800781 96.191406 L 252.429688 95.09375 L 254.734375 94.347656 L 256.855469 93.75 L 259.71875 93.242188 L 263.339844 93.226563 "/>
<path style="fill:none;stroke-width:7;stroke-linecap:round;stroke-linejoin:round;stroke:rgb(100%,99.215686%,54.509804%);stroke-opacity:1;stroke-miterlimit:10;" d="M 212.488281 83.046875 L 215.457031 82.871094 L 220.636719 85.273438 L 225 87.824219 L 234.117188 92.105469 "/>
<path style="fill:none;stroke-width:7;stroke-linecap:round;stroke-linejoin:round;stroke:rgb(100%,99.215686%,54.509804%);stroke-opacity:1;stroke-miterlimit:10;" d="M 246.8125 98.3125 L 262.480469 110.476563 L 265 113.046875 "/>
<path style="fill:none;stroke-width:7;stroke-linecap:round;stroke-linejoin:round;stroke:rgb(100%,99.215686%,54.509804%);stroke-opacity:1;stroke-miterlimit:10;" d="M 247.933594 97.398438 L 234.960938 89.996094 L 221.601563 82.914063 "/>
<path style="fill:none;stroke-width:7;stroke-linecap:round;stroke-linejoin:round;stroke:rgb(100%,99.215686%,54.509804%);stroke-opacity:1;stroke-miterlimit:10;" d="M 212.042969 84.074219 L 206.472656 96.042969 L 201.496094 106.980469 L 198.859375 113.144531 L 196.984375 117.652344 L 190.417969 134.710938 L 167.953125 196.980469 L 160.378906 218.035156 L 143.273438 265 "/>
<path style="fill:none;stroke-width:8;stroke-linecap:round;stroke-linejoin:round;stroke:rgb(100%,99.215686%,54.509804%);stroke-opacity:1;stroke-miterlimit:10;" d="M 259.53125 118.421875 L 257.542969 119.074219 L 254.691406 119.878906 L 250.992188 121.066406 L 249.894531 121.660156 L 248.113281 122.527344 L 246.410156 123.460938 "/>
<path style="fill:none;stroke-width:8;stroke-linecap:round;stroke-linejoin:round;stroke:rgb(100%,99.215686%,54.509804%);stroke-opacity:1;stroke-miterlimit:10;" d="M -11 3.921875 L -6.9375 0.59375 L 0.539063 -5.585938 "/>
<path style="fill:none;stroke-width:9;stroke-linecap:round;stroke-linejoin:round;stroke:rgb(99.215686%,57.254902%,22.745098%);stroke-opacity:1;stroke-miterlimit:10;" d="M 212.390625 146.226563 L 219.058594 142.214844 L 226.441406 137.910156 L 233.132813 134.320313 L 236.945313 132.457031 L 240.824219 130.726563 L 246.113281 128.605469 L 250.167969 127.105469 L 254.5 125.644531 L 258.261719 124.59375 L 262.101563 123.613281 L 265.800781 122.945313 L 267 122.8125 "/>
<path style="fill:none;stroke-width:9;stroke-linecap:round;stroke-linejoin:round;stroke:rgb(99.215686%,57.254902%,22.745098%);stroke-opacity:1;stroke-miterlimit:10;" d="M 267 121.816406 L 264.628906 122.070313 L 260.921875 122.757813 L 257.269531 123.710938 L 254.421875 124.652344 L 250.605469 125.839844 L 246.289063 127.492188 L 242.011719 129.117188 L 237.769531 130.863281 L 232.589844 133.628906 L 221.390625 139.027344 L 211.191406 144.625 "/>
<path style="fill:none;stroke-width:5;stroke-linecap:butt;stroke-linejoin:round;stroke:rgb(53.333333%,53.333333%,53.333333%);stroke-opacity:1;stroke-miterlimit:10;" d="M 148.457031 184.746094 L 144.308594 182.875 "/>
<path style="fill:none;stroke-width:5;stroke-linecap:butt;stroke-linejoin:round;stroke:rgb(53.333333%,53.333333%,53.333333%);stroke-opacity:1;stroke-miterlimit:10;" d="M 132.691406 208.523438 L 137.394531 212.394531 "/>
<path style="fill:none;stroke-width:8;stroke-linecap:butt;stroke-linejoin:round;stroke:rgb(53.333333%,53.333333%,53.333333%);stroke-opacity:1;stroke-miterlimit:10;" d="M 199.566406 159.296875 L 204.410156 146.238281 "/>
<path style="fill:none;stroke-width:9;stroke-linecap:round;stroke-linejoin:round;stroke:rgb(99.215686%,57.254902%,22.745098%);stroke-opacity:1;stroke-miterlimit:10;" d="M 195.257813 157.96875 L 189.988281 163.425781 L 184.390625 170.230469 L 178.988281 177.828125 L 174.589844 186.027344 L 170.191406 197.027344 L 144.292969 267 "/>
<path style="fill:none;stroke-width:11;stroke-linecap:butt;stroke-linejoin:round;stroke:rgb(53.333333%,53.333333%,53.333333%);stroke-opacity:1;stroke-miterlimit:10;" d="M -10 10.890625 L -3.480469 5.363281 L 14.03125 -9.46875 L 14.671875 -10 "/>
<path style="fill:none;stroke-width:11;stroke-linecap:butt;stroke-linejoin:round;stroke:rgb(53.333333%,53.333333%,53.333333%);stroke-opacity:1;stroke-miterlimit:10;" d="M 9.96875 -10 L -10 6.851563 "/>
<path style="fill:none;stroke-width:9;stroke-linecap:round;stroke-linejoin:round;stroke:rgb(99.215686%,57.254902%,22.745098%);stroke-opacity:1;stroke-miterlimit:10;" d="M 146.164063 267 L 172.027344 197.46875 L 176.429688 186.871094 L 178.839844 181.027344 L 179.980469 178.839844 L 185.589844 171.828125 L 190.789063 165.429688 L 193.894531 161.882813 "/>
<path style="fill:none;stroke-width:5;stroke-linecap:butt;stroke-linejoin:round;stroke:rgb(53.333333%,53.333333%,53.333333%);stroke-opacity:1;stroke-miterlimit:10;" d="M 224.667969 48.855469 L 259 85.039063 "/>
<path style="fill:none;stroke-width:5;stroke-linecap:butt;stroke-linejoin:round;stroke:rgb(53.333333%,53.333333%,53.333333%);stroke-opacity:1;stroke-miterlimit:10;" d="M 174.183594 -4 L 175.0625 -3.078125 L 189.492188 12.078125 L 192.339844 15.074219 L 198.011719 21.03125 L 209.144531 32.726563 L 219.03125 43.109375 "/>
<path style="fill:none;stroke-width:11;stroke-linecap:butt;stroke-linejoin:round;stroke:rgb(53.333333%,53.333333%,53.333333%);stroke-opacity:1;stroke-miterlimit:10;" d="M 265 88.417969 L 171.199219 -10 "/>
<path style="fill:none;stroke-width:11;stroke-linecap:butt;stroke-linejoin:round;stroke:rgb(53.333333%,53.333333%,53.333333%);stroke-opacity:1;stroke-miterlimit:10;" d="M 165.453125 -10 L 265 94.464844 "/>
<path style="fill:none;stroke-width:5;stroke-linecap:butt;stroke-linejoin:round;stroke:rgb(53.333333%,53.333333%,53.333333%);stroke-opacity:1;stroke-miterlimit:10;" d="M 219.03125 43.109375 L 219.335938 45.328125 L 222.617188 48.65625 L 224.667969 48.855469 "/>
<path style="fill:none;stroke-width:3;stroke-linecap:round;stroke-linejoin:round;stroke:rgb(98.039216%,98.039216%,96.078431%);stroke-opacity:1;stroke-miterlimit:10;" d="M 148.457031 184.746094 L 144.308594 182.875 "/>
<path style="fill:none;stroke-width:3;stroke-linecap:round;stroke-linejoin:round;stroke:rgb(98.039216%,98.039216%,96.078431%);stroke-opacity:1;stroke-miterlimit:10;" d="M 132.691406 208.523438 L 137.394531 212.394531 "/>
<path style="fill:none;stroke-width:6;stroke-linecap:round;stroke-linejoin:round;stroke:rgb(100%,100%,100%);stroke-opacity:1;stroke-miterlimit:10;" d="M 199.566406 159.296875 L 204.410156 146.238281 "/>
<path style="fill:none;stroke-width:9;stroke-linecap:round;stroke-linejoin:round;stroke:rgb(99.215686%,57.254902%,22.745098%);stroke-opacity:1;stroke-miterlimit:10;" d="M -10 10.890625 L -3.480469 5.363281 L 14.03125 -9.46875 L 14.671875 -10 "/>
<path style="fill:none;stroke-width:9;stroke-linecap:round;stroke-linejoin:round;stroke:rgb(99.215686%,57.254902%,22.745098%);stroke-opacity:1;stroke-miterlimit:10;" d="M 9.96875 -10 L -10 6.851563 "/>
<path style="fill:none;stroke-width:3;stroke-linecap:round;stroke-linejoin:round;stroke:rgb(98.039216%,98.039216%,96.078431%);stroke-opacity:1;stroke-miterlimit:10;" d="M 224.667969 48.855469 L 259 85.039063 "/>
<path style="fill:none;stroke-width:3;stroke-linecap:round;stroke-linejoin:round;stroke:rgb(98.039216%,98.039216%,96.078431%);stroke-opacity:1;stroke-miterlimit:10;" d="M 174.183594 -4 L 175.0625 -3.078125 L 189.492188 12.078125 L 192.339844 15.074219 L 198.011719 21.03125 L 209.144531 32.726563 L 219.03125 43.109375 "/>
<path style="fill:none;stroke-width:9;stroke-linecap:round;stroke-linejoin:round;stroke:rgb(99.215686%,57.254902%,22.745098%);stroke-opacity:1;stroke-miterlimit:10;" d="M 265 88.417969 L 171.199219 -10 "/>
<path style="fill:none;stroke-width:9;stroke-linecap:round;stroke-linejoin:round;stroke:rgb(99.215686%,57.254902%,22.745098%);stroke-opacity:1;stroke-miterlimit:10;" d="M 165.453125 -10 L 265 94.464844 "/>
<path style="fill:none;stroke-width:3;stroke-linecap:round;stroke-linejoin:round;stroke:rgb(98.039216%,98.039216%,96.078431%);stroke-opacity:1;stroke-miterlimit:10;" d="M 219.03125 43.109375 L 219.335938 45.328125 L 222.617188 48.65625 L 224.667969 48.855469 "/>
<path style=" stroke:none;fill-rule:evenodd;fill:rgb(33.333333%,33.333333%,33.333333%);fill-opacity:1;" d="M 157.527344 224.261719 L 158.246094 222.339844 L 166.449219 225.386719 L 165.730469 227.308594 Z M 167.625 217.453125 L 168.84375 214.203125 L 170.390625 214.78125 L 168.390625 220.140625 L 166.84375 219.5625 L 165.1875 215.890625 C 165.054688 215.578125 164.890625 215.320313 164.703125 215.109375 C 164.507813 214.902344 164.28125 214.75 164.03125 214.65625 C 163.65625 214.523438 163.308594 214.527344 162.984375 214.671875 C 162.664063 214.820313 162.433594 215.085938 162.296875 215.46875 C 162.183594 215.761719 162.132813 216.109375 162.140625 216.515625 C 162.140625 216.921875 162.210938 217.382813 162.34375 217.890625 L 160.546875 217.21875 C 160.546875 216.71875 160.585938 216.246094 160.65625 215.796875 C 160.730469 215.351563 160.839844 214.921875 160.984375 214.515625 C 161.320313 213.640625 161.789063 213.042969 162.390625 212.71875 C 162.996094 212.386719 163.6875 212.367188 164.46875 212.65625 C 164.90625 212.824219 165.28125 213.085938 165.59375 213.4375 C 165.90625 213.78125 166.265625 214.402344 166.671875 215.296875 Z M 162.761719 210.191406 L 164.839844 204.628906 L 166.027344 205.066406 L 171.964844 210.535156 L 171.277344 212.394531 L 165.636719 207.207031 L 164.308594 210.769531 Z M 170.976563 201.957031 C 170.84375 202.324219 170.851563 202.640625 171.007813 202.910156 C 171.15625 203.183594 171.425781 203.390625 171.820313 203.535156 C 172.226563 203.691406 172.570313 203.71875 172.851563 203.613281 C 173.132813 203.5 173.339844 203.261719 173.476563 202.894531 C 173.609375 202.542969 173.605469 202.234375 173.460938 201.972656 C 173.316406 201.714844 173.039063 201.503906 172.632813 201.347656 C 172.226563 201.203125 171.882813 201.183594 171.601563 201.285156 C 171.320313 201.378906 171.113281 201.605469 170.976563 201.957031 Z M 169.773438 203.097656 C 169.453125 203.496094 169.09375 203.75 168.695313 203.863281 C 168.300781 203.980469 167.867188 203.949219 167.398438 203.769531 C 166.703125 203.511719 166.265625 203.078125 166.085938 202.472656 C 165.898438 201.871094 165.972656 201.121094 166.304688 200.222656 C 166.640625 199.339844 167.070313 198.734375 167.601563 198.410156 C 168.132813 198.078125 168.75 198.042969 169.445313 198.300781 C 169.914063 198.480469 170.257813 198.738281 170.476563 199.082031 C 170.695313 199.425781 170.804688 199.84375 170.804688 200.332031 C 171.148438 199.894531 171.539063 199.613281 171.976563 199.488281 C 172.40625 199.355469 172.882813 199.386719 173.414063 199.582031 C 174.234375 199.886719 174.761719 200.359375 174.992188 201.003906 C 175.21875 201.640625 175.15625 202.4375 174.804688 203.394531 C 174.449219 204.355469 173.976563 205.003906 173.382813 205.347656 C 172.789063 205.683594 172.082031 205.699219 171.257813 205.394531 C 170.726563 205.199219 170.34375 204.90625 170.101563 204.519531 C 169.851563 204.136719 169.742188 203.660156 169.773438 203.097656 Z M 168.289063 202.050781 C 168.613281 202.175781 168.894531 202.1875 169.132813 202.082031 C 169.363281 201.980469 169.535156 201.777344 169.648438 201.472656 C 169.753906 201.183594 169.753906 200.925781 169.648438 200.707031 C 169.535156 200.480469 169.316406 200.300781 168.992188 200.175781 C 168.660156 200.050781 168.378906 200.042969 168.148438 200.144531 C 167.910156 200.238281 167.738281 200.433594 167.632813 200.722656 C 167.519531 201.027344 167.519531 201.296875 167.632813 201.535156 C 167.75 201.765625 167.96875 201.9375 168.289063 202.050781 Z M 168.289063 202.050781 "/>
<path style="fill:none;stroke-width:3;stroke-linecap:round;stroke-linejoin:round;stroke:rgb(100%,100%,100%);stroke-opacity:1;stroke-miterlimit:10;" d="M 189.847656 236.480469 L 190.191406 235.558594 L 197.082031 236.464844 L 191.222656 232.714844 L 191.597656 231.683594 L 198.503906 232.574219 L 192.628906 228.839844 L 192.972656 227.902344 L 199.894531 232.355469 L 199.472656 233.511719 L 192.394531 232.542969 L 198.425781 236.386719 L 198.003906 237.527344 Z M 195.277344 227.417969 L 195.589844 226.574219 L 201.246094 228.621094 L 200.933594 229.464844 Z M 193.074219 226.621094 L 193.386719 225.777344 L 194.558594 226.199219 L 194.246094 227.042969 Z M 194.007813 224.035156 L 194.320313 223.191406 L 202.179688 226.035156 L 201.867188 226.878906 Z M 194.941406 221.449219 L 195.253906 220.605469 L 203.113281 223.449219 L 202.800781 224.292969 Z M 199.4375 217.925781 C 199.273438 218.375 199.339844 218.800781 199.640625 219.207031 C 199.945313 219.605469 200.429688 219.925781 201.09375 220.175781 C 201.773438 220.417969 202.355469 220.480469 202.84375 220.363281 C 203.324219 220.238281 203.644531 219.953125 203.8125 219.503906 C 203.976563 219.046875 203.910156 218.621094 203.609375 218.222656 C 203.320313 217.816406 202.835938 217.496094 202.15625 217.253906 C 201.492188 217.003906 200.914063 216.941406 200.421875 217.066406 C 199.933594 217.183594 199.605469 217.46875 199.4375 217.925781 Z M 198.65625 217.644531 C 198.917969 216.917969 199.386719 216.441406 200.0625 216.222656 C 200.742188 215.996094 201.542969 216.046875 202.46875 216.378906 C 203.398438 216.714844 204.046875 217.183594 204.421875 217.785156 C 204.796875 218.390625 204.851563 219.058594 204.59375 219.785156 C 204.320313 220.515625 203.851563 220.996094 203.1875 221.222656 C 202.511719 221.441406 201.710938 221.386719 200.78125 221.050781 C 199.855469 220.71875 199.203125 220.25 198.828125 219.644531 C 198.445313 219.042969 198.386719 218.375 198.65625 217.644531 Z M 199.960938 214.472656 L 200.273438 213.613281 L 205.054688 214.160156 L 201.023438 211.519531 L 201.382813 210.535156 L 206.164063 211.097656 L 202.132813 208.457031 L 202.429688 207.613281 L 207.601563 211.003906 L 207.257813 211.988281 L 202.210938 211.394531 L 206.460938 214.191406 L 206.101563 215.175781 Z M 203.832031 198.699219 L 204.816406 199.058594 C 204.503906 199.339844 204.25 199.621094 204.050781 199.902344 C 203.84375 200.183594 203.6875 200.472656 203.582031 200.761719 C 203.40625 201.261719 203.375 201.683594 203.488281 202.027344 C 203.605469 202.371094 203.859375 202.613281 204.253906 202.746094 C 204.589844 202.871094 204.875 202.882813 205.113281 202.777344 C 205.34375 202.664063 205.605469 202.371094 205.894531 201.902344 L 206.222656 201.386719 C 206.621094 200.761719 207.058594 200.351563 207.535156 200.152344 C 208.015625 199.957031 208.5625 199.964844 209.175781 200.183594 C 209.902344 200.457031 210.378906 200.882813 210.597656 201.464844 C 210.816406 202.039063 210.769531 202.746094 210.457031 203.589844 C 210.339844 203.914063 210.175781 204.246094 209.957031 204.589844 C 209.738281 204.925781 209.480469 205.253906 209.191406 205.574219 L 208.160156 205.199219 C 208.527344 204.910156 208.832031 204.605469 209.082031 204.292969 C 209.332031 203.972656 209.519531 203.636719 209.644531 203.292969 C 209.832031 202.785156 209.863281 202.339844 209.738281 201.964844 C 209.613281 201.589844 209.335938 201.324219 208.910156 201.167969 C 208.535156 201.042969 208.207031 201.050781 207.925781 201.183594 C 207.644531 201.308594 207.363281 201.585938 207.082031 202.011719 L 206.753906 202.511719 C 206.371094 203.148438 205.957031 203.566406 205.519531 203.761719 C 205.082031 203.949219 204.578125 203.933594 204.003906 203.714844 C 203.339844 203.476563 202.890625 203.074219 202.660156 202.511719 C 202.433594 201.949219 202.453125 201.292969 202.722656 200.542969 C 202.839844 200.222656 202.988281 199.910156 203.175781 199.605469 C 203.363281 199.304688 203.582031 199.003906 203.832031 198.699219 Z M 204.824219 196.09375 L 206.417969 196.671875 L 207.042969 194.953125 L 207.761719 195.21875 L 207.136719 196.9375 L 210.214844 198.0625 C 210.675781 198.230469 210.992188 198.28125 211.167969 198.21875 C 211.335938 198.148438 211.480469 197.9375 211.605469 197.59375 L 211.917969 196.734375 L 212.699219 197.015625 L 212.386719 197.875 C 212.144531 198.523438 211.84375 198.917969 211.480469 199.0625 C 211.128906 199.210938 210.601563 199.15625 209.902344 198.90625 L 206.824219 197.78125 L 206.605469 198.390625 L 205.886719 198.125 L 206.105469 197.515625 L 204.511719 196.9375 Z M 209.382813 191.234375 C 209.289063 191.296875 209.207031 191.382813 209.132813 191.484375 C 209.0625 191.589844 209.003906 191.703125 208.960938 191.828125 C 208.785156 192.308594 208.820313 192.734375 209.070313 193.109375 C 209.320313 193.484375 209.765625 193.792969 210.398438 194.03125 L 213.382813 195.109375 L 213.070313 195.953125 L 207.414063 193.890625 L 207.726563 193.046875 L 208.617188 193.375 C 208.335938 193.074219 208.164063 192.75 208.101563 192.40625 C 208.039063 192.0625 208.082031 191.695313 208.226563 191.296875 C 208.25 191.234375 208.273438 191.171875 208.304688 191.109375 C 208.335938 191.039063 208.378906 190.964844 208.429688 190.890625 Z M 212.980469 186.628906 L 213.433594 186.785156 L 212.058594 190.628906 C 212.714844 190.828125 213.269531 190.828125 213.714844 190.628906 C 214.164063 190.433594 214.480469 190.0625 214.667969 189.519531 C 214.792969 189.199219 214.859375 188.871094 214.871094 188.535156 C 214.890625 188.203125 214.875 187.855469 214.824219 187.488281 L 215.683594 187.800781 C 215.714844 188.15625 215.707031 188.503906 215.667969 188.847656 C 215.636719 189.183594 215.558594 189.515625 215.433594 189.847656 C 215.140625 190.660156 214.652344 191.214844 213.964844 191.503906 C 213.277344 191.785156 212.480469 191.765625 211.574219 191.441406 C 210.660156 191.121094 210.007813 190.636719 209.621094 189.988281 C 209.238281 189.332031 209.179688 188.625 209.449219 187.863281 C 209.699219 187.175781 210.144531 186.722656 210.777344 186.503906 C 211.402344 186.285156 212.136719 186.328125 212.980469 186.628906 Z M 212.402344 187.363281 C 211.882813 187.1875 211.429688 187.167969 211.042969 187.300781 C 210.660156 187.4375 210.386719 187.714844 210.230469 188.128906 C 210.066406 188.597656 210.082031 189.03125 210.277344 189.425781 C 210.464844 189.8125 210.816406 190.125 211.324219 190.363281 Z M 215.019531 180.886719 L 215.472656 181.058594 L 214.113281 184.902344 C 214.761719 185.089844 215.308594 185.085938 215.753906 184.886719 C 216.203125 184.691406 216.523438 184.320313 216.722656 183.777344 C 216.835938 183.457031 216.902344 183.128906 216.925781 182.792969 C 216.945313 182.460938 216.925781 182.117188 216.863281 181.761719 L 217.722656 182.058594 C 217.761719 182.414063 217.761719 182.761719 217.722656 183.105469 C 217.679688 183.441406 217.601563 183.769531 217.488281 184.089844 C 217.195313 184.914063 216.707031 185.472656 216.019531 185.761719 C 215.332031 186.042969 214.535156 186.027344 213.628906 185.714844 C 212.703125 185.382813 212.050781 184.894531 211.675781 184.246094 C 211.292969 183.601563 211.234375 182.898438 211.503906 182.136719 C 211.746094 181.449219 212.183594 180.996094 212.816406 180.777344 C 213.441406 180.550781 214.175781 180.585938 215.019531 180.886719 Z M 214.441406 181.621094 C 213.933594 181.445313 213.484375 181.429688 213.097656 181.574219 C 212.703125 181.710938 212.433594 181.988281 212.285156 182.402344 C 212.121094 182.871094 212.136719 183.304688 212.332031 183.699219 C 212.519531 184.085938 212.871094 184.394531 213.378906 184.621094 Z M 211.609375 177.175781 L 213.203125 177.753906 L 213.8125 176.019531 L 214.53125 176.269531 L 213.921875 178.003906 L 217 179.097656 C 217.46875 179.265625 217.792969 179.316406 217.96875 179.253906 C 218.136719 179.183594 218.28125 178.96875 218.40625 178.613281 L 218.703125 177.753906 L 219.484375 178.035156 L 219.1875 178.894531 C 218.957031 179.542969 218.660156 179.941406 218.296875 180.097656 C 217.945313 180.246094 217.414063 180.1875 216.703125 179.925781 L 213.625 178.832031 L 213.40625 179.457031 L 212.6875 179.207031 L 212.90625 178.582031 L 211.3125 178.003906 Z M 211.609375 177.175781 "/>
<path style=" stroke:none;fill-rule:evenodd;fill:rgb(20%,20%,20%);fill-opacity:1;" d="M 189.847656 236.480469 L 190.191406 235.558594 L 197.082031 236.464844 L 191.222656 232.714844 L 191.597656 231.683594 L 198.503906 232.574219 L 192.628906 228.839844 L 192.972656 227.902344 L 199.894531 232.355469 L 199.472656 233.511719 L 192.394531 232.542969 L 198.425781 236.386719 L 198.003906 237.527344 Z M 195.277344 227.417969 L 195.589844 226.574219 L 201.246094 228.621094 L 200.933594 229.464844 Z M 193.074219 226.621094 L 193.386719 225.777344 L 194.558594 226.199219 L 194.246094 227.042969 Z M 194.007813 224.035156 L 194.320313 223.191406 L 202.179688 226.035156 L 201.867188 226.878906 Z M 194.941406 221.449219 L 195.253906 220.605469 L 203.113281 223.449219 L 202.800781 224.292969 Z M 199.4375 217.925781 C 199.273438 218.375 199.339844 218.800781 199.640625 219.207031 C 199.945313 219.605469 200.429688 219.925781 201.09375 220.175781 C 201.773438 220.417969 202.355469 220.480469 202.84375 220.363281 C 203.324219 220.238281 203.644531 219.953125 203.8125 219.503906 C 203.976563 219.046875 203.910156 218.621094 203.609375 218.222656 C 203.320313 217.816406 202.835938 217.496094 202.15625 217.253906 C 201.492188 217.003906 200.914063 216.941406 200.421875 217.066406 C 199.933594 217.183594 199.605469 217.46875 199.4375 217.925781 Z M 198.65625 217.644531 C 198.917969 216.917969 199.386719 216.441406 200.0625 216.222656 C 200.742188 215.996094 201.542969 216.046875 202.46875 216.378906 C 203.398438 216.714844 204.046875 217.183594 204.421875 217.785156 C 204.796875 218.390625 204.851563 219.058594 204.59375 219.785156 C 204.320313 220.515625 203.851563 220.996094 203.1875 221.222656 C 202.511719 221.441406 201.710938 221.386719 200.78125 221.050781 C 199.855469 220.71875 199.203125 220.25 198.828125 219.644531 C 198.445313 219.042969 198.386719 218.375 198.65625 217.644531 Z M 199.960938 214.472656 L 200.273438 213.613281 L 205.054688 214.160156 L 201.023438 211.519531 L 201.382813 210.535156 L 206.164063 211.097656 L 202.132813 208.457031 L 202.429688 207.613281 L 207.601563 211.003906 L 207.257813 211.988281 L 202.210938 211.394531 L 206.460938 214.191406 L 206.101563 215.175781 Z M 203.832031 198.699219 L 204.816406 199.058594 C 204.503906 199.339844 204.25 199.621094 204.050781 199.902344 C 203.84375 200.183594 203.6875 200.472656 203.582031 200.761719 C 203.40625 201.261719 203.375 201.683594 203.488281 202.027344 C 203.605469 202.371094 203.859375 202.613281 204.253906 202.746094 C 204.589844 202.871094 204.875 202.882813 205.113281 202.777344 C 205.34375 202.664063 205.605469 202.371094 205.894531 201.902344 L 206.222656 201.386719 C 206.621094 200.761719 207.058594 200.351563 207.535156 200.152344 C 208.015625 199.957031 208.5625 199.964844 209.175781 200.183594 C 209.902344 200.457031 210.378906 200.882813 210.597656 201.464844 C 210.816406 202.039063 210.769531 202.746094 210.457031 203.589844 C 210.339844 203.914063 210.175781 204.246094 209.957031 204.589844 C 209.738281 204.925781 209.480469 205.253906 209.191406 205.574219 L 208.160156 205.199219 C 208.527344 204.910156 208.832031 204.605469 209.082031 204.292969 C 209.332031 203.972656 209.519531 203.636719 209.644531 203.292969 C 209.832031 202.785156 209.863281 202.339844 209.738281 201.964844 C 209.613281 201.589844 209.335938 201.324219 208.910156 201.167969 C 208.535156 201.042969 208.207031 201.050781 207.925781 201.183594 C 207.644531 201.308594 207.363281 201.585938 207.082031 202.011719 L 206.753906 202.511719 C 206.371094 203.148438 205.957031 203.566406 205.519531 203.761719 C 205.082031 203.949219 204.578125 203.933594 204.003906 203.714844 C 203.339844 203.476563 202.890625 203.074219 202.660156 202.511719 C 202.433594 201.949219 202.453125 201.292969 202.722656 200.542969 C 202.839844 200.222656 202.988281 199.910156 203.175781 199.605469 C 203.363281 199.304688 203.582031 199.003906 203.832031 198.699219 Z M 204.824219 196.09375 L 206.417969 196.671875 L 207.042969 194.953125 L 207.761719 195.21875 L 207.136719 196.9375 L 210.214844 198.0625 C 210.675781 198.230469 210.992188 198.28125 211.167969 198.21875 C 211.335938 198.148438 211.480469 197.9375 211.605469 197.59375 L 211.917969 196.734375 L 212.699219 197.015625 L 212.386719 197.875 C 212.144531 198.523438 211.84375 198.917969 211.480469 199.0625 C 211.128906 199.210938 210.601563 199.15625 209.902344 198.90625 L 206.824219 197.78125 L 206.605469 198.390625 L 205.886719 198.125 L 206.105469 197.515625 L 204.511719 196.9375 Z M 209.382813 191.234375 C 209.289063 191.296875 209.207031 191.382813 209.132813 191.484375 C 209.0625 191.589844 209.003906 191.703125 208.960938 191.828125 C 208.785156 192.308594 208.820313 192.734375 209.070313 193.109375 C 209.320313 193.484375 209.765625 193.792969 210.398438 194.03125 L 213.382813 195.109375 L 213.070313 195.953125 L 207.414063 193.890625 L 207.726563 193.046875 L 208.617188 193.375 C 208.335938 193.074219 208.164063 192.75 208.101563 192.40625 C 208.039063 192.0625 208.082031 191.695313 208.226563 191.296875 C 208.25 191.234375 208.273438 191.171875 208.304688 191.109375 C 208.335938 191.039063 208.378906 190.964844 208.429688 190.890625 Z M 212.980469 186.628906 L 213.433594 186.785156 L 212.058594 190.628906 C 212.714844 190.828125 213.269531 190.828125 213.714844 190.628906 C 214.164063 190.433594 214.480469 190.0625 214.667969 189.519531 C 214.792969 189.199219 214.859375 188.871094 214.871094 188.535156 C 214.890625 188.203125 214.875 187.855469 214.824219 187.488281 L 215.683594 187.800781 C 215.714844 188.15625 215.707031 188.503906 215.667969 188.847656 C 215.636719 189.183594 215.558594 189.515625 215.433594 189.847656 C 215.140625 190.660156 214.652344 191.214844 213.964844 191.503906 C 213.277344 191.785156 212.480469 191.765625 211.574219 191.441406 C 210.660156 191.121094 210.007813 190.636719 209.621094 189.988281 C 209.238281 189.332031 209.179688 188.625 209.449219 187.863281 C 209.699219 187.175781 210.144531 186.722656 210.777344 186.503906 C 211.402344 186.285156 212.136719 186.328125 212.980469 186.628906 Z M 212.402344 187.363281 C 211.882813 187.1875 211.429688 187.167969 211.042969 187.300781 C 210.660156 187.4375 210.386719 187.714844 210.230469 188.128906 C 210.066406 188.597656 210.082031 189.03125 210.277344 189.425781 C 210.464844 189.8125 210.816406 190.125 211.324219 190.363281 Z M 215.019531 180.886719 L 215.472656 181.058594 L 214.113281 184.902344 C 214.761719 185.089844 215.308594 185.085938 215.753906 184.886719 C 216.203125 184.691406 216.523438 184.320313 216.722656 183.777344 C 216.835938 183.457031 216.902344 183.128906 216.925781 182.792969 C 216.945313 182.460938 216.925781 182.117188 216.863281 181.761719 L 217.722656 182.058594 C 217.761719 182.414063 217.761719 182.761719 217.722656 183.105469 C 217.679688 183.441406 217.601563 183.769531 217.488281 184.089844 C 217.195313 184.914063 216.707031 185.472656 216.019531 185.761719 C 215.332031 186.042969 214.535156 186.027344 213.628906 185.714844 C 212.703125 185.382813 212.050781 184.894531 211.675781 184.246094 C 211.292969 183.601563 211.234375 182.898438 211.503906 182.136719 C 211.746094 181.449219 212.183594 180.996094 212.816406 180.777344 C 213.441406 180.550781 214.175781 180.585938 215.019531 180.886719 Z M 214.441406 181.621094 C 213.933594 181.445313 213.484375 181.429688 213.097656 181.574219 C 212.703125 181.710938 212.433594 181.988281 212.285156 182.402344 C 212.121094 182.871094 212.136719 183.304688 212.332031 183.699219 C 212.519531 184.085938 212.871094 184.394531 213.378906 184.621094 Z M 211.609375 177.175781 L 213.203125 177.753906 L 213.8125 176.019531 L 214.53125 176.269531 L 213.921875 178.003906 L 217 179.097656 C 217.46875 179.265625 217.792969 179.316406 217.96875 179.253906 C 218.136719 179.183594 218.28125 178.96875 218.40625 178.613281 L 218.703125 177.753906 L 219.484375 178.035156 L 219.1875 178.894531 C 218.957031 179.542969 218.660156 179.941406 218.296875 180.097656 C 217.945313 180.246094 217.414063 180.1875 216.703125 179.925781 L 213.625 178.832031 L 213.40625 179.457031 L 212.6875 179.207031 L 212.90625 178.582031 L 211.3125 178.003906 Z M 211.609375 177.175781 "/>
<path style="fill:none;stroke-width:3;stroke-linecap:round;stroke-linejoin:round;stroke:rgb(100%,100%,100%);stroke-opacity:1;stroke-miterlimit:10;" d="M 70.808594 101.003906 L 74.792969 97.410156 L 75.527344 98.222656 L 72.386719 101.050781 L 74.261719 103.128906 L 77.277344 100.410156 L 77.996094 101.207031 L 74.980469 103.925781 L 77.292969 106.472656 L 80.511719 103.566406 L 81.230469 104.363281 L 77.167969 108.035156 Z M 82.367188 98.511719 C 81.734375 99.085938 81.367188 99.566406 81.273438 99.949219 C 81.179688 100.324219 81.304688 100.707031 81.648438 101.089844 C 81.917969 101.394531 82.226563 101.554688 82.570313 101.574219 C 82.921875 101.585938 83.257813 101.449219 83.570313 101.167969 C 84.007813 100.773438 84.199219 100.289063 84.148438 99.714844 C 84.09375 99.144531 83.8125 98.574219 83.304688 98.011719 L 83.117188 97.808594 Z M 83.601563 96.746094 L 86.320313 99.761719 L 85.523438 100.464844 L 84.804688 99.667969 C 84.917969 100.136719 84.914063 100.570313 84.789063 100.964844 C 84.664063 101.363281 84.40625 101.738281 84.023438 102.089844 C 83.53125 102.527344 83.007813 102.726563 82.445313 102.683594 C 81.882813 102.632813 81.375 102.355469 80.914063 101.855469 C 80.382813 101.261719 80.160156 100.652344 80.242188 100.027344 C 80.328125 99.402344 80.722656 98.769531 81.429688 98.121094 L 82.507813 97.136719 L 82.429688 97.042969 C 82.074219 96.648438 81.6875 96.449219 81.257813 96.449219 C 80.820313 96.441406 80.390625 96.628906 79.960938 97.011719 C 79.703125 97.261719 79.476563 97.539063 79.289063 97.839844 C 79.09375 98.144531 78.941406 98.476563 78.835938 98.839844 L 78.117188 98.042969 C 78.285156 97.660156 78.472656 97.316406 78.679688 97.011719 C 78.890625 96.710938 79.125 96.441406 79.382813 96.199219 C 80.070313 95.585938 80.765625 95.324219 81.460938 95.417969 C 82.15625 95.503906 82.871094 95.945313 83.601563 96.746094 Z M 86.308594 90.433594 L 87.058594 91.261719 C 86.726563 91.347656 86.414063 91.464844 86.121094 91.621094 C 85.832031 91.769531 85.558594 91.957031 85.308594 92.183594 C 84.925781 92.527344 84.691406 92.855469 84.605469 93.167969 C 84.523438 93.480469 84.601563 93.773438 84.839844 94.042969 C 85.027344 94.242188 85.246094 94.332031 85.496094 94.308594 C 85.738281 94.289063 86.117188 94.144531 86.636719 93.871094 L 86.949219 93.714844 C 87.613281 93.339844 88.171875 93.167969 88.621094 93.199219 C 89.078125 93.230469 89.496094 93.460938 89.871094 93.886719 C 90.316406 94.378906 90.496094 94.925781 90.402344 95.527344 C 90.316406 96.132813 89.96875 96.710938 89.355469 97.261719 C 89.113281 97.480469 88.828125 97.691406 88.496094 97.886719 C 88.171875 98.085938 87.808594 98.257813 87.402344 98.402344 L 86.589844 97.511719 C 87.039063 97.441406 87.433594 97.316406 87.777344 97.136719 C 88.128906 96.960938 88.449219 96.746094 88.730469 96.496094 C 89.09375 96.175781 89.3125 95.851563 89.386719 95.527344 C 89.457031 95.207031 89.375 94.917969 89.136719 94.667969 C 88.925781 94.441406 88.691406 94.324219 88.433594 94.324219 C 88.171875 94.324219 87.75 94.488281 87.167969 94.808594 L 86.839844 94.980469 C 86.246094 95.316406 85.742188 95.460938 85.324219 95.417969 C 84.898438 95.378906 84.496094 95.152344 84.121094 94.746094 C 83.675781 94.246094 83.488281 93.714844 83.558594 93.152344 C 83.632813 92.589844 83.960938 92.050781 84.542969 91.527344 C 84.824219 91.269531 85.117188 91.050781 85.417969 90.871094 C 85.710938 90.683594 86.007813 90.539063 86.308594 90.433594 Z M 87.09375 86.75 L 88.453125 88.25 L 90.0625 86.796875 L 90.671875 87.46875 L 89.0625 88.921875 L 91.640625 91.78125 C 92.035156 92.210938 92.335938 92.433594 92.546875 92.453125 C 92.765625 92.476563 93.035156 92.34375 93.359375 92.0625 L 94.171875 91.328125 L 94.828125 92.0625 L 94.015625 92.796875 C 93.421875 93.328125 92.890625 93.578125 92.421875 93.546875 C 91.960938 93.507813 91.4375 93.15625 90.84375 92.5 L 88.265625 89.640625 L 87.703125 90.15625 L 87.09375 89.484375 L 87.65625 88.96875 L 86.296875 87.46875 Z M 98.632813 82.605469 C 98.882813 82.511719 99.195313 82.503906 99.570313 82.574219 C 99.945313 82.636719 100.402344 82.785156 100.945313 83.011719 L 103.554688 84.152344 L 102.632813 84.996094 L 100.179688 83.917969 C 99.542969 83.628906 99.058594 83.496094 98.726563 83.527344 C 98.402344 83.550781 98.070313 83.714844 97.726563 84.027344 L 96.789063 84.871094 L 99.476563 87.839844 L 98.632813 88.605469 L 92.273438 81.574219 L 94.195313 79.839844 C 94.925781 79.183594 95.617188 78.863281 96.273438 78.871094 C 96.929688 78.882813 97.566406 79.230469 98.179688 79.917969 C 98.574219 80.355469 98.808594 80.804688 98.882813 81.261719 C 98.964844 81.722656 98.882813 82.167969 98.632813 82.605469 Z M 93.820313 81.589844 L 96.085938 84.089844 L 97.164063 83.121094 C 97.582031 82.746094 97.792969 82.355469 97.804688 81.949219 C 97.824219 81.542969 97.648438 81.136719 97.273438 80.730469 C 96.910156 80.316406 96.53125 80.101563 96.132813 80.089844 C 95.726563 80.070313 95.316406 80.246094 94.898438 80.621094 Z M 99.863281 77.917969 L 100.628906 77.214844 L 105.394531 82.480469 L 104.628906 83.183594 Z M 98.003906 75.855469 L 98.769531 75.152344 L 99.769531 76.261719 L 99.003906 76.964844 Z M 101.691406 76.253906 L 102.519531 75.519531 L 108.003906 78.597656 L 105.488281 72.832031 L 106.316406 72.082031 L 109.300781 78.957031 L 108.238281 79.910156 Z M 113.636719 69.859375 L 114.011719 70.265625 L 110.417969 73.515625 C 111.003906 74.078125 111.578125 74.386719 112.152344 74.4375 C 112.722656 74.480469 113.265625 74.265625 113.777344 73.796875 C 114.078125 73.527344 114.332031 73.226563 114.542969 72.890625 C 114.75 72.558594 114.917969 72.183594 115.042969 71.765625 L 115.792969 72.59375 C 115.636719 72.980469 115.4375 73.339844 115.199219 73.671875 C 114.96875 74.007813 114.703125 74.3125 114.402344 74.59375 C 113.652344 75.273438 112.828125 75.570313 111.933594 75.484375 C 111.050781 75.390625 110.226563 74.929688 109.464844 74.09375 C 108.683594 73.230469 108.277344 72.355469 108.246094 71.46875 C 108.207031 70.574219 108.539063 69.808594 109.246094 69.171875 C 109.894531 68.589844 110.605469 68.359375 111.386719 68.484375 C 112.167969 68.609375 112.917969 69.070313 113.636719 69.859375 Z M 112.621094 70.296875 C 112.191406 69.828125 111.734375 69.558594 111.246094 69.484375 C 110.757813 69.402344 110.320313 69.539063 109.933594 69.890625 C 109.496094 70.289063 109.273438 70.742188 109.261719 71.25 C 109.242188 71.761719 109.441406 72.28125 109.855469 72.8125 Z M 116.210938 64.589844 C 116.078125 64.613281 115.945313 64.660156 115.820313 64.730469 C 115.6875 64.792969 115.554688 64.882813 115.429688 64.996094 C 114.992188 65.394531 114.800781 65.855469 114.851563 66.386719 C 114.90625 66.917969 115.203125 67.480469 115.742188 68.074219 L 118.257813 70.855469 L 117.460938 71.558594 L 112.695313 66.292969 L 113.492188 65.589844 L 114.226563 66.402344 C 114.09375 65.933594 114.085938 65.503906 114.210938 65.105469 C 114.335938 64.710938 114.582031 64.347656 114.945313 64.011719 C 115.007813 63.960938 115.078125 63.914063 115.148438 63.871094 C 115.222656 63.820313 115.304688 63.757813 115.398438 63.683594 Z M 116.210938 64.589844 "/>
<path style=" stroke:none;fill-rule:evenodd;fill:rgb(41.960784%,58.039216%,69.019608%);fill-opacity:1;" d="M 70.808594 101.003906 L 74.792969 97.410156 L 75.527344 98.222656 L 72.386719 101.050781 L 74.261719 103.128906 L 77.277344 100.410156 L 77.996094 101.207031 L 74.980469 103.925781 L 77.292969 106.472656 L 80.511719 103.566406 L 81.230469 104.363281 L 77.167969 108.035156 Z M 82.367188 98.511719 C 81.734375 99.085938 81.367188 99.566406 81.273438 99.949219 C 81.179688 100.324219 81.304688 100.707031 81.648438 101.089844 C 81.917969 101.394531 82.226563 101.554688 82.570313 101.574219 C 82.921875 101.585938 83.257813 101.449219 83.570313 101.167969 C 84.007813 100.773438 84.199219 100.289063 84.148438 99.714844 C 84.09375 99.144531 83.8125 98.574219 83.304688 98.011719 L 83.117188 97.808594 Z M 83.601563 96.746094 L 86.320313 99.761719 L 85.523438 100.464844 L 84.804688 99.667969 C 84.917969 100.136719 84.914063 100.570313 84.789063 100.964844 C 84.664063 101.363281 84.40625 101.738281 84.023438 102.089844 C 83.53125 102.527344 83.007813 102.726563 82.445313 102.683594 C 81.882813 102.632813 81.375 102.355469 80.914063 101.855469 C 80.382813 101.261719 80.160156 100.652344 80.242188 100.027344 C 80.328125 99.402344 80.722656 98.769531 81.429688 98.121094 L 82.507813 97.136719 L 82.429688 97.042969 C 82.074219 96.648438 81.6875 96.449219 81.257813 96.449219 C 80.820313 96.441406 80.390625 96.628906 79.960938 97.011719 C 79.703125 97.261719 79.476563 97.539063 79.289063 97.839844 C 79.09375 98.144531 78.941406 98.476563 78.835938 98.839844 L 78.117188 98.042969 C 78.285156 97.660156 78.472656 97.316406 78.679688 97.011719 C 78.890625 96.710938 79.125 96.441406 79.382813 96.199219 C 80.070313 95.585938 80.765625 95.324219 81.460938 95.417969 C 82.15625 95.503906 82.871094 95.945313 83.601563 96.746094 Z M 86.308594 90.433594 L 87.058594 91.261719 C 86.726563 91.347656 86.414063 91.464844 86.121094 91.621094 C 85.832031 91.769531 85.558594 91.957031 85.308594 92.183594 C 84.925781 92.527344 84.691406 92.855469 84.605469 93.167969 C 84.523438 93.480469 84.601563 93.773438 84.839844 94.042969 C 85.027344 94.242188 85.246094 94.332031 85.496094 94.308594 C 85.738281 94.289063 86.117188 94.144531 86.636719 93.871094 L 86.949219 93.714844 C 87.613281 93.339844 88.171875 93.167969 88.621094 93.199219 C 89.078125 93.230469 89.496094 93.460938 89.871094 93.886719 C 90.316406 94.378906 90.496094 94.925781 90.402344 95.527344 C 90.316406 96.132813 89.96875 96.710938 89.355469 97.261719 C 89.113281 97.480469 88.828125 97.691406 88.496094 97.886719 C 88.171875 98.085938 87.808594 98.257813 87.402344 98.402344 L 86.589844 97.511719 C 87.039063 97.441406 87.433594 97.316406 87.777344 97.136719 C 88.128906 96.960938 88.449219 96.746094 88.730469 96.496094 C 89.09375 96.175781 89.3125 95.851563 89.386719 95.527344 C 89.457031 95.207031 89.375 94.917969 89.136719 94.667969 C 88.925781 94.441406 88.691406 94.324219 88.433594 94.324219 C 88.171875 94.324219 87.75 94.488281 87.167969 94.808594 L 86.839844 94.980469 C 86.246094 95.316406 85.742188 95.460938 85.324219 95.417969 C 84.898438 95.378906 84.496094 95.152344 84.121094 94.746094 C 83.675781 94.246094 83.488281 93.714844 83.558594 93.152344 C 83.632813 92.589844 83.960938 92.050781 84.542969 91.527344 C 84.824219 91.269531 85.117188 91.050781 85.417969 90.871094 C 85.710938 90.683594 86.007813 90.539063 86.308594 90.433594 Z M 87.09375 86.75 L 88.453125 88.25 L 90.0625 86.796875 L 90.671875 87.46875 L 89.0625 88.921875 L 91.640625 91.78125 C 92.035156 92.210938 92.335938 92.433594 92.546875 92.453125 C 92.765625 92.476563 93.035156 92.34375 93.359375 92.0625 L 94.171875 91.328125 L 94.828125 92.0625 L 94.015625 92.796875 C 93.421875 93.328125 92.890625 93.578125 92.421875 93.546875 C 91.960938 93.507813 91.4375 93.15625 90.84375 92.5 L 88.265625 89.640625 L 87.703125 90.15625 L 87.09375 89.484375 L 87.65625 88.96875 L 86.296875 87.46875 Z M 98.632813 82.605469 C 98.882813 82.511719 99.195313 82.503906 99.570313 82.574219 C 99.945313 82.636719 100.402344 82.785156 100.945313 83.011719 L 103.554688 84.152344 L 102.632813 84.996094 L 100.179688 83.917969 C 99.542969 83.628906 99.058594 83.496094 98.726563 83.527344 C 98.402344 83.550781 98.070313 83.714844 97.726563 84.027344 L 96.789063 84.871094 L 99.476563 87.839844 L 98.632813 88.605469 L 92.273438 81.574219 L 94.195313 79.839844 C 94.925781 79.183594 95.617188 78.863281 96.273438 78.871094 C 96.929688 78.882813 97.566406 79.230469 98.179688 79.917969 C 98.574219 80.355469 98.808594 80.804688 98.882813 81.261719 C 98.964844 81.722656 98.882813 82.167969 98.632813 82.605469 Z M 93.820313 81.589844 L 96.085938 84.089844 L 97.164063 83.121094 C 97.582031 82.746094 97.792969 82.355469 97.804688 81.949219 C 97.824219 81.542969 97.648438 81.136719 97.273438 80.730469 C 96.910156 80.316406 96.53125 80.101563 96.132813 80.089844 C 95.726563 80.070313 95.316406 80.246094 94.898438 80.621094 Z M 99.863281 77.917969 L 100.628906 77.214844 L 105.394531 82.480469 L 104.628906 83.183594 Z M 98.003906 75.855469 L 98.769531 75.152344 L 99.769531 76.261719 L 99.003906 76.964844 Z M 101.691406 76.253906 L 102.519531 75.519531 L 108.003906 78.597656 L 105.488281 72.832031 L 106.316406 72.082031 L 109.300781 78.957031 L 108.238281 79.910156 Z M 113.636719 69.859375 L 114.011719 70.265625 L 110.417969 73.515625 C 111.003906 74.078125 111.578125 74.386719 112.152344 74.4375 C 112.722656 74.480469 113.265625 74.265625 113.777344 73.796875 C 114.078125 73.527344 114.332031 73.226563 114.542969 72.890625 C 114.75 72.558594 114.917969 72.183594 115.042969 71.765625 L 115.792969 72.59375 C 115.636719 72.980469 115.4375 73.339844 115.199219 73.671875 C 114.96875 74.007813 114.703125 74.3125 114.402344 74.59375 C 113.652344 75.273438 112.828125 75.570313 111.933594 75.484375 C 111.050781 75.390625 110.226563 74.929688 109.464844 74.09375 C 108.683594 73.230469 108.277344 72.355469 108.246094 71.46875 C 108.207031 70.574219 108.539063 69.808594 109.246094 69.171875 C 109.894531 68.589844 110.605469 68.359375 111.386719 68.484375 C 112.167969 68.609375 112.917969 69.070313 113.636719 69.859375 Z M 112.621094 70.296875 C 112.191406 69.828125 111.734375 69.558594 111.246094 69.484375 C 110.757813 69.402344 110.320313 69.539063 109.933594 69.890625 C 109.496094 70.289063 109.273438 70.742188 109.261719 71.25 C 109.242188 71.761719 109.441406 72.28125 109.855469 72.8125 Z M 116.210938 64.589844 C 116.078125 64.613281 115.945313 64.660156 115.820313 64.730469 C 115.6875 64.792969 115.554688 64.882813 115.429688 64.996094 C 114.992188 65.394531 114.800781 65.855469 114.851563 66.386719 C 114.90625 66.917969 115.203125 67.480469 115.742188 68.074219 L 118.257813 70.855469 L 117.460938 71.558594 L 112.695313 66.292969 L 113.492188 65.589844 L 114.226563 66.402344 C 114.09375 65.933594 114.085938 65.503906 114.210938 65.105469 C 114.335938 64.710938 114.582031 64.347656 114.945313 64.011719 C 115.007813 63.960938 115.078125 63.914063 115.148438 63.871094 C 115.222656 63.820313 115.304688 63.757813 115.398438 63.683594 Z M 116.210938 64.589844 "/>
</g>
</svg>

