<?xml version="1.0" encoding="UTF-8"?>
<svg xmlns="http://www.w3.org/2000/svg" xmlns:xlink="http://www.w3.org/1999/xlink" width="256pt" height="256pt" viewBox="0 0 256 256" version="1.1">
<g id="surface2">
<rect x="0" y="0" width="256" height="256" style="fill:rgb(94.901961%,93.72549%,91.372549%);fill-opacity:1;stroke:none;"/>
<path style=" stroke:none;fill-rule:evenodd;fill:rgb(60%,70.196078%,80%);fill-opacity:1;" d="M -4 -4 L 259 -4 L 259 259 L 259 -4 Z M -4 -4 "/>
<path style="fill:none;stroke-width:1;stroke-linecap:round;stroke-linejoin:round;stroke:rgb(70.196078%,77.647059%,83.137255%);stroke-opacity:1;stroke-miterlimit:10;" d="M -4 -4 L 259 -4 L 259 259 L 259 -4 L -4 -4 "/>
<path style="fill:none;stroke-width:8;stroke-linecap:round;stroke-linejoin:round;stroke:rgb(75.686275%,70.980392%,61.568627%);stroke-opacity:1;stroke-miterlimit:10;" d="M -7.773438 6.199219 L -6.675781 0.398438 L -2.296875 -9 "/>
<path style="fill:none;stroke-width:8;stroke-linecap:round;stroke-linejoin:round;stroke:rgb(75.686275%,70.980392%,61.568627%);stroke-opacity:1;stroke-miterlimit:10;" d="M 264 78.761719 L 261.316406 73.640625 L 256.980469 68.480469 L 253.441406 64.667969 L 248.757813 61.851563 L 226.550781 50.957031 L 195.839844 37.46875 L 187.054688 32.789063 L 182.136719 29.203125 L 178.921875 26.222656 L 169.019531 15.96875 L 166.78125 13.4375 L 164.660156 11.003906 L 148.273438 -9 "/>
<path style="fill:none;stroke-width:6;stroke-linecap:round;stroke-linejoin:round;stroke:rgb(100%,100%,100%);stroke-opacity:1;stroke-miterlimit:10;" d="M -7.773438 6.199219 L -6.675781 0.398438 L -2.296875 -9 "/>
<path style="fill:none;stroke-width:6;stroke-linecap:round;stroke-linejoin:round;stroke:rgb(100%,100%,100%);stroke-opacity:1;stroke-miterlimit:10;" d="M 264 78.761719 L 261.316406 73.640625 L 256.980469 68.480469 L 253.441406 64.667969 L 248.757813 61.851563 L 226.550781 50.957031 L 195.839844 37.46875 L 187.054688 32.789063 L 182.136719 29.203125 L 178.921875 26.222656 L 169.019531 15.96875 L 166.78125 13.4375 L 164.660156 11.003906 L 148.273438 -9 "/>
</g>
</svg>

