<?xml version="1.0" encoding="UTF-8"?>
<svg xmlns="http://www.w3.org/2000/svg" xmlns:xlink="http://www.w3.org/1999/xlink" width="256pt" height="256pt" viewBox="0 0 256 256" version="1.1">
<g id="surface2">
<rect x="0" y="0" width="256" height="256" style="fill:rgb(94.901961%,93.72549%,91.372549%);fill-opacity:1;stroke:none;"/>
<path style=" stroke:none;fill-rule:evenodd;fill:rgb(79.607843%,84.705882%,76.470588%);fill-opacity:1;" d="M 173.738281 -4 L 248.421875 92.257813 L 260 80.167969 L 260 -4 Z M 173.738281 -4 "/>
<path style=" stroke:none;fill-rule:evenodd;fill:rgb(70.980392%,82.352941%,61.176471%);fill-opacity:1;" d="M -4 260 L -4 255.46875 L 35.902344 223.546875 L -4 102.894531 L -4 -4 Z M -4 260 "/>
<path style=" stroke:none;fill-rule:evenodd;fill:rgb(70.980392%,82.352941%,61.176471%);fill-opacity:1;" d="M -4 25.417969 L -3.449219 27.0625 L 10.132813 21.667969 L 13.359375 34.148438 L 16.472656 33.070313 L 12.933594 20.667969 L 15.933594 20.269531 L 22.132813 16.667969 L 25.734375 15.867188 L 68.933594 81.867188 L 68.265625 83.988281 L 70.332031 83.667969 L 79.132813 95.867188 L 83.734375 92.46875 L 87.734375 87.464844 L 88.933594 84.46875 L 92.933594 82.070313 L 97.734375 80.867188 L 97.734375 90.265625 L 96.953125 92.546875 L 99.132813 90.066406 L 99.332031 81.867188 L 103.332031 83.269531 L 106.132813 85.867188 L 108.335938 89.066406 L 109.132813 94.667969 L 108.335938 97.667969 L 104.734375 101.667969 L 100.132813 104.867188 L 96.332031 108.46875 L 101.132813 108.46875 L 105.734375 110.269531 L 109.132813 113.667969 L 111.933594 120.867188 L 108.132813 129.46875 L 86.949219 136.464844 L 90.125 146.796875 L 95.132813 157.46875 L 78.332031 168.867188 L 82.335938 180.667969 L 80.804688 182.554688 L 81.285156 183.910156 L 81.890625 185.625 L 97.332031 180.070313 L 100.40625 189.390625 L 107.949219 186.570313 L 109.121094 188.277344 L 123.074219 175.578125 L 123.375 174.363281 L 122.351563 172.066406 L 121.859375 169.734375 L 121.746094 167.585938 L 122.070313 165.164063 L 124.097656 160.625 L 117.132813 152.46875 L 125.132813 147.867188 L 154.734375 137.066406 L 163.132813 135.269531 L 169.933594 135.867188 L 171.53125 132.667969 L 180.132813 129.867188 L 181.257813 127.167969 L 172.734375 125.464844 L 176.132813 122.269531 L 193.335938 105.867188 L 241.164063 89.019531 L 233.199219 77.3125 L 178.53125 96.269531 L 165.53125 80.070313 L 157.734375 86.667969 L 169.734375 109.46875 L 145.363281 124.039063 L 132.132813 102.265625 L 139.335938 95.269531 L 132.734375 95.867188 L 112.132813 88.265625 L 104.132813 76.265625 L 97.332031 68.667969 L 103.535156 48.667969 L 113.734375 52.667969 L 123.933594 44.066406 L 108.933594 24.070313 L 107.421875 17.640625 L 107.152344 13.621094 L 108.460938 1.863281 L 109.203125 -3.617188 L 108.933594 -4 L 99.261719 -4 L 99.226563 -3.96875 L 103.050781 1.75 L 104.476563 5.496094 L 104.707031 9.839844 L 103.253906 14.800781 L 83.132813 39.867188 L 76.734375 44.667969 L 69.535156 45.265625 L 63.734375 43.667969 L 57.734375 38.46875 L 49.132813 31.265625 L 42.734375 23.867188 L 38.933594 14.867188 L 38.734375 12.066406 L 41.734375 5.066406 L 48.957031 -4 L 27.554688 -4 L 31.132813 4.46875 L 26.332031 7.269531 L -4 10.925781 Z M -4 25.417969 "/>
<path style=" stroke:none;fill-rule:evenodd;fill:rgb(87.058824%,81.960784%,67.058824%);fill-opacity:1;" d="M 102.414063 39.84375 L 108.414063 48.046875 L 115.613281 42.445313 L 109.613281 34.246094 Z M 102.414063 39.84375 "/>
<path style="fill:none;stroke-width:1;stroke-linecap:round;stroke-linejoin:round;stroke:rgb(100%,100%,100%);stroke-opacity:1;stroke-dasharray:2,3;stroke-miterlimit:10;" d="M 96.953125 92.546875 L 98.5 89.292969 L 98.160156 79.03125 "/>
<path style="fill:none;stroke-width:1;stroke-linecap:round;stroke-linejoin:round;stroke:rgb(100%,100%,100%);stroke-opacity:1;stroke-dasharray:2,3;stroke-miterlimit:10;" d="M 181.125 128.117188 L 177.03125 128.707031 L 173.820313 130.378906 L 171.210938 132.152344 L 167.199219 130.3125 L 163.320313 128.976563 "/>
<path style="fill:none;stroke-width:1;stroke-linecap:round;stroke-linejoin:round;stroke:rgb(100%,100%,100%);stroke-opacity:1;stroke-dasharray:2,3;stroke-miterlimit:10;" d="M 107.75 150.148438 L 103.550781 153.777344 L 101.933594 156.101563 L 102.050781 159.625 L 103.78125 162.632813 L 106.46875 166.96875 "/>
<path style="fill:none;stroke-width:1;stroke-linecap:round;stroke-linejoin:round;stroke:rgb(100%,100%,100%);stroke-opacity:1;stroke-dasharray:2,3;stroke-miterlimit:10;" d="M 108.890625 165.601563 L 106.46875 166.96875 L 106.589844 171.28125 L 105.789063 173.957031 L 103.632813 175.476563 L 99.921875 175.632813 L 96.566406 174.078125 L 93.527344 172.960938 L 91.132813 173.480469 L 89.136719 176.195313 L 86.5 178.429688 L 83.582031 180.949219 L 81.285156 183.910156 "/>
<path style="fill:none;stroke-width:1;stroke-linecap:round;stroke-linejoin:round;stroke:rgb(100%,100%,100%);stroke-opacity:1;stroke-dasharray:2,3;stroke-miterlimit:10;" d="M 113.8125 143.535156 L 112.164063 146.5625 L 110.199219 147.980469 L 108.179688 149.289063 L 107.359375 150.925781 L 106.976563 154.363281 L 107.195313 159.984375 L 108.726563 164.566406 L 108.890625 165.601563 L 110.089844 173.078125 L 110.25 179.625 L 110.472656 182.242188 L 108.234375 185.027344 L 107.949219 186.570313 "/>
<path style="fill:none;stroke-width:1;stroke-linecap:round;stroke-linejoin:round;stroke:rgb(100%,100%,100%);stroke-opacity:1;stroke-dasharray:2,3;stroke-miterlimit:10;" d="M 98.160156 79.03125 L 101.664063 79.601563 L 104.238281 80.738281 L 107.480469 84.289063 L 109.953125 87.941406 L 110.929688 91.289063 L 111.753906 94.171875 L 113.503906 95.304688 L 113.761719 96.382813 L 113.710938 99.78125 L 114.429688 101.894531 L 115.253906 103.488281 L 115.460938 106.574219 L 113.503906 110.335938 L 111.753906 111.3125 L 109.027344 112.496094 L 102.898438 117.542969 L 98.722656 119.929688 "/>
<path style="fill:none;stroke-width:1;stroke-linecap:round;stroke-linejoin:round;stroke:rgb(100%,100%,100%);stroke-opacity:1;stroke-dasharray:2,3;stroke-miterlimit:10;" d="M 87.085938 136.914063 L 89.207031 136.480469 L 92.140625 138.179688 L 95.4375 138.179688 L 104.289063 139.210938 L 109.027344 140.707031 L 111.804688 142.96875 L 113.8125 143.535156 L 120.246094 143.175781 L 121.378906 141.941406 L 136.304688 138.132813 L 139.035156 137.71875 L 146.703125 136.84375 L 155.199219 134.992188 L 158.183594 134.167969 L 163.320313 128.976563 L 168.222656 124.027344 L 169.25 121.96875 L 171.308594 117.902344 L 174.34375 113.78125 L 177.84375 110.027344 L 181.292969 108.6875 L 187.113281 106.421875 L 188.761719 104.878906 L 188.761719 103.589844 L 176.507813 101.019531 L 173.265625 94.890625 L 170.742188 89.488281 L 163.285156 79.304688 "/>
<path style="fill:none;stroke-width:1;stroke-linecap:round;stroke-linejoin:round;stroke:rgb(100%,100%,100%);stroke-opacity:1;stroke-dasharray:2,3;stroke-miterlimit:10;" d="M 98.160156 79.03125 L 92.5625 77.421875 L 91.546875 76.660156 L 89.765625 74.03125 L 88.917969 71.996094 L 88.238281 65.46875 L 86.289063 56.820313 L 84.425781 53.515625 L 75.519531 53.515625 L 73.144531 50.882813 L 66.191406 47.832031 L 57.207031 42.828125 L 47.964844 31.296875 L 43.472656 26.039063 L 38.042969 20.445313 L 35.839844 14.253906 L 35.074219 1.960938 L 35.925781 -1.683594 L 36.3125 -2 "/>
<path style="fill:none;stroke-width:8;stroke-linecap:round;stroke-linejoin:round;stroke:rgb(75.686275%,70.980392%,61.568627%);stroke-opacity:1;stroke-miterlimit:10;" d="M 229.855469 90.175781 L 234.945313 90.941406 L 236.964844 91.433594 L 237.800781 92.324219 "/>
<path style="fill:none;stroke-width:8;stroke-linecap:round;stroke-linejoin:round;stroke:rgb(75.686275%,70.980392%,61.568627%);stroke-opacity:1;stroke-miterlimit:10;" d="M 7.394531 -9 L 7.355469 -3.921875 L 8.078125 3.804688 "/>
<path style="fill:none;stroke-width:8;stroke-linecap:round;stroke-linejoin:round;stroke:rgb(75.686275%,70.980392%,61.568627%);stroke-opacity:1;stroke-miterlimit:10;" d="M 15.449219 -9 L 20.964844 2.304688 L 22.140625 4.71875 "/>
<path style="fill:none;stroke-width:8;stroke-linecap:round;stroke-linejoin:round;stroke:rgb(75.686275%,70.980392%,61.568627%);stroke-opacity:1;stroke-miterlimit:10;" d="M 4.691406 60.894531 L 11.242188 81.496094 "/>
<path style="fill:none;stroke-width:8;stroke-linecap:round;stroke-linejoin:round;stroke:rgb(75.686275%,70.980392%,61.568627%);stroke-opacity:1;stroke-miterlimit:10;" d="M 19.164063 55.578125 L 26.882813 75.964844 "/>
<path style="fill:none;stroke-width:8;stroke-linecap:round;stroke-linejoin:round;stroke:rgb(75.686275%,70.980392%,61.568627%);stroke-opacity:1;stroke-miterlimit:10;" d="M -2.914063 2.507813 L 2.601563 2.507813 L 5.675781 3.132813 L 8.078125 3.804688 L 11.148438 5.003906 L 13.210938 5.820313 L 20.964844 2.304688 "/>
<path style="fill:none;stroke-width:8;stroke-linecap:round;stroke-linejoin:round;stroke:rgb(75.686275%,70.980392%,61.568627%);stroke-opacity:1;stroke-miterlimit:10;" d="M 188.75 84.84375 L 215.710938 63.949219 "/>
<path style="fill:none;stroke-width:8;stroke-linecap:round;stroke-linejoin:round;stroke:rgb(75.686275%,70.980392%,61.568627%);stroke-opacity:1;stroke-miterlimit:10;" d="M 213.324219 52.296875 L 182.578125 77.363281 "/>
<path style="fill:none;stroke-width:8;stroke-linecap:round;stroke-linejoin:round;stroke:rgb(75.686275%,70.980392%,61.568627%);stroke-opacity:1;stroke-miterlimit:10;" d="M 144.40625 93.289063 L 155.683594 110.570313 L 156.34375 112.351563 L 156.902344 113.753906 L 152.15625 118.945313 L 145.652344 122.503906 L 143.25 123.097656 "/>
<path style="fill:none;stroke-width:8;stroke-linecap:round;stroke-linejoin:round;stroke:rgb(75.686275%,70.980392%,61.568627%);stroke-opacity:1;stroke-miterlimit:10;" d="M 236.296875 82.191406 L 229.855469 90.175781 L 227.597656 90.210938 L 223.1875 90.65625 L 218.574219 91.339844 L 212.953125 92.570313 L 206.953125 94.5 L 204.476563 95.320313 L 202.082031 96.875 L 199.144531 98.566406 L 195.726563 100.585938 "/>
<path style="fill:none;stroke-width:8;stroke-linecap:round;stroke-linejoin:round;stroke:rgb(75.686275%,70.980392%,61.568627%);stroke-opacity:1;stroke-miterlimit:10;" d="M 143.25 123.097656 L 141.1875 121.691406 L 135.625 111.128906 L 134.09375 109.285156 L 131.8125 107.101563 L 130.3125 105.316406 L 131.09375 103.097656 L 132.25 101.164063 L 141.46875 95.285156 L 144.40625 93.289063 L 153.648438 87.007813 "/>
<path style="fill:none;stroke-width:8;stroke-linecap:round;stroke-linejoin:round;stroke:rgb(75.686275%,70.980392%,61.568627%);stroke-opacity:1;stroke-miterlimit:10;" d="M 176.839844 68.472656 L 182.578125 77.363281 L 188.75 84.84375 L 190.179688 87.613281 L 191.675781 89.683594 L 202.46875 86.1875 L 216.757813 80.65625 L 229.246094 72.402344 "/>
<path style="fill:none;stroke-width:8;stroke-linecap:round;stroke-linejoin:round;stroke:rgb(75.686275%,70.980392%,61.568627%);stroke-opacity:1;stroke-miterlimit:10;" d="M 142.304688 17.519531 L 138.816406 12.472656 L 138.375 9.265625 "/>
<path style="fill:none;stroke-width:8;stroke-linecap:round;stroke-linejoin:round;stroke:rgb(75.686275%,70.980392%,61.568627%);stroke-opacity:1;stroke-miterlimit:10;" d="M 32.3125 97.238281 L 35.339844 107.296875 "/>
<path style="fill:none;stroke-width:8;stroke-linecap:round;stroke-linejoin:round;stroke:rgb(75.686275%,70.980392%,61.568627%);stroke-opacity:1;stroke-miterlimit:10;" d="M 24.273438 30.378906 L 18.425781 20.6875 "/>
<path style="fill:none;stroke-width:8;stroke-linecap:round;stroke-linejoin:round;stroke:rgb(75.686275%,70.980392%,61.568627%);stroke-opacity:1;stroke-miterlimit:10;" d="M 187.664063 20.046875 L 186.183594 21.226563 L 180.820313 25.503906 L 178.554688 27.3125 "/>
<path style="fill:none;stroke-width:8;stroke-linecap:round;stroke-linejoin:round;stroke:rgb(75.686275%,70.980392%,61.568627%);stroke-opacity:1;stroke-miterlimit:10;" d="M 244.894531 112.109375 L 252.15625 106.332031 L 254.144531 104.75 "/>
<path style="fill:none;stroke-width:8;stroke-linecap:round;stroke-linejoin:round;stroke:rgb(75.686275%,70.980392%,61.568627%);stroke-opacity:1;stroke-miterlimit:10;" d="M 144.3125 79.632813 L 142.675781 77.917969 L 137.890625 72.917969 L 135.351563 71.246094 "/>
<path style="fill:none;stroke-width:8;stroke-linecap:round;stroke-linejoin:round;stroke:rgb(75.686275%,70.980392%,61.568627%);stroke-opacity:1;stroke-miterlimit:10;" d="M 163.664063 230.636719 L 157.675781 219.8125 "/>
<path style="fill:none;stroke-width:8;stroke-linecap:round;stroke-linejoin:round;stroke:rgb(75.686275%,70.980392%,61.568627%);stroke-opacity:1;stroke-miterlimit:10;" d="M 174.242188 55.773438 L 173.074219 54.046875 L 168.6875 47.578125 L 168.308594 44.953125 "/>
<path style="fill:none;stroke-width:8;stroke-linecap:round;stroke-linejoin:round;stroke:rgb(75.686275%,70.980392%,61.568627%);stroke-opacity:1;stroke-miterlimit:10;" d="M 35.203125 207.164063 L 47.34375 203.425781 "/>
<path style="fill:none;stroke-width:8;stroke-linecap:round;stroke-linejoin:round;stroke:rgb(75.686275%,70.980392%,61.568627%);stroke-opacity:1;stroke-miterlimit:10;" d="M 46.464844 200.660156 L 34.289063 204.367188 "/>
<path style="fill:none;stroke-width:8;stroke-linecap:round;stroke-linejoin:round;stroke:rgb(75.686275%,70.980392%,61.568627%);stroke-opacity:1;stroke-miterlimit:10;" d="M 202.320313 124.929688 L 199.84375 120.429688 L 195.402344 114.105469 "/>
<path style="fill:none;stroke-width:8;stroke-linecap:round;stroke-linejoin:round;stroke:rgb(75.686275%,70.980392%,61.568627%);stroke-opacity:1;stroke-miterlimit:10;" d="M 15.988281 146.554688 L 28.355469 142.972656 "/>
<path style="fill:none;stroke-width:8;stroke-linecap:round;stroke-linejoin:round;stroke:rgb(75.686275%,70.980392%,61.568627%);stroke-opacity:1;stroke-miterlimit:10;" d="M 27.347656 139.738281 L 15.082031 143.664063 "/>
<path style="fill:none;stroke-width:8;stroke-linecap:round;stroke-linejoin:round;stroke:rgb(75.686275%,70.980392%,61.568627%);stroke-opacity:1;stroke-miterlimit:10;" d="M 141.339844 42.21875 L 142.351563 43.578125 L 147.304688 50.230469 L 147.257813 53.136719 "/>
<path style="fill:none;stroke-width:8;stroke-linecap:round;stroke-linejoin:round;stroke:rgb(75.686275%,70.980392%,61.568627%);stroke-opacity:1;stroke-miterlimit:10;" d="M 117.921875 66.015625 L 105.914063 61.269531 "/>
<path style="fill:none;stroke-width:8;stroke-linecap:round;stroke-linejoin:round;stroke:rgb(75.686275%,70.980392%,61.568627%);stroke-opacity:1;stroke-miterlimit:10;" d="M 229.933594 145.8125 L 227.605469 143.605469 L 225.179688 141.917969 L 222.734375 140.664063 L 219.960938 139.648438 L 218.304688 139.25 "/>
<path style="fill:none;stroke-width:8;stroke-linecap:round;stroke-linejoin:round;stroke:rgb(75.686275%,70.980392%,61.568627%);stroke-opacity:1;stroke-miterlimit:10;" d="M 218.515625 106.132813 L 224.527344 115.882813 L 225.484375 118.949219 "/>
<path style="fill:none;stroke-width:8;stroke-linecap:round;stroke-linejoin:round;stroke:rgb(75.686275%,70.980392%,61.568627%);stroke-opacity:1;stroke-miterlimit:10;" d="M 40.1875 116.496094 L 25.207031 120.757813 "/>
<path style="fill:none;stroke-width:8;stroke-linecap:round;stroke-linejoin:round;stroke:rgb(75.686275%,70.980392%,61.568627%);stroke-opacity:1;stroke-miterlimit:10;" d="M 59.226563 -3.476563 L 70.851563 7.929688 "/>
<path style="fill:none;stroke-width:8;stroke-linecap:round;stroke-linejoin:round;stroke:rgb(75.686275%,70.980392%,61.568627%);stroke-opacity:1;stroke-miterlimit:10;" d="M 83.691406 125.878906 L 85.558594 125.558594 L 89.679688 124.53125 L 93.828125 122.84375 L 96.882813 121.15625 L 98.722656 119.929688 "/>
<path style="fill:none;stroke-width:8;stroke-linecap:round;stroke-linejoin:round;stroke:rgb(75.686275%,70.980392%,61.568627%);stroke-opacity:1;stroke-miterlimit:10;" d="M 5.171875 101.71875 L 22.421875 95.894531 "/>
<path style="fill:none;stroke-width:8;stroke-linecap:round;stroke-linejoin:round;stroke:rgb(75.686275%,70.980392%,61.568627%);stroke-opacity:1;stroke-miterlimit:10;" d="M 3.894531 47.972656 L -9 52.363281 "/>
<path style="fill:none;stroke-width:8;stroke-linecap:round;stroke-linejoin:round;stroke:rgb(75.686275%,70.980392%,61.568627%);stroke-opacity:1;stroke-miterlimit:10;" d="M 35.949219 49.273438 L 30.121094 40.011719 L 24.273438 30.378906 "/>
<path style="fill:none;stroke-width:8;stroke-linecap:round;stroke-linejoin:round;stroke:rgb(75.686275%,70.980392%,61.568627%);stroke-opacity:1;stroke-miterlimit:10;" d="M 48.601563 68.257813 L 35.949219 49.273438 "/>
<path style="fill:none;stroke-width:8;stroke-linecap:round;stroke-linejoin:round;stroke:rgb(75.686275%,70.980392%,61.568627%);stroke-opacity:1;stroke-miterlimit:10;" d="M 77.867188 105.703125 L 81.152344 104.84375 L 84.390625 103.585938 L 87.492188 101.929688 L 90.355469 99.90625 L 92.804688 97.726563 L 95.25 94.96875 L 96.953125 92.546875 "/>
<path style="fill:none;stroke-width:8;stroke-linecap:round;stroke-linejoin:round;stroke:rgb(75.686275%,70.980392%,61.568627%);stroke-opacity:1;stroke-miterlimit:10;" d="M 0.714844 38.507813 L 13.359375 34.148438 L 16.472656 33.070313 L 24.273438 30.378906 "/>
<path style="fill:none;stroke-width:8;stroke-linecap:round;stroke-linejoin:round;stroke:rgb(75.686275%,70.980392%,61.568627%);stroke-opacity:1;stroke-miterlimit:10;" d="M 30.121094 40.011719 L 4.535156 49.792969 "/>
<path style="fill:none;stroke-width:8;stroke-linecap:round;stroke-linejoin:round;stroke:rgb(75.686275%,70.980392%,61.568627%);stroke-opacity:1;stroke-miterlimit:10;" d="M 119.066406 202.730469 L 91.59375 213.433594 "/>
<path style="fill:none;stroke-width:8;stroke-linecap:round;stroke-linejoin:round;stroke:rgb(75.686275%,70.980392%,61.568627%);stroke-opacity:1;stroke-miterlimit:10;" d="M 264 78.769531 L 247.414063 96.378906 "/>
<path style="fill:none;stroke-width:8;stroke-linecap:round;stroke-linejoin:round;stroke:rgb(75.686275%,70.980392%,61.568627%);stroke-opacity:1;stroke-miterlimit:10;" d="M 16.375 79.695313 L 22.421875 95.894531 L 23.761719 99.476563 L 25.8125 109.71875 "/>
<path style="fill:none;stroke-width:8;stroke-linecap:round;stroke-linejoin:round;stroke:rgb(75.686275%,70.980392%,61.568627%);stroke-opacity:1;stroke-miterlimit:10;" d="M 48.601563 68.257813 L 61.136719 87.269531 L 68.125 97.203125 "/>
<path style="fill:none;stroke-width:8;stroke-linecap:round;stroke-linejoin:round;stroke:rgb(75.686275%,70.980392%,61.568627%);stroke-opacity:1;stroke-miterlimit:10;" d="M 7.894531 238.238281 L 21.441406 233.78125 L 41.679688 226.925781 "/>
<path style="fill:none;stroke-width:8;stroke-linecap:round;stroke-linejoin:round;stroke:rgb(75.686275%,70.980392%,61.568627%);stroke-opacity:1;stroke-miterlimit:10;" d="M 80.804688 182.554688 L 62.699219 188.011719 L 44.265625 193.746094 "/>
<path style="fill:none;stroke-width:8;stroke-linecap:round;stroke-linejoin:round;stroke:rgb(75.686275%,70.980392%,61.568627%);stroke-opacity:1;stroke-miterlimit:10;" d="M 40.1875 116.496094 L 59.039063 111.191406 L 77.867188 105.703125 "/>
<path style="fill:none;stroke-width:8;stroke-linecap:round;stroke-linejoin:round;stroke:rgb(75.686275%,70.980392%,61.568627%);stroke-opacity:1;stroke-miterlimit:10;" d="M 23.761719 99.476563 L 32.3125 97.238281 L 61.136719 87.269531 "/>
<path style="fill:none;stroke-width:8;stroke-linecap:round;stroke-linejoin:round;stroke:rgb(75.686275%,70.980392%,61.568627%);stroke-opacity:1;stroke-miterlimit:10;" d="M 175.734375 208.621094 L 143.414063 172.1875 "/>
<path style="fill:none;stroke-width:8;stroke-linecap:round;stroke-linejoin:round;stroke:rgb(75.686275%,70.980392%,61.568627%);stroke-opacity:1;stroke-miterlimit:10;" d="M 73.554688 158.171875 L 59.039063 111.191406 "/>
<path style="fill:none;stroke-width:8;stroke-linecap:round;stroke-linejoin:round;stroke:rgb(75.686275%,70.980392%,61.568627%);stroke-opacity:1;stroke-miterlimit:10;" d="M 35.949219 49.273438 L 19.164063 55.578125 L 7.867188 59.824219 L 4.691406 60.894531 L -9 65.519531 "/>
<path style="fill:none;stroke-width:8;stroke-linecap:round;stroke-linejoin:round;stroke:rgb(75.686275%,70.980392%,61.568627%);stroke-opacity:1;stroke-miterlimit:10;" d="M 98.675781 231.433594 L 91.59375 213.433594 L 85.230469 195.066406 L 81.890625 185.625 L 81.285156 183.910156 L 80.804688 182.554688 "/>
<path style="fill:none;stroke-width:8;stroke-linecap:round;stroke-linejoin:round;stroke:rgb(75.686275%,70.980392%,61.568627%);stroke-opacity:1;stroke-miterlimit:10;" d="M 80.476563 238.273438 L 62.699219 188.011719 "/>
<path style="fill:none;stroke-width:8;stroke-linecap:round;stroke-linejoin:round;stroke:rgb(75.686275%,70.980392%,61.568627%);stroke-opacity:1;stroke-miterlimit:10;" d="M 56.734375 169.152344 L 40.1875 116.496094 "/>
<path style="fill:none;stroke-width:8;stroke-linecap:round;stroke-linejoin:round;stroke:rgb(75.686275%,70.980392%,61.568627%);stroke-opacity:1;stroke-miterlimit:10;" d="M -4.945313 87.179688 L 11.242188 81.496094 L 16.375 79.695313 L 26.882813 75.964844 L 48.601563 68.257813 "/>
<path style="fill:none;stroke-width:8;stroke-linecap:round;stroke-linejoin:round;stroke:rgb(75.686275%,70.980392%,61.568627%);stroke-opacity:1;stroke-miterlimit:10;" d="M 129.433594 218.769531 L 119.066406 202.730469 L 109.121094 188.277344 L 107.949219 186.570313 L 100.40625 189.390625 L 85.230469 195.066406 "/>
<path style="fill:none;stroke-width:8;stroke-linecap:round;stroke-linejoin:round;stroke:rgb(75.686275%,70.980392%,61.568627%);stroke-opacity:1;stroke-miterlimit:10;" d="M 174.5 248.761719 L 165.703125 264 "/>
<path style="fill:none;stroke-width:8;stroke-linecap:round;stroke-linejoin:round;stroke:rgb(75.686275%,70.980392%,61.568627%);stroke-opacity:1;stroke-miterlimit:10;" d="M 207.074219 44.304688 L 205.082031 45.894531 L 176.839844 68.472656 L 163.285156 79.304688 L 153.648438 87.007813 "/>
<path style="fill:none;stroke-width:8;stroke-linecap:round;stroke-linejoin:round;stroke:rgb(75.686275%,70.980392%,61.568627%);stroke-opacity:1;stroke-miterlimit:10;" d="M 62.699219 244.835938 L 80.476563 238.273438 L 98.675781 231.433594 L 129.433594 218.769531 "/>
<path style="fill:none;stroke-width:8;stroke-linecap:round;stroke-linejoin:round;stroke:rgb(75.686275%,70.980392%,61.568627%);stroke-opacity:1;stroke-miterlimit:10;" d="M -9 10.503906 L -8.675781 11.488281 L -3.449219 27.0625 L -2.757813 29.125 L 0.714844 38.507813 L 3.894531 47.972656 L 4.535156 49.792969 L 7.867188 59.824219 "/>
<path style="fill:none;stroke-width:8;stroke-linecap:round;stroke-linejoin:round;stroke:rgb(75.686275%,70.980392%,61.568627%);stroke-opacity:1;stroke-miterlimit:10;" d="M 195.25 264 L 177.621094 252.53125 L 174.5 248.761719 L 163.664063 230.636719 "/>
<path style="fill:none;stroke-width:8;stroke-linecap:round;stroke-linejoin:round;stroke:rgb(75.686275%,70.980392%,61.568627%);stroke-opacity:1;stroke-miterlimit:10;" d="M 248.574219 139.957031 L 264 150.089844 "/>
<path style="fill:none;stroke-width:8;stroke-linecap:round;stroke-linejoin:round;stroke:rgb(75.686275%,70.980392%,61.568627%);stroke-opacity:1;stroke-miterlimit:10;" d="M 235.753906 157.753906 L 264 176.050781 "/>
<path style="fill:none;stroke-width:8;stroke-linecap:round;stroke-linejoin:round;stroke:rgb(75.686275%,70.980392%,61.568627%);stroke-opacity:1;stroke-miterlimit:10;" d="M 126.988281 264 L 120.417969 247.136719 "/>
<path style="fill:none;stroke-width:8;stroke-linecap:round;stroke-linejoin:round;stroke:rgb(75.686275%,70.980392%,61.568627%);stroke-opacity:1;stroke-miterlimit:10;" d="M 100.144531 254.957031 L 103.617188 264 "/>
<path style="fill:none;stroke-width:8;stroke-linecap:round;stroke-linejoin:round;stroke:rgb(75.686275%,70.980392%,61.568627%);stroke-opacity:1;stroke-miterlimit:10;" d="M 200.738281 207.085938 L 191.636719 196.859375 L 166.714844 169.855469 L 164.550781 168.386719 L 162.707031 167.617188 L 160.261719 167.160156 L 158.28125 167.1875 L 156.371094 167.527344 L 143.414063 172.1875 L 126.265625 177.921875 "/>
<path style="fill:none;stroke-width:8;stroke-linecap:round;stroke-linejoin:round;stroke:rgb(75.686275%,70.980392%,61.568627%);stroke-opacity:1;stroke-miterlimit:10;" d="M 38.464844 175.378906 L 56.734375 169.152344 L 73.554688 158.171875 L 90.125 146.796875 L 87.085938 136.914063 L 83.691406 125.878906 L 77.867188 105.703125 "/>
<path style="fill:none;stroke-width:8;stroke-linecap:round;stroke-linejoin:round;stroke:rgb(75.686275%,70.980392%,61.568627%);stroke-opacity:1;stroke-miterlimit:10;" d="M 209.636719 194.726563 L 264 231.148438 "/>
<path style="fill:none;stroke-width:8;stroke-linecap:round;stroke-linejoin:round;stroke:rgb(75.686275%,70.980392%,61.568627%);stroke-opacity:1;stroke-miterlimit:10;" d="M 264 257.0625 L 252.886719 249.375 L 196.425781 212.328125 "/>
<path style="fill:none;stroke-width:8;stroke-linecap:round;stroke-linejoin:round;stroke:rgb(75.686275%,70.980392%,61.568627%);stroke-opacity:1;stroke-miterlimit:10;" d="M 200.738281 207.085938 L 209.636719 194.726563 L 222.082031 176.726563 L 235.753906 157.753906 L 248.574219 139.957031 L 264 124.398438 "/>
<path style="fill:none;stroke-width:8;stroke-linecap:round;stroke-linejoin:round;stroke:rgb(75.686275%,70.980392%,61.568627%);stroke-opacity:1;stroke-miterlimit:10;" d="M 178.71875 220.886719 L 190.601563 234.132813 L 234.933594 264 "/>
<path style="fill:none;stroke-width:8;stroke-linecap:round;stroke-linejoin:round;stroke:rgb(75.686275%,70.980392%,61.568627%);stroke-opacity:1;stroke-miterlimit:10;" d="M 142.304688 17.519531 L 158.03125 5.679688 L 158.851563 4.835938 L 159.332031 3.457031 L 158.96875 1.769531 L 158.105469 0.503906 L 151.867188 -7.679688 L 150.859375 -9 M 131.433594 -9 L 119.203125 1.214844 L 118.203125 4.464844 L 117.433594 8.359375 L 117.0625 12.5625 L 117.152344 16.703125 L 117.828125 18.296875 L 119.484375 21.332031 L 121.652344 24.339844 L 123.863281 26.640625 L 125.496094 27.652344 L 127.21875 27.988281 L 128.96875 27.804688 L 130.296875 27.253906 L 142.304688 17.519531 "/>
<path style="fill:none;stroke-width:8;stroke-linecap:round;stroke-linejoin:round;stroke:rgb(75.686275%,70.980392%,61.568627%);stroke-opacity:1;stroke-miterlimit:10;" d="M 25.207031 120.757813 L 23.945313 121.433594 L 23.015625 122.597656 L 22.59375 123.917969 L 27.347656 139.738281 L 28.355469 142.972656 L 38.464844 175.378906 L 44.265625 193.746094 L 46.464844 200.660156 L 47.34375 203.425781 L 62.699219 244.835938 "/>
<path style="fill:none;stroke-width:8;stroke-linecap:round;stroke-linejoin:round;stroke:rgb(75.686275%,70.980392%,61.568627%);stroke-opacity:1;stroke-miterlimit:10;" d="M 7.898438 264 L 5.886719 258.300781 L 4.964844 255.070313 "/>
<path style="fill:none;stroke-width:8;stroke-linecap:round;stroke-linejoin:round;stroke:rgb(75.686275%,70.980392%,61.568627%);stroke-opacity:1;stroke-miterlimit:10;" d="M 31.507813 264 L 21.441406 233.78125 "/>
<path style="fill:none;stroke-width:8;stroke-linecap:round;stroke-linejoin:round;stroke:rgb(75.686275%,70.980392%,61.568627%);stroke-opacity:1;stroke-miterlimit:10;" d="M 63.660156 -9 L 59.226563 -3.476563 L 49.695313 8.390625 L 48.761719 10.015625 L 48.414063 11.457031 L 48.460938 13.207031 L 48.949219 14.617188 L 49.953125 16.148438 L 67.054688 33.261719 L 68.453125 34.152344 L 70.132813 34.613281 L 72.113281 34.613281 L 73.53125 34.183594 L 74.953125 33.355469 L 94.921875 9.910156 L 95.460938 8.785156 L 95.554688 7.667969 L 94.96875 5.773438 L 83.269531 -9 "/>
<path style="fill:none;stroke-width:8;stroke-linecap:round;stroke-linejoin:round;stroke:rgb(75.686275%,70.980392%,61.568627%);stroke-opacity:1;stroke-miterlimit:10;" d="M 229.933594 145.8125 L 233.59375 140.140625 L 237.878906 134.3125 L 242.378906 128.886719 L 247.621094 123.210938 L 251.046875 119.929688 L 244.894531 112.109375 L 238.265625 103.175781 L 235.152344 101.222656 L 231.011719 100.988281 L 218.515625 106.132813 L 195.402344 114.105469 L 182.726563 124.714844 L 181.839844 125.820313 L 181.257813 127.167969 L 181.046875 128.703125 L 181.304688 130.265625 L 181.816406 131.371094 L 182.679688 132.472656 L 211.574219 159.429688 L 213.390625 160.441406 L 215.089844 160.871094 L 217.140625 160.78125 L 218.820313 160.195313 L 220.265625 159.277344 L 221.054688 158.449219 L 229.933594 145.8125 "/>
<path style="fill:none;stroke-width:8;stroke-linecap:round;stroke-linejoin:round;stroke:rgb(75.686275%,70.980392%,61.568627%);stroke-opacity:1;stroke-miterlimit:10;" d="M 75.933594 264 L 79.777344 262.558594 L 100.144531 254.957031 L 120.417969 247.136719 L 163.664063 230.636719 L 178.71875 220.886719 L 196.425781 212.328125 L 200.738281 207.085938 "/>
<path style="fill:none;stroke-width:8;stroke-linecap:round;stroke-linejoin:round;stroke:rgb(75.686275%,70.980392%,61.568627%);stroke-opacity:1;stroke-miterlimit:10;" d="M 174.242188 55.773438 L 187.925781 44.777344 L 189.226563 43.230469 L 189.527344 42.011719 L 189.28125 40.683594 L 188.304688 39.355469 L 178.554688 27.3125 L 174.046875 20.796875 L 172.992188 19.933594 L 171.457031 19.53125 L 169.886719 19.761719 L 168.390625 20.53125 L 162.382813 25.839844 L 141.339844 42.21875 L 121.558594 57.980469 L 117.921875 66.015625 L 115.546875 72.179688 L 115.171875 73.5 L 115.148438 75.21875 L 115.640625 76.964844 L 116.664063 78.5 L 117.992188 79.574219 L 119.484375 80.246094 L 134.511719 84.785156 L 136.9375 84.449219 L 138.800781 83.773438 L 140.78125 82.671875 L 142.132813 81.566406 L 144.3125 79.632813 L 174.242188 55.773438 "/>
<path style="fill:none;stroke-width:8;stroke-linecap:round;stroke-linejoin:round;stroke:rgb(75.686275%,70.980392%,61.568627%);stroke-opacity:1;stroke-miterlimit:10;" d="M 175.734375 208.621094 L 189.292969 200.023438 L 191.636719 196.859375 L 194.910156 194.121094 L 204.222656 181.0625 L 204.769531 179.425781 L 203.644531 177.367188 L 171.144531 147.410156 L 169.886719 146.640625 L 167.625 145.691406 L 165.433594 145.199219 L 163.175781 145.140625 L 161.265625 145.355469 L 128.640625 156.640625 L 127.6875 157.191406 L 125.730469 158.753906 L 124.097656 160.625 L 122.933594 162.652344 L 122.070313 165.164063 L 121.746094 167.585938 L 121.859375 169.734375 L 122.351563 172.066406 L 123.375 174.363281 L 124.5625 176.175781 L 126.265625 177.921875 L 136.890625 194.390625 L 157.769531 216.898438 L 160.121094 216.222656 L 164.386719 214.753906 L 168.464844 212.941406 L 171.984375 211.042969 L 175.734375 208.621094 "/>
<path style="fill:none;stroke-width:8;stroke-linecap:round;stroke-linejoin:round;stroke:rgb(75.686275%,70.980392%,61.568627%);stroke-opacity:1;stroke-miterlimit:10;" d="M 264 203.519531 L 222.082031 176.726563 "/>
<path style="fill:none;stroke-width:8;stroke-linecap:round;stroke-linejoin:round;stroke:rgb(75.686275%,70.980392%,61.568627%);stroke-opacity:1;stroke-miterlimit:10;" d="M 233.199219 77.3125 L 234.679688 79.675781 "/>
<path style="fill:none;stroke-width:8;stroke-linecap:round;stroke-linejoin:round;stroke:rgb(75.686275%,70.980392%,61.568627%);stroke-opacity:1;stroke-miterlimit:10;" d="M 218.15625 58.738281 L 220.292969 60.9375 "/>
<path style="fill:none;stroke-width:8;stroke-linecap:round;stroke-linejoin:round;stroke:rgb(75.686275%,70.980392%,61.568627%);stroke-opacity:1;stroke-miterlimit:10;" d="M 227.203125 69.957031 L 229.246094 72.402344 "/>
<path style="fill:none;stroke-width:8;stroke-linecap:round;stroke-linejoin:round;stroke:rgb(75.686275%,70.980392%,61.568627%);stroke-opacity:1;stroke-miterlimit:10;" d="M 229.246094 72.402344 L 233.199219 77.3125 "/>
<path style="fill:none;stroke-width:8;stroke-linecap:round;stroke-linejoin:round;stroke:rgb(75.686275%,70.980392%,61.568627%);stroke-opacity:1;stroke-miterlimit:10;" d="M 254.144531 104.75 L 258.90625 110.253906 "/>
<path style="fill:none;stroke-width:8;stroke-linecap:round;stroke-linejoin:round;stroke:rgb(75.686275%,70.980392%,61.568627%);stroke-opacity:1;stroke-miterlimit:10;" d="M 213.324219 52.296875 L 218.15625 58.738281 "/>
<path style="fill:none;stroke-width:8;stroke-linecap:round;stroke-linejoin:round;stroke:rgb(75.686275%,70.980392%,61.568627%);stroke-opacity:1;stroke-miterlimit:10;" d="M 220.292969 60.9375 L 227.203125 69.957031 "/>
<path style="fill:none;stroke-width:8;stroke-linecap:round;stroke-linejoin:round;stroke:rgb(75.686275%,70.980392%,61.568627%);stroke-opacity:1;stroke-miterlimit:10;" d="M 35.203125 207.164063 L 34.289063 204.367188 L 31.550781 196.023438 "/>
<path style="fill:none;stroke-width:8;stroke-linecap:round;stroke-linejoin:round;stroke:rgb(75.686275%,70.980392%,61.568627%);stroke-opacity:1;stroke-miterlimit:10;" d="M 15.082031 143.664063 L 10.3125 130.46875 "/>
<path style="fill:none;stroke-width:8;stroke-linecap:round;stroke-linejoin:round;stroke:rgb(75.686275%,70.980392%,61.568627%);stroke-opacity:1;stroke-miterlimit:10;" d="M -0.0117188 101.179688 L -4.945313 87.179688 "/>
<path style="fill:none;stroke-width:8;stroke-linecap:round;stroke-linejoin:round;stroke:rgb(75.686275%,70.980392%,61.568627%);stroke-opacity:1;stroke-miterlimit:10;" d="M 10.3125 130.46875 L -0.0117188 101.179688 "/>
<path style="fill:none;stroke-width:8;stroke-linecap:round;stroke-linejoin:round;stroke:rgb(75.686275%,70.980392%,61.568627%);stroke-opacity:1;stroke-miterlimit:10;" d="M 234.679688 79.675781 L 236.296875 82.191406 L 241.164063 89.019531 L 247.414063 96.378906 L 254.144531 104.75 "/>
<path style="fill:none;stroke-width:8;stroke-linecap:round;stroke-linejoin:round;stroke:rgb(75.686275%,70.980392%,61.568627%);stroke-opacity:1;stroke-miterlimit:10;" d="M 31.550781 196.023438 L 15.988281 146.554688 L 15.082031 143.664063 "/>
<path style="fill:none;stroke-width:8;stroke-linecap:round;stroke-linejoin:round;stroke:rgb(75.686275%,70.980392%,61.568627%);stroke-opacity:1;stroke-miterlimit:10;" d="M 54.703125 259.410156 L 41.679688 226.925781 L 35.203125 207.164063 "/>
<path style="fill:none;stroke-width:8;stroke-linecap:round;stroke-linejoin:round;stroke:rgb(75.686275%,70.980392%,61.568627%);stroke-opacity:1;stroke-miterlimit:10;" d="M 164.890625 -9 L 187.664063 20.046875 L 207.074219 44.304688 L 213.324219 52.296875 "/>
<path style="fill:none;stroke-width:8;stroke-linecap:round;stroke-linejoin:round;stroke:rgb(75.686275%,70.980392%,61.568627%);stroke-opacity:1;stroke-miterlimit:10;" d="M 264 239.933594 L 252.886719 249.375 L 236.148438 264 "/>
<path style="fill:none;stroke-width:6;stroke-linecap:round;stroke-linejoin:round;stroke:rgb(100%,100%,100%);stroke-opacity:1;stroke-miterlimit:10;" d="M 229.855469 90.175781 L 234.945313 90.941406 L 236.964844 91.433594 L 237.800781 92.324219 "/>
<path style="fill:none;stroke-width:6;stroke-linecap:round;stroke-linejoin:round;stroke:rgb(100%,100%,100%);stroke-opacity:1;stroke-miterlimit:10;" d="M 7.394531 -9 L 7.355469 -3.921875 L 8.078125 3.804688 "/>
<path style="fill:none;stroke-width:6;stroke-linecap:round;stroke-linejoin:round;stroke:rgb(100%,100%,100%);stroke-opacity:1;stroke-miterlimit:10;" d="M 15.449219 -9 L 20.964844 2.304688 L 22.140625 4.71875 "/>
<path style="fill:none;stroke-width:6;stroke-linecap:round;stroke-linejoin:round;stroke:rgb(100%,100%,100%);stroke-opacity:1;stroke-miterlimit:10;" d="M 4.691406 60.894531 L 11.242188 81.496094 "/>
<path style="fill:none;stroke-width:6;stroke-linecap:round;stroke-linejoin:round;stroke:rgb(100%,100%,100%);stroke-opacity:1;stroke-miterlimit:10;" d="M 19.164063 55.578125 L 26.882813 75.964844 "/>
<path style="fill:none;stroke-width:6;stroke-linecap:round;stroke-linejoin:round;stroke:rgb(100%,100%,100%);stroke-opacity:1;stroke-miterlimit:10;" d="M -2.914063 2.507813 L 2.601563 2.507813 L 5.675781 3.132813 L 8.078125 3.804688 L 11.148438 5.003906 L 13.210938 5.820313 L 20.964844 2.304688 "/>
<path style="fill:none;stroke-width:6;stroke-linecap:round;stroke-linejoin:round;stroke:rgb(100%,100%,100%);stroke-opacity:1;stroke-miterlimit:10;" d="M 188.75 84.84375 L 215.710938 63.949219 "/>
<path style="fill:none;stroke-width:6;stroke-linecap:round;stroke-linejoin:round;stroke:rgb(100%,100%,100%);stroke-opacity:1;stroke-miterlimit:10;" d="M 213.324219 52.296875 L 182.578125 77.363281 "/>
<path style="fill:none;stroke-width:6;stroke-linecap:round;stroke-linejoin:round;stroke:rgb(100%,100%,100%);stroke-opacity:1;stroke-miterlimit:10;" d="M 144.40625 93.289063 L 155.683594 110.570313 L 156.34375 112.351563 L 156.902344 113.753906 L 152.15625 118.945313 L 145.652344 122.503906 L 143.25 123.097656 "/>
<path style="fill:none;stroke-width:6;stroke-linecap:round;stroke-linejoin:round;stroke:rgb(100%,100%,100%);stroke-opacity:1;stroke-miterlimit:10;" d="M 236.296875 82.191406 L 229.855469 90.175781 L 227.597656 90.210938 L 223.1875 90.65625 L 218.574219 91.339844 L 212.953125 92.570313 L 206.953125 94.5 L 204.476563 95.320313 L 202.082031 96.875 L 199.144531 98.566406 L 195.726563 100.585938 "/>
<path style="fill:none;stroke-width:6;stroke-linecap:round;stroke-linejoin:round;stroke:rgb(100%,100%,100%);stroke-opacity:1;stroke-miterlimit:10;" d="M 143.25 123.097656 L 141.1875 121.691406 L 135.625 111.128906 L 134.09375 109.285156 L 131.8125 107.101563 L 130.3125 105.316406 L 131.09375 103.097656 L 132.25 101.164063 L 141.46875 95.285156 L 144.40625 93.289063 L 153.648438 87.007813 "/>
<path style="fill:none;stroke-width:6;stroke-linecap:round;stroke-linejoin:round;stroke:rgb(100%,100%,100%);stroke-opacity:1;stroke-miterlimit:10;" d="M 176.839844 68.472656 L 182.578125 77.363281 L 188.75 84.84375 L 190.179688 87.613281 L 191.675781 89.683594 L 202.46875 86.1875 L 216.757813 80.65625 L 229.246094 72.402344 "/>
<path style="fill:none;stroke-width:6;stroke-linecap:round;stroke-linejoin:round;stroke:rgb(100%,100%,100%);stroke-opacity:1;stroke-miterlimit:10;" d="M 142.304688 17.519531 L 138.816406 12.472656 L 138.375 9.265625 "/>
<path style="fill:none;stroke-width:6;stroke-linecap:round;stroke-linejoin:round;stroke:rgb(100%,100%,100%);stroke-opacity:1;stroke-miterlimit:10;" d="M 32.3125 97.238281 L 35.339844 107.296875 "/>
<path style="fill:none;stroke-width:6;stroke-linecap:round;stroke-linejoin:round;stroke:rgb(100%,100%,100%);stroke-opacity:1;stroke-miterlimit:10;" d="M 24.273438 30.378906 L 18.425781 20.6875 "/>
<path style="fill:none;stroke-width:6;stroke-linecap:round;stroke-linejoin:round;stroke:rgb(100%,100%,100%);stroke-opacity:1;stroke-miterlimit:10;" d="M 187.664063 20.046875 L 186.183594 21.226563 L 180.820313 25.503906 L 178.554688 27.3125 "/>
<path style="fill:none;stroke-width:6;stroke-linecap:round;stroke-linejoin:round;stroke:rgb(100%,100%,100%);stroke-opacity:1;stroke-miterlimit:10;" d="M 244.894531 112.109375 L 252.15625 106.332031 L 254.144531 104.75 "/>
<path style="fill:none;stroke-width:6;stroke-linecap:round;stroke-linejoin:round;stroke:rgb(100%,100%,100%);stroke-opacity:1;stroke-miterlimit:10;" d="M 144.3125 79.632813 L 142.675781 77.917969 L 137.890625 72.917969 L 135.351563 71.246094 "/>
<path style="fill:none;stroke-width:6;stroke-linecap:round;stroke-linejoin:round;stroke:rgb(100%,100%,100%);stroke-opacity:1;stroke-miterlimit:10;" d="M 163.664063 230.636719 L 157.675781 219.8125 "/>
<path style="fill:none;stroke-width:6;stroke-linecap:round;stroke-linejoin:round;stroke:rgb(100%,100%,100%);stroke-opacity:1;stroke-miterlimit:10;" d="M 174.242188 55.773438 L 173.074219 54.046875 L 168.6875 47.578125 L 168.308594 44.953125 "/>
<path style="fill:none;stroke-width:6;stroke-linecap:round;stroke-linejoin:round;stroke:rgb(100%,100%,100%);stroke-opacity:1;stroke-miterlimit:10;" d="M 35.203125 207.164063 L 47.34375 203.425781 "/>
<path style="fill:none;stroke-width:6;stroke-linecap:round;stroke-linejoin:round;stroke:rgb(100%,100%,100%);stroke-opacity:1;stroke-miterlimit:10;" d="M 46.464844 200.660156 L 34.289063 204.367188 "/>
<path style="fill:none;stroke-width:6;stroke-linecap:round;stroke-linejoin:round;stroke:rgb(100%,100%,100%);stroke-opacity:1;stroke-miterlimit:10;" d="M 202.320313 124.929688 L 199.84375 120.429688 L 195.402344 114.105469 "/>
<path style="fill:none;stroke-width:6;stroke-linecap:round;stroke-linejoin:round;stroke:rgb(100%,100%,100%);stroke-opacity:1;stroke-miterlimit:10;" d="M 15.988281 146.554688 L 28.355469 142.972656 "/>
<path style="fill:none;stroke-width:6;stroke-linecap:round;stroke-linejoin:round;stroke:rgb(100%,100%,100%);stroke-opacity:1;stroke-miterlimit:10;" d="M 27.347656 139.738281 L 15.082031 143.664063 "/>
<path style="fill:none;stroke-width:6;stroke-linecap:round;stroke-linejoin:round;stroke:rgb(100%,100%,100%);stroke-opacity:1;stroke-miterlimit:10;" d="M 141.339844 42.21875 L 142.351563 43.578125 L 147.304688 50.230469 L 147.257813 53.136719 "/>
<path style="fill:none;stroke-width:6;stroke-linecap:round;stroke-linejoin:round;stroke:rgb(100%,100%,100%);stroke-opacity:1;stroke-miterlimit:10;" d="M 117.921875 66.015625 L 105.914063 61.269531 "/>
<path style="fill:none;stroke-width:6;stroke-linecap:round;stroke-linejoin:round;stroke:rgb(100%,100%,100%);stroke-opacity:1;stroke-miterlimit:10;" d="M 229.933594 145.8125 L 227.605469 143.605469 L 225.179688 141.917969 L 222.734375 140.664063 L 219.960938 139.648438 L 218.304688 139.25 "/>
<path style="fill:none;stroke-width:6;stroke-linecap:round;stroke-linejoin:round;stroke:rgb(100%,100%,100%);stroke-opacity:1;stroke-miterlimit:10;" d="M 218.515625 106.132813 L 224.527344 115.882813 L 225.484375 118.949219 "/>
<path style="fill:none;stroke-width:6;stroke-linecap:round;stroke-linejoin:round;stroke:rgb(100%,100%,100%);stroke-opacity:1;stroke-miterlimit:10;" d="M 40.1875 116.496094 L 25.207031 120.757813 "/>
<path style="fill:none;stroke-width:6;stroke-linecap:round;stroke-linejoin:round;stroke:rgb(100%,100%,100%);stroke-opacity:1;stroke-miterlimit:10;" d="M 59.226563 -3.476563 L 70.851563 7.929688 "/>
<path style="fill:none;stroke-width:6;stroke-linecap:round;stroke-linejoin:round;stroke:rgb(100%,100%,100%);stroke-opacity:1;stroke-miterlimit:10;" d="M 83.691406 125.878906 L 85.558594 125.558594 L 89.679688 124.53125 L 93.828125 122.84375 L 96.882813 121.15625 L 98.722656 119.929688 "/>
<path style="fill:none;stroke-width:6;stroke-linecap:round;stroke-linejoin:round;stroke:rgb(100%,100%,100%);stroke-opacity:1;stroke-miterlimit:10;" d="M 5.171875 101.71875 L 22.421875 95.894531 "/>
<path style="fill:none;stroke-width:6;stroke-linecap:round;stroke-linejoin:round;stroke:rgb(100%,100%,100%);stroke-opacity:1;stroke-miterlimit:10;" d="M 3.894531 47.972656 L -9 52.363281 "/>
<path style="fill:none;stroke-width:6;stroke-linecap:round;stroke-linejoin:round;stroke:rgb(100%,100%,100%);stroke-opacity:1;stroke-miterlimit:10;" d="M 35.949219 49.273438 L 30.121094 40.011719 L 24.273438 30.378906 "/>
<path style="fill:none;stroke-width:6;stroke-linecap:round;stroke-linejoin:round;stroke:rgb(100%,100%,100%);stroke-opacity:1;stroke-miterlimit:10;" d="M 48.601563 68.257813 L 35.949219 49.273438 "/>
<path style="fill:none;stroke-width:6;stroke-linecap:round;stroke-linejoin:round;stroke:rgb(100%,100%,100%);stroke-opacity:1;stroke-miterlimit:10;" d="M 77.867188 105.703125 L 81.152344 104.84375 L 84.390625 103.585938 L 87.492188 101.929688 L 90.355469 99.90625 L 92.804688 97.726563 L 95.25 94.96875 L 96.953125 92.546875 "/>
<path style="fill:none;stroke-width:6;stroke-linecap:round;stroke-linejoin:round;stroke:rgb(100%,100%,100%);stroke-opacity:1;stroke-miterlimit:10;" d="M 0.714844 38.507813 L 13.359375 34.148438 L 16.472656 33.070313 L 24.273438 30.378906 "/>
<path style="fill:none;stroke-width:6;stroke-linecap:round;stroke-linejoin:round;stroke:rgb(100%,100%,100%);stroke-opacity:1;stroke-miterlimit:10;" d="M 30.121094 40.011719 L 4.535156 49.792969 "/>
<path style="fill:none;stroke-width:6;stroke-linecap:round;stroke-linejoin:round;stroke:rgb(100%,100%,100%);stroke-opacity:1;stroke-miterlimit:10;" d="M 119.066406 202.730469 L 91.59375 213.433594 "/>
<path style="fill:none;stroke-width:6;stroke-linecap:round;stroke-linejoin:round;stroke:rgb(100%,100%,100%);stroke-opacity:1;stroke-miterlimit:10;" d="M 264 78.769531 L 247.414063 96.378906 "/>
<path style="fill:none;stroke-width:6;stroke-linecap:round;stroke-linejoin:round;stroke:rgb(100%,100%,100%);stroke-opacity:1;stroke-miterlimit:10;" d="M 16.375 79.695313 L 22.421875 95.894531 L 23.761719 99.476563 L 25.8125 109.71875 "/>
<path style="fill:none;stroke-width:6;stroke-linecap:round;stroke-linejoin:round;stroke:rgb(100%,100%,100%);stroke-opacity:1;stroke-miterlimit:10;" d="M 48.601563 68.257813 L 61.136719 87.269531 L 68.125 97.203125 "/>
<path style="fill:none;stroke-width:6;stroke-linecap:round;stroke-linejoin:round;stroke:rgb(100%,100%,100%);stroke-opacity:1;stroke-miterlimit:10;" d="M 7.894531 238.238281 L 21.441406 233.78125 L 41.679688 226.925781 "/>
<path style="fill:none;stroke-width:6;stroke-linecap:round;stroke-linejoin:round;stroke:rgb(100%,100%,100%);stroke-opacity:1;stroke-miterlimit:10;" d="M 80.804688 182.554688 L 62.699219 188.011719 L 44.265625 193.746094 "/>
<path style="fill:none;stroke-width:6;stroke-linecap:round;stroke-linejoin:round;stroke:rgb(100%,100%,100%);stroke-opacity:1;stroke-miterlimit:10;" d="M 40.1875 116.496094 L 59.039063 111.191406 L 77.867188 105.703125 "/>
<path style="fill:none;stroke-width:6;stroke-linecap:round;stroke-linejoin:round;stroke:rgb(100%,100%,100%);stroke-opacity:1;stroke-miterlimit:10;" d="M 23.761719 99.476563 L 32.3125 97.238281 L 61.136719 87.269531 "/>
<path style="fill:none;stroke-width:6;stroke-linecap:round;stroke-linejoin:round;stroke:rgb(100%,100%,100%);stroke-opacity:1;stroke-miterlimit:10;" d="M 175.734375 208.621094 L 143.414063 172.1875 "/>
<path style="fill:none;stroke-width:6;stroke-linecap:round;stroke-linejoin:round;stroke:rgb(100%,100%,100%);stroke-opacity:1;stroke-miterlimit:10;" d="M 73.554688 158.171875 L 59.039063 111.191406 "/>
<path style="fill:none;stroke-width:6;stroke-linecap:round;stroke-linejoin:round;stroke:rgb(100%,100%,100%);stroke-opacity:1;stroke-miterlimit:10;" d="M 35.949219 49.273438 L 19.164063 55.578125 L 7.867188 59.824219 L 4.691406 60.894531 L -9 65.519531 "/>
<path style="fill:none;stroke-width:6;stroke-linecap:round;stroke-linejoin:round;stroke:rgb(100%,100%,100%);stroke-opacity:1;stroke-miterlimit:10;" d="M 98.675781 231.433594 L 91.59375 213.433594 L 85.230469 195.066406 L 81.890625 185.625 L 81.285156 183.910156 L 80.804688 182.554688 "/>
<path style="fill:none;stroke-width:6;stroke-linecap:round;stroke-linejoin:round;stroke:rgb(100%,100%,100%);stroke-opacity:1;stroke-miterlimit:10;" d="M 80.476563 238.273438 L 62.699219 188.011719 "/>
<path style="fill:none;stroke-width:6;stroke-linecap:round;stroke-linejoin:round;stroke:rgb(100%,100%,100%);stroke-opacity:1;stroke-miterlimit:10;" d="M 56.734375 169.152344 L 40.1875 116.496094 "/>
<path style="fill:none;stroke-width:6;stroke-linecap:round;stroke-linejoin:round;stroke:rgb(100%,100%,100%);stroke-opacity:1;stroke-miterlimit:10;" d="M -4.945313 87.179688 L 11.242188 81.496094 L 16.375 79.695313 L 26.882813 75.964844 L 48.601563 68.257813 "/>
<path style="fill:none;stroke-width:6;stroke-linecap:round;stroke-linejoin:round;stroke:rgb(100%,100%,100%);stroke-opacity:1;stroke-miterlimit:10;" d="M 129.433594 218.769531 L 119.066406 202.730469 L 109.121094 188.277344 L 107.949219 186.570313 L 100.40625 189.390625 L 85.230469 195.066406 "/>
<path style="fill:none;stroke-width:6;stroke-linecap:round;stroke-linejoin:round;stroke:rgb(100%,100%,100%);stroke-opacity:1;stroke-miterlimit:10;" d="M 174.5 248.761719 L 165.703125 264 "/>
<path style="fill:none;stroke-width:6;stroke-linecap:round;stroke-linejoin:round;stroke:rgb(100%,100%,100%);stroke-opacity:1;stroke-miterlimit:10;" d="M 207.074219 44.304688 L 205.082031 45.894531 L 176.839844 68.472656 L 163.285156 79.304688 L 153.648438 87.007813 "/>
<path style="fill:none;stroke-width:6;stroke-linecap:round;stroke-linejoin:round;stroke:rgb(100%,100%,100%);stroke-opacity:1;stroke-miterlimit:10;" d="M 62.699219 244.835938 L 80.476563 238.273438 L 98.675781 231.433594 L 129.433594 218.769531 "/>
<path style="fill:none;stroke-width:6;stroke-linecap:round;stroke-linejoin:round;stroke:rgb(100%,100%,100%);stroke-opacity:1;stroke-miterlimit:10;" d="M -9 10.503906 L -8.675781 11.488281 L -3.449219 27.0625 L -2.757813 29.125 L 0.714844 38.507813 L 3.894531 47.972656 L 4.535156 49.792969 L 7.867188 59.824219 "/>
<path style="fill:none;stroke-width:6;stroke-linecap:round;stroke-linejoin:round;stroke:rgb(100%,100%,100%);stroke-opacity:1;stroke-miterlimit:10;" d="M 195.25 264 L 177.621094 252.53125 L 174.5 248.761719 L 163.664063 230.636719 "/>
<path style="fill:none;stroke-width:6;stroke-linecap:round;stroke-linejoin:round;stroke:rgb(100%,100%,100%);stroke-opacity:1;stroke-miterlimit:10;" d="M 248.574219 139.957031 L 264 150.089844 "/>
<path style="fill:none;stroke-width:6;stroke-linecap:round;stroke-linejoin:round;stroke:rgb(100%,100%,100%);stroke-opacity:1;stroke-miterlimit:10;" d="M 235.753906 157.753906 L 264 176.050781 "/>
<path style="fill:none;stroke-width:6;stroke-linecap:round;stroke-linejoin:round;stroke:rgb(100%,100%,100%);stroke-opacity:1;stroke-miterlimit:10;" d="M 126.988281 264 L 120.417969 247.136719 "/>
<path style="fill:none;stroke-width:6;stroke-linecap:round;stroke-linejoin:round;stroke:rgb(100%,100%,100%);stroke-opacity:1;stroke-miterlimit:10;" d="M 100.144531 254.957031 L 103.617188 264 "/>
<path style="fill:none;stroke-width:6;stroke-linecap:round;stroke-linejoin:round;stroke:rgb(100%,100%,100%);stroke-opacity:1;stroke-miterlimit:10;" d="M 200.738281 207.085938 L 191.636719 196.859375 L 166.714844 169.855469 L 164.550781 168.386719 L 162.707031 167.617188 L 160.261719 167.160156 L 158.28125 167.1875 L 156.371094 167.527344 L 143.414063 172.1875 L 126.265625 177.921875 "/>
<path style="fill:none;stroke-width:6;stroke-linecap:round;stroke-linejoin:round;stroke:rgb(100%,100%,100%);stroke-opacity:1;stroke-miterlimit:10;" d="M 38.464844 175.378906 L 56.734375 169.152344 L 73.554688 158.171875 L 90.125 146.796875 L 87.085938 136.914063 L 83.691406 125.878906 L 77.867188 105.703125 "/>
<path style="fill:none;stroke-width:6;stroke-linecap:round;stroke-linejoin:round;stroke:rgb(100%,100%,100%);stroke-opacity:1;stroke-miterlimit:10;" d="M 209.636719 194.726563 L 264 231.148438 "/>
<path style="fill:none;stroke-width:6;stroke-linecap:round;stroke-linejoin:round;stroke:rgb(100%,100%,100%);stroke-opacity:1;stroke-miterlimit:10;" d="M 264 257.0625 L 252.886719 249.375 L 196.425781 212.328125 "/>
<path style="fill:none;stroke-width:6;stroke-linecap:round;stroke-linejoin:round;stroke:rgb(100%,100%,100%);stroke-opacity:1;stroke-miterlimit:10;" d="M 200.738281 207.085938 L 209.636719 194.726563 L 222.082031 176.726563 L 235.753906 157.753906 L 248.574219 139.957031 L 264 124.398438 "/>
<path style="fill:none;stroke-width:6;stroke-linecap:round;stroke-linejoin:round;stroke:rgb(100%,100%,100%);stroke-opacity:1;stroke-miterlimit:10;" d="M 178.71875 220.886719 L 190.601563 234.132813 L 234.933594 264 "/>
<path style="fill:none;stroke-width:6;stroke-linecap:round;stroke-linejoin:round;stroke:rgb(100%,100%,100%);stroke-opacity:1;stroke-miterlimit:10;" d="M 142.304688 17.519531 L 158.03125 5.679688 L 158.851563 4.835938 L 159.332031 3.457031 L 158.96875 1.769531 L 158.105469 0.503906 L 151.867188 -7.679688 L 150.859375 -9 M 131.433594 -9 L 119.203125 1.214844 L 118.203125 4.464844 L 117.433594 8.359375 L 117.0625 12.5625 L 117.152344 16.703125 L 117.828125 18.296875 L 119.484375 21.332031 L 121.652344 24.339844 L 123.863281 26.640625 L 125.496094 27.652344 L 127.21875 27.988281 L 128.96875 27.804688 L 130.296875 27.253906 L 142.304688 17.519531 "/>
<path style="fill:none;stroke-width:6;stroke-linecap:round;stroke-linejoin:round;stroke:rgb(100%,100%,100%);stroke-opacity:1;stroke-miterlimit:10;" d="M 25.207031 120.757813 L 23.945313 121.433594 L 23.015625 122.597656 L 22.59375 123.917969 L 27.347656 139.738281 L 28.355469 142.972656 L 38.464844 175.378906 L 44.265625 193.746094 L 46.464844 200.660156 L 47.34375 203.425781 L 62.699219 244.835938 "/>
<path style="fill:none;stroke-width:6;stroke-linecap:round;stroke-linejoin:round;stroke:rgb(100%,100%,100%);stroke-opacity:1;stroke-miterlimit:10;" d="M 7.898438 264 L 5.886719 258.300781 L 4.964844 255.070313 "/>
<path style="fill:none;stroke-width:6;stroke-linecap:round;stroke-linejoin:round;stroke:rgb(100%,100%,100%);stroke-opacity:1;stroke-miterlimit:10;" d="M 31.507813 264 L 21.441406 233.78125 "/>
<path style="fill:none;stroke-width:6;stroke-linecap:round;stroke-linejoin:round;stroke:rgb(100%,100%,100%);stroke-opacity:1;stroke-miterlimit:10;" d="M 63.660156 -9 L 59.226563 -3.476563 L 49.695313 8.390625 L 48.761719 10.015625 L 48.414063 11.457031 L 48.460938 13.207031 L 48.949219 14.617188 L 49.953125 16.148438 L 67.054688 33.261719 L 68.453125 34.152344 L 70.132813 34.613281 L 72.113281 34.613281 L 73.53125 34.183594 L 74.953125 33.355469 L 94.921875 9.910156 L 95.460938 8.785156 L 95.554688 7.667969 L 94.96875 5.773438 L 83.269531 -9 "/>
<path style="fill:none;stroke-width:6;stroke-linecap:round;stroke-linejoin:round;stroke:rgb(100%,100%,100%);stroke-opacity:1;stroke-miterlimit:10;" d="M 229.933594 145.8125 L 233.59375 140.140625 L 237.878906 134.3125 L 242.378906 128.886719 L 247.621094 123.210938 L 251.046875 119.929688 L 244.894531 112.109375 L 238.265625 103.175781 L 235.152344 101.222656 L 231.011719 100.988281 L 218.515625 106.132813 L 195.402344 114.105469 L 182.726563 124.714844 L 181.839844 125.820313 L 181.257813 127.167969 L 181.046875 128.703125 L 181.304688 130.265625 L 181.816406 131.371094 L 182.679688 132.472656 L 211.574219 159.429688 L 213.390625 160.441406 L 215.089844 160.871094 L 217.140625 160.78125 L 218.820313 160.195313 L 220.265625 159.277344 L 221.054688 158.449219 L 229.933594 145.8125 "/>
<path style="fill:none;stroke-width:6;stroke-linecap:round;stroke-linejoin:round;stroke:rgb(100%,100%,100%);stroke-opacity:1;stroke-miterlimit:10;" d="M 75.933594 264 L 79.777344 262.558594 L 100.144531 254.957031 L 120.417969 247.136719 L 163.664063 230.636719 L 178.71875 220.886719 L 196.425781 212.328125 L 200.738281 207.085938 "/>
<path style="fill:none;stroke-width:6;stroke-linecap:round;stroke-linejoin:round;stroke:rgb(100%,100%,100%);stroke-opacity:1;stroke-miterlimit:10;" d="M 174.242188 55.773438 L 187.925781 44.777344 L 189.226563 43.230469 L 189.527344 42.011719 L 189.28125 40.683594 L 188.304688 39.355469 L 178.554688 27.3125 L 174.046875 20.796875 L 172.992188 19.933594 L 171.457031 19.53125 L 169.886719 19.761719 L 168.390625 20.53125 L 162.382813 25.839844 L 141.339844 42.21875 L 121.558594 57.980469 L 117.921875 66.015625 L 115.546875 72.179688 L 115.171875 73.5 L 115.148438 75.21875 L 115.640625 76.964844 L 116.664063 78.5 L 117.992188 79.574219 L 119.484375 80.246094 L 134.511719 84.785156 L 136.9375 84.449219 L 138.800781 83.773438 L 140.78125 82.671875 L 142.132813 81.566406 L 144.3125 79.632813 L 174.242188 55.773438 "/>
<path style="fill:none;stroke-width:6;stroke-linecap:round;stroke-linejoin:round;stroke:rgb(100%,100%,100%);stroke-opacity:1;stroke-miterlimit:10;" d="M 175.734375 208.621094 L 189.292969 200.023438 L 191.636719 196.859375 L 194.910156 194.121094 L 204.222656 181.0625 L 204.769531 179.425781 L 203.644531 177.367188 L 171.144531 147.410156 L 169.886719 146.640625 L 167.625 145.691406 L 165.433594 145.199219 L 163.175781 145.140625 L 161.265625 145.355469 L 128.640625 156.640625 L 127.6875 157.191406 L 125.730469 158.753906 L 124.097656 160.625 L 122.933594 162.652344 L 122.070313 165.164063 L 121.746094 167.585938 L 121.859375 169.734375 L 122.351563 172.066406 L 123.375 174.363281 L 124.5625 176.175781 L 126.265625 177.921875 L 136.890625 194.390625 L 157.769531 216.898438 L 160.121094 216.222656 L 164.386719 214.753906 L 168.464844 212.941406 L 171.984375 211.042969 L 175.734375 208.621094 "/>
<path style="fill:none;stroke-width:6;stroke-linecap:round;stroke-linejoin:round;stroke:rgb(100%,100%,100%);stroke-opacity:1;stroke-miterlimit:10;" d="M 264 203.519531 L 222.082031 176.726563 "/>
<path style="fill:none;stroke-width:6;stroke-linecap:round;stroke-linejoin:round;stroke:rgb(100%,99.215686%,54.509804%);stroke-opacity:1;stroke-miterlimit:10;" d="M 233.199219 77.3125 L 234.679688 79.675781 "/>
<path style="fill:none;stroke-width:6;stroke-linecap:round;stroke-linejoin:round;stroke:rgb(100%,99.215686%,54.509804%);stroke-opacity:1;stroke-miterlimit:10;" d="M 218.15625 58.738281 L 220.292969 60.9375 "/>
<path style="fill:none;stroke-width:6;stroke-linecap:round;stroke-linejoin:round;stroke:rgb(100%,99.215686%,54.509804%);stroke-opacity:1;stroke-miterlimit:10;" d="M 227.203125 69.957031 L 229.246094 72.402344 "/>
<path style="fill:none;stroke-width:6;stroke-linecap:round;stroke-linejoin:round;stroke:rgb(100%,99.215686%,54.509804%);stroke-opacity:1;stroke-miterlimit:10;" d="M 229.246094 72.402344 L 233.199219 77.3125 "/>
<path style="fill:none;stroke-width:6;stroke-linecap:round;stroke-linejoin:round;stroke:rgb(100%,99.215686%,54.509804%);stroke-opacity:1;stroke-miterlimit:10;" d="M 254.144531 104.75 L 258.90625 110.253906 "/>
<path style="fill:none;stroke-width:6;stroke-linecap:round;stroke-linejoin:round;stroke:rgb(100%,99.215686%,54.509804%);stroke-opacity:1;stroke-miterlimit:10;" d="M 213.324219 52.296875 L 218.15625 58.738281 "/>
<path style="fill:none;stroke-width:6;stroke-linecap:round;stroke-linejoin:round;stroke:rgb(100%,99.215686%,54.509804%);stroke-opacity:1;stroke-miterlimit:10;" d="M 220.292969 60.9375 L 227.203125 69.957031 "/>
<path style="fill:none;stroke-width:6;stroke-linecap:round;stroke-linejoin:round;stroke:rgb(100%,99.215686%,54.509804%);stroke-opacity:1;stroke-miterlimit:10;" d="M 35.203125 207.164063 L 34.289063 204.367188 L 31.550781 196.023438 "/>
<path style="fill:none;stroke-width:6;stroke-linecap:round;stroke-linejoin:round;stroke:rgb(100%,99.215686%,54.509804%);stroke-opacity:1;stroke-miterlimit:10;" d="M 15.082031 143.664063 L 10.3125 130.46875 "/>
<path style="fill:none;stroke-width:6;stroke-linecap:round;stroke-linejoin:round;stroke:rgb(100%,99.215686%,54.509804%);stroke-opacity:1;stroke-miterlimit:10;" d="M -0.0117188 101.179688 L -4.945313 87.179688 "/>
<path style="fill:none;stroke-width:6;stroke-linecap:round;stroke-linejoin:round;stroke:rgb(100%,99.215686%,54.509804%);stroke-opacity:1;stroke-miterlimit:10;" d="M 10.3125 130.46875 L -0.0117188 101.179688 "/>
<path style="fill:none;stroke-width:6;stroke-linecap:round;stroke-linejoin:round;stroke:rgb(100%,99.215686%,54.509804%);stroke-opacity:1;stroke-miterlimit:10;" d="M 234.679688 79.675781 L 236.296875 82.191406 L 241.164063 89.019531 L 247.414063 96.378906 L 254.144531 104.75 "/>
<path style="fill:none;stroke-width:6;stroke-linecap:round;stroke-linejoin:round;stroke:rgb(100%,99.215686%,54.509804%);stroke-opacity:1;stroke-miterlimit:10;" d="M 31.550781 196.023438 L 15.988281 146.554688 L 15.082031 143.664063 "/>
<path style="fill:none;stroke-width:6;stroke-linecap:round;stroke-linejoin:round;stroke:rgb(100%,99.215686%,54.509804%);stroke-opacity:1;stroke-miterlimit:10;" d="M 54.703125 259.410156 L 41.679688 226.925781 L 35.203125 207.164063 "/>
<path style="fill:none;stroke-width:6;stroke-linecap:round;stroke-linejoin:round;stroke:rgb(100%,99.215686%,54.509804%);stroke-opacity:1;stroke-miterlimit:10;" d="M 164.890625 -9 L 187.664063 20.046875 L 207.074219 44.304688 L 213.324219 52.296875 "/>
<path style="fill:none;stroke-width:6;stroke-linecap:round;stroke-linejoin:round;stroke:rgb(100%,99.215686%,54.509804%);stroke-opacity:1;stroke-miterlimit:10;" d="M 264 239.933594 L 252.886719 249.375 L 236.148438 264 "/>
<path style="fill:none;stroke-width:3;stroke-linecap:round;stroke-linejoin:round;stroke:rgb(100%,100%,100%);stroke-opacity:1;stroke-miterlimit:10;" d="M 32.195313 156.054688 C 32.171875 156.28125 32.070313 156.527344 31.882813 156.789063 C 31.703125 157.058594 31.429688 157.359375 31.054688 157.695313 L 29.257813 159.289063 L 28.945313 158.289063 L 30.632813 156.804688 C 31.070313 156.417969 31.335938 156.089844 31.429688 155.820313 C 31.53125 155.546875 31.527344 155.226563 31.414063 154.851563 L 31.101563 153.835938 L 27.867188 154.851563 L 27.570313 153.914063 L 35.226563 151.523438 L 35.882813 153.632813 C 36.132813 154.421875 36.132813 155.070313 35.882813 155.570313 C 35.640625 156.070313 35.148438 156.433594 34.398438 156.664063 C 33.929688 156.820313 33.5 156.84375 33.117188 156.742188 C 32.742188 156.636719 32.433594 156.40625 32.195313 156.054688 Z M 34.664063 152.726563 L 31.960938 153.570313 L 32.320313 154.742188 C 32.464844 155.199219 32.683594 155.507813 32.976563 155.664063 C 33.277344 155.828125 33.652344 155.839844 34.101563 155.695313 C 34.546875 155.558594 34.851563 155.339844 35.007813 155.039063 C 35.164063 154.734375 35.167969 154.355469 35.023438 153.898438 Z M 31.851563 159.664063 L 35.335938 158.570313 L 35.601563 159.414063 L 32.148438 160.492188 C 31.605469 160.65625 31.226563 160.875 31.007813 161.148438 C 30.796875 161.429688 30.757813 161.761719 30.882813 162.148438 C 31.027344 162.605469 31.296875 162.914063 31.695313 163.070313 C 32.101563 163.234375 32.585938 163.230469 33.148438 163.054688 L 36.414063 162.039063 L 36.679688 162.882813 L 30.929688 164.679688 L 30.664063 163.835938 L 31.539063 163.554688 C 31.132813 163.460938 30.796875 163.304688 30.539063 163.085938 C 30.289063 162.867188 30.105469 162.574219 29.992188 162.210938 C 29.8125 161.625 29.882813 161.117188 30.195313 160.679688 C 30.515625 160.242188 31.070313 159.902344 31.851563 159.664063 Z M 36.132813 160.664063 Z M 38.097656 168.003906 L 37.207031 168.269531 C 37.257813 167.976563 37.277344 167.695313 37.269531 167.425781 C 37.257813 167.152344 37.210938 166.878906 37.128906 166.597656 C 36.992188 166.167969 36.816406 165.871094 36.597656 165.707031 C 36.386719 165.550781 36.144531 165.515625 35.863281 165.597656 C 35.644531 165.667969 35.492188 165.792969 35.410156 165.972656 C 35.335938 166.160156 35.316406 166.503906 35.347656 167.003906 L 35.363281 167.316406 C 35.414063 167.972656 35.347656 168.460938 35.160156 168.785156 C 34.972656 169.117188 34.644531 169.355469 34.175781 169.503906 C 33.652344 169.667969 33.175781 169.613281 32.738281 169.332031 C 32.300781 169.058594 31.976563 168.589844 31.769531 167.925781 C 31.683594 167.644531 31.628906 167.339844 31.597656 167.019531 C 31.566406 166.707031 31.554688 166.363281 31.566406 165.988281 L 32.535156 165.675781 C 32.460938 166.058594 32.425781 166.414063 32.425781 166.738281 C 32.433594 167.070313 32.488281 167.386719 32.582031 167.691406 C 32.707031 168.085938 32.878906 168.367188 33.097656 168.535156 C 33.324219 168.710938 33.570313 168.757813 33.832031 168.675781 C 34.089844 168.589844 34.261719 168.449219 34.347656 168.253906 C 34.441406 168.054688 34.460938 167.667969 34.410156 167.097656 L 34.425781 166.785156 C 34.382813 166.222656 34.449219 165.785156 34.628906 165.472656 C 34.804688 165.160156 35.117188 164.933594 35.566406 164.785156 C 36.105469 164.621094 36.574219 164.667969 36.972656 164.925781 C 37.378906 165.175781 37.679688 165.617188 37.878906 166.253906 C 37.972656 166.566406 38.039063 166.867188 38.082031 167.160156 C 38.121094 167.449219 38.128906 167.730469 38.097656 168.003906 Z M 39.632813 172.925781 L 38.742188 173.191406 C 38.792969 172.898438 38.8125 172.617188 38.804688 172.347656 C 38.792969 172.074219 38.746094 171.800781 38.664063 171.519531 C 38.527344 171.089844 38.351563 170.792969 38.132813 170.628906 C 37.921875 170.472656 37.679688 170.4375 37.398438 170.519531 C 37.179688 170.589844 37.027344 170.714844 36.945313 170.894531 C 36.871094 171.082031 36.851563 171.425781 36.882813 171.925781 L 36.898438 172.238281 C 36.949219 172.894531 36.882813 173.382813 36.695313 173.707031 C 36.507813 174.039063 36.179688 174.277344 35.710938 174.425781 C 35.1875 174.589844 34.710938 174.535156 34.273438 174.253906 C 33.835938 173.980469 33.511719 173.511719 33.304688 172.847656 C 33.21875 172.566406 33.164063 172.261719 33.132813 171.941406 C 33.101563 171.628906 33.089844 171.285156 33.101563 170.910156 L 34.070313 170.597656 C 33.996094 170.980469 33.960938 171.335938 33.960938 171.660156 C 33.96875 171.992188 34.023438 172.308594 34.117188 172.613281 C 34.242188 173.007813 34.414063 173.289063 34.632813 173.457031 C 34.859375 173.632813 35.105469 173.679688 35.367188 173.597656 C 35.625 173.511719 35.796875 173.371094 35.882813 173.175781 C 35.976563 172.976563 35.996094 172.589844 35.945313 172.019531 L 35.960938 171.707031 C 35.917969 171.144531 35.984375 170.707031 36.164063 170.394531 C 36.339844 170.082031 36.652344 169.855469 37.101563 169.707031 C 37.640625 169.542969 38.109375 169.589844 38.507813 169.847656 C 38.914063 170.097656 39.214844 170.539063 39.414063 171.175781 C 39.507813 171.488281 39.574219 171.789063 39.617188 172.082031 C 39.65625 172.371094 39.664063 172.652344 39.632813 172.925781 Z M 39.046875 179.734375 L 38.59375 179.890625 L 37.359375 175.984375 C 36.722656 176.210938 36.285156 176.539063 36.046875 176.96875 C 35.816406 177.40625 35.789063 177.898438 35.96875 178.453125 C 36.0625 178.773438 36.203125 179.070313 36.390625 179.34375 C 36.578125 179.625 36.800781 179.890625 37.0625 180.140625 L 36.1875 180.421875 C 35.945313 180.160156 35.738281 179.882813 35.5625 179.59375 C 35.382813 179.300781 35.242188 178.988281 35.140625 178.65625 C 34.878906 177.832031 34.941406 177.09375 35.328125 176.4375 C 35.710938 175.789063 36.359375 175.324219 37.265625 175.03125 C 38.203125 174.742188 39.015625 174.742188 39.703125 175.03125 C 40.398438 175.3125 40.875 175.84375 41.125 176.625 C 41.34375 177.3125 41.265625 177.9375 40.890625 178.5 C 40.515625 179.0625 39.898438 179.472656 39.046875 179.734375 Z M 39.078125 178.796875 C 39.585938 178.617188 39.957031 178.359375 40.1875 178.015625 C 40.414063 177.679688 40.460938 177.300781 40.328125 176.875 C 40.171875 176.40625 39.898438 176.070313 39.515625 175.875 C 39.128906 175.675781 38.664063 175.644531 38.125 175.78125 Z M 44.347656 179.546875 L 44.628906 180.421875 L 39.925781 181.90625 L 43.191406 183.65625 L 43.535156 184.734375 L 39.972656 182.84375 L 37.832031 186.65625 L 37.488281 185.546875 L 39.457031 182.046875 L 36.660156 182.9375 L 36.378906 182.0625 Z M 46.179688 189.386719 L 40.226563 191.277344 L 40.570313 192.402344 C 40.871094 193.347656 41.328125 193.96875 41.945313 194.261719 C 42.570313 194.550781 43.398438 194.53125 44.429688 194.199219 C 45.449219 193.875 46.125 193.417969 46.460938 192.824219 C 46.804688 192.230469 46.824219 191.457031 46.523438 190.511719 Z M 46.726563 188.183594 L 47.320313 190.089844 C 47.746094 191.433594 47.75 192.511719 47.335938 193.324219 C 46.917969 194.144531 46.054688 194.761719 44.742188 195.167969 C 43.417969 195.59375 42.351563 195.589844 41.539063 195.152344 C 40.726563 194.722656 40.105469 193.84375 39.679688 192.511719 L 39.085938 190.605469 Z M 47.183594 199.304688 C 47.203125 199.179688 47.207031 199.054688 47.199219 198.929688 C 47.199219 198.8125 47.175781 198.695313 47.136719 198.570313 C 46.980469 198.078125 46.6875 197.761719 46.261719 197.617188 C 45.832031 197.480469 45.296875 197.511719 44.652344 197.710938 L 41.636719 198.679688 L 41.355469 197.804688 L 47.089844 195.976563 L 47.371094 196.851563 L 46.480469 197.132813 C 46.875 197.203125 47.203125 197.355469 47.464844 197.585938 C 47.722656 197.8125 47.917969 198.132813 48.042969 198.539063 C 48.0625 198.601563 48.082031 198.667969 48.105469 198.742188 C 48.125 198.8125 48.140625 198.890625 48.152344 198.976563 Z M 48.339844 199.894531 L 48.605469 200.738281 L 42.871094 202.566406 L 42.605469 201.722656 Z M 50.574219 199.191406 L 50.839844 200.035156 L 49.652344 200.410156 L 49.386719 199.566406 Z M 48.953125 201.84375 L 49.28125 202.71875 L 45.09375 206.015625 L 50.421875 205.921875 L 50.734375 206.796875 L 44.390625 206.921875 L 43.984375 205.78125 Z M 50.183594 213.238281 L 49.730469 213.394531 L 48.308594 209.550781 C 47.683594 209.832031 47.261719 210.191406 47.042969 210.628906 C 46.824219 211.066406 46.816406 211.554688 47.027344 212.097656 C 47.140625 212.417969 47.296875 212.710938 47.496094 212.972656 C 47.691406 213.242188 47.933594 213.503906 48.214844 213.753906 L 47.355469 214.066406 C 47.09375 213.816406 46.871094 213.542969 46.683594 213.253906 C 46.496094 212.972656 46.34375 212.667969 46.230469 212.347656 C 45.925781 211.535156 45.949219 210.792969 46.292969 210.128906 C 46.636719 209.460938 47.253906 208.964844 48.152344 208.628906 C 49.066406 208.296875 49.878906 208.253906 50.589844 208.503906 C 51.296875 208.746094 51.792969 209.242188 52.074219 210.003906 C 52.332031 210.691406 52.292969 211.320313 51.949219 211.894531 C 51.613281 212.476563 51.027344 212.925781 50.183594 213.238281 Z M 50.152344 212.285156 C 50.660156 212.085938 51.019531 211.808594 51.230469 211.457031 C 51.4375 211.101563 51.46875 210.714844 51.324219 210.300781 C 51.144531 209.832031 50.855469 209.507813 50.449219 209.332031 C 50.050781 209.164063 49.582031 209.160156 49.042969 209.316406 Z M 50.152344 212.285156 "/>
<path style=" stroke:none;fill-rule:evenodd;fill:rgb(20%,20%,20%);fill-opacity:1;" d="M 32.195313 156.054688 C 32.171875 156.28125 32.070313 156.527344 31.882813 156.789063 C 31.703125 157.058594 31.429688 157.359375 31.054688 157.695313 L 29.257813 159.289063 L 28.945313 158.289063 L 30.632813 156.804688 C 31.070313 156.417969 31.335938 156.089844 31.429688 155.820313 C 31.53125 155.546875 31.527344 155.226563 31.414063 154.851563 L 31.101563 153.835938 L 27.867188 154.851563 L 27.570313 153.914063 L 35.226563 151.523438 L 35.882813 153.632813 C 36.132813 154.421875 36.132813 155.070313 35.882813 155.570313 C 35.640625 156.070313 35.148438 156.433594 34.398438 156.664063 C 33.929688 156.820313 33.5 156.84375 33.117188 156.742188 C 32.742188 156.636719 32.433594 156.40625 32.195313 156.054688 Z M 34.664063 152.726563 L 31.960938 153.570313 L 32.320313 154.742188 C 32.464844 155.199219 32.683594 155.507813 32.976563 155.664063 C 33.277344 155.828125 33.652344 155.839844 34.101563 155.695313 C 34.546875 155.558594 34.851563 155.339844 35.007813 155.039063 C 35.164063 154.734375 35.167969 154.355469 35.023438 153.898438 Z M 31.851563 159.664063 L 35.335938 158.570313 L 35.601563 159.414063 L 32.148438 160.492188 C 31.605469 160.65625 31.226563 160.875 31.007813 161.148438 C 30.796875 161.429688 30.757813 161.761719 30.882813 162.148438 C 31.027344 162.605469 31.296875 162.914063 31.695313 163.070313 C 32.101563 163.234375 32.585938 163.230469 33.148438 163.054688 L 36.414063 162.039063 L 36.679688 162.882813 L 30.929688 164.679688 L 30.664063 163.835938 L 31.539063 163.554688 C 31.132813 163.460938 30.796875 163.304688 30.539063 163.085938 C 30.289063 162.867188 30.105469 162.574219 29.992188 162.210938 C 29.8125 161.625 29.882813 161.117188 30.195313 160.679688 C 30.515625 160.242188 31.070313 159.902344 31.851563 159.664063 Z M 36.132813 160.664063 Z M 38.097656 168.003906 L 37.207031 168.269531 C 37.257813 167.976563 37.277344 167.695313 37.269531 167.425781 C 37.257813 167.152344 37.210938 166.878906 37.128906 166.597656 C 36.992188 166.167969 36.816406 165.871094 36.597656 165.707031 C 36.386719 165.550781 36.144531 165.515625 35.863281 165.597656 C 35.644531 165.667969 35.492188 165.792969 35.410156 165.972656 C 35.335938 166.160156 35.316406 166.503906 35.347656 167.003906 L 35.363281 167.316406 C 35.414063 167.972656 35.347656 168.460938 35.160156 168.785156 C 34.972656 169.117188 34.644531 169.355469 34.175781 169.503906 C 33.652344 169.667969 33.175781 169.613281 32.738281 169.332031 C 32.300781 169.058594 31.976563 168.589844 31.769531 167.925781 C 31.683594 167.644531 31.628906 167.339844 31.597656 167.019531 C 31.566406 166.707031 31.554688 166.363281 31.566406 165.988281 L 32.535156 165.675781 C 32.460938 166.058594 32.425781 166.414063 32.425781 166.738281 C 32.433594 167.070313 32.488281 167.386719 32.582031 167.691406 C 32.707031 168.085938 32.878906 168.367188 33.097656 168.535156 C 33.324219 168.710938 33.570313 168.757813 33.832031 168.675781 C 34.089844 168.589844 34.261719 168.449219 34.347656 168.253906 C 34.441406 168.054688 34.460938 167.667969 34.410156 167.097656 L 34.425781 166.785156 C 34.382813 166.222656 34.449219 165.785156 34.628906 165.472656 C 34.804688 165.160156 35.117188 164.933594 35.566406 164.785156 C 36.105469 164.621094 36.574219 164.667969 36.972656 164.925781 C 37.378906 165.175781 37.679688 165.617188 37.878906 166.253906 C 37.972656 166.566406 38.039063 166.867188 38.082031 167.160156 C 38.121094 167.449219 38.128906 167.730469 38.097656 168.003906 Z M 39.632813 172.925781 L 38.742188 173.191406 C 38.792969 172.898438 38.8125 172.617188 38.804688 172.347656 C 38.792969 172.074219 38.746094 171.800781 38.664063 171.519531 C 38.527344 171.089844 38.351563 170.792969 38.132813 170.628906 C 37.921875 170.472656 37.679688 170.4375 37.398438 170.519531 C 37.179688 170.589844 37.027344 170.714844 36.945313 170.894531 C 36.871094 171.082031 36.851563 171.425781 36.882813 171.925781 L 36.898438 172.238281 C 36.949219 172.894531 36.882813 173.382813 36.695313 173.707031 C 36.507813 174.039063 36.179688 174.277344 35.710938 174.425781 C 35.1875 174.589844 34.710938 174.535156 34.273438 174.253906 C 33.835938 173.980469 33.511719 173.511719 33.304688 172.847656 C 33.21875 172.566406 33.164063 172.261719 33.132813 171.941406 C 33.101563 171.628906 33.089844 171.285156 33.101563 170.910156 L 34.070313 170.597656 C 33.996094 170.980469 33.960938 171.335938 33.960938 171.660156 C 33.96875 171.992188 34.023438 172.308594 34.117188 172.613281 C 34.242188 173.007813 34.414063 173.289063 34.632813 173.457031 C 34.859375 173.632813 35.105469 173.679688 35.367188 173.597656 C 35.625 173.511719 35.796875 173.371094 35.882813 173.175781 C 35.976563 172.976563 35.996094 172.589844 35.945313 172.019531 L 35.960938 171.707031 C 35.917969 171.144531 35.984375 170.707031 36.164063 170.394531 C 36.339844 170.082031 36.652344 169.855469 37.101563 169.707031 C 37.640625 169.542969 38.109375 169.589844 38.507813 169.847656 C 38.914063 170.097656 39.214844 170.539063 39.414063 171.175781 C 39.507813 171.488281 39.574219 171.789063 39.617188 172.082031 C 39.65625 172.371094 39.664063 172.652344 39.632813 172.925781 Z M 39.046875 179.734375 L 38.59375 179.890625 L 37.359375 175.984375 C 36.722656 176.210938 36.285156 176.539063 36.046875 176.96875 C 35.816406 177.40625 35.789063 177.898438 35.96875 178.453125 C 36.0625 178.773438 36.203125 179.070313 36.390625 179.34375 C 36.578125 179.625 36.800781 179.890625 37.0625 180.140625 L 36.1875 180.421875 C 35.945313 180.160156 35.738281 179.882813 35.5625 179.59375 C 35.382813 179.300781 35.242188 178.988281 35.140625 178.65625 C 34.878906 177.832031 34.941406 177.09375 35.328125 176.4375 C 35.710938 175.789063 36.359375 175.324219 37.265625 175.03125 C 38.203125 174.742188 39.015625 174.742188 39.703125 175.03125 C 40.398438 175.3125 40.875 175.84375 41.125 176.625 C 41.34375 177.3125 41.265625 177.9375 40.890625 178.5 C 40.515625 179.0625 39.898438 179.472656 39.046875 179.734375 Z M 39.078125 178.796875 C 39.585938 178.617188 39.957031 178.359375 40.1875 178.015625 C 40.414063 177.679688 40.460938 177.300781 40.328125 176.875 C 40.171875 176.40625 39.898438 176.070313 39.515625 175.875 C 39.128906 175.675781 38.664063 175.644531 38.125 175.78125 Z M 44.347656 179.546875 L 44.628906 180.421875 L 39.925781 181.90625 L 43.191406 183.65625 L 43.535156 184.734375 L 39.972656 182.84375 L 37.832031 186.65625 L 37.488281 185.546875 L 39.457031 182.046875 L 36.660156 182.9375 L 36.378906 182.0625 Z M 46.179688 189.386719 L 40.226563 191.277344 L 40.570313 192.402344 C 40.871094 193.347656 41.328125 193.96875 41.945313 194.261719 C 42.570313 194.550781 43.398438 194.53125 44.429688 194.199219 C 45.449219 193.875 46.125 193.417969 46.460938 192.824219 C 46.804688 192.230469 46.824219 191.457031 46.523438 190.511719 Z M 46.726563 188.183594 L 47.320313 190.089844 C 47.746094 191.433594 47.75 192.511719 47.335938 193.324219 C 46.917969 194.144531 46.054688 194.761719 44.742188 195.167969 C 43.417969 195.59375 42.351563 195.589844 41.539063 195.152344 C 40.726563 194.722656 40.105469 193.84375 39.679688 192.511719 L 39.085938 190.605469 Z M 47.183594 199.304688 C 47.203125 199.179688 47.207031 199.054688 47.199219 198.929688 C 47.199219 198.8125 47.175781 198.695313 47.136719 198.570313 C 46.980469 198.078125 46.6875 197.761719 46.261719 197.617188 C 45.832031 197.480469 45.296875 197.511719 44.652344 197.710938 L 41.636719 198.679688 L 41.355469 197.804688 L 47.089844 195.976563 L 47.371094 196.851563 L 46.480469 197.132813 C 46.875 197.203125 47.203125 197.355469 47.464844 197.585938 C 47.722656 197.8125 47.917969 198.132813 48.042969 198.539063 C 48.0625 198.601563 48.082031 198.667969 48.105469 198.742188 C 48.125 198.8125 48.140625 198.890625 48.152344 198.976563 Z M 48.339844 199.894531 L 48.605469 200.738281 L 42.871094 202.566406 L 42.605469 201.722656 Z M 50.574219 199.191406 L 50.839844 200.035156 L 49.652344 200.410156 L 49.386719 199.566406 Z M 48.953125 201.84375 L 49.28125 202.71875 L 45.09375 206.015625 L 50.421875 205.921875 L 50.734375 206.796875 L 44.390625 206.921875 L 43.984375 205.78125 Z M 50.183594 213.238281 L 49.730469 213.394531 L 48.308594 209.550781 C 47.683594 209.832031 47.261719 210.191406 47.042969 210.628906 C 46.824219 211.066406 46.816406 211.554688 47.027344 212.097656 C 47.140625 212.417969 47.296875 212.710938 47.496094 212.972656 C 47.691406 213.242188 47.933594 213.503906 48.214844 213.753906 L 47.355469 214.066406 C 47.09375 213.816406 46.871094 213.542969 46.683594 213.253906 C 46.496094 212.972656 46.34375 212.667969 46.230469 212.347656 C 45.925781 211.535156 45.949219 210.792969 46.292969 210.128906 C 46.636719 209.460938 47.253906 208.964844 48.152344 208.628906 C 49.066406 208.296875 49.878906 208.253906 50.589844 208.503906 C 51.296875 208.746094 51.792969 209.242188 52.074219 210.003906 C 52.332031 210.691406 52.292969 211.320313 51.949219 211.894531 C 51.613281 212.476563 51.027344 212.925781 50.183594 213.238281 Z M 50.152344 212.285156 C 50.660156 212.085938 51.019531 211.808594 51.230469 211.457031 C 51.4375 211.101563 51.46875 210.714844 51.324219 210.300781 C 51.144531 209.832031 50.855469 209.507813 50.449219 209.332031 C 50.050781 209.164063 49.582031 209.160156 49.042969 209.316406 Z M 50.152344 212.285156 "/>
<path style="fill:none;stroke-width:3;stroke-linecap:round;stroke-linejoin:round;stroke:rgb(100%,100%,100%);stroke-opacity:1;stroke-miterlimit:10;" d="M 155.425781 80.4375 L 156.457031 79.625 L 163.144531 82.859375 L 158.957031 77.625 L 159.707031 77.03125 L 164.707031 83.296875 L 163.675781 84.109375 L 156.988281 80.875 L 161.175781 86.109375 L 160.425781 86.703125 Z M 167.773438 76.6875 L 168.070313 77.0625 L 164.867188 79.609375 C 165.335938 80.121094 165.808594 80.414063 166.289063 80.484375 C 166.777344 80.546875 167.246094 80.398438 167.695313 80.03125 C 167.964844 79.8125 168.195313 79.570313 168.382813 79.296875 C 168.570313 79.027344 168.734375 78.71875 168.882813 78.375 L 169.460938 79.09375 C 169.304688 79.417969 169.117188 79.714844 168.898438 79.984375 C 168.6875 80.257813 168.449219 80.5 168.179688 80.71875 C 167.5 81.261719 166.789063 81.46875 166.039063 81.34375 C 165.300781 81.21875 164.632813 80.78125 164.039063 80.03125 C 163.425781 79.273438 163.128906 78.515625 163.148438 77.765625 C 163.160156 77.015625 163.484375 76.386719 164.117188 75.875 C 164.691406 75.417969 165.300781 75.261719 165.945313 75.40625 C 166.601563 75.554688 167.210938 75.980469 167.773438 76.6875 Z M 166.898438 77 C 166.554688 76.585938 166.179688 76.335938 165.773438 76.25 C 165.367188 76.15625 164.992188 76.246094 164.648438 76.515625 C 164.253906 76.828125 164.039063 77.203125 164.007813 77.640625 C 163.96875 78.070313 164.101563 78.515625 164.414063 78.984375 Z M 170.550781 72.085938 L 168.519531 69.539063 L 169.207031 68.992188 L 174.425781 75.523438 L 173.738281 76.070313 L 173.175781 75.367188 C 173.257813 75.765625 173.238281 76.125 173.113281 76.445313 C 172.996094 76.757813 172.785156 77.035156 172.472656 77.273438 C 171.960938 77.691406 171.363281 77.800781 170.675781 77.601563 C 170 77.40625 169.363281 76.9375 168.769531 76.195313 C 168.175781 75.457031 167.863281 74.734375 167.832031 74.023438 C 167.792969 73.316406 168.027344 72.753906 168.535156 72.335938 C 168.847656 72.097656 169.171875 71.957031 169.503906 71.914063 C 169.839844 71.863281 170.1875 71.921875 170.550781 72.085938 Z M 169.488281 75.617188 C 169.949219 76.191406 170.402344 76.554688 170.863281 76.710938 C 171.332031 76.859375 171.746094 76.785156 172.113281 76.492188 C 172.488281 76.203125 172.652344 75.8125 172.613281 75.320313 C 172.570313 74.832031 172.320313 74.300781 171.863281 73.726563 C 171.402344 73.15625 170.941406 72.796875 170.472656 72.648438 C 170.003906 72.503906 169.582031 72.578125 169.207031 72.867188 C 168.84375 73.160156 168.6875 73.550781 168.738281 74.039063 C 168.78125 74.519531 169.03125 75.046875 169.488281 75.617188 Z M 175.128906 68.429688 C 175.015625 68.453125 174.902344 68.488281 174.785156 68.539063 C 174.671875 68.59375 174.5625 68.660156 174.457031 68.742188 C 174.0625 69.054688 173.875 69.441406 173.894531 69.898438 C 173.917969 70.347656 174.136719 70.832031 174.550781 71.351563 L 176.535156 73.835938 L 175.832031 74.398438 L 172.082031 69.695313 L 172.785156 69.132813 L 173.363281 69.867188 C 173.28125 69.472656 173.300781 69.113281 173.425781 68.789063 C 173.542969 68.457031 173.765625 68.160156 174.097656 67.898438 C 174.152344 67.859375 174.214844 67.816406 174.285156 67.773438 C 174.347656 67.734375 174.417969 67.695313 174.488281 67.664063 Z M 179.050781 67.941406 C 178.496094 68.390625 178.171875 68.777344 178.066406 69.097656 C 177.964844 69.421875 178.050781 69.75 178.332031 70.082031 C 178.539063 70.355469 178.789063 70.503906 179.082031 70.535156 C 179.371094 70.566406 179.660156 70.46875 179.941406 70.238281 C 180.324219 69.9375 180.511719 69.542969 180.503906 69.050781 C 180.492188 68.5625 180.289063 68.066406 179.894531 67.566406 L 179.753906 67.378906 Z M 180.207031 66.503906 L 182.347656 69.191406 L 181.644531 69.753906 L 181.082031 69.050781 C 181.144531 69.457031 181.105469 69.828125 180.972656 70.160156 C 180.847656 70.484375 180.613281 70.78125 180.269531 71.050781 C 179.839844 71.394531 179.394531 71.535156 178.925781 71.472656 C 178.457031 71.402344 178.042969 71.140625 177.675781 70.691406 C 177.25 70.160156 177.089844 69.636719 177.191406 69.113281 C 177.296875 68.59375 177.667969 68.078125 178.300781 67.566406 L 179.269531 66.785156 L 179.222656 66.722656 C 178.929688 66.359375 178.601563 66.167969 178.238281 66.144531 C 177.863281 66.113281 177.488281 66.253906 177.113281 66.566406 C 176.875 66.753906 176.667969 66.972656 176.488281 67.222656 C 176.3125 67.464844 176.167969 67.738281 176.050781 68.050781 L 175.488281 67.332031 C 175.65625 67.011719 175.839844 66.730469 176.035156 66.488281 C 176.234375 66.238281 176.441406 66.027344 176.660156 65.847656 C 177.277344 65.359375 177.875 65.167969 178.457031 65.269531 C 179.050781 65.375 179.632813 65.785156 180.207031 66.503906 Z M 182.566406 59.898438 L 184.457031 62.257813 L 185.410156 61.492188 C 185.761719 61.210938 185.949219 60.890625 185.972656 60.523438 C 186.003906 60.160156 185.867188 59.789063 185.566406 59.414063 C 185.265625 59.039063 184.9375 58.832031 184.582031 58.789063 C 184.230469 58.738281 183.875 58.851563 183.519531 59.132813 Z M 181.238281 59.804688 L 182.972656 58.429688 C 183.597656 57.929688 184.199219 57.710938 184.769531 57.773438 C 185.34375 57.828125 185.871094 58.160156 186.363281 58.773438 C 186.863281 59.390625 187.074219 59.988281 187.003906 60.570313 C 186.929688 61.144531 186.582031 61.679688 185.957031 62.179688 L 185.003906 62.945313 L 187.019531 65.460938 L 186.238281 66.070313 Z M 185.667969 55.84375 L 186.355469 55.28125 L 191.574219 61.8125 L 190.886719 62.375 Z M 193.050781 56.75 C 192.496094 57.199219 192.171875 57.585938 192.066406 57.90625 C 191.964844 58.230469 192.050781 58.558594 192.332031 58.890625 C 192.539063 59.164063 192.789063 59.3125 193.082031 59.34375 C 193.371094 59.375 193.660156 59.277344 193.941406 59.046875 C 194.324219 58.746094 194.511719 58.351563 194.503906 57.859375 C 194.492188 57.371094 194.289063 56.875 193.894531 56.375 L 193.753906 56.1875 Z M 194.207031 55.3125 L 196.347656 58 L 195.644531 58.5625 L 195.082031 57.859375 C 195.144531 58.265625 195.105469 58.636719 194.972656 58.96875 C 194.847656 59.292969 194.613281 59.589844 194.269531 59.859375 C 193.839844 60.203125 193.394531 60.34375 192.925781 60.28125 C 192.457031 60.210938 192.042969 59.949219 191.675781 59.5 C 191.25 58.96875 191.089844 58.445313 191.191406 57.921875 C 191.296875 57.402344 191.667969 56.886719 192.300781 56.375 L 193.269531 55.59375 L 193.222656 55.53125 C 192.929688 55.167969 192.601563 54.976563 192.238281 54.953125 C 191.863281 54.921875 191.488281 55.0625 191.113281 55.375 C 190.875 55.5625 190.667969 55.78125 190.488281 56.03125 C 190.3125 56.273438 190.167969 56.546875 190.050781 56.859375 L 189.488281 56.140625 C 189.65625 55.820313 189.839844 55.539063 190.035156 55.296875 C 190.234375 55.046875 190.441406 54.835938 190.660156 54.65625 C 191.277344 54.167969 191.875 53.976563 192.457031 54.078125 C 193.050781 54.183594 193.632813 54.59375 194.207031 55.3125 Z M 197.191406 49.917969 L 197.769531 50.636719 C 197.476563 50.667969 197.210938 50.738281 196.972656 50.839844 C 196.722656 50.933594 196.5 51.066406 196.300781 51.230469 C 195.84375 51.597656 195.621094 52.039063 195.628906 52.558594 C 195.628906 53.070313 195.859375 53.613281 196.316406 54.183594 C 196.777344 54.757813 197.253906 55.105469 197.753906 55.230469 C 198.261719 55.347656 198.746094 55.222656 199.207031 54.855469 C 199.402344 54.691406 199.574219 54.503906 199.722656 54.292969 C 199.878906 54.074219 199.996094 53.824219 200.082031 53.542969 L 200.660156 54.246094 C 200.554688 54.507813 200.414063 54.746094 200.238281 54.964844 C 200.070313 55.183594 199.871094 55.382813 199.644531 55.558594 C 198.996094 56.082031 198.308594 56.269531 197.582031 56.121094 C 196.855469 55.976563 196.1875 55.523438 195.582031 54.761719 C 194.96875 54.003906 194.675781 53.253906 194.707031 52.511719 C 194.738281 51.761719 195.082031 51.121094 195.738281 50.589844 C 195.957031 50.425781 196.1875 50.285156 196.425781 50.167969 C 196.667969 50.054688 196.921875 49.972656 197.191406 49.917969 Z M 203.59375 48.054688 L 203.890625 48.429688 L 200.6875 50.976563 C 201.15625 51.488281 201.628906 51.78125 202.109375 51.851563 C 202.597656 51.914063 203.066406 51.765625 203.515625 51.398438 C 203.785156 51.179688 204.015625 50.9375 204.203125 50.664063 C 204.390625 50.394531 204.554688 50.085938 204.703125 49.742188 L 205.28125 50.460938 C 205.125 50.785156 204.9375 51.082031 204.71875 51.351563 C 204.507813 51.625 204.269531 51.867188 204 52.085938 C 203.320313 52.628906 202.609375 52.835938 201.859375 52.710938 C 201.121094 52.585938 200.453125 52.148438 199.859375 51.398438 C 199.246094 50.640625 198.949219 49.882813 198.96875 49.132813 C 198.980469 48.382813 199.304688 47.753906 199.9375 47.242188 C 200.511719 46.785156 201.121094 46.628906 201.765625 46.773438 C 202.421875 46.921875 203.03125 47.347656 203.59375 48.054688 Z M 202.71875 48.367188 C 202.375 47.953125 202 47.703125 201.59375 47.617188 C 201.1875 47.523438 200.8125 47.613281 200.46875 47.882813 C 200.074219 48.195313 199.859375 48.570313 199.828125 49.007813 C 199.789063 49.445313 199.921875 49.894531 200.234375 50.351563 Z M 202.71875 48.367188 "/>
<path style=" stroke:none;fill-rule:evenodd;fill:rgb(20%,20%,20%);fill-opacity:1;" d="M 155.425781 80.4375 L 156.457031 79.625 L 163.144531 82.859375 L 158.957031 77.625 L 159.707031 77.03125 L 164.707031 83.296875 L 163.675781 84.109375 L 156.988281 80.875 L 161.175781 86.109375 L 160.425781 86.703125 Z M 167.773438 76.6875 L 168.070313 77.0625 L 164.867188 79.609375 C 165.335938 80.121094 165.808594 80.414063 166.289063 80.484375 C 166.777344 80.546875 167.246094 80.398438 167.695313 80.03125 C 167.964844 79.8125 168.195313 79.570313 168.382813 79.296875 C 168.570313 79.027344 168.734375 78.71875 168.882813 78.375 L 169.460938 79.09375 C 169.304688 79.417969 169.117188 79.714844 168.898438 79.984375 C 168.6875 80.257813 168.449219 80.5 168.179688 80.71875 C 167.5 81.261719 166.789063 81.46875 166.039063 81.34375 C 165.300781 81.21875 164.632813 80.78125 164.039063 80.03125 C 163.425781 79.273438 163.128906 78.515625 163.148438 77.765625 C 163.160156 77.015625 163.484375 76.386719 164.117188 75.875 C 164.691406 75.417969 165.300781 75.261719 165.945313 75.40625 C 166.601563 75.554688 167.210938 75.980469 167.773438 76.6875 Z M 166.898438 77 C 166.554688 76.585938 166.179688 76.335938 165.773438 76.25 C 165.367188 76.15625 164.992188 76.246094 164.648438 76.515625 C 164.253906 76.828125 164.039063 77.203125 164.007813 77.640625 C 163.96875 78.070313 164.101563 78.515625 164.414063 78.984375 Z M 170.550781 72.085938 L 168.519531 69.539063 L 169.207031 68.992188 L 174.425781 75.523438 L 173.738281 76.070313 L 173.175781 75.367188 C 173.257813 75.765625 173.238281 76.125 173.113281 76.445313 C 172.996094 76.757813 172.785156 77.035156 172.472656 77.273438 C 171.960938 77.691406 171.363281 77.800781 170.675781 77.601563 C 170 77.40625 169.363281 76.9375 168.769531 76.195313 C 168.175781 75.457031 167.863281 74.734375 167.832031 74.023438 C 167.792969 73.316406 168.027344 72.753906 168.535156 72.335938 C 168.847656 72.097656 169.171875 71.957031 169.503906 71.914063 C 169.839844 71.863281 170.1875 71.921875 170.550781 72.085938 Z M 169.488281 75.617188 C 169.949219 76.191406 170.402344 76.554688 170.863281 76.710938 C 171.332031 76.859375 171.746094 76.785156 172.113281 76.492188 C 172.488281 76.203125 172.652344 75.8125 172.613281 75.320313 C 172.570313 74.832031 172.320313 74.300781 171.863281 73.726563 C 171.402344 73.15625 170.941406 72.796875 170.472656 72.648438 C 170.003906 72.503906 169.582031 72.578125 169.207031 72.867188 C 168.84375 73.160156 168.6875 73.550781 168.738281 74.039063 C 168.78125 74.519531 169.03125 75.046875 169.488281 75.617188 Z M 175.128906 68.429688 C 175.015625 68.453125 174.902344 68.488281 174.785156 68.539063 C 174.671875 68.59375 174.5625 68.660156 174.457031 68.742188 C 174.0625 69.054688 173.875 69.441406 173.894531 69.898438 C 173.917969 70.347656 174.136719 70.832031 174.550781 71.351563 L 176.535156 73.835938 L 175.832031 74.398438 L 172.082031 69.695313 L 172.785156 69.132813 L 173.363281 69.867188 C 173.28125 69.472656 173.300781 69.113281 173.425781 68.789063 C 173.542969 68.457031 173.765625 68.160156 174.097656 67.898438 C 174.152344 67.859375 174.214844 67.816406 174.285156 67.773438 C 174.347656 67.734375 174.417969 67.695313 174.488281 67.664063 Z M 179.050781 67.941406 C 178.496094 68.390625 178.171875 68.777344 178.066406 69.097656 C 177.964844 69.421875 178.050781 69.75 178.332031 70.082031 C 178.539063 70.355469 178.789063 70.503906 179.082031 70.535156 C 179.371094 70.566406 179.660156 70.46875 179.941406 70.238281 C 180.324219 69.9375 180.511719 69.542969 180.503906 69.050781 C 180.492188 68.5625 180.289063 68.066406 179.894531 67.566406 L 179.753906 67.378906 Z M 180.207031 66.503906 L 182.347656 69.191406 L 181.644531 69.753906 L 181.082031 69.050781 C 181.144531 69.457031 181.105469 69.828125 180.972656 70.160156 C 180.847656 70.484375 180.613281 70.78125 180.269531 71.050781 C 179.839844 71.394531 179.394531 71.535156 178.925781 71.472656 C 178.457031 71.402344 178.042969 71.140625 177.675781 70.691406 C 177.25 70.160156 177.089844 69.636719 177.191406 69.113281 C 177.296875 68.59375 177.667969 68.078125 178.300781 67.566406 L 179.269531 66.785156 L 179.222656 66.722656 C 178.929688 66.359375 178.601563 66.167969 178.238281 66.144531 C 177.863281 66.113281 177.488281 66.253906 177.113281 66.566406 C 176.875 66.753906 176.667969 66.972656 176.488281 67.222656 C 176.3125 67.464844 176.167969 67.738281 176.050781 68.050781 L 175.488281 67.332031 C 175.65625 67.011719 175.839844 66.730469 176.035156 66.488281 C 176.234375 66.238281 176.441406 66.027344 176.660156 65.847656 C 177.277344 65.359375 177.875 65.167969 178.457031 65.269531 C 179.050781 65.375 179.632813 65.785156 180.207031 66.503906 Z M 182.566406 59.898438 L 184.457031 62.257813 L 185.410156 61.492188 C 185.761719 61.210938 185.949219 60.890625 185.972656 60.523438 C 186.003906 60.160156 185.867188 59.789063 185.566406 59.414063 C 185.265625 59.039063 184.9375 58.832031 184.582031 58.789063 C 184.230469 58.738281 183.875 58.851563 183.519531 59.132813 Z M 181.238281 59.804688 L 182.972656 58.429688 C 183.597656 57.929688 184.199219 57.710938 184.769531 57.773438 C 185.34375 57.828125 185.871094 58.160156 186.363281 58.773438 C 186.863281 59.390625 187.074219 59.988281 187.003906 60.570313 C 186.929688 61.144531 186.582031 61.679688 185.957031 62.179688 L 185.003906 62.945313 L 187.019531 65.460938 L 186.238281 66.070313 Z M 185.667969 55.84375 L 186.355469 55.28125 L 191.574219 61.8125 L 190.886719 62.375 Z M 193.050781 56.75 C 192.496094 57.199219 192.171875 57.585938 192.066406 57.90625 C 191.964844 58.230469 192.050781 58.558594 192.332031 58.890625 C 192.539063 59.164063 192.789063 59.3125 193.082031 59.34375 C 193.371094 59.375 193.660156 59.277344 193.941406 59.046875 C 194.324219 58.746094 194.511719 58.351563 194.503906 57.859375 C 194.492188 57.371094 194.289063 56.875 193.894531 56.375 L 193.753906 56.1875 Z M 194.207031 55.3125 L 196.347656 58 L 195.644531 58.5625 L 195.082031 57.859375 C 195.144531 58.265625 195.105469 58.636719 194.972656 58.96875 C 194.847656 59.292969 194.613281 59.589844 194.269531 59.859375 C 193.839844 60.203125 193.394531 60.34375 192.925781 60.28125 C 192.457031 60.210938 192.042969 59.949219 191.675781 59.5 C 191.25 58.96875 191.089844 58.445313 191.191406 57.921875 C 191.296875 57.402344 191.667969 56.886719 192.300781 56.375 L 193.269531 55.59375 L 193.222656 55.53125 C 192.929688 55.167969 192.601563 54.976563 192.238281 54.953125 C 191.863281 54.921875 191.488281 55.0625 191.113281 55.375 C 190.875 55.5625 190.667969 55.78125 190.488281 56.03125 C 190.3125 56.273438 190.167969 56.546875 190.050781 56.859375 L 189.488281 56.140625 C 189.65625 55.820313 189.839844 55.539063 190.035156 55.296875 C 190.234375 55.046875 190.441406 54.835938 190.660156 54.65625 C 191.277344 54.167969 191.875 53.976563 192.457031 54.078125 C 193.050781 54.183594 193.632813 54.59375 194.207031 55.3125 Z M 197.191406 49.917969 L 197.769531 50.636719 C 197.476563 50.667969 197.210938 50.738281 196.972656 50.839844 C 196.722656 50.933594 196.5 51.066406 196.300781 51.230469 C 195.84375 51.597656 195.621094 52.039063 195.628906 52.558594 C 195.628906 53.070313 195.859375 53.613281 196.316406 54.183594 C 196.777344 54.757813 197.253906 55.105469 197.753906 55.230469 C 198.261719 55.347656 198.746094 55.222656 199.207031 54.855469 C 199.402344 54.691406 199.574219 54.503906 199.722656 54.292969 C 199.878906 54.074219 199.996094 53.824219 200.082031 53.542969 L 200.660156 54.246094 C 200.554688 54.507813 200.414063 54.746094 200.238281 54.964844 C 200.070313 55.183594 199.871094 55.382813 199.644531 55.558594 C 198.996094 56.082031 198.308594 56.269531 197.582031 56.121094 C 196.855469 55.976563 196.1875 55.523438 195.582031 54.761719 C 194.96875 54.003906 194.675781 53.253906 194.707031 52.511719 C 194.738281 51.761719 195.082031 51.121094 195.738281 50.589844 C 195.957031 50.425781 196.1875 50.285156 196.425781 50.167969 C 196.667969 50.054688 196.921875 49.972656 197.191406 49.917969 Z M 203.59375 48.054688 L 203.890625 48.429688 L 200.6875 50.976563 C 201.15625 51.488281 201.628906 51.78125 202.109375 51.851563 C 202.597656 51.914063 203.066406 51.765625 203.515625 51.398438 C 203.785156 51.179688 204.015625 50.9375 204.203125 50.664063 C 204.390625 50.394531 204.554688 50.085938 204.703125 49.742188 L 205.28125 50.460938 C 205.125 50.785156 204.9375 51.082031 204.71875 51.351563 C 204.507813 51.625 204.269531 51.867188 204 52.085938 C 203.320313 52.628906 202.609375 52.835938 201.859375 52.710938 C 201.121094 52.585938 200.453125 52.148438 199.859375 51.398438 C 199.246094 50.640625 198.949219 49.882813 198.96875 49.132813 C 198.980469 48.382813 199.304688 47.753906 199.9375 47.242188 C 200.511719 46.785156 201.121094 46.628906 201.765625 46.773438 C 202.421875 46.921875 203.03125 47.347656 203.59375 48.054688 Z M 202.71875 48.367188 C 202.375 47.953125 202 47.703125 201.59375 47.617188 C 201.1875 47.523438 200.8125 47.613281 200.46875 47.882813 C 200.074219 48.195313 199.859375 48.570313 199.828125 49.007813 C 199.789063 49.445313 199.921875 49.894531 200.234375 50.351563 Z M 202.71875 48.367188 "/>
</g>
</svg>

