<?xml version="1.0" encoding="UTF-8"?>
<svg xmlns="http://www.w3.org/2000/svg" xmlns:xlink="http://www.w3.org/1999/xlink" width="256pt" height="256pt" viewBox="0 0 256 256" version="1.1">
<g id="surface2">
<rect x="0" y="0" width="256" height="256" style="fill:rgb(94.901961%,93.72549%,91.372549%);fill-opacity:1;stroke:none;"/>
<path style="fill:none;stroke-width:1;stroke-linecap:round;stroke-linejoin:round;stroke:rgb(100%,100%,100%);stroke-opacity:1;stroke-dasharray:2,3;stroke-miterlimit:10;" d="M 138.65625 182.824219 L 123.929688 183.640625 "/>
<path style="fill:none;stroke-width:1;stroke-linecap:round;stroke-linejoin:round;stroke:rgb(100%,100%,100%);stroke-opacity:1;stroke-dasharray:2,3;stroke-miterlimit:10;" d="M -2 137.96875 L 0.0117188 139.703125 L 7.445313 143.953125 L 14.039063 146.125 L 21.050781 146.847656 L 26.761719 147.195313 L 38.039063 148.484375 "/>
<path style="fill:none;stroke-width:1;stroke-linecap:round;stroke-linejoin:round;stroke:rgb(100%,100%,100%);stroke-opacity:1;stroke-dasharray:2,3;stroke-miterlimit:10;" d="M 214.691406 178.230469 L 205.882813 176.875 L 196.257813 174.515625 L 191.386719 172.816406 L 188.125 171.117188 L 185.398438 168.976563 L 179.644531 163.089844 L 175.007813 159.785156 L 169.8125 157.519531 L 158.625 154.8125 L 146.648438 153.050781 L 136.210938 150.972656 L 117.03125 146.847656 L 109.738281 145.558594 L 104.078125 144.960938 L 100.558594 144.742188 L 97.738281 144.742188 L 91.027344 145.652344 L 79.191406 149.082031 L 72.621094 150.53125 L 69.613281 150.847656 L 65.394531 150.4375 L 56.84375 148.769531 L 44.703125 145.371094 L 43.375 145.179688 L 42.023438 145.371094 L 41 145.777344 L 39.578125 146.945313 L 38.039063 148.484375 L 36.664063 150.941406 L 35.429688 154.433594 L 34.753906 158.558594 L 33.054688 195.917969 L 32.679688 206.777344 L 32.050781 211.339844 L 31.027344 215.148438 L 29.160156 220.277344 L 24.105469 235.792969 L 21.074219 247.535156 L 19.582031 257 M 106.003906 257 L 114.5625 245.582031 L 118.710938 240.199219 L 125.1875 231.167969 L 129.007813 225.3125 L 131.128906 221.472656 L 132.132813 219.238281 L 133.4375 213.039063 L 138.65625 182.824219 L 142.851563 158.558594 L 143.433594 156.859375 L 144.296875 155.410156 L 145.554688 154.433594 L 146.648438 153.050781 "/>
<path style="fill:none;stroke-width:8;stroke-linecap:round;stroke-linejoin:round;stroke:rgb(75.686275%,70.980392%,61.568627%);stroke-opacity:1;stroke-miterlimit:10;" d="M 217.601563 152.988281 L 215.0625 152.578125 L 196.933594 146.472656 L 179.597656 142.726563 L 173.304688 140.585938 "/>
<path style="fill:none;stroke-width:8;stroke-linecap:round;stroke-linejoin:round;stroke:rgb(75.686275%,70.980392%,61.568627%);stroke-opacity:1;stroke-miterlimit:10;" d="M 236.664063 15.09375 L 232.121094 73.636719 "/>
<path style="fill:none;stroke-width:8;stroke-linecap:round;stroke-linejoin:round;stroke:rgb(75.686275%,70.980392%,61.568627%);stroke-opacity:1;stroke-miterlimit:10;" d="M 261.804688 111.910156 L 251.996094 118.082031 L 250.269531 118.050781 L 248.152344 117.261719 L 247.289063 115.910156 L 245.984375 112.667969 L 243.957031 98.25 L 241.765625 79.964844 L 240.34375 65.421875 L 241.066406 54.1875 L 242.722656 47.953125 L 245.332031 22.613281 "/>
<path style="fill:none;stroke-width:8;stroke-linecap:round;stroke-linejoin:round;stroke:rgb(75.686275%,70.980392%,61.568627%);stroke-opacity:1;stroke-miterlimit:10;" d="M 264 28.59375 L 262.109375 28.628906 L 260.382813 28.46875 L 257.679688 27.652344 L 245.332031 22.613281 L 236.664063 15.09375 L 231.445313 10.558594 L 230.535156 9.992188 L 227.597656 9.207031 "/>
<path style="fill:none;stroke-width:8;stroke-linecap:round;stroke-linejoin:round;stroke:rgb(75.686275%,70.980392%,61.568627%);stroke-opacity:1;stroke-miterlimit:10;" d="M 8.515625 30.167969 L 2.644531 30.671875 L -2.273438 30.671875 L -9 29.867188 "/>
<path style="fill:none;stroke-width:8;stroke-linecap:round;stroke-linejoin:round;stroke:rgb(75.686275%,70.980392%,61.568627%);stroke-opacity:1;stroke-miterlimit:10;" d="M 19.210938 259.335938 L 15.015625 260.4375 L 8.144531 260.847656 L 2.925781 260.6875 L -3.71875 260.25 L -9 258.855469 M -9 160.472656 L -7.773438 156.761719 L -7.351563 144.582031 L -6.769531 139.421875 L -5.535156 134.921875 L 2.597656 98.882813 L 3.578125 91.640625 L 5.019531 65.390625 L 7.539063 47.828125 L 8.191406 41.941406 L 8.515625 30.167969 L 9.496094 24.976563 L 13.664063 11.1875 L 16.089844 0.613281 L 16.601563 -8.988281 L 16.601563 -9 "/>
<path style="fill:none;stroke-width:8;stroke-linecap:round;stroke-linejoin:round;stroke:rgb(75.686275%,70.980392%,61.568627%);stroke-opacity:1;stroke-miterlimit:10;" d="M 199.230469 264 L 200.800781 258.421875 L 203.621094 246.304688 L 205.671875 236.457031 L 210.308594 207.941406 L 214.691406 178.230469 L 217.601563 152.988281 L 219.09375 140.207031 L 220.679688 121.890625 L 221.003906 116.320313 L 221.003906 110.308594 L 221.820313 79.019531 L 223.847656 44.269531 L 227.597656 9.207031 L 229.742188 -2.628906 L 230.609375 -9 "/>
<path style="fill:none;stroke-width:6;stroke-linecap:round;stroke-linejoin:round;stroke:rgb(100%,100%,100%);stroke-opacity:1;stroke-miterlimit:10;" d="M 217.601563 152.988281 L 215.0625 152.578125 L 196.933594 146.472656 L 179.597656 142.726563 L 173.304688 140.585938 "/>
<path style="fill:none;stroke-width:6;stroke-linecap:round;stroke-linejoin:round;stroke:rgb(100%,100%,100%);stroke-opacity:1;stroke-miterlimit:10;" d="M 236.664063 15.09375 L 232.121094 73.636719 "/>
<path style="fill:none;stroke-width:6;stroke-linecap:round;stroke-linejoin:round;stroke:rgb(100%,100%,100%);stroke-opacity:1;stroke-miterlimit:10;" d="M 261.804688 111.910156 L 251.996094 118.082031 L 250.269531 118.050781 L 248.152344 117.261719 L 247.289063 115.910156 L 245.984375 112.667969 L 243.957031 98.25 L 241.765625 79.964844 L 240.34375 65.421875 L 241.066406 54.1875 L 242.722656 47.953125 L 245.332031 22.613281 "/>
<path style="fill:none;stroke-width:6;stroke-linecap:round;stroke-linejoin:round;stroke:rgb(100%,100%,100%);stroke-opacity:1;stroke-miterlimit:10;" d="M 264 28.59375 L 262.109375 28.628906 L 260.382813 28.46875 L 257.679688 27.652344 L 245.332031 22.613281 L 236.664063 15.09375 L 231.445313 10.558594 L 230.535156 9.992188 L 227.597656 9.207031 "/>
<path style="fill:none;stroke-width:6;stroke-linecap:round;stroke-linejoin:round;stroke:rgb(100%,100%,100%);stroke-opacity:1;stroke-miterlimit:10;" d="M 8.515625 30.167969 L 2.644531 30.671875 L -2.273438 30.671875 L -9 29.867188 "/>
<path style="fill:none;stroke-width:6;stroke-linecap:round;stroke-linejoin:round;stroke:rgb(100%,100%,100%);stroke-opacity:1;stroke-miterlimit:10;" d="M 19.210938 259.335938 L 15.015625 260.4375 L 8.144531 260.847656 L 2.925781 260.6875 L -3.71875 260.25 L -9 258.855469 M -9 160.472656 L -7.773438 156.761719 L -7.351563 144.582031 L -6.769531 139.421875 L -5.535156 134.921875 L 2.597656 98.882813 L 3.578125 91.640625 L 5.019531 65.390625 L 7.539063 47.828125 L 8.191406 41.941406 L 8.515625 30.167969 L 9.496094 24.976563 L 13.664063 11.1875 L 16.089844 0.613281 L 16.601563 -8.988281 L 16.601563 -9 "/>
<path style="fill:none;stroke-width:6;stroke-linecap:round;stroke-linejoin:round;stroke:rgb(100%,100%,100%);stroke-opacity:1;stroke-miterlimit:10;" d="M 199.230469 264 L 200.800781 258.421875 L 203.621094 246.304688 L 205.671875 236.457031 L 210.308594 207.941406 L 214.691406 178.230469 L 217.601563 152.988281 L 219.09375 140.207031 L 220.679688 121.890625 L 221.003906 116.320313 L 221.003906 110.308594 L 221.820313 79.019531 L 223.847656 44.269531 L 227.597656 9.207031 L 229.742188 -2.628906 L 230.609375 -9 "/>
<path style="fill:none;stroke-width:3;stroke-linecap:round;stroke-linejoin:round;stroke:rgb(100%,100%,100%);stroke-opacity:1;stroke-miterlimit:10;" d="M 215.609375 171.769531 L 218.515625 172.097656 L 218.703125 170.535156 C 218.765625 170.027344 218.695313 169.628906 218.484375 169.347656 C 218.277344 169.066406 217.921875 168.902344 217.421875 168.847656 C 216.921875 168.785156 216.542969 168.871094 216.28125 169.097656 C 216.023438 169.328125 215.859375 169.699219 215.796875 170.207031 Z M 212.328125 171.394531 L 214.734375 171.660156 L 214.90625 170.222656 C 214.960938 169.753906 214.898438 169.394531 214.71875 169.144531 C 214.542969 168.886719 214.25 168.734375 213.84375 168.691406 C 213.449219 168.640625 213.140625 168.722656 212.921875 168.941406 C 212.695313 169.152344 212.554688 169.488281 212.5 169.957031 Z M 211.328125 172.253906 L 211.609375 169.769531 C 211.703125 169.042969 211.949219 168.496094 212.34375 168.128906 C 212.730469 167.765625 213.242188 167.621094 213.875 167.691406 C 214.355469 167.746094 214.726563 167.890625 214.984375 168.128906 C 215.246094 168.371094 215.390625 168.691406 215.421875 169.097656 C 215.589844 168.640625 215.871094 168.300781 216.265625 168.082031 C 216.652344 167.863281 217.117188 167.78125 217.65625 167.832031 C 218.367188 167.917969 218.886719 168.199219 219.21875 168.675781 C 219.5625 169.15625 219.6875 169.800781 219.59375 170.613281 L 219.296875 173.175781 Z M 217.371094 161.488281 L 217.855469 161.550781 L 217.386719 165.628906 C 218.066406 165.660156 218.601563 165.53125 218.996094 165.238281 C 219.382813 164.949219 219.605469 164.511719 219.667969 163.925781 C 219.710938 163.59375 219.707031 163.265625 219.652344 162.941406 C 219.589844 162.609375 219.492188 162.269531 219.355469 161.925781 L 220.261719 162.035156 C 220.386719 162.371094 220.464844 162.707031 220.496094 163.050781 C 220.535156 163.394531 220.542969 163.734375 220.511719 164.066406 C 220.40625 164.933594 220.050781 165.582031 219.449219 166.019531 C 218.835938 166.457031 218.050781 166.621094 217.089844 166.503906 C 216.121094 166.402344 215.382813 166.078125 214.871094 165.535156 C 214.351563 164.996094 214.132813 164.316406 214.214844 163.503906 C 214.308594 162.785156 214.636719 162.246094 215.199219 161.878906 C 215.761719 161.515625 216.488281 161.386719 217.371094 161.488281 Z M 216.964844 162.347656 C 216.433594 162.296875 215.992188 162.386719 215.636719 162.613281 C 215.285156 162.832031 215.085938 163.15625 215.042969 163.582031 C 214.980469 164.082031 215.089844 164.503906 215.371094 164.847656 C 215.644531 165.183594 216.054688 165.402344 216.605469 165.503906 Z M 213.195313 158.652344 L 214.898438 158.855469 L 215.117188 157.042969 L 215.867188 157.121094 L 215.648438 158.933594 L 218.898438 159.308594 C 219.390625 159.371094 219.710938 159.351563 219.867188 159.246094 C 220.015625 159.144531 220.109375 158.902344 220.148438 158.527344 L 220.257813 157.636719 L 221.085938 157.730469 L 220.976563 158.621094 C 220.890625 159.308594 220.695313 159.769531 220.382813 159.996094 C 220.070313 160.214844 219.546875 160.277344 218.804688 160.183594 L 215.554688 159.808594 L 215.476563 160.464844 L 214.726563 160.386719 L 214.804688 159.730469 L 213.101563 159.527344 Z M 218.140625 151.664063 L 221.734375 152.085938 L 221.625 152.976563 L 218.0625 152.570313 C 217.492188 152.5 217.054688 152.550781 216.75 152.726563 C 216.449219 152.894531 216.277344 153.171875 216.234375 153.554688 C 216.171875 154.035156 216.296875 154.429688 216.609375 154.742188 C 216.914063 155.054688 217.351563 155.25 217.921875 155.320313 L 221.3125 155.710938 L 221.21875 156.601563 L 212.921875 155.632813 L 213.015625 154.742188 L 216.265625 155.132813 C 215.933594 154.882813 215.699219 154.609375 215.5625 154.304688 C 215.417969 153.992188 215.367188 153.648438 215.40625 153.273438 C 215.480469 152.660156 215.746094 152.21875 216.203125 151.945313 C 216.664063 151.664063 217.308594 151.570313 218.140625 151.664063 Z M 219.238281 145.347656 L 219.722656 145.394531 L 219.253906 149.472656 C 219.933594 149.515625 220.46875 149.390625 220.863281 149.097656 C 221.25 148.808594 221.472656 148.371094 221.535156 147.785156 C 221.578125 147.453125 221.574219 147.125 221.519531 146.800781 C 221.457031 146.46875 221.363281 146.128906 221.238281 145.785156 L 222.144531 145.894531 C 222.257813 146.230469 222.335938 146.566406 222.378906 146.910156 C 222.417969 147.253906 222.417969 147.59375 222.378906 147.925781 C 222.273438 148.792969 221.917969 149.441406 221.316406 149.878906 C 220.703125 150.316406 219.917969 150.480469 218.957031 150.363281 C 217.988281 150.25 217.25 149.921875 216.738281 149.378906 C 216.21875 148.839844 216.003906 148.160156 216.097656 147.347656 C 216.183594 146.628906 216.503906 146.09375 217.066406 145.738281 C 217.628906 145.375 218.355469 145.246094 219.238281 145.347656 Z M 218.863281 146.207031 C 218.324219 146.15625 217.875 146.238281 217.519531 146.457031 C 217.167969 146.675781 216.964844 147 216.910156 147.425781 C 216.847656 147.925781 216.957031 148.347656 217.238281 148.691406 C 217.519531 149.027344 217.9375 149.25 218.488281 149.363281 Z M 214.351563 143.296875 L 214.460938 142.421875 L 222.757813 143.390625 L 222.648438 144.265625 Z M 219.816406 134.527344 C 219.921875 134.332031 220.109375 134.144531 220.378906 133.964844 C 220.652344 133.789063 221.027344 133.617188 221.503906 133.449219 L 223.753906 132.667969 L 223.675781 133.699219 L 221.535156 134.449219 C 220.996094 134.636719 220.625 134.835938 220.425781 135.042969 C 220.230469 135.253906 220.113281 135.550781 220.082031 135.933594 L 219.988281 136.980469 L 223.363281 137.277344 L 223.269531 138.261719 L 215.285156 137.574219 L 215.472656 135.386719 C 215.546875 134.554688 215.792969 133.957031 216.207031 133.589844 C 216.625 133.214844 217.21875 133.066406 217.988281 133.136719 C 218.488281 133.179688 218.902344 133.320313 219.222656 133.558594 C 219.535156 133.789063 219.734375 134.113281 219.816406 134.527344 Z M 216.269531 136.667969 L 219.097656 136.902344 L 219.191406 135.699219 C 219.234375 135.222656 219.144531 134.851563 218.925781 134.589844 C 218.707031 134.332031 218.363281 134.183594 217.894531 134.152344 C 217.4375 134.113281 217.078125 134.199219 216.816406 134.417969 C 216.558594 134.636719 216.40625 134.988281 216.363281 135.464844 Z M 217.863281 130.925781 L 217.941406 130.035156 L 223.941406 130.550781 L 223.863281 131.441406 Z M 215.535156 130.722656 L 215.613281 129.832031 L 216.863281 129.941406 L 216.785156 130.832031 Z M 219.320313 124.71875 L 216.085938 124.4375 L 216.164063 123.546875 L 224.492188 124.265625 L 224.414063 125.15625 L 223.507813 125.078125 C 223.851563 125.296875 224.09375 125.558594 224.242188 125.859375 C 224.398438 126.164063 224.453125 126.511719 224.414063 126.90625 C 224.359375 127.554688 224.027344 128.058594 223.414063 128.421875 C 222.800781 128.777344 222.023438 128.914063 221.085938 128.828125 C 220.140625 128.757813 219.394531 128.492188 218.851563 128.03125 C 218.3125 127.5625 218.066406 127.007813 218.117188 126.359375 C 218.160156 125.964844 218.28125 125.632813 218.476563 125.359375 C 218.664063 125.089844 218.945313 124.875 219.320313 124.71875 Z M 221.164063 127.90625 C 221.882813 127.96875 222.460938 127.890625 222.898438 127.671875 C 223.328125 127.445313 223.5625 127.09375 223.601563 126.625 C 223.644531 126.148438 223.472656 125.757813 223.085938 125.453125 C 222.703125 125.140625 222.148438 124.953125 221.429688 124.890625 C 220.703125 124.828125 220.117188 124.917969 219.679688 125.15625 C 219.242188 125.398438 219.003906 125.757813 218.960938 126.234375 C 218.921875 126.703125 219.097656 127.085938 219.492188 127.375 C 219.878906 127.667969 220.4375 127.84375 221.164063 127.90625 Z M 221.773438 118.605469 C 221.066406 118.566406 220.507813 118.664063 220.101563 118.902344 C 219.695313 119.132813 219.476563 119.492188 219.445313 119.980469 C 219.414063 120.449219 219.585938 120.832031 219.960938 121.121094 C 220.335938 121.414063 220.878906 121.582031 221.585938 121.621094 C 222.296875 121.675781 222.859375 121.582031 223.273438 121.339844 C 223.679688 121.101563 223.898438 120.746094 223.929688 120.277344 C 223.960938 119.789063 223.789063 119.402344 223.414063 119.121094 C 223.03125 118.832031 222.484375 118.660156 221.773438 118.605469 Z M 224.164063 117.871094 C 225.195313 117.933594 225.945313 118.191406 226.414063 118.636719 C 226.882813 119.074219 227.089844 119.710938 227.039063 120.542969 C 227.015625 120.855469 226.96875 121.152344 226.898438 121.433594 C 226.824219 121.707031 226.730469 121.964844 226.617188 122.214844 L 225.664063 122.152344 C 225.828125 121.902344 225.960938 121.652344 226.054688 121.402344 C 226.148438 121.152344 226.199219 120.898438 226.210938 120.636719 C 226.25 120.054688 226.109375 119.613281 225.789063 119.308594 C 225.464844 118.996094 224.964844 118.820313 224.289063 118.777344 L 223.789063 118.746094 C 224.132813 118.957031 224.390625 119.207031 224.554688 119.496094 C 224.710938 119.789063 224.773438 120.132813 224.742188 120.527344 C 224.699219 121.195313 224.390625 121.714844 223.804688 122.089844 C 223.210938 122.457031 222.453125 122.605469 221.523438 122.542969 C 220.609375 122.492188 219.882813 122.246094 219.351563 121.808594 C 218.8125 121.363281 218.5625 120.804688 218.601563 120.136719 C 218.632813 119.742188 218.742188 119.410156 218.929688 119.136719 C 219.117188 118.867188 219.394531 118.648438 219.757813 118.480469 L 218.851563 118.433594 L 218.914063 117.542969 Z M 221.757813 111.207031 L 222.242188 111.207031 L 222.210938 115.300781 C 222.890625 115.269531 223.410156 115.089844 223.773438 114.753906 C 224.128906 114.421875 224.304688 113.964844 224.304688 113.378906 C 224.304688 113.035156 224.257813 112.707031 224.164063 112.394531 C 224.070313 112.074219 223.9375 111.75 223.757813 111.425781 L 224.679688 111.425781 C 224.835938 111.75 224.953125 112.078125 225.023438 112.410156 C 225.105469 112.746094 225.148438 113.082031 225.148438 113.425781 C 225.148438 114.292969 224.867188 114.980469 224.304688 115.488281 C 223.742188 115.988281 222.984375 116.234375 222.023438 116.222656 C 221.046875 116.222656 220.269531 115.984375 219.695313 115.503906 C 219.125 115.015625 218.835938 114.363281 218.835938 113.550781 C 218.835938 112.824219 219.101563 112.25 219.632813 111.832031 C 220.15625 111.417969 220.863281 111.207031 221.757813 111.207031 Z M 221.445313 112.097656 C 220.90625 112.109375 220.472656 112.246094 220.148438 112.503906 C 219.828125 112.765625 219.664063 113.113281 219.664063 113.550781 C 219.664063 114.050781 219.820313 114.453125 220.132813 114.753906 C 220.4375 115.058594 220.867188 115.230469 221.429688 115.269531 Z M 221.417969 103.15625 C 221.511719 102.949219 221.691406 102.75 221.949219 102.5625 C 222.210938 102.367188 222.570313 102.167969 223.027344 101.96875 L 225.246094 101.046875 L 225.214844 102.09375 L 223.136719 102.96875 C 222.597656 103.1875 222.238281 103.40625 222.058594 103.625 C 221.871094 103.84375 221.773438 104.148438 221.761719 104.53125 L 221.730469 105.59375 L 225.121094 105.6875 L 225.105469 106.671875 L 217.089844 106.46875 L 217.136719 104.265625 C 217.160156 103.433594 217.367188 102.824219 217.761719 102.4375 C 218.148438 102.042969 218.730469 101.851563 219.511719 101.859375 C 220.011719 101.882813 220.429688 102 220.761719 102.21875 C 221.085938 102.429688 221.304688 102.742188 221.417969 103.15625 Z M 217.996094 105.5 L 220.839844 105.578125 L 220.871094 104.359375 C 220.882813 103.882813 220.773438 103.523438 220.542969 103.28125 C 220.316406 103.03125 219.964844 102.898438 219.496094 102.875 C 219.027344 102.867188 218.667969 102.980469 218.417969 103.21875 C 218.167969 103.449219 218.039063 103.804688 218.027344 104.28125 Z M 220.003906 97.597656 C 219.996094 98.078125 220.191406 98.464844 220.597656 98.753906 C 221.003906 99.035156 221.566406 99.1875 222.285156 99.207031 C 223.003906 99.230469 223.578125 99.109375 224.003906 98.847656 C 224.421875 98.578125 224.636719 98.203125 224.644531 97.722656 C 224.65625 97.246094 224.464844 96.863281 224.066406 96.582031 C 223.660156 96.292969 223.097656 96.136719 222.378906 96.113281 C 221.660156 96.09375 221.089844 96.21875 220.660156 96.488281 C 220.234375 96.75 220.015625 97.121094 220.003906 97.597656 Z M 219.175781 97.582031 C 219.199219 96.8125 219.496094 96.214844 220.066406 95.785156 C 220.628906 95.359375 221.40625 95.15625 222.394531 95.175781 C 223.375 95.199219 224.140625 95.4375 224.691406 95.894531 C 225.246094 96.355469 225.507813 96.96875 225.488281 97.738281 C 225.464844 98.519531 225.171875 99.125 224.597656 99.550781 C 224.027344 99.96875 223.25 100.167969 222.269531 100.144531 C 221.28125 100.125 220.515625 99.890625 219.972656 99.441406 C 219.421875 98.984375 219.15625 98.363281 219.175781 97.582031 Z M 222.472656 91.253906 C 222.453125 91.972656 222.53125 92.472656 222.707031 92.753906 C 222.886719 93.035156 223.191406 93.183594 223.628906 93.191406 C 223.972656 93.203125 224.253906 93.109375 224.472656 92.910156 C 224.691406 92.703125 224.800781 92.421875 224.800781 92.066406 C 224.824219 91.566406 224.640625 91.167969 224.253906 90.863281 C 223.871094 90.550781 223.359375 90.386719 222.722656 90.363281 L 222.488281 90.363281 Z M 222.113281 89.457031 L 225.550781 89.550781 L 225.519531 90.441406 L 224.613281 90.410156 C 224.980469 90.628906 225.246094 90.894531 225.410156 91.207031 C 225.566406 91.511719 225.636719 91.878906 225.628906 92.316406 C 225.617188 92.871094 225.433594 93.308594 225.082031 93.628906 C 224.730469 93.953125 224.261719 94.105469 223.675781 94.082031 C 223 94.0625 222.496094 93.847656 222.160156 93.441406 C 221.828125 93.027344 221.671875 92.410156 221.691406 91.597656 L 221.722656 90.347656 L 221.628906 90.347656 C 221.171875 90.328125 220.816406 90.453125 220.566406 90.722656 C 220.308594 90.984375 220.171875 91.359375 220.160156 91.847656 C 220.152344 92.152344 220.183594 92.453125 220.253906 92.753906 C 220.328125 93.058594 220.449219 93.34375 220.613281 93.613281 L 219.707031 93.582031 C 219.5625 93.25 219.464844 92.933594 219.410156 92.628906 C 219.347656 92.328125 219.324219 92.03125 219.332031 91.738281 C 219.355469 90.957031 219.59375 90.378906 220.050781 90.003906 C 220.511719 89.621094 221.199219 89.4375 222.113281 89.457031 Z M 220.585938 84.023438 L 217.335938 83.945313 L 217.351563 83.054688 L 225.710938 83.273438 L 225.695313 84.164063 L 224.789063 84.132813 C 225.144531 84.332031 225.40625 84.578125 225.570313 84.867188 C 225.734375 85.160156 225.8125 85.503906 225.804688 85.898438 C 225.78125 86.554688 225.484375 87.082031 224.898438 87.476563 C 224.304688 87.875 223.535156 88.0625 222.585938 88.039063 C 221.640625 88.019531 220.882813 87.796875 220.320313 87.367188 C 219.75 86.941406 219.472656 86.398438 219.492188 85.742188 C 219.503906 85.347656 219.597656 85.007813 219.773438 84.726563 C 219.953125 84.445313 220.222656 84.210938 220.585938 84.023438 Z M 222.601563 87.117188 C 223.332031 87.140625 223.910156 87.023438 224.335938 86.773438 C 224.753906 86.515625 224.96875 86.148438 224.976563 85.679688 C 224.988281 85.203125 224.796875 84.820313 224.398438 84.539063 C 223.992188 84.257813 223.425781 84.109375 222.695313 84.085938 C 221.96875 84.066406 221.394531 84.1875 220.976563 84.445313 C 220.550781 84.707031 220.332031 85.078125 220.320313 85.554688 C 220.3125 86.023438 220.507813 86.398438 220.914063 86.679688 C 221.3125 86.953125 221.875 87.097656 222.601563 87.117188 Z M 222.601563 87.117188 "/>
<path style=" stroke:none;fill-rule:evenodd;fill:rgb(20%,20%,20%);fill-opacity:1;" d="M 215.609375 171.769531 L 218.515625 172.097656 L 218.703125 170.535156 C 218.765625 170.027344 218.695313 169.628906 218.484375 169.347656 C 218.277344 169.066406 217.921875 168.902344 217.421875 168.847656 C 216.921875 168.785156 216.542969 168.871094 216.28125 169.097656 C 216.023438 169.328125 215.859375 169.699219 215.796875 170.207031 Z M 212.328125 171.394531 L 214.734375 171.660156 L 214.90625 170.222656 C 214.960938 169.753906 214.898438 169.394531 214.71875 169.144531 C 214.542969 168.886719 214.25 168.734375 213.84375 168.691406 C 213.449219 168.640625 213.140625 168.722656 212.921875 168.941406 C 212.695313 169.152344 212.554688 169.488281 212.5 169.957031 Z M 211.328125 172.253906 L 211.609375 169.769531 C 211.703125 169.042969 211.949219 168.496094 212.34375 168.128906 C 212.730469 167.765625 213.242188 167.621094 213.875 167.691406 C 214.355469 167.746094 214.726563 167.890625 214.984375 168.128906 C 215.246094 168.371094 215.390625 168.691406 215.421875 169.097656 C 215.589844 168.640625 215.871094 168.300781 216.265625 168.082031 C 216.652344 167.863281 217.117188 167.78125 217.65625 167.832031 C 218.367188 167.917969 218.886719 168.199219 219.21875 168.675781 C 219.5625 169.15625 219.6875 169.800781 219.59375 170.613281 L 219.296875 173.175781 Z M 217.371094 161.488281 L 217.855469 161.550781 L 217.386719 165.628906 C 218.066406 165.660156 218.601563 165.53125 218.996094 165.238281 C 219.382813 164.949219 219.605469 164.511719 219.667969 163.925781 C 219.710938 163.59375 219.707031 163.265625 219.652344 162.941406 C 219.589844 162.609375 219.492188 162.269531 219.355469 161.925781 L 220.261719 162.035156 C 220.386719 162.371094 220.464844 162.707031 220.496094 163.050781 C 220.535156 163.394531 220.542969 163.734375 220.511719 164.066406 C 220.40625 164.933594 220.050781 165.582031 219.449219 166.019531 C 218.835938 166.457031 218.050781 166.621094 217.089844 166.503906 C 216.121094 166.402344 215.382813 166.078125 214.871094 165.535156 C 214.351563 164.996094 214.132813 164.316406 214.214844 163.503906 C 214.308594 162.785156 214.636719 162.246094 215.199219 161.878906 C 215.761719 161.515625 216.488281 161.386719 217.371094 161.488281 Z M 216.964844 162.347656 C 216.433594 162.296875 215.992188 162.386719 215.636719 162.613281 C 215.285156 162.832031 215.085938 163.15625 215.042969 163.582031 C 214.980469 164.082031 215.089844 164.503906 215.371094 164.847656 C 215.644531 165.183594 216.054688 165.402344 216.605469 165.503906 Z M 213.195313 158.652344 L 214.898438 158.855469 L 215.117188 157.042969 L 215.867188 157.121094 L 215.648438 158.933594 L 218.898438 159.308594 C 219.390625 159.371094 219.710938 159.351563 219.867188 159.246094 C 220.015625 159.144531 220.109375 158.902344 220.148438 158.527344 L 220.257813 157.636719 L 221.085938 157.730469 L 220.976563 158.621094 C 220.890625 159.308594 220.695313 159.769531 220.382813 159.996094 C 220.070313 160.214844 219.546875 160.277344 218.804688 160.183594 L 215.554688 159.808594 L 215.476563 160.464844 L 214.726563 160.386719 L 214.804688 159.730469 L 213.101563 159.527344 Z M 218.140625 151.664063 L 221.734375 152.085938 L 221.625 152.976563 L 218.0625 152.570313 C 217.492188 152.5 217.054688 152.550781 216.75 152.726563 C 216.449219 152.894531 216.277344 153.171875 216.234375 153.554688 C 216.171875 154.035156 216.296875 154.429688 216.609375 154.742188 C 216.914063 155.054688 217.351563 155.25 217.921875 155.320313 L 221.3125 155.710938 L 221.21875 156.601563 L 212.921875 155.632813 L 213.015625 154.742188 L 216.265625 155.132813 C 215.933594 154.882813 215.699219 154.609375 215.5625 154.304688 C 215.417969 153.992188 215.367188 153.648438 215.40625 153.273438 C 215.480469 152.660156 215.746094 152.21875 216.203125 151.945313 C 216.664063 151.664063 217.308594 151.570313 218.140625 151.664063 Z M 219.238281 145.347656 L 219.722656 145.394531 L 219.253906 149.472656 C 219.933594 149.515625 220.46875 149.390625 220.863281 149.097656 C 221.25 148.808594 221.472656 148.371094 221.535156 147.785156 C 221.578125 147.453125 221.574219 147.125 221.519531 146.800781 C 221.457031 146.46875 221.363281 146.128906 221.238281 145.785156 L 222.144531 145.894531 C 222.257813 146.230469 222.335938 146.566406 222.378906 146.910156 C 222.417969 147.253906 222.417969 147.59375 222.378906 147.925781 C 222.273438 148.792969 221.917969 149.441406 221.316406 149.878906 C 220.703125 150.316406 219.917969 150.480469 218.957031 150.363281 C 217.988281 150.25 217.25 149.921875 216.738281 149.378906 C 216.21875 148.839844 216.003906 148.160156 216.097656 147.347656 C 216.183594 146.628906 216.503906 146.09375 217.066406 145.738281 C 217.628906 145.375 218.355469 145.246094 219.238281 145.347656 Z M 218.863281 146.207031 C 218.324219 146.15625 217.875 146.238281 217.519531 146.457031 C 217.167969 146.675781 216.964844 147 216.910156 147.425781 C 216.847656 147.925781 216.957031 148.347656 217.238281 148.691406 C 217.519531 149.027344 217.9375 149.25 218.488281 149.363281 Z M 214.351563 143.296875 L 214.460938 142.421875 L 222.757813 143.390625 L 222.648438 144.265625 Z M 219.816406 134.527344 C 219.921875 134.332031 220.109375 134.144531 220.378906 133.964844 C 220.652344 133.789063 221.027344 133.617188 221.503906 133.449219 L 223.753906 132.667969 L 223.675781 133.699219 L 221.535156 134.449219 C 220.996094 134.636719 220.625 134.835938 220.425781 135.042969 C 220.230469 135.253906 220.113281 135.550781 220.082031 135.933594 L 219.988281 136.980469 L 223.363281 137.277344 L 223.269531 138.261719 L 215.285156 137.574219 L 215.472656 135.386719 C 215.546875 134.554688 215.792969 133.957031 216.207031 133.589844 C 216.625 133.214844 217.21875 133.066406 217.988281 133.136719 C 218.488281 133.179688 218.902344 133.320313 219.222656 133.558594 C 219.535156 133.789063 219.734375 134.113281 219.816406 134.527344 Z M 216.269531 136.667969 L 219.097656 136.902344 L 219.191406 135.699219 C 219.234375 135.222656 219.144531 134.851563 218.925781 134.589844 C 218.707031 134.332031 218.363281 134.183594 217.894531 134.152344 C 217.4375 134.113281 217.078125 134.199219 216.816406 134.417969 C 216.558594 134.636719 216.40625 134.988281 216.363281 135.464844 Z M 217.863281 130.925781 L 217.941406 130.035156 L 223.941406 130.550781 L 223.863281 131.441406 Z M 215.535156 130.722656 L 215.613281 129.832031 L 216.863281 129.941406 L 216.785156 130.832031 Z M 219.320313 124.71875 L 216.085938 124.4375 L 216.164063 123.546875 L 224.492188 124.265625 L 224.414063 125.15625 L 223.507813 125.078125 C 223.851563 125.296875 224.09375 125.558594 224.242188 125.859375 C 224.398438 126.164063 224.453125 126.511719 224.414063 126.90625 C 224.359375 127.554688 224.027344 128.058594 223.414063 128.421875 C 222.800781 128.777344 222.023438 128.914063 221.085938 128.828125 C 220.140625 128.757813 219.394531 128.492188 218.851563 128.03125 C 218.3125 127.5625 218.066406 127.007813 218.117188 126.359375 C 218.160156 125.964844 218.28125 125.632813 218.476563 125.359375 C 218.664063 125.089844 218.945313 124.875 219.320313 124.71875 Z M 221.164063 127.90625 C 221.882813 127.96875 222.460938 127.890625 222.898438 127.671875 C 223.328125 127.445313 223.5625 127.09375 223.601563 126.625 C 223.644531 126.148438 223.472656 125.757813 223.085938 125.453125 C 222.703125 125.140625 222.148438 124.953125 221.429688 124.890625 C 220.703125 124.828125 220.117188 124.917969 219.679688 125.15625 C 219.242188 125.398438 219.003906 125.757813 218.960938 126.234375 C 218.921875 126.703125 219.097656 127.085938 219.492188 127.375 C 219.878906 127.667969 220.4375 127.84375 221.164063 127.90625 Z M 221.773438 118.605469 C 221.066406 118.566406 220.507813 118.664063 220.101563 118.902344 C 219.695313 119.132813 219.476563 119.492188 219.445313 119.980469 C 219.414063 120.449219 219.585938 120.832031 219.960938 121.121094 C 220.335938 121.414063 220.878906 121.582031 221.585938 121.621094 C 222.296875 121.675781 222.859375 121.582031 223.273438 121.339844 C 223.679688 121.101563 223.898438 120.746094 223.929688 120.277344 C 223.960938 119.789063 223.789063 119.402344 223.414063 119.121094 C 223.03125 118.832031 222.484375 118.660156 221.773438 118.605469 Z M 224.164063 117.871094 C 225.195313 117.933594 225.945313 118.191406 226.414063 118.636719 C 226.882813 119.074219 227.089844 119.710938 227.039063 120.542969 C 227.015625 120.855469 226.96875 121.152344 226.898438 121.433594 C 226.824219 121.707031 226.730469 121.964844 226.617188 122.214844 L 225.664063 122.152344 C 225.828125 121.902344 225.960938 121.652344 226.054688 121.402344 C 226.148438 121.152344 226.199219 120.898438 226.210938 120.636719 C 226.25 120.054688 226.109375 119.613281 225.789063 119.308594 C 225.464844 118.996094 224.964844 118.820313 224.289063 118.777344 L 223.789063 118.746094 C 224.132813 118.957031 224.390625 119.207031 224.554688 119.496094 C 224.710938 119.789063 224.773438 120.132813 224.742188 120.527344 C 224.699219 121.195313 224.390625 121.714844 223.804688 122.089844 C 223.210938 122.457031 222.453125 122.605469 221.523438 122.542969 C 220.609375 122.492188 219.882813 122.246094 219.351563 121.808594 C 218.8125 121.363281 218.5625 120.804688 218.601563 120.136719 C 218.632813 119.742188 218.742188 119.410156 218.929688 119.136719 C 219.117188 118.867188 219.394531 118.648438 219.757813 118.480469 L 218.851563 118.433594 L 218.914063 117.542969 Z M 221.757813 111.207031 L 222.242188 111.207031 L 222.210938 115.300781 C 222.890625 115.269531 223.410156 115.089844 223.773438 114.753906 C 224.128906 114.421875 224.304688 113.964844 224.304688 113.378906 C 224.304688 113.035156 224.257813 112.707031 224.164063 112.394531 C 224.070313 112.074219 223.9375 111.75 223.757813 111.425781 L 224.679688 111.425781 C 224.835938 111.75 224.953125 112.078125 225.023438 112.410156 C 225.105469 112.746094 225.148438 113.082031 225.148438 113.425781 C 225.148438 114.292969 224.867188 114.980469 224.304688 115.488281 C 223.742188 115.988281 222.984375 116.234375 222.023438 116.222656 C 221.046875 116.222656 220.269531 115.984375 219.695313 115.503906 C 219.125 115.015625 218.835938 114.363281 218.835938 113.550781 C 218.835938 112.824219 219.101563 112.25 219.632813 111.832031 C 220.15625 111.417969 220.863281 111.207031 221.757813 111.207031 Z M 221.445313 112.097656 C 220.90625 112.109375 220.472656 112.246094 220.148438 112.503906 C 219.828125 112.765625 219.664063 113.113281 219.664063 113.550781 C 219.664063 114.050781 219.820313 114.453125 220.132813 114.753906 C 220.4375 115.058594 220.867188 115.230469 221.429688 115.269531 Z M 221.417969 103.15625 C 221.511719 102.949219 221.691406 102.75 221.949219 102.5625 C 222.210938 102.367188 222.570313 102.167969 223.027344 101.96875 L 225.246094 101.046875 L 225.214844 102.09375 L 223.136719 102.96875 C 222.597656 103.1875 222.238281 103.40625 222.058594 103.625 C 221.871094 103.84375 221.773438 104.148438 221.761719 104.53125 L 221.730469 105.59375 L 225.121094 105.6875 L 225.105469 106.671875 L 217.089844 106.46875 L 217.136719 104.265625 C 217.160156 103.433594 217.367188 102.824219 217.761719 102.4375 C 218.148438 102.042969 218.730469 101.851563 219.511719 101.859375 C 220.011719 101.882813 220.429688 102 220.761719 102.21875 C 221.085938 102.429688 221.304688 102.742188 221.417969 103.15625 Z M 217.996094 105.5 L 220.839844 105.578125 L 220.871094 104.359375 C 220.882813 103.882813 220.773438 103.523438 220.542969 103.28125 C 220.316406 103.03125 219.964844 102.898438 219.496094 102.875 C 219.027344 102.867188 218.667969 102.980469 218.417969 103.21875 C 218.167969 103.449219 218.039063 103.804688 218.027344 104.28125 Z M 220.003906 97.597656 C 219.996094 98.078125 220.191406 98.464844 220.597656 98.753906 C 221.003906 99.035156 221.566406 99.1875 222.285156 99.207031 C 223.003906 99.230469 223.578125 99.109375 224.003906 98.847656 C 224.421875 98.578125 224.636719 98.203125 224.644531 97.722656 C 224.65625 97.246094 224.464844 96.863281 224.066406 96.582031 C 223.660156 96.292969 223.097656 96.136719 222.378906 96.113281 C 221.660156 96.09375 221.089844 96.21875 220.660156 96.488281 C 220.234375 96.75 220.015625 97.121094 220.003906 97.597656 Z M 219.175781 97.582031 C 219.199219 96.8125 219.496094 96.214844 220.066406 95.785156 C 220.628906 95.359375 221.40625 95.15625 222.394531 95.175781 C 223.375 95.199219 224.140625 95.4375 224.691406 95.894531 C 225.246094 96.355469 225.507813 96.96875 225.488281 97.738281 C 225.464844 98.519531 225.171875 99.125 224.597656 99.550781 C 224.027344 99.96875 223.25 100.167969 222.269531 100.144531 C 221.28125 100.125 220.515625 99.890625 219.972656 99.441406 C 219.421875 98.984375 219.15625 98.363281 219.175781 97.582031 Z M 222.472656 91.253906 C 222.453125 91.972656 222.53125 92.472656 222.707031 92.753906 C 222.886719 93.035156 223.191406 93.183594 223.628906 93.191406 C 223.972656 93.203125 224.253906 93.109375 224.472656 92.910156 C 224.691406 92.703125 224.800781 92.421875 224.800781 92.066406 C 224.824219 91.566406 224.640625 91.167969 224.253906 90.863281 C 223.871094 90.550781 223.359375 90.386719 222.722656 90.363281 L 222.488281 90.363281 Z M 222.113281 89.457031 L 225.550781 89.550781 L 225.519531 90.441406 L 224.613281 90.410156 C 224.980469 90.628906 225.246094 90.894531 225.410156 91.207031 C 225.566406 91.511719 225.636719 91.878906 225.628906 92.316406 C 225.617188 92.871094 225.433594 93.308594 225.082031 93.628906 C 224.730469 93.953125 224.261719 94.105469 223.675781 94.082031 C 223 94.0625 222.496094 93.847656 222.160156 93.441406 C 221.828125 93.027344 221.671875 92.410156 221.691406 91.597656 L 221.722656 90.347656 L 221.628906 90.347656 C 221.171875 90.328125 220.816406 90.453125 220.566406 90.722656 C 220.308594 90.984375 220.171875 91.359375 220.160156 91.847656 C 220.152344 92.152344 220.183594 92.453125 220.253906 92.753906 C 220.328125 93.058594 220.449219 93.34375 220.613281 93.613281 L 219.707031 93.582031 C 219.5625 93.25 219.464844 92.933594 219.410156 92.628906 C 219.347656 92.328125 219.324219 92.03125 219.332031 91.738281 C 219.355469 90.957031 219.59375 90.378906 220.050781 90.003906 C 220.511719 89.621094 221.199219 89.4375 222.113281 89.457031 Z M 220.585938 84.023438 L 217.335938 83.945313 L 217.351563 83.054688 L 225.710938 83.273438 L 225.695313 84.164063 L 224.789063 84.132813 C 225.144531 84.332031 225.40625 84.578125 225.570313 84.867188 C 225.734375 85.160156 225.8125 85.503906 225.804688 85.898438 C 225.78125 86.554688 225.484375 87.082031 224.898438 87.476563 C 224.304688 87.875 223.535156 88.0625 222.585938 88.039063 C 221.640625 88.019531 220.882813 87.796875 220.320313 87.367188 C 219.75 86.941406 219.472656 86.398438 219.492188 85.742188 C 219.503906 85.347656 219.597656 85.007813 219.773438 84.726563 C 219.953125 84.445313 220.222656 84.210938 220.585938 84.023438 Z M 222.601563 87.117188 C 223.332031 87.140625 223.910156 87.023438 224.335938 86.773438 C 224.753906 86.515625 224.96875 86.148438 224.976563 85.679688 C 224.988281 85.203125 224.796875 84.820313 224.398438 84.539063 C 223.992188 84.257813 223.425781 84.109375 222.695313 84.085938 C 221.96875 84.066406 221.394531 84.1875 220.976563 84.445313 C 220.550781 84.707031 220.332031 85.078125 220.320313 85.554688 C 220.3125 86.023438 220.507813 86.398438 220.914063 86.679688 C 221.3125 86.953125 221.875 87.097656 222.601563 87.117188 Z M 222.601563 87.117188 "/>
</g>
</svg>

