<?xml version="1.0" encoding="UTF-8"?>
<svg xmlns="http://www.w3.org/2000/svg" xmlns:xlink="http://www.w3.org/1999/xlink" width="256pt" height="256pt" viewBox="0 0 256 256" version="1.1">
<g id="surface2">
<rect x="0" y="0" width="256" height="256" style="fill:rgb(94.901961%,93.72549%,91.372549%);fill-opacity:1;stroke:none;"/>
<path style="fill:none;stroke-width:2;stroke-linecap:round;stroke-linejoin:round;stroke:rgb(60%,70.196078%,80%);stroke-opacity:1;stroke-miterlimit:10;" d="M 258 34.621094 L 251.828125 39.019531 L 241.296875 41.617188 L 234.28125 49.972656 L 231.449219 53.558594 "/>
<path style="fill:none;stroke-width:2;stroke-linecap:round;stroke-linejoin:round;stroke:rgb(60%,70.196078%,80%);stroke-opacity:1;stroke-miterlimit:10;" d="M 258 120.355469 L 255.976563 118.585938 L 230.078125 107.96875 L 221.355469 98.496094 L 220.742188 96.542969 L 223.960938 81.261719 L 232.167969 66.140625 L 231.449219 53.558594 "/>
<path style="fill:none;stroke-width:1;stroke-linecap:round;stroke-linejoin:round;stroke:rgb(100%,100%,100%);stroke-opacity:1;stroke-dasharray:2,3;stroke-miterlimit:10;" d="M 212.070313 72.855469 L 210.429688 69.414063 L 208.058594 66.433594 L 204.105469 65.339844 L 203.683594 61.816406 "/>
<path style="fill:none;stroke-width:1;stroke-linecap:round;stroke-linejoin:round;stroke:rgb(100%,100%,100%);stroke-opacity:1;stroke-dasharray:2,3;stroke-miterlimit:10;" d="M 211.21875 78.832031 L 210.429688 75.191406 L 212.070313 72.855469 L 208.605469 73 L 205.382813 75.492188 L 204.835938 72.636719 L 202.527344 69.65625 "/>
<path style="fill:none;stroke-width:1;stroke-linecap:round;stroke-linejoin:round;stroke:rgb(100%,100%,100%);stroke-opacity:1;stroke-dasharray:2,3;stroke-miterlimit:10;" d="M 231.386719 115.808594 L 226.976563 121.660156 L 217.441406 127.039063 L 209.152344 135.925781 L 205.914063 138.324219 L 200.792969 149.28125 L 200.59375 154.949219 L 193.835938 161.324219 L 187.375 168.203125 L 182.804688 177.089844 L 173.625 181.699219 L 172.144531 184.332031 L 166.125 182.398438 L 159.101563 182.714844 L 150.667969 184.148438 L 146.347656 188.242188 L 141.835938 189.703125 L 141.113281 188.214844 L 133.949219 189.078125 L 129.089844 188.3125 L 126.582031 184.863281 L 121.335938 183.855469 L 118.65625 179.34375 L 115.671875 181.125 L 112.320313 182.734375 L 110.121094 180.664063 L 108.832031 177.574219 L 100.519531 176.566406 L 94.144531 173.570313 L 86.734375 175.242188 L 84.257813 176.941406 L 80.421875 176.863281 L 75.554688 178.601563 L 70.75 179.910156 L 67.128906 180.886719 L 65.089844 182.707031 L 63.84375 186.648438 L 60.09375 192.894531 L 57.101563 194.230469 L 54.746094 198.167969 L 49.59375 201.148438 L 46.058594 201.984375 L 38.992188 200.808594 L 36.007813 198.863281 L 33.335938 199.9375 L 27.542969 206.15625 L 20.742188 209.769531 L 14.703125 210.472656 L 4.976563 216.542969 L 2.699219 213.898438 L 1.734375 214.175781 L 0.453125 218.386719 L -2 219.820313 "/>
<path style="fill:none;stroke-width:1;stroke-linecap:round;stroke-linejoin:round;stroke:rgb(100%,100%,100%);stroke-opacity:1;stroke-dasharray:2,3;stroke-miterlimit:10;" d="M 212.441406 78.496094 L 214.875 83.933594 L 215.808594 90.714844 L 218.777344 100.042969 L 224.628906 106.828125 L 230.222656 113.695313 L 231.386719 115.808594 L 234.078125 117.320313 L 239.945313 118.980469 L 247 121.308594 L 255.816406 126.105469 L 257 127.261719 "/>
<path style="fill:none;stroke-width:1;stroke-linecap:round;stroke-linejoin:round;stroke:rgb(100%,100%,100%);stroke-opacity:1;stroke-dasharray:2,3;stroke-miterlimit:10;" d="M 82.042969 -2 L 114.289063 36.492188 L 141.347656 59.816406 L 167.238281 85.644531 L 184.921875 85.851563 L 192.417969 82.441406 L 201.988281 81.351563 L 211.21875 78.832031 L 212.441406 78.496094 L 217.121094 70.917969 L 242.945313 46.308594 L 257 38.816406 "/>
</g>
</svg>

