<?xml version="1.0" encoding="UTF-8"?>
<svg xmlns="http://www.w3.org/2000/svg" xmlns:xlink="http://www.w3.org/1999/xlink" width="256pt" height="256pt" viewBox="0 0 256 256" version="1.1">
<g id="surface2">
<rect x="0" y="0" width="256" height="256" style="fill:rgb(60%,70.196078%,80%);fill-opacity:1;stroke:none;"/>
<path style="fill:none;stroke-width:6;stroke-linecap:round;stroke-linejoin:round;stroke:rgb(60%,70.196078%,80%);stroke-opacity:1;stroke-miterlimit:10;" d="M 69.480469 93.511719 L 62.441406 262 "/>
<path style="fill:none;stroke-width:6;stroke-linecap:round;stroke-linejoin:round;stroke:rgb(60%,70.196078%,80%);stroke-opacity:1;stroke-miterlimit:10;" d="M 118.222656 -7 L 69.480469 93.511719 "/>
<path style="fill:none;stroke-width:3;stroke-linecap:round;stroke-linejoin:round;stroke:rgb(100%,100%,100%);stroke-opacity:1;stroke-miterlimit:10;" d="M 59.789063 214.488281 L 60.085938 207.285156 L 61.164063 207.332031 L 61.039063 210.347656 L 69.429688 210.691406 L 69.382813 211.847656 L 60.992188 211.503906 L 60.867188 214.535156 Z M 65.527344 201.121094 L 69.824219 201.292969 L 69.777344 202.339844 L 65.527344 202.167969 C 64.851563 202.136719 64.339844 202.238281 63.996094 202.464844 C 63.652344 202.683594 63.476563 203.027344 63.464844 203.496094 C 63.433594 204.058594 63.617188 204.511719 64.011719 204.855469 C 64.398438 205.199219 64.941406 205.386719 65.636719 205.417969 L 69.652344 205.589844 L 69.605469 206.652344 L 59.746094 206.246094 L 59.792969 205.183594 L 63.652344 205.339844 C 63.238281 205.070313 62.929688 204.761719 62.730469 204.417969 C 62.523438 204.074219 62.429688 203.679688 62.449219 203.230469 C 62.480469 202.503906 62.757813 201.960938 63.277344 201.605469 C 63.800781 201.242188 64.550781 201.082031 65.527344 201.121094 Z M 66.304688 193.5625 L 66.867188 193.578125 L 66.664063 198.421875 C 67.476563 198.402344 68.101563 198.210938 68.539063 197.84375 C 68.96875 197.46875 69.195313 196.933594 69.226563 196.234375 C 69.238281 195.828125 69.195313 195.4375 69.101563 195.0625 C 69.007813 194.679688 68.863281 194.292969 68.664063 193.90625 L 69.773438 193.953125 C 69.929688 194.339844 70.042969 194.734375 70.117188 195.140625 C 70.199219 195.539063 70.234375 195.9375 70.226563 196.34375 C 70.183594 197.367188 69.820313 198.164063 69.132813 198.734375 C 68.445313 199.296875 67.539063 199.558594 66.414063 199.515625 C 65.25 199.464844 64.335938 199.140625 63.679688 198.546875 C 63.015625 197.953125 62.703125 197.179688 62.742188 196.21875 C 62.785156 195.355469 63.125 194.683594 63.757813 194.203125 C 64.394531 193.726563 65.242188 193.511719 66.304688 193.5625 Z M 65.914063 194.609375 C 65.28125 194.578125 64.765625 194.714844 64.367188 195.015625 C 63.960938 195.308594 63.75 195.714844 63.726563 196.234375 C 63.707031 196.828125 63.875 197.308594 64.226563 197.671875 C 64.582031 198.039063 65.09375 198.261719 65.757813 198.34375 Z M 60.902344 187.839844 L 60.964844 186.292969 L 69.042969 182.839844 L 61.121094 182.511719 L 61.167969 181.386719 L 70.636719 181.777344 L 70.574219 183.339844 L 62.496094 186.792969 L 70.417969 187.121094 L 70.371094 188.230469 Z M 67.28125 176.472656 C 67.242188 177.328125 67.324219 177.925781 67.53125 178.269531 C 67.742188 178.605469 68.105469 178.78125 68.625 178.800781 C 69.03125 178.824219 69.367188 178.71875 69.625 178.488281 C 69.875 178.25 70.007813 177.917969 70.015625 177.488281 C 70.046875 176.90625 69.839844 176.433594 69.390625 176.066406 C 68.945313 175.691406 68.339844 175.488281 67.578125 175.457031 L 67.3125 175.441406 Z M 66.875 174.363281 L 70.9375 174.535156 L 70.890625 175.597656 L 69.8125 175.550781 C 70.242188 175.800781 70.546875 176.113281 70.734375 176.488281 C 70.929688 176.855469 71.019531 177.296875 71 177.816406 C 70.96875 178.472656 70.738281 178.984375 70.3125 179.347656 C 69.886719 179.714844 69.335938 179.878906 68.65625 179.847656 C 67.855469 179.816406 67.261719 179.558594 66.875 179.066406 C 66.492188 178.566406 66.320313 177.839844 66.359375 176.878906 L 66.40625 175.410156 L 66.28125 175.410156 C 65.75 175.390625 65.335938 175.53125 65.03125 175.832031 C 64.71875 176.136719 64.554688 176.574219 64.53125 177.144531 C 64.511719 177.511719 64.542969 177.871094 64.625 178.222656 C 64.710938 178.566406 64.84375 178.90625 65.03125 179.238281 L 63.953125 179.191406 C 63.808594 178.796875 63.703125 178.421875 63.640625 178.066406 C 63.570313 177.703125 63.539063 177.347656 63.546875 177.003906 C 63.589844 176.078125 63.886719 175.394531 64.4375 174.957031 C 64.980469 174.519531 65.792969 174.324219 66.875 174.363281 Z M 65.175781 168.414063 C 65.09375 168.53125 65.03125 168.65625 64.988281 168.789063 C 64.949219 168.925781 64.925781 169.078125 64.925781 169.242188 C 64.894531 169.835938 65.089844 170.304688 65.503906 170.648438 C 65.921875 170.984375 66.53125 171.164063 67.332031 171.195313 L 71.082031 171.351563 L 71.035156 172.414063 L 63.925781 172.117188 L 63.972656 171.054688 L 65.082031 171.101563 C 64.65625 170.863281 64.34375 170.566406 64.144531 170.210938 C 63.949219 169.847656 63.859375 169.414063 63.878906 168.914063 C 63.890625 168.84375 63.902344 168.765625 63.910156 168.679688 C 63.921875 168.585938 63.941406 168.484375 63.972656 168.367188 Z M 65.375 163.605469 C 65.292969 163.722656 65.230469 163.847656 65.1875 163.980469 C 65.148438 164.117188 65.125 164.269531 65.125 164.433594 C 65.09375 165.027344 65.289063 165.496094 65.703125 165.839844 C 66.121094 166.175781 66.730469 166.355469 67.53125 166.386719 L 71.28125 166.542969 L 71.234375 167.605469 L 64.125 167.308594 L 64.171875 166.246094 L 65.28125 166.292969 C 64.855469 166.054688 64.542969 165.757813 64.34375 165.402344 C 64.148438 165.039063 64.058594 164.605469 64.078125 164.105469 C 64.089844 164.035156 64.101563 163.957031 64.109375 163.871094 C 64.121094 163.777344 64.140625 163.675781 64.171875 163.558594 Z M 65.25 160.015625 C 65.21875 160.578125 65.445313 161.039063 65.921875 161.390625 C 66.402344 161.734375 67.070313 161.929688 67.921875 161.96875 C 68.777344 162 69.453125 161.867188 69.953125 161.5625 C 70.445313 161.25 70.703125 160.8125 70.734375 160.25 C 70.757813 159.6875 70.527344 159.234375 70.046875 158.890625 C 69.570313 158.539063 68.90625 158.34375 68.0625 158.3125 C 67.21875 158.273438 66.546875 158.40625 66.046875 158.71875 C 65.539063 159.023438 65.273438 159.453125 65.25 160.015625 Z M 64.265625 159.984375 C 64.296875 159.070313 64.65625 158.367188 65.34375 157.875 C 66.023438 157.375 66.945313 157.152344 68.109375 157.203125 C 69.277344 157.246094 70.183594 157.542969 70.828125 158.09375 C 71.460938 158.648438 71.765625 159.382813 71.734375 160.296875 C 71.691406 161.214844 71.335938 161.917969 70.65625 162.40625 C 69.96875 162.898438 69.042969 163.121094 67.875 163.078125 C 66.710938 163.027344 65.808594 162.730469 65.171875 162.1875 C 64.527344 161.636719 64.226563 160.902344 64.265625 159.984375 Z M 64.59375 155.929688 L 64.640625 154.867188 L 70.25 153.789063 L 64.75 152.242188 L 64.796875 151.007813 L 70.40625 149.929688 L 64.90625 148.382813 L 64.953125 147.351563 L 72 149.304688 L 71.9375 150.554688 L 66.0625 151.679688 L 71.828125 153.304688 L 71.78125 154.539063 Z M 65.398438 141.6875 L 66.507813 141.734375 C 66.332031 142.027344 66.195313 142.328125 66.101563 142.640625 C 66 142.953125 65.941406 143.28125 65.929688 143.625 C 65.910156 144.148438 65.984375 144.546875 66.148438 144.828125 C 66.316406 145.101563 66.578125 145.242188 66.929688 145.25 C 67.203125 145.261719 67.414063 145.171875 67.570313 144.984375 C 67.726563 144.796875 67.890625 144.429688 68.054688 143.875 L 68.164063 143.53125 C 68.375 142.792969 68.648438 142.273438 68.992188 141.96875 C 69.328125 141.667969 69.78125 141.53125 70.351563 141.5625 C 71.019531 141.585938 71.535156 141.839844 71.898438 142.328125 C 72.261719 142.820313 72.429688 143.476563 72.398438 144.296875 C 72.375 144.632813 72.320313 144.984375 72.226563 145.359375 C 72.140625 145.726563 72.019531 146.105469 71.851563 146.5 L 70.648438 146.453125 C 70.890625 146.078125 71.070313 145.710938 71.195313 145.34375 C 71.320313 144.96875 71.394531 144.59375 71.414063 144.21875 C 71.4375 143.730469 71.359375 143.351563 71.179688 143.078125 C 71.003906 142.796875 70.742188 142.652344 70.398438 142.640625 C 70.085938 142.632813 69.84375 142.71875 69.664063 142.90625 C 69.476563 143.085938 69.296875 143.496094 69.117188 144.140625 L 69.007813 144.484375 C 68.820313 145.140625 68.566406 145.609375 68.242188 145.890625 C 67.921875 146.164063 67.484375 146.289063 66.929688 146.265625 C 66.265625 146.234375 65.757813 146 65.414063 145.5625 C 65.0625 145.117188 64.898438 144.5 64.929688 143.71875 C 64.953125 143.335938 65.003906 142.96875 65.085938 142.625 C 65.160156 142.28125 65.265625 141.96875 65.398438 141.6875 Z M 65.398438 141.6875 "/>
<path style=" stroke:none;fill-rule:evenodd;fill:rgb(41.960784%,58.039216%,69.019608%);fill-opacity:1;" d="M 59.789063 214.488281 L 60.085938 207.285156 L 61.164063 207.332031 L 61.039063 210.347656 L 69.429688 210.691406 L 69.382813 211.847656 L 60.992188 211.503906 L 60.867188 214.535156 Z M 65.527344 201.121094 L 69.824219 201.292969 L 69.777344 202.339844 L 65.527344 202.167969 C 64.851563 202.136719 64.339844 202.238281 63.996094 202.464844 C 63.652344 202.683594 63.476563 203.027344 63.464844 203.496094 C 63.433594 204.058594 63.617188 204.511719 64.011719 204.855469 C 64.398438 205.199219 64.941406 205.386719 65.636719 205.417969 L 69.652344 205.589844 L 69.605469 206.652344 L 59.746094 206.246094 L 59.792969 205.183594 L 63.652344 205.339844 C 63.238281 205.070313 62.929688 204.761719 62.730469 204.417969 C 62.523438 204.074219 62.429688 203.679688 62.449219 203.230469 C 62.480469 202.503906 62.757813 201.960938 63.277344 201.605469 C 63.800781 201.242188 64.550781 201.082031 65.527344 201.121094 Z M 66.304688 193.5625 L 66.867188 193.578125 L 66.664063 198.421875 C 67.476563 198.402344 68.101563 198.210938 68.539063 197.84375 C 68.96875 197.46875 69.195313 196.933594 69.226563 196.234375 C 69.238281 195.828125 69.195313 195.4375 69.101563 195.0625 C 69.007813 194.679688 68.863281 194.292969 68.664063 193.90625 L 69.773438 193.953125 C 69.929688 194.339844 70.042969 194.734375 70.117188 195.140625 C 70.199219 195.539063 70.234375 195.9375 70.226563 196.34375 C 70.183594 197.367188 69.820313 198.164063 69.132813 198.734375 C 68.445313 199.296875 67.539063 199.558594 66.414063 199.515625 C 65.25 199.464844 64.335938 199.140625 63.679688 198.546875 C 63.015625 197.953125 62.703125 197.179688 62.742188 196.21875 C 62.785156 195.355469 63.125 194.683594 63.757813 194.203125 C 64.394531 193.726563 65.242188 193.511719 66.304688 193.5625 Z M 65.914063 194.609375 C 65.28125 194.578125 64.765625 194.714844 64.367188 195.015625 C 63.960938 195.308594 63.75 195.714844 63.726563 196.234375 C 63.707031 196.828125 63.875 197.308594 64.226563 197.671875 C 64.582031 198.039063 65.09375 198.261719 65.757813 198.34375 Z M 60.902344 187.839844 L 60.964844 186.292969 L 69.042969 182.839844 L 61.121094 182.511719 L 61.167969 181.386719 L 70.636719 181.777344 L 70.574219 183.339844 L 62.496094 186.792969 L 70.417969 187.121094 L 70.371094 188.230469 Z M 67.28125 176.472656 C 67.242188 177.328125 67.324219 177.925781 67.53125 178.269531 C 67.742188 178.605469 68.105469 178.78125 68.625 178.800781 C 69.03125 178.824219 69.367188 178.71875 69.625 178.488281 C 69.875 178.25 70.007813 177.917969 70.015625 177.488281 C 70.046875 176.90625 69.839844 176.433594 69.390625 176.066406 C 68.945313 175.691406 68.339844 175.488281 67.578125 175.457031 L 67.3125 175.441406 Z M 66.875 174.363281 L 70.9375 174.535156 L 70.890625 175.597656 L 69.8125 175.550781 C 70.242188 175.800781 70.546875 176.113281 70.734375 176.488281 C 70.929688 176.855469 71.019531 177.296875 71 177.816406 C 70.96875 178.472656 70.738281 178.984375 70.3125 179.347656 C 69.886719 179.714844 69.335938 179.878906 68.65625 179.847656 C 67.855469 179.816406 67.261719 179.558594 66.875 179.066406 C 66.492188 178.566406 66.320313 177.839844 66.359375 176.878906 L 66.40625 175.410156 L 66.28125 175.410156 C 65.75 175.390625 65.335938 175.53125 65.03125 175.832031 C 64.71875 176.136719 64.554688 176.574219 64.53125 177.144531 C 64.511719 177.511719 64.542969 177.871094 64.625 178.222656 C 64.710938 178.566406 64.84375 178.90625 65.03125 179.238281 L 63.953125 179.191406 C 63.808594 178.796875 63.703125 178.421875 63.640625 178.066406 C 63.570313 177.703125 63.539063 177.347656 63.546875 177.003906 C 63.589844 176.078125 63.886719 175.394531 64.4375 174.957031 C 64.980469 174.519531 65.792969 174.324219 66.875 174.363281 Z M 65.175781 168.414063 C 65.09375 168.53125 65.03125 168.65625 64.988281 168.789063 C 64.949219 168.925781 64.925781 169.078125 64.925781 169.242188 C 64.894531 169.835938 65.089844 170.304688 65.503906 170.648438 C 65.921875 170.984375 66.53125 171.164063 67.332031 171.195313 L 71.082031 171.351563 L 71.035156 172.414063 L 63.925781 172.117188 L 63.972656 171.054688 L 65.082031 171.101563 C 64.65625 170.863281 64.34375 170.566406 64.144531 170.210938 C 63.949219 169.847656 63.859375 169.414063 63.878906 168.914063 C 63.890625 168.84375 63.902344 168.765625 63.910156 168.679688 C 63.921875 168.585938 63.941406 168.484375 63.972656 168.367188 Z M 65.375 163.605469 C 65.292969 163.722656 65.230469 163.847656 65.1875 163.980469 C 65.148438 164.117188 65.125 164.269531 65.125 164.433594 C 65.09375 165.027344 65.289063 165.496094 65.703125 165.839844 C 66.121094 166.175781 66.730469 166.355469 67.53125 166.386719 L 71.28125 166.542969 L 71.234375 167.605469 L 64.125 167.308594 L 64.171875 166.246094 L 65.28125 166.292969 C 64.855469 166.054688 64.542969 165.757813 64.34375 165.402344 C 64.148438 165.039063 64.058594 164.605469 64.078125 164.105469 C 64.089844 164.035156 64.101563 163.957031 64.109375 163.871094 C 64.121094 163.777344 64.140625 163.675781 64.171875 163.558594 Z M 65.25 160.015625 C 65.21875 160.578125 65.445313 161.039063 65.921875 161.390625 C 66.402344 161.734375 67.070313 161.929688 67.921875 161.96875 C 68.777344 162 69.453125 161.867188 69.953125 161.5625 C 70.445313 161.25 70.703125 160.8125 70.734375 160.25 C 70.757813 159.6875 70.527344 159.234375 70.046875 158.890625 C 69.570313 158.539063 68.90625 158.34375 68.0625 158.3125 C 67.21875 158.273438 66.546875 158.40625 66.046875 158.71875 C 65.539063 159.023438 65.273438 159.453125 65.25 160.015625 Z M 64.265625 159.984375 C 64.296875 159.070313 64.65625 158.367188 65.34375 157.875 C 66.023438 157.375 66.945313 157.152344 68.109375 157.203125 C 69.277344 157.246094 70.183594 157.542969 70.828125 158.09375 C 71.460938 158.648438 71.765625 159.382813 71.734375 160.296875 C 71.691406 161.214844 71.335938 161.917969 70.65625 162.40625 C 69.96875 162.898438 69.042969 163.121094 67.875 163.078125 C 66.710938 163.027344 65.808594 162.730469 65.171875 162.1875 C 64.527344 161.636719 64.226563 160.902344 64.265625 159.984375 Z M 64.59375 155.929688 L 64.640625 154.867188 L 70.25 153.789063 L 64.75 152.242188 L 64.796875 151.007813 L 70.40625 149.929688 L 64.90625 148.382813 L 64.953125 147.351563 L 72 149.304688 L 71.9375 150.554688 L 66.0625 151.679688 L 71.828125 153.304688 L 71.78125 154.539063 Z M 65.398438 141.6875 L 66.507813 141.734375 C 66.332031 142.027344 66.195313 142.328125 66.101563 142.640625 C 66 142.953125 65.941406 143.28125 65.929688 143.625 C 65.910156 144.148438 65.984375 144.546875 66.148438 144.828125 C 66.316406 145.101563 66.578125 145.242188 66.929688 145.25 C 67.203125 145.261719 67.414063 145.171875 67.570313 144.984375 C 67.726563 144.796875 67.890625 144.429688 68.054688 143.875 L 68.164063 143.53125 C 68.375 142.792969 68.648438 142.273438 68.992188 141.96875 C 69.328125 141.667969 69.78125 141.53125 70.351563 141.5625 C 71.019531 141.585938 71.535156 141.839844 71.898438 142.328125 C 72.261719 142.820313 72.429688 143.476563 72.398438 144.296875 C 72.375 144.632813 72.320313 144.984375 72.226563 145.359375 C 72.140625 145.726563 72.019531 146.105469 71.851563 146.5 L 70.648438 146.453125 C 70.890625 146.078125 71.070313 145.710938 71.195313 145.34375 C 71.320313 144.96875 71.394531 144.59375 71.414063 144.21875 C 71.4375 143.730469 71.359375 143.351563 71.179688 143.078125 C 71.003906 142.796875 70.742188 142.652344 70.398438 142.640625 C 70.085938 142.632813 69.84375 142.71875 69.664063 142.90625 C 69.476563 143.085938 69.296875 143.496094 69.117188 144.140625 L 69.007813 144.484375 C 68.820313 145.140625 68.566406 145.609375 68.242188 145.890625 C 67.921875 146.164063 67.484375 146.289063 66.929688 146.265625 C 66.265625 146.234375 65.757813 146 65.414063 145.5625 C 65.0625 145.117188 64.898438 144.5 64.929688 143.71875 C 64.953125 143.335938 65.003906 142.96875 65.085938 142.625 C 65.160156 142.28125 65.265625 141.96875 65.398438 141.6875 Z M 65.398438 141.6875 "/>
</g>
</svg>

