<?xml version="1.0" encoding="UTF-8"?>
<svg xmlns="http://www.w3.org/2000/svg" xmlns:xlink="http://www.w3.org/1999/xlink" width="256pt" height="256pt" viewBox="0 0 256 256" version="1.1">
<g id="surface2">
<rect x="0" y="0" width="256" height="256" style="fill:rgb(94.901961%,93.72549%,91.372549%);fill-opacity:1;stroke:none;"/>
<path style="fill:none;stroke-width:6;stroke-linecap:round;stroke-linejoin:round;stroke:rgb(60%,70.196078%,80%);stroke-opacity:1;stroke-miterlimit:10;" d="M -7 223.019531 L 9.628906 212.066406 L 17.816406 180.242188 L 42.566406 167.03125 L 126.121094 159.214844 L 149.011719 142.65625 L 180.457031 138.746094 L 227.539063 163.496094 L 240.378906 166.472656 L 247.636719 153.074219 L 262 150.367188 "/>
<path style="fill:none;stroke-width:8;stroke-linecap:round;stroke-linejoin:round;stroke:rgb(75.686275%,70.980392%,61.568627%);stroke-opacity:1;stroke-miterlimit:10;" d="M 17.457031 229.671875 L 38.542969 187.832031 "/>
<path style="fill:none;stroke-width:8;stroke-linecap:round;stroke-linejoin:round;stroke:rgb(75.686275%,70.980392%,61.568627%);stroke-opacity:1;stroke-miterlimit:10;" d="M 44.492188 264 L 44.8125 260.910156 L 44.160156 235.460938 L 32.300781 229.246094 L 17.457031 229.671875 L 7.390625 230.0625 L -9 233.992188 "/>
<path style="fill:none;stroke-width:8;stroke-linecap:round;stroke-linejoin:round;stroke:rgb(75.686275%,70.980392%,61.568627%);stroke-opacity:1;stroke-miterlimit:10;" d="M -9 152.570313 L -2.582031 149.71875 L 2.542969 147.886719 L 12.890625 143.375 L 18.132813 140.332031 L 19.972656 138.925781 L 33.652344 123.058594 L 37.589844 120.082031 L 51.011719 112.589844 L 69.324219 101.566406 L 76.945313 98.851563 L 80.8125 96.722656 L 84.402344 93.8125 L 88.222656 89.722656 L 96.050781 78.761719 L 103.183594 70.421875 L 104.699219 68.066406 L 105.886719 64.5 L 107.632813 42.90625 L 106.910156 40.027344 L 102.902344 33.585938 L 102.226563 29.757813 L 101.949219 22.429688 L 103.253906 7.050781 L 105.542969 -9 "/>
<path style="fill:none;stroke-width:6;stroke-linecap:round;stroke-linejoin:round;stroke:rgb(100%,100%,100%);stroke-opacity:1;stroke-miterlimit:10;" d="M 17.457031 229.671875 L 38.542969 187.832031 "/>
<path style="fill:none;stroke-width:6;stroke-linecap:round;stroke-linejoin:round;stroke:rgb(100%,100%,100%);stroke-opacity:1;stroke-miterlimit:10;" d="M 44.492188 264 L 44.8125 260.910156 L 44.160156 235.460938 L 32.300781 229.246094 L 17.457031 229.671875 L 7.390625 230.0625 L -9 233.992188 "/>
<path style="fill:none;stroke-width:6;stroke-linecap:round;stroke-linejoin:round;stroke:rgb(100%,100%,100%);stroke-opacity:1;stroke-miterlimit:10;" d="M -9 152.570313 L -2.582031 149.71875 L 2.542969 147.886719 L 12.890625 143.375 L 18.132813 140.332031 L 19.972656 138.925781 L 33.652344 123.058594 L 37.589844 120.082031 L 51.011719 112.589844 L 69.324219 101.566406 L 76.945313 98.851563 L 80.8125 96.722656 L 84.402344 93.8125 L 88.222656 89.722656 L 96.050781 78.761719 L 103.183594 70.421875 L 104.699219 68.066406 L 105.886719 64.5 L 107.632813 42.90625 L 106.910156 40.027344 L 102.902344 33.585938 L 102.226563 29.757813 L 101.949219 22.429688 L 103.253906 7.050781 L 105.542969 -9 "/>
<path style="fill:none;stroke-width:3;stroke-linecap:round;stroke-linejoin:round;stroke:rgb(100%,100%,100%);stroke-opacity:1;stroke-miterlimit:10;" d="M 50.742188 109.277344 L 51.632813 113.386719 L 53.914063 112.042969 Z M 49.726563 108.636719 L 50.679688 108.074219 L 57.117188 113.589844 L 56.242188 114.105469 L 54.632813 112.652344 L 51.820313 114.308594 L 52.304688 116.417969 L 51.414063 116.933594 Z M 58.429688 106.824219 L 56.757813 104.042969 L 57.523438 103.589844 L 61.835938 110.746094 L 61.070313 111.199219 L 60.601563 110.417969 C 60.621094 110.835938 60.554688 111.195313 60.398438 111.496094 C 60.242188 111.789063 59.996094 112.039063 59.664063 112.246094 C 59.101563 112.582031 58.492188 112.605469 57.835938 112.324219 C 57.191406 112.035156 56.625 111.488281 56.132813 110.683594 C 55.644531 109.871094 55.429688 109.113281 55.492188 108.402344 C 55.546875 107.683594 55.851563 107.160156 56.414063 106.824219 C 56.75 106.617188 57.082031 106.519531 57.414063 106.527344 C 57.746094 106.527344 58.085938 106.628906 58.429688 106.824219 Z M 56.929688 110.214844 C 57.304688 110.832031 57.710938 111.246094 58.148438 111.464844 C 58.585938 111.675781 59.007813 111.660156 59.414063 111.417969 C 59.820313 111.167969 60.03125 110.800781 60.054688 110.308594 C 60.074219 109.808594 59.898438 109.253906 59.523438 108.636719 C 59.148438 108.011719 58.734375 107.597656 58.289063 107.386719 C 57.839844 107.167969 57.414063 107.183594 57.007813 107.433594 C 56.601563 107.675781 56.394531 108.042969 56.382813 108.542969 C 56.375 109.035156 56.554688 109.589844 56.929688 110.214844 Z M 60.28125 104.648438 L 61.046875 104.195313 L 64.15625 109.351563 L 63.390625 109.804688 Z M 59.078125 102.648438 L 59.84375 102.195313 L 60.484375 103.257813 L 59.71875 103.710938 Z M 65.824219 102.398438 C 65.699219 102.410156 65.574219 102.429688 65.449219 102.460938 C 65.332031 102.484375 65.21875 102.53125 65.105469 102.601563 C 64.667969 102.863281 64.433594 103.222656 64.402344 103.679688 C 64.363281 104.128906 64.511719 104.644531 64.855469 105.226563 L 66.496094 107.945313 L 65.714844 108.414063 L 62.605469 103.257813 L 63.386719 102.789063 L 63.871094 103.601563 C 63.839844 103.1875 63.910156 102.828125 64.074219 102.523438 C 64.242188 102.210938 64.507813 101.945313 64.871094 101.726563 C 64.925781 101.695313 64.980469 101.664063 65.042969 101.632813 C 65.113281 101.59375 65.191406 101.5625 65.277344 101.539063 Z M 68.503906 100.828125 C 68.078125 101.039063 67.832031 101.390625 67.769531 101.890625 C 67.699219 102.382813 67.816406 102.949219 68.128906 103.59375 C 68.449219 104.242188 68.824219 104.6875 69.253906 104.9375 C 69.691406 105.1875 70.121094 105.210938 70.550781 105 C 70.976563 104.78125 71.222656 104.429688 71.285156 103.9375 C 71.355469 103.449219 71.230469 102.882813 70.910156 102.234375 C 70.597656 101.589844 70.222656 101.140625 69.785156 100.890625 C 69.355469 100.632813 68.929688 100.609375 68.503906 100.828125 Z M 68.128906 100.078125 C 68.824219 99.734375 69.496094 99.714844 70.144531 100.015625 C 70.789063 100.320313 71.324219 100.917969 71.753906 101.8125 C 72.191406 102.6875 72.332031 103.480469 72.175781 104.1875 C 72.027344 104.886719 71.605469 105.40625 70.910156 105.75 C 70.210938 106.09375 69.539063 106.109375 68.894531 105.796875 C 68.257813 105.484375 67.722656 104.890625 67.285156 104.015625 C 66.859375 103.121094 66.71875 102.328125 66.863281 101.640625 C 67.011719 100.945313 67.433594 100.421875 68.128906 100.078125 Z M 76.984375 99.121094 L 78.265625 102.511719 L 77.4375 102.824219 L 76.15625 99.464844 C 75.957031 98.933594 75.710938 98.574219 75.421875 98.386719 C 75.140625 98.191406 74.8125 98.160156 74.4375 98.292969 C 73.988281 98.460938 73.695313 98.753906 73.5625 99.167969 C 73.425781 99.585938 73.460938 100.066406 73.671875 100.605469 L 74.875 103.792969 L 74.015625 104.121094 L 71.890625 98.496094 L 72.75 98.167969 L 73.078125 99.042969 C 73.132813 98.628906 73.257813 98.289063 73.46875 98.027344 C 73.675781 97.769531 73.957031 97.570313 74.3125 97.433594 C 74.882813 97.214844 75.394531 97.246094 75.84375 97.527344 C 76.300781 97.808594 76.679688 98.339844 76.984375 99.121094 Z M 80.789063 95.085938 L 79.023438 92.367188 L 79.773438 91.867188 L 84.335938 98.867188 L 83.585938 99.367188 L 83.085938 98.601563 C 83.125 99.007813 83.074219 99.363281 82.929688 99.664063 C 82.78125 99.96875 82.542969 100.222656 82.210938 100.429688 C 81.65625 100.796875 81.054688 100.847656 80.398438 100.585938 C 79.742188 100.328125 79.15625 99.800781 78.632813 99.007813 C 78.113281 98.21875 77.867188 97.46875 77.898438 96.757813 C 77.929688 96.050781 78.222656 95.515625 78.773438 95.148438 C 79.109375 94.941406 79.441406 94.832031 79.773438 94.820313 C 80.105469 94.800781 80.445313 94.890625 80.789063 95.085938 Z M 79.414063 98.507813 C 79.8125 99.125 80.230469 99.53125 80.679688 99.726563 C 81.125 99.925781 81.546875 99.894531 81.945313 99.632813 C 82.351563 99.375 82.546875 99 82.539063 98.507813 C 82.539063 98.019531 82.339844 97.46875 81.945313 96.851563 C 81.546875 96.25 81.125 95.847656 80.679688 95.648438 C 80.230469 95.441406 79.804688 95.46875 79.398438 95.726563 C 79.003906 95.988281 78.8125 96.367188 78.820313 96.867188 C 78.820313 97.359375 79.019531 97.90625 79.414063 98.507813 Z M 85.96875 93.363281 C 85.460938 93.863281 85.171875 94.28125 85.109375 94.613281 C 85.039063 94.949219 85.15625 95.269531 85.46875 95.582031 C 85.707031 95.832031 85.972656 95.957031 86.265625 95.957031 C 86.554688 95.957031 86.832031 95.832031 87.09375 95.582031 C 87.445313 95.230469 87.59375 94.8125 87.53125 94.332031 C 87.46875 93.84375 87.21875 93.371094 86.78125 92.910156 L 86.609375 92.738281 Z M 86.96875 91.832031 L 89.375 94.285156 L 88.734375 94.910156 L 88.09375 94.269531 C 88.207031 94.675781 88.210938 95.046875 88.109375 95.378906 C 88.015625 95.714844 87.8125 96.03125 87.5 96.332031 C 87.101563 96.71875 86.664063 96.90625 86.1875 96.894531 C 85.71875 96.875 85.28125 96.65625 84.875 96.238281 C 84.398438 95.75 84.183594 95.246094 84.234375 94.722656 C 84.289063 94.191406 84.605469 93.640625 85.1875 93.066406 L 86.078125 92.191406 L 86.015625 92.128906 C 85.691406 91.808594 85.351563 91.652344 84.984375 91.660156 C 84.609375 91.671875 84.246094 91.847656 83.890625 92.191406 C 83.671875 92.402344 83.492188 92.640625 83.34375 92.910156 C 83.199219 93.183594 83.085938 93.46875 83 93.769531 L 82.359375 93.128906 C 82.507813 92.796875 82.664063 92.5 82.828125 92.238281 C 82.984375 91.96875 83.167969 91.730469 83.375 91.519531 C 83.9375 90.980469 84.523438 90.734375 85.125 90.785156 C 85.71875 90.828125 86.332031 91.175781 86.96875 91.832031 Z M 88.742188 85.902344 L 89.476563 86.464844 C 89.195313 86.570313 88.953125 86.699219 88.742188 86.855469 C 88.523438 87.003906 88.332031 87.179688 88.164063 87.386719 C 87.8125 87.847656 87.703125 88.324219 87.835938 88.824219 C 87.960938 89.324219 88.316406 89.804688 88.898438 90.261719 C 89.472656 90.710938 90.015625 90.929688 90.523438 90.917969 C 91.042969 90.910156 91.480469 90.675781 91.835938 90.214844 C 92 90.007813 92.132813 89.785156 92.226563 89.542969 C 92.320313 89.304688 92.382813 89.035156 92.414063 88.730469 L 93.132813 89.292969 C 93.078125 89.574219 92.996094 89.839844 92.882813 90.089844 C 92.777344 90.339844 92.636719 90.582031 92.460938 90.808594 C 91.960938 91.457031 91.335938 91.800781 90.585938 91.839844 C 89.847656 91.871094 89.09375 91.589844 88.320313 90.996094 C 87.539063 90.394531 87.078125 89.730469 86.929688 89.011719 C 86.785156 88.292969 86.972656 87.597656 87.492188 86.917969 C 87.648438 86.710938 87.835938 86.519531 88.054688 86.339844 C 88.265625 86.164063 88.492188 86.019531 88.742188 85.902344 Z M 87.484375 83.269531 L 88.015625 82.519531 L 92.03125 85.394531 L 91.46875 81.722656 L 92.125 80.800781 L 92.734375 84.769531 L 97.078125 84.207031 L 96.40625 85.144531 L 92.421875 85.675781 L 94.8125 87.378906 L 94.28125 88.128906 Z M 94.53125 75.792969 L 96.828125 77.730469 L 97.609375 76.792969 C 97.914063 76.449219 98.042969 76.097656 98 75.730469 C 97.960938 75.367188 97.757813 75.035156 97.390625 74.730469 C 97.027344 74.417969 96.667969 74.277344 96.3125 74.308594 C 95.949219 74.332031 95.617188 74.511719 95.3125 74.855469 Z M 93.21875 75.964844 L 94.625 74.277344 C 95.15625 73.664063 95.710938 73.332031 96.28125 73.277344 C 96.855469 73.226563 97.4375 73.449219 98.03125 73.949219 C 98.636719 74.460938 98.960938 75.007813 99.015625 75.589844 C 99.066406 76.164063 98.828125 76.757813 98.296875 77.371094 L 97.515625 78.308594 L 99.984375 80.371094 L 99.359375 81.121094 Z M 102.425781 72.753906 C 101.957031 73.308594 101.707031 73.75 101.675781 74.082031 C 101.644531 74.40625 101.796875 74.707031 102.128906 74.988281 C 102.390625 75.21875 102.664063 75.324219 102.957031 75.300781 C 103.257813 75.269531 103.523438 75.121094 103.753906 74.847656 C 104.074219 74.464844 104.179688 74.03125 104.066406 73.550781 C 103.960938 73.074219 103.664063 72.628906 103.175781 72.222656 L 102.988281 72.066406 Z M 103.269531 71.128906 L 105.894531 73.332031 L 105.316406 74.019531 L 104.628906 73.441406 C 104.761719 73.828125 104.800781 74.191406 104.738281 74.535156 C 104.683594 74.878906 104.519531 75.21875 104.238281 75.550781 C 103.882813 75.980469 103.464844 76.207031 102.988281 76.238281 C 102.511719 76.269531 102.046875 76.097656 101.597656 75.722656 C 101.078125 75.285156 100.824219 74.800781 100.832031 74.269531 C 100.832031 73.738281 101.09375 73.160156 101.613281 72.535156 L 102.410156 71.582031 L 102.332031 71.519531 C 101.988281 71.230469 101.636719 71.109375 101.269531 71.160156 C 100.90625 71.203125 100.566406 71.410156 100.253906 71.785156 C 100.058594 72.015625 99.894531 72.269531 99.769531 72.550781 C 99.636719 72.832031 99.546875 73.128906 99.503906 73.441406 L 98.816406 72.863281 C 98.910156 72.511719 99.03125 72.199219 99.175781 71.925781 C 99.3125 71.65625 99.472656 71.40625 99.660156 71.175781 C 100.171875 70.582031 100.722656 70.28125 101.316406 70.269531 C 101.910156 70.25 102.5625 70.535156 103.269531 71.128906 Z M 104.261719 65.960938 C 104.167969 66.023438 104.082031 66.101563 103.996094 66.195313 C 103.914063 66.289063 103.839844 66.394531 103.777344 66.507813 C 103.550781 66.96875 103.539063 67.398438 103.746094 67.804688 C 103.945313 68.203125 104.347656 68.550781 104.949219 68.851563 L 107.777344 70.289063 L 107.371094 71.101563 L 102.011719 68.382813 L 102.417969 67.570313 L 103.246094 67.992188 C 103.007813 67.660156 102.878906 67.328125 102.855469 66.992188 C 102.835938 66.648438 102.925781 66.285156 103.121094 65.898438 C 103.144531 65.847656 103.175781 65.785156 103.214844 65.710938 C 103.257813 65.640625 103.304688 65.570313 103.355469 65.507813 Z M 101.085938 64.882813 L 101.226563 63.992188 L 106.085938 64.820313 L 103.976563 61.757813 L 104.164063 60.632813 L 106.460938 63.945313 L 110.117188 61.539063 L 109.929688 62.679688 L 106.570313 64.898438 L 109.460938 65.398438 L 109.320313 66.289063 Z M 101.085938 64.882813 "/>
<path style=" stroke:none;fill-rule:evenodd;fill:rgb(20%,20%,20%);fill-opacity:1;" d="M 50.742188 109.277344 L 51.632813 113.386719 L 53.914063 112.042969 Z M 49.726563 108.636719 L 50.679688 108.074219 L 57.117188 113.589844 L 56.242188 114.105469 L 54.632813 112.652344 L 51.820313 114.308594 L 52.304688 116.417969 L 51.414063 116.933594 Z M 58.429688 106.824219 L 56.757813 104.042969 L 57.523438 103.589844 L 61.835938 110.746094 L 61.070313 111.199219 L 60.601563 110.417969 C 60.621094 110.835938 60.554688 111.195313 60.398438 111.496094 C 60.242188 111.789063 59.996094 112.039063 59.664063 112.246094 C 59.101563 112.582031 58.492188 112.605469 57.835938 112.324219 C 57.191406 112.035156 56.625 111.488281 56.132813 110.683594 C 55.644531 109.871094 55.429688 109.113281 55.492188 108.402344 C 55.546875 107.683594 55.851563 107.160156 56.414063 106.824219 C 56.75 106.617188 57.082031 106.519531 57.414063 106.527344 C 57.746094 106.527344 58.085938 106.628906 58.429688 106.824219 Z M 56.929688 110.214844 C 57.304688 110.832031 57.710938 111.246094 58.148438 111.464844 C 58.585938 111.675781 59.007813 111.660156 59.414063 111.417969 C 59.820313 111.167969 60.03125 110.800781 60.054688 110.308594 C 60.074219 109.808594 59.898438 109.253906 59.523438 108.636719 C 59.148438 108.011719 58.734375 107.597656 58.289063 107.386719 C 57.839844 107.167969 57.414063 107.183594 57.007813 107.433594 C 56.601563 107.675781 56.394531 108.042969 56.382813 108.542969 C 56.375 109.035156 56.554688 109.589844 56.929688 110.214844 Z M 60.28125 104.648438 L 61.046875 104.195313 L 64.15625 109.351563 L 63.390625 109.804688 Z M 59.078125 102.648438 L 59.84375 102.195313 L 60.484375 103.257813 L 59.71875 103.710938 Z M 65.824219 102.398438 C 65.699219 102.410156 65.574219 102.429688 65.449219 102.460938 C 65.332031 102.484375 65.21875 102.53125 65.105469 102.601563 C 64.667969 102.863281 64.433594 103.222656 64.402344 103.679688 C 64.363281 104.128906 64.511719 104.644531 64.855469 105.226563 L 66.496094 107.945313 L 65.714844 108.414063 L 62.605469 103.257813 L 63.386719 102.789063 L 63.871094 103.601563 C 63.839844 103.1875 63.910156 102.828125 64.074219 102.523438 C 64.242188 102.210938 64.507813 101.945313 64.871094 101.726563 C 64.925781 101.695313 64.980469 101.664063 65.042969 101.632813 C 65.113281 101.59375 65.191406 101.5625 65.277344 101.539063 Z M 68.503906 100.828125 C 68.078125 101.039063 67.832031 101.390625 67.769531 101.890625 C 67.699219 102.382813 67.816406 102.949219 68.128906 103.59375 C 68.449219 104.242188 68.824219 104.6875 69.253906 104.9375 C 69.691406 105.1875 70.121094 105.210938 70.550781 105 C 70.976563 104.78125 71.222656 104.429688 71.285156 103.9375 C 71.355469 103.449219 71.230469 102.882813 70.910156 102.234375 C 70.597656 101.589844 70.222656 101.140625 69.785156 100.890625 C 69.355469 100.632813 68.929688 100.609375 68.503906 100.828125 Z M 68.128906 100.078125 C 68.824219 99.734375 69.496094 99.714844 70.144531 100.015625 C 70.789063 100.320313 71.324219 100.917969 71.753906 101.8125 C 72.191406 102.6875 72.332031 103.480469 72.175781 104.1875 C 72.027344 104.886719 71.605469 105.40625 70.910156 105.75 C 70.210938 106.09375 69.539063 106.109375 68.894531 105.796875 C 68.257813 105.484375 67.722656 104.890625 67.285156 104.015625 C 66.859375 103.121094 66.71875 102.328125 66.863281 101.640625 C 67.011719 100.945313 67.433594 100.421875 68.128906 100.078125 Z M 76.984375 99.121094 L 78.265625 102.511719 L 77.4375 102.824219 L 76.15625 99.464844 C 75.957031 98.933594 75.710938 98.574219 75.421875 98.386719 C 75.140625 98.191406 74.8125 98.160156 74.4375 98.292969 C 73.988281 98.460938 73.695313 98.753906 73.5625 99.167969 C 73.425781 99.585938 73.460938 100.066406 73.671875 100.605469 L 74.875 103.792969 L 74.015625 104.121094 L 71.890625 98.496094 L 72.75 98.167969 L 73.078125 99.042969 C 73.132813 98.628906 73.257813 98.289063 73.46875 98.027344 C 73.675781 97.769531 73.957031 97.570313 74.3125 97.433594 C 74.882813 97.214844 75.394531 97.246094 75.84375 97.527344 C 76.300781 97.808594 76.679688 98.339844 76.984375 99.121094 Z M 80.789063 95.085938 L 79.023438 92.367188 L 79.773438 91.867188 L 84.335938 98.867188 L 83.585938 99.367188 L 83.085938 98.601563 C 83.125 99.007813 83.074219 99.363281 82.929688 99.664063 C 82.78125 99.96875 82.542969 100.222656 82.210938 100.429688 C 81.65625 100.796875 81.054688 100.847656 80.398438 100.585938 C 79.742188 100.328125 79.15625 99.800781 78.632813 99.007813 C 78.113281 98.21875 77.867188 97.46875 77.898438 96.757813 C 77.929688 96.050781 78.222656 95.515625 78.773438 95.148438 C 79.109375 94.941406 79.441406 94.832031 79.773438 94.820313 C 80.105469 94.800781 80.445313 94.890625 80.789063 95.085938 Z M 79.414063 98.507813 C 79.8125 99.125 80.230469 99.53125 80.679688 99.726563 C 81.125 99.925781 81.546875 99.894531 81.945313 99.632813 C 82.351563 99.375 82.546875 99 82.539063 98.507813 C 82.539063 98.019531 82.339844 97.46875 81.945313 96.851563 C 81.546875 96.25 81.125 95.847656 80.679688 95.648438 C 80.230469 95.441406 79.804688 95.46875 79.398438 95.726563 C 79.003906 95.988281 78.8125 96.367188 78.820313 96.867188 C 78.820313 97.359375 79.019531 97.90625 79.414063 98.507813 Z M 85.96875 93.363281 C 85.460938 93.863281 85.171875 94.28125 85.109375 94.613281 C 85.039063 94.949219 85.15625 95.269531 85.46875 95.582031 C 85.707031 95.832031 85.972656 95.957031 86.265625 95.957031 C 86.554688 95.957031 86.832031 95.832031 87.09375 95.582031 C 87.445313 95.230469 87.59375 94.8125 87.53125 94.332031 C 87.46875 93.84375 87.21875 93.371094 86.78125 92.910156 L 86.609375 92.738281 Z M 86.96875 91.832031 L 89.375 94.285156 L 88.734375 94.910156 L 88.09375 94.269531 C 88.207031 94.675781 88.210938 95.046875 88.109375 95.378906 C 88.015625 95.714844 87.8125 96.03125 87.5 96.332031 C 87.101563 96.71875 86.664063 96.90625 86.1875 96.894531 C 85.71875 96.875 85.28125 96.65625 84.875 96.238281 C 84.398438 95.75 84.183594 95.246094 84.234375 94.722656 C 84.289063 94.191406 84.605469 93.640625 85.1875 93.066406 L 86.078125 92.191406 L 86.015625 92.128906 C 85.691406 91.808594 85.351563 91.652344 84.984375 91.660156 C 84.609375 91.671875 84.246094 91.847656 83.890625 92.191406 C 83.671875 92.402344 83.492188 92.640625 83.34375 92.910156 C 83.199219 93.183594 83.085938 93.46875 83 93.769531 L 82.359375 93.128906 C 82.507813 92.796875 82.664063 92.5 82.828125 92.238281 C 82.984375 91.96875 83.167969 91.730469 83.375 91.519531 C 83.9375 90.980469 84.523438 90.734375 85.125 90.785156 C 85.71875 90.828125 86.332031 91.175781 86.96875 91.832031 Z M 88.742188 85.902344 L 89.476563 86.464844 C 89.195313 86.570313 88.953125 86.699219 88.742188 86.855469 C 88.523438 87.003906 88.332031 87.179688 88.164063 87.386719 C 87.8125 87.847656 87.703125 88.324219 87.835938 88.824219 C 87.960938 89.324219 88.316406 89.804688 88.898438 90.261719 C 89.472656 90.710938 90.015625 90.929688 90.523438 90.917969 C 91.042969 90.910156 91.480469 90.675781 91.835938 90.214844 C 92 90.007813 92.132813 89.785156 92.226563 89.542969 C 92.320313 89.304688 92.382813 89.035156 92.414063 88.730469 L 93.132813 89.292969 C 93.078125 89.574219 92.996094 89.839844 92.882813 90.089844 C 92.777344 90.339844 92.636719 90.582031 92.460938 90.808594 C 91.960938 91.457031 91.335938 91.800781 90.585938 91.839844 C 89.847656 91.871094 89.09375 91.589844 88.320313 90.996094 C 87.539063 90.394531 87.078125 89.730469 86.929688 89.011719 C 86.785156 88.292969 86.972656 87.597656 87.492188 86.917969 C 87.648438 86.710938 87.835938 86.519531 88.054688 86.339844 C 88.265625 86.164063 88.492188 86.019531 88.742188 85.902344 Z M 87.484375 83.269531 L 88.015625 82.519531 L 92.03125 85.394531 L 91.46875 81.722656 L 92.125 80.800781 L 92.734375 84.769531 L 97.078125 84.207031 L 96.40625 85.144531 L 92.421875 85.675781 L 94.8125 87.378906 L 94.28125 88.128906 Z M 94.53125 75.792969 L 96.828125 77.730469 L 97.609375 76.792969 C 97.914063 76.449219 98.042969 76.097656 98 75.730469 C 97.960938 75.367188 97.757813 75.035156 97.390625 74.730469 C 97.027344 74.417969 96.667969 74.277344 96.3125 74.308594 C 95.949219 74.332031 95.617188 74.511719 95.3125 74.855469 Z M 93.21875 75.964844 L 94.625 74.277344 C 95.15625 73.664063 95.710938 73.332031 96.28125 73.277344 C 96.855469 73.226563 97.4375 73.449219 98.03125 73.949219 C 98.636719 74.460938 98.960938 75.007813 99.015625 75.589844 C 99.066406 76.164063 98.828125 76.757813 98.296875 77.371094 L 97.515625 78.308594 L 99.984375 80.371094 L 99.359375 81.121094 Z M 102.425781 72.753906 C 101.957031 73.308594 101.707031 73.75 101.675781 74.082031 C 101.644531 74.40625 101.796875 74.707031 102.128906 74.988281 C 102.390625 75.21875 102.664063 75.324219 102.957031 75.300781 C 103.257813 75.269531 103.523438 75.121094 103.753906 74.847656 C 104.074219 74.464844 104.179688 74.03125 104.066406 73.550781 C 103.960938 73.074219 103.664063 72.628906 103.175781 72.222656 L 102.988281 72.066406 Z M 103.269531 71.128906 L 105.894531 73.332031 L 105.316406 74.019531 L 104.628906 73.441406 C 104.761719 73.828125 104.800781 74.191406 104.738281 74.535156 C 104.683594 74.878906 104.519531 75.21875 104.238281 75.550781 C 103.882813 75.980469 103.464844 76.207031 102.988281 76.238281 C 102.511719 76.269531 102.046875 76.097656 101.597656 75.722656 C 101.078125 75.285156 100.824219 74.800781 100.832031 74.269531 C 100.832031 73.738281 101.09375 73.160156 101.613281 72.535156 L 102.410156 71.582031 L 102.332031 71.519531 C 101.988281 71.230469 101.636719 71.109375 101.269531 71.160156 C 100.90625 71.203125 100.566406 71.410156 100.253906 71.785156 C 100.058594 72.015625 99.894531 72.269531 99.769531 72.550781 C 99.636719 72.832031 99.546875 73.128906 99.503906 73.441406 L 98.816406 72.863281 C 98.910156 72.511719 99.03125 72.199219 99.175781 71.925781 C 99.3125 71.65625 99.472656 71.40625 99.660156 71.175781 C 100.171875 70.582031 100.722656 70.28125 101.316406 70.269531 C 101.910156 70.25 102.5625 70.535156 103.269531 71.128906 Z M 104.261719 65.960938 C 104.167969 66.023438 104.082031 66.101563 103.996094 66.195313 C 103.914063 66.289063 103.839844 66.394531 103.777344 66.507813 C 103.550781 66.96875 103.539063 67.398438 103.746094 67.804688 C 103.945313 68.203125 104.347656 68.550781 104.949219 68.851563 L 107.777344 70.289063 L 107.371094 71.101563 L 102.011719 68.382813 L 102.417969 67.570313 L 103.246094 67.992188 C 103.007813 67.660156 102.878906 67.328125 102.855469 66.992188 C 102.835938 66.648438 102.925781 66.285156 103.121094 65.898438 C 103.144531 65.847656 103.175781 65.785156 103.214844 65.710938 C 103.257813 65.640625 103.304688 65.570313 103.355469 65.507813 Z M 101.085938 64.882813 L 101.226563 63.992188 L 106.085938 64.820313 L 103.976563 61.757813 L 104.164063 60.632813 L 106.460938 63.945313 L 110.117188 61.539063 L 109.929688 62.679688 L 106.570313 64.898438 L 109.460938 65.398438 L 109.320313 66.289063 Z M 101.085938 64.882813 "/>
</g>
</svg>

