<?xml version="1.0" encoding="UTF-8"?>
<svg xmlns="http://www.w3.org/2000/svg" xmlns:xlink="http://www.w3.org/1999/xlink" width="256pt" height="256pt" viewBox="0 0 256 256" version="1.1">
<g id="surface2">
<rect x="0" y="0" width="256" height="256" style="fill:rgb(94.901961%,93.72549%,91.372549%);fill-opacity:1;stroke:none;"/>
<path style="fill:none;stroke-width:8;stroke-linecap:round;stroke-linejoin:round;stroke:rgb(75.686275%,70.980392%,61.568627%);stroke-opacity:1;stroke-miterlimit:10;" d="M 39.558594 264 L 44.9375 225.921875 L 49.386719 198.449219 L 54.46875 176.390625 L 60.574219 140.546875 L 64.953125 109.5625 L 69.941406 72.863281 L 69.917969 69.515625 L 68.566406 66.691406 L 66.164063 64.625 L 64.066406 63.933594 L 61.15625 63.671875 L 50.574219 65.410156 "/>
<path style="fill:none;stroke-width:8;stroke-linecap:round;stroke-linejoin:round;stroke:rgb(75.686275%,70.980392%,61.568627%);stroke-opacity:1;stroke-miterlimit:10;" d="M -9 75.273438 L 24.710938 70.464844 L 41.90625 67.28125 L 50.574219 65.410156 "/>
<path style="fill:none;stroke-width:8;stroke-linecap:round;stroke-linejoin:round;stroke:rgb(75.686275%,70.980392%,61.568627%);stroke-opacity:1;stroke-miterlimit:10;" d="M 50.574219 65.410156 L 46.941406 43.285156 L 40.664063 -9 "/>
<path style="fill:none;stroke-width:6;stroke-linecap:round;stroke-linejoin:round;stroke:rgb(100%,100%,100%);stroke-opacity:1;stroke-miterlimit:10;" d="M 39.558594 264 L 44.9375 225.921875 L 49.386719 198.449219 L 54.46875 176.390625 L 60.574219 140.546875 L 64.953125 109.5625 L 69.941406 72.863281 L 69.917969 69.515625 L 68.566406 66.691406 L 66.164063 64.625 L 64.066406 63.933594 L 61.15625 63.671875 L 50.574219 65.410156 "/>
<path style="fill:none;stroke-width:6;stroke-linecap:round;stroke-linejoin:round;stroke:rgb(100%,100%,100%);stroke-opacity:1;stroke-miterlimit:10;" d="M -9 75.273438 L 24.710938 70.464844 L 41.90625 67.28125 L 50.574219 65.410156 "/>
<path style="fill:none;stroke-width:6;stroke-linecap:round;stroke-linejoin:round;stroke:rgb(100%,100%,100%);stroke-opacity:1;stroke-miterlimit:10;" d="M 50.574219 65.410156 L 46.941406 43.285156 L 40.664063 -9 "/>
<path style="fill:none;stroke-width:3;stroke-linecap:round;stroke-linejoin:round;stroke:rgb(100%,100%,100%);stroke-opacity:1;stroke-miterlimit:10;" d="M 52.054688 187.601563 L 54.914063 188.257813 L 55.257813 186.742188 C 55.382813 186.234375 55.359375 185.828125 55.195313 185.523438 C 55.019531 185.222656 54.6875 185.015625 54.195313 184.898438 C 53.707031 184.785156 53.316406 184.828125 53.023438 185.023438 C 52.734375 185.222656 52.523438 185.578125 52.398438 186.085938 Z M 48.851563 186.867188 L 51.210938 187.398438 L 51.539063 186.007813 C 51.644531 185.539063 51.625 185.171875 51.476563 184.898438 C 51.332031 184.628906 51.0625 184.445313 50.664063 184.351563 C 50.269531 184.257813 49.953125 184.304688 49.710938 184.492188 C 49.460938 184.679688 49.285156 185.007813 49.179688 185.476563 Z M 47.757813 187.632813 L 48.320313 185.195313 C 48.488281 184.46875 48.785156 183.945313 49.210938 183.632813 C 49.628906 183.3125 50.148438 183.21875 50.773438 183.351563 C 51.253906 183.46875 51.609375 183.660156 51.835938 183.929688 C 52.066406 184.191406 52.175781 184.523438 52.164063 184.929688 C 52.382813 184.492188 52.703125 184.1875 53.117188 184.007813 C 53.535156 183.832031 54.007813 183.804688 54.539063 183.929688 C 55.238281 184.085938 55.726563 184.425781 56.007813 184.945313 C 56.289063 185.457031 56.335938 186.109375 56.148438 186.898438 L 55.570313 189.429688 Z M 48.941406 180.964844 L 49.144531 180.089844 L 57.285156 181.964844 L 57.082031 182.839844 Z M 55.230469 177.046875 C 55.085938 177.746094 55.074219 178.25 55.199219 178.5625 C 55.324219 178.875 55.601563 179.074219 56.027344 179.15625 C 56.371094 179.230469 56.667969 179.1875 56.917969 179.03125 C 57.167969 178.867188 57.324219 178.609375 57.386719 178.265625 C 57.492188 177.777344 57.382813 177.351563 57.058594 176.984375 C 56.738281 176.609375 56.269531 176.355469 55.652344 176.21875 L 55.417969 176.171875 Z M 55.214844 175.21875 L 58.574219 175.921875 L 58.386719 176.796875 L 57.496094 176.609375 C 57.808594 176.882813 58.015625 177.183594 58.121094 177.515625 C 58.234375 177.851563 58.246094 178.230469 58.152344 178.65625 C 58.046875 179.199219 57.792969 179.601563 57.386719 179.859375 C 56.980469 180.109375 56.492188 180.171875 55.917969 180.046875 C 55.261719 179.914063 54.808594 179.609375 54.558594 179.140625 C 54.300781 178.664063 54.253906 178.027344 54.417969 177.234375 L 54.667969 176.015625 L 54.574219 176 C 54.128906 175.90625 53.753906 175.96875 53.449219 176.1875 C 53.148438 176.398438 52.949219 176.742188 52.855469 177.21875 C 52.792969 177.511719 52.773438 177.8125 52.792969 178.125 C 52.816406 178.4375 52.882813 178.742188 52.996094 179.03125 L 52.105469 178.84375 C 52.023438 178.492188 51.980469 178.164063 51.980469 177.859375 C 51.972656 177.546875 51.996094 177.25 52.058594 176.96875 C 52.214844 176.199219 52.554688 175.667969 53.074219 175.375 C 53.597656 175.085938 54.308594 175.03125 55.214844 175.21875 Z M 56.105469 168.9375 L 59.683594 169.546875 L 59.542969 170.421875 L 55.996094 169.8125 C 55.433594 169.71875 54.996094 169.75 54.683594 169.90625 C 54.371094 170.0625 54.183594 170.335938 54.121094 170.71875 C 54.039063 171.1875 54.144531 171.589844 54.433594 171.921875 C 54.714844 172.257813 55.144531 172.46875 55.714844 172.5625 L 59.074219 173.140625 L 58.933594 174.03125 L 52.996094 173.015625 L 53.136719 172.125 L 54.074219 172.28125 C 53.753906 172.023438 53.527344 171.734375 53.402344 171.421875 C 53.277344 171.109375 53.246094 170.761719 53.308594 170.375 C 53.414063 169.773438 53.699219 169.351563 54.167969 169.109375 C 54.636719 168.859375 55.285156 168.804688 56.105469 168.9375 Z M 54.941406 162.980469 L 55.847656 163.136719 C 55.660156 163.355469 55.511719 163.585938 55.394531 163.824219 C 55.269531 164.054688 55.1875 164.300781 55.144531 164.558594 C 55.042969 165.132813 55.167969 165.613281 55.519531 165.996094 C 55.863281 166.371094 56.402344 166.621094 57.128906 166.746094 C 57.847656 166.871094 58.4375 166.816406 58.894531 166.574219 C 59.34375 166.324219 59.621094 165.914063 59.722656 165.339844 C 59.765625 165.082031 59.769531 164.820313 59.738281 164.558594 C 59.707031 164.300781 59.636719 164.035156 59.519531 163.761719 L 60.410156 163.902344 C 60.503906 164.183594 60.554688 164.460938 60.566406 164.730469 C 60.585938 165.003906 60.574219 165.285156 60.535156 165.574219 C 60.386719 166.386719 59.996094 166.980469 59.363281 167.355469 C 58.71875 167.722656 57.921875 167.824219 56.972656 167.667969 C 56.003906 167.503906 55.285156 167.136719 54.816406 166.574219 C 54.339844 166.003906 54.171875 165.300781 54.316406 164.464844 C 54.359375 164.195313 54.433594 163.933594 54.535156 163.683594 C 54.640625 163.433594 54.777344 163.199219 54.941406 162.980469 Z M 58.074219 157.382813 L 61.652344 157.992188 L 61.511719 158.867188 L 57.964844 158.257813 C 57.402344 158.164063 56.964844 158.195313 56.652344 158.351563 C 56.339844 158.507813 56.152344 158.78125 56.089844 159.164063 C 56.007813 159.632813 56.113281 160.035156 56.402344 160.367188 C 56.683594 160.703125 57.113281 160.914063 57.683594 161.007813 L 61.042969 161.585938 L 60.902344 162.476563 L 52.667969 161.070313 L 52.808594 160.179688 L 56.042969 160.726563 C 55.722656 160.46875 55.496094 160.179688 55.371094 159.867188 C 55.246094 159.554688 55.214844 159.207031 55.277344 158.820313 C 55.382813 158.21875 55.667969 157.796875 56.136719 157.554688 C 56.605469 157.304688 57.253906 157.25 58.074219 157.382813 Z M 59.535156 151.128906 L 60.019531 151.207031 L 59.332031 155.238281 C 60 155.3125 60.535156 155.21875 60.941406 154.957031 C 61.347656 154.6875 61.605469 154.265625 61.707031 153.691406 C 61.761719 153.359375 61.765625 153.027344 61.722656 152.691406 C 61.683594 152.359375 61.605469 152.019531 61.488281 151.675781 L 62.394531 151.832031 C 62.488281 152.167969 62.542969 152.511719 62.566406 152.863281 C 62.597656 153.207031 62.582031 153.546875 62.519531 153.878906 C 62.371094 154.734375 61.980469 155.363281 61.347656 155.769531 C 60.714844 156.167969 59.925781 156.28125 58.988281 156.113281 C 58.019531 155.949219 57.292969 155.582031 56.800781 155.019531 C 56.3125 154.457031 56.136719 153.777344 56.269531 152.972656 C 56.394531 152.253906 56.75 151.734375 57.332031 151.410156 C 57.917969 151.078125 58.652344 150.984375 59.535156 151.128906 Z M 59.082031 151.957031 C 58.550781 151.875 58.109375 151.9375 57.753906 152.144531 C 57.390625 152.355469 57.171875 152.671875 57.097656 153.097656 C 57.015625 153.589844 57.105469 154.011719 57.363281 154.363281 C 57.613281 154.707031 58.011719 154.949219 58.550781 155.082031 Z M 60.367188 143.105469 C 60.492188 142.910156 60.703125 142.738281 60.992188 142.589844 C 61.273438 142.433594 61.65625 142.289063 62.132813 142.152344 L 64.460938 141.558594 L 64.289063 142.589844 L 62.101563 143.152344 C 61.539063 143.300781 61.15625 143.472656 60.945313 143.667969 C 60.726563 143.855469 60.582031 144.144531 60.507813 144.527344 L 60.335938 145.574219 L 63.679688 146.136719 L 63.507813 147.105469 L 55.601563 145.761719 L 55.976563 143.589844 C 56.125 142.769531 56.414063 142.191406 56.851563 141.855469 C 57.289063 141.523438 57.894531 141.425781 58.664063 141.558594 C 59.164063 141.644531 59.566406 141.820313 59.867188 142.089844 C 60.160156 142.351563 60.328125 142.691406 60.367188 143.105469 Z M 56.648438 144.933594 L 59.460938 145.417969 L 59.664063 144.214844 C 59.75 143.746094 59.695313 143.371094 59.507813 143.089844 C 59.3125 142.808594 58.976563 142.632813 58.507813 142.558594 C 58.050781 142.476563 57.679688 142.535156 57.398438 142.730469 C 57.117188 142.929688 56.9375 143.261719 56.851563 143.730469 Z M 59.664063 137.421875 C 59.601563 137.890625 59.757813 138.292969 60.132813 138.625 C 60.507813 138.960938 61.050781 139.179688 61.757813 139.28125 C 62.46875 139.386719 63.046875 139.328125 63.492188 139.109375 C 63.941406 138.890625 64.195313 138.546875 64.257813 138.078125 C 64.332031 137.601563 64.1875 137.199219 63.820313 136.875 C 63.445313 136.542969 62.90625 136.324219 62.195313 136.21875 C 61.488281 136.117188 60.910156 136.171875 60.460938 136.390625 C 60.003906 136.601563 59.738281 136.945313 59.664063 137.421875 Z M 58.851563 137.3125 C 58.96875 136.554688 59.332031 135.992188 59.945313 135.625 C 60.5625 135.261719 61.359375 135.148438 62.335938 135.28125 C 63.304688 135.417969 64.035156 135.746094 64.523438 136.265625 C 65.023438 136.789063 65.214844 137.429688 65.101563 138.1875 C 64.996094 138.960938 64.636719 139.523438 64.023438 139.875 C 63.398438 140.230469 62.601563 140.339844 61.632813 140.203125 C 60.65625 140.070313 59.921875 139.746094 59.429688 139.234375 C 58.941406 138.726563 58.75 138.085938 58.851563 137.3125 Z M 62.839844 131.402344 C 62.746094 132.113281 62.773438 132.617188 62.917969 132.917969 C 63.066406 133.222656 63.351563 133.402344 63.777344 133.464844 C 64.121094 133.507813 64.414063 133.441406 64.652344 133.261719 C 64.882813 133.085938 65.023438 132.824219 65.074219 132.480469 C 65.136719 131.980469 64.996094 131.558594 64.652344 131.214844 C 64.308594 130.863281 63.824219 130.644531 63.199219 130.558594 L 62.964844 130.527344 Z M 62.683594 129.574219 L 66.089844 130.058594 L 65.964844 130.949219 L 65.074219 130.824219 C 65.40625 131.085938 65.636719 131.378906 65.761719 131.699219 C 65.886719 132.011719 65.921875 132.386719 65.871094 132.824219 C 65.785156 133.367188 65.550781 133.777344 65.167969 134.058594 C 64.785156 134.332031 64.300781 134.425781 63.714844 134.339844 C 63.050781 134.246094 62.574219 133.976563 62.292969 133.527344 C 62.003906 133.082031 61.914063 132.457031 62.027344 131.652344 L 62.199219 130.417969 L 62.105469 130.402344 C 61.660156 130.339844 61.292969 130.425781 61.011719 130.652344 C 60.722656 130.882813 60.539063 131.242188 60.464844 131.730469 C 60.425781 132.023438 60.425781 132.324219 60.464844 132.636719 C 60.507813 132.949219 60.597656 133.253906 60.730469 133.542969 L 59.839844 133.417969 C 59.738281 133.066406 59.675781 132.738281 59.652344 132.433594 C 59.621094 132.121094 59.628906 131.820313 59.667969 131.527344 C 59.785156 130.757813 60.089844 130.210938 60.589844 129.886719 C 61.082031 129.554688 61.777344 129.449219 62.683594 129.574219 Z M 61.78125 124.007813 L 58.5625 123.554688 L 58.6875 122.664063 L 66.96875 123.835938 L 66.84375 124.726563 L 65.953125 124.601563 C 66.285156 124.84375 66.515625 125.113281 66.640625 125.414063 C 66.773438 125.71875 66.816406 126.066406 66.765625 126.460938 C 66.671875 127.109375 66.3125 127.597656 65.6875 127.929688 C 65.054688 128.253906 64.265625 128.347656 63.328125 128.210938 C 62.390625 128.078125 61.667969 127.769531 61.15625 127.289063 C 60.636719 126.800781 60.421875 126.234375 60.515625 125.585938 C 60.570313 125.191406 60.703125 124.863281 60.921875 124.601563 C 61.132813 124.34375 61.417969 124.144531 61.78125 124.007813 Z M 63.453125 127.304688 C 64.171875 127.410156 64.757813 127.359375 65.203125 127.148438 C 65.640625 126.941406 65.898438 126.609375 65.96875 126.148438 C 66.03125 125.671875 65.882813 125.269531 65.515625 124.945313 C 65.140625 124.625 64.59375 124.410156 63.875 124.304688 C 63.15625 124.203125 62.574219 124.253906 62.125 124.460938 C 61.679688 124.671875 61.421875 125.015625 61.359375 125.492188 C 61.289063 125.953125 61.4375 126.34375 61.8125 126.664063 C 62.1875 126.988281 62.734375 127.203125 63.453125 127.304688 Z M 63.453125 127.304688 "/>
<path style=" stroke:none;fill-rule:evenodd;fill:rgb(20%,20%,20%);fill-opacity:1;" d="M 52.054688 187.601563 L 54.914063 188.257813 L 55.257813 186.742188 C 55.382813 186.234375 55.359375 185.828125 55.195313 185.523438 C 55.019531 185.222656 54.6875 185.015625 54.195313 184.898438 C 53.707031 184.785156 53.316406 184.828125 53.023438 185.023438 C 52.734375 185.222656 52.523438 185.578125 52.398438 186.085938 Z M 48.851563 186.867188 L 51.210938 187.398438 L 51.539063 186.007813 C 51.644531 185.539063 51.625 185.171875 51.476563 184.898438 C 51.332031 184.628906 51.0625 184.445313 50.664063 184.351563 C 50.269531 184.257813 49.953125 184.304688 49.710938 184.492188 C 49.460938 184.679688 49.285156 185.007813 49.179688 185.476563 Z M 47.757813 187.632813 L 48.320313 185.195313 C 48.488281 184.46875 48.785156 183.945313 49.210938 183.632813 C 49.628906 183.3125 50.148438 183.21875 50.773438 183.351563 C 51.253906 183.46875 51.609375 183.660156 51.835938 183.929688 C 52.066406 184.191406 52.175781 184.523438 52.164063 184.929688 C 52.382813 184.492188 52.703125 184.1875 53.117188 184.007813 C 53.535156 183.832031 54.007813 183.804688 54.539063 183.929688 C 55.238281 184.085938 55.726563 184.425781 56.007813 184.945313 C 56.289063 185.457031 56.335938 186.109375 56.148438 186.898438 L 55.570313 189.429688 Z M 48.941406 180.964844 L 49.144531 180.089844 L 57.285156 181.964844 L 57.082031 182.839844 Z M 55.230469 177.046875 C 55.085938 177.746094 55.074219 178.25 55.199219 178.5625 C 55.324219 178.875 55.601563 179.074219 56.027344 179.15625 C 56.371094 179.230469 56.667969 179.1875 56.917969 179.03125 C 57.167969 178.867188 57.324219 178.609375 57.386719 178.265625 C 57.492188 177.777344 57.382813 177.351563 57.058594 176.984375 C 56.738281 176.609375 56.269531 176.355469 55.652344 176.21875 L 55.417969 176.171875 Z M 55.214844 175.21875 L 58.574219 175.921875 L 58.386719 176.796875 L 57.496094 176.609375 C 57.808594 176.882813 58.015625 177.183594 58.121094 177.515625 C 58.234375 177.851563 58.246094 178.230469 58.152344 178.65625 C 58.046875 179.199219 57.792969 179.601563 57.386719 179.859375 C 56.980469 180.109375 56.492188 180.171875 55.917969 180.046875 C 55.261719 179.914063 54.808594 179.609375 54.558594 179.140625 C 54.300781 178.664063 54.253906 178.027344 54.417969 177.234375 L 54.667969 176.015625 L 54.574219 176 C 54.128906 175.90625 53.753906 175.96875 53.449219 176.1875 C 53.148438 176.398438 52.949219 176.742188 52.855469 177.21875 C 52.792969 177.511719 52.773438 177.8125 52.792969 178.125 C 52.816406 178.4375 52.882813 178.742188 52.996094 179.03125 L 52.105469 178.84375 C 52.023438 178.492188 51.980469 178.164063 51.980469 177.859375 C 51.972656 177.546875 51.996094 177.25 52.058594 176.96875 C 52.214844 176.199219 52.554688 175.667969 53.074219 175.375 C 53.597656 175.085938 54.308594 175.03125 55.214844 175.21875 Z M 56.105469 168.9375 L 59.683594 169.546875 L 59.542969 170.421875 L 55.996094 169.8125 C 55.433594 169.71875 54.996094 169.75 54.683594 169.90625 C 54.371094 170.0625 54.183594 170.335938 54.121094 170.71875 C 54.039063 171.1875 54.144531 171.589844 54.433594 171.921875 C 54.714844 172.257813 55.144531 172.46875 55.714844 172.5625 L 59.074219 173.140625 L 58.933594 174.03125 L 52.996094 173.015625 L 53.136719 172.125 L 54.074219 172.28125 C 53.753906 172.023438 53.527344 171.734375 53.402344 171.421875 C 53.277344 171.109375 53.246094 170.761719 53.308594 170.375 C 53.414063 169.773438 53.699219 169.351563 54.167969 169.109375 C 54.636719 168.859375 55.285156 168.804688 56.105469 168.9375 Z M 54.941406 162.980469 L 55.847656 163.136719 C 55.660156 163.355469 55.511719 163.585938 55.394531 163.824219 C 55.269531 164.054688 55.1875 164.300781 55.144531 164.558594 C 55.042969 165.132813 55.167969 165.613281 55.519531 165.996094 C 55.863281 166.371094 56.402344 166.621094 57.128906 166.746094 C 57.847656 166.871094 58.4375 166.816406 58.894531 166.574219 C 59.34375 166.324219 59.621094 165.914063 59.722656 165.339844 C 59.765625 165.082031 59.769531 164.820313 59.738281 164.558594 C 59.707031 164.300781 59.636719 164.035156 59.519531 163.761719 L 60.410156 163.902344 C 60.503906 164.183594 60.554688 164.460938 60.566406 164.730469 C 60.585938 165.003906 60.574219 165.285156 60.535156 165.574219 C 60.386719 166.386719 59.996094 166.980469 59.363281 167.355469 C 58.71875 167.722656 57.921875 167.824219 56.972656 167.667969 C 56.003906 167.503906 55.285156 167.136719 54.816406 166.574219 C 54.339844 166.003906 54.171875 165.300781 54.316406 164.464844 C 54.359375 164.195313 54.433594 163.933594 54.535156 163.683594 C 54.640625 163.433594 54.777344 163.199219 54.941406 162.980469 Z M 58.074219 157.382813 L 61.652344 157.992188 L 61.511719 158.867188 L 57.964844 158.257813 C 57.402344 158.164063 56.964844 158.195313 56.652344 158.351563 C 56.339844 158.507813 56.152344 158.78125 56.089844 159.164063 C 56.007813 159.632813 56.113281 160.035156 56.402344 160.367188 C 56.683594 160.703125 57.113281 160.914063 57.683594 161.007813 L 61.042969 161.585938 L 60.902344 162.476563 L 52.667969 161.070313 L 52.808594 160.179688 L 56.042969 160.726563 C 55.722656 160.46875 55.496094 160.179688 55.371094 159.867188 C 55.246094 159.554688 55.214844 159.207031 55.277344 158.820313 C 55.382813 158.21875 55.667969 157.796875 56.136719 157.554688 C 56.605469 157.304688 57.253906 157.25 58.074219 157.382813 Z M 59.535156 151.128906 L 60.019531 151.207031 L 59.332031 155.238281 C 60 155.3125 60.535156 155.21875 60.941406 154.957031 C 61.347656 154.6875 61.605469 154.265625 61.707031 153.691406 C 61.761719 153.359375 61.765625 153.027344 61.722656 152.691406 C 61.683594 152.359375 61.605469 152.019531 61.488281 151.675781 L 62.394531 151.832031 C 62.488281 152.167969 62.542969 152.511719 62.566406 152.863281 C 62.597656 153.207031 62.582031 153.546875 62.519531 153.878906 C 62.371094 154.734375 61.980469 155.363281 61.347656 155.769531 C 60.714844 156.167969 59.925781 156.28125 58.988281 156.113281 C 58.019531 155.949219 57.292969 155.582031 56.800781 155.019531 C 56.3125 154.457031 56.136719 153.777344 56.269531 152.972656 C 56.394531 152.253906 56.75 151.734375 57.332031 151.410156 C 57.917969 151.078125 58.652344 150.984375 59.535156 151.128906 Z M 59.082031 151.957031 C 58.550781 151.875 58.109375 151.9375 57.753906 152.144531 C 57.390625 152.355469 57.171875 152.671875 57.097656 153.097656 C 57.015625 153.589844 57.105469 154.011719 57.363281 154.363281 C 57.613281 154.707031 58.011719 154.949219 58.550781 155.082031 Z M 60.367188 143.105469 C 60.492188 142.910156 60.703125 142.738281 60.992188 142.589844 C 61.273438 142.433594 61.65625 142.289063 62.132813 142.152344 L 64.460938 141.558594 L 64.289063 142.589844 L 62.101563 143.152344 C 61.539063 143.300781 61.15625 143.472656 60.945313 143.667969 C 60.726563 143.855469 60.582031 144.144531 60.507813 144.527344 L 60.335938 145.574219 L 63.679688 146.136719 L 63.507813 147.105469 L 55.601563 145.761719 L 55.976563 143.589844 C 56.125 142.769531 56.414063 142.191406 56.851563 141.855469 C 57.289063 141.523438 57.894531 141.425781 58.664063 141.558594 C 59.164063 141.644531 59.566406 141.820313 59.867188 142.089844 C 60.160156 142.351563 60.328125 142.691406 60.367188 143.105469 Z M 56.648438 144.933594 L 59.460938 145.417969 L 59.664063 144.214844 C 59.75 143.746094 59.695313 143.371094 59.507813 143.089844 C 59.3125 142.808594 58.976563 142.632813 58.507813 142.558594 C 58.050781 142.476563 57.679688 142.535156 57.398438 142.730469 C 57.117188 142.929688 56.9375 143.261719 56.851563 143.730469 Z M 59.664063 137.421875 C 59.601563 137.890625 59.757813 138.292969 60.132813 138.625 C 60.507813 138.960938 61.050781 139.179688 61.757813 139.28125 C 62.46875 139.386719 63.046875 139.328125 63.492188 139.109375 C 63.941406 138.890625 64.195313 138.546875 64.257813 138.078125 C 64.332031 137.601563 64.1875 137.199219 63.820313 136.875 C 63.445313 136.542969 62.90625 136.324219 62.195313 136.21875 C 61.488281 136.117188 60.910156 136.171875 60.460938 136.390625 C 60.003906 136.601563 59.738281 136.945313 59.664063 137.421875 Z M 58.851563 137.3125 C 58.96875 136.554688 59.332031 135.992188 59.945313 135.625 C 60.5625 135.261719 61.359375 135.148438 62.335938 135.28125 C 63.304688 135.417969 64.035156 135.746094 64.523438 136.265625 C 65.023438 136.789063 65.214844 137.429688 65.101563 138.1875 C 64.996094 138.960938 64.636719 139.523438 64.023438 139.875 C 63.398438 140.230469 62.601563 140.339844 61.632813 140.203125 C 60.65625 140.070313 59.921875 139.746094 59.429688 139.234375 C 58.941406 138.726563 58.75 138.085938 58.851563 137.3125 Z M 62.839844 131.402344 C 62.746094 132.113281 62.773438 132.617188 62.917969 132.917969 C 63.066406 133.222656 63.351563 133.402344 63.777344 133.464844 C 64.121094 133.507813 64.414063 133.441406 64.652344 133.261719 C 64.882813 133.085938 65.023438 132.824219 65.074219 132.480469 C 65.136719 131.980469 64.996094 131.558594 64.652344 131.214844 C 64.308594 130.863281 63.824219 130.644531 63.199219 130.558594 L 62.964844 130.527344 Z M 62.683594 129.574219 L 66.089844 130.058594 L 65.964844 130.949219 L 65.074219 130.824219 C 65.40625 131.085938 65.636719 131.378906 65.761719 131.699219 C 65.886719 132.011719 65.921875 132.386719 65.871094 132.824219 C 65.785156 133.367188 65.550781 133.777344 65.167969 134.058594 C 64.785156 134.332031 64.300781 134.425781 63.714844 134.339844 C 63.050781 134.246094 62.574219 133.976563 62.292969 133.527344 C 62.003906 133.082031 61.914063 132.457031 62.027344 131.652344 L 62.199219 130.417969 L 62.105469 130.402344 C 61.660156 130.339844 61.292969 130.425781 61.011719 130.652344 C 60.722656 130.882813 60.539063 131.242188 60.464844 131.730469 C 60.425781 132.023438 60.425781 132.324219 60.464844 132.636719 C 60.507813 132.949219 60.597656 133.253906 60.730469 133.542969 L 59.839844 133.417969 C 59.738281 133.066406 59.675781 132.738281 59.652344 132.433594 C 59.621094 132.121094 59.628906 131.820313 59.667969 131.527344 C 59.785156 130.757813 60.089844 130.210938 60.589844 129.886719 C 61.082031 129.554688 61.777344 129.449219 62.683594 129.574219 Z M 61.78125 124.007813 L 58.5625 123.554688 L 58.6875 122.664063 L 66.96875 123.835938 L 66.84375 124.726563 L 65.953125 124.601563 C 66.285156 124.84375 66.515625 125.113281 66.640625 125.414063 C 66.773438 125.71875 66.816406 126.066406 66.765625 126.460938 C 66.671875 127.109375 66.3125 127.597656 65.6875 127.929688 C 65.054688 128.253906 64.265625 128.347656 63.328125 128.210938 C 62.390625 128.078125 61.667969 127.769531 61.15625 127.289063 C 60.636719 126.800781 60.421875 126.234375 60.515625 125.585938 C 60.570313 125.191406 60.703125 124.863281 60.921875 124.601563 C 61.132813 124.34375 61.417969 124.144531 61.78125 124.007813 Z M 63.453125 127.304688 C 64.171875 127.410156 64.757813 127.359375 65.203125 127.148438 C 65.640625 126.941406 65.898438 126.609375 65.96875 126.148438 C 66.03125 125.671875 65.882813 125.269531 65.515625 124.945313 C 65.140625 124.625 64.59375 124.410156 63.875 124.304688 C 63.15625 124.203125 62.574219 124.253906 62.125 124.460938 C 61.679688 124.671875 61.421875 125.015625 61.359375 125.492188 C 61.289063 125.953125 61.4375 126.34375 61.8125 126.664063 C 62.1875 126.988281 62.734375 127.203125 63.453125 127.304688 Z M 63.453125 127.304688 "/>
</g>
</svg>

