<?xml version="1.0" encoding="UTF-8"?>
<svg xmlns="http://www.w3.org/2000/svg" xmlns:xlink="http://www.w3.org/1999/xlink" width="256pt" height="256pt" viewBox="0 0 256 256" version="1.1">
<g id="surface2">
<rect x="0" y="0" width="256" height="256" style="fill:rgb(94.901961%,93.72549%,91.372549%);fill-opacity:1;stroke:none;"/>
<path style=" stroke:none;fill-rule:evenodd;fill:rgb(79.607843%,84.705882%,76.470588%);fill-opacity:1;" d="M -4 -4 L -4 260 L 260 260 L -4 260 L -4 -4 L 260 -4 Z M -4 -4 "/>
<path style=" stroke:none;fill-rule:evenodd;fill:rgb(70.980392%,82.352941%,61.176471%);fill-opacity:1;" d="M -4 -4 L -4 260 L 260 260 L -4 260 L -4 -4 L 260 -4 Z M -4 -4 "/>
<path style=" stroke:none;fill-rule:evenodd;fill:rgb(60%,70.196078%,80%);fill-opacity:1;" d="M -4 -4 L -4 259 L -4 -4 L 259 -4 Z M -4 -4 "/>
<path style="fill:none;stroke-width:1;stroke-linecap:round;stroke-linejoin:round;stroke:rgb(70.196078%,77.647059%,83.137255%);stroke-opacity:1;stroke-miterlimit:10;" d="M -4 -4 L -4 259 L -4 -4 L 259 -4 L -4 -4 "/>
<path style="fill:none;stroke-width:2;stroke-linecap:round;stroke-linejoin:round;stroke:rgb(60%,70.196078%,80%);stroke-opacity:1;stroke-miterlimit:10;" d="M 258 176.226563 L 257.167969 175.546875 L 249.421875 168.296875 L 242.917969 160.171875 L 238.546875 157.292969 L 227.296875 157.292969 L 215.296875 159.796875 L 195.671875 167.667969 L 185.421875 175.417969 L 166.796875 185.542969 L 152.292969 197.796875 L 133.917969 216.792969 L 119.167969 225.167969 L 90.921875 228.421875 "/>
<path style="fill:none;stroke-width:1;stroke-linecap:round;stroke-linejoin:round;stroke:rgb(100%,100%,100%);stroke-opacity:1;stroke-dasharray:2,3;stroke-miterlimit:10;" d="M -2 184.257813 L 12.59375 176.605469 L 21.960938 174.433594 "/>
<path style="fill:none;stroke-width:1;stroke-linecap:round;stroke-linejoin:round;stroke:rgb(100%,100%,100%);stroke-opacity:1;stroke-dasharray:2,3;stroke-miterlimit:10;" d="M 21.960938 174.433594 L 20.585938 154.113281 L 19.910156 151.757813 L 17.230469 148.1875 L 12.128906 145.210938 L 1.386719 140.246094 L -2 138.222656 "/>
<path style="fill:none;stroke-width:1;stroke-linecap:round;stroke-linejoin:round;stroke:rgb(100%,100%,100%);stroke-opacity:1;stroke-dasharray:2,3;stroke-miterlimit:10;" d="M 240.945313 -2 L 237.664063 4.019531 L 232.46875 12.675781 L 222.449219 28.34375 L 216.671875 36.410156 L 212.054688 41.03125 L 208.023438 43.917969 L 203.410156 50.246094 L 198.796875 55.457031 L 194.765625 61.785156 L 188.429688 66.410156 L 182.089844 70.441406 L 176.894531 72.738281 L 172.46875 76.398438 L 168.808594 83.691406 L 165.941406 88.3125 L 161.886719 92.347656 L 157.273438 95.789063 L 143.644531 114.433594 L 136.140625 123.679688 L 129.800781 130.007813 L 120.574219 136.367188 L 113.652344 143.289063 L 95.570313 165.839844 L 90.957031 169.875 L 86.34375 172.171875 L 81.355469 173.257813 L 58.660156 179.675781 L 53.488281 180.265625 L 48.386719 179.335938 L 43.773438 178.777344 L 32.585938 176.886719 L 21.960938 174.433594 "/>
<path style="fill:none;stroke-width:1;stroke-linecap:round;stroke-linejoin:round;stroke:rgb(100%,100%,100%);stroke-opacity:1;stroke-dasharray:2,3;stroke-miterlimit:10;" d="M 21.960938 174.433594 L 21.960938 186.6875 L 23.617188 194.042969 L 26.878906 200.433594 L 33.960938 208.621094 L 49.222656 221.683594 L 64.207031 235.582031 L 74.554688 242.40625 L 82.730469 245.382813 L 87.625 245.105469 L 106.082031 238.714844 L 125.117188 231.207031 L 146.066406 217.308594 L 153.546875 212.6875 L 159.882813 210.390625 L 168.527344 211.539063 L 176.613281 213.863281 L 182.953125 216.160156 L 186.402344 218.457031 L 188.707031 225.964844 L 190.59375 235.054688 L 193.859375 241.039063 L 198.773438 244.578125 L 209.65625 249.757813 L 212.382813 254.378906 L 213.015625 257 "/>
<path style="fill:none;stroke-width:3;stroke-linecap:round;stroke-linejoin:round;stroke:rgb(100%,100%,100%);stroke-opacity:1;stroke-miterlimit:10;" d="M 127.464844 126.621094 L 128.167969 125.933594 L 133.324219 131.308594 C 133.988281 132.007813 134.355469 132.632813 134.417969 133.183594 C 134.488281 133.734375 134.265625 134.261719 133.746094 134.761719 L 133.464844 135.027344 L 132.824219 134.371094 L 133.058594 134.152344 C 133.359375 133.859375 133.480469 133.550781 133.417969 133.230469 C 133.363281 132.910156 133.097656 132.496094 132.621094 131.996094 Z M 134.726563 126.480469 C 134.21875 126.980469 133.929688 127.398438 133.867188 127.730469 C 133.796875 128.054688 133.914063 128.371094 134.226563 128.683594 C 134.464844 128.925781 134.734375 129.050781 135.039063 129.058594 C 135.339844 129.058594 135.617188 128.933594 135.867188 128.683594 C 136.21875 128.332031 136.359375 127.910156 136.289063 127.417969 C 136.226563 126.929688 135.96875 126.457031 135.523438 125.996094 L 135.351563 125.839844 Z M 135.695313 124.917969 L 138.117188 127.355469 L 137.492188 127.980469 L 136.851563 127.339844 C 136.964844 127.757813 136.976563 128.132813 136.882813 128.464844 C 136.789063 128.800781 136.585938 129.117188 136.273438 129.417969 C 135.875 129.816406 135.4375 130.007813 134.960938 129.996094 C 134.492188 129.976563 134.054688 129.761719 133.648438 129.355469 C 133.171875 128.878906 132.953125 128.371094 132.992188 127.839844 C 133.035156 127.308594 133.34375 126.757813 133.914063 126.183594 L 134.804688 125.292969 L 134.742188 125.230469 C 134.421875 124.910156 134.078125 124.757813 133.710938 124.777344 C 133.335938 124.789063 132.976563 124.964844 132.632813 125.308594 C 132.414063 125.527344 132.234375 125.773438 132.085938 126.042969 C 131.929688 126.304688 131.820313 126.585938 131.757813 126.886719 L 131.117188 126.246094 C 131.242188 125.914063 131.390625 125.617188 131.554688 125.355469 C 131.722656 125.097656 131.910156 124.863281 132.117188 124.652344 C 132.671875 124.101563 133.242188 123.847656 133.835938 123.886719 C 134.421875 123.929688 135.039063 124.273438 135.695313 124.917969 Z M 137.609375 119.03125 L 138.328125 119.625 C 138.046875 119.71875 137.796875 119.839844 137.578125 119.984375 C 137.351563 120.132813 137.15625 120.304688 137 120.5 C 136.625 120.949219 136.496094 121.429688 136.609375 121.9375 C 136.726563 122.4375 137.070313 122.921875 137.640625 123.390625 C 138.203125 123.859375 138.742188 124.101563 139.25 124.109375 C 139.769531 124.109375 140.21875 123.886719 140.59375 123.4375 C 140.75 123.242188 140.878906 123.023438 140.984375 122.78125 C 141.085938 122.542969 141.160156 122.277344 141.203125 121.984375 L 141.890625 122.546875 C 141.835938 122.839844 141.753906 123.105469 141.640625 123.34375 C 141.523438 123.585938 141.375 123.820313 141.1875 124.046875 C 140.664063 124.683594 140.03125 125.007813 139.28125 125.015625 C 138.53125 125.027344 137.789063 124.726563 137.046875 124.109375 C 136.289063 123.484375 135.84375 122.808594 135.71875 122.078125 C 135.59375 121.351563 135.804688 120.65625 136.34375 120 C 136.511719 119.792969 136.703125 119.609375 136.921875 119.453125 C 137.140625 119.289063 137.371094 119.148438 137.609375 119.03125 Z M 136.558594 116.265625 L 137.121094 115.5625 L 140.949219 118.671875 L 140.621094 114.96875 L 141.339844 114.078125 L 141.714844 118.09375 L 146.074219 117.796875 L 145.339844 118.6875 L 141.324219 118.984375 L 143.605469 120.828125 L 143.042969 121.53125 Z M 147.65625 109.335938 C 147.855469 109.210938 148.109375 109.144531 148.421875 109.132813 C 148.742188 109.125 149.15625 109.171875 149.65625 109.273438 L 152 109.773438 L 151.390625 110.617188 L 149.171875 110.148438 C 148.597656 110.035156 148.175781 110.015625 147.90625 110.085938 C 147.636719 110.160156 147.386719 110.351563 147.15625 110.664063 L 146.53125 111.523438 L 149.265625 113.523438 L 148.6875 114.320313 L 142.21875 109.585938 L 143.515625 107.804688 C 144.007813 107.140625 144.523438 106.753906 145.0625 106.648438 C 145.605469 106.546875 146.1875 106.726563 146.8125 107.195313 C 147.21875 107.488281 147.5 107.820313 147.65625 108.195313 C 147.804688 108.5625 147.804688 108.941406 147.65625 109.335938 Z M 143.515625 109.320313 L 145.8125 110.992188 L 146.53125 110.007813 C 146.8125 109.625 146.929688 109.265625 146.875 108.929688 C 146.824219 108.597656 146.605469 108.296875 146.21875 108.023438 C 145.84375 107.742188 145.492188 107.628906 145.15625 107.679688 C 144.824219 107.734375 144.515625 107.953125 144.234375 108.335938 Z M 149.652344 103.957031 C 149.371094 104.355469 149.320313 104.785156 149.496094 105.253906 C 149.664063 105.714844 150.039063 106.15625 150.621094 106.582031 C 151.207031 107 151.742188 107.222656 152.230469 107.253906 C 152.71875 107.277344 153.105469 107.089844 153.386719 106.691406 C 153.675781 106.308594 153.738281 105.878906 153.574219 105.410156 C 153.40625 104.941406 153.03125 104.5 152.449219 104.082031 C 151.867188 103.65625 151.332031 103.433594 150.839844 103.410156 C 150.339844 103.390625 149.945313 103.574219 149.652344 103.957031 Z M 148.980469 103.457031 C 149.441406 102.84375 150.023438 102.527344 150.730469 102.503906 C 151.441406 102.472656 152.191406 102.75 152.996094 103.332031 C 153.785156 103.90625 154.277344 104.542969 154.464844 105.238281 C 154.660156 105.925781 154.53125 106.578125 154.074219 107.191406 C 153.613281 107.828125 153.03125 108.15625 152.324219 108.175781 C 151.617188 108.199219 150.867188 107.921875 150.074219 107.347656 C 149.273438 106.765625 148.777344 106.128906 148.589844 105.441406 C 148.394531 104.753906 148.523438 104.09375 148.980469 103.457031 Z M 155.285156 100.152344 C 154.859375 100.738281 154.640625 101.195313 154.628906 101.527344 C 154.621094 101.851563 154.792969 102.144531 155.144531 102.402344 C 155.425781 102.601563 155.714844 102.679688 156.003906 102.636719 C 156.292969 102.597656 156.542969 102.433594 156.753906 102.152344 C 157.042969 101.746094 157.121094 101.308594 156.988281 100.839844 C 156.851563 100.363281 156.523438 99.933594 156.003906 99.558594 L 155.816406 99.433594 Z M 156.003906 98.464844 L 158.785156 100.496094 L 158.269531 101.214844 L 157.535156 100.683594 C 157.699219 101.058594 157.761719 101.425781 157.722656 101.777344 C 157.691406 102.121094 157.542969 102.472656 157.285156 102.824219 C 156.960938 103.261719 156.558594 103.511719 156.082031 103.574219 C 155.613281 103.636719 155.144531 103.496094 154.675781 103.152344 C 154.125 102.757813 153.832031 102.292969 153.800781 101.761719 C 153.761719 101.230469 153.980469 100.636719 154.457031 99.980469 L 155.207031 98.980469 L 155.128906 98.917969 C 154.753906 98.648438 154.390625 98.550781 154.035156 98.621094 C 153.671875 98.695313 153.34375 98.929688 153.050781 99.324219 C 152.875 99.566406 152.734375 99.832031 152.628906 100.121094 C 152.527344 100.402344 152.457031 100.707031 152.425781 101.027344 L 151.691406 100.480469 C 151.765625 100.128906 151.863281 99.808594 151.988281 99.527344 C 152.113281 99.238281 152.265625 98.976563 152.441406 98.746094 C 152.902344 98.113281 153.425781 97.773438 154.019531 97.730469 C 154.605469 97.679688 155.265625 97.925781 156.003906 98.464844 Z M 158.664063 93.582031 L 156.492188 91.175781 L 157.164063 90.566406 L 162.773438 96.753906 L 162.101563 97.363281 L 161.492188 96.691406 C 161.605469 97.089844 161.609375 97.449219 161.507813 97.769531 C 161.414063 98.082031 161.21875 98.371094 160.929688 98.628906 C 160.4375 99.066406 159.84375 99.214844 159.148438 99.066406 C 158.460938 98.910156 157.800781 98.484375 157.164063 97.785156 C 156.53125 97.078125 156.171875 96.375 156.085938 95.675781 C 155.992188 94.96875 156.191406 94.394531 156.679688 93.957031 C 156.972656 93.699219 157.285156 93.535156 157.617188 93.472656 C 157.953125 93.410156 158.300781 93.449219 158.664063 93.582031 Z M 157.851563 97.175781 C 158.34375 97.71875 158.820313 98.050781 159.289063 98.175781 C 159.757813 98.300781 160.167969 98.203125 160.523438 97.878906 C 160.875 97.558594 161.011719 97.15625 160.929688 96.675781 C 160.855469 96.199219 160.574219 95.6875 160.085938 95.144531 C 159.59375 94.605469 159.117188 94.269531 158.648438 94.144531 C 158.171875 94.011719 157.753906 94.105469 157.398438 94.425781 C 157.046875 94.75 156.910156 95.15625 156.992188 95.644531 C 157.078125 96.125 157.363281 96.636719 157.851563 97.175781 Z M 157.851563 97.175781 "/>
<path style=" stroke:none;fill-rule:evenodd;fill:rgb(20%,20%,20%);fill-opacity:1;" d="M 127.464844 126.621094 L 128.167969 125.933594 L 133.324219 131.308594 C 133.988281 132.007813 134.355469 132.632813 134.417969 133.183594 C 134.488281 133.734375 134.265625 134.261719 133.746094 134.761719 L 133.464844 135.027344 L 132.824219 134.371094 L 133.058594 134.152344 C 133.359375 133.859375 133.480469 133.550781 133.417969 133.230469 C 133.363281 132.910156 133.097656 132.496094 132.621094 131.996094 Z M 134.726563 126.480469 C 134.21875 126.980469 133.929688 127.398438 133.867188 127.730469 C 133.796875 128.054688 133.914063 128.371094 134.226563 128.683594 C 134.464844 128.925781 134.734375 129.050781 135.039063 129.058594 C 135.339844 129.058594 135.617188 128.933594 135.867188 128.683594 C 136.21875 128.332031 136.359375 127.910156 136.289063 127.417969 C 136.226563 126.929688 135.96875 126.457031 135.523438 125.996094 L 135.351563 125.839844 Z M 135.695313 124.917969 L 138.117188 127.355469 L 137.492188 127.980469 L 136.851563 127.339844 C 136.964844 127.757813 136.976563 128.132813 136.882813 128.464844 C 136.789063 128.800781 136.585938 129.117188 136.273438 129.417969 C 135.875 129.816406 135.4375 130.007813 134.960938 129.996094 C 134.492188 129.976563 134.054688 129.761719 133.648438 129.355469 C 133.171875 128.878906 132.953125 128.371094 132.992188 127.839844 C 133.035156 127.308594 133.34375 126.757813 133.914063 126.183594 L 134.804688 125.292969 L 134.742188 125.230469 C 134.421875 124.910156 134.078125 124.757813 133.710938 124.777344 C 133.335938 124.789063 132.976563 124.964844 132.632813 125.308594 C 132.414063 125.527344 132.234375 125.773438 132.085938 126.042969 C 131.929688 126.304688 131.820313 126.585938 131.757813 126.886719 L 131.117188 126.246094 C 131.242188 125.914063 131.390625 125.617188 131.554688 125.355469 C 131.722656 125.097656 131.910156 124.863281 132.117188 124.652344 C 132.671875 124.101563 133.242188 123.847656 133.835938 123.886719 C 134.421875 123.929688 135.039063 124.273438 135.695313 124.917969 Z M 137.609375 119.03125 L 138.328125 119.625 C 138.046875 119.71875 137.796875 119.839844 137.578125 119.984375 C 137.351563 120.132813 137.15625 120.304688 137 120.5 C 136.625 120.949219 136.496094 121.429688 136.609375 121.9375 C 136.726563 122.4375 137.070313 122.921875 137.640625 123.390625 C 138.203125 123.859375 138.742188 124.101563 139.25 124.109375 C 139.769531 124.109375 140.21875 123.886719 140.59375 123.4375 C 140.75 123.242188 140.878906 123.023438 140.984375 122.78125 C 141.085938 122.542969 141.160156 122.277344 141.203125 121.984375 L 141.890625 122.546875 C 141.835938 122.839844 141.753906 123.105469 141.640625 123.34375 C 141.523438 123.585938 141.375 123.820313 141.1875 124.046875 C 140.664063 124.683594 140.03125 125.007813 139.28125 125.015625 C 138.53125 125.027344 137.789063 124.726563 137.046875 124.109375 C 136.289063 123.484375 135.84375 122.808594 135.71875 122.078125 C 135.59375 121.351563 135.804688 120.65625 136.34375 120 C 136.511719 119.792969 136.703125 119.609375 136.921875 119.453125 C 137.140625 119.289063 137.371094 119.148438 137.609375 119.03125 Z M 136.558594 116.265625 L 137.121094 115.5625 L 140.949219 118.671875 L 140.621094 114.96875 L 141.339844 114.078125 L 141.714844 118.09375 L 146.074219 117.796875 L 145.339844 118.6875 L 141.324219 118.984375 L 143.605469 120.828125 L 143.042969 121.53125 Z M 147.65625 109.335938 C 147.855469 109.210938 148.109375 109.144531 148.421875 109.132813 C 148.742188 109.125 149.15625 109.171875 149.65625 109.273438 L 152 109.773438 L 151.390625 110.617188 L 149.171875 110.148438 C 148.597656 110.035156 148.175781 110.015625 147.90625 110.085938 C 147.636719 110.160156 147.386719 110.351563 147.15625 110.664063 L 146.53125 111.523438 L 149.265625 113.523438 L 148.6875 114.320313 L 142.21875 109.585938 L 143.515625 107.804688 C 144.007813 107.140625 144.523438 106.753906 145.0625 106.648438 C 145.605469 106.546875 146.1875 106.726563 146.8125 107.195313 C 147.21875 107.488281 147.5 107.820313 147.65625 108.195313 C 147.804688 108.5625 147.804688 108.941406 147.65625 109.335938 Z M 143.515625 109.320313 L 145.8125 110.992188 L 146.53125 110.007813 C 146.8125 109.625 146.929688 109.265625 146.875 108.929688 C 146.824219 108.597656 146.605469 108.296875 146.21875 108.023438 C 145.84375 107.742188 145.492188 107.628906 145.15625 107.679688 C 144.824219 107.734375 144.515625 107.953125 144.234375 108.335938 Z M 149.652344 103.957031 C 149.371094 104.355469 149.320313 104.785156 149.496094 105.253906 C 149.664063 105.714844 150.039063 106.15625 150.621094 106.582031 C 151.207031 107 151.742188 107.222656 152.230469 107.253906 C 152.71875 107.277344 153.105469 107.089844 153.386719 106.691406 C 153.675781 106.308594 153.738281 105.878906 153.574219 105.410156 C 153.40625 104.941406 153.03125 104.5 152.449219 104.082031 C 151.867188 103.65625 151.332031 103.433594 150.839844 103.410156 C 150.339844 103.390625 149.945313 103.574219 149.652344 103.957031 Z M 148.980469 103.457031 C 149.441406 102.84375 150.023438 102.527344 150.730469 102.503906 C 151.441406 102.472656 152.191406 102.75 152.996094 103.332031 C 153.785156 103.90625 154.277344 104.542969 154.464844 105.238281 C 154.660156 105.925781 154.53125 106.578125 154.074219 107.191406 C 153.613281 107.828125 153.03125 108.15625 152.324219 108.175781 C 151.617188 108.199219 150.867188 107.921875 150.074219 107.347656 C 149.273438 106.765625 148.777344 106.128906 148.589844 105.441406 C 148.394531 104.753906 148.523438 104.09375 148.980469 103.457031 Z M 155.285156 100.152344 C 154.859375 100.738281 154.640625 101.195313 154.628906 101.527344 C 154.621094 101.851563 154.792969 102.144531 155.144531 102.402344 C 155.425781 102.601563 155.714844 102.679688 156.003906 102.636719 C 156.292969 102.597656 156.542969 102.433594 156.753906 102.152344 C 157.042969 101.746094 157.121094 101.308594 156.988281 100.839844 C 156.851563 100.363281 156.523438 99.933594 156.003906 99.558594 L 155.816406 99.433594 Z M 156.003906 98.464844 L 158.785156 100.496094 L 158.269531 101.214844 L 157.535156 100.683594 C 157.699219 101.058594 157.761719 101.425781 157.722656 101.777344 C 157.691406 102.121094 157.542969 102.472656 157.285156 102.824219 C 156.960938 103.261719 156.558594 103.511719 156.082031 103.574219 C 155.613281 103.636719 155.144531 103.496094 154.675781 103.152344 C 154.125 102.757813 153.832031 102.292969 153.800781 101.761719 C 153.761719 101.230469 153.980469 100.636719 154.457031 99.980469 L 155.207031 98.980469 L 155.128906 98.917969 C 154.753906 98.648438 154.390625 98.550781 154.035156 98.621094 C 153.671875 98.695313 153.34375 98.929688 153.050781 99.324219 C 152.875 99.566406 152.734375 99.832031 152.628906 100.121094 C 152.527344 100.402344 152.457031 100.707031 152.425781 101.027344 L 151.691406 100.480469 C 151.765625 100.128906 151.863281 99.808594 151.988281 99.527344 C 152.113281 99.238281 152.265625 98.976563 152.441406 98.746094 C 152.902344 98.113281 153.425781 97.773438 154.019531 97.730469 C 154.605469 97.679688 155.265625 97.925781 156.003906 98.464844 Z M 158.664063 93.582031 L 156.492188 91.175781 L 157.164063 90.566406 L 162.773438 96.753906 L 162.101563 97.363281 L 161.492188 96.691406 C 161.605469 97.089844 161.609375 97.449219 161.507813 97.769531 C 161.414063 98.082031 161.21875 98.371094 160.929688 98.628906 C 160.4375 99.066406 159.84375 99.214844 159.148438 99.066406 C 158.460938 98.910156 157.800781 98.484375 157.164063 97.785156 C 156.53125 97.078125 156.171875 96.375 156.085938 95.675781 C 155.992188 94.96875 156.191406 94.394531 156.679688 93.957031 C 156.972656 93.699219 157.285156 93.535156 157.617188 93.472656 C 157.953125 93.410156 158.300781 93.449219 158.664063 93.582031 Z M 157.851563 97.175781 C 158.34375 97.71875 158.820313 98.050781 159.289063 98.175781 C 159.757813 98.300781 160.167969 98.203125 160.523438 97.878906 C 160.875 97.558594 161.011719 97.15625 160.929688 96.675781 C 160.855469 96.199219 160.574219 95.6875 160.085938 95.144531 C 159.59375 94.605469 159.117188 94.269531 158.648438 94.144531 C 158.171875 94.011719 157.753906 94.105469 157.398438 94.425781 C 157.046875 94.75 156.910156 95.15625 156.992188 95.644531 C 157.078125 96.125 157.363281 96.636719 157.851563 97.175781 Z M 157.851563 97.175781 "/>
</g>
</svg>

