<?xml version="1.0" encoding="UTF-8"?>
<svg xmlns="http://www.w3.org/2000/svg" xmlns:xlink="http://www.w3.org/1999/xlink" width="256pt" height="256pt" viewBox="0 0 256 256" version="1.1">
<g id="surface2">
<rect x="0" y="0" width="256" height="256" style="fill:rgb(60%,70.196078%,80%);fill-opacity:1;stroke:none;"/>
<path style="fill:none;stroke-width:1;stroke-linecap:round;stroke-linejoin:round;stroke:rgb(70.196078%,77.647059%,83.137255%);stroke-opacity:1;stroke-miterlimit:10;" d="M -4 259 L 259 259 L 259 -4 L -4 -4 L -4 259 "/>
<path style="fill:none;stroke-width:6;stroke-linecap:round;stroke-linejoin:round;stroke:rgb(60%,70.196078%,80%);stroke-opacity:1;stroke-miterlimit:10;" d="M 138.496094 -7 L 81.195313 262 "/>
<path style="fill:none;stroke-width:3;stroke-linecap:round;stroke-linejoin:round;stroke:rgb(100%,100%,100%);stroke-opacity:1;stroke-miterlimit:10;" d="M 97.375 163.726563 L 97.625 162.601563 L 101.4375 163.398438 L 102.3125 159.289063 L 98.5 158.492188 L 98.734375 157.367188 L 108.015625 159.335938 L 107.78125 160.460938 L 103.359375 159.523438 L 102.484375 163.632813 L 106.90625 164.570313 L 106.65625 165.695313 Z M 105.707031 156.640625 L 101.503906 155.75 L 101.722656 154.734375 L 105.894531 155.625 C 106.550781 155.761719 107.074219 155.75 107.457031 155.59375 C 107.832031 155.4375 108.066406 155.132813 108.160156 154.671875 C 108.285156 154.109375 108.1875 153.625 107.863281 153.21875 C 107.542969 152.8125 107.035156 152.539063 106.347656 152.390625 L 102.410156 151.546875 L 102.628906 150.515625 L 109.582031 152 L 109.363281 153.03125 L 108.300781 152.796875 C 108.675781 153.140625 108.925781 153.5 109.050781 153.875 C 109.183594 154.25 109.207031 154.664063 109.113281 155.109375 C 108.964844 155.820313 108.601563 156.304688 108.019531 156.5625 C 107.4375 156.824219 106.667969 156.851563 105.707031 156.640625 Z M 101.894531 153.140625 Z M 105.003906 144.503906 L 101.253906 143.691406 L 101.472656 142.675781 L 111.128906 144.738281 L 110.910156 145.753906 L 109.863281 145.535156 C 110.226563 145.839844 110.476563 146.183594 110.613281 146.566406 C 110.746094 146.941406 110.769531 147.359375 110.675781 147.816406 C 110.507813 148.578125 110.039063 149.125 109.269531 149.457031 C 108.5 149.78125 107.566406 149.828125 106.472656 149.597656 C 105.378906 149.359375 104.546875 148.933594 103.972656 148.316406 C 103.402344 147.703125 103.199219 147.015625 103.363281 146.253906 C 103.457031 145.796875 103.640625 145.421875 103.910156 145.128906 C 104.171875 144.839844 104.535156 144.628906 105.003906 144.503906 Z M 106.691406 148.519531 C 107.527344 148.699219 108.21875 148.683594 108.769531 148.472656 C 109.3125 148.265625 109.640625 147.890625 109.753906 147.347656 C 109.867188 146.796875 109.722656 146.316406 109.316406 145.910156 C 108.902344 145.496094 108.277344 145.199219 107.441406 145.019531 C 106.597656 144.832031 105.90625 144.847656 105.363281 145.066406 C 104.824219 145.277344 104.496094 145.65625 104.378906 146.207031 C 104.265625 146.75 104.410156 147.222656 104.816406 147.628906 C 105.222656 148.035156 105.847656 148.332031 106.691406 148.519531 Z M 105.675781 137.183594 L 106.753906 137.417969 C 106.527344 137.679688 106.339844 137.957031 106.191406 138.246094 C 106.046875 138.539063 105.941406 138.855469 105.878906 139.199219 C 105.765625 139.699219 105.769531 140.101563 105.894531 140.402344 C 106.011719 140.695313 106.238281 140.878906 106.582031 140.949219 C 106.855469 141.011719 107.082031 140.964844 107.269531 140.808594 C 107.449219 140.652344 107.667969 140.316406 107.925781 139.792969 L 108.097656 139.480469 C 108.421875 138.773438 108.777344 138.304688 109.160156 138.074219 C 109.546875 137.835938 110.019531 137.777344 110.582031 137.902344 C 111.230469 138.039063 111.691406 138.378906 111.972656 138.917969 C 112.253906 139.460938 112.304688 140.132813 112.128906 140.933594 C 112.066406 141.257813 111.957031 141.597656 111.800781 141.949219 C 111.652344 142.304688 111.460938 142.660156 111.222656 143.011719 L 110.050781 142.761719 C 110.355469 142.441406 110.597656 142.105469 110.785156 141.761719 C 110.964844 141.410156 111.09375 141.050781 111.175781 140.683594 C 111.28125 140.207031 111.269531 139.820313 111.144531 139.527344 C 111.011719 139.226563 110.777344 139.039063 110.441406 138.964844 C 110.128906 138.902344 109.871094 138.949219 109.660156 139.105469 C 109.453125 139.253906 109.207031 139.628906 108.925781 140.230469 L 108.753906 140.558594 C 108.472656 141.164063 108.152344 141.582031 107.785156 141.808594 C 107.410156 142.027344 106.953125 142.082031 106.410156 141.964844 C 105.765625 141.820313 105.308594 141.503906 105.035156 141.011719 C 104.765625 140.511719 104.714844 139.878906 104.878906 139.105469 C 104.964844 138.730469 105.074219 138.382813 105.207031 138.058594 C 105.332031 137.738281 105.488281 137.445313 105.675781 137.183594 Z M 107.210938 132.925781 C 107.085938 133.480469 107.234375 133.96875 107.648438 134.394531 C 108.054688 134.8125 108.675781 135.109375 109.507813 135.285156 C 110.34375 135.464844 111.03125 135.441406 111.570313 135.222656 C 112.113281 135.003906 112.445313 134.621094 112.570313 134.066406 C 112.683594 133.515625 112.539063 133.03125 112.132813 132.613281 C 111.71875 132.199219 111.097656 131.902344 110.273438 131.722656 C 109.453125 131.546875 108.765625 131.566406 108.210938 131.785156 C 107.660156 131.996094 107.328125 132.375 107.210938 132.925781 Z M 106.242188 132.722656 C 106.429688 131.828125 106.90625 131.191406 107.664063 130.816406 C 108.414063 130.441406 109.363281 130.378906 110.507813 130.628906 C 111.65625 130.871094 112.492188 131.316406 113.023438 131.972656 C 113.5625 132.621094 113.742188 133.390625 113.554688 134.285156 C 113.355469 135.183594 112.882813 135.816406 112.132813 136.191406 C 111.382813 136.558594 110.4375 136.621094 109.289063 136.378906 C 108.144531 136.128906 107.300781 135.683594 106.757813 135.035156 C 106.21875 134.390625 106.046875 133.621094 106.242188 132.722656 Z M 111.25 123.570313 L 115.453125 124.460938 L 115.234375 125.492188 L 111.078125 124.601563 C 110.414063 124.46875 109.890625 124.484375 109.515625 124.648438 C 109.140625 124.804688 108.90625 125.113281 108.8125 125.570313 C 108.6875 126.113281 108.789063 126.585938 109.109375 126.992188 C 109.433594 127.398438 109.9375 127.675781 110.625 127.820313 L 114.546875 128.664063 L 114.328125 129.695313 L 107.375 128.210938 L 107.59375 127.179688 L 108.671875 127.414063 C 108.308594 127.082031 108.058594 126.726563 107.921875 126.351563 C 107.789063 125.976563 107.765625 125.570313 107.859375 125.132813 C 108.007813 124.414063 108.371094 123.925781 108.953125 123.664063 C 109.527344 123.394531 110.292969 123.363281 111.25 123.570313 Z M 113.164063 113.84375 C 113.3125 113.625 113.5625 113.433594 113.914063 113.265625 C 114.257813 113.101563 114.710938 112.949219 115.273438 112.8125 L 118.054688 112.21875 L 117.789063 113.4375 L 115.179688 114 C 114.503906 114.136719 114.039063 114.3125 113.789063 114.53125 C 113.539063 114.75 113.367188 115.085938 113.273438 115.53125 L 113.007813 116.765625 L 116.914063 117.59375 L 116.664063 118.71875 L 107.382813 116.75 L 107.929688 114.203125 C 108.140625 113.246094 108.515625 112.578125 109.054688 112.203125 C 109.597656 111.828125 110.316406 111.734375 111.210938 111.921875 C 111.796875 112.046875 112.257813 112.277344 112.601563 112.609375 C 112.9375 112.933594 113.125 113.34375 113.164063 113.84375 Z M 108.679688 115.84375 L 111.960938 116.53125 L 112.257813 115.109375 C 112.375 114.558594 112.320313 114.121094 112.101563 113.796875 C 111.882813 113.464844 111.503906 113.242188 110.960938 113.125 C 110.429688 113.011719 110 113.0625 109.664063 113.28125 C 109.320313 113.492188 109.09375 113.871094 108.976563 114.421875 Z M 111.402344 109.335938 L 111.621094 108.304688 L 118.574219 109.789063 L 118.355469 110.820313 Z M 108.699219 108.757813 L 108.917969 107.726563 L 110.371094 108.039063 L 110.152344 109.070313 Z M 111.921875 106.890625 L 112.140625 105.8125 L 118.40625 105.109375 L 112.984375 101.90625 L 113.21875 100.796875 L 119.671875 104.640625 L 119.375 106.03125 Z M 117.851563 94.714844 L 118.414063 94.824219 L 117.398438 99.558594 C 118.203125 99.683594 118.847656 99.601563 119.335938 99.308594 C 119.828125 99.007813 120.144531 98.519531 120.289063 97.839844 C 120.371094 97.445313 120.398438 97.054688 120.367188 96.667969 C 120.34375 96.273438 120.261719 95.867188 120.117188 95.449219 L 121.210938 95.683594 C 121.304688 96.089844 121.355469 96.496094 121.367188 96.902344 C 121.375 97.308594 121.339844 97.714844 121.257813 98.121094 C 121.046875 99.113281 120.558594 99.832031 119.789063 100.277344 C 119.019531 100.726563 118.082031 100.835938 116.976563 100.605469 C 115.832031 100.355469 114.984375 99.882813 114.429688 99.183594 C 113.878906 98.488281 113.703125 97.667969 113.898438 96.730469 C 114.085938 95.886719 114.535156 95.285156 115.242188 94.917969 C 115.953125 94.554688 116.820313 94.488281 117.851563 94.714844 Z M 117.304688 95.683594 C 116.679688 95.550781 116.148438 95.597656 115.710938 95.824219 C 115.265625 96.042969 114.988281 96.410156 114.882813 96.917969 C 114.757813 97.503906 114.84375 98.007813 115.132813 98.433594 C 115.414063 98.851563 115.878906 99.152344 116.523438 99.339844 Z M 116.851563 88.949219 C 116.769531 89.042969 116.695313 89.160156 116.632813 89.292969 C 116.5625 89.417969 116.507813 89.566406 116.476563 89.730469 C 116.351563 90.304688 116.46875 90.792969 116.820313 91.199219 C 117.164063 91.597656 117.726563 91.878906 118.507813 92.042969 L 122.179688 92.824219 L 121.960938 93.855469 L 115.007813 92.371094 L 115.226563 91.339844 L 116.304688 91.574219 C 115.929688 91.261719 115.679688 90.914063 115.554688 90.527344 C 115.421875 90.144531 115.40625 89.707031 115.507813 89.214844 C 115.519531 89.144531 115.539063 89.066406 115.570313 88.980469 C 115.601563 88.898438 115.640625 88.804688 115.679688 88.699219 Z M 116.851563 88.949219 "/>
<path style=" stroke:none;fill-rule:evenodd;fill:rgb(41.960784%,58.039216%,69.019608%);fill-opacity:1;" d="M 97.375 163.726563 L 97.625 162.601563 L 101.4375 163.398438 L 102.3125 159.289063 L 98.5 158.492188 L 98.734375 157.367188 L 108.015625 159.335938 L 107.78125 160.460938 L 103.359375 159.523438 L 102.484375 163.632813 L 106.90625 164.570313 L 106.65625 165.695313 Z M 105.707031 156.640625 L 101.503906 155.75 L 101.722656 154.734375 L 105.894531 155.625 C 106.550781 155.761719 107.074219 155.75 107.457031 155.59375 C 107.832031 155.4375 108.066406 155.132813 108.160156 154.671875 C 108.285156 154.109375 108.1875 153.625 107.863281 153.21875 C 107.542969 152.8125 107.035156 152.539063 106.347656 152.390625 L 102.410156 151.546875 L 102.628906 150.515625 L 109.582031 152 L 109.363281 153.03125 L 108.300781 152.796875 C 108.675781 153.140625 108.925781 153.5 109.050781 153.875 C 109.183594 154.25 109.207031 154.664063 109.113281 155.109375 C 108.964844 155.820313 108.601563 156.304688 108.019531 156.5625 C 107.4375 156.824219 106.667969 156.851563 105.707031 156.640625 Z M 101.894531 153.140625 Z M 105.003906 144.503906 L 101.253906 143.691406 L 101.472656 142.675781 L 111.128906 144.738281 L 110.910156 145.753906 L 109.863281 145.535156 C 110.226563 145.839844 110.476563 146.183594 110.613281 146.566406 C 110.746094 146.941406 110.769531 147.359375 110.675781 147.816406 C 110.507813 148.578125 110.039063 149.125 109.269531 149.457031 C 108.5 149.78125 107.566406 149.828125 106.472656 149.597656 C 105.378906 149.359375 104.546875 148.933594 103.972656 148.316406 C 103.402344 147.703125 103.199219 147.015625 103.363281 146.253906 C 103.457031 145.796875 103.640625 145.421875 103.910156 145.128906 C 104.171875 144.839844 104.535156 144.628906 105.003906 144.503906 Z M 106.691406 148.519531 C 107.527344 148.699219 108.21875 148.683594 108.769531 148.472656 C 109.3125 148.265625 109.640625 147.890625 109.753906 147.347656 C 109.867188 146.796875 109.722656 146.316406 109.316406 145.910156 C 108.902344 145.496094 108.277344 145.199219 107.441406 145.019531 C 106.597656 144.832031 105.90625 144.847656 105.363281 145.066406 C 104.824219 145.277344 104.496094 145.65625 104.378906 146.207031 C 104.265625 146.75 104.410156 147.222656 104.816406 147.628906 C 105.222656 148.035156 105.847656 148.332031 106.691406 148.519531 Z M 105.675781 137.183594 L 106.753906 137.417969 C 106.527344 137.679688 106.339844 137.957031 106.191406 138.246094 C 106.046875 138.539063 105.941406 138.855469 105.878906 139.199219 C 105.765625 139.699219 105.769531 140.101563 105.894531 140.402344 C 106.011719 140.695313 106.238281 140.878906 106.582031 140.949219 C 106.855469 141.011719 107.082031 140.964844 107.269531 140.808594 C 107.449219 140.652344 107.667969 140.316406 107.925781 139.792969 L 108.097656 139.480469 C 108.421875 138.773438 108.777344 138.304688 109.160156 138.074219 C 109.546875 137.835938 110.019531 137.777344 110.582031 137.902344 C 111.230469 138.039063 111.691406 138.378906 111.972656 138.917969 C 112.253906 139.460938 112.304688 140.132813 112.128906 140.933594 C 112.066406 141.257813 111.957031 141.597656 111.800781 141.949219 C 111.652344 142.304688 111.460938 142.660156 111.222656 143.011719 L 110.050781 142.761719 C 110.355469 142.441406 110.597656 142.105469 110.785156 141.761719 C 110.964844 141.410156 111.09375 141.050781 111.175781 140.683594 C 111.28125 140.207031 111.269531 139.820313 111.144531 139.527344 C 111.011719 139.226563 110.777344 139.039063 110.441406 138.964844 C 110.128906 138.902344 109.871094 138.949219 109.660156 139.105469 C 109.453125 139.253906 109.207031 139.628906 108.925781 140.230469 L 108.753906 140.558594 C 108.472656 141.164063 108.152344 141.582031 107.785156 141.808594 C 107.410156 142.027344 106.953125 142.082031 106.410156 141.964844 C 105.765625 141.820313 105.308594 141.503906 105.035156 141.011719 C 104.765625 140.511719 104.714844 139.878906 104.878906 139.105469 C 104.964844 138.730469 105.074219 138.382813 105.207031 138.058594 C 105.332031 137.738281 105.488281 137.445313 105.675781 137.183594 Z M 107.210938 132.925781 C 107.085938 133.480469 107.234375 133.96875 107.648438 134.394531 C 108.054688 134.8125 108.675781 135.109375 109.507813 135.285156 C 110.34375 135.464844 111.03125 135.441406 111.570313 135.222656 C 112.113281 135.003906 112.445313 134.621094 112.570313 134.066406 C 112.683594 133.515625 112.539063 133.03125 112.132813 132.613281 C 111.71875 132.199219 111.097656 131.902344 110.273438 131.722656 C 109.453125 131.546875 108.765625 131.566406 108.210938 131.785156 C 107.660156 131.996094 107.328125 132.375 107.210938 132.925781 Z M 106.242188 132.722656 C 106.429688 131.828125 106.90625 131.191406 107.664063 130.816406 C 108.414063 130.441406 109.363281 130.378906 110.507813 130.628906 C 111.65625 130.871094 112.492188 131.316406 113.023438 131.972656 C 113.5625 132.621094 113.742188 133.390625 113.554688 134.285156 C 113.355469 135.183594 112.882813 135.816406 112.132813 136.191406 C 111.382813 136.558594 110.4375 136.621094 109.289063 136.378906 C 108.144531 136.128906 107.300781 135.683594 106.757813 135.035156 C 106.21875 134.390625 106.046875 133.621094 106.242188 132.722656 Z M 111.25 123.570313 L 115.453125 124.460938 L 115.234375 125.492188 L 111.078125 124.601563 C 110.414063 124.46875 109.890625 124.484375 109.515625 124.648438 C 109.140625 124.804688 108.90625 125.113281 108.8125 125.570313 C 108.6875 126.113281 108.789063 126.585938 109.109375 126.992188 C 109.433594 127.398438 109.9375 127.675781 110.625 127.820313 L 114.546875 128.664063 L 114.328125 129.695313 L 107.375 128.210938 L 107.59375 127.179688 L 108.671875 127.414063 C 108.308594 127.082031 108.058594 126.726563 107.921875 126.351563 C 107.789063 125.976563 107.765625 125.570313 107.859375 125.132813 C 108.007813 124.414063 108.371094 123.925781 108.953125 123.664063 C 109.527344 123.394531 110.292969 123.363281 111.25 123.570313 Z M 113.164063 113.84375 C 113.3125 113.625 113.5625 113.433594 113.914063 113.265625 C 114.257813 113.101563 114.710938 112.949219 115.273438 112.8125 L 118.054688 112.21875 L 117.789063 113.4375 L 115.179688 114 C 114.503906 114.136719 114.039063 114.3125 113.789063 114.53125 C 113.539063 114.75 113.367188 115.085938 113.273438 115.53125 L 113.007813 116.765625 L 116.914063 117.59375 L 116.664063 118.71875 L 107.382813 116.75 L 107.929688 114.203125 C 108.140625 113.246094 108.515625 112.578125 109.054688 112.203125 C 109.597656 111.828125 110.316406 111.734375 111.210938 111.921875 C 111.796875 112.046875 112.257813 112.277344 112.601563 112.609375 C 112.9375 112.933594 113.125 113.34375 113.164063 113.84375 Z M 108.679688 115.84375 L 111.960938 116.53125 L 112.257813 115.109375 C 112.375 114.558594 112.320313 114.121094 112.101563 113.796875 C 111.882813 113.464844 111.503906 113.242188 110.960938 113.125 C 110.429688 113.011719 110 113.0625 109.664063 113.28125 C 109.320313 113.492188 109.09375 113.871094 108.976563 114.421875 Z M 111.402344 109.335938 L 111.621094 108.304688 L 118.574219 109.789063 L 118.355469 110.820313 Z M 108.699219 108.757813 L 108.917969 107.726563 L 110.371094 108.039063 L 110.152344 109.070313 Z M 111.921875 106.890625 L 112.140625 105.8125 L 118.40625 105.109375 L 112.984375 101.90625 L 113.21875 100.796875 L 119.671875 104.640625 L 119.375 106.03125 Z M 117.851563 94.714844 L 118.414063 94.824219 L 117.398438 99.558594 C 118.203125 99.683594 118.847656 99.601563 119.335938 99.308594 C 119.828125 99.007813 120.144531 98.519531 120.289063 97.839844 C 120.371094 97.445313 120.398438 97.054688 120.367188 96.667969 C 120.34375 96.273438 120.261719 95.867188 120.117188 95.449219 L 121.210938 95.683594 C 121.304688 96.089844 121.355469 96.496094 121.367188 96.902344 C 121.375 97.308594 121.339844 97.714844 121.257813 98.121094 C 121.046875 99.113281 120.558594 99.832031 119.789063 100.277344 C 119.019531 100.726563 118.082031 100.835938 116.976563 100.605469 C 115.832031 100.355469 114.984375 99.882813 114.429688 99.183594 C 113.878906 98.488281 113.703125 97.667969 113.898438 96.730469 C 114.085938 95.886719 114.535156 95.285156 115.242188 94.917969 C 115.953125 94.554688 116.820313 94.488281 117.851563 94.714844 Z M 117.304688 95.683594 C 116.679688 95.550781 116.148438 95.597656 115.710938 95.824219 C 115.265625 96.042969 114.988281 96.410156 114.882813 96.917969 C 114.757813 97.503906 114.84375 98.007813 115.132813 98.433594 C 115.414063 98.851563 115.878906 99.152344 116.523438 99.339844 Z M 116.851563 88.949219 C 116.769531 89.042969 116.695313 89.160156 116.632813 89.292969 C 116.5625 89.417969 116.507813 89.566406 116.476563 89.730469 C 116.351563 90.304688 116.46875 90.792969 116.820313 91.199219 C 117.164063 91.597656 117.726563 91.878906 118.507813 92.042969 L 122.179688 92.824219 L 121.960938 93.855469 L 115.007813 92.371094 L 115.226563 91.339844 L 116.304688 91.574219 C 115.929688 91.261719 115.679688 90.914063 115.554688 90.527344 C 115.421875 90.144531 115.40625 89.707031 115.507813 89.214844 C 115.519531 89.144531 115.539063 89.066406 115.570313 88.980469 C 115.601563 88.898438 115.640625 88.804688 115.679688 88.699219 Z M 116.851563 88.949219 "/>
</g>
</svg>

