<?xml version="1.0" encoding="UTF-8"?>
<svg xmlns="http://www.w3.org/2000/svg" xmlns:xlink="http://www.w3.org/1999/xlink" width="256pt" height="256pt" viewBox="0 0 256 256" version="1.1">
<g id="surface2">
<rect x="0" y="0" width="256" height="256" style="fill:rgb(94.901961%,93.72549%,91.372549%);fill-opacity:1;stroke:none;"/>
<path style=" stroke:none;fill-rule:evenodd;fill:rgb(60%,70.196078%,80%);fill-opacity:1;" d="M -4 -4 L 259 -4 L 114.234375 -4 L 113.589844 0.140625 L 106.589844 6.953125 L 259 5.238281 L 259 -4 Z M -4 -4 "/>
<path style="fill:none;stroke-width:1;stroke-linecap:round;stroke-linejoin:round;stroke:rgb(70.196078%,77.647059%,83.137255%);stroke-opacity:1;stroke-miterlimit:10;" d="M -4 -4 L 259 -4 L 114.234375 -4 L 113.589844 0.140625 L 106.589844 6.953125 L 259 5.238281 L 259 -4 L -4 -4 "/>
<path style=" stroke:none;fill-rule:evenodd;fill:rgb(60%,70.196078%,80%);fill-opacity:1;" d="M 259 259 L 259 5.238281 L 106.589844 6.953125 L 101.558594 23.902344 L 90.621094 44.582031 L 85.84375 68.386719 L 87.835938 90.621094 L 95.789063 109.277344 L 99.957031 125.5625 L 98.082031 127.375 L 94.277344 131.054688 L 92.382813 136.929688 L 93.898438 143.746094 L 95.03125 152.835938 L 92.191406 157.191406 L 93.519531 175.5625 L 91.054688 183.894531 L 93.21875 193.476563 L 91.230469 196.792969 L 91.417969 206.828125 L 89.050781 213.265625 L 81.289063 214.121094 L 78.257813 218.761719 L 77.972656 224.347656 L 80.058594 232.019531 L 77.554688 252.582031 L 79.496094 255.0625 L 91.613281 257.40625 L 91.660156 259 Z M 259 259 "/>
<path style="fill:none;stroke-width:1;stroke-linecap:round;stroke-linejoin:round;stroke:rgb(70.196078%,77.647059%,83.137255%);stroke-opacity:1;stroke-miterlimit:10;" d="M 259 259 L 259 5.238281 L 106.589844 6.953125 L 101.558594 23.902344 L 90.621094 44.582031 L 85.84375 68.386719 L 87.835938 90.621094 L 95.789063 109.277344 L 99.957031 125.5625 L 98.082031 127.375 L 94.277344 131.054688 L 92.382813 136.929688 L 93.898438 143.746094 L 95.03125 152.835938 L 92.191406 157.191406 L 93.519531 175.5625 L 91.054688 183.894531 L 93.21875 193.476563 L 91.230469 196.792969 L 91.417969 206.828125 L 89.050781 213.265625 L 81.289063 214.121094 L 78.257813 218.761719 L 77.972656 224.347656 L 80.058594 232.019531 L 77.554688 252.582031 L 79.496094 255.0625 L 91.613281 257.40625 L 91.660156 259 L 259 259 "/>
<path style="fill:none;stroke-width:8;stroke-linecap:round;stroke-linejoin:round;stroke:rgb(75.686275%,70.980392%,61.568627%);stroke-opacity:1;stroke-miterlimit:10;" d="M 48.253906 229.292969 L 49.234375 230.75 L 50.46875 232.238281 L 51.277344 234.027344 L 51.359375 235.515625 L 51.019531 237.511719 L 50.382813 238.871094 L 48.855469 240.785156 L 47.152344 242.402344 L 45.792969 243.507813 L 44.59375 244.429688 "/>
<path style="fill:none;stroke-width:8;stroke-linecap:round;stroke-linejoin:round;stroke:rgb(75.686275%,70.980392%,61.568627%);stroke-opacity:1;stroke-miterlimit:10;" d="M 51.039063 223.035156 L 52.976563 224.207031 L 55.101563 226.800781 L 57.226563 229.777344 L 58.164063 231.859375 L 58.632813 234.195313 L 58.585938 235.941406 L 58.164063 239.085938 L 57.441406 241.167969 L 56.121094 243.546875 L 54.253906 245.804688 L 51.660156 247.714844 L 48.808594 249.628906 L 46.554688 250.820313 L 44.8125 252.007813 L 43.539063 252.945313 L 42.425781 254.054688 "/>
<path style="fill:none;stroke-width:8;stroke-linecap:round;stroke-linejoin:round;stroke:rgb(75.686275%,70.980392%,61.568627%);stroke-opacity:1;stroke-miterlimit:10;" d="M 20.609375 165.25 L 63.484375 162.652344 "/>
<path style="fill:none;stroke-width:8;stroke-linecap:round;stroke-linejoin:round;stroke:rgb(75.686275%,70.980392%,61.568627%);stroke-opacity:1;stroke-miterlimit:10;" d="M -0.0664063 -9 L -0.222656 -6.820313 L -1.617188 1.054688 L -3.46875 4.929688 L -6.472656 7.988281 L -7.847656 12.179688 L -9 14.804688 "/>
<path style="fill:none;stroke-width:8;stroke-linecap:round;stroke-linejoin:round;stroke:rgb(75.686275%,70.980392%,61.568627%);stroke-opacity:1;stroke-miterlimit:10;" d="M 50.972656 117.023438 L 50.550781 121.246094 L 49.832031 122.40625 L 48.640625 122.65625 L 25.339844 120.058594 L 24.058594 120.339844 L 22.964844 121.089844 L 21.378906 123.09375 L 20.609375 125.9375 L 21.84375 159.714844 L 21.726563 161.589844 L 20.609375 165.25 "/>
<path style="fill:none;stroke-width:8;stroke-linecap:round;stroke-linejoin:round;stroke:rgb(75.686275%,70.980392%,61.568627%);stroke-opacity:1;stroke-miterlimit:10;" d="M 20.609375 165.25 L 19.421875 164.433594 L 17 163.714844 L 12.828125 163.371094 L 9.679688 163.996094 L 7.210938 165.375 L 4.835938 167.59375 L 3.320313 169.910156 L 0.941406 175.664063 L 0.5 178.226563 L 0.734375 184.542969 L 0.546875 194.988281 L -0.339844 207.683594 L -0.851563 211.71875 L -7.097656 233.046875 L -7.421875 237.925781 L -6.234375 253.875 L -6.675781 259.316406 L -7.398438 261.847656 L -8.449219 263.285156 L -9 263.441406 "/>
<path style="fill:none;stroke-width:8;stroke-linecap:round;stroke-linejoin:round;stroke:rgb(75.686275%,70.980392%,61.568627%);stroke-opacity:1;stroke-miterlimit:10;" d="M 40.34375 264 L 42.425781 254.054688 L 43.46875 249.089844 L 44.59375 244.429688 L 48.253906 229.292969 L 49.085938 225.855469 L 50.226563 223.851563 L 51.039063 223.035156 L 53.882813 220.164063 L 54.746094 217.535156 L 54.933594 216.035156 L 55.375 211.25 L 55.886719 200.773438 L 56.726563 189.953125 L 57.753906 180.730469 L 57.753906 175.820313 L 57.542969 174.222656 L 36.222656 174.691406 L 32.074219 174.347656 L 29.230469 173.316406 L 26.855469 171.722656 L 20.609375 165.25 "/>
<path style="fill:none;stroke-width:6;stroke-linecap:round;stroke-linejoin:round;stroke:rgb(100%,100%,100%);stroke-opacity:1;stroke-miterlimit:10;" d="M 48.253906 229.292969 L 49.234375 230.75 L 50.46875 232.238281 L 51.277344 234.027344 L 51.359375 235.515625 L 51.019531 237.511719 L 50.382813 238.871094 L 48.855469 240.785156 L 47.152344 242.402344 L 45.792969 243.507813 L 44.59375 244.429688 "/>
<path style="fill:none;stroke-width:6;stroke-linecap:round;stroke-linejoin:round;stroke:rgb(100%,100%,100%);stroke-opacity:1;stroke-miterlimit:10;" d="M 51.039063 223.035156 L 52.976563 224.207031 L 55.101563 226.800781 L 57.226563 229.777344 L 58.164063 231.859375 L 58.632813 234.195313 L 58.585938 235.941406 L 58.164063 239.085938 L 57.441406 241.167969 L 56.121094 243.546875 L 54.253906 245.804688 L 51.660156 247.714844 L 48.808594 249.628906 L 46.554688 250.820313 L 44.8125 252.007813 L 43.539063 252.945313 L 42.425781 254.054688 "/>
<path style="fill:none;stroke-width:6;stroke-linecap:round;stroke-linejoin:round;stroke:rgb(100%,100%,100%);stroke-opacity:1;stroke-miterlimit:10;" d="M 20.609375 165.25 L 63.484375 162.652344 "/>
<path style="fill:none;stroke-width:6;stroke-linecap:round;stroke-linejoin:round;stroke:rgb(100%,100%,100%);stroke-opacity:1;stroke-miterlimit:10;" d="M -0.0664063 -9 L -0.222656 -6.820313 L -1.617188 1.054688 L -3.46875 4.929688 L -6.472656 7.988281 L -7.847656 12.179688 L -9 14.804688 "/>
<path style="fill:none;stroke-width:6;stroke-linecap:round;stroke-linejoin:round;stroke:rgb(100%,100%,100%);stroke-opacity:1;stroke-miterlimit:10;" d="M 50.972656 117.023438 L 50.550781 121.246094 L 49.832031 122.40625 L 48.640625 122.65625 L 25.339844 120.058594 L 24.058594 120.339844 L 22.964844 121.089844 L 21.378906 123.09375 L 20.609375 125.9375 L 21.84375 159.714844 L 21.726563 161.589844 L 20.609375 165.25 "/>
<path style="fill:none;stroke-width:6;stroke-linecap:round;stroke-linejoin:round;stroke:rgb(100%,100%,100%);stroke-opacity:1;stroke-miterlimit:10;" d="M 20.609375 165.25 L 19.421875 164.433594 L 17 163.714844 L 12.828125 163.371094 L 9.679688 163.996094 L 7.210938 165.375 L 4.835938 167.59375 L 3.320313 169.910156 L 0.941406 175.664063 L 0.5 178.226563 L 0.734375 184.542969 L 0.546875 194.988281 L -0.339844 207.683594 L -0.851563 211.71875 L -7.097656 233.046875 L -7.421875 237.925781 L -6.234375 253.875 L -6.675781 259.316406 L -7.398438 261.847656 L -8.449219 263.285156 L -9 263.441406 "/>
<path style="fill:none;stroke-width:6;stroke-linecap:round;stroke-linejoin:round;stroke:rgb(100%,100%,100%);stroke-opacity:1;stroke-miterlimit:10;" d="M 40.34375 264 L 42.425781 254.054688 L 43.46875 249.089844 L 44.59375 244.429688 L 48.253906 229.292969 L 49.085938 225.855469 L 50.226563 223.851563 L 51.039063 223.035156 L 53.882813 220.164063 L 54.746094 217.535156 L 54.933594 216.035156 L 55.375 211.25 L 55.886719 200.773438 L 56.726563 189.953125 L 57.753906 180.730469 L 57.753906 175.820313 L 57.542969 174.222656 L 36.222656 174.691406 L 32.074219 174.347656 L 29.230469 173.316406 L 26.855469 171.722656 L 20.609375 165.25 "/>
</g>
</svg>

