<?xml version="1.0" encoding="UTF-8"?>
<svg xmlns="http://www.w3.org/2000/svg" xmlns:xlink="http://www.w3.org/1999/xlink" width="256pt" height="256pt" viewBox="0 0 256 256" version="1.1">
<g id="surface2">
<rect x="0" y="0" width="256" height="256" style="fill:rgb(60%,70.196078%,80%);fill-opacity:1;stroke:none;"/>
<path style=" stroke:none;fill-rule:evenodd;fill:rgb(94.901961%,93.72549%,91.372549%);fill-opacity:1;" d="M -4 259 L 259 259 L -4 259 L 28.78125 259 L 33 252.230469 L 46.25 248.730469 L 77.25 209.980469 L 116.128906 135.023438 L 157.75 65.976563 L 167.5 62.980469 L 190.5 24.730469 L 198 22.726563 L 208.5 5.730469 L 212.152344 -4 L 259 -4 L 259 259 Z M -4 259 "/>
<path style=" stroke:none;fill-rule:evenodd;fill:rgb(94.901961%,93.72549%,91.372549%);fill-opacity:1;" d="M -4 260 L 260 260 L 243.945313 260 L 229.148438 172.125 L 149.074219 185.90625 L 141.566406 187.199219 L 145.789063 215.96875 L 134.503906 213.167969 L 109.289063 203.308594 L 89.929688 227.765625 L 61.648438 255.625 L 56.726563 260 Z M -4 260 "/>
<path style="fill:none;stroke-width:1;stroke-linecap:round;stroke-linejoin:round;stroke:rgb(89.019608%,87.058824%,83.137255%);stroke-opacity:1;stroke-miterlimit:10;" d="M -4 260 L 260 260 L 243.945313 260 L 229.148438 172.125 L 149.074219 185.90625 L 141.566406 187.199219 L 145.789063 215.96875 L 134.503906 213.167969 L 109.289063 203.308594 L 89.929688 227.765625 L 61.648438 255.625 L 56.726563 260 L -4 260 "/>
<path style=" stroke:none;fill-rule:evenodd;fill:rgb(70.980392%,82.352941%,61.176471%);fill-opacity:1;" d="M 212.625 77.863281 L 230.25 172.050781 L 244.632813 260 L 260 260 L 260 -4 L 224.710938 -4 L 208.0625 35.863281 L 171.1875 70.050781 Z M 212.625 77.863281 "/>
<path style=" stroke:none;fill-rule:evenodd;fill:rgb(87.058824%,82.352941%,67.45098%);fill-opacity:1;" d="M 124.648438 154.121094 L 127.347656 160.363281 L 141.566406 187.199219 L 149.074219 185.90625 L 229.148438 172.125 L 209.648438 79.121094 L 180.148438 72.714844 L 164.386719 72.472656 L 131.890625 135.269531 Z M 124.648438 154.121094 "/>
<path style=" stroke:none;fill-rule:evenodd;fill:rgb(60%,70.196078%,80%);fill-opacity:1;" d="M 148.804688 258.765625 L 149.132813 259 L 151.34375 258.925781 L 168.117188 259 L 169.398438 258.515625 L 170.683594 255.871094 L 172.078125 255.367188 L 172.257813 254.332031 L 171.578125 252.90625 L 169.863281 252.90625 L 169.933594 254.726563 L 169.792969 256.476563 L 168.398438 256.082031 L 167.753906 254.796875 L 167.863281 253.546875 L 167.578125 252.332031 L 165.613281 251.972656 L 164.21875 252.832031 L 161.113281 254.867188 L 159.613281 255.191406 L 156.003906 255.367188 L 154.894531 256.40625 L 153.609375 256.691406 L 150.003906 256.261719 L 148.730469 257.011719 L 148.570313 257.726563 Z M 148.804688 258.765625 "/>
<path style="fill:none;stroke-width:1;stroke-linecap:round;stroke-linejoin:round;stroke:rgb(70.196078%,77.647059%,83.137255%);stroke-opacity:1;stroke-miterlimit:10;" d="M 148.804688 258.765625 L 149.132813 259 L 151.34375 258.925781 L 168.117188 259 L 169.398438 258.515625 L 170.683594 255.871094 L 172.078125 255.367188 L 172.257813 254.332031 L 171.578125 252.90625 L 169.863281 252.90625 L 169.933594 254.726563 L 169.792969 256.476563 L 168.398438 256.082031 L 167.753906 254.796875 L 167.863281 253.546875 L 167.578125 252.332031 L 165.613281 251.972656 L 164.21875 252.832031 L 161.113281 254.867188 L 159.613281 255.191406 L 156.003906 255.367188 L 154.894531 256.40625 L 153.609375 256.691406 L 150.003906 256.261719 L 148.730469 257.011719 L 148.570313 257.726563 L 148.804688 258.765625 "/>
<path style="fill:none;stroke-width:8;stroke-linecap:round;stroke-linejoin:round;stroke:rgb(75.686275%,70.980392%,61.568627%);stroke-opacity:1;stroke-miterlimit:10;" d="M 169.714844 175.085938 L 170.527344 171.324219 "/>
<path style="fill:none;stroke-width:8;stroke-linecap:round;stroke-linejoin:round;stroke:rgb(75.686275%,70.980392%,61.568627%);stroke-opacity:1;stroke-miterlimit:10;" d="M 182.34375 191.390625 L 183.273438 192.898438 L 185.417969 193.855469 "/>
<path style="fill:none;stroke-width:8;stroke-linecap:round;stroke-linejoin:round;stroke:rgb(75.686275%,70.980392%,61.568627%);stroke-opacity:1;stroke-miterlimit:10;" d="M 177.285156 207.539063 L 179.800781 205.074219 L 185.160156 198.878906 "/>
<path style="fill:none;stroke-width:8;stroke-linecap:round;stroke-linejoin:round;stroke:rgb(75.686275%,70.980392%,61.568627%);stroke-opacity:1;stroke-miterlimit:10;" d="M 185.652344 180.601563 L 185.675781 191.542969 L 185.417969 193.855469 L 185.605469 195.148438 L 185.160156 198.878906 L 184.953125 200.972656 L 184.019531 204.796875 L 183.15625 207.414063 L 182.015625 209.757813 L 180.152344 211.269531 L 177.753906 214.101563 "/>
<path style="fill:none;stroke-width:8;stroke-linecap:round;stroke-linejoin:round;stroke:rgb(75.686275%,70.980392%,61.568627%);stroke-opacity:1;stroke-miterlimit:10;" d="M 126.769531 145.652344 L 129.425781 147.222656 L 133.058594 147.992188 L 134.132813 148.242188 L 135.644531 148.085938 L 139.839844 147.101563 L 145.550781 146.113281 L 150.257813 145.929688 L 155.171875 144.941406 L 157.6875 143.246094 L 158.644531 141.675781 L 158.972656 140.320313 L 159.15625 138.53125 L 158.949219 136.34375 "/>
<path style="fill:none;stroke-width:8;stroke-linecap:round;stroke-linejoin:round;stroke:rgb(75.686275%,70.980392%,61.568627%);stroke-opacity:1;stroke-miterlimit:10;" d="M 246.644531 225.242188 L 248.644531 225.082031 L 252.675781 225.003906 L 255.851563 225.261719 L 260.375 224.878906 L 263.6875 223.992188 L 264 223.753906 M 264 212.722656 L 262.046875 211.535156 L 259.265625 211.488281 L 254.96875 212.722656 L 253.476563 213.648438 "/>
<path style="fill:none;stroke-width:8;stroke-linecap:round;stroke-linejoin:round;stroke:rgb(75.686275%,70.980392%,61.568627%);stroke-opacity:1;stroke-miterlimit:10;" d="M 161.300781 156.714844 L 161.695313 160.324219 L 162.09375 162.417969 L 163.863281 167.566406 L 165.984375 170.925781 L 167.3125 172.710938 L 169.714844 175.085938 L 170.527344 175.917969 L 171.832031 176.75 L 173.535156 176.933594 L 180.035156 176.472656 L 182.644531 176.472656 L 189.683594 175.886719 "/>
<path style="fill:none;stroke-width:8;stroke-linecap:round;stroke-linejoin:round;stroke:rgb(75.686275%,70.980392%,61.568627%);stroke-opacity:1;stroke-miterlimit:10;" d="M 219.742188 164.238281 L 220.347656 162.664063 L 220.347656 160.628906 L 219.460938 154.742188 L 218.578125 150.429688 L 217.320313 145.40625 L 216.128906 142.261719 L 215.546875 140.351563 L 214.847656 136.25 L 213.871094 133.230469 L 213.265625 130.917969 L 212.984375 129.191406 L 212.191406 127.589844 L 211.003906 126.695313 L 204.992188 123.246094 L 200.097656 119.699219 "/>
<path style="fill:none;stroke-width:8;stroke-linecap:round;stroke-linejoin:round;stroke:rgb(75.686275%,70.980392%,61.568627%);stroke-opacity:1;stroke-miterlimit:10;" d="M 184.625 136.3125 L 197.488281 146.730469 L 203.289063 151.074219 L 208.371094 155.296875 L 213.355469 159.242188 L 216.550781 161.460938 L 219.742188 164.238281 L 223.238281 167.441406 L 224.660156 169.199219 L 225.195313 170.707031 L 226.101563 174.066406 "/>
<path style="fill:none;stroke-width:8;stroke-linecap:round;stroke-linejoin:round;stroke:rgb(75.686275%,70.980392%,61.568627%);stroke-opacity:1;stroke-miterlimit:10;" d="M 155.195313 92.207031 L 150.257813 95.382813 L 147.644531 98.894531 L 144.734375 103.117188 L 141.703125 108.019531 L 139.1875 113.84375 L 138.070313 118.558594 L 135.832031 125.277344 L 132.710938 133.601563 L 129.867188 140.011719 L 127.605469 144.355469 L 126.769531 145.652344 L 123.320313 145.34375 "/>
<path style="fill:none;stroke-width:8;stroke-linecap:round;stroke-linejoin:round;stroke:rgb(75.686275%,70.980392%,61.568627%);stroke-opacity:1;stroke-miterlimit:10;" d="M 133.058594 147.992188 L 132.894531 152.554688 L 133.386719 155.976563 L 134.386719 159.089844 L 136.273438 161.308594 L 138.863281 162.449219 L 140.65625 162.757813 L 142.054688 162.757813 L 147.878906 161.863281 L 151.046875 160.847656 L 154.566406 159.488281 L 159.878906 157.148438 L 161.300781 156.714844 L 164.515625 151.324219 L 165.960938 149.351563 L 167.546875 148.054688 L 168.96875 147.53125 L 170.855469 147.316406 L 172.136719 147.625 L 173.929688 148.765625 L 175.074219 149.84375 L 176.121094 151.445313 L 177.238281 154.003906 L 178.707031 161.585938 L 179.382813 163.40625 L 180.433594 164.699219 L 182.085938 166.148438 L 184.578125 167.441406 L 186.140625 167.964844 L 188.191406 168.273438 L 189.753906 170.03125 L 190.054688 172.21875 L 189.683594 175.886719 L 189.800781 179.800781 "/>
<path style="fill:none;stroke-width:8;stroke-linecap:round;stroke-linejoin:round;stroke:rgb(75.686275%,70.980392%,61.568627%);stroke-opacity:1;stroke-miterlimit:10;" d="M 254.839844 150.480469 L 254.894531 148.429688 L 254.429688 146.53125 L 253.5 145.140625 L 252.144531 144.320313 L 250.855469 144.105469 L 245.964844 144.5 L 244.394531 144.960938 L 243.214844 145.785156 L 242.355469 147.25 L 242.070313 148.890625 L 242.105469 150.609375 L 242.453125 151.613281 L 243.035156 152.429688 "/>
<path style="fill:none;stroke-width:8;stroke-linecap:round;stroke-linejoin:round;stroke:rgb(75.686275%,70.980392%,61.568627%);stroke-opacity:1;stroke-miterlimit:10;" d="M 85.1875 264 L 86.804688 250.6875 L 86.828125 242.734375 L 86.246094 240.207031 "/>
<path style="fill:none;stroke-width:8;stroke-linecap:round;stroke-linejoin:round;stroke:rgb(75.686275%,70.980392%,61.568627%);stroke-opacity:1;stroke-miterlimit:10;" d="M 142.660156 254.570313 L 148.394531 249.003906 L 150.234375 248.21875 L 152.070313 247.578125 L 168.199219 246.1875 L 170.738281 244.585938 L 174.375 240.207031 L 175.304688 239.777344 L 176.335938 238.703125 L 177.867188 236.902344 L 180.582031 235.792969 L 183.652344 235.4375 L 236.054688 232.441406 "/>
<path style="fill:none;stroke-width:8;stroke-linecap:round;stroke-linejoin:round;stroke:rgb(75.686275%,70.980392%,61.568627%);stroke-opacity:1;stroke-miterlimit:10;" d="M 182.535156 264 L 176.335938 238.703125 "/>
<path style="fill:none;stroke-width:8;stroke-linecap:round;stroke-linejoin:round;stroke:rgb(75.686275%,70.980392%,61.568627%);stroke-opacity:1;stroke-miterlimit:10;" d="M 264 254.230469 L 261.046875 248.71875 L 258.332031 242.074219 L 256.332031 235.074219 L 255.6875 230.929688 L 255.617188 226.574219 L 255.851563 225.261719 L 256.261719 223 L 258.191406 217.355469 L 260.191406 213.140625 L 261.140625 211.472656 L 264 206.460938 M 264 155.25 L 261.621094 153.339844 L 257.6875 150.980469 L 254.839844 150.480469 L 244.183594 151.410156 L 243.351563 151.992188 L 242.972656 154.125 L 247.6875 183.703125 L 251.152344 194.472656 L 251.851563 197.277344 L 253.367188 210.4375 L 253.476563 213.648438 L 253.527344 215.121094 L 252.503906 218.109375 L 250.40625 221.097656 L 247.515625 224.398438 L 246.644531 225.242188 L 243.578125 228.21875 L 239.546875 231.207031 L 237.777344 232.132813 L 236.054688 232.441406 "/>
<path style="fill:none;stroke-width:8;stroke-linecap:round;stroke-linejoin:round;stroke:rgb(75.686275%,70.980392%,61.568627%);stroke-opacity:1;stroke-miterlimit:10;" d="M 134.441406 264 L 135.53125 261.6875 L 137.464844 259.347656 L 142.660156 254.570313 "/>
<path style="fill:none;stroke-width:8;stroke-linecap:round;stroke-linejoin:round;stroke:rgb(75.686275%,70.980392%,61.568627%);stroke-opacity:1;stroke-miterlimit:10;" d="M 226.101563 174.066406 L 189.800781 179.800781 L 185.652344 180.601563 L 180.457031 181.402344 L 149.074219 185.90625 L 141.566406 187.199219 L 135.34375 174.683594 L 131.753906 167.75 L 128.863281 162.511719 L 127.792969 159.890625 "/>
<path style="fill:none;stroke-width:8;stroke-linecap:round;stroke-linejoin:round;stroke:rgb(75.686275%,70.980392%,61.568627%);stroke-opacity:1;stroke-miterlimit:10;" d="M 241.628906 264 L 238.40625 245.015625 L 236.054688 232.441406 L 226.453125 175.332031 L 226.101563 174.066406 "/>
<path style="fill:none;stroke-width:6;stroke-linecap:round;stroke-linejoin:round;stroke:rgb(100%,100%,100%);stroke-opacity:1;stroke-miterlimit:10;" d="M 169.714844 175.085938 L 170.527344 171.324219 "/>
<path style="fill:none;stroke-width:6;stroke-linecap:round;stroke-linejoin:round;stroke:rgb(100%,100%,100%);stroke-opacity:1;stroke-miterlimit:10;" d="M 182.34375 191.390625 L 183.273438 192.898438 L 185.417969 193.855469 "/>
<path style="fill:none;stroke-width:6;stroke-linecap:round;stroke-linejoin:round;stroke:rgb(100%,100%,100%);stroke-opacity:1;stroke-miterlimit:10;" d="M 177.285156 207.539063 L 179.800781 205.074219 L 185.160156 198.878906 "/>
<path style="fill:none;stroke-width:6;stroke-linecap:round;stroke-linejoin:round;stroke:rgb(100%,100%,100%);stroke-opacity:1;stroke-miterlimit:10;" d="M 185.652344 180.601563 L 185.675781 191.542969 L 185.417969 193.855469 L 185.605469 195.148438 L 185.160156 198.878906 L 184.953125 200.972656 L 184.019531 204.796875 L 183.15625 207.414063 L 182.015625 209.757813 L 180.152344 211.269531 L 177.753906 214.101563 "/>
<path style="fill:none;stroke-width:6;stroke-linecap:round;stroke-linejoin:round;stroke:rgb(100%,100%,100%);stroke-opacity:1;stroke-miterlimit:10;" d="M 126.769531 145.652344 L 129.425781 147.222656 L 133.058594 147.992188 L 134.132813 148.242188 L 135.644531 148.085938 L 139.839844 147.101563 L 145.550781 146.113281 L 150.257813 145.929688 L 155.171875 144.941406 L 157.6875 143.246094 L 158.644531 141.675781 L 158.972656 140.320313 L 159.15625 138.53125 L 158.949219 136.34375 "/>
<path style="fill:none;stroke-width:6;stroke-linecap:round;stroke-linejoin:round;stroke:rgb(100%,100%,100%);stroke-opacity:1;stroke-miterlimit:10;" d="M 246.644531 225.242188 L 248.644531 225.082031 L 252.675781 225.003906 L 255.851563 225.261719 L 260.375 224.878906 L 263.6875 223.992188 L 264 223.753906 M 264 212.722656 L 262.046875 211.535156 L 259.265625 211.488281 L 254.96875 212.722656 L 253.476563 213.648438 "/>
<path style="fill:none;stroke-width:6;stroke-linecap:round;stroke-linejoin:round;stroke:rgb(100%,100%,100%);stroke-opacity:1;stroke-miterlimit:10;" d="M 161.300781 156.714844 L 161.695313 160.324219 L 162.09375 162.417969 L 163.863281 167.566406 L 165.984375 170.925781 L 167.3125 172.710938 L 169.714844 175.085938 L 170.527344 175.917969 L 171.832031 176.75 L 173.535156 176.933594 L 180.035156 176.472656 L 182.644531 176.472656 L 189.683594 175.886719 "/>
<path style="fill:none;stroke-width:6;stroke-linecap:round;stroke-linejoin:round;stroke:rgb(100%,100%,100%);stroke-opacity:1;stroke-miterlimit:10;" d="M 219.742188 164.238281 L 220.347656 162.664063 L 220.347656 160.628906 L 219.460938 154.742188 L 218.578125 150.429688 L 217.320313 145.40625 L 216.128906 142.261719 L 215.546875 140.351563 L 214.847656 136.25 L 213.871094 133.230469 L 213.265625 130.917969 L 212.984375 129.191406 L 212.191406 127.589844 L 211.003906 126.695313 L 204.992188 123.246094 L 200.097656 119.699219 "/>
<path style="fill:none;stroke-width:6;stroke-linecap:round;stroke-linejoin:round;stroke:rgb(100%,100%,100%);stroke-opacity:1;stroke-miterlimit:10;" d="M 184.625 136.3125 L 197.488281 146.730469 L 203.289063 151.074219 L 208.371094 155.296875 L 213.355469 159.242188 L 216.550781 161.460938 L 219.742188 164.238281 L 223.238281 167.441406 L 224.660156 169.199219 L 225.195313 170.707031 L 226.101563 174.066406 "/>
<path style="fill:none;stroke-width:6;stroke-linecap:round;stroke-linejoin:round;stroke:rgb(100%,100%,100%);stroke-opacity:1;stroke-miterlimit:10;" d="M 155.195313 92.207031 L 150.257813 95.382813 L 147.644531 98.894531 L 144.734375 103.117188 L 141.703125 108.019531 L 139.1875 113.84375 L 138.070313 118.558594 L 135.832031 125.277344 L 132.710938 133.601563 L 129.867188 140.011719 L 127.605469 144.355469 L 126.769531 145.652344 L 123.320313 145.34375 "/>
<path style="fill:none;stroke-width:6;stroke-linecap:round;stroke-linejoin:round;stroke:rgb(100%,100%,100%);stroke-opacity:1;stroke-miterlimit:10;" d="M 133.058594 147.992188 L 132.894531 152.554688 L 133.386719 155.976563 L 134.386719 159.089844 L 136.273438 161.308594 L 138.863281 162.449219 L 140.65625 162.757813 L 142.054688 162.757813 L 147.878906 161.863281 L 151.046875 160.847656 L 154.566406 159.488281 L 159.878906 157.148438 L 161.300781 156.714844 L 164.515625 151.324219 L 165.960938 149.351563 L 167.546875 148.054688 L 168.96875 147.53125 L 170.855469 147.316406 L 172.136719 147.625 L 173.929688 148.765625 L 175.074219 149.84375 L 176.121094 151.445313 L 177.238281 154.003906 L 178.707031 161.585938 L 179.382813 163.40625 L 180.433594 164.699219 L 182.085938 166.148438 L 184.578125 167.441406 L 186.140625 167.964844 L 188.191406 168.273438 L 189.753906 170.03125 L 190.054688 172.21875 L 189.683594 175.886719 L 189.800781 179.800781 "/>
<path style="fill:none;stroke-width:6;stroke-linecap:round;stroke-linejoin:round;stroke:rgb(100%,100%,100%);stroke-opacity:1;stroke-miterlimit:10;" d="M 254.839844 150.480469 L 254.894531 148.429688 L 254.429688 146.53125 L 253.5 145.140625 L 252.144531 144.320313 L 250.855469 144.105469 L 245.964844 144.5 L 244.394531 144.960938 L 243.214844 145.785156 L 242.355469 147.25 L 242.070313 148.890625 L 242.105469 150.609375 L 242.453125 151.613281 L 243.035156 152.429688 "/>
<path style="fill:none;stroke-width:6;stroke-linecap:round;stroke-linejoin:round;stroke:rgb(100%,100%,100%);stroke-opacity:1;stroke-miterlimit:10;" d="M 85.1875 264 L 86.804688 250.6875 L 86.828125 242.734375 L 86.246094 240.207031 "/>
<path style="fill:none;stroke-width:6;stroke-linecap:round;stroke-linejoin:round;stroke:rgb(100%,100%,100%);stroke-opacity:1;stroke-miterlimit:10;" d="M 142.660156 254.570313 L 148.394531 249.003906 L 150.234375 248.21875 L 152.070313 247.578125 L 168.199219 246.1875 L 170.738281 244.585938 L 174.375 240.207031 L 175.304688 239.777344 L 176.335938 238.703125 L 177.867188 236.902344 L 180.582031 235.792969 L 183.652344 235.4375 L 236.054688 232.441406 "/>
<path style="fill:none;stroke-width:6;stroke-linecap:round;stroke-linejoin:round;stroke:rgb(100%,100%,100%);stroke-opacity:1;stroke-miterlimit:10;" d="M 182.535156 264 L 176.335938 238.703125 "/>
<path style="fill:none;stroke-width:6;stroke-linecap:round;stroke-linejoin:round;stroke:rgb(100%,100%,100%);stroke-opacity:1;stroke-miterlimit:10;" d="M 264 254.230469 L 261.046875 248.71875 L 258.332031 242.074219 L 256.332031 235.074219 L 255.6875 230.929688 L 255.617188 226.574219 L 255.851563 225.261719 L 256.261719 223 L 258.191406 217.355469 L 260.191406 213.140625 L 261.140625 211.472656 L 264 206.460938 M 264 155.25 L 261.621094 153.339844 L 257.6875 150.980469 L 254.839844 150.480469 L 244.183594 151.410156 L 243.351563 151.992188 L 242.972656 154.125 L 247.6875 183.703125 L 251.152344 194.472656 L 251.851563 197.277344 L 253.367188 210.4375 L 253.476563 213.648438 L 253.527344 215.121094 L 252.503906 218.109375 L 250.40625 221.097656 L 247.515625 224.398438 L 246.644531 225.242188 L 243.578125 228.21875 L 239.546875 231.207031 L 237.777344 232.132813 L 236.054688 232.441406 "/>
<path style="fill:none;stroke-width:6;stroke-linecap:round;stroke-linejoin:round;stroke:rgb(100%,100%,100%);stroke-opacity:1;stroke-miterlimit:10;" d="M 134.441406 264 L 135.53125 261.6875 L 137.464844 259.347656 L 142.660156 254.570313 "/>
<path style="fill:none;stroke-width:6;stroke-linecap:round;stroke-linejoin:round;stroke:rgb(100%,99.215686%,54.509804%);stroke-opacity:1;stroke-miterlimit:10;" d="M 226.101563 174.066406 L 189.800781 179.800781 L 185.652344 180.601563 L 180.457031 181.402344 L 149.074219 185.90625 L 141.566406 187.199219 L 135.34375 174.683594 L 131.753906 167.75 L 128.863281 162.511719 L 127.792969 159.890625 "/>
<path style="fill:none;stroke-width:6;stroke-linecap:round;stroke-linejoin:round;stroke:rgb(100%,99.215686%,54.509804%);stroke-opacity:1;stroke-miterlimit:10;" d="M 241.628906 264 L 238.40625 245.015625 L 236.054688 232.441406 L 226.453125 175.332031 L 226.101563 174.066406 "/>
<path style="fill:none;stroke-width:3;stroke-linecap:round;stroke-linejoin:round;stroke:rgb(100%,100%,100%);stroke-opacity:1;stroke-miterlimit:10;" d="M 141.902344 118.847656 L 142.886719 118.847656 L 144.402344 125.628906 L 145.917969 118.847656 L 147.011719 118.847656 L 148.542969 125.628906 L 150.042969 118.847656 L 151.042969 118.847656 L 149.230469 126.863281 L 147.996094 126.863281 L 146.480469 119.894531 L 144.933594 126.863281 L 143.714844 126.863281 Z M 156.917969 123.613281 L 156.917969 124.097656 L 152.824219 124.097656 C 152.863281 124.777344 153.050781 125.292969 153.386719 125.644531 C 153.71875 126 154.175781 126.175781 154.761719 126.175781 C 155.105469 126.175781 155.433594 126.128906 155.746094 126.035156 C 156.066406 125.941406 156.390625 125.808594 156.714844 125.628906 L 156.714844 126.550781 C 156.390625 126.707031 156.0625 126.824219 155.730469 126.894531 C 155.394531 126.976563 155.058594 127.019531 154.714844 127.019531 C 153.847656 127.019531 153.160156 126.746094 152.652344 126.191406 C 152.152344 125.628906 151.902344 124.871094 151.902344 123.910156 C 151.902344 122.933594 152.140625 122.15625 152.621094 121.582031 C 153.097656 121 153.746094 120.707031 154.558594 120.707031 C 155.285156 120.707031 155.859375 120.96875 156.277344 121.488281 C 156.703125 122.011719 156.917969 122.71875 156.917969 123.613281 Z M 156.027344 123.316406 C 156.015625 122.777344 155.878906 122.34375 155.621094 122.019531 C 155.359375 121.699219 155.011719 121.535156 154.574219 121.535156 C 154.074219 121.535156 153.671875 121.691406 153.371094 122.003906 C 153.066406 122.316406 152.894531 122.753906 152.855469 123.316406 Z M 162.261719 123.863281 C 162.261719 123.136719 162.125 122.566406 161.855469 122.160156 C 161.59375 121.746094 161.230469 121.535156 160.761719 121.535156 C 160.28125 121.535156 159.90625 121.746094 159.636719 122.160156 C 159.375 122.566406 159.246094 123.136719 159.246094 123.863281 C 159.246094 124.59375 159.375 125.167969 159.636719 125.582031 C 159.90625 125.988281 160.28125 126.191406 160.761719 126.191406 C 161.230469 126.191406 161.59375 125.988281 161.855469 125.582031 C 162.125 125.167969 162.261719 124.59375 162.261719 123.863281 Z M 159.246094 121.753906 C 159.433594 121.402344 159.667969 121.140625 159.949219 120.972656 C 160.230469 120.796875 160.574219 120.707031 160.980469 120.707031 C 161.636719 120.707031 162.167969 121 162.574219 121.582031 C 162.980469 122.15625 163.183594 122.917969 163.183594 123.863281 C 163.183594 124.8125 162.980469 125.578125 162.574219 126.160156 C 162.167969 126.734375 161.636719 127.019531 160.980469 127.019531 C 160.574219 127.019531 160.230469 126.933594 159.949219 126.769531 C 159.667969 126.59375 159.433594 126.324219 159.246094 125.957031 L 159.246094 126.863281 L 158.339844 126.863281 L 158.339844 118.503906 L 159.246094 118.503906 Z M 168.542969 123.863281 C 168.542969 123.136719 168.40625 122.566406 168.136719 122.160156 C 167.875 121.746094 167.511719 121.535156 167.042969 121.535156 C 166.5625 121.535156 166.1875 121.746094 165.917969 122.160156 C 165.65625 122.566406 165.527344 123.136719 165.527344 123.863281 C 165.527344 124.59375 165.65625 125.167969 165.917969 125.582031 C 166.1875 125.988281 166.5625 126.191406 167.042969 126.191406 C 167.511719 126.191406 167.875 125.988281 168.136719 125.582031 C 168.40625 125.167969 168.542969 124.59375 168.542969 123.863281 Z M 165.527344 121.753906 C 165.714844 121.402344 165.949219 121.140625 166.230469 120.972656 C 166.511719 120.796875 166.855469 120.707031 167.261719 120.707031 C 167.917969 120.707031 168.449219 121 168.855469 121.582031 C 169.261719 122.15625 169.464844 122.917969 169.464844 123.863281 C 169.464844 124.8125 169.261719 125.578125 168.855469 126.160156 C 168.449219 126.734375 167.917969 127.019531 167.261719 127.019531 C 166.855469 127.019531 166.511719 126.933594 166.230469 126.769531 C 165.949219 126.59375 165.714844 126.324219 165.527344 125.957031 L 165.527344 126.863281 L 164.621094 126.863281 L 164.621094 118.503906 L 165.527344 118.503906 Z M 174.121094 118.847656 L 175.105469 118.847656 L 175.105469 126.863281 L 174.121094 126.863281 Z M 181.511719 123.238281 L 181.511719 126.863281 L 180.621094 126.863281 L 180.621094 123.269531 C 180.621094 122.699219 180.515625 122.269531 180.308594 121.988281 C 180.109375 121.707031 179.8125 121.566406 179.417969 121.566406 C 178.9375 121.566406 178.558594 121.738281 178.277344 122.082031 C 178.003906 122.417969 177.871094 122.875 177.871094 123.457031 L 177.871094 126.863281 L 176.964844 126.863281 L 176.964844 120.847656 L 177.871094 120.847656 L 177.871094 121.785156 C 178.078125 121.421875 178.324219 121.152344 178.605469 120.972656 C 178.894531 120.796875 179.234375 120.707031 179.621094 120.707031 C 180.234375 120.707031 180.703125 120.921875 181.027344 121.347656 C 181.347656 121.777344 181.511719 122.40625 181.511719 123.238281 Z M 186.746094 121.019531 L 186.746094 121.957031 C 186.484375 121.8125 186.21875 121.707031 185.949219 121.644531 C 185.6875 121.574219 185.410156 121.535156 185.121094 121.535156 C 184.671875 121.535156 184.339844 121.613281 184.121094 121.769531 C 183.902344 121.917969 183.792969 122.136719 183.792969 122.425781 C 183.792969 122.65625 183.871094 122.839844 184.027344 122.972656 C 184.183594 123.097656 184.5 123.222656 184.980469 123.347656 L 185.277344 123.425781 C 185.910156 123.574219 186.359375 123.785156 186.621094 124.066406 C 186.890625 124.339844 187.027344 124.71875 187.027344 125.207031 C 187.027344 125.761719 186.828125 126.203125 186.433594 126.535156 C 186.035156 126.859375 185.488281 127.019531 184.792969 127.019531 C 184.5 127.019531 184.199219 126.988281 183.886719 126.925781 C 183.574219 126.863281 183.238281 126.769531 182.886719 126.644531 L 182.886719 125.628906 C 183.21875 125.816406 183.542969 125.957031 183.855469 126.050781 C 184.175781 126.144531 184.496094 126.191406 184.808594 126.191406 C 185.222656 126.191406 185.546875 126.113281 185.777344 125.957031 C 186.003906 125.792969 186.121094 125.566406 186.121094 125.285156 C 186.121094 125.015625 186.035156 124.808594 185.871094 124.660156 C 185.703125 124.515625 185.34375 124.378906 184.792969 124.253906 L 184.496094 124.160156 C 183.941406 124.035156 183.542969 123.84375 183.292969 123.582031 C 183.050781 123.3125 182.933594 122.941406 182.933594 122.472656 C 182.933594 121.910156 183.109375 121.480469 183.464844 121.175781 C 183.828125 120.863281 184.34375 120.707031 185.011719 120.707031 C 185.332031 120.707031 185.640625 120.734375 185.933594 120.785156 C 186.222656 120.839844 186.496094 120.917969 186.746094 121.019531 Z M 189.324219 119.144531 L 189.324219 120.847656 L 191.152344 120.847656 L 191.152344 121.613281 L 189.324219 121.613281 L 189.324219 124.878906 C 189.324219 125.371094 189.378906 125.6875 189.496094 125.832031 C 189.621094 125.96875 189.871094 126.035156 190.246094 126.035156 L 191.152344 126.035156 L 191.152344 126.863281 L 190.246094 126.863281 C 189.558594 126.863281 189.082031 126.722656 188.824219 126.441406 C 188.5625 126.152344 188.433594 125.628906 188.433594 124.878906 L 188.433594 121.613281 L 187.777344 121.613281 L 187.777344 120.847656 L 188.433594 120.847656 L 188.433594 119.144531 Z M 192.324219 120.847656 L 193.214844 120.847656 L 193.214844 126.863281 L 192.324219 126.863281 Z M 192.324219 118.503906 L 193.214844 118.503906 L 193.214844 119.753906 L 192.324219 119.753906 Z M 195.949219 119.144531 L 195.949219 120.847656 L 197.777344 120.847656 L 197.777344 121.613281 L 195.949219 121.613281 L 195.949219 124.878906 C 195.949219 125.371094 196.003906 125.6875 196.121094 125.832031 C 196.246094 125.96875 196.496094 126.035156 196.871094 126.035156 L 197.777344 126.035156 L 197.777344 126.863281 L 196.871094 126.863281 C 196.183594 126.863281 195.707031 126.722656 195.449219 126.441406 C 195.1875 126.152344 195.058594 125.628906 195.058594 124.878906 L 195.058594 121.613281 L 194.402344 121.613281 L 194.402344 120.847656 L 195.058594 120.847656 L 195.058594 119.144531 Z M 198.855469 124.488281 L 198.855469 120.847656 L 199.746094 120.847656 L 199.746094 124.457031 C 199.746094 125.019531 199.84375 125.449219 200.042969 125.738281 C 200.238281 126.019531 200.535156 126.160156 200.933594 126.160156 C 201.421875 126.160156 201.800781 125.996094 202.074219 125.660156 C 202.355469 125.316406 202.496094 124.847656 202.496094 124.253906 L 202.496094 120.847656 L 203.386719 120.847656 L 203.386719 126.863281 L 202.496094 126.863281 L 202.496094 125.941406 C 202.277344 126.308594 202.027344 126.578125 201.746094 126.753906 C 201.464844 126.929688 201.128906 127.019531 200.746094 127.019531 C 200.128906 127.019531 199.660156 126.808594 199.339844 126.378906 C 199.015625 125.941406 198.855469 125.3125 198.855469 124.488281 Z M 201.089844 120.707031 Z M 206.105469 119.144531 L 206.105469 120.847656 L 207.933594 120.847656 L 207.933594 121.613281 L 206.105469 121.613281 L 206.105469 124.878906 C 206.105469 125.371094 206.160156 125.6875 206.277344 125.832031 C 206.402344 125.96875 206.652344 126.035156 207.027344 126.035156 L 207.933594 126.035156 L 207.933594 126.863281 L 207.027344 126.863281 C 206.339844 126.863281 205.863281 126.722656 205.605469 126.441406 C 205.34375 126.152344 205.214844 125.628906 205.214844 124.878906 L 205.214844 121.613281 L 204.558594 121.613281 L 204.558594 120.847656 L 205.214844 120.847656 L 205.214844 119.144531 Z M 213.730469 123.613281 L 213.730469 124.097656 L 209.636719 124.097656 C 209.675781 124.777344 209.863281 125.292969 210.199219 125.644531 C 210.53125 126 210.988281 126.175781 211.574219 126.175781 C 211.917969 126.175781 212.246094 126.128906 212.558594 126.035156 C 212.878906 125.941406 213.203125 125.808594 213.527344 125.628906 L 213.527344 126.550781 C 213.203125 126.707031 212.875 126.824219 212.542969 126.894531 C 212.207031 126.976563 211.871094 127.019531 211.527344 127.019531 C 210.660156 127.019531 209.972656 126.746094 209.464844 126.191406 C 208.964844 125.628906 208.714844 124.871094 208.714844 123.910156 C 208.714844 122.933594 208.953125 122.15625 209.433594 121.582031 C 209.910156 121 210.558594 120.707031 211.371094 120.707031 C 212.097656 120.707031 212.671875 120.96875 213.089844 121.488281 C 213.515625 122.011719 213.730469 122.71875 213.730469 123.613281 Z M 212.839844 123.316406 C 212.828125 122.777344 212.691406 122.34375 212.433594 122.019531 C 212.171875 121.699219 211.824219 121.535156 211.386719 121.535156 C 210.886719 121.535156 210.484375 121.691406 210.183594 122.003906 C 209.878906 122.316406 209.707031 122.753906 209.667969 123.316406 Z M 160.605469 132.535156 C 160.125 132.535156 159.746094 132.746094 159.464844 133.160156 C 159.191406 133.578125 159.058594 134.144531 159.058594 134.863281 C 159.058594 135.582031 159.191406 136.152344 159.464844 136.566406 C 159.746094 136.972656 160.125 137.175781 160.605469 137.175781 C 161.082031 137.175781 161.457031 136.972656 161.730469 136.566406 C 162.011719 136.152344 162.152344 135.582031 162.152344 134.863281 C 162.152344 134.144531 162.011719 133.578125 161.730469 133.160156 C 161.457031 132.746094 161.082031 132.535156 160.605469 132.535156 Z M 160.605469 131.707031 C 161.375 131.707031 161.980469 131.988281 162.417969 132.550781 C 162.863281 133.105469 163.089844 133.875 163.089844 134.863281 C 163.089844 135.84375 162.863281 136.613281 162.417969 137.175781 C 161.980469 137.738281 161.375 138.019531 160.605469 138.019531 C 159.824219 138.019531 159.214844 137.738281 158.777344 137.175781 C 158.339844 136.613281 158.121094 135.84375 158.121094 134.863281 C 158.121094 133.875 158.339844 133.105469 158.777344 132.550781 C 159.214844 131.988281 159.824219 131.707031 160.605469 131.707031 Z M 167.292969 129.503906 L 167.292969 130.332031 L 166.449219 130.332031 C 166.125 130.332031 165.902344 130.40625 165.777344 130.550781 C 165.652344 130.6875 165.589844 130.941406 165.589844 131.316406 L 165.589844 131.847656 L 167.058594 131.847656 L 167.058594 132.613281 L 165.589844 132.613281 L 165.589844 137.863281 L 164.699219 137.863281 L 164.699219 132.613281 L 163.839844 132.613281 L 163.839844 131.847656 L 164.699219 131.847656 L 164.699219 131.425781 C 164.699219 130.761719 164.839844 130.277344 165.121094 129.972656 C 165.402344 129.660156 165.84375 129.503906 166.449219 129.503906 Z M 171.214844 129.847656 L 172.527344 129.847656 L 175.730469 136.550781 L 175.730469 129.847656 L 176.683594 129.847656 L 176.683594 137.863281 L 175.371094 137.863281 L 172.167969 131.160156 L 172.167969 137.863281 L 171.214844 137.863281 Z M 181.042969 134.832031 C 180.324219 134.832031 179.824219 134.925781 179.542969 135.113281 C 179.269531 135.300781 179.136719 135.613281 179.136719 136.050781 C 179.136719 136.394531 179.238281 136.671875 179.449219 136.878906 C 179.65625 137.089844 179.9375 137.191406 180.292969 137.191406 C 180.792969 137.191406 181.1875 137 181.480469 136.613281 C 181.78125 136.21875 181.933594 135.703125 181.933594 135.066406 L 181.933594 134.832031 Z M 182.824219 134.425781 L 182.824219 137.863281 L 181.933594 137.863281 L 181.933594 136.957031 C 181.722656 137.324219 181.46875 137.59375 181.167969 137.769531 C 180.863281 137.933594 180.496094 138.019531 180.058594 138.019531 C 179.503906 138.019531 179.0625 137.847656 178.730469 137.503906 C 178.40625 137.160156 178.246094 136.699219 178.246094 136.113281 C 178.246094 135.4375 178.449219 134.925781 178.855469 134.582031 C 179.261719 134.238281 179.871094 134.066406 180.683594 134.066406 L 181.933594 134.066406 L 181.933594 133.972656 C 181.933594 133.515625 181.796875 133.160156 181.527344 132.910156 C 181.253906 132.660156 180.875 132.535156 180.386719 132.535156 C 180.082031 132.535156 179.78125 132.578125 179.480469 132.660156 C 179.1875 132.746094 178.90625 132.871094 178.636719 133.035156 L 178.636719 132.128906 C 178.96875 131.984375 179.285156 131.878906 179.589844 131.816406 C 179.890625 131.746094 180.1875 131.707031 180.480469 131.707031 C 181.261719 131.707031 181.84375 131.933594 182.230469 132.378906 C 182.625 132.828125 182.824219 133.511719 182.824219 134.425781 Z M 184.011719 131.847656 L 184.949219 131.847656 L 186.636719 136.894531 L 188.339844 131.847656 L 189.277344 131.847656 L 187.246094 137.863281 L 186.042969 137.863281 Z M 192.964844 134.832031 C 192.246094 134.832031 191.746094 134.925781 191.464844 135.113281 C 191.191406 135.300781 191.058594 135.613281 191.058594 136.050781 C 191.058594 136.394531 191.160156 136.671875 191.371094 136.878906 C 191.578125 137.089844 191.859375 137.191406 192.214844 137.191406 C 192.714844 137.191406 193.109375 137 193.402344 136.613281 C 193.703125 136.21875 193.855469 135.703125 193.855469 135.066406 L 193.855469 134.832031 Z M 194.746094 134.425781 L 194.746094 137.863281 L 193.855469 137.863281 L 193.855469 136.957031 C 193.644531 137.324219 193.390625 137.59375 193.089844 137.769531 C 192.785156 137.933594 192.417969 138.019531 191.980469 138.019531 C 191.425781 138.019531 190.984375 137.847656 190.652344 137.503906 C 190.328125 137.160156 190.167969 136.699219 190.167969 136.113281 C 190.167969 135.4375 190.371094 134.925781 190.777344 134.582031 C 191.183594 134.238281 191.792969 134.066406 192.605469 134.066406 L 193.855469 134.066406 L 193.855469 133.972656 C 193.855469 133.515625 193.71875 133.160156 193.449219 132.910156 C 193.175781 132.660156 192.796875 132.535156 192.308594 132.535156 C 192.003906 132.535156 191.703125 132.578125 191.402344 132.660156 C 191.109375 132.746094 190.828125 132.871094 190.558594 133.035156 L 190.558594 132.128906 C 190.890625 131.984375 191.207031 131.878906 191.511719 131.816406 C 191.8125 131.746094 192.109375 131.707031 192.402344 131.707031 C 193.183594 131.707031 193.765625 131.933594 194.152344 132.378906 C 194.546875 132.828125 194.746094 133.511719 194.746094 134.425781 Z M 196.574219 129.503906 L 197.464844 129.503906 L 197.464844 137.863281 L 196.574219 137.863281 Z M 150.464844 141.910156 L 149.136719 145.910156 L 151.792969 145.910156 Z M 149.902344 140.847656 L 151.011719 140.847656 L 153.761719 148.863281 L 152.746094 148.863281 L 152.089844 146.800781 L 148.839844 146.800781 L 148.183594 148.863281 L 147.152344 148.863281 Z M 157.917969 143.769531 C 157.8125 143.707031 157.699219 143.660156 157.574219 143.628906 C 157.457031 143.597656 157.332031 143.582031 157.199219 143.582031 C 156.6875 143.582031 156.296875 143.765625 156.027344 144.128906 C 155.765625 144.496094 155.636719 145.015625 155.636719 145.691406 L 155.636719 148.863281 L 154.730469 148.863281 L 154.730469 142.847656 L 155.636719 142.847656 L 155.636719 143.785156 C 155.824219 143.421875 156.0625 143.152344 156.355469 142.972656 C 156.65625 142.796875 157.019531 142.707031 157.449219 142.707031 C 157.511719 142.707031 157.578125 142.714844 157.652344 142.722656 C 157.734375 142.722656 157.816406 142.734375 157.902344 142.753906 Z M 162.730469 143.082031 L 162.730469 144.003906 C 162.480469 143.847656 162.230469 143.734375 161.980469 143.660156 C 161.730469 143.578125 161.472656 143.535156 161.214844 143.535156 C 160.628906 143.535156 160.175781 143.738281 159.855469 144.144531 C 159.542969 144.550781 159.386719 145.125 159.386719 145.863281 C 159.386719 146.59375 159.542969 147.160156 159.855469 147.566406 C 160.175781 147.972656 160.628906 148.175781 161.214844 148.175781 C 161.472656 148.175781 161.730469 148.140625 161.980469 148.066406 C 162.230469 147.996094 162.480469 147.878906 162.730469 147.722656 L 162.730469 148.628906 C 162.480469 148.765625 162.21875 148.863281 161.949219 148.925781 C 161.6875 148.988281 161.410156 149.019531 161.121094 149.019531 C 160.296875 149.019531 159.644531 148.738281 159.167969 148.175781 C 158.6875 147.605469 158.449219 146.832031 158.449219 145.863281 C 158.449219 144.886719 158.6875 144.113281 159.167969 143.550781 C 159.65625 142.988281 160.324219 142.707031 161.167969 142.707031 C 161.4375 142.707031 161.703125 142.738281 161.964844 142.800781 C 162.234375 142.863281 162.488281 142.957031 162.730469 143.082031 Z M 168.777344 145.238281 L 168.777344 148.863281 L 167.886719 148.863281 L 167.886719 145.269531 C 167.886719 144.699219 167.78125 144.269531 167.574219 143.988281 C 167.375 143.707031 167.078125 143.566406 166.683594 143.566406 C 166.203125 143.566406 165.824219 143.738281 165.542969 144.082031 C 165.269531 144.417969 165.136719 144.875 165.136719 145.457031 L 165.136719 148.863281 L 164.230469 148.863281 L 164.230469 140.503906 L 165.136719 140.503906 L 165.136719 143.785156 C 165.34375 143.421875 165.589844 143.152344 165.871094 142.972656 C 166.160156 142.796875 166.5 142.707031 166.886719 142.707031 C 167.5 142.707031 167.96875 142.921875 168.292969 143.347656 C 168.613281 143.777344 168.777344 144.40625 168.777344 145.238281 Z M 170.558594 142.847656 L 171.449219 142.847656 L 171.449219 148.863281 L 170.558594 148.863281 Z M 170.558594 140.503906 L 171.449219 140.503906 L 171.449219 141.753906 L 170.558594 141.753906 Z M 174.183594 141.144531 L 174.183594 142.847656 L 176.011719 142.847656 L 176.011719 143.613281 L 174.183594 143.613281 L 174.183594 146.878906 C 174.183594 147.371094 174.238281 147.6875 174.355469 147.832031 C 174.480469 147.96875 174.730469 148.035156 175.105469 148.035156 L 176.011719 148.035156 L 176.011719 148.863281 L 175.105469 148.863281 C 174.417969 148.863281 173.941406 148.722656 173.683594 148.441406 C 173.421875 148.152344 173.292969 147.628906 173.292969 146.878906 L 173.292969 143.613281 L 172.636719 143.613281 L 172.636719 142.847656 L 173.292969 142.847656 L 173.292969 141.144531 Z M 181.808594 145.613281 L 181.808594 146.097656 L 177.714844 146.097656 C 177.753906 146.777344 177.941406 147.292969 178.277344 147.644531 C 178.609375 148 179.066406 148.175781 179.652344 148.175781 C 179.996094 148.175781 180.324219 148.128906 180.636719 148.035156 C 180.957031 147.941406 181.28125 147.808594 181.605469 147.628906 L 181.605469 148.550781 C 181.28125 148.707031 180.953125 148.824219 180.621094 148.894531 C 180.285156 148.976563 179.949219 149.019531 179.605469 149.019531 C 178.738281 149.019531 178.050781 148.746094 177.542969 148.191406 C 177.042969 147.628906 176.792969 146.871094 176.792969 145.910156 C 176.792969 144.933594 177.03125 144.15625 177.511719 143.582031 C 177.988281 143 178.636719 142.707031 179.449219 142.707031 C 180.175781 142.707031 180.75 142.96875 181.167969 143.488281 C 181.59375 144.011719 181.808594 144.71875 181.808594 145.613281 Z M 180.917969 145.316406 C 180.90625 144.777344 180.769531 144.34375 180.511719 144.019531 C 180.25 143.699219 179.902344 143.535156 179.464844 143.535156 C 178.964844 143.535156 178.5625 143.691406 178.261719 144.003906 C 177.957031 144.316406 177.785156 144.753906 177.746094 145.316406 Z M 187.167969 143.082031 L 187.167969 144.003906 C 186.917969 143.847656 186.667969 143.734375 186.417969 143.660156 C 186.167969 143.578125 185.910156 143.535156 185.652344 143.535156 C 185.066406 143.535156 184.613281 143.738281 184.292969 144.144531 C 183.980469 144.550781 183.824219 145.125 183.824219 145.863281 C 183.824219 146.59375 183.980469 147.160156 184.292969 147.566406 C 184.613281 147.972656 185.066406 148.175781 185.652344 148.175781 C 185.910156 148.175781 186.167969 148.140625 186.417969 148.066406 C 186.667969 147.996094 186.917969 147.878906 187.167969 147.722656 L 187.167969 148.628906 C 186.917969 148.765625 186.65625 148.863281 186.386719 148.925781 C 186.125 148.988281 185.847656 149.019531 185.558594 149.019531 C 184.734375 149.019531 184.082031 148.738281 183.605469 148.175781 C 183.125 147.605469 182.886719 146.832031 182.886719 145.863281 C 182.886719 144.886719 183.125 144.113281 183.605469 143.550781 C 184.09375 142.988281 184.761719 142.707031 185.605469 142.707031 C 185.875 142.707031 186.140625 142.738281 186.402344 142.800781 C 186.671875 142.863281 186.925781 142.957031 187.167969 143.082031 Z M 189.589844 141.144531 L 189.589844 142.847656 L 191.417969 142.847656 L 191.417969 143.613281 L 189.589844 143.613281 L 189.589844 146.878906 C 189.589844 147.371094 189.644531 147.6875 189.761719 147.832031 C 189.886719 147.96875 190.136719 148.035156 190.511719 148.035156 L 191.417969 148.035156 L 191.417969 148.863281 L 190.511719 148.863281 C 189.824219 148.863281 189.347656 148.722656 189.089844 148.441406 C 188.828125 148.152344 188.699219 147.628906 188.699219 146.878906 L 188.699219 143.613281 L 188.042969 143.613281 L 188.042969 142.847656 L 188.699219 142.847656 L 188.699219 141.144531 Z M 192.496094 146.488281 L 192.496094 142.847656 L 193.386719 142.847656 L 193.386719 146.457031 C 193.386719 147.019531 193.484375 147.449219 193.683594 147.738281 C 193.878906 148.019531 194.175781 148.160156 194.574219 148.160156 C 195.0625 148.160156 195.441406 147.996094 195.714844 147.660156 C 195.996094 147.316406 196.136719 146.847656 196.136719 146.253906 L 196.136719 142.847656 L 197.027344 142.847656 L 197.027344 148.863281 L 196.136719 148.863281 L 196.136719 147.941406 C 195.917969 148.308594 195.667969 148.578125 195.386719 148.753906 C 195.105469 148.929688 194.769531 149.019531 194.386719 149.019531 C 193.769531 149.019531 193.300781 148.808594 192.980469 148.378906 C 192.65625 147.941406 192.496094 147.3125 192.496094 146.488281 Z M 194.730469 142.707031 Z M 202.011719 143.769531 C 201.90625 143.707031 201.792969 143.660156 201.667969 143.628906 C 201.550781 143.597656 201.425781 143.582031 201.292969 143.582031 C 200.78125 143.582031 200.390625 143.765625 200.121094 144.128906 C 199.859375 144.496094 199.730469 145.015625 199.730469 145.691406 L 199.730469 148.863281 L 198.824219 148.863281 L 198.824219 142.847656 L 199.730469 142.847656 L 199.730469 143.785156 C 199.917969 143.421875 200.15625 143.152344 200.449219 142.972656 C 200.75 142.796875 201.113281 142.707031 201.542969 142.707031 C 201.605469 142.707031 201.671875 142.714844 201.746094 142.722656 C 201.828125 142.722656 201.910156 142.734375 201.996094 142.753906 Z M 207.558594 145.613281 L 207.558594 146.097656 L 203.464844 146.097656 C 203.503906 146.777344 203.691406 147.292969 204.027344 147.644531 C 204.359375 148 204.816406 148.175781 205.402344 148.175781 C 205.746094 148.175781 206.074219 148.128906 206.386719 148.035156 C 206.707031 147.941406 207.03125 147.808594 207.355469 147.628906 L 207.355469 148.550781 C 207.03125 148.707031 206.703125 148.824219 206.371094 148.894531 C 206.035156 148.976563 205.699219 149.019531 205.355469 149.019531 C 204.488281 149.019531 203.800781 148.746094 203.292969 148.191406 C 202.792969 147.628906 202.542969 146.871094 202.542969 145.910156 C 202.542969 144.933594 202.78125 144.15625 203.261719 143.582031 C 203.738281 143 204.386719 142.707031 205.199219 142.707031 C 205.925781 142.707031 206.5 142.96875 206.917969 143.488281 C 207.34375 144.011719 207.558594 144.71875 207.558594 145.613281 Z M 206.667969 145.316406 C 206.65625 144.777344 206.519531 144.34375 206.261719 144.019531 C 206 143.699219 205.652344 143.535156 205.214844 143.535156 C 204.714844 143.535156 204.3125 143.691406 204.011719 144.003906 C 203.707031 144.316406 203.535156 144.753906 203.496094 145.316406 Z M 206.667969 145.316406 "/>
<path style=" stroke:none;fill-rule:evenodd;fill:rgb(0%,0%,0%);fill-opacity:1;" d="M 141.902344 118.847656 L 142.886719 118.847656 L 144.402344 125.628906 L 145.917969 118.847656 L 147.011719 118.847656 L 148.542969 125.628906 L 150.042969 118.847656 L 151.042969 118.847656 L 149.230469 126.863281 L 147.996094 126.863281 L 146.480469 119.894531 L 144.933594 126.863281 L 143.714844 126.863281 Z M 156.917969 123.613281 L 156.917969 124.097656 L 152.824219 124.097656 C 152.863281 124.777344 153.050781 125.292969 153.386719 125.644531 C 153.71875 126 154.175781 126.175781 154.761719 126.175781 C 155.105469 126.175781 155.433594 126.128906 155.746094 126.035156 C 156.066406 125.941406 156.390625 125.808594 156.714844 125.628906 L 156.714844 126.550781 C 156.390625 126.707031 156.0625 126.824219 155.730469 126.894531 C 155.394531 126.976563 155.058594 127.019531 154.714844 127.019531 C 153.847656 127.019531 153.160156 126.746094 152.652344 126.191406 C 152.152344 125.628906 151.902344 124.871094 151.902344 123.910156 C 151.902344 122.933594 152.140625 122.15625 152.621094 121.582031 C 153.097656 121 153.746094 120.707031 154.558594 120.707031 C 155.285156 120.707031 155.859375 120.96875 156.277344 121.488281 C 156.703125 122.011719 156.917969 122.71875 156.917969 123.613281 Z M 156.027344 123.316406 C 156.015625 122.777344 155.878906 122.34375 155.621094 122.019531 C 155.359375 121.699219 155.011719 121.535156 154.574219 121.535156 C 154.074219 121.535156 153.671875 121.691406 153.371094 122.003906 C 153.066406 122.316406 152.894531 122.753906 152.855469 123.316406 Z M 162.261719 123.863281 C 162.261719 123.136719 162.125 122.566406 161.855469 122.160156 C 161.59375 121.746094 161.230469 121.535156 160.761719 121.535156 C 160.28125 121.535156 159.90625 121.746094 159.636719 122.160156 C 159.375 122.566406 159.246094 123.136719 159.246094 123.863281 C 159.246094 124.59375 159.375 125.167969 159.636719 125.582031 C 159.90625 125.988281 160.28125 126.191406 160.761719 126.191406 C 161.230469 126.191406 161.59375 125.988281 161.855469 125.582031 C 162.125 125.167969 162.261719 124.59375 162.261719 123.863281 Z M 159.246094 121.753906 C 159.433594 121.402344 159.667969 121.140625 159.949219 120.972656 C 160.230469 120.796875 160.574219 120.707031 160.980469 120.707031 C 161.636719 120.707031 162.167969 121 162.574219 121.582031 C 162.980469 122.15625 163.183594 122.917969 163.183594 123.863281 C 163.183594 124.8125 162.980469 125.578125 162.574219 126.160156 C 162.167969 126.734375 161.636719 127.019531 160.980469 127.019531 C 160.574219 127.019531 160.230469 126.933594 159.949219 126.769531 C 159.667969 126.59375 159.433594 126.324219 159.246094 125.957031 L 159.246094 126.863281 L 158.339844 126.863281 L 158.339844 118.503906 L 159.246094 118.503906 Z M 168.542969 123.863281 C 168.542969 123.136719 168.40625 122.566406 168.136719 122.160156 C 167.875 121.746094 167.511719 121.535156 167.042969 121.535156 C 166.5625 121.535156 166.1875 121.746094 165.917969 122.160156 C 165.65625 122.566406 165.527344 123.136719 165.527344 123.863281 C 165.527344 124.59375 165.65625 125.167969 165.917969 125.582031 C 166.1875 125.988281 166.5625 126.191406 167.042969 126.191406 C 167.511719 126.191406 167.875 125.988281 168.136719 125.582031 C 168.40625 125.167969 168.542969 124.59375 168.542969 123.863281 Z M 165.527344 121.753906 C 165.714844 121.402344 165.949219 121.140625 166.230469 120.972656 C 166.511719 120.796875 166.855469 120.707031 167.261719 120.707031 C 167.917969 120.707031 168.449219 121 168.855469 121.582031 C 169.261719 122.15625 169.464844 122.917969 169.464844 123.863281 C 169.464844 124.8125 169.261719 125.578125 168.855469 126.160156 C 168.449219 126.734375 167.917969 127.019531 167.261719 127.019531 C 166.855469 127.019531 166.511719 126.933594 166.230469 126.769531 C 165.949219 126.59375 165.714844 126.324219 165.527344 125.957031 L 165.527344 126.863281 L 164.621094 126.863281 L 164.621094 118.503906 L 165.527344 118.503906 Z M 174.121094 118.847656 L 175.105469 118.847656 L 175.105469 126.863281 L 174.121094 126.863281 Z M 181.511719 123.238281 L 181.511719 126.863281 L 180.621094 126.863281 L 180.621094 123.269531 C 180.621094 122.699219 180.515625 122.269531 180.308594 121.988281 C 180.109375 121.707031 179.8125 121.566406 179.417969 121.566406 C 178.9375 121.566406 178.558594 121.738281 178.277344 122.082031 C 178.003906 122.417969 177.871094 122.875 177.871094 123.457031 L 177.871094 126.863281 L 176.964844 126.863281 L 176.964844 120.847656 L 177.871094 120.847656 L 177.871094 121.785156 C 178.078125 121.421875 178.324219 121.152344 178.605469 120.972656 C 178.894531 120.796875 179.234375 120.707031 179.621094 120.707031 C 180.234375 120.707031 180.703125 120.921875 181.027344 121.347656 C 181.347656 121.777344 181.511719 122.40625 181.511719 123.238281 Z M 186.746094 121.019531 L 186.746094 121.957031 C 186.484375 121.8125 186.21875 121.707031 185.949219 121.644531 C 185.6875 121.574219 185.410156 121.535156 185.121094 121.535156 C 184.671875 121.535156 184.339844 121.613281 184.121094 121.769531 C 183.902344 121.917969 183.792969 122.136719 183.792969 122.425781 C 183.792969 122.65625 183.871094 122.839844 184.027344 122.972656 C 184.183594 123.097656 184.5 123.222656 184.980469 123.347656 L 185.277344 123.425781 C 185.910156 123.574219 186.359375 123.785156 186.621094 124.066406 C 186.890625 124.339844 187.027344 124.71875 187.027344 125.207031 C 187.027344 125.761719 186.828125 126.203125 186.433594 126.535156 C 186.035156 126.859375 185.488281 127.019531 184.792969 127.019531 C 184.5 127.019531 184.199219 126.988281 183.886719 126.925781 C 183.574219 126.863281 183.238281 126.769531 182.886719 126.644531 L 182.886719 125.628906 C 183.21875 125.816406 183.542969 125.957031 183.855469 126.050781 C 184.175781 126.144531 184.496094 126.191406 184.808594 126.191406 C 185.222656 126.191406 185.546875 126.113281 185.777344 125.957031 C 186.003906 125.792969 186.121094 125.566406 186.121094 125.285156 C 186.121094 125.015625 186.035156 124.808594 185.871094 124.660156 C 185.703125 124.515625 185.34375 124.378906 184.792969 124.253906 L 184.496094 124.160156 C 183.941406 124.035156 183.542969 123.84375 183.292969 123.582031 C 183.050781 123.3125 182.933594 122.941406 182.933594 122.472656 C 182.933594 121.910156 183.109375 121.480469 183.464844 121.175781 C 183.828125 120.863281 184.34375 120.707031 185.011719 120.707031 C 185.332031 120.707031 185.640625 120.734375 185.933594 120.785156 C 186.222656 120.839844 186.496094 120.917969 186.746094 121.019531 Z M 189.324219 119.144531 L 189.324219 120.847656 L 191.152344 120.847656 L 191.152344 121.613281 L 189.324219 121.613281 L 189.324219 124.878906 C 189.324219 125.371094 189.378906 125.6875 189.496094 125.832031 C 189.621094 125.96875 189.871094 126.035156 190.246094 126.035156 L 191.152344 126.035156 L 191.152344 126.863281 L 190.246094 126.863281 C 189.558594 126.863281 189.082031 126.722656 188.824219 126.441406 C 188.5625 126.152344 188.433594 125.628906 188.433594 124.878906 L 188.433594 121.613281 L 187.777344 121.613281 L 187.777344 120.847656 L 188.433594 120.847656 L 188.433594 119.144531 Z M 192.324219 120.847656 L 193.214844 120.847656 L 193.214844 126.863281 L 192.324219 126.863281 Z M 192.324219 118.503906 L 193.214844 118.503906 L 193.214844 119.753906 L 192.324219 119.753906 Z M 195.949219 119.144531 L 195.949219 120.847656 L 197.777344 120.847656 L 197.777344 121.613281 L 195.949219 121.613281 L 195.949219 124.878906 C 195.949219 125.371094 196.003906 125.6875 196.121094 125.832031 C 196.246094 125.96875 196.496094 126.035156 196.871094 126.035156 L 197.777344 126.035156 L 197.777344 126.863281 L 196.871094 126.863281 C 196.183594 126.863281 195.707031 126.722656 195.449219 126.441406 C 195.1875 126.152344 195.058594 125.628906 195.058594 124.878906 L 195.058594 121.613281 L 194.402344 121.613281 L 194.402344 120.847656 L 195.058594 120.847656 L 195.058594 119.144531 Z M 198.855469 124.488281 L 198.855469 120.847656 L 199.746094 120.847656 L 199.746094 124.457031 C 199.746094 125.019531 199.84375 125.449219 200.042969 125.738281 C 200.238281 126.019531 200.535156 126.160156 200.933594 126.160156 C 201.421875 126.160156 201.800781 125.996094 202.074219 125.660156 C 202.355469 125.316406 202.496094 124.847656 202.496094 124.253906 L 202.496094 120.847656 L 203.386719 120.847656 L 203.386719 126.863281 L 202.496094 126.863281 L 202.496094 125.941406 C 202.277344 126.308594 202.027344 126.578125 201.746094 126.753906 C 201.464844 126.929688 201.128906 127.019531 200.746094 127.019531 C 200.128906 127.019531 199.660156 126.808594 199.339844 126.378906 C 199.015625 125.941406 198.855469 125.3125 198.855469 124.488281 Z M 201.089844 120.707031 Z M 206.105469 119.144531 L 206.105469 120.847656 L 207.933594 120.847656 L 207.933594 121.613281 L 206.105469 121.613281 L 206.105469 124.878906 C 206.105469 125.371094 206.160156 125.6875 206.277344 125.832031 C 206.402344 125.96875 206.652344 126.035156 207.027344 126.035156 L 207.933594 126.035156 L 207.933594 126.863281 L 207.027344 126.863281 C 206.339844 126.863281 205.863281 126.722656 205.605469 126.441406 C 205.34375 126.152344 205.214844 125.628906 205.214844 124.878906 L 205.214844 121.613281 L 204.558594 121.613281 L 204.558594 120.847656 L 205.214844 120.847656 L 205.214844 119.144531 Z M 213.730469 123.613281 L 213.730469 124.097656 L 209.636719 124.097656 C 209.675781 124.777344 209.863281 125.292969 210.199219 125.644531 C 210.53125 126 210.988281 126.175781 211.574219 126.175781 C 211.917969 126.175781 212.246094 126.128906 212.558594 126.035156 C 212.878906 125.941406 213.203125 125.808594 213.527344 125.628906 L 213.527344 126.550781 C 213.203125 126.707031 212.875 126.824219 212.542969 126.894531 C 212.207031 126.976563 211.871094 127.019531 211.527344 127.019531 C 210.660156 127.019531 209.972656 126.746094 209.464844 126.191406 C 208.964844 125.628906 208.714844 124.871094 208.714844 123.910156 C 208.714844 122.933594 208.953125 122.15625 209.433594 121.582031 C 209.910156 121 210.558594 120.707031 211.371094 120.707031 C 212.097656 120.707031 212.671875 120.96875 213.089844 121.488281 C 213.515625 122.011719 213.730469 122.71875 213.730469 123.613281 Z M 212.839844 123.316406 C 212.828125 122.777344 212.691406 122.34375 212.433594 122.019531 C 212.171875 121.699219 211.824219 121.535156 211.386719 121.535156 C 210.886719 121.535156 210.484375 121.691406 210.183594 122.003906 C 209.878906 122.316406 209.707031 122.753906 209.667969 123.316406 Z M 160.605469 132.535156 C 160.125 132.535156 159.746094 132.746094 159.464844 133.160156 C 159.191406 133.578125 159.058594 134.144531 159.058594 134.863281 C 159.058594 135.582031 159.191406 136.152344 159.464844 136.566406 C 159.746094 136.972656 160.125 137.175781 160.605469 137.175781 C 161.082031 137.175781 161.457031 136.972656 161.730469 136.566406 C 162.011719 136.152344 162.152344 135.582031 162.152344 134.863281 C 162.152344 134.144531 162.011719 133.578125 161.730469 133.160156 C 161.457031 132.746094 161.082031 132.535156 160.605469 132.535156 Z M 160.605469 131.707031 C 161.375 131.707031 161.980469 131.988281 162.417969 132.550781 C 162.863281 133.105469 163.089844 133.875 163.089844 134.863281 C 163.089844 135.84375 162.863281 136.613281 162.417969 137.175781 C 161.980469 137.738281 161.375 138.019531 160.605469 138.019531 C 159.824219 138.019531 159.214844 137.738281 158.777344 137.175781 C 158.339844 136.613281 158.121094 135.84375 158.121094 134.863281 C 158.121094 133.875 158.339844 133.105469 158.777344 132.550781 C 159.214844 131.988281 159.824219 131.707031 160.605469 131.707031 Z M 167.292969 129.503906 L 167.292969 130.332031 L 166.449219 130.332031 C 166.125 130.332031 165.902344 130.40625 165.777344 130.550781 C 165.652344 130.6875 165.589844 130.941406 165.589844 131.316406 L 165.589844 131.847656 L 167.058594 131.847656 L 167.058594 132.613281 L 165.589844 132.613281 L 165.589844 137.863281 L 164.699219 137.863281 L 164.699219 132.613281 L 163.839844 132.613281 L 163.839844 131.847656 L 164.699219 131.847656 L 164.699219 131.425781 C 164.699219 130.761719 164.839844 130.277344 165.121094 129.972656 C 165.402344 129.660156 165.84375 129.503906 166.449219 129.503906 Z M 171.214844 129.847656 L 172.527344 129.847656 L 175.730469 136.550781 L 175.730469 129.847656 L 176.683594 129.847656 L 176.683594 137.863281 L 175.371094 137.863281 L 172.167969 131.160156 L 172.167969 137.863281 L 171.214844 137.863281 Z M 181.042969 134.832031 C 180.324219 134.832031 179.824219 134.925781 179.542969 135.113281 C 179.269531 135.300781 179.136719 135.613281 179.136719 136.050781 C 179.136719 136.394531 179.238281 136.671875 179.449219 136.878906 C 179.65625 137.089844 179.9375 137.191406 180.292969 137.191406 C 180.792969 137.191406 181.1875 137 181.480469 136.613281 C 181.78125 136.21875 181.933594 135.703125 181.933594 135.066406 L 181.933594 134.832031 Z M 182.824219 134.425781 L 182.824219 137.863281 L 181.933594 137.863281 L 181.933594 136.957031 C 181.722656 137.324219 181.46875 137.59375 181.167969 137.769531 C 180.863281 137.933594 180.496094 138.019531 180.058594 138.019531 C 179.503906 138.019531 179.0625 137.847656 178.730469 137.503906 C 178.40625 137.160156 178.246094 136.699219 178.246094 136.113281 C 178.246094 135.4375 178.449219 134.925781 178.855469 134.582031 C 179.261719 134.238281 179.871094 134.066406 180.683594 134.066406 L 181.933594 134.066406 L 181.933594 133.972656 C 181.933594 133.515625 181.796875 133.160156 181.527344 132.910156 C 181.253906 132.660156 180.875 132.535156 180.386719 132.535156 C 180.082031 132.535156 179.78125 132.578125 179.480469 132.660156 C 179.1875 132.746094 178.90625 132.871094 178.636719 133.035156 L 178.636719 132.128906 C 178.96875 131.984375 179.285156 131.878906 179.589844 131.816406 C 179.890625 131.746094 180.1875 131.707031 180.480469 131.707031 C 181.261719 131.707031 181.84375 131.933594 182.230469 132.378906 C 182.625 132.828125 182.824219 133.511719 182.824219 134.425781 Z M 184.011719 131.847656 L 184.949219 131.847656 L 186.636719 136.894531 L 188.339844 131.847656 L 189.277344 131.847656 L 187.246094 137.863281 L 186.042969 137.863281 Z M 192.964844 134.832031 C 192.246094 134.832031 191.746094 134.925781 191.464844 135.113281 C 191.191406 135.300781 191.058594 135.613281 191.058594 136.050781 C 191.058594 136.394531 191.160156 136.671875 191.371094 136.878906 C 191.578125 137.089844 191.859375 137.191406 192.214844 137.191406 C 192.714844 137.191406 193.109375 137 193.402344 136.613281 C 193.703125 136.21875 193.855469 135.703125 193.855469 135.066406 L 193.855469 134.832031 Z M 194.746094 134.425781 L 194.746094 137.863281 L 193.855469 137.863281 L 193.855469 136.957031 C 193.644531 137.324219 193.390625 137.59375 193.089844 137.769531 C 192.785156 137.933594 192.417969 138.019531 191.980469 138.019531 C 191.425781 138.019531 190.984375 137.847656 190.652344 137.503906 C 190.328125 137.160156 190.167969 136.699219 190.167969 136.113281 C 190.167969 135.4375 190.371094 134.925781 190.777344 134.582031 C 191.183594 134.238281 191.792969 134.066406 192.605469 134.066406 L 193.855469 134.066406 L 193.855469 133.972656 C 193.855469 133.515625 193.71875 133.160156 193.449219 132.910156 C 193.175781 132.660156 192.796875 132.535156 192.308594 132.535156 C 192.003906 132.535156 191.703125 132.578125 191.402344 132.660156 C 191.109375 132.746094 190.828125 132.871094 190.558594 133.035156 L 190.558594 132.128906 C 190.890625 131.984375 191.207031 131.878906 191.511719 131.816406 C 191.8125 131.746094 192.109375 131.707031 192.402344 131.707031 C 193.183594 131.707031 193.765625 131.933594 194.152344 132.378906 C 194.546875 132.828125 194.746094 133.511719 194.746094 134.425781 Z M 196.574219 129.503906 L 197.464844 129.503906 L 197.464844 137.863281 L 196.574219 137.863281 Z M 150.464844 141.910156 L 149.136719 145.910156 L 151.792969 145.910156 Z M 149.902344 140.847656 L 151.011719 140.847656 L 153.761719 148.863281 L 152.746094 148.863281 L 152.089844 146.800781 L 148.839844 146.800781 L 148.183594 148.863281 L 147.152344 148.863281 Z M 157.917969 143.769531 C 157.8125 143.707031 157.699219 143.660156 157.574219 143.628906 C 157.457031 143.597656 157.332031 143.582031 157.199219 143.582031 C 156.6875 143.582031 156.296875 143.765625 156.027344 144.128906 C 155.765625 144.496094 155.636719 145.015625 155.636719 145.691406 L 155.636719 148.863281 L 154.730469 148.863281 L 154.730469 142.847656 L 155.636719 142.847656 L 155.636719 143.785156 C 155.824219 143.421875 156.0625 143.152344 156.355469 142.972656 C 156.65625 142.796875 157.019531 142.707031 157.449219 142.707031 C 157.511719 142.707031 157.578125 142.714844 157.652344 142.722656 C 157.734375 142.722656 157.816406 142.734375 157.902344 142.753906 Z M 162.730469 143.082031 L 162.730469 144.003906 C 162.480469 143.847656 162.230469 143.734375 161.980469 143.660156 C 161.730469 143.578125 161.472656 143.535156 161.214844 143.535156 C 160.628906 143.535156 160.175781 143.738281 159.855469 144.144531 C 159.542969 144.550781 159.386719 145.125 159.386719 145.863281 C 159.386719 146.59375 159.542969 147.160156 159.855469 147.566406 C 160.175781 147.972656 160.628906 148.175781 161.214844 148.175781 C 161.472656 148.175781 161.730469 148.140625 161.980469 148.066406 C 162.230469 147.996094 162.480469 147.878906 162.730469 147.722656 L 162.730469 148.628906 C 162.480469 148.765625 162.21875 148.863281 161.949219 148.925781 C 161.6875 148.988281 161.410156 149.019531 161.121094 149.019531 C 160.296875 149.019531 159.644531 148.738281 159.167969 148.175781 C 158.6875 147.605469 158.449219 146.832031 158.449219 145.863281 C 158.449219 144.886719 158.6875 144.113281 159.167969 143.550781 C 159.65625 142.988281 160.324219 142.707031 161.167969 142.707031 C 161.4375 142.707031 161.703125 142.738281 161.964844 142.800781 C 162.234375 142.863281 162.488281 142.957031 162.730469 143.082031 Z M 168.777344 145.238281 L 168.777344 148.863281 L 167.886719 148.863281 L 167.886719 145.269531 C 167.886719 144.699219 167.78125 144.269531 167.574219 143.988281 C 167.375 143.707031 167.078125 143.566406 166.683594 143.566406 C 166.203125 143.566406 165.824219 143.738281 165.542969 144.082031 C 165.269531 144.417969 165.136719 144.875 165.136719 145.457031 L 165.136719 148.863281 L 164.230469 148.863281 L 164.230469 140.503906 L 165.136719 140.503906 L 165.136719 143.785156 C 165.34375 143.421875 165.589844 143.152344 165.871094 142.972656 C 166.160156 142.796875 166.5 142.707031 166.886719 142.707031 C 167.5 142.707031 167.96875 142.921875 168.292969 143.347656 C 168.613281 143.777344 168.777344 144.40625 168.777344 145.238281 Z M 170.558594 142.847656 L 171.449219 142.847656 L 171.449219 148.863281 L 170.558594 148.863281 Z M 170.558594 140.503906 L 171.449219 140.503906 L 171.449219 141.753906 L 170.558594 141.753906 Z M 174.183594 141.144531 L 174.183594 142.847656 L 176.011719 142.847656 L 176.011719 143.613281 L 174.183594 143.613281 L 174.183594 146.878906 C 174.183594 147.371094 174.238281 147.6875 174.355469 147.832031 C 174.480469 147.96875 174.730469 148.035156 175.105469 148.035156 L 176.011719 148.035156 L 176.011719 148.863281 L 175.105469 148.863281 C 174.417969 148.863281 173.941406 148.722656 173.683594 148.441406 C 173.421875 148.152344 173.292969 147.628906 173.292969 146.878906 L 173.292969 143.613281 L 172.636719 143.613281 L 172.636719 142.847656 L 173.292969 142.847656 L 173.292969 141.144531 Z M 181.808594 145.613281 L 181.808594 146.097656 L 177.714844 146.097656 C 177.753906 146.777344 177.941406 147.292969 178.277344 147.644531 C 178.609375 148 179.066406 148.175781 179.652344 148.175781 C 179.996094 148.175781 180.324219 148.128906 180.636719 148.035156 C 180.957031 147.941406 181.28125 147.808594 181.605469 147.628906 L 181.605469 148.550781 C 181.28125 148.707031 180.953125 148.824219 180.621094 148.894531 C 180.285156 148.976563 179.949219 149.019531 179.605469 149.019531 C 178.738281 149.019531 178.050781 148.746094 177.542969 148.191406 C 177.042969 147.628906 176.792969 146.871094 176.792969 145.910156 C 176.792969 144.933594 177.03125 144.15625 177.511719 143.582031 C 177.988281 143 178.636719 142.707031 179.449219 142.707031 C 180.175781 142.707031 180.75 142.96875 181.167969 143.488281 C 181.59375 144.011719 181.808594 144.71875 181.808594 145.613281 Z M 180.917969 145.316406 C 180.90625 144.777344 180.769531 144.34375 180.511719 144.019531 C 180.25 143.699219 179.902344 143.535156 179.464844 143.535156 C 178.964844 143.535156 178.5625 143.691406 178.261719 144.003906 C 177.957031 144.316406 177.785156 144.753906 177.746094 145.316406 Z M 187.167969 143.082031 L 187.167969 144.003906 C 186.917969 143.847656 186.667969 143.734375 186.417969 143.660156 C 186.167969 143.578125 185.910156 143.535156 185.652344 143.535156 C 185.066406 143.535156 184.613281 143.738281 184.292969 144.144531 C 183.980469 144.550781 183.824219 145.125 183.824219 145.863281 C 183.824219 146.59375 183.980469 147.160156 184.292969 147.566406 C 184.613281 147.972656 185.066406 148.175781 185.652344 148.175781 C 185.910156 148.175781 186.167969 148.140625 186.417969 148.066406 C 186.667969 147.996094 186.917969 147.878906 187.167969 147.722656 L 187.167969 148.628906 C 186.917969 148.765625 186.65625 148.863281 186.386719 148.925781 C 186.125 148.988281 185.847656 149.019531 185.558594 149.019531 C 184.734375 149.019531 184.082031 148.738281 183.605469 148.175781 C 183.125 147.605469 182.886719 146.832031 182.886719 145.863281 C 182.886719 144.886719 183.125 144.113281 183.605469 143.550781 C 184.09375 142.988281 184.761719 142.707031 185.605469 142.707031 C 185.875 142.707031 186.140625 142.738281 186.402344 142.800781 C 186.671875 142.863281 186.925781 142.957031 187.167969 143.082031 Z M 189.589844 141.144531 L 189.589844 142.847656 L 191.417969 142.847656 L 191.417969 143.613281 L 189.589844 143.613281 L 189.589844 146.878906 C 189.589844 147.371094 189.644531 147.6875 189.761719 147.832031 C 189.886719 147.96875 190.136719 148.035156 190.511719 148.035156 L 191.417969 148.035156 L 191.417969 148.863281 L 190.511719 148.863281 C 189.824219 148.863281 189.347656 148.722656 189.089844 148.441406 C 188.828125 148.152344 188.699219 147.628906 188.699219 146.878906 L 188.699219 143.613281 L 188.042969 143.613281 L 188.042969 142.847656 L 188.699219 142.847656 L 188.699219 141.144531 Z M 192.496094 146.488281 L 192.496094 142.847656 L 193.386719 142.847656 L 193.386719 146.457031 C 193.386719 147.019531 193.484375 147.449219 193.683594 147.738281 C 193.878906 148.019531 194.175781 148.160156 194.574219 148.160156 C 195.0625 148.160156 195.441406 147.996094 195.714844 147.660156 C 195.996094 147.316406 196.136719 146.847656 196.136719 146.253906 L 196.136719 142.847656 L 197.027344 142.847656 L 197.027344 148.863281 L 196.136719 148.863281 L 196.136719 147.941406 C 195.917969 148.308594 195.667969 148.578125 195.386719 148.753906 C 195.105469 148.929688 194.769531 149.019531 194.386719 149.019531 C 193.769531 149.019531 193.300781 148.808594 192.980469 148.378906 C 192.65625 147.941406 192.496094 147.3125 192.496094 146.488281 Z M 194.730469 142.707031 Z M 202.011719 143.769531 C 201.90625 143.707031 201.792969 143.660156 201.667969 143.628906 C 201.550781 143.597656 201.425781 143.582031 201.292969 143.582031 C 200.78125 143.582031 200.390625 143.765625 200.121094 144.128906 C 199.859375 144.496094 199.730469 145.015625 199.730469 145.691406 L 199.730469 148.863281 L 198.824219 148.863281 L 198.824219 142.847656 L 199.730469 142.847656 L 199.730469 143.785156 C 199.917969 143.421875 200.15625 143.152344 200.449219 142.972656 C 200.75 142.796875 201.113281 142.707031 201.542969 142.707031 C 201.605469 142.707031 201.671875 142.714844 201.746094 142.722656 C 201.828125 142.722656 201.910156 142.734375 201.996094 142.753906 Z M 207.558594 145.613281 L 207.558594 146.097656 L 203.464844 146.097656 C 203.503906 146.777344 203.691406 147.292969 204.027344 147.644531 C 204.359375 148 204.816406 148.175781 205.402344 148.175781 C 205.746094 148.175781 206.074219 148.128906 206.386719 148.035156 C 206.707031 147.941406 207.03125 147.808594 207.355469 147.628906 L 207.355469 148.550781 C 207.03125 148.707031 206.703125 148.824219 206.371094 148.894531 C 206.035156 148.976563 205.699219 149.019531 205.355469 149.019531 C 204.488281 149.019531 203.800781 148.746094 203.292969 148.191406 C 202.792969 147.628906 202.542969 146.871094 202.542969 145.910156 C 202.542969 144.933594 202.78125 144.15625 203.261719 143.582031 C 203.738281 143 204.386719 142.707031 205.199219 142.707031 C 205.925781 142.707031 206.5 142.96875 206.917969 143.488281 C 207.34375 144.011719 207.558594 144.71875 207.558594 145.613281 Z M 206.667969 145.316406 C 206.65625 144.777344 206.519531 144.34375 206.261719 144.019531 C 206 143.699219 205.652344 143.535156 205.214844 143.535156 C 204.714844 143.535156 204.3125 143.691406 204.011719 144.003906 C 203.707031 144.316406 203.535156 144.753906 203.496094 145.316406 Z M 206.667969 145.316406 "/>
</g>
</svg>

