<?xml version="1.0" encoding="UTF-8"?>
<svg xmlns="http://www.w3.org/2000/svg" xmlns:xlink="http://www.w3.org/1999/xlink" width="256pt" height="256pt" viewBox="0 0 256 256" version="1.1">
<g id="surface2">
<rect x="0" y="0" width="256" height="256" style="fill:rgb(94.901961%,93.72549%,91.372549%);fill-opacity:1;stroke:none;"/>
<path style=" stroke:none;fill-rule:evenodd;fill:rgb(60%,70.196078%,80%);fill-opacity:1;" d="M -4 -4 L -4 179.773438 L -1.511719 181.0625 L 11.585938 191.988281 L 27.855469 206.175781 L 35.363281 212.597656 L 45.621094 219.523438 L 68.566406 231.953125 L 79.996094 238.042969 L 98.515625 247.050781 L 113.449219 254.476563 L 124.167969 259 L 247.847656 259 L 258.976563 241.144531 L 259 -4 L 259 259 L 259 -4 L 259 201.738281 L 255.347656 206.035156 L 246.589844 224.757813 L 239.496094 236.070313 L 232.15625 246.246094 L 225.144531 253.421875 L 217.441406 259 L 181.691406 259 L 176.589844 257.761719 L 151.65625 246.136719 L 136.722656 234.871094 L 119.839844 224.757813 L 105.023438 215.433594 L 88.753906 207.757813 L 76.324219 201.917969 L 55.589844 195.761719 L 40.839844 186.511719 L 29.339844 179.507813 L 16.589844 165.011719 L 6.339844 155.011719 L -4 149.53125 Z M -4 -4 "/>
<path style="fill:none;stroke-width:1;stroke-linecap:round;stroke-linejoin:round;stroke:rgb(70.196078%,77.647059%,83.137255%);stroke-opacity:1;stroke-miterlimit:10;" d="M -4 -4 L -4 179.773438 L -1.511719 181.0625 L 11.585938 191.988281 L 27.855469 206.175781 L 35.363281 212.597656 L 45.621094 219.523438 L 68.566406 231.953125 L 79.996094 238.042969 L 98.515625 247.050781 L 113.449219 254.476563 L 124.167969 259 L 247.847656 259 L 258.976563 241.144531 L 259 -4 L 259 259 L 259 -4 L 259 201.738281 L 255.347656 206.035156 L 246.589844 224.757813 L 239.496094 236.070313 L 232.15625 246.246094 L 225.144531 253.421875 L 217.441406 259 L 181.691406 259 L 176.589844 257.761719 L 151.65625 246.136719 L 136.722656 234.871094 L 119.839844 224.757813 L 105.023438 215.433594 L 88.753906 207.757813 L 76.324219 201.917969 L 55.589844 195.761719 L 40.839844 186.511719 L 29.339844 179.507813 L 16.589844 165.011719 L 6.339844 155.011719 L -4 149.53125 L -4 -4 "/>
<path style="fill:none;stroke-width:6;stroke-linecap:round;stroke-linejoin:round;stroke:rgb(60%,70.196078%,80%);stroke-opacity:1;stroke-miterlimit:10;" d="M -7 164.753906 L 1.234375 168.335938 L 29.230469 193.332031 L 55.230469 211.335938 L 100.230469 230.335938 L 147.230469 260.335938 L 149.652344 262 M 237.789063 262 L 243.234375 257.335938 L 256.234375 233.335938 L 262 222.953125 "/>
<path style="fill:none;stroke-width:1;stroke-linecap:butt;stroke-linejoin:round;stroke:rgb(46.666667%,46.666667%,46.666667%);stroke-opacity:1;stroke-dasharray:2,2;stroke-miterlimit:10;" d="M 257 250.542969 L 253.144531 257 M 104.796875 257 L 95.082031 251.644531 L 51.402344 226.902344 L 32.519531 215.445313 L 14.132813 202.878906 L 2.273438 195.144531 L -2 192.121094 "/>
<path style="fill:none;stroke-width:8;stroke-linecap:round;stroke-linejoin:round;stroke:rgb(75.686275%,70.980392%,61.568627%);stroke-opacity:1;stroke-miterlimit:10;" d="M 22.402344 118.71875 L 23.421875 121.578125 L 21.925781 125.066406 L 16.308594 127.96875 L 15.632813 131.546875 "/>
<path style="fill:none;stroke-width:8;stroke-linecap:round;stroke-linejoin:round;stroke:rgb(75.686275%,70.980392%,61.568627%);stroke-opacity:1;stroke-miterlimit:10;" d="M 106.808594 112.335938 L 106.578125 103.890625 L 104.644531 95.734375 L 101.265625 88.738281 L 95.878906 79.636719 "/>
<path style="fill:none;stroke-width:8;stroke-linecap:round;stroke-linejoin:round;stroke:rgb(75.686275%,70.980392%,61.568627%);stroke-opacity:1;stroke-miterlimit:10;" d="M 84.0625 94.292969 L 76.378906 81.164063 L 70.039063 72.976563 L 64.238281 71.527344 L 57.898438 73.492188 "/>
<path style="fill:none;stroke-width:8;stroke-linecap:round;stroke-linejoin:round;stroke:rgb(75.686275%,70.980392%,61.568627%);stroke-opacity:1;stroke-miterlimit:10;" d="M 118.558594 -6.375 L 110.980469 -4.09375 L 106.855469 -0.96875 L 105.039063 3.675781 L 105.808594 10.476563 L 107.648438 17.535156 L 122.351563 26.273438 "/>
<path style="fill:none;stroke-width:8;stroke-linecap:round;stroke-linejoin:round;stroke:rgb(75.686275%,70.980392%,61.568627%);stroke-opacity:1;stroke-miterlimit:10;" d="M 95.878906 79.636719 L 95.882813 89.511719 L 92.503906 98.085938 L 87.308594 107.691406 L 83.160156 115.492188 L 76.402344 120.941406 L 69.558594 124.976563 L 56.386719 125.921875 L 46.046875 123.527344 L 37.683594 118.742188 "/>
<path style="fill:none;stroke-width:8;stroke-linecap:round;stroke-linejoin:round;stroke:rgb(75.686275%,70.980392%,61.568627%);stroke-opacity:1;stroke-miterlimit:10;" d="M 113.917969 91.320313 L 126.429688 104.242188 L 136.519531 114.65625 L 153.414063 126.453125 L 166.648438 128.644531 L 175.457031 126.421875 L 184.265625 119.78125 L 196.007813 100.601563 L 198.945313 86.644531 L 198.945313 75.589844 L 192.699219 58.859375 L 160.636719 59.3125 L 156.257813 61.597656 L 148.265625 65.046875 L 139.246094 75.296875 L 130.484375 93.445313 L 121.46875 95.765625 L 113.917969 91.320313 L 111.539063 88.867188 L 99.757813 74.601563 "/>
<path style="fill:none;stroke-width:8;stroke-linecap:round;stroke-linejoin:round;stroke:rgb(75.686275%,70.980392%,61.568627%);stroke-opacity:1;stroke-miterlimit:10;" d="M 110.164063 58.375 L 111.167969 59.957031 L 113.5 62.019531 L 115.570313 62.886719 L 118.390625 62.886719 L 121.09375 61.664063 L 123.9375 60.179688 L 127.617188 59.214844 L 130.8125 60.050781 L 133.746094 61.664063 L 136.195313 63.371094 "/>
<path style="fill:none;stroke-width:8;stroke-linecap:round;stroke-linejoin:round;stroke:rgb(75.686275%,70.980392%,61.568627%);stroke-opacity:1;stroke-miterlimit:10;" d="M 126.429688 104.242188 L 118.136719 109.207031 L 112.355469 115.945313 L 108.976563 122.679688 L 108.976563 130.382813 L 116.457031 135.1875 L 123.449219 140.023438 L 128.96875 146.050781 L 130.671875 153.980469 "/>
<path style="fill:none;stroke-width:8;stroke-linecap:round;stroke-linejoin:round;stroke:rgb(75.686275%,70.980392%,61.568627%);stroke-opacity:1;stroke-miterlimit:10;" d="M -9 112.828125 L -3.0625 114.578125 L 22.402344 118.71875 L 37.683594 118.742188 L 53.039063 114.683594 L 70.234375 105.976563 L 84.0625 94.292969 L 95.878906 79.636719 L 99.757813 74.601563 L 110.164063 58.375 L 119.433594 37.898438 L 122.351563 26.273438 L 121.398438 10.5 L 118.558594 -6.375 L 118.066406 -9 "/>
<path style="fill:none;stroke-width:6;stroke-linecap:round;stroke-linejoin:round;stroke:rgb(100%,100%,100%);stroke-opacity:1;stroke-miterlimit:10;" d="M 22.402344 118.71875 L 23.421875 121.578125 L 21.925781 125.066406 L 16.308594 127.96875 L 15.632813 131.546875 "/>
<path style="fill:none;stroke-width:6;stroke-linecap:round;stroke-linejoin:round;stroke:rgb(100%,100%,100%);stroke-opacity:1;stroke-miterlimit:10;" d="M 106.808594 112.335938 L 106.578125 103.890625 L 104.644531 95.734375 L 101.265625 88.738281 L 95.878906 79.636719 "/>
<path style="fill:none;stroke-width:6;stroke-linecap:round;stroke-linejoin:round;stroke:rgb(100%,100%,100%);stroke-opacity:1;stroke-miterlimit:10;" d="M 84.0625 94.292969 L 76.378906 81.164063 L 70.039063 72.976563 L 64.238281 71.527344 L 57.898438 73.492188 "/>
<path style="fill:none;stroke-width:6;stroke-linecap:round;stroke-linejoin:round;stroke:rgb(100%,100%,100%);stroke-opacity:1;stroke-miterlimit:10;" d="M 118.558594 -6.375 L 110.980469 -4.09375 L 106.855469 -0.96875 L 105.039063 3.675781 L 105.808594 10.476563 L 107.648438 17.535156 L 122.351563 26.273438 "/>
<path style="fill:none;stroke-width:6;stroke-linecap:round;stroke-linejoin:round;stroke:rgb(100%,100%,100%);stroke-opacity:1;stroke-miterlimit:10;" d="M 95.878906 79.636719 L 95.882813 89.511719 L 92.503906 98.085938 L 87.308594 107.691406 L 83.160156 115.492188 L 76.402344 120.941406 L 69.558594 124.976563 L 56.386719 125.921875 L 46.046875 123.527344 L 37.683594 118.742188 "/>
<path style="fill:none;stroke-width:6;stroke-linecap:round;stroke-linejoin:round;stroke:rgb(100%,100%,100%);stroke-opacity:1;stroke-miterlimit:10;" d="M 113.917969 91.320313 L 126.429688 104.242188 L 136.519531 114.65625 L 153.414063 126.453125 L 166.648438 128.644531 L 175.457031 126.421875 L 184.265625 119.78125 L 196.007813 100.601563 L 198.945313 86.644531 L 198.945313 75.589844 L 192.699219 58.859375 L 160.636719 59.3125 L 156.257813 61.597656 L 148.265625 65.046875 L 139.246094 75.296875 L 130.484375 93.445313 L 121.46875 95.765625 L 113.917969 91.320313 L 111.539063 88.867188 L 99.757813 74.601563 "/>
<path style="fill:none;stroke-width:6;stroke-linecap:round;stroke-linejoin:round;stroke:rgb(100%,100%,100%);stroke-opacity:1;stroke-miterlimit:10;" d="M 110.164063 58.375 L 111.167969 59.957031 L 113.5 62.019531 L 115.570313 62.886719 L 118.390625 62.886719 L 121.09375 61.664063 L 123.9375 60.179688 L 127.617188 59.214844 L 130.8125 60.050781 L 133.746094 61.664063 L 136.195313 63.371094 "/>
<path style="fill:none;stroke-width:6;stroke-linecap:round;stroke-linejoin:round;stroke:rgb(100%,100%,100%);stroke-opacity:1;stroke-miterlimit:10;" d="M 126.429688 104.242188 L 118.136719 109.207031 L 112.355469 115.945313 L 108.976563 122.679688 L 108.976563 130.382813 L 116.457031 135.1875 L 123.449219 140.023438 L 128.96875 146.050781 L 130.671875 153.980469 "/>
<path style="fill:none;stroke-width:6;stroke-linecap:round;stroke-linejoin:round;stroke:rgb(100%,100%,100%);stroke-opacity:1;stroke-miterlimit:10;" d="M -9 112.828125 L -3.0625 114.578125 L 22.402344 118.71875 L 37.683594 118.742188 L 53.039063 114.683594 L 70.234375 105.976563 L 84.0625 94.292969 L 95.878906 79.636719 L 99.757813 74.601563 L 110.164063 58.375 L 119.433594 37.898438 L 122.351563 26.273438 L 121.398438 10.5 L 118.558594 -6.375 L 118.066406 -9 "/>
<path style="fill:none;stroke-width:3;stroke-linecap:round;stroke-linejoin:round;stroke:rgb(100%,100%,100%);stroke-opacity:1;stroke-miterlimit:10;" d="M 60.535156 111.085938 L 61.863281 113.710938 L 63.253906 112.992188 C 63.710938 112.765625 63.996094 112.488281 64.113281 112.164063 C 64.238281 111.832031 64.191406 111.441406 63.972656 110.992188 C 63.742188 110.546875 63.457031 110.273438 63.113281 110.179688 C 62.777344 110.078125 62.382813 110.140625 61.925781 110.367188 Z M 59.050781 108.148438 L 60.144531 110.304688 L 61.425781 109.648438 C 61.851563 109.429688 62.121094 109.179688 62.238281 108.898438 C 62.351563 108.617188 62.320313 108.296875 62.144531 107.929688 C 61.957031 107.566406 61.710938 107.347656 61.410156 107.273438 C 61.117188 107.203125 60.757813 107.273438 60.332031 107.492188 Z M 57.753906 107.789063 L 59.988281 106.664063 C 60.644531 106.332031 61.230469 106.226563 61.753906 106.351563 C 62.273438 106.46875 62.679688 106.8125 62.972656 107.382813 C 63.191406 107.820313 63.269531 108.21875 63.207031 108.570313 C 63.152344 108.925781 62.964844 109.222656 62.644531 109.460938 C 63.121094 109.347656 63.558594 109.394531 63.957031 109.601563 C 64.363281 109.800781 64.691406 110.144531 64.941406 110.632813 C 65.261719 111.269531 65.316406 111.863281 65.097656 112.414063 C 64.886719 112.957031 64.417969 113.410156 63.691406 113.773438 L 61.378906 114.945313 Z M 64.707031 106.53125 L 65.488281 106.125 L 68.207031 111.484375 L 67.425781 111.890625 Z M 63.644531 104.4375 L 64.425781 104.03125 L 65.003906 105.140625 L 64.222656 105.546875 Z M 70.253906 104.558594 C 70.128906 104.558594 70.007813 104.574219 69.894531 104.605469 C 69.777344 104.636719 69.664063 104.683594 69.550781 104.746094 C 69.105469 104.996094 68.855469 105.347656 68.800781 105.792969 C 68.738281 106.242188 68.871094 106.761719 69.191406 107.355469 L 70.738281 110.121094 L 69.957031 110.558594 L 67.035156 105.308594 L 67.816406 104.871094 L 68.269531 105.683594 C 68.261719 105.269531 68.34375 104.914063 68.519531 104.621094 C 68.6875 104.332031 68.957031 104.082031 69.332031 103.871094 C 69.382813 103.839844 69.445313 103.808594 69.519531 103.777344 C 69.589844 103.738281 69.667969 103.707031 69.753906 103.683594 Z M 73.488281 101.773438 L 71.394531 99.289063 L 72.066406 98.710938 L 77.457031 105.101563 L 76.785156 105.679688 L 76.207031 104.992188 C 76.289063 105.390625 76.273438 105.75 76.160156 106.070313 C 76.054688 106.382813 75.851563 106.671875 75.550781 106.929688 C 75.050781 107.347656 74.457031 107.46875 73.769531 107.289063 C 73.09375 107.113281 72.449219 106.660156 71.832031 105.929688 C 71.21875 105.210938 70.886719 104.5 70.832031 103.789063 C 70.769531 103.082031 70.988281 102.519531 71.488281 102.101563 C 71.792969 101.84375 72.109375 101.6875 72.441406 101.632813 C 72.765625 101.582031 73.113281 101.628906 73.488281 101.773438 Z M 72.535156 105.335938 C 73.003906 105.898438 73.472656 106.253906 73.941406 106.398438 C 74.410156 106.535156 74.820313 106.453125 75.175781 106.148438 C 75.539063 105.847656 75.691406 105.453125 75.628906 104.960938 C 75.574219 104.472656 75.316406 103.945313 74.847656 103.382813 C 74.378906 102.832031 73.902344 102.488281 73.425781 102.351563 C 72.957031 102.21875 72.542969 102.300781 72.175781 102.601563 C 71.824219 102.90625 71.675781 103.300781 71.738281 103.789063 C 71.800781 104.269531 72.066406 104.785156 72.535156 105.335938 Z M 77.433594 95.800781 L 79.371094 98.097656 L 80.308594 97.316406 C 80.660156 97.027344 80.84375 96.699219 80.855469 96.332031 C 80.875 95.96875 80.734375 95.605469 80.433594 95.238281 C 80.121094 94.875 79.789063 94.675781 79.433594 94.644531 C 79.082031 94.605469 78.726563 94.730469 78.371094 95.019531 Z M 76.105469 95.753906 L 77.792969 94.332031 C 78.417969 93.8125 79.019531 93.578125 79.589844 93.628906 C 80.164063 93.671875 80.703125 93.988281 81.214844 94.582031 C 81.722656 95.1875 81.953125 95.78125 81.902344 96.363281 C 81.847656 96.9375 81.511719 97.484375 80.886719 98.003906 L 79.949219 98.785156 L 82.027344 101.238281 L 81.277344 101.878906 Z M 83.59375 92.472656 C 83.273438 92.828125 83.171875 93.25 83.296875 93.738281 C 83.414063 94.21875 83.730469 94.699219 84.25 95.175781 C 84.78125 95.667969 85.292969 95.949219 85.78125 96.019531 C 86.28125 96.09375 86.691406 95.953125 87.015625 95.597656 C 87.335938 95.246094 87.4375 94.828125 87.3125 94.347656 C 87.195313 93.871094 86.875 93.386719 86.34375 92.894531 C 85.820313 92.417969 85.320313 92.140625 84.828125 92.066406 C 84.328125 91.984375 83.917969 92.121094 83.59375 92.472656 Z M 82.984375 91.910156 C 83.507813 91.339844 84.121094 91.078125 84.828125 91.128906 C 85.535156 91.183594 86.253906 91.542969 86.984375 92.207031 C 87.710938 92.875 88.128906 93.5625 88.234375 94.269531 C 88.347656 94.96875 88.144531 95.605469 87.625 96.175781 C 87.09375 96.75 86.472656 97.011719 85.765625 96.957031 C 85.070313 96.894531 84.355469 96.53125 83.625 95.863281 C 82.898438 95.199219 82.476563 94.515625 82.359375 93.816406 C 82.246094 93.121094 82.453125 92.484375 82.984375 91.910156 Z M 90.28125 87.152344 L 93.109375 89.433594 L 92.5625 90.121094 L 89.765625 87.871094 C 89.320313 87.507813 88.921875 87.320313 88.578125 87.308594 C 88.226563 87.289063 87.921875 87.429688 87.671875 87.730469 C 87.371094 88.105469 87.265625 88.507813 87.359375 88.933594 C 87.453125 89.363281 87.726563 89.757813 88.171875 90.121094 L 90.828125 92.261719 L 90.265625 92.980469 L 85.578125 89.199219 L 86.140625 88.480469 L 86.875 89.074219 C 86.730469 88.691406 86.679688 88.332031 86.71875 87.996094 C 86.75 87.664063 86.886719 87.347656 87.125 87.042969 C 87.523438 86.566406 87.984375 86.335938 88.515625 86.355469 C 89.046875 86.367188 89.636719 86.632813 90.28125 87.152344 Z M 92.488281 82.074219 L 89.972656 80.027344 L 90.535156 79.324219 L 97.035156 84.574219 L 96.472656 85.277344 L 95.769531 84.714844 C 95.925781 85.089844 95.980469 85.445313 95.941406 85.777344 C 95.898438 86.101563 95.753906 86.414063 95.503906 86.714844 C 95.097656 87.226563 94.535156 87.464844 93.816406 87.433594 C 93.109375 87.394531 92.390625 87.070313 91.660156 86.464844 C 90.921875 85.871094 90.457031 85.238281 90.269531 84.558594 C 90.074219 83.871094 90.175781 83.273438 90.582031 82.761719 C 90.832031 82.460938 91.113281 82.253906 91.425781 82.136719 C 91.738281 82.011719 92.09375 81.992188 92.488281 82.074219 Z M 92.238281 85.746094 C 92.800781 86.207031 93.328125 86.460938 93.816406 86.511719 C 94.304688 86.566406 94.695313 86.410156 94.988281 86.042969 C 95.289063 85.667969 95.363281 85.246094 95.207031 84.777344 C 95.058594 84.308594 94.707031 83.847656 94.144531 83.386719 C 93.574219 82.941406 93.042969 82.691406 92.550781 82.636719 C 92.0625 82.585938 91.667969 82.746094 91.363281 83.121094 C 91.074219 83.488281 91.003906 83.902344 91.160156 84.371094 C 91.308594 84.839844 91.667969 85.300781 92.238281 85.746094 Z M 99.25 75.523438 C 99.429688 75.410156 99.675781 75.351563 100 75.351563 C 100.320313 75.34375 100.734375 75.394531 101.234375 75.507813 L 103.578125 76.007813 L 102.953125 76.851563 L 100.75 76.351563 C 100.175781 76.238281 99.753906 76.21875 99.484375 76.289063 C 99.203125 76.363281 98.949219 76.554688 98.71875 76.867188 L 98.09375 77.726563 L 100.8125 79.742188 L 100.21875 80.523438 L 93.78125 75.742188 L 95.09375 73.976563 C 95.59375 73.3125 96.121094 72.929688 96.671875 72.835938 C 97.214844 72.742188 97.796875 72.925781 98.421875 73.382813 C 98.828125 73.6875 99.105469 74.019531 99.25 74.382813 C 99.386719 74.75 99.386719 75.128906 99.25 75.523438 Z M 95.09375 75.492188 L 97.375 77.195313 L 98.09375 76.210938 C 98.375 75.828125 98.496094 75.46875 98.453125 75.132813 C 98.402344 74.789063 98.1875 74.476563 97.8125 74.195313 C 97.4375 73.925781 97.085938 73.816406 96.75 73.867188 C 96.40625 73.910156 96.09375 74.125 95.8125 74.507813 Z M 101.050781 70.144531 C 100.792969 70.542969 100.761719 70.96875 100.957031 71.425781 C 101.15625 71.886719 101.558594 72.308594 102.160156 72.691406 C 102.765625 73.089844 103.316406 73.28125 103.816406 73.269531 C 104.316406 73.25 104.695313 73.042969 104.957031 72.644531 C 105.214844 72.238281 105.242188 71.8125 105.035156 71.363281 C 104.835938 70.90625 104.433594 70.480469 103.832031 70.082031 C 103.230469 69.699219 102.683594 69.511719 102.191406 69.519531 C 101.691406 69.53125 101.3125 69.738281 101.050781 70.144531 Z M 100.347656 69.691406 C 100.765625 69.035156 101.328125 68.675781 102.035156 68.613281 C 102.746094 68.542969 103.515625 68.769531 104.347656 69.300781 C 105.179688 69.832031 105.710938 70.4375 105.941406 71.113281 C 106.167969 71.78125 106.074219 72.441406 105.660156 73.097656 C 105.230469 73.753906 104.664063 74.121094 103.957031 74.191406 C 103.261719 74.253906 102.496094 74.019531 101.660156 73.488281 C 100.828125 72.957031 100.296875 72.359375 100.066406 71.691406 C 99.828125 71.015625 99.921875 70.347656 100.347656 69.691406 Z M 106.441406 65.976563 C 106.058594 66.582031 105.871094 67.054688 105.878906 67.398438 C 105.878906 67.734375 106.0625 68.015625 106.425781 68.242188 C 106.71875 68.429688 107.011719 68.492188 107.300781 68.429688 C 107.589844 68.367188 107.832031 68.191406 108.019531 67.898438 C 108.289063 67.472656 108.339844 67.03125 108.175781 66.570313 C 108.007813 66.101563 107.652344 65.695313 107.113281 65.351563 L 106.925781 65.226563 Z M 107.066406 64.257813 L 109.957031 66.117188 L 109.472656 66.867188 L 108.707031 66.382813 C 108.902344 66.757813 108.992188 67.117188 108.972656 67.460938 C 108.949219 67.804688 108.820313 68.160156 108.582031 68.523438 C 108.289063 68.992188 107.910156 69.273438 107.441406 69.367188 C 106.984375 69.460938 106.511719 69.351563 106.019531 69.039063 C 105.449219 68.664063 105.125 68.21875 105.050781 67.695313 C 104.980469 67.164063 105.160156 66.5625 105.597656 65.882813 L 106.269531 64.820313 L 106.191406 64.773438 C 105.808594 64.523438 105.4375 64.445313 105.082031 64.539063 C 104.730469 64.632813 104.417969 64.890625 104.144531 65.304688 C 103.988281 65.554688 103.863281 65.832031 103.769531 66.132813 C 103.675781 66.425781 103.628906 66.726563 103.628906 67.039063 L 102.863281 66.554688 C 102.917969 66.191406 103 65.863281 103.113281 65.570313 C 103.21875 65.28125 103.347656 65.015625 103.503906 64.773438 C 103.921875 64.117188 104.425781 63.75 105.019531 63.664063 C 105.613281 63.570313 106.296875 63.769531 107.066406 64.257813 Z M 108.503906 58.8125 L 105.738281 57.09375 L 106.222656 56.328125 L 113.316406 60.75 L 112.832031 61.515625 L 112.066406 61.03125 C 112.273438 61.386719 112.371094 61.730469 112.363281 62.0625 C 112.363281 62.398438 112.257813 62.730469 112.050781 63.0625 C 111.695313 63.617188 111.164063 63.917969 110.457031 63.96875 C 109.761719 64.011719 109.011719 63.777344 108.207031 63.265625 C 107.40625 62.765625 106.871094 62.1875 106.597656 61.53125 C 106.316406 60.875 106.355469 60.273438 106.707031 59.71875 C 106.917969 59.386719 107.171875 59.148438 107.472656 59 C 107.765625 58.84375 108.109375 58.78125 108.503906 58.8125 Z M 108.691406 62.484375 C 109.316406 62.871094 109.875 63.0625 110.363281 63.0625 C 110.851563 63.054688 111.222656 62.851563 111.472656 62.453125 C 111.722656 62.046875 111.742188 61.621094 111.535156 61.171875 C 111.324219 60.726563 110.910156 60.308594 110.285156 59.921875 C 109.671875 59.539063 109.121094 59.351563 108.628906 59.359375 C 108.140625 59.371094 107.769531 59.578125 107.519531 59.984375 C 107.269531 60.382813 107.25 60.804688 107.457031 61.25 C 107.667969 61.6875 108.078125 62.101563 108.691406 62.484375 Z M 108.691406 62.484375 "/>
<path style=" stroke:none;fill-rule:evenodd;fill:rgb(20%,20%,20%);fill-opacity:1;" d="M 60.535156 111.085938 L 61.863281 113.710938 L 63.253906 112.992188 C 63.710938 112.765625 63.996094 112.488281 64.113281 112.164063 C 64.238281 111.832031 64.191406 111.441406 63.972656 110.992188 C 63.742188 110.546875 63.457031 110.273438 63.113281 110.179688 C 62.777344 110.078125 62.382813 110.140625 61.925781 110.367188 Z M 59.050781 108.148438 L 60.144531 110.304688 L 61.425781 109.648438 C 61.851563 109.429688 62.121094 109.179688 62.238281 108.898438 C 62.351563 108.617188 62.320313 108.296875 62.144531 107.929688 C 61.957031 107.566406 61.710938 107.347656 61.410156 107.273438 C 61.117188 107.203125 60.757813 107.273438 60.332031 107.492188 Z M 57.753906 107.789063 L 59.988281 106.664063 C 60.644531 106.332031 61.230469 106.226563 61.753906 106.351563 C 62.273438 106.46875 62.679688 106.8125 62.972656 107.382813 C 63.191406 107.820313 63.269531 108.21875 63.207031 108.570313 C 63.152344 108.925781 62.964844 109.222656 62.644531 109.460938 C 63.121094 109.347656 63.558594 109.394531 63.957031 109.601563 C 64.363281 109.800781 64.691406 110.144531 64.941406 110.632813 C 65.261719 111.269531 65.316406 111.863281 65.097656 112.414063 C 64.886719 112.957031 64.417969 113.410156 63.691406 113.773438 L 61.378906 114.945313 Z M 64.707031 106.53125 L 65.488281 106.125 L 68.207031 111.484375 L 67.425781 111.890625 Z M 63.644531 104.4375 L 64.425781 104.03125 L 65.003906 105.140625 L 64.222656 105.546875 Z M 70.253906 104.558594 C 70.128906 104.558594 70.007813 104.574219 69.894531 104.605469 C 69.777344 104.636719 69.664063 104.683594 69.550781 104.746094 C 69.105469 104.996094 68.855469 105.347656 68.800781 105.792969 C 68.738281 106.242188 68.871094 106.761719 69.191406 107.355469 L 70.738281 110.121094 L 69.957031 110.558594 L 67.035156 105.308594 L 67.816406 104.871094 L 68.269531 105.683594 C 68.261719 105.269531 68.34375 104.914063 68.519531 104.621094 C 68.6875 104.332031 68.957031 104.082031 69.332031 103.871094 C 69.382813 103.839844 69.445313 103.808594 69.519531 103.777344 C 69.589844 103.738281 69.667969 103.707031 69.753906 103.683594 Z M 73.488281 101.773438 L 71.394531 99.289063 L 72.066406 98.710938 L 77.457031 105.101563 L 76.785156 105.679688 L 76.207031 104.992188 C 76.289063 105.390625 76.273438 105.75 76.160156 106.070313 C 76.054688 106.382813 75.851563 106.671875 75.550781 106.929688 C 75.050781 107.347656 74.457031 107.46875 73.769531 107.289063 C 73.09375 107.113281 72.449219 106.660156 71.832031 105.929688 C 71.21875 105.210938 70.886719 104.5 70.832031 103.789063 C 70.769531 103.082031 70.988281 102.519531 71.488281 102.101563 C 71.792969 101.84375 72.109375 101.6875 72.441406 101.632813 C 72.765625 101.582031 73.113281 101.628906 73.488281 101.773438 Z M 72.535156 105.335938 C 73.003906 105.898438 73.472656 106.253906 73.941406 106.398438 C 74.410156 106.535156 74.820313 106.453125 75.175781 106.148438 C 75.539063 105.847656 75.691406 105.453125 75.628906 104.960938 C 75.574219 104.472656 75.316406 103.945313 74.847656 103.382813 C 74.378906 102.832031 73.902344 102.488281 73.425781 102.351563 C 72.957031 102.21875 72.542969 102.300781 72.175781 102.601563 C 71.824219 102.90625 71.675781 103.300781 71.738281 103.789063 C 71.800781 104.269531 72.066406 104.785156 72.535156 105.335938 Z M 77.433594 95.800781 L 79.371094 98.097656 L 80.308594 97.316406 C 80.660156 97.027344 80.84375 96.699219 80.855469 96.332031 C 80.875 95.96875 80.734375 95.605469 80.433594 95.238281 C 80.121094 94.875 79.789063 94.675781 79.433594 94.644531 C 79.082031 94.605469 78.726563 94.730469 78.371094 95.019531 Z M 76.105469 95.753906 L 77.792969 94.332031 C 78.417969 93.8125 79.019531 93.578125 79.589844 93.628906 C 80.164063 93.671875 80.703125 93.988281 81.214844 94.582031 C 81.722656 95.1875 81.953125 95.78125 81.902344 96.363281 C 81.847656 96.9375 81.511719 97.484375 80.886719 98.003906 L 79.949219 98.785156 L 82.027344 101.238281 L 81.277344 101.878906 Z M 83.59375 92.472656 C 83.273438 92.828125 83.171875 93.25 83.296875 93.738281 C 83.414063 94.21875 83.730469 94.699219 84.25 95.175781 C 84.78125 95.667969 85.292969 95.949219 85.78125 96.019531 C 86.28125 96.09375 86.691406 95.953125 87.015625 95.597656 C 87.335938 95.246094 87.4375 94.828125 87.3125 94.347656 C 87.195313 93.871094 86.875 93.386719 86.34375 92.894531 C 85.820313 92.417969 85.320313 92.140625 84.828125 92.066406 C 84.328125 91.984375 83.917969 92.121094 83.59375 92.472656 Z M 82.984375 91.910156 C 83.507813 91.339844 84.121094 91.078125 84.828125 91.128906 C 85.535156 91.183594 86.253906 91.542969 86.984375 92.207031 C 87.710938 92.875 88.128906 93.5625 88.234375 94.269531 C 88.347656 94.96875 88.144531 95.605469 87.625 96.175781 C 87.09375 96.75 86.472656 97.011719 85.765625 96.957031 C 85.070313 96.894531 84.355469 96.53125 83.625 95.863281 C 82.898438 95.199219 82.476563 94.515625 82.359375 93.816406 C 82.246094 93.121094 82.453125 92.484375 82.984375 91.910156 Z M 90.28125 87.152344 L 93.109375 89.433594 L 92.5625 90.121094 L 89.765625 87.871094 C 89.320313 87.507813 88.921875 87.320313 88.578125 87.308594 C 88.226563 87.289063 87.921875 87.429688 87.671875 87.730469 C 87.371094 88.105469 87.265625 88.507813 87.359375 88.933594 C 87.453125 89.363281 87.726563 89.757813 88.171875 90.121094 L 90.828125 92.261719 L 90.265625 92.980469 L 85.578125 89.199219 L 86.140625 88.480469 L 86.875 89.074219 C 86.730469 88.691406 86.679688 88.332031 86.71875 87.996094 C 86.75 87.664063 86.886719 87.347656 87.125 87.042969 C 87.523438 86.566406 87.984375 86.335938 88.515625 86.355469 C 89.046875 86.367188 89.636719 86.632813 90.28125 87.152344 Z M 92.488281 82.074219 L 89.972656 80.027344 L 90.535156 79.324219 L 97.035156 84.574219 L 96.472656 85.277344 L 95.769531 84.714844 C 95.925781 85.089844 95.980469 85.445313 95.941406 85.777344 C 95.898438 86.101563 95.753906 86.414063 95.503906 86.714844 C 95.097656 87.226563 94.535156 87.464844 93.816406 87.433594 C 93.109375 87.394531 92.390625 87.070313 91.660156 86.464844 C 90.921875 85.871094 90.457031 85.238281 90.269531 84.558594 C 90.074219 83.871094 90.175781 83.273438 90.582031 82.761719 C 90.832031 82.460938 91.113281 82.253906 91.425781 82.136719 C 91.738281 82.011719 92.09375 81.992188 92.488281 82.074219 Z M 92.238281 85.746094 C 92.800781 86.207031 93.328125 86.460938 93.816406 86.511719 C 94.304688 86.566406 94.695313 86.410156 94.988281 86.042969 C 95.289063 85.667969 95.363281 85.246094 95.207031 84.777344 C 95.058594 84.308594 94.707031 83.847656 94.144531 83.386719 C 93.574219 82.941406 93.042969 82.691406 92.550781 82.636719 C 92.0625 82.585938 91.667969 82.746094 91.363281 83.121094 C 91.074219 83.488281 91.003906 83.902344 91.160156 84.371094 C 91.308594 84.839844 91.667969 85.300781 92.238281 85.746094 Z M 99.25 75.523438 C 99.429688 75.410156 99.675781 75.351563 100 75.351563 C 100.320313 75.34375 100.734375 75.394531 101.234375 75.507813 L 103.578125 76.007813 L 102.953125 76.851563 L 100.75 76.351563 C 100.175781 76.238281 99.753906 76.21875 99.484375 76.289063 C 99.203125 76.363281 98.949219 76.554688 98.71875 76.867188 L 98.09375 77.726563 L 100.8125 79.742188 L 100.21875 80.523438 L 93.78125 75.742188 L 95.09375 73.976563 C 95.59375 73.3125 96.121094 72.929688 96.671875 72.835938 C 97.214844 72.742188 97.796875 72.925781 98.421875 73.382813 C 98.828125 73.6875 99.105469 74.019531 99.25 74.382813 C 99.386719 74.75 99.386719 75.128906 99.25 75.523438 Z M 95.09375 75.492188 L 97.375 77.195313 L 98.09375 76.210938 C 98.375 75.828125 98.496094 75.46875 98.453125 75.132813 C 98.402344 74.789063 98.1875 74.476563 97.8125 74.195313 C 97.4375 73.925781 97.085938 73.816406 96.75 73.867188 C 96.40625 73.910156 96.09375 74.125 95.8125 74.507813 Z M 101.050781 70.144531 C 100.792969 70.542969 100.761719 70.96875 100.957031 71.425781 C 101.15625 71.886719 101.558594 72.308594 102.160156 72.691406 C 102.765625 73.089844 103.316406 73.28125 103.816406 73.269531 C 104.316406 73.25 104.695313 73.042969 104.957031 72.644531 C 105.214844 72.238281 105.242188 71.8125 105.035156 71.363281 C 104.835938 70.90625 104.433594 70.480469 103.832031 70.082031 C 103.230469 69.699219 102.683594 69.511719 102.191406 69.519531 C 101.691406 69.53125 101.3125 69.738281 101.050781 70.144531 Z M 100.347656 69.691406 C 100.765625 69.035156 101.328125 68.675781 102.035156 68.613281 C 102.746094 68.542969 103.515625 68.769531 104.347656 69.300781 C 105.179688 69.832031 105.710938 70.4375 105.941406 71.113281 C 106.167969 71.78125 106.074219 72.441406 105.660156 73.097656 C 105.230469 73.753906 104.664063 74.121094 103.957031 74.191406 C 103.261719 74.253906 102.496094 74.019531 101.660156 73.488281 C 100.828125 72.957031 100.296875 72.359375 100.066406 71.691406 C 99.828125 71.015625 99.921875 70.347656 100.347656 69.691406 Z M 106.441406 65.976563 C 106.058594 66.582031 105.871094 67.054688 105.878906 67.398438 C 105.878906 67.734375 106.0625 68.015625 106.425781 68.242188 C 106.71875 68.429688 107.011719 68.492188 107.300781 68.429688 C 107.589844 68.367188 107.832031 68.191406 108.019531 67.898438 C 108.289063 67.472656 108.339844 67.03125 108.175781 66.570313 C 108.007813 66.101563 107.652344 65.695313 107.113281 65.351563 L 106.925781 65.226563 Z M 107.066406 64.257813 L 109.957031 66.117188 L 109.472656 66.867188 L 108.707031 66.382813 C 108.902344 66.757813 108.992188 67.117188 108.972656 67.460938 C 108.949219 67.804688 108.820313 68.160156 108.582031 68.523438 C 108.289063 68.992188 107.910156 69.273438 107.441406 69.367188 C 106.984375 69.460938 106.511719 69.351563 106.019531 69.039063 C 105.449219 68.664063 105.125 68.21875 105.050781 67.695313 C 104.980469 67.164063 105.160156 66.5625 105.597656 65.882813 L 106.269531 64.820313 L 106.191406 64.773438 C 105.808594 64.523438 105.4375 64.445313 105.082031 64.539063 C 104.730469 64.632813 104.417969 64.890625 104.144531 65.304688 C 103.988281 65.554688 103.863281 65.832031 103.769531 66.132813 C 103.675781 66.425781 103.628906 66.726563 103.628906 67.039063 L 102.863281 66.554688 C 102.917969 66.191406 103 65.863281 103.113281 65.570313 C 103.21875 65.28125 103.347656 65.015625 103.503906 64.773438 C 103.921875 64.117188 104.425781 63.75 105.019531 63.664063 C 105.613281 63.570313 106.296875 63.769531 107.066406 64.257813 Z M 108.503906 58.8125 L 105.738281 57.09375 L 106.222656 56.328125 L 113.316406 60.75 L 112.832031 61.515625 L 112.066406 61.03125 C 112.273438 61.386719 112.371094 61.730469 112.363281 62.0625 C 112.363281 62.398438 112.257813 62.730469 112.050781 63.0625 C 111.695313 63.617188 111.164063 63.917969 110.457031 63.96875 C 109.761719 64.011719 109.011719 63.777344 108.207031 63.265625 C 107.40625 62.765625 106.871094 62.1875 106.597656 61.53125 C 106.316406 60.875 106.355469 60.273438 106.707031 59.71875 C 106.917969 59.386719 107.171875 59.148438 107.472656 59 C 107.765625 58.84375 108.109375 58.78125 108.503906 58.8125 Z M 108.691406 62.484375 C 109.316406 62.871094 109.875 63.0625 110.363281 63.0625 C 110.851563 63.054688 111.222656 62.851563 111.472656 62.453125 C 111.722656 62.046875 111.742188 61.621094 111.535156 61.171875 C 111.324219 60.726563 110.910156 60.308594 110.285156 59.921875 C 109.671875 59.539063 109.121094 59.351563 108.628906 59.359375 C 108.140625 59.371094 107.769531 59.578125 107.519531 59.984375 C 107.269531 60.382813 107.25 60.804688 107.457031 61.25 C 107.667969 61.6875 108.078125 62.101563 108.691406 62.484375 Z M 108.691406 62.484375 "/>
<path style="fill:none;stroke-width:3;stroke-linecap:round;stroke-linejoin:round;stroke:rgb(100%,100%,100%);stroke-opacity:1;stroke-miterlimit:10;" d="M 38.628906 194.378906 L 39.566406 195.035156 L 37.347656 198.238281 L 40.800781 200.628906 L 43.019531 197.425781 L 43.972656 198.082031 L 38.566406 205.878906 L 37.613281 205.222656 L 40.191406 201.503906 L 36.738281 199.113281 L 34.160156 202.832031 L 33.222656 202.175781 Z M 41.921875 204.773438 L 44.375 201.242188 L 45.234375 201.851563 L 42.8125 205.351563 C 42.425781 205.90625 42.234375 206.382813 42.234375 206.789063 C 42.234375 207.195313 42.425781 207.53125 42.8125 207.804688 C 43.28125 208.125 43.765625 208.214844 44.265625 208.070313 C 44.765625 207.933594 45.210938 207.578125 45.609375 207.007813 L 47.90625 203.695313 L 48.78125 204.304688 L 44.734375 210.148438 L 43.859375 209.539063 L 44.484375 208.632813 C 44.023438 208.851563 43.597656 208.949219 43.203125 208.929688 C 42.804688 208.90625 42.421875 208.773438 42.046875 208.523438 C 41.453125 208.105469 41.144531 207.574219 41.125 206.929688 C 41.101563 206.296875 41.367188 205.578125 41.921875 204.773438 Z M 46.640625 202.617188 Z M 53.414063 208.828125 L 55.601563 205.65625 L 56.460938 206.25 L 50.835938 214.375 L 49.976563 213.78125 L 50.585938 212.90625 C 50.15625 213.125 49.746094 213.222656 49.351563 213.203125 C 48.953125 213.179688 48.5625 213.035156 48.179688 212.765625 C 47.53125 212.316406 47.203125 211.671875 47.195313 210.828125 C 47.195313 209.984375 47.511719 209.105469 48.148438 208.1875 C 48.78125 207.273438 49.492188 206.671875 50.273438 206.390625 C 51.0625 206.101563 51.78125 206.179688 52.429688 206.625 C 52.8125 206.898438 53.085938 207.214844 53.242188 207.578125 C 53.40625 207.933594 53.464844 208.351563 53.414063 208.828125 Z M 49.039063 208.8125 C 48.558594 209.523438 48.308594 210.167969 48.289063 210.75 C 48.265625 211.332031 48.484375 211.78125 48.945313 212.09375 C 49.402344 212.414063 49.902344 212.46875 50.445313 212.25 C 50.996094 212.03125 51.511719 211.566406 51.992188 210.859375 C 52.480469 210.152344 52.730469 209.511719 52.742188 208.9375 C 52.75 208.355469 52.527344 207.902344 52.070313 207.578125 C 51.609375 207.265625 51.109375 207.21875 50.570313 207.4375 C 50.039063 207.648438 49.527344 208.105469 49.039063 208.8125 Z M 60.058594 211.289063 L 59.605469 212.289063 C 59.394531 212.019531 59.160156 211.78125 58.902344 211.570313 C 58.652344 211.351563 58.371094 211.175781 58.058594 211.039063 C 57.589844 210.820313 57.191406 210.738281 56.871094 210.789063 C 56.558594 210.84375 56.328125 211.03125 56.183594 211.351563 C 56.066406 211.601563 56.066406 211.835938 56.183594 212.054688 C 56.296875 212.265625 56.578125 212.550781 57.027344 212.914063 L 57.308594 213.148438 C 57.921875 213.617188 58.300781 214.066406 58.449219 214.492188 C 58.59375 214.910156 58.546875 215.378906 58.308594 215.898438 C 58.035156 216.511719 57.605469 216.898438 57.011719 217.054688 C 56.425781 217.210938 55.761719 217.117188 55.011719 216.773438 C 54.707031 216.636719 54.402344 216.453125 54.089844 216.226563 C 53.785156 216.007813 53.480469 215.746094 53.167969 215.445313 L 53.667969 214.335938 C 53.925781 214.703125 54.203125 215.015625 54.496094 215.273438 C 54.796875 215.53125 55.113281 215.742188 55.449219 215.898438 C 55.894531 216.105469 56.277344 216.179688 56.589844 216.117188 C 56.910156 216.054688 57.144531 215.867188 57.292969 215.554688 C 57.417969 215.265625 57.425781 215 57.324219 214.757813 C 57.230469 214.519531 56.917969 214.203125 56.386719 213.804688 L 56.105469 213.554688 C 55.574219 213.148438 55.238281 212.742188 55.105469 212.335938 C 54.96875 211.929688 55.015625 211.476563 55.246094 210.976563 C 55.515625 210.375 55.921875 209.992188 56.464844 209.835938 C 57.015625 209.679688 57.644531 209.765625 58.355469 210.085938 C 58.707031 210.253906 59.027344 210.4375 59.308594 210.632813 C 59.597656 210.832031 59.847656 211.050781 60.058594 211.289063 Z M 63.886719 213.582031 C 63.363281 213.363281 62.855469 213.417969 62.355469 213.738281 C 61.863281 214.0625 61.453125 214.621094 61.121094 215.410156 C 60.785156 216.191406 60.675781 216.871094 60.792969 217.441406 C 60.90625 218.011719 61.222656 218.410156 61.746094 218.628906 C 62.265625 218.847656 62.769531 218.792969 63.261719 218.472656 C 63.761719 218.148438 64.171875 217.605469 64.496094 216.832031 C 64.828125 216.050781 64.9375 215.371094 64.824219 214.785156 C 64.71875 214.203125 64.40625 213.800781 63.886719 213.582031 Z M 64.261719 212.675781 C 65.105469 213.03125 65.636719 213.613281 65.855469 214.425781 C 66.082031 215.238281 65.96875 216.183594 65.511719 217.253906 C 65.0625 218.324219 64.46875 219.066406 63.730469 219.472656 C 62.988281 219.878906 62.199219 219.902344 61.355469 219.550781 C 60.511719 219.195313 59.980469 218.613281 59.761719 217.800781 C 59.542969 216.988281 59.65625 216.046875 60.105469 214.972656 C 60.5625 213.902344 61.15625 213.160156 61.886719 212.753906 C 62.625 212.347656 63.417969 212.324219 64.261719 212.675781 Z M 72.324219 219.320313 L 70.652344 223.273438 L 69.683594 222.867188 L 71.339844 218.945313 C 71.597656 218.332031 71.683594 217.828125 71.589844 217.429688 C 71.503906 217.023438 71.246094 216.726563 70.808594 216.539063 C 70.285156 216.320313 69.796875 216.335938 69.339844 216.585938 C 68.878906 216.828125 68.515625 217.265625 68.246094 217.898438 L 66.683594 221.601563 L 65.714844 221.179688 L 68.480469 214.632813 L 69.449219 215.054688 L 69.011719 216.070313 C 69.40625 215.769531 69.800781 215.59375 70.199219 215.539063 C 70.59375 215.476563 71 215.53125 71.417969 215.695313 C 72.082031 215.976563 72.496094 216.425781 72.652344 217.039063 C 72.816406 217.65625 72.707031 218.414063 72.324219 219.320313 Z M 81.496094 223.027344 C 81.691406 223.214844 81.839844 223.496094 81.933594 223.871094 C 82.027344 224.238281 82.089844 224.710938 82.121094 225.292969 L 82.183594 228.136719 L 81.027344 227.652344 L 80.980469 224.980469 C 80.96875 224.292969 80.878906 223.804688 80.714844 223.511719 C 80.558594 223.222656 80.265625 222.988281 79.839844 222.808594 L 78.667969 222.308594 L 77.105469 225.996094 L 76.058594 225.558594 L 79.746094 216.824219 L 82.136719 217.824219 C 83.042969 218.210938 83.625 218.707031 83.886719 219.308594 C 84.144531 219.914063 84.097656 220.636719 83.746094 221.480469 C 83.515625 222.035156 83.207031 222.445313 82.824219 222.714844 C 82.4375 222.976563 81.996094 223.082031 81.496094 223.027344 Z M 80.386719 218.230469 L 79.074219 221.339844 L 80.417969 221.902344 C 80.9375 222.121094 81.378906 222.152344 81.746094 221.996094 C 82.121094 221.839844 82.417969 221.507813 82.636719 220.996094 C 82.855469 220.488281 82.886719 220.050781 82.730469 219.683594 C 82.582031 219.308594 82.25 219.011719 81.730469 218.792969 Z M 86.261719 222.15625 L 87.230469 222.5625 L 84.464844 229.109375 L 83.496094 228.703125 Z M 87.339844 219.609375 L 88.308594 220.015625 L 87.730469 221.375 L 86.761719 220.96875 Z M 88.550781 223.125 L 89.582031 223.546875 L 89.097656 229.828125 L 93.269531 225.109375 L 94.300781 225.546875 L 89.316406 231.15625 L 88.003906 230.59375 Z M 99.390625 231.277344 L 99.171875 231.792969 L 94.71875 229.886719 C 94.445313 230.660156 94.40625 231.308594 94.59375 231.839844 C 94.789063 232.371094 95.207031 232.777344 95.84375 233.058594 C 96.21875 233.214844 96.597656 233.3125 96.984375 233.355469 C 97.378906 233.40625 97.789063 233.40625 98.21875 233.355469 L 97.78125 234.371094 C 97.363281 234.378906 96.953125 234.347656 96.546875 234.277344 C 96.148438 234.214844 95.765625 234.105469 95.390625 233.949219 C 94.453125 233.542969 93.835938 232.917969 93.546875 232.074219 C 93.265625 231.230469 93.347656 230.292969 93.796875 229.261719 C 94.253906 228.191406 94.875 227.457031 95.65625 227.058594 C 96.445313 226.652344 97.28125 226.636719 98.15625 227.011719 C 98.957031 227.355469 99.46875 227.910156 99.6875 228.667969 C 99.90625 229.429688 99.804688 230.300781 99.390625 231.277344 Z M 98.546875 230.542969 C 98.796875 229.960938 98.851563 229.429688 98.71875 228.949219 C 98.582031 228.472656 98.273438 228.132813 97.796875 227.933594 C 97.253906 227.695313 96.75 227.679688 96.28125 227.886719 C 95.8125 228.085938 95.421875 228.480469 95.109375 229.074219 Z M 105.019531 232.179688 C 104.957031 232.066406 104.878906 231.957031 104.785156 231.851563 C 104.691406 231.738281 104.570313 231.640625 104.425781 231.554688 C 103.925781 231.234375 103.425781 231.164063 102.925781 231.351563 C 102.433594 231.539063 101.972656 231.972656 101.535156 232.648438 L 99.519531 235.804688 L 98.613281 235.242188 L 102.441406 229.242188 L 103.347656 229.804688 L 102.753906 230.742188 C 103.160156 230.492188 103.570313 230.378906 103.988281 230.398438 C 104.402344 230.410156 104.820313 230.550781 105.238281 230.820313 C 105.300781 230.863281 105.363281 230.914063 105.425781 230.976563 C 105.496094 231.03125 105.582031 231.097656 105.675781 231.179688 Z M 105.019531 232.179688 "/>
<path style=" stroke:none;fill-rule:evenodd;fill:rgb(41.960784%,58.039216%,69.019608%);fill-opacity:1;" d="M 38.628906 194.378906 L 39.566406 195.035156 L 37.347656 198.238281 L 40.800781 200.628906 L 43.019531 197.425781 L 43.972656 198.082031 L 38.566406 205.878906 L 37.613281 205.222656 L 40.191406 201.503906 L 36.738281 199.113281 L 34.160156 202.832031 L 33.222656 202.175781 Z M 41.921875 204.773438 L 44.375 201.242188 L 45.234375 201.851563 L 42.8125 205.351563 C 42.425781 205.90625 42.234375 206.382813 42.234375 206.789063 C 42.234375 207.195313 42.425781 207.53125 42.8125 207.804688 C 43.28125 208.125 43.765625 208.214844 44.265625 208.070313 C 44.765625 207.933594 45.210938 207.578125 45.609375 207.007813 L 47.90625 203.695313 L 48.78125 204.304688 L 44.734375 210.148438 L 43.859375 209.539063 L 44.484375 208.632813 C 44.023438 208.851563 43.597656 208.949219 43.203125 208.929688 C 42.804688 208.90625 42.421875 208.773438 42.046875 208.523438 C 41.453125 208.105469 41.144531 207.574219 41.125 206.929688 C 41.101563 206.296875 41.367188 205.578125 41.921875 204.773438 Z M 46.640625 202.617188 Z M 53.414063 208.828125 L 55.601563 205.65625 L 56.460938 206.25 L 50.835938 214.375 L 49.976563 213.78125 L 50.585938 212.90625 C 50.15625 213.125 49.746094 213.222656 49.351563 213.203125 C 48.953125 213.179688 48.5625 213.035156 48.179688 212.765625 C 47.53125 212.316406 47.203125 211.671875 47.195313 210.828125 C 47.195313 209.984375 47.511719 209.105469 48.148438 208.1875 C 48.78125 207.273438 49.492188 206.671875 50.273438 206.390625 C 51.0625 206.101563 51.78125 206.179688 52.429688 206.625 C 52.8125 206.898438 53.085938 207.214844 53.242188 207.578125 C 53.40625 207.933594 53.464844 208.351563 53.414063 208.828125 Z M 49.039063 208.8125 C 48.558594 209.523438 48.308594 210.167969 48.289063 210.75 C 48.265625 211.332031 48.484375 211.78125 48.945313 212.09375 C 49.402344 212.414063 49.902344 212.46875 50.445313 212.25 C 50.996094 212.03125 51.511719 211.566406 51.992188 210.859375 C 52.480469 210.152344 52.730469 209.511719 52.742188 208.9375 C 52.75 208.355469 52.527344 207.902344 52.070313 207.578125 C 51.609375 207.265625 51.109375 207.21875 50.570313 207.4375 C 50.039063 207.648438 49.527344 208.105469 49.039063 208.8125 Z M 60.058594 211.289063 L 59.605469 212.289063 C 59.394531 212.019531 59.160156 211.78125 58.902344 211.570313 C 58.652344 211.351563 58.371094 211.175781 58.058594 211.039063 C 57.589844 210.820313 57.191406 210.738281 56.871094 210.789063 C 56.558594 210.84375 56.328125 211.03125 56.183594 211.351563 C 56.066406 211.601563 56.066406 211.835938 56.183594 212.054688 C 56.296875 212.265625 56.578125 212.550781 57.027344 212.914063 L 57.308594 213.148438 C 57.921875 213.617188 58.300781 214.066406 58.449219 214.492188 C 58.59375 214.910156 58.546875 215.378906 58.308594 215.898438 C 58.035156 216.511719 57.605469 216.898438 57.011719 217.054688 C 56.425781 217.210938 55.761719 217.117188 55.011719 216.773438 C 54.707031 216.636719 54.402344 216.453125 54.089844 216.226563 C 53.785156 216.007813 53.480469 215.746094 53.167969 215.445313 L 53.667969 214.335938 C 53.925781 214.703125 54.203125 215.015625 54.496094 215.273438 C 54.796875 215.53125 55.113281 215.742188 55.449219 215.898438 C 55.894531 216.105469 56.277344 216.179688 56.589844 216.117188 C 56.910156 216.054688 57.144531 215.867188 57.292969 215.554688 C 57.417969 215.265625 57.425781 215 57.324219 214.757813 C 57.230469 214.519531 56.917969 214.203125 56.386719 213.804688 L 56.105469 213.554688 C 55.574219 213.148438 55.238281 212.742188 55.105469 212.335938 C 54.96875 211.929688 55.015625 211.476563 55.246094 210.976563 C 55.515625 210.375 55.921875 209.992188 56.464844 209.835938 C 57.015625 209.679688 57.644531 209.765625 58.355469 210.085938 C 58.707031 210.253906 59.027344 210.4375 59.308594 210.632813 C 59.597656 210.832031 59.847656 211.050781 60.058594 211.289063 Z M 63.886719 213.582031 C 63.363281 213.363281 62.855469 213.417969 62.355469 213.738281 C 61.863281 214.0625 61.453125 214.621094 61.121094 215.410156 C 60.785156 216.191406 60.675781 216.871094 60.792969 217.441406 C 60.90625 218.011719 61.222656 218.410156 61.746094 218.628906 C 62.265625 218.847656 62.769531 218.792969 63.261719 218.472656 C 63.761719 218.148438 64.171875 217.605469 64.496094 216.832031 C 64.828125 216.050781 64.9375 215.371094 64.824219 214.785156 C 64.71875 214.203125 64.40625 213.800781 63.886719 213.582031 Z M 64.261719 212.675781 C 65.105469 213.03125 65.636719 213.613281 65.855469 214.425781 C 66.082031 215.238281 65.96875 216.183594 65.511719 217.253906 C 65.0625 218.324219 64.46875 219.066406 63.730469 219.472656 C 62.988281 219.878906 62.199219 219.902344 61.355469 219.550781 C 60.511719 219.195313 59.980469 218.613281 59.761719 217.800781 C 59.542969 216.988281 59.65625 216.046875 60.105469 214.972656 C 60.5625 213.902344 61.15625 213.160156 61.886719 212.753906 C 62.625 212.347656 63.417969 212.324219 64.261719 212.675781 Z M 72.324219 219.320313 L 70.652344 223.273438 L 69.683594 222.867188 L 71.339844 218.945313 C 71.597656 218.332031 71.683594 217.828125 71.589844 217.429688 C 71.503906 217.023438 71.246094 216.726563 70.808594 216.539063 C 70.285156 216.320313 69.796875 216.335938 69.339844 216.585938 C 68.878906 216.828125 68.515625 217.265625 68.246094 217.898438 L 66.683594 221.601563 L 65.714844 221.179688 L 68.480469 214.632813 L 69.449219 215.054688 L 69.011719 216.070313 C 69.40625 215.769531 69.800781 215.59375 70.199219 215.539063 C 70.59375 215.476563 71 215.53125 71.417969 215.695313 C 72.082031 215.976563 72.496094 216.425781 72.652344 217.039063 C 72.816406 217.65625 72.707031 218.414063 72.324219 219.320313 Z M 81.496094 223.027344 C 81.691406 223.214844 81.839844 223.496094 81.933594 223.871094 C 82.027344 224.238281 82.089844 224.710938 82.121094 225.292969 L 82.183594 228.136719 L 81.027344 227.652344 L 80.980469 224.980469 C 80.96875 224.292969 80.878906 223.804688 80.714844 223.511719 C 80.558594 223.222656 80.265625 222.988281 79.839844 222.808594 L 78.667969 222.308594 L 77.105469 225.996094 L 76.058594 225.558594 L 79.746094 216.824219 L 82.136719 217.824219 C 83.042969 218.210938 83.625 218.707031 83.886719 219.308594 C 84.144531 219.914063 84.097656 220.636719 83.746094 221.480469 C 83.515625 222.035156 83.207031 222.445313 82.824219 222.714844 C 82.4375 222.976563 81.996094 223.082031 81.496094 223.027344 Z M 80.386719 218.230469 L 79.074219 221.339844 L 80.417969 221.902344 C 80.9375 222.121094 81.378906 222.152344 81.746094 221.996094 C 82.121094 221.839844 82.417969 221.507813 82.636719 220.996094 C 82.855469 220.488281 82.886719 220.050781 82.730469 219.683594 C 82.582031 219.308594 82.25 219.011719 81.730469 218.792969 Z M 86.261719 222.15625 L 87.230469 222.5625 L 84.464844 229.109375 L 83.496094 228.703125 Z M 87.339844 219.609375 L 88.308594 220.015625 L 87.730469 221.375 L 86.761719 220.96875 Z M 88.550781 223.125 L 89.582031 223.546875 L 89.097656 229.828125 L 93.269531 225.109375 L 94.300781 225.546875 L 89.316406 231.15625 L 88.003906 230.59375 Z M 99.390625 231.277344 L 99.171875 231.792969 L 94.71875 229.886719 C 94.445313 230.660156 94.40625 231.308594 94.59375 231.839844 C 94.789063 232.371094 95.207031 232.777344 95.84375 233.058594 C 96.21875 233.214844 96.597656 233.3125 96.984375 233.355469 C 97.378906 233.40625 97.789063 233.40625 98.21875 233.355469 L 97.78125 234.371094 C 97.363281 234.378906 96.953125 234.347656 96.546875 234.277344 C 96.148438 234.214844 95.765625 234.105469 95.390625 233.949219 C 94.453125 233.542969 93.835938 232.917969 93.546875 232.074219 C 93.265625 231.230469 93.347656 230.292969 93.796875 229.261719 C 94.253906 228.191406 94.875 227.457031 95.65625 227.058594 C 96.445313 226.652344 97.28125 226.636719 98.15625 227.011719 C 98.957031 227.355469 99.46875 227.910156 99.6875 228.667969 C 99.90625 229.429688 99.804688 230.300781 99.390625 231.277344 Z M 98.546875 230.542969 C 98.796875 229.960938 98.851563 229.429688 98.71875 228.949219 C 98.582031 228.472656 98.273438 228.132813 97.796875 227.933594 C 97.253906 227.695313 96.75 227.679688 96.28125 227.886719 C 95.8125 228.085938 95.421875 228.480469 95.109375 229.074219 Z M 105.019531 232.179688 C 104.957031 232.066406 104.878906 231.957031 104.785156 231.851563 C 104.691406 231.738281 104.570313 231.640625 104.425781 231.554688 C 103.925781 231.234375 103.425781 231.164063 102.925781 231.351563 C 102.433594 231.539063 101.972656 231.972656 101.535156 232.648438 L 99.519531 235.804688 L 98.613281 235.242188 L 102.441406 229.242188 L 103.347656 229.804688 L 102.753906 230.742188 C 103.160156 230.492188 103.570313 230.378906 103.988281 230.398438 C 104.402344 230.410156 104.820313 230.550781 105.238281 230.820313 C 105.300781 230.863281 105.363281 230.914063 105.425781 230.976563 C 105.496094 231.03125 105.582031 231.097656 105.675781 231.179688 Z M 105.019531 232.179688 "/>
</g>
</svg>

