<?xml version="1.0" encoding="UTF-8"?>
<svg xmlns="http://www.w3.org/2000/svg" xmlns:xlink="http://www.w3.org/1999/xlink" width="256pt" height="256pt" viewBox="0 0 256 256" version="1.1">
<g id="surface2">
<rect x="0" y="0" width="256" height="256" style="fill:rgb(94.901961%,93.72549%,91.372549%);fill-opacity:1;stroke:none;"/>
<path style="fill:none;stroke-width:8;stroke-linecap:round;stroke-linejoin:round;stroke:rgb(75.686275%,70.980392%,61.568627%);stroke-opacity:1;stroke-miterlimit:10;" d="M 90.722656 12.042969 L 90.304688 -0.730469 L 89.644531 -9 "/>
<path style="fill:none;stroke-width:8;stroke-linecap:round;stroke-linejoin:round;stroke:rgb(75.686275%,70.980392%,61.568627%);stroke-opacity:1;stroke-miterlimit:10;" d="M 69.9375 13.523438 L 68.503906 -9 "/>
<path style="fill:none;stroke-width:8;stroke-linecap:round;stroke-linejoin:round;stroke:rgb(75.686275%,70.980392%,61.568627%);stroke-opacity:1;stroke-miterlimit:10;" d="M -9 44.496094 L -3.859375 42.285156 L 12.570313 32.917969 L 27.296875 25.445313 L 36.105469 21.628906 L 47.3125 17.84375 L 53.464844 16.394531 L 69.9375 13.523438 L 77.070313 13.050781 L 83.3125 12.453125 L 90.722656 12.042969 L 108.222656 11.695313 L 125.792969 11.632813 L 141.871094 12.230469 L 204.785156 17.96875 L 230.300781 19.609375 L 253.953125 20.460938 L 258.054688 20.113281 L 261.082031 19.609375 L 264 18.71875 "/>
<path style="fill:none;stroke-width:6;stroke-linecap:round;stroke-linejoin:round;stroke:rgb(100%,100%,100%);stroke-opacity:1;stroke-miterlimit:10;" d="M 90.722656 12.042969 L 90.304688 -0.730469 L 89.644531 -9 "/>
<path style="fill:none;stroke-width:6;stroke-linecap:round;stroke-linejoin:round;stroke:rgb(100%,100%,100%);stroke-opacity:1;stroke-miterlimit:10;" d="M 69.9375 13.523438 L 68.503906 -9 "/>
<path style="fill:none;stroke-width:6;stroke-linecap:round;stroke-linejoin:round;stroke:rgb(100%,100%,100%);stroke-opacity:1;stroke-miterlimit:10;" d="M -9 44.496094 L -3.859375 42.285156 L 12.570313 32.917969 L 27.296875 25.445313 L 36.105469 21.628906 L 47.3125 17.84375 L 53.464844 16.394531 L 69.9375 13.523438 L 77.070313 13.050781 L 83.3125 12.453125 L 90.722656 12.042969 L 108.222656 11.695313 L 125.792969 11.632813 L 141.871094 12.230469 L 204.785156 17.96875 L 230.300781 19.609375 L 253.953125 20.460938 L 258.054688 20.113281 L 261.082031 19.609375 L 264 18.71875 "/>
</g>
</svg>

