<?xml version="1.0" encoding="UTF-8"?>
<svg xmlns="http://www.w3.org/2000/svg" xmlns:xlink="http://www.w3.org/1999/xlink" width="256pt" height="256pt" viewBox="0 0 256 256" version="1.1">
<g id="surface2">
<rect x="0" y="0" width="256" height="256" style="fill:rgb(94.901961%,93.72549%,91.372549%);fill-opacity:1;stroke:none;"/>
<path style="fill:none;stroke-width:2;stroke-linecap:round;stroke-linejoin:round;stroke:rgb(60%,70.196078%,80%);stroke-opacity:1;stroke-miterlimit:10;" d="M -3 254.871094 L 0.335938 253.125 L 8.617188 247.527344 L 14.933594 239.941406 L 23.082031 230.089844 L 31.042969 220.144531 L 39 211.617188 L 48.375 203.566406 L 57.375 194.945313 L 65.144531 186.796875 L 74.710938 177.796875 L 82.953125 170.125 L 88.828125 165.105469 L 91.761719 163.589844 L 95.648438 163.117188 L 104.078125 163.683594 L 111.75 164.535156 L 116.015625 167 L 116.488281 171.925781 L 112.511719 179.410156 L 112.414063 181.679688 L 113.457031 186.421875 L 120.847656 190.304688 L 124.636719 197.976563 L 127.859375 203.847656 L 130.320313 211.238281 L 128.914063 213.328125 L 124.730469 220.144531 L 121.792969 225.066406 L 120.5625 230.46875 L 121.96875 237.300781 L 123.695313 240.03125 L 125.394531 246.007813 L 125.203125 251.878906 L 121.320313 254.53125 L 116.585938 253.582031 L 111.847656 252.351563 L 108.058594 254.53125 L 108.964844 258 "/>
</g>
</svg>

