<?xml version="1.0" encoding="UTF-8"?>
<svg xmlns="http://www.w3.org/2000/svg" xmlns:xlink="http://www.w3.org/1999/xlink" width="256pt" height="256pt" viewBox="0 0 256 256" version="1.1">
<g id="surface2">
<rect x="0" y="0" width="256" height="256" style="fill:rgb(94.901961%,93.72549%,91.372549%);fill-opacity:1;stroke:none;"/>
<path style=" stroke:none;fill-rule:evenodd;fill:rgb(60%,70.196078%,80%);fill-opacity:1;" d="M -4 -4 L 259 -4 L 259 259 L 259 -4 Z M -4 -4 "/>
<path style="fill:none;stroke-width:1;stroke-linecap:round;stroke-linejoin:round;stroke:rgb(70.196078%,77.647059%,83.137255%);stroke-opacity:1;stroke-miterlimit:10;" d="M -4 -4 L 259 -4 L 259 259 L 259 -4 L -4 -4 "/>
<path style="fill:none;stroke-width:8;stroke-linecap:round;stroke-linejoin:round;stroke:rgb(75.686275%,70.980392%,61.568627%);stroke-opacity:1;stroke-miterlimit:10;" d="M 181.476563 42.140625 L 158.695313 54.097656 L 130.523438 61.664063 L 110.484375 56.800781 "/>
<path style="fill:none;stroke-width:8;stroke-linecap:round;stroke-linejoin:round;stroke:rgb(75.686275%,70.980392%,61.568627%);stroke-opacity:1;stroke-miterlimit:10;" d="M 193.902344 65.859375 L 154.570313 83.628906 L 49.269531 159.351563 "/>
<path style="fill:none;stroke-width:9;stroke-linecap:round;stroke-linejoin:round;stroke:rgb(75.686275%,70.980392%,61.568627%);stroke-opacity:1;stroke-miterlimit:10;" d="M 224.644531 265 L 225.292969 262.117188 L 232.464844 239.894531 L 239.503906 212.523438 L 241.445313 196.667969 L 239.074219 182.285156 L 226.871094 147.054688 L 206.929688 97.898438 L 193.902344 65.859375 L 189.199219 56.246094 L 184.640625 47.859375 L 181.476563 42.140625 L 160.160156 11.199219 L 143.601563 -10 "/>
<path style="fill:none;stroke-width:6;stroke-linecap:round;stroke-linejoin:round;stroke:rgb(100%,100%,100%);stroke-opacity:1;stroke-miterlimit:10;" d="M 181.476563 42.140625 L 158.695313 54.097656 L 130.523438 61.664063 L 110.484375 56.800781 "/>
<path style="fill:none;stroke-width:6;stroke-linecap:round;stroke-linejoin:round;stroke:rgb(100%,100%,100%);stroke-opacity:1;stroke-miterlimit:10;" d="M 193.902344 65.859375 L 154.570313 83.628906 L 49.269531 159.351563 "/>
<path style="fill:none;stroke-width:7;stroke-linecap:round;stroke-linejoin:round;stroke:rgb(100%,99.215686%,54.509804%);stroke-opacity:1;stroke-miterlimit:10;" d="M 224.644531 265 L 225.292969 262.117188 L 232.464844 239.894531 L 239.503906 212.523438 L 241.445313 196.667969 L 239.074219 182.285156 L 226.871094 147.054688 L 206.929688 97.898438 L 193.902344 65.859375 L 189.199219 56.246094 L 184.640625 47.859375 L 181.476563 42.140625 L 160.160156 11.199219 L 143.601563 -10 "/>
<path style="fill:none;stroke-width:3;stroke-linecap:round;stroke-linejoin:round;stroke:rgb(100%,100%,100%);stroke-opacity:1;stroke-miterlimit:10;" d="M 88.996094 125.851563 L 90.183594 125.007813 L 94.855469 128.351563 L 93.183594 122.835938 L 94.371094 121.992188 L 99.042969 128.492188 L 98.261719 129.039063 L 94.152344 123.320313 L 95.855469 128.882813 L 95.042969 129.460938 L 90.339844 126.070313 L 94.449219 131.789063 L 93.667969 132.351563 Z M 100.808594 123.472656 C 100.222656 123.902344 99.875 124.277344 99.761719 124.597656 C 99.648438 124.910156 99.714844 125.246094 99.964844 125.597656 C 100.171875 125.878906 100.421875 126.042969 100.714844 126.082031 C 101.003906 126.125 101.292969 126.042969 101.574219 125.832031 C 101.980469 125.542969 102.1875 125.152344 102.199219 124.660156 C 102.207031 124.171875 102.027344 123.671875 101.652344 123.160156 L 101.527344 122.957031 Z M 102.027344 122.113281 L 104.027344 124.910156 L 103.292969 125.425781 L 102.761719 124.691406 C 102.8125 125.109375 102.765625 125.480469 102.621094 125.800781 C 102.472656 126.113281 102.222656 126.394531 101.871094 126.644531 C 101.421875 126.96875 100.964844 127.089844 100.496094 127.003906 C 100.027344 126.921875 99.628906 126.640625 99.292969 126.160156 C 98.898438 125.609375 98.761719 125.078125 98.886719 124.566406 C 99.011719 124.046875 99.410156 123.550781 100.074219 123.082031 L 101.074219 122.347656 L 101.027344 122.269531 C 100.753906 121.894531 100.4375 121.6875 100.074219 121.644531 C 99.710938 121.59375 99.332031 121.714844 98.933594 122.003906 C 98.695313 122.183594 98.476563 122.390625 98.277344 122.628906 C 98.082031 122.871094 97.925781 123.136719 97.808594 123.425781 L 97.277344 122.691406 C 97.464844 122.390625 97.664063 122.125 97.871094 121.894531 C 98.070313 121.65625 98.289063 121.449219 98.527344 121.269531 C 99.164063 120.824219 99.769531 120.667969 100.339844 120.800781 C 100.921875 120.9375 101.484375 121.375 102.027344 122.113281 Z M 101.996094 118.949219 L 102.714844 118.433594 L 106.230469 123.324219 L 105.511719 123.839844 Z M 100.636719 117.058594 L 101.355469 116.542969 L 102.074219 117.558594 L 101.355469 118.074219 Z M 106.339844 116.6875 C 105.945313 116.96875 105.757813 117.359375 105.777344 117.859375 C 105.800781 118.359375 106.019531 118.902344 106.433594 119.484375 C 106.851563 120.070313 107.285156 120.449219 107.746094 120.625 C 108.214844 120.792969 108.644531 120.734375 109.042969 120.453125 C 109.425781 120.171875 109.609375 119.789063 109.589844 119.296875 C 109.578125 118.796875 109.363281 118.257813 108.949219 117.671875 C 108.53125 117.089844 108.089844 116.710938 107.621094 116.53125 C 107.152344 116.355469 106.726563 116.40625 106.339844 116.6875 Z M 105.855469 116.015625 C 106.480469 115.570313 107.128906 115.445313 107.808594 115.640625 C 108.496094 115.828125 109.128906 116.324219 109.714844 117.125 C 110.285156 117.917969 110.558594 118.671875 110.527344 119.390625 C 110.496094 120.109375 110.167969 120.695313 109.542969 121.140625 C 108.90625 121.601563 108.246094 121.730469 107.558594 121.53125 C 106.871094 121.324219 106.242188 120.824219 105.667969 120.03125 C 105.085938 119.230469 104.816406 118.476563 104.855469 117.765625 C 104.886719 117.058594 105.222656 116.476563 105.855469 116.015625 Z M 114.199219 113.140625 L 116.308594 116.078125 L 115.574219 116.59375 L 113.480469 113.671875 C 113.144531 113.214844 112.8125 112.933594 112.480469 112.828125 C 112.15625 112.714844 111.835938 112.773438 111.511719 113 C 111.117188 113.28125 110.910156 113.640625 110.886719 114.078125 C 110.855469 114.515625 111.011719 114.96875 111.355469 115.4375 L 113.339844 118.203125 L 112.605469 118.734375 L 109.089844 113.84375 L 109.824219 113.3125 L 110.371094 114.078125 C 110.339844 113.664063 110.386719 113.296875 110.511719 112.984375 C 110.636719 112.671875 110.855469 112.402344 111.167969 112.171875 C 111.667969 111.820313 112.171875 111.726563 112.683594 111.890625 C 113.203125 112.046875 113.707031 112.464844 114.199219 113.140625 Z M 119.613281 109.691406 L 119.894531 110.082031 L 116.566406 112.472656 C 117.003906 113.003906 117.457031 113.316406 117.925781 113.410156 C 118.402344 113.496094 118.878906 113.371094 119.347656 113.035156 C 119.628906 112.828125 119.867188 112.597656 120.066406 112.347656 C 120.273438 112.089844 120.457031 111.792969 120.613281 111.457031 L 121.144531 112.207031 C 120.976563 112.519531 120.777344 112.808594 120.550781 113.066406 C 120.332031 113.316406 120.085938 113.542969 119.816406 113.738281 C 119.105469 114.25 118.382813 114.425781 117.644531 114.269531 C 116.90625 114.113281 116.261719 113.652344 115.707031 112.878906 C 115.136719 112.078125 114.875 111.300781 114.925781 110.550781 C 114.980469 109.800781 115.332031 109.1875 115.988281 108.707031 C 116.582031 108.28125 117.199219 108.15625 117.847656 108.332031 C 118.492188 108.511719 119.082031 108.964844 119.613281 109.691406 Z M 118.707031 109.972656 C 118.382813 109.535156 118.019531 109.265625 117.613281 109.160156 C 117.214844 109.046875 116.84375 109.121094 116.488281 109.378906 C 116.082031 109.671875 115.847656 110.035156 115.785156 110.472656 C 115.722656 110.902344 115.839844 111.355469 116.128906 111.832031 Z M 124.855469 110.617188 C 125.0625 111.347656 125.128906 111.867188 125.058594 112.179688 C 124.996094 112.5 124.800781 112.777344 124.480469 113.007813 L 123.902344 113.429688 L 123.433594 112.757813 L 123.855469 112.445313 C 124.050781 112.308594 124.167969 112.148438 124.199219 111.960938 C 124.230469 111.773438 124.171875 111.441406 124.027344 110.960938 L 123.886719 110.492188 L 118.652344 106.960938 L 119.417969 106.414063 L 123.542969 109.257813 L 122.167969 104.429688 L 122.933594 103.882813 Z M 126.664063 99.847656 L 130.304688 104.910156 L 131.257813 104.222656 C 132.070313 103.640625 132.515625 103.011719 132.601563 102.332031 C 132.695313 101.65625 132.421875 100.875 131.789063 99.988281 C 131.164063 99.125 130.511719 98.625 129.835938 98.488281 C 129.171875 98.355469 128.429688 98.578125 127.617188 99.160156 Z M 125.351563 99.707031 L 126.976563 98.535156 C 128.125 97.714844 129.144531 97.375 130.039063 97.519531 C 130.945313 97.65625 131.796875 98.28125 132.601563 99.394531 C 133.414063 100.519531 133.742188 101.542969 133.585938 102.457031 C 133.429688 103.363281 132.78125 104.222656 131.648438 105.035156 L 130.023438 106.207031 Z M 135.777344 95.804688 C 135.652344 95.804688 135.53125 95.832031 135.417969 95.882813 C 135.304688 95.9375 135.195313 96 135.089844 96.070313 C 134.675781 96.375 134.464844 96.75 134.464844 97.195313 C 134.457031 97.644531 134.644531 98.144531 135.027344 98.695313 L 136.886719 101.273438 L 136.152344 101.804688 L 132.636719 96.914063 L 133.371094 96.382813 L 133.917969 97.148438 C 133.867188 96.742188 133.910156 96.382813 134.042969 96.070313 C 134.179688 95.75 134.425781 95.460938 134.777344 95.210938 C 134.820313 95.179688 134.878906 95.144531 134.949219 95.101563 C 135.023438 95.0625 135.097656 95.023438 135.167969 94.992188 Z M 135.980469 94.511719 L 136.699219 93.996094 L 140.214844 98.886719 L 139.496094 99.402344 Z M 134.621094 92.621094 L 135.339844 92.105469 L 136.058594 93.121094 L 135.339844 93.636719 Z M 137.683594 93.28125 L 138.449219 92.734375 L 142.777344 95.859375 L 141.199219 90.75 L 141.964844 90.203125 L 143.824219 96.28125 L 142.855469 96.984375 Z M 148.347656 89.03125 L 148.628906 89.421875 L 145.300781 91.8125 C 145.738281 92.34375 146.191406 92.65625 146.660156 92.75 C 147.136719 92.835938 147.613281 92.710938 148.082031 92.375 C 148.363281 92.167969 148.601563 91.9375 148.800781 91.6875 C 149.007813 91.429688 149.191406 91.132813 149.347656 90.796875 L 149.878906 91.546875 C 149.710938 91.859375 149.511719 92.148438 149.285156 92.40625 C 149.066406 92.65625 148.820313 92.882813 148.550781 93.078125 C 147.839844 93.589844 147.117188 93.765625 146.378906 93.609375 C 145.640625 93.453125 144.996094 92.992188 144.441406 92.21875 C 143.871094 91.417969 143.609375 90.640625 143.660156 89.890625 C 143.714844 89.140625 144.066406 88.527344 144.722656 88.046875 C 145.316406 87.621094 145.933594 87.496094 146.582031 87.671875 C 147.226563 87.851563 147.816406 88.304688 148.347656 89.03125 Z M 147.441406 89.3125 C 147.117188 88.875 146.753906 88.605469 146.347656 88.5 C 145.949219 88.386719 145.578125 88.460938 145.222656 88.71875 C 144.816406 89.011719 144.582031 89.375 144.519531 89.8125 C 144.457031 90.242188 144.574219 90.695313 144.863281 91.171875 Z M 147.441406 89.3125 "/>
<path style=" stroke:none;fill-rule:evenodd;fill:rgb(20%,20%,20%);fill-opacity:1;" d="M 88.996094 125.851563 L 90.183594 125.007813 L 94.855469 128.351563 L 93.183594 122.835938 L 94.371094 121.992188 L 99.042969 128.492188 L 98.261719 129.039063 L 94.152344 123.320313 L 95.855469 128.882813 L 95.042969 129.460938 L 90.339844 126.070313 L 94.449219 131.789063 L 93.667969 132.351563 Z M 100.808594 123.472656 C 100.222656 123.902344 99.875 124.277344 99.761719 124.597656 C 99.648438 124.910156 99.714844 125.246094 99.964844 125.597656 C 100.171875 125.878906 100.421875 126.042969 100.714844 126.082031 C 101.003906 126.125 101.292969 126.042969 101.574219 125.832031 C 101.980469 125.542969 102.1875 125.152344 102.199219 124.660156 C 102.207031 124.171875 102.027344 123.671875 101.652344 123.160156 L 101.527344 122.957031 Z M 102.027344 122.113281 L 104.027344 124.910156 L 103.292969 125.425781 L 102.761719 124.691406 C 102.8125 125.109375 102.765625 125.480469 102.621094 125.800781 C 102.472656 126.113281 102.222656 126.394531 101.871094 126.644531 C 101.421875 126.96875 100.964844 127.089844 100.496094 127.003906 C 100.027344 126.921875 99.628906 126.640625 99.292969 126.160156 C 98.898438 125.609375 98.761719 125.078125 98.886719 124.566406 C 99.011719 124.046875 99.410156 123.550781 100.074219 123.082031 L 101.074219 122.347656 L 101.027344 122.269531 C 100.753906 121.894531 100.4375 121.6875 100.074219 121.644531 C 99.710938 121.59375 99.332031 121.714844 98.933594 122.003906 C 98.695313 122.183594 98.476563 122.390625 98.277344 122.628906 C 98.082031 122.871094 97.925781 123.136719 97.808594 123.425781 L 97.277344 122.691406 C 97.464844 122.390625 97.664063 122.125 97.871094 121.894531 C 98.070313 121.65625 98.289063 121.449219 98.527344 121.269531 C 99.164063 120.824219 99.769531 120.667969 100.339844 120.800781 C 100.921875 120.9375 101.484375 121.375 102.027344 122.113281 Z M 101.996094 118.949219 L 102.714844 118.433594 L 106.230469 123.324219 L 105.511719 123.839844 Z M 100.636719 117.058594 L 101.355469 116.542969 L 102.074219 117.558594 L 101.355469 118.074219 Z M 106.339844 116.6875 C 105.945313 116.96875 105.757813 117.359375 105.777344 117.859375 C 105.800781 118.359375 106.019531 118.902344 106.433594 119.484375 C 106.851563 120.070313 107.285156 120.449219 107.746094 120.625 C 108.214844 120.792969 108.644531 120.734375 109.042969 120.453125 C 109.425781 120.171875 109.609375 119.789063 109.589844 119.296875 C 109.578125 118.796875 109.363281 118.257813 108.949219 117.671875 C 108.53125 117.089844 108.089844 116.710938 107.621094 116.53125 C 107.152344 116.355469 106.726563 116.40625 106.339844 116.6875 Z M 105.855469 116.015625 C 106.480469 115.570313 107.128906 115.445313 107.808594 115.640625 C 108.496094 115.828125 109.128906 116.324219 109.714844 117.125 C 110.285156 117.917969 110.558594 118.671875 110.527344 119.390625 C 110.496094 120.109375 110.167969 120.695313 109.542969 121.140625 C 108.90625 121.601563 108.246094 121.730469 107.558594 121.53125 C 106.871094 121.324219 106.242188 120.824219 105.667969 120.03125 C 105.085938 119.230469 104.816406 118.476563 104.855469 117.765625 C 104.886719 117.058594 105.222656 116.476563 105.855469 116.015625 Z M 114.199219 113.140625 L 116.308594 116.078125 L 115.574219 116.59375 L 113.480469 113.671875 C 113.144531 113.214844 112.8125 112.933594 112.480469 112.828125 C 112.15625 112.714844 111.835938 112.773438 111.511719 113 C 111.117188 113.28125 110.910156 113.640625 110.886719 114.078125 C 110.855469 114.515625 111.011719 114.96875 111.355469 115.4375 L 113.339844 118.203125 L 112.605469 118.734375 L 109.089844 113.84375 L 109.824219 113.3125 L 110.371094 114.078125 C 110.339844 113.664063 110.386719 113.296875 110.511719 112.984375 C 110.636719 112.671875 110.855469 112.402344 111.167969 112.171875 C 111.667969 111.820313 112.171875 111.726563 112.683594 111.890625 C 113.203125 112.046875 113.707031 112.464844 114.199219 113.140625 Z M 119.613281 109.691406 L 119.894531 110.082031 L 116.566406 112.472656 C 117.003906 113.003906 117.457031 113.316406 117.925781 113.410156 C 118.402344 113.496094 118.878906 113.371094 119.347656 113.035156 C 119.628906 112.828125 119.867188 112.597656 120.066406 112.347656 C 120.273438 112.089844 120.457031 111.792969 120.613281 111.457031 L 121.144531 112.207031 C 120.976563 112.519531 120.777344 112.808594 120.550781 113.066406 C 120.332031 113.316406 120.085938 113.542969 119.816406 113.738281 C 119.105469 114.25 118.382813 114.425781 117.644531 114.269531 C 116.90625 114.113281 116.261719 113.652344 115.707031 112.878906 C 115.136719 112.078125 114.875 111.300781 114.925781 110.550781 C 114.980469 109.800781 115.332031 109.1875 115.988281 108.707031 C 116.582031 108.28125 117.199219 108.15625 117.847656 108.332031 C 118.492188 108.511719 119.082031 108.964844 119.613281 109.691406 Z M 118.707031 109.972656 C 118.382813 109.535156 118.019531 109.265625 117.613281 109.160156 C 117.214844 109.046875 116.84375 109.121094 116.488281 109.378906 C 116.082031 109.671875 115.847656 110.035156 115.785156 110.472656 C 115.722656 110.902344 115.839844 111.355469 116.128906 111.832031 Z M 124.855469 110.617188 C 125.0625 111.347656 125.128906 111.867188 125.058594 112.179688 C 124.996094 112.5 124.800781 112.777344 124.480469 113.007813 L 123.902344 113.429688 L 123.433594 112.757813 L 123.855469 112.445313 C 124.050781 112.308594 124.167969 112.148438 124.199219 111.960938 C 124.230469 111.773438 124.171875 111.441406 124.027344 110.960938 L 123.886719 110.492188 L 118.652344 106.960938 L 119.417969 106.414063 L 123.542969 109.257813 L 122.167969 104.429688 L 122.933594 103.882813 Z M 126.664063 99.847656 L 130.304688 104.910156 L 131.257813 104.222656 C 132.070313 103.640625 132.515625 103.011719 132.601563 102.332031 C 132.695313 101.65625 132.421875 100.875 131.789063 99.988281 C 131.164063 99.125 130.511719 98.625 129.835938 98.488281 C 129.171875 98.355469 128.429688 98.578125 127.617188 99.160156 Z M 125.351563 99.707031 L 126.976563 98.535156 C 128.125 97.714844 129.144531 97.375 130.039063 97.519531 C 130.945313 97.65625 131.796875 98.28125 132.601563 99.394531 C 133.414063 100.519531 133.742188 101.542969 133.585938 102.457031 C 133.429688 103.363281 132.78125 104.222656 131.648438 105.035156 L 130.023438 106.207031 Z M 135.777344 95.804688 C 135.652344 95.804688 135.53125 95.832031 135.417969 95.882813 C 135.304688 95.9375 135.195313 96 135.089844 96.070313 C 134.675781 96.375 134.464844 96.75 134.464844 97.195313 C 134.457031 97.644531 134.644531 98.144531 135.027344 98.695313 L 136.886719 101.273438 L 136.152344 101.804688 L 132.636719 96.914063 L 133.371094 96.382813 L 133.917969 97.148438 C 133.867188 96.742188 133.910156 96.382813 134.042969 96.070313 C 134.179688 95.75 134.425781 95.460938 134.777344 95.210938 C 134.820313 95.179688 134.878906 95.144531 134.949219 95.101563 C 135.023438 95.0625 135.097656 95.023438 135.167969 94.992188 Z M 135.980469 94.511719 L 136.699219 93.996094 L 140.214844 98.886719 L 139.496094 99.402344 Z M 134.621094 92.621094 L 135.339844 92.105469 L 136.058594 93.121094 L 135.339844 93.636719 Z M 137.683594 93.28125 L 138.449219 92.734375 L 142.777344 95.859375 L 141.199219 90.75 L 141.964844 90.203125 L 143.824219 96.28125 L 142.855469 96.984375 Z M 148.347656 89.03125 L 148.628906 89.421875 L 145.300781 91.8125 C 145.738281 92.34375 146.191406 92.65625 146.660156 92.75 C 147.136719 92.835938 147.613281 92.710938 148.082031 92.375 C 148.363281 92.167969 148.601563 91.9375 148.800781 91.6875 C 149.007813 91.429688 149.191406 91.132813 149.347656 90.796875 L 149.878906 91.546875 C 149.710938 91.859375 149.511719 92.148438 149.285156 92.40625 C 149.066406 92.65625 148.820313 92.882813 148.550781 93.078125 C 147.839844 93.589844 147.117188 93.765625 146.378906 93.609375 C 145.640625 93.453125 144.996094 92.992188 144.441406 92.21875 C 143.871094 91.417969 143.609375 90.640625 143.660156 89.890625 C 143.714844 89.140625 144.066406 88.527344 144.722656 88.046875 C 145.316406 87.621094 145.933594 87.496094 146.582031 87.671875 C 147.226563 87.851563 147.816406 88.304688 148.347656 89.03125 Z M 147.441406 89.3125 C 147.117188 88.875 146.753906 88.605469 146.347656 88.5 C 145.949219 88.386719 145.578125 88.460938 145.222656 88.71875 C 144.816406 89.011719 144.582031 89.375 144.519531 89.8125 C 144.457031 90.242188 144.574219 90.695313 144.863281 91.171875 Z M 147.441406 89.3125 "/>
</g>
</svg>

