<?xml version="1.0" encoding="UTF-8"?>
<svg xmlns="http://www.w3.org/2000/svg" xmlns:xlink="http://www.w3.org/1999/xlink" width="256pt" height="256pt" viewBox="0 0 256 256" version="1.1">
<g id="surface2">
<rect x="0" y="0" width="256" height="256" style="fill:rgb(94.901961%,93.72549%,91.372549%);fill-opacity:1;stroke:none;"/>
<path style="fill:none;stroke-width:1;stroke-linecap:round;stroke-linejoin:round;stroke:rgb(100%,100%,100%);stroke-opacity:1;stroke-dasharray:2,3;stroke-miterlimit:10;" d="M 135.265625 257 L 123.695313 243.566406 L 95.640625 212.042969 L 87.90625 202.789063 L 78.023438 191.027344 L 68.378906 180.226563 L 52.71875 157.792969 L 44.890625 148.503906 L 31.050781 132.988281 L 4.601563 101.597656 L -2 94.3125 "/>
<path style="fill:none;stroke-width:3;stroke-linecap:round;stroke-linejoin:round;stroke:rgb(100%,100%,100%);stroke-opacity:1;stroke-miterlimit:10;" d="M 53.34375 152.292969 L 53.984375 153.058594 L 48.296875 157.871094 C 47.546875 158.496094 46.894531 158.816406 46.34375 158.839844 C 45.792969 158.871094 45.28125 158.605469 44.8125 158.042969 L 44.578125 157.761719 L 45.28125 157.167969 L 45.484375 157.402344 C 45.757813 157.722656 46.054688 157.863281 46.375 157.824219 C 46.6875 157.792969 47.113281 157.550781 47.65625 157.105469 Z M 54.386719 158.023438 C 54.105469 157.640625 53.714844 157.460938 53.214844 157.492188 C 52.722656 157.515625 52.1875 157.738281 51.605469 158.164063 C 51.03125 158.59375 50.65625 159.039063 50.480469 159.507813 C 50.3125 159.976563 50.371094 160.402344 50.652344 160.789063 C 50.941406 161.171875 51.332031 161.351563 51.824219 161.320313 C 52.324219 161.296875 52.859375 161.074219 53.433594 160.648438 C 54.015625 160.21875 54.390625 159.773438 54.558594 159.304688 C 54.734375 158.835938 54.675781 158.410156 54.386719 158.023438 Z M 55.058594 157.539063 C 55.515625 158.15625 55.652344 158.804688 55.464844 159.492188 C 55.285156 160.179688 54.796875 160.820313 53.996094 161.414063 C 53.214844 161.996094 52.464844 162.273438 51.746094 162.242188 C 51.027344 162.21875 50.4375 161.902344 49.980469 161.289063 C 49.519531 160.664063 49.386719 160.007813 49.574219 159.320313 C 49.769531 158.632813 50.261719 158 51.042969 157.414063 C 51.84375 156.820313 52.597656 156.539063 53.308594 156.570313 C 54.015625 156.59375 54.597656 156.914063 55.058594 157.539063 Z M 57.917969 165.898438 L 54.949219 167.976563 L 54.449219 167.257813 L 57.402344 165.195313 C 57.871094 164.871094 58.15625 164.542969 58.261719 164.210938 C 58.375 163.886719 58.316406 163.558594 58.089844 163.226563 C 57.816406 162.84375 57.464844 162.632813 57.027344 162.601563 C 56.597656 162.5625 56.144531 162.707031 55.667969 163.039063 L 52.871094 164.992188 L 52.355469 164.257813 L 57.292969 160.820313 L 57.808594 161.554688 L 57.027344 162.085938 C 57.441406 162.054688 57.808594 162.109375 58.121094 162.242188 C 58.433594 162.367188 58.699219 162.585938 58.917969 162.898438 C 59.269531 163.410156 59.363281 163.914063 59.199219 164.414063 C 59.03125 164.921875 58.605469 165.417969 57.917969 165.898438 Z M 61.292969 171.375 L 60.886719 171.65625 L 58.542969 168.296875 C 58.011719 168.710938 57.691406 169.160156 57.589844 169.640625 C 57.496094 170.117188 57.613281 170.597656 57.949219 171.078125 C 58.144531 171.359375 58.375 171.601563 58.636719 171.8125 C 58.894531 172.019531 59.1875 172.203125 59.511719 172.359375 L 58.746094 172.890625 C 58.441406 172.710938 58.160156 172.507813 57.902344 172.28125 C 57.652344 172.050781 57.425781 171.796875 57.230469 171.515625 C 56.738281 170.804688 56.578125 170.082031 56.746094 169.34375 C 56.910156 168.617188 57.386719 167.980469 58.167969 167.4375 C 58.96875 166.875 59.746094 166.625 60.496094 166.6875 C 61.246094 166.742188 61.847656 167.101563 62.308594 167.765625 C 62.722656 168.359375 62.839844 168.976563 62.652344 169.625 C 62.472656 170.28125 62.019531 170.863281 61.292969 171.375 Z M 61.011719 170.46875 C 61.457031 170.144531 61.738281 169.785156 61.855469 169.390625 C 61.96875 168.992188 61.902344 168.621094 61.652344 168.265625 C 61.359375 167.859375 60.996094 167.621094 60.558594 167.546875 C 60.128906 167.476563 59.675781 167.585938 59.199219 167.875 Z M 66.234375 173.917969 L 65.453125 174.449219 C 65.429688 174.15625 65.367188 173.886719 65.265625 173.636719 C 65.171875 173.378906 65.039063 173.128906 64.875 172.886719 C 64.625 172.523438 64.375 172.292969 64.125 172.199219 C 63.875 172.097656 63.628906 172.128906 63.390625 172.292969 C 63.203125 172.429688 63.097656 172.601563 63.078125 172.808594 C 63.054688 173.007813 63.128906 173.339844 63.296875 173.808594 L 63.40625 174.089844 C 63.65625 174.691406 63.738281 175.183594 63.65625 175.558594 C 63.582031 175.933594 63.347656 176.261719 62.953125 176.542969 C 62.492188 176.863281 62.019531 176.957031 61.53125 176.824219 C 61.039063 176.6875 60.59375 176.332031 60.1875 175.761719 C 60.019531 175.519531 59.875 175.253906 59.75 174.964844 C 59.625 174.671875 59.503906 174.34375 59.390625 173.980469 L 60.234375 173.402344 C 60.273438 173.777344 60.347656 174.121094 60.453125 174.433594 C 60.554688 174.746094 60.695313 175.03125 60.875 175.292969 C 61.113281 175.636719 61.363281 175.855469 61.625 175.949219 C 61.894531 176.050781 62.144531 176.019531 62.375 175.855469 C 62.59375 175.699219 62.710938 175.503906 62.734375 175.277344 C 62.765625 175.058594 62.671875 174.6875 62.453125 174.167969 L 62.359375 173.871094 C 62.148438 173.351563 62.082031 172.914063 62.15625 172.558594 C 62.238281 172.207031 62.46875 171.894531 62.84375 171.621094 C 63.3125 171.300781 63.773438 171.199219 64.234375 171.324219 C 64.691406 171.441406 65.109375 171.769531 65.484375 172.308594 C 65.671875 172.582031 65.828125 172.851563 65.953125 173.121094 C 66.078125 173.394531 66.171875 173.660156 66.234375 173.917969 Z M 69.558594 181.714844 C 69.621094 181.933594 69.613281 182.199219 69.542969 182.511719 C 69.46875 182.832031 69.316406 183.21875 69.089844 183.667969 L 68.027344 185.824219 L 67.371094 185.011719 L 68.371094 182.980469 C 68.640625 182.457031 68.769531 182.058594 68.761719 181.777344 C 68.761719 181.496094 68.636719 181.203125 68.386719 180.902344 L 67.714844 180.089844 L 65.089844 182.230469 L 64.464844 181.464844 L 70.667969 176.386719 L 72.074219 178.089844 C 72.59375 178.738281 72.832031 179.335938 72.792969 179.886719 C 72.761719 180.441406 72.441406 180.964844 71.839844 181.464844 C 71.441406 181.777344 71.050781 181.957031 70.667969 182.011719 C 70.28125 182.0625 69.910156 181.964844 69.558594 181.714844 Z M 70.605469 177.714844 L 68.402344 179.527344 L 69.183594 180.464844 C 69.484375 180.839844 69.800781 181.035156 70.136719 181.058594 C 70.480469 181.089844 70.832031 180.957031 71.199219 180.667969 C 71.550781 180.367188 71.746094 180.050781 71.777344 179.714844 C 71.816406 179.382813 71.6875 179.027344 71.386719 178.652344 Z M 74.300781 184.878906 C 73.988281 184.515625 73.582031 184.371094 73.082031 184.441406 C 72.589844 184.515625 72.074219 184.792969 71.535156 185.269531 C 71.003906 185.75 70.675781 186.226563 70.550781 186.707031 C 70.433594 187.183594 70.535156 187.605469 70.847656 187.972656 C 71.167969 188.324219 71.574219 188.464844 72.066406 188.394531 C 72.554688 188.332031 73.066406 188.058594 73.597656 187.582031 C 74.136719 187.101563 74.472656 186.621094 74.597656 186.144531 C 74.722656 185.65625 74.621094 185.234375 74.300781 184.878906 Z M 74.925781 184.332031 C 75.433594 184.90625 75.628906 185.542969 75.503906 186.238281 C 75.386719 186.933594 74.960938 187.613281 74.222656 188.269531 C 73.492188 188.925781 72.769531 189.273438 72.050781 189.316406 C 71.339844 189.367188 70.730469 189.105469 70.222656 188.535156 C 69.699219 187.949219 69.503906 187.304688 69.628906 186.597656 C 69.753906 185.902344 70.179688 185.222656 70.910156 184.566406 C 71.648438 183.910156 72.371094 183.5625 73.082031 183.519531 C 73.789063 183.480469 74.402344 183.75 74.925781 184.332031 Z M 76.832031 191.1875 C 76.351563 190.644531 75.949219 190.335938 75.628906 190.25 C 75.316406 190.167969 74.992188 190.273438 74.660156 190.5625 C 74.398438 190.78125 74.257813 191.039063 74.238281 191.34375 C 74.214844 191.644531 74.320313 191.925781 74.550781 192.1875 C 74.882813 192.5625 75.292969 192.726563 75.785156 192.6875 C 76.273438 192.65625 76.757813 192.429688 77.238281 192.015625 L 77.410156 191.859375 Z M 78.316406 192.265625 L 75.722656 194.53125 L 75.128906 193.859375 L 75.816406 193.265625 C 75.398438 193.347656 75.023438 193.332031 74.691406 193.21875 C 74.367188 193.101563 74.058594 192.882813 73.769531 192.5625 C 73.414063 192.144531 73.257813 191.695313 73.300781 191.21875 C 73.339844 190.75 73.582031 190.324219 74.019531 189.9375 C 74.527344 189.492188 75.042969 189.308594 75.566406 189.390625 C 76.097656 189.464844 76.632813 189.808594 77.175781 190.421875 L 77.988281 191.359375 L 78.050781 191.296875 C 78.394531 190.992188 78.570313 190.660156 78.582031 190.296875 C 78.601563 189.921875 78.449219 189.554688 78.128906 189.1875 C 77.929688 188.960938 77.699219 188.761719 77.441406 188.59375 C 77.191406 188.429688 76.910156 188.296875 76.597656 188.203125 L 77.269531 187.59375 C 77.613281 187.75 77.902344 187.921875 78.144531 188.109375 C 78.394531 188.296875 78.613281 188.5 78.800781 188.71875 C 79.320313 189.3125 79.539063 189.902344 79.457031 190.484375 C 79.382813 191.066406 79.003906 191.660156 78.316406 192.265625 Z M 83.050781 195.3125 L 85.550781 193.21875 L 86.128906 193.890625 L 79.722656 199.265625 L 79.144531 198.59375 L 79.832031 198.015625 C 79.445313 198.097656 79.089844 198.082031 78.769531 197.96875 C 78.445313 197.863281 78.160156 197.660156 77.910156 197.359375 C 77.480469 196.847656 77.355469 196.25 77.535156 195.5625 C 77.722656 194.886719 78.179688 194.242188 78.910156 193.625 C 79.636719 193.023438 80.351563 192.695313 81.050781 192.640625 C 81.757813 192.578125 82.324219 192.804688 82.753906 193.3125 C 83.003906 193.617188 83.152344 193.933594 83.207031 194.265625 C 83.257813 194.589844 83.207031 194.9375 83.050781 195.3125 Z M 79.488281 194.328125 C 78.925781 194.808594 78.570313 195.273438 78.425781 195.734375 C 78.289063 196.203125 78.371094 196.613281 78.675781 196.96875 C 78.988281 197.34375 79.382813 197.503906 79.863281 197.453125 C 80.351563 197.398438 80.878906 197.132813 81.441406 196.65625 C 82.003906 196.1875 82.351563 195.71875 82.488281 195.25 C 82.632813 194.78125 82.550781 194.359375 82.238281 193.984375 C 81.933594 193.632813 81.539063 193.484375 81.050781 193.546875 C 80.570313 193.601563 80.050781 193.859375 79.488281 194.328125 Z M 79.488281 194.328125 "/>
<path style=" stroke:none;fill-rule:evenodd;fill:rgb(20%,20%,20%);fill-opacity:1;" d="M 53.34375 152.292969 L 53.984375 153.058594 L 48.296875 157.871094 C 47.546875 158.496094 46.894531 158.816406 46.34375 158.839844 C 45.792969 158.871094 45.28125 158.605469 44.8125 158.042969 L 44.578125 157.761719 L 45.28125 157.167969 L 45.484375 157.402344 C 45.757813 157.722656 46.054688 157.863281 46.375 157.824219 C 46.6875 157.792969 47.113281 157.550781 47.65625 157.105469 Z M 54.386719 158.023438 C 54.105469 157.640625 53.714844 157.460938 53.214844 157.492188 C 52.722656 157.515625 52.1875 157.738281 51.605469 158.164063 C 51.03125 158.59375 50.65625 159.039063 50.480469 159.507813 C 50.3125 159.976563 50.371094 160.402344 50.652344 160.789063 C 50.941406 161.171875 51.332031 161.351563 51.824219 161.320313 C 52.324219 161.296875 52.859375 161.074219 53.433594 160.648438 C 54.015625 160.21875 54.390625 159.773438 54.558594 159.304688 C 54.734375 158.835938 54.675781 158.410156 54.386719 158.023438 Z M 55.058594 157.539063 C 55.515625 158.15625 55.652344 158.804688 55.464844 159.492188 C 55.285156 160.179688 54.796875 160.820313 53.996094 161.414063 C 53.214844 161.996094 52.464844 162.273438 51.746094 162.242188 C 51.027344 162.21875 50.4375 161.902344 49.980469 161.289063 C 49.519531 160.664063 49.386719 160.007813 49.574219 159.320313 C 49.769531 158.632813 50.261719 158 51.042969 157.414063 C 51.84375 156.820313 52.597656 156.539063 53.308594 156.570313 C 54.015625 156.59375 54.597656 156.914063 55.058594 157.539063 Z M 57.917969 165.898438 L 54.949219 167.976563 L 54.449219 167.257813 L 57.402344 165.195313 C 57.871094 164.871094 58.15625 164.542969 58.261719 164.210938 C 58.375 163.886719 58.316406 163.558594 58.089844 163.226563 C 57.816406 162.84375 57.464844 162.632813 57.027344 162.601563 C 56.597656 162.5625 56.144531 162.707031 55.667969 163.039063 L 52.871094 164.992188 L 52.355469 164.257813 L 57.292969 160.820313 L 57.808594 161.554688 L 57.027344 162.085938 C 57.441406 162.054688 57.808594 162.109375 58.121094 162.242188 C 58.433594 162.367188 58.699219 162.585938 58.917969 162.898438 C 59.269531 163.410156 59.363281 163.914063 59.199219 164.414063 C 59.03125 164.921875 58.605469 165.417969 57.917969 165.898438 Z M 61.292969 171.375 L 60.886719 171.65625 L 58.542969 168.296875 C 58.011719 168.710938 57.691406 169.160156 57.589844 169.640625 C 57.496094 170.117188 57.613281 170.597656 57.949219 171.078125 C 58.144531 171.359375 58.375 171.601563 58.636719 171.8125 C 58.894531 172.019531 59.1875 172.203125 59.511719 172.359375 L 58.746094 172.890625 C 58.441406 172.710938 58.160156 172.507813 57.902344 172.28125 C 57.652344 172.050781 57.425781 171.796875 57.230469 171.515625 C 56.738281 170.804688 56.578125 170.082031 56.746094 169.34375 C 56.910156 168.617188 57.386719 167.980469 58.167969 167.4375 C 58.96875 166.875 59.746094 166.625 60.496094 166.6875 C 61.246094 166.742188 61.847656 167.101563 62.308594 167.765625 C 62.722656 168.359375 62.839844 168.976563 62.652344 169.625 C 62.472656 170.28125 62.019531 170.863281 61.292969 171.375 Z M 61.011719 170.46875 C 61.457031 170.144531 61.738281 169.785156 61.855469 169.390625 C 61.96875 168.992188 61.902344 168.621094 61.652344 168.265625 C 61.359375 167.859375 60.996094 167.621094 60.558594 167.546875 C 60.128906 167.476563 59.675781 167.585938 59.199219 167.875 Z M 66.234375 173.917969 L 65.453125 174.449219 C 65.429688 174.15625 65.367188 173.886719 65.265625 173.636719 C 65.171875 173.378906 65.039063 173.128906 64.875 172.886719 C 64.625 172.523438 64.375 172.292969 64.125 172.199219 C 63.875 172.097656 63.628906 172.128906 63.390625 172.292969 C 63.203125 172.429688 63.097656 172.601563 63.078125 172.808594 C 63.054688 173.007813 63.128906 173.339844 63.296875 173.808594 L 63.40625 174.089844 C 63.65625 174.691406 63.738281 175.183594 63.65625 175.558594 C 63.582031 175.933594 63.347656 176.261719 62.953125 176.542969 C 62.492188 176.863281 62.019531 176.957031 61.53125 176.824219 C 61.039063 176.6875 60.59375 176.332031 60.1875 175.761719 C 60.019531 175.519531 59.875 175.253906 59.75 174.964844 C 59.625 174.671875 59.503906 174.34375 59.390625 173.980469 L 60.234375 173.402344 C 60.273438 173.777344 60.347656 174.121094 60.453125 174.433594 C 60.554688 174.746094 60.695313 175.03125 60.875 175.292969 C 61.113281 175.636719 61.363281 175.855469 61.625 175.949219 C 61.894531 176.050781 62.144531 176.019531 62.375 175.855469 C 62.59375 175.699219 62.710938 175.503906 62.734375 175.277344 C 62.765625 175.058594 62.671875 174.6875 62.453125 174.167969 L 62.359375 173.871094 C 62.148438 173.351563 62.082031 172.914063 62.15625 172.558594 C 62.238281 172.207031 62.46875 171.894531 62.84375 171.621094 C 63.3125 171.300781 63.773438 171.199219 64.234375 171.324219 C 64.691406 171.441406 65.109375 171.769531 65.484375 172.308594 C 65.671875 172.582031 65.828125 172.851563 65.953125 173.121094 C 66.078125 173.394531 66.171875 173.660156 66.234375 173.917969 Z M 69.558594 181.714844 C 69.621094 181.933594 69.613281 182.199219 69.542969 182.511719 C 69.46875 182.832031 69.316406 183.21875 69.089844 183.667969 L 68.027344 185.824219 L 67.371094 185.011719 L 68.371094 182.980469 C 68.640625 182.457031 68.769531 182.058594 68.761719 181.777344 C 68.761719 181.496094 68.636719 181.203125 68.386719 180.902344 L 67.714844 180.089844 L 65.089844 182.230469 L 64.464844 181.464844 L 70.667969 176.386719 L 72.074219 178.089844 C 72.59375 178.738281 72.832031 179.335938 72.792969 179.886719 C 72.761719 180.441406 72.441406 180.964844 71.839844 181.464844 C 71.441406 181.777344 71.050781 181.957031 70.667969 182.011719 C 70.28125 182.0625 69.910156 181.964844 69.558594 181.714844 Z M 70.605469 177.714844 L 68.402344 179.527344 L 69.183594 180.464844 C 69.484375 180.839844 69.800781 181.035156 70.136719 181.058594 C 70.480469 181.089844 70.832031 180.957031 71.199219 180.667969 C 71.550781 180.367188 71.746094 180.050781 71.777344 179.714844 C 71.816406 179.382813 71.6875 179.027344 71.386719 178.652344 Z M 74.300781 184.878906 C 73.988281 184.515625 73.582031 184.371094 73.082031 184.441406 C 72.589844 184.515625 72.074219 184.792969 71.535156 185.269531 C 71.003906 185.75 70.675781 186.226563 70.550781 186.707031 C 70.433594 187.183594 70.535156 187.605469 70.847656 187.972656 C 71.167969 188.324219 71.574219 188.464844 72.066406 188.394531 C 72.554688 188.332031 73.066406 188.058594 73.597656 187.582031 C 74.136719 187.101563 74.472656 186.621094 74.597656 186.144531 C 74.722656 185.65625 74.621094 185.234375 74.300781 184.878906 Z M 74.925781 184.332031 C 75.433594 184.90625 75.628906 185.542969 75.503906 186.238281 C 75.386719 186.933594 74.960938 187.613281 74.222656 188.269531 C 73.492188 188.925781 72.769531 189.273438 72.050781 189.316406 C 71.339844 189.367188 70.730469 189.105469 70.222656 188.535156 C 69.699219 187.949219 69.503906 187.304688 69.628906 186.597656 C 69.753906 185.902344 70.179688 185.222656 70.910156 184.566406 C 71.648438 183.910156 72.371094 183.5625 73.082031 183.519531 C 73.789063 183.480469 74.402344 183.75 74.925781 184.332031 Z M 76.832031 191.1875 C 76.351563 190.644531 75.949219 190.335938 75.628906 190.25 C 75.316406 190.167969 74.992188 190.273438 74.660156 190.5625 C 74.398438 190.78125 74.257813 191.039063 74.238281 191.34375 C 74.214844 191.644531 74.320313 191.925781 74.550781 192.1875 C 74.882813 192.5625 75.292969 192.726563 75.785156 192.6875 C 76.273438 192.65625 76.757813 192.429688 77.238281 192.015625 L 77.410156 191.859375 Z M 78.316406 192.265625 L 75.722656 194.53125 L 75.128906 193.859375 L 75.816406 193.265625 C 75.398438 193.347656 75.023438 193.332031 74.691406 193.21875 C 74.367188 193.101563 74.058594 192.882813 73.769531 192.5625 C 73.414063 192.144531 73.257813 191.695313 73.300781 191.21875 C 73.339844 190.75 73.582031 190.324219 74.019531 189.9375 C 74.527344 189.492188 75.042969 189.308594 75.566406 189.390625 C 76.097656 189.464844 76.632813 189.808594 77.175781 190.421875 L 77.988281 191.359375 L 78.050781 191.296875 C 78.394531 190.992188 78.570313 190.660156 78.582031 190.296875 C 78.601563 189.921875 78.449219 189.554688 78.128906 189.1875 C 77.929688 188.960938 77.699219 188.761719 77.441406 188.59375 C 77.191406 188.429688 76.910156 188.296875 76.597656 188.203125 L 77.269531 187.59375 C 77.613281 187.75 77.902344 187.921875 78.144531 188.109375 C 78.394531 188.296875 78.613281 188.5 78.800781 188.71875 C 79.320313 189.3125 79.539063 189.902344 79.457031 190.484375 C 79.382813 191.066406 79.003906 191.660156 78.316406 192.265625 Z M 83.050781 195.3125 L 85.550781 193.21875 L 86.128906 193.890625 L 79.722656 199.265625 L 79.144531 198.59375 L 79.832031 198.015625 C 79.445313 198.097656 79.089844 198.082031 78.769531 197.96875 C 78.445313 197.863281 78.160156 197.660156 77.910156 197.359375 C 77.480469 196.847656 77.355469 196.25 77.535156 195.5625 C 77.722656 194.886719 78.179688 194.242188 78.910156 193.625 C 79.636719 193.023438 80.351563 192.695313 81.050781 192.640625 C 81.757813 192.578125 82.324219 192.804688 82.753906 193.3125 C 83.003906 193.617188 83.152344 193.933594 83.207031 194.265625 C 83.257813 194.589844 83.207031 194.9375 83.050781 195.3125 Z M 79.488281 194.328125 C 78.925781 194.808594 78.570313 195.273438 78.425781 195.734375 C 78.289063 196.203125 78.371094 196.613281 78.675781 196.96875 C 78.988281 197.34375 79.382813 197.503906 79.863281 197.453125 C 80.351563 197.398438 80.878906 197.132813 81.441406 196.65625 C 82.003906 196.1875 82.351563 195.71875 82.488281 195.25 C 82.632813 194.78125 82.550781 194.359375 82.238281 193.984375 C 81.933594 193.632813 81.539063 193.484375 81.050781 193.546875 C 80.570313 193.601563 80.050781 193.859375 79.488281 194.328125 Z M 79.488281 194.328125 "/>
</g>
</svg>

