<?xml version="1.0" encoding="UTF-8"?>
<svg xmlns="http://www.w3.org/2000/svg" xmlns:xlink="http://www.w3.org/1999/xlink" width="256pt" height="256pt" viewBox="0 0 256 256" version="1.1">
<g id="surface2">
<rect x="0" y="0" width="256" height="256" style="fill:rgb(60%,70.196078%,80%);fill-opacity:1;stroke:none;"/>
<path style=" stroke:none;fill-rule:evenodd;fill:rgb(94.901961%,93.72549%,91.372549%);fill-opacity:1;" d="M -4 259 L 259 259 L 259 -4 L 259 259 L 259 250.402344 L 250.90625 259 L 249.492188 259 L 222.667969 236.53125 L 259 194.015625 L 259 187.738281 L 254.628906 183.773438 L 185.984375 259 L 166.910156 259 L 164.074219 257.3125 L 194.046875 223.328125 L 200.117188 216.453125 L 179.71875 192.46875 L 179.234375 188.132813 L 182.652344 179.007813 L 181.816406 175.679688 L 182.144531 173.066406 L 186.394531 167.863281 L 187.316406 165.039063 L 186.421875 162.277344 L 183.066406 159.007813 L 179.976563 158.117188 L 176.082031 158.414063 L 173.324219 161.546875 L 171.445313 163.679688 L 164.851563 171.164063 L 163.097656 170.03125 L 163.277344 168.28125 L 174.386719 155.828125 L 172.25 153.867188 L 171.0625 148.339844 L 173.023438 145.785156 L 182.234375 145.371094 L 183.824219 142.480469 L 185.324219 138.121094 L 186.007813 132.5625 L 184.460938 124.273438 L 180.300781 124.507813 L 180.125 123.171875 L 176.527344 123.320313 L 176.617188 124.273438 L 156.976563 125.398438 L 156.53125 123.882813 L 143.839844 124.566406 L 142.085938 123.796875 L 140.929688 121.507813 L 139.679688 111.195313 L 141.761719 109.441406 L 141.523438 107.570313 L 158.222656 106.621094 L 156.144531 88.492188 L 154.417969 87.15625 L 154.835938 85.492188 L 158.3125 84.332031 L 173.199219 83.441406 L 173.308594 81.769531 L 173.402344 74.359375 L 173.589844 68.015625 L 173.566406 67.15625 L 173.546875 66.488281 L 173.46875 63.765625 L 175.785156 63.679688 L 175.554688 57.648438 L 175.519531 56.726563 L 169.84375 50.453125 L 153.171875 51.820313 L 148.832031 48.613281 L 151.269531 40.035156 L 153.671875 33.433594 L 153.269531 31.035156 L 163.269531 24.03125 L 162.070313 22.035156 L 169.734375 15.367188 L 188.980469 -1.371094 L 191.457031 0.621094 L 192.636719 -0.445313 L 194.507813 0.984375 L 200.808594 -4 L 259 -4 L 259 259 Z M -4 259 "/>
<path style=" stroke:none;fill-rule:evenodd;fill:rgb(81.960784%,81.568627%,80.392157%);fill-opacity:1;" d="M 205.417969 15.046875 L 237.734375 44.105469 L 252.15625 28 L 220.339844 -0.507813 Z M 205.417969 15.046875 "/>
<path style="fill:none;stroke-width:1;stroke-linecap:round;stroke-linejoin:round;stroke:rgb(81.960784%,81.960784%,81.960784%);stroke-opacity:1;stroke-miterlimit:10;" d="M 205.417969 15.046875 L 237.734375 44.105469 L 252.15625 28 L 220.339844 -0.507813 L 205.417969 15.046875 "/>
<path style=" stroke:none;fill-rule:evenodd;fill:rgb(70.980392%,82.352941%,61.176471%);fill-opacity:1;" d="M 144.109375 68.578125 L 147.222656 71.210938 L 148.445313 69.632813 L 159.269531 68.9375 L 160.660156 68.851563 L 167.800781 68.390625 L 169.195313 68.300781 L 173.589844 68.015625 L 173.402344 74.359375 L 173.308594 81.769531 L 175.203125 81.792969 L 180.390625 81.761719 L 182.773438 81.75 L 183.8125 80.4375 L 191.210938 72.269531 L 201.171875 81.359375 L 205.648438 76.21875 L 179.304688 52.464844 L 175.867188 55.542969 L 173.46875 63.769531 L 173.546875 66.488281 L 169.824219 66.691406 L 164.753906 66.96875 L 159.777344 67.238281 L 158.703125 67.296875 L 154.78125 67.511719 L 153.613281 67.574219 L 149.675781 67.789063 L 146.78125 65.464844 Z M 144.109375 68.578125 "/>
<path style=" stroke:none;fill-rule:evenodd;fill:rgb(81.960784%,81.568627%,80.392157%);fill-opacity:1;" d="M 186.1875 176.472656 L 195.273438 184.855469 L 200.164063 179.5 L 214.019531 191.972656 L 214.984375 190.824219 L 216.40625 192.03125 L 224.8125 182.277344 L 204.003906 163.757813 L 202.941406 164.929688 L 196.929688 170.359375 L 194.1875 167.972656 Z M 186.1875 176.472656 "/>
<path style="fill:none;stroke-width:1;stroke-linecap:round;stroke-linejoin:round;stroke:rgb(81.960784%,81.960784%,81.960784%);stroke-opacity:1;stroke-miterlimit:10;" d="M 186.1875 176.472656 L 195.273438 184.855469 L 200.164063 179.5 L 214.019531 191.972656 L 214.984375 190.824219 L 216.40625 192.03125 L 224.8125 182.277344 L 204.003906 163.757813 L 202.941406 164.929688 L 196.929688 170.359375 L 194.1875 167.972656 L 186.1875 176.472656 "/>
<path style=" stroke:none;fill-rule:evenodd;fill:rgb(81.960784%,81.568627%,80.392157%);fill-opacity:1;" d="M 223.136719 60.410156 L 242.308594 77.554688 L 244.035156 75.703125 L 249.59375 69.503906 L 246.433594 66.585938 L 247.496094 65.378906 L 246.617188 64.59375 L 242.855469 61.257813 L 245.621094 58.117188 L 244.085938 56.773438 L 247.433594 52.777344 L 240.75 46.800781 L 237.9375 50.046875 L 234.816406 47.363281 Z M 223.136719 60.410156 "/>
<path style="fill:none;stroke-width:1;stroke-linecap:round;stroke-linejoin:round;stroke:rgb(81.960784%,81.960784%,81.960784%);stroke-opacity:1;stroke-miterlimit:10;" d="M 223.136719 60.410156 L 242.308594 77.554688 L 244.035156 75.703125 L 249.59375 69.503906 L 246.433594 66.585938 L 247.496094 65.378906 L 246.617188 64.59375 L 242.855469 61.257813 L 245.621094 58.117188 L 244.085938 56.773438 L 247.433594 52.777344 L 240.75 46.800781 L 237.9375 50.046875 L 234.816406 47.363281 L 223.136719 60.410156 "/>
<path style=" stroke:none;fill-rule:evenodd;fill:rgb(70.980392%,82.352941%,61.176471%);fill-opacity:1;" d="M 163.097656 170.03125 L 164.851563 171.164063 L 171.445313 163.679688 L 173.324219 161.546875 L 176.082031 158.414063 L 179.976563 158.117188 L 181.558594 154.625 L 182.398438 152.746094 L 187.777344 143.910156 L 190.703125 135.980469 L 191.246094 134.34375 L 197.574219 127.542969 L 194.632813 124.789063 L 191.113281 123.734375 L 184.460938 124.273438 L 186.007813 132.5625 L 185.324219 138.121094 L 183.824219 142.480469 L 182.234375 145.371094 L 173.023438 145.785156 L 171.0625 148.339844 L 172.25 153.867188 L 174.386719 155.828125 L 163.277344 168.28125 Z M 163.097656 170.03125 "/>
<path style=" stroke:none;fill-rule:evenodd;fill:rgb(81.960784%,81.568627%,80.392157%);fill-opacity:1;" d="M 182.398438 152.746094 L 192.351563 161.523438 L 204.429688 147.792969 L 190.703125 135.980469 L 187.777344 143.910156 Z M 182.398438 152.746094 "/>
<path style="fill:none;stroke-width:1;stroke-linecap:round;stroke-linejoin:round;stroke:rgb(81.960784%,81.960784%,81.960784%);stroke-opacity:1;stroke-miterlimit:10;" d="M 182.398438 152.746094 L 192.351563 161.523438 L 204.429688 147.792969 L 190.703125 135.980469 L 187.777344 143.910156 L 182.398438 152.746094 "/>
<path style=" stroke:none;fill-rule:evenodd;fill:rgb(98.039216%,98.039216%,96.078431%);fill-opacity:1;" d="M 144.109375 68.578125 L 147.222656 71.210938 L 148.445313 69.632813 L 159.269531 68.9375 L 160.660156 68.851563 L 167.800781 68.390625 L 169.195313 68.300781 L 173.589844 68.015625 L 173.546875 66.488281 L 169.824219 66.691406 L 164.753906 66.96875 L 159.777344 67.238281 L 158.703125 67.296875 L 154.78125 67.511719 L 153.613281 67.574219 L 149.675781 67.789063 L 146.78125 65.464844 Z M 144.109375 68.578125 "/>
<path style=" stroke:none;fill-rule:evenodd;fill:rgb(60%,70.196078%,80%);fill-opacity:1;" d="M -4 40.117188 L 151.269531 40.035156 L 153.671875 33.433594 L 153.269531 31.035156 L 163.269531 24.03125 L 162.070313 22.035156 L 169.734375 15.367188 L 144.53125 -4 L -4 -4 L 259 -4 L -4 -4 Z M -4 40.117188 "/>
<path style="fill:none;stroke-width:1;stroke-linecap:round;stroke-linejoin:round;stroke:rgb(70.196078%,77.647059%,83.137255%);stroke-opacity:1;stroke-miterlimit:10;" d="M -4 40.117188 L 151.269531 40.035156 L 153.671875 33.433594 L 153.269531 31.035156 L 163.269531 24.03125 L 162.070313 22.035156 L 169.734375 15.367188 L 144.53125 -4 L -4 -4 L 259 -4 L -4 -4 L -4 40.117188 "/>
<path style=" stroke:none;fill-rule:evenodd;fill:rgb(60%,70.196078%,80%);fill-opacity:1;" d="M 144.53125 -4 L 169.734375 15.367188 L 188.980469 -1.371094 L 191.457031 0.621094 L 192.636719 -0.445313 L 194.507813 0.984375 L 200.808594 -4 L 259 -4 Z M 144.53125 -4 "/>
<path style="fill:none;stroke-width:1;stroke-linecap:round;stroke-linejoin:round;stroke:rgb(70.196078%,77.647059%,83.137255%);stroke-opacity:1;stroke-miterlimit:10;" d="M 144.53125 -4 L 169.734375 15.367188 L 188.980469 -1.371094 L 191.457031 0.621094 L 192.636719 -0.445313 L 194.507813 0.984375 L 200.808594 -4 L 259 -4 L 144.53125 -4 "/>
<path style="fill:none;stroke-width:6;stroke-linecap:round;stroke-linejoin:round;stroke:rgb(60%,70.196078%,80%);stroke-opacity:1;stroke-miterlimit:10;" d="M 74.660156 262 L 41.144531 139.574219 L 37.15625 119.886719 L 24.324219 22.679688 "/>
<path style="fill:none;stroke-width:6;stroke-linecap:round;stroke-linejoin:round;stroke:rgb(60%,70.196078%,80%);stroke-opacity:1;stroke-miterlimit:10;" d="M 67.972656 -7 L 24.324219 22.679688 "/>
<path style="fill:none;stroke-width:1;stroke-linecap:round;stroke-linejoin:round;stroke:rgb(100%,100%,100%);stroke-opacity:1;stroke-dasharray:2,3;stroke-miterlimit:10;" d="M 180.519531 66.773438 L 173.566406 67.15625 "/>
<path style="fill:none;stroke-width:1;stroke-linecap:round;stroke-linejoin:round;stroke:rgb(100%,100%,100%);stroke-opacity:1;stroke-dasharray:2,3;stroke-miterlimit:10;" d="M 179.757813 72.320313 L 178.601563 71.351563 L 177.90625 70.21875 L 177.554688 69.082031 L 175.898438 69.871094 L 174.722656 71.65625 L 175.027344 73.09375 L 176.464844 72.660156 L 177.640625 71.917969 L 178.601563 71.351563 "/>
<path style="fill:none;stroke-width:1;stroke-linecap:round;stroke-linejoin:round;stroke:rgb(100%,100%,100%);stroke-opacity:1;stroke-dasharray:2,3;stroke-miterlimit:10;" d="M 180.519531 66.773438 L 196.667969 65.828125 "/>
<path style="fill:none;stroke-width:1;stroke-linecap:round;stroke-linejoin:round;stroke:rgb(100%,100%,100%);stroke-opacity:1;stroke-dasharray:2,3;stroke-miterlimit:10;" d="M 181.015625 153.726563 L 193.105469 165.117188 "/>
<path style="fill:none;stroke-width:1;stroke-linecap:round;stroke-linejoin:round;stroke:rgb(100%,100%,100%);stroke-opacity:1;stroke-dasharray:2,3;stroke-miterlimit:10;" d="M 182.066406 83.042969 L 180.390625 81.761719 L 179.863281 79.980469 L 179.691406 72.878906 L 180.128906 69.171875 L 180.519531 66.773438 L 181.175781 64.199219 L 182 62.285156 L 183.265625 60.324219 L 184.574219 58.753906 L 186.480469 56.527344 "/>
<path style="fill:none;stroke-width:1;stroke-linecap:round;stroke-linejoin:round;stroke:rgb(100%,100%,100%);stroke-opacity:1;stroke-dasharray:2,3;stroke-miterlimit:10;" d="M 184.96875 174.097656 L 183.316406 177.125 L 183.878906 178.6875 L 184.1875 180.4375 L 183.316406 182.8125 L 181.753906 188.0625 L 181.753906 190.121094 L 182.0625 191.9375 L 183.253906 194.0625 L 187 198.3125 L 195.3125 207.6875 L 200.476563 214.257813 L 202.179688 216.679688 "/>
<path style="fill:none;stroke-width:1;stroke-linecap:round;stroke-linejoin:round;stroke:rgb(100%,100%,100%);stroke-opacity:1;stroke-dasharray:2,3;stroke-miterlimit:10;" d="M 164.675781 169.066406 L 170.367188 162.648438 L 172.207031 160.574219 L 176.171875 156.097656 L 177.460938 155.394531 L 178.824219 154.9375 L 180.617188 154.429688 L 186.003906 144.929688 L 187.101563 141.949219 L 189.835938 133.019531 L 190.855469 128.332031 L 191.996094 122.734375 "/>
<path style="fill:none;stroke-width:8;stroke-linecap:round;stroke-linejoin:round;stroke:rgb(75.686275%,70.980392%,61.568627%);stroke-opacity:1;stroke-miterlimit:10;" d="M 202.15625 217.582031 L 202.328125 215.058594 L 202.503906 213.21875 "/>
<path style="fill:none;stroke-width:8;stroke-linecap:round;stroke-linejoin:round;stroke:rgb(75.686275%,70.980392%,61.568627%);stroke-opacity:1;stroke-miterlimit:10;" d="M 202.15625 217.582031 L 212.746094 226.929688 "/>
<path style="fill:none;stroke-width:8;stroke-linecap:round;stroke-linejoin:round;stroke:rgb(75.686275%,70.980392%,61.568627%);stroke-opacity:1;stroke-miterlimit:10;" d="M 198.757813 37.703125 L 212.878906 21.757813 "/>
<path style="fill:none;stroke-width:8;stroke-linecap:round;stroke-linejoin:round;stroke:rgb(75.686275%,70.980392%,61.568627%);stroke-opacity:1;stroke-miterlimit:10;" d="M 223.136719 60.410156 L 198.757813 37.703125 L 196.113281 35.140625 "/>
<path style="fill:none;stroke-width:8;stroke-linecap:round;stroke-linejoin:round;stroke:rgb(75.686275%,70.980392%,61.568627%);stroke-opacity:1;stroke-miterlimit:10;" d="M 179.867188 263.976563 L 212.746094 226.929688 "/>
<path style="fill:none;stroke-width:8;stroke-linecap:round;stroke-linejoin:round;stroke:rgb(75.686275%,70.980392%,61.568627%);stroke-opacity:1;stroke-miterlimit:10;" d="M 168.628906 254.554688 L 202.15625 217.582031 "/>
<path style="fill:none;stroke-width:8;stroke-linecap:round;stroke-linejoin:round;stroke:rgb(75.686275%,70.980392%,61.568627%);stroke-opacity:1;stroke-miterlimit:10;" d="M 208.464844 106.234375 L 185.078125 107.222656 L 143.683594 108.980469 "/>
<path style="fill:none;stroke-width:8;stroke-linecap:round;stroke-linejoin:round;stroke:rgb(75.686275%,70.980392%,61.568627%);stroke-opacity:1;stroke-miterlimit:10;" d="M 212.746094 226.929688 L 256.554688 178.722656 "/>
<path style="fill:none;stroke-width:8;stroke-linecap:round;stroke-linejoin:round;stroke:rgb(75.686275%,70.980392%,61.568627%);stroke-opacity:1;stroke-miterlimit:10;" d="M 214.503906 141.085938 L 194.898438 124.144531 L 191.996094 122.734375 L 188.046875 120.816406 L 154.511719 122.53125 "/>
<path style="fill:none;stroke-width:8;stroke-linecap:round;stroke-linejoin:round;stroke:rgb(75.686275%,70.980392%,61.568627%);stroke-opacity:1;stroke-miterlimit:10;" d="M 175.9375 46.894531 L 154.46875 47.160156 L 156.289063 35.007813 L 164.226563 26.800781 L 181.300781 41.4375 L 175.9375 46.894531 "/>
<path style="fill:none;stroke-width:8;stroke-linecap:round;stroke-linejoin:round;stroke:rgb(75.686275%,70.980392%,61.568627%);stroke-opacity:1;stroke-miterlimit:10;" d="M 200.265625 157.214844 L 214.503906 141.085938 "/>
<path style="fill:none;stroke-width:8;stroke-linecap:round;stroke-linejoin:round;stroke:rgb(75.686275%,70.980392%,61.568627%);stroke-opacity:1;stroke-miterlimit:10;" d="M 214.503906 141.085938 L 229.042969 124.707031 "/>
<path style="fill:none;stroke-width:8;stroke-linecap:round;stroke-linejoin:round;stroke:rgb(75.686275%,70.980392%,61.568627%);stroke-opacity:1;stroke-miterlimit:10;" d="M 184.96875 174.097656 L 193.105469 165.117188 L 200.265625 157.214844 "/>
<path style="fill:none;stroke-width:8;stroke-linecap:round;stroke-linejoin:round;stroke:rgb(75.686275%,70.980392%,61.568627%);stroke-opacity:1;stroke-miterlimit:10;" d="M 257.585938 150.269531 L 229.042969 124.707031 "/>
<path style="fill:none;stroke-width:8;stroke-linecap:round;stroke-linejoin:round;stroke:rgb(75.686275%,70.980392%,61.568627%);stroke-opacity:1;stroke-miterlimit:10;" d="M 243.09375 166.617188 L 214.503906 141.085938 "/>
<path style="fill:none;stroke-width:8;stroke-linecap:round;stroke-linejoin:round;stroke:rgb(75.686275%,70.980392%,61.568627%);stroke-opacity:1;stroke-miterlimit:10;" d="M 200.265625 157.214844 L 229.242188 182.519531 "/>
<path style="fill:none;stroke-width:8;stroke-linecap:round;stroke-linejoin:round;stroke:rgb(75.686275%,70.980392%,61.568627%);stroke-opacity:1;stroke-miterlimit:10;" d="M 221.0625 -0.257813 L 252.15625 28 "/>
<path style="fill:none;stroke-width:8;stroke-linecap:round;stroke-linejoin:round;stroke:rgb(75.686275%,70.980392%,61.568627%);stroke-opacity:1;stroke-miterlimit:10;" d="M 229.042969 124.707031 L 243.652344 108.269531 L 258.191406 91.925781 "/>
<path style="fill:none;stroke-width:8;stroke-linecap:round;stroke-linejoin:round;stroke:rgb(75.686275%,70.980392%,61.568627%);stroke-opacity:1;stroke-miterlimit:10;" d="M 175.9375 46.894531 L 186.480469 56.527344 L 196.667969 65.828125 L 208.558594 76.691406 "/>
<path style="fill:none;stroke-width:8;stroke-linecap:round;stroke-linejoin:round;stroke:rgb(75.686275%,70.980392%,61.568627%);stroke-opacity:1;stroke-miterlimit:10;" d="M 252.15625 28 L 264 38.519531 "/>
<path style="fill:none;stroke-width:8;stroke-linecap:round;stroke-linejoin:round;stroke:rgb(75.686275%,70.980392%,61.568627%);stroke-opacity:1;stroke-miterlimit:10;" d="M 208.558594 76.691406 L 243.652344 108.269531 "/>
<path style="fill:none;stroke-width:8;stroke-linecap:round;stroke-linejoin:round;stroke:rgb(75.686275%,70.980392%,61.568627%);stroke-opacity:1;stroke-miterlimit:10;" d="M 237.734375 44.105469 L 212.878906 21.757813 L 205.417969 15.046875 L 195.183594 5.84375 "/>
<path style="fill:none;stroke-width:8;stroke-linecap:round;stroke-linejoin:round;stroke:rgb(75.686275%,70.980392%,61.568627%);stroke-opacity:1;stroke-miterlimit:10;" d="M 243.09375 166.617188 L 229.242188 182.519531 L 202.503906 213.21875 "/>
<path style="fill:none;stroke-width:8;stroke-linecap:round;stroke-linejoin:round;stroke:rgb(75.686275%,70.980392%,61.568627%);stroke-opacity:1;stroke-miterlimit:10;" d="M 229.042969 124.707031 L 208.464844 106.234375 L 193.925781 93.03125 L 182.066406 83.042969 "/>
<path style="fill:none;stroke-width:8;stroke-linecap:round;stroke-linejoin:round;stroke:rgb(75.686275%,70.980392%,61.568627%);stroke-opacity:1;stroke-miterlimit:10;" d="M 264 217.121094 L 240.398438 243.617188 "/>
<path style="fill:none;stroke-width:8;stroke-linecap:round;stroke-linejoin:round;stroke:rgb(75.686275%,70.980392%,61.568627%);stroke-opacity:1;stroke-miterlimit:10;" d="M 264 14.773438 L 252.15625 28 L 237.734375 44.105469 L 234.816406 47.363281 L 223.136719 60.410156 L 208.558594 76.691406 L 193.925781 93.03125 "/>
<path style="fill:none;stroke-width:8;stroke-linecap:round;stroke-linejoin:round;stroke:rgb(75.686275%,70.980392%,61.568627%);stroke-opacity:1;stroke-miterlimit:10;" d="M 243.652344 108.269531 L 264 126.582031 "/>
<path style="fill:none;stroke-width:8;stroke-linecap:round;stroke-linejoin:round;stroke:rgb(75.686275%,70.980392%,61.568627%);stroke-opacity:1;stroke-miterlimit:10;" d="M 264 67.585938 L 247.433594 52.777344 L 240.75 46.800781 L 237.734375 44.105469 "/>
<path style="fill:none;stroke-width:8;stroke-linecap:round;stroke-linejoin:round;stroke:rgb(75.686275%,70.980392%,61.568627%);stroke-opacity:1;stroke-miterlimit:10;" d="M 264 97.148438 L 258.191406 91.925781 L 242.308594 77.554688 L 223.136719 60.410156 "/>
<path style="fill:none;stroke-width:9;stroke-linecap:round;stroke-linejoin:round;stroke:rgb(75.686275%,70.980392%,61.568627%);stroke-opacity:1;stroke-miterlimit:10;" d="M 265 186.320313 L 256.554688 178.722656 L 243.09375 166.617188 "/>
<path style="fill:none;stroke-width:9;stroke-linecap:round;stroke-linejoin:round;stroke:rgb(75.686275%,70.980392%,61.568627%);stroke-opacity:1;stroke-miterlimit:10;" d="M 265 141.921875 L 257.585938 150.269531 L 243.09375 166.617188 "/>
<path style="fill:none;stroke-width:6;stroke-linecap:round;stroke-linejoin:round;stroke:rgb(100%,100%,100%);stroke-opacity:1;stroke-miterlimit:10;" d="M 202.15625 217.582031 L 202.328125 215.058594 L 202.503906 213.21875 "/>
<path style="fill:none;stroke-width:6;stroke-linecap:round;stroke-linejoin:round;stroke:rgb(100%,100%,100%);stroke-opacity:1;stroke-miterlimit:10;" d="M 202.15625 217.582031 L 212.746094 226.929688 "/>
<path style="fill:none;stroke-width:6;stroke-linecap:round;stroke-linejoin:round;stroke:rgb(100%,100%,100%);stroke-opacity:1;stroke-miterlimit:10;" d="M 198.757813 37.703125 L 212.878906 21.757813 "/>
<path style="fill:none;stroke-width:6;stroke-linecap:round;stroke-linejoin:round;stroke:rgb(100%,100%,100%);stroke-opacity:1;stroke-miterlimit:10;" d="M 223.136719 60.410156 L 198.757813 37.703125 L 196.113281 35.140625 "/>
<path style="fill:none;stroke-width:6;stroke-linecap:round;stroke-linejoin:round;stroke:rgb(100%,100%,100%);stroke-opacity:1;stroke-miterlimit:10;" d="M 179.867188 263.976563 L 212.746094 226.929688 "/>
<path style="fill:none;stroke-width:6;stroke-linecap:round;stroke-linejoin:round;stroke:rgb(100%,100%,100%);stroke-opacity:1;stroke-miterlimit:10;" d="M 168.628906 254.554688 L 202.15625 217.582031 "/>
<path style="fill:none;stroke-width:6;stroke-linecap:round;stroke-linejoin:round;stroke:rgb(100%,100%,100%);stroke-opacity:1;stroke-miterlimit:10;" d="M 208.464844 106.234375 L 185.078125 107.222656 L 143.683594 108.980469 "/>
<path style="fill:none;stroke-width:6;stroke-linecap:round;stroke-linejoin:round;stroke:rgb(100%,100%,100%);stroke-opacity:1;stroke-miterlimit:10;" d="M 212.746094 226.929688 L 256.554688 178.722656 "/>
<path style="fill:none;stroke-width:6;stroke-linecap:round;stroke-linejoin:round;stroke:rgb(100%,100%,100%);stroke-opacity:1;stroke-miterlimit:10;" d="M 214.503906 141.085938 L 194.898438 124.144531 L 191.996094 122.734375 L 188.046875 120.816406 L 154.511719 122.53125 "/>
<path style="fill:none;stroke-width:6;stroke-linecap:round;stroke-linejoin:round;stroke:rgb(100%,100%,100%);stroke-opacity:1;stroke-miterlimit:10;" d="M 175.9375 46.894531 L 154.46875 47.160156 L 156.289063 35.007813 L 164.226563 26.800781 L 181.300781 41.4375 L 175.9375 46.894531 "/>
<path style="fill:none;stroke-width:6;stroke-linecap:round;stroke-linejoin:round;stroke:rgb(100%,100%,100%);stroke-opacity:1;stroke-miterlimit:10;" d="M 200.265625 157.214844 L 214.503906 141.085938 "/>
<path style="fill:none;stroke-width:6;stroke-linecap:round;stroke-linejoin:round;stroke:rgb(100%,100%,100%);stroke-opacity:1;stroke-miterlimit:10;" d="M 214.503906 141.085938 L 229.042969 124.707031 "/>
<path style="fill:none;stroke-width:6;stroke-linecap:round;stroke-linejoin:round;stroke:rgb(100%,100%,100%);stroke-opacity:1;stroke-miterlimit:10;" d="M 184.96875 174.097656 L 193.105469 165.117188 L 200.265625 157.214844 "/>
<path style="fill:none;stroke-width:6;stroke-linecap:round;stroke-linejoin:round;stroke:rgb(100%,100%,100%);stroke-opacity:1;stroke-miterlimit:10;" d="M 257.585938 150.269531 L 229.042969 124.707031 "/>
<path style="fill:none;stroke-width:6;stroke-linecap:round;stroke-linejoin:round;stroke:rgb(100%,100%,100%);stroke-opacity:1;stroke-miterlimit:10;" d="M 243.09375 166.617188 L 214.503906 141.085938 "/>
<path style="fill:none;stroke-width:6;stroke-linecap:round;stroke-linejoin:round;stroke:rgb(100%,100%,100%);stroke-opacity:1;stroke-miterlimit:10;" d="M 200.265625 157.214844 L 229.242188 182.519531 "/>
<path style="fill:none;stroke-width:6;stroke-linecap:round;stroke-linejoin:round;stroke:rgb(100%,100%,100%);stroke-opacity:1;stroke-miterlimit:10;" d="M 221.0625 -0.257813 L 252.15625 28 "/>
<path style="fill:none;stroke-width:6;stroke-linecap:round;stroke-linejoin:round;stroke:rgb(100%,100%,100%);stroke-opacity:1;stroke-miterlimit:10;" d="M 229.042969 124.707031 L 243.652344 108.269531 L 258.191406 91.925781 "/>
<path style="fill:none;stroke-width:6;stroke-linecap:round;stroke-linejoin:round;stroke:rgb(100%,100%,100%);stroke-opacity:1;stroke-miterlimit:10;" d="M 175.9375 46.894531 L 186.480469 56.527344 L 196.667969 65.828125 L 208.558594 76.691406 "/>
<path style="fill:none;stroke-width:6;stroke-linecap:round;stroke-linejoin:round;stroke:rgb(100%,100%,100%);stroke-opacity:1;stroke-miterlimit:10;" d="M 252.15625 28 L 264 38.519531 "/>
<path style="fill:none;stroke-width:6;stroke-linecap:round;stroke-linejoin:round;stroke:rgb(100%,100%,100%);stroke-opacity:1;stroke-miterlimit:10;" d="M 208.558594 76.691406 L 243.652344 108.269531 "/>
<path style="fill:none;stroke-width:6;stroke-linecap:round;stroke-linejoin:round;stroke:rgb(100%,100%,100%);stroke-opacity:1;stroke-miterlimit:10;" d="M 237.734375 44.105469 L 212.878906 21.757813 L 205.417969 15.046875 L 195.183594 5.84375 "/>
<path style="fill:none;stroke-width:6;stroke-linecap:round;stroke-linejoin:round;stroke:rgb(100%,100%,100%);stroke-opacity:1;stroke-miterlimit:10;" d="M 243.09375 166.617188 L 229.242188 182.519531 L 202.503906 213.21875 "/>
<path style="fill:none;stroke-width:6;stroke-linecap:round;stroke-linejoin:round;stroke:rgb(100%,100%,100%);stroke-opacity:1;stroke-miterlimit:10;" d="M 229.042969 124.707031 L 208.464844 106.234375 L 193.925781 93.03125 L 182.066406 83.042969 "/>
<path style="fill:none;stroke-width:6;stroke-linecap:round;stroke-linejoin:round;stroke:rgb(100%,100%,100%);stroke-opacity:1;stroke-miterlimit:10;" d="M 264 217.121094 L 240.398438 243.617188 "/>
<path style="fill:none;stroke-width:6;stroke-linecap:round;stroke-linejoin:round;stroke:rgb(100%,100%,100%);stroke-opacity:1;stroke-miterlimit:10;" d="M 264 14.773438 L 252.15625 28 L 237.734375 44.105469 L 234.816406 47.363281 L 223.136719 60.410156 L 208.558594 76.691406 L 193.925781 93.03125 "/>
<path style="fill:none;stroke-width:6;stroke-linecap:round;stroke-linejoin:round;stroke:rgb(100%,100%,100%);stroke-opacity:1;stroke-miterlimit:10;" d="M 243.652344 108.269531 L 264 126.582031 "/>
<path style="fill:none;stroke-width:6;stroke-linecap:round;stroke-linejoin:round;stroke:rgb(100%,100%,100%);stroke-opacity:1;stroke-miterlimit:10;" d="M 264 67.585938 L 247.433594 52.777344 L 240.75 46.800781 L 237.734375 44.105469 "/>
<path style="fill:none;stroke-width:6;stroke-linecap:round;stroke-linejoin:round;stroke:rgb(100%,100%,100%);stroke-opacity:1;stroke-miterlimit:10;" d="M 264 97.148438 L 258.191406 91.925781 L 242.308594 77.554688 L 223.136719 60.410156 "/>
<path style="fill:none;stroke-width:7;stroke-linecap:round;stroke-linejoin:round;stroke:rgb(100%,99.215686%,54.509804%);stroke-opacity:1;stroke-miterlimit:10;" d="M 265 186.320313 L 256.554688 178.722656 L 243.09375 166.617188 "/>
<path style="fill:none;stroke-width:7;stroke-linecap:round;stroke-linejoin:round;stroke:rgb(100%,99.215686%,54.509804%);stroke-opacity:1;stroke-miterlimit:10;" d="M 265 141.921875 L 257.585938 150.269531 L 243.09375 166.617188 "/>
<path style="fill:none;stroke-width:5;stroke-linecap:butt;stroke-linejoin:round;stroke:rgb(53.333333%,53.333333%,53.333333%);stroke-opacity:1;stroke-miterlimit:10;" d="M 175.75 163.660156 L 173.324219 161.546875 L 172.207031 160.574219 "/>
<path style="fill:none;stroke-width:5;stroke-linecap:butt;stroke-linejoin:round;stroke:rgb(53.333333%,53.333333%,53.333333%);stroke-opacity:1;stroke-miterlimit:10;" d="M 170.367188 162.648438 L 171.445313 163.679688 L 173.914063 165.90625 "/>
<path style="fill:none;stroke-width:3;stroke-linecap:round;stroke-linejoin:round;stroke:rgb(98.039216%,98.039216%,96.078431%);stroke-opacity:1;stroke-miterlimit:10;" d="M 175.75 163.660156 L 173.324219 161.546875 L 172.207031 160.574219 "/>
<path style="fill:none;stroke-width:3;stroke-linecap:round;stroke-linejoin:round;stroke:rgb(98.039216%,98.039216%,96.078431%);stroke-opacity:1;stroke-miterlimit:10;" d="M 170.367188 162.648438 L 171.445313 163.679688 L 173.914063 165.90625 "/>
<path style="fill:none;stroke-width:3;stroke-linecap:round;stroke-linejoin:round;stroke:rgb(100%,100%,100%);stroke-opacity:1;stroke-miterlimit:10;" d="M 33.40625 95.777344 C 33.351563 96.035156 33.1875 96.300781 32.90625 96.574219 C 32.632813 96.855469 32.253906 97.140625 31.765625 97.433594 L 29.34375 98.949219 L 29.1875 97.699219 L 31.46875 96.308594 C 32.050781 95.953125 32.425781 95.628906 32.59375 95.339844 C 32.769531 95.058594 32.828125 94.6875 32.765625 94.230469 L 32.59375 92.980469 L 28.625 93.496094 L 28.484375 92.355469 L 37.890625 91.121094 L 38.21875 93.699219 C 38.351563 94.667969 38.226563 95.417969 37.84375 95.949219 C 37.457031 96.480469 36.804688 96.800781 35.890625 96.917969 C 35.304688 97 34.796875 96.941406 34.359375 96.746094 C 33.929688 96.558594 33.613281 96.234375 33.40625 95.777344 Z M 36.96875 92.386719 L 33.640625 92.839844 L 33.828125 94.277344 C 33.898438 94.828125 34.097656 95.222656 34.421875 95.464844 C 34.753906 95.703125 35.191406 95.785156 35.734375 95.714844 C 36.285156 95.652344 36.675781 95.457031 36.90625 95.136719 C 37.144531 94.8125 37.226563 94.375 37.15625 93.824219 Z M 34.0625 105.285156 L 33.5 105.363281 L 32.875 100.566406 C 32.070313 100.722656 31.488281 101.019531 31.125 101.457031 C 30.769531 101.894531 30.640625 102.460938 30.734375 103.160156 C 30.785156 103.554688 30.882813 103.929688 31.03125 104.285156 C 31.1875 104.648438 31.398438 105.007813 31.671875 105.363281 L 30.578125 105.503906 C 30.347656 105.148438 30.160156 104.777344 30.015625 104.394531 C 29.867188 104.019531 29.769531 103.632813 29.71875 103.238281 C 29.582031 102.226563 29.800781 101.378906 30.375 100.691406 C 30.957031 100.011719 31.804688 99.601563 32.921875 99.457031 C 34.078125 99.300781 35.03125 99.457031 35.78125 99.925781 C 36.539063 100.402344 36.984375 101.117188 37.109375 102.066406 C 37.222656 102.917969 37.003906 103.632813 36.453125 104.207031 C 35.910156 104.777344 35.113281 105.136719 34.0625 105.285156 Z M 34.265625 104.191406 C 34.890625 104.105469 35.375 103.882813 35.71875 103.519531 C 36.0625 103.152344 36.203125 102.714844 36.140625 102.207031 C 36.054688 101.613281 35.804688 101.167969 35.390625 100.878906 C 34.984375 100.585938 34.445313 100.457031 33.78125 100.488281 Z M 37.003906 110.882813 L 40.816406 110.382813 L 40.957031 111.414063 L 31.160156 112.710938 L 31.019531 111.679688 L 32.066406 111.539063 C 31.636719 111.371094 31.292969 111.136719 31.035156 110.835938 C 30.785156 110.53125 30.628906 110.148438 30.566406 109.679688 C 30.472656 108.90625 30.730469 108.234375 31.347656 107.664063 C 31.960938 107.089844 32.820313 106.730469 33.925781 106.585938 C 35.027344 106.4375 35.957031 106.558594 36.707031 106.945313 C 37.457031 107.339844 37.878906 107.921875 37.972656 108.695313 C 38.035156 109.164063 37.988281 109.574219 37.832031 109.929688 C 37.675781 110.292969 37.398438 110.609375 37.003906 110.882813 Z M 34.082031 107.664063 C 33.238281 107.777344 32.589844 108.023438 32.144531 108.398438 C 31.707031 108.78125 31.519531 109.246094 31.582031 109.789063 C 31.664063 110.351563 31.964844 110.757813 32.488281 111.007813 C 33.007813 111.257813 33.691406 111.324219 34.535156 111.210938 C 35.386719 111.09375 36.039063 110.851563 36.488281 110.476563 C 36.933594 110.101563 37.117188 109.632813 37.035156 109.070313 C 36.972656 108.527344 36.675781 108.125 36.144531 107.867188 C 35.621094 107.617188 34.933594 107.546875 34.082031 107.664063 Z M 41.371094 117.160156 L 41.574219 118.285156 L 37.730469 118.957031 L 38.464844 123.097656 L 42.308594 122.425781 L 42.511719 123.550781 L 33.167969 125.207031 L 32.964844 124.082031 L 37.417969 123.300781 L 36.683594 119.160156 L 32.230469 119.941406 L 32.027344 118.816406 Z M 40.257813 128.703125 C 40.152344 128.160156 39.824219 127.773438 39.273438 127.546875 C 38.730469 127.328125 38.039063 127.300781 37.195313 127.46875 C 36.359375 127.632813 35.742188 127.925781 35.335938 128.34375 C 34.929688 128.769531 34.777344 129.253906 34.882813 129.796875 C 34.996094 130.347656 35.324219 130.734375 35.867188 130.953125 C 36.417969 131.179688 37.105469 131.210938 37.929688 131.046875 C 38.761719 130.878906 39.386719 130.582031 39.804688 130.15625 C 40.21875 129.738281 40.371094 129.253906 40.257813 128.703125 Z M 41.226563 128.5 C 41.414063 129.40625 41.230469 130.179688 40.679688 130.828125 C 40.136719 131.472656 39.292969 131.910156 38.148438 132.140625 C 37.011719 132.367188 36.0625 132.289063 35.304688 131.90625 C 34.554688 131.53125 34.085938 130.890625 33.898438 129.984375 C 33.71875 129.085938 33.902344 128.316406 34.445313 127.671875 C 34.996094 127.035156 35.839844 126.601563 36.976563 126.375 C 38.121094 126.148438 39.070313 126.21875 39.820313 126.59375 C 40.578125 126.96875 41.046875 127.601563 41.226563 128.5 Z M 41.679688 135.714844 C 41.574219 135.171875 41.246094 134.785156 40.695313 134.558594 C 40.152344 134.339844 39.460938 134.3125 38.617188 134.480469 C 37.78125 134.644531 37.164063 134.9375 36.757813 135.355469 C 36.351563 135.78125 36.199219 136.265625 36.304688 136.808594 C 36.417969 137.359375 36.746094 137.746094 37.289063 137.964844 C 37.839844 138.191406 38.527344 138.222656 39.351563 138.058594 C 40.183594 137.890625 40.808594 137.59375 41.226563 137.167969 C 41.640625 136.75 41.792969 136.265625 41.679688 135.714844 Z M 42.648438 135.511719 C 42.835938 136.417969 42.652344 137.191406 42.101563 137.839844 C 41.558594 138.484375 40.714844 138.921875 39.570313 139.152344 C 38.433594 139.378906 37.484375 139.300781 36.726563 138.917969 C 35.976563 138.542969 35.507813 137.902344 35.320313 136.996094 C 35.140625 136.097656 35.324219 135.328125 35.867188 134.683594 C 36.417969 134.046875 37.261719 133.613281 38.398438 133.386719 C 39.542969 133.160156 40.492188 133.230469 41.242188 133.605469 C 42 133.980469 42.46875 134.613281 42.648438 135.511719 Z M 46.117188 139.242188 L 46.398438 140.257813 L 40.773438 141.789063 L 44.539063 143.992188 L 44.898438 145.304688 L 40.789063 142.898438 L 38.070313 147.304688 L 37.726563 145.992188 L 40.210938 141.945313 L 36.867188 142.851563 L 36.585938 141.835938 Z M 49.488281 155.875 L 48.175781 156.234375 C 48.464844 155.753906 48.648438 155.273438 48.722656 154.796875 C 48.792969 154.316406 48.769531 153.84375 48.644531 153.375 C 48.382813 152.425781 47.867188 151.789063 47.097656 151.46875 C 46.324219 151.144531 45.335938 151.148438 44.128906 151.484375 C 42.929688 151.816406 42.074219 152.316406 41.566406 152.984375 C 41.066406 153.648438 40.945313 154.457031 41.207031 155.40625 C 41.332031 155.875 41.542969 156.296875 41.847656 156.671875 C 42.160156 157.046875 42.554688 157.367188 43.035156 157.640625 L 41.753906 158 C 41.347656 157.695313 41.007813 157.34375 40.738281 156.9375 C 40.476563 156.539063 40.285156 156.101563 40.160156 155.625 C 39.816406 154.363281 39.964844 153.265625 40.613281 152.328125 C 41.269531 151.390625 42.332031 150.71875 43.800781 150.3125 C 45.269531 149.90625 46.523438 149.945313 47.566406 150.421875 C 48.617188 150.902344 49.316406 151.769531 49.660156 153.03125 C 49.792969 153.519531 49.847656 154 49.816406 154.46875 C 49.785156 154.9375 49.675781 155.40625 49.488281 155.875 Z M 47.066406 163.851563 L 42.925781 164.992188 L 42.644531 163.992188 L 46.738281 162.867188 C 47.394531 162.6875 47.851563 162.4375 48.113281 162.117188 C 48.371094 161.792969 48.441406 161.40625 48.316406 160.960938 C 48.167969 160.417969 47.855469 160.039063 47.378906 159.820313 C 46.910156 159.609375 46.335938 159.601563 45.660156 159.789063 L 41.785156 160.851563 L 41.503906 159.835938 L 51.035156 157.226563 L 51.316406 158.242188 L 47.566406 159.273438 C 48.042969 159.398438 48.429688 159.59375 48.722656 159.867188 C 49.011719 160.136719 49.222656 160.484375 49.347656 160.914063 C 49.535156 161.621094 49.433594 162.226563 49.050781 162.726563 C 48.675781 163.226563 48.011719 163.601563 47.066406 163.851563 Z M 47.699219 168.898438 C 47.46875 168.074219 47.203125 167.53125 46.902344 167.273438 C 46.609375 167.011719 46.214844 166.949219 45.714844 167.085938 C 45.328125 167.1875 45.046875 167.390625 44.871094 167.695313 C 44.691406 167.996094 44.660156 168.355469 44.777344 168.773438 C 44.933594 169.335938 45.277344 169.71875 45.808594 169.929688 C 46.339844 170.148438 46.96875 170.15625 47.699219 169.960938 L 47.964844 169.898438 Z M 48.714844 170.773438 L 44.792969 171.851563 L 44.511719 170.835938 L 45.558594 170.554688 C 45.078125 170.4375 44.6875 170.234375 44.386719 169.945313 C 44.09375 169.652344 43.878906 169.257813 43.746094 168.757813 C 43.566406 168.121094 43.628906 167.558594 43.933594 167.070313 C 44.234375 166.589844 44.707031 166.261719 45.355469 166.085938 C 46.136719 165.878906 46.78125 165.953125 47.292969 166.304688 C 47.8125 166.65625 48.199219 167.296875 48.449219 168.226563 L 48.839844 169.648438 L 48.964844 169.617188 C 49.472656 169.480469 49.828125 169.21875 50.027344 168.835938 C 50.234375 168.449219 50.265625 167.980469 50.121094 167.429688 C 50.015625 167.074219 49.871094 166.742188 49.683594 166.429688 C 49.496094 166.125 49.265625 165.847656 48.996094 165.585938 L 50.042969 165.289063 C 50.300781 165.625 50.515625 165.953125 50.683594 166.273438 C 50.859375 166.605469 50.996094 166.933594 51.089844 167.257813 C 51.328125 168.152344 51.25 168.890625 50.855469 169.476563 C 50.46875 170.058594 49.753906 170.492188 48.714844 170.773438 Z M 50.921875 177.925781 L 46.78125 179.066406 L 46.5 178.066406 L 50.59375 176.941406 C 51.25 176.761719 51.707031 176.511719 51.96875 176.191406 C 52.226563 175.867188 52.296875 175.480469 52.171875 175.035156 C 52.023438 174.492188 51.710938 174.113281 51.234375 173.894531 C 50.765625 173.683594 50.191406 173.675781 49.515625 173.863281 L 45.640625 174.925781 L 45.359375 173.910156 L 52.21875 172.035156 L 52.5 173.050781 L 51.421875 173.347656 C 51.898438 173.472656 52.285156 173.667969 52.578125 173.941406 C 52.867188 174.210938 53.078125 174.558594 53.203125 174.988281 C 53.390625 175.695313 53.289063 176.300781 52.90625 176.800781 C 52.53125 177.300781 51.867188 177.675781 50.921875 177.925781 Z M 52.882813 185.085938 L 48.742188 186.226563 L 48.460938 185.226563 L 52.554688 184.101563 C 53.210938 183.921875 53.667969 183.671875 53.929688 183.351563 C 54.1875 183.027344 54.257813 182.640625 54.132813 182.195313 C 53.984375 181.652344 53.671875 181.273438 53.195313 181.054688 C 52.726563 180.84375 52.152344 180.835938 51.476563 181.023438 L 47.601563 182.085938 L 47.320313 181.070313 L 54.179688 179.195313 L 54.460938 180.210938 L 53.382813 180.507813 C 53.859375 180.632813 54.246094 180.828125 54.539063 181.101563 C 54.828125 181.371094 55.039063 181.71875 55.164063 182.148438 C 55.351563 182.855469 55.25 183.460938 54.867188 183.960938 C 54.492188 184.460938 53.828125 184.835938 52.882813 185.085938 Z M 54.433594 192.523438 L 53.902344 192.679688 L 52.621094 188.007813 C 51.847656 188.265625 51.3125 188.636719 51.011719 189.117188 C 50.707031 189.605469 50.652344 190.1875 50.839844 190.867188 C 50.941406 191.25 51.09375 191.609375 51.292969 191.945313 C 51.5 192.289063 51.765625 192.609375 52.089844 192.914063 L 51.011719 193.210938 C 50.738281 192.886719 50.503906 192.546875 50.308594 192.195313 C 50.109375 191.839844 49.957031 191.464844 49.855469 191.070313 C 49.582031 190.078125 49.6875 189.210938 50.167969 188.460938 C 50.65625 187.71875 51.441406 187.199219 52.527344 186.898438 C 53.652344 186.597656 54.613281 186.628906 55.417969 186.992188 C 56.230469 187.355469 56.761719 187.996094 57.011719 188.914063 C 57.238281 189.746094 57.125 190.484375 56.667969 191.132813 C 56.207031 191.777344 55.464844 192.242188 54.433594 192.523438 Z M 54.480469 191.398438 C 55.09375 191.230469 55.546875 190.949219 55.839844 190.554688 C 56.128906 190.15625 56.207031 189.703125 56.074219 189.195313 C 55.917969 188.621094 55.609375 188.214844 55.152344 187.976563 C 54.703125 187.734375 54.152344 187.679688 53.496094 187.804688 Z M 60.726563 192.597656 L 60.992188 193.613281 L 51.460938 196.222656 L 51.195313 195.207031 Z M 60.726563 192.597656 "/>
<path style=" stroke:none;fill-rule:evenodd;fill:rgb(41.960784%,58.039216%,69.019608%);fill-opacity:1;" d="M 33.40625 95.777344 C 33.351563 96.035156 33.1875 96.300781 32.90625 96.574219 C 32.632813 96.855469 32.253906 97.140625 31.765625 97.433594 L 29.34375 98.949219 L 29.1875 97.699219 L 31.46875 96.308594 C 32.050781 95.953125 32.425781 95.628906 32.59375 95.339844 C 32.769531 95.058594 32.828125 94.6875 32.765625 94.230469 L 32.59375 92.980469 L 28.625 93.496094 L 28.484375 92.355469 L 37.890625 91.121094 L 38.21875 93.699219 C 38.351563 94.667969 38.226563 95.417969 37.84375 95.949219 C 37.457031 96.480469 36.804688 96.800781 35.890625 96.917969 C 35.304688 97 34.796875 96.941406 34.359375 96.746094 C 33.929688 96.558594 33.613281 96.234375 33.40625 95.777344 Z M 36.96875 92.386719 L 33.640625 92.839844 L 33.828125 94.277344 C 33.898438 94.828125 34.097656 95.222656 34.421875 95.464844 C 34.753906 95.703125 35.191406 95.785156 35.734375 95.714844 C 36.285156 95.652344 36.675781 95.457031 36.90625 95.136719 C 37.144531 94.8125 37.226563 94.375 37.15625 93.824219 Z M 34.0625 105.285156 L 33.5 105.363281 L 32.875 100.566406 C 32.070313 100.722656 31.488281 101.019531 31.125 101.457031 C 30.769531 101.894531 30.640625 102.460938 30.734375 103.160156 C 30.785156 103.554688 30.882813 103.929688 31.03125 104.285156 C 31.1875 104.648438 31.398438 105.007813 31.671875 105.363281 L 30.578125 105.503906 C 30.347656 105.148438 30.160156 104.777344 30.015625 104.394531 C 29.867188 104.019531 29.769531 103.632813 29.71875 103.238281 C 29.582031 102.226563 29.800781 101.378906 30.375 100.691406 C 30.957031 100.011719 31.804688 99.601563 32.921875 99.457031 C 34.078125 99.300781 35.03125 99.457031 35.78125 99.925781 C 36.539063 100.402344 36.984375 101.117188 37.109375 102.066406 C 37.222656 102.917969 37.003906 103.632813 36.453125 104.207031 C 35.910156 104.777344 35.113281 105.136719 34.0625 105.285156 Z M 34.265625 104.191406 C 34.890625 104.105469 35.375 103.882813 35.71875 103.519531 C 36.0625 103.152344 36.203125 102.714844 36.140625 102.207031 C 36.054688 101.613281 35.804688 101.167969 35.390625 100.878906 C 34.984375 100.585938 34.445313 100.457031 33.78125 100.488281 Z M 37.003906 110.882813 L 40.816406 110.382813 L 40.957031 111.414063 L 31.160156 112.710938 L 31.019531 111.679688 L 32.066406 111.539063 C 31.636719 111.371094 31.292969 111.136719 31.035156 110.835938 C 30.785156 110.53125 30.628906 110.148438 30.566406 109.679688 C 30.472656 108.90625 30.730469 108.234375 31.347656 107.664063 C 31.960938 107.089844 32.820313 106.730469 33.925781 106.585938 C 35.027344 106.4375 35.957031 106.558594 36.707031 106.945313 C 37.457031 107.339844 37.878906 107.921875 37.972656 108.695313 C 38.035156 109.164063 37.988281 109.574219 37.832031 109.929688 C 37.675781 110.292969 37.398438 110.609375 37.003906 110.882813 Z M 34.082031 107.664063 C 33.238281 107.777344 32.589844 108.023438 32.144531 108.398438 C 31.707031 108.78125 31.519531 109.246094 31.582031 109.789063 C 31.664063 110.351563 31.964844 110.757813 32.488281 111.007813 C 33.007813 111.257813 33.691406 111.324219 34.535156 111.210938 C 35.386719 111.09375 36.039063 110.851563 36.488281 110.476563 C 36.933594 110.101563 37.117188 109.632813 37.035156 109.070313 C 36.972656 108.527344 36.675781 108.125 36.144531 107.867188 C 35.621094 107.617188 34.933594 107.546875 34.082031 107.664063 Z M 41.371094 117.160156 L 41.574219 118.285156 L 37.730469 118.957031 L 38.464844 123.097656 L 42.308594 122.425781 L 42.511719 123.550781 L 33.167969 125.207031 L 32.964844 124.082031 L 37.417969 123.300781 L 36.683594 119.160156 L 32.230469 119.941406 L 32.027344 118.816406 Z M 40.257813 128.703125 C 40.152344 128.160156 39.824219 127.773438 39.273438 127.546875 C 38.730469 127.328125 38.039063 127.300781 37.195313 127.46875 C 36.359375 127.632813 35.742188 127.925781 35.335938 128.34375 C 34.929688 128.769531 34.777344 129.253906 34.882813 129.796875 C 34.996094 130.347656 35.324219 130.734375 35.867188 130.953125 C 36.417969 131.179688 37.105469 131.210938 37.929688 131.046875 C 38.761719 130.878906 39.386719 130.582031 39.804688 130.15625 C 40.21875 129.738281 40.371094 129.253906 40.257813 128.703125 Z M 41.226563 128.5 C 41.414063 129.40625 41.230469 130.179688 40.679688 130.828125 C 40.136719 131.472656 39.292969 131.910156 38.148438 132.140625 C 37.011719 132.367188 36.0625 132.289063 35.304688 131.90625 C 34.554688 131.53125 34.085938 130.890625 33.898438 129.984375 C 33.71875 129.085938 33.902344 128.316406 34.445313 127.671875 C 34.996094 127.035156 35.839844 126.601563 36.976563 126.375 C 38.121094 126.148438 39.070313 126.21875 39.820313 126.59375 C 40.578125 126.96875 41.046875 127.601563 41.226563 128.5 Z M 41.679688 135.714844 C 41.574219 135.171875 41.246094 134.785156 40.695313 134.558594 C 40.152344 134.339844 39.460938 134.3125 38.617188 134.480469 C 37.78125 134.644531 37.164063 134.9375 36.757813 135.355469 C 36.351563 135.78125 36.199219 136.265625 36.304688 136.808594 C 36.417969 137.359375 36.746094 137.746094 37.289063 137.964844 C 37.839844 138.191406 38.527344 138.222656 39.351563 138.058594 C 40.183594 137.890625 40.808594 137.59375 41.226563 137.167969 C 41.640625 136.75 41.792969 136.265625 41.679688 135.714844 Z M 42.648438 135.511719 C 42.835938 136.417969 42.652344 137.191406 42.101563 137.839844 C 41.558594 138.484375 40.714844 138.921875 39.570313 139.152344 C 38.433594 139.378906 37.484375 139.300781 36.726563 138.917969 C 35.976563 138.542969 35.507813 137.902344 35.320313 136.996094 C 35.140625 136.097656 35.324219 135.328125 35.867188 134.683594 C 36.417969 134.046875 37.261719 133.613281 38.398438 133.386719 C 39.542969 133.160156 40.492188 133.230469 41.242188 133.605469 C 42 133.980469 42.46875 134.613281 42.648438 135.511719 Z M 46.117188 139.242188 L 46.398438 140.257813 L 40.773438 141.789063 L 44.539063 143.992188 L 44.898438 145.304688 L 40.789063 142.898438 L 38.070313 147.304688 L 37.726563 145.992188 L 40.210938 141.945313 L 36.867188 142.851563 L 36.585938 141.835938 Z M 49.488281 155.875 L 48.175781 156.234375 C 48.464844 155.753906 48.648438 155.273438 48.722656 154.796875 C 48.792969 154.316406 48.769531 153.84375 48.644531 153.375 C 48.382813 152.425781 47.867188 151.789063 47.097656 151.46875 C 46.324219 151.144531 45.335938 151.148438 44.128906 151.484375 C 42.929688 151.816406 42.074219 152.316406 41.566406 152.984375 C 41.066406 153.648438 40.945313 154.457031 41.207031 155.40625 C 41.332031 155.875 41.542969 156.296875 41.847656 156.671875 C 42.160156 157.046875 42.554688 157.367188 43.035156 157.640625 L 41.753906 158 C 41.347656 157.695313 41.007813 157.34375 40.738281 156.9375 C 40.476563 156.539063 40.285156 156.101563 40.160156 155.625 C 39.816406 154.363281 39.964844 153.265625 40.613281 152.328125 C 41.269531 151.390625 42.332031 150.71875 43.800781 150.3125 C 45.269531 149.90625 46.523438 149.945313 47.566406 150.421875 C 48.617188 150.902344 49.316406 151.769531 49.660156 153.03125 C 49.792969 153.519531 49.847656 154 49.816406 154.46875 C 49.785156 154.9375 49.675781 155.40625 49.488281 155.875 Z M 47.066406 163.851563 L 42.925781 164.992188 L 42.644531 163.992188 L 46.738281 162.867188 C 47.394531 162.6875 47.851563 162.4375 48.113281 162.117188 C 48.371094 161.792969 48.441406 161.40625 48.316406 160.960938 C 48.167969 160.417969 47.855469 160.039063 47.378906 159.820313 C 46.910156 159.609375 46.335938 159.601563 45.660156 159.789063 L 41.785156 160.851563 L 41.503906 159.835938 L 51.035156 157.226563 L 51.316406 158.242188 L 47.566406 159.273438 C 48.042969 159.398438 48.429688 159.59375 48.722656 159.867188 C 49.011719 160.136719 49.222656 160.484375 49.347656 160.914063 C 49.535156 161.621094 49.433594 162.226563 49.050781 162.726563 C 48.675781 163.226563 48.011719 163.601563 47.066406 163.851563 Z M 47.699219 168.898438 C 47.46875 168.074219 47.203125 167.53125 46.902344 167.273438 C 46.609375 167.011719 46.214844 166.949219 45.714844 167.085938 C 45.328125 167.1875 45.046875 167.390625 44.871094 167.695313 C 44.691406 167.996094 44.660156 168.355469 44.777344 168.773438 C 44.933594 169.335938 45.277344 169.71875 45.808594 169.929688 C 46.339844 170.148438 46.96875 170.15625 47.699219 169.960938 L 47.964844 169.898438 Z M 48.714844 170.773438 L 44.792969 171.851563 L 44.511719 170.835938 L 45.558594 170.554688 C 45.078125 170.4375 44.6875 170.234375 44.386719 169.945313 C 44.09375 169.652344 43.878906 169.257813 43.746094 168.757813 C 43.566406 168.121094 43.628906 167.558594 43.933594 167.070313 C 44.234375 166.589844 44.707031 166.261719 45.355469 166.085938 C 46.136719 165.878906 46.78125 165.953125 47.292969 166.304688 C 47.8125 166.65625 48.199219 167.296875 48.449219 168.226563 L 48.839844 169.648438 L 48.964844 169.617188 C 49.472656 169.480469 49.828125 169.21875 50.027344 168.835938 C 50.234375 168.449219 50.265625 167.980469 50.121094 167.429688 C 50.015625 167.074219 49.871094 166.742188 49.683594 166.429688 C 49.496094 166.125 49.265625 165.847656 48.996094 165.585938 L 50.042969 165.289063 C 50.300781 165.625 50.515625 165.953125 50.683594 166.273438 C 50.859375 166.605469 50.996094 166.933594 51.089844 167.257813 C 51.328125 168.152344 51.25 168.890625 50.855469 169.476563 C 50.46875 170.058594 49.753906 170.492188 48.714844 170.773438 Z M 50.921875 177.925781 L 46.78125 179.066406 L 46.5 178.066406 L 50.59375 176.941406 C 51.25 176.761719 51.707031 176.511719 51.96875 176.191406 C 52.226563 175.867188 52.296875 175.480469 52.171875 175.035156 C 52.023438 174.492188 51.710938 174.113281 51.234375 173.894531 C 50.765625 173.683594 50.191406 173.675781 49.515625 173.863281 L 45.640625 174.925781 L 45.359375 173.910156 L 52.21875 172.035156 L 52.5 173.050781 L 51.421875 173.347656 C 51.898438 173.472656 52.285156 173.667969 52.578125 173.941406 C 52.867188 174.210938 53.078125 174.558594 53.203125 174.988281 C 53.390625 175.695313 53.289063 176.300781 52.90625 176.800781 C 52.53125 177.300781 51.867188 177.675781 50.921875 177.925781 Z M 52.882813 185.085938 L 48.742188 186.226563 L 48.460938 185.226563 L 52.554688 184.101563 C 53.210938 183.921875 53.667969 183.671875 53.929688 183.351563 C 54.1875 183.027344 54.257813 182.640625 54.132813 182.195313 C 53.984375 181.652344 53.671875 181.273438 53.195313 181.054688 C 52.726563 180.84375 52.152344 180.835938 51.476563 181.023438 L 47.601563 182.085938 L 47.320313 181.070313 L 54.179688 179.195313 L 54.460938 180.210938 L 53.382813 180.507813 C 53.859375 180.632813 54.246094 180.828125 54.539063 181.101563 C 54.828125 181.371094 55.039063 181.71875 55.164063 182.148438 C 55.351563 182.855469 55.25 183.460938 54.867188 183.960938 C 54.492188 184.460938 53.828125 184.835938 52.882813 185.085938 Z M 54.433594 192.523438 L 53.902344 192.679688 L 52.621094 188.007813 C 51.847656 188.265625 51.3125 188.636719 51.011719 189.117188 C 50.707031 189.605469 50.652344 190.1875 50.839844 190.867188 C 50.941406 191.25 51.09375 191.609375 51.292969 191.945313 C 51.5 192.289063 51.765625 192.609375 52.089844 192.914063 L 51.011719 193.210938 C 50.738281 192.886719 50.503906 192.546875 50.308594 192.195313 C 50.109375 191.839844 49.957031 191.464844 49.855469 191.070313 C 49.582031 190.078125 49.6875 189.210938 50.167969 188.460938 C 50.65625 187.71875 51.441406 187.199219 52.527344 186.898438 C 53.652344 186.597656 54.613281 186.628906 55.417969 186.992188 C 56.230469 187.355469 56.761719 187.996094 57.011719 188.914063 C 57.238281 189.746094 57.125 190.484375 56.667969 191.132813 C 56.207031 191.777344 55.464844 192.242188 54.433594 192.523438 Z M 54.480469 191.398438 C 55.09375 191.230469 55.546875 190.949219 55.839844 190.554688 C 56.128906 190.15625 56.207031 189.703125 56.074219 189.195313 C 55.917969 188.621094 55.609375 188.214844 55.152344 187.976563 C 54.703125 187.734375 54.152344 187.679688 53.496094 187.804688 Z M 60.726563 192.597656 L 60.992188 193.613281 L 51.460938 196.222656 L 51.195313 195.207031 Z M 60.726563 192.597656 "/>
</g>
</svg>

