<?xml version="1.0" encoding="UTF-8"?>
<svg xmlns="http://www.w3.org/2000/svg" xmlns:xlink="http://www.w3.org/1999/xlink" width="256pt" height="256pt" viewBox="0 0 256 256" version="1.1">
<g id="surface2">
<rect x="0" y="0" width="256" height="256" style="fill:rgb(94.901961%,93.72549%,91.372549%);fill-opacity:1;stroke:none;"/>
<path style="fill:none;stroke-width:8;stroke-linecap:round;stroke-linejoin:round;stroke:rgb(75.686275%,70.980392%,61.568627%);stroke-opacity:1;stroke-miterlimit:10;" d="M 40.765625 7.871094 L 44.796875 -4.785156 L 46.535156 -9 "/>
<path style="fill:none;stroke-width:8;stroke-linecap:round;stroke-linejoin:round;stroke:rgb(75.686275%,70.980392%,61.568627%);stroke-opacity:1;stroke-miterlimit:10;" d="M 41.792969 35.738281 L -9 29.96875 "/>
<path style="fill:none;stroke-width:8;stroke-linecap:round;stroke-linejoin:round;stroke:rgb(75.686275%,70.980392%,61.568627%);stroke-opacity:1;stroke-miterlimit:10;" d="M 62.996094 97.519531 L 52.371094 87.707031 L 46.242188 79.597656 L 44.191406 74.953125 L 42.582031 65.730469 L 42.28125 62.882813 L 41.769531 47.578125 L 41.792969 35.738281 L 41.835938 21.183594 L 40.765625 7.871094 L 39.523438 -9 "/>
<path style="fill:none;stroke-width:9;stroke-linecap:round;stroke-linejoin:round;stroke:rgb(75.686275%,70.980392%,61.568627%);stroke-opacity:1;stroke-miterlimit:10;" d="M -10 179.515625 L 13.898438 146.414063 L 26.691406 131.632813 L 35.640625 122.539063 L 42.164063 116.226563 L 62.996094 97.519531 L 185.992188 -10 "/>
<path style="fill:none;stroke-width:6;stroke-linecap:round;stroke-linejoin:round;stroke:rgb(100%,100%,100%);stroke-opacity:1;stroke-miterlimit:10;" d="M 40.765625 7.871094 L 44.796875 -4.785156 L 46.535156 -9 "/>
<path style="fill:none;stroke-width:6;stroke-linecap:round;stroke-linejoin:round;stroke:rgb(100%,100%,100%);stroke-opacity:1;stroke-miterlimit:10;" d="M 41.792969 35.738281 L -9 29.96875 "/>
<path style="fill:none;stroke-width:6;stroke-linecap:round;stroke-linejoin:round;stroke:rgb(100%,100%,100%);stroke-opacity:1;stroke-miterlimit:10;" d="M 62.996094 97.519531 L 52.371094 87.707031 L 46.242188 79.597656 L 44.191406 74.953125 L 42.582031 65.730469 L 42.28125 62.882813 L 41.769531 47.578125 L 41.792969 35.738281 L 41.835938 21.183594 L 40.765625 7.871094 L 39.523438 -9 "/>
<path style="fill:none;stroke-width:7;stroke-linecap:round;stroke-linejoin:round;stroke:rgb(100%,99.215686%,54.509804%);stroke-opacity:1;stroke-miterlimit:10;" d="M -10 179.515625 L 13.898438 146.414063 L 26.691406 131.632813 L 35.640625 122.539063 L 42.164063 116.226563 L 62.996094 97.519531 L 185.992188 -10 "/>
<path style="fill:none;stroke-width:3;stroke-linecap:round;stroke-linejoin:round;stroke:rgb(100%,100%,100%);stroke-opacity:1;stroke-miterlimit:10;" d="M 51.324219 102.671875 L 52.089844 103.53125 C 51.652344 103.648438 51.269531 103.78125 50.933594 103.9375 C 50.589844 104.09375 50.292969 104.28125 50.042969 104.5 C 49.605469 104.898438 49.355469 105.292969 49.292969 105.6875 C 49.230469 106.085938 49.355469 106.453125 49.667969 106.796875 C 49.929688 107.089844 50.207031 107.242188 50.496094 107.25 C 50.777344 107.25 51.175781 107.101563 51.683594 106.796875 L 52.261719 106.484375 C 52.96875 106.078125 53.605469 105.90625 54.167969 105.96875 C 54.730469 106.03125 55.246094 106.328125 55.714844 106.859375 C 56.285156 107.496094 56.527344 108.148438 56.433594 108.8125 C 56.347656 109.46875 55.9375 110.132813 55.199219 110.796875 C 54.917969 111.046875 54.589844 111.277344 54.214844 111.484375 C 53.847656 111.695313 53.4375 111.875 52.980469 112.03125 L 52.167969 111.125 C 52.667969 111.054688 53.113281 110.929688 53.511719 110.75 C 53.917969 110.5625 54.265625 110.339844 54.558594 110.078125 C 55.015625 109.664063 55.277344 109.246094 55.339844 108.828125 C 55.410156 108.414063 55.28125 108.023438 54.949219 107.65625 C 54.667969 107.34375 54.355469 107.179688 54.011719 107.15625 C 53.675781 107.125 53.265625 107.25 52.777344 107.53125 L 52.199219 107.859375 C 51.503906 108.257813 50.898438 108.433594 50.386719 108.390625 C 49.867188 108.351563 49.382813 108.078125 48.933594 107.578125 C 48.414063 106.996094 48.191406 106.375 48.261719 105.71875 C 48.324219 105.0625 48.675781 104.453125 49.308594 103.890625 C 49.589844 103.640625 49.902344 103.414063 50.246094 103.203125 C 50.582031 102.996094 50.941406 102.820313 51.324219 102.671875 Z M 53.632813 100.648438 L 54.867188 102.039063 L 56.367188 100.710938 L 56.929688 101.335938 L 55.429688 102.664063 L 57.820313 105.304688 C 58.171875 105.703125 58.449219 105.914063 58.648438 105.945313 C 58.84375 105.96875 59.09375 105.84375 59.398438 105.570313 L 60.148438 104.914063 L 60.757813 105.585938 L 60.007813 106.242188 C 59.453125 106.742188 58.964844 106.972656 58.539063 106.929688 C 58.121094 106.890625 57.644531 106.566406 57.101563 105.960938 L 54.710938 103.320313 L 54.179688 103.789063 L 53.617188 103.164063 L 54.148438 102.695313 L 52.914063 101.304688 Z M 61.484375 100.492188 C 60.914063 101.015625 60.578125 101.453125 60.484375 101.804688 C 60.382813 102.148438 60.492188 102.503906 60.8125 102.867188 C 61.070313 103.148438 61.359375 103.300781 61.671875 103.320313 C 61.992188 103.332031 62.304688 103.203125 62.609375 102.929688 C 63.003906 102.578125 63.175781 102.132813 63.125 101.601563 C 63.082031 101.070313 62.828125 100.539063 62.359375 100.007813 L 62.203125 99.835938 Z M 62.640625 98.851563 L 65.140625 101.648438 L 64.40625 102.289063 L 63.734375 101.539063 C 63.847656 101.988281 63.84375 102.394531 63.71875 102.757813 C 63.59375 103.125 63.351563 103.46875 63 103.789063 C 62.550781 104.195313 62.066406 104.378906 61.546875 104.335938 C 61.035156 104.285156 60.570313 104.023438 60.140625 103.554688 C 59.652344 103.003906 59.449219 102.441406 59.53125 101.867188 C 59.605469 101.296875 59.976563 100.710938 60.640625 100.117188 L 61.640625 99.210938 L 61.5625 99.132813 C 61.226563 98.757813 60.867188 98.570313 60.46875 98.570313 C 60.0625 98.5625 59.664063 98.734375 59.265625 99.085938 C 59.015625 99.316406 58.808594 99.578125 58.640625 99.867188 C 58.464844 100.148438 58.324219 100.453125 58.21875 100.773438 L 57.546875 100.039063 C 57.714844 99.675781 57.898438 99.359375 58.09375 99.085938 C 58.292969 98.804688 58.511719 98.5625 58.75 98.351563 C 59.386719 97.78125 60.027344 97.535156 60.671875 97.617188 C 61.316406 97.703125 61.972656 98.113281 62.640625 98.851563 Z M 61.765625 93.378906 L 62.984375 94.785156 L 64.484375 93.472656 L 65.046875 94.113281 L 63.546875 95.425781 L 65.890625 98.097656 C 66.242188 98.503906 66.515625 98.722656 66.703125 98.753906 C 66.898438 98.777344 67.15625 98.652344 67.46875 98.378906 L 68.21875 97.722656 L 68.8125 98.410156 L 68.0625 99.066406 C 67.5 99.566406 67.003906 99.796875 66.578125 99.753906 C 66.148438 99.703125 65.671875 99.371094 65.140625 98.753906 L 62.796875 96.082031 L 62.265625 96.535156 L 61.703125 95.894531 L 62.234375 95.441406 L 61.015625 94.035156 Z M 71.246094 91.578125 L 71.574219 91.96875 L 68.214844 94.90625 C 68.746094 95.449219 69.269531 95.746094 69.792969 95.796875 C 70.3125 95.851563 70.8125 95.664063 71.292969 95.234375 C 71.574219 94.996094 71.8125 94.726563 72.011719 94.421875 C 72.21875 94.121094 72.386719 93.773438 72.511719 93.375 L 73.183594 94.15625 C 73.027344 94.5 72.832031 94.828125 72.605469 95.140625 C 72.386719 95.445313 72.136719 95.71875 71.855469 95.96875 C 71.144531 96.585938 70.386719 96.84375 69.574219 96.75 C 68.761719 96.65625 68.011719 96.21875 67.324219 95.4375 C 66.628906 94.625 66.269531 93.8125 66.246094 93 C 66.214844 92.179688 66.539063 91.476563 67.214844 90.890625 C 67.808594 90.371094 68.464844 90.171875 69.183594 90.296875 C 69.910156 90.414063 70.597656 90.839844 71.246094 91.578125 Z M 70.277344 91.96875 C 69.890625 91.53125 69.46875 91.277344 69.011719 91.203125 C 68.566406 91.132813 68.164063 91.257813 67.808594 91.578125 C 67.394531 91.933594 67.179688 92.351563 67.167969 92.828125 C 67.160156 93.296875 67.332031 93.777344 67.683594 94.265625 Z M 71.605469 84.328125 L 72.402344 83.625 L 74.777344 86.34375 L 77.699219 83.796875 L 75.324219 81.078125 L 76.121094 80.390625 L 81.886719 86.984375 L 81.089844 87.671875 L 78.339844 84.53125 L 75.417969 87.078125 L 78.167969 90.21875 L 77.371094 90.921875 Z M 79.144531 80.671875 L 79.878906 80.03125 L 84.191406 84.96875 L 83.457031 85.609375 Z M 77.457031 78.734375 L 78.191406 78.09375 L 79.097656 79.140625 L 78.363281 79.78125 Z M 86.417969 78.539063 C 85.90625 77.957031 85.402344 77.601563 84.902344 77.476563 C 84.402344 77.34375 83.960938 77.445313 83.574219 77.789063 C 83.179688 78.132813 83.011719 78.566406 83.074219 79.085938 C 83.136719 79.597656 83.425781 80.144531 83.933594 80.726563 C 84.457031 81.320313 84.964844 81.679688 85.464844 81.804688 C 85.964844 81.929688 86.410156 81.820313 86.808594 81.476563 C 87.191406 81.132813 87.355469 80.707031 87.292969 80.195313 C 87.230469 79.6875 86.9375 79.132813 86.417969 78.539063 Z M 88.839844 79.835938 C 89.566406 80.671875 89.941406 81.441406 89.964844 82.148438 C 89.984375 82.847656 89.652344 83.5 88.964844 84.101563 C 88.703125 84.328125 88.441406 84.523438 88.183594 84.679688 C 87.921875 84.835938 87.644531 84.964844 87.355469 85.070313 L 86.667969 84.273438 C 86.988281 84.222656 87.28125 84.140625 87.542969 84.023438 C 87.800781 83.898438 88.046875 83.742188 88.277344 83.554688 C 88.746094 83.128906 88.972656 82.671875 88.964844 82.179688 C 88.964844 81.691406 88.71875 81.164063 88.230469 80.601563 L 87.871094 80.195313 C 87.984375 80.625 87.984375 81.015625 87.871094 81.367188 C 87.765625 81.710938 87.546875 82.03125 87.214844 82.320313 C 86.671875 82.800781 86.03125 82.957031 85.292969 82.789063 C 84.554688 82.613281 83.851563 82.144531 83.183594 81.382813 C 82.527344 80.625 82.164063 79.867188 82.089844 79.117188 C 82.019531 78.359375 82.253906 77.738281 82.792969 77.257813 C 83.128906 76.96875 83.476563 76.796875 83.839844 76.742188 C 84.195313 76.679688 84.574219 76.726563 84.980469 76.882813 L 84.324219 76.132813 L 85.058594 75.507813 Z M 91.972656 72.898438 L 94.582031 75.882813 L 93.847656 76.523438 L 91.269531 73.570313 C 90.851563 73.101563 90.460938 72.828125 90.097656 72.742188 C 89.722656 72.648438 89.375 72.742188 89.050781 73.023438 C 88.65625 73.378906 88.46875 73.796875 88.488281 74.273438 C 88.5 74.753906 88.71875 75.238281 89.144531 75.726563 L 91.582031 78.507813 L 90.847656 79.148438 L 84.847656 72.273438 L 85.582031 71.632813 L 87.925781 74.335938 C 87.84375 73.878906 87.859375 73.472656 87.972656 73.117188 C 88.089844 72.765625 88.300781 72.453125 88.613281 72.179688 C 89.113281 71.742188 89.652344 71.582031 90.222656 71.695313 C 90.792969 71.8125 91.378906 72.210938 91.972656 72.898438 Z M 91.296875 70.050781 L 92.03125 69.410156 L 96.296875 72.472656 L 93.84375 67.816406 L 94.703125 67.066406 L 98.984375 70.128906 L 96.53125 65.472656 L 97.265625 64.832031 L 100.40625 70.785156 L 99.546875 71.535156 L 95.0625 68.332031 L 97.625 73.222656 L 96.765625 73.972656 Z M 102.523438 64.554688 C 101.9375 65.066406 101.601563 65.5 101.507813 65.851563 C 101.40625 66.207031 101.507813 66.5625 101.820313 66.914063 C 102.078125 67.207031 102.367188 67.363281 102.679688 67.382813 C 103 67.40625 103.308594 67.285156 103.601563 67.023438 C 104.007813 66.679688 104.195313 66.242188 104.164063 65.710938 C 104.132813 65.171875 103.882813 64.628906 103.414063 64.085938 L 103.257813 63.914063 Z M 103.695313 62.929688 L 106.164063 65.757813 L 105.429688 66.398438 L 104.773438 65.648438 C 104.867188 66.085938 104.851563 66.488281 104.726563 66.851563 C 104.601563 67.21875 104.355469 67.554688 103.992188 67.867188 C 103.542969 68.273438 103.058594 68.453125 102.539063 68.398438 C 102.027344 68.335938 101.570313 68.070313 101.164063 67.601563 C 100.675781 67.050781 100.476563 66.488281 100.570313 65.914063 C 100.65625 65.332031 101.03125 64.75 101.695313 64.164063 L 102.710938 63.273438 L 102.632813 63.195313 C 102.296875 62.820313 101.933594 62.632813 101.539063 62.632813 C 101.132813 62.625 100.734375 62.789063 100.335938 63.132813 C 100.085938 63.351563 99.875 63.601563 99.695313 63.882813 C 99.519531 64.164063 99.375 64.472656 99.257813 64.804688 L 98.601563 64.054688 C 98.769531 63.703125 98.957031 63.390625 99.164063 63.117188 C 99.363281 62.835938 99.582031 62.59375 99.820313 62.382813 C 100.46875 61.820313 101.113281 61.585938 101.757813 61.679688 C 102.390625 61.765625 103.039063 62.179688 103.695313 62.929688 Z M 109.90625 63.296875 C 110.21875 64.070313 110.351563 64.632813 110.3125 64.984375 C 110.269531 65.328125 110.082031 65.644531 109.75 65.9375 L 109.171875 66.4375 L 108.578125 65.765625 L 109.015625 65.390625 C 109.210938 65.210938 109.316406 65.027344 109.328125 64.828125 C 109.347656 64.621094 109.253906 64.261719 109.046875 63.75 L 108.859375 63.25 L 102.828125 59.96875 L 103.59375 59.296875 L 108.34375 61.953125 L 106.375 56.859375 L 107.15625 56.1875 Z M 114.480469 52.230469 C 114.9375 51.992188 115.394531 51.925781 115.855469 52.027344 C 116.324219 52.121094 116.746094 52.378906 117.121094 52.792969 C 117.683594 53.449219 117.917969 54.132813 117.824219 54.839844 C 117.738281 55.539063 117.332031 56.210938 116.605469 56.855469 C 116.34375 57.074219 116.058594 57.273438 115.746094 57.449219 C 115.441406 57.628906 115.105469 57.785156 114.730469 57.917969 L 113.980469 57.058594 C 114.324219 57.019531 114.65625 56.917969 114.980469 56.761719 C 115.3125 56.597656 115.621094 56.386719 115.902344 56.136719 C 116.402344 55.699219 116.6875 55.257813 116.761719 54.808594 C 116.84375 54.351563 116.703125 53.910156 116.339844 53.480469 C 115.996094 53.097656 115.605469 52.902344 115.167969 52.902344 C 114.730469 52.902344 114.292969 53.097656 113.855469 53.480469 L 113.167969 54.074219 L 112.527344 53.355469 L 113.246094 52.730469 C 113.644531 52.386719 113.871094 52.035156 113.933594 51.667969 C 113.988281 51.304688 113.871094 50.957031 113.589844 50.621094 C 113.289063 50.289063 112.949219 50.128906 112.574219 50.136719 C 112.199219 50.136719 111.808594 50.320313 111.402344 50.683594 C 111.183594 50.871094 110.976563 51.101563 110.777344 51.371094 C 110.582031 51.644531 110.371094 51.960938 110.152344 52.324219 L 109.464844 51.542969 C 109.695313 51.191406 109.917969 50.871094 110.136719 50.589844 C 110.355469 50.308594 110.585938 50.070313 110.824219 49.871094 C 111.429688 49.332031 112.042969 49.058594 112.667969 49.058594 C 113.292969 49.058594 113.835938 49.320313 114.292969 49.839844 C 114.613281 50.207031 114.792969 50.597656 114.824219 51.011719 C 114.855469 51.429688 114.738281 51.835938 114.480469 52.230469 Z M 114.480469 52.230469 "/>
<path style=" stroke:none;fill-rule:evenodd;fill:rgb(20%,20%,20%);fill-opacity:1;" d="M 51.324219 102.671875 L 52.089844 103.53125 C 51.652344 103.648438 51.269531 103.78125 50.933594 103.9375 C 50.589844 104.09375 50.292969 104.28125 50.042969 104.5 C 49.605469 104.898438 49.355469 105.292969 49.292969 105.6875 C 49.230469 106.085938 49.355469 106.453125 49.667969 106.796875 C 49.929688 107.089844 50.207031 107.242188 50.496094 107.25 C 50.777344 107.25 51.175781 107.101563 51.683594 106.796875 L 52.261719 106.484375 C 52.96875 106.078125 53.605469 105.90625 54.167969 105.96875 C 54.730469 106.03125 55.246094 106.328125 55.714844 106.859375 C 56.285156 107.496094 56.527344 108.148438 56.433594 108.8125 C 56.347656 109.46875 55.9375 110.132813 55.199219 110.796875 C 54.917969 111.046875 54.589844 111.277344 54.214844 111.484375 C 53.847656 111.695313 53.4375 111.875 52.980469 112.03125 L 52.167969 111.125 C 52.667969 111.054688 53.113281 110.929688 53.511719 110.75 C 53.917969 110.5625 54.265625 110.339844 54.558594 110.078125 C 55.015625 109.664063 55.277344 109.246094 55.339844 108.828125 C 55.410156 108.414063 55.28125 108.023438 54.949219 107.65625 C 54.667969 107.34375 54.355469 107.179688 54.011719 107.15625 C 53.675781 107.125 53.265625 107.25 52.777344 107.53125 L 52.199219 107.859375 C 51.503906 108.257813 50.898438 108.433594 50.386719 108.390625 C 49.867188 108.351563 49.382813 108.078125 48.933594 107.578125 C 48.414063 106.996094 48.191406 106.375 48.261719 105.71875 C 48.324219 105.0625 48.675781 104.453125 49.308594 103.890625 C 49.589844 103.640625 49.902344 103.414063 50.246094 103.203125 C 50.582031 102.996094 50.941406 102.820313 51.324219 102.671875 Z M 53.632813 100.648438 L 54.867188 102.039063 L 56.367188 100.710938 L 56.929688 101.335938 L 55.429688 102.664063 L 57.820313 105.304688 C 58.171875 105.703125 58.449219 105.914063 58.648438 105.945313 C 58.84375 105.96875 59.09375 105.84375 59.398438 105.570313 L 60.148438 104.914063 L 60.757813 105.585938 L 60.007813 106.242188 C 59.453125 106.742188 58.964844 106.972656 58.539063 106.929688 C 58.121094 106.890625 57.644531 106.566406 57.101563 105.960938 L 54.710938 103.320313 L 54.179688 103.789063 L 53.617188 103.164063 L 54.148438 102.695313 L 52.914063 101.304688 Z M 61.484375 100.492188 C 60.914063 101.015625 60.578125 101.453125 60.484375 101.804688 C 60.382813 102.148438 60.492188 102.503906 60.8125 102.867188 C 61.070313 103.148438 61.359375 103.300781 61.671875 103.320313 C 61.992188 103.332031 62.304688 103.203125 62.609375 102.929688 C 63.003906 102.578125 63.175781 102.132813 63.125 101.601563 C 63.082031 101.070313 62.828125 100.539063 62.359375 100.007813 L 62.203125 99.835938 Z M 62.640625 98.851563 L 65.140625 101.648438 L 64.40625 102.289063 L 63.734375 101.539063 C 63.847656 101.988281 63.84375 102.394531 63.71875 102.757813 C 63.59375 103.125 63.351563 103.46875 63 103.789063 C 62.550781 104.195313 62.066406 104.378906 61.546875 104.335938 C 61.035156 104.285156 60.570313 104.023438 60.140625 103.554688 C 59.652344 103.003906 59.449219 102.441406 59.53125 101.867188 C 59.605469 101.296875 59.976563 100.710938 60.640625 100.117188 L 61.640625 99.210938 L 61.5625 99.132813 C 61.226563 98.757813 60.867188 98.570313 60.46875 98.570313 C 60.0625 98.5625 59.664063 98.734375 59.265625 99.085938 C 59.015625 99.316406 58.808594 99.578125 58.640625 99.867188 C 58.464844 100.148438 58.324219 100.453125 58.21875 100.773438 L 57.546875 100.039063 C 57.714844 99.675781 57.898438 99.359375 58.09375 99.085938 C 58.292969 98.804688 58.511719 98.5625 58.75 98.351563 C 59.386719 97.78125 60.027344 97.535156 60.671875 97.617188 C 61.316406 97.703125 61.972656 98.113281 62.640625 98.851563 Z M 61.765625 93.378906 L 62.984375 94.785156 L 64.484375 93.472656 L 65.046875 94.113281 L 63.546875 95.425781 L 65.890625 98.097656 C 66.242188 98.503906 66.515625 98.722656 66.703125 98.753906 C 66.898438 98.777344 67.15625 98.652344 67.46875 98.378906 L 68.21875 97.722656 L 68.8125 98.410156 L 68.0625 99.066406 C 67.5 99.566406 67.003906 99.796875 66.578125 99.753906 C 66.148438 99.703125 65.671875 99.371094 65.140625 98.753906 L 62.796875 96.082031 L 62.265625 96.535156 L 61.703125 95.894531 L 62.234375 95.441406 L 61.015625 94.035156 Z M 71.246094 91.578125 L 71.574219 91.96875 L 68.214844 94.90625 C 68.746094 95.449219 69.269531 95.746094 69.792969 95.796875 C 70.3125 95.851563 70.8125 95.664063 71.292969 95.234375 C 71.574219 94.996094 71.8125 94.726563 72.011719 94.421875 C 72.21875 94.121094 72.386719 93.773438 72.511719 93.375 L 73.183594 94.15625 C 73.027344 94.5 72.832031 94.828125 72.605469 95.140625 C 72.386719 95.445313 72.136719 95.71875 71.855469 95.96875 C 71.144531 96.585938 70.386719 96.84375 69.574219 96.75 C 68.761719 96.65625 68.011719 96.21875 67.324219 95.4375 C 66.628906 94.625 66.269531 93.8125 66.246094 93 C 66.214844 92.179688 66.539063 91.476563 67.214844 90.890625 C 67.808594 90.371094 68.464844 90.171875 69.183594 90.296875 C 69.910156 90.414063 70.597656 90.839844 71.246094 91.578125 Z M 70.277344 91.96875 C 69.890625 91.53125 69.46875 91.277344 69.011719 91.203125 C 68.566406 91.132813 68.164063 91.257813 67.808594 91.578125 C 67.394531 91.933594 67.179688 92.351563 67.167969 92.828125 C 67.160156 93.296875 67.332031 93.777344 67.683594 94.265625 Z M 71.605469 84.328125 L 72.402344 83.625 L 74.777344 86.34375 L 77.699219 83.796875 L 75.324219 81.078125 L 76.121094 80.390625 L 81.886719 86.984375 L 81.089844 87.671875 L 78.339844 84.53125 L 75.417969 87.078125 L 78.167969 90.21875 L 77.371094 90.921875 Z M 79.144531 80.671875 L 79.878906 80.03125 L 84.191406 84.96875 L 83.457031 85.609375 Z M 77.457031 78.734375 L 78.191406 78.09375 L 79.097656 79.140625 L 78.363281 79.78125 Z M 86.417969 78.539063 C 85.90625 77.957031 85.402344 77.601563 84.902344 77.476563 C 84.402344 77.34375 83.960938 77.445313 83.574219 77.789063 C 83.179688 78.132813 83.011719 78.566406 83.074219 79.085938 C 83.136719 79.597656 83.425781 80.144531 83.933594 80.726563 C 84.457031 81.320313 84.964844 81.679688 85.464844 81.804688 C 85.964844 81.929688 86.410156 81.820313 86.808594 81.476563 C 87.191406 81.132813 87.355469 80.707031 87.292969 80.195313 C 87.230469 79.6875 86.9375 79.132813 86.417969 78.539063 Z M 88.839844 79.835938 C 89.566406 80.671875 89.941406 81.441406 89.964844 82.148438 C 89.984375 82.847656 89.652344 83.5 88.964844 84.101563 C 88.703125 84.328125 88.441406 84.523438 88.183594 84.679688 C 87.921875 84.835938 87.644531 84.964844 87.355469 85.070313 L 86.667969 84.273438 C 86.988281 84.222656 87.28125 84.140625 87.542969 84.023438 C 87.800781 83.898438 88.046875 83.742188 88.277344 83.554688 C 88.746094 83.128906 88.972656 82.671875 88.964844 82.179688 C 88.964844 81.691406 88.71875 81.164063 88.230469 80.601563 L 87.871094 80.195313 C 87.984375 80.625 87.984375 81.015625 87.871094 81.367188 C 87.765625 81.710938 87.546875 82.03125 87.214844 82.320313 C 86.671875 82.800781 86.03125 82.957031 85.292969 82.789063 C 84.554688 82.613281 83.851563 82.144531 83.183594 81.382813 C 82.527344 80.625 82.164063 79.867188 82.089844 79.117188 C 82.019531 78.359375 82.253906 77.738281 82.792969 77.257813 C 83.128906 76.96875 83.476563 76.796875 83.839844 76.742188 C 84.195313 76.679688 84.574219 76.726563 84.980469 76.882813 L 84.324219 76.132813 L 85.058594 75.507813 Z M 91.972656 72.898438 L 94.582031 75.882813 L 93.847656 76.523438 L 91.269531 73.570313 C 90.851563 73.101563 90.460938 72.828125 90.097656 72.742188 C 89.722656 72.648438 89.375 72.742188 89.050781 73.023438 C 88.65625 73.378906 88.46875 73.796875 88.488281 74.273438 C 88.5 74.753906 88.71875 75.238281 89.144531 75.726563 L 91.582031 78.507813 L 90.847656 79.148438 L 84.847656 72.273438 L 85.582031 71.632813 L 87.925781 74.335938 C 87.84375 73.878906 87.859375 73.472656 87.972656 73.117188 C 88.089844 72.765625 88.300781 72.453125 88.613281 72.179688 C 89.113281 71.742188 89.652344 71.582031 90.222656 71.695313 C 90.792969 71.8125 91.378906 72.210938 91.972656 72.898438 Z M 91.296875 70.050781 L 92.03125 69.410156 L 96.296875 72.472656 L 93.84375 67.816406 L 94.703125 67.066406 L 98.984375 70.128906 L 96.53125 65.472656 L 97.265625 64.832031 L 100.40625 70.785156 L 99.546875 71.535156 L 95.0625 68.332031 L 97.625 73.222656 L 96.765625 73.972656 Z M 102.523438 64.554688 C 101.9375 65.066406 101.601563 65.5 101.507813 65.851563 C 101.40625 66.207031 101.507813 66.5625 101.820313 66.914063 C 102.078125 67.207031 102.367188 67.363281 102.679688 67.382813 C 103 67.40625 103.308594 67.285156 103.601563 67.023438 C 104.007813 66.679688 104.195313 66.242188 104.164063 65.710938 C 104.132813 65.171875 103.882813 64.628906 103.414063 64.085938 L 103.257813 63.914063 Z M 103.695313 62.929688 L 106.164063 65.757813 L 105.429688 66.398438 L 104.773438 65.648438 C 104.867188 66.085938 104.851563 66.488281 104.726563 66.851563 C 104.601563 67.21875 104.355469 67.554688 103.992188 67.867188 C 103.542969 68.273438 103.058594 68.453125 102.539063 68.398438 C 102.027344 68.335938 101.570313 68.070313 101.164063 67.601563 C 100.675781 67.050781 100.476563 66.488281 100.570313 65.914063 C 100.65625 65.332031 101.03125 64.75 101.695313 64.164063 L 102.710938 63.273438 L 102.632813 63.195313 C 102.296875 62.820313 101.933594 62.632813 101.539063 62.632813 C 101.132813 62.625 100.734375 62.789063 100.335938 63.132813 C 100.085938 63.351563 99.875 63.601563 99.695313 63.882813 C 99.519531 64.164063 99.375 64.472656 99.257813 64.804688 L 98.601563 64.054688 C 98.769531 63.703125 98.957031 63.390625 99.164063 63.117188 C 99.363281 62.835938 99.582031 62.59375 99.820313 62.382813 C 100.46875 61.820313 101.113281 61.585938 101.757813 61.679688 C 102.390625 61.765625 103.039063 62.179688 103.695313 62.929688 Z M 109.90625 63.296875 C 110.21875 64.070313 110.351563 64.632813 110.3125 64.984375 C 110.269531 65.328125 110.082031 65.644531 109.75 65.9375 L 109.171875 66.4375 L 108.578125 65.765625 L 109.015625 65.390625 C 109.210938 65.210938 109.316406 65.027344 109.328125 64.828125 C 109.347656 64.621094 109.253906 64.261719 109.046875 63.75 L 108.859375 63.25 L 102.828125 59.96875 L 103.59375 59.296875 L 108.34375 61.953125 L 106.375 56.859375 L 107.15625 56.1875 Z M 114.480469 52.230469 C 114.9375 51.992188 115.394531 51.925781 115.855469 52.027344 C 116.324219 52.121094 116.746094 52.378906 117.121094 52.792969 C 117.683594 53.449219 117.917969 54.132813 117.824219 54.839844 C 117.738281 55.539063 117.332031 56.210938 116.605469 56.855469 C 116.34375 57.074219 116.058594 57.273438 115.746094 57.449219 C 115.441406 57.628906 115.105469 57.785156 114.730469 57.917969 L 113.980469 57.058594 C 114.324219 57.019531 114.65625 56.917969 114.980469 56.761719 C 115.3125 56.597656 115.621094 56.386719 115.902344 56.136719 C 116.402344 55.699219 116.6875 55.257813 116.761719 54.808594 C 116.84375 54.351563 116.703125 53.910156 116.339844 53.480469 C 115.996094 53.097656 115.605469 52.902344 115.167969 52.902344 C 114.730469 52.902344 114.292969 53.097656 113.855469 53.480469 L 113.167969 54.074219 L 112.527344 53.355469 L 113.246094 52.730469 C 113.644531 52.386719 113.871094 52.035156 113.933594 51.667969 C 113.988281 51.304688 113.871094 50.957031 113.589844 50.621094 C 113.289063 50.289063 112.949219 50.128906 112.574219 50.136719 C 112.199219 50.136719 111.808594 50.320313 111.402344 50.683594 C 111.183594 50.871094 110.976563 51.101563 110.777344 51.371094 C 110.582031 51.644531 110.371094 51.960938 110.152344 52.324219 L 109.464844 51.542969 C 109.695313 51.191406 109.917969 50.871094 110.136719 50.589844 C 110.355469 50.308594 110.585938 50.070313 110.824219 49.871094 C 111.429688 49.332031 112.042969 49.058594 112.667969 49.058594 C 113.292969 49.058594 113.835938 49.320313 114.292969 49.839844 C 114.613281 50.207031 114.792969 50.597656 114.824219 51.011719 C 114.855469 51.429688 114.738281 51.835938 114.480469 52.230469 Z M 114.480469 52.230469 "/>
</g>
</svg>

