<?xml version="1.0" encoding="UTF-8"?>
<svg xmlns="http://www.w3.org/2000/svg" xmlns:xlink="http://www.w3.org/1999/xlink" width="256pt" height="256pt" viewBox="0 0 256 256" version="1.1">
<g id="surface2">
<rect x="0" y="0" width="256" height="256" style="fill:rgb(94.901961%,93.72549%,91.372549%);fill-opacity:1;stroke:none;"/>
<path style="fill:none;stroke-width:6;stroke-linecap:round;stroke-linejoin:round;stroke:rgb(60%,70.196078%,80%);stroke-opacity:1;stroke-miterlimit:10;" d="M 76.457031 -7 L 73.554688 2.75 L 26.621094 102.253906 L -7 104.023438 "/>
<path style="fill:none;stroke-width:3;stroke-linecap:round;stroke-linejoin:round;stroke:rgb(100%,100%,100%);stroke-opacity:1;stroke-miterlimit:10;" d="M 30.597656 94.933594 L 33.738281 96.417969 L 34.519531 94.730469 C 34.789063 94.179688 34.855469 93.710938 34.722656 93.324219 C 34.597656 92.929688 34.261719 92.605469 33.722656 92.355469 C 33.191406 92.097656 32.738281 92.042969 32.363281 92.199219 C 31.980469 92.347656 31.652344 92.695313 31.378906 93.246094 Z M 27.082031 93.277344 L 29.660156 94.496094 L 30.394531 92.949219 C 30.636719 92.441406 30.707031 92.011719 30.613281 91.667969 C 30.511719 91.316406 30.238281 91.035156 29.800781 90.824219 C 29.363281 90.617188 28.984375 90.589844 28.660156 90.746094 C 28.339844 90.894531 28.058594 91.222656 27.816406 91.730469 Z M 25.628906 93.855469 L 26.878906 91.199219 C 27.253906 90.398438 27.730469 89.871094 28.300781 89.621094 C 28.875 89.363281 29.5 89.394531 30.175781 89.714844 C 30.699219 89.964844 31.0625 90.273438 31.269531 90.636719 C 31.480469 91.003906 31.519531 91.417969 31.394531 91.886719 C 31.761719 91.417969 32.203125 91.136719 32.722656 91.042969 C 33.246094 90.941406 33.792969 91.023438 34.378906 91.292969 C 35.148438 91.660156 35.628906 92.175781 35.816406 92.839844 C 36.011719 93.507813 35.910156 94.277344 35.503906 95.152344 L 34.207031 97.902344 Z M 32.976563 85.761719 C 32.738281 86.273438 32.769531 86.785156 33.070313 87.292969 C 33.375 87.792969 33.910156 88.226563 34.679688 88.589844 C 35.453125 88.957031 36.128906 89.097656 36.710938 89.011719 C 37.28125 88.917969 37.6875 88.617188 37.929688 88.105469 C 38.167969 87.597656 38.136719 87.089844 37.835938 86.589844 C 37.53125 86.082031 37.003906 85.644531 36.242188 85.277344 C 35.472656 84.925781 34.796875 84.789063 34.210938 84.871094 C 33.628906 84.957031 33.21875 85.253906 32.976563 85.761719 Z M 32.085938 85.339844 C 32.472656 84.507813 33.078125 83.996094 33.898438 83.808594 C 34.710938 83.621094 35.648438 83.777344 36.710938 84.277344 C 37.761719 84.777344 38.476563 85.402344 38.851563 86.152344 C 39.226563 86.902344 39.21875 87.695313 38.835938 88.527344 C 38.4375 89.351563 37.828125 89.863281 37.007813 90.058594 C 36.1875 90.246094 35.25 90.089844 34.195313 89.589844 C 33.132813 89.089844 32.421875 88.464844 32.054688 87.714844 C 31.679688 86.957031 31.691406 86.164063 32.085938 85.339844 Z M 36.796875 78.289063 C 36.683594 78.363281 36.578125 78.457031 36.484375 78.570313 C 36.390625 78.6875 36.308594 78.816406 36.234375 78.960938 C 35.984375 79.503906 35.984375 80.007813 36.234375 80.476563 C 36.484375 80.945313 36.976563 81.351563 37.703125 81.695313 L 41.09375 83.289063 L 40.640625 84.242188 L 34.203125 81.210938 L 34.65625 80.257813 L 35.671875 80.726563 C 35.371094 80.34375 35.203125 79.945313 35.171875 79.539063 C 35.132813 79.132813 35.214844 78.703125 35.421875 78.242188 C 35.453125 78.179688 35.496094 78.113281 35.546875 78.039063 C 35.589844 77.957031 35.640625 77.867188 35.703125 77.773438 Z M 41.582031 73.265625 L 42.082031 73.5 L 40.003906 77.890625 C 40.765625 78.195313 41.417969 78.257813 41.957031 78.078125 C 42.496094 77.902344 42.917969 77.5 43.222656 76.875 C 43.398438 76.5 43.511719 76.121094 43.566406 75.734375 C 43.628906 75.351563 43.644531 74.945313 43.613281 74.515625 L 44.613281 74.984375 C 44.613281 75.390625 44.570313 75.796875 44.488281 76.203125 C 44.402344 76.601563 44.273438 76.980469 44.097656 77.34375 C 43.667969 78.273438 43.027344 78.867188 42.175781 79.125 C 41.3125 79.386719 40.371094 79.277344 39.347656 78.796875 C 38.296875 78.296875 37.589844 77.648438 37.222656 76.84375 C 36.847656 76.03125 36.863281 75.195313 37.269531 74.328125 C 37.644531 73.546875 38.21875 73.0625 38.988281 72.875 C 39.75 72.6875 40.613281 72.820313 41.582031 73.265625 Z M 40.816406 74.09375 C 40.234375 73.824219 39.703125 73.746094 39.222656 73.859375 C 38.746094 73.976563 38.394531 74.265625 38.175781 74.734375 C 37.917969 75.277344 37.878906 75.78125 38.066406 76.25 C 38.253906 76.71875 38.640625 77.125 39.222656 77.46875 Z M 43.796875 69.1875 C 43.433594 69.960938 43.28125 70.542969 43.34375 70.9375 C 43.398438 71.324219 43.65625 71.632813 44.125 71.859375 C 44.492188 72.027344 44.839844 72.054688 45.171875 71.9375 C 45.492188 71.8125 45.742188 71.558594 45.921875 71.171875 C 46.171875 70.640625 46.160156 70.125 45.890625 69.625 C 45.628906 69.117188 45.15625 68.699219 44.46875 68.375 L 44.234375 68.25 Z M 44.25 67.078125 L 47.921875 68.8125 L 47.46875 69.78125 L 46.5 69.328125 C 46.78125 69.714844 46.9375 70.117188 46.96875 70.53125 C 47.007813 70.9375 46.921875 71.375 46.703125 71.84375 C 46.421875 72.4375 46.007813 72.824219 45.46875 73 C 44.929688 73.167969 44.355469 73.109375 43.75 72.828125 C 43.023438 72.484375 42.574219 72.011719 42.40625 71.40625 C 42.242188 70.804688 42.367188 70.070313 42.78125 69.203125 L 43.40625 67.875 L 43.296875 67.8125 C 42.820313 67.585938 42.382813 67.554688 41.984375 67.71875 C 41.578125 67.875 41.25 68.214844 41 68.734375 C 40.84375 69.058594 40.742188 69.398438 40.6875 69.75 C 40.625 70.105469 40.617188 70.46875 40.65625 70.84375 L 39.671875 70.390625 C 39.695313 69.976563 39.746094 69.585938 39.828125 69.21875 C 39.902344 68.855469 40.011719 68.515625 40.15625 68.203125 C 40.554688 67.371094 41.089844 66.859375 41.765625 66.671875 C 42.445313 66.484375 43.273438 66.621094 44.25 67.078125 Z M 44.339844 60.21875 L 45.339844 60.703125 C 45.058594 60.902344 44.816406 61.125 44.605469 61.375 C 44.398438 61.625 44.222656 61.90625 44.074219 62.21875 C 43.855469 62.6875 43.769531 63.085938 43.808594 63.40625 C 43.851563 63.71875 44.035156 63.949219 44.355469 64.09375 C 44.605469 64.210938 44.839844 64.214844 45.058594 64.109375 C 45.277344 64.007813 45.570313 63.730469 45.933594 63.28125 L 46.167969 63 C 46.648438 62.398438 47.101563 62.027344 47.527344 61.890625 C 47.957031 61.746094 48.425781 61.792969 48.949219 62.03125 C 49.550781 62.324219 49.925781 62.761719 50.074219 63.34375 C 50.21875 63.929688 50.113281 64.59375 49.761719 65.34375 C 49.625 65.648438 49.441406 65.953125 49.214844 66.265625 C 48.984375 66.570313 48.714844 66.871094 48.402344 67.171875 L 47.308594 66.65625 C 47.683594 66.398438 48.003906 66.121094 48.261719 65.828125 C 48.519531 65.539063 48.730469 65.226563 48.886719 64.890625 C 49.09375 64.445313 49.167969 64.0625 49.105469 63.75 C 49.050781 63.429688 48.871094 63.195313 48.558594 63.046875 C 48.277344 62.914063 48.019531 62.898438 47.777344 63 C 47.539063 63.105469 47.214844 63.417969 46.808594 63.9375 L 46.558594 64.203125 C 46.144531 64.734375 45.730469 65.070313 45.324219 65.203125 C 44.917969 65.328125 44.464844 65.273438 43.964844 65.03125 C 43.363281 64.75 42.992188 64.339844 42.855469 63.796875 C 42.710938 63.246094 42.804688 62.617188 43.136719 61.90625 C 43.304688 61.5625 43.488281 61.25 43.683594 60.96875 C 43.882813 60.679688 44.101563 60.429688 44.339844 60.21875 Z M 50.761719 52.40625 C 50.949219 52.21875 51.230469 52.085938 51.605469 52 C 51.980469 51.90625 52.460938 51.871094 53.042969 51.890625 L 55.886719 51.9375 L 55.355469 53.0625 L 52.683594 53 C 51.996094 52.980469 51.503906 53.046875 51.199219 53.203125 C 50.898438 53.359375 50.648438 53.648438 50.449219 54.0625 L 49.917969 55.203125 L 53.542969 56.90625 L 53.058594 57.9375 L 44.480469 53.890625 L 45.574219 51.546875 C 45.992188 50.664063 46.511719 50.101563 47.136719 49.859375 C 47.753906 49.621094 48.472656 49.699219 49.292969 50.09375 C 49.835938 50.34375 50.230469 50.667969 50.480469 51.0625 C 50.730469 51.449219 50.824219 51.898438 50.761719 52.40625 Z M 45.933594 53.3125 L 48.964844 54.75 L 49.574219 53.4375 C 49.816406 52.929688 49.867188 52.484375 49.730469 52.109375 C 49.585938 51.726563 49.261719 51.417969 48.761719 51.1875 C 48.261719 50.949219 47.832031 50.898438 47.464844 51.03125 C 47.089844 51.167969 46.785156 51.492188 46.542969 52 Z M 50.054688 47.605469 L 50.507813 46.652344 L 56.945313 49.683594 L 56.492188 50.636719 Z M 47.554688 46.417969 L 48.007813 45.464844 L 49.351563 46.105469 L 48.898438 47.058594 Z M 51.113281 45.351563 L 51.597656 44.351563 L 57.847656 45.085938 L 53.300781 40.726563 L 53.785156 39.710938 L 59.191406 44.929688 L 58.582031 46.210938 Z M 59.707031 34.84375 L 60.207031 35.078125 L 58.128906 39.46875 C 58.890625 39.773438 59.542969 39.835938 60.082031 39.65625 C 60.621094 39.480469 61.042969 39.078125 61.347656 38.453125 C 61.523438 38.078125 61.636719 37.699219 61.691406 37.3125 C 61.753906 36.929688 61.769531 36.523438 61.738281 36.09375 L 62.738281 36.5625 C 62.738281 36.96875 62.695313 37.375 62.613281 37.78125 C 62.527344 38.179688 62.398438 38.558594 62.222656 38.921875 C 61.792969 39.851563 61.152344 40.445313 60.300781 40.703125 C 59.4375 40.964844 58.496094 40.855469 57.472656 40.375 C 56.421875 39.875 55.714844 39.226563 55.347656 38.421875 C 54.972656 37.609375 54.988281 36.773438 55.394531 35.90625 C 55.769531 35.125 56.34375 34.640625 57.113281 34.453125 C 57.875 34.265625 58.738281 34.398438 59.707031 34.84375 Z M 58.941406 35.671875 C 58.359375 35.402344 57.828125 35.324219 57.347656 35.4375 C 56.871094 35.554688 56.519531 35.84375 56.300781 36.3125 C 56.042969 36.855469 56.003906 37.359375 56.191406 37.828125 C 56.378906 38.296875 56.765625 38.703125 57.347656 39.046875 Z M 60.046875 29 C 59.933594 29.074219 59.828125 29.167969 59.734375 29.28125 C 59.640625 29.398438 59.558594 29.527344 59.484375 29.671875 C 59.234375 30.214844 59.234375 30.71875 59.484375 31.1875 C 59.734375 31.65625 60.226563 32.0625 60.953125 32.40625 L 64.34375 34 L 63.890625 34.953125 L 57.453125 31.921875 L 57.90625 30.96875 L 58.921875 31.4375 C 58.621094 31.054688 58.453125 30.65625 58.421875 30.25 C 58.382813 29.84375 58.464844 29.414063 58.671875 28.953125 C 58.703125 28.890625 58.746094 28.824219 58.796875 28.75 C 58.839844 28.667969 58.890625 28.578125 58.953125 28.484375 Z M 60.046875 29 "/>
<path style=" stroke:none;fill-rule:evenodd;fill:rgb(41.960784%,58.039216%,69.019608%);fill-opacity:1;" d="M 30.597656 94.933594 L 33.738281 96.417969 L 34.519531 94.730469 C 34.789063 94.179688 34.855469 93.710938 34.722656 93.324219 C 34.597656 92.929688 34.261719 92.605469 33.722656 92.355469 C 33.191406 92.097656 32.738281 92.042969 32.363281 92.199219 C 31.980469 92.347656 31.652344 92.695313 31.378906 93.246094 Z M 27.082031 93.277344 L 29.660156 94.496094 L 30.394531 92.949219 C 30.636719 92.441406 30.707031 92.011719 30.613281 91.667969 C 30.511719 91.316406 30.238281 91.035156 29.800781 90.824219 C 29.363281 90.617188 28.984375 90.589844 28.660156 90.746094 C 28.339844 90.894531 28.058594 91.222656 27.816406 91.730469 Z M 25.628906 93.855469 L 26.878906 91.199219 C 27.253906 90.398438 27.730469 89.871094 28.300781 89.621094 C 28.875 89.363281 29.5 89.394531 30.175781 89.714844 C 30.699219 89.964844 31.0625 90.273438 31.269531 90.636719 C 31.480469 91.003906 31.519531 91.417969 31.394531 91.886719 C 31.761719 91.417969 32.203125 91.136719 32.722656 91.042969 C 33.246094 90.941406 33.792969 91.023438 34.378906 91.292969 C 35.148438 91.660156 35.628906 92.175781 35.816406 92.839844 C 36.011719 93.507813 35.910156 94.277344 35.503906 95.152344 L 34.207031 97.902344 Z M 32.976563 85.761719 C 32.738281 86.273438 32.769531 86.785156 33.070313 87.292969 C 33.375 87.792969 33.910156 88.226563 34.679688 88.589844 C 35.453125 88.957031 36.128906 89.097656 36.710938 89.011719 C 37.28125 88.917969 37.6875 88.617188 37.929688 88.105469 C 38.167969 87.597656 38.136719 87.089844 37.835938 86.589844 C 37.53125 86.082031 37.003906 85.644531 36.242188 85.277344 C 35.472656 84.925781 34.796875 84.789063 34.210938 84.871094 C 33.628906 84.957031 33.21875 85.253906 32.976563 85.761719 Z M 32.085938 85.339844 C 32.472656 84.507813 33.078125 83.996094 33.898438 83.808594 C 34.710938 83.621094 35.648438 83.777344 36.710938 84.277344 C 37.761719 84.777344 38.476563 85.402344 38.851563 86.152344 C 39.226563 86.902344 39.21875 87.695313 38.835938 88.527344 C 38.4375 89.351563 37.828125 89.863281 37.007813 90.058594 C 36.1875 90.246094 35.25 90.089844 34.195313 89.589844 C 33.132813 89.089844 32.421875 88.464844 32.054688 87.714844 C 31.679688 86.957031 31.691406 86.164063 32.085938 85.339844 Z M 36.796875 78.289063 C 36.683594 78.363281 36.578125 78.457031 36.484375 78.570313 C 36.390625 78.6875 36.308594 78.816406 36.234375 78.960938 C 35.984375 79.503906 35.984375 80.007813 36.234375 80.476563 C 36.484375 80.945313 36.976563 81.351563 37.703125 81.695313 L 41.09375 83.289063 L 40.640625 84.242188 L 34.203125 81.210938 L 34.65625 80.257813 L 35.671875 80.726563 C 35.371094 80.34375 35.203125 79.945313 35.171875 79.539063 C 35.132813 79.132813 35.214844 78.703125 35.421875 78.242188 C 35.453125 78.179688 35.496094 78.113281 35.546875 78.039063 C 35.589844 77.957031 35.640625 77.867188 35.703125 77.773438 Z M 41.582031 73.265625 L 42.082031 73.5 L 40.003906 77.890625 C 40.765625 78.195313 41.417969 78.257813 41.957031 78.078125 C 42.496094 77.902344 42.917969 77.5 43.222656 76.875 C 43.398438 76.5 43.511719 76.121094 43.566406 75.734375 C 43.628906 75.351563 43.644531 74.945313 43.613281 74.515625 L 44.613281 74.984375 C 44.613281 75.390625 44.570313 75.796875 44.488281 76.203125 C 44.402344 76.601563 44.273438 76.980469 44.097656 77.34375 C 43.667969 78.273438 43.027344 78.867188 42.175781 79.125 C 41.3125 79.386719 40.371094 79.277344 39.347656 78.796875 C 38.296875 78.296875 37.589844 77.648438 37.222656 76.84375 C 36.847656 76.03125 36.863281 75.195313 37.269531 74.328125 C 37.644531 73.546875 38.21875 73.0625 38.988281 72.875 C 39.75 72.6875 40.613281 72.820313 41.582031 73.265625 Z M 40.816406 74.09375 C 40.234375 73.824219 39.703125 73.746094 39.222656 73.859375 C 38.746094 73.976563 38.394531 74.265625 38.175781 74.734375 C 37.917969 75.277344 37.878906 75.78125 38.066406 76.25 C 38.253906 76.71875 38.640625 77.125 39.222656 77.46875 Z M 43.796875 69.1875 C 43.433594 69.960938 43.28125 70.542969 43.34375 70.9375 C 43.398438 71.324219 43.65625 71.632813 44.125 71.859375 C 44.492188 72.027344 44.839844 72.054688 45.171875 71.9375 C 45.492188 71.8125 45.742188 71.558594 45.921875 71.171875 C 46.171875 70.640625 46.160156 70.125 45.890625 69.625 C 45.628906 69.117188 45.15625 68.699219 44.46875 68.375 L 44.234375 68.25 Z M 44.25 67.078125 L 47.921875 68.8125 L 47.46875 69.78125 L 46.5 69.328125 C 46.78125 69.714844 46.9375 70.117188 46.96875 70.53125 C 47.007813 70.9375 46.921875 71.375 46.703125 71.84375 C 46.421875 72.4375 46.007813 72.824219 45.46875 73 C 44.929688 73.167969 44.355469 73.109375 43.75 72.828125 C 43.023438 72.484375 42.574219 72.011719 42.40625 71.40625 C 42.242188 70.804688 42.367188 70.070313 42.78125 69.203125 L 43.40625 67.875 L 43.296875 67.8125 C 42.820313 67.585938 42.382813 67.554688 41.984375 67.71875 C 41.578125 67.875 41.25 68.214844 41 68.734375 C 40.84375 69.058594 40.742188 69.398438 40.6875 69.75 C 40.625 70.105469 40.617188 70.46875 40.65625 70.84375 L 39.671875 70.390625 C 39.695313 69.976563 39.746094 69.585938 39.828125 69.21875 C 39.902344 68.855469 40.011719 68.515625 40.15625 68.203125 C 40.554688 67.371094 41.089844 66.859375 41.765625 66.671875 C 42.445313 66.484375 43.273438 66.621094 44.25 67.078125 Z M 44.339844 60.21875 L 45.339844 60.703125 C 45.058594 60.902344 44.816406 61.125 44.605469 61.375 C 44.398438 61.625 44.222656 61.90625 44.074219 62.21875 C 43.855469 62.6875 43.769531 63.085938 43.808594 63.40625 C 43.851563 63.71875 44.035156 63.949219 44.355469 64.09375 C 44.605469 64.210938 44.839844 64.214844 45.058594 64.109375 C 45.277344 64.007813 45.570313 63.730469 45.933594 63.28125 L 46.167969 63 C 46.648438 62.398438 47.101563 62.027344 47.527344 61.890625 C 47.957031 61.746094 48.425781 61.792969 48.949219 62.03125 C 49.550781 62.324219 49.925781 62.761719 50.074219 63.34375 C 50.21875 63.929688 50.113281 64.59375 49.761719 65.34375 C 49.625 65.648438 49.441406 65.953125 49.214844 66.265625 C 48.984375 66.570313 48.714844 66.871094 48.402344 67.171875 L 47.308594 66.65625 C 47.683594 66.398438 48.003906 66.121094 48.261719 65.828125 C 48.519531 65.539063 48.730469 65.226563 48.886719 64.890625 C 49.09375 64.445313 49.167969 64.0625 49.105469 63.75 C 49.050781 63.429688 48.871094 63.195313 48.558594 63.046875 C 48.277344 62.914063 48.019531 62.898438 47.777344 63 C 47.539063 63.105469 47.214844 63.417969 46.808594 63.9375 L 46.558594 64.203125 C 46.144531 64.734375 45.730469 65.070313 45.324219 65.203125 C 44.917969 65.328125 44.464844 65.273438 43.964844 65.03125 C 43.363281 64.75 42.992188 64.339844 42.855469 63.796875 C 42.710938 63.246094 42.804688 62.617188 43.136719 61.90625 C 43.304688 61.5625 43.488281 61.25 43.683594 60.96875 C 43.882813 60.679688 44.101563 60.429688 44.339844 60.21875 Z M 50.761719 52.40625 C 50.949219 52.21875 51.230469 52.085938 51.605469 52 C 51.980469 51.90625 52.460938 51.871094 53.042969 51.890625 L 55.886719 51.9375 L 55.355469 53.0625 L 52.683594 53 C 51.996094 52.980469 51.503906 53.046875 51.199219 53.203125 C 50.898438 53.359375 50.648438 53.648438 50.449219 54.0625 L 49.917969 55.203125 L 53.542969 56.90625 L 53.058594 57.9375 L 44.480469 53.890625 L 45.574219 51.546875 C 45.992188 50.664063 46.511719 50.101563 47.136719 49.859375 C 47.753906 49.621094 48.472656 49.699219 49.292969 50.09375 C 49.835938 50.34375 50.230469 50.667969 50.480469 51.0625 C 50.730469 51.449219 50.824219 51.898438 50.761719 52.40625 Z M 45.933594 53.3125 L 48.964844 54.75 L 49.574219 53.4375 C 49.816406 52.929688 49.867188 52.484375 49.730469 52.109375 C 49.585938 51.726563 49.261719 51.417969 48.761719 51.1875 C 48.261719 50.949219 47.832031 50.898438 47.464844 51.03125 C 47.089844 51.167969 46.785156 51.492188 46.542969 52 Z M 50.054688 47.605469 L 50.507813 46.652344 L 56.945313 49.683594 L 56.492188 50.636719 Z M 47.554688 46.417969 L 48.007813 45.464844 L 49.351563 46.105469 L 48.898438 47.058594 Z M 51.113281 45.351563 L 51.597656 44.351563 L 57.847656 45.085938 L 53.300781 40.726563 L 53.785156 39.710938 L 59.191406 44.929688 L 58.582031 46.210938 Z M 59.707031 34.84375 L 60.207031 35.078125 L 58.128906 39.46875 C 58.890625 39.773438 59.542969 39.835938 60.082031 39.65625 C 60.621094 39.480469 61.042969 39.078125 61.347656 38.453125 C 61.523438 38.078125 61.636719 37.699219 61.691406 37.3125 C 61.753906 36.929688 61.769531 36.523438 61.738281 36.09375 L 62.738281 36.5625 C 62.738281 36.96875 62.695313 37.375 62.613281 37.78125 C 62.527344 38.179688 62.398438 38.558594 62.222656 38.921875 C 61.792969 39.851563 61.152344 40.445313 60.300781 40.703125 C 59.4375 40.964844 58.496094 40.855469 57.472656 40.375 C 56.421875 39.875 55.714844 39.226563 55.347656 38.421875 C 54.972656 37.609375 54.988281 36.773438 55.394531 35.90625 C 55.769531 35.125 56.34375 34.640625 57.113281 34.453125 C 57.875 34.265625 58.738281 34.398438 59.707031 34.84375 Z M 58.941406 35.671875 C 58.359375 35.402344 57.828125 35.324219 57.347656 35.4375 C 56.871094 35.554688 56.519531 35.84375 56.300781 36.3125 C 56.042969 36.855469 56.003906 37.359375 56.191406 37.828125 C 56.378906 38.296875 56.765625 38.703125 57.347656 39.046875 Z M 60.046875 29 C 59.933594 29.074219 59.828125 29.167969 59.734375 29.28125 C 59.640625 29.398438 59.558594 29.527344 59.484375 29.671875 C 59.234375 30.214844 59.234375 30.71875 59.484375 31.1875 C 59.734375 31.65625 60.226563 32.0625 60.953125 32.40625 L 64.34375 34 L 63.890625 34.953125 L 57.453125 31.921875 L 57.90625 30.96875 L 58.921875 31.4375 C 58.621094 31.054688 58.453125 30.65625 58.421875 30.25 C 58.382813 29.84375 58.464844 29.414063 58.671875 28.953125 C 58.703125 28.890625 58.746094 28.824219 58.796875 28.75 C 58.839844 28.667969 58.890625 28.578125 58.953125 28.484375 Z M 60.046875 29 "/>
</g>
</svg>

