<?xml version="1.0" encoding="UTF-8"?>
<svg xmlns="http://www.w3.org/2000/svg" xmlns:xlink="http://www.w3.org/1999/xlink" width="256pt" height="256pt" viewBox="0 0 256 256" version="1.1">
<g id="surface2">
<rect x="0" y="0" width="256" height="256" style="fill:rgb(94.901961%,93.72549%,91.372549%);fill-opacity:1;stroke:none;"/>
<path style="fill:none;stroke-width:6;stroke-linecap:round;stroke-linejoin:round;stroke:rgb(60%,70.196078%,80%);stroke-opacity:1;stroke-miterlimit:10;" d="M 262 103.339844 L 246.949219 104.132813 L 228.171875 143.554688 L 247.574219 185.484375 L 212.527344 235.550781 L 217.425781 262 "/>
<path style="fill:none;stroke-width:1;stroke-linecap:round;stroke-linejoin:round;stroke:rgb(100%,100%,100%);stroke-opacity:1;stroke-dasharray:2,3;stroke-miterlimit:10;" d="M 131.433594 257 L 126.273438 251.109375 L 122.804688 240.792969 L 118.304688 234.644531 L 113.039063 229.308594 L 110.382813 225.523438 L 108.378906 223.972656 L 104 221.414063 L 100.457031 220.25 L 95.378906 219.765625 L 83.398438 216.953125 L 79.859375 215.625 L 78.667969 214.492188 L 75.851563 209.414063 L 72.074219 201.488281 L 65.503906 193.113281 L 64.96875 191.722656 L 64.082031 185.996094 L 62.753906 180.238281 L 61.402344 178.101563 L 61.285156 176.613281 L 63.664063 167.332031 L 61.378906 161.054688 L 60.308594 160.148438 L 57.417969 158.339844 L 55.601563 155.976563 L 53.039063 148.828125 L 51.847656 147.5 L 49.84375 146.53125 L 44.277344 134.464844 L 42.621094 132.914063 L 37.261719 129.320313 L 36.378906 127.609375 L 35.28125 118.484375 L 31.671875 106.484375 L 31.320313 104.285156 L 31.085938 99.625 L 30.667969 97.910156 L 25.097656 86.65625 L 24.332031 83.453125 L 23.515625 77.921875 L 23.675781 67.988281 L 24.632813 63.492188 L 24.351563 61.035156 L 22.070313 52.007813 L 19.691406 48.742188 L 7.53125 37.582031 L 5.410156 37.257813 L 3.753906 37.582031 L 2.285156 37.160156 L 0.933594 36.1875 L -2 32.9375 "/>
</g>
</svg>

