<?xml version="1.0" encoding="UTF-8"?>
<svg xmlns="http://www.w3.org/2000/svg" xmlns:xlink="http://www.w3.org/1999/xlink" width="256pt" height="256pt" viewBox="0 0 256 256" version="1.1">
<g id="surface2">
<rect x="0" y="0" width="256" height="256" style="fill:rgb(94.901961%,93.72549%,91.372549%);fill-opacity:1;stroke:none;"/>
<path style="fill:none;stroke-width:8;stroke-linecap:round;stroke-linejoin:round;stroke:rgb(75.686275%,70.980392%,61.568627%);stroke-opacity:1;stroke-miterlimit:10;" d="M 40.34375 100.566406 L 41.390625 100.253906 L 42.046875 99.453125 L 42.535156 98.421875 L 42.667969 97.132813 L 42.078125 95.925781 L 41.261719 94.8125 L 40.246094 94.140625 L 38.246094 94.457031 L 37.332031 96.019531 L 36.9375 97.488281 L 37.003906 98.558594 L 37.789063 99.851563 L 38.640625 100.433594 L 40.34375 100.566406 "/>
<path style="fill:none;stroke-width:8;stroke-linecap:round;stroke-linejoin:round;stroke:rgb(75.686275%,70.980392%,61.568627%);stroke-opacity:1;stroke-miterlimit:10;" d="M -9 33.746094 L 1.464844 43.449219 L 38.792969 92.207031 L 39.296875 93.921875 "/>
<path style="fill:none;stroke-width:8;stroke-linecap:round;stroke-linejoin:round;stroke:rgb(75.686275%,70.980392%,61.568627%);stroke-opacity:1;stroke-miterlimit:10;" d="M 264 161.550781 L 226.789063 174.085938 L 204.539063 184.429688 "/>
<path style="fill:none;stroke-width:9;stroke-linecap:round;stroke-linejoin:round;stroke:rgb(75.686275%,70.980392%,61.568627%);stroke-opacity:1;stroke-miterlimit:10;" d="M -10 15.253906 L -1.199219 6.089844 L 20.9375 -10 "/>
<path style="fill:none;stroke-width:6;stroke-linecap:round;stroke-linejoin:round;stroke:rgb(100%,100%,100%);stroke-opacity:1;stroke-miterlimit:10;" d="M 40.34375 100.566406 L 41.390625 100.253906 L 42.046875 99.453125 L 42.535156 98.421875 L 42.667969 97.132813 L 42.078125 95.925781 L 41.261719 94.8125 L 40.246094 94.140625 L 38.246094 94.457031 L 37.332031 96.019531 L 36.9375 97.488281 L 37.003906 98.558594 L 37.789063 99.851563 L 38.640625 100.433594 L 40.34375 100.566406 "/>
<path style="fill:none;stroke-width:6;stroke-linecap:round;stroke-linejoin:round;stroke:rgb(100%,100%,100%);stroke-opacity:1;stroke-miterlimit:10;" d="M -9 33.746094 L 1.464844 43.449219 L 38.792969 92.207031 L 39.296875 93.921875 "/>
<path style="fill:none;stroke-width:6;stroke-linecap:round;stroke-linejoin:round;stroke:rgb(100%,100%,100%);stroke-opacity:1;stroke-miterlimit:10;" d="M 264 161.550781 L 226.789063 174.085938 L 204.539063 184.429688 "/>
<path style="fill:none;stroke-width:7;stroke-linecap:round;stroke-linejoin:round;stroke:rgb(100%,99.215686%,54.509804%);stroke-opacity:1;stroke-miterlimit:10;" d="M -10 15.253906 L -1.199219 6.089844 L 20.9375 -10 "/>
</g>
</svg>

