<?xml version="1.0" encoding="UTF-8"?>
<svg xmlns="http://www.w3.org/2000/svg" xmlns:xlink="http://www.w3.org/1999/xlink" width="256pt" height="256pt" viewBox="0 0 256 256" version="1.1">
<g id="surface2">
<rect x="0" y="0" width="256" height="256" style="fill:rgb(94.901961%,93.72549%,91.372549%);fill-opacity:1;stroke:none;"/>
<path style=" stroke:none;fill-rule:evenodd;fill:rgb(60%,70.196078%,80%);fill-opacity:1;" d="M 92.84375 100.972656 L 94.824219 103.078125 L 97.21875 104.152344 L 105.398438 109.234375 L 112.1875 110.082031 L 117.496094 104.5625 L 121.320313 97.765625 L 117.285156 97.765625 L 110.472656 104.65625 L 103.484375 105.625 L 100.8125 103.613281 L 94.910156 98.992188 L 93.132813 99.445313 Z M 92.84375 100.972656 "/>
<path style="fill:none;stroke-width:1;stroke-linecap:round;stroke-linejoin:round;stroke:rgb(70.196078%,77.647059%,83.137255%);stroke-opacity:1;stroke-miterlimit:10;" d="M 92.84375 100.972656 L 94.824219 103.078125 L 97.21875 104.152344 L 105.398438 109.234375 L 112.1875 110.082031 L 117.496094 104.5625 L 121.320313 97.765625 L 117.285156 97.765625 L 110.472656 104.65625 L 103.484375 105.625 L 100.8125 103.613281 L 94.910156 98.992188 L 93.132813 99.445313 L 92.84375 100.972656 "/>
<path style="fill:none;stroke-width:2;stroke-linecap:round;stroke-linejoin:round;stroke:rgb(60%,70.196078%,80%);stroke-opacity:1;stroke-miterlimit:10;" d="M 119.300781 74.65625 L 120.058594 77.40625 L 119.125 79.15625 L 115.855469 80.5 L 112.0625 82.367188 L 109.082031 86.632813 L 107.738281 89.199219 L 107.09375 90.835938 L 108.03125 93.285156 L 107.210938 95.859375 L 106.277344 98.132813 L 103.882813 100.179688 L 100.964844 102.628906 L 97.871094 103.390625 L 93.722656 102.921875 L 87.765625 105.375 L 79.589844 109.875 L 71.941406 115.246094 L 66.21875 120.152344 L 63.707031 124.53125 L 62.304688 130.664063 L 62.304688 140.359375 L 62.480469 148.648438 L 61.429688 153.320313 L 52.085938 167.570313 L 48.464844 174.460938 L 43.09375 183.570313 L 40.464844 191.046875 L 38.640625 196.347656 L 40.160156 199.792969 L 44.59375 203.707031 L 47.339844 208.433594 L 50.496094 216.613281 L 53.0625 221.925781 L 56.625 226.890625 L 58.785156 230.101563 L 59.023438 233.898438 L 56.800781 239.972656 L 53.882813 245.289063 L 53.238281 253.34375 L 52.539063 258 "/>
<path style="fill:none;stroke-width:1;stroke-linecap:round;stroke-linejoin:round;stroke:rgb(100%,100%,100%);stroke-opacity:1;stroke-dasharray:2,3;stroke-miterlimit:10;" d="M 254.859375 175.101563 L 255.703125 180.40625 L 256.378906 184.847656 L 256.527344 188.082031 L 254.722656 190.417969 L 250.882813 191.324219 L 247.945313 190.792969 L 245.308594 192.90625 L 242.75 194.335938 "/>
<path style="fill:none;stroke-width:1;stroke-linecap:round;stroke-linejoin:round;stroke:rgb(100%,100%,100%);stroke-opacity:1;stroke-dasharray:2,3;stroke-miterlimit:10;" d="M 181.894531 225.957031 L 169.613281 239.746094 L 160.425781 252.871094 L 156.335938 257 "/>
<path style="fill:none;stroke-width:1;stroke-linecap:round;stroke-linejoin:round;stroke:rgb(100%,100%,100%);stroke-opacity:1;stroke-dasharray:2,3;stroke-miterlimit:10;" d="M 257 173.574219 L 254.859375 175.101563 L 247.816406 178.074219 L 239.542969 180.316406 L 234.324219 183.269531 L 228.734375 187.878906 L 213.539063 198.136719 L 207.457031 204.664063 L 195.179688 212.746094 L 181.894531 225.957031 "/>
<path style="fill:none;stroke-width:1;stroke-linecap:round;stroke-linejoin:round;stroke:rgb(100%,100%,100%);stroke-opacity:1;stroke-dasharray:2,3;stroke-miterlimit:10;" d="M 181.894531 225.957031 L 179.054688 227.160156 L 172.085938 227.257813 L 164.449219 223.253906 L 159.269531 224.304688 L 143.191406 226.152344 L 136.171875 225.421875 L 123.796875 241.675781 L 116.429688 247.640625 L 110.0625 251.980469 L 107.335938 255.109375 L 106.195313 257 "/>
<path style="fill:none;stroke-width:1;stroke-linecap:round;stroke-linejoin:round;stroke:rgb(100%,100%,100%);stroke-opacity:1;stroke-dasharray:2,3;stroke-miterlimit:10;" d="M 175.402344 257 L 174.929688 251.917969 L 180.804688 240.792969 L 181.929688 232.289063 L 182.929688 229.167969 L 181.894531 225.957031 "/>
<path style="fill:none;stroke-width:1;stroke-linecap:round;stroke-linejoin:round;stroke:rgb(100%,100%,100%);stroke-opacity:1;stroke-dasharray:2,3;stroke-miterlimit:10;" d="M 54.546875 257 L 55.324219 244.144531 L 58.652344 240.8125 L 60.609375 231.222656 L 59.433594 224.957031 L 55.714844 221.625 L 54.738281 218.097656 L 48.078125 204.785156 L 41.617188 198.324219 L 39.855469 195.382813 L 36.523438 190.882813 L 47.050781 170.285156 L 55.472656 161.023438 L 61.921875 149.683594 L 61.136719 138.019531 L 61.5 126.90625 L 67.183594 108.835938 L 68.203125 99.1875 L 67.457031 89.554688 L 59.097656 78.683594 L 56.519531 67.753906 L 45.71875 67.816406 L 28.164063 39.390625 L 12.855469 24.148438 L -2 9.234375 "/>
</g>
</svg>

