<?xml version="1.0" encoding="UTF-8"?>
<svg xmlns="http://www.w3.org/2000/svg" xmlns:xlink="http://www.w3.org/1999/xlink" width="256pt" height="256pt" viewBox="0 0 256 256" version="1.1">
<g id="surface2">
<rect x="0" y="0" width="256" height="256" style="fill:rgb(94.901961%,93.72549%,91.372549%);fill-opacity:1;stroke:none;"/>
<path style=" stroke:none;fill-rule:evenodd;fill:rgb(70.980392%,82.352941%,61.176471%);fill-opacity:1;" d="M 257.953125 138.601563 L 260 141.941406 L 260 97.992188 L 246.035156 117.835938 Z M 257.953125 138.601563 "/>
<path style=" stroke:none;fill-rule:evenodd;fill:rgb(79.607843%,84.705882%,76.470588%);fill-opacity:1;" d="M 229.992188 132.789063 L 251.996094 89.613281 L 257.699219 73.550781 L 260 69.363281 L 260 -4 L 260 18.394531 L 254.523438 32.859375 L 244.375 50.410156 L 242.253906 47.53125 L 223.4375 77.21875 L 189.273438 119.160156 Z M 229.992188 132.789063 "/>
<path style=" stroke:none;fill-rule:evenodd;fill:rgb(70.980392%,82.352941%,61.176471%);fill-opacity:1;" d="M 229.992188 132.789063 L 251.996094 89.613281 L 257.699219 73.550781 L 260 69.363281 L 260 -4 L 260 18.394531 L 254.523438 32.859375 L 244.375 50.410156 L 242.253906 47.53125 L 223.4375 77.21875 L 189.273438 119.160156 Z M 229.992188 132.789063 "/>
<path style=" stroke:none;fill-rule:evenodd;fill:rgb(79.607843%,84.705882%,76.470588%);fill-opacity:1;" d="M 147.265625 130.808594 L 151.699219 132.78125 L 147.542969 140.902344 L 148.828125 146.296875 L 151.285156 149.824219 L 149.578125 157.996094 L 163.269531 130.527344 L 206.019531 72.359375 L 220.921875 54.566406 L 242.289063 17.144531 L 238.375 15.386719 L 236.753906 13.101563 L 238.179688 -0.46875 L 237.5 -4 L 203.988281 -4 L 203.953125 -3.960938 L 201.304688 1.855469 L 198.496094 16.269531 L 196.285156 21.457031 L 190.855469 26.976563 L 186.546875 36.335938 L 174.390625 45.976563 L 168.382813 55.824219 L 160.578125 75.863281 L 157.648438 93.78125 L 151.058594 104.539063 L 149.8125 114.015625 L 150.292969 124.25 L 145.511719 128.582031 Z M 147.265625 130.808594 "/>
<path style=" stroke:none;fill-rule:evenodd;fill:rgb(70.980392%,82.352941%,61.176471%);fill-opacity:1;" d="M 147.265625 130.808594 L 151.699219 132.78125 L 147.542969 140.902344 L 148.828125 146.296875 L 151.285156 149.824219 L 149.578125 157.996094 L 163.269531 130.527344 L 206.019531 72.359375 L 220.921875 54.566406 L 242.289063 17.144531 L 238.375 15.386719 L 236.753906 13.101563 L 238.179688 -0.46875 L 237.5 -4 L 203.988281 -4 L 203.953125 -3.960938 L 201.304688 1.855469 L 198.496094 16.269531 L 196.285156 21.457031 L 190.855469 26.976563 L 186.546875 36.335938 L 174.390625 45.976563 L 168.382813 55.824219 L 160.578125 75.863281 L 157.648438 93.78125 L 151.058594 104.539063 L 149.8125 114.015625 L 150.292969 124.25 L 145.511719 128.582031 Z M 147.265625 130.808594 "/>
<path style=" stroke:none;fill-rule:evenodd;fill:rgb(60%,70.196078%,80%);fill-opacity:1;" d="M -4 -4 L 9.109375 -4 L 7.933594 -0.105469 L -0.414063 21.535156 L -4 33.558594 L -4 48.023438 L -3.664063 49.097656 L -4 51.558594 L -4 259 L 123.261719 259 L 123.535156 257.695313 L 129.734375 236.296875 L 131.734375 217.496094 L 134.132813 204.5 L 142.332031 177.695313 L 148.734375 151.699219 L 148.933594 135.097656 L 147.132813 128.699219 L 148.734375 123.097656 L 147.730469 112.695313 L 150.332031 102.097656 L 154.132813 96.097656 L 156.332031 92.695313 L 160.132813 70.296875 L 165.734375 57.097656 L 170.53125 50.296875 L 178.933594 42.695313 L 190.933594 27.699219 L 198.335938 13.097656 L 201.734375 -0.503906 L 203.886719 -4 L 236.710938 -4 L 237.734375 3.5 L 238.132813 11.097656 L 239.734375 17.496094 L 242.933594 16.898438 L 248.332031 6.894531 L 252.820313 -4 L 259 -4 Z M -4 -4 "/>
<path style="fill:none;stroke-width:1;stroke-linecap:round;stroke-linejoin:round;stroke:rgb(70.196078%,77.647059%,83.137255%);stroke-opacity:1;stroke-miterlimit:10;" d="M -4 -4 L 9.109375 -4 L 7.933594 -0.105469 L -0.414063 21.535156 L -4 33.558594 L -4 48.023438 L -3.664063 49.097656 L -4 51.558594 L -4 259 L 123.261719 259 L 123.535156 257.695313 L 129.734375 236.296875 L 131.734375 217.496094 L 134.132813 204.5 L 142.332031 177.695313 L 148.734375 151.699219 L 148.933594 135.097656 L 147.132813 128.699219 L 148.734375 123.097656 L 147.730469 112.695313 L 150.332031 102.097656 L 154.132813 96.097656 L 156.332031 92.695313 L 160.132813 70.296875 L 165.734375 57.097656 L 170.53125 50.296875 L 178.933594 42.695313 L 190.933594 27.699219 L 198.335938 13.097656 L 201.734375 -0.503906 L 203.886719 -4 L 236.710938 -4 L 237.734375 3.5 L 238.132813 11.097656 L 239.734375 17.496094 L 242.933594 16.898438 L 248.332031 6.894531 L 252.820313 -4 L 259 -4 L -4 -4 "/>
<path style="fill:none;stroke-width:6;stroke-linecap:round;stroke-linejoin:round;stroke:rgb(60%,70.196078%,80%);stroke-opacity:1;stroke-miterlimit:10;" d="M 116.683594 -7 L 89.488281 74.230469 L 73.132813 142.449219 L 57.125 227.03125 L 48.039063 262 "/>
<path style="fill:none;stroke-width:1;stroke-linecap:butt;stroke-linejoin:round;stroke:rgb(46.666667%,46.666667%,46.666667%);stroke-opacity:1;stroke-dasharray:2,2;stroke-miterlimit:10;" d="M 129.140625 257 L 153.359375 174.941406 L 158.742188 159.101563 L 164.070313 145.507813 L 169.699219 133.085938 L 176.660156 120.316406 L 184.65625 107.746094 L 192.726563 95.722656 L 231.0625 43.996094 L 240.96875 29.273438 L 249.988281 14.003906 L 256.714844 -0.726563 L 257 -1.445313 "/>
<path style="fill:none;stroke-width:1;stroke-linecap:butt;stroke-linejoin:round;stroke:rgb(46.666667%,46.666667%,46.666667%);stroke-opacity:1;stroke-dasharray:2,2;stroke-miterlimit:10;" d="M 255.808594 -2 L 248.503906 13.222656 L 239.824219 28.566406 L 230.074219 43.070313 L 191.796875 95.046875 L 183.636719 107.027344 L 175.707031 119.835938 L 168.667969 132.570313 L 163.152344 145.039063 L 157.800781 158.789063 L 152.140625 174.695313 L 127.960938 257 "/>
<path style="fill:none;stroke-width:1;stroke-linecap:butt;stroke-linejoin:round;stroke:rgb(46.666667%,46.666667%,46.666667%);stroke-opacity:1;stroke-dasharray:2,2;stroke-miterlimit:10;" d="M -2 18.785156 L 1.480469 8.703125 L 4.820313 -2 "/>
<path style="fill:none;stroke-width:1;stroke-linecap:round;stroke-linejoin:round;stroke:rgb(100%,100%,100%);stroke-opacity:1;stroke-dasharray:2,3;stroke-miterlimit:10;" d="M 179.726563 106.019531 L 177.734375 104.972656 "/>
<path style="fill:none;stroke-width:1;stroke-linecap:round;stroke-linejoin:round;stroke:rgb(100%,100%,100%);stroke-opacity:1;stroke-dasharray:2,3;stroke-miterlimit:10;" d="M 169.761719 242.828125 L 166.683594 241.707031 L 170.398438 203.746094 L 170.125 187.023438 L 171.582031 172.4375 L 173.441406 163.734375 L 179.078125 146.699219 L 182.625 134.730469 L 183.953125 122.507813 L 185.980469 115.039063 L 187.960938 112.0625 L 193.511719 105.898438 L 203 95.570313 L 207.082031 91.851563 L 224.101563 76.347656 L 227.800781 72.433594 L 240.4375 59.0625 L 253.863281 45.003906 L 256.332031 34.363281 L 257 31.644531 "/>
<path style="fill:none;stroke-width:8;stroke-linecap:round;stroke-linejoin:round;stroke:rgb(75.686275%,70.980392%,61.568627%);stroke-opacity:1;stroke-miterlimit:10;" d="M 162.027344 262.800781 L 165.351563 257.375 L 166.390625 249.578125 L 169.761719 242.828125 L 174.351563 240.289063 "/>
<path style="fill:none;stroke-width:8;stroke-linecap:round;stroke-linejoin:round;stroke:rgb(75.686275%,70.980392%,61.568627%);stroke-opacity:1;stroke-miterlimit:10;" d="M 213.355469 221.066406 L 213.023438 215.21875 L 211.214844 211.628906 L 207.292969 209.5625 L 184.980469 209.511719 L 179.347656 209.960938 L 175.425781 214.945313 L 174.527344 224.261719 L 174.707031 229.902344 L 174.621094 233.308594 L 174.621094 237.785156 L 174.351563 240.289063 "/>
<path style="fill:none;stroke-width:8;stroke-linecap:round;stroke-linejoin:round;stroke:rgb(75.686275%,70.980392%,61.568627%);stroke-opacity:1;stroke-miterlimit:10;" d="M 256.082031 216.960938 L 258.011719 220.640625 L 256.558594 226.058594 L 254.746094 231.75 L 249.949219 236.453125 L 243.699219 240.765625 L 239.4375 245.1875 L 235.136719 250.078125 L 225.566406 256.558594 L 218.074219 262.261719 L 216.496094 264 "/>
<path style="fill:none;stroke-width:8;stroke-linecap:round;stroke-linejoin:round;stroke:rgb(75.686275%,70.980392%,61.568627%);stroke-opacity:1;stroke-miterlimit:10;" d="M 174.351563 240.289063 L 180.261719 240.378906 L 188.691406 241.75 L 193.515625 242.800781 L 201.933594 245.484375 L 209.1875 248.53125 L 215.277344 246.738281 L 219.484375 243.15625 L 229.246094 238.5 L 237.664063 231.78125 L 246.175781 224.492188 L 252.082031 219.246094 L 256.082031 216.960938 L 262.738281 213.15625 L 264 212.875 "/>
<path style="fill:none;stroke-width:8;stroke-linecap:round;stroke-linejoin:round;stroke:rgb(75.686275%,70.980392%,61.568627%);stroke-opacity:1;stroke-miterlimit:10;" d="M 201.933594 245.484375 L 203.398438 235.964844 L 208.453125 228.867188 L 213.355469 221.066406 L 227.71875 202.671875 L 234.261719 197.613281 L 243.210938 200.253906 L 253.238281 202.671875 L 264 204.699219 "/>
<path style="fill:none;stroke-width:6;stroke-linecap:round;stroke-linejoin:round;stroke:rgb(100%,100%,100%);stroke-opacity:1;stroke-miterlimit:10;" d="M 162.027344 262.800781 L 165.351563 257.375 L 166.390625 249.578125 L 169.761719 242.828125 L 174.351563 240.289063 "/>
<path style="fill:none;stroke-width:6;stroke-linecap:round;stroke-linejoin:round;stroke:rgb(100%,100%,100%);stroke-opacity:1;stroke-miterlimit:10;" d="M 213.355469 221.066406 L 213.023438 215.21875 L 211.214844 211.628906 L 207.292969 209.5625 L 184.980469 209.511719 L 179.347656 209.960938 L 175.425781 214.945313 L 174.527344 224.261719 L 174.707031 229.902344 L 174.621094 233.308594 L 174.621094 237.785156 L 174.351563 240.289063 "/>
<path style="fill:none;stroke-width:6;stroke-linecap:round;stroke-linejoin:round;stroke:rgb(100%,100%,100%);stroke-opacity:1;stroke-miterlimit:10;" d="M 256.082031 216.960938 L 258.011719 220.640625 L 256.558594 226.058594 L 254.746094 231.75 L 249.949219 236.453125 L 243.699219 240.765625 L 239.4375 245.1875 L 235.136719 250.078125 L 225.566406 256.558594 L 218.074219 262.261719 L 216.496094 264 "/>
<path style="fill:none;stroke-width:6;stroke-linecap:round;stroke-linejoin:round;stroke:rgb(100%,100%,100%);stroke-opacity:1;stroke-miterlimit:10;" d="M 174.351563 240.289063 L 180.261719 240.378906 L 188.691406 241.75 L 193.515625 242.800781 L 201.933594 245.484375 L 209.1875 248.53125 L 215.277344 246.738281 L 219.484375 243.15625 L 229.246094 238.5 L 237.664063 231.78125 L 246.175781 224.492188 L 252.082031 219.246094 L 256.082031 216.960938 L 262.738281 213.15625 L 264 212.875 "/>
<path style="fill:none;stroke-width:6;stroke-linecap:round;stroke-linejoin:round;stroke:rgb(100%,100%,100%);stroke-opacity:1;stroke-miterlimit:10;" d="M 201.933594 245.484375 L 203.398438 235.964844 L 208.453125 228.867188 L 213.355469 221.066406 L 227.71875 202.671875 L 234.261719 197.613281 L 243.210938 200.253906 L 253.238281 202.671875 L 264 204.699219 "/>
<path style="fill:none;stroke-width:3;stroke-linecap:round;stroke-linejoin:round;stroke:rgb(100%,100%,100%);stroke-opacity:1;stroke-miterlimit:10;" d="M 64.789063 162.453125 L 64.992188 161.34375 L 68.804688 162.0625 L 69.585938 157.921875 L 65.773438 157.203125 L 65.992188 156.078125 L 75.304688 157.84375 L 75.085938 158.96875 L 70.648438 158.125 L 69.867188 162.265625 L 74.304688 163.109375 L 74.101563 164.21875 Z M 72.941406 155.214844 L 68.722656 154.402344 L 68.910156 153.371094 L 73.097656 154.167969 C 73.753906 154.292969 74.277344 154.273438 74.660156 154.105469 C 75.035156 153.941406 75.265625 153.628906 75.347656 153.167969 C 75.453125 152.605469 75.339844 152.128906 75.003906 151.730469 C 74.671875 151.335938 74.160156 151.070313 73.472656 150.933594 L 69.519531 150.183594 L 69.722656 149.136719 L 76.707031 150.464844 L 76.503906 151.511719 L 75.425781 151.308594 C 75.808594 151.632813 76.070313 151.980469 76.207031 152.355469 C 76.351563 152.722656 76.382813 153.128906 76.300781 153.574219 C 76.164063 154.285156 75.816406 154.777344 75.253906 155.058594 C 74.683594 155.339844 73.910156 155.394531 72.941406 155.214844 Z M 69.035156 151.777344 Z M 72.003906 143.074219 L 68.238281 142.324219 L 68.441406 141.308594 L 78.128906 143.230469 L 77.925781 144.246094 L 76.878906 144.042969 C 77.253906 144.347656 77.507813 144.683594 77.644531 145.058594 C 77.777344 145.425781 77.804688 145.835938 77.722656 146.292969 C 77.566406 147.066406 77.101563 147.621094 76.332031 147.964844 C 75.5625 148.308594 74.628906 148.371094 73.535156 148.152344 C 72.441406 147.933594 71.609375 147.523438 71.035156 146.917969 C 70.453125 146.316406 70.238281 145.628906 70.394531 144.855469 C 70.480469 144.398438 70.65625 144.023438 70.925781 143.730469 C 71.1875 143.429688 71.546875 143.210938 72.003906 143.074219 Z M 73.753906 147.074219 C 74.597656 147.242188 75.292969 147.214844 75.832031 146.996094 C 76.363281 146.777344 76.6875 146.398438 76.800781 145.855469 C 76.902344 145.304688 76.75 144.824219 76.332031 144.417969 C 75.917969 144.011719 75.285156 143.726563 74.441406 143.558594 C 73.597656 143.394531 72.910156 143.417969 72.378906 143.636719 C 71.839844 143.855469 71.515625 144.242188 71.410156 144.792969 C 71.296875 145.335938 71.449219 145.808594 71.863281 146.214844 C 72.28125 146.621094 72.910156 146.910156 73.753906 147.074219 Z M 72.773438 135.722656 L 73.851563 135.972656 C 73.632813 136.234375 73.445313 136.511719 73.289063 136.800781 C 73.125 137.09375 73.003906 137.40625 72.929688 137.738281 C 72.804688 138.238281 72.800781 138.640625 72.914063 138.941406 C 73.019531 139.246094 73.242188 139.4375 73.585938 139.519531 C 73.859375 139.582031 74.09375 139.542969 74.289063 139.394531 C 74.476563 139.238281 74.703125 138.902344 74.960938 138.378906 L 75.148438 138.066406 C 75.492188 137.378906 75.859375 136.925781 76.242188 136.707031 C 76.628906 136.480469 77.097656 136.433594 77.648438 136.566406 C 78.304688 136.722656 78.761719 137.074219 79.023438 137.613281 C 79.292969 138.15625 79.335938 138.828125 79.148438 139.628906 C 79.0625 139.953125 78.945313 140.292969 78.789063 140.644531 C 78.632813 140.988281 78.429688 141.339844 78.179688 141.691406 L 77.023438 141.410156 C 77.328125 141.089844 77.578125 140.761719 77.773438 140.425781 C 77.960938 140.082031 78.097656 139.730469 78.179688 139.363281 C 78.292969 138.886719 78.292969 138.5 78.179688 138.207031 C 78.054688 137.90625 77.828125 137.714844 77.492188 137.628906 C 77.191406 137.558594 76.9375 137.59375 76.726563 137.738281 C 76.519531 137.886719 76.257813 138.253906 75.945313 138.847656 L 75.789063 139.160156 C 75.476563 139.777344 75.140625 140.1875 74.773438 140.394531 C 74.398438 140.605469 73.941406 140.644531 73.398438 140.519531 C 72.753906 140.363281 72.304688 140.03125 72.054688 139.519531 C 71.796875 139.011719 71.757813 138.378906 71.945313 137.628906 C 72.03125 137.253906 72.144531 136.90625 72.289063 136.582031 C 72.4375 136.261719 72.597656 135.972656 72.773438 135.722656 Z M 74.414063 131.5 C 74.289063 132.054688 74.429688 132.546875 74.835938 132.984375 C 75.234375 133.414063 75.84375 133.726563 76.664063 133.921875 C 77.5 134.121094 78.191406 134.121094 78.742188 133.921875 C 79.285156 133.714844 79.617188 133.335938 79.742188 132.78125 C 79.875 132.242188 79.746094 131.757813 79.351563 131.328125 C 78.957031 130.890625 78.347656 130.574219 77.523438 130.375 C 76.703125 130.179688 76.015625 130.183594 75.460938 130.390625 C 74.898438 130.589844 74.550781 130.960938 74.414063 131.5 Z M 73.460938 131.265625 C 73.679688 130.382813 74.171875 129.761719 74.929688 129.40625 C 75.691406 129.054688 76.640625 129.011719 77.773438 129.28125 C 78.910156 129.554688 79.734375 130.023438 80.257813 130.6875 C 80.789063 131.355469 80.945313 132.132813 80.726563 133.015625 C 80.515625 133.914063 80.03125 134.539063 79.273438 134.890625 C 78.503906 135.234375 77.550781 135.273438 76.414063 135 C 75.28125 134.730469 74.453125 134.265625 73.929688 133.609375 C 73.410156 132.945313 73.253906 132.164063 73.460938 131.265625 Z M 78.707031 122.246094 L 82.878906 123.246094 L 82.628906 124.261719 L 78.488281 123.277344 C 77.832031 123.113281 77.316406 123.105469 76.941406 123.261719 C 76.558594 123.417969 76.3125 123.726563 76.207031 124.183594 C 76.074219 124.726563 76.167969 125.207031 76.488281 125.621094 C 76.800781 126.039063 77.296875 126.332031 77.972656 126.496094 L 81.878906 127.433594 L 81.628906 128.464844 L 74.722656 126.808594 L 74.972656 125.777344 L 76.050781 126.027344 C 75.6875 125.683594 75.441406 125.324219 75.316406 124.949219 C 75.183594 124.566406 75.167969 124.152344 75.269531 123.714844 C 75.449219 123.007813 75.828125 122.527344 76.410156 122.277344 C 76.984375 122.027344 77.75 122.019531 78.707031 122.246094 Z M 80.867188 112.585938 C 81.023438 112.367188 81.28125 112.179688 81.632813 112.023438 C 81.976563 111.859375 82.4375 111.722656 83.007813 111.617188 L 85.789063 111.085938 L 85.507813 112.304688 L 82.867188 112.804688 C 82.191406 112.910156 81.722656 113.066406 81.460938 113.273438 C 81.203125 113.484375 81.019531 113.8125 80.914063 114.257813 L 80.617188 115.492188 L 84.507813 116.429688 L 84.242188 117.539063 L 75.023438 115.320313 L 75.632813 112.804688 C 75.863281 111.847656 76.253906 111.191406 76.804688 110.835938 C 77.347656 110.484375 78.066406 110.410156 78.960938 110.617188 C 79.535156 110.765625 79.988281 111.003906 80.320313 111.335938 C 80.644531 111.660156 80.828125 112.078125 80.867188 112.585938 Z M 76.320313 114.460938 L 79.585938 115.242188 L 79.929688 113.835938 C 80.066406 113.285156 80.023438 112.84375 79.804688 112.507813 C 79.585938 112.175781 79.210938 111.941406 78.679688 111.804688 C 78.140625 111.679688 77.703125 111.722656 77.367188 111.929688 C 77.035156 112.128906 76.800781 112.503906 76.664063 113.054688 Z M 79.230469 108.027344 L 79.464844 107.011719 L 86.371094 108.667969 L 86.136719 109.683594 Z M 76.527344 107.386719 L 76.761719 106.371094 L 78.214844 106.714844 L 77.980469 107.730469 Z M 79.800781 105.617188 L 80.066406 104.539063 L 86.332031 103.976563 L 80.988281 100.648438 L 81.253906 99.554688 L 87.597656 103.539063 L 87.269531 104.929688 Z M 86.039063 93.589844 L 86.585938 93.714844 L 85.460938 98.417969 C 86.265625 98.554688 86.914063 98.480469 87.414063 98.199219 C 87.90625 97.917969 88.226563 97.441406 88.382813 96.761719 C 88.476563 96.367188 88.511719 95.976563 88.492188 95.589844 C 88.480469 95.195313 88.414063 94.789063 88.289063 94.371094 L 89.367188 94.636719 C 89.449219 95.042969 89.492188 95.449219 89.492188 95.855469 C 89.492188 96.261719 89.445313 96.664063 89.351563 97.058594 C 89.109375 98.050781 88.601563 98.757813 87.820313 99.183594 C 87.039063 99.613281 86.101563 99.695313 85.007813 99.433594 C 83.875 99.164063 83.039063 98.675781 82.507813 97.964844 C 81.976563 97.246094 81.820313 96.425781 82.039063 95.496094 C 82.25 94.652344 82.710938 94.066406 83.429688 93.730469 C 84.140625 93.386719 85.007813 93.339844 86.039063 93.589844 Z M 85.445313 94.542969 C 84.832031 94.386719 84.300781 94.417969 83.851563 94.636719 C 83.40625 94.847656 83.125 95.207031 83.007813 95.714844 C 82.863281 96.289063 82.929688 96.789063 83.210938 97.214844 C 83.492188 97.644531 83.953125 97.960938 84.585938 98.167969 Z M 85.203125 87.773438 C 85.101563 87.878906 85.015625 87.992188 84.953125 88.117188 C 84.882813 88.242188 84.824219 88.390625 84.78125 88.554688 C 84.648438 89.128906 84.75 89.625 85.09375 90.039063 C 85.4375 90.445313 86 90.742188 86.78125 90.929688 L 90.421875 91.804688 L 90.171875 92.835938 L 83.265625 91.179688 L 83.515625 90.148438 L 84.59375 90.398438 C 84.21875 90.085938 83.96875 89.734375 83.84375 89.335938 C 83.71875 88.941406 83.71875 88.503906 83.84375 88.023438 C 83.855469 87.953125 83.875 87.875 83.90625 87.789063 C 83.9375 87.707031 83.980469 87.609375 84.03125 87.492188 Z M 85.203125 87.773438 "/>
<path style=" stroke:none;fill-rule:evenodd;fill:rgb(41.960784%,58.039216%,69.019608%);fill-opacity:1;" d="M 64.789063 162.453125 L 64.992188 161.34375 L 68.804688 162.0625 L 69.585938 157.921875 L 65.773438 157.203125 L 65.992188 156.078125 L 75.304688 157.84375 L 75.085938 158.96875 L 70.648438 158.125 L 69.867188 162.265625 L 74.304688 163.109375 L 74.101563 164.21875 Z M 72.941406 155.214844 L 68.722656 154.402344 L 68.910156 153.371094 L 73.097656 154.167969 C 73.753906 154.292969 74.277344 154.273438 74.660156 154.105469 C 75.035156 153.941406 75.265625 153.628906 75.347656 153.167969 C 75.453125 152.605469 75.339844 152.128906 75.003906 151.730469 C 74.671875 151.335938 74.160156 151.070313 73.472656 150.933594 L 69.519531 150.183594 L 69.722656 149.136719 L 76.707031 150.464844 L 76.503906 151.511719 L 75.425781 151.308594 C 75.808594 151.632813 76.070313 151.980469 76.207031 152.355469 C 76.351563 152.722656 76.382813 153.128906 76.300781 153.574219 C 76.164063 154.285156 75.816406 154.777344 75.253906 155.058594 C 74.683594 155.339844 73.910156 155.394531 72.941406 155.214844 Z M 69.035156 151.777344 Z M 72.003906 143.074219 L 68.238281 142.324219 L 68.441406 141.308594 L 78.128906 143.230469 L 77.925781 144.246094 L 76.878906 144.042969 C 77.253906 144.347656 77.507813 144.683594 77.644531 145.058594 C 77.777344 145.425781 77.804688 145.835938 77.722656 146.292969 C 77.566406 147.066406 77.101563 147.621094 76.332031 147.964844 C 75.5625 148.308594 74.628906 148.371094 73.535156 148.152344 C 72.441406 147.933594 71.609375 147.523438 71.035156 146.917969 C 70.453125 146.316406 70.238281 145.628906 70.394531 144.855469 C 70.480469 144.398438 70.65625 144.023438 70.925781 143.730469 C 71.1875 143.429688 71.546875 143.210938 72.003906 143.074219 Z M 73.753906 147.074219 C 74.597656 147.242188 75.292969 147.214844 75.832031 146.996094 C 76.363281 146.777344 76.6875 146.398438 76.800781 145.855469 C 76.902344 145.304688 76.75 144.824219 76.332031 144.417969 C 75.917969 144.011719 75.285156 143.726563 74.441406 143.558594 C 73.597656 143.394531 72.910156 143.417969 72.378906 143.636719 C 71.839844 143.855469 71.515625 144.242188 71.410156 144.792969 C 71.296875 145.335938 71.449219 145.808594 71.863281 146.214844 C 72.28125 146.621094 72.910156 146.910156 73.753906 147.074219 Z M 72.773438 135.722656 L 73.851563 135.972656 C 73.632813 136.234375 73.445313 136.511719 73.289063 136.800781 C 73.125 137.09375 73.003906 137.40625 72.929688 137.738281 C 72.804688 138.238281 72.800781 138.640625 72.914063 138.941406 C 73.019531 139.246094 73.242188 139.4375 73.585938 139.519531 C 73.859375 139.582031 74.09375 139.542969 74.289063 139.394531 C 74.476563 139.238281 74.703125 138.902344 74.960938 138.378906 L 75.148438 138.066406 C 75.492188 137.378906 75.859375 136.925781 76.242188 136.707031 C 76.628906 136.480469 77.097656 136.433594 77.648438 136.566406 C 78.304688 136.722656 78.761719 137.074219 79.023438 137.613281 C 79.292969 138.15625 79.335938 138.828125 79.148438 139.628906 C 79.0625 139.953125 78.945313 140.292969 78.789063 140.644531 C 78.632813 140.988281 78.429688 141.339844 78.179688 141.691406 L 77.023438 141.410156 C 77.328125 141.089844 77.578125 140.761719 77.773438 140.425781 C 77.960938 140.082031 78.097656 139.730469 78.179688 139.363281 C 78.292969 138.886719 78.292969 138.5 78.179688 138.207031 C 78.054688 137.90625 77.828125 137.714844 77.492188 137.628906 C 77.191406 137.558594 76.9375 137.59375 76.726563 137.738281 C 76.519531 137.886719 76.257813 138.253906 75.945313 138.847656 L 75.789063 139.160156 C 75.476563 139.777344 75.140625 140.1875 74.773438 140.394531 C 74.398438 140.605469 73.941406 140.644531 73.398438 140.519531 C 72.753906 140.363281 72.304688 140.03125 72.054688 139.519531 C 71.796875 139.011719 71.757813 138.378906 71.945313 137.628906 C 72.03125 137.253906 72.144531 136.90625 72.289063 136.582031 C 72.4375 136.261719 72.597656 135.972656 72.773438 135.722656 Z M 74.414063 131.5 C 74.289063 132.054688 74.429688 132.546875 74.835938 132.984375 C 75.234375 133.414063 75.84375 133.726563 76.664063 133.921875 C 77.5 134.121094 78.191406 134.121094 78.742188 133.921875 C 79.285156 133.714844 79.617188 133.335938 79.742188 132.78125 C 79.875 132.242188 79.746094 131.757813 79.351563 131.328125 C 78.957031 130.890625 78.347656 130.574219 77.523438 130.375 C 76.703125 130.179688 76.015625 130.183594 75.460938 130.390625 C 74.898438 130.589844 74.550781 130.960938 74.414063 131.5 Z M 73.460938 131.265625 C 73.679688 130.382813 74.171875 129.761719 74.929688 129.40625 C 75.691406 129.054688 76.640625 129.011719 77.773438 129.28125 C 78.910156 129.554688 79.734375 130.023438 80.257813 130.6875 C 80.789063 131.355469 80.945313 132.132813 80.726563 133.015625 C 80.515625 133.914063 80.03125 134.539063 79.273438 134.890625 C 78.503906 135.234375 77.550781 135.273438 76.414063 135 C 75.28125 134.730469 74.453125 134.265625 73.929688 133.609375 C 73.410156 132.945313 73.253906 132.164063 73.460938 131.265625 Z M 78.707031 122.246094 L 82.878906 123.246094 L 82.628906 124.261719 L 78.488281 123.277344 C 77.832031 123.113281 77.316406 123.105469 76.941406 123.261719 C 76.558594 123.417969 76.3125 123.726563 76.207031 124.183594 C 76.074219 124.726563 76.167969 125.207031 76.488281 125.621094 C 76.800781 126.039063 77.296875 126.332031 77.972656 126.496094 L 81.878906 127.433594 L 81.628906 128.464844 L 74.722656 126.808594 L 74.972656 125.777344 L 76.050781 126.027344 C 75.6875 125.683594 75.441406 125.324219 75.316406 124.949219 C 75.183594 124.566406 75.167969 124.152344 75.269531 123.714844 C 75.449219 123.007813 75.828125 122.527344 76.410156 122.277344 C 76.984375 122.027344 77.75 122.019531 78.707031 122.246094 Z M 80.867188 112.585938 C 81.023438 112.367188 81.28125 112.179688 81.632813 112.023438 C 81.976563 111.859375 82.4375 111.722656 83.007813 111.617188 L 85.789063 111.085938 L 85.507813 112.304688 L 82.867188 112.804688 C 82.191406 112.910156 81.722656 113.066406 81.460938 113.273438 C 81.203125 113.484375 81.019531 113.8125 80.914063 114.257813 L 80.617188 115.492188 L 84.507813 116.429688 L 84.242188 117.539063 L 75.023438 115.320313 L 75.632813 112.804688 C 75.863281 111.847656 76.253906 111.191406 76.804688 110.835938 C 77.347656 110.484375 78.066406 110.410156 78.960938 110.617188 C 79.535156 110.765625 79.988281 111.003906 80.320313 111.335938 C 80.644531 111.660156 80.828125 112.078125 80.867188 112.585938 Z M 76.320313 114.460938 L 79.585938 115.242188 L 79.929688 113.835938 C 80.066406 113.285156 80.023438 112.84375 79.804688 112.507813 C 79.585938 112.175781 79.210938 111.941406 78.679688 111.804688 C 78.140625 111.679688 77.703125 111.722656 77.367188 111.929688 C 77.035156 112.128906 76.800781 112.503906 76.664063 113.054688 Z M 79.230469 108.027344 L 79.464844 107.011719 L 86.371094 108.667969 L 86.136719 109.683594 Z M 76.527344 107.386719 L 76.761719 106.371094 L 78.214844 106.714844 L 77.980469 107.730469 Z M 79.800781 105.617188 L 80.066406 104.539063 L 86.332031 103.976563 L 80.988281 100.648438 L 81.253906 99.554688 L 87.597656 103.539063 L 87.269531 104.929688 Z M 86.039063 93.589844 L 86.585938 93.714844 L 85.460938 98.417969 C 86.265625 98.554688 86.914063 98.480469 87.414063 98.199219 C 87.90625 97.917969 88.226563 97.441406 88.382813 96.761719 C 88.476563 96.367188 88.511719 95.976563 88.492188 95.589844 C 88.480469 95.195313 88.414063 94.789063 88.289063 94.371094 L 89.367188 94.636719 C 89.449219 95.042969 89.492188 95.449219 89.492188 95.855469 C 89.492188 96.261719 89.445313 96.664063 89.351563 97.058594 C 89.109375 98.050781 88.601563 98.757813 87.820313 99.183594 C 87.039063 99.613281 86.101563 99.695313 85.007813 99.433594 C 83.875 99.164063 83.039063 98.675781 82.507813 97.964844 C 81.976563 97.246094 81.820313 96.425781 82.039063 95.496094 C 82.25 94.652344 82.710938 94.066406 83.429688 93.730469 C 84.140625 93.386719 85.007813 93.339844 86.039063 93.589844 Z M 85.445313 94.542969 C 84.832031 94.386719 84.300781 94.417969 83.851563 94.636719 C 83.40625 94.847656 83.125 95.207031 83.007813 95.714844 C 82.863281 96.289063 82.929688 96.789063 83.210938 97.214844 C 83.492188 97.644531 83.953125 97.960938 84.585938 98.167969 Z M 85.203125 87.773438 C 85.101563 87.878906 85.015625 87.992188 84.953125 88.117188 C 84.882813 88.242188 84.824219 88.390625 84.78125 88.554688 C 84.648438 89.128906 84.75 89.625 85.09375 90.039063 C 85.4375 90.445313 86 90.742188 86.78125 90.929688 L 90.421875 91.804688 L 90.171875 92.835938 L 83.265625 91.179688 L 83.515625 90.148438 L 84.59375 90.398438 C 84.21875 90.085938 83.96875 89.734375 83.84375 89.335938 C 83.71875 88.941406 83.71875 88.503906 83.84375 88.023438 C 83.855469 87.953125 83.875 87.875 83.90625 87.789063 C 83.9375 87.707031 83.980469 87.609375 84.03125 87.492188 Z M 85.203125 87.773438 "/>
</g>
</svg>

