<?xml version="1.0" encoding="UTF-8"?>
<svg xmlns="http://www.w3.org/2000/svg" xmlns:xlink="http://www.w3.org/1999/xlink" width="256pt" height="256pt" viewBox="0 0 256 256" version="1.1">
<g id="surface2">
<rect x="0" y="0" width="256" height="256" style="fill:rgb(94.901961%,93.72549%,91.372549%);fill-opacity:1;stroke:none;"/>
<path style=" stroke:none;fill-rule:evenodd;fill:rgb(60%,70.196078%,80%);fill-opacity:1;" d="M -4 114.269531 L 7.640625 105.605469 L 14.273438 102.222656 L 16.613281 97.210938 L 19.671875 82.648438 L 21.101563 70.03125 L 19.023438 60.148438 L 21.492188 52.019531 L 25.71875 46.425781 L 31.3125 36.734375 L 34.042969 26.332031 L 34.042969 17.164063 L 29.425781 7.667969 L 24.351563 5.261719 L 20.125 -0.332031 L 19.757813 -4 L -4 -4 Z M -4 114.269531 "/>
<path style="fill:none;stroke-width:1;stroke-linecap:round;stroke-linejoin:round;stroke:rgb(70.196078%,77.647059%,83.137255%);stroke-opacity:1;stroke-miterlimit:10;" d="M -4 114.269531 L 7.640625 105.605469 L 14.273438 102.222656 L 16.613281 97.210938 L 19.671875 82.648438 L 21.101563 70.03125 L 19.023438 60.148438 L 21.492188 52.019531 L 25.71875 46.425781 L 31.3125 36.734375 L 34.042969 26.332031 L 34.042969 17.164063 L 29.425781 7.667969 L 24.351563 5.261719 L 20.125 -0.332031 L 19.757813 -4 L -4 -4 L -4 114.269531 "/>
</g>
</svg>

