<?xml version="1.0" encoding="UTF-8"?>
<svg xmlns="http://www.w3.org/2000/svg" xmlns:xlink="http://www.w3.org/1999/xlink" width="256pt" height="256pt" viewBox="0 0 256 256" version="1.1">
<g id="surface2">
<rect x="0" y="0" width="256" height="256" style="fill:rgb(60%,70.196078%,80%);fill-opacity:1;stroke:none;"/>
<path style=" stroke:none;fill-rule:evenodd;fill:rgb(94.901961%,93.72549%,91.372549%);fill-opacity:1;" d="M 79.847656 73.796875 L 75.910156 80.308594 L 66.484375 82.632813 L 64.421875 73.796875 Z M 79.847656 73.796875 "/>
<path style=" stroke:none;fill-rule:evenodd;fill:rgb(94.901961%,93.72549%,91.372549%);fill-opacity:1;" d="M 40.035156 80.441406 L 35.4375 81.480469 L 30.011719 80.128906 L 17.410156 79.304688 L -0.347656 83.507813 L -3.527344 86.972656 L -4 88.355469 L -4 73.796875 L 38.859375 73.796875 Z M 40.035156 80.441406 "/>
<path style=" stroke:none;fill-rule:evenodd;fill:rgb(94.901961%,93.72549%,91.372549%);fill-opacity:1;" d="M 259 -4 L -4 -4 L 73.316406 -4 L 71.074219 3.109375 L 81.757813 14.550781 L 88.046875 29.511719 L 84.839844 49.125 L 90.433594 56.292969 L 75.910156 80.308594 L 66.484375 82.632813 L 64.09375 72.386719 L 57.871094 70.4375 L 54.035156 63.835938 L 49.328125 61.613281 L 43.792969 64.65625 L 39.257813 69.480469 L 38.859375 73.792969 L 40.035156 80.441406 L 35.4375 81.480469 L 30.011719 80.128906 L 17.410156 79.304688 L -0.347656 83.507813 L -3.527344 86.972656 L -4 88.355469 L -4 -4 Z M 259 -4 "/>
<path style=" stroke:none;fill-rule:evenodd;fill:rgb(70.980392%,82.352941%,61.176471%);fill-opacity:1;" d="M -4 24.640625 L 43.75 62.246094 L 49 61.246094 L 55.195313 63.597656 L 56 65.996094 L 59.246094 70.75 L 62.25 69.996094 L 70.996094 75.996094 L 76.246094 75.75 L 88.25 57.246094 L 84.246094 53.996094 L 82.496094 48.746094 L 81.746094 40.496094 L 82.75 33 L 83 27.746094 L 81.746094 15.996094 L 79.5 12.746094 L 62.59375 -4 L -2.15625 -4 L -4 -1.546875 Z M -4 24.640625 "/>
<path style="fill:none;stroke-width:8;stroke-linecap:round;stroke-linejoin:round;stroke:rgb(75.686275%,70.980392%,61.568627%);stroke-opacity:1;stroke-miterlimit:10;" d="M -9 42.40625 L 22.75 66.875 L 24.125 68.25 L 24.9375 70.308594 L 25.625 71.8125 L 26.625 72.871094 L 27.8125 73.375 L 29.417969 73.261719 L 30.417969 72.324219 L 30.8125 70.4375 L 30.125 68.9375 L 28.0625 67.371094 L -9 39.347656 "/>
<path style="fill:none;stroke-width:8;stroke-linecap:round;stroke-linejoin:round;stroke:rgb(75.686275%,70.980392%,61.568627%);stroke-opacity:1;stroke-miterlimit:10;" d="M -0.0859375 -9 L -2.628906 -5.5 L -6.570313 -0.1875 L -9 4.707031 "/>
<path style="fill:none;stroke-width:6;stroke-linecap:round;stroke-linejoin:round;stroke:rgb(100%,100%,100%);stroke-opacity:1;stroke-miterlimit:10;" d="M -9 42.40625 L 22.75 66.875 L 24.125 68.25 L 24.9375 70.308594 L 25.625 71.8125 L 26.625 72.871094 L 27.8125 73.375 L 29.417969 73.261719 L 30.417969 72.324219 L 30.8125 70.4375 L 30.125 68.9375 L 28.0625 67.371094 L -9 39.347656 "/>
<path style="fill:none;stroke-width:6;stroke-linecap:round;stroke-linejoin:round;stroke:rgb(100%,99.215686%,54.509804%);stroke-opacity:1;stroke-miterlimit:10;" d="M -0.0859375 -9 L -2.628906 -5.5 L -6.570313 -0.1875 L -9 4.707031 "/>
<path style="fill:none;stroke-width:3;stroke-linecap:round;stroke-linejoin:round;stroke:rgb(100%,100%,100%);stroke-opacity:1;stroke-miterlimit:10;" d="M 16.550781 11.34375 L 16.550781 17.578125 L 17.722656 17.578125 C 18.722656 17.578125 19.449219 17.328125 19.910156 16.828125 C 20.378906 16.328125 20.613281 15.539063 20.613281 14.453125 C 20.613281 13.382813 20.378906 12.59375 19.910156 12.09375 C 19.449219 11.59375 18.722656 11.34375 17.722656 11.34375 Z M 15.566406 10.453125 L 17.566406 10.453125 C 18.972656 10.453125 19.996094 10.777344 20.644531 11.421875 C 21.300781 12.070313 21.628906 13.078125 21.628906 14.453125 C 21.628906 15.839844 21.300781 16.855469 20.644531 17.5 C 19.988281 18.148438 18.960938 18.46875 17.566406 18.46875 L 15.566406 18.46875 Z M 25.613281 15.4375 C 24.894531 15.4375 24.394531 15.53125 24.113281 15.71875 C 23.839844 15.90625 23.707031 16.21875 23.707031 16.65625 C 23.707031 17 23.808594 17.277344 24.019531 17.484375 C 24.226563 17.695313 24.507813 17.796875 24.863281 17.796875 C 25.363281 17.796875 25.757813 17.605469 26.050781 17.21875 C 26.351563 16.824219 26.503906 16.308594 26.503906 15.671875 L 26.503906 15.4375 Z M 27.394531 15.03125 L 27.394531 18.46875 L 26.503906 18.46875 L 26.503906 17.5625 C 26.292969 17.929688 26.039063 18.199219 25.738281 18.375 C 25.433594 18.539063 25.066406 18.625 24.628906 18.625 C 24.074219 18.625 23.632813 18.453125 23.300781 18.109375 C 22.976563 17.765625 22.816406 17.304688 22.816406 16.71875 C 22.816406 16.042969 23.019531 15.53125 23.425781 15.1875 C 23.832031 14.84375 24.441406 14.671875 25.253906 14.671875 L 26.503906 14.671875 L 26.503906 14.578125 C 26.503906 14.121094 26.367188 13.765625 26.097656 13.515625 C 25.824219 13.265625 25.445313 13.140625 24.957031 13.140625 C 24.652344 13.140625 24.351563 13.183594 24.050781 13.265625 C 23.757813 13.351563 23.476563 13.476563 23.207031 13.640625 L 23.207031 12.734375 C 23.539063 12.589844 23.855469 12.484375 24.160156 12.421875 C 24.460938 12.351563 24.757813 12.3125 25.050781 12.3125 C 25.832031 12.3125 26.414063 12.539063 26.800781 12.984375 C 27.195313 13.433594 27.394531 14.117188 27.394531 15.03125 Z M 28.582031 12.453125 L 29.519531 12.453125 L 31.207031 17.5 L 32.910156 12.453125 L 33.847656 12.453125 L 31.816406 18.46875 L 30.613281 18.46875 Z M 39.707031 15.21875 L 39.707031 15.703125 L 35.613281 15.703125 C 35.652344 16.382813 35.839844 16.898438 36.175781 17.25 C 36.507813 17.605469 36.964844 17.78125 37.550781 17.78125 C 37.894531 17.78125 38.222656 17.734375 38.535156 17.640625 C 38.855469 17.546875 39.179688 17.414063 39.503906 17.234375 L 39.503906 18.15625 C 39.179688 18.3125 38.851563 18.429688 38.519531 18.5 C 38.183594 18.582031 37.847656 18.625 37.503906 18.625 C 36.636719 18.625 35.949219 18.351563 35.441406 17.796875 C 34.941406 17.234375 34.691406 16.476563 34.691406 15.515625 C 34.691406 14.539063 34.929688 13.761719 35.410156 13.1875 C 35.886719 12.605469 36.535156 12.3125 37.347656 12.3125 C 38.074219 12.3125 38.648438 12.574219 39.066406 13.09375 C 39.492188 13.617188 39.707031 14.324219 39.707031 15.21875 Z M 38.816406 14.921875 C 38.804688 14.382813 38.667969 13.949219 38.410156 13.625 C 38.148438 13.304688 37.800781 13.140625 37.363281 13.140625 C 36.863281 13.140625 36.460938 13.296875 36.160156 13.609375 C 35.855469 13.921875 35.683594 14.359375 35.644531 14.921875 Z M 45.675781 14.84375 L 45.675781 18.46875 L 44.785156 18.46875 L 44.785156 14.875 C 44.785156 14.304688 44.679688 13.875 44.472656 13.59375 C 44.273438 13.3125 43.976563 13.171875 43.582031 13.171875 C 43.101563 13.171875 42.722656 13.34375 42.441406 13.6875 C 42.167969 14.023438 42.035156 14.480469 42.035156 15.0625 L 42.035156 18.46875 L 41.128906 18.46875 L 41.128906 12.453125 L 42.035156 12.453125 L 42.035156 13.390625 C 42.242188 13.027344 42.488281 12.757813 42.769531 12.578125 C 43.058594 12.402344 43.398438 12.3125 43.785156 12.3125 C 44.398438 12.3125 44.867188 12.527344 45.191406 12.953125 C 45.511719 13.382813 45.675781 14.011719 45.675781 14.84375 Z M 48.316406 17.5625 L 48.316406 20.75 L 47.410156 20.75 L 47.410156 12.453125 L 48.316406 12.453125 L 48.316406 13.359375 C 48.503906 13.007813 48.738281 12.746094 49.019531 12.578125 C 49.300781 12.402344 49.644531 12.3125 50.050781 12.3125 C 50.707031 12.3125 51.238281 12.605469 51.644531 13.1875 C 52.050781 13.761719 52.253906 14.523438 52.253906 15.46875 C 52.253906 16.417969 52.050781 17.183594 51.644531 17.765625 C 51.238281 18.339844 50.707031 18.625 50.050781 18.625 C 49.644531 18.625 49.300781 18.539063 49.019531 18.375 C 48.738281 18.199219 48.503906 17.929688 48.316406 17.5625 Z M 51.332031 15.46875 C 51.332031 14.742188 51.195313 14.171875 50.925781 13.765625 C 50.664063 13.351563 50.300781 13.140625 49.832031 13.140625 C 49.351563 13.140625 48.976563 13.351563 48.707031 13.765625 C 48.445313 14.171875 48.316406 14.742188 48.316406 15.46875 C 48.316406 16.199219 48.445313 16.773438 48.707031 17.1875 C 48.976563 17.59375 49.351563 17.796875 49.832031 17.796875 C 50.300781 17.796875 50.664063 17.59375 50.925781 17.1875 C 51.195313 16.773438 51.332031 16.199219 51.332031 15.46875 Z M 55.832031 13.140625 C 55.351563 13.140625 54.972656 13.351563 54.691406 13.765625 C 54.417969 14.183594 54.285156 14.75 54.285156 15.46875 C 54.285156 16.1875 54.417969 16.757813 54.691406 17.171875 C 54.972656 17.578125 55.351563 17.78125 55.832031 17.78125 C 56.308594 17.78125 56.683594 17.578125 56.957031 17.171875 C 57.238281 16.757813 57.378906 16.1875 57.378906 15.46875 C 57.378906 14.75 57.238281 14.183594 56.957031 13.765625 C 56.683594 13.351563 56.308594 13.140625 55.832031 13.140625 Z M 55.832031 12.3125 C 56.601563 12.3125 57.207031 12.59375 57.644531 13.15625 C 58.089844 13.710938 58.316406 14.480469 58.316406 15.46875 C 58.316406 16.449219 58.089844 17.21875 57.644531 17.78125 C 57.207031 18.34375 56.601563 18.625 55.832031 18.625 C 55.050781 18.625 54.441406 18.34375 54.003906 17.78125 C 53.566406 17.21875 53.347656 16.449219 53.347656 15.46875 C 53.347656 14.480469 53.566406 13.710938 54.003906 13.15625 C 54.441406 12.59375 55.050781 12.3125 55.832031 12.3125 Z M 62.925781 13.375 C 62.820313 13.3125 62.707031 13.265625 62.582031 13.234375 C 62.464844 13.203125 62.339844 13.1875 62.207031 13.1875 C 61.695313 13.1875 61.304688 13.371094 61.035156 13.734375 C 60.773438 14.101563 60.644531 14.621094 60.644531 15.296875 L 60.644531 18.46875 L 59.738281 18.46875 L 59.738281 12.453125 L 60.644531 12.453125 L 60.644531 13.390625 C 60.832031 13.027344 61.070313 12.757813 61.363281 12.578125 C 61.664063 12.402344 62.027344 12.3125 62.457031 12.3125 C 62.519531 12.3125 62.585938 12.320313 62.660156 12.328125 C 62.742188 12.328125 62.824219 12.339844 62.910156 12.359375 Z M 64.722656 10.75 L 64.722656 12.453125 L 66.550781 12.453125 L 66.550781 13.21875 L 64.722656 13.21875 L 64.722656 16.484375 C 64.722656 16.976563 64.777344 17.292969 64.894531 17.4375 C 65.019531 17.574219 65.269531 17.640625 65.644531 17.640625 L 66.550781 17.640625 L 66.550781 18.46875 L 65.644531 18.46875 C 64.957031 18.46875 64.480469 18.328125 64.222656 18.046875 C 63.960938 17.757813 63.832031 17.234375 63.832031 16.484375 L 63.832031 13.21875 L 63.175781 13.21875 L 63.175781 12.453125 L 63.832031 12.453125 L 63.832031 10.75 Z M 32.050781 22.34375 L 32.050781 25.359375 L 33.269531 25.359375 C 33.726563 25.359375 34.082031 25.230469 34.332031 24.96875 C 34.582031 24.699219 34.707031 24.324219 34.707031 23.84375 C 34.707031 23.367188 34.582031 22.996094 34.332031 22.734375 C 34.082031 22.476563 33.726563 22.34375 33.269531 22.34375 Z M 31.066406 21.453125 L 33.269531 21.453125 C 34.082031 21.453125 34.691406 21.65625 35.097656 22.0625 C 35.511719 22.46875 35.722656 23.0625 35.722656 23.84375 C 35.722656 24.636719 35.511719 25.234375 35.097656 25.640625 C 34.691406 26.046875 34.082031 26.25 33.269531 26.25 L 32.050781 26.25 L 32.050781 29.46875 L 31.066406 29.46875 Z M 39.457031 26.4375 C 38.738281 26.4375 38.238281 26.53125 37.957031 26.71875 C 37.683594 26.90625 37.550781 27.21875 37.550781 27.65625 C 37.550781 28 37.652344 28.277344 37.863281 28.484375 C 38.070313 28.695313 38.351563 28.796875 38.707031 28.796875 C 39.207031 28.796875 39.601563 28.605469 39.894531 28.21875 C 40.195313 27.824219 40.347656 27.308594 40.347656 26.671875 L 40.347656 26.4375 Z M 41.238281 26.03125 L 41.238281 29.46875 L 40.347656 29.46875 L 40.347656 28.5625 C 40.136719 28.929688 39.882813 29.199219 39.582031 29.375 C 39.277344 29.539063 38.910156 29.625 38.472656 29.625 C 37.917969 29.625 37.476563 29.453125 37.144531 29.109375 C 36.820313 28.765625 36.660156 28.304688 36.660156 27.71875 C 36.660156 27.042969 36.863281 26.53125 37.269531 26.1875 C 37.675781 25.84375 38.285156 25.671875 39.097656 25.671875 L 40.347656 25.671875 L 40.347656 25.578125 C 40.347656 25.121094 40.210938 24.765625 39.941406 24.515625 C 39.667969 24.265625 39.289063 24.140625 38.800781 24.140625 C 38.496094 24.140625 38.195313 24.183594 37.894531 24.265625 C 37.601563 24.351563 37.320313 24.476563 37.050781 24.640625 L 37.050781 23.734375 C 37.382813 23.589844 37.699219 23.484375 38.003906 23.421875 C 38.304688 23.351563 38.601563 23.3125 38.894531 23.3125 C 39.675781 23.3125 40.257813 23.539063 40.644531 23.984375 C 41.039063 24.433594 41.238281 25.117188 41.238281 26.03125 Z M 46.207031 24.375 C 46.101563 24.3125 45.988281 24.265625 45.863281 24.234375 C 45.746094 24.203125 45.621094 24.1875 45.488281 24.1875 C 44.976563 24.1875 44.585938 24.371094 44.316406 24.734375 C 44.054688 25.101563 43.925781 25.621094 43.925781 26.296875 L 43.925781 29.46875 L 43.019531 29.46875 L 43.019531 23.453125 L 43.925781 23.453125 L 43.925781 24.390625 C 44.113281 24.027344 44.351563 23.757813 44.644531 23.578125 C 44.945313 23.402344 45.308594 23.3125 45.738281 23.3125 C 45.800781 23.3125 45.867188 23.320313 45.941406 23.328125 C 46.023438 23.328125 46.105469 23.339844 46.191406 23.359375 Z M 47.082031 21.109375 L 47.988281 21.109375 L 47.988281 26.046875 L 50.644531 23.453125 L 51.785156 23.453125 L 48.910156 26.265625 L 51.894531 29.46875 L 50.738281 29.46875 L 47.988281 26.53125 L 47.988281 29.46875 L 47.082031 29.46875 Z M 47.082031 21.109375 "/>
<path style=" stroke:none;fill-rule:evenodd;fill:rgb(0%,0%,0%);fill-opacity:1;" d="M 16.550781 11.34375 L 16.550781 17.578125 L 17.722656 17.578125 C 18.722656 17.578125 19.449219 17.328125 19.910156 16.828125 C 20.378906 16.328125 20.613281 15.539063 20.613281 14.453125 C 20.613281 13.382813 20.378906 12.59375 19.910156 12.09375 C 19.449219 11.59375 18.722656 11.34375 17.722656 11.34375 Z M 15.566406 10.453125 L 17.566406 10.453125 C 18.972656 10.453125 19.996094 10.777344 20.644531 11.421875 C 21.300781 12.070313 21.628906 13.078125 21.628906 14.453125 C 21.628906 15.839844 21.300781 16.855469 20.644531 17.5 C 19.988281 18.148438 18.960938 18.46875 17.566406 18.46875 L 15.566406 18.46875 Z M 25.613281 15.4375 C 24.894531 15.4375 24.394531 15.53125 24.113281 15.71875 C 23.839844 15.90625 23.707031 16.21875 23.707031 16.65625 C 23.707031 17 23.808594 17.277344 24.019531 17.484375 C 24.226563 17.695313 24.507813 17.796875 24.863281 17.796875 C 25.363281 17.796875 25.757813 17.605469 26.050781 17.21875 C 26.351563 16.824219 26.503906 16.308594 26.503906 15.671875 L 26.503906 15.4375 Z M 27.394531 15.03125 L 27.394531 18.46875 L 26.503906 18.46875 L 26.503906 17.5625 C 26.292969 17.929688 26.039063 18.199219 25.738281 18.375 C 25.433594 18.539063 25.066406 18.625 24.628906 18.625 C 24.074219 18.625 23.632813 18.453125 23.300781 18.109375 C 22.976563 17.765625 22.816406 17.304688 22.816406 16.71875 C 22.816406 16.042969 23.019531 15.53125 23.425781 15.1875 C 23.832031 14.84375 24.441406 14.671875 25.253906 14.671875 L 26.503906 14.671875 L 26.503906 14.578125 C 26.503906 14.121094 26.367188 13.765625 26.097656 13.515625 C 25.824219 13.265625 25.445313 13.140625 24.957031 13.140625 C 24.652344 13.140625 24.351563 13.183594 24.050781 13.265625 C 23.757813 13.351563 23.476563 13.476563 23.207031 13.640625 L 23.207031 12.734375 C 23.539063 12.589844 23.855469 12.484375 24.160156 12.421875 C 24.460938 12.351563 24.757813 12.3125 25.050781 12.3125 C 25.832031 12.3125 26.414063 12.539063 26.800781 12.984375 C 27.195313 13.433594 27.394531 14.117188 27.394531 15.03125 Z M 28.582031 12.453125 L 29.519531 12.453125 L 31.207031 17.5 L 32.910156 12.453125 L 33.847656 12.453125 L 31.816406 18.46875 L 30.613281 18.46875 Z M 39.707031 15.21875 L 39.707031 15.703125 L 35.613281 15.703125 C 35.652344 16.382813 35.839844 16.898438 36.175781 17.25 C 36.507813 17.605469 36.964844 17.78125 37.550781 17.78125 C 37.894531 17.78125 38.222656 17.734375 38.535156 17.640625 C 38.855469 17.546875 39.179688 17.414063 39.503906 17.234375 L 39.503906 18.15625 C 39.179688 18.3125 38.851563 18.429688 38.519531 18.5 C 38.183594 18.582031 37.847656 18.625 37.503906 18.625 C 36.636719 18.625 35.949219 18.351563 35.441406 17.796875 C 34.941406 17.234375 34.691406 16.476563 34.691406 15.515625 C 34.691406 14.539063 34.929688 13.761719 35.410156 13.1875 C 35.886719 12.605469 36.535156 12.3125 37.347656 12.3125 C 38.074219 12.3125 38.648438 12.574219 39.066406 13.09375 C 39.492188 13.617188 39.707031 14.324219 39.707031 15.21875 Z M 38.816406 14.921875 C 38.804688 14.382813 38.667969 13.949219 38.410156 13.625 C 38.148438 13.304688 37.800781 13.140625 37.363281 13.140625 C 36.863281 13.140625 36.460938 13.296875 36.160156 13.609375 C 35.855469 13.921875 35.683594 14.359375 35.644531 14.921875 Z M 45.675781 14.84375 L 45.675781 18.46875 L 44.785156 18.46875 L 44.785156 14.875 C 44.785156 14.304688 44.679688 13.875 44.472656 13.59375 C 44.273438 13.3125 43.976563 13.171875 43.582031 13.171875 C 43.101563 13.171875 42.722656 13.34375 42.441406 13.6875 C 42.167969 14.023438 42.035156 14.480469 42.035156 15.0625 L 42.035156 18.46875 L 41.128906 18.46875 L 41.128906 12.453125 L 42.035156 12.453125 L 42.035156 13.390625 C 42.242188 13.027344 42.488281 12.757813 42.769531 12.578125 C 43.058594 12.402344 43.398438 12.3125 43.785156 12.3125 C 44.398438 12.3125 44.867188 12.527344 45.191406 12.953125 C 45.511719 13.382813 45.675781 14.011719 45.675781 14.84375 Z M 48.316406 17.5625 L 48.316406 20.75 L 47.410156 20.75 L 47.410156 12.453125 L 48.316406 12.453125 L 48.316406 13.359375 C 48.503906 13.007813 48.738281 12.746094 49.019531 12.578125 C 49.300781 12.402344 49.644531 12.3125 50.050781 12.3125 C 50.707031 12.3125 51.238281 12.605469 51.644531 13.1875 C 52.050781 13.761719 52.253906 14.523438 52.253906 15.46875 C 52.253906 16.417969 52.050781 17.183594 51.644531 17.765625 C 51.238281 18.339844 50.707031 18.625 50.050781 18.625 C 49.644531 18.625 49.300781 18.539063 49.019531 18.375 C 48.738281 18.199219 48.503906 17.929688 48.316406 17.5625 Z M 51.332031 15.46875 C 51.332031 14.742188 51.195313 14.171875 50.925781 13.765625 C 50.664063 13.351563 50.300781 13.140625 49.832031 13.140625 C 49.351563 13.140625 48.976563 13.351563 48.707031 13.765625 C 48.445313 14.171875 48.316406 14.742188 48.316406 15.46875 C 48.316406 16.199219 48.445313 16.773438 48.707031 17.1875 C 48.976563 17.59375 49.351563 17.796875 49.832031 17.796875 C 50.300781 17.796875 50.664063 17.59375 50.925781 17.1875 C 51.195313 16.773438 51.332031 16.199219 51.332031 15.46875 Z M 55.832031 13.140625 C 55.351563 13.140625 54.972656 13.351563 54.691406 13.765625 C 54.417969 14.183594 54.285156 14.75 54.285156 15.46875 C 54.285156 16.1875 54.417969 16.757813 54.691406 17.171875 C 54.972656 17.578125 55.351563 17.78125 55.832031 17.78125 C 56.308594 17.78125 56.683594 17.578125 56.957031 17.171875 C 57.238281 16.757813 57.378906 16.1875 57.378906 15.46875 C 57.378906 14.75 57.238281 14.183594 56.957031 13.765625 C 56.683594 13.351563 56.308594 13.140625 55.832031 13.140625 Z M 55.832031 12.3125 C 56.601563 12.3125 57.207031 12.59375 57.644531 13.15625 C 58.089844 13.710938 58.316406 14.480469 58.316406 15.46875 C 58.316406 16.449219 58.089844 17.21875 57.644531 17.78125 C 57.207031 18.34375 56.601563 18.625 55.832031 18.625 C 55.050781 18.625 54.441406 18.34375 54.003906 17.78125 C 53.566406 17.21875 53.347656 16.449219 53.347656 15.46875 C 53.347656 14.480469 53.566406 13.710938 54.003906 13.15625 C 54.441406 12.59375 55.050781 12.3125 55.832031 12.3125 Z M 62.925781 13.375 C 62.820313 13.3125 62.707031 13.265625 62.582031 13.234375 C 62.464844 13.203125 62.339844 13.1875 62.207031 13.1875 C 61.695313 13.1875 61.304688 13.371094 61.035156 13.734375 C 60.773438 14.101563 60.644531 14.621094 60.644531 15.296875 L 60.644531 18.46875 L 59.738281 18.46875 L 59.738281 12.453125 L 60.644531 12.453125 L 60.644531 13.390625 C 60.832031 13.027344 61.070313 12.757813 61.363281 12.578125 C 61.664063 12.402344 62.027344 12.3125 62.457031 12.3125 C 62.519531 12.3125 62.585938 12.320313 62.660156 12.328125 C 62.742188 12.328125 62.824219 12.339844 62.910156 12.359375 Z M 64.722656 10.75 L 64.722656 12.453125 L 66.550781 12.453125 L 66.550781 13.21875 L 64.722656 13.21875 L 64.722656 16.484375 C 64.722656 16.976563 64.777344 17.292969 64.894531 17.4375 C 65.019531 17.574219 65.269531 17.640625 65.644531 17.640625 L 66.550781 17.640625 L 66.550781 18.46875 L 65.644531 18.46875 C 64.957031 18.46875 64.480469 18.328125 64.222656 18.046875 C 63.960938 17.757813 63.832031 17.234375 63.832031 16.484375 L 63.832031 13.21875 L 63.175781 13.21875 L 63.175781 12.453125 L 63.832031 12.453125 L 63.832031 10.75 Z M 32.050781 22.34375 L 32.050781 25.359375 L 33.269531 25.359375 C 33.726563 25.359375 34.082031 25.230469 34.332031 24.96875 C 34.582031 24.699219 34.707031 24.324219 34.707031 23.84375 C 34.707031 23.367188 34.582031 22.996094 34.332031 22.734375 C 34.082031 22.476563 33.726563 22.34375 33.269531 22.34375 Z M 31.066406 21.453125 L 33.269531 21.453125 C 34.082031 21.453125 34.691406 21.65625 35.097656 22.0625 C 35.511719 22.46875 35.722656 23.0625 35.722656 23.84375 C 35.722656 24.636719 35.511719 25.234375 35.097656 25.640625 C 34.691406 26.046875 34.082031 26.25 33.269531 26.25 L 32.050781 26.25 L 32.050781 29.46875 L 31.066406 29.46875 Z M 39.457031 26.4375 C 38.738281 26.4375 38.238281 26.53125 37.957031 26.71875 C 37.683594 26.90625 37.550781 27.21875 37.550781 27.65625 C 37.550781 28 37.652344 28.277344 37.863281 28.484375 C 38.070313 28.695313 38.351563 28.796875 38.707031 28.796875 C 39.207031 28.796875 39.601563 28.605469 39.894531 28.21875 C 40.195313 27.824219 40.347656 27.308594 40.347656 26.671875 L 40.347656 26.4375 Z M 41.238281 26.03125 L 41.238281 29.46875 L 40.347656 29.46875 L 40.347656 28.5625 C 40.136719 28.929688 39.882813 29.199219 39.582031 29.375 C 39.277344 29.539063 38.910156 29.625 38.472656 29.625 C 37.917969 29.625 37.476563 29.453125 37.144531 29.109375 C 36.820313 28.765625 36.660156 28.304688 36.660156 27.71875 C 36.660156 27.042969 36.863281 26.53125 37.269531 26.1875 C 37.675781 25.84375 38.285156 25.671875 39.097656 25.671875 L 40.347656 25.671875 L 40.347656 25.578125 C 40.347656 25.121094 40.210938 24.765625 39.941406 24.515625 C 39.667969 24.265625 39.289063 24.140625 38.800781 24.140625 C 38.496094 24.140625 38.195313 24.183594 37.894531 24.265625 C 37.601563 24.351563 37.320313 24.476563 37.050781 24.640625 L 37.050781 23.734375 C 37.382813 23.589844 37.699219 23.484375 38.003906 23.421875 C 38.304688 23.351563 38.601563 23.3125 38.894531 23.3125 C 39.675781 23.3125 40.257813 23.539063 40.644531 23.984375 C 41.039063 24.433594 41.238281 25.117188 41.238281 26.03125 Z M 46.207031 24.375 C 46.101563 24.3125 45.988281 24.265625 45.863281 24.234375 C 45.746094 24.203125 45.621094 24.1875 45.488281 24.1875 C 44.976563 24.1875 44.585938 24.371094 44.316406 24.734375 C 44.054688 25.101563 43.925781 25.621094 43.925781 26.296875 L 43.925781 29.46875 L 43.019531 29.46875 L 43.019531 23.453125 L 43.925781 23.453125 L 43.925781 24.390625 C 44.113281 24.027344 44.351563 23.757813 44.644531 23.578125 C 44.945313 23.402344 45.308594 23.3125 45.738281 23.3125 C 45.800781 23.3125 45.867188 23.320313 45.941406 23.328125 C 46.023438 23.328125 46.105469 23.339844 46.191406 23.359375 Z M 47.082031 21.109375 L 47.988281 21.109375 L 47.988281 26.046875 L 50.644531 23.453125 L 51.785156 23.453125 L 48.910156 26.265625 L 51.894531 29.46875 L 50.738281 29.46875 L 47.988281 26.53125 L 47.988281 29.46875 L 47.082031 29.46875 Z M 47.082031 21.109375 "/>
</g>
</svg>

