<?xml version="1.0" encoding="UTF-8"?>
<svg xmlns="http://www.w3.org/2000/svg" xmlns:xlink="http://www.w3.org/1999/xlink" width="256pt" height="256pt" viewBox="0 0 256 256" version="1.1">
<g id="surface2">
<rect x="0" y="0" width="256" height="256" style="fill:rgb(94.901961%,93.72549%,91.372549%);fill-opacity:1;stroke:none;"/>
<path style=" stroke:none;fill-rule:evenodd;fill:rgb(79.607843%,84.705882%,76.470588%);fill-opacity:1;" d="M -4 260 L 79.695313 260 L 136.800781 204.066406 L 166.515625 116.722656 L 119.511719 84.722656 L 104.511719 100.722656 L 72.511719 69.722656 L 4.800781 34.289063 L -4 51.484375 Z M -4 260 "/>
<path style=" stroke:none;fill-rule:evenodd;fill:rgb(79.607843%,84.705882%,76.470588%);fill-opacity:1;" d="M -4 260 L 186.21875 260 L 187.738281 255.84375 L 208.617188 214.675781 L 224.34375 153.074219 L 226.894531 107.082031 L 236.460938 70.167969 L 246.09375 61.882813 L 212.347656 33.078125 L 214.09375 -2.316406 L 214.25 -4 L 260 -4 L 188.992188 -4 L 172.804688 99.890625 L 167.402344 116.691406 L 136.800781 204.066406 L 130.464844 212.824219 L 79.730469 260 Z M -4 260 "/>
<path style=" stroke:none;fill-rule:evenodd;fill:rgb(70.980392%,82.352941%,61.176471%);fill-opacity:1;" d="M -4 260 L 186.21875 260 L 187.738281 255.84375 L 208.617188 214.675781 L 224.34375 153.074219 L 226.894531 107.082031 L 236.460938 70.167969 L 246.09375 61.882813 L 212.347656 33.078125 L 214.09375 -2.316406 L 214.25 -4 L 260 -4 L 188.992188 -4 L 172.804688 99.890625 L 167.402344 116.691406 L 136.800781 204.066406 L 130.464844 212.824219 L 79.730469 260 Z M -4 260 "/>
<path style=" stroke:none;fill-rule:evenodd;fill:rgb(79.607843%,84.705882%,76.470588%);fill-opacity:1;" d="M -4 260 L 186.21875 260 L 187.738281 255.84375 L 208.617188 214.675781 L 224.34375 153.074219 L 226.894531 107.082031 L 236.460938 70.167969 L 246.09375 61.882813 L 212.347656 33.078125 L 214.09375 -2.316406 L 214.25 -4 L 260 -4 L 188.992188 -4 L 172.804688 99.890625 L 167.402344 116.691406 L 136.800781 204.066406 L 130.464844 212.824219 L 79.730469 260 Z M -4 260 "/>
<path style=" stroke:none;fill-rule:evenodd;fill:rgb(70.980392%,82.352941%,61.176471%);fill-opacity:1;" d="M 260 260 L 260 70.882813 L 247.054688 62.636719 L 241.695313 66.683594 L 236.460938 70.167969 L 227.894531 106.882813 L 214.183594 213.414063 L 209.429688 214.230469 L 186.445313 260 Z M 260 260 "/>
<path style=" stroke:none;fill-rule:evenodd;fill:rgb(79.607843%,84.705882%,76.470588%);fill-opacity:1;" d="M 72.078125 65.257813 L 78.832031 68.570313 L 77.976563 71.167969 L 107.417969 99.546875 L 117.171875 80.761719 L 167.515625 113.355469 L 171.277344 99.847656 L 188.355469 -4 L 151.511719 -4 L 157.742188 0.3125 L 148.855469 13.269531 L 137.765625 5.910156 L 125.675781 23.269531 L 82.96875 -4 L 26.585938 -4 L 9.375 34.960938 Z M 72.078125 65.257813 "/>
<path style=" stroke:none;fill-rule:evenodd;fill:rgb(87.058824%,82.352941%,67.45098%);fill-opacity:1;" d="M -4 -4 L -4 47.300781 L -3.703125 46.664063 L 19.789063 -4 Z M -4 -4 "/>
<path style=" stroke:none;fill-rule:evenodd;fill:rgb(79.607843%,84.705882%,76.470588%);fill-opacity:1;" d="M 230.84375 13.453125 L 230.054688 15.039063 L 235.800781 13.496094 L 243.773438 14.59375 L 260 25.246094 L 260 -4 L 214.484375 -4 L 214.335938 -2.433594 Z M 230.84375 13.453125 "/>
<path style=" stroke:none;fill-rule:evenodd;fill:rgb(79.607843%,84.705882%,76.470588%);fill-opacity:1;" d="M 230.84375 13.453125 L 230.054688 15.039063 L 235.800781 13.496094 L 243.773438 14.59375 L 260 25.246094 L 260 -4 L 214.484375 -4 L 214.335938 -2.433594 Z M 230.84375 13.453125 "/>
<path style=" stroke:none;fill-rule:evenodd;fill:rgb(60%,70.196078%,80%);fill-opacity:1;" d="M 4.230469 258.019531 L 3.949219 259 L 44.644531 259 L 45.628906 256.222656 L 49.027344 254.222656 L 55.628906 250.824219 L 64.429688 250.625 L 69.628906 248.621094 L 69.628906 240.421875 L 66.230469 237.820313 L 64.628906 233.824219 L 64.628906 230.222656 L 66.429688 226.621094 L 69.832031 223.222656 L 68.828125 220.019531 L 61.429688 214.222656 L 59.230469 214.621094 L 60.230469 224.824219 L 61.03125 232.222656 L 59.828125 235.421875 L 58.628906 240.222656 L 52.628906 247.621094 L 46.429688 249.222656 L 40.828125 249.421875 L 38.03125 245.621094 L 38.03125 241.023438 L 39.429688 238.421875 L 40.628906 236.222656 L 38.652344 232.988281 L 38.03125 228.621094 L 43.230469 221.222656 L 47.828125 214.023438 L 47.230469 210.421875 L 47.953125 205.988281 L 49.328125 202.839844 L 52.226563 202.421875 L 50.832031 199.421875 L 44.328125 197.671875 L 41.230469 196.421875 L 36.230469 196.222656 L 33.828125 197.421875 L 32.429688 205.222656 L 30.027344 219.421875 L 21.828125 233.621094 L 16.027344 237.421875 L 11.027344 241.625 L 4.628906 241.625 L 1.828125 244.421875 Z M 4.230469 258.019531 "/>
<path style="fill:none;stroke-width:1;stroke-linecap:round;stroke-linejoin:round;stroke:rgb(70.196078%,77.647059%,83.137255%);stroke-opacity:1;stroke-miterlimit:10;" d="M 4.230469 258.019531 L 3.949219 259 L 44.644531 259 L 45.628906 256.222656 L 49.027344 254.222656 L 55.628906 250.824219 L 64.429688 250.625 L 69.628906 248.621094 L 69.628906 240.421875 L 66.230469 237.820313 L 64.628906 233.824219 L 64.628906 230.222656 L 66.429688 226.621094 L 69.832031 223.222656 L 68.828125 220.019531 L 61.429688 214.222656 L 59.230469 214.621094 L 60.230469 224.824219 L 61.03125 232.222656 L 59.828125 235.421875 L 58.628906 240.222656 L 52.628906 247.621094 L 46.429688 249.222656 L 40.828125 249.421875 L 38.03125 245.621094 L 38.03125 241.023438 L 39.429688 238.421875 L 40.628906 236.222656 L 38.652344 232.988281 L 38.03125 228.621094 L 43.230469 221.222656 L 47.828125 214.023438 L 47.230469 210.421875 L 47.953125 205.988281 L 49.328125 202.839844 L 52.226563 202.421875 L 50.832031 199.421875 L 44.328125 197.671875 L 41.230469 196.421875 L 36.230469 196.222656 L 33.828125 197.421875 L 32.429688 205.222656 L 30.027344 219.421875 L 21.828125 233.621094 L 16.027344 237.421875 L 11.027344 241.625 L 4.628906 241.625 L 1.828125 244.421875 L 4.230469 258.019531 "/>
<path style=" stroke:none;fill-rule:evenodd;fill:rgb(60%,70.196078%,80%);fill-opacity:1;" d="M 128.640625 259 L 129.027344 256.023438 L 127.828125 253.824219 L 124.429688 251.222656 L 122.832031 250.824219 L 120.628906 253.621094 L 114.027344 255.820313 L 112.03125 255.820313 L 109.972656 259 Z M 128.640625 259 "/>
<path style="fill:none;stroke-width:1;stroke-linecap:round;stroke-linejoin:round;stroke:rgb(70.196078%,77.647059%,83.137255%);stroke-opacity:1;stroke-miterlimit:10;" d="M 128.640625 259 L 129.027344 256.023438 L 127.828125 253.824219 L 124.429688 251.222656 L 122.832031 250.824219 L 120.628906 253.621094 L 114.027344 255.820313 L 112.03125 255.820313 L 109.972656 259 L 128.640625 259 "/>
<path style=" stroke:none;fill-rule:evenodd;fill:rgb(60%,70.196078%,80%);fill-opacity:1;" d="M 101.828125 240.421875 L 102.429688 243.222656 L 105.429688 249.222656 L 110.828125 252.222656 L 112.230469 248.019531 L 117.828125 243.421875 L 117.628906 241.625 L 115.429688 240.222656 L 111.828125 239.824219 L 107.828125 242.023438 L 106.429688 241.222656 L 105.628906 239.621094 Z M 101.828125 240.421875 "/>
<path style="fill:none;stroke-width:1;stroke-linecap:round;stroke-linejoin:round;stroke:rgb(70.196078%,77.647059%,83.137255%);stroke-opacity:1;stroke-miterlimit:10;" d="M 101.828125 240.421875 L 102.429688 243.222656 L 105.429688 249.222656 L 110.828125 252.222656 L 112.230469 248.019531 L 117.828125 243.421875 L 117.628906 241.625 L 115.429688 240.222656 L 111.828125 239.824219 L 107.828125 242.023438 L 106.429688 241.222656 L 105.628906 239.621094 L 101.828125 240.421875 "/>
<path style=" stroke:none;fill-rule:evenodd;fill:rgb(60%,70.196078%,80%);fill-opacity:1;" d="M 124.03125 203.023438 L 127.230469 205.421875 L 131.628906 202.621094 L 133.429688 198.621094 L 137.03125 193.824219 L 140.628906 190.820313 L 141.832031 185.824219 L 142.429688 178.824219 L 144.429688 176.824219 L 143.429688 172.023438 L 140.828125 169.023438 L 130.230469 169.824219 L 129.828125 174.222656 L 131.828125 175.820313 L 134.832031 179.421875 L 130.828125 185.625 L 127.828125 188.421875 L 127.429688 191.621094 L 125.230469 196.621094 Z M 124.03125 203.023438 "/>
<path style="fill:none;stroke-width:1;stroke-linecap:round;stroke-linejoin:round;stroke:rgb(70.196078%,77.647059%,83.137255%);stroke-opacity:1;stroke-miterlimit:10;" d="M 124.03125 203.023438 L 127.230469 205.421875 L 131.628906 202.621094 L 133.429688 198.621094 L 137.03125 193.824219 L 140.628906 190.820313 L 141.832031 185.824219 L 142.429688 178.824219 L 144.429688 176.824219 L 143.429688 172.023438 L 140.828125 169.023438 L 130.230469 169.824219 L 129.828125 174.222656 L 131.828125 175.820313 L 134.832031 179.421875 L 130.828125 185.625 L 127.828125 188.421875 L 127.429688 191.621094 L 125.230469 196.621094 L 124.03125 203.023438 "/>
<path style=" stroke:none;fill-rule:evenodd;fill:rgb(60%,70.196078%,80%);fill-opacity:1;" d="M 182.03125 90.421875 L 186.832031 94.625 L 189.628906 94.023438 L 192.628906 92.222656 L 192.628906 90.023438 L 188.03125 89.222656 L 182.230469 86.824219 Z M 182.03125 90.421875 "/>
<path style="fill:none;stroke-width:1;stroke-linecap:round;stroke-linejoin:round;stroke:rgb(70.196078%,77.647059%,83.137255%);stroke-opacity:1;stroke-miterlimit:10;" d="M 182.03125 90.421875 L 186.832031 94.625 L 189.628906 94.023438 L 192.628906 92.222656 L 192.628906 90.023438 L 188.03125 89.222656 L 182.230469 86.824219 L 182.03125 90.421875 "/>
<path style="fill:none;stroke-width:1;stroke-linecap:round;stroke-linejoin:round;stroke:rgb(100%,100%,100%);stroke-opacity:1;stroke-dasharray:2,3;stroke-miterlimit:10;" d="M 239.691406 62.484375 L 236.894531 59.085938 L 230.492188 51.285156 L 220.695313 44.285156 L 214.09375 41.683594 L 210.4375 41.074219 "/>
<path style="fill:none;stroke-width:8;stroke-linecap:round;stroke-linejoin:round;stroke:rgb(75.686275%,70.980392%,61.568627%);stroke-opacity:1;stroke-miterlimit:10;" d="M 235.4375 30.273438 L 242.113281 18.707031 "/>
<path style="fill:none;stroke-width:8;stroke-linecap:round;stroke-linejoin:round;stroke:rgb(75.686275%,70.980392%,61.568627%);stroke-opacity:1;stroke-miterlimit:10;" d="M 264 32.992188 L 242.113281 18.707031 L 237.238281 17.875 L 234.039063 18.472656 L 230.238281 19.871094 L 210.4375 41.074219 L 207.4375 46.074219 "/>
<path style="fill:none;stroke-width:8;stroke-linecap:round;stroke-linejoin:round;stroke:rgb(75.686275%,70.980392%,61.568627%);stroke-opacity:1;stroke-miterlimit:10;" d="M -9 58.085938 L -3.703125 46.664063 L 22.105469 -9 "/>
<path style="fill:none;stroke-width:6;stroke-linecap:round;stroke-linejoin:round;stroke:rgb(100%,100%,100%);stroke-opacity:1;stroke-miterlimit:10;" d="M 235.4375 30.273438 L 242.113281 18.707031 "/>
<path style="fill:none;stroke-width:6;stroke-linecap:round;stroke-linejoin:round;stroke:rgb(100%,100%,100%);stroke-opacity:1;stroke-miterlimit:10;" d="M 264 32.992188 L 242.113281 18.707031 L 237.238281 17.875 L 234.039063 18.472656 L 230.238281 19.871094 L 210.4375 41.074219 L 207.4375 46.074219 "/>
<path style="fill:none;stroke-width:6;stroke-linecap:round;stroke-linejoin:round;stroke:rgb(100%,99.215686%,54.509804%);stroke-opacity:1;stroke-miterlimit:10;" d="M -9 58.085938 L -3.703125 46.664063 L 22.105469 -9 "/>
<path style="fill:none;stroke-width:3;stroke-linecap:round;stroke-linejoin:round;stroke:rgb(100%,100%,100%);stroke-opacity:1;stroke-miterlimit:10;" d="M 18.117188 219.386719 C 17.40625 219.386719 16.839844 219.683594 16.414063 220.277344 C 15.996094 220.863281 15.789063 221.660156 15.789063 222.667969 C 15.789063 223.679688 15.996094 224.480469 16.414063 225.074219 C 16.839844 225.660156 17.40625 225.949219 18.117188 225.949219 C 18.824219 225.949219 19.382813 225.660156 19.789063 225.074219 C 20.203125 224.480469 20.414063 223.679688 20.414063 222.667969 C 20.414063 221.660156 20.203125 220.863281 19.789063 220.277344 C 19.382813 219.683594 18.824219 219.386719 18.117188 219.386719 Z M 18.117188 218.496094 C 19.125 218.496094 19.933594 218.878906 20.539063 219.636719 C 21.140625 220.386719 21.445313 221.398438 21.445313 222.667969 C 21.445313 223.929688 21.140625 224.941406 20.539063 225.699219 C 19.933594 226.449219 19.125 226.824219 18.117188 226.824219 C 17.09375 226.824219 16.28125 226.449219 15.679688 225.699219 C 15.074219 224.949219 14.773438 223.941406 14.773438 222.667969 C 14.773438 221.398438 15.074219 220.386719 15.679688 219.636719 C 16.28125 218.878906 17.09375 218.496094 18.117188 218.496094 Z M 27.429688 223.042969 L 27.429688 226.667969 L 26.539063 226.667969 L 26.539063 223.074219 C 26.539063 222.503906 26.433594 222.074219 26.226563 221.792969 C 26.027344 221.511719 25.730469 221.371094 25.335938 221.371094 C 24.855469 221.371094 24.476563 221.542969 24.195313 221.886719 C 23.921875 222.222656 23.789063 222.679688 23.789063 223.261719 L 23.789063 226.667969 L 22.882813 226.667969 L 22.882813 218.308594 L 23.789063 218.308594 L 23.789063 221.589844 C 23.996094 221.226563 24.242188 220.957031 24.523438 220.777344 C 24.8125 220.601563 25.152344 220.511719 25.539063 220.511719 C 26.152344 220.511719 26.621094 220.726563 26.945313 221.152344 C 27.265625 221.582031 27.429688 222.210938 27.429688 223.042969 Z M 32.351563 221.574219 C 32.246094 221.511719 32.132813 221.464844 32.007813 221.433594 C 31.890625 221.402344 31.765625 221.386719 31.632813 221.386719 C 31.121094 221.386719 30.730469 221.570313 30.460938 221.933594 C 30.199219 222.300781 30.070313 222.820313 30.070313 223.496094 L 30.070313 226.667969 L 29.164063 226.667969 L 29.164063 220.652344 L 30.070313 220.652344 L 30.070313 221.589844 C 30.257813 221.226563 30.496094 220.957031 30.789063 220.777344 C 31.089844 220.601563 31.453125 220.511719 31.882813 220.511719 C 31.945313 220.511719 32.011719 220.519531 32.085938 220.527344 C 32.167969 220.527344 32.25 220.539063 32.335938 220.558594 Z M 37.148438 223.667969 C 37.148438 222.941406 37.011719 222.371094 36.742188 221.964844 C 36.480469 221.550781 36.117188 221.339844 35.648438 221.339844 C 35.167969 221.339844 34.792969 221.550781 34.523438 221.964844 C 34.261719 222.371094 34.132813 222.941406 34.132813 223.667969 C 34.132813 224.398438 34.261719 224.972656 34.523438 225.386719 C 34.792969 225.792969 35.167969 225.996094 35.648438 225.996094 C 36.117188 225.996094 36.480469 225.792969 36.742188 225.386719 C 37.011719 224.972656 37.148438 224.398438 37.148438 223.667969 Z M 34.132813 221.558594 C 34.320313 221.207031 34.554688 220.945313 34.835938 220.777344 C 35.117188 220.601563 35.460938 220.511719 35.867188 220.511719 C 36.523438 220.511719 37.054688 220.804688 37.460938 221.386719 C 37.867188 221.960938 38.070313 222.722656 38.070313 223.667969 C 38.070313 224.617188 37.867188 225.382813 37.460938 225.964844 C 37.054688 226.539063 36.523438 226.824219 35.867188 226.824219 C 35.460938 226.824219 35.117188 226.738281 34.835938 226.574219 C 34.554688 226.398438 34.320313 226.128906 34.132813 225.761719 L 34.132813 226.667969 L 33.226563 226.667969 L 33.226563 218.308594 L 34.132813 218.308594 Z M 42.007813 223.636719 C 41.289063 223.636719 40.789063 223.730469 40.507813 223.917969 C 40.234375 224.105469 40.101563 224.417969 40.101563 224.855469 C 40.101563 225.199219 40.203125 225.476563 40.414063 225.683594 C 40.621094 225.894531 40.902344 225.996094 41.257813 225.996094 C 41.757813 225.996094 42.152344 225.804688 42.445313 225.417969 C 42.746094 225.023438 42.898438 224.507813 42.898438 223.871094 L 42.898438 223.636719 Z M 43.789063 223.230469 L 43.789063 226.667969 L 42.898438 226.667969 L 42.898438 225.761719 C 42.6875 226.128906 42.433594 226.398438 42.132813 226.574219 C 41.828125 226.738281 41.460938 226.824219 41.023438 226.824219 C 40.46875 226.824219 40.027344 226.652344 39.695313 226.308594 C 39.371094 225.964844 39.210938 225.503906 39.210938 224.917969 C 39.210938 224.242188 39.414063 223.730469 39.820313 223.386719 C 40.226563 223.042969 40.835938 222.871094 41.648438 222.871094 L 42.898438 222.871094 L 42.898438 222.777344 C 42.898438 222.320313 42.761719 221.964844 42.492188 221.714844 C 42.21875 221.464844 41.839844 221.339844 41.351563 221.339844 C 41.046875 221.339844 40.746094 221.382813 40.445313 221.464844 C 40.152344 221.550781 39.871094 221.675781 39.601563 221.839844 L 39.601563 220.933594 C 39.933594 220.789063 40.25 220.683594 40.554688 220.621094 C 40.855469 220.550781 41.152344 220.511719 41.445313 220.511719 C 42.226563 220.511719 42.808594 220.738281 43.195313 221.183594 C 43.589844 221.632813 43.789063 222.316406 43.789063 223.230469 Z M 49.507813 220.886719 L 49.507813 221.808594 C 49.257813 221.652344 49.007813 221.539063 48.757813 221.464844 C 48.507813 221.382813 48.25 221.339844 47.992188 221.339844 C 47.40625 221.339844 46.953125 221.542969 46.632813 221.949219 C 46.320313 222.355469 46.164063 222.929688 46.164063 223.667969 C 46.164063 224.398438 46.320313 224.964844 46.632813 225.371094 C 46.953125 225.777344 47.40625 225.980469 47.992188 225.980469 C 48.25 225.980469 48.507813 225.945313 48.757813 225.871094 C 49.007813 225.800781 49.257813 225.683594 49.507813 225.527344 L 49.507813 226.433594 C 49.257813 226.570313 48.996094 226.667969 48.726563 226.730469 C 48.464844 226.792969 48.1875 226.824219 47.898438 226.824219 C 47.074219 226.824219 46.421875 226.542969 45.945313 225.980469 C 45.464844 225.410156 45.226563 224.636719 45.226563 223.667969 C 45.226563 222.691406 45.464844 221.917969 45.945313 221.355469 C 46.433594 220.792969 47.101563 220.511719 47.945313 220.511719 C 48.214844 220.511719 48.480469 220.542969 48.742188 220.605469 C 49.011719 220.667969 49.265625 220.761719 49.507813 220.886719 Z M 51.007813 218.308594 L 51.914063 218.308594 L 51.914063 223.246094 L 54.570313 220.652344 L 55.710938 220.652344 L 52.835938 223.464844 L 55.820313 226.667969 L 54.664063 226.667969 L 51.914063 223.730469 L 51.914063 226.667969 L 51.007813 226.667969 Z M 24.179688 229.652344 L 25.164063 229.652344 L 25.164063 236.761719 L 28.679688 236.761719 L 28.679688 237.667969 L 24.179688 237.667969 Z M 32.117188 234.636719 C 31.398438 234.636719 30.898438 234.730469 30.617188 234.917969 C 30.34375 235.105469 30.210938 235.417969 30.210938 235.855469 C 30.210938 236.199219 30.3125 236.476563 30.523438 236.683594 C 30.730469 236.894531 31.011719 236.996094 31.367188 236.996094 C 31.867188 236.996094 32.261719 236.804688 32.554688 236.417969 C 32.855469 236.023438 33.007813 235.507813 33.007813 234.871094 L 33.007813 234.636719 Z M 33.898438 234.230469 L 33.898438 237.667969 L 33.007813 237.667969 L 33.007813 236.761719 C 32.796875 237.128906 32.542969 237.398438 32.242188 237.574219 C 31.9375 237.738281 31.570313 237.824219 31.132813 237.824219 C 30.578125 237.824219 30.136719 237.652344 29.804688 237.308594 C 29.480469 236.964844 29.320313 236.503906 29.320313 235.917969 C 29.320313 235.242188 29.523438 234.730469 29.929688 234.386719 C 30.335938 234.042969 30.945313 233.871094 31.757813 233.871094 L 33.007813 233.871094 L 33.007813 233.777344 C 33.007813 233.320313 32.871094 232.964844 32.601563 232.714844 C 32.328125 232.464844 31.949219 232.339844 31.460938 232.339844 C 31.15625 232.339844 30.855469 232.382813 30.554688 232.464844 C 30.261719 232.550781 29.980469 232.675781 29.710938 232.839844 L 29.710938 231.933594 C 30.042969 231.789063 30.359375 231.683594 30.664063 231.621094 C 30.964844 231.550781 31.261719 231.511719 31.554688 231.511719 C 32.335938 231.511719 32.917969 231.738281 33.304688 232.183594 C 33.699219 232.632813 33.898438 233.316406 33.898438 234.230469 Z M 35.679688 229.308594 L 36.585938 229.308594 L 36.585938 234.246094 L 39.242188 231.652344 L 40.382813 231.652344 L 37.507813 234.464844 L 40.492188 237.667969 L 39.335938 237.667969 L 36.585938 234.730469 L 36.585938 237.667969 L 35.679688 237.667969 Z M 46.085938 234.417969 L 46.085938 234.902344 L 41.992188 234.902344 C 42.03125 235.582031 42.21875 236.097656 42.554688 236.449219 C 42.886719 236.804688 43.34375 236.980469 43.929688 236.980469 C 44.273438 236.980469 44.601563 236.933594 44.914063 236.839844 C 45.234375 236.746094 45.558594 236.613281 45.882813 236.433594 L 45.882813 237.355469 C 45.558594 237.511719 45.230469 237.628906 44.898438 237.699219 C 44.5625 237.78125 44.226563 237.824219 43.882813 237.824219 C 43.015625 237.824219 42.328125 237.550781 41.820313 236.996094 C 41.320313 236.433594 41.070313 235.675781 41.070313 234.714844 C 41.070313 233.738281 41.308594 232.960938 41.789063 232.386719 C 42.265625 231.804688 42.914063 231.511719 43.726563 231.511719 C 44.453125 231.511719 45.027344 231.773438 45.445313 232.292969 C 45.871094 232.816406 46.085938 233.523438 46.085938 234.417969 Z M 45.195313 234.121094 C 45.183594 233.582031 45.046875 233.148438 44.789063 232.824219 C 44.527344 232.503906 44.179688 232.339844 43.742188 232.339844 C 43.242188 232.339844 42.839844 232.496094 42.539063 232.808594 C 42.234375 233.121094 42.0625 233.558594 42.023438 234.121094 Z M 45.195313 234.121094 "/>
<path style=" stroke:none;fill-rule:evenodd;fill:rgb(41.960784%,58.039216%,69.019608%);fill-opacity:1;" d="M 18.117188 219.386719 C 17.40625 219.386719 16.839844 219.683594 16.414063 220.277344 C 15.996094 220.863281 15.789063 221.660156 15.789063 222.667969 C 15.789063 223.679688 15.996094 224.480469 16.414063 225.074219 C 16.839844 225.660156 17.40625 225.949219 18.117188 225.949219 C 18.824219 225.949219 19.382813 225.660156 19.789063 225.074219 C 20.203125 224.480469 20.414063 223.679688 20.414063 222.667969 C 20.414063 221.660156 20.203125 220.863281 19.789063 220.277344 C 19.382813 219.683594 18.824219 219.386719 18.117188 219.386719 Z M 18.117188 218.496094 C 19.125 218.496094 19.933594 218.878906 20.539063 219.636719 C 21.140625 220.386719 21.445313 221.398438 21.445313 222.667969 C 21.445313 223.929688 21.140625 224.941406 20.539063 225.699219 C 19.933594 226.449219 19.125 226.824219 18.117188 226.824219 C 17.09375 226.824219 16.28125 226.449219 15.679688 225.699219 C 15.074219 224.949219 14.773438 223.941406 14.773438 222.667969 C 14.773438 221.398438 15.074219 220.386719 15.679688 219.636719 C 16.28125 218.878906 17.09375 218.496094 18.117188 218.496094 Z M 27.429688 223.042969 L 27.429688 226.667969 L 26.539063 226.667969 L 26.539063 223.074219 C 26.539063 222.503906 26.433594 222.074219 26.226563 221.792969 C 26.027344 221.511719 25.730469 221.371094 25.335938 221.371094 C 24.855469 221.371094 24.476563 221.542969 24.195313 221.886719 C 23.921875 222.222656 23.789063 222.679688 23.789063 223.261719 L 23.789063 226.667969 L 22.882813 226.667969 L 22.882813 218.308594 L 23.789063 218.308594 L 23.789063 221.589844 C 23.996094 221.226563 24.242188 220.957031 24.523438 220.777344 C 24.8125 220.601563 25.152344 220.511719 25.539063 220.511719 C 26.152344 220.511719 26.621094 220.726563 26.945313 221.152344 C 27.265625 221.582031 27.429688 222.210938 27.429688 223.042969 Z M 32.351563 221.574219 C 32.246094 221.511719 32.132813 221.464844 32.007813 221.433594 C 31.890625 221.402344 31.765625 221.386719 31.632813 221.386719 C 31.121094 221.386719 30.730469 221.570313 30.460938 221.933594 C 30.199219 222.300781 30.070313 222.820313 30.070313 223.496094 L 30.070313 226.667969 L 29.164063 226.667969 L 29.164063 220.652344 L 30.070313 220.652344 L 30.070313 221.589844 C 30.257813 221.226563 30.496094 220.957031 30.789063 220.777344 C 31.089844 220.601563 31.453125 220.511719 31.882813 220.511719 C 31.945313 220.511719 32.011719 220.519531 32.085938 220.527344 C 32.167969 220.527344 32.25 220.539063 32.335938 220.558594 Z M 37.148438 223.667969 C 37.148438 222.941406 37.011719 222.371094 36.742188 221.964844 C 36.480469 221.550781 36.117188 221.339844 35.648438 221.339844 C 35.167969 221.339844 34.792969 221.550781 34.523438 221.964844 C 34.261719 222.371094 34.132813 222.941406 34.132813 223.667969 C 34.132813 224.398438 34.261719 224.972656 34.523438 225.386719 C 34.792969 225.792969 35.167969 225.996094 35.648438 225.996094 C 36.117188 225.996094 36.480469 225.792969 36.742188 225.386719 C 37.011719 224.972656 37.148438 224.398438 37.148438 223.667969 Z M 34.132813 221.558594 C 34.320313 221.207031 34.554688 220.945313 34.835938 220.777344 C 35.117188 220.601563 35.460938 220.511719 35.867188 220.511719 C 36.523438 220.511719 37.054688 220.804688 37.460938 221.386719 C 37.867188 221.960938 38.070313 222.722656 38.070313 223.667969 C 38.070313 224.617188 37.867188 225.382813 37.460938 225.964844 C 37.054688 226.539063 36.523438 226.824219 35.867188 226.824219 C 35.460938 226.824219 35.117188 226.738281 34.835938 226.574219 C 34.554688 226.398438 34.320313 226.128906 34.132813 225.761719 L 34.132813 226.667969 L 33.226563 226.667969 L 33.226563 218.308594 L 34.132813 218.308594 Z M 42.007813 223.636719 C 41.289063 223.636719 40.789063 223.730469 40.507813 223.917969 C 40.234375 224.105469 40.101563 224.417969 40.101563 224.855469 C 40.101563 225.199219 40.203125 225.476563 40.414063 225.683594 C 40.621094 225.894531 40.902344 225.996094 41.257813 225.996094 C 41.757813 225.996094 42.152344 225.804688 42.445313 225.417969 C 42.746094 225.023438 42.898438 224.507813 42.898438 223.871094 L 42.898438 223.636719 Z M 43.789063 223.230469 L 43.789063 226.667969 L 42.898438 226.667969 L 42.898438 225.761719 C 42.6875 226.128906 42.433594 226.398438 42.132813 226.574219 C 41.828125 226.738281 41.460938 226.824219 41.023438 226.824219 C 40.46875 226.824219 40.027344 226.652344 39.695313 226.308594 C 39.371094 225.964844 39.210938 225.503906 39.210938 224.917969 C 39.210938 224.242188 39.414063 223.730469 39.820313 223.386719 C 40.226563 223.042969 40.835938 222.871094 41.648438 222.871094 L 42.898438 222.871094 L 42.898438 222.777344 C 42.898438 222.320313 42.761719 221.964844 42.492188 221.714844 C 42.21875 221.464844 41.839844 221.339844 41.351563 221.339844 C 41.046875 221.339844 40.746094 221.382813 40.445313 221.464844 C 40.152344 221.550781 39.871094 221.675781 39.601563 221.839844 L 39.601563 220.933594 C 39.933594 220.789063 40.25 220.683594 40.554688 220.621094 C 40.855469 220.550781 41.152344 220.511719 41.445313 220.511719 C 42.226563 220.511719 42.808594 220.738281 43.195313 221.183594 C 43.589844 221.632813 43.789063 222.316406 43.789063 223.230469 Z M 49.507813 220.886719 L 49.507813 221.808594 C 49.257813 221.652344 49.007813 221.539063 48.757813 221.464844 C 48.507813 221.382813 48.25 221.339844 47.992188 221.339844 C 47.40625 221.339844 46.953125 221.542969 46.632813 221.949219 C 46.320313 222.355469 46.164063 222.929688 46.164063 223.667969 C 46.164063 224.398438 46.320313 224.964844 46.632813 225.371094 C 46.953125 225.777344 47.40625 225.980469 47.992188 225.980469 C 48.25 225.980469 48.507813 225.945313 48.757813 225.871094 C 49.007813 225.800781 49.257813 225.683594 49.507813 225.527344 L 49.507813 226.433594 C 49.257813 226.570313 48.996094 226.667969 48.726563 226.730469 C 48.464844 226.792969 48.1875 226.824219 47.898438 226.824219 C 47.074219 226.824219 46.421875 226.542969 45.945313 225.980469 C 45.464844 225.410156 45.226563 224.636719 45.226563 223.667969 C 45.226563 222.691406 45.464844 221.917969 45.945313 221.355469 C 46.433594 220.792969 47.101563 220.511719 47.945313 220.511719 C 48.214844 220.511719 48.480469 220.542969 48.742188 220.605469 C 49.011719 220.667969 49.265625 220.761719 49.507813 220.886719 Z M 51.007813 218.308594 L 51.914063 218.308594 L 51.914063 223.246094 L 54.570313 220.652344 L 55.710938 220.652344 L 52.835938 223.464844 L 55.820313 226.667969 L 54.664063 226.667969 L 51.914063 223.730469 L 51.914063 226.667969 L 51.007813 226.667969 Z M 24.179688 229.652344 L 25.164063 229.652344 L 25.164063 236.761719 L 28.679688 236.761719 L 28.679688 237.667969 L 24.179688 237.667969 Z M 32.117188 234.636719 C 31.398438 234.636719 30.898438 234.730469 30.617188 234.917969 C 30.34375 235.105469 30.210938 235.417969 30.210938 235.855469 C 30.210938 236.199219 30.3125 236.476563 30.523438 236.683594 C 30.730469 236.894531 31.011719 236.996094 31.367188 236.996094 C 31.867188 236.996094 32.261719 236.804688 32.554688 236.417969 C 32.855469 236.023438 33.007813 235.507813 33.007813 234.871094 L 33.007813 234.636719 Z M 33.898438 234.230469 L 33.898438 237.667969 L 33.007813 237.667969 L 33.007813 236.761719 C 32.796875 237.128906 32.542969 237.398438 32.242188 237.574219 C 31.9375 237.738281 31.570313 237.824219 31.132813 237.824219 C 30.578125 237.824219 30.136719 237.652344 29.804688 237.308594 C 29.480469 236.964844 29.320313 236.503906 29.320313 235.917969 C 29.320313 235.242188 29.523438 234.730469 29.929688 234.386719 C 30.335938 234.042969 30.945313 233.871094 31.757813 233.871094 L 33.007813 233.871094 L 33.007813 233.777344 C 33.007813 233.320313 32.871094 232.964844 32.601563 232.714844 C 32.328125 232.464844 31.949219 232.339844 31.460938 232.339844 C 31.15625 232.339844 30.855469 232.382813 30.554688 232.464844 C 30.261719 232.550781 29.980469 232.675781 29.710938 232.839844 L 29.710938 231.933594 C 30.042969 231.789063 30.359375 231.683594 30.664063 231.621094 C 30.964844 231.550781 31.261719 231.511719 31.554688 231.511719 C 32.335938 231.511719 32.917969 231.738281 33.304688 232.183594 C 33.699219 232.632813 33.898438 233.316406 33.898438 234.230469 Z M 35.679688 229.308594 L 36.585938 229.308594 L 36.585938 234.246094 L 39.242188 231.652344 L 40.382813 231.652344 L 37.507813 234.464844 L 40.492188 237.667969 L 39.335938 237.667969 L 36.585938 234.730469 L 36.585938 237.667969 L 35.679688 237.667969 Z M 46.085938 234.417969 L 46.085938 234.902344 L 41.992188 234.902344 C 42.03125 235.582031 42.21875 236.097656 42.554688 236.449219 C 42.886719 236.804688 43.34375 236.980469 43.929688 236.980469 C 44.273438 236.980469 44.601563 236.933594 44.914063 236.839844 C 45.234375 236.746094 45.558594 236.613281 45.882813 236.433594 L 45.882813 237.355469 C 45.558594 237.511719 45.230469 237.628906 44.898438 237.699219 C 44.5625 237.78125 44.226563 237.824219 43.882813 237.824219 C 43.015625 237.824219 42.328125 237.550781 41.820313 236.996094 C 41.320313 236.433594 41.070313 235.675781 41.070313 234.714844 C 41.070313 233.738281 41.308594 232.960938 41.789063 232.386719 C 42.265625 231.804688 42.914063 231.511719 43.726563 231.511719 C 44.453125 231.511719 45.027344 231.773438 45.445313 232.292969 C 45.871094 232.816406 46.085938 233.523438 46.085938 234.417969 Z M 45.195313 234.121094 C 45.183594 233.582031 45.046875 233.148438 44.789063 232.824219 C 44.527344 232.503906 44.179688 232.339844 43.742188 232.339844 C 43.242188 232.339844 42.839844 232.496094 42.539063 232.808594 C 42.234375 233.121094 42.0625 233.558594 42.023438 234.121094 Z M 45.195313 234.121094 "/>
<path style="fill:none;stroke-width:3;stroke-linecap:round;stroke-linejoin:round;stroke:rgb(100%,100%,100%);stroke-opacity:1;stroke-miterlimit:10;" d="M 92.816406 42.480469 L 98.925781 42.480469 L 98.925781 43.386719 L 96.363281 43.386719 L 96.363281 50.496094 L 95.378906 50.496094 L 95.378906 43.386719 L 92.816406 43.386719 Z M 101.910156 45.167969 C 101.429688 45.167969 101.050781 45.378906 100.769531 45.792969 C 100.496094 46.210938 100.363281 46.777344 100.363281 47.496094 C 100.363281 48.214844 100.496094 48.785156 100.769531 49.199219 C 101.050781 49.605469 101.429688 49.808594 101.910156 49.808594 C 102.386719 49.808594 102.761719 49.605469 103.035156 49.199219 C 103.316406 48.785156 103.457031 48.214844 103.457031 47.496094 C 103.457031 46.777344 103.316406 46.210938 103.035156 45.792969 C 102.761719 45.378906 102.386719 45.167969 101.910156 45.167969 Z M 101.910156 44.339844 C 102.679688 44.339844 103.285156 44.621094 103.722656 45.183594 C 104.167969 45.738281 104.394531 46.507813 104.394531 47.496094 C 104.394531 48.476563 104.167969 49.246094 103.722656 49.808594 C 103.285156 50.371094 102.679688 50.652344 101.910156 50.652344 C 101.128906 50.652344 100.519531 50.371094 100.082031 49.808594 C 99.644531 49.246094 99.425781 48.476563 99.425781 47.496094 C 99.425781 46.507813 99.644531 45.738281 100.082031 45.183594 C 100.519531 44.621094 101.128906 44.339844 101.910156 44.339844 Z M 109.425781 45.386719 L 109.425781 42.136719 L 110.316406 42.136719 L 110.316406 50.496094 L 109.425781 50.496094 L 109.425781 49.589844 C 109.238281 49.957031 108.996094 50.226563 108.707031 50.402344 C 108.425781 50.566406 108.085938 50.652344 107.691406 50.652344 C 107.035156 50.652344 106.496094 50.367188 106.082031 49.792969 C 105.675781 49.210938 105.472656 48.445313 105.472656 47.496094 C 105.472656 46.550781 105.675781 45.789063 106.082031 45.214844 C 106.496094 44.632813 107.035156 44.339844 107.691406 44.339844 C 108.085938 44.339844 108.425781 44.429688 108.707031 44.605469 C 108.996094 44.773438 109.238281 45.035156 109.425781 45.386719 Z M 106.394531 47.496094 C 106.394531 48.226563 106.523438 48.800781 106.785156 49.214844 C 107.054688 49.621094 107.425781 49.824219 107.894531 49.824219 C 108.371094 49.824219 108.746094 49.621094 109.019531 49.214844 C 109.289063 48.800781 109.425781 48.226563 109.425781 47.496094 C 109.425781 46.769531 109.289063 46.199219 109.019531 45.792969 C 108.746094 45.378906 108.371094 45.167969 107.894531 45.167969 C 107.425781 45.167969 107.054688 45.378906 106.785156 45.792969 C 106.523438 46.199219 106.394531 46.769531 106.394531 47.496094 Z M 113.019531 42.777344 L 113.019531 44.480469 L 114.847656 44.480469 L 114.847656 45.246094 L 113.019531 45.246094 L 113.019531 48.511719 C 113.019531 49.003906 113.074219 49.320313 113.191406 49.464844 C 113.316406 49.601563 113.566406 49.667969 113.941406 49.667969 L 114.847656 49.667969 L 114.847656 50.496094 L 113.941406 50.496094 C 113.253906 50.496094 112.777344 50.355469 112.519531 50.074219 C 112.257813 49.785156 112.128906 49.261719 112.128906 48.511719 L 112.128906 45.246094 L 111.472656 45.246094 L 111.472656 44.480469 L 112.128906 44.480469 L 112.128906 42.777344 Z M 119.191406 42.480469 L 120.175781 42.480469 L 120.175781 45.761719 L 123.722656 45.761719 L 123.722656 42.480469 L 124.691406 42.480469 L 124.691406 50.496094 L 123.722656 50.496094 L 123.722656 46.683594 L 120.175781 46.683594 L 120.175781 50.496094 L 119.191406 50.496094 Z M 126.597656 44.480469 L 127.488281 44.480469 L 127.488281 50.496094 L 126.597656 50.496094 Z M 126.597656 42.136719 L 127.488281 42.136719 L 127.488281 43.386719 L 126.597656 43.386719 Z M 129.347656 42.136719 L 130.238281 42.136719 L 130.238281 50.496094 L 129.347656 50.496094 Z M 132.097656 42.136719 L 132.988281 42.136719 L 132.988281 50.496094 L 132.097656 50.496094 Z M 97.175781 53.480469 L 98.160156 53.480469 L 99.675781 60.261719 L 101.191406 53.480469 L 102.285156 53.480469 L 103.816406 60.261719 L 105.316406 53.480469 L 106.316406 53.480469 L 104.503906 61.496094 L 103.269531 61.496094 L 101.753906 54.527344 L 100.207031 61.496094 L 98.988281 61.496094 Z M 109.660156 56.167969 C 109.179688 56.167969 108.800781 56.378906 108.519531 56.792969 C 108.246094 57.210938 108.113281 57.777344 108.113281 58.496094 C 108.113281 59.214844 108.246094 59.785156 108.519531 60.199219 C 108.800781 60.605469 109.179688 60.808594 109.660156 60.808594 C 110.136719 60.808594 110.511719 60.605469 110.785156 60.199219 C 111.066406 59.785156 111.207031 59.214844 111.207031 58.496094 C 111.207031 57.777344 111.066406 57.210938 110.785156 56.792969 C 110.511719 56.378906 110.136719 56.167969 109.660156 56.167969 Z M 109.660156 55.339844 C 110.429688 55.339844 111.035156 55.621094 111.472656 56.183594 C 111.917969 56.738281 112.144531 57.507813 112.144531 58.496094 C 112.144531 59.476563 111.917969 60.246094 111.472656 60.808594 C 111.035156 61.371094 110.429688 61.652344 109.660156 61.652344 C 108.878906 61.652344 108.269531 61.371094 107.832031 60.808594 C 107.394531 60.246094 107.175781 59.476563 107.175781 58.496094 C 107.175781 57.507813 107.394531 56.738281 107.832031 56.183594 C 108.269531 55.621094 108.878906 55.339844 109.660156 55.339844 Z M 115.707031 56.167969 C 115.226563 56.167969 114.847656 56.378906 114.566406 56.792969 C 114.292969 57.210938 114.160156 57.777344 114.160156 58.496094 C 114.160156 59.214844 114.292969 59.785156 114.566406 60.199219 C 114.847656 60.605469 115.226563 60.808594 115.707031 60.808594 C 116.183594 60.808594 116.558594 60.605469 116.832031 60.199219 C 117.113281 59.785156 117.253906 59.214844 117.253906 58.496094 C 117.253906 57.777344 117.113281 57.210938 116.832031 56.792969 C 116.558594 56.378906 116.183594 56.167969 115.707031 56.167969 Z M 115.707031 55.339844 C 116.476563 55.339844 117.082031 55.621094 117.519531 56.183594 C 117.964844 56.738281 118.191406 57.507813 118.191406 58.496094 C 118.191406 59.476563 117.964844 60.246094 117.519531 60.808594 C 117.082031 61.371094 116.476563 61.652344 115.707031 61.652344 C 114.925781 61.652344 114.316406 61.371094 113.878906 60.808594 C 113.441406 60.246094 113.222656 59.476563 113.222656 58.496094 C 113.222656 57.507813 113.441406 56.738281 113.878906 56.183594 C 114.316406 55.621094 114.925781 55.339844 115.707031 55.339844 Z M 123.222656 56.386719 L 123.222656 53.136719 L 124.113281 53.136719 L 124.113281 61.496094 L 123.222656 61.496094 L 123.222656 60.589844 C 123.035156 60.957031 122.792969 61.226563 122.503906 61.402344 C 122.222656 61.566406 121.882813 61.652344 121.488281 61.652344 C 120.832031 61.652344 120.292969 61.367188 119.878906 60.792969 C 119.472656 60.210938 119.269531 59.445313 119.269531 58.496094 C 119.269531 57.550781 119.472656 56.789063 119.878906 56.214844 C 120.292969 55.632813 120.832031 55.339844 121.488281 55.339844 C 121.882813 55.339844 122.222656 55.429688 122.503906 55.605469 C 122.792969 55.773438 123.035156 56.035156 123.222656 56.386719 Z M 120.191406 58.496094 C 120.191406 59.226563 120.320313 59.800781 120.582031 60.214844 C 120.851563 60.621094 121.222656 60.824219 121.691406 60.824219 C 122.167969 60.824219 122.542969 60.621094 122.816406 60.214844 C 123.085938 59.800781 123.222656 59.226563 123.222656 58.496094 C 123.222656 57.769531 123.085938 57.199219 122.816406 56.792969 C 122.542969 56.378906 122.167969 56.167969 121.691406 56.167969 C 121.222656 56.167969 120.851563 56.378906 120.582031 56.792969 C 120.320313 57.199219 120.191406 57.769531 120.191406 58.496094 Z M 129.394531 55.652344 L 129.394531 56.589844 C 129.132813 56.445313 128.867188 56.339844 128.597656 56.277344 C 128.335938 56.207031 128.058594 56.167969 127.769531 56.167969 C 127.320313 56.167969 126.988281 56.246094 126.769531 56.402344 C 126.550781 56.550781 126.441406 56.769531 126.441406 57.058594 C 126.441406 57.289063 126.519531 57.472656 126.675781 57.605469 C 126.832031 57.730469 127.148438 57.855469 127.628906 57.980469 L 127.925781 58.058594 C 128.558594 58.207031 129.007813 58.417969 129.269531 58.699219 C 129.539063 58.972656 129.675781 59.351563 129.675781 59.839844 C 129.675781 60.394531 129.476563 60.835938 129.082031 61.167969 C 128.683594 61.492188 128.136719 61.652344 127.441406 61.652344 C 127.148438 61.652344 126.847656 61.621094 126.535156 61.558594 C 126.222656 61.496094 125.886719 61.402344 125.535156 61.277344 L 125.535156 60.261719 C 125.867188 60.449219 126.191406 60.589844 126.503906 60.683594 C 126.824219 60.777344 127.144531 60.824219 127.457031 60.824219 C 127.871094 60.824219 128.195313 60.746094 128.425781 60.589844 C 128.652344 60.425781 128.769531 60.199219 128.769531 59.917969 C 128.769531 59.648438 128.683594 59.441406 128.519531 59.292969 C 128.351563 59.148438 127.992188 59.011719 127.441406 58.886719 L 127.144531 58.792969 C 126.589844 58.667969 126.191406 58.476563 125.941406 58.214844 C 125.699219 57.945313 125.582031 57.574219 125.582031 57.105469 C 125.582031 56.542969 125.757813 56.113281 126.113281 55.808594 C 126.476563 55.496094 126.992188 55.339844 127.660156 55.339844 C 127.980469 55.339844 128.289063 55.367188 128.582031 55.417969 C 128.871094 55.472656 129.144531 55.550781 129.394531 55.652344 Z M 129.394531 55.652344 "/>
<path style=" stroke:none;fill-rule:evenodd;fill:rgb(0%,0%,0%);fill-opacity:1;" d="M 92.816406 42.480469 L 98.925781 42.480469 L 98.925781 43.386719 L 96.363281 43.386719 L 96.363281 50.496094 L 95.378906 50.496094 L 95.378906 43.386719 L 92.816406 43.386719 Z M 101.910156 45.167969 C 101.429688 45.167969 101.050781 45.378906 100.769531 45.792969 C 100.496094 46.210938 100.363281 46.777344 100.363281 47.496094 C 100.363281 48.214844 100.496094 48.785156 100.769531 49.199219 C 101.050781 49.605469 101.429688 49.808594 101.910156 49.808594 C 102.386719 49.808594 102.761719 49.605469 103.035156 49.199219 C 103.316406 48.785156 103.457031 48.214844 103.457031 47.496094 C 103.457031 46.777344 103.316406 46.210938 103.035156 45.792969 C 102.761719 45.378906 102.386719 45.167969 101.910156 45.167969 Z M 101.910156 44.339844 C 102.679688 44.339844 103.285156 44.621094 103.722656 45.183594 C 104.167969 45.738281 104.394531 46.507813 104.394531 47.496094 C 104.394531 48.476563 104.167969 49.246094 103.722656 49.808594 C 103.285156 50.371094 102.679688 50.652344 101.910156 50.652344 C 101.128906 50.652344 100.519531 50.371094 100.082031 49.808594 C 99.644531 49.246094 99.425781 48.476563 99.425781 47.496094 C 99.425781 46.507813 99.644531 45.738281 100.082031 45.183594 C 100.519531 44.621094 101.128906 44.339844 101.910156 44.339844 Z M 109.425781 45.386719 L 109.425781 42.136719 L 110.316406 42.136719 L 110.316406 50.496094 L 109.425781 50.496094 L 109.425781 49.589844 C 109.238281 49.957031 108.996094 50.226563 108.707031 50.402344 C 108.425781 50.566406 108.085938 50.652344 107.691406 50.652344 C 107.035156 50.652344 106.496094 50.367188 106.082031 49.792969 C 105.675781 49.210938 105.472656 48.445313 105.472656 47.496094 C 105.472656 46.550781 105.675781 45.789063 106.082031 45.214844 C 106.496094 44.632813 107.035156 44.339844 107.691406 44.339844 C 108.085938 44.339844 108.425781 44.429688 108.707031 44.605469 C 108.996094 44.773438 109.238281 45.035156 109.425781 45.386719 Z M 106.394531 47.496094 C 106.394531 48.226563 106.523438 48.800781 106.785156 49.214844 C 107.054688 49.621094 107.425781 49.824219 107.894531 49.824219 C 108.371094 49.824219 108.746094 49.621094 109.019531 49.214844 C 109.289063 48.800781 109.425781 48.226563 109.425781 47.496094 C 109.425781 46.769531 109.289063 46.199219 109.019531 45.792969 C 108.746094 45.378906 108.371094 45.167969 107.894531 45.167969 C 107.425781 45.167969 107.054688 45.378906 106.785156 45.792969 C 106.523438 46.199219 106.394531 46.769531 106.394531 47.496094 Z M 113.019531 42.777344 L 113.019531 44.480469 L 114.847656 44.480469 L 114.847656 45.246094 L 113.019531 45.246094 L 113.019531 48.511719 C 113.019531 49.003906 113.074219 49.320313 113.191406 49.464844 C 113.316406 49.601563 113.566406 49.667969 113.941406 49.667969 L 114.847656 49.667969 L 114.847656 50.496094 L 113.941406 50.496094 C 113.253906 50.496094 112.777344 50.355469 112.519531 50.074219 C 112.257813 49.785156 112.128906 49.261719 112.128906 48.511719 L 112.128906 45.246094 L 111.472656 45.246094 L 111.472656 44.480469 L 112.128906 44.480469 L 112.128906 42.777344 Z M 119.191406 42.480469 L 120.175781 42.480469 L 120.175781 45.761719 L 123.722656 45.761719 L 123.722656 42.480469 L 124.691406 42.480469 L 124.691406 50.496094 L 123.722656 50.496094 L 123.722656 46.683594 L 120.175781 46.683594 L 120.175781 50.496094 L 119.191406 50.496094 Z M 126.597656 44.480469 L 127.488281 44.480469 L 127.488281 50.496094 L 126.597656 50.496094 Z M 126.597656 42.136719 L 127.488281 42.136719 L 127.488281 43.386719 L 126.597656 43.386719 Z M 129.347656 42.136719 L 130.238281 42.136719 L 130.238281 50.496094 L 129.347656 50.496094 Z M 132.097656 42.136719 L 132.988281 42.136719 L 132.988281 50.496094 L 132.097656 50.496094 Z M 97.175781 53.480469 L 98.160156 53.480469 L 99.675781 60.261719 L 101.191406 53.480469 L 102.285156 53.480469 L 103.816406 60.261719 L 105.316406 53.480469 L 106.316406 53.480469 L 104.503906 61.496094 L 103.269531 61.496094 L 101.753906 54.527344 L 100.207031 61.496094 L 98.988281 61.496094 Z M 109.660156 56.167969 C 109.179688 56.167969 108.800781 56.378906 108.519531 56.792969 C 108.246094 57.210938 108.113281 57.777344 108.113281 58.496094 C 108.113281 59.214844 108.246094 59.785156 108.519531 60.199219 C 108.800781 60.605469 109.179688 60.808594 109.660156 60.808594 C 110.136719 60.808594 110.511719 60.605469 110.785156 60.199219 C 111.066406 59.785156 111.207031 59.214844 111.207031 58.496094 C 111.207031 57.777344 111.066406 57.210938 110.785156 56.792969 C 110.511719 56.378906 110.136719 56.167969 109.660156 56.167969 Z M 109.660156 55.339844 C 110.429688 55.339844 111.035156 55.621094 111.472656 56.183594 C 111.917969 56.738281 112.144531 57.507813 112.144531 58.496094 C 112.144531 59.476563 111.917969 60.246094 111.472656 60.808594 C 111.035156 61.371094 110.429688 61.652344 109.660156 61.652344 C 108.878906 61.652344 108.269531 61.371094 107.832031 60.808594 C 107.394531 60.246094 107.175781 59.476563 107.175781 58.496094 C 107.175781 57.507813 107.394531 56.738281 107.832031 56.183594 C 108.269531 55.621094 108.878906 55.339844 109.660156 55.339844 Z M 115.707031 56.167969 C 115.226563 56.167969 114.847656 56.378906 114.566406 56.792969 C 114.292969 57.210938 114.160156 57.777344 114.160156 58.496094 C 114.160156 59.214844 114.292969 59.785156 114.566406 60.199219 C 114.847656 60.605469 115.226563 60.808594 115.707031 60.808594 C 116.183594 60.808594 116.558594 60.605469 116.832031 60.199219 C 117.113281 59.785156 117.253906 59.214844 117.253906 58.496094 C 117.253906 57.777344 117.113281 57.210938 116.832031 56.792969 C 116.558594 56.378906 116.183594 56.167969 115.707031 56.167969 Z M 115.707031 55.339844 C 116.476563 55.339844 117.082031 55.621094 117.519531 56.183594 C 117.964844 56.738281 118.191406 57.507813 118.191406 58.496094 C 118.191406 59.476563 117.964844 60.246094 117.519531 60.808594 C 117.082031 61.371094 116.476563 61.652344 115.707031 61.652344 C 114.925781 61.652344 114.316406 61.371094 113.878906 60.808594 C 113.441406 60.246094 113.222656 59.476563 113.222656 58.496094 C 113.222656 57.507813 113.441406 56.738281 113.878906 56.183594 C 114.316406 55.621094 114.925781 55.339844 115.707031 55.339844 Z M 123.222656 56.386719 L 123.222656 53.136719 L 124.113281 53.136719 L 124.113281 61.496094 L 123.222656 61.496094 L 123.222656 60.589844 C 123.035156 60.957031 122.792969 61.226563 122.503906 61.402344 C 122.222656 61.566406 121.882813 61.652344 121.488281 61.652344 C 120.832031 61.652344 120.292969 61.367188 119.878906 60.792969 C 119.472656 60.210938 119.269531 59.445313 119.269531 58.496094 C 119.269531 57.550781 119.472656 56.789063 119.878906 56.214844 C 120.292969 55.632813 120.832031 55.339844 121.488281 55.339844 C 121.882813 55.339844 122.222656 55.429688 122.503906 55.605469 C 122.792969 55.773438 123.035156 56.035156 123.222656 56.386719 Z M 120.191406 58.496094 C 120.191406 59.226563 120.320313 59.800781 120.582031 60.214844 C 120.851563 60.621094 121.222656 60.824219 121.691406 60.824219 C 122.167969 60.824219 122.542969 60.621094 122.816406 60.214844 C 123.085938 59.800781 123.222656 59.226563 123.222656 58.496094 C 123.222656 57.769531 123.085938 57.199219 122.816406 56.792969 C 122.542969 56.378906 122.167969 56.167969 121.691406 56.167969 C 121.222656 56.167969 120.851563 56.378906 120.582031 56.792969 C 120.320313 57.199219 120.191406 57.769531 120.191406 58.496094 Z M 129.394531 55.652344 L 129.394531 56.589844 C 129.132813 56.445313 128.867188 56.339844 128.597656 56.277344 C 128.335938 56.207031 128.058594 56.167969 127.769531 56.167969 C 127.320313 56.167969 126.988281 56.246094 126.769531 56.402344 C 126.550781 56.550781 126.441406 56.769531 126.441406 57.058594 C 126.441406 57.289063 126.519531 57.472656 126.675781 57.605469 C 126.832031 57.730469 127.148438 57.855469 127.628906 57.980469 L 127.925781 58.058594 C 128.558594 58.207031 129.007813 58.417969 129.269531 58.699219 C 129.539063 58.972656 129.675781 59.351563 129.675781 59.839844 C 129.675781 60.394531 129.476563 60.835938 129.082031 61.167969 C 128.683594 61.492188 128.136719 61.652344 127.441406 61.652344 C 127.148438 61.652344 126.847656 61.621094 126.535156 61.558594 C 126.222656 61.496094 125.886719 61.402344 125.535156 61.277344 L 125.535156 60.261719 C 125.867188 60.449219 126.191406 60.589844 126.503906 60.683594 C 126.824219 60.777344 127.144531 60.824219 127.457031 60.824219 C 127.871094 60.824219 128.195313 60.746094 128.425781 60.589844 C 128.652344 60.425781 128.769531 60.199219 128.769531 59.917969 C 128.769531 59.648438 128.683594 59.441406 128.519531 59.292969 C 128.351563 59.148438 127.992188 59.011719 127.441406 58.886719 L 127.144531 58.792969 C 126.589844 58.667969 126.191406 58.476563 125.941406 58.214844 C 125.699219 57.945313 125.582031 57.574219 125.582031 57.105469 C 125.582031 56.542969 125.757813 56.113281 126.113281 55.808594 C 126.476563 55.496094 126.992188 55.339844 127.660156 55.339844 C 127.980469 55.339844 128.289063 55.367188 128.582031 55.417969 C 128.871094 55.472656 129.144531 55.550781 129.394531 55.652344 Z M 129.394531 55.652344 "/>
</g>
</svg>

