<?xml version="1.0" encoding="UTF-8"?>
<svg xmlns="http://www.w3.org/2000/svg" xmlns:xlink="http://www.w3.org/1999/xlink" width="256pt" height="256pt" viewBox="0 0 256 256" version="1.1">
<g id="surface2">
<rect x="0" y="0" width="256" height="256" style="fill:rgb(94.901961%,93.72549%,91.372549%);fill-opacity:1;stroke:none;"/>
<path style="fill:none;stroke-width:2;stroke-linecap:round;stroke-linejoin:round;stroke:rgb(60%,70.196078%,80%);stroke-opacity:1;stroke-miterlimit:10;" d="M -3 -1.128906 L 0.335938 -2.875 L 0.519531 -3 M 123.5625 -3 L 121.320313 -1.46875 L 116.585938 -2.417969 L 114.339844 -3 M 110.71875 -3 L 108.058594 -1.46875 L 109.195313 2.890625 L 114.214844 8.574219 L 116.488281 12.929688 L 117.4375 20.414063 L 114.878906 29.035156 L 111.46875 35.664063 L 106.542969 42.773438 L 104.339844 45.410156 L 95.078125 66.644531 L 91.480469 74.316406 L 88.636719 83.222656 L 87.972656 90.230469 L 89.113281 99.417969 L 89.488281 107.28125 L 91.433594 109.449219 L 94.417969 112.777344 L 100.761719 113.441406 L 107.585938 110.125 L 114.214844 106.339844 L 126.71875 102.261719 L 137.800781 100.933594 L 146.234375 100.179688 L 168.761719 100.144531 L 173.140625 100.082031 L 175.320313 101.316406 L 181.191406 107.28125 L 184.410156 112.023438 L 187.796875 122.0625 L 188.105469 130.871094 L 186.210938 143.566406 L 184.601563 155.878906 L 182.992188 160.808594 L 181.476563 167.625 L 180.71875 172.933594 L 184.316406 178.902344 L 191.328125 183.730469 L 200.542969 189.074219 L 221.175781 199.5 L 229.964844 202.871094 L 241.671875 206.242188 L 256.472656 207.519531 L 258 207.578125 "/>
</g>
</svg>

