<?xml version="1.0" encoding="UTF-8"?>
<svg xmlns="http://www.w3.org/2000/svg" xmlns:xlink="http://www.w3.org/1999/xlink" width="256pt" height="256pt" viewBox="0 0 256 256" version="1.1">
<g id="surface2">
<rect x="0" y="0" width="256" height="256" style="fill:rgb(94.901961%,93.72549%,91.372549%);fill-opacity:1;stroke:none;"/>
<path style=" stroke:none;fill-rule:evenodd;fill:rgb(60%,70.196078%,80%);fill-opacity:1;" d="M -4 259 L -4 -4 L 259 -4 L -4 -4 Z M -4 259 "/>
<path style="fill:none;stroke-width:1;stroke-linecap:round;stroke-linejoin:round;stroke:rgb(70.196078%,77.647059%,83.137255%);stroke-opacity:1;stroke-miterlimit:10;" d="M -4 259 L -4 -4 L 259 -4 L -4 -4 L -4 259 "/>
<path style=" stroke:none;fill-rule:evenodd;fill:rgb(60%,70.196078%,80%);fill-opacity:1;" d="M -4 -4 L 259 -4 L 259 259 L 259 -4 L 259 259 L 259 -4 L 259 259 L 259 -4 L 259 259 L 259 -4 Z M -8236837.445313 5353021.242188 Z M -8236837.445313 5354277.675781 Z M -8236837.445313 5354277.675781 "/>
<path style="fill:none;stroke-width:1;stroke-linecap:round;stroke-linejoin:round;stroke:rgb(70.196078%,77.647059%,83.137255%);stroke-opacity:1;stroke-miterlimit:10;" d="M -4 -4 L 259 -4 L 259 259 L 259 -4 L 259 259 L 259 -4 L 259 259 L 259 -4 L 259 259 L 259 -4 L -4 -4 "/>
<path style="fill:none;stroke-width:8;stroke-linecap:round;stroke-linejoin:round;stroke:rgb(75.686275%,70.980392%,61.568627%);stroke-opacity:1;stroke-miterlimit:10;" d="M 264 192.109375 L 239.839844 191.601563 L 237.625 190.960938 L 235.527344 190.609375 L 228.492188 190 L 204.628906 189.230469 L 193.910156 187.3125 L 180.980469 186.128906 L 164.972656 185.933594 L 155.511719 184.816406 L 136.472656 183.824219 L 121.886719 182.800781 L 105.320313 180.65625 L 93.714844 178.734375 L 83.253906 177.648438 L 64.496094 175.148438 L 56.992188 174.382813 "/>
<path style="fill:none;stroke-width:8;stroke-linecap:round;stroke-linejoin:round;stroke:rgb(75.686275%,70.980392%,61.568627%);stroke-opacity:1;stroke-miterlimit:10;" d="M -9 241.132813 L -4.710938 236.882813 L 0.25 232.980469 L 4.351563 229.105469 L 8.617188 224.082031 L 14.023438 217.167969 L 19.476563 209.042969 L 22.925781 205.167969 L 30.589844 197.550781 L 50.699219 182.863281 L 53.867188 179.503906 L 56.992188 174.382813 "/>
<path style="fill:none;stroke-width:8;stroke-linecap:round;stroke-linejoin:round;stroke:rgb(75.686275%,70.980392%,61.568627%);stroke-opacity:1;stroke-miterlimit:10;" d="M 56.992188 174.382813 L 52.191406 172.589844 L 47.671875 170.0625 L 44.035156 167.375 L 41.613281 165.164063 L 39.746094 162.765625 L 35.972656 155.46875 L 35.109375 153.101563 L 33.757813 147.53125 L 31.894531 138.25 L 31.3125 131.210938 L 31.242188 127.433594 L 33.710938 111.910156 L 34.179688 106.152344 L 34.386719 95.078125 L 33.199219 79.523438 L 31.871094 66.402344 L 30.707031 55.105469 L 26.417969 32.765625 L 24.460938 22.648438 L 17.796875 -1.675781 L 15.121094 -9 "/>
<path style="fill:none;stroke-width:6;stroke-linecap:round;stroke-linejoin:round;stroke:rgb(100%,100%,100%);stroke-opacity:1;stroke-miterlimit:10;" d="M 264 192.109375 L 239.839844 191.601563 L 237.625 190.960938 L 235.527344 190.609375 L 228.492188 190 L 204.628906 189.230469 L 193.910156 187.3125 L 180.980469 186.128906 L 164.972656 185.933594 L 155.511719 184.816406 L 136.472656 183.824219 L 121.886719 182.800781 L 105.320313 180.65625 L 93.714844 178.734375 L 83.253906 177.648438 L 64.496094 175.148438 L 56.992188 174.382813 "/>
<path style="fill:none;stroke-width:6;stroke-linecap:round;stroke-linejoin:round;stroke:rgb(100%,100%,100%);stroke-opacity:1;stroke-miterlimit:10;" d="M -9 241.132813 L -4.710938 236.882813 L 0.25 232.980469 L 4.351563 229.105469 L 8.617188 224.082031 L 14.023438 217.167969 L 19.476563 209.042969 L 22.925781 205.167969 L 30.589844 197.550781 L 50.699219 182.863281 L 53.867188 179.503906 L 56.992188 174.382813 "/>
<path style="fill:none;stroke-width:6;stroke-linecap:round;stroke-linejoin:round;stroke:rgb(100%,100%,100%);stroke-opacity:1;stroke-miterlimit:10;" d="M 56.992188 174.382813 L 52.191406 172.589844 L 47.671875 170.0625 L 44.035156 167.375 L 41.613281 165.164063 L 39.746094 162.765625 L 35.972656 155.46875 L 35.109375 153.101563 L 33.757813 147.53125 L 31.894531 138.25 L 31.3125 131.210938 L 31.242188 127.433594 L 33.710938 111.910156 L 34.179688 106.152344 L 34.386719 95.078125 L 33.199219 79.523438 L 31.871094 66.402344 L 30.707031 55.105469 L 26.417969 32.765625 L 24.460938 22.648438 L 17.796875 -1.675781 L 15.121094 -9 "/>
<path style="fill:none;stroke-width:3;stroke-linecap:round;stroke-linejoin:round;stroke:rgb(100%,100%,100%);stroke-opacity:1;stroke-miterlimit:10;" d="M 33.746094 49.742188 L 33.917969 50.710938 L 30.683594 51.273438 L 31.277344 54.773438 L 34.511719 54.210938 L 34.683594 55.164063 L 26.777344 56.523438 L 26.605469 55.570313 L 30.355469 54.929688 L 29.761719 51.429688 L 26.011719 52.070313 L 25.839844 51.101563 Z M 32.511719 59.679688 C 32.457031 59.199219 32.214844 58.839844 31.777344 58.601563 C 31.339844 58.371094 30.761719 58.292969 30.042969 58.367188 C 29.324219 58.4375 28.769531 58.632813 28.386719 58.945313 C 28.011719 59.265625 27.847656 59.667969 27.902344 60.148438 C 27.953125 60.625 28.191406 60.980469 28.621094 61.210938 C 29.058594 61.4375 29.636719 61.515625 30.355469 61.445313 C 31.074219 61.371094 31.625 61.179688 32.011719 60.867188 C 32.394531 60.554688 32.5625 60.15625 32.511719 59.679688 Z M 33.339844 59.601563 C 33.410156 60.371094 33.191406 61 32.683594 61.492188 C 32.171875 61.992188 31.425781 62.289063 30.449219 62.382813 C 29.46875 62.484375 28.675781 62.34375 28.074219 61.960938 C 27.46875 61.585938 27.128906 61.011719 27.058594 60.242188 C 26.972656 59.460938 27.1875 58.824219 27.699219 58.335938 C 28.21875 57.84375 28.96875 57.546875 29.949219 57.445313 C 30.925781 57.351563 31.714844 57.492188 32.308594 57.867188 C 32.910156 58.242188 33.253906 58.820313 33.339844 59.601563 Z M 33.007813 66.769531 C 33.058594 66.652344 33.089844 66.535156 33.101563 66.410156 C 33.121094 66.285156 33.125 66.152344 33.117188 66.019531 C 33.0625 65.507813 32.84375 65.136719 32.460938 64.910156 C 32.074219 64.691406 31.542969 64.613281 30.867188 64.675781 L 27.710938 65.003906 L 27.617188 64.113281 L 33.601563 63.503906 L 33.695313 64.394531 L 32.757813 64.488281 C 33.140625 64.632813 33.433594 64.847656 33.632813 65.128906 C 33.839844 65.410156 33.96875 65.761719 34.023438 66.191406 C 34.023438 66.253906 34.023438 66.320313 34.023438 66.394531 C 34.03125 66.476563 34.03125 66.558594 34.023438 66.644531 Z M 34.1875 71.039063 L 33.25 71.132813 C 33.375 70.859375 33.457031 70.589844 33.5 70.320313 C 33.539063 70.046875 33.546875 69.765625 33.515625 69.476563 C 33.460938 69.027344 33.347656 68.703125 33.171875 68.507813 C 33.003906 68.308594 32.78125 68.21875 32.5 68.242188 C 32.269531 68.273438 32.097656 68.367188 31.984375 68.523438 C 31.867188 68.6875 31.773438 69.015625 31.703125 69.507813 L 31.65625 69.820313 C 31.570313 70.464844 31.40625 70.933594 31.15625 71.226563 C 30.90625 71.515625 30.535156 71.683594 30.046875 71.726563 C 29.503906 71.789063 29.046875 71.636719 28.671875 71.273438 C 28.304688 70.917969 28.09375 70.390625 28.03125 69.695313 C 28 69.402344 28 69.101563 28.03125 68.789063 C 28.0625 68.476563 28.117188 68.136719 28.203125 67.773438 L 29.21875 67.664063 C 29.070313 68.015625 28.96875 68.355469 28.90625 68.679688 C 28.84375 69 28.828125 69.320313 28.859375 69.632813 C 28.898438 70.046875 29.007813 70.359375 29.1875 70.570313 C 29.375 70.789063 29.601563 70.882813 29.875 70.851563 C 30.144531 70.820313 30.34375 70.710938 30.46875 70.523438 C 30.601563 70.34375 30.707031 69.976563 30.78125 69.414063 L 30.84375 69.117188 C 30.90625 68.554688 31.054688 68.136719 31.296875 67.867188 C 31.546875 67.59375 31.90625 67.4375 32.375 67.398438 C 32.925781 67.335938 33.375 67.464844 33.71875 67.789063 C 34.0625 68.109375 34.265625 68.605469 34.328125 69.273438 C 34.359375 69.59375 34.363281 69.902344 34.34375 70.195313 C 34.320313 70.496094 34.269531 70.777344 34.1875 71.039063 Z M 32.253906 77.589844 L 31.769531 77.636719 L 31.347656 73.574219 C 30.679688 73.6875 30.183594 73.925781 29.863281 74.292969 C 29.550781 74.65625 29.425781 75.128906 29.488281 75.714844 C 29.519531 76.058594 29.597656 76.378906 29.722656 76.683594 C 29.847656 76.984375 30.019531 77.285156 30.238281 77.589844 L 29.316406 77.683594 C 29.117188 77.371094 28.960938 77.050781 28.847656 76.730469 C 28.742188 76.417969 28.675781 76.089844 28.644531 75.746094 C 28.550781 74.878906 28.757813 74.167969 29.269531 73.605469 C 29.777344 73.050781 30.507813 72.730469 31.457031 72.636719 C 32.433594 72.542969 33.230469 72.699219 33.847656 73.105469 C 34.472656 73.519531 34.824219 74.136719 34.910156 74.949219 C 34.980469 75.675781 34.777344 76.277344 34.300781 76.746094 C 33.832031 77.214844 33.148438 77.496094 32.253906 77.589844 Z M 32.457031 76.667969 C 32.996094 76.605469 33.414063 76.425781 33.707031 76.136719 C 33.996094 75.855469 34.121094 75.496094 34.082031 75.058594 C 34.027344 74.558594 33.832031 74.171875 33.488281 73.902344 C 33.152344 73.628906 32.707031 73.503906 32.144531 73.527344 Z M 37.417969 81.839844 L 37.496094 82.824219 L 34.214844 83.074219 L 34.480469 86.605469 L 37.761719 86.355469 L 37.839844 87.324219 L 29.839844 87.933594 L 29.761719 86.964844 L 33.558594 86.667969 L 33.292969 83.136719 L 29.496094 83.433594 L 29.417969 82.449219 Z M 35.984375 89.382813 L 36.046875 90.273438 L 30.046875 90.726563 L 29.984375 89.835938 Z M 38.3125 89.195313 L 38.375 90.085938 L 37.140625 90.179688 L 37.078125 89.289063 Z M 38.519531 91.9375 L 38.582031 92.828125 L 30.253906 93.46875 L 30.191406 92.578125 Z M 38.6875 94.953125 L 38.703125 95.84375 L 30.34375 95.96875 L 30.328125 95.078125 Z M 33.953125 104.347656 C 33.859375 104.554688 33.679688 104.753906 33.421875 104.941406 C 33.160156 105.136719 32.800781 105.335938 32.34375 105.535156 L 30.125 106.457031 L 30.15625 105.410156 L 32.25 104.535156 C 32.78125 104.316406 33.132813 104.089844 33.3125 103.863281 C 33.5 103.644531 33.597656 103.339844 33.609375 102.957031 L 33.640625 101.894531 L 30.25 101.816406 L 30.265625 100.832031 L 38.28125 101.035156 L 38.234375 103.238281 C 38.210938 104.070313 38.003906 104.679688 37.609375 105.066406 C 37.222656 105.460938 36.640625 105.648438 35.859375 105.628906 C 35.359375 105.617188 34.941406 105.503906 34.609375 105.285156 C 34.285156 105.066406 34.066406 104.753906 33.953125 104.347656 Z M 37.375 101.988281 L 34.53125 101.925781 L 34.5 103.144531 C 34.488281 103.621094 34.597656 103.980469 34.828125 104.222656 C 35.066406 104.472656 35.421875 104.601563 35.890625 104.613281 C 36.359375 104.621094 36.710938 104.507813 36.953125 104.269531 C 37.203125 104.039063 37.332031 103.683594 37.34375 103.207031 Z M 35.171875 109.980469 C 35.210938 109.5 35.035156 109.105469 34.640625 108.792969 C 34.253906 108.480469 33.703125 108.292969 32.984375 108.230469 C 32.265625 108.15625 31.6875 108.234375 31.25 108.464844 C 30.820313 108.703125 30.585938 109.0625 30.546875 109.542969 C 30.503906 110.019531 30.671875 110.417969 31.046875 110.730469 C 31.429688 111.042969 31.984375 111.234375 32.703125 111.308594 C 33.421875 111.371094 34 111.28125 34.4375 111.042969 C 34.882813 110.8125 35.128906 110.457031 35.171875 109.980469 Z M 35.984375 110.058594 C 35.910156 110.828125 35.578125 111.40625 34.984375 111.792969 C 34.390625 112.175781 33.597656 112.324219 32.609375 112.230469 C 31.640625 112.136719 30.894531 111.84375 30.375 111.355469 C 29.855469 110.863281 29.632813 110.234375 29.703125 109.464844 C 29.777344 108.683594 30.117188 108.097656 30.71875 107.714844 C 31.320313 107.339844 32.109375 107.199219 33.078125 107.292969 C 34.066406 107.386719 34.816406 107.671875 35.328125 108.152344 C 35.835938 108.640625 36.054688 109.277344 35.984375 110.058594 Z M 32.082031 116.035156 C 32.195313 115.324219 32.179688 114.820313 32.035156 114.519531 C 31.886719 114.226563 31.601563 114.042969 31.175781 113.972656 C 30.832031 113.917969 30.539063 113.976563 30.300781 114.144531 C 30.058594 114.320313 29.910156 114.585938 29.847656 114.941406 C 29.773438 115.429688 29.910156 115.851563 30.253906 116.207031 C 30.597656 116.570313 31.082031 116.800781 31.707031 116.894531 L 31.941406 116.925781 Z M 32.191406 117.878906 L 28.800781 117.332031 L 28.941406 116.457031 L 29.832031 116.597656 C 29.511719 116.335938 29.285156 116.039063 29.160156 115.707031 C 29.035156 115.382813 29.011719 115.003906 29.082031 114.566406 C 29.167969 114.023438 29.402344 113.617188 29.785156 113.347656 C 30.179688 113.085938 30.667969 113.003906 31.253906 113.097656 C 31.917969 113.199219 32.386719 113.476563 32.660156 113.925781 C 32.941406 114.382813 33.019531 115.011719 32.894531 115.816406 L 32.691406 117.050781 L 32.785156 117.066406 C 33.230469 117.136719 33.601563 117.058594 33.894531 116.832031 C 34.183594 116.601563 34.367188 116.246094 34.441406 115.769531 C 34.492188 115.464844 34.496094 115.160156 34.457031 114.847656 C 34.425781 114.542969 34.347656 114.246094 34.222656 113.957031 L 35.113281 114.097656 C 35.207031 114.449219 35.261719 114.777344 35.285156 115.082031 C 35.304688 115.394531 35.292969 115.695313 35.253906 115.988281 C 35.128906 116.757813 34.808594 117.300781 34.300781 117.613281 C 33.800781 117.925781 33.097656 118.011719 32.191406 117.878906 Z M 33.003906 123.445313 L 36.207031 123.960938 L 36.066406 124.851563 L 27.816406 123.539063 L 27.957031 122.648438 L 28.847656 122.789063 C 28.527344 122.558594 28.300781 122.28125 28.175781 121.960938 C 28.042969 121.648438 28.003906 121.296875 28.066406 120.914063 C 28.171875 120.265625 28.542969 119.789063 29.175781 119.476563 C 29.808594 119.164063 30.597656 119.078125 31.535156 119.226563 C 32.460938 119.371094 33.179688 119.695313 33.691406 120.195313 C 34.199219 120.695313 34.402344 121.265625 34.300781 121.914063 C 34.238281 122.296875 34.101563 122.621094 33.894531 122.882813 C 33.683594 123.140625 33.386719 123.328125 33.003906 123.445313 Z M 31.394531 120.132813 C 30.664063 120.015625 30.074219 120.058594 29.628906 120.257813 C 29.179688 120.453125 28.917969 120.789063 28.847656 121.257813 C 28.773438 121.726563 28.917969 122.121094 29.285156 122.445313 C 29.648438 122.777344 30.195313 123 30.925781 123.117188 C 31.644531 123.230469 32.226563 123.1875 32.675781 122.992188 C 33.121094 122.792969 33.382813 122.460938 33.457031 121.992188 C 33.527344 121.523438 33.382813 121.121094 33.019531 120.789063 C 32.652344 120.464844 32.113281 120.246094 31.394531 120.132813 Z M 31.394531 120.132813 "/>
<path style=" stroke:none;fill-rule:evenodd;fill:rgb(20%,20%,20%);fill-opacity:1;" d="M 33.746094 49.742188 L 33.917969 50.710938 L 30.683594 51.273438 L 31.277344 54.773438 L 34.511719 54.210938 L 34.683594 55.164063 L 26.777344 56.523438 L 26.605469 55.570313 L 30.355469 54.929688 L 29.761719 51.429688 L 26.011719 52.070313 L 25.839844 51.101563 Z M 32.511719 59.679688 C 32.457031 59.199219 32.214844 58.839844 31.777344 58.601563 C 31.339844 58.371094 30.761719 58.292969 30.042969 58.367188 C 29.324219 58.4375 28.769531 58.632813 28.386719 58.945313 C 28.011719 59.265625 27.847656 59.667969 27.902344 60.148438 C 27.953125 60.625 28.191406 60.980469 28.621094 61.210938 C 29.058594 61.4375 29.636719 61.515625 30.355469 61.445313 C 31.074219 61.371094 31.625 61.179688 32.011719 60.867188 C 32.394531 60.554688 32.5625 60.15625 32.511719 59.679688 Z M 33.339844 59.601563 C 33.410156 60.371094 33.191406 61 32.683594 61.492188 C 32.171875 61.992188 31.425781 62.289063 30.449219 62.382813 C 29.46875 62.484375 28.675781 62.34375 28.074219 61.960938 C 27.46875 61.585938 27.128906 61.011719 27.058594 60.242188 C 26.972656 59.460938 27.1875 58.824219 27.699219 58.335938 C 28.21875 57.84375 28.96875 57.546875 29.949219 57.445313 C 30.925781 57.351563 31.714844 57.492188 32.308594 57.867188 C 32.910156 58.242188 33.253906 58.820313 33.339844 59.601563 Z M 33.007813 66.769531 C 33.058594 66.652344 33.089844 66.535156 33.101563 66.410156 C 33.121094 66.285156 33.125 66.152344 33.117188 66.019531 C 33.0625 65.507813 32.84375 65.136719 32.460938 64.910156 C 32.074219 64.691406 31.542969 64.613281 30.867188 64.675781 L 27.710938 65.003906 L 27.617188 64.113281 L 33.601563 63.503906 L 33.695313 64.394531 L 32.757813 64.488281 C 33.140625 64.632813 33.433594 64.847656 33.632813 65.128906 C 33.839844 65.410156 33.96875 65.761719 34.023438 66.191406 C 34.023438 66.253906 34.023438 66.320313 34.023438 66.394531 C 34.03125 66.476563 34.03125 66.558594 34.023438 66.644531 Z M 34.1875 71.039063 L 33.25 71.132813 C 33.375 70.859375 33.457031 70.589844 33.5 70.320313 C 33.539063 70.046875 33.546875 69.765625 33.515625 69.476563 C 33.460938 69.027344 33.347656 68.703125 33.171875 68.507813 C 33.003906 68.308594 32.78125 68.21875 32.5 68.242188 C 32.269531 68.273438 32.097656 68.367188 31.984375 68.523438 C 31.867188 68.6875 31.773438 69.015625 31.703125 69.507813 L 31.65625 69.820313 C 31.570313 70.464844 31.40625 70.933594 31.15625 71.226563 C 30.90625 71.515625 30.535156 71.683594 30.046875 71.726563 C 29.503906 71.789063 29.046875 71.636719 28.671875 71.273438 C 28.304688 70.917969 28.09375 70.390625 28.03125 69.695313 C 28 69.402344 28 69.101563 28.03125 68.789063 C 28.0625 68.476563 28.117188 68.136719 28.203125 67.773438 L 29.21875 67.664063 C 29.070313 68.015625 28.96875 68.355469 28.90625 68.679688 C 28.84375 69 28.828125 69.320313 28.859375 69.632813 C 28.898438 70.046875 29.007813 70.359375 29.1875 70.570313 C 29.375 70.789063 29.601563 70.882813 29.875 70.851563 C 30.144531 70.820313 30.34375 70.710938 30.46875 70.523438 C 30.601563 70.34375 30.707031 69.976563 30.78125 69.414063 L 30.84375 69.117188 C 30.90625 68.554688 31.054688 68.136719 31.296875 67.867188 C 31.546875 67.59375 31.90625 67.4375 32.375 67.398438 C 32.925781 67.335938 33.375 67.464844 33.71875 67.789063 C 34.0625 68.109375 34.265625 68.605469 34.328125 69.273438 C 34.359375 69.59375 34.363281 69.902344 34.34375 70.195313 C 34.320313 70.496094 34.269531 70.777344 34.1875 71.039063 Z M 32.253906 77.589844 L 31.769531 77.636719 L 31.347656 73.574219 C 30.679688 73.6875 30.183594 73.925781 29.863281 74.292969 C 29.550781 74.65625 29.425781 75.128906 29.488281 75.714844 C 29.519531 76.058594 29.597656 76.378906 29.722656 76.683594 C 29.847656 76.984375 30.019531 77.285156 30.238281 77.589844 L 29.316406 77.683594 C 29.117188 77.371094 28.960938 77.050781 28.847656 76.730469 C 28.742188 76.417969 28.675781 76.089844 28.644531 75.746094 C 28.550781 74.878906 28.757813 74.167969 29.269531 73.605469 C 29.777344 73.050781 30.507813 72.730469 31.457031 72.636719 C 32.433594 72.542969 33.230469 72.699219 33.847656 73.105469 C 34.472656 73.519531 34.824219 74.136719 34.910156 74.949219 C 34.980469 75.675781 34.777344 76.277344 34.300781 76.746094 C 33.832031 77.214844 33.148438 77.496094 32.253906 77.589844 Z M 32.457031 76.667969 C 32.996094 76.605469 33.414063 76.425781 33.707031 76.136719 C 33.996094 75.855469 34.121094 75.496094 34.082031 75.058594 C 34.027344 74.558594 33.832031 74.171875 33.488281 73.902344 C 33.152344 73.628906 32.707031 73.503906 32.144531 73.527344 Z M 37.417969 81.839844 L 37.496094 82.824219 L 34.214844 83.074219 L 34.480469 86.605469 L 37.761719 86.355469 L 37.839844 87.324219 L 29.839844 87.933594 L 29.761719 86.964844 L 33.558594 86.667969 L 33.292969 83.136719 L 29.496094 83.433594 L 29.417969 82.449219 Z M 35.984375 89.382813 L 36.046875 90.273438 L 30.046875 90.726563 L 29.984375 89.835938 Z M 38.3125 89.195313 L 38.375 90.085938 L 37.140625 90.179688 L 37.078125 89.289063 Z M 38.519531 91.9375 L 38.582031 92.828125 L 30.253906 93.46875 L 30.191406 92.578125 Z M 38.6875 94.953125 L 38.703125 95.84375 L 30.34375 95.96875 L 30.328125 95.078125 Z M 33.953125 104.347656 C 33.859375 104.554688 33.679688 104.753906 33.421875 104.941406 C 33.160156 105.136719 32.800781 105.335938 32.34375 105.535156 L 30.125 106.457031 L 30.15625 105.410156 L 32.25 104.535156 C 32.78125 104.316406 33.132813 104.089844 33.3125 103.863281 C 33.5 103.644531 33.597656 103.339844 33.609375 102.957031 L 33.640625 101.894531 L 30.25 101.816406 L 30.265625 100.832031 L 38.28125 101.035156 L 38.234375 103.238281 C 38.210938 104.070313 38.003906 104.679688 37.609375 105.066406 C 37.222656 105.460938 36.640625 105.648438 35.859375 105.628906 C 35.359375 105.617188 34.941406 105.503906 34.609375 105.285156 C 34.285156 105.066406 34.066406 104.753906 33.953125 104.347656 Z M 37.375 101.988281 L 34.53125 101.925781 L 34.5 103.144531 C 34.488281 103.621094 34.597656 103.980469 34.828125 104.222656 C 35.066406 104.472656 35.421875 104.601563 35.890625 104.613281 C 36.359375 104.621094 36.710938 104.507813 36.953125 104.269531 C 37.203125 104.039063 37.332031 103.683594 37.34375 103.207031 Z M 35.171875 109.980469 C 35.210938 109.5 35.035156 109.105469 34.640625 108.792969 C 34.253906 108.480469 33.703125 108.292969 32.984375 108.230469 C 32.265625 108.15625 31.6875 108.234375 31.25 108.464844 C 30.820313 108.703125 30.585938 109.0625 30.546875 109.542969 C 30.503906 110.019531 30.671875 110.417969 31.046875 110.730469 C 31.429688 111.042969 31.984375 111.234375 32.703125 111.308594 C 33.421875 111.371094 34 111.28125 34.4375 111.042969 C 34.882813 110.8125 35.128906 110.457031 35.171875 109.980469 Z M 35.984375 110.058594 C 35.910156 110.828125 35.578125 111.40625 34.984375 111.792969 C 34.390625 112.175781 33.597656 112.324219 32.609375 112.230469 C 31.640625 112.136719 30.894531 111.84375 30.375 111.355469 C 29.855469 110.863281 29.632813 110.234375 29.703125 109.464844 C 29.777344 108.683594 30.117188 108.097656 30.71875 107.714844 C 31.320313 107.339844 32.109375 107.199219 33.078125 107.292969 C 34.066406 107.386719 34.816406 107.671875 35.328125 108.152344 C 35.835938 108.640625 36.054688 109.277344 35.984375 110.058594 Z M 32.082031 116.035156 C 32.195313 115.324219 32.179688 114.820313 32.035156 114.519531 C 31.886719 114.226563 31.601563 114.042969 31.175781 113.972656 C 30.832031 113.917969 30.539063 113.976563 30.300781 114.144531 C 30.058594 114.320313 29.910156 114.585938 29.847656 114.941406 C 29.773438 115.429688 29.910156 115.851563 30.253906 116.207031 C 30.597656 116.570313 31.082031 116.800781 31.707031 116.894531 L 31.941406 116.925781 Z M 32.191406 117.878906 L 28.800781 117.332031 L 28.941406 116.457031 L 29.832031 116.597656 C 29.511719 116.335938 29.285156 116.039063 29.160156 115.707031 C 29.035156 115.382813 29.011719 115.003906 29.082031 114.566406 C 29.167969 114.023438 29.402344 113.617188 29.785156 113.347656 C 30.179688 113.085938 30.667969 113.003906 31.253906 113.097656 C 31.917969 113.199219 32.386719 113.476563 32.660156 113.925781 C 32.941406 114.382813 33.019531 115.011719 32.894531 115.816406 L 32.691406 117.050781 L 32.785156 117.066406 C 33.230469 117.136719 33.601563 117.058594 33.894531 116.832031 C 34.183594 116.601563 34.367188 116.246094 34.441406 115.769531 C 34.492188 115.464844 34.496094 115.160156 34.457031 114.847656 C 34.425781 114.542969 34.347656 114.246094 34.222656 113.957031 L 35.113281 114.097656 C 35.207031 114.449219 35.261719 114.777344 35.285156 115.082031 C 35.304688 115.394531 35.292969 115.695313 35.253906 115.988281 C 35.128906 116.757813 34.808594 117.300781 34.300781 117.613281 C 33.800781 117.925781 33.097656 118.011719 32.191406 117.878906 Z M 33.003906 123.445313 L 36.207031 123.960938 L 36.066406 124.851563 L 27.816406 123.539063 L 27.957031 122.648438 L 28.847656 122.789063 C 28.527344 122.558594 28.300781 122.28125 28.175781 121.960938 C 28.042969 121.648438 28.003906 121.296875 28.066406 120.914063 C 28.171875 120.265625 28.542969 119.789063 29.175781 119.476563 C 29.808594 119.164063 30.597656 119.078125 31.535156 119.226563 C 32.460938 119.371094 33.179688 119.695313 33.691406 120.195313 C 34.199219 120.695313 34.402344 121.265625 34.300781 121.914063 C 34.238281 122.296875 34.101563 122.621094 33.894531 122.882813 C 33.683594 123.140625 33.386719 123.328125 33.003906 123.445313 Z M 31.394531 120.132813 C 30.664063 120.015625 30.074219 120.058594 29.628906 120.257813 C 29.179688 120.453125 28.917969 120.789063 28.847656 121.257813 C 28.773438 121.726563 28.917969 122.121094 29.285156 122.445313 C 29.648438 122.777344 30.195313 123 30.925781 123.117188 C 31.644531 123.230469 32.226563 123.1875 32.675781 122.992188 C 33.121094 122.792969 33.382813 122.460938 33.457031 121.992188 C 33.527344 121.523438 33.382813 121.121094 33.019531 120.789063 C 32.652344 120.464844 32.113281 120.246094 31.394531 120.132813 Z M 31.394531 120.132813 "/>
<path style="fill:none;stroke-width:3;stroke-linecap:round;stroke-linejoin:round;stroke:rgb(100%,100%,100%);stroke-opacity:1;stroke-miterlimit:10;" d="M 125.316406 179.003906 L 126.300781 179.082031 L 125.800781 186.175781 L 129.300781 186.425781 L 129.238281 187.332031 L 124.753906 187.003906 Z M 135.066406 184.484375 L 135.019531 184.953125 L 130.941406 184.671875 C 130.941406 185.351563 131.089844 185.875 131.394531 186.25 C 131.707031 186.625 132.148438 186.835938 132.722656 186.875 C 133.066406 186.90625 133.398438 186.886719 133.722656 186.8125 C 134.042969 186.742188 134.378906 186.625 134.722656 186.46875 L 134.644531 187.390625 C 134.308594 187.523438 133.972656 187.617188 133.628906 187.671875 C 133.292969 187.722656 132.957031 187.738281 132.613281 187.71875 C 131.757813 187.65625 131.097656 187.328125 130.628906 186.734375 C 130.167969 186.140625 129.972656 185.367188 130.035156 184.40625 C 130.105469 183.4375 130.402344 182.683594 130.925781 182.140625 C 131.445313 181.601563 132.105469 181.355469 132.910156 181.40625 C 133.636719 181.460938 134.195313 181.761719 134.582031 182.3125 C 134.964844 182.867188 135.128906 183.589844 135.066406 184.484375 Z M 134.191406 184.125 C 134.222656 183.585938 134.117188 183.140625 133.878906 182.796875 C 133.636719 182.453125 133.300781 182.265625 132.863281 182.234375 C 132.371094 182.203125 131.964844 182.335938 131.644531 182.625 C 131.320313 182.917969 131.117188 183.34375 131.035156 183.90625 Z M 140.394531 185.023438 C 140.433594 184.296875 140.335938 183.722656 140.097656 183.304688 C 139.855469 182.878906 139.503906 182.65625 139.035156 182.632813 C 138.554688 182.601563 138.167969 182.785156 137.878906 183.179688 C 137.585938 183.566406 137.417969 184.125 137.378906 184.851563 C 137.347656 185.582031 137.449219 186.160156 137.691406 186.585938 C 137.929688 187.015625 138.289063 187.242188 138.769531 187.273438 C 139.238281 187.296875 139.617188 187.109375 139.910156 186.710938 C 140.199219 186.316406 140.363281 185.753906 140.394531 185.023438 Z M 137.503906 182.742188 C 137.710938 182.410156 137.957031 182.164063 138.238281 182.007813 C 138.527344 181.851563 138.878906 181.785156 139.285156 181.804688 C 139.941406 181.847656 140.449219 182.164063 140.816406 182.757813 C 141.191406 183.351563 141.351563 184.125 141.300781 185.070313 C 141.246094 186.019531 141.003906 186.773438 140.566406 187.335938 C 140.136719 187.886719 139.597656 188.140625 138.941406 188.101563 C 138.535156 188.078125 138.195313 187.976563 137.925781 187.789063 C 137.652344 187.601563 137.433594 187.320313 137.269531 186.945313 L 137.222656 187.851563 L 136.316406 187.804688 L 136.769531 179.460938 L 137.675781 179.507813 Z M 145.253906 185.242188 C 144.535156 185.210938 144.027344 185.285156 143.738281 185.460938 C 143.457031 185.628906 143.304688 185.929688 143.285156 186.367188 C 143.261719 186.710938 143.351563 186.992188 143.550781 187.210938 C 143.746094 187.429688 144.023438 187.550781 144.378906 187.570313 C 144.878906 187.59375 145.285156 187.414063 145.597656 187.039063 C 145.917969 186.664063 146.097656 186.160156 146.128906 185.523438 L 146.144531 185.289063 Z M 147.050781 184.929688 L 146.878906 188.367188 L 145.988281 188.320313 L 146.035156 187.414063 C 145.804688 187.769531 145.535156 188.023438 145.222656 188.179688 C 144.910156 188.335938 144.535156 188.402344 144.097656 188.382813 C 143.542969 188.351563 143.113281 188.15625 142.800781 187.804688 C 142.496094 187.441406 142.363281 186.96875 142.394531 186.382813 C 142.425781 185.707031 142.652344 185.207031 143.082031 184.882813 C 143.507813 184.5625 144.128906 184.421875 144.941406 184.460938 L 146.191406 184.523438 L 146.191406 184.429688 C 146.210938 183.972656 146.089844 183.613281 145.832031 183.351563 C 145.582031 183.09375 145.210938 182.945313 144.722656 182.914063 C 144.417969 182.90625 144.117188 182.9375 143.816406 183.007813 C 143.511719 183.070313 143.222656 183.175781 142.941406 183.320313 L 142.988281 182.414063 C 143.332031 182.300781 143.652344 182.21875 143.957031 182.164063 C 144.269531 182.113281 144.570313 182.09375 144.863281 182.101563 C 145.644531 182.144531 146.214844 182.398438 146.582031 182.867188 C 146.945313 183.328125 147.101563 184.015625 147.050781 184.929688 Z M 152.105469 183.542969 C 152 183.472656 151.890625 183.417969 151.777344 183.386719 C 151.660156 183.347656 151.535156 183.320313 151.402344 183.308594 C 150.890625 183.289063 150.488281 183.457031 150.199219 183.808594 C 149.917969 184.152344 149.761719 184.664063 149.730469 185.339844 L 149.558594 188.511719 L 148.652344 188.464844 L 148.964844 182.464844 L 149.871094 182.511719 L 149.824219 183.433594 C 150.03125 183.082031 150.285156 182.824219 150.589844 182.667969 C 150.902344 182.511719 151.269531 182.445313 151.699219 182.464844 C 151.761719 182.464844 151.828125 182.472656 151.902344 182.480469 C 151.972656 182.492188 152.050781 182.511719 152.136719 182.542969 Z M 156.171875 183.796875 C 156.066406 183.726563 155.957031 183.671875 155.84375 183.640625 C 155.726563 183.601563 155.601563 183.574219 155.46875 183.5625 C 154.957031 183.53125 154.554688 183.695313 154.265625 184.046875 C 153.972656 184.390625 153.804688 184.898438 153.765625 185.5625 L 153.578125 188.734375 L 152.671875 188.671875 L 153.046875 182.671875 L 153.953125 182.734375 L 153.890625 183.671875 C 154.097656 183.320313 154.351563 183.0625 154.65625 182.90625 C 154.96875 182.75 155.335938 182.683594 155.765625 182.703125 C 155.828125 182.714844 155.894531 182.726563 155.96875 182.734375 C 156.050781 182.734375 156.132813 182.75 156.21875 182.78125 Z M 159.253906 183.917969 C 158.773438 183.855469 158.371094 184.019531 158.050781 184.402344 C 157.726563 184.789063 157.523438 185.335938 157.441406 186.042969 C 157.347656 186.761719 157.414063 187.339844 157.644531 187.777344 C 157.871094 188.214844 158.226563 188.464844 158.707031 188.527344 C 159.175781 188.582031 159.570313 188.417969 159.894531 188.042969 C 160.214844 187.667969 160.425781 187.121094 160.519531 186.402344 C 160.601563 185.695313 160.527344 185.117188 160.300781 184.667969 C 160.070313 184.222656 159.722656 183.972656 159.253906 183.917969 Z M 159.347656 183.105469 C 160.105469 183.199219 160.675781 183.550781 161.050781 184.152344 C 161.433594 184.757813 161.570313 185.550781 161.457031 186.527344 C 161.339844 187.507813 161.027344 188.253906 160.519531 188.761719 C 160.007813 189.261719 159.371094 189.464844 158.613281 189.371094 C 157.832031 189.277344 157.257813 188.925781 156.894531 188.324219 C 156.527344 187.710938 156.402344 186.914063 156.519531 185.933594 C 156.632813 184.957031 156.933594 184.214844 157.425781 183.714844 C 157.925781 183.214844 158.566406 183.011719 159.347656 183.105469 Z M 167.484375 186.289063 L 167.265625 189.914063 L 166.375 189.867188 L 166.59375 186.273438 C 166.625 185.710938 166.550781 185.285156 166.375 184.992188 C 166.195313 184.691406 165.910156 184.53125 165.515625 184.507813 C 165.035156 184.476563 164.644531 184.625 164.34375 184.945313 C 164.050781 185.269531 163.882813 185.71875 163.84375 186.289063 L 163.640625 189.695313 L 162.734375 189.632813 L 163.09375 183.632813 L 164 183.695313 L 163.953125 184.632813 C 164.179688 184.28125 164.441406 184.023438 164.734375 183.867188 C 165.035156 183.710938 165.378906 183.644531 165.765625 183.664063 C 166.367188 183.695313 166.816406 183.9375 167.109375 184.382813 C 167.410156 184.832031 167.535156 185.46875 167.484375 186.289063 Z M 175.878906 186.292969 C 176.085938 186.386719 176.285156 186.566406 176.472656 186.824219 C 176.667969 187.074219 176.871094 187.429688 177.082031 187.886719 L 178.035156 190.089844 L 176.988281 190.074219 L 176.097656 188.011719 C 175.855469 187.472656 175.628906 187.113281 175.410156 186.933594 C 175.191406 186.757813 174.886719 186.664063 174.503906 186.652344 L 173.441406 186.636719 L 173.394531 190.027344 L 172.410156 190.027344 L 172.503906 182.011719 L 174.707031 182.027344 C 175.539063 182.039063 176.152344 182.238281 176.550781 182.621094 C 176.945313 183.007813 177.136719 183.589844 177.128906 184.371094 C 177.128906 184.871094 177.019531 185.289063 176.800781 185.621094 C 176.589844 185.957031 176.285156 186.179688 175.878906 186.292969 Z M 173.472656 182.902344 L 173.441406 185.746094 L 174.660156 185.761719 C 175.136719 185.773438 175.496094 185.664063 175.738281 185.433594 C 175.988281 185.195313 176.113281 184.839844 176.113281 184.371094 C 176.121094 183.902344 176.007813 183.550781 175.769531 183.308594 C 175.527344 183.058594 175.167969 182.929688 174.691406 182.917969 Z M 181.464844 184.949219 C 180.984375 184.917969 180.59375 185.101563 180.292969 185.496094 C 180 185.894531 179.832031 186.449219 179.792969 187.167969 C 179.75 187.886719 179.855469 188.460938 180.105469 188.886719 C 180.363281 189.316406 180.734375 189.542969 181.214844 189.574219 C 181.691406 189.605469 182.078125 189.425781 182.371094 189.027344 C 182.671875 188.632813 182.84375 188.074219 182.886719 187.355469 C 182.925781 186.636719 182.816406 186.066406 182.558594 185.636719 C 182.308594 185.210938 181.941406 184.980469 181.464844 184.949219 Z M 181.511719 184.121094 C 182.28125 184.164063 182.871094 184.476563 183.277344 185.058594 C 183.683594 185.632813 183.859375 186.414063 183.808594 187.402344 C 183.753906 188.382813 183.488281 189.144531 183.011719 189.683594 C 182.542969 190.214844 181.921875 190.457031 181.152344 190.417969 C 180.371094 190.375 179.777344 190.066406 179.371094 189.480469 C 178.972656 188.886719 178.800781 188.101563 178.855469 187.121094 C 178.90625 186.132813 179.167969 185.378906 179.636719 184.855469 C 180.105469 184.324219 180.730469 184.082031 181.511719 184.121094 Z M 187.6875 187.71875 C 186.96875 187.648438 186.460938 187.695313 186.171875 187.859375 C 185.878906 188.027344 185.71875 188.324219 185.6875 188.75 C 185.65625 189.09375 185.726563 189.382813 185.90625 189.609375 C 186.09375 189.828125 186.363281 189.953125 186.71875 189.984375 C 187.21875 190.039063 187.632813 189.882813 187.96875 189.515625 C 188.300781 189.152344 188.492188 188.65625 188.546875 188.03125 L 188.578125 187.796875 Z M 189.5 187.46875 L 189.1875 190.890625 L 188.296875 190.8125 L 188.375 189.90625 C 188.132813 190.25 187.851563 190.492188 187.53125 190.640625 C 187.21875 190.785156 186.84375 190.835938 186.40625 190.796875 C 185.863281 190.742188 185.441406 190.53125 185.140625 190.15625 C 184.847656 189.78125 184.726563 189.304688 184.78125 188.71875 C 184.84375 188.054688 185.09375 187.570313 185.53125 187.265625 C 185.96875 186.964844 186.585938 186.851563 187.390625 186.921875 L 188.640625 187.03125 L 188.65625 186.9375 C 188.695313 186.480469 188.59375 186.117188 188.34375 185.84375 C 188.09375 185.5625 187.722656 185.402344 187.234375 185.359375 C 186.929688 185.328125 186.628906 185.34375 186.328125 185.40625 C 186.035156 185.460938 185.742188 185.558594 185.453125 185.703125 L 185.53125 184.8125 C 185.882813 184.699219 186.210938 184.621094 186.515625 184.578125 C 186.816406 184.539063 187.113281 184.53125 187.40625 184.5625 C 188.1875 184.625 188.75 184.898438 189.09375 185.375 C 189.445313 185.855469 189.582031 186.554688 189.5 187.46875 Z M 195.042969 186.476563 L 195.464844 183.242188 L 196.339844 183.367188 L 195.261719 191.664063 L 194.386719 191.539063 L 194.496094 190.632813 C 194.265625 190.976563 193.996094 191.214844 193.683594 191.351563 C 193.378906 191.484375 193.035156 191.527344 192.652344 191.476563 C 191.996094 191.390625 191.5 191.039063 191.167969 190.414063 C 190.832031 189.789063 190.730469 189.007813 190.855469 188.070313 C 190.980469 187.125 191.28125 186.390625 191.761719 185.867188 C 192.238281 185.347656 192.808594 185.128906 193.464844 185.210938 C 193.847656 185.265625 194.171875 185.394531 194.433594 185.601563 C 194.703125 185.8125 194.90625 186.101563 195.042969 186.476563 Z M 191.761719 188.179688 C 191.667969 188.898438 191.722656 189.484375 191.933594 189.929688 C 192.152344 190.367188 192.488281 190.617188 192.949219 190.679688 C 193.425781 190.734375 193.828125 190.578125 194.152344 190.210938 C 194.472656 189.835938 194.683594 189.289063 194.777344 188.570313 C 194.871094 187.84375 194.808594 187.257813 194.589844 186.820313 C 194.371094 186.375 194.019531 186.125 193.542969 186.070313 C 193.082031 186.007813 192.691406 186.164063 192.371094 186.539063 C 192.058594 186.90625 191.855469 187.453125 191.761719 188.179688 Z M 191.761719 188.179688 "/>
<path style=" stroke:none;fill-rule:evenodd;fill:rgb(20%,20%,20%);fill-opacity:1;" d="M 125.316406 179.003906 L 126.300781 179.082031 L 125.800781 186.175781 L 129.300781 186.425781 L 129.238281 187.332031 L 124.753906 187.003906 Z M 135.066406 184.484375 L 135.019531 184.953125 L 130.941406 184.671875 C 130.941406 185.351563 131.089844 185.875 131.394531 186.25 C 131.707031 186.625 132.148438 186.835938 132.722656 186.875 C 133.066406 186.90625 133.398438 186.886719 133.722656 186.8125 C 134.042969 186.742188 134.378906 186.625 134.722656 186.46875 L 134.644531 187.390625 C 134.308594 187.523438 133.972656 187.617188 133.628906 187.671875 C 133.292969 187.722656 132.957031 187.738281 132.613281 187.71875 C 131.757813 187.65625 131.097656 187.328125 130.628906 186.734375 C 130.167969 186.140625 129.972656 185.367188 130.035156 184.40625 C 130.105469 183.4375 130.402344 182.683594 130.925781 182.140625 C 131.445313 181.601563 132.105469 181.355469 132.910156 181.40625 C 133.636719 181.460938 134.195313 181.761719 134.582031 182.3125 C 134.964844 182.867188 135.128906 183.589844 135.066406 184.484375 Z M 134.191406 184.125 C 134.222656 183.585938 134.117188 183.140625 133.878906 182.796875 C 133.636719 182.453125 133.300781 182.265625 132.863281 182.234375 C 132.371094 182.203125 131.964844 182.335938 131.644531 182.625 C 131.320313 182.917969 131.117188 183.34375 131.035156 183.90625 Z M 140.394531 185.023438 C 140.433594 184.296875 140.335938 183.722656 140.097656 183.304688 C 139.855469 182.878906 139.503906 182.65625 139.035156 182.632813 C 138.554688 182.601563 138.167969 182.785156 137.878906 183.179688 C 137.585938 183.566406 137.417969 184.125 137.378906 184.851563 C 137.347656 185.582031 137.449219 186.160156 137.691406 186.585938 C 137.929688 187.015625 138.289063 187.242188 138.769531 187.273438 C 139.238281 187.296875 139.617188 187.109375 139.910156 186.710938 C 140.199219 186.316406 140.363281 185.753906 140.394531 185.023438 Z M 137.503906 182.742188 C 137.710938 182.410156 137.957031 182.164063 138.238281 182.007813 C 138.527344 181.851563 138.878906 181.785156 139.285156 181.804688 C 139.941406 181.847656 140.449219 182.164063 140.816406 182.757813 C 141.191406 183.351563 141.351563 184.125 141.300781 185.070313 C 141.246094 186.019531 141.003906 186.773438 140.566406 187.335938 C 140.136719 187.886719 139.597656 188.140625 138.941406 188.101563 C 138.535156 188.078125 138.195313 187.976563 137.925781 187.789063 C 137.652344 187.601563 137.433594 187.320313 137.269531 186.945313 L 137.222656 187.851563 L 136.316406 187.804688 L 136.769531 179.460938 L 137.675781 179.507813 Z M 145.253906 185.242188 C 144.535156 185.210938 144.027344 185.285156 143.738281 185.460938 C 143.457031 185.628906 143.304688 185.929688 143.285156 186.367188 C 143.261719 186.710938 143.351563 186.992188 143.550781 187.210938 C 143.746094 187.429688 144.023438 187.550781 144.378906 187.570313 C 144.878906 187.59375 145.285156 187.414063 145.597656 187.039063 C 145.917969 186.664063 146.097656 186.160156 146.128906 185.523438 L 146.144531 185.289063 Z M 147.050781 184.929688 L 146.878906 188.367188 L 145.988281 188.320313 L 146.035156 187.414063 C 145.804688 187.769531 145.535156 188.023438 145.222656 188.179688 C 144.910156 188.335938 144.535156 188.402344 144.097656 188.382813 C 143.542969 188.351563 143.113281 188.15625 142.800781 187.804688 C 142.496094 187.441406 142.363281 186.96875 142.394531 186.382813 C 142.425781 185.707031 142.652344 185.207031 143.082031 184.882813 C 143.507813 184.5625 144.128906 184.421875 144.941406 184.460938 L 146.191406 184.523438 L 146.191406 184.429688 C 146.210938 183.972656 146.089844 183.613281 145.832031 183.351563 C 145.582031 183.09375 145.210938 182.945313 144.722656 182.914063 C 144.417969 182.90625 144.117188 182.9375 143.816406 183.007813 C 143.511719 183.070313 143.222656 183.175781 142.941406 183.320313 L 142.988281 182.414063 C 143.332031 182.300781 143.652344 182.21875 143.957031 182.164063 C 144.269531 182.113281 144.570313 182.09375 144.863281 182.101563 C 145.644531 182.144531 146.214844 182.398438 146.582031 182.867188 C 146.945313 183.328125 147.101563 184.015625 147.050781 184.929688 Z M 152.105469 183.542969 C 152 183.472656 151.890625 183.417969 151.777344 183.386719 C 151.660156 183.347656 151.535156 183.320313 151.402344 183.308594 C 150.890625 183.289063 150.488281 183.457031 150.199219 183.808594 C 149.917969 184.152344 149.761719 184.664063 149.730469 185.339844 L 149.558594 188.511719 L 148.652344 188.464844 L 148.964844 182.464844 L 149.871094 182.511719 L 149.824219 183.433594 C 150.03125 183.082031 150.285156 182.824219 150.589844 182.667969 C 150.902344 182.511719 151.269531 182.445313 151.699219 182.464844 C 151.761719 182.464844 151.828125 182.472656 151.902344 182.480469 C 151.972656 182.492188 152.050781 182.511719 152.136719 182.542969 Z M 156.171875 183.796875 C 156.066406 183.726563 155.957031 183.671875 155.84375 183.640625 C 155.726563 183.601563 155.601563 183.574219 155.46875 183.5625 C 154.957031 183.53125 154.554688 183.695313 154.265625 184.046875 C 153.972656 184.390625 153.804688 184.898438 153.765625 185.5625 L 153.578125 188.734375 L 152.671875 188.671875 L 153.046875 182.671875 L 153.953125 182.734375 L 153.890625 183.671875 C 154.097656 183.320313 154.351563 183.0625 154.65625 182.90625 C 154.96875 182.75 155.335938 182.683594 155.765625 182.703125 C 155.828125 182.714844 155.894531 182.726563 155.96875 182.734375 C 156.050781 182.734375 156.132813 182.75 156.21875 182.78125 Z M 159.253906 183.917969 C 158.773438 183.855469 158.371094 184.019531 158.050781 184.402344 C 157.726563 184.789063 157.523438 185.335938 157.441406 186.042969 C 157.347656 186.761719 157.414063 187.339844 157.644531 187.777344 C 157.871094 188.214844 158.226563 188.464844 158.707031 188.527344 C 159.175781 188.582031 159.570313 188.417969 159.894531 188.042969 C 160.214844 187.667969 160.425781 187.121094 160.519531 186.402344 C 160.601563 185.695313 160.527344 185.117188 160.300781 184.667969 C 160.070313 184.222656 159.722656 183.972656 159.253906 183.917969 Z M 159.347656 183.105469 C 160.105469 183.199219 160.675781 183.550781 161.050781 184.152344 C 161.433594 184.757813 161.570313 185.550781 161.457031 186.527344 C 161.339844 187.507813 161.027344 188.253906 160.519531 188.761719 C 160.007813 189.261719 159.371094 189.464844 158.613281 189.371094 C 157.832031 189.277344 157.257813 188.925781 156.894531 188.324219 C 156.527344 187.710938 156.402344 186.914063 156.519531 185.933594 C 156.632813 184.957031 156.933594 184.214844 157.425781 183.714844 C 157.925781 183.214844 158.566406 183.011719 159.347656 183.105469 Z M 167.484375 186.289063 L 167.265625 189.914063 L 166.375 189.867188 L 166.59375 186.273438 C 166.625 185.710938 166.550781 185.285156 166.375 184.992188 C 166.195313 184.691406 165.910156 184.53125 165.515625 184.507813 C 165.035156 184.476563 164.644531 184.625 164.34375 184.945313 C 164.050781 185.269531 163.882813 185.71875 163.84375 186.289063 L 163.640625 189.695313 L 162.734375 189.632813 L 163.09375 183.632813 L 164 183.695313 L 163.953125 184.632813 C 164.179688 184.28125 164.441406 184.023438 164.734375 183.867188 C 165.035156 183.710938 165.378906 183.644531 165.765625 183.664063 C 166.367188 183.695313 166.816406 183.9375 167.109375 184.382813 C 167.410156 184.832031 167.535156 185.46875 167.484375 186.289063 Z M 175.878906 186.292969 C 176.085938 186.386719 176.285156 186.566406 176.472656 186.824219 C 176.667969 187.074219 176.871094 187.429688 177.082031 187.886719 L 178.035156 190.089844 L 176.988281 190.074219 L 176.097656 188.011719 C 175.855469 187.472656 175.628906 187.113281 175.410156 186.933594 C 175.191406 186.757813 174.886719 186.664063 174.503906 186.652344 L 173.441406 186.636719 L 173.394531 190.027344 L 172.410156 190.027344 L 172.503906 182.011719 L 174.707031 182.027344 C 175.539063 182.039063 176.152344 182.238281 176.550781 182.621094 C 176.945313 183.007813 177.136719 183.589844 177.128906 184.371094 C 177.128906 184.871094 177.019531 185.289063 176.800781 185.621094 C 176.589844 185.957031 176.285156 186.179688 175.878906 186.292969 Z M 173.472656 182.902344 L 173.441406 185.746094 L 174.660156 185.761719 C 175.136719 185.773438 175.496094 185.664063 175.738281 185.433594 C 175.988281 185.195313 176.113281 184.839844 176.113281 184.371094 C 176.121094 183.902344 176.007813 183.550781 175.769531 183.308594 C 175.527344 183.058594 175.167969 182.929688 174.691406 182.917969 Z M 181.464844 184.949219 C 180.984375 184.917969 180.59375 185.101563 180.292969 185.496094 C 180 185.894531 179.832031 186.449219 179.792969 187.167969 C 179.75 187.886719 179.855469 188.460938 180.105469 188.886719 C 180.363281 189.316406 180.734375 189.542969 181.214844 189.574219 C 181.691406 189.605469 182.078125 189.425781 182.371094 189.027344 C 182.671875 188.632813 182.84375 188.074219 182.886719 187.355469 C 182.925781 186.636719 182.816406 186.066406 182.558594 185.636719 C 182.308594 185.210938 181.941406 184.980469 181.464844 184.949219 Z M 181.511719 184.121094 C 182.28125 184.164063 182.871094 184.476563 183.277344 185.058594 C 183.683594 185.632813 183.859375 186.414063 183.808594 187.402344 C 183.753906 188.382813 183.488281 189.144531 183.011719 189.683594 C 182.542969 190.214844 181.921875 190.457031 181.152344 190.417969 C 180.371094 190.375 179.777344 190.066406 179.371094 189.480469 C 178.972656 188.886719 178.800781 188.101563 178.855469 187.121094 C 178.90625 186.132813 179.167969 185.378906 179.636719 184.855469 C 180.105469 184.324219 180.730469 184.082031 181.511719 184.121094 Z M 187.6875 187.71875 C 186.96875 187.648438 186.460938 187.695313 186.171875 187.859375 C 185.878906 188.027344 185.71875 188.324219 185.6875 188.75 C 185.65625 189.09375 185.726563 189.382813 185.90625 189.609375 C 186.09375 189.828125 186.363281 189.953125 186.71875 189.984375 C 187.21875 190.039063 187.632813 189.882813 187.96875 189.515625 C 188.300781 189.152344 188.492188 188.65625 188.546875 188.03125 L 188.578125 187.796875 Z M 189.5 187.46875 L 189.1875 190.890625 L 188.296875 190.8125 L 188.375 189.90625 C 188.132813 190.25 187.851563 190.492188 187.53125 190.640625 C 187.21875 190.785156 186.84375 190.835938 186.40625 190.796875 C 185.863281 190.742188 185.441406 190.53125 185.140625 190.15625 C 184.847656 189.78125 184.726563 189.304688 184.78125 188.71875 C 184.84375 188.054688 185.09375 187.570313 185.53125 187.265625 C 185.96875 186.964844 186.585938 186.851563 187.390625 186.921875 L 188.640625 187.03125 L 188.65625 186.9375 C 188.695313 186.480469 188.59375 186.117188 188.34375 185.84375 C 188.09375 185.5625 187.722656 185.402344 187.234375 185.359375 C 186.929688 185.328125 186.628906 185.34375 186.328125 185.40625 C 186.035156 185.460938 185.742188 185.558594 185.453125 185.703125 L 185.53125 184.8125 C 185.882813 184.699219 186.210938 184.621094 186.515625 184.578125 C 186.816406 184.539063 187.113281 184.53125 187.40625 184.5625 C 188.1875 184.625 188.75 184.898438 189.09375 185.375 C 189.445313 185.855469 189.582031 186.554688 189.5 187.46875 Z M 195.042969 186.476563 L 195.464844 183.242188 L 196.339844 183.367188 L 195.261719 191.664063 L 194.386719 191.539063 L 194.496094 190.632813 C 194.265625 190.976563 193.996094 191.214844 193.683594 191.351563 C 193.378906 191.484375 193.035156 191.527344 192.652344 191.476563 C 191.996094 191.390625 191.5 191.039063 191.167969 190.414063 C 190.832031 189.789063 190.730469 189.007813 190.855469 188.070313 C 190.980469 187.125 191.28125 186.390625 191.761719 185.867188 C 192.238281 185.347656 192.808594 185.128906 193.464844 185.210938 C 193.847656 185.265625 194.171875 185.394531 194.433594 185.601563 C 194.703125 185.8125 194.90625 186.101563 195.042969 186.476563 Z M 191.761719 188.179688 C 191.667969 188.898438 191.722656 189.484375 191.933594 189.929688 C 192.152344 190.367188 192.488281 190.617188 192.949219 190.679688 C 193.425781 190.734375 193.828125 190.578125 194.152344 190.210938 C 194.472656 189.835938 194.683594 189.289063 194.777344 188.570313 C 194.871094 187.84375 194.808594 187.257813 194.589844 186.820313 C 194.371094 186.375 194.019531 186.125 193.542969 186.070313 C 193.082031 186.007813 192.691406 186.164063 192.371094 186.539063 C 192.058594 186.90625 191.855469 187.453125 191.761719 188.179688 Z M 191.761719 188.179688 "/>
</g>
</svg>

