<?xml version="1.0" encoding="UTF-8"?>
<svg xmlns="http://www.w3.org/2000/svg" xmlns:xlink="http://www.w3.org/1999/xlink" width="256pt" height="256pt" viewBox="0 0 256 256" version="1.1">
<g id="surface2">
<rect x="0" y="0" width="256" height="256" style="fill:rgb(60%,70.196078%,80%);fill-opacity:1;stroke:none;"/>
<path style=" stroke:none;fill-rule:evenodd;fill:rgb(94.901961%,93.72549%,91.372549%);fill-opacity:1;" d="M -4 -4 L 259 -4 L 259 65.8125 L 251.894531 65.710938 L 223.582031 -4 L 195.542969 -4 L 196.242188 -2.785156 L 197.410156 0.589844 L 200.148438 6.074219 L 204.4375 11.46875 L 219.378906 29.824219 L 229.054688 79.675781 L 237.789063 124.675781 L 259 164.972656 L 259 259 L 110.238281 259 L 106.632813 249.140625 L 89.617188 226.261719 L 64.03125 201.292969 L 57.636719 180.953125 L 62.097656 180.734375 L 65.582031 180.078125 L 69.171875 176.382813 L 72.109375 170.613281 L 72 165.933594 L 67.976563 161.910156 L 65.691406 159.839844 L 63.40625 159.296875 L 61.992188 161.253906 L 59.054688 160.601563 L 56.222656 159.949219 L 53.175781 156.46875 L 49.800781 155.707031 L 46.757813 153.746094 L 43.273438 153.203125 L 37.609375 151.074219 L 35.335938 147.664063 L 33.25 140.9375 L 20.652344 120.855469 L 18.378906 117.351563 L 19.039063 115.640625 L 21.410156 112.707031 L 20.839844 110.242188 L 20.554688 108.445313 L 17.808594 105.886719 L 11.839844 102.097656 L 1.703125 96.035156 L -4 90.214844 L -4 -4 L -4 161.023438 L 9.617188 179.261719 L 20.957031 192.859375 L 56.617188 235.261719 L 62.117188 251.761719 L 67.777344 259 L -4 259 Z M -4 -4 "/>
<path style=" stroke:none;fill-rule:evenodd;fill:rgb(70.980392%,82.352941%,61.176471%);fill-opacity:1;" d="M 223.527344 -4 L 227.632813 6.355469 L 235.230469 -2.644531 L 236.460938 -4 L 260 -4 Z M 223.527344 -4 "/>
<path style=" stroke:none;fill-rule:evenodd;fill:rgb(70.980392%,82.352941%,61.176471%);fill-opacity:1;" d="M -4 -4 L -4 90.214844 L 1.707031 96.035156 L 11.839844 102.097656 L 17.808594 105.886719 L 20.554688 108.445313 L 20.839844 110.242188 L 21.410156 112.707031 L 19.039063 115.640625 L 18.378906 117.351563 L 20.652344 120.855469 L 33.25 140.9375 L 35.335938 147.664063 L 37.609375 151.074219 L 43.273438 153.203125 L 46.757813 153.746094 L 49.800781 155.707031 L 53.175781 156.46875 L 56.222656 159.949219 L 61.992188 161.253906 L 63.40625 159.296875 L 65.691406 159.839844 L 67.976563 161.910156 L 72 165.933594 L 72.113281 170.613281 L 69.171875 176.382813 L 65.582031 180.078125 L 62.097656 180.734375 L 57.636719 180.953125 L 64.03125 201.292969 L 89.617188 226.261719 L 106.632813 249.140625 L 110.292969 245.195313 L 133.03125 185.15625 L 140.230469 166.554688 L 146.230469 151.355469 L 151.429688 138.953125 L 156.230469 127.953125 L 162.03125 115.152344 L 167.828125 102.554688 L 173.222656 84.742188 L 188.429688 63.152344 L 205.832031 35.554688 L 212.832031 25.554688 L 214.78125 22.933594 L 204.4375 11.46875 L 160.621094 37.742188 L 158.964844 41.003906 L 154.609375 49.578125 L 146.292969 65.953125 L 142.320313 73.777344 L 138.863281 80.582031 L 131 94.769531 L 129.75 96.976563 L 128.699219 99.554688 L 127.527344 102.242188 L 129.214844 104.316406 L 134.304688 110.941406 L 135.71875 114.15625 L 136.226563 116.546875 L 136.421875 118.945313 L 136.5625 131.40625 L 131.839844 146.417969 L 121.835938 172.164063 L 101.335938 187.917969 L 89.390625 173.402344 L 73.539063 156.351563 L 40.652344 116.964844 L -4 63.492188 Z M -4 -4 "/>
<path style=" stroke:none;fill-rule:evenodd;fill:rgb(70.980392%,82.352941%,61.176471%);fill-opacity:1;" d="M -4 260 L 68.558594 260 L 62.117188 251.761719 L 56.617188 235.261719 L 27.839844 260 Z M -4 260 "/>
<path style=" stroke:none;fill-rule:evenodd;fill:rgb(87.058824%,82.352941%,67.45098%);fill-opacity:1;" d="M 1.683594 30.257813 L 12.246094 42.871094 L 50.683594 10.671875 L 38.269531 -4 L 37.601563 -4 L 8.78125 18.980469 L -0.894531 26.980469 Z M 1.683594 30.257813 "/>
<path style=" stroke:none;fill-rule:evenodd;fill:rgb(81.960784%,81.568627%,80.392157%);fill-opacity:1;" d="M -4 10.183594 L 12.542969 -4 L 13.746094 -4 L 17.5 0.480469 L 18.75 -0.144531 L 19.5 0.808594 L 25.207031 -4 L -4 -4 Z M -4 10.183594 "/>
<path style="fill:none;stroke-width:1;stroke-linecap:round;stroke-linejoin:round;stroke:rgb(81.960784%,81.960784%,81.960784%);stroke-opacity:1;stroke-miterlimit:10;" d="M -4 10.183594 L 12.542969 -4 L 13.746094 -4 L 17.5 0.480469 L 18.75 -0.144531 L 19.5 0.808594 L 25.207031 -4 L -4 -4 L -4 10.183594 "/>
<path style=" stroke:none;fill-rule:evenodd;fill:rgb(70.980392%,82.352941%,61.176471%);fill-opacity:1;" d="M -4 111.828125 L -3.398438 111.980469 L -0.265625 112.804688 L 2.375 113.792969 L 4.355469 114.703125 L 5.507813 115.527344 L 6.5 116.761719 L 7.652344 117.257813 L 8.3125 118.25 L 9.054688 119.734375 L 10.539063 121.054688 L 11.777344 123.195313 L 12.355469 125.257813 L 12.683594 126.496094 L 13.753906 127.238281 L 15.15625 127.980469 L 15.980469 129.054688 L 17.054688 129.546875 L 18.292969 130.621094 L 19.117188 131.609375 L 20.1875 132.515625 L 21.753906 133.589844 L 23.074219 133.339844 L 24.558594 132.433594 L 24.3125 131.113281 L 22.910156 130.621094 L 21.425781 128.886719 L 20.433594 127.238281 L 19.117188 125.589844 L 18.621094 123.855469 L 18.871094 122.371094 L 17.546875 121.632813 L 15.652344 120.226563 L 14.25 118.660156 L 13.011719 116.519531 L 10.621094 112.886719 L 8.890625 110.910156 L 7.15625 109.011719 L 5.261719 107.113281 L 3.445313 105.464844 L 2.210938 104.394531 L 0.230469 102.578125 L -1.996094 101.179688 L -3.890625 100.683594 L -4 100.6875 Z M -4 111.828125 "/>
<path style=" stroke:none;fill-rule:evenodd;fill:rgb(81.960784%,81.568627%,80.392157%);fill-opacity:1;" d="M 122.164063 10.125 L 126.929688 16.019531 L 133.046875 23.753906 L 138.085938 33.03125 L 151.960938 24.96875 L 147.710938 17.597656 L 139.835938 6.46875 L 130.273438 14.34375 L 127.9375 12.246094 L 126.875 11.4375 L 124.070313 8.054688 Z M 122.164063 10.125 "/>
<path style="fill:none;stroke-width:1;stroke-linecap:round;stroke-linejoin:round;stroke:rgb(81.960784%,81.960784%,81.960784%);stroke-opacity:1;stroke-miterlimit:10;" d="M 122.164063 10.125 L 126.929688 16.019531 L 133.046875 23.753906 L 138.085938 33.03125 L 151.960938 24.96875 L 147.710938 17.597656 L 139.835938 6.46875 L 130.273438 14.34375 L 127.9375 12.246094 L 126.875 11.4375 L 124.070313 8.054688 L 122.164063 10.125 "/>
<path style=" stroke:none;fill-rule:evenodd;fill:rgb(87.058824%,82.352941%,67.45098%);fill-opacity:1;" d="M 14.5625 17.976563 L 24.261719 29.40625 L 30.222656 24.308594 L 29.25 23.160156 L 30.726563 21.894531 L 32.175781 21.359375 L 33.59375 20.625 L 35.480469 19.011719 L 35.964844 18.117188 L 37.382813 17.386719 L 37.859375 16.5 L 39.273438 15.769531 L 40.140625 14.546875 L 39.070313 13.285156 L 41.089844 11.554688 L 40.035156 9.765625 L 39.152344 9.269531 L 38.414063 7.855469 L 36.785156 5.933594 L 35.175781 4.039063 L 32.613281 5.527344 L 31.550781 4.28125 L 30.394531 5.273438 L 28.960938 5.988281 L 27.101563 7.574219 L 26.601563 8.515625 L 25.195313 9.210938 L 24.742188 10.105469 L 23.28125 10.847656 L 21.710938 12.699219 L 20.191406 14.542969 L 19.511719 13.738281 Z M 28.703125 12.027344 L 33.289063 8.105469 L 37.097656 12.589844 L 32.511719 16.511719 Z M 28.703125 12.027344 "/>
<path style=" stroke:none;fill-rule:evenodd;fill:rgb(81.960784%,81.568627%,80.392157%);fill-opacity:1;" d="M 139.023438 33.03125 L 146.835938 47.347656 L 148.335938 46.597656 L 148.859375 45.546875 L 148.648438 43.53125 L 150.273438 42.65625 L 149.523438 41.34375 L 151.085938 40.46875 L 152.085938 39.09375 L 151.648438 38.097656 L 152.898438 37.46875 L 152.210938 36.21875 L 154.851563 34.753906 L 156.710938 33.71875 L 151.960938 25.53125 Z M 139.023438 33.03125 "/>
<path style="fill:none;stroke-width:1;stroke-linecap:round;stroke-linejoin:round;stroke:rgb(81.960784%,81.960784%,81.960784%);stroke-opacity:1;stroke-miterlimit:10;" d="M 139.023438 33.03125 L 146.835938 47.347656 L 148.335938 46.597656 L 148.859375 45.546875 L 148.648438 43.53125 L 150.273438 42.65625 L 149.523438 41.34375 L 151.085938 40.46875 L 152.085938 39.09375 L 151.648438 38.097656 L 152.898438 37.46875 L 152.210938 36.21875 L 154.851563 34.753906 L 156.710938 33.71875 L 151.960938 25.53125 L 139.023438 33.03125 "/>
<path style=" stroke:none;fill-rule:evenodd;fill:rgb(87.058824%,81.960784%,67.058824%);fill-opacity:1;" d="M 28.144531 227.199219 L 29.347656 228.621094 L 30.492188 229.972656 L 31.683594 231.382813 L 32.820313 232.722656 L 33.816406 233.902344 L 34.714844 234.960938 L 38.195313 232.015625 L 31.621094 224.253906 Z M 28.144531 227.199219 "/>
<path style=" stroke:none;fill-rule:evenodd;fill:rgb(87.058824%,81.960784%,67.058824%);fill-opacity:1;" d="M 44.382813 75.503906 L 49.132813 81.117188 L 52.878906 77.945313 L 48.132813 72.335938 Z M 44.382813 75.503906 "/>
<path style=" stroke:none;fill-rule:evenodd;fill:rgb(70.980392%,82.352941%,61.176471%);fill-opacity:1;" d="M 20.320313 75.480469 L 25.597656 81.75 L 28.777344 79.078125 L 26.410156 76.265625 L 23.496094 72.804688 Z M 20.320313 75.480469 "/>
<path style="fill:none;stroke-width:1;stroke-linecap:round;stroke-linejoin:round;stroke:rgb(100%,100%,100%);stroke-opacity:1;stroke-dasharray:2,3;stroke-miterlimit:10;" d="M 123.960938 101.804688 L 126.339844 104.632813 L 128.078125 106.625 "/>
<path style="fill:none;stroke-width:1;stroke-linecap:round;stroke-linejoin:round;stroke:rgb(100%,100%,100%);stroke-opacity:1;stroke-dasharray:2,3;stroke-miterlimit:10;" d="M 132.988281 97.070313 L 131 94.769531 L 128.996094 92.117188 "/>
<path style="fill:none;stroke-width:1;stroke-linecap:round;stroke-linejoin:round;stroke:rgb(100%,100%,100%);stroke-opacity:1;stroke-dasharray:2,3;stroke-miterlimit:10;" d="M 132.988281 97.070313 L 137.390625 102.773438 "/>
<path style="fill:none;stroke-width:1;stroke-linecap:round;stroke-linejoin:round;stroke:rgb(100%,100%,100%);stroke-opacity:1;stroke-dasharray:2,3;stroke-miterlimit:10;" d="M 166.027344 127.980469 L 168.425781 129.078125 L 169.585938 130.214844 L 171.011719 130.886719 L 172.898438 131.796875 "/>
<path style="fill:none;stroke-width:1;stroke-linecap:round;stroke-linejoin:round;stroke:rgb(100%,100%,100%);stroke-opacity:1;stroke-dasharray:2,3;stroke-miterlimit:10;" d="M 66.542969 95.382813 L 67.011719 97.121094 L 71.492188 102.429688 "/>
<path style="fill:none;stroke-width:1;stroke-linecap:round;stroke-linejoin:round;stroke:rgb(100%,100%,100%);stroke-opacity:1;stroke-dasharray:2,3;stroke-miterlimit:10;" d="M 37.65625 93.96875 L 37.40625 89.78125 L 38.46875 85.03125 "/>
<path style="fill:none;stroke-width:1;stroke-linecap:round;stroke-linejoin:round;stroke:rgb(100%,100%,100%);stroke-opacity:1;stroke-dasharray:2,3;stroke-miterlimit:10;" d="M 71.765625 39.761719 L 73.429688 38.375 L 75.464844 36.679688 L 77.421875 35.234375 L 79.25 33.53125 "/>
<path style="fill:none;stroke-width:1;stroke-linecap:round;stroke-linejoin:round;stroke:rgb(100%,100%,100%);stroke-opacity:1;stroke-dasharray:2,3;stroke-miterlimit:10;" d="M 39.640625 68.824219 L 41.855469 67.910156 L 48.109375 62.746094 "/>
<path style="fill:none;stroke-width:1;stroke-linecap:round;stroke-linejoin:round;stroke:rgb(100%,100%,100%);stroke-opacity:1;stroke-dasharray:2,3;stroke-miterlimit:10;" d="M 74.90625 130.71875 L 76.789063 132.734375 L 77.574219 134.179688 L 77.945313 136.488281 L 78.636719 140.214844 "/>
<path style="fill:none;stroke-width:1;stroke-linecap:round;stroke-linejoin:round;stroke:rgb(100%,100%,100%);stroke-opacity:1;stroke-dasharray:2,3;stroke-miterlimit:10;" d="M 128.078125 106.625 L 129.214844 104.316406 L 130.777344 101.585938 L 131.394531 100.453125 L 132.171875 98.960938 L 132.988281 97.070313 "/>
<path style="fill:none;stroke-width:1;stroke-linecap:round;stroke-linejoin:round;stroke:rgb(100%,100%,100%);stroke-opacity:1;stroke-dasharray:2,3;stroke-miterlimit:10;" d="M 88.738281 93.667969 L 90.15625 97.90625 L 90.917969 99.402344 L 92.085938 100.898438 L 92.769531 101.714844 L 93.027344 103.507813 "/>
<path style="fill:none;stroke-width:1;stroke-linecap:round;stroke-linejoin:round;stroke:rgb(100%,100%,100%);stroke-opacity:1;stroke-dasharray:2,3;stroke-miterlimit:10;" d="M 123.960938 101.804688 L 125.371094 99.082031 L 126.347656 97.203125 L 127.773438 94.25 L 128.996094 92.117188 "/>
<path style="fill:none;stroke-width:1;stroke-linecap:round;stroke-linejoin:round;stroke:rgb(100%,100%,100%);stroke-opacity:1;stroke-dasharray:2,3;stroke-miterlimit:10;" d="M 128.078125 106.625 L 134.320313 113.832031 L 135.71875 114.15625 "/>
<path style="fill:none;stroke-width:1;stroke-linecap:round;stroke-linejoin:round;stroke:rgb(100%,100%,100%);stroke-opacity:1;stroke-dasharray:2,3;stroke-miterlimit:10;" d="M 56.234375 84.5625 L 63.167969 92.964844 L 64.605469 93.230469 "/>
<path style="fill:none;stroke-width:1;stroke-linecap:round;stroke-linejoin:round;stroke:rgb(100%,100%,100%);stroke-opacity:1;stroke-dasharray:2,3;stroke-miterlimit:10;" d="M 126.058594 67.921875 L 126.09375 69.726563 L 124.988281 71.316406 L 117.308594 78.308594 "/>
<path style="fill:none;stroke-width:1;stroke-linecap:round;stroke-linejoin:round;stroke:rgb(100%,100%,100%);stroke-opacity:1;stroke-dasharray:2,3;stroke-miterlimit:10;" d="M 111.832031 51.128906 L 106.867188 50.722656 L 105.808594 50.855469 L 104.925781 51.34375 L 99.175781 56.878906 "/>
<path style="fill:none;stroke-width:1;stroke-linecap:round;stroke-linejoin:round;stroke:rgb(100%,100%,100%);stroke-opacity:1;stroke-dasharray:2,3;stroke-miterlimit:10;" d="M 77.949219 8.4375 L 87.617188 20.128906 "/>
<path style="fill:none;stroke-width:1;stroke-linecap:round;stroke-linejoin:round;stroke:rgb(100%,100%,100%);stroke-opacity:1;stroke-dasharray:2,3;stroke-miterlimit:10;" d="M 71.648438 59.480469 L 79.890625 60.191406 L 86.207031 67.367188 "/>
<path style="fill:none;stroke-width:1;stroke-linecap:round;stroke-linejoin:round;stroke:rgb(100%,100%,100%);stroke-opacity:1;stroke-dasharray:2,3;stroke-miterlimit:10;" d="M 135.71875 114.15625 L 137.898438 113.964844 L 141.238281 115.695313 L 144.339844 117.753906 L 147.230469 119.4375 L 149.007813 120.292969 L 151.902344 121.597656 "/>
<path style="fill:none;stroke-width:1;stroke-linecap:round;stroke-linejoin:round;stroke:rgb(100%,100%,100%);stroke-opacity:1;stroke-dasharray:2,3;stroke-miterlimit:10;" d="M 81.605469 111.527344 L 85.316406 108.441406 L 94.980469 119.03125 "/>
<path style="fill:none;stroke-width:1;stroke-linecap:round;stroke-linejoin:round;stroke:rgb(100%,100%,100%);stroke-opacity:1;stroke-dasharray:2,3;stroke-miterlimit:10;" d="M 103.675781 109.523438 L 108.652344 105.300781 L 117.058594 115.082031 "/>
<path style="fill:none;stroke-width:1;stroke-linecap:round;stroke-linejoin:round;stroke:rgb(100%,100%,100%);stroke-opacity:1;stroke-dasharray:2,3;stroke-miterlimit:10;" d="M 57.832031 36.183594 L 69.425781 50.292969 L 68.335938 51.757813 "/>
<path style="fill:none;stroke-width:1;stroke-linecap:round;stroke-linejoin:round;stroke:rgb(100%,100%,100%);stroke-opacity:1;stroke-dasharray:2,3;stroke-miterlimit:10;" d="M 51.878906 71.929688 L 59.761719 81.363281 L 70.472656 81.628906 "/>
<path style="fill:none;stroke-width:1;stroke-linecap:round;stroke-linejoin:round;stroke:rgb(100%,100%,100%);stroke-opacity:1;stroke-dasharray:2,3;stroke-miterlimit:10;" d="M 143.289063 64.644531 L 128.078125 46.945313 L 123.992188 50.535156 "/>
<path style="fill:none;stroke-width:1;stroke-linecap:round;stroke-linejoin:round;stroke:rgb(100%,100%,100%);stroke-opacity:1;stroke-dasharray:2,3;stroke-miterlimit:10;" d="M 32.40625 87.15625 L 35.96875 90.46875 L 37.65625 93.96875 L 39.40625 103.34375 L 46.03125 111.96875 "/>
<path style="fill:none;stroke-width:1;stroke-linecap:round;stroke-linejoin:round;stroke:rgb(100%,100%,100%);stroke-opacity:1;stroke-dasharray:2,3;stroke-miterlimit:10;" d="M 95.21875 144.09375 L 83.84375 130.53125 L 91.78125 123.65625 L 90.539063 121.679688 "/>
<path style="fill:none;stroke-width:1;stroke-linecap:round;stroke-linejoin:round;stroke:rgb(100%,100%,100%);stroke-opacity:1;stroke-dasharray:2,3;stroke-miterlimit:10;" d="M 128.996094 92.117188 L 133.210938 84.40625 L 140 71.09375 L 143.289063 64.644531 "/>
<path style="fill:none;stroke-width:1;stroke-linecap:round;stroke-linejoin:round;stroke:rgb(100%,100%,100%);stroke-opacity:1;stroke-dasharray:2,3;stroke-miterlimit:10;" d="M 80.445313 93.746094 L 72.328125 100.976563 L 81.605469 111.527344 L 90.539063 121.679688 "/>
<path style="fill:none;stroke-width:1;stroke-linecap:round;stroke-linejoin:round;stroke:rgb(100%,100%,100%);stroke-opacity:1;stroke-dasharray:2,3;stroke-miterlimit:10;" d="M 48.441406 67.816406 L 46.023438 70.46875 L 43.847656 76.058594 L 41.480469 78.222656 L 38.46875 85.03125 L 35.28125 86.71875 L 32.40625 87.15625 L 19.96875 82.15625 "/>
<path style="fill:none;stroke-width:1;stroke-linecap:round;stroke-linejoin:round;stroke:rgb(100%,100%,100%);stroke-opacity:1;stroke-dasharray:2,3;stroke-miterlimit:10;" d="M 59.761719 81.363281 L 56.234375 84.5625 L 52.128906 88.285156 L 51.558594 89.21875 L 64.636719 106.9375 L 65.875 107.246094 L 71.492188 102.429688 L 72.699219 101.394531 "/>
<path style="fill:none;stroke-width:1;stroke-linecap:round;stroke-linejoin:round;stroke:rgb(100%,100%,100%);stroke-opacity:1;stroke-dasharray:2,3;stroke-miterlimit:10;" d="M 97.597656 118.300781 L 92.78125 113.84375 L 92.039063 112.644531 L 91.089844 110.625 L 90.800781 108.769531 L 90.679688 107.121094 L 90.925781 105.636719 L 91.792969 104.152344 L 93.027344 103.507813 L 95.914063 103.164063 L 98.28125 103.96875 L 103.675781 109.523438 L 104.59375 110.46875 L 105.523438 113.480469 L 105.804688 115.550781 L 105.445313 117.445313 L 104.28125 118.34375 L 102 118.777344 L 99.617188 118.75 L 97.597656 118.300781 L 97.21875 118.21875 "/>
<path style="fill:none;stroke-width:1;stroke-linecap:round;stroke-linejoin:round;stroke:rgb(100%,100%,100%);stroke-opacity:1;stroke-dasharray:2,3;stroke-miterlimit:10;" d="M 112.480469 53.816406 L 123.882813 67.207031 L 125.296875 67.738281 L 126.933594 68.132813 L 128.304688 68.046875 L 129.71875 67.605469 L 131.132813 66.542969 L 132.191406 64.953125 L 132.722656 63.183594 L 132.722656 61.550781 L 132.371094 60.136719 L 123.992188 50.535156 L 120.570313 46.613281 L 119.507813 46.082031 L 117.785156 45.683594 L 115.839844 45.640625 L 113.542969 46.65625 L 112.660156 47.851563 L 111.949219 49.128906 L 111.863281 50.589844 L 111.777344 52.089844 L 112.480469 53.816406 "/>
<path style="fill:none;stroke-width:1;stroke-linecap:round;stroke-linejoin:round;stroke:rgb(100%,100%,100%);stroke-opacity:1;stroke-dasharray:2,3;stroke-miterlimit:10;" d="M 68.691406 36.109375 L 70.675781 34.441406 L 72.515625 32.898438 L 74.214844 31.40625 L 76.132813 29.808594 L 87.617188 20.128906 L 94.082031 14.683594 L 98.234375 11.179688 L 99.585938 10.042969 L 101.65625 10.222656 L 109.546875 3.375 L 105.253906 -2 "/>
<path style="fill:none;stroke-width:1;stroke-linecap:round;stroke-linejoin:round;stroke:rgb(100%,100%,100%);stroke-opacity:1;stroke-dasharray:2,3;stroke-miterlimit:10;" d="M 48.109375 62.746094 L 49.53125 60.238281 L 50.949219 58.582031 L 59.144531 51.855469 L 60.707031 51 L 62.933594 50.480469 L 65.210938 50.625 L 66.628906 50.953125 L 68.335938 51.757813 L 69.753906 53.179688 L 70.847656 54.980469 L 71.792969 57.253906 L 71.648438 59.480469 L 71.460938 61.042969 L 70.75 62.746094 L 69.992188 63.882813 L 62.507813 70.992188 L 59.476563 72.742188 L 57.441406 73.3125 L 55.308594 72.929688 L 51.878906 71.929688 L 48.441406 67.816406 L 48.390625 66.585938 L 48.109375 64.691406 L 48.109375 62.746094 "/>
<path style="fill:none;stroke-width:1;stroke-linecap:round;stroke-linejoin:round;stroke:rgb(100%,100%,100%);stroke-opacity:1;stroke-dasharray:2,3;stroke-miterlimit:10;" d="M 55.34375 116.59375 L 53.90625 118.78125 L 52.09375 121.71875 L 52.96875 124.40625 L 54.03125 126.59375 L 58.28125 127.15625 L 62.71875 128.03125 L 63.84375 131.03125 L 64.90625 137.21875 L 68.15625 140.09375 L 73.28125 141.53125 L 78.636719 140.214844 L 79.90625 139.90625 L 88.34375 150.71875 L 95.21875 144.09375 L 100.316406 147.238281 "/>
<path style="fill:none;stroke-width:1;stroke-linecap:round;stroke-linejoin:round;stroke:rgb(100%,100%,100%);stroke-opacity:1;stroke-dasharray:2,3;stroke-miterlimit:10;" d="M 97.636719 -2 L 95.1875 0.511719 L 93.0625 2.449219 L 90.753906 4.074219 L 87.8125 5.699219 L 85.191406 6.761719 L 82.503906 7.761719 L 79.441406 8.324219 L 77.949219 8.4375 L 76.9375 8.511719 L 73.941406 7.886719 L 71.566406 5.824219 L 69.941406 3.511719 L 69.566406 0.699219 L 69.378906 -1.550781 L 69.535156 -2 "/>
<path style="fill:none;stroke-width:1;stroke-linecap:round;stroke-linejoin:round;stroke:rgb(100%,100%,100%);stroke-opacity:1;stroke-dasharray:2,3;stroke-miterlimit:10;" d="M 97.21875 118.21875 L 94.980469 119.03125 L 92.90625 119.78125 L 90.539063 121.679688 L 79.65625 130.40625 L 74.90625 130.71875 L 69.71875 128.96875 L 64.71875 127.71875 L 62.40625 124.34375 L 61.71875 120.59375 L 59.90625 118.40625 L 55.34375 116.59375 L 46.03125 111.96875 L 36.65625 105.21875 L 30.90625 98.71875 L 23.21875 85.53125 L 19.96875 82.15625 L 9.667969 76.347656 "/>
<path style="fill:none;stroke-width:1;stroke-linecap:round;stroke-linejoin:round;stroke:rgb(100%,100%,100%);stroke-opacity:1;stroke-dasharray:2,3;stroke-miterlimit:10;" d="M 123.960938 101.804688 L 105.640625 79.589844 L 91.332031 62.84375 L 76.695313 45.574219 L 73.859375 42.230469 L 71.765625 39.761719 L 68.691406 36.109375 L 64.238281 30.886719 L 51.25 15.921875 L 53.664063 14.140625 L 57.152344 11.03125 L 58.84375 9.6875 L 76.132813 29.808594 L 77.660156 31.65625 L 79.25 33.53125 L 91.875 48.253906 L 99.175781 56.878906 L 108.949219 68.429688 L 112.253906 72.339844 L 117.308594 78.308594 L 128.996094 92.117188 "/>
<path style="fill:none;stroke-width:1;stroke-linecap:round;stroke-linejoin:round;stroke:rgb(100%,100%,100%);stroke-opacity:1;stroke-dasharray:2,3;stroke-miterlimit:10;" d="M 143.289063 64.644531 L 150.773438 49.972656 L 151.773438 47.90625 L 157.835938 35.410156 L 158.273438 33.34375 L 157.835938 32.28125 L 144.519531 9.472656 L 141 2.804688 L 138.304688 -2 M 49.390625 -2 L 58.84375 9.6875 "/>
<path style="fill:none;stroke-width:1;stroke-linecap:round;stroke-linejoin:round;stroke:rgb(100%,100%,100%);stroke-opacity:1;stroke-dasharray:2,3;stroke-miterlimit:10;" d="M -2 62.65625 L 9.667969 76.347656 L 25.273438 94.660156 L 56.585938 131.84375 L 87.523438 168.472656 L 88.460938 168.847656 L 100.316406 147.238281 L 107.171875 134.101563 L 117.058594 115.082031 L 123.960938 101.804688 "/>
<path style="fill:none;stroke-width:8;stroke-linecap:round;stroke-linejoin:round;stroke:rgb(75.686275%,70.980392%,61.568627%);stroke-opacity:1;stroke-miterlimit:10;" d="M 174.085938 129.234375 L 172.085938 128.109375 "/>
<path style="fill:none;stroke-width:8;stroke-linecap:round;stroke-linejoin:round;stroke:rgb(75.686275%,70.980392%,61.568627%);stroke-opacity:1;stroke-miterlimit:10;" d="M 72.613281 84.824219 L 68.761719 88.382813 L 68.3125 89.835938 "/>
<path style="fill:none;stroke-width:8;stroke-linecap:round;stroke-linejoin:round;stroke:rgb(75.686275%,70.980392%,61.568627%);stroke-opacity:1;stroke-miterlimit:10;" d="M 75.371094 40.65625 L 73.859375 42.230469 L 73.632813 43.832031 L 75.023438 45.710938 L 76.695313 45.574219 L 78.390625 44.191406 "/>
<path style="fill:none;stroke-width:8;stroke-linecap:round;stroke-linejoin:round;stroke:rgb(75.686275%,70.980392%,61.568627%);stroke-opacity:1;stroke-miterlimit:10;" d="M 110.253906 135.558594 L 107.171875 134.101563 L 102.683594 132.132813 L 99.316406 131.808594 "/>
<path style="fill:none;stroke-width:8;stroke-linecap:round;stroke-linejoin:round;stroke:rgb(75.686275%,70.980392%,61.568627%);stroke-opacity:1;stroke-miterlimit:10;" d="M 99.769531 13.113281 L 98.234375 11.179688 L 96.769531 10.496094 L 93.675781 12.589844 L 93.703125 13.808594 L 95.511719 16.792969 "/>
<path style="fill:none;stroke-width:8;stroke-linecap:round;stroke-linejoin:round;stroke:rgb(75.686275%,70.980392%,61.568627%);stroke-opacity:1;stroke-miterlimit:10;" d="M 37.730469 51.988281 L 37.683594 64.910156 "/>
<path style="fill:none;stroke-width:8;stroke-linecap:round;stroke-linejoin:round;stroke:rgb(75.686275%,70.980392%,61.568627%);stroke-opacity:1;stroke-miterlimit:10;" d="M 145.710938 29.722656 L 151.585938 39.78125 L 152.523438 41.160156 "/>
<path style="fill:none;stroke-width:8;stroke-linecap:round;stroke-linejoin:round;stroke:rgb(75.686275%,70.980392%,61.568627%);stroke-opacity:1;stroke-miterlimit:10;" d="M 174.085938 129.234375 L 176.457031 130.484375 L 182.148438 133.171875 L 184.460938 133.609375 L 186.332031 134.671875 "/>
<path style="fill:none;stroke-width:8;stroke-linecap:round;stroke-linejoin:round;stroke:rgb(75.686275%,70.980392%,61.568627%);stroke-opacity:1;stroke-miterlimit:10;" d="M 112.324219 30.226563 L 116.789063 35.066406 L 118.722656 35.585938 L 123.746094 35.957031 "/>
<path style="fill:none;stroke-width:8;stroke-linecap:round;stroke-linejoin:round;stroke:rgb(75.686275%,70.980392%,61.568627%);stroke-opacity:1;stroke-miterlimit:10;" d="M 128.265625 35.699219 L 128.089844 37.152344 L 127.070313 38.203125 L 125.625 38.429688 L 124.335938 37.738281 L 123.714844 36.34375 L 124.105469 34.863281 L 125.339844 33.957031 L 126.867188 34.023438 L 128 35.003906 L 128.265625 35.699219 "/>
<path style="fill:none;stroke-width:8;stroke-linecap:round;stroke-linejoin:round;stroke:rgb(75.686275%,70.980392%,61.568627%);stroke-opacity:1;stroke-miterlimit:10;" d="M 146.292969 65.953125 L 143.289063 64.644531 L 141.96875 65.292969 L 140.777344 66.1875 L 139.773438 67.375 L 139.03125 68.972656 L 139.328125 70.347656 L 140 71.09375 L 142.320313 73.777344 "/>
<path style="fill:none;stroke-width:8;stroke-linecap:round;stroke-linejoin:round;stroke:rgb(75.686275%,70.980392%,61.568627%);stroke-opacity:1;stroke-miterlimit:10;" d="M 109.863281 73.949219 L 112.253906 72.339844 L 113.496094 71.183594 L 113.894531 69.902344 L 113.453125 68.707031 L 112.214844 67.339844 L 111.15625 66.941406 L 110.09375 67.296875 L 108.949219 68.429688 L 106.777344 70.238281 "/>
<path style="fill:none;stroke-width:8;stroke-linecap:round;stroke-linejoin:round;stroke:rgb(75.686275%,70.980392%,61.568627%);stroke-opacity:1;stroke-miterlimit:10;" d="M 39.640625 68.824219 L 40.023438 67.152344 L 39.257813 65.609375 L 37.683594 64.910156 L 36.167969 65.277344 L 35.144531 66.464844 L 35.011719 68.019531 L 35.8125 69.367188 L 37.414063 70 L 39.046875 69.46875 L 39.640625 68.824219 "/>
<path style="fill:none;stroke-width:8;stroke-linecap:round;stroke-linejoin:round;stroke:rgb(75.686275%,70.980392%,61.568627%);stroke-opacity:1;stroke-miterlimit:10;" d="M 94.074219 133.207031 L 95.441406 134.324219 L 97.203125 134.425781 L 98.6875 133.460938 L 99.316406 131.808594 L 98.742188 129.957031 L 97.117188 128.902344 L 95.195313 129.128906 L 93.863281 130.535156 L 93.714844 132.382813 L 94.074219 133.207031 "/>
<path style="fill:none;stroke-width:8;stroke-linecap:round;stroke-linejoin:round;stroke:rgb(75.686275%,70.980392%,61.568627%);stroke-opacity:1;stroke-miterlimit:10;" d="M 68.351563 95.386719 L 69.8125 94.316406 L 70.363281 92.59375 L 69.789063 90.878906 L 68.3125 89.835938 L 67.3125 89.707031 L 66.332031 89.929688 L 65.484375 90.46875 L 64.871094 91.265625 L 64.566406 92.222656 L 64.605469 93.230469 L 64.984375 94.160156 L 65.65625 94.90625 L 66.542969 95.382813 L 68.351563 95.386719 "/>
<path style="fill:none;stroke-width:8;stroke-linecap:round;stroke-linejoin:round;stroke:rgb(75.686275%,70.980392%,61.568627%);stroke-opacity:1;stroke-miterlimit:10;" d="M 0.429688 4.734375 L -2.886719 0.945313 L -6.378906 -3.046875 L -9 -6.039063 "/>
<path style="fill:none;stroke-width:8;stroke-linecap:round;stroke-linejoin:round;stroke:rgb(75.686275%,70.980392%,61.568627%);stroke-opacity:1;stroke-miterlimit:10;" d="M 129.1875 12.371094 L 130.273438 14.34375 L 135.523438 21.535156 L 140.710938 30.972656 "/>
<path style="fill:none;stroke-width:8;stroke-linecap:round;stroke-linejoin:round;stroke:rgb(75.686275%,70.980392%,61.568627%);stroke-opacity:1;stroke-miterlimit:10;" d="M 141.460938 32.34375 L 148.859375 45.546875 L 150.398438 47.09375 L 151.773438 47.90625 L 154.609375 49.578125 "/>
<path style="fill:none;stroke-width:8;stroke-linecap:round;stroke-linejoin:round;stroke:rgb(75.686275%,70.980392%,61.568627%);stroke-opacity:1;stroke-miterlimit:10;" d="M 132.625 9.824219 L 139.835938 19.222656 L 144.898438 28.347656 "/>
<path style="fill:none;stroke-width:8;stroke-linecap:round;stroke-linejoin:round;stroke:rgb(75.686275%,70.980392%,61.568627%);stroke-opacity:1;stroke-miterlimit:10;" d="M 150.085938 26.78125 L 154.851563 34.753906 L 154.707031 36.097656 L 152.523438 41.160156 L 150.398438 47.09375 "/>
<path style="fill:none;stroke-width:8;stroke-linecap:round;stroke-linejoin:round;stroke:rgb(75.686275%,70.980392%,61.568627%);stroke-opacity:1;stroke-miterlimit:10;" d="M 117.019531 122.738281 L 118.886719 127.339844 L 120.398438 132.597656 L 118.6875 135.25 L 115.839844 136.667969 L 110.253906 135.558594 "/>
<path style="fill:none;stroke-width:8;stroke-linecap:round;stroke-linejoin:round;stroke:rgb(75.686275%,70.980392%,61.568627%);stroke-opacity:1;stroke-miterlimit:10;" d="M 136.449219 6.335938 L 137.210938 7.097656 L 143.457031 15.53125 L 144.710938 17.410156 L 149.457031 25.71875 "/>
<path style="fill:none;stroke-width:8;stroke-linecap:round;stroke-linejoin:round;stroke:rgb(75.686275%,70.980392%,61.568627%);stroke-opacity:1;stroke-miterlimit:10;" d="M 177.621094 148.492188 L 179.398438 144.359375 L 180.273438 140.234375 L 182.148438 133.171875 L 183.457031 127.984375 L 185.894531 120.984375 "/>
<path style="fill:none;stroke-width:8;stroke-linecap:round;stroke-linejoin:round;stroke:rgb(75.686275%,70.980392%,61.568627%);stroke-opacity:1;stroke-miterlimit:10;" d="M 118.625 6.683594 L 121.125 4.5 L 124.070313 8.054688 L 126.875 11.4375 L 127.9375 12.246094 L 129.1875 12.371094 L 130.3125 11.933594 L 132.625 9.824219 L 136.449219 6.335938 L 138.875 4.125 L 141 2.804688 L 143.015625 1.554688 "/>
<path style="fill:none;stroke-width:8;stroke-linecap:round;stroke-linejoin:round;stroke:rgb(75.686275%,70.980392%,61.568627%);stroke-opacity:1;stroke-miterlimit:10;" d="M 129.023438 -9 L 133.25 -4.0625 L 137.0625 1.058594 L 138.875 4.125 "/>
<path style="fill:none;stroke-width:8;stroke-linecap:round;stroke-linejoin:round;stroke:rgb(75.686275%,70.980392%,61.568627%);stroke-opacity:1;stroke-miterlimit:10;" d="M 25.851563 243.160156 L 40.925781 230.636719 L 18.667969 204.917969 "/>
<path style="fill:none;stroke-width:8;stroke-linecap:round;stroke-linejoin:round;stroke:rgb(75.686275%,70.980392%,61.568627%);stroke-opacity:1;stroke-miterlimit:10;" d="M 17.625 -2.832031 L 19.625 -2.457031 L 22.625 -4.957031 L 25.1875 -7.144531 L 25.9375 -8.019531 L 26.15625 -9 M 8.511719 -9 L -2.886719 0.945313 L -9 6.277344 "/>
<path style="fill:none;stroke-width:8;stroke-linecap:round;stroke-linejoin:round;stroke:rgb(75.686275%,70.980392%,61.568627%);stroke-opacity:1;stroke-miterlimit:10;" d="M 0.535156 -9 L -6.378906 -3.046875 L -9 -0.792969 M -9 12.546875 L 0.429688 4.734375 L 14.277344 -6.730469 L 17.011719 -9 "/>
<path style="fill:none;stroke-width:8;stroke-linecap:round;stroke-linejoin:round;stroke:rgb(75.686275%,70.980392%,61.568627%);stroke-opacity:1;stroke-miterlimit:10;" d="M 190.851563 125.136719 L 196.519531 124.382813 L 203.875 123.183594 L 209.609375 122.4375 L 213.949219 122.015625 L 216.671875 122.304688 L 218.710938 122.988281 L 220.558594 123.828125 L 222.433594 125.417969 L 223.472656 127.589844 L 226.386719 133.292969 L 232.511719 145.210938 L 233.582031 147.804688 L 235.167969 151.628906 L 238.570313 159.335938 L 241.679688 165.429688 L 242.976563 168.890625 L 244.464844 173.070313 L 244.59375 176.375 L 244.59375 180.816406 L 244.046875 184.152344 L 243.300781 187.132813 L 242.457031 189.5625 L 241.128906 194.035156 L 238.761719 199.734375 L 236.660156 203.945313 L 235.71875 207.214844 L 236.300781 209.355469 L 238.699219 212.820313 L 239.507813 214.148438 L 240.769531 216.613281 L 241.515625 219.789063 L 241.648438 221.859375 L 241.613281 224 L 240.902344 225.941406 L 238.796875 229.472656 L 238.246094 231.320313 L 237.988281 233.328125 L 237.988281 235.5625 L 238.894531 238.414063 L 239.960938 240.066406 L 241.484375 243.109375 L 244.398438 246.484375 L 246.730469 248.261719 L 249.554688 248.945313 "/>
<path style="fill:none;stroke-width:8;stroke-linecap:round;stroke-linejoin:round;stroke:rgb(75.686275%,70.980392%,61.568627%);stroke-opacity:1;stroke-miterlimit:10;" d="M 264 230.757813 L 260.203125 234.601563 L 255.941406 239.546875 L 250.03125 247.613281 L 249.554688 248.945313 L 248.976563 250.546875 L 250.398438 253.15625 L 253.054688 260.441406 L 254.386719 264 M 231.402344 264 L 230.105469 261.542969 L 225.199219 260.351563 L 221.304688 258.195313 L 219.910156 257.105469 L 217.734375 255.398438 L 214.480469 253.109375 L 211.867188 251.917969 L 208.523438 251.917969 L 204.582031 253.890625 L 201.378906 256.820313 L 197.4375 261.355469 L 194.914063 263.050781 L 193.109375 264 "/>
<path style="fill:none;stroke-width:8;stroke-linecap:round;stroke-linejoin:round;stroke:rgb(75.686275%,70.980392%,61.568627%);stroke-opacity:1;stroke-miterlimit:10;" d="M 154.410156 264 L 150.648438 258.785156 L 142.808594 247.960938 L 137.492188 239.667969 L 134.125 235.523438 L 131.921875 233.773438 L 128.828125 233.027344 "/>
<path style="fill:none;stroke-width:8;stroke-linecap:round;stroke-linejoin:round;stroke:rgb(75.686275%,70.980392%,61.568627%);stroke-opacity:1;stroke-miterlimit:10;" d="M 192.035156 264 L 194.164063 259.863281 L 196.789063 254.550781 L 201.03125 245.414063 L 205.179688 236.441406 L 208.710938 228.503906 L 209.421875 226.007813 L 209.910156 224.421875 L 209.941406 222.511719 L 208.710938 217.554688 L 207.871094 213.863281 L 207.316406 208.96875 L 206.667969 204.691406 L 206.3125 202.523438 L 205.375 200.417969 L 203.785156 199.476563 L 201.613281 200.320313 L 200.125 202.457031 L 198.3125 205.535156 L 196.984375 210.65625 L 195.039063 216.261719 L 190.664063 224.550781 L 187.394531 228.792969 L 183.765625 234.753906 L 180.074219 240.230469 L 177.515625 242.886719 L 174.273438 244.703125 L 171.457031 244.898438 L 168.476563 243.796875 L 166.367188 242.433594 L 164.75 240.265625 L 163.488281 237.800781 L 162.058594 232.945313 L 161.769531 226.203125 L 161.640625 218.527344 L 162.582031 211.433594 L 166.242188 198.183594 L 168.992188 188.949219 L 170.9375 180.007813 L 174.984375 166.304688 L 177.320313 155.160156 L 177.871094 151.917969 L 177.621094 148.492188 "/>
<path style="fill:none;stroke-width:8;stroke-linecap:round;stroke-linejoin:round;stroke:rgb(75.686275%,70.980392%,61.568627%);stroke-opacity:1;stroke-miterlimit:10;" d="M 218.789063 49.621094 L 215.964844 50.308594 L 213.632813 51.640625 L 211.890625 53.609375 L 209.964844 56.128906 L 208.042969 58.738281 L 205.613281 62.039063 L 202.589844 67.71875 L 199.65625 75.371094 L 197.78125 83.574219 L 196.679688 93.882813 L 196.359375 102.816406 L 196.222656 108.128906 L 194.570313 114.265625 L 192.28125 121.09375 L 190.851563 125.136719 L 187.65625 132.042969 L 186.332031 134.671875 L 180.691406 144.550781 L 177.621094 148.492188 L 172.628906 151.976563 L 167.90625 154.769531 L 164.105469 158.25 L 156.546875 167.230469 L 154.714844 169.292969 L 150.453125 174.835938 L 148.804688 179.003906 L 144.359375 188.488281 L 137.394531 205.390625 L 129.882813 223.03125 L 128.1875 227.980469 L 127.683594 230.867188 L 128.828125 233.027344 L 129.652344 234.578125 L 131.394531 241.585938 L 133.410156 250.976563 L 136.296875 255.972656 L 140.375 261.515625 L 142.46875 264 "/>
<path style="fill:none;stroke-width:8;stroke-linecap:round;stroke-linejoin:round;stroke:rgb(75.686275%,70.980392%,61.568627%);stroke-opacity:1;stroke-miterlimit:10;" d="M 264 190.367188 L 244.125 153 L 210.496094 89.75 L 209.746094 86.875 L 209.25 82.875 L 209.25 79.875 L 209.625 76.5 L 210.496094 73.125 L 212 69.875 L 213.996094 65.878906 L 216.121094 62.128906 L 217.375 58.5 L 218.246094 55.378906 L 218.75 50.625 L 218.789063 49.621094 L 218.871094 47.5 L 218.621094 44.25 L 217.496094 39.75 L 216 36.878906 L 214.5 34.125 L 212.558594 30.5625 L 210 26.191406 L 208.5 24.066406 L 207.246094 22.125 L 205.6875 20.691406 L 203.375 19.253906 L 201.5625 17.5 L 200.125 15.25 L 190.375 -2.375 L 186.613281 -9 "/>
<path style="fill:none;stroke-width:10;stroke-linecap:round;stroke-linejoin:round;stroke:rgb(75.686275%,70.980392%,61.568627%);stroke-opacity:1;stroke-miterlimit:10;" d="M 133.179688 103.710938 L 131.96875 102.777344 L 130.777344 101.585938 L 128.699219 99.554688 "/>
<path style="fill:none;stroke-width:10;stroke-linecap:round;stroke-linejoin:round;stroke:rgb(75.686275%,70.980392%,61.568627%);stroke-opacity:1;stroke-miterlimit:10;" d="M 113.394531 84.898438 L 119.0625 88.589844 L 126.347656 97.203125 L 128.699219 99.554688 "/>
<path style="fill:none;stroke-width:10;stroke-linecap:round;stroke-linejoin:round;stroke:rgb(72.941176%,43.137255%,15.294118%);stroke-opacity:1;stroke-miterlimit:10;" d="M 137.492188 104.867188 L 135.890625 103.585938 L 132.171875 98.960938 L 129.75 96.976563 "/>
<path style="fill:none;stroke-width:10;stroke-linecap:round;stroke-linejoin:round;stroke:rgb(72.941176%,43.137255%,15.294118%);stroke-opacity:1;stroke-miterlimit:10;" d="M 129.214844 104.316406 L 134.304688 110.941406 L 135.71875 114.15625 "/>
<path style="fill:none;stroke-width:10;stroke-linecap:round;stroke-linejoin:round;stroke:rgb(72.941176%,43.137255%,15.294118%);stroke-opacity:1;stroke-miterlimit:10;" d="M 172.085938 128.109375 L 172.421875 125.34375 L 172.023438 120.339844 L 172.023438 115.542969 L 172.625 109.542969 L 174.019531 104.140625 L 176.820313 96.542969 L 179.832031 89.15625 L 200.03125 50.953125 "/>
<path style="fill:none;stroke-width:10;stroke-linecap:round;stroke-linejoin:round;stroke:rgb(72.941176%,43.137255%,15.294118%);stroke-opacity:1;stroke-miterlimit:10;" d="M 197.03125 49.15625 L 173.222656 84.742188 L 170.421875 87.941406 L 166.972656 90.398438 L 164.035156 92.367188 L 141.800781 104.105469 L 139.359375 105.117188 L 137.492188 104.867188 "/>
<path style="fill:none;stroke-width:10;stroke-linecap:round;stroke-linejoin:round;stroke:rgb(72.941176%,43.137255%,15.294118%);stroke-opacity:1;stroke-miterlimit:10;" d="M 123.996094 219.34375 L 142.828125 174.753906 L 146.421875 167.941406 L 150.621094 160.941406 L 155.621094 154.144531 L 165.621094 141.542969 L 168.222656 137.140625 L 170.222656 132.941406 L 171.011719 130.886719 L 172.085938 128.109375 "/>
<path style="fill:none;stroke-width:10;stroke-linecap:round;stroke-linejoin:round;stroke:rgb(72.941176%,43.137255%,15.294118%);stroke-opacity:1;stroke-miterlimit:10;" d="M 135.71875 114.15625 L 136.226563 116.546875 L 136.421875 118.945313 L 136.5625 131.40625 L 136.824219 154.941406 L 136.421875 161.140625 L 135.824219 166.941406 L 134.421875 173.34375 L 132.820313 178.941406 L 120.535156 215.835938 "/>
<path style="fill:none;stroke-width:8;stroke-linecap:round;stroke-linejoin:round;stroke:rgb(75.686275%,70.980392%,61.568627%);stroke-opacity:1;stroke-miterlimit:10;" d="M 107.421875 78.105469 L 110.921875 75.214844 "/>
<path style="fill:none;stroke-width:8;stroke-linecap:round;stroke-linejoin:round;stroke:rgb(75.686275%,70.980392%,61.568627%);stroke-opacity:1;stroke-miterlimit:10;" d="M 72.164063 36.246094 L 75.722656 33.207031 "/>
<path style="fill:none;stroke-width:8;stroke-linecap:round;stroke-linejoin:round;stroke:rgb(75.686275%,70.980392%,61.568627%);stroke-opacity:1;stroke-miterlimit:10;" d="M 4.476563 217.984375 L 18.667969 204.917969 L 21.117188 202.664063 "/>
<path style="fill:none;stroke-width:8;stroke-linecap:round;stroke-linejoin:round;stroke:rgb(75.686275%,70.980392%,61.568627%);stroke-opacity:1;stroke-miterlimit:10;" d="M -9 258.203125 L 18.667969 234.90625 "/>
<path style="fill:none;stroke-width:8;stroke-linecap:round;stroke-linejoin:round;stroke:rgb(75.686275%,70.980392%,61.568627%);stroke-opacity:1;stroke-miterlimit:10;" d="M 4.476563 217.984375 L -9 229.789063 "/>
<path style="fill:none;stroke-width:8;stroke-linecap:round;stroke-linejoin:round;stroke:rgb(75.686275%,70.980392%,61.568627%);stroke-opacity:1;stroke-miterlimit:10;" d="M 93.015625 61.355469 L 91.332031 62.84375 L 86.207031 67.367188 L 71.160156 80.65625 L 70.472656 81.628906 L 70.859375 82.828125 L 72.613281 84.824219 L 80.445313 93.746094 L 83.074219 96.742188 L 84.265625 97.101563 L 85.332031 96.507813 L 87.070313 95.0625 L 88.738281 93.667969 L 105.640625 79.589844 L 107.421875 78.105469 "/>
<path style="fill:none;stroke-width:8;stroke-linecap:round;stroke-linejoin:round;stroke:rgb(75.686275%,70.980392%,61.568627%);stroke-opacity:1;stroke-miterlimit:10;" d="M 89.917969 49.984375 L 91.875 48.253906 L 112.324219 30.226563 L 113.785156 28.9375 L 100.421875 12.566406 L 95.511719 16.792969 L 77.660156 31.65625 L 75.722656 33.207031 "/>
<path style="fill:none;stroke-width:8;stroke-linecap:round;stroke-linejoin:round;stroke:rgb(75.686275%,70.980392%,61.568627%);stroke-opacity:1;stroke-miterlimit:10;" d="M 55.773438 9.386719 L 52.445313 12.761719 L 25.804688 34.925781 L 24.871094 36.507813 L 25.148438 37.890625 L 36.222656 51.148438 L 37.730469 51.988281 L 39.175781 51.601563 L 57.832031 36.183594 L 64.238281 30.886719 L 66.457031 29.367188 "/>
<path style="fill:none;stroke-width:8;stroke-linecap:round;stroke-linejoin:round;stroke:rgb(75.686275%,70.980392%,61.568627%);stroke-opacity:1;stroke-miterlimit:10;" d="M -9 201.027344 L 7.53125 186.601563 "/>
<path style="fill:none;stroke-width:8;stroke-linecap:round;stroke-linejoin:round;stroke:rgb(75.686275%,70.980392%,61.568627%);stroke-opacity:1;stroke-miterlimit:10;" d="M 126.339844 104.632813 L 127.527344 102.242188 "/>
<path style="fill:none;stroke-width:8;stroke-linecap:round;stroke-linejoin:round;stroke:rgb(75.686275%,70.980392%,61.568627%);stroke-opacity:1;stroke-miterlimit:10;" d="M 128.699219 99.554688 L 129.75 96.976563 "/>
<path style="fill:none;stroke-width:8;stroke-linecap:round;stroke-linejoin:round;stroke:rgb(75.686275%,70.980392%,61.568627%);stroke-opacity:1;stroke-miterlimit:10;" d="M 127.527344 102.242188 L 128.699219 99.554688 "/>
<path style="fill:none;stroke-width:8;stroke-linecap:round;stroke-linejoin:round;stroke:rgb(75.686275%,70.980392%,61.568627%);stroke-opacity:1;stroke-miterlimit:10;" d="M 35.6875 254.3125 L 44.117188 246.832031 L 46.898438 241.519531 "/>
<path style="fill:none;stroke-width:8;stroke-linecap:round;stroke-linejoin:round;stroke:rgb(75.686275%,70.980392%,61.568627%);stroke-opacity:1;stroke-miterlimit:10;" d="M 129.75 96.976563 L 131 94.769531 L 138.863281 80.582031 L 142.320313 73.777344 L 146.023438 66.484375 L 154.609375 49.578125 L 158.964844 41.003906 L 160.621094 37.742188 L 161.019531 35.742188 "/>
<path style="fill:none;stroke-width:8;stroke-linecap:round;stroke-linejoin:round;stroke:rgb(75.686275%,70.980392%,61.568627%);stroke-opacity:1;stroke-miterlimit:10;" d="M 89.390625 173.402344 L 96.910156 160.855469 L 110.253906 135.558594 L 117.019531 122.738281 L 118.277344 120.351563 L 126.339844 104.632813 "/>
<path style="fill:none;stroke-width:8;stroke-linecap:round;stroke-linejoin:round;stroke:rgb(75.686275%,70.980392%,61.568627%);stroke-opacity:1;stroke-miterlimit:10;" d="M 24.351563 264 L 35.6875 254.3125 "/>
<path style="fill:none;stroke-width:8;stroke-linecap:round;stroke-linejoin:round;stroke:rgb(75.686275%,70.980392%,61.568627%);stroke-opacity:1;stroke-miterlimit:10;" d="M 161.019531 35.742188 L 160.820313 33.34375 L 152.964844 19.324219 L 143.015625 1.554688 L 141.910156 -0.410156 L 137.101563 -9 "/>
<path style="fill:none;stroke-width:8;stroke-linecap:round;stroke-linejoin:round;stroke:rgb(75.686275%,70.980392%,61.568627%);stroke-opacity:1;stroke-miterlimit:10;" d="M -9 57.503906 L -4 63.492188 L 40.652344 116.964844 L 73.539063 156.351563 L 89.390625 173.402344 "/>
<path style="fill:none;stroke-width:8;stroke-linecap:round;stroke-linejoin:round;stroke:rgb(75.686275%,70.980392%,61.568627%);stroke-opacity:1;stroke-miterlimit:10;" d="M -9 202.058594 L 4.476563 217.984375 L 18.667969 234.90625 L 25.851563 243.160156 L 32.734375 251.066406 L 35.6875 254.3125 "/>
<path style="fill:none;stroke-width:8;stroke-linecap:round;stroke-linejoin:round;stroke:rgb(75.686275%,70.980392%,61.568627%);stroke-opacity:1;stroke-miterlimit:10;" d="M 46.898438 241.519531 L 41.335938 244.0625 L 32.734375 251.066406 L 17.507813 264 "/>
<path style="fill:none;stroke-width:10;stroke-linecap:round;stroke-linejoin:round;stroke:rgb(75.686275%,70.980392%,61.568627%);stroke-opacity:1;stroke-miterlimit:10;" d="M 127.527344 102.242188 L 129.214844 104.316406 "/>
<path style="fill:none;stroke-width:10;stroke-linecap:round;stroke-linejoin:round;stroke:rgb(75.686275%,70.980392%,61.568627%);stroke-opacity:1;stroke-miterlimit:10;" d="M 166.566406 126.773438 L 168.648438 127.605469 L 172.085938 128.109375 "/>
<path style="fill:none;stroke-width:10;stroke-linecap:round;stroke-linejoin:round;stroke:rgb(75.686275%,70.980392%,61.568627%);stroke-opacity:1;stroke-miterlimit:10;" d="M 172.085938 128.109375 L 169.457031 125.421875 L 167.496094 124.703125 "/>
<path style="fill:none;stroke-width:10;stroke-linecap:round;stroke-linejoin:round;stroke:rgb(75.686275%,70.980392%,61.568627%);stroke-opacity:1;stroke-miterlimit:10;" d="M 133.179688 103.710938 L 131.394531 100.453125 L 129.75 96.976563 "/>
<path style="fill:none;stroke-width:10;stroke-linecap:round;stroke-linejoin:round;stroke:rgb(75.686275%,70.980392%,61.568627%);stroke-opacity:1;stroke-miterlimit:10;" d="M 45.882813 5.605469 L 50.683594 10.671875 L 52.445313 12.761719 "/>
<path style="fill:none;stroke-width:10;stroke-linecap:round;stroke-linejoin:round;stroke:rgb(75.686275%,70.980392%,61.568627%);stroke-opacity:1;stroke-miterlimit:10;" d="M 65.15625 27.695313 L 66.457031 29.367188 L 70.675781 34.441406 L 72.164063 36.246094 "/>
<path style="fill:none;stroke-width:10;stroke-linecap:round;stroke-linejoin:round;stroke:rgb(75.686275%,70.980392%,61.568627%);stroke-opacity:1;stroke-miterlimit:10;" d="M 83.886719 42.9375 L 77.421875 35.234375 L 75.722656 33.207031 "/>
<path style="fill:none;stroke-width:10;stroke-linecap:round;stroke-linejoin:round;stroke:rgb(75.686275%,70.980392%,61.568627%);stroke-opacity:1;stroke-miterlimit:10;" d="M 118.117188 90.5625 L 125.371094 99.082031 L 127.527344 102.242188 "/>
<path style="fill:none;stroke-width:10;stroke-linecap:round;stroke-linejoin:round;stroke:rgb(75.686275%,70.980392%,61.568627%);stroke-opacity:1;stroke-miterlimit:10;" d="M 34.675781 -8.117188 L 36.351563 -5.949219 L 38 -4.320313 L 45.882813 5.605469 "/>
<path style="fill:none;stroke-width:10;stroke-linecap:round;stroke-linejoin:round;stroke:rgb(75.686275%,70.980392%,61.568627%);stroke-opacity:1;stroke-miterlimit:10;" d="M 52.445313 12.761719 L 53.664063 14.140625 L 65.15625 27.695313 "/>
<path style="fill:none;stroke-width:10;stroke-linecap:round;stroke-linejoin:round;stroke:rgb(75.686275%,70.980392%,61.568627%);stroke-opacity:1;stroke-miterlimit:10;" d="M 153.300781 118.527344 L 147.210938 115.609375 L 141.898438 112.109375 L 135.085938 105.828125 L 134.171875 104.828125 L 133.179688 103.710938 "/>
<path style="fill:none;stroke-width:10;stroke-linecap:round;stroke-linejoin:round;stroke:rgb(75.686275%,70.980392%,61.568627%);stroke-opacity:1;stroke-miterlimit:10;" d="M 129.214844 104.316406 L 134.898438 109.480469 L 138.335938 111.980469 L 141.585938 114.546875 L 146.644531 117.796875 L 152.394531 120.511719 "/>
<path style="fill:none;stroke-width:10;stroke-linecap:round;stroke-linejoin:round;stroke:rgb(75.686275%,70.980392%,61.568627%);stroke-opacity:1;stroke-miterlimit:10;" d="M 75.722656 33.207031 L 74.214844 31.40625 L 57.152344 11.03125 L 55.773438 9.386719 L 54.058594 7.332031 L 44.609375 -3.949219 "/>
<path style="fill:none;stroke-width:10;stroke-linecap:round;stroke-linejoin:round;stroke:rgb(75.686275%,70.980392%,61.568627%);stroke-opacity:1;stroke-miterlimit:10;" d="M 129.75 96.976563 L 127.773438 94.25 L 119.164063 84.898438 L 110.921875 75.214844 L 109.863281 73.949219 L 106.777344 70.238281 L 89.917969 49.984375 L 83.886719 42.9375 "/>
<path style="fill:none;stroke-width:10;stroke-linecap:round;stroke-linejoin:round;stroke:rgb(75.686275%,70.980392%,61.568627%);stroke-opacity:1;stroke-miterlimit:10;" d="M 72.164063 36.246094 L 73.429688 38.375 L 75.371094 40.65625 L 78.390625 44.191406 L 93.015625 61.355469 L 107.421875 78.105469 L 113.394531 84.898438 L 118.117188 90.5625 "/>
<path style="fill:none;stroke-width:11;stroke-linecap:round;stroke-linejoin:round;stroke:rgb(72.941176%,43.137255%,15.294118%);stroke-opacity:1;stroke-miterlimit:10;" d="M 200.03125 50.953125 L 208.429688 37.753906 L 211.175781 33.847656 "/>
<path style="fill:none;stroke-width:11;stroke-linecap:round;stroke-linejoin:round;stroke:rgb(72.941176%,43.137255%,15.294118%);stroke-opacity:1;stroke-miterlimit:10;" d="M 209.042969 30.964844 L 205.832031 35.554688 L 197.03125 49.15625 "/>
<path style="fill:none;stroke-width:11;stroke-linecap:round;stroke-linejoin:round;stroke:rgb(72.941176%,43.137255%,15.294118%);stroke-opacity:1;stroke-miterlimit:10;" d="M 243.730469 -12 L 243.03125 -11.246094 L 235.230469 -2.644531 L 227.632813 6.355469 "/>
<path style="fill:none;stroke-width:11;stroke-linecap:round;stroke-linejoin:round;stroke:rgb(72.941176%,43.137255%,15.294118%);stroke-opacity:1;stroke-miterlimit:10;" d="M 230.429688 8.550781 L 237.429688 0.152344 L 245.429688 -8.644531 L 248.625 -12 "/>
<path style="fill:none;stroke-width:11;stroke-linecap:round;stroke-linejoin:round;stroke:rgb(72.941176%,43.137255%,15.294118%);stroke-opacity:1;stroke-miterlimit:10;" d="M 113.746094 246.125 L 123.996094 219.34375 L 136.832031 185.753906 L 143.632813 167.753906 L 149.632813 152.554688 L 154.828125 140.15625 L 159.832031 128.554688 L 165.628906 115.953125 L 171.230469 103.753906 L 177.230469 91.554688 L 183.429688 79.753906 L 191.429688 65.15625 L 200.03125 50.953125 "/>
<path style="fill:none;stroke-width:11;stroke-linecap:round;stroke-linejoin:round;stroke:rgb(72.941176%,43.137255%,15.294118%);stroke-opacity:1;stroke-miterlimit:10;" d="M 197.03125 49.15625 L 188.429688 63.152344 L 180.230469 77.957031 L 173.832031 90.351563 L 167.828125 102.554688 L 162.03125 115.152344 L 156.230469 127.953125 L 151.429688 138.953125 L 146.230469 151.355469 L 140.230469 166.554688 L 133.03125 185.15625 L 120.535156 215.835938 L 110.292969 245.195313 "/>
<path style="fill:none;stroke-width:6;stroke-linecap:round;stroke-linejoin:round;stroke:rgb(100%,100%,100%);stroke-opacity:1;stroke-miterlimit:10;" d="M 174.085938 129.234375 L 172.085938 128.109375 "/>
<path style="fill:none;stroke-width:6;stroke-linecap:round;stroke-linejoin:round;stroke:rgb(100%,100%,100%);stroke-opacity:1;stroke-miterlimit:10;" d="M 72.613281 84.824219 L 68.761719 88.382813 L 68.3125 89.835938 "/>
<path style="fill:none;stroke-width:6;stroke-linecap:round;stroke-linejoin:round;stroke:rgb(100%,100%,100%);stroke-opacity:1;stroke-miterlimit:10;" d="M 75.371094 40.65625 L 73.859375 42.230469 L 73.632813 43.832031 L 75.023438 45.710938 L 76.695313 45.574219 L 78.390625 44.191406 "/>
<path style="fill:none;stroke-width:6;stroke-linecap:round;stroke-linejoin:round;stroke:rgb(100%,100%,100%);stroke-opacity:1;stroke-miterlimit:10;" d="M 110.253906 135.558594 L 107.171875 134.101563 L 102.683594 132.132813 L 99.316406 131.808594 "/>
<path style="fill:none;stroke-width:6;stroke-linecap:round;stroke-linejoin:round;stroke:rgb(100%,100%,100%);stroke-opacity:1;stroke-miterlimit:10;" d="M 99.769531 13.113281 L 98.234375 11.179688 L 96.769531 10.496094 L 93.675781 12.589844 L 93.703125 13.808594 L 95.511719 16.792969 "/>
<path style="fill:none;stroke-width:6;stroke-linecap:round;stroke-linejoin:round;stroke:rgb(100%,100%,100%);stroke-opacity:1;stroke-miterlimit:10;" d="M 37.730469 51.988281 L 37.683594 64.910156 "/>
<path style="fill:none;stroke-width:6;stroke-linecap:round;stroke-linejoin:round;stroke:rgb(100%,100%,100%);stroke-opacity:1;stroke-miterlimit:10;" d="M 145.710938 29.722656 L 151.585938 39.78125 L 152.523438 41.160156 "/>
<path style="fill:none;stroke-width:6;stroke-linecap:round;stroke-linejoin:round;stroke:rgb(100%,100%,100%);stroke-opacity:1;stroke-miterlimit:10;" d="M 174.085938 129.234375 L 176.457031 130.484375 L 182.148438 133.171875 L 184.460938 133.609375 L 186.332031 134.671875 "/>
<path style="fill:none;stroke-width:6;stroke-linecap:round;stroke-linejoin:round;stroke:rgb(100%,100%,100%);stroke-opacity:1;stroke-miterlimit:10;" d="M 112.324219 30.226563 L 116.789063 35.066406 L 118.722656 35.585938 L 123.746094 35.957031 "/>
<path style="fill:none;stroke-width:6;stroke-linecap:round;stroke-linejoin:round;stroke:rgb(100%,100%,100%);stroke-opacity:1;stroke-miterlimit:10;" d="M 128.265625 35.699219 L 128.089844 37.152344 L 127.070313 38.203125 L 125.625 38.429688 L 124.335938 37.738281 L 123.714844 36.34375 L 124.105469 34.863281 L 125.339844 33.957031 L 126.867188 34.023438 L 128 35.003906 L 128.265625 35.699219 "/>
<path style="fill:none;stroke-width:6;stroke-linecap:round;stroke-linejoin:round;stroke:rgb(100%,100%,100%);stroke-opacity:1;stroke-miterlimit:10;" d="M 146.292969 65.953125 L 143.289063 64.644531 L 141.96875 65.292969 L 140.777344 66.1875 L 139.773438 67.375 L 139.03125 68.972656 L 139.328125 70.347656 L 140 71.09375 L 142.320313 73.777344 "/>
<path style="fill:none;stroke-width:6;stroke-linecap:round;stroke-linejoin:round;stroke:rgb(100%,100%,100%);stroke-opacity:1;stroke-miterlimit:10;" d="M 109.863281 73.949219 L 112.253906 72.339844 L 113.496094 71.183594 L 113.894531 69.902344 L 113.453125 68.707031 L 112.214844 67.339844 L 111.15625 66.941406 L 110.09375 67.296875 L 108.949219 68.429688 L 106.777344 70.238281 "/>
<path style="fill:none;stroke-width:6;stroke-linecap:round;stroke-linejoin:round;stroke:rgb(100%,100%,100%);stroke-opacity:1;stroke-miterlimit:10;" d="M 39.640625 68.824219 L 40.023438 67.152344 L 39.257813 65.609375 L 37.683594 64.910156 L 36.167969 65.277344 L 35.144531 66.464844 L 35.011719 68.019531 L 35.8125 69.367188 L 37.414063 70 L 39.046875 69.46875 L 39.640625 68.824219 "/>
<path style="fill:none;stroke-width:6;stroke-linecap:round;stroke-linejoin:round;stroke:rgb(100%,100%,100%);stroke-opacity:1;stroke-miterlimit:10;" d="M 94.074219 133.207031 L 95.441406 134.324219 L 97.203125 134.425781 L 98.6875 133.460938 L 99.316406 131.808594 L 98.742188 129.957031 L 97.117188 128.902344 L 95.195313 129.128906 L 93.863281 130.535156 L 93.714844 132.382813 L 94.074219 133.207031 "/>
<path style="fill:none;stroke-width:6;stroke-linecap:round;stroke-linejoin:round;stroke:rgb(100%,100%,100%);stroke-opacity:1;stroke-miterlimit:10;" d="M 68.351563 95.386719 L 69.8125 94.316406 L 70.363281 92.59375 L 69.789063 90.878906 L 68.3125 89.835938 L 67.3125 89.707031 L 66.332031 89.929688 L 65.484375 90.46875 L 64.871094 91.265625 L 64.566406 92.222656 L 64.605469 93.230469 L 64.984375 94.160156 L 65.65625 94.90625 L 66.542969 95.382813 L 68.351563 95.386719 "/>
<path style="fill:none;stroke-width:6;stroke-linecap:round;stroke-linejoin:round;stroke:rgb(100%,100%,100%);stroke-opacity:1;stroke-miterlimit:10;" d="M 0.429688 4.734375 L -2.886719 0.945313 L -6.378906 -3.046875 L -9 -6.039063 "/>
<path style="fill:none;stroke-width:6;stroke-linecap:round;stroke-linejoin:round;stroke:rgb(100%,100%,100%);stroke-opacity:1;stroke-miterlimit:10;" d="M 129.1875 12.371094 L 130.273438 14.34375 L 135.523438 21.535156 L 140.710938 30.972656 "/>
<path style="fill:none;stroke-width:6;stroke-linecap:round;stroke-linejoin:round;stroke:rgb(100%,100%,100%);stroke-opacity:1;stroke-miterlimit:10;" d="M 141.460938 32.34375 L 148.859375 45.546875 L 150.398438 47.09375 L 151.773438 47.90625 L 154.609375 49.578125 "/>
<path style="fill:none;stroke-width:6;stroke-linecap:round;stroke-linejoin:round;stroke:rgb(100%,100%,100%);stroke-opacity:1;stroke-miterlimit:10;" d="M 132.625 9.824219 L 139.835938 19.222656 L 144.898438 28.347656 "/>
<path style="fill:none;stroke-width:6;stroke-linecap:round;stroke-linejoin:round;stroke:rgb(100%,100%,100%);stroke-opacity:1;stroke-miterlimit:10;" d="M 150.085938 26.78125 L 154.851563 34.753906 L 154.707031 36.097656 L 152.523438 41.160156 L 150.398438 47.09375 "/>
<path style="fill:none;stroke-width:6;stroke-linecap:round;stroke-linejoin:round;stroke:rgb(100%,100%,100%);stroke-opacity:1;stroke-miterlimit:10;" d="M 117.019531 122.738281 L 118.886719 127.339844 L 120.398438 132.597656 L 118.6875 135.25 L 115.839844 136.667969 L 110.253906 135.558594 "/>
<path style="fill:none;stroke-width:6;stroke-linecap:round;stroke-linejoin:round;stroke:rgb(100%,100%,100%);stroke-opacity:1;stroke-miterlimit:10;" d="M 136.449219 6.335938 L 137.210938 7.097656 L 143.457031 15.53125 L 144.710938 17.410156 L 149.457031 25.71875 "/>
<path style="fill:none;stroke-width:6;stroke-linecap:round;stroke-linejoin:round;stroke:rgb(100%,100%,100%);stroke-opacity:1;stroke-miterlimit:10;" d="M 177.621094 148.492188 L 179.398438 144.359375 L 180.273438 140.234375 L 182.148438 133.171875 L 183.457031 127.984375 L 185.894531 120.984375 "/>
<path style="fill:none;stroke-width:6;stroke-linecap:round;stroke-linejoin:round;stroke:rgb(100%,100%,100%);stroke-opacity:1;stroke-miterlimit:10;" d="M 118.625 6.683594 L 121.125 4.5 L 124.070313 8.054688 L 126.875 11.4375 L 127.9375 12.246094 L 129.1875 12.371094 L 130.3125 11.933594 L 132.625 9.824219 L 136.449219 6.335938 L 138.875 4.125 L 141 2.804688 L 143.015625 1.554688 "/>
<path style="fill:none;stroke-width:6;stroke-linecap:round;stroke-linejoin:round;stroke:rgb(100%,100%,100%);stroke-opacity:1;stroke-miterlimit:10;" d="M 129.023438 -9 L 133.25 -4.0625 L 137.0625 1.058594 L 138.875 4.125 "/>
<path style="fill:none;stroke-width:6;stroke-linecap:round;stroke-linejoin:round;stroke:rgb(100%,100%,100%);stroke-opacity:1;stroke-miterlimit:10;" d="M 25.851563 243.160156 L 40.925781 230.636719 L 18.667969 204.917969 "/>
<path style="fill:none;stroke-width:6;stroke-linecap:round;stroke-linejoin:round;stroke:rgb(100%,100%,100%);stroke-opacity:1;stroke-miterlimit:10;" d="M 17.625 -2.832031 L 19.625 -2.457031 L 22.625 -4.957031 L 25.1875 -7.144531 L 25.9375 -8.019531 L 26.15625 -9 M 8.511719 -9 L -2.886719 0.945313 L -9 6.277344 "/>
<path style="fill:none;stroke-width:6;stroke-linecap:round;stroke-linejoin:round;stroke:rgb(100%,100%,100%);stroke-opacity:1;stroke-miterlimit:10;" d="M 0.535156 -9 L -6.378906 -3.046875 L -9 -0.792969 M -9 12.546875 L 0.429688 4.734375 L 14.277344 -6.730469 L 17.011719 -9 "/>
<path style="fill:none;stroke-width:6;stroke-linecap:round;stroke-linejoin:round;stroke:rgb(100%,100%,100%);stroke-opacity:1;stroke-miterlimit:10;" d="M 190.851563 125.136719 L 196.519531 124.382813 L 203.875 123.183594 L 209.609375 122.4375 L 213.949219 122.015625 L 216.671875 122.304688 L 218.710938 122.988281 L 220.558594 123.828125 L 222.433594 125.417969 L 223.472656 127.589844 L 226.386719 133.292969 L 232.511719 145.210938 L 233.582031 147.804688 L 235.167969 151.628906 L 238.570313 159.335938 L 241.679688 165.429688 L 242.976563 168.890625 L 244.464844 173.070313 L 244.59375 176.375 L 244.59375 180.816406 L 244.046875 184.152344 L 243.300781 187.132813 L 242.457031 189.5625 L 241.128906 194.035156 L 238.761719 199.734375 L 236.660156 203.945313 L 235.71875 207.214844 L 236.300781 209.355469 L 238.699219 212.820313 L 239.507813 214.148438 L 240.769531 216.613281 L 241.515625 219.789063 L 241.648438 221.859375 L 241.613281 224 L 240.902344 225.941406 L 238.796875 229.472656 L 238.246094 231.320313 L 237.988281 233.328125 L 237.988281 235.5625 L 238.894531 238.414063 L 239.960938 240.066406 L 241.484375 243.109375 L 244.398438 246.484375 L 246.730469 248.261719 L 249.554688 248.945313 "/>
<path style="fill:none;stroke-width:6;stroke-linecap:round;stroke-linejoin:round;stroke:rgb(100%,100%,100%);stroke-opacity:1;stroke-miterlimit:10;" d="M 264 230.757813 L 260.203125 234.601563 L 255.941406 239.546875 L 250.03125 247.613281 L 249.554688 248.945313 L 248.976563 250.546875 L 250.398438 253.15625 L 253.054688 260.441406 L 254.386719 264 M 231.402344 264 L 230.105469 261.542969 L 225.199219 260.351563 L 221.304688 258.195313 L 219.910156 257.105469 L 217.734375 255.398438 L 214.480469 253.109375 L 211.867188 251.917969 L 208.523438 251.917969 L 204.582031 253.890625 L 201.378906 256.820313 L 197.4375 261.355469 L 194.914063 263.050781 L 193.109375 264 "/>
<path style="fill:none;stroke-width:6;stroke-linecap:round;stroke-linejoin:round;stroke:rgb(100%,100%,100%);stroke-opacity:1;stroke-miterlimit:10;" d="M 154.410156 264 L 150.648438 258.785156 L 142.808594 247.960938 L 137.492188 239.667969 L 134.125 235.523438 L 131.921875 233.773438 L 128.828125 233.027344 "/>
<path style="fill:none;stroke-width:6;stroke-linecap:round;stroke-linejoin:round;stroke:rgb(100%,100%,100%);stroke-opacity:1;stroke-miterlimit:10;" d="M 192.035156 264 L 194.164063 259.863281 L 196.789063 254.550781 L 201.03125 245.414063 L 205.179688 236.441406 L 208.710938 228.503906 L 209.421875 226.007813 L 209.910156 224.421875 L 209.941406 222.511719 L 208.710938 217.554688 L 207.871094 213.863281 L 207.316406 208.96875 L 206.667969 204.691406 L 206.3125 202.523438 L 205.375 200.417969 L 203.785156 199.476563 L 201.613281 200.320313 L 200.125 202.457031 L 198.3125 205.535156 L 196.984375 210.65625 L 195.039063 216.261719 L 190.664063 224.550781 L 187.394531 228.792969 L 183.765625 234.753906 L 180.074219 240.230469 L 177.515625 242.886719 L 174.273438 244.703125 L 171.457031 244.898438 L 168.476563 243.796875 L 166.367188 242.433594 L 164.75 240.265625 L 163.488281 237.800781 L 162.058594 232.945313 L 161.769531 226.203125 L 161.640625 218.527344 L 162.582031 211.433594 L 166.242188 198.183594 L 168.992188 188.949219 L 170.9375 180.007813 L 174.984375 166.304688 L 177.320313 155.160156 L 177.871094 151.917969 L 177.621094 148.492188 "/>
<path style="fill:none;stroke-width:6;stroke-linecap:round;stroke-linejoin:round;stroke:rgb(100%,100%,100%);stroke-opacity:1;stroke-miterlimit:10;" d="M 218.789063 49.621094 L 215.964844 50.308594 L 213.632813 51.640625 L 211.890625 53.609375 L 209.964844 56.128906 L 208.042969 58.738281 L 205.613281 62.039063 L 202.589844 67.71875 L 199.65625 75.371094 L 197.78125 83.574219 L 196.679688 93.882813 L 196.359375 102.816406 L 196.222656 108.128906 L 194.570313 114.265625 L 192.28125 121.09375 L 190.851563 125.136719 L 187.65625 132.042969 L 186.332031 134.671875 L 180.691406 144.550781 L 177.621094 148.492188 L 172.628906 151.976563 L 167.90625 154.769531 L 164.105469 158.25 L 156.546875 167.230469 L 154.714844 169.292969 L 150.453125 174.835938 L 148.804688 179.003906 L 144.359375 188.488281 L 137.394531 205.390625 L 129.882813 223.03125 L 128.1875 227.980469 L 127.683594 230.867188 L 128.828125 233.027344 L 129.652344 234.578125 L 131.394531 241.585938 L 133.410156 250.976563 L 136.296875 255.972656 L 140.375 261.515625 L 142.46875 264 "/>
<path style="fill:none;stroke-width:6;stroke-linecap:round;stroke-linejoin:round;stroke:rgb(100%,100%,100%);stroke-opacity:1;stroke-miterlimit:10;" d="M 264 190.367188 L 244.125 153 L 210.496094 89.75 L 209.746094 86.875 L 209.25 82.875 L 209.25 79.875 L 209.625 76.5 L 210.496094 73.125 L 212 69.875 L 213.996094 65.878906 L 216.121094 62.128906 L 217.375 58.5 L 218.246094 55.378906 L 218.75 50.625 L 218.789063 49.621094 L 218.871094 47.5 L 218.621094 44.25 L 217.496094 39.75 L 216 36.878906 L 214.5 34.125 L 212.558594 30.5625 L 210 26.191406 L 208.5 24.066406 L 207.246094 22.125 L 205.6875 20.691406 L 203.375 19.253906 L 201.5625 17.5 L 200.125 15.25 L 190.375 -2.375 L 186.613281 -9 "/>
<path style="fill:none;stroke-width:8;stroke-linecap:round;stroke-linejoin:round;stroke:rgb(100%,99.215686%,54.509804%);stroke-opacity:1;stroke-miterlimit:10;" d="M 133.179688 103.710938 L 131.96875 102.777344 L 130.777344 101.585938 L 128.699219 99.554688 "/>
<path style="fill:none;stroke-width:8;stroke-linecap:round;stroke-linejoin:round;stroke:rgb(100%,99.215686%,54.509804%);stroke-opacity:1;stroke-miterlimit:10;" d="M 113.394531 84.898438 L 119.0625 88.589844 L 126.347656 97.203125 L 128.699219 99.554688 "/>
<path style="fill:none;stroke-width:8;stroke-linecap:round;stroke-linejoin:round;stroke:rgb(99.215686%,57.254902%,22.745098%);stroke-opacity:1;stroke-miterlimit:10;" d="M 137.492188 104.867188 L 135.890625 103.585938 L 132.171875 98.960938 L 129.75 96.976563 "/>
<path style="fill:none;stroke-width:8;stroke-linecap:round;stroke-linejoin:round;stroke:rgb(99.215686%,57.254902%,22.745098%);stroke-opacity:1;stroke-miterlimit:10;" d="M 129.214844 104.316406 L 134.304688 110.941406 L 135.71875 114.15625 "/>
<path style="fill:none;stroke-width:8;stroke-linecap:round;stroke-linejoin:round;stroke:rgb(99.215686%,57.254902%,22.745098%);stroke-opacity:1;stroke-miterlimit:10;" d="M 172.085938 128.109375 L 172.421875 125.34375 L 172.023438 120.339844 L 172.023438 115.542969 L 172.625 109.542969 L 174.019531 104.140625 L 176.820313 96.542969 L 179.832031 89.15625 L 200.03125 50.953125 "/>
<path style="fill:none;stroke-width:8;stroke-linecap:round;stroke-linejoin:round;stroke:rgb(99.215686%,57.254902%,22.745098%);stroke-opacity:1;stroke-miterlimit:10;" d="M 197.03125 49.15625 L 173.222656 84.742188 L 170.421875 87.941406 L 166.972656 90.398438 L 164.035156 92.367188 L 141.800781 104.105469 L 139.359375 105.117188 L 137.492188 104.867188 "/>
<path style="fill:none;stroke-width:8;stroke-linecap:round;stroke-linejoin:round;stroke:rgb(99.215686%,57.254902%,22.745098%);stroke-opacity:1;stroke-miterlimit:10;" d="M 123.996094 219.34375 L 142.828125 174.753906 L 146.421875 167.941406 L 150.621094 160.941406 L 155.621094 154.144531 L 165.621094 141.542969 L 168.222656 137.140625 L 170.222656 132.941406 L 171.011719 130.886719 L 172.085938 128.109375 "/>
<path style="fill:none;stroke-width:8;stroke-linecap:round;stroke-linejoin:round;stroke:rgb(99.215686%,57.254902%,22.745098%);stroke-opacity:1;stroke-miterlimit:10;" d="M 135.71875 114.15625 L 136.226563 116.546875 L 136.421875 118.945313 L 136.5625 131.40625 L 136.824219 154.941406 L 136.421875 161.140625 L 135.824219 166.941406 L 134.421875 173.34375 L 132.820313 178.941406 L 120.535156 215.835938 "/>
<path style="fill:none;stroke-width:6;stroke-linecap:round;stroke-linejoin:round;stroke:rgb(100%,100%,100%);stroke-opacity:1;stroke-miterlimit:10;" d="M 107.421875 78.105469 L 110.921875 75.214844 "/>
<path style="fill:none;stroke-width:6;stroke-linecap:round;stroke-linejoin:round;stroke:rgb(100%,100%,100%);stroke-opacity:1;stroke-miterlimit:10;" d="M 72.164063 36.246094 L 75.722656 33.207031 "/>
<path style="fill:none;stroke-width:6;stroke-linecap:round;stroke-linejoin:round;stroke:rgb(100%,100%,100%);stroke-opacity:1;stroke-miterlimit:10;" d="M 4.476563 217.984375 L 18.667969 204.917969 L 21.117188 202.664063 "/>
<path style="fill:none;stroke-width:6;stroke-linecap:round;stroke-linejoin:round;stroke:rgb(100%,100%,100%);stroke-opacity:1;stroke-miterlimit:10;" d="M -9 258.203125 L 18.667969 234.90625 "/>
<path style="fill:none;stroke-width:6;stroke-linecap:round;stroke-linejoin:round;stroke:rgb(100%,100%,100%);stroke-opacity:1;stroke-miterlimit:10;" d="M 4.476563 217.984375 L -9 229.789063 "/>
<path style="fill:none;stroke-width:6;stroke-linecap:round;stroke-linejoin:round;stroke:rgb(100%,100%,100%);stroke-opacity:1;stroke-miterlimit:10;" d="M 93.015625 61.355469 L 91.332031 62.84375 L 86.207031 67.367188 L 71.160156 80.65625 L 70.472656 81.628906 L 70.859375 82.828125 L 72.613281 84.824219 L 80.445313 93.746094 L 83.074219 96.742188 L 84.265625 97.101563 L 85.332031 96.507813 L 87.070313 95.0625 L 88.738281 93.667969 L 105.640625 79.589844 L 107.421875 78.105469 "/>
<path style="fill:none;stroke-width:6;stroke-linecap:round;stroke-linejoin:round;stroke:rgb(100%,100%,100%);stroke-opacity:1;stroke-miterlimit:10;" d="M 89.917969 49.984375 L 91.875 48.253906 L 112.324219 30.226563 L 113.785156 28.9375 L 100.421875 12.566406 L 95.511719 16.792969 L 77.660156 31.65625 L 75.722656 33.207031 "/>
<path style="fill:none;stroke-width:6;stroke-linecap:round;stroke-linejoin:round;stroke:rgb(100%,100%,100%);stroke-opacity:1;stroke-miterlimit:10;" d="M 55.773438 9.386719 L 52.445313 12.761719 L 25.804688 34.925781 L 24.871094 36.507813 L 25.148438 37.890625 L 36.222656 51.148438 L 37.730469 51.988281 L 39.175781 51.601563 L 57.832031 36.183594 L 64.238281 30.886719 L 66.457031 29.367188 "/>
<path style="fill:none;stroke-width:6;stroke-linecap:round;stroke-linejoin:round;stroke:rgb(100%,100%,100%);stroke-opacity:1;stroke-miterlimit:10;" d="M -9 201.027344 L 7.53125 186.601563 "/>
<path style="fill:none;stroke-width:6;stroke-linecap:round;stroke-linejoin:round;stroke:rgb(100%,99.215686%,54.509804%);stroke-opacity:1;stroke-miterlimit:10;" d="M 126.339844 104.632813 L 127.527344 102.242188 "/>
<path style="fill:none;stroke-width:6;stroke-linecap:round;stroke-linejoin:round;stroke:rgb(100%,99.215686%,54.509804%);stroke-opacity:1;stroke-miterlimit:10;" d="M 128.699219 99.554688 L 129.75 96.976563 "/>
<path style="fill:none;stroke-width:6;stroke-linecap:round;stroke-linejoin:round;stroke:rgb(100%,99.215686%,54.509804%);stroke-opacity:1;stroke-miterlimit:10;" d="M 127.527344 102.242188 L 128.699219 99.554688 "/>
<path style="fill:none;stroke-width:6;stroke-linecap:round;stroke-linejoin:round;stroke:rgb(100%,99.215686%,54.509804%);stroke-opacity:1;stroke-miterlimit:10;" d="M 35.6875 254.3125 L 44.117188 246.832031 L 46.898438 241.519531 "/>
<path style="fill:none;stroke-width:6;stroke-linecap:round;stroke-linejoin:round;stroke:rgb(100%,99.215686%,54.509804%);stroke-opacity:1;stroke-miterlimit:10;" d="M 129.75 96.976563 L 131 94.769531 L 138.863281 80.582031 L 142.320313 73.777344 L 146.023438 66.484375 L 154.609375 49.578125 L 158.964844 41.003906 L 160.621094 37.742188 L 161.019531 35.742188 "/>
<path style="fill:none;stroke-width:6;stroke-linecap:round;stroke-linejoin:round;stroke:rgb(100%,99.215686%,54.509804%);stroke-opacity:1;stroke-miterlimit:10;" d="M 89.390625 173.402344 L 96.910156 160.855469 L 110.253906 135.558594 L 117.019531 122.738281 L 118.277344 120.351563 L 126.339844 104.632813 "/>
<path style="fill:none;stroke-width:6;stroke-linecap:round;stroke-linejoin:round;stroke:rgb(100%,99.215686%,54.509804%);stroke-opacity:1;stroke-miterlimit:10;" d="M 24.351563 264 L 35.6875 254.3125 "/>
<path style="fill:none;stroke-width:6;stroke-linecap:round;stroke-linejoin:round;stroke:rgb(100%,99.215686%,54.509804%);stroke-opacity:1;stroke-miterlimit:10;" d="M 161.019531 35.742188 L 160.820313 33.34375 L 152.964844 19.324219 L 143.015625 1.554688 L 141.910156 -0.410156 L 137.101563 -9 "/>
<path style="fill:none;stroke-width:6;stroke-linecap:round;stroke-linejoin:round;stroke:rgb(100%,99.215686%,54.509804%);stroke-opacity:1;stroke-miterlimit:10;" d="M -9 57.503906 L -4 63.492188 L 40.652344 116.964844 L 73.539063 156.351563 L 89.390625 173.402344 "/>
<path style="fill:none;stroke-width:6;stroke-linecap:round;stroke-linejoin:round;stroke:rgb(100%,99.215686%,54.509804%);stroke-opacity:1;stroke-miterlimit:10;" d="M -9 202.058594 L 4.476563 217.984375 L 18.667969 234.90625 L 25.851563 243.160156 L 32.734375 251.066406 L 35.6875 254.3125 "/>
<path style="fill:none;stroke-width:6;stroke-linecap:round;stroke-linejoin:round;stroke:rgb(100%,99.215686%,54.509804%);stroke-opacity:1;stroke-miterlimit:10;" d="M 46.898438 241.519531 L 41.335938 244.0625 L 32.734375 251.066406 L 17.507813 264 "/>
<path style="fill:none;stroke-width:8;stroke-linecap:round;stroke-linejoin:round;stroke:rgb(100%,99.215686%,54.509804%);stroke-opacity:1;stroke-miterlimit:10;" d="M 127.527344 102.242188 L 129.214844 104.316406 "/>
<path style="fill:none;stroke-width:8;stroke-linecap:round;stroke-linejoin:round;stroke:rgb(100%,99.215686%,54.509804%);stroke-opacity:1;stroke-miterlimit:10;" d="M 166.566406 126.773438 L 168.648438 127.605469 L 172.085938 128.109375 "/>
<path style="fill:none;stroke-width:8;stroke-linecap:round;stroke-linejoin:round;stroke:rgb(100%,99.215686%,54.509804%);stroke-opacity:1;stroke-miterlimit:10;" d="M 172.085938 128.109375 L 169.457031 125.421875 L 167.496094 124.703125 "/>
<path style="fill:none;stroke-width:8;stroke-linecap:round;stroke-linejoin:round;stroke:rgb(100%,99.215686%,54.509804%);stroke-opacity:1;stroke-miterlimit:10;" d="M 133.179688 103.710938 L 131.394531 100.453125 L 129.75 96.976563 "/>
<path style="fill:none;stroke-width:8;stroke-linecap:round;stroke-linejoin:round;stroke:rgb(100%,99.215686%,54.509804%);stroke-opacity:1;stroke-miterlimit:10;" d="M 45.882813 5.605469 L 50.683594 10.671875 L 52.445313 12.761719 "/>
<path style="fill:none;stroke-width:8;stroke-linecap:round;stroke-linejoin:round;stroke:rgb(100%,99.215686%,54.509804%);stroke-opacity:1;stroke-miterlimit:10;" d="M 65.15625 27.695313 L 66.457031 29.367188 L 70.675781 34.441406 L 72.164063 36.246094 "/>
<path style="fill:none;stroke-width:8;stroke-linecap:round;stroke-linejoin:round;stroke:rgb(100%,99.215686%,54.509804%);stroke-opacity:1;stroke-miterlimit:10;" d="M 83.886719 42.9375 L 77.421875 35.234375 L 75.722656 33.207031 "/>
<path style="fill:none;stroke-width:8;stroke-linecap:round;stroke-linejoin:round;stroke:rgb(100%,99.215686%,54.509804%);stroke-opacity:1;stroke-miterlimit:10;" d="M 118.117188 90.5625 L 125.371094 99.082031 L 127.527344 102.242188 "/>
<path style="fill:none;stroke-width:8;stroke-linecap:round;stroke-linejoin:round;stroke:rgb(100%,99.215686%,54.509804%);stroke-opacity:1;stroke-miterlimit:10;" d="M 34.675781 -8.117188 L 36.351563 -5.949219 L 38 -4.320313 L 45.882813 5.605469 "/>
<path style="fill:none;stroke-width:8;stroke-linecap:round;stroke-linejoin:round;stroke:rgb(100%,99.215686%,54.509804%);stroke-opacity:1;stroke-miterlimit:10;" d="M 52.445313 12.761719 L 53.664063 14.140625 L 65.15625 27.695313 "/>
<path style="fill:none;stroke-width:8;stroke-linecap:round;stroke-linejoin:round;stroke:rgb(100%,99.215686%,54.509804%);stroke-opacity:1;stroke-miterlimit:10;" d="M 153.300781 118.527344 L 147.210938 115.609375 L 141.898438 112.109375 L 135.085938 105.828125 L 134.171875 104.828125 L 133.179688 103.710938 "/>
<path style="fill:none;stroke-width:8;stroke-linecap:round;stroke-linejoin:round;stroke:rgb(100%,99.215686%,54.509804%);stroke-opacity:1;stroke-miterlimit:10;" d="M 129.214844 104.316406 L 134.898438 109.480469 L 138.335938 111.980469 L 141.585938 114.546875 L 146.644531 117.796875 L 152.394531 120.511719 "/>
<path style="fill:none;stroke-width:8;stroke-linecap:round;stroke-linejoin:round;stroke:rgb(100%,99.215686%,54.509804%);stroke-opacity:1;stroke-miterlimit:10;" d="M 75.722656 33.207031 L 74.214844 31.40625 L 57.152344 11.03125 L 55.773438 9.386719 L 54.058594 7.332031 L 44.609375 -3.949219 "/>
<path style="fill:none;stroke-width:8;stroke-linecap:round;stroke-linejoin:round;stroke:rgb(100%,99.215686%,54.509804%);stroke-opacity:1;stroke-miterlimit:10;" d="M 129.75 96.976563 L 127.773438 94.25 L 119.164063 84.898438 L 110.921875 75.214844 L 109.863281 73.949219 L 106.777344 70.238281 L 89.917969 49.984375 L 83.886719 42.9375 "/>
<path style="fill:none;stroke-width:8;stroke-linecap:round;stroke-linejoin:round;stroke:rgb(100%,99.215686%,54.509804%);stroke-opacity:1;stroke-miterlimit:10;" d="M 72.164063 36.246094 L 73.429688 38.375 L 75.371094 40.65625 L 78.390625 44.191406 L 93.015625 61.355469 L 107.421875 78.105469 L 113.394531 84.898438 L 118.117188 90.5625 "/>
<path style="fill:none;stroke-width:9;stroke-linecap:round;stroke-linejoin:round;stroke:rgb(99.215686%,57.254902%,22.745098%);stroke-opacity:1;stroke-miterlimit:10;" d="M 200.03125 50.953125 L 208.429688 37.753906 L 211.175781 33.847656 "/>
<path style="fill:none;stroke-width:9;stroke-linecap:round;stroke-linejoin:round;stroke:rgb(99.215686%,57.254902%,22.745098%);stroke-opacity:1;stroke-miterlimit:10;" d="M 209.042969 30.964844 L 205.832031 35.554688 L 197.03125 49.15625 "/>
<path style="fill:none;stroke-width:9;stroke-linecap:round;stroke-linejoin:round;stroke:rgb(99.215686%,57.254902%,22.745098%);stroke-opacity:1;stroke-miterlimit:10;" d="M 243.730469 -12 L 243.03125 -11.246094 L 235.230469 -2.644531 L 227.632813 6.355469 "/>
<path style="fill:none;stroke-width:9;stroke-linecap:round;stroke-linejoin:round;stroke:rgb(99.215686%,57.254902%,22.745098%);stroke-opacity:1;stroke-miterlimit:10;" d="M 230.429688 8.550781 L 237.429688 0.152344 L 245.429688 -8.644531 L 248.625 -12 "/>
<path style="fill:none;stroke-width:9;stroke-linecap:round;stroke-linejoin:round;stroke:rgb(99.215686%,57.254902%,22.745098%);stroke-opacity:1;stroke-miterlimit:10;" d="M 113.746094 246.125 L 123.996094 219.34375 L 136.832031 185.753906 L 143.632813 167.753906 L 149.632813 152.554688 L 154.828125 140.15625 L 159.832031 128.554688 L 165.628906 115.953125 L 171.230469 103.753906 L 177.230469 91.554688 L 183.429688 79.753906 L 191.429688 65.15625 L 200.03125 50.953125 "/>
<path style="fill:none;stroke-width:9;stroke-linecap:round;stroke-linejoin:round;stroke:rgb(99.215686%,57.254902%,22.745098%);stroke-opacity:1;stroke-miterlimit:10;" d="M 197.03125 49.15625 L 188.429688 63.152344 L 180.230469 77.957031 L 173.832031 90.351563 L 167.828125 102.554688 L 162.03125 115.152344 L 156.230469 127.953125 L 151.429688 138.953125 L 146.230469 151.355469 L 140.230469 166.554688 L 133.03125 185.15625 L 120.535156 215.835938 L 110.292969 245.195313 "/>
<path style="fill:none;stroke-width:5;stroke-linecap:butt;stroke-linejoin:round;stroke:rgb(53.333333%,53.333333%,53.333333%);stroke-opacity:1;stroke-miterlimit:10;" d="M 151.902344 121.597656 L 166.027344 127.980469 "/>
<path style="fill:none;stroke-width:5;stroke-linecap:butt;stroke-linejoin:round;stroke:rgb(53.333333%,53.333333%,53.333333%);stroke-opacity:1;stroke-miterlimit:10;" d="M 229.484375 13.179688 L 218.859375 25.679688 L 210.984375 37.179688 "/>
<path style="fill:none;stroke-width:10;stroke-linecap:butt;stroke-linejoin:round;stroke:rgb(53.333333%,53.333333%,53.333333%);stroke-opacity:1;stroke-miterlimit:10;" d="M 167.496094 124.703125 L 164.300781 123.453125 L 153.300781 118.527344 "/>
<path style="fill:none;stroke-width:10;stroke-linecap:butt;stroke-linejoin:round;stroke:rgb(53.333333%,53.333333%,53.333333%);stroke-opacity:1;stroke-miterlimit:10;" d="M 152.394531 120.511719 L 166.566406 126.773438 "/>
<path style="fill:none;stroke-width:11;stroke-linecap:butt;stroke-linejoin:round;stroke:rgb(53.333333%,53.333333%,53.333333%);stroke-opacity:1;stroke-miterlimit:10;" d="M 227.632813 6.355469 L 219.828125 16.152344 L 214.78125 22.933594 L 212.832031 25.554688 L 209.042969 30.964844 "/>
<path style="fill:none;stroke-width:11;stroke-linecap:butt;stroke-linejoin:round;stroke:rgb(53.333333%,53.333333%,53.333333%);stroke-opacity:1;stroke-miterlimit:10;" d="M 211.175781 33.847656 L 215.03125 28.355469 L 222.230469 18.554688 L 230.429688 8.550781 "/>
<path style="fill:none;stroke-width:11;stroke-linecap:butt;stroke-linejoin:round;stroke:rgb(53.333333%,53.333333%,53.333333%);stroke-opacity:1;stroke-miterlimit:10;" d="M 110.292969 245.195313 L 102.808594 265 "/>
<path style="fill:none;stroke-width:11;stroke-linecap:butt;stroke-linejoin:round;stroke:rgb(53.333333%,53.333333%,53.333333%);stroke-opacity:1;stroke-miterlimit:10;" d="M 106.617188 265 L 111.230469 252.953125 L 113.746094 246.125 "/>
<path style="fill:none;stroke-width:3;stroke-linecap:round;stroke-linejoin:round;stroke:rgb(98.039216%,98.039216%,96.078431%);stroke-opacity:1;stroke-miterlimit:10;" d="M 151.902344 121.597656 L 166.027344 127.980469 "/>
<path style="fill:none;stroke-width:3;stroke-linecap:round;stroke-linejoin:round;stroke:rgb(98.039216%,98.039216%,96.078431%);stroke-opacity:1;stroke-miterlimit:10;" d="M 229.484375 13.179688 L 218.859375 25.679688 L 210.984375 37.179688 "/>
<path style="fill:none;stroke-width:8;stroke-linecap:round;stroke-linejoin:round;stroke:rgb(100%,99.215686%,54.509804%);stroke-opacity:1;stroke-miterlimit:10;" d="M 167.496094 124.703125 L 164.300781 123.453125 L 153.300781 118.527344 "/>
<path style="fill:none;stroke-width:8;stroke-linecap:round;stroke-linejoin:round;stroke:rgb(100%,99.215686%,54.509804%);stroke-opacity:1;stroke-miterlimit:10;" d="M 152.394531 120.511719 L 166.566406 126.773438 "/>
<path style="fill:none;stroke-width:9;stroke-linecap:round;stroke-linejoin:round;stroke:rgb(99.215686%,57.254902%,22.745098%);stroke-opacity:1;stroke-miterlimit:10;" d="M 227.632813 6.355469 L 219.828125 16.152344 L 214.78125 22.933594 L 212.832031 25.554688 L 209.042969 30.964844 "/>
<path style="fill:none;stroke-width:9;stroke-linecap:round;stroke-linejoin:round;stroke:rgb(99.215686%,57.254902%,22.745098%);stroke-opacity:1;stroke-miterlimit:10;" d="M 211.175781 33.847656 L 215.03125 28.355469 L 222.230469 18.554688 L 230.429688 8.550781 "/>
<path style="fill:none;stroke-width:9;stroke-linecap:round;stroke-linejoin:round;stroke:rgb(99.215686%,57.254902%,22.745098%);stroke-opacity:1;stroke-miterlimit:10;" d="M 110.292969 245.195313 L 102.808594 265 "/>
<path style="fill:none;stroke-width:9;stroke-linecap:round;stroke-linejoin:round;stroke:rgb(99.215686%,57.254902%,22.745098%);stroke-opacity:1;stroke-miterlimit:10;" d="M 106.617188 265 L 111.230469 252.953125 L 113.746094 246.125 "/>
<path style=" stroke:none;fill-rule:evenodd;fill:rgb(33.333333%,33.333333%,33.333333%);fill-opacity:1;" d="M 146.589844 148.296875 C 146.714844 148.007813 146.742188 147.757813 146.667969 147.546875 C 146.585938 147.328125 146.402344 147.164063 146.121094 147.046875 C 145.839844 146.933594 145.597656 146.921875 145.386719 147.015625 C 145.167969 147.109375 144.996094 147.304688 144.871094 147.59375 L 144.433594 148.625 L 146.152344 149.328125 Z M 150.167969 149.703125 C 150.324219 149.328125 150.347656 149.011719 150.246094 148.75 C 150.140625 148.492188 149.914063 148.289063 149.558594 148.140625 C 149.207031 147.996094 148.902344 147.980469 148.652344 148.09375 C 148.402344 148.210938 148.199219 148.453125 148.042969 148.828125 L 147.574219 149.921875 L 149.699219 150.796875 Z M 147.964844 146.765625 C 148.269531 146.414063 148.636719 146.199219 149.074219 146.125 C 149.511719 146.054688 149.980469 146.121094 150.480469 146.328125 C 151.261719 146.652344 151.746094 147.132813 151.933594 147.765625 C 152.128906 148.390625 152.027344 149.1875 151.621094 150.15625 L 150.324219 153.28125 L 142.246094 149.921875 L 143.417969 147.109375 C 143.835938 146.101563 144.308594 145.4375 144.839844 145.125 C 145.371094 144.804688 146.011719 144.796875 146.761719 145.109375 C 147.148438 145.277344 147.445313 145.5 147.652344 145.78125 C 147.851563 146.054688 147.957031 146.382813 147.964844 146.765625 Z M 145.429688 142.296875 L 146.742188 139.1875 C 147.128906 138.273438 147.65625 137.664063 148.320313 137.359375 C 148.988281 137.058594 149.742188 137.085938 150.585938 137.4375 C 151.429688 137.804688 151.976563 138.328125 152.226563 139.015625 C 152.46875 139.703125 152.394531 140.507813 152.007813 141.421875 L 151.476563 142.640625 L 154.273438 143.8125 L 153.492188 145.703125 Z M 147.726563 141.046875 L 149.976563 142 L 150.414063 140.984375 C 150.570313 140.621094 150.59375 140.296875 150.476563 140.015625 C 150.363281 139.734375 150.128906 139.515625 149.773438 139.359375 C 149.410156 139.203125 149.09375 139.1875 148.820313 139.3125 C 148.539063 139.429688 148.320313 139.667969 148.164063 140.03125 Z M 147.726563 141.046875 "/>
</g>
</svg>

