<?xml version="1.0" encoding="UTF-8"?>
<svg xmlns="http://www.w3.org/2000/svg" xmlns:xlink="http://www.w3.org/1999/xlink" width="256pt" height="256pt" viewBox="0 0 256 256" version="1.1">
<g id="surface2">
<rect x="0" y="0" width="256" height="256" style="fill:rgb(94.901961%,93.72549%,91.372549%);fill-opacity:1;stroke:none;"/>
<path style="fill:none;stroke-width:8;stroke-linecap:round;stroke-linejoin:round;stroke:rgb(75.686275%,70.980392%,61.568627%);stroke-opacity:1;stroke-miterlimit:10;" d="M 10.125 264 L 3.660156 258.40625 L -9 247.152344 M -9 39.984375 L -8.292969 37.136719 L -6.589844 27.054688 L -6.335938 23.675781 L -6.335938 20.957031 L -6.636719 18.523438 L -9 5.332031 "/>
<path style="fill:none;stroke-width:9;stroke-linecap:round;stroke-linejoin:round;stroke:rgb(75.686275%,70.980392%,61.568627%);stroke-opacity:1;stroke-miterlimit:10;" d="M 213.710938 -10 L 227.101563 -3.441406 L 236.492188 0.890625 L 248.375 5.789063 L 251.730469 6.734375 L 256.136719 7.777344 L 263.613281 9.230469 L 265 9.390625 "/>
<path style="fill:none;stroke-width:6;stroke-linecap:round;stroke-linejoin:round;stroke:rgb(100%,99.215686%,54.509804%);stroke-opacity:1;stroke-miterlimit:10;" d="M 10.125 264 L 3.660156 258.40625 L -9 247.152344 M -9 39.984375 L -8.292969 37.136719 L -6.589844 27.054688 L -6.335938 23.675781 L -6.335938 20.957031 L -6.636719 18.523438 L -9 5.332031 "/>
<path style="fill:none;stroke-width:7;stroke-linecap:round;stroke-linejoin:round;stroke:rgb(100%,99.215686%,54.509804%);stroke-opacity:1;stroke-miterlimit:10;" d="M 213.710938 -10 L 227.101563 -3.441406 L 236.492188 0.890625 L 248.375 5.789063 L 251.730469 6.734375 L 256.136719 7.777344 L 263.613281 9.230469 L 265 9.390625 "/>
</g>
</svg>

