<?xml version="1.0" encoding="UTF-8"?>
<svg xmlns="http://www.w3.org/2000/svg" xmlns:xlink="http://www.w3.org/1999/xlink" width="256pt" height="256pt" viewBox="0 0 256 256" version="1.1">
<g id="surface2">
<rect x="0" y="0" width="256" height="256" style="fill:rgb(94.901961%,93.72549%,91.372549%);fill-opacity:1;stroke:none;"/>
<path style="fill:none;stroke-width:8;stroke-linecap:round;stroke-linejoin:round;stroke:rgb(75.686275%,70.980392%,61.568627%);stroke-opacity:1;stroke-miterlimit:10;" d="M 38.738281 14.921875 L 46.636719 10.558594 "/>
<path style="fill:none;stroke-width:8;stroke-linecap:round;stroke-linejoin:round;stroke:rgb(75.686275%,70.980392%,61.568627%);stroke-opacity:1;stroke-miterlimit:10;" d="M -3.695313 210.984375 L -0.640625 213.621094 L 8.65625 218.738281 L 18.371094 223.726563 L 20.492188 224.511719 "/>
<path style="fill:none;stroke-width:8;stroke-linecap:round;stroke-linejoin:round;stroke:rgb(75.686275%,70.980392%,61.568627%);stroke-opacity:1;stroke-miterlimit:10;" d="M -3.671875 188.382813 L 8.28125 177.554688 L 11.429688 176.269531 L 15.085938 174.980469 L 20.84375 173.253906 L 23.988281 169.613281 L 25.6875 167.132813 "/>
<path style="fill:none;stroke-width:8;stroke-linecap:round;stroke-linejoin:round;stroke:rgb(75.686275%,70.980392%,61.568627%);stroke-opacity:1;stroke-miterlimit:10;" d="M 264 103.496094 L 262.480469 104.605469 L 260.105469 105.578125 L 255.722656 106.863281 L 251.273438 110.945313 L 249.316406 111.449219 L 247.382813 111.039063 L 243.910156 109 L 239.296875 104.605469 L 234.167969 99.332031 L 231.535156 97.730469 L 228.625 96.476563 L 226.386719 94.402344 L 223.777344 90.039063 L 222.167969 83.132813 "/>
<path style="fill:none;stroke-width:8;stroke-linecap:round;stroke-linejoin:round;stroke:rgb(75.686275%,70.980392%,61.568627%);stroke-opacity:1;stroke-miterlimit:10;" d="M -9 105.367188 L -7.867188 104.636719 L -6.046875 103.726563 L -2.550781 103.726563 L 19.515625 110.820313 "/>
<path style="fill:none;stroke-width:8;stroke-linecap:round;stroke-linejoin:round;stroke:rgb(75.686275%,70.980392%,61.568627%);stroke-opacity:1;stroke-miterlimit:10;" d="M 139.285156 84.859375 L 140.496094 80.875 L 141.476563 79.304688 L 142.988281 77.609375 L 145.484375 76.070313 L 152.960938 73.183594 L 155.082031 71.457031 L 156.410156 69.351563 L 156.808594 67.625 L 156.808594 65.304688 L 156.226563 57.644531 L 154.5 47.285156 L 152.195313 39.59375 L 150.609375 36.738281 L 148.488281 34.226563 L 145.808594 28.859375 L 144.433594 23.867188 L 141.753906 13.289063 L 139.074219 4.84375 L 136.183594 -1.875 L 132.921875 -8.78125 L 132.835938 -9 "/>
<path style="fill:none;stroke-width:8;stroke-linecap:round;stroke-linejoin:round;stroke:rgb(75.686275%,70.980392%,61.568627%);stroke-opacity:1;stroke-miterlimit:10;" d="M -6.585938 264 L -4.441406 228.78125 L -3.695313 210.984375 L -3.671875 188.382813 L -3.671875 183.109375 L -2.785156 174.101563 L -1.109375 167.667969 L 6.023438 149.617188 L 19.515625 110.820313 L 36.570313 61.160156 L 40.277344 49.984375 L 42.371094 41.949219 L 43.46875 35.167969 L 43.304688 31.117188 L 42 25.46875 L 38.738281 14.921875 L 38.410156 13.886719 L 38.109375 10.871094 L 38.574219 2.425781 L 40.25 -9 "/>
<path style="fill:none;stroke-width:6;stroke-linecap:round;stroke-linejoin:round;stroke:rgb(100%,100%,100%);stroke-opacity:1;stroke-miterlimit:10;" d="M 38.738281 14.921875 L 46.636719 10.558594 "/>
<path style="fill:none;stroke-width:6;stroke-linecap:round;stroke-linejoin:round;stroke:rgb(100%,100%,100%);stroke-opacity:1;stroke-miterlimit:10;" d="M -3.695313 210.984375 L -0.640625 213.621094 L 8.65625 218.738281 L 18.371094 223.726563 L 20.492188 224.511719 "/>
<path style="fill:none;stroke-width:6;stroke-linecap:round;stroke-linejoin:round;stroke:rgb(100%,100%,100%);stroke-opacity:1;stroke-miterlimit:10;" d="M -3.671875 188.382813 L 8.28125 177.554688 L 11.429688 176.269531 L 15.085938 174.980469 L 20.84375 173.253906 L 23.988281 169.613281 L 25.6875 167.132813 "/>
<path style="fill:none;stroke-width:6;stroke-linecap:round;stroke-linejoin:round;stroke:rgb(100%,100%,100%);stroke-opacity:1;stroke-miterlimit:10;" d="M 264 103.496094 L 262.480469 104.605469 L 260.105469 105.578125 L 255.722656 106.863281 L 251.273438 110.945313 L 249.316406 111.449219 L 247.382813 111.039063 L 243.910156 109 L 239.296875 104.605469 L 234.167969 99.332031 L 231.535156 97.730469 L 228.625 96.476563 L 226.386719 94.402344 L 223.777344 90.039063 L 222.167969 83.132813 "/>
<path style="fill:none;stroke-width:6;stroke-linecap:round;stroke-linejoin:round;stroke:rgb(100%,100%,100%);stroke-opacity:1;stroke-miterlimit:10;" d="M -9 105.367188 L -7.867188 104.636719 L -6.046875 103.726563 L -2.550781 103.726563 L 19.515625 110.820313 "/>
<path style="fill:none;stroke-width:6;stroke-linecap:round;stroke-linejoin:round;stroke:rgb(100%,100%,100%);stroke-opacity:1;stroke-miterlimit:10;" d="M 139.285156 84.859375 L 140.496094 80.875 L 141.476563 79.304688 L 142.988281 77.609375 L 145.484375 76.070313 L 152.960938 73.183594 L 155.082031 71.457031 L 156.410156 69.351563 L 156.808594 67.625 L 156.808594 65.304688 L 156.226563 57.644531 L 154.5 47.285156 L 152.195313 39.59375 L 150.609375 36.738281 L 148.488281 34.226563 L 145.808594 28.859375 L 144.433594 23.867188 L 141.753906 13.289063 L 139.074219 4.84375 L 136.183594 -1.875 L 132.921875 -8.78125 L 132.835938 -9 "/>
<path style="fill:none;stroke-width:6;stroke-linecap:round;stroke-linejoin:round;stroke:rgb(100%,100%,100%);stroke-opacity:1;stroke-miterlimit:10;" d="M -6.585938 264 L -4.441406 228.78125 L -3.695313 210.984375 L -3.671875 188.382813 L -3.671875 183.109375 L -2.785156 174.101563 L -1.109375 167.667969 L 6.023438 149.617188 L 19.515625 110.820313 L 36.570313 61.160156 L 40.277344 49.984375 L 42.371094 41.949219 L 43.46875 35.167969 L 43.304688 31.117188 L 42 25.46875 L 38.738281 14.921875 L 38.410156 13.886719 L 38.109375 10.871094 L 38.574219 2.425781 L 40.25 -9 "/>
</g>
</svg>

