<?xml version="1.0" encoding="UTF-8"?>
<svg xmlns="http://www.w3.org/2000/svg" xmlns:xlink="http://www.w3.org/1999/xlink" width="256pt" height="256pt" viewBox="0 0 256 256" version="1.1">
<g id="surface2">
<rect x="0" y="0" width="256" height="256" style="fill:rgb(60%,70.196078%,80%);fill-opacity:1;stroke:none;"/>
<path style="fill:none;stroke-width:1;stroke-linecap:round;stroke-linejoin:round;stroke:rgb(70.196078%,77.647059%,83.137255%);stroke-opacity:1;stroke-miterlimit:10;" d="M -4 259 L 259 259 L 259 -4 L -4 -4 L -4 259 "/>
<path style="fill:none;stroke-width:6;stroke-linecap:round;stroke-linejoin:round;stroke:rgb(60%,70.196078%,80%);stroke-opacity:1;stroke-miterlimit:10;" d="M 146.746094 -7 L 146.238281 152.199219 "/>
<path style="fill:none;stroke-width:6;stroke-linecap:round;stroke-linejoin:round;stroke:rgb(60%,70.196078%,80%);stroke-opacity:1;stroke-miterlimit:10;" d="M 146.238281 152.199219 L 139.53125 262 "/>
<path style="fill:none;stroke-width:3;stroke-linecap:round;stroke-linejoin:round;stroke:rgb(100%,100%,100%);stroke-opacity:1;stroke-miterlimit:10;" d="M 141.726563 110.601563 L 141.726563 109.460938 L 145.617188 109.476563 L 145.632813 105.273438 L 141.742188 105.257813 L 141.757813 104.101563 L 151.242188 104.132813 L 151.226563 105.289063 L 146.710938 105.273438 L 146.695313 109.476563 L 151.210938 109.492188 L 151.210938 110.632813 Z M 148.425781 101.976563 L 144.128906 101.976563 L 144.128906 100.929688 L 148.394531 100.929688 C 149.0625 100.941406 149.566406 100.832031 149.910156 100.601563 C 150.253906 100.363281 150.425781 100.007813 150.425781 99.539063 C 150.425781 98.96875 150.230469 98.519531 149.832031 98.195313 C 149.425781 97.863281 148.875 97.691406 148.175781 97.679688 L 144.144531 97.679688 L 144.144531 96.617188 L 151.253906 96.632813 L 151.253906 97.695313 L 150.160156 97.695313 C 150.597656 97.945313 150.921875 98.242188 151.128906 98.585938 C 151.335938 98.921875 151.441406 99.3125 151.441406 99.757813 C 151.429688 100.488281 151.171875 101.046875 150.660156 101.429688 C 150.152344 101.804688 149.40625 101.988281 148.425781 101.976563 Z M 143.972656 99.335938 Z M 145.246094 90.242188 L 141.402344 90.226563 L 141.402344 89.179688 L 151.277344 89.210938 L 151.277344 90.257813 L 150.214844 90.257813 C 150.632813 90.476563 150.945313 90.757813 151.152344 91.101563 C 151.359375 91.4375 151.464844 91.835938 151.464844 92.304688 C 151.453125 93.085938 151.105469 93.722656 150.417969 94.210938 C 149.730469 94.691406 148.832031 94.925781 147.714844 94.914063 C 146.601563 94.914063 145.699219 94.675781 145.011719 94.195313 C 144.324219 93.707031 143.988281 93.070313 143.996094 92.289063 C 143.996094 91.820313 144.101563 91.421875 144.308594 91.085938 C 144.507813 90.742188 144.820313 90.460938 145.246094 90.242188 Z M 147.714844 93.820313 C 148.570313 93.832031 149.246094 93.679688 149.746094 93.367188 C 150.238281 93.046875 150.480469 92.609375 150.480469 92.054688 C 150.480469 91.492188 150.238281 91.054688 149.746094 90.742188 C 149.257813 90.421875 148.585938 90.253906 147.730469 90.242188 C 146.867188 90.242188 146.195313 90.40625 145.714844 90.726563 C 145.226563 91.039063 144.980469 91.476563 144.980469 92.039063 C 144.980469 92.59375 145.222656 93.03125 145.699219 93.351563 C 146.179688 93.664063 146.851563 93.820313 147.714844 93.820313 Z M 144.394531 82.945313 L 145.503906 82.945313 C 145.339844 83.25 145.214844 83.5625 145.128906 83.882813 C 145.046875 84.195313 145.003906 84.523438 145.003906 84.867188 C 145.003906 85.390625 145.09375 85.785156 145.269531 86.054688 C 145.4375 86.316406 145.699219 86.445313 146.050781 86.445313 C 146.324219 86.445313 146.535156 86.351563 146.691406 86.164063 C 146.839844 85.96875 146.988281 85.585938 147.144531 85.023438 L 147.238281 84.679688 C 147.417969 83.929688 147.667969 83.398438 147.988281 83.085938 C 148.3125 82.773438 148.761719 82.625 149.332031 82.632813 C 150 82.632813 150.527344 82.867188 150.910156 83.335938 C 151.292969 83.804688 151.488281 84.453125 151.488281 85.273438 C 151.476563 85.609375 151.433594 85.960938 151.363281 86.335938 C 151.289063 86.710938 151.175781 87.101563 151.019531 87.507813 L 149.816406 87.507813 C 150.046875 87.125 150.21875 86.742188 150.332031 86.367188 C 150.4375 85.992188 150.496094 85.617188 150.503906 85.242188 C 150.503906 84.753906 150.410156 84.378906 150.222656 84.117188 C 150.035156 83.847656 149.769531 83.710938 149.425781 83.710938 C 149.113281 83.710938 148.875 83.804688 148.707031 83.992188 C 148.53125 84.179688 148.363281 84.597656 148.207031 85.242188 L 148.113281 85.601563 C 147.949219 86.257813 147.707031 86.734375 147.394531 87.023438 C 147.082031 87.316406 146.652344 87.460938 146.097656 87.460938 C 145.433594 87.460938 144.917969 87.25 144.550781 86.820313 C 144.1875 86.382813 144.011719 85.773438 144.019531 84.992188 C 144.019531 84.609375 144.050781 84.242188 144.113281 83.898438 C 144.175781 83.554688 144.269531 83.238281 144.394531 82.945313 Z M 145.023438 78.460938 C 145.023438 79.023438 145.269531 79.472656 145.757813 79.804688 C 146.238281 80.128906 146.90625 80.289063 147.757813 80.289063 C 148.613281 80.300781 149.285156 80.144531 149.773438 79.820313 C 150.265625 79.488281 150.507813 79.039063 150.507813 78.476563 C 150.507813 77.914063 150.265625 77.472656 149.773438 77.148438 C 149.285156 76.816406 148.617188 76.644531 147.773438 76.632813 C 146.929688 76.632813 146.265625 76.800781 145.773438 77.132813 C 145.273438 77.457031 145.023438 77.898438 145.023438 78.460938 Z M 144.039063 78.460938 C 144.039063 77.546875 144.375 76.828125 145.039063 76.304688 C 145.695313 75.785156 146.609375 75.523438 147.773438 75.523438 C 148.941406 75.535156 149.859375 75.800781 150.523438 76.320313 C 151.179688 76.84375 151.507813 77.5625 151.507813 78.476563 C 151.496094 79.394531 151.164063 80.113281 150.507813 80.632813 C 149.84375 81.15625 148.925781 81.410156 147.757813 81.398438 C 146.59375 81.398438 145.679688 81.140625 145.023438 80.617188 C 144.359375 80.097656 144.03125 79.378906 144.039063 78.460938 Z M 147.046875 68.460938 L 151.34375 68.476563 L 151.34375 69.523438 L 147.09375 69.507813 C 146.417969 69.507813 145.914063 69.628906 145.578125 69.867188 C 145.246094 70.109375 145.078125 70.460938 145.078125 70.929688 C 145.078125 71.492188 145.277344 71.941406 145.671875 72.273438 C 146.070313 72.597656 146.617188 72.757813 147.3125 72.757813 L 151.328125 72.773438 L 151.328125 73.835938 L 144.21875 73.820313 L 144.21875 72.757813 L 145.328125 72.757813 C 144.914063 72.507813 144.601563 72.21875 144.390625 71.882813 C 144.171875 71.539063 144.0625 71.144531 144.0625 70.695313 C 144.0625 69.96875 144.320313 69.414063 144.828125 69.039063 C 145.328125 68.65625 146.070313 68.460938 147.046875 68.460938 Z M 146.941406 58.554688 C 147.035156 58.304688 147.234375 58.066406 147.535156 57.835938 C 147.839844 57.597656 148.253906 57.359375 148.785156 57.117188 L 151.394531 55.960938 L 151.378906 57.210938 L 148.941406 58.304688 C 148.308594 58.566406 147.890625 58.832031 147.691406 59.101563 C 147.484375 59.363281 147.378906 59.722656 147.378906 60.179688 L 147.363281 61.445313 L 151.363281 61.460938 L 151.363281 62.601563 L 141.878906 62.570313 L 141.894531 59.976563 C 141.894531 59 142.125 58.269531 142.582031 57.789063 C 143.03125 57.3125 143.714844 57.078125 144.628906 57.085938 C 145.222656 57.085938 145.71875 57.210938 146.113281 57.460938 C 146.511719 57.710938 146.785156 58.078125 146.941406 58.554688 Z M 142.941406 61.429688 L 146.300781 61.445313 L 146.316406 59.992188 C 146.316406 59.429688 146.175781 59.007813 145.894531 58.726563 C 145.605469 58.445313 145.183594 58.304688 144.628906 58.304688 C 144.078125 58.296875 143.660156 58.429688 143.378906 58.710938 C 143.097656 58.992188 142.957031 59.414063 142.957031 59.976563 Z M 144.28125 54.507813 L 144.28125 53.460938 L 151.390625 53.476563 L 151.390625 54.523438 Z M 141.515625 54.492188 L 141.515625 53.445313 L 143 53.445313 L 143 54.492188 Z M 144.289063 52.023438 L 144.289063 50.914063 L 150.273438 48.929688 L 144.304688 46.914063 L 144.304688 45.789063 L 151.414063 48.210938 L 151.414063 49.632813 Z M 147.59375 38.867188 L 148.15625 38.867188 L 148.140625 43.710938 C 148.953125 43.671875 149.574219 43.457031 150 43.070313 C 150.417969 42.675781 150.625 42.128906 150.625 41.429688 C 150.625 41.023438 150.574219 40.632813 150.46875 40.257813 C 150.355469 39.882813 150.1875 39.507813 149.96875 39.132813 L 151.078125 39.132813 C 151.257813 39.507813 151.390625 39.894531 151.484375 40.289063 C 151.578125 40.6875 151.625 41.085938 151.625 41.492188 C 151.613281 42.515625 151.28125 43.328125 150.625 43.929688 C 149.960938 44.523438 149.0625 44.816406 147.9375 44.804688 C 146.773438 44.804688 145.851563 44.523438 145.171875 43.960938 C 144.484375 43.390625 144.148438 42.625 144.15625 41.664063 C 144.15625 40.800781 144.464844 40.117188 145.078125 39.617188 C 145.695313 39.117188 146.53125 38.867188 147.59375 38.867188 Z M 147.25 39.929688 C 146.617188 39.929688 146.105469 40.085938 145.71875 40.398438 C 145.335938 40.710938 145.140625 41.128906 145.140625 41.648438 C 145.140625 42.242188 145.324219 42.71875 145.6875 43.070313 C 146.054688 43.414063 146.570313 43.613281 147.234375 43.664063 Z M 145.445313 33.429688 C 145.375 33.546875 145.320313 33.675781 145.289063 33.820313 C 145.25 33.957031 145.226563 34.109375 145.226563 34.273438 C 145.226563 34.867188 145.441406 35.328125 145.867188 35.648438 C 146.285156 35.960938 146.894531 36.117188 147.695313 36.117188 L 151.445313 36.132813 L 151.445313 37.195313 L 144.335938 37.179688 L 144.335938 36.117188 L 145.445313 36.117188 C 145.019531 35.898438 144.703125 35.613281 144.492188 35.257813 C 144.285156 34.90625 144.179688 34.476563 144.179688 33.976563 C 144.179688 33.90625 144.1875 33.828125 144.195313 33.742188 C 144.207031 33.648438 144.222656 33.546875 144.242188 33.429688 Z M 145.445313 33.429688 "/>
<path style=" stroke:none;fill-rule:evenodd;fill:rgb(41.960784%,58.039216%,69.019608%);fill-opacity:1;" d="M 141.726563 110.601563 L 141.726563 109.460938 L 145.617188 109.476563 L 145.632813 105.273438 L 141.742188 105.257813 L 141.757813 104.101563 L 151.242188 104.132813 L 151.226563 105.289063 L 146.710938 105.273438 L 146.695313 109.476563 L 151.210938 109.492188 L 151.210938 110.632813 Z M 148.425781 101.976563 L 144.128906 101.976563 L 144.128906 100.929688 L 148.394531 100.929688 C 149.0625 100.941406 149.566406 100.832031 149.910156 100.601563 C 150.253906 100.363281 150.425781 100.007813 150.425781 99.539063 C 150.425781 98.96875 150.230469 98.519531 149.832031 98.195313 C 149.425781 97.863281 148.875 97.691406 148.175781 97.679688 L 144.144531 97.679688 L 144.144531 96.617188 L 151.253906 96.632813 L 151.253906 97.695313 L 150.160156 97.695313 C 150.597656 97.945313 150.921875 98.242188 151.128906 98.585938 C 151.335938 98.921875 151.441406 99.3125 151.441406 99.757813 C 151.429688 100.488281 151.171875 101.046875 150.660156 101.429688 C 150.152344 101.804688 149.40625 101.988281 148.425781 101.976563 Z M 143.972656 99.335938 Z M 145.246094 90.242188 L 141.402344 90.226563 L 141.402344 89.179688 L 151.277344 89.210938 L 151.277344 90.257813 L 150.214844 90.257813 C 150.632813 90.476563 150.945313 90.757813 151.152344 91.101563 C 151.359375 91.4375 151.464844 91.835938 151.464844 92.304688 C 151.453125 93.085938 151.105469 93.722656 150.417969 94.210938 C 149.730469 94.691406 148.832031 94.925781 147.714844 94.914063 C 146.601563 94.914063 145.699219 94.675781 145.011719 94.195313 C 144.324219 93.707031 143.988281 93.070313 143.996094 92.289063 C 143.996094 91.820313 144.101563 91.421875 144.308594 91.085938 C 144.507813 90.742188 144.820313 90.460938 145.246094 90.242188 Z M 147.714844 93.820313 C 148.570313 93.832031 149.246094 93.679688 149.746094 93.367188 C 150.238281 93.046875 150.480469 92.609375 150.480469 92.054688 C 150.480469 91.492188 150.238281 91.054688 149.746094 90.742188 C 149.257813 90.421875 148.585938 90.253906 147.730469 90.242188 C 146.867188 90.242188 146.195313 90.40625 145.714844 90.726563 C 145.226563 91.039063 144.980469 91.476563 144.980469 92.039063 C 144.980469 92.59375 145.222656 93.03125 145.699219 93.351563 C 146.179688 93.664063 146.851563 93.820313 147.714844 93.820313 Z M 144.394531 82.945313 L 145.503906 82.945313 C 145.339844 83.25 145.214844 83.5625 145.128906 83.882813 C 145.046875 84.195313 145.003906 84.523438 145.003906 84.867188 C 145.003906 85.390625 145.09375 85.785156 145.269531 86.054688 C 145.4375 86.316406 145.699219 86.445313 146.050781 86.445313 C 146.324219 86.445313 146.535156 86.351563 146.691406 86.164063 C 146.839844 85.96875 146.988281 85.585938 147.144531 85.023438 L 147.238281 84.679688 C 147.417969 83.929688 147.667969 83.398438 147.988281 83.085938 C 148.3125 82.773438 148.761719 82.625 149.332031 82.632813 C 150 82.632813 150.527344 82.867188 150.910156 83.335938 C 151.292969 83.804688 151.488281 84.453125 151.488281 85.273438 C 151.476563 85.609375 151.433594 85.960938 151.363281 86.335938 C 151.289063 86.710938 151.175781 87.101563 151.019531 87.507813 L 149.816406 87.507813 C 150.046875 87.125 150.21875 86.742188 150.332031 86.367188 C 150.4375 85.992188 150.496094 85.617188 150.503906 85.242188 C 150.503906 84.753906 150.410156 84.378906 150.222656 84.117188 C 150.035156 83.847656 149.769531 83.710938 149.425781 83.710938 C 149.113281 83.710938 148.875 83.804688 148.707031 83.992188 C 148.53125 84.179688 148.363281 84.597656 148.207031 85.242188 L 148.113281 85.601563 C 147.949219 86.257813 147.707031 86.734375 147.394531 87.023438 C 147.082031 87.316406 146.652344 87.460938 146.097656 87.460938 C 145.433594 87.460938 144.917969 87.25 144.550781 86.820313 C 144.1875 86.382813 144.011719 85.773438 144.019531 84.992188 C 144.019531 84.609375 144.050781 84.242188 144.113281 83.898438 C 144.175781 83.554688 144.269531 83.238281 144.394531 82.945313 Z M 145.023438 78.460938 C 145.023438 79.023438 145.269531 79.472656 145.757813 79.804688 C 146.238281 80.128906 146.90625 80.289063 147.757813 80.289063 C 148.613281 80.300781 149.285156 80.144531 149.773438 79.820313 C 150.265625 79.488281 150.507813 79.039063 150.507813 78.476563 C 150.507813 77.914063 150.265625 77.472656 149.773438 77.148438 C 149.285156 76.816406 148.617188 76.644531 147.773438 76.632813 C 146.929688 76.632813 146.265625 76.800781 145.773438 77.132813 C 145.273438 77.457031 145.023438 77.898438 145.023438 78.460938 Z M 144.039063 78.460938 C 144.039063 77.546875 144.375 76.828125 145.039063 76.304688 C 145.695313 75.785156 146.609375 75.523438 147.773438 75.523438 C 148.941406 75.535156 149.859375 75.800781 150.523438 76.320313 C 151.179688 76.84375 151.507813 77.5625 151.507813 78.476563 C 151.496094 79.394531 151.164063 80.113281 150.507813 80.632813 C 149.84375 81.15625 148.925781 81.410156 147.757813 81.398438 C 146.59375 81.398438 145.679688 81.140625 145.023438 80.617188 C 144.359375 80.097656 144.03125 79.378906 144.039063 78.460938 Z M 147.046875 68.460938 L 151.34375 68.476563 L 151.34375 69.523438 L 147.09375 69.507813 C 146.417969 69.507813 145.914063 69.628906 145.578125 69.867188 C 145.246094 70.109375 145.078125 70.460938 145.078125 70.929688 C 145.078125 71.492188 145.277344 71.941406 145.671875 72.273438 C 146.070313 72.597656 146.617188 72.757813 147.3125 72.757813 L 151.328125 72.773438 L 151.328125 73.835938 L 144.21875 73.820313 L 144.21875 72.757813 L 145.328125 72.757813 C 144.914063 72.507813 144.601563 72.21875 144.390625 71.882813 C 144.171875 71.539063 144.0625 71.144531 144.0625 70.695313 C 144.0625 69.96875 144.320313 69.414063 144.828125 69.039063 C 145.328125 68.65625 146.070313 68.460938 147.046875 68.460938 Z M 146.941406 58.554688 C 147.035156 58.304688 147.234375 58.066406 147.535156 57.835938 C 147.839844 57.597656 148.253906 57.359375 148.785156 57.117188 L 151.394531 55.960938 L 151.378906 57.210938 L 148.941406 58.304688 C 148.308594 58.566406 147.890625 58.832031 147.691406 59.101563 C 147.484375 59.363281 147.378906 59.722656 147.378906 60.179688 L 147.363281 61.445313 L 151.363281 61.460938 L 151.363281 62.601563 L 141.878906 62.570313 L 141.894531 59.976563 C 141.894531 59 142.125 58.269531 142.582031 57.789063 C 143.03125 57.3125 143.714844 57.078125 144.628906 57.085938 C 145.222656 57.085938 145.71875 57.210938 146.113281 57.460938 C 146.511719 57.710938 146.785156 58.078125 146.941406 58.554688 Z M 142.941406 61.429688 L 146.300781 61.445313 L 146.316406 59.992188 C 146.316406 59.429688 146.175781 59.007813 145.894531 58.726563 C 145.605469 58.445313 145.183594 58.304688 144.628906 58.304688 C 144.078125 58.296875 143.660156 58.429688 143.378906 58.710938 C 143.097656 58.992188 142.957031 59.414063 142.957031 59.976563 Z M 144.28125 54.507813 L 144.28125 53.460938 L 151.390625 53.476563 L 151.390625 54.523438 Z M 141.515625 54.492188 L 141.515625 53.445313 L 143 53.445313 L 143 54.492188 Z M 144.289063 52.023438 L 144.289063 50.914063 L 150.273438 48.929688 L 144.304688 46.914063 L 144.304688 45.789063 L 151.414063 48.210938 L 151.414063 49.632813 Z M 147.59375 38.867188 L 148.15625 38.867188 L 148.140625 43.710938 C 148.953125 43.671875 149.574219 43.457031 150 43.070313 C 150.417969 42.675781 150.625 42.128906 150.625 41.429688 C 150.625 41.023438 150.574219 40.632813 150.46875 40.257813 C 150.355469 39.882813 150.1875 39.507813 149.96875 39.132813 L 151.078125 39.132813 C 151.257813 39.507813 151.390625 39.894531 151.484375 40.289063 C 151.578125 40.6875 151.625 41.085938 151.625 41.492188 C 151.613281 42.515625 151.28125 43.328125 150.625 43.929688 C 149.960938 44.523438 149.0625 44.816406 147.9375 44.804688 C 146.773438 44.804688 145.851563 44.523438 145.171875 43.960938 C 144.484375 43.390625 144.148438 42.625 144.15625 41.664063 C 144.15625 40.800781 144.464844 40.117188 145.078125 39.617188 C 145.695313 39.117188 146.53125 38.867188 147.59375 38.867188 Z M 147.25 39.929688 C 146.617188 39.929688 146.105469 40.085938 145.71875 40.398438 C 145.335938 40.710938 145.140625 41.128906 145.140625 41.648438 C 145.140625 42.242188 145.324219 42.71875 145.6875 43.070313 C 146.054688 43.414063 146.570313 43.613281 147.234375 43.664063 Z M 145.445313 33.429688 C 145.375 33.546875 145.320313 33.675781 145.289063 33.820313 C 145.25 33.957031 145.226563 34.109375 145.226563 34.273438 C 145.226563 34.867188 145.441406 35.328125 145.867188 35.648438 C 146.285156 35.960938 146.894531 36.117188 147.695313 36.117188 L 151.445313 36.132813 L 151.445313 37.195313 L 144.335938 37.179688 L 144.335938 36.117188 L 145.445313 36.117188 C 145.019531 35.898438 144.703125 35.613281 144.492188 35.257813 C 144.285156 34.90625 144.179688 34.476563 144.179688 33.976563 C 144.179688 33.90625 144.1875 33.828125 144.195313 33.742188 C 144.207031 33.648438 144.222656 33.546875 144.242188 33.429688 Z M 145.445313 33.429688 "/>
</g>
</svg>

