<?xml version="1.0" encoding="UTF-8"?>
<svg xmlns="http://www.w3.org/2000/svg" xmlns:xlink="http://www.w3.org/1999/xlink" width="256pt" height="256pt" viewBox="0 0 256 256" version="1.1">
<g id="surface2">
<rect x="0" y="0" width="256" height="256" style="fill:rgb(94.901961%,93.72549%,91.372549%);fill-opacity:1;stroke:none;"/>
<path style="fill:none;stroke-width:8;stroke-linecap:round;stroke-linejoin:round;stroke:rgb(75.686275%,70.980392%,61.568627%);stroke-opacity:1;stroke-miterlimit:10;" d="M 53.179688 -9 L 53.347656 -7.675781 L 56.84375 11.25 L 57.84375 13.332031 L 58.730469 14.3125 L 59.828125 15.167969 L 61.785156 15.609375 L 64.230469 15.859375 L 67.65625 15.515625 L 69.496094 14.945313 L 73.132813 13.175781 L 75.089844 11.976563 L 77.117188 10.332031 L 79.867188 7.710938 L 84.058594 3.035156 L 91.890625 -7.296875 L 92.984375 -9 "/>
<path style="fill:none;stroke-width:6;stroke-linecap:round;stroke-linejoin:round;stroke:rgb(100%,100%,100%);stroke-opacity:1;stroke-miterlimit:10;" d="M 53.179688 -9 L 53.347656 -7.675781 L 56.84375 11.25 L 57.84375 13.332031 L 58.730469 14.3125 L 59.828125 15.167969 L 61.785156 15.609375 L 64.230469 15.859375 L 67.65625 15.515625 L 69.496094 14.945313 L 73.132813 13.175781 L 75.089844 11.976563 L 77.117188 10.332031 L 79.867188 7.710938 L 84.058594 3.035156 L 91.890625 -7.296875 L 92.984375 -9 "/>
</g>
</svg>

