<?xml version="1.0" encoding="UTF-8"?>
<svg xmlns="http://www.w3.org/2000/svg" xmlns:xlink="http://www.w3.org/1999/xlink" width="256pt" height="256pt" viewBox="0 0 256 256" version="1.1">
<g id="surface2">
<rect x="0" y="0" width="256" height="256" style="fill:rgb(94.901961%,93.72549%,91.372549%);fill-opacity:1;stroke:none;"/>
<path style="fill:none;stroke-width:8;stroke-linecap:round;stroke-linejoin:round;stroke:rgb(75.686275%,70.980392%,61.568627%);stroke-opacity:1;stroke-miterlimit:10;" d="M -9 241.460938 L -5.480469 232.125 L -3.640625 228.050781 L 1.695313 219.183594 L 2.488281 216.851563 L 2.605469 212.0625 L 1.441406 204.328125 L 1.53125 198.472656 L 2.207031 193.035156 L 2.300781 178.894531 L 1.578125 169.378906 L -4.105469 142.554688 L -7.296875 124.171875 L -7.554688 120.386719 L -6.902344 109.414063 L -3.894531 86.472656 L -3.128906 82.167969 L -2.988281 77.667969 L -3.804688 67.472656 L -3.851563 61.488281 L -2.589844 52.425781 L -2.613281 47.734375 "/>
<path style="fill:none;stroke-width:8;stroke-linecap:round;stroke-linejoin:round;stroke:rgb(75.686275%,70.980392%,61.568627%);stroke-opacity:1;stroke-miterlimit:10;" d="M -9 47.253906 L -2.613281 47.734375 L 4.144531 47.28125 L 8.941406 46.179688 L 14.746094 44.042969 L 19.5 41.648438 L 24.601563 37.894531 L 27.351563 35.46875 L 32.851563 28.703125 L 35.996094 22.78125 L 39.703125 14.109375 L 43.40625 6.859375 L 46.621094 1.875 L 51.421875 -4.402344 L 56.453125 -9 "/>
<path style="fill:none;stroke-width:6;stroke-linecap:round;stroke-linejoin:round;stroke:rgb(100%,100%,100%);stroke-opacity:1;stroke-miterlimit:10;" d="M -9 241.460938 L -5.480469 232.125 L -3.640625 228.050781 L 1.695313 219.183594 L 2.488281 216.851563 L 2.605469 212.0625 L 1.441406 204.328125 L 1.53125 198.472656 L 2.207031 193.035156 L 2.300781 178.894531 L 1.578125 169.378906 L -4.105469 142.554688 L -7.296875 124.171875 L -7.554688 120.386719 L -6.902344 109.414063 L -3.894531 86.472656 L -3.128906 82.167969 L -2.988281 77.667969 L -3.804688 67.472656 L -3.851563 61.488281 L -2.589844 52.425781 L -2.613281 47.734375 "/>
<path style="fill:none;stroke-width:6;stroke-linecap:round;stroke-linejoin:round;stroke:rgb(100%,99.215686%,54.509804%);stroke-opacity:1;stroke-miterlimit:10;" d="M -9 47.253906 L -2.613281 47.734375 L 4.144531 47.28125 L 8.941406 46.179688 L 14.746094 44.042969 L 19.5 41.648438 L 24.601563 37.894531 L 27.351563 35.46875 L 32.851563 28.703125 L 35.996094 22.78125 L 39.703125 14.109375 L 43.40625 6.859375 L 46.621094 1.875 L 51.421875 -4.402344 L 56.453125 -9 "/>
</g>
</svg>

