<?xml version="1.0" encoding="UTF-8"?>
<svg xmlns="http://www.w3.org/2000/svg" xmlns:xlink="http://www.w3.org/1999/xlink" width="256pt" height="256pt" viewBox="0 0 256 256" version="1.1">
<g id="surface2">
<rect x="0" y="0" width="256" height="256" style="fill:rgb(94.901961%,93.72549%,91.372549%);fill-opacity:1;stroke:none;"/>
<path style=" stroke:none;fill-rule:evenodd;fill:rgb(60%,70.196078%,80%);fill-opacity:1;" d="M 127.984375 -4 L 126.890625 0.0625 L 128.339844 11.558594 L 127.25 17.621094 L 128.671875 28.460938 L 126.113281 38.402344 L 126.933594 62.492188 L 124.578125 84.023438 L 122.117188 93.300781 L 120.890625 100.664063 L 118.046875 105.707031 L 117.890625 114.664063 L 115.730469 131.914063 L 116.890625 143.261719 L 114.289063 164.664063 L 109.167969 183.070313 L 105.089844 189.0625 L 101.488281 199.660156 L 101.535156 208.382813 L 104.347656 212.667969 L 104.882813 225.65625 L 100.460938 229.941406 L 97.652344 238.777344 L 92.832031 250.699219 L 91.898438 259 L 259 259 L 259 -4 Z M 127.984375 -4 "/>
<path style="fill:none;stroke-width:1;stroke-linecap:round;stroke-linejoin:round;stroke:rgb(70.196078%,77.647059%,83.137255%);stroke-opacity:1;stroke-miterlimit:10;" d="M 127.984375 -4 L 126.890625 0.0625 L 128.339844 11.558594 L 127.25 17.621094 L 128.671875 28.460938 L 126.113281 38.402344 L 126.933594 62.492188 L 124.578125 84.023438 L 122.117188 93.300781 L 120.890625 100.664063 L 118.046875 105.707031 L 117.890625 114.664063 L 115.730469 131.914063 L 116.890625 143.261719 L 114.289063 164.664063 L 109.167969 183.070313 L 105.089844 189.0625 L 101.488281 199.660156 L 101.535156 208.382813 L 104.347656 212.667969 L 104.882813 225.65625 L 100.460938 229.941406 L 97.652344 238.777344 L 92.832031 250.699219 L 91.898438 259 L 259 259 L 259 -4 L 127.984375 -4 "/>
<path style="fill:none;stroke-width:6;stroke-linecap:round;stroke-linejoin:round;stroke:rgb(60%,70.196078%,80%);stroke-opacity:1;stroke-miterlimit:10;" d="M 253.1875 -7 L 227.867188 262 "/>
<path style="fill:none;stroke-width:8;stroke-linecap:round;stroke-linejoin:round;stroke:rgb(75.686275%,70.980392%,61.568627%);stroke-opacity:1;stroke-miterlimit:10;" d="M 22.824219 142.417969 L 41.90625 145.417969 L 52.464844 146.730469 L 57.078125 147.542969 L 59.617188 148.699219 L 62.296875 150.886719 L 66.140625 155.203125 L 68.9375 160.078125 L 69.402344 163.390625 "/>
<path style="fill:none;stroke-width:8;stroke-linecap:round;stroke-linejoin:round;stroke:rgb(75.686275%,70.980392%,61.568627%);stroke-opacity:1;stroke-miterlimit:10;" d="M 17.652344 198.304688 L -9 195.753906 "/>
<path style="fill:none;stroke-width:8;stroke-linecap:round;stroke-linejoin:round;stroke:rgb(75.686275%,70.980392%,61.568627%);stroke-opacity:1;stroke-miterlimit:10;" d="M 20.539063 38.078125 L 25.480469 38.546875 L 31.074219 46.550781 L 35.917969 66.054688 L 44.121094 70.054688 L 56.796875 72.054688 L 60.898438 67.054688 L 62.015625 63.054688 L 60.898438 48.550781 L 61.269531 36.046875 "/>
<path style="fill:none;stroke-width:8;stroke-linecap:round;stroke-linejoin:round;stroke:rgb(75.686275%,70.980392%,61.568627%);stroke-opacity:1;stroke-miterlimit:10;" d="M 19.679688 23.230469 L 21.75 22.042969 L 23.988281 10.539063 L 26.226563 3.035156 L 35.171875 2.035156 L 45.613281 1.035156 L 53.992188 -9 "/>
<path style="fill:none;stroke-width:8;stroke-linecap:round;stroke-linejoin:round;stroke:rgb(75.686275%,70.980392%,61.568627%);stroke-opacity:1;stroke-miterlimit:10;" d="M 24.035156 125.132813 L 27.367188 125.132813 L 31.050781 126.132813 L 33.753906 125.945313 L 35.125 125.070313 L 36.546875 122.914063 L 39.066406 117.691406 L 41.277344 114.597656 L 43.46875 113.066406 L 48.035156 111.503906 L 52.113281 110.972656 L 54.605469 111.285156 "/>
<path style="fill:none;stroke-width:8;stroke-linecap:round;stroke-linejoin:round;stroke:rgb(75.686275%,70.980392%,61.568627%);stroke-opacity:1;stroke-miterlimit:10;" d="M 24.035156 122.507813 L 5.136719 121.164063 L -2.925781 118.097656 L -9 114.742188 "/>
<path style="fill:none;stroke-width:8;stroke-linecap:round;stroke-linejoin:round;stroke:rgb(75.686275%,70.980392%,61.568627%);stroke-opacity:1;stroke-miterlimit:10;" d="M 9.238281 154.515625 L -8.074219 149.574219 L -9 149.574219 "/>
<path style="fill:none;stroke-width:8;stroke-linecap:round;stroke-linejoin:round;stroke:rgb(75.686275%,70.980392%,61.568627%);stroke-opacity:1;stroke-miterlimit:10;" d="M -9 164.160156 L 1.011719 158.265625 L 7.1875 155.265625 L 9.238281 154.515625 L 15.132813 152.984375 L 21.9375 152.890625 "/>
<path style="fill:none;stroke-width:10;stroke-linecap:round;stroke-linejoin:round;stroke:rgb(75.686275%,70.980392%,61.568627%);stroke-opacity:1;stroke-miterlimit:10;" d="M 17.511719 -11 L 17.582031 -8.121094 L 17.859375 -4.152344 L 19.585938 21.449219 L 19.679688 23.230469 L 20.445313 36.140625 L 20.539063 38.078125 L 24.105469 108.660156 L 24.035156 122.507813 L 24.035156 125.132813 L 22.824219 142.417969 L 21.9375 152.890625 L 17.652344 198.304688 L 13.6875 240.125 L 11.730469 254.753906 L 9.816406 266 "/>
<path style="fill:none;stroke-width:6;stroke-linecap:round;stroke-linejoin:round;stroke:rgb(100%,100%,100%);stroke-opacity:1;stroke-miterlimit:10;" d="M 22.824219 142.417969 L 41.90625 145.417969 L 52.464844 146.730469 L 57.078125 147.542969 L 59.617188 148.699219 L 62.296875 150.886719 L 66.140625 155.203125 L 68.9375 160.078125 L 69.402344 163.390625 "/>
<path style="fill:none;stroke-width:6;stroke-linecap:round;stroke-linejoin:round;stroke:rgb(100%,100%,100%);stroke-opacity:1;stroke-miterlimit:10;" d="M 17.652344 198.304688 L -9 195.753906 "/>
<path style="fill:none;stroke-width:6;stroke-linecap:round;stroke-linejoin:round;stroke:rgb(100%,100%,100%);stroke-opacity:1;stroke-miterlimit:10;" d="M 20.539063 38.078125 L 25.480469 38.546875 L 31.074219 46.550781 L 35.917969 66.054688 L 44.121094 70.054688 L 56.796875 72.054688 L 60.898438 67.054688 L 62.015625 63.054688 L 60.898438 48.550781 L 61.269531 36.046875 "/>
<path style="fill:none;stroke-width:6;stroke-linecap:round;stroke-linejoin:round;stroke:rgb(100%,100%,100%);stroke-opacity:1;stroke-miterlimit:10;" d="M 19.679688 23.230469 L 21.75 22.042969 L 23.988281 10.539063 L 26.226563 3.035156 L 35.171875 2.035156 L 45.613281 1.035156 L 53.992188 -9 "/>
<path style="fill:none;stroke-width:6;stroke-linecap:round;stroke-linejoin:round;stroke:rgb(100%,100%,100%);stroke-opacity:1;stroke-miterlimit:10;" d="M 24.035156 125.132813 L 27.367188 125.132813 L 31.050781 126.132813 L 33.753906 125.945313 L 35.125 125.070313 L 36.546875 122.914063 L 39.066406 117.691406 L 41.277344 114.597656 L 43.46875 113.066406 L 48.035156 111.503906 L 52.113281 110.972656 L 54.605469 111.285156 "/>
<path style="fill:none;stroke-width:6;stroke-linecap:round;stroke-linejoin:round;stroke:rgb(100%,100%,100%);stroke-opacity:1;stroke-miterlimit:10;" d="M 24.035156 122.507813 L 5.136719 121.164063 L -2.925781 118.097656 L -9 114.742188 "/>
<path style="fill:none;stroke-width:6;stroke-linecap:round;stroke-linejoin:round;stroke:rgb(100%,100%,100%);stroke-opacity:1;stroke-miterlimit:10;" d="M 9.238281 154.515625 L -8.074219 149.574219 L -9 149.574219 "/>
<path style="fill:none;stroke-width:6;stroke-linecap:round;stroke-linejoin:round;stroke:rgb(100%,100%,100%);stroke-opacity:1;stroke-miterlimit:10;" d="M -9 164.160156 L 1.011719 158.265625 L 7.1875 155.265625 L 9.238281 154.515625 L 15.132813 152.984375 L 21.9375 152.890625 "/>
<path style="fill:none;stroke-width:8;stroke-linecap:round;stroke-linejoin:round;stroke:rgb(100%,99.215686%,54.509804%);stroke-opacity:1;stroke-miterlimit:10;" d="M 17.511719 -11 L 17.582031 -8.121094 L 17.859375 -4.152344 L 19.585938 21.449219 L 19.679688 23.230469 L 20.445313 36.140625 L 20.539063 38.078125 L 24.105469 108.660156 L 24.035156 122.507813 L 24.035156 125.132813 L 22.824219 142.417969 L 21.9375 152.890625 L 17.652344 198.304688 L 13.6875 240.125 L 11.730469 254.753906 L 9.816406 266 "/>
</g>
</svg>

