<?xml version="1.0" encoding="UTF-8"?>
<svg xmlns="http://www.w3.org/2000/svg" xmlns:xlink="http://www.w3.org/1999/xlink" width="256pt" height="256pt" viewBox="0 0 256 256" version="1.1">
<g id="surface2">
<rect x="0" y="0" width="256" height="256" style="fill:rgb(60%,70.196078%,80%);fill-opacity:1;stroke:none;"/>
<path style=" stroke:none;fill-rule:evenodd;fill:rgb(94.901961%,93.72549%,91.372549%);fill-opacity:1;" d="M -4 259 L 103.675781 259 L 104.765625 247.011719 L 100.140625 247.71875 L 98.039063 247.964844 L 96.109375 248.214844 L 94.601563 248.507813 L 93.453125 248.464844 L 91.667969 247.851563 L 89.421875 247.316406 L 85.835938 246.847656 L 80.683594 246.621094 L 78.824219 246.21875 L 77.726563 246.058594 L 76.808594 245.519531 L 76.46875 244.796875 L 77.664063 226.527344 L 78.089844 223.261719 L 79.246094 204.847656 L 65.839844 203.988281 L 65.867188 201.972656 L 51.894531 201.105469 L 51.972656 199.867188 L 80.375 201.425781 L 80.863281 200.839844 L 81.660156 200.570313 L 82.421875 200.683594 L 83.234375 201.074219 L 84.386719 201.324219 L 87.972656 201.386719 L 93.789063 201.589844 L 111.101563 202.441406 L 117.316406 202.691406 L 120.003906 202.65625 L 121.484375 202.789063 L 122.589844 201.980469 L 123.945313 201.542969 L 125.496094 201.136719 L 127.449219 186.867188 L 123.179688 186.269531 L 123.371094 184.820313 L 124.425781 177.894531 L 126.515625 164.476563 L 130.277344 165.011719 L 134.914063 133.832031 L 122.132813 131.792969 L 123.410156 122.542969 L 65.097656 114.484375 L 64.460938 114.441406 L 63.835938 114.234375 L 63.4375 113.824219 L 63.316406 113.109375 L 64.898438 102.585938 L 65.113281 102.0625 L 65.410156 101.726563 L 65.746094 101.539063 L 66.257813 101.566406 L 124.351563 109.460938 L 125.46875 108.03125 L 126.566406 100.367188 L 139.199219 101.941406 L 142.925781 75.222656 L 259 75.222656 L 259 259 Z M -4 259 "/>
<path style=" stroke:none;fill-rule:evenodd;fill:rgb(94.901961%,93.72549%,91.372549%);fill-opacity:1;" d="M 143.292969 72.589844 L 141.941406 72 L 138.707031 71.566406 L 137.726563 70.917969 L 123.617188 68.816406 L 125.015625 58.941406 L 72.691406 51.5 L 72.378906 51.3125 L 72.152344 51.042969 L 71.984375 50.699219 L 71.984375 50.304688 L 73.476563 39.6875 L 73.691406 39.195313 L 74.09375 38.828125 L 74.601563 38.703125 L 75.085938 38.617188 L 114.226563 44.257813 L 126.683594 46.148438 L 129.296875 27.804688 L 76.679688 20.214844 L 76.0625 19.871094 L 75.761719 19.425781 L 75.636719 18.867188 L 77.363281 8.101563 L 77.710938 7.597656 L 78.144531 7.410156 L 78.65625 7.296875 L 131.199219 14.445313 L 133.625 -3.535156 L 130.382813 -4 L 259 -4 L 259 96.15625 L 140.007813 96.15625 Z M 143.292969 72.589844 "/>
<path style=" stroke:none;fill-rule:evenodd;fill:rgb(94.901961%,93.72549%,91.372549%);fill-opacity:1;" d="M 259 -4 L -4 -4 L -4 259 L -4 -4 Z M 259 -4 "/>
<path style=" stroke:none;fill-rule:evenodd;fill:rgb(94.901961%,93.72549%,91.372549%);fill-opacity:1;" d="M 215 111.183594 L 209.566406 121.070313 L 221.359375 127.546875 L 216.96875 135.550781 L 241.902344 149.25 L 260 116.304688 L 260 80.390625 L 249.160156 74.433594 L 229.71875 109.816406 L 213.015625 100.546875 L 208.921875 107.84375 Z M 215 111.183594 "/>
<path style="fill:none;stroke-width:1;stroke-linecap:round;stroke-linejoin:round;stroke:rgb(89.019608%,87.058824%,83.137255%);stroke-opacity:1;stroke-miterlimit:10;" d="M 215 111.183594 L 209.566406 121.070313 L 221.359375 127.546875 L 216.96875 135.550781 L 241.902344 149.25 L 260 116.304688 L 260 80.390625 L 249.160156 74.433594 L 229.71875 109.816406 L 213.015625 100.546875 L 208.921875 107.84375 L 215 111.183594 "/>
<path style=" stroke:none;fill-rule:evenodd;fill:rgb(70.980392%,82.352941%,61.176471%);fill-opacity:1;" d="M 155.761719 240.03125 L 156.449219 238.714844 L 156.964844 228.957031 L 156.996094 227.898438 L 157.933594 214.664063 L 159.125 209.359375 L 160.351563 206.039063 L 161.347656 200.21875 L 162.136719 195.5625 L 163.71875 186.28125 L 165.109375 178.128906 L 165.316406 176.859375 L 165.503906 175.726563 L 166.679688 168.527344 L 167.726563 157.082031 L 168.976563 150.316406 L 170.523438 146.0625 L 175.414063 137.328125 L 177.695313 133.195313 L 179.398438 130.109375 L 180.320313 128.433594 L 182.003906 125.378906 L 183.75 122.21875 L 185.007813 122.914063 L 187.03125 117.519531 L 187.253906 111.308594 L 188.878906 108.597656 L 187.414063 107.914063 L 186.882813 105.125 L 188.820313 101.609375 L 185.589844 99.65625 L 185.007813 91.332031 L 185.367188 88.097656 L 184.8125 85.894531 L 184.855469 84.433594 L 185.183594 81.808594 L 185.695313 79.15625 L 186.542969 76.457031 L 188.425781 72.375 L 192.136719 65.4375 L 196.113281 58.558594 L 196.332031 57.558594 L 197.898438 53.144531 L 198.9375 50.859375 L 200.105469 48.5625 L 229.035156 -4 L 260 -4 L 225.027344 -4 L 222.28125 1.121094 L 197.886719 47.382813 L 196.050781 50.789063 L 193.722656 57.21875 L 190.257813 63.757813 L 186.707031 70.230469 L 184.074219 75.222656 L 183.128906 77.460938 L 182.222656 79.828125 L 181.246094 82.546875 L 182.457031 83.125 L 181.367188 85.078125 L 182.332031 86.335938 L 180.765625 88.988281 L 181.835938 89.589844 L 183.433594 100.347656 L 181.292969 104.285156 L 183.714844 105.621094 L 183.652344 113.035156 L 183.257813 115.777344 L 182.265625 113.210938 L 178.175781 107.105469 L 177.425781 108.449219 L 180.878906 115.675781 L 178.71875 119.382813 L 180.109375 120.113281 L 175.328125 129.277344 L 174.363281 130.648438 L 173.203125 129.78125 L 171.285156 133.265625 L 172.53125 133.976563 L 172.019531 134.921875 L 164.765625 148.03125 L 163.359375 157.945313 L 162.773438 162.609375 L 162.621094 163.816406 L 162.316406 166.253906 L 160.894531 174.019531 L 159.304688 183.574219 L 158.050781 191.65625 L 157.417969 195.589844 L 156.484375 201.402344 L 154.332031 211.707031 L 153.457031 225.871094 L 153.308594 228.070313 L 153.011719 232.988281 L 152.585938 239.921875 Z M 155.761719 240.03125 "/>
<path style=" stroke:none;fill-rule:evenodd;fill:rgb(70.980392%,82.352941%,61.176471%);fill-opacity:1;" d="M 222.148438 258.609375 L 239.527344 258.347656 L 246.128906 258.25 L 246.285156 246.359375 L 246.328125 243.089844 L 240.996094 243.171875 L 223.980469 243.441406 Z M 222.148438 258.609375 "/>
<path style=" stroke:none;fill-rule:evenodd;fill:rgb(70.980392%,82.352941%,61.176471%);fill-opacity:1;" d="M 145.578125 145.960938 L 145.652344 146.4375 L 150.488281 147.601563 L 152.792969 147.671875 L 154.722656 147.300781 L 156.726563 146.398438 L 158.015625 145.460938 L 159.164063 144.101563 L 163.152344 136.753906 L 162.5625 135.742188 L 150.550781 128.859375 L 148.976563 128.414063 L 148.144531 129.652344 Z M 145.578125 145.960938 "/>
<path style=" stroke:none;fill-rule:evenodd;fill:rgb(81.960784%,81.568627%,80.392157%);fill-opacity:1;" d="M 175.449219 88.742188 L 184.753906 93.992188 L 192.851563 79.882813 L 183.371094 74.617188 Z M 175.449219 88.742188 "/>
<path style="fill:none;stroke-width:1;stroke-linecap:round;stroke-linejoin:round;stroke:rgb(81.960784%,81.960784%,81.960784%);stroke-opacity:1;stroke-miterlimit:10;" d="M 175.449219 88.742188 L 184.753906 93.992188 L 192.851563 79.882813 L 183.371094 74.617188 L 175.449219 88.742188 "/>
<path style=" stroke:none;fill-rule:evenodd;fill:rgb(70.980392%,82.352941%,61.176471%);fill-opacity:1;" d="M 237.058594 18.707031 L 237.800781 19.1875 L 240.464844 20.550781 L 240.042969 21.464844 L 251.824219 27.945313 L 253.890625 23.878906 L 256.210938 19.660156 L 240.859375 11.488281 Z M 237.058594 18.707031 "/>
<path style=" stroke:none;fill-rule:evenodd;fill:rgb(81.960784%,81.568627%,80.392157%);fill-opacity:1;" d="M 228.351563 93.910156 L 231.007813 95.386719 L 232.015625 95.941406 L 234.101563 92.074219 L 237.320313 93.855469 L 235.210938 97.71875 L 247.75 104.6875 L 248.734375 105.234375 L 250.890625 101.390625 L 238.921875 94.828125 L 240.640625 91.671875 L 239.597656 91.132813 L 236.765625 89.546875 L 232.121094 87.117188 Z M 228.351563 93.910156 "/>
<path style="fill:none;stroke-width:1;stroke-linecap:round;stroke-linejoin:round;stroke:rgb(81.960784%,81.960784%,81.960784%);stroke-opacity:1;stroke-miterlimit:10;" d="M 228.351563 93.910156 L 231.007813 95.386719 L 232.015625 95.941406 L 234.101563 92.074219 L 237.320313 93.855469 L 235.210938 97.71875 L 247.75 104.6875 L 248.734375 105.234375 L 250.890625 101.390625 L 238.921875 94.828125 L 240.640625 91.671875 L 239.597656 91.132813 L 236.765625 89.546875 L 232.121094 87.117188 L 228.351563 93.910156 "/>
<path style=" stroke:none;fill-rule:evenodd;fill:rgb(98.039216%,98.039216%,96.078431%);fill-opacity:1;" d="M 219.542969 192.179688 L 222.003906 193.59375 L 227.066406 196.535156 L 227.546875 193.054688 L 228.65625 185.082031 L 229.125 182.136719 L 232.324219 175.710938 L 234.179688 172.210938 L 231.890625 170.996094 L 231.402344 171.925781 L 230.273438 174.0625 L 228.652344 176.695313 Z M 219.542969 192.179688 "/>
<path style=" stroke:none;fill-rule:evenodd;fill:rgb(81.960784%,81.568627%,80.392157%);fill-opacity:1;" d="M 197.914063 44.625 L 202.886719 47.46875 L 208.628906 50.648438 L 212.445313 43.714844 L 201.699219 37.785156 Z M 197.914063 44.625 "/>
<path style="fill:none;stroke-width:1;stroke-linecap:round;stroke-linejoin:round;stroke:rgb(81.960784%,81.960784%,81.960784%);stroke-opacity:1;stroke-miterlimit:10;" d="M 197.914063 44.625 L 202.886719 47.46875 L 208.628906 50.648438 L 212.445313 43.714844 L 201.699219 37.785156 L 197.914063 44.625 "/>
<path style=" stroke:none;fill-rule:evenodd;fill:rgb(81.960784%,81.568627%,80.392157%);fill-opacity:1;" d="M 227.671875 104.023438 L 245.3125 113.730469 L 246.480469 114.402344 L 248.460938 110.8125 L 247.253906 110.148438 L 234.933594 103.347656 L 232.480469 101.996094 L 229.652344 100.4375 Z M 227.671875 104.023438 "/>
<path style="fill:none;stroke-width:1;stroke-linecap:round;stroke-linejoin:round;stroke:rgb(81.960784%,81.960784%,81.960784%);stroke-opacity:1;stroke-miterlimit:10;" d="M 227.671875 104.023438 L 245.3125 113.730469 L 246.480469 114.402344 L 248.460938 110.8125 L 247.253906 110.148438 L 234.933594 103.347656 L 232.480469 101.996094 L 229.652344 100.4375 L 227.671875 104.023438 "/>
<path style=" stroke:none;fill-rule:evenodd;fill:rgb(81.960784%,81.568627%,80.392157%);fill-opacity:1;" d="M 243.847656 79.015625 L 247.363281 80.957031 L 253.183594 84.167969 L 256.527344 78.113281 L 247.191406 72.957031 Z M 243.847656 79.015625 "/>
<path style="fill:none;stroke-width:1;stroke-linecap:round;stroke-linejoin:round;stroke:rgb(81.960784%,81.960784%,81.960784%);stroke-opacity:1;stroke-miterlimit:10;" d="M 243.847656 79.015625 L 247.363281 80.957031 L 253.183594 84.167969 L 256.527344 78.113281 L 247.191406 72.957031 L 243.847656 79.015625 "/>
<path style=" stroke:none;fill-rule:evenodd;fill:rgb(81.960784%,81.568627%,80.392157%);fill-opacity:1;" d="M 217.582031 134.164063 L 228.550781 140.328125 L 231.53125 136.878906 L 219.683594 130.429688 L 218.398438 132.710938 Z M 217.582031 134.164063 "/>
<path style="fill:none;stroke-width:1;stroke-linecap:round;stroke-linejoin:round;stroke:rgb(81.960784%,81.960784%,81.960784%);stroke-opacity:1;stroke-miterlimit:10;" d="M 217.582031 134.164063 L 228.550781 140.328125 L 231.53125 136.878906 L 219.683594 130.429688 L 218.398438 132.710938 L 217.582031 134.164063 "/>
<path style=" stroke:none;fill-rule:evenodd;fill:rgb(98.039216%,98.039216%,96.078431%);fill-opacity:1;" d="M 160.894531 174.019531 L 162.757813 178.097656 L 165.503906 175.726563 L 166.679688 168.527344 L 166.617188 165.804688 L 163.394531 165.285156 L 163.5625 163.507813 L 162.773438 162.609375 L 162.621094 163.816406 L 162.316406 166.253906 Z M 160.894531 174.019531 "/>
<path style=" stroke:none;fill-rule:evenodd;fill:rgb(98.039216%,98.039216%,96.078431%);fill-opacity:1;" d="M 173.488281 136.210938 L 175.414063 137.328125 L 177.695313 133.195313 L 179.398438 130.109375 L 180.320313 128.433594 L 182.003906 125.378906 L 183.75 122.21875 L 184.304688 120.21875 L 182.136719 118.929688 L 181.613281 120.929688 L 181.304688 122.101563 Z M 173.488281 136.210938 "/>
<path style=" stroke:none;fill-rule:evenodd;fill:rgb(98.039216%,98.039216%,96.078431%);fill-opacity:1;" d="M 180.765625 88.988281 L 181.535156 89.421875 L 182.546875 87.597656 L 183.617188 88.199219 L 183.859375 93.613281 L 183.089844 94.59375 L 183.742188 100.015625 L 185.589844 99.65625 L 184.707031 99.171875 L 184.429688 95.339844 L 184.769531 91.382813 L 185.050781 88.296875 L 184.496094 86.601563 L 183.773438 84.238281 L 184.96875 83.523438 L 185.183594 81.808594 L 184.027344 81.5 L 184.558594 79.695313 L 183.351563 79.074219 L 182.355469 82.035156 L 183.65625 83.253906 L 182.472656 85.480469 L 181.367188 85.078125 L 182.332031 86.335938 Z M 180.765625 88.988281 "/>
<path style=" stroke:none;fill-rule:evenodd;fill:rgb(98.039216%,98.039216%,96.078431%);fill-opacity:1;" d="M 223.082031 1.542969 L 224.371094 2.253906 L 226.167969 -0.808594 L 227.402344 -1.921875 L 228.621094 -4 L 227.410156 -4 L 226.847656 -3.800781 L 226.90625 -4 L 225.027344 -4 L 222.28125 1.121094 Z M 223.082031 1.542969 "/>
<path style=" stroke:none;fill-rule:evenodd;fill:rgb(98.039216%,98.039216%,96.078431%);fill-opacity:1;" d="M 157.417969 195.589844 L 158.523438 196.710938 L 158.28125 198.308594 L 159.601563 197.757813 L 160.703125 198.859375 L 161.347656 200.21875 L 162.136719 195.5625 L 159.867188 193.390625 L 158.453125 192.039063 L 158.050781 191.65625 Z M 157.417969 195.589844 "/>
<path style=" stroke:none;fill-rule:evenodd;fill:rgb(98.039216%,98.039216%,96.078431%);fill-opacity:1;" d="M 184.039063 101.371094 L 184.175781 103.230469 L 185.710938 107.035156 L 186.882813 105.125 L 188.820313 101.609375 L 185.589844 99.65625 L 184.210938 100.234375 Z M 184.039063 101.371094 "/>
<path style=" stroke:none;fill-rule:evenodd;fill:rgb(87.058824%,81.960784%,67.058824%);fill-opacity:1;" d="M 240.980469 246.390625 L 246.285156 246.359375 L 246.328125 243.089844 L 240.996094 243.171875 Z M 240.980469 246.390625 "/>
<path style=" stroke:none;fill-rule:evenodd;fill:rgb(98.039216%,98.039216%,96.078431%);fill-opacity:1;" d="M 153.308594 228.070313 L 153.636719 228.09375 L 155.871094 228.246094 L 156.996094 227.898438 L 156.367188 226.527344 L 155.132813 225.84375 L 155.195313 224.738281 L 153.457031 225.871094 Z M 153.308594 228.070313 "/>
<path style=" stroke:none;fill-rule:evenodd;fill:rgb(98.039216%,98.039216%,96.078431%);fill-opacity:1;" d="M 154.675781 219.203125 L 156.085938 219.222656 L 156.097656 218.175781 L 154.691406 218.160156 Z M 154.675781 219.203125 "/>
<path style=" stroke:none;fill-rule:evenodd;fill:rgb(60%,70.196078%,80%);fill-opacity:1;" d="M -4 259 L 103.675781 259 L 104.765625 247.011719 L 100.140625 247.71875 L 98.039063 247.964844 L 96.109375 248.214844 L 94.601563 248.507813 L 93.453125 248.464844 L 91.667969 247.851563 L 89.421875 247.316406 L 85.835938 246.847656 L 80.683594 246.621094 L 78.824219 246.21875 L 77.726563 246.058594 L 76.808594 245.519531 L 77.664063 226.527344 L 78.089844 223.261719 L 79.246094 204.847656 L 65.839844 203.988281 L 65.867188 201.972656 L 51.894531 201.105469 L 51.972656 199.867188 L 80.375 201.425781 L 81.660156 200.570313 L 83.238281 201.074219 L 84.386719 201.324219 L 87.972656 201.386719 L 93.789063 201.589844 L 111.101563 202.441406 L 117.316406 202.691406 L 120.003906 202.65625 L 121.484375 202.789063 L 122.589844 201.980469 L 123.945313 201.542969 L 125.496094 201.136719 L 127.453125 186.867188 L 123.179688 186.269531 L 123.371094 184.820313 L 124.425781 177.894531 L 126.515625 164.476563 L 130.277344 165.011719 L 134.914063 133.832031 L 122.132813 131.792969 L 123.410156 122.542969 L 65.097656 114.484375 L 63.835938 114.234375 L 63.316406 113.109375 L 64.898438 102.585938 L 65.746094 101.539063 L 124.351563 109.460938 L 125.46875 108.03125 L 126.566406 100.367188 L 139.199219 101.941406 L 143.292969 72.589844 L 141.941406 72.003906 L 138.707031 71.566406 L 137.726563 70.917969 L 123.617188 68.816406 L 125.015625 58.941406 L 72.691406 51.5 L 71.988281 50.699219 L 73.476563 39.6875 L 74.09375 38.828125 L 75.085938 38.617188 L 114.226563 44.257813 L 126.683594 46.148438 L 129.296875 27.804688 L 76.683594 20.214844 L 75.761719 19.425781 L 77.363281 8.101563 L 78.144531 7.410156 L 131.199219 14.445313 L 133.625 -3.535156 L 130.382813 -4 L 259 -4 L -4 -4 Z M -4 259 "/>
<path style="fill:none;stroke-width:1;stroke-linecap:round;stroke-linejoin:round;stroke:rgb(70.196078%,77.647059%,83.137255%);stroke-opacity:1;stroke-miterlimit:10;" d="M -4 259 L 103.675781 259 L 104.765625 247.011719 L 100.140625 247.71875 L 98.039063 247.964844 L 96.109375 248.214844 L 94.601563 248.507813 L 93.453125 248.464844 L 91.667969 247.851563 L 89.421875 247.316406 L 85.835938 246.847656 L 80.683594 246.621094 L 78.824219 246.21875 L 77.726563 246.058594 L 76.808594 245.519531 L 77.664063 226.527344 L 78.089844 223.261719 L 79.246094 204.847656 L 65.839844 203.988281 L 65.867188 201.972656 L 51.894531 201.105469 L 51.972656 199.867188 L 80.375 201.425781 L 81.660156 200.570313 L 83.238281 201.074219 L 84.386719 201.324219 L 87.972656 201.386719 L 93.789063 201.589844 L 111.101563 202.441406 L 117.316406 202.691406 L 120.003906 202.65625 L 121.484375 202.789063 L 122.589844 201.980469 L 123.945313 201.542969 L 125.496094 201.136719 L 127.453125 186.867188 L 123.179688 186.269531 L 123.371094 184.820313 L 124.425781 177.894531 L 126.515625 164.476563 L 130.277344 165.011719 L 134.914063 133.832031 L 122.132813 131.792969 L 123.410156 122.542969 L 65.097656 114.484375 L 63.835938 114.234375 L 63.316406 113.109375 L 64.898438 102.585938 L 65.746094 101.539063 L 124.351563 109.460938 L 125.46875 108.03125 L 126.566406 100.367188 L 139.199219 101.941406 L 143.292969 72.589844 L 141.941406 72.003906 L 138.707031 71.566406 L 137.726563 70.917969 L 123.617188 68.816406 L 125.015625 58.941406 L 72.691406 51.5 L 71.988281 50.699219 L 73.476563 39.6875 L 74.09375 38.828125 L 75.085938 38.617188 L 114.226563 44.257813 L 126.683594 46.148438 L 129.296875 27.804688 L 76.683594 20.214844 L 75.761719 19.425781 L 77.363281 8.101563 L 78.144531 7.410156 L 131.199219 14.445313 L 133.625 -3.535156 L 130.382813 -4 L 259 -4 L -4 -4 L -4 259 "/>
<path style="fill:none;stroke-width:1;stroke-linecap:round;stroke-linejoin:round;stroke:rgb(100%,100%,100%);stroke-opacity:1;stroke-dasharray:2,3;stroke-miterlimit:10;" d="M 155.761719 230.695313 L 155.6875 232.195313 "/>
<path style="fill:none;stroke-width:1;stroke-linecap:round;stroke-linejoin:round;stroke:rgb(100%,100%,100%);stroke-opacity:1;stroke-dasharray:2,3;stroke-miterlimit:10;" d="M 155.550781 234.257813 L 155.414063 237.09375 "/>
<path style="fill:none;stroke-width:1;stroke-linecap:round;stroke-linejoin:round;stroke:rgb(100%,100%,100%);stroke-opacity:1;stroke-dasharray:2,3;stroke-miterlimit:10;" d="M 187.125 75.988281 L 186.980469 76.253906 "/>
<path style="fill:none;stroke-width:1;stroke-linecap:round;stroke-linejoin:round;stroke:rgb(100%,100%,100%);stroke-opacity:1;stroke-dasharray:2,3;stroke-miterlimit:10;" d="M 205.671875 39.132813 L 205.5 39.425781 "/>
<path style="fill:none;stroke-width:1;stroke-linecap:round;stroke-linejoin:round;stroke:rgb(100%,100%,100%);stroke-opacity:1;stroke-dasharray:2,3;stroke-miterlimit:10;" d="M 188.363281 76.964844 L 188.679688 77.125 "/>
<path style="fill:none;stroke-width:1;stroke-linecap:round;stroke-linejoin:round;stroke:rgb(100%,100%,100%);stroke-opacity:1;stroke-dasharray:2,3;stroke-miterlimit:10;" d="M 206.769531 40.101563 L 207.09375 40.273438 "/>
<path style="fill:none;stroke-width:1;stroke-linecap:round;stroke-linejoin:round;stroke:rgb(100%,100%,100%);stroke-opacity:1;stroke-dasharray:2,3;stroke-miterlimit:10;" d="M 208.050781 38.507813 L 207.09375 40.273438 "/>
<path style="fill:none;stroke-width:1;stroke-linecap:round;stroke-linejoin:round;stroke:rgb(100%,100%,100%);stroke-opacity:1;stroke-dasharray:2,3;stroke-miterlimit:10;" d="M 189.59375 75.296875 L 188.679688 77.125 "/>
<path style="fill:none;stroke-width:1;stroke-linecap:round;stroke-linejoin:round;stroke:rgb(100%,100%,100%);stroke-opacity:1;stroke-dasharray:2,3;stroke-miterlimit:10;" d="M 169.085938 164.339844 L 167.46875 167.121094 "/>
<path style="fill:none;stroke-width:1;stroke-linecap:round;stroke-linejoin:round;stroke:rgb(100%,100%,100%);stroke-opacity:1;stroke-dasharray:2,3;stroke-miterlimit:10;" d="M 244.953125 124.863281 L 241.675781 123.007813 "/>
<path style="fill:none;stroke-width:1;stroke-linecap:round;stroke-linejoin:round;stroke:rgb(100%,100%,100%);stroke-opacity:1;stroke-dasharray:2,3;stroke-miterlimit:10;" d="M 155.351563 238.582031 L 156.449219 238.714844 L 159.179688 239.046875 "/>
<path style="fill:none;stroke-width:1;stroke-linecap:round;stroke-linejoin:round;stroke:rgb(100%,100%,100%);stroke-opacity:1;stroke-dasharray:2,3;stroke-miterlimit:10;" d="M 155.351563 238.582031 L 155.761719 240.03125 L 156.433594 242.585938 "/>
<path style="fill:none;stroke-width:1;stroke-linecap:round;stroke-linejoin:round;stroke:rgb(100%,100%,100%);stroke-opacity:1;stroke-dasharray:2,3;stroke-miterlimit:10;" d="M 162.324219 136.136719 L 165.648438 137.851563 L 168.699219 138.546875 "/>
<path style="fill:none;stroke-width:1;stroke-linecap:round;stroke-linejoin:round;stroke:rgb(100%,100%,100%);stroke-opacity:1;stroke-dasharray:2,3;stroke-miterlimit:10;" d="M 150.773438 104.507813 L 152.523438 105.3125 L 153.027344 101.90625 L 153.238281 100.277344 "/>
<path style="fill:none;stroke-width:1;stroke-linecap:round;stroke-linejoin:round;stroke:rgb(100%,100%,100%);stroke-opacity:1;stroke-dasharray:2,3;stroke-miterlimit:10;" d="M 143.054688 102.230469 L 146.371094 102.910156 L 150.773438 104.507813 "/>
<path style="fill:none;stroke-width:1;stroke-linecap:round;stroke-linejoin:round;stroke:rgb(100%,100%,100%);stroke-opacity:1;stroke-dasharray:2,3;stroke-miterlimit:10;" d="M 135.410156 152.960938 L 138.375 154.285156 L 143.417969 155.183594 "/>
<path style="fill:none;stroke-width:1;stroke-linecap:round;stroke-linejoin:round;stroke:rgb(100%,100%,100%);stroke-opacity:1;stroke-dasharray:2,3;stroke-miterlimit:10;" d="M 248.058594 94.9375 L 248.984375 93.261719 L 252.605469 86.699219 "/>
<path style="fill:none;stroke-width:1;stroke-linecap:round;stroke-linejoin:round;stroke:rgb(100%,100%,100%);stroke-opacity:1;stroke-dasharray:2,3;stroke-miterlimit:10;" d="M 243.203125 120.242188 L 245.84375 115.285156 L 244.78125 114.722656 L 245.3125 113.730469 L 246.492188 111.535156 "/>
<path style="fill:none;stroke-width:1;stroke-linecap:round;stroke-linejoin:round;stroke:rgb(100%,100%,100%);stroke-opacity:1;stroke-dasharray:2,3;stroke-miterlimit:10;" d="M 238.8125 93.636719 L 240.0625 91.371094 L 241.347656 89.042969 L 244.972656 82.472656 "/>
<path style="fill:none;stroke-width:1;stroke-linecap:round;stroke-linejoin:round;stroke:rgb(100%,100%,100%);stroke-opacity:1;stroke-dasharray:2,3;stroke-miterlimit:10;" d="M 198.929688 234.042969 L 211.9375 240.808594 "/>
<path style="fill:none;stroke-width:1;stroke-linecap:round;stroke-linejoin:round;stroke:rgb(100%,100%,100%);stroke-opacity:1;stroke-dasharray:2,3;stroke-miterlimit:10;" d="M 138.523438 127.800781 L 142.613281 128.378906 L 147.175781 129.308594 L 148.144531 129.652344 L 149.203125 130.324219 L 150.234375 131.292969 L 151.261719 133.339844 "/>
<path style="fill:none;stroke-width:1;stroke-linecap:round;stroke-linejoin:round;stroke:rgb(100%,100%,100%);stroke-opacity:1;stroke-dasharray:2,3;stroke-miterlimit:10;" d="M 145.285156 155.59375 L 146.074219 150.621094 L 147.199219 145.417969 L 147.757813 144.542969 L 150.011719 141.828125 "/>
<path style="fill:none;stroke-width:1;stroke-linecap:round;stroke-linejoin:round;stroke:rgb(100%,100%,100%);stroke-opacity:1;stroke-dasharray:2,3;stroke-miterlimit:10;" d="M 144.644531 82.339844 L 145.882813 82.53125 L 147.664063 82.386719 L 149.171875 82.269531 L 153.773438 82.109375 L 155.769531 81.9375 L 156.136719 79.335938 L 156.300781 77.84375 "/>
<path style="fill:none;stroke-width:1;stroke-linecap:round;stroke-linejoin:round;stroke:rgb(100%,100%,100%);stroke-opacity:1;stroke-dasharray:2,3;stroke-miterlimit:10;" d="M 170.484375 134.761719 L 168.179688 133.382813 L 164.917969 131.605469 L 163.652344 133.761719 L 162.324219 136.136719 L 160.503906 136.835938 L 158.355469 137.636719 "/>
<path style="fill:none;stroke-width:1;stroke-linecap:round;stroke-linejoin:round;stroke:rgb(100%,100%,100%);stroke-opacity:1;stroke-dasharray:2,3;stroke-miterlimit:10;" d="M 145.800781 59.625 L 147.40625 59.890625 L 149.480469 60.199219 L 152.078125 60.542969 L 156.574219 61.507813 L 158.148438 61.839844 L 158.753906 58.1875 "/>
<path style="fill:none;stroke-width:1;stroke-linecap:round;stroke-linejoin:round;stroke:rgb(100%,100%,100%);stroke-opacity:1;stroke-dasharray:2,3;stroke-miterlimit:10;" d="M 237.019531 115.203125 L 236.328125 116.4375 L 232.816406 122.679688 L 229.136719 129.203125 L 228.542969 130.253906 "/>
<path style="fill:none;stroke-width:1;stroke-linecap:round;stroke-linejoin:round;stroke:rgb(100%,100%,100%);stroke-opacity:1;stroke-dasharray:2,3;stroke-miterlimit:10;" d="M 234.472656 132.160156 L 249.691406 140.578125 "/>
<path style="fill:none;stroke-width:1;stroke-linecap:round;stroke-linejoin:round;stroke:rgb(100%,100%,100%);stroke-opacity:1;stroke-dasharray:2,3;stroke-miterlimit:10;" d="M 152.445313 9.789063 L 154.386719 10.125 L 156.265625 10.378906 L 159.175781 10.726563 L 163.628906 11.417969 L 165.644531 12.433594 L 165.273438 14.765625 L 165.082031 16.5 "/>
<path style="fill:none;stroke-width:1;stroke-linecap:round;stroke-linejoin:round;stroke:rgb(100%,100%,100%);stroke-opacity:1;stroke-dasharray:2,3;stroke-miterlimit:10;" d="M 159.199219 157.261719 L 158.550781 158.53125 L 157.261719 160.980469 L 153.175781 159.066406 L 151.667969 158.359375 L 148.574219 156.953125 L 146.636719 155.886719 L 145.285156 155.59375 L 143.417969 155.183594 "/>
<path style="fill:none;stroke-width:1;stroke-linecap:round;stroke-linejoin:round;stroke:rgb(100%,100%,100%);stroke-opacity:1;stroke-dasharray:2,3;stroke-miterlimit:10;" d="M 149.203125 130.324219 L 149.730469 126.359375 L 150.308594 122.046875 L 148.324219 120.460938 L 144.261719 117.210938 L 140.40625 114.125 "/>
<path style="fill:none;stroke-width:1;stroke-linecap:round;stroke-linejoin:round;stroke:rgb(100%,100%,100%);stroke-opacity:1;stroke-dasharray:2,3;stroke-miterlimit:10;" d="M 229.371094 138.871094 L 230.742188 136.550781 L 246.863281 145.71875 "/>
<path style="fill:none;stroke-width:1;stroke-linecap:round;stroke-linejoin:round;stroke:rgb(100%,100%,100%);stroke-opacity:1;stroke-dasharray:2,3;stroke-miterlimit:10;" d="M 238.140625 125.628906 L 234.472656 132.160156 L 229.136719 129.203125 L 221.683594 125.082031 "/>
<path style="fill:none;stroke-width:1;stroke-linecap:round;stroke-linejoin:round;stroke:rgb(100%,100%,100%);stroke-opacity:1;stroke-dasharray:2,3;stroke-miterlimit:10;" d="M 241.347656 89.042969 L 248.984375 93.261719 L 254.171875 96.125 L 257 90.96875 "/>
<path style="fill:none;stroke-width:1;stroke-linecap:round;stroke-linejoin:round;stroke:rgb(100%,100%,100%);stroke-opacity:1;stroke-dasharray:2,3;stroke-miterlimit:10;" d="M 239.738281 126.511719 L 241.675781 123.007813 L 243.203125 120.242188 L 236.328125 116.4375 L 231.296875 113.65625 L 227.832031 119.925781 "/>
<path style="fill:none;stroke-width:1;stroke-linecap:round;stroke-linejoin:round;stroke:rgb(100%,100%,100%);stroke-opacity:1;stroke-dasharray:2,3;stroke-miterlimit:10;" d="M 158.355469 137.636719 L 157.449219 135.886719 L 155.292969 134.265625 L 153.253906 133.199219 L 151.261719 133.339844 L 149.636719 134.640625 L 149.046875 136.984375 L 149.105469 139.730469 L 150.011719 141.828125 L 152.074219 143.511719 L 154.671875 144.546875 L 157.324219 143.578125 L 158.855469 140.890625 L 158.355469 137.636719 "/>
<path style="fill:none;stroke-width:1;stroke-linecap:round;stroke-linejoin:round;stroke:rgb(100%,100%,100%);stroke-opacity:1;stroke-dasharray:2,3;stroke-miterlimit:10;" d="M 115.9375 221.292969 L 114.023438 222.890625 L 113.707031 223.953125 L 113.175781 226.992188 L 112.71875 228.550781 L 110.992188 232.390625 L 108.828125 238.605469 L 107.773438 242.707031 L 106.914063 245.132813 L 105.925781 246.0625 L 105.523438 247.507813 L 104.910156 257 "/>
<path style="fill:none;stroke-width:1;stroke-linecap:round;stroke-linejoin:round;stroke:rgb(100%,100%,100%);stroke-opacity:1;stroke-dasharray:2,3;stroke-miterlimit:10;" d="M 123.988281 257 L 124.679688 242.660156 "/>
<path style="fill:none;stroke-width:1;stroke-linecap:round;stroke-linejoin:round;stroke:rgb(100%,100%,100%);stroke-opacity:1;stroke-dasharray:2,3;stroke-miterlimit:10;" d="M 154.070313 -2 L 152.445313 9.789063 L 150.273438 26.253906 L 145.800781 59.625 L 144.074219 71.324219 "/>
<path style="fill:none;stroke-width:1;stroke-linecap:round;stroke-linejoin:round;stroke:rgb(100%,100%,100%);stroke-opacity:1;stroke-dasharray:2,3;stroke-miterlimit:10;" d="M 131.960938 15.738281 L 78.667969 8.398438 L 77.125 19.609375 L 130.386719 27.597656 "/>
<path style="fill:none;stroke-width:1;stroke-linecap:round;stroke-linejoin:round;stroke:rgb(100%,100%,100%);stroke-opacity:1;stroke-dasharray:2,3;stroke-miterlimit:10;" d="M 127.816406 46.917969 L 74.351563 39.503906 L 72.847656 50.832031 L 126.113281 58.304688 "/>
<path style="fill:none;stroke-width:1;stroke-linecap:round;stroke-linejoin:round;stroke:rgb(100%,100%,100%);stroke-opacity:1;stroke-dasharray:2,3;stroke-miterlimit:10;" d="M 134.460938 -2 L 131.960938 15.738281 L 130.992188 23.464844 L 130.386719 27.597656 L 127.816406 46.917969 L 126.113281 58.304688 L 124.5 68.476563 L 144.074219 71.324219 L 143.847656 74.179688 L 144.367188 75.421875 L 145.140625 76.703125 L 144.644531 82.339844 "/>
<path style="fill:none;stroke-width:8;stroke-linecap:round;stroke-linejoin:round;stroke:rgb(75.686275%,70.980392%,61.568627%);stroke-opacity:1;stroke-miterlimit:10;" d="M 81.265625 225.464844 L 79.898438 225.367188 "/>
<path style="fill:none;stroke-width:8;stroke-linecap:round;stroke-linejoin:round;stroke:rgb(75.686275%,70.980392%,61.568627%);stroke-opacity:1;stroke-miterlimit:10;" d="M 213.710938 135.683594 L 216.101563 131.421875 "/>
<path style="fill:none;stroke-width:8;stroke-linecap:round;stroke-linejoin:round;stroke:rgb(75.686275%,70.980392%,61.568627%);stroke-opacity:1;stroke-miterlimit:10;" d="M 246.128906 83.113281 L 247.363281 80.957031 L 248.960938 78.15625 "/>
<path style="fill:none;stroke-width:8;stroke-linecap:round;stroke-linejoin:round;stroke:rgb(75.686275%,70.980392%,61.568627%);stroke-opacity:1;stroke-miterlimit:10;" d="M 233.800781 99.660156 L 232.480469 101.996094 L 230.976563 104.65625 "/>
<path style="fill:none;stroke-width:8;stroke-linecap:round;stroke-linejoin:round;stroke:rgb(75.686275%,70.980392%,61.568627%);stroke-opacity:1;stroke-miterlimit:10;" d="M 245.972656 76.5625 L 248.960938 78.15625 L 253.863281 80.765625 "/>
<path style="fill:none;stroke-width:8;stroke-linecap:round;stroke-linejoin:round;stroke:rgb(75.686275%,70.980392%,61.568627%);stroke-opacity:1;stroke-miterlimit:10;" d="M 217.636719 132.285156 L 229.371094 138.871094 L 228.550781 140.328125 L 226.941406 143.195313 "/>
<path style="fill:none;stroke-width:8;stroke-linecap:round;stroke-linejoin:round;stroke:rgb(75.686275%,70.980392%,61.568627%);stroke-opacity:1;stroke-miterlimit:10;" d="M 216.101563 131.421875 L 217.636719 132.285156 L 221.683594 125.082031 L 211.183594 119.183594 "/>
<path style="fill:none;stroke-width:8;stroke-linecap:round;stroke-linejoin:round;stroke:rgb(75.686275%,70.980392%,61.568627%);stroke-opacity:1;stroke-miterlimit:10;" d="M 236.230469 101 L 234.933594 103.347656 L 234.164063 104.746094 L 246.492188 111.535156 L 247.253906 110.148438 L 248.558594 107.785156 "/>
<path style="fill:none;stroke-width:8;stroke-linecap:round;stroke-linejoin:round;stroke:rgb(75.686275%,70.980392%,61.568627%);stroke-opacity:1;stroke-miterlimit:10;" d="M 229.835938 97.476563 L 231.007813 95.386719 L 233.625 90.726563 L 238.8125 93.636719 L 237.527344 95.824219 L 249.027344 102.273438 L 247.75 104.6875 L 246.660156 106.742188 "/>
<path style="fill:none;stroke-width:8;stroke-linecap:round;stroke-linejoin:round;stroke:rgb(75.686275%,70.980392%,61.568627%);stroke-opacity:1;stroke-miterlimit:10;" d="M 81.464844 241.957031 L 84 242.789063 L 107.773438 242.707031 L 109.390625 242.804688 L 112.40625 243.339844 L 116.972656 244.308594 "/>
<path style="fill:none;stroke-width:8;stroke-linecap:round;stroke-linejoin:round;stroke:rgb(75.686275%,70.980392%,61.568627%);stroke-opacity:1;stroke-miterlimit:10;" d="M 82.988281 205.945313 L 81.265625 225.464844 L 80.164063 240.457031 L 81.464844 241.957031 "/>
<path style="fill:none;stroke-width:8;stroke-linecap:round;stroke-linejoin:round;stroke:rgb(75.686275%,70.980392%,61.568627%);stroke-opacity:1;stroke-miterlimit:10;" d="M 122.183594 219.601563 L 120.066406 221.03125 L 118.265625 221.554688 L 116.859375 221.613281 L 115.117188 220.675781 L 114.347656 219.757813 L 114.125 218.535156 L 114.417969 217.238281 L 115.574219 215.722656 L 119.570313 210.289063 L 119.871094 209.148438 L 119.316406 207.933594 L 111.1875 207.34375 L 82.988281 205.945313 "/>
<path style="fill:none;stroke-width:8;stroke-linecap:round;stroke-linejoin:round;stroke:rgb(75.686275%,70.980392%,61.568627%);stroke-opacity:1;stroke-miterlimit:10;" d="M 157.132813 -9 L 156.394531 -3.527344 L 154.386719 10.125 L 152.394531 26.671875 L 147.445313 59.050781 L 146.371094 67.507813 L 145.855469 72.175781 L 146.492188 73.621094 L 147.457031 74.292969 L 149.945313 76.066406 "/>
<path style="fill:none;stroke-width:10;stroke-linecap:round;stroke-linejoin:round;stroke:rgb(86.666667%,62.352941%,6.666667%);stroke-opacity:1;stroke-miterlimit:10;" d="M 139.820313 146.957031 L 140.640625 148.078125 L 141.660156 148.972656 L 143.125 149.882813 L 144.089844 150.347656 L 146.074219 150.621094 L 148.148438 150.90625 "/>
<path style="fill:none;stroke-width:10;stroke-linecap:round;stroke-linejoin:round;stroke:rgb(86.666667%,62.352941%,6.666667%);stroke-opacity:1;stroke-miterlimit:10;" d="M 148.148438 150.90625 L 155.894531 157.445313 "/>
<path style="fill:none;stroke-width:10;stroke-linecap:round;stroke-linejoin:round;stroke:rgb(86.666667%,62.352941%,6.666667%);stroke-opacity:1;stroke-miterlimit:10;" d="M 148.148438 150.90625 L 150.472656 154.507813 L 151.40625 156.941406 L 151.667969 158.359375 L 151.675781 159.921875 L 151.429688 161.984375 "/>
<path style="fill:none;stroke-width:10;stroke-linecap:round;stroke-linejoin:round;stroke:rgb(86.666667%,62.352941%,6.666667%);stroke-opacity:1;stroke-miterlimit:10;" d="M 148.148438 150.90625 L 150.191406 150.605469 L 155.441406 149.007813 L 157.753906 147.851563 L 159.589844 146.59375 L 161.792969 144.546875 "/>
<path style="fill:none;stroke-width:5;stroke-linecap:round;stroke-linejoin:round;stroke:rgb(75.686275%,70.980392%,61.568627%);stroke-opacity:1;stroke-miterlimit:10;" d="M 164.019531 165.5625 L 164.441406 163.078125 "/>
<path style="fill:none;stroke-width:5;stroke-linecap:round;stroke-linejoin:round;stroke:rgb(75.686275%,70.980392%,61.568627%);stroke-opacity:1;stroke-miterlimit:10;" d="M 159.738281 193.726563 L 159.027344 195.59375 L 158.554688 198.210938 L 158.539063 198.367188 "/>
<path style="fill:none;stroke-width:8;stroke-linecap:round;stroke-linejoin:round;stroke:rgb(75.686275%,70.980392%,61.568627%);stroke-opacity:1;stroke-miterlimit:10;" d="M 153.214844 55.097656 L 157.171875 57.308594 "/>
<path style="fill:none;stroke-width:8;stroke-linecap:round;stroke-linejoin:round;stroke:rgb(75.686275%,70.980392%,61.568627%);stroke-opacity:1;stroke-miterlimit:10;" d="M 219.097656 252.019531 L 220.234375 255.691406 L 220.753906 257.574219 "/>
<path style="fill:none;stroke-width:8;stroke-linecap:round;stroke-linejoin:round;stroke:rgb(75.686275%,70.980392%,61.568627%);stroke-opacity:1;stroke-miterlimit:10;" d="M 147.617188 94.386719 L 147.910156 96.503906 L 148.203125 97.890625 L 148.53125 98.917969 L 149.941406 100.480469 L 151.367188 100.96875 "/>
<path style="fill:none;stroke-width:8;stroke-linecap:round;stroke-linejoin:round;stroke:rgb(75.686275%,70.980392%,61.568627%);stroke-opacity:1;stroke-miterlimit:10;" d="M 161.09375 213.226563 L 159.925781 230.765625 L 159.179688 239.046875 L 158.921875 241.75 "/>
<path style="fill:none;stroke-width:8;stroke-linecap:round;stroke-linejoin:round;stroke:rgb(75.686275%,70.980392%,61.568627%);stroke-opacity:1;stroke-miterlimit:10;" d="M 151.367188 100.96875 L 153.027344 101.90625 L 177.863281 115.972656 "/>
<path style="fill:none;stroke-width:8;stroke-linecap:round;stroke-linejoin:round;stroke:rgb(75.686275%,70.980392%,61.568627%);stroke-opacity:1;stroke-miterlimit:10;" d="M 240.402344 157.332031 L 238.125 159.546875 L 231.890625 170.996094 L 231.402344 171.925781 L 230.273438 174.0625 L 228.652344 176.695313 L 221.164063 189.363281 L 219.542969 192.179688 "/>
<path style="fill:none;stroke-width:8;stroke-linecap:round;stroke-linejoin:round;stroke:rgb(75.686275%,70.980392%,61.568627%);stroke-opacity:1;stroke-miterlimit:10;" d="M 157.171875 57.308594 L 158.753906 58.1875 L 189.59375 75.296875 L 197.742188 79.804688 "/>
<path style="fill:none;stroke-width:8;stroke-linecap:round;stroke-linejoin:round;stroke:rgb(75.686275%,70.980392%,61.568627%);stroke-opacity:1;stroke-miterlimit:10;" d="M 184.109375 172.625 L 172.300781 194.027344 L 161.09375 213.226563 "/>
<path style="fill:none;stroke-width:8;stroke-linecap:round;stroke-linejoin:round;stroke:rgb(75.686275%,70.980392%,61.568627%);stroke-opacity:1;stroke-miterlimit:10;" d="M 256.460938 240.59375 L 224.78125 222.824219 L 222.921875 221.78125 L 209.882813 214.667969 "/>
<path style="fill:none;stroke-width:8;stroke-linecap:round;stroke-linejoin:round;stroke:rgb(75.686275%,70.980392%,61.568627%);stroke-opacity:1;stroke-miterlimit:10;" d="M 196.25 240.992188 L 198.929688 234.042969 L 208.476563 217.148438 L 209.882813 214.667969 L 220.546875 196.125 L 222.003906 193.59375 "/>
<path style="fill:none;stroke-width:8;stroke-linecap:round;stroke-linejoin:round;stroke:rgb(75.686275%,70.980392%,61.568627%);stroke-opacity:1;stroke-miterlimit:10;" d="M 159.226563 41.769531 L 160.070313 40.15625 L 160.929688 39.125 L 161.6875 38.46875 L 162.824219 37.921875 L 164.046875 37.445313 L 165.363281 37.542969 L 166.894531 38.144531 L 207.644531 61.8125 "/>
<path style="fill:none;stroke-width:8;stroke-linecap:round;stroke-linejoin:round;stroke:rgb(75.686275%,70.980392%,61.568627%);stroke-opacity:1;stroke-miterlimit:10;" d="M 217.546875 43.820313 L 208.050781 38.507813 L 204.957031 36.769531 L 165.273438 14.765625 L 163.375 13.707031 "/>
<path style="fill:none;stroke-width:8;stroke-linecap:round;stroke-linejoin:round;stroke:rgb(75.686275%,70.980392%,61.568627%);stroke-opacity:1;stroke-miterlimit:10;" d="M 227.066406 196.535156 L 226.394531 199.671875 L 224.546875 206.761719 L 222.921875 221.78125 L 220.527344 240.753906 L 219.097656 252.019531 L 218.125 260.703125 "/>
<path style="fill:none;stroke-width:8;stroke-linecap:round;stroke-linejoin:round;stroke:rgb(75.686275%,70.980392%,61.568627%);stroke-opacity:1;stroke-miterlimit:10;" d="M 137.738281 200.203125 L 161.09375 213.226563 L 198.929688 234.042969 "/>
<path style="fill:none;stroke-width:8;stroke-linecap:round;stroke-linejoin:round;stroke:rgb(75.686275%,70.980392%,61.568627%);stroke-opacity:1;stroke-miterlimit:10;" d="M 166.371094 -8.09375 L 227.527344 26.019531 "/>
<path style="fill:none;stroke-width:8;stroke-linecap:round;stroke-linejoin:round;stroke:rgb(75.686275%,70.980392%,61.568627%);stroke-opacity:1;stroke-miterlimit:10;" d="M 238.097656 6.695313 L 210.539063 -9 "/>
<path style="fill:none;stroke-width:8;stroke-linecap:round;stroke-linejoin:round;stroke:rgb(75.686275%,70.980392%,61.568627%);stroke-opacity:1;stroke-miterlimit:10;" d="M 264 46.144531 L 227.527344 26.019531 "/>
<path style="fill:none;stroke-width:8;stroke-linecap:round;stroke-linejoin:round;stroke:rgb(75.686275%,70.980392%,61.568627%);stroke-opacity:1;stroke-miterlimit:10;" d="M 197.742188 79.804688 L 229.835938 97.476563 L 233.800781 99.660156 L 236.230469 101 L 246.660156 106.742188 L 248.558594 107.785156 L 263.089844 115.785156 "/>
<path style="fill:none;stroke-width:8;stroke-linecap:round;stroke-linejoin:round;stroke:rgb(75.686275%,70.980392%,61.568627%);stroke-opacity:1;stroke-miterlimit:10;" d="M 195.957031 264 L 195.992188 261.011719 L 196.25 240.992188 "/>
<path style="fill:none;stroke-width:8;stroke-linecap:round;stroke-linejoin:round;stroke:rgb(75.686275%,70.980392%,61.568627%);stroke-opacity:1;stroke-miterlimit:10;" d="M 264 188.828125 L 234.179688 172.210938 "/>
<path style="fill:none;stroke-width:8;stroke-linecap:round;stroke-linejoin:round;stroke:rgb(75.686275%,70.980392%,61.568627%);stroke-opacity:1;stroke-miterlimit:10;" d="M 209.882813 214.667969 L 172.300781 194.027344 L 147.597656 180.164063 L 143.257813 177.726563 "/>
<path style="fill:none;stroke-width:8;stroke-linecap:round;stroke-linejoin:round;stroke:rgb(75.686275%,70.980392%,61.568627%);stroke-opacity:1;stroke-miterlimit:10;" d="M 256.460938 240.59375 L 222.871094 240.765625 L 220.527344 240.753906 L 211.9375 240.808594 L 196.25 240.992188 L 162.421875 241.503906 L 158.921875 241.75 L 156.433594 242.585938 L 131.328125 242.636719 L 126.285156 242.652344 L 124.679688 242.660156 L 122.273438 242.558594 "/>
<path style="fill:none;stroke-width:8;stroke-linecap:round;stroke-linejoin:round;stroke:rgb(75.686275%,70.980392%,61.568627%);stroke-opacity:1;stroke-miterlimit:10;" d="M 217.546875 43.820313 L 264 69.550781 "/>
<path style="fill:none;stroke-width:8;stroke-linecap:round;stroke-linejoin:round;stroke:rgb(75.686275%,70.980392%,61.568627%);stroke-opacity:1;stroke-miterlimit:10;" d="M 264 93.007813 L 257.773438 89.5625 L 252.605469 86.699219 L 246.128906 83.113281 L 244.972656 82.472656 L 207.644531 61.8125 "/>
<path style="fill:none;stroke-width:8;stroke-linecap:round;stroke-linejoin:round;stroke:rgb(75.686275%,70.980392%,61.568627%);stroke-opacity:1;stroke-miterlimit:10;" d="M 264 139.988281 L 256.210938 135.640625 L 253.335938 134.03125 L 239.738281 126.511719 L 238.140625 125.628906 L 232.816406 122.679688 L 227.832031 119.925781 L 187.8125 97.796875 L 156.136719 79.335938 L 154.375 78.308594 L 149.945313 76.066406 "/>
<path style="fill:none;stroke-width:8;stroke-linecap:round;stroke-linejoin:round;stroke:rgb(75.686275%,70.980392%,61.568627%);stroke-opacity:1;stroke-miterlimit:10;" d="M 177.863281 115.972656 L 186.039063 120.507813 L 213.710938 135.683594 L 226.941406 143.195313 L 243.238281 152.3125 L 245.640625 153.644531 L 264 163.820313 "/>
<path style="fill:none;stroke-width:8;stroke-linecap:round;stroke-linejoin:round;stroke:rgb(75.686275%,70.980392%,61.568627%);stroke-opacity:1;stroke-miterlimit:10;" d="M 158.921875 241.75 L 157.707031 260.859375 L 157.511719 264 "/>
<path style="fill:none;stroke-width:8;stroke-linecap:round;stroke-linejoin:round;stroke:rgb(75.686275%,70.980392%,61.568627%);stroke-opacity:1;stroke-miterlimit:10;" d="M 238.097656 6.695313 L 264 20.984375 "/>
<path style="fill:none;stroke-width:9;stroke-linecap:round;stroke-linejoin:round;stroke:rgb(75.686275%,70.980392%,61.568627%);stroke-opacity:1;stroke-miterlimit:10;" d="M 147.589844 125.222656 L 146.308594 125.011719 L 145.132813 125.21875 L 144.183594 125.691406 L 143.460938 126.59375 L 142.613281 128.378906 "/>
<path style="fill:none;stroke-width:9;stroke-linecap:round;stroke-linejoin:round;stroke:rgb(75.686275%,70.980392%,61.568627%);stroke-opacity:1;stroke-miterlimit:10;" d="M 154.542969 128.917969 L 149.730469 126.359375 L 147.589844 125.222656 "/>
<path style="fill:none;stroke-width:9;stroke-linecap:round;stroke-linejoin:round;stroke:rgb(75.686275%,70.980392%,61.568627%);stroke-opacity:1;stroke-miterlimit:10;" d="M 166.984375 135.535156 L 163.652344 133.761719 L 154.542969 128.917969 "/>
<path style="fill:none;stroke-width:9;stroke-linecap:round;stroke-linejoin:round;stroke:rgb(75.686275%,70.980392%,61.568627%);stroke-opacity:1;stroke-miterlimit:10;" d="M 122.273438 242.558594 L 121.097656 252.625 L 120.699219 254.796875 L 119.925781 256.871094 L 118.433594 258.316406 L 115.699219 259.214844 "/>
<path style="fill:none;stroke-width:9;stroke-linecap:round;stroke-linejoin:round;stroke:rgb(75.686275%,70.980392%,61.568627%);stroke-opacity:1;stroke-miterlimit:10;" d="M 217.546875 43.820313 L 227.527344 26.019531 "/>
<path style="fill:none;stroke-width:9;stroke-linecap:round;stroke-linejoin:round;stroke:rgb(75.686275%,70.980392%,61.568627%);stroke-opacity:1;stroke-miterlimit:10;" d="M 243.238281 152.3125 L 240.402344 157.332031 L 239.652344 160.363281 L 234.179688 172.210938 "/>
<path style="fill:none;stroke-width:9;stroke-linecap:round;stroke-linejoin:round;stroke:rgb(75.686275%,70.980392%,61.568627%);stroke-opacity:1;stroke-miterlimit:10;" d="M 227.527344 26.019531 L 238.097656 6.695313 "/>
<path style="fill:none;stroke-width:9;stroke-linecap:round;stroke-linejoin:round;stroke:rgb(75.686275%,70.980392%,61.568627%);stroke-opacity:1;stroke-miterlimit:10;" d="M 143.257813 177.726563 L 141.515625 183.273438 L 137.738281 200.203125 "/>
<path style="fill:none;stroke-width:9;stroke-linecap:round;stroke-linejoin:round;stroke:rgb(75.686275%,70.980392%,61.568627%);stroke-opacity:1;stroke-miterlimit:10;" d="M 155.894531 157.445313 L 153.175781 159.066406 L 151.429688 161.984375 L 144.160156 174.140625 L 143.257813 177.726563 "/>
<path style="fill:none;stroke-width:9;stroke-linecap:round;stroke-linejoin:round;stroke:rgb(75.686275%,70.980392%,61.568627%);stroke-opacity:1;stroke-miterlimit:10;" d="M 155.894531 157.445313 L 161.792969 144.546875 L 165.648438 137.851563 L 166.984375 135.535156 "/>
<path style="fill:none;stroke-width:9;stroke-linecap:round;stroke-linejoin:round;stroke:rgb(75.686275%,70.980392%,61.568627%);stroke-opacity:1;stroke-miterlimit:10;" d="M 234.179688 172.210938 L 232.324219 175.710938 L 229.125 182.136719 L 228.65625 185.082031 L 227.546875 193.054688 L 227.066406 196.535156 "/>
<path style="fill:none;stroke-width:9;stroke-linecap:round;stroke-linejoin:round;stroke:rgb(75.686275%,70.980392%,61.568627%);stroke-opacity:1;stroke-miterlimit:10;" d="M 197.742188 79.804688 L 217.546875 43.820313 "/>
<path style="fill:none;stroke-width:9;stroke-linecap:round;stroke-linejoin:round;stroke:rgb(75.686275%,70.980392%,61.568627%);stroke-opacity:1;stroke-miterlimit:10;" d="M 263.089844 115.785156 L 253.335938 134.03125 L 249.691406 140.578125 L 246.863281 145.71875 L 243.238281 152.3125 "/>
<path style="fill:none;stroke-width:9;stroke-linecap:round;stroke-linejoin:round;stroke:rgb(75.686275%,70.980392%,61.568627%);stroke-opacity:1;stroke-miterlimit:10;" d="M 137.738281 200.203125 L 136.375 204.90625 L 134.773438 208.910156 L 132.171875 215.308594 L 129.972656 220.105469 L 127.773438 224.507813 L 123.414063 235.148438 L 122.34375 238.917969 L 122.273438 242.558594 "/>
<path style="fill:none;stroke-width:9;stroke-linecap:round;stroke-linejoin:round;stroke:rgb(75.686275%,70.980392%,61.568627%);stroke-opacity:1;stroke-miterlimit:10;" d="M 238.097656 6.695313 L 247.296875 -10 "/>
<path style="fill:none;stroke-width:9;stroke-linecap:round;stroke-linejoin:round;stroke:rgb(75.686275%,70.980392%,61.568627%);stroke-opacity:1;stroke-miterlimit:10;" d="M 166.984375 135.535156 L 168.179688 133.382813 L 177.863281 115.972656 L 187.8125 97.796875 L 197.742188 79.804688 "/>
<path style="fill:none;stroke-width:9;stroke-linecap:round;stroke-linejoin:round;stroke:rgb(75.686275%,70.980392%,61.568627%);stroke-opacity:1;stroke-miterlimit:10;" d="M 234.179688 172.210938 L 231.890625 170.996094 L 166.984375 135.535156 "/>
<path style="fill:none;stroke-width:10;stroke-linecap:round;stroke-linejoin:round;stroke:rgb(75.686275%,70.980392%,61.568627%);stroke-opacity:1;stroke-miterlimit:10;" d="M 227.066406 196.535156 L 225.347656 195.539063 L 222.003906 193.59375 "/>
<path style="fill:none;stroke-width:10;stroke-linecap:round;stroke-linejoin:round;stroke:rgb(75.686275%,70.980392%,61.568627%);stroke-opacity:1;stroke-miterlimit:10;" d="M 266 218.171875 L 229.152344 197.695313 L 227.066406 196.535156 "/>
<path style="fill:none;stroke-width:10;stroke-linecap:round;stroke-linejoin:round;stroke:rgb(75.686275%,70.980392%,61.568627%);stroke-opacity:1;stroke-miterlimit:10;" d="M 222.003906 193.59375 L 219.542969 192.179688 L 184.109375 172.625 L 169.085938 164.339844 L 158.550781 158.53125 L 155.894531 157.445313 "/>
<path style="fill:none;stroke-width:11;stroke-linecap:round;stroke-linejoin:round;stroke:rgb(86.666667%,62.352941%,6.666667%);stroke-opacity:1;stroke-miterlimit:10;" d="M 148.402344 88.28125 L 147.617188 94.386719 "/>
<path style="fill:none;stroke-width:11;stroke-linecap:round;stroke-linejoin:round;stroke:rgb(86.666667%,62.352941%,6.666667%);stroke-opacity:1;stroke-miterlimit:10;" d="M 127.242188 208.578125 L 123.484375 216.894531 L 122.183594 219.601563 "/>
<path style="fill:none;stroke-width:11;stroke-linecap:round;stroke-linejoin:round;stroke:rgb(86.666667%,62.352941%,6.666667%);stroke-opacity:1;stroke-miterlimit:10;" d="M 115.699219 259.214844 L 115.714844 253.75 L 116.972656 244.308594 "/>
<path style="fill:none;stroke-width:11;stroke-linecap:round;stroke-linejoin:round;stroke:rgb(86.666667%,62.352941%,6.666667%);stroke-opacity:1;stroke-miterlimit:10;" d="M 144.089844 150.347656 L 147.175781 129.308594 L 147.589844 125.222656 "/>
<path style="fill:none;stroke-width:11;stroke-linecap:round;stroke-linejoin:round;stroke:rgb(86.666667%,62.352941%,6.666667%);stroke-opacity:1;stroke-miterlimit:10;" d="M 122.183594 219.601563 L 118.589844 227.289063 L 116.152344 232.5625 L 113.949219 238.175781 L 113.167969 240.472656 L 112.40625 243.339844 "/>
<path style="fill:none;stroke-width:11;stroke-linecap:round;stroke-linejoin:round;stroke:rgb(86.666667%,62.352941%,6.666667%);stroke-opacity:1;stroke-miterlimit:10;" d="M 153.214844 55.097656 L 152.078125 60.542969 L 149.945313 76.066406 L 149.171875 82.269531 L 148.402344 88.28125 "/>
<path style="fill:none;stroke-width:11;stroke-linecap:round;stroke-linejoin:round;stroke:rgb(86.666667%,62.352941%,6.666667%);stroke-opacity:1;stroke-miterlimit:10;" d="M 147.617188 94.386719 L 146.996094 98.671875 L 146.371094 102.910156 L 144.261719 117.210938 L 142.613281 128.378906 L 140.660156 142.363281 L 139.820313 146.957031 "/>
<path style="fill:none;stroke-width:11;stroke-linecap:round;stroke-linejoin:round;stroke:rgb(86.666667%,62.352941%,6.666667%);stroke-opacity:1;stroke-miterlimit:10;" d="M 139.820313 146.957031 L 138.375 154.285156 L 137.28125 161.367188 L 134.972656 175.761719 L 133.679688 183.722656 L 132.753906 189.398438 L 131.644531 194.707031 L 129.75 201.617188 L 128.621094 204.992188 L 127.242188 208.578125 "/>
<path style="fill:none;stroke-width:11;stroke-linecap:round;stroke-linejoin:round;stroke:rgb(86.666667%,62.352941%,6.666667%);stroke-opacity:1;stroke-miterlimit:10;" d="M 147.589844 125.222656 L 148.324219 120.460938 L 150.773438 104.507813 L 151.367188 100.96875 L 153.773438 82.109375 L 154.375 78.308594 L 156.574219 61.507813 L 157.171875 57.308594 "/>
<path style="fill:none;stroke-width:11;stroke-linecap:round;stroke-linejoin:round;stroke:rgb(86.666667%,62.352941%,6.666667%);stroke-opacity:1;stroke-miterlimit:10;" d="M 157.171875 57.308594 L 159.226563 41.769531 L 163.375 13.707031 L 163.628906 11.417969 L 166.371094 -8.09375 L 166.789063 -12 "/>
<path style="fill:none;stroke-width:11;stroke-linecap:round;stroke-linejoin:round;stroke:rgb(86.666667%,62.352941%,6.666667%);stroke-opacity:1;stroke-miterlimit:10;" d="M 162.246094 -12 L 159.175781 10.726563 L 156.171875 33.507813 L 153.214844 55.097656 "/>
<path style="fill:none;stroke-width:11;stroke-linecap:round;stroke-linejoin:round;stroke:rgb(86.666667%,62.352941%,6.666667%);stroke-opacity:1;stroke-miterlimit:10;" d="M 116.972656 244.308594 L 117.972656 240.507813 L 119.371094 236.109375 L 121.175781 231.507813 L 123.972656 225.308594 L 126.574219 219.90625 L 130.171875 212.308594 L 131.972656 207.308594 L 133.773438 202.507813 L 135.171875 197.507813 L 136.171875 192.707031 L 137.773438 184.910156 L 139.773438 175.308594 L 141.570313 165.308594 L 143.417969 155.183594 L 144.089844 150.347656 "/>
<path style="fill:none;stroke-width:11;stroke-linecap:round;stroke-linejoin:round;stroke:rgb(86.666667%,62.352941%,6.666667%);stroke-opacity:1;stroke-miterlimit:10;" d="M 112.40625 243.339844 L 111.1875 249.808594 L 110.808594 252.585938 L 110.445313 256.105469 L 110.371094 258.667969 L 110.691406 267 "/>
<path style="fill:none;stroke-width:1;stroke-linecap:round;stroke-linejoin:round;stroke:rgb(100%,100%,100%);stroke-opacity:1;stroke-dasharray:2,3;stroke-miterlimit:10;" d="M 204.191406 38.703125 L 203.648438 38.398438 "/>
<path style="fill:none;stroke-width:1;stroke-linecap:round;stroke-linejoin:round;stroke:rgb(100%,100%,100%);stroke-opacity:1;stroke-dasharray:2,3;stroke-miterlimit:10;" d="M 186.15625 76.546875 L 185.5 76.464844 "/>
<path style="fill:none;stroke-width:1;stroke-linecap:round;stroke-linejoin:round;stroke:rgb(100%,100%,100%);stroke-opacity:1;stroke-dasharray:2,3;stroke-miterlimit:10;" d="M 186.511719 76.011719 L 188.351563 76.949219 L 188.488281 76.675781 "/>
<path style="fill:none;stroke-width:1;stroke-linecap:round;stroke-linejoin:round;stroke:rgb(100%,100%,100%);stroke-opacity:1;stroke-dasharray:2,3;stroke-miterlimit:10;" d="M 204.742188 39.023438 L 206.75 40.09375 L 206.941406 39.785156 "/>
<path style="fill:none;stroke-width:5;stroke-linecap:round;stroke-linejoin:round;stroke:rgb(75.686275%,70.980392%,61.568627%);stroke-opacity:1;stroke-miterlimit:10;" d="M 157.402344 210.273438 L 156.839844 212.667969 "/>
<path style="fill:none;stroke-width:5;stroke-linecap:round;stroke-linejoin:round;stroke:rgb(75.686275%,70.980392%,61.568627%);stroke-opacity:1;stroke-miterlimit:10;" d="M 182.394531 122.597656 L 180.195313 122.417969 L 173.824219 134.652344 L 173.054688 136.101563 "/>
<path style="fill:none;stroke-width:5;stroke-linecap:round;stroke-linejoin:round;stroke:rgb(75.686275%,70.980392%,61.568627%);stroke-opacity:1;stroke-miterlimit:10;" d="M 182.957031 121.53125 L 182.394531 122.597656 L 174.410156 136.980469 "/>
<path style="fill:none;stroke-width:5;stroke-linecap:round;stroke-linejoin:round;stroke:rgb(75.686275%,70.980392%,61.568627%);stroke-opacity:1;stroke-miterlimit:10;" d="M 229.273438 -6 L 228.554688 -4.699219 L 227.121094 -2.101563 L 225.707031 -1.078125 L 223.792969 1.941406 L 223.28125 5.011719 L 218.859375 13.015625 L 215.992188 16.042969 L 208.882813 28.859375 L 203.648438 38.398438 L 196.957031 50.59375 L 196.816406 54.246094 L 195.871094 56.902344 L 192.125 63.4375 L 190.722656 64.632813 L 187.175781 71.089844 L 187.207031 73.351563 L 185.5 76.464844 L 184.195313 78.847656 L 183.519531 81.601563 L 184.074219 83.023438 L 183.261719 84.789063 L 184.113281 87.863281 L 184.554688 94.015625 L 183.894531 95.027344 L 184.210938 100.234375 L 184.039063 101.371094 L 184.175781 103.230469 L 185.710938 107.035156 L 185.972656 117.871094 L 184.304688 118.976563 L 182.957031 121.53125 "/>
<path style="fill:none;stroke-width:5;stroke-linecap:round;stroke-linejoin:round;stroke:rgb(75.686275%,70.980392%,61.568627%);stroke-opacity:1;stroke-miterlimit:10;" d="M 165.058594 159.707031 L 165.8125 158.964844 "/>
<path style="fill:none;stroke-width:5;stroke-linecap:round;stroke-linejoin:round;stroke:rgb(75.686275%,70.980392%,61.568627%);stroke-opacity:1;stroke-miterlimit:10;" d="M 154.550781 227.566406 L 155.886719 227.628906 L 155.871094 228.246094 "/>
<path style="fill:none;stroke-width:5;stroke-linecap:round;stroke-linejoin:round;stroke:rgb(75.686275%,70.980392%,61.568627%);stroke-opacity:1;stroke-miterlimit:10;" d="M 161.738281 163.835938 L 162.996094 164.285156 L 162.855469 165.804688 L 165.867188 166.191406 L 165.710938 167.222656 "/>
<path style="fill:none;stroke-width:5;stroke-linecap:round;stroke-linejoin:round;stroke:rgb(75.686275%,70.980392%,61.568627%);stroke-opacity:1;stroke-miterlimit:10;" d="M 158.402344 192.382813 L 158.078125 194.445313 L 159.027344 195.59375 L 161.121094 198.140625 L 160.953125 199.390625 L 160.773438 200.421875 "/>
<path style="fill:none;stroke-width:5;stroke-linecap:round;stroke-linejoin:round;stroke:rgb(75.686275%,70.980392%,61.568627%);stroke-opacity:1;stroke-miterlimit:10;" d="M 165.710938 167.222656 L 164.527344 175.003906 L 163.625 176.046875 "/>
<path style="fill:none;stroke-width:5;stroke-linecap:round;stroke-linejoin:round;stroke:rgb(75.686275%,70.980392%,61.568627%);stroke-opacity:1;stroke-miterlimit:10;" d="M 160.773438 200.421875 L 159.886719 206.015625 L 158.601563 209.835938 L 157.402344 210.273438 "/>
<path style="fill:none;stroke-width:5;stroke-linecap:round;stroke-linejoin:round;stroke:rgb(75.686275%,70.980392%,61.568627%);stroke-opacity:1;stroke-miterlimit:10;" d="M 158.539063 198.367188 L 156.800781 207.957031 L 157.402344 210.273438 "/>
<path style="fill:none;stroke-width:5;stroke-linecap:round;stroke-linejoin:round;stroke:rgb(75.686275%,70.980392%,61.568627%);stroke-opacity:1;stroke-miterlimit:10;" d="M 162.328125 180.941406 L 160.421875 192.230469 L 159.867188 193.390625 L 159.738281 193.726563 "/>
<path style="fill:none;stroke-width:5;stroke-linecap:round;stroke-linejoin:round;stroke:rgb(75.686275%,70.980392%,61.568627%);stroke-opacity:1;stroke-miterlimit:10;" d="M 163.625 176.046875 L 162.949219 176.832031 L 162.757813 178.097656 L 162.328125 180.941406 L 159.710938 184.648438 L 158.453125 192.039063 L 158.402344 192.382813 "/>
<path style="fill:none;stroke-width:5;stroke-linecap:round;stroke-linejoin:round;stroke:rgb(75.686275%,70.980392%,61.568627%);stroke-opacity:1;stroke-miterlimit:10;" d="M 173.054688 136.101563 L 170.835938 140.273438 L 167.328125 146.695313 L 166.464844 148.738281 L 165.855469 150.449219 L 164.476563 158.585938 L 165.230469 158.800781 "/>
<path style="fill:none;stroke-width:5;stroke-linecap:round;stroke-linejoin:round;stroke:rgb(75.686275%,70.980392%,61.568627%);stroke-opacity:1;stroke-miterlimit:10;" d="M 156.839844 212.667969 L 155.945313 218.175781 L 155.035156 218.683594 L 154.980469 220.28125 L 154.71875 224.710938 L 154.550781 227.566406 L 153.636719 228.09375 L 153.292969 233.335938 L 155.496094 233.464844 L 155.269531 237.832031 L 155.761719 240.03125 "/>
<path style="fill:none;stroke-width:5;stroke-linecap:round;stroke-linejoin:round;stroke:rgb(75.686275%,70.980392%,61.568627%);stroke-opacity:1;stroke-miterlimit:10;" d="M 174.410156 136.980469 L 171.339844 142.515625 L 169.011719 146.550781 L 168.265625 148.160156 L 167.738281 149.792969 L 167.285156 151.90625 L 166.921875 154.28125 L 166.488281 156.566406 L 165.8125 158.964844 L 166.851563 159.261719 L 165.933594 165.699219 L 165.867188 166.191406 "/>
<path style="fill:none;stroke-width:6;stroke-linecap:round;stroke-linejoin:round;stroke:rgb(100%,100%,100%);stroke-opacity:1;stroke-miterlimit:10;" d="M 81.265625 225.464844 L 79.898438 225.367188 "/>
<path style="fill:none;stroke-width:6;stroke-linecap:round;stroke-linejoin:round;stroke:rgb(100%,100%,100%);stroke-opacity:1;stroke-miterlimit:10;" d="M 213.710938 135.683594 L 216.101563 131.421875 "/>
<path style="fill:none;stroke-width:6;stroke-linecap:round;stroke-linejoin:round;stroke:rgb(100%,100%,100%);stroke-opacity:1;stroke-miterlimit:10;" d="M 246.128906 83.113281 L 247.363281 80.957031 L 248.960938 78.15625 "/>
<path style="fill:none;stroke-width:6;stroke-linecap:round;stroke-linejoin:round;stroke:rgb(100%,100%,100%);stroke-opacity:1;stroke-miterlimit:10;" d="M 233.800781 99.660156 L 232.480469 101.996094 L 230.976563 104.65625 "/>
<path style="fill:none;stroke-width:6;stroke-linecap:round;stroke-linejoin:round;stroke:rgb(100%,100%,100%);stroke-opacity:1;stroke-miterlimit:10;" d="M 245.972656 76.5625 L 248.960938 78.15625 L 253.863281 80.765625 "/>
<path style="fill:none;stroke-width:6;stroke-linecap:round;stroke-linejoin:round;stroke:rgb(100%,100%,100%);stroke-opacity:1;stroke-miterlimit:10;" d="M 217.636719 132.285156 L 229.371094 138.871094 L 228.550781 140.328125 L 226.941406 143.195313 "/>
<path style="fill:none;stroke-width:6;stroke-linecap:round;stroke-linejoin:round;stroke:rgb(100%,100%,100%);stroke-opacity:1;stroke-miterlimit:10;" d="M 216.101563 131.421875 L 217.636719 132.285156 L 221.683594 125.082031 L 211.183594 119.183594 "/>
<path style="fill:none;stroke-width:6;stroke-linecap:round;stroke-linejoin:round;stroke:rgb(100%,100%,100%);stroke-opacity:1;stroke-miterlimit:10;" d="M 236.230469 101 L 234.933594 103.347656 L 234.164063 104.746094 L 246.492188 111.535156 L 247.253906 110.148438 L 248.558594 107.785156 "/>
<path style="fill:none;stroke-width:6;stroke-linecap:round;stroke-linejoin:round;stroke:rgb(100%,100%,100%);stroke-opacity:1;stroke-miterlimit:10;" d="M 229.835938 97.476563 L 231.007813 95.386719 L 233.625 90.726563 L 238.8125 93.636719 L 237.527344 95.824219 L 249.027344 102.273438 L 247.75 104.6875 L 246.660156 106.742188 "/>
<path style="fill:none;stroke-width:6;stroke-linecap:round;stroke-linejoin:round;stroke:rgb(100%,100%,100%);stroke-opacity:1;stroke-miterlimit:10;" d="M 81.464844 241.957031 L 84 242.789063 L 107.773438 242.707031 L 109.390625 242.804688 L 112.40625 243.339844 L 116.972656 244.308594 "/>
<path style="fill:none;stroke-width:6;stroke-linecap:round;stroke-linejoin:round;stroke:rgb(100%,100%,100%);stroke-opacity:1;stroke-miterlimit:10;" d="M 82.988281 205.945313 L 81.265625 225.464844 L 80.164063 240.457031 L 81.464844 241.957031 "/>
<path style="fill:none;stroke-width:6;stroke-linecap:round;stroke-linejoin:round;stroke:rgb(100%,100%,100%);stroke-opacity:1;stroke-miterlimit:10;" d="M 122.183594 219.601563 L 120.066406 221.03125 L 118.265625 221.554688 L 116.859375 221.613281 L 115.117188 220.675781 L 114.347656 219.757813 L 114.125 218.535156 L 114.417969 217.238281 L 115.574219 215.722656 L 119.570313 210.289063 L 119.871094 209.148438 L 119.316406 207.933594 L 111.1875 207.34375 L 82.988281 205.945313 "/>
<path style="fill:none;stroke-width:6;stroke-linecap:round;stroke-linejoin:round;stroke:rgb(100%,100%,100%);stroke-opacity:1;stroke-miterlimit:10;" d="M 157.132813 -9 L 156.394531 -3.527344 L 154.386719 10.125 L 152.394531 26.671875 L 147.445313 59.050781 L 146.371094 67.507813 L 145.855469 72.175781 L 146.492188 73.621094 L 147.457031 74.292969 L 149.945313 76.066406 "/>
<path style="fill:none;stroke-width:8;stroke-linecap:round;stroke-linejoin:round;stroke:rgb(100%,76.470588%,27.058824%);stroke-opacity:1;stroke-miterlimit:10;" d="M 139.820313 146.957031 L 140.640625 148.078125 L 141.660156 148.972656 L 143.125 149.882813 L 144.089844 150.347656 L 146.074219 150.621094 L 148.148438 150.90625 "/>
<path style="fill:none;stroke-width:8;stroke-linecap:round;stroke-linejoin:round;stroke:rgb(100%,76.470588%,27.058824%);stroke-opacity:1;stroke-miterlimit:10;" d="M 148.148438 150.90625 L 155.894531 157.445313 "/>
<path style="fill:none;stroke-width:8;stroke-linecap:round;stroke-linejoin:round;stroke:rgb(100%,76.470588%,27.058824%);stroke-opacity:1;stroke-miterlimit:10;" d="M 148.148438 150.90625 L 150.472656 154.507813 L 151.40625 156.941406 L 151.667969 158.359375 L 151.675781 159.921875 L 151.429688 161.984375 "/>
<path style="fill:none;stroke-width:8;stroke-linecap:round;stroke-linejoin:round;stroke:rgb(100%,76.470588%,27.058824%);stroke-opacity:1;stroke-miterlimit:10;" d="M 148.148438 150.90625 L 150.191406 150.605469 L 155.441406 149.007813 L 157.753906 147.851563 L 159.589844 146.59375 L 161.792969 144.546875 "/>
<path style="fill:none;stroke-width:3;stroke-linecap:round;stroke-linejoin:round;stroke:rgb(98.039216%,98.039216%,96.078431%);stroke-opacity:1;stroke-miterlimit:10;" d="M 164.019531 165.5625 L 164.441406 163.078125 "/>
<path style="fill:none;stroke-width:3;stroke-linecap:round;stroke-linejoin:round;stroke:rgb(98.039216%,98.039216%,96.078431%);stroke-opacity:1;stroke-miterlimit:10;" d="M 159.738281 193.726563 L 159.027344 195.59375 L 158.554688 198.210938 L 158.539063 198.367188 "/>
<path style="fill:none;stroke-width:6;stroke-linecap:round;stroke-linejoin:round;stroke:rgb(100%,100%,100%);stroke-opacity:1;stroke-miterlimit:10;" d="M 153.214844 55.097656 L 157.171875 57.308594 "/>
<path style="fill:none;stroke-width:6;stroke-linecap:round;stroke-linejoin:round;stroke:rgb(100%,100%,100%);stroke-opacity:1;stroke-miterlimit:10;" d="M 219.097656 252.019531 L 220.234375 255.691406 L 220.753906 257.574219 "/>
<path style="fill:none;stroke-width:6;stroke-linecap:round;stroke-linejoin:round;stroke:rgb(100%,100%,100%);stroke-opacity:1;stroke-miterlimit:10;" d="M 147.617188 94.386719 L 147.910156 96.503906 L 148.203125 97.890625 L 148.53125 98.917969 L 149.941406 100.480469 L 151.367188 100.96875 "/>
<path style="fill:none;stroke-width:6;stroke-linecap:round;stroke-linejoin:round;stroke:rgb(100%,100%,100%);stroke-opacity:1;stroke-miterlimit:10;" d="M 161.09375 213.226563 L 159.925781 230.765625 L 159.179688 239.046875 L 158.921875 241.75 "/>
<path style="fill:none;stroke-width:6;stroke-linecap:round;stroke-linejoin:round;stroke:rgb(100%,100%,100%);stroke-opacity:1;stroke-miterlimit:10;" d="M 151.367188 100.96875 L 153.027344 101.90625 L 177.863281 115.972656 "/>
<path style="fill:none;stroke-width:6;stroke-linecap:round;stroke-linejoin:round;stroke:rgb(100%,100%,100%);stroke-opacity:1;stroke-miterlimit:10;" d="M 240.402344 157.332031 L 238.125 159.546875 L 231.890625 170.996094 L 231.402344 171.925781 L 230.273438 174.0625 L 228.652344 176.695313 L 221.164063 189.363281 L 219.542969 192.179688 "/>
<path style="fill:none;stroke-width:6;stroke-linecap:round;stroke-linejoin:round;stroke:rgb(100%,100%,100%);stroke-opacity:1;stroke-miterlimit:10;" d="M 157.171875 57.308594 L 158.753906 58.1875 L 189.59375 75.296875 L 197.742188 79.804688 "/>
<path style="fill:none;stroke-width:6;stroke-linecap:round;stroke-linejoin:round;stroke:rgb(100%,100%,100%);stroke-opacity:1;stroke-miterlimit:10;" d="M 184.109375 172.625 L 172.300781 194.027344 L 161.09375 213.226563 "/>
<path style="fill:none;stroke-width:6;stroke-linecap:round;stroke-linejoin:round;stroke:rgb(100%,100%,100%);stroke-opacity:1;stroke-miterlimit:10;" d="M 256.460938 240.59375 L 224.78125 222.824219 L 222.921875 221.78125 L 209.882813 214.667969 "/>
<path style="fill:none;stroke-width:6;stroke-linecap:round;stroke-linejoin:round;stroke:rgb(100%,100%,100%);stroke-opacity:1;stroke-miterlimit:10;" d="M 196.25 240.992188 L 198.929688 234.042969 L 208.476563 217.148438 L 209.882813 214.667969 L 220.546875 196.125 L 222.003906 193.59375 "/>
<path style="fill:none;stroke-width:6;stroke-linecap:round;stroke-linejoin:round;stroke:rgb(100%,100%,100%);stroke-opacity:1;stroke-miterlimit:10;" d="M 159.226563 41.769531 L 160.070313 40.15625 L 160.929688 39.125 L 161.6875 38.46875 L 162.824219 37.921875 L 164.046875 37.445313 L 165.363281 37.542969 L 166.894531 38.144531 L 207.644531 61.8125 "/>
<path style="fill:none;stroke-width:6;stroke-linecap:round;stroke-linejoin:round;stroke:rgb(100%,100%,100%);stroke-opacity:1;stroke-miterlimit:10;" d="M 217.546875 43.820313 L 208.050781 38.507813 L 204.957031 36.769531 L 165.273438 14.765625 L 163.375 13.707031 "/>
<path style="fill:none;stroke-width:6;stroke-linecap:round;stroke-linejoin:round;stroke:rgb(100%,100%,100%);stroke-opacity:1;stroke-miterlimit:10;" d="M 227.066406 196.535156 L 226.394531 199.671875 L 224.546875 206.761719 L 222.921875 221.78125 L 220.527344 240.753906 L 219.097656 252.019531 L 218.125 260.703125 "/>
<path style="fill:none;stroke-width:6;stroke-linecap:round;stroke-linejoin:round;stroke:rgb(100%,100%,100%);stroke-opacity:1;stroke-miterlimit:10;" d="M 137.738281 200.203125 L 161.09375 213.226563 L 198.929688 234.042969 "/>
<path style="fill:none;stroke-width:6;stroke-linecap:round;stroke-linejoin:round;stroke:rgb(100%,100%,100%);stroke-opacity:1;stroke-miterlimit:10;" d="M 166.371094 -8.09375 L 227.527344 26.019531 "/>
<path style="fill:none;stroke-width:6;stroke-linecap:round;stroke-linejoin:round;stroke:rgb(100%,100%,100%);stroke-opacity:1;stroke-miterlimit:10;" d="M 238.097656 6.695313 L 210.539063 -9 "/>
<path style="fill:none;stroke-width:6;stroke-linecap:round;stroke-linejoin:round;stroke:rgb(100%,100%,100%);stroke-opacity:1;stroke-miterlimit:10;" d="M 264 46.144531 L 227.527344 26.019531 "/>
<path style="fill:none;stroke-width:6;stroke-linecap:round;stroke-linejoin:round;stroke:rgb(100%,100%,100%);stroke-opacity:1;stroke-miterlimit:10;" d="M 197.742188 79.804688 L 229.835938 97.476563 L 233.800781 99.660156 L 236.230469 101 L 246.660156 106.742188 L 248.558594 107.785156 L 263.089844 115.785156 "/>
<path style="fill:none;stroke-width:6;stroke-linecap:round;stroke-linejoin:round;stroke:rgb(100%,100%,100%);stroke-opacity:1;stroke-miterlimit:10;" d="M 195.957031 264 L 195.992188 261.011719 L 196.25 240.992188 "/>
<path style="fill:none;stroke-width:6;stroke-linecap:round;stroke-linejoin:round;stroke:rgb(100%,100%,100%);stroke-opacity:1;stroke-miterlimit:10;" d="M 264 188.828125 L 234.179688 172.210938 "/>
<path style="fill:none;stroke-width:6;stroke-linecap:round;stroke-linejoin:round;stroke:rgb(100%,100%,100%);stroke-opacity:1;stroke-miterlimit:10;" d="M 209.882813 214.667969 L 172.300781 194.027344 L 147.597656 180.164063 L 143.257813 177.726563 "/>
<path style="fill:none;stroke-width:6;stroke-linecap:round;stroke-linejoin:round;stroke:rgb(100%,100%,100%);stroke-opacity:1;stroke-miterlimit:10;" d="M 256.460938 240.59375 L 222.871094 240.765625 L 220.527344 240.753906 L 211.9375 240.808594 L 196.25 240.992188 L 162.421875 241.503906 L 158.921875 241.75 L 156.433594 242.585938 L 131.328125 242.636719 L 126.285156 242.652344 L 124.679688 242.660156 L 122.273438 242.558594 "/>
<path style="fill:none;stroke-width:6;stroke-linecap:round;stroke-linejoin:round;stroke:rgb(100%,100%,100%);stroke-opacity:1;stroke-miterlimit:10;" d="M 217.546875 43.820313 L 264 69.550781 "/>
<path style="fill:none;stroke-width:6;stroke-linecap:round;stroke-linejoin:round;stroke:rgb(100%,100%,100%);stroke-opacity:1;stroke-miterlimit:10;" d="M 264 93.007813 L 257.773438 89.5625 L 252.605469 86.699219 L 246.128906 83.113281 L 244.972656 82.472656 L 207.644531 61.8125 "/>
<path style="fill:none;stroke-width:6;stroke-linecap:round;stroke-linejoin:round;stroke:rgb(100%,100%,100%);stroke-opacity:1;stroke-miterlimit:10;" d="M 264 139.988281 L 256.210938 135.640625 L 253.335938 134.03125 L 239.738281 126.511719 L 238.140625 125.628906 L 232.816406 122.679688 L 227.832031 119.925781 L 187.8125 97.796875 L 156.136719 79.335938 L 154.375 78.308594 L 149.945313 76.066406 "/>
<path style="fill:none;stroke-width:6;stroke-linecap:round;stroke-linejoin:round;stroke:rgb(100%,100%,100%);stroke-opacity:1;stroke-miterlimit:10;" d="M 177.863281 115.972656 L 186.039063 120.507813 L 213.710938 135.683594 L 226.941406 143.195313 L 243.238281 152.3125 L 245.640625 153.644531 L 264 163.820313 "/>
<path style="fill:none;stroke-width:6;stroke-linecap:round;stroke-linejoin:round;stroke:rgb(100%,100%,100%);stroke-opacity:1;stroke-miterlimit:10;" d="M 158.921875 241.75 L 157.707031 260.859375 L 157.511719 264 "/>
<path style="fill:none;stroke-width:6;stroke-linecap:round;stroke-linejoin:round;stroke:rgb(100%,100%,100%);stroke-opacity:1;stroke-miterlimit:10;" d="M 238.097656 6.695313 L 264 20.984375 "/>
<path style="fill:none;stroke-width:7;stroke-linecap:round;stroke-linejoin:round;stroke:rgb(100%,99.215686%,54.509804%);stroke-opacity:1;stroke-miterlimit:10;" d="M 147.589844 125.222656 L 146.308594 125.011719 L 145.132813 125.21875 L 144.183594 125.691406 L 143.460938 126.59375 L 142.613281 128.378906 "/>
<path style="fill:none;stroke-width:7;stroke-linecap:round;stroke-linejoin:round;stroke:rgb(100%,99.215686%,54.509804%);stroke-opacity:1;stroke-miterlimit:10;" d="M 154.542969 128.917969 L 149.730469 126.359375 L 147.589844 125.222656 "/>
<path style="fill:none;stroke-width:7;stroke-linecap:round;stroke-linejoin:round;stroke:rgb(100%,99.215686%,54.509804%);stroke-opacity:1;stroke-miterlimit:10;" d="M 166.984375 135.535156 L 163.652344 133.761719 L 154.542969 128.917969 "/>
<path style="fill:none;stroke-width:7;stroke-linecap:round;stroke-linejoin:round;stroke:rgb(100%,99.215686%,54.509804%);stroke-opacity:1;stroke-miterlimit:10;" d="M 122.273438 242.558594 L 121.097656 252.625 L 120.699219 254.796875 L 119.925781 256.871094 L 118.433594 258.316406 L 115.699219 259.214844 "/>
<path style="fill:none;stroke-width:7;stroke-linecap:round;stroke-linejoin:round;stroke:rgb(100%,99.215686%,54.509804%);stroke-opacity:1;stroke-miterlimit:10;" d="M 217.546875 43.820313 L 227.527344 26.019531 "/>
<path style="fill:none;stroke-width:7;stroke-linecap:round;stroke-linejoin:round;stroke:rgb(100%,99.215686%,54.509804%);stroke-opacity:1;stroke-miterlimit:10;" d="M 243.238281 152.3125 L 240.402344 157.332031 L 239.652344 160.363281 L 234.179688 172.210938 "/>
<path style="fill:none;stroke-width:7;stroke-linecap:round;stroke-linejoin:round;stroke:rgb(100%,99.215686%,54.509804%);stroke-opacity:1;stroke-miterlimit:10;" d="M 227.527344 26.019531 L 238.097656 6.695313 "/>
<path style="fill:none;stroke-width:7;stroke-linecap:round;stroke-linejoin:round;stroke:rgb(100%,99.215686%,54.509804%);stroke-opacity:1;stroke-miterlimit:10;" d="M 143.257813 177.726563 L 141.515625 183.273438 L 137.738281 200.203125 "/>
<path style="fill:none;stroke-width:7;stroke-linecap:round;stroke-linejoin:round;stroke:rgb(100%,99.215686%,54.509804%);stroke-opacity:1;stroke-miterlimit:10;" d="M 155.894531 157.445313 L 153.175781 159.066406 L 151.429688 161.984375 L 144.160156 174.140625 L 143.257813 177.726563 "/>
<path style="fill:none;stroke-width:7;stroke-linecap:round;stroke-linejoin:round;stroke:rgb(100%,99.215686%,54.509804%);stroke-opacity:1;stroke-miterlimit:10;" d="M 155.894531 157.445313 L 161.792969 144.546875 L 165.648438 137.851563 L 166.984375 135.535156 "/>
<path style="fill:none;stroke-width:7;stroke-linecap:round;stroke-linejoin:round;stroke:rgb(100%,99.215686%,54.509804%);stroke-opacity:1;stroke-miterlimit:10;" d="M 234.179688 172.210938 L 232.324219 175.710938 L 229.125 182.136719 L 228.65625 185.082031 L 227.546875 193.054688 L 227.066406 196.535156 "/>
<path style="fill:none;stroke-width:7;stroke-linecap:round;stroke-linejoin:round;stroke:rgb(100%,99.215686%,54.509804%);stroke-opacity:1;stroke-miterlimit:10;" d="M 197.742188 79.804688 L 217.546875 43.820313 "/>
<path style="fill:none;stroke-width:7;stroke-linecap:round;stroke-linejoin:round;stroke:rgb(100%,99.215686%,54.509804%);stroke-opacity:1;stroke-miterlimit:10;" d="M 263.089844 115.785156 L 253.335938 134.03125 L 249.691406 140.578125 L 246.863281 145.71875 L 243.238281 152.3125 "/>
<path style="fill:none;stroke-width:7;stroke-linecap:round;stroke-linejoin:round;stroke:rgb(100%,99.215686%,54.509804%);stroke-opacity:1;stroke-miterlimit:10;" d="M 137.738281 200.203125 L 136.375 204.90625 L 134.773438 208.910156 L 132.171875 215.308594 L 129.972656 220.105469 L 127.773438 224.507813 L 123.414063 235.148438 L 122.34375 238.917969 L 122.273438 242.558594 "/>
<path style="fill:none;stroke-width:7;stroke-linecap:round;stroke-linejoin:round;stroke:rgb(100%,99.215686%,54.509804%);stroke-opacity:1;stroke-miterlimit:10;" d="M 238.097656 6.695313 L 247.296875 -10 "/>
<path style="fill:none;stroke-width:7;stroke-linecap:round;stroke-linejoin:round;stroke:rgb(100%,99.215686%,54.509804%);stroke-opacity:1;stroke-miterlimit:10;" d="M 166.984375 135.535156 L 168.179688 133.382813 L 177.863281 115.972656 L 187.8125 97.796875 L 197.742188 79.804688 "/>
<path style="fill:none;stroke-width:7;stroke-linecap:round;stroke-linejoin:round;stroke:rgb(100%,99.215686%,54.509804%);stroke-opacity:1;stroke-miterlimit:10;" d="M 234.179688 172.210938 L 231.890625 170.996094 L 166.984375 135.535156 "/>
<path style="fill:none;stroke-width:8;stroke-linecap:round;stroke-linejoin:round;stroke:rgb(100%,99.215686%,54.509804%);stroke-opacity:1;stroke-miterlimit:10;" d="M 227.066406 196.535156 L 225.347656 195.539063 L 222.003906 193.59375 "/>
<path style="fill:none;stroke-width:8;stroke-linecap:round;stroke-linejoin:round;stroke:rgb(100%,99.215686%,54.509804%);stroke-opacity:1;stroke-miterlimit:10;" d="M 266 218.171875 L 229.152344 197.695313 L 227.066406 196.535156 "/>
<path style="fill:none;stroke-width:8;stroke-linecap:round;stroke-linejoin:round;stroke:rgb(100%,99.215686%,54.509804%);stroke-opacity:1;stroke-miterlimit:10;" d="M 222.003906 193.59375 L 219.542969 192.179688 L 184.109375 172.625 L 169.085938 164.339844 L 158.550781 158.53125 L 155.894531 157.445313 "/>
<path style="fill:none;stroke-width:9;stroke-linecap:round;stroke-linejoin:round;stroke:rgb(100%,76.470588%,27.058824%);stroke-opacity:1;stroke-miterlimit:10;" d="M 148.402344 88.28125 L 147.617188 94.386719 "/>
<path style="fill:none;stroke-width:9;stroke-linecap:round;stroke-linejoin:round;stroke:rgb(100%,76.470588%,27.058824%);stroke-opacity:1;stroke-miterlimit:10;" d="M 127.242188 208.578125 L 123.484375 216.894531 L 122.183594 219.601563 "/>
<path style="fill:none;stroke-width:9;stroke-linecap:round;stroke-linejoin:round;stroke:rgb(100%,76.470588%,27.058824%);stroke-opacity:1;stroke-miterlimit:10;" d="M 115.699219 259.214844 L 115.714844 253.75 L 116.972656 244.308594 "/>
<path style="fill:none;stroke-width:9;stroke-linecap:round;stroke-linejoin:round;stroke:rgb(100%,76.470588%,27.058824%);stroke-opacity:1;stroke-miterlimit:10;" d="M 144.089844 150.347656 L 147.175781 129.308594 L 147.589844 125.222656 "/>
<path style="fill:none;stroke-width:9;stroke-linecap:round;stroke-linejoin:round;stroke:rgb(100%,76.470588%,27.058824%);stroke-opacity:1;stroke-miterlimit:10;" d="M 122.183594 219.601563 L 118.589844 227.289063 L 116.152344 232.5625 L 113.949219 238.175781 L 113.167969 240.472656 L 112.40625 243.339844 "/>
<path style="fill:none;stroke-width:9;stroke-linecap:round;stroke-linejoin:round;stroke:rgb(100%,76.470588%,27.058824%);stroke-opacity:1;stroke-miterlimit:10;" d="M 153.214844 55.097656 L 152.078125 60.542969 L 149.945313 76.066406 L 149.171875 82.269531 L 148.402344 88.28125 "/>
<path style="fill:none;stroke-width:9;stroke-linecap:round;stroke-linejoin:round;stroke:rgb(100%,76.470588%,27.058824%);stroke-opacity:1;stroke-miterlimit:10;" d="M 147.617188 94.386719 L 146.996094 98.671875 L 146.371094 102.910156 L 144.261719 117.210938 L 142.613281 128.378906 L 140.660156 142.363281 L 139.820313 146.957031 "/>
<path style="fill:none;stroke-width:9;stroke-linecap:round;stroke-linejoin:round;stroke:rgb(100%,76.470588%,27.058824%);stroke-opacity:1;stroke-miterlimit:10;" d="M 139.820313 146.957031 L 138.375 154.285156 L 137.28125 161.367188 L 134.972656 175.761719 L 133.679688 183.722656 L 132.753906 189.398438 L 131.644531 194.707031 L 129.75 201.617188 L 128.621094 204.992188 L 127.242188 208.578125 "/>
<path style="fill:none;stroke-width:9;stroke-linecap:round;stroke-linejoin:round;stroke:rgb(100%,76.470588%,27.058824%);stroke-opacity:1;stroke-miterlimit:10;" d="M 147.589844 125.222656 L 148.324219 120.460938 L 150.773438 104.507813 L 151.367188 100.96875 L 153.773438 82.109375 L 154.375 78.308594 L 156.574219 61.507813 L 157.171875 57.308594 "/>
<path style="fill:none;stroke-width:9;stroke-linecap:round;stroke-linejoin:round;stroke:rgb(100%,76.470588%,27.058824%);stroke-opacity:1;stroke-miterlimit:10;" d="M 157.171875 57.308594 L 159.226563 41.769531 L 163.375 13.707031 L 163.628906 11.417969 L 166.371094 -8.09375 L 166.789063 -12 "/>
<path style="fill:none;stroke-width:9;stroke-linecap:round;stroke-linejoin:round;stroke:rgb(100%,76.470588%,27.058824%);stroke-opacity:1;stroke-miterlimit:10;" d="M 162.246094 -12 L 159.175781 10.726563 L 156.171875 33.507813 L 153.214844 55.097656 "/>
<path style="fill:none;stroke-width:9;stroke-linecap:round;stroke-linejoin:round;stroke:rgb(100%,76.470588%,27.058824%);stroke-opacity:1;stroke-miterlimit:10;" d="M 116.972656 244.308594 L 117.972656 240.507813 L 119.371094 236.109375 L 121.175781 231.507813 L 123.972656 225.308594 L 126.574219 219.90625 L 130.171875 212.308594 L 131.972656 207.308594 L 133.773438 202.507813 L 135.171875 197.507813 L 136.171875 192.707031 L 137.773438 184.910156 L 139.773438 175.308594 L 141.570313 165.308594 L 143.417969 155.183594 L 144.089844 150.347656 "/>
<path style="fill:none;stroke-width:9;stroke-linecap:round;stroke-linejoin:round;stroke:rgb(100%,76.470588%,27.058824%);stroke-opacity:1;stroke-miterlimit:10;" d="M 112.40625 243.339844 L 111.1875 249.808594 L 110.808594 252.585938 L 110.445313 256.105469 L 110.371094 258.667969 L 110.691406 267 "/>
<path style="fill:none;stroke-width:3;stroke-linecap:round;stroke-linejoin:round;stroke:rgb(98.039216%,98.039216%,96.078431%);stroke-opacity:1;stroke-miterlimit:10;" d="M 157.402344 210.273438 L 156.839844 212.667969 "/>
<path style="fill:none;stroke-width:3;stroke-linecap:round;stroke-linejoin:round;stroke:rgb(98.039216%,98.039216%,96.078431%);stroke-opacity:1;stroke-miterlimit:10;" d="M 182.394531 122.597656 L 180.195313 122.417969 L 173.824219 134.652344 L 173.054688 136.101563 "/>
<path style="fill:none;stroke-width:3;stroke-linecap:round;stroke-linejoin:round;stroke:rgb(98.039216%,98.039216%,96.078431%);stroke-opacity:1;stroke-miterlimit:10;" d="M 182.957031 121.53125 L 182.394531 122.597656 L 174.410156 136.980469 "/>
<path style="fill:none;stroke-width:3;stroke-linecap:round;stroke-linejoin:round;stroke:rgb(98.039216%,98.039216%,96.078431%);stroke-opacity:1;stroke-miterlimit:10;" d="M 229.273438 -6 L 228.554688 -4.699219 L 227.121094 -2.101563 L 225.707031 -1.078125 L 223.792969 1.941406 L 223.28125 5.011719 L 218.859375 13.015625 L 215.992188 16.042969 L 208.882813 28.859375 L 203.648438 38.398438 L 196.957031 50.59375 L 196.816406 54.246094 L 195.871094 56.902344 L 192.125 63.4375 L 190.722656 64.632813 L 187.175781 71.089844 L 187.207031 73.351563 L 185.5 76.464844 L 184.195313 78.847656 L 183.519531 81.601563 L 184.074219 83.023438 L 183.261719 84.789063 L 184.113281 87.863281 L 184.554688 94.015625 L 183.894531 95.027344 L 184.210938 100.234375 L 184.039063 101.371094 L 184.175781 103.230469 L 185.710938 107.035156 L 185.972656 117.871094 L 184.304688 118.976563 L 182.957031 121.53125 "/>
<path style="fill:none;stroke-width:8;stroke-linecap:butt;stroke-linejoin:round;stroke:rgb(53.333333%,53.333333%,53.333333%);stroke-opacity:1;stroke-miterlimit:10;" d="M 79.898438 225.367188 L 76.433594 225.046875 "/>
<path style="fill:none;stroke-width:3;stroke-linecap:round;stroke-linejoin:round;stroke:rgb(98.039216%,98.039216%,96.078431%);stroke-opacity:1;stroke-miterlimit:10;" d="M 165.058594 159.707031 L 165.8125 158.964844 "/>
<path style="fill:none;stroke-width:3;stroke-linecap:round;stroke-linejoin:round;stroke:rgb(98.039216%,98.039216%,96.078431%);stroke-opacity:1;stroke-miterlimit:10;" d="M 154.550781 227.566406 L 155.886719 227.628906 L 155.871094 228.246094 "/>
<path style="fill:none;stroke-width:3;stroke-linecap:round;stroke-linejoin:round;stroke:rgb(98.039216%,98.039216%,96.078431%);stroke-opacity:1;stroke-miterlimit:10;" d="M 161.738281 163.835938 L 162.996094 164.285156 L 162.855469 165.804688 L 165.867188 166.191406 L 165.710938 167.222656 "/>
<path style="fill:none;stroke-width:3;stroke-linecap:round;stroke-linejoin:round;stroke:rgb(98.039216%,98.039216%,96.078431%);stroke-opacity:1;stroke-miterlimit:10;" d="M 158.402344 192.382813 L 158.078125 194.445313 L 159.027344 195.59375 L 161.121094 198.140625 L 160.953125 199.390625 L 160.773438 200.421875 "/>
<path style="fill:none;stroke-width:3;stroke-linecap:round;stroke-linejoin:round;stroke:rgb(98.039216%,98.039216%,96.078431%);stroke-opacity:1;stroke-miterlimit:10;" d="M 165.710938 167.222656 L 164.527344 175.003906 L 163.625 176.046875 "/>
<path style="fill:none;stroke-width:3;stroke-linecap:round;stroke-linejoin:round;stroke:rgb(98.039216%,98.039216%,96.078431%);stroke-opacity:1;stroke-miterlimit:10;" d="M 160.773438 200.421875 L 159.886719 206.015625 L 158.601563 209.835938 L 157.402344 210.273438 "/>
<path style="fill:none;stroke-width:3;stroke-linecap:round;stroke-linejoin:round;stroke:rgb(98.039216%,98.039216%,96.078431%);stroke-opacity:1;stroke-miterlimit:10;" d="M 158.539063 198.367188 L 156.800781 207.957031 L 157.402344 210.273438 "/>
<path style="fill:none;stroke-width:3;stroke-linecap:round;stroke-linejoin:round;stroke:rgb(98.039216%,98.039216%,96.078431%);stroke-opacity:1;stroke-miterlimit:10;" d="M 162.328125 180.941406 L 160.421875 192.230469 L 159.867188 193.390625 L 159.738281 193.726563 "/>
<path style="fill:none;stroke-width:3;stroke-linecap:round;stroke-linejoin:round;stroke:rgb(98.039216%,98.039216%,96.078431%);stroke-opacity:1;stroke-miterlimit:10;" d="M 163.625 176.046875 L 162.949219 176.832031 L 162.757813 178.097656 L 162.328125 180.941406 L 159.710938 184.648438 L 158.453125 192.039063 L 158.402344 192.382813 "/>
<path style="fill:none;stroke-width:3;stroke-linecap:round;stroke-linejoin:round;stroke:rgb(98.039216%,98.039216%,96.078431%);stroke-opacity:1;stroke-miterlimit:10;" d="M 173.054688 136.101563 L 170.835938 140.273438 L 167.328125 146.695313 L 166.464844 148.738281 L 165.855469 150.449219 L 164.476563 158.585938 L 165.230469 158.800781 "/>
<path style="fill:none;stroke-width:3;stroke-linecap:round;stroke-linejoin:round;stroke:rgb(98.039216%,98.039216%,96.078431%);stroke-opacity:1;stroke-miterlimit:10;" d="M 156.839844 212.667969 L 155.945313 218.175781 L 155.035156 218.683594 L 154.980469 220.28125 L 154.71875 224.710938 L 154.550781 227.566406 L 153.636719 228.09375 L 153.292969 233.335938 L 155.496094 233.464844 L 155.269531 237.832031 L 155.761719 240.03125 "/>
<path style="fill:none;stroke-width:3;stroke-linecap:round;stroke-linejoin:round;stroke:rgb(98.039216%,98.039216%,96.078431%);stroke-opacity:1;stroke-miterlimit:10;" d="M 174.410156 136.980469 L 171.339844 142.515625 L 169.011719 146.550781 L 168.265625 148.160156 L 167.738281 149.792969 L 167.285156 151.90625 L 166.921875 154.28125 L 166.488281 156.566406 L 165.8125 158.964844 L 166.851563 159.261719 L 165.933594 165.699219 L 165.867188 166.191406 "/>
<path style="fill:none;stroke-width:6;stroke-linecap:round;stroke-linejoin:round;stroke:rgb(100%,100%,100%);stroke-opacity:1;stroke-miterlimit:10;" d="M 79.898438 225.367188 L 76.433594 225.046875 "/>
<path style="fill:none;stroke-width:3;stroke-linecap:round;stroke-linejoin:round;stroke:rgb(100%,100%,100%);stroke-opacity:1;stroke-miterlimit:10;" d="M 182.175781 73.984375 L 182.519531 73.046875 L 185.597656 74.15625 L 186.800781 70.828125 L 183.722656 69.71875 L 184.050781 68.8125 L 191.582031 71.53125 L 191.253906 72.4375 L 187.675781 71.140625 L 186.472656 74.46875 L 190.050781 75.765625 L 189.707031 76.703125 Z M 186.773438 67.65625 L 187.195313 66.875 L 192.460938 69.765625 L 192.039063 70.546875 Z M 184.710938 66.53125 L 185.132813 65.75 L 186.226563 66.34375 L 185.804688 67.125 Z M 192.75 63.886719 C 192.15625 63.472656 191.625 63.261719 191.15625 63.261719 C 190.679688 63.253906 190.296875 63.449219 190.015625 63.855469 C 189.746094 64.230469 189.695313 64.644531 189.859375 65.089844 C 190.027344 65.527344 190.40625 65.957031 191 66.371094 C 191.574219 66.777344 192.101563 66.988281 192.578125 66.996094 C 193.054688 67.007813 193.429688 66.824219 193.703125 66.449219 C 193.984375 66.042969 194.035156 65.617188 193.859375 65.167969 C 193.691406 64.722656 193.320313 64.292969 192.75 63.886719 Z M 195.15625 64.496094 C 196 65.089844 196.503906 65.699219 196.671875 66.324219 C 196.835938 66.941406 196.675781 67.597656 196.1875 68.292969 C 196.007813 68.542969 195.820313 68.769531 195.625 68.964844 C 195.425781 69.164063 195.207031 69.335938 194.96875 69.480469 L 194.1875 68.933594 C 194.46875 68.820313 194.710938 68.679688 194.921875 68.511719 C 195.128906 68.335938 195.304688 68.144531 195.453125 67.933594 C 195.785156 67.457031 195.898438 67.003906 195.796875 66.574219 C 195.691406 66.136719 195.363281 65.722656 194.8125 65.324219 L 194.390625 65.042969 C 194.566406 65.398438 194.644531 65.746094 194.625 66.089844 C 194.613281 66.425781 194.492188 66.753906 194.265625 67.074219 C 193.878906 67.628906 193.34375 67.910156 192.65625 67.917969 C 191.960938 67.917969 191.230469 67.652344 190.46875 67.121094 C 189.710938 66.582031 189.21875 65.988281 189 65.339844 C 188.773438 64.683594 188.851563 64.082031 189.234375 63.527344 C 189.464844 63.207031 189.730469 62.976563 190.03125 62.839844 C 190.335938 62.707031 190.6875 62.664063 191.09375 62.714844 L 190.34375 62.199219 L 190.84375 61.480469 Z M 195.933594 57.398438 L 199.105469 59.164063 L 198.667969 59.945313 L 195.527344 58.195313 C 195.027344 57.914063 194.613281 57.796875 194.277344 57.835938 C 193.933594 57.878906 193.664063 58.070313 193.464844 58.414063 C 193.238281 58.832031 193.207031 59.25 193.371094 59.664063 C 193.527344 60.070313 193.855469 60.414063 194.355469 60.695313 L 197.339844 62.351563 L 196.902344 63.132813 L 189.589844 59.070313 L 190.027344 58.289063 L 192.902344 59.882813 C 192.683594 59.519531 192.570313 59.171875 192.558594 58.835938 C 192.539063 58.492188 192.621094 58.15625 192.808594 57.820313 C 193.113281 57.28125 193.527344 56.972656 194.058594 56.898438 C 194.582031 56.828125 195.207031 56.992188 195.933594 57.398438 Z M 193.214844 51.519531 L 193.464844 50.566406 L 200.339844 52.378906 L 201.230469 48.988281 L 202.105469 49.222656 L 200.964844 53.566406 Z M 196.894531 46.5 L 197.316406 45.71875 L 202.597656 48.609375 L 202.175781 49.390625 Z M 194.847656 45.375 L 195.269531 44.59375 L 196.363281 45.1875 L 195.941406 45.96875 Z M 202.484375 41.292969 L 205.65625 43.042969 L 205.234375 43.824219 L 202.078125 42.089844 C 201.578125 41.820313 201.15625 41.707031 200.8125 41.746094 C 200.46875 41.789063 200.203125 41.980469 200.015625 42.324219 C 199.789063 42.753906 199.757813 43.167969 199.921875 43.574219 C 200.078125 43.972656 200.414063 44.308594 200.921875 44.589844 L 203.90625 46.230469 L 203.46875 47.027344 L 198.1875 44.136719 L 198.625 43.339844 L 199.453125 43.792969 C 199.234375 43.441406 199.121094 43.089844 199.109375 42.746094 C 199.089844 42.402344 199.171875 42.066406 199.359375 41.730469 C 199.664063 41.191406 200.074219 40.882813 200.59375 40.808594 C 201.117188 40.738281 201.746094 40.898438 202.484375 41.292969 Z M 205.898438 35.863281 L 206.320313 36.097656 L 204.351563 39.691406 C 204.96875 39.972656 205.507813 40.058594 205.976563 39.941406 C 206.445313 39.816406 206.820313 39.5 207.101563 38.988281 C 207.265625 38.6875 207.386719 38.375 207.460938 38.050781 C 207.53125 37.71875 207.570313 37.371094 207.570313 37.003906 L 208.367188 37.441406 C 208.355469 37.808594 208.304688 38.15625 208.210938 38.488281 C 208.117188 38.824219 207.984375 39.140625 207.820313 39.441406 C 207.414063 40.191406 206.839844 40.65625 206.101563 40.832031 C 205.375 41 204.585938 40.855469 203.742188 40.394531 C 202.890625 39.925781 202.328125 39.34375 202.054688 38.644531 C 201.773438 37.949219 201.832031 37.238281 202.226563 36.519531 C 202.570313 35.886719 203.070313 35.511719 203.726563 35.394531 C 204.382813 35.28125 205.109375 35.4375 205.898438 35.863281 Z M 205.210938 36.503906 C 204.722656 36.253906 204.273438 36.167969 203.867188 36.238281 C 203.460938 36.3125 203.15625 36.535156 202.945313 36.910156 C 202.707031 37.347656 202.65625 37.777344 202.789063 38.191406 C 202.914063 38.609375 203.210938 38.972656 203.679688 39.285156 Z M 205.210938 36.503906 "/>
<path style=" stroke:none;fill-rule:evenodd;fill:rgb(20%,20%,20%);fill-opacity:1;" d="M 182.175781 73.984375 L 182.519531 73.046875 L 185.597656 74.15625 L 186.800781 70.828125 L 183.722656 69.71875 L 184.050781 68.8125 L 191.582031 71.53125 L 191.253906 72.4375 L 187.675781 71.140625 L 186.472656 74.46875 L 190.050781 75.765625 L 189.707031 76.703125 Z M 186.773438 67.65625 L 187.195313 66.875 L 192.460938 69.765625 L 192.039063 70.546875 Z M 184.710938 66.53125 L 185.132813 65.75 L 186.226563 66.34375 L 185.804688 67.125 Z M 192.75 63.886719 C 192.15625 63.472656 191.625 63.261719 191.15625 63.261719 C 190.679688 63.253906 190.296875 63.449219 190.015625 63.855469 C 189.746094 64.230469 189.695313 64.644531 189.859375 65.089844 C 190.027344 65.527344 190.40625 65.957031 191 66.371094 C 191.574219 66.777344 192.101563 66.988281 192.578125 66.996094 C 193.054688 67.007813 193.429688 66.824219 193.703125 66.449219 C 193.984375 66.042969 194.035156 65.617188 193.859375 65.167969 C 193.691406 64.722656 193.320313 64.292969 192.75 63.886719 Z M 195.15625 64.496094 C 196 65.089844 196.503906 65.699219 196.671875 66.324219 C 196.835938 66.941406 196.675781 67.597656 196.1875 68.292969 C 196.007813 68.542969 195.820313 68.769531 195.625 68.964844 C 195.425781 69.164063 195.207031 69.335938 194.96875 69.480469 L 194.1875 68.933594 C 194.46875 68.820313 194.710938 68.679688 194.921875 68.511719 C 195.128906 68.335938 195.304688 68.144531 195.453125 67.933594 C 195.785156 67.457031 195.898438 67.003906 195.796875 66.574219 C 195.691406 66.136719 195.363281 65.722656 194.8125 65.324219 L 194.390625 65.042969 C 194.566406 65.398438 194.644531 65.746094 194.625 66.089844 C 194.613281 66.425781 194.492188 66.753906 194.265625 67.074219 C 193.878906 67.628906 193.34375 67.910156 192.65625 67.917969 C 191.960938 67.917969 191.230469 67.652344 190.46875 67.121094 C 189.710938 66.582031 189.21875 65.988281 189 65.339844 C 188.773438 64.683594 188.851563 64.082031 189.234375 63.527344 C 189.464844 63.207031 189.730469 62.976563 190.03125 62.839844 C 190.335938 62.707031 190.6875 62.664063 191.09375 62.714844 L 190.34375 62.199219 L 190.84375 61.480469 Z M 195.933594 57.398438 L 199.105469 59.164063 L 198.667969 59.945313 L 195.527344 58.195313 C 195.027344 57.914063 194.613281 57.796875 194.277344 57.835938 C 193.933594 57.878906 193.664063 58.070313 193.464844 58.414063 C 193.238281 58.832031 193.207031 59.25 193.371094 59.664063 C 193.527344 60.070313 193.855469 60.414063 194.355469 60.695313 L 197.339844 62.351563 L 196.902344 63.132813 L 189.589844 59.070313 L 190.027344 58.289063 L 192.902344 59.882813 C 192.683594 59.519531 192.570313 59.171875 192.558594 58.835938 C 192.539063 58.492188 192.621094 58.15625 192.808594 57.820313 C 193.113281 57.28125 193.527344 56.972656 194.058594 56.898438 C 194.582031 56.828125 195.207031 56.992188 195.933594 57.398438 Z M 193.214844 51.519531 L 193.464844 50.566406 L 200.339844 52.378906 L 201.230469 48.988281 L 202.105469 49.222656 L 200.964844 53.566406 Z M 196.894531 46.5 L 197.316406 45.71875 L 202.597656 48.609375 L 202.175781 49.390625 Z M 194.847656 45.375 L 195.269531 44.59375 L 196.363281 45.1875 L 195.941406 45.96875 Z M 202.484375 41.292969 L 205.65625 43.042969 L 205.234375 43.824219 L 202.078125 42.089844 C 201.578125 41.820313 201.15625 41.707031 200.8125 41.746094 C 200.46875 41.789063 200.203125 41.980469 200.015625 42.324219 C 199.789063 42.753906 199.757813 43.167969 199.921875 43.574219 C 200.078125 43.972656 200.414063 44.308594 200.921875 44.589844 L 203.90625 46.230469 L 203.46875 47.027344 L 198.1875 44.136719 L 198.625 43.339844 L 199.453125 43.792969 C 199.234375 43.441406 199.121094 43.089844 199.109375 42.746094 C 199.089844 42.402344 199.171875 42.066406 199.359375 41.730469 C 199.664063 41.191406 200.074219 40.882813 200.59375 40.808594 C 201.117188 40.738281 201.746094 40.898438 202.484375 41.292969 Z M 205.898438 35.863281 L 206.320313 36.097656 L 204.351563 39.691406 C 204.96875 39.972656 205.507813 40.058594 205.976563 39.941406 C 206.445313 39.816406 206.820313 39.5 207.101563 38.988281 C 207.265625 38.6875 207.386719 38.375 207.460938 38.050781 C 207.53125 37.71875 207.570313 37.371094 207.570313 37.003906 L 208.367188 37.441406 C 208.355469 37.808594 208.304688 38.15625 208.210938 38.488281 C 208.117188 38.824219 207.984375 39.140625 207.820313 39.441406 C 207.414063 40.191406 206.839844 40.65625 206.101563 40.832031 C 205.375 41 204.585938 40.855469 203.742188 40.394531 C 202.890625 39.925781 202.328125 39.34375 202.054688 38.644531 C 201.773438 37.949219 201.832031 37.238281 202.226563 36.519531 C 202.570313 35.886719 203.070313 35.511719 203.726563 35.394531 C 204.382813 35.28125 205.109375 35.4375 205.898438 35.863281 Z M 205.210938 36.503906 C 204.722656 36.253906 204.273438 36.167969 203.867188 36.238281 C 203.460938 36.3125 203.15625 36.535156 202.945313 36.910156 C 202.707031 37.347656 202.65625 37.777344 202.789063 38.191406 C 202.914063 38.609375 203.210938 38.972656 203.679688 39.285156 Z M 205.210938 36.503906 "/>
<path style=" stroke:none;fill-rule:evenodd;fill:rgb(33.333333%,33.333333%,33.333333%);fill-opacity:1;" d="M 124.996094 213.195313 L 125.855469 211.070313 L 132.496094 210.695313 L 126.933594 208.429688 L 127.652344 206.648438 L 135.761719 209.945313 L 134.902344 212.039063 L 128.261719 212.429688 L 133.824219 214.695313 L 133.105469 216.492188 Z M 127.90625 206.085938 L 128.625 203.976563 L 132.15625 203.273438 L 129.78125 200.585938 L 130.5 198.476563 L 134.328125 202.960938 L 137.8125 204.148438 L 137.15625 206.070313 L 133.671875 204.882813 Z M 139.855469 196.148438 L 138.261719 195.820313 C 138.492188 195.539063 138.679688 195.265625 138.824219 194.992188 C 138.972656 194.710938 139.070313 194.429688 139.121094 194.148438 C 139.246094 193.554688 139.164063 193.054688 138.871094 192.648438 C 138.570313 192.242188 138.066406 191.9375 137.355469 191.726563 C 137.503906 192.007813 137.597656 192.296875 137.636719 192.585938 C 137.679688 192.867188 137.667969 193.160156 137.605469 193.460938 C 137.449219 194.253906 137.066406 194.84375 136.449219 195.226563 C 135.835938 195.601563 135.113281 195.703125 134.277344 195.523438 C 133.351563 195.335938 132.667969 194.921875 132.230469 194.273438 C 131.792969 193.617188 131.667969 192.835938 131.855469 191.929688 C 132.066406 190.921875 132.601563 190.21875 133.464844 189.820313 C 134.320313 189.425781 135.433594 189.367188 136.808594 189.648438 C 138.226563 189.941406 139.273438 190.492188 139.949219 191.304688 C 140.636719 192.109375 140.863281 193.070313 140.636719 194.195313 C 140.550781 194.5625 140.441406 194.90625 140.308594 195.226563 C 140.183594 195.550781 140.03125 195.859375 139.855469 196.148438 Z M 136.246094 192.835938 C 136.308594 192.484375 136.238281 192.195313 136.027344 191.976563 C 135.808594 191.75 135.449219 191.582031 134.949219 191.476563 C 134.449219 191.375 134.054688 191.382813 133.761719 191.507813 C 133.472656 191.625 133.292969 191.859375 133.230469 192.210938 C 133.148438 192.566406 133.222656 192.859375 133.449219 193.085938 C 133.667969 193.304688 134.027344 193.46875 134.527344 193.570313 C 135.027344 193.675781 135.417969 193.671875 135.699219 193.554688 C 135.980469 193.429688 136.164063 193.191406 136.246094 192.835938 Z M 140.957031 183.914063 L 140.316406 187.007813 L 141.769531 187.835938 L 141.363281 189.835938 L 133.378906 185.210938 L 133.878906 182.835938 L 143.035156 181.742188 L 142.613281 183.742188 Z M 138.816406 186.195313 L 139.253906 184.085938 L 135.628906 184.429688 Z M 138.816406 186.195313 "/>
</g>
</svg>

