<?xml version="1.0" encoding="UTF-8"?>
<svg xmlns="http://www.w3.org/2000/svg" xmlns:xlink="http://www.w3.org/1999/xlink" width="256pt" height="256pt" viewBox="0 0 256 256" version="1.1">
<g id="surface2">
<rect x="0" y="0" width="256" height="256" style="fill:rgb(60%,70.196078%,80%);fill-opacity:1;stroke:none;"/>
<path style=" stroke:none;fill-rule:evenodd;fill:rgb(94.901961%,93.72549%,91.372549%);fill-opacity:1;" d="M -4 259 L -4 223.121094 L 86.515625 223.121094 L 86.515625 259 Z M -4 259 "/>
<path style=" stroke:none;fill-rule:evenodd;fill:rgb(94.901961%,93.72549%,91.372549%);fill-opacity:1;" d="M 124.015625 259 L 123.96875 257.246094 L 124.035156 256.332031 L 124.03125 255.210938 L 124.179688 254.898438 L 124.339844 254.589844 L 124.507813 254.367188 L 124.746094 254.042969 L 125.234375 253.472656 L 125.390625 253.09375 L 125.398438 252.878906 L 125.242188 252.777344 L 125.046875 252.71875 L 124.992188 252.636719 L 124.980469 252.136719 L 124.925781 251.671875 L 124.882813 251.523438 L 124.828125 251.464844 L 124.851563 250.046875 L 124.910156 249.5 L 124.988281 248.96875 L 125.046875 248.835938 L 125.4375 248.390625 L 125.300781 248.25 L 125.21875 248.375 L 125.085938 248.507813 L 125.019531 248.546875 L 124.9375 248.597656 L 124.664063 248.699219 L 124.628906 248.6875 L 124.484375 248.496094 L 124.46875 248.476563 L 124.476563 248.441406 L 124.445313 248.425781 L 124.425781 248.457031 L 124.378906 248.453125 L 124.273438 248.398438 L 124.175781 248.332031 L 124.164063 248.292969 L 124.042969 248.167969 L 123.9375 248.0625 L 123.910156 248.027344 L 123.8125 247.917969 L 123.753906 247.851563 L 123.730469 247.863281 L 123.699219 247.882813 L 123.679688 247.894531 L 123.71875 247.953125 L 123.828125 248.128906 L 123.851563 248.160156 L 123.863281 248.152344 L 123.878906 248.171875 L 123.882813 248.167969 L 123.910156 248.207031 L 124.113281 248.519531 L 123.992188 248.617188 L 123.984375 248.671875 L 123.929688 248.664063 L 123.894531 248.695313 L 123.910156 248.722656 L 123.816406 248.785156 L 123.730469 248.667969 L 123.746094 248.660156 L 123.535156 248.359375 L 123.476563 248.28125 L 123.457031 248.273438 L 123.332031 248.324219 L 123.203125 248.191406 L 123.164063 248.210938 L 123.808594 249.328125 L 123.949219 249.6875 L 124.007813 249.871094 L 124.066406 250.144531 L 124.109375 250.234375 L 124.191406 250.382813 L 124.226563 250.386719 L 124.28125 250.640625 L 124.222656 250.664063 L 124.324219 251.472656 L 124.402344 252.464844 L 124.335938 252.757813 L 124.242188 252.960938 L 124.183594 253.171875 L 124.097656 253.359375 L 124.140625 253.53125 L 124.136719 253.640625 L 123.984375 253.894531 L 123.871094 254.335938 L 123.667969 254.808594 L 123.5 254.988281 L 123.207031 255.371094 L 122.957031 255.757813 L 122.679688 256.355469 L 122.550781 256.714844 L 122.371094 256.878906 L 121.960938 256.917969 L 121.847656 257.183594 L 121.855469 257.347656 L 121.753906 257.441406 L 121.785156 258.144531 L 121.871094 258.449219 L 122.09375 259 L 86.1875 259 L 86.1875 223.121094 L 209.84375 223.121094 L 209.84375 259 Z M 124.015625 259 "/>
<path style=" stroke:none;fill-rule:evenodd;fill:rgb(94.901961%,93.72549%,91.372549%);fill-opacity:1;" d="M -4 68.648438 L 209.84375 68.648438 L 209.84375 223.449219 L -4 223.449219 Z M -4 68.648438 "/>
<path style=" stroke:none;fill-rule:evenodd;fill:rgb(94.901961%,93.72549%,91.372549%);fill-opacity:1;" d="M -4 -4 L 209.84375 -4 L 209.84375 68.976563 L -4 68.976563 Z M -4 -4 "/>
<path style=" stroke:none;fill-rule:evenodd;fill:rgb(94.901961%,93.72549%,91.372549%);fill-opacity:1;" d="M 259 259 L 209.519531 259 L 209.519531 189.847656 L 259 189.847656 Z M 259 259 "/>
<path style=" stroke:none;fill-rule:evenodd;fill:rgb(94.901961%,93.72549%,91.372549%);fill-opacity:1;" d="M 259 190.171875 L 209.519531 190.171875 L 209.519531 28.90625 L 259 28.90625 Z M 259 190.171875 "/>
<path style=" stroke:none;fill-rule:evenodd;fill:rgb(94.901961%,93.72549%,91.372549%);fill-opacity:1;" d="M 259 29.234375 L 209.519531 29.234375 L 209.519531 -4 L 259 -4 Z M 259 29.234375 "/>
</g>
</svg>

