<?xml version="1.0" encoding="UTF-8"?>
<svg xmlns="http://www.w3.org/2000/svg" xmlns:xlink="http://www.w3.org/1999/xlink" width="256pt" height="256pt" viewBox="0 0 256 256" version="1.1">
<g id="surface2">
<rect x="0" y="0" width="256" height="256" style="fill:rgb(94.901961%,93.72549%,91.372549%);fill-opacity:1;stroke:none;"/>
<path style=" stroke:none;fill-rule:evenodd;fill:rgb(60%,70.196078%,80%);fill-opacity:1;" d="M -4 259 L -4 -4 L 259 -4 L -4 -4 Z M -4 259 "/>
<path style="fill:none;stroke-width:1;stroke-linecap:round;stroke-linejoin:round;stroke:rgb(70.196078%,77.647059%,83.137255%);stroke-opacity:1;stroke-miterlimit:10;" d="M -4 259 L -4 -4 L 259 -4 L -4 -4 L -4 259 "/>
<path style=" stroke:none;fill-rule:evenodd;fill:rgb(60%,70.196078%,80%);fill-opacity:1;" d="M -4 259 L 9.785156 259 L 22.097656 223.289063 L 12.875 217.292969 L 7.34375 217.292969 L -4 231.128906 Z M -4 259 "/>
<path style="fill:none;stroke-width:1;stroke-linecap:round;stroke-linejoin:round;stroke:rgb(70.196078%,77.647059%,83.137255%);stroke-opacity:1;stroke-miterlimit:10;" d="M -4 259 L 9.785156 259 L 22.097656 223.289063 L 12.875 217.292969 L 7.34375 217.292969 L -4 231.128906 L -4 259 "/>
<path style="fill:none;stroke-width:8;stroke-linecap:round;stroke-linejoin:round;stroke:rgb(75.686275%,70.980392%,61.568627%);stroke-opacity:1;stroke-miterlimit:10;" d="M 19.933594 264 L 30.917969 254.386719 L 31.6875 250.523438 L 29.472656 227.242188 "/>
<path style="fill:none;stroke-width:8;stroke-linecap:round;stroke-linejoin:round;stroke:rgb(75.686275%,70.980392%,61.568627%);stroke-opacity:1;stroke-miterlimit:10;" d="M 29.472656 227.242188 L 28.84375 220.757813 L 23.902344 216 L 18.054688 211.210938 L 15.28125 208.972656 L 8.59375 205.078125 L 5.238281 203.800781 L 1.230469 203.128906 L -6.320313 203.511719 L -8.554688 203.832031 L -9 204.023438 "/>
<path style="fill:none;stroke-width:8;stroke-linecap:round;stroke-linejoin:round;stroke:rgb(75.686275%,70.980392%,61.568627%);stroke-opacity:1;stroke-miterlimit:10;" d="M -9 44.476563 L 11.273438 22.78125 L 18.171875 16.460938 L 22.0625 11.796875 L 25.207031 7.261719 L 28.773438 -1.296875 L 30.078125 -5.675781 L 30.753906 -9 "/>
<path style="fill:none;stroke-width:6;stroke-linecap:round;stroke-linejoin:round;stroke:rgb(100%,100%,100%);stroke-opacity:1;stroke-miterlimit:10;" d="M 19.933594 264 L 30.917969 254.386719 L 31.6875 250.523438 L 29.472656 227.242188 "/>
<path style="fill:none;stroke-width:6;stroke-linecap:round;stroke-linejoin:round;stroke:rgb(100%,100%,100%);stroke-opacity:1;stroke-miterlimit:10;" d="M 29.472656 227.242188 L 28.84375 220.757813 L 23.902344 216 L 18.054688 211.210938 L 15.28125 208.972656 L 8.59375 205.078125 L 5.238281 203.800781 L 1.230469 203.128906 L -6.320313 203.511719 L -8.554688 203.832031 L -9 204.023438 "/>
<path style="fill:none;stroke-width:6;stroke-linecap:round;stroke-linejoin:round;stroke:rgb(100%,100%,100%);stroke-opacity:1;stroke-miterlimit:10;" d="M -9 44.476563 L 11.273438 22.78125 L 18.171875 16.460938 L 22.0625 11.796875 L 25.207031 7.261719 L 28.773438 -1.296875 L 30.078125 -5.675781 L 30.753906 -9 "/>
</g>
</svg>

