<?xml version="1.0" encoding="UTF-8"?>
<svg xmlns="http://www.w3.org/2000/svg" xmlns:xlink="http://www.w3.org/1999/xlink" width="256pt" height="256pt" viewBox="0 0 256 256" version="1.1">
<g id="surface2">
<rect x="0" y="0" width="256" height="256" style="fill:rgb(60%,70.196078%,80%);fill-opacity:1;stroke:none;"/>
<path style=" stroke:none;fill-rule:evenodd;fill:rgb(94.901961%,93.72549%,91.372549%);fill-opacity:1;" d="M 66.929688 259 L 67.050781 255.277344 L 70.25 252.273438 L 75.851563 252.074219 L 78.253906 253.472656 L 80.25 257.875 L 80.503906 259 Z M 66.929688 259 "/>
<path style=" stroke:none;fill-rule:evenodd;fill:rgb(94.901961%,93.72549%,91.372549%);fill-opacity:1;" d="M -0.949219 35.472656 L -4 34.710938 L -4 19.707031 L 0.851563 14.675781 L 4.050781 14.277344 L 9.25 16.675781 L 10.25 19.273438 L 10.050781 25.875 L 10.050781 30.074219 L 6.253906 34.273438 L 2.050781 35.875 Z M -0.949219 35.472656 "/>
<path style=" stroke:none;fill-rule:evenodd;fill:rgb(94.901961%,93.72549%,91.372549%);fill-opacity:1;" d="M 29.453125 42.074219 L 26.851563 45.273438 L 24.050781 46.074219 L 22.050781 44.875 L 21.25 41.675781 L 22.453125 37.875 L 23.25 34.074219 L 21.25 30.074219 L 22.25 27.675781 L 24.25 26.074219 L 27.050781 26.675781 L 28.851563 29.875 L 29.25 37.074219 Z M 29.453125 42.074219 "/>
</g>
</svg>

