<?xml version="1.0" encoding="UTF-8"?>
<svg xmlns="http://www.w3.org/2000/svg" xmlns:xlink="http://www.w3.org/1999/xlink" width="256pt" height="256pt" viewBox="0 0 256 256" version="1.1">
<g id="surface2">
<rect x="0" y="0" width="256" height="256" style="fill:rgb(94.901961%,93.72549%,91.372549%);fill-opacity:1;stroke:none;"/>
<path style="fill:none;stroke-width:1;stroke-linecap:round;stroke-linejoin:round;stroke:rgb(100%,100%,100%);stroke-opacity:1;stroke-dasharray:2,3;stroke-miterlimit:10;" d="M -2 196.734375 L 4.65625 197.84375 L 11.054688 196.851563 L 16.210938 199.335938 L 19.585938 199.085938 L 20.300781 202.191406 L 24.566406 193.378906 L 23.324219 185.4375 L 24.921875 176.75 L 27.234375 172.402344 L 32.742188 169.300781 L 36.65625 154.53125 L 43.945313 147.085938 L 51.589844 133.1875 L 59.410156 128.59375 L 69.542969 124.871094 L 78.253906 106.753906 L 77.722656 97.445313 L 79.679688 91.359375 L 73.632813 76.839844 L 70.613281 64.925781 L 63.675781 55.492188 L 57.988281 43.578125 L 56.566406 38.613281 L 57.457031 34.019531 L 53.1875 25.707031 L 45.011719 16.890625 L 43.945313 13.914063 L 39.679688 11.183594 L 40.921875 10.3125 L 28.65625 -1.601563 L 28.460938 -2 "/>
<path style="fill:none;stroke-width:8;stroke-linecap:round;stroke-linejoin:round;stroke:rgb(75.686275%,70.980392%,61.568627%);stroke-opacity:1;stroke-miterlimit:10;" d="M 212.652344 12.554688 L 214.425781 19.582031 L 215.378906 24.886719 "/>
<path style="fill:none;stroke-width:8;stroke-linecap:round;stroke-linejoin:round;stroke:rgb(75.686275%,70.980392%,61.568627%);stroke-opacity:1;stroke-miterlimit:10;" d="M 114.34375 1.753906 L 100.621094 -5.4375 "/>
<path style="fill:none;stroke-width:8;stroke-linecap:round;stroke-linejoin:round;stroke:rgb(75.686275%,70.980392%,61.568627%);stroke-opacity:1;stroke-miterlimit:10;" d="M 200.070313 -1.761719 L 198.019531 0.222656 L 191.355469 6.472656 L 183.152344 13.269531 L 179.796875 15.546875 L 175.765625 17.402344 L 169.382813 19.03125 L 165.140625 19.746094 L 159.574219 20.300781 "/>
<path style="fill:none;stroke-width:8;stroke-linecap:round;stroke-linejoin:round;stroke:rgb(75.686275%,70.980392%,61.568627%);stroke-opacity:1;stroke-miterlimit:10;" d="M 135.335938 -9 L 130.933594 -6.640625 L 117.164063 -0.460938 L 114.34375 1.753906 L 112.78125 15.582031 "/>
<path style="fill:none;stroke-width:8;stroke-linecap:round;stroke-linejoin:round;stroke:rgb(75.686275%,70.980392%,61.568627%);stroke-opacity:1;stroke-miterlimit:10;" d="M 191.246094 -9 L 200.070313 -1.761719 L 205.175781 2.273438 L 207.527344 4.453125 L 210.625 8.324219 L 212.652344 12.554688 "/>
<path style="fill:none;stroke-width:8;stroke-linecap:round;stroke-linejoin:round;stroke:rgb(75.686275%,70.980392%,61.568627%);stroke-opacity:1;stroke-miterlimit:10;" d="M 162.082031 -9 L 179.796875 15.546875 "/>
<path style="fill:none;stroke-width:6;stroke-linecap:round;stroke-linejoin:round;stroke:rgb(100%,100%,100%);stroke-opacity:1;stroke-miterlimit:10;" d="M 212.652344 12.554688 L 214.425781 19.582031 L 215.378906 24.886719 "/>
<path style="fill:none;stroke-width:6;stroke-linecap:round;stroke-linejoin:round;stroke:rgb(100%,100%,100%);stroke-opacity:1;stroke-miterlimit:10;" d="M 114.34375 1.753906 L 100.621094 -5.4375 "/>
<path style="fill:none;stroke-width:6;stroke-linecap:round;stroke-linejoin:round;stroke:rgb(100%,100%,100%);stroke-opacity:1;stroke-miterlimit:10;" d="M 200.070313 -1.761719 L 198.019531 0.222656 L 191.355469 6.472656 L 183.152344 13.269531 L 179.796875 15.546875 L 175.765625 17.402344 L 169.382813 19.03125 L 165.140625 19.746094 L 159.574219 20.300781 "/>
<path style="fill:none;stroke-width:6;stroke-linecap:round;stroke-linejoin:round;stroke:rgb(100%,100%,100%);stroke-opacity:1;stroke-miterlimit:10;" d="M 135.335938 -9 L 130.933594 -6.640625 L 117.164063 -0.460938 L 114.34375 1.753906 L 112.78125 15.582031 "/>
<path style="fill:none;stroke-width:6;stroke-linecap:round;stroke-linejoin:round;stroke:rgb(100%,100%,100%);stroke-opacity:1;stroke-miterlimit:10;" d="M 191.246094 -9 L 200.070313 -1.761719 L 205.175781 2.273438 L 207.527344 4.453125 L 210.625 8.324219 L 212.652344 12.554688 "/>
<path style="fill:none;stroke-width:6;stroke-linecap:round;stroke-linejoin:round;stroke:rgb(100%,100%,100%);stroke-opacity:1;stroke-miterlimit:10;" d="M 162.082031 -9 L 179.796875 15.546875 "/>
</g>
</svg>

