<?xml version="1.0" encoding="UTF-8"?>
<svg xmlns="http://www.w3.org/2000/svg" xmlns:xlink="http://www.w3.org/1999/xlink" width="256pt" height="256pt" viewBox="0 0 256 256" version="1.1">
<g id="surface2">
<rect x="0" y="0" width="256" height="256" style="fill:rgb(94.901961%,93.72549%,91.372549%);fill-opacity:1;stroke:none;"/>
<path style=" stroke:none;fill-rule:evenodd;fill:rgb(70.980392%,82.352941%,61.176471%);fill-opacity:1;" d="M -4 260 L 260 260 L 260 -4 L -4 -4 L -4 260 L -4 -4 Z M -4 260 "/>
<path style=" stroke:none;fill-rule:evenodd;fill:rgb(79.607843%,84.705882%,76.470588%);fill-opacity:1;" d="M -4 260 L 260 260 L 260 -4 L -4 -4 L -4 260 L -4 -4 Z M -4 260 "/>
<path style="fill:none;stroke-width:2;stroke-linecap:round;stroke-linejoin:round;stroke:rgb(60%,70.196078%,80%);stroke-opacity:1;stroke-miterlimit:10;" d="M 88.171875 -3 L 88.945313 -1 L 97.773438 3.890625 L 101.988281 9.324219 L 102.800781 16.65625 L 97.640625 23.589844 L 93.292969 32.28125 L 87.859375 39.207031 L 83.105469 43.417969 L 78.894531 48.71875 L 76.71875 58.90625 L 73.050781 65.5625 L 66.667969 71.945313 L 60.421875 75.886719 L 54.578125 77.652344 L 48.328125 81.046875 L 42.757813 87.023438 L 39.226563 90.285156 L 40.042969 92.1875 L 38.007813 94.222656 L 37.597656 97.214844 L 36.917969 100.882813 L 36.238281 104.140625 L 31.757813 107.808594 L 34.199219 110.117188 L 29.71875 112.835938 L 32.84375 118.402344 L 30.398438 122.34375 L 30.398438 126.417969 L 31.621094 129 L 29.992188 132.53125 L 27.679688 141.089844 L 17.765625 145.03125 L 15.726563 150.597656 L 13.960938 155.761719 L 8.664063 158.613281 L 7.710938 161.058594 L 2.140625 164.453125 L 1.328125 172.46875 L -3 175.175781 "/>
<path style="fill:none;stroke-width:1;stroke-linecap:round;stroke-linejoin:round;stroke:rgb(100%,100%,100%);stroke-opacity:1;stroke-dasharray:2,3;stroke-miterlimit:10;" d="M 252.542969 -2 L 250.765625 5.597656 L 245.765625 15.347656 L 248.628906 35.417969 L 242.597656 39.570313 L 237.265625 45.917969 L 236.269531 49.695313 L 234.550781 51.917969 L 233.851563 57.558594 L 224.835938 63.070313 L 218.859375 59.921875 L 216.402344 50.464844 L 198.460938 43.410156 L 190.753906 45.289063 L 174.636719 39.75 L 162.667969 37.148438 L 149.484375 44.105469 L 140.492188 44 L 135.765625 45.851563 L 128.269531 52.101563 L 123.515625 56.101563 L 120.703125 60.980469 L 108.515625 74.601563 L 106.828125 78.480469 L 104.890625 84.042969 L 106.578125 91.917969 L 104.328125 98.980469 L 95.203125 103.105469 L 90.078125 103.230469 L 80.015625 110.101563 L 70.171875 108.417969 L 56.296875 112.980469 L 50.515625 112.511719 L 45.09375 109.480469 L 35.265625 105.574219 L 31.582031 103.867188 L 26.515625 107.601563 L 22.265625 110.597656 L 15.765625 112.851563 L 8.441406 116.5 "/>
<path style="fill:none;stroke-width:1;stroke-linecap:round;stroke-linejoin:round;stroke:rgb(100%,100%,100%);stroke-opacity:1;stroke-dasharray:2,3;stroke-miterlimit:10;" d="M 67.957031 -2 L 70.179688 7.808594 L 73.832031 12.355469 L 72.953125 15.480469 L 70.640625 23.667969 L 67.890625 29.480469 L 65.363281 40.628906 L 57.953125 49.230469 L 47.078125 51.730469 L 38.078125 48.542969 L 37.140625 54.167969 L 39.78125 66.554688 L 43.515625 72.292969 L 43.734375 77.199219 L 46.082031 83.636719 L 46.328125 84.917969 L 50.890625 83.453125 L 55.421875 83.136719 L 60.109375 87.199219 L 61.328125 93.417969 L 62.957031 100.605469 L 70.171875 108.417969 L 69.996094 110.492188 L 72.09375 117.871094 L 68.476563 130.933594 L 61.761719 147.226563 L 60.507813 153.5 L 59.160156 160.226563 L 50.761719 165.226563 L 44.761719 165.828125 L 38.363281 162.628906 L 22.761719 159.226563 L 12.363281 163.828125 L 4.761719 174.027344 L 4.761719 181.027344 L -2 191.074219 "/>
<path style="fill:none;stroke-width:1;stroke-linecap:round;stroke-linejoin:round;stroke:rgb(100%,100%,100%);stroke-opacity:1;stroke-dasharray:2,3;stroke-miterlimit:10;" d="M 127.472656 257 L 130.277344 253.472656 L 133.027344 249.472656 L 135.527344 245.722656 L 139.523438 241.972656 L 143.277344 238.226563 L 146.777344 235.722656 L 150.488281 232.5 L 152.777344 229.722656 L 155.527344 225.476563 L 160.527344 223.722656 L 164.277344 222.472656 L 169.988281 222.246094 L 174.273438 220.726563 L 177.523438 217.722656 L 181.488281 215.25 L 185.273438 212.972656 L 189.023438 209.976563 L 191.273438 208.222656 L 195.773438 207.226563 L 198.523438 204.722656 L 198.523438 200.972656 L 197.277344 196.972656 L 196.523438 193.726563 L 193.023438 192.222656 L 191.253906 188.988281 L 192.296875 187.511719 L 192.234375 184.761719 L 191.652344 181.183594 L 193.183594 178.097656 L 194.15625 172.9375 L 196.421875 171.339844 L 196.726563 167.15625 L 196.148438 163.742188 L 197.472656 159.054688 L 197.71875 155.582031 L 200.851563 151.339844 L 206.503906 149.761719 L 216.484375 144.863281 L 224.269531 139.535156 L 228.105469 136.964844 L 233.007813 136.425781 L 238.210938 135.296875 L 243.683594 133.660156 L 252.457031 129.507813 L 257 126.929688 "/>
<path style="fill:none;stroke-width:1;stroke-linecap:round;stroke-linejoin:round;stroke:rgb(100%,100%,100%);stroke-opacity:1;stroke-dasharray:2,3;stroke-miterlimit:10;" d="M 8.441406 116.5 L 4.117188 112.273438 L -2 110.585938 "/>
<path style="fill:none;stroke-width:1;stroke-linecap:round;stroke-linejoin:round;stroke:rgb(100%,100%,100%);stroke-opacity:1;stroke-dasharray:2,3;stroke-miterlimit:10;" d="M 8.441406 116.5 L 12.214844 127.246094 L 13.714844 136.246094 L 15.21875 145.742188 L 19.714844 152.746094 L 22.761719 159.226563 L 38.363281 162.628906 L 44.761719 165.828125 L 50.761719 165.226563 L 59.160156 160.226563 L 60.507813 153.5 L 64.929688 151.035156 L 73.429688 146.035156 L 81.679688 142.785156 L 87.925781 139.535156 L 91.179688 141.035156 L 93.136719 145.09375 L 95.058594 146.503906 L 95.613281 151.785156 L 95.761719 156.921875 L 97.125 160.832031 L 101.308594 167.480469 L 105.402344 171.785156 L 109.066406 173.230469 L 111.847656 176.121094 L 111.941406 181.078125 L 111.390625 185.105469 L 111.070313 188.128906 L 111.699219 192.316406 L 112.910156 196.039063 L 116.226563 200 L 117.867188 202.734375 L 121.28125 206.691406 L 126.140625 208.066406 L 131.789063 210.851563 L 135.242188 210.878906 L 137.75 210.820313 L 141.238281 210.5 L 145.414063 209.214844 L 146.273438 205.980469 L 148.828125 203.949219 L 150.53125 203.441406 L 152.703125 203.980469 L 156.273438 204.699219 L 160.28125 205.140625 L 164.394531 206.222656 L 167.382813 206.054688 L 171.898438 205.105469 L 173.269531 204.113281 L 173.597656 201.84375 L 174.445313 201.175781 L 174.265625 199.839844 L 171.472656 199 L 169.703125 196.53125 L 168.175781 193.148438 L 168.132813 191.605469 L 166.953125 189.835938 L 166.742188 188.347656 L 166.054688 186.722656 L 165.242188 185.785156 L 164.242188 184.910156 L 163.179688 184.160156 L 161.492188 180.972656 L 162.929688 180.160156 L 164.742188 179.910156 L 167.867188 181.847656 L 167.929688 183.410156 L 169.746094 184.75 L 172.992188 184.972656 L 175.117188 185.472656 L 178.621094 185.683594 L 180.054688 188.597656 L 181.742188 189.285156 L 182.929688 188.097656 L 187.242188 190.347656 L 189.554688 190.222656 L 190.488281 189.597656 L 192.296875 187.511719 L 192.234375 184.761719 L 191.652344 181.183594 L 193.183594 178.097656 L 194.15625 172.9375 L 196.421875 171.339844 L 200.308594 170.097656 L 211.875 166.582031 L 216.625 165.582031 L 221.875 166.328125 L 227.625 167.332031 L 232.875 167.582031 L 237.125 167.582031 L 241.375 166.832031 L 246.722656 168.835938 L 251.375 169.832031 L 254.625 171.582031 L 256.546875 174.511719 L 257 175.5 "/>
</g>
</svg>

