<?xml version="1.0" encoding="UTF-8"?>
<svg xmlns="http://www.w3.org/2000/svg" xmlns:xlink="http://www.w3.org/1999/xlink" width="256pt" height="256pt" viewBox="0 0 256 256" version="1.1">
<g id="surface2">
<rect x="0" y="0" width="256" height="256" style="fill:rgb(94.901961%,93.72549%,91.372549%);fill-opacity:1;stroke:none;"/>
<path style="fill:none;stroke-width:2;stroke-linecap:round;stroke-linejoin:round;stroke:rgb(60%,70.196078%,80%);stroke-opacity:1;stroke-miterlimit:10;" d="M 152.074219 258 L 152.632813 248.203125 L 189.539063 162.175781 L 211.171875 135.195313 L 216.519531 103.121094 L 231.792969 77.671875 L 232.300781 68.253906 L 241.71875 31.855469 L 250.117188 17.347656 L 255.929688 -3 "/>
<path style="fill:none;stroke-width:8;stroke-linecap:round;stroke-linejoin:round;stroke:rgb(75.686275%,70.980392%,61.568627%);stroke-opacity:1;stroke-miterlimit:10;" d="M 49.277344 -9 L 49.464844 -6.183594 L 50.210938 3.84375 L 48.347656 31.109375 L 46.574219 43.84375 "/>
<path style="fill:none;stroke-width:8;stroke-linecap:round;stroke-linejoin:round;stroke:rgb(75.686275%,70.980392%,61.568627%);stroke-opacity:1;stroke-miterlimit:10;" d="M -9 259.839844 L -7.34375 260.289063 L 1.019531 263.183594 "/>
<path style="fill:none;stroke-width:9;stroke-linecap:round;stroke-linejoin:round;stroke:rgb(75.686275%,70.980392%,61.568627%);stroke-opacity:1;stroke-miterlimit:10;" d="M -10 2.648438 L -5.785156 1.582031 L 9.058594 -1.941406 L 17.703125 -4.265625 L 28.75 -8.039063 L 33.105469 -10 "/>
<path style="fill:none;stroke-width:6;stroke-linecap:round;stroke-linejoin:round;stroke:rgb(100%,100%,100%);stroke-opacity:1;stroke-miterlimit:10;" d="M 49.277344 -9 L 49.464844 -6.183594 L 50.210938 3.84375 L 48.347656 31.109375 L 46.574219 43.84375 "/>
<path style="fill:none;stroke-width:7;stroke-linecap:round;stroke-linejoin:round;stroke:rgb(100%,99.215686%,54.509804%);stroke-opacity:1;stroke-miterlimit:10;" d="M -10 2.648438 L -5.785156 1.582031 L 9.058594 -1.941406 L 17.703125 -4.265625 L 28.75 -8.039063 L 33.105469 -10 "/>
</g>
</svg>

