<?xml version="1.0" encoding="UTF-8"?>
<svg xmlns="http://www.w3.org/2000/svg" xmlns:xlink="http://www.w3.org/1999/xlink" width="256pt" height="256pt" viewBox="0 0 256 256" version="1.1">
<g id="surface2">
<rect x="0" y="0" width="256" height="256" style="fill:rgb(60%,70.196078%,80%);fill-opacity:1;stroke:none;"/>
<path style=" stroke:none;fill-rule:evenodd;fill:rgb(94.901961%,93.72549%,91.372549%);fill-opacity:1;" d="M 259 259 L -4 259 L 259 259 L 259 -4 Z M 259 259 "/>
<path style=" stroke:none;fill-rule:evenodd;fill:rgb(94.901961%,93.72549%,91.372549%);fill-opacity:1;" d="M 251.121094 243.25 L 252.773438 243.269531 L 253.929688 243.925781 L 255.40625 245.28125 L 256.773438 246.210938 L 258.75 246.96875 L 259 247.121094 L 259 259 L 242.921875 259 L 241.210938 258.40625 L 239.761719 259 L 237.339844 259 L 234.898438 258.6875 L 232.460938 258.625 L 230.898438 258.75 L 230.6875 259 L 225.980469 259 L 225.585938 258.3125 L 224.085938 258.96875 L 224.023438 259 L -4 259 L -4 241.597656 L 250.265625 241.597656 Z M 251.121094 243.25 "/>
<path style=" stroke:none;fill-rule:evenodd;fill:rgb(94.901961%,93.72549%,91.372549%);fill-opacity:1;" d="M -4 259 L -4 -4 L 64.621094 -4 L 64.621094 259 Z M -4 259 "/>
<path style=" stroke:none;fill-rule:evenodd;fill:rgb(94.901961%,93.72549%,91.372549%);fill-opacity:1;" d="M 259 -4 L 259 228.5625 L 258.808594 228.621094 L 257.996094 233.25 L 256.5 234.621094 L 254.996094 234.875 L 254.0625 235.933594 L 253.664063 236.167969 L 248.898438 238.957031 L 251.121094 243.25 L 252.773438 243.269531 L 253.929688 243.925781 L 255.40625 245.28125 L 256.773438 246.210938 L 258.75 246.96875 L 259 247.121094 L 259 259 L 242.921875 259 L 241.210938 258.40625 L 239.761719 259 L 237.339844 259 L 234.898438 258.6875 L 232.460938 258.625 L 230.898438 258.75 L 230.6875 259 L 225.980469 259 L 225.585938 258.3125 L 224.085938 258.96875 L 224.023438 259 L 43.6875 259 L 43.6875 -4 Z M 259 -4 "/>
</g>
</svg>

