<?xml version="1.0" encoding="UTF-8"?>
<svg xmlns="http://www.w3.org/2000/svg" xmlns:xlink="http://www.w3.org/1999/xlink" width="256pt" height="256pt" viewBox="0 0 256 256" version="1.1">
<g id="surface2">
<rect x="0" y="0" width="256" height="256" style="fill:rgb(94.901961%,93.72549%,91.372549%);fill-opacity:1;stroke:none;"/>
<path style="fill:none;stroke-width:2;stroke-linecap:round;stroke-linejoin:round;stroke:rgb(60%,70.196078%,80%);stroke-opacity:1;stroke-miterlimit:10;" d="M 258 40.441406 L 254.476563 43.027344 L 248.480469 51.171875 L 240.496094 68.980469 L 233.546875 81.90625 L 216 86.980469 L 194.496094 84.980469 L 177 84.480469 L 164 87.480469 L 147.996094 84.480469 L 145.546875 76.40625 L 140.996094 67.980469 L 134.546875 54.90625 L 119.996094 41.980469 L 109.546875 34.40625 L 102.5 33.480469 L 92.496094 33.480469 L 85.546875 38.90625 L 74.496094 47.980469 L 60 49.480469 L 35.496094 46.480469 L 10.5 48.980469 L 2.546875 57.90625 L -3 59.789063 "/>
<path style="fill:none;stroke-width:1;stroke-linecap:round;stroke-linejoin:round;stroke:rgb(100%,100%,100%);stroke-opacity:1;stroke-dasharray:2,3;stroke-miterlimit:10;" d="M -2 51.421875 L 16.816406 42.117188 L 25.199219 42 L 42.777344 45.863281 L 60.136719 44.949219 L 80.492188 31.894531 L 96.429688 26.894531 L 116.4375 27.597656 L 130.105469 33.5 L 140.871094 44.714844 L 155.769531 61.386719 L 162.6875 76.03125 L 183.714844 78 L 204.707031 78.085938 L 223.964844 70.089844 L 241.652344 50.335938 L 249.222656 39.402344 L 254.652344 34.335938 L 257 32.464844 "/>
</g>
</svg>

