<?xml version="1.0" encoding="UTF-8"?>
<svg xmlns="http://www.w3.org/2000/svg" xmlns:xlink="http://www.w3.org/1999/xlink" width="256pt" height="256pt" viewBox="0 0 256 256" version="1.1">
<g id="surface2">
<rect x="0" y="0" width="256" height="256" style="fill:rgb(94.901961%,93.72549%,91.372549%);fill-opacity:1;stroke:none;"/>
<path style="fill:none;stroke-width:8;stroke-linecap:round;stroke-linejoin:round;stroke:rgb(75.686275%,70.980392%,61.568627%);stroke-opacity:1;stroke-miterlimit:10;" d="M 102.289063 142.132813 L 111.867188 135.289063 "/>
<path style="fill:none;stroke-width:8;stroke-linecap:round;stroke-linejoin:round;stroke:rgb(75.686275%,70.980392%,61.568627%);stroke-opacity:1;stroke-miterlimit:10;" d="M 124.566406 174.425781 L 140.316406 175.820313 "/>
<path style="fill:none;stroke-width:8;stroke-linecap:round;stroke-linejoin:round;stroke:rgb(75.686275%,70.980392%,61.568627%);stroke-opacity:1;stroke-miterlimit:10;" d="M 26.933594 264 L 26.675781 262.683594 L 21.664063 254.097656 L 18.472656 251.878906 L 12.53125 252.921875 L 6.425781 258.214844 "/>
<path style="fill:none;stroke-width:8;stroke-linecap:round;stroke-linejoin:round;stroke:rgb(75.686275%,70.980392%,61.568627%);stroke-opacity:1;stroke-miterlimit:10;" d="M 91.828125 76.53125 L 76.074219 76.308594 L 61.816406 80.621094 L 55.800781 79.289063 L 45.128906 70.128906 L 32.664063 67.945313 "/>
<path style="fill:none;stroke-width:8;stroke-linecap:round;stroke-linejoin:round;stroke:rgb(75.686275%,70.980392%,61.568627%);stroke-opacity:1;stroke-miterlimit:10;" d="M 84.347656 125.496094 L 90.777344 128.539063 L 96.113281 131.867188 L 96.929688 132.722656 L 102.289063 142.132813 L 108.347656 151.988281 L 120.417969 167.644531 L 124.148438 173.667969 L 126.847656 178.675781 L 131.976563 189.988281 L 137.3125 204.691406 L 139.058594 208.050781 L 140.316406 209.539063 L 142.625 211.472656 L 152.550781 217.273438 L 159.472656 221.644531 L 168.816406 228.808594 L 184.566406 242.277344 "/>
<path style="fill:none;stroke-width:8;stroke-linecap:round;stroke-linejoin:round;stroke:rgb(75.686275%,70.980392%,61.568627%);stroke-opacity:1;stroke-miterlimit:10;" d="M 102.019531 -9 L 102.617188 -3.554688 L 102.523438 1.101563 L 101.707031 8.519531 L 95.277344 58.847656 L 94.296875 64.804688 L 93.996094 66.265625 L 91.828125 76.53125 L 90.988281 80.492188 L 89.171875 90.160156 L 89.289063 95.390625 L 89.753906 103.882813 L 89.519531 107.433594 L 88.238281 113.515625 L 84.347656 125.496094 L 82.949219 132.5625 L 81.503906 139.789063 L 80.480469 142.988281 L 78.871094 146.285156 L 76.9375 149.675781 L 74.628906 153.097656 L 71.882813 156.269531 L 69.457031 158.519531 L 63.65625 163.492188 L -1.683594 216.671875 L -9 222.0625 "/>
<path style="fill:none;stroke-width:9;stroke-linecap:round;stroke-linejoin:round;stroke:rgb(75.686275%,70.980392%,61.568627%);stroke-opacity:1;stroke-miterlimit:10;" d="M -10 232.828125 L -0.425781 248.203125 L 6.425781 258.214844 L 7.964844 260.464844 L 11.714844 265 "/>
<path style="fill:none;stroke-width:6;stroke-linecap:round;stroke-linejoin:round;stroke:rgb(100%,100%,100%);stroke-opacity:1;stroke-miterlimit:10;" d="M 102.289063 142.132813 L 111.867188 135.289063 "/>
<path style="fill:none;stroke-width:6;stroke-linecap:round;stroke-linejoin:round;stroke:rgb(100%,100%,100%);stroke-opacity:1;stroke-miterlimit:10;" d="M 124.566406 174.425781 L 140.316406 175.820313 "/>
<path style="fill:none;stroke-width:6;stroke-linecap:round;stroke-linejoin:round;stroke:rgb(100%,100%,100%);stroke-opacity:1;stroke-miterlimit:10;" d="M 26.933594 264 L 26.675781 262.683594 L 21.664063 254.097656 L 18.472656 251.878906 L 12.53125 252.921875 L 6.425781 258.214844 "/>
<path style="fill:none;stroke-width:6;stroke-linecap:round;stroke-linejoin:round;stroke:rgb(100%,100%,100%);stroke-opacity:1;stroke-miterlimit:10;" d="M 91.828125 76.53125 L 76.074219 76.308594 L 61.816406 80.621094 L 55.800781 79.289063 L 45.128906 70.128906 L 32.664063 67.945313 "/>
<path style="fill:none;stroke-width:6;stroke-linecap:round;stroke-linejoin:round;stroke:rgb(100%,100%,100%);stroke-opacity:1;stroke-miterlimit:10;" d="M 84.347656 125.496094 L 90.777344 128.539063 L 96.113281 131.867188 L 96.929688 132.722656 L 102.289063 142.132813 L 108.347656 151.988281 L 120.417969 167.644531 L 124.148438 173.667969 L 126.847656 178.675781 L 131.976563 189.988281 L 137.3125 204.691406 L 139.058594 208.050781 L 140.316406 209.539063 L 142.625 211.472656 L 152.550781 217.273438 L 159.472656 221.644531 L 168.816406 228.808594 L 184.566406 242.277344 "/>
<path style="fill:none;stroke-width:6;stroke-linecap:round;stroke-linejoin:round;stroke:rgb(100%,100%,100%);stroke-opacity:1;stroke-miterlimit:10;" d="M 102.019531 -9 L 102.617188 -3.554688 L 102.523438 1.101563 L 101.707031 8.519531 L 95.277344 58.847656 L 94.296875 64.804688 L 93.996094 66.265625 L 91.828125 76.53125 L 90.988281 80.492188 L 89.171875 90.160156 L 89.289063 95.390625 L 89.753906 103.882813 L 89.519531 107.433594 L 88.238281 113.515625 L 84.347656 125.496094 L 82.949219 132.5625 L 81.503906 139.789063 L 80.480469 142.988281 L 78.871094 146.285156 L 76.9375 149.675781 L 74.628906 153.097656 L 71.882813 156.269531 L 69.457031 158.519531 L 63.65625 163.492188 L -1.683594 216.671875 L -9 222.0625 "/>
<path style="fill:none;stroke-width:7;stroke-linecap:round;stroke-linejoin:round;stroke:rgb(100%,99.215686%,54.509804%);stroke-opacity:1;stroke-miterlimit:10;" d="M -10 232.828125 L -0.425781 248.203125 L 6.425781 258.214844 L 7.964844 260.464844 L 11.714844 265 "/>
<path style="fill:none;stroke-width:3;stroke-linecap:round;stroke-linejoin:round;stroke:rgb(100%,100%,100%);stroke-opacity:1;stroke-miterlimit:10;" d="M 76.753906 154.671875 L 75.113281 153.265625 L 74.082031 154.484375 L 73.410156 153.90625 L 75.066406 151.953125 L 77.675781 154.1875 C 77.675781 154.667969 77.585938 155.125 77.410156 155.5625 C 77.230469 156 76.972656 156.417969 76.628906 156.8125 C 75.898438 157.679688 75.042969 158.117188 74.066406 158.125 C 73.097656 158.136719 72.121094 157.71875 71.128906 156.875 C 70.128906 156.03125 69.558594 155.132813 69.410156 154.171875 C 69.265625 153.203125 69.558594 152.289063 70.285156 151.421875 C 70.589844 151.070313 70.933594 150.773438 71.316406 150.53125 C 71.691406 150.292969 72.089844 150.121094 72.503906 150.015625 L 73.378906 150.765625 C 72.890625 150.820313 72.449219 150.949219 72.050781 151.15625 C 71.65625 151.355469 71.316406 151.625 71.035156 151.96875 C 70.464844 152.636719 70.238281 153.320313 70.363281 154.015625 C 70.488281 154.703125 70.964844 155.398438 71.785156 156.09375 C 72.609375 156.804688 73.375 157.167969 74.082031 157.1875 C 74.789063 157.199219 75.429688 156.871094 76.003906 156.203125 C 76.230469 155.933594 76.402344 155.671875 76.519531 155.421875 C 76.644531 155.171875 76.722656 154.921875 76.753906 154.671875 Z M 78.304688 149.0625 C 77.941406 149.679688 77.769531 150.15625 77.789063 150.5 C 77.800781 150.835938 77.992188 151.117188 78.367188 151.34375 C 78.660156 151.523438 78.945313 151.578125 79.226563 151.515625 C 79.515625 151.445313 79.757813 151.25 79.945313 150.9375 C 80.195313 150.511719 80.230469 150.074219 80.054688 149.625 C 79.875 149.167969 79.515625 148.773438 78.976563 148.4375 L 78.773438 148.3125 Z M 78.898438 147.34375 L 81.835938 149.125 L 81.367188 149.890625 L 80.585938 149.421875 C 80.792969 149.789063 80.890625 150.140625 80.882813 150.484375 C 80.882813 150.828125 80.765625 151.1875 80.539063 151.5625 C 80.246094 152.042969 79.867188 152.335938 79.398438 152.4375 C 78.941406 152.542969 78.460938 152.445313 77.960938 152.140625 C 77.390625 151.789063 77.0625 151.351563 76.976563 150.828125 C 76.882813 150.296875 77.050781 149.683594 77.476563 148.984375 L 78.117188 147.921875 L 78.039063 147.875 C 77.644531 147.636719 77.269531 147.570313 76.914063 147.671875 C 76.5625 147.765625 76.257813 148.023438 76.007813 148.4375 C 75.851563 148.699219 75.734375 148.980469 75.648438 149.28125 C 75.566406 149.585938 75.53125 149.890625 75.539063 150.203125 L 74.757813 149.734375 C 74.800781 149.371094 74.875 149.042969 74.976563 148.75 C 75.070313 148.460938 75.195313 148.1875 75.351563 147.9375 C 75.757813 147.273438 76.257813 146.886719 76.851563 146.78125 C 77.4375 146.679688 78.117188 146.867188 78.898438 147.34375 Z M 79.613281 142.136719 C 79.519531 142.210938 79.433594 142.292969 79.347656 142.386719 C 79.265625 142.480469 79.199219 142.589844 79.144531 142.714844 C 78.925781 143.175781 78.925781 143.601563 79.144531 143.996094 C 79.363281 144.394531 79.777344 144.730469 80.378906 145.011719 L 83.253906 146.371094 L 82.863281 147.183594 L 77.425781 144.621094 L 77.816406 143.808594 L 78.660156 144.214844 C 78.410156 143.894531 78.269531 143.558594 78.238281 143.214844 C 78.207031 142.863281 78.28125 142.492188 78.457031 142.105469 C 78.488281 142.054688 78.519531 141.996094 78.550781 141.933594 C 78.582031 141.863281 78.628906 141.789063 78.691406 141.714844 Z M 80.628906 137.988281 L 77.488281 137.175781 L 77.722656 136.316406 L 85.816406 138.394531 L 85.582031 139.253906 L 84.707031 139.035156 C 85.019531 139.296875 85.222656 139.589844 85.316406 139.910156 C 85.410156 140.234375 85.410156 140.589844 85.316406 140.972656 C 85.148438 141.609375 84.738281 142.058594 84.082031 142.316406 C 83.417969 142.566406 82.625 142.574219 81.707031 142.332031 C 80.792969 142.105469 80.105469 141.71875 79.644531 141.175781 C 79.175781 140.636719 79.027344 140.046875 79.191406 139.410156 C 79.285156 139.027344 79.453125 138.714844 79.691406 138.472656 C 79.933594 138.234375 80.246094 138.074219 80.628906 137.988281 Z M 81.925781 141.441406 C 82.636719 141.628906 83.222656 141.644531 83.691406 141.488281 C 84.152344 141.332031 84.4375 141.027344 84.550781 140.566406 C 84.675781 140.097656 84.570313 139.6875 84.238281 139.332031 C 83.90625 138.96875 83.386719 138.691406 82.675781 138.503906 C 81.96875 138.328125 81.386719 138.316406 80.925781 138.472656 C 80.46875 138.628906 80.175781 138.941406 80.050781 139.410156 C 79.9375 139.871094 80.046875 140.28125 80.378906 140.644531 C 80.703125 141 81.21875 141.265625 81.925781 141.441406 Z M 83.578125 131.292969 L 87.140625 131.996094 L 86.96875 132.871094 L 83.4375 132.167969 C 82.875 132.054688 82.4375 132.070313 82.125 132.214844 C 81.8125 132.363281 81.621094 132.628906 81.546875 133.011719 C 81.453125 133.480469 81.542969 133.882813 81.8125 134.214844 C 82.085938 134.550781 82.507813 134.773438 83.078125 134.886719 L 86.421875 135.558594 L 86.25 136.449219 L 80.34375 135.277344 L 80.515625 134.386719 L 81.4375 134.574219 C 81.125 134.304688 80.914063 134.011719 80.796875 133.699219 C 80.683594 133.378906 80.664063 133.023438 80.734375 132.636719 C 80.859375 132.042969 81.164063 131.632813 81.640625 131.402344 C 82.121094 131.164063 82.765625 131.128906 83.578125 131.292969 Z M 85.316406 125.105469 L 85.785156 125.214844 L 84.894531 129.214844 C 85.574219 129.320313 86.121094 129.253906 86.535156 129.011719 C 86.953125 128.761719 87.222656 128.351563 87.347656 127.777344 C 87.417969 127.445313 87.441406 127.113281 87.410156 126.777344 C 87.386719 126.445313 87.332031 126.101563 87.238281 125.746094 L 88.128906 125.949219 C 88.210938 126.292969 88.253906 126.636719 88.253906 126.980469 C 88.261719 127.324219 88.230469 127.664063 88.160156 127.996094 C 87.972656 128.839844 87.554688 129.449219 86.910156 129.824219 C 86.253906 130.199219 85.457031 130.285156 84.519531 130.074219 C 83.574219 129.867188 82.863281 129.464844 82.394531 128.871094 C 81.925781 128.277344 81.78125 127.585938 81.957031 126.792969 C 82.113281 126.074219 82.496094 125.570313 83.097656 125.277344 C 83.703125 124.976563 84.441406 124.917969 85.316406 125.105469 Z M 84.816406 125.917969 C 84.296875 125.816406 83.847656 125.855469 83.472656 126.042969 C 83.097656 126.230469 82.863281 126.539063 82.769531 126.964844 C 82.667969 127.457031 82.738281 127.882813 82.988281 128.246094 C 83.230469 128.601563 83.613281 128.855469 84.144531 129.011719 Z M 84.917969 120.222656 C 84.824219 120.296875 84.746094 120.390625 84.683594 120.503906 C 84.613281 120.609375 84.554688 120.730469 84.511719 120.863281 C 84.355469 121.34375 84.414063 121.765625 84.683594 122.128906 C 84.945313 122.496094 85.398438 122.78125 86.042969 122.988281 L 89.058594 123.972656 L 88.777344 124.832031 L 83.058594 122.972656 L 83.339844 122.113281 L 84.230469 122.410156 C 83.941406 122.121094 83.757813 121.800781 83.683594 121.457031 C 83.601563 121.113281 83.621094 120.738281 83.746094 120.332031 C 83.769531 120.28125 83.792969 120.21875 83.824219 120.144531 C 83.855469 120.074219 83.894531 120 83.933594 119.925781 Z M 88.328125 113.421875 C 88.464844 113.246094 88.683594 113.101563 88.984375 112.984375 C 89.289063 112.859375 89.683594 112.757813 90.171875 112.671875 L 92.546875 112.328125 L 92.265625 113.328125 L 90.03125 113.65625 C 89.460938 113.742188 89.058594 113.871094 88.828125 114.046875 C 88.589844 114.214844 88.417969 114.480469 88.3125 114.84375 L 88.03125 115.875 L 91.296875 116.796875 L 91.03125 117.734375 L 83.3125 115.5625 L 83.90625 113.453125 C 84.136719 112.652344 84.484375 112.109375 84.953125 111.828125 C 85.421875 111.539063 86.039063 111.496094 86.796875 111.703125 C 87.277344 111.839844 87.652344 112.058594 87.921875 112.359375 C 88.183594 112.652344 88.320313 113.007813 88.328125 113.421875 Z M 84.4375 114.875 L 87.171875 115.640625 L 87.5 114.46875 C 87.625 114 87.609375 113.621094 87.453125 113.328125 C 87.289063 113.027344 86.980469 112.8125 86.53125 112.6875 C 86.074219 112.5625 85.699219 112.585938 85.40625 112.75 C 85.105469 112.917969 84.890625 113.234375 84.765625 113.703125 Z M 87.914063 107.78125 C 87.84375 108.261719 87.992188 108.667969 88.367188 109 C 88.734375 109.335938 89.269531 109.554688 89.976563 109.65625 C 90.6875 109.773438 91.265625 109.726563 91.710938 109.515625 C 92.160156 109.296875 92.421875 108.949219 92.492188 108.46875 C 92.566406 108 92.421875 107.601563 92.054688 107.265625 C 91.691406 106.933594 91.15625 106.710938 90.445313 106.59375 C 89.738281 106.492188 89.160156 106.546875 88.710938 106.765625 C 88.253906 106.976563 87.988281 107.3125 87.914063 107.78125 Z M 87.085938 107.65625 C 87.203125 106.898438 87.570313 106.339844 88.195313 105.984375 C 88.8125 105.632813 89.609375 105.527344 90.585938 105.671875 C 91.554688 105.820313 92.285156 106.15625 92.773438 106.6875 C 93.261719 107.210938 93.449219 107.851563 93.335938 108.609375 C 93.21875 109.382813 92.851563 109.9375 92.226563 110.28125 C 91.601563 110.625 90.804688 110.726563 89.835938 110.578125 C 88.859375 110.433594 88.128906 110.105469 87.648438 109.59375 C 87.160156 109.074219 86.972656 108.429688 87.085938 107.65625 Z M 90.535156 101.589844 C 90.558594 102.308594 90.667969 102.804688 90.863281 103.074219 C 91.0625 103.347656 91.378906 103.476563 91.816406 103.464844 C 92.160156 103.457031 92.4375 103.339844 92.644531 103.121094 C 92.84375 102.902344 92.9375 102.617188 92.925781 102.261719 C 92.90625 101.761719 92.699219 101.371094 92.300781 101.089844 C 91.894531 100.808594 91.375 100.679688 90.738281 100.699219 L 90.503906 100.699219 Z M 90.066406 99.824219 L 93.503906 99.714844 L 93.535156 100.605469 L 92.628906 100.636719 C 93.003906 100.835938 93.285156 101.085938 93.472656 101.386719 C 93.652344 101.679688 93.742188 102.042969 93.753906 102.480469 C 93.773438 103.035156 93.621094 103.480469 93.285156 103.824219 C 92.953125 104.160156 92.496094 104.335938 91.910156 104.355469 C 91.234375 104.378906 90.71875 104.191406 90.363281 103.792969 C 90 103.398438 89.808594 102.792969 89.785156 101.980469 L 89.738281 100.730469 L 89.644531 100.730469 C 89.1875 100.742188 88.839844 100.886719 88.597656 101.167969 C 88.359375 101.449219 88.246094 101.835938 88.253906 102.324219 C 88.265625 102.628906 88.316406 102.925781 88.410156 103.214844 C 88.503906 103.507813 88.640625 103.789063 88.816406 104.058594 L 87.910156 104.089844 C 87.753906 103.757813 87.640625 103.445313 87.566406 103.152344 C 87.484375 102.851563 87.4375 102.554688 87.425781 102.261719 C 87.40625 101.480469 87.613281 100.886719 88.050781 100.480469 C 88.480469 100.074219 89.152344 99.855469 90.066406 99.824219 Z M 88.183594 94.503906 L 84.933594 94.644531 L 84.902344 93.753906 L 93.261719 93.410156 L 93.292969 94.300781 L 92.386719 94.332031 C 92.761719 94.511719 93.042969 94.738281 93.230469 95.019531 C 93.410156 95.300781 93.503906 95.640625 93.527344 96.035156 C 93.546875 96.691406 93.285156 97.238281 92.730469 97.675781 C 92.167969 98.105469 91.414063 98.339844 90.464844 98.378906 C 89.519531 98.421875 88.746094 98.25 88.152344 97.863281 C 87.550781 97.46875 87.238281 96.941406 87.214844 96.285156 C 87.195313 95.890625 87.269531 95.546875 87.433594 95.253906 C 87.589844 94.964844 87.839844 94.714844 88.183594 94.503906 Z M 90.417969 97.457031 C 91.148438 97.425781 91.714844 97.269531 92.121094 96.988281 C 92.519531 96.707031 92.707031 96.332031 92.683594 95.863281 C 92.664063 95.386719 92.445313 95.019531 92.027344 94.769531 C 91.601563 94.511719 91.023438 94.394531 90.292969 94.425781 C 89.566406 94.457031 89.003906 94.621094 88.605469 94.910156 C 88.199219 95.191406 88.007813 95.574219 88.027344 96.050781 C 88.050781 96.519531 88.273438 96.878906 88.699219 97.128906 C 89.117188 97.378906 89.691406 97.488281 90.417969 97.457031 Z M 90.417969 97.457031 "/>
<path style=" stroke:none;fill-rule:evenodd;fill:rgb(20%,20%,20%);fill-opacity:1;" d="M 76.753906 154.671875 L 75.113281 153.265625 L 74.082031 154.484375 L 73.410156 153.90625 L 75.066406 151.953125 L 77.675781 154.1875 C 77.675781 154.667969 77.585938 155.125 77.410156 155.5625 C 77.230469 156 76.972656 156.417969 76.628906 156.8125 C 75.898438 157.679688 75.042969 158.117188 74.066406 158.125 C 73.097656 158.136719 72.121094 157.71875 71.128906 156.875 C 70.128906 156.03125 69.558594 155.132813 69.410156 154.171875 C 69.265625 153.203125 69.558594 152.289063 70.285156 151.421875 C 70.589844 151.070313 70.933594 150.773438 71.316406 150.53125 C 71.691406 150.292969 72.089844 150.121094 72.503906 150.015625 L 73.378906 150.765625 C 72.890625 150.820313 72.449219 150.949219 72.050781 151.15625 C 71.65625 151.355469 71.316406 151.625 71.035156 151.96875 C 70.464844 152.636719 70.238281 153.320313 70.363281 154.015625 C 70.488281 154.703125 70.964844 155.398438 71.785156 156.09375 C 72.609375 156.804688 73.375 157.167969 74.082031 157.1875 C 74.789063 157.199219 75.429688 156.871094 76.003906 156.203125 C 76.230469 155.933594 76.402344 155.671875 76.519531 155.421875 C 76.644531 155.171875 76.722656 154.921875 76.753906 154.671875 Z M 78.304688 149.0625 C 77.941406 149.679688 77.769531 150.15625 77.789063 150.5 C 77.800781 150.835938 77.992188 151.117188 78.367188 151.34375 C 78.660156 151.523438 78.945313 151.578125 79.226563 151.515625 C 79.515625 151.445313 79.757813 151.25 79.945313 150.9375 C 80.195313 150.511719 80.230469 150.074219 80.054688 149.625 C 79.875 149.167969 79.515625 148.773438 78.976563 148.4375 L 78.773438 148.3125 Z M 78.898438 147.34375 L 81.835938 149.125 L 81.367188 149.890625 L 80.585938 149.421875 C 80.792969 149.789063 80.890625 150.140625 80.882813 150.484375 C 80.882813 150.828125 80.765625 151.1875 80.539063 151.5625 C 80.246094 152.042969 79.867188 152.335938 79.398438 152.4375 C 78.941406 152.542969 78.460938 152.445313 77.960938 152.140625 C 77.390625 151.789063 77.0625 151.351563 76.976563 150.828125 C 76.882813 150.296875 77.050781 149.683594 77.476563 148.984375 L 78.117188 147.921875 L 78.039063 147.875 C 77.644531 147.636719 77.269531 147.570313 76.914063 147.671875 C 76.5625 147.765625 76.257813 148.023438 76.007813 148.4375 C 75.851563 148.699219 75.734375 148.980469 75.648438 149.28125 C 75.566406 149.585938 75.53125 149.890625 75.539063 150.203125 L 74.757813 149.734375 C 74.800781 149.371094 74.875 149.042969 74.976563 148.75 C 75.070313 148.460938 75.195313 148.1875 75.351563 147.9375 C 75.757813 147.273438 76.257813 146.886719 76.851563 146.78125 C 77.4375 146.679688 78.117188 146.867188 78.898438 147.34375 Z M 79.613281 142.136719 C 79.519531 142.210938 79.433594 142.292969 79.347656 142.386719 C 79.265625 142.480469 79.199219 142.589844 79.144531 142.714844 C 78.925781 143.175781 78.925781 143.601563 79.144531 143.996094 C 79.363281 144.394531 79.777344 144.730469 80.378906 145.011719 L 83.253906 146.371094 L 82.863281 147.183594 L 77.425781 144.621094 L 77.816406 143.808594 L 78.660156 144.214844 C 78.410156 143.894531 78.269531 143.558594 78.238281 143.214844 C 78.207031 142.863281 78.28125 142.492188 78.457031 142.105469 C 78.488281 142.054688 78.519531 141.996094 78.550781 141.933594 C 78.582031 141.863281 78.628906 141.789063 78.691406 141.714844 Z M 80.628906 137.988281 L 77.488281 137.175781 L 77.722656 136.316406 L 85.816406 138.394531 L 85.582031 139.253906 L 84.707031 139.035156 C 85.019531 139.296875 85.222656 139.589844 85.316406 139.910156 C 85.410156 140.234375 85.410156 140.589844 85.316406 140.972656 C 85.148438 141.609375 84.738281 142.058594 84.082031 142.316406 C 83.417969 142.566406 82.625 142.574219 81.707031 142.332031 C 80.792969 142.105469 80.105469 141.71875 79.644531 141.175781 C 79.175781 140.636719 79.027344 140.046875 79.191406 139.410156 C 79.285156 139.027344 79.453125 138.714844 79.691406 138.472656 C 79.933594 138.234375 80.246094 138.074219 80.628906 137.988281 Z M 81.925781 141.441406 C 82.636719 141.628906 83.222656 141.644531 83.691406 141.488281 C 84.152344 141.332031 84.4375 141.027344 84.550781 140.566406 C 84.675781 140.097656 84.570313 139.6875 84.238281 139.332031 C 83.90625 138.96875 83.386719 138.691406 82.675781 138.503906 C 81.96875 138.328125 81.386719 138.316406 80.925781 138.472656 C 80.46875 138.628906 80.175781 138.941406 80.050781 139.410156 C 79.9375 139.871094 80.046875 140.28125 80.378906 140.644531 C 80.703125 141 81.21875 141.265625 81.925781 141.441406 Z M 83.578125 131.292969 L 87.140625 131.996094 L 86.96875 132.871094 L 83.4375 132.167969 C 82.875 132.054688 82.4375 132.070313 82.125 132.214844 C 81.8125 132.363281 81.621094 132.628906 81.546875 133.011719 C 81.453125 133.480469 81.542969 133.882813 81.8125 134.214844 C 82.085938 134.550781 82.507813 134.773438 83.078125 134.886719 L 86.421875 135.558594 L 86.25 136.449219 L 80.34375 135.277344 L 80.515625 134.386719 L 81.4375 134.574219 C 81.125 134.304688 80.914063 134.011719 80.796875 133.699219 C 80.683594 133.378906 80.664063 133.023438 80.734375 132.636719 C 80.859375 132.042969 81.164063 131.632813 81.640625 131.402344 C 82.121094 131.164063 82.765625 131.128906 83.578125 131.292969 Z M 85.316406 125.105469 L 85.785156 125.214844 L 84.894531 129.214844 C 85.574219 129.320313 86.121094 129.253906 86.535156 129.011719 C 86.953125 128.761719 87.222656 128.351563 87.347656 127.777344 C 87.417969 127.445313 87.441406 127.113281 87.410156 126.777344 C 87.386719 126.445313 87.332031 126.101563 87.238281 125.746094 L 88.128906 125.949219 C 88.210938 126.292969 88.253906 126.636719 88.253906 126.980469 C 88.261719 127.324219 88.230469 127.664063 88.160156 127.996094 C 87.972656 128.839844 87.554688 129.449219 86.910156 129.824219 C 86.253906 130.199219 85.457031 130.285156 84.519531 130.074219 C 83.574219 129.867188 82.863281 129.464844 82.394531 128.871094 C 81.925781 128.277344 81.78125 127.585938 81.957031 126.792969 C 82.113281 126.074219 82.496094 125.570313 83.097656 125.277344 C 83.703125 124.976563 84.441406 124.917969 85.316406 125.105469 Z M 84.816406 125.917969 C 84.296875 125.816406 83.847656 125.855469 83.472656 126.042969 C 83.097656 126.230469 82.863281 126.539063 82.769531 126.964844 C 82.667969 127.457031 82.738281 127.882813 82.988281 128.246094 C 83.230469 128.601563 83.613281 128.855469 84.144531 129.011719 Z M 84.917969 120.222656 C 84.824219 120.296875 84.746094 120.390625 84.683594 120.503906 C 84.613281 120.609375 84.554688 120.730469 84.511719 120.863281 C 84.355469 121.34375 84.414063 121.765625 84.683594 122.128906 C 84.945313 122.496094 85.398438 122.78125 86.042969 122.988281 L 89.058594 123.972656 L 88.777344 124.832031 L 83.058594 122.972656 L 83.339844 122.113281 L 84.230469 122.410156 C 83.941406 122.121094 83.757813 121.800781 83.683594 121.457031 C 83.601563 121.113281 83.621094 120.738281 83.746094 120.332031 C 83.769531 120.28125 83.792969 120.21875 83.824219 120.144531 C 83.855469 120.074219 83.894531 120 83.933594 119.925781 Z M 88.328125 113.421875 C 88.464844 113.246094 88.683594 113.101563 88.984375 112.984375 C 89.289063 112.859375 89.683594 112.757813 90.171875 112.671875 L 92.546875 112.328125 L 92.265625 113.328125 L 90.03125 113.65625 C 89.460938 113.742188 89.058594 113.871094 88.828125 114.046875 C 88.589844 114.214844 88.417969 114.480469 88.3125 114.84375 L 88.03125 115.875 L 91.296875 116.796875 L 91.03125 117.734375 L 83.3125 115.5625 L 83.90625 113.453125 C 84.136719 112.652344 84.484375 112.109375 84.953125 111.828125 C 85.421875 111.539063 86.039063 111.496094 86.796875 111.703125 C 87.277344 111.839844 87.652344 112.058594 87.921875 112.359375 C 88.183594 112.652344 88.320313 113.007813 88.328125 113.421875 Z M 84.4375 114.875 L 87.171875 115.640625 L 87.5 114.46875 C 87.625 114 87.609375 113.621094 87.453125 113.328125 C 87.289063 113.027344 86.980469 112.8125 86.53125 112.6875 C 86.074219 112.5625 85.699219 112.585938 85.40625 112.75 C 85.105469 112.917969 84.890625 113.234375 84.765625 113.703125 Z M 87.914063 107.78125 C 87.84375 108.261719 87.992188 108.667969 88.367188 109 C 88.734375 109.335938 89.269531 109.554688 89.976563 109.65625 C 90.6875 109.773438 91.265625 109.726563 91.710938 109.515625 C 92.160156 109.296875 92.421875 108.949219 92.492188 108.46875 C 92.566406 108 92.421875 107.601563 92.054688 107.265625 C 91.691406 106.933594 91.15625 106.710938 90.445313 106.59375 C 89.738281 106.492188 89.160156 106.546875 88.710938 106.765625 C 88.253906 106.976563 87.988281 107.3125 87.914063 107.78125 Z M 87.085938 107.65625 C 87.203125 106.898438 87.570313 106.339844 88.195313 105.984375 C 88.8125 105.632813 89.609375 105.527344 90.585938 105.671875 C 91.554688 105.820313 92.285156 106.15625 92.773438 106.6875 C 93.261719 107.210938 93.449219 107.851563 93.335938 108.609375 C 93.21875 109.382813 92.851563 109.9375 92.226563 110.28125 C 91.601563 110.625 90.804688 110.726563 89.835938 110.578125 C 88.859375 110.433594 88.128906 110.105469 87.648438 109.59375 C 87.160156 109.074219 86.972656 108.429688 87.085938 107.65625 Z M 90.535156 101.589844 C 90.558594 102.308594 90.667969 102.804688 90.863281 103.074219 C 91.0625 103.347656 91.378906 103.476563 91.816406 103.464844 C 92.160156 103.457031 92.4375 103.339844 92.644531 103.121094 C 92.84375 102.902344 92.9375 102.617188 92.925781 102.261719 C 92.90625 101.761719 92.699219 101.371094 92.300781 101.089844 C 91.894531 100.808594 91.375 100.679688 90.738281 100.699219 L 90.503906 100.699219 Z M 90.066406 99.824219 L 93.503906 99.714844 L 93.535156 100.605469 L 92.628906 100.636719 C 93.003906 100.835938 93.285156 101.085938 93.472656 101.386719 C 93.652344 101.679688 93.742188 102.042969 93.753906 102.480469 C 93.773438 103.035156 93.621094 103.480469 93.285156 103.824219 C 92.953125 104.160156 92.496094 104.335938 91.910156 104.355469 C 91.234375 104.378906 90.71875 104.191406 90.363281 103.792969 C 90 103.398438 89.808594 102.792969 89.785156 101.980469 L 89.738281 100.730469 L 89.644531 100.730469 C 89.1875 100.742188 88.839844 100.886719 88.597656 101.167969 C 88.359375 101.449219 88.246094 101.835938 88.253906 102.324219 C 88.265625 102.628906 88.316406 102.925781 88.410156 103.214844 C 88.503906 103.507813 88.640625 103.789063 88.816406 104.058594 L 87.910156 104.089844 C 87.753906 103.757813 87.640625 103.445313 87.566406 103.152344 C 87.484375 102.851563 87.4375 102.554688 87.425781 102.261719 C 87.40625 101.480469 87.613281 100.886719 88.050781 100.480469 C 88.480469 100.074219 89.152344 99.855469 90.066406 99.824219 Z M 88.183594 94.503906 L 84.933594 94.644531 L 84.902344 93.753906 L 93.261719 93.410156 L 93.292969 94.300781 L 92.386719 94.332031 C 92.761719 94.511719 93.042969 94.738281 93.230469 95.019531 C 93.410156 95.300781 93.503906 95.640625 93.527344 96.035156 C 93.546875 96.691406 93.285156 97.238281 92.730469 97.675781 C 92.167969 98.105469 91.414063 98.339844 90.464844 98.378906 C 89.519531 98.421875 88.746094 98.25 88.152344 97.863281 C 87.550781 97.46875 87.238281 96.941406 87.214844 96.285156 C 87.195313 95.890625 87.269531 95.546875 87.433594 95.253906 C 87.589844 94.964844 87.839844 94.714844 88.183594 94.503906 Z M 90.417969 97.457031 C 91.148438 97.425781 91.714844 97.269531 92.121094 96.988281 C 92.519531 96.707031 92.707031 96.332031 92.683594 95.863281 C 92.664063 95.386719 92.445313 95.019531 92.027344 94.769531 C 91.601563 94.511719 91.023438 94.394531 90.292969 94.425781 C 89.566406 94.457031 89.003906 94.621094 88.605469 94.910156 C 88.199219 95.191406 88.007813 95.574219 88.027344 96.050781 C 88.050781 96.519531 88.273438 96.878906 88.699219 97.128906 C 89.117188 97.378906 89.691406 97.488281 90.417969 97.457031 Z M 90.417969 97.457031 "/>
</g>
</svg>

