<?xml version="1.0" encoding="UTF-8"?>
<svg xmlns="http://www.w3.org/2000/svg" xmlns:xlink="http://www.w3.org/1999/xlink" width="256pt" height="256pt" viewBox="0 0 256 256" version="1.1">
<g id="surface2">
<rect x="0" y="0" width="256" height="256" style="fill:rgb(94.901961%,93.72549%,91.372549%);fill-opacity:1;stroke:none;"/>
<path style="fill:none;stroke-width:1;stroke-linecap:butt;stroke-linejoin:round;stroke:rgb(46.666667%,46.666667%,46.666667%);stroke-opacity:1;stroke-dasharray:2,2;stroke-miterlimit:10;" d="M 148.921875 -2 L 157.660156 4.996094 L 167.167969 13.144531 L 200.328125 38.816406 L 249.609375 77.425781 L 257 83.542969 "/>
<path style="fill:none;stroke-width:8;stroke-linecap:round;stroke-linejoin:round;stroke:rgb(75.686275%,70.980392%,61.568627%);stroke-opacity:1;stroke-miterlimit:10;" d="M 7.972656 236.375 L -9 250.910156 "/>
<path style="fill:none;stroke-width:8;stroke-linecap:round;stroke-linejoin:round;stroke:rgb(75.686275%,70.980392%,61.568627%);stroke-opacity:1;stroke-miterlimit:10;" d="M 13.84375 184.554688 L 21.066406 190.164063 L 28.710938 195.839844 L 34.558594 204.109375 L 35.539063 210.703125 L 31.648438 214.601563 L 26.425781 218.246094 L 18.691406 221.382813 L 12.167969 224.394531 L 4.359375 231.9375 "/>
<path style="fill:none;stroke-width:9;stroke-linecap:round;stroke-linejoin:round;stroke:rgb(75.686275%,70.980392%,61.568627%);stroke-opacity:1;stroke-miterlimit:10;" d="M -10 214.210938 L -7.59375 217.230469 L 4.359375 231.9375 L 7.972656 236.375 L 8.625 237.167969 L 31.996094 264.457031 L 32.542969 265 "/>
<path style="fill:none;stroke-width:6;stroke-linecap:round;stroke-linejoin:round;stroke:rgb(100%,100%,100%);stroke-opacity:1;stroke-miterlimit:10;" d="M 7.972656 236.375 L -9 250.910156 "/>
<path style="fill:none;stroke-width:6;stroke-linecap:round;stroke-linejoin:round;stroke:rgb(100%,100%,100%);stroke-opacity:1;stroke-miterlimit:10;" d="M 13.84375 184.554688 L 21.066406 190.164063 L 28.710938 195.839844 L 34.558594 204.109375 L 35.539063 210.703125 L 31.648438 214.601563 L 26.425781 218.246094 L 18.691406 221.382813 L 12.167969 224.394531 L 4.359375 231.9375 "/>
<path style="fill:none;stroke-width:7;stroke-linecap:round;stroke-linejoin:round;stroke:rgb(100%,99.215686%,54.509804%);stroke-opacity:1;stroke-miterlimit:10;" d="M -10 214.210938 L -7.59375 217.230469 L 4.359375 231.9375 L 7.972656 236.375 L 8.625 237.167969 L 31.996094 264.457031 L 32.542969 265 "/>
</g>
</svg>

