<?xml version="1.0" encoding="UTF-8"?>
<svg xmlns="http://www.w3.org/2000/svg" xmlns:xlink="http://www.w3.org/1999/xlink" width="256pt" height="256pt" viewBox="0 0 256 256" version="1.1">
<g id="surface2">
<rect x="0" y="0" width="256" height="256" style="fill:rgb(60%,70.196078%,80%);fill-opacity:1;stroke:none;"/>
<path style="fill:none;stroke-width:1;stroke-linecap:round;stroke-linejoin:round;stroke:rgb(70.196078%,77.647059%,83.137255%);stroke-opacity:1;stroke-miterlimit:10;" d="M -4 259 L 259 259 L 259 -4 L -4 -4 L -4 259 "/>
<path style="fill:none;stroke-width:6;stroke-linecap:round;stroke-linejoin:round;stroke:rgb(60%,70.196078%,80%);stroke-opacity:1;stroke-miterlimit:10;" d="M 262 17.597656 L 117.265625 214.675781 "/>
<path style="fill:none;stroke-width:6;stroke-linecap:round;stroke-linejoin:round;stroke:rgb(60%,70.196078%,80%);stroke-opacity:1;stroke-miterlimit:10;" d="M 117.265625 214.675781 L 104.308594 262 "/>
<path style="fill:none;stroke-width:3;stroke-linecap:round;stroke-linejoin:round;stroke:rgb(100%,100%,100%);stroke-opacity:1;stroke-miterlimit:10;" d="M 163.398438 144.027344 L 164.070313 143.121094 L 167.195313 145.417969 L 169.679688 142.027344 L 166.554688 139.730469 L 167.242188 138.792969 L 174.882813 144.402344 L 174.195313 145.339844 L 170.554688 142.667969 L 168.070313 146.058594 L 171.710938 148.730469 L 171.039063 149.636719 Z M 173.886719 141 L 170.417969 138.46875 L 171.042969 137.625 L 174.480469 140.140625 C 175.023438 140.539063 175.496094 140.746094 175.902344 140.765625 C 176.308594 140.777344 176.652344 140.59375 176.933594 140.21875 C 177.265625 139.761719 177.371094 139.28125 177.246094 138.78125 C 177.121094 138.273438 176.777344 137.808594 176.214844 137.390625 L 172.964844 135.015625 L 173.589844 134.15625 L 179.324219 138.359375 L 178.699219 139.21875 L 177.824219 138.578125 C 178.011719 139.027344 178.089844 139.453125 178.058594 139.859375 C 178.035156 140.257813 177.894531 140.632813 177.636719 140.984375 C 177.199219 141.578125 176.660156 141.875 176.027344 141.875 C 175.394531 141.875 174.679688 141.585938 173.886719 141 Z M 171.839844 136.234375 Z M 178.230469 129.660156 L 175.136719 127.378906 L 175.761719 126.535156 L 183.714844 132.378906 L 183.089844 133.222656 L 182.230469 132.597656 C 182.4375 133.015625 182.527344 133.421875 182.496094 133.816406 C 182.464844 134.214844 182.3125 134.605469 182.042969 134.988281 C 181.574219 135.613281 180.917969 135.921875 180.074219 135.910156 C 179.230469 135.890625 178.363281 135.550781 177.464844 134.894531 C 176.570313 134.230469 175.988281 133.5 175.714844 132.707031 C 175.445313 131.90625 175.542969 131.191406 176.011719 130.566406 C 176.285156 130.183594 176.605469 129.917969 176.980469 129.769531 C 177.347656 129.613281 177.761719 129.578125 178.230469 129.660156 Z M 178.121094 134.019531 C 178.808594 134.519531 179.445313 134.785156 180.027344 134.816406 C 180.609375 134.847656 181.0625 134.644531 181.386719 134.207031 C 181.71875 133.75 181.78125 133.25 181.574219 132.707031 C 181.363281 132.15625 180.917969 131.628906 180.230469 131.128906 C 179.535156 130.621094 178.898438 130.347656 178.324219 130.316406 C 177.742188 130.277344 177.285156 130.484375 176.949219 130.941406 C 176.628906 131.378906 176.570313 131.875 176.777344 132.425781 C 176.976563 132.980469 177.425781 133.511719 178.121094 134.019531 Z M 181.859375 123.238281 L 182.75 123.894531 C 182.429688 124.050781 182.140625 124.234375 181.890625 124.441406 C 181.632813 124.640625 181.402344 124.878906 181.203125 125.160156 C 180.890625 125.578125 180.730469 125.949219 180.71875 126.269531 C 180.710938 126.59375 180.84375 126.859375 181.125 127.066406 C 181.34375 127.222656 181.574219 127.269531 181.8125 127.207031 C 182.042969 127.136719 182.386719 126.921875 182.84375 126.566406 L 183.109375 126.332031 C 183.695313 125.832031 184.210938 125.550781 184.65625 125.488281 C 185.101563 125.425781 185.554688 125.5625 186.015625 125.894531 C 186.554688 126.292969 186.84375 126.796875 186.875 127.410156 C 186.914063 128.015625 186.691406 128.652344 186.203125 129.316406 C 186.003906 129.578125 185.757813 129.84375 185.46875 130.113281 C 185.1875 130.375 184.863281 130.621094 184.5 130.847656 L 183.53125 130.128906 C 183.949219 129.953125 184.3125 129.75 184.625 129.519531 C 184.9375 129.28125 185.203125 129.011719 185.421875 128.707031 C 185.710938 128.3125 185.859375 127.953125 185.859375 127.628906 C 185.867188 127.308594 185.734375 127.042969 185.453125 126.832031 C 185.203125 126.644531 184.953125 126.582031 184.703125 126.644531 C 184.453125 126.699219 184.074219 126.9375 183.5625 127.363281 L 183.28125 127.582031 C 182.761719 128.019531 182.289063 128.265625 181.859375 128.316406 C 181.433594 128.371094 180.996094 128.230469 180.546875 127.894531 C 180.015625 127.511719 179.734375 127.035156 179.703125 126.472656 C 179.664063 125.902344 179.871094 125.300781 180.328125 124.675781 C 180.558594 124.363281 180.804688 124.089844 181.0625 123.847656 C 181.3125 123.609375 181.578125 123.40625 181.859375 123.238281 Z M 184.996094 119.984375 C 184.664063 120.445313 184.597656 120.953125 184.792969 121.515625 C 184.992188 122.070313 185.433594 122.601563 186.121094 123.109375 C 186.808594 123.609375 187.445313 123.871094 188.027344 123.890625 C 188.621094 123.914063 189.082031 123.695313 189.417969 123.234375 C 189.75 122.789063 189.8125 122.289063 189.605469 121.734375 C 189.40625 121.183594 188.96875 120.65625 188.292969 120.15625 C 187.617188 119.65625 186.980469 119.390625 186.386719 119.359375 C 185.792969 119.328125 185.332031 119.539063 184.996094 119.984375 Z M 184.199219 119.40625 C 184.742188 118.679688 185.433594 118.296875 186.277344 118.265625 C 187.121094 118.234375 188.011719 118.570313 188.949219 119.265625 C 189.886719 119.953125 190.46875 120.703125 190.699219 121.515625 C 190.925781 122.328125 190.769531 123.101563 190.230469 123.828125 C 189.675781 124.570313 188.980469 124.953125 188.136719 124.984375 C 187.292969 125.015625 186.402344 124.6875 185.464844 124 C 184.527344 123.304688 183.945313 122.546875 183.714844 121.734375 C 183.488281 120.921875 183.648438 120.148438 184.199219 119.40625 Z M 192.515625 113.121094 L 195.984375 115.667969 L 195.375 116.511719 L 191.953125 113.996094 C 191.402344 113.601563 190.921875 113.402344 190.515625 113.402344 C 190.101563 113.394531 189.757813 113.574219 189.484375 113.949219 C 189.152344 114.410156 189.054688 114.886719 189.1875 115.386719 C 189.3125 115.878906 189.65625 116.332031 190.21875 116.746094 L 193.453125 119.121094 L 192.8125 119.980469 L 187.078125 115.777344 L 187.71875 114.917969 L 188.625 115.574219 C 188.417969 115.117188 188.328125 114.691406 188.359375 114.292969 C 188.382813 113.898438 188.527344 113.519531 188.796875 113.152344 C 189.226563 112.570313 189.757813 112.277344 190.390625 112.277344 C 191.027344 112.269531 191.734375 112.550781 192.515625 113.121094 Z M 198.28125 105.050781 C 198.5 104.90625 198.796875 104.832031 199.171875 104.832031 C 199.554688 104.824219 200.035156 104.875 200.609375 104.988281 L 203.390625 105.582031 L 202.65625 106.582031 L 200.046875 106.035156 C 199.367188 105.878906 198.875 105.847656 198.5625 105.941406 C 198.242188 106.027344 197.945313 106.25 197.671875 106.613281 L 196.921875 107.644531 L 200.140625 110.019531 L 199.46875 110.925781 L 191.828125 105.316406 L 193.359375 103.238281 C 193.945313 102.449219 194.558594 101.996094 195.203125 101.878906 C 195.851563 101.753906 196.542969 101.964844 197.28125 102.503906 C 197.761719 102.859375 198.089844 103.253906 198.265625 103.691406 C 198.433594 104.121094 198.4375 104.574219 198.28125 105.050781 Z M 193.359375 105.035156 L 196.0625 107.019531 L 196.921875 105.847656 C 197.257813 105.390625 197.390625 104.96875 197.328125 104.582031 C 197.265625 104.1875 197.011719 103.824219 196.5625 103.488281 C 196.117188 103.167969 195.699219 103.035156 195.3125 103.097656 C 194.917969 103.152344 194.554688 103.40625 194.21875 103.863281 Z M 198.511719 100.21875 L 199.136719 99.375 L 204.871094 103.578125 L 204.246094 104.421875 Z M 196.292969 98.578125 L 196.917969 97.734375 L 198.105469 98.609375 L 197.480469 99.453125 Z M 199.984375 98.210938 L 200.640625 97.320313 L 206.640625 99.242188 L 203.015625 94.101563 L 203.671875 93.195313 L 207.984375 99.335938 L 207.140625 100.476563 Z M 210.40625 89.539063 L 210.859375 89.882813 L 208 93.789063 C 208.6875 94.226563 209.3125 94.410156 209.875 94.335938 C 210.4375 94.265625 210.925781 93.945313 211.34375 93.382813 C 211.582031 93.0625 211.765625 92.71875 211.890625 92.351563 C 212.023438 91.988281 212.117188 91.585938 212.171875 91.148438 L 213.0625 91.804688 C 212.976563 92.210938 212.859375 92.601563 212.703125 92.976563 C 212.546875 93.351563 212.347656 93.703125 212.109375 94.023438 C 211.503906 94.847656 210.753906 95.304688 209.859375 95.398438 C 208.976563 95.492188 208.078125 95.207031 207.171875 94.539063 C 206.234375 93.851563 205.664063 93.078125 205.453125 92.210938 C 205.234375 91.347656 205.40625 90.53125 205.96875 89.757813 C 206.480469 89.0625 207.136719 88.695313 207.9375 88.664063 C 208.730469 88.625 209.554688 88.914063 210.40625 89.539063 Z M 209.5 90.179688 C 208.992188 89.804688 208.484375 89.632813 207.984375 89.664063 C 207.484375 89.6875 207.085938 89.90625 206.78125 90.320313 C 206.429688 90.800781 206.296875 91.289063 206.390625 91.789063 C 206.476563 92.289063 206.773438 92.757813 207.28125 93.195313 Z M 211.875 83.871094 C 211.75 83.925781 211.632813 83.996094 211.515625 84.089844 C 211.402344 84.175781 211.292969 84.285156 211.1875 84.417969 C 210.84375 84.898438 210.757813 85.394531 210.921875 85.902344 C 211.078125 86.402344 211.480469 86.894531 212.125 87.371094 L 215.140625 89.589844 L 214.5 90.449219 L 208.765625 86.246094 L 209.40625 85.386719 L 210.3125 86.042969 C 210.085938 85.605469 209.992188 85.183594 210.03125 84.777344 C 210.0625 84.371094 210.230469 83.964844 210.53125 83.558594 C 210.574219 83.496094 210.625 83.433594 210.6875 83.371094 C 210.75 83.308594 210.824219 83.242188 210.90625 83.167969 Z M 211.875 83.871094 "/>
<path style=" stroke:none;fill-rule:evenodd;fill:rgb(41.960784%,58.039216%,69.019608%);fill-opacity:1;" d="M 163.398438 144.027344 L 164.070313 143.121094 L 167.195313 145.417969 L 169.679688 142.027344 L 166.554688 139.730469 L 167.242188 138.792969 L 174.882813 144.402344 L 174.195313 145.339844 L 170.554688 142.667969 L 168.070313 146.058594 L 171.710938 148.730469 L 171.039063 149.636719 Z M 173.886719 141 L 170.417969 138.46875 L 171.042969 137.625 L 174.480469 140.140625 C 175.023438 140.539063 175.496094 140.746094 175.902344 140.765625 C 176.308594 140.777344 176.652344 140.59375 176.933594 140.21875 C 177.265625 139.761719 177.371094 139.28125 177.246094 138.78125 C 177.121094 138.273438 176.777344 137.808594 176.214844 137.390625 L 172.964844 135.015625 L 173.589844 134.15625 L 179.324219 138.359375 L 178.699219 139.21875 L 177.824219 138.578125 C 178.011719 139.027344 178.089844 139.453125 178.058594 139.859375 C 178.035156 140.257813 177.894531 140.632813 177.636719 140.984375 C 177.199219 141.578125 176.660156 141.875 176.027344 141.875 C 175.394531 141.875 174.679688 141.585938 173.886719 141 Z M 171.839844 136.234375 Z M 178.230469 129.660156 L 175.136719 127.378906 L 175.761719 126.535156 L 183.714844 132.378906 L 183.089844 133.222656 L 182.230469 132.597656 C 182.4375 133.015625 182.527344 133.421875 182.496094 133.816406 C 182.464844 134.214844 182.3125 134.605469 182.042969 134.988281 C 181.574219 135.613281 180.917969 135.921875 180.074219 135.910156 C 179.230469 135.890625 178.363281 135.550781 177.464844 134.894531 C 176.570313 134.230469 175.988281 133.5 175.714844 132.707031 C 175.445313 131.90625 175.542969 131.191406 176.011719 130.566406 C 176.285156 130.183594 176.605469 129.917969 176.980469 129.769531 C 177.347656 129.613281 177.761719 129.578125 178.230469 129.660156 Z M 178.121094 134.019531 C 178.808594 134.519531 179.445313 134.785156 180.027344 134.816406 C 180.609375 134.847656 181.0625 134.644531 181.386719 134.207031 C 181.71875 133.75 181.78125 133.25 181.574219 132.707031 C 181.363281 132.15625 180.917969 131.628906 180.230469 131.128906 C 179.535156 130.621094 178.898438 130.347656 178.324219 130.316406 C 177.742188 130.277344 177.285156 130.484375 176.949219 130.941406 C 176.628906 131.378906 176.570313 131.875 176.777344 132.425781 C 176.976563 132.980469 177.425781 133.511719 178.121094 134.019531 Z M 181.859375 123.238281 L 182.75 123.894531 C 182.429688 124.050781 182.140625 124.234375 181.890625 124.441406 C 181.632813 124.640625 181.402344 124.878906 181.203125 125.160156 C 180.890625 125.578125 180.730469 125.949219 180.71875 126.269531 C 180.710938 126.59375 180.84375 126.859375 181.125 127.066406 C 181.34375 127.222656 181.574219 127.269531 181.8125 127.207031 C 182.042969 127.136719 182.386719 126.921875 182.84375 126.566406 L 183.109375 126.332031 C 183.695313 125.832031 184.210938 125.550781 184.65625 125.488281 C 185.101563 125.425781 185.554688 125.5625 186.015625 125.894531 C 186.554688 126.292969 186.84375 126.796875 186.875 127.410156 C 186.914063 128.015625 186.691406 128.652344 186.203125 129.316406 C 186.003906 129.578125 185.757813 129.84375 185.46875 130.113281 C 185.1875 130.375 184.863281 130.621094 184.5 130.847656 L 183.53125 130.128906 C 183.949219 129.953125 184.3125 129.75 184.625 129.519531 C 184.9375 129.28125 185.203125 129.011719 185.421875 128.707031 C 185.710938 128.3125 185.859375 127.953125 185.859375 127.628906 C 185.867188 127.308594 185.734375 127.042969 185.453125 126.832031 C 185.203125 126.644531 184.953125 126.582031 184.703125 126.644531 C 184.453125 126.699219 184.074219 126.9375 183.5625 127.363281 L 183.28125 127.582031 C 182.761719 128.019531 182.289063 128.265625 181.859375 128.316406 C 181.433594 128.371094 180.996094 128.230469 180.546875 127.894531 C 180.015625 127.511719 179.734375 127.035156 179.703125 126.472656 C 179.664063 125.902344 179.871094 125.300781 180.328125 124.675781 C 180.558594 124.363281 180.804688 124.089844 181.0625 123.847656 C 181.3125 123.609375 181.578125 123.40625 181.859375 123.238281 Z M 184.996094 119.984375 C 184.664063 120.445313 184.597656 120.953125 184.792969 121.515625 C 184.992188 122.070313 185.433594 122.601563 186.121094 123.109375 C 186.808594 123.609375 187.445313 123.871094 188.027344 123.890625 C 188.621094 123.914063 189.082031 123.695313 189.417969 123.234375 C 189.75 122.789063 189.8125 122.289063 189.605469 121.734375 C 189.40625 121.183594 188.96875 120.65625 188.292969 120.15625 C 187.617188 119.65625 186.980469 119.390625 186.386719 119.359375 C 185.792969 119.328125 185.332031 119.539063 184.996094 119.984375 Z M 184.199219 119.40625 C 184.742188 118.679688 185.433594 118.296875 186.277344 118.265625 C 187.121094 118.234375 188.011719 118.570313 188.949219 119.265625 C 189.886719 119.953125 190.46875 120.703125 190.699219 121.515625 C 190.925781 122.328125 190.769531 123.101563 190.230469 123.828125 C 189.675781 124.570313 188.980469 124.953125 188.136719 124.984375 C 187.292969 125.015625 186.402344 124.6875 185.464844 124 C 184.527344 123.304688 183.945313 122.546875 183.714844 121.734375 C 183.488281 120.921875 183.648438 120.148438 184.199219 119.40625 Z M 192.515625 113.121094 L 195.984375 115.667969 L 195.375 116.511719 L 191.953125 113.996094 C 191.402344 113.601563 190.921875 113.402344 190.515625 113.402344 C 190.101563 113.394531 189.757813 113.574219 189.484375 113.949219 C 189.152344 114.410156 189.054688 114.886719 189.1875 115.386719 C 189.3125 115.878906 189.65625 116.332031 190.21875 116.746094 L 193.453125 119.121094 L 192.8125 119.980469 L 187.078125 115.777344 L 187.71875 114.917969 L 188.625 115.574219 C 188.417969 115.117188 188.328125 114.691406 188.359375 114.292969 C 188.382813 113.898438 188.527344 113.519531 188.796875 113.152344 C 189.226563 112.570313 189.757813 112.277344 190.390625 112.277344 C 191.027344 112.269531 191.734375 112.550781 192.515625 113.121094 Z M 198.28125 105.050781 C 198.5 104.90625 198.796875 104.832031 199.171875 104.832031 C 199.554688 104.824219 200.035156 104.875 200.609375 104.988281 L 203.390625 105.582031 L 202.65625 106.582031 L 200.046875 106.035156 C 199.367188 105.878906 198.875 105.847656 198.5625 105.941406 C 198.242188 106.027344 197.945313 106.25 197.671875 106.613281 L 196.921875 107.644531 L 200.140625 110.019531 L 199.46875 110.925781 L 191.828125 105.316406 L 193.359375 103.238281 C 193.945313 102.449219 194.558594 101.996094 195.203125 101.878906 C 195.851563 101.753906 196.542969 101.964844 197.28125 102.503906 C 197.761719 102.859375 198.089844 103.253906 198.265625 103.691406 C 198.433594 104.121094 198.4375 104.574219 198.28125 105.050781 Z M 193.359375 105.035156 L 196.0625 107.019531 L 196.921875 105.847656 C 197.257813 105.390625 197.390625 104.96875 197.328125 104.582031 C 197.265625 104.1875 197.011719 103.824219 196.5625 103.488281 C 196.117188 103.167969 195.699219 103.035156 195.3125 103.097656 C 194.917969 103.152344 194.554688 103.40625 194.21875 103.863281 Z M 198.511719 100.21875 L 199.136719 99.375 L 204.871094 103.578125 L 204.246094 104.421875 Z M 196.292969 98.578125 L 196.917969 97.734375 L 198.105469 98.609375 L 197.480469 99.453125 Z M 199.984375 98.210938 L 200.640625 97.320313 L 206.640625 99.242188 L 203.015625 94.101563 L 203.671875 93.195313 L 207.984375 99.335938 L 207.140625 100.476563 Z M 210.40625 89.539063 L 210.859375 89.882813 L 208 93.789063 C 208.6875 94.226563 209.3125 94.410156 209.875 94.335938 C 210.4375 94.265625 210.925781 93.945313 211.34375 93.382813 C 211.582031 93.0625 211.765625 92.71875 211.890625 92.351563 C 212.023438 91.988281 212.117188 91.585938 212.171875 91.148438 L 213.0625 91.804688 C 212.976563 92.210938 212.859375 92.601563 212.703125 92.976563 C 212.546875 93.351563 212.347656 93.703125 212.109375 94.023438 C 211.503906 94.847656 210.753906 95.304688 209.859375 95.398438 C 208.976563 95.492188 208.078125 95.207031 207.171875 94.539063 C 206.234375 93.851563 205.664063 93.078125 205.453125 92.210938 C 205.234375 91.347656 205.40625 90.53125 205.96875 89.757813 C 206.480469 89.0625 207.136719 88.695313 207.9375 88.664063 C 208.730469 88.625 209.554688 88.914063 210.40625 89.539063 Z M 209.5 90.179688 C 208.992188 89.804688 208.484375 89.632813 207.984375 89.664063 C 207.484375 89.6875 207.085938 89.90625 206.78125 90.320313 C 206.429688 90.800781 206.296875 91.289063 206.390625 91.789063 C 206.476563 92.289063 206.773438 92.757813 207.28125 93.195313 Z M 211.875 83.871094 C 211.75 83.925781 211.632813 83.996094 211.515625 84.089844 C 211.402344 84.175781 211.292969 84.285156 211.1875 84.417969 C 210.84375 84.898438 210.757813 85.394531 210.921875 85.902344 C 211.078125 86.402344 211.480469 86.894531 212.125 87.371094 L 215.140625 89.589844 L 214.5 90.449219 L 208.765625 86.246094 L 209.40625 85.386719 L 210.3125 86.042969 C 210.085938 85.605469 209.992188 85.183594 210.03125 84.777344 C 210.0625 84.371094 210.230469 83.964844 210.53125 83.558594 C 210.574219 83.496094 210.625 83.433594 210.6875 83.371094 C 210.75 83.308594 210.824219 83.242188 210.90625 83.167969 Z M 211.875 83.871094 "/>
</g>
</svg>

