<?xml version="1.0" encoding="UTF-8"?>
<svg xmlns="http://www.w3.org/2000/svg" xmlns:xlink="http://www.w3.org/1999/xlink" width="256pt" height="256pt" viewBox="0 0 256 256" version="1.1">
<g id="surface2">
<rect x="0" y="0" width="256" height="256" style="fill:rgb(94.901961%,93.72549%,91.372549%);fill-opacity:1;stroke:none;"/>
<path style="fill:none;stroke-width:2;stroke-linecap:round;stroke-linejoin:round;stroke:rgb(60%,70.196078%,80%);stroke-opacity:1;stroke-miterlimit:10;" d="M -3 43.902344 L -1.179688 47.832031 L -2.398438 57.648438 L -3 60.316406 M -3 89.472656 L -1.035156 89.769531 L 3.171875 89.738281 L 5.824219 91.140625 L 7.570313 93.230469 L 7.851563 97.0625 L 6.074219 105.484375 L 3.734375 110.628906 L -1.414063 115.742188 L -2.722656 123.472656 L -1.652344 126.328125 L 1.675781 128.589844 L 7.148438 139.292969 L 7.746094 146.671875 L 5.007813 163.558594 L -3 176.066406 M -3 186.140625 L -0.464844 188.300781 L 13.574219 196.269531 L 21.1875 202.335938 L 29.207031 213.152344 L 52.585938 227.554688 L 57.820313 228.625 L 60.4375 224.816406 L 62.339844 214.230469 L 64.957031 211.136719 L 75.902344 211.96875 L 80.539063 209.472656 L 92.671875 211.136719 L 107.515625 218.300781 L 134.421875 216.371094 L 145.484375 218.160156 L 157.976563 226.632813 L 185.546875 244.007813 L 196.746094 249.03125 L 212.398438 245.585938 L 231.207031 243.433594 L 244.132813 244.867188 L 253.175781 242.425781 L 258 240.066406 "/>
<path style="fill:none;stroke-width:3;stroke-linecap:round;stroke-linejoin:round;stroke:rgb(100%,100%,100%);stroke-opacity:1;stroke-miterlimit:10;" d="M 86.238281 207.097656 L 85.832031 210.082031 L 87.035156 210.253906 C 87.492188 210.316406 87.863281 210.234375 88.144531 210.003906 C 88.425781 209.777344 88.597656 209.421875 88.660156 208.941406 C 88.722656 208.472656 88.648438 208.09375 88.441406 207.800781 C 88.230469 207.511719 87.898438 207.332031 87.441406 207.269531 Z M 85.378906 206.082031 L 87.566406 206.394531 C 88.367188 206.5 88.945313 206.78125 89.300781 207.238281 C 89.652344 207.699219 89.777344 208.3125 89.675781 209.082031 C 89.570313 209.875 89.285156 210.441406 88.816406 210.785156 C 88.347656 211.128906 87.710938 211.25 86.910156 211.144531 L 85.707031 210.972656 L 85.269531 214.160156 L 84.285156 214.019531 Z M 92.734375 212.675781 C 92.046875 212.46875 91.546875 212.410156 91.234375 212.503906 C 90.921875 212.597656 90.695313 212.855469 90.5625 213.269531 C 90.457031 213.605469 90.472656 213.902344 90.609375 214.160156 C 90.753906 214.421875 90.992188 214.601563 91.328125 214.707031 C 91.804688 214.851563 92.242188 214.785156 92.640625 214.503906 C 93.046875 214.214844 93.34375 213.765625 93.53125 213.160156 L 93.59375 212.941406 Z M 94.5625 212.816406 L 93.546875 216.097656 L 92.703125 215.832031 L 92.96875 214.972656 C 92.664063 215.253906 92.34375 215.429688 92 215.503906 C 91.65625 215.585938 91.273438 215.558594 90.859375 215.425781 C 90.335938 215.269531 89.96875 214.976563 89.75 214.550781 C 89.539063 214.113281 89.519531 213.621094 89.6875 213.066406 C 89.882813 212.421875 90.226563 211.996094 90.71875 211.785156 C 91.21875 211.578125 91.851563 211.59375 92.625 211.832031 L 93.828125 212.207031 L 93.84375 212.113281 C 93.976563 211.675781 93.953125 211.300781 93.765625 210.988281 C 93.585938 210.667969 93.265625 210.433594 92.796875 210.285156 C 92.503906 210.191406 92.203125 210.140625 91.890625 210.128906 C 91.585938 210.121094 91.28125 210.160156 90.96875 210.253906 L 91.234375 209.378906 C 91.597656 209.339844 91.929688 209.332031 92.234375 209.363281 C 92.546875 209.386719 92.84375 209.4375 93.125 209.519531 C 93.875 209.761719 94.367188 210.152344 94.609375 210.691406 C 94.847656 211.234375 94.832031 211.941406 94.5625 212.816406 Z M 100.273438 212.753906 L 99.867188 213.597656 C 99.699219 213.359375 99.507813 213.152344 99.289063 212.972656 C 99.078125 212.796875 98.839844 212.644531 98.570313 212.519531 C 98.171875 212.324219 97.84375 212.246094 97.585938 212.285156 C 97.324219 212.328125 97.125 212.480469 96.992188 212.738281 C 96.898438 212.949219 96.890625 213.144531 96.976563 213.332031 C 97.058594 213.519531 97.289063 213.769531 97.664063 214.082031 L 97.898438 214.285156 C 98.40625 214.691406 98.71875 215.078125 98.835938 215.441406 C 98.960938 215.808594 98.914063 216.210938 98.695313 216.660156 C 98.453125 217.148438 98.085938 217.457031 97.585938 217.582031 C 97.09375 217.707031 96.53125 217.617188 95.898438 217.316406 C 95.636719 217.191406 95.375 217.027344 95.117188 216.832031 C 94.867188 216.644531 94.609375 216.414063 94.351563 216.144531 L 94.789063 215.238281 C 95.007813 215.550781 95.234375 215.816406 95.476563 216.035156 C 95.726563 216.253906 95.992188 216.429688 96.273438 216.566406 C 96.648438 216.753906 96.96875 216.820313 97.242188 216.769531 C 97.523438 216.726563 97.726563 216.582031 97.851563 216.332031 C 97.964844 216.09375 97.976563 215.871094 97.882813 215.660156 C 97.796875 215.453125 97.539063 215.175781 97.101563 214.832031 L 96.867188 214.613281 C 96.429688 214.261719 96.15625 213.910156 96.054688 213.566406 C 95.949219 213.214844 95.996094 212.828125 96.195313 212.410156 C 96.445313 211.902344 96.792969 211.589844 97.242188 211.472656 C 97.699219 211.347656 98.230469 211.433594 98.835938 211.722656 C 99.125 211.859375 99.390625 212.015625 99.632813 212.191406 C 99.871094 212.371094 100.085938 212.558594 100.273438 212.753906 Z M 105.277344 215.242188 L 104.871094 216.070313 C 104.722656 215.820313 104.550781 215.609375 104.355469 215.429688 C 104.15625 215.253906 103.941406 215.109375 103.714844 214.992188 C 103.183594 214.742188 102.6875 214.734375 102.230469 214.960938 C 101.769531 215.179688 101.378906 215.625 101.058594 216.289063 C 100.746094 216.945313 100.640625 217.53125 100.746094 218.039063 C 100.847656 218.539063 101.167969 218.914063 101.699219 219.164063 C 101.925781 219.277344 102.171875 219.355469 102.433594 219.398438 C 102.691406 219.449219 102.96875 219.453125 103.261719 219.414063 L 102.871094 220.226563 C 102.589844 220.246094 102.3125 220.226563 102.042969 220.164063 C 101.78125 220.109375 101.519531 220.023438 101.261719 219.898438 C 100.511719 219.53125 100.042969 218.992188 99.855469 218.273438 C 99.675781 217.554688 99.796875 216.757813 100.214844 215.882813 C 100.640625 215 101.191406 214.410156 101.871094 214.117188 C 102.546875 213.828125 103.265625 213.863281 104.027344 214.226563 C 104.277344 214.34375 104.503906 214.488281 104.714844 214.664063 C 104.933594 214.832031 105.121094 215.023438 105.277344 215.242188 Z M 108.234375 218.625 C 107.523438 218.511719 107.019531 218.523438 106.71875 218.65625 C 106.425781 218.792969 106.242188 219.078125 106.171875 219.515625 C 106.109375 219.851563 106.160156 220.140625 106.328125 220.390625 C 106.503906 220.632813 106.769531 220.777344 107.125 220.828125 C 107.613281 220.914063 108.035156 220.789063 108.390625 220.453125 C 108.742188 220.109375 108.972656 219.621094 109.078125 218.984375 L 109.109375 218.765625 Z M 110.078125 218.515625 L 109.515625 221.90625 L 108.625 221.75 L 108.765625 220.859375 C 108.515625 221.179688 108.222656 221.40625 107.890625 221.53125 C 107.554688 221.65625 107.175781 221.679688 106.75 221.609375 C 106.207031 221.515625 105.800781 221.273438 105.53125 220.890625 C 105.257813 220.496094 105.171875 220.007813 105.265625 219.421875 C 105.378906 218.757813 105.660156 218.289063 106.109375 218.015625 C 106.566406 217.746094 107.195313 217.671875 108 217.796875 L 109.234375 218 L 109.25 217.90625 C 109.320313 217.460938 109.242188 217.09375 109.015625 216.8125 C 108.796875 216.523438 108.445313 216.335938 107.96875 216.25 C 107.664063 216.210938 107.363281 216.203125 107.0625 216.234375 C 106.757813 216.257813 106.457031 216.328125 106.15625 216.453125 L 106.296875 215.5625 C 106.660156 215.46875 106.992188 215.417969 107.296875 215.40625 C 107.609375 215.386719 107.910156 215.398438 108.203125 215.4375 C 108.972656 215.5625 109.515625 215.882813 109.828125 216.390625 C 110.140625 216.902344 110.222656 217.609375 110.078125 218.515625 Z M 115.527344 215.945313 L 115.589844 216.867188 C 115.328125 216.734375 115.066406 216.632813 114.808594 216.570313 C 114.558594 216.507813 114.300781 216.488281 114.042969 216.507813 C 113.46875 216.550781 113.035156 216.785156 112.746094 217.210938 C 112.453125 217.640625 112.332031 218.21875 112.386719 218.945313 C 112.4375 219.675781 112.636719 220.234375 112.980469 220.617188 C 113.332031 221.003906 113.796875 221.175781 114.371094 221.132813 C 114.628906 221.113281 114.878906 221.0625 115.121094 220.976563 C 115.371094 220.882813 115.613281 220.75 115.855469 220.570313 L 115.917969 221.476563 C 115.675781 221.632813 115.425781 221.753906 115.167969 221.835938 C 114.90625 221.910156 114.628906 221.957031 114.339844 221.976563 C 113.527344 222.039063 112.859375 221.804688 112.339844 221.273438 C 111.816406 220.734375 111.519531 219.976563 111.449219 219.007813 C 111.386719 218.039063 111.574219 217.257813 112.011719 216.664063 C 112.457031 216.070313 113.097656 215.742188 113.933594 215.679688 C 114.203125 215.660156 114.472656 215.675781 114.746094 215.726563 C 115.015625 215.769531 115.277344 215.84375 115.527344 215.945313 Z M 116.84375 213.257813 L 117.75 213.195313 L 118.09375 218.132813 L 120.546875 215.351563 L 121.6875 215.257813 L 119.03125 218.289063 L 122.234375 221.257813 L 121.078125 221.335938 L 118.140625 218.601563 L 118.34375 221.539063 L 117.4375 221.601563 Z M 127.070313 217.074219 L 127.289063 219.996094 L 128.835938 219.886719 C 129.355469 219.847656 129.734375 219.699219 129.976563 219.449219 C 130.214844 219.191406 130.3125 218.808594 130.273438 218.308594 C 130.242188 217.820313 130.085938 217.464844 129.804688 217.246094 C 129.53125 217.019531 129.136719 216.925781 128.617188 216.964844 Z M 126.835938 213.777344 L 127.007813 216.199219 L 128.429688 216.089844 C 128.90625 216.058594 129.257813 215.933594 129.476563 215.714844 C 129.703125 215.496094 129.804688 215.183594 129.773438 214.777344 C 129.742188 214.371094 129.601563 214.082031 129.351563 213.902344 C 129.101563 213.714844 128.734375 213.636719 128.257813 213.667969 Z M 125.789063 212.964844 L 128.273438 212.777344 C 129.011719 212.726563 129.59375 212.855469 130.023438 213.167969 C 130.460938 213.480469 130.699219 213.957031 130.742188 214.589844 C 130.78125 215.082031 130.710938 215.476563 130.523438 215.777344 C 130.335938 216.082031 130.042969 216.285156 129.648438 216.386719 C 130.136719 216.472656 130.527344 216.683594 130.820313 217.027344 C 131.109375 217.371094 131.277344 217.808594 131.320313 218.339844 C 131.371094 219.058594 131.1875 219.632813 130.773438 220.058594 C 130.367188 220.476563 129.757813 220.714844 128.945313 220.777344 L 126.367188 220.964844 Z M 135.984375 215.519531 C 135.878906 215.457031 135.765625 215.410156 135.640625 215.378906 C 135.523438 215.339844 135.398438 215.316406 135.265625 215.316406 C 134.753906 215.316406 134.363281 215.5 134.09375 215.863281 C 133.820313 216.21875 133.679688 216.734375 133.671875 217.410156 L 133.625 220.582031 L 132.71875 220.566406 L 132.8125 214.550781 L 133.71875 214.566406 L 133.703125 215.503906 C 133.898438 215.140625 134.144531 214.875 134.4375 214.707031 C 134.738281 214.53125 135.101563 214.449219 135.53125 214.457031 C 135.59375 214.457031 135.660156 214.464844 135.734375 214.472656 C 135.816406 214.472656 135.898438 214.484375 135.984375 214.503906 Z M 139.132813 215.78125 C 138.652344 215.710938 138.246094 215.855469 137.914063 216.21875 C 137.578125 216.585938 137.355469 217.121094 137.242188 217.828125 C 137.125 218.546875 137.167969 219.136719 137.367188 219.59375 C 137.574219 220.042969 137.917969 220.304688 138.398438 220.375 C 138.867188 220.449219 139.265625 220.308594 139.601563 219.953125 C 139.945313 219.589844 140.171875 219.046875 140.289063 218.328125 C 140.402344 217.621094 140.355469 217.039063 140.148438 216.578125 C 139.9375 216.121094 139.601563 215.855469 139.132813 215.78125 Z M 139.273438 214.96875 C 140.03125 215.09375 140.585938 215.46875 140.929688 216.09375 C 141.273438 216.710938 141.367188 217.5 141.210938 218.46875 C 141.054688 219.4375 140.710938 220.167969 140.179688 220.65625 C 139.65625 221.144531 139.015625 221.328125 138.257813 221.203125 C 137.476563 221.078125 136.917969 220.703125 136.585938 220.078125 C 136.25 219.453125 136.164063 218.65625 136.320313 217.6875 C 136.476563 216.71875 136.808594 215.996094 137.320313 215.515625 C 137.839844 215.027344 138.492188 214.84375 139.273438 214.96875 Z M 145.195313 217.3125 C 144.746094 217.15625 144.320313 217.230469 143.914063 217.53125 C 143.515625 217.835938 143.203125 218.328125 142.976563 219.015625 C 142.734375 219.695313 142.679688 220.273438 142.804688 220.75 C 142.929688 221.21875 143.214844 221.53125 143.664063 221.6875 C 144.121094 221.851563 144.546875 221.785156 144.945313 221.484375 C 145.339844 221.195313 145.65625 220.710938 145.898438 220.03125 C 146.125 219.34375 146.179688 218.761719 146.054688 218.28125 C 145.9375 217.804688 145.652344 217.480469 145.195313 217.3125 Z M 145.460938 216.53125 C 146.1875 216.792969 146.671875 217.261719 146.914063 217.9375 C 147.152344 218.605469 147.109375 219.40625 146.789063 220.34375 C 146.464844 221.261719 146 221.910156 145.398438 222.296875 C 144.792969 222.679688 144.125 222.742188 143.398438 222.484375 C 142.65625 222.234375 142.171875 221.769531 141.945313 221.09375 C 141.714844 220.417969 141.761719 219.621094 142.085938 218.703125 C 142.40625 217.765625 142.867188 217.109375 143.460938 216.734375 C 144.054688 216.351563 144.71875 216.28125 145.460938 216.53125 Z M 150.65625 216.402344 L 151.40625 216.917969 L 148.640625 221.011719 L 152.296875 220.339844 L 153.234375 220.980469 L 149.28125 221.699219 L 149.953125 226.027344 L 149 225.371094 L 148.375 221.402344 L 146.71875 223.839844 L 145.96875 223.324219 Z M 150.65625 216.402344 "/>
<path style=" stroke:none;fill-rule:evenodd;fill:rgb(41.960784%,58.039216%,69.019608%);fill-opacity:1;" d="M 86.238281 207.097656 L 85.832031 210.082031 L 87.035156 210.253906 C 87.492188 210.316406 87.863281 210.234375 88.144531 210.003906 C 88.425781 209.777344 88.597656 209.421875 88.660156 208.941406 C 88.722656 208.472656 88.648438 208.09375 88.441406 207.800781 C 88.230469 207.511719 87.898438 207.332031 87.441406 207.269531 Z M 85.378906 206.082031 L 87.566406 206.394531 C 88.367188 206.5 88.945313 206.78125 89.300781 207.238281 C 89.652344 207.699219 89.777344 208.3125 89.675781 209.082031 C 89.570313 209.875 89.285156 210.441406 88.816406 210.785156 C 88.347656 211.128906 87.710938 211.25 86.910156 211.144531 L 85.707031 210.972656 L 85.269531 214.160156 L 84.285156 214.019531 Z M 92.734375 212.675781 C 92.046875 212.46875 91.546875 212.410156 91.234375 212.503906 C 90.921875 212.597656 90.695313 212.855469 90.5625 213.269531 C 90.457031 213.605469 90.472656 213.902344 90.609375 214.160156 C 90.753906 214.421875 90.992188 214.601563 91.328125 214.707031 C 91.804688 214.851563 92.242188 214.785156 92.640625 214.503906 C 93.046875 214.214844 93.34375 213.765625 93.53125 213.160156 L 93.59375 212.941406 Z M 94.5625 212.816406 L 93.546875 216.097656 L 92.703125 215.832031 L 92.96875 214.972656 C 92.664063 215.253906 92.34375 215.429688 92 215.503906 C 91.65625 215.585938 91.273438 215.558594 90.859375 215.425781 C 90.335938 215.269531 89.96875 214.976563 89.75 214.550781 C 89.539063 214.113281 89.519531 213.621094 89.6875 213.066406 C 89.882813 212.421875 90.226563 211.996094 90.71875 211.785156 C 91.21875 211.578125 91.851563 211.59375 92.625 211.832031 L 93.828125 212.207031 L 93.84375 212.113281 C 93.976563 211.675781 93.953125 211.300781 93.765625 210.988281 C 93.585938 210.667969 93.265625 210.433594 92.796875 210.285156 C 92.503906 210.191406 92.203125 210.140625 91.890625 210.128906 C 91.585938 210.121094 91.28125 210.160156 90.96875 210.253906 L 91.234375 209.378906 C 91.597656 209.339844 91.929688 209.332031 92.234375 209.363281 C 92.546875 209.386719 92.84375 209.4375 93.125 209.519531 C 93.875 209.761719 94.367188 210.152344 94.609375 210.691406 C 94.847656 211.234375 94.832031 211.941406 94.5625 212.816406 Z M 100.273438 212.753906 L 99.867188 213.597656 C 99.699219 213.359375 99.507813 213.152344 99.289063 212.972656 C 99.078125 212.796875 98.839844 212.644531 98.570313 212.519531 C 98.171875 212.324219 97.84375 212.246094 97.585938 212.285156 C 97.324219 212.328125 97.125 212.480469 96.992188 212.738281 C 96.898438 212.949219 96.890625 213.144531 96.976563 213.332031 C 97.058594 213.519531 97.289063 213.769531 97.664063 214.082031 L 97.898438 214.285156 C 98.40625 214.691406 98.71875 215.078125 98.835938 215.441406 C 98.960938 215.808594 98.914063 216.210938 98.695313 216.660156 C 98.453125 217.148438 98.085938 217.457031 97.585938 217.582031 C 97.09375 217.707031 96.53125 217.617188 95.898438 217.316406 C 95.636719 217.191406 95.375 217.027344 95.117188 216.832031 C 94.867188 216.644531 94.609375 216.414063 94.351563 216.144531 L 94.789063 215.238281 C 95.007813 215.550781 95.234375 215.816406 95.476563 216.035156 C 95.726563 216.253906 95.992188 216.429688 96.273438 216.566406 C 96.648438 216.753906 96.96875 216.820313 97.242188 216.769531 C 97.523438 216.726563 97.726563 216.582031 97.851563 216.332031 C 97.964844 216.09375 97.976563 215.871094 97.882813 215.660156 C 97.796875 215.453125 97.539063 215.175781 97.101563 214.832031 L 96.867188 214.613281 C 96.429688 214.261719 96.15625 213.910156 96.054688 213.566406 C 95.949219 213.214844 95.996094 212.828125 96.195313 212.410156 C 96.445313 211.902344 96.792969 211.589844 97.242188 211.472656 C 97.699219 211.347656 98.230469 211.433594 98.835938 211.722656 C 99.125 211.859375 99.390625 212.015625 99.632813 212.191406 C 99.871094 212.371094 100.085938 212.558594 100.273438 212.753906 Z M 105.277344 215.242188 L 104.871094 216.070313 C 104.722656 215.820313 104.550781 215.609375 104.355469 215.429688 C 104.15625 215.253906 103.941406 215.109375 103.714844 214.992188 C 103.183594 214.742188 102.6875 214.734375 102.230469 214.960938 C 101.769531 215.179688 101.378906 215.625 101.058594 216.289063 C 100.746094 216.945313 100.640625 217.53125 100.746094 218.039063 C 100.847656 218.539063 101.167969 218.914063 101.699219 219.164063 C 101.925781 219.277344 102.171875 219.355469 102.433594 219.398438 C 102.691406 219.449219 102.96875 219.453125 103.261719 219.414063 L 102.871094 220.226563 C 102.589844 220.246094 102.3125 220.226563 102.042969 220.164063 C 101.78125 220.109375 101.519531 220.023438 101.261719 219.898438 C 100.511719 219.53125 100.042969 218.992188 99.855469 218.273438 C 99.675781 217.554688 99.796875 216.757813 100.214844 215.882813 C 100.640625 215 101.191406 214.410156 101.871094 214.117188 C 102.546875 213.828125 103.265625 213.863281 104.027344 214.226563 C 104.277344 214.34375 104.503906 214.488281 104.714844 214.664063 C 104.933594 214.832031 105.121094 215.023438 105.277344 215.242188 Z M 108.234375 218.625 C 107.523438 218.511719 107.019531 218.523438 106.71875 218.65625 C 106.425781 218.792969 106.242188 219.078125 106.171875 219.515625 C 106.109375 219.851563 106.160156 220.140625 106.328125 220.390625 C 106.503906 220.632813 106.769531 220.777344 107.125 220.828125 C 107.613281 220.914063 108.035156 220.789063 108.390625 220.453125 C 108.742188 220.109375 108.972656 219.621094 109.078125 218.984375 L 109.109375 218.765625 Z M 110.078125 218.515625 L 109.515625 221.90625 L 108.625 221.75 L 108.765625 220.859375 C 108.515625 221.179688 108.222656 221.40625 107.890625 221.53125 C 107.554688 221.65625 107.175781 221.679688 106.75 221.609375 C 106.207031 221.515625 105.800781 221.273438 105.53125 220.890625 C 105.257813 220.496094 105.171875 220.007813 105.265625 219.421875 C 105.378906 218.757813 105.660156 218.289063 106.109375 218.015625 C 106.566406 217.746094 107.195313 217.671875 108 217.796875 L 109.234375 218 L 109.25 217.90625 C 109.320313 217.460938 109.242188 217.09375 109.015625 216.8125 C 108.796875 216.523438 108.445313 216.335938 107.96875 216.25 C 107.664063 216.210938 107.363281 216.203125 107.0625 216.234375 C 106.757813 216.257813 106.457031 216.328125 106.15625 216.453125 L 106.296875 215.5625 C 106.660156 215.46875 106.992188 215.417969 107.296875 215.40625 C 107.609375 215.386719 107.910156 215.398438 108.203125 215.4375 C 108.972656 215.5625 109.515625 215.882813 109.828125 216.390625 C 110.140625 216.902344 110.222656 217.609375 110.078125 218.515625 Z M 115.527344 215.945313 L 115.589844 216.867188 C 115.328125 216.734375 115.066406 216.632813 114.808594 216.570313 C 114.558594 216.507813 114.300781 216.488281 114.042969 216.507813 C 113.46875 216.550781 113.035156 216.785156 112.746094 217.210938 C 112.453125 217.640625 112.332031 218.21875 112.386719 218.945313 C 112.4375 219.675781 112.636719 220.234375 112.980469 220.617188 C 113.332031 221.003906 113.796875 221.175781 114.371094 221.132813 C 114.628906 221.113281 114.878906 221.0625 115.121094 220.976563 C 115.371094 220.882813 115.613281 220.75 115.855469 220.570313 L 115.917969 221.476563 C 115.675781 221.632813 115.425781 221.753906 115.167969 221.835938 C 114.90625 221.910156 114.628906 221.957031 114.339844 221.976563 C 113.527344 222.039063 112.859375 221.804688 112.339844 221.273438 C 111.816406 220.734375 111.519531 219.976563 111.449219 219.007813 C 111.386719 218.039063 111.574219 217.257813 112.011719 216.664063 C 112.457031 216.070313 113.097656 215.742188 113.933594 215.679688 C 114.203125 215.660156 114.472656 215.675781 114.746094 215.726563 C 115.015625 215.769531 115.277344 215.84375 115.527344 215.945313 Z M 116.84375 213.257813 L 117.75 213.195313 L 118.09375 218.132813 L 120.546875 215.351563 L 121.6875 215.257813 L 119.03125 218.289063 L 122.234375 221.257813 L 121.078125 221.335938 L 118.140625 218.601563 L 118.34375 221.539063 L 117.4375 221.601563 Z M 127.070313 217.074219 L 127.289063 219.996094 L 128.835938 219.886719 C 129.355469 219.847656 129.734375 219.699219 129.976563 219.449219 C 130.214844 219.191406 130.3125 218.808594 130.273438 218.308594 C 130.242188 217.820313 130.085938 217.464844 129.804688 217.246094 C 129.53125 217.019531 129.136719 216.925781 128.617188 216.964844 Z M 126.835938 213.777344 L 127.007813 216.199219 L 128.429688 216.089844 C 128.90625 216.058594 129.257813 215.933594 129.476563 215.714844 C 129.703125 215.496094 129.804688 215.183594 129.773438 214.777344 C 129.742188 214.371094 129.601563 214.082031 129.351563 213.902344 C 129.101563 213.714844 128.734375 213.636719 128.257813 213.667969 Z M 125.789063 212.964844 L 128.273438 212.777344 C 129.011719 212.726563 129.59375 212.855469 130.023438 213.167969 C 130.460938 213.480469 130.699219 213.957031 130.742188 214.589844 C 130.78125 215.082031 130.710938 215.476563 130.523438 215.777344 C 130.335938 216.082031 130.042969 216.285156 129.648438 216.386719 C 130.136719 216.472656 130.527344 216.683594 130.820313 217.027344 C 131.109375 217.371094 131.277344 217.808594 131.320313 218.339844 C 131.371094 219.058594 131.1875 219.632813 130.773438 220.058594 C 130.367188 220.476563 129.757813 220.714844 128.945313 220.777344 L 126.367188 220.964844 Z M 135.984375 215.519531 C 135.878906 215.457031 135.765625 215.410156 135.640625 215.378906 C 135.523438 215.339844 135.398438 215.316406 135.265625 215.316406 C 134.753906 215.316406 134.363281 215.5 134.09375 215.863281 C 133.820313 216.21875 133.679688 216.734375 133.671875 217.410156 L 133.625 220.582031 L 132.71875 220.566406 L 132.8125 214.550781 L 133.71875 214.566406 L 133.703125 215.503906 C 133.898438 215.140625 134.144531 214.875 134.4375 214.707031 C 134.738281 214.53125 135.101563 214.449219 135.53125 214.457031 C 135.59375 214.457031 135.660156 214.464844 135.734375 214.472656 C 135.816406 214.472656 135.898438 214.484375 135.984375 214.503906 Z M 139.132813 215.78125 C 138.652344 215.710938 138.246094 215.855469 137.914063 216.21875 C 137.578125 216.585938 137.355469 217.121094 137.242188 217.828125 C 137.125 218.546875 137.167969 219.136719 137.367188 219.59375 C 137.574219 220.042969 137.917969 220.304688 138.398438 220.375 C 138.867188 220.449219 139.265625 220.308594 139.601563 219.953125 C 139.945313 219.589844 140.171875 219.046875 140.289063 218.328125 C 140.402344 217.621094 140.355469 217.039063 140.148438 216.578125 C 139.9375 216.121094 139.601563 215.855469 139.132813 215.78125 Z M 139.273438 214.96875 C 140.03125 215.09375 140.585938 215.46875 140.929688 216.09375 C 141.273438 216.710938 141.367188 217.5 141.210938 218.46875 C 141.054688 219.4375 140.710938 220.167969 140.179688 220.65625 C 139.65625 221.144531 139.015625 221.328125 138.257813 221.203125 C 137.476563 221.078125 136.917969 220.703125 136.585938 220.078125 C 136.25 219.453125 136.164063 218.65625 136.320313 217.6875 C 136.476563 216.71875 136.808594 215.996094 137.320313 215.515625 C 137.839844 215.027344 138.492188 214.84375 139.273438 214.96875 Z M 145.195313 217.3125 C 144.746094 217.15625 144.320313 217.230469 143.914063 217.53125 C 143.515625 217.835938 143.203125 218.328125 142.976563 219.015625 C 142.734375 219.695313 142.679688 220.273438 142.804688 220.75 C 142.929688 221.21875 143.214844 221.53125 143.664063 221.6875 C 144.121094 221.851563 144.546875 221.785156 144.945313 221.484375 C 145.339844 221.195313 145.65625 220.710938 145.898438 220.03125 C 146.125 219.34375 146.179688 218.761719 146.054688 218.28125 C 145.9375 217.804688 145.652344 217.480469 145.195313 217.3125 Z M 145.460938 216.53125 C 146.1875 216.792969 146.671875 217.261719 146.914063 217.9375 C 147.152344 218.605469 147.109375 219.40625 146.789063 220.34375 C 146.464844 221.261719 146 221.910156 145.398438 222.296875 C 144.792969 222.679688 144.125 222.742188 143.398438 222.484375 C 142.65625 222.234375 142.171875 221.769531 141.945313 221.09375 C 141.714844 220.417969 141.761719 219.621094 142.085938 218.703125 C 142.40625 217.765625 142.867188 217.109375 143.460938 216.734375 C 144.054688 216.351563 144.71875 216.28125 145.460938 216.53125 Z M 150.65625 216.402344 L 151.40625 216.917969 L 148.640625 221.011719 L 152.296875 220.339844 L 153.234375 220.980469 L 149.28125 221.699219 L 149.953125 226.027344 L 149 225.371094 L 148.375 221.402344 L 146.71875 223.839844 L 145.96875 223.324219 Z M 150.65625 216.402344 "/>
</g>
</svg>

