<?xml version="1.0" encoding="UTF-8"?>
<svg xmlns="http://www.w3.org/2000/svg" xmlns:xlink="http://www.w3.org/1999/xlink" width="256pt" height="256pt" viewBox="0 0 256 256" version="1.1">
<g id="surface2">
<rect x="0" y="0" width="256" height="256" style="fill:rgb(94.901961%,93.72549%,91.372549%);fill-opacity:1;stroke:none;"/>
<path style=" stroke:none;fill-rule:evenodd;fill:rgb(79.607843%,84.705882%,76.470588%);fill-opacity:1;" d="M 252.320313 0.4375 L 252.394531 3.890625 L 254.59375 3.886719 L 254.503906 0.441406 L 258.515625 0.46875 L 258.488281 -4 L 249.15625 -4 L 249.136719 0.496094 Z M 252.320313 0.4375 "/>
<path style=" stroke:none;fill-rule:evenodd;fill:rgb(79.607843%,84.705882%,76.470588%);fill-opacity:1;" d="M 222.25 5.570313 L 222.886719 5.558594 L 227.878906 5.316406 L 229.785156 5.746094 L 233.433594 6.191406 L 233.4375 4.335938 L 237.722656 4.292969 L 238.605469 3.355469 L 238.601563 -1.421875 L 233.4375 -1.410156 L 233.445313 -0.398438 L 232.210938 -0.386719 L 232.042969 2.496094 L 228.28125 2.566406 L 228.289063 0.351563 L 222.90625 0.335938 L 222.925781 2.058594 L 222.253906 2.085938 Z M 222.902344 3.785156 L 222.957031 2.738281 L 228.285156 2.828125 L 228.285156 3.890625 Z M 222.902344 3.785156 "/>
<path style=" stroke:none;fill-rule:evenodd;fill:rgb(79.607843%,84.705882%,76.470588%);fill-opacity:1;" d="M 196.664063 14.027344 L 196.671875 14.53125 L 197.558594 15.96875 L 199.164063 16.335938 L 198.320313 16.980469 L 197.972656 17.992188 L 198.789063 20.609375 L 199.898438 21.839844 L 201.3125 21.824219 L 202.199219 22.453125 L 203.019531 21.660156 L 203.136719 23.097656 L 202.136719 23.640625 L 203.1875 23.800781 L 204.226563 24.199219 L 204.929688 24.953125 L 205.910156 25.980469 L 206.953125 25.964844 L 208.0625 25.960938 L 209.679688 25.40625 L 209.867188 23.585938 L 209.519531 22.632813 L 207.90625 22.777344 L 207.769531 21.375 L 207.21875 20.308594 L 207.191406 21.878906 L 205.855469 21.761719 L 204.71875 20.605469 L 205.78125 19.625 L 205.710938 18.207031 L 204.394531 17.65625 L 204.503906 16.410156 L 203.097656 16.785156 L 202.394531 17.539063 L 202.1875 16.542969 L 201.191406 16.34375 L 200.078125 16.578125 L 200.960938 15.28125 L 201.941406 15.714844 L 202.175781 14.5625 L 201.335938 13.425781 L 198.121094 12.925781 L 197.390625 11.492188 L 196.742188 12.601563 L 197.011719 13.8125 L 197.386719 14.25 Z M 197.378906 13.640625 L 197.492188 13.5 L 197.5625 13.726563 Z M 198.628906 17.011719 L 198.949219 16.878906 L 198.664063 17.183594 Z M 198.640625 17.925781 L 199.273438 17.890625 L 198.789063 18.90625 Z M 200.601563 17.171875 L 200.726563 16.953125 L 200.800781 17.296875 Z M 201.8125 21.066406 L 202.070313 20.785156 L 202.148438 21.136719 Z M 207.398438 24.058594 L 208.023438 23.96875 L 209.039063 24.613281 L 208.011719 25 L 207.535156 24.703125 Z M 207.398438 24.058594 "/>
<path style=" stroke:none;fill-rule:evenodd;fill:rgb(79.607843%,84.705882%,76.470588%);fill-opacity:1;" d="M 139.269531 13.277344 L 142.226563 15.679688 L 142.785156 16.914063 L 144.078125 16.996094 L 144.660156 15.964844 L 144.789063 14.410156 L 139.765625 13.085938 Z M 139.269531 13.277344 "/>
<path style=" stroke:none;fill-rule:evenodd;fill:rgb(79.607843%,84.705882%,76.470588%);fill-opacity:1;" d="M 193.898438 14.015625 L 194.253906 15.203125 L 194.65625 13.941406 L 195.496094 13.386719 L 195.890625 12.109375 L 195.035156 12.894531 L 194.011719 13.328125 Z M 193.898438 14.015625 "/>
<path style=" stroke:none;fill-rule:evenodd;fill:rgb(60%,70.196078%,80%);fill-opacity:1;" d="M -4 259 L -4 -4 L 259 -4 L -4 -4 Z M 7853192.949219 5086578.484375 Z M 7853192.949219 5166990.238281 Z M 7853192.949219 5166990.238281 "/>
<path style="fill:none;stroke-width:1;stroke-linecap:round;stroke-linejoin:round;stroke:rgb(70.196078%,77.647059%,83.137255%);stroke-opacity:1;stroke-miterlimit:10;" d="M -4 259 L -4 -4 L 259 -4 L -4 -4 L -4 259 "/>
<path style=" stroke:none;fill-rule:evenodd;fill:rgb(60%,70.196078%,80%);fill-opacity:1;" d="M 191.757813 7.386719 L 191.855469 7.789063 L 192.148438 8.859375 L 192.171875 7.34375 L 191.875 7.21875 Z M 192.523438 8.417969 L 192.613281 8.328125 L 192.609375 8.570313 Z M 192.523438 8.417969 "/>
<path style="fill:none;stroke-width:1;stroke-linecap:round;stroke-linejoin:round;stroke:rgb(70.196078%,77.647059%,83.137255%);stroke-opacity:1;stroke-miterlimit:10;" d="M 191.757813 7.386719 L 191.855469 7.789063 L 192.148438 8.859375 L 192.171875 7.34375 L 191.875 7.21875 L 191.757813 7.386719 M 192.523438 8.417969 L 192.613281 8.328125 L 192.609375 8.570313 L 192.523438 8.417969 "/>
<path style="fill:none;stroke-width:2;stroke-linecap:round;stroke-linejoin:round;stroke:rgb(60%,70.196078%,80%);stroke-opacity:1;stroke-miterlimit:10;" d="M 202.898438 7.0625 L 201.929688 7.316406 L 200.597656 7.039063 L 199.039063 7.851563 L 196.960938 9.253906 L 195.890625 8.695313 L 194.777344 9.738281 L 195.886719 10.753906 L 194.789063 11.972656 L 193.707031 12.414063 L 193.671875 13.769531 L 194.140625 14.820313 L 193.933594 16.757813 L 193.984375 18.757813 L 194.253906 19.738281 L 194.433594 21.089844 L 195.289063 21.679688 L 196.367188 22.578125 L 196.832031 23.742188 L 197.132813 25.226563 L 197.835938 26.542969 L 198.515625 27.355469 L 200.039063 27.542969 L 200.96875 28.210938 L 202.328125 28.648438 L 202.863281 29.882813 L 203.859375 29.765625 L 204.886719 30.097656 L 205.933594 30.300781 L 206.015625 29.496094 "/>
<path style="fill:none;stroke-width:2;stroke-linecap:round;stroke-linejoin:round;stroke:rgb(60%,70.196078%,80%);stroke-opacity:1;stroke-miterlimit:10;" d="M 194.125 17.039063 L 194.160156 17.167969 "/>
<path style="fill:none;stroke-width:1;stroke-linecap:butt;stroke-linejoin:round;stroke:rgb(46.666667%,46.666667%,46.666667%);stroke-opacity:1;stroke-dasharray:2,2;stroke-miterlimit:10;" d="M 253.484375 32.585938 L 253.683594 29.753906 L 256.964844 16.484375 "/>
<path style="fill:none;stroke-width:0.5;stroke-linecap:round;stroke-linejoin:round;stroke:rgb(75.686275%,70.980392%,61.568627%);stroke-opacity:1;stroke-miterlimit:10;" d="M 250.121094 4.550781 L 248.460938 5.5 L 248.1875 5.695313 "/>
<path style="fill:none;stroke-width:0.5;stroke-linecap:round;stroke-linejoin:round;stroke:rgb(75.686275%,70.980392%,61.568627%);stroke-opacity:1;stroke-miterlimit:10;" d="M 148.535156 3.449219 L 149.539063 3.332031 L 150.015625 3.085938 "/>
<path style="fill:none;stroke-width:0.5;stroke-linecap:round;stroke-linejoin:round;stroke:rgb(75.686275%,70.980392%,61.568627%);stroke-opacity:1;stroke-miterlimit:10;" d="M 191.117188 8.441406 L 191.714844 8.441406 "/>
<path style="fill:none;stroke-width:0.5;stroke-linecap:round;stroke-linejoin:round;stroke:rgb(75.686275%,70.980392%,61.568627%);stroke-opacity:1;stroke-miterlimit:10;" d="M 193.539063 9.089844 L 192.992188 8.316406 "/>
<path style="fill:none;stroke-width:0.5;stroke-linecap:round;stroke-linejoin:round;stroke:rgb(75.686275%,70.980392%,61.568627%);stroke-opacity:1;stroke-miterlimit:10;" d="M 191.730469 8.308594 L 191.773438 8.570313 "/>
<path style="fill:none;stroke-width:0.5;stroke-linecap:round;stroke-linejoin:round;stroke:rgb(75.686275%,70.980392%,61.568627%);stroke-opacity:1;stroke-miterlimit:10;" d="M 148.519531 1.839844 L 147.644531 1.679688 "/>
<path style="fill:none;stroke-width:0.5;stroke-linecap:round;stroke-linejoin:round;stroke:rgb(75.686275%,70.980392%,61.568627%);stroke-opacity:1;stroke-miterlimit:10;" d="M 143.136719 16.226563 L 143.261719 16.421875 "/>
<path style="fill:none;stroke-width:0.5;stroke-linecap:round;stroke-linejoin:round;stroke:rgb(75.686275%,70.980392%,61.568627%);stroke-opacity:1;stroke-miterlimit:10;" d="M 170.71875 7.652344 L 170.710938 6.527344 L 170.636719 5.492188 L 171.308594 4.550781 L 171.386719 4.03125 "/>
<path style="fill:none;stroke-width:0.5;stroke-linecap:round;stroke-linejoin:round;stroke:rgb(75.686275%,70.980392%,61.568627%);stroke-opacity:1;stroke-miterlimit:10;" d="M 226.179688 9.851563 L 226.667969 10.398438 "/>
<path style="fill:none;stroke-width:0.5;stroke-linecap:round;stroke-linejoin:round;stroke:rgb(75.686275%,70.980392%,61.568627%);stroke-opacity:1;stroke-miterlimit:10;" d="M 148.539063 3.09375 L 147.324219 3 "/>
<path style="fill:none;stroke-width:0.5;stroke-linecap:round;stroke-linejoin:round;stroke:rgb(75.686275%,70.980392%,61.568627%);stroke-opacity:1;stroke-miterlimit:10;" d="M 225.816406 10.375 L 226.320313 10.9375 "/>
<path style="fill:none;stroke-width:0.5;stroke-linecap:round;stroke-linejoin:round;stroke:rgb(75.686275%,70.980392%,61.568627%);stroke-opacity:1;stroke-miterlimit:10;" d="M 251.429688 10.449219 L 250.960938 10.503906 "/>
<path style="fill:none;stroke-width:0.5;stroke-linecap:round;stroke-linejoin:round;stroke:rgb(75.686275%,70.980392%,61.568627%);stroke-opacity:1;stroke-miterlimit:10;" d="M 251.425781 13.390625 L 250.742188 13.394531 "/>
<path style="fill:none;stroke-width:0.5;stroke-linecap:round;stroke-linejoin:round;stroke:rgb(75.686275%,70.980392%,61.568627%);stroke-opacity:1;stroke-miterlimit:10;" d="M 221.273438 14.863281 L 221.097656 14.601563 "/>
<path style="fill:none;stroke-width:0.5;stroke-linecap:round;stroke-linejoin:round;stroke:rgb(75.686275%,70.980392%,61.568627%);stroke-opacity:1;stroke-miterlimit:10;" d="M 253.296875 1.988281 L 253.363281 0.914063 L 253.476563 -0.242188 L 253.777344 -1.566406 L 253.664063 -2 "/>
<path style="fill:none;stroke-width:0.5;stroke-linecap:round;stroke-linejoin:round;stroke:rgb(75.686275%,70.980392%,61.568627%);stroke-opacity:1;stroke-miterlimit:10;" d="M 242.351563 7.566406 L 242.375 6.710938 "/>
<path style="fill:none;stroke-width:0.5;stroke-linecap:round;stroke-linejoin:round;stroke:rgb(75.686275%,70.980392%,61.568627%);stroke-opacity:1;stroke-miterlimit:10;" d="M 246.246094 7.53125 L 246.203125 8.371094 "/>
<path style="fill:none;stroke-width:0.5;stroke-linecap:round;stroke-linejoin:round;stroke:rgb(75.686275%,70.980392%,61.568627%);stroke-opacity:1;stroke-miterlimit:10;" d="M 248.988281 3.65625 L 248.003906 4.722656 "/>
<path style="fill:none;stroke-width:0.5;stroke-linecap:round;stroke-linejoin:round;stroke:rgb(75.686275%,70.980392%,61.568627%);stroke-opacity:1;stroke-miterlimit:10;" d="M 159.363281 2.136719 L 159.296875 3.507813 L 158.824219 3.445313 "/>
<path style="fill:none;stroke-width:0.5;stroke-linecap:round;stroke-linejoin:round;stroke:rgb(75.686275%,70.980392%,61.568627%);stroke-opacity:1;stroke-miterlimit:10;" d="M 247.507813 7.515625 L 247.421875 6.964844 "/>
<path style="fill:none;stroke-width:0.5;stroke-linecap:round;stroke-linejoin:round;stroke:rgb(75.686275%,70.980392%,61.568627%);stroke-opacity:1;stroke-miterlimit:10;" d="M 208.738281 3.773438 L 208.195313 4.308594 "/>
<path style="fill:none;stroke-width:0.5;stroke-linecap:round;stroke-linejoin:round;stroke:rgb(75.686275%,70.980392%,61.568627%);stroke-opacity:1;stroke-miterlimit:10;" d="M 199.355469 6.984375 L 198.722656 7.492188 "/>
<path style="fill:none;stroke-width:0.5;stroke-linecap:round;stroke-linejoin:round;stroke:rgb(75.686275%,70.980392%,61.568627%);stroke-opacity:1;stroke-miterlimit:10;" d="M 209.574219 0.21875 L 209.574219 0.683594 "/>
<path style="fill:none;stroke-width:0.5;stroke-linecap:round;stroke-linejoin:round;stroke:rgb(75.686275%,70.980392%,61.568627%);stroke-opacity:1;stroke-miterlimit:10;" d="M 250.640625 4.984375 L 248.898438 6.152344 "/>
<path style="fill:none;stroke-width:0.5;stroke-linecap:round;stroke-linejoin:round;stroke:rgb(75.686275%,70.980392%,61.568627%);stroke-opacity:1;stroke-miterlimit:10;" d="M 166.332031 0.277344 L 167.582031 0.136719 "/>
<path style="fill:none;stroke-width:0.5;stroke-linecap:round;stroke-linejoin:round;stroke:rgb(75.686275%,70.980392%,61.568627%);stroke-opacity:1;stroke-miterlimit:10;" d="M 217.472656 8.8125 L 218.378906 8.382813 L 218.464844 8.246094 "/>
<path style="fill:none;stroke-width:0.5;stroke-linecap:round;stroke-linejoin:round;stroke:rgb(75.686275%,70.980392%,61.568627%);stroke-opacity:1;stroke-miterlimit:10;" d="M 193.347656 10.261719 L 193.640625 9.097656 "/>
<path style="fill:none;stroke-width:0.5;stroke-linecap:round;stroke-linejoin:round;stroke:rgb(75.686275%,70.980392%,61.568627%);stroke-opacity:1;stroke-miterlimit:10;" d="M 148.542969 4.40625 L 148.539063 3.308594 L 148.519531 1.898438 L 148.527344 0.542969 L 148.515625 -0.824219 L 148.308594 -1.820313 L 148.226563 -2 "/>
<path style="fill:none;stroke-width:0.5;stroke-linecap:round;stroke-linejoin:round;stroke:rgb(75.686275%,70.980392%,61.568627%);stroke-opacity:1;stroke-miterlimit:10;" d="M 141.171875 7.554688 L 143.046875 6.570313 L 143.117188 6.535156 "/>
<path style="fill:none;stroke-width:0.5;stroke-linecap:round;stroke-linejoin:round;stroke:rgb(75.686275%,70.980392%,61.568627%);stroke-opacity:1;stroke-miterlimit:10;" d="M 143.117188 6.535156 L 143.246094 6.390625 "/>
<path style="fill:none;stroke-width:0.5;stroke-linecap:round;stroke-linejoin:round;stroke:rgb(75.686275%,70.980392%,61.568627%);stroke-opacity:1;stroke-miterlimit:10;" d="M 143.582031 16.226563 L 143.058594 16.21875 "/>
<path style="fill:none;stroke-width:0.5;stroke-linecap:round;stroke-linejoin:round;stroke:rgb(75.686275%,70.980392%,61.568627%);stroke-opacity:1;stroke-miterlimit:10;" d="M 127.5625 17.214844 L 128.640625 17.019531 L 129.578125 16.496094 L 131.230469 16.222656 L 135.550781 16.207031 L 136.925781 16.203125 L 138.035156 16.191406 L 139.800781 16.195313 L 140.824219 16.195313 L 142.027344 16.203125 L 143.058594 16.21875 "/>
<path style="fill:none;stroke-width:0.5;stroke-linecap:round;stroke-linejoin:round;stroke:rgb(75.686275%,70.980392%,61.568627%);stroke-opacity:1;stroke-miterlimit:10;" d="M 257 4.277344 L 255.519531 4.035156 L 254.054688 3.898438 L 252.84375 3.882813 L 251.835938 3.941406 L 250.941406 3.9375 "/>
<path style="fill:none;stroke-width:0.5;stroke-linecap:round;stroke-linejoin:round;stroke:rgb(75.686275%,70.980392%,61.568627%);stroke-opacity:1;stroke-miterlimit:10;" d="M 180.53125 40.863281 L 179.5 41.160156 L 176.972656 41.089844 L 176.136719 40.460938 L 174.238281 38.648438 L 172.75 36.492188 L 171.417969 34.296875 L 169.746094 33.246094 L 168.679688 32.574219 L 167.171875 31.28125 L 165.113281 29.597656 L 163.238281 28.058594 L 160.484375 26.140625 L 156.917969 23.695313 L 154.949219 22.441406 L 153.796875 21.707031 L 152.761719 21.007813 L 151.460938 20.078125 L 148.511719 17.921875 L 146.398438 16.222656 "/>
<path style="fill:none;stroke-width:0.5;stroke-linecap:round;stroke-linejoin:round;stroke:rgb(75.686275%,70.980392%,61.568627%);stroke-opacity:1;stroke-miterlimit:10;" d="M 209.84375 42.980469 L 210.390625 40.890625 L 210.671875 39.816406 L 211.011719 38.507813 L 211.789063 35.535156 L 211.832031 34.449219 L 211.554688 33.410156 L 210.796875 31.660156 L 210.027344 30.757813 L 209.835938 29.71875 L 209.902344 25.929688 L 209.917969 23.765625 L 209.796875 22.773438 L 208.449219 20.558594 L 206.929688 18.746094 L 205.679688 17.367188 L 205.121094 16.492188 L 204.976563 16.34375 "/>
<path style="fill:none;stroke-width:0.5;stroke-linecap:round;stroke-linejoin:round;stroke:rgb(75.686275%,70.980392%,61.568627%);stroke-opacity:1;stroke-miterlimit:10;" d="M 186.980469 33.351563 L 186.925781 32.054688 L 186.449219 30.742188 L 186.007813 29.734375 L 185.4375 28.441406 L 185.125 27.316406 L 184.996094 26.242188 L 184.875 25.15625 L 184.699219 23.972656 L 184.519531 22.925781 L 184.328125 21.605469 L 184.238281 20.570313 L 183.890625 16.214844 "/>
<path style="fill:none;stroke-width:0.5;stroke-linecap:round;stroke-linejoin:round;stroke:rgb(75.686275%,70.980392%,61.568627%);stroke-opacity:1;stroke-miterlimit:10;" d="M 166.523438 45.851563 L 166.550781 43.480469 L 166.570313 41.996094 L 166.089844 40.203125 L 165.761719 39.226563 L 165.363281 34.433594 L 165.289063 33.070313 L 165.171875 30.980469 L 165.058594 29.554688 L 164.871094 26.476563 L 164.796875 24.296875 L 164.722656 22.945313 L 164.664063 21.777344 L 164.554688 19.449219 L 164.378906 17.160156 L 164.304688 16.214844 "/>
<path style="fill:none;stroke-width:0.5;stroke-linecap:round;stroke-linejoin:round;stroke:rgb(75.686275%,70.980392%,61.568627%);stroke-opacity:1;stroke-miterlimit:10;" d="M 195.597656 16.238281 L 194.546875 16.246094 L 194.035156 16.46875 "/>
<path style="fill:none;stroke-width:0.5;stroke-linecap:round;stroke-linejoin:round;stroke:rgb(75.686275%,70.980392%,61.568627%);stroke-opacity:1;stroke-miterlimit:10;" d="M 198.339844 20.972656 L 197.460938 19.824219 L 196.851563 19 L 195.78125 18.121094 L 194.726563 17.238281 L 194.296875 16.449219 "/>
<path style="fill:none;stroke-width:0.5;stroke-linecap:round;stroke-linejoin:round;stroke:rgb(75.686275%,70.980392%,61.568627%);stroke-opacity:1;stroke-miterlimit:10;" d="M 173.929688 18.316406 L 172.777344 17.933594 L 171.921875 17.300781 L 170.917969 16.507813 L 170.324219 16.195313 "/>
<path style="fill:none;stroke-width:0.5;stroke-linecap:round;stroke-linejoin:round;stroke:rgb(75.686275%,70.980392%,61.568627%);stroke-opacity:1;stroke-miterlimit:10;" d="M 215.433594 17.605469 L 215.179688 16.511719 L 215.015625 16.359375 "/>
<path style="fill:none;stroke-width:0.5;stroke-linecap:round;stroke-linejoin:round;stroke:rgb(75.686275%,70.980392%,61.568627%);stroke-opacity:1;stroke-miterlimit:10;" d="M 219.492188 16.425781 L 223.421875 16.449219 L 224.457031 16.460938 L 225.511719 16.378906 L 226.027344 16.390625 "/>
<path style="fill:none;stroke-width:0.5;stroke-linecap:round;stroke-linejoin:round;stroke:rgb(75.686275%,70.980392%,61.568627%);stroke-opacity:1;stroke-miterlimit:10;" d="M 191.097656 15.078125 L 189.945313 14.941406 L 188.773438 14.980469 L 187.925781 13.835938 L 188.550781 12.816406 L 188.578125 11.625 L 189.246094 10.859375 "/>
<path style="fill:none;stroke-width:0.5;stroke-linecap:round;stroke-linejoin:round;stroke:rgb(75.686275%,70.980392%,61.568627%);stroke-opacity:1;stroke-miterlimit:10;" d="M 204.976563 16.34375 L 204.785156 16.1875 "/>
<path style="fill:none;stroke-width:0.5;stroke-linecap:round;stroke-linejoin:round;stroke:rgb(75.686275%,70.980392%,61.568627%);stroke-opacity:1;stroke-miterlimit:10;" d="M 189.023438 16.230469 L 187.199219 16.222656 L 185.953125 16.21875 L 183.890625 16.214844 L 181.046875 16.207031 L 173.507813 16.191406 "/>
<path style="fill:none;stroke-width:0.5;stroke-linecap:round;stroke-linejoin:round;stroke:rgb(75.686275%,70.980392%,61.568627%);stroke-opacity:1;stroke-miterlimit:10;" d="M 215.015625 16.359375 L 214.941406 16.308594 "/>
<path style="fill:none;stroke-width:0.5;stroke-linecap:round;stroke-linejoin:round;stroke:rgb(75.686275%,70.980392%,61.568627%);stroke-opacity:1;stroke-miterlimit:10;" d="M 191.117188 10.808594 L 189.449219 10.824219 L 189.246094 10.859375 "/>
<path style="fill:none;stroke-width:0.5;stroke-linecap:round;stroke-linejoin:round;stroke:rgb(75.686275%,70.980392%,61.568627%);stroke-opacity:1;stroke-miterlimit:10;" d="M 199.382813 10.898438 L 198.214844 10.90625 L 196.613281 10.910156 L 195.570313 10.78125 L 194.105469 9.460938 L 193.101563 9.097656 L 192.050781 9.207031 L 191.113281 9.066406 "/>
<path style="fill:none;stroke-width:0.5;stroke-linecap:round;stroke-linejoin:round;stroke:rgb(75.686275%,70.980392%,61.568627%);stroke-opacity:1;stroke-miterlimit:10;" d="M 217.351563 11.207031 L 217.261719 10.183594 L 217.476563 9.121094 L 217.472656 8.8125 "/>
<path style="fill:none;stroke-width:0.5;stroke-linecap:round;stroke-linejoin:round;stroke:rgb(75.686275%,70.980392%,61.568627%);stroke-opacity:1;stroke-miterlimit:10;" d="M 219.054688 16.546875 L 219.296875 16.472656 "/>
<path style="fill:none;stroke-width:0.5;stroke-linecap:round;stroke-linejoin:round;stroke:rgb(75.686275%,70.980392%,61.568627%);stroke-opacity:1;stroke-miterlimit:10;" d="M 216.339844 17.246094 L 217.664063 16.882813 L 218.082031 16.785156 "/>
<path style="fill:none;stroke-width:0.5;stroke-linecap:round;stroke-linejoin:round;stroke:rgb(75.686275%,70.980392%,61.568627%);stroke-opacity:1;stroke-miterlimit:10;" d="M 193.914063 16.476563 L 192.828125 16.515625 "/>
<path style="fill:none;stroke-width:0.5;stroke-linecap:round;stroke-linejoin:round;stroke:rgb(75.686275%,70.980392%,61.568627%);stroke-opacity:1;stroke-miterlimit:10;" d="M 238.613281 7.601563 L 240 7.585938 L 241.066406 7.574219 L 242.296875 7.566406 L 243.339844 7.546875 L 244.765625 7.546875 L 246.246094 7.53125 L 247.507813 7.515625 L 248.929688 7.519531 L 251.4375 7.476563 "/>
<path style="fill:none;stroke-width:0.5;stroke-linecap:round;stroke-linejoin:round;stroke:rgb(75.686275%,70.980392%,61.568627%);stroke-opacity:1;stroke-miterlimit:10;" d="M 246.558594 16.496094 L 246.570313 14.867188 L 246.570313 13.628906 L 247.070313 12.664063 L 247.53125 11.355469 L 247.710938 10.027344 L 247.617188 8.777344 L 247.445313 7.769531 L 247.507813 7.515625 "/>
<path style="fill:none;stroke-width:0.5;stroke-linecap:round;stroke-linejoin:round;stroke:rgb(75.686275%,70.980392%,61.568627%);stroke-opacity:1;stroke-miterlimit:10;" d="M 251.410156 6.117188 L 251.4375 4.320313 L 250.46875 3.953125 L 249.378906 3.957031 "/>
<path style="fill:none;stroke-width:0.5;stroke-linecap:round;stroke-linejoin:round;stroke:rgb(75.686275%,70.980392%,61.568627%);stroke-opacity:1;stroke-miterlimit:10;" d="M 219.027344 16.554688 L 219.054688 16.546875 "/>
<path style="fill:none;stroke-width:0.5;stroke-linecap:round;stroke-linejoin:round;stroke:rgb(75.686275%,70.980392%,61.568627%);stroke-opacity:1;stroke-miterlimit:10;" d="M 204.785156 16.1875 L 204.054688 15.425781 L 203.125 14.460938 L 202.269531 13.5625 L 201.496094 12.800781 L 200.257813 12.074219 L 199.433594 11.074219 L 199.136719 9.992188 L 198.726563 8.4375 L 198.761719 7.796875 "/>
<path style="fill:none;stroke-width:0.5;stroke-linecap:round;stroke-linejoin:round;stroke:rgb(75.686275%,70.980392%,61.568627%);stroke-opacity:1;stroke-miterlimit:10;" d="M 212.207031 9.695313 L 212.226563 8.359375 L 212.238281 7.019531 "/>
<path style="fill:none;stroke-width:0.5;stroke-linecap:round;stroke-linejoin:round;stroke:rgb(75.686275%,70.980392%,61.568627%);stroke-opacity:1;stroke-miterlimit:10;" d="M 152.28125 3.644531 L 152.285156 3.527344 "/>
<path style="fill:none;stroke-width:0.5;stroke-linecap:round;stroke-linejoin:round;stroke:rgb(75.686275%,70.980392%,61.568627%);stroke-opacity:1;stroke-miterlimit:10;" d="M 185.449219 8.074219 L 185.683594 6.679688 L 185.675781 5.476563 "/>
<path style="fill:none;stroke-width:0.5;stroke-linecap:round;stroke-linejoin:round;stroke:rgb(75.686275%,70.980392%,61.568627%);stroke-opacity:1;stroke-miterlimit:10;" d="M 180.195313 16.175781 L 180.277344 13.007813 L 180.277344 11.632813 L 180.28125 10.265625 L 180.300781 8.835938 L 180.285156 7.464844 L 180.292969 5.445313 "/>
<path style="fill:none;stroke-width:0.5;stroke-linecap:round;stroke-linejoin:round;stroke:rgb(75.686275%,70.980392%,61.568627%);stroke-opacity:1;stroke-miterlimit:10;" d="M 185.675781 5.476563 L 185.6875 3.902344 L 185.707031 2.035156 L 185.71875 0.128906 L 185.71875 -2 "/>
<path style="fill:none;stroke-width:0.5;stroke-linecap:round;stroke-linejoin:round;stroke:rgb(75.686275%,70.980392%,61.568627%);stroke-opacity:1;stroke-miterlimit:10;" d="M 198.785156 7.46875 L 199.351563 6.207031 L 199.363281 5.453125 "/>
<path style="fill:none;stroke-width:0.5;stroke-linecap:round;stroke-linejoin:round;stroke:rgb(75.686275%,70.980392%,61.568627%);stroke-opacity:1;stroke-miterlimit:10;" d="M 191.898438 5.460938 L 191.917969 4.347656 L 191.125 4.308594 "/>
<path style="fill:none;stroke-width:0.5;stroke-linecap:round;stroke-linejoin:round;stroke:rgb(75.686275%,70.980392%,61.568627%);stroke-opacity:1;stroke-miterlimit:10;" d="M 152.957031 3.402344 L 153.058594 2.371094 L 153.0625 0.847656 L 153.226563 -0.277344 L 153.566406 -1.671875 L 153.707031 -2 "/>
<path style="fill:none;stroke-width:0.5;stroke-linecap:round;stroke-linejoin:round;stroke:rgb(75.686275%,70.980392%,61.568627%);stroke-opacity:1;stroke-miterlimit:10;" d="M 214.941406 16.308594 L 213.980469 15.417969 L 212.746094 15.425781 L 211.394531 14.8125 L 210.527344 14.082031 L 209.738281 13.402344 L 208.644531 12.371094 L 207.644531 11.414063 L 206.851563 10.679688 L 206.027344 10.097656 L 204.664063 9.144531 L 203.691406 8.472656 L 202.675781 8.078125 L 201.652344 8.058594 L 200.265625 7.78125 L 199.226563 7.988281 L 198.714844 7.964844 "/>
<path style="fill:none;stroke-width:0.5;stroke-linecap:round;stroke-linejoin:round;stroke:rgb(75.686275%,70.980392%,61.568627%);stroke-opacity:1;stroke-miterlimit:10;" d="M 198.785156 7.46875 L 197.851563 7.101563 L 196.921875 6.042969 L 196.40625 5.453125 "/>
<path style="fill:none;stroke-width:0.5;stroke-linecap:round;stroke-linejoin:round;stroke:rgb(75.686275%,70.980392%,61.568627%);stroke-opacity:1;stroke-miterlimit:10;" d="M 156.230469 16.207031 L 155.75 15.097656 L 155.058594 14.105469 L 154.5 13.167969 L 153.988281 12.296875 L 153.75 10.019531 L 153.742188 8.671875 L 153.742188 7.316406 L 153.757813 6.03125 L 153.574219 4.785156 L 152.695313 3.9375 L 152.171875 3.546875 "/>
<path style="fill:none;stroke-width:0.5;stroke-linecap:round;stroke-linejoin:round;stroke:rgb(75.686275%,70.980392%,61.568627%);stroke-opacity:1;stroke-miterlimit:10;" d="M 164.398438 16.214844 L 164.394531 14.65625 L 164.394531 11.894531 L 164.160156 10.710938 L 164.375 8.9375 L 164.363281 6.097656 L 164.359375 4.726563 L 164.375 4.035156 "/>
<path style="fill:none;stroke-width:0.5;stroke-linecap:round;stroke-linejoin:round;stroke:rgb(75.686275%,70.980392%,61.568627%);stroke-opacity:1;stroke-miterlimit:10;" d="M 217.472656 8.8125 L 217.632813 6.828125 L 217.644531 5.792969 L 216.6875 4.609375 L 215.90625 3.800781 L 215.789063 1.257813 L 215.441406 0.304688 L 214.804688 -0.839844 L 214.6875 -1.925781 L 214.710938 -2 "/>
<path style="fill:none;stroke-width:0.5;stroke-linecap:round;stroke-linejoin:round;stroke:rgb(75.686275%,70.980392%,61.568627%);stroke-opacity:1;stroke-miterlimit:10;" d="M 228.238281 16.40625 L 228.25 15.085938 L 228.253906 13.078125 L 228.257813 11.652344 L 228.257813 7.367188 L 228.28125 5.523438 L 228.28125 2.261719 L 228.292969 0.839844 L 228.3125 -0.503906 L 228.308594 -2 "/>
<path style="fill:none;stroke-width:0.5;stroke-linecap:round;stroke-linejoin:round;stroke:rgb(75.686275%,70.980392%,61.568627%);stroke-opacity:1;stroke-miterlimit:10;" d="M 228.257813 8.527344 L 227.128906 8.515625 L 226.113281 8.492188 L 224.773438 8.488281 L 222.722656 8.382813 L 221.582031 8.332031 L 220.5625 8.3125 L 218.839844 8.292969 L 217.601563 7.910156 L 216.542969 7.464844 L 215.453125 7.417969 L 214.015625 7.421875 L 212.953125 7.390625 L 211.847656 6.644531 L 211.109375 5.964844 L 209.183594 4.714844 L 208.195313 4.308594 L 206.863281 4.167969 L 205.734375 4.046875 L 204.714844 3.929688 L 203.625 3.6875 L 202.449219 3.742188 "/>
<path style="fill:none;stroke-width:0.5;stroke-linecap:round;stroke-linejoin:round;stroke:rgb(75.686275%,70.980392%,61.568627%);stroke-opacity:1;stroke-miterlimit:10;" d="M 190.675781 5.464844 L 190.683594 4.394531 L 191.125 4.308594 "/>
<path style="fill:none;stroke-width:0.5;stroke-linecap:round;stroke-linejoin:round;stroke:rgb(75.686275%,70.980392%,61.568627%);stroke-opacity:1;stroke-miterlimit:10;" d="M 196.40625 5.453125 L 196.398438 3.832031 L 196.394531 1.515625 L 196.402344 0.136719 L 196.4375 -1.699219 L 196.441406 -2 "/>
<path style="fill:none;stroke-width:0.5;stroke-linecap:round;stroke-linejoin:round;stroke:rgb(75.686275%,70.980392%,61.568627%);stroke-opacity:1;stroke-miterlimit:10;" d="M 209.03125 5.453125 L 208.734375 4.457031 L 208.734375 1.050781 L 208.738281 0.214844 "/>
<path style="fill:none;stroke-width:0.5;stroke-linecap:round;stroke-linejoin:round;stroke:rgb(75.686275%,70.980392%,61.568627%);stroke-opacity:1;stroke-miterlimit:10;" d="M 156.523438 1.597656 L 155.375 1.128906 L 153.925781 0.640625 L 153.101563 0.253906 "/>
<path style="fill:none;stroke-width:0.5;stroke-linecap:round;stroke-linejoin:round;stroke:rgb(75.686275%,70.980392%,61.568627%);stroke-opacity:1;stroke-miterlimit:10;" d="M 226.027344 16.390625 L 228.238281 16.40625 "/>
<path style="fill:none;stroke-width:0.5;stroke-linecap:round;stroke-linejoin:round;stroke:rgb(75.686275%,70.980392%,61.568627%);stroke-opacity:1;stroke-miterlimit:10;" d="M 193 9.105469 L 192.824219 8.117188 L 192.335938 7.195313 L 192.328125 5.457031 "/>
<path style="fill:none;stroke-width:0.5;stroke-linecap:round;stroke-linejoin:round;stroke:rgb(75.686275%,70.980392%,61.568627%);stroke-opacity:1;stroke-miterlimit:10;" d="M 212.898438 0.257813 L 214.117188 -0.644531 L 214.695313 -1.007813 "/>
<path style="fill:none;stroke-width:0.5;stroke-linecap:round;stroke-linejoin:round;stroke:rgb(75.686275%,70.980392%,61.568627%);stroke-opacity:1;stroke-miterlimit:10;" d="M 228.300781 0.34375 L 226.4375 0.347656 L 225.152344 0.351563 L 221.363281 0.328125 L 219.949219 0.308594 L 218.523438 -0.253906 L 217.421875 -0.457031 L 215.679688 0.117188 L 214.007813 0.265625 L 212.898438 0.257813 L 211.289063 0.242188 L 209.574219 0.21875 L 208.289063 0.207031 L 207.117188 0.207031 L 205.140625 0.175781 L 204.046875 0.171875 L 201.988281 0.144531 L 200.6875 0.144531 L 198.898438 0.152344 L 197.097656 0.136719 L 195.894531 0.136719 L 194.050781 0.121094 L 192.921875 0.121094 L 191.167969 0.109375 L 189.917969 0.117188 L 188.230469 0.121094 L 187.082031 0.0820313 L 186.117188 -0.660156 L 184.808594 -1.300781 L 183.40625 -1.980469 L 183.367188 -2 "/>
<path style="fill:none;stroke-width:0.5;stroke-linecap:round;stroke-linejoin:round;stroke:rgb(75.686275%,70.980392%,61.568627%);stroke-opacity:1;stroke-miterlimit:10;" d="M 171.386719 4.03125 L 171.433594 1.128906 L 171.4375 -0.753906 L 171.429688 -2 "/>
<path style="fill:none;stroke-width:0.5;stroke-linecap:round;stroke-linejoin:round;stroke:rgb(75.686275%,70.980392%,61.568627%);stroke-opacity:1;stroke-miterlimit:10;" d="M 198.773438 7.695313 L 198.785156 7.46875 "/>
<path style="fill:none;stroke-width:0.5;stroke-linecap:round;stroke-linejoin:round;stroke:rgb(75.686275%,70.980392%,61.568627%);stroke-opacity:1;stroke-miterlimit:10;" d="M 170.324219 16.195313 L 168.914063 16.207031 L 167.710938 16.214844 L 165.964844 16.226563 L 164.398438 16.214844 L 159.597656 16.226563 L 158 16.242188 L 156.769531 16.21875 L 154.257813 16.222656 L 151.277344 16.207031 L 149.953125 16.199219 L 148.496094 16.214844 L 146.839844 16.214844 L 143.582031 16.226563 "/>
<path style="fill:none;stroke-width:0.5;stroke-linecap:round;stroke-linejoin:round;stroke:rgb(75.686275%,70.980392%,61.568627%);stroke-opacity:1;stroke-miterlimit:10;" d="M 235.515625 18.820313 L 235.734375 16.402344 "/>
<path style="fill:none;stroke-width:0.5;stroke-linecap:round;stroke-linejoin:round;stroke:rgb(75.686275%,70.980392%,61.568627%);stroke-opacity:1;stroke-miterlimit:10;" d="M 234.386719 18.824219 L 229.457031 18.601563 L 228.414063 17.964844 L 228.238281 16.40625 "/>
<path style="fill:none;stroke-width:0.5;stroke-linecap:round;stroke-linejoin:round;stroke:rgb(75.686275%,70.980392%,61.568627%);stroke-opacity:1;stroke-miterlimit:10;" d="M 218.082031 16.785156 L 219.027344 16.554688 "/>
<path style="fill:none;stroke-width:0.5;stroke-linecap:round;stroke-linejoin:round;stroke:rgb(75.686275%,70.980392%,61.568627%);stroke-opacity:1;stroke-miterlimit:10;" d="M 219.296875 16.472656 L 219.429688 16.449219 "/>
<path style="fill:none;stroke-width:0.5;stroke-linecap:round;stroke-linejoin:round;stroke:rgb(75.686275%,70.980392%,61.568627%);stroke-opacity:1;stroke-miterlimit:10;" d="M 237.402344 18.863281 L 237.625 17.746094 L 237.226563 16.660156 L 237.148438 16.410156 "/>
<path style="fill:none;stroke-width:0.5;stroke-linecap:round;stroke-linejoin:round;stroke:rgb(75.686275%,70.980392%,61.568627%);stroke-opacity:1;stroke-miterlimit:10;" d="M 228.257813 9.066406 L 228.632813 9.085938 "/>
<path style="fill:none;stroke-width:0.5;stroke-linecap:round;stroke-linejoin:round;stroke:rgb(75.686275%,70.980392%,61.568627%);stroke-opacity:1;stroke-miterlimit:10;" d="M 228.257813 9.550781 L 229.78125 9.546875 L 231.15625 9.566406 L 232.488281 9.550781 L 233.511719 9.429688 L 234.886719 9.375 L 236.253906 9.371094 L 237.527344 9.355469 L 238.613281 9.320313 "/>
<path style="fill:none;stroke-width:0.5;stroke-linecap:round;stroke-linejoin:round;stroke:rgb(75.686275%,70.980392%,61.568627%);stroke-opacity:1;stroke-miterlimit:10;" d="M 219.429688 16.449219 L 220.527344 15.65625 L 221.273438 14.863281 L 222.101563 13.957031 L 222.882813 13.128906 L 223.9375 12.609375 L 224.828125 11.769531 L 225.640625 10.613281 L 226.535156 9.367188 L 227.128906 8.515625 L 227.226563 6.917969 L 228.152344 5.628906 L 228.28125 5.523438 "/>
<path style="fill:none;stroke-width:0.5;stroke-linecap:round;stroke-linejoin:round;stroke:rgb(75.686275%,70.980392%,61.568627%);stroke-opacity:1;stroke-miterlimit:10;" d="M 235.734375 16.402344 L 236.492188 15.613281 L 237.199219 14.773438 L 237.78125 13.757813 L 238.4375 12.578125 L 238.617188 9.796875 L 238.613281 8.640625 L 238.613281 7.601563 L 238.601563 5.839844 L 238.605469 3.867188 L 238.589844 -0.0546875 L 238.597656 -1.382813 L 238.597656 -2 "/>
<path style="fill:none;stroke-width:0.75;stroke-linecap:round;stroke-linejoin:round;stroke:rgb(75.686275%,70.980392%,61.568627%);stroke-opacity:1;stroke-miterlimit:10;" d="M 190.375 16.242188 L 191.082031 15.457031 L 191.097656 14.277344 L 191.113281 13.207031 L 191.121094 11.949219 L 191.117188 10.808594 L 191.113281 9.066406 L 191.121094 6.824219 L 191.117188 5.464844 "/>
<path style="fill:none;stroke-width:0.75;stroke-linecap:round;stroke-linejoin:round;stroke:rgb(75.686275%,70.980392%,61.568627%);stroke-opacity:1;stroke-miterlimit:10;" d="M 191.398438 29.976563 L 189.609375 25.511719 L 189.273438 24.480469 L 189.21875 23.199219 L 189.136719 21.273438 L 189.097656 20.105469 L 189.058594 18.203125 L 189.035156 16.824219 L 189.023438 16.230469 "/>
<path style="fill:none;stroke-width:0.75;stroke-linecap:round;stroke-linejoin:round;stroke:rgb(75.686275%,70.980392%,61.568627%);stroke-opacity:1;stroke-miterlimit:10;" d="M 198.15625 27.960938 L 197.464844 27.019531 L 196.667969 25.941406 L 195.222656 23.976563 L 194.714844 23.105469 L 194.253906 21.683594 L 193.847656 20.359375 L 193.4375 19.007813 L 192.949219 17.429688 L 192.8125 16.316406 L 192.75 16.121094 "/>
<path style="fill:none;stroke-width:0.75;stroke-linecap:round;stroke-linejoin:round;stroke:rgb(75.686275%,70.980392%,61.568627%);stroke-opacity:1;stroke-miterlimit:10;" d="M 191.117188 5.464844 L 191.125 4.308594 L 191.152344 1.605469 L 191.167969 0.59375 L 191.171875 -1.136719 L 191.171875 -2 "/>
<path style="fill:none;stroke-width:0.75;stroke-linecap:round;stroke-linejoin:round;stroke:rgb(75.686275%,70.980392%,61.568627%);stroke-opacity:1;stroke-miterlimit:10;" d="M 190.375 16.242188 L 189.023438 16.230469 "/>
<path style="fill:none;stroke-width:0.75;stroke-linecap:round;stroke-linejoin:round;stroke:rgb(75.686275%,70.980392%,61.568627%);stroke-opacity:1;stroke-miterlimit:10;" d="M 192.75 16.121094 L 191.933594 14.652344 L 191.152344 13.265625 L 191.113281 13.207031 "/>
<path style="fill:none;stroke-width:2;stroke-linecap:round;stroke-linejoin:round;stroke:rgb(75.686275%,70.980392%,61.568627%);stroke-opacity:1;stroke-miterlimit:10;" d="M 167.171875 3.742188 L 166.804688 2.539063 L 166.527344 0.949219 L 166.253906 -0.078125 L 166.113281 -1.261719 L 165.964844 -2.648438 L 165.945313 -3 "/>
<path style="fill:none;stroke-width:2;stroke-linecap:round;stroke-linejoin:round;stroke:rgb(75.686275%,70.980392%,61.568627%);stroke-opacity:1;stroke-miterlimit:10;" d="M 251.417969 16.492188 L 250.773438 18.933594 L 249.78125 19.414063 L 247.917969 19.421875 L 246.617188 19.425781 "/>
<path style="fill:none;stroke-width:2;stroke-linecap:round;stroke-linejoin:round;stroke:rgb(75.686275%,70.980392%,61.568627%);stroke-opacity:1;stroke-miterlimit:10;" d="M 143.074219 6.398438 L 141.03125 6.359375 L 139.816406 6.316406 L 138.011719 5.859375 L 136.675781 5.191406 L 135.664063 5.277344 L 134.808594 6.941406 L 134.117188 7.730469 L 133.503906 8.53125 L 132.738281 10.425781 L 132.199219 11.636719 L 131.148438 12.316406 L 128.808594 13.84375 L 128.496094 13.988281 "/>
<path style="fill:none;stroke-width:2;stroke-linecap:round;stroke-linejoin:round;stroke:rgb(75.686275%,70.980392%,61.568627%);stroke-opacity:1;stroke-miterlimit:10;" d="M 167.171875 3.742188 L 167.898438 3.628906 "/>
<path style="fill:none;stroke-width:2;stroke-linecap:round;stroke-linejoin:round;stroke:rgb(75.686275%,70.980392%,61.568627%);stroke-opacity:1;stroke-miterlimit:10;" d="M 185.675781 5.476563 L 184.261719 5.464844 L 181.363281 5.457031 L 180.292969 5.445313 L 178.324219 5.441406 L 177.179688 5.40625 L 175.886719 5.144531 L 173.382813 4.550781 L 171.527344 4.070313 L 170.164063 3.703125 L 169.183594 3.507813 L 167.898438 3.628906 "/>
<path style="fill:none;stroke-width:2;stroke-linecap:round;stroke-linejoin:round;stroke:rgb(75.686275%,70.980392%,61.568627%);stroke-opacity:1;stroke-miterlimit:10;" d="M 143.113281 6.398438 L 144.25 6.175781 L 145.25 5.875 L 146.507813 5.480469 L 147.527344 4.964844 L 148.542969 4.40625 L 150.710938 3.839844 L 152.171875 3.546875 L 153.285156 3.339844 L 154.730469 2.59375 L 155.671875 1.925781 L 156.699219 1.574219 L 157.820313 1.734375 L 159.28125 2.117188 L 160.835938 2.515625 L 161.890625 2.824219 L 162.917969 3.269531 L 163.808594 3.796875 L 164.832031 4.101563 L 166.53125 3.871094 L 167.171875 3.742188 "/>
<path style="fill:none;stroke-width:2;stroke-linecap:round;stroke-linejoin:round;stroke:rgb(75.686275%,70.980392%,61.568627%);stroke-opacity:1;stroke-miterlimit:10;" d="M 203.660156 0.164063 L 204.171875 -0.941406 L 204.953125 -2.566406 L 205.160156 -3 "/>
<path style="fill:none;stroke-width:2;stroke-linecap:round;stroke-linejoin:round;stroke:rgb(75.686275%,70.980392%,61.568627%);stroke-opacity:1;stroke-miterlimit:10;" d="M 191.117188 5.464844 L 192.328125 5.457031 L 194.3125 5.457031 L 196.40625 5.453125 L 199.363281 5.453125 L 201.15625 5.460938 L 202.449219 3.742188 L 202.933594 2.726563 L 203.355469 1.621094 L 203.59375 0.410156 L 203.660156 0.164063 "/>
<path style="fill:none;stroke-width:2;stroke-linecap:round;stroke-linejoin:round;stroke:rgb(75.686275%,70.980392%,61.568627%);stroke-opacity:1;stroke-miterlimit:10;" d="M 251.417969 16.492188 L 251.433594 14.914063 L 251.425781 13.390625 L 251.425781 9.496094 L 251.4375 7.476563 L 251.425781 6.242188 L 250.984375 5.300781 L 250.121094 4.550781 L 249.042969 3.703125 L 247.976563 2.757813 L 247.351563 1.78125 L 246.828125 0.875 L 246.300781 -0.015625 L 245.75 -0.976563 L 245.585938 -2.054688 L 245.59375 -3 "/>
<path style="fill:none;stroke-width:2;stroke-linecap:round;stroke-linejoin:round;stroke:rgb(75.686275%,70.980392%,61.568627%);stroke-opacity:1;stroke-miterlimit:10;" d="M 182.292969 42.378906 L 181.410156 41.625 L 180.53125 40.863281 L 178.953125 39.496094 L 178.128906 38.753906 L 177.859375 36.976563 L 177.726563 34.425781 L 177.640625 33.09375 L 177.339844 27.695313 L 177.152344 26.472656 L 176.414063 25.539063 L 175.570313 24.644531 L 174.855469 23.867188 L 174.175781 22.941406 L 173.703125 21.769531 L 173.957031 19.691406 L 173.929688 18.316406 L 173.507813 16.191406 "/>
<path style="fill:none;stroke-width:2;stroke-linecap:round;stroke-linejoin:round;stroke:rgb(75.686275%,70.980392%,61.568627%);stroke-opacity:1;stroke-miterlimit:10;" d="M 258 10.871094 L 257.160156 10.046875 L 256.390625 9.132813 L 255.75 8.066406 L 254.714844 7.617188 L 252.105469 7.496094 L 251.4375 7.476563 "/>
<path style="fill:none;stroke-width:2;stroke-linecap:round;stroke-linejoin:round;stroke:rgb(75.686275%,70.980392%,61.568627%);stroke-opacity:1;stroke-miterlimit:10;" d="M 191.117188 5.464844 L 190.390625 5.46875 "/>
<path style="fill:none;stroke-width:2;stroke-linecap:round;stroke-linejoin:round;stroke:rgb(75.686275%,70.980392%,61.568627%);stroke-opacity:1;stroke-miterlimit:10;" d="M 185.675781 5.476563 L 187.972656 5.484375 L 189.039063 5.484375 L 190.390625 5.46875 "/>
<path style="fill:none;stroke-width:2;stroke-linecap:round;stroke-linejoin:round;stroke:rgb(75.686275%,70.980392%,61.568627%);stroke-opacity:1;stroke-miterlimit:10;" d="M 173.507813 16.191406 L 173.074219 15.28125 L 171.992188 14.714844 L 170.441406 13.382813 L 169.683594 12.644531 L 169.636719 11.46875 L 169.332031 10.117188 L 168.902344 9.097656 L 168.925781 7.945313 L 168.367188 6.683594 L 167.945313 5.59375 L 167.902344 3.957031 L 167.898438 3.628906 "/>
<path style="fill:none;stroke-width:2;stroke-linecap:round;stroke-linejoin:round;stroke:rgb(75.686275%,70.980392%,61.568627%);stroke-opacity:1;stroke-miterlimit:10;" d="M 143.074219 6.398438 L 143.113281 6.398438 "/>
<path style="fill:none;stroke-width:0.5;stroke-linecap:round;stroke-linejoin:round;stroke:rgb(75.686275%,70.980392%,61.568627%);stroke-opacity:1;stroke-miterlimit:10;" d="M 194.035156 16.46875 L 193.914063 16.476563 "/>
<path style="fill:none;stroke-width:0.5;stroke-linecap:round;stroke-linejoin:round;stroke:rgb(75.686275%,70.980392%,61.568627%);stroke-opacity:1;stroke-miterlimit:10;" d="M 198.761719 7.796875 L 198.773438 7.695313 "/>
<path style="fill:none;stroke-width:1;stroke-linecap:round;stroke-linejoin:round;stroke:rgb(100%,99.215686%,54.509804%);stroke-opacity:1;stroke-miterlimit:10;" d="M 167.171875 3.742188 L 166.804688 2.539063 L 166.527344 0.949219 L 166.253906 -0.078125 L 166.113281 -1.261719 L 165.964844 -2.648438 L 165.945313 -3 "/>
<path style="fill:none;stroke-width:1;stroke-linecap:round;stroke-linejoin:round;stroke:rgb(100%,99.215686%,54.509804%);stroke-opacity:1;stroke-miterlimit:10;" d="M 251.417969 16.492188 L 250.773438 18.933594 L 249.78125 19.414063 L 247.917969 19.421875 L 246.617188 19.425781 "/>
<path style="fill:none;stroke-width:1;stroke-linecap:round;stroke-linejoin:round;stroke:rgb(100%,99.215686%,54.509804%);stroke-opacity:1;stroke-miterlimit:10;" d="M 143.074219 6.398438 L 141.03125 6.359375 L 139.816406 6.316406 L 138.011719 5.859375 L 136.675781 5.191406 L 135.664063 5.277344 L 134.808594 6.941406 L 134.117188 7.730469 L 133.503906 8.53125 L 132.738281 10.425781 L 132.199219 11.636719 L 131.148438 12.316406 L 128.808594 13.84375 L 128.496094 13.988281 "/>
<path style="fill:none;stroke-width:1;stroke-linecap:round;stroke-linejoin:round;stroke:rgb(100%,99.215686%,54.509804%);stroke-opacity:1;stroke-miterlimit:10;" d="M 167.171875 3.742188 L 167.898438 3.628906 "/>
<path style="fill:none;stroke-width:1;stroke-linecap:round;stroke-linejoin:round;stroke:rgb(100%,99.215686%,54.509804%);stroke-opacity:1;stroke-miterlimit:10;" d="M 185.675781 5.476563 L 184.261719 5.464844 L 181.363281 5.457031 L 180.292969 5.445313 L 178.324219 5.441406 L 177.179688 5.40625 L 175.886719 5.144531 L 173.382813 4.550781 L 171.527344 4.070313 L 170.164063 3.703125 L 169.183594 3.507813 L 167.898438 3.628906 "/>
<path style="fill:none;stroke-width:1;stroke-linecap:round;stroke-linejoin:round;stroke:rgb(100%,99.215686%,54.509804%);stroke-opacity:1;stroke-miterlimit:10;" d="M 143.113281 6.398438 L 144.25 6.175781 L 145.25 5.875 L 146.507813 5.480469 L 147.527344 4.964844 L 148.542969 4.40625 L 150.710938 3.839844 L 152.171875 3.546875 L 153.285156 3.339844 L 154.730469 2.59375 L 155.671875 1.925781 L 156.699219 1.574219 L 157.820313 1.734375 L 159.28125 2.117188 L 160.835938 2.515625 L 161.890625 2.824219 L 162.917969 3.269531 L 163.808594 3.796875 L 164.832031 4.101563 L 166.53125 3.871094 L 167.171875 3.742188 "/>
<path style="fill:none;stroke-width:1;stroke-linecap:round;stroke-linejoin:round;stroke:rgb(100%,99.215686%,54.509804%);stroke-opacity:1;stroke-miterlimit:10;" d="M 203.660156 0.164063 L 204.171875 -0.941406 L 204.953125 -2.566406 L 205.160156 -3 "/>
<path style="fill:none;stroke-width:1;stroke-linecap:round;stroke-linejoin:round;stroke:rgb(100%,99.215686%,54.509804%);stroke-opacity:1;stroke-miterlimit:10;" d="M 191.117188 5.464844 L 192.328125 5.457031 L 194.3125 5.457031 L 196.40625 5.453125 L 199.363281 5.453125 L 201.15625 5.460938 L 202.449219 3.742188 L 202.933594 2.726563 L 203.355469 1.621094 L 203.59375 0.410156 L 203.660156 0.164063 "/>
<path style="fill:none;stroke-width:1;stroke-linecap:round;stroke-linejoin:round;stroke:rgb(100%,99.215686%,54.509804%);stroke-opacity:1;stroke-miterlimit:10;" d="M 251.417969 16.492188 L 251.433594 14.914063 L 251.425781 13.390625 L 251.425781 9.496094 L 251.4375 7.476563 L 251.425781 6.242188 L 250.984375 5.300781 L 250.121094 4.550781 L 249.042969 3.703125 L 247.976563 2.757813 L 247.351563 1.78125 L 246.828125 0.875 L 246.300781 -0.015625 L 245.75 -0.976563 L 245.585938 -2.054688 L 245.59375 -3 "/>
<path style="fill:none;stroke-width:1;stroke-linecap:round;stroke-linejoin:round;stroke:rgb(100%,99.215686%,54.509804%);stroke-opacity:1;stroke-miterlimit:10;" d="M 182.292969 42.378906 L 181.410156 41.625 L 180.53125 40.863281 L 178.953125 39.496094 L 178.128906 38.753906 L 177.859375 36.976563 L 177.726563 34.425781 L 177.640625 33.09375 L 177.339844 27.695313 L 177.152344 26.472656 L 176.414063 25.539063 L 175.570313 24.644531 L 174.855469 23.867188 L 174.175781 22.941406 L 173.703125 21.769531 L 173.957031 19.691406 L 173.929688 18.316406 L 173.507813 16.191406 "/>
<path style="fill:none;stroke-width:1;stroke-linecap:round;stroke-linejoin:round;stroke:rgb(100%,99.215686%,54.509804%);stroke-opacity:1;stroke-miterlimit:10;" d="M 258 10.871094 L 257.160156 10.046875 L 256.390625 9.132813 L 255.75 8.066406 L 254.714844 7.617188 L 252.105469 7.496094 L 251.4375 7.476563 "/>
<path style="fill:none;stroke-width:1;stroke-linecap:round;stroke-linejoin:round;stroke:rgb(100%,99.215686%,54.509804%);stroke-opacity:1;stroke-miterlimit:10;" d="M 191.117188 5.464844 L 190.390625 5.46875 "/>
<path style="fill:none;stroke-width:1;stroke-linecap:round;stroke-linejoin:round;stroke:rgb(100%,99.215686%,54.509804%);stroke-opacity:1;stroke-miterlimit:10;" d="M 185.675781 5.476563 L 187.972656 5.484375 L 189.039063 5.484375 L 190.390625 5.46875 "/>
<path style="fill:none;stroke-width:1;stroke-linecap:round;stroke-linejoin:round;stroke:rgb(100%,99.215686%,54.509804%);stroke-opacity:1;stroke-miterlimit:10;" d="M 173.507813 16.191406 L 173.074219 15.28125 L 171.992188 14.714844 L 170.441406 13.382813 L 169.683594 12.644531 L 169.636719 11.46875 L 169.332031 10.117188 L 168.902344 9.097656 L 168.925781 7.945313 L 168.367188 6.683594 L 167.945313 5.59375 L 167.902344 3.957031 L 167.898438 3.628906 "/>
<path style="fill:none;stroke-width:1;stroke-linecap:round;stroke-linejoin:round;stroke:rgb(100%,99.215686%,54.509804%);stroke-opacity:1;stroke-miterlimit:10;" d="M 143.074219 6.398438 L 143.113281 6.398438 "/>
</g>
</svg>

