<?xml version="1.0" encoding="UTF-8"?>
<svg xmlns="http://www.w3.org/2000/svg" xmlns:xlink="http://www.w3.org/1999/xlink" width="256pt" height="256pt" viewBox="0 0 256 256" version="1.1">
<g id="surface2">
<rect x="0" y="0" width="256" height="256" style="fill:rgb(60%,70.196078%,80%);fill-opacity:1;stroke:none;"/>
<path style=" stroke:none;fill-rule:evenodd;fill:rgb(94.901961%,93.72549%,91.372549%);fill-opacity:1;" d="M 156.929688 213.964844 L 157.234375 213.421875 L 157.695313 213.003906 L 158.304688 212.835938 L 158.910156 212.84375 L 160.867188 213.34375 L 161.285156 212.144531 L 161.757813 211.355469 L 162.300781 210.796875 L 162.953125 210.199219 L 163.667969 209.726563 L 164.308594 209.339844 L 165.105469 209.039063 L 165.945313 208.890625 L 166.824219 208.832031 L 168.257813 209.054688 L 167.929688 210.628906 L 167.171875 210.472656 L 166.597656 210.425781 L 165.953125 210.503906 L 165.320313 210.707031 L 165.628906 211.566406 L 164.929688 211.914063 L 164.308594 212.347656 L 163.8125 212.90625 L 163.4375 213.4375 L 163.28125 213.988281 L 164.191406 214.265625 L 164.628906 213.640625 L 165.289063 213.101563 L 166.046875 212.910156 L 167.015625 212.496094 L 167.902344 212.441406 L 168.375 212.863281 L 168.820313 213.378906 L 169.125 214.070313 L 169.46875 214.652344 L 169.628906 215.238281 L 169.492188 215.882813 L 170.5625 216.207031 L 178.667969 187.761719 L 167.027344 184.445313 L 167.167969 183.910156 L 164.019531 182.929688 L 163.472656 182.609375 L 163.144531 182.144531 L 163.042969 181.582031 L 163.09375 180.9375 L 164.464844 174.285156 L 173.621094 125.445313 L 175.464844 115.703125 L 177.207031 106.511719 L 180.6875 88.074219 L 183.34375 69.585938 L 186.25 48.492188 L 188.25 33.890625 L 188.550781 33.492188 L 189.027344 33.394531 L 189.441406 33.679688 L 189.5625 34.058594 L 187.605469 48.722656 L 201.316406 51.621094 L 214.929688 54.476563 L 216.554688 44.914063 L 216.148438 44.507813 L 215.644531 42.648438 L 215.050781 40.210938 L 214.769531 37.660156 L 214.929688 34.84375 L 215.746094 32.023438 L 217.042969 29.410156 L 218.605469 27.304688 L 220.183594 25.632813 L 221.945313 16.195313 L 192.921875 10.40625 L 190.707031 26.574219 L 190.425781 26.988281 L 189.945313 27.070313 L 189.546875 26.933594 L 189.304688 26.398438 L 191.597656 10.1875 L 191.617188 9.570313 L 193.53125 -4 L 259 -4 L 259 259 L 155.917969 259 L 154.765625 254.28125 L 152.59375 245.097656 L 151.792969 241.664063 L 153.058594 233.917969 L 154.113281 228.644531 L 154.683594 225.484375 L 156.714844 214.804688 Z M 156.929688 213.964844 "/>
<path style=" stroke:none;fill-rule:evenodd;fill:rgb(94.901961%,93.72549%,91.372549%);fill-opacity:1;" d="M 259 -4 L -4 -4 L -4 259 L -4 -4 Z M 259 -4 "/>
<path style=" stroke:none;fill-rule:evenodd;fill:rgb(70.980392%,82.352941%,61.176471%);fill-opacity:1;" d="M 163.144531 182.144531 L 164.023438 182.929688 L 168.523438 177.109375 L 176.105469 140.152344 L 178.171875 129.722656 L 185.632813 93.097656 L 187.140625 83.71875 L 185.941406 83.363281 L 184.730469 83.015625 L 185.308594 81.117188 L 185.871094 79.21875 L 186.429688 77.324219 L 188.523438 72.113281 L 194.699219 73.804688 L 197.792969 64.640625 L 199.699219 65.015625 L 208.441406 66.921875 L 229.171875 72.242188 L 229.886719 69.964844 L 235.0625 53.472656 L 227.785156 51.3125 L 230.027344 42.925781 L 225.746094 40.765625 L 236.828125 21.242188 L 240.484375 14.792969 L 211.152344 -1.296875 L 206.242188 -4 L 193.527344 -4 L 191.617188 9.570313 L 221.949219 16.195313 L 220.183594 25.632813 L 218.605469 27.304688 L 217.042969 29.410156 L 215.746094 32.023438 L 214.929688 34.84375 L 214.769531 37.660156 L 215.050781 40.210938 L 215.648438 42.648438 L 216.148438 44.507813 L 214.929688 54.476563 L 201.320313 51.621094 L 187.605469 48.722656 L 186.25 48.492188 L 183.347656 69.585938 L 180.6875 88.074219 L 177.207031 106.511719 L 175.464844 115.703125 L 173.621094 125.445313 L 164.464844 174.285156 L 163.09375 180.9375 L 163.042969 181.582031 Z M 163.144531 182.144531 "/>
<path style=" stroke:none;fill-rule:evenodd;fill:rgb(70.980392%,82.352941%,61.176471%);fill-opacity:1;" d="M 152.59375 245.097656 L 154.765625 254.28125 L 156.160156 260 L 181.902344 260 L 181.039063 255.519531 L 181.085938 248.816406 L 175.90625 248.921875 L 170.261719 257.511719 L 167.082031 254.890625 L 160.160156 252.957031 L 159.597656 248.359375 L 166 241.726563 L 161.714844 241.925781 L 158.660156 236.929688 L 161.800781 231.09375 L 167.066406 230.996094 L 164.382813 228.292969 L 161.332031 228.019531 L 159.042969 228.1875 L 156.835938 228.921875 L 154.9375 228.722656 L 153.058594 233.917969 L 151.792969 241.664063 Z M 152.59375 245.097656 "/>
<path style=" stroke:none;fill-rule:evenodd;fill:rgb(70.980392%,82.352941%,61.176471%);fill-opacity:1;" d="M 176.105469 140.152344 L 230.210938 160.660156 L 234.738281 146.289063 L 178.257813 129.042969 Z M 176.105469 140.152344 "/>
<path style=" stroke:none;fill-rule:evenodd;fill:rgb(70.980392%,82.352941%,61.176471%);fill-opacity:1;" d="M 212.488281 260 L 225.667969 212.707031 L 228.792969 206.519531 L 232.753906 193.246094 L 221.128906 187.058594 L 217.128906 202.5 L 222.191406 204.9375 L 214.441406 226.871094 L 204.714844 260 Z M 212.488281 260 "/>
<path style=" stroke:none;fill-rule:evenodd;fill:rgb(70.980392%,82.352941%,61.176471%);fill-opacity:1;" d="M 221.75 176.9375 L 224.875 178.4375 L 225.660156 180.8125 L 227.128906 182 L 230.378906 183.3125 L 230.917969 184.96875 L 232.988281 185.558594 L 234.316406 186.183594 L 244.292969 150.957031 L 246.941406 141.121094 L 248.945313 129.464844 L 240.292969 127.457031 L 234.738281 146.289063 L 230.210938 160.660156 L 228.253906 161.746094 L 225.566406 166.683594 L 226.503906 167.808594 Z M 221.75 176.9375 "/>
<path style=" stroke:none;fill-rule:evenodd;fill:rgb(70.980392%,82.352941%,61.176471%);fill-opacity:1;" d="M 154.683594 225.484375 L 156.511719 225.6875 L 157.542969 226.605469 L 159.042969 225.980469 L 161.984375 225.679688 L 164.898438 226.25 L 165.691406 225.164063 L 167.054688 225.628906 L 167.804688 227.128906 L 169.371094 228.597656 L 175.265625 217.730469 L 191.136719 189.324219 L 168.523438 177.109375 L 164.023438 182.929688 L 167.167969 183.910156 L 178.667969 187.761719 L 170.5625 216.207031 L 169.492188 215.882813 L 169.46875 214.652344 L 168.820313 213.378906 L 167.902344 212.441406 L 166.625 212.6875 L 165.289063 213.105469 L 164.191406 214.265625 L 163.4375 213.4375 L 164.308594 212.347656 L 165.628906 211.566406 L 165.953125 210.503906 L 167.171875 210.472656 L 168.257813 209.054688 L 166.824219 208.832031 L 165.109375 209.039063 L 163.667969 209.726563 L 162.300781 210.796875 L 161.285156 212.144531 L 160.867188 213.34375 L 158.910156 212.84375 L 157.695313 213.003906 L 156.929688 213.964844 L 156.714844 214.804688 Z M 154.683594 225.484375 "/>
<path style=" stroke:none;fill-rule:evenodd;fill:rgb(81.960784%,81.568627%,80.392157%);fill-opacity:1;" d="M 236.050781 222.050781 L 246.65625 225.410156 L 249.023438 226.160156 L 249.53125 224.542969 L 250.890625 220.257813 L 253.386719 211.707031 L 256.125 202.660156 L 257.644531 197.628906 L 250.789063 194.441406 L 247.558594 192.9375 L 241.925781 212.203125 L 240.515625 212.171875 L 239.253906 212.628906 L 237.789063 216.558594 Z M 236.050781 222.050781 "/>
<path style="fill:none;stroke-width:1;stroke-linecap:round;stroke-linejoin:round;stroke:rgb(81.960784%,81.960784%,81.960784%);stroke-opacity:1;stroke-miterlimit:10;" d="M 236.050781 222.050781 L 246.65625 225.410156 L 249.023438 226.160156 L 249.53125 224.542969 L 250.890625 220.257813 L 253.386719 211.707031 L 256.125 202.660156 L 257.644531 197.628906 L 250.789063 194.441406 L 247.558594 192.9375 L 241.925781 212.203125 L 240.515625 212.171875 L 239.253906 212.628906 L 237.789063 216.558594 L 236.050781 222.050781 "/>
<path style=" stroke:none;fill-rule:evenodd;fill:rgb(87.058824%,81.960784%,67.058824%);fill-opacity:1;" d="M 189.328125 60.144531 L 192.039063 60.496094 L 192.695313 55.410156 L 189.988281 55.058594 Z M 189.328125 60.144531 "/>
<path style=" stroke:none;fill-rule:evenodd;fill:rgb(60%,70.196078%,80%);fill-opacity:1;" d="M -4 259 L 155.917969 259 L 154.765625 254.28125 L 152.59375 245.097656 L 151.792969 241.664063 L 153.058594 233.917969 L 154.113281 228.644531 L 154.683594 225.484375 L 156.714844 214.804688 L -4 190 Z M -4 259 "/>
<path style="fill:none;stroke-width:1;stroke-linecap:round;stroke-linejoin:round;stroke:rgb(70.196078%,77.647059%,83.137255%);stroke-opacity:1;stroke-miterlimit:10;" d="M -4 259 L 155.917969 259 L 154.765625 254.28125 L 152.59375 245.097656 L 151.792969 241.664063 L 153.058594 233.917969 L 154.113281 228.644531 L 154.683594 225.484375 L 156.714844 214.804688 L -4 190 L -4 259 "/>
<path style=" stroke:none;fill-rule:evenodd;fill:rgb(60%,70.196078%,80%);fill-opacity:1;" d="M -4 -4 L -4 190 L 156.714844 214.804688 L 157.234375 213.421875 L 158.304688 212.835938 L 160.867188 213.34375 L 161.285156 212.144531 L 162.300781 210.796875 L 163.667969 209.726563 L 165.109375 209.039063 L 166.824219 208.832031 L 168.257813 209.054688 L 167.929688 210.628906 L 166.597656 210.425781 L 165.320313 210.710938 L 164.929688 211.914063 L 163.8125 212.90625 L 163.28125 213.988281 L 164.628906 213.640625 L 166.046875 212.910156 L 167.015625 212.496094 L 168.375 212.863281 L 169.125 214.070313 L 169.628906 215.238281 L 170.5625 216.207031 L 178.667969 187.761719 L 167.027344 184.445313 L 164.023438 182.929688 L 163.144531 182.144531 L 163.09375 180.9375 L 164.464844 174.285156 L 173.621094 125.445313 L 175.464844 115.703125 L 177.207031 106.511719 L 180.6875 88.074219 L 183.347656 69.585938 L 186.25 48.492188 L 188.25 33.890625 L 189.441406 33.679688 L 187.605469 48.722656 L 201.320313 51.621094 L 214.929688 54.476563 L 216.554688 44.914063 L 215.648438 42.648438 L 215.050781 40.210938 L 214.769531 37.660156 L 214.929688 34.84375 L 215.746094 32.023438 L 217.042969 29.410156 L 218.605469 27.304688 L 220.183594 25.632813 L 221.949219 16.195313 L 192.921875 10.40625 L 190.707031 26.574219 L 189.546875 26.933594 L 191.597656 10.1875 L 193.53125 -4 L 259 -4 Z M -4 -4 "/>
<path style="fill:none;stroke-width:1;stroke-linecap:round;stroke-linejoin:round;stroke:rgb(70.196078%,77.647059%,83.137255%);stroke-opacity:1;stroke-miterlimit:10;" d="M -4 -4 L -4 190 L 156.714844 214.804688 L 157.234375 213.421875 L 158.304688 212.835938 L 160.867188 213.34375 L 161.285156 212.144531 L 162.300781 210.796875 L 163.667969 209.726563 L 165.109375 209.039063 L 166.824219 208.832031 L 168.257813 209.054688 L 167.929688 210.628906 L 166.597656 210.425781 L 165.320313 210.710938 L 164.929688 211.914063 L 163.8125 212.90625 L 163.28125 213.988281 L 164.628906 213.640625 L 166.046875 212.910156 L 167.015625 212.496094 L 168.375 212.863281 L 169.125 214.070313 L 169.628906 215.238281 L 170.5625 216.207031 L 178.667969 187.761719 L 167.027344 184.445313 L 164.023438 182.929688 L 163.144531 182.144531 L 163.09375 180.9375 L 164.464844 174.285156 L 173.621094 125.445313 L 175.464844 115.703125 L 177.207031 106.511719 L 180.6875 88.074219 L 183.347656 69.585938 L 186.25 48.492188 L 188.25 33.890625 L 189.441406 33.679688 L 187.605469 48.722656 L 201.320313 51.621094 L 214.929688 54.476563 L 216.554688 44.914063 L 215.648438 42.648438 L 215.050781 40.210938 L 214.769531 37.660156 L 214.929688 34.84375 L 215.746094 32.023438 L 217.042969 29.410156 L 218.605469 27.304688 L 220.183594 25.632813 L 221.949219 16.195313 L 192.921875 10.40625 L 190.707031 26.574219 L 189.546875 26.933594 L 191.597656 10.1875 L 193.53125 -4 L 259 -4 L -4 -4 "/>
<path style=" stroke:none;fill-rule:evenodd;fill:rgb(60%,70.196078%,80%);fill-opacity:1;" d="M 212.136719 61.320313 L 213.421875 62.027344 L 213.917969 59.410156 L 212.570313 59.117188 Z M 212.136719 61.320313 "/>
<path style="fill:none;stroke-width:1;stroke-linecap:round;stroke-linejoin:round;stroke:rgb(70.196078%,77.647059%,83.137255%);stroke-opacity:1;stroke-miterlimit:10;" d="M 212.136719 61.320313 L 213.421875 62.027344 L 213.917969 59.410156 L 212.570313 59.117188 L 212.136719 61.320313 "/>
<path style="fill:none;stroke-width:6;stroke-linecap:round;stroke-linejoin:round;stroke:rgb(60%,70.196078%,80%);stroke-opacity:1;stroke-miterlimit:10;" d="M 25.660156 -7 L -7 192.820313 "/>
<path style="fill:none;stroke-width:8;stroke-linecap:round;stroke-linejoin:round;stroke:rgb(99.215686%,57.254902%,22.745098%);stroke-opacity:0.4;stroke-miterlimit:10;" d="M 243.054688 173.996094 L 239.375 186.15625 L 238.902344 188.125 L 238.519531 190.253906 L 238.3125 192.296875 L 238.261719 194.21875 L 238.351563 196.15625 L 238.617188 198.152344 L 239.109375 200.226563 L 239.734375 201.890625 L 240.871094 203.839844 L 242.121094 205.308594 L 243.652344 206.804688 L 247.5625 209.824219 L 248.957031 210.925781 L 250.175781 212.078125 L 251.402344 213.578125 L 252.449219 215.179688 "/>
<path style="fill:none;stroke-width:1;stroke-linecap:round;stroke-linejoin:round;stroke:rgb(100%,100%,100%);stroke-opacity:1;stroke-dasharray:2,3;stroke-miterlimit:10;" d="M 251.75 230.703125 L 250.683594 230.582031 "/>
<path style="fill:none;stroke-width:1;stroke-linecap:round;stroke-linejoin:round;stroke:rgb(100%,100%,100%);stroke-opacity:1;stroke-dasharray:2,3;stroke-miterlimit:10;" d="M 212.507813 57.785156 L 212.777344 56.472656 "/>
<path style="fill:none;stroke-width:1;stroke-linecap:round;stroke-linejoin:round;stroke:rgb(100%,100%,100%);stroke-opacity:1;stroke-dasharray:2,3;stroke-miterlimit:10;" d="M 249.550781 235.699219 L 250.9375 236.148438 L 251.410156 236.300781 "/>
<path style="fill:none;stroke-width:1;stroke-linecap:round;stroke-linejoin:round;stroke:rgb(100%,100%,100%);stroke-opacity:1;stroke-dasharray:2,3;stroke-miterlimit:10;" d="M 165.464844 227.277344 L 167.394531 223.402344 "/>
<path style="fill:none;stroke-width:1;stroke-linecap:round;stroke-linejoin:round;stroke:rgb(100%,100%,100%);stroke-opacity:1;stroke-dasharray:2,3;stroke-miterlimit:10;" d="M 228.148438 189.980469 L 229.84375 187.46875 L 230.917969 184.96875 "/>
<path style="fill:none;stroke-width:1;stroke-linecap:round;stroke-linejoin:round;stroke:rgb(100%,100%,100%);stroke-opacity:1;stroke-dasharray:2,3;stroke-miterlimit:10;" d="M 212.367188 228.726563 L 216.128906 229.925781 L 219.289063 230.875 "/>
<path style="fill:none;stroke-width:1;stroke-linecap:round;stroke-linejoin:round;stroke:rgb(100%,100%,100%);stroke-opacity:1;stroke-dasharray:2,3;stroke-miterlimit:10;" d="M 230.542969 147.757813 L 235.316406 146.972656 L 237.609375 146.019531 "/>
<path style="fill:none;stroke-width:1;stroke-linecap:round;stroke-linejoin:round;stroke:rgb(100%,100%,100%);stroke-opacity:1;stroke-dasharray:2,3;stroke-miterlimit:10;" d="M 206.105469 250.398438 L 209.820313 251.492188 L 213.175781 252.398438 "/>
<path style="fill:none;stroke-width:1;stroke-linecap:round;stroke-linejoin:round;stroke:rgb(100%,100%,100%);stroke-opacity:1;stroke-dasharray:2,3;stroke-miterlimit:10;" d="M 172.222656 217.222656 L 162.359375 214.382813 "/>
<path style="fill:none;stroke-width:1;stroke-linecap:round;stroke-linejoin:round;stroke:rgb(100%,100%,100%);stroke-opacity:1;stroke-dasharray:2,3;stroke-miterlimit:10;" d="M 174.730469 208.195313 L 183.503906 213.117188 L 184.351563 213.59375 "/>
<path style="fill:none;stroke-width:1;stroke-linecap:round;stroke-linejoin:round;stroke:rgb(100%,100%,100%);stroke-opacity:1;stroke-dasharray:2,3;stroke-miterlimit:10;" d="M 190.101563 109.578125 L 178.984375 107.335938 "/>
<path style="fill:none;stroke-width:1;stroke-linecap:round;stroke-linejoin:round;stroke:rgb(100%,100%,100%);stroke-opacity:1;stroke-dasharray:2,3;stroke-miterlimit:10;" d="M 190.933594 106.660156 L 188.359375 105.488281 L 179.730469 103.199219 "/>
<path style="fill:none;stroke-width:1;stroke-linecap:round;stroke-linejoin:round;stroke:rgb(100%,100%,100%);stroke-opacity:1;stroke-dasharray:2,3;stroke-miterlimit:10;" d="M 185.542969 137.449219 L 174.132813 134.113281 "/>
<path style="fill:none;stroke-width:1;stroke-linecap:round;stroke-linejoin:round;stroke:rgb(100%,100%,100%);stroke-opacity:1;stroke-dasharray:2,3;stroke-miterlimit:10;" d="M 237.949219 212.46875 L 234.753906 222.339844 L 234.113281 224.320313 "/>
<path style="fill:none;stroke-width:1;stroke-linecap:round;stroke-linejoin:round;stroke:rgb(100%,100%,100%);stroke-opacity:1;stroke-dasharray:2,3;stroke-miterlimit:10;" d="M 187.058594 242.867188 L 183.808594 242.617188 L 181.199219 241.996094 L 182.007813 237.375 L 182.414063 235.144531 "/>
<path style="fill:none;stroke-width:1;stroke-linecap:round;stroke-linejoin:round;stroke:rgb(100%,100%,100%);stroke-opacity:1;stroke-dasharray:2,3;stroke-miterlimit:10;" d="M 224.273438 14.441406 L 236.828125 21.242188 L 237.898438 21.789063 "/>
<path style="fill:none;stroke-width:1;stroke-linecap:round;stroke-linejoin:round;stroke:rgb(100%,100%,100%);stroke-opacity:1;stroke-dasharray:2,3;stroke-miterlimit:10;" d="M 162.578125 223.101563 L 162.335938 219.507813 L 162.0625 216.890625 L 162.359375 214.382813 L 162.6875 212.792969 L 163.554688 211.292969 L 164.410156 210.484375 L 165.582031 209.914063 L 166.582031 209.71875 L 167.65625 209.78125 "/>
<path style="fill:none;stroke-width:1;stroke-linecap:round;stroke-linejoin:round;stroke:rgb(100%,100%,100%);stroke-opacity:1;stroke-dasharray:2,3;stroke-miterlimit:10;" d="M 234.753906 222.339844 L 250.910156 227.105469 L 251.390625 227.246094 "/>
<path style="fill:none;stroke-width:1;stroke-linecap:round;stroke-linejoin:round;stroke:rgb(100%,100%,100%);stroke-opacity:1;stroke-dasharray:2,3;stroke-miterlimit:10;" d="M 194.707031 221.566406 L 190.292969 230.808594 L 188.375 236.390625 L 187.921875 237.714844 L 187.425781 240.226563 "/>
<path style="fill:none;stroke-width:1;stroke-linecap:round;stroke-linejoin:round;stroke:rgb(100%,100%,100%);stroke-opacity:1;stroke-dasharray:2,3;stroke-miterlimit:10;" d="M 217.773438 206.855469 L 218.363281 204.636719 L 222.992188 187.230469 "/>
<path style="fill:none;stroke-width:1;stroke-linecap:round;stroke-linejoin:round;stroke:rgb(100%,100%,100%);stroke-opacity:1;stroke-dasharray:2,3;stroke-miterlimit:10;" d="M 222.941406 207.289063 L 218.363281 204.636719 L 206.820313 198.789063 L 204.558594 197.640625 "/>
<path style="fill:none;stroke-width:1;stroke-linecap:round;stroke-linejoin:round;stroke:rgb(100%,100%,100%);stroke-opacity:1;stroke-dasharray:2,3;stroke-miterlimit:10;" d="M 184.722656 238.683594 L 182.007813 237.375 L 171.371094 232.246094 L 168.671875 230.183594 L 165.464844 227.277344 "/>
<path style="fill:none;stroke-width:1;stroke-linecap:round;stroke-linejoin:round;stroke:rgb(100%,100%,100%);stroke-opacity:1;stroke-dasharray:2,3;stroke-miterlimit:10;" d="M 222.992188 187.230469 L 228.148438 189.980469 L 231.351563 191.484375 L 234.011719 193.355469 L 239.117188 197.308594 L 243.609375 200.785156 "/>
<path style="fill:none;stroke-width:1;stroke-linecap:round;stroke-linejoin:round;stroke:rgb(100%,100%,100%);stroke-opacity:1;stroke-dasharray:2,3;stroke-miterlimit:10;" d="M 195.757813 194.917969 L 180.289063 186.792969 L 184.929688 185.898438 L 188.414063 183.648438 "/>
<path style="fill:none;stroke-width:1;stroke-linecap:round;stroke-linejoin:round;stroke:rgb(100%,100%,100%);stroke-opacity:1;stroke-dasharray:2,3;stroke-miterlimit:10;" d="M 168.269531 256.800781 L 178.574219 241.34375 L 181.199219 241.996094 L 180.355469 247.78125 "/>
<path style="fill:none;stroke-width:1;stroke-linecap:round;stroke-linejoin:round;stroke:rgb(100%,100%,100%);stroke-opacity:1;stroke-dasharray:2,3;stroke-miterlimit:10;" d="M 165.464844 227.277344 L 163.527344 228.21875 L 160.324219 230.15625 L 159.234375 231.273438 L 158.519531 232.210938 L 157.753906 233.863281 L 157.316406 235.722656 L 157.183594 237.203125 L 157.3125 238.535156 L 157.953125 240.78125 L 158.582031 242.878906 L 158.832031 244.890625 L 158.714844 246.871094 L 158.347656 247.972656 L 157.898438 249.015625 L 157.335938 249.945313 L 155.085938 251.191406 "/>
<path style="fill:none;stroke-width:1;stroke-linecap:round;stroke-linejoin:round;stroke:rgb(100%,100%,100%);stroke-opacity:1;stroke-dasharray:2,3;stroke-miterlimit:10;" d="M 155.085938 251.191406 L 157.429688 251.375 L 159.339844 253.003906 L 161.121094 254.230469 L 163.21875 255.019531 L 166.359375 255.875 L 167.875 256.5 L 168.53125 257 "/>
<path style="fill:none;stroke-width:1;stroke-linecap:round;stroke-linejoin:round;stroke:rgb(100%,100%,100%);stroke-opacity:1;stroke-dasharray:2,3;stroke-miterlimit:10;" d="M 188.375 236.390625 L 185.621094 235.859375 L 182.414063 235.144531 L 189.890625 219.277344 L 182.730469 214.621094 L 183.503906 213.117188 "/>
<path style="fill:none;stroke-width:1;stroke-linecap:round;stroke-linejoin:round;stroke:rgb(100%,100%,100%);stroke-opacity:1;stroke-dasharray:2,3;stroke-miterlimit:10;" d="M 247.949219 168.945313 L 257 172.535156 "/>
<path style="fill:none;stroke-width:1;stroke-linecap:round;stroke-linejoin:round;stroke:rgb(100%,100%,100%);stroke-opacity:1;stroke-dasharray:2,3;stroke-miterlimit:10;" d="M 202.820313 257 L 204.355469 251.875 L 187.132813 242.320313 "/>
<path style="fill:none;stroke-width:1;stroke-linecap:round;stroke-linejoin:round;stroke:rgb(100%,100%,100%);stroke-opacity:1;stroke-dasharray:2,3;stroke-miterlimit:10;" d="M 210.570313 230.414063 L 194.707031 221.566406 L 195.214844 219.597656 L 204.980469 202.09375 L 205.882813 200.472656 L 206.820313 198.789063 "/>
<path style="fill:none;stroke-width:1;stroke-linecap:round;stroke-linejoin:round;stroke:rgb(100%,100%,100%);stroke-opacity:1;stroke-dasharray:2,3;stroke-miterlimit:10;" d="M 246.980469 257 L 248.527344 249.136719 L 251.605469 237.453125 L 251.96875 234.8125 L 252.765625 228.578125 L 252.574219 225.015625 L 251.355469 220.417969 L 251.8125 219.769531 "/>
<path style="fill:none;stroke-width:1;stroke-linecap:round;stroke-linejoin:round;stroke:rgb(100%,100%,100%);stroke-opacity:1;stroke-dasharray:2,3;stroke-miterlimit:10;" d="M 251.390625 227.246094 L 251.792969 230.402344 L 250.9375 236.148438 L 245.242188 257 "/>
<path style="fill:none;stroke-width:1;stroke-linecap:round;stroke-linejoin:round;stroke:rgb(100%,100%,100%);stroke-opacity:1;stroke-dasharray:2,3;stroke-miterlimit:10;" d="M 230.917969 184.96875 L 241.660156 146.8125 L 246.023438 125.691406 "/>
<path style="fill:none;stroke-width:1;stroke-linecap:round;stroke-linejoin:round;stroke:rgb(100%,100%,100%);stroke-opacity:1;stroke-dasharray:2,3;stroke-miterlimit:10;" d="M 234.113281 224.320313 L 229.792969 239.65625 L 224.625 257 "/>
<path style="fill:none;stroke-width:1;stroke-linecap:round;stroke-linejoin:round;stroke:rgb(100%,100%,100%);stroke-opacity:1;stroke-dasharray:2,3;stroke-miterlimit:10;" d="M 222.992188 187.230469 L 224.703125 184.332031 L 225.660156 180.8125 L 235.316406 146.972656 L 241.507813 124.664063 "/>
<path style="fill:none;stroke-width:1;stroke-linecap:round;stroke-linejoin:round;stroke:rgb(100%,100%,100%);stroke-opacity:1;stroke-dasharray:2,3;stroke-miterlimit:10;" d="M 252.300781 257 L 252.777344 255.574219 L 257 243.695313 M 257 214.269531 L 254.371094 210.324219 L 251.160156 208.441406 L 246.535156 206.785156 L 240.941406 205.535156 L 238.816406 205.535156 "/>
<path style="fill:none;stroke-width:1;stroke-linecap:round;stroke-linejoin:round;stroke:rgb(100%,100%,100%);stroke-opacity:1;stroke-dasharray:2,3;stroke-miterlimit:10;" d="M 202.773438 200.882813 L 204.980469 202.09375 L 216.667969 208.5 L 211.25 228.136719 L 210.570313 230.414063 L 205.292969 247.75 L 187.921875 237.714844 "/>
<path style="fill:none;stroke-width:1;stroke-linecap:round;stroke-linejoin:round;stroke:rgb(100%,100%,100%);stroke-opacity:1;stroke-dasharray:2,3;stroke-miterlimit:10;" d="M 187.425781 240.226563 L 187.132813 242.320313 L 186.988281 243.382813 L 186.464844 247.765625 L 186.34375 250.523438 L 186.34375 251.960938 L 186.417969 253.828125 L 186.792969 256.152344 L 187.070313 257 "/>
<path style="fill:none;stroke-width:1;stroke-linecap:round;stroke-linejoin:round;stroke:rgb(100%,100%,100%);stroke-opacity:1;stroke-dasharray:2,3;stroke-miterlimit:10;" d="M 208.199219 257 L 209.820313 251.492188 L 216.128906 229.925781 L 222.941406 207.289063 L 228.148438 189.980469 "/>
<path style="fill:none;stroke-width:1;stroke-linecap:round;stroke-linejoin:round;stroke:rgb(100%,100%,100%);stroke-opacity:1;stroke-dasharray:2,3;stroke-miterlimit:10;" d="M 194.554688 -2 L 193.238281 7.429688 L 212.667969 11.648438 L 224.273438 14.441406 L 215.503906 56.976563 L 212.777344 56.472656 L 187.671875 51.871094 "/>
<path style="fill:none;stroke-width:1;stroke-linecap:round;stroke-linejoin:round;stroke:rgb(100%,100%,100%);stroke-opacity:1;stroke-dasharray:2,3;stroke-miterlimit:10;" d="M 156.457031 257 L 155.085938 251.191406 L 152.910156 241.78125 L 155.628906 228.1875 L 156.191406 226.304688 L 156.824219 225.449219 L 157.859375 224.863281 L 160.25 223.828125 L 162.578125 223.101563 L 164.808594 223.046875 L 166.1875 223.242188 L 167.394531 223.402344 L 168.878906 223.273438 L 170.433594 222.65625 L 171.820313 221.132813 L 172.238281 219.703125 L 171.914063 218.320313 L 172.222656 217.222656 L 172.789063 215.222656 L 174.730469 208.195313 L 180.289063 186.792969 L 165.984375 178.363281 L 174.132813 134.113281 L 178.984375 107.335938 L 179.730469 103.199219 L 187.671875 51.871094 "/>
<path style="fill:none;stroke-width:8;stroke-linecap:round;stroke-linejoin:round;stroke:rgb(75.686275%,70.980392%,61.568627%);stroke-opacity:1;stroke-miterlimit:10;" d="M 243.019531 207.03125 L 235.878906 206.511719 "/>
<path style="fill:none;stroke-width:8;stroke-linecap:round;stroke-linejoin:round;stroke:rgb(75.686275%,70.980392%,61.568627%);stroke-opacity:1;stroke-miterlimit:10;" d="M 250.226563 229.757813 L 250.910156 227.105469 L 250.917969 222.910156 L 250.667969 222.394531 "/>
<path style="fill:none;stroke-width:8;stroke-linecap:round;stroke-linejoin:round;stroke:rgb(75.686275%,70.980392%,61.568627%);stroke-opacity:1;stroke-miterlimit:10;" d="M 236.640625 65.519531 L 234.15625 72.984375 "/>
<path style="fill:none;stroke-width:8;stroke-linecap:round;stroke-linejoin:round;stroke:rgb(75.686275%,70.980392%,61.568627%);stroke-opacity:1;stroke-miterlimit:10;" d="M 253.613281 211.816406 L 250.394531 209.535156 L 246.109375 207.878906 L 243.019531 207.03125 "/>
<path style="fill:none;stroke-width:8;stroke-linecap:round;stroke-linejoin:round;stroke:rgb(75.686275%,70.980392%,61.568627%);stroke-opacity:1;stroke-miterlimit:10;" d="M 236.640625 65.519531 L 235.378906 64.28125 L 235.210938 62.515625 L 236.21875 61.054688 L 237.921875 60.585938 L 239.535156 61.320313 L 240.296875 62.921875 L 239.851563 64.636719 L 238.40625 65.664063 L 236.640625 65.519531 "/>
<path style="fill:none;stroke-width:8;stroke-linecap:round;stroke-linejoin:round;stroke:rgb(75.686275%,70.980392%,61.568627%);stroke-opacity:1;stroke-miterlimit:10;" d="M 214.484375 82.777344 L 215.75 80.179688 L 213.515625 76.992188 L 203.96875 74.914063 L 202.0625 76.070313 L 200.863281 79.335938 L 196.269531 94.65625 "/>
<path style="fill:none;stroke-width:8;stroke-linecap:round;stroke-linejoin:round;stroke:rgb(75.686275%,70.980392%,61.568627%);stroke-opacity:1;stroke-miterlimit:10;" d="M 248.917969 258.285156 L 253.324219 249.8125 L 257.089844 239.699219 L 257.957031 237.125 L 258.832031 233.597656 L 259.332031 229.5625 L 259.046875 224.753906 L 257.800781 219.191406 L 255.644531 214.316406 L 253.613281 211.816406 "/>
<path style="fill:none;stroke-width:8;stroke-linecap:round;stroke-linejoin:round;stroke:rgb(75.686275%,70.980392%,61.568627%);stroke-opacity:1;stroke-miterlimit:10;" d="M 196.191406 88.210938 L 194.585938 94.109375 L 196.269531 94.65625 L 209.421875 98.898438 L 214.484375 82.777344 L 229.984375 87.367188 "/>
<path style="fill:none;stroke-width:10;stroke-linecap:round;stroke-linejoin:round;stroke:rgb(72.941176%,43.137255%,15.294118%);stroke-opacity:1;stroke-miterlimit:10;" d="M 244.617188 202.917969 L 242.671875 202.8125 L 241.03125 202.832031 L 239.519531 203.050781 L 238.09375 203.414063 L 236.75 203.886719 "/>
<path style="fill:none;stroke-width:10;stroke-linecap:round;stroke-linejoin:round;stroke:rgb(72.941176%,43.137255%,15.294118%);stroke-opacity:1;stroke-miterlimit:10;" d="M 234.246094 211.691406 L 235.46875 211 L 236.582031 210.496094 L 237.773438 210.148438 L 239.261719 210 L 240.988281 210.074219 L 242.484375 210.300781 "/>
<path style="fill:none;stroke-width:10;stroke-linecap:round;stroke-linejoin:round;stroke:rgb(72.941176%,43.137255%,15.294118%);stroke-opacity:1;stroke-miterlimit:10;" d="M 236.75 203.886719 L 235.246094 204.605469 L 233.71875 205.355469 L 232.222656 206.234375 L 231.136719 206.921875 L 230.15625 207.671875 L 229.414063 208.402344 "/>
<path style="fill:none;stroke-width:10;stroke-linecap:round;stroke-linejoin:round;stroke:rgb(72.941176%,43.137255%,15.294118%);stroke-opacity:1;stroke-miterlimit:10;" d="M 245.851563 198.722656 L 243.972656 197.375 L 243.054688 196.730469 L 242.171875 195.894531 L 241.433594 194.925781 L 241.097656 193.859375 L 241.0625 191.78125 "/>
<path style="fill:none;stroke-width:10;stroke-linecap:round;stroke-linejoin:round;stroke:rgb(72.941176%,43.137255%,15.294118%);stroke-opacity:1;stroke-miterlimit:10;" d="M 254.847656 206.976563 L 253.246094 205.839844 L 251.824219 204.949219 L 250.28125 204.207031 L 248.640625 203.644531 L 246.785156 203.210938 L 244.617188 202.917969 "/>
<path style="fill:none;stroke-width:10;stroke-linecap:round;stroke-linejoin:round;stroke:rgb(72.941176%,43.137255%,15.294118%);stroke-opacity:1;stroke-miterlimit:10;" d="M 254.847656 206.976563 L 253.320313 205.363281 L 251.714844 203.75 L 249.816406 201.988281 L 247.949219 200.382813 L 245.851563 198.722656 "/>
<path style="fill:none;stroke-width:10;stroke-linecap:round;stroke-linejoin:round;stroke:rgb(72.941176%,43.137255%,15.294118%);stroke-opacity:1;stroke-miterlimit:10;" d="M 242.484375 210.300781 L 243.980469 210.738281 L 245.417969 211.371094 L 246.625 212.175781 L 247.738281 213.191406 L 248.730469 214.355469 L 249.578125 215.539063 L 250.367188 216.828125 L 251.351563 218.628906 "/>
<path style="fill:none;stroke-width:10;stroke-linecap:round;stroke-linejoin:round;stroke:rgb(72.941176%,43.137255%,15.294118%);stroke-opacity:1;stroke-miterlimit:10;" d="M 251.351563 218.628906 L 251.8125 219.769531 L 252.496094 221.832031 L 252.867188 223.242188 L 253.132813 224.941406 L 253.351563 226.921875 L 253.457031 229.289063 L 253.484375 231.566406 L 253.429688 233.429688 L 253.335938 235.1875 L 253.109375 237.09375 L 252.855469 238.980469 L 252.527344 240.75 L 251.546875 245.304688 L 251.105469 247.4375 L 250.804688 249.332031 L 250.390625 252.238281 "/>
<path style="fill:none;stroke-width:10;stroke-linecap:round;stroke-linejoin:round;stroke:rgb(72.941176%,43.137255%,15.294118%);stroke-opacity:1;stroke-miterlimit:10;" d="M 261.457031 240.601563 L 262.003906 237.945313 L 262.304688 235.996094 L 262.644531 233.160156 L 262.882813 230.539063 L 262.964844 228.683594 L 262.902344 226.96875 L 262.757813 225.382813 L 262.550781 223.789063 L 262.277344 222.203125 L 261.890625 220.671875 L 261.503906 219.226563 L 260.976563 217.609375 L 260.402344 216.132813 L 259.785156 214.617188 L 259.03125 213.046875 L 258.257813 211.605469 L 257.433594 210.230469 L 256.542969 208.980469 L 255.65625 207.917969 L 254.847656 206.976563 "/>
<path style="fill:none;stroke-width:10;stroke-linecap:round;stroke-linejoin:round;stroke:rgb(72.941176%,43.137255%,15.294118%);stroke-opacity:1;stroke-miterlimit:10;" d="M 252.449219 215.179688 L 253.335938 216.792969 L 254.105469 218.476563 L 254.738281 220.128906 L 255.230469 221.734375 L 255.632813 223.554688 L 255.875 225.207031 L 256.042969 226.894531 L 256.089844 228.582031 L 255.988281 230.328125 L 255.835938 231.992188 L 255.535156 233.808594 L 253.457031 243.25 L 252.933594 245.191406 L 252.359375 246.988281 L 250.390625 252.238281 "/>
<path style="fill:none;stroke-width:10;stroke-linecap:round;stroke-linejoin:round;stroke:rgb(72.941176%,43.137255%,15.294118%);stroke-opacity:1;stroke-miterlimit:10;" d="M 252.113281 126.183594 L 250.546875 144.730469 L 250.148438 147.910156 L 249.558594 151.433594 L 248.742188 154.679688 L 247.710938 158.304688 L 243.054688 173.996094 "/>
<path style="fill:none;stroke-width:8;stroke-linecap:round;stroke-linejoin:round;stroke:rgb(75.686275%,70.980392%,61.568627%);stroke-opacity:1;stroke-miterlimit:10;" d="M 252.113281 126.183594 L 250.003906 126.117188 L 247.957031 125.957031 "/>
<path style="fill:none;stroke-width:8;stroke-linecap:round;stroke-linejoin:round;stroke:rgb(75.686275%,70.980392%,61.568627%);stroke-opacity:1;stroke-miterlimit:10;" d="M 246.980469 194.378906 L 241.0625 191.78125 "/>
<path style="fill:none;stroke-width:8;stroke-linecap:round;stroke-linejoin:round;stroke:rgb(75.686275%,70.980392%,61.568627%);stroke-opacity:1;stroke-miterlimit:10;" d="M 259.308594 126.433594 L 252.113281 126.183594 "/>
<path style="fill:none;stroke-width:8;stroke-linecap:round;stroke-linejoin:round;stroke:rgb(75.686275%,70.980392%,61.568627%);stroke-opacity:1;stroke-miterlimit:10;" d="M 203.65625 199.28125 L 195.757813 194.917969 "/>
<path style="fill:none;stroke-width:8;stroke-linecap:round;stroke-linejoin:round;stroke:rgb(75.686275%,70.980392%,61.568627%);stroke-opacity:1;stroke-miterlimit:10;" d="M 193.113281 218.480469 L 184.351563 213.59375 "/>
<path style="fill:none;stroke-width:8;stroke-linecap:round;stroke-linejoin:round;stroke:rgb(75.686275%,70.980392%,61.568627%);stroke-opacity:1;stroke-miterlimit:10;" d="M 181.8125 159.566406 L 180.023438 161.101563 L 178.996094 161.675781 L 177.832031 161.515625 L 176.964844 160.628906 L 176.84375 159.394531 L 177.523438 158.359375 L 178.707031 157.980469 L 179.863281 158.429688 "/>
<path style="fill:none;stroke-width:8;stroke-linecap:round;stroke-linejoin:round;stroke:rgb(75.686275%,70.980392%,61.568627%);stroke-opacity:1;stroke-miterlimit:10;" d="M 193.035156 110.152344 L 191.777344 110.539063 L 190.542969 110.078125 L 189.84375 108.949219 L 189.992188 107.613281 L 190.933594 106.660156 L 192.25 106.492188 L 193.394531 107.167969 L 193.878906 108.40625 L 193.507813 109.675781 L 193.035156 110.152344 "/>
<path style="fill:none;stroke-width:8;stroke-linecap:round;stroke-linejoin:round;stroke:rgb(75.686275%,70.980392%,61.568627%);stroke-opacity:1;stroke-miterlimit:10;" d="M 260.164063 200.167969 L 246.980469 194.378906 "/>
<path style="fill:none;stroke-width:8;stroke-linecap:round;stroke-linejoin:round;stroke:rgb(75.686275%,70.980392%,61.568627%);stroke-opacity:1;stroke-miterlimit:10;" d="M 217.773438 206.855469 L 205.882813 200.472656 L 203.65625 199.28125 "/>
<path style="fill:none;stroke-width:8;stroke-linecap:round;stroke-linejoin:round;stroke:rgb(75.686275%,70.980392%,61.568627%);stroke-opacity:1;stroke-miterlimit:10;" d="M 188.414063 183.648438 L 197.121094 168.539063 "/>
<path style="fill:none;stroke-width:8;stroke-linecap:round;stroke-linejoin:round;stroke:rgb(75.686275%,70.980392%,61.568627%);stroke-opacity:1;stroke-miterlimit:10;" d="M 197.121094 168.539063 L 194.34375 166.910156 L 181.8125 159.566406 L 179.863281 158.429688 "/>
<path style="fill:none;stroke-width:8;stroke-linecap:round;stroke-linejoin:round;stroke:rgb(75.686275%,70.980392%,61.568627%);stroke-opacity:1;stroke-miterlimit:10;" d="M 215.109375 178.46875 L 200.019531 170.140625 L 197.121094 168.539063 "/>
<path style="fill:none;stroke-width:8;stroke-linecap:round;stroke-linejoin:round;stroke:rgb(75.686275%,70.980392%,61.568627%);stroke-opacity:1;stroke-miterlimit:10;" d="M 230.785156 223.253906 L 234.113281 224.320313 L 249.378906 229.214844 L 250.226563 229.757813 L 250.683594 230.582031 "/>
<path style="fill:none;stroke-width:8;stroke-linecap:round;stroke-linejoin:round;stroke:rgb(75.686275%,70.980392%,61.568627%);stroke-opacity:1;stroke-miterlimit:10;" d="M 212.367188 228.726563 L 211.25 228.136719 L 205.59375 225.121094 L 195.214844 219.597656 L 193.113281 218.480469 "/>
<path style="fill:none;stroke-width:8;stroke-linecap:round;stroke-linejoin:round;stroke:rgb(75.686275%,70.980392%,61.568627%);stroke-opacity:1;stroke-miterlimit:10;" d="M 234.929688 190.402344 L 232.074219 188.835938 L 229.84375 187.46875 L 224.703125 184.332031 L 215.109375 178.46875 "/>
<path style="fill:none;stroke-width:8;stroke-linecap:round;stroke-linejoin:round;stroke:rgb(75.686275%,70.980392%,61.568627%);stroke-opacity:1;stroke-miterlimit:10;" d="M 206.105469 250.398438 L 187.425781 240.226563 L 184.722656 238.683594 "/>
<path style="fill:none;stroke-width:8;stroke-linecap:round;stroke-linejoin:round;stroke:rgb(75.686275%,70.980392%,61.568627%);stroke-opacity:1;stroke-miterlimit:10;" d="M 247.957031 125.957031 L 246.023438 125.691406 L 244.761719 125.460938 L 243.257813 125.136719 L 241.507813 124.664063 L 220.953125 118.5 "/>
<path style="fill:none;stroke-width:8;stroke-linecap:round;stroke-linejoin:round;stroke:rgb(75.686275%,70.980392%,61.568627%);stroke-opacity:1;stroke-miterlimit:10;" d="M 220.953125 118.5 L 193.507813 109.675781 "/>
<path style="fill:none;stroke-width:8;stroke-linecap:round;stroke-linejoin:round;stroke:rgb(75.686275%,70.980392%,61.568627%);stroke-opacity:1;stroke-miterlimit:10;" d="M 234.15625 72.984375 L 258.335938 84.921875 L 261.253906 86.363281 "/>
<path style="fill:none;stroke-width:8;stroke-linecap:round;stroke-linejoin:round;stroke:rgb(75.686275%,70.980392%,61.568627%);stroke-opacity:1;stroke-miterlimit:10;" d="M 220.953125 118.5 L 229.984375 87.367188 L 234.15625 72.984375 "/>
<path style="fill:none;stroke-width:8;stroke-linecap:round;stroke-linejoin:round;stroke:rgb(75.686275%,70.980392%,61.568627%);stroke-opacity:1;stroke-miterlimit:10;" d="M 250.683594 230.582031 L 250.5625 232.261719 L 249.550781 235.699219 L 241.363281 264 "/>
<path style="fill:none;stroke-width:8;stroke-linecap:round;stroke-linejoin:round;stroke:rgb(75.686275%,70.980392%,61.568627%);stroke-opacity:1;stroke-miterlimit:10;" d="M 229.953125 152.9375 L 230.972656 149.285156 L 230.542969 147.757813 L 228.894531 146.863281 L 211.871094 141.609375 L 189.066406 134.664063 L 187.734375 134.652344 L 186.617188 135.136719 L 185.863281 136.191406 L 185.542969 137.449219 "/>
<path style="fill:none;stroke-width:8;stroke-linecap:round;stroke-linejoin:round;stroke:rgb(75.686275%,70.980392%,61.568627%);stroke-opacity:1;stroke-miterlimit:10;" d="M 185.542969 137.449219 L 185.28125 139.179688 L 185.773438 140.632813 L 186.699219 141.648438 L 188.613281 142.683594 L 207.289063 150.140625 L 225.855469 157.4375 L 227.152344 157.675781 L 228.210938 157.335938 L 229.953125 152.9375 "/>
<path style="fill:none;stroke-width:8;stroke-linecap:round;stroke-linejoin:round;stroke:rgb(75.686275%,70.980392%,61.568627%);stroke-opacity:1;stroke-miterlimit:10;" d="M 197.121094 168.539063 L 207.289063 150.140625 L 211.871094 141.609375 L 214.285156 136.753906 L 216.726563 131.085938 L 218.835938 125.417969 L 220.953125 118.5 "/>
<path style="fill:none;stroke-width:8;stroke-linecap:round;stroke-linejoin:round;stroke:rgb(75.686275%,70.980392%,61.568627%);stroke-opacity:1;stroke-miterlimit:10;" d="M 264 -3.316406 L 254.339844 -9 "/>
<path style="fill:none;stroke-width:8;stroke-linecap:round;stroke-linejoin:round;stroke:rgb(75.686275%,70.980392%,61.568627%);stroke-opacity:1;stroke-miterlimit:10;" d="M 202.277344 264 L 206.105469 250.398438 L 212.367188 228.726563 L 218.515625 209.25 L 218.617188 208.246094 L 217.773438 206.855469 "/>
<path style="fill:none;stroke-width:8;stroke-linecap:round;stroke-linejoin:round;stroke:rgb(75.686275%,70.980392%,61.568627%);stroke-opacity:1;stroke-miterlimit:10;" d="M 248.402344 167.386719 L 249.894531 168 L 264 173.972656 "/>
<path style="fill:none;stroke-width:8;stroke-linecap:round;stroke-linejoin:round;stroke:rgb(75.686275%,70.980392%,61.568627%);stroke-opacity:1;stroke-miterlimit:10;" d="M 186.085938 264 L 185.417969 262.539063 L 184.640625 260.359375 L 183.917969 257.988281 L 183.4375 255.378906 L 183.148438 253.011719 L 182.996094 250.675781 L 182.996094 248.140625 L 183.226563 246.089844 L 183.808594 242.617188 L 184.722656 238.683594 L 185.621094 235.859375 L 186.464844 233.207031 L 187.65625 229.851563 L 189.113281 226.1875 L 193.113281 218.480469 L 202.773438 200.882813 L 203.65625 199.28125 L 204.558594 197.640625 L 215.109375 178.46875 "/>
<path style="fill:none;stroke-width:9;stroke-linecap:round;stroke-linejoin:round;stroke:rgb(75.686275%,70.980392%,61.568627%);stroke-opacity:1;stroke-miterlimit:10;" d="M 258.546875 265 L 265 245.5625 "/>
<path style="fill:none;stroke-width:11;stroke-linecap:round;stroke-linejoin:round;stroke:rgb(86.666667%,62.352941%,6.666667%);stroke-opacity:1;stroke-miterlimit:10;" d="M 230.785156 223.253906 L 232.316406 218.132813 "/>
<path style="fill:none;stroke-width:11;stroke-linecap:round;stroke-linejoin:round;stroke:rgb(86.666667%,62.352941%,6.666667%);stroke-opacity:1;stroke-miterlimit:10;" d="M 232.316406 218.132813 L 234.246094 211.691406 "/>
<path style="fill:none;stroke-width:11;stroke-linecap:round;stroke-linejoin:round;stroke:rgb(86.666667%,62.352941%,6.666667%);stroke-opacity:1;stroke-miterlimit:10;" d="M 234.246094 211.691406 L 235.878906 206.511719 L 236.75 203.886719 "/>
<path style="fill:none;stroke-width:11;stroke-linecap:round;stroke-linejoin:round;stroke:rgb(86.666667%,62.352941%,6.666667%);stroke-opacity:1;stroke-miterlimit:10;" d="M 236.75 203.886719 L 239.117188 197.308594 L 241.0625 191.78125 "/>
<path style="fill:none;stroke-width:11;stroke-linecap:round;stroke-linejoin:round;stroke:rgb(86.666667%,62.352941%,6.666667%);stroke-opacity:1;stroke-miterlimit:10;" d="M 229.414063 208.402344 L 224.28125 224.742188 "/>
<path style="fill:none;stroke-width:11;stroke-linecap:round;stroke-linejoin:round;stroke:rgb(86.666667%,62.352941%,6.666667%);stroke-opacity:1;stroke-miterlimit:10;" d="M 234.929688 190.402344 L 234.011719 193.355469 L 229.414063 208.402344 "/>
<path style="fill:none;stroke-width:11;stroke-linecap:round;stroke-linejoin:round;stroke:rgb(86.666667%,62.352941%,6.666667%);stroke-opacity:1;stroke-miterlimit:10;" d="M 261.253906 86.363281 L 252.113281 126.183594 "/>
<path style="fill:none;stroke-width:11;stroke-linecap:round;stroke-linejoin:round;stroke:rgb(86.666667%,62.352941%,6.666667%);stroke-opacity:1;stroke-miterlimit:10;" d="M 224.28125 224.742188 L 211.785156 267 "/>
<path style="fill:none;stroke-width:11;stroke-linecap:round;stroke-linejoin:round;stroke:rgb(86.666667%,62.352941%,6.666667%);stroke-opacity:1;stroke-miterlimit:10;" d="M 219.878906 267 L 226.179688 245.625 L 226.875 243.089844 L 227.589844 240.339844 L 228.289063 237.480469 L 228.828125 234.964844 L 229.332031 232.292969 L 229.632813 230.242188 L 230.027344 227.183594 L 230.363281 225.210938 L 230.785156 223.253906 "/>
<path style="fill:none;stroke-width:11;stroke-linecap:round;stroke-linejoin:round;stroke:rgb(86.666667%,62.352941%,6.666667%);stroke-opacity:1;stroke-miterlimit:10;" d="M 252.113281 126.183594 L 248.535156 140.765625 L 246.867188 147.285156 L 245.144531 153.824219 L 234.929688 190.402344 "/>
<path style="fill:none;stroke-width:11;stroke-linecap:round;stroke-linejoin:round;stroke:rgb(86.666667%,62.352941%,6.666667%);stroke-opacity:1;stroke-miterlimit:10;" d="M 241.0625 191.78125 L 241.90625 189.214844 L 242.6875 186.921875 L 244.542969 180.585938 L 247.949219 168.945313 L 248.402344 167.386719 L 256.160156 138.140625 L 258.578125 129.558594 L 258.957031 127.972656 L 259.308594 126.433594 "/>
<path style="fill:none;stroke-width:11;stroke-linecap:round;stroke-linejoin:round;stroke:rgb(72.941176%,43.137255%,15.294118%);stroke-opacity:1;stroke-miterlimit:10;" d="M 250.390625 252.238281 L 248.917969 258.285156 L 247.394531 263.753906 L 246.824219 265.824219 "/>
<path style="fill:none;stroke-width:11;stroke-linecap:round;stroke-linejoin:round;stroke:rgb(72.941176%,43.137255%,15.294118%);stroke-opacity:1;stroke-miterlimit:10;" d="M 251.777344 267 L 252.671875 264.019531 L 253.441406 261.746094 L 254.148438 259.78125 L 255.058594 257.707031 L 256.503906 254.546875 L 257.515625 252.195313 L 258.261719 250.289063 L 261.457031 240.601563 "/>
<path style="fill:none;stroke-width:11;stroke-linecap:round;stroke-linejoin:round;stroke:rgb(72.941176%,43.137255%,15.294118%);stroke-opacity:1;stroke-miterlimit:10;" d="M 224.28125 224.742188 L 223.625 235.28125 L 223.242188 238.378906 L 222.753906 241.152344 L 222.160156 243.710938 L 215.402344 267 "/>
<path style="fill:none;stroke-width:11;stroke-linecap:round;stroke-linejoin:round;stroke:rgb(72.941176%,43.137255%,15.294118%);stroke-opacity:1;stroke-miterlimit:10;" d="M 217.660156 267 L 224.136719 244.867188 L 225.117188 241.355469 L 227.246094 232.808594 L 227.828125 230.804688 L 228.542969 228.8125 L 229.347656 226.699219 L 230.785156 223.253906 "/>
<path style="fill:none;stroke-width:6;stroke-linecap:round;stroke-linejoin:round;stroke:rgb(100%,100%,100%);stroke-opacity:1;stroke-miterlimit:10;" d="M 243.019531 207.03125 L 235.878906 206.511719 "/>
<path style="fill:none;stroke-width:6;stroke-linecap:round;stroke-linejoin:round;stroke:rgb(100%,100%,100%);stroke-opacity:1;stroke-miterlimit:10;" d="M 250.226563 229.757813 L 250.910156 227.105469 L 250.917969 222.910156 L 250.667969 222.394531 "/>
<path style="fill:none;stroke-width:6;stroke-linecap:round;stroke-linejoin:round;stroke:rgb(100%,100%,100%);stroke-opacity:1;stroke-miterlimit:10;" d="M 236.640625 65.519531 L 234.15625 72.984375 "/>
<path style="fill:none;stroke-width:6;stroke-linecap:round;stroke-linejoin:round;stroke:rgb(100%,100%,100%);stroke-opacity:1;stroke-miterlimit:10;" d="M 253.613281 211.816406 L 250.394531 209.535156 L 246.109375 207.878906 L 243.019531 207.03125 "/>
<path style="fill:none;stroke-width:6;stroke-linecap:round;stroke-linejoin:round;stroke:rgb(100%,100%,100%);stroke-opacity:1;stroke-miterlimit:10;" d="M 236.640625 65.519531 L 235.378906 64.28125 L 235.210938 62.515625 L 236.21875 61.054688 L 237.921875 60.585938 L 239.535156 61.320313 L 240.296875 62.921875 L 239.851563 64.636719 L 238.40625 65.664063 L 236.640625 65.519531 "/>
<path style="fill:none;stroke-width:6;stroke-linecap:round;stroke-linejoin:round;stroke:rgb(100%,100%,100%);stroke-opacity:1;stroke-miterlimit:10;" d="M 214.484375 82.777344 L 215.75 80.179688 L 213.515625 76.992188 L 203.96875 74.914063 L 202.0625 76.070313 L 200.863281 79.335938 L 196.269531 94.65625 "/>
<path style="fill:none;stroke-width:6;stroke-linecap:round;stroke-linejoin:round;stroke:rgb(100%,100%,100%);stroke-opacity:1;stroke-miterlimit:10;" d="M 248.917969 258.285156 L 253.324219 249.8125 L 257.089844 239.699219 L 257.957031 237.125 L 258.832031 233.597656 L 259.332031 229.5625 L 259.046875 224.753906 L 257.800781 219.191406 L 255.644531 214.316406 L 253.613281 211.816406 "/>
<path style="fill:none;stroke-width:6;stroke-linecap:round;stroke-linejoin:round;stroke:rgb(100%,100%,100%);stroke-opacity:1;stroke-miterlimit:10;" d="M 196.191406 88.210938 L 194.585938 94.109375 L 196.269531 94.65625 L 209.421875 98.898438 L 214.484375 82.777344 L 229.984375 87.367188 "/>
<path style="fill:none;stroke-width:8;stroke-linecap:round;stroke-linejoin:round;stroke:rgb(99.215686%,57.254902%,22.745098%);stroke-opacity:1;stroke-miterlimit:10;" d="M 244.617188 202.917969 L 242.671875 202.8125 L 241.03125 202.832031 L 239.519531 203.050781 L 238.09375 203.414063 L 236.75 203.886719 "/>
<path style="fill:none;stroke-width:8;stroke-linecap:round;stroke-linejoin:round;stroke:rgb(99.215686%,57.254902%,22.745098%);stroke-opacity:1;stroke-miterlimit:10;" d="M 234.246094 211.691406 L 235.46875 211 L 236.582031 210.496094 L 237.773438 210.148438 L 239.261719 210 L 240.988281 210.074219 L 242.484375 210.300781 "/>
<path style="fill:none;stroke-width:8;stroke-linecap:round;stroke-linejoin:round;stroke:rgb(99.215686%,57.254902%,22.745098%);stroke-opacity:1;stroke-miterlimit:10;" d="M 236.75 203.886719 L 235.246094 204.605469 L 233.71875 205.355469 L 232.222656 206.234375 L 231.136719 206.921875 L 230.15625 207.671875 L 229.414063 208.402344 "/>
<path style="fill:none;stroke-width:8;stroke-linecap:round;stroke-linejoin:round;stroke:rgb(99.215686%,57.254902%,22.745098%);stroke-opacity:1;stroke-miterlimit:10;" d="M 245.851563 198.722656 L 243.972656 197.375 L 243.054688 196.730469 L 242.171875 195.894531 L 241.433594 194.925781 L 241.097656 193.859375 L 241.0625 191.78125 "/>
<path style="fill:none;stroke-width:8;stroke-linecap:round;stroke-linejoin:round;stroke:rgb(99.215686%,57.254902%,22.745098%);stroke-opacity:1;stroke-miterlimit:10;" d="M 254.847656 206.976563 L 253.246094 205.839844 L 251.824219 204.949219 L 250.28125 204.207031 L 248.640625 203.644531 L 246.785156 203.210938 L 244.617188 202.917969 "/>
<path style="fill:none;stroke-width:8;stroke-linecap:round;stroke-linejoin:round;stroke:rgb(99.215686%,57.254902%,22.745098%);stroke-opacity:1;stroke-miterlimit:10;" d="M 254.847656 206.976563 L 253.320313 205.363281 L 251.714844 203.75 L 249.816406 201.988281 L 247.949219 200.382813 L 245.851563 198.722656 "/>
<path style="fill:none;stroke-width:8;stroke-linecap:round;stroke-linejoin:round;stroke:rgb(99.215686%,57.254902%,22.745098%);stroke-opacity:1;stroke-miterlimit:10;" d="M 242.484375 210.300781 L 243.980469 210.738281 L 245.417969 211.371094 L 246.625 212.175781 L 247.738281 213.191406 L 248.730469 214.355469 L 249.578125 215.539063 L 250.367188 216.828125 L 251.351563 218.628906 "/>
<path style="fill:none;stroke-width:8;stroke-linecap:round;stroke-linejoin:round;stroke:rgb(99.215686%,57.254902%,22.745098%);stroke-opacity:1;stroke-miterlimit:10;" d="M 251.351563 218.628906 L 251.8125 219.769531 L 252.496094 221.832031 L 252.867188 223.242188 L 253.132813 224.941406 L 253.351563 226.921875 L 253.457031 229.289063 L 253.484375 231.566406 L 253.429688 233.429688 L 253.335938 235.1875 L 253.109375 237.09375 L 252.855469 238.980469 L 252.527344 240.75 L 251.546875 245.304688 L 251.105469 247.4375 L 250.804688 249.332031 L 250.390625 252.238281 "/>
<path style="fill:none;stroke-width:8;stroke-linecap:round;stroke-linejoin:round;stroke:rgb(99.215686%,57.254902%,22.745098%);stroke-opacity:1;stroke-miterlimit:10;" d="M 261.457031 240.601563 L 262.003906 237.945313 L 262.304688 235.996094 L 262.644531 233.160156 L 262.882813 230.539063 L 262.964844 228.683594 L 262.902344 226.96875 L 262.757813 225.382813 L 262.550781 223.789063 L 262.277344 222.203125 L 261.890625 220.671875 L 261.503906 219.226563 L 260.976563 217.609375 L 260.402344 216.132813 L 259.785156 214.617188 L 259.03125 213.046875 L 258.257813 211.605469 L 257.433594 210.230469 L 256.542969 208.980469 L 255.65625 207.917969 L 254.847656 206.976563 "/>
<path style="fill:none;stroke-width:8;stroke-linecap:round;stroke-linejoin:round;stroke:rgb(99.215686%,57.254902%,22.745098%);stroke-opacity:1;stroke-miterlimit:10;" d="M 252.449219 215.179688 L 253.335938 216.792969 L 254.105469 218.476563 L 254.738281 220.128906 L 255.230469 221.734375 L 255.632813 223.554688 L 255.875 225.207031 L 256.042969 226.894531 L 256.089844 228.582031 L 255.988281 230.328125 L 255.835938 231.992188 L 255.535156 233.808594 L 253.457031 243.25 L 252.933594 245.191406 L 252.359375 246.988281 L 250.390625 252.238281 "/>
<path style="fill:none;stroke-width:8;stroke-linecap:round;stroke-linejoin:round;stroke:rgb(99.215686%,57.254902%,22.745098%);stroke-opacity:1;stroke-miterlimit:10;" d="M 252.113281 126.183594 L 250.546875 144.730469 L 250.148438 147.910156 L 249.558594 151.433594 L 248.742188 154.679688 L 247.710938 158.304688 L 243.054688 173.996094 "/>
<path style="fill:none;stroke-width:6;stroke-linecap:round;stroke-linejoin:round;stroke:rgb(100%,100%,100%);stroke-opacity:1;stroke-miterlimit:10;" d="M 252.113281 126.183594 L 250.003906 126.117188 L 247.957031 125.957031 "/>
<path style="fill:none;stroke-width:6;stroke-linecap:round;stroke-linejoin:round;stroke:rgb(100%,100%,100%);stroke-opacity:1;stroke-miterlimit:10;" d="M 246.980469 194.378906 L 241.0625 191.78125 "/>
<path style="fill:none;stroke-width:6;stroke-linecap:round;stroke-linejoin:round;stroke:rgb(100%,100%,100%);stroke-opacity:1;stroke-miterlimit:10;" d="M 259.308594 126.433594 L 252.113281 126.183594 "/>
<path style="fill:none;stroke-width:6;stroke-linecap:round;stroke-linejoin:round;stroke:rgb(100%,100%,100%);stroke-opacity:1;stroke-miterlimit:10;" d="M 203.65625 199.28125 L 195.757813 194.917969 "/>
<path style="fill:none;stroke-width:6;stroke-linecap:round;stroke-linejoin:round;stroke:rgb(100%,100%,100%);stroke-opacity:1;stroke-miterlimit:10;" d="M 193.113281 218.480469 L 184.351563 213.59375 "/>
<path style="fill:none;stroke-width:6;stroke-linecap:round;stroke-linejoin:round;stroke:rgb(100%,100%,100%);stroke-opacity:1;stroke-miterlimit:10;" d="M 181.8125 159.566406 L 180.023438 161.101563 L 178.996094 161.675781 L 177.832031 161.515625 L 176.964844 160.628906 L 176.84375 159.394531 L 177.523438 158.359375 L 178.707031 157.980469 L 179.863281 158.429688 "/>
<path style="fill:none;stroke-width:6;stroke-linecap:round;stroke-linejoin:round;stroke:rgb(100%,100%,100%);stroke-opacity:1;stroke-miterlimit:10;" d="M 193.035156 110.152344 L 191.777344 110.539063 L 190.542969 110.078125 L 189.84375 108.949219 L 189.992188 107.613281 L 190.933594 106.660156 L 192.25 106.492188 L 193.394531 107.167969 L 193.878906 108.40625 L 193.507813 109.675781 L 193.035156 110.152344 "/>
<path style="fill:none;stroke-width:6;stroke-linecap:round;stroke-linejoin:round;stroke:rgb(100%,100%,100%);stroke-opacity:1;stroke-miterlimit:10;" d="M 260.164063 200.167969 L 246.980469 194.378906 "/>
<path style="fill:none;stroke-width:6;stroke-linecap:round;stroke-linejoin:round;stroke:rgb(100%,100%,100%);stroke-opacity:1;stroke-miterlimit:10;" d="M 217.773438 206.855469 L 205.882813 200.472656 L 203.65625 199.28125 "/>
<path style="fill:none;stroke-width:6;stroke-linecap:round;stroke-linejoin:round;stroke:rgb(100%,100%,100%);stroke-opacity:1;stroke-miterlimit:10;" d="M 188.414063 183.648438 L 197.121094 168.539063 "/>
<path style="fill:none;stroke-width:6;stroke-linecap:round;stroke-linejoin:round;stroke:rgb(100%,100%,100%);stroke-opacity:1;stroke-miterlimit:10;" d="M 197.121094 168.539063 L 194.34375 166.910156 L 181.8125 159.566406 L 179.863281 158.429688 "/>
<path style="fill:none;stroke-width:6;stroke-linecap:round;stroke-linejoin:round;stroke:rgb(100%,100%,100%);stroke-opacity:1;stroke-miterlimit:10;" d="M 215.109375 178.46875 L 200.019531 170.140625 L 197.121094 168.539063 "/>
<path style="fill:none;stroke-width:6;stroke-linecap:round;stroke-linejoin:round;stroke:rgb(100%,100%,100%);stroke-opacity:1;stroke-miterlimit:10;" d="M 230.785156 223.253906 L 234.113281 224.320313 L 249.378906 229.214844 L 250.226563 229.757813 L 250.683594 230.582031 "/>
<path style="fill:none;stroke-width:6;stroke-linecap:round;stroke-linejoin:round;stroke:rgb(100%,100%,100%);stroke-opacity:1;stroke-miterlimit:10;" d="M 212.367188 228.726563 L 211.25 228.136719 L 205.59375 225.121094 L 195.214844 219.597656 L 193.113281 218.480469 "/>
<path style="fill:none;stroke-width:6;stroke-linecap:round;stroke-linejoin:round;stroke:rgb(100%,100%,100%);stroke-opacity:1;stroke-miterlimit:10;" d="M 234.929688 190.402344 L 232.074219 188.835938 L 229.84375 187.46875 L 224.703125 184.332031 L 215.109375 178.46875 "/>
<path style="fill:none;stroke-width:6;stroke-linecap:round;stroke-linejoin:round;stroke:rgb(100%,100%,100%);stroke-opacity:1;stroke-miterlimit:10;" d="M 206.105469 250.398438 L 187.425781 240.226563 L 184.722656 238.683594 "/>
<path style="fill:none;stroke-width:6;stroke-linecap:round;stroke-linejoin:round;stroke:rgb(100%,100%,100%);stroke-opacity:1;stroke-miterlimit:10;" d="M 247.957031 125.957031 L 246.023438 125.691406 L 244.761719 125.460938 L 243.257813 125.136719 L 241.507813 124.664063 L 220.953125 118.5 "/>
<path style="fill:none;stroke-width:6;stroke-linecap:round;stroke-linejoin:round;stroke:rgb(100%,100%,100%);stroke-opacity:1;stroke-miterlimit:10;" d="M 220.953125 118.5 L 193.507813 109.675781 "/>
<path style="fill:none;stroke-width:6;stroke-linecap:round;stroke-linejoin:round;stroke:rgb(100%,100%,100%);stroke-opacity:1;stroke-miterlimit:10;" d="M 234.15625 72.984375 L 258.335938 84.921875 L 261.253906 86.363281 "/>
<path style="fill:none;stroke-width:6;stroke-linecap:round;stroke-linejoin:round;stroke:rgb(100%,100%,100%);stroke-opacity:1;stroke-miterlimit:10;" d="M 220.953125 118.5 L 229.984375 87.367188 L 234.15625 72.984375 "/>
<path style="fill:none;stroke-width:6;stroke-linecap:round;stroke-linejoin:round;stroke:rgb(100%,100%,100%);stroke-opacity:1;stroke-miterlimit:10;" d="M 250.683594 230.582031 L 250.5625 232.261719 L 249.550781 235.699219 L 241.363281 264 "/>
<path style="fill:none;stroke-width:6;stroke-linecap:round;stroke-linejoin:round;stroke:rgb(100%,100%,100%);stroke-opacity:1;stroke-miterlimit:10;" d="M 229.953125 152.9375 L 230.972656 149.285156 L 230.542969 147.757813 L 228.894531 146.863281 L 211.871094 141.609375 L 189.066406 134.664063 L 187.734375 134.652344 L 186.617188 135.136719 L 185.863281 136.191406 L 185.542969 137.449219 "/>
<path style="fill:none;stroke-width:6;stroke-linecap:round;stroke-linejoin:round;stroke:rgb(100%,100%,100%);stroke-opacity:1;stroke-miterlimit:10;" d="M 185.542969 137.449219 L 185.28125 139.179688 L 185.773438 140.632813 L 186.699219 141.648438 L 188.613281 142.683594 L 207.289063 150.140625 L 225.855469 157.4375 L 227.152344 157.675781 L 228.210938 157.335938 L 229.953125 152.9375 "/>
<path style="fill:none;stroke-width:6;stroke-linecap:round;stroke-linejoin:round;stroke:rgb(100%,100%,100%);stroke-opacity:1;stroke-miterlimit:10;" d="M 197.121094 168.539063 L 207.289063 150.140625 L 211.871094 141.609375 L 214.285156 136.753906 L 216.726563 131.085938 L 218.835938 125.417969 L 220.953125 118.5 "/>
<path style="fill:none;stroke-width:6;stroke-linecap:round;stroke-linejoin:round;stroke:rgb(100%,100%,100%);stroke-opacity:1;stroke-miterlimit:10;" d="M 202.277344 264 L 206.105469 250.398438 L 212.367188 228.726563 L 218.515625 209.25 L 218.617188 208.246094 L 217.773438 206.855469 "/>
<path style="fill:none;stroke-width:6;stroke-linecap:round;stroke-linejoin:round;stroke:rgb(100%,100%,100%);stroke-opacity:1;stroke-miterlimit:10;" d="M 248.402344 167.386719 L 249.894531 168 L 264 173.972656 "/>
<path style="fill:none;stroke-width:6;stroke-linecap:round;stroke-linejoin:round;stroke:rgb(100%,100%,100%);stroke-opacity:1;stroke-miterlimit:10;" d="M 186.085938 264 L 185.417969 262.539063 L 184.640625 260.359375 L 183.917969 257.988281 L 183.4375 255.378906 L 183.148438 253.011719 L 182.996094 250.675781 L 182.996094 248.140625 L 183.226563 246.089844 L 183.808594 242.617188 L 184.722656 238.683594 L 185.621094 235.859375 L 186.464844 233.207031 L 187.65625 229.851563 L 189.113281 226.1875 L 193.113281 218.480469 L 202.773438 200.882813 L 203.65625 199.28125 L 204.558594 197.640625 L 215.109375 178.46875 "/>
<path style="fill:none;stroke-width:7;stroke-linecap:round;stroke-linejoin:round;stroke:rgb(100%,99.215686%,54.509804%);stroke-opacity:1;stroke-miterlimit:10;" d="M 258.546875 265 L 265 245.5625 "/>
<path style="fill:none;stroke-width:9;stroke-linecap:round;stroke-linejoin:round;stroke:rgb(100%,76.470588%,27.058824%);stroke-opacity:1;stroke-miterlimit:10;" d="M 230.785156 223.253906 L 232.316406 218.132813 "/>
<path style="fill:none;stroke-width:9;stroke-linecap:round;stroke-linejoin:round;stroke:rgb(100%,76.470588%,27.058824%);stroke-opacity:1;stroke-miterlimit:10;" d="M 232.316406 218.132813 L 234.246094 211.691406 "/>
<path style="fill:none;stroke-width:9;stroke-linecap:round;stroke-linejoin:round;stroke:rgb(100%,76.470588%,27.058824%);stroke-opacity:1;stroke-miterlimit:10;" d="M 234.246094 211.691406 L 235.878906 206.511719 L 236.75 203.886719 "/>
<path style="fill:none;stroke-width:9;stroke-linecap:round;stroke-linejoin:round;stroke:rgb(100%,76.470588%,27.058824%);stroke-opacity:1;stroke-miterlimit:10;" d="M 236.75 203.886719 L 239.117188 197.308594 L 241.0625 191.78125 "/>
<path style="fill:none;stroke-width:9;stroke-linecap:round;stroke-linejoin:round;stroke:rgb(100%,76.470588%,27.058824%);stroke-opacity:1;stroke-miterlimit:10;" d="M 229.414063 208.402344 L 224.28125 224.742188 "/>
<path style="fill:none;stroke-width:9;stroke-linecap:round;stroke-linejoin:round;stroke:rgb(100%,76.470588%,27.058824%);stroke-opacity:1;stroke-miterlimit:10;" d="M 234.929688 190.402344 L 234.011719 193.355469 L 229.414063 208.402344 "/>
<path style="fill:none;stroke-width:9;stroke-linecap:round;stroke-linejoin:round;stroke:rgb(100%,76.470588%,27.058824%);stroke-opacity:1;stroke-miterlimit:10;" d="M 261.253906 86.363281 L 252.113281 126.183594 "/>
<path style="fill:none;stroke-width:9;stroke-linecap:round;stroke-linejoin:round;stroke:rgb(100%,76.470588%,27.058824%);stroke-opacity:1;stroke-miterlimit:10;" d="M 224.28125 224.742188 L 211.785156 267 "/>
<path style="fill:none;stroke-width:9;stroke-linecap:round;stroke-linejoin:round;stroke:rgb(100%,76.470588%,27.058824%);stroke-opacity:1;stroke-miterlimit:10;" d="M 219.878906 267 L 226.179688 245.625 L 226.875 243.089844 L 227.589844 240.339844 L 228.289063 237.480469 L 228.828125 234.964844 L 229.332031 232.292969 L 229.632813 230.242188 L 230.027344 227.183594 L 230.363281 225.210938 L 230.785156 223.253906 "/>
<path style="fill:none;stroke-width:9;stroke-linecap:round;stroke-linejoin:round;stroke:rgb(100%,76.470588%,27.058824%);stroke-opacity:1;stroke-miterlimit:10;" d="M 252.113281 126.183594 L 248.535156 140.765625 L 246.867188 147.285156 L 245.144531 153.824219 L 234.929688 190.402344 "/>
<path style="fill:none;stroke-width:9;stroke-linecap:round;stroke-linejoin:round;stroke:rgb(100%,76.470588%,27.058824%);stroke-opacity:1;stroke-miterlimit:10;" d="M 241.0625 191.78125 L 241.90625 189.214844 L 242.6875 186.921875 L 244.542969 180.585938 L 247.949219 168.945313 L 248.402344 167.386719 L 256.160156 138.140625 L 258.578125 129.558594 L 258.957031 127.972656 L 259.308594 126.433594 "/>
<path style="fill:none;stroke-width:9;stroke-linecap:round;stroke-linejoin:round;stroke:rgb(99.215686%,57.254902%,22.745098%);stroke-opacity:1;stroke-miterlimit:10;" d="M 250.390625 252.238281 L 248.917969 258.285156 L 247.394531 263.753906 L 246.824219 265.824219 "/>
<path style="fill:none;stroke-width:9;stroke-linecap:round;stroke-linejoin:round;stroke:rgb(99.215686%,57.254902%,22.745098%);stroke-opacity:1;stroke-miterlimit:10;" d="M 251.777344 267 L 252.671875 264.019531 L 253.441406 261.746094 L 254.148438 259.78125 L 255.058594 257.707031 L 256.503906 254.546875 L 257.515625 252.195313 L 258.261719 250.289063 L 261.457031 240.601563 "/>
<path style="fill:none;stroke-width:9;stroke-linecap:round;stroke-linejoin:round;stroke:rgb(99.215686%,57.254902%,22.745098%);stroke-opacity:1;stroke-miterlimit:10;" d="M 224.28125 224.742188 L 223.625 235.28125 L 223.242188 238.378906 L 222.753906 241.152344 L 222.160156 243.710938 L 215.402344 267 "/>
<path style="fill:none;stroke-width:9;stroke-linecap:round;stroke-linejoin:round;stroke:rgb(99.215686%,57.254902%,22.745098%);stroke-opacity:1;stroke-miterlimit:10;" d="M 217.660156 267 L 224.136719 244.867188 L 225.117188 241.355469 L 227.246094 232.808594 L 227.828125 230.804688 L 228.542969 228.8125 L 229.347656 226.699219 L 230.785156 223.253906 "/>
<path style="fill:none;stroke-width:5;stroke-linecap:butt;stroke-linejoin:round;stroke:rgb(53.333333%,53.333333%,53.333333%);stroke-opacity:1;stroke-miterlimit:10;" d="M 251.410156 236.300781 L 259 238.613281 "/>
<path style="fill:none;stroke-width:5;stroke-linecap:butt;stroke-linejoin:round;stroke:rgb(53.333333%,53.333333%,53.333333%);stroke-opacity:1;stroke-miterlimit:10;" d="M 237.609375 146.019531 L 253.695313 155.105469 "/>
<path style="fill:none;stroke-width:5;stroke-linecap:butt;stroke-linejoin:round;stroke:rgb(53.333333%,53.333333%,53.333333%);stroke-opacity:1;stroke-miterlimit:10;" d="M 245.808594 89.945313 L 259 95.027344 M 259 108.519531 L 259 109.160156 "/>
<path style="fill:none;stroke-width:3;stroke-linecap:round;stroke-linejoin:round;stroke:rgb(98.039216%,98.039216%,96.078431%);stroke-opacity:1;stroke-miterlimit:10;" d="M 251.410156 236.300781 L 259 238.613281 "/>
<path style="fill:none;stroke-width:3;stroke-linecap:round;stroke-linejoin:round;stroke:rgb(98.039216%,98.039216%,96.078431%);stroke-opacity:1;stroke-miterlimit:10;" d="M 237.609375 146.019531 L 253.695313 155.105469 "/>
<path style="fill:none;stroke-width:3;stroke-linecap:round;stroke-linejoin:round;stroke:rgb(98.039216%,98.039216%,96.078431%);stroke-opacity:1;stroke-miterlimit:10;" d="M 245.808594 89.945313 L 259 95.027344 M 259 108.519531 L 259 109.160156 "/>
</g>
</svg>

