<?xml version="1.0" encoding="UTF-8"?>
<svg xmlns="http://www.w3.org/2000/svg" xmlns:xlink="http://www.w3.org/1999/xlink" width="256pt" height="256pt" viewBox="0 0 256 256" version="1.1">
<g id="surface2">
<rect x="0" y="0" width="256" height="256" style="fill:rgb(94.901961%,93.72549%,91.372549%);fill-opacity:1;stroke:none;"/>
<path style=" stroke:none;fill-rule:evenodd;fill:rgb(70.980392%,82.352941%,61.176471%);fill-opacity:1;" d="M -4 260 L 260 260 L 260 25.765625 L 240.941406 18.234375 L 184.664063 -4 L -4 -4 L -4 260 L -4 -4 Z M -4 260 "/>
<path style=" stroke:none;fill-rule:evenodd;fill:rgb(79.607843%,84.705882%,76.470588%);fill-opacity:1;" d="M -4 260 L 260 260 L 260 25.765625 L 240.941406 18.234375 L 184.664063 -4 L -4 -4 L -4 260 L -4 -4 Z M -4 260 "/>
<path style="fill:none;stroke-width:1;stroke-linecap:round;stroke-linejoin:round;stroke:rgb(100%,100%,100%);stroke-opacity:1;stroke-dasharray:2,3;stroke-miterlimit:10;" d="M 253.625 249.082031 L 245.003906 257 "/>
<path style="fill:none;stroke-width:1;stroke-linecap:round;stroke-linejoin:round;stroke:rgb(100%,100%,100%);stroke-opacity:1;stroke-dasharray:2,3;stroke-miterlimit:10;" d="M 29.21875 -2 L 30.667969 -0.0898438 L 32.167969 2.289063 "/>
<path style="fill:none;stroke-width:1;stroke-linecap:round;stroke-linejoin:round;stroke:rgb(100%,100%,100%);stroke-opacity:1;stroke-dasharray:2,3;stroke-miterlimit:10;" d="M 32.167969 2.289063 L 34.292969 3.914063 L 36.640625 4.0625 L 39.402344 5.601563 L 40.917969 7.410156 L 42.292969 9.539063 L 42.542969 12.289063 L 44.542969 15.164063 L 46.667969 16.851563 L 48.464844 18.042969 L 49.453125 21.554688 L 50.480469 24.660156 L 50.917969 27.664063 L 52.667969 30.539063 L 54.417969 34.539063 L 56.667969 38.285156 L 59.667969 40.660156 L 62.542969 41.789063 L 64.917969 42.660156 L 68.167969 44.914063 L 73.042969 48.285156 L 75.792969 51.039063 L 78.042969 54.035156 L 79.417969 56.910156 L 79.917969 59.160156 L 79.792969 62.664063 L 79.042969 65.039063 L 78.292969 67.164063 L 77.667969 68.910156 L 77.542969 70.410156 L 77.667969 74.160156 L 79.042969 79.410156 L 80.417969 82.414063 L 82.417969 86.039063 L 83.917969 88.535156 L 84.667969 91.035156 L 84.792969 92.535156 L 85.542969 94.160156 L 87.042969 94.789063 L 89.042969 95.410156 L 91.417969 95.035156 L 95.191406 93.152344 L 99.042969 91.035156 L 101.667969 89.035156 L 103.917969 87.664063 L 105.894531 87.546875 "/>
<path style="fill:none;stroke-width:1;stroke-linecap:round;stroke-linejoin:round;stroke:rgb(100%,100%,100%);stroke-opacity:1;stroke-dasharray:2,3;stroke-miterlimit:10;" d="M 253.625 249.082031 L 256.375 242.582031 L 256.375 236.078125 L 256.875 228.582031 L 257 228.25 "/>
<path style="fill:none;stroke-width:1;stroke-linecap:round;stroke-linejoin:round;stroke:rgb(100%,100%,100%);stroke-opacity:1;stroke-dasharray:2,3;stroke-miterlimit:10;" d="M 239.441406 257 L 238.792969 248.164063 L 238.917969 242.664063 L 238.167969 237.660156 L 236.167969 232.535156 L 235.542969 226.910156 L 235.042969 223.164063 L 233.417969 219.164063 L 230.417969 215.285156 L 227.417969 212.414063 L 224.542969 209.664063 L 221.792969 208.285156 L 219.542969 207.785156 L 217.667969 206.535156 L 216.667969 204.910156 L 216.417969 202.660156 L 216.542969 199.910156 L 217.417969 196.039063 L 217.667969 190.660156 L 217.792969 182.785156 L 217.417969 178.785156 L 217.542969 173.910156 L 217.792969 170.539063 L 218.542969 166.660156 L 221.917969 160.785156 L 222.417969 158.660156 L 223.417969 156.660156 L 223.167969 155.035156 L 222.667969 152.785156 L 221.292969 151.035156 L 219.667969 149.535156 L 217.792969 148.539063 L 215.917969 148.410156 L 212.917969 149.289063 L 208.042969 151.410156 L 205.417969 152.039063 L 201.667969 152.164063 L 197.542969 151.664063 L 193.792969 150.914063 L 188.417969 146.660156 L 185.042969 144.285156 L 181.167969 143.410156 L 178.792969 142.285156 L 176.792969 138.660156 L 174.917969 136.039063 L 173.542969 132.660156 L 171.667969 130.285156 L 169.167969 128.539063 L 166.792969 127.664063 L 164.667969 127.035156 L 163.292969 126.039063 L 159.917969 121.785156 L 158.167969 119.785156 L 155.316406 119.074219 L 152.542969 117.910156 L 151.042969 117.046875 L 148.417969 115.535156 L 146.3125 114.566406 L 145.167969 114.039063 L 142.417969 113.289063 L 140.167969 113.664063 L 137.042969 114.414063 L 133.792969 114.785156 L 131.292969 114.039063 L 129.667969 112.660156 L 127.917969 109.160156 L 124.792969 104.285156 L 123.167969 101.535156 L 120.917969 99.535156 L 117.542969 98.160156 L 112.792969 94.910156 L 111.542969 93.785156 L 109.917969 91.535156 L 108.042969 88.910156 L 105.894531 87.546875 "/>
<path style="fill:none;stroke-width:1;stroke-linecap:round;stroke-linejoin:round;stroke:rgb(100%,100%,100%);stroke-opacity:1;stroke-dasharray:2,3;stroke-miterlimit:10;" d="M 105.894531 87.546875 L 109.125 84.832031 L 111.875 80.578125 L 113.625 76.082031 L 114.875 71.832031 L 115.375 68.582031 L 116.625 65.582031 L 118.625 64.078125 L 120.125 60.332031 L 125.625 54.332031 L 130.375 50.582031 L 134.375 46.082031 L 135.375 43.832031 L 135.375 38.582031 L 136.875 36.328125 L 139.375 34.832031 L 141.625 34.582031 L 143.625 34.082031 L 143.625 29.582031 L 145.125 26.832031 L 150.125 18.832031 L 152.875 14.332031 L 157.875 10.332031 L 162.375 7.582031 L 166.625 3.832031 L 169.875 -1.417969 L 171.621094 -2 "/>
<path style="fill:none;stroke-width:1;stroke-linecap:round;stroke-linejoin:round;stroke:rgb(100%,100%,100%);stroke-opacity:1;stroke-dasharray:2,3;stroke-miterlimit:10;" d="M -2 128.632813 L 1.863281 126.4375 L 5.207031 122.332031 L 8.757813 121.367188 L 12.90625 118.417969 L 16.492188 116.089844 L 21.59375 115.53125 L 26.085938 114.097656 L 29.234375 111.589844 L 30.847656 108.160156 L 30.375 105.582031 L 28.875 103.078125 L 26.125 100.832031 L 23.214844 98.675781 L 17.464844 91.222656 L 16.753906 88.320313 L 17.625 84.332031 L 19.460938 80.21875 L 21.625 76.332031 L 21.84375 72.964844 L 20.476563 70.976563 L 20.695313 68.039063 L 21.792969 66.144531 L 20.375 63.332031 L 16.179688 58.273438 L 14.796875 54.53125 L 13.523438 51.414063 L 13.222656 46.71875 L 13.210938 42.410156 L 12.984375 38.902344 L 13.652344 36.398438 L 16.058594 35.300781 L 18.875 34.832031 L 21.734375 34.03125 L 24.726563 32.210938 L 25.714844 28.546875 L 27.414063 25.03125 L 30.867188 21.671875 L 32.597656 19.152344 L 33.640625 16.007813 L 29.375 7.332031 L 32.167969 2.289063 "/>
<path style="fill:none;stroke-width:1;stroke-linecap:round;stroke-linejoin:round;stroke:rgb(100%,100%,100%);stroke-opacity:1;stroke-dasharray:2,3;stroke-miterlimit:10;" d="M 257 250.601563 L 256.125 249.578125 L 253.625 249.082031 "/>
<path style="fill:none;stroke-width:1;stroke-linecap:round;stroke-linejoin:round;stroke:rgb(100%,100%,100%);stroke-opacity:1;stroke-dasharray:2,3;stroke-miterlimit:10;" d="M -2 171.246094 L 0.546875 174.511719 L 1.792969 177.234375 L 7.875 178.582031 L 15.128906 181.363281 L 20.136719 184.390625 L 24.578125 186.195313 L 30.613281 186.699219 L 35.761719 188.683594 L 42.390625 189.304688 L 46.589844 189.714844 L 63.625 207.582031 L 70.183594 214.699219 L 79.972656 220.308594 L 87.933594 225.074219 L 92.125 228.332031 L 94.535156 233.519531 L 96.875 236.582031 L 96.554688 240.886719 L 98.191406 245.050781 L 101.222656 251.625 L 103.847656 253.6875 L 109.625 255.332031 L 112.148438 256.75 L 112.21875 257 "/>
</g>
</svg>

