<?xml version="1.0" encoding="UTF-8"?>
<svg xmlns="http://www.w3.org/2000/svg" xmlns:xlink="http://www.w3.org/1999/xlink" width="256pt" height="256pt" viewBox="0 0 256 256" version="1.1">
<g id="surface2">
<rect x="0" y="0" width="256" height="256" style="fill:rgb(94.901961%,93.72549%,91.372549%);fill-opacity:1;stroke:none;"/>
<path style=" stroke:none;fill-rule:evenodd;fill:rgb(60%,70.196078%,80%);fill-opacity:1;" d="M -4 -4 L 259 -4 L 259 259 L 259 -4 Z M -8239283.429688 5399528.398438 Z M -8239283.429688 5399528.398438 "/>
<path style="fill:none;stroke-width:1;stroke-linecap:round;stroke-linejoin:round;stroke:rgb(70.196078%,77.647059%,83.137255%);stroke-opacity:1;stroke-miterlimit:10;" d="M -4 -4 L 259 -4 L 259 259 L 259 -4 L -4 -4 "/>
<path style="fill:none;stroke-width:8;stroke-linecap:round;stroke-linejoin:round;stroke:rgb(75.686275%,70.980392%,61.568627%);stroke-opacity:1;stroke-miterlimit:10;" d="M 264 60.855469 L 249.140625 48.652344 L 233.6875 39.332031 L 225.800781 28.90625 L 206.984375 29.929688 L 193.664063 20.425781 L 180.332031 29.25 L 172.875 30.488281 L 136.789063 18.339844 L 130.507813 0.90625 L 112.59375 -9 "/>
<path style="fill:none;stroke-width:6;stroke-linecap:round;stroke-linejoin:round;stroke:rgb(100%,100%,100%);stroke-opacity:1;stroke-miterlimit:10;" d="M 264 60.855469 L 249.140625 48.652344 L 233.6875 39.332031 L 225.800781 28.90625 L 206.984375 29.929688 L 193.664063 20.425781 L 180.332031 29.25 L 172.875 30.488281 L 136.789063 18.339844 L 130.507813 0.90625 L 112.59375 -9 "/>
</g>
</svg>

