<?xml version="1.0" encoding="UTF-8"?>
<svg xmlns="http://www.w3.org/2000/svg" xmlns:xlink="http://www.w3.org/1999/xlink" width="256pt" height="256pt" viewBox="0 0 256 256" version="1.1">
<g id="surface2">
<rect x="0" y="0" width="256" height="256" style="fill:rgb(60%,70.196078%,80%);fill-opacity:1;stroke:none;"/>
<path style=" stroke:none;fill-rule:evenodd;fill:rgb(94.901961%,93.72549%,91.372549%);fill-opacity:1;" d="M 199.605469 180.320313 L 191.320313 179.640625 L 187.261719 184.765625 L 193.398438 196.1875 L 192.949219 207.886719 L 196.386719 217.570313 L 192.949219 226.265625 L 190.136719 236.828125 L 184.136719 248.324219 L 180.886719 255.765625 L 179.945313 259 L -4 259 L -4 -4 L 199.632813 -4 L 199.632813 180.335938 Z M 199.605469 180.320313 "/>
<path style=" stroke:none;fill-rule:evenodd;fill:rgb(94.901961%,93.72549%,91.372549%);fill-opacity:1;" d="M 259 -4 L 259 259 L 201.746094 259 L 202.351563 254.859375 L 203.945313 248.324219 L 201.945313 242.917969 L 205.320313 240.390625 L 212.820313 234.578125 L 219.976563 234.953125 L 222.632813 234.453125 L 228.292969 231.734375 L 242.605469 228.140625 L 244.417969 221.984375 L 240.664063 213.828125 L 236.199219 208.453125 L 232.480469 205.296875 L 223.886719 197.199219 L 219.839844 196.644531 L 211.792969 190.207031 L 203.972656 182.621094 L 199.605469 180.320313 L 191.320313 179.640625 L 187.261719 184.765625 L 193.398438 196.1875 L 192.949219 207.886719 L 196.386719 217.570313 L 192.949219 226.265625 L 190.136719 236.828125 L 184.136719 248.324219 L 180.886719 255.765625 L 179.945313 259 L 178.703125 259 L 178.703125 -4 Z M 259 -4 "/>
<path style=" stroke:none;fill-rule:evenodd;fill:rgb(70.980392%,82.352941%,61.176471%);fill-opacity:1;" d="M 143.15625 88.988281 L 149.179688 90.996094 L 154.453125 96.265625 L 159.972656 103.800781 L 164.496094 113.589844 L 167.503906 119.363281 L 170.769531 122.375 L 178.050781 124.132813 L 183.320313 121.875 L 195.371094 115.847656 L 209.679688 106.558594 L 207.921875 98.273438 L 209.929688 91.246094 L 215.453125 81.957031 L 219.46875 80.957031 L 219.46875 91.75 L 223.988281 107.0625 L 231.019531 115.09375 L 255.617188 125.636719 L 246.832031 149.738281 L 242.816406 165.304688 L 234.53125 176.597656 L 251.851563 191.910156 L 260 187.863281 L 260 -4 L 217.339844 -4 L 161.984375 45.308594 L 161.730469 57.105469 L 137.882813 84.71875 L 137.632813 88.738281 Z M 143.15625 88.988281 "/>
<path style=" stroke:none;fill-rule:evenodd;fill:rgb(87.058824%,81.960784%,67.058824%);fill-opacity:1;" d="M 138.199219 182.777344 L 165.449219 193.273438 L 171.324219 177.027344 L 144.199219 167.398438 Z M 138.199219 182.777344 "/>
<path style=" stroke:none;fill-rule:evenodd;fill:rgb(87.058824%,81.960784%,67.058824%);fill-opacity:1;" d="M 152.199219 145.066406 L 178.984375 151.828125 L 182.667969 137.230469 L 155.882813 130.46875 Z M 152.199219 145.066406 "/>
<path style=" stroke:none;fill-rule:evenodd;fill:rgb(87.058824%,81.960784%,67.058824%);fill-opacity:1;" d="M 149.394531 162.0625 L 176.179688 168.824219 L 179.863281 154.226563 L 153.078125 147.464844 Z M 149.394531 162.0625 "/>
<path style=" stroke:none;fill-rule:evenodd;fill:rgb(87.058824%,81.960784%,67.058824%);fill-opacity:1;" d="M 153.199219 209.277344 L 160.574219 223.898438 L 177.574219 222.777344 L 173.449219 207.402344 L 170.199219 205.648438 Z M 153.199219 209.277344 "/>
<path style=" stroke:none;fill-rule:evenodd;fill:rgb(87.058824%,81.960784%,67.058824%);fill-opacity:1;" d="M 87.753906 177 L 89.695313 178.78125 L 101.019531 181.078125 L 107.714844 176.917969 L 110.761719 168.523438 L 96.902344 162.78125 L 94.644531 163.613281 Z M 87.753906 177 "/>
<path style=" stroke:none;fill-rule:evenodd;fill:rgb(87.058824%,81.960784%,67.058824%);fill-opacity:1;" d="M 120.59375 196.671875 L 121.5625 207.3125 L 146.605469 204.796875 L 145.25 194.449219 Z M 120.59375 196.671875 "/>
<path style=" stroke:none;fill-rule:evenodd;fill:rgb(87.058824%,81.960784%,67.058824%);fill-opacity:1;" d="M 81.851563 196.007813 L 83.671875 200.679688 L 86.089844 202.347656 L 95.238281 200.367188 L 100.230469 192.167969 L 99.953125 189.273438 L 93.058594 185.753906 L 88.902344 185.15625 L 85.457031 185.117188 Z M 81.851563 196.007813 "/>
<path style="fill:none;stroke-width:8;stroke-linecap:round;stroke-linejoin:round;stroke:rgb(75.686275%,70.980392%,61.568627%);stroke-opacity:1;stroke-miterlimit:10;" d="M 108.898438 188.980469 L 112.128906 189.667969 L 120.480469 192.816406 L 125.257813 192.929688 "/>
<path style="fill:none;stroke-width:8;stroke-linecap:round;stroke-linejoin:round;stroke:rgb(75.686275%,70.980392%,61.568627%);stroke-opacity:1;stroke-miterlimit:10;" d="M 125.257813 192.929688 L 125.101563 188.804688 L 124.351563 186.117188 L 122.984375 184.265625 L 121.511719 184.160156 L 118.992188 185.21875 L 115.777344 186.355469 L 111.183594 188.285156 L 108.898438 188.980469 "/>
<path style="fill:none;stroke-width:8;stroke-linecap:round;stroke-linejoin:round;stroke:rgb(75.686275%,70.980392%,61.568627%);stroke-opacity:1;stroke-miterlimit:10;" d="M 108.898438 188.980469 L 105.953125 189.214844 L 104.082031 190.089844 L 102.449219 191.542969 L 99.976563 195.339844 L 89.894531 214.335938 "/>
<path style="fill:none;stroke-width:8;stroke-linecap:round;stroke-linejoin:round;stroke:rgb(75.686275%,70.980392%,61.568627%);stroke-opacity:1;stroke-miterlimit:10;" d="M 125.257813 192.929688 L 137.136719 188.992188 L 138.992188 188.761719 L 140.542969 188.90625 L 144.242188 190.238281 L 159.363281 195.683594 L 162.621094 196.480469 L 169.792969 196.976563 L 172.609375 196.660156 L 175.105469 196.03125 L 185.84375 191.769531 "/>
<path style="fill:none;stroke-width:8;stroke-linecap:round;stroke-linejoin:round;stroke:rgb(75.686275%,70.980392%,61.568627%);stroke-opacity:1;stroke-miterlimit:10;" d="M 164.460938 3.992188 L 163.371094 3.636719 L 156.363281 -1.738281 "/>
<path style="fill:none;stroke-width:8;stroke-linecap:round;stroke-linejoin:round;stroke:rgb(75.686275%,70.980392%,61.568627%);stroke-opacity:1;stroke-miterlimit:10;" d="M 175.8125 -9 L 176.28125 -5.464844 L 176.027344 -2.816406 L 175.421875 -0.71875 L 174.5 0.8125 L 173.121094 2.773438 "/>
<path style="fill:none;stroke-width:8;stroke-linecap:round;stroke-linejoin:round;stroke:rgb(75.686275%,70.980392%,61.568627%);stroke-opacity:1;stroke-miterlimit:10;" d="M 164.460938 3.992188 L 164.179688 5.773438 L 159.375 13.144531 L 157.28125 15.96875 L 154.96875 18.03125 "/>
<path style="fill:none;stroke-width:8;stroke-linecap:round;stroke-linejoin:round;stroke:rgb(75.686275%,70.980392%,61.568627%);stroke-opacity:1;stroke-miterlimit:10;" d="M 134.714844 253.53125 L 132.347656 251.359375 L 130.988281 249.417969 L 128.539063 247.230469 L 125.4375 245.179688 L 119.761719 242.574219 L 117.46875 241.8125 "/>
<path style="fill:none;stroke-width:8;stroke-linecap:round;stroke-linejoin:round;stroke:rgb(75.686275%,70.980392%,61.568627%);stroke-opacity:1;stroke-miterlimit:10;" d="M 33.261719 153.261719 L 36.746094 156.882813 L 55.316406 169.796875 "/>
<path style="fill:none;stroke-width:8;stroke-linecap:round;stroke-linejoin:round;stroke:rgb(75.686275%,70.980392%,61.568627%);stroke-opacity:1;stroke-miterlimit:10;" d="M 126.023438 58.210938 L 125.304688 62.644531 L 116.539063 85.839844 "/>
<path style="fill:none;stroke-width:8;stroke-linecap:round;stroke-linejoin:round;stroke:rgb(75.686275%,70.980392%,61.568627%);stroke-opacity:1;stroke-miterlimit:10;" d="M 50.089844 67.410156 L 37.59375 85.195313 L 37.125 86.355469 L 37.164063 87.472656 L 37.582031 88.574219 L 40.570313 91.148438 L 42.34375 92.953125 "/>
<path style="fill:none;stroke-width:8;stroke-linecap:round;stroke-linejoin:round;stroke:rgb(75.686275%,70.980392%,61.568627%);stroke-opacity:1;stroke-miterlimit:10;" d="M -9 60.335938 L -0.558594 67.289063 L 12.230469 77.472656 "/>
<path style="fill:none;stroke-width:8;stroke-linecap:round;stroke-linejoin:round;stroke:rgb(75.686275%,70.980392%,61.568627%);stroke-opacity:1;stroke-miterlimit:10;" d="M 87.691406 85.835938 L 122.148438 100.046875 "/>
<path style="fill:none;stroke-width:8;stroke-linecap:round;stroke-linejoin:round;stroke:rgb(75.686275%,70.980392%,61.568627%);stroke-opacity:1;stroke-miterlimit:10;" d="M 42.34375 92.953125 L 71.480469 119.082031 "/>
<path style="fill:none;stroke-width:8;stroke-linecap:round;stroke-linejoin:round;stroke:rgb(75.686275%,70.980392%,61.568627%);stroke-opacity:1;stroke-miterlimit:10;" d="M 33.261719 153.261719 L 23.332031 140.6875 L 22.25 138.980469 L 21.476563 136.324219 L 20.863281 134.023438 L 19.964844 126.738281 L 19.011719 123.6875 L 17.695313 120.910156 L 13.835938 115.726563 "/>
<path style="fill:none;stroke-width:8;stroke-linecap:round;stroke-linejoin:round;stroke:rgb(75.686275%,70.980392%,61.568627%);stroke-opacity:1;stroke-miterlimit:10;" d="M 2.832031 179.761719 L -7.308594 198.476563 L -7.710938 200.40625 L -6.316406 201.566406 L 10.441406 210.84375 "/>
<path style="fill:none;stroke-width:8;stroke-linecap:round;stroke-linejoin:round;stroke:rgb(75.686275%,70.980392%,61.568627%);stroke-opacity:1;stroke-miterlimit:10;" d="M 69.761719 255.167969 L 89.894531 214.335938 "/>
<path style="fill:none;stroke-width:8;stroke-linecap:round;stroke-linejoin:round;stroke:rgb(75.686275%,70.980392%,61.568627%);stroke-opacity:1;stroke-miterlimit:10;" d="M 240.15625 249.578125 L 247.265625 254.496094 L 249.265625 256.929688 L 251.089844 258.015625 L 253.285156 258.109375 L 255.339844 257.257813 L 257.179688 255.742188 L 258.613281 253.113281 L 259.640625 248.703125 L 259.75 243.046875 L 259.40625 241.109375 L 259.054688 239.148438 L 258.308594 237.21875 L 255.242188 232.332031 "/>
<path style="fill:none;stroke-width:8;stroke-linecap:round;stroke-linejoin:round;stroke:rgb(75.686275%,70.980392%,61.568627%);stroke-opacity:1;stroke-miterlimit:10;" d="M 69.761719 255.167969 L 51.914063 247.300781 L 25.496094 235.152344 "/>
<path style="fill:none;stroke-width:8;stroke-linecap:round;stroke-linejoin:round;stroke:rgb(75.686275%,70.980392%,61.568627%);stroke-opacity:1;stroke-miterlimit:10;" d="M 124.917969 -9 L 136.84375 1.730469 "/>
<path style="fill:none;stroke-width:8;stroke-linecap:round;stroke-linejoin:round;stroke:rgb(75.686275%,70.980392%,61.568627%);stroke-opacity:1;stroke-miterlimit:10;" d="M 33.261719 153.261719 L 27.691406 158.910156 L 25.964844 160.003906 L 24.675781 160.371094 L 21.050781 160.726563 L 17.492188 160.480469 L 14.839844 159.125 L 10.179688 154.71875 L -6.074219 138.609375 "/>
<path style="fill:none;stroke-width:8;stroke-linecap:round;stroke-linejoin:round;stroke:rgb(75.686275%,70.980392%,61.568627%);stroke-opacity:1;stroke-miterlimit:10;" d="M 50.089844 67.410156 L 53.480469 66.433594 L 75.160156 56.472656 L 96.519531 67.085938 "/>
<path style="fill:none;stroke-width:8;stroke-linecap:round;stroke-linejoin:round;stroke:rgb(75.686275%,70.980392%,61.568627%);stroke-opacity:1;stroke-miterlimit:10;" d="M 111.917969 262.140625 L 115.515625 258.601563 L 118.925781 256.191406 L 121.960938 254.757813 L 124.480469 254.152344 L 128.902344 253.410156 L 131.785156 253.445313 L 134.714844 253.53125 L 137.734375 254.46875 L 141.746094 256.1875 L 145.992188 258.332031 L 148.601563 260 L 150.464844 261.445313 L 151.800781 264 "/>
<path style="fill:none;stroke-width:8;stroke-linecap:round;stroke-linejoin:round;stroke:rgb(75.686275%,70.980392%,61.568627%);stroke-opacity:1;stroke-miterlimit:10;" d="M 55.003906 -3.25 L 66.296875 4.25 L 68.585938 4.015625 L 69.597656 2.652344 L 70.183594 1.144531 L 69.960938 -0.582031 L 69.050781 -1.878906 L 62.292969 -6.980469 L 60.195313 -8.183594 L 58.351563 -8.953125 L 57.40625 -9 M 55.511719 -9 L 48.824219 -7.523438 L 55.003906 -3.25 "/>
<path style="fill:none;stroke-width:8;stroke-linecap:round;stroke-linejoin:round;stroke:rgb(75.686275%,70.980392%,61.568627%);stroke-opacity:1;stroke-miterlimit:10;" d="M 37.046875 36.855469 L 46.074219 33.496094 L 54.007813 29.0625 L 56.382813 28.40625 L 57.601563 28.1875 L 59.398438 30.632813 L 60.65625 32.261719 L 62.828125 34.195313 L 64.710938 35.183594 L 65.953125 35.601563 L 67.679688 35.347656 L 79.964844 30.46875 L 84.523438 28.84375 "/>
<path style="fill:none;stroke-width:8;stroke-linecap:round;stroke-linejoin:round;stroke:rgb(75.686275%,70.980392%,61.568627%);stroke-opacity:1;stroke-miterlimit:10;" d="M -9 142.152344 L -6.074219 138.609375 L 8.789063 121.214844 L 13.835938 115.726563 L 19.425781 111.191406 L 21.691406 108.757813 L 23.246094 107.980469 L 24.417969 107.730469 "/>
<path style="fill:none;stroke-width:8;stroke-linecap:round;stroke-linejoin:round;stroke:rgb(75.686275%,70.980392%,61.568627%);stroke-opacity:1;stroke-miterlimit:10;" d="M 33.261719 153.261719 L 39.0625 144.792969 L 42.648438 137.347656 L 44.078125 132.976563 L 44.851563 129.132813 L 44.730469 126.40625 L 44.21875 124.097656 L 43.03125 122.578125 L 41.679688 121.128906 L 28.839844 109.488281 L 27.273438 108.152344 L 25.878906 107.660156 L 24.417969 107.730469 "/>
<path style="fill:none;stroke-width:8;stroke-linecap:round;stroke-linejoin:round;stroke:rgb(75.686275%,70.980392%,61.568627%);stroke-opacity:1;stroke-miterlimit:10;" d="M 204.914063 -6.117188 L 203.984375 -4.226563 L 202.425781 -2.84375 L 192.960938 3.027344 L 189.558594 6.21875 L 188.316406 7.734375 L 183.410156 14.578125 L 181.902344 15.96875 L 180.730469 16.292969 L 178.5 16.496094 L 176.609375 16.132813 L 175.367188 15.371094 L 174.21875 13.945313 L 173.710938 11.996094 L 173.742188 9.707031 L 173.953125 4.371094 L 173.554688 3.195313 L 172.226563 1.90625 L 170.792969 1.464844 L 169.363281 1.417969 L 167.703125 1.730469 L 166.179688 2.753906 L 164.460938 3.992188 "/>
<path style="fill:none;stroke-width:8;stroke-linecap:round;stroke-linejoin:round;stroke:rgb(75.686275%,70.980392%,61.568627%);stroke-opacity:1;stroke-miterlimit:10;" d="M 40.304688 201.546875 L 30.71875 198.445313 L 25.539063 196.4375 L 21.542969 194.230469 L 12.761719 188.265625 L 2.832031 179.761719 L -9 167.523438 "/>
<path style="fill:none;stroke-width:8;stroke-linecap:round;stroke-linejoin:round;stroke:rgb(75.686275%,70.980392%,61.568627%);stroke-opacity:1;stroke-miterlimit:10;" d="M 89.894531 214.335938 L 71.992188 206.191406 L 70.277344 205.589844 L 68.996094 205.789063 L 67.539063 207.492188 L 60.761719 222.707031 L 58.117188 229.921875 L 54.839844 239.777344 L 51.914063 247.300781 "/>
<path style="fill:none;stroke-width:8;stroke-linecap:round;stroke-linejoin:round;stroke:rgb(75.686275%,70.980392%,61.568627%);stroke-opacity:1;stroke-miterlimit:10;" d="M 22.039063 242.753906 L -9 225.34375 "/>
<path style="fill:none;stroke-width:8;stroke-linecap:round;stroke-linejoin:round;stroke:rgb(75.686275%,70.980392%,61.568627%);stroke-opacity:1;stroke-miterlimit:10;" d="M 98.003906 64.195313 L 102.570313 63.730469 L 115.855469 58.796875 L 119.175781 57.835938 L 121.65625 57.484375 L 124.558594 58.042969 L 126.023438 58.210938 L 127.5 57.066406 L 130.289063 51.757813 L 134.703125 45.3125 L 140.136719 38.683594 L 144.484375 32.921875 L 145.703125 29.679688 L 147.40625 24.3125 L 149.164063 19.292969 "/>
<path style="fill:none;stroke-width:8;stroke-linecap:round;stroke-linejoin:round;stroke:rgb(75.686275%,70.980392%,61.568627%);stroke-opacity:1;stroke-miterlimit:10;" d="M -9 53.039063 L -5.847656 49.824219 L 9.984375 29.460938 L 20.773438 15.054688 "/>
<path style="fill:none;stroke-width:8;stroke-linecap:round;stroke-linejoin:round;stroke:rgb(75.686275%,70.980392%,61.568627%);stroke-opacity:1;stroke-miterlimit:10;" d="M 264 204.921875 L 259.480469 200.660156 L 229.566406 173.53125 L 207.699219 154.664063 L 196.980469 143.679688 L 190.863281 137.777344 L 186.359375 134.214844 L 180.011719 129.972656 L 176.71875 127.84375 "/>
<path style="fill:none;stroke-width:8;stroke-linecap:round;stroke-linejoin:round;stroke:rgb(75.686275%,70.980392%,61.568627%);stroke-opacity:1;stroke-miterlimit:10;" d="M 264 218.820313 L 255.242188 232.332031 L 249.894531 239.898438 L 247.285156 242.890625 L 244.902344 244.703125 L 242.378906 246.628906 L 240.832031 248.515625 L 240.15625 249.578125 L 238.222656 253.855469 L 234.15625 264 "/>
<path style="fill:none;stroke-width:8;stroke-linecap:round;stroke-linejoin:round;stroke:rgb(75.686275%,70.980392%,61.568627%);stroke-opacity:1;stroke-miterlimit:10;" d="M -9 104.269531 L 2.078125 90.816406 L 11.105469 79.082031 L 12.230469 77.472656 L 20.148438 67.691406 L 28.972656 56.496094 "/>
<path style="fill:none;stroke-width:8;stroke-linecap:round;stroke-linejoin:round;stroke:rgb(75.686275%,70.980392%,61.568627%);stroke-opacity:1;stroke-miterlimit:10;" d="M 110.972656 264 L 111.917969 262.140625 L 113.691406 256.632813 L 115.207031 248.925781 L 116.421875 245.09375 L 117.46875 241.8125 L 120.125 235.988281 L 123.109375 228.847656 "/>
<path style="fill:none;stroke-width:8;stroke-linecap:round;stroke-linejoin:round;stroke:rgb(75.686275%,70.980392%,61.568627%);stroke-opacity:1;stroke-miterlimit:10;" d="M 176.71875 127.84375 L 178.886719 126.210938 L 192.082031 124.296875 L 199.585938 122.386719 L 207.902344 120.257813 L 216.617188 117.851563 L 221.488281 117.234375 L 227.453125 117.636719 L 232.648438 119.519531 L 242.414063 124.082031 L 253.015625 127.691406 L 260.097656 130.128906 L 262.453125 131.363281 L 264 132.449219 "/>
<path style="fill:none;stroke-width:8;stroke-linecap:round;stroke-linejoin:round;stroke:rgb(75.686275%,70.980392%,61.568627%);stroke-opacity:1;stroke-miterlimit:10;" d="M 81.339844 97.542969 L 84.273438 100.242188 L 101.316406 109.890625 L 103.851563 111.003906 L 106.144531 111.390625 L 108.1875 111.339844 L 111.484375 109.464844 L 122.148438 100.046875 L 127.976563 94.835938 L 131.5 91.550781 L 134.089844 90.40625 L 136.53125 89.628906 L 139.90625 89.539063 L 142.820313 89.859375 L 145.9375 90.839844 L 148.597656 92.191406 L 151.769531 94.84375 L 153.863281 97.335938 L 156.277344 102.140625 L 161.859375 112.960938 L 164.496094 118.097656 L 166.332031 121.339844 L 167.722656 122.714844 L 169.023438 123.851563 L 170.820313 124.789063 L 173.722656 126.140625 L 176.71875 127.84375 "/>
<path style="fill:none;stroke-width:9;stroke-linecap:round;stroke-linejoin:round;stroke:rgb(75.686275%,70.980392%,61.568627%);stroke-opacity:1;stroke-miterlimit:10;" d="M 71.894531 90 L 77.964844 94.4375 L 81.339844 97.542969 "/>
<path style="fill:none;stroke-width:9;stroke-linecap:round;stroke-linejoin:round;stroke:rgb(75.686275%,70.980392%,61.568627%);stroke-opacity:1;stroke-miterlimit:10;" d="M -10 1.941406 L -3.136719 5.632813 L 5.164063 8.359375 L 9.839844 9.9375 L 14.546875 11.796875 L 20.773438 15.054688 L 24.585938 18.023438 L 27.90625 21.207031 L 30.8125 24.828125 L 33.566406 28.980469 L 35.882813 33.292969 L 37.046875 36.855469 L 38.46875 43.609375 L 39.5625 47.238281 L 41.546875 51.511719 L 50.089844 67.410156 L 54.71875 75.796875 L 57.613281 79.449219 L 60.519531 82.320313 L 64.191406 85.300781 L 66.378906 86.738281 L 68.621094 87.753906 L 71.894531 90 "/>
<path style="fill:none;stroke-width:10;stroke-linecap:round;stroke-linejoin:round;stroke:rgb(75.686275%,70.980392%,61.568627%);stroke-opacity:1;stroke-miterlimit:10;" d="M 88.191406 84.800781 L 87.691406 85.835938 L 83.589844 93.957031 L 81.339844 97.542969 "/>
<path style="fill:none;stroke-width:10;stroke-linecap:round;stroke-linejoin:round;stroke:rgb(75.686275%,70.980392%,61.568627%);stroke-opacity:1;stroke-miterlimit:10;" d="M 81.339844 97.542969 L 79.496094 100.496094 L 76.898438 105.523438 L 73.339844 113.238281 "/>
<path style="fill:none;stroke-width:10;stroke-linecap:round;stroke-linejoin:round;stroke:rgb(75.686275%,70.980392%,61.568627%);stroke-opacity:1;stroke-miterlimit:10;" d="M 146.535156 -11 L 144.21875 -7.636719 L 136.84375 1.730469 L 132.835938 6.855469 L 126.199219 15.53125 L 122.996094 20.035156 L 118.277344 27.054688 L 112.578125 36.207031 L 109.730469 41.164063 L 106.609375 47.039063 L 98.003906 64.195313 L 96.519531 67.085938 L 88.191406 84.800781 "/>
<path style="fill:none;stroke-width:10;stroke-linecap:round;stroke-linejoin:round;stroke:rgb(75.686275%,70.980392%,61.568627%);stroke-opacity:1;stroke-miterlimit:10;" d="M 11.847656 266 L 16.128906 256.3125 L 22.039063 242.753906 L 25.496094 235.152344 L 40.304688 201.546875 L 47.78125 184.769531 L 54.144531 172.046875 L 55.316406 169.796875 L 57.121094 166.054688 L 59.359375 161.425781 L 61.820313 154.636719 L 63.5 148.574219 L 68.859375 127.671875 L 71.480469 119.082031 L 72 117.429688 L 73.339844 113.238281 "/>
<path style="fill:none;stroke-width:6;stroke-linecap:round;stroke-linejoin:round;stroke:rgb(100%,100%,100%);stroke-opacity:1;stroke-miterlimit:10;" d="M 108.898438 188.980469 L 112.128906 189.667969 L 120.480469 192.816406 L 125.257813 192.929688 "/>
<path style="fill:none;stroke-width:6;stroke-linecap:round;stroke-linejoin:round;stroke:rgb(100%,100%,100%);stroke-opacity:1;stroke-miterlimit:10;" d="M 125.257813 192.929688 L 125.101563 188.804688 L 124.351563 186.117188 L 122.984375 184.265625 L 121.511719 184.160156 L 118.992188 185.21875 L 115.777344 186.355469 L 111.183594 188.285156 L 108.898438 188.980469 "/>
<path style="fill:none;stroke-width:6;stroke-linecap:round;stroke-linejoin:round;stroke:rgb(100%,100%,100%);stroke-opacity:1;stroke-miterlimit:10;" d="M 108.898438 188.980469 L 105.953125 189.214844 L 104.082031 190.089844 L 102.449219 191.542969 L 99.976563 195.339844 L 89.894531 214.335938 "/>
<path style="fill:none;stroke-width:6;stroke-linecap:round;stroke-linejoin:round;stroke:rgb(100%,100%,100%);stroke-opacity:1;stroke-miterlimit:10;" d="M 125.257813 192.929688 L 137.136719 188.992188 L 138.992188 188.761719 L 140.542969 188.90625 L 144.242188 190.238281 L 159.363281 195.683594 L 162.621094 196.480469 L 169.792969 196.976563 L 172.609375 196.660156 L 175.105469 196.03125 L 185.84375 191.769531 "/>
<path style="fill:none;stroke-width:6;stroke-linecap:round;stroke-linejoin:round;stroke:rgb(100%,100%,100%);stroke-opacity:1;stroke-miterlimit:10;" d="M 164.460938 3.992188 L 163.371094 3.636719 L 156.363281 -1.738281 "/>
<path style="fill:none;stroke-width:6;stroke-linecap:round;stroke-linejoin:round;stroke:rgb(100%,100%,100%);stroke-opacity:1;stroke-miterlimit:10;" d="M 175.8125 -9 L 176.28125 -5.464844 L 176.027344 -2.816406 L 175.421875 -0.71875 L 174.5 0.8125 L 173.121094 2.773438 "/>
<path style="fill:none;stroke-width:6;stroke-linecap:round;stroke-linejoin:round;stroke:rgb(100%,100%,100%);stroke-opacity:1;stroke-miterlimit:10;" d="M 164.460938 3.992188 L 164.179688 5.773438 L 159.375 13.144531 L 157.28125 15.96875 L 154.96875 18.03125 "/>
<path style="fill:none;stroke-width:6;stroke-linecap:round;stroke-linejoin:round;stroke:rgb(100%,100%,100%);stroke-opacity:1;stroke-miterlimit:10;" d="M 134.714844 253.53125 L 132.347656 251.359375 L 130.988281 249.417969 L 128.539063 247.230469 L 125.4375 245.179688 L 119.761719 242.574219 L 117.46875 241.8125 "/>
<path style="fill:none;stroke-width:6;stroke-linecap:round;stroke-linejoin:round;stroke:rgb(100%,100%,100%);stroke-opacity:1;stroke-miterlimit:10;" d="M 33.261719 153.261719 L 36.746094 156.882813 L 55.316406 169.796875 "/>
<path style="fill:none;stroke-width:6;stroke-linecap:round;stroke-linejoin:round;stroke:rgb(100%,100%,100%);stroke-opacity:1;stroke-miterlimit:10;" d="M 126.023438 58.210938 L 125.304688 62.644531 L 116.539063 85.839844 "/>
<path style="fill:none;stroke-width:6;stroke-linecap:round;stroke-linejoin:round;stroke:rgb(100%,100%,100%);stroke-opacity:1;stroke-miterlimit:10;" d="M 50.089844 67.410156 L 37.59375 85.195313 L 37.125 86.355469 L 37.164063 87.472656 L 37.582031 88.574219 L 40.570313 91.148438 L 42.34375 92.953125 "/>
<path style="fill:none;stroke-width:6;stroke-linecap:round;stroke-linejoin:round;stroke:rgb(100%,100%,100%);stroke-opacity:1;stroke-miterlimit:10;" d="M -9 60.335938 L -0.558594 67.289063 L 12.230469 77.472656 "/>
<path style="fill:none;stroke-width:6;stroke-linecap:round;stroke-linejoin:round;stroke:rgb(100%,100%,100%);stroke-opacity:1;stroke-miterlimit:10;" d="M 87.691406 85.835938 L 122.148438 100.046875 "/>
<path style="fill:none;stroke-width:6;stroke-linecap:round;stroke-linejoin:round;stroke:rgb(100%,100%,100%);stroke-opacity:1;stroke-miterlimit:10;" d="M 42.34375 92.953125 L 71.480469 119.082031 "/>
<path style="fill:none;stroke-width:6;stroke-linecap:round;stroke-linejoin:round;stroke:rgb(100%,100%,100%);stroke-opacity:1;stroke-miterlimit:10;" d="M 33.261719 153.261719 L 23.332031 140.6875 L 22.25 138.980469 L 21.476563 136.324219 L 20.863281 134.023438 L 19.964844 126.738281 L 19.011719 123.6875 L 17.695313 120.910156 L 13.835938 115.726563 "/>
<path style="fill:none;stroke-width:6;stroke-linecap:round;stroke-linejoin:round;stroke:rgb(100%,100%,100%);stroke-opacity:1;stroke-miterlimit:10;" d="M 2.832031 179.761719 L -7.308594 198.476563 L -7.710938 200.40625 L -6.316406 201.566406 L 10.441406 210.84375 "/>
<path style="fill:none;stroke-width:6;stroke-linecap:round;stroke-linejoin:round;stroke:rgb(100%,100%,100%);stroke-opacity:1;stroke-miterlimit:10;" d="M 69.761719 255.167969 L 89.894531 214.335938 "/>
<path style="fill:none;stroke-width:6;stroke-linecap:round;stroke-linejoin:round;stroke:rgb(100%,100%,100%);stroke-opacity:1;stroke-miterlimit:10;" d="M 240.15625 249.578125 L 247.265625 254.496094 L 249.265625 256.929688 L 251.089844 258.015625 L 253.285156 258.109375 L 255.339844 257.257813 L 257.179688 255.742188 L 258.613281 253.113281 L 259.640625 248.703125 L 259.75 243.046875 L 259.40625 241.109375 L 259.054688 239.148438 L 258.308594 237.21875 L 255.242188 232.332031 "/>
<path style="fill:none;stroke-width:6;stroke-linecap:round;stroke-linejoin:round;stroke:rgb(100%,100%,100%);stroke-opacity:1;stroke-miterlimit:10;" d="M 69.761719 255.167969 L 51.914063 247.300781 L 25.496094 235.152344 "/>
<path style="fill:none;stroke-width:6;stroke-linecap:round;stroke-linejoin:round;stroke:rgb(100%,100%,100%);stroke-opacity:1;stroke-miterlimit:10;" d="M 124.917969 -9 L 136.84375 1.730469 "/>
<path style="fill:none;stroke-width:6;stroke-linecap:round;stroke-linejoin:round;stroke:rgb(100%,100%,100%);stroke-opacity:1;stroke-miterlimit:10;" d="M 33.261719 153.261719 L 27.691406 158.910156 L 25.964844 160.003906 L 24.675781 160.371094 L 21.050781 160.726563 L 17.492188 160.480469 L 14.839844 159.125 L 10.179688 154.71875 L -6.074219 138.609375 "/>
<path style="fill:none;stroke-width:6;stroke-linecap:round;stroke-linejoin:round;stroke:rgb(100%,100%,100%);stroke-opacity:1;stroke-miterlimit:10;" d="M 50.089844 67.410156 L 53.480469 66.433594 L 75.160156 56.472656 L 96.519531 67.085938 "/>
<path style="fill:none;stroke-width:6;stroke-linecap:round;stroke-linejoin:round;stroke:rgb(100%,100%,100%);stroke-opacity:1;stroke-miterlimit:10;" d="M 111.917969 262.140625 L 115.515625 258.601563 L 118.925781 256.191406 L 121.960938 254.757813 L 124.480469 254.152344 L 128.902344 253.410156 L 131.785156 253.445313 L 134.714844 253.53125 L 137.734375 254.46875 L 141.746094 256.1875 L 145.992188 258.332031 L 148.601563 260 L 150.464844 261.445313 L 151.800781 264 "/>
<path style="fill:none;stroke-width:6;stroke-linecap:round;stroke-linejoin:round;stroke:rgb(100%,100%,100%);stroke-opacity:1;stroke-miterlimit:10;" d="M 55.003906 -3.25 L 66.296875 4.25 L 68.585938 4.015625 L 69.597656 2.652344 L 70.183594 1.144531 L 69.960938 -0.582031 L 69.050781 -1.878906 L 62.292969 -6.980469 L 60.195313 -8.183594 L 58.351563 -8.953125 L 57.40625 -9 M 55.511719 -9 L 48.824219 -7.523438 L 55.003906 -3.25 "/>
<path style="fill:none;stroke-width:6;stroke-linecap:round;stroke-linejoin:round;stroke:rgb(100%,100%,100%);stroke-opacity:1;stroke-miterlimit:10;" d="M 37.046875 36.855469 L 46.074219 33.496094 L 54.007813 29.0625 L 56.382813 28.40625 L 57.601563 28.1875 L 59.398438 30.632813 L 60.65625 32.261719 L 62.828125 34.195313 L 64.710938 35.183594 L 65.953125 35.601563 L 67.679688 35.347656 L 79.964844 30.46875 L 84.523438 28.84375 "/>
<path style="fill:none;stroke-width:6;stroke-linecap:round;stroke-linejoin:round;stroke:rgb(100%,100%,100%);stroke-opacity:1;stroke-miterlimit:10;" d="M -9 142.152344 L -6.074219 138.609375 L 8.789063 121.214844 L 13.835938 115.726563 L 19.425781 111.191406 L 21.691406 108.757813 L 23.246094 107.980469 L 24.417969 107.730469 "/>
<path style="fill:none;stroke-width:6;stroke-linecap:round;stroke-linejoin:round;stroke:rgb(100%,100%,100%);stroke-opacity:1;stroke-miterlimit:10;" d="M 33.261719 153.261719 L 39.0625 144.792969 L 42.648438 137.347656 L 44.078125 132.976563 L 44.851563 129.132813 L 44.730469 126.40625 L 44.21875 124.097656 L 43.03125 122.578125 L 41.679688 121.128906 L 28.839844 109.488281 L 27.273438 108.152344 L 25.878906 107.660156 L 24.417969 107.730469 "/>
<path style="fill:none;stroke-width:6;stroke-linecap:round;stroke-linejoin:round;stroke:rgb(100%,100%,100%);stroke-opacity:1;stroke-miterlimit:10;" d="M 204.914063 -6.117188 L 203.984375 -4.226563 L 202.425781 -2.84375 L 192.960938 3.027344 L 189.558594 6.21875 L 188.316406 7.734375 L 183.410156 14.578125 L 181.902344 15.96875 L 180.730469 16.292969 L 178.5 16.496094 L 176.609375 16.132813 L 175.367188 15.371094 L 174.21875 13.945313 L 173.710938 11.996094 L 173.742188 9.707031 L 173.953125 4.371094 L 173.554688 3.195313 L 172.226563 1.90625 L 170.792969 1.464844 L 169.363281 1.417969 L 167.703125 1.730469 L 166.179688 2.753906 L 164.460938 3.992188 "/>
<path style="fill:none;stroke-width:6;stroke-linecap:round;stroke-linejoin:round;stroke:rgb(100%,100%,100%);stroke-opacity:1;stroke-miterlimit:10;" d="M 40.304688 201.546875 L 30.71875 198.445313 L 25.539063 196.4375 L 21.542969 194.230469 L 12.761719 188.265625 L 2.832031 179.761719 L -9 167.523438 "/>
<path style="fill:none;stroke-width:6;stroke-linecap:round;stroke-linejoin:round;stroke:rgb(100%,100%,100%);stroke-opacity:1;stroke-miterlimit:10;" d="M 89.894531 214.335938 L 71.992188 206.191406 L 70.277344 205.589844 L 68.996094 205.789063 L 67.539063 207.492188 L 60.761719 222.707031 L 58.117188 229.921875 L 54.839844 239.777344 L 51.914063 247.300781 "/>
<path style="fill:none;stroke-width:6;stroke-linecap:round;stroke-linejoin:round;stroke:rgb(100%,100%,100%);stroke-opacity:1;stroke-miterlimit:10;" d="M 22.039063 242.753906 L -9 225.34375 "/>
<path style="fill:none;stroke-width:6;stroke-linecap:round;stroke-linejoin:round;stroke:rgb(100%,100%,100%);stroke-opacity:1;stroke-miterlimit:10;" d="M 98.003906 64.195313 L 102.570313 63.730469 L 115.855469 58.796875 L 119.175781 57.835938 L 121.65625 57.484375 L 124.558594 58.042969 L 126.023438 58.210938 L 127.5 57.066406 L 130.289063 51.757813 L 134.703125 45.3125 L 140.136719 38.683594 L 144.484375 32.921875 L 145.703125 29.679688 L 147.40625 24.3125 L 149.164063 19.292969 "/>
<path style="fill:none;stroke-width:6;stroke-linecap:round;stroke-linejoin:round;stroke:rgb(100%,100%,100%);stroke-opacity:1;stroke-miterlimit:10;" d="M -9 53.039063 L -5.847656 49.824219 L 9.984375 29.460938 L 20.773438 15.054688 "/>
<path style="fill:none;stroke-width:6;stroke-linecap:round;stroke-linejoin:round;stroke:rgb(100%,100%,100%);stroke-opacity:1;stroke-miterlimit:10;" d="M 264 204.921875 L 259.480469 200.660156 L 229.566406 173.53125 L 207.699219 154.664063 L 196.980469 143.679688 L 190.863281 137.777344 L 186.359375 134.214844 L 180.011719 129.972656 L 176.71875 127.84375 "/>
<path style="fill:none;stroke-width:6;stroke-linecap:round;stroke-linejoin:round;stroke:rgb(100%,100%,100%);stroke-opacity:1;stroke-miterlimit:10;" d="M 264 218.820313 L 255.242188 232.332031 L 249.894531 239.898438 L 247.285156 242.890625 L 244.902344 244.703125 L 242.378906 246.628906 L 240.832031 248.515625 L 240.15625 249.578125 L 238.222656 253.855469 L 234.15625 264 "/>
<path style="fill:none;stroke-width:6;stroke-linecap:round;stroke-linejoin:round;stroke:rgb(100%,100%,100%);stroke-opacity:1;stroke-miterlimit:10;" d="M -9 104.269531 L 2.078125 90.816406 L 11.105469 79.082031 L 12.230469 77.472656 L 20.148438 67.691406 L 28.972656 56.496094 "/>
<path style="fill:none;stroke-width:6;stroke-linecap:round;stroke-linejoin:round;stroke:rgb(100%,100%,100%);stroke-opacity:1;stroke-miterlimit:10;" d="M 110.972656 264 L 111.917969 262.140625 L 113.691406 256.632813 L 115.207031 248.925781 L 116.421875 245.09375 L 117.46875 241.8125 L 120.125 235.988281 L 123.109375 228.847656 "/>
<path style="fill:none;stroke-width:6;stroke-linecap:round;stroke-linejoin:round;stroke:rgb(100%,100%,100%);stroke-opacity:1;stroke-miterlimit:10;" d="M 176.71875 127.84375 L 178.886719 126.210938 L 192.082031 124.296875 L 199.585938 122.386719 L 207.902344 120.257813 L 216.617188 117.851563 L 221.488281 117.234375 L 227.453125 117.636719 L 232.648438 119.519531 L 242.414063 124.082031 L 253.015625 127.691406 L 260.097656 130.128906 L 262.453125 131.363281 L 264 132.449219 "/>
<path style="fill:none;stroke-width:6;stroke-linecap:round;stroke-linejoin:round;stroke:rgb(100%,99.215686%,54.509804%);stroke-opacity:1;stroke-miterlimit:10;" d="M 81.339844 97.542969 L 84.273438 100.242188 L 101.316406 109.890625 L 103.851563 111.003906 L 106.144531 111.390625 L 108.1875 111.339844 L 111.484375 109.464844 L 122.148438 100.046875 L 127.976563 94.835938 L 131.5 91.550781 L 134.089844 90.40625 L 136.53125 89.628906 L 139.90625 89.539063 L 142.820313 89.859375 L 145.9375 90.839844 L 148.597656 92.191406 L 151.769531 94.84375 L 153.863281 97.335938 L 156.277344 102.140625 L 161.859375 112.960938 L 164.496094 118.097656 L 166.332031 121.339844 L 167.722656 122.714844 L 169.023438 123.851563 L 170.820313 124.789063 L 173.722656 126.140625 L 176.71875 127.84375 "/>
<path style="fill:none;stroke-width:7;stroke-linecap:round;stroke-linejoin:round;stroke:rgb(100%,99.215686%,54.509804%);stroke-opacity:1;stroke-miterlimit:10;" d="M 71.894531 90 L 77.964844 94.4375 L 81.339844 97.542969 "/>
<path style="fill:none;stroke-width:7;stroke-linecap:round;stroke-linejoin:round;stroke:rgb(100%,99.215686%,54.509804%);stroke-opacity:1;stroke-miterlimit:10;" d="M -10 1.941406 L -3.136719 5.632813 L 5.164063 8.359375 L 9.839844 9.9375 L 14.546875 11.796875 L 20.773438 15.054688 L 24.585938 18.023438 L 27.90625 21.207031 L 30.8125 24.828125 L 33.566406 28.980469 L 35.882813 33.292969 L 37.046875 36.855469 L 38.46875 43.609375 L 39.5625 47.238281 L 41.546875 51.511719 L 50.089844 67.410156 L 54.71875 75.796875 L 57.613281 79.449219 L 60.519531 82.320313 L 64.191406 85.300781 L 66.378906 86.738281 L 68.621094 87.753906 L 71.894531 90 "/>
<path style="fill:none;stroke-width:8;stroke-linecap:round;stroke-linejoin:round;stroke:rgb(100%,99.215686%,54.509804%);stroke-opacity:1;stroke-miterlimit:10;" d="M 88.191406 84.800781 L 87.691406 85.835938 L 83.589844 93.957031 L 81.339844 97.542969 "/>
<path style="fill:none;stroke-width:8;stroke-linecap:round;stroke-linejoin:round;stroke:rgb(100%,99.215686%,54.509804%);stroke-opacity:1;stroke-miterlimit:10;" d="M 81.339844 97.542969 L 79.496094 100.496094 L 76.898438 105.523438 L 73.339844 113.238281 "/>
<path style="fill:none;stroke-width:8;stroke-linecap:round;stroke-linejoin:round;stroke:rgb(100%,99.215686%,54.509804%);stroke-opacity:1;stroke-miterlimit:10;" d="M 146.535156 -11 L 144.21875 -7.636719 L 136.84375 1.730469 L 132.835938 6.855469 L 126.199219 15.53125 L 122.996094 20.035156 L 118.277344 27.054688 L 112.578125 36.207031 L 109.730469 41.164063 L 106.609375 47.039063 L 98.003906 64.195313 L 96.519531 67.085938 L 88.191406 84.800781 "/>
<path style="fill:none;stroke-width:8;stroke-linecap:round;stroke-linejoin:round;stroke:rgb(100%,99.215686%,54.509804%);stroke-opacity:1;stroke-miterlimit:10;" d="M 11.847656 266 L 16.128906 256.3125 L 22.039063 242.753906 L 25.496094 235.152344 L 40.304688 201.546875 L 47.78125 184.769531 L 54.144531 172.046875 L 55.316406 169.796875 L 57.121094 166.054688 L 59.359375 161.425781 L 61.820313 154.636719 L 63.5 148.574219 L 68.859375 127.671875 L 71.480469 119.082031 L 72 117.429688 L 73.339844 113.238281 "/>
<path style="fill:none;stroke-width:3;stroke-linecap:round;stroke-linejoin:round;stroke:rgb(100%,100%,100%);stroke-opacity:1;stroke-miterlimit:10;" d="M 27.242188 232.019531 L 30.164063 233.316406 L 30.851563 231.753906 C 31.078125 231.222656 31.125 230.78125 30.992188 230.425781 C 30.867188 230.0625 30.554688 229.769531 30.054688 229.550781 C 29.554688 229.332031 29.132813 229.296875 28.789063 229.441406 C 28.445313 229.589844 28.160156 229.925781 27.929688 230.457031 Z M 23.929688 230.566406 L 26.351563 231.628906 L 26.992188 230.175781 C 27.203125 229.699219 27.257813 229.300781 27.164063 228.988281 C 27.070313 228.667969 26.820313 228.417969 26.414063 228.238281 C 26.007813 228.0625 25.65625 228.046875 25.351563 228.191406 C 25.039063 228.328125 24.78125 228.636719 24.570313 229.113281 Z M 22.617188 231.144531 L 23.726563 228.660156 C 24.050781 227.910156 24.472656 227.410156 24.992188 227.160156 C 25.503906 226.910156 26.078125 226.925781 26.710938 227.207031 C 27.203125 227.425781 27.550781 227.703125 27.757813 228.035156 C 27.957031 228.371094 28.003906 228.75 27.898438 229.175781 C 28.222656 228.738281 28.625 228.472656 29.101563 228.378906 C 29.570313 228.277344 30.078125 228.34375 30.617188 228.582031 C 31.335938 228.894531 31.792969 229.359375 31.992188 229.972656 C 32.1875 230.578125 32.109375 231.28125 31.757813 232.082031 L 30.617188 234.675781 Z M 29.199219 223.492188 C 28.992188 223.972656 29.035156 224.441406 29.324219 224.898438 C 29.617188 225.359375 30.121094 225.742188 30.839844 226.054688 C 31.558594 226.378906 32.183594 226.5 32.714844 226.414063 C 33.246094 226.320313 33.613281 226.03125 33.824219 225.539063 C 34.03125 225.070313 33.988281 224.609375 33.699219 224.148438 C 33.40625 223.691406 32.910156 223.300781 32.199219 222.976563 C 31.492188 222.664063 30.867188 222.554688 30.324219 222.648438 C 29.785156 222.742188 29.410156 223.023438 29.199219 223.492188 Z M 28.371094 223.132813 C 28.714844 222.363281 29.261719 221.882813 30.011719 221.695313 C 30.761719 221.5 31.628906 221.613281 32.605469 222.039063 C 33.582031 222.476563 34.253906 223.039063 34.621094 223.726563 C 34.996094 224.40625 35.011719 225.128906 34.667969 225.898438 C 34.324219 226.679688 33.777344 227.171875 33.027344 227.367188 C 32.269531 227.554688 31.398438 227.429688 30.417969 226.992188 C 29.441406 226.566406 28.769531 226.015625 28.402344 225.335938 C 28.039063 224.648438 28.027344 223.914063 28.371094 223.132813 Z M 31.941406 215.867188 L 32.878906 216.289063 C 32.628906 216.476563 32.410156 216.691406 32.222656 216.929688 C 32.035156 217.171875 31.878906 217.429688 31.753906 217.710938 C 31.558594 218.148438 31.484375 218.515625 31.535156 218.804688 C 31.578125 219.085938 31.75 219.296875 32.050781 219.429688 C 32.28125 219.535156 32.5 219.535156 32.707031 219.429688 C 32.90625 219.328125 33.167969 219.070313 33.488281 218.664063 L 33.691406 218.382813 C 34.121094 217.8125 34.53125 217.457031 34.925781 217.320313 C 35.3125 217.1875 35.75 217.222656 36.238281 217.429688 C 36.800781 217.679688 37.152344 218.078125 37.300781 218.617188 C 37.457031 219.148438 37.382813 219.757813 37.082031 220.445313 C 36.945313 220.738281 36.777344 221.03125 36.582031 221.320313 C 36.382813 221.601563 36.144531 221.890625 35.863281 222.179688 L 34.832031 221.726563 C 35.175781 221.488281 35.46875 221.234375 35.707031 220.960938 C 35.933594 220.679688 36.117188 220.390625 36.253906 220.085938 C 36.441406 219.660156 36.503906 219.300781 36.441406 219.007813 C 36.386719 218.707031 36.210938 218.488281 35.910156 218.351563 C 35.652344 218.238281 35.410156 218.234375 35.191406 218.335938 C 34.972656 218.441406 34.683594 218.738281 34.316406 219.226563 L 34.097656 219.507813 C 33.722656 220 33.347656 220.304688 32.972656 220.429688 C 32.597656 220.554688 32.183594 220.519531 31.722656 220.320313 C 31.152344 220.0625 30.796875 219.6875 30.660156 219.195313 C 30.515625 218.707031 30.589844 218.132813 30.878906 217.476563 C 31.027344 217.144531 31.1875 216.84375 31.363281 216.570313 C 31.542969 216.300781 31.734375 216.066406 31.941406 215.867188 Z M 31.210938 212.46875 L 32.914063 213.21875 L 33.726563 211.390625 L 34.492188 211.71875 L 33.679688 213.546875 L 36.945313 214.984375 C 37.425781 215.203125 37.765625 215.289063 37.960938 215.234375 C 38.148438 215.171875 38.324219 214.953125 38.492188 214.578125 L 38.898438 213.671875 L 39.726563 214.03125 L 39.320313 214.9375 C 39.015625 215.625 38.664063 216.039063 38.257813 216.171875 C 37.863281 216.308594 37.296875 216.210938 36.554688 215.875 L 33.289063 214.4375 L 33.007813 215.09375 L 32.242188 214.765625 L 32.523438 214.109375 L 30.820313 213.359375 Z M 35.839844 208.425781 C 35.632813 208.90625 35.675781 209.375 35.964844 209.832031 C 36.257813 210.292969 36.761719 210.675781 37.480469 210.988281 C 38.199219 211.3125 38.824219 211.433594 39.355469 211.347656 C 39.886719 211.253906 40.253906 210.964844 40.464844 210.472656 C 40.671875 210.003906 40.628906 209.542969 40.339844 209.082031 C 40.046875 208.625 39.550781 208.234375 38.839844 207.910156 C 38.132813 207.597656 37.507813 207.488281 36.964844 207.582031 C 36.425781 207.675781 36.050781 207.957031 35.839844 208.425781 Z M 35.011719 208.066406 C 35.355469 207.296875 35.902344 206.816406 36.652344 206.628906 C 37.402344 206.433594 38.269531 206.546875 39.246094 206.972656 C 40.222656 207.410156 40.894531 207.972656 41.261719 208.660156 C 41.636719 209.339844 41.652344 210.0625 41.308594 210.832031 C 40.964844 211.613281 40.417969 212.105469 39.667969 212.300781 C 38.910156 212.488281 38.039063 212.363281 37.058594 211.925781 C 36.082031 211.5 35.410156 210.949219 35.042969 210.269531 C 34.679688 209.582031 34.667969 208.847656 35.011719 208.066406 Z M 41.269531 200.707031 L 44.894531 202.316406 L 44.488281 203.222656 L 40.894531 201.644531 C 40.332031 201.386719 39.871094 201.292969 39.503906 201.363281 C 39.128906 201.4375 38.859375 201.671875 38.691406 202.066406 C 38.472656 202.558594 38.472656 203.015625 38.691406 203.441406 C 38.910156 203.871094 39.3125 204.214844 39.894531 204.472656 L 43.285156 205.972656 L 42.878906 206.847656 L 36.878906 204.191406 L 37.285156 203.316406 L 38.207031 203.722656 C 37.9375 203.359375 37.78125 202.996094 37.738281 202.628906 C 37.6875 202.253906 37.746094 201.875 37.910156 201.488281 C 38.183594 200.886719 38.605469 200.515625 39.175781 200.378906 C 39.738281 200.234375 40.4375 200.34375 41.269531 200.707031 Z M 40.390625 193.273438 L 43.40625 194.617188 L 43.953125 193.382813 C 44.152344 192.9375 44.179688 192.535156 44.03125 192.179688 C 43.886719 191.816406 43.570313 191.523438 43.078125 191.304688 C 42.601563 191.097656 42.171875 191.054688 41.796875 191.179688 C 41.421875 191.304688 41.136719 191.59375 40.9375 192.039063 Z M 39.078125 193.851563 L 40.046875 191.648438 C 40.414063 190.847656 40.890625 190.332031 41.484375 190.101563 C 42.070313 189.875 42.75 189.929688 43.53125 190.273438 C 44.324219 190.628906 44.828125 191.101563 45.046875 191.695313 C 45.265625 192.28125 45.195313 192.972656 44.828125 193.773438 L 44.28125 195.007813 L 47.5 196.445313 L 47.078125 197.414063 Z M 45.335938 187.03125 C 45.117188 187.511719 45.15625 187.984375 45.445313 188.453125 C 45.738281 188.914063 46.238281 189.296875 46.945313 189.609375 C 47.675781 189.933594 48.304688 190.054688 48.835938 189.96875 C 49.367188 189.875 49.742188 189.585938 49.960938 189.09375 C 50.167969 188.636719 50.125 188.179688 49.835938 187.71875 C 49.542969 187.261719 49.039063 186.871094 48.320313 186.546875 C 47.625 186.234375 47.003906 186.125 46.460938 186.21875 C 45.921875 186.304688 45.546875 186.574219 45.335938 187.03125 Z M 44.507813 186.65625 C 44.851563 185.898438 45.398438 185.421875 46.148438 185.234375 C 46.898438 185.046875 47.765625 185.171875 48.742188 185.609375 C 49.71875 186.046875 50.390625 186.609375 50.757813 187.296875 C 51.132813 187.984375 51.148438 188.710938 50.804688 189.46875 C 50.449219 190.25 49.898438 190.734375 49.148438 190.921875 C 48.390625 191.109375 47.519531 190.984375 46.539063 190.546875 C 45.5625 190.109375 44.890625 189.546875 44.523438 188.859375 C 44.160156 188.171875 44.15625 187.4375 44.507813 186.65625 Z M 48.34375 179.4375 L 49.265625 179.90625 C 49.007813 180.085938 48.777344 180.292969 48.578125 180.53125 C 48.371094 180.761719 48.195313 181.011719 48.046875 181.28125 C 47.839844 181.71875 47.757813 182.085938 47.796875 182.375 C 47.828125 182.65625 47.996094 182.875 48.296875 183.03125 C 48.515625 183.148438 48.730469 183.15625 48.9375 183.0625 C 49.136719 182.960938 49.40625 182.703125 49.75 182.296875 L 49.96875 182.0625 C 50.429688 181.5 50.859375 181.15625 51.265625 181.03125 C 51.664063 180.90625 52.09375 180.964844 52.5625 181.203125 C 53.113281 181.484375 53.453125 181.902344 53.578125 182.453125 C 53.703125 182.996094 53.59375 183.605469 53.25 184.28125 C 53.113281 184.5625 52.9375 184.84375 52.71875 185.125 C 52.5 185.398438 52.25 185.667969 51.96875 185.9375 L 50.953125 185.4375 C 51.296875 185.21875 51.59375 184.980469 51.84375 184.71875 C 52.09375 184.449219 52.289063 184.164063 52.4375 183.859375 C 52.644531 183.453125 52.726563 183.101563 52.6875 182.796875 C 52.644531 182.496094 52.484375 182.273438 52.203125 182.125 C 51.941406 182 51.703125 181.984375 51.484375 182.078125 C 51.257813 182.164063 50.9375 182.4375 50.53125 182.90625 L 50.328125 183.1875 C 49.921875 183.65625 49.53125 183.949219 49.15625 184.0625 C 48.773438 184.167969 48.355469 184.105469 47.90625 183.875 C 47.355469 183.59375 47.015625 183.203125 46.890625 182.703125 C 46.765625 182.203125 46.867188 181.636719 47.1875 181 C 47.34375 180.667969 47.523438 180.375 47.71875 180.125 C 47.917969 179.867188 48.125 179.636719 48.34375 179.4375 Z M 47.78125 176 L 49.4375 176.828125 L 50.328125 175.046875 L 51.09375 175.421875 L 50.203125 177.203125 L 53.390625 178.796875 C 53.859375 179.039063 54.195313 179.136719 54.390625 179.09375 C 54.578125 179.042969 54.757813 178.835938 54.9375 178.46875 L 55.390625 177.578125 L 56.203125 177.984375 L 55.75 178.875 C 55.414063 179.554688 55.046875 179.949219 54.640625 180.0625 C 54.234375 180.179688 53.671875 180.054688 52.953125 179.6875 L 49.765625 178.09375 L 49.4375 178.71875 L 48.671875 178.34375 L 49 177.71875 L 47.34375 176.890625 Z M 56.320313 168.566406 C 56.5 168.402344 56.765625 168.285156 57.117188 168.222656 C 57.460938 168.160156 57.898438 168.140625 58.429688 168.160156 L 61.054688 168.238281 L 60.539063 169.269531 L 58.085938 169.175781 C 57.453125 169.144531 56.992188 169.199219 56.710938 169.332031 C 56.429688 169.457031 56.195313 169.714844 56.007813 170.097656 L 55.492188 171.128906 L 58.804688 172.785156 L 58.320313 173.738281 L 50.492188 169.847656 L 51.570313 167.691406 C 51.96875 166.890625 52.453125 166.386719 53.023438 166.175781 C 53.585938 165.957031 54.25 166.035156 55.007813 166.410156 C 55.5 166.660156 55.859375 166.972656 56.085938 167.347656 C 56.304688 167.714844 56.382813 168.121094 56.320313 168.566406 Z M 51.835938 169.316406 L 54.617188 170.707031 L 55.210938 169.503906 C 55.441406 169.046875 55.5 168.644531 55.382813 168.300781 C 55.257813 167.949219 54.96875 167.65625 54.507813 167.425781 C 54.050781 167.207031 53.648438 167.15625 53.304688 167.269531 C 52.953125 167.375 52.660156 167.65625 52.429688 168.113281 Z M 57.339844 162.410156 C 57.121094 162.878906 57.160156 163.347656 57.449219 163.816406 C 57.730469 164.277344 58.230469 164.667969 58.949219 164.988281 C 59.667969 165.324219 60.292969 165.449219 60.824219 165.363281 C 61.34375 165.269531 61.71875 164.984375 61.949219 164.503906 C 62.15625 164.035156 62.113281 163.574219 61.824219 163.113281 C 61.542969 162.644531 61.050781 162.25 60.339844 161.925781 C 59.632813 161.613281 59.007813 161.5 58.464844 161.582031 C 57.925781 161.667969 57.550781 161.941406 57.339844 162.410156 Z M 56.511719 162.035156 C 56.855469 161.265625 57.410156 160.792969 58.167969 160.613281 C 58.917969 160.425781 59.785156 160.550781 60.761719 160.988281 C 61.738281 161.4375 62.40625 162.011719 62.761719 162.707031 C 63.125 163.394531 63.136719 164.125 62.792969 164.894531 C 62.4375 165.675781 61.886719 166.15625 61.136719 166.332031 C 60.378906 166.511719 59.507813 166.375 58.527344 165.925781 C 57.550781 165.488281 56.882813 164.925781 56.527344 164.238281 C 56.164063 163.550781 56.160156 162.816406 56.511719 162.035156 Z M 62.246094 156.851563 C 61.996094 157.59375 61.914063 158.140625 61.996094 158.492188 C 62.082031 158.847656 62.347656 159.101563 62.792969 159.257813 C 63.160156 159.382813 63.488281 159.378906 63.777344 159.242188 C 64.070313 159.097656 64.277344 158.835938 64.402344 158.460938 C 64.578125 157.960938 64.519531 157.492188 64.230469 157.054688 C 63.941406 156.609375 63.460938 156.265625 62.792969 156.023438 L 62.574219 155.945313 Z M 62.449219 154.882813 L 65.996094 156.117188 L 65.683594 157.039063 L 64.746094 156.710938 C 65.035156 157.046875 65.21875 157.40625 65.292969 157.789063 C 65.363281 158.164063 65.324219 158.578125 65.167969 159.023438 C 64.957031 159.597656 64.613281 159.988281 64.136719 160.195313 C 63.667969 160.40625 63.144531 160.40625 62.558594 160.195313 C 61.863281 159.945313 61.410156 159.550781 61.199219 159.007813 C 60.992188 158.46875 61.035156 157.78125 61.324219 156.945313 L 61.777344 155.664063 L 61.667969 155.632813 C 61.199219 155.46875 60.789063 155.484375 60.433594 155.679688 C 60.082031 155.867188 59.816406 156.210938 59.636719 156.710938 C 59.535156 157.023438 59.472656 157.347656 59.449219 157.679688 C 59.429688 158.015625 59.457031 158.351563 59.527344 158.695313 L 58.589844 158.351563 C 58.550781 157.96875 58.550781 157.609375 58.589844 157.273438 C 58.632813 156.929688 58.707031 156.609375 58.808594 156.304688 C 59.101563 155.503906 59.550781 154.984375 60.152344 154.742188 C 60.746094 154.503906 61.511719 154.550781 62.449219 154.882813 Z M 62.351563 148.703125 L 58.914063 147.765625 L 59.164063 146.828125 L 67.960938 149.234375 L 67.710938 150.171875 L 66.757813 149.90625 C 67.070313 150.210938 67.277344 150.539063 67.382813 150.890625 C 67.496094 151.234375 67.496094 151.621094 67.382813 152.046875 C 67.195313 152.734375 66.734375 153.214844 66.007813 153.484375 C 65.269531 153.746094 64.398438 153.742188 63.398438 153.46875 C 62.410156 153.199219 61.671875 152.765625 61.179688 152.171875 C 60.691406 151.570313 60.539063 150.921875 60.726563 150.234375 C 60.84375 149.808594 61.03125 149.46875 61.289063 149.21875 C 61.550781 148.96875 61.90625 148.796875 62.351563 148.703125 Z M 63.664063 152.515625 C 64.4375 152.726563 65.082031 152.746094 65.601563 152.578125 C 66.113281 152.414063 66.433594 152.078125 66.570313 151.578125 C 66.703125 151.089844 66.59375 150.640625 66.242188 150.234375 C 65.878906 149.828125 65.3125 149.523438 64.539063 149.3125 C 63.78125 149.105469 63.144531 149.085938 62.632813 149.25 C 62.125 149.417969 61.800781 149.746094 61.664063 150.234375 C 61.53125 150.734375 61.640625 151.1875 61.992188 151.59375 C 62.347656 152 62.90625 152.308594 63.664063 152.515625 Z M 63.664063 152.515625 "/>
<path style=" stroke:none;fill-rule:evenodd;fill:rgb(20%,20%,20%);fill-opacity:1;" d="M 27.242188 232.019531 L 30.164063 233.316406 L 30.851563 231.753906 C 31.078125 231.222656 31.125 230.78125 30.992188 230.425781 C 30.867188 230.0625 30.554688 229.769531 30.054688 229.550781 C 29.554688 229.332031 29.132813 229.296875 28.789063 229.441406 C 28.445313 229.589844 28.160156 229.925781 27.929688 230.457031 Z M 23.929688 230.566406 L 26.351563 231.628906 L 26.992188 230.175781 C 27.203125 229.699219 27.257813 229.300781 27.164063 228.988281 C 27.070313 228.667969 26.820313 228.417969 26.414063 228.238281 C 26.007813 228.0625 25.65625 228.046875 25.351563 228.191406 C 25.039063 228.328125 24.78125 228.636719 24.570313 229.113281 Z M 22.617188 231.144531 L 23.726563 228.660156 C 24.050781 227.910156 24.472656 227.410156 24.992188 227.160156 C 25.503906 226.910156 26.078125 226.925781 26.710938 227.207031 C 27.203125 227.425781 27.550781 227.703125 27.757813 228.035156 C 27.957031 228.371094 28.003906 228.75 27.898438 229.175781 C 28.222656 228.738281 28.625 228.472656 29.101563 228.378906 C 29.570313 228.277344 30.078125 228.34375 30.617188 228.582031 C 31.335938 228.894531 31.792969 229.359375 31.992188 229.972656 C 32.1875 230.578125 32.109375 231.28125 31.757813 232.082031 L 30.617188 234.675781 Z M 29.199219 223.492188 C 28.992188 223.972656 29.035156 224.441406 29.324219 224.898438 C 29.617188 225.359375 30.121094 225.742188 30.839844 226.054688 C 31.558594 226.378906 32.183594 226.5 32.714844 226.414063 C 33.246094 226.320313 33.613281 226.03125 33.824219 225.539063 C 34.03125 225.070313 33.988281 224.609375 33.699219 224.148438 C 33.40625 223.691406 32.910156 223.300781 32.199219 222.976563 C 31.492188 222.664063 30.867188 222.554688 30.324219 222.648438 C 29.785156 222.742188 29.410156 223.023438 29.199219 223.492188 Z M 28.371094 223.132813 C 28.714844 222.363281 29.261719 221.882813 30.011719 221.695313 C 30.761719 221.5 31.628906 221.613281 32.605469 222.039063 C 33.582031 222.476563 34.253906 223.039063 34.621094 223.726563 C 34.996094 224.40625 35.011719 225.128906 34.667969 225.898438 C 34.324219 226.679688 33.777344 227.171875 33.027344 227.367188 C 32.269531 227.554688 31.398438 227.429688 30.417969 226.992188 C 29.441406 226.566406 28.769531 226.015625 28.402344 225.335938 C 28.039063 224.648438 28.027344 223.914063 28.371094 223.132813 Z M 31.941406 215.867188 L 32.878906 216.289063 C 32.628906 216.476563 32.410156 216.691406 32.222656 216.929688 C 32.035156 217.171875 31.878906 217.429688 31.753906 217.710938 C 31.558594 218.148438 31.484375 218.515625 31.535156 218.804688 C 31.578125 219.085938 31.75 219.296875 32.050781 219.429688 C 32.28125 219.535156 32.5 219.535156 32.707031 219.429688 C 32.90625 219.328125 33.167969 219.070313 33.488281 218.664063 L 33.691406 218.382813 C 34.121094 217.8125 34.53125 217.457031 34.925781 217.320313 C 35.3125 217.1875 35.75 217.222656 36.238281 217.429688 C 36.800781 217.679688 37.152344 218.078125 37.300781 218.617188 C 37.457031 219.148438 37.382813 219.757813 37.082031 220.445313 C 36.945313 220.738281 36.777344 221.03125 36.582031 221.320313 C 36.382813 221.601563 36.144531 221.890625 35.863281 222.179688 L 34.832031 221.726563 C 35.175781 221.488281 35.46875 221.234375 35.707031 220.960938 C 35.933594 220.679688 36.117188 220.390625 36.253906 220.085938 C 36.441406 219.660156 36.503906 219.300781 36.441406 219.007813 C 36.386719 218.707031 36.210938 218.488281 35.910156 218.351563 C 35.652344 218.238281 35.410156 218.234375 35.191406 218.335938 C 34.972656 218.441406 34.683594 218.738281 34.316406 219.226563 L 34.097656 219.507813 C 33.722656 220 33.347656 220.304688 32.972656 220.429688 C 32.597656 220.554688 32.183594 220.519531 31.722656 220.320313 C 31.152344 220.0625 30.796875 219.6875 30.660156 219.195313 C 30.515625 218.707031 30.589844 218.132813 30.878906 217.476563 C 31.027344 217.144531 31.1875 216.84375 31.363281 216.570313 C 31.542969 216.300781 31.734375 216.066406 31.941406 215.867188 Z M 31.210938 212.46875 L 32.914063 213.21875 L 33.726563 211.390625 L 34.492188 211.71875 L 33.679688 213.546875 L 36.945313 214.984375 C 37.425781 215.203125 37.765625 215.289063 37.960938 215.234375 C 38.148438 215.171875 38.324219 214.953125 38.492188 214.578125 L 38.898438 213.671875 L 39.726563 214.03125 L 39.320313 214.9375 C 39.015625 215.625 38.664063 216.039063 38.257813 216.171875 C 37.863281 216.308594 37.296875 216.210938 36.554688 215.875 L 33.289063 214.4375 L 33.007813 215.09375 L 32.242188 214.765625 L 32.523438 214.109375 L 30.820313 213.359375 Z M 35.839844 208.425781 C 35.632813 208.90625 35.675781 209.375 35.964844 209.832031 C 36.257813 210.292969 36.761719 210.675781 37.480469 210.988281 C 38.199219 211.3125 38.824219 211.433594 39.355469 211.347656 C 39.886719 211.253906 40.253906 210.964844 40.464844 210.472656 C 40.671875 210.003906 40.628906 209.542969 40.339844 209.082031 C 40.046875 208.625 39.550781 208.234375 38.839844 207.910156 C 38.132813 207.597656 37.507813 207.488281 36.964844 207.582031 C 36.425781 207.675781 36.050781 207.957031 35.839844 208.425781 Z M 35.011719 208.066406 C 35.355469 207.296875 35.902344 206.816406 36.652344 206.628906 C 37.402344 206.433594 38.269531 206.546875 39.246094 206.972656 C 40.222656 207.410156 40.894531 207.972656 41.261719 208.660156 C 41.636719 209.339844 41.652344 210.0625 41.308594 210.832031 C 40.964844 211.613281 40.417969 212.105469 39.667969 212.300781 C 38.910156 212.488281 38.039063 212.363281 37.058594 211.925781 C 36.082031 211.5 35.410156 210.949219 35.042969 210.269531 C 34.679688 209.582031 34.667969 208.847656 35.011719 208.066406 Z M 41.269531 200.707031 L 44.894531 202.316406 L 44.488281 203.222656 L 40.894531 201.644531 C 40.332031 201.386719 39.871094 201.292969 39.503906 201.363281 C 39.128906 201.4375 38.859375 201.671875 38.691406 202.066406 C 38.472656 202.558594 38.472656 203.015625 38.691406 203.441406 C 38.910156 203.871094 39.3125 204.214844 39.894531 204.472656 L 43.285156 205.972656 L 42.878906 206.847656 L 36.878906 204.191406 L 37.285156 203.316406 L 38.207031 203.722656 C 37.9375 203.359375 37.78125 202.996094 37.738281 202.628906 C 37.6875 202.253906 37.746094 201.875 37.910156 201.488281 C 38.183594 200.886719 38.605469 200.515625 39.175781 200.378906 C 39.738281 200.234375 40.4375 200.34375 41.269531 200.707031 Z M 40.390625 193.273438 L 43.40625 194.617188 L 43.953125 193.382813 C 44.152344 192.9375 44.179688 192.535156 44.03125 192.179688 C 43.886719 191.816406 43.570313 191.523438 43.078125 191.304688 C 42.601563 191.097656 42.171875 191.054688 41.796875 191.179688 C 41.421875 191.304688 41.136719 191.59375 40.9375 192.039063 Z M 39.078125 193.851563 L 40.046875 191.648438 C 40.414063 190.847656 40.890625 190.332031 41.484375 190.101563 C 42.070313 189.875 42.75 189.929688 43.53125 190.273438 C 44.324219 190.628906 44.828125 191.101563 45.046875 191.695313 C 45.265625 192.28125 45.195313 192.972656 44.828125 193.773438 L 44.28125 195.007813 L 47.5 196.445313 L 47.078125 197.414063 Z M 45.335938 187.03125 C 45.117188 187.511719 45.15625 187.984375 45.445313 188.453125 C 45.738281 188.914063 46.238281 189.296875 46.945313 189.609375 C 47.675781 189.933594 48.304688 190.054688 48.835938 189.96875 C 49.367188 189.875 49.742188 189.585938 49.960938 189.09375 C 50.167969 188.636719 50.125 188.179688 49.835938 187.71875 C 49.542969 187.261719 49.039063 186.871094 48.320313 186.546875 C 47.625 186.234375 47.003906 186.125 46.460938 186.21875 C 45.921875 186.304688 45.546875 186.574219 45.335938 187.03125 Z M 44.507813 186.65625 C 44.851563 185.898438 45.398438 185.421875 46.148438 185.234375 C 46.898438 185.046875 47.765625 185.171875 48.742188 185.609375 C 49.71875 186.046875 50.390625 186.609375 50.757813 187.296875 C 51.132813 187.984375 51.148438 188.710938 50.804688 189.46875 C 50.449219 190.25 49.898438 190.734375 49.148438 190.921875 C 48.390625 191.109375 47.519531 190.984375 46.539063 190.546875 C 45.5625 190.109375 44.890625 189.546875 44.523438 188.859375 C 44.160156 188.171875 44.15625 187.4375 44.507813 186.65625 Z M 48.34375 179.4375 L 49.265625 179.90625 C 49.007813 180.085938 48.777344 180.292969 48.578125 180.53125 C 48.371094 180.761719 48.195313 181.011719 48.046875 181.28125 C 47.839844 181.71875 47.757813 182.085938 47.796875 182.375 C 47.828125 182.65625 47.996094 182.875 48.296875 183.03125 C 48.515625 183.148438 48.730469 183.15625 48.9375 183.0625 C 49.136719 182.960938 49.40625 182.703125 49.75 182.296875 L 49.96875 182.0625 C 50.429688 181.5 50.859375 181.15625 51.265625 181.03125 C 51.664063 180.90625 52.09375 180.964844 52.5625 181.203125 C 53.113281 181.484375 53.453125 181.902344 53.578125 182.453125 C 53.703125 182.996094 53.59375 183.605469 53.25 184.28125 C 53.113281 184.5625 52.9375 184.84375 52.71875 185.125 C 52.5 185.398438 52.25 185.667969 51.96875 185.9375 L 50.953125 185.4375 C 51.296875 185.21875 51.59375 184.980469 51.84375 184.71875 C 52.09375 184.449219 52.289063 184.164063 52.4375 183.859375 C 52.644531 183.453125 52.726563 183.101563 52.6875 182.796875 C 52.644531 182.496094 52.484375 182.273438 52.203125 182.125 C 51.941406 182 51.703125 181.984375 51.484375 182.078125 C 51.257813 182.164063 50.9375 182.4375 50.53125 182.90625 L 50.328125 183.1875 C 49.921875 183.65625 49.53125 183.949219 49.15625 184.0625 C 48.773438 184.167969 48.355469 184.105469 47.90625 183.875 C 47.355469 183.59375 47.015625 183.203125 46.890625 182.703125 C 46.765625 182.203125 46.867188 181.636719 47.1875 181 C 47.34375 180.667969 47.523438 180.375 47.71875 180.125 C 47.917969 179.867188 48.125 179.636719 48.34375 179.4375 Z M 47.78125 176 L 49.4375 176.828125 L 50.328125 175.046875 L 51.09375 175.421875 L 50.203125 177.203125 L 53.390625 178.796875 C 53.859375 179.039063 54.195313 179.136719 54.390625 179.09375 C 54.578125 179.042969 54.757813 178.835938 54.9375 178.46875 L 55.390625 177.578125 L 56.203125 177.984375 L 55.75 178.875 C 55.414063 179.554688 55.046875 179.949219 54.640625 180.0625 C 54.234375 180.179688 53.671875 180.054688 52.953125 179.6875 L 49.765625 178.09375 L 49.4375 178.71875 L 48.671875 178.34375 L 49 177.71875 L 47.34375 176.890625 Z M 56.320313 168.566406 C 56.5 168.402344 56.765625 168.285156 57.117188 168.222656 C 57.460938 168.160156 57.898438 168.140625 58.429688 168.160156 L 61.054688 168.238281 L 60.539063 169.269531 L 58.085938 169.175781 C 57.453125 169.144531 56.992188 169.199219 56.710938 169.332031 C 56.429688 169.457031 56.195313 169.714844 56.007813 170.097656 L 55.492188 171.128906 L 58.804688 172.785156 L 58.320313 173.738281 L 50.492188 169.847656 L 51.570313 167.691406 C 51.96875 166.890625 52.453125 166.386719 53.023438 166.175781 C 53.585938 165.957031 54.25 166.035156 55.007813 166.410156 C 55.5 166.660156 55.859375 166.972656 56.085938 167.347656 C 56.304688 167.714844 56.382813 168.121094 56.320313 168.566406 Z M 51.835938 169.316406 L 54.617188 170.707031 L 55.210938 169.503906 C 55.441406 169.046875 55.5 168.644531 55.382813 168.300781 C 55.257813 167.949219 54.96875 167.65625 54.507813 167.425781 C 54.050781 167.207031 53.648438 167.15625 53.304688 167.269531 C 52.953125 167.375 52.660156 167.65625 52.429688 168.113281 Z M 57.339844 162.410156 C 57.121094 162.878906 57.160156 163.347656 57.449219 163.816406 C 57.730469 164.277344 58.230469 164.667969 58.949219 164.988281 C 59.667969 165.324219 60.292969 165.449219 60.824219 165.363281 C 61.34375 165.269531 61.71875 164.984375 61.949219 164.503906 C 62.15625 164.035156 62.113281 163.574219 61.824219 163.113281 C 61.542969 162.644531 61.050781 162.25 60.339844 161.925781 C 59.632813 161.613281 59.007813 161.5 58.464844 161.582031 C 57.925781 161.667969 57.550781 161.941406 57.339844 162.410156 Z M 56.511719 162.035156 C 56.855469 161.265625 57.410156 160.792969 58.167969 160.613281 C 58.917969 160.425781 59.785156 160.550781 60.761719 160.988281 C 61.738281 161.4375 62.40625 162.011719 62.761719 162.707031 C 63.125 163.394531 63.136719 164.125 62.792969 164.894531 C 62.4375 165.675781 61.886719 166.15625 61.136719 166.332031 C 60.378906 166.511719 59.507813 166.375 58.527344 165.925781 C 57.550781 165.488281 56.882813 164.925781 56.527344 164.238281 C 56.164063 163.550781 56.160156 162.816406 56.511719 162.035156 Z M 62.246094 156.851563 C 61.996094 157.59375 61.914063 158.140625 61.996094 158.492188 C 62.082031 158.847656 62.347656 159.101563 62.792969 159.257813 C 63.160156 159.382813 63.488281 159.378906 63.777344 159.242188 C 64.070313 159.097656 64.277344 158.835938 64.402344 158.460938 C 64.578125 157.960938 64.519531 157.492188 64.230469 157.054688 C 63.941406 156.609375 63.460938 156.265625 62.792969 156.023438 L 62.574219 155.945313 Z M 62.449219 154.882813 L 65.996094 156.117188 L 65.683594 157.039063 L 64.746094 156.710938 C 65.035156 157.046875 65.21875 157.40625 65.292969 157.789063 C 65.363281 158.164063 65.324219 158.578125 65.167969 159.023438 C 64.957031 159.597656 64.613281 159.988281 64.136719 160.195313 C 63.667969 160.40625 63.144531 160.40625 62.558594 160.195313 C 61.863281 159.945313 61.410156 159.550781 61.199219 159.007813 C 60.992188 158.46875 61.035156 157.78125 61.324219 156.945313 L 61.777344 155.664063 L 61.667969 155.632813 C 61.199219 155.46875 60.789063 155.484375 60.433594 155.679688 C 60.082031 155.867188 59.816406 156.210938 59.636719 156.710938 C 59.535156 157.023438 59.472656 157.347656 59.449219 157.679688 C 59.429688 158.015625 59.457031 158.351563 59.527344 158.695313 L 58.589844 158.351563 C 58.550781 157.96875 58.550781 157.609375 58.589844 157.273438 C 58.632813 156.929688 58.707031 156.609375 58.808594 156.304688 C 59.101563 155.503906 59.550781 154.984375 60.152344 154.742188 C 60.746094 154.503906 61.511719 154.550781 62.449219 154.882813 Z M 62.351563 148.703125 L 58.914063 147.765625 L 59.164063 146.828125 L 67.960938 149.234375 L 67.710938 150.171875 L 66.757813 149.90625 C 67.070313 150.210938 67.277344 150.539063 67.382813 150.890625 C 67.496094 151.234375 67.496094 151.621094 67.382813 152.046875 C 67.195313 152.734375 66.734375 153.214844 66.007813 153.484375 C 65.269531 153.746094 64.398438 153.742188 63.398438 153.46875 C 62.410156 153.199219 61.671875 152.765625 61.179688 152.171875 C 60.691406 151.570313 60.539063 150.921875 60.726563 150.234375 C 60.84375 149.808594 61.03125 149.46875 61.289063 149.21875 C 61.550781 148.96875 61.90625 148.796875 62.351563 148.703125 Z M 63.664063 152.515625 C 64.4375 152.726563 65.082031 152.746094 65.601563 152.578125 C 66.113281 152.414063 66.433594 152.078125 66.570313 151.578125 C 66.703125 151.089844 66.59375 150.640625 66.242188 150.234375 C 65.878906 149.828125 65.3125 149.523438 64.539063 149.3125 C 63.78125 149.105469 63.144531 149.085938 62.632813 149.25 C 62.125 149.417969 61.800781 149.746094 61.664063 150.234375 C 61.53125 150.734375 61.640625 151.1875 61.992188 151.59375 C 62.347656 152 62.90625 152.308594 63.664063 152.515625 Z M 63.664063 152.515625 "/>
</g>
</svg>

