<?xml version="1.0" encoding="UTF-8"?>
<svg xmlns="http://www.w3.org/2000/svg" xmlns:xlink="http://www.w3.org/1999/xlink" width="256pt" height="256pt" viewBox="0 0 256 256" version="1.1">
<g id="surface2">
<rect x="0" y="0" width="256" height="256" style="fill:rgb(60%,70.196078%,80%);fill-opacity:1;stroke:none;"/>
<path style=" stroke:none;fill-rule:evenodd;fill:rgb(94.901961%,93.72549%,91.372549%);fill-opacity:1;" d="M 259 259 L 168.445313 259 L 176.328125 220.941406 L 184.367188 202.269531 L 182.933594 189.921875 L 180.582031 177.441406 L 175.753906 161.0625 L 167.285156 143.542969 L 155.722656 103.1875 L 145.289063 67.527344 L 136.078125 35.691406 L 133.914063 29.960938 L 131.078125 22.441406 L 132.078125 9.691406 L 137.546875 3.328125 L 154.546875 -0.171875 L 176.433594 8.382813 L 198.746094 35.003906 L 220.472656 57.085938 L 224.328125 60.941406 L 244.203125 71.003906 L 254.078125 95.941406 L 259 98.285156 L 259 -4 Z M 259 259 "/>
<path style=" stroke:none;fill-rule:evenodd;fill:rgb(70.980392%,82.352941%,61.176471%);fill-opacity:1;" d="M 260 260 L 260 -4 L 260 98.761719 L 254.078125 95.941406 L 244.203125 71.003906 L 224.328125 60.941406 L 220.472656 57.085938 L 198.746094 35.003906 L 176.433594 8.382813 L 154.546875 -0.171875 L 137.546875 3.328125 L 132.082031 9.691406 L 131.078125 22.441406 L 133.914063 29.960938 L 136.078125 35.691406 L 145.289063 67.527344 L 155.722656 103.1875 L 167.285156 143.546875 L 175.753906 161.0625 L 180.582031 177.441406 L 182.933594 189.921875 L 184.371094 202.269531 L 176.332031 220.941406 L 168.238281 260 Z M 260 260 "/>
<path style=" stroke:none;fill-rule:evenodd;fill:rgb(81.960784%,81.568627%,80.392157%);fill-opacity:1;" d="M 157.191406 16.824219 L 167.34375 33.070313 L 176.265625 27.539063 L 167.339844 13.050781 L 165.675781 13.933594 L 164.753906 12.0625 Z M 157.191406 16.824219 "/>
<path style="fill:none;stroke-width:1;stroke-linecap:round;stroke-linejoin:round;stroke:rgb(81.960784%,81.960784%,81.960784%);stroke-opacity:1;stroke-miterlimit:10;" d="M 157.191406 16.824219 L 167.34375 33.070313 L 176.265625 27.539063 L 167.339844 13.050781 L 165.675781 13.933594 L 164.753906 12.0625 L 157.191406 16.824219 "/>
<path style=" stroke:none;fill-rule:evenodd;fill:rgb(81.960784%,81.568627%,80.392157%);fill-opacity:1;" d="M 140.386719 27.335938 L 143.398438 31.6875 L 141.761719 32.597656 L 149.367188 44.507813 L 157.472656 39.105469 L 148.078125 22.730469 Z M 140.386719 27.335938 "/>
<path style="fill:none;stroke-width:1;stroke-linecap:round;stroke-linejoin:round;stroke:rgb(81.960784%,81.960784%,81.960784%);stroke-opacity:1;stroke-miterlimit:10;" d="M 140.386719 27.335938 L 143.398438 31.6875 L 141.761719 32.597656 L 149.367188 44.507813 L 157.472656 39.105469 L 148.078125 22.730469 L 140.386719 27.335938 "/>
<path style=" stroke:none;fill-rule:evenodd;fill:rgb(81.960784%,81.568627%,80.392157%);fill-opacity:1;" d="M 181.898438 105.132813 L 183.355469 107.851563 L 185.605469 106.640625 L 188.050781 106.429688 L 183.457031 97.867188 L 181.949219 98.679688 L 183.003906 100.644531 L 183.554688 102.828125 L 183.425781 104.3125 Z M 181.898438 105.132813 "/>
<path style="fill:none;stroke-width:1;stroke-linecap:round;stroke-linejoin:round;stroke:rgb(81.960784%,81.960784%,81.960784%);stroke-opacity:1;stroke-miterlimit:10;" d="M 181.898438 105.132813 L 183.355469 107.851563 L 185.605469 106.640625 L 188.050781 106.429688 L 183.457031 97.867188 L 181.949219 98.679688 L 183.003906 100.644531 L 183.554688 102.828125 L 183.425781 104.3125 L 181.898438 105.132813 "/>
<path style="fill:none;stroke-width:1;stroke-linecap:round;stroke-linejoin:round;stroke:rgb(100%,100%,100%);stroke-opacity:1;stroke-dasharray:2,3;stroke-miterlimit:10;" d="M 167.152344 34.140625 L 167.902344 36.257813 "/>
<path style="fill:none;stroke-width:1;stroke-linecap:round;stroke-linejoin:round;stroke:rgb(100%,100%,100%);stroke-opacity:1;stroke-dasharray:2,3;stroke-miterlimit:10;" d="M 160.589844 40.867188 L 158.671875 39.683594 "/>
<path style="fill:none;stroke-width:1;stroke-linecap:round;stroke-linejoin:round;stroke:rgb(100%,100%,100%);stroke-opacity:1;stroke-dasharray:2,3;stroke-miterlimit:10;" d="M 165.167969 30.839844 L 167.152344 34.140625 "/>
<path style="fill:none;stroke-width:1;stroke-linecap:round;stroke-linejoin:round;stroke:rgb(100%,100%,100%);stroke-opacity:1;stroke-dasharray:2,3;stroke-miterlimit:10;" d="M 158.671875 39.683594 L 156.339844 36.394531 "/>
<path style="fill:none;stroke-width:1;stroke-linecap:round;stroke-linejoin:round;stroke:rgb(100%,100%,100%);stroke-opacity:1;stroke-dasharray:2,3;stroke-miterlimit:10;" d="M 154.121094 12.484375 L 155.167969 11.933594 L 158.636719 15 L 159.792969 16.375 "/>
<path style="fill:none;stroke-width:1;stroke-linecap:round;stroke-linejoin:round;stroke:rgb(100%,100%,100%);stroke-opacity:1;stroke-dasharray:2,3;stroke-miterlimit:10;" d="M 160.589844 40.867188 L 162.269531 39.804688 L 165.535156 37.746094 L 167.902344 36.257813 "/>
<path style="fill:none;stroke-width:1;stroke-linecap:round;stroke-linejoin:round;stroke:rgb(100%,100%,100%);stroke-opacity:1;stroke-dasharray:2,3;stroke-miterlimit:10;" d="M 155.996094 34.917969 L 158.386719 33.539063 L 161.84375 31.5 L 164.621094 29.890625 "/>
<path style="fill:none;stroke-width:1;stroke-linecap:round;stroke-linejoin:round;stroke:rgb(100%,100%,100%);stroke-opacity:1;stroke-dasharray:2,3;stroke-miterlimit:10;" d="M 143.386719 10.445313 L 141.355469 14.601563 L 140.933594 16.210938 L 140.902344 17.726563 L 141.027344 19.253906 L 141.417969 20.816406 L 143.699219 25.054688 "/>
<path style="fill:none;stroke-width:1;stroke-linecap:round;stroke-linejoin:round;stroke:rgb(100%,100%,100%);stroke-opacity:1;stroke-dasharray:2,3;stroke-miterlimit:10;" d="M 165.167969 30.839844 L 156.574219 17.3125 L 154.121094 12.484375 L 151.105469 6.246094 "/>
<path style="fill:none;stroke-width:1;stroke-linecap:round;stroke-linejoin:round;stroke:rgb(100%,100%,100%);stroke-opacity:1;stroke-dasharray:2,3;stroke-miterlimit:10;" d="M 143.042969 9.71875 L 147.292969 19.40625 L 148.683594 21.980469 L 155.996094 34.917969 L 156.339844 36.394531 "/>
<path style="fill:none;stroke-width:1;stroke-linecap:round;stroke-linejoin:round;stroke:rgb(100%,100%,100%);stroke-opacity:1;stroke-dasharray:2,3;stroke-miterlimit:10;" d="M 148.683594 21.980469 L 143.699219 25.054688 L 138.714844 28.183594 L 149.121094 44.621094 "/>
<path style="fill:none;stroke-width:1;stroke-linecap:round;stroke-linejoin:round;stroke:rgb(100%,100%,100%);stroke-opacity:1;stroke-dasharray:2,3;stroke-miterlimit:10;" d="M 224.589844 257 L 221.695313 249.335938 L 220.777344 240.152344 L 218.023438 224.082031 L 217.789063 212.371094 L 215.730469 203.960938 L 212.628906 194.296875 L 211.1875 186.253906 L 207.164063 167.46875 L 202.53125 150.652344 L 200.078125 141.628906 L 197.3125 133.648438 L 191.910156 124.5625 L 189.023438 122.167969 L 186.714844 119.675781 L 184.945313 118 L 184.808594 116.503906 L 185.851563 115.414063 L 187.9375 114.195313 L 192.480469 111.753906 "/>
<path style="fill:none;stroke-width:1;stroke-linecap:round;stroke-linejoin:round;stroke:rgb(100%,100%,100%);stroke-opacity:1;stroke-dasharray:2,3;stroke-miterlimit:10;" d="M 257 211.707031 L 256.605469 210.5625 L 255.097656 206.070313 L 251.613281 197.09375 L 250.425781 187.074219 L 249.949219 180.496094 L 248.363281 174.128906 L 246.148438 168.070313 L 242.660156 159.089844 L 240.042969 156.375 L 236.160156 148.753906 L 234.65625 142.28125 L 235.054688 134.976563 L 234.972656 128.605469 "/>
<path style="fill:none;stroke-width:1;stroke-linecap:round;stroke-linejoin:round;stroke:rgb(100%,100%,100%);stroke-opacity:1;stroke-dasharray:2,3;stroke-miterlimit:10;" d="M 168.035156 123.613281 L 175.554688 120.636719 L 180.003906 119.683594 L 182.765625 118.210938 L 184.808594 116.503906 "/>
<path style="fill:none;stroke-width:1;stroke-linecap:round;stroke-linejoin:round;stroke:rgb(100%,100%,100%);stroke-opacity:1;stroke-dasharray:2,3;stroke-miterlimit:10;" d="M 215.445313 129.527344 L 220.523438 129.019531 L 234.972656 128.605469 L 247.097656 124.21875 L 256.445313 123.175781 L 257 123.027344 "/>
<path style="fill:none;stroke-width:8;stroke-linecap:round;stroke-linejoin:round;stroke:rgb(75.686275%,70.980392%,61.568627%);stroke-opacity:1;stroke-miterlimit:10;" d="M 155.121094 39.429688 L 160.070313 36.257813 L 163.324219 34.257813 L 169.195313 30.652344 "/>
<path style="fill:none;stroke-width:8;stroke-linecap:round;stroke-linejoin:round;stroke:rgb(75.686275%,70.980392%,61.568627%);stroke-opacity:1;stroke-miterlimit:10;" d="M 202.550781 110.351563 L 199.457031 111.3125 L 197.070313 111.882813 L 194.777344 112.070313 L 192.480469 111.753906 L 190.660156 111.03125 L 189.179688 110.058594 L 187.828125 108.800781 L 186.605469 107.074219 L 180.800781 93.074219 "/>
<path style="fill:none;stroke-width:8;stroke-linecap:round;stroke-linejoin:round;stroke:rgb(75.686275%,70.980392%,61.568627%);stroke-opacity:1;stroke-miterlimit:10;" d="M 146.257813 25.023438 L 155.121094 39.429688 L 150.71875 42.277344 L 144.371094 32.566406 L 144.527344 29.992188 L 142.863281 27.132813 L 146.257813 25.023438 "/>
<path style="fill:none;stroke-width:8;stroke-linecap:round;stroke-linejoin:round;stroke:rgb(75.686275%,70.980392%,61.568627%);stroke-opacity:1;stroke-miterlimit:10;" d="M 159.792969 16.375 L 169.195313 30.652344 L 173.5625 27.914063 L 165.582031 15.003906 L 163.289063 14.246094 L 159.792969 16.375 "/>
<path style="fill:none;stroke-width:10;stroke-linecap:round;stroke-linejoin:round;stroke:rgb(75.686275%,70.980392%,61.568627%);stroke-opacity:1;stroke-miterlimit:10;" d="M 211.808594 131.007813 L 215.445313 129.527344 "/>
<path style="fill:none;stroke-width:10;stroke-linecap:round;stroke-linejoin:round;stroke:rgb(75.686275%,70.980392%,61.568627%);stroke-opacity:1;stroke-miterlimit:10;" d="M 153.238281 24.386719 L 158.386719 33.539063 "/>
<path style="fill:none;stroke-width:10;stroke-linecap:round;stroke-linejoin:round;stroke:rgb(75.686275%,70.980392%,61.568627%);stroke-opacity:1;stroke-miterlimit:10;" d="M 146.195313 11.386719 L 152.007813 22.195313 L 153.238281 24.386719 "/>
<path style="fill:none;stroke-width:10;stroke-linecap:round;stroke-linejoin:round;stroke:rgb(75.686275%,70.980392%,61.568627%);stroke-opacity:1;stroke-miterlimit:10;" d="M 158.386719 33.539063 L 160.070313 36.257813 L 162.269531 39.804688 L 180.726563 69.558594 L 188.925781 83.359375 L 196.925781 98.359375 L 202.550781 110.351563 L 204.523438 114.558594 L 207.820313 122.605469 L 211.808594 131.007813 "/>
<path style="fill:none;stroke-width:10;stroke-linecap:round;stroke-linejoin:round;stroke:rgb(75.686275%,70.980392%,61.568627%);stroke-opacity:1;stroke-miterlimit:10;" d="M 215.445313 129.527344 L 211.3125 119.933594 L 208.582031 113.238281 L 200.324219 97.160156 L 192.125 81.757813 L 183.722656 67.359375 L 166.03125 38.59375 L 163.324219 34.257813 L 161.84375 31.5 L 155.023438 19.621094 L 149.902344 9.628906 "/>
<path style="fill:none;stroke-width:10;stroke-linecap:round;stroke-linejoin:round;stroke:rgb(75.686275%,70.980392%,61.568627%);stroke-opacity:1;stroke-miterlimit:10;" d="M 251.457031 266 L 245.125 236.839844 L 241.445313 216.546875 L 238.253906 202.023438 L 235.457031 190.753906 L 230.773438 173.988281 L 228.164063 165.515625 L 223.011719 150.191406 L 215.445313 129.527344 "/>
<path style="fill:none;stroke-width:10;stroke-linecap:round;stroke-linejoin:round;stroke:rgb(75.686275%,70.980392%,61.568627%);stroke-opacity:1;stroke-miterlimit:10;" d="M 211.808594 131.007813 L 218.628906 151.734375 L 223.757813 166.996094 L 226.347656 175.414063 L 231.015625 192.117188 L 233.796875 203.320313 L 236.972656 217.769531 L 240.65625 238.0625 L 246.71875 266 "/>
<path style="fill:none;stroke-width:6;stroke-linecap:round;stroke-linejoin:round;stroke:rgb(100%,100%,100%);stroke-opacity:1;stroke-miterlimit:10;" d="M 155.121094 39.429688 L 160.070313 36.257813 L 163.324219 34.257813 L 169.195313 30.652344 "/>
<path style="fill:none;stroke-width:6;stroke-linecap:round;stroke-linejoin:round;stroke:rgb(100%,100%,100%);stroke-opacity:1;stroke-miterlimit:10;" d="M 202.550781 110.351563 L 199.457031 111.3125 L 197.070313 111.882813 L 194.777344 112.070313 L 192.480469 111.753906 L 190.660156 111.03125 L 189.179688 110.058594 L 187.828125 108.800781 L 186.605469 107.074219 L 180.800781 93.074219 "/>
<path style="fill:none;stroke-width:6;stroke-linecap:round;stroke-linejoin:round;stroke:rgb(100%,100%,100%);stroke-opacity:1;stroke-miterlimit:10;" d="M 146.257813 25.023438 L 155.121094 39.429688 L 150.71875 42.277344 L 144.371094 32.566406 L 144.527344 29.992188 L 142.863281 27.132813 L 146.257813 25.023438 "/>
<path style="fill:none;stroke-width:6;stroke-linecap:round;stroke-linejoin:round;stroke:rgb(100%,100%,100%);stroke-opacity:1;stroke-miterlimit:10;" d="M 159.792969 16.375 L 169.195313 30.652344 L 173.5625 27.914063 L 165.582031 15.003906 L 163.289063 14.246094 L 159.792969 16.375 "/>
<path style="fill:none;stroke-width:8;stroke-linecap:round;stroke-linejoin:round;stroke:rgb(100%,99.215686%,54.509804%);stroke-opacity:1;stroke-miterlimit:10;" d="M 211.808594 131.007813 L 215.445313 129.527344 "/>
<path style="fill:none;stroke-width:8;stroke-linecap:round;stroke-linejoin:round;stroke:rgb(100%,99.215686%,54.509804%);stroke-opacity:1;stroke-miterlimit:10;" d="M 153.238281 24.386719 L 158.386719 33.539063 "/>
<path style="fill:none;stroke-width:8;stroke-linecap:round;stroke-linejoin:round;stroke:rgb(100%,99.215686%,54.509804%);stroke-opacity:1;stroke-miterlimit:10;" d="M 146.195313 11.386719 L 152.007813 22.195313 L 153.238281 24.386719 "/>
<path style="fill:none;stroke-width:8;stroke-linecap:round;stroke-linejoin:round;stroke:rgb(100%,99.215686%,54.509804%);stroke-opacity:1;stroke-miterlimit:10;" d="M 158.386719 33.539063 L 160.070313 36.257813 L 162.269531 39.804688 L 180.726563 69.558594 L 188.925781 83.359375 L 196.925781 98.359375 L 202.550781 110.351563 L 204.523438 114.558594 L 207.820313 122.605469 L 211.808594 131.007813 "/>
<path style="fill:none;stroke-width:8;stroke-linecap:round;stroke-linejoin:round;stroke:rgb(100%,99.215686%,54.509804%);stroke-opacity:1;stroke-miterlimit:10;" d="M 215.445313 129.527344 L 211.3125 119.933594 L 208.582031 113.238281 L 200.324219 97.160156 L 192.125 81.757813 L 183.722656 67.359375 L 166.03125 38.59375 L 163.324219 34.257813 L 161.84375 31.5 L 155.023438 19.621094 L 149.902344 9.628906 "/>
<path style="fill:none;stroke-width:8;stroke-linecap:round;stroke-linejoin:round;stroke:rgb(100%,99.215686%,54.509804%);stroke-opacity:1;stroke-miterlimit:10;" d="M 251.457031 266 L 245.125 236.839844 L 241.445313 216.546875 L 238.253906 202.023438 L 235.457031 190.753906 L 230.773438 173.988281 L 228.164063 165.515625 L 223.011719 150.191406 L 215.445313 129.527344 "/>
<path style="fill:none;stroke-width:8;stroke-linecap:round;stroke-linejoin:round;stroke:rgb(100%,99.215686%,54.509804%);stroke-opacity:1;stroke-miterlimit:10;" d="M 211.808594 131.007813 L 218.628906 151.734375 L 223.757813 166.996094 L 226.347656 175.414063 L 231.015625 192.117188 L 233.796875 203.320313 L 236.972656 217.769531 L 240.65625 238.0625 L 246.71875 266 "/>
<path style="fill:none;stroke-width:10;stroke-linecap:butt;stroke-linejoin:round;stroke:rgb(53.333333%,53.333333%,53.333333%);stroke-opacity:1;stroke-miterlimit:10;" d="M 149.902344 9.628906 L 145.15625 0.125 L 141.136719 -9 "/>
<path style="fill:none;stroke-width:10;stroke-linecap:butt;stroke-linejoin:round;stroke:rgb(53.333333%,53.333333%,53.333333%);stroke-opacity:1;stroke-miterlimit:10;" d="M 136.460938 -9 L 140.925781 1.359375 L 146.195313 11.386719 "/>
<path style="fill:none;stroke-width:8;stroke-linecap:round;stroke-linejoin:round;stroke:rgb(100%,99.215686%,54.509804%);stroke-opacity:1;stroke-miterlimit:10;" d="M 149.902344 9.628906 L 145.15625 0.125 L 141.136719 -9 "/>
<path style="fill:none;stroke-width:8;stroke-linecap:round;stroke-linejoin:round;stroke:rgb(100%,99.215686%,54.509804%);stroke-opacity:1;stroke-miterlimit:10;" d="M 136.460938 -9 L 140.925781 1.359375 L 146.195313 11.386719 "/>
<path style="fill:none;stroke-width:3;stroke-linecap:round;stroke-linejoin:round;stroke:rgb(100%,100%,100%);stroke-opacity:1;stroke-miterlimit:10;" d="M 162.203125 24.945313 L 161.125 25.554688 C 161.269531 25.054688 161.320313 24.585938 161.28125 24.148438 C 161.238281 23.710938 161.101563 23.292969 160.875 22.898438 C 160.425781 22.117188 159.8125 21.675781 159.03125 21.570313 C 158.257813 21.457031 157.375 21.6875 156.375 22.257813 C 155.382813 22.832031 154.738281 23.476563 154.4375 24.195313 C 154.144531 24.921875 154.222656 25.679688 154.671875 26.460938 C 154.898438 26.855469 155.195313 27.179688 155.5625 27.429688 C 155.925781 27.6875 156.359375 27.882813 156.859375 28.007813 L 155.78125 28.632813 C 155.351563 28.453125 154.972656 28.214844 154.640625 27.914063 C 154.304688 27.609375 154.023438 27.261719 153.796875 26.867188 C 153.203125 25.824219 153.085938 24.808594 153.453125 23.820313 C 153.816406 22.832031 154.601563 21.988281 155.8125 21.289063 C 157.03125 20.59375 158.160156 20.335938 159.203125 20.523438 C 160.253906 20.703125 161.078125 21.3125 161.671875 22.351563 C 161.898438 22.757813 162.054688 23.179688 162.140625 23.617188 C 162.234375 24.054688 162.253906 24.496094 162.203125 24.945313 Z M 162.523438 30.550781 C 162.523438 30.433594 162.507813 30.308594 162.476563 30.175781 C 162.445313 30.039063 162.390625 29.902344 162.320313 29.769531 C 162.046875 29.300781 161.664063 29.035156 161.164063 28.972656 C 160.671875 28.910156 160.105469 29.066406 159.460938 29.441406 L 156.460938 31.160156 L 155.976563 30.332031 L 161.664063 27.066406 L 162.148438 27.894531 L 161.273438 28.394531 C 161.71875 28.386719 162.109375 28.472656 162.445313 28.660156 C 162.777344 28.847656 163.054688 29.144531 163.273438 29.550781 C 163.3125 29.613281 163.351563 29.679688 163.382813 29.753906 C 163.414063 29.824219 163.4375 29.910156 163.460938 30.003906 Z M 164.394531 33.304688 C 164.132813 32.847656 163.730469 32.601563 163.191406 32.570313 C 162.648438 32.53125 162.039063 32.707031 161.363281 33.101563 C 160.675781 33.496094 160.210938 33.933594 159.972656 34.414063 C 159.742188 34.890625 159.757813 35.367188 160.019531 35.835938 C 160.277344 36.273438 160.679688 36.507813 161.222656 36.539063 C 161.761719 36.570313 162.371094 36.390625 163.050781 36.007813 C 163.714844 35.621094 164.167969 35.183594 164.410156 34.695313 C 164.660156 34.203125 164.652344 33.742188 164.394531 33.304688 Z M 165.175781 32.851563 C 165.601563 33.578125 165.667969 34.296875 165.378906 35.007813 C 165.097656 35.726563 164.492188 36.355469 163.566406 36.898438 C 162.636719 37.429688 161.785156 37.640625 161.003906 37.539063 C 160.230469 37.445313 159.632813 37.03125 159.207031 36.304688 C 158.777344 35.5625 158.710938 34.828125 159.003906 34.101563 C 159.304688 33.371094 159.917969 32.742188 160.847656 32.210938 C 161.773438 31.671875 162.617188 31.457031 163.378906 31.570313 C 164.148438 31.6875 164.746094 32.113281 165.175781 32.851563 Z M 169.023438 39.871094 L 168.148438 40.417969 C 168.136719 40.105469 168.085938 39.800781 167.992188 39.511719 C 167.898438 39.21875 167.773438 38.941406 167.617188 38.667969 C 167.355469 38.261719 167.09375 38.003906 166.835938 37.886719 C 166.574219 37.761719 166.304688 37.785156 166.023438 37.949219 C 165.804688 38.085938 165.679688 38.269531 165.648438 38.496094 C 165.617188 38.714844 165.683594 39.082031 165.851563 39.589844 L 165.945313 39.902344 C 166.183594 40.578125 166.246094 41.113281 166.132813 41.511719 C 166.027344 41.917969 165.75 42.261719 165.304688 42.542969 C 164.773438 42.863281 164.246094 42.9375 163.726563 42.761719 C 163.203125 42.582031 162.742188 42.171875 162.335938 41.527344 C 162.179688 41.253906 162.039063 40.953125 161.914063 40.621094 C 161.789063 40.296875 161.683594 39.9375 161.601563 39.542969 L 162.554688 38.949219 C 162.5625 39.363281 162.617188 39.746094 162.710938 40.089844 C 162.804688 40.441406 162.9375 40.761719 163.117188 41.042969 C 163.355469 41.4375 163.609375 41.699219 163.882813 41.824219 C 164.164063 41.949219 164.4375 41.925781 164.710938 41.761719 C 164.960938 41.605469 165.105469 41.40625 165.148438 41.167969 C 165.1875 40.925781 165.117188 40.515625 164.929688 39.933594 L 164.804688 39.605469 C 164.617188 39.023438 164.574219 38.539063 164.679688 38.152344 C 164.78125 37.769531 165.046875 37.445313 165.476563 37.183594 C 166.007813 36.851563 166.515625 36.769531 167.007813 36.933594 C 167.507813 37.101563 167.945313 37.488281 168.320313 38.089844 C 168.515625 38.402344 168.671875 38.710938 168.789063 39.011719 C 168.902344 39.3125 168.980469 39.597656 169.023438 39.871094 Z M 171.976563 44.675781 L 171.085938 45.222656 C 171.085938 44.910156 171.039063 44.601563 170.945313 44.300781 C 170.859375 44.007813 170.734375 43.730469 170.570313 43.457031 C 170.320313 43.050781 170.058594 42.785156 169.789063 42.660156 C 169.515625 42.535156 169.242188 42.5625 168.960938 42.738281 C 168.75 42.875 168.632813 43.058594 168.601563 43.285156 C 168.578125 43.503906 168.652344 43.863281 168.820313 44.363281 L 168.898438 44.691406 C 169.136719 45.367188 169.199219 45.910156 169.085938 46.316406 C 168.980469 46.722656 168.703125 47.058594 168.257813 47.332031 C 167.734375 47.652344 167.210938 47.722656 166.679688 47.535156 C 166.148438 47.355469 165.683594 46.945313 165.289063 46.300781 C 165.121094 46.027344 164.976563 45.726563 164.851563 45.394531 C 164.734375 45.070313 164.636719 44.710938 164.554688 44.316406 L 165.507813 43.722656 C 165.515625 44.136719 165.570313 44.519531 165.664063 44.863281 C 165.757813 45.214844 165.890625 45.539063 166.070313 45.832031 C 166.308594 46.214844 166.5625 46.472656 166.835938 46.597656 C 167.117188 46.722656 167.398438 46.699219 167.679688 46.535156 C 167.917969 46.378906 168.054688 46.179688 168.085938 45.941406 C 168.125 45.699219 168.058594 45.292969 167.882813 44.722656 L 167.757813 44.394531 C 167.570313 43.800781 167.527344 43.316406 167.632813 42.941406 C 167.746094 42.558594 168.015625 42.234375 168.445313 41.972656 C 168.976563 41.640625 169.484375 41.558594 169.976563 41.722656 C 170.464844 41.890625 170.898438 42.28125 171.273438 42.894531 C 171.460938 43.199219 171.609375 43.5 171.726563 43.800781 C 171.851563 44.101563 171.933594 44.394531 171.976563 44.675781 Z M 173.433594 51.273438 L 170.714844 52.960938 L 171.605469 54.414063 C 171.90625 54.902344 172.238281 55.195313 172.605469 55.289063 C 172.980469 55.382813 173.402344 55.289063 173.871094 55.007813 C 174.339844 54.714844 174.605469 54.382813 174.667969 54.007813 C 174.738281 53.640625 174.625 53.214844 174.324219 52.726563 Z M 176.511719 49.382813 L 174.261719 50.773438 L 175.089844 52.117188 C 175.359375 52.554688 175.65625 52.824219 175.980469 52.929688 C 176.300781 53.03125 176.652344 52.96875 177.027344 52.742188 C 177.402344 52.5 177.613281 52.214844 177.667969 51.882813 C 177.71875 51.550781 177.609375 51.164063 177.339844 50.726563 Z M 176.792969 47.976563 L 178.214844 50.289063 C 178.640625 50.988281 178.808594 51.617188 178.714844 52.179688 C 178.628906 52.742188 178.292969 53.203125 177.699219 53.570313 C 177.238281 53.851563 176.8125 53.980469 176.417969 53.960938 C 176.03125 53.9375 175.691406 53.761719 175.402344 53.429688 C 175.578125 53.9375 175.574219 54.417969 175.386719 54.867188 C 175.199219 55.324219 174.855469 55.710938 174.355469 56.023438 C 173.6875 56.429688 173.042969 56.539063 172.417969 56.351563 C 171.800781 56.171875 171.265625 55.710938 170.808594 54.960938 L 169.339844 52.554688 Z M 177.40625 59.378906 C 177 58.710938 176.628906 58.300781 176.296875 58.144531 C 175.960938 57.996094 175.59375 58.050781 175.1875 58.300781 C 174.863281 58.507813 174.664063 58.761719 174.59375 59.066406 C 174.519531 59.367188 174.585938 59.691406 174.796875 60.035156 C 175.078125 60.480469 175.484375 60.738281 176.015625 60.800781 C 176.546875 60.863281 177.113281 60.707031 177.71875 60.332031 L 177.921875 60.207031 Z M 178.796875 60.800781 L 175.609375 62.769531 L 175.109375 61.941406 L 175.96875 61.410156 C 175.507813 61.429688 175.109375 61.347656 174.765625 61.160156 C 174.429688 60.980469 174.140625 60.691406 173.890625 60.285156 C 173.578125 59.773438 173.488281 59.269531 173.625 58.769531 C 173.757813 58.269531 174.09375 57.855469 174.625 57.519531 C 175.25 57.136719 175.835938 57.03125 176.390625 57.207031 C 176.953125 57.386719 177.460938 57.855469 177.921875 58.613281 L 178.640625 59.769531 L 178.734375 59.722656 C 179.160156 59.449219 179.410156 59.117188 179.484375 58.722656 C 179.554688 58.324219 179.453125 57.90625 179.171875 57.457031 C 178.992188 57.167969 178.78125 56.910156 178.53125 56.691406 C 178.289063 56.472656 178.015625 56.28125 177.703125 56.113281 L 178.5625 55.597656 C 178.875 55.816406 179.144531 56.050781 179.375 56.300781 C 179.613281 56.542969 179.820313 56.800781 180 57.082031 C 180.445313 57.8125 180.570313 58.480469 180.375 59.097656 C 180.175781 59.710938 179.648438 60.277344 178.796875 60.800781 Z M 177.417969 66.851563 C 176.613281 67.039063 176.042969 67.078125 175.699219 66.976563 C 175.355469 66.882813 175.070313 66.652344 174.839844 66.289063 L 174.449219 65.632813 L 175.214844 65.148438 L 175.511719 65.632813 C 175.648438 65.859375 175.816406 66 176.011719 66.054688 C 176.207031 66.105469 176.578125 66.070313 177.121094 65.945313 L 177.636719 65.835938 L 181.886719 60.429688 L 182.417969 61.289063 L 179.011719 65.554688 L 184.355469 64.445313 L 184.902344 65.320313 Z M 185.839844 71.605469 L 183.074219 73.230469 L 183.917969 74.714844 C 184.207031 75.203125 184.535156 75.5 184.902344 75.605469 C 185.277344 75.707031 185.699219 75.625 186.167969 75.355469 C 186.636719 75.074219 186.910156 74.746094 186.996094 74.371094 C 187.078125 74.003906 186.972656 73.578125 186.683594 73.089844 Z M 188.949219 69.792969 L 186.667969 71.121094 L 187.449219 72.496094 C 187.71875 72.941406 188.011719 73.21875 188.324219 73.324219 C 188.636719 73.4375 188.984375 73.386719 189.371094 73.167969 C 189.753906 72.9375 189.980469 72.65625 190.042969 72.324219 C 190.105469 72 190 71.617188 189.730469 71.167969 Z M 189.246094 68.402344 L 190.621094 70.746094 C 191.027344 71.445313 191.175781 72.074219 191.074219 72.636719 C 190.980469 73.207031 190.628906 73.667969 190.027344 74.011719 C 189.566406 74.292969 189.140625 74.410156 188.746094 74.371094 C 188.359375 74.339844 188.027344 74.15625 187.746094 73.824219 C 187.890625 74.34375 187.863281 74.824219 187.667969 75.261719 C 187.480469 75.707031 187.128906 76.082031 186.621094 76.386719 C 185.941406 76.78125 185.296875 76.878906 184.683594 76.683594 C 184.078125 76.484375 183.550781 76.003906 183.105469 75.246094 L 181.683594 72.808594 Z M 191.574219 78.21875 C 191.3125 77.773438 190.90625 77.53125 190.355469 77.5 C 189.8125 77.460938 189.203125 77.636719 188.527344 78.03125 C 187.847656 78.425781 187.390625 78.863281 187.152344 79.34375 C 186.910156 79.832031 186.925781 80.304688 187.199219 80.765625 C 187.457031 81.203125 187.859375 81.4375 188.402344 81.46875 C 188.953125 81.507813 189.5625 81.332031 190.230469 80.9375 C 190.894531 80.550781 191.347656 80.109375 191.589844 79.609375 C 191.839844 79.117188 191.832031 78.65625 191.574219 78.21875 Z M 192.355469 77.75 C 192.78125 78.476563 192.847656 79.203125 192.558594 79.921875 C 192.277344 80.648438 191.671875 81.285156 190.746094 81.828125 C 189.816406 82.367188 188.96875 82.585938 188.199219 82.484375 C 187.425781 82.378906 186.828125 81.960938 186.402344 81.234375 C 185.972656 80.492188 185.902344 79.757813 186.183594 79.03125 C 186.472656 78.3125 187.082031 77.683594 188.011719 77.140625 C 188.9375 76.601563 189.785156 76.382813 190.558594 76.484375 C 191.328125 76.589844 191.925781 77.011719 192.355469 77.75 Z M 190.867188 83.433594 L 194.367188 81.574219 L 194.820313 82.433594 L 191.335938 84.277344 C 190.792969 84.566406 190.433594 84.878906 190.257813 85.214844 C 190.089844 85.558594 190.105469 85.917969 190.304688 86.292969 C 190.554688 86.761719 190.914063 87.042969 191.382813 87.136719 C 191.851563 87.230469 192.371094 87.121094 192.945313 86.808594 L 196.226563 85.074219 L 196.679688 85.933594 L 190.882813 89.011719 L 190.429688 88.152344 L 191.320313 87.667969 C 190.859375 87.667969 190.46875 87.574219 190.148438 87.386719 C 189.835938 87.199219 189.578125 86.921875 189.382813 86.558594 C 189.058594 85.953125 189.023438 85.386719 189.273438 84.855469 C 189.53125 84.332031 190.0625 83.859375 190.867188 83.433594 Z M 195.648438 83.652344 Z M 199.878906 86.488281 L 200.332031 87.347656 L 192.285156 91.628906 L 191.832031 90.769531 Z M 198.742188 96.214844 L 198.289063 96.464844 L 196.179688 92.527344 C 195.542969 92.910156 195.136719 93.347656 194.960938 93.839844 C 194.792969 94.339844 194.859375 94.875 195.164063 95.449219 C 195.339844 95.78125 195.554688 96.078125 195.804688 96.339844 C 196.054688 96.609375 196.355469 96.84375 196.710938 97.042969 L 195.804688 97.527344 C 195.492188 97.296875 195.210938 97.035156 194.960938 96.746094 C 194.710938 96.464844 194.496094 96.160156 194.320313 95.839844 C 193.882813 95.003906 193.804688 94.203125 194.085938 93.433594 C 194.367188 92.660156 194.964844 92.035156 195.882813 91.542969 C 196.828125 91.042969 197.703125 90.878906 198.507813 91.042969 C 199.308594 91.199219 199.917969 91.675781 200.335938 92.464844 C 200.710938 93.160156 200.75 93.84375 200.460938 94.511719 C 200.179688 95.1875 199.605469 95.753906 198.742188 96.214844 Z M 198.570313 95.199219 C 199.078125 94.925781 199.421875 94.578125 199.601563 94.152344 C 199.777344 93.722656 199.75 93.300781 199.523438 92.886719 C 199.273438 92.410156 198.917969 92.105469 198.460938 91.980469 C 198.011719 91.855469 197.5 91.917969 196.929688 92.167969 Z M 201.835938 95.621094 L 202.289063 96.511719 L 198.257813 100.683594 L 203.992188 99.808594 L 204.476563 100.730469 L 197.617188 101.761719 L 197.007813 100.589844 Z M 203.40625 105.804688 C 203.050781 105.105469 202.71875 104.667969 202.40625 104.492188 C 202.09375 104.3125 201.722656 104.335938 201.296875 104.554688 C 200.953125 104.730469 200.726563 104.96875 200.625 105.273438 C 200.53125 105.574219 200.578125 105.902344 200.765625 106.257813 C 201.003906 106.726563 201.382813 107.007813 201.90625 107.101563 C 202.4375 107.203125 203.015625 107.089844 203.640625 106.757813 L 203.859375 106.664063 Z M 204.6875 107.304688 L 201.359375 109.023438 L 200.921875 108.164063 L 201.8125 107.710938 C 201.351563 107.6875 200.960938 107.574219 200.640625 107.367188 C 200.316406 107.15625 200.046875 106.839844 199.828125 106.414063 C 199.546875 105.882813 199.492188 105.371094 199.671875 104.882813 C 199.847656 104.390625 200.21875 104.003906 200.78125 103.710938 C 201.4375 103.378906 202.03125 103.328125 202.5625 103.554688 C 203.101563 103.773438 203.578125 104.277344 203.984375 105.070313 L 204.609375 106.273438 L 204.703125 106.226563 C 205.148438 105.996094 205.425781 105.683594 205.53125 105.289063 C 205.632813 104.902344 205.5625 104.476563 205.3125 104.007813 C 205.164063 103.707031 204.976563 103.4375 204.75 103.195313 C 204.519531 102.957031 204.257813 102.742188 203.96875 102.554688 L 204.859375 102.101563 C 205.148438 102.351563 205.398438 102.613281 205.609375 102.882813 C 205.828125 103.144531 206.007813 103.414063 206.15625 103.695313 C 206.550781 104.453125 206.628906 105.132813 206.390625 105.726563 C 206.148438 106.320313 205.582031 106.84375 204.6875 107.304688 Z M 208.785156 111.292969 C 208.785156 111.175781 208.769531 111.046875 208.738281 110.902344 C 208.714844 110.765625 208.667969 110.628906 208.597656 110.496094 C 208.347656 110.015625 207.976563 109.738281 207.488281 109.652344 C 207.007813 109.570313 206.433594 109.699219 205.769531 110.042969 L 202.691406 111.621094 L 202.253906 110.761719 L 208.097656 107.761719 L 208.535156 108.621094 L 207.628906 109.089844 C 208.074219 109.089844 208.457031 109.195313 208.769531 109.402344 C 209.089844 109.613281 209.355469 109.917969 209.566406 110.324219 C 209.597656 110.386719 209.628906 110.453125 209.660156 110.527344 C 209.699219 110.609375 209.730469 110.699219 209.753906 110.792969 Z M 210.761719 115.859375 L 214.027344 114.4375 L 214.402344 115.328125 L 206.027344 118.953125 L 205.652344 118.0625 L 206.558594 117.671875 C 206.121094 117.640625 205.75 117.519531 205.449219 117.3125 C 205.144531 117.101563 204.910156 116.796875 204.746094 116.390625 C 204.453125 115.734375 204.511719 115.070313 204.917969 114.40625 C 205.324219 113.75 206 113.21875 206.949219 112.8125 C 207.894531 112.398438 208.746094 112.273438 209.496094 112.4375 C 210.253906 112.59375 210.78125 113 211.074219 113.65625 C 211.238281 114.0625 211.296875 114.441406 211.246094 114.796875 C 211.203125 115.160156 211.042969 115.515625 210.761719 115.859375 Z M 207.339844 113.734375 C 206.609375 114.046875 206.09375 114.425781 205.792969 114.875 C 205.5 115.320313 205.457031 115.78125 205.667969 116.25 C 205.863281 116.71875 206.230469 117 206.761719 117.09375 C 207.300781 117.1875 207.9375 117.078125 208.667969 116.765625 C 209.394531 116.453125 209.902344 116.066406 210.183594 115.609375 C 210.472656 115.160156 210.519531 114.703125 210.324219 114.234375 C 210.113281 113.765625 209.746094 113.492188 209.214844 113.40625 C 208.691406 113.3125 208.066406 113.421875 207.339844 113.734375 Z M 207.339844 113.734375 "/>
<path style=" stroke:none;fill-rule:evenodd;fill:rgb(20%,20%,20%);fill-opacity:1;" d="M 162.203125 24.945313 L 161.125 25.554688 C 161.269531 25.054688 161.320313 24.585938 161.28125 24.148438 C 161.238281 23.710938 161.101563 23.292969 160.875 22.898438 C 160.425781 22.117188 159.8125 21.675781 159.03125 21.570313 C 158.257813 21.457031 157.375 21.6875 156.375 22.257813 C 155.382813 22.832031 154.738281 23.476563 154.4375 24.195313 C 154.144531 24.921875 154.222656 25.679688 154.671875 26.460938 C 154.898438 26.855469 155.195313 27.179688 155.5625 27.429688 C 155.925781 27.6875 156.359375 27.882813 156.859375 28.007813 L 155.78125 28.632813 C 155.351563 28.453125 154.972656 28.214844 154.640625 27.914063 C 154.304688 27.609375 154.023438 27.261719 153.796875 26.867188 C 153.203125 25.824219 153.085938 24.808594 153.453125 23.820313 C 153.816406 22.832031 154.601563 21.988281 155.8125 21.289063 C 157.03125 20.59375 158.160156 20.335938 159.203125 20.523438 C 160.253906 20.703125 161.078125 21.3125 161.671875 22.351563 C 161.898438 22.757813 162.054688 23.179688 162.140625 23.617188 C 162.234375 24.054688 162.253906 24.496094 162.203125 24.945313 Z M 162.523438 30.550781 C 162.523438 30.433594 162.507813 30.308594 162.476563 30.175781 C 162.445313 30.039063 162.390625 29.902344 162.320313 29.769531 C 162.046875 29.300781 161.664063 29.035156 161.164063 28.972656 C 160.671875 28.910156 160.105469 29.066406 159.460938 29.441406 L 156.460938 31.160156 L 155.976563 30.332031 L 161.664063 27.066406 L 162.148438 27.894531 L 161.273438 28.394531 C 161.71875 28.386719 162.109375 28.472656 162.445313 28.660156 C 162.777344 28.847656 163.054688 29.144531 163.273438 29.550781 C 163.3125 29.613281 163.351563 29.679688 163.382813 29.753906 C 163.414063 29.824219 163.4375 29.910156 163.460938 30.003906 Z M 164.394531 33.304688 C 164.132813 32.847656 163.730469 32.601563 163.191406 32.570313 C 162.648438 32.53125 162.039063 32.707031 161.363281 33.101563 C 160.675781 33.496094 160.210938 33.933594 159.972656 34.414063 C 159.742188 34.890625 159.757813 35.367188 160.019531 35.835938 C 160.277344 36.273438 160.679688 36.507813 161.222656 36.539063 C 161.761719 36.570313 162.371094 36.390625 163.050781 36.007813 C 163.714844 35.621094 164.167969 35.183594 164.410156 34.695313 C 164.660156 34.203125 164.652344 33.742188 164.394531 33.304688 Z M 165.175781 32.851563 C 165.601563 33.578125 165.667969 34.296875 165.378906 35.007813 C 165.097656 35.726563 164.492188 36.355469 163.566406 36.898438 C 162.636719 37.429688 161.785156 37.640625 161.003906 37.539063 C 160.230469 37.445313 159.632813 37.03125 159.207031 36.304688 C 158.777344 35.5625 158.710938 34.828125 159.003906 34.101563 C 159.304688 33.371094 159.917969 32.742188 160.847656 32.210938 C 161.773438 31.671875 162.617188 31.457031 163.378906 31.570313 C 164.148438 31.6875 164.746094 32.113281 165.175781 32.851563 Z M 169.023438 39.871094 L 168.148438 40.417969 C 168.136719 40.105469 168.085938 39.800781 167.992188 39.511719 C 167.898438 39.21875 167.773438 38.941406 167.617188 38.667969 C 167.355469 38.261719 167.09375 38.003906 166.835938 37.886719 C 166.574219 37.761719 166.304688 37.785156 166.023438 37.949219 C 165.804688 38.085938 165.679688 38.269531 165.648438 38.496094 C 165.617188 38.714844 165.683594 39.082031 165.851563 39.589844 L 165.945313 39.902344 C 166.183594 40.578125 166.246094 41.113281 166.132813 41.511719 C 166.027344 41.917969 165.75 42.261719 165.304688 42.542969 C 164.773438 42.863281 164.246094 42.9375 163.726563 42.761719 C 163.203125 42.582031 162.742188 42.171875 162.335938 41.527344 C 162.179688 41.253906 162.039063 40.953125 161.914063 40.621094 C 161.789063 40.296875 161.683594 39.9375 161.601563 39.542969 L 162.554688 38.949219 C 162.5625 39.363281 162.617188 39.746094 162.710938 40.089844 C 162.804688 40.441406 162.9375 40.761719 163.117188 41.042969 C 163.355469 41.4375 163.609375 41.699219 163.882813 41.824219 C 164.164063 41.949219 164.4375 41.925781 164.710938 41.761719 C 164.960938 41.605469 165.105469 41.40625 165.148438 41.167969 C 165.1875 40.925781 165.117188 40.515625 164.929688 39.933594 L 164.804688 39.605469 C 164.617188 39.023438 164.574219 38.539063 164.679688 38.152344 C 164.78125 37.769531 165.046875 37.445313 165.476563 37.183594 C 166.007813 36.851563 166.515625 36.769531 167.007813 36.933594 C 167.507813 37.101563 167.945313 37.488281 168.320313 38.089844 C 168.515625 38.402344 168.671875 38.710938 168.789063 39.011719 C 168.902344 39.3125 168.980469 39.597656 169.023438 39.871094 Z M 171.976563 44.675781 L 171.085938 45.222656 C 171.085938 44.910156 171.039063 44.601563 170.945313 44.300781 C 170.859375 44.007813 170.734375 43.730469 170.570313 43.457031 C 170.320313 43.050781 170.058594 42.785156 169.789063 42.660156 C 169.515625 42.535156 169.242188 42.5625 168.960938 42.738281 C 168.75 42.875 168.632813 43.058594 168.601563 43.285156 C 168.578125 43.503906 168.652344 43.863281 168.820313 44.363281 L 168.898438 44.691406 C 169.136719 45.367188 169.199219 45.910156 169.085938 46.316406 C 168.980469 46.722656 168.703125 47.058594 168.257813 47.332031 C 167.734375 47.652344 167.210938 47.722656 166.679688 47.535156 C 166.148438 47.355469 165.683594 46.945313 165.289063 46.300781 C 165.121094 46.027344 164.976563 45.726563 164.851563 45.394531 C 164.734375 45.070313 164.636719 44.710938 164.554688 44.316406 L 165.507813 43.722656 C 165.515625 44.136719 165.570313 44.519531 165.664063 44.863281 C 165.757813 45.214844 165.890625 45.539063 166.070313 45.832031 C 166.308594 46.214844 166.5625 46.472656 166.835938 46.597656 C 167.117188 46.722656 167.398438 46.699219 167.679688 46.535156 C 167.917969 46.378906 168.054688 46.179688 168.085938 45.941406 C 168.125 45.699219 168.058594 45.292969 167.882813 44.722656 L 167.757813 44.394531 C 167.570313 43.800781 167.527344 43.316406 167.632813 42.941406 C 167.746094 42.558594 168.015625 42.234375 168.445313 41.972656 C 168.976563 41.640625 169.484375 41.558594 169.976563 41.722656 C 170.464844 41.890625 170.898438 42.28125 171.273438 42.894531 C 171.460938 43.199219 171.609375 43.5 171.726563 43.800781 C 171.851563 44.101563 171.933594 44.394531 171.976563 44.675781 Z M 173.433594 51.273438 L 170.714844 52.960938 L 171.605469 54.414063 C 171.90625 54.902344 172.238281 55.195313 172.605469 55.289063 C 172.980469 55.382813 173.402344 55.289063 173.871094 55.007813 C 174.339844 54.714844 174.605469 54.382813 174.667969 54.007813 C 174.738281 53.640625 174.625 53.214844 174.324219 52.726563 Z M 176.511719 49.382813 L 174.261719 50.773438 L 175.089844 52.117188 C 175.359375 52.554688 175.65625 52.824219 175.980469 52.929688 C 176.300781 53.03125 176.652344 52.96875 177.027344 52.742188 C 177.402344 52.5 177.613281 52.214844 177.667969 51.882813 C 177.71875 51.550781 177.609375 51.164063 177.339844 50.726563 Z M 176.792969 47.976563 L 178.214844 50.289063 C 178.640625 50.988281 178.808594 51.617188 178.714844 52.179688 C 178.628906 52.742188 178.292969 53.203125 177.699219 53.570313 C 177.238281 53.851563 176.8125 53.980469 176.417969 53.960938 C 176.03125 53.9375 175.691406 53.761719 175.402344 53.429688 C 175.578125 53.9375 175.574219 54.417969 175.386719 54.867188 C 175.199219 55.324219 174.855469 55.710938 174.355469 56.023438 C 173.6875 56.429688 173.042969 56.539063 172.417969 56.351563 C 171.800781 56.171875 171.265625 55.710938 170.808594 54.960938 L 169.339844 52.554688 Z M 177.40625 59.378906 C 177 58.710938 176.628906 58.300781 176.296875 58.144531 C 175.960938 57.996094 175.59375 58.050781 175.1875 58.300781 C 174.863281 58.507813 174.664063 58.761719 174.59375 59.066406 C 174.519531 59.367188 174.585938 59.691406 174.796875 60.035156 C 175.078125 60.480469 175.484375 60.738281 176.015625 60.800781 C 176.546875 60.863281 177.113281 60.707031 177.71875 60.332031 L 177.921875 60.207031 Z M 178.796875 60.800781 L 175.609375 62.769531 L 175.109375 61.941406 L 175.96875 61.410156 C 175.507813 61.429688 175.109375 61.347656 174.765625 61.160156 C 174.429688 60.980469 174.140625 60.691406 173.890625 60.285156 C 173.578125 59.773438 173.488281 59.269531 173.625 58.769531 C 173.757813 58.269531 174.09375 57.855469 174.625 57.519531 C 175.25 57.136719 175.835938 57.03125 176.390625 57.207031 C 176.953125 57.386719 177.460938 57.855469 177.921875 58.613281 L 178.640625 59.769531 L 178.734375 59.722656 C 179.160156 59.449219 179.410156 59.117188 179.484375 58.722656 C 179.554688 58.324219 179.453125 57.90625 179.171875 57.457031 C 178.992188 57.167969 178.78125 56.910156 178.53125 56.691406 C 178.289063 56.472656 178.015625 56.28125 177.703125 56.113281 L 178.5625 55.597656 C 178.875 55.816406 179.144531 56.050781 179.375 56.300781 C 179.613281 56.542969 179.820313 56.800781 180 57.082031 C 180.445313 57.8125 180.570313 58.480469 180.375 59.097656 C 180.175781 59.710938 179.648438 60.277344 178.796875 60.800781 Z M 177.417969 66.851563 C 176.613281 67.039063 176.042969 67.078125 175.699219 66.976563 C 175.355469 66.882813 175.070313 66.652344 174.839844 66.289063 L 174.449219 65.632813 L 175.214844 65.148438 L 175.511719 65.632813 C 175.648438 65.859375 175.816406 66 176.011719 66.054688 C 176.207031 66.105469 176.578125 66.070313 177.121094 65.945313 L 177.636719 65.835938 L 181.886719 60.429688 L 182.417969 61.289063 L 179.011719 65.554688 L 184.355469 64.445313 L 184.902344 65.320313 Z M 185.839844 71.605469 L 183.074219 73.230469 L 183.917969 74.714844 C 184.207031 75.203125 184.535156 75.5 184.902344 75.605469 C 185.277344 75.707031 185.699219 75.625 186.167969 75.355469 C 186.636719 75.074219 186.910156 74.746094 186.996094 74.371094 C 187.078125 74.003906 186.972656 73.578125 186.683594 73.089844 Z M 188.949219 69.792969 L 186.667969 71.121094 L 187.449219 72.496094 C 187.71875 72.941406 188.011719 73.21875 188.324219 73.324219 C 188.636719 73.4375 188.984375 73.386719 189.371094 73.167969 C 189.753906 72.9375 189.980469 72.65625 190.042969 72.324219 C 190.105469 72 190 71.617188 189.730469 71.167969 Z M 189.246094 68.402344 L 190.621094 70.746094 C 191.027344 71.445313 191.175781 72.074219 191.074219 72.636719 C 190.980469 73.207031 190.628906 73.667969 190.027344 74.011719 C 189.566406 74.292969 189.140625 74.410156 188.746094 74.371094 C 188.359375 74.339844 188.027344 74.15625 187.746094 73.824219 C 187.890625 74.34375 187.863281 74.824219 187.667969 75.261719 C 187.480469 75.707031 187.128906 76.082031 186.621094 76.386719 C 185.941406 76.78125 185.296875 76.878906 184.683594 76.683594 C 184.078125 76.484375 183.550781 76.003906 183.105469 75.246094 L 181.683594 72.808594 Z M 191.574219 78.21875 C 191.3125 77.773438 190.90625 77.53125 190.355469 77.5 C 189.8125 77.460938 189.203125 77.636719 188.527344 78.03125 C 187.847656 78.425781 187.390625 78.863281 187.152344 79.34375 C 186.910156 79.832031 186.925781 80.304688 187.199219 80.765625 C 187.457031 81.203125 187.859375 81.4375 188.402344 81.46875 C 188.953125 81.507813 189.5625 81.332031 190.230469 80.9375 C 190.894531 80.550781 191.347656 80.109375 191.589844 79.609375 C 191.839844 79.117188 191.832031 78.65625 191.574219 78.21875 Z M 192.355469 77.75 C 192.78125 78.476563 192.847656 79.203125 192.558594 79.921875 C 192.277344 80.648438 191.671875 81.285156 190.746094 81.828125 C 189.816406 82.367188 188.96875 82.585938 188.199219 82.484375 C 187.425781 82.378906 186.828125 81.960938 186.402344 81.234375 C 185.972656 80.492188 185.902344 79.757813 186.183594 79.03125 C 186.472656 78.3125 187.082031 77.683594 188.011719 77.140625 C 188.9375 76.601563 189.785156 76.382813 190.558594 76.484375 C 191.328125 76.589844 191.925781 77.011719 192.355469 77.75 Z M 190.867188 83.433594 L 194.367188 81.574219 L 194.820313 82.433594 L 191.335938 84.277344 C 190.792969 84.566406 190.433594 84.878906 190.257813 85.214844 C 190.089844 85.558594 190.105469 85.917969 190.304688 86.292969 C 190.554688 86.761719 190.914063 87.042969 191.382813 87.136719 C 191.851563 87.230469 192.371094 87.121094 192.945313 86.808594 L 196.226563 85.074219 L 196.679688 85.933594 L 190.882813 89.011719 L 190.429688 88.152344 L 191.320313 87.667969 C 190.859375 87.667969 190.46875 87.574219 190.148438 87.386719 C 189.835938 87.199219 189.578125 86.921875 189.382813 86.558594 C 189.058594 85.953125 189.023438 85.386719 189.273438 84.855469 C 189.53125 84.332031 190.0625 83.859375 190.867188 83.433594 Z M 195.648438 83.652344 Z M 199.878906 86.488281 L 200.332031 87.347656 L 192.285156 91.628906 L 191.832031 90.769531 Z M 198.742188 96.214844 L 198.289063 96.464844 L 196.179688 92.527344 C 195.542969 92.910156 195.136719 93.347656 194.960938 93.839844 C 194.792969 94.339844 194.859375 94.875 195.164063 95.449219 C 195.339844 95.78125 195.554688 96.078125 195.804688 96.339844 C 196.054688 96.609375 196.355469 96.84375 196.710938 97.042969 L 195.804688 97.527344 C 195.492188 97.296875 195.210938 97.035156 194.960938 96.746094 C 194.710938 96.464844 194.496094 96.160156 194.320313 95.839844 C 193.882813 95.003906 193.804688 94.203125 194.085938 93.433594 C 194.367188 92.660156 194.964844 92.035156 195.882813 91.542969 C 196.828125 91.042969 197.703125 90.878906 198.507813 91.042969 C 199.308594 91.199219 199.917969 91.675781 200.335938 92.464844 C 200.710938 93.160156 200.75 93.84375 200.460938 94.511719 C 200.179688 95.1875 199.605469 95.753906 198.742188 96.214844 Z M 198.570313 95.199219 C 199.078125 94.925781 199.421875 94.578125 199.601563 94.152344 C 199.777344 93.722656 199.75 93.300781 199.523438 92.886719 C 199.273438 92.410156 198.917969 92.105469 198.460938 91.980469 C 198.011719 91.855469 197.5 91.917969 196.929688 92.167969 Z M 201.835938 95.621094 L 202.289063 96.511719 L 198.257813 100.683594 L 203.992188 99.808594 L 204.476563 100.730469 L 197.617188 101.761719 L 197.007813 100.589844 Z M 203.40625 105.804688 C 203.050781 105.105469 202.71875 104.667969 202.40625 104.492188 C 202.09375 104.3125 201.722656 104.335938 201.296875 104.554688 C 200.953125 104.730469 200.726563 104.96875 200.625 105.273438 C 200.53125 105.574219 200.578125 105.902344 200.765625 106.257813 C 201.003906 106.726563 201.382813 107.007813 201.90625 107.101563 C 202.4375 107.203125 203.015625 107.089844 203.640625 106.757813 L 203.859375 106.664063 Z M 204.6875 107.304688 L 201.359375 109.023438 L 200.921875 108.164063 L 201.8125 107.710938 C 201.351563 107.6875 200.960938 107.574219 200.640625 107.367188 C 200.316406 107.15625 200.046875 106.839844 199.828125 106.414063 C 199.546875 105.882813 199.492188 105.371094 199.671875 104.882813 C 199.847656 104.390625 200.21875 104.003906 200.78125 103.710938 C 201.4375 103.378906 202.03125 103.328125 202.5625 103.554688 C 203.101563 103.773438 203.578125 104.277344 203.984375 105.070313 L 204.609375 106.273438 L 204.703125 106.226563 C 205.148438 105.996094 205.425781 105.683594 205.53125 105.289063 C 205.632813 104.902344 205.5625 104.476563 205.3125 104.007813 C 205.164063 103.707031 204.976563 103.4375 204.75 103.195313 C 204.519531 102.957031 204.257813 102.742188 203.96875 102.554688 L 204.859375 102.101563 C 205.148438 102.351563 205.398438 102.613281 205.609375 102.882813 C 205.828125 103.144531 206.007813 103.414063 206.15625 103.695313 C 206.550781 104.453125 206.628906 105.132813 206.390625 105.726563 C 206.148438 106.320313 205.582031 106.84375 204.6875 107.304688 Z M 208.785156 111.292969 C 208.785156 111.175781 208.769531 111.046875 208.738281 110.902344 C 208.714844 110.765625 208.667969 110.628906 208.597656 110.496094 C 208.347656 110.015625 207.976563 109.738281 207.488281 109.652344 C 207.007813 109.570313 206.433594 109.699219 205.769531 110.042969 L 202.691406 111.621094 L 202.253906 110.761719 L 208.097656 107.761719 L 208.535156 108.621094 L 207.628906 109.089844 C 208.074219 109.089844 208.457031 109.195313 208.769531 109.402344 C 209.089844 109.613281 209.355469 109.917969 209.566406 110.324219 C 209.597656 110.386719 209.628906 110.453125 209.660156 110.527344 C 209.699219 110.609375 209.730469 110.699219 209.753906 110.792969 Z M 210.761719 115.859375 L 214.027344 114.4375 L 214.402344 115.328125 L 206.027344 118.953125 L 205.652344 118.0625 L 206.558594 117.671875 C 206.121094 117.640625 205.75 117.519531 205.449219 117.3125 C 205.144531 117.101563 204.910156 116.796875 204.746094 116.390625 C 204.453125 115.734375 204.511719 115.070313 204.917969 114.40625 C 205.324219 113.75 206 113.21875 206.949219 112.8125 C 207.894531 112.398438 208.746094 112.273438 209.496094 112.4375 C 210.253906 112.59375 210.78125 113 211.074219 113.65625 C 211.238281 114.0625 211.296875 114.441406 211.246094 114.796875 C 211.203125 115.160156 211.042969 115.515625 210.761719 115.859375 Z M 207.339844 113.734375 C 206.609375 114.046875 206.09375 114.425781 205.792969 114.875 C 205.5 115.320313 205.457031 115.78125 205.667969 116.25 C 205.863281 116.71875 206.230469 117 206.761719 117.09375 C 207.300781 117.1875 207.9375 117.078125 208.667969 116.765625 C 209.394531 116.453125 209.902344 116.066406 210.183594 115.609375 C 210.472656 115.160156 210.519531 114.703125 210.324219 114.234375 C 210.113281 113.765625 209.746094 113.492188 209.214844 113.40625 C 208.691406 113.3125 208.066406 113.421875 207.339844 113.734375 Z M 207.339844 113.734375 "/>
</g>
</svg>

