<?xml version="1.0" encoding="UTF-8"?>
<svg xmlns="http://www.w3.org/2000/svg" xmlns:xlink="http://www.w3.org/1999/xlink" width="256pt" height="256pt" viewBox="0 0 256 256" version="1.1">
<g id="surface2">
<rect x="0" y="0" width="256" height="256" style="fill:rgb(94.901961%,93.72549%,91.372549%);fill-opacity:1;stroke:none;"/>
<path style="fill:none;stroke-width:2;stroke-linecap:round;stroke-linejoin:round;stroke:rgb(60%,70.196078%,80%);stroke-opacity:1;stroke-miterlimit:10;" d="M 85.902344 258 L 92.496094 253.511719 L 101.496094 249.011719 L 107.003906 246.199219 L 106.046875 231.851563 L 110.175781 212.84375 L 108.917969 190.785156 L 113.382813 176.582031 L 117.679688 166.753906 L 121.144531 162.742188 L 121.085938 153.609375 L 115.859375 138.273438 L 107.59375 132 L 99.253906 131.339844 L 92.484375 134.378906 L 86.230469 137.726563 L 82.730469 129.9375 L 85.289063 122.835938 L 86.378906 115.742188 L 86.148438 99.714844 L 87.148438 93.214844 L 89.148438 72.714844 L 91.496094 55.011719 L 95.496094 46.015625 L 106.148438 35.710938 L 126.996094 28.515625 L 155.5 20.511719 L 167.996094 14.015625 L 182.496094 9.011719 L 188.503906 -3 "/>
<path style="fill:none;stroke-width:1;stroke-linecap:round;stroke-linejoin:round;stroke:rgb(100%,100%,100%);stroke-opacity:1;stroke-dasharray:2,3;stroke-miterlimit:10;" d="M 257 166.027344 L 253.433594 165.515625 L 240.953125 167.917969 L 226.554688 173.199219 L 207.832031 176.558594 L 197.273438 180.875 L 186.714844 189.039063 L 167.992188 192.398438 L 154.070313 186.15625 L 142.070313 177.039063 L 130.070313 168.875 L 130.550781 155.917969 L 124.789063 143.917969 L 118.070313 134.796875 L 108.949219 127.59375 L 95.507813 126.636719 L 88.238281 124.917969 L 85.289063 122.835938 L 75.347656 112.714844 L 64.792969 109.5 L 59.65625 118.722656 L 54.015625 132.34375 L 48.464844 136.234375 L 40.808594 131.792969 L 38.785156 132.363281 L 35.761719 138.269531 L 36.464844 141.515625 L 36.882813 146.554688 L 31.804688 152.105469 L 22.546875 155.917969 L 14.867188 161.675781 L 11.09375 165.304688 L 11.023438 174.636719 L -0.496094 178.480469 L -2 178.507813 "/>
</g>
</svg>

