<?xml version="1.0" encoding="UTF-8"?>
<svg xmlns="http://www.w3.org/2000/svg" xmlns:xlink="http://www.w3.org/1999/xlink" width="256pt" height="256pt" viewBox="0 0 256 256" version="1.1">
<g id="surface2">
<rect x="0" y="0" width="256" height="256" style="fill:rgb(60%,70.196078%,80%);fill-opacity:1;stroke:none;"/>
<path style=" stroke:none;fill-rule:evenodd;fill:rgb(94.901961%,93.72549%,91.372549%);fill-opacity:1;" d="M 259 21.375 L 252.0625 22.871094 L 236.4375 22.371094 L 219.5625 24.75 L 202.3125 28.5 L 184.3125 30.375 L 166.0625 33.375 L 150.0625 36.746094 L 133.3125 39 L 115.6875 42.5 L 99.5625 46 L 82.058594 48 L 64.9375 50.875 L 49.5625 54.5 L 32.3125 55 L 13.8125 57.621094 L -1.4375 61.5 L -4 61.230469 L -4 -4 L 259 -4 Z M 259 21.375 "/>
<path style=" stroke:none;fill-rule:evenodd;fill:rgb(94.901961%,93.72549%,91.372549%);fill-opacity:1;" d="M 32.578125 -4 L 33.433594 2.480469 L 34.8125 2.328125 L 36.695313 13.859375 L 55.0625 11.738281 L 54.53125 8.398438 L 54.148438 7.257813 L 54.300781 5.96875 L 54.984375 4.527344 L 55.667969 3.539063 L 56.125 2.402344 L 55.167969 -4 Z M 32.578125 -4 "/>
<path style="fill:none;stroke-width:1;stroke-linecap:round;stroke-linejoin:round;stroke:rgb(89.019608%,87.058824%,83.137255%);stroke-opacity:1;stroke-miterlimit:10;" d="M 32.578125 -4 L 33.433594 2.480469 L 34.8125 2.328125 L 36.695313 13.859375 L 55.0625 11.738281 L 54.53125 8.398438 L 54.148438 7.257813 L 54.300781 5.96875 L 54.984375 4.527344 L 55.667969 3.539063 L 56.125 2.402344 L 55.167969 -4 L 32.578125 -4 "/>
<path style=" stroke:none;fill-rule:evenodd;fill:rgb(70.980392%,82.352941%,61.176471%);fill-opacity:1;" d="M 84.453125 -4 L 85.351563 2.230469 L 105.015625 -4 Z M 84.453125 -4 "/>
<path style="fill:none;stroke-width:1;stroke-linecap:round;stroke-linejoin:round;stroke:rgb(100%,100%,100%);stroke-opacity:1;stroke-dasharray:2,3;stroke-miterlimit:10;" d="M 8.253906 7.355469 L 9.390625 7.214844 "/>
<path style="fill:none;stroke-width:1;stroke-linecap:round;stroke-linejoin:round;stroke:rgb(100%,100%,100%);stroke-opacity:1;stroke-dasharray:2,3;stroke-miterlimit:10;" d="M 32.566406 3.339844 L 33.9375 3.199219 "/>
<path style="fill:none;stroke-width:1;stroke-linecap:round;stroke-linejoin:round;stroke:rgb(100%,100%,100%);stroke-opacity:1;stroke-dasharray:2,3;stroke-miterlimit:10;" d="M 8.253906 7.355469 L 6.820313 7.53125 "/>
<path style="fill:none;stroke-width:1;stroke-linecap:round;stroke-linejoin:round;stroke:rgb(100%,100%,100%);stroke-opacity:1;stroke-dasharray:2,3;stroke-miterlimit:10;" d="M 82.800781 -0.488281 L 82.9375 1.484375 "/>
<path style="fill:none;stroke-width:1;stroke-linecap:round;stroke-linejoin:round;stroke:rgb(100%,100%,100%);stroke-opacity:1;stroke-dasharray:2,3;stroke-miterlimit:10;" d="M 83.203125 3.039063 L 84.222656 6.65625 "/>
<path style="fill:none;stroke-width:1;stroke-linecap:round;stroke-linejoin:round;stroke:rgb(100%,100%,100%);stroke-opacity:1;stroke-dasharray:2,3;stroke-miterlimit:10;" d="M 6.820313 7.53125 L 8.800781 20.039063 "/>
<path style="fill:none;stroke-width:1;stroke-linecap:round;stroke-linejoin:round;stroke:rgb(100%,100%,100%);stroke-opacity:1;stroke-dasharray:2,3;stroke-miterlimit:10;" d="M 9.390625 7.214844 L 11.246094 20.1875 "/>
<path style="fill:none;stroke-width:1;stroke-linecap:round;stroke-linejoin:round;stroke:rgb(100%,100%,100%);stroke-opacity:1;stroke-dasharray:2,3;stroke-miterlimit:10;" d="M 33.9375 3.199219 L 36.160156 17.460938 "/>
<path style="fill:none;stroke-width:1;stroke-linecap:round;stroke-linejoin:round;stroke:rgb(100%,100%,100%);stroke-opacity:1;stroke-dasharray:2,3;stroke-miterlimit:10;" d="M 57.664063 0.429688 L 59.703125 0.179688 L 61.878906 13.835938 "/>
<path style="fill:none;stroke-width:5;stroke-linecap:round;stroke-linejoin:round;stroke:rgb(75.686275%,70.980392%,61.568627%);stroke-opacity:1;stroke-miterlimit:10;" d="M 123.722656 -6 L 108.414063 -1.109375 L 105.292969 -0.109375 L 103.1875 0.5625 L 84.222656 6.65625 L 61.878906 13.835938 L 58.058594 15.0625 L 36.160156 17.460938 L 11.246094 20.1875 L 8.800781 20.039063 L -6 19.136719 "/>
<path style="fill:none;stroke-width:8;stroke-linecap:round;stroke-linejoin:round;stroke:rgb(75.686275%,70.980392%,61.568627%);stroke-opacity:1;stroke-miterlimit:10;" d="M 30.875 -9 L 32.566406 3.339844 L 33.9375 13.3125 "/>
<path style="fill:none;stroke-width:8;stroke-linecap:round;stroke-linejoin:round;stroke:rgb(75.686275%,70.980392%,61.568627%);stroke-opacity:1;stroke-miterlimit:10;" d="M 56.320313 -9 L 57.664063 0.429688 L 57.539063 3.179688 L 56.789063 5.679688 "/>
<path style="fill:none;stroke-width:8;stroke-linecap:round;stroke-linejoin:round;stroke:rgb(75.686275%,70.980392%,61.568627%);stroke-opacity:1;stroke-miterlimit:10;" d="M 5.902344 -9 L 8.253906 7.355469 L 9.4375 15.5625 "/>
<path style="fill:none;stroke-width:3;stroke-linecap:round;stroke-linejoin:round;stroke:rgb(98.039216%,98.039216%,96.078431%);stroke-opacity:1;stroke-miterlimit:10;" d="M 123.722656 -6 L 108.414063 -1.109375 L 105.292969 -0.109375 L 103.1875 0.5625 L 84.222656 6.65625 L 61.878906 13.835938 L 58.058594 15.0625 L 36.160156 17.460938 L 11.246094 20.1875 L 8.800781 20.039063 L -6 19.136719 "/>
<path style="fill:none;stroke-width:6;stroke-linecap:round;stroke-linejoin:round;stroke:rgb(100%,100%,100%);stroke-opacity:1;stroke-miterlimit:10;" d="M 30.875 -9 L 32.566406 3.339844 L 33.9375 13.3125 "/>
<path style="fill:none;stroke-width:6;stroke-linecap:round;stroke-linejoin:round;stroke:rgb(100%,100%,100%);stroke-opacity:1;stroke-miterlimit:10;" d="M 56.320313 -9 L 57.664063 0.429688 L 57.539063 3.179688 L 56.789063 5.679688 "/>
<path style="fill:none;stroke-width:6;stroke-linecap:round;stroke-linejoin:round;stroke:rgb(100%,100%,100%);stroke-opacity:1;stroke-miterlimit:10;" d="M 5.902344 -9 L 8.253906 7.355469 L 9.4375 15.5625 "/>
</g>
</svg>

