<?xml version="1.0" encoding="UTF-8"?>
<svg xmlns="http://www.w3.org/2000/svg" xmlns:xlink="http://www.w3.org/1999/xlink" width="256pt" height="256pt" viewBox="0 0 256 256" version="1.1">
<g id="surface2">
<rect x="0" y="0" width="256" height="256" style="fill:rgb(60%,70.196078%,80%);fill-opacity:1;stroke:none;"/>
<path style="fill:none;stroke-width:1;stroke-linecap:round;stroke-linejoin:round;stroke:rgb(70.196078%,77.647059%,83.137255%);stroke-opacity:1;stroke-miterlimit:10;" d="M -4 259 L 259 259 L 259 -4 L -4 -4 L -4 259 "/>
<path style="fill:none;stroke-width:6;stroke-linecap:round;stroke-linejoin:round;stroke:rgb(60%,70.196078%,80%);stroke-opacity:1;stroke-miterlimit:10;" d="M 192.851563 -7 L 190.933594 2.839844 L 135.726563 262 "/>
<path style="fill:none;stroke-width:3;stroke-linecap:round;stroke-linejoin:round;stroke:rgb(100%,100%,100%);stroke-opacity:1;stroke-miterlimit:10;" d="M 152.058594 163.777344 L 152.308594 162.652344 L 156.121094 163.449219 L 156.996094 159.339844 L 153.183594 158.542969 L 153.417969 157.417969 L 162.699219 159.386719 L 162.464844 160.511719 L 158.042969 159.574219 L 157.167969 163.683594 L 161.589844 164.621094 L 161.339844 165.746094 Z M 160.390625 156.6875 L 156.1875 155.796875 L 156.40625 154.78125 L 160.578125 155.671875 C 161.234375 155.808594 161.757813 155.796875 162.140625 155.640625 C 162.515625 155.484375 162.75 155.179688 162.84375 154.71875 C 162.96875 154.15625 162.871094 153.671875 162.546875 153.265625 C 162.226563 152.859375 161.71875 152.585938 161.03125 152.4375 L 157.09375 151.59375 L 157.3125 150.5625 L 164.265625 152.046875 L 164.046875 153.078125 L 162.984375 152.84375 C 163.359375 153.1875 163.609375 153.546875 163.734375 153.921875 C 163.867188 154.296875 163.890625 154.710938 163.796875 155.15625 C 163.648438 155.867188 163.285156 156.351563 162.703125 156.609375 C 162.121094 156.871094 161.351563 156.898438 160.390625 156.6875 Z M 156.578125 153.1875 Z M 159.6875 144.554688 L 155.9375 143.742188 L 156.15625 142.726563 L 165.8125 144.789063 L 165.59375 145.804688 L 164.546875 145.585938 C 164.910156 145.890625 165.160156 146.234375 165.296875 146.617188 C 165.429688 146.992188 165.453125 147.410156 165.359375 147.867188 C 165.191406 148.628906 164.722656 149.175781 163.953125 149.507813 C 163.183594 149.832031 162.25 149.878906 161.15625 149.648438 C 160.0625 149.410156 159.230469 148.984375 158.65625 148.367188 C 158.085938 147.753906 157.882813 147.066406 158.046875 146.304688 C 158.140625 145.847656 158.324219 145.472656 158.59375 145.179688 C 158.855469 144.890625 159.21875 144.679688 159.6875 144.554688 Z M 161.375 148.570313 C 162.210938 148.75 162.902344 148.734375 163.453125 148.523438 C 163.996094 148.316406 164.324219 147.941406 164.4375 147.398438 C 164.550781 146.847656 164.40625 146.367188 164 145.960938 C 163.585938 145.546875 162.960938 145.25 162.125 145.070313 C 161.28125 144.882813 160.589844 144.898438 160.046875 145.117188 C 159.507813 145.328125 159.179688 145.707031 159.0625 146.257813 C 158.949219 146.800781 159.09375 147.273438 159.5 147.679688 C 159.90625 148.085938 160.53125 148.382813 161.375 148.570313 Z M 160.355469 137.234375 L 161.433594 137.46875 C 161.207031 137.730469 161.019531 138.007813 160.871094 138.296875 C 160.726563 138.589844 160.621094 138.90625 160.558594 139.25 C 160.445313 139.75 160.449219 140.152344 160.574219 140.453125 C 160.691406 140.746094 160.917969 140.929688 161.261719 141 C 161.535156 141.0625 161.761719 141.015625 161.949219 140.859375 C 162.128906 140.703125 162.347656 140.367188 162.605469 139.84375 L 162.777344 139.53125 C 163.101563 138.824219 163.457031 138.355469 163.839844 138.125 C 164.226563 137.886719 164.699219 137.828125 165.261719 137.953125 C 165.910156 138.089844 166.371094 138.429688 166.652344 138.96875 C 166.933594 139.511719 166.984375 140.183594 166.808594 140.984375 C 166.746094 141.308594 166.636719 141.648438 166.480469 142 C 166.332031 142.355469 166.140625 142.710938 165.902344 143.0625 L 164.730469 142.8125 C 165.035156 142.492188 165.277344 142.15625 165.464844 141.8125 C 165.644531 141.460938 165.773438 141.101563 165.855469 140.734375 C 165.960938 140.257813 165.949219 139.871094 165.824219 139.578125 C 165.691406 139.277344 165.457031 139.089844 165.121094 139.015625 C 164.808594 138.953125 164.550781 139 164.339844 139.15625 C 164.132813 139.304688 163.886719 139.679688 163.605469 140.28125 L 163.433594 140.609375 C 163.152344 141.214844 162.832031 141.632813 162.464844 141.859375 C 162.089844 142.078125 161.632813 142.132813 161.089844 142.015625 C 160.445313 141.871094 159.988281 141.554688 159.714844 141.0625 C 159.445313 140.5625 159.394531 139.929688 159.558594 139.15625 C 159.644531 138.78125 159.753906 138.433594 159.886719 138.109375 C 160.011719 137.789063 160.167969 137.496094 160.355469 137.234375 Z M 161.890625 132.976563 C 161.765625 133.53125 161.914063 134.019531 162.328125 134.445313 C 162.734375 134.863281 163.355469 135.160156 164.1875 135.335938 C 165.023438 135.515625 165.710938 135.492188 166.25 135.273438 C 166.792969 135.054688 167.125 134.671875 167.25 134.117188 C 167.363281 133.566406 167.21875 133.082031 166.8125 132.664063 C 166.398438 132.25 165.777344 131.953125 164.953125 131.773438 C 164.132813 131.597656 163.445313 131.617188 162.890625 131.835938 C 162.339844 132.046875 162.007813 132.425781 161.890625 132.976563 Z M 160.921875 132.773438 C 161.109375 131.878906 161.585938 131.242188 162.34375 130.867188 C 163.09375 130.492188 164.042969 130.429688 165.1875 130.679688 C 166.335938 130.921875 167.171875 131.367188 167.703125 132.023438 C 168.242188 132.671875 168.421875 133.441406 168.234375 134.335938 C 168.035156 135.234375 167.5625 135.867188 166.8125 136.242188 C 166.0625 136.609375 165.117188 136.671875 163.96875 136.429688 C 162.824219 136.179688 161.980469 135.734375 161.4375 135.085938 C 160.898438 134.441406 160.726563 133.671875 160.921875 132.773438 Z M 165.929688 123.617188 L 170.132813 124.507813 L 169.914063 125.539063 L 165.757813 124.648438 C 165.09375 124.515625 164.570313 124.53125 164.195313 124.695313 C 163.820313 124.851563 163.585938 125.160156 163.492188 125.617188 C 163.367188 126.160156 163.46875 126.632813 163.789063 127.039063 C 164.113281 127.445313 164.617188 127.722656 165.304688 127.867188 L 169.226563 128.710938 L 169.007813 129.742188 L 162.054688 128.257813 L 162.273438 127.226563 L 163.351563 127.460938 C 162.988281 127.128906 162.738281 126.773438 162.601563 126.398438 C 162.46875 126.023438 162.445313 125.617188 162.539063 125.179688 C 162.6875 124.460938 163.050781 123.972656 163.632813 123.710938 C 164.207031 123.441406 164.972656 123.410156 165.929688 123.617188 Z M 167.84375 113.894531 C 167.992188 113.675781 168.242188 113.484375 168.59375 113.316406 C 168.9375 113.152344 169.390625 113 169.953125 112.863281 L 172.734375 112.269531 L 172.46875 113.488281 L 169.859375 114.050781 C 169.183594 114.1875 168.71875 114.363281 168.46875 114.582031 C 168.21875 114.800781 168.046875 115.136719 167.953125 115.582031 L 167.6875 116.816406 L 171.59375 117.644531 L 171.34375 118.769531 L 162.0625 116.800781 L 162.609375 114.253906 C 162.820313 113.296875 163.195313 112.628906 163.734375 112.253906 C 164.277344 111.878906 164.996094 111.785156 165.890625 111.972656 C 166.476563 112.097656 166.9375 112.328125 167.28125 112.660156 C 167.617188 112.984375 167.804688 113.394531 167.84375 113.894531 Z M 163.359375 115.894531 L 166.640625 116.582031 L 166.9375 115.160156 C 167.054688 114.609375 167 114.171875 166.78125 113.847656 C 166.5625 113.515625 166.183594 113.292969 165.640625 113.175781 C 165.109375 113.0625 164.679688 113.113281 164.34375 113.332031 C 164 113.542969 163.773438 113.921875 163.65625 114.472656 Z M 166.085938 109.386719 L 166.304688 108.355469 L 173.257813 109.839844 L 173.039063 110.871094 Z M 163.382813 108.808594 L 163.601563 107.777344 L 165.054688 108.089844 L 164.835938 109.121094 Z M 166.605469 106.941406 L 166.824219 105.863281 L 173.089844 105.160156 L 167.667969 101.957031 L 167.902344 100.847656 L 174.355469 104.691406 L 174.058594 106.082031 Z M 172.53125 94.765625 L 173.09375 94.875 L 172.078125 99.609375 C 172.882813 99.734375 173.527344 99.652344 174.015625 99.359375 C 174.507813 99.058594 174.824219 98.570313 174.96875 97.890625 C 175.050781 97.496094 175.078125 97.105469 175.046875 96.71875 C 175.023438 96.324219 174.941406 95.917969 174.796875 95.5 L 175.890625 95.734375 C 175.984375 96.140625 176.035156 96.546875 176.046875 96.953125 C 176.054688 97.359375 176.019531 97.765625 175.9375 98.171875 C 175.726563 99.164063 175.238281 99.882813 174.46875 100.328125 C 173.699219 100.777344 172.761719 100.886719 171.65625 100.65625 C 170.511719 100.40625 169.664063 99.933594 169.109375 99.234375 C 168.558594 98.539063 168.382813 97.71875 168.578125 96.78125 C 168.765625 95.9375 169.214844 95.335938 169.921875 94.96875 C 170.632813 94.605469 171.5 94.539063 172.53125 94.765625 Z M 171.984375 95.734375 C 171.359375 95.601563 170.828125 95.648438 170.390625 95.875 C 169.945313 96.09375 169.667969 96.460938 169.5625 96.96875 C 169.4375 97.554688 169.523438 98.058594 169.8125 98.484375 C 170.09375 98.902344 170.558594 99.203125 171.203125 99.390625 Z M 171.53125 89 C 171.449219 89.09375 171.375 89.210938 171.3125 89.34375 C 171.242188 89.46875 171.1875 89.617188 171.15625 89.78125 C 171.03125 90.355469 171.148438 90.84375 171.5 91.25 C 171.84375 91.648438 172.40625 91.929688 173.1875 92.09375 L 176.859375 92.875 L 176.640625 93.90625 L 169.6875 92.421875 L 169.90625 91.390625 L 170.984375 91.625 C 170.609375 91.3125 170.359375 90.964844 170.234375 90.578125 C 170.101563 90.195313 170.085938 89.757813 170.1875 89.265625 C 170.199219 89.195313 170.21875 89.117188 170.25 89.03125 C 170.28125 88.949219 170.320313 88.855469 170.359375 88.75 Z M 171.53125 89 "/>
<path style=" stroke:none;fill-rule:evenodd;fill:rgb(41.960784%,58.039216%,69.019608%);fill-opacity:1;" d="M 152.058594 163.777344 L 152.308594 162.652344 L 156.121094 163.449219 L 156.996094 159.339844 L 153.183594 158.542969 L 153.417969 157.417969 L 162.699219 159.386719 L 162.464844 160.511719 L 158.042969 159.574219 L 157.167969 163.683594 L 161.589844 164.621094 L 161.339844 165.746094 Z M 160.390625 156.6875 L 156.1875 155.796875 L 156.40625 154.78125 L 160.578125 155.671875 C 161.234375 155.808594 161.757813 155.796875 162.140625 155.640625 C 162.515625 155.484375 162.75 155.179688 162.84375 154.71875 C 162.96875 154.15625 162.871094 153.671875 162.546875 153.265625 C 162.226563 152.859375 161.71875 152.585938 161.03125 152.4375 L 157.09375 151.59375 L 157.3125 150.5625 L 164.265625 152.046875 L 164.046875 153.078125 L 162.984375 152.84375 C 163.359375 153.1875 163.609375 153.546875 163.734375 153.921875 C 163.867188 154.296875 163.890625 154.710938 163.796875 155.15625 C 163.648438 155.867188 163.285156 156.351563 162.703125 156.609375 C 162.121094 156.871094 161.351563 156.898438 160.390625 156.6875 Z M 156.578125 153.1875 Z M 159.6875 144.554688 L 155.9375 143.742188 L 156.15625 142.726563 L 165.8125 144.789063 L 165.59375 145.804688 L 164.546875 145.585938 C 164.910156 145.890625 165.160156 146.234375 165.296875 146.617188 C 165.429688 146.992188 165.453125 147.410156 165.359375 147.867188 C 165.191406 148.628906 164.722656 149.175781 163.953125 149.507813 C 163.183594 149.832031 162.25 149.878906 161.15625 149.648438 C 160.0625 149.410156 159.230469 148.984375 158.65625 148.367188 C 158.085938 147.753906 157.882813 147.066406 158.046875 146.304688 C 158.140625 145.847656 158.324219 145.472656 158.59375 145.179688 C 158.855469 144.890625 159.21875 144.679688 159.6875 144.554688 Z M 161.375 148.570313 C 162.210938 148.75 162.902344 148.734375 163.453125 148.523438 C 163.996094 148.316406 164.324219 147.941406 164.4375 147.398438 C 164.550781 146.847656 164.40625 146.367188 164 145.960938 C 163.585938 145.546875 162.960938 145.25 162.125 145.070313 C 161.28125 144.882813 160.589844 144.898438 160.046875 145.117188 C 159.507813 145.328125 159.179688 145.707031 159.0625 146.257813 C 158.949219 146.800781 159.09375 147.273438 159.5 147.679688 C 159.90625 148.085938 160.53125 148.382813 161.375 148.570313 Z M 160.355469 137.234375 L 161.433594 137.46875 C 161.207031 137.730469 161.019531 138.007813 160.871094 138.296875 C 160.726563 138.589844 160.621094 138.90625 160.558594 139.25 C 160.445313 139.75 160.449219 140.152344 160.574219 140.453125 C 160.691406 140.746094 160.917969 140.929688 161.261719 141 C 161.535156 141.0625 161.761719 141.015625 161.949219 140.859375 C 162.128906 140.703125 162.347656 140.367188 162.605469 139.84375 L 162.777344 139.53125 C 163.101563 138.824219 163.457031 138.355469 163.839844 138.125 C 164.226563 137.886719 164.699219 137.828125 165.261719 137.953125 C 165.910156 138.089844 166.371094 138.429688 166.652344 138.96875 C 166.933594 139.511719 166.984375 140.183594 166.808594 140.984375 C 166.746094 141.308594 166.636719 141.648438 166.480469 142 C 166.332031 142.355469 166.140625 142.710938 165.902344 143.0625 L 164.730469 142.8125 C 165.035156 142.492188 165.277344 142.15625 165.464844 141.8125 C 165.644531 141.460938 165.773438 141.101563 165.855469 140.734375 C 165.960938 140.257813 165.949219 139.871094 165.824219 139.578125 C 165.691406 139.277344 165.457031 139.089844 165.121094 139.015625 C 164.808594 138.953125 164.550781 139 164.339844 139.15625 C 164.132813 139.304688 163.886719 139.679688 163.605469 140.28125 L 163.433594 140.609375 C 163.152344 141.214844 162.832031 141.632813 162.464844 141.859375 C 162.089844 142.078125 161.632813 142.132813 161.089844 142.015625 C 160.445313 141.871094 159.988281 141.554688 159.714844 141.0625 C 159.445313 140.5625 159.394531 139.929688 159.558594 139.15625 C 159.644531 138.78125 159.753906 138.433594 159.886719 138.109375 C 160.011719 137.789063 160.167969 137.496094 160.355469 137.234375 Z M 161.890625 132.976563 C 161.765625 133.53125 161.914063 134.019531 162.328125 134.445313 C 162.734375 134.863281 163.355469 135.160156 164.1875 135.335938 C 165.023438 135.515625 165.710938 135.492188 166.25 135.273438 C 166.792969 135.054688 167.125 134.671875 167.25 134.117188 C 167.363281 133.566406 167.21875 133.082031 166.8125 132.664063 C 166.398438 132.25 165.777344 131.953125 164.953125 131.773438 C 164.132813 131.597656 163.445313 131.617188 162.890625 131.835938 C 162.339844 132.046875 162.007813 132.425781 161.890625 132.976563 Z M 160.921875 132.773438 C 161.109375 131.878906 161.585938 131.242188 162.34375 130.867188 C 163.09375 130.492188 164.042969 130.429688 165.1875 130.679688 C 166.335938 130.921875 167.171875 131.367188 167.703125 132.023438 C 168.242188 132.671875 168.421875 133.441406 168.234375 134.335938 C 168.035156 135.234375 167.5625 135.867188 166.8125 136.242188 C 166.0625 136.609375 165.117188 136.671875 163.96875 136.429688 C 162.824219 136.179688 161.980469 135.734375 161.4375 135.085938 C 160.898438 134.441406 160.726563 133.671875 160.921875 132.773438 Z M 165.929688 123.617188 L 170.132813 124.507813 L 169.914063 125.539063 L 165.757813 124.648438 C 165.09375 124.515625 164.570313 124.53125 164.195313 124.695313 C 163.820313 124.851563 163.585938 125.160156 163.492188 125.617188 C 163.367188 126.160156 163.46875 126.632813 163.789063 127.039063 C 164.113281 127.445313 164.617188 127.722656 165.304688 127.867188 L 169.226563 128.710938 L 169.007813 129.742188 L 162.054688 128.257813 L 162.273438 127.226563 L 163.351563 127.460938 C 162.988281 127.128906 162.738281 126.773438 162.601563 126.398438 C 162.46875 126.023438 162.445313 125.617188 162.539063 125.179688 C 162.6875 124.460938 163.050781 123.972656 163.632813 123.710938 C 164.207031 123.441406 164.972656 123.410156 165.929688 123.617188 Z M 167.84375 113.894531 C 167.992188 113.675781 168.242188 113.484375 168.59375 113.316406 C 168.9375 113.152344 169.390625 113 169.953125 112.863281 L 172.734375 112.269531 L 172.46875 113.488281 L 169.859375 114.050781 C 169.183594 114.1875 168.71875 114.363281 168.46875 114.582031 C 168.21875 114.800781 168.046875 115.136719 167.953125 115.582031 L 167.6875 116.816406 L 171.59375 117.644531 L 171.34375 118.769531 L 162.0625 116.800781 L 162.609375 114.253906 C 162.820313 113.296875 163.195313 112.628906 163.734375 112.253906 C 164.277344 111.878906 164.996094 111.785156 165.890625 111.972656 C 166.476563 112.097656 166.9375 112.328125 167.28125 112.660156 C 167.617188 112.984375 167.804688 113.394531 167.84375 113.894531 Z M 163.359375 115.894531 L 166.640625 116.582031 L 166.9375 115.160156 C 167.054688 114.609375 167 114.171875 166.78125 113.847656 C 166.5625 113.515625 166.183594 113.292969 165.640625 113.175781 C 165.109375 113.0625 164.679688 113.113281 164.34375 113.332031 C 164 113.542969 163.773438 113.921875 163.65625 114.472656 Z M 166.085938 109.386719 L 166.304688 108.355469 L 173.257813 109.839844 L 173.039063 110.871094 Z M 163.382813 108.808594 L 163.601563 107.777344 L 165.054688 108.089844 L 164.835938 109.121094 Z M 166.605469 106.941406 L 166.824219 105.863281 L 173.089844 105.160156 L 167.667969 101.957031 L 167.902344 100.847656 L 174.355469 104.691406 L 174.058594 106.082031 Z M 172.53125 94.765625 L 173.09375 94.875 L 172.078125 99.609375 C 172.882813 99.734375 173.527344 99.652344 174.015625 99.359375 C 174.507813 99.058594 174.824219 98.570313 174.96875 97.890625 C 175.050781 97.496094 175.078125 97.105469 175.046875 96.71875 C 175.023438 96.324219 174.941406 95.917969 174.796875 95.5 L 175.890625 95.734375 C 175.984375 96.140625 176.035156 96.546875 176.046875 96.953125 C 176.054688 97.359375 176.019531 97.765625 175.9375 98.171875 C 175.726563 99.164063 175.238281 99.882813 174.46875 100.328125 C 173.699219 100.777344 172.761719 100.886719 171.65625 100.65625 C 170.511719 100.40625 169.664063 99.933594 169.109375 99.234375 C 168.558594 98.539063 168.382813 97.71875 168.578125 96.78125 C 168.765625 95.9375 169.214844 95.335938 169.921875 94.96875 C 170.632813 94.605469 171.5 94.539063 172.53125 94.765625 Z M 171.984375 95.734375 C 171.359375 95.601563 170.828125 95.648438 170.390625 95.875 C 169.945313 96.09375 169.667969 96.460938 169.5625 96.96875 C 169.4375 97.554688 169.523438 98.058594 169.8125 98.484375 C 170.09375 98.902344 170.558594 99.203125 171.203125 99.390625 Z M 171.53125 89 C 171.449219 89.09375 171.375 89.210938 171.3125 89.34375 C 171.242188 89.46875 171.1875 89.617188 171.15625 89.78125 C 171.03125 90.355469 171.148438 90.84375 171.5 91.25 C 171.84375 91.648438 172.40625 91.929688 173.1875 92.09375 L 176.859375 92.875 L 176.640625 93.90625 L 169.6875 92.421875 L 169.90625 91.390625 L 170.984375 91.625 C 170.609375 91.3125 170.359375 90.964844 170.234375 90.578125 C 170.101563 90.195313 170.085938 89.757813 170.1875 89.265625 C 170.199219 89.195313 170.21875 89.117188 170.25 89.03125 C 170.28125 88.949219 170.320313 88.855469 170.359375 88.75 Z M 171.53125 89 "/>
</g>
</svg>

