<?xml version="1.0" encoding="UTF-8"?>
<svg xmlns="http://www.w3.org/2000/svg" xmlns:xlink="http://www.w3.org/1999/xlink" width="256pt" height="256pt" viewBox="0 0 256 256" version="1.1">
<g id="surface2">
<rect x="0" y="0" width="256" height="256" style="fill:rgb(94.901961%,93.72549%,91.372549%);fill-opacity:1;stroke:none;"/>
<path style="fill:none;stroke-width:1;stroke-linecap:round;stroke-linejoin:round;stroke:rgb(100%,100%,100%);stroke-opacity:1;stroke-dasharray:2,3;stroke-miterlimit:10;" d="M 160.246094 162.257813 L 161.46875 165.214844 L 161.019531 168.242188 L 164.6875 176.992188 L 167.777344 183.492188 L 172.859375 189.414063 L 175.175781 194.945313 L 175.476563 199.4375 "/>
<path style="fill:none;stroke-width:1;stroke-linecap:round;stroke-linejoin:round;stroke:rgb(100%,100%,100%);stroke-opacity:1;stroke-dasharray:2,3;stroke-miterlimit:10;" d="M 37.773438 38.765625 L 35.96875 39.148438 L 34.578125 40.144531 L 32.386719 42.195313 L 29.707031 44.636719 L 28.734375 47.15625 L 26.15625 48.121094 L 24.414063 51.105469 L 22.84375 55.820313 L 21.496094 57.4375 L 19.902344 59.1875 L 16.027344 58.351563 L 10.984375 61.734375 L 5.238281 63.425781 L 4.261719 66.203125 L 4.148438 67.355469 L 2.820313 67.941406 L 3.183594 69.382813 L 1.894531 70.730469 L -2 72.976563 "/>
<path style="fill:none;stroke-width:1;stroke-linecap:round;stroke-linejoin:round;stroke:rgb(100%,100%,100%);stroke-opacity:1;stroke-dasharray:2,3;stroke-miterlimit:10;" d="M 239.382813 257 L 236.4375 255.5 L 221.628906 235.886719 L 204.519531 225.128906 L 187.4375 218.988281 L 178.328125 206.078125 L 175.476563 199.4375 L 181.328125 190.050781 L 180.902344 184.265625 L 176.851563 179.308594 L 171.550781 168.570313 L 160.246094 162.257813 L 151.367188 156.851563 L 143.515625 151.585938 L 132.484375 135.457031 L 126.976563 129.503906 L 119.769531 123.515625 L 105.265625 113.621094 L 102.074219 108.714844 L 95.035156 104.441406 L 88.691406 104.042969 L 74.414063 92.9375 L 71.238281 94.207031 L 68.148438 89.359375 L 66.292969 86.773438 L 63.828125 85.199219 L 58.378906 79.695313 L 54.421875 72.945313 L 49.980469 70.726563 L 43.449219 62.058594 L 38.042969 58.328125 L 36.460938 55.125 L 38.511719 51.988281 L 40.425781 47.835938 L 38.414063 39.761719 L 37.773438 38.765625 "/>
<path style="fill:none;stroke-width:1;stroke-linecap:round;stroke-linejoin:round;stroke:rgb(100%,100%,100%);stroke-opacity:1;stroke-dasharray:2,3;stroke-miterlimit:10;" d="M 37.773438 38.765625 L 40.550781 37.839844 L 41.925781 36.109375 L 42.679688 33.265625 L 43.792969 31.246094 L 44.226563 29.238281 L 46.535156 25.820313 L 52.066406 19.28125 L 54.914063 18.113281 L 56.679688 16.769531 L 59.230469 16.335938 L 61.320313 13.925781 L 64.167969 8.347656 L 67.824219 5.820313 L 69.464844 5.445313 L 70.371094 0.542969 L 72.519531 -0.59375 L 74.542969 -2 "/>
</g>
</svg>

