<?xml version="1.0" encoding="UTF-8"?>
<svg xmlns="http://www.w3.org/2000/svg" xmlns:xlink="http://www.w3.org/1999/xlink" width="256pt" height="256pt" viewBox="0 0 256 256" version="1.1">
<g id="surface2">
<rect x="0" y="0" width="256" height="256" style="fill:rgb(94.901961%,93.72549%,91.372549%);fill-opacity:1;stroke:none;"/>
<path style=" stroke:none;fill-rule:evenodd;fill:rgb(60%,70.196078%,80%);fill-opacity:1;" d="M -4 -4 L 259 -4 L 259 259 L 259 -4 Z M -4 -4 "/>
<path style="fill:none;stroke-width:1;stroke-linecap:round;stroke-linejoin:round;stroke:rgb(70.196078%,77.647059%,83.137255%);stroke-opacity:1;stroke-miterlimit:10;" d="M -4 -4 L 259 -4 L 259 259 L 259 -4 L -4 -4 "/>
<path style="fill:none;stroke-width:8;stroke-linecap:round;stroke-linejoin:round;stroke:rgb(75.686275%,70.980392%,61.568627%);stroke-opacity:1;stroke-miterlimit:10;" d="M 21.273438 124.964844 L 2.902344 121.082031 L -2.761719 120.34375 L -9 119.367188 "/>
<path style="fill:none;stroke-width:8;stroke-linecap:round;stroke-linejoin:round;stroke:rgb(75.686275%,70.980392%,61.568627%);stroke-opacity:1;stroke-miterlimit:10;" d="M 54.324219 169.875 L 49.566406 158.164063 L 44.875 150.503906 L 25.242188 131.351563 L 21.273438 124.964844 L 19.933594 118.503906 L 21.726563 111.699219 L 26.195313 104.277344 L 32.234375 98.863281 L 39.347656 93.632813 L 46.464844 83.488281 L 53.042969 68.636719 L 63.039063 43.105469 L 68.480469 20.953125 L 73.925781 -4.773438 L 75.273438 -9 "/>
<path style="fill:none;stroke-width:8;stroke-linecap:round;stroke-linejoin:round;stroke:rgb(75.686275%,70.980392%,61.568627%);stroke-opacity:1;stroke-miterlimit:10;" d="M 88.320313 264 L 86.167969 257.265625 L 82.519531 243.8125 L 78.242188 232.792969 L 74.125 223.527344 L 58.417969 181.707031 L 54.324219 169.875 L 49.753906 163.699219 L 45.386719 159.957031 L 42.582031 158.605469 L 38.628906 157.738281 L 31.253906 157.976563 L 23.574219 159.21875 L 14.53125 160.886719 L 5.417969 163.710938 L -9 169.679688 "/>
<path style="fill:none;stroke-width:6;stroke-linecap:round;stroke-linejoin:round;stroke:rgb(100%,100%,100%);stroke-opacity:1;stroke-miterlimit:10;" d="M 21.273438 124.964844 L 2.902344 121.082031 L -2.761719 120.34375 L -9 119.367188 "/>
<path style="fill:none;stroke-width:6;stroke-linecap:round;stroke-linejoin:round;stroke:rgb(100%,100%,100%);stroke-opacity:1;stroke-miterlimit:10;" d="M 54.324219 169.875 L 49.566406 158.164063 L 44.875 150.503906 L 25.242188 131.351563 L 21.273438 124.964844 L 19.933594 118.503906 L 21.726563 111.699219 L 26.195313 104.277344 L 32.234375 98.863281 L 39.347656 93.632813 L 46.464844 83.488281 L 53.042969 68.636719 L 63.039063 43.105469 L 68.480469 20.953125 L 73.925781 -4.773438 L 75.273438 -9 "/>
<path style="fill:none;stroke-width:6;stroke-linecap:round;stroke-linejoin:round;stroke:rgb(100%,99.215686%,54.509804%);stroke-opacity:1;stroke-miterlimit:10;" d="M 88.320313 264 L 86.167969 257.265625 L 82.519531 243.8125 L 78.242188 232.792969 L 74.125 223.527344 L 58.417969 181.707031 L 54.324219 169.875 L 49.753906 163.699219 L 45.386719 159.957031 L 42.582031 158.605469 L 38.628906 157.738281 L 31.253906 157.976563 L 23.574219 159.21875 L 14.53125 160.886719 L 5.417969 163.710938 L -9 169.679688 "/>
<path style="fill:none;stroke-width:3;stroke-linecap:round;stroke-linejoin:round;stroke:rgb(100%,100%,100%);stroke-opacity:1;stroke-miterlimit:10;" d="M 19.023438 108.390625 L 22.179688 103.15625 L 22.960938 103.625 L 21.632813 105.8125 L 27.726563 109.484375 L 27.226563 110.328125 L 21.132813 106.65625 L 19.804688 108.859375 Z M 27.347656 105.832031 L 24.769531 103.253906 L 25.394531 102.613281 L 27.941406 105.160156 C 28.339844 105.558594 28.707031 105.792969 29.050781 105.863281 C 29.394531 105.925781 29.707031 105.816406 29.988281 105.535156 C 30.332031 105.191406 30.480469 104.800781 30.441406 104.363281 C 30.398438 103.925781 30.167969 103.5 29.753906 103.082031 L 27.347656 100.675781 L 27.972656 100.050781 L 32.222656 104.300781 L 31.597656 104.925781 L 30.941406 104.269531 C 31.042969 104.6875 31.058594 105.058594 30.988281 105.378906 C 30.914063 105.703125 30.742188 106 30.472656 106.269531 C 30.035156 106.707031 29.542969 106.890625 29.003906 106.816406 C 28.472656 106.734375 27.921875 106.40625 27.347656 105.832031 Z M 26.238281 101.566406 Z M 32.609375 96.417969 L 33.203125 97.136719 C 32.898438 97.167969 32.628906 97.238281 32.390625 97.339844 C 32.152344 97.433594 31.933594 97.566406 31.734375 97.730469 C 31.289063 98.097656 31.070313 98.539063 31.078125 99.058594 C 31.078125 99.582031 31.3125 100.128906 31.78125 100.699219 C 32.25 101.261719 32.734375 101.601563 33.234375 101.714844 C 33.742188 101.820313 34.222656 101.691406 34.671875 101.324219 C 34.867188 101.160156 35.039063 100.964844 35.1875 100.746094 C 35.332031 100.527344 35.457031 100.285156 35.5625 100.011719 L 36.125 100.699219 C 36.019531 100.960938 35.882813 101.207031 35.71875 101.433594 C 35.550781 101.652344 35.351563 101.851563 35.125 102.027344 C 34.488281 102.550781 33.804688 102.742188 33.078125 102.605469 C 32.351563 102.472656 31.679688 102.035156 31.0625 101.292969 C 30.449219 100.535156 30.152344 99.785156 30.171875 99.042969 C 30.183594 98.292969 30.515625 97.648438 31.171875 97.105469 C 31.382813 96.941406 31.609375 96.800781 31.859375 96.683594 C 32.101563 96.570313 32.351563 96.480469 32.609375 96.417969 Z M 32.339844 93.367188 L 33.074219 92.835938 L 35.996094 96.820313 L 36.605469 93.148438 L 37.511719 92.476563 L 36.871094 96.445313 L 41.167969 97.257813 L 40.246094 97.945313 L 36.292969 97.195313 L 38.027344 99.570313 L 37.292969 100.101563 Z M 42.773438 90.03125 L 43.164063 90.3125 L 40.710938 93.578125 C 41.273438 93.964844 41.796875 94.132813 42.273438 94.078125 C 42.75 94.027344 43.167969 93.765625 43.523438 93.296875 C 43.730469 93.027344 43.890625 92.734375 44.007813 92.421875 C 44.121094 92.109375 44.203125 91.765625 44.257813 91.390625 L 44.992188 91.953125 C 44.929688 92.308594 44.824219 92.640625 44.679688 92.953125 C 44.542969 93.265625 44.371094 93.558594 44.164063 93.828125 C 43.640625 94.527344 43.007813 94.914063 42.257813 94.984375 C 41.519531 95.046875 40.765625 94.789063 39.992188 94.203125 C 39.210938 93.621094 38.734375 92.964844 38.554688 92.234375 C 38.378906 91.507813 38.535156 90.8125 39.023438 90.15625 C 39.460938 89.574219 40.019531 89.273438 40.695313 89.25 C 41.363281 89.230469 42.054688 89.492188 42.773438 90.03125 Z M 42.007813 90.546875 C 41.5625 90.234375 41.132813 90.089844 40.726563 90.109375 C 40.3125 90.121094 39.972656 90.296875 39.710938 90.640625 C 39.410156 91.046875 39.296875 91.464844 39.367188 91.890625 C 39.429688 92.320313 39.675781 92.714844 40.101563 93.078125 Z M 43.925781 85.203125 C 43.8125 85.257813 43.707031 85.324219 43.613281 85.40625 C 43.519531 85.480469 43.433594 85.574219 43.347656 85.6875 C 43.058594 86.105469 42.988281 86.527344 43.144531 86.953125 C 43.292969 87.382813 43.640625 87.789063 44.191406 88.171875 L 46.785156 90 L 46.269531 90.734375 L 41.347656 87.28125 L 41.863281 86.546875 L 42.628906 87.078125 C 42.433594 86.714844 42.347656 86.359375 42.378906 86.015625 C 42.402344 85.671875 42.535156 85.328125 42.785156 84.984375 C 42.816406 84.933594 42.859375 84.875 42.910156 84.8125 C 42.964844 84.75 43.019531 84.6875 43.082031 84.625 Z M 48.570313 79.324219 C 48.726563 79.179688 48.960938 79.066406 49.273438 78.980469 C 49.585938 78.898438 49.992188 78.855469 50.492188 78.855469 L 52.898438 78.839844 L 52.476563 79.792969 L 50.210938 79.808594 C 49.640625 79.808594 49.226563 79.878906 48.976563 80.011719 C 48.71875 80.148438 48.507813 80.394531 48.351563 80.746094 L 47.929688 81.714844 L 51.023438 83.089844 L 50.617188 83.980469 L 43.289063 80.730469 L 44.179688 78.714844 C 44.523438 77.957031 44.953125 77.472656 45.460938 77.261719 C 45.972656 77.054688 46.582031 77.105469 47.289063 77.417969 C 47.75 77.628906 48.09375 77.894531 48.320313 78.214844 C 48.539063 78.539063 48.625 78.910156 48.570313 79.324219 Z M 44.507813 80.199219 L 47.101563 81.355469 L 47.585938 80.230469 C 47.785156 79.792969 47.820313 79.417969 47.695313 79.105469 C 47.570313 78.785156 47.296875 78.527344 46.867188 78.339844 C 46.441406 78.152344 46.070313 78.121094 45.757813 78.246094 C 45.445313 78.363281 45.191406 78.636719 44.992188 79.074219 Z M 49.371094 73.664063 C 49.175781 74.101563 49.210938 74.53125 49.480469 74.945313 C 49.742188 75.363281 50.199219 75.71875 50.855469 76.007813 C 51.523438 76.300781 52.101563 76.40625 52.589844 76.320313 C 53.078125 76.238281 53.421875 75.976563 53.621094 75.539063 C 53.808594 75.101563 53.769531 74.675781 53.511719 74.257813 C 53.25 73.832031 52.789063 73.472656 52.121094 73.179688 C 51.464844 72.890625 50.894531 72.789063 50.402344 72.882813 C 49.902344 72.96875 49.558594 73.226563 49.371094 73.664063 Z M 48.621094 73.320313 C 48.933594 72.613281 49.433594 72.171875 50.121094 71.992188 C 50.808594 71.816406 51.601563 71.925781 52.496094 72.320313 C 53.390625 72.71875 54.003906 73.234375 54.339844 73.867188 C 54.683594 74.503906 54.699219 75.175781 54.386719 75.882813 C 54.0625 76.59375 53.558594 77.035156 52.871094 77.210938 C 52.175781 77.378906 51.378906 77.265625 50.480469 76.867188 C 49.585938 76.472656 48.972656 75.960938 48.636719 75.335938 C 48.304688 74.703125 48.300781 74.03125 48.621094 73.320313 Z M 54.011719 68.679688 C 53.730469 69.335938 53.628906 69.832031 53.699219 70.164063 C 53.761719 70.488281 53.996094 70.734375 54.402344 70.898438 C 54.714844 71.035156 55.007813 71.046875 55.277344 70.929688 C 55.546875 70.816406 55.75 70.597656 55.886719 70.273438 C 56.082031 69.816406 56.058594 69.378906 55.808594 68.960938 C 55.566406 68.535156 55.160156 68.195313 54.574219 67.945313 L 54.355469 67.851563 Z M 54.308594 66.882813 L 57.480469 68.210938 L 57.152344 69.023438 L 56.308594 68.679688 C 56.566406 69.015625 56.714844 69.351563 56.746094 69.695313 C 56.785156 70.039063 56.722656 70.414063 56.558594 70.820313 C 56.347656 71.332031 56.019531 71.671875 55.574219 71.835938 C 55.136719 72.003906 54.652344 71.976563 54.121094 71.757813 C 53.496094 71.5 53.105469 71.113281 52.949219 70.601563 C 52.785156 70.09375 52.855469 69.460938 53.167969 68.710938 L 53.652344 67.554688 L 53.558594 67.523438 C 53.144531 67.347656 52.761719 67.335938 52.417969 67.492188 C 52.074219 67.648438 51.808594 67.953125 51.621094 68.398438 C 51.507813 68.679688 51.433594 68.976563 51.402344 69.289063 C 51.363281 69.59375 51.367188 69.898438 51.417969 70.210938 L 50.574219 69.867188 C 50.574219 69.492188 50.601563 69.15625 50.652344 68.851563 C 50.707031 68.550781 50.789063 68.265625 50.902344 67.992188 C 51.207031 67.273438 51.636719 66.820313 52.199219 66.632813 C 52.761719 66.445313 53.464844 66.53125 54.308594 66.882813 Z M 54.753906 61.253906 L 51.722656 60.066406 L 52.050781 59.238281 L 59.832031 62.285156 L 59.503906 63.113281 L 58.660156 62.785156 C 58.929688 63.097656 59.089844 63.421875 59.144531 63.753906 C 59.195313 64.078125 59.152344 64.421875 59.019531 64.785156 C 58.777344 65.402344 58.316406 65.792969 57.628906 65.957031 C 56.941406 66.125 56.15625 66.035156 55.269531 65.691406 C 54.386719 65.347656 53.75 64.878906 53.363281 64.285156 C 52.980469 63.691406 52.90625 63.089844 53.144531 62.472656 C 53.28125 62.109375 53.484375 61.828125 53.753906 61.628906 C 54.015625 61.421875 54.347656 61.296875 54.753906 61.253906 Z M 55.597656 64.832031 C 56.277344 65.105469 56.859375 65.191406 57.347656 65.097656 C 57.828125 64.996094 58.148438 64.722656 58.316406 64.285156 C 58.492188 63.839844 58.433594 63.417969 58.144531 63.019531 C 57.863281 62.625 57.386719 62.292969 56.707031 62.019531 C 56.03125 61.75 55.453125 61.667969 54.972656 61.769531 C 54.484375 61.875 54.152344 62.152344 53.972656 62.597656 C 53.808594 63.035156 53.871094 63.453125 54.160156 63.847656 C 54.441406 64.234375 54.921875 64.5625 55.597656 64.832031 Z M 55.597656 64.832031 "/>
<path style=" stroke:none;fill-rule:evenodd;fill:rgb(20%,20%,20%);fill-opacity:1;" d="M 19.023438 108.390625 L 22.179688 103.15625 L 22.960938 103.625 L 21.632813 105.8125 L 27.726563 109.484375 L 27.226563 110.328125 L 21.132813 106.65625 L 19.804688 108.859375 Z M 27.347656 105.832031 L 24.769531 103.253906 L 25.394531 102.613281 L 27.941406 105.160156 C 28.339844 105.558594 28.707031 105.792969 29.050781 105.863281 C 29.394531 105.925781 29.707031 105.816406 29.988281 105.535156 C 30.332031 105.191406 30.480469 104.800781 30.441406 104.363281 C 30.398438 103.925781 30.167969 103.5 29.753906 103.082031 L 27.347656 100.675781 L 27.972656 100.050781 L 32.222656 104.300781 L 31.597656 104.925781 L 30.941406 104.269531 C 31.042969 104.6875 31.058594 105.058594 30.988281 105.378906 C 30.914063 105.703125 30.742188 106 30.472656 106.269531 C 30.035156 106.707031 29.542969 106.890625 29.003906 106.816406 C 28.472656 106.734375 27.921875 106.40625 27.347656 105.832031 Z M 26.238281 101.566406 Z M 32.609375 96.417969 L 33.203125 97.136719 C 32.898438 97.167969 32.628906 97.238281 32.390625 97.339844 C 32.152344 97.433594 31.933594 97.566406 31.734375 97.730469 C 31.289063 98.097656 31.070313 98.539063 31.078125 99.058594 C 31.078125 99.582031 31.3125 100.128906 31.78125 100.699219 C 32.25 101.261719 32.734375 101.601563 33.234375 101.714844 C 33.742188 101.820313 34.222656 101.691406 34.671875 101.324219 C 34.867188 101.160156 35.039063 100.964844 35.1875 100.746094 C 35.332031 100.527344 35.457031 100.285156 35.5625 100.011719 L 36.125 100.699219 C 36.019531 100.960938 35.882813 101.207031 35.71875 101.433594 C 35.550781 101.652344 35.351563 101.851563 35.125 102.027344 C 34.488281 102.550781 33.804688 102.742188 33.078125 102.605469 C 32.351563 102.472656 31.679688 102.035156 31.0625 101.292969 C 30.449219 100.535156 30.152344 99.785156 30.171875 99.042969 C 30.183594 98.292969 30.515625 97.648438 31.171875 97.105469 C 31.382813 96.941406 31.609375 96.800781 31.859375 96.683594 C 32.101563 96.570313 32.351563 96.480469 32.609375 96.417969 Z M 32.339844 93.367188 L 33.074219 92.835938 L 35.996094 96.820313 L 36.605469 93.148438 L 37.511719 92.476563 L 36.871094 96.445313 L 41.167969 97.257813 L 40.246094 97.945313 L 36.292969 97.195313 L 38.027344 99.570313 L 37.292969 100.101563 Z M 42.773438 90.03125 L 43.164063 90.3125 L 40.710938 93.578125 C 41.273438 93.964844 41.796875 94.132813 42.273438 94.078125 C 42.75 94.027344 43.167969 93.765625 43.523438 93.296875 C 43.730469 93.027344 43.890625 92.734375 44.007813 92.421875 C 44.121094 92.109375 44.203125 91.765625 44.257813 91.390625 L 44.992188 91.953125 C 44.929688 92.308594 44.824219 92.640625 44.679688 92.953125 C 44.542969 93.265625 44.371094 93.558594 44.164063 93.828125 C 43.640625 94.527344 43.007813 94.914063 42.257813 94.984375 C 41.519531 95.046875 40.765625 94.789063 39.992188 94.203125 C 39.210938 93.621094 38.734375 92.964844 38.554688 92.234375 C 38.378906 91.507813 38.535156 90.8125 39.023438 90.15625 C 39.460938 89.574219 40.019531 89.273438 40.695313 89.25 C 41.363281 89.230469 42.054688 89.492188 42.773438 90.03125 Z M 42.007813 90.546875 C 41.5625 90.234375 41.132813 90.089844 40.726563 90.109375 C 40.3125 90.121094 39.972656 90.296875 39.710938 90.640625 C 39.410156 91.046875 39.296875 91.464844 39.367188 91.890625 C 39.429688 92.320313 39.675781 92.714844 40.101563 93.078125 Z M 43.925781 85.203125 C 43.8125 85.257813 43.707031 85.324219 43.613281 85.40625 C 43.519531 85.480469 43.433594 85.574219 43.347656 85.6875 C 43.058594 86.105469 42.988281 86.527344 43.144531 86.953125 C 43.292969 87.382813 43.640625 87.789063 44.191406 88.171875 L 46.785156 90 L 46.269531 90.734375 L 41.347656 87.28125 L 41.863281 86.546875 L 42.628906 87.078125 C 42.433594 86.714844 42.347656 86.359375 42.378906 86.015625 C 42.402344 85.671875 42.535156 85.328125 42.785156 84.984375 C 42.816406 84.933594 42.859375 84.875 42.910156 84.8125 C 42.964844 84.75 43.019531 84.6875 43.082031 84.625 Z M 48.570313 79.324219 C 48.726563 79.179688 48.960938 79.066406 49.273438 78.980469 C 49.585938 78.898438 49.992188 78.855469 50.492188 78.855469 L 52.898438 78.839844 L 52.476563 79.792969 L 50.210938 79.808594 C 49.640625 79.808594 49.226563 79.878906 48.976563 80.011719 C 48.71875 80.148438 48.507813 80.394531 48.351563 80.746094 L 47.929688 81.714844 L 51.023438 83.089844 L 50.617188 83.980469 L 43.289063 80.730469 L 44.179688 78.714844 C 44.523438 77.957031 44.953125 77.472656 45.460938 77.261719 C 45.972656 77.054688 46.582031 77.105469 47.289063 77.417969 C 47.75 77.628906 48.09375 77.894531 48.320313 78.214844 C 48.539063 78.539063 48.625 78.910156 48.570313 79.324219 Z M 44.507813 80.199219 L 47.101563 81.355469 L 47.585938 80.230469 C 47.785156 79.792969 47.820313 79.417969 47.695313 79.105469 C 47.570313 78.785156 47.296875 78.527344 46.867188 78.339844 C 46.441406 78.152344 46.070313 78.121094 45.757813 78.246094 C 45.445313 78.363281 45.191406 78.636719 44.992188 79.074219 Z M 49.371094 73.664063 C 49.175781 74.101563 49.210938 74.53125 49.480469 74.945313 C 49.742188 75.363281 50.199219 75.71875 50.855469 76.007813 C 51.523438 76.300781 52.101563 76.40625 52.589844 76.320313 C 53.078125 76.238281 53.421875 75.976563 53.621094 75.539063 C 53.808594 75.101563 53.769531 74.675781 53.511719 74.257813 C 53.25 73.832031 52.789063 73.472656 52.121094 73.179688 C 51.464844 72.890625 50.894531 72.789063 50.402344 72.882813 C 49.902344 72.96875 49.558594 73.226563 49.371094 73.664063 Z M 48.621094 73.320313 C 48.933594 72.613281 49.433594 72.171875 50.121094 71.992188 C 50.808594 71.816406 51.601563 71.925781 52.496094 72.320313 C 53.390625 72.71875 54.003906 73.234375 54.339844 73.867188 C 54.683594 74.503906 54.699219 75.175781 54.386719 75.882813 C 54.0625 76.59375 53.558594 77.035156 52.871094 77.210938 C 52.175781 77.378906 51.378906 77.265625 50.480469 76.867188 C 49.585938 76.472656 48.972656 75.960938 48.636719 75.335938 C 48.304688 74.703125 48.300781 74.03125 48.621094 73.320313 Z M 54.011719 68.679688 C 53.730469 69.335938 53.628906 69.832031 53.699219 70.164063 C 53.761719 70.488281 53.996094 70.734375 54.402344 70.898438 C 54.714844 71.035156 55.007813 71.046875 55.277344 70.929688 C 55.546875 70.816406 55.75 70.597656 55.886719 70.273438 C 56.082031 69.816406 56.058594 69.378906 55.808594 68.960938 C 55.566406 68.535156 55.160156 68.195313 54.574219 67.945313 L 54.355469 67.851563 Z M 54.308594 66.882813 L 57.480469 68.210938 L 57.152344 69.023438 L 56.308594 68.679688 C 56.566406 69.015625 56.714844 69.351563 56.746094 69.695313 C 56.785156 70.039063 56.722656 70.414063 56.558594 70.820313 C 56.347656 71.332031 56.019531 71.671875 55.574219 71.835938 C 55.136719 72.003906 54.652344 71.976563 54.121094 71.757813 C 53.496094 71.5 53.105469 71.113281 52.949219 70.601563 C 52.785156 70.09375 52.855469 69.460938 53.167969 68.710938 L 53.652344 67.554688 L 53.558594 67.523438 C 53.144531 67.347656 52.761719 67.335938 52.417969 67.492188 C 52.074219 67.648438 51.808594 67.953125 51.621094 68.398438 C 51.507813 68.679688 51.433594 68.976563 51.402344 69.289063 C 51.363281 69.59375 51.367188 69.898438 51.417969 70.210938 L 50.574219 69.867188 C 50.574219 69.492188 50.601563 69.15625 50.652344 68.851563 C 50.707031 68.550781 50.789063 68.265625 50.902344 67.992188 C 51.207031 67.273438 51.636719 66.820313 52.199219 66.632813 C 52.761719 66.445313 53.464844 66.53125 54.308594 66.882813 Z M 54.753906 61.253906 L 51.722656 60.066406 L 52.050781 59.238281 L 59.832031 62.285156 L 59.503906 63.113281 L 58.660156 62.785156 C 58.929688 63.097656 59.089844 63.421875 59.144531 63.753906 C 59.195313 64.078125 59.152344 64.421875 59.019531 64.785156 C 58.777344 65.402344 58.316406 65.792969 57.628906 65.957031 C 56.941406 66.125 56.15625 66.035156 55.269531 65.691406 C 54.386719 65.347656 53.75 64.878906 53.363281 64.285156 C 52.980469 63.691406 52.90625 63.089844 53.144531 62.472656 C 53.28125 62.109375 53.484375 61.828125 53.753906 61.628906 C 54.015625 61.421875 54.347656 61.296875 54.753906 61.253906 Z M 55.597656 64.832031 C 56.277344 65.105469 56.859375 65.191406 57.347656 65.097656 C 57.828125 64.996094 58.148438 64.722656 58.316406 64.285156 C 58.492188 63.839844 58.433594 63.417969 58.144531 63.019531 C 57.863281 62.625 57.386719 62.292969 56.707031 62.019531 C 56.03125 61.75 55.453125 61.667969 54.972656 61.769531 C 54.484375 61.875 54.152344 62.152344 53.972656 62.597656 C 53.808594 63.035156 53.871094 63.453125 54.160156 63.847656 C 54.441406 64.234375 54.921875 64.5625 55.597656 64.832031 Z M 55.597656 64.832031 "/>
</g>
</svg>

