<?xml version="1.0" encoding="UTF-8"?>
<svg xmlns="http://www.w3.org/2000/svg" xmlns:xlink="http://www.w3.org/1999/xlink" width="256pt" height="256pt" viewBox="0 0 256 256" version="1.1">
<g id="surface2">
<rect x="0" y="0" width="256" height="256" style="fill:rgb(94.901961%,93.72549%,91.372549%);fill-opacity:1;stroke:none;"/>
<path style=" stroke:none;fill-rule:evenodd;fill:rgb(60%,70.196078%,80%);fill-opacity:1;" d="M -4 259 L -4 -4 L 259 -4 L -4 -4 Z M -8233201.910156 5335932.789063 Z M -8233201.910156 5335932.789063 "/>
<path style="fill:none;stroke-width:1;stroke-linecap:round;stroke-linejoin:round;stroke:rgb(70.196078%,77.647059%,83.137255%);stroke-opacity:1;stroke-miterlimit:10;" d="M -4 259 L -4 -4 L 259 -4 L -4 -4 L -4 259 "/>
<path style="fill:none;stroke-width:1;stroke-linecap:round;stroke-linejoin:round;stroke:rgb(100%,100%,100%);stroke-opacity:1;stroke-dasharray:2,3;stroke-miterlimit:10;" d="M -2 0.378906 L 0.0546875 -2 "/>
<path style="fill:none;stroke-width:1;stroke-linecap:round;stroke-linejoin:round;stroke:rgb(100%,100%,100%);stroke-opacity:1;stroke-dasharray:2,3;stroke-miterlimit:10;" d="M 257 140.375 L 236.105469 152.65625 L 218.90625 159.839844 L 191.480469 156.648438 L 168.015625 159.839844 L 139.378906 161.917969 L 104.214844 167.089844 L 84.386719 163.898438 L 76.136719 145.851563 L 68.867188 124.035156 L 57.730469 123.460938 L 46.613281 116.882813 L 39.460938 108.066406 L 28.207031 102.828125 L 20.9375 96.535156 L 17.953125 93.789063 L 16.53125 93.019531 L 14.644531 92.796875 L 10.355469 93.4375 L 8.820313 93.5625 L -0.105469 93.019531 L -2 92.972656 "/>
<path style="fill:none;stroke-width:3;stroke-linecap:round;stroke-linejoin:round;stroke:rgb(100%,100%,100%);stroke-opacity:1;stroke-miterlimit:10;" d="M 86.796875 160.773438 L 86.046875 163.695313 L 87.234375 164.007813 C 87.671875 164.125 88.039063 164.085938 88.34375 163.898438 C 88.65625 163.703125 88.875 163.367188 89 162.898438 C 89.113281 162.441406 89.082031 162.054688 88.90625 161.742188 C 88.726563 161.421875 88.421875 161.203125 87.984375 161.085938 Z M 86.0625 159.664063 L 88.203125 160.226563 C 88.984375 160.425781 89.523438 160.773438 89.828125 161.273438 C 90.128906 161.773438 90.179688 162.398438 89.984375 163.148438 C 89.785156 163.921875 89.429688 164.453125 88.921875 164.742188 C 88.421875 165.035156 87.78125 165.082031 87 164.882813 L 85.8125 164.570313 L 85.015625 167.679688 L 84.0625 167.429688 Z M 91.265625 160.601563 L 92.15625 160.742188 L 90.828125 168.992188 L 89.9375 168.851563 Z M 95.558594 166.679688 C 94.847656 166.566406 94.34375 166.582031 94.042969 166.726563 C 93.738281 166.863281 93.550781 167.144531 93.480469 167.570313 C 93.425781 167.914063 93.484375 168.207031 93.652344 168.445313 C 93.828125 168.6875 94.09375 168.835938 94.449219 168.898438 C 94.9375 168.984375 95.359375 168.859375 95.714844 168.523438 C 96.078125 168.179688 96.308594 167.691406 96.402344 167.054688 L 96.449219 166.820313 Z M 97.386719 166.570313 L 96.839844 169.960938 L 95.964844 169.820313 L 96.105469 168.929688 C 95.84375 169.242188 95.546875 169.460938 95.214844 169.585938 C 94.890625 169.710938 94.511719 169.734375 94.074219 169.664063 C 93.53125 169.578125 93.125 169.34375 92.855469 168.960938 C 92.59375 168.566406 92.511719 168.078125 92.605469 167.492188 C 92.707031 166.828125 92.988281 166.359375 93.449219 166.085938 C 93.90625 165.804688 94.535156 165.734375 95.339844 165.867188 L 96.574219 166.070313 L 96.589844 165.976563 C 96.660156 165.53125 96.578125 165.160156 96.339844 164.867188 C 96.109375 164.566406 95.753906 164.378906 95.277344 164.304688 C 94.972656 164.253906 94.671875 164.25 94.371094 164.289063 C 94.066406 164.320313 93.765625 164.398438 93.464844 164.523438 L 93.605469 163.632813 C 93.96875 163.539063 94.300781 163.484375 94.605469 163.460938 C 94.917969 163.441406 95.21875 163.457031 95.511719 163.507813 C 96.28125 163.632813 96.824219 163.953125 97.136719 164.460938 C 97.449219 164.960938 97.53125 165.664063 97.386719 166.570313 Z M 103.671875 167.292969 L 103.15625 170.886719 L 102.28125 170.761719 L 102.796875 167.199219 C 102.878906 166.636719 102.835938 166.199219 102.671875 165.886719 C 102.503906 165.574219 102.226563 165.394531 101.84375 165.339844 C 101.363281 165.269531 100.960938 165.382813 100.640625 165.683594 C 100.328125 165.976563 100.128906 166.410156 100.046875 166.980469 L 99.5625 170.355469 L 98.65625 170.230469 L 99.515625 164.277344 L 100.421875 164.402344 L 100.28125 165.324219 C 100.539063 165.003906 100.820313 164.773438 101.125 164.636719 C 101.4375 164.503906 101.785156 164.460938 102.171875 164.511719 C 102.773438 164.605469 103.207031 164.886719 103.46875 165.355469 C 103.726563 165.824219 103.796875 166.472656 103.671875 167.292969 Z M 104.792969 162.609375 L 105.699219 162.46875 L 106.417969 167.34375 L 108.667969 164.40625 L 109.792969 164.234375 L 107.355469 167.4375 L 110.777344 170.171875 L 109.636719 170.34375 L 106.496094 167.828125 L 106.917969 170.734375 L 106.011719 170.875 Z M 117.714844 165.347656 C 117.933594 165.390625 118.15625 165.527344 118.386719 165.753906 C 118.613281 165.984375 118.871094 166.308594 119.152344 166.722656 L 120.433594 168.753906 L 119.402344 168.894531 L 118.199219 166.988281 C 117.875 166.5 117.589844 166.1875 117.339844 166.050781 C 117.097656 165.90625 116.785156 165.859375 116.402344 165.910156 L 115.355469 166.066406 L 115.855469 169.425781 L 114.871094 169.566406 L 113.699219 161.628906 L 115.886719 161.300781 C 116.707031 161.1875 117.34375 161.292969 117.792969 161.613281 C 118.25 161.9375 118.535156 162.484375 118.652344 163.253906 C 118.722656 163.746094 118.683594 164.171875 118.527344 164.535156 C 118.371094 164.890625 118.097656 165.160156 117.714844 165.347656 Z M 114.824219 162.378906 L 115.230469 165.191406 L 116.433594 165.003906 C 116.902344 164.941406 117.234375 164.777344 117.433594 164.503906 C 117.640625 164.222656 117.714844 163.855469 117.652344 163.394531 C 117.578125 162.925781 117.40625 162.59375 117.136719 162.394531 C 116.863281 162.199219 116.496094 162.128906 116.027344 162.191406 Z M 122.9375 163.003906 C 122.457031 163.066406 122.113281 163.328125 121.90625 163.785156 C 121.695313 164.234375 121.644531 164.8125 121.75 165.519531 C 121.851563 166.230469 122.070313 166.765625 122.40625 167.128906 C 122.738281 167.496094 123.144531 167.644531 123.625 167.582031 C 124.09375 167.511719 124.429688 167.25 124.640625 166.800781 C 124.859375 166.355469 124.914063 165.777344 124.8125 165.066406 C 124.707031 164.359375 124.484375 163.824219 124.140625 163.457031 C 123.804688 163.082031 123.40625 162.933594 122.9375 163.003906 Z M 122.828125 162.175781 C 123.585938 162.0625 124.222656 162.25 124.734375 162.738281 C 125.253906 163.230469 125.585938 163.964844 125.734375 164.941406 C 125.878906 165.910156 125.769531 166.707031 125.40625 167.332031 C 125.050781 167.949219 124.492188 168.3125 123.734375 168.425781 C 122.960938 168.542969 122.320313 168.355469 121.8125 167.863281 C 121.300781 167.363281 120.972656 166.628906 120.828125 165.660156 C 120.683594 164.683594 120.785156 163.886719 121.140625 163.269531 C 121.492188 162.65625 122.054688 162.292969 122.828125 162.175781 Z M 129.625 164.324219 C 128.90625 164.429688 128.421875 164.597656 128.171875 164.824219 C 127.929688 165.054688 127.84375 165.382813 127.90625 165.808594 C 127.957031 166.152344 128.101563 166.414063 128.34375 166.589844 C 128.582031 166.757813 128.875 166.816406 129.21875 166.761719 C 129.71875 166.691406 130.082031 166.441406 130.3125 166.011719 C 130.550781 165.585938 130.625 165.058594 130.53125 164.433594 L 130.5 164.199219 Z M 131.3125 163.667969 L 131.8125 167.074219 L 130.9375 167.199219 L 130.8125 166.308594 C 130.65625 166.695313 130.4375 166.996094 130.15625 167.214844 C 129.882813 167.425781 129.53125 167.566406 129.09375 167.636719 C 128.550781 167.710938 128.09375 167.601563 127.71875 167.308594 C 127.351563 167.019531 127.128906 166.582031 127.046875 165.996094 C 126.941406 165.332031 127.066406 164.800781 127.421875 164.402344 C 127.773438 164.007813 128.351563 163.753906 129.15625 163.636719 L 130.390625 163.449219 L 130.375 163.355469 C 130.300781 162.898438 130.113281 162.570313 129.8125 162.371094 C 129.507813 162.164063 129.113281 162.097656 128.625 162.167969 C 128.320313 162.210938 128.03125 162.292969 127.75 162.417969 C 127.476563 162.535156 127.21875 162.695313 126.96875 162.902344 L 126.84375 162.011719 C 127.15625 161.816406 127.453125 161.664063 127.734375 161.558594 C 128.023438 161.445313 128.316406 161.367188 128.609375 161.324219 C 129.378906 161.210938 129.988281 161.347656 130.4375 161.730469 C 130.882813 162.117188 131.175781 162.761719 131.3125 163.667969 Z M 136.402344 161.222656 L 135.933594 158.019531 L 136.808594 157.894531 L 138.027344 166.160156 L 137.152344 166.285156 L 137.027344 165.394531 C 136.890625 165.78125 136.691406 166.082031 136.433594 166.300781 C 136.171875 166.511719 135.84375 166.640625 135.449219 166.691406 C 134.800781 166.785156 134.234375 166.578125 133.746094 166.066406 C 133.253906 165.558594 132.941406 164.832031 132.808594 163.894531 C 132.675781 162.957031 132.765625 162.171875 133.089844 161.535156 C 133.410156 160.902344 133.894531 160.535156 134.542969 160.441406 C 134.9375 160.390625 135.285156 160.433594 135.589844 160.566406 C 135.890625 160.691406 136.160156 160.910156 136.402344 161.222656 Z M 133.714844 163.753906 C 133.816406 164.472656 134.03125 165.019531 134.355469 165.394531 C 134.675781 165.761719 135.074219 165.90625 135.542969 165.832031 C 136.011719 165.769531 136.347656 165.515625 136.558594 165.066406 C 136.765625 164.621094 136.816406 164.035156 136.714844 163.316406 C 136.609375 162.597656 136.390625 162.058594 136.058594 161.691406 C 135.722656 161.328125 135.324219 161.175781 134.855469 161.238281 C 134.386719 161.3125 134.050781 161.574219 133.855469 162.019531 C 133.65625 162.457031 133.609375 163.035156 133.714844 163.753906 Z M 133.714844 163.753906 "/>
<path style=" stroke:none;fill-rule:evenodd;fill:rgb(20%,20%,20%);fill-opacity:1;" d="M 86.796875 160.773438 L 86.046875 163.695313 L 87.234375 164.007813 C 87.671875 164.125 88.039063 164.085938 88.34375 163.898438 C 88.65625 163.703125 88.875 163.367188 89 162.898438 C 89.113281 162.441406 89.082031 162.054688 88.90625 161.742188 C 88.726563 161.421875 88.421875 161.203125 87.984375 161.085938 Z M 86.0625 159.664063 L 88.203125 160.226563 C 88.984375 160.425781 89.523438 160.773438 89.828125 161.273438 C 90.128906 161.773438 90.179688 162.398438 89.984375 163.148438 C 89.785156 163.921875 89.429688 164.453125 88.921875 164.742188 C 88.421875 165.035156 87.78125 165.082031 87 164.882813 L 85.8125 164.570313 L 85.015625 167.679688 L 84.0625 167.429688 Z M 91.265625 160.601563 L 92.15625 160.742188 L 90.828125 168.992188 L 89.9375 168.851563 Z M 95.558594 166.679688 C 94.847656 166.566406 94.34375 166.582031 94.042969 166.726563 C 93.738281 166.863281 93.550781 167.144531 93.480469 167.570313 C 93.425781 167.914063 93.484375 168.207031 93.652344 168.445313 C 93.828125 168.6875 94.09375 168.835938 94.449219 168.898438 C 94.9375 168.984375 95.359375 168.859375 95.714844 168.523438 C 96.078125 168.179688 96.308594 167.691406 96.402344 167.054688 L 96.449219 166.820313 Z M 97.386719 166.570313 L 96.839844 169.960938 L 95.964844 169.820313 L 96.105469 168.929688 C 95.84375 169.242188 95.546875 169.460938 95.214844 169.585938 C 94.890625 169.710938 94.511719 169.734375 94.074219 169.664063 C 93.53125 169.578125 93.125 169.34375 92.855469 168.960938 C 92.59375 168.566406 92.511719 168.078125 92.605469 167.492188 C 92.707031 166.828125 92.988281 166.359375 93.449219 166.085938 C 93.90625 165.804688 94.535156 165.734375 95.339844 165.867188 L 96.574219 166.070313 L 96.589844 165.976563 C 96.660156 165.53125 96.578125 165.160156 96.339844 164.867188 C 96.109375 164.566406 95.753906 164.378906 95.277344 164.304688 C 94.972656 164.253906 94.671875 164.25 94.371094 164.289063 C 94.066406 164.320313 93.765625 164.398438 93.464844 164.523438 L 93.605469 163.632813 C 93.96875 163.539063 94.300781 163.484375 94.605469 163.460938 C 94.917969 163.441406 95.21875 163.457031 95.511719 163.507813 C 96.28125 163.632813 96.824219 163.953125 97.136719 164.460938 C 97.449219 164.960938 97.53125 165.664063 97.386719 166.570313 Z M 103.671875 167.292969 L 103.15625 170.886719 L 102.28125 170.761719 L 102.796875 167.199219 C 102.878906 166.636719 102.835938 166.199219 102.671875 165.886719 C 102.503906 165.574219 102.226563 165.394531 101.84375 165.339844 C 101.363281 165.269531 100.960938 165.382813 100.640625 165.683594 C 100.328125 165.976563 100.128906 166.410156 100.046875 166.980469 L 99.5625 170.355469 L 98.65625 170.230469 L 99.515625 164.277344 L 100.421875 164.402344 L 100.28125 165.324219 C 100.539063 165.003906 100.820313 164.773438 101.125 164.636719 C 101.4375 164.503906 101.785156 164.460938 102.171875 164.511719 C 102.773438 164.605469 103.207031 164.886719 103.46875 165.355469 C 103.726563 165.824219 103.796875 166.472656 103.671875 167.292969 Z M 104.792969 162.609375 L 105.699219 162.46875 L 106.417969 167.34375 L 108.667969 164.40625 L 109.792969 164.234375 L 107.355469 167.4375 L 110.777344 170.171875 L 109.636719 170.34375 L 106.496094 167.828125 L 106.917969 170.734375 L 106.011719 170.875 Z M 117.714844 165.347656 C 117.933594 165.390625 118.15625 165.527344 118.386719 165.753906 C 118.613281 165.984375 118.871094 166.308594 119.152344 166.722656 L 120.433594 168.753906 L 119.402344 168.894531 L 118.199219 166.988281 C 117.875 166.5 117.589844 166.1875 117.339844 166.050781 C 117.097656 165.90625 116.785156 165.859375 116.402344 165.910156 L 115.355469 166.066406 L 115.855469 169.425781 L 114.871094 169.566406 L 113.699219 161.628906 L 115.886719 161.300781 C 116.707031 161.1875 117.34375 161.292969 117.792969 161.613281 C 118.25 161.9375 118.535156 162.484375 118.652344 163.253906 C 118.722656 163.746094 118.683594 164.171875 118.527344 164.535156 C 118.371094 164.890625 118.097656 165.160156 117.714844 165.347656 Z M 114.824219 162.378906 L 115.230469 165.191406 L 116.433594 165.003906 C 116.902344 164.941406 117.234375 164.777344 117.433594 164.503906 C 117.640625 164.222656 117.714844 163.855469 117.652344 163.394531 C 117.578125 162.925781 117.40625 162.59375 117.136719 162.394531 C 116.863281 162.199219 116.496094 162.128906 116.027344 162.191406 Z M 122.9375 163.003906 C 122.457031 163.066406 122.113281 163.328125 121.90625 163.785156 C 121.695313 164.234375 121.644531 164.8125 121.75 165.519531 C 121.851563 166.230469 122.070313 166.765625 122.40625 167.128906 C 122.738281 167.496094 123.144531 167.644531 123.625 167.582031 C 124.09375 167.511719 124.429688 167.25 124.640625 166.800781 C 124.859375 166.355469 124.914063 165.777344 124.8125 165.066406 C 124.707031 164.359375 124.484375 163.824219 124.140625 163.457031 C 123.804688 163.082031 123.40625 162.933594 122.9375 163.003906 Z M 122.828125 162.175781 C 123.585938 162.0625 124.222656 162.25 124.734375 162.738281 C 125.253906 163.230469 125.585938 163.964844 125.734375 164.941406 C 125.878906 165.910156 125.769531 166.707031 125.40625 167.332031 C 125.050781 167.949219 124.492188 168.3125 123.734375 168.425781 C 122.960938 168.542969 122.320313 168.355469 121.8125 167.863281 C 121.300781 167.363281 120.972656 166.628906 120.828125 165.660156 C 120.683594 164.683594 120.785156 163.886719 121.140625 163.269531 C 121.492188 162.65625 122.054688 162.292969 122.828125 162.175781 Z M 129.625 164.324219 C 128.90625 164.429688 128.421875 164.597656 128.171875 164.824219 C 127.929688 165.054688 127.84375 165.382813 127.90625 165.808594 C 127.957031 166.152344 128.101563 166.414063 128.34375 166.589844 C 128.582031 166.757813 128.875 166.816406 129.21875 166.761719 C 129.71875 166.691406 130.082031 166.441406 130.3125 166.011719 C 130.550781 165.585938 130.625 165.058594 130.53125 164.433594 L 130.5 164.199219 Z M 131.3125 163.667969 L 131.8125 167.074219 L 130.9375 167.199219 L 130.8125 166.308594 C 130.65625 166.695313 130.4375 166.996094 130.15625 167.214844 C 129.882813 167.425781 129.53125 167.566406 129.09375 167.636719 C 128.550781 167.710938 128.09375 167.601563 127.71875 167.308594 C 127.351563 167.019531 127.128906 166.582031 127.046875 165.996094 C 126.941406 165.332031 127.066406 164.800781 127.421875 164.402344 C 127.773438 164.007813 128.351563 163.753906 129.15625 163.636719 L 130.390625 163.449219 L 130.375 163.355469 C 130.300781 162.898438 130.113281 162.570313 129.8125 162.371094 C 129.507813 162.164063 129.113281 162.097656 128.625 162.167969 C 128.320313 162.210938 128.03125 162.292969 127.75 162.417969 C 127.476563 162.535156 127.21875 162.695313 126.96875 162.902344 L 126.84375 162.011719 C 127.15625 161.816406 127.453125 161.664063 127.734375 161.558594 C 128.023438 161.445313 128.316406 161.367188 128.609375 161.324219 C 129.378906 161.210938 129.988281 161.347656 130.4375 161.730469 C 130.882813 162.117188 131.175781 162.761719 131.3125 163.667969 Z M 136.402344 161.222656 L 135.933594 158.019531 L 136.808594 157.894531 L 138.027344 166.160156 L 137.152344 166.285156 L 137.027344 165.394531 C 136.890625 165.78125 136.691406 166.082031 136.433594 166.300781 C 136.171875 166.511719 135.84375 166.640625 135.449219 166.691406 C 134.800781 166.785156 134.234375 166.578125 133.746094 166.066406 C 133.253906 165.558594 132.941406 164.832031 132.808594 163.894531 C 132.675781 162.957031 132.765625 162.171875 133.089844 161.535156 C 133.410156 160.902344 133.894531 160.535156 134.542969 160.441406 C 134.9375 160.390625 135.285156 160.433594 135.589844 160.566406 C 135.890625 160.691406 136.160156 160.910156 136.402344 161.222656 Z M 133.714844 163.753906 C 133.816406 164.472656 134.03125 165.019531 134.355469 165.394531 C 134.675781 165.761719 135.074219 165.90625 135.542969 165.832031 C 136.011719 165.769531 136.347656 165.515625 136.558594 165.066406 C 136.765625 164.621094 136.816406 164.035156 136.714844 163.316406 C 136.609375 162.597656 136.390625 162.058594 136.058594 161.691406 C 135.722656 161.328125 135.324219 161.175781 134.855469 161.238281 C 134.386719 161.3125 134.050781 161.574219 133.855469 162.019531 C 133.65625 162.457031 133.609375 163.035156 133.714844 163.753906 Z M 133.714844 163.753906 "/>
</g>
</svg>

