<?xml version="1.0" encoding="UTF-8"?>
<svg xmlns="http://www.w3.org/2000/svg" xmlns:xlink="http://www.w3.org/1999/xlink" width="256pt" height="256pt" viewBox="0 0 256 256" version="1.1">
<g id="surface2">
<rect x="0" y="0" width="256" height="256" style="fill:rgb(94.901961%,93.72549%,91.372549%);fill-opacity:1;stroke:none;"/>
<path style=" stroke:none;fill-rule:evenodd;fill:rgb(70.980392%,82.352941%,61.176471%);fill-opacity:1;" d="M -4 260 L -4 252.492188 L 51.972656 246.273438 L 91.804688 241.492188 L 119.089844 234.722656 L 154.34375 233.925781 L 172.664063 254.636719 L 209.910156 257.425781 L 260 259.636719 L 260 260 L 260 157.015625 L 223.140625 172.515625 L 171.332031 175.75 L 131.003906 173.535156 L 86.5625 171.164063 L 52.027344 176.863281 L 38.003906 105.851563 L 31.453125 62.988281 L 61.476563 26.839844 L 100.382813 -0.121094 L 125.667969 -4 L 260 -4 L 72.273438 -4 L 51.367188 14.582031 L 28.222656 44.84375 L 21.933594 6.109375 L 4.035156 11.808594 L -4 16.242188 Z M -4 260 "/>
<path style="fill:none;stroke-width:1;stroke-linecap:round;stroke-linejoin:round;stroke:rgb(100%,100%,100%);stroke-opacity:1;stroke-dasharray:2,3;stroke-miterlimit:10;" d="M 144.984375 257 L 131.910156 247.605469 L 118.6875 257 M 107.816406 257 L 85.351563 238.910156 "/>
<path style="fill:none;stroke-width:1;stroke-linecap:round;stroke-linejoin:round;stroke:rgb(100%,100%,100%);stroke-opacity:1;stroke-dasharray:2,3;stroke-miterlimit:10;" d="M -2 249.140625 L 3.328125 248.738281 L 12.4375 251.863281 L 23.367188 252.675781 L 36.394531 253.75 L 66.054688 246.980469 L 85.351563 238.910156 L 99.121094 227.519531 "/>
<path style="fill:none;stroke-width:1;stroke-linecap:round;stroke-linejoin:round;stroke:rgb(100%,100%,100%);stroke-opacity:1;stroke-dasharray:2,3;stroke-miterlimit:10;" d="M 113.988281 -2 L 116.03125 1.292969 L 148.03125 8.292969 L 224.53125 79.292969 L 257 95.613281 "/>
<path style="fill:none;stroke-width:1;stroke-linecap:round;stroke-linejoin:round;stroke:rgb(100%,100%,100%);stroke-opacity:1;stroke-dasharray:2,3;stroke-miterlimit:10;" d="M 177.367188 247.046875 L 187.386719 249.78125 L 202.625 241.976563 L 231.554688 237.90625 L 249.320313 234.847656 L 257 234.859375 "/>
<path style="fill:none;stroke-width:8;stroke-linecap:round;stroke-linejoin:round;stroke:rgb(75.686275%,70.980392%,61.568627%);stroke-opacity:1;stroke-miterlimit:10;" d="M 29.097656 39.949219 L 26.234375 14.625 L 25.535156 4.859375 L 26.117188 2.679688 L 26.652344 1.964844 "/>
<path style="fill:none;stroke-width:8;stroke-linecap:round;stroke-linejoin:round;stroke:rgb(75.686275%,70.980392%,61.568627%);stroke-opacity:1;stroke-miterlimit:10;" d="M -9 4.511719 L -6.15625 4.46875 L 7.078125 1.378906 L 13.371094 1.25 L 20.523438 2.03125 L 26.652344 1.964844 L 33.480469 -3.503906 L 40.648438 -9 "/>
<path style="fill:none;stroke-width:8;stroke-linecap:round;stroke-linejoin:round;stroke:rgb(75.686275%,70.980392%,61.568627%);stroke-opacity:1;stroke-miterlimit:10;" d="M 99.121094 227.519531 L 100.167969 228.496094 L 110.328125 223.289063 L 119.441406 218.863281 L 129.0625 224.363281 L 137.148438 230.125 L 150.152344 224.394531 L 162.410156 230.417969 L 171.238281 236.957031 L 175.945313 244.28125 L 177.367188 247.046875 L 180.375 252.90625 L 185.851563 260.714844 L 190.304688 264 "/>
<path style="fill:none;stroke-width:9;stroke-linecap:round;stroke-linejoin:round;stroke:rgb(75.686275%,70.980392%,61.568627%);stroke-opacity:1;stroke-miterlimit:10;" d="M -10 92.664063 L 5.984375 71.75 L 29.097656 39.949219 L 42.195313 22.664063 L 51.820313 11.664063 L 61.464844 1.964844 L 74.441406 -10 "/>
<path style="fill:none;stroke-width:6;stroke-linecap:round;stroke-linejoin:round;stroke:rgb(100%,100%,100%);stroke-opacity:1;stroke-miterlimit:10;" d="M 29.097656 39.949219 L 26.234375 14.625 L 25.535156 4.859375 L 26.117188 2.679688 L 26.652344 1.964844 "/>
<path style="fill:none;stroke-width:6;stroke-linecap:round;stroke-linejoin:round;stroke:rgb(100%,100%,100%);stroke-opacity:1;stroke-miterlimit:10;" d="M -9 4.511719 L -6.15625 4.46875 L 7.078125 1.378906 L 13.371094 1.25 L 20.523438 2.03125 L 26.652344 1.964844 L 33.480469 -3.503906 L 40.648438 -9 "/>
<path style="fill:none;stroke-width:6;stroke-linecap:round;stroke-linejoin:round;stroke:rgb(100%,100%,100%);stroke-opacity:1;stroke-miterlimit:10;" d="M 99.121094 227.519531 L 100.167969 228.496094 L 110.328125 223.289063 L 119.441406 218.863281 L 129.0625 224.363281 L 137.148438 230.125 L 150.152344 224.394531 L 162.410156 230.417969 L 171.238281 236.957031 L 175.945313 244.28125 L 177.367188 247.046875 L 180.375 252.90625 L 185.851563 260.714844 L 190.304688 264 "/>
<path style="fill:none;stroke-width:7;stroke-linecap:round;stroke-linejoin:round;stroke:rgb(100%,99.215686%,54.509804%);stroke-opacity:1;stroke-miterlimit:10;" d="M -10 92.664063 L 5.984375 71.75 L 29.097656 39.949219 L 42.195313 22.664063 L 51.820313 11.664063 L 61.464844 1.964844 L 74.441406 -10 "/>
<path style="fill:none;stroke-width:3;stroke-linecap:round;stroke-linejoin:round;stroke:rgb(100%,100%,100%);stroke-opacity:1;stroke-miterlimit:10;" d="M 115.90625 194.925781 L 116.890625 194.925781 L 116.890625 202.035156 L 120.40625 202.035156 L 120.40625 202.941406 L 115.90625 202.941406 Z M 123.84375 199.910156 C 123.125 199.910156 122.625 200.003906 122.34375 200.191406 C 122.070313 200.378906 121.9375 200.691406 121.9375 201.128906 C 121.9375 201.472656 122.039063 201.75 122.25 201.957031 C 122.457031 202.167969 122.738281 202.269531 123.09375 202.269531 C 123.59375 202.269531 123.988281 202.078125 124.28125 201.691406 C 124.582031 201.296875 124.734375 200.78125 124.734375 200.144531 L 124.734375 199.910156 Z M 125.625 199.503906 L 125.625 202.941406 L 124.734375 202.941406 L 124.734375 202.035156 C 124.523438 202.402344 124.269531 202.671875 123.96875 202.847656 C 123.664063 203.011719 123.296875 203.097656 122.859375 203.097656 C 122.304688 203.097656 121.863281 202.925781 121.53125 202.582031 C 121.207031 202.238281 121.046875 201.777344 121.046875 201.191406 C 121.046875 200.515625 121.25 200.003906 121.65625 199.660156 C 122.0625 199.316406 122.671875 199.144531 123.484375 199.144531 L 124.734375 199.144531 L 124.734375 199.050781 C 124.734375 198.59375 124.597656 198.238281 124.328125 197.988281 C 124.054688 197.738281 123.675781 197.613281 123.1875 197.613281 C 122.882813 197.613281 122.582031 197.65625 122.28125 197.738281 C 121.988281 197.824219 121.707031 197.949219 121.4375 198.113281 L 121.4375 197.207031 C 121.769531 197.0625 122.085938 196.957031 122.390625 196.894531 C 122.691406 196.824219 122.988281 196.785156 123.28125 196.785156 C 124.0625 196.785156 124.644531 197.011719 125.03125 197.457031 C 125.425781 197.90625 125.625 198.589844 125.625 199.503906 Z M 127.40625 194.582031 L 128.3125 194.582031 L 128.3125 199.519531 L 130.96875 196.925781 L 132.109375 196.925781 L 129.234375 199.738281 L 132.21875 202.941406 L 131.0625 202.941406 L 128.3125 200.003906 L 128.3125 202.941406 L 127.40625 202.941406 Z M 137.8125 199.691406 L 137.8125 200.175781 L 133.71875 200.175781 C 133.757813 200.855469 133.945313 201.371094 134.28125 201.722656 C 134.613281 202.078125 135.070313 202.253906 135.65625 202.253906 C 136 202.253906 136.328125 202.207031 136.640625 202.113281 C 136.960938 202.019531 137.285156 201.886719 137.609375 201.707031 L 137.609375 202.628906 C 137.285156 202.785156 136.957031 202.902344 136.625 202.972656 C 136.289063 203.054688 135.953125 203.097656 135.609375 203.097656 C 134.742188 203.097656 134.054688 202.824219 133.546875 202.269531 C 133.046875 201.707031 132.796875 200.949219 132.796875 199.988281 C 132.796875 199.011719 133.035156 198.234375 133.515625 197.660156 C 133.992188 197.078125 134.640625 196.785156 135.453125 196.785156 C 136.179688 196.785156 136.753906 197.046875 137.171875 197.566406 C 137.597656 198.089844 137.8125 198.796875 137.8125 199.691406 Z M 136.921875 199.394531 C 136.910156 198.855469 136.773438 198.421875 136.515625 198.097656 C 136.253906 197.777344 135.90625 197.613281 135.46875 197.613281 C 134.96875 197.613281 134.566406 197.769531 134.265625 198.082031 C 133.960938 198.394531 133.789063 198.832031 133.75 199.394531 Z M 143.4375 195.816406 L 143.4375 198.832031 L 144.65625 198.832031 C 145.113281 198.832031 145.46875 198.703125 145.71875 198.441406 C 145.96875 198.171875 146.09375 197.796875 146.09375 197.316406 C 146.09375 196.839844 145.96875 196.46875 145.71875 196.207031 C 145.46875 195.949219 145.113281 195.816406 144.65625 195.816406 Z M 142.453125 194.925781 L 144.65625 194.925781 C 145.46875 194.925781 146.078125 195.128906 146.484375 195.535156 C 146.898438 195.941406 147.109375 196.535156 147.109375 197.316406 C 147.109375 198.109375 146.898438 198.707031 146.484375 199.113281 C 146.078125 199.519531 145.46875 199.722656 144.65625 199.722656 L 143.4375 199.722656 L 143.4375 202.941406 L 142.453125 202.941406 Z M 148.390625 194.582031 L 149.28125 194.582031 L 149.28125 202.941406 L 148.390625 202.941406 Z M 153.59375 199.910156 C 152.875 199.910156 152.375 200.003906 152.09375 200.191406 C 151.820313 200.378906 151.6875 200.691406 151.6875 201.128906 C 151.6875 201.472656 151.789063 201.75 152 201.957031 C 152.207031 202.167969 152.488281 202.269531 152.84375 202.269531 C 153.34375 202.269531 153.738281 202.078125 154.03125 201.691406 C 154.332031 201.296875 154.484375 200.78125 154.484375 200.144531 L 154.484375 199.910156 Z M 155.375 199.503906 L 155.375 202.941406 L 154.484375 202.941406 L 154.484375 202.035156 C 154.273438 202.402344 154.019531 202.671875 153.71875 202.847656 C 153.414063 203.011719 153.046875 203.097656 152.609375 203.097656 C 152.054688 203.097656 151.613281 202.925781 151.28125 202.582031 C 150.957031 202.238281 150.796875 201.777344 150.796875 201.191406 C 150.796875 200.515625 151 200.003906 151.40625 199.660156 C 151.8125 199.316406 152.421875 199.144531 153.234375 199.144531 L 154.484375 199.144531 L 154.484375 199.050781 C 154.484375 198.59375 154.347656 198.238281 154.078125 197.988281 C 153.804688 197.738281 153.425781 197.613281 152.9375 197.613281 C 152.632813 197.613281 152.332031 197.65625 152.03125 197.738281 C 151.738281 197.824219 151.457031 197.949219 151.1875 198.113281 L 151.1875 197.207031 C 151.519531 197.0625 151.835938 196.957031 152.140625 196.894531 C 152.441406 196.824219 152.738281 196.785156 153.03125 196.785156 C 153.8125 196.785156 154.394531 197.011719 154.78125 197.457031 C 155.175781 197.90625 155.375 198.589844 155.375 199.503906 Z M 161.09375 197.160156 L 161.09375 198.082031 C 160.84375 197.925781 160.59375 197.8125 160.34375 197.738281 C 160.09375 197.65625 159.835938 197.613281 159.578125 197.613281 C 158.992188 197.613281 158.539063 197.816406 158.21875 198.222656 C 157.90625 198.628906 157.75 199.203125 157.75 199.941406 C 157.75 200.671875 157.90625 201.238281 158.21875 201.644531 C 158.539063 202.050781 158.992188 202.253906 159.578125 202.253906 C 159.835938 202.253906 160.09375 202.21875 160.34375 202.144531 C 160.59375 202.074219 160.84375 201.957031 161.09375 201.800781 L 161.09375 202.707031 C 160.84375 202.84375 160.582031 202.941406 160.3125 203.003906 C 160.050781 203.066406 159.773438 203.097656 159.484375 203.097656 C 158.660156 203.097656 158.007813 202.816406 157.53125 202.253906 C 157.050781 201.683594 156.8125 200.910156 156.8125 199.941406 C 156.8125 198.964844 157.050781 198.191406 157.53125 197.628906 C 158.019531 197.066406 158.6875 196.785156 159.53125 196.785156 C 159.800781 196.785156 160.066406 196.816406 160.328125 196.878906 C 160.597656 196.941406 160.851563 197.035156 161.09375 197.160156 Z M 162.640625 196.925781 L 163.53125 196.925781 L 163.53125 202.941406 L 162.640625 202.941406 Z M 162.640625 194.582031 L 163.53125 194.582031 L 163.53125 195.832031 L 162.640625 195.832031 Z M 168.953125 197.832031 L 168.953125 194.582031 L 169.84375 194.582031 L 169.84375 202.941406 L 168.953125 202.941406 L 168.953125 202.035156 C 168.765625 202.402344 168.523438 202.671875 168.234375 202.847656 C 167.953125 203.011719 167.613281 203.097656 167.21875 203.097656 C 166.5625 203.097656 166.023438 202.8125 165.609375 202.238281 C 165.203125 201.65625 165 200.890625 165 199.941406 C 165 198.996094 165.203125 198.234375 165.609375 197.660156 C 166.023438 197.078125 166.5625 196.785156 167.21875 196.785156 C 167.613281 196.785156 167.953125 196.875 168.234375 197.050781 C 168.523438 197.21875 168.765625 197.480469 168.953125 197.832031 Z M 165.921875 199.941406 C 165.921875 200.671875 166.050781 201.246094 166.3125 201.660156 C 166.582031 202.066406 166.953125 202.269531 167.421875 202.269531 C 167.898438 202.269531 168.273438 202.066406 168.546875 201.660156 C 168.816406 201.246094 168.953125 200.671875 168.953125 199.941406 C 168.953125 199.214844 168.816406 198.644531 168.546875 198.238281 C 168.273438 197.824219 167.898438 197.613281 167.421875 197.613281 C 166.953125 197.613281 166.582031 197.824219 166.3125 198.238281 C 166.050781 198.644531 165.921875 199.214844 165.921875 199.941406 Z M 137.8125 206.535156 L 137.8125 207.691406 C 137.476563 207.347656 137.125 207.09375 136.75 206.925781 C 136.382813 206.761719 135.992188 206.675781 135.578125 206.675781 C 134.753906 206.675781 134.117188 206.957031 133.671875 207.519531 C 133.234375 208.074219 133.015625 208.878906 133.015625 209.941406 C 133.015625 210.996094 133.234375 211.800781 133.671875 212.363281 C 134.117188 212.925781 134.753906 213.207031 135.578125 213.207031 C 135.992188 213.207031 136.382813 213.125 136.75 212.957031 C 137.125 212.792969 137.476563 212.535156 137.8125 212.191406 L 137.8125 213.316406 C 137.46875 213.578125 137.101563 213.777344 136.71875 213.910156 C 136.34375 214.035156 135.941406 214.097656 135.515625 214.097656 C 134.421875 214.097656 133.5625 213.730469 132.9375 212.988281 C 132.3125 212.238281 132 211.222656 132 209.941406 C 132 208.652344 132.3125 207.636719 132.9375 206.894531 C 133.5625 206.144531 134.421875 205.769531 135.515625 205.769531 C 135.953125 205.769531 136.359375 205.839844 136.734375 205.972656 C 137.117188 206.097656 137.476563 206.285156 137.8125 206.535156 Z M 139.28125 205.582031 L 140.171875 205.582031 L 140.171875 213.941406 L 139.28125 213.941406 Z M 141.9375 211.566406 L 141.9375 207.925781 L 142.828125 207.925781 L 142.828125 211.535156 C 142.828125 212.097656 142.925781 212.527344 143.125 212.816406 C 143.320313 213.097656 143.617188 213.238281 144.015625 213.238281 C 144.503906 213.238281 144.882813 213.074219 145.15625 212.738281 C 145.4375 212.394531 145.578125 211.925781 145.578125 211.332031 L 145.578125 207.925781 L 146.46875 207.925781 L 146.46875 213.941406 L 145.578125 213.941406 L 145.578125 213.019531 C 145.359375 213.386719 145.109375 213.65625 144.828125 213.832031 C 144.546875 214.007813 144.210938 214.097656 143.828125 214.097656 C 143.210938 214.097656 142.742188 213.886719 142.421875 213.457031 C 142.097656 213.019531 141.9375 212.390625 141.9375 211.566406 Z M 144.171875 207.785156 Z M 152.1875 210.941406 C 152.1875 210.214844 152.050781 209.644531 151.78125 209.238281 C 151.519531 208.824219 151.15625 208.613281 150.6875 208.613281 C 150.207031 208.613281 149.832031 208.824219 149.5625 209.238281 C 149.300781 209.644531 149.171875 210.214844 149.171875 210.941406 C 149.171875 211.671875 149.300781 212.246094 149.5625 212.660156 C 149.832031 213.066406 150.207031 213.269531 150.6875 213.269531 C 151.15625 213.269531 151.519531 213.066406 151.78125 212.660156 C 152.050781 212.246094 152.1875 211.671875 152.1875 210.941406 Z M 149.171875 208.832031 C 149.359375 208.480469 149.59375 208.21875 149.875 208.050781 C 150.15625 207.875 150.5 207.785156 150.90625 207.785156 C 151.5625 207.785156 152.09375 208.078125 152.5 208.660156 C 152.90625 209.234375 153.109375 209.996094 153.109375 210.941406 C 153.109375 211.890625 152.90625 212.65625 152.5 213.238281 C 152.09375 213.8125 151.5625 214.097656 150.90625 214.097656 C 150.5 214.097656 150.15625 214.011719 149.875 213.847656 C 149.59375 213.671875 149.359375 213.402344 149.171875 213.035156 L 149.171875 213.941406 L 148.265625 213.941406 L 148.265625 205.582031 L 149.171875 205.582031 Z M 149.171875 208.832031 "/>
<path style=" stroke:none;fill-rule:evenodd;fill:rgb(0%,0%,0%);fill-opacity:1;" d="M 115.90625 194.925781 L 116.890625 194.925781 L 116.890625 202.035156 L 120.40625 202.035156 L 120.40625 202.941406 L 115.90625 202.941406 Z M 123.84375 199.910156 C 123.125 199.910156 122.625 200.003906 122.34375 200.191406 C 122.070313 200.378906 121.9375 200.691406 121.9375 201.128906 C 121.9375 201.472656 122.039063 201.75 122.25 201.957031 C 122.457031 202.167969 122.738281 202.269531 123.09375 202.269531 C 123.59375 202.269531 123.988281 202.078125 124.28125 201.691406 C 124.582031 201.296875 124.734375 200.78125 124.734375 200.144531 L 124.734375 199.910156 Z M 125.625 199.503906 L 125.625 202.941406 L 124.734375 202.941406 L 124.734375 202.035156 C 124.523438 202.402344 124.269531 202.671875 123.96875 202.847656 C 123.664063 203.011719 123.296875 203.097656 122.859375 203.097656 C 122.304688 203.097656 121.863281 202.925781 121.53125 202.582031 C 121.207031 202.238281 121.046875 201.777344 121.046875 201.191406 C 121.046875 200.515625 121.25 200.003906 121.65625 199.660156 C 122.0625 199.316406 122.671875 199.144531 123.484375 199.144531 L 124.734375 199.144531 L 124.734375 199.050781 C 124.734375 198.59375 124.597656 198.238281 124.328125 197.988281 C 124.054688 197.738281 123.675781 197.613281 123.1875 197.613281 C 122.882813 197.613281 122.582031 197.65625 122.28125 197.738281 C 121.988281 197.824219 121.707031 197.949219 121.4375 198.113281 L 121.4375 197.207031 C 121.769531 197.0625 122.085938 196.957031 122.390625 196.894531 C 122.691406 196.824219 122.988281 196.785156 123.28125 196.785156 C 124.0625 196.785156 124.644531 197.011719 125.03125 197.457031 C 125.425781 197.90625 125.625 198.589844 125.625 199.503906 Z M 127.40625 194.582031 L 128.3125 194.582031 L 128.3125 199.519531 L 130.96875 196.925781 L 132.109375 196.925781 L 129.234375 199.738281 L 132.21875 202.941406 L 131.0625 202.941406 L 128.3125 200.003906 L 128.3125 202.941406 L 127.40625 202.941406 Z M 137.8125 199.691406 L 137.8125 200.175781 L 133.71875 200.175781 C 133.757813 200.855469 133.945313 201.371094 134.28125 201.722656 C 134.613281 202.078125 135.070313 202.253906 135.65625 202.253906 C 136 202.253906 136.328125 202.207031 136.640625 202.113281 C 136.960938 202.019531 137.285156 201.886719 137.609375 201.707031 L 137.609375 202.628906 C 137.285156 202.785156 136.957031 202.902344 136.625 202.972656 C 136.289063 203.054688 135.953125 203.097656 135.609375 203.097656 C 134.742188 203.097656 134.054688 202.824219 133.546875 202.269531 C 133.046875 201.707031 132.796875 200.949219 132.796875 199.988281 C 132.796875 199.011719 133.035156 198.234375 133.515625 197.660156 C 133.992188 197.078125 134.640625 196.785156 135.453125 196.785156 C 136.179688 196.785156 136.753906 197.046875 137.171875 197.566406 C 137.597656 198.089844 137.8125 198.796875 137.8125 199.691406 Z M 136.921875 199.394531 C 136.910156 198.855469 136.773438 198.421875 136.515625 198.097656 C 136.253906 197.777344 135.90625 197.613281 135.46875 197.613281 C 134.96875 197.613281 134.566406 197.769531 134.265625 198.082031 C 133.960938 198.394531 133.789063 198.832031 133.75 199.394531 Z M 143.4375 195.816406 L 143.4375 198.832031 L 144.65625 198.832031 C 145.113281 198.832031 145.46875 198.703125 145.71875 198.441406 C 145.96875 198.171875 146.09375 197.796875 146.09375 197.316406 C 146.09375 196.839844 145.96875 196.46875 145.71875 196.207031 C 145.46875 195.949219 145.113281 195.816406 144.65625 195.816406 Z M 142.453125 194.925781 L 144.65625 194.925781 C 145.46875 194.925781 146.078125 195.128906 146.484375 195.535156 C 146.898438 195.941406 147.109375 196.535156 147.109375 197.316406 C 147.109375 198.109375 146.898438 198.707031 146.484375 199.113281 C 146.078125 199.519531 145.46875 199.722656 144.65625 199.722656 L 143.4375 199.722656 L 143.4375 202.941406 L 142.453125 202.941406 Z M 148.390625 194.582031 L 149.28125 194.582031 L 149.28125 202.941406 L 148.390625 202.941406 Z M 153.59375 199.910156 C 152.875 199.910156 152.375 200.003906 152.09375 200.191406 C 151.820313 200.378906 151.6875 200.691406 151.6875 201.128906 C 151.6875 201.472656 151.789063 201.75 152 201.957031 C 152.207031 202.167969 152.488281 202.269531 152.84375 202.269531 C 153.34375 202.269531 153.738281 202.078125 154.03125 201.691406 C 154.332031 201.296875 154.484375 200.78125 154.484375 200.144531 L 154.484375 199.910156 Z M 155.375 199.503906 L 155.375 202.941406 L 154.484375 202.941406 L 154.484375 202.035156 C 154.273438 202.402344 154.019531 202.671875 153.71875 202.847656 C 153.414063 203.011719 153.046875 203.097656 152.609375 203.097656 C 152.054688 203.097656 151.613281 202.925781 151.28125 202.582031 C 150.957031 202.238281 150.796875 201.777344 150.796875 201.191406 C 150.796875 200.515625 151 200.003906 151.40625 199.660156 C 151.8125 199.316406 152.421875 199.144531 153.234375 199.144531 L 154.484375 199.144531 L 154.484375 199.050781 C 154.484375 198.59375 154.347656 198.238281 154.078125 197.988281 C 153.804688 197.738281 153.425781 197.613281 152.9375 197.613281 C 152.632813 197.613281 152.332031 197.65625 152.03125 197.738281 C 151.738281 197.824219 151.457031 197.949219 151.1875 198.113281 L 151.1875 197.207031 C 151.519531 197.0625 151.835938 196.957031 152.140625 196.894531 C 152.441406 196.824219 152.738281 196.785156 153.03125 196.785156 C 153.8125 196.785156 154.394531 197.011719 154.78125 197.457031 C 155.175781 197.90625 155.375 198.589844 155.375 199.503906 Z M 161.09375 197.160156 L 161.09375 198.082031 C 160.84375 197.925781 160.59375 197.8125 160.34375 197.738281 C 160.09375 197.65625 159.835938 197.613281 159.578125 197.613281 C 158.992188 197.613281 158.539063 197.816406 158.21875 198.222656 C 157.90625 198.628906 157.75 199.203125 157.75 199.941406 C 157.75 200.671875 157.90625 201.238281 158.21875 201.644531 C 158.539063 202.050781 158.992188 202.253906 159.578125 202.253906 C 159.835938 202.253906 160.09375 202.21875 160.34375 202.144531 C 160.59375 202.074219 160.84375 201.957031 161.09375 201.800781 L 161.09375 202.707031 C 160.84375 202.84375 160.582031 202.941406 160.3125 203.003906 C 160.050781 203.066406 159.773438 203.097656 159.484375 203.097656 C 158.660156 203.097656 158.007813 202.816406 157.53125 202.253906 C 157.050781 201.683594 156.8125 200.910156 156.8125 199.941406 C 156.8125 198.964844 157.050781 198.191406 157.53125 197.628906 C 158.019531 197.066406 158.6875 196.785156 159.53125 196.785156 C 159.800781 196.785156 160.066406 196.816406 160.328125 196.878906 C 160.597656 196.941406 160.851563 197.035156 161.09375 197.160156 Z M 162.640625 196.925781 L 163.53125 196.925781 L 163.53125 202.941406 L 162.640625 202.941406 Z M 162.640625 194.582031 L 163.53125 194.582031 L 163.53125 195.832031 L 162.640625 195.832031 Z M 168.953125 197.832031 L 168.953125 194.582031 L 169.84375 194.582031 L 169.84375 202.941406 L 168.953125 202.941406 L 168.953125 202.035156 C 168.765625 202.402344 168.523438 202.671875 168.234375 202.847656 C 167.953125 203.011719 167.613281 203.097656 167.21875 203.097656 C 166.5625 203.097656 166.023438 202.8125 165.609375 202.238281 C 165.203125 201.65625 165 200.890625 165 199.941406 C 165 198.996094 165.203125 198.234375 165.609375 197.660156 C 166.023438 197.078125 166.5625 196.785156 167.21875 196.785156 C 167.613281 196.785156 167.953125 196.875 168.234375 197.050781 C 168.523438 197.21875 168.765625 197.480469 168.953125 197.832031 Z M 165.921875 199.941406 C 165.921875 200.671875 166.050781 201.246094 166.3125 201.660156 C 166.582031 202.066406 166.953125 202.269531 167.421875 202.269531 C 167.898438 202.269531 168.273438 202.066406 168.546875 201.660156 C 168.816406 201.246094 168.953125 200.671875 168.953125 199.941406 C 168.953125 199.214844 168.816406 198.644531 168.546875 198.238281 C 168.273438 197.824219 167.898438 197.613281 167.421875 197.613281 C 166.953125 197.613281 166.582031 197.824219 166.3125 198.238281 C 166.050781 198.644531 165.921875 199.214844 165.921875 199.941406 Z M 137.8125 206.535156 L 137.8125 207.691406 C 137.476563 207.347656 137.125 207.09375 136.75 206.925781 C 136.382813 206.761719 135.992188 206.675781 135.578125 206.675781 C 134.753906 206.675781 134.117188 206.957031 133.671875 207.519531 C 133.234375 208.074219 133.015625 208.878906 133.015625 209.941406 C 133.015625 210.996094 133.234375 211.800781 133.671875 212.363281 C 134.117188 212.925781 134.753906 213.207031 135.578125 213.207031 C 135.992188 213.207031 136.382813 213.125 136.75 212.957031 C 137.125 212.792969 137.476563 212.535156 137.8125 212.191406 L 137.8125 213.316406 C 137.46875 213.578125 137.101563 213.777344 136.71875 213.910156 C 136.34375 214.035156 135.941406 214.097656 135.515625 214.097656 C 134.421875 214.097656 133.5625 213.730469 132.9375 212.988281 C 132.3125 212.238281 132 211.222656 132 209.941406 C 132 208.652344 132.3125 207.636719 132.9375 206.894531 C 133.5625 206.144531 134.421875 205.769531 135.515625 205.769531 C 135.953125 205.769531 136.359375 205.839844 136.734375 205.972656 C 137.117188 206.097656 137.476563 206.285156 137.8125 206.535156 Z M 139.28125 205.582031 L 140.171875 205.582031 L 140.171875 213.941406 L 139.28125 213.941406 Z M 141.9375 211.566406 L 141.9375 207.925781 L 142.828125 207.925781 L 142.828125 211.535156 C 142.828125 212.097656 142.925781 212.527344 143.125 212.816406 C 143.320313 213.097656 143.617188 213.238281 144.015625 213.238281 C 144.503906 213.238281 144.882813 213.074219 145.15625 212.738281 C 145.4375 212.394531 145.578125 211.925781 145.578125 211.332031 L 145.578125 207.925781 L 146.46875 207.925781 L 146.46875 213.941406 L 145.578125 213.941406 L 145.578125 213.019531 C 145.359375 213.386719 145.109375 213.65625 144.828125 213.832031 C 144.546875 214.007813 144.210938 214.097656 143.828125 214.097656 C 143.210938 214.097656 142.742188 213.886719 142.421875 213.457031 C 142.097656 213.019531 141.9375 212.390625 141.9375 211.566406 Z M 144.171875 207.785156 Z M 152.1875 210.941406 C 152.1875 210.214844 152.050781 209.644531 151.78125 209.238281 C 151.519531 208.824219 151.15625 208.613281 150.6875 208.613281 C 150.207031 208.613281 149.832031 208.824219 149.5625 209.238281 C 149.300781 209.644531 149.171875 210.214844 149.171875 210.941406 C 149.171875 211.671875 149.300781 212.246094 149.5625 212.660156 C 149.832031 213.066406 150.207031 213.269531 150.6875 213.269531 C 151.15625 213.269531 151.519531 213.066406 151.78125 212.660156 C 152.050781 212.246094 152.1875 211.671875 152.1875 210.941406 Z M 149.171875 208.832031 C 149.359375 208.480469 149.59375 208.21875 149.875 208.050781 C 150.15625 207.875 150.5 207.785156 150.90625 207.785156 C 151.5625 207.785156 152.09375 208.078125 152.5 208.660156 C 152.90625 209.234375 153.109375 209.996094 153.109375 210.941406 C 153.109375 211.890625 152.90625 212.65625 152.5 213.238281 C 152.09375 213.8125 151.5625 214.097656 150.90625 214.097656 C 150.5 214.097656 150.15625 214.011719 149.875 213.847656 C 149.59375 213.671875 149.359375 213.402344 149.171875 213.035156 L 149.171875 213.941406 L 148.265625 213.941406 L 148.265625 205.582031 L 149.171875 205.582031 Z M 149.171875 208.832031 "/>
</g>
</svg>

