<?xml version="1.0" encoding="UTF-8"?>
<svg xmlns="http://www.w3.org/2000/svg" xmlns:xlink="http://www.w3.org/1999/xlink" width="256pt" height="256pt" viewBox="0 0 256 256" version="1.1">
<g id="surface2">
<rect x="0" y="0" width="256" height="256" style="fill:rgb(60%,70.196078%,80%);fill-opacity:1;stroke:none;"/>
<path style=" stroke:none;fill-rule:evenodd;fill:rgb(94.901961%,93.72549%,91.372549%);fill-opacity:1;" d="M 115.933594 173.847656 L 115.722656 172.664063 L 115.929688 171.324219 L 116.804688 169.882813 L 117.949219 169.058594 L 119.730469 168.683594 L 121.5625 169.199219 L 122.488281 169.9375 L 123.414063 171.675781 L 123.515625 172.363281 L 123.351563 173.707031 L 123.066406 174.40625 L 122.234375 175.472656 L 120.671875 176.335938 L 118.691406 176.363281 L 116.988281 175.453125 Z M 115.933594 173.847656 "/>
<path style=" stroke:none;fill-rule:evenodd;fill:rgb(94.901961%,93.72549%,91.372549%);fill-opacity:1;" d="M 103.335938 200.441406 L 103.96875 200.460938 L 104.449219 200.640625 L 104.949219 201.03125 L 105.269531 201.546875 L 105.40625 202.164063 L 105.351563 202.695313 L 105.09375 203.273438 L 104.574219 203.777344 L 103.988281 204.023438 L 103.34375 204.050781 L 102.738281 203.859375 L 102.355469 203.59375 L 101.972656 203.089844 L 101.800781 202.613281 L 101.78125 201.980469 L 102.074219 201.226563 L 102.515625 200.769531 Z M 103.335938 200.441406 "/>
<path style=" stroke:none;fill-rule:evenodd;fill:rgb(94.901961%,93.72549%,91.372549%);fill-opacity:1;" d="M -4 -4 L 22.636719 -4 L 36.71875 3.890625 L 34.675781 7.65625 L 31.1875 5.71875 L 21.414063 23.375 L 9.949219 44.285156 L 9.03125 45.964844 L 12.230469 47.746094 L 7.503906 56.265625 L 4.40625 54.402344 L 4.179688 54.8125 L 2.34375 53.804688 L 1.820313 54.519531 L 0.289063 53.886719 L -4 61.613281 L -4 68.9375 L -3.824219 69.050781 L -3.972656 69.472656 L -1.207031 71.125 L -4 76.214844 Z M -4 -4 "/>
</g>
</svg>

