<?xml version="1.0" encoding="UTF-8"?>
<svg xmlns="http://www.w3.org/2000/svg" xmlns:xlink="http://www.w3.org/1999/xlink" width="256pt" height="256pt" viewBox="0 0 256 256" version="1.1">
<g id="surface2">
<rect x="0" y="0" width="256" height="256" style="fill:rgb(94.901961%,93.72549%,91.372549%);fill-opacity:1;stroke:none;"/>
<path style=" stroke:none;fill-rule:evenodd;fill:rgb(60%,70.196078%,80%);fill-opacity:1;" d="M 231.144531 -4 L 231.859375 1.722656 L 229.742188 27.582031 L 243.304688 53.867188 L 259 62.738281 L 259 -4 Z M 231.144531 -4 "/>
<path style="fill:none;stroke-width:1;stroke-linecap:round;stroke-linejoin:round;stroke:rgb(70.196078%,77.647059%,83.137255%);stroke-opacity:1;stroke-miterlimit:10;" d="M 231.144531 -4 L 231.859375 1.722656 L 229.742188 27.582031 L 243.304688 53.867188 L 259 62.738281 L 259 -4 L 231.144531 -4 "/>
<path style="fill:none;stroke-width:8;stroke-linecap:round;stroke-linejoin:round;stroke:rgb(75.686275%,70.980392%,61.568627%);stroke-opacity:1;stroke-miterlimit:10;" d="M 210.222656 77.136719 L 207.964844 76.089844 L 203.582031 75.554688 L 199.316406 75.332031 L 194.542969 73.78125 L 189.34375 71.0625 "/>
<path style="fill:none;stroke-width:8;stroke-linecap:round;stroke-linejoin:round;stroke:rgb(75.686275%,70.980392%,61.568627%);stroke-opacity:1;stroke-miterlimit:10;" d="M 210.222656 77.136719 L 210.851563 73.433594 L 212.625 70.210938 L 214.230469 68.691406 L 215.351563 67.140625 L 215.351563 65.5625 L 207.101563 58.574219 "/>
<path style="fill:none;stroke-width:8;stroke-linecap:round;stroke-linejoin:round;stroke:rgb(75.686275%,70.980392%,61.568627%);stroke-opacity:1;stroke-miterlimit:10;" d="M 251.863281 76.851563 L 248.136719 74.921875 L 244.828125 74.761719 L 238.300781 75.332031 L 234.761719 76.121094 L 229.027344 79 L 223.480469 81.121094 L 219.195313 81.4375 L 214.953125 80.171875 L 210.222656 77.136719 "/>
<path style="fill:none;stroke-width:8;stroke-linecap:round;stroke-linejoin:round;stroke:rgb(75.686275%,70.980392%,61.568627%);stroke-opacity:1;stroke-miterlimit:10;" d="M -9 75.148438 L -6.460938 80.234375 L 2.605469 87.476563 L 11.039063 87.476563 "/>
<path style="fill:none;stroke-width:8;stroke-linecap:round;stroke-linejoin:round;stroke:rgb(75.686275%,70.980392%,61.568627%);stroke-opacity:1;stroke-miterlimit:10;" d="M 264 88.015625 L 260.230469 84.34375 L 254.914063 79.855469 L 253.308594 78.148438 L 251.863281 76.851563 L 228.257813 46.617188 L 224.53125 29.164063 L 223.433594 -7.648438 "/>
<path style="fill:none;stroke-width:8;stroke-linecap:round;stroke-linejoin:round;stroke:rgb(75.686275%,70.980392%,61.568627%);stroke-opacity:1;stroke-miterlimit:10;" d="M -9 0.851563 L -0.445313 -4.578125 L 3.722656 -6.886719 L 7.785156 -9 M 29.320313 -9 L 31.941406 -7.363281 "/>
<path style="fill:none;stroke-width:6;stroke-linecap:round;stroke-linejoin:round;stroke:rgb(100%,100%,100%);stroke-opacity:1;stroke-miterlimit:10;" d="M 210.222656 77.136719 L 207.964844 76.089844 L 203.582031 75.554688 L 199.316406 75.332031 L 194.542969 73.78125 L 189.34375 71.0625 "/>
<path style="fill:none;stroke-width:6;stroke-linecap:round;stroke-linejoin:round;stroke:rgb(100%,100%,100%);stroke-opacity:1;stroke-miterlimit:10;" d="M 210.222656 77.136719 L 210.851563 73.433594 L 212.625 70.210938 L 214.230469 68.691406 L 215.351563 67.140625 L 215.351563 65.5625 L 207.101563 58.574219 "/>
<path style="fill:none;stroke-width:6;stroke-linecap:round;stroke-linejoin:round;stroke:rgb(100%,100%,100%);stroke-opacity:1;stroke-miterlimit:10;" d="M 251.863281 76.851563 L 248.136719 74.921875 L 244.828125 74.761719 L 238.300781 75.332031 L 234.761719 76.121094 L 229.027344 79 L 223.480469 81.121094 L 219.195313 81.4375 L 214.953125 80.171875 L 210.222656 77.136719 "/>
<path style="fill:none;stroke-width:6;stroke-linecap:round;stroke-linejoin:round;stroke:rgb(100%,100%,100%);stroke-opacity:1;stroke-miterlimit:10;" d="M -9 75.148438 L -6.460938 80.234375 L 2.605469 87.476563 L 11.039063 87.476563 "/>
<path style="fill:none;stroke-width:6;stroke-linecap:round;stroke-linejoin:round;stroke:rgb(100%,100%,100%);stroke-opacity:1;stroke-miterlimit:10;" d="M 264 88.015625 L 260.230469 84.34375 L 254.914063 79.855469 L 253.308594 78.148438 L 251.863281 76.851563 L 228.257813 46.617188 L 224.53125 29.164063 L 223.433594 -7.648438 "/>
<path style="fill:none;stroke-width:6;stroke-linecap:round;stroke-linejoin:round;stroke:rgb(100%,100%,100%);stroke-opacity:1;stroke-miterlimit:10;" d="M -9 0.851563 L -0.445313 -4.578125 L 3.722656 -6.886719 L 7.785156 -9 M 29.320313 -9 L 31.941406 -7.363281 "/>
</g>
</svg>

