<?xml version="1.0" encoding="UTF-8"?>
<svg xmlns="http://www.w3.org/2000/svg" xmlns:xlink="http://www.w3.org/1999/xlink" width="256pt" height="256pt" viewBox="0 0 256 256" version="1.1">
<g id="surface2">
<rect x="0" y="0" width="256" height="256" style="fill:rgb(94.901961%,93.72549%,91.372549%);fill-opacity:1;stroke:none;"/>
<path style=" stroke:none;fill-rule:evenodd;fill:rgb(60%,70.196078%,80%);fill-opacity:1;" d="M -4 259 L -4 -4 L 259 -4 L -4 -4 Z M -4 259 "/>
<path style="fill:none;stroke-width:1;stroke-linecap:round;stroke-linejoin:round;stroke:rgb(70.196078%,77.647059%,83.137255%);stroke-opacity:1;stroke-miterlimit:10;" d="M -4 259 L -4 -4 L 259 -4 L -4 -4 L -4 259 "/>
<path style=" stroke:none;fill-rule:evenodd;fill:rgb(60%,70.196078%,80%);fill-opacity:1;" d="M -4 -4 L 259 -4 L 259 259 L 259 -4 L 259 259 L 259 -4 L 259 259 L 259 -4 L 259 259 L 259 -4 Z M -8233168.46875 5353021.242188 Z M -8233168.46875 5354277.675781 Z M -8233168.46875 5354277.675781 "/>
<path style="fill:none;stroke-width:1;stroke-linecap:round;stroke-linejoin:round;stroke:rgb(70.196078%,77.647059%,83.137255%);stroke-opacity:1;stroke-miterlimit:10;" d="M -4 -4 L 259 -4 L 259 259 L 259 -4 L 259 259 L 259 -4 L 259 259 L 259 -4 L 259 259 L 259 -4 L -4 -4 "/>
<path style="fill:none;stroke-width:1;stroke-linecap:round;stroke-linejoin:round;stroke:rgb(100%,100%,100%);stroke-opacity:1;stroke-dasharray:2,3;stroke-miterlimit:10;" d="M 245.960938 257 L 256.5 234.386719 L 257 233.679688 "/>
<path style="fill:none;stroke-width:8;stroke-linecap:round;stroke-linejoin:round;stroke:rgb(75.686275%,70.980392%,61.568627%);stroke-opacity:1;stroke-miterlimit:10;" d="M 264 98.4375 L 243.453125 125.097656 L 235.832031 137.003906 L 235.503906 145.515625 L 237.789063 154.507813 L 235.320313 161.484375 L 228.75 170.863281 L 219.078125 184.175781 "/>
<path style="fill:none;stroke-width:8;stroke-linecap:round;stroke-linejoin:round;stroke:rgb(75.686275%,70.980392%,61.568627%);stroke-opacity:1;stroke-miterlimit:10;" d="M 264 9.023438 L 255.335938 4.886719 L 243.871094 0.277344 L 234.175781 -4.714844 L 228.492188 -8.9375 L 228.425781 -9 "/>
<path style="fill:none;stroke-width:6;stroke-linecap:round;stroke-linejoin:round;stroke:rgb(100%,100%,100%);stroke-opacity:1;stroke-miterlimit:10;" d="M 264 98.4375 L 243.453125 125.097656 L 235.832031 137.003906 L 235.503906 145.515625 L 237.789063 154.507813 L 235.320313 161.484375 L 228.75 170.863281 L 219.078125 184.175781 "/>
<path style="fill:none;stroke-width:6;stroke-linecap:round;stroke-linejoin:round;stroke:rgb(100%,99.215686%,54.509804%);stroke-opacity:1;stroke-miterlimit:10;" d="M 264 9.023438 L 255.335938 4.886719 L 243.871094 0.277344 L 234.175781 -4.714844 L 228.492188 -8.9375 L 228.425781 -9 "/>
</g>
</svg>

