<?xml version="1.0" encoding="UTF-8"?>
<svg xmlns="http://www.w3.org/2000/svg" xmlns:xlink="http://www.w3.org/1999/xlink" width="256pt" height="256pt" viewBox="0 0 256 256" version="1.1">
<g id="surface2">
<rect x="0" y="0" width="256" height="256" style="fill:rgb(60%,70.196078%,80%);fill-opacity:1;stroke:none;"/>
<path style=" stroke:none;fill-rule:evenodd;fill:rgb(94.901961%,93.72549%,91.372549%);fill-opacity:1;" d="M 241.628906 48.824219 L 243.378906 47.945313 L 239.957031 40.132813 L 240.972656 39.503906 L 243.15625 40.226563 L 251.097656 51.4375 L 256.523438 56.632813 L 259 57.878906 L 259 259 L 98.582031 259 L 96.78125 250.726563 L 88.78125 222.726563 L 79.382813 215.125 L 71.78125 215.125 L 59.78125 214.726563 L 45.78125 212.726563 L 42.179688 201.925781 L 39.980469 186.726563 L 37.980469 174.125 L 35.582031 158.324219 L 33.78125 148.523438 L 31.183594 137.726563 L 30.980469 126.128906 L 33.582031 111.324219 L 34.179688 102.328125 L 36.980469 99.523438 L 36.78125 98.324219 L 37.78125 80.523438 L 41.78125 68.128906 L 42.179688 58.726563 L 44.183594 45.125 L 49.179688 18.925781 L 55.179688 7.523438 L 64.941406 -4 L 195.3125 -4 L 201.382813 1.726563 L 222.582031 25.726563 L 231.78125 36.324219 L 237.828125 46.980469 Z M 241.628906 48.824219 "/>
<path style=" stroke:none;fill-rule:evenodd;fill:rgb(81.960784%,81.568627%,80.392157%);fill-opacity:1;" d="M 102.597656 252.464844 L 106.949219 260 L 119.53125 260 L 112.8125 248.433594 L 106.234375 230.589844 L 95.769531 234.300781 Z M 102.597656 252.464844 "/>
<path style="fill:none;stroke-width:1;stroke-linecap:round;stroke-linejoin:round;stroke:rgb(81.960784%,81.960784%,81.960784%);stroke-opacity:1;stroke-miterlimit:10;" d="M 102.597656 252.464844 L 106.949219 260 L 119.53125 260 L 112.8125 248.433594 L 106.234375 230.589844 L 95.769531 234.300781 L 102.597656 252.464844 "/>
<path style=" stroke:none;fill-rule:evenodd;fill:rgb(81.960784%,81.568627%,80.392157%);fill-opacity:1;" d="M 188.992188 197.265625 L 192.597656 203.449219 L 193.601563 203.335938 L 193.628906 208.878906 L 197.652344 215.863281 L 198.746094 216.691406 L 213.191406 216.773438 L 217.886719 214.667969 L 219.300781 214.5625 L 219.808594 196.921875 L 218.101563 195.535156 L 219.761719 193.980469 L 219.808594 187.933594 L 218.359375 189.78125 L 216.648438 191.683594 L 214.824219 192.480469 L 207.175781 192.539063 L 206.808594 194.046875 L 198.066406 194.234375 L 190.1875 196.578125 Z M 196.964844 210.160156 L 197.007813 209.921875 L 201.308594 209.789063 L 201.613281 213.890625 L 199.976563 214.851563 L 199.277344 214.632813 Z M 196.964844 210.160156 "/>
<path style="fill:none;stroke-width:1;stroke-linecap:round;stroke-linejoin:round;stroke:rgb(81.960784%,81.960784%,81.960784%);stroke-opacity:1;stroke-miterlimit:10;" d="M 188.992188 197.265625 L 192.597656 203.449219 L 193.601563 203.335938 L 193.628906 208.878906 L 197.652344 215.863281 L 198.746094 216.691406 L 213.191406 216.773438 L 217.886719 214.667969 L 219.300781 214.5625 L 219.808594 196.921875 L 218.101563 195.535156 L 219.761719 193.980469 L 219.808594 187.933594 L 218.359375 189.78125 L 216.648438 191.683594 L 214.824219 192.480469 L 207.175781 192.539063 L 206.808594 194.046875 L 198.066406 194.234375 L 190.1875 196.578125 L 188.992188 197.265625 M 196.964844 210.160156 L 197.007813 209.921875 L 201.308594 209.789063 L 201.613281 213.890625 L 199.976563 214.851563 L 199.277344 214.632813 L 196.964844 210.160156 "/>
<path style=" stroke:none;fill-rule:evenodd;fill:rgb(81.960784%,81.568627%,80.392157%);fill-opacity:1;" d="M 105.683594 26.371094 L 105.898438 41.855469 L 134.394531 42.445313 L 134.550781 40.601563 L 134.417969 28.292969 L 133.015625 28.203125 L 133.164063 26.3125 L 107.347656 26.355469 Z M 105.683594 26.371094 "/>
<path style="fill:none;stroke-width:1;stroke-linecap:round;stroke-linejoin:round;stroke:rgb(81.960784%,81.960784%,81.960784%);stroke-opacity:1;stroke-miterlimit:10;" d="M 105.683594 26.371094 L 105.898438 41.855469 L 134.394531 42.445313 L 134.550781 40.601563 L 134.417969 28.292969 L 133.015625 28.203125 L 133.164063 26.3125 L 107.347656 26.355469 L 105.683594 26.371094 "/>
<path style=" stroke:none;fill-rule:evenodd;fill:rgb(81.960784%,81.568627%,80.392157%);fill-opacity:1;" d="M 35.460938 133.523438 L 36.277344 151.0625 L 38.097656 157.875 L 38.871094 165.285156 L 40.6875 177.777344 L 43.09375 177.1875 L 41.550781 155.648438 L 47.503906 155.195313 L 49.199219 147.378906 L 43.640625 147.425781 L 42.457031 152.152344 L 41.234375 152.605469 L 41.597656 130.886719 L 41.597656 128.707031 L 41.550781 121.484375 L 41.777344 114.984375 L 42.960938 102.898438 L 43.914063 95.765625 L 42.367188 95.445313 L 40.597656 94.539063 L 38.003906 107.347656 L 35.914063 122.800781 Z M 35.460938 133.523438 "/>
<path style="fill:none;stroke-width:1;stroke-linecap:round;stroke-linejoin:round;stroke:rgb(81.960784%,81.960784%,81.960784%);stroke-opacity:1;stroke-miterlimit:10;" d="M 35.460938 133.523438 L 36.277344 151.0625 L 38.097656 157.875 L 38.871094 165.285156 L 40.6875 177.777344 L 43.09375 177.1875 L 41.550781 155.648438 L 47.503906 155.195313 L 49.199219 147.378906 L 43.640625 147.425781 L 42.457031 152.152344 L 41.234375 152.605469 L 41.597656 130.886719 L 41.597656 128.707031 L 41.550781 121.484375 L 41.777344 114.984375 L 42.960938 102.898438 L 43.914063 95.765625 L 42.367188 95.445313 L 40.597656 94.539063 L 38.003906 107.347656 L 35.914063 122.800781 L 35.460938 133.523438 "/>
<path style=" stroke:none;fill-rule:evenodd;fill:rgb(81.960784%,81.568627%,80.392157%);fill-opacity:1;" d="M 234.21875 180.902344 L 237.515625 181.101563 L 240.460938 181.277344 L 242.664063 144.839844 L 239.648438 144.660156 L 236.421875 144.460938 Z M 234.21875 180.902344 "/>
<path style="fill:none;stroke-width:1;stroke-linecap:round;stroke-linejoin:round;stroke:rgb(81.960784%,81.960784%,81.960784%);stroke-opacity:1;stroke-miterlimit:10;" d="M 234.21875 180.902344 L 237.515625 181.101563 L 240.460938 181.277344 L 242.664063 144.839844 L 239.648438 144.660156 L 236.421875 144.460938 L 234.21875 180.902344 "/>
<path style=" stroke:none;fill-rule:evenodd;fill:rgb(81.960784%,81.568627%,80.392157%);fill-opacity:1;" d="M 216.171875 177.441406 L 220.304688 177.476563 L 223.488281 135.652344 L 221.128906 133.875 L 219.929688 134.933594 Z M 216.171875 177.441406 "/>
<path style="fill:none;stroke-width:1;stroke-linecap:round;stroke-linejoin:round;stroke:rgb(81.960784%,81.960784%,81.960784%);stroke-opacity:1;stroke-miterlimit:10;" d="M 216.171875 177.441406 L 220.304688 177.476563 L 223.488281 135.652344 L 221.128906 133.875 L 219.929688 134.933594 L 216.171875 177.441406 "/>
<path style=" stroke:none;fill-rule:evenodd;fill:rgb(81.960784%,81.568627%,80.392157%);fill-opacity:1;" d="M 233.761719 213.332031 L 236.40625 213.417969 L 238.792969 213.492188 L 239.992188 191.945313 L 234.839844 191.855469 Z M 233.761719 213.332031 "/>
<path style="fill:none;stroke-width:1;stroke-linecap:round;stroke-linejoin:round;stroke:rgb(81.960784%,81.960784%,81.960784%);stroke-opacity:1;stroke-miterlimit:10;" d="M 233.761719 213.332031 L 236.40625 213.417969 L 238.792969 213.492188 L 239.992188 191.945313 L 234.839844 191.855469 L 233.761719 213.332031 "/>
<path style=" stroke:none;fill-rule:evenodd;fill:rgb(81.960784%,81.568627%,80.392157%);fill-opacity:1;" d="M 230.984375 53.539063 L 241.488281 62.976563 L 243.984375 60.160156 L 246.796875 55.535156 L 234.859375 49.535156 Z M 230.984375 53.539063 "/>
<path style="fill:none;stroke-width:1;stroke-linecap:round;stroke-linejoin:round;stroke:rgb(81.960784%,81.960784%,81.960784%);stroke-opacity:1;stroke-miterlimit:10;" d="M 230.984375 53.539063 L 241.488281 62.976563 L 243.984375 60.160156 L 246.796875 55.535156 L 234.859375 49.535156 L 230.984375 53.539063 "/>
<path style=" stroke:none;fill-rule:evenodd;fill:rgb(81.960784%,81.568627%,80.392157%);fill-opacity:1;" d="M 40.414063 88.042969 L 44.003906 89.085938 L 47.820313 57.417969 L 44.867188 57.871094 L 43.09375 72.5 L 41.640625 80.953125 Z M 40.414063 88.042969 "/>
<path style="fill:none;stroke-width:1;stroke-linecap:round;stroke-linejoin:round;stroke:rgb(81.960784%,81.960784%,81.960784%);stroke-opacity:1;stroke-miterlimit:10;" d="M 40.414063 88.042969 L 44.003906 89.085938 L 47.820313 57.417969 L 44.867188 57.871094 L 43.09375 72.5 L 41.640625 80.953125 L 40.414063 88.042969 "/>
<path style=" stroke:none;fill-rule:evenodd;fill:rgb(81.960784%,81.568627%,80.392157%);fill-opacity:1;" d="M 135.546875 39.808594 L 138.617188 39.683594 L 138.648438 34.945313 L 138.691406 27.964844 L 138.40625 25.410156 L 135.984375 25.410156 Z M 135.546875 39.808594 "/>
<path style="fill:none;stroke-width:1;stroke-linecap:round;stroke-linejoin:round;stroke:rgb(81.960784%,81.960784%,81.960784%);stroke-opacity:1;stroke-miterlimit:10;" d="M 135.546875 39.808594 L 138.617188 39.683594 L 138.648438 34.945313 L 138.691406 27.964844 L 138.40625 25.410156 L 135.984375 25.410156 L 135.546875 39.808594 "/>
<path style=" stroke:none;fill-rule:evenodd;fill:rgb(81.960784%,81.568627%,80.392157%);fill-opacity:1;" d="M 234.253906 76.882813 L 234.523438 87.1875 L 238.015625 87.015625 L 237.609375 76.476563 Z M 234.253906 76.882813 "/>
<path style="fill:none;stroke-width:1;stroke-linecap:round;stroke-linejoin:round;stroke:rgb(81.960784%,81.960784%,81.960784%);stroke-opacity:1;stroke-miterlimit:10;" d="M 234.253906 76.882813 L 234.523438 87.1875 L 238.015625 87.015625 L 237.609375 76.476563 L 234.253906 76.882813 "/>
<path style=" stroke:none;fill-rule:evenodd;fill:rgb(81.960784%,81.568627%,80.392157%);fill-opacity:1;" d="M 234.0625 128.410156 L 235.109375 130.292969 L 235.34375 128.570313 L 237.105469 128.742188 L 237.898438 118.339844 L 234.550781 118.195313 Z M 234.0625 128.410156 "/>
<path style="fill:none;stroke-width:1;stroke-linecap:round;stroke-linejoin:round;stroke:rgb(81.960784%,81.960784%,81.960784%);stroke-opacity:1;stroke-miterlimit:10;" d="M 234.0625 128.410156 L 235.109375 130.292969 L 235.34375 128.570313 L 237.105469 128.742188 L 237.898438 118.339844 L 234.550781 118.195313 L 234.0625 128.410156 "/>
<path style=" stroke:none;fill-rule:evenodd;fill:rgb(87.058824%,81.960784%,67.058824%);fill-opacity:1;" d="M 106.566406 112.53125 L 113.671875 112.558594 L 113.6875 108.523438 L 106.585938 108.496094 Z M 106.566406 112.53125 "/>
<path style=" stroke:none;fill-rule:evenodd;fill:rgb(87.058824%,81.960784%,67.058824%);fill-opacity:1;" d="M 106.515625 121.289063 L 113.621094 121.316406 L 113.636719 117.28125 L 106.535156 117.253906 Z M 106.515625 121.289063 "/>
<path style=" stroke:none;fill-rule:evenodd;fill:rgb(87.058824%,81.960784%,67.058824%);fill-opacity:1;" d="M 106.5625 116.957031 L 113.667969 116.984375 L 113.683594 112.953125 L 106.578125 112.921875 Z M 106.5625 116.957031 "/>
<path style=" stroke:none;fill-rule:evenodd;fill:rgb(87.058824%,81.960784%,67.058824%);fill-opacity:1;" d="M 98.464844 143.746094 L 105.863281 143.78125 L 105.875 141.359375 L 98.476563 141.324219 Z M 98.464844 143.746094 "/>
<path style=" stroke:none;fill-rule:evenodd;fill:rgb(87.058824%,81.960784%,67.058824%);fill-opacity:1;" d="M 253.53125 110.148438 L 258.125 110.488281 L 258.378906 107.019531 L 253.785156 106.683594 Z M 253.53125 110.148438 "/>
<path style=" stroke:none;fill-rule:evenodd;fill:rgb(87.058824%,81.960784%,67.058824%);fill-opacity:1;" d="M 254.058594 102.167969 L 258.652344 102.507813 L 258.90625 99.042969 L 254.3125 98.703125 Z M 254.058594 102.167969 "/>
<path style=" stroke:none;fill-rule:evenodd;fill:rgb(87.058824%,81.960784%,67.058824%);fill-opacity:1;" d="M 253.183594 113.789063 L 257.78125 114.125 L 258.035156 110.65625 L 253.441406 110.324219 Z M 253.183594 113.789063 "/>
<path style=" stroke:none;fill-rule:evenodd;fill:rgb(87.058824%,81.960784%,67.058824%);fill-opacity:1;" d="M 253.765625 106.425781 L 258.359375 106.765625 L 258.613281 103.300781 L 254.019531 102.960938 Z M 253.765625 106.425781 "/>
<path style=" stroke:none;fill-rule:evenodd;fill:rgb(87.058824%,81.960784%,67.058824%);fill-opacity:1;" d="M 250.234375 108.519531 L 252.695313 108.6875 L 253.039063 103.683594 L 250.578125 103.515625 Z M 250.234375 108.519531 "/>
<path style=" stroke:none;fill-rule:evenodd;fill:rgb(87.058824%,81.960784%,67.058824%);fill-opacity:1;" d="M 210.988281 111.125 L 215.078125 111.144531 L 215.09375 108.28125 L 211 108.261719 Z M 210.988281 111.125 "/>
<path style=" stroke:none;fill-rule:evenodd;fill:rgb(87.058824%,81.960784%,67.058824%);fill-opacity:1;" d="M 211.003906 107.789063 L 215.097656 107.808594 L 215.109375 105.375 L 211.019531 104.925781 Z M 211.003906 107.789063 "/>
<path style="fill:none;stroke-width:1;stroke-linecap:round;stroke-linejoin:round;stroke:rgb(100%,100%,100%);stroke-opacity:1;stroke-dasharray:2,3;stroke-miterlimit:10;" d="M 139.371094 242.6875 L 139.558594 242.976563 "/>
<path style="fill:none;stroke-width:1;stroke-linecap:round;stroke-linejoin:round;stroke:rgb(100%,100%,100%);stroke-opacity:1;stroke-dasharray:2,3;stroke-miterlimit:10;" d="M 87.625 148.292969 L 87.601563 147.828125 "/>
<path style="fill:none;stroke-width:1;stroke-linecap:round;stroke-linejoin:round;stroke:rgb(100%,100%,100%);stroke-opacity:1;stroke-dasharray:2,3;stroke-miterlimit:10;" d="M 78.683594 139.945313 L 78.683594 139.476563 "/>
<path style="fill:none;stroke-width:1;stroke-linecap:round;stroke-linejoin:round;stroke:rgb(100%,100%,100%);stroke-opacity:1;stroke-dasharray:2,3;stroke-miterlimit:10;" d="M 125.945313 251.238281 L 125.71875 250.820313 "/>
<path style="fill:none;stroke-width:1;stroke-linecap:round;stroke-linejoin:round;stroke:rgb(100%,100%,100%);stroke-opacity:1;stroke-dasharray:2,3;stroke-miterlimit:10;" d="M 57.820313 161.242188 L 57.691406 160.769531 "/>
<path style="fill:none;stroke-width:1;stroke-linecap:round;stroke-linejoin:round;stroke:rgb(100%,100%,100%);stroke-opacity:1;stroke-dasharray:2,3;stroke-miterlimit:10;" d="M 58.375 149.277344 L 58.386719 148.785156 "/>
<path style="fill:none;stroke-width:1;stroke-linecap:round;stroke-linejoin:round;stroke:rgb(100%,100%,100%);stroke-opacity:1;stroke-dasharray:2,3;stroke-miterlimit:10;" d="M 90.933594 148.316406 L 90.910156 147.824219 "/>
<path style="fill:none;stroke-width:1;stroke-linecap:round;stroke-linejoin:round;stroke:rgb(100%,100%,100%);stroke-opacity:1;stroke-dasharray:2,3;stroke-miterlimit:10;" d="M 87.980469 175.890625 L 88.011719 176.386719 "/>
<path style="fill:none;stroke-width:1;stroke-linecap:round;stroke-linejoin:round;stroke:rgb(100%,100%,100%);stroke-opacity:1;stroke-dasharray:2,3;stroke-miterlimit:10;" d="M 61.808594 160.054688 L 61.773438 159.507813 "/>
<path style="fill:none;stroke-width:1;stroke-linecap:round;stroke-linejoin:round;stroke:rgb(100%,100%,100%);stroke-opacity:1;stroke-dasharray:2,3;stroke-miterlimit:10;" d="M 89.300781 154.671875 L 89.300781 154.109375 "/>
<path style="fill:none;stroke-width:1;stroke-linecap:round;stroke-linejoin:round;stroke:rgb(100%,100%,100%);stroke-opacity:1;stroke-dasharray:2,3;stroke-miterlimit:10;" d="M 57.925781 172.914063 L 57.703125 172.347656 "/>
<path style="fill:none;stroke-width:1;stroke-linecap:round;stroke-linejoin:round;stroke:rgb(100%,100%,100%);stroke-opacity:1;stroke-dasharray:2,3;stroke-miterlimit:10;" d="M 57.785156 171.34375 L 57.933594 170.742188 "/>
<path style="fill:none;stroke-width:1;stroke-linecap:round;stroke-linejoin:round;stroke:rgb(100%,100%,100%);stroke-opacity:1;stroke-dasharray:2,3;stroke-miterlimit:10;" d="M 58.089844 182.199219 L 57.941406 182.875 "/>
<path style="fill:none;stroke-width:1;stroke-linecap:round;stroke-linejoin:round;stroke:rgb(100%,100%,100%);stroke-opacity:1;stroke-dasharray:2,3;stroke-miterlimit:10;" d="M 72.664063 155.722656 L 72.664063 154.894531 "/>
<path style="fill:none;stroke-width:1;stroke-linecap:round;stroke-linejoin:round;stroke:rgb(100%,100%,100%);stroke-opacity:1;stroke-dasharray:2,3;stroke-miterlimit:10;" d="M 76.925781 155.722656 L 76.925781 154.808594 "/>
<path style="fill:none;stroke-width:1;stroke-linecap:round;stroke-linejoin:round;stroke:rgb(100%,100%,100%);stroke-opacity:1;stroke-dasharray:2,3;stroke-miterlimit:10;" d="M 79.5 159.871094 L 79.476563 158.898438 "/>
<path style="fill:none;stroke-width:1;stroke-linecap:round;stroke-linejoin:round;stroke:rgb(100%,100%,100%);stroke-opacity:1;stroke-dasharray:2,3;stroke-miterlimit:10;" d="M 73.070313 159.988281 L 73.035156 158.953125 "/>
<path style="fill:none;stroke-width:1;stroke-linecap:round;stroke-linejoin:round;stroke:rgb(100%,100%,100%);stroke-opacity:1;stroke-dasharray:2,3;stroke-miterlimit:10;" d="M 201.609375 149.796875 L 200.554688 149.773438 "/>
<path style="fill:none;stroke-width:1;stroke-linecap:round;stroke-linejoin:round;stroke:rgb(100%,100%,100%);stroke-opacity:1;stroke-dasharray:2,3;stroke-miterlimit:10;" d="M 80.9375 141.480469 L 82.011719 141.46875 "/>
<path style="fill:none;stroke-width:1;stroke-linecap:round;stroke-linejoin:round;stroke:rgb(100%,100%,100%);stroke-opacity:1;stroke-dasharray:2,3;stroke-miterlimit:10;" d="M 61.925781 154.082031 L 61.960938 152.953125 "/>
<path style="fill:none;stroke-width:1;stroke-linecap:round;stroke-linejoin:round;stroke:rgb(100%,100%,100%);stroke-opacity:1;stroke-dasharray:2,3;stroke-miterlimit:10;" d="M 63.648438 154.125 L 63.648438 152.96875 "/>
<path style="fill:none;stroke-width:1;stroke-linecap:round;stroke-linejoin:round;stroke:rgb(100%,100%,100%);stroke-opacity:1;stroke-dasharray:2,3;stroke-miterlimit:10;" d="M 70.785156 141.136719 L 70.820313 139.976563 "/>
<path style="fill:none;stroke-width:1;stroke-linecap:round;stroke-linejoin:round;stroke:rgb(100%,100%,100%);stroke-opacity:1;stroke-dasharray:2,3;stroke-miterlimit:10;" d="M 87.976563 182.019531 L 87.925781 183.347656 "/>
<path style="fill:none;stroke-width:1;stroke-linecap:round;stroke-linejoin:round;stroke:rgb(100%,100%,100%);stroke-opacity:1;stroke-dasharray:2,3;stroke-miterlimit:10;" d="M 60.699219 176.769531 L 60.699219 178.101563 "/>
<path style="fill:none;stroke-width:1;stroke-linecap:round;stroke-linejoin:round;stroke:rgb(100%,100%,100%);stroke-opacity:1;stroke-dasharray:2,3;stroke-miterlimit:10;" d="M 88.28125 193.46875 L 88.328125 194.832031 "/>
<path style="fill:none;stroke-width:1;stroke-linecap:round;stroke-linejoin:round;stroke:rgb(100%,100%,100%);stroke-opacity:1;stroke-dasharray:2,3;stroke-miterlimit:10;" d="M 89.824219 170.371094 L 89.871094 171.75 "/>
<path style="fill:none;stroke-width:1;stroke-linecap:round;stroke-linejoin:round;stroke:rgb(100%,100%,100%);stroke-opacity:1;stroke-dasharray:2,3;stroke-miterlimit:10;" d="M 89.777344 158.796875 L 89.726563 160.195313 "/>
<path style="fill:none;stroke-width:1;stroke-linecap:round;stroke-linejoin:round;stroke:rgb(100%,100%,100%);stroke-opacity:1;stroke-dasharray:2,3;stroke-miterlimit:10;" d="M 74.46875 194.890625 L 75.902344 194.847656 "/>
<path style="fill:none;stroke-width:1;stroke-linecap:round;stroke-linejoin:round;stroke:rgb(100%,100%,100%);stroke-opacity:1;stroke-dasharray:2,3;stroke-miterlimit:10;" d="M 98.292969 185.089844 L 99.742188 185.089844 "/>
<path style="fill:none;stroke-width:1;stroke-linecap:round;stroke-linejoin:round;stroke:rgb(100%,100%,100%);stroke-opacity:1;stroke-dasharray:2,3;stroke-miterlimit:10;" d="M 60.523438 165.199219 L 60.5 166.671875 "/>
<path style="fill:none;stroke-width:1;stroke-linecap:round;stroke-linejoin:round;stroke:rgb(100%,100%,100%);stroke-opacity:1;stroke-dasharray:2,3;stroke-miterlimit:10;" d="M 98.261719 175.652344 L 99.734375 175.6875 "/>
<path style="fill:none;stroke-width:1;stroke-linecap:round;stroke-linejoin:round;stroke:rgb(100%,100%,100%);stroke-opacity:1;stroke-dasharray:2,3;stroke-miterlimit:10;" d="M 62.796875 189.867188 L 63.878906 191.074219 "/>
<path style="fill:none;stroke-width:1;stroke-linecap:round;stroke-linejoin:round;stroke:rgb(100%,100%,100%);stroke-opacity:1;stroke-dasharray:2,3;stroke-miterlimit:10;" d="M 79.964844 138.890625 L 81.164063 138.800781 L 81.535156 138.453125 "/>
<path style="fill:none;stroke-width:1;stroke-linecap:round;stroke-linejoin:round;stroke:rgb(100%,100%,100%);stroke-opacity:1;stroke-dasharray:2,3;stroke-miterlimit:10;" d="M 149.484375 131.316406 L 147.34375 131.332031 "/>
<path style="fill:none;stroke-width:1;stroke-linecap:round;stroke-linejoin:round;stroke:rgb(100%,100%,100%);stroke-opacity:1;stroke-dasharray:2,3;stroke-miterlimit:10;" d="M 149.671875 141.71875 L 147.265625 141.65625 "/>
<path style="fill:none;stroke-width:1;stroke-linecap:round;stroke-linejoin:round;stroke:rgb(100%,100%,100%);stroke-opacity:1;stroke-dasharray:2,3;stroke-miterlimit:10;" d="M 226.292969 150.320313 L 228.691406 150.671875 "/>
<path style="fill:none;stroke-width:1;stroke-linecap:round;stroke-linejoin:round;stroke:rgb(100%,100%,100%);stroke-opacity:1;stroke-dasharray:2,3;stroke-miterlimit:10;" d="M 203.222656 61.222656 L 206.109375 61.027344 "/>
<path style="fill:none;stroke-width:1;stroke-linecap:round;stroke-linejoin:round;stroke:rgb(100%,100%,100%);stroke-opacity:1;stroke-dasharray:2,3;stroke-miterlimit:10;" d="M 144.347656 139.65625 L 147.292969 139.585938 "/>
<path style="fill:none;stroke-width:1;stroke-linecap:round;stroke-linejoin:round;stroke:rgb(100%,100%,100%);stroke-opacity:1;stroke-dasharray:2,3;stroke-miterlimit:10;" d="M 67.921875 184.003906 L 65.324219 184.105469 L 65.015625 184.703125 "/>
<path style="fill:none;stroke-width:1;stroke-linecap:round;stroke-linejoin:round;stroke:rgb(100%,100%,100%);stroke-opacity:1;stroke-dasharray:2,3;stroke-miterlimit:10;" d="M 128.359375 174.558594 L 128.3125 177.953125 "/>
<path style="fill:none;stroke-width:1;stroke-linecap:round;stroke-linejoin:round;stroke:rgb(100%,100%,100%);stroke-opacity:1;stroke-dasharray:2,3;stroke-miterlimit:10;" d="M 230.691406 127.914063 L 230.589844 131.367188 "/>
<path style="fill:none;stroke-width:1;stroke-linecap:round;stroke-linejoin:round;stroke:rgb(100%,100%,100%);stroke-opacity:1;stroke-dasharray:2,3;stroke-miterlimit:10;" d="M 128.3125 182.988281 L 128.457031 186.613281 "/>
<path style="fill:none;stroke-width:1;stroke-linecap:round;stroke-linejoin:round;stroke:rgb(100%,100%,100%);stroke-opacity:1;stroke-dasharray:2,3;stroke-miterlimit:10;" d="M 87.78125 164.339844 L 87.734375 165.382813 L 89.582031 165.234375 L 89.53125 166.242188 "/>
<path style="fill:none;stroke-width:1;stroke-linecap:round;stroke-linejoin:round;stroke:rgb(100%,100%,100%);stroke-opacity:1;stroke-dasharray:2,3;stroke-miterlimit:10;" d="M 128.429688 220.089844 L 128.382813 224.40625 "/>
<path style="fill:none;stroke-width:1;stroke-linecap:round;stroke-linejoin:round;stroke:rgb(100%,100%,100%);stroke-opacity:1;stroke-dasharray:2,3;stroke-miterlimit:10;" d="M 78.121094 64.746094 L 82.902344 64.710938 "/>
<path style="fill:none;stroke-width:1;stroke-linecap:round;stroke-linejoin:round;stroke:rgb(100%,100%,100%);stroke-opacity:1;stroke-dasharray:2,3;stroke-miterlimit:10;" d="M 128.597656 130.039063 L 128.613281 135.253906 "/>
<path style="fill:none;stroke-width:1;stroke-linecap:round;stroke-linejoin:round;stroke:rgb(100%,100%,100%);stroke-opacity:1;stroke-dasharray:2,3;stroke-miterlimit:10;" d="M 128.457031 206.78125 L 128.449219 212.039063 "/>
<path style="fill:none;stroke-width:1;stroke-linecap:round;stroke-linejoin:round;stroke:rgb(100%,100%,100%);stroke-opacity:1;stroke-dasharray:2,3;stroke-miterlimit:10;" d="M 128.28125 159.347656 L 128.324219 164.605469 "/>
<path style="fill:none;stroke-width:1;stroke-linecap:round;stroke-linejoin:round;stroke:rgb(100%,100%,100%);stroke-opacity:1;stroke-dasharray:2,3;stroke-miterlimit:10;" d="M 128.457031 119.515625 L 128.398438 125.046875 "/>
<path style="fill:none;stroke-width:1;stroke-linecap:round;stroke-linejoin:round;stroke:rgb(100%,100%,100%);stroke-opacity:1;stroke-dasharray:2,3;stroke-miterlimit:10;" d="M 128.421875 196.023438 L 128.421875 201.617188 "/>
<path style="fill:none;stroke-width:1;stroke-linecap:round;stroke-linejoin:round;stroke:rgb(100%,100%,100%);stroke-opacity:1;stroke-dasharray:2,3;stroke-miterlimit:10;" d="M 253.488281 130.054688 L 257 126.859375 "/>
<path style="fill:none;stroke-width:1;stroke-linecap:round;stroke-linejoin:round;stroke:rgb(100%,100%,100%);stroke-opacity:1;stroke-dasharray:2,3;stroke-miterlimit:10;" d="M 81.574219 182.976563 L 87.949219 182.707031 "/>
<path style="fill:none;stroke-width:1;stroke-linecap:round;stroke-linejoin:round;stroke:rgb(100%,100%,100%);stroke-opacity:1;stroke-dasharray:2,3;stroke-miterlimit:10;" d="M 201.585938 147.125 L 201.609375 149.796875 L 201.617188 151.003906 L 201.640625 153.609375 "/>
<path style="fill:none;stroke-width:1;stroke-linecap:round;stroke-linejoin:round;stroke:rgb(100%,100%,100%);stroke-opacity:1;stroke-dasharray:2,3;stroke-miterlimit:10;" d="M 67.792969 178 L 66.648438 177.765625 L 64.988281 177.347656 L 60.699219 177.375 "/>
<path style="fill:none;stroke-width:1;stroke-linecap:round;stroke-linejoin:round;stroke:rgb(100%,100%,100%);stroke-opacity:1;stroke-dasharray:2,3;stroke-miterlimit:10;" d="M 68.746094 185.707031 L 63.371094 190.507813 "/>
<path style="fill:none;stroke-width:1;stroke-linecap:round;stroke-linejoin:round;stroke:rgb(100%,100%,100%);stroke-opacity:1;stroke-dasharray:2,3;stroke-miterlimit:10;" d="M 67.742188 166.773438 L 64.632813 165.90625 L 60.511719 165.933594 "/>
<path style="fill:none;stroke-width:1;stroke-linecap:round;stroke-linejoin:round;stroke:rgb(100%,100%,100%);stroke-opacity:1;stroke-dasharray:2,3;stroke-miterlimit:10;" d="M 234.265625 92.785156 L 228.953125 92.757813 L 224.167969 92.730469 "/>
<path style="fill:none;stroke-width:1;stroke-linecap:round;stroke-linejoin:round;stroke:rgb(100%,100%,100%);stroke-opacity:1;stroke-dasharray:2,3;stroke-miterlimit:10;" d="M 128.523438 143.21875 L 128.460938 152.449219 L 128.445313 153.765625 "/>
<path style="fill:none;stroke-width:1;stroke-linecap:round;stroke-linejoin:round;stroke:rgb(100%,100%,100%);stroke-opacity:1;stroke-dasharray:2,3;stroke-miterlimit:10;" d="M 128.640625 100.601563 L 128.652344 102.359375 L 128.476563 111.9375 "/>
<path style="fill:none;stroke-width:1;stroke-linecap:round;stroke-linejoin:round;stroke:rgb(100%,100%,100%);stroke-opacity:1;stroke-dasharray:2,3;stroke-miterlimit:10;" d="M 127.914063 163.980469 L 122.410156 153.859375 "/>
<path style="fill:none;stroke-width:1;stroke-linecap:round;stroke-linejoin:round;stroke:rgb(100%,100%,100%);stroke-opacity:1;stroke-dasharray:2,3;stroke-miterlimit:10;" d="M 192.792969 241.960938 L 197.28125 250.21875 L 198.347656 252.214844 "/>
<path style="fill:none;stroke-width:1;stroke-linecap:round;stroke-linejoin:round;stroke:rgb(100%,100%,100%);stroke-opacity:1;stroke-dasharray:2,3;stroke-miterlimit:10;" d="M 182.070313 254.4375 L 183.46875 257 "/>
<path style="fill:none;stroke-width:1;stroke-linecap:round;stroke-linejoin:round;stroke:rgb(100%,100%,100%);stroke-opacity:1;stroke-dasharray:2,3;stroke-miterlimit:10;" d="M 108.867188 162.078125 L 114.011719 161.886719 L 113.957031 153.261719 "/>
<path style="fill:none;stroke-width:1;stroke-linecap:round;stroke-linejoin:round;stroke:rgb(100%,100%,100%);stroke-opacity:1;stroke-dasharray:2,3;stroke-miterlimit:10;" d="M 229.992188 136.117188 L 228.691406 150.671875 "/>
<path style="fill:none;stroke-width:1;stroke-linecap:round;stroke-linejoin:round;stroke:rgb(100%,100%,100%);stroke-opacity:1;stroke-dasharray:2,3;stroke-miterlimit:10;" d="M 148.808594 152.703125 L 148.691406 167.414063 "/>
<path style="fill:none;stroke-width:1;stroke-linecap:round;stroke-linejoin:round;stroke:rgb(100%,100%,100%);stroke-opacity:1;stroke-dasharray:2,3;stroke-miterlimit:10;" d="M 81.574219 185.746094 L 81.625 193.917969 L 83.8125 194.40625 L 88.304688 194.167969 "/>
<path style="fill:none;stroke-width:1;stroke-linecap:round;stroke-linejoin:round;stroke:rgb(100%,100%,100%);stroke-opacity:1;stroke-dasharray:2,3;stroke-miterlimit:10;" d="M 112.1875 144.546875 L 112.308594 151.808594 L 120.007813 151.898438 L 120.035156 153.238281 "/>
<path style="fill:none;stroke-width:1;stroke-linecap:round;stroke-linejoin:round;stroke:rgb(100%,100%,100%);stroke-opacity:1;stroke-dasharray:2,3;stroke-miterlimit:10;" d="M 110.53125 153.277344 L 113.957031 153.261719 L 120.035156 153.238281 L 128.457031 153.199219 "/>
<path style="fill:none;stroke-width:1;stroke-linecap:round;stroke-linejoin:round;stroke:rgb(100%,100%,100%);stroke-opacity:1;stroke-dasharray:2,3;stroke-miterlimit:10;" d="M 192.964844 213.632813 L 194.511719 212.824219 L 198.203125 219.027344 L 209.644531 219.339844 "/>
<path style="fill:none;stroke-width:1;stroke-linecap:round;stroke-linejoin:round;stroke:rgb(100%,100%,100%);stroke-opacity:1;stroke-dasharray:2,3;stroke-miterlimit:10;" d="M 150.238281 152.722656 L 148.808594 152.703125 L 147.132813 152.6875 L 128.460938 152.449219 "/>
<path style="fill:none;stroke-width:1;stroke-linecap:round;stroke-linejoin:round;stroke:rgb(100%,100%,100%);stroke-opacity:1;stroke-dasharray:2,3;stroke-miterlimit:10;" d="M 163.402344 70.128906 L 163.570313 92.753906 "/>
<path style="fill:none;stroke-width:1;stroke-linecap:round;stroke-linejoin:round;stroke:rgb(100%,100%,100%);stroke-opacity:1;stroke-dasharray:2,3;stroke-miterlimit:10;" d="M 175.34375 256.167969 L 182.070313 254.4375 L 196.945313 250.667969 L 197.28125 250.21875 "/>
<path style="fill:none;stroke-width:1;stroke-linecap:round;stroke-linejoin:round;stroke:rgb(100%,100%,100%);stroke-opacity:1;stroke-dasharray:2,3;stroke-miterlimit:10;" d="M 101.984375 105.074219 L 128.652344 102.359375 "/>
<path style="fill:none;stroke-width:1;stroke-linecap:round;stroke-linejoin:round;stroke:rgb(100%,100%,100%);stroke-opacity:1;stroke-dasharray:2,3;stroke-miterlimit:10;" d="M 228.953125 92.757813 L 228.976563 94.011719 L 231.542969 99.308594 L 230.941406 123.3125 "/>
<path style="fill:none;stroke-width:1;stroke-linecap:round;stroke-linejoin:round;stroke:rgb(100%,100%,100%);stroke-opacity:1;stroke-dasharray:2,3;stroke-miterlimit:10;" d="M 149.511719 119.511719 L 147.457031 119.511719 L 147.34375 131.332031 L 147.292969 139.585938 L 147.265625 141.65625 L 147.132813 152.6875 "/>
<path style="fill:none;stroke-width:1;stroke-linecap:round;stroke-linejoin:round;stroke:rgb(100%,100%,100%);stroke-opacity:1;stroke-dasharray:2,3;stroke-miterlimit:10;" d="M 203.59375 92.703125 L 204.078125 76.457031 L 204.210938 70.605469 L 203.222656 61.222656 L 202.976563 56.109375 "/>
<path style="fill:none;stroke-width:1;stroke-linecap:round;stroke-linejoin:round;stroke:rgb(100%,100%,100%);stroke-opacity:1;stroke-dasharray:2,3;stroke-miterlimit:10;" d="M 75.144531 187.75 L 71.207031 187.90625 L 68.746094 185.707031 L 67.96875 184.855469 L 67.792969 178 L 67.742188 166.773438 L 67.535156 160.042969 L 67.140625 154.210938 L 63.648438 154.125 L 61.925781 154.082031 L 58.550781 154.097656 L 58.648438 152.972656 "/>
<path style="fill:none;stroke-width:1;stroke-linecap:round;stroke-linejoin:round;stroke:rgb(100%,100%,100%);stroke-opacity:1;stroke-dasharray:2,3;stroke-miterlimit:10;" d="M 67.535156 160.042969 L 73.070313 159.988281 L 79.5 159.871094 L 81.308594 159.941406 L 81.574219 182.976563 L 81.574219 185.746094 L 79.703125 187.75 L 75.144531 187.75 L 75.339844 194.847656 "/>
<path style="fill:none;stroke-width:1;stroke-linecap:round;stroke-linejoin:round;stroke:rgb(100%,100%,100%);stroke-opacity:1;stroke-dasharray:2,3;stroke-miterlimit:10;" d="M 142.011719 92.78125 L 163.570313 92.753906 L 203.59375 92.703125 "/>
<path style="fill:none;stroke-width:1;stroke-linecap:round;stroke-linejoin:round;stroke:rgb(100%,100%,100%);stroke-opacity:1;stroke-dasharray:2,3;stroke-miterlimit:10;" d="M 126.457031 125.804688 L 117.367188 127.667969 L 116.011719 127.945313 L 115.472656 125.144531 L 114.6875 123.859375 L 98.503906 123.789063 L 97.113281 124.894531 L 97.253906 135.621094 L 98.148438 139.722656 L 99.035156 140.4375 L 113.40625 140.328125 L 114.296875 129.5625 L 116.011719 127.945313 "/>
<path style="fill:none;stroke-width:1;stroke-linecap:round;stroke-linejoin:round;stroke:rgb(100%,100%,100%);stroke-opacity:1;stroke-dasharray:2,3;stroke-miterlimit:10;" d="M 99.804688 194.785156 L 98.21875 194.832031 L 98.292969 185.089844 L 98.261719 175.652344 L 98.339844 171.105469 L 95.832031 171.074219 L 95.785156 148.945313 L 92.015625 145.605469 L 83.800781 145.632813 L 82.675781 147.769531 L 81.457031 155.503906 L 81.308594 159.941406 "/>
<path style="fill:none;stroke-width:8;stroke-linecap:round;stroke-linejoin:round;stroke:rgb(75.686275%,70.980392%,61.568627%);stroke-opacity:1;stroke-miterlimit:10;" d="M 236.390625 215.121094 L 236.40625 213.417969 "/>
<path style="fill:none;stroke-width:8;stroke-linecap:round;stroke-linejoin:round;stroke:rgb(75.686275%,70.980392%,61.568627%);stroke-opacity:1;stroke-miterlimit:10;" d="M 204.59375 133.875 L 209.800781 133.933594 "/>
<path style="fill:none;stroke-width:8;stroke-linecap:round;stroke-linejoin:round;stroke:rgb(75.686275%,70.980392%,61.568627%);stroke-opacity:1;stroke-miterlimit:10;" d="M 218.222656 177.089844 L 222.9375 180.5 "/>
<path style="fill:none;stroke-width:8;stroke-linecap:round;stroke-linejoin:round;stroke:rgb(75.686275%,70.980392%,61.568627%);stroke-opacity:1;stroke-miterlimit:10;" d="M 239.648438 144.660156 L 240.324219 138.75 "/>
<path style="fill:none;stroke-width:8;stroke-linecap:round;stroke-linejoin:round;stroke:rgb(75.686275%,70.980392%,61.568627%);stroke-opacity:1;stroke-miterlimit:10;" d="M 256.644531 222.40625 L 256.457031 221.308594 L 255.183594 219.484375 L 252.882813 218.195313 "/>
<path style="fill:none;stroke-width:8;stroke-linecap:round;stroke-linejoin:round;stroke:rgb(75.686275%,70.980392%,61.568627%);stroke-opacity:1;stroke-miterlimit:10;" d="M 208.5625 173.890625 L 207.433594 172.714844 L 205.210938 171.148438 L 205.308594 169.234375 "/>
<path style="fill:none;stroke-width:8;stroke-linecap:round;stroke-linejoin:round;stroke:rgb(75.686275%,70.980392%,61.568627%);stroke-opacity:1;stroke-miterlimit:10;" d="M 227.050781 130.132813 L 222.140625 135.238281 "/>
<path style="fill:none;stroke-width:8;stroke-linecap:round;stroke-linejoin:round;stroke:rgb(75.686275%,70.980392%,61.568627%);stroke-opacity:1;stroke-miterlimit:10;" d="M 39.457031 154.503906 L 43.046875 154.386719 L 46.800781 154.269531 "/>
<path style="fill:none;stroke-width:8;stroke-linecap:round;stroke-linejoin:round;stroke:rgb(75.686275%,70.980392%,61.568627%);stroke-opacity:1;stroke-miterlimit:10;" d="M 43.046875 154.386719 L 43.1875 150.996094 L 44.019531 149.90625 L 47.746094 149.9375 "/>
<path style="fill:none;stroke-width:8;stroke-linecap:round;stroke-linejoin:round;stroke:rgb(75.686275%,70.980392%,61.568627%);stroke-opacity:1;stroke-miterlimit:10;" d="M 146.203125 31.734375 L 146.136719 28.730469 L 146.097656 26.960938 L 146.011719 23.121094 "/>
<path style="fill:none;stroke-width:8;stroke-linecap:round;stroke-linejoin:round;stroke:rgb(75.686275%,70.980392%,61.568627%);stroke-opacity:1;stroke-miterlimit:10;" d="M 196.183594 204.957031 L 196.433594 196.257813 "/>
<path style="fill:none;stroke-width:8;stroke-linecap:round;stroke-linejoin:round;stroke:rgb(75.686275%,70.980392%,61.568627%);stroke-opacity:1;stroke-miterlimit:10;" d="M 234.960938 118.753906 L 234.667969 126.140625 L 234.542969 127.949219 "/>
<path style="fill:none;stroke-width:8;stroke-linecap:round;stroke-linejoin:round;stroke:rgb(75.686275%,70.980392%,61.568627%);stroke-opacity:1;stroke-miterlimit:10;" d="M 169.078125 142.292969 L 171.148438 143.613281 L 172.820313 143.964844 L 178.34375 144.375 "/>
<path style="fill:none;stroke-width:8;stroke-linecap:round;stroke-linejoin:round;stroke:rgb(75.686275%,70.980392%,61.568627%);stroke-opacity:1;stroke-miterlimit:10;" d="M 237.402344 191.769531 L 237.632813 186.375 L 237.515625 181.101563 "/>
<path style="fill:none;stroke-width:8;stroke-linecap:round;stroke-linejoin:round;stroke:rgb(75.686275%,70.980392%,61.568627%);stroke-opacity:1;stroke-miterlimit:10;" d="M 39.152344 131.890625 L 51.613281 132.25 "/>
<path style="fill:none;stroke-width:8;stroke-linecap:round;stroke-linejoin:round;stroke:rgb(75.686275%,70.980392%,61.568627%);stroke-opacity:1;stroke-miterlimit:10;" d="M 165.007813 124.894531 L 159.964844 125.128906 L 149.527344 125.195313 "/>
<path style="fill:none;stroke-width:8;stroke-linecap:round;stroke-linejoin:round;stroke:rgb(75.686275%,70.980392%,61.568627%);stroke-opacity:1;stroke-miterlimit:10;" d="M 137.074219 23.179688 L 137.019531 27.953125 L 137.003906 34.925781 L 137.007813 38.710938 "/>
<path style="fill:none;stroke-width:8;stroke-linecap:round;stroke-linejoin:round;stroke:rgb(75.686275%,70.980392%,61.568627%);stroke-opacity:1;stroke-miterlimit:10;" d="M 209.679688 131.476563 L 209.800781 133.933594 L 208.941406 147.492188 "/>
<path style="fill:none;stroke-width:8;stroke-linecap:round;stroke-linejoin:round;stroke:rgb(75.686275%,70.980392%,61.568627%);stroke-opacity:1;stroke-miterlimit:10;" d="M 202.289063 125.492188 L 202.039063 123.472656 L 202.703125 120.863281 L 204.363281 119.035156 L 206.558594 119.035156 L 207.511719 119.785156 L 208.011719 121.980469 L 207.679688 123.71875 L 207.292969 125.609375 "/>
<path style="fill:none;stroke-width:8;stroke-linecap:round;stroke-linejoin:round;stroke:rgb(75.686275%,70.980392%,61.568627%);stroke-opacity:1;stroke-miterlimit:10;" d="M 207.847656 180.089844 L 208.5625 173.890625 L 209.769531 163.421875 "/>
<path style="fill:none;stroke-width:8;stroke-linecap:round;stroke-linejoin:round;stroke:rgb(75.686275%,70.980392%,61.568627%);stroke-opacity:1;stroke-miterlimit:10;" d="M 259.820313 215.375 L 258.734375 216.964844 L 255.414063 218.136719 L 252.882813 218.195313 L 243.539063 216.265625 "/>
<path style="fill:none;stroke-width:8;stroke-linecap:round;stroke-linejoin:round;stroke:rgb(75.686275%,70.980392%,61.568627%);stroke-opacity:1;stroke-miterlimit:10;" d="M 205.210938 171.148438 L 203.667969 172.449219 L 202.195313 173.296875 L 199.773438 174.746094 L 197.464844 180.191406 L 196.589844 184.578125 L 196.542969 185.742188 "/>
<path style="fill:none;stroke-width:8;stroke-linecap:round;stroke-linejoin:round;stroke:rgb(75.686275%,70.980392%,61.568627%);stroke-opacity:1;stroke-miterlimit:10;" d="M 259.742188 75.386719 L 257.296875 80.058594 L 255.246094 84.210938 L 253.945313 85.460938 L 252.546875 84.757813 L 250.996094 82.007813 L 250.210938 79.75 "/>
<path style="fill:none;stroke-width:8;stroke-linecap:round;stroke-linejoin:round;stroke:rgb(75.686275%,70.980392%,61.568627%);stroke-opacity:1;stroke-miterlimit:10;" d="M 169.257813 125.492188 L 169.078125 142.292969 L 169.050781 145.214844 "/>
<path style="fill:none;stroke-width:8;stroke-linecap:round;stroke-linejoin:round;stroke:rgb(75.686275%,70.980392%,61.568627%);stroke-opacity:1;stroke-miterlimit:10;" d="M 236.964844 73.179688 L 237.269531 89.117188 L 235.878906 90 L 234.351563 90.101563 L 233.460938 90.097656 "/>
<path style="fill:none;stroke-width:8;stroke-linecap:round;stroke-linejoin:round;stroke:rgb(75.686275%,70.980392%,61.568627%);stroke-opacity:1;stroke-miterlimit:10;" d="M 201.890625 195.699219 L 201.707031 208.734375 L 202.140625 209.84375 L 202.621094 211.722656 L 202.425781 215.816406 "/>
<path style="fill:none;stroke-width:8;stroke-linecap:round;stroke-linejoin:round;stroke:rgb(75.686275%,70.980392%,61.568627%);stroke-opacity:1;stroke-miterlimit:10;" d="M 207.027344 195.25 L 206.472656 215.890625 "/>
<path style="fill:none;stroke-width:8;stroke-linecap:round;stroke-linejoin:round;stroke:rgb(75.686275%,70.980392%,61.568627%);stroke-opacity:1;stroke-miterlimit:10;" d="M 236.40625 213.417969 L 237.402344 191.769531 "/>
<path style="fill:none;stroke-width:8;stroke-linecap:round;stroke-linejoin:round;stroke:rgb(75.686275%,70.980392%,61.568627%);stroke-opacity:1;stroke-miterlimit:10;" d="M 68.46875 134.355469 L 68.3125 156.101563 "/>
<path style="fill:none;stroke-width:8;stroke-linecap:round;stroke-linejoin:round;stroke:rgb(75.686275%,70.980392%,61.568627%);stroke-opacity:1;stroke-miterlimit:10;" d="M 243.539063 216.265625 L 241.386719 216.222656 L 234.117188 216.222656 L 227.34375 217.269531 L 221.84375 217.289063 "/>
<path style="fill:none;stroke-width:8;stroke-linecap:round;stroke-linejoin:round;stroke:rgb(75.686275%,70.980392%,61.568627%);stroke-opacity:1;stroke-miterlimit:10;" d="M 212.304688 193.992188 L 211.53125 215.980469 "/>
<path style="fill:none;stroke-width:8;stroke-linecap:round;stroke-linejoin:round;stroke:rgb(75.686275%,70.980392%,61.568627%);stroke-opacity:1;stroke-miterlimit:10;" d="M 228.617188 55.738281 L 231.925781 56.039063 L 233.484375 56.414063 L 236.609375 58.972656 L 239.421875 61.785156 L 241.546875 65.535156 L 242.734375 68.410156 L 242.925781 70.726563 L 242.988281 72.554688 "/>
<path style="fill:none;stroke-width:8;stroke-linecap:round;stroke-linejoin:round;stroke:rgb(75.686275%,70.980392%,61.568627%);stroke-opacity:1;stroke-miterlimit:10;" d="M 227.34375 217.269531 L 230.988281 217.851563 L 233.253906 218.875 L 234.019531 219.9375 L 234.789063 222.53125 L 235.59375 225.304688 L 235.996094 226.441406 L 237.128906 227.613281 L 238.261719 228.160156 L 240.160156 228.414063 L 242.171875 228.085938 L 244.109375 227.171875 L 244.875 226.148438 "/>
<path style="fill:none;stroke-width:8;stroke-linecap:round;stroke-linejoin:round;stroke:rgb(75.686275%,70.980392%,61.568627%);stroke-opacity:1;stroke-miterlimit:10;" d="M 107.398438 35.199219 L 132.269531 35.542969 "/>
<path style="fill:none;stroke-width:8;stroke-linecap:round;stroke-linejoin:round;stroke:rgb(75.686275%,70.980392%,61.568627%);stroke-opacity:1;stroke-miterlimit:10;" d="M 132.421875 30.175781 L 107.371094 30.101563 "/>
<path style="fill:none;stroke-width:8;stroke-linecap:round;stroke-linejoin:round;stroke:rgb(75.686275%,70.980392%,61.568627%);stroke-opacity:1;stroke-miterlimit:10;" d="M 144.902344 185.777344 L 143.863281 183 L 143.8125 159.414063 "/>
<path style="fill:none;stroke-width:8;stroke-linecap:round;stroke-linejoin:round;stroke:rgb(75.686275%,70.980392%,61.568627%);stroke-opacity:1;stroke-miterlimit:10;" d="M 222.382813 188.035156 L 221.238281 190.460938 L 219.394531 192.496094 L 217.359375 193.324219 L 216.925781 214.371094 "/>
<path style="fill:none;stroke-width:8;stroke-linecap:round;stroke-linejoin:round;stroke:rgb(75.686275%,70.980392%,61.568627%);stroke-opacity:1;stroke-miterlimit:10;" d="M 204.625 125.492188 L 207.292969 125.609375 L 210.167969 125.691406 L 211.453125 125.726563 L 218.28125 125.925781 L 227.597656 126.0625 L 232.371094 126.074219 L 234.667969 126.140625 "/>
<path style="fill:none;stroke-width:8;stroke-linecap:round;stroke-linejoin:round;stroke:rgb(75.686275%,70.980392%,61.568627%);stroke-opacity:1;stroke-miterlimit:10;" d="M 51.644531 134.257813 L 52.878906 134.214844 L 59.574219 134.234375 L 68.46875 134.355469 L 69.644531 134.371094 L 73.527344 133.300781 L 87.671875 133.34375 "/>
<path style="fill:none;stroke-width:8;stroke-linecap:round;stroke-linejoin:round;stroke:rgb(75.686275%,70.980392%,61.568627%);stroke-opacity:1;stroke-miterlimit:10;" d="M 237.515625 181.101563 L 239.648438 144.660156 "/>
<path style="fill:none;stroke-width:8;stroke-linecap:round;stroke-linejoin:round;stroke:rgb(75.686275%,70.980392%,61.568627%);stroke-opacity:1;stroke-miterlimit:10;" d="M 115.59375 89.84375 L 102.097656 88.742188 L 92.390625 89.4375 L 89.640625 90.832031 L 86.585938 95.398438 L 83.945313 99.246094 L 81.984375 101.296875 "/>
<path style="fill:none;stroke-width:8;stroke-linecap:round;stroke-linejoin:round;stroke:rgb(75.686275%,70.980392%,61.568627%);stroke-opacity:1;stroke-miterlimit:10;" d="M 222.140625 135.238281 L 218.222656 177.089844 "/>
<path style="fill:none;stroke-width:8;stroke-linecap:round;stroke-linejoin:round;stroke:rgb(75.686275%,70.980392%,61.568627%);stroke-opacity:1;stroke-miterlimit:10;" d="M 145.140625 110.972656 L 145.203125 122.003906 L 145.257813 131.820313 L 144.613281 132.71875 L 140.253906 132.726563 L 139.160156 133.621094 L 138.765625 134.707031 L 138.6875 144.148438 L 143.035156 147.523438 "/>
<path style="fill:none;stroke-width:8;stroke-linecap:round;stroke-linejoin:round;stroke:rgb(75.686275%,70.980392%,61.568627%);stroke-opacity:1;stroke-miterlimit:10;" d="M 205.308594 169.234375 L 205.960938 154.03125 L 204.527344 151.359375 L 204.59375 133.875 L 204.625 125.492188 "/>
<path style="fill:none;stroke-width:8;stroke-linecap:round;stroke-linejoin:round;stroke:rgb(75.686275%,70.980392%,61.568627%);stroke-opacity:1;stroke-miterlimit:10;" d="M 226.511719 65.105469 L 225 65.148438 L 217.273438 65.171875 L 214 65.039063 L 212.847656 64.300781 L 210.898438 61.175781 L 209.074219 56.5625 L 203.101563 40.300781 L 200.511719 34.398438 L 198.601563 32.488281 "/>
<path style="fill:none;stroke-width:8;stroke-linecap:round;stroke-linejoin:round;stroke:rgb(75.686275%,70.980392%,61.568627%);stroke-opacity:1;stroke-miterlimit:10;" d="M 151.023438 23.089844 L 150.023438 6.089844 L 147.222656 -8.3125 L 146.925781 -9 "/>
<path style="fill:none;stroke-width:8;stroke-linecap:round;stroke-linejoin:round;stroke:rgb(75.686275%,70.980392%,61.568627%);stroke-opacity:1;stroke-miterlimit:10;" d="M 132.609375 23.207031 L 132.535156 26.269531 L 132.421875 30.175781 L 132.269531 35.542969 L 132.140625 40.171875 L 107.421875 39.78125 L 107.398438 35.199219 L 107.371094 30.101563 L 107.347656 26.355469 L 107.421875 23.367188 "/>
<path style="fill:none;stroke-width:8;stroke-linecap:round;stroke-linejoin:round;stroke:rgb(75.686275%,70.980392%,61.568627%);stroke-opacity:1;stroke-miterlimit:10;" d="M 217.359375 193.324219 L 214.757813 193.855469 L 212.304688 193.992188 L 208.785156 194.191406 L 207.582031 195.203125 L 201.890625 195.699219 L 196.433594 196.257813 L 195.011719 196.40625 L 192.167969 198.1875 L 192.410156 200.789063 L 194.050781 202.136719 L 196.183594 204.957031 L 196.074219 210.46875 L 198.625 215.335938 L 202.425781 215.816406 L 206.472656 215.890625 L 211.53125 215.980469 L 213.121094 216.007813 L 216.925781 214.371094 "/>
<path style="fill:none;stroke-width:8;stroke-linecap:round;stroke-linejoin:round;stroke:rgb(75.686275%,70.980392%,61.568627%);stroke-opacity:1;stroke-miterlimit:10;" d="M 262.625 158.289063 L 262.625 168.488281 L 257.882813 171.503906 L 253.761719 175.757813 L 252.796875 178.375 L 252.085938 180.894531 L 252.402344 186.90625 L 251.433594 202.859375 L 245.667969 214.0625 L 243.539063 216.265625 "/>
<path style="fill:none;stroke-width:8;stroke-linecap:round;stroke-linejoin:round;stroke:rgb(75.686275%,70.980392%,61.568627%);stroke-opacity:1;stroke-miterlimit:10;" d="M 264 73.460938 L 261.597656 74.355469 L 259.742188 75.386719 L 256.195313 77.359375 L 250.210938 79.75 L 245.445313 81.65625 L 244.394531 83.808594 L 243.792969 92.0625 L 242.292969 112.613281 "/>
<path style="fill:none;stroke-width:8;stroke-linecap:round;stroke-linejoin:round;stroke:rgb(75.686275%,70.980392%,61.568627%);stroke-opacity:1;stroke-miterlimit:10;" d="M 81.144531 79.875 L 80.625 101.289063 L 81.984375 101.296875 L 115.578125 101.449219 L 115.523438 92.9375 L 115.59375 89.84375 "/>
<path style="fill:none;stroke-width:8;stroke-linecap:round;stroke-linejoin:round;stroke:rgb(75.686275%,70.980392%,61.568627%);stroke-opacity:1;stroke-miterlimit:10;" d="M 227.75 186.082031 L 237.632813 186.375 L 241.222656 186.488281 L 243.824219 184.089844 L 245.222656 180.089844 L 246.621094 147.289063 L 245.023438 143.691406 L 240.324219 138.75 L 231.851563 134.289063 L 226.734375 134 "/>
<path style="fill:none;stroke-width:8;stroke-linecap:round;stroke-linejoin:round;stroke:rgb(75.686275%,70.980392%,61.568627%);stroke-opacity:1;stroke-miterlimit:10;" d="M 144.902344 185.777344 L 189.355469 185.703125 L 196.542969 185.742188 L 206.316406 185.796875 L 213.054688 185.835938 L 214.753906 185.847656 L 222.425781 185.890625 L 227.75 186.082031 "/>
<path style="fill:none;stroke-width:8;stroke-linecap:round;stroke-linejoin:round;stroke:rgb(75.686275%,70.980392%,61.568627%);stroke-opacity:1;stroke-miterlimit:10;" d="M 204.625 125.492188 L 166.023438 125.492188 L 165.042969 124.957031 L 164.417969 123.941406 L 164.429688 115.824219 L 163.390625 114.238281 L 161.449219 113.582031 L 150.246094 113.597656 L 147.277344 112.632813 L 145.140625 110.972656 L 145.40625 98.929688 L 145.488281 95.289063 "/>
<path style="fill:none;stroke-width:8;stroke-linecap:round;stroke-linejoin:round;stroke:rgb(75.686275%,70.980392%,61.568627%);stroke-opacity:1;stroke-miterlimit:10;" d="M 204.804688 26.148438 L 203.117188 22.8125 L 200.242188 18.9375 L 179.929688 0.144531 L 171.4375 -9 "/>
<path style="fill:none;stroke-width:8;stroke-linecap:round;stroke-linejoin:round;stroke:rgb(75.686275%,70.980392%,61.568627%);stroke-opacity:1;stroke-miterlimit:10;" d="M 145.035156 218.8125 L 147.542969 220.320313 L 172.398438 264 "/>
<path style="fill:none;stroke-width:8;stroke-linecap:round;stroke-linejoin:round;stroke:rgb(75.686275%,70.980392%,61.568627%);stroke-opacity:1;stroke-miterlimit:10;" d="M 118.980469 264 L 110.160156 248.78125 L 104.441406 232.5 "/>
<path style="fill:none;stroke-width:8;stroke-linecap:round;stroke-linejoin:round;stroke:rgb(75.686275%,70.980392%,61.568627%);stroke-opacity:1;stroke-miterlimit:10;" d="M 49.601563 57.101563 L 46.683594 62.824219 L 42.230469 97.445313 L 40.230469 111.007813 L 39.183594 124.839844 L 39.152344 131.890625 L 39.457031 154.503906 L 41.1875 169.015625 L 41.730469 175.34375 "/>
<path style="fill:none;stroke-width:8;stroke-linecap:round;stroke-linejoin:round;stroke:rgb(75.686275%,70.980392%,61.568627%);stroke-opacity:1;stroke-miterlimit:10;" d="M 99.425781 236.144531 L 105.890625 250.882813 L 113.390625 264 "/>
<path style="fill:none;stroke-width:8;stroke-linecap:round;stroke-linejoin:round;stroke:rgb(75.686275%,70.980392%,61.568627%);stroke-opacity:1;stroke-miterlimit:10;" d="M 198.601563 32.488281 L 146.203125 31.734375 L 144.066406 31.703125 L 144.296875 43.089844 L 144.605469 54.53125 L 142.371094 65.199219 L 138.1875 73.886719 L 135.226563 77.519531 L 130.234375 79.253906 L 125.238281 80.011719 L 81.144531 79.875 L 67.636719 79.84375 L 62.886719 79.84375 L 60.734375 79.019531 L 59.015625 75.578125 L 59.167969 40.660156 L 60.347656 38.339844 L 62.519531 37.800781 L 77.429688 37.800781 "/>
<path style="fill:none;stroke-width:8;stroke-linecap:round;stroke-linejoin:round;stroke:rgb(75.686275%,70.980392%,61.568627%);stroke-opacity:1;stroke-miterlimit:10;" d="M 225.917969 264 L 226.433594 261.90625 L 227.34375 217.269531 L 227.75 186.082031 L 231.851563 134.289063 L 232.371094 126.074219 L 233.460938 90.097656 L 233.621094 81.488281 L 232.109375 73.496094 L 230.625 63.289063 L 228.617188 55.738281 L 227.222656 50.488281 L 222.425781 41.6875 "/>
<path style="fill:none;stroke-width:8;stroke-linecap:round;stroke-linejoin:round;stroke:rgb(75.686275%,70.980392%,61.568627%);stroke-opacity:1;stroke-miterlimit:10;" d="M 80.625 101.289063 L 80.378906 122.230469 L 82.636719 124.050781 L 95.554688 124.078125 L 95.671875 135.535156 L 96.425781 138.496094 L 96.789063 141.792969 L 97.046875 147.558594 L 98.023438 149.003906 L 98.167969 168.1875 L 114.625 168.242188 L 114.449219 197.40625 L 114.160156 208.753906 L 114.503906 225.367188 L 114.8125 227.167969 L 115.804688 229.347656 L 121.300781 239.421875 L 122.394531 240.648438 L 123.507813 241.046875 L 132.679688 240.816406 L 134.945313 240.148438 L 137.621094 238.289063 L 142.371094 234.46875 L 144.316406 231.339844 L 144.980469 227.511719 L 145.035156 218.8125 L 144.902344 185.777344 "/>
<path style="fill:none;stroke-width:8;stroke-linecap:round;stroke-linejoin:round;stroke:rgb(75.686275%,70.980392%,61.568627%);stroke-opacity:1;stroke-miterlimit:10;" d="M 91.425781 209.890625 L 92.824219 227.089844 L 98.222656 243.6875 L 103.023438 257.890625 L 104.609375 264 "/>
<path style="fill:none;stroke-width:8;stroke-linecap:round;stroke-linejoin:round;stroke:rgb(75.686275%,70.980392%,61.568627%);stroke-opacity:1;stroke-miterlimit:10;" d="M 241.800781 245.617188 L 255.574219 224.78125 L 256.644531 222.40625 L 259.820313 215.375 L 264 207.5 "/>
<path style="fill:none;stroke-width:8;stroke-linecap:round;stroke-linejoin:round;stroke:rgb(75.686275%,70.980392%,61.568627%);stroke-opacity:1;stroke-miterlimit:10;" d="M 227.277344 73.6875 L 232.109375 73.496094 L 236.964844 73.179688 L 241.664063 72.875 L 242.988281 72.554688 L 248.078125 71.308594 L 254.261719 68.941406 L 261.496094 67.054688 L 264 66.9375 "/>
<path style="fill:none;stroke-width:8;stroke-linecap:round;stroke-linejoin:round;stroke:rgb(75.686275%,70.980392%,61.568627%);stroke-opacity:1;stroke-miterlimit:10;" d="M 51.132813 30.273438 L 88.625 23.488281 L 107.421875 23.367188 L 132.609375 23.207031 L 137.074219 23.179688 L 146.011719 23.121094 L 151.023438 23.089844 L 177.023438 23.289063 L 186.023438 23.488281 L 198.824219 23.886719 L 204.804688 26.148438 L 207.824219 27.289063 L 215.621094 33.289063 L 222.425781 41.6875 L 225.625 55.089844 L 226.511719 65.105469 L 227.277344 73.6875 L 227.621094 125.089844 L 227.050781 130.132813 L 226.734375 134 L 222.9375 180.5 L 222.425781 185.890625 L 222.382813 188.035156 L 221.84375 217.289063 L 221.023438 261.691406 L 221.070313 264 "/>
<path style="fill:none;stroke-width:8;stroke-linecap:round;stroke-linejoin:round;stroke:rgb(75.686275%,70.980392%,61.568627%);stroke-opacity:1;stroke-miterlimit:10;" d="M 123.832031 264 L 113.417969 245.746094 L 106.839844 227.925781 L 106.601563 211.492188 L 106.1875 209.289063 L 105.203125 207.6875 L 103.496094 206.59375 L 101.546875 206.402344 L 69.710938 205.742188 L 65.785156 204.976563 L 62.058594 203.375 L 58.660156 201.3125 L 55.25 197.902344 L 52.273438 193.742188 L 50.546875 190.035156 L 49.855469 185.917969 L 49.75 180.769531 L 49.453125 157.882813 L 49.867188 155.113281 L 50.808594 152.523438 L 51.53125 150.257813 L 51.839844 147.582031 L 51.644531 134.257813 L 51.613281 132.25 L 51.683594 107.097656 L 51.429688 104.996094 L 50.347656 101.339844 L 49.960938 98.761719 L 49.515625 61.152344 L 49.601563 57.101563 L 50.058594 35.765625 L 50.496094 32.269531 L 51.132813 30.273438 L 52.25 25.375 L 53.691406 20.667969 L 55.421875 16.289063 L 58.84375 9.289063 L 63.421875 3.089844 L 74.824219 -8.710938 L 75.164063 -9 "/>
<path style="fill:none;stroke-width:6;stroke-linecap:round;stroke-linejoin:round;stroke:rgb(100%,100%,100%);stroke-opacity:1;stroke-miterlimit:10;" d="M 236.390625 215.121094 L 236.40625 213.417969 "/>
<path style="fill:none;stroke-width:6;stroke-linecap:round;stroke-linejoin:round;stroke:rgb(100%,100%,100%);stroke-opacity:1;stroke-miterlimit:10;" d="M 204.59375 133.875 L 209.800781 133.933594 "/>
<path style="fill:none;stroke-width:6;stroke-linecap:round;stroke-linejoin:round;stroke:rgb(100%,100%,100%);stroke-opacity:1;stroke-miterlimit:10;" d="M 218.222656 177.089844 L 222.9375 180.5 "/>
<path style="fill:none;stroke-width:6;stroke-linecap:round;stroke-linejoin:round;stroke:rgb(100%,100%,100%);stroke-opacity:1;stroke-miterlimit:10;" d="M 239.648438 144.660156 L 240.324219 138.75 "/>
<path style="fill:none;stroke-width:6;stroke-linecap:round;stroke-linejoin:round;stroke:rgb(100%,100%,100%);stroke-opacity:1;stroke-miterlimit:10;" d="M 256.644531 222.40625 L 256.457031 221.308594 L 255.183594 219.484375 L 252.882813 218.195313 "/>
<path style="fill:none;stroke-width:6;stroke-linecap:round;stroke-linejoin:round;stroke:rgb(100%,100%,100%);stroke-opacity:1;stroke-miterlimit:10;" d="M 208.5625 173.890625 L 207.433594 172.714844 L 205.210938 171.148438 L 205.308594 169.234375 "/>
<path style="fill:none;stroke-width:6;stroke-linecap:round;stroke-linejoin:round;stroke:rgb(100%,100%,100%);stroke-opacity:1;stroke-miterlimit:10;" d="M 227.050781 130.132813 L 222.140625 135.238281 "/>
<path style="fill:none;stroke-width:6;stroke-linecap:round;stroke-linejoin:round;stroke:rgb(100%,100%,100%);stroke-opacity:1;stroke-miterlimit:10;" d="M 39.457031 154.503906 L 43.046875 154.386719 L 46.800781 154.269531 "/>
<path style="fill:none;stroke-width:6;stroke-linecap:round;stroke-linejoin:round;stroke:rgb(100%,100%,100%);stroke-opacity:1;stroke-miterlimit:10;" d="M 43.046875 154.386719 L 43.1875 150.996094 L 44.019531 149.90625 L 47.746094 149.9375 "/>
<path style="fill:none;stroke-width:6;stroke-linecap:round;stroke-linejoin:round;stroke:rgb(100%,100%,100%);stroke-opacity:1;stroke-miterlimit:10;" d="M 146.203125 31.734375 L 146.136719 28.730469 L 146.097656 26.960938 L 146.011719 23.121094 "/>
<path style="fill:none;stroke-width:6;stroke-linecap:round;stroke-linejoin:round;stroke:rgb(100%,100%,100%);stroke-opacity:1;stroke-miterlimit:10;" d="M 196.183594 204.957031 L 196.433594 196.257813 "/>
<path style="fill:none;stroke-width:6;stroke-linecap:round;stroke-linejoin:round;stroke:rgb(100%,100%,100%);stroke-opacity:1;stroke-miterlimit:10;" d="M 234.960938 118.753906 L 234.667969 126.140625 L 234.542969 127.949219 "/>
<path style="fill:none;stroke-width:6;stroke-linecap:round;stroke-linejoin:round;stroke:rgb(100%,100%,100%);stroke-opacity:1;stroke-miterlimit:10;" d="M 169.078125 142.292969 L 171.148438 143.613281 L 172.820313 143.964844 L 178.34375 144.375 "/>
<path style="fill:none;stroke-width:6;stroke-linecap:round;stroke-linejoin:round;stroke:rgb(100%,100%,100%);stroke-opacity:1;stroke-miterlimit:10;" d="M 237.402344 191.769531 L 237.632813 186.375 L 237.515625 181.101563 "/>
<path style="fill:none;stroke-width:6;stroke-linecap:round;stroke-linejoin:round;stroke:rgb(100%,100%,100%);stroke-opacity:1;stroke-miterlimit:10;" d="M 39.152344 131.890625 L 51.613281 132.25 "/>
<path style="fill:none;stroke-width:6;stroke-linecap:round;stroke-linejoin:round;stroke:rgb(100%,100%,100%);stroke-opacity:1;stroke-miterlimit:10;" d="M 165.007813 124.894531 L 159.964844 125.128906 L 149.527344 125.195313 "/>
<path style="fill:none;stroke-width:6;stroke-linecap:round;stroke-linejoin:round;stroke:rgb(100%,100%,100%);stroke-opacity:1;stroke-miterlimit:10;" d="M 137.074219 23.179688 L 137.019531 27.953125 L 137.003906 34.925781 L 137.007813 38.710938 "/>
<path style="fill:none;stroke-width:6;stroke-linecap:round;stroke-linejoin:round;stroke:rgb(100%,100%,100%);stroke-opacity:1;stroke-miterlimit:10;" d="M 209.679688 131.476563 L 209.800781 133.933594 L 208.941406 147.492188 "/>
<path style="fill:none;stroke-width:6;stroke-linecap:round;stroke-linejoin:round;stroke:rgb(100%,100%,100%);stroke-opacity:1;stroke-miterlimit:10;" d="M 202.289063 125.492188 L 202.039063 123.472656 L 202.703125 120.863281 L 204.363281 119.035156 L 206.558594 119.035156 L 207.511719 119.785156 L 208.011719 121.980469 L 207.679688 123.71875 L 207.292969 125.609375 "/>
<path style="fill:none;stroke-width:6;stroke-linecap:round;stroke-linejoin:round;stroke:rgb(100%,100%,100%);stroke-opacity:1;stroke-miterlimit:10;" d="M 207.847656 180.089844 L 208.5625 173.890625 L 209.769531 163.421875 "/>
<path style="fill:none;stroke-width:6;stroke-linecap:round;stroke-linejoin:round;stroke:rgb(100%,100%,100%);stroke-opacity:1;stroke-miterlimit:10;" d="M 259.820313 215.375 L 258.734375 216.964844 L 255.414063 218.136719 L 252.882813 218.195313 L 243.539063 216.265625 "/>
<path style="fill:none;stroke-width:6;stroke-linecap:round;stroke-linejoin:round;stroke:rgb(100%,100%,100%);stroke-opacity:1;stroke-miterlimit:10;" d="M 205.210938 171.148438 L 203.667969 172.449219 L 202.195313 173.296875 L 199.773438 174.746094 L 197.464844 180.191406 L 196.589844 184.578125 L 196.542969 185.742188 "/>
<path style="fill:none;stroke-width:6;stroke-linecap:round;stroke-linejoin:round;stroke:rgb(100%,100%,100%);stroke-opacity:1;stroke-miterlimit:10;" d="M 259.742188 75.386719 L 257.296875 80.058594 L 255.246094 84.210938 L 253.945313 85.460938 L 252.546875 84.757813 L 250.996094 82.007813 L 250.210938 79.75 "/>
<path style="fill:none;stroke-width:6;stroke-linecap:round;stroke-linejoin:round;stroke:rgb(100%,100%,100%);stroke-opacity:1;stroke-miterlimit:10;" d="M 169.257813 125.492188 L 169.078125 142.292969 L 169.050781 145.214844 "/>
<path style="fill:none;stroke-width:6;stroke-linecap:round;stroke-linejoin:round;stroke:rgb(100%,100%,100%);stroke-opacity:1;stroke-miterlimit:10;" d="M 236.964844 73.179688 L 237.269531 89.117188 L 235.878906 90 L 234.351563 90.101563 L 233.460938 90.097656 "/>
<path style="fill:none;stroke-width:6;stroke-linecap:round;stroke-linejoin:round;stroke:rgb(100%,100%,100%);stroke-opacity:1;stroke-miterlimit:10;" d="M 201.890625 195.699219 L 201.707031 208.734375 L 202.140625 209.84375 L 202.621094 211.722656 L 202.425781 215.816406 "/>
<path style="fill:none;stroke-width:6;stroke-linecap:round;stroke-linejoin:round;stroke:rgb(100%,100%,100%);stroke-opacity:1;stroke-miterlimit:10;" d="M 207.027344 195.25 L 206.472656 215.890625 "/>
<path style="fill:none;stroke-width:6;stroke-linecap:round;stroke-linejoin:round;stroke:rgb(100%,100%,100%);stroke-opacity:1;stroke-miterlimit:10;" d="M 236.40625 213.417969 L 237.402344 191.769531 "/>
<path style="fill:none;stroke-width:6;stroke-linecap:round;stroke-linejoin:round;stroke:rgb(100%,100%,100%);stroke-opacity:1;stroke-miterlimit:10;" d="M 68.46875 134.355469 L 68.3125 156.101563 "/>
<path style="fill:none;stroke-width:6;stroke-linecap:round;stroke-linejoin:round;stroke:rgb(100%,100%,100%);stroke-opacity:1;stroke-miterlimit:10;" d="M 243.539063 216.265625 L 241.386719 216.222656 L 234.117188 216.222656 L 227.34375 217.269531 L 221.84375 217.289063 "/>
<path style="fill:none;stroke-width:6;stroke-linecap:round;stroke-linejoin:round;stroke:rgb(100%,100%,100%);stroke-opacity:1;stroke-miterlimit:10;" d="M 212.304688 193.992188 L 211.53125 215.980469 "/>
<path style="fill:none;stroke-width:6;stroke-linecap:round;stroke-linejoin:round;stroke:rgb(100%,100%,100%);stroke-opacity:1;stroke-miterlimit:10;" d="M 228.617188 55.738281 L 231.925781 56.039063 L 233.484375 56.414063 L 236.609375 58.972656 L 239.421875 61.785156 L 241.546875 65.535156 L 242.734375 68.410156 L 242.925781 70.726563 L 242.988281 72.554688 "/>
<path style="fill:none;stroke-width:6;stroke-linecap:round;stroke-linejoin:round;stroke:rgb(100%,100%,100%);stroke-opacity:1;stroke-miterlimit:10;" d="M 227.34375 217.269531 L 230.988281 217.851563 L 233.253906 218.875 L 234.019531 219.9375 L 234.789063 222.53125 L 235.59375 225.304688 L 235.996094 226.441406 L 237.128906 227.613281 L 238.261719 228.160156 L 240.160156 228.414063 L 242.171875 228.085938 L 244.109375 227.171875 L 244.875 226.148438 "/>
<path style="fill:none;stroke-width:6;stroke-linecap:round;stroke-linejoin:round;stroke:rgb(100%,100%,100%);stroke-opacity:1;stroke-miterlimit:10;" d="M 107.398438 35.199219 L 132.269531 35.542969 "/>
<path style="fill:none;stroke-width:6;stroke-linecap:round;stroke-linejoin:round;stroke:rgb(100%,100%,100%);stroke-opacity:1;stroke-miterlimit:10;" d="M 132.421875 30.175781 L 107.371094 30.101563 "/>
<path style="fill:none;stroke-width:6;stroke-linecap:round;stroke-linejoin:round;stroke:rgb(100%,100%,100%);stroke-opacity:1;stroke-miterlimit:10;" d="M 144.902344 185.777344 L 143.863281 183 L 143.8125 159.414063 "/>
<path style="fill:none;stroke-width:6;stroke-linecap:round;stroke-linejoin:round;stroke:rgb(100%,100%,100%);stroke-opacity:1;stroke-miterlimit:10;" d="M 222.382813 188.035156 L 221.238281 190.460938 L 219.394531 192.496094 L 217.359375 193.324219 L 216.925781 214.371094 "/>
<path style="fill:none;stroke-width:6;stroke-linecap:round;stroke-linejoin:round;stroke:rgb(100%,100%,100%);stroke-opacity:1;stroke-miterlimit:10;" d="M 204.625 125.492188 L 207.292969 125.609375 L 210.167969 125.691406 L 211.453125 125.726563 L 218.28125 125.925781 L 227.597656 126.0625 L 232.371094 126.074219 L 234.667969 126.140625 "/>
<path style="fill:none;stroke-width:6;stroke-linecap:round;stroke-linejoin:round;stroke:rgb(100%,100%,100%);stroke-opacity:1;stroke-miterlimit:10;" d="M 51.644531 134.257813 L 52.878906 134.214844 L 59.574219 134.234375 L 68.46875 134.355469 L 69.644531 134.371094 L 73.527344 133.300781 L 87.671875 133.34375 "/>
<path style="fill:none;stroke-width:6;stroke-linecap:round;stroke-linejoin:round;stroke:rgb(100%,100%,100%);stroke-opacity:1;stroke-miterlimit:10;" d="M 237.515625 181.101563 L 239.648438 144.660156 "/>
<path style="fill:none;stroke-width:6;stroke-linecap:round;stroke-linejoin:round;stroke:rgb(100%,100%,100%);stroke-opacity:1;stroke-miterlimit:10;" d="M 115.59375 89.84375 L 102.097656 88.742188 L 92.390625 89.4375 L 89.640625 90.832031 L 86.585938 95.398438 L 83.945313 99.246094 L 81.984375 101.296875 "/>
<path style="fill:none;stroke-width:6;stroke-linecap:round;stroke-linejoin:round;stroke:rgb(100%,100%,100%);stroke-opacity:1;stroke-miterlimit:10;" d="M 222.140625 135.238281 L 218.222656 177.089844 "/>
<path style="fill:none;stroke-width:6;stroke-linecap:round;stroke-linejoin:round;stroke:rgb(100%,100%,100%);stroke-opacity:1;stroke-miterlimit:10;" d="M 145.140625 110.972656 L 145.203125 122.003906 L 145.257813 131.820313 L 144.613281 132.71875 L 140.253906 132.726563 L 139.160156 133.621094 L 138.765625 134.707031 L 138.6875 144.148438 L 143.035156 147.523438 "/>
<path style="fill:none;stroke-width:6;stroke-linecap:round;stroke-linejoin:round;stroke:rgb(100%,100%,100%);stroke-opacity:1;stroke-miterlimit:10;" d="M 205.308594 169.234375 L 205.960938 154.03125 L 204.527344 151.359375 L 204.59375 133.875 L 204.625 125.492188 "/>
<path style="fill:none;stroke-width:6;stroke-linecap:round;stroke-linejoin:round;stroke:rgb(100%,100%,100%);stroke-opacity:1;stroke-miterlimit:10;" d="M 226.511719 65.105469 L 225 65.148438 L 217.273438 65.171875 L 214 65.039063 L 212.847656 64.300781 L 210.898438 61.175781 L 209.074219 56.5625 L 203.101563 40.300781 L 200.511719 34.398438 L 198.601563 32.488281 "/>
<path style="fill:none;stroke-width:6;stroke-linecap:round;stroke-linejoin:round;stroke:rgb(100%,100%,100%);stroke-opacity:1;stroke-miterlimit:10;" d="M 151.023438 23.089844 L 150.023438 6.089844 L 147.222656 -8.3125 L 146.925781 -9 "/>
<path style="fill:none;stroke-width:6;stroke-linecap:round;stroke-linejoin:round;stroke:rgb(100%,100%,100%);stroke-opacity:1;stroke-miterlimit:10;" d="M 132.609375 23.207031 L 132.535156 26.269531 L 132.421875 30.175781 L 132.269531 35.542969 L 132.140625 40.171875 L 107.421875 39.78125 L 107.398438 35.199219 L 107.371094 30.101563 L 107.347656 26.355469 L 107.421875 23.367188 "/>
<path style="fill:none;stroke-width:6;stroke-linecap:round;stroke-linejoin:round;stroke:rgb(100%,100%,100%);stroke-opacity:1;stroke-miterlimit:10;" d="M 217.359375 193.324219 L 214.757813 193.855469 L 212.304688 193.992188 L 208.785156 194.191406 L 207.582031 195.203125 L 201.890625 195.699219 L 196.433594 196.257813 L 195.011719 196.40625 L 192.167969 198.1875 L 192.410156 200.789063 L 194.050781 202.136719 L 196.183594 204.957031 L 196.074219 210.46875 L 198.625 215.335938 L 202.425781 215.816406 L 206.472656 215.890625 L 211.53125 215.980469 L 213.121094 216.007813 L 216.925781 214.371094 "/>
<path style="fill:none;stroke-width:6;stroke-linecap:round;stroke-linejoin:round;stroke:rgb(100%,100%,100%);stroke-opacity:1;stroke-miterlimit:10;" d="M 262.625 158.289063 L 262.625 168.488281 L 257.882813 171.503906 L 253.761719 175.757813 L 252.796875 178.375 L 252.085938 180.894531 L 252.402344 186.90625 L 251.433594 202.859375 L 245.667969 214.0625 L 243.539063 216.265625 "/>
<path style="fill:none;stroke-width:6;stroke-linecap:round;stroke-linejoin:round;stroke:rgb(100%,100%,100%);stroke-opacity:1;stroke-miterlimit:10;" d="M 264 73.460938 L 261.597656 74.355469 L 259.742188 75.386719 L 256.195313 77.359375 L 250.210938 79.75 L 245.445313 81.65625 L 244.394531 83.808594 L 243.792969 92.0625 L 242.292969 112.613281 "/>
<path style="fill:none;stroke-width:6;stroke-linecap:round;stroke-linejoin:round;stroke:rgb(100%,100%,100%);stroke-opacity:1;stroke-miterlimit:10;" d="M 81.144531 79.875 L 80.625 101.289063 L 81.984375 101.296875 L 115.578125 101.449219 L 115.523438 92.9375 L 115.59375 89.84375 "/>
<path style="fill:none;stroke-width:6;stroke-linecap:round;stroke-linejoin:round;stroke:rgb(100%,100%,100%);stroke-opacity:1;stroke-miterlimit:10;" d="M 227.75 186.082031 L 237.632813 186.375 L 241.222656 186.488281 L 243.824219 184.089844 L 245.222656 180.089844 L 246.621094 147.289063 L 245.023438 143.691406 L 240.324219 138.75 L 231.851563 134.289063 L 226.734375 134 "/>
<path style="fill:none;stroke-width:6;stroke-linecap:round;stroke-linejoin:round;stroke:rgb(100%,100%,100%);stroke-opacity:1;stroke-miterlimit:10;" d="M 144.902344 185.777344 L 189.355469 185.703125 L 196.542969 185.742188 L 206.316406 185.796875 L 213.054688 185.835938 L 214.753906 185.847656 L 222.425781 185.890625 L 227.75 186.082031 "/>
<path style="fill:none;stroke-width:6;stroke-linecap:round;stroke-linejoin:round;stroke:rgb(100%,100%,100%);stroke-opacity:1;stroke-miterlimit:10;" d="M 204.625 125.492188 L 166.023438 125.492188 L 165.042969 124.957031 L 164.417969 123.941406 L 164.429688 115.824219 L 163.390625 114.238281 L 161.449219 113.582031 L 150.246094 113.597656 L 147.277344 112.632813 L 145.140625 110.972656 L 145.40625 98.929688 L 145.488281 95.289063 "/>
<path style="fill:none;stroke-width:6;stroke-linecap:round;stroke-linejoin:round;stroke:rgb(100%,100%,100%);stroke-opacity:1;stroke-miterlimit:10;" d="M 204.804688 26.148438 L 203.117188 22.8125 L 200.242188 18.9375 L 179.929688 0.144531 L 171.4375 -9 "/>
<path style="fill:none;stroke-width:6;stroke-linecap:round;stroke-linejoin:round;stroke:rgb(100%,100%,100%);stroke-opacity:1;stroke-miterlimit:10;" d="M 145.035156 218.8125 L 147.542969 220.320313 L 172.398438 264 "/>
<path style="fill:none;stroke-width:6;stroke-linecap:round;stroke-linejoin:round;stroke:rgb(100%,100%,100%);stroke-opacity:1;stroke-miterlimit:10;" d="M 118.980469 264 L 110.160156 248.78125 L 104.441406 232.5 "/>
<path style="fill:none;stroke-width:6;stroke-linecap:round;stroke-linejoin:round;stroke:rgb(100%,100%,100%);stroke-opacity:1;stroke-miterlimit:10;" d="M 49.601563 57.101563 L 46.683594 62.824219 L 42.230469 97.445313 L 40.230469 111.007813 L 39.183594 124.839844 L 39.152344 131.890625 L 39.457031 154.503906 L 41.1875 169.015625 L 41.730469 175.34375 "/>
<path style="fill:none;stroke-width:6;stroke-linecap:round;stroke-linejoin:round;stroke:rgb(100%,100%,100%);stroke-opacity:1;stroke-miterlimit:10;" d="M 99.425781 236.144531 L 105.890625 250.882813 L 113.390625 264 "/>
<path style="fill:none;stroke-width:6;stroke-linecap:round;stroke-linejoin:round;stroke:rgb(100%,100%,100%);stroke-opacity:1;stroke-miterlimit:10;" d="M 198.601563 32.488281 L 146.203125 31.734375 L 144.066406 31.703125 L 144.296875 43.089844 L 144.605469 54.53125 L 142.371094 65.199219 L 138.1875 73.886719 L 135.226563 77.519531 L 130.234375 79.253906 L 125.238281 80.011719 L 81.144531 79.875 L 67.636719 79.84375 L 62.886719 79.84375 L 60.734375 79.019531 L 59.015625 75.578125 L 59.167969 40.660156 L 60.347656 38.339844 L 62.519531 37.800781 L 77.429688 37.800781 "/>
<path style="fill:none;stroke-width:6;stroke-linecap:round;stroke-linejoin:round;stroke:rgb(100%,100%,100%);stroke-opacity:1;stroke-miterlimit:10;" d="M 225.917969 264 L 226.433594 261.90625 L 227.34375 217.269531 L 227.75 186.082031 L 231.851563 134.289063 L 232.371094 126.074219 L 233.460938 90.097656 L 233.621094 81.488281 L 232.109375 73.496094 L 230.625 63.289063 L 228.617188 55.738281 L 227.222656 50.488281 L 222.425781 41.6875 "/>
<path style="fill:none;stroke-width:6;stroke-linecap:round;stroke-linejoin:round;stroke:rgb(100%,100%,100%);stroke-opacity:1;stroke-miterlimit:10;" d="M 80.625 101.289063 L 80.378906 122.230469 L 82.636719 124.050781 L 95.554688 124.078125 L 95.671875 135.535156 L 96.425781 138.496094 L 96.789063 141.792969 L 97.046875 147.558594 L 98.023438 149.003906 L 98.167969 168.1875 L 114.625 168.242188 L 114.449219 197.40625 L 114.160156 208.753906 L 114.503906 225.367188 L 114.8125 227.167969 L 115.804688 229.347656 L 121.300781 239.421875 L 122.394531 240.648438 L 123.507813 241.046875 L 132.679688 240.816406 L 134.945313 240.148438 L 137.621094 238.289063 L 142.371094 234.46875 L 144.316406 231.339844 L 144.980469 227.511719 L 145.035156 218.8125 L 144.902344 185.777344 "/>
<path style="fill:none;stroke-width:6;stroke-linecap:round;stroke-linejoin:round;stroke:rgb(100%,100%,100%);stroke-opacity:1;stroke-miterlimit:10;" d="M 91.425781 209.890625 L 92.824219 227.089844 L 98.222656 243.6875 L 103.023438 257.890625 L 104.609375 264 "/>
<path style="fill:none;stroke-width:6;stroke-linecap:round;stroke-linejoin:round;stroke:rgb(100%,100%,100%);stroke-opacity:1;stroke-miterlimit:10;" d="M 241.800781 245.617188 L 255.574219 224.78125 L 256.644531 222.40625 L 259.820313 215.375 L 264 207.5 "/>
<path style="fill:none;stroke-width:6;stroke-linecap:round;stroke-linejoin:round;stroke:rgb(100%,100%,100%);stroke-opacity:1;stroke-miterlimit:10;" d="M 227.277344 73.6875 L 232.109375 73.496094 L 236.964844 73.179688 L 241.664063 72.875 L 242.988281 72.554688 L 248.078125 71.308594 L 254.261719 68.941406 L 261.496094 67.054688 L 264 66.9375 "/>
<path style="fill:none;stroke-width:6;stroke-linecap:round;stroke-linejoin:round;stroke:rgb(100%,100%,100%);stroke-opacity:1;stroke-miterlimit:10;" d="M 51.132813 30.273438 L 88.625 23.488281 L 107.421875 23.367188 L 132.609375 23.207031 L 137.074219 23.179688 L 146.011719 23.121094 L 151.023438 23.089844 L 177.023438 23.289063 L 186.023438 23.488281 L 198.824219 23.886719 L 204.804688 26.148438 L 207.824219 27.289063 L 215.621094 33.289063 L 222.425781 41.6875 L 225.625 55.089844 L 226.511719 65.105469 L 227.277344 73.6875 L 227.621094 125.089844 L 227.050781 130.132813 L 226.734375 134 L 222.9375 180.5 L 222.425781 185.890625 L 222.382813 188.035156 L 221.84375 217.289063 L 221.023438 261.691406 L 221.070313 264 "/>
<path style="fill:none;stroke-width:6;stroke-linecap:round;stroke-linejoin:round;stroke:rgb(100%,100%,100%);stroke-opacity:1;stroke-miterlimit:10;" d="M 123.832031 264 L 113.417969 245.746094 L 106.839844 227.925781 L 106.601563 211.492188 L 106.1875 209.289063 L 105.203125 207.6875 L 103.496094 206.59375 L 101.546875 206.402344 L 69.710938 205.742188 L 65.785156 204.976563 L 62.058594 203.375 L 58.660156 201.3125 L 55.25 197.902344 L 52.273438 193.742188 L 50.546875 190.035156 L 49.855469 185.917969 L 49.75 180.769531 L 49.453125 157.882813 L 49.867188 155.113281 L 50.808594 152.523438 L 51.53125 150.257813 L 51.839844 147.582031 L 51.644531 134.257813 L 51.613281 132.25 L 51.683594 107.097656 L 51.429688 104.996094 L 50.347656 101.339844 L 49.960938 98.761719 L 49.515625 61.152344 L 49.601563 57.101563 L 50.058594 35.765625 L 50.496094 32.269531 L 51.132813 30.273438 L 52.25 25.375 L 53.691406 20.667969 L 55.421875 16.289063 L 58.84375 9.289063 L 63.421875 3.089844 L 74.824219 -8.710938 L 75.164063 -9 "/>
<path style="fill:none;stroke-width:3;stroke-linecap:round;stroke-linejoin:round;stroke:rgb(100%,100%,100%);stroke-opacity:1;stroke-miterlimit:10;" d="M 219.847656 32.113281 L 220.472656 32.878906 L 217.910156 34.941406 L 220.144531 37.707031 L 222.707031 35.644531 L 223.316406 36.394531 L 217.082031 41.441406 L 216.472656 40.691406 L 219.441406 38.285156 L 217.207031 35.519531 L 214.238281 37.925781 L 213.613281 37.160156 Z M 221.304688 43.164063 C 221.011719 42.507813 220.71875 42.089844 220.429688 41.914063 C 220.148438 41.746094 219.808594 41.75 219.414063 41.929688 C 219.101563 42.074219 218.890625 42.28125 218.789063 42.554688 C 218.683594 42.824219 218.703125 43.121094 218.851563 43.445313 C 219.046875 43.902344 219.386719 44.183594 219.867188 44.289063 C 220.355469 44.402344 220.886719 44.328125 221.460938 44.070313 L 221.679688 43.976563 Z M 222.398438 44.617188 L 219.273438 46.039063 L 218.914063 45.226563 L 219.742188 44.851563 C 219.324219 44.808594 218.976563 44.683594 218.695313 44.476563 C 218.414063 44.277344 218.179688 43.976563 217.992188 43.570313 C 217.773438 43.070313 217.75 42.601563 217.929688 42.164063 C 218.105469 41.726563 218.460938 41.386719 218.992188 41.148438 C 219.605469 40.867188 220.152344 40.84375 220.632813 41.070313 C 221.109375 41.300781 221.515625 41.78125 221.851563 42.523438 L 222.367188 43.664063 L 222.460938 43.617188 C 222.875 43.429688 223.140625 43.15625 223.257813 42.804688 C 223.371094 42.449219 223.328125 42.046875 223.132813 41.601563 C 223.007813 41.328125 222.84375 41.082031 222.648438 40.851563 C 222.449219 40.613281 222.21875 40.40625 221.960938 40.226563 L 222.773438 39.851563 C 223.042969 40.101563 223.273438 40.351563 223.460938 40.601563 C 223.648438 40.84375 223.804688 41.097656 223.929688 41.367188 C 224.242188 42.074219 224.273438 42.699219 224.023438 43.242188 C 223.78125 43.78125 223.242188 44.242188 222.398438 44.617188 Z M 225.308594 45.132813 L 226.292969 49.242188 L 225.417969 49.445313 L 220.449219 47.195313 L 221.230469 50.445313 L 220.449219 50.632813 L 219.433594 46.398438 L 220.308594 46.195313 L 225.292969 48.429688 L 224.542969 45.304688 Z M 224.867188 55.695313 L 224.398438 55.804688 L 223.539063 51.804688 C 222.890625 51.992188 222.429688 52.28125 222.148438 52.679688 C 221.867188 53.074219 221.789063 53.558594 221.914063 54.132813 C 221.984375 54.464844 222.101563 54.777344 222.257813 55.070313 C 222.414063 55.359375 222.609375 55.640625 222.851563 55.914063 L 221.960938 56.117188 C 221.730469 55.835938 221.542969 55.539063 221.398438 55.226563 C 221.25 54.914063 221.140625 54.589844 221.070313 54.257813 C 220.890625 53.414063 221.023438 52.683594 221.460938 52.070313 C 221.898438 51.464844 222.585938 51.058594 223.523438 50.851563 C 224.480469 50.65625 225.292969 50.726563 225.960938 51.070313 C 226.625 51.414063 227.042969 51.980469 227.210938 52.773438 C 227.367188 53.492188 227.230469 54.109375 226.804688 54.632813 C 226.386719 55.152344 225.742188 55.507813 224.867188 55.695313 Z M 224.976563 54.757813 C 225.496094 54.640625 225.886719 54.421875 226.148438 54.101563 C 226.40625 53.777344 226.492188 53.402344 226.398438 52.976563 C 226.292969 52.484375 226.058594 52.125 225.695313 51.898438 C 225.328125 51.667969 224.867188 51.589844 224.304688 51.664063 Z M 225.820313 61.503906 L 222.210938 61.832031 L 222.132813 60.941406 L 225.710938 60.628906 C 226.28125 60.574219 226.699219 60.433594 226.960938 60.207031 C 227.21875 59.976563 227.335938 59.664063 227.304688 59.269531 C 227.261719 58.789063 227.058594 58.429688 226.695313 58.191406 C 226.328125 57.949219 225.855469 57.855469 225.273438 57.910156 L 221.882813 58.207031 L 221.804688 57.300781 L 227.789063 56.769531 L 227.867188 57.675781 L 226.945313 57.753906 C 227.328125 57.917969 227.621094 58.136719 227.820313 58.410156 C 228.015625 58.679688 228.132813 59.007813 228.164063 59.394531 C 228.214844 60.007813 228.042969 60.492188 227.648438 60.847656 C 227.261719 61.210938 226.652344 61.429688 225.820313 61.503906 Z M 230.746094 70.390625 L 229.699219 70.484375 C 229.863281 70.097656 229.980469 69.734375 230.042969 69.390625 C 230.105469 69.054688 230.125 68.738281 230.105469 68.4375 C 230.050781 67.90625 229.894531 67.507813 229.636719 67.25 C 229.386719 66.988281 229.058594 66.875 228.652344 66.90625 C 228.296875 66.9375 228.035156 67.050781 227.871094 67.25 C 227.703125 67.445313 227.589844 67.820313 227.527344 68.375 L 227.449219 68.96875 C 227.363281 69.707031 227.140625 70.269531 226.777344 70.65625 C 226.410156 71.039063 225.90625 71.257813 225.261719 71.3125 C 224.488281 71.382813 223.878906 71.203125 223.433594 70.765625 C 222.996094 70.335938 222.738281 69.671875 222.667969 68.765625 C 222.636719 68.421875 222.644531 68.050781 222.699219 67.65625 C 222.75 67.269531 222.84375 66.867188 222.980469 66.453125 L 224.089844 66.359375 C 223.871094 66.773438 223.714844 67.175781 223.621094 67.5625 C 223.535156 67.945313 223.511719 68.320313 223.542969 68.6875 C 223.582031 69.238281 223.738281 69.65625 224.011719 69.9375 C 224.292969 70.226563 224.652344 70.351563 225.089844 70.3125 C 225.484375 70.28125 225.78125 70.144531 225.980469 69.90625 C 226.1875 69.664063 226.328125 69.289063 226.402344 68.78125 L 226.464844 68.171875 C 226.558594 67.441406 226.761719 66.898438 227.074219 66.546875 C 227.394531 66.191406 227.863281 65.988281 228.480469 65.9375 C 229.175781 65.875 229.75 66.046875 230.199219 66.453125 C 230.644531 66.859375 230.90625 67.457031 230.980469 68.25 C 231.011719 68.59375 231.003906 68.941406 230.964844 69.296875 C 230.921875 69.648438 230.847656 70.015625 230.746094 70.390625 Z M 230.902344 73.332031 L 229.214844 73.410156 L 229.292969 75.238281 L 228.527344 75.285156 L 228.449219 73.457031 L 225.183594 73.613281 C 224.691406 73.632813 224.378906 73.707031 224.246094 73.832031 C 224.109375 73.957031 224.050781 74.207031 224.074219 74.582031 L 224.105469 75.488281 L 223.277344 75.535156 L 223.246094 74.628906 C 223.203125 73.941406 223.316406 73.457031 223.589844 73.175781 C 223.871094 72.902344 224.386719 72.753906 225.136719 72.722656 L 228.402344 72.566406 L 228.371094 71.910156 L 229.136719 71.863281 L 229.167969 72.519531 L 230.855469 72.441406 Z M 228.414063 79.640625 C 228.476563 79.535156 228.523438 79.421875 228.554688 79.296875 C 228.585938 79.179688 228.59375 79.054688 228.585938 78.921875 C 228.585938 78.410156 228.402344 78.019531 228.039063 77.75 C 227.671875 77.488281 227.152344 77.363281 226.476563 77.375 L 223.304688 77.390625 L 223.289063 76.484375 L 229.304688 76.4375 L 229.320313 77.34375 L 228.382813 77.359375 C 228.746094 77.546875 229.015625 77.785156 229.195313 78.078125 C 229.371094 78.367188 229.464844 78.726563 229.476563 79.15625 C 229.476563 79.21875 229.46875 79.285156 229.460938 79.359375 C 229.460938 79.441406 229.449219 79.523438 229.429688 79.609375 Z M 226.597656 85.203125 L 226.113281 85.203125 L 226.097656 81.109375 C 225.417969 81.148438 224.902344 81.335938 224.550781 81.671875 C 224.195313 82.015625 224.019531 82.476563 224.019531 83.0625 C 224.027344 83.40625 224.082031 83.734375 224.175781 84.046875 C 224.269531 84.367188 224.402344 84.6875 224.582031 85 L 223.660156 85.015625 C 223.503906 84.691406 223.386719 84.363281 223.316406 84.03125 C 223.234375 83.695313 223.1875 83.359375 223.175781 83.015625 C 223.175781 82.148438 223.449219 81.460938 224.003906 80.953125 C 224.554688 80.441406 225.308594 80.1875 226.269531 80.1875 C 227.246094 80.175781 228.027344 80.40625 228.613281 80.875 C 229.195313 81.351563 229.488281 82 229.488281 82.8125 C 229.496094 83.539063 229.242188 84.117188 228.722656 84.546875 C 228.199219 84.972656 227.492188 85.191406 226.597656 85.203125 Z M 226.894531 84.296875 C 227.433594 84.285156 227.867188 84.148438 228.191406 83.890625 C 228.511719 83.628906 228.667969 83.28125 228.660156 82.84375 C 228.660156 82.34375 228.503906 81.941406 228.191406 81.640625 C 227.878906 81.335938 227.441406 81.164063 226.878906 81.125 Z M 226.636719 91.296875 L 226.152344 91.296875 L 226.136719 87.203125 C 225.457031 87.242188 224.941406 87.429688 224.589844 87.765625 C 224.234375 88.109375 224.058594 88.570313 224.058594 89.15625 C 224.066406 89.5 224.121094 89.828125 224.214844 90.140625 C 224.308594 90.460938 224.441406 90.78125 224.621094 91.09375 L 223.699219 91.109375 C 223.542969 90.785156 223.425781 90.457031 223.355469 90.125 C 223.273438 89.789063 223.226563 89.453125 223.214844 89.109375 C 223.214844 88.242188 223.488281 87.554688 224.042969 87.046875 C 224.59375 86.535156 225.347656 86.28125 226.308594 86.28125 C 227.285156 86.269531 228.066406 86.5 228.652344 86.96875 C 229.234375 87.445313 229.527344 88.09375 229.527344 88.90625 C 229.535156 89.632813 229.28125 90.210938 228.761719 90.640625 C 228.238281 91.066406 227.53125 91.285156 226.636719 91.296875 Z M 226.933594 90.390625 C 227.472656 90.378906 227.90625 90.242188 228.230469 89.984375 C 228.550781 89.722656 228.707031 89.375 228.699219 88.9375 C 228.699219 88.4375 228.542969 88.035156 228.230469 87.734375 C 227.917969 87.429688 227.480469 87.257813 226.917969 87.21875 Z M 231.132813 93.609375 L 229.429688 93.609375 L 229.445313 95.4375 L 228.679688 95.453125 L 228.664063 93.625 L 225.398438 93.640625 C 224.90625 93.640625 224.589844 93.703125 224.445313 93.828125 C 224.308594 93.953125 224.242188 94.203125 224.242188 94.578125 L 224.257813 95.484375 L 223.429688 95.484375 L 223.414063 94.578125 C 223.414063 93.890625 223.554688 93.414063 223.835938 93.15625 C 224.117188 92.894531 224.632813 92.757813 225.382813 92.75 L 228.648438 92.734375 L 228.648438 92.078125 L 229.414063 92.0625 L 229.414063 92.71875 L 231.117188 92.71875 Z M 231.132813 93.609375 "/>
<path style=" stroke:none;fill-rule:evenodd;fill:rgb(20%,20%,20%);fill-opacity:1;" d="M 219.847656 32.113281 L 220.472656 32.878906 L 217.910156 34.941406 L 220.144531 37.707031 L 222.707031 35.644531 L 223.316406 36.394531 L 217.082031 41.441406 L 216.472656 40.691406 L 219.441406 38.285156 L 217.207031 35.519531 L 214.238281 37.925781 L 213.613281 37.160156 Z M 221.304688 43.164063 C 221.011719 42.507813 220.71875 42.089844 220.429688 41.914063 C 220.148438 41.746094 219.808594 41.75 219.414063 41.929688 C 219.101563 42.074219 218.890625 42.28125 218.789063 42.554688 C 218.683594 42.824219 218.703125 43.121094 218.851563 43.445313 C 219.046875 43.902344 219.386719 44.183594 219.867188 44.289063 C 220.355469 44.402344 220.886719 44.328125 221.460938 44.070313 L 221.679688 43.976563 Z M 222.398438 44.617188 L 219.273438 46.039063 L 218.914063 45.226563 L 219.742188 44.851563 C 219.324219 44.808594 218.976563 44.683594 218.695313 44.476563 C 218.414063 44.277344 218.179688 43.976563 217.992188 43.570313 C 217.773438 43.070313 217.75 42.601563 217.929688 42.164063 C 218.105469 41.726563 218.460938 41.386719 218.992188 41.148438 C 219.605469 40.867188 220.152344 40.84375 220.632813 41.070313 C 221.109375 41.300781 221.515625 41.78125 221.851563 42.523438 L 222.367188 43.664063 L 222.460938 43.617188 C 222.875 43.429688 223.140625 43.15625 223.257813 42.804688 C 223.371094 42.449219 223.328125 42.046875 223.132813 41.601563 C 223.007813 41.328125 222.84375 41.082031 222.648438 40.851563 C 222.449219 40.613281 222.21875 40.40625 221.960938 40.226563 L 222.773438 39.851563 C 223.042969 40.101563 223.273438 40.351563 223.460938 40.601563 C 223.648438 40.84375 223.804688 41.097656 223.929688 41.367188 C 224.242188 42.074219 224.273438 42.699219 224.023438 43.242188 C 223.78125 43.78125 223.242188 44.242188 222.398438 44.617188 Z M 225.308594 45.132813 L 226.292969 49.242188 L 225.417969 49.445313 L 220.449219 47.195313 L 221.230469 50.445313 L 220.449219 50.632813 L 219.433594 46.398438 L 220.308594 46.195313 L 225.292969 48.429688 L 224.542969 45.304688 Z M 224.867188 55.695313 L 224.398438 55.804688 L 223.539063 51.804688 C 222.890625 51.992188 222.429688 52.28125 222.148438 52.679688 C 221.867188 53.074219 221.789063 53.558594 221.914063 54.132813 C 221.984375 54.464844 222.101563 54.777344 222.257813 55.070313 C 222.414063 55.359375 222.609375 55.640625 222.851563 55.914063 L 221.960938 56.117188 C 221.730469 55.835938 221.542969 55.539063 221.398438 55.226563 C 221.25 54.914063 221.140625 54.589844 221.070313 54.257813 C 220.890625 53.414063 221.023438 52.683594 221.460938 52.070313 C 221.898438 51.464844 222.585938 51.058594 223.523438 50.851563 C 224.480469 50.65625 225.292969 50.726563 225.960938 51.070313 C 226.625 51.414063 227.042969 51.980469 227.210938 52.773438 C 227.367188 53.492188 227.230469 54.109375 226.804688 54.632813 C 226.386719 55.152344 225.742188 55.507813 224.867188 55.695313 Z M 224.976563 54.757813 C 225.496094 54.640625 225.886719 54.421875 226.148438 54.101563 C 226.40625 53.777344 226.492188 53.402344 226.398438 52.976563 C 226.292969 52.484375 226.058594 52.125 225.695313 51.898438 C 225.328125 51.667969 224.867188 51.589844 224.304688 51.664063 Z M 225.820313 61.503906 L 222.210938 61.832031 L 222.132813 60.941406 L 225.710938 60.628906 C 226.28125 60.574219 226.699219 60.433594 226.960938 60.207031 C 227.21875 59.976563 227.335938 59.664063 227.304688 59.269531 C 227.261719 58.789063 227.058594 58.429688 226.695313 58.191406 C 226.328125 57.949219 225.855469 57.855469 225.273438 57.910156 L 221.882813 58.207031 L 221.804688 57.300781 L 227.789063 56.769531 L 227.867188 57.675781 L 226.945313 57.753906 C 227.328125 57.917969 227.621094 58.136719 227.820313 58.410156 C 228.015625 58.679688 228.132813 59.007813 228.164063 59.394531 C 228.214844 60.007813 228.042969 60.492188 227.648438 60.847656 C 227.261719 61.210938 226.652344 61.429688 225.820313 61.503906 Z M 230.746094 70.390625 L 229.699219 70.484375 C 229.863281 70.097656 229.980469 69.734375 230.042969 69.390625 C 230.105469 69.054688 230.125 68.738281 230.105469 68.4375 C 230.050781 67.90625 229.894531 67.507813 229.636719 67.25 C 229.386719 66.988281 229.058594 66.875 228.652344 66.90625 C 228.296875 66.9375 228.035156 67.050781 227.871094 67.25 C 227.703125 67.445313 227.589844 67.820313 227.527344 68.375 L 227.449219 68.96875 C 227.363281 69.707031 227.140625 70.269531 226.777344 70.65625 C 226.410156 71.039063 225.90625 71.257813 225.261719 71.3125 C 224.488281 71.382813 223.878906 71.203125 223.433594 70.765625 C 222.996094 70.335938 222.738281 69.671875 222.667969 68.765625 C 222.636719 68.421875 222.644531 68.050781 222.699219 67.65625 C 222.75 67.269531 222.84375 66.867188 222.980469 66.453125 L 224.089844 66.359375 C 223.871094 66.773438 223.714844 67.175781 223.621094 67.5625 C 223.535156 67.945313 223.511719 68.320313 223.542969 68.6875 C 223.582031 69.238281 223.738281 69.65625 224.011719 69.9375 C 224.292969 70.226563 224.652344 70.351563 225.089844 70.3125 C 225.484375 70.28125 225.78125 70.144531 225.980469 69.90625 C 226.1875 69.664063 226.328125 69.289063 226.402344 68.78125 L 226.464844 68.171875 C 226.558594 67.441406 226.761719 66.898438 227.074219 66.546875 C 227.394531 66.191406 227.863281 65.988281 228.480469 65.9375 C 229.175781 65.875 229.75 66.046875 230.199219 66.453125 C 230.644531 66.859375 230.90625 67.457031 230.980469 68.25 C 231.011719 68.59375 231.003906 68.941406 230.964844 69.296875 C 230.921875 69.648438 230.847656 70.015625 230.746094 70.390625 Z M 230.902344 73.332031 L 229.214844 73.410156 L 229.292969 75.238281 L 228.527344 75.285156 L 228.449219 73.457031 L 225.183594 73.613281 C 224.691406 73.632813 224.378906 73.707031 224.246094 73.832031 C 224.109375 73.957031 224.050781 74.207031 224.074219 74.582031 L 224.105469 75.488281 L 223.277344 75.535156 L 223.246094 74.628906 C 223.203125 73.941406 223.316406 73.457031 223.589844 73.175781 C 223.871094 72.902344 224.386719 72.753906 225.136719 72.722656 L 228.402344 72.566406 L 228.371094 71.910156 L 229.136719 71.863281 L 229.167969 72.519531 L 230.855469 72.441406 Z M 228.414063 79.640625 C 228.476563 79.535156 228.523438 79.421875 228.554688 79.296875 C 228.585938 79.179688 228.59375 79.054688 228.585938 78.921875 C 228.585938 78.410156 228.402344 78.019531 228.039063 77.75 C 227.671875 77.488281 227.152344 77.363281 226.476563 77.375 L 223.304688 77.390625 L 223.289063 76.484375 L 229.304688 76.4375 L 229.320313 77.34375 L 228.382813 77.359375 C 228.746094 77.546875 229.015625 77.785156 229.195313 78.078125 C 229.371094 78.367188 229.464844 78.726563 229.476563 79.15625 C 229.476563 79.21875 229.46875 79.285156 229.460938 79.359375 C 229.460938 79.441406 229.449219 79.523438 229.429688 79.609375 Z M 226.597656 85.203125 L 226.113281 85.203125 L 226.097656 81.109375 C 225.417969 81.148438 224.902344 81.335938 224.550781 81.671875 C 224.195313 82.015625 224.019531 82.476563 224.019531 83.0625 C 224.027344 83.40625 224.082031 83.734375 224.175781 84.046875 C 224.269531 84.367188 224.402344 84.6875 224.582031 85 L 223.660156 85.015625 C 223.503906 84.691406 223.386719 84.363281 223.316406 84.03125 C 223.234375 83.695313 223.1875 83.359375 223.175781 83.015625 C 223.175781 82.148438 223.449219 81.460938 224.003906 80.953125 C 224.554688 80.441406 225.308594 80.1875 226.269531 80.1875 C 227.246094 80.175781 228.027344 80.40625 228.613281 80.875 C 229.195313 81.351563 229.488281 82 229.488281 82.8125 C 229.496094 83.539063 229.242188 84.117188 228.722656 84.546875 C 228.199219 84.972656 227.492188 85.191406 226.597656 85.203125 Z M 226.894531 84.296875 C 227.433594 84.285156 227.867188 84.148438 228.191406 83.890625 C 228.511719 83.628906 228.667969 83.28125 228.660156 82.84375 C 228.660156 82.34375 228.503906 81.941406 228.191406 81.640625 C 227.878906 81.335938 227.441406 81.164063 226.878906 81.125 Z M 226.636719 91.296875 L 226.152344 91.296875 L 226.136719 87.203125 C 225.457031 87.242188 224.941406 87.429688 224.589844 87.765625 C 224.234375 88.109375 224.058594 88.570313 224.058594 89.15625 C 224.066406 89.5 224.121094 89.828125 224.214844 90.140625 C 224.308594 90.460938 224.441406 90.78125 224.621094 91.09375 L 223.699219 91.109375 C 223.542969 90.785156 223.425781 90.457031 223.355469 90.125 C 223.273438 89.789063 223.226563 89.453125 223.214844 89.109375 C 223.214844 88.242188 223.488281 87.554688 224.042969 87.046875 C 224.59375 86.535156 225.347656 86.28125 226.308594 86.28125 C 227.285156 86.269531 228.066406 86.5 228.652344 86.96875 C 229.234375 87.445313 229.527344 88.09375 229.527344 88.90625 C 229.535156 89.632813 229.28125 90.210938 228.761719 90.640625 C 228.238281 91.066406 227.53125 91.285156 226.636719 91.296875 Z M 226.933594 90.390625 C 227.472656 90.378906 227.90625 90.242188 228.230469 89.984375 C 228.550781 89.722656 228.707031 89.375 228.699219 88.9375 C 228.699219 88.4375 228.542969 88.035156 228.230469 87.734375 C 227.917969 87.429688 227.480469 87.257813 226.917969 87.21875 Z M 231.132813 93.609375 L 229.429688 93.609375 L 229.445313 95.4375 L 228.679688 95.453125 L 228.664063 93.625 L 225.398438 93.640625 C 224.90625 93.640625 224.589844 93.703125 224.445313 93.828125 C 224.308594 93.953125 224.242188 94.203125 224.242188 94.578125 L 224.257813 95.484375 L 223.429688 95.484375 L 223.414063 94.578125 C 223.414063 93.890625 223.554688 93.414063 223.835938 93.15625 C 224.117188 92.894531 224.632813 92.757813 225.382813 92.75 L 228.648438 92.734375 L 228.648438 92.078125 L 229.414063 92.0625 L 229.414063 92.71875 L 231.117188 92.71875 Z M 231.132813 93.609375 "/>
</g>
</svg>

