<?xml version="1.0" encoding="UTF-8"?>
<svg xmlns="http://www.w3.org/2000/svg" xmlns:xlink="http://www.w3.org/1999/xlink" width="256pt" height="256pt" viewBox="0 0 256 256" version="1.1">
<g id="surface2">
<rect x="0" y="0" width="256" height="256" style="fill:rgb(94.901961%,93.72549%,91.372549%);fill-opacity:1;stroke:none;"/>
<path style=" stroke:none;fill-rule:evenodd;fill:rgb(60%,70.196078%,80%);fill-opacity:1;" d="M -4 259 L -4 -4 L 259 -4 L -4 -4 L -4 259 L -4 -4 Z M -4 259 "/>
<path style="fill:none;stroke-width:1;stroke-linecap:round;stroke-linejoin:round;stroke:rgb(70.196078%,77.647059%,83.137255%);stroke-opacity:1;stroke-miterlimit:10;" d="M -4 259 L -4 -4 L 259 -4 L -4 -4 L -4 259 L -4 -4 L -4 259 "/>
<path style=" stroke:none;fill-rule:evenodd;fill:rgb(60%,70.196078%,80%);fill-opacity:1;" d="M -4 -4 L 259 -4 L 259 259 L 259 -4 L 259 259 L 259 -4 Z M -4 -4 "/>
<path style="fill:none;stroke-width:1;stroke-linecap:round;stroke-linejoin:round;stroke:rgb(70.196078%,77.647059%,83.137255%);stroke-opacity:1;stroke-miterlimit:10;" d="M -4 -4 L 259 -4 L 259 259 L 259 -4 L 259 259 L 259 -4 L -4 -4 "/>
<path style="fill:none;stroke-width:1;stroke-linecap:round;stroke-linejoin:round;stroke:rgb(100%,100%,100%);stroke-opacity:1;stroke-dasharray:2,3;stroke-miterlimit:10;" d="M 180.175781 -2 L 177.78125 0.730469 L 164.777344 13.363281 L 160.886719 15.890625 L 157.832031 16.59375 L 155.667969 17.679688 L 153.570313 19.824219 L 147.207031 27.882813 L 140.636719 34.410156 L 132.132813 43.75 L 120.550781 52.222656 L 114.28125 55.871094 L 108.644531 57.949219 L 100.652344 58.972656 L 88.347656 60.570313 L 81.613281 61.789063 L 74.367188 64.058594 L 70.800781 66.96875 L 69.777344 68.632813 L 62.390625 96.296875 L 60.546875 101.640625 L 57.332031 105.925781 L 42.464844 127.226563 L 33.167969 141.042969 L 28.71875 145.839844 L 25.503906 147.152344 L 19.5625 147.855469 L 15.484375 147.855469 L 10.636719 147.183594 L 8.214844 146.382813 L 3.4375 143.984375 L -2 140.140625 "/>
<path style="fill:none;stroke-width:8;stroke-linecap:round;stroke-linejoin:round;stroke:rgb(75.686275%,70.980392%,61.568627%);stroke-opacity:1;stroke-miterlimit:10;" d="M 246.394531 264 L 251.785156 250.449219 L 253.207031 245.910156 L 254.023438 238.105469 L 257.144531 229.183594 L 260.035156 223.683594 L 262.574219 219.8125 L 264 218.253906 M 264 102.382813 L 258.332031 98.28125 L 249.710938 89.101563 L 247.824219 85.839844 L 246.867188 82.066406 L 246.054688 76.53125 L 245.472656 69.367188 L 245.285156 60.15625 L 245.984375 47.96875 L 250.246094 9.910156 L 252.507813 1.914063 L 252.765625 -2.4375 L 252.601563 -3.972656 L 251.832031 -6.113281 L 250.246094 -9 "/>
<path style="fill:none;stroke-width:6;stroke-linecap:round;stroke-linejoin:round;stroke:rgb(100%,100%,100%);stroke-opacity:1;stroke-miterlimit:10;" d="M 246.394531 264 L 251.785156 250.449219 L 253.207031 245.910156 L 254.023438 238.105469 L 257.144531 229.183594 L 260.035156 223.683594 L 262.574219 219.8125 L 264 218.253906 M 264 102.382813 L 258.332031 98.28125 L 249.710938 89.101563 L 247.824219 85.839844 L 246.867188 82.066406 L 246.054688 76.53125 L 245.472656 69.367188 L 245.285156 60.15625 L 245.984375 47.96875 L 250.246094 9.910156 L 252.507813 1.914063 L 252.765625 -2.4375 L 252.601563 -3.972656 L 251.832031 -6.113281 L 250.246094 -9 "/>
</g>
</svg>

