<?xml version="1.0" encoding="UTF-8"?>
<svg xmlns="http://www.w3.org/2000/svg" xmlns:xlink="http://www.w3.org/1999/xlink" width="256pt" height="256pt" viewBox="0 0 256 256" version="1.1">
<g id="surface2">
<rect x="0" y="0" width="256" height="256" style="fill:rgb(94.901961%,93.72549%,91.372549%);fill-opacity:1;stroke:none;"/>
<path style="fill:none;stroke-width:8;stroke-linecap:round;stroke-linejoin:round;stroke:rgb(75.686275%,70.980392%,61.568627%);stroke-opacity:1;stroke-miterlimit:10;" d="M -9 242.191406 L -1.769531 239.210938 L 4.523438 237.699219 L 9.089844 237.386719 L 12.027344 237.386719 "/>
<path style="fill:none;stroke-width:8;stroke-linecap:round;stroke-linejoin:round;stroke:rgb(75.686275%,70.980392%,61.568627%);stroke-opacity:1;stroke-miterlimit:10;" d="M -9 220.703125 L -4.585938 219.257813 L 8.90625 218.378906 L 24.632813 218.347656 L 40.664063 218.628906 L 46.816406 218.753906 "/>
<path style="fill:none;stroke-width:8;stroke-linecap:round;stroke-linejoin:round;stroke:rgb(75.686275%,70.980392%,61.568627%);stroke-opacity:1;stroke-miterlimit:10;" d="M -9 197.828125 L -8.058594 197.105469 L -6.730469 194.398438 L -4.632813 176.933594 L -4.191406 172.242188 L -3.886719 166.832031 L -4.003906 162.394531 L -3.796875 159.027344 L -3.257813 153.488281 L -2.863281 150.84375 L -2.910156 149.488281 L -0.0664063 136.996094 L 2.261719 122.773438 L 2.308594 115.375 L 1.679688 112.542969 L -0.347656 108.734375 L -2.28125 106.785156 L -5.425781 105.683594 L -9 105.15625 "/>
<path style="fill:none;stroke-width:9;stroke-linecap:round;stroke-linejoin:round;stroke:rgb(75.686275%,70.980392%,61.568627%);stroke-opacity:1;stroke-miterlimit:10;" d="M -10 21.734375 L -5.472656 7.710938 L -0.441406 -10 "/>
<path style="fill:none;stroke-width:6;stroke-linecap:round;stroke-linejoin:round;stroke:rgb(100%,100%,100%);stroke-opacity:1;stroke-miterlimit:10;" d="M -9 242.191406 L -1.769531 239.210938 L 4.523438 237.699219 L 9.089844 237.386719 L 12.027344 237.386719 "/>
<path style="fill:none;stroke-width:6;stroke-linecap:round;stroke-linejoin:round;stroke:rgb(100%,100%,100%);stroke-opacity:1;stroke-miterlimit:10;" d="M -9 220.703125 L -4.585938 219.257813 L 8.90625 218.378906 L 24.632813 218.347656 L 40.664063 218.628906 L 46.816406 218.753906 "/>
<path style="fill:none;stroke-width:6;stroke-linecap:round;stroke-linejoin:round;stroke:rgb(100%,100%,100%);stroke-opacity:1;stroke-miterlimit:10;" d="M -9 197.828125 L -8.058594 197.105469 L -6.730469 194.398438 L -4.632813 176.933594 L -4.191406 172.242188 L -3.886719 166.832031 L -4.003906 162.394531 L -3.796875 159.027344 L -3.257813 153.488281 L -2.863281 150.84375 L -2.910156 149.488281 L -0.0664063 136.996094 L 2.261719 122.773438 L 2.308594 115.375 L 1.679688 112.542969 L -0.347656 108.734375 L -2.28125 106.785156 L -5.425781 105.683594 L -9 105.15625 "/>
<path style="fill:none;stroke-width:7;stroke-linecap:round;stroke-linejoin:round;stroke:rgb(100%,99.215686%,54.509804%);stroke-opacity:1;stroke-miterlimit:10;" d="M -10 21.734375 L -5.472656 7.710938 L -0.441406 -10 "/>
</g>
</svg>

