<?xml version="1.0" encoding="UTF-8"?>
<svg xmlns="http://www.w3.org/2000/svg" xmlns:xlink="http://www.w3.org/1999/xlink" width="256pt" height="256pt" viewBox="0 0 256 256" version="1.1">
<g id="surface2">
<rect x="0" y="0" width="256" height="256" style="fill:rgb(60%,70.196078%,80%);fill-opacity:1;stroke:none;"/>
<path style="fill:none;stroke-width:1;stroke-linecap:round;stroke-linejoin:round;stroke:rgb(70.196078%,77.647059%,83.137255%);stroke-opacity:1;stroke-miterlimit:10;" d="M -4 259 L 259 259 L 259 -4 L -4 -4 L -4 259 "/>
<path style="fill:none;stroke-width:6;stroke-linecap:round;stroke-linejoin:round;stroke:rgb(60%,70.196078%,80%);stroke-opacity:1;stroke-miterlimit:10;" d="M 88.003906 81.78125 L 100.214844 129.195313 L 100.214844 130.46875 L 142.160156 217.210938 L 193.671875 262 "/>
<path style="fill:none;stroke-width:6;stroke-linecap:round;stroke-linejoin:round;stroke:rgb(60%,70.196078%,80%);stroke-opacity:1;stroke-miterlimit:10;" d="M 93.425781 -7 L 88.003906 81.78125 "/>
<path style="fill:none;stroke-width:3;stroke-linecap:round;stroke-linejoin:round;stroke:rgb(100%,100%,100%);stroke-opacity:1;stroke-miterlimit:10;" d="M 112.589844 145.789063 L 113.089844 146.804688 L 109.589844 148.492188 L 111.417969 152.289063 L 114.917969 150.601563 L 115.417969 151.632813 L 106.886719 155.757813 L 106.386719 154.726563 L 110.449219 152.757813 L 108.621094 148.960938 L 104.558594 150.929688 L 104.058594 149.914063 Z M 110.355469 156.472656 L 114.230469 154.597656 L 114.683594 155.535156 L 110.839844 157.394531 C 110.234375 157.683594 109.832031 158.007813 109.636719 158.363281 C 109.4375 158.714844 109.4375 159.105469 109.636719 159.535156 C 109.886719 160.042969 110.261719 160.355469 110.761719 160.472656 C 111.269531 160.597656 111.839844 160.507813 112.464844 160.207031 L 116.105469 158.457031 L 116.558594 159.410156 L 110.152344 162.503906 L 109.699219 161.550781 L 110.683594 161.082031 C 110.171875 161.050781 109.75 160.925781 109.417969 160.707031 C 109.082031 160.488281 108.816406 160.175781 108.621094 159.769531 C 108.308594 159.113281 108.296875 158.503906 108.589844 157.941406 C 108.878906 157.386719 109.46875 156.898438 110.355469 156.472656 Z M 115.527344 156.894531 Z M 118.367188 165.621094 L 121.820313 163.949219 L 122.273438 164.886719 L 113.382813 169.183594 L 112.929688 168.246094 L 113.882813 167.777344 C 113.414063 167.765625 113.011719 167.652344 112.679688 167.433594 C 112.34375 167.222656 112.074219 166.90625 111.867188 166.480469 C 111.523438 165.78125 111.554688 165.0625 111.960938 164.324219 C 112.375 163.59375 113.085938 162.988281 114.085938 162.496094 C 115.09375 162.019531 116.011719 161.847656 116.835938 161.980469 C 117.667969 162.117188 118.257813 162.535156 118.601563 163.230469 C 118.808594 163.65625 118.890625 164.0625 118.851563 164.449219 C 118.808594 164.84375 118.648438 165.234375 118.367188 165.621094 Z M 114.554688 163.480469 C 113.792969 163.855469 113.261719 164.292969 112.960938 164.792969 C 112.65625 165.292969 112.625 165.792969 112.867188 166.292969 C 113.105469 166.792969 113.515625 167.078125 114.101563 167.152344 C 114.683594 167.222656 115.355469 167.074219 116.117188 166.699219 C 116.898438 166.324219 117.433594 165.886719 117.726563 165.386719 C 118.027344 164.894531 118.058594 164.402344 117.820313 163.902344 C 117.578125 163.402344 117.167969 163.117188 116.585938 163.042969 C 116.011719 162.960938 115.335938 163.105469 114.554688 163.480469 Z M 122.332031 171.820313 L 121.332031 172.289063 C 121.339844 171.953125 121.316406 171.625 121.253906 171.304688 C 121.191406 170.980469 121.085938 170.664063 120.941406 170.351563 C 120.710938 169.882813 120.457031 169.566406 120.175781 169.398438 C 119.902344 169.234375 119.613281 169.226563 119.300781 169.382813 C 119.050781 169.5 118.898438 169.679688 118.847656 169.929688 C 118.792969 170.167969 118.824219 170.570313 118.941406 171.132813 L 119.003906 171.492188 C 119.179688 172.242188 119.191406 172.824219 119.035156 173.242188 C 118.878906 173.667969 118.539063 174.007813 118.019531 174.257813 C 117.425781 174.546875 116.847656 174.5625 116.285156 174.304688 C 115.730469 174.054688 115.277344 173.558594 114.925781 172.820313 C 114.777344 172.515625 114.660156 172.179688 114.566406 171.804688 C 114.472656 171.4375 114.402344 171.042969 114.363281 170.617188 L 115.457031 170.085938 C 115.414063 170.53125 115.425781 170.949219 115.488281 171.335938 C 115.550781 171.71875 115.664063 172.078125 115.832031 172.414063 C 116.039063 172.859375 116.285156 173.164063 116.566406 173.320313 C 116.855469 173.476563 117.160156 173.480469 117.472656 173.335938 C 117.753906 173.199219 117.929688 173 118.003906 172.742188 C 118.074219 172.492188 118.039063 172.046875 117.894531 171.414063 L 117.832031 171.039063 C 117.675781 170.382813 117.675781 169.859375 117.832031 169.460938 C 117.988281 169.066406 118.316406 168.742188 118.816406 168.492188 C 119.417969 168.210938 119.976563 168.1875 120.488281 168.414063 C 121.007813 168.632813 121.433594 169.097656 121.769531 169.804688 C 121.945313 170.148438 122.074219 170.484375 122.160156 170.820313 C 122.253906 171.164063 122.308594 171.496094 122.332031 171.820313 Z M 123.734375 176.117188 C 123.484375 175.617188 123.066406 175.328125 122.484375 175.242188 C 121.898438 175.148438 121.222656 175.289063 120.453125 175.664063 C 119.691406 176.039063 119.160156 176.476563 118.859375 176.976563 C 118.566406 177.484375 118.546875 177.992188 118.796875 178.492188 C 119.035156 179 119.445313 179.292969 120.03125 179.367188 C 120.613281 179.449219 121.285156 179.308594 122.046875 178.945313 C 122.804688 178.578125 123.335938 178.140625 123.640625 177.632813 C 123.941406 177.132813 123.972656 176.625 123.734375 176.117188 Z M 124.625 175.679688 C 125.019531 176.5 125.03125 177.289063 124.65625 178.039063 C 124.289063 178.796875 123.582031 179.433594 122.53125 179.945313 C 121.488281 180.453125 120.550781 180.617188 119.71875 180.429688 C 118.894531 180.25 118.285156 179.75 117.890625 178.929688 C 117.484375 178.105469 117.46875 177.3125 117.84375 176.554688 C 118.21875 175.804688 118.925781 175.175781 119.96875 174.664063 C 121.019531 174.15625 121.957031 173.992188 122.78125 174.179688 C 123.601563 174.359375 124.21875 174.859375 124.625 175.679688 Z M 126.289063 185.984375 L 122.414063 187.859375 L 121.960938 186.921875 L 125.789063 185.078125 C 126.390625 184.773438 126.792969 184.441406 126.992188 184.078125 C 127.1875 183.710938 127.183594 183.320313 126.976563 182.90625 C 126.734375 182.394531 126.359375 182.082031 125.851563 181.96875 C 125.351563 181.84375 124.78125 181.933594 124.148438 182.234375 L 120.539063 183.984375 L 120.085938 183.03125 L 126.492188 179.9375 L 126.945313 180.890625 L 125.945313 181.375 C 126.445313 181.417969 126.859375 181.546875 127.195313 181.765625 C 127.539063 181.976563 127.808594 182.273438 128.007813 182.671875 C 128.320313 183.328125 128.328125 183.9375 128.039063 184.5 C 127.746094 185.0625 127.164063 185.554688 126.289063 185.984375 Z M 130.730469 194.839844 C 130.75 195.097656 130.671875 195.402344 130.496094 195.746094 C 130.328125 196.097656 130.058594 196.5 129.683594 196.949219 L 127.855469 199.121094 L 127.308594 197.996094 L 129.027344 195.949219 C 129.484375 195.4375 129.746094 195.015625 129.808594 194.683594 C 129.871094 194.359375 129.800781 193.988281 129.605469 193.574219 L 129.058594 192.433594 L 125.464844 194.167969 L 124.964844 193.152344 L 133.496094 189.027344 L 134.621094 191.355469 C 135.046875 192.238281 135.160156 192.996094 134.964844 193.621094 C 134.765625 194.253906 134.253906 194.769531 133.433594 195.167969 C 132.902344 195.425781 132.402344 195.527344 131.933594 195.464844 C 131.472656 195.410156 131.074219 195.203125 130.730469 194.839844 Z M 133.042969 190.496094 L 130.027344 191.964844 L 130.652344 193.277344 C 130.902344 193.785156 131.214844 194.105469 131.589844 194.230469 C 131.964844 194.355469 132.402344 194.296875 132.902344 194.058594 C 133.402344 193.816406 133.714844 193.511719 133.839844 193.136719 C 133.972656 192.761719 133.917969 192.316406 133.667969 191.808594 Z M 134.894531 197.328125 L 135.347656 198.265625 L 128.941406 201.359375 L 128.488281 200.421875 Z M 137.378906 196.125 L 137.832031 197.0625 L 136.488281 197.703125 L 136.035156 196.765625 Z M 135.980469 199.566406 L 136.449219 200.566406 L 131.949219 204.957031 L 138.199219 204.160156 L 138.683594 205.175781 L 131.230469 206.097656 L 130.621094 204.816406 Z M 138.742188 212.828125 L 138.242188 213.078125 L 136.132813 208.71875 C 135.421875 209.113281 134.964844 209.578125 134.757813 210.109375 C 134.558594 210.640625 134.609375 211.21875 134.914063 211.84375 C 135.089844 212.207031 135.308594 212.535156 135.570313 212.828125 C 135.839844 213.117188 136.152344 213.390625 136.507813 213.640625 L 135.507813 214.125 C 135.183594 213.851563 134.890625 213.5625 134.632813 213.25 C 134.382813 212.9375 134.167969 212.597656 133.992188 212.234375 C 133.542969 211.304688 133.484375 210.429688 133.820313 209.609375 C 134.164063 208.785156 134.839844 208.132813 135.851563 207.640625 C 136.902344 207.132813 137.855469 206.984375 138.710938 207.203125 C 139.574219 207.414063 140.214844 207.949219 140.632813 208.8125 C 141.007813 209.59375 141.023438 210.34375 140.679688 211.0625 C 140.34375 211.78125 139.699219 212.367188 138.742188 212.828125 Z M 138.601563 211.71875 C 139.171875 211.445313 139.5625 211.085938 139.773438 210.640625 C 139.992188 210.191406 139.984375 209.734375 139.757813 209.265625 C 139.496094 208.722656 139.121094 208.375 138.632813 208.21875 C 138.152344 208.0625 137.601563 208.109375 136.976563 208.359375 Z M 143.070313 216.769531 C 143.101563 216.632813 143.101563 216.492188 143.070313 216.347656 C 143.039063 216.210938 142.984375 216.070313 142.914063 215.925781 C 142.652344 215.382813 142.257813 215.066406 141.726563 214.972656 C 141.203125 214.871094 140.585938 214.988281 139.867188 215.332031 L 136.492188 216.972656 L 136.039063 216.019531 L 142.429688 212.925781 L 142.882813 213.878906 L 141.898438 214.363281 C 142.375 214.363281 142.789063 214.480469 143.132813 214.707031 C 143.476563 214.9375 143.757813 215.277344 143.976563 215.738281 C 144.007813 215.800781 144.039063 215.871094 144.070313 215.957031 C 144.109375 216.039063 144.140625 216.136719 144.164063 216.253906 Z M 143.070313 216.769531 "/>
<path style=" stroke:none;fill-rule:evenodd;fill:rgb(41.960784%,58.039216%,69.019608%);fill-opacity:1;" d="M 112.589844 145.789063 L 113.089844 146.804688 L 109.589844 148.492188 L 111.417969 152.289063 L 114.917969 150.601563 L 115.417969 151.632813 L 106.886719 155.757813 L 106.386719 154.726563 L 110.449219 152.757813 L 108.621094 148.960938 L 104.558594 150.929688 L 104.058594 149.914063 Z M 110.355469 156.472656 L 114.230469 154.597656 L 114.683594 155.535156 L 110.839844 157.394531 C 110.234375 157.683594 109.832031 158.007813 109.636719 158.363281 C 109.4375 158.714844 109.4375 159.105469 109.636719 159.535156 C 109.886719 160.042969 110.261719 160.355469 110.761719 160.472656 C 111.269531 160.597656 111.839844 160.507813 112.464844 160.207031 L 116.105469 158.457031 L 116.558594 159.410156 L 110.152344 162.503906 L 109.699219 161.550781 L 110.683594 161.082031 C 110.171875 161.050781 109.75 160.925781 109.417969 160.707031 C 109.082031 160.488281 108.816406 160.175781 108.621094 159.769531 C 108.308594 159.113281 108.296875 158.503906 108.589844 157.941406 C 108.878906 157.386719 109.46875 156.898438 110.355469 156.472656 Z M 115.527344 156.894531 Z M 118.367188 165.621094 L 121.820313 163.949219 L 122.273438 164.886719 L 113.382813 169.183594 L 112.929688 168.246094 L 113.882813 167.777344 C 113.414063 167.765625 113.011719 167.652344 112.679688 167.433594 C 112.34375 167.222656 112.074219 166.90625 111.867188 166.480469 C 111.523438 165.78125 111.554688 165.0625 111.960938 164.324219 C 112.375 163.59375 113.085938 162.988281 114.085938 162.496094 C 115.09375 162.019531 116.011719 161.847656 116.835938 161.980469 C 117.667969 162.117188 118.257813 162.535156 118.601563 163.230469 C 118.808594 163.65625 118.890625 164.0625 118.851563 164.449219 C 118.808594 164.84375 118.648438 165.234375 118.367188 165.621094 Z M 114.554688 163.480469 C 113.792969 163.855469 113.261719 164.292969 112.960938 164.792969 C 112.65625 165.292969 112.625 165.792969 112.867188 166.292969 C 113.105469 166.792969 113.515625 167.078125 114.101563 167.152344 C 114.683594 167.222656 115.355469 167.074219 116.117188 166.699219 C 116.898438 166.324219 117.433594 165.886719 117.726563 165.386719 C 118.027344 164.894531 118.058594 164.402344 117.820313 163.902344 C 117.578125 163.402344 117.167969 163.117188 116.585938 163.042969 C 116.011719 162.960938 115.335938 163.105469 114.554688 163.480469 Z M 122.332031 171.820313 L 121.332031 172.289063 C 121.339844 171.953125 121.316406 171.625 121.253906 171.304688 C 121.191406 170.980469 121.085938 170.664063 120.941406 170.351563 C 120.710938 169.882813 120.457031 169.566406 120.175781 169.398438 C 119.902344 169.234375 119.613281 169.226563 119.300781 169.382813 C 119.050781 169.5 118.898438 169.679688 118.847656 169.929688 C 118.792969 170.167969 118.824219 170.570313 118.941406 171.132813 L 119.003906 171.492188 C 119.179688 172.242188 119.191406 172.824219 119.035156 173.242188 C 118.878906 173.667969 118.539063 174.007813 118.019531 174.257813 C 117.425781 174.546875 116.847656 174.5625 116.285156 174.304688 C 115.730469 174.054688 115.277344 173.558594 114.925781 172.820313 C 114.777344 172.515625 114.660156 172.179688 114.566406 171.804688 C 114.472656 171.4375 114.402344 171.042969 114.363281 170.617188 L 115.457031 170.085938 C 115.414063 170.53125 115.425781 170.949219 115.488281 171.335938 C 115.550781 171.71875 115.664063 172.078125 115.832031 172.414063 C 116.039063 172.859375 116.285156 173.164063 116.566406 173.320313 C 116.855469 173.476563 117.160156 173.480469 117.472656 173.335938 C 117.753906 173.199219 117.929688 173 118.003906 172.742188 C 118.074219 172.492188 118.039063 172.046875 117.894531 171.414063 L 117.832031 171.039063 C 117.675781 170.382813 117.675781 169.859375 117.832031 169.460938 C 117.988281 169.066406 118.316406 168.742188 118.816406 168.492188 C 119.417969 168.210938 119.976563 168.1875 120.488281 168.414063 C 121.007813 168.632813 121.433594 169.097656 121.769531 169.804688 C 121.945313 170.148438 122.074219 170.484375 122.160156 170.820313 C 122.253906 171.164063 122.308594 171.496094 122.332031 171.820313 Z M 123.734375 176.117188 C 123.484375 175.617188 123.066406 175.328125 122.484375 175.242188 C 121.898438 175.148438 121.222656 175.289063 120.453125 175.664063 C 119.691406 176.039063 119.160156 176.476563 118.859375 176.976563 C 118.566406 177.484375 118.546875 177.992188 118.796875 178.492188 C 119.035156 179 119.445313 179.292969 120.03125 179.367188 C 120.613281 179.449219 121.285156 179.308594 122.046875 178.945313 C 122.804688 178.578125 123.335938 178.140625 123.640625 177.632813 C 123.941406 177.132813 123.972656 176.625 123.734375 176.117188 Z M 124.625 175.679688 C 125.019531 176.5 125.03125 177.289063 124.65625 178.039063 C 124.289063 178.796875 123.582031 179.433594 122.53125 179.945313 C 121.488281 180.453125 120.550781 180.617188 119.71875 180.429688 C 118.894531 180.25 118.285156 179.75 117.890625 178.929688 C 117.484375 178.105469 117.46875 177.3125 117.84375 176.554688 C 118.21875 175.804688 118.925781 175.175781 119.96875 174.664063 C 121.019531 174.15625 121.957031 173.992188 122.78125 174.179688 C 123.601563 174.359375 124.21875 174.859375 124.625 175.679688 Z M 126.289063 185.984375 L 122.414063 187.859375 L 121.960938 186.921875 L 125.789063 185.078125 C 126.390625 184.773438 126.792969 184.441406 126.992188 184.078125 C 127.1875 183.710938 127.183594 183.320313 126.976563 182.90625 C 126.734375 182.394531 126.359375 182.082031 125.851563 181.96875 C 125.351563 181.84375 124.78125 181.933594 124.148438 182.234375 L 120.539063 183.984375 L 120.085938 183.03125 L 126.492188 179.9375 L 126.945313 180.890625 L 125.945313 181.375 C 126.445313 181.417969 126.859375 181.546875 127.195313 181.765625 C 127.539063 181.976563 127.808594 182.273438 128.007813 182.671875 C 128.320313 183.328125 128.328125 183.9375 128.039063 184.5 C 127.746094 185.0625 127.164063 185.554688 126.289063 185.984375 Z M 130.730469 194.839844 C 130.75 195.097656 130.671875 195.402344 130.496094 195.746094 C 130.328125 196.097656 130.058594 196.5 129.683594 196.949219 L 127.855469 199.121094 L 127.308594 197.996094 L 129.027344 195.949219 C 129.484375 195.4375 129.746094 195.015625 129.808594 194.683594 C 129.871094 194.359375 129.800781 193.988281 129.605469 193.574219 L 129.058594 192.433594 L 125.464844 194.167969 L 124.964844 193.152344 L 133.496094 189.027344 L 134.621094 191.355469 C 135.046875 192.238281 135.160156 192.996094 134.964844 193.621094 C 134.765625 194.253906 134.253906 194.769531 133.433594 195.167969 C 132.902344 195.425781 132.402344 195.527344 131.933594 195.464844 C 131.472656 195.410156 131.074219 195.203125 130.730469 194.839844 Z M 133.042969 190.496094 L 130.027344 191.964844 L 130.652344 193.277344 C 130.902344 193.785156 131.214844 194.105469 131.589844 194.230469 C 131.964844 194.355469 132.402344 194.296875 132.902344 194.058594 C 133.402344 193.816406 133.714844 193.511719 133.839844 193.136719 C 133.972656 192.761719 133.917969 192.316406 133.667969 191.808594 Z M 134.894531 197.328125 L 135.347656 198.265625 L 128.941406 201.359375 L 128.488281 200.421875 Z M 137.378906 196.125 L 137.832031 197.0625 L 136.488281 197.703125 L 136.035156 196.765625 Z M 135.980469 199.566406 L 136.449219 200.566406 L 131.949219 204.957031 L 138.199219 204.160156 L 138.683594 205.175781 L 131.230469 206.097656 L 130.621094 204.816406 Z M 138.742188 212.828125 L 138.242188 213.078125 L 136.132813 208.71875 C 135.421875 209.113281 134.964844 209.578125 134.757813 210.109375 C 134.558594 210.640625 134.609375 211.21875 134.914063 211.84375 C 135.089844 212.207031 135.308594 212.535156 135.570313 212.828125 C 135.839844 213.117188 136.152344 213.390625 136.507813 213.640625 L 135.507813 214.125 C 135.183594 213.851563 134.890625 213.5625 134.632813 213.25 C 134.382813 212.9375 134.167969 212.597656 133.992188 212.234375 C 133.542969 211.304688 133.484375 210.429688 133.820313 209.609375 C 134.164063 208.785156 134.839844 208.132813 135.851563 207.640625 C 136.902344 207.132813 137.855469 206.984375 138.710938 207.203125 C 139.574219 207.414063 140.214844 207.949219 140.632813 208.8125 C 141.007813 209.59375 141.023438 210.34375 140.679688 211.0625 C 140.34375 211.78125 139.699219 212.367188 138.742188 212.828125 Z M 138.601563 211.71875 C 139.171875 211.445313 139.5625 211.085938 139.773438 210.640625 C 139.992188 210.191406 139.984375 209.734375 139.757813 209.265625 C 139.496094 208.722656 139.121094 208.375 138.632813 208.21875 C 138.152344 208.0625 137.601563 208.109375 136.976563 208.359375 Z M 143.070313 216.769531 C 143.101563 216.632813 143.101563 216.492188 143.070313 216.347656 C 143.039063 216.210938 142.984375 216.070313 142.914063 215.925781 C 142.652344 215.382813 142.257813 215.066406 141.726563 214.972656 C 141.203125 214.871094 140.585938 214.988281 139.867188 215.332031 L 136.492188 216.972656 L 136.039063 216.019531 L 142.429688 212.925781 L 142.882813 213.878906 L 141.898438 214.363281 C 142.375 214.363281 142.789063 214.480469 143.132813 214.707031 C 143.476563 214.9375 143.757813 215.277344 143.976563 215.738281 C 144.007813 215.800781 144.039063 215.871094 144.070313 215.957031 C 144.109375 216.039063 144.140625 216.136719 144.164063 216.253906 Z M 143.070313 216.769531 "/>
</g>
</svg>

