<?xml version="1.0" encoding="UTF-8"?>
<svg xmlns="http://www.w3.org/2000/svg" xmlns:xlink="http://www.w3.org/1999/xlink" width="256pt" height="256pt" viewBox="0 0 256 256" version="1.1">
<g id="surface2">
<rect x="0" y="0" width="256" height="256" style="fill:rgb(94.901961%,93.72549%,91.372549%);fill-opacity:1;stroke:none;"/>
<path style=" stroke:none;fill-rule:evenodd;fill:rgb(94.901961%,93.72549%,91.372549%);fill-opacity:1;" d="M 259 -4 L -4 -4 L -4 259 L -4 -4 Z M 259 -4 "/>
<path style=" stroke:none;fill-rule:evenodd;fill:rgb(94.901961%,93.72549%,91.372549%);fill-opacity:1;" d="M -4 260 L 122.339844 260 L 104.507813 187.945313 L 38.402344 215.988281 L 37.066406 211.535156 L 25.867188 166.335938 L 53.265625 160.933594 L 57.867188 162.136719 L 95.867188 154.535156 L 89.269531 135.136719 L 49.066406 144.933594 L 40.722656 111.066406 L 80.46875 101.734375 L 76.519531 85.539063 L 101.859375 78.84375 L 101.6875 77.386719 L 89.089844 33.183594 L 71.089844 38.78125 L 66.238281 39.792969 L 56.53125 -4 L -4 -4 Z M -4 260 "/>
<path style="fill:none;stroke-width:1;stroke-linecap:round;stroke-linejoin:round;stroke:rgb(89.019608%,87.058824%,83.137255%);stroke-opacity:1;stroke-miterlimit:10;" d="M -4 260 L 122.339844 260 L 104.507813 187.945313 L 38.402344 215.988281 L 37.066406 211.535156 L 25.867188 166.335938 L 53.265625 160.933594 L 57.867188 162.136719 L 95.867188 154.535156 L 89.269531 135.136719 L 49.066406 144.933594 L 40.722656 111.066406 L 80.46875 101.734375 L 76.519531 85.539063 L 101.859375 78.84375 L 101.6875 77.386719 L 89.089844 33.183594 L 71.089844 38.78125 L 66.238281 39.792969 L 56.53125 -4 L -4 -4 L -4 260 "/>
<path style=" stroke:none;fill-rule:evenodd;fill:rgb(79.607843%,84.705882%,76.470588%);fill-opacity:1;" d="M -4 260 L 260 260 L 233.007813 260 L 231.84375 255.507813 L 219.824219 252.042969 L 219.027344 232.441406 L 211.84375 231.707031 L 210.046875 217.507813 L 162.246094 214.90625 L 164.84375 243.105469 L 125.046875 249.90625 L 127.679688 260 Z M -4 260 "/>
<path style=" stroke:none;fill-rule:evenodd;fill:rgb(70.980392%,82.352941%,61.176471%);fill-opacity:1;" d="M -4 260 L 260 260 L 233.007813 260 L 231.84375 255.507813 L 219.824219 252.042969 L 219.027344 232.441406 L 211.84375 231.707031 L 210.046875 217.507813 L 162.246094 214.90625 L 164.84375 243.105469 L 125.046875 249.90625 L 127.679688 260 Z M -4 260 "/>
<path style=" stroke:none;fill-rule:evenodd;fill:rgb(79.607843%,84.705882%,76.470588%);fill-opacity:1;" d="M 61.253906 -4 L 71.089844 38.78125 L 89.089844 33.183594 L 101.6875 77.386719 L 104.347656 76.765625 L 108.921875 79.066406 L 111.722656 83.867188 L 112.523438 87.867188 L 121.488281 119.382813 L 102.921875 124.667969 L 95.488281 126.984375 L 98.488281 137.585938 L 127.488281 128.78125 L 150.488281 123.785156 L 163.089844 166.183594 L 170.289063 166.183594 L 178.289063 189.585938 L 237.195313 207.914063 L 231.59375 157.917969 L 248.6875 155.585938 L 246.289063 147.183594 L 235.742188 148.960938 L 203.085938 48.785156 L 224.605469 41.863281 L 210.488281 -4 Z M 61.253906 -4 "/>
<path style=" stroke:none;fill-rule:evenodd;fill:rgb(70.980392%,82.352941%,61.176471%);fill-opacity:1;" d="M 61.253906 -4 L 71.089844 38.78125 L 89.089844 33.183594 L 101.6875 77.386719 L 104.347656 76.765625 L 108.921875 79.066406 L 111.722656 83.867188 L 112.523438 87.867188 L 121.488281 119.382813 L 102.921875 124.667969 L 95.488281 126.984375 L 98.488281 137.585938 L 127.488281 128.78125 L 150.488281 123.785156 L 163.089844 166.183594 L 170.289063 166.183594 L 178.289063 189.585938 L 237.195313 207.914063 L 231.59375 157.917969 L 248.6875 155.585938 L 246.289063 147.183594 L 235.742188 148.960938 L 203.085938 48.785156 L 224.605469 41.863281 L 210.488281 -4 Z M 61.253906 -4 "/>
<path style=" stroke:none;fill-rule:evenodd;fill:rgb(79.607843%,84.705882%,76.470588%);fill-opacity:1;" d="M 61.253906 -4 L 71.089844 38.78125 L 89.089844 33.183594 L 101.6875 77.386719 L 104.347656 76.765625 L 108.921875 79.066406 L 111.722656 83.867188 L 112.523438 87.867188 L 121.488281 119.382813 L 102.921875 124.667969 L 95.488281 126.984375 L 98.488281 137.585938 L 127.488281 128.78125 L 150.488281 123.785156 L 163.089844 166.183594 L 170.289063 166.183594 L 178.289063 189.585938 L 237.195313 207.914063 L 231.59375 157.917969 L 248.6875 155.585938 L 246.289063 147.183594 L 235.742188 148.960938 L 203.085938 48.785156 L 224.605469 41.863281 L 210.488281 -4 Z M 61.253906 -4 "/>
<path style=" stroke:none;fill-rule:evenodd;fill:rgb(79.607843%,84.705882%,76.470588%);fill-opacity:1;" d="M 211.785156 -4 L 225.140625 38.183594 L 244.121094 32.144531 L 241.5625 22.644531 L 260 16.765625 L 260 9.597656 L 258.371094 3.785156 L 260 3.269531 L 260 -4 Z M 211.785156 -4 "/>
<path style=" stroke:none;fill-rule:evenodd;fill:rgb(70.980392%,82.352941%,61.176471%);fill-opacity:1;" d="M 111.042969 197.695313 L 124.6875 249.53125 L 164.6875 242.929688 L 162.085938 214.332031 L 210.085938 217.332031 L 208.789063 201.34375 L 177.6875 190.933594 L 162.085938 196.332031 L 152.488281 175.929688 L 123.890625 184.03125 L 125.636719 192.90625 Z M 111.042969 197.695313 "/>
<path style=" stroke:none;fill-rule:evenodd;fill:rgb(70.980392%,82.352941%,61.176471%);fill-opacity:1;" d="M 25.867188 166.335938 L 37.066406 211.535156 L 102.269531 183.535156 L 95.867188 154.535156 L 57.867188 162.136719 L 53.265625 160.933594 Z M 25.867188 166.335938 "/>
<path style=" stroke:none;fill-rule:evenodd;fill:rgb(70.980392%,82.352941%,61.176471%);fill-opacity:1;" d="M 40.722656 111.066406 L 49.066406 144.933594 L 89.269531 135.136719 L 80.46875 101.734375 Z M 40.722656 111.066406 "/>
<path style=" stroke:none;fill-rule:evenodd;fill:rgb(87.058824%,81.960784%,67.058824%);fill-opacity:1;" d="M 124.203125 212.429688 L 126.804688 215.308594 L 150.707031 216.054688 L 150.335938 205.265625 L 149.125 199.035156 L 143.453125 192.988281 L 137.875 188.621094 L 129.128906 187.78125 L 126.25 188.621094 Z M 124.203125 212.429688 "/>
<path style=" stroke:none;fill-rule:evenodd;fill:rgb(87.058824%,81.960784%,67.058824%);fill-opacity:1;" d="M 131.550781 222.65625 L 134.433594 246.929688 L 148.753906 244.140625 L 153.402344 240.605469 L 158.332031 230.46875 L 158.703125 219.496094 L 134.433594 219.21875 Z M 131.550781 222.65625 "/>
<path style=" stroke:none;fill-rule:evenodd;fill:rgb(81.960784%,81.568627%,80.392157%);fill-opacity:1;" d="M 254.683594 84.757813 L 260 82.496094 L 260 65.542969 L 253.878906 67.960938 L 255.433594 71.699219 L 249.96875 74 Z M 254.683594 84.757813 "/>
<path style="fill:none;stroke-width:1;stroke-linecap:round;stroke-linejoin:round;stroke:rgb(81.960784%,81.960784%,81.960784%);stroke-opacity:1;stroke-miterlimit:10;" d="M 254.683594 84.757813 L 260 82.496094 L 260 65.542969 L 253.878906 67.960938 L 255.433594 71.699219 L 249.96875 74 L 254.683594 84.757813 "/>
<path style=" stroke:none;fill-rule:evenodd;fill:rgb(87.058824%,81.960784%,67.058824%);fill-opacity:1;" d="M 49.464844 121.253906 L 52.035156 137.613281 L 55.363281 139.894531 L 70.773438 137.230469 L 69.15625 129.816406 L 64.875 124.867188 L 60.40625 122.585938 L 54.601563 120.871094 Z M 49.464844 121.253906 "/>
<path style=" stroke:none;fill-rule:evenodd;fill:rgb(87.058824%,81.960784%,67.058824%);fill-opacity:1;" d="M 60.40625 108.507813 L 60.878906 112.21875 L 64.210938 118.113281 L 69.058594 121.632813 L 74.386719 123.535156 L 82.851563 123.820313 L 79.429688 106.414063 L 77.90625 105.75 Z M 60.40625 108.507813 "/>
<path style=" stroke:none;fill-rule:evenodd;fill:rgb(87.058824%,81.960784%,67.058824%);fill-opacity:1;" d="M 34.121094 167.769531 L 36.261719 172.839844 L 38.773438 176.511719 L 44.351563 179.859375 L 50.910156 181.207031 L 57 180.183594 L 52.863281 163.863281 L 49.980469 162.425781 Z M 34.121094 167.769531 "/>
<path style=" stroke:none;fill-rule:evenodd;fill:rgb(87.058824%,81.960784%,67.058824%);fill-opacity:1;" d="M 57.707031 167.136719 L 62.542969 182.109375 L 65.519531 181.363281 L 71.007813 178.207031 L 74.914063 173.273438 L 76.214844 168.996094 L 75.933594 164.253906 L 75.285156 159.976563 L 59.289063 164.164063 Z M 57.707031 167.136719 "/>
<path style=" stroke:none;fill-rule:evenodd;fill:rgb(87.058824%,81.960784%,67.058824%);fill-opacity:1;" d="M 35.082031 189.9375 L 39.488281 205.980469 L 45.074219 203.910156 L 48.394531 201.9375 L 51.453125 197.269531 L 53.296875 191.976563 L 53.164063 186.84375 L 52.671875 183.789063 L 36.527344 187.566406 Z M 35.082031 189.9375 "/>
<path style=" stroke:none;fill-rule:evenodd;fill:rgb(87.058824%,81.960784%,67.058824%);fill-opacity:1;" d="M 64.21875 185.921875 L 67.796875 197.46875 L 76.121094 192.804688 L 78.355469 189.644531 L 77.515625 180.4375 L 65.242188 183.78125 Z M 64.21875 185.921875 "/>
<path style=" stroke:none;fill-rule:evenodd;fill:rgb(87.058824%,81.960784%,67.058824%);fill-opacity:1;" d="M 48.324219 116.570313 L 48.679688 120.230469 L 59.738281 119.351563 L 61.070313 118.304688 L 59.40625 107.269531 L 54.171875 108.292969 L 52.414063 109.484375 L 49.535156 112.476563 Z M 48.324219 116.570313 "/>
<path style=" stroke:none;fill-rule:evenodd;fill:rgb(60%,70.196078%,80%);fill-opacity:1;" d="M 172.070313 -4 L 172.214844 -2.929688 L 172.011719 0.671875 L 183.011719 6.871094 L 186.210938 3.871094 L 186.210938 0.871094 L 184.011719 -1.726563 L 179.613281 -0.726563 L 176.8125 -2.726563 L 175.617188 -4 Z M 172.070313 -4 "/>
<path style="fill:none;stroke-width:1;stroke-linecap:round;stroke-linejoin:round;stroke:rgb(70.196078%,77.647059%,83.137255%);stroke-opacity:1;stroke-miterlimit:10;" d="M 172.070313 -4 L 172.214844 -2.929688 L 172.011719 0.671875 L 183.011719 6.871094 L 186.210938 3.871094 L 186.210938 0.871094 L 184.011719 -1.726563 L 179.613281 -0.726563 L 176.8125 -2.726563 L 175.617188 -4 L 172.070313 -4 "/>
<path style=" stroke:none;fill-rule:evenodd;fill:rgb(60%,70.196078%,80%);fill-opacity:1;" d="M 96.277344 19.230469 L 97.476563 21.632813 L 97.875 24.230469 L 99.675781 27.429688 L 102.675781 27.628906 L 106.277344 25.828125 L 109.675781 22.828125 L 108.277344 19.628906 L 103.476563 18.429688 L 97.675781 18.429688 Z M 96.277344 19.230469 "/>
<path style="fill:none;stroke-width:1;stroke-linecap:round;stroke-linejoin:round;stroke:rgb(70.196078%,77.647059%,83.137255%);stroke-opacity:1;stroke-miterlimit:10;" d="M 96.277344 19.230469 L 97.476563 21.632813 L 97.875 24.230469 L 99.675781 27.429688 L 102.675781 27.628906 L 106.277344 25.828125 L 109.675781 22.828125 L 108.277344 19.628906 L 103.476563 18.429688 L 97.675781 18.429688 L 96.277344 19.230469 "/>
<path style=" stroke:none;fill-rule:evenodd;fill:rgb(60%,70.196078%,80%);fill-opacity:1;" d="M 179.878906 66.230469 L 181.476563 68.832031 L 185.074219 67.828125 L 184.277344 63.828125 L 181.277344 64.429688 Z M 179.878906 66.230469 "/>
<path style="fill:none;stroke-width:1;stroke-linecap:round;stroke-linejoin:round;stroke:rgb(70.196078%,77.647059%,83.137255%);stroke-opacity:1;stroke-miterlimit:10;" d="M 179.878906 66.230469 L 181.476563 68.832031 L 185.074219 67.828125 L 184.277344 63.828125 L 181.277344 64.429688 L 179.878906 66.230469 "/>
<path style=" stroke:none;fill-rule:evenodd;fill:rgb(60%,70.196078%,80%);fill-opacity:1;" d="M 159.675781 139.230469 L 162.277344 141.828125 L 166.878906 141.828125 L 171.074219 141.03125 L 174.675781 139.832031 L 175.277344 137.828125 L 172.675781 133.03125 L 170.277344 131.628906 L 167.675781 131.628906 L 165.277344 132.628906 L 163.078125 133.429688 L 159.675781 136.230469 Z M 159.675781 139.230469 "/>
<path style="fill:none;stroke-width:1;stroke-linecap:round;stroke-linejoin:round;stroke:rgb(70.196078%,77.647059%,83.137255%);stroke-opacity:1;stroke-miterlimit:10;" d="M 159.675781 139.230469 L 162.277344 141.828125 L 166.878906 141.828125 L 171.074219 141.03125 L 174.675781 139.832031 L 175.277344 137.828125 L 172.675781 133.03125 L 170.277344 131.628906 L 167.675781 131.628906 L 165.277344 132.628906 L 163.078125 133.429688 L 159.675781 136.230469 L 159.675781 139.230469 "/>
<path style=" stroke:none;fill-rule:evenodd;fill:rgb(60%,70.196078%,80%);fill-opacity:1;" d="M 177.277344 156.027344 L 178.476563 158.628906 L 182.277344 158.03125 L 187.875 157.03125 L 190.476563 157.230469 L 192.878906 159.429688 L 196.078125 159.828125 L 200.277344 159.628906 L 201.277344 157.230469 L 199.476563 155.628906 L 199.476563 152.226563 L 197.476563 151.230469 L 193.875 152.226563 L 191.074219 152.226563 L 186.675781 151.03125 L 181.078125 153.628906 Z M 177.277344 156.027344 "/>
<path style="fill:none;stroke-width:1;stroke-linecap:round;stroke-linejoin:round;stroke:rgb(70.196078%,77.647059%,83.137255%);stroke-opacity:1;stroke-miterlimit:10;" d="M 177.277344 156.027344 L 178.476563 158.628906 L 182.277344 158.03125 L 187.875 157.03125 L 190.476563 157.230469 L 192.878906 159.429688 L 196.078125 159.828125 L 200.277344 159.628906 L 201.277344 157.230469 L 199.476563 155.628906 L 199.476563 152.226563 L 197.476563 151.230469 L 193.875 152.226563 L 191.074219 152.226563 L 186.675781 151.03125 L 181.078125 153.628906 L 177.277344 156.027344 "/>
<path style=" stroke:none;fill-rule:evenodd;fill:rgb(60%,70.196078%,80%);fill-opacity:1;" d="M 87.277344 250.628906 L 93.675781 251.03125 L 94.277344 250.027344 L 98.277344 248.230469 L 99.675781 245.628906 L 96.675781 245.832031 L 91.078125 247.628906 Z M 87.277344 250.628906 "/>
<path style="fill:none;stroke-width:1;stroke-linecap:round;stroke-linejoin:round;stroke:rgb(70.196078%,77.647059%,83.137255%);stroke-opacity:1;stroke-miterlimit:10;" d="M 87.277344 250.628906 L 93.675781 251.03125 L 94.277344 250.027344 L 98.277344 248.230469 L 99.675781 245.628906 L 96.675781 245.832031 L 91.078125 247.628906 L 87.277344 250.628906 "/>
<path style="fill:none;stroke-width:8;stroke-linecap:round;stroke-linejoin:round;stroke:rgb(75.686275%,70.980392%,61.568627%);stroke-opacity:1;stroke-miterlimit:10;" d="M 80.945313 156.175781 L 80.050781 152.746094 L 96.054688 148.761719 "/>
<path style="fill:none;stroke-width:8;stroke-linecap:round;stroke-linejoin:round;stroke:rgb(75.686275%,70.980392%,61.568627%);stroke-opacity:1;stroke-miterlimit:10;" d="M 192.308594 114.425781 L 203.929688 110.78125 L 212.707031 108.34375 L 222.042969 105.996094 L 234.828125 102.640625 "/>
<path style="fill:none;stroke-width:8;stroke-linecap:round;stroke-linejoin:round;stroke:rgb(75.686275%,70.980392%,61.568627%);stroke-opacity:1;stroke-miterlimit:10;" d="M 98.503906 203.398438 L 100.902344 211.597656 "/>
<path style="fill:none;stroke-width:8;stroke-linecap:round;stroke-linejoin:round;stroke:rgb(75.686275%,70.980392%,61.568627%);stroke-opacity:1;stroke-miterlimit:10;" d="M 216.070313 45.417969 L 206.398438 48.667969 "/>
<path style="fill:none;stroke-width:8;stroke-linecap:round;stroke-linejoin:round;stroke:rgb(75.686275%,70.980392%,61.568627%);stroke-opacity:1;stroke-miterlimit:10;" d="M 68.777344 42.367188 L 57.390625 43.980469 "/>
<path style="fill:none;stroke-width:8;stroke-linecap:round;stroke-linejoin:round;stroke:rgb(75.686275%,70.980392%,61.568627%);stroke-opacity:1;stroke-miterlimit:10;" d="M 160.199219 188.808594 L 165.398438 186.808594 L 172.613281 185.144531 "/>
<path style="fill:none;stroke-width:8;stroke-linecap:round;stroke-linejoin:round;stroke:rgb(75.686275%,70.980392%,61.568627%);stroke-opacity:1;stroke-miterlimit:10;" d="M 80.300781 210.398438 L 83.902344 223.398438 "/>
<path style="fill:none;stroke-width:8;stroke-linecap:round;stroke-linejoin:round;stroke:rgb(75.686275%,70.980392%,61.568627%);stroke-opacity:1;stroke-miterlimit:10;" d="M 40.003906 146.066406 L 41.40625 152.242188 L 43.53125 160.734375 "/>
<path style="fill:none;stroke-width:8;stroke-linecap:round;stroke-linejoin:round;stroke:rgb(75.686275%,70.980392%,61.568627%);stroke-opacity:1;stroke-miterlimit:10;" d="M 162.753906 171.015625 L 165.398438 186.808594 "/>
<path style="fill:none;stroke-width:8;stroke-linecap:round;stroke-linejoin:round;stroke:rgb(75.686275%,70.980392%,61.568627%);stroke-opacity:1;stroke-miterlimit:10;" d="M 86.054688 37.726563 L 68.777344 42.367188 "/>
<path style="fill:none;stroke-width:8;stroke-linecap:round;stroke-linejoin:round;stroke:rgb(75.686275%,70.980392%,61.568627%);stroke-opacity:1;stroke-miterlimit:10;" d="M 74.714844 66.75 L 93.6875 60.984375 "/>
<path style="fill:none;stroke-width:8;stroke-linecap:round;stroke-linejoin:round;stroke:rgb(75.686275%,70.980392%,61.568627%);stroke-opacity:1;stroke-miterlimit:10;" d="M 20.929688 157.003906 L 41.40625 152.242188 "/>
<path style="fill:none;stroke-width:8;stroke-linecap:round;stroke-linejoin:round;stroke:rgb(75.686275%,70.980392%,61.568627%);stroke-opacity:1;stroke-miterlimit:10;" d="M -4.273438 147.601563 L 16.957031 141.5625 "/>
<path style="fill:none;stroke-width:8;stroke-linecap:round;stroke-linejoin:round;stroke:rgb(75.686275%,70.980392%,61.568627%);stroke-opacity:1;stroke-miterlimit:10;" d="M 103.523438 81.46875 L 80.152344 87.464844 "/>
<path style="fill:none;stroke-width:8;stroke-linecap:round;stroke-linejoin:round;stroke:rgb(75.686275%,70.980392%,61.568627%);stroke-opacity:1;stroke-miterlimit:10;" d="M -5.296875 55.5 L 22.136719 48.652344 "/>
<path style="fill:none;stroke-width:8;stroke-linecap:round;stroke-linejoin:round;stroke:rgb(75.686275%,70.980392%,61.568627%);stroke-opacity:1;stroke-miterlimit:10;" d="M 39.894531 68.023438 L 72.949219 60.128906 "/>
<path style="fill:none;stroke-width:8;stroke-linecap:round;stroke-linejoin:round;stroke:rgb(75.686275%,70.980392%,61.568627%);stroke-opacity:1;stroke-miterlimit:10;" d="M 91.734375 135.960938 L 57.078125 144.492188 "/>
<path style="fill:none;stroke-width:8;stroke-linecap:round;stroke-linejoin:round;stroke:rgb(75.686275%,70.980392%,61.568627%);stroke-opacity:1;stroke-miterlimit:10;" d="M 56.304688 224.195313 L 64.414063 226.792969 L 66.839844 227.34375 L 69.355469 227.589844 L 72.359375 227.496094 L 74.878906 227.070313 L 77.742188 226.179688 L 83.902344 223.398438 L 92.902344 220.199219 "/>
<path style="fill:none;stroke-width:8;stroke-linecap:round;stroke-linejoin:round;stroke:rgb(75.686275%,70.980392%,61.568627%);stroke-opacity:1;stroke-miterlimit:10;" d="M 251.859375 213.03125 L 231.726563 213.1875 L 219.238281 213.0625 L 213.015625 213 "/>
<path style="fill:none;stroke-width:8;stroke-linecap:round;stroke-linejoin:round;stroke:rgb(75.686275%,70.980392%,61.568627%);stroke-opacity:1;stroke-miterlimit:10;" d="M 129.667969 154.25 L 132.695313 165.773438 L 112.585938 170.738281 L 109.835938 160.011719 "/>
<path style="fill:none;stroke-width:8;stroke-linecap:round;stroke-linejoin:round;stroke:rgb(75.686275%,70.980392%,61.568627%);stroke-opacity:1;stroke-miterlimit:10;" d="M -9 210.96875 L 31.914063 200.621094 "/>
<path style="fill:none;stroke-width:8;stroke-linecap:round;stroke-linejoin:round;stroke:rgb(75.686275%,70.980392%,61.568627%);stroke-opacity:1;stroke-miterlimit:10;" d="M 149.285156 126.546875 L 155.4375 147.234375 L 162.753906 171.015625 "/>
<path style="fill:none;stroke-width:8;stroke-linecap:round;stroke-linejoin:round;stroke:rgb(75.686275%,70.980392%,61.568627%);stroke-opacity:1;stroke-miterlimit:10;" d="M 231.726563 213.1875 L 233.871094 237.335938 L 233.847656 260.839844 "/>
<path style="fill:none;stroke-width:8;stroke-linecap:round;stroke-linejoin:round;stroke:rgb(75.686275%,70.980392%,61.568627%);stroke-opacity:1;stroke-miterlimit:10;" d="M 22.136719 48.652344 L 10.402344 -2.207031 "/>
<path style="fill:none;stroke-width:8;stroke-linecap:round;stroke-linejoin:round;stroke:rgb(75.686275%,70.980392%,61.568627%);stroke-opacity:1;stroke-miterlimit:10;" d="M -9 142.066406 L -4.273438 147.601563 L -0.871094 156.949219 L 2.578125 169.605469 "/>
<path style="fill:none;stroke-width:8;stroke-linecap:round;stroke-linejoin:round;stroke:rgb(75.686275%,70.980392%,61.568627%);stroke-opacity:1;stroke-miterlimit:10;" d="M 149.285156 126.546875 L 127.125 132.523438 L 94.292969 142.113281 "/>
<path style="fill:none;stroke-width:8;stroke-linecap:round;stroke-linejoin:round;stroke:rgb(75.686275%,70.980392%,61.568627%);stroke-opacity:1;stroke-miterlimit:10;" d="M 155.4375 147.234375 L 129.667969 154.25 L 109.835938 160.011719 L 99.722656 162.585938 "/>
<path style="fill:none;stroke-width:8;stroke-linecap:round;stroke-linejoin:round;stroke:rgb(75.686275%,70.980392%,61.568627%);stroke-opacity:1;stroke-miterlimit:10;" d="M 40.300781 230.199219 L 56.304688 224.195313 L 59.476563 223.855469 L 61.15625 221.097656 L 63.019531 219.042969 L 64.765625 217.539063 L 66.933594 216.191406 L 69.707031 215.027344 L 80.300781 210.398438 L 98.503906 203.398438 L 105.902344 200.796875 "/>
<path style="fill:none;stroke-width:8;stroke-linecap:round;stroke-linejoin:round;stroke:rgb(75.686275%,70.980392%,61.568627%);stroke-opacity:1;stroke-miterlimit:10;" d="M 35.722656 50.867188 L 39.894531 68.023438 L 43.894531 84.460938 L 47.394531 98.867188 L 80.808594 90.539063 "/>
<path style="fill:none;stroke-width:8;stroke-linecap:round;stroke-linejoin:round;stroke:rgb(75.686275%,70.980392%,61.568627%);stroke-opacity:1;stroke-miterlimit:10;" d="M -9 97.492188 L 4.652344 94.121094 L 43.894531 84.460938 "/>
<path style="fill:none;stroke-width:8;stroke-linecap:round;stroke-linejoin:round;stroke:rgb(75.686275%,70.980392%,61.568627%);stroke-opacity:1;stroke-miterlimit:10;" d="M 105.671875 184.761719 L 118.691406 236.019531 L 125.035156 260.6875 L 125.886719 264 "/>
<path style="fill:none;stroke-width:8;stroke-linecap:round;stroke-linejoin:round;stroke:rgb(75.686275%,70.980392%,61.568627%);stroke-opacity:1;stroke-miterlimit:10;" d="M 216.070313 45.417969 L 234.828125 102.640625 L 252.140625 158.847656 L 251.859375 213.03125 L 251.675781 260.597656 "/>
<path style="fill:none;stroke-width:8;stroke-linecap:round;stroke-linejoin:round;stroke:rgb(75.686275%,70.980392%,61.568627%);stroke-opacity:1;stroke-miterlimit:10;" d="M -9 40.753906 L -7.277344 47.316406 L -5.296875 55.5 L 4.652344 94.121094 L 9.195313 112.203125 L 16.957031 141.5625 L 20.929688 157.003906 L 31.914063 200.621094 L 35.761719 215.363281 L 40.300781 230.199219 "/>
<path style="fill:none;stroke-width:8;stroke-linecap:round;stroke-linejoin:round;stroke:rgb(75.686275%,70.980392%,61.568627%);stroke-opacity:1;stroke-miterlimit:10;" d="M -9 224.589844 L -6.953125 232.738281 L 1.207031 264 "/>
<path style="fill:none;stroke-width:8;stroke-linecap:round;stroke-linejoin:round;stroke:rgb(75.686275%,70.980392%,61.568627%);stroke-opacity:1;stroke-miterlimit:10;" d="M 80.152344 87.464844 L 80.808594 90.539063 "/>
<path style="fill:none;stroke-width:8;stroke-linecap:round;stroke-linejoin:round;stroke:rgb(75.686275%,70.980392%,61.568627%);stroke-opacity:1;stroke-miterlimit:10;" d="M 99.722656 162.585938 L 101.941406 171.605469 "/>
<path style="fill:none;stroke-width:8;stroke-linecap:round;stroke-linejoin:round;stroke:rgb(75.686275%,70.980392%,61.568627%);stroke-opacity:1;stroke-miterlimit:10;" d="M 84.484375 99.671875 L 82.398438 91.199219 L 80.808594 90.539063 "/>
<path style="fill:none;stroke-width:8;stroke-linecap:round;stroke-linejoin:round;stroke:rgb(75.686275%,70.980392%,61.568627%);stroke-opacity:1;stroke-miterlimit:10;" d="M 97.054688 152.382813 L 99.722656 162.585938 "/>
<path style="fill:none;stroke-width:8;stroke-linecap:round;stroke-linejoin:round;stroke:rgb(75.686275%,70.980392%,61.568627%);stroke-opacity:1;stroke-miterlimit:10;" d="M 94.292969 142.113281 L 96.054688 148.761719 L 97.054688 152.382813 "/>
<path style="fill:none;stroke-width:8;stroke-linecap:round;stroke-linejoin:round;stroke:rgb(75.686275%,70.980392%,61.568627%);stroke-opacity:1;stroke-miterlimit:10;" d="M 77.414063 77.039063 L 80.152344 87.464844 "/>
<path style="fill:none;stroke-width:8;stroke-linecap:round;stroke-linejoin:round;stroke:rgb(75.686275%,70.980392%,61.568627%);stroke-opacity:1;stroke-miterlimit:10;" d="M 90.558594 131.636719 L 91.734375 135.960938 L 92.585938 139.171875 L 94.292969 142.113281 "/>
<path style="fill:none;stroke-width:8;stroke-linecap:round;stroke-linejoin:round;stroke:rgb(75.686275%,70.980392%,61.568627%);stroke-opacity:1;stroke-miterlimit:10;" d="M 101.941406 171.605469 L 105.671875 184.761719 "/>
<path style="fill:none;stroke-width:8;stroke-linecap:round;stroke-linejoin:round;stroke:rgb(75.686275%,70.980392%,61.568627%);stroke-opacity:1;stroke-miterlimit:10;" d="M 80.808594 90.539063 L 80.214844 91.976563 L 84.488281 109.300781 L 90.558594 131.636719 "/>
<path style="fill:none;stroke-width:8;stroke-linecap:round;stroke-linejoin:round;stroke:rgb(75.686275%,70.980392%,61.568627%);stroke-opacity:1;stroke-miterlimit:10;" d="M 94.292969 142.113281 L 95.140625 138.769531 L 86.667969 108.519531 L 84.484375 99.671875 "/>
<path style="fill:none;stroke-width:8;stroke-linecap:round;stroke-linejoin:round;stroke:rgb(75.686275%,70.980392%,61.568627%);stroke-opacity:1;stroke-miterlimit:10;" d="M 57.425781 -9 L 68.777344 42.367188 L 72.949219 60.128906 L 74.714844 66.75 L 77.414063 77.039063 "/>
<path style="fill:none;stroke-width:10;stroke-linecap:round;stroke-linejoin:round;stroke:rgb(75.686275%,70.980392%,61.568627%);stroke-opacity:1;stroke-miterlimit:10;" d="M 243.839844 160.328125 L 238.398438 160.777344 "/>
<path style="fill:none;stroke-width:10;stroke-linecap:round;stroke-linejoin:round;stroke:rgb(75.686275%,70.980392%,61.568627%);stroke-opacity:1;stroke-miterlimit:10;" d="M 238.398438 160.777344 L 231.734375 161.660156 "/>
<path style="fill:none;stroke-width:10;stroke-linecap:round;stroke-linejoin:round;stroke:rgb(75.686275%,70.980392%,61.568627%);stroke-opacity:1;stroke-miterlimit:10;" d="M 252.140625 158.847656 L 243.839844 160.328125 "/>
<path style="fill:none;stroke-width:10;stroke-linecap:round;stroke-linejoin:round;stroke:rgb(75.686275%,70.980392%,61.568627%);stroke-opacity:1;stroke-miterlimit:10;" d="M 105.671875 184.761719 L 92.195313 190.847656 "/>
<path style="fill:none;stroke-width:10;stroke-linecap:round;stroke-linejoin:round;stroke:rgb(75.686275%,70.980392%,61.568627%);stroke-opacity:1;stroke-miterlimit:10;" d="M 266 157.0625 L 252.140625 158.847656 "/>
<path style="fill:none;stroke-width:10;stroke-linecap:round;stroke-linejoin:round;stroke:rgb(75.686275%,70.980392%,61.568627%);stroke-opacity:1;stroke-miterlimit:10;" d="M 121.847656 180.660156 L 105.671875 184.761719 "/>
<path style="fill:none;stroke-width:10;stroke-linecap:round;stroke-linejoin:round;stroke:rgb(75.686275%,70.980392%,61.568627%);stroke-opacity:1;stroke-miterlimit:10;" d="M 231.734375 161.660156 L 205.140625 165.316406 L 162.753906 171.015625 L 121.847656 180.660156 "/>
<path style="fill:none;stroke-width:10;stroke-linecap:round;stroke-linejoin:round;stroke:rgb(75.686275%,70.980392%,61.568627%);stroke-opacity:1;stroke-miterlimit:10;" d="M 92.195313 190.847656 L 35.761719 215.363281 L -6.953125 232.738281 L -11 233.8125 "/>
<path style="fill:none;stroke-width:6;stroke-linecap:round;stroke-linejoin:round;stroke:rgb(100%,100%,100%);stroke-opacity:1;stroke-miterlimit:10;" d="M 80.945313 156.175781 L 80.050781 152.746094 L 96.054688 148.761719 "/>
<path style="fill:none;stroke-width:6;stroke-linecap:round;stroke-linejoin:round;stroke:rgb(100%,100%,100%);stroke-opacity:1;stroke-miterlimit:10;" d="M 192.308594 114.425781 L 203.929688 110.78125 L 212.707031 108.34375 L 222.042969 105.996094 L 234.828125 102.640625 "/>
<path style="fill:none;stroke-width:6;stroke-linecap:round;stroke-linejoin:round;stroke:rgb(100%,100%,100%);stroke-opacity:1;stroke-miterlimit:10;" d="M 98.503906 203.398438 L 100.902344 211.597656 "/>
<path style="fill:none;stroke-width:6;stroke-linecap:round;stroke-linejoin:round;stroke:rgb(100%,100%,100%);stroke-opacity:1;stroke-miterlimit:10;" d="M 216.070313 45.417969 L 206.398438 48.667969 "/>
<path style="fill:none;stroke-width:6;stroke-linecap:round;stroke-linejoin:round;stroke:rgb(100%,100%,100%);stroke-opacity:1;stroke-miterlimit:10;" d="M 68.777344 42.367188 L 57.390625 43.980469 "/>
<path style="fill:none;stroke-width:6;stroke-linecap:round;stroke-linejoin:round;stroke:rgb(100%,100%,100%);stroke-opacity:1;stroke-miterlimit:10;" d="M 160.199219 188.808594 L 165.398438 186.808594 L 172.613281 185.144531 "/>
<path style="fill:none;stroke-width:6;stroke-linecap:round;stroke-linejoin:round;stroke:rgb(100%,100%,100%);stroke-opacity:1;stroke-miterlimit:10;" d="M 80.300781 210.398438 L 83.902344 223.398438 "/>
<path style="fill:none;stroke-width:6;stroke-linecap:round;stroke-linejoin:round;stroke:rgb(100%,100%,100%);stroke-opacity:1;stroke-miterlimit:10;" d="M 40.003906 146.066406 L 41.40625 152.242188 L 43.53125 160.734375 "/>
<path style="fill:none;stroke-width:6;stroke-linecap:round;stroke-linejoin:round;stroke:rgb(100%,100%,100%);stroke-opacity:1;stroke-miterlimit:10;" d="M 162.753906 171.015625 L 165.398438 186.808594 "/>
<path style="fill:none;stroke-width:6;stroke-linecap:round;stroke-linejoin:round;stroke:rgb(100%,100%,100%);stroke-opacity:1;stroke-miterlimit:10;" d="M 86.054688 37.726563 L 68.777344 42.367188 "/>
<path style="fill:none;stroke-width:6;stroke-linecap:round;stroke-linejoin:round;stroke:rgb(100%,100%,100%);stroke-opacity:1;stroke-miterlimit:10;" d="M 74.714844 66.75 L 93.6875 60.984375 "/>
<path style="fill:none;stroke-width:6;stroke-linecap:round;stroke-linejoin:round;stroke:rgb(100%,100%,100%);stroke-opacity:1;stroke-miterlimit:10;" d="M 20.929688 157.003906 L 41.40625 152.242188 "/>
<path style="fill:none;stroke-width:6;stroke-linecap:round;stroke-linejoin:round;stroke:rgb(100%,100%,100%);stroke-opacity:1;stroke-miterlimit:10;" d="M -4.273438 147.601563 L 16.957031 141.5625 "/>
<path style="fill:none;stroke-width:6;stroke-linecap:round;stroke-linejoin:round;stroke:rgb(100%,100%,100%);stroke-opacity:1;stroke-miterlimit:10;" d="M 103.523438 81.46875 L 80.152344 87.464844 "/>
<path style="fill:none;stroke-width:6;stroke-linecap:round;stroke-linejoin:round;stroke:rgb(100%,100%,100%);stroke-opacity:1;stroke-miterlimit:10;" d="M -5.296875 55.5 L 22.136719 48.652344 "/>
<path style="fill:none;stroke-width:6;stroke-linecap:round;stroke-linejoin:round;stroke:rgb(100%,100%,100%);stroke-opacity:1;stroke-miterlimit:10;" d="M 39.894531 68.023438 L 72.949219 60.128906 "/>
<path style="fill:none;stroke-width:6;stroke-linecap:round;stroke-linejoin:round;stroke:rgb(100%,100%,100%);stroke-opacity:1;stroke-miterlimit:10;" d="M 91.734375 135.960938 L 57.078125 144.492188 "/>
<path style="fill:none;stroke-width:6;stroke-linecap:round;stroke-linejoin:round;stroke:rgb(100%,100%,100%);stroke-opacity:1;stroke-miterlimit:10;" d="M 56.304688 224.195313 L 64.414063 226.792969 L 66.839844 227.34375 L 69.355469 227.589844 L 72.359375 227.496094 L 74.878906 227.070313 L 77.742188 226.179688 L 83.902344 223.398438 L 92.902344 220.199219 "/>
<path style="fill:none;stroke-width:6;stroke-linecap:round;stroke-linejoin:round;stroke:rgb(100%,100%,100%);stroke-opacity:1;stroke-miterlimit:10;" d="M 251.859375 213.03125 L 231.726563 213.1875 L 219.238281 213.0625 L 213.015625 213 "/>
<path style="fill:none;stroke-width:6;stroke-linecap:round;stroke-linejoin:round;stroke:rgb(100%,100%,100%);stroke-opacity:1;stroke-miterlimit:10;" d="M 129.667969 154.25 L 132.695313 165.773438 L 112.585938 170.738281 L 109.835938 160.011719 "/>
<path style="fill:none;stroke-width:6;stroke-linecap:round;stroke-linejoin:round;stroke:rgb(100%,100%,100%);stroke-opacity:1;stroke-miterlimit:10;" d="M -9 210.96875 L 31.914063 200.621094 "/>
<path style="fill:none;stroke-width:6;stroke-linecap:round;stroke-linejoin:round;stroke:rgb(100%,100%,100%);stroke-opacity:1;stroke-miterlimit:10;" d="M 149.285156 126.546875 L 155.4375 147.234375 L 162.753906 171.015625 "/>
<path style="fill:none;stroke-width:6;stroke-linecap:round;stroke-linejoin:round;stroke:rgb(100%,100%,100%);stroke-opacity:1;stroke-miterlimit:10;" d="M 231.726563 213.1875 L 233.871094 237.335938 L 233.847656 260.839844 "/>
<path style="fill:none;stroke-width:6;stroke-linecap:round;stroke-linejoin:round;stroke:rgb(100%,100%,100%);stroke-opacity:1;stroke-miterlimit:10;" d="M 22.136719 48.652344 L 10.402344 -2.207031 "/>
<path style="fill:none;stroke-width:6;stroke-linecap:round;stroke-linejoin:round;stroke:rgb(100%,100%,100%);stroke-opacity:1;stroke-miterlimit:10;" d="M -9 142.066406 L -4.273438 147.601563 L -0.871094 156.949219 L 2.578125 169.605469 "/>
<path style="fill:none;stroke-width:6;stroke-linecap:round;stroke-linejoin:round;stroke:rgb(100%,100%,100%);stroke-opacity:1;stroke-miterlimit:10;" d="M 149.285156 126.546875 L 127.125 132.523438 L 94.292969 142.113281 "/>
<path style="fill:none;stroke-width:6;stroke-linecap:round;stroke-linejoin:round;stroke:rgb(100%,100%,100%);stroke-opacity:1;stroke-miterlimit:10;" d="M 155.4375 147.234375 L 129.667969 154.25 L 109.835938 160.011719 L 99.722656 162.585938 "/>
<path style="fill:none;stroke-width:6;stroke-linecap:round;stroke-linejoin:round;stroke:rgb(100%,100%,100%);stroke-opacity:1;stroke-miterlimit:10;" d="M 40.300781 230.199219 L 56.304688 224.195313 L 59.476563 223.855469 L 61.15625 221.097656 L 63.019531 219.042969 L 64.765625 217.539063 L 66.933594 216.191406 L 69.707031 215.027344 L 80.300781 210.398438 L 98.503906 203.398438 L 105.902344 200.796875 "/>
<path style="fill:none;stroke-width:6;stroke-linecap:round;stroke-linejoin:round;stroke:rgb(100%,100%,100%);stroke-opacity:1;stroke-miterlimit:10;" d="M 35.722656 50.867188 L 39.894531 68.023438 L 43.894531 84.460938 L 47.394531 98.867188 L 80.808594 90.539063 "/>
<path style="fill:none;stroke-width:6;stroke-linecap:round;stroke-linejoin:round;stroke:rgb(100%,100%,100%);stroke-opacity:1;stroke-miterlimit:10;" d="M -9 97.492188 L 4.652344 94.121094 L 43.894531 84.460938 "/>
<path style="fill:none;stroke-width:6;stroke-linecap:round;stroke-linejoin:round;stroke:rgb(100%,100%,100%);stroke-opacity:1;stroke-miterlimit:10;" d="M 105.671875 184.761719 L 118.691406 236.019531 L 125.035156 260.6875 L 125.886719 264 "/>
<path style="fill:none;stroke-width:6;stroke-linecap:round;stroke-linejoin:round;stroke:rgb(100%,100%,100%);stroke-opacity:1;stroke-miterlimit:10;" d="M 216.070313 45.417969 L 234.828125 102.640625 L 252.140625 158.847656 L 251.859375 213.03125 L 251.675781 260.597656 "/>
<path style="fill:none;stroke-width:6;stroke-linecap:round;stroke-linejoin:round;stroke:rgb(100%,100%,100%);stroke-opacity:1;stroke-miterlimit:10;" d="M -9 40.753906 L -7.277344 47.316406 L -5.296875 55.5 L 4.652344 94.121094 L 9.195313 112.203125 L 16.957031 141.5625 L 20.929688 157.003906 L 31.914063 200.621094 L 35.761719 215.363281 L 40.300781 230.199219 "/>
<path style="fill:none;stroke-width:6;stroke-linecap:round;stroke-linejoin:round;stroke:rgb(100%,100%,100%);stroke-opacity:1;stroke-miterlimit:10;" d="M -9 224.589844 L -6.953125 232.738281 L 1.207031 264 "/>
<path style="fill:none;stroke-width:6;stroke-linecap:round;stroke-linejoin:round;stroke:rgb(100%,99.215686%,54.509804%);stroke-opacity:1;stroke-miterlimit:10;" d="M 80.152344 87.464844 L 80.808594 90.539063 "/>
<path style="fill:none;stroke-width:6;stroke-linecap:round;stroke-linejoin:round;stroke:rgb(100%,99.215686%,54.509804%);stroke-opacity:1;stroke-miterlimit:10;" d="M 99.722656 162.585938 L 101.941406 171.605469 "/>
<path style="fill:none;stroke-width:6;stroke-linecap:round;stroke-linejoin:round;stroke:rgb(100%,99.215686%,54.509804%);stroke-opacity:1;stroke-miterlimit:10;" d="M 84.484375 99.671875 L 82.398438 91.199219 L 80.808594 90.539063 "/>
<path style="fill:none;stroke-width:6;stroke-linecap:round;stroke-linejoin:round;stroke:rgb(100%,99.215686%,54.509804%);stroke-opacity:1;stroke-miterlimit:10;" d="M 97.054688 152.382813 L 99.722656 162.585938 "/>
<path style="fill:none;stroke-width:6;stroke-linecap:round;stroke-linejoin:round;stroke:rgb(100%,99.215686%,54.509804%);stroke-opacity:1;stroke-miterlimit:10;" d="M 94.292969 142.113281 L 96.054688 148.761719 L 97.054688 152.382813 "/>
<path style="fill:none;stroke-width:6;stroke-linecap:round;stroke-linejoin:round;stroke:rgb(100%,99.215686%,54.509804%);stroke-opacity:1;stroke-miterlimit:10;" d="M 77.414063 77.039063 L 80.152344 87.464844 "/>
<path style="fill:none;stroke-width:6;stroke-linecap:round;stroke-linejoin:round;stroke:rgb(100%,99.215686%,54.509804%);stroke-opacity:1;stroke-miterlimit:10;" d="M 90.558594 131.636719 L 91.734375 135.960938 L 92.585938 139.171875 L 94.292969 142.113281 "/>
<path style="fill:none;stroke-width:6;stroke-linecap:round;stroke-linejoin:round;stroke:rgb(100%,99.215686%,54.509804%);stroke-opacity:1;stroke-miterlimit:10;" d="M 101.941406 171.605469 L 105.671875 184.761719 "/>
<path style="fill:none;stroke-width:6;stroke-linecap:round;stroke-linejoin:round;stroke:rgb(100%,99.215686%,54.509804%);stroke-opacity:1;stroke-miterlimit:10;" d="M 80.808594 90.539063 L 80.214844 91.976563 L 84.488281 109.300781 L 90.558594 131.636719 "/>
<path style="fill:none;stroke-width:6;stroke-linecap:round;stroke-linejoin:round;stroke:rgb(100%,99.215686%,54.509804%);stroke-opacity:1;stroke-miterlimit:10;" d="M 94.292969 142.113281 L 95.140625 138.769531 L 86.667969 108.519531 L 84.484375 99.671875 "/>
<path style="fill:none;stroke-width:6;stroke-linecap:round;stroke-linejoin:round;stroke:rgb(100%,99.215686%,54.509804%);stroke-opacity:1;stroke-miterlimit:10;" d="M 57.425781 -9 L 68.777344 42.367188 L 72.949219 60.128906 L 74.714844 66.75 L 77.414063 77.039063 "/>
<path style="fill:none;stroke-width:8;stroke-linecap:round;stroke-linejoin:round;stroke:rgb(100%,99.215686%,54.509804%);stroke-opacity:1;stroke-miterlimit:10;" d="M 243.839844 160.328125 L 238.398438 160.777344 "/>
<path style="fill:none;stroke-width:8;stroke-linecap:round;stroke-linejoin:round;stroke:rgb(100%,99.215686%,54.509804%);stroke-opacity:1;stroke-miterlimit:10;" d="M 238.398438 160.777344 L 231.734375 161.660156 "/>
<path style="fill:none;stroke-width:8;stroke-linecap:round;stroke-linejoin:round;stroke:rgb(100%,99.215686%,54.509804%);stroke-opacity:1;stroke-miterlimit:10;" d="M 252.140625 158.847656 L 243.839844 160.328125 "/>
<path style="fill:none;stroke-width:8;stroke-linecap:round;stroke-linejoin:round;stroke:rgb(100%,99.215686%,54.509804%);stroke-opacity:1;stroke-miterlimit:10;" d="M 105.671875 184.761719 L 92.195313 190.847656 "/>
<path style="fill:none;stroke-width:8;stroke-linecap:round;stroke-linejoin:round;stroke:rgb(100%,99.215686%,54.509804%);stroke-opacity:1;stroke-miterlimit:10;" d="M 266 157.0625 L 252.140625 158.847656 "/>
<path style="fill:none;stroke-width:8;stroke-linecap:round;stroke-linejoin:round;stroke:rgb(100%,99.215686%,54.509804%);stroke-opacity:1;stroke-miterlimit:10;" d="M 121.847656 180.660156 L 105.671875 184.761719 "/>
<path style="fill:none;stroke-width:8;stroke-linecap:round;stroke-linejoin:round;stroke:rgb(100%,99.215686%,54.509804%);stroke-opacity:1;stroke-miterlimit:10;" d="M 231.734375 161.660156 L 205.140625 165.316406 L 162.753906 171.015625 L 121.847656 180.660156 "/>
<path style="fill:none;stroke-width:8;stroke-linecap:round;stroke-linejoin:round;stroke:rgb(100%,99.215686%,54.509804%);stroke-opacity:1;stroke-miterlimit:10;" d="M 92.195313 190.847656 L 35.761719 215.363281 L -6.953125 232.738281 L -11 233.8125 "/>
<path style="fill:none;stroke-width:3;stroke-linecap:round;stroke-linejoin:round;stroke:rgb(100%,100%,100%);stroke-opacity:1;stroke-miterlimit:10;" d="M 132.824219 173.699219 L 133.855469 173.464844 L 134.683594 176.964844 L 138.464844 176.074219 L 137.636719 172.574219 L 138.667969 172.324219 L 140.683594 180.839844 L 139.652344 181.089844 L 138.699219 177.027344 L 134.917969 177.917969 L 135.871094 181.980469 L 134.839844 182.214844 Z M 145.230469 180.394531 C 145.144531 181.214844 145.003906 181.773438 144.808594 182.066406 C 144.609375 182.355469 144.296875 182.554688 143.871094 182.660156 L 143.136719 182.832031 L 142.917969 181.941406 L 143.464844 181.816406 C 143.722656 181.753906 143.90625 181.636719 144.011719 181.472656 C 144.125 181.304688 144.214844 180.945313 144.277344 180.394531 L 144.324219 179.863281 L 140.527344 174.128906 L 141.527344 173.894531 L 144.496094 178.457031 L 145.121094 173.050781 L 146.136719 172.816406 Z M 146.828125 170.023438 L 147.78125 169.804688 L 149.875 178.679688 L 148.921875 178.898438 Z M 153.714844 174.398438 C 152.953125 174.578125 152.441406 174.796875 152.183594 175.054688 C 151.933594 175.316406 151.863281 175.675781 151.980469 176.132813 C 152.0625 176.507813 152.238281 176.78125 152.511719 176.945313 C 152.78125 177.113281 153.109375 177.15625 153.496094 177.070313 C 154.015625 176.945313 154.386719 176.640625 154.605469 176.148438 C 154.832031 175.660156 154.863281 175.070313 154.699219 174.382813 L 154.652344 174.164063 Z M 155.480469 173.492188 L 156.339844 177.148438 L 155.402344 177.367188 L 155.167969 176.398438 C 155.050781 176.835938 154.855469 177.191406 154.574219 177.460938 C 154.292969 177.722656 153.921875 177.90625 153.464844 178.007813 C 152.871094 178.15625 152.355469 178.082031 151.917969 177.789063 C 151.488281 177.5 151.203125 177.046875 151.058594 176.429688 C 150.890625 175.710938 150.980469 175.125 151.324219 174.664063 C 151.667969 174.195313 152.265625 173.859375 153.121094 173.648438 L 154.449219 173.335938 L 154.433594 173.226563 C 154.316406 172.75 154.082031 172.410156 153.730469 172.210938 C 153.386719 172.015625 152.953125 171.976563 152.433594 172.101563 C 152.109375 172.1875 151.800781 172.3125 151.511719 172.476563 C 151.21875 172.632813 150.949219 172.832031 150.699219 173.070313 L 150.464844 172.101563 C 150.777344 171.863281 151.082031 171.671875 151.386719 171.523438 C 151.699219 171.378906 152.011719 171.269531 152.324219 171.195313 C 153.15625 171 153.832031 171.09375 154.355469 171.476563 C 154.875 171.851563 155.25 172.523438 155.480469 173.492188 Z M 162.152344 171.726563 L 163.058594 175.585938 L 162.105469 175.804688 L 161.214844 171.992188 C 161.066406 171.378906 160.855469 170.953125 160.574219 170.710938 C 160.292969 170.460938 159.941406 170.382813 159.527344 170.476563 C 159.003906 170.59375 158.640625 170.867188 158.433594 171.304688 C 158.222656 171.734375 158.191406 172.257813 158.339844 172.882813 L 159.183594 176.492188 L 158.230469 176.710938 L 156.746094 170.320313 L 157.699219 170.101563 L 157.917969 171.085938 C 158.050781 170.648438 158.25 170.300781 158.511719 170.039063 C 158.78125 169.78125 159.121094 169.601563 159.527344 169.507813 C 160.171875 169.351563 160.71875 169.460938 161.167969 169.835938 C 161.625 170.210938 161.953125 170.84375 162.152344 171.726563 Z M 168.457031 170.574219 L 168.894531 173.761719 L 170.582031 173.527344 C 171.144531 173.457031 171.542969 173.269531 171.785156 172.964844 C 172.023438 172.664063 172.105469 172.242188 172.035156 171.699219 C 171.960938 171.160156 171.769531 170.777344 171.457031 170.558594 C 171.144531 170.339844 170.707031 170.269531 170.144531 170.339844 Z M 167.988281 166.996094 L 168.332031 169.621094 L 169.894531 169.402344 C 170.402344 169.339844 170.773438 169.183594 171.003906 168.933594 C 171.230469 168.675781 171.316406 168.332031 171.253906 167.902344 C 171.191406 167.457031 171.019531 167.144531 170.738281 166.964844 C 170.457031 166.777344 170.058594 166.714844 169.550781 166.777344 Z M 166.785156 166.183594 L 169.488281 165.824219 C 170.289063 165.710938 170.929688 165.808594 171.410156 166.121094 C 171.898438 166.433594 172.191406 166.933594 172.285156 167.621094 C 172.355469 168.152344 172.304688 168.597656 172.128906 168.949219 C 171.949219 169.292969 171.648438 169.527344 171.222656 169.652344 C 171.761719 169.714844 172.199219 169.925781 172.535156 170.277344 C 172.867188 170.621094 173.074219 171.085938 173.160156 171.667969 C 173.261719 172.449219 173.105469 173.085938 172.691406 173.574219 C 172.273438 174.066406 171.632813 174.367188 170.769531 174.480469 L 167.957031 174.855469 Z M 176.75 167.804688 C 176.238281 167.867188 175.863281 168.148438 175.625 168.648438 C 175.382813 169.140625 175.316406 169.769531 175.421875 170.539063 C 175.523438 171.320313 175.753906 171.914063 176.109375 172.320313 C 176.472656 172.726563 176.914063 172.894531 177.4375 172.820313 C 177.945313 172.75 178.316406 172.46875 178.546875 171.976563 C 178.785156 171.488281 178.851563 170.859375 178.75 170.085938 C 178.644531 169.328125 178.410156 168.738281 178.046875 168.320313 C 177.691406 167.90625 177.257813 167.734375 176.75 167.804688 Z M 176.640625 166.914063 C 177.472656 166.800781 178.164063 167.015625 178.71875 167.554688 C 179.28125 168.097656 179.632813 168.898438 179.78125 169.960938 C 179.925781 171.023438 179.796875 171.894531 179.390625 172.570313 C 178.992188 173.238281 178.378906 173.628906 177.546875 173.742188 C 176.703125 173.859375 176.003906 173.644531 175.453125 173.101563 C 174.898438 172.550781 174.550781 171.742188 174.40625 170.679688 C 174.257813 169.617188 174.382813 168.753906 174.78125 168.085938 C 175.175781 167.421875 175.796875 167.03125 176.640625 166.914063 Z M 181.363281 170.425781 L 180.832031 166.503906 L 181.800781 166.378906 L 182.332031 170.269531 C 182.402344 170.886719 182.570313 171.332031 182.832031 171.613281 C 183.089844 171.886719 183.429688 171.996094 183.847656 171.941406 C 184.378906 171.871094 184.769531 171.628906 185.019531 171.222656 C 185.269531 170.816406 185.351563 170.296875 185.269531 169.660156 L 184.769531 165.972656 L 185.738281 165.847656 L 186.613281 172.347656 L 185.644531 172.472656 L 185.503906 171.472656 C 185.335938 171.902344 185.105469 172.234375 184.816406 172.472656 C 184.535156 172.703125 184.183594 172.847656 183.769531 172.910156 C 183.101563 172.996094 182.558594 172.828125 182.144531 172.410156 C 181.738281 171.996094 181.476563 171.332031 181.363281 170.425781 Z M 183.238281 166.019531 Z M 187.367188 163.027344 L 188.335938 162.902344 L 189.554688 171.949219 L 188.585938 172.074219 Z M 196.121094 167.488281 L 196.183594 168.003906 L 191.746094 168.597656 C 191.890625 169.339844 192.167969 169.875 192.574219 170.207031 C 192.980469 170.542969 193.503906 170.660156 194.152344 170.566406 C 194.527344 170.515625 194.875 170.421875 195.199219 170.285156 C 195.53125 170.152344 195.855469 169.953125 196.167969 169.691406 L 196.308594 170.707031 C 195.984375 170.917969 195.644531 171.089844 195.292969 171.222656 C 194.9375 171.359375 194.574219 171.453125 194.199219 171.503906 C 193.269531 171.628906 192.496094 171.425781 191.871094 170.894531 C 191.246094 170.363281 190.863281 169.582031 190.730469 168.550781 C 190.582031 167.488281 190.722656 166.613281 191.152344 165.925781 C 191.589844 165.230469 192.25 164.816406 193.136719 164.691406 C 193.917969 164.589844 194.574219 164.785156 195.105469 165.285156 C 195.644531 165.785156 195.984375 166.519531 196.121094 167.488281 Z M 195.089844 167.300781 C 195.003906 166.730469 194.796875 166.285156 194.464844 165.972656 C 194.128906 165.652344 193.722656 165.519531 193.246094 165.582031 C 192.703125 165.65625 192.296875 165.886719 192.027344 166.269531 C 191.753906 166.65625 191.636719 167.15625 191.667969 167.769531 Z M 196.59375 164.382813 L 197.59375 164.257813 L 200.15625 169.460938 L 201.265625 163.757813 L 202.296875 163.617188 L 200.96875 170.414063 L 199.65625 170.585938 Z M 206.699219 166.3125 C 205.925781 166.417969 205.40625 166.589844 205.136719 166.828125 C 204.863281 167.070313 204.761719 167.421875 204.824219 167.890625 C 204.875 168.277344 205.027344 168.5625 205.277344 168.75 C 205.535156 168.9375 205.859375 169.007813 206.246094 168.953125 C 206.777344 168.882813 207.171875 168.617188 207.433594 168.15625 C 207.703125 167.699219 207.792969 167.121094 207.699219 166.421875 L 207.652344 166.1875 Z M 208.574219 165.59375 L 209.074219 169.3125 L 208.105469 169.453125 L 207.964844 168.46875 C 207.796875 168.875 207.5625 169.199219 207.261719 169.4375 C 206.957031 169.679688 206.566406 169.828125 206.089844 169.890625 C 205.496094 169.976563 205 169.855469 204.605469 169.53125 C 204.207031 169.199219 203.96875 168.71875 203.886719 168.09375 C 203.78125 167.367188 203.921875 166.789063 204.308594 166.359375 C 204.691406 165.921875 205.324219 165.640625 206.199219 165.515625 L 207.542969 165.34375 L 207.527344 165.234375 C 207.464844 164.746094 207.265625 164.386719 206.933594 164.15625 C 206.609375 163.917969 206.183594 163.835938 205.652344 163.90625 C 205.328125 163.960938 205.011719 164.054688 204.699219 164.1875 C 204.394531 164.324219 204.105469 164.5 203.824219 164.71875 L 203.699219 163.734375 C 204.03125 163.527344 204.355469 163.367188 204.667969 163.25 C 204.988281 163.125 205.3125 163.042969 205.636719 163 C 206.480469 162.886719 207.144531 163.042969 207.636719 163.46875 C 208.125 163.898438 208.4375 164.605469 208.574219 165.59375 Z M 213.675781 163.058594 C 213.558594 163.019531 213.433594 162.988281 213.300781 162.964844 C 213.175781 162.945313 213.035156 162.945313 212.878906 162.964844 C 212.335938 163.039063 211.945313 163.292969 211.707031 163.730469 C 211.464844 164.167969 211.398438 164.757813 211.503906 165.496094 L 211.972656 168.917969 L 211.003906 169.042969 L 210.113281 162.542969 L 211.082031 162.417969 L 211.222656 163.417969 C 211.378906 163.003906 211.601563 162.679688 211.894531 162.449219 C 212.183594 162.210938 212.558594 162.058594 213.019531 161.996094 C 213.089844 161.988281 213.167969 161.980469 213.253906 161.980469 C 213.335938 161.980469 213.425781 161.980469 213.519531 161.980469 Z M 218.539063 162.394531 L 218.054688 158.863281 L 219.023438 158.738281 L 220.257813 167.785156 L 219.289063 167.910156 L 219.148438 166.941406 C 218.992188 167.347656 218.773438 167.671875 218.492188 167.910156 C 218.21875 168.140625 217.867188 168.285156 217.429688 168.347656 C 216.71875 168.441406 216.101563 168.207031 215.570313 167.644531 C 215.046875 167.074219 214.714844 166.277344 214.570313 165.253906 C 214.433594 164.234375 214.542969 163.378906 214.898438 162.691406 C 215.25 162.003906 215.78125 161.613281 216.492188 161.519531 C 216.929688 161.457031 217.308594 161.5 217.632813 161.644531 C 217.964844 161.792969 218.265625 162.042969 218.539063 162.394531 Z M 215.554688 165.113281 C 215.667969 165.894531 215.902344 166.488281 216.257813 166.894531 C 216.621094 167.300781 217.054688 167.472656 217.554688 167.410156 C 218.0625 167.339844 218.433594 167.058594 218.664063 166.566406 C 218.890625 166.078125 218.949219 165.441406 218.835938 164.660156 C 218.730469 163.878906 218.5 163.285156 218.148438 162.878906 C 217.792969 162.472656 217.359375 162.308594 216.851563 162.378906 C 216.351563 162.441406 215.980469 162.71875 215.742188 163.207031 C 215.511719 163.699219 215.449219 164.332031 215.554688 165.113281 Z M 215.554688 165.113281 "/>
<path style=" stroke:none;fill-rule:evenodd;fill:rgb(20%,20%,20%);fill-opacity:1;" d="M 132.824219 173.699219 L 133.855469 173.464844 L 134.683594 176.964844 L 138.464844 176.074219 L 137.636719 172.574219 L 138.667969 172.324219 L 140.683594 180.839844 L 139.652344 181.089844 L 138.699219 177.027344 L 134.917969 177.917969 L 135.871094 181.980469 L 134.839844 182.214844 Z M 145.230469 180.394531 C 145.144531 181.214844 145.003906 181.773438 144.808594 182.066406 C 144.609375 182.355469 144.296875 182.554688 143.871094 182.660156 L 143.136719 182.832031 L 142.917969 181.941406 L 143.464844 181.816406 C 143.722656 181.753906 143.90625 181.636719 144.011719 181.472656 C 144.125 181.304688 144.214844 180.945313 144.277344 180.394531 L 144.324219 179.863281 L 140.527344 174.128906 L 141.527344 173.894531 L 144.496094 178.457031 L 145.121094 173.050781 L 146.136719 172.816406 Z M 146.828125 170.023438 L 147.78125 169.804688 L 149.875 178.679688 L 148.921875 178.898438 Z M 153.714844 174.398438 C 152.953125 174.578125 152.441406 174.796875 152.183594 175.054688 C 151.933594 175.316406 151.863281 175.675781 151.980469 176.132813 C 152.0625 176.507813 152.238281 176.78125 152.511719 176.945313 C 152.78125 177.113281 153.109375 177.15625 153.496094 177.070313 C 154.015625 176.945313 154.386719 176.640625 154.605469 176.148438 C 154.832031 175.660156 154.863281 175.070313 154.699219 174.382813 L 154.652344 174.164063 Z M 155.480469 173.492188 L 156.339844 177.148438 L 155.402344 177.367188 L 155.167969 176.398438 C 155.050781 176.835938 154.855469 177.191406 154.574219 177.460938 C 154.292969 177.722656 153.921875 177.90625 153.464844 178.007813 C 152.871094 178.15625 152.355469 178.082031 151.917969 177.789063 C 151.488281 177.5 151.203125 177.046875 151.058594 176.429688 C 150.890625 175.710938 150.980469 175.125 151.324219 174.664063 C 151.667969 174.195313 152.265625 173.859375 153.121094 173.648438 L 154.449219 173.335938 L 154.433594 173.226563 C 154.316406 172.75 154.082031 172.410156 153.730469 172.210938 C 153.386719 172.015625 152.953125 171.976563 152.433594 172.101563 C 152.109375 172.1875 151.800781 172.3125 151.511719 172.476563 C 151.21875 172.632813 150.949219 172.832031 150.699219 173.070313 L 150.464844 172.101563 C 150.777344 171.863281 151.082031 171.671875 151.386719 171.523438 C 151.699219 171.378906 152.011719 171.269531 152.324219 171.195313 C 153.15625 171 153.832031 171.09375 154.355469 171.476563 C 154.875 171.851563 155.25 172.523438 155.480469 173.492188 Z M 162.152344 171.726563 L 163.058594 175.585938 L 162.105469 175.804688 L 161.214844 171.992188 C 161.066406 171.378906 160.855469 170.953125 160.574219 170.710938 C 160.292969 170.460938 159.941406 170.382813 159.527344 170.476563 C 159.003906 170.59375 158.640625 170.867188 158.433594 171.304688 C 158.222656 171.734375 158.191406 172.257813 158.339844 172.882813 L 159.183594 176.492188 L 158.230469 176.710938 L 156.746094 170.320313 L 157.699219 170.101563 L 157.917969 171.085938 C 158.050781 170.648438 158.25 170.300781 158.511719 170.039063 C 158.78125 169.78125 159.121094 169.601563 159.527344 169.507813 C 160.171875 169.351563 160.71875 169.460938 161.167969 169.835938 C 161.625 170.210938 161.953125 170.84375 162.152344 171.726563 Z M 168.457031 170.574219 L 168.894531 173.761719 L 170.582031 173.527344 C 171.144531 173.457031 171.542969 173.269531 171.785156 172.964844 C 172.023438 172.664063 172.105469 172.242188 172.035156 171.699219 C 171.960938 171.160156 171.769531 170.777344 171.457031 170.558594 C 171.144531 170.339844 170.707031 170.269531 170.144531 170.339844 Z M 167.988281 166.996094 L 168.332031 169.621094 L 169.894531 169.402344 C 170.402344 169.339844 170.773438 169.183594 171.003906 168.933594 C 171.230469 168.675781 171.316406 168.332031 171.253906 167.902344 C 171.191406 167.457031 171.019531 167.144531 170.738281 166.964844 C 170.457031 166.777344 170.058594 166.714844 169.550781 166.777344 Z M 166.785156 166.183594 L 169.488281 165.824219 C 170.289063 165.710938 170.929688 165.808594 171.410156 166.121094 C 171.898438 166.433594 172.191406 166.933594 172.285156 167.621094 C 172.355469 168.152344 172.304688 168.597656 172.128906 168.949219 C 171.949219 169.292969 171.648438 169.527344 171.222656 169.652344 C 171.761719 169.714844 172.199219 169.925781 172.535156 170.277344 C 172.867188 170.621094 173.074219 171.085938 173.160156 171.667969 C 173.261719 172.449219 173.105469 173.085938 172.691406 173.574219 C 172.273438 174.066406 171.632813 174.367188 170.769531 174.480469 L 167.957031 174.855469 Z M 176.75 167.804688 C 176.238281 167.867188 175.863281 168.148438 175.625 168.648438 C 175.382813 169.140625 175.316406 169.769531 175.421875 170.539063 C 175.523438 171.320313 175.753906 171.914063 176.109375 172.320313 C 176.472656 172.726563 176.914063 172.894531 177.4375 172.820313 C 177.945313 172.75 178.316406 172.46875 178.546875 171.976563 C 178.785156 171.488281 178.851563 170.859375 178.75 170.085938 C 178.644531 169.328125 178.410156 168.738281 178.046875 168.320313 C 177.691406 167.90625 177.257813 167.734375 176.75 167.804688 Z M 176.640625 166.914063 C 177.472656 166.800781 178.164063 167.015625 178.71875 167.554688 C 179.28125 168.097656 179.632813 168.898438 179.78125 169.960938 C 179.925781 171.023438 179.796875 171.894531 179.390625 172.570313 C 178.992188 173.238281 178.378906 173.628906 177.546875 173.742188 C 176.703125 173.859375 176.003906 173.644531 175.453125 173.101563 C 174.898438 172.550781 174.550781 171.742188 174.40625 170.679688 C 174.257813 169.617188 174.382813 168.753906 174.78125 168.085938 C 175.175781 167.421875 175.796875 167.03125 176.640625 166.914063 Z M 181.363281 170.425781 L 180.832031 166.503906 L 181.800781 166.378906 L 182.332031 170.269531 C 182.402344 170.886719 182.570313 171.332031 182.832031 171.613281 C 183.089844 171.886719 183.429688 171.996094 183.847656 171.941406 C 184.378906 171.871094 184.769531 171.628906 185.019531 171.222656 C 185.269531 170.816406 185.351563 170.296875 185.269531 169.660156 L 184.769531 165.972656 L 185.738281 165.847656 L 186.613281 172.347656 L 185.644531 172.472656 L 185.503906 171.472656 C 185.335938 171.902344 185.105469 172.234375 184.816406 172.472656 C 184.535156 172.703125 184.183594 172.847656 183.769531 172.910156 C 183.101563 172.996094 182.558594 172.828125 182.144531 172.410156 C 181.738281 171.996094 181.476563 171.332031 181.363281 170.425781 Z M 183.238281 166.019531 Z M 187.367188 163.027344 L 188.335938 162.902344 L 189.554688 171.949219 L 188.585938 172.074219 Z M 196.121094 167.488281 L 196.183594 168.003906 L 191.746094 168.597656 C 191.890625 169.339844 192.167969 169.875 192.574219 170.207031 C 192.980469 170.542969 193.503906 170.660156 194.152344 170.566406 C 194.527344 170.515625 194.875 170.421875 195.199219 170.285156 C 195.53125 170.152344 195.855469 169.953125 196.167969 169.691406 L 196.308594 170.707031 C 195.984375 170.917969 195.644531 171.089844 195.292969 171.222656 C 194.9375 171.359375 194.574219 171.453125 194.199219 171.503906 C 193.269531 171.628906 192.496094 171.425781 191.871094 170.894531 C 191.246094 170.363281 190.863281 169.582031 190.730469 168.550781 C 190.582031 167.488281 190.722656 166.613281 191.152344 165.925781 C 191.589844 165.230469 192.25 164.816406 193.136719 164.691406 C 193.917969 164.589844 194.574219 164.785156 195.105469 165.285156 C 195.644531 165.785156 195.984375 166.519531 196.121094 167.488281 Z M 195.089844 167.300781 C 195.003906 166.730469 194.796875 166.285156 194.464844 165.972656 C 194.128906 165.652344 193.722656 165.519531 193.246094 165.582031 C 192.703125 165.65625 192.296875 165.886719 192.027344 166.269531 C 191.753906 166.65625 191.636719 167.15625 191.667969 167.769531 Z M 196.59375 164.382813 L 197.59375 164.257813 L 200.15625 169.460938 L 201.265625 163.757813 L 202.296875 163.617188 L 200.96875 170.414063 L 199.65625 170.585938 Z M 206.699219 166.3125 C 205.925781 166.417969 205.40625 166.589844 205.136719 166.828125 C 204.863281 167.070313 204.761719 167.421875 204.824219 167.890625 C 204.875 168.277344 205.027344 168.5625 205.277344 168.75 C 205.535156 168.9375 205.859375 169.007813 206.246094 168.953125 C 206.777344 168.882813 207.171875 168.617188 207.433594 168.15625 C 207.703125 167.699219 207.792969 167.121094 207.699219 166.421875 L 207.652344 166.1875 Z M 208.574219 165.59375 L 209.074219 169.3125 L 208.105469 169.453125 L 207.964844 168.46875 C 207.796875 168.875 207.5625 169.199219 207.261719 169.4375 C 206.957031 169.679688 206.566406 169.828125 206.089844 169.890625 C 205.496094 169.976563 205 169.855469 204.605469 169.53125 C 204.207031 169.199219 203.96875 168.71875 203.886719 168.09375 C 203.78125 167.367188 203.921875 166.789063 204.308594 166.359375 C 204.691406 165.921875 205.324219 165.640625 206.199219 165.515625 L 207.542969 165.34375 L 207.527344 165.234375 C 207.464844 164.746094 207.265625 164.386719 206.933594 164.15625 C 206.609375 163.917969 206.183594 163.835938 205.652344 163.90625 C 205.328125 163.960938 205.011719 164.054688 204.699219 164.1875 C 204.394531 164.324219 204.105469 164.5 203.824219 164.71875 L 203.699219 163.734375 C 204.03125 163.527344 204.355469 163.367188 204.667969 163.25 C 204.988281 163.125 205.3125 163.042969 205.636719 163 C 206.480469 162.886719 207.144531 163.042969 207.636719 163.46875 C 208.125 163.898438 208.4375 164.605469 208.574219 165.59375 Z M 213.675781 163.058594 C 213.558594 163.019531 213.433594 162.988281 213.300781 162.964844 C 213.175781 162.945313 213.035156 162.945313 212.878906 162.964844 C 212.335938 163.039063 211.945313 163.292969 211.707031 163.730469 C 211.464844 164.167969 211.398438 164.757813 211.503906 165.496094 L 211.972656 168.917969 L 211.003906 169.042969 L 210.113281 162.542969 L 211.082031 162.417969 L 211.222656 163.417969 C 211.378906 163.003906 211.601563 162.679688 211.894531 162.449219 C 212.183594 162.210938 212.558594 162.058594 213.019531 161.996094 C 213.089844 161.988281 213.167969 161.980469 213.253906 161.980469 C 213.335938 161.980469 213.425781 161.980469 213.519531 161.980469 Z M 218.539063 162.394531 L 218.054688 158.863281 L 219.023438 158.738281 L 220.257813 167.785156 L 219.289063 167.910156 L 219.148438 166.941406 C 218.992188 167.347656 218.773438 167.671875 218.492188 167.910156 C 218.21875 168.140625 217.867188 168.285156 217.429688 168.347656 C 216.71875 168.441406 216.101563 168.207031 215.570313 167.644531 C 215.046875 167.074219 214.714844 166.277344 214.570313 165.253906 C 214.433594 164.234375 214.542969 163.378906 214.898438 162.691406 C 215.25 162.003906 215.78125 161.613281 216.492188 161.519531 C 216.929688 161.457031 217.308594 161.5 217.632813 161.644531 C 217.964844 161.792969 218.265625 162.042969 218.539063 162.394531 Z M 215.554688 165.113281 C 215.667969 165.894531 215.902344 166.488281 216.257813 166.894531 C 216.621094 167.300781 217.054688 167.472656 217.554688 167.410156 C 218.0625 167.339844 218.433594 167.058594 218.664063 166.566406 C 218.890625 166.078125 218.949219 165.441406 218.835938 164.660156 C 218.730469 163.878906 218.5 163.285156 218.148438 162.878906 C 217.792969 162.472656 217.359375 162.308594 216.851563 162.378906 C 216.351563 162.441406 215.980469 162.71875 215.742188 163.207031 C 215.511719 163.699219 215.449219 164.332031 215.554688 165.113281 Z M 215.554688 165.113281 "/>
</g>
</svg>

