<?xml version="1.0" encoding="UTF-8"?>
<svg xmlns="http://www.w3.org/2000/svg" xmlns:xlink="http://www.w3.org/1999/xlink" width="256pt" height="256pt" viewBox="0 0 256 256" version="1.1">
<g id="surface2">
<rect x="0" y="0" width="256" height="256" style="fill:rgb(94.901961%,93.72549%,91.372549%);fill-opacity:1;stroke:none;"/>
<path style="fill:none;stroke-width:1;stroke-linecap:round;stroke-linejoin:round;stroke:rgb(100%,100%,100%);stroke-opacity:1;stroke-dasharray:2,3;stroke-miterlimit:10;" d="M 225.582031 -2 L 225.410156 1.117188 L 224.003906 18.824219 L 227.375 33.714844 L 229.34375 50.019531 L 227.375 65.476563 L 220.632813 82.617188 L 219.226563 96.667969 L 220.632813 118.027344 L 220.910156 130.671875 L 223.863281 151.046875 L 224.566406 157.507813 L 221.753906 172.96875 "/>
<path style="fill:none;stroke-width:1;stroke-linecap:round;stroke-linejoin:round;stroke:rgb(100%,100%,100%);stroke-opacity:1;stroke-dasharray:2,3;stroke-miterlimit:10;" d="M 121.5 257 L 114.265625 231.445313 L 111.9375 224.640625 L 110.585938 222.300781 L 108.675781 220.402344 L 100.355469 213.597656 L 89.03125 204.707031 L 81.316406 197.773438 L 61.160156 177.394531 L 52.773438 169.390625 L 44.453125 157.648438 L 31.917969 141.761719 L 26.933594 136.382813 L 16.609375 123.691406 L 14.023438 120.210938 L 11.667969 116.636719 L 2.675781 106.191406 L 1.230469 103.945313 L -1.425781 98.375 L -2 96.984375 "/>
<path style="fill:none;stroke-width:3;stroke-linecap:round;stroke-linejoin:round;stroke:rgb(100%,100%,100%);stroke-opacity:1;stroke-miterlimit:10;" d="M 42.015625 149.527344 L 37.125 153.386719 L 37.859375 154.308594 C 38.472656 155.089844 39.117188 155.503906 39.796875 155.558594 C 40.472656 155.609375 41.238281 155.300781 42.09375 154.636719 C 42.9375 153.96875 43.410156 153.296875 43.515625 152.621094 C 43.617188 151.957031 43.363281 151.230469 42.75 150.449219 Z M 42.109375 148.199219 L 43.359375 149.761719 C 44.222656 150.867188 44.601563 151.871094 44.5 152.777344 C 44.394531 153.691406 43.804688 154.578125 42.734375 155.433594 C 41.640625 156.285156 40.632813 156.65625 39.71875 156.542969 C 38.8125 156.425781 37.925781 155.824219 37.0625 154.730469 L 35.8125 153.167969 Z M 42.269531 157.546875 L 45.207031 155.390625 L 45.738281 156.109375 L 42.832031 158.25 C 42.382813 158.582031 42.097656 158.910156 41.972656 159.234375 C 41.855469 159.566406 41.917969 159.894531 42.160156 160.21875 C 42.449219 160.601563 42.816406 160.804688 43.253906 160.828125 C 43.691406 160.859375 44.144531 160.695313 44.613281 160.34375 L 47.363281 158.328125 L 47.894531 159.046875 L 43.050781 162.609375 L 42.519531 161.890625 L 43.269531 161.34375 C 42.839844 161.382813 42.472656 161.34375 42.160156 161.21875 C 41.855469 161.101563 41.589844 160.890625 41.363281 160.578125 C 40.996094 160.078125 40.894531 159.566406 41.050781 159.046875 C 41.207031 158.535156 41.613281 158.039063 42.269531 157.546875 Z M 46.644531 157.109375 Z M 51.058594 163.875 L 50.308594 164.40625 C 50.285156 164.125 50.234375 163.851563 50.152344 163.59375 C 50.066406 163.34375 49.953125 163.117188 49.808594 162.90625 C 49.464844 162.429688 49.035156 162.179688 48.527344 162.15625 C 48.015625 162.136719 47.457031 162.339844 46.855469 162.765625 C 46.261719 163.183594 45.886719 163.632813 45.730469 164.125 C 45.582031 164.625 45.683594 165.113281 46.027344 165.59375 C 46.171875 165.800781 46.34375 165.984375 46.542969 166.140625 C 46.75 166.304688 46.996094 166.445313 47.277344 166.5625 L 46.527344 167.078125 C 46.277344 166.960938 46.046875 166.8125 45.839844 166.625 C 45.628906 166.445313 45.441406 166.238281 45.277344 166 C 44.796875 165.332031 44.652344 164.640625 44.839844 163.921875 C 45.027344 163.203125 45.515625 162.5625 46.308594 162 C 47.097656 161.4375 47.863281 161.1875 48.605469 161.25 C 49.34375 161.3125 49.957031 161.695313 50.449219 162.390625 C 50.605469 162.609375 50.734375 162.84375 50.839844 163.09375 C 50.941406 163.34375 51.015625 163.601563 51.058594 163.875 Z M 53.972656 163.496094 L 54.519531 164.214844 L 50.566406 167.183594 L 54.238281 167.761719 L 54.925781 168.667969 L 50.957031 168.058594 L 50.175781 172.371094 L 49.488281 171.449219 L 50.175781 167.480469 L 47.832031 169.246094 L 47.285156 168.527344 Z M 59.132813 169.914063 L 59.835938 170.585938 L 57.570313 172.960938 L 60.148438 175.414063 L 62.414063 173.039063 L 63.101563 173.710938 L 57.570313 179.507813 L 56.882813 178.835938 L 59.507813 176.070313 L 56.929688 173.617188 L 54.304688 176.382813 L 53.601563 175.710938 Z M 63.125 176.535156 L 63.75 177.160156 L 59.484375 181.394531 L 58.859375 180.769531 Z M 64.796875 174.878906 L 65.421875 175.503906 L 64.53125 176.378906 L 63.90625 175.753906 Z M 66.726563 176.839844 L 67.351563 177.464844 L 61.414063 183.339844 L 60.789063 182.714844 Z M 68.660156 178.796875 L 69.285156 179.421875 L 63.347656 185.296875 L 62.722656 184.671875 Z M 71.976563 188.671875 C 72.070313 188.867188 72.089844 189.128906 72.039063 189.453125 C 71.996094 189.773438 71.886719 190.171875 71.710938 190.640625 L 70.851563 192.875 L 70.117188 192.125 L 70.929688 190.015625 C 71.136719 189.472656 71.226563 189.0625 71.195313 188.78125 C 71.164063 188.5 71.011719 188.21875 70.742188 187.9375 L 69.992188 187.1875 L 67.585938 189.578125 L 66.898438 188.875 L 72.601563 183.234375 L 74.148438 184.796875 C 74.730469 185.390625 75.027344 185.96875 75.039063 186.53125 C 75.046875 187.085938 74.777344 187.632813 74.226563 188.171875 C 73.859375 188.523438 73.484375 188.742188 73.101563 188.828125 C 72.726563 188.921875 72.351563 188.867188 71.976563 188.671875 Z M 72.648438 184.5625 L 70.632813 186.5625 L 71.492188 187.421875 C 71.824219 187.765625 72.15625 187.945313 72.492188 187.953125 C 72.835938 187.953125 73.171875 187.789063 73.507813 187.453125 C 73.839844 187.132813 74.007813 186.796875 74.007813 186.453125 C 74.007813 186.109375 73.839844 185.765625 73.507813 185.421875 Z M 76.949219 191.480469 C 76.613281 191.136719 76.203125 191.019531 75.714844 191.121094 C 75.234375 191.214844 74.738281 191.519531 74.230469 192.027344 C 73.707031 192.539063 73.394531 193.035156 73.292969 193.511719 C 73.199219 193.988281 73.316406 194.402344 73.652344 194.746094 C 73.996094 195.089844 74.40625 195.214844 74.886719 195.121094 C 75.375 195.027344 75.878906 194.722656 76.402344 194.214844 C 76.910156 193.703125 77.214844 193.207031 77.308594 192.730469 C 77.410156 192.242188 77.292969 191.824219 76.949219 191.480469 Z M 77.542969 190.902344 C 78.082031 191.457031 78.3125 192.085938 78.230469 192.792969 C 78.144531 193.488281 77.753906 194.1875 77.058594 194.886719 C 76.359375 195.574219 75.652344 195.957031 74.933594 196.042969 C 74.222656 196.125 73.597656 195.890625 73.058594 195.339844 C 72.515625 194.785156 72.292969 194.15625 72.386719 193.449219 C 72.480469 192.742188 72.875 192.042969 73.574219 191.355469 C 74.269531 190.660156 74.96875 190.273438 75.667969 190.199219 C 76.375 190.117188 77 190.351563 77.542969 190.902344 Z M 79.886719 197.636719 C 79.375 197.136719 78.953125 196.855469 78.621094 196.792969 C 78.296875 196.730469 77.980469 196.855469 77.667969 197.167969 C 77.425781 197.417969 77.308594 197.6875 77.308594 197.980469 C 77.308594 198.269531 77.4375 198.535156 77.699219 198.777344 C 78.050781 199.128906 78.472656 199.269531 78.964844 199.199219 C 79.453125 199.136719 79.917969 198.875 80.355469 198.417969 L 80.527344 198.261719 Z M 81.433594 198.589844 L 79.027344 201.042969 L 78.402344 200.417969 L 79.042969 199.777344 C 78.625 199.890625 78.25 199.902344 77.917969 199.808594 C 77.582031 199.714844 77.261719 199.515625 76.949219 199.214844 C 76.550781 198.828125 76.355469 198.394531 76.355469 197.917969 C 76.363281 197.449219 76.574219 197.007813 76.980469 196.589844 C 77.457031 196.113281 77.964844 195.894531 78.496094 195.933594 C 79.027344 195.964844 79.578125 196.269531 80.152344 196.839844 L 81.058594 197.714844 L 81.121094 197.636719 C 81.441406 197.316406 81.59375 196.972656 81.574219 196.605469 C 81.550781 196.230469 81.371094 195.878906 81.027344 195.542969 C 80.808594 195.324219 80.5625 195.144531 80.292969 194.996094 C 80.03125 194.839844 79.738281 194.726563 79.417969 194.652344 L 80.058594 194.011719 C 80.402344 194.148438 80.703125 194.300781 80.964844 194.464844 C 81.222656 194.621094 81.457031 194.804688 81.667969 195.011719 C 82.230469 195.554688 82.488281 196.121094 82.449219 196.714844 C 82.417969 197.308594 82.078125 197.933594 81.433594 198.589844 Z M 86.558594 200.984375 L 88.730469 198.5625 L 89.402344 199.171875 L 83.808594 205.390625 L 83.136719 204.78125 L 83.746094 204.109375 C 83.359375 204.253906 83 204.296875 82.667969 204.234375 C 82.34375 204.171875 82.035156 204.003906 81.746094 203.734375 C 81.253906 203.296875 81.050781 202.722656 81.136719 202.015625 C 81.21875 201.320313 81.574219 200.617188 82.199219 199.90625 C 82.832031 199.199219 83.496094 198.773438 84.183594 198.625 C 84.878906 198.46875 85.472656 198.609375 85.964844 199.046875 C 86.253906 199.320313 86.449219 199.609375 86.542969 199.921875 C 86.644531 200.234375 86.652344 200.589844 86.558594 200.984375 Z M 82.886719 200.53125 C 82.40625 201.074219 82.125 201.585938 82.042969 202.0625 C 81.96875 202.550781 82.105469 202.953125 82.449219 203.265625 C 82.8125 203.585938 83.230469 203.679688 83.699219 203.546875 C 84.175781 203.421875 84.65625 203.085938 85.136719 202.546875 C 85.625 202.003906 85.90625 201.496094 85.980469 201.015625 C 86.0625 200.527344 85.921875 200.121094 85.558594 199.796875 C 85.214844 199.484375 84.800781 199.398438 84.324219 199.53125 C 83.855469 199.65625 83.375 199.992188 82.886719 200.53125 Z M 82.886719 200.53125 "/>
<path style=" stroke:none;fill-rule:evenodd;fill:rgb(20%,20%,20%);fill-opacity:1;" d="M 42.015625 149.527344 L 37.125 153.386719 L 37.859375 154.308594 C 38.472656 155.089844 39.117188 155.503906 39.796875 155.558594 C 40.472656 155.609375 41.238281 155.300781 42.09375 154.636719 C 42.9375 153.96875 43.410156 153.296875 43.515625 152.621094 C 43.617188 151.957031 43.363281 151.230469 42.75 150.449219 Z M 42.109375 148.199219 L 43.359375 149.761719 C 44.222656 150.867188 44.601563 151.871094 44.5 152.777344 C 44.394531 153.691406 43.804688 154.578125 42.734375 155.433594 C 41.640625 156.285156 40.632813 156.65625 39.71875 156.542969 C 38.8125 156.425781 37.925781 155.824219 37.0625 154.730469 L 35.8125 153.167969 Z M 42.269531 157.546875 L 45.207031 155.390625 L 45.738281 156.109375 L 42.832031 158.25 C 42.382813 158.582031 42.097656 158.910156 41.972656 159.234375 C 41.855469 159.566406 41.917969 159.894531 42.160156 160.21875 C 42.449219 160.601563 42.816406 160.804688 43.253906 160.828125 C 43.691406 160.859375 44.144531 160.695313 44.613281 160.34375 L 47.363281 158.328125 L 47.894531 159.046875 L 43.050781 162.609375 L 42.519531 161.890625 L 43.269531 161.34375 C 42.839844 161.382813 42.472656 161.34375 42.160156 161.21875 C 41.855469 161.101563 41.589844 160.890625 41.363281 160.578125 C 40.996094 160.078125 40.894531 159.566406 41.050781 159.046875 C 41.207031 158.535156 41.613281 158.039063 42.269531 157.546875 Z M 46.644531 157.109375 Z M 51.058594 163.875 L 50.308594 164.40625 C 50.285156 164.125 50.234375 163.851563 50.152344 163.59375 C 50.066406 163.34375 49.953125 163.117188 49.808594 162.90625 C 49.464844 162.429688 49.035156 162.179688 48.527344 162.15625 C 48.015625 162.136719 47.457031 162.339844 46.855469 162.765625 C 46.261719 163.183594 45.886719 163.632813 45.730469 164.125 C 45.582031 164.625 45.683594 165.113281 46.027344 165.59375 C 46.171875 165.800781 46.34375 165.984375 46.542969 166.140625 C 46.75 166.304688 46.996094 166.445313 47.277344 166.5625 L 46.527344 167.078125 C 46.277344 166.960938 46.046875 166.8125 45.839844 166.625 C 45.628906 166.445313 45.441406 166.238281 45.277344 166 C 44.796875 165.332031 44.652344 164.640625 44.839844 163.921875 C 45.027344 163.203125 45.515625 162.5625 46.308594 162 C 47.097656 161.4375 47.863281 161.1875 48.605469 161.25 C 49.34375 161.3125 49.957031 161.695313 50.449219 162.390625 C 50.605469 162.609375 50.734375 162.84375 50.839844 163.09375 C 50.941406 163.34375 51.015625 163.601563 51.058594 163.875 Z M 53.972656 163.496094 L 54.519531 164.214844 L 50.566406 167.183594 L 54.238281 167.761719 L 54.925781 168.667969 L 50.957031 168.058594 L 50.175781 172.371094 L 49.488281 171.449219 L 50.175781 167.480469 L 47.832031 169.246094 L 47.285156 168.527344 Z M 59.132813 169.914063 L 59.835938 170.585938 L 57.570313 172.960938 L 60.148438 175.414063 L 62.414063 173.039063 L 63.101563 173.710938 L 57.570313 179.507813 L 56.882813 178.835938 L 59.507813 176.070313 L 56.929688 173.617188 L 54.304688 176.382813 L 53.601563 175.710938 Z M 63.125 176.535156 L 63.75 177.160156 L 59.484375 181.394531 L 58.859375 180.769531 Z M 64.796875 174.878906 L 65.421875 175.503906 L 64.53125 176.378906 L 63.90625 175.753906 Z M 66.726563 176.839844 L 67.351563 177.464844 L 61.414063 183.339844 L 60.789063 182.714844 Z M 68.660156 178.796875 L 69.285156 179.421875 L 63.347656 185.296875 L 62.722656 184.671875 Z M 71.976563 188.671875 C 72.070313 188.867188 72.089844 189.128906 72.039063 189.453125 C 71.996094 189.773438 71.886719 190.171875 71.710938 190.640625 L 70.851563 192.875 L 70.117188 192.125 L 70.929688 190.015625 C 71.136719 189.472656 71.226563 189.0625 71.195313 188.78125 C 71.164063 188.5 71.011719 188.21875 70.742188 187.9375 L 69.992188 187.1875 L 67.585938 189.578125 L 66.898438 188.875 L 72.601563 183.234375 L 74.148438 184.796875 C 74.730469 185.390625 75.027344 185.96875 75.039063 186.53125 C 75.046875 187.085938 74.777344 187.632813 74.226563 188.171875 C 73.859375 188.523438 73.484375 188.742188 73.101563 188.828125 C 72.726563 188.921875 72.351563 188.867188 71.976563 188.671875 Z M 72.648438 184.5625 L 70.632813 186.5625 L 71.492188 187.421875 C 71.824219 187.765625 72.15625 187.945313 72.492188 187.953125 C 72.835938 187.953125 73.171875 187.789063 73.507813 187.453125 C 73.839844 187.132813 74.007813 186.796875 74.007813 186.453125 C 74.007813 186.109375 73.839844 185.765625 73.507813 185.421875 Z M 76.949219 191.480469 C 76.613281 191.136719 76.203125 191.019531 75.714844 191.121094 C 75.234375 191.214844 74.738281 191.519531 74.230469 192.027344 C 73.707031 192.539063 73.394531 193.035156 73.292969 193.511719 C 73.199219 193.988281 73.316406 194.402344 73.652344 194.746094 C 73.996094 195.089844 74.40625 195.214844 74.886719 195.121094 C 75.375 195.027344 75.878906 194.722656 76.402344 194.214844 C 76.910156 193.703125 77.214844 193.207031 77.308594 192.730469 C 77.410156 192.242188 77.292969 191.824219 76.949219 191.480469 Z M 77.542969 190.902344 C 78.082031 191.457031 78.3125 192.085938 78.230469 192.792969 C 78.144531 193.488281 77.753906 194.1875 77.058594 194.886719 C 76.359375 195.574219 75.652344 195.957031 74.933594 196.042969 C 74.222656 196.125 73.597656 195.890625 73.058594 195.339844 C 72.515625 194.785156 72.292969 194.15625 72.386719 193.449219 C 72.480469 192.742188 72.875 192.042969 73.574219 191.355469 C 74.269531 190.660156 74.96875 190.273438 75.667969 190.199219 C 76.375 190.117188 77 190.351563 77.542969 190.902344 Z M 79.886719 197.636719 C 79.375 197.136719 78.953125 196.855469 78.621094 196.792969 C 78.296875 196.730469 77.980469 196.855469 77.667969 197.167969 C 77.425781 197.417969 77.308594 197.6875 77.308594 197.980469 C 77.308594 198.269531 77.4375 198.535156 77.699219 198.777344 C 78.050781 199.128906 78.472656 199.269531 78.964844 199.199219 C 79.453125 199.136719 79.917969 198.875 80.355469 198.417969 L 80.527344 198.261719 Z M 81.433594 198.589844 L 79.027344 201.042969 L 78.402344 200.417969 L 79.042969 199.777344 C 78.625 199.890625 78.25 199.902344 77.917969 199.808594 C 77.582031 199.714844 77.261719 199.515625 76.949219 199.214844 C 76.550781 198.828125 76.355469 198.394531 76.355469 197.917969 C 76.363281 197.449219 76.574219 197.007813 76.980469 196.589844 C 77.457031 196.113281 77.964844 195.894531 78.496094 195.933594 C 79.027344 195.964844 79.578125 196.269531 80.152344 196.839844 L 81.058594 197.714844 L 81.121094 197.636719 C 81.441406 197.316406 81.59375 196.972656 81.574219 196.605469 C 81.550781 196.230469 81.371094 195.878906 81.027344 195.542969 C 80.808594 195.324219 80.5625 195.144531 80.292969 194.996094 C 80.03125 194.839844 79.738281 194.726563 79.417969 194.652344 L 80.058594 194.011719 C 80.402344 194.148438 80.703125 194.300781 80.964844 194.464844 C 81.222656 194.621094 81.457031 194.804688 81.667969 195.011719 C 82.230469 195.554688 82.488281 196.121094 82.449219 196.714844 C 82.417969 197.308594 82.078125 197.933594 81.433594 198.589844 Z M 86.558594 200.984375 L 88.730469 198.5625 L 89.402344 199.171875 L 83.808594 205.390625 L 83.136719 204.78125 L 83.746094 204.109375 C 83.359375 204.253906 83 204.296875 82.667969 204.234375 C 82.34375 204.171875 82.035156 204.003906 81.746094 203.734375 C 81.253906 203.296875 81.050781 202.722656 81.136719 202.015625 C 81.21875 201.320313 81.574219 200.617188 82.199219 199.90625 C 82.832031 199.199219 83.496094 198.773438 84.183594 198.625 C 84.878906 198.46875 85.472656 198.609375 85.964844 199.046875 C 86.253906 199.320313 86.449219 199.609375 86.542969 199.921875 C 86.644531 200.234375 86.652344 200.589844 86.558594 200.984375 Z M 82.886719 200.53125 C 82.40625 201.074219 82.125 201.585938 82.042969 202.0625 C 81.96875 202.550781 82.105469 202.953125 82.449219 203.265625 C 82.8125 203.585938 83.230469 203.679688 83.699219 203.546875 C 84.175781 203.421875 84.65625 203.085938 85.136719 202.546875 C 85.625 202.003906 85.90625 201.496094 85.980469 201.015625 C 86.0625 200.527344 85.921875 200.121094 85.558594 199.796875 C 85.214844 199.484375 84.800781 199.398438 84.324219 199.53125 C 83.855469 199.65625 83.375 199.992188 82.886719 200.53125 Z M 82.886719 200.53125 "/>
</g>
</svg>

