<?xml version="1.0" encoding="UTF-8"?>
<svg xmlns="http://www.w3.org/2000/svg" xmlns:xlink="http://www.w3.org/1999/xlink" width="256pt" height="256pt" viewBox="0 0 256 256" version="1.1">
<g id="surface2">
<rect x="0" y="0" width="256" height="256" style="fill:rgb(60%,70.196078%,80%);fill-opacity:1;stroke:none;"/>
<path style=" stroke:none;fill-rule:evenodd;fill:rgb(94.901961%,93.72549%,91.372549%);fill-opacity:1;" d="M -4 259 L -4 -4 L 56.371094 -4 L 56.675781 -3.226563 L 56.570313 -1.6875 L 52.992188 2.960938 L 34.234375 23.421875 L 35.214844 26.917969 L 33.679688 29.859375 L 35.683594 31.691406 L 52.429688 30.257813 L 56.605469 34.601563 L 58.941406 40.109375 L 61.949219 45.289063 L 65.957031 52.804688 L 68.40625 60.164063 L 36.359375 94.929688 L 40.65625 100.839844 L 45.105469 105.519531 L 48.90625 113.289063 L 49.925781 114.601563 L 52.394531 117.796875 L 53.324219 118.996094 L 56.203125 123.429688 L 58.753906 124.058594 L 62.410156 118.445313 L 64.734375 111.355469 L 68.945313 105.367188 L 71.382813 102.488281 L 75.925781 99.277344 L 81.578125 95.398438 L 82.691406 91.261719 L 84.179688 85.726563 L 88.445313 83.652344 L 90.550781 86.203125 L 91.769531 97.394531 L 94.429688 108.695313 L 100.082031 125.648438 L 104.769531 143.085938 L 105.066406 152.566406 L 100.136719 174.644531 L 97.972656 184.371094 L 93.875 196.777344 L 92.558594 200.214844 L 89.664063 207.75 L 90.109375 212.734375 L 95.535156 210.515625 L 105.34375 214.671875 L 110.835938 213.96875 L 118.429688 212.988281 L 124.742188 212.171875 L 124.742188 259 Z M -4 259 "/>
<path style=" stroke:none;fill-rule:evenodd;fill:rgb(94.901961%,93.72549%,91.372549%);fill-opacity:1;" d="M 103.8125 139.515625 L 104.769531 143.085938 L 105.066406 152.566406 L 103.8125 158.183594 Z M 103.8125 139.515625 "/>
<path style=" stroke:none;fill-rule:evenodd;fill:rgb(94.901961%,93.72549%,91.372549%);fill-opacity:1;" d="M 105.34375 214.671875 L 110.835938 213.96875 L 118.429688 212.988281 L 145.636719 209.476563 L 148.53125 206.617188 L 191.304688 200.71875 L 192.085938 200.609375 L 226.816406 195.820313 L 229.238281 198.128906 L 235.839844 197.3125 L 235.621094 194.90625 L 232.558594 195.53125 L 229.839844 194.589844 L 227.0625 192.589844 L 225.214844 192.371094 L 222.996094 190.71875 L 220.53125 189.09375 L 218.714844 186.90625 L 215.28125 175.09375 L 213.339844 167.035156 L 215.09375 161.035156 L 218.011719 157.972656 L 223.140625 156.8125 L 228.234375 156.308594 L 225.136719 152.871094 L 224.324219 149.59375 L 223.65625 142.175781 L 218.808594 109.863281 L 214.347656 88.1875 L 209.855469 62.0625 L 208.574219 60.0625 L 209.417969 57.78125 L 210.042969 55.25 L 208.445313 47.394531 L 208.886719 35.4375 L 206.511719 34.183594 L 207.355469 31.46875 L 207.605469 31.335938 L 208.097656 31.070313 L 209.574219 30.28125 L 210.140625 27.21875 L 210.855469 22.464844 L 212.429688 17.667969 L 222.988281 11.53125 L 237.699219 8.328125 L 249.78125 7.914063 L 250.773438 6.296875 L 257.90625 5.664063 L 259 5.457031 L 259 -4 L 259 259 L 259 -4 L 259 259 L 103.8125 259 L 103.8125 214.023438 Z M 105.34375 214.671875 "/>
<path style=" stroke:none;fill-rule:evenodd;fill:rgb(81.960784%,81.568627%,80.392157%);fill-opacity:1;" d="M -4 69.152344 L 0.378906 73.226563 L 17.128906 88.710938 L 28.019531 98.863281 L 36.644531 90.222656 L 51.242188 74.234375 L 64.375 60.425781 L 64.289063 57.867188 L 61.6875 49.894531 L 59.003906 46.695313 L 56.613281 42.519531 L 54.226563 36.253906 L 50.6875 31.734375 L 46.339844 31.992188 L 35.683594 31.691406 L 33.679688 29.859375 L 35.214844 26.917969 L 34.234375 23.421875 L 52.992188 2.960938 L 56.570313 -1.6875 L 54.65625 -4 L -4 -4 Z M -4 69.152344 "/>
<path style="fill:none;stroke-width:1;stroke-linecap:round;stroke-linejoin:round;stroke:rgb(81.960784%,81.960784%,81.960784%);stroke-opacity:1;stroke-miterlimit:10;" d="M -4 69.152344 L 0.378906 73.226563 L 17.128906 88.710938 L 28.019531 98.863281 L 36.644531 90.222656 L 51.242188 74.234375 L 64.375 60.425781 L 64.289063 57.867188 L 61.6875 49.894531 L 59.003906 46.695313 L 56.613281 42.519531 L 54.226563 36.253906 L 50.6875 31.734375 L 46.339844 31.992188 L 35.683594 31.691406 L 33.679688 29.859375 L 35.214844 26.917969 L 34.234375 23.421875 L 52.992188 2.960938 L 56.570313 -1.6875 L 54.65625 -4 L -4 -4 L -4 69.152344 "/>
<path style=" stroke:none;fill-rule:evenodd;fill:rgb(79.607843%,84.705882%,76.470588%);fill-opacity:1;" d="M -4 178.726563 L 9.347656 191.152344 L 16.101563 197.601563 L 24.773438 202.742188 L 26.152344 202.050781 L 27.535156 202.125 L 29.070313 199.367188 L 31.140625 193.917969 L 32.445313 184.328125 L 33.980469 169.824219 L 36.433594 150.027344 L 37.816406 142.429688 L 39.042969 137.132813 L 40.808594 132.070313 L 44.339844 126.316406 L 49.925781 114.601563 L 48.90625 113.289063 L 45.105469 105.519531 L 40.65625 100.839844 L 36.359375 94.929688 L 24.296875 105.472656 L 12.882813 95.308594 L -4 114.382813 Z M -4 178.726563 "/>
<path style=" stroke:none;fill-rule:evenodd;fill:rgb(81.960784%,81.568627%,80.392157%);fill-opacity:1;" d="M 226.746094 126.699219 L 230.355469 151.355469 L 232.058594 151.164063 L 235.574219 150.761719 L 235.230469 148.042969 L 235.730469 146.636719 L 240.886719 140.792969 L 243.292969 140.914063 L 245.199219 139.574219 L 246.574219 138.824219 L 251.324219 131.105469 L 260 117.488281 L 260 61.40625 L 252.855469 56.917969 L 252.105469 58.132813 L 250.292969 57.011719 L 251.105469 55.699219 L 235.125 45.652344 L 233.917969 47.476563 L 232.660156 47.882813 L 226.316406 49.914063 L 227.730469 59.480469 L 226.324219 59.605469 L 226.542969 62.011719 L 228.199219 61.824219 L 230.011719 75.226563 L 227.605469 75.574219 L 225.042969 75.917969 L 223.230469 76.199219 L 219.410156 76.605469 Z M 226.746094 126.699219 "/>
<path style="fill:none;stroke-width:1;stroke-linecap:round;stroke-linejoin:round;stroke:rgb(81.960784%,81.960784%,81.960784%);stroke-opacity:1;stroke-miterlimit:10;" d="M 226.746094 126.699219 L 230.355469 151.355469 L 232.058594 151.164063 L 235.574219 150.761719 L 235.230469 148.042969 L 235.730469 146.636719 L 240.886719 140.792969 L 243.292969 140.914063 L 245.199219 139.574219 L 246.574219 138.824219 L 251.324219 131.105469 L 260 117.488281 L 260 61.40625 L 252.855469 56.917969 L 252.105469 58.132813 L 250.292969 57.011719 L 251.105469 55.699219 L 235.125 45.652344 L 233.917969 47.476563 L 232.660156 47.882813 L 226.316406 49.914063 L 227.730469 59.480469 L 226.324219 59.605469 L 226.542969 62.011719 L 228.199219 61.824219 L 230.011719 75.226563 L 227.605469 75.574219 L 225.042969 75.917969 L 223.230469 76.199219 L 219.410156 76.605469 L 226.746094 126.699219 "/>
<path style=" stroke:none;fill-rule:evenodd;fill:rgb(70.980392%,82.352941%,61.176471%);fill-opacity:1;" d="M 38.699219 206.75 L 77.554688 218.382813 L 86.199219 220.96875 L 88.667969 221.707031 L 86.117188 209.1875 L 89.554688 195.339844 L 94.320313 175.949219 L 98.085938 156.226563 L 98.417969 145.480469 L 97.308594 134.839844 L 93.65625 128.304688 L 89 124.316406 L 89.457031 115.945313 L 87.339844 107.804688 L 84.125 106.476563 L 78.03125 107.363281 L 76.105469 108.515625 L 71.730469 114.421875 L 70.121094 122.476563 L 71.714844 134.398438 L 66.621094 144.925781 L 61.410156 159.660156 L 50 182.488281 L 42.6875 194.675781 L 41.242188 199.050781 Z M 38.699219 206.75 "/>
<path style=" stroke:none;fill-rule:evenodd;fill:rgb(79.607843%,84.705882%,76.470588%);fill-opacity:1;" d="M 33.519531 196.296875 L 41.242188 199.050781 L 42.6875 194.675781 L 50 182.488281 L 61.410156 159.660156 L 66.621094 144.925781 L 71.714844 134.398438 L 70.121094 122.476563 L 71.730469 114.421875 L 76.105469 108.515625 L 78.03125 107.363281 L 84.125 106.476563 L 87.339844 107.804688 L 89.457031 115.945313 L 89 124.316406 L 93.65625 128.304688 L 97.308594 134.839844 L 98.417969 145.480469 L 98.085938 156.226563 L 94.320313 175.949219 L 89.554688 195.339844 L 86.117188 209.1875 L 88.667969 221.707031 L 112.023438 228.625 L 111.757813 227.597656 L 112.679688 221.15625 L 110.835938 213.96875 L 105.34375 214.671875 L 95.539063 210.519531 L 90.109375 212.734375 L 89.664063 207.75 L 92.558594 200.214844 L 97.972656 184.371094 L 100.136719 174.644531 L 105.066406 152.570313 L 104.773438 143.089844 L 100.082031 125.648438 L 94.429688 108.695313 L 90.378906 97.617188 L 88.382813 92.859375 L 89 87.796875 L 85.777344 89.175781 L 82.691406 91.261719 L 81.578125 95.398438 L 75.925781 99.277344 L 71.382813 102.488281 L 68.945313 105.367188 L 64.734375 111.355469 L 62.410156 118.445313 L 58.753906 124.058594 L 56.203125 123.429688 L 53.324219 118.996094 L 52.394531 117.796875 L 49.25 124.320313 L 52.550781 124.089844 L 55.542969 125.394531 L 58.226563 126.238281 L 59.53125 129.230469 L 56.496094 132.246094 L 55.320313 140.714844 L 52.660156 149.246094 L 41.359375 176.5 L 35.484375 188.023438 L 34.824219 192.765625 Z M 33.519531 196.296875 "/>
<path style=" stroke:none;fill-rule:evenodd;fill:rgb(81.960784%,81.568627%,80.392157%);fill-opacity:1;" d="M 151.945313 259.785156 L 151.984375 260 L 163.40625 260 L 159.484375 254.921875 L 151.609375 255.820313 Z M 151.945313 259.785156 "/>
<path style="fill:none;stroke-width:1;stroke-linecap:round;stroke-linejoin:round;stroke:rgb(81.960784%,81.960784%,81.960784%);stroke-opacity:1;stroke-miterlimit:10;" d="M 151.945313 259.785156 L 151.984375 260 L 163.40625 260 L 159.484375 254.921875 L 151.609375 255.820313 L 151.945313 259.785156 "/>
<path style=" stroke:none;fill-rule:evenodd;fill:rgb(87.058824%,81.960784%,67.058824%);fill-opacity:1;" d="M 69.484375 150.753906 L 70.257813 152.8125 L 94.582031 160.40625 L 95.351563 156.800781 L 95.613281 150.238281 L 95.867188 143.417969 L 94.964844 136.984375 L 91.878906 131.578125 L 86.730469 127.972656 L 77.980469 123.597656 Z M 69.484375 150.753906 "/>
<path style=" stroke:none;fill-rule:evenodd;fill:rgb(81.960784%,81.568627%,80.392157%);fill-opacity:1;" d="M 35.484375 188.023438 L 41.359375 176.5 L 52.660156 149.246094 L 55.320313 140.714844 L 56.496094 132.246094 L 52.769531 129.082031 L 48.242188 126.761719 L 40.492188 145.25 L 36.152344 176.945313 Z M 35.484375 188.023438 "/>
<path style="fill:none;stroke-width:1;stroke-linecap:round;stroke-linejoin:round;stroke:rgb(81.960784%,81.960784%,81.960784%);stroke-opacity:1;stroke-miterlimit:10;" d="M 35.484375 188.023438 L 41.359375 176.5 L 52.660156 149.246094 L 55.320313 140.714844 L 56.496094 132.246094 L 52.769531 129.082031 L 48.242188 126.761719 L 40.492188 145.25 L 36.152344 176.945313 L 35.484375 188.023438 "/>
<path style=" stroke:none;fill-rule:evenodd;fill:rgb(81.960784%,81.568627%,80.392157%);fill-opacity:1;" d="M 189.917969 260 L 203.886719 260 L 203.746094 258.867188 L 203.871094 257.738281 L 204.464844 256.394531 L 204.621094 255.300781 L 203.246094 246.273438 L 202.464844 244.679688 L 201.558594 243.085938 L 201.308594 241.867188 L 187.746094 243.800781 Z M 189.917969 260 "/>
<path style="fill:none;stroke-width:1;stroke-linecap:round;stroke-linejoin:round;stroke:rgb(81.960784%,81.960784%,81.960784%);stroke-opacity:1;stroke-miterlimit:10;" d="M 189.917969 260 L 203.886719 260 L 203.746094 258.867188 L 203.871094 257.738281 L 204.464844 256.394531 L 204.621094 255.300781 L 203.246094 246.273438 L 202.464844 244.679688 L 201.558594 243.085938 L 201.308594 241.867188 L 187.746094 243.800781 L 189.917969 260 "/>
<path style=" stroke:none;fill-rule:evenodd;fill:rgb(81.960784%,81.568627%,80.392157%);fill-opacity:1;" d="M 217.105469 163.605469 L 220.730469 186.574219 L 230.242188 190.074219 L 229.855469 185.386719 L 233.917969 182.136719 L 233.105469 176.601563 L 231.542969 171.789063 L 232.730469 171.730469 L 232.449219 169.824219 L 231.011719 168.761719 L 230.230469 167.855469 L 230.011719 166.730469 L 230.042969 165.449219 L 231.011719 164.011719 L 232.042969 163.605469 L 233.105469 163.488281 L 232.324219 158.136719 L 220.292969 159.855469 Z M 217.105469 163.605469 "/>
<path style="fill:none;stroke-width:1;stroke-linecap:round;stroke-linejoin:round;stroke:rgb(81.960784%,81.960784%,81.960784%);stroke-opacity:1;stroke-miterlimit:10;" d="M 217.105469 163.605469 L 220.730469 186.574219 L 230.242188 190.074219 L 229.855469 185.386719 L 233.917969 182.136719 L 233.105469 176.601563 L 231.542969 171.789063 L 232.730469 171.730469 L 232.449219 169.824219 L 231.011719 168.761719 L 230.230469 167.855469 L 230.011719 166.730469 L 230.042969 165.449219 L 231.011719 164.011719 L 232.042969 163.605469 L 233.105469 163.488281 L 232.324219 158.136719 L 220.292969 159.855469 L 217.105469 163.605469 "/>
<path style=" stroke:none;fill-rule:evenodd;fill:rgb(87.058824%,81.960784%,67.058824%);fill-opacity:1;" d="M 47.230469 193.785156 L 47.894531 201.875 L 51.21875 208.855469 L 58.753906 211.847656 L 68.835938 196.558594 L 68.835938 194.453125 L 51.441406 184.703125 L 48.671875 188.246094 Z M 47.230469 193.785156 "/>
<path style=" stroke:none;fill-rule:evenodd;fill:rgb(81.960784%,81.568627%,80.392157%);fill-opacity:1;" d="M 235.230469 148.042969 L 235.574219 150.761719 L 237.167969 163.042969 L 238.667969 175.917969 L 237.636719 176.074219 L 238.417969 183.136719 L 239.511719 184.195313 L 240.730469 184.730469 L 245.136719 184.261719 L 244.449219 178.789063 L 241.199219 152.792969 L 243.199219 152.539063 L 244.324219 152.386719 L 254.199219 151.132813 L 255.011719 150.320313 L 246.949219 141.480469 L 245.199219 139.574219 L 243.292969 140.914063 L 240.886719 140.792969 L 235.730469 146.636719 L 235.324219 147.292969 Z M 235.230469 148.042969 "/>
<path style="fill:none;stroke-width:1;stroke-linecap:round;stroke-linejoin:round;stroke:rgb(81.960784%,81.960784%,81.960784%);stroke-opacity:1;stroke-miterlimit:10;" d="M 235.230469 148.042969 L 235.574219 150.761719 L 237.167969 163.042969 L 238.667969 175.917969 L 237.636719 176.074219 L 238.417969 183.136719 L 239.511719 184.195313 L 240.730469 184.730469 L 245.136719 184.261719 L 244.449219 178.789063 L 241.199219 152.792969 L 243.199219 152.539063 L 244.324219 152.386719 L 254.199219 151.132813 L 255.011719 150.320313 L 246.949219 141.480469 L 245.199219 139.574219 L 243.292969 140.914063 L 240.886719 140.792969 L 235.730469 146.636719 L 235.324219 147.292969 L 235.230469 148.042969 "/>
<path style=" stroke:none;fill-rule:evenodd;fill:rgb(81.960784%,81.568627%,80.392157%);fill-opacity:1;" d="M 148.160156 224.203125 L 149.414063 234.328125 L 150.195313 235.109375 L 159.539063 233.828125 L 161.132813 231.578125 L 159.421875 218.195313 L 162.378906 217.839844 L 166.554688 217.257813 L 166.25 215.054688 L 174.644531 213.878906 L 174.882813 215.59375 L 178.886719 215.035156 L 180.074219 214.851563 L 179.785156 213.015625 L 178.789063 211.828125 L 177.695313 210.890625 L 176.128906 210.203125 L 174.664063 209.890625 L 168.601563 210.703125 L 166.472656 210.546875 L 164.382813 210.421875 L 162.195313 210.546875 L 159.976563 210.703125 L 157.789063 210.984375 L 155.726563 211.515625 L 154.195313 212.296875 L 152.722656 213.390625 L 151.445313 214.859375 L 150.285156 216.515625 L 149.351563 218.421875 L 148.601563 220.453125 L 148.351563 222.234375 Z M 148.160156 224.203125 "/>
<path style="fill:none;stroke-width:1;stroke-linecap:round;stroke-linejoin:round;stroke:rgb(81.960784%,81.960784%,81.960784%);stroke-opacity:1;stroke-miterlimit:10;" d="M 148.160156 224.203125 L 149.414063 234.328125 L 150.195313 235.109375 L 159.539063 233.828125 L 161.132813 231.578125 L 159.421875 218.195313 L 162.378906 217.839844 L 166.554688 217.257813 L 166.25 215.054688 L 174.644531 213.878906 L 174.882813 215.59375 L 178.886719 215.035156 L 180.074219 214.851563 L 179.785156 213.015625 L 178.789063 211.828125 L 177.695313 210.890625 L 176.128906 210.203125 L 174.664063 209.890625 L 168.601563 210.703125 L 166.472656 210.546875 L 164.382813 210.421875 L 162.195313 210.546875 L 159.976563 210.703125 L 157.789063 210.984375 L 155.726563 211.515625 L 154.195313 212.296875 L 152.722656 213.390625 L 151.445313 214.859375 L 150.285156 216.515625 L 149.351563 218.421875 L 148.601563 220.453125 L 148.351563 222.234375 L 148.160156 224.203125 "/>
<path style=" stroke:none;fill-rule:evenodd;fill:rgb(87.058824%,81.960784%,67.058824%);fill-opacity:1;" d="M 63.40625 207.304688 L 78.03125 216.832031 L 80.691406 214.726563 L 82.460938 204.753906 L 80.800781 198.882813 L 74.152344 195.117188 L 63.40625 205.417969 Z M 63.40625 207.304688 "/>
<path style=" stroke:none;fill-rule:evenodd;fill:rgb(81.960784%,81.568627%,80.392157%);fill-opacity:1;" d="M 150.125 240.796875 L 151.03125 250.796875 L 151.214844 252.609375 L 151.609375 255.820313 L 159.484375 254.921875 L 165.90625 239.027344 L 160.3125 237.484375 L 155.875 237.828125 L 154.710938 238.027344 L 153.25 238.265625 L 151.371094 238.609375 L 150.152344 240.046875 Z M 150.125 240.796875 "/>
<path style="fill:none;stroke-width:1;stroke-linecap:round;stroke-linejoin:round;stroke:rgb(81.960784%,81.960784%,81.960784%);stroke-opacity:1;stroke-miterlimit:10;" d="M 150.125 240.796875 L 151.03125 250.796875 L 151.214844 252.609375 L 151.609375 255.820313 L 159.484375 254.921875 L 165.90625 239.027344 L 160.3125 237.484375 L 155.875 237.828125 L 154.710938 238.027344 L 153.25 238.265625 L 151.371094 238.609375 L 150.152344 240.046875 L 150.125 240.796875 "/>
<path style=" stroke:none;fill-rule:evenodd;fill:rgb(87.058824%,81.960784%,67.058824%);fill-opacity:1;" d="M 62.074219 168.304688 L 68.835938 169.746094 L 74.816406 168.527344 L 78.476563 165.199219 L 80.246094 160.878906 L 68.945313 156.117188 Z M 62.074219 168.304688 "/>
<path style=" stroke:none;fill-rule:evenodd;fill:rgb(87.058824%,81.960784%,67.058824%);fill-opacity:1;" d="M 52.992188 183.925781 L 63.738281 189.6875 L 66.621094 185.808594 L 66.507813 179.714844 L 62.628906 175.503906 L 58.753906 173.621094 Z M 52.992188 183.925781 "/>
<path style=" stroke:none;fill-rule:evenodd;fill:rgb(81.960784%,81.568627%,80.392157%);fill-opacity:1;" d="M 230.011719 166.730469 L 230.230469 167.855469 L 231.011719 168.761719 L 232.449219 169.824219 L 232.730469 171.730469 L 231.542969 171.789063 L 232.199219 176.636719 L 233.917969 182.136719 L 238.417969 183.136719 L 237.636719 176.074219 L 238.667969 175.917969 L 237.167969 163.042969 L 233.105469 163.488281 L 232.042969 163.605469 L 231.011719 164.011719 L 230.042969 165.449219 Z M 230.011719 166.730469 "/>
<path style="fill:none;stroke-width:1;stroke-linecap:round;stroke-linejoin:round;stroke:rgb(81.960784%,81.960784%,81.960784%);stroke-opacity:1;stroke-miterlimit:10;" d="M 230.011719 166.730469 L 230.230469 167.855469 L 231.011719 168.761719 L 232.449219 169.824219 L 232.730469 171.730469 L 231.542969 171.789063 L 232.199219 176.636719 L 233.917969 182.136719 L 238.417969 183.136719 L 237.636719 176.074219 L 238.667969 175.917969 L 237.167969 163.042969 L 233.105469 163.488281 L 232.042969 163.605469 L 231.011719 164.011719 L 230.042969 165.449219 L 230.011719 166.730469 "/>
<path style=" stroke:none;fill-rule:evenodd;fill:rgb(87.058824%,81.960784%,67.058824%);fill-opacity:1;" d="M 73.15625 193.230469 L 84.347656 197.222656 L 88.003906 186.253906 L 83.460938 185.808594 L 79.25 186.804688 L 75.925781 189.355469 Z M 73.15625 193.230469 "/>
<path style=" stroke:none;fill-rule:evenodd;fill:rgb(87.058824%,81.960784%,67.058824%);fill-opacity:1;" d="M 81.6875 171.296875 L 84.679688 174.507813 L 89.109375 176.058594 L 92.324219 167.640625 L 85.34375 163.539063 L 82.132813 167.195313 Z M 81.6875 171.296875 "/>
<path style=" stroke:none;fill-rule:evenodd;fill:rgb(81.960784%,81.568627%,80.392157%);fill-opacity:1;" d="M 77.554688 218.382813 L 86.199219 220.96875 L 85.675781 218.273438 L 84.234375 214.0625 L 83.679688 209.410156 L 84.234375 204.976563 L 82.460938 204.753906 L 80.691406 214.726563 L 78.03125 216.832031 Z M 77.554688 218.382813 "/>
<path style="fill:none;stroke-width:1;stroke-linecap:round;stroke-linejoin:round;stroke:rgb(81.960784%,81.960784%,81.960784%);stroke-opacity:1;stroke-miterlimit:10;" d="M 77.554688 218.382813 L 86.199219 220.96875 L 85.675781 218.273438 L 84.234375 214.0625 L 83.679688 209.410156 L 84.234375 204.976563 L 82.460938 204.753906 L 80.691406 214.726563 L 78.03125 216.832031 L 77.554688 218.382813 "/>
<path style=" stroke:none;fill-rule:evenodd;fill:rgb(81.960784%,81.568627%,80.392157%);fill-opacity:1;" d="M 91.992188 166.085938 L 94.875 167.859375 L 95.871094 162.652344 L 93.210938 161.433594 Z M 91.992188 166.085938 "/>
<path style="fill:none;stroke-width:1;stroke-linecap:round;stroke-linejoin:round;stroke:rgb(81.960784%,81.960784%,81.960784%);stroke-opacity:1;stroke-miterlimit:10;" d="M 91.992188 166.085938 L 94.875 167.859375 L 95.871094 162.652344 L 93.210938 161.433594 L 91.992188 166.085938 "/>
<path style=" stroke:none;fill-rule:evenodd;fill:rgb(81.960784%,81.568627%,80.392157%);fill-opacity:1;" d="M 130.164063 247.875 L 130.785156 251.96875 L 133.722656 251.550781 L 133.191406 247.519531 Z M 130.164063 247.875 "/>
<path style="fill:none;stroke-width:1;stroke-linecap:round;stroke-linejoin:round;stroke:rgb(81.960784%,81.960784%,81.960784%);stroke-opacity:1;stroke-miterlimit:10;" d="M 130.164063 247.875 L 130.785156 251.96875 L 133.722656 251.550781 L 133.191406 247.519531 L 130.164063 247.875 "/>
<path style=" stroke:none;fill-rule:evenodd;fill:rgb(81.960784%,81.568627%,80.392157%);fill-opacity:1;" d="M 127.878906 227.207031 L 129.035156 235.675781 L 128.757813 227.039063 Z M 127.878906 227.207031 "/>
<path style="fill:none;stroke-width:1;stroke-linecap:round;stroke-linejoin:round;stroke:rgb(81.960784%,81.960784%,81.960784%);stroke-opacity:1;stroke-miterlimit:10;" d="M 127.878906 227.207031 L 129.035156 235.675781 L 128.757813 227.039063 L 127.878906 227.207031 "/>
<path style=" stroke:none;fill-rule:evenodd;fill:rgb(78.431373%,78.431373%,78.431373%);fill-opacity:1;" d="M 259 43.984375 L 259 20.605469 L 243.96875 22.816406 L 237.96875 32.214844 Z M 259 43.984375 "/>
<path style=" stroke:none;fill-rule:evenodd;fill:rgb(78.431373%,78.431373%,78.431373%);fill-opacity:1;" d="M 112.679688 221.15625 L 111.757813 227.597656 L 112.023438 228.625 L 111.429688 231.097656 L 112.398438 231.59375 L 112.710938 233.691406 L 111.898438 234.34375 L 112.210938 236.40625 L 113.335938 238.9375 L 112.867188 241.535156 L 113.835938 242.097656 L 114.117188 243.9375 L 113.554688 246.625 L 114.554688 247.128906 L 114.867188 249.128906 L 114.023438 249.8125 L 114.335938 251.84375 L 115.273438 252.25 L 115.707031 253.882813 L 115.042969 254.789063 L 115.375 256.453125 L 116.402344 256.757813 L 116.675781 258.417969 L 259 259 L 259 -4 L 259 5.457031 L 257.90625 5.664063 L 250.773438 6.296875 L 249.78125 7.914063 L 237.699219 8.328125 L 222.988281 11.53125 L 212.429688 17.667969 L 210.855469 22.464844 L 210.140625 27.21875 L 209.574219 30.28125 L 208.097656 31.070313 L 206.515625 34.183594 L 208.886719 35.4375 L 208.445313 47.394531 L 210.042969 55.25 L 209.417969 57.78125 L 208.574219 60.0625 L 209.859375 62.0625 L 214.347656 88.1875 L 218.808594 109.863281 L 223.65625 142.175781 L 224.324219 149.59375 L 225.140625 152.871094 L 228.234375 156.308594 L 223.140625 156.8125 L 218.011719 157.972656 L 215.09375 161.035156 L 213.339844 167.035156 L 215.28125 175.09375 L 218.71875 186.90625 L 220.53125 189.09375 L 222.996094 190.71875 L 225.214844 192.371094 L 227.0625 192.589844 L 229.839844 194.589844 L 232.558594 195.53125 L 235.621094 194.90625 L 235.839844 197.3125 L 229.238281 198.128906 L 226.816406 195.820313 L 192.085938 200.609375 L 148.53125 206.617188 L 145.636719 209.476563 L 118.429688 212.988281 L 110.835938 213.96875 Z M 112.679688 221.15625 "/>
<path style=" stroke:none;fill-rule:evenodd;fill:rgb(78.431373%,78.431373%,78.431373%);fill-opacity:1;" d="M 182.9375 211.386719 L 185.964844 213.679688 L 185.757813 214.902344 L 185.816406 216.179688 L 186.257813 217.714844 L 186.890625 218.824219 L 187.738281 219.78125 L 188.769531 220.53125 L 189.933594 221.050781 L 190.78125 222.542969 L 194.726563 221.988281 L 194.542969 220.671875 L 195.640625 219.941406 L 196.53125 219.027344 L 197.210938 217.941406 L 197.632813 216.765625 L 198.632813 216.902344 L 198.769531 215.878906 L 197.804688 214.835938 L 197.480469 213.273438 L 196.960938 212.160156 L 199.285156 209.066406 L 198.117188 208.183594 L 197.035156 207.351563 L 195.6875 206.347656 L 193.390625 209.410156 L 192.226563 209.203125 L 190.949219 209.242188 L 189.714844 209.554688 L 188.675781 210.054688 L 185.660156 207.765625 Z M 182.9375 211.386719 "/>
<path style=" stroke:none;fill-rule:evenodd;fill:rgb(78.431373%,78.431373%,78.431373%);fill-opacity:1;" d="M 197.035156 207.351563 L 198.117188 208.183594 L 199.570313 207.910156 L 205.070313 212.039063 L 203.761719 213.796875 L 200.820313 217.757813 L 200.042969 219.570313 L 198.429688 223.335938 L 197.8125 224.4375 L 199.808594 225.332031 L 201.117188 226.078125 L 202.285156 227.050781 L 203.363281 226.78125 L 202.246094 225.65625 L 201.289063 224.953125 L 200.242188 224.386719 L 202.378906 218.957031 L 206.378906 221.957031 L 207.027344 221.097656 L 212.519531 213.835938 L 211.722656 213.183594 L 212.203125 211.984375 L 213.695313 212.230469 L 219.53125 211.945313 L 219.738281 213.414063 L 221.816406 213.117188 L 221.605469 211.636719 L 225.847656 211.6875 L 227.726563 210.78125 L 227.875 211.839844 L 229.371094 211.628906 L 233.652344 211.015625 L 233.859375 212.464844 L 235.847656 212.183594 L 235.644531 210.730469 L 237.265625 210.5 L 240.027344 210.101563 L 240.425781 208.066406 L 240.191406 206.40625 L 239.988281 204.96875 L 240.378906 202.917969 L 238.832031 203.136719 L 238.007813 204.234375 L 237.808594 202.855469 L 228.703125 204.15625 L 227.160156 204.628906 L 227.449219 206.691406 L 225.230469 207.007813 L 225.082031 205.960938 L 221.082031 206.53125 L 215.683594 206.4375 L 213.492188 207.082031 L 212.007813 207.921875 L 211.753906 206.117188 L 205.320313 207.039063 L 202.765625 205.113281 L 200.804688 205.390625 L 199.347656 206.332031 L 197.585938 206.546875 Z M 197.035156 207.351563 "/>
<path style=" stroke:none;fill-rule:evenodd;fill:rgb(78.431373%,78.431373%,78.431373%);fill-opacity:1;" d="M 211.664063 257.582031 L 214.054688 257.105469 L 232.109375 243.0625 L 256.371094 240.007813 L 258.28125 241.34375 L 259 240.265625 L 259 206.578125 L 257.804688 197.019531 L 259 196.804688 L 259 181.761719 L 256.753906 182.3125 L 257.710938 190.140625 L 256.660156 190.523438 L 256.894531 192.730469 L 245.769531 194.632813 L 239.273438 200.554688 L 239.691406 203.011719 L 239.988281 204.96875 L 240.703125 210.007813 L 235.644531 210.730469 L 235.847656 212.183594 L 233.859375 212.464844 L 233.652344 211.015625 L 227.875 211.839844 L 227.726563 210.78125 L 225.757813 211.0625 L 213.773438 212.765625 L 212.714844 214.214844 L 207.027344 221.097656 Z M 211.664063 257.582031 "/>
<path style="fill:none;stroke-width:1;stroke-linecap:round;stroke-linejoin:round;stroke:rgb(100%,100%,100%);stroke-opacity:1;stroke-dasharray:2,3;stroke-miterlimit:10;" d="M 198.964844 219.050781 L 200.042969 219.570313 "/>
<path style="fill:none;stroke-width:1;stroke-linecap:round;stroke-linejoin:round;stroke:rgb(100%,100%,100%);stroke-opacity:1;stroke-dasharray:2,3;stroke-miterlimit:10;" d="M 198.558594 214.273438 L 198.382813 215.824219 "/>
<path style="fill:none;stroke-width:1;stroke-linecap:round;stroke-linejoin:round;stroke:rgb(100%,100%,100%);stroke-opacity:1;stroke-dasharray:2,3;stroke-miterlimit:10;" d="M 231.542969 169.875 L 229.65625 169.78125 L 228.355469 169.8125 L 225.609375 170.070313 "/>
<path style="fill:none;stroke-width:1;stroke-linecap:round;stroke-linejoin:round;stroke:rgb(100%,100%,100%);stroke-opacity:1;stroke-dasharray:2,3;stroke-miterlimit:10;" d="M 220.292969 176.4375 L 222.386719 176.128906 L 226.351563 175.679688 "/>
<path style="fill:none;stroke-width:1;stroke-linecap:round;stroke-linejoin:round;stroke:rgb(100%,100%,100%);stroke-opacity:1;stroke-dasharray:2,3;stroke-miterlimit:10;" d="M 235.527344 166.21875 L 240.1875 165.644531 L 243.898438 165.144531 L 246.167969 164.773438 "/>
<path style="fill:none;stroke-width:1;stroke-linecap:round;stroke-linejoin:round;stroke:rgb(100%,100%,100%);stroke-opacity:1;stroke-dasharray:2,3;stroke-miterlimit:10;" d="M 197.726563 214.199219 L 199.183594 214.363281 L 199.496094 215.332031 L 199.621094 216.460938 L 199.371094 218.273438 L 198.558594 219.832031 L 197.902344 220.867188 L 197.402344 221.867188 L 196.855469 222.957031 "/>
<path style="fill:none;stroke-width:1;stroke-linecap:round;stroke-linejoin:round;stroke:rgb(100%,100%,100%);stroke-opacity:1;stroke-dasharray:2,3;stroke-miterlimit:10;" d="M 193.96875 230.84375 L 194.558594 234.851563 L 195.246094 240.191406 L 196.089844 245.230469 "/>
<path style="fill:none;stroke-width:8;stroke-linecap:round;stroke-linejoin:round;stroke:rgb(75.686275%,70.980392%,61.568627%);stroke-opacity:1;stroke-miterlimit:10;" d="M 188.953125 240.71875 L 186.453125 241.375 "/>
<path style="fill:none;stroke-width:8;stroke-linecap:round;stroke-linejoin:round;stroke:rgb(75.686275%,70.980392%,61.568627%);stroke-opacity:1;stroke-miterlimit:10;" d="M 247.089844 140.15625 L 244.964844 142.089844 "/>
<path style="fill:none;stroke-width:8;stroke-linecap:round;stroke-linejoin:round;stroke:rgb(75.686275%,70.980392%,61.568627%);stroke-opacity:1;stroke-miterlimit:10;" d="M 241.683594 177.617188 L 245.6875 177.09375 "/>
<path style="fill:none;stroke-width:8;stroke-linecap:round;stroke-linejoin:round;stroke:rgb(75.686275%,70.980392%,61.568627%);stroke-opacity:1;stroke-miterlimit:10;" d="M 245.859375 178.1875 L 250.15625 177.65625 "/>
<path style="fill:none;stroke-width:8;stroke-linecap:round;stroke-linejoin:round;stroke:rgb(75.686275%,70.980392%,61.568627%);stroke-opacity:1;stroke-miterlimit:10;" d="M 119.097656 230.332031 L 121.914063 230.011719 L 124.433594 229.726563 L 127.378906 229.394531 "/>
<path style="fill:none;stroke-width:8;stroke-linecap:round;stroke-linejoin:round;stroke:rgb(75.686275%,70.980392%,61.568627%);stroke-opacity:1;stroke-miterlimit:10;" d="M 200.183594 244.644531 L 196.089844 245.230469 L 190.589844 246.019531 "/>
<path style="fill:none;stroke-width:8;stroke-linecap:round;stroke-linejoin:round;stroke:rgb(75.686275%,70.980392%,61.568627%);stroke-opacity:1;stroke-miterlimit:10;" d="M 28.378906 24.296875 L 20.828125 17.636719 "/>
<path style="fill:none;stroke-width:8;stroke-linecap:round;stroke-linejoin:round;stroke:rgb(75.686275%,70.980392%,61.568627%);stroke-opacity:1;stroke-miterlimit:10;" d="M 121.910156 220.488281 L 121.003906 221.582031 L 120.285156 222.707031 L 119.816406 224.332031 L 119.378906 225.863281 L 119.003906 228.269531 L 119.097656 230.332031 L 119.425781 232.949219 "/>
<path style="fill:none;stroke-width:8;stroke-linecap:round;stroke-linejoin:round;stroke:rgb(75.686275%,70.980392%,61.568627%);stroke-opacity:1;stroke-miterlimit:10;" d="M 244.964844 142.089844 L 250.34375 147.089844 L 249.902344 149.15625 L 241.90625 150.1875 "/>
<path style="fill:none;stroke-width:8;stroke-linecap:round;stroke-linejoin:round;stroke:rgb(75.686275%,70.980392%,61.568627%);stroke-opacity:1;stroke-miterlimit:10;" d="M 229.980469 38.542969 L 226.542969 38.820313 L 220.980469 39.480469 L 217.417969 39.855469 L 215.105469 40.511719 L 213.542969 42.105469 L 212.949219 43.542969 "/>
<path style="fill:none;stroke-width:8;stroke-linecap:round;stroke-linejoin:round;stroke:rgb(75.686275%,70.980392%,61.568627%);stroke-opacity:1;stroke-miterlimit:10;" d="M 154.441406 236.515625 L 154.710938 238.027344 L 154.90625 239.109375 L 154.558594 250.921875 L 153.40625 251.109375 L 152.34375 251.609375 L 151.214844 252.609375 L 150.4375 253.765625 L 149.605469 255.207031 "/>
<path style="fill:none;stroke-width:8;stroke-linecap:round;stroke-linejoin:round;stroke:rgb(75.686275%,70.980392%,61.568627%);stroke-opacity:1;stroke-miterlimit:10;" d="M 121.914063 230.011719 L 124.816406 251.300781 "/>
<path style="fill:none;stroke-width:8;stroke-linecap:round;stroke-linejoin:round;stroke:rgb(75.686275%,70.980392%,61.568627%);stroke-opacity:1;stroke-miterlimit:10;" d="M 124.816406 251.300781 L 121.910156 251.675781 L 119.425781 232.949219 "/>
<path style="fill:none;stroke-width:8;stroke-linecap:round;stroke-linejoin:round;stroke:rgb(75.686275%,70.980392%,61.568627%);stroke-opacity:1;stroke-miterlimit:10;" d="M 130.992188 253.359375 L 131.269531 255.824219 L 149.957031 261.699219 "/>
<path style="fill:none;stroke-width:8;stroke-linecap:round;stroke-linejoin:round;stroke:rgb(75.686275%,70.980392%,61.568627%);stroke-opacity:1;stroke-miterlimit:10;" d="M 127.679688 252.300781 L 124.433594 229.726563 "/>
<path style="fill:none;stroke-width:8;stroke-linecap:round;stroke-linejoin:round;stroke:rgb(75.686275%,70.980392%,61.568627%);stroke-opacity:1;stroke-miterlimit:10;" d="M 198.117188 264 L 195.445313 245.324219 "/>
<path style="fill:none;stroke-width:8;stroke-linecap:round;stroke-linejoin:round;stroke:rgb(75.686275%,70.980392%,61.568627%);stroke-opacity:1;stroke-miterlimit:10;" d="M 130.992188 253.359375 L 130.785156 251.96875 L 130.164063 247.875 L 127.378906 229.394531 "/>
<path style="fill:none;stroke-width:8;stroke-linecap:round;stroke-linejoin:round;stroke:rgb(75.686275%,70.980392%,61.568627%);stroke-opacity:1;stroke-miterlimit:10;" d="M 190.589844 246.019531 L 191.234375 250.621094 L 193.113281 264 "/>
<path style="fill:none;stroke-width:8;stroke-linecap:round;stroke-linejoin:round;stroke:rgb(75.686275%,70.980392%,61.568627%);stroke-opacity:1;stroke-miterlimit:10;" d="M 124.816406 251.300781 L 127.679688 252.300781 L 130.992188 253.359375 L 149.75 259.375 "/>
<path style="fill:none;stroke-width:8;stroke-linecap:round;stroke-linejoin:round;stroke:rgb(75.686275%,70.980392%,61.568627%);stroke-opacity:1;stroke-miterlimit:10;" d="M 203.15625 264 L 200.183594 244.644531 "/>
<path style="fill:none;stroke-width:8;stroke-linecap:round;stroke-linejoin:round;stroke:rgb(75.686275%,70.980392%,61.568627%);stroke-opacity:1;stroke-miterlimit:10;" d="M 115.207031 221.761719 L 116.113281 226.667969 L 116.644531 231.199219 L 117.113281 234.574219 L 117.332031 237.011719 L 117.582031 240.574219 L 117.832031 243.480469 L 118.144531 244.792969 L 118.644531 248.199219 L 118.894531 251.636719 L 119.207031 254.761719 "/>
<path style="fill:none;stroke-width:8;stroke-linecap:round;stroke-linejoin:round;stroke:rgb(75.686275%,70.980392%,61.568627%);stroke-opacity:1;stroke-miterlimit:10;" d="M 160.316406 214.675781 L 162.597656 231.265625 L 162.671875 232.289063 L 162.453125 233.445313 L 161.859375 234.414063 L 160.976563 235.097656 L 159.734375 235.632813 L 158.394531 235.929688 L 154.441406 236.515625 L 150.621094 237.082031 L 148.402344 237.359375 "/>
<path style="fill:none;stroke-width:8;stroke-linecap:round;stroke-linejoin:round;stroke:rgb(75.686275%,70.980392%,61.568627%);stroke-opacity:1;stroke-miterlimit:10;" d="M 242.152344 181.371094 L 241.683594 177.617188 L 240.1875 165.644531 L 238 148.15625 L 241.246094 145.25 "/>
<path style="fill:none;stroke-width:8;stroke-linecap:round;stroke-linejoin:round;stroke:rgb(75.686275%,70.980392%,61.568627%);stroke-opacity:1;stroke-miterlimit:10;" d="M 223.636719 45.230469 L 220.511719 45.664063 L 219.761719 46.449219 L 219.105469 47.417969 L 218.792969 48.476563 L 218.449219 49.730469 L 219.417969 55.230469 L 221.605469 58.324219 L 224.585938 79.003906 "/>
<path style="fill:none;stroke-width:8;stroke-linecap:round;stroke-linejoin:round;stroke:rgb(75.686275%,70.980392%,61.568627%);stroke-opacity:1;stroke-miterlimit:10;" d="M 204.105469 244.589844 L 202.765625 243.589844 L 202.078125 241.96875 L 201.703125 240.0625 L 200.359375 239.28125 L 200.449219 237.90625 L 200.265625 236.027344 L 199.230469 234.78125 L 194.558594 234.851563 L 190.171875 235.402344 L 188.796875 236.183594 L 188.421875 237.375 L 188.605469 239.28125 L 188.953125 240.71875 L 190.574219 240.78125 L 195.246094 240.191406 L 199.011719 239.71875 L 200.359375 239.28125 "/>
<path style="fill:none;stroke-width:8;stroke-linecap:round;stroke-linejoin:round;stroke:rgb(75.686275%,70.980392%,61.568627%);stroke-opacity:1;stroke-miterlimit:10;" d="M 35.769531 15.027344 L 28.933594 8.75 L 25.535156 5.628906 L 24.941406 4.144531 L 25.238281 2.871094 L 36.503906 -9 "/>
<path style="fill:none;stroke-width:8;stroke-linecap:round;stroke-linejoin:round;stroke:rgb(75.686275%,70.980392%,61.568627%);stroke-opacity:1;stroke-miterlimit:10;" d="M 50.652344 45.9375 L 36.738281 34.015625 L 30.074219 27.777344 L 28.675781 25.953125 L 28.378906 24.296875 L 29.015625 22.390625 L 35.769531 15.027344 "/>
<path style="fill:none;stroke-width:8;stroke-linecap:round;stroke-linejoin:round;stroke:rgb(75.686275%,70.980392%,61.568627%);stroke-opacity:1;stroke-miterlimit:10;" d="M -8.414063 -9 L 7.339844 4.863281 "/>
<path style="fill:none;stroke-width:8;stroke-linecap:round;stroke-linejoin:round;stroke:rgb(75.686275%,70.980392%,61.568627%);stroke-opacity:1;stroke-miterlimit:10;" d="M 259.355469 112.875 L 251.855469 60.308594 "/>
<path style="fill:none;stroke-width:8;stroke-linecap:round;stroke-linejoin:round;stroke:rgb(75.686275%,70.980392%,61.568627%);stroke-opacity:1;stroke-miterlimit:10;" d="M -1.953125 75.886719 L 0.378906 73.226563 L 16.074219 54.507813 L 22.734375 48.566406 L 36.738281 34.015625 "/>
<path style="fill:none;stroke-width:8;stroke-linecap:round;stroke-linejoin:round;stroke:rgb(75.686275%,70.980392%,61.568627%);stroke-opacity:1;stroke-miterlimit:10;" d="M 28.933594 8.75 L 22.523438 16.492188 L 20.828125 17.636719 L 17.8125 18.019531 L 15.902344 19.121094 L 11.40625 24.46875 L 6.996094 31.214844 L 6.570313 33.886719 L 6.824219 36.558594 L 13.867188 45.042969 L 15.691406 49.925781 L 16.074219 54.507813 "/>
<path style="fill:none;stroke-width:8;stroke-linecap:round;stroke-linejoin:round;stroke:rgb(75.686275%,70.980392%,61.568627%);stroke-opacity:1;stroke-miterlimit:10;" d="M 246.292969 57 L 255.105469 119.25 "/>
<path style="fill:none;stroke-width:8;stroke-linecap:round;stroke-linejoin:round;stroke:rgb(75.686275%,70.980392%,61.568627%);stroke-opacity:1;stroke-miterlimit:10;" d="M 155.921875 215.257813 L 152.359375 215.726563 L 151.421875 216.257813 L 150.921875 217.476563 L 152.917969 231.914063 L 157.949219 231.132813 L 155.921875 215.257813 L 160.316406 214.675781 L 176.042969 212.601563 L 176.261719 213.757813 "/>
<path style="fill:none;stroke-width:8;stroke-linecap:round;stroke-linejoin:round;stroke:rgb(75.686275%,70.980392%,61.568627%);stroke-opacity:1;stroke-miterlimit:10;" d="M 241.921875 138.3125 L 232.359375 75.75 "/>
<path style="fill:none;stroke-width:8;stroke-linecap:round;stroke-linejoin:round;stroke:rgb(75.686275%,70.980392%,61.568627%);stroke-opacity:1;stroke-miterlimit:10;" d="M 227.859375 77.6875 L 237.542969 142.5 "/>
<path style="fill:none;stroke-width:8;stroke-linecap:round;stroke-linejoin:round;stroke:rgb(75.686275%,70.980392%,61.568627%);stroke-opacity:1;stroke-miterlimit:10;" d="M 51.082031 182.925781 L 58.160156 169.285156 L 64.210938 158.347656 L 67.425781 149.207031 L 74.632813 130.03125 L 77.078125 121.796875 "/>
<path style="fill:none;stroke-width:8;stroke-linecap:round;stroke-linejoin:round;stroke:rgb(75.686275%,70.980392%,61.568627%);stroke-opacity:1;stroke-miterlimit:10;" d="M 233.046875 147.496094 L 223.042969 79.621094 "/>
<path style="fill:none;stroke-width:8;stroke-linecap:round;stroke-linejoin:round;stroke:rgb(75.686275%,70.980392%,61.568627%);stroke-opacity:1;stroke-miterlimit:10;" d="M 250.792969 126.3125 L 239.796875 52.75 "/>
<path style="fill:none;stroke-width:8;stroke-linecap:round;stroke-linejoin:round;stroke:rgb(75.686275%,70.980392%,61.568627%);stroke-opacity:1;stroke-miterlimit:10;" d="M 246.667969 132.9375 L 233.980469 49.1875 "/>
<path style="fill:none;stroke-width:8;stroke-linecap:round;stroke-linejoin:round;stroke:rgb(75.686275%,70.980392%,61.568627%);stroke-opacity:1;stroke-miterlimit:10;" d="M 229.761719 156.011719 L 217.957031 81 L 216.949219 78.824219 L 213.011719 51.074219 L 212.605469 46.730469 L 212.605469 45.199219 L 212.699219 44.199219 L 212.949219 43.542969 "/>
<path style="fill:none;stroke-width:8;stroke-linecap:round;stroke-linejoin:round;stroke:rgb(75.686275%,70.980392%,61.568627%);stroke-opacity:1;stroke-miterlimit:10;" d="M 77.078125 121.796875 L 81.082031 122.589844 L 87.449219 125.535156 L 92.324219 129.855469 L 95.757813 134.953125 L 97.308594 141.933594 L 96.976563 149.023438 L 96.535156 157.335938 L 95.871094 162.652344 L 94.875 167.859375 L 93.542969 175.394531 L 91.21875 184.480469 L 88.78125 192.898438 L 86.117188 200.878906 L 85.125 206.195313 L 84.789063 210.519531 L 85.898438 215.503906 L 87.5625 219.9375 L 86.816406 224.425781 "/>
<path style="fill:none;stroke-width:8;stroke-linecap:round;stroke-linejoin:round;stroke:rgb(75.686275%,70.980392%,61.568627%);stroke-opacity:1;stroke-miterlimit:10;" d="M 35.769531 15.027344 L 51.621094 -2.152344 L 52.207031 -4.269531 L 51.871094 -6.011719 L 50.957031 -7.382813 L 49.089844 -9 "/>
<path style="fill:none;stroke-width:8;stroke-linecap:round;stroke-linejoin:round;stroke:rgb(75.686275%,70.980392%,61.568627%);stroke-opacity:1;stroke-miterlimit:10;" d="M 234.335938 264 L 238.957031 257.796875 L 258.265625 227.996094 L 259.015625 225.894531 L 259.039063 223.539063 L 255.898438 198.019531 L 255.960938 195.269531 L 256.894531 192.730469 L 264 181.574219 M 264 157.53125 L 257.09375 150.605469 L 255.375 148.605469 L 254.707031 147.375 L 254.113281 146.042969 L 253.726563 144.742188 L 253.761719 143.335938 L 253.832031 141.933594 L 254.039063 140.492188 L 254.640625 139.019531 L 255.515625 137.230469 L 259.414063 131.71875 L 262.96875 126.070313 L 264 124.410156 M 264 63.050781 L 236.105469 45.246094 L 233.980469 44.042969 L 233.636719 40.730469 L 229.980469 38.542969 "/>
<path style="fill:none;stroke-width:8;stroke-linecap:round;stroke-linejoin:round;stroke:rgb(75.686275%,70.980392%,61.568627%);stroke-opacity:1;stroke-miterlimit:10;" d="M 182.410156 206.25 L 182 207.5 L 180.460938 212.257813 "/>
<path style="fill:none;stroke-width:8;stroke-linecap:round;stroke-linejoin:round;stroke:rgb(75.686275%,70.980392%,61.568627%);stroke-opacity:1;stroke-miterlimit:10;" d="M 62.714844 228.347656 L 62.109375 217.433594 "/>
<path style="fill:none;stroke-width:8;stroke-linecap:round;stroke-linejoin:round;stroke:rgb(75.686275%,70.980392%,61.568627%);stroke-opacity:1;stroke-miterlimit:10;" d="M 15.160156 218.542969 L 18.078125 235.488281 "/>
<path style="fill:none;stroke-width:8;stroke-linecap:round;stroke-linejoin:round;stroke:rgb(75.686275%,70.980392%,61.568627%);stroke-opacity:1;stroke-miterlimit:10;" d="M 180.460938 212.257813 L 181.855469 212.816406 L 183.449219 214.128906 L 184.089844 215.207031 L 185.179688 223.449219 L 185.277344 225.332031 L 184.371094 227.097656 L 183.347656 227.785156 "/>
<path style="fill:none;stroke-width:8;stroke-linecap:round;stroke-linejoin:round;stroke:rgb(75.686275%,70.980392%,61.568627%);stroke-opacity:1;stroke-miterlimit:10;" d="M 205.699219 256.25 L 207.015625 255.0625 L 207.734375 253.84375 L 207.796875 252.375 L 207.136719 247.125 L 205.796875 237.125 L 205.074219 235.5625 L 204.792969 234.183594 L 203.078125 230.6875 "/>
<path style="fill:none;stroke-width:8;stroke-linecap:round;stroke-linejoin:round;stroke:rgb(75.686275%,70.980392%,61.568627%);stroke-opacity:1;stroke-miterlimit:10;" d="M 246.871094 187.746094 L 243.902344 187.183594 L 241.464844 186.6875 L 240.0625 186.0625 L 238.84375 185.183594 L 237.78125 184.183594 L 236.5625 182.8125 L 235.96875 180.964844 L 234.402344 168 L 232.808594 166.46875 "/>
<path style="fill:none;stroke-width:8;stroke-linecap:round;stroke-linejoin:round;stroke:rgb(75.686275%,70.980392%,61.568627%);stroke-opacity:1;stroke-miterlimit:10;" d="M 228.402344 161.8125 L 229.058594 167.8125 L 229.65625 169.78125 L 231.15625 179.933594 L 231.5625 181.964844 L 232.558594 183.46875 L 235.902344 186.746094 L 237.5 189.371094 "/>
<path style="fill:none;stroke-width:8;stroke-linecap:round;stroke-linejoin:round;stroke:rgb(75.686275%,70.980392%,61.568627%);stroke-opacity:1;stroke-miterlimit:10;" d="M 119.207031 254.761719 L 137.089844 260.003906 L 150.523438 263.941406 "/>
<path style="fill:none;stroke-width:8;stroke-linecap:round;stroke-linejoin:round;stroke:rgb(75.686275%,70.980392%,61.568627%);stroke-opacity:1;stroke-miterlimit:10;" d="M 44.070313 263.265625 L 46.140625 260.5 L 49.574219 257.320313 L 53.277344 254.511719 L 55.820313 252.882813 L 58.5625 251.335938 L 64.441406 250.027344 L 71.066406 250.328125 L 77.164063 252.328125 "/>
<path style="fill:none;stroke-width:8;stroke-linecap:round;stroke-linejoin:round;stroke:rgb(75.686275%,70.980392%,61.568627%);stroke-opacity:1;stroke-miterlimit:10;" d="M 221.300781 168.132813 L 225.3125 167.8125 L 225.609375 170.070313 L 226.351563 175.679688 L 227.125 181.5 L 223.1875 182 L 223.46875 184.589844 L 224.09375 185.4375 L 225.03125 185.964844 L 227.125 186.996094 L 235.0625 189.9375 L 237.5 189.371094 "/>
<path style="fill:none;stroke-width:8;stroke-linecap:round;stroke-linejoin:round;stroke:rgb(75.686275%,70.980392%,61.568627%);stroke-opacity:1;stroke-miterlimit:10;" d="M 162.761719 208.917969 L 169.066406 210.027344 L 174.816406 209.234375 L 178.265625 210.226563 L 180.460938 212.257813 L 181.214844 215.628906 L 182.652344 226.753906 L 183.347656 227.785156 L 183.863281 231.257813 L 184.660156 234.257813 L 185.863281 237.058594 "/>
<path style="fill:none;stroke-width:8;stroke-linecap:round;stroke-linejoin:round;stroke:rgb(75.686275%,70.980392%,61.568627%);stroke-opacity:1;stroke-miterlimit:10;" d="M 185.863281 237.058594 L 186.453125 241.375 L 187.773438 251.027344 L 189.429688 263.097656 L 189.554688 264 "/>
<path style="fill:none;stroke-width:8;stroke-linecap:round;stroke-linejoin:round;stroke:rgb(75.686275%,70.980392%,61.568627%);stroke-opacity:1;stroke-miterlimit:10;" d="M 244.964844 142.089844 L 241.246094 145.25 L 241.90625 150.1875 L 243.898438 165.144531 L 245.6875 177.09375 L 245.859375 178.1875 L 247.089844 185.90625 L 246.871094 187.746094 L 245.78125 189.9375 L 244.15625 191.90625 L 241.375 194.964844 L 240.089844 195.996094 "/>
<path style="fill:none;stroke-width:8;stroke-linecap:round;stroke-linejoin:round;stroke:rgb(75.686275%,70.980392%,61.568627%);stroke-opacity:1;stroke-miterlimit:10;" d="M 77.808594 221.851563 L 62.714844 228.347656 L 56.847656 230.28125 L 50.902344 231.082031 L 39.816406 232.679688 L 18.078125 235.488281 "/>
<path style="fill:none;stroke-width:8;stroke-linecap:round;stroke-linejoin:round;stroke:rgb(75.686275%,70.980392%,61.568627%);stroke-opacity:1;stroke-miterlimit:10;" d="M 25.96875 206.730469 L 15.160156 218.542969 L -3.800781 238.988281 L -9 244.652344 "/>
<path style="fill:none;stroke-width:8;stroke-linecap:round;stroke-linejoin:round;stroke:rgb(75.686275%,70.980392%,61.568627%);stroke-opacity:1;stroke-miterlimit:10;" d="M 205.621094 264 L 205.613281 260.027344 L 205.699219 256.25 L 204.105469 244.589844 L 202.667969 233.433594 L 203.078125 230.6875 L 201.511719 228.84375 L 199.640625 227.5 L 197.296875 226.78125 L 194.886719 226.402344 L 193.351563 226.570313 L 190.574219 227.34375 L 188.953125 228.34375 L 187.484375 229.75 L 186.265625 231.183594 L 185.542969 232.589844 L 185.863281 237.058594 "/>
<path style="fill:none;stroke-width:8;stroke-linecap:round;stroke-linejoin:round;stroke:rgb(75.686275%,70.980392%,61.568627%);stroke-opacity:1;stroke-miterlimit:10;" d="M 162.761719 208.917969 L 182.410156 206.25 L 236.03125 198.875 L 237.746094 198.34375 L 239.121094 197.589844 L 240.089844 195.996094 L 240.4375 194.5 L 240.464844 192.875 L 239.808594 191.28125 L 238.75 190.152344 L 237.5 189.371094 "/>
<path style="fill:none;stroke-width:8;stroke-linecap:round;stroke-linejoin:round;stroke:rgb(75.686275%,70.980392%,61.568627%);stroke-opacity:1;stroke-miterlimit:10;" d="M 44.167969 264 L 39.816406 232.679688 "/>
<path style="fill:none;stroke-width:8;stroke-linecap:round;stroke-linejoin:round;stroke:rgb(75.686275%,70.980392%,61.568627%);stroke-opacity:1;stroke-miterlimit:10;" d="M 6.859375 194.253906 L -9 211.324219 "/>
<path style="fill:none;stroke-width:8;stroke-linecap:round;stroke-linejoin:round;stroke:rgb(75.686275%,70.980392%,61.568627%);stroke-opacity:1;stroke-miterlimit:10;" d="M -9 69.253906 L -5.308594 72.804688 L -1.953125 75.886719 L 20.089844 96.160156 "/>
<path style="fill:none;stroke-width:8;stroke-linecap:round;stroke-linejoin:round;stroke:rgb(75.686275%,70.980392%,61.568627%);stroke-opacity:1;stroke-miterlimit:10;" d="M 150.535156 264 L 149.957031 261.699219 L 149.75 259.375 L 149.605469 255.207031 L 149.511719 252.53125 L 149.171875 244.0625 L 148.402344 237.359375 L 147.011719 226.90625 L 146.761719 221.996094 L 147.84375 217.488281 L 150.296875 213.375 L 152.804688 210.863281 L 156.109375 209.71875 L 162.761719 208.917969 "/>
<path style="fill:none;stroke-width:8;stroke-linecap:round;stroke-linejoin:round;stroke:rgb(75.686275%,70.980392%,61.568627%);stroke-opacity:1;stroke-miterlimit:10;" d="M 64.441406 250.027344 L 66.238281 264 "/>
<path style="fill:none;stroke-width:8;stroke-linecap:round;stroke-linejoin:round;stroke:rgb(75.686275%,70.980392%,61.568627%);stroke-opacity:1;stroke-miterlimit:10;" d="M -3.800781 238.988281 L -0.34375 264 "/>
<path style="fill:none;stroke-width:8;stroke-linecap:round;stroke-linejoin:round;stroke:rgb(75.686275%,70.980392%,61.568627%);stroke-opacity:1;stroke-miterlimit:10;" d="M 18.078125 235.488281 L 21.882813 264 "/>
<path style="fill:none;stroke-width:8;stroke-linecap:round;stroke-linejoin:round;stroke:rgb(75.686275%,70.980392%,61.568627%);stroke-opacity:1;stroke-miterlimit:10;" d="M 86.816406 224.425781 L 86.203125 227.578125 L 85.921875 229.773438 L 85.699219 235.988281 L 84.984375 239.859375 L 83.5625 243.527344 L 81.476563 247.269531 L 77.164063 252.328125 L 82.582031 256.335938 L 85.992188 261.050781 L 87.300781 264 "/>
<path style="fill:none;stroke-width:8;stroke-linecap:round;stroke-linejoin:round;stroke:rgb(75.686275%,70.980392%,61.568627%);stroke-opacity:1;stroke-miterlimit:10;" d="M 223.1875 182 L 222.386719 176.128906 L 221.300781 168.132813 L 221.152344 167.0625 L 221.089844 165.65625 L 221.375 164.28125 L 221.996094 163.308594 L 223.09375 162.5625 L 228.402344 161.8125 L 232.558594 161.1875 L 233.59375 160.78125 L 234.4375 160.1875 L 234.777344 158.21875 L 233.046875 147.496094 L 237.542969 142.5 L 241.921875 138.3125 L 246.667969 132.9375 L 250.792969 126.3125 L 255.105469 119.25 L 259.355469 112.875 L 263.609375 106.3125 L 264 105.726563 M 264 73.394531 L 263.046875 67.3125 L 256.855469 63.308594 L 251.855469 60.308594 L 246.292969 57 L 239.796875 52.75 L 233.980469 49.1875 L 232.046875 49.246094 L 230.734375 50.058594 L 229.671875 51 L 229.171875 52.1875 L 232.359375 75.75 L 227.859375 77.6875 L 224.585938 79.003906 L 223.042969 79.621094 "/>
<path style="fill:none;stroke-width:8;stroke-linecap:round;stroke-linejoin:round;stroke:rgb(75.686275%,70.980392%,61.568627%);stroke-opacity:1;stroke-miterlimit:10;" d="M 25.96875 206.730469 L 28.480469 204.113281 L 30.484375 200.371094 L 31.730469 197.265625 L 32.121094 196.097656 "/>
<path style="fill:none;stroke-width:8;stroke-linecap:round;stroke-linejoin:round;stroke:rgb(75.686275%,70.980392%,61.568627%);stroke-opacity:1;stroke-miterlimit:10;" d="M 32.121094 196.097656 L 33.289063 192.613281 L 36.417969 154.40625 L 39.019531 142.007813 L 42.21875 133.207031 L 46.21875 125.007813 "/>
<path style="fill:none;stroke-width:8;stroke-linecap:round;stroke-linejoin:round;stroke:rgb(75.686275%,70.980392%,61.568627%);stroke-opacity:1;stroke-miterlimit:10;" d="M -9 179.375 L 6.859375 194.253906 "/>
<path style="fill:none;stroke-width:9;stroke-linecap:round;stroke-linejoin:round;stroke:rgb(75.686275%,70.980392%,61.568627%);stroke-opacity:1;stroke-miterlimit:10;" d="M 6.859375 194.253906 L 15.53125 201.355469 L 25.96875 206.730469 "/>
<path style="fill:none;stroke-width:9;stroke-linecap:round;stroke-linejoin:round;stroke:rgb(75.686275%,70.980392%,61.568627%);stroke-opacity:1;stroke-miterlimit:10;" d="M 25.96875 206.730469 L 62.109375 217.433594 L 77.808594 221.851563 L 86.816406 224.425781 L 98.742188 227.863281 "/>
<path style="fill:none;stroke-width:9;stroke-linecap:round;stroke-linejoin:round;stroke:rgb(75.686275%,70.980392%,61.568627%);stroke-opacity:1;stroke-miterlimit:10;" d="M 98.742188 227.863281 L 102.5625 229.519531 L 104.238281 230.214844 L 105.300781 230.984375 L 106.191406 232.03125 L 106.710938 233.234375 L 107.199219 234.847656 L 110.988281 265 "/>
<path style="fill:none;stroke-width:9;stroke-linecap:round;stroke-linejoin:round;stroke:rgb(75.686275%,70.980392%,61.568627%);stroke-opacity:1;stroke-miterlimit:10;" d="M 112.996094 265 L 108.558594 234.09375 L 107.96875 231.734375 L 106.976563 230.339844 L 105.597656 229.242188 L 103.820313 228.613281 L 98.742188 227.863281 "/>
<path style="fill:none;stroke-width:6;stroke-linecap:round;stroke-linejoin:round;stroke:rgb(100%,100%,100%);stroke-opacity:1;stroke-miterlimit:10;" d="M 188.953125 240.71875 L 186.453125 241.375 "/>
<path style="fill:none;stroke-width:6;stroke-linecap:round;stroke-linejoin:round;stroke:rgb(100%,100%,100%);stroke-opacity:1;stroke-miterlimit:10;" d="M 247.089844 140.15625 L 244.964844 142.089844 "/>
<path style="fill:none;stroke-width:6;stroke-linecap:round;stroke-linejoin:round;stroke:rgb(100%,100%,100%);stroke-opacity:1;stroke-miterlimit:10;" d="M 241.683594 177.617188 L 245.6875 177.09375 "/>
<path style="fill:none;stroke-width:6;stroke-linecap:round;stroke-linejoin:round;stroke:rgb(100%,100%,100%);stroke-opacity:1;stroke-miterlimit:10;" d="M 245.859375 178.1875 L 250.15625 177.65625 "/>
<path style="fill:none;stroke-width:6;stroke-linecap:round;stroke-linejoin:round;stroke:rgb(100%,100%,100%);stroke-opacity:1;stroke-miterlimit:10;" d="M 119.097656 230.332031 L 121.914063 230.011719 L 124.433594 229.726563 L 127.378906 229.394531 "/>
<path style="fill:none;stroke-width:6;stroke-linecap:round;stroke-linejoin:round;stroke:rgb(100%,100%,100%);stroke-opacity:1;stroke-miterlimit:10;" d="M 200.183594 244.644531 L 196.089844 245.230469 L 190.589844 246.019531 "/>
<path style="fill:none;stroke-width:6;stroke-linecap:round;stroke-linejoin:round;stroke:rgb(100%,100%,100%);stroke-opacity:1;stroke-miterlimit:10;" d="M 28.378906 24.296875 L 20.828125 17.636719 "/>
<path style="fill:none;stroke-width:6;stroke-linecap:round;stroke-linejoin:round;stroke:rgb(100%,100%,100%);stroke-opacity:1;stroke-miterlimit:10;" d="M 121.910156 220.488281 L 121.003906 221.582031 L 120.285156 222.707031 L 119.816406 224.332031 L 119.378906 225.863281 L 119.003906 228.269531 L 119.097656 230.332031 L 119.425781 232.949219 "/>
<path style="fill:none;stroke-width:6;stroke-linecap:round;stroke-linejoin:round;stroke:rgb(100%,100%,100%);stroke-opacity:1;stroke-miterlimit:10;" d="M 244.964844 142.089844 L 250.34375 147.089844 L 249.902344 149.15625 L 241.90625 150.1875 "/>
<path style="fill:none;stroke-width:6;stroke-linecap:round;stroke-linejoin:round;stroke:rgb(100%,100%,100%);stroke-opacity:1;stroke-miterlimit:10;" d="M 229.980469 38.542969 L 226.542969 38.820313 L 220.980469 39.480469 L 217.417969 39.855469 L 215.105469 40.511719 L 213.542969 42.105469 L 212.949219 43.542969 "/>
<path style="fill:none;stroke-width:6;stroke-linecap:round;stroke-linejoin:round;stroke:rgb(100%,100%,100%);stroke-opacity:1;stroke-miterlimit:10;" d="M 154.441406 236.515625 L 154.710938 238.027344 L 154.90625 239.109375 L 154.558594 250.921875 L 153.40625 251.109375 L 152.34375 251.609375 L 151.214844 252.609375 L 150.4375 253.765625 L 149.605469 255.207031 "/>
<path style="fill:none;stroke-width:6;stroke-linecap:round;stroke-linejoin:round;stroke:rgb(100%,100%,100%);stroke-opacity:1;stroke-miterlimit:10;" d="M 121.914063 230.011719 L 124.816406 251.300781 "/>
<path style="fill:none;stroke-width:6;stroke-linecap:round;stroke-linejoin:round;stroke:rgb(100%,100%,100%);stroke-opacity:1;stroke-miterlimit:10;" d="M 124.816406 251.300781 L 121.910156 251.675781 L 119.425781 232.949219 "/>
<path style="fill:none;stroke-width:6;stroke-linecap:round;stroke-linejoin:round;stroke:rgb(100%,100%,100%);stroke-opacity:1;stroke-miterlimit:10;" d="M 130.992188 253.359375 L 131.269531 255.824219 L 149.957031 261.699219 "/>
<path style="fill:none;stroke-width:6;stroke-linecap:round;stroke-linejoin:round;stroke:rgb(100%,100%,100%);stroke-opacity:1;stroke-miterlimit:10;" d="M 127.679688 252.300781 L 124.433594 229.726563 "/>
<path style="fill:none;stroke-width:6;stroke-linecap:round;stroke-linejoin:round;stroke:rgb(100%,100%,100%);stroke-opacity:1;stroke-miterlimit:10;" d="M 198.117188 264 L 195.445313 245.324219 "/>
<path style="fill:none;stroke-width:6;stroke-linecap:round;stroke-linejoin:round;stroke:rgb(100%,100%,100%);stroke-opacity:1;stroke-miterlimit:10;" d="M 130.992188 253.359375 L 130.785156 251.96875 L 130.164063 247.875 L 127.378906 229.394531 "/>
<path style="fill:none;stroke-width:6;stroke-linecap:round;stroke-linejoin:round;stroke:rgb(100%,100%,100%);stroke-opacity:1;stroke-miterlimit:10;" d="M 190.589844 246.019531 L 191.234375 250.621094 L 193.113281 264 "/>
<path style="fill:none;stroke-width:6;stroke-linecap:round;stroke-linejoin:round;stroke:rgb(100%,100%,100%);stroke-opacity:1;stroke-miterlimit:10;" d="M 124.816406 251.300781 L 127.679688 252.300781 L 130.992188 253.359375 L 149.75 259.375 "/>
<path style="fill:none;stroke-width:6;stroke-linecap:round;stroke-linejoin:round;stroke:rgb(100%,100%,100%);stroke-opacity:1;stroke-miterlimit:10;" d="M 203.15625 264 L 200.183594 244.644531 "/>
<path style="fill:none;stroke-width:6;stroke-linecap:round;stroke-linejoin:round;stroke:rgb(100%,100%,100%);stroke-opacity:1;stroke-miterlimit:10;" d="M 115.207031 221.761719 L 116.113281 226.667969 L 116.644531 231.199219 L 117.113281 234.574219 L 117.332031 237.011719 L 117.582031 240.574219 L 117.832031 243.480469 L 118.144531 244.792969 L 118.644531 248.199219 L 118.894531 251.636719 L 119.207031 254.761719 "/>
<path style="fill:none;stroke-width:6;stroke-linecap:round;stroke-linejoin:round;stroke:rgb(100%,100%,100%);stroke-opacity:1;stroke-miterlimit:10;" d="M 160.316406 214.675781 L 162.597656 231.265625 L 162.671875 232.289063 L 162.453125 233.445313 L 161.859375 234.414063 L 160.976563 235.097656 L 159.734375 235.632813 L 158.394531 235.929688 L 154.441406 236.515625 L 150.621094 237.082031 L 148.402344 237.359375 "/>
<path style="fill:none;stroke-width:6;stroke-linecap:round;stroke-linejoin:round;stroke:rgb(100%,100%,100%);stroke-opacity:1;stroke-miterlimit:10;" d="M 242.152344 181.371094 L 241.683594 177.617188 L 240.1875 165.644531 L 238 148.15625 L 241.246094 145.25 "/>
<path style="fill:none;stroke-width:6;stroke-linecap:round;stroke-linejoin:round;stroke:rgb(100%,100%,100%);stroke-opacity:1;stroke-miterlimit:10;" d="M 223.636719 45.230469 L 220.511719 45.664063 L 219.761719 46.449219 L 219.105469 47.417969 L 218.792969 48.476563 L 218.449219 49.730469 L 219.417969 55.230469 L 221.605469 58.324219 L 224.585938 79.003906 "/>
<path style="fill:none;stroke-width:6;stroke-linecap:round;stroke-linejoin:round;stroke:rgb(100%,100%,100%);stroke-opacity:1;stroke-miterlimit:10;" d="M 204.105469 244.589844 L 202.765625 243.589844 L 202.078125 241.96875 L 201.703125 240.0625 L 200.359375 239.28125 L 200.449219 237.90625 L 200.265625 236.027344 L 199.230469 234.78125 L 194.558594 234.851563 L 190.171875 235.402344 L 188.796875 236.183594 L 188.421875 237.375 L 188.605469 239.28125 L 188.953125 240.71875 L 190.574219 240.78125 L 195.246094 240.191406 L 199.011719 239.71875 L 200.359375 239.28125 "/>
<path style="fill:none;stroke-width:6;stroke-linecap:round;stroke-linejoin:round;stroke:rgb(100%,100%,100%);stroke-opacity:1;stroke-miterlimit:10;" d="M 35.769531 15.027344 L 28.933594 8.75 L 25.535156 5.628906 L 24.941406 4.144531 L 25.238281 2.871094 L 36.503906 -9 "/>
<path style="fill:none;stroke-width:6;stroke-linecap:round;stroke-linejoin:round;stroke:rgb(100%,100%,100%);stroke-opacity:1;stroke-miterlimit:10;" d="M 50.652344 45.9375 L 36.738281 34.015625 L 30.074219 27.777344 L 28.675781 25.953125 L 28.378906 24.296875 L 29.015625 22.390625 L 35.769531 15.027344 "/>
<path style="fill:none;stroke-width:6;stroke-linecap:round;stroke-linejoin:round;stroke:rgb(100%,100%,100%);stroke-opacity:1;stroke-miterlimit:10;" d="M -8.414063 -9 L 7.339844 4.863281 "/>
<path style="fill:none;stroke-width:6;stroke-linecap:round;stroke-linejoin:round;stroke:rgb(100%,100%,100%);stroke-opacity:1;stroke-miterlimit:10;" d="M 259.355469 112.875 L 251.855469 60.308594 "/>
<path style="fill:none;stroke-width:6;stroke-linecap:round;stroke-linejoin:round;stroke:rgb(100%,100%,100%);stroke-opacity:1;stroke-miterlimit:10;" d="M -1.953125 75.886719 L 0.378906 73.226563 L 16.074219 54.507813 L 22.734375 48.566406 L 36.738281 34.015625 "/>
<path style="fill:none;stroke-width:6;stroke-linecap:round;stroke-linejoin:round;stroke:rgb(100%,100%,100%);stroke-opacity:1;stroke-miterlimit:10;" d="M 28.933594 8.75 L 22.523438 16.492188 L 20.828125 17.636719 L 17.8125 18.019531 L 15.902344 19.121094 L 11.40625 24.46875 L 6.996094 31.214844 L 6.570313 33.886719 L 6.824219 36.558594 L 13.867188 45.042969 L 15.691406 49.925781 L 16.074219 54.507813 "/>
<path style="fill:none;stroke-width:6;stroke-linecap:round;stroke-linejoin:round;stroke:rgb(100%,100%,100%);stroke-opacity:1;stroke-miterlimit:10;" d="M 246.292969 57 L 255.105469 119.25 "/>
<path style="fill:none;stroke-width:6;stroke-linecap:round;stroke-linejoin:round;stroke:rgb(100%,100%,100%);stroke-opacity:1;stroke-miterlimit:10;" d="M 155.921875 215.257813 L 152.359375 215.726563 L 151.421875 216.257813 L 150.921875 217.476563 L 152.917969 231.914063 L 157.949219 231.132813 L 155.921875 215.257813 L 160.316406 214.675781 L 176.042969 212.601563 L 176.261719 213.757813 "/>
<path style="fill:none;stroke-width:6;stroke-linecap:round;stroke-linejoin:round;stroke:rgb(100%,100%,100%);stroke-opacity:1;stroke-miterlimit:10;" d="M 241.921875 138.3125 L 232.359375 75.75 "/>
<path style="fill:none;stroke-width:6;stroke-linecap:round;stroke-linejoin:round;stroke:rgb(100%,100%,100%);stroke-opacity:1;stroke-miterlimit:10;" d="M 227.859375 77.6875 L 237.542969 142.5 "/>
<path style="fill:none;stroke-width:6;stroke-linecap:round;stroke-linejoin:round;stroke:rgb(100%,100%,100%);stroke-opacity:1;stroke-miterlimit:10;" d="M 51.082031 182.925781 L 58.160156 169.285156 L 64.210938 158.347656 L 67.425781 149.207031 L 74.632813 130.03125 L 77.078125 121.796875 "/>
<path style="fill:none;stroke-width:6;stroke-linecap:round;stroke-linejoin:round;stroke:rgb(100%,100%,100%);stroke-opacity:1;stroke-miterlimit:10;" d="M 233.046875 147.496094 L 223.042969 79.621094 "/>
<path style="fill:none;stroke-width:6;stroke-linecap:round;stroke-linejoin:round;stroke:rgb(100%,100%,100%);stroke-opacity:1;stroke-miterlimit:10;" d="M 250.792969 126.3125 L 239.796875 52.75 "/>
<path style="fill:none;stroke-width:6;stroke-linecap:round;stroke-linejoin:round;stroke:rgb(100%,100%,100%);stroke-opacity:1;stroke-miterlimit:10;" d="M 246.667969 132.9375 L 233.980469 49.1875 "/>
<path style="fill:none;stroke-width:6;stroke-linecap:round;stroke-linejoin:round;stroke:rgb(100%,100%,100%);stroke-opacity:1;stroke-miterlimit:10;" d="M 229.761719 156.011719 L 217.957031 81 L 216.949219 78.824219 L 213.011719 51.074219 L 212.605469 46.730469 L 212.605469 45.199219 L 212.699219 44.199219 L 212.949219 43.542969 "/>
<path style="fill:none;stroke-width:6;stroke-linecap:round;stroke-linejoin:round;stroke:rgb(100%,100%,100%);stroke-opacity:1;stroke-miterlimit:10;" d="M 77.078125 121.796875 L 81.082031 122.589844 L 87.449219 125.535156 L 92.324219 129.855469 L 95.757813 134.953125 L 97.308594 141.933594 L 96.976563 149.023438 L 96.535156 157.335938 L 95.871094 162.652344 L 94.875 167.859375 L 93.542969 175.394531 L 91.21875 184.480469 L 88.78125 192.898438 L 86.117188 200.878906 L 85.125 206.195313 L 84.789063 210.519531 L 85.898438 215.503906 L 87.5625 219.9375 L 86.816406 224.425781 "/>
<path style="fill:none;stroke-width:6;stroke-linecap:round;stroke-linejoin:round;stroke:rgb(100%,100%,100%);stroke-opacity:1;stroke-miterlimit:10;" d="M 35.769531 15.027344 L 51.621094 -2.152344 L 52.207031 -4.269531 L 51.871094 -6.011719 L 50.957031 -7.382813 L 49.089844 -9 "/>
<path style="fill:none;stroke-width:6;stroke-linecap:round;stroke-linejoin:round;stroke:rgb(100%,100%,100%);stroke-opacity:1;stroke-miterlimit:10;" d="M 234.335938 264 L 238.957031 257.796875 L 258.265625 227.996094 L 259.015625 225.894531 L 259.039063 223.539063 L 255.898438 198.019531 L 255.960938 195.269531 L 256.894531 192.730469 L 264 181.574219 M 264 157.53125 L 257.09375 150.605469 L 255.375 148.605469 L 254.707031 147.375 L 254.113281 146.042969 L 253.726563 144.742188 L 253.761719 143.335938 L 253.832031 141.933594 L 254.039063 140.492188 L 254.640625 139.019531 L 255.515625 137.230469 L 259.414063 131.71875 L 262.96875 126.070313 L 264 124.410156 M 264 63.050781 L 236.105469 45.246094 L 233.980469 44.042969 L 233.636719 40.730469 L 229.980469 38.542969 "/>
<path style="fill:none;stroke-width:6;stroke-linecap:round;stroke-linejoin:round;stroke:rgb(100%,100%,100%);stroke-opacity:1;stroke-miterlimit:10;" d="M 182.410156 206.25 L 182 207.5 L 180.460938 212.257813 "/>
<path style="fill:none;stroke-width:6;stroke-linecap:round;stroke-linejoin:round;stroke:rgb(100%,100%,100%);stroke-opacity:1;stroke-miterlimit:10;" d="M 62.714844 228.347656 L 62.109375 217.433594 "/>
<path style="fill:none;stroke-width:6;stroke-linecap:round;stroke-linejoin:round;stroke:rgb(100%,100%,100%);stroke-opacity:1;stroke-miterlimit:10;" d="M 15.160156 218.542969 L 18.078125 235.488281 "/>
<path style="fill:none;stroke-width:6;stroke-linecap:round;stroke-linejoin:round;stroke:rgb(100%,100%,100%);stroke-opacity:1;stroke-miterlimit:10;" d="M 180.460938 212.257813 L 181.855469 212.816406 L 183.449219 214.128906 L 184.089844 215.207031 L 185.179688 223.449219 L 185.277344 225.332031 L 184.371094 227.097656 L 183.347656 227.785156 "/>
<path style="fill:none;stroke-width:6;stroke-linecap:round;stroke-linejoin:round;stroke:rgb(100%,100%,100%);stroke-opacity:1;stroke-miterlimit:10;" d="M 205.699219 256.25 L 207.015625 255.0625 L 207.734375 253.84375 L 207.796875 252.375 L 207.136719 247.125 L 205.796875 237.125 L 205.074219 235.5625 L 204.792969 234.183594 L 203.078125 230.6875 "/>
<path style="fill:none;stroke-width:6;stroke-linecap:round;stroke-linejoin:round;stroke:rgb(100%,100%,100%);stroke-opacity:1;stroke-miterlimit:10;" d="M 246.871094 187.746094 L 243.902344 187.183594 L 241.464844 186.6875 L 240.0625 186.0625 L 238.84375 185.183594 L 237.78125 184.183594 L 236.5625 182.8125 L 235.96875 180.964844 L 234.402344 168 L 232.808594 166.46875 "/>
<path style="fill:none;stroke-width:6;stroke-linecap:round;stroke-linejoin:round;stroke:rgb(100%,100%,100%);stroke-opacity:1;stroke-miterlimit:10;" d="M 228.402344 161.8125 L 229.058594 167.8125 L 229.65625 169.78125 L 231.15625 179.933594 L 231.5625 181.964844 L 232.558594 183.46875 L 235.902344 186.746094 L 237.5 189.371094 "/>
<path style="fill:none;stroke-width:6;stroke-linecap:round;stroke-linejoin:round;stroke:rgb(100%,100%,100%);stroke-opacity:1;stroke-miterlimit:10;" d="M 119.207031 254.761719 L 137.089844 260.003906 L 150.523438 263.941406 "/>
<path style="fill:none;stroke-width:6;stroke-linecap:round;stroke-linejoin:round;stroke:rgb(100%,100%,100%);stroke-opacity:1;stroke-miterlimit:10;" d="M 44.070313 263.265625 L 46.140625 260.5 L 49.574219 257.320313 L 53.277344 254.511719 L 55.820313 252.882813 L 58.5625 251.335938 L 64.441406 250.027344 L 71.066406 250.328125 L 77.164063 252.328125 "/>
<path style="fill:none;stroke-width:6;stroke-linecap:round;stroke-linejoin:round;stroke:rgb(100%,100%,100%);stroke-opacity:1;stroke-miterlimit:10;" d="M 221.300781 168.132813 L 225.3125 167.8125 L 225.609375 170.070313 L 226.351563 175.679688 L 227.125 181.5 L 223.1875 182 L 223.46875 184.589844 L 224.09375 185.4375 L 225.03125 185.964844 L 227.125 186.996094 L 235.0625 189.9375 L 237.5 189.371094 "/>
<path style="fill:none;stroke-width:6;stroke-linecap:round;stroke-linejoin:round;stroke:rgb(100%,100%,100%);stroke-opacity:1;stroke-miterlimit:10;" d="M 162.761719 208.917969 L 169.066406 210.027344 L 174.816406 209.234375 L 178.265625 210.226563 L 180.460938 212.257813 L 181.214844 215.628906 L 182.652344 226.753906 L 183.347656 227.785156 L 183.863281 231.257813 L 184.660156 234.257813 L 185.863281 237.058594 "/>
<path style="fill:none;stroke-width:6;stroke-linecap:round;stroke-linejoin:round;stroke:rgb(100%,100%,100%);stroke-opacity:1;stroke-miterlimit:10;" d="M 185.863281 237.058594 L 186.453125 241.375 L 187.773438 251.027344 L 189.429688 263.097656 L 189.554688 264 "/>
<path style="fill:none;stroke-width:6;stroke-linecap:round;stroke-linejoin:round;stroke:rgb(100%,100%,100%);stroke-opacity:1;stroke-miterlimit:10;" d="M 244.964844 142.089844 L 241.246094 145.25 L 241.90625 150.1875 L 243.898438 165.144531 L 245.6875 177.09375 L 245.859375 178.1875 L 247.089844 185.90625 L 246.871094 187.746094 L 245.78125 189.9375 L 244.15625 191.90625 L 241.375 194.964844 L 240.089844 195.996094 "/>
<path style="fill:none;stroke-width:6;stroke-linecap:round;stroke-linejoin:round;stroke:rgb(100%,100%,100%);stroke-opacity:1;stroke-miterlimit:10;" d="M 77.808594 221.851563 L 62.714844 228.347656 L 56.847656 230.28125 L 50.902344 231.082031 L 39.816406 232.679688 L 18.078125 235.488281 "/>
<path style="fill:none;stroke-width:6;stroke-linecap:round;stroke-linejoin:round;stroke:rgb(100%,100%,100%);stroke-opacity:1;stroke-miterlimit:10;" d="M 25.96875 206.730469 L 15.160156 218.542969 L -3.800781 238.988281 L -9 244.652344 "/>
<path style="fill:none;stroke-width:6;stroke-linecap:round;stroke-linejoin:round;stroke:rgb(100%,100%,100%);stroke-opacity:1;stroke-miterlimit:10;" d="M 205.621094 264 L 205.613281 260.027344 L 205.699219 256.25 L 204.105469 244.589844 L 202.667969 233.433594 L 203.078125 230.6875 L 201.511719 228.84375 L 199.640625 227.5 L 197.296875 226.78125 L 194.886719 226.402344 L 193.351563 226.570313 L 190.574219 227.34375 L 188.953125 228.34375 L 187.484375 229.75 L 186.265625 231.183594 L 185.542969 232.589844 L 185.863281 237.058594 "/>
<path style="fill:none;stroke-width:6;stroke-linecap:round;stroke-linejoin:round;stroke:rgb(100%,100%,100%);stroke-opacity:1;stroke-miterlimit:10;" d="M 162.761719 208.917969 L 182.410156 206.25 L 236.03125 198.875 L 237.746094 198.34375 L 239.121094 197.589844 L 240.089844 195.996094 L 240.4375 194.5 L 240.464844 192.875 L 239.808594 191.28125 L 238.75 190.152344 L 237.5 189.371094 "/>
<path style="fill:none;stroke-width:6;stroke-linecap:round;stroke-linejoin:round;stroke:rgb(100%,100%,100%);stroke-opacity:1;stroke-miterlimit:10;" d="M 44.167969 264 L 39.816406 232.679688 "/>
<path style="fill:none;stroke-width:6;stroke-linecap:round;stroke-linejoin:round;stroke:rgb(100%,100%,100%);stroke-opacity:1;stroke-miterlimit:10;" d="M 6.859375 194.253906 L -9 211.324219 "/>
<path style="fill:none;stroke-width:6;stroke-linecap:round;stroke-linejoin:round;stroke:rgb(100%,100%,100%);stroke-opacity:1;stroke-miterlimit:10;" d="M -9 69.253906 L -5.308594 72.804688 L -1.953125 75.886719 L 20.089844 96.160156 "/>
<path style="fill:none;stroke-width:6;stroke-linecap:round;stroke-linejoin:round;stroke:rgb(100%,100%,100%);stroke-opacity:1;stroke-miterlimit:10;" d="M 150.535156 264 L 149.957031 261.699219 L 149.75 259.375 L 149.605469 255.207031 L 149.511719 252.53125 L 149.171875 244.0625 L 148.402344 237.359375 L 147.011719 226.90625 L 146.761719 221.996094 L 147.84375 217.488281 L 150.296875 213.375 L 152.804688 210.863281 L 156.109375 209.71875 L 162.761719 208.917969 "/>
<path style="fill:none;stroke-width:6;stroke-linecap:round;stroke-linejoin:round;stroke:rgb(100%,100%,100%);stroke-opacity:1;stroke-miterlimit:10;" d="M 64.441406 250.027344 L 66.238281 264 "/>
<path style="fill:none;stroke-width:6;stroke-linecap:round;stroke-linejoin:round;stroke:rgb(100%,100%,100%);stroke-opacity:1;stroke-miterlimit:10;" d="M -3.800781 238.988281 L -0.34375 264 "/>
<path style="fill:none;stroke-width:6;stroke-linecap:round;stroke-linejoin:round;stroke:rgb(100%,100%,100%);stroke-opacity:1;stroke-miterlimit:10;" d="M 18.078125 235.488281 L 21.882813 264 "/>
<path style="fill:none;stroke-width:6;stroke-linecap:round;stroke-linejoin:round;stroke:rgb(100%,100%,100%);stroke-opacity:1;stroke-miterlimit:10;" d="M 86.816406 224.425781 L 86.203125 227.578125 L 85.921875 229.773438 L 85.699219 235.988281 L 84.984375 239.859375 L 83.5625 243.527344 L 81.476563 247.269531 L 77.164063 252.328125 L 82.582031 256.335938 L 85.992188 261.050781 L 87.300781 264 "/>
<path style="fill:none;stroke-width:6;stroke-linecap:round;stroke-linejoin:round;stroke:rgb(100%,100%,100%);stroke-opacity:1;stroke-miterlimit:10;" d="M 223.1875 182 L 222.386719 176.128906 L 221.300781 168.132813 L 221.152344 167.0625 L 221.089844 165.65625 L 221.375 164.28125 L 221.996094 163.308594 L 223.09375 162.5625 L 228.402344 161.8125 L 232.558594 161.1875 L 233.59375 160.78125 L 234.4375 160.1875 L 234.777344 158.21875 L 233.046875 147.496094 L 237.542969 142.5 L 241.921875 138.3125 L 246.667969 132.9375 L 250.792969 126.3125 L 255.105469 119.25 L 259.355469 112.875 L 263.609375 106.3125 L 264 105.726563 M 264 73.394531 L 263.046875 67.3125 L 256.855469 63.308594 L 251.855469 60.308594 L 246.292969 57 L 239.796875 52.75 L 233.980469 49.1875 L 232.046875 49.246094 L 230.734375 50.058594 L 229.671875 51 L 229.171875 52.1875 L 232.359375 75.75 L 227.859375 77.6875 L 224.585938 79.003906 L 223.042969 79.621094 "/>
<path style="fill:none;stroke-width:6;stroke-linecap:round;stroke-linejoin:round;stroke:rgb(100%,99.215686%,54.509804%);stroke-opacity:1;stroke-miterlimit:10;" d="M 25.96875 206.730469 L 28.480469 204.113281 L 30.484375 200.371094 L 31.730469 197.265625 L 32.121094 196.097656 "/>
<path style="fill:none;stroke-width:6;stroke-linecap:round;stroke-linejoin:round;stroke:rgb(100%,99.215686%,54.509804%);stroke-opacity:1;stroke-miterlimit:10;" d="M 32.121094 196.097656 L 33.289063 192.613281 L 36.417969 154.40625 L 39.019531 142.007813 L 42.21875 133.207031 L 46.21875 125.007813 "/>
<path style="fill:none;stroke-width:6;stroke-linecap:round;stroke-linejoin:round;stroke:rgb(100%,99.215686%,54.509804%);stroke-opacity:1;stroke-miterlimit:10;" d="M -9 179.375 L 6.859375 194.253906 "/>
<path style="fill:none;stroke-width:7;stroke-linecap:round;stroke-linejoin:round;stroke:rgb(100%,99.215686%,54.509804%);stroke-opacity:1;stroke-miterlimit:10;" d="M 6.859375 194.253906 L 15.53125 201.355469 L 25.96875 206.730469 "/>
<path style="fill:none;stroke-width:7;stroke-linecap:round;stroke-linejoin:round;stroke:rgb(100%,99.215686%,54.509804%);stroke-opacity:1;stroke-miterlimit:10;" d="M 25.96875 206.730469 L 62.109375 217.433594 L 77.808594 221.851563 L 86.816406 224.425781 L 98.742188 227.863281 "/>
<path style="fill:none;stroke-width:7;stroke-linecap:round;stroke-linejoin:round;stroke:rgb(100%,99.215686%,54.509804%);stroke-opacity:1;stroke-miterlimit:10;" d="M 98.742188 227.863281 L 102.5625 229.519531 L 104.238281 230.214844 L 105.300781 230.984375 L 106.191406 232.03125 L 106.710938 233.234375 L 107.199219 234.847656 L 110.988281 265 "/>
<path style="fill:none;stroke-width:7;stroke-linecap:round;stroke-linejoin:round;stroke:rgb(100%,99.215686%,54.509804%);stroke-opacity:1;stroke-miterlimit:10;" d="M 112.996094 265 L 108.558594 234.09375 L 107.96875 231.734375 L 106.976563 230.339844 L 105.597656 229.242188 L 103.820313 228.613281 L 98.742188 227.863281 "/>
<path style="fill:none;stroke-width:8;stroke-linecap:butt;stroke-linejoin:round;stroke:rgb(53.333333%,53.333333%,53.333333%);stroke-opacity:1;stroke-miterlimit:10;" d="M 46.21875 125.007813 L 112.988281 -7 "/>
<path style="fill:none;stroke-width:6;stroke-linecap:round;stroke-linejoin:round;stroke:rgb(100%,99.215686%,54.509804%);stroke-opacity:1;stroke-miterlimit:10;" d="M 46.21875 125.007813 L 112.988281 -7 "/>
<path style="fill:none;stroke-width:4;stroke-linecap:round;stroke-linejoin:round;stroke:rgb(70.588235%,70.588235%,70.588235%);stroke-opacity:1;stroke-miterlimit:10;" d="M 250.003906 260 L 260 244.804688 "/>
<path style="fill:none;stroke-width:4;stroke-linecap:round;stroke-linejoin:round;stroke:rgb(70.588235%,70.588235%,70.588235%);stroke-opacity:1;stroke-miterlimit:10;" d="M 260 239.441406 L 253.976563 236.878906 L 243.390625 238.304688 L 227.953125 240.386719 L 218.757813 241.628906 L 217.007813 241.160156 L 215.414063 240.222656 L 214.195313 238.785156 L 213.382813 237.222656 L 213.007813 235.316406 L 213.007813 233.410156 L 213.601563 231.628906 L 214.726563 230.160156 L 216.457031 219.296875 "/>
<path style="fill:none;stroke-width:4;stroke-linecap:round;stroke-linejoin:round;stroke:rgb(70.588235%,70.588235%,70.588235%);stroke-opacity:1;stroke-miterlimit:10;" d="M 243.390625 238.304688 L 236.644531 235.9375 L 226.507813 232.378906 L 224.792969 229.441406 L 224.910156 225.910156 L 226.140625 223.371094 L 227.964844 221.824219 L 229.191406 218.613281 "/>
<path style="fill:none;stroke-width:4;stroke-linecap:round;stroke-linejoin:round;stroke:rgb(70.588235%,70.588235%,70.588235%);stroke-opacity:1;stroke-miterlimit:10;" d="M 227.953125 240.386719 L 226.132813 241.386719 L 225.019531 245.082031 L 225.253906 246.78125 L 226.308594 250.007813 L 228.417969 252.527344 L 229.386719 260 "/>
<path style="fill:none;stroke-width:4;stroke-linecap:round;stroke-linejoin:round;stroke:rgb(70.588235%,70.588235%,70.588235%);stroke-opacity:1;stroke-miterlimit:10;" d="M 238.679688 216.4375 L 236.644531 235.9375 "/>
<path style="fill:none;stroke-width:4;stroke-linecap:round;stroke-linejoin:round;stroke:rgb(70.588235%,70.588235%,70.588235%);stroke-opacity:1;stroke-miterlimit:10;" d="M 244.164063 214.21875 L 253.59375 227.542969 "/>
<path style="fill:none;stroke-width:4;stroke-linecap:round;stroke-linejoin:round;stroke:rgb(70.588235%,70.588235%,70.588235%);stroke-opacity:1;stroke-miterlimit:10;" d="M 245.6875 207.5625 L 255.699219 210.5625 "/>
<path style="fill:none;stroke-width:4;stroke-linecap:round;stroke-linejoin:round;stroke:rgb(70.588235%,70.588235%,70.588235%);stroke-opacity:1;stroke-miterlimit:10;" d="M 241.726563 201.511719 L 253.304688 197.027344 "/>
<path style="fill:none;stroke-width:4;stroke-linecap:round;stroke-linejoin:round;stroke:rgb(70.588235%,70.588235%,70.588235%);stroke-opacity:1;stroke-miterlimit:10;" d="M 253.304688 197.027344 L 255.699219 210.5625 L 256.320313 216.644531 L 256.320313 221.445313 L 256.03125 224.605469 L 253.59375 227.542969 L 243.390625 238.304688 "/>
<path style="fill:none;stroke-width:4;stroke-linecap:round;stroke-linejoin:round;stroke:rgb(70.588235%,70.588235%,70.588235%);stroke-opacity:1;stroke-miterlimit:10;" d="M 253.59375 227.542969 L 260 232.066406 "/>
<path style="fill:none;stroke-width:4;stroke-linecap:round;stroke-linejoin:round;stroke:rgb(70.588235%,70.588235%,70.588235%);stroke-opacity:1;stroke-miterlimit:10;" d="M 260 53.441406 L 256.941406 51.488281 L 231.046875 34.964844 "/>
<path style="fill:none;stroke-width:3;stroke-linecap:round;stroke-linejoin:round;stroke:rgb(100%,100%,100%);stroke-opacity:1;stroke-miterlimit:10;" d="M 29.503906 211.429688 L 31.175781 211.929688 L 33.066406 205.523438 L 31.144531 205.398438 L 31.441406 204.367188 L 33.378906 204.492188 L 34.394531 204.789063 L 32.191406 212.226563 L 33.863281 212.726563 L 33.582031 213.679688 L 29.222656 212.382813 Z M 35.722656 214.117188 L 36.035156 213.085938 C 36.253906 213.304688 36.480469 213.488281 36.722656 213.632813 C 36.960938 213.78125 37.210938 213.890625 37.472656 213.960938 C 38.136719 214.15625 38.722656 214.058594 39.222656 213.664063 C 39.730469 213.257813 40.164063 212.554688 40.519531 211.554688 C 40.226563 211.816406 39.902344 211.988281 39.550781 212.070313 C 39.207031 212.15625 38.847656 212.144531 38.472656 212.039063 C 37.730469 211.8125 37.214844 211.378906 36.925781 210.742188 C 36.632813 210.109375 36.617188 209.347656 36.878906 208.460938 C 37.128906 207.597656 37.554688 206.972656 38.160156 206.585938 C 38.773438 206.203125 39.464844 206.125 40.238281 206.351563 C 41.113281 206.613281 41.667969 207.1875 41.910156 208.070313 C 42.148438 208.945313 42.054688 210.09375 41.628906 211.507813 C 41.242188 212.832031 40.648438 213.804688 39.847656 214.429688 C 39.054688 215.054688 38.179688 215.226563 37.222656 214.945313 C 36.972656 214.871094 36.722656 214.765625 36.472656 214.632813 C 36.222656 214.496094 35.972656 214.324219 35.722656 214.117188 Z M 38.816406 211.164063 C 39.273438 211.300781 39.683594 211.234375 40.050781 210.960938 C 40.425781 210.691406 40.699219 210.253906 40.878906 209.648438 C 41.054688 209.046875 41.058594 208.53125 40.894531 208.101563 C 40.738281 207.675781 40.429688 207.394531 39.972656 207.257813 C 39.511719 207.125 39.097656 207.191406 38.722656 207.460938 C 38.347656 207.734375 38.070313 208.171875 37.894531 208.773438 C 37.714844 209.378906 37.710938 209.894531 37.878906 210.320313 C 38.042969 210.75 38.355469 211.03125 38.816406 211.164063 Z M 45.421875 208.398438 L 44.890625 210.179688 L 46.796875 210.742188 L 46.5625 211.554688 L 44.65625 210.992188 L 43.640625 214.414063 C 43.492188 214.925781 43.457031 215.269531 43.53125 215.445313 C 43.613281 215.625 43.847656 215.769531 44.234375 215.882813 L 45.1875 216.164063 L 44.9375 217.039063 L 43.984375 216.757813 C 43.265625 216.546875 42.8125 216.25 42.625 215.867188 C 42.4375 215.484375 42.457031 214.90625 42.6875 214.132813 L 43.703125 210.710938 L 43.03125 210.507813 L 43.265625 209.695313 L 43.9375 209.898438 L 44.46875 208.117188 Z M 51.996094 214.992188 L 50.871094 218.804688 L 49.933594 218.523438 L 51.042969 214.757813 C 51.21875 214.164063 51.246094 213.691406 51.121094 213.335938 C 51.003906 212.972656 50.738281 212.726563 50.324219 212.601563 C 49.8125 212.457031 49.359375 212.519531 48.964844 212.789063 C 48.578125 213.050781 48.292969 213.492188 48.105469 214.117188 L 47.058594 217.664063 L 46.121094 217.398438 L 48.714844 208.648438 L 49.652344 208.914063 L 48.636719 212.351563 C 48.96875 212.039063 49.3125 211.835938 49.667969 211.742188 C 50.019531 211.648438 50.402344 211.660156 50.808594 211.773438 C 51.441406 211.972656 51.863281 212.34375 52.074219 212.882813 C 52.28125 213.425781 52.253906 214.128906 51.996094 214.992188 Z M 60.710938 213.800781 L 58.101563 217.566406 L 60.882813 218.378906 Z M 60.476563 212.519531 L 61.632813 212.847656 L 62.039063 222.097656 L 60.976563 221.785156 L 60.929688 219.425781 L 57.523438 218.425781 L 56.195313 220.378906 L 55.117188 220.050781 Z M 64.273438 215.910156 L 65.257813 216.175781 L 65.523438 221.972656 L 68.820313 217.175781 L 69.804688 217.457031 L 65.898438 223.175781 L 64.617188 222.816406 Z M 75.128906 222.078125 L 75.003906 222.578125 L 70.707031 221.375 C 70.539063 222.117188 70.574219 222.71875 70.816406 223.1875 C 71.054688 223.65625 71.488281 223.972656 72.113281 224.140625 C 72.476563 224.242188 72.835938 224.296875 73.191406 224.296875 C 73.554688 224.296875 73.933594 224.238281 74.332031 224.125 L 74.050781 225.125 C 73.675781 225.175781 73.292969 225.195313 72.910156 225.1875 C 72.535156 225.175781 72.164063 225.117188 71.800781 225.015625 C 70.902344 224.765625 70.273438 224.269531 69.910156 223.53125 C 69.542969 222.792969 69.503906 221.921875 69.785156 220.921875 C 70.074219 219.890625 70.554688 219.140625 71.222656 218.671875 C 71.886719 218.203125 72.652344 218.09375 73.519531 218.34375 C 74.277344 218.554688 74.804688 218.996094 75.097656 219.671875 C 75.386719 220.339844 75.398438 221.140625 75.128906 222.078125 Z M 74.285156 221.5 C 74.441406 220.9375 74.425781 220.449219 74.238281 220.03125 C 74.058594 219.617188 73.742188 219.34375 73.285156 219.21875 C 72.761719 219.074219 72.300781 219.121094 71.894531 219.359375 C 71.488281 219.601563 71.175781 220.007813 70.957031 220.578125 Z M 81.507813 223.464844 L 80.414063 227.277344 L 79.476563 227.011719 L 80.554688 223.246094 C 80.71875 222.644531 80.734375 222.164063 80.601563 221.808594 C 80.476563 221.445313 80.210938 221.207031 79.804688 221.089844 C 79.292969 220.945313 78.839844 221.007813 78.445313 221.277344 C 78.058594 221.550781 77.777344 221.996094 77.601563 222.621094 L 76.585938 226.183594 L 75.664063 225.917969 L 77.460938 219.605469 L 78.382813 219.871094 L 78.101563 220.855469 C 78.433594 220.535156 78.777344 220.324219 79.132813 220.230469 C 79.496094 220.128906 79.882813 220.132813 80.289063 220.246094 C 80.921875 220.425781 81.34375 220.789063 81.554688 221.339844 C 81.761719 221.882813 81.746094 222.589844 81.507813 223.464844 Z M 82.894531 225.273438 L 83.988281 221.460938 L 84.910156 221.726563 L 83.816406 225.523438 C 83.648438 226.109375 83.628906 226.582031 83.753906 226.945313 C 83.886719 227.3125 84.160156 227.546875 84.566406 227.664063 C 85.074219 227.808594 85.523438 227.746094 85.910156 227.476563 C 86.304688 227.207031 86.589844 226.757813 86.769531 226.132813 L 87.800781 222.554688 L 88.722656 222.820313 L 86.910156 229.132813 L 85.988281 228.867188 L 86.269531 227.898438 C 85.933594 228.21875 85.589844 228.433594 85.238281 228.539063 C 84.882813 228.640625 84.507813 228.636719 84.113281 228.523438 C 83.457031 228.335938 83.023438 227.964844 82.816406 227.414063 C 82.617188 226.863281 82.644531 226.148438 82.894531 225.273438 Z M 86.363281 221.992188 Z M 94.6875 227.691406 L 94.546875 228.191406 L 90.25 226.957031 C 90.082031 227.6875 90.113281 228.285156 90.34375 228.753906 C 90.582031 229.222656 91.015625 229.542969 91.640625 229.722656 C 91.992188 229.824219 92.351563 229.878906 92.71875 229.878906 C 93.09375 229.878906 93.46875 229.824219 93.84375 229.722656 L 93.5625 230.722656 C 93.195313 230.761719 92.820313 230.777344 92.4375 230.769531 C 92.050781 230.757813 91.679688 230.699219 91.328125 230.597656 C 90.421875 230.335938 89.785156 229.835938 89.421875 229.097656 C 89.066406 228.359375 89.035156 227.488281 89.328125 226.488281 C 89.628906 225.457031 90.113281 224.714844 90.78125 224.253906 C 91.457031 223.785156 92.222656 223.675781 93.078125 223.925781 C 93.835938 224.144531 94.363281 224.59375 94.65625 225.269531 C 94.945313 225.949219 94.957031 226.753906 94.6875 227.691406 Z M 93.828125 227.097656 C 93.984375 226.535156 93.96875 226.046875 93.78125 225.628906 C 93.601563 225.214844 93.285156 224.9375 92.828125 224.800781 C 92.304688 224.65625 91.84375 224.703125 91.4375 224.941406 C 91.039063 225.171875 90.726563 225.578125 90.5 226.160156 Z M 93.828125 227.097656 "/>
<path style=" stroke:none;fill-rule:evenodd;fill:rgb(20%,20%,20%);fill-opacity:1;" d="M 29.503906 211.429688 L 31.175781 211.929688 L 33.066406 205.523438 L 31.144531 205.398438 L 31.441406 204.367188 L 33.378906 204.492188 L 34.394531 204.789063 L 32.191406 212.226563 L 33.863281 212.726563 L 33.582031 213.679688 L 29.222656 212.382813 Z M 35.722656 214.117188 L 36.035156 213.085938 C 36.253906 213.304688 36.480469 213.488281 36.722656 213.632813 C 36.960938 213.78125 37.210938 213.890625 37.472656 213.960938 C 38.136719 214.15625 38.722656 214.058594 39.222656 213.664063 C 39.730469 213.257813 40.164063 212.554688 40.519531 211.554688 C 40.226563 211.816406 39.902344 211.988281 39.550781 212.070313 C 39.207031 212.15625 38.847656 212.144531 38.472656 212.039063 C 37.730469 211.8125 37.214844 211.378906 36.925781 210.742188 C 36.632813 210.109375 36.617188 209.347656 36.878906 208.460938 C 37.128906 207.597656 37.554688 206.972656 38.160156 206.585938 C 38.773438 206.203125 39.464844 206.125 40.238281 206.351563 C 41.113281 206.613281 41.667969 207.1875 41.910156 208.070313 C 42.148438 208.945313 42.054688 210.09375 41.628906 211.507813 C 41.242188 212.832031 40.648438 213.804688 39.847656 214.429688 C 39.054688 215.054688 38.179688 215.226563 37.222656 214.945313 C 36.972656 214.871094 36.722656 214.765625 36.472656 214.632813 C 36.222656 214.496094 35.972656 214.324219 35.722656 214.117188 Z M 38.816406 211.164063 C 39.273438 211.300781 39.683594 211.234375 40.050781 210.960938 C 40.425781 210.691406 40.699219 210.253906 40.878906 209.648438 C 41.054688 209.046875 41.058594 208.53125 40.894531 208.101563 C 40.738281 207.675781 40.429688 207.394531 39.972656 207.257813 C 39.511719 207.125 39.097656 207.191406 38.722656 207.460938 C 38.347656 207.734375 38.070313 208.171875 37.894531 208.773438 C 37.714844 209.378906 37.710938 209.894531 37.878906 210.320313 C 38.042969 210.75 38.355469 211.03125 38.816406 211.164063 Z M 45.421875 208.398438 L 44.890625 210.179688 L 46.796875 210.742188 L 46.5625 211.554688 L 44.65625 210.992188 L 43.640625 214.414063 C 43.492188 214.925781 43.457031 215.269531 43.53125 215.445313 C 43.613281 215.625 43.847656 215.769531 44.234375 215.882813 L 45.1875 216.164063 L 44.9375 217.039063 L 43.984375 216.757813 C 43.265625 216.546875 42.8125 216.25 42.625 215.867188 C 42.4375 215.484375 42.457031 214.90625 42.6875 214.132813 L 43.703125 210.710938 L 43.03125 210.507813 L 43.265625 209.695313 L 43.9375 209.898438 L 44.46875 208.117188 Z M 51.996094 214.992188 L 50.871094 218.804688 L 49.933594 218.523438 L 51.042969 214.757813 C 51.21875 214.164063 51.246094 213.691406 51.121094 213.335938 C 51.003906 212.972656 50.738281 212.726563 50.324219 212.601563 C 49.8125 212.457031 49.359375 212.519531 48.964844 212.789063 C 48.578125 213.050781 48.292969 213.492188 48.105469 214.117188 L 47.058594 217.664063 L 46.121094 217.398438 L 48.714844 208.648438 L 49.652344 208.914063 L 48.636719 212.351563 C 48.96875 212.039063 49.3125 211.835938 49.667969 211.742188 C 50.019531 211.648438 50.402344 211.660156 50.808594 211.773438 C 51.441406 211.972656 51.863281 212.34375 52.074219 212.882813 C 52.28125 213.425781 52.253906 214.128906 51.996094 214.992188 Z M 60.710938 213.800781 L 58.101563 217.566406 L 60.882813 218.378906 Z M 60.476563 212.519531 L 61.632813 212.847656 L 62.039063 222.097656 L 60.976563 221.785156 L 60.929688 219.425781 L 57.523438 218.425781 L 56.195313 220.378906 L 55.117188 220.050781 Z M 64.273438 215.910156 L 65.257813 216.175781 L 65.523438 221.972656 L 68.820313 217.175781 L 69.804688 217.457031 L 65.898438 223.175781 L 64.617188 222.816406 Z M 75.128906 222.078125 L 75.003906 222.578125 L 70.707031 221.375 C 70.539063 222.117188 70.574219 222.71875 70.816406 223.1875 C 71.054688 223.65625 71.488281 223.972656 72.113281 224.140625 C 72.476563 224.242188 72.835938 224.296875 73.191406 224.296875 C 73.554688 224.296875 73.933594 224.238281 74.332031 224.125 L 74.050781 225.125 C 73.675781 225.175781 73.292969 225.195313 72.910156 225.1875 C 72.535156 225.175781 72.164063 225.117188 71.800781 225.015625 C 70.902344 224.765625 70.273438 224.269531 69.910156 223.53125 C 69.542969 222.792969 69.503906 221.921875 69.785156 220.921875 C 70.074219 219.890625 70.554688 219.140625 71.222656 218.671875 C 71.886719 218.203125 72.652344 218.09375 73.519531 218.34375 C 74.277344 218.554688 74.804688 218.996094 75.097656 219.671875 C 75.386719 220.339844 75.398438 221.140625 75.128906 222.078125 Z M 74.285156 221.5 C 74.441406 220.9375 74.425781 220.449219 74.238281 220.03125 C 74.058594 219.617188 73.742188 219.34375 73.285156 219.21875 C 72.761719 219.074219 72.300781 219.121094 71.894531 219.359375 C 71.488281 219.601563 71.175781 220.007813 70.957031 220.578125 Z M 81.507813 223.464844 L 80.414063 227.277344 L 79.476563 227.011719 L 80.554688 223.246094 C 80.71875 222.644531 80.734375 222.164063 80.601563 221.808594 C 80.476563 221.445313 80.210938 221.207031 79.804688 221.089844 C 79.292969 220.945313 78.839844 221.007813 78.445313 221.277344 C 78.058594 221.550781 77.777344 221.996094 77.601563 222.621094 L 76.585938 226.183594 L 75.664063 225.917969 L 77.460938 219.605469 L 78.382813 219.871094 L 78.101563 220.855469 C 78.433594 220.535156 78.777344 220.324219 79.132813 220.230469 C 79.496094 220.128906 79.882813 220.132813 80.289063 220.246094 C 80.921875 220.425781 81.34375 220.789063 81.554688 221.339844 C 81.761719 221.882813 81.746094 222.589844 81.507813 223.464844 Z M 82.894531 225.273438 L 83.988281 221.460938 L 84.910156 221.726563 L 83.816406 225.523438 C 83.648438 226.109375 83.628906 226.582031 83.753906 226.945313 C 83.886719 227.3125 84.160156 227.546875 84.566406 227.664063 C 85.074219 227.808594 85.523438 227.746094 85.910156 227.476563 C 86.304688 227.207031 86.589844 226.757813 86.769531 226.132813 L 87.800781 222.554688 L 88.722656 222.820313 L 86.910156 229.132813 L 85.988281 228.867188 L 86.269531 227.898438 C 85.933594 228.21875 85.589844 228.433594 85.238281 228.539063 C 84.882813 228.640625 84.507813 228.636719 84.113281 228.523438 C 83.457031 228.335938 83.023438 227.964844 82.816406 227.414063 C 82.617188 226.863281 82.644531 226.148438 82.894531 225.273438 Z M 86.363281 221.992188 Z M 94.6875 227.691406 L 94.546875 228.191406 L 90.25 226.957031 C 90.082031 227.6875 90.113281 228.285156 90.34375 228.753906 C 90.582031 229.222656 91.015625 229.542969 91.640625 229.722656 C 91.992188 229.824219 92.351563 229.878906 92.71875 229.878906 C 93.09375 229.878906 93.46875 229.824219 93.84375 229.722656 L 93.5625 230.722656 C 93.195313 230.761719 92.820313 230.777344 92.4375 230.769531 C 92.050781 230.757813 91.679688 230.699219 91.328125 230.597656 C 90.421875 230.335938 89.785156 229.835938 89.421875 229.097656 C 89.066406 228.359375 89.035156 227.488281 89.328125 226.488281 C 89.628906 225.457031 90.113281 224.714844 90.78125 224.253906 C 91.457031 223.785156 92.222656 223.675781 93.078125 223.925781 C 93.835938 224.144531 94.363281 224.59375 94.65625 225.269531 C 94.945313 225.949219 94.957031 226.753906 94.6875 227.691406 Z M 93.828125 227.097656 C 93.984375 226.535156 93.96875 226.046875 93.78125 225.628906 C 93.601563 225.214844 93.285156 224.9375 92.828125 224.800781 C 92.304688 224.65625 91.84375 224.703125 91.4375 224.941406 C 91.039063 225.171875 90.726563 225.578125 90.5 226.160156 Z M 93.828125 227.097656 "/>
</g>
</svg>

