<?xml version="1.0" encoding="UTF-8"?>
<svg xmlns="http://www.w3.org/2000/svg" xmlns:xlink="http://www.w3.org/1999/xlink" width="256pt" height="256pt" viewBox="0 0 256 256" version="1.1">
<g id="surface2">
<rect x="0" y="0" width="256" height="256" style="fill:rgb(94.901961%,93.72549%,91.372549%);fill-opacity:1;stroke:none;"/>
<path style=" stroke:none;fill-rule:evenodd;fill:rgb(60%,70.196078%,80%);fill-opacity:1;" d="M 259 259 L 259 167.488281 L 258.378906 169.453125 L 254.578125 177.457031 L 253.378906 186.253906 L 255.777344 195.453125 L 255.378906 203.058594 L 252.578125 212.253906 L 248.175781 230.855469 L 247.777344 237.457031 L 246.179688 239.253906 L 246.578125 243.65625 L 248.980469 248.253906 L 248.175781 253.65625 L 243.578125 256.65625 L 244.976563 258.65625 L 137.710938 259 L 137.578125 257.257813 L 139.375 247.253906 L 136.175781 239.253906 L 134.378906 234.257813 L 132.378906 237.054688 L 129.179688 241.855469 L 125.578125 247.054688 L 121.578125 251.652344 L 117.175781 258.453125 L 83.792969 259 L 83.378906 252.054688 L 84.175781 244.054688 L 82.976563 232.855469 L 84.175781 228.253906 L 82.976563 224.457031 L 79.578125 223.65625 L 71.578125 226.457031 L 66.578125 212.65625 L 70.578125 210.054688 L 75.777344 205.65625 L 76.976563 200.855469 L 76.777344 189.253906 L 72.175781 186.65625 L 68.976563 177.457031 L 69.777344 172.257813 L 69.578125 163.457031 L 70.976563 157.65625 L 72.175781 149.457031 L 69.578125 143.453125 L 64.578125 136.457031 L 62.777344 139.457031 L 64.378906 145.453125 L 64.578125 154.457031 L 64.578125 160.855469 L 59.777344 165.457031 L 54.976563 173.65625 L 54.976563 181.253906 L 56.777344 192.457031 L 58.378906 204.855469 L 59.378906 211.257813 L 63.578125 213.65625 L 68.179688 227.457031 L 61.777344 230.855469 L 63.777344 239.058594 L 64.777344 249.65625 L 62.777344 258.054688 L 63.128906 259 Z M 259 259 "/>
<path style="fill:none;stroke-width:1;stroke-linecap:round;stroke-linejoin:round;stroke:rgb(70.196078%,77.647059%,83.137255%);stroke-opacity:1;stroke-miterlimit:10;" d="M 259 259 L 259 167.488281 L 258.378906 169.453125 L 254.578125 177.457031 L 253.378906 186.253906 L 255.777344 195.453125 L 255.378906 203.058594 L 252.578125 212.253906 L 248.175781 230.855469 L 247.777344 237.457031 L 246.179688 239.253906 L 246.578125 243.65625 L 248.980469 248.253906 L 248.175781 253.65625 L 243.578125 256.65625 L 244.976563 258.65625 L 137.710938 259 L 137.578125 257.257813 L 139.375 247.253906 L 136.175781 239.253906 L 134.378906 234.257813 L 132.378906 237.054688 L 129.179688 241.855469 L 125.578125 247.054688 L 121.578125 251.652344 L 117.175781 258.453125 L 83.792969 259 L 83.378906 252.054688 L 84.175781 244.054688 L 82.976563 232.855469 L 84.175781 228.253906 L 82.976563 224.457031 L 79.578125 223.65625 L 71.578125 226.457031 L 66.578125 212.65625 L 70.578125 210.054688 L 75.777344 205.65625 L 76.976563 200.855469 L 76.777344 189.253906 L 72.175781 186.65625 L 68.976563 177.457031 L 69.777344 172.257813 L 69.578125 163.457031 L 70.976563 157.65625 L 72.175781 149.457031 L 69.578125 143.453125 L 64.578125 136.457031 L 62.777344 139.457031 L 64.378906 145.453125 L 64.578125 154.457031 L 64.578125 160.855469 L 59.777344 165.457031 L 54.976563 173.65625 L 54.976563 181.253906 L 56.777344 192.457031 L 58.378906 204.855469 L 59.378906 211.257813 L 63.578125 213.65625 L 68.179688 227.457031 L 61.777344 230.855469 L 63.777344 239.058594 L 64.777344 249.65625 L 62.777344 258.054688 L 63.128906 259 L 259 259 "/>
<path style=" stroke:none;fill-rule:evenodd;fill:rgb(60%,70.196078%,80%);fill-opacity:1;" d="M 259 259 L 259 167.488281 L 258.378906 169.453125 L 254.578125 177.457031 L 253.378906 186.253906 L 255.777344 195.453125 L 255.378906 203.058594 L 252.578125 212.253906 L 248.175781 230.855469 L 247.777344 237.457031 L 246.179688 239.253906 L 246.578125 243.65625 L 248.980469 248.253906 L 248.175781 253.65625 L 243.578125 256.65625 L 244.976563 258.65625 L 137.710938 259 L 137.578125 257.257813 L 139.375 247.253906 L 136.175781 239.253906 L 134.378906 234.257813 L 132.378906 237.054688 L 129.179688 241.855469 L 125.578125 247.054688 L 121.578125 251.652344 L 117.175781 258.453125 L 83.792969 259 L 83.378906 252.054688 L 84.175781 244.054688 L 82.976563 232.855469 L 84.175781 228.253906 L 82.976563 224.457031 L 79.578125 223.65625 L 71.578125 226.457031 L 66.578125 212.65625 L 70.578125 210.054688 L 75.777344 205.65625 L 76.976563 200.855469 L 76.777344 189.253906 L 72.175781 186.65625 L 68.976563 177.457031 L 69.777344 172.257813 L 69.578125 163.457031 L 70.976563 157.65625 L 72.175781 149.457031 L 69.578125 143.453125 L 64.578125 136.457031 L 62.777344 139.457031 L 64.378906 145.453125 L 64.578125 154.457031 L 64.578125 160.855469 L 59.777344 165.457031 L 54.976563 173.65625 L 54.976563 181.253906 L 56.777344 192.457031 L 58.378906 204.855469 L 59.378906 211.257813 L 63.578125 213.65625 L 68.179688 227.457031 L 61.777344 230.855469 L 63.777344 239.058594 L 64.777344 249.65625 L 62.777344 258.054688 L 63.128906 259 Z M 259 259 "/>
<path style="fill:none;stroke-width:1;stroke-linecap:round;stroke-linejoin:round;stroke:rgb(70.196078%,77.647059%,83.137255%);stroke-opacity:1;stroke-miterlimit:10;" d="M 259 259 L 259 167.488281 L 258.378906 169.453125 L 254.578125 177.457031 L 253.378906 186.253906 L 255.777344 195.453125 L 255.378906 203.058594 L 252.578125 212.253906 L 248.175781 230.855469 L 247.777344 237.457031 L 246.179688 239.253906 L 246.578125 243.65625 L 248.980469 248.253906 L 248.175781 253.65625 L 243.578125 256.65625 L 244.976563 258.65625 L 137.710938 259 L 137.578125 257.257813 L 139.375 247.253906 L 136.175781 239.253906 L 134.378906 234.257813 L 132.378906 237.054688 L 129.179688 241.855469 L 125.578125 247.054688 L 121.578125 251.652344 L 117.175781 258.453125 L 83.792969 259 L 83.378906 252.054688 L 84.175781 244.054688 L 82.976563 232.855469 L 84.175781 228.253906 L 82.976563 224.457031 L 79.578125 223.65625 L 71.578125 226.457031 L 66.578125 212.65625 L 70.578125 210.054688 L 75.777344 205.65625 L 76.976563 200.855469 L 76.777344 189.253906 L 72.175781 186.65625 L 68.976563 177.457031 L 69.777344 172.257813 L 69.578125 163.457031 L 70.976563 157.65625 L 72.175781 149.457031 L 69.578125 143.453125 L 64.578125 136.457031 L 62.777344 139.457031 L 64.378906 145.453125 L 64.578125 154.457031 L 64.578125 160.855469 L 59.777344 165.457031 L 54.976563 173.65625 L 54.976563 181.253906 L 56.777344 192.457031 L 58.378906 204.855469 L 59.378906 211.257813 L 63.578125 213.65625 L 68.179688 227.457031 L 61.777344 230.855469 L 63.777344 239.058594 L 64.777344 249.65625 L 62.777344 258.054688 L 63.128906 259 L 259 259 "/>
<path style=" stroke:none;fill-rule:evenodd;fill:rgb(60%,70.196078%,80%);fill-opacity:1;" d="M 259 259 L 259 167.488281 L 258.378906 169.453125 L 254.578125 177.457031 L 253.378906 186.253906 L 255.777344 195.453125 L 255.378906 203.058594 L 252.578125 212.253906 L 248.175781 230.855469 L 247.777344 237.457031 L 246.179688 239.253906 L 246.578125 243.65625 L 248.980469 248.253906 L 248.175781 253.65625 L 243.578125 256.65625 L 244.976563 258.65625 L 137.710938 259 L 137.578125 257.257813 L 139.375 247.253906 L 136.175781 239.253906 L 134.378906 234.257813 L 132.378906 237.054688 L 129.179688 241.855469 L 125.578125 247.054688 L 121.578125 251.652344 L 117.175781 258.453125 L 83.792969 259 L 83.378906 252.054688 L 84.175781 244.054688 L 82.976563 232.855469 L 84.175781 228.253906 L 82.976563 224.457031 L 79.578125 223.65625 L 71.578125 226.457031 L 66.578125 212.65625 L 70.578125 210.054688 L 75.777344 205.65625 L 76.976563 200.855469 L 76.777344 189.253906 L 72.175781 186.65625 L 68.976563 177.457031 L 69.777344 172.257813 L 69.578125 163.457031 L 70.976563 157.65625 L 72.175781 149.457031 L 69.578125 143.453125 L 64.578125 136.457031 L 62.777344 139.457031 L 64.378906 145.453125 L 64.578125 154.457031 L 64.578125 160.855469 L 59.777344 165.457031 L 54.976563 173.65625 L 54.976563 181.253906 L 56.777344 192.457031 L 58.378906 204.855469 L 59.378906 211.257813 L 63.578125 213.65625 L 68.179688 227.457031 L 61.777344 230.855469 L 63.777344 239.058594 L 64.777344 249.65625 L 62.777344 258.054688 L 63.128906 259 Z M 259 259 "/>
<path style="fill:none;stroke-width:1;stroke-linecap:round;stroke-linejoin:round;stroke:rgb(70.196078%,77.647059%,83.137255%);stroke-opacity:1;stroke-miterlimit:10;" d="M 259 259 L 259 167.488281 L 258.378906 169.453125 L 254.578125 177.457031 L 253.378906 186.253906 L 255.777344 195.453125 L 255.378906 203.058594 L 252.578125 212.253906 L 248.175781 230.855469 L 247.777344 237.457031 L 246.179688 239.253906 L 246.578125 243.65625 L 248.980469 248.253906 L 248.175781 253.65625 L 243.578125 256.65625 L 244.976563 258.65625 L 137.710938 259 L 137.578125 257.257813 L 139.375 247.253906 L 136.175781 239.253906 L 134.378906 234.257813 L 132.378906 237.054688 L 129.179688 241.855469 L 125.578125 247.054688 L 121.578125 251.652344 L 117.175781 258.453125 L 83.792969 259 L 83.378906 252.054688 L 84.175781 244.054688 L 82.976563 232.855469 L 84.175781 228.253906 L 82.976563 224.457031 L 79.578125 223.65625 L 71.578125 226.457031 L 66.578125 212.65625 L 70.578125 210.054688 L 75.777344 205.65625 L 76.976563 200.855469 L 76.777344 189.253906 L 72.175781 186.65625 L 68.976563 177.457031 L 69.777344 172.257813 L 69.578125 163.457031 L 70.976563 157.65625 L 72.175781 149.457031 L 69.578125 143.453125 L 64.578125 136.457031 L 62.777344 139.457031 L 64.378906 145.453125 L 64.578125 154.457031 L 64.578125 160.855469 L 59.777344 165.457031 L 54.976563 173.65625 L 54.976563 181.253906 L 56.777344 192.457031 L 58.378906 204.855469 L 59.378906 211.257813 L 63.578125 213.65625 L 68.179688 227.457031 L 61.777344 230.855469 L 63.777344 239.058594 L 64.777344 249.65625 L 62.777344 258.054688 L 63.128906 259 L 259 259 "/>
<path style=" stroke:none;fill-rule:evenodd;fill:rgb(60%,70.196078%,80%);fill-opacity:1;" d="M 95.492188 192.488281 L 96.988281 196.988281 L 103.988281 196.488281 L 111.992188 195.488281 L 119.488281 192.488281 L 129.988281 189.988281 L 140.839844 182.789063 L 140.492188 172.492188 L 138.339844 163.289063 L 138.339844 150.789063 L 134.839844 138.789063 L 120.488281 140.992188 L 118.992188 149.492188 L 117.992188 160.492188 L 113.988281 165.488281 L 111.488281 176.492188 L 103.988281 184.488281 Z M 95.492188 192.488281 "/>
<path style="fill:none;stroke-width:1;stroke-linecap:round;stroke-linejoin:round;stroke:rgb(70.196078%,77.647059%,83.137255%);stroke-opacity:1;stroke-miterlimit:10;" d="M 95.492188 192.488281 L 96.988281 196.988281 L 103.988281 196.488281 L 111.992188 195.488281 L 119.488281 192.488281 L 129.988281 189.988281 L 140.839844 182.789063 L 140.492188 172.492188 L 138.339844 163.289063 L 138.339844 150.789063 L 134.839844 138.789063 L 120.488281 140.992188 L 118.992188 149.492188 L 117.992188 160.492188 L 113.988281 165.488281 L 111.488281 176.492188 L 103.988281 184.488281 L 95.492188 192.488281 "/>
<path style="fill:none;stroke-width:2;stroke-linecap:round;stroke-linejoin:round;stroke:rgb(60%,70.196078%,80%);stroke-opacity:1;stroke-miterlimit:10;" d="M 50.910156 -3 L 62.6875 13.3125 L 64.6875 21.8125 L 61.6875 33.3125 L 56.1875 31.808594 L 52.6875 43.8125 L 52.6875 49.3125 L 55.6875 50.3125 L 54.1875 58.308594 L 59.1875 66.308594 L 62.1875 72.3125 L 63.1875 81.308594 L 62.6875 88.3125 L 61.1875 96.8125 L 61.1875 105.3125 L 60.6875 112.8125 L 58.6875 120.3125 L 58.6875 128.808594 L 62.777344 139.457031 "/>
<path style="fill:none;stroke-width:8;stroke-linecap:round;stroke-linejoin:round;stroke:rgb(75.686275%,70.980392%,61.568627%);stroke-opacity:1;stroke-miterlimit:10;" d="M 153.765625 51.390625 L 151.964844 50.757813 L 150.464844 49.628906 L 148.621094 47.746094 L 148.371094 45.367188 L 148.621094 42.871094 L 149.871094 41.246094 L 151.371094 39.742188 L 153.746094 38.742188 L 156.121094 38.996094 L 158.496094 39.871094 L 160.460938 41.222656 "/>
<path style="fill:none;stroke-width:8;stroke-linecap:round;stroke-linejoin:round;stroke:rgb(75.686275%,70.980392%,61.568627%);stroke-opacity:1;stroke-miterlimit:10;" d="M 14.511719 168.144531 L 19.761719 148.644531 L 18.511719 144.894531 "/>
<path style="fill:none;stroke-width:8;stroke-linecap:round;stroke-linejoin:round;stroke:rgb(75.686275%,70.980392%,61.568627%);stroke-opacity:1;stroke-miterlimit:10;" d="M 32.265625 87.894531 L 39.761719 91.644531 L 47.601563 116.800781 "/>
<path style="fill:none;stroke-width:8;stroke-linecap:round;stroke-linejoin:round;stroke:rgb(75.686275%,70.980392%,61.568627%);stroke-opacity:1;stroke-miterlimit:10;" d="M 37.753906 207.699219 L -7.488281 211.394531 "/>
<path style="fill:none;stroke-width:8;stroke-linecap:round;stroke-linejoin:round;stroke:rgb(75.686275%,70.980392%,61.568627%);stroke-opacity:1;stroke-miterlimit:10;" d="M 24.761719 60.398438 L 32.265625 87.894531 L 32.011719 112.394531 "/>
<path style="fill:none;stroke-width:8;stroke-linecap:round;stroke-linejoin:round;stroke:rgb(75.686275%,70.980392%,61.568627%);stroke-opacity:1;stroke-miterlimit:10;" d="M -9 61.527344 L 18.265625 58.144531 L 21.261719 58.144531 L 24.761719 60.398438 "/>
<path style="fill:none;stroke-width:8;stroke-linecap:round;stroke-linejoin:round;stroke:rgb(75.686275%,70.980392%,61.568627%);stroke-opacity:1;stroke-miterlimit:10;" d="M -9 120.441406 L 26.261719 116.394531 L 29.261719 115.144531 L 32.011719 112.394531 "/>
<path style="fill:none;stroke-width:8;stroke-linecap:round;stroke-linejoin:round;stroke:rgb(75.686275%,70.980392%,61.568627%);stroke-opacity:1;stroke-miterlimit:10;" d="M -9 92.707031 L 32.265625 87.894531 "/>
<path style="fill:none;stroke-width:8;stroke-linecap:round;stroke-linejoin:round;stroke:rgb(75.686275%,70.980392%,61.568627%);stroke-opacity:1;stroke-miterlimit:10;" d="M 218.0625 45.222656 L 167.664063 39.824219 L 163.464844 40.222656 L 160.460938 41.222656 L 157.261719 43.824219 L 155.0625 46.421875 L 154.0625 49.023438 L 153.765625 51.390625 L 154.0625 55.820313 L 166.460938 106.222656 L 166.664063 108.621094 L 165.664063 111.425781 "/>
<path style="fill:none;stroke-width:8;stroke-linecap:round;stroke-linejoin:round;stroke:rgb(75.686275%,70.980392%,61.568627%);stroke-opacity:1;stroke-miterlimit:10;" d="M 219.464844 4.023438 L 154.664063 4.621094 L 150.0625 3.824219 L 145.863281 1.621094 L 143.464844 -2.375 L 142.664063 -6.777344 L 142.59375 -9 "/>
<path style="fill:none;stroke-width:8;stroke-linecap:round;stroke-linejoin:round;stroke:rgb(75.686275%,70.980392%,61.568627%);stroke-opacity:1;stroke-miterlimit:10;" d="M 206.953125 153.5 L 212.265625 152.222656 L 217.261719 150.023438 L 229.863281 142.824219 L 234.664063 139.621094 L 238.460938 136.222656 L 241.0625 132.421875 L 250.261719 112.222656 L 253.863281 104.222656 L 258.0625 96.621094 L 263.066406 90.222656 L 264 89.296875 "/>
<path style="fill:none;stroke-width:8;stroke-linecap:round;stroke-linejoin:round;stroke:rgb(75.686275%,70.980392%,61.568627%);stroke-opacity:1;stroke-miterlimit:10;" d="M -9 159.597656 L -6.488281 161.144531 L 14.511719 168.144531 L 28.011719 175.144531 L 33.261719 179.394531 L 35.011719 185.644531 L 37.753906 207.699219 L 40.910156 232.050781 L 43.753906 256.5 L 44.207031 264 "/>
<path style="fill:none;stroke-width:8;stroke-linecap:round;stroke-linejoin:round;stroke:rgb(75.686275%,70.980392%,61.568627%);stroke-opacity:1;stroke-miterlimit:10;" d="M 181.671875 264 L 182.8125 260.082031 L 190.214844 235.480469 L 193.214844 220.679688 L 196.816406 204.480469 L 201.015625 188.480469 L 203.214844 180.484375 L 204.613281 173.683594 L 205.351563 167.699219 "/>
<path style="fill:none;stroke-width:8;stroke-linecap:round;stroke-linejoin:round;stroke:rgb(75.686275%,70.980392%,61.568627%);stroke-opacity:1;stroke-miterlimit:10;" d="M 205.351563 167.699219 L 206.953125 153.5 L 212.0625 96.824219 L 218.0625 45.222656 L 219.0625 34.625 L 219.464844 22.824219 L 219.464844 4.023438 L 219.4375 -9 "/>
<path style="fill:none;stroke-width:8;stroke-linecap:round;stroke-linejoin:round;stroke:rgb(75.686275%,70.980392%,61.568627%);stroke-opacity:1;stroke-miterlimit:10;" d="M -9 0.863281 L -3.664063 -3.949219 L 2.140625 -9 "/>
<path style="fill:none;stroke-width:9;stroke-linecap:round;stroke-linejoin:round;stroke:rgb(75.686275%,70.980392%,61.568627%);stroke-opacity:1;stroke-miterlimit:10;" d="M 74.660156 219.425781 L 157.554688 189.101563 L 171.753906 183.699219 L 188.15625 176.5 L 205.351563 167.699219 "/>
<path style="fill:none;stroke-width:9;stroke-linecap:round;stroke-linejoin:round;stroke:rgb(75.686275%,70.980392%,61.568627%);stroke-opacity:1;stroke-miterlimit:10;" d="M 205.351563 167.699219 L 216.320313 161.640625 L 225.71875 155.84375 L 235.320313 149.445313 L 244.121094 143.242188 L 252.917969 136.640625 L 260.921875 129.84375 L 265 126.332031 "/>
<path style="fill:none;stroke-width:9;stroke-linecap:round;stroke-linejoin:round;stroke:rgb(75.686275%,70.980392%,61.568627%);stroke-opacity:1;stroke-miterlimit:10;" d="M -10 250.644531 L -1.445313 247.5 L 40.910156 232.050781 L 59.875 224.847656 "/>
<path style="fill:none;stroke-width:6;stroke-linecap:round;stroke-linejoin:round;stroke:rgb(100%,100%,100%);stroke-opacity:1;stroke-miterlimit:10;" d="M 153.765625 51.390625 L 151.964844 50.757813 L 150.464844 49.628906 L 148.621094 47.746094 L 148.371094 45.367188 L 148.621094 42.871094 L 149.871094 41.246094 L 151.371094 39.742188 L 153.746094 38.742188 L 156.121094 38.996094 L 158.496094 39.871094 L 160.460938 41.222656 "/>
<path style="fill:none;stroke-width:6;stroke-linecap:round;stroke-linejoin:round;stroke:rgb(100%,100%,100%);stroke-opacity:1;stroke-miterlimit:10;" d="M 14.511719 168.144531 L 19.761719 148.644531 L 18.511719 144.894531 "/>
<path style="fill:none;stroke-width:6;stroke-linecap:round;stroke-linejoin:round;stroke:rgb(100%,100%,100%);stroke-opacity:1;stroke-miterlimit:10;" d="M 32.265625 87.894531 L 39.761719 91.644531 L 47.601563 116.800781 "/>
<path style="fill:none;stroke-width:6;stroke-linecap:round;stroke-linejoin:round;stroke:rgb(100%,100%,100%);stroke-opacity:1;stroke-miterlimit:10;" d="M 37.753906 207.699219 L -7.488281 211.394531 "/>
<path style="fill:none;stroke-width:6;stroke-linecap:round;stroke-linejoin:round;stroke:rgb(100%,100%,100%);stroke-opacity:1;stroke-miterlimit:10;" d="M 24.761719 60.398438 L 32.265625 87.894531 L 32.011719 112.394531 "/>
<path style="fill:none;stroke-width:6;stroke-linecap:round;stroke-linejoin:round;stroke:rgb(100%,100%,100%);stroke-opacity:1;stroke-miterlimit:10;" d="M -9 61.527344 L 18.265625 58.144531 L 21.261719 58.144531 L 24.761719 60.398438 "/>
<path style="fill:none;stroke-width:6;stroke-linecap:round;stroke-linejoin:round;stroke:rgb(100%,100%,100%);stroke-opacity:1;stroke-miterlimit:10;" d="M -9 120.441406 L 26.261719 116.394531 L 29.261719 115.144531 L 32.011719 112.394531 "/>
<path style="fill:none;stroke-width:6;stroke-linecap:round;stroke-linejoin:round;stroke:rgb(100%,100%,100%);stroke-opacity:1;stroke-miterlimit:10;" d="M -9 92.707031 L 32.265625 87.894531 "/>
<path style="fill:none;stroke-width:6;stroke-linecap:round;stroke-linejoin:round;stroke:rgb(100%,100%,100%);stroke-opacity:1;stroke-miterlimit:10;" d="M 218.0625 45.222656 L 167.664063 39.824219 L 163.464844 40.222656 L 160.460938 41.222656 L 157.261719 43.824219 L 155.0625 46.421875 L 154.0625 49.023438 L 153.765625 51.390625 L 154.0625 55.820313 L 166.460938 106.222656 L 166.664063 108.621094 L 165.664063 111.425781 "/>
<path style="fill:none;stroke-width:6;stroke-linecap:round;stroke-linejoin:round;stroke:rgb(100%,100%,100%);stroke-opacity:1;stroke-miterlimit:10;" d="M 219.464844 4.023438 L 154.664063 4.621094 L 150.0625 3.824219 L 145.863281 1.621094 L 143.464844 -2.375 L 142.664063 -6.777344 L 142.59375 -9 "/>
<path style="fill:none;stroke-width:6;stroke-linecap:round;stroke-linejoin:round;stroke:rgb(100%,100%,100%);stroke-opacity:1;stroke-miterlimit:10;" d="M 206.953125 153.5 L 212.265625 152.222656 L 217.261719 150.023438 L 229.863281 142.824219 L 234.664063 139.621094 L 238.460938 136.222656 L 241.0625 132.421875 L 250.261719 112.222656 L 253.863281 104.222656 L 258.0625 96.621094 L 263.066406 90.222656 L 264 89.296875 "/>
<path style="fill:none;stroke-width:6;stroke-linecap:round;stroke-linejoin:round;stroke:rgb(100%,100%,100%);stroke-opacity:1;stroke-miterlimit:10;" d="M -9 159.597656 L -6.488281 161.144531 L 14.511719 168.144531 L 28.011719 175.144531 L 33.261719 179.394531 L 35.011719 185.644531 L 37.753906 207.699219 L 40.910156 232.050781 L 43.753906 256.5 L 44.207031 264 "/>
<path style="fill:none;stroke-width:6;stroke-linecap:round;stroke-linejoin:round;stroke:rgb(100%,99.215686%,54.509804%);stroke-opacity:1;stroke-miterlimit:10;" d="M 181.671875 264 L 182.8125 260.082031 L 190.214844 235.480469 L 193.214844 220.679688 L 196.816406 204.480469 L 201.015625 188.480469 L 203.214844 180.484375 L 204.613281 173.683594 L 205.351563 167.699219 "/>
<path style="fill:none;stroke-width:6;stroke-linecap:round;stroke-linejoin:round;stroke:rgb(100%,99.215686%,54.509804%);stroke-opacity:1;stroke-miterlimit:10;" d="M 205.351563 167.699219 L 206.953125 153.5 L 212.0625 96.824219 L 218.0625 45.222656 L 219.0625 34.625 L 219.464844 22.824219 L 219.464844 4.023438 L 219.4375 -9 "/>
<path style="fill:none;stroke-width:6;stroke-linecap:round;stroke-linejoin:round;stroke:rgb(100%,99.215686%,54.509804%);stroke-opacity:1;stroke-miterlimit:10;" d="M -9 0.863281 L -3.664063 -3.949219 L 2.140625 -9 "/>
<path style="fill:none;stroke-width:7;stroke-linecap:round;stroke-linejoin:round;stroke:rgb(100%,99.215686%,54.509804%);stroke-opacity:1;stroke-miterlimit:10;" d="M 74.660156 219.425781 L 157.554688 189.101563 L 171.753906 183.699219 L 188.15625 176.5 L 205.351563 167.699219 "/>
<path style="fill:none;stroke-width:7;stroke-linecap:round;stroke-linejoin:round;stroke:rgb(100%,99.215686%,54.509804%);stroke-opacity:1;stroke-miterlimit:10;" d="M 205.351563 167.699219 L 216.320313 161.640625 L 225.71875 155.84375 L 235.320313 149.445313 L 244.121094 143.242188 L 252.917969 136.640625 L 260.921875 129.84375 L 265 126.332031 "/>
<path style="fill:none;stroke-width:7;stroke-linecap:round;stroke-linejoin:round;stroke:rgb(100%,99.215686%,54.509804%);stroke-opacity:1;stroke-miterlimit:10;" d="M -10 250.644531 L -1.445313 247.5 L 40.910156 232.050781 L 59.875 224.847656 "/>
<path style="fill:none;stroke-width:9;stroke-linecap:butt;stroke-linejoin:round;stroke:rgb(53.333333%,53.333333%,53.333333%);stroke-opacity:1;stroke-miterlimit:10;" d="M 59.875 224.847656 L 74.660156 219.425781 "/>
<path style="fill:none;stroke-width:7;stroke-linecap:round;stroke-linejoin:round;stroke:rgb(100%,99.215686%,54.509804%);stroke-opacity:1;stroke-miterlimit:10;" d="M 59.875 224.847656 L 74.660156 219.425781 "/>
<path style="fill:none;stroke-width:3;stroke-linecap:round;stroke-linejoin:round;stroke:rgb(100%,100%,100%);stroke-opacity:1;stroke-miterlimit:10;" d="M 96.558594 207.191406 L 96.949219 208.269531 C 96.5 208.21875 96.089844 208.203125 95.714844 208.222656 C 95.339844 208.246094 94.996094 208.3125 94.683594 208.425781 C 94.128906 208.625 93.757813 208.894531 93.558594 209.238281 C 93.351563 209.582031 93.324219 209.972656 93.480469 210.410156 C 93.617188 210.777344 93.816406 211.015625 94.074219 211.128906 C 94.34375 211.246094 94.769531 211.253906 95.355469 211.160156 L 96.011719 211.082031 C 96.824219 210.96875 97.472656 211.046875 97.964844 211.316406 C 98.464844 211.589844 98.839844 212.050781 99.089844 212.707031 C 99.378906 213.511719 99.359375 214.203125 99.027344 214.785156 C 98.703125 215.371094 98.074219 215.832031 97.136719 216.175781 C 96.792969 216.300781 96.40625 216.394531 95.980469 216.457031 C 95.550781 216.511719 95.09375 216.53125 94.605469 216.519531 L 94.199219 215.363281 C 94.699219 215.46875 95.160156 215.515625 95.589844 215.503906 C 96.027344 215.484375 96.425781 215.40625 96.792969 215.269531 C 97.375 215.0625 97.777344 214.777344 97.996094 214.410156 C 98.214844 214.046875 98.238281 213.636719 98.074219 213.175781 C 97.925781 212.78125 97.703125 212.503906 97.402344 212.347656 C 97.097656 212.191406 96.667969 212.160156 96.105469 212.253906 L 95.449219 212.347656 C 94.644531 212.453125 94.019531 212.390625 93.558594 212.160156 C 93.089844 211.921875 92.742188 211.488281 92.511719 210.863281 C 92.242188 210.136719 92.261719 209.480469 92.574219 208.894531 C 92.878906 208.3125 93.429688 207.875 94.230469 207.582031 C 94.582031 207.449219 94.953125 207.347656 95.339844 207.285156 C 95.734375 207.222656 96.140625 207.191406 96.558594 207.191406 Z M 99.453125 206.175781 L 100.09375 207.925781 L 101.96875 207.238281 L 102.25 208.019531 L 100.375 208.707031 L 101.609375 212.050781 C 101.785156 212.550781 101.960938 212.855469 102.140625 212.957031 C 102.316406 213.0625 102.59375 213.042969 102.96875 212.894531 L 103.90625 212.550781 L 104.21875 213.394531 L 103.28125 213.738281 C 102.582031 214 102.039063 214.035156 101.65625 213.847656 C 101.28125 213.652344 100.957031 213.167969 100.6875 212.394531 L 99.453125 209.050781 L 98.796875 209.285156 L 98.515625 208.503906 L 99.171875 208.269531 L 98.53125 206.519531 Z M 106.820313 208.957031 C 106.078125 209.21875 105.601563 209.496094 105.382813 209.785156 C 105.171875 210.078125 105.148438 210.449219 105.304688 210.894531 C 105.4375 211.25 105.648438 211.496094 105.929688 211.628906 C 106.21875 211.765625 106.554688 211.765625 106.929688 211.628906 C 107.429688 211.453125 107.757813 211.109375 107.914063 210.597656 C 108.078125 210.089844 108.042969 209.5 107.804688 208.832031 L 107.726563 208.613281 Z M 108.476563 207.863281 L 109.757813 211.378906 L 108.851563 211.707031 L 108.507813 210.769531 C 108.433594 211.21875 108.273438 211.589844 108.023438 211.878906 C 107.78125 212.171875 107.4375 212.402344 106.992188 212.566406 C 106.417969 212.777344 105.898438 212.765625 105.429688 212.535156 C 104.96875 212.308594 104.632813 211.894531 104.414063 211.300781 C 104.164063 210.613281 104.179688 210.015625 104.460938 209.503906 C 104.75 208.996094 105.3125 208.589844 106.148438 208.285156 L 107.429688 207.816406 L 107.398438 207.722656 C 107.21875 207.246094 106.945313 206.933594 106.570313 206.785156 C 106.195313 206.640625 105.757813 206.65625 105.257813 206.832031 C 104.945313 206.949219 104.65625 207.105469 104.398438 207.300781 C 104.128906 207.5 103.882813 207.734375 103.664063 208.003906 L 103.320313 207.050781 C 103.601563 206.792969 103.890625 206.574219 104.179688 206.394531 C 104.460938 206.207031 104.75 206.058594 105.054688 205.941406 C 105.855469 205.652344 106.539063 205.660156 107.101563 205.972656 C 107.671875 206.285156 108.132813 206.917969 108.476563 207.863281 Z M 109.636719 202.453125 L 110.277344 204.203125 L 112.152344 203.515625 L 112.433594 204.296875 L 110.558594 204.984375 L 111.792969 208.328125 C 111.96875 208.828125 112.144531 209.132813 112.324219 209.234375 C 112.5 209.339844 112.777344 209.320313 113.152344 209.171875 L 114.089844 208.828125 L 114.402344 209.671875 L 113.464844 210.015625 C 112.765625 210.277344 112.222656 210.3125 111.839844 210.125 C 111.464844 209.929688 111.140625 209.445313 110.871094 208.671875 L 109.636719 205.328125 L 108.980469 205.5625 L 108.699219 204.78125 L 109.355469 204.546875 L 108.714844 202.796875 Z M 119.128906 204.167969 L 119.300781 204.652344 L 115.113281 206.199219 C 115.402344 206.878906 115.785156 207.339844 116.253906 207.589844 C 116.730469 207.832031 117.277344 207.835938 117.894531 207.605469 C 118.238281 207.480469 118.554688 207.316406 118.847656 207.105469 C 119.136719 206.886719 119.410156 206.621094 119.660156 206.308594 L 120.019531 207.277344 C 119.746094 207.539063 119.457031 207.773438 119.144531 207.980469 C 118.832031 208.191406 118.496094 208.363281 118.144531 208.496094 C 117.257813 208.820313 116.449219 208.789063 115.722656 208.402344 C 115.003906 208.019531 114.464844 207.339844 114.097656 206.371094 C 113.734375 205.363281 113.6875 204.472656 113.957031 203.699219 C 114.230469 202.929688 114.777344 202.386719 115.613281 202.074219 C 116.363281 201.804688 117.050781 201.855469 117.675781 202.230469 C 118.308594 202.605469 118.792969 203.253906 119.128906 204.167969 Z M 118.097656 204.199219 C 117.898438 203.660156 117.601563 203.273438 117.207031 203.042969 C 116.808594 202.804688 116.382813 202.769531 115.925781 202.933594 C 115.425781 203.121094 115.082031 203.433594 114.894531 203.871094 C 114.707031 204.300781 114.695313 204.808594 114.863281 205.402344 Z M 122.097656 197.554688 L 123.097656 197.179688 L 124.332031 200.554688 L 127.972656 199.226563 L 126.738281 195.851563 L 127.722656 195.492188 L 130.722656 203.710938 L 129.738281 204.070313 L 128.300781 200.148438 L 124.660156 201.476563 L 126.097656 205.398438 L 125.097656 205.773438 Z M 130.429688 196.839844 L 131.335938 196.496094 L 133.585938 202.652344 L 132.679688 202.996094 Z M 129.539063 194.433594 L 130.445313 194.089844 L 130.929688 195.371094 L 130.023438 195.714844 Z M 137.996094 197.46875 C 137.722656 196.742188 137.375 196.226563 136.949219 195.921875 C 136.53125 195.621094 136.078125 195.5625 135.589844 195.75 C 135.097656 195.929688 134.792969 196.265625 134.667969 196.765625 C 134.542969 197.265625 134.613281 197.882813 134.886719 198.609375 C 135.15625 199.351563 135.5 199.871094 135.917969 200.171875 C 136.332031 200.476563 136.785156 200.539063 137.277344 200.359375 C 137.765625 200.171875 138.074219 199.828125 138.199219 199.328125 C 138.332031 198.828125 138.265625 198.210938 137.996094 197.46875 Z M 139.777344 199.53125 C 140.160156 200.585938 140.234375 201.445313 139.996094 202.109375 C 139.765625 202.765625 139.222656 203.253906 138.371094 203.578125 C 138.046875 203.691406 137.730469 203.773438 137.417969 203.828125 C 137.113281 203.878906 136.8125 203.898438 136.511719 203.890625 L 136.152344 202.90625 C 136.472656 202.96875 136.777344 202.988281 137.058594 202.96875 C 137.347656 202.957031 137.628906 202.898438 137.902344 202.796875 C 138.503906 202.578125 138.890625 202.242188 139.058594 201.78125 C 139.234375 201.324219 139.191406 200.742188 138.933594 200.03125 L 138.761719 199.546875 C 138.699219 199.976563 138.550781 200.335938 138.324219 200.625 C 138.105469 200.90625 137.785156 201.125 137.371094 201.28125 C 136.691406 201.53125 136.035156 201.445313 135.402344 201.015625 C 134.777344 200.589844 134.292969 199.902344 133.949219 198.953125 C 133.605469 198.007813 133.539063 197.167969 133.746094 196.4375 C 133.945313 195.710938 134.382813 195.21875 135.058594 194.96875 C 135.472656 194.8125 135.859375 194.777344 136.214844 194.859375 C 136.578125 194.933594 136.921875 195.117188 137.246094 195.40625 L 136.902344 194.46875 L 137.808594 194.140625 Z M 145.203125 194.171875 L 146.5625 197.90625 L 145.640625 198.25 L 144.296875 194.5625 C 144.078125 193.980469 143.8125 193.585938 143.5 193.375 C 143.1875 193.167969 142.832031 193.136719 142.4375 193.28125 C 141.9375 193.460938 141.601563 193.773438 141.4375 194.21875 C 141.28125 194.667969 141.316406 195.195313 141.546875 195.796875 L 142.8125 199.28125 L 141.90625 199.609375 L 138.765625 191.046875 L 139.671875 190.71875 L 140.90625 194.078125 C 140.988281 193.621094 141.144531 193.25 141.375 192.96875 C 141.601563 192.679688 141.914063 192.460938 142.3125 192.3125 C 142.9375 192.085938 143.492188 192.125 143.984375 192.4375 C 144.484375 192.75 144.890625 193.328125 145.203125 194.171875 Z M 145.585938 191.289063 L 146.492188 190.960938 L 149.398438 195.351563 L 148.773438 190.117188 L 149.851563 189.726563 L 152.742188 194.132813 L 152.117188 188.898438 L 153.023438 188.570313 L 153.820313 195.257813 L 152.757813 195.648438 L 149.726563 191.039063 L 150.367188 196.523438 L 149.289063 196.914063 Z M 158.039063 190.167969 C 157.308594 190.441406 156.835938 190.726563 156.617188 191.027344 C 156.40625 191.320313 156.386719 191.691406 156.554688 192.136719 C 156.6875 192.503906 156.902344 192.753906 157.195313 192.886719 C 157.484375 193.011719 157.8125 193.003906 158.179688 192.855469 C 158.679688 192.679688 159.007813 192.335938 159.164063 191.824219 C 159.320313 191.316406 159.277344 190.726563 159.039063 190.058594 L 158.945313 189.839844 Z M 159.695313 189.074219 L 161.007813 192.589844 L 160.101563 192.933594 L 159.757813 191.996094 C 159.695313 192.445313 159.539063 192.816406 159.289063 193.105469 C 159.046875 193.398438 158.699219 193.628906 158.242188 193.792969 C 157.679688 194.011719 157.164063 194.007813 156.695313 193.777344 C 156.226563 193.539063 155.882813 193.128906 155.664063 192.542969 C 155.414063 191.847656 155.4375 191.246094 155.726563 190.746094 C 156.007813 190.246094 156.5625 189.839844 157.398438 189.527344 L 158.664063 189.058594 L 158.617188 188.949219 C 158.4375 188.480469 158.164063 188.175781 157.789063 188.027344 C 157.421875 187.871094 156.992188 187.882813 156.492188 188.058594 C 156.179688 188.183594 155.890625 188.347656 155.632813 188.542969 C 155.363281 188.742188 155.117188 188.976563 154.898438 189.246094 L 154.554688 188.308594 C 154.835938 188.039063 155.117188 187.816406 155.398438 187.636719 C 155.679688 187.449219 155.976563 187.300781 156.289063 187.183594 C 157.078125 186.882813 157.757813 186.886719 158.320313 187.199219 C 158.890625 187.511719 159.351563 188.136719 159.695313 189.074219 Z M 165.402344 191.570313 C 165.433594 192.402344 165.363281 192.976563 165.199219 193.289063 C 165.042969 193.609375 164.761719 193.851563 164.355469 194.007813 L 163.636719 194.273438 L 163.308594 193.414063 L 163.839844 193.226563 C 164.089844 193.121094 164.261719 192.976563 164.355469 192.789063 C 164.449219 192.609375 164.480469 192.246094 164.449219 191.695313 L 164.464844 191.164063 L 159.933594 185.992188 L 160.871094 185.617188 L 164.417969 189.757813 L 164.339844 184.304688 L 165.308594 183.945313 Z M 173.476563 182.652344 C 173.996094 182.570313 174.460938 182.652344 174.867188 182.902344 C 175.273438 183.144531 175.585938 183.523438 175.804688 184.042969 C 176.136719 184.835938 176.148438 185.554688 175.835938 186.199219 C 175.53125 186.835938 174.929688 187.339844 174.023438 187.714844 C 173.71875 187.851563 173.390625 187.957031 173.039063 188.027344 C 172.695313 188.089844 172.320313 188.128906 171.914063 188.136719 L 171.476563 187.089844 C 171.820313 187.152344 172.171875 187.160156 172.539063 187.105469 C 172.902344 187.054688 173.261719 186.960938 173.617188 186.824219 C 174.230469 186.566406 174.640625 186.230469 174.851563 185.824219 C 175.058594 185.417969 175.054688 184.960938 174.835938 184.449219 C 174.636719 183.972656 174.328125 183.664063 173.914063 183.527344 C 173.507813 183.382813 173.039063 183.425781 172.507813 183.652344 L 171.664063 183.996094 L 171.289063 183.105469 L 172.164063 182.730469 C 172.652344 182.535156 172.976563 182.273438 173.132813 181.949219 C 173.296875 181.617188 173.296875 181.246094 173.132813 180.839844 C 172.953125 180.433594 172.6875 180.179688 172.335938 180.074219 C 171.992188 179.960938 171.570313 180.007813 171.070313 180.214844 C 170.800781 180.320313 170.53125 180.472656 170.257813 180.667969 C 169.976563 180.855469 169.675781 181.097656 169.351563 181.386719 L 168.945313 180.417969 C 169.28125 180.148438 169.597656 179.917969 169.898438 179.730469 C 170.191406 179.535156 170.476563 179.371094 170.757813 179.246094 C 171.507813 178.933594 172.179688 178.878906 172.773438 179.074219 C 173.367188 179.261719 173.796875 179.679688 174.070313 180.324219 C 174.257813 180.773438 174.296875 181.199219 174.195313 181.605469 C 174.101563 182.011719 173.859375 182.363281 173.476563 182.652344 Z M 177.609375 177.34375 C 177.109375 177.5625 176.855469 178 176.84375 178.65625 C 176.824219 179.3125 177.058594 180.199219 177.546875 181.3125 C 178.023438 182.40625 178.507813 183.171875 179 183.609375 C 179.5 184.046875 180 184.15625 180.5 183.9375 C 181.007813 183.710938 181.269531 183.265625 181.28125 182.609375 C 181.300781 181.953125 181.070313 181.078125 180.59375 179.984375 C 180.101563 178.871094 179.609375 178.09375 179.109375 177.65625 C 178.617188 177.21875 178.117188 177.117188 177.609375 177.34375 Z M 177.234375 176.484375 C 178.046875 176.121094 178.820313 176.203125 179.5625 176.734375 C 180.300781 177.265625 180.96875 178.210938 181.5625 179.5625 C 182.15625 180.90625 182.390625 182.027344 182.265625 182.921875 C 182.148438 183.808594 181.6875 184.433594 180.875 184.796875 C 180.070313 185.152344 179.300781 185.070313 178.5625 184.546875 C 177.832031 184.027344 177.171875 183.09375 176.578125 181.75 C 175.984375 180.398438 175.746094 179.273438 175.859375 178.375 C 175.976563 177.46875 176.433594 176.839844 177.234375 176.484375 Z M 184.585938 174.527344 L 184.007813 179.902344 L 186.476563 178.808594 Z M 183.898438 173.714844 L 185.132813 173.167969 L 187.445313 178.386719 L 188.476563 177.933594 L 188.882813 178.824219 L 187.851563 179.277344 L 188.679688 181.167969 L 187.710938 181.589844 L 186.882813 179.699219 L 183.632813 181.136719 L 183.164063 180.105469 Z M 183.898438 173.714844 "/>
<path style=" stroke:none;fill-rule:evenodd;fill:rgb(20%,20%,20%);fill-opacity:1;" d="M 96.558594 207.191406 L 96.949219 208.269531 C 96.5 208.21875 96.089844 208.203125 95.714844 208.222656 C 95.339844 208.246094 94.996094 208.3125 94.683594 208.425781 C 94.128906 208.625 93.757813 208.894531 93.558594 209.238281 C 93.351563 209.582031 93.324219 209.972656 93.480469 210.410156 C 93.617188 210.777344 93.816406 211.015625 94.074219 211.128906 C 94.34375 211.246094 94.769531 211.253906 95.355469 211.160156 L 96.011719 211.082031 C 96.824219 210.96875 97.472656 211.046875 97.964844 211.316406 C 98.464844 211.589844 98.839844 212.050781 99.089844 212.707031 C 99.378906 213.511719 99.359375 214.203125 99.027344 214.785156 C 98.703125 215.371094 98.074219 215.832031 97.136719 216.175781 C 96.792969 216.300781 96.40625 216.394531 95.980469 216.457031 C 95.550781 216.511719 95.09375 216.53125 94.605469 216.519531 L 94.199219 215.363281 C 94.699219 215.46875 95.160156 215.515625 95.589844 215.503906 C 96.027344 215.484375 96.425781 215.40625 96.792969 215.269531 C 97.375 215.0625 97.777344 214.777344 97.996094 214.410156 C 98.214844 214.046875 98.238281 213.636719 98.074219 213.175781 C 97.925781 212.78125 97.703125 212.503906 97.402344 212.347656 C 97.097656 212.191406 96.667969 212.160156 96.105469 212.253906 L 95.449219 212.347656 C 94.644531 212.453125 94.019531 212.390625 93.558594 212.160156 C 93.089844 211.921875 92.742188 211.488281 92.511719 210.863281 C 92.242188 210.136719 92.261719 209.480469 92.574219 208.894531 C 92.878906 208.3125 93.429688 207.875 94.230469 207.582031 C 94.582031 207.449219 94.953125 207.347656 95.339844 207.285156 C 95.734375 207.222656 96.140625 207.191406 96.558594 207.191406 Z M 99.453125 206.175781 L 100.09375 207.925781 L 101.96875 207.238281 L 102.25 208.019531 L 100.375 208.707031 L 101.609375 212.050781 C 101.785156 212.550781 101.960938 212.855469 102.140625 212.957031 C 102.316406 213.0625 102.59375 213.042969 102.96875 212.894531 L 103.90625 212.550781 L 104.21875 213.394531 L 103.28125 213.738281 C 102.582031 214 102.039063 214.035156 101.65625 213.847656 C 101.28125 213.652344 100.957031 213.167969 100.6875 212.394531 L 99.453125 209.050781 L 98.796875 209.285156 L 98.515625 208.503906 L 99.171875 208.269531 L 98.53125 206.519531 Z M 106.820313 208.957031 C 106.078125 209.21875 105.601563 209.496094 105.382813 209.785156 C 105.171875 210.078125 105.148438 210.449219 105.304688 210.894531 C 105.4375 211.25 105.648438 211.496094 105.929688 211.628906 C 106.21875 211.765625 106.554688 211.765625 106.929688 211.628906 C 107.429688 211.453125 107.757813 211.109375 107.914063 210.597656 C 108.078125 210.089844 108.042969 209.5 107.804688 208.832031 L 107.726563 208.613281 Z M 108.476563 207.863281 L 109.757813 211.378906 L 108.851563 211.707031 L 108.507813 210.769531 C 108.433594 211.21875 108.273438 211.589844 108.023438 211.878906 C 107.78125 212.171875 107.4375 212.402344 106.992188 212.566406 C 106.417969 212.777344 105.898438 212.765625 105.429688 212.535156 C 104.96875 212.308594 104.632813 211.894531 104.414063 211.300781 C 104.164063 210.613281 104.179688 210.015625 104.460938 209.503906 C 104.75 208.996094 105.3125 208.589844 106.148438 208.285156 L 107.429688 207.816406 L 107.398438 207.722656 C 107.21875 207.246094 106.945313 206.933594 106.570313 206.785156 C 106.195313 206.640625 105.757813 206.65625 105.257813 206.832031 C 104.945313 206.949219 104.65625 207.105469 104.398438 207.300781 C 104.128906 207.5 103.882813 207.734375 103.664063 208.003906 L 103.320313 207.050781 C 103.601563 206.792969 103.890625 206.574219 104.179688 206.394531 C 104.460938 206.207031 104.75 206.058594 105.054688 205.941406 C 105.855469 205.652344 106.539063 205.660156 107.101563 205.972656 C 107.671875 206.285156 108.132813 206.917969 108.476563 207.863281 Z M 109.636719 202.453125 L 110.277344 204.203125 L 112.152344 203.515625 L 112.433594 204.296875 L 110.558594 204.984375 L 111.792969 208.328125 C 111.96875 208.828125 112.144531 209.132813 112.324219 209.234375 C 112.5 209.339844 112.777344 209.320313 113.152344 209.171875 L 114.089844 208.828125 L 114.402344 209.671875 L 113.464844 210.015625 C 112.765625 210.277344 112.222656 210.3125 111.839844 210.125 C 111.464844 209.929688 111.140625 209.445313 110.871094 208.671875 L 109.636719 205.328125 L 108.980469 205.5625 L 108.699219 204.78125 L 109.355469 204.546875 L 108.714844 202.796875 Z M 119.128906 204.167969 L 119.300781 204.652344 L 115.113281 206.199219 C 115.402344 206.878906 115.785156 207.339844 116.253906 207.589844 C 116.730469 207.832031 117.277344 207.835938 117.894531 207.605469 C 118.238281 207.480469 118.554688 207.316406 118.847656 207.105469 C 119.136719 206.886719 119.410156 206.621094 119.660156 206.308594 L 120.019531 207.277344 C 119.746094 207.539063 119.457031 207.773438 119.144531 207.980469 C 118.832031 208.191406 118.496094 208.363281 118.144531 208.496094 C 117.257813 208.820313 116.449219 208.789063 115.722656 208.402344 C 115.003906 208.019531 114.464844 207.339844 114.097656 206.371094 C 113.734375 205.363281 113.6875 204.472656 113.957031 203.699219 C 114.230469 202.929688 114.777344 202.386719 115.613281 202.074219 C 116.363281 201.804688 117.050781 201.855469 117.675781 202.230469 C 118.308594 202.605469 118.792969 203.253906 119.128906 204.167969 Z M 118.097656 204.199219 C 117.898438 203.660156 117.601563 203.273438 117.207031 203.042969 C 116.808594 202.804688 116.382813 202.769531 115.925781 202.933594 C 115.425781 203.121094 115.082031 203.433594 114.894531 203.871094 C 114.707031 204.300781 114.695313 204.808594 114.863281 205.402344 Z M 122.097656 197.554688 L 123.097656 197.179688 L 124.332031 200.554688 L 127.972656 199.226563 L 126.738281 195.851563 L 127.722656 195.492188 L 130.722656 203.710938 L 129.738281 204.070313 L 128.300781 200.148438 L 124.660156 201.476563 L 126.097656 205.398438 L 125.097656 205.773438 Z M 130.429688 196.839844 L 131.335938 196.496094 L 133.585938 202.652344 L 132.679688 202.996094 Z M 129.539063 194.433594 L 130.445313 194.089844 L 130.929688 195.371094 L 130.023438 195.714844 Z M 137.996094 197.46875 C 137.722656 196.742188 137.375 196.226563 136.949219 195.921875 C 136.53125 195.621094 136.078125 195.5625 135.589844 195.75 C 135.097656 195.929688 134.792969 196.265625 134.667969 196.765625 C 134.542969 197.265625 134.613281 197.882813 134.886719 198.609375 C 135.15625 199.351563 135.5 199.871094 135.917969 200.171875 C 136.332031 200.476563 136.785156 200.539063 137.277344 200.359375 C 137.765625 200.171875 138.074219 199.828125 138.199219 199.328125 C 138.332031 198.828125 138.265625 198.210938 137.996094 197.46875 Z M 139.777344 199.53125 C 140.160156 200.585938 140.234375 201.445313 139.996094 202.109375 C 139.765625 202.765625 139.222656 203.253906 138.371094 203.578125 C 138.046875 203.691406 137.730469 203.773438 137.417969 203.828125 C 137.113281 203.878906 136.8125 203.898438 136.511719 203.890625 L 136.152344 202.90625 C 136.472656 202.96875 136.777344 202.988281 137.058594 202.96875 C 137.347656 202.957031 137.628906 202.898438 137.902344 202.796875 C 138.503906 202.578125 138.890625 202.242188 139.058594 201.78125 C 139.234375 201.324219 139.191406 200.742188 138.933594 200.03125 L 138.761719 199.546875 C 138.699219 199.976563 138.550781 200.335938 138.324219 200.625 C 138.105469 200.90625 137.785156 201.125 137.371094 201.28125 C 136.691406 201.53125 136.035156 201.445313 135.402344 201.015625 C 134.777344 200.589844 134.292969 199.902344 133.949219 198.953125 C 133.605469 198.007813 133.539063 197.167969 133.746094 196.4375 C 133.945313 195.710938 134.382813 195.21875 135.058594 194.96875 C 135.472656 194.8125 135.859375 194.777344 136.214844 194.859375 C 136.578125 194.933594 136.921875 195.117188 137.246094 195.40625 L 136.902344 194.46875 L 137.808594 194.140625 Z M 145.203125 194.171875 L 146.5625 197.90625 L 145.640625 198.25 L 144.296875 194.5625 C 144.078125 193.980469 143.8125 193.585938 143.5 193.375 C 143.1875 193.167969 142.832031 193.136719 142.4375 193.28125 C 141.9375 193.460938 141.601563 193.773438 141.4375 194.21875 C 141.28125 194.667969 141.316406 195.195313 141.546875 195.796875 L 142.8125 199.28125 L 141.90625 199.609375 L 138.765625 191.046875 L 139.671875 190.71875 L 140.90625 194.078125 C 140.988281 193.621094 141.144531 193.25 141.375 192.96875 C 141.601563 192.679688 141.914063 192.460938 142.3125 192.3125 C 142.9375 192.085938 143.492188 192.125 143.984375 192.4375 C 144.484375 192.75 144.890625 193.328125 145.203125 194.171875 Z M 145.585938 191.289063 L 146.492188 190.960938 L 149.398438 195.351563 L 148.773438 190.117188 L 149.851563 189.726563 L 152.742188 194.132813 L 152.117188 188.898438 L 153.023438 188.570313 L 153.820313 195.257813 L 152.757813 195.648438 L 149.726563 191.039063 L 150.367188 196.523438 L 149.289063 196.914063 Z M 158.039063 190.167969 C 157.308594 190.441406 156.835938 190.726563 156.617188 191.027344 C 156.40625 191.320313 156.386719 191.691406 156.554688 192.136719 C 156.6875 192.503906 156.902344 192.753906 157.195313 192.886719 C 157.484375 193.011719 157.8125 193.003906 158.179688 192.855469 C 158.679688 192.679688 159.007813 192.335938 159.164063 191.824219 C 159.320313 191.316406 159.277344 190.726563 159.039063 190.058594 L 158.945313 189.839844 Z M 159.695313 189.074219 L 161.007813 192.589844 L 160.101563 192.933594 L 159.757813 191.996094 C 159.695313 192.445313 159.539063 192.816406 159.289063 193.105469 C 159.046875 193.398438 158.699219 193.628906 158.242188 193.792969 C 157.679688 194.011719 157.164063 194.007813 156.695313 193.777344 C 156.226563 193.539063 155.882813 193.128906 155.664063 192.542969 C 155.414063 191.847656 155.4375 191.246094 155.726563 190.746094 C 156.007813 190.246094 156.5625 189.839844 157.398438 189.527344 L 158.664063 189.058594 L 158.617188 188.949219 C 158.4375 188.480469 158.164063 188.175781 157.789063 188.027344 C 157.421875 187.871094 156.992188 187.882813 156.492188 188.058594 C 156.179688 188.183594 155.890625 188.347656 155.632813 188.542969 C 155.363281 188.742188 155.117188 188.976563 154.898438 189.246094 L 154.554688 188.308594 C 154.835938 188.039063 155.117188 187.816406 155.398438 187.636719 C 155.679688 187.449219 155.976563 187.300781 156.289063 187.183594 C 157.078125 186.882813 157.757813 186.886719 158.320313 187.199219 C 158.890625 187.511719 159.351563 188.136719 159.695313 189.074219 Z M 165.402344 191.570313 C 165.433594 192.402344 165.363281 192.976563 165.199219 193.289063 C 165.042969 193.609375 164.761719 193.851563 164.355469 194.007813 L 163.636719 194.273438 L 163.308594 193.414063 L 163.839844 193.226563 C 164.089844 193.121094 164.261719 192.976563 164.355469 192.789063 C 164.449219 192.609375 164.480469 192.246094 164.449219 191.695313 L 164.464844 191.164063 L 159.933594 185.992188 L 160.871094 185.617188 L 164.417969 189.757813 L 164.339844 184.304688 L 165.308594 183.945313 Z M 173.476563 182.652344 C 173.996094 182.570313 174.460938 182.652344 174.867188 182.902344 C 175.273438 183.144531 175.585938 183.523438 175.804688 184.042969 C 176.136719 184.835938 176.148438 185.554688 175.835938 186.199219 C 175.53125 186.835938 174.929688 187.339844 174.023438 187.714844 C 173.71875 187.851563 173.390625 187.957031 173.039063 188.027344 C 172.695313 188.089844 172.320313 188.128906 171.914063 188.136719 L 171.476563 187.089844 C 171.820313 187.152344 172.171875 187.160156 172.539063 187.105469 C 172.902344 187.054688 173.261719 186.960938 173.617188 186.824219 C 174.230469 186.566406 174.640625 186.230469 174.851563 185.824219 C 175.058594 185.417969 175.054688 184.960938 174.835938 184.449219 C 174.636719 183.972656 174.328125 183.664063 173.914063 183.527344 C 173.507813 183.382813 173.039063 183.425781 172.507813 183.652344 L 171.664063 183.996094 L 171.289063 183.105469 L 172.164063 182.730469 C 172.652344 182.535156 172.976563 182.273438 173.132813 181.949219 C 173.296875 181.617188 173.296875 181.246094 173.132813 180.839844 C 172.953125 180.433594 172.6875 180.179688 172.335938 180.074219 C 171.992188 179.960938 171.570313 180.007813 171.070313 180.214844 C 170.800781 180.320313 170.53125 180.472656 170.257813 180.667969 C 169.976563 180.855469 169.675781 181.097656 169.351563 181.386719 L 168.945313 180.417969 C 169.28125 180.148438 169.597656 179.917969 169.898438 179.730469 C 170.191406 179.535156 170.476563 179.371094 170.757813 179.246094 C 171.507813 178.933594 172.179688 178.878906 172.773438 179.074219 C 173.367188 179.261719 173.796875 179.679688 174.070313 180.324219 C 174.257813 180.773438 174.296875 181.199219 174.195313 181.605469 C 174.101563 182.011719 173.859375 182.363281 173.476563 182.652344 Z M 177.609375 177.34375 C 177.109375 177.5625 176.855469 178 176.84375 178.65625 C 176.824219 179.3125 177.058594 180.199219 177.546875 181.3125 C 178.023438 182.40625 178.507813 183.171875 179 183.609375 C 179.5 184.046875 180 184.15625 180.5 183.9375 C 181.007813 183.710938 181.269531 183.265625 181.28125 182.609375 C 181.300781 181.953125 181.070313 181.078125 180.59375 179.984375 C 180.101563 178.871094 179.609375 178.09375 179.109375 177.65625 C 178.617188 177.21875 178.117188 177.117188 177.609375 177.34375 Z M 177.234375 176.484375 C 178.046875 176.121094 178.820313 176.203125 179.5625 176.734375 C 180.300781 177.265625 180.96875 178.210938 181.5625 179.5625 C 182.15625 180.90625 182.390625 182.027344 182.265625 182.921875 C 182.148438 183.808594 181.6875 184.433594 180.875 184.796875 C 180.070313 185.152344 179.300781 185.070313 178.5625 184.546875 C 177.832031 184.027344 177.171875 183.09375 176.578125 181.75 C 175.984375 180.398438 175.746094 179.273438 175.859375 178.375 C 175.976563 177.46875 176.433594 176.839844 177.234375 176.484375 Z M 184.585938 174.527344 L 184.007813 179.902344 L 186.476563 178.808594 Z M 183.898438 173.714844 L 185.132813 173.167969 L 187.445313 178.386719 L 188.476563 177.933594 L 188.882813 178.824219 L 187.851563 179.277344 L 188.679688 181.167969 L 187.710938 181.589844 L 186.882813 179.699219 L 183.632813 181.136719 L 183.164063 180.105469 Z M 183.898438 173.714844 "/>
<path style="fill:none;stroke-width:3;stroke-linecap:round;stroke-linejoin:round;stroke:rgb(100%,100%,100%);stroke-opacity:1;stroke-miterlimit:10;" d="M 211.714844 103.25 C 211.820313 103.054688 212.007813 102.867188 212.277344 102.6875 C 212.550781 102.511719 212.925781 102.339844 213.402344 102.171875 L 215.667969 101.40625 L 215.574219 102.4375 L 213.449219 103.171875 C 212.898438 103.371094 212.523438 103.574219 212.324219 103.78125 C 212.128906 103.992188 212.007813 104.289063 211.964844 104.671875 L 211.871094 105.734375 L 215.246094 106.03125 L 215.167969 107 L 207.183594 106.28125 L 207.371094 104.09375 C 207.445313 103.261719 207.691406 102.664063 208.105469 102.296875 C 208.523438 101.921875 209.117188 101.773438 209.886719 101.84375 C 210.386719 101.898438 210.800781 102.042969 211.121094 102.28125 C 211.433594 102.511719 211.632813 102.835938 211.714844 103.25 Z M 208.152344 105.390625 L 210.980469 105.640625 L 211.089844 104.421875 C 211.132813 103.945313 211.042969 103.574219 210.824219 103.3125 C 210.605469 103.054688 210.261719 102.902344 209.792969 102.859375 C 209.335938 102.820313 208.976563 102.90625 208.714844 103.125 C 208.457031 103.34375 208.304688 103.695313 208.261719 104.171875 Z M 209.785156 99.636719 L 209.878906 98.746094 L 215.863281 99.292969 L 215.769531 100.183594 Z M 207.441406 99.433594 L 207.535156 98.542969 L 208.785156 98.652344 L 208.691406 99.542969 Z M 211.351563 93.433594 L 208.117188 93.074219 L 208.210938 92.183594 L 216.523438 93.105469 L 216.429688 93.996094 L 215.523438 93.902344 C 215.867188 94.121094 216.105469 94.382813 216.242188 94.683594 C 216.386719 94.988281 216.4375 95.335938 216.398438 95.730469 C 216.324219 96.386719 215.980469 96.886719 215.367188 97.230469 C 214.742188 97.574219 213.957031 97.695313 213.007813 97.589844 C 212.070313 97.488281 211.335938 97.199219 210.804688 96.730469 C 210.273438 96.253906 210.046875 95.683594 210.117188 95.027344 C 210.160156 94.632813 210.285156 94.304688 210.492188 94.042969 C 210.691406 93.785156 210.976563 93.582031 211.351563 93.433594 Z M 213.101563 96.683594 C 213.832031 96.769531 214.414063 96.699219 214.851563 96.480469 C 215.289063 96.253906 215.535156 95.902344 215.585938 95.433594 C 215.640625 94.957031 215.476563 94.566406 215.101563 94.261719 C 214.726563 93.949219 214.175781 93.753906 213.445313 93.667969 C 212.726563 93.585938 212.148438 93.652344 211.710938 93.871094 C 211.265625 94.089844 211.015625 94.441406 210.960938 94.917969 C 210.910156 95.386719 211.078125 95.777344 211.460938 96.089844 C 211.835938 96.402344 212.382813 96.601563 213.101563 96.683594 Z M 214.078125 87.414063 C 213.371094 87.332031 212.808594 87.40625 212.390625 87.632813 C 211.964844 87.851563 211.726563 88.203125 211.671875 88.679688 C 211.621094 89.148438 211.777344 89.539063 212.140625 89.851563 C 212.496094 90.15625 213.027344 90.347656 213.734375 90.429688 C 214.445313 90.515625 215.011719 90.445313 215.4375 90.226563 C 215.855469 90.007813 216.089844 89.664063 216.140625 89.195313 C 216.195313 88.71875 216.042969 88.320313 215.6875 88.007813 C 215.324219 87.695313 214.789063 87.5 214.078125 87.414063 Z M 216.5 86.789063 C 217.53125 86.914063 218.265625 87.210938 218.703125 87.679688 C 219.148438 88.148438 219.320313 88.800781 219.21875 89.632813 C 219.1875 89.945313 219.128906 90.238281 219.046875 90.507813 C 218.960938 90.78125 218.851563 91.039063 218.71875 91.289063 L 217.78125 91.179688 C 217.957031 90.929688 218.09375 90.6875 218.1875 90.445313 C 218.289063 90.195313 218.359375 89.941406 218.390625 89.679688 C 218.460938 89.109375 218.347656 88.65625 218.046875 88.320313 C 217.742188 87.988281 217.253906 87.785156 216.578125 87.710938 L 216.078125 87.648438 C 216.414063 87.878906 216.648438 88.144531 216.796875 88.445313 C 216.941406 88.75 216.988281 89.097656 216.9375 89.492188 C 216.863281 90.160156 216.527344 90.664063 215.921875 91.007813 C 215.320313 91.34375 214.554688 91.453125 213.625 91.335938 C 212.710938 91.234375 211.996094 90.945313 211.484375 90.476563 C 210.976563 90.007813 210.757813 89.441406 210.828125 88.773438 C 210.882813 88.378906 211.007813 88.050781 211.203125 87.789063 C 211.402344 87.53125 211.6875 87.328125 212.0625 87.179688 L 211.171875 87.085938 L 211.28125 86.195313 Z M 214.753906 80.097656 L 215.238281 80.160156 L 214.769531 84.238281 C 215.449219 84.269531 215.984375 84.140625 216.378906 83.847656 C 216.765625 83.558594 216.988281 83.121094 217.050781 82.535156 C 217.09375 82.203125 217.089844 81.875 217.035156 81.550781 C 216.972656 81.21875 216.878906 80.878906 216.753906 80.535156 L 217.660156 80.644531 C 217.773438 80.980469 217.851563 81.316406 217.894531 81.660156 C 217.933594 82.003906 217.933594 82.34375 217.894531 82.675781 C 217.789063 83.542969 217.433594 84.191406 216.832031 84.628906 C 216.21875 85.066406 215.433594 85.230469 214.472656 85.113281 C 213.503906 85 212.765625 84.671875 212.253906 84.128906 C 211.734375 83.589844 211.519531 82.910156 211.613281 82.097656 C 211.699219 81.378906 212.019531 80.84375 212.582031 80.488281 C 213.144531 80.125 213.871094 79.996094 214.753906 80.097656 Z M 214.378906 80.957031 C 213.828125 80.90625 213.378906 80.996094 213.035156 81.222656 C 212.683594 81.441406 212.480469 81.765625 212.425781 82.191406 C 212.363281 82.691406 212.472656 83.113281 212.753906 83.457031 C 213.035156 83.792969 213.453125 84.011719 214.003906 84.113281 Z M 215.179688 72.035156 C 215.296875 71.839844 215.488281 71.65625 215.757813 71.488281 C 216.03125 71.324219 216.40625 71.160156 216.882813 71.003906 L 219.179688 70.285156 L 219.054688 71.316406 L 216.898438 72.003906 C 216.347656 72.183594 215.972656 72.375 215.773438 72.582031 C 215.566406 72.78125 215.4375 73.066406 215.382813 73.441406 L 215.257813 74.503906 L 218.632813 74.894531 L 218.523438 75.863281 L 210.554688 74.941406 L 210.804688 72.753906 C 210.910156 71.933594 211.175781 71.34375 211.601563 70.988281 C 212.03125 70.625 212.628906 70.488281 213.398438 70.582031 C 213.898438 70.636719 214.304688 70.785156 214.617188 71.035156 C 214.921875 71.285156 215.109375 71.621094 215.179688 72.035156 Z M 211.554688 74.066406 L 214.382813 74.394531 L 214.523438 73.175781 C 214.585938 72.707031 214.515625 72.34375 214.304688 72.082031 C 214.085938 71.8125 213.742188 71.652344 213.273438 71.597656 C 212.816406 71.546875 212.457031 71.625 212.195313 71.832031 C 211.925781 72.042969 211.757813 72.378906 211.695313 72.847656 Z M 214.257813 66.375 C 214.207031 66.855469 214.375 67.257813 214.757813 67.578125 C 215.144531 67.902344 215.691406 68.105469 216.398438 68.1875 C 217.117188 68.273438 217.695313 68.199219 218.132813 67.96875 C 218.570313 67.742188 218.816406 67.386719 218.867188 66.90625 C 218.929688 66.4375 218.773438 66.042969 218.398438 65.71875 C 218.023438 65.398438 217.476563 65.195313 216.757813 65.109375 C 216.050781 65.027344 215.472656 65.101563 215.023438 65.328125 C 214.578125 65.558594 214.320313 65.90625 214.257813 66.375 Z M 213.445313 66.265625 C 213.539063 65.507813 213.890625 64.9375 214.492188 64.5625 C 215.097656 64.1875 215.890625 64.058594 216.867188 64.171875 C 217.847656 64.289063 218.59375 64.601563 219.101563 65.109375 C 219.601563 65.609375 219.804688 66.242188 219.710938 67 C 219.625 67.78125 219.28125 68.359375 218.679688 68.734375 C 218.066406 69.101563 217.269531 69.226563 216.289063 69.109375 C 215.3125 68.996094 214.570313 68.6875 214.070313 68.1875 C 213.570313 67.6875 213.363281 67.046875 213.445313 66.265625 Z M 217.285156 60.277344 C 217.203125 60.996094 217.238281 61.507813 217.394531 61.808594 C 217.550781 62.101563 217.847656 62.273438 218.285156 62.324219 C 218.628906 62.355469 218.917969 62.285156 219.144531 62.105469 C 219.375 61.917969 219.511719 61.648438 219.550781 61.292969 C 219.605469 60.792969 219.457031 60.378906 219.113281 60.042969 C 218.761719 59.699219 218.265625 59.492188 217.628906 59.417969 L 217.394531 59.402344 Z M 217.082031 58.464844 L 220.503906 58.855469 L 220.410156 59.746094 L 219.503906 59.636719 C 219.839844 59.886719 220.070313 60.175781 220.207031 60.496094 C 220.351563 60.808594 220.398438 61.183594 220.347656 61.621094 C 220.285156 62.175781 220.058594 62.597656 219.675781 62.886719 C 219.292969 63.167969 218.8125 63.273438 218.238281 63.199219 C 217.5625 63.128906 217.078125 62.871094 216.785156 62.433594 C 216.496094 61.988281 216.394531 61.355469 216.488281 60.542969 L 216.644531 59.308594 L 216.550781 59.292969 C 216.09375 59.242188 215.722656 59.335938 215.441406 59.574219 C 215.160156 59.816406 214.988281 60.179688 214.925781 60.667969 C 214.894531 60.972656 214.90625 61.273438 214.957031 61.574219 C 215 61.878906 215.089844 62.167969 215.222656 62.449219 L 214.316406 62.355469 C 214.222656 62.011719 214.160156 61.683594 214.128906 61.371094 C 214.097656 61.058594 214.097656 60.757813 214.128906 60.464844 C 214.222656 59.695313 214.515625 59.144531 215.003906 58.808594 C 215.484375 58.464844 216.175781 58.351563 217.082031 58.464844 Z M 216.046875 52.910156 L 212.828125 52.535156 L 212.9375 51.644531 L 221.234375 52.613281 L 221.125 53.503906 L 220.21875 53.394531 C 220.5625 53.625 220.800781 53.890625 220.9375 54.191406 C 221.082031 54.496094 221.128906 54.84375 221.078125 55.238281 C 221.003906 55.894531 220.660156 56.394531 220.046875 56.738281 C 219.421875 57.074219 218.636719 57.1875 217.6875 57.082031 C 216.75 56.96875 216.023438 56.675781 215.5 56.207031 C 214.96875 55.730469 214.742188 55.160156 214.8125 54.503906 C 214.867188 54.109375 214.992188 53.78125 215.1875 53.519531 C 215.386719 53.261719 215.671875 53.058594 216.046875 52.910156 Z M 217.796875 56.175781 C 218.527344 56.261719 219.109375 56.191406 219.546875 55.972656 C 219.984375 55.753906 220.230469 55.410156 220.28125 54.941406 C 220.335938 54.472656 220.171875 54.082031 219.796875 53.769531 C 219.421875 53.449219 218.871094 53.246094 218.140625 53.160156 C 217.421875 53.078125 216.84375 53.152344 216.40625 53.378906 C 215.960938 53.597656 215.710938 53.941406 215.65625 54.410156 C 215.605469 54.878906 215.773438 55.269531 216.15625 55.582031 C 216.53125 55.894531 217.078125 56.09375 217.796875 56.175781 Z M 217.796875 56.175781 "/>
<path style=" stroke:none;fill-rule:evenodd;fill:rgb(20%,20%,20%);fill-opacity:1;" d="M 211.714844 103.25 C 211.820313 103.054688 212.007813 102.867188 212.277344 102.6875 C 212.550781 102.511719 212.925781 102.339844 213.402344 102.171875 L 215.667969 101.40625 L 215.574219 102.4375 L 213.449219 103.171875 C 212.898438 103.371094 212.523438 103.574219 212.324219 103.78125 C 212.128906 103.992188 212.007813 104.289063 211.964844 104.671875 L 211.871094 105.734375 L 215.246094 106.03125 L 215.167969 107 L 207.183594 106.28125 L 207.371094 104.09375 C 207.445313 103.261719 207.691406 102.664063 208.105469 102.296875 C 208.523438 101.921875 209.117188 101.773438 209.886719 101.84375 C 210.386719 101.898438 210.800781 102.042969 211.121094 102.28125 C 211.433594 102.511719 211.632813 102.835938 211.714844 103.25 Z M 208.152344 105.390625 L 210.980469 105.640625 L 211.089844 104.421875 C 211.132813 103.945313 211.042969 103.574219 210.824219 103.3125 C 210.605469 103.054688 210.261719 102.902344 209.792969 102.859375 C 209.335938 102.820313 208.976563 102.90625 208.714844 103.125 C 208.457031 103.34375 208.304688 103.695313 208.261719 104.171875 Z M 209.785156 99.636719 L 209.878906 98.746094 L 215.863281 99.292969 L 215.769531 100.183594 Z M 207.441406 99.433594 L 207.535156 98.542969 L 208.785156 98.652344 L 208.691406 99.542969 Z M 211.351563 93.433594 L 208.117188 93.074219 L 208.210938 92.183594 L 216.523438 93.105469 L 216.429688 93.996094 L 215.523438 93.902344 C 215.867188 94.121094 216.105469 94.382813 216.242188 94.683594 C 216.386719 94.988281 216.4375 95.335938 216.398438 95.730469 C 216.324219 96.386719 215.980469 96.886719 215.367188 97.230469 C 214.742188 97.574219 213.957031 97.695313 213.007813 97.589844 C 212.070313 97.488281 211.335938 97.199219 210.804688 96.730469 C 210.273438 96.253906 210.046875 95.683594 210.117188 95.027344 C 210.160156 94.632813 210.285156 94.304688 210.492188 94.042969 C 210.691406 93.785156 210.976563 93.582031 211.351563 93.433594 Z M 213.101563 96.683594 C 213.832031 96.769531 214.414063 96.699219 214.851563 96.480469 C 215.289063 96.253906 215.535156 95.902344 215.585938 95.433594 C 215.640625 94.957031 215.476563 94.566406 215.101563 94.261719 C 214.726563 93.949219 214.175781 93.753906 213.445313 93.667969 C 212.726563 93.585938 212.148438 93.652344 211.710938 93.871094 C 211.265625 94.089844 211.015625 94.441406 210.960938 94.917969 C 210.910156 95.386719 211.078125 95.777344 211.460938 96.089844 C 211.835938 96.402344 212.382813 96.601563 213.101563 96.683594 Z M 214.078125 87.414063 C 213.371094 87.332031 212.808594 87.40625 212.390625 87.632813 C 211.964844 87.851563 211.726563 88.203125 211.671875 88.679688 C 211.621094 89.148438 211.777344 89.539063 212.140625 89.851563 C 212.496094 90.15625 213.027344 90.347656 213.734375 90.429688 C 214.445313 90.515625 215.011719 90.445313 215.4375 90.226563 C 215.855469 90.007813 216.089844 89.664063 216.140625 89.195313 C 216.195313 88.71875 216.042969 88.320313 215.6875 88.007813 C 215.324219 87.695313 214.789063 87.5 214.078125 87.414063 Z M 216.5 86.789063 C 217.53125 86.914063 218.265625 87.210938 218.703125 87.679688 C 219.148438 88.148438 219.320313 88.800781 219.21875 89.632813 C 219.1875 89.945313 219.128906 90.238281 219.046875 90.507813 C 218.960938 90.78125 218.851563 91.039063 218.71875 91.289063 L 217.78125 91.179688 C 217.957031 90.929688 218.09375 90.6875 218.1875 90.445313 C 218.289063 90.195313 218.359375 89.941406 218.390625 89.679688 C 218.460938 89.109375 218.347656 88.65625 218.046875 88.320313 C 217.742188 87.988281 217.253906 87.785156 216.578125 87.710938 L 216.078125 87.648438 C 216.414063 87.878906 216.648438 88.144531 216.796875 88.445313 C 216.941406 88.75 216.988281 89.097656 216.9375 89.492188 C 216.863281 90.160156 216.527344 90.664063 215.921875 91.007813 C 215.320313 91.34375 214.554688 91.453125 213.625 91.335938 C 212.710938 91.234375 211.996094 90.945313 211.484375 90.476563 C 210.976563 90.007813 210.757813 89.441406 210.828125 88.773438 C 210.882813 88.378906 211.007813 88.050781 211.203125 87.789063 C 211.402344 87.53125 211.6875 87.328125 212.0625 87.179688 L 211.171875 87.085938 L 211.28125 86.195313 Z M 214.753906 80.097656 L 215.238281 80.160156 L 214.769531 84.238281 C 215.449219 84.269531 215.984375 84.140625 216.378906 83.847656 C 216.765625 83.558594 216.988281 83.121094 217.050781 82.535156 C 217.09375 82.203125 217.089844 81.875 217.035156 81.550781 C 216.972656 81.21875 216.878906 80.878906 216.753906 80.535156 L 217.660156 80.644531 C 217.773438 80.980469 217.851563 81.316406 217.894531 81.660156 C 217.933594 82.003906 217.933594 82.34375 217.894531 82.675781 C 217.789063 83.542969 217.433594 84.191406 216.832031 84.628906 C 216.21875 85.066406 215.433594 85.230469 214.472656 85.113281 C 213.503906 85 212.765625 84.671875 212.253906 84.128906 C 211.734375 83.589844 211.519531 82.910156 211.613281 82.097656 C 211.699219 81.378906 212.019531 80.84375 212.582031 80.488281 C 213.144531 80.125 213.871094 79.996094 214.753906 80.097656 Z M 214.378906 80.957031 C 213.828125 80.90625 213.378906 80.996094 213.035156 81.222656 C 212.683594 81.441406 212.480469 81.765625 212.425781 82.191406 C 212.363281 82.691406 212.472656 83.113281 212.753906 83.457031 C 213.035156 83.792969 213.453125 84.011719 214.003906 84.113281 Z M 215.179688 72.035156 C 215.296875 71.839844 215.488281 71.65625 215.757813 71.488281 C 216.03125 71.324219 216.40625 71.160156 216.882813 71.003906 L 219.179688 70.285156 L 219.054688 71.316406 L 216.898438 72.003906 C 216.347656 72.183594 215.972656 72.375 215.773438 72.582031 C 215.566406 72.78125 215.4375 73.066406 215.382813 73.441406 L 215.257813 74.503906 L 218.632813 74.894531 L 218.523438 75.863281 L 210.554688 74.941406 L 210.804688 72.753906 C 210.910156 71.933594 211.175781 71.34375 211.601563 70.988281 C 212.03125 70.625 212.628906 70.488281 213.398438 70.582031 C 213.898438 70.636719 214.304688 70.785156 214.617188 71.035156 C 214.921875 71.285156 215.109375 71.621094 215.179688 72.035156 Z M 211.554688 74.066406 L 214.382813 74.394531 L 214.523438 73.175781 C 214.585938 72.707031 214.515625 72.34375 214.304688 72.082031 C 214.085938 71.8125 213.742188 71.652344 213.273438 71.597656 C 212.816406 71.546875 212.457031 71.625 212.195313 71.832031 C 211.925781 72.042969 211.757813 72.378906 211.695313 72.847656 Z M 214.257813 66.375 C 214.207031 66.855469 214.375 67.257813 214.757813 67.578125 C 215.144531 67.902344 215.691406 68.105469 216.398438 68.1875 C 217.117188 68.273438 217.695313 68.199219 218.132813 67.96875 C 218.570313 67.742188 218.816406 67.386719 218.867188 66.90625 C 218.929688 66.4375 218.773438 66.042969 218.398438 65.71875 C 218.023438 65.398438 217.476563 65.195313 216.757813 65.109375 C 216.050781 65.027344 215.472656 65.101563 215.023438 65.328125 C 214.578125 65.558594 214.320313 65.90625 214.257813 66.375 Z M 213.445313 66.265625 C 213.539063 65.507813 213.890625 64.9375 214.492188 64.5625 C 215.097656 64.1875 215.890625 64.058594 216.867188 64.171875 C 217.847656 64.289063 218.59375 64.601563 219.101563 65.109375 C 219.601563 65.609375 219.804688 66.242188 219.710938 67 C 219.625 67.78125 219.28125 68.359375 218.679688 68.734375 C 218.066406 69.101563 217.269531 69.226563 216.289063 69.109375 C 215.3125 68.996094 214.570313 68.6875 214.070313 68.1875 C 213.570313 67.6875 213.363281 67.046875 213.445313 66.265625 Z M 217.285156 60.277344 C 217.203125 60.996094 217.238281 61.507813 217.394531 61.808594 C 217.550781 62.101563 217.847656 62.273438 218.285156 62.324219 C 218.628906 62.355469 218.917969 62.285156 219.144531 62.105469 C 219.375 61.917969 219.511719 61.648438 219.550781 61.292969 C 219.605469 60.792969 219.457031 60.378906 219.113281 60.042969 C 218.761719 59.699219 218.265625 59.492188 217.628906 59.417969 L 217.394531 59.402344 Z M 217.082031 58.464844 L 220.503906 58.855469 L 220.410156 59.746094 L 219.503906 59.636719 C 219.839844 59.886719 220.070313 60.175781 220.207031 60.496094 C 220.351563 60.808594 220.398438 61.183594 220.347656 61.621094 C 220.285156 62.175781 220.058594 62.597656 219.675781 62.886719 C 219.292969 63.167969 218.8125 63.273438 218.238281 63.199219 C 217.5625 63.128906 217.078125 62.871094 216.785156 62.433594 C 216.496094 61.988281 216.394531 61.355469 216.488281 60.542969 L 216.644531 59.308594 L 216.550781 59.292969 C 216.09375 59.242188 215.722656 59.335938 215.441406 59.574219 C 215.160156 59.816406 214.988281 60.179688 214.925781 60.667969 C 214.894531 60.972656 214.90625 61.273438 214.957031 61.574219 C 215 61.878906 215.089844 62.167969 215.222656 62.449219 L 214.316406 62.355469 C 214.222656 62.011719 214.160156 61.683594 214.128906 61.371094 C 214.097656 61.058594 214.097656 60.757813 214.128906 60.464844 C 214.222656 59.695313 214.515625 59.144531 215.003906 58.808594 C 215.484375 58.464844 216.175781 58.351563 217.082031 58.464844 Z M 216.046875 52.910156 L 212.828125 52.535156 L 212.9375 51.644531 L 221.234375 52.613281 L 221.125 53.503906 L 220.21875 53.394531 C 220.5625 53.625 220.800781 53.890625 220.9375 54.191406 C 221.082031 54.496094 221.128906 54.84375 221.078125 55.238281 C 221.003906 55.894531 220.660156 56.394531 220.046875 56.738281 C 219.421875 57.074219 218.636719 57.1875 217.6875 57.082031 C 216.75 56.96875 216.023438 56.675781 215.5 56.207031 C 214.96875 55.730469 214.742188 55.160156 214.8125 54.503906 C 214.867188 54.109375 214.992188 53.78125 215.1875 53.519531 C 215.386719 53.261719 215.671875 53.058594 216.046875 52.910156 Z M 217.796875 56.175781 C 218.527344 56.261719 219.109375 56.191406 219.546875 55.972656 C 219.984375 55.753906 220.230469 55.410156 220.28125 54.941406 C 220.335938 54.472656 220.171875 54.082031 219.796875 53.769531 C 219.421875 53.449219 218.871094 53.246094 218.140625 53.160156 C 217.421875 53.078125 216.84375 53.152344 216.40625 53.378906 C 215.960938 53.597656 215.710938 53.941406 215.65625 54.410156 C 215.605469 54.878906 215.773438 55.269531 216.15625 55.582031 C 216.53125 55.894531 217.078125 56.09375 217.796875 56.175781 Z M 217.796875 56.175781 "/>
<path style="fill:none;stroke-width:3;stroke-linecap:round;stroke-linejoin:round;stroke:rgb(100%,100%,100%);stroke-opacity:1;stroke-miterlimit:10;" d="M 29.011719 60.730469 L 30.214844 65.136719 L 29.339844 65.371094 L 28.402344 61.917969 L 26.105469 62.542969 L 27.011719 65.855469 L 26.121094 66.105469 L 25.214844 62.792969 L 22.417969 63.558594 L 23.386719 67.089844 L 22.511719 67.324219 L 21.277344 62.839844 Z M 30.984375 66.636719 L 31.21875 67.496094 L 23.15625 69.699219 L 22.921875 68.839844 Z M 29.441406 74.257813 C 29.929688 74.371094 30.316406 74.546875 30.597656 74.789063 C 30.878906 75.027344 31.070313 75.34375 31.175781 75.742188 C 31.332031 76.292969 31.238281 76.773438 30.894531 77.179688 C 30.550781 77.585938 29.988281 77.898438 29.207031 78.117188 L 25.707031 79.070313 L 25.472656 78.210938 L 28.941406 77.257813 C 29.503906 77.109375 29.894531 76.914063 30.113281 76.664063 C 30.332031 76.414063 30.386719 76.109375 30.285156 75.757813 C 30.167969 75.308594 29.910156 74.996094 29.503906 74.820313 C 29.105469 74.652344 28.628906 74.648438 28.066406 74.804688 L 24.785156 75.695313 L 24.550781 74.835938 L 28.019531 73.882813 C 28.582031 73.734375 28.972656 73.53125 29.191406 73.273438 C 29.410156 73.023438 29.464844 72.71875 29.363281 72.367188 C 29.246094 71.917969 28.988281 71.609375 28.582031 71.445313 C 28.183594 71.277344 27.707031 71.273438 27.144531 71.429688 L 23.863281 72.320313 L 23.628906 71.445313 L 29.425781 69.867188 L 29.660156 70.742188 L 28.769531 70.976563 C 29.175781 71.070313 29.496094 71.230469 29.738281 71.460938 C 29.988281 71.6875 30.160156 71.992188 30.253906 72.367188 C 30.355469 72.75 30.339844 73.105469 30.207031 73.429688 C 30.070313 73.75 29.816406 74.027344 29.441406 74.257813 Z M 35.632813 85.992188 L 34.617188 86.273438 C 34.710938 85.867188 34.757813 85.492188 34.757813 85.148438 C 34.765625 84.804688 34.730469 84.484375 34.648438 84.195313 C 34.511719 83.671875 34.292969 83.304688 33.992188 83.085938 C 33.6875 82.867188 33.339844 82.816406 32.945313 82.929688 C 32.601563 83.023438 32.367188 83.183594 32.242188 83.414063 C 32.117188 83.640625 32.070313 84.03125 32.101563 84.585938 L 32.132813 85.179688 C 32.171875 85.929688 32.046875 86.523438 31.757813 86.960938 C 31.476563 87.398438 31.023438 87.699219 30.398438 87.867188 C 29.648438 88.0625 29.015625 87.992188 28.507813 87.648438 C 27.996094 87.304688 27.621094 86.695313 27.382813 85.820313 C 27.289063 85.496094 27.234375 85.132813 27.226563 84.726563 C 27.214844 84.328125 27.234375 83.914063 27.289063 83.476563 L 28.367188 83.179688 C 28.21875 83.636719 28.136719 84.0625 28.117188 84.460938 C 28.09375 84.867188 28.132813 85.242188 28.226563 85.585938 C 28.371094 86.125 28.601563 86.511719 28.914063 86.742188 C 29.234375 86.96875 29.609375 87.023438 30.039063 86.898438 C 30.421875 86.792969 30.695313 86.605469 30.851563 86.335938 C 31.007813 86.074219 31.078125 85.6875 31.070313 85.179688 L 31.039063 84.570313 C 30.984375 83.820313 31.085938 83.246094 31.335938 82.851563 C 31.585938 82.457031 32.007813 82.179688 32.601563 82.023438 C 33.277344 81.835938 33.875 81.90625 34.398438 82.226563 C 34.917969 82.550781 35.277344 83.089844 35.476563 83.851563 C 35.570313 84.183594 35.625 84.527344 35.648438 84.882813 C 35.667969 85.234375 35.664063 85.605469 35.632813 85.992188 Z M 35.964844 89.777344 L 34.261719 89.761719 L 34.246094 91.589844 L 33.480469 91.574219 L 33.496094 89.746094 L 30.230469 89.714844 C 29.738281 89.714844 29.421875 89.769531 29.277344 89.886719 C 29.140625 90.011719 29.066406 90.261719 29.058594 90.636719 L 29.058594 91.542969 L 28.230469 91.527344 L 28.230469 90.621094 C 28.242188 89.933594 28.386719 89.457031 28.667969 89.199219 C 28.957031 88.949219 29.480469 88.824219 30.230469 88.824219 L 33.496094 88.855469 L 33.511719 88.199219 L 34.277344 88.214844 L 34.261719 88.871094 L 35.964844 88.886719 Z M 33.269531 95.882813 C 33.332031 95.777344 33.378906 95.664063 33.410156 95.539063 C 33.449219 95.421875 33.472656 95.296875 33.472656 95.164063 C 33.472656 94.652344 33.289063 94.261719 32.925781 93.992188 C 32.570313 93.730469 32.054688 93.59375 31.378906 93.585938 L 28.207031 93.554688 L 28.207031 92.648438 L 34.222656 92.710938 L 34.222656 93.617188 L 33.285156 93.601563 C 33.648438 93.796875 33.914063 94.042969 34.082031 94.335938 C 34.257813 94.636719 34.347656 95 34.347656 95.429688 C 34.347656 95.492188 34.339844 95.558594 34.332031 95.632813 C 34.320313 95.714844 34.304688 95.796875 34.285156 95.882813 Z M 31.371094 101.414063 L 30.886719 101.414063 L 30.933594 97.320313 C 30.253906 97.351563 29.734375 97.527344 29.371094 97.851563 C 29.015625 98.183594 28.839844 98.640625 28.839844 99.226563 C 28.828125 99.570313 28.871094 99.902344 28.964844 100.226563 C 29.058594 100.546875 29.1875 100.871094 29.355469 101.195313 L 28.433594 101.179688 C 28.285156 100.855469 28.179688 100.527344 28.105469 100.195313 C 28.023438 99.859375 27.988281 99.523438 27.996094 99.179688 C 28.007813 98.3125 28.292969 97.632813 28.855469 97.132813 C 29.417969 96.632813 30.175781 96.386719 31.136719 96.398438 C 32.113281 96.40625 32.890625 96.652344 33.464844 97.132813 C 34.035156 97.621094 34.316406 98.273438 34.308594 99.085938 C 34.296875 99.8125 34.027344 100.386719 33.496094 100.804688 C 32.972656 101.21875 32.265625 101.421875 31.371094 101.414063 Z M 31.683594 100.523438 C 32.222656 100.523438 32.65625 100.390625 32.980469 100.132813 C 33.300781 99.882813 33.46875 99.539063 33.480469 99.101563 C 33.480469 98.601563 33.324219 98.195313 33.011719 97.882813 C 32.707031 97.578125 32.277344 97.402344 31.714844 97.351563 Z M 31.308594 107.507813 L 30.824219 107.507813 L 30.871094 103.414063 C 30.191406 103.445313 29.671875 103.621094 29.308594 103.945313 C 28.953125 104.277344 28.777344 104.734375 28.777344 105.320313 C 28.765625 105.664063 28.808594 105.996094 28.902344 106.320313 C 28.996094 106.640625 29.125 106.964844 29.292969 107.289063 L 28.371094 107.273438 C 28.222656 106.949219 28.117188 106.621094 28.042969 106.289063 C 27.960938 105.953125 27.925781 105.617188 27.933594 105.273438 C 27.945313 104.40625 28.230469 103.726563 28.792969 103.226563 C 29.355469 102.726563 30.113281 102.480469 31.074219 102.492188 C 32.050781 102.5 32.828125 102.746094 33.402344 103.226563 C 33.972656 103.714844 34.253906 104.367188 34.246094 105.179688 C 34.234375 105.90625 33.964844 106.480469 33.433594 106.898438 C 32.910156 107.3125 32.203125 107.515625 31.308594 107.507813 Z M 31.621094 106.617188 C 32.160156 106.617188 32.59375 106.484375 32.917969 106.226563 C 33.238281 105.976563 33.40625 105.632813 33.417969 105.195313 C 33.417969 104.695313 33.261719 104.289063 32.949219 103.976563 C 32.644531 103.671875 32.214844 103.496094 31.652344 103.445313 Z M 35.761719 109.898438 L 34.058594 109.882813 L 34.042969 111.710938 L 33.277344 111.695313 L 33.292969 109.867188 L 30.027344 109.835938 C 29.535156 109.835938 29.21875 109.890625 29.074219 110.007813 C 28.9375 110.132813 28.863281 110.382813 28.855469 110.757813 L 28.855469 111.664063 L 28.027344 111.648438 L 28.027344 110.742188 C 28.039063 110.054688 28.183594 109.578125 28.464844 109.320313 C 28.753906 109.070313 29.277344 108.945313 30.027344 108.945313 L 33.292969 108.976563 L 33.308594 108.320313 L 34.074219 108.335938 L 34.058594 108.992188 L 35.761719 109.007813 Z M 35.761719 109.898438 "/>
<path style=" stroke:none;fill-rule:evenodd;fill:rgb(20%,20%,20%);fill-opacity:1;" d="M 29.011719 60.730469 L 30.214844 65.136719 L 29.339844 65.371094 L 28.402344 61.917969 L 26.105469 62.542969 L 27.011719 65.855469 L 26.121094 66.105469 L 25.214844 62.792969 L 22.417969 63.558594 L 23.386719 67.089844 L 22.511719 67.324219 L 21.277344 62.839844 Z M 30.984375 66.636719 L 31.21875 67.496094 L 23.15625 69.699219 L 22.921875 68.839844 Z M 29.441406 74.257813 C 29.929688 74.371094 30.316406 74.546875 30.597656 74.789063 C 30.878906 75.027344 31.070313 75.34375 31.175781 75.742188 C 31.332031 76.292969 31.238281 76.773438 30.894531 77.179688 C 30.550781 77.585938 29.988281 77.898438 29.207031 78.117188 L 25.707031 79.070313 L 25.472656 78.210938 L 28.941406 77.257813 C 29.503906 77.109375 29.894531 76.914063 30.113281 76.664063 C 30.332031 76.414063 30.386719 76.109375 30.285156 75.757813 C 30.167969 75.308594 29.910156 74.996094 29.503906 74.820313 C 29.105469 74.652344 28.628906 74.648438 28.066406 74.804688 L 24.785156 75.695313 L 24.550781 74.835938 L 28.019531 73.882813 C 28.582031 73.734375 28.972656 73.53125 29.191406 73.273438 C 29.410156 73.023438 29.464844 72.71875 29.363281 72.367188 C 29.246094 71.917969 28.988281 71.609375 28.582031 71.445313 C 28.183594 71.277344 27.707031 71.273438 27.144531 71.429688 L 23.863281 72.320313 L 23.628906 71.445313 L 29.425781 69.867188 L 29.660156 70.742188 L 28.769531 70.976563 C 29.175781 71.070313 29.496094 71.230469 29.738281 71.460938 C 29.988281 71.6875 30.160156 71.992188 30.253906 72.367188 C 30.355469 72.75 30.339844 73.105469 30.207031 73.429688 C 30.070313 73.75 29.816406 74.027344 29.441406 74.257813 Z M 35.632813 85.992188 L 34.617188 86.273438 C 34.710938 85.867188 34.757813 85.492188 34.757813 85.148438 C 34.765625 84.804688 34.730469 84.484375 34.648438 84.195313 C 34.511719 83.671875 34.292969 83.304688 33.992188 83.085938 C 33.6875 82.867188 33.339844 82.816406 32.945313 82.929688 C 32.601563 83.023438 32.367188 83.183594 32.242188 83.414063 C 32.117188 83.640625 32.070313 84.03125 32.101563 84.585938 L 32.132813 85.179688 C 32.171875 85.929688 32.046875 86.523438 31.757813 86.960938 C 31.476563 87.398438 31.023438 87.699219 30.398438 87.867188 C 29.648438 88.0625 29.015625 87.992188 28.507813 87.648438 C 27.996094 87.304688 27.621094 86.695313 27.382813 85.820313 C 27.289063 85.496094 27.234375 85.132813 27.226563 84.726563 C 27.214844 84.328125 27.234375 83.914063 27.289063 83.476563 L 28.367188 83.179688 C 28.21875 83.636719 28.136719 84.0625 28.117188 84.460938 C 28.09375 84.867188 28.132813 85.242188 28.226563 85.585938 C 28.371094 86.125 28.601563 86.511719 28.914063 86.742188 C 29.234375 86.96875 29.609375 87.023438 30.039063 86.898438 C 30.421875 86.792969 30.695313 86.605469 30.851563 86.335938 C 31.007813 86.074219 31.078125 85.6875 31.070313 85.179688 L 31.039063 84.570313 C 30.984375 83.820313 31.085938 83.246094 31.335938 82.851563 C 31.585938 82.457031 32.007813 82.179688 32.601563 82.023438 C 33.277344 81.835938 33.875 81.90625 34.398438 82.226563 C 34.917969 82.550781 35.277344 83.089844 35.476563 83.851563 C 35.570313 84.183594 35.625 84.527344 35.648438 84.882813 C 35.667969 85.234375 35.664063 85.605469 35.632813 85.992188 Z M 35.964844 89.777344 L 34.261719 89.761719 L 34.246094 91.589844 L 33.480469 91.574219 L 33.496094 89.746094 L 30.230469 89.714844 C 29.738281 89.714844 29.421875 89.769531 29.277344 89.886719 C 29.140625 90.011719 29.066406 90.261719 29.058594 90.636719 L 29.058594 91.542969 L 28.230469 91.527344 L 28.230469 90.621094 C 28.242188 89.933594 28.386719 89.457031 28.667969 89.199219 C 28.957031 88.949219 29.480469 88.824219 30.230469 88.824219 L 33.496094 88.855469 L 33.511719 88.199219 L 34.277344 88.214844 L 34.261719 88.871094 L 35.964844 88.886719 Z M 33.269531 95.882813 C 33.332031 95.777344 33.378906 95.664063 33.410156 95.539063 C 33.449219 95.421875 33.472656 95.296875 33.472656 95.164063 C 33.472656 94.652344 33.289063 94.261719 32.925781 93.992188 C 32.570313 93.730469 32.054688 93.59375 31.378906 93.585938 L 28.207031 93.554688 L 28.207031 92.648438 L 34.222656 92.710938 L 34.222656 93.617188 L 33.285156 93.601563 C 33.648438 93.796875 33.914063 94.042969 34.082031 94.335938 C 34.257813 94.636719 34.347656 95 34.347656 95.429688 C 34.347656 95.492188 34.339844 95.558594 34.332031 95.632813 C 34.320313 95.714844 34.304688 95.796875 34.285156 95.882813 Z M 31.371094 101.414063 L 30.886719 101.414063 L 30.933594 97.320313 C 30.253906 97.351563 29.734375 97.527344 29.371094 97.851563 C 29.015625 98.183594 28.839844 98.640625 28.839844 99.226563 C 28.828125 99.570313 28.871094 99.902344 28.964844 100.226563 C 29.058594 100.546875 29.1875 100.871094 29.355469 101.195313 L 28.433594 101.179688 C 28.285156 100.855469 28.179688 100.527344 28.105469 100.195313 C 28.023438 99.859375 27.988281 99.523438 27.996094 99.179688 C 28.007813 98.3125 28.292969 97.632813 28.855469 97.132813 C 29.417969 96.632813 30.175781 96.386719 31.136719 96.398438 C 32.113281 96.40625 32.890625 96.652344 33.464844 97.132813 C 34.035156 97.621094 34.316406 98.273438 34.308594 99.085938 C 34.296875 99.8125 34.027344 100.386719 33.496094 100.804688 C 32.972656 101.21875 32.265625 101.421875 31.371094 101.414063 Z M 31.683594 100.523438 C 32.222656 100.523438 32.65625 100.390625 32.980469 100.132813 C 33.300781 99.882813 33.46875 99.539063 33.480469 99.101563 C 33.480469 98.601563 33.324219 98.195313 33.011719 97.882813 C 32.707031 97.578125 32.277344 97.402344 31.714844 97.351563 Z M 31.308594 107.507813 L 30.824219 107.507813 L 30.871094 103.414063 C 30.191406 103.445313 29.671875 103.621094 29.308594 103.945313 C 28.953125 104.277344 28.777344 104.734375 28.777344 105.320313 C 28.765625 105.664063 28.808594 105.996094 28.902344 106.320313 C 28.996094 106.640625 29.125 106.964844 29.292969 107.289063 L 28.371094 107.273438 C 28.222656 106.949219 28.117188 106.621094 28.042969 106.289063 C 27.960938 105.953125 27.925781 105.617188 27.933594 105.273438 C 27.945313 104.40625 28.230469 103.726563 28.792969 103.226563 C 29.355469 102.726563 30.113281 102.480469 31.074219 102.492188 C 32.050781 102.5 32.828125 102.746094 33.402344 103.226563 C 33.972656 103.714844 34.253906 104.367188 34.246094 105.179688 C 34.234375 105.90625 33.964844 106.480469 33.433594 106.898438 C 32.910156 107.3125 32.203125 107.515625 31.308594 107.507813 Z M 31.621094 106.617188 C 32.160156 106.617188 32.59375 106.484375 32.917969 106.226563 C 33.238281 105.976563 33.40625 105.632813 33.417969 105.195313 C 33.417969 104.695313 33.261719 104.289063 32.949219 103.976563 C 32.644531 103.671875 32.214844 103.496094 31.652344 103.445313 Z M 35.761719 109.898438 L 34.058594 109.882813 L 34.042969 111.710938 L 33.277344 111.695313 L 33.292969 109.867188 L 30.027344 109.835938 C 29.535156 109.835938 29.21875 109.890625 29.074219 110.007813 C 28.9375 110.132813 28.863281 110.382813 28.855469 110.757813 L 28.855469 111.664063 L 28.027344 111.648438 L 28.027344 110.742188 C 28.039063 110.054688 28.183594 109.578125 28.464844 109.320313 C 28.753906 109.070313 29.277344 108.945313 30.027344 108.945313 L 33.292969 108.976563 L 33.308594 108.320313 L 34.074219 108.335938 L 34.058594 108.992188 L 35.761719 109.007813 Z M 35.761719 109.898438 "/>
</g>
</svg>

