<?xml version="1.0" encoding="UTF-8"?>
<svg xmlns="http://www.w3.org/2000/svg" xmlns:xlink="http://www.w3.org/1999/xlink" width="256pt" height="256pt" viewBox="0 0 256 256" version="1.1">
<g id="surface2">
<rect x="0" y="0" width="256" height="256" style="fill:rgb(60%,70.196078%,80%);fill-opacity:1;stroke:none;"/>
<path style="fill:none;stroke-width:6;stroke-linecap:round;stroke-linejoin:round;stroke:rgb(60%,70.196078%,80%);stroke-opacity:1;stroke-miterlimit:10;" d="M 63.699219 -7 L 63.980469 21.011719 L 57.480469 224.984375 L 61.984375 262 "/>
<path style="fill:none;stroke-width:3;stroke-linecap:round;stroke-linejoin:round;stroke:rgb(100%,100%,100%);stroke-opacity:1;stroke-miterlimit:10;" d="M 54.917969 164.429688 L 55.152344 157.226563 L 56.246094 157.257813 L 56.136719 160.273438 L 64.527344 160.539063 L 64.496094 161.695313 L 56.105469 161.429688 L 56.011719 164.460938 Z M 60.535156 150.996094 L 64.832031 151.136719 L 64.800781 152.183594 L 60.550781 152.042969 C 59.875 152.023438 59.363281 152.128906 59.019531 152.355469 C 58.675781 152.585938 58.5 152.933594 58.488281 153.402344 C 58.46875 153.964844 58.65625 154.417969 59.050781 154.761719 C 59.4375 155.105469 59.980469 155.289063 60.675781 155.308594 L 64.691406 155.433594 L 64.660156 156.496094 L 54.785156 156.183594 L 54.816406 155.121094 L 58.691406 155.246094 C 58.277344 154.976563 57.96875 154.667969 57.769531 154.324219 C 57.5625 153.980469 57.46875 153.585938 57.488281 153.136719 C 57.511719 152.410156 57.78125 151.863281 58.300781 151.496094 C 58.8125 151.132813 59.558594 150.964844 60.535156 150.996094 Z M 61.226563 143.4375 L 61.789063 143.453125 L 61.648438 148.296875 C 62.460938 148.277344 63.082031 148.078125 63.507813 147.703125 C 63.9375 147.320313 64.160156 146.777344 64.179688 146.078125 C 64.191406 145.671875 64.148438 145.28125 64.054688 144.90625 C 63.960938 144.53125 63.8125 144.152344 63.601563 143.765625 L 64.710938 143.796875 C 64.875 144.183594 64.996094 144.574219 65.070313 144.96875 C 65.152344 145.367188 65.1875 145.765625 65.179688 146.171875 C 65.148438 147.195313 64.796875 147.996094 64.117188 148.578125 C 63.429688 149.152344 62.523438 149.421875 61.398438 149.390625 C 60.234375 149.351563 59.320313 149.039063 58.664063 148.453125 C 58 147.859375 57.679688 147.085938 57.710938 146.125 C 57.734375 145.261719 58.0625 144.589844 58.695313 144.109375 C 59.320313 143.632813 60.164063 143.40625 61.226563 143.4375 Z M 60.851563 144.484375 C 60.21875 144.476563 59.703125 144.621094 59.304688 144.921875 C 58.910156 145.214844 58.707031 145.621094 58.695313 146.140625 C 58.675781 146.734375 58.847656 147.214844 59.210938 147.578125 C 59.566406 147.933594 60.078125 148.148438 60.742188 148.21875 Z M 55.761719 137.769531 L 55.824219 136.222656 L 63.871094 132.691406 L 55.933594 132.441406 L 55.980469 131.316406 L 65.464844 131.613281 L 65.402344 133.175781 L 57.371094 136.707031 L 65.292969 136.957031 L 65.246094 138.066406 Z M 62.039063 126.355469 C 62.019531 127.210938 62.113281 127.804688 62.320313 128.136719 C 62.53125 128.472656 62.894531 128.648438 63.414063 128.667969 C 63.820313 128.679688 64.148438 128.566406 64.398438 128.324219 C 64.648438 128.085938 64.78125 127.753906 64.789063 127.324219 C 64.8125 126.742188 64.597656 126.273438 64.148438 125.917969 C 63.703125 125.554688 63.097656 125.355469 62.335938 125.324219 L 62.070313 125.324219 Z M 61.617188 124.246094 L 65.679688 124.371094 L 65.648438 125.433594 L 64.570313 125.402344 C 65 125.644531 65.304688 125.945313 65.492188 126.308594 C 65.6875 126.675781 65.78125 127.117188 65.773438 127.636719 C 65.75 128.292969 65.527344 128.808594 65.101563 129.183594 C 64.675781 129.558594 64.125 129.738281 63.445313 129.714844 C 62.644531 129.683594 62.050781 129.425781 61.664063 128.933594 C 61.269531 128.445313 61.085938 127.722656 61.117188 126.761719 L 61.164063 125.292969 L 61.039063 125.292969 C 60.507813 125.273438 60.09375 125.417969 59.789063 125.730469 C 59.476563 126.035156 59.316406 126.472656 59.304688 127.042969 C 59.285156 127.410156 59.320313 127.769531 59.414063 128.121094 C 59.5 128.464844 59.632813 128.800781 59.820313 129.121094 L 58.742188 129.089844 C 58.597656 128.707031 58.488281 128.332031 58.414063 127.964844 C 58.34375 127.601563 58.3125 127.246094 58.320313 126.902344 C 58.351563 125.976563 58.640625 125.292969 59.179688 124.855469 C 59.722656 124.410156 60.535156 124.207031 61.617188 124.246094 Z M 59.863281 118.3125 C 59.78125 118.429688 59.722656 118.554688 59.691406 118.6875 C 59.652344 118.824219 59.625 118.976563 59.613281 119.140625 C 59.59375 119.734375 59.792969 120.199219 60.207031 120.53125 C 60.625 120.867188 61.234375 121.042969 62.035156 121.0625 L 65.785156 121.1875 L 65.753906 122.25 L 58.644531 122.03125 L 58.675781 120.96875 L 59.785156 121 C 59.359375 120.761719 59.046875 120.464844 58.847656 120.109375 C 58.652344 119.746094 58.5625 119.3125 58.582031 118.8125 C 58.582031 118.742188 58.589844 118.664063 58.597656 118.578125 C 58.609375 118.484375 58.628906 118.382813 58.660156 118.265625 Z M 60.015625 113.5 C 59.933594 113.617188 59.875 113.742188 59.84375 113.875 C 59.804688 114.011719 59.777344 114.164063 59.765625 114.328125 C 59.746094 114.921875 59.945313 115.386719 60.359375 115.71875 C 60.777344 116.054688 61.386719 116.230469 62.1875 116.25 L 65.9375 116.375 L 65.90625 117.4375 L 58.796875 117.21875 L 58.828125 116.15625 L 59.9375 116.1875 C 59.511719 115.949219 59.199219 115.652344 59 115.296875 C 58.804688 114.933594 58.714844 114.5 58.734375 114 C 58.734375 113.929688 58.742188 113.851563 58.75 113.765625 C 58.761719 113.671875 58.78125 113.570313 58.8125 113.453125 Z M 59.839844 109.910156 C 59.832031 110.472656 60.066406 110.925781 60.542969 111.269531 C 61.023438 111.613281 61.691406 111.800781 62.542969 111.832031 C 63.398438 111.855469 64.074219 111.707031 64.574219 111.394531 C 65.066406 111.082031 65.316406 110.644531 65.324219 110.082031 C 65.347656 109.519531 65.117188 109.066406 64.636719 108.722656 C 64.160156 108.378906 63.496094 108.199219 62.652344 108.175781 C 61.808594 108.144531 61.136719 108.285156 60.636719 108.597656 C 60.128906 108.910156 59.863281 109.347656 59.839844 109.910156 Z M 58.855469 109.878906 C 58.886719 108.964844 59.242188 108.253906 59.917969 107.753906 C 60.597656 107.253906 61.519531 107.027344 62.683594 107.066406 C 63.851563 107.097656 64.757813 107.386719 65.402344 107.925781 C 66.046875 108.46875 66.355469 109.199219 66.324219 110.113281 C 66.292969 111.03125 65.941406 111.738281 65.261719 112.238281 C 64.585938 112.738281 63.664063 112.972656 62.496094 112.941406 C 61.332031 112.902344 60.425781 112.609375 59.777344 112.066406 C 59.132813 111.527344 58.824219 110.796875 58.855469 109.878906 Z M 59.164063 105.835938 L 59.195313 104.773438 L 64.789063 103.632813 L 59.289063 102.148438 L 59.320313 100.914063 L 64.914063 99.773438 L 59.398438 98.289063 L 59.445313 97.242188 L 66.492188 99.132813 L 66.460938 100.382813 L 60.585938 101.570313 L 66.367188 103.132813 L 66.320313 104.367188 Z M 59.828125 91.574219 L 60.9375 91.605469 C 60.761719 91.910156 60.625 92.214844 60.53125 92.527344 C 60.4375 92.839844 60.386719 93.167969 60.375 93.511719 C 60.355469 94.035156 60.429688 94.429688 60.59375 94.699219 C 60.761719 94.972656 61.023438 95.113281 61.375 95.121094 C 61.648438 95.132813 61.867188 95.042969 62.03125 94.855469 C 62.1875 94.667969 62.34375 94.300781 62.5 93.746094 L 62.609375 93.402344 C 62.808594 92.652344 63.074219 92.128906 63.40625 91.824219 C 63.742188 91.523438 64.195313 91.382813 64.765625 91.402344 C 65.433594 91.425781 65.953125 91.675781 66.328125 92.152344 C 66.691406 92.632813 66.863281 93.285156 66.84375 94.105469 C 66.832031 94.441406 66.785156 94.792969 66.703125 95.167969 C 66.617188 95.542969 66.492188 95.929688 66.3125 96.324219 L 65.109375 96.292969 C 65.351563 95.917969 65.53125 95.542969 65.65625 95.167969 C 65.78125 94.792969 65.851563 94.417969 65.859375 94.042969 C 65.871094 93.554688 65.789063 93.175781 65.609375 92.902344 C 65.433594 92.632813 65.171875 92.492188 64.828125 92.480469 C 64.515625 92.472656 64.273438 92.558594 64.09375 92.746094 C 63.917969 92.933594 63.742188 93.351563 63.5625 93.996094 L 63.453125 94.355469 C 63.277344 95.003906 63.027344 95.464844 62.703125 95.746094 C 62.382813 96.027344 61.945313 96.160156 61.390625 96.136719 C 60.726563 96.117188 60.21875 95.886719 59.875 95.449219 C 59.523438 95.003906 59.355469 94.386719 59.375 93.605469 C 59.398438 93.222656 59.445313 92.863281 59.515625 92.527344 C 59.589844 92.183594 59.695313 91.867188 59.828125 91.574219 Z M 59.828125 91.574219 "/>
<path style=" stroke:none;fill-rule:evenodd;fill:rgb(41.960784%,58.039216%,69.019608%);fill-opacity:1;" d="M 54.917969 164.429688 L 55.152344 157.226563 L 56.246094 157.257813 L 56.136719 160.273438 L 64.527344 160.539063 L 64.496094 161.695313 L 56.105469 161.429688 L 56.011719 164.460938 Z M 60.535156 150.996094 L 64.832031 151.136719 L 64.800781 152.183594 L 60.550781 152.042969 C 59.875 152.023438 59.363281 152.128906 59.019531 152.355469 C 58.675781 152.585938 58.5 152.933594 58.488281 153.402344 C 58.46875 153.964844 58.65625 154.417969 59.050781 154.761719 C 59.4375 155.105469 59.980469 155.289063 60.675781 155.308594 L 64.691406 155.433594 L 64.660156 156.496094 L 54.785156 156.183594 L 54.816406 155.121094 L 58.691406 155.246094 C 58.277344 154.976563 57.96875 154.667969 57.769531 154.324219 C 57.5625 153.980469 57.46875 153.585938 57.488281 153.136719 C 57.511719 152.410156 57.78125 151.863281 58.300781 151.496094 C 58.8125 151.132813 59.558594 150.964844 60.535156 150.996094 Z M 61.226563 143.4375 L 61.789063 143.453125 L 61.648438 148.296875 C 62.460938 148.277344 63.082031 148.078125 63.507813 147.703125 C 63.9375 147.320313 64.160156 146.777344 64.179688 146.078125 C 64.191406 145.671875 64.148438 145.28125 64.054688 144.90625 C 63.960938 144.53125 63.8125 144.152344 63.601563 143.765625 L 64.710938 143.796875 C 64.875 144.183594 64.996094 144.574219 65.070313 144.96875 C 65.152344 145.367188 65.1875 145.765625 65.179688 146.171875 C 65.148438 147.195313 64.796875 147.996094 64.117188 148.578125 C 63.429688 149.152344 62.523438 149.421875 61.398438 149.390625 C 60.234375 149.351563 59.320313 149.039063 58.664063 148.453125 C 58 147.859375 57.679688 147.085938 57.710938 146.125 C 57.734375 145.261719 58.0625 144.589844 58.695313 144.109375 C 59.320313 143.632813 60.164063 143.40625 61.226563 143.4375 Z M 60.851563 144.484375 C 60.21875 144.476563 59.703125 144.621094 59.304688 144.921875 C 58.910156 145.214844 58.707031 145.621094 58.695313 146.140625 C 58.675781 146.734375 58.847656 147.214844 59.210938 147.578125 C 59.566406 147.933594 60.078125 148.148438 60.742188 148.21875 Z M 55.761719 137.769531 L 55.824219 136.222656 L 63.871094 132.691406 L 55.933594 132.441406 L 55.980469 131.316406 L 65.464844 131.613281 L 65.402344 133.175781 L 57.371094 136.707031 L 65.292969 136.957031 L 65.246094 138.066406 Z M 62.039063 126.355469 C 62.019531 127.210938 62.113281 127.804688 62.320313 128.136719 C 62.53125 128.472656 62.894531 128.648438 63.414063 128.667969 C 63.820313 128.679688 64.148438 128.566406 64.398438 128.324219 C 64.648438 128.085938 64.78125 127.753906 64.789063 127.324219 C 64.8125 126.742188 64.597656 126.273438 64.148438 125.917969 C 63.703125 125.554688 63.097656 125.355469 62.335938 125.324219 L 62.070313 125.324219 Z M 61.617188 124.246094 L 65.679688 124.371094 L 65.648438 125.433594 L 64.570313 125.402344 C 65 125.644531 65.304688 125.945313 65.492188 126.308594 C 65.6875 126.675781 65.78125 127.117188 65.773438 127.636719 C 65.75 128.292969 65.527344 128.808594 65.101563 129.183594 C 64.675781 129.558594 64.125 129.738281 63.445313 129.714844 C 62.644531 129.683594 62.050781 129.425781 61.664063 128.933594 C 61.269531 128.445313 61.085938 127.722656 61.117188 126.761719 L 61.164063 125.292969 L 61.039063 125.292969 C 60.507813 125.273438 60.09375 125.417969 59.789063 125.730469 C 59.476563 126.035156 59.316406 126.472656 59.304688 127.042969 C 59.285156 127.410156 59.320313 127.769531 59.414063 128.121094 C 59.5 128.464844 59.632813 128.800781 59.820313 129.121094 L 58.742188 129.089844 C 58.597656 128.707031 58.488281 128.332031 58.414063 127.964844 C 58.34375 127.601563 58.3125 127.246094 58.320313 126.902344 C 58.351563 125.976563 58.640625 125.292969 59.179688 124.855469 C 59.722656 124.410156 60.535156 124.207031 61.617188 124.246094 Z M 59.863281 118.3125 C 59.78125 118.429688 59.722656 118.554688 59.691406 118.6875 C 59.652344 118.824219 59.625 118.976563 59.613281 119.140625 C 59.59375 119.734375 59.792969 120.199219 60.207031 120.53125 C 60.625 120.867188 61.234375 121.042969 62.035156 121.0625 L 65.785156 121.1875 L 65.753906 122.25 L 58.644531 122.03125 L 58.675781 120.96875 L 59.785156 121 C 59.359375 120.761719 59.046875 120.464844 58.847656 120.109375 C 58.652344 119.746094 58.5625 119.3125 58.582031 118.8125 C 58.582031 118.742188 58.589844 118.664063 58.597656 118.578125 C 58.609375 118.484375 58.628906 118.382813 58.660156 118.265625 Z M 60.015625 113.5 C 59.933594 113.617188 59.875 113.742188 59.84375 113.875 C 59.804688 114.011719 59.777344 114.164063 59.765625 114.328125 C 59.746094 114.921875 59.945313 115.386719 60.359375 115.71875 C 60.777344 116.054688 61.386719 116.230469 62.1875 116.25 L 65.9375 116.375 L 65.90625 117.4375 L 58.796875 117.21875 L 58.828125 116.15625 L 59.9375 116.1875 C 59.511719 115.949219 59.199219 115.652344 59 115.296875 C 58.804688 114.933594 58.714844 114.5 58.734375 114 C 58.734375 113.929688 58.742188 113.851563 58.75 113.765625 C 58.761719 113.671875 58.78125 113.570313 58.8125 113.453125 Z M 59.839844 109.910156 C 59.832031 110.472656 60.066406 110.925781 60.542969 111.269531 C 61.023438 111.613281 61.691406 111.800781 62.542969 111.832031 C 63.398438 111.855469 64.074219 111.707031 64.574219 111.394531 C 65.066406 111.082031 65.316406 110.644531 65.324219 110.082031 C 65.347656 109.519531 65.117188 109.066406 64.636719 108.722656 C 64.160156 108.378906 63.496094 108.199219 62.652344 108.175781 C 61.808594 108.144531 61.136719 108.285156 60.636719 108.597656 C 60.128906 108.910156 59.863281 109.347656 59.839844 109.910156 Z M 58.855469 109.878906 C 58.886719 108.964844 59.242188 108.253906 59.917969 107.753906 C 60.597656 107.253906 61.519531 107.027344 62.683594 107.066406 C 63.851563 107.097656 64.757813 107.386719 65.402344 107.925781 C 66.046875 108.46875 66.355469 109.199219 66.324219 110.113281 C 66.292969 111.03125 65.941406 111.738281 65.261719 112.238281 C 64.585938 112.738281 63.664063 112.972656 62.496094 112.941406 C 61.332031 112.902344 60.425781 112.609375 59.777344 112.066406 C 59.132813 111.527344 58.824219 110.796875 58.855469 109.878906 Z M 59.164063 105.835938 L 59.195313 104.773438 L 64.789063 103.632813 L 59.289063 102.148438 L 59.320313 100.914063 L 64.914063 99.773438 L 59.398438 98.289063 L 59.445313 97.242188 L 66.492188 99.132813 L 66.460938 100.382813 L 60.585938 101.570313 L 66.367188 103.132813 L 66.320313 104.367188 Z M 59.828125 91.574219 L 60.9375 91.605469 C 60.761719 91.910156 60.625 92.214844 60.53125 92.527344 C 60.4375 92.839844 60.386719 93.167969 60.375 93.511719 C 60.355469 94.035156 60.429688 94.429688 60.59375 94.699219 C 60.761719 94.972656 61.023438 95.113281 61.375 95.121094 C 61.648438 95.132813 61.867188 95.042969 62.03125 94.855469 C 62.1875 94.667969 62.34375 94.300781 62.5 93.746094 L 62.609375 93.402344 C 62.808594 92.652344 63.074219 92.128906 63.40625 91.824219 C 63.742188 91.523438 64.195313 91.382813 64.765625 91.402344 C 65.433594 91.425781 65.953125 91.675781 66.328125 92.152344 C 66.691406 92.632813 66.863281 93.285156 66.84375 94.105469 C 66.832031 94.441406 66.785156 94.792969 66.703125 95.167969 C 66.617188 95.542969 66.492188 95.929688 66.3125 96.324219 L 65.109375 96.292969 C 65.351563 95.917969 65.53125 95.542969 65.65625 95.167969 C 65.78125 94.792969 65.851563 94.417969 65.859375 94.042969 C 65.871094 93.554688 65.789063 93.175781 65.609375 92.902344 C 65.433594 92.632813 65.171875 92.492188 64.828125 92.480469 C 64.515625 92.472656 64.273438 92.558594 64.09375 92.746094 C 63.917969 92.933594 63.742188 93.351563 63.5625 93.996094 L 63.453125 94.355469 C 63.277344 95.003906 63.027344 95.464844 62.703125 95.746094 C 62.382813 96.027344 61.945313 96.160156 61.390625 96.136719 C 60.726563 96.117188 60.21875 95.886719 59.875 95.449219 C 59.523438 95.003906 59.355469 94.386719 59.375 93.605469 C 59.398438 93.222656 59.445313 92.863281 59.515625 92.527344 C 59.589844 92.183594 59.695313 91.867188 59.828125 91.574219 Z M 59.828125 91.574219 "/>
</g>
</svg>

