<?xml version="1.0" encoding="UTF-8"?>
<svg xmlns="http://www.w3.org/2000/svg" xmlns:xlink="http://www.w3.org/1999/xlink" width="256pt" height="256pt" viewBox="0 0 256 256" version="1.1">
<g id="surface2">
<rect x="0" y="0" width="256" height="256" style="fill:rgb(60%,70.196078%,80%);fill-opacity:1;stroke:none;"/>
<path style="fill:none;stroke-width:1;stroke-linecap:round;stroke-linejoin:round;stroke:rgb(70.196078%,77.647059%,83.137255%);stroke-opacity:1;stroke-miterlimit:10;" d="M -4 259 L 259 259 L 259 -4 L -4 -4 L -4 259 "/>
<path style="fill:none;stroke-width:6;stroke-linecap:round;stroke-linejoin:round;stroke:rgb(60%,70.196078%,80%);stroke-opacity:1;stroke-miterlimit:10;" d="M 124.691406 -7 L 108.265625 262 "/>
<path style="fill:none;stroke-width:3;stroke-linecap:round;stroke-linejoin:round;stroke:rgb(100%,100%,100%);stroke-opacity:1;stroke-miterlimit:10;" d="M 109.535156 165.160156 L 109.597656 164.019531 L 113.488281 164.253906 L 113.738281 160.066406 L 109.847656 159.832031 L 109.925781 158.675781 L 119.394531 159.253906 L 119.316406 160.410156 L 114.816406 160.128906 L 114.566406 164.316406 L 119.066406 164.597656 L 119.003906 165.738281 Z M 116.710938 156.941406 L 112.429688 156.675781 L 112.492188 155.628906 L 116.742188 155.894531 C 117.410156 155.9375 117.921875 155.855469 118.273438 155.644531 C 118.628906 155.425781 118.816406 155.082031 118.835938 154.613281 C 118.878906 154.050781 118.710938 153.59375 118.335938 153.238281 C 117.953125 152.886719 117.410156 152.6875 116.710938 152.644531 L 112.695313 152.394531 L 112.757813 151.332031 L 119.851563 151.769531 L 119.789063 152.832031 L 118.695313 152.769531 C 119.113281 153.042969 119.414063 153.355469 119.601563 153.707031 C 119.789063 154.050781 119.871094 154.449219 119.851563 154.894531 C 119.796875 155.625 119.507813 156.167969 118.976563 156.519531 C 118.445313 156.863281 117.691406 157.003906 116.710938 156.941406 Z M 112.414063 154.035156 Z M 114.226563 145.035156 L 110.382813 144.800781 L 110.445313 143.753906 L 120.304688 144.363281 L 120.242188 145.410156 L 119.179688 145.347656 C 119.578125 145.589844 119.867188 145.886719 120.054688 146.238281 C 120.242188 146.582031 120.324219 146.988281 120.304688 147.457031 C 120.25 148.238281 119.867188 148.855469 119.148438 149.300781 C 118.429688 149.738281 117.515625 149.921875 116.398438 149.847656 C 115.296875 149.785156 114.414063 149.496094 113.757813 148.972656 C 113.101563 148.441406 112.800781 147.785156 112.851563 147.003906 C 112.875 146.535156 113 146.140625 113.226563 145.816406 C 113.445313 145.496094 113.78125 145.234375 114.226563 145.035156 Z M 116.476563 148.753906 C 117.332031 148.808594 118.015625 148.691406 118.523438 148.410156 C 119.023438 148.121094 119.296875 147.699219 119.335938 147.144531 C 119.367188 146.59375 119.148438 146.144531 118.679688 145.800781 C 118.210938 145.449219 117.550781 145.246094 116.695313 145.191406 C 115.84375 145.140625 115.164063 145.261719 114.664063 145.550781 C 114.15625 145.832031 113.882813 146.25 113.851563 146.800781 C 113.8125 147.355469 114.023438 147.808594 114.492188 148.160156 C 114.960938 148.503906 115.625 148.703125 116.476563 148.753906 Z M 113.789063 137.703125 L 114.898438 137.765625 C 114.710938 138.058594 114.570313 138.359375 114.476563 138.671875 C 114.375 138.976563 114.3125 139.296875 114.289063 139.640625 C 114.257813 140.164063 114.328125 140.5625 114.492188 140.84375 C 114.648438 141.125 114.90625 141.277344 115.257813 141.296875 C 115.53125 141.308594 115.75 141.226563 115.914063 141.046875 C 116.070313 140.859375 116.234375 140.492188 116.398438 139.9375 L 116.507813 139.59375 C 116.738281 138.867188 117.023438 138.355469 117.367188 138.0625 C 117.710938 137.773438 118.171875 137.640625 118.742188 137.671875 C 119.410156 137.714844 119.921875 137.980469 120.273438 138.46875 C 120.625 138.960938 120.777344 139.617188 120.726563 140.4375 C 120.703125 140.773438 120.648438 141.125 120.554688 141.5 C 120.460938 141.867188 120.320313 142.246094 120.132813 142.640625 L 118.929688 142.5625 C 119.191406 142.199219 119.390625 141.835938 119.523438 141.46875 C 119.648438 141.09375 119.722656 140.71875 119.742188 140.34375 C 119.773438 139.855469 119.707031 139.476563 119.539063 139.203125 C 119.363281 138.933594 119.101563 138.789063 118.757813 138.765625 C 118.445313 138.746094 118.203125 138.824219 118.023438 139 C 117.835938 139.179688 117.644531 139.585938 117.445313 140.21875 L 117.335938 140.578125 C 117.140625 141.226563 116.878906 141.683594 116.554688 141.953125 C 116.234375 142.226563 115.796875 142.34375 115.242188 142.3125 C 114.578125 142.273438 114.078125 142.027344 113.742188 141.578125 C 113.398438 141.121094 113.25 140.5 113.289063 139.71875 C 113.320313 139.335938 113.378906 138.976563 113.460938 138.640625 C 113.546875 138.296875 113.65625 137.984375 113.789063 137.703125 Z M 114.675781 133.246094 C 114.644531 133.808594 114.863281 134.273438 115.332031 134.636719 C 115.800781 134.992188 116.457031 135.195313 117.300781 135.246094 C 118.15625 135.300781 118.839844 135.179688 119.347656 134.886719 C 119.847656 134.585938 120.113281 134.152344 120.144531 133.589844 C 120.175781 133.039063 119.957031 132.585938 119.488281 132.230469 C 119.019531 131.867188 118.363281 131.660156 117.519531 131.605469 C 116.6875 131.554688 116.015625 131.679688 115.503906 131.980469 C 114.984375 132.273438 114.707031 132.695313 114.675781 133.246094 Z M 113.691406 133.199219 C 113.746094 132.292969 114.121094 131.601563 114.816406 131.121094 C 115.503906 130.632813 116.425781 130.425781 117.582031 130.496094 C 118.75 130.570313 119.652344 130.886719 120.285156 131.449219 C 120.910156 132.011719 121.195313 132.746094 121.144531 133.652344 C 121.089844 134.570313 120.71875 135.269531 120.019531 135.746094 C 119.324219 136.226563 118.390625 136.429688 117.222656 136.355469 C 116.066406 136.285156 115.175781 135.972656 114.550781 135.417969 C 113.925781 134.855469 113.640625 134.117188 113.691406 133.199219 Z M 117.285156 123.398438 L 121.566406 123.664063 L 121.503906 124.710938 L 117.269531 124.445313 C 116.59375 124.40625 116.082031 124.5 115.738281 124.726563 C 115.386719 124.945313 115.191406 125.285156 115.160156 125.742188 C 115.128906 126.304688 115.308594 126.765625 115.691406 127.117188 C 116.066406 127.460938 116.597656 127.65625 117.285156 127.695313 L 121.300781 127.945313 L 121.238281 129.007813 L 114.144531 128.570313 L 114.207031 127.507813 L 115.316406 127.585938 C 114.910156 127.304688 114.613281 126.992188 114.425781 126.648438 C 114.230469 126.296875 114.140625 125.894531 114.160156 125.445313 C 114.214844 124.726563 114.503906 124.195313 115.035156 123.851563 C 115.558594 123.5 116.308594 123.347656 117.285156 123.398438 Z M 117.746094 113.515625 C 117.863281 113.265625 118.074219 113.039063 118.386719 112.828125 C 118.691406 112.609375 119.117188 112.398438 119.667969 112.1875 L 122.324219 111.171875 L 122.261719 112.421875 L 119.746094 113.359375 C 119.101563 113.601563 118.667969 113.84375 118.449219 114.09375 C 118.230469 114.34375 118.105469 114.695313 118.074219 115.140625 L 117.996094 116.40625 L 121.996094 116.65625 L 121.933594 117.796875 L 112.464844 117.21875 L 112.621094 114.625 C 112.675781 113.65625 112.945313 112.949219 113.433594 112.5 C 113.914063 112.042969 114.613281 111.84375 115.527344 111.90625 C 116.121094 111.9375 116.613281 112.09375 116.996094 112.375 C 117.371094 112.648438 117.621094 113.027344 117.746094 113.515625 Z M 113.589844 116.140625 L 116.949219 116.34375 L 117.042969 114.890625 C 117.074219 114.339844 116.957031 113.917969 116.683594 113.625 C 116.414063 113.324219 116.003906 113.15625 115.449219 113.125 C 114.898438 113.085938 114.476563 113.199219 114.183594 113.46875 C 113.882813 113.730469 113.714844 114.136719 113.683594 114.6875 Z M 115.316406 109.296875 L 115.378906 108.25 L 122.472656 108.6875 L 122.410156 109.734375 Z M 112.550781 109.125 L 112.613281 108.078125 L 114.097656 108.171875 L 114.035156 109.21875 Z M 115.46875 106.816406 L 115.546875 105.707031 L 121.609375 104.082031 L 115.78125 101.722656 L 115.859375 100.597656 L 122.796875 103.425781 L 122.71875 104.847656 Z M 119.53125 93.894531 L 120.09375 93.925781 L 119.796875 98.753906 C 120.609375 98.753906 121.242188 98.574219 121.6875 98.207031 C 122.125 97.84375 122.367188 97.3125 122.40625 96.613281 C 122.429688 96.21875 122.398438 95.832031 122.3125 95.457031 C 122.21875 95.074219 122.078125 94.683594 121.890625 94.285156 L 123 94.363281 C 123.144531 94.75 123.253906 95.144531 123.328125 95.550781 C 123.398438 95.949219 123.421875 96.34375 123.390625 96.738281 C 123.335938 97.761719 122.964844 98.550781 122.265625 99.113281 C 121.558594 99.667969 120.640625 99.90625 119.515625 99.832031 C 118.359375 99.769531 117.460938 99.4375 116.8125 98.832031 C 116.167969 98.21875 115.875 97.433594 115.9375 96.472656 C 115.992188 95.621094 116.339844 94.964844 116.984375 94.503906 C 117.632813 94.035156 118.480469 93.832031 119.53125 93.894531 Z M 119.125 94.941406 C 118.5 94.902344 117.984375 95.027344 117.578125 95.316406 C 117.171875 95.597656 116.953125 95.996094 116.921875 96.503906 C 116.882813 97.097656 117.039063 97.582031 117.390625 97.957031 C 117.734375 98.332031 118.234375 98.566406 118.890625 98.660156 Z M 117.707031 88.34375 C 117.625 88.449219 117.5625 88.574219 117.519531 88.71875 C 117.46875 88.855469 117.4375 89 117.425781 89.15625 C 117.394531 89.75 117.582031 90.21875 117.988281 90.5625 C 118.394531 90.90625 118.996094 91.101563 119.785156 91.140625 L 123.535156 91.375 L 123.472656 92.4375 L 116.378906 92 L 116.441406 90.9375 L 117.550781 91.015625 C 117.136719 90.765625 116.832031 90.460938 116.644531 90.09375 C 116.457031 89.730469 116.378906 89.304688 116.410156 88.8125 C 116.410156 88.742188 116.421875 88.664063 116.441406 88.578125 C 116.453125 88.484375 116.472656 88.382813 116.503906 88.265625 Z M 117.707031 88.34375 "/>
<path style=" stroke:none;fill-rule:evenodd;fill:rgb(41.960784%,58.039216%,69.019608%);fill-opacity:1;" d="M 109.535156 165.160156 L 109.597656 164.019531 L 113.488281 164.253906 L 113.738281 160.066406 L 109.847656 159.832031 L 109.925781 158.675781 L 119.394531 159.253906 L 119.316406 160.410156 L 114.816406 160.128906 L 114.566406 164.316406 L 119.066406 164.597656 L 119.003906 165.738281 Z M 116.710938 156.941406 L 112.429688 156.675781 L 112.492188 155.628906 L 116.742188 155.894531 C 117.410156 155.9375 117.921875 155.855469 118.273438 155.644531 C 118.628906 155.425781 118.816406 155.082031 118.835938 154.613281 C 118.878906 154.050781 118.710938 153.59375 118.335938 153.238281 C 117.953125 152.886719 117.410156 152.6875 116.710938 152.644531 L 112.695313 152.394531 L 112.757813 151.332031 L 119.851563 151.769531 L 119.789063 152.832031 L 118.695313 152.769531 C 119.113281 153.042969 119.414063 153.355469 119.601563 153.707031 C 119.789063 154.050781 119.871094 154.449219 119.851563 154.894531 C 119.796875 155.625 119.507813 156.167969 118.976563 156.519531 C 118.445313 156.863281 117.691406 157.003906 116.710938 156.941406 Z M 112.414063 154.035156 Z M 114.226563 145.035156 L 110.382813 144.800781 L 110.445313 143.753906 L 120.304688 144.363281 L 120.242188 145.410156 L 119.179688 145.347656 C 119.578125 145.589844 119.867188 145.886719 120.054688 146.238281 C 120.242188 146.582031 120.324219 146.988281 120.304688 147.457031 C 120.25 148.238281 119.867188 148.855469 119.148438 149.300781 C 118.429688 149.738281 117.515625 149.921875 116.398438 149.847656 C 115.296875 149.785156 114.414063 149.496094 113.757813 148.972656 C 113.101563 148.441406 112.800781 147.785156 112.851563 147.003906 C 112.875 146.535156 113 146.140625 113.226563 145.816406 C 113.445313 145.496094 113.78125 145.234375 114.226563 145.035156 Z M 116.476563 148.753906 C 117.332031 148.808594 118.015625 148.691406 118.523438 148.410156 C 119.023438 148.121094 119.296875 147.699219 119.335938 147.144531 C 119.367188 146.59375 119.148438 146.144531 118.679688 145.800781 C 118.210938 145.449219 117.550781 145.246094 116.695313 145.191406 C 115.84375 145.140625 115.164063 145.261719 114.664063 145.550781 C 114.15625 145.832031 113.882813 146.25 113.851563 146.800781 C 113.8125 147.355469 114.023438 147.808594 114.492188 148.160156 C 114.960938 148.503906 115.625 148.703125 116.476563 148.753906 Z M 113.789063 137.703125 L 114.898438 137.765625 C 114.710938 138.058594 114.570313 138.359375 114.476563 138.671875 C 114.375 138.976563 114.3125 139.296875 114.289063 139.640625 C 114.257813 140.164063 114.328125 140.5625 114.492188 140.84375 C 114.648438 141.125 114.90625 141.277344 115.257813 141.296875 C 115.53125 141.308594 115.75 141.226563 115.914063 141.046875 C 116.070313 140.859375 116.234375 140.492188 116.398438 139.9375 L 116.507813 139.59375 C 116.738281 138.867188 117.023438 138.355469 117.367188 138.0625 C 117.710938 137.773438 118.171875 137.640625 118.742188 137.671875 C 119.410156 137.714844 119.921875 137.980469 120.273438 138.46875 C 120.625 138.960938 120.777344 139.617188 120.726563 140.4375 C 120.703125 140.773438 120.648438 141.125 120.554688 141.5 C 120.460938 141.867188 120.320313 142.246094 120.132813 142.640625 L 118.929688 142.5625 C 119.191406 142.199219 119.390625 141.835938 119.523438 141.46875 C 119.648438 141.09375 119.722656 140.71875 119.742188 140.34375 C 119.773438 139.855469 119.707031 139.476563 119.539063 139.203125 C 119.363281 138.933594 119.101563 138.789063 118.757813 138.765625 C 118.445313 138.746094 118.203125 138.824219 118.023438 139 C 117.835938 139.179688 117.644531 139.585938 117.445313 140.21875 L 117.335938 140.578125 C 117.140625 141.226563 116.878906 141.683594 116.554688 141.953125 C 116.234375 142.226563 115.796875 142.34375 115.242188 142.3125 C 114.578125 142.273438 114.078125 142.027344 113.742188 141.578125 C 113.398438 141.121094 113.25 140.5 113.289063 139.71875 C 113.320313 139.335938 113.378906 138.976563 113.460938 138.640625 C 113.546875 138.296875 113.65625 137.984375 113.789063 137.703125 Z M 114.675781 133.246094 C 114.644531 133.808594 114.863281 134.273438 115.332031 134.636719 C 115.800781 134.992188 116.457031 135.195313 117.300781 135.246094 C 118.15625 135.300781 118.839844 135.179688 119.347656 134.886719 C 119.847656 134.585938 120.113281 134.152344 120.144531 133.589844 C 120.175781 133.039063 119.957031 132.585938 119.488281 132.230469 C 119.019531 131.867188 118.363281 131.660156 117.519531 131.605469 C 116.6875 131.554688 116.015625 131.679688 115.503906 131.980469 C 114.984375 132.273438 114.707031 132.695313 114.675781 133.246094 Z M 113.691406 133.199219 C 113.746094 132.292969 114.121094 131.601563 114.816406 131.121094 C 115.503906 130.632813 116.425781 130.425781 117.582031 130.496094 C 118.75 130.570313 119.652344 130.886719 120.285156 131.449219 C 120.910156 132.011719 121.195313 132.746094 121.144531 133.652344 C 121.089844 134.570313 120.71875 135.269531 120.019531 135.746094 C 119.324219 136.226563 118.390625 136.429688 117.222656 136.355469 C 116.066406 136.285156 115.175781 135.972656 114.550781 135.417969 C 113.925781 134.855469 113.640625 134.117188 113.691406 133.199219 Z M 117.285156 123.398438 L 121.566406 123.664063 L 121.503906 124.710938 L 117.269531 124.445313 C 116.59375 124.40625 116.082031 124.5 115.738281 124.726563 C 115.386719 124.945313 115.191406 125.285156 115.160156 125.742188 C 115.128906 126.304688 115.308594 126.765625 115.691406 127.117188 C 116.066406 127.460938 116.597656 127.65625 117.285156 127.695313 L 121.300781 127.945313 L 121.238281 129.007813 L 114.144531 128.570313 L 114.207031 127.507813 L 115.316406 127.585938 C 114.910156 127.304688 114.613281 126.992188 114.425781 126.648438 C 114.230469 126.296875 114.140625 125.894531 114.160156 125.445313 C 114.214844 124.726563 114.503906 124.195313 115.035156 123.851563 C 115.558594 123.5 116.308594 123.347656 117.285156 123.398438 Z M 117.746094 113.515625 C 117.863281 113.265625 118.074219 113.039063 118.386719 112.828125 C 118.691406 112.609375 119.117188 112.398438 119.667969 112.1875 L 122.324219 111.171875 L 122.261719 112.421875 L 119.746094 113.359375 C 119.101563 113.601563 118.667969 113.84375 118.449219 114.09375 C 118.230469 114.34375 118.105469 114.695313 118.074219 115.140625 L 117.996094 116.40625 L 121.996094 116.65625 L 121.933594 117.796875 L 112.464844 117.21875 L 112.621094 114.625 C 112.675781 113.65625 112.945313 112.949219 113.433594 112.5 C 113.914063 112.042969 114.613281 111.84375 115.527344 111.90625 C 116.121094 111.9375 116.613281 112.09375 116.996094 112.375 C 117.371094 112.648438 117.621094 113.027344 117.746094 113.515625 Z M 113.589844 116.140625 L 116.949219 116.34375 L 117.042969 114.890625 C 117.074219 114.339844 116.957031 113.917969 116.683594 113.625 C 116.414063 113.324219 116.003906 113.15625 115.449219 113.125 C 114.898438 113.085938 114.476563 113.199219 114.183594 113.46875 C 113.882813 113.730469 113.714844 114.136719 113.683594 114.6875 Z M 115.316406 109.296875 L 115.378906 108.25 L 122.472656 108.6875 L 122.410156 109.734375 Z M 112.550781 109.125 L 112.613281 108.078125 L 114.097656 108.171875 L 114.035156 109.21875 Z M 115.46875 106.816406 L 115.546875 105.707031 L 121.609375 104.082031 L 115.78125 101.722656 L 115.859375 100.597656 L 122.796875 103.425781 L 122.71875 104.847656 Z M 119.53125 93.894531 L 120.09375 93.925781 L 119.796875 98.753906 C 120.609375 98.753906 121.242188 98.574219 121.6875 98.207031 C 122.125 97.84375 122.367188 97.3125 122.40625 96.613281 C 122.429688 96.21875 122.398438 95.832031 122.3125 95.457031 C 122.21875 95.074219 122.078125 94.683594 121.890625 94.285156 L 123 94.363281 C 123.144531 94.75 123.253906 95.144531 123.328125 95.550781 C 123.398438 95.949219 123.421875 96.34375 123.390625 96.738281 C 123.335938 97.761719 122.964844 98.550781 122.265625 99.113281 C 121.558594 99.667969 120.640625 99.90625 119.515625 99.832031 C 118.359375 99.769531 117.460938 99.4375 116.8125 98.832031 C 116.167969 98.21875 115.875 97.433594 115.9375 96.472656 C 115.992188 95.621094 116.339844 94.964844 116.984375 94.503906 C 117.632813 94.035156 118.480469 93.832031 119.53125 93.894531 Z M 119.125 94.941406 C 118.5 94.902344 117.984375 95.027344 117.578125 95.316406 C 117.171875 95.597656 116.953125 95.996094 116.921875 96.503906 C 116.882813 97.097656 117.039063 97.582031 117.390625 97.957031 C 117.734375 98.332031 118.234375 98.566406 118.890625 98.660156 Z M 117.707031 88.34375 C 117.625 88.449219 117.5625 88.574219 117.519531 88.71875 C 117.46875 88.855469 117.4375 89 117.425781 89.15625 C 117.394531 89.75 117.582031 90.21875 117.988281 90.5625 C 118.394531 90.90625 118.996094 91.101563 119.785156 91.140625 L 123.535156 91.375 L 123.472656 92.4375 L 116.378906 92 L 116.441406 90.9375 L 117.550781 91.015625 C 117.136719 90.765625 116.832031 90.460938 116.644531 90.09375 C 116.457031 89.730469 116.378906 89.304688 116.410156 88.8125 C 116.410156 88.742188 116.421875 88.664063 116.441406 88.578125 C 116.453125 88.484375 116.472656 88.382813 116.503906 88.265625 Z M 117.707031 88.34375 "/>
</g>
</svg>

