<?xml version="1.0" encoding="UTF-8"?>
<svg xmlns="http://www.w3.org/2000/svg" xmlns:xlink="http://www.w3.org/1999/xlink" width="256pt" height="256pt" viewBox="0 0 256 256" version="1.1">
<g id="surface2">
<rect x="0" y="0" width="256" height="256" style="fill:rgb(94.901961%,93.72549%,91.372549%);fill-opacity:1;stroke:none;"/>
<path style="fill:none;stroke-width:8;stroke-linecap:round;stroke-linejoin:round;stroke:rgb(75.686275%,70.980392%,61.568627%);stroke-opacity:1;stroke-miterlimit:10;" d="M 184.140625 93.425781 L 194.460938 84.507813 "/>
<path style="fill:none;stroke-width:8;stroke-linecap:round;stroke-linejoin:round;stroke:rgb(75.686275%,70.980392%,61.568627%);stroke-opacity:1;stroke-miterlimit:10;" d="M 175.285156 5.535156 L 194.113281 25.75 "/>
<path style="fill:none;stroke-width:8;stroke-linecap:round;stroke-linejoin:round;stroke:rgb(75.686275%,70.980392%,61.568627%);stroke-opacity:1;stroke-miterlimit:10;" d="M 147.699219 196.097656 L 140.378906 202.328125 L 136.792969 207.667969 L 137.023438 211.480469 L 142.570313 219.648438 L 148.628906 223.242188 L 155.457031 226.070313 "/>
<path style="fill:none;stroke-width:8;stroke-linecap:round;stroke-linejoin:round;stroke:rgb(75.686275%,70.980392%,61.568627%);stroke-opacity:1;stroke-miterlimit:10;" d="M 210.261719 177.058594 L 202.992188 180.109375 L 177.429688 187.484375 L 147.699219 196.097656 "/>
<path style="fill:none;stroke-width:8;stroke-linecap:round;stroke-linejoin:round;stroke:rgb(75.686275%,70.980392%,61.568627%);stroke-opacity:1;stroke-miterlimit:10;" d="M 191.832031 251.910156 L 153.242188 260.207031 L 152.371094 264 "/>
<path style="fill:none;stroke-width:8;stroke-linecap:round;stroke-linejoin:round;stroke:rgb(75.686275%,70.980392%,61.568627%);stroke-opacity:1;stroke-miterlimit:10;" d="M 213.316406 208.621094 L 202.992188 180.109375 L 190.921875 137.609375 "/>
<path style="fill:none;stroke-width:8;stroke-linecap:round;stroke-linejoin:round;stroke:rgb(75.686275%,70.980392%,61.568627%);stroke-opacity:1;stroke-miterlimit:10;" d="M 147.699219 196.097656 L 134.160156 154.203125 L 131.804688 146.480469 L 133.273438 140.21875 L 134.859375 137.644531 L 145.226563 127.757813 "/>
<path style="fill:none;stroke-width:8;stroke-linecap:round;stroke-linejoin:round;stroke:rgb(75.686275%,70.980392%,61.568627%);stroke-opacity:1;stroke-miterlimit:10;" d="M 243.492188 -6.703125 L 203.535156 -9 M 190.179688 -9 L 175.285156 5.535156 L 167.457031 13.386719 L 145.085938 36.972656 "/>
<path style="fill:none;stroke-width:8;stroke-linecap:round;stroke-linejoin:round;stroke:rgb(75.686275%,70.980392%,61.568627%);stroke-opacity:1;stroke-miterlimit:10;" d="M 151.722656 -9 L 151.660156 -4.636719 L 167.457031 13.386719 "/>
<path style="fill:none;stroke-width:8;stroke-linecap:round;stroke-linejoin:round;stroke:rgb(75.686275%,70.980392%,61.568627%);stroke-opacity:1;stroke-miterlimit:10;" d="M 196.089844 264 L 194.253906 259.667969 L 191.832031 251.910156 L 177.429688 187.484375 L 162.261719 143.140625 L 158.578125 136.402344 L 153.753906 131.160156 L 145.226563 127.757813 L 134.53125 119.808594 "/>
<path style="fill:none;stroke-width:8;stroke-linecap:round;stroke-linejoin:round;stroke:rgb(75.686275%,70.980392%,61.568627%);stroke-opacity:1;stroke-miterlimit:10;" d="M 189.878906 111.78125 L 188.390625 107.027344 L 184.140625 93.425781 L 177.429688 82.90625 L 159.488281 54.074219 L 145.085938 36.972656 L 125.980469 18.726563 L 121.832031 14.53125 L 117.964844 7.789063 L 114.679688 -2.253906 L 113.835938 -9 "/>
<path style="fill:none;stroke-width:8;stroke-linecap:round;stroke-linejoin:round;stroke:rgb(75.686275%,70.980392%,61.568627%);stroke-opacity:1;stroke-miterlimit:10;" d="M 236.554688 264 L 227.320313 233.476563 L 210.261719 177.058594 L 196.675781 133.542969 L 189.878906 111.78125 L 189.707031 105.507813 L 189.707031 98.507813 L 190.707031 94.507813 L 192.457031 89.753906 L 194.460938 84.507813 L 196.707031 81.757813 L 198.457031 79.757813 L 200.207031 77.507813 L 204.460938 73.527344 L 227.925781 54.390625 L 237.152344 42.980469 L 241.371094 31.28125 L 243.492188 -6.703125 L 243.554688 -9 "/>
<path style="fill:none;stroke-width:6;stroke-linecap:round;stroke-linejoin:round;stroke:rgb(100%,100%,100%);stroke-opacity:1;stroke-miterlimit:10;" d="M 184.140625 93.425781 L 194.460938 84.507813 "/>
<path style="fill:none;stroke-width:6;stroke-linecap:round;stroke-linejoin:round;stroke:rgb(100%,100%,100%);stroke-opacity:1;stroke-miterlimit:10;" d="M 175.285156 5.535156 L 194.113281 25.75 "/>
<path style="fill:none;stroke-width:6;stroke-linecap:round;stroke-linejoin:round;stroke:rgb(100%,100%,100%);stroke-opacity:1;stroke-miterlimit:10;" d="M 147.699219 196.097656 L 140.378906 202.328125 L 136.792969 207.667969 L 137.023438 211.480469 L 142.570313 219.648438 L 148.628906 223.242188 L 155.457031 226.070313 "/>
<path style="fill:none;stroke-width:6;stroke-linecap:round;stroke-linejoin:round;stroke:rgb(100%,100%,100%);stroke-opacity:1;stroke-miterlimit:10;" d="M 210.261719 177.058594 L 202.992188 180.109375 L 177.429688 187.484375 L 147.699219 196.097656 "/>
<path style="fill:none;stroke-width:6;stroke-linecap:round;stroke-linejoin:round;stroke:rgb(100%,100%,100%);stroke-opacity:1;stroke-miterlimit:10;" d="M 191.832031 251.910156 L 153.242188 260.207031 L 152.371094 264 "/>
<path style="fill:none;stroke-width:6;stroke-linecap:round;stroke-linejoin:round;stroke:rgb(100%,100%,100%);stroke-opacity:1;stroke-miterlimit:10;" d="M 213.316406 208.621094 L 202.992188 180.109375 L 190.921875 137.609375 "/>
<path style="fill:none;stroke-width:6;stroke-linecap:round;stroke-linejoin:round;stroke:rgb(100%,100%,100%);stroke-opacity:1;stroke-miterlimit:10;" d="M 147.699219 196.097656 L 134.160156 154.203125 L 131.804688 146.480469 L 133.273438 140.21875 L 134.859375 137.644531 L 145.226563 127.757813 "/>
<path style="fill:none;stroke-width:6;stroke-linecap:round;stroke-linejoin:round;stroke:rgb(100%,100%,100%);stroke-opacity:1;stroke-miterlimit:10;" d="M 243.492188 -6.703125 L 203.535156 -9 M 190.179688 -9 L 175.285156 5.535156 L 167.457031 13.386719 L 145.085938 36.972656 "/>
<path style="fill:none;stroke-width:6;stroke-linecap:round;stroke-linejoin:round;stroke:rgb(100%,100%,100%);stroke-opacity:1;stroke-miterlimit:10;" d="M 151.722656 -9 L 151.660156 -4.636719 L 167.457031 13.386719 "/>
<path style="fill:none;stroke-width:6;stroke-linecap:round;stroke-linejoin:round;stroke:rgb(100%,100%,100%);stroke-opacity:1;stroke-miterlimit:10;" d="M 196.089844 264 L 194.253906 259.667969 L 191.832031 251.910156 L 177.429688 187.484375 L 162.261719 143.140625 L 158.578125 136.402344 L 153.753906 131.160156 L 145.226563 127.757813 L 134.53125 119.808594 "/>
<path style="fill:none;stroke-width:6;stroke-linecap:round;stroke-linejoin:round;stroke:rgb(100%,99.215686%,54.509804%);stroke-opacity:1;stroke-miterlimit:10;" d="M 189.878906 111.78125 L 188.390625 107.027344 L 184.140625 93.425781 L 177.429688 82.90625 L 159.488281 54.074219 L 145.085938 36.972656 L 125.980469 18.726563 L 121.832031 14.53125 L 117.964844 7.789063 L 114.679688 -2.253906 L 113.835938 -9 "/>
<path style="fill:none;stroke-width:6;stroke-linecap:round;stroke-linejoin:round;stroke:rgb(100%,99.215686%,54.509804%);stroke-opacity:1;stroke-miterlimit:10;" d="M 236.554688 264 L 227.320313 233.476563 L 210.261719 177.058594 L 196.675781 133.542969 L 189.878906 111.78125 L 189.707031 105.507813 L 189.707031 98.507813 L 190.707031 94.507813 L 192.457031 89.753906 L 194.460938 84.507813 L 196.707031 81.757813 L 198.457031 79.757813 L 200.207031 77.507813 L 204.460938 73.527344 L 227.925781 54.390625 L 237.152344 42.980469 L 241.371094 31.28125 L 243.492188 -6.703125 L 243.554688 -9 "/>
<path style="fill:none;stroke-width:3;stroke-linecap:round;stroke-linejoin:round;stroke:rgb(100%,100%,100%);stroke-opacity:1;stroke-miterlimit:10;" d="M 200.667969 82.929688 L 199.871094 82.242188 C 200.265625 82.085938 200.605469 81.914063 200.886719 81.726563 C 201.175781 81.539063 201.421875 81.328125 201.621094 81.101563 C 201.972656 80.703125 202.15625 80.320313 202.167969 79.945313 C 202.1875 79.578125 202.042969 79.261719 201.730469 78.992188 C 201.457031 78.761719 201.191406 78.65625 200.933594 78.679688 C 200.671875 78.699219 200.324219 78.871094 199.886719 79.195313 L 199.417969 79.554688 C 198.8125 80 198.253906 80.230469 197.730469 80.242188 C 197.210938 80.25 196.707031 80.042969 196.214844 79.617188 C 195.632813 79.105469 195.339844 78.539063 195.339844 77.914063 C 195.339844 77.296875 195.636719 76.648438 196.230469 75.960938 C 196.460938 75.699219 196.738281 75.453125 197.058594 75.226563 C 197.371094 75.007813 197.726563 74.792969 198.121094 74.585938 L 198.964844 75.320313 C 198.515625 75.453125 198.121094 75.621094 197.777344 75.820313 C 197.433594 76.027344 197.144531 76.265625 196.902344 76.539063 C 196.539063 76.953125 196.351563 77.359375 196.339844 77.757813 C 196.320313 78.152344 196.480469 78.496094 196.824219 78.789063 C 197.117188 79.046875 197.417969 79.167969 197.730469 79.148438 C 198.042969 79.136719 198.40625 78.980469 198.824219 78.679688 L 199.308594 78.304688 C 199.902344 77.855469 200.433594 77.621094 200.902344 77.601563 C 201.371094 77.589844 201.832031 77.789063 202.292969 78.195313 C 202.832031 78.664063 203.109375 79.199219 203.121094 79.804688 C 203.140625 80.40625 202.890625 81.011719 202.371094 81.617188 C 202.140625 81.875 201.886719 82.109375 201.605469 82.320313 C 201.324219 82.527344 201.011719 82.730469 200.667969 82.929688 Z M 198.742188 82.558594 L 198.273438 83.339844 L 193.679688 81.902344 L 197.132813 85.246094 L 196.601563 86.152344 L 191.992188 84.699219 L 195.460938 88.042969 L 195.007813 88.808594 L 190.554688 84.511719 L 191.101563 83.621094 L 195.929688 85.136719 L 192.304688 81.605469 L 192.835938 80.699219 Z M 191.019531 90.882813 C 191.269531 90.214844 191.351563 89.714844 191.269531 89.382813 C 191.195313 89.058594 190.957031 88.820313 190.550781 88.664063 C 190.226563 88.546875 189.929688 88.554688 189.660156 88.679688 C 189.386719 88.804688 189.191406 89.027344 189.066406 89.351563 C 188.890625 89.820313 188.9375 90.261719 189.207031 90.679688 C 189.464844 91.09375 189.894531 91.414063 190.488281 91.632813 L 190.707031 91.726563 Z M 190.785156 92.695313 L 187.566406 91.492188 L 187.863281 90.664063 L 188.707031 90.976563 C 188.449219 90.652344 188.292969 90.320313 188.238281 89.976563 C 188.1875 89.640625 188.234375 89.265625 188.378906 88.851563 C 188.578125 88.339844 188.894531 87.992188 189.332031 87.804688 C 189.757813 87.617188 190.246094 87.621094 190.800781 87.820313 C 191.433594 88.058594 191.839844 88.429688 192.019531 88.929688 C 192.207031 89.429688 192.152344 90.058594 191.863281 90.820313 L 191.425781 91.992188 L 191.503906 92.023438 C 191.941406 92.179688 192.324219 92.171875 192.660156 92.007813 C 192.992188 91.839844 193.242188 91.527344 193.410156 91.070313 C 193.511719 90.789063 193.574219 90.492188 193.597656 90.179688 C 193.628906 89.867188 193.613281 89.558594 193.550781 89.257813 L 194.394531 89.570313 C 194.414063 89.933594 194.402344 90.265625 194.363281 90.570313 C 194.320313 90.871094 194.246094 91.164063 194.144531 91.445313 C 193.871094 92.171875 193.460938 92.640625 192.910156 92.851563 C 192.355469 93.058594 191.648438 93.007813 190.785156 92.695313 Z M 189.175781 97.949219 C 189.871094 98.09375 190.441406 98.074219 190.878906 97.886719 C 191.316406 97.707031 191.585938 97.378906 191.691406 96.902344 C 191.785156 96.441406 191.664063 96.042969 191.332031 95.699219 C 191.007813 95.363281 190.496094 95.125 189.800781 94.980469 C 189.101563 94.832031 188.527344 94.847656 188.082031 95.027344 C 187.644531 95.203125 187.378906 95.519531 187.285156 95.980469 C 187.179688 96.457031 187.292969 96.871094 187.628906 97.214844 C 187.960938 97.558594 188.476563 97.800781 189.175781 97.949219 Z M 186.707031 98.339844 C 185.699219 98.121094 184.996094 97.753906 184.597656 97.246094 C 184.191406 96.746094 184.078125 96.082031 184.253906 95.261719 C 184.316406 94.957031 184.40625 94.675781 184.519531 94.417969 C 184.625 94.15625 184.753906 93.90625 184.910156 93.667969 L 185.832031 93.871094 C 185.636719 94.089844 185.472656 94.316406 185.347656 94.558594 C 185.222656 94.796875 185.136719 95.042969 185.082031 95.292969 C 184.957031 95.863281 185.035156 96.328125 185.316406 96.683594 C 185.589844 97.035156 186.050781 97.28125 186.707031 97.417969 L 187.207031 97.527344 C 186.886719 97.265625 186.671875 96.972656 186.566406 96.652344 C 186.453125 96.339844 186.433594 95.988281 186.503906 95.605469 C 186.652344 94.957031 187.042969 94.488281 187.675781 94.199219 C 188.308594 93.917969 189.082031 93.875 189.988281 94.074219 C 190.894531 94.261719 191.582031 94.609375 192.050781 95.121094 C 192.519531 95.640625 192.679688 96.222656 192.535156 96.871094 C 192.460938 97.253906 192.304688 97.566406 192.066406 97.808594 C 191.835938 98.058594 191.535156 98.238281 191.160156 98.355469 L 192.050781 98.542969 L 191.863281 99.417969 Z M 188.800781 104.328125 C 189.519531 104.328125 190.070313 104.191406 190.457031 103.921875 C 190.851563 103.660156 191.042969 103.285156 191.035156 102.796875 C 191.035156 102.328125 190.835938 101.957031 190.441406 101.6875 C 190.054688 101.425781 189.503906 101.296875 188.785156 101.296875 C 188.074219 101.304688 187.523438 101.441406 187.128906 101.703125 C 186.730469 101.972656 186.535156 102.34375 186.535156 102.8125 C 186.542969 103.300781 186.746094 103.675781 187.144531 103.9375 C 187.539063 104.207031 188.089844 104.335938 188.800781 104.328125 Z M 186.472656 105.234375 C 185.441406 105.234375 184.683594 105.023438 184.191406 104.609375 C 183.691406 104.203125 183.4375 103.578125 183.425781 102.734375 C 183.425781 102.421875 183.453125 102.125 183.503906 101.84375 C 183.558594 101.570313 183.636719 101.304688 183.738281 101.046875 L 184.691406 101.046875 C 184.535156 101.304688 184.421875 101.5625 184.347656 101.8125 C 184.277344 102.070313 184.238281 102.332031 184.238281 102.59375 C 184.25 103.175781 184.425781 103.613281 184.769531 103.90625 C 185.105469 104.195313 185.609375 104.34375 186.285156 104.34375 L 186.785156 104.34375 C 186.429688 104.15625 186.164063 103.914063 185.988281 103.625 C 185.808594 103.34375 185.714844 103.003906 185.707031 102.609375 C 185.707031 101.941406 185.988281 101.40625 186.550781 101 C 187.113281 100.59375 187.855469 100.382813 188.785156 100.375 C 189.710938 100.375 190.457031 100.578125 191.019531 100.984375 C 191.582031 101.390625 191.863281 101.925781 191.863281 102.59375 C 191.871094 102.988281 191.789063 103.328125 191.613281 103.609375 C 191.445313 103.898438 191.183594 104.140625 190.832031 104.328125 L 191.738281 104.328125 L 191.738281 105.21875 Z M 189.230469 111.703125 L 188.746094 111.734375 L 188.558594 107.640625 C 187.890625 107.710938 187.386719 107.921875 187.042969 108.265625 C 186.699219 108.617188 186.542969 109.085938 186.574219 109.671875 C 186.59375 110.015625 186.65625 110.34375 186.761719 110.65625 C 186.863281 110.96875 187.015625 111.28125 187.214844 111.59375 L 186.292969 111.640625 C 186.113281 111.328125 185.980469 111.003906 185.886719 110.671875 C 185.792969 110.335938 185.738281 110 185.730469 109.65625 C 185.691406 108.789063 185.933594 108.09375 186.464844 107.5625 C 187.003906 107.039063 187.753906 106.753906 188.714844 106.703125 C 189.691406 106.660156 190.480469 106.863281 191.074219 107.3125 C 191.675781 107.769531 191.996094 108.40625 192.027344 109.21875 C 192.066406 109.945313 191.832031 110.53125 191.324219 110.96875 C 190.824219 111.414063 190.125 111.660156 189.230469 111.703125 Z M 189.496094 110.8125 C 190.035156 110.769531 190.457031 110.609375 190.761719 110.328125 C 191.074219 110.054688 191.21875 109.703125 191.199219 109.265625 C 191.175781 108.765625 191.003906 108.367188 190.683594 108.078125 C 190.359375 107.796875 189.910156 107.648438 189.339844 107.640625 Z M 192.265625 115.753906 C 192.296875 115.636719 192.304688 115.519531 192.296875 115.394531 C 192.296875 115.269531 192.273438 115.136719 192.234375 115.003906 C 192.085938 114.511719 191.796875 114.195313 191.359375 114.050781 C 190.929688 113.914063 190.394531 113.945313 189.75 114.144531 L 186.71875 115.097656 L 186.453125 114.222656 L 192.1875 112.425781 L 192.453125 113.300781 L 191.5625 113.582031 C 191.976563 113.652344 192.3125 113.800781 192.5625 114.019531 C 192.820313 114.246094 193.015625 114.566406 193.140625 114.972656 C 193.160156 115.035156 193.175781 115.105469 193.1875 115.191406 C 193.207031 115.273438 193.222656 115.351563 193.234375 115.425781 Z M 195.320313 116.695313 L 193.679688 117.195313 L 194.210938 118.929688 L 193.492188 119.164063 L 192.960938 117.429688 L 189.835938 118.398438 C 189.367188 118.542969 189.078125 118.695313 188.976563 118.851563 C 188.882813 119.007813 188.890625 119.261719 189.007813 119.617188 L 189.273438 120.476563 L 188.476563 120.726563 L 188.210938 119.867188 C 188.011719 119.210938 188.007813 118.714844 188.195313 118.382813 C 188.390625 118.046875 188.851563 117.765625 189.570313 117.539063 L 192.695313 116.570313 L 192.492188 115.945313 L 193.210938 115.710938 L 193.414063 116.335938 L 195.054688 115.835938 Z M 194.539063 122.253906 C 194.390625 121.792969 194.078125 121.496094 193.601563 121.363281 C 193.121094 121.226563 192.539063 121.269531 191.851563 121.488281 C 191.164063 121.695313 190.664063 121.992188 190.351563 122.378906 C 190.046875 122.761719 189.96875 123.183594 190.117188 123.644531 C 190.261719 124.101563 190.570313 124.398438 191.039063 124.535156 C 191.507813 124.679688 192.085938 124.648438 192.773438 124.441406 C 193.460938 124.222656 193.960938 123.914063 194.273438 123.519531 C 194.59375 123.132813 194.683594 122.710938 194.539063 122.253906 Z M 195.335938 122.003906 C 195.5625 122.742188 195.476563 123.402344 195.070313 123.988281 C 194.671875 124.582031 194 125.027344 193.054688 125.332031 C 192.125 125.621094 191.324219 125.636719 190.648438 125.378906 C 189.980469 125.128906 189.53125 124.632813 189.304688 123.894531 C 189.0625 123.152344 189.148438 122.488281 189.554688 121.894531 C 189.96875 121.308594 190.640625 120.875 191.570313 120.582031 C 192.515625 120.28125 193.320313 120.261719 193.976563 120.519531 C 194.640625 120.769531 195.09375 121.261719 195.335938 122.003906 Z M 196.214844 125.320313 L 196.480469 126.179688 L 192.339844 128.648438 L 197.136719 128.304688 L 197.449219 129.304688 L 193.324219 131.757813 L 198.121094 131.414063 L 198.386719 132.273438 L 192.230469 132.710938 L 191.917969 131.710938 L 196.277344 129.117188 L 191.214844 129.476563 L 190.902344 128.476563 Z M 197.847656 138.5625 L 194.394531 139.640625 L 194.128906 138.796875 L 197.566406 137.71875 C 198.105469 137.550781 198.480469 137.328125 198.691406 137.046875 C 198.898438 136.773438 198.945313 136.445313 198.832031 136.0625 C 198.683594 135.601563 198.410156 135.289063 198.003906 135.125 C 197.597656 134.96875 197.113281 134.976563 196.550781 135.15625 L 193.300781 136.171875 L 193.035156 135.296875 L 198.785156 133.5 L 199.050781 134.375 L 198.144531 134.65625 C 198.558594 134.75 198.894531 134.90625 199.144531 135.125 C 199.402344 135.34375 199.589844 135.640625 199.707031 136.015625 C 199.882813 136.597656 199.816406 137.101563 199.503906 137.53125 C 199.199219 137.96875 198.648438 138.3125 197.847656 138.5625 Z M 200.484375 146.507813 C 200.460938 146.734375 200.359375 146.980469 200.171875 147.242188 C 199.992188 147.511719 199.71875 147.8125 199.34375 148.148438 L 197.546875 149.742188 L 197.234375 148.742188 L 198.921875 147.257813 C 199.359375 146.859375 199.628906 146.527344 199.734375 146.257813 C 199.835938 145.996094 199.832031 145.679688 199.71875 145.304688 L 199.390625 144.289063 L 196.15625 145.304688 L 195.859375 144.367188 L 203.515625 141.976563 L 204.171875 144.085938 C 204.421875 144.875 204.421875 145.523438 204.171875 146.023438 C 203.929688 146.523438 203.4375 146.886719 202.6875 147.117188 C 202.21875 147.273438 201.789063 147.296875 201.40625 147.195313 C 201.03125 147.089844 200.722656 146.859375 200.484375 146.507813 Z M 202.953125 143.179688 L 200.25 144.023438 L 200.609375 145.195313 C 200.753906 145.652344 200.972656 145.960938 201.265625 146.117188 C 201.566406 146.28125 201.941406 146.292969 202.390625 146.148438 C 202.835938 146.011719 203.140625 145.792969 203.296875 145.492188 C 203.453125 145.1875 203.457031 144.808594 203.3125 144.351563 Z M 203.628906 151.304688 C 203.480469 150.84375 203.164063 150.546875 202.675781 150.414063 C 202.195313 150.277344 201.613281 150.320313 200.925781 150.539063 C 200.238281 150.746094 199.738281 151.042969 199.425781 151.429688 C 199.121094 151.8125 199.042969 152.234375 199.191406 152.695313 C 199.335938 153.152344 199.644531 153.449219 200.113281 153.585938 C 200.582031 153.730469 201.160156 153.699219 201.847656 153.492188 C 202.535156 153.273438 203.039063 152.964844 203.363281 152.570313 C 203.683594 152.183594 203.773438 151.761719 203.628906 151.304688 Z M 204.410156 151.070313 C 204.636719 151.808594 204.550781 152.46875 204.144531 153.054688 C 203.746094 153.636719 203.074219 154.078125 202.128906 154.382813 C 201.199219 154.671875 200.398438 154.6875 199.722656 154.429688 C 199.054688 154.179688 198.605469 153.683594 198.378906 152.945313 C 198.136719 152.203125 198.222656 151.539063 198.628906 150.945313 C 199.042969 150.359375 199.714844 149.925781 200.644531 149.632813 C 201.589844 149.332031 202.394531 149.3125 203.050781 149.570313 C 203.714844 149.832031 204.167969 150.328125 204.410156 151.070313 Z M 203.335938 158.109375 C 203.117188 157.421875 202.875 156.972656 202.617188 156.765625 C 202.355469 156.566406 202.015625 156.53125 201.601563 156.65625 C 201.265625 156.757813 201.03125 156.941406 200.898438 157.203125 C 200.761719 157.460938 200.746094 157.757813 200.851563 158.09375 C 201.007813 158.570313 201.3125 158.894531 201.773438 159.0625 C 202.242188 159.238281 202.777344 159.234375 203.382813 159.046875 L 203.601563 158.96875 Z M 204.257813 159.6875 L 200.976563 160.71875 L 200.710938 159.875 L 201.570313 159.609375 C 201.164063 159.503906 200.828125 159.332031 200.570313 159.09375 C 200.308594 158.863281 200.117188 158.539063 199.992188 158.125 C 199.824219 157.59375 199.855469 157.117188 200.085938 156.703125 C 200.3125 156.285156 200.710938 155.992188 201.273438 155.828125 C 201.917969 155.621094 202.464844 155.664063 202.914063 155.953125 C 203.371094 156.242188 203.71875 156.773438 203.960938 157.546875 L 204.335938 158.75 L 204.429688 158.71875 C 204.867188 158.582031 205.164063 158.34375 205.320313 158 C 205.476563 157.664063 205.480469 157.265625 205.335938 156.796875 C 205.25 156.503906 205.121094 156.226563 204.945313 155.96875 C 204.777344 155.71875 204.574219 155.492188 204.335938 155.28125 L 205.195313 155.015625 C 205.433594 155.289063 205.632813 155.558594 205.789063 155.828125 C 205.945313 156.097656 206.0625 156.375 206.148438 156.65625 C 206.375 157.394531 206.335938 158.015625 206.023438 158.515625 C 205.71875 159.023438 205.132813 159.414063 204.257813 159.6875 Z M 207.453125 164.347656 L 210.5625 163.378906 L 210.828125 164.222656 L 202.84375 166.707031 L 202.578125 165.863281 L 203.4375 165.597656 C 203.03125 165.523438 202.703125 165.371094 202.453125 165.144531 C 202.203125 164.925781 202.019531 164.628906 201.90625 164.253906 C 201.707031 163.628906 201.820313 163.027344 202.25 162.457031 C 202.675781 161.894531 203.34375 161.472656 204.25 161.191406 C 205.15625 160.910156 205.945313 160.886719 206.625 161.113281 C 207.300781 161.332031 207.738281 161.753906 207.9375 162.378906 C 208.050781 162.753906 208.066406 163.101563 207.984375 163.425781 C 207.910156 163.746094 207.734375 164.054688 207.453125 164.347656 Z M 204.53125 162.082031 C 203.832031 162.300781 203.328125 162.589844 203.015625 162.957031 C 202.703125 163.332031 202.617188 163.742188 202.765625 164.191406 C 202.898438 164.648438 203.203125 164.945313 203.671875 165.082031 C 204.148438 165.226563 204.738281 165.191406 205.4375 164.972656 C 206.132813 164.753906 206.640625 164.449219 206.953125 164.066406 C 207.265625 163.679688 207.351563 163.257813 207.21875 162.800781 C 207.070313 162.351563 206.757813 162.066406 206.28125 161.941406 C 205.8125 161.816406 205.226563 161.863281 204.53125 162.082031 Z M 204.53125 162.082031 "/>
<path style=" stroke:none;fill-rule:evenodd;fill:rgb(20%,20%,20%);fill-opacity:1;" d="M 200.667969 82.929688 L 199.871094 82.242188 C 200.265625 82.085938 200.605469 81.914063 200.886719 81.726563 C 201.175781 81.539063 201.421875 81.328125 201.621094 81.101563 C 201.972656 80.703125 202.15625 80.320313 202.167969 79.945313 C 202.1875 79.578125 202.042969 79.261719 201.730469 78.992188 C 201.457031 78.761719 201.191406 78.65625 200.933594 78.679688 C 200.671875 78.699219 200.324219 78.871094 199.886719 79.195313 L 199.417969 79.554688 C 198.8125 80 198.253906 80.230469 197.730469 80.242188 C 197.210938 80.25 196.707031 80.042969 196.214844 79.617188 C 195.632813 79.105469 195.339844 78.539063 195.339844 77.914063 C 195.339844 77.296875 195.636719 76.648438 196.230469 75.960938 C 196.460938 75.699219 196.738281 75.453125 197.058594 75.226563 C 197.371094 75.007813 197.726563 74.792969 198.121094 74.585938 L 198.964844 75.320313 C 198.515625 75.453125 198.121094 75.621094 197.777344 75.820313 C 197.433594 76.027344 197.144531 76.265625 196.902344 76.539063 C 196.539063 76.953125 196.351563 77.359375 196.339844 77.757813 C 196.320313 78.152344 196.480469 78.496094 196.824219 78.789063 C 197.117188 79.046875 197.417969 79.167969 197.730469 79.148438 C 198.042969 79.136719 198.40625 78.980469 198.824219 78.679688 L 199.308594 78.304688 C 199.902344 77.855469 200.433594 77.621094 200.902344 77.601563 C 201.371094 77.589844 201.832031 77.789063 202.292969 78.195313 C 202.832031 78.664063 203.109375 79.199219 203.121094 79.804688 C 203.140625 80.40625 202.890625 81.011719 202.371094 81.617188 C 202.140625 81.875 201.886719 82.109375 201.605469 82.320313 C 201.324219 82.527344 201.011719 82.730469 200.667969 82.929688 Z M 198.742188 82.558594 L 198.273438 83.339844 L 193.679688 81.902344 L 197.132813 85.246094 L 196.601563 86.152344 L 191.992188 84.699219 L 195.460938 88.042969 L 195.007813 88.808594 L 190.554688 84.511719 L 191.101563 83.621094 L 195.929688 85.136719 L 192.304688 81.605469 L 192.835938 80.699219 Z M 191.019531 90.882813 C 191.269531 90.214844 191.351563 89.714844 191.269531 89.382813 C 191.195313 89.058594 190.957031 88.820313 190.550781 88.664063 C 190.226563 88.546875 189.929688 88.554688 189.660156 88.679688 C 189.386719 88.804688 189.191406 89.027344 189.066406 89.351563 C 188.890625 89.820313 188.9375 90.261719 189.207031 90.679688 C 189.464844 91.09375 189.894531 91.414063 190.488281 91.632813 L 190.707031 91.726563 Z M 190.785156 92.695313 L 187.566406 91.492188 L 187.863281 90.664063 L 188.707031 90.976563 C 188.449219 90.652344 188.292969 90.320313 188.238281 89.976563 C 188.1875 89.640625 188.234375 89.265625 188.378906 88.851563 C 188.578125 88.339844 188.894531 87.992188 189.332031 87.804688 C 189.757813 87.617188 190.246094 87.621094 190.800781 87.820313 C 191.433594 88.058594 191.839844 88.429688 192.019531 88.929688 C 192.207031 89.429688 192.152344 90.058594 191.863281 90.820313 L 191.425781 91.992188 L 191.503906 92.023438 C 191.941406 92.179688 192.324219 92.171875 192.660156 92.007813 C 192.992188 91.839844 193.242188 91.527344 193.410156 91.070313 C 193.511719 90.789063 193.574219 90.492188 193.597656 90.179688 C 193.628906 89.867188 193.613281 89.558594 193.550781 89.257813 L 194.394531 89.570313 C 194.414063 89.933594 194.402344 90.265625 194.363281 90.570313 C 194.320313 90.871094 194.246094 91.164063 194.144531 91.445313 C 193.871094 92.171875 193.460938 92.640625 192.910156 92.851563 C 192.355469 93.058594 191.648438 93.007813 190.785156 92.695313 Z M 189.175781 97.949219 C 189.871094 98.09375 190.441406 98.074219 190.878906 97.886719 C 191.316406 97.707031 191.585938 97.378906 191.691406 96.902344 C 191.785156 96.441406 191.664063 96.042969 191.332031 95.699219 C 191.007813 95.363281 190.496094 95.125 189.800781 94.980469 C 189.101563 94.832031 188.527344 94.847656 188.082031 95.027344 C 187.644531 95.203125 187.378906 95.519531 187.285156 95.980469 C 187.179688 96.457031 187.292969 96.871094 187.628906 97.214844 C 187.960938 97.558594 188.476563 97.800781 189.175781 97.949219 Z M 186.707031 98.339844 C 185.699219 98.121094 184.996094 97.753906 184.597656 97.246094 C 184.191406 96.746094 184.078125 96.082031 184.253906 95.261719 C 184.316406 94.957031 184.40625 94.675781 184.519531 94.417969 C 184.625 94.15625 184.753906 93.90625 184.910156 93.667969 L 185.832031 93.871094 C 185.636719 94.089844 185.472656 94.316406 185.347656 94.558594 C 185.222656 94.796875 185.136719 95.042969 185.082031 95.292969 C 184.957031 95.863281 185.035156 96.328125 185.316406 96.683594 C 185.589844 97.035156 186.050781 97.28125 186.707031 97.417969 L 187.207031 97.527344 C 186.886719 97.265625 186.671875 96.972656 186.566406 96.652344 C 186.453125 96.339844 186.433594 95.988281 186.503906 95.605469 C 186.652344 94.957031 187.042969 94.488281 187.675781 94.199219 C 188.308594 93.917969 189.082031 93.875 189.988281 94.074219 C 190.894531 94.261719 191.582031 94.609375 192.050781 95.121094 C 192.519531 95.640625 192.679688 96.222656 192.535156 96.871094 C 192.460938 97.253906 192.304688 97.566406 192.066406 97.808594 C 191.835938 98.058594 191.535156 98.238281 191.160156 98.355469 L 192.050781 98.542969 L 191.863281 99.417969 Z M 188.800781 104.328125 C 189.519531 104.328125 190.070313 104.191406 190.457031 103.921875 C 190.851563 103.660156 191.042969 103.285156 191.035156 102.796875 C 191.035156 102.328125 190.835938 101.957031 190.441406 101.6875 C 190.054688 101.425781 189.503906 101.296875 188.785156 101.296875 C 188.074219 101.304688 187.523438 101.441406 187.128906 101.703125 C 186.730469 101.972656 186.535156 102.34375 186.535156 102.8125 C 186.542969 103.300781 186.746094 103.675781 187.144531 103.9375 C 187.539063 104.207031 188.089844 104.335938 188.800781 104.328125 Z M 186.472656 105.234375 C 185.441406 105.234375 184.683594 105.023438 184.191406 104.609375 C 183.691406 104.203125 183.4375 103.578125 183.425781 102.734375 C 183.425781 102.421875 183.453125 102.125 183.503906 101.84375 C 183.558594 101.570313 183.636719 101.304688 183.738281 101.046875 L 184.691406 101.046875 C 184.535156 101.304688 184.421875 101.5625 184.347656 101.8125 C 184.277344 102.070313 184.238281 102.332031 184.238281 102.59375 C 184.25 103.175781 184.425781 103.613281 184.769531 103.90625 C 185.105469 104.195313 185.609375 104.34375 186.285156 104.34375 L 186.785156 104.34375 C 186.429688 104.15625 186.164063 103.914063 185.988281 103.625 C 185.808594 103.34375 185.714844 103.003906 185.707031 102.609375 C 185.707031 101.941406 185.988281 101.40625 186.550781 101 C 187.113281 100.59375 187.855469 100.382813 188.785156 100.375 C 189.710938 100.375 190.457031 100.578125 191.019531 100.984375 C 191.582031 101.390625 191.863281 101.925781 191.863281 102.59375 C 191.871094 102.988281 191.789063 103.328125 191.613281 103.609375 C 191.445313 103.898438 191.183594 104.140625 190.832031 104.328125 L 191.738281 104.328125 L 191.738281 105.21875 Z M 189.230469 111.703125 L 188.746094 111.734375 L 188.558594 107.640625 C 187.890625 107.710938 187.386719 107.921875 187.042969 108.265625 C 186.699219 108.617188 186.542969 109.085938 186.574219 109.671875 C 186.59375 110.015625 186.65625 110.34375 186.761719 110.65625 C 186.863281 110.96875 187.015625 111.28125 187.214844 111.59375 L 186.292969 111.640625 C 186.113281 111.328125 185.980469 111.003906 185.886719 110.671875 C 185.792969 110.335938 185.738281 110 185.730469 109.65625 C 185.691406 108.789063 185.933594 108.09375 186.464844 107.5625 C 187.003906 107.039063 187.753906 106.753906 188.714844 106.703125 C 189.691406 106.660156 190.480469 106.863281 191.074219 107.3125 C 191.675781 107.769531 191.996094 108.40625 192.027344 109.21875 C 192.066406 109.945313 191.832031 110.53125 191.324219 110.96875 C 190.824219 111.414063 190.125 111.660156 189.230469 111.703125 Z M 189.496094 110.8125 C 190.035156 110.769531 190.457031 110.609375 190.761719 110.328125 C 191.074219 110.054688 191.21875 109.703125 191.199219 109.265625 C 191.175781 108.765625 191.003906 108.367188 190.683594 108.078125 C 190.359375 107.796875 189.910156 107.648438 189.339844 107.640625 Z M 192.265625 115.753906 C 192.296875 115.636719 192.304688 115.519531 192.296875 115.394531 C 192.296875 115.269531 192.273438 115.136719 192.234375 115.003906 C 192.085938 114.511719 191.796875 114.195313 191.359375 114.050781 C 190.929688 113.914063 190.394531 113.945313 189.75 114.144531 L 186.71875 115.097656 L 186.453125 114.222656 L 192.1875 112.425781 L 192.453125 113.300781 L 191.5625 113.582031 C 191.976563 113.652344 192.3125 113.800781 192.5625 114.019531 C 192.820313 114.246094 193.015625 114.566406 193.140625 114.972656 C 193.160156 115.035156 193.175781 115.105469 193.1875 115.191406 C 193.207031 115.273438 193.222656 115.351563 193.234375 115.425781 Z M 195.320313 116.695313 L 193.679688 117.195313 L 194.210938 118.929688 L 193.492188 119.164063 L 192.960938 117.429688 L 189.835938 118.398438 C 189.367188 118.542969 189.078125 118.695313 188.976563 118.851563 C 188.882813 119.007813 188.890625 119.261719 189.007813 119.617188 L 189.273438 120.476563 L 188.476563 120.726563 L 188.210938 119.867188 C 188.011719 119.210938 188.007813 118.714844 188.195313 118.382813 C 188.390625 118.046875 188.851563 117.765625 189.570313 117.539063 L 192.695313 116.570313 L 192.492188 115.945313 L 193.210938 115.710938 L 193.414063 116.335938 L 195.054688 115.835938 Z M 194.539063 122.253906 C 194.390625 121.792969 194.078125 121.496094 193.601563 121.363281 C 193.121094 121.226563 192.539063 121.269531 191.851563 121.488281 C 191.164063 121.695313 190.664063 121.992188 190.351563 122.378906 C 190.046875 122.761719 189.96875 123.183594 190.117188 123.644531 C 190.261719 124.101563 190.570313 124.398438 191.039063 124.535156 C 191.507813 124.679688 192.085938 124.648438 192.773438 124.441406 C 193.460938 124.222656 193.960938 123.914063 194.273438 123.519531 C 194.59375 123.132813 194.683594 122.710938 194.539063 122.253906 Z M 195.335938 122.003906 C 195.5625 122.742188 195.476563 123.402344 195.070313 123.988281 C 194.671875 124.582031 194 125.027344 193.054688 125.332031 C 192.125 125.621094 191.324219 125.636719 190.648438 125.378906 C 189.980469 125.128906 189.53125 124.632813 189.304688 123.894531 C 189.0625 123.152344 189.148438 122.488281 189.554688 121.894531 C 189.96875 121.308594 190.640625 120.875 191.570313 120.582031 C 192.515625 120.28125 193.320313 120.261719 193.976563 120.519531 C 194.640625 120.769531 195.09375 121.261719 195.335938 122.003906 Z M 196.214844 125.320313 L 196.480469 126.179688 L 192.339844 128.648438 L 197.136719 128.304688 L 197.449219 129.304688 L 193.324219 131.757813 L 198.121094 131.414063 L 198.386719 132.273438 L 192.230469 132.710938 L 191.917969 131.710938 L 196.277344 129.117188 L 191.214844 129.476563 L 190.902344 128.476563 Z M 197.847656 138.5625 L 194.394531 139.640625 L 194.128906 138.796875 L 197.566406 137.71875 C 198.105469 137.550781 198.480469 137.328125 198.691406 137.046875 C 198.898438 136.773438 198.945313 136.445313 198.832031 136.0625 C 198.683594 135.601563 198.410156 135.289063 198.003906 135.125 C 197.597656 134.96875 197.113281 134.976563 196.550781 135.15625 L 193.300781 136.171875 L 193.035156 135.296875 L 198.785156 133.5 L 199.050781 134.375 L 198.144531 134.65625 C 198.558594 134.75 198.894531 134.90625 199.144531 135.125 C 199.402344 135.34375 199.589844 135.640625 199.707031 136.015625 C 199.882813 136.597656 199.816406 137.101563 199.503906 137.53125 C 199.199219 137.96875 198.648438 138.3125 197.847656 138.5625 Z M 200.484375 146.507813 C 200.460938 146.734375 200.359375 146.980469 200.171875 147.242188 C 199.992188 147.511719 199.71875 147.8125 199.34375 148.148438 L 197.546875 149.742188 L 197.234375 148.742188 L 198.921875 147.257813 C 199.359375 146.859375 199.628906 146.527344 199.734375 146.257813 C 199.835938 145.996094 199.832031 145.679688 199.71875 145.304688 L 199.390625 144.289063 L 196.15625 145.304688 L 195.859375 144.367188 L 203.515625 141.976563 L 204.171875 144.085938 C 204.421875 144.875 204.421875 145.523438 204.171875 146.023438 C 203.929688 146.523438 203.4375 146.886719 202.6875 147.117188 C 202.21875 147.273438 201.789063 147.296875 201.40625 147.195313 C 201.03125 147.089844 200.722656 146.859375 200.484375 146.507813 Z M 202.953125 143.179688 L 200.25 144.023438 L 200.609375 145.195313 C 200.753906 145.652344 200.972656 145.960938 201.265625 146.117188 C 201.566406 146.28125 201.941406 146.292969 202.390625 146.148438 C 202.835938 146.011719 203.140625 145.792969 203.296875 145.492188 C 203.453125 145.1875 203.457031 144.808594 203.3125 144.351563 Z M 203.628906 151.304688 C 203.480469 150.84375 203.164063 150.546875 202.675781 150.414063 C 202.195313 150.277344 201.613281 150.320313 200.925781 150.539063 C 200.238281 150.746094 199.738281 151.042969 199.425781 151.429688 C 199.121094 151.8125 199.042969 152.234375 199.191406 152.695313 C 199.335938 153.152344 199.644531 153.449219 200.113281 153.585938 C 200.582031 153.730469 201.160156 153.699219 201.847656 153.492188 C 202.535156 153.273438 203.039063 152.964844 203.363281 152.570313 C 203.683594 152.183594 203.773438 151.761719 203.628906 151.304688 Z M 204.410156 151.070313 C 204.636719 151.808594 204.550781 152.46875 204.144531 153.054688 C 203.746094 153.636719 203.074219 154.078125 202.128906 154.382813 C 201.199219 154.671875 200.398438 154.6875 199.722656 154.429688 C 199.054688 154.179688 198.605469 153.683594 198.378906 152.945313 C 198.136719 152.203125 198.222656 151.539063 198.628906 150.945313 C 199.042969 150.359375 199.714844 149.925781 200.644531 149.632813 C 201.589844 149.332031 202.394531 149.3125 203.050781 149.570313 C 203.714844 149.832031 204.167969 150.328125 204.410156 151.070313 Z M 203.335938 158.109375 C 203.117188 157.421875 202.875 156.972656 202.617188 156.765625 C 202.355469 156.566406 202.015625 156.53125 201.601563 156.65625 C 201.265625 156.757813 201.03125 156.941406 200.898438 157.203125 C 200.761719 157.460938 200.746094 157.757813 200.851563 158.09375 C 201.007813 158.570313 201.3125 158.894531 201.773438 159.0625 C 202.242188 159.238281 202.777344 159.234375 203.382813 159.046875 L 203.601563 158.96875 Z M 204.257813 159.6875 L 200.976563 160.71875 L 200.710938 159.875 L 201.570313 159.609375 C 201.164063 159.503906 200.828125 159.332031 200.570313 159.09375 C 200.308594 158.863281 200.117188 158.539063 199.992188 158.125 C 199.824219 157.59375 199.855469 157.117188 200.085938 156.703125 C 200.3125 156.285156 200.710938 155.992188 201.273438 155.828125 C 201.917969 155.621094 202.464844 155.664063 202.914063 155.953125 C 203.371094 156.242188 203.71875 156.773438 203.960938 157.546875 L 204.335938 158.75 L 204.429688 158.71875 C 204.867188 158.582031 205.164063 158.34375 205.320313 158 C 205.476563 157.664063 205.480469 157.265625 205.335938 156.796875 C 205.25 156.503906 205.121094 156.226563 204.945313 155.96875 C 204.777344 155.71875 204.574219 155.492188 204.335938 155.28125 L 205.195313 155.015625 C 205.433594 155.289063 205.632813 155.558594 205.789063 155.828125 C 205.945313 156.097656 206.0625 156.375 206.148438 156.65625 C 206.375 157.394531 206.335938 158.015625 206.023438 158.515625 C 205.71875 159.023438 205.132813 159.414063 204.257813 159.6875 Z M 207.453125 164.347656 L 210.5625 163.378906 L 210.828125 164.222656 L 202.84375 166.707031 L 202.578125 165.863281 L 203.4375 165.597656 C 203.03125 165.523438 202.703125 165.371094 202.453125 165.144531 C 202.203125 164.925781 202.019531 164.628906 201.90625 164.253906 C 201.707031 163.628906 201.820313 163.027344 202.25 162.457031 C 202.675781 161.894531 203.34375 161.472656 204.25 161.191406 C 205.15625 160.910156 205.945313 160.886719 206.625 161.113281 C 207.300781 161.332031 207.738281 161.753906 207.9375 162.378906 C 208.050781 162.753906 208.066406 163.101563 207.984375 163.425781 C 207.910156 163.746094 207.734375 164.054688 207.453125 164.347656 Z M 204.53125 162.082031 C 203.832031 162.300781 203.328125 162.589844 203.015625 162.957031 C 202.703125 163.332031 202.617188 163.742188 202.765625 164.191406 C 202.898438 164.648438 203.203125 164.945313 203.671875 165.082031 C 204.148438 165.226563 204.738281 165.191406 205.4375 164.972656 C 206.132813 164.753906 206.640625 164.449219 206.953125 164.066406 C 207.265625 163.679688 207.351563 163.257813 207.21875 162.800781 C 207.070313 162.351563 206.757813 162.066406 206.28125 161.941406 C 205.8125 161.816406 205.226563 161.863281 204.53125 162.082031 Z M 204.53125 162.082031 "/>
<path style="fill:none;stroke-width:3;stroke-linecap:round;stroke-linejoin:round;stroke:rgb(100%,100%,100%);stroke-opacity:1;stroke-miterlimit:10;" d="M 133.046875 25.71875 L 131.015625 27.84375 L 132.15625 28.921875 C 132.53125 29.285156 132.890625 29.46875 133.234375 29.46875 C 133.585938 29.476563 133.9375 29.300781 134.28125 28.9375 C 134.625 28.570313 134.785156 28.210938 134.765625 27.859375 C 134.753906 27.515625 134.5625 27.160156 134.1875 26.796875 Z M 135.328125 23.328125 L 133.65625 25.078125 L 134.703125 26.078125 C 135.046875 26.414063 135.375 26.589844 135.6875 26.609375 C 136 26.621094 136.296875 26.480469 136.578125 26.1875 C 136.859375 25.898438 136.976563 25.601563 136.9375 25.296875 C 136.90625 24.984375 136.71875 24.664063 136.375 24.328125 Z M 135.234375 22.015625 L 137.046875 23.734375 C 137.578125 24.246094 137.867188 24.765625 137.921875 25.296875 C 137.984375 25.828125 137.796875 26.324219 137.359375 26.78125 C 137.015625 27.136719 136.664063 27.34375 136.3125 27.40625 C 135.96875 27.476563 135.628906 27.398438 135.296875 27.171875 C 135.566406 27.585938 135.671875 28.015625 135.609375 28.453125 C 135.546875 28.898438 135.328125 29.320313 134.953125 29.71875 C 134.460938 30.238281 133.921875 30.488281 133.328125 30.46875 C 132.742188 30.445313 132.160156 30.15625 131.578125 29.59375 L 129.703125 27.8125 Z M 138.460938 31.988281 C 137.9375 31.488281 137.511719 31.214844 137.179688 31.160156 C 136.855469 31.109375 136.542969 31.238281 136.242188 31.550781 C 136 31.800781 135.886719 32.070313 135.898438 32.363281 C 135.90625 32.652344 136.039063 32.925781 136.289063 33.175781 C 136.652344 33.519531 137.074219 33.648438 137.554688 33.566406 C 138.03125 33.492188 138.496094 33.226563 138.945313 32.769531 L 139.101563 32.597656 Z M 140.023438 32.925781 L 137.648438 35.410156 L 137.007813 34.785156 L 137.632813 34.128906 C 137.234375 34.242188 136.867188 34.257813 136.523438 34.175781 C 136.1875 34.089844 135.859375 33.898438 135.539063 33.597656 C 135.140625 33.222656 134.945313 32.792969 134.945313 32.316406 C 134.945313 31.847656 135.140625 31.402344 135.539063 30.972656 C 136.007813 30.484375 136.507813 30.253906 137.039063 30.285156 C 137.578125 30.316406 138.140625 30.613281 138.726563 31.175781 L 139.632813 32.035156 L 139.695313 31.972656 C 140.007813 31.640625 140.152344 31.292969 140.132813 30.925781 C 140.109375 30.550781 139.921875 30.199219 139.570313 29.863281 C 139.351563 29.65625 139.101563 29.480469 138.820313 29.332031 C 138.546875 29.1875 138.261719 29.089844 137.960938 29.035156 L 138.585938 28.378906 C 138.929688 28.496094 139.230469 28.636719 139.492188 28.800781 C 139.761719 28.957031 140 29.136719 140.210938 29.332031 C 140.773438 29.875 141.039063 30.441406 141.007813 31.035156 C 140.984375 31.628906 140.65625 32.257813 140.023438 32.925781 Z M 144.734375 30.613281 L 145.390625 31.238281 L 139.625 37.285156 L 138.96875 36.660156 Z M 146.929688 37.5625 L 149.304688 35.359375 L 149.914063 36.015625 L 143.789063 41.703125 L 143.179688 41.046875 L 143.835938 40.4375 C 143.449219 40.539063 143.09375 40.546875 142.773438 40.453125 C 142.449219 40.367188 142.152344 40.179688 141.882813 39.890625 C 141.445313 39.410156 141.292969 38.820313 141.429688 38.125 C 141.574219 37.429688 141.996094 36.757813 142.695313 36.109375 C 143.382813 35.464844 144.078125 35.101563 144.789063 35.015625 C 145.496094 34.921875 146.070313 35.117188 146.507813 35.59375 C 146.777344 35.886719 146.945313 36.195313 147.007813 36.515625 C 147.078125 36.839844 147.054688 37.1875 146.929688 37.5625 Z M 143.320313 36.78125 C 142.777344 37.28125 142.449219 37.765625 142.335938 38.234375 C 142.21875 38.710938 142.320313 39.125 142.632813 39.46875 C 142.964844 39.820313 143.371094 39.957031 143.851563 39.875 C 144.328125 39.789063 144.839844 39.5 145.382813 39 C 145.914063 38.507813 146.234375 38.023438 146.351563 37.546875 C 146.476563 37.070313 146.371094 36.652344 146.039063 36.296875 C 145.726563 35.953125 145.324219 35.828125 144.835938 35.921875 C 144.355469 36.007813 143.851563 36.292969 143.320313 36.78125 Z M 149.117188 38.636719 L 149.695313 39.324219 L 146.835938 43.199219 L 151.132813 41.027344 L 151.804688 41.824219 L 148.929688 45.683594 L 153.226563 43.527344 L 153.804688 44.199219 L 148.289063 46.996094 L 147.617188 46.183594 L 150.648438 42.105469 L 146.117188 44.402344 L 145.429688 43.589844 Z M 154.675781 45.234375 L 155.238281 45.90625 L 150.644531 49.78125 L 150.082031 49.109375 Z M 156.472656 43.71875 L 157.035156 44.390625 L 156.082031 45.203125 L 155.519531 44.53125 Z M 157.507813 52.320313 L 154.742188 54.648438 L 154.164063 53.976563 L 156.914063 51.664063 C 157.351563 51.289063 157.609375 50.933594 157.695313 50.601563 C 157.777344 50.269531 157.695313 49.953125 157.445313 49.648438 C 157.132813 49.285156 156.757813 49.109375 156.320313 49.117188 C 155.890625 49.117188 155.453125 49.304688 155.007813 49.679688 L 152.398438 51.867188 L 151.820313 51.179688 L 156.414063 47.304688 L 156.992188 47.992188 L 156.289063 48.601563 C 156.695313 48.519531 157.054688 48.53125 157.367188 48.632813 C 157.6875 48.738281 157.976563 48.941406 158.226563 49.242188 C 158.621094 49.710938 158.761719 50.207031 158.648438 50.726563 C 158.53125 51.246094 158.152344 51.777344 157.507813 52.320313 Z M 162.332031 59.101563 C 162.371094 59.320313 162.335938 59.578125 162.222656 59.882813 C 162.105469 60.183594 161.914063 60.542969 161.644531 60.960938 L 160.300781 62.945313 L 159.753906 62.054688 L 161.003906 60.179688 C 161.324219 59.699219 161.503906 59.3125 161.535156 59.023438 C 161.574219 58.742188 161.492188 58.4375 161.285156 58.117188 L 160.722656 57.210938 L 157.847656 59.007813 L 157.332031 58.179688 L 164.144531 53.945313 L 165.300781 55.804688 C 165.746094 56.515625 165.914063 57.140625 165.800781 57.679688 C 165.683594 58.230469 165.292969 58.710938 164.628906 59.117188 C 164.199219 59.386719 163.789063 59.515625 163.394531 59.507813 C 163.007813 59.507813 162.652344 59.371094 162.332031 59.101563 Z M 163.894531 55.242188 L 161.488281 56.742188 L 162.128906 57.773438 C 162.386719 58.179688 162.679688 58.417969 163.003906 58.492188 C 163.335938 58.574219 163.699219 58.492188 164.097656 58.242188 C 164.492188 57.992188 164.726563 57.699219 164.800781 57.367188 C 164.882813 57.046875 164.792969 56.679688 164.535156 56.273438 Z M 166.589844 62.953125 C 166.328125 62.546875 165.949219 62.339844 165.449219 62.328125 C 164.949219 62.308594 164.390625 62.492188 163.777344 62.875 C 163.160156 63.25 162.75 63.660156 162.542969 64.109375 C 162.34375 64.566406 162.375 65 162.636719 65.40625 C 162.886719 65.8125 163.253906 66.019531 163.746094 66.03125 C 164.246094 66.050781 164.800781 65.875 165.417969 65.5 C 166.03125 65.113281 166.441406 64.691406 166.652344 64.234375 C 166.859375 63.785156 166.839844 63.359375 166.589844 62.953125 Z M 167.292969 62.515625 C 167.699219 63.171875 167.78125 63.832031 167.542969 64.5 C 167.300781 65.164063 166.761719 65.765625 165.917969 66.296875 C 165.082031 66.804688 164.3125 67.019531 163.605469 66.9375 C 162.894531 66.863281 162.339844 66.5 161.933594 65.84375 C 161.515625 65.175781 161.425781 64.507813 161.667969 63.84375 C 161.90625 63.179688 162.441406 62.589844 163.277344 62.078125 C 164.121094 61.546875 164.894531 61.324219 165.605469 61.40625 C 166.3125 61.480469 166.875 61.851563 167.292969 62.515625 Z M 168.019531 69.589844 C 167.632813 68.984375 167.285156 68.613281 166.972656 68.480469 C 166.667969 68.355469 166.332031 68.40625 165.957031 68.636719 C 165.664063 68.8125 165.488281 69.042969 165.425781 69.324219 C 165.363281 69.613281 165.425781 69.90625 165.613281 70.199219 C 165.882813 70.625 166.257813 70.863281 166.738281 70.917969 C 167.226563 70.96875 167.742188 70.824219 168.285156 70.480469 L 168.488281 70.355469 Z M 169.300781 70.902344 L 166.378906 72.714844 L 165.910156 71.964844 L 166.675781 71.480469 C 166.257813 71.5 165.898438 71.421875 165.597656 71.246094 C 165.292969 71.078125 165.023438 70.8125 164.785156 70.449219 C 164.492188 69.980469 164.402344 69.511719 164.519531 69.042969 C 164.644531 68.582031 164.949219 68.207031 165.441406 67.902344 C 166.011719 67.539063 166.550781 67.441406 167.050781 67.605469 C 167.558594 67.773438 168.035156 68.207031 168.472656 68.902344 L 169.128906 69.964844 L 169.207031 69.902344 C 169.601563 69.660156 169.832031 69.359375 169.894531 68.996094 C 169.964844 68.628906 169.871094 68.246094 169.613281 67.839844 C 169.457031 67.582031 169.261719 67.347656 169.035156 67.136719 C 168.804688 66.929688 168.542969 66.753906 168.253906 66.605469 L 169.035156 66.121094 C 169.324219 66.339844 169.582031 66.558594 169.800781 66.777344 C 170.027344 66.996094 170.222656 67.230469 170.378906 67.480469 C 170.785156 68.136719 170.898438 68.746094 170.722656 69.308594 C 170.542969 69.878906 170.070313 70.410156 169.300781 70.902344 Z M 173.566406 74.59375 L 176.316406 72.875 L 176.785156 73.625 L 169.691406 78.046875 L 169.222656 77.296875 L 169.988281 76.8125 C 169.589844 76.84375 169.242188 76.78125 168.941406 76.625 C 168.648438 76.476563 168.398438 76.234375 168.191406 75.890625 C 167.835938 75.335938 167.792969 74.734375 168.066406 74.078125 C 168.335938 73.433594 168.871094 72.859375 169.675781 72.359375 C 170.476563 71.851563 171.230469 71.621094 171.941406 71.671875 C 172.660156 71.714844 173.195313 72.011719 173.550781 72.5625 C 173.757813 72.90625 173.863281 73.242188 173.863281 73.5625 C 173.863281 73.894531 173.761719 74.238281 173.566406 74.59375 Z M 170.175781 73.140625 C 169.558594 73.523438 169.148438 73.9375 168.941406 74.375 C 168.730469 74.8125 168.746094 75.226563 168.988281 75.625 C 169.246094 76.03125 169.621094 76.242188 170.113281 76.265625 C 170.601563 76.285156 171.152344 76.101563 171.769531 75.71875 C 172.382813 75.332031 172.792969 74.910156 173.003906 74.453125 C 173.222656 74.003906 173.199219 73.578125 172.941406 73.171875 C 172.699219 72.777344 172.332031 72.578125 171.832031 72.578125 C 171.339844 72.570313 170.789063 72.757813 170.175781 73.140625 Z M 170.175781 73.140625 "/>
<path style=" stroke:none;fill-rule:evenodd;fill:rgb(20%,20%,20%);fill-opacity:1;" d="M 133.046875 25.71875 L 131.015625 27.84375 L 132.15625 28.921875 C 132.53125 29.285156 132.890625 29.46875 133.234375 29.46875 C 133.585938 29.476563 133.9375 29.300781 134.28125 28.9375 C 134.625 28.570313 134.785156 28.210938 134.765625 27.859375 C 134.753906 27.515625 134.5625 27.160156 134.1875 26.796875 Z M 135.328125 23.328125 L 133.65625 25.078125 L 134.703125 26.078125 C 135.046875 26.414063 135.375 26.589844 135.6875 26.609375 C 136 26.621094 136.296875 26.480469 136.578125 26.1875 C 136.859375 25.898438 136.976563 25.601563 136.9375 25.296875 C 136.90625 24.984375 136.71875 24.664063 136.375 24.328125 Z M 135.234375 22.015625 L 137.046875 23.734375 C 137.578125 24.246094 137.867188 24.765625 137.921875 25.296875 C 137.984375 25.828125 137.796875 26.324219 137.359375 26.78125 C 137.015625 27.136719 136.664063 27.34375 136.3125 27.40625 C 135.96875 27.476563 135.628906 27.398438 135.296875 27.171875 C 135.566406 27.585938 135.671875 28.015625 135.609375 28.453125 C 135.546875 28.898438 135.328125 29.320313 134.953125 29.71875 C 134.460938 30.238281 133.921875 30.488281 133.328125 30.46875 C 132.742188 30.445313 132.160156 30.15625 131.578125 29.59375 L 129.703125 27.8125 Z M 138.460938 31.988281 C 137.9375 31.488281 137.511719 31.214844 137.179688 31.160156 C 136.855469 31.109375 136.542969 31.238281 136.242188 31.550781 C 136 31.800781 135.886719 32.070313 135.898438 32.363281 C 135.90625 32.652344 136.039063 32.925781 136.289063 33.175781 C 136.652344 33.519531 137.074219 33.648438 137.554688 33.566406 C 138.03125 33.492188 138.496094 33.226563 138.945313 32.769531 L 139.101563 32.597656 Z M 140.023438 32.925781 L 137.648438 35.410156 L 137.007813 34.785156 L 137.632813 34.128906 C 137.234375 34.242188 136.867188 34.257813 136.523438 34.175781 C 136.1875 34.089844 135.859375 33.898438 135.539063 33.597656 C 135.140625 33.222656 134.945313 32.792969 134.945313 32.316406 C 134.945313 31.847656 135.140625 31.402344 135.539063 30.972656 C 136.007813 30.484375 136.507813 30.253906 137.039063 30.285156 C 137.578125 30.316406 138.140625 30.613281 138.726563 31.175781 L 139.632813 32.035156 L 139.695313 31.972656 C 140.007813 31.640625 140.152344 31.292969 140.132813 30.925781 C 140.109375 30.550781 139.921875 30.199219 139.570313 29.863281 C 139.351563 29.65625 139.101563 29.480469 138.820313 29.332031 C 138.546875 29.1875 138.261719 29.089844 137.960938 29.035156 L 138.585938 28.378906 C 138.929688 28.496094 139.230469 28.636719 139.492188 28.800781 C 139.761719 28.957031 140 29.136719 140.210938 29.332031 C 140.773438 29.875 141.039063 30.441406 141.007813 31.035156 C 140.984375 31.628906 140.65625 32.257813 140.023438 32.925781 Z M 144.734375 30.613281 L 145.390625 31.238281 L 139.625 37.285156 L 138.96875 36.660156 Z M 146.929688 37.5625 L 149.304688 35.359375 L 149.914063 36.015625 L 143.789063 41.703125 L 143.179688 41.046875 L 143.835938 40.4375 C 143.449219 40.539063 143.09375 40.546875 142.773438 40.453125 C 142.449219 40.367188 142.152344 40.179688 141.882813 39.890625 C 141.445313 39.410156 141.292969 38.820313 141.429688 38.125 C 141.574219 37.429688 141.996094 36.757813 142.695313 36.109375 C 143.382813 35.464844 144.078125 35.101563 144.789063 35.015625 C 145.496094 34.921875 146.070313 35.117188 146.507813 35.59375 C 146.777344 35.886719 146.945313 36.195313 147.007813 36.515625 C 147.078125 36.839844 147.054688 37.1875 146.929688 37.5625 Z M 143.320313 36.78125 C 142.777344 37.28125 142.449219 37.765625 142.335938 38.234375 C 142.21875 38.710938 142.320313 39.125 142.632813 39.46875 C 142.964844 39.820313 143.371094 39.957031 143.851563 39.875 C 144.328125 39.789063 144.839844 39.5 145.382813 39 C 145.914063 38.507813 146.234375 38.023438 146.351563 37.546875 C 146.476563 37.070313 146.371094 36.652344 146.039063 36.296875 C 145.726563 35.953125 145.324219 35.828125 144.835938 35.921875 C 144.355469 36.007813 143.851563 36.292969 143.320313 36.78125 Z M 149.117188 38.636719 L 149.695313 39.324219 L 146.835938 43.199219 L 151.132813 41.027344 L 151.804688 41.824219 L 148.929688 45.683594 L 153.226563 43.527344 L 153.804688 44.199219 L 148.289063 46.996094 L 147.617188 46.183594 L 150.648438 42.105469 L 146.117188 44.402344 L 145.429688 43.589844 Z M 154.675781 45.234375 L 155.238281 45.90625 L 150.644531 49.78125 L 150.082031 49.109375 Z M 156.472656 43.71875 L 157.035156 44.390625 L 156.082031 45.203125 L 155.519531 44.53125 Z M 157.507813 52.320313 L 154.742188 54.648438 L 154.164063 53.976563 L 156.914063 51.664063 C 157.351563 51.289063 157.609375 50.933594 157.695313 50.601563 C 157.777344 50.269531 157.695313 49.953125 157.445313 49.648438 C 157.132813 49.285156 156.757813 49.109375 156.320313 49.117188 C 155.890625 49.117188 155.453125 49.304688 155.007813 49.679688 L 152.398438 51.867188 L 151.820313 51.179688 L 156.414063 47.304688 L 156.992188 47.992188 L 156.289063 48.601563 C 156.695313 48.519531 157.054688 48.53125 157.367188 48.632813 C 157.6875 48.738281 157.976563 48.941406 158.226563 49.242188 C 158.621094 49.710938 158.761719 50.207031 158.648438 50.726563 C 158.53125 51.246094 158.152344 51.777344 157.507813 52.320313 Z M 162.332031 59.101563 C 162.371094 59.320313 162.335938 59.578125 162.222656 59.882813 C 162.105469 60.183594 161.914063 60.542969 161.644531 60.960938 L 160.300781 62.945313 L 159.753906 62.054688 L 161.003906 60.179688 C 161.324219 59.699219 161.503906 59.3125 161.535156 59.023438 C 161.574219 58.742188 161.492188 58.4375 161.285156 58.117188 L 160.722656 57.210938 L 157.847656 59.007813 L 157.332031 58.179688 L 164.144531 53.945313 L 165.300781 55.804688 C 165.746094 56.515625 165.914063 57.140625 165.800781 57.679688 C 165.683594 58.230469 165.292969 58.710938 164.628906 59.117188 C 164.199219 59.386719 163.789063 59.515625 163.394531 59.507813 C 163.007813 59.507813 162.652344 59.371094 162.332031 59.101563 Z M 163.894531 55.242188 L 161.488281 56.742188 L 162.128906 57.773438 C 162.386719 58.179688 162.679688 58.417969 163.003906 58.492188 C 163.335938 58.574219 163.699219 58.492188 164.097656 58.242188 C 164.492188 57.992188 164.726563 57.699219 164.800781 57.367188 C 164.882813 57.046875 164.792969 56.679688 164.535156 56.273438 Z M 166.589844 62.953125 C 166.328125 62.546875 165.949219 62.339844 165.449219 62.328125 C 164.949219 62.308594 164.390625 62.492188 163.777344 62.875 C 163.160156 63.25 162.75 63.660156 162.542969 64.109375 C 162.34375 64.566406 162.375 65 162.636719 65.40625 C 162.886719 65.8125 163.253906 66.019531 163.746094 66.03125 C 164.246094 66.050781 164.800781 65.875 165.417969 65.5 C 166.03125 65.113281 166.441406 64.691406 166.652344 64.234375 C 166.859375 63.785156 166.839844 63.359375 166.589844 62.953125 Z M 167.292969 62.515625 C 167.699219 63.171875 167.78125 63.832031 167.542969 64.5 C 167.300781 65.164063 166.761719 65.765625 165.917969 66.296875 C 165.082031 66.804688 164.3125 67.019531 163.605469 66.9375 C 162.894531 66.863281 162.339844 66.5 161.933594 65.84375 C 161.515625 65.175781 161.425781 64.507813 161.667969 63.84375 C 161.90625 63.179688 162.441406 62.589844 163.277344 62.078125 C 164.121094 61.546875 164.894531 61.324219 165.605469 61.40625 C 166.3125 61.480469 166.875 61.851563 167.292969 62.515625 Z M 168.019531 69.589844 C 167.632813 68.984375 167.285156 68.613281 166.972656 68.480469 C 166.667969 68.355469 166.332031 68.40625 165.957031 68.636719 C 165.664063 68.8125 165.488281 69.042969 165.425781 69.324219 C 165.363281 69.613281 165.425781 69.90625 165.613281 70.199219 C 165.882813 70.625 166.257813 70.863281 166.738281 70.917969 C 167.226563 70.96875 167.742188 70.824219 168.285156 70.480469 L 168.488281 70.355469 Z M 169.300781 70.902344 L 166.378906 72.714844 L 165.910156 71.964844 L 166.675781 71.480469 C 166.257813 71.5 165.898438 71.421875 165.597656 71.246094 C 165.292969 71.078125 165.023438 70.8125 164.785156 70.449219 C 164.492188 69.980469 164.402344 69.511719 164.519531 69.042969 C 164.644531 68.582031 164.949219 68.207031 165.441406 67.902344 C 166.011719 67.539063 166.550781 67.441406 167.050781 67.605469 C 167.558594 67.773438 168.035156 68.207031 168.472656 68.902344 L 169.128906 69.964844 L 169.207031 69.902344 C 169.601563 69.660156 169.832031 69.359375 169.894531 68.996094 C 169.964844 68.628906 169.871094 68.246094 169.613281 67.839844 C 169.457031 67.582031 169.261719 67.347656 169.035156 67.136719 C 168.804688 66.929688 168.542969 66.753906 168.253906 66.605469 L 169.035156 66.121094 C 169.324219 66.339844 169.582031 66.558594 169.800781 66.777344 C 170.027344 66.996094 170.222656 67.230469 170.378906 67.480469 C 170.785156 68.136719 170.898438 68.746094 170.722656 69.308594 C 170.542969 69.878906 170.070313 70.410156 169.300781 70.902344 Z M 173.566406 74.59375 L 176.316406 72.875 L 176.785156 73.625 L 169.691406 78.046875 L 169.222656 77.296875 L 169.988281 76.8125 C 169.589844 76.84375 169.242188 76.78125 168.941406 76.625 C 168.648438 76.476563 168.398438 76.234375 168.191406 75.890625 C 167.835938 75.335938 167.792969 74.734375 168.066406 74.078125 C 168.335938 73.433594 168.871094 72.859375 169.675781 72.359375 C 170.476563 71.851563 171.230469 71.621094 171.941406 71.671875 C 172.660156 71.714844 173.195313 72.011719 173.550781 72.5625 C 173.757813 72.90625 173.863281 73.242188 173.863281 73.5625 C 173.863281 73.894531 173.761719 74.238281 173.566406 74.59375 Z M 170.175781 73.140625 C 169.558594 73.523438 169.148438 73.9375 168.941406 74.375 C 168.730469 74.8125 168.746094 75.226563 168.988281 75.625 C 169.246094 76.03125 169.621094 76.242188 170.113281 76.265625 C 170.601563 76.285156 171.152344 76.101563 171.769531 75.71875 C 172.382813 75.332031 172.792969 74.910156 173.003906 74.453125 C 173.222656 74.003906 173.199219 73.578125 172.941406 73.171875 C 172.699219 72.777344 172.332031 72.578125 171.832031 72.578125 C 171.339844 72.570313 170.789063 72.757813 170.175781 73.140625 Z M 170.175781 73.140625 "/>
<path style="fill:none;stroke-width:3;stroke-linecap:round;stroke-linejoin:round;stroke:rgb(100%,100%,100%);stroke-opacity:1;stroke-miterlimit:10;" d="M 167.601563 146.378906 L 169.585938 152.160156 L 168.726563 152.457031 L 167.898438 150.035156 L 161.179688 152.332031 L 160.851563 151.394531 L 167.570313 149.097656 L 166.742188 146.675781 Z M 168.023438 155.867188 C 167.867188 155.40625 167.542969 155.117188 167.054688 154.992188 C 166.574219 154.867188 165.996094 154.917969 165.320313 155.148438 C 164.632813 155.375 164.136719 155.6875 163.835938 156.085938 C 163.542969 156.480469 163.476563 156.90625 163.632813 157.367188 C 163.789063 157.8125 164.101563 158.101563 164.570313 158.226563 C 165.046875 158.351563 165.632813 158.296875 166.320313 158.070313 C 166.996094 157.839844 167.484375 157.527344 167.789063 157.132813 C 168.101563 156.734375 168.179688 156.3125 168.023438 155.867188 Z M 168.804688 155.585938 C 169.054688 156.3125 168.984375 156.976563 168.601563 157.570313 C 168.214844 158.171875 167.554688 158.636719 166.617188 158.960938 C 165.6875 159.273438 164.886719 159.308594 164.210938 159.070313 C 163.542969 158.839844 163.085938 158.359375 162.835938 157.632813 C 162.585938 156.890625 162.652344 156.21875 163.039063 155.617188 C 163.421875 155.023438 164.078125 154.570313 165.007813 154.257813 C 165.945313 153.9375 166.746094 153.894531 167.414063 154.132813 C 168.089844 154.363281 168.554688 154.84375 168.804688 155.585938 Z M 170.199219 163.710938 C 170.707031 163.78125 171.109375 163.929688 171.402344 164.148438 C 171.703125 164.375 171.921875 164.6875 172.058594 165.085938 C 172.234375 165.625 172.160156 166.109375 171.839844 166.539063 C 171.527344 166.976563 170.988281 167.324219 170.230469 167.585938 L 166.792969 168.757813 L 166.511719 167.914063 L 169.917969 166.757813 C 170.46875 166.558594 170.84375 166.328125 171.042969 166.070313 C 171.238281 165.808594 171.28125 165.5 171.167969 165.148438 C 171.019531 164.710938 170.738281 164.417969 170.324219 164.273438 C 169.917969 164.125 169.4375 164.148438 168.886719 164.335938 L 165.667969 165.445313 L 165.371094 164.601563 L 168.777344 163.445313 C 169.328125 163.246094 169.703125 163.011719 169.902344 162.742188 C 170.109375 162.480469 170.152344 162.171875 170.027344 161.820313 C 169.878906 161.382813 169.597656 161.089844 169.183594 160.945313 C 168.777344 160.808594 168.296875 160.835938 167.746094 161.023438 L 164.527344 162.132813 L 164.230469 161.273438 L 169.917969 159.320313 L 170.214844 160.179688 L 169.324219 160.492188 C 169.75 160.554688 170.089844 160.6875 170.339844 160.898438 C 170.597656 161.117188 170.792969 161.40625 170.917969 161.773438 C 171.042969 162.148438 171.046875 162.5 170.933594 162.835938 C 170.816406 163.167969 170.574219 163.460938 170.199219 163.710938 Z M 171.039063 171.769531 C 170.808594 171.089844 170.558594 170.652344 170.289063 170.457031 C 170.015625 170.257813 169.679688 170.226563 169.273438 170.363281 C 168.949219 170.476563 168.71875 170.664063 168.585938 170.925781 C 168.460938 171.195313 168.453125 171.496094 168.570313 171.832031 C 168.726563 172.300781 169.039063 172.613281 169.507813 172.769531 C 169.976563 172.925781 170.507813 172.898438 171.101563 172.691406 L 171.335938 172.613281 Z M 171.992188 173.332031 L 168.742188 174.441406 L 168.460938 173.597656 L 169.320313 173.300781 C 168.902344 173.226563 168.5625 173.070313 168.304688 172.832031 C 168.042969 172.601563 167.84375 172.285156 167.710938 171.878906 C 167.53125 171.355469 167.546875 170.882813 167.757813 170.457031 C 167.976563 170.039063 168.359375 169.738281 168.914063 169.550781 C 169.546875 169.332031 170.09375 169.359375 170.554688 169.628906 C 171.023438 169.898438 171.386719 170.417969 171.648438 171.191406 L 172.054688 172.363281 L 172.148438 172.332031 C 172.574219 172.183594 172.859375 171.945313 173.007813 171.613281 C 173.164063 171.277344 173.164063 170.882813 173.007813 170.425781 C 172.902344 170.132813 172.761719 169.855469 172.585938 169.597656 C 172.40625 169.347656 172.195313 169.125 171.945313 168.925781 L 172.804688 168.628906 C 173.054688 168.902344 173.261719 169.167969 173.429688 169.425781 C 173.59375 169.683594 173.726563 169.949219 173.820313 170.222656 C 174.070313 170.960938 174.042969 171.585938 173.742188 172.097656 C 173.4375 172.617188 172.855469 173.027344 171.992188 173.332031 Z M 174.234375 179.257813 L 170.796875 180.429688 L 170.5 179.585938 L 173.90625 178.429688 C 174.445313 178.242188 174.816406 178 175.015625 177.710938 C 175.222656 177.429688 175.257813 177.101563 175.125 176.726563 C 174.96875 176.277344 174.679688 175.976563 174.265625 175.820313 C 173.859375 175.671875 173.378906 175.695313 172.828125 175.882813 L 169.609375 176.992188 L 169.3125 176.132813 L 177.21875 173.429688 L 177.515625 174.289063 L 174.40625 175.351563 C 174.832031 175.421875 175.175781 175.5625 175.4375 175.773438 C 175.695313 175.992188 175.882813 176.28125 176 176.648438 C 176.207031 177.230469 176.160156 177.742188 175.859375 178.179688 C 175.554688 178.625 175.015625 178.984375 174.234375 179.257813 Z M 175.03125 183.449219 C 174.800781 182.769531 174.550781 182.332031 174.28125 182.136719 C 174.007813 181.9375 173.671875 181.90625 173.265625 182.042969 C 172.941406 182.15625 172.710938 182.34375 172.578125 182.605469 C 172.453125 182.875 172.445313 183.175781 172.5625 183.511719 C 172.71875 183.980469 173.03125 184.292969 173.5 184.449219 C 173.96875 184.605469 174.5 184.578125 175.09375 184.371094 L 175.328125 184.292969 Z M 175.984375 185.011719 L 172.734375 186.121094 L 172.453125 185.277344 L 173.3125 184.980469 C 172.894531 184.90625 172.554688 184.75 172.296875 184.511719 C 172.035156 184.28125 171.835938 183.964844 171.703125 183.558594 C 171.523438 183.035156 171.539063 182.5625 171.75 182.136719 C 171.96875 181.71875 172.351563 181.417969 172.90625 181.230469 C 173.539063 181.011719 174.085938 181.039063 174.546875 181.308594 C 175.015625 181.578125 175.378906 182.097656 175.640625 182.871094 L 176.046875 184.042969 L 176.140625 184.011719 C 176.566406 183.863281 176.851563 183.625 177 183.292969 C 177.15625 182.957031 177.15625 182.5625 177 182.105469 C 176.894531 181.8125 176.753906 181.535156 176.578125 181.277344 C 176.398438 181.027344 176.1875 180.804688 175.9375 180.605469 L 176.796875 180.308594 C 177.046875 180.582031 177.253906 180.847656 177.421875 181.105469 C 177.585938 181.363281 177.71875 181.628906 177.8125 181.902344 C 178.0625 182.640625 178.035156 183.265625 177.734375 183.777344 C 177.429688 184.296875 176.847656 184.707031 175.984375 185.011719 Z M 178.851563 185.566406 L 179.070313 186.441406 L 174.804688 188.660156 L 179.617188 188.597656 L 179.867188 189.613281 L 175.601563 191.832031 L 180.414063 191.769531 L 180.632813 192.628906 L 174.460938 192.722656 L 174.195313 191.707031 L 178.710938 189.363281 L 173.632813 189.425781 L 173.367188 188.410156 Z M 183.21875 193.433594 L 183.421875 194.308594 L 178.609375 195.386719 L 181.71875 197.417969 L 181.96875 198.527344 L 178.59375 196.339844 L 176.125 199.949219 L 175.859375 198.824219 L 178.125 195.496094 L 175.265625 196.136719 L 175.0625 195.261719 Z M 184.640625 201.265625 L 185.96875 207.234375 L 185.078125 207.4375 L 184.515625 204.9375 L 177.578125 206.484375 L 177.359375 205.515625 L 184.296875 203.96875 L 183.75 201.46875 Z M 183.984375 211.808594 C 184.023438 211.691406 184.046875 211.574219 184.046875 211.449219 C 184.054688 211.324219 184.046875 211.191406 184.015625 211.058594 C 183.898438 210.558594 183.632813 210.21875 183.21875 210.042969 C 182.8125 209.863281 182.273438 209.847656 181.609375 209.996094 L 178.515625 210.683594 L 178.3125 209.808594 L 184.1875 208.496094 L 184.390625 209.371094 L 183.46875 209.574219 C 183.863281 209.675781 184.179688 209.855469 184.421875 210.105469 C 184.660156 210.355469 184.828125 210.6875 184.921875 211.105469 C 184.941406 211.167969 184.957031 211.234375 184.96875 211.308594 C 184.976563 211.390625 184.984375 211.480469 184.984375 211.574219 Z M 182.699219 215.554688 C 182.542969 214.84375 182.34375 214.375 182.105469 214.148438 C 181.863281 213.929688 181.53125 213.867188 181.105469 213.960938 C 180.769531 214.03125 180.519531 214.195313 180.355469 214.445313 C 180.199219 214.695313 180.160156 214.992188 180.246094 215.335938 C 180.347656 215.824219 180.625 216.167969 181.074219 216.367188 C 181.519531 216.5625 182.058594 216.59375 182.683594 216.460938 L 182.902344 216.414063 Z M 183.496094 217.195313 L 180.136719 217.945313 L 179.949219 217.070313 L 180.839844 216.867188 C 180.421875 216.75 180.097656 216.5625 179.871094 216.304688 C 179.640625 216.042969 179.480469 215.699219 179.386719 215.273438 C 179.261719 214.742188 179.328125 214.277344 179.589844 213.882813 C 179.859375 213.484375 180.277344 213.226563 180.839844 213.101563 C 181.503906 212.945313 182.046875 213.027344 182.464844 213.351563 C 182.890625 213.671875 183.191406 214.230469 183.371094 215.023438 L 183.652344 216.242188 L 183.746094 216.226563 C 184.191406 216.121094 184.503906 215.914063 184.683594 215.601563 C 184.871094 215.289063 184.910156 214.890625 184.808594 214.414063 C 184.746094 214.109375 184.636719 213.824219 184.480469 213.554688 C 184.332031 213.28125 184.15625 213.03125 183.949219 212.804688 L 184.824219 212.601563 C 185.042969 212.902344 185.214844 213.1875 185.339844 213.460938 C 185.472656 213.742188 185.574219 214.027344 185.636719 214.320313 C 185.8125 215.078125 185.722656 215.699219 185.371094 216.179688 C 185.015625 216.65625 184.390625 216.996094 183.496094 217.195313 Z M 186.414063 218.425781 L 186.617188 219.285156 L 180.742188 220.597656 L 180.539063 219.738281 Z M 188.695313 217.910156 L 188.898438 218.769531 L 187.679688 219.050781 L 187.476563 218.191406 Z M 189.292969 220.59375 L 189.496094 221.453125 L 181.339844 223.28125 L 181.136719 222.421875 Z M 189.292969 220.59375 "/>
<path style=" stroke:none;fill-rule:evenodd;fill:rgb(20%,20%,20%);fill-opacity:1;" d="M 167.601563 146.378906 L 169.585938 152.160156 L 168.726563 152.457031 L 167.898438 150.035156 L 161.179688 152.332031 L 160.851563 151.394531 L 167.570313 149.097656 L 166.742188 146.675781 Z M 168.023438 155.867188 C 167.867188 155.40625 167.542969 155.117188 167.054688 154.992188 C 166.574219 154.867188 165.996094 154.917969 165.320313 155.148438 C 164.632813 155.375 164.136719 155.6875 163.835938 156.085938 C 163.542969 156.480469 163.476563 156.90625 163.632813 157.367188 C 163.789063 157.8125 164.101563 158.101563 164.570313 158.226563 C 165.046875 158.351563 165.632813 158.296875 166.320313 158.070313 C 166.996094 157.839844 167.484375 157.527344 167.789063 157.132813 C 168.101563 156.734375 168.179688 156.3125 168.023438 155.867188 Z M 168.804688 155.585938 C 169.054688 156.3125 168.984375 156.976563 168.601563 157.570313 C 168.214844 158.171875 167.554688 158.636719 166.617188 158.960938 C 165.6875 159.273438 164.886719 159.308594 164.210938 159.070313 C 163.542969 158.839844 163.085938 158.359375 162.835938 157.632813 C 162.585938 156.890625 162.652344 156.21875 163.039063 155.617188 C 163.421875 155.023438 164.078125 154.570313 165.007813 154.257813 C 165.945313 153.9375 166.746094 153.894531 167.414063 154.132813 C 168.089844 154.363281 168.554688 154.84375 168.804688 155.585938 Z M 170.199219 163.710938 C 170.707031 163.78125 171.109375 163.929688 171.402344 164.148438 C 171.703125 164.375 171.921875 164.6875 172.058594 165.085938 C 172.234375 165.625 172.160156 166.109375 171.839844 166.539063 C 171.527344 166.976563 170.988281 167.324219 170.230469 167.585938 L 166.792969 168.757813 L 166.511719 167.914063 L 169.917969 166.757813 C 170.46875 166.558594 170.84375 166.328125 171.042969 166.070313 C 171.238281 165.808594 171.28125 165.5 171.167969 165.148438 C 171.019531 164.710938 170.738281 164.417969 170.324219 164.273438 C 169.917969 164.125 169.4375 164.148438 168.886719 164.335938 L 165.667969 165.445313 L 165.371094 164.601563 L 168.777344 163.445313 C 169.328125 163.246094 169.703125 163.011719 169.902344 162.742188 C 170.109375 162.480469 170.152344 162.171875 170.027344 161.820313 C 169.878906 161.382813 169.597656 161.089844 169.183594 160.945313 C 168.777344 160.808594 168.296875 160.835938 167.746094 161.023438 L 164.527344 162.132813 L 164.230469 161.273438 L 169.917969 159.320313 L 170.214844 160.179688 L 169.324219 160.492188 C 169.75 160.554688 170.089844 160.6875 170.339844 160.898438 C 170.597656 161.117188 170.792969 161.40625 170.917969 161.773438 C 171.042969 162.148438 171.046875 162.5 170.933594 162.835938 C 170.816406 163.167969 170.574219 163.460938 170.199219 163.710938 Z M 171.039063 171.769531 C 170.808594 171.089844 170.558594 170.652344 170.289063 170.457031 C 170.015625 170.257813 169.679688 170.226563 169.273438 170.363281 C 168.949219 170.476563 168.71875 170.664063 168.585938 170.925781 C 168.460938 171.195313 168.453125 171.496094 168.570313 171.832031 C 168.726563 172.300781 169.039063 172.613281 169.507813 172.769531 C 169.976563 172.925781 170.507813 172.898438 171.101563 172.691406 L 171.335938 172.613281 Z M 171.992188 173.332031 L 168.742188 174.441406 L 168.460938 173.597656 L 169.320313 173.300781 C 168.902344 173.226563 168.5625 173.070313 168.304688 172.832031 C 168.042969 172.601563 167.84375 172.285156 167.710938 171.878906 C 167.53125 171.355469 167.546875 170.882813 167.757813 170.457031 C 167.976563 170.039063 168.359375 169.738281 168.914063 169.550781 C 169.546875 169.332031 170.09375 169.359375 170.554688 169.628906 C 171.023438 169.898438 171.386719 170.417969 171.648438 171.191406 L 172.054688 172.363281 L 172.148438 172.332031 C 172.574219 172.183594 172.859375 171.945313 173.007813 171.613281 C 173.164063 171.277344 173.164063 170.882813 173.007813 170.425781 C 172.902344 170.132813 172.761719 169.855469 172.585938 169.597656 C 172.40625 169.347656 172.195313 169.125 171.945313 168.925781 L 172.804688 168.628906 C 173.054688 168.902344 173.261719 169.167969 173.429688 169.425781 C 173.59375 169.683594 173.726563 169.949219 173.820313 170.222656 C 174.070313 170.960938 174.042969 171.585938 173.742188 172.097656 C 173.4375 172.617188 172.855469 173.027344 171.992188 173.332031 Z M 174.234375 179.257813 L 170.796875 180.429688 L 170.5 179.585938 L 173.90625 178.429688 C 174.445313 178.242188 174.816406 178 175.015625 177.710938 C 175.222656 177.429688 175.257813 177.101563 175.125 176.726563 C 174.96875 176.277344 174.679688 175.976563 174.265625 175.820313 C 173.859375 175.671875 173.378906 175.695313 172.828125 175.882813 L 169.609375 176.992188 L 169.3125 176.132813 L 177.21875 173.429688 L 177.515625 174.289063 L 174.40625 175.351563 C 174.832031 175.421875 175.175781 175.5625 175.4375 175.773438 C 175.695313 175.992188 175.882813 176.28125 176 176.648438 C 176.207031 177.230469 176.160156 177.742188 175.859375 178.179688 C 175.554688 178.625 175.015625 178.984375 174.234375 179.257813 Z M 175.03125 183.449219 C 174.800781 182.769531 174.550781 182.332031 174.28125 182.136719 C 174.007813 181.9375 173.671875 181.90625 173.265625 182.042969 C 172.941406 182.15625 172.710938 182.34375 172.578125 182.605469 C 172.453125 182.875 172.445313 183.175781 172.5625 183.511719 C 172.71875 183.980469 173.03125 184.292969 173.5 184.449219 C 173.96875 184.605469 174.5 184.578125 175.09375 184.371094 L 175.328125 184.292969 Z M 175.984375 185.011719 L 172.734375 186.121094 L 172.453125 185.277344 L 173.3125 184.980469 C 172.894531 184.90625 172.554688 184.75 172.296875 184.511719 C 172.035156 184.28125 171.835938 183.964844 171.703125 183.558594 C 171.523438 183.035156 171.539063 182.5625 171.75 182.136719 C 171.96875 181.71875 172.351563 181.417969 172.90625 181.230469 C 173.539063 181.011719 174.085938 181.039063 174.546875 181.308594 C 175.015625 181.578125 175.378906 182.097656 175.640625 182.871094 L 176.046875 184.042969 L 176.140625 184.011719 C 176.566406 183.863281 176.851563 183.625 177 183.292969 C 177.15625 182.957031 177.15625 182.5625 177 182.105469 C 176.894531 181.8125 176.753906 181.535156 176.578125 181.277344 C 176.398438 181.027344 176.1875 180.804688 175.9375 180.605469 L 176.796875 180.308594 C 177.046875 180.582031 177.253906 180.847656 177.421875 181.105469 C 177.585938 181.363281 177.71875 181.628906 177.8125 181.902344 C 178.0625 182.640625 178.035156 183.265625 177.734375 183.777344 C 177.429688 184.296875 176.847656 184.707031 175.984375 185.011719 Z M 178.851563 185.566406 L 179.070313 186.441406 L 174.804688 188.660156 L 179.617188 188.597656 L 179.867188 189.613281 L 175.601563 191.832031 L 180.414063 191.769531 L 180.632813 192.628906 L 174.460938 192.722656 L 174.195313 191.707031 L 178.710938 189.363281 L 173.632813 189.425781 L 173.367188 188.410156 Z M 183.21875 193.433594 L 183.421875 194.308594 L 178.609375 195.386719 L 181.71875 197.417969 L 181.96875 198.527344 L 178.59375 196.339844 L 176.125 199.949219 L 175.859375 198.824219 L 178.125 195.496094 L 175.265625 196.136719 L 175.0625 195.261719 Z M 184.640625 201.265625 L 185.96875 207.234375 L 185.078125 207.4375 L 184.515625 204.9375 L 177.578125 206.484375 L 177.359375 205.515625 L 184.296875 203.96875 L 183.75 201.46875 Z M 183.984375 211.808594 C 184.023438 211.691406 184.046875 211.574219 184.046875 211.449219 C 184.054688 211.324219 184.046875 211.191406 184.015625 211.058594 C 183.898438 210.558594 183.632813 210.21875 183.21875 210.042969 C 182.8125 209.863281 182.273438 209.847656 181.609375 209.996094 L 178.515625 210.683594 L 178.3125 209.808594 L 184.1875 208.496094 L 184.390625 209.371094 L 183.46875 209.574219 C 183.863281 209.675781 184.179688 209.855469 184.421875 210.105469 C 184.660156 210.355469 184.828125 210.6875 184.921875 211.105469 C 184.941406 211.167969 184.957031 211.234375 184.96875 211.308594 C 184.976563 211.390625 184.984375 211.480469 184.984375 211.574219 Z M 182.699219 215.554688 C 182.542969 214.84375 182.34375 214.375 182.105469 214.148438 C 181.863281 213.929688 181.53125 213.867188 181.105469 213.960938 C 180.769531 214.03125 180.519531 214.195313 180.355469 214.445313 C 180.199219 214.695313 180.160156 214.992188 180.246094 215.335938 C 180.347656 215.824219 180.625 216.167969 181.074219 216.367188 C 181.519531 216.5625 182.058594 216.59375 182.683594 216.460938 L 182.902344 216.414063 Z M 183.496094 217.195313 L 180.136719 217.945313 L 179.949219 217.070313 L 180.839844 216.867188 C 180.421875 216.75 180.097656 216.5625 179.871094 216.304688 C 179.640625 216.042969 179.480469 215.699219 179.386719 215.273438 C 179.261719 214.742188 179.328125 214.277344 179.589844 213.882813 C 179.859375 213.484375 180.277344 213.226563 180.839844 213.101563 C 181.503906 212.945313 182.046875 213.027344 182.464844 213.351563 C 182.890625 213.671875 183.191406 214.230469 183.371094 215.023438 L 183.652344 216.242188 L 183.746094 216.226563 C 184.191406 216.121094 184.503906 215.914063 184.683594 215.601563 C 184.871094 215.289063 184.910156 214.890625 184.808594 214.414063 C 184.746094 214.109375 184.636719 213.824219 184.480469 213.554688 C 184.332031 213.28125 184.15625 213.03125 183.949219 212.804688 L 184.824219 212.601563 C 185.042969 212.902344 185.214844 213.1875 185.339844 213.460938 C 185.472656 213.742188 185.574219 214.027344 185.636719 214.320313 C 185.8125 215.078125 185.722656 215.699219 185.371094 216.179688 C 185.015625 216.65625 184.390625 216.996094 183.496094 217.195313 Z M 186.414063 218.425781 L 186.617188 219.285156 L 180.742188 220.597656 L 180.539063 219.738281 Z M 188.695313 217.910156 L 188.898438 218.769531 L 187.679688 219.050781 L 187.476563 218.191406 Z M 189.292969 220.59375 L 189.496094 221.453125 L 181.339844 223.28125 L 181.136719 222.421875 Z M 189.292969 220.59375 "/>
</g>
</svg>

