<?xml version="1.0" encoding="UTF-8"?>
<svg xmlns="http://www.w3.org/2000/svg" xmlns:xlink="http://www.w3.org/1999/xlink" width="256pt" height="256pt" viewBox="0 0 256 256" version="1.1">
<g id="surface2">
<rect x="0" y="0" width="256" height="256" style="fill:rgb(94.901961%,93.72549%,91.372549%);fill-opacity:1;stroke:none;"/>
<path style=" stroke:none;fill-rule:evenodd;fill:rgb(81.960784%,81.568627%,80.392157%);fill-opacity:1;" d="M 212.222656 231.757813 L 217.566406 235.8125 L 220.886719 231.441406 L 215.539063 227.386719 Z M 212.222656 231.757813 "/>
<path style="fill:none;stroke-width:1;stroke-linecap:round;stroke-linejoin:round;stroke:rgb(81.960784%,81.960784%,81.960784%);stroke-opacity:1;stroke-miterlimit:10;" d="M 212.222656 231.757813 L 217.566406 235.8125 L 220.886719 231.441406 L 215.539063 227.386719 L 212.222656 231.757813 "/>
<path style=" stroke:none;fill-rule:evenodd;fill:rgb(60%,70.196078%,80%);fill-opacity:1;" d="M -4 -4 L 259 -4 L 259 259 L 259 -4 Z M -4 -4 "/>
<path style="fill:none;stroke-width:1;stroke-linecap:round;stroke-linejoin:round;stroke:rgb(70.196078%,77.647059%,83.137255%);stroke-opacity:1;stroke-miterlimit:10;" d="M -4 -4 L 259 -4 L 259 259 L 259 -4 L -4 -4 "/>
<path style="fill:none;stroke-width:1;stroke-linecap:round;stroke-linejoin:round;stroke:rgb(100%,100%,100%);stroke-opacity:1;stroke-dasharray:2,3;stroke-miterlimit:10;" d="M 213.867188 229.570313 L 207.148438 228.226563 L 200.960938 231.726563 L 194.273438 233.539063 L 185.835938 236.597656 L 183.210938 238.222656 L 172.460938 240.539063 L 164.585938 245.851563 L 155.960938 251.476563 L 151.335938 255.164063 L 149.457031 256.472656 L 144.523438 255.226563 L 140.710938 251.414063 L 136.273438 246.660156 L 130.710938 247.910156 L 126.023438 251.164063 L 120.960938 253.976563 L 113.085938 255.414063 L 110.941406 257 "/>
<path style="fill:none;stroke-width:8;stroke-linecap:round;stroke-linejoin:round;stroke:rgb(75.686275%,70.980392%,61.568627%);stroke-opacity:1;stroke-miterlimit:10;" d="M 220.679688 234.613281 L 213.867188 229.570313 "/>
<path style="fill:none;stroke-width:8;stroke-linecap:round;stroke-linejoin:round;stroke:rgb(75.686275%,70.980392%,61.568627%);stroke-opacity:1;stroke-miterlimit:10;" d="M 211.679688 264 L 211.847656 262.109375 L 217.183594 246.914063 L 220.546875 234.957031 L 222.425781 232.039063 L 232.164063 216.75 L 235.359375 209.34375 L 236.941406 203.253906 L 237.058594 184.113281 L 237.316406 181.550781 L 243.675781 161.320313 L 245.003906 153.722656 L 245.796875 150.390625 L 248.851563 143.242188 L 257.425781 127.691406 L 262.550781 119.644531 L 264 118.046875 "/>
<path style="fill:none;stroke-width:6;stroke-linecap:round;stroke-linejoin:round;stroke:rgb(100%,100%,100%);stroke-opacity:1;stroke-miterlimit:10;" d="M 220.679688 234.613281 L 213.867188 229.570313 "/>
<path style="fill:none;stroke-width:6;stroke-linecap:round;stroke-linejoin:round;stroke:rgb(100%,100%,100%);stroke-opacity:1;stroke-miterlimit:10;" d="M 211.679688 264 L 211.847656 262.109375 L 217.183594 246.914063 L 220.546875 234.957031 L 222.425781 232.039063 L 232.164063 216.75 L 235.359375 209.34375 L 236.941406 203.253906 L 237.058594 184.113281 L 237.316406 181.550781 L 243.675781 161.320313 L 245.003906 153.722656 L 245.796875 150.390625 L 248.851563 143.242188 L 257.425781 127.691406 L 262.550781 119.644531 L 264 118.046875 "/>
</g>
</svg>

