<?xml version="1.0" encoding="UTF-8"?>
<svg xmlns="http://www.w3.org/2000/svg" xmlns:xlink="http://www.w3.org/1999/xlink" width="256pt" height="256pt" viewBox="0 0 256 256" version="1.1">
<g id="surface2">
<rect x="0" y="0" width="256" height="256" style="fill:rgb(94.901961%,93.72549%,91.372549%);fill-opacity:1;stroke:none;"/>
<path style=" stroke:none;fill-rule:evenodd;fill:rgb(60%,70.196078%,80%);fill-opacity:1;" d="M -4 259 L -4 -4 L 259 -4 L -4 -4 L -4 259 L -4 -4 Z M -4 259 "/>
<path style="fill:none;stroke-width:1;stroke-linecap:round;stroke-linejoin:round;stroke:rgb(70.196078%,77.647059%,83.137255%);stroke-opacity:1;stroke-miterlimit:10;" d="M -4 259 L -4 -4 L 259 -4 L -4 -4 L -4 259 L -4 -4 L -4 259 "/>
<path style=" stroke:none;fill-rule:evenodd;fill:rgb(60%,70.196078%,80%);fill-opacity:1;" d="M -4 -4 L 259 -4 L 259 259 L 259 -4 L 259 259 L 259 -4 Z M -4 -4 "/>
<path style="fill:none;stroke-width:1;stroke-linecap:round;stroke-linejoin:round;stroke:rgb(70.196078%,77.647059%,83.137255%);stroke-opacity:1;stroke-miterlimit:10;" d="M -4 -4 L 259 -4 L 259 259 L 259 -4 L 259 259 L 259 -4 L -4 -4 "/>
<path style="fill:none;stroke-width:8;stroke-linecap:round;stroke-linejoin:round;stroke:rgb(75.686275%,70.980392%,61.568627%);stroke-opacity:1;stroke-miterlimit:10;" d="M -5.210938 264 L -3.492188 257.914063 L -3.234375 253.5625 L -3.398438 252.027344 L -4.167969 249.886719 L -9 241.09375 M -9 121.582031 L -7.335938 119.285156 L -2.675781 113.59375 L 2.171875 108.859375 L 11.46875 91.488281 L 19.132813 75.589844 L 19.667969 71.65625 L 19.667969 64.972656 L 18.738281 56.65625 L 18.761719 48.722656 L 19.601563 43.125 L 23.164063 32.3125 L 26.519531 24.828125 L 28.945313 21.019531 L 33.441406 16.347656 L 37.285156 13.085938 L 41.015625 10.878906 L 50.3125 7.425781 L 61.148438 4.351563 L 81.117188 0.164063 L 101.761719 -5.371094 L 106.980469 -7.898438 L 108.738281 -9 "/>
<path style="fill:none;stroke-width:6;stroke-linecap:round;stroke-linejoin:round;stroke:rgb(100%,100%,100%);stroke-opacity:1;stroke-miterlimit:10;" d="M -5.210938 264 L -3.492188 257.914063 L -3.234375 253.5625 L -3.398438 252.027344 L -4.167969 249.886719 L -9 241.09375 M -9 121.582031 L -7.335938 119.285156 L -2.675781 113.59375 L 2.171875 108.859375 L 11.46875 91.488281 L 19.132813 75.589844 L 19.667969 71.65625 L 19.667969 64.972656 L 18.738281 56.65625 L 18.761719 48.722656 L 19.601563 43.125 L 23.164063 32.3125 L 26.519531 24.828125 L 28.945313 21.019531 L 33.441406 16.347656 L 37.285156 13.085938 L 41.015625 10.878906 L 50.3125 7.425781 L 61.148438 4.351563 L 81.117188 0.164063 L 101.761719 -5.371094 L 106.980469 -7.898438 L 108.738281 -9 "/>
</g>
</svg>

