<?xml version="1.0" encoding="UTF-8"?>
<svg xmlns="http://www.w3.org/2000/svg" xmlns:xlink="http://www.w3.org/1999/xlink" width="256pt" height="256pt" viewBox="0 0 256 256" version="1.1">
<g id="surface2">
<rect x="0" y="0" width="256" height="256" style="fill:rgb(79.607843%,84.705882%,76.470588%);fill-opacity:1;stroke:none;"/>
<path style=" stroke:none;fill-rule:evenodd;fill:rgb(60%,70.196078%,80%);fill-opacity:1;" d="M -4 -4 L 259 -4 L 259 259 L 259 -4 Z M -4 -4 "/>
<path style="fill:none;stroke-width:1;stroke-linecap:round;stroke-linejoin:round;stroke:rgb(70.196078%,77.647059%,83.137255%);stroke-opacity:1;stroke-miterlimit:10;" d="M -4 -4 L 259 -4 L 259 259 L 259 -4 L -4 -4 "/>
<path style="fill:none;stroke-width:1;stroke-linecap:round;stroke-linejoin:round;stroke:rgb(100%,100%,100%);stroke-opacity:1;stroke-dasharray:2,3;stroke-miterlimit:10;" d="M 62.03125 227.515625 L 65.609375 229.410156 L 69.582031 231.640625 "/>
<path style="fill:none;stroke-width:1;stroke-linecap:round;stroke-linejoin:round;stroke:rgb(100%,100%,100%);stroke-opacity:1;stroke-dasharray:2,3;stroke-miterlimit:10;" d="M 23.445313 49.992188 L 20.820313 43.179688 L 22.257813 31.054688 L 23.320313 25.367188 L 23.132813 19.929688 L 24.695313 16.683594 L 26.257813 3.804688 L 31.734375 -2 "/>
<path style="fill:none;stroke-width:1;stroke-linecap:round;stroke-linejoin:round;stroke:rgb(100%,100%,100%);stroke-opacity:1;stroke-dasharray:2,3;stroke-miterlimit:10;" d="M 257 58.234375 L 256.21875 58.902344 L 250.722656 62.703125 L 245.898438 67.542969 L 241.984375 73.855469 L 241.984375 77.519531 L 235.226563 85.820313 L 231.683594 88.304688 L 223.667969 99.554688 L 213.71875 107.265625 L 202.347656 125.757813 L 193.097656 119.726563 L 179.953125 124.574219 L 171.773438 139.058594 L 171.054688 141.542969 L 172.660156 143.5625 L 170.167969 150.558594 L 166.789063 151.863281 L 163.757813 158.855469 L 156.839844 162.863281 "/>
<path style="fill:none;stroke-width:1;stroke-linecap:round;stroke-linejoin:round;stroke:rgb(100%,100%,100%);stroke-opacity:1;stroke-dasharray:2,3;stroke-miterlimit:10;" d="M 107.402344 257 L 109.378906 253.414063 L 115.472656 244.59375 L 125.132813 232.511719 L 133.011719 218.539063 L 135.429688 204.464844 L 140.039063 194.871094 "/>
<path style="fill:none;stroke-width:1;stroke-linecap:round;stroke-linejoin:round;stroke:rgb(100%,100%,100%);stroke-opacity:1;stroke-dasharray:2,3;stroke-miterlimit:10;" d="M 46.679688 246.382813 L 47.742188 249.835938 L 46.785156 252.398438 L 49.628906 254.882813 L 50.992188 256.433594 L 51.003906 257 "/>
<path style="fill:none;stroke-width:1;stroke-linecap:round;stroke-linejoin:round;stroke:rgb(100%,100%,100%);stroke-opacity:1;stroke-dasharray:2,3;stroke-miterlimit:10;" d="M 46.972656 158.015625 L 42.210938 151.179688 L 40.757813 147.304688 L 39.382813 143.304688 L 36.757813 141.242188 L 34.257813 141.117188 L 28.195313 145.617188 L 22.507813 152.746094 L 20.007813 153.554688 L 15.257813 157.679688 L 13.570313 154.054688 L 11.195313 148.183594 L 11.257813 143.304688 L 9.757813 139.683594 L 7.632813 136.554688 L 9.445313 133.242188 L 7.820313 130.742188 L 3.257813 129.867188 L -2 131.863281 M -2 61.1875 L 1.195313 60.429688 L 7.507813 58.179688 L 14.882813 59.304688 L 20.570313 56.179688 L 23.445313 49.992188 "/>
<path style="fill:none;stroke-width:1;stroke-linecap:round;stroke-linejoin:round;stroke:rgb(100%,100%,100%);stroke-opacity:1;stroke-dasharray:2,3;stroke-miterlimit:10;" d="M 46.679688 246.382813 L 49.8125 244.101563 L 56.90625 241.460938 L 59.464844 236.320313 L 60.066406 231.855469 L 62.03125 227.515625 L 65.984375 222.875 L 63 218.367188 L 59.5625 214.753906 L 54.964844 212.898438 L 55.667969 210.070313 L 58.785156 205.574219 L 55.148438 199.839844 L 56.148438 195.152344 L 49.976563 184.585938 L 50.710938 181.996094 L 49.890625 178.550781 L 50.210938 174.335938 L 48.742188 172.375 L 46.367188 161.652344 L 46.972656 158.015625 L 50.511719 155.996094 L 56.570313 158.265625 L 58.128906 158.367188 L 59.414063 157.550781 L 66.707031 147.945313 L 69.714844 141.761719 L 76.917969 132.28125 L 79.914063 126.480469 L 81.101563 118.730469 L 83.050781 112.1875 L 88.378906 109.160156 L 97.28125 98.5 L 103.851563 82.492188 L 111.144531 73.730469 L 112.566406 69.097656 L 112.378906 68.042969 L 117.367188 61.390625 L 126.78125 55.953125 L 131.230469 49.765625 L 134.421875 47.746094 L 140.832031 48.710938 L 148.472656 41.839844 L 150.898438 39.285156 L 159.332031 43.023438 L 164.519531 42.800781 L 173.714844 46.621094 L 178.671875 47.210938 L 183.144531 45.507813 L 185.988281 45.261719 L 191.140625 47.871094 L 197.199219 47.746094 L 205.191406 46.8125 L 207.847656 45.136719 L 213.90625 47.527344 L 219.054688 46.566406 L 229.539063 36.835938 L 230.960938 39.105469 L 239.863281 39.105469 L 246.761719 37.054688 L 251.800781 37.09375 L 255.824219 29.460938 L 257 30.625 "/>
<path style="fill:none;stroke-width:1;stroke-linecap:round;stroke-linejoin:round;stroke:rgb(100%,100%,100%);stroke-opacity:1;stroke-dasharray:2,3;stroke-miterlimit:10;" d="M 198.917969 257 L 197.789063 250.230469 L 204.539063 237.980469 L 185.039063 230.476563 L 176.539063 231.976563 L 172.789063 221.976563 L 158.539063 227.476563 L 155.789063 221.726563 L 148.289063 221.476563 L 146.789063 217.226563 L 150.476563 207.726563 L 151.601563 195.925781 L 146.476563 196.292969 L 140.039063 194.871094 L 144.253906 187.132813 L 152.445313 174.738281 L 156.839844 162.863281 L 156.304688 158.855469 L 153.109375 157.175781 L 145.980469 160.875 L 142.601563 165.257813 L 141.015625 163.703125 L 141.902344 160.285156 L 138.335938 157.175781 L 127.152344 155.871094 L 118.601563 149.59375 L 116.480469 147.480469 L 113.101563 138.808594 L 102.078125 144.621094 L 100.84375 139.867188 L 102.429688 131.816406 L 99.050781 128.738281 L 92.828125 136.570313 L 86.609375 140.953125 L 85.910156 143.316406 L 81.269531 148.414063 L 82.691406 149.46875 L 70.621094 156.585938 L 66.335938 161.683594 L 62.257813 163.484375 L 60.488281 162.988281 L 58.128906 158.367188 "/>
<path style="fill:none;stroke-width:8;stroke-linecap:round;stroke-linejoin:round;stroke:rgb(75.686275%,70.980392%,61.568627%);stroke-opacity:1;stroke-miterlimit:10;" d="M -9 27.96875 L -6.289063 26.621094 L -2.789063 17.746094 L -2.476563 9.558594 L -2.664063 1.683594 L -2.351563 -7.316406 L -1.488281 -9 M 13.027344 -9 L 12.835938 -6.816406 L 9.085938 0.746094 L 6.398438 8.746094 L 6.585938 17.933594 L 5.835938 32.621094 L 1.648438 42.121094 L -8.789063 50.746094 L -9 50.863281 "/>
<path style="fill:none;stroke-width:6;stroke-linecap:round;stroke-linejoin:round;stroke:rgb(100%,100%,100%);stroke-opacity:1;stroke-miterlimit:10;" d="M -9 27.96875 L -6.289063 26.621094 L -2.789063 17.746094 L -2.476563 9.558594 L -2.664063 1.683594 L -2.351563 -7.316406 L -1.488281 -9 M 13.027344 -9 L 12.835938 -6.816406 L 9.085938 0.746094 L 6.398438 8.746094 L 6.585938 17.933594 L 5.835938 32.621094 L 1.648438 42.121094 L -8.789063 50.746094 L -9 50.863281 "/>
</g>
</svg>

