<?xml version="1.0" encoding="UTF-8"?>
<svg xmlns="http://www.w3.org/2000/svg" xmlns:xlink="http://www.w3.org/1999/xlink" width="256pt" height="256pt" viewBox="0 0 256 256" version="1.1">
<g id="surface2">
<rect x="0" y="0" width="256" height="256" style="fill:rgb(94.901961%,93.72549%,91.372549%);fill-opacity:1;stroke:none;"/>
<path style=" stroke:none;fill-rule:evenodd;fill:rgb(60%,70.196078%,80%);fill-opacity:1;" d="M -4 -4 L 259 -4 L 259 259 L 259 -4 Z M -4 -4 "/>
<path style="fill:none;stroke-width:1;stroke-linecap:round;stroke-linejoin:round;stroke:rgb(70.196078%,77.647059%,83.137255%);stroke-opacity:1;stroke-miterlimit:10;" d="M -4 -4 L 259 -4 L 259 259 L 259 -4 L -4 -4 "/>
<path style="fill:none;stroke-width:8;stroke-linecap:round;stroke-linejoin:round;stroke:rgb(75.686275%,70.980392%,61.568627%);stroke-opacity:1;stroke-miterlimit:10;" d="M 139.632813 264 L 142.246094 259.289063 L 140.777344 238.640625 L 137.117188 232.035156 L 103.332031 197.40625 L 91.960938 179.269531 L 83.5 165.738281 L 80.566406 156.171875 L 80.332031 148.3125 L 79.820313 131.847656 L 82.753906 126.695313 L 101.839844 117.09375 L 114.328125 101.628906 L 130.476563 89.839844 L 133.414063 70.703125 L 158.371094 34.585938 L 148.070313 -8.875 L 148.085938 -9 "/>
<path style="fill:none;stroke-width:8;stroke-linecap:round;stroke-linejoin:round;stroke:rgb(75.686275%,70.980392%,61.568627%);stroke-opacity:1;stroke-miterlimit:10;" d="M 20.515625 49.832031 L 59.941406 6.042969 L 63.703125 -9 "/>
<path style="fill:none;stroke-width:8;stroke-linecap:round;stroke-linejoin:round;stroke:rgb(75.686275%,70.980392%,61.568627%);stroke-opacity:1;stroke-miterlimit:10;" d="M 80.144531 122.75 L 20.515625 49.832031 L 0.585938 28.261719 L -9 16.496094 "/>
<path style="fill:none;stroke-width:6;stroke-linecap:round;stroke-linejoin:round;stroke:rgb(100%,100%,100%);stroke-opacity:1;stroke-miterlimit:10;" d="M 139.632813 264 L 142.246094 259.289063 L 140.777344 238.640625 L 137.117188 232.035156 L 103.332031 197.40625 L 91.960938 179.269531 L 83.5 165.738281 L 80.566406 156.171875 L 80.332031 148.3125 L 79.820313 131.847656 L 82.753906 126.695313 L 101.839844 117.09375 L 114.328125 101.628906 L 130.476563 89.839844 L 133.414063 70.703125 L 158.371094 34.585938 L 148.070313 -8.875 L 148.085938 -9 "/>
<path style="fill:none;stroke-width:6;stroke-linecap:round;stroke-linejoin:round;stroke:rgb(100%,100%,100%);stroke-opacity:1;stroke-miterlimit:10;" d="M 20.515625 49.832031 L 59.941406 6.042969 L 63.703125 -9 "/>
<path style="fill:none;stroke-width:6;stroke-linecap:round;stroke-linejoin:round;stroke:rgb(100%,100%,100%);stroke-opacity:1;stroke-miterlimit:10;" d="M 80.144531 122.75 L 20.515625 49.832031 L 0.585938 28.261719 L -9 16.496094 "/>
</g>
</svg>

