<?xml version="1.0" encoding="UTF-8"?>
<svg xmlns="http://www.w3.org/2000/svg" xmlns:xlink="http://www.w3.org/1999/xlink" width="256pt" height="256pt" viewBox="0 0 256 256" version="1.1">
<g id="surface2">
<rect x="0" y="0" width="256" height="256" style="fill:rgb(94.901961%,93.72549%,91.372549%);fill-opacity:1;stroke:none;"/>
<path style="fill:none;stroke-width:1;stroke-linecap:round;stroke-linejoin:round;stroke:rgb(100%,100%,100%);stroke-opacity:1;stroke-dasharray:2,3;stroke-miterlimit:10;" d="M 252.046875 2.367188 L 253.542969 5.011719 "/>
<path style="fill:none;stroke-width:1;stroke-linecap:round;stroke-linejoin:round;stroke:rgb(100%,100%,100%);stroke-opacity:1;stroke-dasharray:2,3;stroke-miterlimit:10;" d="M 252.046875 2.367188 L 254.648438 0.105469 L 257 -0.355469 "/>
<path style="fill:none;stroke-width:1;stroke-linecap:round;stroke-linejoin:round;stroke:rgb(100%,100%,100%);stroke-opacity:1;stroke-dasharray:2,3;stroke-miterlimit:10;" d="M -2 194.175781 L 0.523438 195.355469 L 1.859375 198.402344 L 2.363281 201.523438 L 5.898438 207.261719 L 11.390625 210.652344 L 14.484375 213.902344 L 18.734375 218.089844 L 23.082031 221.328125 L 34.710938 226.730469 L 41.398438 231.476563 L 43.832031 232.398438 L 45.644531 231.265625 L 45.421875 224.902344 L 46.582031 221.953125 L 51.453125 219.828125 L 55.707031 216.707031 L 56.707031 209.148438 L 57.734375 204.371094 L 59.453125 200.828125 L 64.898438 181.976563 L 68.519531 174.773438 L 72.144531 172.714844 L 74.769531 167.703125 L 75.082031 163.339844 L 74.332031 158.964844 L 73.332031 149.828125 L 74.082031 144.902344 L 74.796875 142.996094 L 76.367188 140.761719 L 81.273438 133.539063 L 83.644531 128.214844 L 85.804688 121.167969 L 91.019531 114.902344 L 95.082031 112.777344 L 100.902344 102.789063 L 109.769531 97.777344 L 116.390625 95.921875 L 132.644531 95.453125 L 142.148438 100.230469 L 150.679688 103.539063 L 154.894531 109.578125 L 158.089844 110.039063 L 160.390625 109.058594 L 162.402344 106.789063 L 163.796875 104.214844 L 164.839844 103.351563 L 165.925781 104.160156 L 169.402344 107.917969 L 174.933594 108.089844 L 179.085938 106.726563 L 184.355469 105.554688 L 188.667969 101.976563 L 190.839844 98.230469 L 191.363281 95.585938 L 193.589844 95.542969 L 198.085938 97.386719 L 199.617188 95.792969 L 199.082031 94.242188 L 197.683594 92.667969 L 198.210938 89.214844 L 196.523438 88.351563 L 193.363281 87.308594 L 192.648438 85.425781 L 195.644531 79.371094 L 196.957031 72.933594 L 201.078125 68.460938 L 205.484375 63.121094 L 208.203125 58.058594 L 211.484375 48.367188 L 215.296875 40.558594 L 219.289063 33.824219 L 222.714844 31.179688 L 225.457031 28.386719 L 226.492188 25.214844 L 227.425781 22.488281 L 228.550781 21.273438 L 230.089844 20.164063 L 231.730469 19.296875 L 236.417969 16.417969 L 240.140625 13.054688 L 242.683594 8.855469 L 247.523438 4.378906 L 250.773438 2.863281 L 252.046875 2.367188 "/>
</g>
</svg>

