<?xml version="1.0" encoding="UTF-8"?>
<svg xmlns="http://www.w3.org/2000/svg" xmlns:xlink="http://www.w3.org/1999/xlink" width="256pt" height="256pt" viewBox="0 0 256 256" version="1.1">
<g id="surface2">
<rect x="0" y="0" width="256" height="256" style="fill:rgb(60%,70.196078%,80%);fill-opacity:1;stroke:none;"/>
<path style=" stroke:none;fill-rule:evenodd;fill:rgb(94.901961%,93.72549%,91.372549%);fill-opacity:1;" d="M -4 259 L -4 18.339844 L 259 18.339844 L 259 259 Z M -4 259 "/>
<path style=" stroke:none;fill-rule:evenodd;fill:rgb(94.901961%,93.72549%,91.372549%);fill-opacity:1;" d="M 259 39.273438 L -4 39.273438 L -4 -4 L 259 -4 Z M 259 39.273438 "/>
<path style="fill:none;stroke-width:2;stroke-linecap:round;stroke-linejoin:round;stroke:rgb(60%,70.196078%,80%);stroke-opacity:1;stroke-miterlimit:10;" d="M 195.300781 -3 L 176.898438 13.890625 L 159.398438 59.136719 L 146.898438 82.636719 L 116.648438 110.140625 L 108.648438 134.636719 L 97.648438 143.136719 L 83.148438 157.390625 L 77.648438 166.140625 L 68.148438 189.886719 L 54.648438 201.890625 L 35.148438 209.386719 L 25.898438 211.636719 L 18.398438 219.136719 L 14.398438 234.390625 L 11.148438 242.390625 L -2.601563 249.136719 L -3 249.476563 "/>
<path style="fill:none;stroke-width:1;stroke-linecap:round;stroke-linejoin:round;stroke:rgb(100%,100%,100%);stroke-opacity:1;stroke-dasharray:2,3;stroke-miterlimit:10;" d="M 48.53125 -2 L 52.113281 -0.125 L 66.394531 7.1875 L 74.753906 24.257813 L 73.882813 48.816406 L 80.851563 56.824219 L 91.824219 55.78125 L 108.367188 53.863281 L 126.828125 58.742188 L 139.019531 67.101563 L 149.292969 73.980469 L 156.261719 76.941406 L 163.921875 76.417969 L 176.984375 65.535156 L 189.175781 43.328125 L 193.878906 26.867188 L 196.230469 16.070313 L 205.289063 5.101563 L 226.011719 -0.300781 L 227.65625 -2 "/>
</g>
</svg>

