<?xml version="1.0" encoding="UTF-8"?>
<svg xmlns="http://www.w3.org/2000/svg" xmlns:xlink="http://www.w3.org/1999/xlink" width="256pt" height="256pt" viewBox="0 0 256 256" version="1.1">
<g id="surface2">
<rect x="0" y="0" width="256" height="256" style="fill:rgb(94.901961%,93.72549%,91.372549%);fill-opacity:1;stroke:none;"/>
<path style="fill:none;stroke-width:8;stroke-linecap:round;stroke-linejoin:round;stroke:rgb(75.686275%,70.980392%,61.568627%);stroke-opacity:1;stroke-miterlimit:10;" d="M 68.570313 -9 L 79.121094 -5.710938 L 85.339844 -0.902344 L 90.792969 6.191406 "/>
<path style="fill:none;stroke-width:8;stroke-linecap:round;stroke-linejoin:round;stroke:rgb(75.686275%,70.980392%,61.568627%);stroke-opacity:1;stroke-miterlimit:10;" d="M 135.675781 264 L 136.070313 260.242188 L 138.234375 252.964844 L 147.160156 230.136719 L 147.558594 227.480469 L 147.394531 225.417969 L 146.136719 220.109375 L 144.878906 213.019531 L 144.410156 206.492188 L 145.667969 186.566406 "/>
<path style="fill:none;stroke-width:8;stroke-linecap:round;stroke-linejoin:round;stroke:rgb(75.686275%,70.980392%,61.568627%);stroke-opacity:1;stroke-miterlimit:10;" d="M -9 82.171875 L -2.390625 71.59375 L 12.523438 45.203125 L 14.945313 39.890625 L 18.464844 28.710938 L 22.824219 11.25 L 24.898438 1.660156 L 26.816406 -9 "/>
<path style="fill:none;stroke-width:6;stroke-linecap:round;stroke-linejoin:round;stroke:rgb(100%,100%,100%);stroke-opacity:1;stroke-miterlimit:10;" d="M 68.570313 -9 L 79.121094 -5.710938 L 85.339844 -0.902344 L 90.792969 6.191406 "/>
<path style="fill:none;stroke-width:6;stroke-linecap:round;stroke-linejoin:round;stroke:rgb(100%,100%,100%);stroke-opacity:1;stroke-miterlimit:10;" d="M 135.675781 264 L 136.070313 260.242188 L 138.234375 252.964844 L 147.160156 230.136719 L 147.558594 227.480469 L 147.394531 225.417969 L 146.136719 220.109375 L 144.878906 213.019531 L 144.410156 206.492188 L 145.667969 186.566406 "/>
<path style="fill:none;stroke-width:6;stroke-linecap:round;stroke-linejoin:round;stroke:rgb(100%,100%,100%);stroke-opacity:1;stroke-miterlimit:10;" d="M -9 82.171875 L -2.390625 71.59375 L 12.523438 45.203125 L 14.945313 39.890625 L 18.464844 28.710938 L 22.824219 11.25 L 24.898438 1.660156 L 26.816406 -9 "/>
</g>
</svg>

