<?xml version="1.0" encoding="UTF-8"?>
<svg xmlns="http://www.w3.org/2000/svg" xmlns:xlink="http://www.w3.org/1999/xlink" width="256pt" height="256pt" viewBox="0 0 256 256" version="1.1">
<g id="surface2">
<rect x="0" y="0" width="256" height="256" style="fill:rgb(60%,70.196078%,80%);fill-opacity:1;stroke:none;"/>
<path style=" stroke:none;fill-rule:evenodd;fill:rgb(94.901961%,93.72549%,91.372549%);fill-opacity:1;" d="M -4 259 L -4 20.832031 L 259 20.832031 L 259 259 Z M -4 259 "/>
<path style=" stroke:none;fill-rule:evenodd;fill:rgb(94.901961%,93.72549%,91.372549%);fill-opacity:1;" d="M -4 -4 L 259 -4 L 259 41.761719 L -4 41.761719 Z M -4 -4 "/>
<path style=" stroke:none;fill-rule:evenodd;fill:rgb(94.901961%,93.72549%,91.372549%);fill-opacity:1;" d="M 260 260 L 260 -4 L 260 -0.976563 L 251.621094 -4 L 183.769531 -4 L 135.617188 83.632813 L 131.617188 121.136719 L 85.117188 145.136719 L 95.617188 179.636719 L 135.617188 161.136719 L 148.117188 185.636719 L 207.617188 160.136719 L 219.117188 187.632813 L 240.644531 260 Z M 260 260 "/>
<path style="fill:none;stroke-width:1;stroke-linecap:round;stroke-linejoin:round;stroke:rgb(89.019608%,87.058824%,83.137255%);stroke-opacity:1;stroke-miterlimit:10;" d="M 260 260 L 260 -4 L 260 -0.976563 L 251.621094 -4 L 183.769531 -4 L 135.617188 83.632813 L 131.617188 121.136719 L 85.117188 145.136719 L 95.617188 179.636719 L 135.617188 161.136719 L 148.117188 185.636719 L 207.617188 160.136719 L 219.117188 187.632813 L 240.644531 260 L 260 260 "/>
<path style=" stroke:none;fill-rule:evenodd;fill:rgb(70.980392%,82.352941%,61.176471%);fill-opacity:1;" d="M -4 178.53125 L -0.601563 179.71875 L 9.800781 164.917969 L 13.398438 150.316406 L 7.398438 74.320313 L 9.398438 55.917969 L 1.398438 44.320313 L -1.601563 32.71875 L -4 33.59375 L -4 -4 Z M -4 178.53125 "/>
<path style=" stroke:none;fill-rule:evenodd;fill:rgb(70.980392%,82.352941%,61.176471%);fill-opacity:1;" d="M 97.910156 244.003906 L 104.074219 260 L 234.628906 260 L 219.773438 204.769531 L 215.460938 189.683594 L 210.367188 179.570313 L 197.023438 186.019531 L 172.691406 197.386719 L 155.199219 206.242188 L 147.335938 186.820313 L 135.980469 159.304688 L 76.425781 188.265625 Z M 97.910156 244.003906 "/>
<path style=" stroke:none;fill-rule:evenodd;fill:rgb(79.607843%,84.705882%,76.470588%);fill-opacity:1;" d="M 28.839844 260 L 52.34375 260 L 53.363281 259.546875 L 63.5 246.214844 L 68.769531 242.523438 L 67.9375 239.191406 L 82.25 231.628906 L 97.910156 244.003906 L 101.738281 256.882813 L 102.777344 260 L 105.511719 260 L 96.96875 233.296875 L 114.613281 225.238281 L 126.832031 246.628906 L 129.613281 253.296875 L 138.636719 248.574219 L 133.21875 237.878906 L 127.945313 218.433594 L 139.195313 211.351563 L 146.28125 208.296875 L 155.199219 206.242188 L 147.335938 186.820313 L 135.980469 159.304688 L 76.425781 188.265625 L 68.074219 191.910156 L 66.6875 183.523438 L 56.074219 180.046875 L 40.101563 180.601563 L 33.996094 192.464844 L 32.878906 201.492188 L 47.1875 201.351563 L 56.277344 192.464844 L 58.714844 190.046875 L 62.601563 193.019531 L 62.746094 199.269531 L 59.269531 201.214844 L 57.660156 206.773438 L 31.558594 205.660156 L 24.632813 248.496094 Z M 28.839844 260 "/>
<path style=" stroke:none;fill-rule:evenodd;fill:rgb(79.607843%,84.705882%,76.470588%);fill-opacity:1;" d="M 179.953125 260 L 176.414063 248.433594 L 169.75 247.320313 L 173.859375 260 L 146.574219 260 L 144.199219 254.273438 L 131.976563 256.078125 L 123.113281 260 Z M 179.953125 260 "/>
<path style=" stroke:none;fill-rule:evenodd;fill:rgb(70.980392%,82.352941%,61.176471%);fill-opacity:1;" d="M 147.335938 186.820313 L 155.199219 206.242188 L 172.691406 197.386719 L 165.5625 179.0625 Z M 147.335938 186.820313 "/>
<path style=" stroke:none;fill-rule:evenodd;fill:rgb(81.960784%,81.568627%,80.392157%);fill-opacity:1;" d="M -0.628906 15.746094 L -0.25 29.746094 L 4.875 42.996094 L 12.75 42.371094 L 14.5625 11.527344 Z M -0.628906 15.746094 "/>
<path style="fill:none;stroke-width:1;stroke-linecap:round;stroke-linejoin:round;stroke:rgb(81.960784%,81.960784%,81.960784%);stroke-opacity:1;stroke-miterlimit:10;" d="M -0.628906 15.746094 L -0.25 29.746094 L 4.875 42.996094 L 12.75 42.371094 L 14.5625 11.527344 L -0.628906 15.746094 "/>
<path style=" stroke:none;fill-rule:evenodd;fill:rgb(70.980392%,82.352941%,61.176471%);fill-opacity:1;" d="M 189.761719 168.371094 L 197.023438 186.019531 L 210.367188 179.570313 L 203.320313 163.398438 Z M 189.761719 168.371094 "/>
<path style="fill:none;stroke-width:1;stroke-linecap:round;stroke-linejoin:round;stroke:rgb(100%,100%,100%);stroke-opacity:1;stroke-dasharray:2,3;stroke-miterlimit:10;" d="M 182.761719 223.121094 L 186.761719 219.742188 L 199.386719 215.746094 L 203.136719 216.121094 L 206.171875 225.1875 "/>
<path style="fill:none;stroke-width:1;stroke-linecap:round;stroke-linejoin:round;stroke:rgb(100%,100%,100%);stroke-opacity:1;stroke-dasharray:2,3;stroke-miterlimit:10;" d="M 159.636719 217.367188 L 175.386719 212.492188 L 180.636719 221.492188 L 182.761719 223.121094 L 186.144531 233.136719 "/>
<path style="fill:none;stroke-width:1;stroke-linecap:round;stroke-linejoin:round;stroke:rgb(100%,100%,100%);stroke-opacity:1;stroke-dasharray:2,3;stroke-miterlimit:10;" d="M 160.261719 247.242188 L 159.171875 243.839844 "/>
<path style="fill:none;stroke-width:1;stroke-linecap:round;stroke-linejoin:round;stroke:rgb(100%,100%,100%);stroke-opacity:1;stroke-dasharray:2,3;stroke-miterlimit:10;" d="M 168.523438 246.820313 L 166.761719 244.367188 L 166.269531 241.019531 L 165.761719 236.621094 L 162.761719 226.496094 L 159.886719 221.867188 L 159.636719 217.367188 "/>
<path style="fill:none;stroke-width:1;stroke-linecap:round;stroke-linejoin:round;stroke:rgb(100%,100%,100%);stroke-opacity:1;stroke-dasharray:2,3;stroke-miterlimit:10;" d="M 134.050781 257 L 133.023438 254.773438 "/>
<path style="fill:none;stroke-width:1;stroke-linecap:round;stroke-linejoin:round;stroke:rgb(100%,100%,100%);stroke-opacity:1;stroke-dasharray:2,3;stroke-miterlimit:10;" d="M 220.855469 257 L 218.636719 247.121094 L 210.761719 247.242188 L 196.636719 250.621094 L 192.011719 249.242188 L 184.761719 251.496094 L 178.261719 251.496094 "/>
<path style="fill:none;stroke-width:1;stroke-linecap:round;stroke-linejoin:round;stroke:rgb(100%,100%,100%);stroke-opacity:1;stroke-dasharray:2,3;stroke-miterlimit:10;" d="M 143.363281 250.222656 L 138.761719 245.246094 L 134.261719 234.367188 L 130.511719 219.246094 L 143.261719 212.621094 L 147.011719 212.621094 L 152.386719 217.496094 L 159.636719 217.367188 "/>
<path style="fill:none;stroke-width:1;stroke-linecap:round;stroke-linejoin:round;stroke:rgb(100%,100%,100%);stroke-opacity:1;stroke-dasharray:2,3;stroke-miterlimit:10;" d="M 180.214844 257 L 177.386719 247.746094 L 172.511719 246.621094 L 168.523438 246.820313 L 160.261719 247.242188 L 150.941406 257 "/>
<path style="fill:none;stroke-width:1;stroke-linecap:round;stroke-linejoin:round;stroke:rgb(100%,100%,100%);stroke-opacity:1;stroke-dasharray:2,3;stroke-miterlimit:10;" d="M 145.941406 249.089844 L 149.089844 257 "/>
<path style="fill:none;stroke-width:8;stroke-linecap:round;stroke-linejoin:round;stroke:rgb(75.686275%,70.980392%,61.568627%);stroke-opacity:1;stroke-miterlimit:10;" d="M 38.09375 -1.824219 L 37.828125 0.25 L 37.402344 2.277344 L 37.667969 4.460938 L 39.90625 11.332031 "/>
<path style="fill:none;stroke-width:8;stroke-linecap:round;stroke-linejoin:round;stroke:rgb(75.686275%,70.980392%,61.568627%);stroke-opacity:1;stroke-miterlimit:10;" d="M 225.453125 128.300781 L 227.222656 130.210938 L 236.167969 136.832031 "/>
<path style="fill:none;stroke-width:8;stroke-linecap:round;stroke-linejoin:round;stroke:rgb(75.686275%,70.980392%,61.568627%);stroke-opacity:1;stroke-miterlimit:10;" d="M 17.511719 29.996094 L 11.683594 27.152344 L 4.6875 27.402344 L -6.125 22.746094 "/>
<path style="fill:none;stroke-width:8;stroke-linecap:round;stroke-linejoin:round;stroke:rgb(75.686275%,70.980392%,61.568627%);stroke-opacity:1;stroke-miterlimit:10;" d="M 35.589844 -9 L 36.871094 -3.046875 L 38.09375 -1.824219 L 40.117188 -1.238281 L 41.714844 -0.121094 L 42.621094 1.851563 L 43.207031 2.863281 L 45.230469 3.128906 L 50.558594 1.582031 L 53.914063 0.519531 L 55.5625 -0.863281 L 55.832031 -2.570313 L 55.351563 -5.496094 L 55.511719 -6.988281 L 56.363281 -7.578125 L 61.664063 -9 "/>
<path style="fill:none;stroke-width:8;stroke-linecap:round;stroke-linejoin:round;stroke:rgb(75.686275%,70.980392%,61.568627%);stroke-opacity:1;stroke-miterlimit:10;" d="M 245.878906 125.390625 L 236.167969 136.832031 L 233.226563 140.304688 L 242.773438 148.007813 L 243.113281 149.578125 L 242.089844 151.757813 L 240.113281 154.351563 L 237.519531 156.257813 L 235.40625 156.054688 L 234.316406 154.757813 L 232.953125 152.167969 L 225.109375 133.550781 L 225.859375 131.574219 L 227.222656 130.210938 "/>
<path style="fill:none;stroke-width:8;stroke-linecap:round;stroke-linejoin:round;stroke:rgb(75.686275%,70.980392%,61.568627%);stroke-opacity:1;stroke-miterlimit:10;" d="M 250.242188 170.792969 L 259.234375 169.960938 L 264 168.40625 "/>
<path style="fill:none;stroke-width:8;stroke-linecap:round;stroke-linejoin:round;stroke:rgb(75.686275%,70.980392%,61.568627%);stroke-opacity:1;stroke-miterlimit:10;" d="M 68.050781 264 L 74.660156 255.226563 L 70.394531 252.007813 L 59.40625 264 "/>
<path style="fill:none;stroke-width:8;stroke-linecap:round;stroke-linejoin:round;stroke:rgb(75.686275%,70.980392%,61.568627%);stroke-opacity:1;stroke-miterlimit:10;" d="M 226.496094 219.882813 L 206.171875 225.1875 L 186.144531 233.136719 L 166.269531 241.019531 L 159.171875 243.839844 L 145.941406 249.089844 L 143.363281 250.222656 L 133.023438 254.773438 L 112.0625 264 "/>
<path style="fill:none;stroke-width:10;stroke-linecap:round;stroke-linejoin:round;stroke:rgb(72.941176%,43.137255%,15.294118%);stroke-opacity:1;stroke-miterlimit:10;" d="M 161.824219 -11 L 158.964844 -6.6875 L 155.960938 -3.886719 L 152.160156 -1.484375 L 148.5625 -0.285156 L 143.960938 0.3125 L 142.292969 -0.710938 "/>
<path style="fill:none;stroke-width:10;stroke-linecap:round;stroke-linejoin:round;stroke:rgb(72.941176%,43.137255%,15.294118%);stroke-opacity:1;stroke-miterlimit:10;" d="M 34.964844 157.914063 L 42.5625 147.113281 L 49.164063 139.113281 L 56.164063 131.3125 L 63.5625 123.910156 L 71.363281 117.113281 L 79.964844 110.710938 L 88.5625 104.710938 L 102.164063 96.515625 L 108.4375 93.769531 L 112.574219 92.679688 "/>
<path style="fill:none;stroke-width:10;stroke-linecap:round;stroke-linejoin:round;stroke:rgb(72.941176%,43.137255%,15.294118%);stroke-opacity:1;stroke-miterlimit:10;" d="M 121.695313 43.347656 L 121.164063 46.511719 L 117.164063 52.3125 L 111.5625 61.113281 L 105.5625 68.914063 L 98.164063 76.714844 L 89.5625 84.3125 L 73.964844 97.714844 L 66.164063 105.3125 L 58.765625 113.3125 L 51.960938 122.3125 L 46.363281 130.710938 "/>
<path style="fill:none;stroke-width:10;stroke-linecap:round;stroke-linejoin:round;stroke:rgb(72.941176%,43.137255%,15.294118%);stroke-opacity:1;stroke-miterlimit:10;" d="M 7.773438 230.820313 L 3.675781 240.050781 L -0.328125 248.652344 L -4.726563 257.050781 L -9.925781 265.652344 L -10.179688 266 "/>
<path style="fill:none;stroke-width:10;stroke-linecap:round;stroke-linejoin:round;stroke:rgb(72.941176%,43.137255%,15.294118%);stroke-opacity:1;stroke-miterlimit:10;" d="M -0.203125 266 L 5.972656 250.425781 "/>
<path style="fill:none;stroke-width:8;stroke-linecap:round;stroke-linejoin:round;stroke:rgb(75.686275%,70.980392%,61.568627%);stroke-opacity:1;stroke-miterlimit:10;" d="M 157.445313 46.539063 L 148.960938 49.914063 "/>
<path style="fill:none;stroke-width:8;stroke-linecap:round;stroke-linejoin:round;stroke:rgb(75.686275%,70.980392%,61.568627%);stroke-opacity:1;stroke-miterlimit:10;" d="M 13.8125 85.046875 L 22.871094 97.277344 "/>
<path style="fill:none;stroke-width:8;stroke-linecap:round;stroke-linejoin:round;stroke:rgb(75.686275%,70.980392%,61.568627%);stroke-opacity:1;stroke-miterlimit:10;" d="M 143.429688 73.59375 L 161.300781 74.714844 "/>
<path style="fill:none;stroke-width:8;stroke-linecap:round;stroke-linejoin:round;stroke:rgb(75.686275%,70.980392%,61.568627%);stroke-opacity:1;stroke-miterlimit:10;" d="M 143.429688 73.59375 L 145.734375 70.515625 L 149.113281 64.964844 L 151.964844 56.460938 "/>
<path style="fill:none;stroke-width:8;stroke-linecap:round;stroke-linejoin:round;stroke:rgb(75.686275%,70.980392%,61.568627%);stroke-opacity:1;stroke-miterlimit:10;" d="M 140.34375 30.933594 L 121.695313 43.347656 "/>
<path style="fill:none;stroke-width:8;stroke-linecap:round;stroke-linejoin:round;stroke:rgb(75.686275%,70.980392%,61.568627%);stroke-opacity:1;stroke-miterlimit:10;" d="M 262.554688 81.710938 L 249.621094 55.382813 "/>
<path style="fill:none;stroke-width:8;stroke-linecap:round;stroke-linejoin:round;stroke:rgb(75.686275%,70.980392%,61.568627%);stroke-opacity:1;stroke-miterlimit:10;" d="M 177.828125 54.859375 L 179.191406 56.820313 L 182.492188 58.488281 L 205.6875 64.164063 "/>
<path style="fill:none;stroke-width:8;stroke-linecap:round;stroke-linejoin:round;stroke:rgb(75.686275%,70.980392%,61.568627%);stroke-opacity:1;stroke-miterlimit:10;" d="M 30.445313 27.882813 L 58.359375 14.53125 "/>
<path style="fill:none;stroke-width:8;stroke-linecap:round;stroke-linejoin:round;stroke:rgb(75.686275%,70.980392%,61.568627%);stroke-opacity:1;stroke-miterlimit:10;" d="M 22.871094 97.277344 L 38.25 125.144531 "/>
<path style="fill:none;stroke-width:8;stroke-linecap:round;stroke-linejoin:round;stroke:rgb(75.686275%,70.980392%,61.568627%);stroke-opacity:1;stroke-miterlimit:10;" d="M 116.441406 151.722656 L 123.859375 148.234375 L 131.058594 145.769531 L 137.074219 145.289063 L 142.992188 145.289063 L 148.003906 146.042969 "/>
<path style="fill:none;stroke-width:8;stroke-linecap:round;stroke-linejoin:round;stroke:rgb(75.686275%,70.980392%,61.568627%);stroke-opacity:1;stroke-miterlimit:10;" d="M 144.089844 99.449219 L 151.796875 99.964844 L 156.019531 100.539063 L 159.21875 101.949219 L 162.484375 104.378906 L 166.703125 109.308594 L 169.90625 116.347656 "/>
<path style="fill:none;stroke-width:8;stroke-linecap:round;stroke-linejoin:round;stroke:rgb(75.686275%,70.980392%,61.568627%);stroke-opacity:1;stroke-miterlimit:10;" d="M 217.417969 189.769531 L 251.207031 187.183594 "/>
<path style="fill:none;stroke-width:8;stroke-linecap:round;stroke-linejoin:round;stroke:rgb(75.686275%,70.980392%,61.568627%);stroke-opacity:1;stroke-miterlimit:10;" d="M 112.574219 92.679688 L 120.75 85.675781 L 125.308594 82.027344 L 131.179688 78.046875 L 135.164063 75.777344 L 139.785156 74.105469 L 143.429688 73.59375 "/>
<path style="fill:none;stroke-width:8;stroke-linecap:round;stroke-linejoin:round;stroke:rgb(75.686275%,70.980392%,61.568627%);stroke-opacity:1;stroke-miterlimit:10;" d="M 169.78125 174.019531 L 205.113281 159.625 "/>
<path style="fill:none;stroke-width:8;stroke-linecap:round;stroke-linejoin:round;stroke:rgb(75.686275%,70.980392%,61.568627%);stroke-opacity:1;stroke-miterlimit:10;" d="M 148.003906 146.042969 L 147.953125 151.367188 L 148.402344 156.710938 L 149.839844 162.4375 L 152.144531 166.917969 L 154.894531 170.308594 L 158.574219 173.027344 L 162.285156 174.277344 L 166.351563 174.53125 L 169.78125 174.019531 "/>
<path style="fill:none;stroke-width:8;stroke-linecap:round;stroke-linejoin:round;stroke:rgb(75.686275%,70.980392%,61.568627%);stroke-opacity:1;stroke-miterlimit:10;" d="M 121.695313 43.347656 L 85.066406 68.792969 "/>
<path style="fill:none;stroke-width:8;stroke-linecap:round;stroke-linejoin:round;stroke:rgb(75.686275%,70.980392%,61.568627%);stroke-opacity:1;stroke-miterlimit:10;" d="M 120.164063 -9 L 129.792969 11.09375 L 140.34375 30.933594 "/>
<path style="fill:none;stroke-width:8;stroke-linecap:round;stroke-linejoin:round;stroke:rgb(75.686275%,70.980392%,61.568627%);stroke-opacity:1;stroke-miterlimit:10;" d="M 98.183594 -4.757813 L 111.722656 23.542969 L 121.695313 43.347656 "/>
<path style="fill:none;stroke-width:8;stroke-linecap:round;stroke-linejoin:round;stroke:rgb(75.686275%,70.980392%,61.568627%);stroke-opacity:1;stroke-miterlimit:10;" d="M 186.378906 33.789063 L 239.5 46.484375 "/>
<path style="fill:none;stroke-width:8;stroke-linecap:round;stroke-linejoin:round;stroke:rgb(75.686275%,70.980392%,61.568627%);stroke-opacity:1;stroke-miterlimit:10;" d="M 189.527344 108.410156 L 169.90625 116.347656 L 163.761719 119.929688 L 159.28125 124.921875 L 154.292969 131.382813 L 151.09375 137.589844 L 148.003906 146.042969 "/>
<path style="fill:none;stroke-width:8;stroke-linecap:round;stroke-linejoin:round;stroke:rgb(75.686275%,70.980392%,61.568627%);stroke-opacity:1;stroke-miterlimit:10;" d="M 58.359375 14.53125 L 75.441406 48.953125 L 85.066406 68.792969 "/>
<path style="fill:none;stroke-width:8;stroke-linecap:round;stroke-linejoin:round;stroke:rgb(75.686275%,70.980392%,61.568627%);stroke-opacity:1;stroke-miterlimit:10;" d="M 71.535156 -9 L 93.570313 36.25 "/>
<path style="fill:none;stroke-width:8;stroke-linecap:round;stroke-linejoin:round;stroke:rgb(75.686275%,70.980392%,61.568627%);stroke-opacity:1;stroke-miterlimit:10;" d="M -9 198.21875 L 3.257813 197.046875 "/>
<path style="fill:none;stroke-width:8;stroke-linecap:round;stroke-linejoin:round;stroke:rgb(75.686275%,70.980392%,61.568627%);stroke-opacity:1;stroke-miterlimit:10;" d="M 151.964844 56.460938 L 152.121094 59.523438 L 153 62.929688 L 153.867188 66.109375 L 156.351563 69.378906 L 161.300781 74.714844 L 176.617188 86.867188 L 179.535156 89.023438 L 184.179688 96.425781 L 187.109375 104.828125 L 189.527344 108.410156 "/>
<path style="fill:none;stroke-width:8;stroke-linecap:round;stroke-linejoin:round;stroke:rgb(75.686275%,70.980392%,61.568627%);stroke-opacity:1;stroke-miterlimit:10;" d="M 189.527344 108.410156 L 189.804688 103.121094 L 187 95.5 L 184.765625 91.492188 L 181.484375 87.21875 L 178.207031 84.792969 L 164.175781 72.71875 L 158.808594 67.570313 L 156.683594 64.859375 L 155.523438 62.261719 L 153.925781 59.429688 L 151.964844 56.460938 "/>
<path style="fill:none;stroke-width:8;stroke-linecap:round;stroke-linejoin:round;stroke:rgb(75.686275%,70.980392%,61.568627%);stroke-opacity:1;stroke-miterlimit:10;" d="M 16.464844 51.136719 L 36.921875 81.589844 L 52.933594 107.425781 "/>
<path style="fill:none;stroke-width:8;stroke-linecap:round;stroke-linejoin:round;stroke:rgb(75.686275%,70.980392%,61.568627%);stroke-opacity:1;stroke-miterlimit:10;" d="M 249.621094 55.382813 L 264 45.75 "/>
<path style="fill:none;stroke-width:8;stroke-linecap:round;stroke-linejoin:round;stroke:rgb(75.686275%,70.980392%,61.568627%);stroke-opacity:1;stroke-miterlimit:10;" d="M 145.128906 -7.59375 L 142.292969 -0.710938 L 140.105469 5.519531 L 138.675781 11.398438 L 138.636719 19.386719 L 140.34375 30.933594 L 148.960938 49.914063 L 151.964844 56.460938 "/>
<path style="fill:none;stroke-width:8;stroke-linecap:round;stroke-linejoin:round;stroke:rgb(75.686275%,70.980392%,61.568627%);stroke-opacity:1;stroke-miterlimit:10;" d="M 177.828125 54.859375 L 177.238281 52.195313 L 177.78125 48.898438 L 186.378906 33.789063 L 198.660156 5.117188 L 203.695313 -9 "/>
<path style="fill:none;stroke-width:8;stroke-linecap:round;stroke-linejoin:round;stroke:rgb(75.686275%,70.980392%,61.568627%);stroke-opacity:1;stroke-miterlimit:10;" d="M -9 248.371094 L -8.550781 247.023438 L -6.8125 236.921875 L -2.902344 216.894531 L 0.175781 202.269531 L 3.257813 197.046875 "/>
<path style="fill:none;stroke-width:8;stroke-linecap:round;stroke-linejoin:round;stroke:rgb(75.686275%,70.980392%,61.568627%);stroke-opacity:1;stroke-miterlimit:10;" d="M 264 29.265625 L 254.210938 25.390625 L 198.660156 5.117188 "/>
<path style="fill:none;stroke-width:8;stroke-linecap:round;stroke-linejoin:round;stroke:rgb(75.686275%,70.980392%,61.568627%);stroke-opacity:1;stroke-miterlimit:10;" d="M 242.359375 264 L 256.128906 257.480469 L 261.359375 255 L 264 252.332031 "/>
<path style="fill:none;stroke-width:8;stroke-linecap:round;stroke-linejoin:round;stroke:rgb(75.686275%,70.980392%,61.568627%);stroke-opacity:1;stroke-miterlimit:10;" d="M 19.472656 10.214844 L 30.445313 27.882813 L 53.492188 65.132813 L 70.710938 91.402344 "/>
<path style="fill:none;stroke-width:8;stroke-linecap:round;stroke-linejoin:round;stroke:rgb(75.686275%,70.980392%,61.568627%);stroke-opacity:1;stroke-miterlimit:10;" d="M 205.6875 64.164063 L 209.074219 64.246094 L 225.386719 59.4375 L 231.160156 56.519531 L 235.742188 52.445313 L 239.5 46.484375 L 254.210938 25.390625 L 264 11.414063 "/>
<path style="fill:none;stroke-width:8;stroke-linecap:round;stroke-linejoin:round;stroke:rgb(75.686275%,70.980392%,61.568627%);stroke-opacity:1;stroke-miterlimit:10;" d="M 250.242188 170.792969 L 251.207031 187.183594 L 254.398438 214.191406 L 264 222.613281 "/>
<path style="fill:none;stroke-width:8;stroke-linecap:round;stroke-linejoin:round;stroke:rgb(75.686275%,70.980392%,61.568627%);stroke-opacity:1;stroke-miterlimit:10;" d="M 250.242188 170.792969 L 250.414063 168.578125 L 251.4375 164.453125 L 252.417969 162.148438 L 254.375 158.917969 L 255.960938 157.011719 L 257.542969 155.503906 L 264 148.144531 "/>
<path style="fill:none;stroke-width:8;stroke-linecap:round;stroke-linejoin:round;stroke:rgb(75.686275%,70.980392%,61.568627%);stroke-opacity:1;stroke-miterlimit:10;" d="M 18.363281 160.910156 L 38.25 125.144531 L 52.933594 107.425781 L 70.710938 91.402344 L 89.519531 76.484375 L 85.066406 68.792969 "/>
<path style="fill:none;stroke-width:8;stroke-linecap:round;stroke-linejoin:round;stroke:rgb(75.686275%,70.980392%,61.568627%);stroke-opacity:1;stroke-miterlimit:10;" d="M 189.527344 108.410156 L 197.847656 106.15625 L 213.65625 107.363281 L 224.761719 109.769531 L 233.472656 114.964844 L 245.878906 125.390625 L 264 140.625 "/>
<path style="fill:none;stroke-width:8;stroke-linecap:round;stroke-linejoin:round;stroke:rgb(75.686275%,70.980392%,61.568627%);stroke-opacity:1;stroke-miterlimit:10;" d="M 223.949219 -9 L 264 5.417969 "/>
<path style="fill:none;stroke-width:8;stroke-linecap:round;stroke-linejoin:round;stroke:rgb(75.686275%,70.980392%,61.568627%);stroke-opacity:1;stroke-miterlimit:10;" d="M 233.472656 114.964844 L 262.554688 81.710938 L 264 81.554688 "/>
<path style="fill:none;stroke-width:8;stroke-linecap:round;stroke-linejoin:round;stroke:rgb(75.686275%,70.980392%,61.568627%);stroke-opacity:1;stroke-miterlimit:10;" d="M 15.347656 104.167969 L 22.871094 97.277344 L 36.921875 81.589844 L 53.492188 65.132813 L 75.441406 48.953125 L 93.570313 36.25 L 111.722656 23.542969 L 129.792969 11.09375 L 138.675781 11.398438 "/>
<path style="fill:none;stroke-width:8;stroke-linecap:round;stroke-linejoin:round;stroke:rgb(75.686275%,70.980392%,61.568627%);stroke-opacity:1;stroke-miterlimit:10;" d="M -9 1.855469 L 12.0625 -3.402344 L 31.964844 -9 "/>
<path style="fill:none;stroke-width:8;stroke-linecap:round;stroke-linejoin:round;stroke:rgb(75.686275%,70.980392%,61.568627%);stroke-opacity:1;stroke-miterlimit:10;" d="M 21.800781 249.285156 L 24.425781 234.566406 L 26.644531 219.425781 L 32.515625 192.039063 L 39.152344 174.078125 L 45.355469 162.507813 L 48.769531 156.675781 L 53.089844 148.847656 L 56.792969 142.980469 L 61.679688 136.746094 L 67.109375 129.726563 L 84.355469 111.613281 L 93.363281 105.289063 L 100.011719 100.34375 L 107.558594 95.964844 L 112.574219 92.679688 "/>
<path style="fill:none;stroke-width:8;stroke-linecap:round;stroke-linejoin:round;stroke:rgb(75.686275%,70.980392%,61.568627%);stroke-opacity:1;stroke-miterlimit:10;" d="M 151.964844 56.460938 L 157.445313 46.539063 L 175.164063 17.359375 L 184.765625 -9 "/>
<path style="fill:none;stroke-width:8;stroke-linecap:round;stroke-linejoin:round;stroke:rgb(75.686275%,70.980392%,61.568627%);stroke-opacity:1;stroke-miterlimit:10;" d="M 189.527344 108.410156 L 205.113281 159.625 L 217.417969 189.769531 L 226.496094 219.882813 L 239.789063 264 "/>
<path style="fill:none;stroke-width:8;stroke-linecap:round;stroke-linejoin:round;stroke:rgb(75.686275%,70.980392%,61.568627%);stroke-opacity:1;stroke-miterlimit:10;" d="M 9.023438 -9 L 12.0625 -3.402344 L 19.472656 10.214844 "/>
<path style="fill:none;stroke-width:8;stroke-linecap:round;stroke-linejoin:round;stroke:rgb(75.686275%,70.980392%,61.568627%);stroke-opacity:1;stroke-miterlimit:10;" d="M 19.472656 10.214844 L 17.511719 29.996094 L 16.464844 51.136719 L 14.1875 67.984375 L 13.8125 85.046875 L 15.347656 104.167969 L 18.363281 160.910156 L 3.257813 197.046875 L 7.765625 216.113281 L 21.800781 249.285156 L 28.023438 264 "/>
<path style="fill:none;stroke-width:11;stroke-linecap:round;stroke-linejoin:round;stroke:rgb(72.941176%,43.137255%,15.294118%);stroke-opacity:1;stroke-miterlimit:10;" d="M -1.945313 267 L 1.574219 260.222656 L 5.972656 250.425781 L 9.375 241.425781 L 11.261719 236.941406 "/>
<path style="fill:none;stroke-width:11;stroke-linecap:round;stroke-linejoin:round;stroke:rgb(72.941176%,43.137255%,15.294118%);stroke-opacity:1;stroke-miterlimit:10;" d="M 7.773438 230.820313 L 3.375 243.625 L -1.828125 255.820313 L -7.417969 267 "/>
<path style="fill:none;stroke-width:11;stroke-linecap:round;stroke-linejoin:round;stroke:rgb(72.941176%,43.137255%,15.294118%);stroke-opacity:1;stroke-miterlimit:10;" d="M 139.363281 45.113281 L 131.363281 54.714844 L 122.761719 63.710938 L 112.761719 72.511719 L 102.5625 80.3125 L 83.164063 94.3125 L 72.960938 102.511719 L 63.363281 111.113281 L 54.5625 120.511719 L 46.363281 130.710938 L 38.761719 141.710938 L 32.164063 152.910156 L 26.363281 164.714844 L 21.363281 177.113281 L 17.164063 189.714844 L 14.164063 202.511719 L 12.363281 211.910156 "/>
<path style="fill:none;stroke-width:11;stroke-linecap:round;stroke-linejoin:round;stroke:rgb(72.941176%,43.137255%,15.294118%);stroke-opacity:1;stroke-miterlimit:10;" d="M 15.761719 219.113281 L 18.761719 204.710938 L 21.761719 191.714844 L 25.5625 179.710938 L 29.363281 169.910156 L 34.964844 157.914063 L 41.363281 146.914063 L 48.761719 135.515625 L 56.761719 125.3125 L 65.5625 115.714844 L 75.164063 106.914063 L 85.363281 98.914063 L 104.363281 84.910156 L 115.164063 76.914063 L 124.960938 68.3125 L 134.164063 58.914063 L 141.761719 49.914063 "/>
<path style="fill:none;stroke-width:11;stroke-linecap:round;stroke-linejoin:round;stroke:rgb(72.941176%,43.137255%,15.294118%);stroke-opacity:1;stroke-miterlimit:10;" d="M 169.285156 -12 L 168.5625 -10.085938 L 163.960938 2.3125 L 158.964844 14.3125 L 153.964844 23.714844 L 148.5625 32.3125 "/>
<path style="fill:none;stroke-width:11;stroke-linecap:round;stroke-linejoin:round;stroke:rgb(72.941176%,43.137255%,15.294118%);stroke-opacity:1;stroke-miterlimit:10;" d="M 150.5625 37.914063 L 156.960938 27.914063 L 163.164063 16.511719 L 168.363281 4.511719 L 172.964844 -7.886719 L 174.515625 -12 "/>
<path style="fill:none;stroke-width:6;stroke-linecap:round;stroke-linejoin:round;stroke:rgb(100%,100%,100%);stroke-opacity:1;stroke-miterlimit:10;" d="M 38.09375 -1.824219 L 37.828125 0.25 L 37.402344 2.277344 L 37.667969 4.460938 L 39.90625 11.332031 "/>
<path style="fill:none;stroke-width:6;stroke-linecap:round;stroke-linejoin:round;stroke:rgb(100%,100%,100%);stroke-opacity:1;stroke-miterlimit:10;" d="M 225.453125 128.300781 L 227.222656 130.210938 L 236.167969 136.832031 "/>
<path style="fill:none;stroke-width:6;stroke-linecap:round;stroke-linejoin:round;stroke:rgb(100%,100%,100%);stroke-opacity:1;stroke-miterlimit:10;" d="M 17.511719 29.996094 L 11.683594 27.152344 L 4.6875 27.402344 L -6.125 22.746094 "/>
<path style="fill:none;stroke-width:6;stroke-linecap:round;stroke-linejoin:round;stroke:rgb(100%,100%,100%);stroke-opacity:1;stroke-miterlimit:10;" d="M 35.589844 -9 L 36.871094 -3.046875 L 38.09375 -1.824219 L 40.117188 -1.238281 L 41.714844 -0.121094 L 42.621094 1.851563 L 43.207031 2.863281 L 45.230469 3.128906 L 50.558594 1.582031 L 53.914063 0.519531 L 55.5625 -0.863281 L 55.832031 -2.570313 L 55.351563 -5.496094 L 55.511719 -6.988281 L 56.363281 -7.578125 L 61.664063 -9 "/>
<path style="fill:none;stroke-width:6;stroke-linecap:round;stroke-linejoin:round;stroke:rgb(100%,100%,100%);stroke-opacity:1;stroke-miterlimit:10;" d="M 245.878906 125.390625 L 236.167969 136.832031 L 233.226563 140.304688 L 242.773438 148.007813 L 243.113281 149.578125 L 242.089844 151.757813 L 240.113281 154.351563 L 237.519531 156.257813 L 235.40625 156.054688 L 234.316406 154.757813 L 232.953125 152.167969 L 225.109375 133.550781 L 225.859375 131.574219 L 227.222656 130.210938 "/>
<path style="fill:none;stroke-width:6;stroke-linecap:round;stroke-linejoin:round;stroke:rgb(100%,100%,100%);stroke-opacity:1;stroke-miterlimit:10;" d="M 250.242188 170.792969 L 259.234375 169.960938 L 264 168.40625 "/>
<path style="fill:none;stroke-width:6;stroke-linecap:round;stroke-linejoin:round;stroke:rgb(100%,100%,100%);stroke-opacity:1;stroke-miterlimit:10;" d="M 68.050781 264 L 74.660156 255.226563 L 70.394531 252.007813 L 59.40625 264 "/>
<path style="fill:none;stroke-width:6;stroke-linecap:round;stroke-linejoin:round;stroke:rgb(100%,100%,100%);stroke-opacity:1;stroke-miterlimit:10;" d="M 226.496094 219.882813 L 206.171875 225.1875 L 186.144531 233.136719 L 166.269531 241.019531 L 159.171875 243.839844 L 145.941406 249.089844 L 143.363281 250.222656 L 133.023438 254.773438 L 112.0625 264 "/>
<path style="fill:none;stroke-width:8;stroke-linecap:round;stroke-linejoin:round;stroke:rgb(99.215686%,57.254902%,22.745098%);stroke-opacity:1;stroke-miterlimit:10;" d="M 161.824219 -11 L 158.964844 -6.6875 L 155.960938 -3.886719 L 152.160156 -1.484375 L 148.5625 -0.285156 L 143.960938 0.3125 L 142.292969 -0.710938 "/>
<path style="fill:none;stroke-width:8;stroke-linecap:round;stroke-linejoin:round;stroke:rgb(99.215686%,57.254902%,22.745098%);stroke-opacity:1;stroke-miterlimit:10;" d="M 34.964844 157.914063 L 42.5625 147.113281 L 49.164063 139.113281 L 56.164063 131.3125 L 63.5625 123.910156 L 71.363281 117.113281 L 79.964844 110.710938 L 88.5625 104.710938 L 102.164063 96.515625 L 108.4375 93.769531 L 112.574219 92.679688 "/>
<path style="fill:none;stroke-width:8;stroke-linecap:round;stroke-linejoin:round;stroke:rgb(99.215686%,57.254902%,22.745098%);stroke-opacity:1;stroke-miterlimit:10;" d="M 121.695313 43.347656 L 121.164063 46.511719 L 117.164063 52.3125 L 111.5625 61.113281 L 105.5625 68.914063 L 98.164063 76.714844 L 89.5625 84.3125 L 73.964844 97.714844 L 66.164063 105.3125 L 58.765625 113.3125 L 51.960938 122.3125 L 46.363281 130.710938 "/>
<path style="fill:none;stroke-width:8;stroke-linecap:round;stroke-linejoin:round;stroke:rgb(99.215686%,57.254902%,22.745098%);stroke-opacity:1;stroke-miterlimit:10;" d="M 7.773438 230.820313 L 3.675781 240.050781 L -0.328125 248.652344 L -4.726563 257.050781 L -9.925781 265.652344 L -10.179688 266 "/>
<path style="fill:none;stroke-width:8;stroke-linecap:round;stroke-linejoin:round;stroke:rgb(99.215686%,57.254902%,22.745098%);stroke-opacity:1;stroke-miterlimit:10;" d="M -0.203125 266 L 5.972656 250.425781 "/>
<path style="fill:none;stroke-width:6;stroke-linecap:round;stroke-linejoin:round;stroke:rgb(100%,100%,100%);stroke-opacity:1;stroke-miterlimit:10;" d="M 157.445313 46.539063 L 148.960938 49.914063 "/>
<path style="fill:none;stroke-width:6;stroke-linecap:round;stroke-linejoin:round;stroke:rgb(100%,100%,100%);stroke-opacity:1;stroke-miterlimit:10;" d="M 13.8125 85.046875 L 22.871094 97.277344 "/>
<path style="fill:none;stroke-width:6;stroke-linecap:round;stroke-linejoin:round;stroke:rgb(100%,100%,100%);stroke-opacity:1;stroke-miterlimit:10;" d="M 143.429688 73.59375 L 161.300781 74.714844 "/>
<path style="fill:none;stroke-width:6;stroke-linecap:round;stroke-linejoin:round;stroke:rgb(100%,100%,100%);stroke-opacity:1;stroke-miterlimit:10;" d="M 143.429688 73.59375 L 145.734375 70.515625 L 149.113281 64.964844 L 151.964844 56.460938 "/>
<path style="fill:none;stroke-width:6;stroke-linecap:round;stroke-linejoin:round;stroke:rgb(100%,100%,100%);stroke-opacity:1;stroke-miterlimit:10;" d="M 140.34375 30.933594 L 121.695313 43.347656 "/>
<path style="fill:none;stroke-width:6;stroke-linecap:round;stroke-linejoin:round;stroke:rgb(100%,100%,100%);stroke-opacity:1;stroke-miterlimit:10;" d="M 262.554688 81.710938 L 249.621094 55.382813 "/>
<path style="fill:none;stroke-width:6;stroke-linecap:round;stroke-linejoin:round;stroke:rgb(100%,100%,100%);stroke-opacity:1;stroke-miterlimit:10;" d="M 177.828125 54.859375 L 179.191406 56.820313 L 182.492188 58.488281 L 205.6875 64.164063 "/>
<path style="fill:none;stroke-width:6;stroke-linecap:round;stroke-linejoin:round;stroke:rgb(100%,100%,100%);stroke-opacity:1;stroke-miterlimit:10;" d="M 30.445313 27.882813 L 58.359375 14.53125 "/>
<path style="fill:none;stroke-width:6;stroke-linecap:round;stroke-linejoin:round;stroke:rgb(100%,100%,100%);stroke-opacity:1;stroke-miterlimit:10;" d="M 22.871094 97.277344 L 38.25 125.144531 "/>
<path style="fill:none;stroke-width:6;stroke-linecap:round;stroke-linejoin:round;stroke:rgb(100%,100%,100%);stroke-opacity:1;stroke-miterlimit:10;" d="M 116.441406 151.722656 L 123.859375 148.234375 L 131.058594 145.769531 L 137.074219 145.289063 L 142.992188 145.289063 L 148.003906 146.042969 "/>
<path style="fill:none;stroke-width:6;stroke-linecap:round;stroke-linejoin:round;stroke:rgb(100%,100%,100%);stroke-opacity:1;stroke-miterlimit:10;" d="M 144.089844 99.449219 L 151.796875 99.964844 L 156.019531 100.539063 L 159.21875 101.949219 L 162.484375 104.378906 L 166.703125 109.308594 L 169.90625 116.347656 "/>
<path style="fill:none;stroke-width:6;stroke-linecap:round;stroke-linejoin:round;stroke:rgb(100%,100%,100%);stroke-opacity:1;stroke-miterlimit:10;" d="M 217.417969 189.769531 L 251.207031 187.183594 "/>
<path style="fill:none;stroke-width:6;stroke-linecap:round;stroke-linejoin:round;stroke:rgb(100%,100%,100%);stroke-opacity:1;stroke-miterlimit:10;" d="M 112.574219 92.679688 L 120.75 85.675781 L 125.308594 82.027344 L 131.179688 78.046875 L 135.164063 75.777344 L 139.785156 74.105469 L 143.429688 73.59375 "/>
<path style="fill:none;stroke-width:6;stroke-linecap:round;stroke-linejoin:round;stroke:rgb(100%,100%,100%);stroke-opacity:1;stroke-miterlimit:10;" d="M 169.78125 174.019531 L 205.113281 159.625 "/>
<path style="fill:none;stroke-width:6;stroke-linecap:round;stroke-linejoin:round;stroke:rgb(100%,100%,100%);stroke-opacity:1;stroke-miterlimit:10;" d="M 148.003906 146.042969 L 147.953125 151.367188 L 148.402344 156.710938 L 149.839844 162.4375 L 152.144531 166.917969 L 154.894531 170.308594 L 158.574219 173.027344 L 162.285156 174.277344 L 166.351563 174.53125 L 169.78125 174.019531 "/>
<path style="fill:none;stroke-width:6;stroke-linecap:round;stroke-linejoin:round;stroke:rgb(100%,100%,100%);stroke-opacity:1;stroke-miterlimit:10;" d="M 121.695313 43.347656 L 85.066406 68.792969 "/>
<path style="fill:none;stroke-width:6;stroke-linecap:round;stroke-linejoin:round;stroke:rgb(100%,100%,100%);stroke-opacity:1;stroke-miterlimit:10;" d="M 120.164063 -9 L 129.792969 11.09375 L 140.34375 30.933594 "/>
<path style="fill:none;stroke-width:6;stroke-linecap:round;stroke-linejoin:round;stroke:rgb(100%,100%,100%);stroke-opacity:1;stroke-miterlimit:10;" d="M 98.183594 -4.757813 L 111.722656 23.542969 L 121.695313 43.347656 "/>
<path style="fill:none;stroke-width:6;stroke-linecap:round;stroke-linejoin:round;stroke:rgb(100%,100%,100%);stroke-opacity:1;stroke-miterlimit:10;" d="M 186.378906 33.789063 L 239.5 46.484375 "/>
<path style="fill:none;stroke-width:6;stroke-linecap:round;stroke-linejoin:round;stroke:rgb(100%,100%,100%);stroke-opacity:1;stroke-miterlimit:10;" d="M 189.527344 108.410156 L 169.90625 116.347656 L 163.761719 119.929688 L 159.28125 124.921875 L 154.292969 131.382813 L 151.09375 137.589844 L 148.003906 146.042969 "/>
<path style="fill:none;stroke-width:6;stroke-linecap:round;stroke-linejoin:round;stroke:rgb(100%,100%,100%);stroke-opacity:1;stroke-miterlimit:10;" d="M 58.359375 14.53125 L 75.441406 48.953125 L 85.066406 68.792969 "/>
<path style="fill:none;stroke-width:6;stroke-linecap:round;stroke-linejoin:round;stroke:rgb(100%,100%,100%);stroke-opacity:1;stroke-miterlimit:10;" d="M 71.535156 -9 L 93.570313 36.25 "/>
<path style="fill:none;stroke-width:6;stroke-linecap:round;stroke-linejoin:round;stroke:rgb(100%,100%,100%);stroke-opacity:1;stroke-miterlimit:10;" d="M -9 198.21875 L 3.257813 197.046875 "/>
<path style="fill:none;stroke-width:6;stroke-linecap:round;stroke-linejoin:round;stroke:rgb(100%,100%,100%);stroke-opacity:1;stroke-miterlimit:10;" d="M 151.964844 56.460938 L 152.121094 59.523438 L 153 62.929688 L 153.867188 66.109375 L 156.351563 69.378906 L 161.300781 74.714844 L 176.617188 86.867188 L 179.535156 89.023438 L 184.179688 96.425781 L 187.109375 104.828125 L 189.527344 108.410156 "/>
<path style="fill:none;stroke-width:6;stroke-linecap:round;stroke-linejoin:round;stroke:rgb(100%,100%,100%);stroke-opacity:1;stroke-miterlimit:10;" d="M 189.527344 108.410156 L 189.804688 103.121094 L 187 95.5 L 184.765625 91.492188 L 181.484375 87.21875 L 178.207031 84.792969 L 164.175781 72.71875 L 158.808594 67.570313 L 156.683594 64.859375 L 155.523438 62.261719 L 153.925781 59.429688 L 151.964844 56.460938 "/>
<path style="fill:none;stroke-width:6;stroke-linecap:round;stroke-linejoin:round;stroke:rgb(100%,100%,100%);stroke-opacity:1;stroke-miterlimit:10;" d="M 16.464844 51.136719 L 36.921875 81.589844 L 52.933594 107.425781 "/>
<path style="fill:none;stroke-width:6;stroke-linecap:round;stroke-linejoin:round;stroke:rgb(100%,100%,100%);stroke-opacity:1;stroke-miterlimit:10;" d="M 249.621094 55.382813 L 264 45.75 "/>
<path style="fill:none;stroke-width:6;stroke-linecap:round;stroke-linejoin:round;stroke:rgb(100%,100%,100%);stroke-opacity:1;stroke-miterlimit:10;" d="M 145.128906 -7.59375 L 142.292969 -0.710938 L 140.105469 5.519531 L 138.675781 11.398438 L 138.636719 19.386719 L 140.34375 30.933594 L 148.960938 49.914063 L 151.964844 56.460938 "/>
<path style="fill:none;stroke-width:6;stroke-linecap:round;stroke-linejoin:round;stroke:rgb(100%,100%,100%);stroke-opacity:1;stroke-miterlimit:10;" d="M 177.828125 54.859375 L 177.238281 52.195313 L 177.78125 48.898438 L 186.378906 33.789063 L 198.660156 5.117188 L 203.695313 -9 "/>
<path style="fill:none;stroke-width:6;stroke-linecap:round;stroke-linejoin:round;stroke:rgb(100%,100%,100%);stroke-opacity:1;stroke-miterlimit:10;" d="M -9 248.371094 L -8.550781 247.023438 L -6.8125 236.921875 L -2.902344 216.894531 L 0.175781 202.269531 L 3.257813 197.046875 "/>
<path style="fill:none;stroke-width:6;stroke-linecap:round;stroke-linejoin:round;stroke:rgb(100%,100%,100%);stroke-opacity:1;stroke-miterlimit:10;" d="M 264 29.265625 L 254.210938 25.390625 L 198.660156 5.117188 "/>
<path style="fill:none;stroke-width:6;stroke-linecap:round;stroke-linejoin:round;stroke:rgb(100%,100%,100%);stroke-opacity:1;stroke-miterlimit:10;" d="M 242.359375 264 L 256.128906 257.480469 L 261.359375 255 L 264 252.332031 "/>
<path style="fill:none;stroke-width:6;stroke-linecap:round;stroke-linejoin:round;stroke:rgb(100%,100%,100%);stroke-opacity:1;stroke-miterlimit:10;" d="M 19.472656 10.214844 L 30.445313 27.882813 L 53.492188 65.132813 L 70.710938 91.402344 "/>
<path style="fill:none;stroke-width:6;stroke-linecap:round;stroke-linejoin:round;stroke:rgb(100%,100%,100%);stroke-opacity:1;stroke-miterlimit:10;" d="M 205.6875 64.164063 L 209.074219 64.246094 L 225.386719 59.4375 L 231.160156 56.519531 L 235.742188 52.445313 L 239.5 46.484375 L 254.210938 25.390625 L 264 11.414063 "/>
<path style="fill:none;stroke-width:6;stroke-linecap:round;stroke-linejoin:round;stroke:rgb(100%,100%,100%);stroke-opacity:1;stroke-miterlimit:10;" d="M 250.242188 170.792969 L 251.207031 187.183594 L 254.398438 214.191406 L 264 222.613281 "/>
<path style="fill:none;stroke-width:6;stroke-linecap:round;stroke-linejoin:round;stroke:rgb(100%,100%,100%);stroke-opacity:1;stroke-miterlimit:10;" d="M 250.242188 170.792969 L 250.414063 168.578125 L 251.4375 164.453125 L 252.417969 162.148438 L 254.375 158.917969 L 255.960938 157.011719 L 257.542969 155.503906 L 264 148.144531 "/>
<path style="fill:none;stroke-width:6;stroke-linecap:round;stroke-linejoin:round;stroke:rgb(100%,100%,100%);stroke-opacity:1;stroke-miterlimit:10;" d="M 18.363281 160.910156 L 38.25 125.144531 L 52.933594 107.425781 L 70.710938 91.402344 L 89.519531 76.484375 L 85.066406 68.792969 "/>
<path style="fill:none;stroke-width:6;stroke-linecap:round;stroke-linejoin:round;stroke:rgb(100%,100%,100%);stroke-opacity:1;stroke-miterlimit:10;" d="M 189.527344 108.410156 L 197.847656 106.15625 L 213.65625 107.363281 L 224.761719 109.769531 L 233.472656 114.964844 L 245.878906 125.390625 L 264 140.625 "/>
<path style="fill:none;stroke-width:6;stroke-linecap:round;stroke-linejoin:round;stroke:rgb(100%,100%,100%);stroke-opacity:1;stroke-miterlimit:10;" d="M 223.949219 -9 L 264 5.417969 "/>
<path style="fill:none;stroke-width:6;stroke-linecap:round;stroke-linejoin:round;stroke:rgb(100%,100%,100%);stroke-opacity:1;stroke-miterlimit:10;" d="M 233.472656 114.964844 L 262.554688 81.710938 L 264 81.554688 "/>
<path style="fill:none;stroke-width:6;stroke-linecap:round;stroke-linejoin:round;stroke:rgb(100%,100%,100%);stroke-opacity:1;stroke-miterlimit:10;" d="M 15.347656 104.167969 L 22.871094 97.277344 L 36.921875 81.589844 L 53.492188 65.132813 L 75.441406 48.953125 L 93.570313 36.25 L 111.722656 23.542969 L 129.792969 11.09375 L 138.675781 11.398438 "/>
<path style="fill:none;stroke-width:6;stroke-linecap:round;stroke-linejoin:round;stroke:rgb(100%,100%,100%);stroke-opacity:1;stroke-miterlimit:10;" d="M -9 1.855469 L 12.0625 -3.402344 L 31.964844 -9 "/>
<path style="fill:none;stroke-width:6;stroke-linecap:round;stroke-linejoin:round;stroke:rgb(100%,100%,100%);stroke-opacity:1;stroke-miterlimit:10;" d="M 21.800781 249.285156 L 24.425781 234.566406 L 26.644531 219.425781 L 32.515625 192.039063 L 39.152344 174.078125 L 45.355469 162.507813 L 48.769531 156.675781 L 53.089844 148.847656 L 56.792969 142.980469 L 61.679688 136.746094 L 67.109375 129.726563 L 84.355469 111.613281 L 93.363281 105.289063 L 100.011719 100.34375 L 107.558594 95.964844 L 112.574219 92.679688 "/>
<path style="fill:none;stroke-width:6;stroke-linecap:round;stroke-linejoin:round;stroke:rgb(100%,100%,100%);stroke-opacity:1;stroke-miterlimit:10;" d="M 151.964844 56.460938 L 157.445313 46.539063 L 175.164063 17.359375 L 184.765625 -9 "/>
<path style="fill:none;stroke-width:6;stroke-linecap:round;stroke-linejoin:round;stroke:rgb(100%,100%,100%);stroke-opacity:1;stroke-miterlimit:10;" d="M 189.527344 108.410156 L 205.113281 159.625 L 217.417969 189.769531 L 226.496094 219.882813 L 239.789063 264 "/>
<path style="fill:none;stroke-width:6;stroke-linecap:round;stroke-linejoin:round;stroke:rgb(100%,99.215686%,54.509804%);stroke-opacity:1;stroke-miterlimit:10;" d="M 9.023438 -9 L 12.0625 -3.402344 L 19.472656 10.214844 "/>
<path style="fill:none;stroke-width:6;stroke-linecap:round;stroke-linejoin:round;stroke:rgb(100%,99.215686%,54.509804%);stroke-opacity:1;stroke-miterlimit:10;" d="M 19.472656 10.214844 L 17.511719 29.996094 L 16.464844 51.136719 L 14.1875 67.984375 L 13.8125 85.046875 L 15.347656 104.167969 L 18.363281 160.910156 L 3.257813 197.046875 L 7.765625 216.113281 L 21.800781 249.285156 L 28.023438 264 "/>
<path style="fill:none;stroke-width:9;stroke-linecap:round;stroke-linejoin:round;stroke:rgb(99.215686%,57.254902%,22.745098%);stroke-opacity:1;stroke-miterlimit:10;" d="M -1.945313 267 L 1.574219 260.222656 L 5.972656 250.425781 L 9.375 241.425781 L 11.261719 236.941406 "/>
<path style="fill:none;stroke-width:9;stroke-linecap:round;stroke-linejoin:round;stroke:rgb(99.215686%,57.254902%,22.745098%);stroke-opacity:1;stroke-miterlimit:10;" d="M 7.773438 230.820313 L 3.375 243.625 L -1.828125 255.820313 L -7.417969 267 "/>
<path style="fill:none;stroke-width:9;stroke-linecap:round;stroke-linejoin:round;stroke:rgb(99.215686%,57.254902%,22.745098%);stroke-opacity:1;stroke-miterlimit:10;" d="M 139.363281 45.113281 L 131.363281 54.714844 L 122.761719 63.710938 L 112.761719 72.511719 L 102.5625 80.3125 L 83.164063 94.3125 L 72.960938 102.511719 L 63.363281 111.113281 L 54.5625 120.511719 L 46.363281 130.710938 L 38.761719 141.710938 L 32.164063 152.910156 L 26.363281 164.714844 L 21.363281 177.113281 L 17.164063 189.714844 L 14.164063 202.511719 L 12.363281 211.910156 "/>
<path style="fill:none;stroke-width:9;stroke-linecap:round;stroke-linejoin:round;stroke:rgb(99.215686%,57.254902%,22.745098%);stroke-opacity:1;stroke-miterlimit:10;" d="M 15.761719 219.113281 L 18.761719 204.710938 L 21.761719 191.714844 L 25.5625 179.710938 L 29.363281 169.910156 L 34.964844 157.914063 L 41.363281 146.914063 L 48.761719 135.515625 L 56.761719 125.3125 L 65.5625 115.714844 L 75.164063 106.914063 L 85.363281 98.914063 L 104.363281 84.910156 L 115.164063 76.914063 L 124.960938 68.3125 L 134.164063 58.914063 L 141.761719 49.914063 "/>
<path style="fill:none;stroke-width:9;stroke-linecap:round;stroke-linejoin:round;stroke:rgb(99.215686%,57.254902%,22.745098%);stroke-opacity:1;stroke-miterlimit:10;" d="M 169.285156 -12 L 168.5625 -10.085938 L 163.960938 2.3125 L 158.964844 14.3125 L 153.964844 23.714844 L 148.5625 32.3125 "/>
<path style="fill:none;stroke-width:9;stroke-linecap:round;stroke-linejoin:round;stroke:rgb(99.215686%,57.254902%,22.745098%);stroke-opacity:1;stroke-miterlimit:10;" d="M 150.5625 37.914063 L 156.960938 27.914063 L 163.164063 16.511719 L 168.363281 4.511719 L 172.964844 -7.886719 L 174.515625 -12 "/>
<path style="fill:none;stroke-width:11;stroke-linecap:butt;stroke-linejoin:round;stroke:rgb(53.333333%,53.333333%,53.333333%);stroke-opacity:1;stroke-miterlimit:10;" d="M 141.761719 49.914063 L 150.5625 37.914063 "/>
<path style="fill:none;stroke-width:11;stroke-linecap:butt;stroke-linejoin:round;stroke:rgb(53.333333%,53.333333%,53.333333%);stroke-opacity:1;stroke-miterlimit:10;" d="M 148.5625 32.3125 L 139.363281 45.113281 "/>
<path style="fill:none;stroke-width:11;stroke-linecap:butt;stroke-linejoin:round;stroke:rgb(53.333333%,53.333333%,53.333333%);stroke-opacity:1;stroke-miterlimit:10;" d="M 11.261719 236.941406 L 12.960938 230.113281 L 15.761719 219.113281 "/>
<path style="fill:none;stroke-width:11;stroke-linecap:butt;stroke-linejoin:round;stroke:rgb(53.333333%,53.333333%,53.333333%);stroke-opacity:1;stroke-miterlimit:10;" d="M 12.363281 211.910156 L 10.363281 221.3125 L 7.773438 230.820313 "/>
<path style="fill:none;stroke-width:9;stroke-linecap:round;stroke-linejoin:round;stroke:rgb(99.215686%,57.254902%,22.745098%);stroke-opacity:1;stroke-miterlimit:10;" d="M 141.761719 49.914063 L 150.5625 37.914063 "/>
<path style="fill:none;stroke-width:9;stroke-linecap:round;stroke-linejoin:round;stroke:rgb(99.215686%,57.254902%,22.745098%);stroke-opacity:1;stroke-miterlimit:10;" d="M 148.5625 32.3125 L 139.363281 45.113281 "/>
<path style="fill:none;stroke-width:9;stroke-linecap:round;stroke-linejoin:round;stroke:rgb(99.215686%,57.254902%,22.745098%);stroke-opacity:1;stroke-miterlimit:10;" d="M 11.261719 236.941406 L 12.960938 230.113281 L 15.761719 219.113281 "/>
<path style="fill:none;stroke-width:9;stroke-linecap:round;stroke-linejoin:round;stroke:rgb(99.215686%,57.254902%,22.745098%);stroke-opacity:1;stroke-miterlimit:10;" d="M 12.363281 211.910156 L 10.363281 221.3125 L 7.773438 230.820313 "/>
<path style=" stroke:none;fill-rule:evenodd;fill:rgb(33.333333%,33.333333%,33.333333%);fill-opacity:1;" d="M 60.386719 127.109375 C 60.292969 127.671875 60.125 128.210938 59.886719 128.71875 C 59.65625 129.230469 59.363281 129.703125 59.011719 130.140625 C 58.175781 131.164063 57.199219 131.714844 56.074219 131.796875 C 54.960938 131.882813 53.867188 131.492188 52.792969 130.625 C 51.691406 129.730469 51.070313 128.730469 50.933594 127.625 C 50.800781 126.511719 51.160156 125.421875 52.011719 124.359375 C 52.335938 123.953125 52.691406 123.601563 53.074219 123.296875 C 53.460938 122.996094 53.871094 122.746094 54.308594 122.546875 L 55.714844 123.671875 C 55.238281 123.839844 54.804688 124.054688 54.417969 124.3125 C 54.035156 124.574219 53.699219 124.871094 53.417969 125.203125 C 52.917969 125.828125 52.726563 126.46875 52.839844 127.125 C 52.957031 127.78125 53.378906 128.40625 54.105469 129 C 54.816406 129.574219 55.496094 129.855469 56.152344 129.84375 C 56.816406 129.835938 57.394531 129.527344 57.886719 128.921875 C 58.019531 128.757813 58.136719 128.59375 58.230469 128.4375 C 58.324219 128.273438 58.386719 128.117188 58.417969 127.96875 L 57.105469 126.890625 L 56.324219 127.859375 L 55.136719 126.921875 L 57.121094 124.46875 Z M 65.753906 121.453125 C 65.667969 121.871094 65.527344 122.265625 65.332031 122.640625 C 65.144531 123.007813 64.898438 123.351563 64.597656 123.671875 C 63.710938 124.640625 62.707031 125.132813 61.582031 125.140625 C 60.46875 125.152344 59.402344 124.6875 58.378906 123.75 C 57.347656 122.804688 56.792969 121.777344 56.707031 120.671875 C 56.625 119.558594 57.027344 118.515625 57.910156 117.546875 C 58.214844 117.226563 58.542969 116.953125 58.894531 116.734375 C 59.238281 116.507813 59.621094 116.328125 60.035156 116.203125 L 61.363281 117.421875 C 60.90625 117.507813 60.503906 117.640625 60.160156 117.828125 C 59.808594 118.007813 59.496094 118.246094 59.222656 118.546875 C 58.734375 119.078125 58.542969 119.671875 58.644531 120.328125 C 58.738281 120.976563 59.121094 121.601563 59.785156 122.203125 C 60.453125 122.820313 61.113281 123.148438 61.769531 123.1875 C 62.433594 123.230469 63.011719 122.984375 63.503906 122.453125 C 63.773438 122.152344 63.980469 121.824219 64.128906 121.46875 C 64.285156 121.117188 64.382813 120.703125 64.425781 120.234375 Z M 60.96875 114.523438 L 63.359375 112.148438 C 64.078125 111.441406 64.804688 111.078125 65.53125 111.054688 C 66.261719 111.023438 66.945313 111.335938 67.59375 111.992188 C 68.238281 112.640625 68.546875 113.328125 68.515625 114.054688 C 68.484375 114.785156 68.109375 115.503906 67.390625 116.210938 L 66.453125 117.148438 L 68.578125 119.304688 L 67.125 120.742188 Z M 63.578125 114.242188 L 65.296875 115.976563 L 66.078125 115.195313 C 66.371094 114.914063 66.515625 114.625 66.515625 114.320313 C 66.515625 114.019531 66.382813 113.734375 66.109375 113.460938 C 65.828125 113.179688 65.542969 113.039063 65.25 113.039063 C 64.949219 113.039063 64.652344 113.179688 64.359375 113.460938 Z M 63.578125 114.242188 "/>
<path style="fill:none;stroke-width:3;stroke-linecap:round;stroke-linejoin:round;stroke:rgb(100%,100%,100%);stroke-opacity:1;stroke-miterlimit:10;" d="M 203.257813 139.722656 L 203.539063 140.675781 L 196.726563 142.738281 L 197.757813 146.097656 L 196.898438 146.363281 L 195.585938 142.050781 Z M 202.925781 145.546875 L 203.191406 146.40625 L 197.441406 148.15625 L 197.175781 147.296875 Z M 205.175781 144.859375 L 205.441406 145.71875 L 204.238281 146.09375 L 203.972656 145.234375 Z M 205.632813 148.519531 L 203.992188 149.019531 L 204.523438 150.769531 L 203.789063 150.988281 L 203.257813 149.238281 L 200.132813 150.191406 C 199.671875 150.335938 199.390625 150.488281 199.289063 150.644531 C 199.183594 150.800781 199.1875 151.054688 199.304688 151.410156 L 199.570313 152.285156 L 198.773438 152.519531 L 198.507813 151.644531 C 198.308594 150.988281 198.308594 150.492188 198.507813 150.160156 C 198.703125 149.824219 199.15625 149.550781 199.867188 149.332031 L 202.992188 148.378906 L 202.804688 147.753906 L 203.539063 147.535156 L 203.726563 148.160156 L 205.367188 147.660156 Z M 206.761719 152.226563 L 205.121094 152.726563 L 205.652344 154.476563 L 204.917969 154.695313 L 204.386719 152.945313 L 201.261719 153.898438 C 200.800781 154.042969 200.519531 154.195313 200.417969 154.351563 C 200.3125 154.507813 200.316406 154.761719 200.433594 155.117188 L 200.699219 155.992188 L 199.902344 156.226563 L 199.636719 155.351563 C 199.4375 154.695313 199.4375 154.199219 199.636719 153.867188 C 199.832031 153.53125 200.285156 153.257813 200.996094 153.039063 L 204.121094 152.085938 L 203.933594 151.460938 L 204.667969 151.242188 L 204.855469 151.867188 L 206.496094 151.367188 Z M 208.234375 154.902344 L 208.5 155.761719 L 200.5 158.199219 L 200.234375 157.339844 Z M 205.867188 163.390625 L 205.414063 163.5625 L 203.960938 159.734375 C 203.34375 160.003906 202.929688 160.359375 202.710938 160.796875 C 202.492188 161.234375 202.484375 161.722656 202.695313 162.265625 C 202.820313 162.585938 202.980469 162.878906 203.179688 163.140625 C 203.375 163.410156 203.617188 163.664063 203.898438 163.90625 L 203.039063 164.234375 C 202.777344 163.984375 202.546875 163.71875 202.351563 163.4375 C 202.164063 163.15625 202.011719 162.851563 201.898438 162.53125 C 201.59375 161.726563 201.609375 160.988281 201.945313 160.3125 C 202.289063 159.644531 202.90625 159.140625 203.804688 158.796875 C 204.71875 158.453125 205.53125 158.40625 206.242188 158.65625 C 206.960938 158.898438 207.460938 159.394531 207.742188 160.15625 C 208 160.832031 207.960938 161.457031 207.617188 162.03125 C 207.28125 162.613281 206.699219 163.066406 205.867188 163.390625 Z M 205.804688 162.453125 C 206.3125 162.253906 206.671875 161.972656 206.882813 161.609375 C 207.089844 161.253906 207.121094 160.875 206.976563 160.46875 C 206.796875 160 206.507813 159.675781 206.101563 159.5 C 205.703125 159.332031 205.234375 159.328125 204.695313 159.484375 Z M 212.007813 165.890625 L 212.507813 167.109375 L 207.523438 172.609375 L 213.726563 170.078125 L 214.085938 170.953125 L 206.664063 173.984375 L 206.164063 172.78125 L 211.148438 167.28125 L 204.945313 169.8125 L 204.585938 168.921875 Z M 212.148438 178.8125 L 211.695313 179 L 210.148438 175.203125 C 209.53125 175.503906 209.121094 175.875 208.914063 176.3125 C 208.714844 176.75 208.726563 177.238281 208.945313 177.78125 C 209.078125 178.09375 209.246094 178.378906 209.445313 178.640625 C 209.652344 178.910156 209.902344 179.160156 210.195313 179.390625 L 209.351563 179.734375 C 209.078125 179.492188 208.84375 179.234375 208.648438 178.953125 C 208.449219 178.679688 208.28125 178.382813 208.148438 178.0625 C 207.824219 177.257813 207.824219 176.515625 208.148438 175.828125 C 208.46875 175.148438 209.074219 174.636719 209.960938 174.28125 C 210.867188 173.90625 211.679688 173.835938 212.398438 174.0625 C 213.117188 174.292969 213.625 174.78125 213.929688 175.53125 C 214.210938 176.207031 214.1875 176.835938 213.867188 177.421875 C 213.542969 178.015625 212.96875 178.476563 212.148438 178.8125 Z M 212.070313 177.875 C 212.570313 177.664063 212.917969 177.378906 213.117188 177.015625 C 213.324219 176.648438 213.34375 176.265625 213.179688 175.859375 C 212.992188 175.390625 212.695313 175.078125 212.289063 174.921875 C 211.882813 174.765625 211.40625 174.773438 210.867188 174.9375 Z M 216.515625 182.8125 L 215.65625 183.15625 C 215.707031 182.875 215.722656 182.597656 215.703125 182.328125 C 215.679688 182.066406 215.617188 181.816406 215.515625 181.578125 C 215.296875 181.035156 214.9375 180.695313 214.4375 180.5625 C 213.9375 180.429688 213.347656 180.496094 212.671875 180.765625 C 211.992188 181.046875 211.523438 181.40625 211.265625 181.84375 C 211.015625 182.289063 211 182.785156 211.21875 183.328125 C 211.320313 183.566406 211.453125 183.789063 211.609375 184 C 211.773438 184.207031 211.976563 184.394531 212.21875 184.5625 L 211.375 184.90625 C 211.15625 184.726563 210.960938 184.53125 210.796875 184.3125 C 210.640625 184.09375 210.507813 183.847656 210.40625 183.578125 C 210.09375 182.816406 210.109375 182.101563 210.453125 181.4375 C 210.796875 180.78125 211.414063 180.265625 212.3125 179.890625 C 213.21875 179.527344 214.019531 179.464844 214.71875 179.703125 C 215.425781 179.945313 215.941406 180.453125 216.265625 181.234375 C 216.367188 181.484375 216.441406 181.742188 216.484375 182.015625 C 216.523438 182.285156 216.535156 182.550781 216.515625 182.8125 Z M 219.460938 183.238281 L 219.789063 184.066406 L 215.226563 185.925781 L 218.632813 187.425781 L 219.054688 188.472656 L 215.382813 186.878906 L 213.539063 190.847656 L 213.101563 189.769531 L 214.773438 186.113281 L 212.054688 187.222656 L 211.726563 186.394531 Z M 221.757813 193.324219 L 218.867188 194.199219 L 219.226563 195.355469 C 219.351563 195.792969 219.574219 196.089844 219.898438 196.246094 C 220.230469 196.410156 220.625 196.425781 221.085938 196.292969 C 221.542969 196.15625 221.859375 195.925781 222.039063 195.605469 C 222.214844 195.292969 222.242188 194.917969 222.117188 194.480469 Z M 222.320313 192.121094 L 222.960938 194.230469 C 223.1875 195.011719 223.167969 195.65625 222.898438 196.167969 C 222.625 196.675781 222.121094 197.046875 221.382813 197.277344 C 220.621094 197.503906 219.984375 197.480469 219.476563 197.199219 C 218.964844 196.925781 218.59375 196.402344 218.367188 195.621094 L 218.007813 194.464844 L 214.929688 195.386719 L 214.648438 194.433594 Z M 219.980469 201.601563 C 219.769531 200.914063 219.53125 200.460938 219.261719 200.242188 C 219 200.03125 218.660156 199.996094 218.246094 200.132813 C 217.910156 200.226563 217.675781 200.402344 217.542969 200.664063 C 217.40625 200.921875 217.390625 201.226563 217.496094 201.570313 C 217.640625 202.046875 217.941406 202.371094 218.402344 202.539063 C 218.859375 202.703125 219.390625 202.695313 219.996094 202.507813 L 220.230469 202.445313 Z M 220.886719 203.195313 L 217.589844 204.179688 L 217.324219 203.320313 L 218.199219 203.054688 C 217.78125 202.960938 217.449219 202.792969 217.199219 202.554688 C 216.949219 202.324219 216.753906 201.996094 216.621094 201.570313 C 216.464844 201.046875 216.503906 200.578125 216.746094 200.164063 C 216.984375 199.746094 217.378906 199.453125 217.933594 199.289063 C 218.578125 199.09375 219.125 199.140625 219.574219 199.429688 C 220.019531 199.71875 220.363281 200.257813 220.605469 201.039063 L 220.964844 202.226563 L 221.042969 202.195313 C 221.488281 202.058594 221.792969 201.828125 221.949219 201.507813 C 222.105469 201.183594 222.113281 200.789063 221.980469 200.320313 C 221.886719 200.027344 221.753906 199.746094 221.589844 199.476563 C 221.433594 199.21875 221.234375 198.984375 220.996094 198.773438 L 221.855469 198.507813 C 222.09375 198.789063 222.285156 199.0625 222.433594 199.320313 C 222.589844 199.589844 222.707031 199.867188 222.792969 200.148438 C 223.019531 200.898438 222.980469 201.523438 222.667969 202.023438 C 222.355469 202.53125 221.761719 202.921875 220.886719 203.195313 Z M 223.886719 207.46875 C 223.917969 207.34375 223.933594 207.21875 223.933594 207.09375 C 223.933594 206.96875 223.910156 206.84375 223.871094 206.71875 C 223.722656 206.226563 223.4375 205.910156 223.011719 205.765625 C 222.582031 205.617188 222.042969 205.640625 221.386719 205.828125 L 218.355469 206.75 L 218.089844 205.890625 L 223.855469 204.15625 L 224.121094 205.015625 L 223.214844 205.28125 C 223.621094 205.351563 223.949219 205.503906 224.199219 205.734375 C 224.457031 205.972656 224.652344 206.296875 224.777344 206.703125 C 224.785156 206.765625 224.800781 206.832031 224.824219 206.90625 C 224.84375 206.988281 224.855469 207.070313 224.855469 207.15625 Z M 227.261719 207.375 L 227.527344 208.234375 L 222.808594 209.65625 L 226.058594 211.453125 L 226.386719 212.546875 L 222.855469 210.609375 L 220.652344 214.375 L 220.324219 213.28125 L 222.339844 209.796875 L 219.527344 210.640625 L 219.261719 209.78125 Z M 226.558594 213.066406 L 226.808594 213.925781 L 222.636719 216.332031 L 227.449219 216.050781 L 227.761719 217.066406 L 223.574219 219.472656 L 228.402344 219.175781 L 228.652344 220.035156 L 222.480469 220.410156 L 222.167969 219.410156 L 226.574219 216.863281 L 221.496094 217.160156 L 221.199219 216.160156 Z M 226.894531 224.535156 C 226.683594 223.847656 226.445313 223.394531 226.175781 223.175781 C 225.914063 222.964844 225.574219 222.929688 225.160156 223.066406 C 224.824219 223.160156 224.589844 223.335938 224.457031 223.597656 C 224.320313 223.855469 224.304688 224.160156 224.410156 224.503906 C 224.554688 224.980469 224.855469 225.304688 225.316406 225.472656 C 225.773438 225.636719 226.304688 225.628906 226.910156 225.441406 L 227.144531 225.378906 Z M 227.785156 226.128906 L 224.488281 227.113281 L 224.238281 226.253906 L 225.113281 225.988281 C 224.695313 225.894531 224.363281 225.726563 224.113281 225.488281 C 223.863281 225.257813 223.667969 224.929688 223.535156 224.503906 C 223.378906 223.980469 223.417969 223.511719 223.660156 223.097656 C 223.898438 222.679688 224.292969 222.386719 224.847656 222.222656 C 225.492188 222.027344 226.039063 222.074219 226.488281 222.363281 C 226.933594 222.652344 227.277344 223.191406 227.519531 223.972656 L 227.878906 225.160156 L 227.957031 225.128906 C 228.402344 224.992188 228.707031 224.761719 228.863281 224.441406 C 229.019531 224.117188 229.023438 223.722656 228.878906 223.253906 C 228.792969 222.960938 228.667969 222.679688 228.503906 222.410156 C 228.347656 222.152344 228.148438 221.917969 227.910156 221.707031 L 228.769531 221.441406 C 229.007813 221.722656 229.199219 221.996094 229.347656 222.253906 C 229.503906 222.523438 229.621094 222.800781 229.707031 223.082031 C 229.933594 223.832031 229.886719 224.457031 229.566406 224.957031 C 229.253906 225.464844 228.660156 225.855469 227.785156 226.128906 Z M 225.144531 231.167969 C 224.375 231.136719 223.855469 231.035156 223.582031 230.871094 C 223.3125 230.703125 223.121094 230.433594 223.003906 230.058594 L 222.785156 229.371094 L 223.566406 229.136719 L 223.722656 229.636719 C 223.796875 229.863281 223.917969 230.027344 224.082031 230.121094 C 224.238281 230.214844 224.574219 230.277344 225.082031 230.308594 L 225.566406 230.308594 L 230.597656 226.511719 L 230.878906 227.417969 L 226.847656 230.386719 L 231.847656 230.652344 L 232.128906 231.558594 Z M 225.144531 231.167969 "/>
<path style=" stroke:none;fill-rule:evenodd;fill:rgb(20%,20%,20%);fill-opacity:1;" d="M 203.257813 139.722656 L 203.539063 140.675781 L 196.726563 142.738281 L 197.757813 146.097656 L 196.898438 146.363281 L 195.585938 142.050781 Z M 202.925781 145.546875 L 203.191406 146.40625 L 197.441406 148.15625 L 197.175781 147.296875 Z M 205.175781 144.859375 L 205.441406 145.71875 L 204.238281 146.09375 L 203.972656 145.234375 Z M 205.632813 148.519531 L 203.992188 149.019531 L 204.523438 150.769531 L 203.789063 150.988281 L 203.257813 149.238281 L 200.132813 150.191406 C 199.671875 150.335938 199.390625 150.488281 199.289063 150.644531 C 199.183594 150.800781 199.1875 151.054688 199.304688 151.410156 L 199.570313 152.285156 L 198.773438 152.519531 L 198.507813 151.644531 C 198.308594 150.988281 198.308594 150.492188 198.507813 150.160156 C 198.703125 149.824219 199.15625 149.550781 199.867188 149.332031 L 202.992188 148.378906 L 202.804688 147.753906 L 203.539063 147.535156 L 203.726563 148.160156 L 205.367188 147.660156 Z M 206.761719 152.226563 L 205.121094 152.726563 L 205.652344 154.476563 L 204.917969 154.695313 L 204.386719 152.945313 L 201.261719 153.898438 C 200.800781 154.042969 200.519531 154.195313 200.417969 154.351563 C 200.3125 154.507813 200.316406 154.761719 200.433594 155.117188 L 200.699219 155.992188 L 199.902344 156.226563 L 199.636719 155.351563 C 199.4375 154.695313 199.4375 154.199219 199.636719 153.867188 C 199.832031 153.53125 200.285156 153.257813 200.996094 153.039063 L 204.121094 152.085938 L 203.933594 151.460938 L 204.667969 151.242188 L 204.855469 151.867188 L 206.496094 151.367188 Z M 208.234375 154.902344 L 208.5 155.761719 L 200.5 158.199219 L 200.234375 157.339844 Z M 205.867188 163.390625 L 205.414063 163.5625 L 203.960938 159.734375 C 203.34375 160.003906 202.929688 160.359375 202.710938 160.796875 C 202.492188 161.234375 202.484375 161.722656 202.695313 162.265625 C 202.820313 162.585938 202.980469 162.878906 203.179688 163.140625 C 203.375 163.410156 203.617188 163.664063 203.898438 163.90625 L 203.039063 164.234375 C 202.777344 163.984375 202.546875 163.71875 202.351563 163.4375 C 202.164063 163.15625 202.011719 162.851563 201.898438 162.53125 C 201.59375 161.726563 201.609375 160.988281 201.945313 160.3125 C 202.289063 159.644531 202.90625 159.140625 203.804688 158.796875 C 204.71875 158.453125 205.53125 158.40625 206.242188 158.65625 C 206.960938 158.898438 207.460938 159.394531 207.742188 160.15625 C 208 160.832031 207.960938 161.457031 207.617188 162.03125 C 207.28125 162.613281 206.699219 163.066406 205.867188 163.390625 Z M 205.804688 162.453125 C 206.3125 162.253906 206.671875 161.972656 206.882813 161.609375 C 207.089844 161.253906 207.121094 160.875 206.976563 160.46875 C 206.796875 160 206.507813 159.675781 206.101563 159.5 C 205.703125 159.332031 205.234375 159.328125 204.695313 159.484375 Z M 212.007813 165.890625 L 212.507813 167.109375 L 207.523438 172.609375 L 213.726563 170.078125 L 214.085938 170.953125 L 206.664063 173.984375 L 206.164063 172.78125 L 211.148438 167.28125 L 204.945313 169.8125 L 204.585938 168.921875 Z M 212.148438 178.8125 L 211.695313 179 L 210.148438 175.203125 C 209.53125 175.503906 209.121094 175.875 208.914063 176.3125 C 208.714844 176.75 208.726563 177.238281 208.945313 177.78125 C 209.078125 178.09375 209.246094 178.378906 209.445313 178.640625 C 209.652344 178.910156 209.902344 179.160156 210.195313 179.390625 L 209.351563 179.734375 C 209.078125 179.492188 208.84375 179.234375 208.648438 178.953125 C 208.449219 178.679688 208.28125 178.382813 208.148438 178.0625 C 207.824219 177.257813 207.824219 176.515625 208.148438 175.828125 C 208.46875 175.148438 209.074219 174.636719 209.960938 174.28125 C 210.867188 173.90625 211.679688 173.835938 212.398438 174.0625 C 213.117188 174.292969 213.625 174.78125 213.929688 175.53125 C 214.210938 176.207031 214.1875 176.835938 213.867188 177.421875 C 213.542969 178.015625 212.96875 178.476563 212.148438 178.8125 Z M 212.070313 177.875 C 212.570313 177.664063 212.917969 177.378906 213.117188 177.015625 C 213.324219 176.648438 213.34375 176.265625 213.179688 175.859375 C 212.992188 175.390625 212.695313 175.078125 212.289063 174.921875 C 211.882813 174.765625 211.40625 174.773438 210.867188 174.9375 Z M 216.515625 182.8125 L 215.65625 183.15625 C 215.707031 182.875 215.722656 182.597656 215.703125 182.328125 C 215.679688 182.066406 215.617188 181.816406 215.515625 181.578125 C 215.296875 181.035156 214.9375 180.695313 214.4375 180.5625 C 213.9375 180.429688 213.347656 180.496094 212.671875 180.765625 C 211.992188 181.046875 211.523438 181.40625 211.265625 181.84375 C 211.015625 182.289063 211 182.785156 211.21875 183.328125 C 211.320313 183.566406 211.453125 183.789063 211.609375 184 C 211.773438 184.207031 211.976563 184.394531 212.21875 184.5625 L 211.375 184.90625 C 211.15625 184.726563 210.960938 184.53125 210.796875 184.3125 C 210.640625 184.09375 210.507813 183.847656 210.40625 183.578125 C 210.09375 182.816406 210.109375 182.101563 210.453125 181.4375 C 210.796875 180.78125 211.414063 180.265625 212.3125 179.890625 C 213.21875 179.527344 214.019531 179.464844 214.71875 179.703125 C 215.425781 179.945313 215.941406 180.453125 216.265625 181.234375 C 216.367188 181.484375 216.441406 181.742188 216.484375 182.015625 C 216.523438 182.285156 216.535156 182.550781 216.515625 182.8125 Z M 219.460938 183.238281 L 219.789063 184.066406 L 215.226563 185.925781 L 218.632813 187.425781 L 219.054688 188.472656 L 215.382813 186.878906 L 213.539063 190.847656 L 213.101563 189.769531 L 214.773438 186.113281 L 212.054688 187.222656 L 211.726563 186.394531 Z M 221.757813 193.324219 L 218.867188 194.199219 L 219.226563 195.355469 C 219.351563 195.792969 219.574219 196.089844 219.898438 196.246094 C 220.230469 196.410156 220.625 196.425781 221.085938 196.292969 C 221.542969 196.15625 221.859375 195.925781 222.039063 195.605469 C 222.214844 195.292969 222.242188 194.917969 222.117188 194.480469 Z M 222.320313 192.121094 L 222.960938 194.230469 C 223.1875 195.011719 223.167969 195.65625 222.898438 196.167969 C 222.625 196.675781 222.121094 197.046875 221.382813 197.277344 C 220.621094 197.503906 219.984375 197.480469 219.476563 197.199219 C 218.964844 196.925781 218.59375 196.402344 218.367188 195.621094 L 218.007813 194.464844 L 214.929688 195.386719 L 214.648438 194.433594 Z M 219.980469 201.601563 C 219.769531 200.914063 219.53125 200.460938 219.261719 200.242188 C 219 200.03125 218.660156 199.996094 218.246094 200.132813 C 217.910156 200.226563 217.675781 200.402344 217.542969 200.664063 C 217.40625 200.921875 217.390625 201.226563 217.496094 201.570313 C 217.640625 202.046875 217.941406 202.371094 218.402344 202.539063 C 218.859375 202.703125 219.390625 202.695313 219.996094 202.507813 L 220.230469 202.445313 Z M 220.886719 203.195313 L 217.589844 204.179688 L 217.324219 203.320313 L 218.199219 203.054688 C 217.78125 202.960938 217.449219 202.792969 217.199219 202.554688 C 216.949219 202.324219 216.753906 201.996094 216.621094 201.570313 C 216.464844 201.046875 216.503906 200.578125 216.746094 200.164063 C 216.984375 199.746094 217.378906 199.453125 217.933594 199.289063 C 218.578125 199.09375 219.125 199.140625 219.574219 199.429688 C 220.019531 199.71875 220.363281 200.257813 220.605469 201.039063 L 220.964844 202.226563 L 221.042969 202.195313 C 221.488281 202.058594 221.792969 201.828125 221.949219 201.507813 C 222.105469 201.183594 222.113281 200.789063 221.980469 200.320313 C 221.886719 200.027344 221.753906 199.746094 221.589844 199.476563 C 221.433594 199.21875 221.234375 198.984375 220.996094 198.773438 L 221.855469 198.507813 C 222.09375 198.789063 222.285156 199.0625 222.433594 199.320313 C 222.589844 199.589844 222.707031 199.867188 222.792969 200.148438 C 223.019531 200.898438 222.980469 201.523438 222.667969 202.023438 C 222.355469 202.53125 221.761719 202.921875 220.886719 203.195313 Z M 223.886719 207.46875 C 223.917969 207.34375 223.933594 207.21875 223.933594 207.09375 C 223.933594 206.96875 223.910156 206.84375 223.871094 206.71875 C 223.722656 206.226563 223.4375 205.910156 223.011719 205.765625 C 222.582031 205.617188 222.042969 205.640625 221.386719 205.828125 L 218.355469 206.75 L 218.089844 205.890625 L 223.855469 204.15625 L 224.121094 205.015625 L 223.214844 205.28125 C 223.621094 205.351563 223.949219 205.503906 224.199219 205.734375 C 224.457031 205.972656 224.652344 206.296875 224.777344 206.703125 C 224.785156 206.765625 224.800781 206.832031 224.824219 206.90625 C 224.84375 206.988281 224.855469 207.070313 224.855469 207.15625 Z M 227.261719 207.375 L 227.527344 208.234375 L 222.808594 209.65625 L 226.058594 211.453125 L 226.386719 212.546875 L 222.855469 210.609375 L 220.652344 214.375 L 220.324219 213.28125 L 222.339844 209.796875 L 219.527344 210.640625 L 219.261719 209.78125 Z M 226.558594 213.066406 L 226.808594 213.925781 L 222.636719 216.332031 L 227.449219 216.050781 L 227.761719 217.066406 L 223.574219 219.472656 L 228.402344 219.175781 L 228.652344 220.035156 L 222.480469 220.410156 L 222.167969 219.410156 L 226.574219 216.863281 L 221.496094 217.160156 L 221.199219 216.160156 Z M 226.894531 224.535156 C 226.683594 223.847656 226.445313 223.394531 226.175781 223.175781 C 225.914063 222.964844 225.574219 222.929688 225.160156 223.066406 C 224.824219 223.160156 224.589844 223.335938 224.457031 223.597656 C 224.320313 223.855469 224.304688 224.160156 224.410156 224.503906 C 224.554688 224.980469 224.855469 225.304688 225.316406 225.472656 C 225.773438 225.636719 226.304688 225.628906 226.910156 225.441406 L 227.144531 225.378906 Z M 227.785156 226.128906 L 224.488281 227.113281 L 224.238281 226.253906 L 225.113281 225.988281 C 224.695313 225.894531 224.363281 225.726563 224.113281 225.488281 C 223.863281 225.257813 223.667969 224.929688 223.535156 224.503906 C 223.378906 223.980469 223.417969 223.511719 223.660156 223.097656 C 223.898438 222.679688 224.292969 222.386719 224.847656 222.222656 C 225.492188 222.027344 226.039063 222.074219 226.488281 222.363281 C 226.933594 222.652344 227.277344 223.191406 227.519531 223.972656 L 227.878906 225.160156 L 227.957031 225.128906 C 228.402344 224.992188 228.707031 224.761719 228.863281 224.441406 C 229.019531 224.117188 229.023438 223.722656 228.878906 223.253906 C 228.792969 222.960938 228.667969 222.679688 228.503906 222.410156 C 228.347656 222.152344 228.148438 221.917969 227.910156 221.707031 L 228.769531 221.441406 C 229.007813 221.722656 229.199219 221.996094 229.347656 222.253906 C 229.503906 222.523438 229.621094 222.800781 229.707031 223.082031 C 229.933594 223.832031 229.886719 224.457031 229.566406 224.957031 C 229.253906 225.464844 228.660156 225.855469 227.785156 226.128906 Z M 225.144531 231.167969 C 224.375 231.136719 223.855469 231.035156 223.582031 230.871094 C 223.3125 230.703125 223.121094 230.433594 223.003906 230.058594 L 222.785156 229.371094 L 223.566406 229.136719 L 223.722656 229.636719 C 223.796875 229.863281 223.917969 230.027344 224.082031 230.121094 C 224.238281 230.214844 224.574219 230.277344 225.082031 230.308594 L 225.566406 230.308594 L 230.597656 226.511719 L 230.878906 227.417969 L 226.847656 230.386719 L 231.847656 230.652344 L 232.128906 231.558594 Z M 225.144531 231.167969 "/>
<path style="fill:none;stroke-width:3;stroke-linecap:round;stroke-linejoin:round;stroke:rgb(100%,100%,100%);stroke-opacity:1;stroke-miterlimit:10;" d="M 43.757813 69.992188 L 44.570313 70.804688 C 44.101563 70.804688 43.675781 70.878906 43.289063 71.023438 C 42.90625 71.160156 42.566406 71.375 42.273438 71.664063 C 41.691406 72.25 41.441406 72.894531 41.523438 73.601563 C 41.609375 74.3125 42.023438 75.039063 42.773438 75.789063 C 43.515625 76.539063 44.238281 76.960938 44.945313 77.054688 C 45.652344 77.140625 46.296875 76.890625 46.882813 76.304688 C 47.171875 76.015625 47.390625 75.679688 47.539063 75.304688 C 47.683594 74.921875 47.75 74.488281 47.742188 74.007813 L 48.539063 74.804688 C 48.476563 75.234375 48.355469 75.628906 48.179688 75.992188 C 48 76.347656 47.761719 76.675781 47.460938 76.976563 C 46.6875 77.75 45.820313 78.09375 44.851563 78.007813 C 43.882813 77.925781 42.953125 77.425781 42.054688 76.507813 C 41.140625 75.59375 40.640625 74.648438 40.554688 73.679688 C 40.472656 72.710938 40.816406 71.84375 41.585938 71.070313 C 41.898438 70.757813 42.238281 70.519531 42.601563 70.351563 C 42.96875 70.175781 43.351563 70.054688 43.757813 69.992188 Z M 48.28125 72.59375 L 45.71875 70.015625 L 46.359375 69.390625 L 48.890625 71.953125 C 49.296875 72.351563 49.664063 72.578125 50 72.640625 C 50.34375 72.703125 50.65625 72.59375 50.9375 72.3125 C 51.28125 71.96875 51.429688 71.585938 51.390625 71.15625 C 51.347656 70.71875 51.117188 70.292969 50.703125 69.875 L 48.3125 67.453125 L 48.9375 66.828125 L 53.171875 71.09375 L 52.546875 71.71875 L 51.890625 71.0625 C 51.992188 71.480469 52.003906 71.851563 51.921875 72.171875 C 51.847656 72.496094 51.675781 72.792969 51.40625 73.0625 C 50.96875 73.492188 50.484375 73.667969 49.953125 73.59375 C 49.421875 73.511719 48.867188 73.179688 48.28125 72.59375 Z M 47.203125 68.328125 Z M 48.597656 63.855469 L 49.222656 63.230469 L 55.113281 69.167969 L 54.488281 69.792969 Z M 50.949219 61.683594 L 51.636719 61.136719 L 56.871094 67.652344 L 56.183594 68.199219 Z M 58.710938 60.222656 C 58.636719 59.722656 58.65625 59.300781 58.773438 58.957031 C 58.898438 58.605469 59.125 58.300781 59.460938 58.050781 C 59.917969 57.707031 60.398438 57.625 60.898438 57.800781 C 61.40625 57.96875 61.902344 58.378906 62.382813 59.035156 L 64.539063 61.957031 L 63.820313 62.488281 L 61.695313 59.597656 C 61.339844 59.128906 61.007813 58.839844 60.695313 58.722656 C 60.390625 58.609375 60.089844 58.660156 59.789063 58.878906 C 59.421875 59.152344 59.230469 59.503906 59.210938 59.941406 C 59.1875 60.371094 59.355469 60.824219 59.710938 61.300781 L 61.726563 64.035156 L 61.007813 64.566406 L 58.882813 61.675781 C 58.527344 61.207031 58.195313 60.917969 57.882813 60.800781 C 57.570313 60.6875 57.265625 60.738281 56.960938 60.957031 C 56.597656 61.238281 56.410156 61.59375 56.398438 62.019531 C 56.378906 62.449219 56.546875 62.902344 56.898438 63.378906 L 58.914063 66.113281 L 58.179688 66.644531 L 54.617188 61.800781 L 55.351563 61.269531 L 55.898438 62.019531 C 55.835938 61.59375 55.867188 61.230469 55.992188 60.925781 C 56.117188 60.625 56.335938 60.359375 56.648438 60.128906 C 56.972656 59.890625 57.304688 59.78125 57.648438 59.800781 C 58 59.8125 58.355469 59.953125 58.710938 60.222656 Z M 66.160156 57 C 65.574219 57.429688 65.226563 57.804688 65.113281 58.125 C 65 58.4375 65.074219 58.773438 65.332031 59.125 C 65.539063 59.398438 65.789063 59.554688 66.082031 59.59375 C 66.371094 59.636719 66.660156 59.554688 66.941406 59.34375 C 67.347656 59.042969 67.554688 58.648438 67.566406 58.15625 C 67.574219 57.667969 67.394531 57.167969 67.019531 56.65625 L 66.878906 56.46875 Z M 67.332031 55.625 L 69.378906 58.390625 L 68.675781 58.90625 L 68.144531 58.171875 C 68.175781 58.589844 68.121094 58.960938 67.988281 59.28125 C 67.851563 59.605469 67.605469 59.898438 67.253906 60.15625 C 66.804688 60.480469 66.347656 60.601563 65.878906 60.515625 C 65.417969 60.433594 65.019531 60.15625 64.675781 59.6875 C 64.269531 59.148438 64.128906 58.617188 64.253906 58.09375 C 64.371094 57.574219 64.753906 57.074219 65.410156 56.59375 L 66.425781 55.84375 L 66.363281 55.78125 C 66.089844 55.40625 65.773438 55.203125 65.410156 55.171875 C 65.046875 55.132813 64.667969 55.257813 64.269531 55.546875 C 64.03125 55.726563 63.816406 55.933594 63.628906 56.171875 C 63.433594 56.414063 63.277344 56.683594 63.160156 56.984375 L 62.613281 56.265625 C 62.792969 55.945313 62.984375 55.667969 63.191406 55.4375 C 63.390625 55.199219 63.609375 54.996094 63.847656 54.828125 C 64.472656 54.359375 65.074219 54.195313 65.644531 54.328125 C 66.226563 54.453125 66.789063 54.886719 67.332031 55.625 Z M 72.320313 51.71875 L 74.476563 54.640625 L 73.757813 55.15625 L 71.632813 52.265625 C 71.289063 51.808594 70.949219 51.527344 70.617188 51.421875 C 70.292969 51.308594 69.972656 51.371094 69.648438 51.609375 C 69.265625 51.890625 69.0625 52.25 69.039063 52.6875 C 69.019531 53.125 69.1875 53.585938 69.539063 54.0625 L 71.554688 56.796875 L 70.820313 57.328125 L 67.257813 52.484375 L 67.992188 51.953125 L 68.539063 52.703125 C 68.488281 52.289063 68.523438 51.921875 68.648438 51.609375 C 68.773438 51.296875 68.992188 51.027344 69.304688 50.796875 C 69.796875 50.433594 70.292969 50.328125 70.804688 50.484375 C 71.324219 50.640625 71.828125 51.054688 72.320313 51.71875 Z M 76.390625 44.679688 L 77.59375 48.710938 L 79.765625 47.195313 Z M 75.3125 44.132813 L 76.21875 43.492188 L 83.078125 48.476563 L 82.25 49.070313 L 80.53125 47.757813 L 77.875 49.617188 L 78.515625 51.679688 L 77.671875 52.273438 Z M 79.945313 43.34375 L 80.710938 42.8125 L 84.976563 45.96875 L 83.476563 40.859375 L 84.257813 40.328125 L 86.039063 46.40625 L 85.054688 47.09375 Z M 90.648438 39.230469 L 90.914063 39.621094 L 87.554688 41.964844 C 87.980469 42.496094 88.433594 42.816406 88.914063 42.917969 C 89.390625 43.011719 89.871094 42.894531 90.351563 42.558594 C 90.632813 42.363281 90.871094 42.132813 91.070313 41.871094 C 91.277344 41.613281 91.464844 41.316406 91.632813 40.980469 L 92.164063 41.746094 C 91.984375 42.058594 91.78125 42.347656 91.554688 42.605469 C 91.324219 42.855469 91.070313 43.082031 90.789063 43.277344 C 90.078125 43.769531 89.355469 43.933594 88.617188 43.777344 C 87.890625 43.613281 87.253906 43.132813 86.710938 42.339844 C 86.148438 41.539063 85.898438 40.761719 85.960938 40.011719 C 86.015625 39.261719 86.375 38.652344 87.039063 38.183594 C 87.632813 37.769531 88.25 37.652344 88.898438 37.839844 C 89.542969 38.027344 90.125 38.492188 90.648438 39.230469 Z M 89.742188 39.480469 C 89.417969 39.054688 89.054688 38.785156 88.648438 38.667969 C 88.25 38.554688 87.878906 38.621094 87.523438 38.871094 C 87.109375 39.152344 86.867188 39.511719 86.804688 39.949219 C 86.742188 40.378906 86.859375 40.832031 87.148438 41.308594 Z M 95.308594 35.484375 L 97.386719 38.453125 L 96.652344 38.96875 L 94.589844 36.03125 C 94.265625 35.5625 93.9375 35.273438 93.605469 35.15625 C 93.28125 35.03125 92.957031 35.085938 92.636719 35.3125 C 92.253906 35.59375 92.042969 35.953125 92.011719 36.390625 C 91.972656 36.828125 92.117188 37.28125 92.449219 37.75 L 94.402344 40.546875 L 93.667969 41.0625 L 90.214844 36.140625 L 90.949219 35.625 L 91.496094 36.390625 C 91.457031 35.976563 91.503906 35.609375 91.636719 35.296875 C 91.773438 34.984375 91.996094 34.71875 92.308594 34.5 C 92.808594 34.148438 93.3125 34.054688 93.824219 34.21875 C 94.332031 34.375 94.828125 34.796875 95.308594 35.484375 Z M 97.40625 35.539063 L 95.3125 32.570313 L 96.046875 32.054688 L 98.125 35.007813 C 98.445313 35.46875 98.769531 35.757813 99.09375 35.882813 C 99.414063 36.007813 99.738281 35.957031 100.0625 35.726563 C 100.46875 35.445313 100.6875 35.085938 100.71875 34.648438 C 100.75 34.210938 100.59375 33.75 100.25 33.257813 L 98.296875 30.476563 L 99.03125 29.976563 L 102.484375 34.898438 L 101.75 35.398438 L 101.21875 34.648438 C 101.25 35.066406 101.203125 35.429688 101.078125 35.742188 C 100.953125 36.046875 100.726563 36.3125 100.40625 36.539063 C 99.90625 36.882813 99.394531 36.972656 98.875 36.804688 C 98.363281 36.640625 97.875 36.21875 97.40625 35.539063 Z M 97.0625 31.164063 Z M 105.925781 28.53125 L 106.207031 28.921875 L 102.847656 31.265625 C 103.261719 31.796875 103.710938 32.117188 104.191406 32.21875 C 104.667969 32.3125 105.148438 32.195313 105.628906 31.859375 C 105.910156 31.664063 106.148438 31.433594 106.347656 31.171875 C 106.554688 30.914063 106.742188 30.617188 106.910156 30.28125 L 107.441406 31.046875 C 107.261719 31.359375 107.058594 31.648438 106.832031 31.90625 C 106.601563 32.15625 106.347656 32.382813 106.066406 32.578125 C 105.355469 33.070313 104.632813 33.234375 103.894531 33.078125 C 103.167969 32.914063 102.53125 32.433594 101.988281 31.640625 C 101.425781 30.839844 101.175781 30.0625 101.238281 29.3125 C 101.292969 28.5625 101.652344 27.953125 102.316406 27.484375 C 102.910156 27.070313 103.527344 26.953125 104.175781 27.140625 C 104.820313 27.328125 105.402344 27.792969 105.925781 28.53125 Z M 105.019531 28.796875 C 104.695313 28.351563 104.332031 28.074219 103.925781 27.96875 C 103.527344 27.855469 103.15625 27.921875 102.800781 28.171875 C 102.386719 28.453125 102.144531 28.8125 102.082031 29.25 C 102.019531 29.679688 102.136719 30.132813 102.425781 30.609375 Z M 105.019531 28.796875 "/>
<path style=" stroke:none;fill-rule:evenodd;fill:rgb(20%,20%,20%);fill-opacity:1;" d="M 43.757813 69.992188 L 44.570313 70.804688 C 44.101563 70.804688 43.675781 70.878906 43.289063 71.023438 C 42.90625 71.160156 42.566406 71.375 42.273438 71.664063 C 41.691406 72.25 41.441406 72.894531 41.523438 73.601563 C 41.609375 74.3125 42.023438 75.039063 42.773438 75.789063 C 43.515625 76.539063 44.238281 76.960938 44.945313 77.054688 C 45.652344 77.140625 46.296875 76.890625 46.882813 76.304688 C 47.171875 76.015625 47.390625 75.679688 47.539063 75.304688 C 47.683594 74.921875 47.75 74.488281 47.742188 74.007813 L 48.539063 74.804688 C 48.476563 75.234375 48.355469 75.628906 48.179688 75.992188 C 48 76.347656 47.761719 76.675781 47.460938 76.976563 C 46.6875 77.75 45.820313 78.09375 44.851563 78.007813 C 43.882813 77.925781 42.953125 77.425781 42.054688 76.507813 C 41.140625 75.59375 40.640625 74.648438 40.554688 73.679688 C 40.472656 72.710938 40.816406 71.84375 41.585938 71.070313 C 41.898438 70.757813 42.238281 70.519531 42.601563 70.351563 C 42.96875 70.175781 43.351563 70.054688 43.757813 69.992188 Z M 48.28125 72.59375 L 45.71875 70.015625 L 46.359375 69.390625 L 48.890625 71.953125 C 49.296875 72.351563 49.664063 72.578125 50 72.640625 C 50.34375 72.703125 50.65625 72.59375 50.9375 72.3125 C 51.28125 71.96875 51.429688 71.585938 51.390625 71.15625 C 51.347656 70.71875 51.117188 70.292969 50.703125 69.875 L 48.3125 67.453125 L 48.9375 66.828125 L 53.171875 71.09375 L 52.546875 71.71875 L 51.890625 71.0625 C 51.992188 71.480469 52.003906 71.851563 51.921875 72.171875 C 51.847656 72.496094 51.675781 72.792969 51.40625 73.0625 C 50.96875 73.492188 50.484375 73.667969 49.953125 73.59375 C 49.421875 73.511719 48.867188 73.179688 48.28125 72.59375 Z M 47.203125 68.328125 Z M 48.597656 63.855469 L 49.222656 63.230469 L 55.113281 69.167969 L 54.488281 69.792969 Z M 50.949219 61.683594 L 51.636719 61.136719 L 56.871094 67.652344 L 56.183594 68.199219 Z M 58.710938 60.222656 C 58.636719 59.722656 58.65625 59.300781 58.773438 58.957031 C 58.898438 58.605469 59.125 58.300781 59.460938 58.050781 C 59.917969 57.707031 60.398438 57.625 60.898438 57.800781 C 61.40625 57.96875 61.902344 58.378906 62.382813 59.035156 L 64.539063 61.957031 L 63.820313 62.488281 L 61.695313 59.597656 C 61.339844 59.128906 61.007813 58.839844 60.695313 58.722656 C 60.390625 58.609375 60.089844 58.660156 59.789063 58.878906 C 59.421875 59.152344 59.230469 59.503906 59.210938 59.941406 C 59.1875 60.371094 59.355469 60.824219 59.710938 61.300781 L 61.726563 64.035156 L 61.007813 64.566406 L 58.882813 61.675781 C 58.527344 61.207031 58.195313 60.917969 57.882813 60.800781 C 57.570313 60.6875 57.265625 60.738281 56.960938 60.957031 C 56.597656 61.238281 56.410156 61.59375 56.398438 62.019531 C 56.378906 62.449219 56.546875 62.902344 56.898438 63.378906 L 58.914063 66.113281 L 58.179688 66.644531 L 54.617188 61.800781 L 55.351563 61.269531 L 55.898438 62.019531 C 55.835938 61.59375 55.867188 61.230469 55.992188 60.925781 C 56.117188 60.625 56.335938 60.359375 56.648438 60.128906 C 56.972656 59.890625 57.304688 59.78125 57.648438 59.800781 C 58 59.8125 58.355469 59.953125 58.710938 60.222656 Z M 66.160156 57 C 65.574219 57.429688 65.226563 57.804688 65.113281 58.125 C 65 58.4375 65.074219 58.773438 65.332031 59.125 C 65.539063 59.398438 65.789063 59.554688 66.082031 59.59375 C 66.371094 59.636719 66.660156 59.554688 66.941406 59.34375 C 67.347656 59.042969 67.554688 58.648438 67.566406 58.15625 C 67.574219 57.667969 67.394531 57.167969 67.019531 56.65625 L 66.878906 56.46875 Z M 67.332031 55.625 L 69.378906 58.390625 L 68.675781 58.90625 L 68.144531 58.171875 C 68.175781 58.589844 68.121094 58.960938 67.988281 59.28125 C 67.851563 59.605469 67.605469 59.898438 67.253906 60.15625 C 66.804688 60.480469 66.347656 60.601563 65.878906 60.515625 C 65.417969 60.433594 65.019531 60.15625 64.675781 59.6875 C 64.269531 59.148438 64.128906 58.617188 64.253906 58.09375 C 64.371094 57.574219 64.753906 57.074219 65.410156 56.59375 L 66.425781 55.84375 L 66.363281 55.78125 C 66.089844 55.40625 65.773438 55.203125 65.410156 55.171875 C 65.046875 55.132813 64.667969 55.257813 64.269531 55.546875 C 64.03125 55.726563 63.816406 55.933594 63.628906 56.171875 C 63.433594 56.414063 63.277344 56.683594 63.160156 56.984375 L 62.613281 56.265625 C 62.792969 55.945313 62.984375 55.667969 63.191406 55.4375 C 63.390625 55.199219 63.609375 54.996094 63.847656 54.828125 C 64.472656 54.359375 65.074219 54.195313 65.644531 54.328125 C 66.226563 54.453125 66.789063 54.886719 67.332031 55.625 Z M 72.320313 51.71875 L 74.476563 54.640625 L 73.757813 55.15625 L 71.632813 52.265625 C 71.289063 51.808594 70.949219 51.527344 70.617188 51.421875 C 70.292969 51.308594 69.972656 51.371094 69.648438 51.609375 C 69.265625 51.890625 69.0625 52.25 69.039063 52.6875 C 69.019531 53.125 69.1875 53.585938 69.539063 54.0625 L 71.554688 56.796875 L 70.820313 57.328125 L 67.257813 52.484375 L 67.992188 51.953125 L 68.539063 52.703125 C 68.488281 52.289063 68.523438 51.921875 68.648438 51.609375 C 68.773438 51.296875 68.992188 51.027344 69.304688 50.796875 C 69.796875 50.433594 70.292969 50.328125 70.804688 50.484375 C 71.324219 50.640625 71.828125 51.054688 72.320313 51.71875 Z M 76.390625 44.679688 L 77.59375 48.710938 L 79.765625 47.195313 Z M 75.3125 44.132813 L 76.21875 43.492188 L 83.078125 48.476563 L 82.25 49.070313 L 80.53125 47.757813 L 77.875 49.617188 L 78.515625 51.679688 L 77.671875 52.273438 Z M 79.945313 43.34375 L 80.710938 42.8125 L 84.976563 45.96875 L 83.476563 40.859375 L 84.257813 40.328125 L 86.039063 46.40625 L 85.054688 47.09375 Z M 90.648438 39.230469 L 90.914063 39.621094 L 87.554688 41.964844 C 87.980469 42.496094 88.433594 42.816406 88.914063 42.917969 C 89.390625 43.011719 89.871094 42.894531 90.351563 42.558594 C 90.632813 42.363281 90.871094 42.132813 91.070313 41.871094 C 91.277344 41.613281 91.464844 41.316406 91.632813 40.980469 L 92.164063 41.746094 C 91.984375 42.058594 91.78125 42.347656 91.554688 42.605469 C 91.324219 42.855469 91.070313 43.082031 90.789063 43.277344 C 90.078125 43.769531 89.355469 43.933594 88.617188 43.777344 C 87.890625 43.613281 87.253906 43.132813 86.710938 42.339844 C 86.148438 41.539063 85.898438 40.761719 85.960938 40.011719 C 86.015625 39.261719 86.375 38.652344 87.039063 38.183594 C 87.632813 37.769531 88.25 37.652344 88.898438 37.839844 C 89.542969 38.027344 90.125 38.492188 90.648438 39.230469 Z M 89.742188 39.480469 C 89.417969 39.054688 89.054688 38.785156 88.648438 38.667969 C 88.25 38.554688 87.878906 38.621094 87.523438 38.871094 C 87.109375 39.152344 86.867188 39.511719 86.804688 39.949219 C 86.742188 40.378906 86.859375 40.832031 87.148438 41.308594 Z M 95.308594 35.484375 L 97.386719 38.453125 L 96.652344 38.96875 L 94.589844 36.03125 C 94.265625 35.5625 93.9375 35.273438 93.605469 35.15625 C 93.28125 35.03125 92.957031 35.085938 92.636719 35.3125 C 92.253906 35.59375 92.042969 35.953125 92.011719 36.390625 C 91.972656 36.828125 92.117188 37.28125 92.449219 37.75 L 94.402344 40.546875 L 93.667969 41.0625 L 90.214844 36.140625 L 90.949219 35.625 L 91.496094 36.390625 C 91.457031 35.976563 91.503906 35.609375 91.636719 35.296875 C 91.773438 34.984375 91.996094 34.71875 92.308594 34.5 C 92.808594 34.148438 93.3125 34.054688 93.824219 34.21875 C 94.332031 34.375 94.828125 34.796875 95.308594 35.484375 Z M 97.40625 35.539063 L 95.3125 32.570313 L 96.046875 32.054688 L 98.125 35.007813 C 98.445313 35.46875 98.769531 35.757813 99.09375 35.882813 C 99.414063 36.007813 99.738281 35.957031 100.0625 35.726563 C 100.46875 35.445313 100.6875 35.085938 100.71875 34.648438 C 100.75 34.210938 100.59375 33.75 100.25 33.257813 L 98.296875 30.476563 L 99.03125 29.976563 L 102.484375 34.898438 L 101.75 35.398438 L 101.21875 34.648438 C 101.25 35.066406 101.203125 35.429688 101.078125 35.742188 C 100.953125 36.046875 100.726563 36.3125 100.40625 36.539063 C 99.90625 36.882813 99.394531 36.972656 98.875 36.804688 C 98.363281 36.640625 97.875 36.21875 97.40625 35.539063 Z M 97.0625 31.164063 Z M 105.925781 28.53125 L 106.207031 28.921875 L 102.847656 31.265625 C 103.261719 31.796875 103.710938 32.117188 104.191406 32.21875 C 104.667969 32.3125 105.148438 32.195313 105.628906 31.859375 C 105.910156 31.664063 106.148438 31.433594 106.347656 31.171875 C 106.554688 30.914063 106.742188 30.617188 106.910156 30.28125 L 107.441406 31.046875 C 107.261719 31.359375 107.058594 31.648438 106.832031 31.90625 C 106.601563 32.15625 106.347656 32.382813 106.066406 32.578125 C 105.355469 33.070313 104.632813 33.234375 103.894531 33.078125 C 103.167969 32.914063 102.53125 32.433594 101.988281 31.640625 C 101.425781 30.839844 101.175781 30.0625 101.238281 29.3125 C 101.292969 28.5625 101.652344 27.953125 102.316406 27.484375 C 102.910156 27.070313 103.527344 26.953125 104.175781 27.140625 C 104.820313 27.328125 105.402344 27.792969 105.925781 28.53125 Z M 105.019531 28.796875 C 104.695313 28.351563 104.332031 28.074219 103.925781 27.96875 C 103.527344 27.855469 103.15625 27.921875 102.800781 28.171875 C 102.386719 28.453125 102.144531 28.8125 102.082031 29.25 C 102.019531 29.679688 102.136719 30.132813 102.425781 30.609375 Z M 105.019531 28.796875 "/>
</g>
</svg>

