<?xml version="1.0" encoding="UTF-8"?>
<svg xmlns="http://www.w3.org/2000/svg" xmlns:xlink="http://www.w3.org/1999/xlink" width="256pt" height="256pt" viewBox="0 0 256 256" version="1.1">
<g id="surface2">
<rect x="0" y="0" width="256" height="256" style="fill:rgb(94.901961%,93.72549%,91.372549%);fill-opacity:1;stroke:none;"/>
<path style="fill:none;stroke-width:8;stroke-linecap:round;stroke-linejoin:round;stroke:rgb(75.686275%,70.980392%,61.568627%);stroke-opacity:1;stroke-miterlimit:10;" d="M 247.21875 0.605469 L 253.488281 0.605469 L 264 0.0976563 "/>
<path style="fill:none;stroke-width:8;stroke-linecap:round;stroke-linejoin:round;stroke:rgb(75.686275%,70.980392%,61.568627%);stroke-opacity:1;stroke-miterlimit:10;" d="M 264 103.324219 L 263.109375 93.375 L 258.613281 50.304688 L 255.699219 17.246094 L 255.257813 14.40625 L 252.160156 7.75 L 250.527344 5.011719 L 247.21875 0.605469 L 237.523438 0.410156 L 203.503906 -2.429688 L 194.625 -3.605469 L 178.058594 -4.910156 L 169.273438 -6.117188 L 145.019531 -8.46875 L 141.378906 -9 "/>
<path style="fill:none;stroke-width:6;stroke-linecap:round;stroke-linejoin:round;stroke:rgb(100%,100%,100%);stroke-opacity:1;stroke-miterlimit:10;" d="M 247.21875 0.605469 L 253.488281 0.605469 L 264 0.0976563 "/>
<path style="fill:none;stroke-width:6;stroke-linecap:round;stroke-linejoin:round;stroke:rgb(100%,100%,100%);stroke-opacity:1;stroke-miterlimit:10;" d="M 264 103.324219 L 263.109375 93.375 L 258.613281 50.304688 L 255.699219 17.246094 L 255.257813 14.40625 L 252.160156 7.75 L 250.527344 5.011719 L 247.21875 0.605469 L 237.523438 0.410156 L 203.503906 -2.429688 L 194.625 -3.605469 L 178.058594 -4.910156 L 169.273438 -6.117188 L 145.019531 -8.46875 L 141.378906 -9 "/>
</g>
</svg>

