<?xml version="1.0" encoding="UTF-8"?>
<svg xmlns="http://www.w3.org/2000/svg" xmlns:xlink="http://www.w3.org/1999/xlink" width="256pt" height="256pt" viewBox="0 0 256 256" version="1.1">
<g id="surface2">
<rect x="0" y="0" width="256" height="256" style="fill:rgb(94.901961%,93.72549%,91.372549%);fill-opacity:1;stroke:none;"/>
<path style=" stroke:none;fill-rule:evenodd;fill:rgb(79.607843%,84.705882%,76.470588%);fill-opacity:1;" d="M 260 260 L 260 -4 L 260 134.648438 L 258.527344 136.695313 L 242.550781 162.320313 L 232.738281 184.523438 L 229.078125 208.25 L 225.109375 221.203125 L 219.042969 232.816406 L 203.660156 258.691406 L 203.101563 260 Z M 260 260 "/>
<path style=" stroke:none;fill-rule:evenodd;fill:rgb(70.980392%,82.352941%,61.176471%);fill-opacity:1;" d="M 260 260 L 260 -4 L 260 134.648438 L 258.527344 136.695313 L 242.550781 162.320313 L 232.738281 184.523438 L 229.078125 208.25 L 225.109375 221.203125 L 219.042969 232.816406 L 203.660156 258.691406 L 203.101563 260 Z M 260 260 "/>
<path style=" stroke:none;fill-rule:evenodd;fill:rgb(60%,70.196078%,80%);fill-opacity:1;" d="M -4 259 L 259 259 L 259 -4 L 259 259 Z M -4 259 "/>
<path style="fill:none;stroke-width:1;stroke-linecap:round;stroke-linejoin:round;stroke:rgb(70.196078%,77.647059%,83.137255%);stroke-opacity:1;stroke-miterlimit:10;" d="M -4 259 L 259 259 L 259 -4 L 259 259 L -4 259 "/>
</g>
</svg>

