<?xml version="1.0" encoding="UTF-8"?>
<svg xmlns="http://www.w3.org/2000/svg" xmlns:xlink="http://www.w3.org/1999/xlink" width="256pt" height="256pt" viewBox="0 0 256 256" version="1.1">
<g id="surface2">
<rect x="0" y="0" width="256" height="256" style="fill:rgb(94.901961%,93.72549%,91.372549%);fill-opacity:1;stroke:none;"/>
<path style="fill:none;stroke-width:2;stroke-linecap:round;stroke-linejoin:round;stroke:rgb(60%,70.196078%,80%);stroke-opacity:1;stroke-miterlimit:10;" d="M 91.984375 258 L 79.753906 238.3125 L 40.347656 195 L 7.195313 163.503906 L 0.742188 150.515625 L 2.164063 124.210938 L 8.578125 85.472656 L 13.15625 66.472656 L 9.898438 38.699219 L 10.167969 1.246094 L 10.433594 -3 "/>
<path style="fill:none;stroke-width:1;stroke-linecap:round;stroke-linejoin:round;stroke:rgb(100%,100%,100%);stroke-opacity:1;stroke-dasharray:2,3;stroke-miterlimit:10;" d="M 14.613281 71.578125 L 17.253906 72.785156 L 18.03125 76.957031 L 15.605469 81.324219 "/>
<path style="fill:none;stroke-width:1;stroke-linecap:round;stroke-linejoin:round;stroke:rgb(100%,100%,100%);stroke-opacity:1;stroke-dasharray:2,3;stroke-miterlimit:10;" d="M 14.347656 -2 L 14.261719 8.886719 L 30.972656 43.539063 L 16.636719 60.984375 L 14.613281 71.578125 L 7.394531 72.203125 L -0.636719 77.683594 L -2 82.792969 M -2 160.101563 L 0.3125 160.894531 L 7.558594 169.746094 L 11.324219 172.277344 L 10.957031 184.386719 L 8.554688 188.480469 L 0.738281 191.246094 L 0.304688 203.976563 L -2 206.699219 "/>
</g>
</svg>

