<?xml version="1.0" encoding="UTF-8"?>
<svg xmlns="http://www.w3.org/2000/svg" xmlns:xlink="http://www.w3.org/1999/xlink" width="256pt" height="256pt" viewBox="0 0 256 256" version="1.1">
<g id="surface2">
<rect x="0" y="0" width="256" height="256" style="fill:rgb(94.901961%,93.72549%,91.372549%);fill-opacity:1;stroke:none;"/>
<path style="fill:none;stroke-width:8;stroke-linecap:round;stroke-linejoin:round;stroke:rgb(75.686275%,70.980392%,61.568627%);stroke-opacity:1;stroke-miterlimit:10;" d="M 264 44.796875 L 259.015625 44.71875 L 256.804688 45.210938 L 253.121094 47.046875 L 249.441406 49.898438 L 240.328125 54.6875 L 238.488281 55.34375 L 233.78125 55.34375 L 231.101563 54.6875 L 224.320313 50.523438 L 203.929688 32.882813 L 194.867188 26.621094 L 189.902344 21.933594 L 188.785156 20.128906 L 188.34375 17.800781 L 188.34375 14.03125 L 187.574219 10.292969 L 186.386719 7.671875 L 182.285156 2.457031 L 180.792969 -0.425781 L 180.164063 -2.753906 L 179.789063 -5.476563 L 178.765625 -8.199219 L 178.191406 -9 "/>
<path style="fill:none;stroke-width:6;stroke-linecap:round;stroke-linejoin:round;stroke:rgb(100%,100%,100%);stroke-opacity:1;stroke-miterlimit:10;" d="M 264 44.796875 L 259.015625 44.71875 L 256.804688 45.210938 L 253.121094 47.046875 L 249.441406 49.898438 L 240.328125 54.6875 L 238.488281 55.34375 L 233.78125 55.34375 L 231.101563 54.6875 L 224.320313 50.523438 L 203.929688 32.882813 L 194.867188 26.621094 L 189.902344 21.933594 L 188.785156 20.128906 L 188.34375 17.800781 L 188.34375 14.03125 L 187.574219 10.292969 L 186.386719 7.671875 L 182.285156 2.457031 L 180.792969 -0.425781 L 180.164063 -2.753906 L 179.789063 -5.476563 L 178.765625 -8.199219 L 178.191406 -9 "/>
</g>
</svg>

