<?xml version="1.0" encoding="UTF-8"?>
<svg xmlns="http://www.w3.org/2000/svg" xmlns:xlink="http://www.w3.org/1999/xlink" width="256pt" height="256pt" viewBox="0 0 256 256" version="1.1">
<g id="surface2">
<rect x="0" y="0" width="256" height="256" style="fill:rgb(94.901961%,93.72549%,91.372549%);fill-opacity:1;stroke:none;"/>
<path style=" stroke:none;fill-rule:evenodd;fill:rgb(60%,70.196078%,80%);fill-opacity:1;" d="M -4 -4 L 259 -4 L 259 259 L 259 -4 Z M 259 -4 Z M 259 -4 "/>
<path style="fill:none;stroke-width:1;stroke-linecap:round;stroke-linejoin:round;stroke:rgb(70.196078%,77.647059%,83.137255%);stroke-opacity:1;stroke-miterlimit:10;" d="M -4 -4 L 259 -4 L 259 259 L 259 -4 L -4 -4 M 259 -4 L 259 -4 "/>
<path style="fill:none;stroke-width:2;stroke-linecap:round;stroke-linejoin:round;stroke:rgb(60%,70.196078%,80%);stroke-opacity:1;stroke-miterlimit:10;" d="M 223.21875 -3 L 240.796875 20.921875 L 246.539063 26.246094 L 253.402344 36.332031 L 258 40.320313 "/>
<path style="fill:none;stroke-width:8;stroke-linecap:round;stroke-linejoin:round;stroke:rgb(75.686275%,70.980392%,61.568627%);stroke-opacity:1;stroke-miterlimit:10;" d="M 51.480469 43.636719 L 52.808594 38.519531 L 54.984375 31.527344 L 57.304688 23.5 L 57.960938 20.53125 L 58.070313 17.5625 L 57.683594 15.277344 L 57.164063 13.105469 L 55.667969 10.851563 L 52.332031 7.785156 L 48.125 4.117188 L 42.097656 -1.691406 L 37.523438 -5.476563 L 35.140625 -8.058594 L 34.558594 -9 "/>
<path style="fill:none;stroke-width:8;stroke-linecap:round;stroke-linejoin:round;stroke:rgb(75.686275%,70.980392%,61.568627%);stroke-opacity:1;stroke-miterlimit:10;" d="M 230.179688 -9 L 251.011719 10.53125 L 264 22.894531 "/>
<path style="fill:none;stroke-width:6;stroke-linecap:round;stroke-linejoin:round;stroke:rgb(100%,100%,100%);stroke-opacity:1;stroke-miterlimit:10;" d="M 51.480469 43.636719 L 52.808594 38.519531 L 54.984375 31.527344 L 57.304688 23.5 L 57.960938 20.53125 L 58.070313 17.5625 L 57.683594 15.277344 L 57.164063 13.105469 L 55.667969 10.851563 L 52.332031 7.785156 L 48.125 4.117188 L 42.097656 -1.691406 L 37.523438 -5.476563 L 35.140625 -8.058594 L 34.558594 -9 "/>
<path style="fill:none;stroke-width:6;stroke-linecap:round;stroke-linejoin:round;stroke:rgb(100%,100%,100%);stroke-opacity:1;stroke-miterlimit:10;" d="M 230.179688 -9 L 251.011719 10.53125 L 264 22.894531 "/>
</g>
</svg>

