<?xml version="1.0" encoding="UTF-8"?>
<svg xmlns="http://www.w3.org/2000/svg" xmlns:xlink="http://www.w3.org/1999/xlink" width="256pt" height="256pt" viewBox="0 0 256 256" version="1.1">
<g id="surface2">
<rect x="0" y="0" width="256" height="256" style="fill:rgb(60%,70.196078%,80%);fill-opacity:1;stroke:none;"/>
<path style="fill:none;stroke-width:6;stroke-linecap:round;stroke-linejoin:round;stroke:rgb(60%,70.196078%,80%);stroke-opacity:1;stroke-miterlimit:10;" d="M 242.371094 -7 L 111.917969 262 "/>
<path style="fill:none;stroke-width:3;stroke-linecap:round;stroke-linejoin:round;stroke:rgb(100%,100%,100%);stroke-opacity:1;stroke-miterlimit:10;" d="M 156.378906 159.671875 L 156.878906 158.65625 L 160.378906 160.359375 L 162.222656 156.578125 L 158.722656 154.875 L 159.222656 153.828125 L 167.753906 157.96875 L 167.253906 159.015625 L 163.191406 157.046875 L 161.347656 160.828125 L 165.410156 162.796875 L 164.910156 163.8125 Z M 166.15625 154.804688 L 162.296875 152.929688 L 162.75 151.992188 L 166.578125 153.867188 C 167.183594 154.160156 167.6875 154.273438 168.09375 154.210938 C 168.5 154.148438 168.800781 153.90625 169 153.476563 C 169.25 152.96875 169.265625 152.476563 169.046875 152.007813 C 168.835938 151.53125 168.421875 151.140625 167.796875 150.835938 L 164.171875 149.070313 L 164.640625 148.117188 L 171.03125 151.226563 L 170.5625 152.179688 L 169.578125 151.695313 C 169.859375 152.125 170.019531 152.535156 170.0625 152.929688 C 170.101563 153.316406 170.023438 153.710938 169.828125 154.117188 C 169.515625 154.773438 169.046875 155.160156 168.421875 155.273438 C 167.796875 155.390625 167.042969 155.234375 166.15625 154.804688 Z M 163.296875 150.492188 Z M 168.378906 142.859375 L 164.910156 141.171875 L 165.378906 140.234375 L 174.269531 144.546875 L 173.800781 145.484375 L 172.847656 145.015625 C 173.128906 145.402344 173.289063 145.792969 173.332031 146.1875 C 173.371094 146.574219 173.289063 146.980469 173.082031 147.40625 C 172.738281 148.105469 172.152344 148.527344 171.332031 148.671875 C 170.5 148.808594 169.582031 148.632813 168.582031 148.140625 C 167.574219 147.652344 166.863281 147.042969 166.457031 146.3125 C 166.050781 145.574219 166.019531 144.855469 166.363281 144.15625 C 166.574219 143.730469 166.84375 143.414063 167.175781 143.203125 C 167.5 142.984375 167.902344 142.871094 168.378906 142.859375 Z M 169.050781 147.15625 C 169.824219 147.53125 170.5 147.683594 171.082031 147.609375 C 171.652344 147.539063 172.058594 147.257813 172.300781 146.765625 C 172.550781 146.257813 172.523438 145.75 172.222656 145.25 C 171.917969 144.75 171.386719 144.3125 170.613281 143.9375 C 169.832031 143.5625 169.15625 143.414063 168.582031 143.484375 C 168.011719 143.558594 167.597656 143.851563 167.347656 144.359375 C 167.109375 144.851563 167.140625 145.34375 167.441406 145.84375 C 167.734375 146.34375 168.269531 146.78125 169.050781 147.15625 Z M 170.773438 135.902344 L 171.773438 136.386719 C 171.492188 136.585938 171.25 136.808594 171.039063 137.058594 C 170.820313 137.308594 170.632813 137.589844 170.476563 137.902344 C 170.25 138.371094 170.160156 138.769531 170.210938 139.089844 C 170.253906 139.402344 170.4375 139.636719 170.757813 139.792969 C 171 139.910156 171.226563 139.914063 171.445313 139.808594 C 171.664063 139.707031 171.96875 139.429688 172.351563 138.980469 L 172.570313 138.714844 C 173.0625 138.113281 173.519531 137.742188 173.945313 137.605469 C 174.375 137.460938 174.84375 137.511719 175.367188 137.761719 C 175.960938 138.054688 176.328125 138.496094 176.476563 139.089844 C 176.621094 139.675781 176.511719 140.335938 176.148438 141.074219 C 176 141.378906 175.8125 141.683594 175.585938 141.996094 C 175.355469 142.300781 175.085938 142.601563 174.773438 142.902344 L 173.679688 142.371094 C 174.054688 142.132813 174.375 141.867188 174.632813 141.574219 C 174.890625 141.285156 175.105469 140.972656 175.273438 140.636719 C 175.492188 140.191406 175.574219 139.804688 175.523438 139.480469 C 175.46875 139.160156 175.289063 138.925781 174.976563 138.777344 C 174.695313 138.644531 174.4375 138.628906 174.195313 138.730469 C 173.957031 138.824219 173.628906 139.132813 173.210938 139.652344 L 172.960938 139.917969 C 172.535156 140.441406 172.117188 140.761719 171.710938 140.886719 C 171.304688 141.011719 170.851563 140.957031 170.351563 140.714844 C 169.757813 140.425781 169.394531 140.007813 169.257813 139.464844 C 169.113281 138.925781 169.210938 138.300781 169.554688 137.589844 C 169.722656 137.246094 169.910156 136.933594 170.117188 136.652344 C 170.328125 136.363281 170.546875 136.113281 170.773438 135.902344 Z M 173.277344 132.136719 C 173.027344 132.648438 173.054688 133.160156 173.355469 133.667969 C 173.660156 134.167969 174.195313 134.605469 174.964844 134.980469 C 175.738281 135.355469 176.410156 135.503906 176.980469 135.417969 C 177.550781 135.335938 177.964844 135.039063 178.214844 134.527344 C 178.453125 134.019531 178.425781 133.511719 178.136719 133.011719 C 177.84375 132.503906 177.320313 132.066406 176.558594 131.699219 C 175.800781 131.335938 175.121094 131.191406 174.527344 131.261719 C 173.933594 131.335938 173.519531 131.628906 173.277344 132.136719 Z M 172.402344 131.714844 C 172.800781 130.894531 173.410156 130.394531 174.230469 130.214844 C 175.054688 130.027344 175.992188 130.191406 177.042969 130.699219 C 178.09375 131.210938 178.800781 131.847656 179.167969 132.605469 C 179.53125 133.355469 179.515625 134.144531 179.121094 134.964844 C 178.722656 135.789063 178.113281 136.292969 177.292969 136.480469 C 176.472656 136.660156 175.535156 136.492188 174.480469 135.980469 C 173.429688 135.472656 172.722656 134.839844 172.355469 134.089844 C 171.992188 133.332031 172.007813 132.539063 172.402344 131.714844 Z M 179.445313 124.011719 L 183.304688 125.886719 L 182.851563 126.824219 L 179.023438 124.964844 C 178.421875 124.675781 177.914063 124.566406 177.507813 124.636719 C 177.101563 124.710938 176.796875 124.957031 176.585938 125.371094 C 176.347656 125.882813 176.335938 126.378906 176.554688 126.855469 C 176.765625 127.324219 177.1875 127.710938 177.820313 128.011719 L 181.429688 129.761719 L 180.976563 130.714844 L 174.585938 127.605469 L 175.039063 126.652344 L 176.023438 127.136719 C 175.765625 126.730469 175.613281 126.332031 175.570313 125.933594 C 175.519531 125.539063 175.59375 125.136719 175.789063 124.730469 C 176.101563 124.074219 176.570313 123.683594 177.195313 123.558594 C 177.8125 123.433594 178.5625 123.585938 179.445313 124.011719 Z M 183.632813 115.03125 C 183.832031 114.855469 184.117188 114.726563 184.492188 114.640625 C 184.867188 114.558594 185.347656 114.527344 185.929688 114.546875 L 188.773438 114.625 L 188.226563 115.75 L 185.554688 115.671875 C 184.867188 115.632813 184.378906 115.6875 184.085938 115.84375 C 183.785156 115.992188 183.53125 116.273438 183.320313 116.6875 L 182.773438 117.828125 L 186.367188 119.578125 L 185.867188 120.59375 L 177.335938 116.453125 L 178.476563 114.125 C 178.90625 113.242188 179.425781 112.683594 180.039063 112.453125 C 180.65625 112.226563 181.375 112.3125 182.195313 112.71875 C 182.738281 112.96875 183.132813 113.296875 183.382813 113.703125 C 183.625 114.101563 183.707031 114.542969 183.632813 115.03125 Z M 178.789063 115.90625 L 181.804688 117.375 L 182.445313 116.0625 C 182.6875 115.554688 182.742188 115.109375 182.617188 114.734375 C 182.484375 114.359375 182.164063 114.054688 181.664063 113.8125 C 181.175781 113.5625 180.742188 113.507813 180.367188 113.640625 C 179.984375 113.765625 179.671875 114.085938 179.429688 114.59375 Z M 183.007813 110.222656 L 183.460938 109.285156 L 189.851563 112.394531 L 189.398438 113.332031 Z M 180.507813 109.019531 L 180.960938 108.082031 L 182.304688 108.738281 L 181.851563 109.675781 Z M 184.097656 107.984375 L 184.582031 106.984375 L 190.800781 107.796875 L 186.316406 103.390625 L 186.816406 102.375 L 192.160156 107.65625 L 191.535156 108.9375 Z M 192.773438 97.585938 L 193.273438 97.820313 L 191.148438 102.179688 C 191.910156 102.492188 192.5625 102.566406 193.101563 102.398438 C 193.640625 102.222656 194.070313 101.820313 194.382813 101.195313 C 194.558594 100.832031 194.679688 100.457031 194.742188 100.070313 C 194.804688 99.6875 194.820313 99.28125 194.789063 98.851563 L 195.789063 99.335938 C 195.789063 99.742188 195.742188 100.144531 195.648438 100.539063 C 195.5625 100.9375 195.433594 101.316406 195.257813 101.679688 C 194.808594 102.609375 194.15625 103.195313 193.304688 103.445313 C 192.453125 103.695313 191.515625 103.578125 190.492188 103.085938 C 189.453125 102.578125 188.75 101.921875 188.382813 101.117188 C 188.007813 100.304688 188.035156 99.46875 188.460938 98.601563 C 188.835938 97.832031 189.410156 97.351563 190.179688 97.164063 C 190.953125 96.976563 191.816406 97.117188 192.773438 97.585938 Z M 191.992188 98.382813 C 191.421875 98.101563 190.894531 98.019531 190.414063 98.132813 C 189.925781 98.25 189.566406 98.539063 189.335938 99.007813 C 189.078125 99.550781 189.039063 100.0625 189.226563 100.539063 C 189.40625 101.007813 189.785156 101.410156 190.367188 101.742188 Z M 193.183594 91.746094 C 193.070313 91.820313 192.964844 91.914063 192.871094 92.027344 C 192.777344 92.132813 192.695313 92.257813 192.621094 92.402344 C 192.363281 92.945313 192.355469 93.457031 192.605469 93.933594 C 192.847656 94.402344 193.324219 94.808594 194.042969 95.152344 L 197.417969 96.792969 L 196.964844 97.746094 L 190.574219 94.636719 L 191.027344 93.683594 L 192.011719 94.167969 C 191.730469 93.785156 191.574219 93.386719 191.542969 92.980469 C 191.503906 92.574219 191.589844 92.144531 191.808594 91.683594 C 191.839844 91.621094 191.882813 91.554688 191.933594 91.480469 C 191.988281 91.410156 192.039063 91.320313 192.089844 91.214844 Z M 193.183594 91.746094 "/>
<path style=" stroke:none;fill-rule:nonzero;fill:rgb(41.960784%,58.039216%,69.019608%);fill-opacity:1;" d="M 156.378906 159.671875 L 156.878906 158.65625 L 160.378906 160.359375 L 162.222656 156.578125 L 158.722656 154.875 L 159.222656 153.828125 L 167.753906 157.96875 L 167.253906 159.015625 L 163.191406 157.046875 L 161.347656 160.828125 L 165.410156 162.796875 L 164.910156 163.8125 Z M 166.15625 154.804688 L 162.296875 152.929688 L 162.75 151.992188 L 166.578125 153.867188 C 167.183594 154.160156 167.6875 154.273438 168.09375 154.210938 C 168.5 154.148438 168.800781 153.90625 169 153.476563 C 169.25 152.96875 169.265625 152.476563 169.046875 152.007813 C 168.835938 151.53125 168.421875 151.140625 167.796875 150.835938 L 164.171875 149.070313 L 164.640625 148.117188 L 171.03125 151.226563 L 170.5625 152.179688 L 169.578125 151.695313 C 169.859375 152.125 170.019531 152.535156 170.0625 152.929688 C 170.101563 153.316406 170.023438 153.710938 169.828125 154.117188 C 169.515625 154.773438 169.046875 155.160156 168.421875 155.273438 C 167.796875 155.390625 167.042969 155.234375 166.15625 154.804688 Z M 163.296875 150.492188 Z M 168.378906 142.859375 L 164.910156 141.171875 L 165.378906 140.234375 L 174.269531 144.546875 L 173.800781 145.484375 L 172.847656 145.015625 C 173.128906 145.402344 173.289063 145.792969 173.332031 146.1875 C 173.371094 146.574219 173.289063 146.980469 173.082031 147.40625 C 172.738281 148.105469 172.152344 148.527344 171.332031 148.671875 C 170.5 148.808594 169.582031 148.632813 168.582031 148.140625 C 167.574219 147.652344 166.863281 147.042969 166.457031 146.3125 C 166.050781 145.574219 166.019531 144.855469 166.363281 144.15625 C 166.574219 143.730469 166.84375 143.414063 167.175781 143.203125 C 167.5 142.984375 167.902344 142.871094 168.378906 142.859375 Z M 169.050781 147.15625 C 169.824219 147.53125 170.5 147.683594 171.082031 147.609375 C 171.652344 147.539063 172.058594 147.257813 172.300781 146.765625 C 172.550781 146.257813 172.523438 145.75 172.222656 145.25 C 171.917969 144.75 171.386719 144.3125 170.613281 143.9375 C 169.832031 143.5625 169.15625 143.414063 168.582031 143.484375 C 168.011719 143.558594 167.597656 143.851563 167.347656 144.359375 C 167.109375 144.851563 167.140625 145.34375 167.441406 145.84375 C 167.734375 146.34375 168.269531 146.78125 169.050781 147.15625 Z M 170.773438 135.902344 L 171.773438 136.386719 C 171.492188 136.585938 171.25 136.808594 171.039063 137.058594 C 170.820313 137.308594 170.632813 137.589844 170.476563 137.902344 C 170.25 138.371094 170.160156 138.769531 170.210938 139.089844 C 170.253906 139.402344 170.4375 139.636719 170.757813 139.792969 C 171 139.910156 171.226563 139.914063 171.445313 139.808594 C 171.664063 139.707031 171.96875 139.429688 172.351563 138.980469 L 172.570313 138.714844 C 173.0625 138.113281 173.519531 137.742188 173.945313 137.605469 C 174.375 137.460938 174.84375 137.511719 175.367188 137.761719 C 175.960938 138.054688 176.328125 138.496094 176.476563 139.089844 C 176.621094 139.675781 176.511719 140.335938 176.148438 141.074219 C 176 141.378906 175.8125 141.683594 175.585938 141.996094 C 175.355469 142.300781 175.085938 142.601563 174.773438 142.902344 L 173.679688 142.371094 C 174.054688 142.132813 174.375 141.867188 174.632813 141.574219 C 174.890625 141.285156 175.105469 140.972656 175.273438 140.636719 C 175.492188 140.191406 175.574219 139.804688 175.523438 139.480469 C 175.46875 139.160156 175.289063 138.925781 174.976563 138.777344 C 174.695313 138.644531 174.4375 138.628906 174.195313 138.730469 C 173.957031 138.824219 173.628906 139.132813 173.210938 139.652344 L 172.960938 139.917969 C 172.535156 140.441406 172.117188 140.761719 171.710938 140.886719 C 171.304688 141.011719 170.851563 140.957031 170.351563 140.714844 C 169.757813 140.425781 169.394531 140.007813 169.257813 139.464844 C 169.113281 138.925781 169.210938 138.300781 169.554688 137.589844 C 169.722656 137.246094 169.910156 136.933594 170.117188 136.652344 C 170.328125 136.363281 170.546875 136.113281 170.773438 135.902344 Z M 173.277344 132.136719 C 173.027344 132.648438 173.054688 133.160156 173.355469 133.667969 C 173.660156 134.167969 174.195313 134.605469 174.964844 134.980469 C 175.738281 135.355469 176.410156 135.503906 176.980469 135.417969 C 177.550781 135.335938 177.964844 135.039063 178.214844 134.527344 C 178.453125 134.019531 178.425781 133.511719 178.136719 133.011719 C 177.84375 132.503906 177.320313 132.066406 176.558594 131.699219 C 175.800781 131.335938 175.121094 131.191406 174.527344 131.261719 C 173.933594 131.335938 173.519531 131.628906 173.277344 132.136719 Z M 172.402344 131.714844 C 172.800781 130.894531 173.410156 130.394531 174.230469 130.214844 C 175.054688 130.027344 175.992188 130.191406 177.042969 130.699219 C 178.09375 131.210938 178.800781 131.847656 179.167969 132.605469 C 179.53125 133.355469 179.515625 134.144531 179.121094 134.964844 C 178.722656 135.789063 178.113281 136.292969 177.292969 136.480469 C 176.472656 136.660156 175.535156 136.492188 174.480469 135.980469 C 173.429688 135.472656 172.722656 134.839844 172.355469 134.089844 C 171.992188 133.332031 172.007813 132.539063 172.402344 131.714844 Z M 179.445313 124.011719 L 183.304688 125.886719 L 182.851563 126.824219 L 179.023438 124.964844 C 178.421875 124.675781 177.914063 124.566406 177.507813 124.636719 C 177.101563 124.710938 176.796875 124.957031 176.585938 125.371094 C 176.347656 125.882813 176.335938 126.378906 176.554688 126.855469 C 176.765625 127.324219 177.1875 127.710938 177.820313 128.011719 L 181.429688 129.761719 L 180.976563 130.714844 L 174.585938 127.605469 L 175.039063 126.652344 L 176.023438 127.136719 C 175.765625 126.730469 175.613281 126.332031 175.570313 125.933594 C 175.519531 125.539063 175.59375 125.136719 175.789063 124.730469 C 176.101563 124.074219 176.570313 123.683594 177.195313 123.558594 C 177.8125 123.433594 178.5625 123.585938 179.445313 124.011719 Z M 183.632813 115.03125 C 183.832031 114.855469 184.117188 114.726563 184.492188 114.640625 C 184.867188 114.558594 185.347656 114.527344 185.929688 114.546875 L 188.773438 114.625 L 188.226563 115.75 L 185.554688 115.671875 C 184.867188 115.632813 184.378906 115.6875 184.085938 115.84375 C 183.785156 115.992188 183.53125 116.273438 183.320313 116.6875 L 182.773438 117.828125 L 186.367188 119.578125 L 185.867188 120.59375 L 177.335938 116.453125 L 178.476563 114.125 C 178.90625 113.242188 179.425781 112.683594 180.039063 112.453125 C 180.65625 112.226563 181.375 112.3125 182.195313 112.71875 C 182.738281 112.96875 183.132813 113.296875 183.382813 113.703125 C 183.625 114.101563 183.707031 114.542969 183.632813 115.03125 Z M 178.789063 115.90625 L 181.804688 117.375 L 182.445313 116.0625 C 182.6875 115.554688 182.742188 115.109375 182.617188 114.734375 C 182.484375 114.359375 182.164063 114.054688 181.664063 113.8125 C 181.175781 113.5625 180.742188 113.507813 180.367188 113.640625 C 179.984375 113.765625 179.671875 114.085938 179.429688 114.59375 Z M 183.007813 110.222656 L 183.460938 109.285156 L 189.851563 112.394531 L 189.398438 113.332031 Z M 180.507813 109.019531 L 180.960938 108.082031 L 182.304688 108.738281 L 181.851563 109.675781 Z M 184.097656 107.984375 L 184.582031 106.984375 L 190.800781 107.796875 L 186.316406 103.390625 L 186.816406 102.375 L 192.160156 107.65625 L 191.535156 108.9375 Z M 192.773438 97.585938 L 193.273438 97.820313 L 191.148438 102.179688 C 191.910156 102.492188 192.5625 102.566406 193.101563 102.398438 C 193.640625 102.222656 194.070313 101.820313 194.382813 101.195313 C 194.558594 100.832031 194.679688 100.457031 194.742188 100.070313 C 194.804688 99.6875 194.820313 99.28125 194.789063 98.851563 L 195.789063 99.335938 C 195.789063 99.742188 195.742188 100.144531 195.648438 100.539063 C 195.5625 100.9375 195.433594 101.316406 195.257813 101.679688 C 194.808594 102.609375 194.15625 103.195313 193.304688 103.445313 C 192.453125 103.695313 191.515625 103.578125 190.492188 103.085938 C 189.453125 102.578125 188.75 101.921875 188.382813 101.117188 C 188.007813 100.304688 188.035156 99.46875 188.460938 98.601563 C 188.835938 97.832031 189.410156 97.351563 190.179688 97.164063 C 190.953125 96.976563 191.816406 97.117188 192.773438 97.585938 Z M 191.992188 98.382813 C 191.421875 98.101563 190.894531 98.019531 190.414063 98.132813 C 189.925781 98.25 189.566406 98.539063 189.335938 99.007813 C 189.078125 99.550781 189.039063 100.0625 189.226563 100.539063 C 189.40625 101.007813 189.785156 101.410156 190.367188 101.742188 Z M 193.183594 91.746094 C 193.070313 91.820313 192.964844 91.914063 192.871094 92.027344 C 192.777344 92.132813 192.695313 92.257813 192.621094 92.402344 C 192.363281 92.945313 192.355469 93.457031 192.605469 93.933594 C 192.847656 94.402344 193.324219 94.808594 194.042969 95.152344 L 197.417969 96.792969 L 196.964844 97.746094 L 190.574219 94.636719 L 191.027344 93.683594 L 192.011719 94.167969 C 191.730469 93.785156 191.574219 93.386719 191.542969 92.980469 C 191.503906 92.574219 191.589844 92.144531 191.808594 91.683594 C 191.839844 91.621094 191.882813 91.554688 191.933594 91.480469 C 191.988281 91.410156 192.039063 91.320313 192.089844 91.214844 Z M 193.183594 91.746094 "/>
</g>
</svg>

