<?xml version="1.0" encoding="UTF-8"?>
<svg xmlns="http://www.w3.org/2000/svg" xmlns:xlink="http://www.w3.org/1999/xlink" width="256pt" height="256pt" viewBox="0 0 256 256" version="1.1">
<g id="surface2">
<rect x="0" y="0" width="256" height="256" style="fill:rgb(60%,70.196078%,80%);fill-opacity:1;stroke:none;"/>
<path style=" stroke:none;fill-rule:evenodd;fill:rgb(94.901961%,93.72549%,91.372549%);fill-opacity:1;" d="M 259 -4 L 259 40.035156 L 253.464844 38.324219 L 241.148438 34.535156 L 226.371094 32.070313 L 218.601563 33.589844 L 217.253906 39.871094 L 233.757813 45.144531 L 244.9375 56.890625 L 259 61.921875 L 259 259 L -4 259 L -4 186.515625 L -3.015625 185.878906 L 5.488281 180.128906 L 12.734375 167.878906 L 18.238281 162.628906 L 13.988281 156.628906 L 9.488281 158.628906 L 5.488281 162.128906 L -0.0117188 170.628906 L -4 173.367188 L -4 259 L -4 -4 L -4 259 L -4 -4 Z M 259 -4 "/>
</g>
</svg>

