<?xml version="1.0" encoding="UTF-8"?>
<svg xmlns="http://www.w3.org/2000/svg" xmlns:xlink="http://www.w3.org/1999/xlink" width="256pt" height="256pt" viewBox="0 0 256 256" version="1.1">
<g id="surface2">
<rect x="0" y="0" width="256" height="256" style="fill:rgb(60%,70.196078%,80%);fill-opacity:1;stroke:none;"/>
<path style=" stroke:none;fill-rule:evenodd;fill:rgb(94.901961%,93.72549%,91.372549%);fill-opacity:1;" d="M -4 259 L 259 259 L 193.804688 259 L 194.84375 247.953125 L 203.234375 229.734375 L 204.019531 219.734375 L 207.472656 210.796875 L 213.019531 194.605469 L 206.851563 176.511719 L 205.355469 163.933594 L 201.558594 148.40625 L 196.753906 141.816406 L 191.953125 137.460938 L 185.582031 135.894531 L 179.101563 128.519531 L 165.808594 113.664063 L 154.078125 103.050781 L 138.664063 97.6875 L 134.308594 97.800781 L 130.507813 100.035156 L 122.851563 95.507813 L 113.414063 94.785156 L 96.882813 97.46875 L 88.28125 92.105469 L 85.488281 87.636719 L 81.691406 85.734375 L 67.835938 56.46875 L 58.789063 38.816406 L 43.261719 12.789063 L 31.847656 -4 L -4 -4 L 259 -4 L 259 259 L 259 -4 L 259 259 Z M -4 259 "/>
<path style=" stroke:none;fill-rule:evenodd;fill:rgb(60%,70.196078%,80%);fill-opacity:1;" d="M 252.074219 216.917969 L 254.828125 224.082031 L 255.730469 228.039063 L 259 234.535156 L 259 193.238281 L 254.375 196.273438 L 250.621094 202.035156 L 250.367188 209.203125 Z M 252.074219 216.917969 "/>
<path style="fill:none;stroke-width:1;stroke-linecap:round;stroke-linejoin:round;stroke:rgb(70.196078%,77.647059%,83.137255%);stroke-opacity:1;stroke-miterlimit:10;" d="M 252.074219 216.917969 L 254.828125 224.082031 L 255.730469 228.039063 L 259 234.535156 L 259 193.238281 L 254.375 196.273438 L 250.621094 202.035156 L 250.367188 209.203125 L 252.074219 216.917969 "/>
<path style="fill:none;stroke-width:8;stroke-linecap:round;stroke-linejoin:round;stroke:rgb(75.686275%,70.980392%,61.568627%);stroke-opacity:1;stroke-miterlimit:10;" d="M 247.964844 72.820313 L 241.371094 78.238281 L 221.800781 92.460938 L 219.445313 93.878906 L 216.742188 94.957031 L 212.710938 95.972656 L 207.726563 97.601563 "/>
<path style="fill:none;stroke-width:8;stroke-linecap:round;stroke-linejoin:round;stroke:rgb(75.686275%,70.980392%,61.568627%);stroke-opacity:1;stroke-miterlimit:10;" d="M 208.625 264 L 209.730469 254.28125 L 209.820313 248.339844 "/>
<path style="fill:none;stroke-width:8;stroke-linecap:round;stroke-linejoin:round;stroke:rgb(75.686275%,70.980392%,61.568627%);stroke-opacity:1;stroke-miterlimit:10;" d="M 261.480469 92.675781 L 252.582031 100.988281 L 247.851563 104.527344 L 242.46875 107.636719 L 237.410156 109.886719 L 230.328125 113.609375 L 221.566406 120.167969 L 216.160156 123.707031 L 214.761719 124.445313 "/>
<path style="fill:none;stroke-width:8;stroke-linecap:round;stroke-linejoin:round;stroke:rgb(75.686275%,70.980392%,61.568627%);stroke-opacity:1;stroke-miterlimit:10;" d="M 223.894531 42.625 L 181.953125 72.574219 L 175.917969 78.300781 "/>
<path style="fill:none;stroke-width:8;stroke-linecap:round;stroke-linejoin:round;stroke:rgb(75.686275%,70.980392%,61.568627%);stroke-opacity:1;stroke-miterlimit:10;" d="M 248.457031 0.972656 L 240.859375 -8.046875 L 240.117188 -9 "/>
<path style="fill:none;stroke-width:8;stroke-linecap:round;stroke-linejoin:round;stroke:rgb(75.686275%,70.980392%,61.568627%);stroke-opacity:1;stroke-miterlimit:10;" d="M 264 60.457031 L 259.058594 64.386719 L 256.703125 65.835938 L 252.648438 68.851563 L 247.964844 72.820313 "/>
<path style="fill:none;stroke-width:8;stroke-linecap:round;stroke-linejoin:round;stroke:rgb(75.686275%,70.980392%,61.568627%);stroke-opacity:1;stroke-miterlimit:10;" d="M 177.421875 -9 L 116.730469 60.847656 "/>
<path style="fill:none;stroke-width:8;stroke-linecap:round;stroke-linejoin:round;stroke:rgb(75.686275%,70.980392%,61.568627%);stroke-opacity:1;stroke-miterlimit:10;" d="M 261.953125 -9 L 260.269531 -7.675781 L 248.457031 0.972656 L 231.933594 13.964844 L 212.269531 28.277344 "/>
<path style="fill:none;stroke-width:8;stroke-linecap:round;stroke-linejoin:round;stroke:rgb(75.686275%,70.980392%,61.568627%);stroke-opacity:1;stroke-miterlimit:10;" d="M 109.253906 -9 L 94.476563 16.609375 L 92.964844 18.980469 L 91.101563 21.074219 L 88.441406 23.261719 L 85.625 21.230469 L 83.621094 18.796875 L 65.617188 -9 "/>
<path style="fill:none;stroke-width:9;stroke-linecap:round;stroke-linejoin:round;stroke:rgb(75.686275%,70.980392%,61.568627%);stroke-opacity:1;stroke-miterlimit:10;" d="M 263.722656 96.960938 L 261.480469 92.675781 L 258.917969 87.628906 L 256.820313 84.425781 L 252.535156 78.488281 L 247.964844 72.820313 L 236.851563 58.507813 L 231.398438 52.074219 L 226.132813 45.300781 L 224.875 44.101563 L 223.894531 42.625 L 212.269531 28.277344 L 188.035156 -1.273438 L 180.644531 -10 "/>
<path style="fill:none;stroke-width:6;stroke-linecap:round;stroke-linejoin:round;stroke:rgb(100%,100%,100%);stroke-opacity:1;stroke-miterlimit:10;" d="M 247.964844 72.820313 L 241.371094 78.238281 L 221.800781 92.460938 L 219.445313 93.878906 L 216.742188 94.957031 L 212.710938 95.972656 L 207.726563 97.601563 "/>
<path style="fill:none;stroke-width:6;stroke-linecap:round;stroke-linejoin:round;stroke:rgb(100%,100%,100%);stroke-opacity:1;stroke-miterlimit:10;" d="M 208.625 264 L 209.730469 254.28125 L 209.820313 248.339844 "/>
<path style="fill:none;stroke-width:6;stroke-linecap:round;stroke-linejoin:round;stroke:rgb(100%,100%,100%);stroke-opacity:1;stroke-miterlimit:10;" d="M 261.480469 92.675781 L 252.582031 100.988281 L 247.851563 104.527344 L 242.46875 107.636719 L 237.410156 109.886719 L 230.328125 113.609375 L 221.566406 120.167969 L 216.160156 123.707031 L 214.761719 124.445313 "/>
<path style="fill:none;stroke-width:6;stroke-linecap:round;stroke-linejoin:round;stroke:rgb(100%,100%,100%);stroke-opacity:1;stroke-miterlimit:10;" d="M 223.894531 42.625 L 181.953125 72.574219 L 175.917969 78.300781 "/>
<path style="fill:none;stroke-width:6;stroke-linecap:round;stroke-linejoin:round;stroke:rgb(100%,100%,100%);stroke-opacity:1;stroke-miterlimit:10;" d="M 248.457031 0.972656 L 240.859375 -8.046875 L 240.117188 -9 "/>
<path style="fill:none;stroke-width:6;stroke-linecap:round;stroke-linejoin:round;stroke:rgb(100%,100%,100%);stroke-opacity:1;stroke-miterlimit:10;" d="M 264 60.457031 L 259.058594 64.386719 L 256.703125 65.835938 L 252.648438 68.851563 L 247.964844 72.820313 "/>
<path style="fill:none;stroke-width:6;stroke-linecap:round;stroke-linejoin:round;stroke:rgb(100%,100%,100%);stroke-opacity:1;stroke-miterlimit:10;" d="M 177.421875 -9 L 116.730469 60.847656 "/>
<path style="fill:none;stroke-width:6;stroke-linecap:round;stroke-linejoin:round;stroke:rgb(100%,100%,100%);stroke-opacity:1;stroke-miterlimit:10;" d="M 261.953125 -9 L 260.269531 -7.675781 L 248.457031 0.972656 L 231.933594 13.964844 L 212.269531 28.277344 "/>
<path style="fill:none;stroke-width:6;stroke-linecap:round;stroke-linejoin:round;stroke:rgb(100%,100%,100%);stroke-opacity:1;stroke-miterlimit:10;" d="M 109.253906 -9 L 94.476563 16.609375 L 92.964844 18.980469 L 91.101563 21.074219 L 88.441406 23.261719 L 85.625 21.230469 L 83.621094 18.796875 L 65.617188 -9 "/>
<path style="fill:none;stroke-width:7;stroke-linecap:round;stroke-linejoin:round;stroke:rgb(100%,99.215686%,54.509804%);stroke-opacity:1;stroke-miterlimit:10;" d="M 263.722656 96.960938 L 261.480469 92.675781 L 258.917969 87.628906 L 256.820313 84.425781 L 252.535156 78.488281 L 247.964844 72.820313 L 236.851563 58.507813 L 231.398438 52.074219 L 226.132813 45.300781 L 224.875 44.101563 L 223.894531 42.625 L 212.269531 28.277344 L 188.035156 -1.273438 L 180.644531 -10 "/>
<path style="fill:none;stroke-width:3;stroke-linecap:round;stroke-linejoin:round;stroke:rgb(100%,100%,100%);stroke-opacity:1;stroke-miterlimit:10;" d="M 181.402344 68.867188 L 182.152344 69.742188 C 181.671875 69.691406 181.242188 69.726563 180.855469 69.851563 C 180.460938 69.96875 180.101563 70.160156 179.777344 70.429688 C 179.152344 70.960938 178.855469 71.582031 178.886719 72.289063 C 178.917969 73 179.277344 73.757813 179.964844 74.570313 C 180.652344 75.363281 181.347656 75.832031 182.042969 75.976563 C 182.738281 76.113281 183.402344 75.914063 184.027344 75.382813 C 184.347656 75.113281 184.597656 74.796875 184.777344 74.429688 C 184.953125 74.054688 185.050781 73.632813 185.074219 73.164063 L 185.808594 74.023438 C 185.714844 74.441406 185.5625 74.820313 185.355469 75.164063 C 185.15625 75.507813 184.894531 75.820313 184.574219 76.101563 C 183.738281 76.8125 182.839844 77.085938 181.871094 76.929688 C 180.914063 76.773438 180.019531 76.210938 179.183594 75.242188 C 178.351563 74.253906 177.929688 73.273438 177.917969 72.304688 C 177.910156 71.328125 178.320313 70.484375 179.152344 69.773438 C 179.488281 69.492188 179.839844 69.28125 180.214844 69.132813 C 180.589844 68.976563 180.988281 68.890625 181.402344 68.867188 Z M 185.699219 68.257813 C 185.304688 68.539063 185.117188 68.9375 185.136719 69.445313 C 185.148438 69.945313 185.363281 70.488281 185.777344 71.070313 C 186.207031 71.65625 186.644531 72.035156 187.105469 72.210938 C 187.5625 72.378906 187.988281 72.320313 188.386719 72.039063 C 188.769531 71.769531 188.957031 71.390625 188.949219 70.898438 C 188.9375 70.398438 188.71875 69.859375 188.292969 69.273438 C 187.875 68.691406 187.433594 68.3125 186.964844 68.132813 C 186.503906 67.945313 186.085938 67.988281 185.699219 68.257813 Z M 185.214844 67.585938 C 185.839844 67.140625 186.488281 67.015625 187.167969 67.210938 C 187.855469 67.410156 188.484375 67.914063 189.058594 68.726563 C 189.628906 69.519531 189.902344 70.273438 189.871094 70.992188 C 189.839844 71.703125 189.511719 72.28125 188.886719 72.726563 C 188.25 73.1875 187.589844 73.316406 186.902344 73.117188 C 186.214844 72.910156 185.585938 72.410156 185.011719 71.617188 C 184.441406 70.804688 184.175781 70.046875 184.214844 69.335938 C 184.246094 68.628906 184.582031 68.046875 185.214844 67.585938 Z M 187.980469 65.792969 L 188.746094 65.246094 L 193.058594 68.371094 L 191.511719 63.277344 L 192.277344 62.730469 L 194.121094 68.808594 L 193.136719 69.496094 Z M 198.65625 61.574219 L 198.9375 61.964844 L 195.59375 64.339844 C 196.03125 64.871094 196.484375 65.183594 196.953125 65.277344 C 197.429688 65.371094 197.90625 65.246094 198.375 64.902344 C 198.65625 64.707031 198.898438 64.480469 199.109375 64.230469 C 199.316406 63.972656 199.5 63.675781 199.65625 63.339844 L 200.1875 64.089844 C 200.019531 64.402344 199.820313 64.691406 199.59375 64.949219 C 199.375 65.199219 199.125 65.425781 198.84375 65.621094 C 198.132813 66.121094 197.410156 66.292969 196.671875 66.136719 C 195.945313 65.980469 195.296875 65.511719 194.734375 64.730469 C 194.171875 63.941406 193.917969 63.167969 193.96875 62.417969 C 194.023438 61.660156 194.382813 61.042969 195.046875 60.574219 C 195.640625 60.148438 196.257813 60.027344 196.90625 60.214844 C 197.550781 60.394531 198.132813 60.847656 198.65625 61.574219 Z M 197.75 61.839844 C 197.4375 61.414063 197.078125 61.144531 196.671875 61.027344 C 196.273438 60.914063 195.902344 60.980469 195.546875 61.230469 C 195.140625 61.523438 194.90625 61.886719 194.84375 62.324219 C 194.773438 62.753906 194.882813 63.207031 195.171875 63.683594 Z M 199.65625 55.003906 L 200.46875 54.425781 L 204.59375 60.207031 L 207.453125 58.175781 L 207.984375 58.910156 L 204.3125 61.519531 Z M 209.019531 54.441406 C 208.425781 54.859375 208.070313 55.222656 207.957031 55.535156 C 207.84375 55.847656 207.917969 56.1875 208.175781 56.550781 C 208.371094 56.824219 208.617188 56.984375 208.910156 57.035156 C 209.199219 57.089844 209.492188 57.011719 209.785156 56.800781 C 210.191406 56.511719 210.398438 56.121094 210.410156 55.628906 C 210.417969 55.140625 210.242188 54.636719 209.878906 54.113281 L 209.738281 53.925781 Z M 210.222656 53.082031 L 212.222656 55.878906 L 211.503906 56.394531 L 210.972656 55.660156 C 211.023438 56.066406 210.976563 56.433594 210.832031 56.753906 C 210.683594 57.066406 210.429688 57.355469 210.066406 57.613281 C 209.617188 57.925781 209.160156 58.042969 208.691406 57.957031 C 208.222656 57.863281 207.824219 57.582031 207.488281 57.113281 C 207.09375 56.5625 206.964844 56.03125 207.097656 55.519531 C 207.222656 55 207.621094 54.5 208.285156 54.019531 L 209.300781 53.300781 L 209.238281 53.222656 C 208.976563 52.859375 208.664063 52.652344 208.300781 52.597656 C 207.9375 52.546875 207.550781 52.660156 207.144531 52.941406 C 206.90625 53.121094 206.6875 53.332031 206.488281 53.582031 C 206.292969 53.824219 206.128906 54.089844 206.003906 54.378906 L 205.488281 53.628906 C 205.675781 53.328125 205.875 53.0625 206.082031 52.832031 C 206.292969 52.59375 206.511719 52.390625 206.738281 52.222656 C 207.375 51.765625 207.980469 51.609375 208.550781 51.753906 C 209.132813 51.890625 209.691406 52.332031 210.222656 53.082031 Z M 215.265625 49.246094 L 217.375 52.199219 L 216.65625 52.714844 L 214.5625 49.792969 C 214.226563 49.324219 213.894531 49.039063 213.5625 48.933594 C 213.238281 48.820313 212.917969 48.878906 212.59375 49.105469 C 212.210938 49.378906 212.007813 49.730469 211.984375 50.167969 C 211.953125 50.605469 212.105469 51.066406 212.4375 51.542969 L 214.421875 54.308594 L 213.671875 54.839844 L 210.171875 49.949219 L 210.921875 49.417969 L 211.46875 50.183594 C 211.429688 49.769531 211.476563 49.402344 211.609375 49.089844 C 211.734375 48.777344 211.953125 48.507813 212.265625 48.277344 C 212.765625 47.925781 213.269531 47.832031 213.78125 47.996094 C 214.289063 48.152344 214.785156 48.570313 215.265625 49.246094 Z M 220.703125 45.828125 L 220.984375 46.21875 L 217.640625 48.59375 C 218.078125 49.125 218.53125 49.4375 219 49.53125 C 219.476563 49.625 219.953125 49.5 220.421875 49.15625 C 220.703125 48.960938 220.945313 48.734375 221.15625 48.484375 C 221.363281 48.226563 221.546875 47.929688 221.703125 47.59375 L 222.234375 48.34375 C 222.066406 48.65625 221.867188 48.945313 221.640625 49.203125 C 221.421875 49.453125 221.171875 49.679688 220.890625 49.875 C 220.179688 50.375 219.457031 50.546875 218.71875 50.390625 C 217.992188 50.234375 217.34375 49.765625 216.78125 48.984375 C 216.21875 48.195313 215.964844 47.421875 216.015625 46.671875 C 216.070313 45.914063 216.429688 45.296875 217.09375 44.828125 C 217.6875 44.402344 218.304688 44.28125 218.953125 44.46875 C 219.597656 44.648438 220.179688 45.101563 220.703125 45.828125 Z M 219.796875 46.09375 C 219.484375 45.667969 219.125 45.398438 218.71875 45.28125 C 218.320313 45.167969 217.949219 45.234375 217.59375 45.484375 C 217.1875 45.777344 216.953125 46.140625 216.890625 46.578125 C 216.820313 47.007813 216.929688 47.460938 217.21875 47.9375 Z M 219.796875 46.09375 "/>
<path style=" stroke:none;fill-rule:evenodd;fill:rgb(20%,20%,20%);fill-opacity:1;" d="M 181.402344 68.867188 L 182.152344 69.742188 C 181.671875 69.691406 181.242188 69.726563 180.855469 69.851563 C 180.460938 69.96875 180.101563 70.160156 179.777344 70.429688 C 179.152344 70.960938 178.855469 71.582031 178.886719 72.289063 C 178.917969 73 179.277344 73.757813 179.964844 74.570313 C 180.652344 75.363281 181.347656 75.832031 182.042969 75.976563 C 182.738281 76.113281 183.402344 75.914063 184.027344 75.382813 C 184.347656 75.113281 184.597656 74.796875 184.777344 74.429688 C 184.953125 74.054688 185.050781 73.632813 185.074219 73.164063 L 185.808594 74.023438 C 185.714844 74.441406 185.5625 74.820313 185.355469 75.164063 C 185.15625 75.507813 184.894531 75.820313 184.574219 76.101563 C 183.738281 76.8125 182.839844 77.085938 181.871094 76.929688 C 180.914063 76.773438 180.019531 76.210938 179.183594 75.242188 C 178.351563 74.253906 177.929688 73.273438 177.917969 72.304688 C 177.910156 71.328125 178.320313 70.484375 179.152344 69.773438 C 179.488281 69.492188 179.839844 69.28125 180.214844 69.132813 C 180.589844 68.976563 180.988281 68.890625 181.402344 68.867188 Z M 185.699219 68.257813 C 185.304688 68.539063 185.117188 68.9375 185.136719 69.445313 C 185.148438 69.945313 185.363281 70.488281 185.777344 71.070313 C 186.207031 71.65625 186.644531 72.035156 187.105469 72.210938 C 187.5625 72.378906 187.988281 72.320313 188.386719 72.039063 C 188.769531 71.769531 188.957031 71.390625 188.949219 70.898438 C 188.9375 70.398438 188.71875 69.859375 188.292969 69.273438 C 187.875 68.691406 187.433594 68.3125 186.964844 68.132813 C 186.503906 67.945313 186.085938 67.988281 185.699219 68.257813 Z M 185.214844 67.585938 C 185.839844 67.140625 186.488281 67.015625 187.167969 67.210938 C 187.855469 67.410156 188.484375 67.914063 189.058594 68.726563 C 189.628906 69.519531 189.902344 70.273438 189.871094 70.992188 C 189.839844 71.703125 189.511719 72.28125 188.886719 72.726563 C 188.25 73.1875 187.589844 73.316406 186.902344 73.117188 C 186.214844 72.910156 185.585938 72.410156 185.011719 71.617188 C 184.441406 70.804688 184.175781 70.046875 184.214844 69.335938 C 184.246094 68.628906 184.582031 68.046875 185.214844 67.585938 Z M 187.980469 65.792969 L 188.746094 65.246094 L 193.058594 68.371094 L 191.511719 63.277344 L 192.277344 62.730469 L 194.121094 68.808594 L 193.136719 69.496094 Z M 198.65625 61.574219 L 198.9375 61.964844 L 195.59375 64.339844 C 196.03125 64.871094 196.484375 65.183594 196.953125 65.277344 C 197.429688 65.371094 197.90625 65.246094 198.375 64.902344 C 198.65625 64.707031 198.898438 64.480469 199.109375 64.230469 C 199.316406 63.972656 199.5 63.675781 199.65625 63.339844 L 200.1875 64.089844 C 200.019531 64.402344 199.820313 64.691406 199.59375 64.949219 C 199.375 65.199219 199.125 65.425781 198.84375 65.621094 C 198.132813 66.121094 197.410156 66.292969 196.671875 66.136719 C 195.945313 65.980469 195.296875 65.511719 194.734375 64.730469 C 194.171875 63.941406 193.917969 63.167969 193.96875 62.417969 C 194.023438 61.660156 194.382813 61.042969 195.046875 60.574219 C 195.640625 60.148438 196.257813 60.027344 196.90625 60.214844 C 197.550781 60.394531 198.132813 60.847656 198.65625 61.574219 Z M 197.75 61.839844 C 197.4375 61.414063 197.078125 61.144531 196.671875 61.027344 C 196.273438 60.914063 195.902344 60.980469 195.546875 61.230469 C 195.140625 61.523438 194.90625 61.886719 194.84375 62.324219 C 194.773438 62.753906 194.882813 63.207031 195.171875 63.683594 Z M 199.65625 55.003906 L 200.46875 54.425781 L 204.59375 60.207031 L 207.453125 58.175781 L 207.984375 58.910156 L 204.3125 61.519531 Z M 209.019531 54.441406 C 208.425781 54.859375 208.070313 55.222656 207.957031 55.535156 C 207.84375 55.847656 207.917969 56.1875 208.175781 56.550781 C 208.371094 56.824219 208.617188 56.984375 208.910156 57.035156 C 209.199219 57.089844 209.492188 57.011719 209.785156 56.800781 C 210.191406 56.511719 210.398438 56.121094 210.410156 55.628906 C 210.417969 55.140625 210.242188 54.636719 209.878906 54.113281 L 209.738281 53.925781 Z M 210.222656 53.082031 L 212.222656 55.878906 L 211.503906 56.394531 L 210.972656 55.660156 C 211.023438 56.066406 210.976563 56.433594 210.832031 56.753906 C 210.683594 57.066406 210.429688 57.355469 210.066406 57.613281 C 209.617188 57.925781 209.160156 58.042969 208.691406 57.957031 C 208.222656 57.863281 207.824219 57.582031 207.488281 57.113281 C 207.09375 56.5625 206.964844 56.03125 207.097656 55.519531 C 207.222656 55 207.621094 54.5 208.285156 54.019531 L 209.300781 53.300781 L 209.238281 53.222656 C 208.976563 52.859375 208.664063 52.652344 208.300781 52.597656 C 207.9375 52.546875 207.550781 52.660156 207.144531 52.941406 C 206.90625 53.121094 206.6875 53.332031 206.488281 53.582031 C 206.292969 53.824219 206.128906 54.089844 206.003906 54.378906 L 205.488281 53.628906 C 205.675781 53.328125 205.875 53.0625 206.082031 52.832031 C 206.292969 52.59375 206.511719 52.390625 206.738281 52.222656 C 207.375 51.765625 207.980469 51.609375 208.550781 51.753906 C 209.132813 51.890625 209.691406 52.332031 210.222656 53.082031 Z M 215.265625 49.246094 L 217.375 52.199219 L 216.65625 52.714844 L 214.5625 49.792969 C 214.226563 49.324219 213.894531 49.039063 213.5625 48.933594 C 213.238281 48.820313 212.917969 48.878906 212.59375 49.105469 C 212.210938 49.378906 212.007813 49.730469 211.984375 50.167969 C 211.953125 50.605469 212.105469 51.066406 212.4375 51.542969 L 214.421875 54.308594 L 213.671875 54.839844 L 210.171875 49.949219 L 210.921875 49.417969 L 211.46875 50.183594 C 211.429688 49.769531 211.476563 49.402344 211.609375 49.089844 C 211.734375 48.777344 211.953125 48.507813 212.265625 48.277344 C 212.765625 47.925781 213.269531 47.832031 213.78125 47.996094 C 214.289063 48.152344 214.785156 48.570313 215.265625 49.246094 Z M 220.703125 45.828125 L 220.984375 46.21875 L 217.640625 48.59375 C 218.078125 49.125 218.53125 49.4375 219 49.53125 C 219.476563 49.625 219.953125 49.5 220.421875 49.15625 C 220.703125 48.960938 220.945313 48.734375 221.15625 48.484375 C 221.363281 48.226563 221.546875 47.929688 221.703125 47.59375 L 222.234375 48.34375 C 222.066406 48.65625 221.867188 48.945313 221.640625 49.203125 C 221.421875 49.453125 221.171875 49.679688 220.890625 49.875 C 220.179688 50.375 219.457031 50.546875 218.71875 50.390625 C 217.992188 50.234375 217.34375 49.765625 216.78125 48.984375 C 216.21875 48.195313 215.964844 47.421875 216.015625 46.671875 C 216.070313 45.914063 216.429688 45.296875 217.09375 44.828125 C 217.6875 44.402344 218.304688 44.28125 218.953125 44.46875 C 219.597656 44.648438 220.179688 45.101563 220.703125 45.828125 Z M 219.796875 46.09375 C 219.484375 45.667969 219.125 45.398438 218.71875 45.28125 C 218.320313 45.167969 217.949219 45.234375 217.59375 45.484375 C 217.1875 45.777344 216.953125 46.140625 216.890625 46.578125 C 216.820313 47.007813 216.929688 47.460938 217.21875 47.9375 Z M 219.796875 46.09375 "/>
</g>
</svg>

