<?xml version="1.0" encoding="UTF-8"?>
<svg xmlns="http://www.w3.org/2000/svg" xmlns:xlink="http://www.w3.org/1999/xlink" width="256pt" height="256pt" viewBox="0 0 256 256" version="1.1">
<g id="surface2">
<rect x="0" y="0" width="256" height="256" style="fill:rgb(94.901961%,93.72549%,91.372549%);fill-opacity:1;stroke:none;"/>
<path style=" stroke:none;fill-rule:evenodd;fill:rgb(70.980392%,82.352941%,61.176471%);fill-opacity:1;" d="M -4 260 L 13.605469 260 L 42.742188 256.496094 L 28.742188 131.996094 L 10.242188 132.496094 L -4 134.015625 L -4 149.644531 L -3.257813 151.496094 L -3.757813 158.992188 L -4 158.949219 Z M -4 260 "/>
<path style="fill:none;stroke-width:8;stroke-linecap:round;stroke-linejoin:round;stroke:rgb(75.686275%,70.980392%,61.568627%);stroke-opacity:1;stroke-miterlimit:10;" d="M 54.628906 154.949219 L 47.917969 136.613281 "/>
<path style="fill:none;stroke-width:8;stroke-linecap:round;stroke-linejoin:round;stroke:rgb(75.686275%,70.980392%,61.568627%);stroke-opacity:1;stroke-miterlimit:10;" d="M 58.429688 134.761719 L 47.917969 136.613281 L 36.453125 138.75 L 32.238281 140.40625 "/>
<path style="fill:none;stroke-width:8;stroke-linecap:round;stroke-linejoin:round;stroke:rgb(75.686275%,70.980392%,61.568627%);stroke-opacity:1;stroke-miterlimit:10;" d="M 45.820313 264 L 44.121094 246.234375 L 37.804688 187.949219 L 32.238281 140.40625 L 21.230469 41.722656 L 13.882813 -9 "/>
<path style="fill:none;stroke-width:6;stroke-linecap:round;stroke-linejoin:round;stroke:rgb(100%,100%,100%);stroke-opacity:1;stroke-miterlimit:10;" d="M 54.628906 154.949219 L 47.917969 136.613281 "/>
<path style="fill:none;stroke-width:6;stroke-linecap:round;stroke-linejoin:round;stroke:rgb(100%,100%,100%);stroke-opacity:1;stroke-miterlimit:10;" d="M 58.429688 134.761719 L 47.917969 136.613281 L 36.453125 138.75 L 32.238281 140.40625 "/>
<path style="fill:none;stroke-width:6;stroke-linecap:round;stroke-linejoin:round;stroke:rgb(100%,99.215686%,54.509804%);stroke-opacity:1;stroke-miterlimit:10;" d="M 45.820313 264 L 44.121094 246.234375 L 37.804688 187.949219 L 32.238281 140.40625 L 21.230469 41.722656 L 13.882813 -9 "/>
<path style="fill:none;stroke-width:3;stroke-linecap:round;stroke-linejoin:round;stroke:rgb(100%,100%,100%);stroke-opacity:1;stroke-miterlimit:10;" d="M 31.257813 95.355469 L 31.367188 96.324219 L 23.960938 97.152344 C 22.992188 97.253906 22.273438 97.167969 21.804688 96.886719 C 21.335938 96.613281 21.0625 96.113281 20.976563 95.386719 L 20.929688 95.011719 L 21.835938 94.902344 L 21.882813 95.214844 C 21.925781 95.640625 22.09375 95.925781 22.382813 96.074219 C 22.664063 96.21875 23.15625 96.253906 23.851563 96.183594 Z M 29.125 100.589844 C 29.070313 100.109375 28.820313 99.753906 28.375 99.527344 C 27.9375 99.296875 27.363281 99.222656 26.65625 99.308594 C 25.9375 99.378906 25.382813 99.578125 25 99.902344 C 24.625 100.222656 24.460938 100.625 24.515625 101.105469 C 24.578125 101.582031 24.820313 101.933594 25.25 102.152344 C 25.6875 102.378906 26.265625 102.457031 26.984375 102.386719 C 27.691406 102.300781 28.238281 102.097656 28.625 101.777344 C 29.019531 101.464844 29.1875 101.066406 29.125 100.589844 Z M 29.953125 100.496094 C 30.046875 101.253906 29.835938 101.886719 29.328125 102.386719 C 28.816406 102.894531 28.070313 103.207031 27.09375 103.324219 C 26.113281 103.425781 25.320313 103.285156 24.71875 102.902344 C 24.113281 102.527344 23.765625 101.957031 23.671875 101.199219 C 23.585938 100.417969 23.800781 99.777344 24.3125 99.277344 C 24.820313 98.785156 25.566406 98.488281 26.546875 98.386719 C 27.523438 98.269531 28.316406 98.394531 28.921875 98.761719 C 29.523438 99.136719 29.867188 99.714844 29.953125 100.496094 Z M 30.453125 108.332031 L 29.53125 108.441406 C 29.664063 108.167969 29.753906 107.902344 29.796875 107.644531 C 29.847656 107.394531 29.859375 107.136719 29.828125 106.878906 C 29.765625 106.292969 29.515625 105.867188 29.078125 105.597656 C 28.640625 105.324219 28.054688 105.230469 27.328125 105.316406 C 26.597656 105.386719 26.046875 105.605469 25.671875 105.972656 C 25.304688 106.335938 25.15625 106.808594 25.21875 107.394531 C 25.25 107.652344 25.316406 107.902344 25.421875 108.144531 C 25.523438 108.382813 25.664063 108.617188 25.84375 108.847656 L 24.9375 108.941406 C 24.78125 108.710938 24.65625 108.464844 24.5625 108.207031 C 24.46875 107.957031 24.40625 107.683594 24.375 107.394531 C 24.28125 106.570313 24.488281 105.886719 25 105.347656 C 25.507813 104.816406 26.25 104.496094 27.21875 104.394531 C 28.1875 104.277344 28.976563 104.429688 29.59375 104.847656 C 30.207031 105.261719 30.5625 105.894531 30.65625 106.738281 C 30.6875 107.007813 30.6875 107.277344 30.65625 107.550781 C 30.625 107.820313 30.554688 108.082031 30.453125 108.332031 Z M 33.179688 109.550781 L 33.289063 110.441406 L 28.382813 110.988281 L 31.257813 113.332031 L 31.382813 114.472656 L 28.257813 111.925781 L 25.398438 115.253906 L 25.273438 114.097656 L 27.898438 111.035156 L 24.976563 111.363281 L 24.867188 110.472656 Z M 29.253906 120.453125 L 28.769531 120.5 L 28.316406 116.421875 C 27.648438 116.546875 27.160156 116.789063 26.847656 117.15625 C 26.535156 117.53125 26.410156 118.007813 26.472656 118.59375 C 26.511719 118.925781 26.597656 119.242188 26.722656 119.546875 C 26.855469 119.859375 27.027344 120.164063 27.238281 120.46875 L 26.316406 120.578125 C 26.128906 120.265625 25.972656 119.945313 25.847656 119.625 C 25.730469 119.300781 25.660156 118.972656 25.628906 118.640625 C 25.535156 117.773438 25.730469 117.0625 26.222656 116.5 C 26.722656 115.9375 27.449219 115.601563 28.410156 115.5 C 29.378906 115.394531 30.175781 115.546875 30.800781 115.953125 C 31.433594 116.359375 31.800781 116.96875 31.894531 117.78125 C 31.964844 118.5 31.761719 119.097656 31.285156 119.578125 C 30.816406 120.054688 30.136719 120.347656 29.253906 120.453125 Z M 29.457031 119.53125 C 29.988281 119.457031 30.398438 119.269531 30.691406 118.96875 C 30.980469 118.675781 31.105469 118.316406 31.066406 117.890625 C 31.011719 117.390625 30.808594 117.003906 30.457031 116.734375 C 30.113281 116.472656 29.664063 116.351563 29.113281 116.375 Z M 25.882813 124.570313 C 25.144531 124.402344 24.65625 124.210938 24.414063 123.992188 C 24.175781 123.773438 24.035156 123.464844 23.992188 123.070313 L 23.914063 122.367188 L 24.726563 122.273438 L 24.773438 122.789063 C 24.804688 123.027344 24.894531 123.210938 25.039063 123.335938 C 25.175781 123.460938 25.492188 123.578125 25.992188 123.695313 L 26.460938 123.789063 L 32.101563 120.960938 L 32.210938 121.898438 L 27.710938 124.101563 L 32.585938 125.257813 L 32.679688 126.195313 Z M 35.378906 134.6875 L 34.332031 134.796875 C 34.488281 134.410156 34.589844 134.046875 34.644531 133.703125 C 34.707031 133.367188 34.714844 133.050781 34.675781 132.75 C 34.621094 132.21875 34.464844 131.820313 34.207031 131.5625 C 33.945313 131.300781 33.613281 131.195313 33.207031 131.25 C 32.851563 131.28125 32.589844 131.398438 32.425781 131.609375 C 32.269531 131.816406 32.160156 132.203125 32.097656 132.765625 L 32.035156 133.34375 C 31.960938 134.082031 31.753906 134.644531 31.410156 135.03125 C 31.066406 135.425781 30.570313 135.660156 29.925781 135.734375 C 29.152344 135.828125 28.539063 135.660156 28.082031 135.234375 C 27.632813 134.804688 27.355469 134.144531 27.253906 133.25 C 27.210938 132.90625 27.210938 132.535156 27.253906 132.140625 C 27.304688 131.742188 27.394531 131.335938 27.519531 130.921875 L 28.613281 130.8125 C 28.414063 131.21875 28.273438 131.617188 28.191406 132.015625 C 28.105469 132.410156 28.085938 132.789063 28.128906 133.15625 C 28.191406 133.707031 28.355469 134.117188 28.628906 134.390625 C 28.898438 134.671875 29.257813 134.785156 29.707031 134.734375 C 30.101563 134.691406 30.398438 134.546875 30.597656 134.296875 C 30.804688 134.054688 30.933594 133.6875 30.988281 133.1875 L 31.050781 132.578125 C 31.121094 131.828125 31.308594 131.273438 31.613281 130.921875 C 31.925781 130.566406 32.386719 130.351563 33.003906 130.28125 C 33.699219 130.210938 34.277344 130.367188 34.738281 130.765625 C 35.195313 131.160156 35.472656 131.753906 35.566406 132.546875 C 35.597656 132.890625 35.597656 133.238281 35.566406 133.59375 C 35.535156 133.945313 35.472656 134.3125 35.378906 134.6875 Z M 35.652344 137.460938 L 33.964844 137.648438 L 34.167969 139.476563 L 33.402344 139.570313 L 33.199219 137.742188 L 29.949219 138.101563 C 29.46875 138.152344 29.160156 138.246094 29.027344 138.382813 C 28.902344 138.515625 28.859375 138.773438 28.902344 139.148438 L 29.011719 140.054688 L 28.183594 140.148438 L 28.074219 139.242188 C 28 138.554688 28.09375 138.0625 28.355469 137.773438 C 28.613281 137.492188 29.113281 137.308594 29.855469 137.226563 L 33.105469 136.867188 L 33.027344 136.210938 L 33.792969 136.117188 L 33.871094 136.773438 L 35.558594 136.585938 Z M 33.742188 143.847656 C 33.792969 143.742188 33.824219 143.628906 33.835938 143.503906 C 33.855469 143.378906 33.859375 143.253906 33.851563 143.128906 C 33.789063 142.617188 33.558594 142.246094 33.164063 142.019531 C 32.765625 141.800781 32.234375 141.730469 31.570313 141.816406 L 28.414063 142.175781 L 28.320313 141.285156 L 34.289063 140.582031 L 34.382813 141.472656 L 33.460938 141.582031 C 33.84375 141.726563 34.140625 141.933594 34.351563 142.207031 C 34.558594 142.488281 34.6875 142.835938 34.742188 143.253906 C 34.742188 143.316406 34.742188 143.386719 34.742188 143.472656 C 34.75 143.554688 34.75 143.636719 34.742188 143.722656 Z M 32.554688 149.585938 L 32.070313 149.632813 L 31.601563 145.554688 C 30.921875 145.679688 30.429688 145.929688 30.117188 146.304688 C 29.8125 146.679688 29.695313 147.15625 29.757813 147.742188 C 29.796875 148.074219 29.882813 148.390625 30.007813 148.695313 C 30.140625 149.007813 30.3125 149.3125 30.523438 149.617188 L 29.617188 149.726563 C 29.417969 149.414063 29.261719 149.09375 29.148438 148.773438 C 29.03125 148.449219 28.953125 148.121094 28.914063 147.789063 C 28.808594 146.921875 29 146.210938 29.492188 145.648438 C 29.992188 145.085938 30.71875 144.746094 31.679688 144.632813 C 32.648438 144.515625 33.445313 144.664063 34.070313 145.070313 C 34.703125 145.476563 35.070313 146.085938 35.164063 146.898438 C 35.246094 147.617188 35.054688 148.214844 34.585938 148.695313 C 34.117188 149.183594 33.4375 149.480469 32.554688 149.585938 Z M 32.742188 148.664063 C 33.28125 148.589844 33.699219 148.402344 33.992188 148.101563 C 34.28125 147.796875 34.402344 147.433594 34.351563 147.007813 C 34.289063 146.507813 34.085938 146.121094 33.742188 145.851563 C 33.398438 145.589844 32.9375 145.476563 32.367188 145.507813 Z M 33.265625 155.640625 L 32.78125 155.6875 L 32.3125 151.609375 C 31.632813 151.734375 31.140625 151.984375 30.828125 152.359375 C 30.523438 152.734375 30.40625 153.210938 30.46875 153.796875 C 30.507813 154.128906 30.59375 154.445313 30.71875 154.75 C 30.851563 155.0625 31.023438 155.367188 31.234375 155.671875 L 30.328125 155.78125 C 30.128906 155.46875 29.972656 155.148438 29.859375 154.828125 C 29.742188 154.503906 29.664063 154.175781 29.625 153.84375 C 29.519531 152.976563 29.710938 152.265625 30.203125 151.703125 C 30.703125 151.140625 31.429688 150.800781 32.390625 150.6875 C 33.359375 150.570313 34.15625 150.71875 34.78125 151.125 C 35.414063 151.53125 35.78125 152.140625 35.875 152.953125 C 35.957031 153.671875 35.765625 154.269531 35.296875 154.75 C 34.828125 155.238281 34.148438 155.535156 33.265625 155.640625 Z M 33.453125 154.71875 C 33.992188 154.644531 34.410156 154.457031 34.703125 154.15625 C 34.992188 153.851563 35.113281 153.488281 35.0625 153.0625 C 35 152.5625 34.796875 152.175781 34.453125 151.90625 C 34.109375 151.644531 33.648438 151.53125 33.078125 151.5625 Z M 37.972656 157.441406 L 36.269531 157.628906 L 36.488281 159.441406 L 35.738281 159.535156 L 35.519531 157.722656 L 32.269531 158.097656 C 31.777344 158.160156 31.472656 158.257813 31.347656 158.394531 C 31.230469 158.527344 31.195313 158.785156 31.238281 159.160156 L 31.347656 160.050781 L 30.519531 160.144531 L 30.410156 159.253906 C 30.335938 158.566406 30.425781 158.074219 30.675781 157.785156 C 30.933594 157.503906 31.433594 157.316406 32.175781 157.222656 L 35.425781 156.847656 L 35.347656 156.191406 L 36.097656 156.097656 L 36.175781 156.753906 L 37.878906 156.566406 Z M 37.972656 157.441406 "/>
<path style=" stroke:none;fill-rule:evenodd;fill:rgb(20%,20%,20%);fill-opacity:1;" d="M 31.257813 95.355469 L 31.367188 96.324219 L 23.960938 97.152344 C 22.992188 97.253906 22.273438 97.167969 21.804688 96.886719 C 21.335938 96.613281 21.0625 96.113281 20.976563 95.386719 L 20.929688 95.011719 L 21.835938 94.902344 L 21.882813 95.214844 C 21.925781 95.640625 22.09375 95.925781 22.382813 96.074219 C 22.664063 96.21875 23.15625 96.253906 23.851563 96.183594 Z M 29.125 100.589844 C 29.070313 100.109375 28.820313 99.753906 28.375 99.527344 C 27.9375 99.296875 27.363281 99.222656 26.65625 99.308594 C 25.9375 99.378906 25.382813 99.578125 25 99.902344 C 24.625 100.222656 24.460938 100.625 24.515625 101.105469 C 24.578125 101.582031 24.820313 101.933594 25.25 102.152344 C 25.6875 102.378906 26.265625 102.457031 26.984375 102.386719 C 27.691406 102.300781 28.238281 102.097656 28.625 101.777344 C 29.019531 101.464844 29.1875 101.066406 29.125 100.589844 Z M 29.953125 100.496094 C 30.046875 101.253906 29.835938 101.886719 29.328125 102.386719 C 28.816406 102.894531 28.070313 103.207031 27.09375 103.324219 C 26.113281 103.425781 25.320313 103.285156 24.71875 102.902344 C 24.113281 102.527344 23.765625 101.957031 23.671875 101.199219 C 23.585938 100.417969 23.800781 99.777344 24.3125 99.277344 C 24.820313 98.785156 25.566406 98.488281 26.546875 98.386719 C 27.523438 98.269531 28.316406 98.394531 28.921875 98.761719 C 29.523438 99.136719 29.867188 99.714844 29.953125 100.496094 Z M 30.453125 108.332031 L 29.53125 108.441406 C 29.664063 108.167969 29.753906 107.902344 29.796875 107.644531 C 29.847656 107.394531 29.859375 107.136719 29.828125 106.878906 C 29.765625 106.292969 29.515625 105.867188 29.078125 105.597656 C 28.640625 105.324219 28.054688 105.230469 27.328125 105.316406 C 26.597656 105.386719 26.046875 105.605469 25.671875 105.972656 C 25.304688 106.335938 25.15625 106.808594 25.21875 107.394531 C 25.25 107.652344 25.316406 107.902344 25.421875 108.144531 C 25.523438 108.382813 25.664063 108.617188 25.84375 108.847656 L 24.9375 108.941406 C 24.78125 108.710938 24.65625 108.464844 24.5625 108.207031 C 24.46875 107.957031 24.40625 107.683594 24.375 107.394531 C 24.28125 106.570313 24.488281 105.886719 25 105.347656 C 25.507813 104.816406 26.25 104.496094 27.21875 104.394531 C 28.1875 104.277344 28.976563 104.429688 29.59375 104.847656 C 30.207031 105.261719 30.5625 105.894531 30.65625 106.738281 C 30.6875 107.007813 30.6875 107.277344 30.65625 107.550781 C 30.625 107.820313 30.554688 108.082031 30.453125 108.332031 Z M 33.179688 109.550781 L 33.289063 110.441406 L 28.382813 110.988281 L 31.257813 113.332031 L 31.382813 114.472656 L 28.257813 111.925781 L 25.398438 115.253906 L 25.273438 114.097656 L 27.898438 111.035156 L 24.976563 111.363281 L 24.867188 110.472656 Z M 29.253906 120.453125 L 28.769531 120.5 L 28.316406 116.421875 C 27.648438 116.546875 27.160156 116.789063 26.847656 117.15625 C 26.535156 117.53125 26.410156 118.007813 26.472656 118.59375 C 26.511719 118.925781 26.597656 119.242188 26.722656 119.546875 C 26.855469 119.859375 27.027344 120.164063 27.238281 120.46875 L 26.316406 120.578125 C 26.128906 120.265625 25.972656 119.945313 25.847656 119.625 C 25.730469 119.300781 25.660156 118.972656 25.628906 118.640625 C 25.535156 117.773438 25.730469 117.0625 26.222656 116.5 C 26.722656 115.9375 27.449219 115.601563 28.410156 115.5 C 29.378906 115.394531 30.175781 115.546875 30.800781 115.953125 C 31.433594 116.359375 31.800781 116.96875 31.894531 117.78125 C 31.964844 118.5 31.761719 119.097656 31.285156 119.578125 C 30.816406 120.054688 30.136719 120.347656 29.253906 120.453125 Z M 29.457031 119.53125 C 29.988281 119.457031 30.398438 119.269531 30.691406 118.96875 C 30.980469 118.675781 31.105469 118.316406 31.066406 117.890625 C 31.011719 117.390625 30.808594 117.003906 30.457031 116.734375 C 30.113281 116.472656 29.664063 116.351563 29.113281 116.375 Z M 25.882813 124.570313 C 25.144531 124.402344 24.65625 124.210938 24.414063 123.992188 C 24.175781 123.773438 24.035156 123.464844 23.992188 123.070313 L 23.914063 122.367188 L 24.726563 122.273438 L 24.773438 122.789063 C 24.804688 123.027344 24.894531 123.210938 25.039063 123.335938 C 25.175781 123.460938 25.492188 123.578125 25.992188 123.695313 L 26.460938 123.789063 L 32.101563 120.960938 L 32.210938 121.898438 L 27.710938 124.101563 L 32.585938 125.257813 L 32.679688 126.195313 Z M 35.378906 134.6875 L 34.332031 134.796875 C 34.488281 134.410156 34.589844 134.046875 34.644531 133.703125 C 34.707031 133.367188 34.714844 133.050781 34.675781 132.75 C 34.621094 132.21875 34.464844 131.820313 34.207031 131.5625 C 33.945313 131.300781 33.613281 131.195313 33.207031 131.25 C 32.851563 131.28125 32.589844 131.398438 32.425781 131.609375 C 32.269531 131.816406 32.160156 132.203125 32.097656 132.765625 L 32.035156 133.34375 C 31.960938 134.082031 31.753906 134.644531 31.410156 135.03125 C 31.066406 135.425781 30.570313 135.660156 29.925781 135.734375 C 29.152344 135.828125 28.539063 135.660156 28.082031 135.234375 C 27.632813 134.804688 27.355469 134.144531 27.253906 133.25 C 27.210938 132.90625 27.210938 132.535156 27.253906 132.140625 C 27.304688 131.742188 27.394531 131.335938 27.519531 130.921875 L 28.613281 130.8125 C 28.414063 131.21875 28.273438 131.617188 28.191406 132.015625 C 28.105469 132.410156 28.085938 132.789063 28.128906 133.15625 C 28.191406 133.707031 28.355469 134.117188 28.628906 134.390625 C 28.898438 134.671875 29.257813 134.785156 29.707031 134.734375 C 30.101563 134.691406 30.398438 134.546875 30.597656 134.296875 C 30.804688 134.054688 30.933594 133.6875 30.988281 133.1875 L 31.050781 132.578125 C 31.121094 131.828125 31.308594 131.273438 31.613281 130.921875 C 31.925781 130.566406 32.386719 130.351563 33.003906 130.28125 C 33.699219 130.210938 34.277344 130.367188 34.738281 130.765625 C 35.195313 131.160156 35.472656 131.753906 35.566406 132.546875 C 35.597656 132.890625 35.597656 133.238281 35.566406 133.59375 C 35.535156 133.945313 35.472656 134.3125 35.378906 134.6875 Z M 35.652344 137.460938 L 33.964844 137.648438 L 34.167969 139.476563 L 33.402344 139.570313 L 33.199219 137.742188 L 29.949219 138.101563 C 29.46875 138.152344 29.160156 138.246094 29.027344 138.382813 C 28.902344 138.515625 28.859375 138.773438 28.902344 139.148438 L 29.011719 140.054688 L 28.183594 140.148438 L 28.074219 139.242188 C 28 138.554688 28.09375 138.0625 28.355469 137.773438 C 28.613281 137.492188 29.113281 137.308594 29.855469 137.226563 L 33.105469 136.867188 L 33.027344 136.210938 L 33.792969 136.117188 L 33.871094 136.773438 L 35.558594 136.585938 Z M 33.742188 143.847656 C 33.792969 143.742188 33.824219 143.628906 33.835938 143.503906 C 33.855469 143.378906 33.859375 143.253906 33.851563 143.128906 C 33.789063 142.617188 33.558594 142.246094 33.164063 142.019531 C 32.765625 141.800781 32.234375 141.730469 31.570313 141.816406 L 28.414063 142.175781 L 28.320313 141.285156 L 34.289063 140.582031 L 34.382813 141.472656 L 33.460938 141.582031 C 33.84375 141.726563 34.140625 141.933594 34.351563 142.207031 C 34.558594 142.488281 34.6875 142.835938 34.742188 143.253906 C 34.742188 143.316406 34.742188 143.386719 34.742188 143.472656 C 34.75 143.554688 34.75 143.636719 34.742188 143.722656 Z M 32.554688 149.585938 L 32.070313 149.632813 L 31.601563 145.554688 C 30.921875 145.679688 30.429688 145.929688 30.117188 146.304688 C 29.8125 146.679688 29.695313 147.15625 29.757813 147.742188 C 29.796875 148.074219 29.882813 148.390625 30.007813 148.695313 C 30.140625 149.007813 30.3125 149.3125 30.523438 149.617188 L 29.617188 149.726563 C 29.417969 149.414063 29.261719 149.09375 29.148438 148.773438 C 29.03125 148.449219 28.953125 148.121094 28.914063 147.789063 C 28.808594 146.921875 29 146.210938 29.492188 145.648438 C 29.992188 145.085938 30.71875 144.746094 31.679688 144.632813 C 32.648438 144.515625 33.445313 144.664063 34.070313 145.070313 C 34.703125 145.476563 35.070313 146.085938 35.164063 146.898438 C 35.246094 147.617188 35.054688 148.214844 34.585938 148.695313 C 34.117188 149.183594 33.4375 149.480469 32.554688 149.585938 Z M 32.742188 148.664063 C 33.28125 148.589844 33.699219 148.402344 33.992188 148.101563 C 34.28125 147.796875 34.402344 147.433594 34.351563 147.007813 C 34.289063 146.507813 34.085938 146.121094 33.742188 145.851563 C 33.398438 145.589844 32.9375 145.476563 32.367188 145.507813 Z M 33.265625 155.640625 L 32.78125 155.6875 L 32.3125 151.609375 C 31.632813 151.734375 31.140625 151.984375 30.828125 152.359375 C 30.523438 152.734375 30.40625 153.210938 30.46875 153.796875 C 30.507813 154.128906 30.59375 154.445313 30.71875 154.75 C 30.851563 155.0625 31.023438 155.367188 31.234375 155.671875 L 30.328125 155.78125 C 30.128906 155.46875 29.972656 155.148438 29.859375 154.828125 C 29.742188 154.503906 29.664063 154.175781 29.625 153.84375 C 29.519531 152.976563 29.710938 152.265625 30.203125 151.703125 C 30.703125 151.140625 31.429688 150.800781 32.390625 150.6875 C 33.359375 150.570313 34.15625 150.71875 34.78125 151.125 C 35.414063 151.53125 35.78125 152.140625 35.875 152.953125 C 35.957031 153.671875 35.765625 154.269531 35.296875 154.75 C 34.828125 155.238281 34.148438 155.535156 33.265625 155.640625 Z M 33.453125 154.71875 C 33.992188 154.644531 34.410156 154.457031 34.703125 154.15625 C 34.992188 153.851563 35.113281 153.488281 35.0625 153.0625 C 35 152.5625 34.796875 152.175781 34.453125 151.90625 C 34.109375 151.644531 33.648438 151.53125 33.078125 151.5625 Z M 37.972656 157.441406 L 36.269531 157.628906 L 36.488281 159.441406 L 35.738281 159.535156 L 35.519531 157.722656 L 32.269531 158.097656 C 31.777344 158.160156 31.472656 158.257813 31.347656 158.394531 C 31.230469 158.527344 31.195313 158.785156 31.238281 159.160156 L 31.347656 160.050781 L 30.519531 160.144531 L 30.410156 159.253906 C 30.335938 158.566406 30.425781 158.074219 30.675781 157.785156 C 30.933594 157.503906 31.433594 157.316406 32.175781 157.222656 L 35.425781 156.847656 L 35.347656 156.191406 L 36.097656 156.097656 L 36.175781 156.753906 L 37.878906 156.566406 Z M 37.972656 157.441406 "/>
</g>
</svg>

