<?xml version="1.0" encoding="UTF-8"?>
<svg xmlns="http://www.w3.org/2000/svg" xmlns:xlink="http://www.w3.org/1999/xlink" width="256pt" height="256pt" viewBox="0 0 256 256" version="1.1">
<g id="surface2">
<rect x="0" y="0" width="256" height="256" style="fill:rgb(94.901961%,93.72549%,91.372549%);fill-opacity:1;stroke:none;"/>
<path style="fill:none;stroke-width:8;stroke-linecap:round;stroke-linejoin:round;stroke:rgb(75.686275%,70.980392%,61.568627%);stroke-opacity:1;stroke-miterlimit:10;" d="M 172.546875 264 L 172.691406 256.835938 L 172.902344 242.816406 "/>
<path style="fill:none;stroke-width:8;stroke-linecap:round;stroke-linejoin:round;stroke:rgb(75.686275%,70.980392%,61.568627%);stroke-opacity:1;stroke-miterlimit:10;" d="M 92.71875 -9 L 84.75 -0.773438 L 77.738281 2.523438 L 66.015625 6.726563 L 46.792969 10.332031 L 43.53125 10.929688 L 31.832031 14.222656 "/>
<path style="fill:none;stroke-width:8;stroke-linecap:round;stroke-linejoin:round;stroke:rgb(75.686275%,70.980392%,61.568627%);stroke-opacity:1;stroke-miterlimit:10;" d="M 193.640625 74.015625 L 205.523438 73.074219 L 225.050781 69.5625 L 240.035156 66.738281 L 251.964844 62.191406 L 258.046875 60.558594 L 260.445313 59.460938 "/>
<path style="fill:none;stroke-width:8;stroke-linecap:round;stroke-linejoin:round;stroke:rgb(75.686275%,70.980392%,61.568627%);stroke-opacity:1;stroke-miterlimit:10;" d="M 216.5 104.257813 L 216.523438 107.582031 L 216.917969 110.3125 L 218.386719 113.386719 L 220.015625 115.019531 L 224.632813 117.527344 L 231.179688 119.878906 L 243.949219 122.515625 L 250.308594 123.238281 L 256.648438 124.210938 L 261.539063 125.933594 L 263.335938 126.9375 L 264 127.777344 M 264 136.539063 L 262.871094 138.261719 L 262.613281 139.769531 L 263.824219 144.851563 L 264 145.402344 "/>
<path style="fill:none;stroke-width:8;stroke-linecap:round;stroke-linejoin:round;stroke:rgb(75.686275%,70.980392%,61.568627%);stroke-opacity:1;stroke-miterlimit:10;" d="M 188.375 59.964844 L 208.507813 67.019531 L 216.007813 68.839844 L 249.984375 60.527344 L 253.269531 56.011719 L 254.292969 53.75 L 253.316406 49.957031 L 236.027344 47.289063 L 233.277344 44.746094 L 222.742188 29.25 "/>
<path style="fill:none;stroke-width:8;stroke-linecap:round;stroke-linejoin:round;stroke:rgb(75.686275%,70.980392%,61.568627%);stroke-opacity:1;stroke-miterlimit:10;" d="M 188.28125 57.957031 L 191.84375 45.5625 L 193.3125 42.773438 L 197.320313 39.101563 L 217.757813 33.515625 L 219.925781 32.011719 L 222.742188 29.25 L 226.984375 25.046875 L 235.375 14.253906 L 240.40625 7.007813 L 249.628906 -9 "/>
<path style="fill:none;stroke-width:8;stroke-linecap:round;stroke-linejoin:round;stroke:rgb(75.686275%,70.980392%,61.568627%);stroke-opacity:1;stroke-miterlimit:10;" d="M 205.121094 264 L 208.0625 247.675781 L 209.742188 236.761719 L 212.605469 229.421875 L 217.78125 219.164063 L 223.234375 209.691406 "/>
<path style="fill:none;stroke-width:8;stroke-linecap:round;stroke-linejoin:round;stroke:rgb(75.686275%,70.980392%,61.568627%);stroke-opacity:1;stroke-miterlimit:10;" d="M 264 113.148438 L 262.378906 112.507813 L 257.464844 111.003906 L 250.472656 110.21875 L 242.828125 110.53125 L 239.566406 110.46875 L 230.527344 109.371094 L 220.4375 106.390625 L 217.382813 104.886719 L 216.5 104.257813 L 213.9375 101.75 L 211.417969 98.265625 L 205.59375 88.289063 L 201.820313 82.394531 L 198.695313 78.847656 L 193.640625 74.015625 L 191.566406 72.039063 L 190.167969 69.15625 L 188.535156 63.507813 L 188.375 59.964844 L 188.28125 57.957031 "/>
<path style="fill:none;stroke-width:8;stroke-linecap:round;stroke-linejoin:round;stroke:rgb(75.686275%,70.980392%,61.568627%);stroke-opacity:1;stroke-miterlimit:10;" d="M 188.28125 57.957031 L 188.304688 48.761719 L 187.675781 36.621094 L 187.371094 35.273438 L 186.136719 33.203125 L 182.757813 31.636719 L 177.609375 29.785156 L 159.457031 22.410156 L 150.765625 19.085938 L 149.109375 17.519531 L 142.679688 9.296875 L 138.414063 5.375 L 117.582031 -6.796875 L 114.15625 -7.640625 L 108.960938 -8.238281 L 95.539063 -8.867188 L 94.828125 -9 "/>
<path style="fill:none;stroke-width:6;stroke-linecap:round;stroke-linejoin:round;stroke:rgb(100%,100%,100%);stroke-opacity:1;stroke-miterlimit:10;" d="M 172.546875 264 L 172.691406 256.835938 L 172.902344 242.816406 "/>
<path style="fill:none;stroke-width:6;stroke-linecap:round;stroke-linejoin:round;stroke:rgb(100%,100%,100%);stroke-opacity:1;stroke-miterlimit:10;" d="M 92.71875 -9 L 84.75 -0.773438 L 77.738281 2.523438 L 66.015625 6.726563 L 46.792969 10.332031 L 43.53125 10.929688 L 31.832031 14.222656 "/>
<path style="fill:none;stroke-width:6;stroke-linecap:round;stroke-linejoin:round;stroke:rgb(100%,100%,100%);stroke-opacity:1;stroke-miterlimit:10;" d="M 193.640625 74.015625 L 205.523438 73.074219 L 225.050781 69.5625 L 240.035156 66.738281 L 251.964844 62.191406 L 258.046875 60.558594 L 260.445313 59.460938 "/>
<path style="fill:none;stroke-width:6;stroke-linecap:round;stroke-linejoin:round;stroke:rgb(100%,100%,100%);stroke-opacity:1;stroke-miterlimit:10;" d="M 216.5 104.257813 L 216.523438 107.582031 L 216.917969 110.3125 L 218.386719 113.386719 L 220.015625 115.019531 L 224.632813 117.527344 L 231.179688 119.878906 L 243.949219 122.515625 L 250.308594 123.238281 L 256.648438 124.210938 L 261.539063 125.933594 L 263.335938 126.9375 L 264 127.777344 M 264 136.539063 L 262.871094 138.261719 L 262.613281 139.769531 L 263.824219 144.851563 L 264 145.402344 "/>
<path style="fill:none;stroke-width:6;stroke-linecap:round;stroke-linejoin:round;stroke:rgb(100%,100%,100%);stroke-opacity:1;stroke-miterlimit:10;" d="M 188.375 59.964844 L 208.507813 67.019531 L 216.007813 68.839844 L 249.984375 60.527344 L 253.269531 56.011719 L 254.292969 53.75 L 253.316406 49.957031 L 236.027344 47.289063 L 233.277344 44.746094 L 222.742188 29.25 "/>
<path style="fill:none;stroke-width:6;stroke-linecap:round;stroke-linejoin:round;stroke:rgb(100%,100%,100%);stroke-opacity:1;stroke-miterlimit:10;" d="M 188.28125 57.957031 L 191.84375 45.5625 L 193.3125 42.773438 L 197.320313 39.101563 L 217.757813 33.515625 L 219.925781 32.011719 L 222.742188 29.25 L 226.984375 25.046875 L 235.375 14.253906 L 240.40625 7.007813 L 249.628906 -9 "/>
<path style="fill:none;stroke-width:6;stroke-linecap:round;stroke-linejoin:round;stroke:rgb(100%,100%,100%);stroke-opacity:1;stroke-miterlimit:10;" d="M 205.121094 264 L 208.0625 247.675781 L 209.742188 236.761719 L 212.605469 229.421875 L 217.78125 219.164063 L 223.234375 209.691406 "/>
<path style="fill:none;stroke-width:6;stroke-linecap:round;stroke-linejoin:round;stroke:rgb(100%,100%,100%);stroke-opacity:1;stroke-miterlimit:10;" d="M 264 113.148438 L 262.378906 112.507813 L 257.464844 111.003906 L 250.472656 110.21875 L 242.828125 110.53125 L 239.566406 110.46875 L 230.527344 109.371094 L 220.4375 106.390625 L 217.382813 104.886719 L 216.5 104.257813 L 213.9375 101.75 L 211.417969 98.265625 L 205.59375 88.289063 L 201.820313 82.394531 L 198.695313 78.847656 L 193.640625 74.015625 L 191.566406 72.039063 L 190.167969 69.15625 L 188.535156 63.507813 L 188.375 59.964844 L 188.28125 57.957031 "/>
<path style="fill:none;stroke-width:6;stroke-linecap:round;stroke-linejoin:round;stroke:rgb(100%,100%,100%);stroke-opacity:1;stroke-miterlimit:10;" d="M 188.28125 57.957031 L 188.304688 48.761719 L 187.675781 36.621094 L 187.371094 35.273438 L 186.136719 33.203125 L 182.757813 31.636719 L 177.609375 29.785156 L 159.457031 22.410156 L 150.765625 19.085938 L 149.109375 17.519531 L 142.679688 9.296875 L 138.414063 5.375 L 117.582031 -6.796875 L 114.15625 -7.640625 L 108.960938 -8.238281 L 95.539063 -8.867188 L 94.828125 -9 "/>
</g>
</svg>

