<?xml version="1.0" encoding="UTF-8"?>
<svg xmlns="http://www.w3.org/2000/svg" xmlns:xlink="http://www.w3.org/1999/xlink" width="256pt" height="256pt" viewBox="0 0 256 256" version="1.1">
<g id="surface2">
<rect x="0" y="0" width="256" height="256" style="fill:rgb(60%,70.196078%,80%);fill-opacity:1;stroke:none;"/>
<path style=" stroke:none;fill-rule:evenodd;fill:rgb(94.901961%,93.72549%,91.372549%);fill-opacity:1;" d="M -4 -4 L -4 171.914063 L 66.574219 213.847656 L 85.769531 211.144531 L 89.660156 209.726563 L 89.554688 203.03125 L 83.878906 198.976563 L 83.335938 194.109375 L 102.261719 198.433594 L 102.804688 219.796875 L 113.621094 234.128906 L 118.488281 253.324219 L 117.753906 259 L -4 259 L 12.273438 259 L 11.960938 258.039063 L -4 244.519531 L -4 -4 L -4 259 L -4 -4 L -4 259 Z M -4 -4 "/>
<path style=" stroke:none;fill-rule:evenodd;fill:rgb(87.058824%,82.352941%,67.45098%);fill-opacity:1;" d="M -4 260 L 30.460938 260 L 29.828125 236.058594 L 30.289063 206.238281 L 30.382813 198.609375 L 30.191406 195.816406 L 28.535156 194.632813 L 18.164063 188.617188 L 4.140625 180.375 L -4 175.648438 Z M -4 260 "/>
<path style=" stroke:none;fill-rule:evenodd;fill:rgb(87.058824%,82.352941%,67.45098%);fill-opacity:1;" d="M 37.417969 256.371094 L 37.421875 260 L 115.03125 260 L 115.703125 255.308594 L 114.578125 244.433594 L 111.328125 236.183594 L 103.203125 225.683594 L 99.453125 222.4375 L 100.574219 209.308594 L 99.203125 201.308594 L 94.328125 198.058594 L 85.203125 196.058594 L 89.578125 201.308594 L 92.953125 208.433594 L 89.453125 212.683594 L 86.953125 215.058594 L 81.828125 214.058594 L 74.199219 215.183594 L 66.703125 215.183594 L 62.703125 212.808594 L 55.578125 208.558594 L 46.449219 203.808594 L 38.121094 198.207031 L 37.390625 241.464844 Z M 37.417969 256.371094 "/>
<path style="fill:none;stroke-width:8;stroke-linecap:round;stroke-linejoin:round;stroke:rgb(75.686275%,70.980392%,61.568627%);stroke-opacity:1;stroke-miterlimit:10;" d="M -9 184.945313 L -2.632813 188.171875 L 2.054688 180.738281 "/>
<path style="fill:none;stroke-width:8;stroke-linecap:round;stroke-linejoin:round;stroke:rgb(75.686275%,70.980392%,61.568627%);stroke-opacity:1;stroke-miterlimit:10;" d="M 13.179688 256.140625 L 21.195313 241.09375 L 29.222656 227.175781 L 36.097656 216.105469 L 43.089844 204.886719 "/>
<path style="fill:none;stroke-width:8;stroke-linecap:round;stroke-linejoin:round;stroke:rgb(75.686275%,70.980392%,61.568627%);stroke-opacity:1;stroke-miterlimit:10;" d="M 62.039063 215.914063 L 60.914063 218.964844 L 62.125 220.75 L 66.765625 223.746094 L 77.960938 230.09375 L 88.75 236.378906 L 91.960938 238.589844 L 93.886719 240.230469 L 97.484375 238.71875 L 99.378906 235.023438 L 97.953125 232.023438 L 94.742188 229.527344 L 89.03125 225.53125 L 84.25 222.890625 L 81.894531 222.460938 L 79.332031 225.972656 "/>
<path style="fill:none;stroke-width:8;stroke-linecap:round;stroke-linejoin:round;stroke:rgb(75.686275%,70.980392%,61.568627%);stroke-opacity:1;stroke-miterlimit:10;" d="M 97.484375 238.71875 L 94.523438 235.515625 L 90.890625 232.34375 L 86.90625 229.605469 L 82.96875 227.480469 L 79.332031 225.972656 "/>
<path style="fill:none;stroke-width:8;stroke-linecap:round;stroke-linejoin:round;stroke:rgb(75.686275%,70.980392%,61.568627%);stroke-opacity:1;stroke-miterlimit:10;" d="M 20.84375 211.933594 L 28.019531 212.714844 L 36.097656 216.105469 L 37.117188 216.566406 L 41.070313 220.460938 "/>
<path style="fill:none;stroke-width:8;stroke-linecap:round;stroke-linejoin:round;stroke:rgb(75.686275%,70.980392%,61.568627%);stroke-opacity:1;stroke-miterlimit:10;" d="M 2.273438 245.398438 L 20.84375 211.933594 "/>
<path style="fill:none;stroke-width:8;stroke-linecap:round;stroke-linejoin:round;stroke:rgb(75.686275%,70.980392%,61.568627%);stroke-opacity:1;stroke-miterlimit:10;" d="M 52.816406 236.808594 L 49.738281 254.789063 L 44.316406 264 "/>
<path style="fill:none;stroke-width:8;stroke-linecap:round;stroke-linejoin:round;stroke:rgb(75.686275%,70.980392%,61.568627%);stroke-opacity:1;stroke-miterlimit:10;" d="M 79.332031 225.972656 L 77.960938 230.09375 L 66.695313 264 "/>
<path style="fill:none;stroke-width:8;stroke-linecap:round;stroke-linejoin:round;stroke:rgb(75.686275%,70.980392%,61.568627%);stroke-opacity:1;stroke-miterlimit:10;" d="M -2.667969 239.402344 L 2.273438 245.398438 L 13.179688 256.140625 L 21.390625 264 "/>
<path style="fill:none;stroke-width:8;stroke-linecap:round;stroke-linejoin:round;stroke:rgb(75.686275%,70.980392%,61.568627%);stroke-opacity:1;stroke-miterlimit:10;" d="M 97.484375 238.71875 L 100.070313 242.195313 L 102.492188 246.289063 L 104.3125 250.324219 L 105.824219 253.1875 L 106.96875 256.480469 L 107.597656 259.589844 L 107.691406 262.019531 L 107.320313 264 "/>
<path style="fill:none;stroke-width:8;stroke-linecap:round;stroke-linejoin:round;stroke:rgb(75.686275%,70.980392%,61.568627%);stroke-opacity:1;stroke-miterlimit:10;" d="M -9 174.46875 L 2.054688 180.738281 L 43.089844 204.886719 L 62.039063 215.914063 L 79.332031 225.972656 "/>
<path style="fill:none;stroke-width:6;stroke-linecap:round;stroke-linejoin:round;stroke:rgb(100%,100%,100%);stroke-opacity:1;stroke-miterlimit:10;" d="M -9 184.945313 L -2.632813 188.171875 L 2.054688 180.738281 "/>
<path style="fill:none;stroke-width:6;stroke-linecap:round;stroke-linejoin:round;stroke:rgb(100%,100%,100%);stroke-opacity:1;stroke-miterlimit:10;" d="M 13.179688 256.140625 L 21.195313 241.09375 L 29.222656 227.175781 L 36.097656 216.105469 L 43.089844 204.886719 "/>
<path style="fill:none;stroke-width:6;stroke-linecap:round;stroke-linejoin:round;stroke:rgb(100%,100%,100%);stroke-opacity:1;stroke-miterlimit:10;" d="M 62.039063 215.914063 L 60.914063 218.964844 L 62.125 220.75 L 66.765625 223.746094 L 77.960938 230.09375 L 88.75 236.378906 L 91.960938 238.589844 L 93.886719 240.230469 L 97.484375 238.71875 L 99.378906 235.023438 L 97.953125 232.023438 L 94.742188 229.527344 L 89.03125 225.53125 L 84.25 222.890625 L 81.894531 222.460938 L 79.332031 225.972656 "/>
<path style="fill:none;stroke-width:6;stroke-linecap:round;stroke-linejoin:round;stroke:rgb(100%,100%,100%);stroke-opacity:1;stroke-miterlimit:10;" d="M 97.484375 238.71875 L 94.523438 235.515625 L 90.890625 232.34375 L 86.90625 229.605469 L 82.96875 227.480469 L 79.332031 225.972656 "/>
<path style="fill:none;stroke-width:6;stroke-linecap:round;stroke-linejoin:round;stroke:rgb(100%,100%,100%);stroke-opacity:1;stroke-miterlimit:10;" d="M 20.84375 211.933594 L 28.019531 212.714844 L 36.097656 216.105469 L 37.117188 216.566406 L 41.070313 220.460938 "/>
<path style="fill:none;stroke-width:6;stroke-linecap:round;stroke-linejoin:round;stroke:rgb(100%,100%,100%);stroke-opacity:1;stroke-miterlimit:10;" d="M 2.273438 245.398438 L 20.84375 211.933594 "/>
<path style="fill:none;stroke-width:6;stroke-linecap:round;stroke-linejoin:round;stroke:rgb(100%,100%,100%);stroke-opacity:1;stroke-miterlimit:10;" d="M 52.816406 236.808594 L 49.738281 254.789063 L 44.316406 264 "/>
<path style="fill:none;stroke-width:6;stroke-linecap:round;stroke-linejoin:round;stroke:rgb(100%,100%,100%);stroke-opacity:1;stroke-miterlimit:10;" d="M 79.332031 225.972656 L 77.960938 230.09375 L 66.695313 264 "/>
<path style="fill:none;stroke-width:6;stroke-linecap:round;stroke-linejoin:round;stroke:rgb(100%,100%,100%);stroke-opacity:1;stroke-miterlimit:10;" d="M -2.667969 239.402344 L 2.273438 245.398438 L 13.179688 256.140625 L 21.390625 264 "/>
<path style="fill:none;stroke-width:6;stroke-linecap:round;stroke-linejoin:round;stroke:rgb(100%,100%,100%);stroke-opacity:1;stroke-miterlimit:10;" d="M 97.484375 238.71875 L 100.070313 242.195313 L 102.492188 246.289063 L 104.3125 250.324219 L 105.824219 253.1875 L 106.96875 256.480469 L 107.597656 259.589844 L 107.691406 262.019531 L 107.320313 264 "/>
<path style="fill:none;stroke-width:6;stroke-linecap:round;stroke-linejoin:round;stroke:rgb(100%,100%,100%);stroke-opacity:1;stroke-miterlimit:10;" d="M -9 174.46875 L 2.054688 180.738281 L 43.089844 204.886719 L 62.039063 215.914063 L 79.332031 225.972656 "/>
<path style="fill:none;stroke-width:11;stroke-linecap:butt;stroke-linejoin:round;stroke:rgb(53.333333%,53.333333%,53.333333%);stroke-opacity:1;stroke-miterlimit:10;" d="M -10 -9.746094 L -2.042969 2.859375 L 5.054688 15.675781 L 10.972656 28.101563 L 17.09375 42.722656 L 22.414063 58.082031 L 26.554688 73.855469 L 29.511719 88.457031 L 31.6875 103.671875 L 33.070313 118.488281 L 33.664063 133.539063 L 33.425781 265 "/>
<path style="fill:none;stroke-width:11;stroke-linecap:butt;stroke-linejoin:round;stroke:rgb(53.333333%,53.333333%,53.333333%);stroke-opacity:1;stroke-miterlimit:10;" d="M 37.429688 265 L 37.417969 256.371094 L 37.390625 241.464844 L 37.210938 133.453125 L 36.613281 118.253906 L 35.210938 103.25 L 33.011719 87.851563 L 30.011719 73.050781 L 25.8125 57.050781 L 20.410156 41.453125 L 14.214844 26.652344 L 8.210938 14.050781 L 1.011719 1.050781 L -5.941406 -10 "/>
<path style="fill:none;stroke-width:9;stroke-linecap:round;stroke-linejoin:round;stroke:rgb(99.215686%,57.254902%,22.745098%);stroke-opacity:1;stroke-miterlimit:10;" d="M -10 -9.746094 L -2.042969 2.859375 L 5.054688 15.675781 L 10.972656 28.101563 L 17.09375 42.722656 L 22.414063 58.082031 L 26.554688 73.855469 L 29.511719 88.457031 L 31.6875 103.671875 L 33.070313 118.488281 L 33.664063 133.539063 L 33.425781 265 "/>
<path style="fill:none;stroke-width:9;stroke-linecap:round;stroke-linejoin:round;stroke:rgb(99.215686%,57.254902%,22.745098%);stroke-opacity:1;stroke-miterlimit:10;" d="M 37.429688 265 L 37.417969 256.371094 L 37.390625 241.464844 L 37.210938 133.453125 L 36.613281 118.253906 L 35.210938 103.25 L 33.011719 87.851563 L 30.011719 73.050781 L 25.8125 57.050781 L 20.410156 41.453125 L 14.214844 26.652344 L 8.210938 14.050781 L 1.011719 1.050781 L -5.941406 -10 "/>
</g>
</svg>

