<?xml version="1.0" encoding="UTF-8"?>
<svg xmlns="http://www.w3.org/2000/svg" xmlns:xlink="http://www.w3.org/1999/xlink" width="256pt" height="256pt" viewBox="0 0 256 256" version="1.1">
<g id="surface2">
<rect x="0" y="0" width="256" height="256" style="fill:rgb(94.901961%,93.72549%,91.372549%);fill-opacity:1;stroke:none;"/>
<path style=" stroke:none;fill-rule:evenodd;fill:rgb(60%,70.196078%,80%);fill-opacity:1;" d="M -4 259 L -4 162.480469 L -0.0703125 155.285156 L 4.355469 142.78125 L 10.707031 132.195313 L 9.933594 125.078125 L 11.28125 118.921875 L 15.804688 113.535156 L 16.382813 106.605469 L 23.691406 100.929688 L 25.136719 93.140625 L 30.523438 84.382813 L 38.027344 78.230469 L 36.390625 74.765625 L 32.640625 75.726563 L 28.503906 83.230469 L 22.441406 87.464844 L 18.402344 96.507813 L 10.320313 99.296875 L 5.992188 103.914063 L 7.242188 111.609375 L 7.53125 118.054688 L 3.007813 121.035156 L 0.410156 119.210938 L -2.570313 125.175781 L -2.28125 132.96875 L -4 135.476563 Z M -4 259 "/>
<path style="fill:none;stroke-width:1;stroke-linecap:round;stroke-linejoin:round;stroke:rgb(70.196078%,77.647059%,83.137255%);stroke-opacity:1;stroke-miterlimit:10;" d="M -4 259 L -4 162.480469 L -0.0703125 155.285156 L 4.355469 142.78125 L 10.707031 132.195313 L 9.933594 125.078125 L 11.28125 118.921875 L 15.804688 113.535156 L 16.382813 106.605469 L 23.691406 100.929688 L 25.136719 93.140625 L 30.523438 84.382813 L 38.027344 78.230469 L 36.390625 74.765625 L 32.640625 75.726563 L 28.503906 83.230469 L 22.441406 87.464844 L 18.402344 96.507813 L 10.320313 99.296875 L 5.992188 103.914063 L 7.242188 111.609375 L 7.53125 118.054688 L 3.007813 121.035156 L 0.410156 119.210938 L -2.570313 125.175781 L -2.28125 132.96875 L -4 135.476563 L -4 259 "/>
</g>
</svg>

