<?xml version="1.0" encoding="UTF-8"?>
<svg xmlns="http://www.w3.org/2000/svg" xmlns:xlink="http://www.w3.org/1999/xlink" width="256pt" height="256pt" viewBox="0 0 256 256" version="1.1">
<g id="surface2">
<rect x="0" y="0" width="256" height="256" style="fill:rgb(60%,70.196078%,80%);fill-opacity:1;stroke:none;"/>
<path style=" stroke:none;fill-rule:evenodd;fill:rgb(94.901961%,93.72549%,91.372549%);fill-opacity:1;" d="M 259 -4 L 247.5625 -4 L 247.1875 -3.515625 L 237.988281 10.28125 L 231.789063 22.484375 L 230.390625 26.683594 L 223.988281 28.683594 L 207.226563 49.925781 L 192.789063 66.882813 L 181.992188 85.082031 L 178.589844 97.082031 L 153.988281 116.882813 L 139.988281 121.28125 L 124.789063 121.28125 L 110.1875 115.082031 L 98.589844 104.882813 L 69.988281 82.28125 L 46.191406 71.082031 L 40.058594 48.011719 L 45.992188 46.480469 L 49.191406 54.484375 L 53.988281 57.683594 L 56.390625 54.082031 L 56.789063 47.082031 L 52.589844 37.082031 L 47.152344 38.0625 L 45.992188 44.082031 L 39.839844 45.550781 L 38.273438 36.078125 L 40.71875 33.15625 L 40.261719 29.835938 L 39.839844 26.796875 L 22.988281 25.082031 L -0.410156 29.484375 L -4 30.394531 L -4 259 L -4 -4 Z M 259 -4 "/>
<path style=" stroke:none;fill-rule:evenodd;fill:rgb(79.607843%,84.705882%,76.470588%);fill-opacity:1;" d="M 187.636719 -4 L 188.097656 29.074219 L 201.496094 45.875 L 214.855469 28.386719 L 239.59375 -4 L 260 -4 Z M 187.636719 -4 "/>
<path style=" stroke:none;fill-rule:evenodd;fill:rgb(79.607843%,84.705882%,76.470588%);fill-opacity:1;" d="M 187.636719 -4 L 188.097656 29.074219 L 201.496094 45.875 L 214.855469 28.386719 L 239.59375 -4 L 260 -4 Z M 187.636719 -4 "/>
<path style=" stroke:none;fill-rule:evenodd;fill:rgb(70.980392%,82.352941%,61.176471%);fill-opacity:1;" d="M 187.636719 -4 L 188.097656 29.074219 L 201.496094 45.875 L 214.855469 28.386719 L 239.59375 -4 L 260 -4 Z M 187.636719 -4 "/>
<path style=" stroke:none;fill-rule:evenodd;fill:rgb(70.980392%,82.352941%,61.176471%);fill-opacity:1;" d="M -4 26.597656 L 6.960938 23.8125 L 21.589844 20.675781 L 32.339844 21.800781 L 39.996094 26.796875 L 40.71875 33.160156 L 38.273438 36.078125 L 39.839844 45.550781 L 45.992188 44.082031 L 47.152344 38.0625 L 52.589844 37.082031 L 56.789063 47.082031 L 56.390625 54.082031 L 53.988281 57.683594 L 49.191406 54.484375 L 45.992188 46.480469 L 40.058594 48.011719 L 46.066406 71.214844 L 48.441406 70.3125 L 52.941406 68.59375 L 58.566406 70.214844 L 79.910156 81.171875 L 91.160156 87 L 97.164063 93.214844 L 106.070313 36.367188 L 70.070313 31.621094 L 63.234375 30.828125 L 62.363281 29.414063 L 69.417969 29 L 68.339844 25.300781 L 76.589844 22.300781 L 76.964844 28.675781 L 103.582031 31.023438 L 105.765625 31.214844 L 107.925781 23.332031 L 108.65625 20.65625 L 113.761719 2.015625 L 113.5 -4 L -4 -4 L 28.792969 -4 L 33.863281 10.792969 L 56.859375 7.796875 L 64.863281 19.195313 L 40.277344 26.085938 L 39.152344 25.054688 L 38.496094 23.636719 L 35.824219 17.886719 L 7.429688 13.148438 L -4 15.910156 Z M -4 26.597656 "/>
<path style=" stroke:none;fill-rule:evenodd;fill:rgb(70.980392%,82.352941%,61.176471%);fill-opacity:1;" d="M 38.273438 36.078125 L 39.839844 45.550781 L 45.992188 44.082031 L 47.152344 38.0625 L 52.589844 37.082031 L 56.789063 47.082031 L 56.390625 54.082031 L 53.988281 57.683594 L 49.191406 54.484375 L 45.992188 46.480469 L 40.058594 48.011719 L 46.191406 71.082031 L 52.941406 68.59375 L 58.566406 70.214844 L 91.160156 87 L 96.972656 93.390625 L 98.707031 95.289063 L 100.375 84.246094 L 103.785156 68.222656 L 112.753906 35.246094 L 174.875 47.996094 L 178.75 44.121094 L 185.15625 33.847656 L 172.660156 31.472656 L 171.503906 40.246094 L 120.15625 29.222656 L 116.753906 22.871094 L 113.15625 20.472656 L 107.503906 37.246094 L 99.660156 67.472656 L 92.878906 64.871094 L 91.78125 62.847656 L 90.285156 62.097656 L 95.160156 41.472656 L 96.785156 41.472656 L 98.660156 40.34375 L 99.753906 39.996094 L 103.253906 40.121094 L 104.378906 39.121094 L 62.628906 31.75 L 62.035156 28.847656 L 59.753906 26.996094 L 58.378906 27.621094 L 58.660156 30.222656 L 40.71875 33.160156 Z M 38.273438 36.078125 "/>
<path style=" stroke:none;fill-rule:evenodd;fill:rgb(81.960784%,81.568627%,80.392157%);fill-opacity:1;" d="M 90.285156 62.097656 L 91.78125 62.847656 L 92.878906 64.871094 L 95.535156 64.347656 L 98.003906 64.246094 L 103.59375 41.394531 L 103.253906 40.121094 L 99.753906 39.996094 L 98.660156 40.34375 L 96.785156 41.472656 L 95.160156 41.472656 Z M 90.285156 62.097656 "/>
<path style="fill:none;stroke-width:1;stroke-linecap:round;stroke-linejoin:round;stroke:rgb(81.960784%,81.960784%,81.960784%);stroke-opacity:1;stroke-miterlimit:10;" d="M 90.285156 62.097656 L 91.78125 62.847656 L 92.878906 64.871094 L 95.535156 64.347656 L 98.003906 64.246094 L 103.59375 41.394531 L 103.253906 40.121094 L 99.753906 39.996094 L 98.660156 40.34375 L 96.785156 41.472656 L 95.160156 41.472656 L 90.285156 62.097656 "/>
<path style=" stroke:none;fill-rule:evenodd;fill:rgb(81.960784%,81.568627%,80.392157%);fill-opacity:1;" d="M 14.492188 1.753906 L 20.527344 -0.144531 L 19.316406 -4 L 13.222656 -4 L 12.730469 -3.84375 Z M 14.492188 1.753906 "/>
<path style="fill:none;stroke-width:1;stroke-linecap:round;stroke-linejoin:round;stroke:rgb(81.960784%,81.960784%,81.960784%);stroke-opacity:1;stroke-miterlimit:10;" d="M 14.492188 1.753906 L 20.527344 -0.144531 L 19.316406 -4 L 13.222656 -4 L 12.730469 -3.84375 L 14.492188 1.753906 "/>
<path style=" stroke:none;fill-rule:evenodd;fill:rgb(60%,70.196078%,80%);fill-opacity:1;" d="M 200.96875 -4 L 201.128906 -2.53125 L 202.933594 13.46875 L 204.164063 16.609375 L 213.929688 17.269531 L 234.40625 -4 Z M 200.96875 -4 "/>
<path style="fill:none;stroke-width:1;stroke-linecap:round;stroke-linejoin:round;stroke:rgb(70.196078%,77.647059%,83.137255%);stroke-opacity:1;stroke-miterlimit:10;" d="M 200.96875 -4 L 201.128906 -2.53125 L 202.933594 13.46875 L 204.164063 16.609375 L 213.929688 17.269531 L 234.40625 -4 L 200.96875 -4 "/>
<path style=" stroke:none;fill-rule:evenodd;fill:rgb(60%,70.196078%,80%);fill-opacity:1;" d="M 60.734375 -4 L 61.570313 -1.421875 L 70.371094 5.578125 L 75.371094 6.578125 L 80.570313 10.378906 L 81.171875 13.777344 L 78.171875 16.578125 L 70.371094 17.976563 L 64.863281 19.195313 L 39.996094 26.796875 L 40.71875 33.160156 L 57.96875 30.179688 L 57.96875 27.378906 L 59.171875 26.578125 L 62.363281 29.414063 L 69.417969 29 L 68.339844 25.300781 L 76.589844 22.300781 L 76.964844 28.675781 L 103.582031 31.023438 L 105.371094 23.179688 L 107.925781 23.332031 L 108.65625 20.65625 L 104.570313 19.578125 L 103.171875 17.777344 L 92.371094 15.578125 L 91.96875 14.378906 L 88.96875 13.777344 L 89.078125 3.832031 L 76.96875 -0.621094 L 71.054688 -4 Z M 60.734375 -4 "/>
<path style="fill:none;stroke-width:1;stroke-linecap:round;stroke-linejoin:round;stroke:rgb(70.196078%,77.647059%,83.137255%);stroke-opacity:1;stroke-miterlimit:10;" d="M 60.734375 -4 L 61.570313 -1.421875 L 70.371094 5.578125 L 75.371094 6.578125 L 80.570313 10.378906 L 81.171875 13.777344 L 78.171875 16.578125 L 70.371094 17.976563 L 64.863281 19.195313 L 39.996094 26.796875 L 40.71875 33.160156 L 57.96875 30.179688 L 57.96875 27.378906 L 59.171875 26.578125 L 62.363281 29.414063 L 69.417969 29 L 68.339844 25.300781 L 76.589844 22.300781 L 76.964844 28.675781 L 103.582031 31.023438 L 105.371094 23.179688 L 107.925781 23.332031 L 108.65625 20.65625 L 104.570313 19.578125 L 103.171875 17.777344 L 92.371094 15.578125 L 91.96875 14.378906 L 88.96875 13.777344 L 89.078125 3.832031 L 76.96875 -0.621094 L 71.054688 -4 L 60.734375 -4 "/>
<path style="fill:none;stroke-width:2;stroke-linecap:round;stroke-linejoin:round;stroke:rgb(60%,70.196078%,80%);stroke-opacity:1;stroke-miterlimit:10;" d="M 204.164063 16.609375 L 197.164063 21.410156 L 190.765625 26.011719 "/>
<path style="fill:none;stroke-width:2;stroke-linecap:round;stroke-linejoin:round;stroke:rgb(60%,70.196078%,80%);stroke-opacity:1;stroke-miterlimit:10;" d="M 178.164063 36.808594 L 174.363281 42.410156 L 171.164063 43.609375 L 152.363281 40.210938 L 118.363281 32.808594 L 117.363281 31.609375 L 115.761719 26.011719 L 114.964844 24.609375 L 113.164063 23.210938 L 106.5625 21.808594 L 93.828125 20.109375 L 85.476563 19.160156 "/>
<path style="fill:none;stroke-width:6;stroke-linecap:round;stroke-linejoin:round;stroke:rgb(60%,70.196078%,80%);stroke-opacity:1;stroke-miterlimit:10;" d="M 64.417969 -7 L 65.953125 -2.890625 L 71.328125 0.863281 L 79.578125 4.113281 L 83.703125 7.984375 L 85.476563 19.160156 L 75.578125 20.363281 L 60.828125 23.738281 L 46.328125 28.988281 L 40.261719 29.835938 "/>
<path style="fill:none;stroke-width:1;stroke-linecap:round;stroke-linejoin:round;stroke:rgb(100%,100%,100%);stroke-opacity:1;stroke-dasharray:2,3;stroke-miterlimit:10;" d="M 45.949219 59.710938 L 46.949219 64.964844 L 48.296875 69.78125 "/>
<path style="fill:none;stroke-width:1;stroke-linecap:round;stroke-linejoin:round;stroke:rgb(100%,100%,100%);stroke-opacity:1;stroke-dasharray:2,3;stroke-miterlimit:10;" d="M 214.855469 28.386719 L 209.070313 24.609375 L 204.5625 19.011719 "/>
<path style="fill:none;stroke-width:1;stroke-linecap:round;stroke-linejoin:round;stroke:rgb(100%,100%,100%);stroke-opacity:1;stroke-dasharray:2,3;stroke-miterlimit:10;" d="M 63.761719 72.449219 L 66.199219 67.460938 L 68.574219 60.585938 L 69.597656 58.089844 "/>
<path style="fill:none;stroke-width:1;stroke-linecap:round;stroke-linejoin:round;stroke:rgb(100%,100%,100%);stroke-opacity:1;stroke-dasharray:2,3;stroke-miterlimit:10;" d="M 184.347656 16.507813 L 191.945313 17.109375 L 200.761719 16.007813 "/>
<path style="fill:none;stroke-width:1;stroke-linecap:round;stroke-linejoin:round;stroke:rgb(100%,100%,100%);stroke-opacity:1;stroke-dasharray:2,3;stroke-miterlimit:10;" d="M 85.699219 58.710938 L 85.074219 62.335938 L 83.199219 68.960938 L 82.96875 73.453125 L 80.523438 80.367188 "/>
<path style="fill:none;stroke-width:1;stroke-linecap:round;stroke-linejoin:round;stroke:rgb(100%,100%,100%);stroke-opacity:1;stroke-dasharray:2,3;stroke-miterlimit:10;" d="M 63.699219 55.460938 L 61.699219 52.839844 L 59.199219 51.335938 L 59.074219 48.214844 L 59.574219 46.710938 L 61.574219 45.339844 L 62.824219 44.714844 L 63.949219 43.710938 L 64.824219 42.335938 L 65.824219 39.960938 L 66.699219 37.460938 L 69.324219 35.085938 L 70.121094 31.300781 "/>
<path style="fill:none;stroke-width:1;stroke-linecap:round;stroke-linejoin:round;stroke:rgb(100%,100%,100%);stroke-opacity:1;stroke-dasharray:2,3;stroke-miterlimit:10;" d="M 42.164063 48.8125 L 43.199219 52.214844 L 44.449219 56.710938 L 45.949219 59.710938 L 48.574219 63.085938 L 53.574219 62.960938 L 55.824219 61.335938 L 58.574219 58.210938 L 60.949219 56.210938 L 63.699219 55.460938 L 68.199219 56.960938 L 69.597656 58.089844 L 72.074219 60.085938 L 75.699219 61.335938 L 79.574219 60.585938 L 82.199219 60.210938 L 85.699219 58.710938 L 87.824219 55.960938 L 90.199219 52.460938 L 90.824219 46.585938 L 89.324219 43.085938 L 87.949219 41.460938 L 84.824219 41.585938 L 82.074219 41.960938 L 78.199219 41.214844 L 76.074219 39.085938 L 71.449219 36.710938 L 69.324219 35.085938 L 66.824219 35.585938 L 63.199219 35.585938 L 60.199219 35.710938 L 57.199219 34.964844 L 52.824219 32.960938 L 49.574219 33.585938 L 47.074219 34.460938 L 42.199219 34.460938 L 40.824219 37.460938 L 41.074219 39.460938 L 41.363281 44.011719 "/>
<path style="fill:none;stroke-width:1;stroke-linecap:round;stroke-linejoin:round;stroke:rgb(100%,100%,100%);stroke-opacity:1;stroke-dasharray:2,3;stroke-miterlimit:10;" d="M 98.964844 65.015625 L 96.699219 69.089844 L 96.074219 76.710938 L 95.949219 84.089844 L 96.449219 88.710938 L 97.453125 93.214844 "/>
<path style="fill:none;stroke-width:8;stroke-linecap:round;stroke-linejoin:round;stroke:rgb(75.686275%,70.980392%,61.568627%);stroke-opacity:1;stroke-miterlimit:10;" d="M 105.234375 41.875 L 103.59375 41.394531 "/>
<path style="fill:none;stroke-width:8;stroke-linecap:round;stroke-linejoin:round;stroke:rgb(75.686275%,70.980392%,61.568627%);stroke-opacity:1;stroke-miterlimit:10;" d="M 113.03125 12.324219 L 106.15625 7.597656 L 90.5 0.996094 L 76.035156 -5.152344 L 71.5 -8.003906 L 71.277344 -9 "/>
<path style="fill:none;stroke-width:8;stroke-linecap:round;stroke-linejoin:round;stroke:rgb(75.686275%,70.980392%,61.568627%);stroke-opacity:1;stroke-miterlimit:10;" d="M 132.792969 5.695313 L 138.765625 5.589844 L 145.003906 5.476563 "/>
<path style="fill:none;stroke-width:8;stroke-linecap:round;stroke-linejoin:round;stroke:rgb(75.686275%,70.980392%,61.568627%);stroke-opacity:1;stroke-miterlimit:10;" d="M 135.90625 22.328125 L 138.765625 5.589844 "/>
<path style="fill:none;stroke-width:8;stroke-linecap:round;stroke-linejoin:round;stroke:rgb(75.686275%,70.980392%,61.568627%);stroke-opacity:1;stroke-miterlimit:10;" d="M 55.160156 15.644531 L 58.460938 9.394531 L 54.953125 -6.917969 L 54.144531 -9 "/>
<path style="fill:none;stroke-width:8;stroke-linecap:round;stroke-linejoin:round;stroke:rgb(75.686275%,70.980392%,61.568627%);stroke-opacity:1;stroke-miterlimit:10;" d="M 109.957031 23.796875 L 106.746094 35.917969 L 105.234375 41.875 L 98.964844 65.015625 "/>
<path style="fill:none;stroke-width:8;stroke-linecap:round;stroke-linejoin:round;stroke:rgb(75.686275%,70.980392%,61.568627%);stroke-opacity:1;stroke-miterlimit:10;" d="M 106.746094 35.917969 L 70.121094 31.300781 L 63.65625 30.527344 "/>
<path style="fill:none;stroke-width:8;stroke-linecap:round;stroke-linejoin:round;stroke:rgb(75.686275%,70.980392%,61.568627%);stroke-opacity:1;stroke-miterlimit:10;" d="M 157.382813 26.664063 L 158.003906 -9 "/>
<path style="fill:none;stroke-width:8;stroke-linecap:round;stroke-linejoin:round;stroke:rgb(75.686275%,70.980392%,61.568627%);stroke-opacity:1;stroke-miterlimit:10;" d="M 111.640625 17.4375 L 135.90625 22.328125 L 157.382813 26.664063 L 186.414063 32.519531 "/>
<path style="fill:none;stroke-width:8;stroke-linecap:round;stroke-linejoin:round;stroke:rgb(75.686275%,70.980392%,61.568627%);stroke-opacity:1;stroke-miterlimit:10;" d="M 9.078125 -9 L 13.371094 3.578125 L 13.066406 12.410156 "/>
<path style="fill:none;stroke-width:8;stroke-linecap:round;stroke-linejoin:round;stroke:rgb(75.686275%,70.980392%,61.568627%);stroke-opacity:1;stroke-miterlimit:10;" d="M 55.160156 15.644531 L 49.40625 17.488281 L 42.496094 17.375 L 35.359375 16.515625 L 32.214844 15.042969 L 13.066406 12.410156 L 7.394531 11.667969 L -9 15.660156 "/>
<path style="fill:none;stroke-width:8;stroke-linecap:round;stroke-linejoin:round;stroke:rgb(75.686275%,70.980392%,61.568627%);stroke-opacity:1;stroke-miterlimit:10;" d="M 115.558594 -9 L 115.640625 3.671875 L 113.03125 12.324219 L 111.640625 17.4375 L 110.9375 20.09375 "/>
<path style="fill:none;stroke-width:8;stroke-linecap:round;stroke-linejoin:round;stroke:rgb(75.686275%,70.980392%,61.568627%);stroke-opacity:1;stroke-miterlimit:10;" d="M 24.5625 -9 L 32.214844 15.042969 "/>
<path style="fill:none;stroke-width:8;stroke-linecap:round;stroke-linejoin:round;stroke:rgb(75.686275%,70.980392%,61.568627%);stroke-opacity:1;stroke-miterlimit:10;" d="M 183.976563 -9 L 184.347656 16.507813 L 186.414063 32.519531 "/>
<path style="fill:none;stroke-width:6;stroke-linecap:round;stroke-linejoin:round;stroke:rgb(100%,100%,100%);stroke-opacity:1;stroke-miterlimit:10;" d="M 105.234375 41.875 L 103.59375 41.394531 "/>
<path style="fill:none;stroke-width:6;stroke-linecap:round;stroke-linejoin:round;stroke:rgb(100%,100%,100%);stroke-opacity:1;stroke-miterlimit:10;" d="M 113.03125 12.324219 L 106.15625 7.597656 L 90.5 0.996094 L 76.035156 -5.152344 L 71.5 -8.003906 L 71.277344 -9 "/>
<path style="fill:none;stroke-width:6;stroke-linecap:round;stroke-linejoin:round;stroke:rgb(100%,100%,100%);stroke-opacity:1;stroke-miterlimit:10;" d="M 132.792969 5.695313 L 138.765625 5.589844 L 145.003906 5.476563 "/>
<path style="fill:none;stroke-width:6;stroke-linecap:round;stroke-linejoin:round;stroke:rgb(100%,100%,100%);stroke-opacity:1;stroke-miterlimit:10;" d="M 135.90625 22.328125 L 138.765625 5.589844 "/>
<path style="fill:none;stroke-width:6;stroke-linecap:round;stroke-linejoin:round;stroke:rgb(100%,100%,100%);stroke-opacity:1;stroke-miterlimit:10;" d="M 55.160156 15.644531 L 58.460938 9.394531 L 54.953125 -6.917969 L 54.144531 -9 "/>
<path style="fill:none;stroke-width:6;stroke-linecap:round;stroke-linejoin:round;stroke:rgb(100%,100%,100%);stroke-opacity:1;stroke-miterlimit:10;" d="M 109.957031 23.796875 L 106.746094 35.917969 L 105.234375 41.875 L 98.964844 65.015625 "/>
<path style="fill:none;stroke-width:6;stroke-linecap:round;stroke-linejoin:round;stroke:rgb(100%,100%,100%);stroke-opacity:1;stroke-miterlimit:10;" d="M 106.746094 35.917969 L 70.121094 31.300781 L 63.65625 30.527344 "/>
<path style="fill:none;stroke-width:6;stroke-linecap:round;stroke-linejoin:round;stroke:rgb(100%,100%,100%);stroke-opacity:1;stroke-miterlimit:10;" d="M 157.382813 26.664063 L 158.003906 -9 "/>
<path style="fill:none;stroke-width:6;stroke-linecap:round;stroke-linejoin:round;stroke:rgb(100%,100%,100%);stroke-opacity:1;stroke-miterlimit:10;" d="M 111.640625 17.4375 L 135.90625 22.328125 L 157.382813 26.664063 L 186.414063 32.519531 "/>
<path style="fill:none;stroke-width:6;stroke-linecap:round;stroke-linejoin:round;stroke:rgb(100%,100%,100%);stroke-opacity:1;stroke-miterlimit:10;" d="M 9.078125 -9 L 13.371094 3.578125 L 13.066406 12.410156 "/>
<path style="fill:none;stroke-width:6;stroke-linecap:round;stroke-linejoin:round;stroke:rgb(100%,100%,100%);stroke-opacity:1;stroke-miterlimit:10;" d="M 55.160156 15.644531 L 49.40625 17.488281 L 42.496094 17.375 L 35.359375 16.515625 L 32.214844 15.042969 L 13.066406 12.410156 L 7.394531 11.667969 L -9 15.660156 "/>
<path style="fill:none;stroke-width:6;stroke-linecap:round;stroke-linejoin:round;stroke:rgb(100%,100%,100%);stroke-opacity:1;stroke-miterlimit:10;" d="M 115.558594 -9 L 115.640625 3.671875 L 113.03125 12.324219 L 111.640625 17.4375 L 110.9375 20.09375 "/>
<path style="fill:none;stroke-width:6;stroke-linecap:round;stroke-linejoin:round;stroke:rgb(100%,100%,100%);stroke-opacity:1;stroke-miterlimit:10;" d="M 24.5625 -9 L 32.214844 15.042969 "/>
<path style="fill:none;stroke-width:6;stroke-linecap:round;stroke-linejoin:round;stroke:rgb(100%,100%,100%);stroke-opacity:1;stroke-miterlimit:10;" d="M 183.976563 -9 L 184.347656 16.507813 L 186.414063 32.519531 "/>
<path style="fill:none;stroke-width:8;stroke-linecap:butt;stroke-linejoin:round;stroke:rgb(53.333333%,53.333333%,53.333333%);stroke-opacity:1;stroke-miterlimit:10;" d="M 42.164063 48.8125 L 41.363281 44.011719 "/>
<path style="fill:none;stroke-width:8;stroke-linecap:butt;stroke-linejoin:round;stroke:rgb(53.333333%,53.333333%,53.333333%);stroke-opacity:1;stroke-miterlimit:10;" d="M 110.9375 20.09375 L 109.957031 23.796875 "/>
<path style="fill:none;stroke-width:6;stroke-linecap:round;stroke-linejoin:round;stroke:rgb(100%,100%,100%);stroke-opacity:1;stroke-miterlimit:10;" d="M 42.164063 48.8125 L 41.363281 44.011719 "/>
<path style="fill:none;stroke-width:6;stroke-linecap:round;stroke-linejoin:round;stroke:rgb(100%,100%,100%);stroke-opacity:1;stroke-miterlimit:10;" d="M 110.9375 20.09375 L 109.957031 23.796875 "/>
<path style="fill:none;stroke-width:3;stroke-linecap:round;stroke-linejoin:round;stroke:rgb(100%,100%,100%);stroke-opacity:1;stroke-miterlimit:10;" d="M 123.183594 16.582031 L 122.589844 19.535156 L 123.777344 19.769531 C 124.222656 19.863281 124.59375 19.808594 124.886719 19.597656 C 125.1875 19.378906 125.386719 19.035156 125.480469 18.566406 C 125.574219 18.097656 125.519531 17.714844 125.324219 17.410156 C 125.136719 17.109375 124.816406 16.910156 124.371094 16.816406 Z M 122.386719 15.503906 L 124.542969 15.941406 C 125.332031 16.109375 125.890625 16.433594 126.214844 16.910156 C 126.546875 17.390625 126.636719 18.011719 126.480469 18.769531 C 126.324219 19.550781 126 20.105469 125.511719 20.425781 C 125.03125 20.738281 124.394531 20.8125 123.605469 20.644531 L 122.417969 20.410156 L 121.777344 23.566406 L 120.808594 23.363281 Z M 127.003906 22.199219 L 127.722656 18.636719 L 128.597656 18.808594 L 127.878906 22.339844 C 127.773438 22.894531 127.789063 23.332031 127.925781 23.652344 C 128.058594 23.964844 128.320313 24.164063 128.707031 24.246094 C 129.183594 24.339844 129.589844 24.253906 129.925781 23.980469 C 130.269531 23.699219 130.496094 23.269531 130.613281 22.683594 L 131.285156 19.355469 L 132.160156 19.527344 L 130.972656 25.417969 L 130.097656 25.246094 L 130.285156 24.339844 C 130.003906 24.652344 129.707031 24.863281 129.394531 24.980469 C 129.082031 25.105469 128.738281 25.128906 128.363281 25.058594 C 127.757813 24.933594 127.335938 24.625 127.097656 24.136719 C 126.867188 23.648438 126.835938 23.003906 127.003906 22.199219 Z M 129.941406 18.933594 Z M 136.863281 21.40625 C 136.777344 21.335938 136.679688 21.273438 136.566406 21.21875 C 136.460938 21.15625 136.339844 21.109375 136.207031 21.078125 C 135.707031 20.984375 135.289063 21.089844 134.957031 21.390625 C 134.621094 21.695313 134.386719 22.179688 134.253906 22.84375 L 133.628906 25.953125 L 132.738281 25.765625 L 133.925781 19.875 L 134.816406 20.0625 L 134.628906 20.96875 C 134.878906 20.648438 135.164063 20.433594 135.488281 20.328125 C 135.820313 20.214844 136.195313 20.199219 136.613281 20.28125 C 136.675781 20.292969 136.742188 20.308594 136.816406 20.328125 C 136.898438 20.351563 136.976563 20.375 137.050781 20.40625 Z M 141.269531 22.273438 L 141.910156 19.101563 L 142.785156 19.273438 L 141.128906 27.460938 L 140.253906 27.289063 L 140.425781 26.398438 C 140.183594 26.710938 139.902344 26.921875 139.582031 27.039063 C 139.269531 27.164063 138.917969 27.183594 138.535156 27.101563 C 137.886719 26.976563 137.417969 26.589844 137.128906 25.945313 C 136.835938 25.289063 136.785156 24.5 136.972656 23.570313 C 137.160156 22.644531 137.511719 21.941406 138.035156 21.460938 C 138.554688 20.972656 139.136719 20.789063 139.785156 20.914063 C 140.167969 21 140.480469 21.148438 140.722656 21.367188 C 140.972656 21.585938 141.152344 21.890625 141.269531 22.273438 Z M 137.878906 23.757813 C 137.730469 24.46875 137.746094 25.050781 137.925781 25.507813 C 138.113281 25.96875 138.433594 26.242188 138.894531 26.335938 C 139.363281 26.429688 139.769531 26.300781 140.113281 25.945313 C 140.457031 25.59375 140.699219 25.0625 140.847656 24.351563 C 140.992188 23.632813 140.972656 23.050781 140.785156 22.601563 C 140.597656 22.144531 140.269531 21.867188 139.800781 21.773438 C 139.339844 21.679688 138.941406 21.8125 138.597656 22.164063 C 138.261719 22.507813 138.023438 23.039063 137.878906 23.757813 Z M 145.019531 28.8125 C 144.621094 29.476563 144.285156 29.890625 144.003906 30.046875 C 143.730469 30.210938 143.402344 30.253906 143.019531 30.171875 L 142.316406 30.03125 L 142.472656 29.234375 L 142.988281 29.34375 C 143.226563 29.382813 143.425781 29.351563 143.582031 29.25 C 143.738281 29.15625 143.945313 28.890625 144.207031 28.453125 L 144.457031 28.03125 L 143.488281 21.8125 L 144.394531 22 L 145.128906 26.9375 L 147.722656 22.671875 L 148.644531 22.84375 Z M 154.152344 22.828125 L 153.558594 25.78125 L 154.746094 26.015625 C 155.191406 26.109375 155.5625 26.054688 155.855469 25.84375 C 156.15625 25.625 156.355469 25.28125 156.449219 24.8125 C 156.542969 24.34375 156.488281 23.960938 156.292969 23.65625 C 156.105469 23.355469 155.785156 23.15625 155.339844 23.0625 Z M 153.355469 21.75 L 155.511719 22.1875 C 156.300781 22.355469 156.859375 22.679688 157.183594 23.15625 C 157.515625 23.636719 157.605469 24.257813 157.449219 25.015625 C 157.292969 25.796875 156.96875 26.351563 156.480469 26.671875 C 156 26.984375 155.363281 27.058594 154.574219 26.890625 L 153.386719 26.65625 L 152.746094 29.8125 L 151.777344 29.609375 Z M 159.253906 22.601563 L 160.128906 22.773438 L 158.472656 30.960938 L 157.597656 30.789063 Z M 163.292969 28.847656 C 162.582031 28.703125 162.074219 28.699219 161.761719 28.832031 C 161.457031 28.957031 161.265625 29.234375 161.183594 29.660156 C 161.109375 30.003906 161.152344 30.300781 161.308594 30.550781 C 161.472656 30.792969 161.734375 30.941406 162.089844 31.003906 C 162.578125 31.109375 163.003906 31 163.371094 30.675781 C 163.746094 30.34375 163.996094 29.871094 164.121094 29.253906 L 164.167969 29.019531 Z M 165.105469 28.785156 L 164.433594 32.160156 L 163.574219 31.988281 L 163.746094 31.097656 C 163.472656 31.410156 163.171875 31.621094 162.839844 31.738281 C 162.503906 31.851563 162.125 31.863281 161.699219 31.769531 C 161.15625 31.664063 160.753906 31.414063 160.496094 31.019531 C 160.246094 30.613281 160.175781 30.125 160.292969 29.550781 C 160.425781 28.886719 160.730469 28.425781 161.199219 28.175781 C 161.667969 27.917969 162.296875 27.863281 163.089844 28.019531 L 164.324219 28.269531 L 164.339844 28.175781 C 164.433594 27.730469 164.371094 27.359375 164.152344 27.066406 C 163.933594 26.765625 163.582031 26.566406 163.105469 26.472656 C 162.800781 26.410156 162.496094 26.390625 162.183594 26.410156 C 161.878906 26.433594 161.582031 26.496094 161.292969 26.597656 L 161.480469 25.707031 C 161.824219 25.644531 162.152344 25.609375 162.464844 25.597656 C 162.777344 25.589844 163.074219 25.613281 163.355469 25.675781 C 164.125 25.832031 164.65625 26.167969 164.949219 26.675781 C 165.238281 27.1875 165.292969 27.890625 165.105469 28.785156 Z M 171.191406 27.625 L 171.003906 28.53125 C 170.785156 28.324219 170.558594 28.164063 170.332031 28.046875 C 170.101563 27.921875 169.863281 27.835938 169.613281 27.78125 C 169.039063 27.667969 168.554688 27.777344 168.160156 28.109375 C 167.773438 28.445313 167.507813 28.976563 167.363281 29.703125 C 167.214844 30.414063 167.257813 31 167.488281 31.46875 C 167.726563 31.929688 168.132813 32.214844 168.707031 32.328125 C 168.957031 32.378906 169.207031 32.390625 169.457031 32.359375 C 169.714844 32.339844 169.988281 32.277344 170.269531 32.171875 L 170.097656 33.0625 C 169.816406 33.144531 169.539063 33.191406 169.269531 33.203125 C 168.996094 33.210938 168.722656 33.191406 168.441406 33.140625 C 167.628906 32.972656 167.042969 32.566406 166.691406 31.921875 C 166.335938 31.265625 166.253906 30.464844 166.441406 29.515625 C 166.636719 28.558594 167.027344 27.851563 167.613281 27.390625 C 168.195313 26.933594 168.902344 26.789063 169.738281 26.953125 C 169.996094 27.007813 170.253906 27.09375 170.503906 27.21875 C 170.753906 27.335938 170.980469 27.46875 171.191406 27.625 Z M 176.738281 31.324219 L 176.644531 31.792969 L 172.628906 30.996094 C 172.535156 31.664063 172.617188 32.207031 172.878906 32.621094 C 173.136719 33.039063 173.554688 33.304688 174.128906 33.417969 C 174.460938 33.488281 174.789063 33.511719 175.113281 33.480469 C 175.445313 33.449219 175.789063 33.382813 176.144531 33.277344 L 175.957031 34.167969 C 175.613281 34.261719 175.269531 34.3125 174.925781 34.324219 C 174.582031 34.332031 174.242188 34.300781 173.910156 34.230469 C 173.054688 34.0625 172.433594 33.65625 172.050781 33.011719 C 171.664063 32.367188 171.566406 31.574219 171.753906 30.636719 C 171.949219 29.679688 172.339844 28.964844 172.925781 28.496094 C 173.507813 28.019531 174.199219 27.863281 175.003906 28.027344 C 175.722656 28.164063 176.230469 28.527344 176.535156 29.121094 C 176.847656 29.714844 176.914063 30.449219 176.738281 31.324219 Z M 175.925781 30.855469 C 176.019531 30.335938 175.964844 29.894531 175.769531 29.527344 C 175.582031 29.152344 175.273438 28.925781 174.847656 28.839844 C 174.355469 28.738281 173.933594 28.808594 173.582031 29.058594 C 173.226563 29.308594 172.972656 29.699219 172.816406 30.230469 Z M 175.925781 30.855469 "/>
<path style=" stroke:none;fill-rule:evenodd;fill:rgb(20%,20%,20%);fill-opacity:1;" d="M 123.183594 16.582031 L 122.589844 19.535156 L 123.777344 19.769531 C 124.222656 19.863281 124.59375 19.808594 124.886719 19.597656 C 125.1875 19.378906 125.386719 19.035156 125.480469 18.566406 C 125.574219 18.097656 125.519531 17.714844 125.324219 17.410156 C 125.136719 17.109375 124.816406 16.910156 124.371094 16.816406 Z M 122.386719 15.503906 L 124.542969 15.941406 C 125.332031 16.109375 125.890625 16.433594 126.214844 16.910156 C 126.546875 17.390625 126.636719 18.011719 126.480469 18.769531 C 126.324219 19.550781 126 20.105469 125.511719 20.425781 C 125.03125 20.738281 124.394531 20.8125 123.605469 20.644531 L 122.417969 20.410156 L 121.777344 23.566406 L 120.808594 23.363281 Z M 127.003906 22.199219 L 127.722656 18.636719 L 128.597656 18.808594 L 127.878906 22.339844 C 127.773438 22.894531 127.789063 23.332031 127.925781 23.652344 C 128.058594 23.964844 128.320313 24.164063 128.707031 24.246094 C 129.183594 24.339844 129.589844 24.253906 129.925781 23.980469 C 130.269531 23.699219 130.496094 23.269531 130.613281 22.683594 L 131.285156 19.355469 L 132.160156 19.527344 L 130.972656 25.417969 L 130.097656 25.246094 L 130.285156 24.339844 C 130.003906 24.652344 129.707031 24.863281 129.394531 24.980469 C 129.082031 25.105469 128.738281 25.128906 128.363281 25.058594 C 127.757813 24.933594 127.335938 24.625 127.097656 24.136719 C 126.867188 23.648438 126.835938 23.003906 127.003906 22.199219 Z M 129.941406 18.933594 Z M 136.863281 21.40625 C 136.777344 21.335938 136.679688 21.273438 136.566406 21.21875 C 136.460938 21.15625 136.339844 21.109375 136.207031 21.078125 C 135.707031 20.984375 135.289063 21.089844 134.957031 21.390625 C 134.621094 21.695313 134.386719 22.179688 134.253906 22.84375 L 133.628906 25.953125 L 132.738281 25.765625 L 133.925781 19.875 L 134.816406 20.0625 L 134.628906 20.96875 C 134.878906 20.648438 135.164063 20.433594 135.488281 20.328125 C 135.820313 20.214844 136.195313 20.199219 136.613281 20.28125 C 136.675781 20.292969 136.742188 20.308594 136.816406 20.328125 C 136.898438 20.351563 136.976563 20.375 137.050781 20.40625 Z M 141.269531 22.273438 L 141.910156 19.101563 L 142.785156 19.273438 L 141.128906 27.460938 L 140.253906 27.289063 L 140.425781 26.398438 C 140.183594 26.710938 139.902344 26.921875 139.582031 27.039063 C 139.269531 27.164063 138.917969 27.183594 138.535156 27.101563 C 137.886719 26.976563 137.417969 26.589844 137.128906 25.945313 C 136.835938 25.289063 136.785156 24.5 136.972656 23.570313 C 137.160156 22.644531 137.511719 21.941406 138.035156 21.460938 C 138.554688 20.972656 139.136719 20.789063 139.785156 20.914063 C 140.167969 21 140.480469 21.148438 140.722656 21.367188 C 140.972656 21.585938 141.152344 21.890625 141.269531 22.273438 Z M 137.878906 23.757813 C 137.730469 24.46875 137.746094 25.050781 137.925781 25.507813 C 138.113281 25.96875 138.433594 26.242188 138.894531 26.335938 C 139.363281 26.429688 139.769531 26.300781 140.113281 25.945313 C 140.457031 25.59375 140.699219 25.0625 140.847656 24.351563 C 140.992188 23.632813 140.972656 23.050781 140.785156 22.601563 C 140.597656 22.144531 140.269531 21.867188 139.800781 21.773438 C 139.339844 21.679688 138.941406 21.8125 138.597656 22.164063 C 138.261719 22.507813 138.023438 23.039063 137.878906 23.757813 Z M 145.019531 28.8125 C 144.621094 29.476563 144.285156 29.890625 144.003906 30.046875 C 143.730469 30.210938 143.402344 30.253906 143.019531 30.171875 L 142.316406 30.03125 L 142.472656 29.234375 L 142.988281 29.34375 C 143.226563 29.382813 143.425781 29.351563 143.582031 29.25 C 143.738281 29.15625 143.945313 28.890625 144.207031 28.453125 L 144.457031 28.03125 L 143.488281 21.8125 L 144.394531 22 L 145.128906 26.9375 L 147.722656 22.671875 L 148.644531 22.84375 Z M 154.152344 22.828125 L 153.558594 25.78125 L 154.746094 26.015625 C 155.191406 26.109375 155.5625 26.054688 155.855469 25.84375 C 156.15625 25.625 156.355469 25.28125 156.449219 24.8125 C 156.542969 24.34375 156.488281 23.960938 156.292969 23.65625 C 156.105469 23.355469 155.785156 23.15625 155.339844 23.0625 Z M 153.355469 21.75 L 155.511719 22.1875 C 156.300781 22.355469 156.859375 22.679688 157.183594 23.15625 C 157.515625 23.636719 157.605469 24.257813 157.449219 25.015625 C 157.292969 25.796875 156.96875 26.351563 156.480469 26.671875 C 156 26.984375 155.363281 27.058594 154.574219 26.890625 L 153.386719 26.65625 L 152.746094 29.8125 L 151.777344 29.609375 Z M 159.253906 22.601563 L 160.128906 22.773438 L 158.472656 30.960938 L 157.597656 30.789063 Z M 163.292969 28.847656 C 162.582031 28.703125 162.074219 28.699219 161.761719 28.832031 C 161.457031 28.957031 161.265625 29.234375 161.183594 29.660156 C 161.109375 30.003906 161.152344 30.300781 161.308594 30.550781 C 161.472656 30.792969 161.734375 30.941406 162.089844 31.003906 C 162.578125 31.109375 163.003906 31 163.371094 30.675781 C 163.746094 30.34375 163.996094 29.871094 164.121094 29.253906 L 164.167969 29.019531 Z M 165.105469 28.785156 L 164.433594 32.160156 L 163.574219 31.988281 L 163.746094 31.097656 C 163.472656 31.410156 163.171875 31.621094 162.839844 31.738281 C 162.503906 31.851563 162.125 31.863281 161.699219 31.769531 C 161.15625 31.664063 160.753906 31.414063 160.496094 31.019531 C 160.246094 30.613281 160.175781 30.125 160.292969 29.550781 C 160.425781 28.886719 160.730469 28.425781 161.199219 28.175781 C 161.667969 27.917969 162.296875 27.863281 163.089844 28.019531 L 164.324219 28.269531 L 164.339844 28.175781 C 164.433594 27.730469 164.371094 27.359375 164.152344 27.066406 C 163.933594 26.765625 163.582031 26.566406 163.105469 26.472656 C 162.800781 26.410156 162.496094 26.390625 162.183594 26.410156 C 161.878906 26.433594 161.582031 26.496094 161.292969 26.597656 L 161.480469 25.707031 C 161.824219 25.644531 162.152344 25.609375 162.464844 25.597656 C 162.777344 25.589844 163.074219 25.613281 163.355469 25.675781 C 164.125 25.832031 164.65625 26.167969 164.949219 26.675781 C 165.238281 27.1875 165.292969 27.890625 165.105469 28.785156 Z M 171.191406 27.625 L 171.003906 28.53125 C 170.785156 28.324219 170.558594 28.164063 170.332031 28.046875 C 170.101563 27.921875 169.863281 27.835938 169.613281 27.78125 C 169.039063 27.667969 168.554688 27.777344 168.160156 28.109375 C 167.773438 28.445313 167.507813 28.976563 167.363281 29.703125 C 167.214844 30.414063 167.257813 31 167.488281 31.46875 C 167.726563 31.929688 168.132813 32.214844 168.707031 32.328125 C 168.957031 32.378906 169.207031 32.390625 169.457031 32.359375 C 169.714844 32.339844 169.988281 32.277344 170.269531 32.171875 L 170.097656 33.0625 C 169.816406 33.144531 169.539063 33.191406 169.269531 33.203125 C 168.996094 33.210938 168.722656 33.191406 168.441406 33.140625 C 167.628906 32.972656 167.042969 32.566406 166.691406 31.921875 C 166.335938 31.265625 166.253906 30.464844 166.441406 29.515625 C 166.636719 28.558594 167.027344 27.851563 167.613281 27.390625 C 168.195313 26.933594 168.902344 26.789063 169.738281 26.953125 C 169.996094 27.007813 170.253906 27.09375 170.503906 27.21875 C 170.753906 27.335938 170.980469 27.46875 171.191406 27.625 Z M 176.738281 31.324219 L 176.644531 31.792969 L 172.628906 30.996094 C 172.535156 31.664063 172.617188 32.207031 172.878906 32.621094 C 173.136719 33.039063 173.554688 33.304688 174.128906 33.417969 C 174.460938 33.488281 174.789063 33.511719 175.113281 33.480469 C 175.445313 33.449219 175.789063 33.382813 176.144531 33.277344 L 175.957031 34.167969 C 175.613281 34.261719 175.269531 34.3125 174.925781 34.324219 C 174.582031 34.332031 174.242188 34.300781 173.910156 34.230469 C 173.054688 34.0625 172.433594 33.65625 172.050781 33.011719 C 171.664063 32.367188 171.566406 31.574219 171.753906 30.636719 C 171.949219 29.679688 172.339844 28.964844 172.925781 28.496094 C 173.507813 28.019531 174.199219 27.863281 175.003906 28.027344 C 175.722656 28.164063 176.230469 28.527344 176.535156 29.121094 C 176.847656 29.714844 176.914063 30.449219 176.738281 31.324219 Z M 175.925781 30.855469 C 176.019531 30.335938 175.964844 29.894531 175.769531 29.527344 C 175.582031 29.152344 175.273438 28.925781 174.847656 28.839844 C 174.355469 28.738281 173.933594 28.808594 173.582031 29.058594 C 173.226563 29.308594 172.972656 29.699219 172.816406 30.230469 Z M 175.925781 30.855469 "/>
</g>
</svg>

