<?xml version="1.0" encoding="UTF-8"?>
<svg xmlns="http://www.w3.org/2000/svg" xmlns:xlink="http://www.w3.org/1999/xlink" width="256pt" height="256pt" viewBox="0 0 256 256" version="1.1">
<g id="surface2">
<rect x="0" y="0" width="256" height="256" style="fill:rgb(60%,70.196078%,80%);fill-opacity:1;stroke:none;"/>
<path style=" stroke:none;fill-rule:evenodd;fill:rgb(94.901961%,93.72549%,91.372549%);fill-opacity:1;" d="M 15.804688 -2.351563 L 15.703125 -2.230469 L 15.601563 -2.078125 L 15.527344 -1.984375 L 15.492188 -1.933594 L 15.46875 -1.867188 L 15.351563 -1.675781 L 15.339844 -1.640625 L 15.328125 -1.585938 L 15.316406 -1.496094 L 15.296875 -1.457031 L 15.285156 -1.40625 L 15.269531 -1.324219 L 15.25 -1.074219 L 15.257813 -0.953125 L 15.265625 -0.902344 L 15.285156 -0.785156 L 15.273438 -0.6875 L 15.25 -0.597656 L 15.226563 -0.527344 L 15.15625 -0.394531 L 15.136719 -0.3125 L 15.082031 -0.253906 L 15 -0.1875 L 14.960938 -0.132813 L 14.933594 -0.0742188 L 14.707031 0.0703125 L 14.625 0.128906 L 14.550781 0.195313 L 14.539063 0.222656 L 14.515625 0.246094 L 14.417969 0.292969 L 14.378906 0.273438 L 14.355469 0.300781 L 14.257813 0.371094 L 14.207031 0.445313 L 14.164063 0.472656 L 14.085938 0.535156 L 14.035156 0.585938 L 13.886719 0.683594 L 13.8125 0.710938 L 13.699219 0.726563 L 13.6875 0.726563 L 13.65625 0.714844 L 13.570313 0.691406 L 13.523438 0.683594 L 13.375 0.746094 L 13.308594 0.765625 L 13.277344 0.765625 L 13.222656 0.820313 L 13.1875 0.835938 L 13.175781 0.816406 L 13.164063 0.785156 L 13.125 0.757813 L 13.027344 0.71875 L 12.941406 0.664063 L 12.902344 0.660156 L 12.855469 0.664063 L 12.78125 0.726563 L 12.746094 0.738281 L 12.515625 0.800781 L 12.371094 0.832031 L 12.3125 0.835938 L 11.988281 0.832031 L 11.804688 0.828125 L 11.710938 0.800781 L 11.417969 0.75 L 11.375 0.742188 L 11.210938 0.683594 L 11.179688 0.691406 L 11.058594 0.695313 L 11.003906 0.695313 L 10.917969 0.675781 L 10.890625 0.648438 L 10.800781 0.617188 L 10.6875 0.574219 L 10.632813 0.53125 L 10.449219 0.402344 L 10.324219 0.246094 L 10.292969 0.195313 L 10.246094 0.132813 L 10.1875 -0.0429688 L 10.160156 -0.136719 L 10.152344 -0.433594 L 10.152344 -0.550781 L 10.167969 -0.640625 L 10.1875 -0.65625 L 10.207031 -0.675781 L 10.234375 -0.738281 L 10.308594 -0.902344 L 10.355469 -0.949219 L 10.410156 -1.027344 L 10.460938 -1.167969 L 10.472656 -1.199219 L 10.527344 -1.285156 L 10.566406 -1.335938 L 10.648438 -1.5 L 10.675781 -1.5625 L 10.761719 -1.707031 L 10.761719 -1.75 L 10.757813 -1.792969 L 10.738281 -1.847656 L 10.835938 -1.832031 L 10.894531 -1.835938 L 10.957031 -1.875 L 10.992188 -1.917969 L 11.035156 -1.988281 L 11.144531 -2.144531 L 11.195313 -2.25 L 11.292969 -2.425781 L 11.359375 -2.578125 L 11.636719 -3.003906 L 11.683594 -3.089844 L 11.769531 -3.261719 L 11.820313 -3.4375 L 11.824219 -3.460938 L 11.859375 -3.539063 L 11.929688 -3.648438 L 11.96875 -3.703125 L 12.042969 -3.84375 L 12.066406 -3.9375 L 12.089844 -4 L 17.714844 -4 L 17.679688 -3.871094 L 17.628906 -3.78125 L 17.585938 -3.710938 L 17.546875 -3.632813 L 17.429688 -3.460938 L 17.335938 -3.335938 L 17.273438 -3.277344 L 17.222656 -3.222656 L 17.121094 -3.164063 L 16.992188 -3.121094 L 16.757813 -3.0625 L 16.679688 -3.03125 L 16.558594 -2.976563 L 16.515625 -2.953125 L 16.332031 -2.839844 L 16.242188 -2.78125 L 16.179688 -2.710938 L 16.144531 -2.667969 L 15.996094 -2.535156 L 15.882813 -2.425781 Z M 15.804688 -2.351563 "/>
<path style=" stroke:none;fill-rule:evenodd;fill:rgb(94.901961%,93.72549%,91.372549%);fill-opacity:1;" d="M 24.488281 0.0117188 L 24.472656 -0.0429688 L 24.476563 -0.0859375 L 24.519531 -0.179688 L 24.707031 -0.421875 L 24.859375 -0.578125 L 24.941406 -0.632813 L 25.066406 -0.691406 L 25.230469 -0.730469 L 25.421875 -0.75 L 25.4375 -0.738281 L 25.4375 -0.703125 L 25.359375 -0.609375 L 25.265625 -0.503906 L 25.53125 -0.648438 L 25.683594 -0.6875 L 25.765625 -0.6875 L 25.855469 -0.683594 L 25.953125 -0.695313 L 26.09375 -0.722656 L 26.230469 -0.765625 L 26.316406 -0.804688 L 26.285156 -0.710938 L 26.246094 -0.625 L 26.199219 -0.546875 L 26.0625 -0.414063 L 25.96875 -0.34375 L 25.785156 -0.242188 L 25.601563 -0.152344 L 25.503906 -0.117188 L 25.425781 -0.0703125 L 25.289063 -0.0273438 L 25.164063 0.0429688 L 25.054688 0.0742188 L 24.976563 0.046875 L 24.886719 -0.015625 L 24.8125 -0.046875 L 24.722656 -0.0585938 L 24.640625 -0.046875 Z M 24.488281 0.0117188 "/>
<path style=" stroke:none;fill-rule:evenodd;fill:rgb(94.901961%,93.72549%,91.372549%);fill-opacity:1;" d="M 22.351563 -0.167969 L 22.507813 -0.242188 L 22.597656 -0.320313 L 22.808594 -0.46875 L 22.914063 -0.53125 L 22.953125 -0.558594 L 23.175781 -0.769531 L 23.351563 -0.925781 L 23.445313 -1.019531 L 23.640625 -1.265625 L 23.707031 -1.359375 L 23.953125 -1.636719 L 24.015625 -1.714844 L 24.207031 -2.023438 L 24.289063 -2.136719 L 24.410156 -2.246094 L 24.464844 -2.304688 L 24.613281 -2.433594 L 24.792969 -2.625 L 25.003906 -2.929688 L 25.085938 -3.082031 L 25.167969 -3.316406 L 25.222656 -3.527344 L 25.253906 -3.761719 L 25.300781 -4 L 29.0625 -4 L 29.023438 -3.914063 L 28.917969 -3.75 L 28.832031 -3.648438 L 28.707031 -3.464844 L 28.480469 -3.183594 L 28.449219 -3.136719 L 28.355469 -2.902344 L 28.246094 -2.71875 L 28.152344 -2.589844 L 28.066406 -2.515625 L 27.96875 -2.402344 L 27.820313 -2.28125 L 27.59375 -2.074219 L 27.53125 -2.03125 L 27.308594 -1.835938 L 27.042969 -1.636719 L 26.960938 -1.582031 L 26.714844 -1.402344 L 26.617188 -1.339844 L 26.457031 -1.210938 L 26.265625 -1.042969 L 26.097656 -0.929688 L 26.015625 -0.886719 L 25.910156 -0.871094 L 25.804688 -0.878906 L 25.695313 -0.90625 L 25.507813 -0.933594 L 25.257813 -0.921875 L 25.121094 -0.882813 L 25.003906 -0.832031 L 24.875 -0.769531 L 24.769531 -0.703125 L 24.679688 -0.636719 L 24.484375 -0.433594 L 24.332031 -0.203125 L 24.1875 0.0390625 L 24.082031 0.152344 L 23.992188 0.222656 L 23.546875 0.480469 L 23.3125 0.605469 L 23.195313 0.660156 L 22.945313 0.75 L 22.757813 0.832031 L 22.636719 0.875 L 22.519531 0.90625 L 22.402344 0.929688 L 22.253906 0.945313 L 22.113281 0.960938 L 22.066406 0.96875 L 22.015625 0.988281 L 21.882813 1.035156 L 21.761719 1.070313 L 21.722656 1.078125 L 21.671875 1.078125 L 21.539063 1.105469 L 21.410156 1.125 L 21.382813 1.140625 L 21.347656 1.160156 L 21.210938 1.210938 L 21.136719 1.230469 L 21.0625 1.261719 L 21.015625 1.292969 L 20.886719 1.382813 L 20.8125 1.4375 L 20.703125 1.539063 L 20.652344 1.570313 L 20.59375 1.613281 L 20.53125 1.675781 L 20.457031 1.722656 L 20.421875 1.75 L 20.375 1.777344 L 20.257813 1.824219 L 20.203125 1.871094 L 20.105469 1.9375 L 20.023438 1.96875 L 19.972656 1.984375 L 19.878906 2.011719 L 19.851563 2.011719 L 19.757813 2.03125 L 19.703125 2.035156 L 19.632813 2.035156 L 19.417969 2.027344 L 19.226563 2.011719 L 18.863281 1.949219 L 18.605469 1.886719 L 18.035156 1.753906 L 17.976563 1.730469 L 17.867188 1.710938 L 17.839844 1.699219 L 17.757813 1.640625 L 17.71875 1.507813 L 17.714844 1.472656 L 17.710938 1.371094 L 17.699219 1.339844 L 17.726563 1.304688 L 17.785156 1.183594 L 17.820313 1.117188 L 17.976563 0.980469 L 18.03125 0.953125 L 18.078125 0.917969 L 18.152344 0.839844 L 18.296875 0.660156 L 18.3125 0.621094 L 18.3125 0.570313 L 18.332031 0.550781 L 18.40625 0.535156 L 18.453125 0.507813 L 18.617188 0.378906 L 18.726563 0.261719 L 18.816406 0.191406 L 18.90625 0.136719 L 19.15625 0.0078125 L 19.332031 -0.0117188 L 19.5 -0.015625 L 19.582031 -0.03125 L 19.71875 -0.0351563 L 19.828125 -0.0234375 L 19.933594 0 L 20.355469 0.0664063 L 20.621094 0.0898438 L 20.910156 0.109375 L 20.957031 0.140625 L 20.992188 0.171875 L 21.035156 0.179688 L 21.097656 0.175781 L 21.199219 0.152344 L 21.476563 0.148438 L 21.578125 0.128906 L 21.796875 0.0703125 L 21.90625 0.0234375 L 22.144531 -0.0585938 L 22.253906 -0.113281 Z M 22.351563 -0.167969 "/>
<path style=" stroke:none;fill-rule:evenodd;fill:rgb(94.901961%,93.72549%,91.372549%);fill-opacity:1;" d="M 7.707031 -4 L 7.695313 -3.96875 L 7.660156 -3.863281 L 7.539063 -3.574219 L 7.375 -3.273438 L 7.296875 -3.207031 L 7.238281 -3.140625 L 7.15625 -3.070313 L 6.980469 -2.945313 L 6.855469 -2.855469 L 6.628906 -2.722656 L 6.554688 -2.679688 L 6.382813 -2.605469 L 6.175781 -2.421875 L 6.171875 -2.394531 L 6.132813 -2.363281 L 5.980469 -2.277344 L 5.90625 -2.152344 L 5.863281 -2.09375 L 5.832031 -2.105469 L 5.800781 -2.113281 L 5.789063 -2.109375 L 5.757813 -2.074219 L 5.691406 -1.984375 L 5.46875 -1.746094 L 5.40625 -1.671875 L 5.335938 -1.578125 L 5.253906 -1.496094 L 5.046875 -1.175781 L 4.988281 -1.09375 L 4.886719 -0.941406 L 4.746094 -0.746094 L 4.554688 -0.558594 L 4.496094 -0.484375 L 4.335938 -0.238281 L 4.28125 -0.148438 L 4.230469 -0.0820313 L 4.179688 -0.0351563 L 4.136719 -0.0117188 L 4.113281 0.00390625 L 4.09375 0.0234375 L 4.058594 0.0625 L 3.96875 0.132813 L 3.894531 0.195313 L 3.847656 0.222656 L 3.773438 0.265625 L 3.628906 0.367188 L 3.582031 0.382813 L 3.476563 0.460938 L 3.257813 0.570313 L 3.097656 0.675781 L 3.035156 0.699219 L 2.914063 0.769531 L 2.804688 0.820313 L 2.703125 0.875 L 2.636719 0.890625 L 2.546875 0.933594 L 2.386719 1.007813 L 2.210938 1.171875 L 2.136719 1.226563 L 2.054688 1.308594 L 2.015625 1.355469 L 1.917969 1.429688 L 1.804688 1.53125 L 1.769531 1.570313 L 1.699219 1.621094 L 1.660156 1.632813 L 1.625 1.652344 L 1.566406 1.703125 L 1.515625 1.769531 L 1.507813 1.789063 L 1.476563 1.808594 L 1.34375 1.898438 L 1.320313 1.90625 L 1.304688 1.9375 L 1.265625 1.953125 L 1.171875 2.023438 L 0.988281 2.1875 L 0.851563 2.285156 L 0.773438 2.328125 L 0.738281 2.347656 L 0.609375 2.429688 L 0.546875 2.457031 L 0.46875 2.480469 L 0.246094 2.628906 L 0.144531 2.667969 L -0.0703125 2.785156 L -0.101563 2.796875 L -0.191406 2.808594 L -0.351563 2.875 L -0.453125 2.933594 L -0.511719 2.957031 L -0.59375 2.992188 L -0.640625 3.011719 L -0.632813 3.03125 L -0.589844 3.03125 L -0.585938 3.035156 L -0.585938 3.050781 L -0.511719 3.066406 L -0.515625 3.089844 L -0.6875 3.074219 L -0.6875 3.136719 L -0.8125 3.144531 L -0.820313 3.101563 L -0.855469 3.089844 L -0.898438 3.078125 L -0.941406 3.0625 L -0.976563 3.0625 L -1.011719 3.078125 L -1.0625 3.078125 L -1.148438 3.097656 L -1.292969 3.148438 L -1.386719 3.152344 L -1.640625 3.300781 L -1.695313 3.324219 L -1.734375 3.359375 L -1.738281 3.398438 L -1.785156 3.332031 L -1.917969 3.328125 L -1.949219 3.335938 L -1.972656 3.34375 L -2.027344 3.375 L -2.148438 3.425781 L -2.25 3.457031 L -2.417969 3.492188 L -2.519531 3.539063 L -2.597656 3.5625 L -2.757813 3.625 L -2.859375 3.640625 L -3.074219 3.699219 L -3.191406 3.738281 L -3.367188 3.777344 L -3.554688 3.828125 L -3.640625 3.863281 L -3.847656 3.941406 L -3.945313 3.957031 L -4 3.96875 L -4 1.910156 L -3.933594 1.832031 L -3.792969 1.660156 L -3.476563 1.335938 L -3.289063 1.167969 L -3.128906 1.058594 L -3.121094 1.042969 L -2.945313 0.890625 L -2.636719 0.648438 L -2.46875 0.492188 L -2.261719 0.324219 L -2.003906 0.199219 L -1.964844 0.1875 L -1.792969 0.171875 L -1.683594 0.132813 L -1.59375 0.109375 L -1.433594 0.0546875 L -1.347656 0.015625 L -1.324219 -0.0195313 L -1.265625 -0.125 L -1.144531 -0.441406 L -1.109375 -0.621094 L -1.078125 -0.726563 L -1.0625 -0.804688 L -1.027344 -1.039063 L -1.011719 -1.203125 L -1 -1.484375 L -0.992188 -1.945313 L -0.980469 -2.132813 L -0.9375 -2.378906 L -0.898438 -2.636719 L -0.808594 -3.015625 L -0.800781 -3.078125 L -0.796875 -3.222656 L -0.785156 -3.753906 L -0.746094 -3.964844 L -0.730469 -4 Z M 7.707031 -4 "/>
<path style=" stroke:none;fill-rule:evenodd;fill:rgb(94.901961%,93.72549%,91.372549%);fill-opacity:1;" d="M 259 259 L -4 259 L -4 92.855469 L 259 92.855469 Z M 259 259 "/>
<path style=" stroke:none;fill-rule:evenodd;fill:rgb(94.901961%,93.72549%,91.372549%);fill-opacity:1;" d="M -4 -4 L -4 5.742188 L -3.136719 5.507813 L 0.335938 5.417969 L 1.695313 5.449219 L 5.175781 5.703125 L 5.28125 5.738281 L 5.179688 5.519531 L 5.175781 5.484375 L 5.226563 5.457031 L 5.273438 5.429688 L 5.335938 5.367188 L 5.582031 5.25 L 5.671875 5.242188 L 5.75 5.203125 L 5.800781 5.1875 L 6.140625 5.363281 L 6.519531 5.242188 L 6.761719 5.148438 L 7.070313 4.984375 L 7.59375 4.644531 L 7.835938 4.433594 L 8.113281 4.253906 L 8.238281 4.125 L 8.351563 4.042969 L 8.648438 3.792969 L 8.75 3.714844 L 8.855469 3.65625 L 9.316406 3.429688 L 9.421875 3.394531 L 9.707031 3.304688 L 10.890625 3.09375 L 11.234375 3.117188 L 11.417969 3.109375 L 11.558594 3.085938 L 11.859375 3.125 L 12.082031 3.152344 L 12.265625 3.140625 L 12.75 3.25 L 12.851563 3.273438 L 13.046875 3.285156 L 13.34375 3.179688 L 13.390625 3.183594 L 13.429688 3.230469 L 13.476563 3.242188 L 13.6875 3.234375 L 13.738281 3.246094 L 13.820313 3.273438 L 14.175781 3.214844 L 14.714844 3.0625 L 14.734375 3.011719 L 14.800781 2.976563 L 14.847656 3 L 14.929688 3 L 15.042969 2.9375 L 15.496094 2.804688 L 15.519531 2.753906 L 15.804688 2.632813 L 16.019531 2.554688 L 16.261719 2.390625 L 16.347656 2.328125 L 16.410156 2.273438 L 16.5 2.222656 L 16.675781 2.128906 L 16.710938 2.105469 L 16.761719 2.085938 L 16.777344 2.082031 L 16.808594 2.070313 L 16.855469 2.03125 L 16.9375 1.984375 L 17.035156 1.898438 L 17.09375 1.886719 L 17.148438 1.863281 L 17.207031 1.859375 L 17.320313 1.820313 L 17.476563 1.832031 L 17.570313 1.824219 L 17.628906 1.859375 L 17.652344 1.890625 L 17.753906 1.929688 L 17.828125 1.9375 L 17.914063 1.933594 L 17.933594 1.949219 L 17.855469 1.980469 L 17.859375 2.0625 L 17.925781 2.066406 L 17.949219 2.066406 L 17.996094 2.050781 L 18.027344 2.042969 L 18.042969 2.042969 L 18.09375 2.039063 L 18.125 2.058594 L 18.171875 2.070313 L 18.234375 2.078125 L 18.230469 2.050781 L 18.242188 1.988281 L 18.292969 2 L 18.316406 2.066406 L 18.410156 2.105469 L 18.480469 2.117188 L 18.613281 2.152344 L 18.644531 2.167969 L 18.78125 2.242188 L 18.894531 2.265625 L 18.960938 2.289063 L 18.992188 2.320313 L 19.015625 2.328125 L 19.746094 2.328125 L 19.769531 2.324219 L 19.84375 2.304688 L 19.929688 2.269531 L 20.011719 2.25 L 20.074219 2.230469 L 20.199219 2.183594 L 20.230469 2.175781 L 20.308594 2.136719 L 20.347656 2.105469 L 20.410156 2.058594 L 20.449219 2.019531 L 20.460938 2 L 20.515625 1.976563 L 20.597656 1.910156 L 20.621094 1.890625 L 20.726563 1.792969 L 20.789063 1.734375 L 20.832031 1.699219 L 21.007813 1.578125 L 21.191406 1.433594 L 21.414063 1.382813 L 21.542969 1.378906 L 21.769531 1.316406 L 22.253906 1.234375 L 22.496094 1.164063 L 22.539063 1.175781 L 22.554688 1.175781 L 22.589844 1.136719 L 22.640625 1.113281 L 22.683594 1.097656 L 22.839844 1.082031 L 23.054688 0.988281 L 23.105469 0.972656 L 23.164063 0.964844 L 23.222656 0.929688 L 23.289063 0.902344 L 23.421875 0.839844 L 23.488281 0.804688 L 23.742188 0.707031 L 23.84375 0.652344 L 24.070313 0.507813 L 24.230469 0.394531 L 24.4375 0.207031 L 24.535156 0.136719 L 24.574219 0.117188 L 24.601563 0.078125 L 24.617188 0.0703125 L 24.664063 0.0703125 L 24.726563 0.0507813 L 24.820313 0.0546875 L 24.867188 0.0664063 L 24.910156 0.0898438 L 24.953125 0.140625 L 24.945313 0.167969 L 24.738281 0.257813 L 24.765625 0.3125 L 24.929688 0.25 L 24.964844 0.234375 L 25.046875 0.175781 L 25.152344 0.132813 L 25.175781 0.113281 L 25.371094 0.0273438 L 25.480469 -0.0195313 L 25.628906 -0.0664063 L 25.707031 -0.0976563 L 25.851563 -0.164063 L 25.898438 -0.195313 L 26.042969 -0.304688 L 26.144531 -0.398438 L 26.238281 -0.5 L 26.285156 -0.542969 L 26.425781 -0.644531 L 26.640625 -0.765625 L 26.78125 -0.875 L 26.84375 -0.925781 L 27.082031 -1.15625 L 27.175781 -1.265625 L 27.332031 -1.417969 L 27.59375 -1.601563 L 27.660156 -1.65625 L 27.71875 -1.714844 L 27.769531 -1.777344 L 27.933594 -2.035156 L 27.988281 -2.109375 L 28.078125 -2.207031 L 28.324219 -2.429688 L 28.398438 -2.484375 L 28.472656 -2.566406 L 28.546875 -2.613281 L 28.84375 -2.667969 L 28.90625 -2.675781 L 29.035156 -2.675781 L 29.246094 -2.671875 L 29.328125 -2.699219 L 29.421875 -2.753906 L 29.445313 -2.777344 L 29.472656 -2.832031 L 29.484375 -2.953125 L 29.492188 -2.996094 L 29.519531 -3.046875 L 29.597656 -3.113281 L 29.585938 -3.121094 L 29.546875 -3.113281 L 29.515625 -3.101563 L 29.4375 -3.042969 L 29.421875 -3.011719 L 29.40625 -2.878906 L 29.386719 -2.820313 L 29.367188 -2.785156 L 29.320313 -2.746094 L 29.25 -2.722656 L 29.101563 -2.710938 L 28.855469 -2.722656 L 28.769531 -2.707031 L 28.769531 -2.753906 L 28.914063 -2.910156 L 29.011719 -3.113281 L 29.050781 -3.210938 L 29.097656 -3.292969 L 29.167969 -3.390625 L 29.199219 -3.417969 L 29.414063 -3.539063 L 29.511719 -3.578125 L 29.613281 -3.632813 L 29.800781 -3.703125 L 29.890625 -3.753906 L 30.074219 -3.867188 L 30.25 -4 L 30.777344 -4 L 30.835938 -3.960938 L 30.890625 -3.859375 L 30.921875 -3.832031 L 30.949219 -3.828125 L 30.941406 -3.878906 L 30.898438 -3.9375 L 30.816406 -4 L 31.734375 -4 L 31.742188 -3.917969 L 31.769531 -3.738281 L 31.8125 -3.605469 L 31.875 -3.503906 L 31.957031 -3.496094 L 32.050781 -3.496094 L 32.082031 -3.492188 L 32.125 -3.492188 L 32.207031 -3.503906 L 32.292969 -3.519531 L 32.289063 -3.757813 L 32.292969 -3.90625 L 32.300781 -4 L 146.015625 -4 L 146.015625 93.019531 L -4 93.019531 Z M -4 -4 "/>
<path style=" stroke:none;fill-rule:evenodd;fill:rgb(94.901961%,93.72549%,91.372549%);fill-opacity:1;" d="M 259 -4 L 259 93.019531 L 145.851563 93.019531 L 145.851563 -4 Z M 259 -4 "/>
<path style=" stroke:none;fill-rule:evenodd;fill:rgb(60%,70.196078%,80%);fill-opacity:1;" d="M -4 259 L 5.4375 259 L 6.34375 258.339844 L 6.296875 256.789063 L 7.25 255.597656 L 7.808594 254.574219 L 7.296875 253.585938 L 7.738281 252.398438 L 8.148438 250.171875 L 8.109375 248.917969 L 8.429688 247.550781 L 9.433594 247.429688 L 10.609375 246.503906 L 10.71875 245.230469 L 10.609375 246.300781 L 9.472656 246.566406 L 8.691406 247.425781 L 7.855469 249.269531 L 7.875 250.675781 L 7.589844 252.46875 L 7.234375 253.859375 L 7.085938 255.550781 L 6.089844 256.953125 L 6.230469 258.289063 L 5.203125 259 L 4.507813 257.859375 L 5 259 L -1.617188 259 L -1.40625 257.667969 L -2.765625 256.835938 L -4 256.546875 Z M -4 259 "/>
<path style="fill:none;stroke-width:1;stroke-linecap:round;stroke-linejoin:round;stroke:rgb(70.196078%,77.647059%,83.137255%);stroke-opacity:1;stroke-miterlimit:10;" d="M -4 259 L 5.4375 259 L 6.34375 258.339844 L 6.296875 256.789063 L 7.25 255.597656 L 7.808594 254.574219 L 7.296875 253.585938 L 7.738281 252.398438 L 8.148438 250.171875 L 8.109375 248.917969 L 8.429688 247.550781 L 9.433594 247.429688 L 10.609375 246.503906 L 10.71875 245.230469 L 10.609375 246.300781 L 9.472656 246.566406 L 8.691406 247.425781 L 7.855469 249.269531 L 7.875 250.675781 L 7.589844 252.46875 L 7.234375 253.859375 L 7.085938 255.550781 L 6.089844 256.953125 L 6.230469 258.289063 L 5.203125 259 L 4.507813 257.859375 L 5 259 L -1.617188 259 L -1.40625 257.667969 L -2.765625 256.835938 L -4 256.546875 L -4 259 "/>
</g>
</svg>

