<?xml version="1.0" encoding="UTF-8"?>
<svg xmlns="http://www.w3.org/2000/svg" xmlns:xlink="http://www.w3.org/1999/xlink" width="256pt" height="256pt" viewBox="0 0 256 256" version="1.1">
<g id="surface2">
<rect x="0" y="0" width="256" height="256" style="fill:rgb(94.901961%,93.72549%,91.372549%);fill-opacity:1;stroke:none;"/>
<path style="fill:none;stroke-width:1;stroke-linecap:round;stroke-linejoin:round;stroke:rgb(100%,100%,100%);stroke-opacity:1;stroke-dasharray:2,3;stroke-miterlimit:10;" d="M -2 144.417969 L 8.984375 139.273438 L 18.992188 124.472656 L 26.394531 120.988281 L 27.699219 110.980469 L 16.816406 93.570313 L 24.21875 81.816406 L 8.109375 50.476563 L 13.335938 33.9375 L 7.675781 16.089844 L 9.417969 8.253906 L 19.429688 2.597656 L 22.300781 -2 M 75.152344 -2 L 91.25 18.703125 L 104.742188 17.394531 L 115.625 25.664063 L 156.976563 32.628906 L 160.457031 42.207031 L 169.597656 42.207031 L 202.679688 23.054688 L 236.085938 -2 "/>
<path style="fill:none;stroke-width:8;stroke-linecap:round;stroke-linejoin:round;stroke:rgb(75.686275%,70.980392%,61.568627%);stroke-opacity:1;stroke-miterlimit:10;" d="M 264 206.359375 L 223.972656 200.886719 L 189.601563 195.910156 L 173.382813 193.761719 L 168.863281 191.746094 L 164.832031 187.222656 L 161.777344 182.539063 "/>
<path style="fill:none;stroke-width:8;stroke-linecap:round;stroke-linejoin:round;stroke:rgb(75.686275%,70.980392%,61.568627%);stroke-opacity:1;stroke-miterlimit:10;" d="M 161.382813 182.507813 L 161.988281 181.660156 L 160.171875 175.96875 L 159.636719 173.074219 L 158.65625 170.472656 L 157.65625 169.65625 L 155.042969 168.941406 L 153.785156 169.65625 L 152.808594 171.382813 L 152.808594 174.339844 L 153.808594 176.066406 L 161.382813 182.507813 "/>
<path style="fill:none;stroke-width:6;stroke-linecap:round;stroke-linejoin:round;stroke:rgb(100%,100%,100%);stroke-opacity:1;stroke-miterlimit:10;" d="M 264 206.359375 L 223.972656 200.886719 L 189.601563 195.910156 L 173.382813 193.761719 L 168.863281 191.746094 L 164.832031 187.222656 L 161.777344 182.539063 "/>
<path style="fill:none;stroke-width:6;stroke-linecap:round;stroke-linejoin:round;stroke:rgb(100%,100%,100%);stroke-opacity:1;stroke-miterlimit:10;" d="M 161.382813 182.507813 L 161.988281 181.660156 L 160.171875 175.96875 L 159.636719 173.074219 L 158.65625 170.472656 L 157.65625 169.65625 L 155.042969 168.941406 L 153.785156 169.65625 L 152.808594 171.382813 L 152.808594 174.339844 L 153.808594 176.066406 L 161.382813 182.507813 "/>
</g>
</svg>

