<?xml version="1.0" encoding="UTF-8"?>
<svg xmlns="http://www.w3.org/2000/svg" xmlns:xlink="http://www.w3.org/1999/xlink" width="256pt" height="256pt" viewBox="0 0 256 256" version="1.1">
<g id="surface2">
<rect x="0" y="0" width="256" height="256" style="fill:rgb(60%,70.196078%,80%);fill-opacity:1;stroke:none;"/>
<path style="fill:none;stroke-width:6;stroke-linecap:round;stroke-linejoin:round;stroke:rgb(60%,70.196078%,80%);stroke-opacity:1;stroke-miterlimit:10;" d="M 110.519531 -7 L -7 235.332031 "/>
<path style="fill:none;stroke-width:3;stroke-linecap:round;stroke-linejoin:round;stroke:rgb(100%,100%,100%);stroke-opacity:1;stroke-miterlimit:10;" d="M 30.992188 146.335938 L 31.492188 145.320313 L 34.992188 147.023438 L 36.835938 143.242188 L 33.335938 141.539063 L 33.835938 140.492188 L 42.367188 144.632813 L 41.867188 145.679688 L 37.804688 143.710938 L 35.960938 147.492188 L 40.023438 149.460938 L 39.523438 150.476563 Z M 40.769531 141.46875 L 36.910156 139.59375 L 37.363281 138.65625 L 41.191406 140.53125 C 41.796875 140.824219 42.300781 140.9375 42.707031 140.875 C 43.113281 140.8125 43.414063 140.570313 43.613281 140.140625 C 43.863281 139.632813 43.878906 139.140625 43.660156 138.671875 C 43.449219 138.195313 43.035156 137.804688 42.410156 137.5 L 38.785156 135.734375 L 39.253906 134.78125 L 45.644531 137.890625 L 45.175781 138.84375 L 44.191406 138.359375 C 44.472656 138.789063 44.632813 139.199219 44.675781 139.59375 C 44.714844 139.980469 44.636719 140.375 44.441406 140.78125 C 44.128906 141.4375 43.660156 141.824219 43.035156 141.9375 C 42.410156 142.054688 41.65625 141.898438 40.769531 141.46875 Z M 37.910156 137.15625 Z M 42.992188 129.523438 L 39.523438 127.835938 L 39.992188 126.898438 L 48.882813 131.210938 L 48.414063 132.148438 L 47.460938 131.679688 C 47.742188 132.066406 47.902344 132.457031 47.945313 132.851563 C 47.984375 133.238281 47.902344 133.644531 47.695313 134.070313 C 47.351563 134.769531 46.765625 135.191406 45.945313 135.335938 C 45.113281 135.472656 44.195313 135.296875 43.195313 134.804688 C 42.1875 134.316406 41.476563 133.707031 41.070313 132.976563 C 40.664063 132.238281 40.632813 131.519531 40.976563 130.820313 C 41.1875 130.394531 41.457031 130.078125 41.789063 129.867188 C 42.113281 129.648438 42.515625 129.535156 42.992188 129.523438 Z M 43.664063 133.820313 C 44.4375 134.195313 45.113281 134.347656 45.695313 134.273438 C 46.265625 134.203125 46.671875 133.921875 46.914063 133.429688 C 47.164063 132.921875 47.136719 132.414063 46.835938 131.914063 C 46.53125 131.414063 46 130.976563 45.226563 130.601563 C 44.445313 130.226563 43.769531 130.078125 43.195313 130.148438 C 42.625 130.222656 42.210938 130.515625 41.960938 131.023438 C 41.722656 131.515625 41.753906 132.007813 42.054688 132.507813 C 42.347656 133.007813 42.882813 133.445313 43.664063 133.820313 Z M 45.386719 122.566406 L 46.386719 123.050781 C 46.105469 123.25 45.863281 123.472656 45.652344 123.722656 C 45.433594 123.972656 45.246094 124.253906 45.089844 124.566406 C 44.863281 125.035156 44.773438 125.433594 44.824219 125.753906 C 44.867188 126.066406 45.050781 126.300781 45.371094 126.457031 C 45.613281 126.574219 45.839844 126.578125 46.058594 126.472656 C 46.277344 126.371094 46.582031 126.09375 46.964844 125.644531 L 47.183594 125.378906 C 47.675781 124.777344 48.132813 124.40625 48.558594 124.269531 C 48.988281 124.125 49.457031 124.175781 49.980469 124.425781 C 50.574219 124.71875 50.941406 125.160156 51.089844 125.753906 C 51.234375 126.339844 51.125 127 50.761719 127.738281 C 50.613281 128.042969 50.425781 128.347656 50.199219 128.660156 C 49.96875 128.964844 49.699219 129.265625 49.386719 129.566406 L 48.292969 129.035156 C 48.667969 128.796875 48.988281 128.53125 49.246094 128.238281 C 49.503906 127.949219 49.71875 127.636719 49.886719 127.300781 C 50.105469 126.855469 50.1875 126.46875 50.136719 126.144531 C 50.082031 125.824219 49.902344 125.589844 49.589844 125.441406 C 49.308594 125.308594 49.050781 125.292969 48.808594 125.394531 C 48.570313 125.488281 48.242188 125.796875 47.824219 126.316406 L 47.574219 126.582031 C 47.148438 127.105469 46.730469 127.425781 46.324219 127.550781 C 45.917969 127.675781 45.464844 127.621094 44.964844 127.378906 C 44.371094 127.089844 44.007813 126.671875 43.871094 126.128906 C 43.726563 125.589844 43.824219 124.964844 44.167969 124.253906 C 44.335938 123.910156 44.523438 123.597656 44.730469 123.316406 C 44.941406 123.027344 45.160156 122.777344 45.386719 122.566406 Z M 47.890625 118.800781 C 47.640625 119.3125 47.667969 119.824219 47.96875 120.332031 C 48.273438 120.832031 48.808594 121.269531 49.578125 121.644531 C 50.351563 122.019531 51.023438 122.167969 51.59375 122.082031 C 52.164063 122 52.578125 121.703125 52.828125 121.191406 C 53.066406 120.683594 53.039063 120.175781 52.75 119.675781 C 52.457031 119.167969 51.933594 118.730469 51.171875 118.363281 C 50.414063 118 49.734375 117.855469 49.140625 117.925781 C 48.546875 118 48.132813 118.292969 47.890625 118.800781 Z M 47.015625 118.378906 C 47.414063 117.558594 48.023438 117.058594 48.84375 116.878906 C 49.667969 116.691406 50.605469 116.855469 51.65625 117.363281 C 52.707031 117.875 53.414063 118.511719 53.78125 119.269531 C 54.144531 120.019531 54.128906 120.808594 53.734375 121.628906 C 53.335938 122.453125 52.726563 122.957031 51.90625 123.144531 C 51.085938 123.324219 50.148438 123.15625 49.09375 122.644531 C 48.042969 122.136719 47.335938 121.503906 46.96875 120.753906 C 46.605469 119.996094 46.621094 119.203125 47.015625 118.378906 Z M 54.058594 110.675781 L 57.917969 112.550781 L 57.464844 113.488281 L 53.636719 111.628906 C 53.035156 111.339844 52.527344 111.230469 52.121094 111.300781 C 51.714844 111.375 51.410156 111.621094 51.199219 112.035156 C 50.960938 112.546875 50.949219 113.042969 51.167969 113.519531 C 51.378906 113.988281 51.800781 114.375 52.433594 114.675781 L 56.042969 116.425781 L 55.589844 117.378906 L 49.199219 114.269531 L 49.652344 113.316406 L 50.636719 113.800781 C 50.378906 113.394531 50.226563 112.996094 50.183594 112.597656 C 50.132813 112.203125 50.207031 111.800781 50.402344 111.394531 C 50.714844 110.738281 51.183594 110.347656 51.808594 110.222656 C 52.425781 110.097656 53.175781 110.25 54.058594 110.675781 Z M 58.25 101.699219 C 58.449219 101.523438 58.734375 101.394531 59.109375 101.308594 C 59.484375 101.226563 59.964844 101.195313 60.546875 101.214844 L 63.390625 101.292969 L 62.84375 102.417969 L 60.171875 102.339844 C 59.484375 102.300781 58.996094 102.355469 58.703125 102.511719 C 58.402344 102.660156 58.148438 102.941406 57.9375 103.355469 L 57.390625 104.496094 L 60.984375 106.246094 L 60.484375 107.261719 L 51.953125 103.121094 L 53.09375 100.792969 C 53.523438 99.910156 54.042969 99.351563 54.65625 99.121094 C 55.273438 98.894531 55.992188 98.980469 56.8125 99.386719 C 57.355469 99.636719 57.75 99.964844 58 100.371094 C 58.242188 100.769531 58.324219 101.210938 58.25 101.699219 Z M 53.40625 102.574219 L 56.421875 104.042969 L 57.0625 102.730469 C 57.304688 102.222656 57.359375 101.777344 57.234375 101.402344 C 57.101563 101.027344 56.78125 100.722656 56.28125 100.480469 C 55.792969 100.230469 55.359375 100.175781 54.984375 100.308594 C 54.601563 100.433594 54.289063 100.753906 54.046875 101.261719 Z M 57.621094 96.886719 L 58.074219 95.949219 L 64.464844 99.058594 L 64.011719 99.996094 Z M 55.121094 95.683594 L 55.574219 94.746094 L 56.917969 95.402344 L 56.464844 96.339844 Z M 58.710938 94.652344 L 59.195313 93.652344 L 65.414063 94.464844 L 60.929688 90.058594 L 61.429688 89.042969 L 66.773438 94.324219 L 66.148438 95.605469 Z M 67.390625 84.25 L 67.890625 84.484375 L 65.765625 88.84375 C 66.527344 89.15625 67.179688 89.230469 67.71875 89.0625 C 68.257813 88.886719 68.6875 88.484375 69 87.859375 C 69.175781 87.496094 69.296875 87.121094 69.359375 86.734375 C 69.421875 86.351563 69.4375 85.945313 69.40625 85.515625 L 70.40625 86 C 70.40625 86.40625 70.359375 86.808594 70.265625 87.203125 C 70.179688 87.601563 70.050781 87.980469 69.875 88.34375 C 69.425781 89.273438 68.773438 89.859375 67.921875 90.109375 C 67.070313 90.359375 66.132813 90.242188 65.109375 89.75 C 64.070313 89.242188 63.367188 88.585938 63 87.78125 C 62.625 86.96875 62.652344 86.132813 63.078125 85.265625 C 63.453125 84.496094 64.027344 84.015625 64.796875 83.828125 C 65.570313 83.640625 66.433594 83.78125 67.390625 84.25 Z M 66.609375 85.046875 C 66.039063 84.765625 65.511719 84.683594 65.03125 84.796875 C 64.542969 84.914063 64.183594 85.203125 63.953125 85.671875 C 63.695313 86.214844 63.65625 86.726563 63.84375 87.203125 C 64.023438 87.671875 64.402344 88.074219 64.984375 88.40625 Z M 67.796875 78.410156 C 67.683594 78.484375 67.578125 78.578125 67.484375 78.691406 C 67.390625 78.796875 67.308594 78.921875 67.234375 79.066406 C 66.976563 79.609375 66.96875 80.121094 67.21875 80.597656 C 67.460938 81.066406 67.9375 81.472656 68.65625 81.816406 L 72.03125 83.457031 L 71.578125 84.410156 L 65.1875 81.300781 L 65.640625 80.347656 L 66.625 80.832031 C 66.34375 80.449219 66.1875 80.050781 66.15625 79.644531 C 66.117188 79.238281 66.203125 78.808594 66.421875 78.347656 C 66.453125 78.285156 66.496094 78.21875 66.546875 78.144531 C 66.601563 78.074219 66.652344 77.984375 66.703125 77.878906 Z M 67.796875 78.410156 "/>
<path style=" stroke:none;fill-rule:evenodd;fill:rgb(41.960784%,58.039216%,69.019608%);fill-opacity:1;" d="M 30.992188 146.335938 L 31.492188 145.320313 L 34.992188 147.023438 L 36.835938 143.242188 L 33.335938 141.539063 L 33.835938 140.492188 L 42.367188 144.632813 L 41.867188 145.679688 L 37.804688 143.710938 L 35.960938 147.492188 L 40.023438 149.460938 L 39.523438 150.476563 Z M 40.769531 141.46875 L 36.910156 139.59375 L 37.363281 138.65625 L 41.191406 140.53125 C 41.796875 140.824219 42.300781 140.9375 42.707031 140.875 C 43.113281 140.8125 43.414063 140.570313 43.613281 140.140625 C 43.863281 139.632813 43.878906 139.140625 43.660156 138.671875 C 43.449219 138.195313 43.035156 137.804688 42.410156 137.5 L 38.785156 135.734375 L 39.253906 134.78125 L 45.644531 137.890625 L 45.175781 138.84375 L 44.191406 138.359375 C 44.472656 138.789063 44.632813 139.199219 44.675781 139.59375 C 44.714844 139.980469 44.636719 140.375 44.441406 140.78125 C 44.128906 141.4375 43.660156 141.824219 43.035156 141.9375 C 42.410156 142.054688 41.65625 141.898438 40.769531 141.46875 Z M 37.910156 137.15625 Z M 42.992188 129.523438 L 39.523438 127.835938 L 39.992188 126.898438 L 48.882813 131.210938 L 48.414063 132.148438 L 47.460938 131.679688 C 47.742188 132.066406 47.902344 132.457031 47.945313 132.851563 C 47.984375 133.238281 47.902344 133.644531 47.695313 134.070313 C 47.351563 134.769531 46.765625 135.191406 45.945313 135.335938 C 45.113281 135.472656 44.195313 135.296875 43.195313 134.804688 C 42.1875 134.316406 41.476563 133.707031 41.070313 132.976563 C 40.664063 132.238281 40.632813 131.519531 40.976563 130.820313 C 41.1875 130.394531 41.457031 130.078125 41.789063 129.867188 C 42.113281 129.648438 42.515625 129.535156 42.992188 129.523438 Z M 43.664063 133.820313 C 44.4375 134.195313 45.113281 134.347656 45.695313 134.273438 C 46.265625 134.203125 46.671875 133.921875 46.914063 133.429688 C 47.164063 132.921875 47.136719 132.414063 46.835938 131.914063 C 46.53125 131.414063 46 130.976563 45.226563 130.601563 C 44.445313 130.226563 43.769531 130.078125 43.195313 130.148438 C 42.625 130.222656 42.210938 130.515625 41.960938 131.023438 C 41.722656 131.515625 41.753906 132.007813 42.054688 132.507813 C 42.347656 133.007813 42.882813 133.445313 43.664063 133.820313 Z M 45.386719 122.566406 L 46.386719 123.050781 C 46.105469 123.25 45.863281 123.472656 45.652344 123.722656 C 45.433594 123.972656 45.246094 124.253906 45.089844 124.566406 C 44.863281 125.035156 44.773438 125.433594 44.824219 125.753906 C 44.867188 126.066406 45.050781 126.300781 45.371094 126.457031 C 45.613281 126.574219 45.839844 126.578125 46.058594 126.472656 C 46.277344 126.371094 46.582031 126.09375 46.964844 125.644531 L 47.183594 125.378906 C 47.675781 124.777344 48.132813 124.40625 48.558594 124.269531 C 48.988281 124.125 49.457031 124.175781 49.980469 124.425781 C 50.574219 124.71875 50.941406 125.160156 51.089844 125.753906 C 51.234375 126.339844 51.125 127 50.761719 127.738281 C 50.613281 128.042969 50.425781 128.347656 50.199219 128.660156 C 49.96875 128.964844 49.699219 129.265625 49.386719 129.566406 L 48.292969 129.035156 C 48.667969 128.796875 48.988281 128.53125 49.246094 128.238281 C 49.503906 127.949219 49.71875 127.636719 49.886719 127.300781 C 50.105469 126.855469 50.1875 126.46875 50.136719 126.144531 C 50.082031 125.824219 49.902344 125.589844 49.589844 125.441406 C 49.308594 125.308594 49.050781 125.292969 48.808594 125.394531 C 48.570313 125.488281 48.242188 125.796875 47.824219 126.316406 L 47.574219 126.582031 C 47.148438 127.105469 46.730469 127.425781 46.324219 127.550781 C 45.917969 127.675781 45.464844 127.621094 44.964844 127.378906 C 44.371094 127.089844 44.007813 126.671875 43.871094 126.128906 C 43.726563 125.589844 43.824219 124.964844 44.167969 124.253906 C 44.335938 123.910156 44.523438 123.597656 44.730469 123.316406 C 44.941406 123.027344 45.160156 122.777344 45.386719 122.566406 Z M 47.890625 118.800781 C 47.640625 119.3125 47.667969 119.824219 47.96875 120.332031 C 48.273438 120.832031 48.808594 121.269531 49.578125 121.644531 C 50.351563 122.019531 51.023438 122.167969 51.59375 122.082031 C 52.164063 122 52.578125 121.703125 52.828125 121.191406 C 53.066406 120.683594 53.039063 120.175781 52.75 119.675781 C 52.457031 119.167969 51.933594 118.730469 51.171875 118.363281 C 50.414063 118 49.734375 117.855469 49.140625 117.925781 C 48.546875 118 48.132813 118.292969 47.890625 118.800781 Z M 47.015625 118.378906 C 47.414063 117.558594 48.023438 117.058594 48.84375 116.878906 C 49.667969 116.691406 50.605469 116.855469 51.65625 117.363281 C 52.707031 117.875 53.414063 118.511719 53.78125 119.269531 C 54.144531 120.019531 54.128906 120.808594 53.734375 121.628906 C 53.335938 122.453125 52.726563 122.957031 51.90625 123.144531 C 51.085938 123.324219 50.148438 123.15625 49.09375 122.644531 C 48.042969 122.136719 47.335938 121.503906 46.96875 120.753906 C 46.605469 119.996094 46.621094 119.203125 47.015625 118.378906 Z M 54.058594 110.675781 L 57.917969 112.550781 L 57.464844 113.488281 L 53.636719 111.628906 C 53.035156 111.339844 52.527344 111.230469 52.121094 111.300781 C 51.714844 111.375 51.410156 111.621094 51.199219 112.035156 C 50.960938 112.546875 50.949219 113.042969 51.167969 113.519531 C 51.378906 113.988281 51.800781 114.375 52.433594 114.675781 L 56.042969 116.425781 L 55.589844 117.378906 L 49.199219 114.269531 L 49.652344 113.316406 L 50.636719 113.800781 C 50.378906 113.394531 50.226563 112.996094 50.183594 112.597656 C 50.132813 112.203125 50.207031 111.800781 50.402344 111.394531 C 50.714844 110.738281 51.183594 110.347656 51.808594 110.222656 C 52.425781 110.097656 53.175781 110.25 54.058594 110.675781 Z M 58.25 101.699219 C 58.449219 101.523438 58.734375 101.394531 59.109375 101.308594 C 59.484375 101.226563 59.964844 101.195313 60.546875 101.214844 L 63.390625 101.292969 L 62.84375 102.417969 L 60.171875 102.339844 C 59.484375 102.300781 58.996094 102.355469 58.703125 102.511719 C 58.402344 102.660156 58.148438 102.941406 57.9375 103.355469 L 57.390625 104.496094 L 60.984375 106.246094 L 60.484375 107.261719 L 51.953125 103.121094 L 53.09375 100.792969 C 53.523438 99.910156 54.042969 99.351563 54.65625 99.121094 C 55.273438 98.894531 55.992188 98.980469 56.8125 99.386719 C 57.355469 99.636719 57.75 99.964844 58 100.371094 C 58.242188 100.769531 58.324219 101.210938 58.25 101.699219 Z M 53.40625 102.574219 L 56.421875 104.042969 L 57.0625 102.730469 C 57.304688 102.222656 57.359375 101.777344 57.234375 101.402344 C 57.101563 101.027344 56.78125 100.722656 56.28125 100.480469 C 55.792969 100.230469 55.359375 100.175781 54.984375 100.308594 C 54.601563 100.433594 54.289063 100.753906 54.046875 101.261719 Z M 57.621094 96.886719 L 58.074219 95.949219 L 64.464844 99.058594 L 64.011719 99.996094 Z M 55.121094 95.683594 L 55.574219 94.746094 L 56.917969 95.402344 L 56.464844 96.339844 Z M 58.710938 94.652344 L 59.195313 93.652344 L 65.414063 94.464844 L 60.929688 90.058594 L 61.429688 89.042969 L 66.773438 94.324219 L 66.148438 95.605469 Z M 67.390625 84.25 L 67.890625 84.484375 L 65.765625 88.84375 C 66.527344 89.15625 67.179688 89.230469 67.71875 89.0625 C 68.257813 88.886719 68.6875 88.484375 69 87.859375 C 69.175781 87.496094 69.296875 87.121094 69.359375 86.734375 C 69.421875 86.351563 69.4375 85.945313 69.40625 85.515625 L 70.40625 86 C 70.40625 86.40625 70.359375 86.808594 70.265625 87.203125 C 70.179688 87.601563 70.050781 87.980469 69.875 88.34375 C 69.425781 89.273438 68.773438 89.859375 67.921875 90.109375 C 67.070313 90.359375 66.132813 90.242188 65.109375 89.75 C 64.070313 89.242188 63.367188 88.585938 63 87.78125 C 62.625 86.96875 62.652344 86.132813 63.078125 85.265625 C 63.453125 84.496094 64.027344 84.015625 64.796875 83.828125 C 65.570313 83.640625 66.433594 83.78125 67.390625 84.25 Z M 66.609375 85.046875 C 66.039063 84.765625 65.511719 84.683594 65.03125 84.796875 C 64.542969 84.914063 64.183594 85.203125 63.953125 85.671875 C 63.695313 86.214844 63.65625 86.726563 63.84375 87.203125 C 64.023438 87.671875 64.402344 88.074219 64.984375 88.40625 Z M 67.796875 78.410156 C 67.683594 78.484375 67.578125 78.578125 67.484375 78.691406 C 67.390625 78.796875 67.308594 78.921875 67.234375 79.066406 C 66.976563 79.609375 66.96875 80.121094 67.21875 80.597656 C 67.460938 81.066406 67.9375 81.472656 68.65625 81.816406 L 72.03125 83.457031 L 71.578125 84.410156 L 65.1875 81.300781 L 65.640625 80.347656 L 66.625 80.832031 C 66.34375 80.449219 66.1875 80.050781 66.15625 79.644531 C 66.117188 79.238281 66.203125 78.808594 66.421875 78.347656 C 66.453125 78.285156 66.496094 78.21875 66.546875 78.144531 C 66.601563 78.074219 66.652344 77.984375 66.703125 77.878906 Z M 67.796875 78.410156 "/>
</g>
</svg>

