<?xml version="1.0" encoding="UTF-8"?>
<svg xmlns="http://www.w3.org/2000/svg" xmlns:xlink="http://www.w3.org/1999/xlink" width="256pt" height="256pt" viewBox="0 0 256 256" version="1.1">
<g id="surface2">
<rect x="0" y="0" width="256" height="256" style="fill:rgb(94.901961%,93.72549%,91.372549%);fill-opacity:1;stroke:none;"/>
<path style=" stroke:none;fill-rule:evenodd;fill:rgb(79.607843%,84.705882%,76.470588%);fill-opacity:1;" d="M 260 260 L 260 189.394531 L 217 168.953125 L 213.519531 179.398438 L 231.367188 201.164063 L 254.433594 222.925781 L 260 225.058594 Z M 260 260 "/>
<path style=" stroke:none;fill-rule:evenodd;fill:rgb(79.607843%,84.705882%,76.470588%);fill-opacity:1;" d="M -4 48.710938 L 3.917969 49.851563 L 26.277344 58.1875 L 56.652344 57.109375 L 81.03125 55.609375 L 91.90625 52.980469 L 98.152344 54.859375 L 106.152344 59.109375 L 107.652344 56.859375 L 113.394531 53.6875 L 134.070313 55.101563 L 164.433594 59.671875 L 176.511719 40.847656 L 187.175781 19.300781 L 185.871094 -1.703125 L 184.886719 -4 L 260 -4 L 66.515625 -4 L 50.171875 21.257813 L 22.59375 -4 L -4 -4 Z M -4 48.710938 "/>
<path style=" stroke:none;fill-rule:evenodd;fill:rgb(79.607843%,84.705882%,76.470588%);fill-opacity:1;" d="M 160.652344 82.027344 L 163.277344 84.714844 L 171.546875 96.464844 L 173.070313 102.34375 L 177.203125 123.671875 L 195.921875 151.3125 L 240.230469 162.648438 L 260 172.671875 L 260 260 L 260 -4 L 260 89.644531 L 252.546875 97.820313 L 234.886719 107.296875 L 221.246094 101.554688 L 208.894531 95.808594 L 201 86.761719 L 173.285156 70.824219 L 167.542969 70.109375 L 162.621094 72.089844 L 159.359375 74.414063 L 158.921875 77.535156 Z M 160.652344 82.027344 "/>
<path style=" stroke:none;fill-rule:evenodd;fill:rgb(79.607843%,84.705882%,76.470588%);fill-opacity:1;" d="M -4 260 L -4 247.886719 L 9.582031 234.304688 L 102.191406 212.59375 L 162.617188 236.085938 L 260 253.886719 L 260 260 L 260 231.75 L 253.847656 229.128906 L 244.488281 222.378906 L 235.347656 213.671875 L 211.84375 188.753906 L 198.023438 167.097656 L 177.566406 134.453125 L 170.492188 120.742188 L 169.621094 107.25 L 164.398438 95.820313 L 158.960938 87.707031 L 48.535156 100.421875 L -4 116.859375 Z M -4 260 "/>
<path style=" stroke:none;fill-rule:evenodd;fill:rgb(79.607843%,84.705882%,76.470588%);fill-opacity:1;" d="M -4 260 L -4 85.167969 L 4.574219 81.273438 L 159.585938 68.957031 L 159.558594 65.03125 L 129.308594 59.78125 L 117.738281 57.671875 L 113.558594 59.53125 L 109.558594 62.78125 L 105.136719 63.070313 L 102.308594 61.28125 L 94.433594 58.144531 L 82.308594 60.230469 L 64.808594 59.3125 L 45.742188 62.789063 L 20.808594 61.628906 L 9.621094 56.566406 L -3.253906 52.5 L -4 52.394531 Z M -4 260 "/>
<path style=" stroke:none;fill-rule:evenodd;fill:rgb(79.607843%,84.705882%,76.470588%);fill-opacity:1;" d="M 192.222656 72.164063 L 214.011719 91.492188 L 233.011719 99.515625 L 241.292969 96.886719 L 260 81.699219 L 260 30.699219 L 248.464844 14.636719 L 242.347656 -4 L 190.519531 -4 L 192.222656 20.722656 L 173.84375 61.082031 Z M 192.222656 72.164063 "/>
<path style=" stroke:none;fill-rule:evenodd;fill:rgb(79.607843%,84.705882%,76.470588%);fill-opacity:1;" d="M -4 260 L 260 260 L 208.660156 260 L 129.304688 251.59375 L 100.011719 238.382813 L 75.332031 245.777344 L 19.238281 246.566406 L 2.746094 260 Z M -4 260 "/>
<path style=" stroke:none;fill-rule:evenodd;fill:rgb(79.607843%,84.705882%,76.470588%);fill-opacity:1;" d="M -4 116.859375 L 48.535156 100.421875 L 158.960938 87.707031 L 154.960938 79.582031 L 154.960938 75.457031 L 159.585938 68.957031 L 4.574219 81.273438 L -4 85.167969 Z M -4 116.859375 "/>
<path style=" stroke:none;fill-rule:evenodd;fill:rgb(79.607843%,84.705882%,76.470588%);fill-opacity:1;" d="M -4 260 L 2.746094 260 L 19.238281 246.566406 L 75.332031 245.777344 L 100.011719 238.382813 L 129.304688 251.59375 L 208.660156 260 L 260 260 L 260 253.886719 L 162.617188 236.085938 L 102.191406 212.59375 L 9.582031 234.304688 L -4 247.886719 Z M -4 260 "/>
<path style=" stroke:none;fill-rule:evenodd;fill:rgb(79.607843%,84.705882%,76.470588%);fill-opacity:1;" d="M 253.515625 -4 L 260 12.660156 L 260 -4 Z M 253.515625 -4 "/>
<path style=" stroke:none;fill-rule:evenodd;fill:rgb(60%,70.196078%,80%);fill-opacity:1;" d="M -4 -4 L 259 -4 L 259 259 L 259 -4 Z M -4 -4 "/>
<path style="fill:none;stroke-width:1;stroke-linecap:round;stroke-linejoin:round;stroke:rgb(70.196078%,77.647059%,83.137255%);stroke-opacity:1;stroke-miterlimit:10;" d="M -4 -4 L 259 -4 L 259 259 L 259 -4 L -4 -4 "/>
</g>
</svg>

