<?xml version="1.0" encoding="UTF-8"?>
<svg xmlns="http://www.w3.org/2000/svg" xmlns:xlink="http://www.w3.org/1999/xlink" width="256pt" height="256pt" viewBox="0 0 256 256" version="1.1">
<g id="surface2">
<rect x="0" y="0" width="256" height="256" style="fill:rgb(94.901961%,93.72549%,91.372549%);fill-opacity:1;stroke:none;"/>
<path style="fill:none;stroke-width:1;stroke-linecap:round;stroke-linejoin:round;stroke:rgb(100%,100%,100%);stroke-opacity:1;stroke-dasharray:2,3;stroke-miterlimit:10;" d="M 104.96875 56.292969 L 131.8125 40.117188 L 150.3125 23.339844 L 179.132813 -2 "/>
<path style="fill:none;stroke-width:8;stroke-linecap:round;stroke-linejoin:round;stroke:rgb(75.686275%,70.980392%,61.568627%);stroke-opacity:1;stroke-miterlimit:10;" d="M 182.703125 226.949219 L 264 143.597656 "/>
<path style="fill:none;stroke-width:8;stroke-linecap:round;stroke-linejoin:round;stroke:rgb(75.686275%,70.980392%,61.568627%);stroke-opacity:1;stroke-miterlimit:10;" d="M 107.953125 63.878906 L 114.777344 62.464844 L 126.265625 50.15625 L 131.8125 40.117188 "/>
<path style="fill:none;stroke-width:8;stroke-linecap:round;stroke-linejoin:round;stroke:rgb(75.686275%,70.980392%,61.568627%);stroke-opacity:1;stroke-miterlimit:10;" d="M 127.898438 106.089844 L 129.878906 103.855469 L 134.492188 100.582031 L 137.03125 99.605469 L 152.296875 90.003906 L 153.761719 88.746094 L 156.394531 87.960938 L 164.714844 81.882813 L 165.601563 80.214844 L 166.578125 63 "/>
<path style="fill:none;stroke-width:8;stroke-linecap:round;stroke-linejoin:round;stroke:rgb(75.686275%,70.980392%,61.568627%);stroke-opacity:1;stroke-miterlimit:10;" d="M 20.359375 38.824219 L 22.878906 38.351563 L 24.414063 38.886719 L 25.71875 39.488281 L 30.03125 44.238281 L 34.667969 48.519531 L 36.671875 50.15625 L 40.75 52.265625 L 43.894531 53.746094 L 50.699219 55.003906 L 52.46875 54.6875 L 64.332031 51.257813 L 66.800781 50.785156 L 76.121094 50.566406 L 86.910156 50.691406 L 89.355469 50.847656 "/>
<path style="fill:none;stroke-width:8;stroke-linecap:round;stroke-linejoin:round;stroke:rgb(75.686275%,70.980392%,61.568627%);stroke-opacity:1;stroke-miterlimit:10;" d="M 150.429688 179.046875 L 153.296875 176.402344 L 159.074219 168.660156 L 163.433594 162.082031 L 164.738281 159.40625 L 166.089844 155.789063 L 166.371094 153.363281 L 165.925781 150.46875 L 165.019531 148.234375 L 162.246094 144.140625 L 160.472656 141.875 L 157.09375 138.792969 L 151.921875 134.921875 L 149.824219 132.84375 L 148.332031 131.175781 L 146.957031 129.285156 L 145.421875 126.609375 L 142.390625 120.628906 L 139.804688 116.160156 L 137.730469 113.390625 L 134.820313 110.90625 L 127.898438 106.089844 L 124.589844 103.824219 "/>
<path style="fill:none;stroke-width:8;stroke-linecap:round;stroke-linejoin:round;stroke:rgb(75.686275%,70.980392%,61.568627%);stroke-opacity:1;stroke-miterlimit:10;" d="M 89.355469 50.847656 L 99.773438 51.449219 L 101.871094 51.449219 L 104.222656 51.699219 L 106.15625 51.699219 L 108.070313 51.320313 L 109.839844 50.410156 L 111.46875 49.179688 L 113.03125 47.292969 L 125.660156 29.824219 L 128.691406 27.304688 L 134.027344 24.441406 L 137.242188 23.496094 L 140.832031 22.238281 L 143.835938 20.757813 L 148.894531 17.957031 L 165.019531 4.546875 L 172.941406 -2.378906 L 180.234375 -9 "/>
<path style="fill:none;stroke-width:8;stroke-linecap:round;stroke-linejoin:round;stroke:rgb(75.686275%,70.980392%,61.568627%);stroke-opacity:1;stroke-miterlimit:10;" d="M 53.425781 159.753906 L 61.207031 165.105469 L 64.679688 180.558594 L 56.339844 189.402344 L 51.773438 194.972656 L 53.238281 207.121094 L 57.96875 221.316406 L 60.953125 235.511719 L 58.878906 246.402344 L 53.054688 255.746094 L 44.789063 264 "/>
<path style="fill:none;stroke-width:8;stroke-linecap:round;stroke-linejoin:round;stroke:rgb(75.686275%,70.980392%,61.568627%);stroke-opacity:1;stroke-miterlimit:10;" d="M 215.796875 264 L 212.554688 259.683594 L 211.785156 258.863281 L 209.035156 255.90625 L 204.304688 251.308594 L 192.535156 239.003906 L 182.703125 226.949219 L 176.878906 219.835938 L 170.539063 211.527344 L 165.695313 203 L 162.429688 196.925781 L 155.835938 186.066406 L 150.429688 179.046875 L 146.351563 174.765625 L 142.671875 171.398438 L 132.230469 163.75 L 124.683594 158.496094 L 118.042969 153.238281 L 111.097656 147.007813 L 107.414063 143.511719 L 103.640625 139.261719 L 99.375 133.378906 L 93.925781 123.777344 L 91.640625 120.410156 L 88.566406 116.351563 L 81.203125 108.574219 L 69.785156 97.371094 L 57.222656 85.410156 L 49.230469 76.503906 L 39.539063 63 L 32.175781 54.1875 L 20.359375 38.824219 L 14.910156 31.429688 L 10.269531 24.566406 L 0.878906 11.914063 L -4.292969 6.058594 L -5.621094 4.609375 L -9 0.945313 "/>
<path style="fill:none;stroke-width:6;stroke-linecap:round;stroke-linejoin:round;stroke:rgb(100%,100%,100%);stroke-opacity:1;stroke-miterlimit:10;" d="M 182.703125 226.949219 L 264 143.597656 "/>
<path style="fill:none;stroke-width:6;stroke-linecap:round;stroke-linejoin:round;stroke:rgb(100%,100%,100%);stroke-opacity:1;stroke-miterlimit:10;" d="M 107.953125 63.878906 L 114.777344 62.464844 L 126.265625 50.15625 L 131.8125 40.117188 "/>
<path style="fill:none;stroke-width:6;stroke-linecap:round;stroke-linejoin:round;stroke:rgb(100%,100%,100%);stroke-opacity:1;stroke-miterlimit:10;" d="M 127.898438 106.089844 L 129.878906 103.855469 L 134.492188 100.582031 L 137.03125 99.605469 L 152.296875 90.003906 L 153.761719 88.746094 L 156.394531 87.960938 L 164.714844 81.882813 L 165.601563 80.214844 L 166.578125 63 "/>
<path style="fill:none;stroke-width:6;stroke-linecap:round;stroke-linejoin:round;stroke:rgb(100%,100%,100%);stroke-opacity:1;stroke-miterlimit:10;" d="M 20.359375 38.824219 L 22.878906 38.351563 L 24.414063 38.886719 L 25.71875 39.488281 L 30.03125 44.238281 L 34.667969 48.519531 L 36.671875 50.15625 L 40.75 52.265625 L 43.894531 53.746094 L 50.699219 55.003906 L 52.46875 54.6875 L 64.332031 51.257813 L 66.800781 50.785156 L 76.121094 50.566406 L 86.910156 50.691406 L 89.355469 50.847656 "/>
<path style="fill:none;stroke-width:6;stroke-linecap:round;stroke-linejoin:round;stroke:rgb(100%,100%,100%);stroke-opacity:1;stroke-miterlimit:10;" d="M 150.429688 179.046875 L 153.296875 176.402344 L 159.074219 168.660156 L 163.433594 162.082031 L 164.738281 159.40625 L 166.089844 155.789063 L 166.371094 153.363281 L 165.925781 150.46875 L 165.019531 148.234375 L 162.246094 144.140625 L 160.472656 141.875 L 157.09375 138.792969 L 151.921875 134.921875 L 149.824219 132.84375 L 148.332031 131.175781 L 146.957031 129.285156 L 145.421875 126.609375 L 142.390625 120.628906 L 139.804688 116.160156 L 137.730469 113.390625 L 134.820313 110.90625 L 127.898438 106.089844 L 124.589844 103.824219 "/>
<path style="fill:none;stroke-width:6;stroke-linecap:round;stroke-linejoin:round;stroke:rgb(100%,100%,100%);stroke-opacity:1;stroke-miterlimit:10;" d="M 89.355469 50.847656 L 99.773438 51.449219 L 101.871094 51.449219 L 104.222656 51.699219 L 106.15625 51.699219 L 108.070313 51.320313 L 109.839844 50.410156 L 111.46875 49.179688 L 113.03125 47.292969 L 125.660156 29.824219 L 128.691406 27.304688 L 134.027344 24.441406 L 137.242188 23.496094 L 140.832031 22.238281 L 143.835938 20.757813 L 148.894531 17.957031 L 165.019531 4.546875 L 172.941406 -2.378906 L 180.234375 -9 "/>
<path style="fill:none;stroke-width:6;stroke-linecap:round;stroke-linejoin:round;stroke:rgb(100%,100%,100%);stroke-opacity:1;stroke-miterlimit:10;" d="M 53.425781 159.753906 L 61.207031 165.105469 L 64.679688 180.558594 L 56.339844 189.402344 L 51.773438 194.972656 L 53.238281 207.121094 L 57.96875 221.316406 L 60.953125 235.511719 L 58.878906 246.402344 L 53.054688 255.746094 L 44.789063 264 "/>
<path style="fill:none;stroke-width:6;stroke-linecap:round;stroke-linejoin:round;stroke:rgb(100%,100%,100%);stroke-opacity:1;stroke-miterlimit:10;" d="M 215.796875 264 L 212.554688 259.683594 L 211.785156 258.863281 L 209.035156 255.90625 L 204.304688 251.308594 L 192.535156 239.003906 L 182.703125 226.949219 L 176.878906 219.835938 L 170.539063 211.527344 L 165.695313 203 L 162.429688 196.925781 L 155.835938 186.066406 L 150.429688 179.046875 L 146.351563 174.765625 L 142.671875 171.398438 L 132.230469 163.75 L 124.683594 158.496094 L 118.042969 153.238281 L 111.097656 147.007813 L 107.414063 143.511719 L 103.640625 139.261719 L 99.375 133.378906 L 93.925781 123.777344 L 91.640625 120.410156 L 88.566406 116.351563 L 81.203125 108.574219 L 69.785156 97.371094 L 57.222656 85.410156 L 49.230469 76.503906 L 39.539063 63 L 32.175781 54.1875 L 20.359375 38.824219 L 14.910156 31.429688 L 10.269531 24.566406 L 0.878906 11.914063 L -4.292969 6.058594 L -5.621094 4.609375 L -9 0.945313 "/>
<path style="fill:none;stroke-width:3;stroke-linecap:round;stroke-linejoin:round;stroke:rgb(100%,100%,100%);stroke-opacity:1;stroke-miterlimit:10;" d="M 71.46875 93.453125 L 72.1875 94.140625 L 69.90625 96.5 L 72.4375 98.96875 L 74.71875 96.609375 L 75.421875 97.28125 L 69.84375 103.03125 L 69.140625 102.359375 L 71.796875 99.625 L 69.265625 97.15625 L 66.609375 99.890625 L 65.890625 99.203125 Z M 76.773438 105.277344 L 76.429688 105.621094 L 73.507813 102.761719 C 73.058594 103.273438 72.828125 103.765625 72.820313 104.246094 C 72.820313 104.734375 73.027344 105.1875 73.445313 105.605469 C 73.683594 105.84375 73.949219 106.042969 74.242188 106.199219 C 74.53125 106.355469 74.855469 106.480469 75.210938 106.574219 L 74.570313 107.230469 C 74.234375 107.113281 73.917969 106.96875 73.617188 106.792969 C 73.324219 106.613281 73.054688 106.40625 72.804688 106.167969 C 72.1875 105.550781 71.898438 104.871094 71.929688 104.121094 C 71.960938 103.382813 72.308594 102.667969 72.976563 101.980469 C 73.664063 101.285156 74.382813 100.898438 75.132813 100.824219 C 75.882813 100.742188 76.542969 100.988281 77.117188 101.558594 C 77.636719 102.070313 77.867188 102.660156 77.804688 103.324219 C 77.742188 103.980469 77.398438 104.628906 76.773438 105.277344 Z M 76.335938 104.433594 C 76.710938 104.046875 76.917969 103.652344 76.960938 103.246094 C 77 102.832031 76.867188 102.464844 76.554688 102.152344 C 76.199219 101.808594 75.804688 101.644531 75.367188 101.652344 C 74.929688 101.652344 74.5 101.839844 74.085938 102.214844 Z M 79.398438 108.183594 C 78.886719 107.675781 78.464844 107.394531 78.132813 107.339844 C 77.796875 107.277344 77.480469 107.402344 77.179688 107.714844 C 76.9375 107.953125 76.820313 108.21875 76.820313 108.511719 C 76.820313 108.8125 76.945313 109.089844 77.195313 109.339844 C 77.546875 109.691406 77.964844 109.832031 78.445313 109.761719 C 78.933594 109.6875 79.402344 109.425781 79.851563 108.980469 L 80.023438 108.808594 Z M 80.945313 109.152344 L 78.523438 111.589844 L 77.882813 110.964844 L 78.523438 110.324219 C 78.117188 110.4375 77.746094 110.449219 77.414063 110.355469 C 77.078125 110.261719 76.757813 110.0625 76.445313 109.761719 C 76.058594 109.363281 75.867188 108.925781 75.867188 108.449219 C 75.875 107.980469 76.089844 107.542969 76.507813 107.136719 C 76.984375 106.660156 77.484375 106.441406 78.007813 106.480469 C 78.539063 106.523438 79.09375 106.832031 79.679688 107.402344 L 80.554688 108.277344 L 80.632813 108.199219 C 80.953125 107.878906 81.105469 107.535156 81.085938 107.167969 C 81.0625 106.804688 80.882813 106.445313 80.539063 106.089844 C 80.328125 105.882813 80.089844 105.707031 79.820313 105.558594 C 79.546875 105.414063 79.261719 105.300781 78.960938 105.214844 L 79.601563 104.574219 C 79.933594 104.710938 80.230469 104.863281 80.492188 105.027344 C 80.75 105.195313 80.984375 105.382813 81.195313 105.589844 C 81.746094 106.144531 82 106.714844 81.960938 107.308594 C 81.929688 107.894531 81.589844 108.503906 80.945313 109.152344 Z M 85.566406 111.59375 C 85.542969 111.480469 85.503906 111.371094 85.441406 111.265625 C 85.378906 111.164063 85.300781 111.058594 85.207031 110.953125 C 84.851563 110.589844 84.449219 110.433594 84.003906 110.484375 C 83.566406 110.539063 83.097656 110.792969 82.597656 111.25 L 80.300781 113.4375 L 79.675781 112.78125 L 84.050781 108.640625 L 84.675781 109.296875 L 83.988281 109.953125 C 84.371094 109.839844 84.730469 109.828125 85.066406 109.921875 C 85.410156 110.015625 85.726563 110.21875 86.019531 110.53125 C 86.058594 110.574219 86.101563 110.625 86.144531 110.6875 C 86.195313 110.75 86.246094 110.820313 86.300781 110.890625 Z M 88.71875 111.089844 L 87.484375 112.261719 L 88.734375 113.589844 L 88.171875 114.121094 L 86.921875 112.792969 L 84.546875 115.042969 C 84.191406 115.375 84.003906 115.636719 83.984375 115.824219 C 83.960938 116.011719 84.078125 116.238281 84.328125 116.511719 L 84.953125 117.167969 L 84.359375 117.730469 L 83.734375 117.074219 C 83.265625 116.574219 83.046875 116.128906 83.078125 115.746094 C 83.109375 115.359375 83.394531 114.914063 83.9375 114.402344 L 86.3125 112.152344 L 85.859375 111.667969 L 86.421875 111.136719 L 86.875 111.621094 L 88.109375 110.449219 Z M 91.625 117.394531 L 90.890625 117.988281 C 90.847656 117.683594 90.765625 117.417969 90.640625 117.175781 C 90.523438 116.925781 90.378906 116.6875 90.203125 116.457031 C 89.921875 116.113281 89.648438 115.90625 89.390625 115.832031 C 89.140625 115.75 88.898438 115.800781 88.671875 115.988281 C 88.492188 116.136719 88.40625 116.3125 88.40625 116.519531 C 88.40625 116.71875 88.503906 117.042969 88.703125 117.488281 L 88.84375 117.769531 C 89.132813 118.351563 89.253906 118.832031 89.203125 119.207031 C 89.160156 119.589844 88.945313 119.941406 88.5625 120.253906 C 88.132813 120.605469 87.664063 120.730469 87.15625 120.628906 C 86.65625 120.523438 86.1875 120.199219 85.75 119.660156 C 85.5625 119.429688 85.394531 119.175781 85.25 118.894531 C 85.101563 118.621094 84.960938 118.304688 84.828125 117.941406 L 85.609375 117.300781 C 85.679688 117.675781 85.78125 118.011719 85.90625 118.316406 C 86.03125 118.628906 86.191406 118.910156 86.390625 119.160156 C 86.648438 119.480469 86.914063 119.679688 87.1875 119.753906 C 87.457031 119.824219 87.703125 119.773438 87.921875 119.597656 C 88.128906 119.429688 88.238281 119.230469 88.25 119.003906 C 88.257813 118.785156 88.140625 118.425781 87.890625 117.925781 L 87.78125 117.628906 C 87.519531 117.121094 87.414063 116.6875 87.46875 116.332031 C 87.519531 115.980469 87.726563 115.65625 88.09375 115.363281 C 88.53125 115 88.976563 114.859375 89.4375 114.941406 C 89.90625 115.027344 90.347656 115.328125 90.765625 115.847656 C 90.972656 116.097656 91.148438 116.355469 91.296875 116.613281 C 91.441406 116.875 91.550781 117.136719 91.625 117.394531 Z M 98.734375 125.378906 L 97.75 125.972656 C 97.863281 125.503906 97.894531 125.070313 97.84375 124.675781 C 97.800781 124.277344 97.671875 123.902344 97.453125 123.550781 C 97.023438 122.84375 96.457031 122.441406 95.75 122.347656 C 95.039063 122.253906 94.234375 122.484375 93.328125 123.035156 C 92.429688 123.589844 91.851563 124.195313 91.59375 124.863281 C 91.34375 125.539063 91.429688 126.230469 91.859375 126.941406 C 92.078125 127.292969 92.351563 127.582031 92.6875 127.800781 C 93.03125 128.027344 93.4375 128.199219 93.90625 128.316406 L 92.9375 128.894531 C 92.539063 128.738281 92.1875 128.527344 91.875 128.269531 C 91.5625 128.007813 91.289063 127.695313 91.0625 127.332031 C 90.5 126.394531 90.375 125.464844 90.6875 124.550781 C 91.007813 123.636719 91.71875 122.84375 92.8125 122.175781 C 93.914063 121.511719 94.945313 121.25 95.90625 121.394531 C 96.863281 121.542969 97.625 122.082031 98.1875 123.019531 C 98.414063 123.394531 98.570313 123.773438 98.65625 124.160156 C 98.75 124.554688 98.773438 124.960938 98.734375 125.378906 Z M 98.753906 129.585938 C 98.511719 129.171875 98.144531 128.945313 97.644531 128.914063 C 97.144531 128.875 96.582031 129.03125 95.957031 129.382813 C 95.332031 129.734375 94.902344 130.132813 94.675781 130.570313 C 94.457031 131.015625 94.464844 131.449219 94.707031 131.867188 C 94.945313 132.28125 95.308594 132.507813 95.800781 132.539063 C 96.300781 132.578125 96.863281 132.421875 97.488281 132.070313 C 98.113281 131.714844 98.539063 131.3125 98.769531 130.867188 C 98.996094 130.429688 98.992188 130 98.753906 129.585938 Z M 99.472656 129.164063 C 99.847656 129.828125 99.898438 130.492188 99.628906 131.148438 C 99.367188 131.8125 98.804688 132.390625 97.941406 132.882813 C 97.085938 133.371094 96.304688 133.558594 95.597656 133.445313 C 94.886719 133.339844 94.347656 132.953125 93.972656 132.289063 C 93.585938 131.601563 93.527344 130.929688 93.800781 130.273438 C 94.070313 129.617188 94.632813 129.046875 95.488281 128.554688 C 96.351563 128.066406 97.132813 127.875 97.832031 127.976563 C 98.539063 128.082031 99.085938 128.476563 99.472656 129.164063 Z M 101.910156 137.507813 L 98.957031 139.601563 L 98.441406 138.867188 L 101.378906 136.789063 C 101.847656 136.453125 102.136719 136.125 102.253906 135.804688 C 102.367188 135.480469 102.308594 135.160156 102.082031 134.835938 C 101.800781 134.441406 101.441406 134.234375 101.003906 134.210938 C 100.566406 134.179688 100.105469 134.332031 99.628906 134.664063 L 96.847656 136.632813 L 96.332031 135.898438 L 101.238281 132.414063 L 101.753906 133.148438 L 100.988281 133.695313 C 101.414063 133.65625 101.777344 133.703125 102.082031 133.835938 C 102.394531 133.960938 102.660156 134.179688 102.878906 134.492188 C 103.230469 134.992188 103.332031 135.496094 103.175781 136.007813 C 103.019531 136.527344 102.597656 137.027344 101.910156 137.507813 Z M 106.722656 137.023438 L 105.410156 138.101563 L 106.582031 139.507813 L 105.988281 139.992188 L 104.816406 138.585938 L 102.285156 140.664063 C 101.910156 140.964844 101.707031 141.203125 101.675781 141.382813 C 101.644531 141.570313 101.746094 141.804688 101.988281 142.085938 L 102.566406 142.789063 L 101.925781 143.320313 L 101.347656 142.617188 C 100.910156 142.085938 100.714844 141.625 100.769531 141.242188 C 100.832031 140.867188 101.148438 140.445313 101.722656 139.976563 L 104.253906 137.898438 L 103.847656 137.382813 L 104.441406 136.898438 L 104.847656 137.414063 L 106.160156 136.335938 Z M 108.457031 145.503906 L 108.113281 145.847656 L 105.285156 142.894531 C 104.824219 143.394531 104.582031 143.882813 104.550781 144.363281 C 104.527344 144.851563 104.722656 145.304688 105.128906 145.722656 C 105.367188 145.972656 105.628906 146.175781 105.910156 146.332031 C 106.199219 146.496094 106.519531 146.636719 106.863281 146.753906 L 106.191406 147.394531 C 105.867188 147.269531 105.558594 147.113281 105.269531 146.925781 C 104.988281 146.738281 104.726563 146.519531 104.488281 146.269531 C 103.882813 145.644531 103.605469 144.957031 103.660156 144.207031 C 103.710938 143.457031 104.082031 142.75 104.769531 142.082031 C 105.476563 141.40625 106.207031 141.042969 106.957031 140.988281 C 107.707031 140.9375 108.363281 141.203125 108.925781 141.785156 C 109.425781 142.316406 109.632813 142.917969 109.550781 143.582031 C 109.464844 144.246094 109.101563 144.886719 108.457031 145.503906 Z M 108.066406 144.660156 C 108.441406 144.273438 108.652344 143.878906 108.707031 143.472656 C 108.769531 143.058594 108.648438 142.691406 108.347656 142.378906 C 107.992188 142.015625 107.597656 141.832031 107.160156 141.832031 C 106.730469 141.832031 106.300781 142.011719 105.863281 142.363281 Z M 113.136719 149.316406 L 110.683594 151.988281 L 110.027344 151.394531 L 112.449219 148.738281 C 112.84375 148.320313 113.058594 147.941406 113.089844 147.597656 C 113.128906 147.246094 113.003906 146.9375 112.714844 146.675781 C 112.359375 146.355469 111.964844 146.222656 111.527344 146.285156 C 111.097656 146.347656 110.6875 146.59375 110.292969 147.019531 L 107.996094 149.535156 L 107.324219 148.925781 L 111.386719 144.488281 L 112.058594 145.097656 L 111.433594 145.785156 C 111.828125 145.660156 112.1875 145.628906 112.511719 145.691406 C 112.84375 145.753906 113.152344 145.917969 113.433594 146.175781 C 113.890625 146.59375 114.09375 147.066406 114.042969 147.597656 C 114 148.128906 113.699219 148.699219 113.136719 149.316406 Z M 117.828125 148.042969 L 116.6875 149.308594 L 118.046875 150.542969 L 117.53125 151.121094 L 116.171875 149.886719 L 114 152.308594 C 113.664063 152.671875 113.492188 152.949219 113.484375 153.136719 C 113.484375 153.332031 113.625 153.558594 113.90625 153.808594 L 114.578125 154.417969 L 114.03125 155.027344 L 113.359375 154.417969 C 112.847656 153.957031 112.59375 153.53125 112.59375 153.136719 C 112.59375 152.75 112.84375 152.277344 113.34375 151.714844 L 115.515625 149.292969 L 115.03125 148.855469 L 115.546875 148.277344 L 116.03125 148.714844 L 117.171875 147.449219 Z M 122.582031 157.125 C 122.695313 157.324219 122.746094 157.582031 122.738281 157.90625 C 122.738281 158.226563 122.675781 158.632813 122.550781 159.125 L 121.972656 161.453125 L 121.144531 160.796875 L 121.707031 158.609375 C 121.851563 158.046875 121.886719 157.628906 121.816406 157.359375 C 121.753906 157.078125 121.570313 156.820313 121.269531 156.578125 L 120.441406 155.921875 L 118.332031 158.578125 L 117.566406 157.953125 L 122.535156 151.671875 L 124.253906 153.046875 C 124.910156 153.570313 125.273438 154.101563 125.347656 154.640625 C 125.429688 155.183594 125.230469 155.761719 124.753906 156.375 C 124.441406 156.761719 124.097656 157.027344 123.722656 157.171875 C 123.355469 157.308594 122.976563 157.292969 122.582031 157.125 Z M 122.753906 152.984375 L 120.988281 155.21875 L 121.941406 155.96875 C 122.316406 156.273438 122.667969 156.402344 123.003906 156.359375 C 123.347656 156.320313 123.664063 156.117188 123.957031 155.75 C 124.238281 155.386719 124.355469 155.039063 124.316406 154.703125 C 124.285156 154.359375 124.082031 154.039063 123.707031 153.734375 Z M 127.921875 159.132813 C 127.523438 158.863281 127.09375 158.820313 126.625 159.007813 C 126.164063 159.1875 125.734375 159.566406 125.328125 160.148438 C 124.910156 160.742188 124.695313 161.289063 124.6875 161.789063 C 124.675781 162.289063 124.867188 162.671875 125.265625 162.945313 C 125.660156 163.214844 126.085938 163.257813 126.546875 163.070313 C 127.003906 162.890625 127.441406 162.507813 127.859375 161.914063 C 128.265625 161.332031 128.472656 160.789063 128.484375 160.289063 C 128.503906 159.789063 128.316406 159.40625 127.921875 159.132813 Z M 128.390625 158.460938 C 129.023438 158.898438 129.363281 159.472656 129.40625 160.179688 C 129.457031 160.890625 129.203125 161.648438 128.640625 162.460938 C 128.078125 163.273438 127.453125 163.777344 126.765625 163.976563 C 126.078125 164.183594 125.414063 164.070313 124.78125 163.632813 C 124.144531 163.183594 123.804688 162.605469 123.765625 161.898438 C 123.734375 161.191406 124 160.429688 124.5625 159.617188 C 125.125 158.804688 125.742188 158.300781 126.421875 158.101563 C 127.097656 157.894531 127.753906 158.015625 128.390625 158.460938 Z M 131.847656 164.699219 C 131.253906 164.285156 130.789063 164.070313 130.457031 164.058594 C 130.121094 164.050781 129.824219 164.226563 129.566406 164.589844 C 129.367188 164.863281 129.292969 165.144531 129.347656 165.433594 C 129.398438 165.722656 129.570313 165.972656 129.863281 166.183594 C 130.269531 166.472656 130.707031 166.546875 131.175781 166.402344 C 131.644531 166.253906 132.058594 165.921875 132.425781 165.402344 L 132.566406 165.214844 Z M 133.519531 165.402344 L 131.519531 168.199219 L 130.800781 167.683594 L 131.332031 166.949219 C 130.945313 167.125 130.582031 167.191406 130.238281 167.152344 C 129.894531 167.121094 129.539063 166.972656 129.175781 166.714844 C 128.726563 166.402344 128.472656 166.003906 128.410156 165.527344 C 128.347656 165.058594 128.480469 164.589844 128.816406 164.121094 C 129.210938 163.570313 129.667969 163.273438 130.191406 163.230469 C 130.722656 163.179688 131.320313 163.394531 131.988281 163.871094 L 133.003906 164.589844 L 133.066406 164.511719 C 133.324219 164.136719 133.417969 163.773438 133.347656 163.417969 C 133.273438 163.054688 133.035156 162.730469 132.628906 162.449219 C 132.386719 162.273438 132.121094 162.132813 131.832031 162.027344 C 131.539063 161.925781 131.230469 161.863281 130.910156 161.839844 L 131.441406 161.105469 C 131.792969 161.179688 132.117188 161.277344 132.410156 161.402344 C 132.699219 161.519531 132.960938 161.660156 133.191406 161.824219 C 133.824219 162.285156 134.167969 162.808594 134.222656 163.402344 C 134.285156 163.988281 134.050781 164.652344 133.519531 165.402344 Z M 138.847656 167.222656 L 140.769531 164.597656 L 141.488281 165.128906 L 136.550781 171.878906 L 135.832031 171.347656 L 136.363281 170.613281 C 136.007813 170.800781 135.660156 170.878906 135.316406 170.847656 C 134.980469 170.816406 134.660156 170.683594 134.347656 170.457031 C 133.816406 170.058594 133.554688 169.507813 133.566406 168.800781 C 133.574219 168.105469 133.855469 167.371094 134.410156 166.597656 C 134.972656 165.839844 135.589844 165.34375 136.269531 165.113281 C 136.945313 164.886719 137.550781 164.96875 138.082031 165.363281 C 138.394531 165.59375 138.613281 165.863281 138.738281 166.175781 C 138.871094 166.488281 138.910156 166.839844 138.847656 167.222656 Z M 135.160156 167.144531 C 134.730469 167.738281 134.503906 168.277344 134.472656 168.753906 C 134.441406 169.242188 134.613281 169.621094 134.988281 169.894531 C 135.371094 170.175781 135.792969 170.230469 136.253906 170.066406 C 136.722656 169.898438 137.167969 169.519531 137.597656 168.925781 C 138.035156 168.34375 138.261719 167.808594 138.285156 167.316406 C 138.316406 166.816406 138.136719 166.425781 137.753906 166.144531 C 137.378906 165.875 136.960938 165.828125 136.503906 166.003906 C 136.042969 166.183594 135.597656 166.5625 135.160156 167.144531 Z M 135.160156 167.144531 "/>
<path style=" stroke:none;fill-rule:evenodd;fill:rgb(20%,20%,20%);fill-opacity:1;" d="M 71.46875 93.453125 L 72.1875 94.140625 L 69.90625 96.5 L 72.4375 98.96875 L 74.71875 96.609375 L 75.421875 97.28125 L 69.84375 103.03125 L 69.140625 102.359375 L 71.796875 99.625 L 69.265625 97.15625 L 66.609375 99.890625 L 65.890625 99.203125 Z M 76.773438 105.277344 L 76.429688 105.621094 L 73.507813 102.761719 C 73.058594 103.273438 72.828125 103.765625 72.820313 104.246094 C 72.820313 104.734375 73.027344 105.1875 73.445313 105.605469 C 73.683594 105.84375 73.949219 106.042969 74.242188 106.199219 C 74.53125 106.355469 74.855469 106.480469 75.210938 106.574219 L 74.570313 107.230469 C 74.234375 107.113281 73.917969 106.96875 73.617188 106.792969 C 73.324219 106.613281 73.054688 106.40625 72.804688 106.167969 C 72.1875 105.550781 71.898438 104.871094 71.929688 104.121094 C 71.960938 103.382813 72.308594 102.667969 72.976563 101.980469 C 73.664063 101.285156 74.382813 100.898438 75.132813 100.824219 C 75.882813 100.742188 76.542969 100.988281 77.117188 101.558594 C 77.636719 102.070313 77.867188 102.660156 77.804688 103.324219 C 77.742188 103.980469 77.398438 104.628906 76.773438 105.277344 Z M 76.335938 104.433594 C 76.710938 104.046875 76.917969 103.652344 76.960938 103.246094 C 77 102.832031 76.867188 102.464844 76.554688 102.152344 C 76.199219 101.808594 75.804688 101.644531 75.367188 101.652344 C 74.929688 101.652344 74.5 101.839844 74.085938 102.214844 Z M 79.398438 108.183594 C 78.886719 107.675781 78.464844 107.394531 78.132813 107.339844 C 77.796875 107.277344 77.480469 107.402344 77.179688 107.714844 C 76.9375 107.953125 76.820313 108.21875 76.820313 108.511719 C 76.820313 108.8125 76.945313 109.089844 77.195313 109.339844 C 77.546875 109.691406 77.964844 109.832031 78.445313 109.761719 C 78.933594 109.6875 79.402344 109.425781 79.851563 108.980469 L 80.023438 108.808594 Z M 80.945313 109.152344 L 78.523438 111.589844 L 77.882813 110.964844 L 78.523438 110.324219 C 78.117188 110.4375 77.746094 110.449219 77.414063 110.355469 C 77.078125 110.261719 76.757813 110.0625 76.445313 109.761719 C 76.058594 109.363281 75.867188 108.925781 75.867188 108.449219 C 75.875 107.980469 76.089844 107.542969 76.507813 107.136719 C 76.984375 106.660156 77.484375 106.441406 78.007813 106.480469 C 78.539063 106.523438 79.09375 106.832031 79.679688 107.402344 L 80.554688 108.277344 L 80.632813 108.199219 C 80.953125 107.878906 81.105469 107.535156 81.085938 107.167969 C 81.0625 106.804688 80.882813 106.445313 80.539063 106.089844 C 80.328125 105.882813 80.089844 105.707031 79.820313 105.558594 C 79.546875 105.414063 79.261719 105.300781 78.960938 105.214844 L 79.601563 104.574219 C 79.933594 104.710938 80.230469 104.863281 80.492188 105.027344 C 80.75 105.195313 80.984375 105.382813 81.195313 105.589844 C 81.746094 106.144531 82 106.714844 81.960938 107.308594 C 81.929688 107.894531 81.589844 108.503906 80.945313 109.152344 Z M 85.566406 111.59375 C 85.542969 111.480469 85.503906 111.371094 85.441406 111.265625 C 85.378906 111.164063 85.300781 111.058594 85.207031 110.953125 C 84.851563 110.589844 84.449219 110.433594 84.003906 110.484375 C 83.566406 110.539063 83.097656 110.792969 82.597656 111.25 L 80.300781 113.4375 L 79.675781 112.78125 L 84.050781 108.640625 L 84.675781 109.296875 L 83.988281 109.953125 C 84.371094 109.839844 84.730469 109.828125 85.066406 109.921875 C 85.410156 110.015625 85.726563 110.21875 86.019531 110.53125 C 86.058594 110.574219 86.101563 110.625 86.144531 110.6875 C 86.195313 110.75 86.246094 110.820313 86.300781 110.890625 Z M 88.71875 111.089844 L 87.484375 112.261719 L 88.734375 113.589844 L 88.171875 114.121094 L 86.921875 112.792969 L 84.546875 115.042969 C 84.191406 115.375 84.003906 115.636719 83.984375 115.824219 C 83.960938 116.011719 84.078125 116.238281 84.328125 116.511719 L 84.953125 117.167969 L 84.359375 117.730469 L 83.734375 117.074219 C 83.265625 116.574219 83.046875 116.128906 83.078125 115.746094 C 83.109375 115.359375 83.394531 114.914063 83.9375 114.402344 L 86.3125 112.152344 L 85.859375 111.667969 L 86.421875 111.136719 L 86.875 111.621094 L 88.109375 110.449219 Z M 91.625 117.394531 L 90.890625 117.988281 C 90.847656 117.683594 90.765625 117.417969 90.640625 117.175781 C 90.523438 116.925781 90.378906 116.6875 90.203125 116.457031 C 89.921875 116.113281 89.648438 115.90625 89.390625 115.832031 C 89.140625 115.75 88.898438 115.800781 88.671875 115.988281 C 88.492188 116.136719 88.40625 116.3125 88.40625 116.519531 C 88.40625 116.71875 88.503906 117.042969 88.703125 117.488281 L 88.84375 117.769531 C 89.132813 118.351563 89.253906 118.832031 89.203125 119.207031 C 89.160156 119.589844 88.945313 119.941406 88.5625 120.253906 C 88.132813 120.605469 87.664063 120.730469 87.15625 120.628906 C 86.65625 120.523438 86.1875 120.199219 85.75 119.660156 C 85.5625 119.429688 85.394531 119.175781 85.25 118.894531 C 85.101563 118.621094 84.960938 118.304688 84.828125 117.941406 L 85.609375 117.300781 C 85.679688 117.675781 85.78125 118.011719 85.90625 118.316406 C 86.03125 118.628906 86.191406 118.910156 86.390625 119.160156 C 86.648438 119.480469 86.914063 119.679688 87.1875 119.753906 C 87.457031 119.824219 87.703125 119.773438 87.921875 119.597656 C 88.128906 119.429688 88.238281 119.230469 88.25 119.003906 C 88.257813 118.785156 88.140625 118.425781 87.890625 117.925781 L 87.78125 117.628906 C 87.519531 117.121094 87.414063 116.6875 87.46875 116.332031 C 87.519531 115.980469 87.726563 115.65625 88.09375 115.363281 C 88.53125 115 88.976563 114.859375 89.4375 114.941406 C 89.90625 115.027344 90.347656 115.328125 90.765625 115.847656 C 90.972656 116.097656 91.148438 116.355469 91.296875 116.613281 C 91.441406 116.875 91.550781 117.136719 91.625 117.394531 Z M 98.734375 125.378906 L 97.75 125.972656 C 97.863281 125.503906 97.894531 125.070313 97.84375 124.675781 C 97.800781 124.277344 97.671875 123.902344 97.453125 123.550781 C 97.023438 122.84375 96.457031 122.441406 95.75 122.347656 C 95.039063 122.253906 94.234375 122.484375 93.328125 123.035156 C 92.429688 123.589844 91.851563 124.195313 91.59375 124.863281 C 91.34375 125.539063 91.429688 126.230469 91.859375 126.941406 C 92.078125 127.292969 92.351563 127.582031 92.6875 127.800781 C 93.03125 128.027344 93.4375 128.199219 93.90625 128.316406 L 92.9375 128.894531 C 92.539063 128.738281 92.1875 128.527344 91.875 128.269531 C 91.5625 128.007813 91.289063 127.695313 91.0625 127.332031 C 90.5 126.394531 90.375 125.464844 90.6875 124.550781 C 91.007813 123.636719 91.71875 122.84375 92.8125 122.175781 C 93.914063 121.511719 94.945313 121.25 95.90625 121.394531 C 96.863281 121.542969 97.625 122.082031 98.1875 123.019531 C 98.414063 123.394531 98.570313 123.773438 98.65625 124.160156 C 98.75 124.554688 98.773438 124.960938 98.734375 125.378906 Z M 98.753906 129.585938 C 98.511719 129.171875 98.144531 128.945313 97.644531 128.914063 C 97.144531 128.875 96.582031 129.03125 95.957031 129.382813 C 95.332031 129.734375 94.902344 130.132813 94.675781 130.570313 C 94.457031 131.015625 94.464844 131.449219 94.707031 131.867188 C 94.945313 132.28125 95.308594 132.507813 95.800781 132.539063 C 96.300781 132.578125 96.863281 132.421875 97.488281 132.070313 C 98.113281 131.714844 98.539063 131.3125 98.769531 130.867188 C 98.996094 130.429688 98.992188 130 98.753906 129.585938 Z M 99.472656 129.164063 C 99.847656 129.828125 99.898438 130.492188 99.628906 131.148438 C 99.367188 131.8125 98.804688 132.390625 97.941406 132.882813 C 97.085938 133.371094 96.304688 133.558594 95.597656 133.445313 C 94.886719 133.339844 94.347656 132.953125 93.972656 132.289063 C 93.585938 131.601563 93.527344 130.929688 93.800781 130.273438 C 94.070313 129.617188 94.632813 129.046875 95.488281 128.554688 C 96.351563 128.066406 97.132813 127.875 97.832031 127.976563 C 98.539063 128.082031 99.085938 128.476563 99.472656 129.164063 Z M 101.910156 137.507813 L 98.957031 139.601563 L 98.441406 138.867188 L 101.378906 136.789063 C 101.847656 136.453125 102.136719 136.125 102.253906 135.804688 C 102.367188 135.480469 102.308594 135.160156 102.082031 134.835938 C 101.800781 134.441406 101.441406 134.234375 101.003906 134.210938 C 100.566406 134.179688 100.105469 134.332031 99.628906 134.664063 L 96.847656 136.632813 L 96.332031 135.898438 L 101.238281 132.414063 L 101.753906 133.148438 L 100.988281 133.695313 C 101.414063 133.65625 101.777344 133.703125 102.082031 133.835938 C 102.394531 133.960938 102.660156 134.179688 102.878906 134.492188 C 103.230469 134.992188 103.332031 135.496094 103.175781 136.007813 C 103.019531 136.527344 102.597656 137.027344 101.910156 137.507813 Z M 106.722656 137.023438 L 105.410156 138.101563 L 106.582031 139.507813 L 105.988281 139.992188 L 104.816406 138.585938 L 102.285156 140.664063 C 101.910156 140.964844 101.707031 141.203125 101.675781 141.382813 C 101.644531 141.570313 101.746094 141.804688 101.988281 142.085938 L 102.566406 142.789063 L 101.925781 143.320313 L 101.347656 142.617188 C 100.910156 142.085938 100.714844 141.625 100.769531 141.242188 C 100.832031 140.867188 101.148438 140.445313 101.722656 139.976563 L 104.253906 137.898438 L 103.847656 137.382813 L 104.441406 136.898438 L 104.847656 137.414063 L 106.160156 136.335938 Z M 108.457031 145.503906 L 108.113281 145.847656 L 105.285156 142.894531 C 104.824219 143.394531 104.582031 143.882813 104.550781 144.363281 C 104.527344 144.851563 104.722656 145.304688 105.128906 145.722656 C 105.367188 145.972656 105.628906 146.175781 105.910156 146.332031 C 106.199219 146.496094 106.519531 146.636719 106.863281 146.753906 L 106.191406 147.394531 C 105.867188 147.269531 105.558594 147.113281 105.269531 146.925781 C 104.988281 146.738281 104.726563 146.519531 104.488281 146.269531 C 103.882813 145.644531 103.605469 144.957031 103.660156 144.207031 C 103.710938 143.457031 104.082031 142.75 104.769531 142.082031 C 105.476563 141.40625 106.207031 141.042969 106.957031 140.988281 C 107.707031 140.9375 108.363281 141.203125 108.925781 141.785156 C 109.425781 142.316406 109.632813 142.917969 109.550781 143.582031 C 109.464844 144.246094 109.101563 144.886719 108.457031 145.503906 Z M 108.066406 144.660156 C 108.441406 144.273438 108.652344 143.878906 108.707031 143.472656 C 108.769531 143.058594 108.648438 142.691406 108.347656 142.378906 C 107.992188 142.015625 107.597656 141.832031 107.160156 141.832031 C 106.730469 141.832031 106.300781 142.011719 105.863281 142.363281 Z M 113.136719 149.316406 L 110.683594 151.988281 L 110.027344 151.394531 L 112.449219 148.738281 C 112.84375 148.320313 113.058594 147.941406 113.089844 147.597656 C 113.128906 147.246094 113.003906 146.9375 112.714844 146.675781 C 112.359375 146.355469 111.964844 146.222656 111.527344 146.285156 C 111.097656 146.347656 110.6875 146.59375 110.292969 147.019531 L 107.996094 149.535156 L 107.324219 148.925781 L 111.386719 144.488281 L 112.058594 145.097656 L 111.433594 145.785156 C 111.828125 145.660156 112.1875 145.628906 112.511719 145.691406 C 112.84375 145.753906 113.152344 145.917969 113.433594 146.175781 C 113.890625 146.59375 114.09375 147.066406 114.042969 147.597656 C 114 148.128906 113.699219 148.699219 113.136719 149.316406 Z M 117.828125 148.042969 L 116.6875 149.308594 L 118.046875 150.542969 L 117.53125 151.121094 L 116.171875 149.886719 L 114 152.308594 C 113.664063 152.671875 113.492188 152.949219 113.484375 153.136719 C 113.484375 153.332031 113.625 153.558594 113.90625 153.808594 L 114.578125 154.417969 L 114.03125 155.027344 L 113.359375 154.417969 C 112.847656 153.957031 112.59375 153.53125 112.59375 153.136719 C 112.59375 152.75 112.84375 152.277344 113.34375 151.714844 L 115.515625 149.292969 L 115.03125 148.855469 L 115.546875 148.277344 L 116.03125 148.714844 L 117.171875 147.449219 Z M 122.582031 157.125 C 122.695313 157.324219 122.746094 157.582031 122.738281 157.90625 C 122.738281 158.226563 122.675781 158.632813 122.550781 159.125 L 121.972656 161.453125 L 121.144531 160.796875 L 121.707031 158.609375 C 121.851563 158.046875 121.886719 157.628906 121.816406 157.359375 C 121.753906 157.078125 121.570313 156.820313 121.269531 156.578125 L 120.441406 155.921875 L 118.332031 158.578125 L 117.566406 157.953125 L 122.535156 151.671875 L 124.253906 153.046875 C 124.910156 153.570313 125.273438 154.101563 125.347656 154.640625 C 125.429688 155.183594 125.230469 155.761719 124.753906 156.375 C 124.441406 156.761719 124.097656 157.027344 123.722656 157.171875 C 123.355469 157.308594 122.976563 157.292969 122.582031 157.125 Z M 122.753906 152.984375 L 120.988281 155.21875 L 121.941406 155.96875 C 122.316406 156.273438 122.667969 156.402344 123.003906 156.359375 C 123.347656 156.320313 123.664063 156.117188 123.957031 155.75 C 124.238281 155.386719 124.355469 155.039063 124.316406 154.703125 C 124.285156 154.359375 124.082031 154.039063 123.707031 153.734375 Z M 127.921875 159.132813 C 127.523438 158.863281 127.09375 158.820313 126.625 159.007813 C 126.164063 159.1875 125.734375 159.566406 125.328125 160.148438 C 124.910156 160.742188 124.695313 161.289063 124.6875 161.789063 C 124.675781 162.289063 124.867188 162.671875 125.265625 162.945313 C 125.660156 163.214844 126.085938 163.257813 126.546875 163.070313 C 127.003906 162.890625 127.441406 162.507813 127.859375 161.914063 C 128.265625 161.332031 128.472656 160.789063 128.484375 160.289063 C 128.503906 159.789063 128.316406 159.40625 127.921875 159.132813 Z M 128.390625 158.460938 C 129.023438 158.898438 129.363281 159.472656 129.40625 160.179688 C 129.457031 160.890625 129.203125 161.648438 128.640625 162.460938 C 128.078125 163.273438 127.453125 163.777344 126.765625 163.976563 C 126.078125 164.183594 125.414063 164.070313 124.78125 163.632813 C 124.144531 163.183594 123.804688 162.605469 123.765625 161.898438 C 123.734375 161.191406 124 160.429688 124.5625 159.617188 C 125.125 158.804688 125.742188 158.300781 126.421875 158.101563 C 127.097656 157.894531 127.753906 158.015625 128.390625 158.460938 Z M 131.847656 164.699219 C 131.253906 164.285156 130.789063 164.070313 130.457031 164.058594 C 130.121094 164.050781 129.824219 164.226563 129.566406 164.589844 C 129.367188 164.863281 129.292969 165.144531 129.347656 165.433594 C 129.398438 165.722656 129.570313 165.972656 129.863281 166.183594 C 130.269531 166.472656 130.707031 166.546875 131.175781 166.402344 C 131.644531 166.253906 132.058594 165.921875 132.425781 165.402344 L 132.566406 165.214844 Z M 133.519531 165.402344 L 131.519531 168.199219 L 130.800781 167.683594 L 131.332031 166.949219 C 130.945313 167.125 130.582031 167.191406 130.238281 167.152344 C 129.894531 167.121094 129.539063 166.972656 129.175781 166.714844 C 128.726563 166.402344 128.472656 166.003906 128.410156 165.527344 C 128.347656 165.058594 128.480469 164.589844 128.816406 164.121094 C 129.210938 163.570313 129.667969 163.273438 130.191406 163.230469 C 130.722656 163.179688 131.320313 163.394531 131.988281 163.871094 L 133.003906 164.589844 L 133.066406 164.511719 C 133.324219 164.136719 133.417969 163.773438 133.347656 163.417969 C 133.273438 163.054688 133.035156 162.730469 132.628906 162.449219 C 132.386719 162.273438 132.121094 162.132813 131.832031 162.027344 C 131.539063 161.925781 131.230469 161.863281 130.910156 161.839844 L 131.441406 161.105469 C 131.792969 161.179688 132.117188 161.277344 132.410156 161.402344 C 132.699219 161.519531 132.960938 161.660156 133.191406 161.824219 C 133.824219 162.285156 134.167969 162.808594 134.222656 163.402344 C 134.285156 163.988281 134.050781 164.652344 133.519531 165.402344 Z M 138.847656 167.222656 L 140.769531 164.597656 L 141.488281 165.128906 L 136.550781 171.878906 L 135.832031 171.347656 L 136.363281 170.613281 C 136.007813 170.800781 135.660156 170.878906 135.316406 170.847656 C 134.980469 170.816406 134.660156 170.683594 134.347656 170.457031 C 133.816406 170.058594 133.554688 169.507813 133.566406 168.800781 C 133.574219 168.105469 133.855469 167.371094 134.410156 166.597656 C 134.972656 165.839844 135.589844 165.34375 136.269531 165.113281 C 136.945313 164.886719 137.550781 164.96875 138.082031 165.363281 C 138.394531 165.59375 138.613281 165.863281 138.738281 166.175781 C 138.871094 166.488281 138.910156 166.839844 138.847656 167.222656 Z M 135.160156 167.144531 C 134.730469 167.738281 134.503906 168.277344 134.472656 168.753906 C 134.441406 169.242188 134.613281 169.621094 134.988281 169.894531 C 135.371094 170.175781 135.792969 170.230469 136.253906 170.066406 C 136.722656 169.898438 137.167969 169.519531 137.597656 168.925781 C 138.035156 168.34375 138.261719 167.808594 138.285156 167.316406 C 138.316406 166.816406 138.136719 166.425781 137.753906 166.144531 C 137.378906 165.875 136.960938 165.828125 136.503906 166.003906 C 136.042969 166.183594 135.597656 166.5625 135.160156 167.144531 Z M 135.160156 167.144531 "/>
<path style="fill:none;stroke-width:3;stroke-linecap:round;stroke-linejoin:round;stroke:rgb(100%,100%,100%);stroke-opacity:1;stroke-miterlimit:10;" d="M 29.636719 39.011719 L 29.027344 39.980469 C 28.921875 39.511719 28.761719 39.105469 28.542969 38.761719 C 28.324219 38.417969 28.035156 38.136719 27.683594 37.917969 C 26.996094 37.472656 26.3125 37.363281 25.636719 37.589844 C 24.957031 37.820313 24.332031 38.382813 23.761719 39.277344 C 23.199219 40.164063 22.949219 40.964844 23.011719 41.683594 C 23.082031 42.390625 23.464844 42.96875 24.152344 43.417969 C 24.503906 43.636719 24.886719 43.777344 25.292969 43.839844 C 25.699219 43.902344 26.128906 43.878906 26.589844 43.777344 L 25.996094 44.714844 C 25.558594 44.746094 25.140625 44.714844 24.746094 44.621094 C 24.359375 44.527344 23.988281 44.363281 23.636719 44.136719 C 22.707031 43.542969 22.183594 42.765625 22.058594 41.808594 C 21.933594 40.839844 22.214844 39.816406 22.902344 38.730469 C 23.597656 37.648438 24.410156 36.960938 25.339844 36.667969 C 26.265625 36.378906 27.191406 36.527344 28.121094 37.121094 C 28.484375 37.351563 28.792969 37.628906 29.042969 37.949219 C 29.292969 38.261719 29.488281 38.617188 29.636719 39.011719 Z M 29.703125 45.078125 C 29.191406 44.570313 28.769531 44.28125 28.4375 44.21875 C 28.113281 44.15625 27.796875 44.277344 27.484375 44.578125 C 27.242188 44.828125 27.125 45.097656 27.125 45.390625 C 27.125 45.691406 27.25 45.96875 27.5 46.21875 C 27.851563 46.570313 28.269531 46.71875 28.75 46.65625 C 29.238281 46.59375 29.707031 46.335938 30.15625 45.890625 L 30.328125 45.71875 Z M 31.234375 46.0625 L 28.796875 48.484375 L 28.171875 47.859375 L 28.8125 47.21875 C 28.40625 47.320313 28.035156 47.328125 27.703125 47.234375 C 27.367188 47.140625 27.046875 46.9375 26.734375 46.625 C 26.347656 46.238281 26.160156 45.804688 26.171875 45.328125 C 26.191406 44.859375 26.410156 44.417969 26.828125 44 C 27.304688 43.523438 27.8125 43.308594 28.34375 43.359375 C 28.875 43.402344 29.425781 43.714844 30 44.296875 L 30.875 45.1875 L 30.9375 45.125 C 31.257813 44.804688 31.410156 44.460938 31.390625 44.09375 C 31.378906 43.71875 31.203125 43.355469 30.859375 43 C 30.648438 42.792969 30.410156 42.609375 30.140625 42.453125 C 29.878906 42.296875 29.585938 42.183594 29.265625 42.109375 L 29.921875 41.484375 C 30.265625 41.609375 30.566406 41.761719 30.828125 41.9375 C 31.085938 42.105469 31.316406 42.292969 31.515625 42.5 C 32.066406 43.054688 32.320313 43.625 32.28125 44.21875 C 32.238281 44.804688 31.890625 45.414063 31.234375 46.0625 Z M 36.019531 48.222656 C 35.976563 48.097656 35.917969 47.988281 35.847656 47.894531 C 35.785156 47.792969 35.707031 47.691406 35.613281 47.597656 C 35.226563 47.253906 34.808594 47.128906 34.363281 47.222656 C 33.925781 47.316406 33.480469 47.613281 33.035156 48.113281 L 30.910156 50.472656 L 30.238281 49.863281 L 34.269531 45.394531 L 34.941406 46.003906 L 34.316406 46.707031 C 34.699219 46.5625 35.058594 46.519531 35.394531 46.582031 C 35.738281 46.644531 36.070313 46.824219 36.394531 47.113281 C 36.433594 47.15625 36.480469 47.207031 36.535156 47.269531 C 36.585938 47.324219 36.636719 47.386719 36.691406 47.457031 Z M 35.65625 54.570313 C 35.070313 55.058594 34.625 55.328125 34.3125 55.382813 C 34 55.445313 33.671875 55.371094 33.328125 55.164063 L 32.71875 54.804688 L 33.140625 54.117188 L 33.59375 54.382813 C 33.800781 54.507813 33.992188 54.542969 34.171875 54.492188 C 34.347656 54.449219 34.632813 54.273438 35.03125 53.960938 L 35.390625 53.648438 L 36.5625 47.445313 L 37.375 47.929688 L 36.390625 52.820313 L 40.28125 49.664063 L 41.078125 50.148438 Z M 43 48.503906 L 43.8125 48.894531 L 40.203125 56.425781 L 39.390625 56.035156 Z M 47.390625 53.179688 L 48.140625 50.023438 L 49.015625 50.226563 L 47.078125 58.351563 L 46.203125 58.148438 L 46.40625 57.273438 C 46.144531 57.585938 45.851563 57.789063 45.53125 57.882813 C 45.21875 57.984375 44.867188 57.992188 44.484375 57.898438 C 43.847656 57.742188 43.394531 57.335938 43.125 56.679688 C 42.851563 56.023438 42.832031 55.234375 43.0625 54.304688 C 43.28125 53.390625 43.65625 52.695313 44.1875 52.226563 C 44.71875 51.757813 45.300781 51.601563 45.9375 51.757813 C 46.320313 51.851563 46.632813 52.019531 46.875 52.257813 C 47.125 52.488281 47.296875 52.796875 47.390625 53.179688 Z M 43.953125 54.523438 C 43.773438 55.234375 43.769531 55.820313 43.9375 56.289063 C 44.101563 56.75 44.414063 57.03125 44.875 57.132813 C 45.34375 57.246094 45.753906 57.136719 46.109375 56.804688 C 46.460938 56.460938 46.726563 55.9375 46.90625 55.226563 C 47.070313 54.519531 47.070313 53.9375 46.90625 53.476563 C 46.738281 53.007813 46.421875 52.71875 45.953125 52.601563 C 45.492188 52.5 45.085938 52.617188 44.734375 52.960938 C 44.378906 53.296875 44.117188 53.816406 43.953125 54.523438 Z M 52.320313 55.261719 C 51.601563 55.335938 51.109375 55.480469 50.851563 55.699219 C 50.589844 55.917969 50.484375 56.246094 50.539063 56.683594 C 50.570313 57.019531 50.699219 57.277344 50.929688 57.464844 C 51.15625 57.652344 51.449219 57.726563 51.804688 57.683594 C 52.304688 57.632813 52.679688 57.398438 52.929688 56.980469 C 53.1875 56.566406 53.28125 56.039063 53.210938 55.402344 L 53.195313 55.167969 Z M 54.039063 54.667969 L 54.398438 58.089844 L 53.507813 58.183594 L 53.414063 57.277344 C 53.257813 57.664063 53.03125 57.960938 52.742188 58.167969 C 52.460938 58.367188 52.101563 58.492188 51.664063 58.542969 C 51.109375 58.597656 50.652344 58.472656 50.289063 58.167969 C 49.933594 57.855469 49.726563 57.414063 49.664063 56.839844 C 49.589844 56.164063 49.734375 55.632813 50.101563 55.246094 C 50.464844 54.863281 51.054688 54.628906 51.867188 54.542969 L 53.101563 54.402344 L 53.101563 54.308594 C 53.046875 53.863281 52.875 53.527344 52.585938 53.308594 C 52.292969 53.089844 51.902344 53.007813 51.414063 53.058594 C 51.109375 53.089844 50.820313 53.164063 50.539063 53.277344 C 50.257813 53.394531 49.984375 53.542969 49.726563 53.730469 L 49.632813 52.824219 C 49.945313 52.648438 50.246094 52.511719 50.539063 52.417969 C 50.828125 52.316406 51.121094 52.246094 51.414063 52.214844 C 52.195313 52.132813 52.804688 52.292969 53.242188 52.699219 C 53.679688 53.105469 53.945313 53.761719 54.039063 54.667969 Z M 59.074219 57.53125 C 59.03125 58.289063 58.925781 58.804688 58.761719 59.078125 C 58.59375 59.347656 58.316406 59.535156 57.933594 59.640625 L 57.246094 59.84375 L 57.011719 59.0625 L 57.527344 58.921875 C 57.753906 58.847656 57.917969 58.726563 58.011719 58.5625 C 58.105469 58.40625 58.160156 58.078125 58.183594 57.578125 L 58.214844 57.09375 L 54.464844 52.015625 L 55.371094 51.75 L 58.308594 55.796875 L 58.621094 50.8125 L 59.527344 50.546875 Z M 63.761719 47.410156 L 64.746094 47.269531 L 65.777344 54.316406 L 69.246094 53.800781 L 69.371094 54.691406 L 64.917969 55.347656 Z M 72.226563 51.628906 C 71.507813 51.652344 71.011719 51.761719 70.742188 51.957031 C 70.46875 52.144531 70.339844 52.457031 70.351563 52.894531 C 70.359375 53.238281 70.46875 53.515625 70.679688 53.722656 C 70.898438 53.921875 71.183594 54.015625 71.539063 54.003906 C 72.039063 53.996094 72.429688 53.792969 72.710938 53.394531 C 73 53 73.140625 52.484375 73.132813 51.847656 L 73.117188 51.613281 Z M 74.007813 51.175781 L 74.085938 54.613281 L 73.195313 54.644531 L 73.179688 53.738281 C 72.96875 54.105469 72.714844 54.375 72.414063 54.550781 C 72.121094 54.730469 71.757813 54.820313 71.320313 54.832031 C 70.765625 54.851563 70.324219 54.699219 69.992188 54.363281 C 69.65625 54.019531 69.480469 53.558594 69.460938 52.972656 C 69.449219 52.296875 69.640625 51.78125 70.039063 51.425781 C 70.433594 51.074219 71.039063 50.886719 71.851563 50.863281 L 73.101563 50.847656 L 73.101563 50.753906 C 73.089844 50.296875 72.945313 49.949219 72.664063 49.707031 C 72.390625 49.457031 72.011719 49.339844 71.523438 49.347656 C 71.21875 49.359375 70.917969 49.410156 70.617188 49.503906 C 70.324219 49.589844 70.046875 49.71875 69.789063 49.894531 L 69.757813 48.988281 C 70.089844 48.832031 70.40625 48.71875 70.710938 48.644531 C 71.011719 48.5625 71.308594 48.519531 71.601563 48.519531 C 72.382813 48.5 72.96875 48.707031 73.367188 49.144531 C 73.773438 49.582031 73.984375 50.261719 74.007813 51.175781 Z M 80.316406 51 L 80.300781 54.625 L 79.410156 54.609375 L 79.425781 51.015625 C 79.425781 50.445313 79.324219 50.015625 79.128906 49.734375 C 78.929688 49.453125 78.632813 49.3125 78.238281 49.3125 C 77.757813 49.3125 77.378906 49.484375 77.097656 49.828125 C 76.816406 50.164063 76.675781 50.621094 76.675781 51.203125 L 76.660156 54.609375 L 75.753906 54.59375 L 75.785156 48.578125 L 76.691406 48.59375 L 76.691406 49.53125 C 76.898438 49.167969 77.144531 48.898438 77.425781 48.71875 C 77.714844 48.542969 78.054688 48.453125 78.441406 48.453125 C 79.054688 48.453125 79.519531 48.671875 79.832031 49.109375 C 80.152344 49.539063 80.316406 50.167969 80.316406 51 Z M 86.714844 51.453125 L 86.714844 51.9375 L 82.621094 51.875 C 82.652344 52.554688 82.828125 53.074219 83.152344 53.4375 C 83.484375 53.792969 83.941406 53.976563 84.527344 53.984375 C 84.871094 53.996094 85.199219 53.960938 85.511719 53.875 C 85.832031 53.78125 86.15625 53.648438 86.480469 53.46875 L 86.464844 54.390625 C 86.140625 54.546875 85.8125 54.660156 85.480469 54.734375 C 85.144531 54.804688 84.808594 54.835938 84.464844 54.828125 C 83.597656 54.816406 82.917969 54.53125 82.417969 53.96875 C 81.917969 53.40625 81.675781 52.648438 81.699219 51.6875 C 81.707031 50.710938 81.957031 49.933594 82.449219 49.359375 C 82.9375 48.789063 83.589844 48.507813 84.402344 48.515625 C 85.128906 48.527344 85.699219 48.796875 86.105469 49.328125 C 86.519531 49.851563 86.722656 50.558594 86.714844 51.453125 Z M 85.824219 51.140625 C 85.824219 50.601563 85.691406 50.167969 85.433594 49.84375 C 85.183594 49.523438 84.839844 49.355469 84.402344 49.34375 C 83.902344 49.335938 83.496094 49.484375 83.183594 49.796875 C 82.878906 50.101563 82.703125 50.53125 82.652344 51.09375 Z M 85.824219 51.140625 "/>
<path style=" stroke:none;fill-rule:evenodd;fill:rgb(20%,20%,20%);fill-opacity:1;" d="M 29.636719 39.011719 L 29.027344 39.980469 C 28.921875 39.511719 28.761719 39.105469 28.542969 38.761719 C 28.324219 38.417969 28.035156 38.136719 27.683594 37.917969 C 26.996094 37.472656 26.3125 37.363281 25.636719 37.589844 C 24.957031 37.820313 24.332031 38.382813 23.761719 39.277344 C 23.199219 40.164063 22.949219 40.964844 23.011719 41.683594 C 23.082031 42.390625 23.464844 42.96875 24.152344 43.417969 C 24.503906 43.636719 24.886719 43.777344 25.292969 43.839844 C 25.699219 43.902344 26.128906 43.878906 26.589844 43.777344 L 25.996094 44.714844 C 25.558594 44.746094 25.140625 44.714844 24.746094 44.621094 C 24.359375 44.527344 23.988281 44.363281 23.636719 44.136719 C 22.707031 43.542969 22.183594 42.765625 22.058594 41.808594 C 21.933594 40.839844 22.214844 39.816406 22.902344 38.730469 C 23.597656 37.648438 24.410156 36.960938 25.339844 36.667969 C 26.265625 36.378906 27.191406 36.527344 28.121094 37.121094 C 28.484375 37.351563 28.792969 37.628906 29.042969 37.949219 C 29.292969 38.261719 29.488281 38.617188 29.636719 39.011719 Z M 29.703125 45.078125 C 29.191406 44.570313 28.769531 44.28125 28.4375 44.21875 C 28.113281 44.15625 27.796875 44.277344 27.484375 44.578125 C 27.242188 44.828125 27.125 45.097656 27.125 45.390625 C 27.125 45.691406 27.25 45.96875 27.5 46.21875 C 27.851563 46.570313 28.269531 46.71875 28.75 46.65625 C 29.238281 46.59375 29.707031 46.335938 30.15625 45.890625 L 30.328125 45.71875 Z M 31.234375 46.0625 L 28.796875 48.484375 L 28.171875 47.859375 L 28.8125 47.21875 C 28.40625 47.320313 28.035156 47.328125 27.703125 47.234375 C 27.367188 47.140625 27.046875 46.9375 26.734375 46.625 C 26.347656 46.238281 26.160156 45.804688 26.171875 45.328125 C 26.191406 44.859375 26.410156 44.417969 26.828125 44 C 27.304688 43.523438 27.8125 43.308594 28.34375 43.359375 C 28.875 43.402344 29.425781 43.714844 30 44.296875 L 30.875 45.1875 L 30.9375 45.125 C 31.257813 44.804688 31.410156 44.460938 31.390625 44.09375 C 31.378906 43.71875 31.203125 43.355469 30.859375 43 C 30.648438 42.792969 30.410156 42.609375 30.140625 42.453125 C 29.878906 42.296875 29.585938 42.183594 29.265625 42.109375 L 29.921875 41.484375 C 30.265625 41.609375 30.566406 41.761719 30.828125 41.9375 C 31.085938 42.105469 31.316406 42.292969 31.515625 42.5 C 32.066406 43.054688 32.320313 43.625 32.28125 44.21875 C 32.238281 44.804688 31.890625 45.414063 31.234375 46.0625 Z M 36.019531 48.222656 C 35.976563 48.097656 35.917969 47.988281 35.847656 47.894531 C 35.785156 47.792969 35.707031 47.691406 35.613281 47.597656 C 35.226563 47.253906 34.808594 47.128906 34.363281 47.222656 C 33.925781 47.316406 33.480469 47.613281 33.035156 48.113281 L 30.910156 50.472656 L 30.238281 49.863281 L 34.269531 45.394531 L 34.941406 46.003906 L 34.316406 46.707031 C 34.699219 46.5625 35.058594 46.519531 35.394531 46.582031 C 35.738281 46.644531 36.070313 46.824219 36.394531 47.113281 C 36.433594 47.15625 36.480469 47.207031 36.535156 47.269531 C 36.585938 47.324219 36.636719 47.386719 36.691406 47.457031 Z M 35.65625 54.570313 C 35.070313 55.058594 34.625 55.328125 34.3125 55.382813 C 34 55.445313 33.671875 55.371094 33.328125 55.164063 L 32.71875 54.804688 L 33.140625 54.117188 L 33.59375 54.382813 C 33.800781 54.507813 33.992188 54.542969 34.171875 54.492188 C 34.347656 54.449219 34.632813 54.273438 35.03125 53.960938 L 35.390625 53.648438 L 36.5625 47.445313 L 37.375 47.929688 L 36.390625 52.820313 L 40.28125 49.664063 L 41.078125 50.148438 Z M 43 48.503906 L 43.8125 48.894531 L 40.203125 56.425781 L 39.390625 56.035156 Z M 47.390625 53.179688 L 48.140625 50.023438 L 49.015625 50.226563 L 47.078125 58.351563 L 46.203125 58.148438 L 46.40625 57.273438 C 46.144531 57.585938 45.851563 57.789063 45.53125 57.882813 C 45.21875 57.984375 44.867188 57.992188 44.484375 57.898438 C 43.847656 57.742188 43.394531 57.335938 43.125 56.679688 C 42.851563 56.023438 42.832031 55.234375 43.0625 54.304688 C 43.28125 53.390625 43.65625 52.695313 44.1875 52.226563 C 44.71875 51.757813 45.300781 51.601563 45.9375 51.757813 C 46.320313 51.851563 46.632813 52.019531 46.875 52.257813 C 47.125 52.488281 47.296875 52.796875 47.390625 53.179688 Z M 43.953125 54.523438 C 43.773438 55.234375 43.769531 55.820313 43.9375 56.289063 C 44.101563 56.75 44.414063 57.03125 44.875 57.132813 C 45.34375 57.246094 45.753906 57.136719 46.109375 56.804688 C 46.460938 56.460938 46.726563 55.9375 46.90625 55.226563 C 47.070313 54.519531 47.070313 53.9375 46.90625 53.476563 C 46.738281 53.007813 46.421875 52.71875 45.953125 52.601563 C 45.492188 52.5 45.085938 52.617188 44.734375 52.960938 C 44.378906 53.296875 44.117188 53.816406 43.953125 54.523438 Z M 52.320313 55.261719 C 51.601563 55.335938 51.109375 55.480469 50.851563 55.699219 C 50.589844 55.917969 50.484375 56.246094 50.539063 56.683594 C 50.570313 57.019531 50.699219 57.277344 50.929688 57.464844 C 51.15625 57.652344 51.449219 57.726563 51.804688 57.683594 C 52.304688 57.632813 52.679688 57.398438 52.929688 56.980469 C 53.1875 56.566406 53.28125 56.039063 53.210938 55.402344 L 53.195313 55.167969 Z M 54.039063 54.667969 L 54.398438 58.089844 L 53.507813 58.183594 L 53.414063 57.277344 C 53.257813 57.664063 53.03125 57.960938 52.742188 58.167969 C 52.460938 58.367188 52.101563 58.492188 51.664063 58.542969 C 51.109375 58.597656 50.652344 58.472656 50.289063 58.167969 C 49.933594 57.855469 49.726563 57.414063 49.664063 56.839844 C 49.589844 56.164063 49.734375 55.632813 50.101563 55.246094 C 50.464844 54.863281 51.054688 54.628906 51.867188 54.542969 L 53.101563 54.402344 L 53.101563 54.308594 C 53.046875 53.863281 52.875 53.527344 52.585938 53.308594 C 52.292969 53.089844 51.902344 53.007813 51.414063 53.058594 C 51.109375 53.089844 50.820313 53.164063 50.539063 53.277344 C 50.257813 53.394531 49.984375 53.542969 49.726563 53.730469 L 49.632813 52.824219 C 49.945313 52.648438 50.246094 52.511719 50.539063 52.417969 C 50.828125 52.316406 51.121094 52.246094 51.414063 52.214844 C 52.195313 52.132813 52.804688 52.292969 53.242188 52.699219 C 53.679688 53.105469 53.945313 53.761719 54.039063 54.667969 Z M 59.074219 57.53125 C 59.03125 58.289063 58.925781 58.804688 58.761719 59.078125 C 58.59375 59.347656 58.316406 59.535156 57.933594 59.640625 L 57.246094 59.84375 L 57.011719 59.0625 L 57.527344 58.921875 C 57.753906 58.847656 57.917969 58.726563 58.011719 58.5625 C 58.105469 58.40625 58.160156 58.078125 58.183594 57.578125 L 58.214844 57.09375 L 54.464844 52.015625 L 55.371094 51.75 L 58.308594 55.796875 L 58.621094 50.8125 L 59.527344 50.546875 Z M 63.761719 47.410156 L 64.746094 47.269531 L 65.777344 54.316406 L 69.246094 53.800781 L 69.371094 54.691406 L 64.917969 55.347656 Z M 72.226563 51.628906 C 71.507813 51.652344 71.011719 51.761719 70.742188 51.957031 C 70.46875 52.144531 70.339844 52.457031 70.351563 52.894531 C 70.359375 53.238281 70.46875 53.515625 70.679688 53.722656 C 70.898438 53.921875 71.183594 54.015625 71.539063 54.003906 C 72.039063 53.996094 72.429688 53.792969 72.710938 53.394531 C 73 53 73.140625 52.484375 73.132813 51.847656 L 73.117188 51.613281 Z M 74.007813 51.175781 L 74.085938 54.613281 L 73.195313 54.644531 L 73.179688 53.738281 C 72.96875 54.105469 72.714844 54.375 72.414063 54.550781 C 72.121094 54.730469 71.757813 54.820313 71.320313 54.832031 C 70.765625 54.851563 70.324219 54.699219 69.992188 54.363281 C 69.65625 54.019531 69.480469 53.558594 69.460938 52.972656 C 69.449219 52.296875 69.640625 51.78125 70.039063 51.425781 C 70.433594 51.074219 71.039063 50.886719 71.851563 50.863281 L 73.101563 50.847656 L 73.101563 50.753906 C 73.089844 50.296875 72.945313 49.949219 72.664063 49.707031 C 72.390625 49.457031 72.011719 49.339844 71.523438 49.347656 C 71.21875 49.359375 70.917969 49.410156 70.617188 49.503906 C 70.324219 49.589844 70.046875 49.71875 69.789063 49.894531 L 69.757813 48.988281 C 70.089844 48.832031 70.40625 48.71875 70.710938 48.644531 C 71.011719 48.5625 71.308594 48.519531 71.601563 48.519531 C 72.382813 48.5 72.96875 48.707031 73.367188 49.144531 C 73.773438 49.582031 73.984375 50.261719 74.007813 51.175781 Z M 80.316406 51 L 80.300781 54.625 L 79.410156 54.609375 L 79.425781 51.015625 C 79.425781 50.445313 79.324219 50.015625 79.128906 49.734375 C 78.929688 49.453125 78.632813 49.3125 78.238281 49.3125 C 77.757813 49.3125 77.378906 49.484375 77.097656 49.828125 C 76.816406 50.164063 76.675781 50.621094 76.675781 51.203125 L 76.660156 54.609375 L 75.753906 54.59375 L 75.785156 48.578125 L 76.691406 48.59375 L 76.691406 49.53125 C 76.898438 49.167969 77.144531 48.898438 77.425781 48.71875 C 77.714844 48.542969 78.054688 48.453125 78.441406 48.453125 C 79.054688 48.453125 79.519531 48.671875 79.832031 49.109375 C 80.152344 49.539063 80.316406 50.167969 80.316406 51 Z M 86.714844 51.453125 L 86.714844 51.9375 L 82.621094 51.875 C 82.652344 52.554688 82.828125 53.074219 83.152344 53.4375 C 83.484375 53.792969 83.941406 53.976563 84.527344 53.984375 C 84.871094 53.996094 85.199219 53.960938 85.511719 53.875 C 85.832031 53.78125 86.15625 53.648438 86.480469 53.46875 L 86.464844 54.390625 C 86.140625 54.546875 85.8125 54.660156 85.480469 54.734375 C 85.144531 54.804688 84.808594 54.835938 84.464844 54.828125 C 83.597656 54.816406 82.917969 54.53125 82.417969 53.96875 C 81.917969 53.40625 81.675781 52.648438 81.699219 51.6875 C 81.707031 50.710938 81.957031 49.933594 82.449219 49.359375 C 82.9375 48.789063 83.589844 48.507813 84.402344 48.515625 C 85.128906 48.527344 85.699219 48.796875 86.105469 49.328125 C 86.519531 49.851563 86.722656 50.558594 86.714844 51.453125 Z M 85.824219 51.140625 C 85.824219 50.601563 85.691406 50.167969 85.433594 49.84375 C 85.183594 49.523438 84.839844 49.355469 84.402344 49.34375 C 83.902344 49.335938 83.496094 49.484375 83.183594 49.796875 C 82.878906 50.101563 82.703125 50.53125 82.652344 51.09375 Z M 85.824219 51.140625 "/>
</g>
</svg>

