<?xml version="1.0" encoding="UTF-8"?>
<svg xmlns="http://www.w3.org/2000/svg" xmlns:xlink="http://www.w3.org/1999/xlink" width="256pt" height="256pt" viewBox="0 0 256 256" version="1.1">
<g id="surface2">
<rect x="0" y="0" width="256" height="256" style="fill:rgb(94.901961%,93.72549%,91.372549%);fill-opacity:1;stroke:none;"/>
<path style="fill:none;stroke-width:2;stroke-linecap:round;stroke-linejoin:round;stroke:rgb(60%,70.196078%,80%);stroke-opacity:1;stroke-miterlimit:10;" d="M 2.265625 258 L 4.875 253.058594 L 11.128906 256.757813 L 13.820313 258 M 46.613281 258 L 45.820313 256.328125 L 38.996094 247.230469 L 27.050781 242.820313 L 20.371094 237.421875 L 19.234375 224.90625 L 11.984375 205.574219 L 9.28125 196.617188 L 15.535156 191.214844 L 26.910156 193.632813 L 35.582031 194.058594 L 35.867188 187.089844 L 45.675781 156.382813 L 48.523438 119.417969 L 48.234375 101.785156 L 44.824219 98.660156 L 37.429688 98.089844 L 35.441406 93.683594 L 38.996094 88.285156 L 48.523438 86.863281 L 60.039063 87.714844 L 68.851563 87.144531 L 74.253906 74.0625 L 79.941406 54.445313 L 90.746094 47.761719 L 86.765625 37.242188 L 79.214844 28.4375 L 73.453125 24.175781 L 69.972656 12.375 L 76.371094 7.113281 L 87.101563 0.21875 L 92.136719 -3 "/>
<path style="fill:none;stroke-width:1;stroke-linecap:round;stroke-linejoin:round;stroke:rgb(100%,100%,100%);stroke-opacity:1;stroke-dasharray:2,3;stroke-miterlimit:10;" d="M 137.714844 88.664063 L 161.011719 121.863281 L 181.902344 129.261719 L 191.042969 138.402344 L 205.84375 135.789063 L 212.808594 154.503906 L 227.171875 168 L 219.335938 188.460938 L 222.382813 209.785156 L 257 246.34375 "/>
<path style="fill:none;stroke-width:1;stroke-linecap:round;stroke-linejoin:round;stroke:rgb(100%,100%,100%);stroke-opacity:1;stroke-dasharray:2,3;stroke-miterlimit:10;" d="M 128.949219 257 L 127.144531 246.003906 L 127.679688 235.828125 L 130.34375 209.644531 L 132.300781 201.953125 L 131.054688 198.847656 L 132.476563 185.945313 L 142.433594 164.722656 L 147.054688 142.886719 L 147.234375 134.449219 L 139.054688 110.617188 L 139.945313 109.257813 L 137.714844 88.664063 L 137.097656 82.949219 L 141.011719 70.785156 L 147.765625 62.46875 L 150.789063 61.851563 L 155.230469 64.582031 L 160.210938 61.726563 L 160.566406 58.25 L 157.542969 50.0625 L 158.078125 41.871094 L 166.96875 31.695313 L 175.144531 31.074219 L 179.589844 24.746094 L 184.035156 23.75 L 192.210938 19.039063 L 197.367188 19.285156 L 204.121094 15.4375 L 205.1875 16.679688 L 206.078125 7.125 L 212.921875 -2 "/>
</g>
</svg>

