<?xml version="1.0" encoding="UTF-8"?>
<svg xmlns="http://www.w3.org/2000/svg" xmlns:xlink="http://www.w3.org/1999/xlink" width="256pt" height="256pt" viewBox="0 0 256 256" version="1.1">
<g id="surface2">
<rect x="0" y="0" width="256" height="256" style="fill:rgb(94.901961%,93.72549%,91.372549%);fill-opacity:1;stroke:none;"/>
<path style=" stroke:none;fill-rule:evenodd;fill:rgb(60%,70.196078%,80%);fill-opacity:1;" d="M -4 -4 L -4 259 L 259 259 L -4 259 Z M -4 -4 "/>
<path style="fill:none;stroke-width:1;stroke-linecap:round;stroke-linejoin:round;stroke:rgb(70.196078%,77.647059%,83.137255%);stroke-opacity:1;stroke-miterlimit:10;" d="M -4 -4 L -4 259 L 259 259 L -4 259 L -4 -4 "/>
<path style="fill:none;stroke-width:8;stroke-linecap:round;stroke-linejoin:round;stroke:rgb(75.686275%,70.980392%,61.568627%);stroke-opacity:1;stroke-miterlimit:10;" d="M 202.632813 264 L 201.921875 262.621094 L 201.082031 257.910156 L 201.128906 251.613281 L 201.988281 248.96875 L 209.238281 235.15625 L 210.308594 230.539063 L 210.238281 226.570313 L 209.308594 222.792969 L 205.671875 216.984375 L 204.785156 213.273438 L 204.785156 209.886719 L 205.625 203.980469 "/>
<path style="fill:none;stroke-width:8;stroke-linecap:round;stroke-linejoin:round;stroke:rgb(75.686275%,70.980392%,61.568627%);stroke-opacity:1;stroke-miterlimit:10;" d="M 50.457031 264 L 43.609375 258.746094 L 27.832031 245.128906 L 12.40625 233.542969 L -5.441406 221.246094 L -9 218.832031 "/>
<path style="fill:none;stroke-width:6;stroke-linecap:round;stroke-linejoin:round;stroke:rgb(100%,100%,100%);stroke-opacity:1;stroke-miterlimit:10;" d="M 202.632813 264 L 201.921875 262.621094 L 201.082031 257.910156 L 201.128906 251.613281 L 201.988281 248.96875 L 209.238281 235.15625 L 210.308594 230.539063 L 210.238281 226.570313 L 209.308594 222.792969 L 205.671875 216.984375 L 204.785156 213.273438 L 204.785156 209.886719 L 205.625 203.980469 "/>
<path style="fill:none;stroke-width:6;stroke-linecap:round;stroke-linejoin:round;stroke:rgb(100%,99.215686%,54.509804%);stroke-opacity:1;stroke-miterlimit:10;" d="M 50.457031 264 L 43.609375 258.746094 L 27.832031 245.128906 L 12.40625 233.542969 L -5.441406 221.246094 L -9 218.832031 "/>
</g>
</svg>

