<?xml version="1.0" encoding="UTF-8"?>
<svg xmlns="http://www.w3.org/2000/svg" xmlns:xlink="http://www.w3.org/1999/xlink" width="256pt" height="256pt" viewBox="0 0 256 256" version="1.1">
<g id="surface2">
<rect x="0" y="0" width="256" height="256" style="fill:rgb(94.901961%,93.72549%,91.372549%);fill-opacity:1;stroke:none;"/>
<path style=" stroke:none;fill-rule:evenodd;fill:rgb(60%,70.196078%,80%);fill-opacity:1;" d="M -4 -4 L -4 259 L -4 -4 L -4 259 L -4 -4 L -4 259 L -4 -4 L 259 -4 Z M -8238093.878906 5620890.03125 Z M -8238093.878906 5620890.03125 "/>
<path style="fill:none;stroke-width:1;stroke-linecap:round;stroke-linejoin:round;stroke:rgb(70.196078%,77.647059%,83.137255%);stroke-opacity:1;stroke-miterlimit:10;" d="M -4 -4 L -4 259 L -4 -4 L -4 259 L -4 -4 L -4 259 L -4 -4 L 259 -4 L -4 -4 "/>
<path style=" stroke:none;fill-rule:evenodd;fill:rgb(60%,70.196078%,80%);fill-opacity:1;" d="M -4 -4 L -4 259 L -4 -4 L -4 259 L -4 -4 L -4 259 L -4 -4 L 259 -4 Z M -8238093.878906 5620890.03125 Z M -8238093.878906 5620890.03125 "/>
<path style="fill:none;stroke-width:1;stroke-linecap:round;stroke-linejoin:round;stroke:rgb(70.196078%,77.647059%,83.137255%);stroke-opacity:1;stroke-miterlimit:10;" d="M -4 -4 L -4 259 L -4 -4 L -4 259 L -4 -4 L -4 259 L -4 -4 L 259 -4 L -4 -4 "/>
<path style="fill:none;stroke-width:8;stroke-linecap:round;stroke-linejoin:round;stroke:rgb(75.686275%,70.980392%,61.568627%);stroke-opacity:1;stroke-miterlimit:10;" d="M 137.699219 264 L 131.488281 238.402344 L 127.386719 223.378906 L 119.671875 193.199219 L 111.167969 156.230469 L 110.5625 151.453125 L 110.398438 147.960938 L 110.726563 140.742188 L 110.398438 138.765625 L 107.929688 135.570313 "/>
<path style="fill:none;stroke-width:8;stroke-linecap:round;stroke-linejoin:round;stroke:rgb(75.686275%,70.980392%,61.568627%);stroke-opacity:1;stroke-miterlimit:10;" d="M 264 246.464844 L 239.960938 264 "/>
<path style="fill:none;stroke-width:6;stroke-linecap:round;stroke-linejoin:round;stroke:rgb(100%,100%,100%);stroke-opacity:1;stroke-miterlimit:10;" d="M 137.699219 264 L 131.488281 238.402344 L 127.386719 223.378906 L 119.671875 193.199219 L 111.167969 156.230469 L 110.5625 151.453125 L 110.398438 147.960938 L 110.726563 140.742188 L 110.398438 138.765625 L 107.929688 135.570313 "/>
<path style="fill:none;stroke-width:6;stroke-linecap:round;stroke-linejoin:round;stroke:rgb(100%,100%,100%);stroke-opacity:1;stroke-miterlimit:10;" d="M 264 246.464844 L 239.960938 264 "/>
<path style="fill:none;stroke-width:3;stroke-linecap:round;stroke-linejoin:round;stroke:rgb(100%,100%,100%);stroke-opacity:1;stroke-miterlimit:10;" d="M 118.722656 174.464844 C 118.566406 173.765625 118.152344 173.277344 117.488281 172.996094 C 116.820313 172.714844 115.992188 172.6875 115.003906 172.917969 C 114.023438 173.136719 113.292969 173.515625 112.816406 174.058594 C 112.335938 174.609375 112.175781 175.234375 112.332031 175.933594 C 112.488281 176.621094 112.898438 177.09375 113.566406 177.355469 C 114.230469 177.625 115.054688 177.652344 116.035156 177.433594 C 117.023438 177.203125 117.757813 176.824219 118.238281 176.292969 C 118.714844 175.761719 118.878906 175.152344 118.722656 174.464844 Z M 119.597656 174.261719 C 119.824219 175.238281 119.636719 176.105469 119.035156 176.855469 C 118.429688 177.613281 117.507813 178.140625 116.269531 178.433594 C 115.050781 178.714844 114.003906 178.640625 113.128906 178.214844 C 112.253906 177.796875 111.699219 177.097656 111.472656 176.121094 C 111.242188 175.121094 111.425781 174.238281 112.019531 173.480469 C 112.621094 172.730469 113.539063 172.214844 114.769531 171.933594 C 116.007813 171.644531 117.066406 171.710938 117.941406 172.136719 C 118.816406 172.550781 119.367188 173.261719 119.597656 174.261719 Z M 121.234375 182.0625 L 121.53125 183.34375 L 115.71875 187.96875 L 122.25 186.46875 L 122.453125 187.40625 L 114.640625 189.203125 L 114.359375 187.921875 L 120.171875 183.296875 L 113.640625 184.796875 L 113.421875 183.859375 Z M 119.324219 194.828125 L 118.855469 194.9375 L 117.902344 190.953125 C 117.253906 191.148438 116.796875 191.453125 116.527344 191.859375 C 116.265625 192.273438 116.203125 192.765625 116.339844 193.328125 C 116.410156 193.660156 116.527344 193.96875 116.683594 194.25 C 116.847656 194.539063 117.0625 194.828125 117.324219 195.109375 L 116.417969 195.3125 C 116.1875 195.03125 115.996094 194.734375 115.839844 194.421875 C 115.691406 194.117188 115.578125 193.800781 115.496094 193.46875 C 115.296875 192.625 115.40625 191.890625 115.824219 191.265625 C 116.25 190.648438 116.933594 190.234375 117.871094 190.015625 C 118.816406 189.789063 119.625 189.839844 120.292969 190.171875 C 120.96875 190.515625 121.40625 191.078125 121.605469 191.859375 C 121.769531 192.566406 121.652344 193.1875 121.246094 193.71875 C 120.839844 194.25 120.199219 194.617188 119.324219 194.828125 Z M 119.402344 193.890625 C 119.921875 193.753906 120.3125 193.519531 120.574219 193.1875 C 120.832031 192.863281 120.910156 192.488281 120.808594 192.0625 C 120.691406 191.582031 120.441406 191.226563 120.058594 191 C 119.683594 190.78125 119.21875 190.710938 118.667969 190.796875 Z M 122.363281 195.582031 L 122.582031 196.441406 L 116.753906 197.925781 L 116.535156 197.066406 Z M 124.628906 195.003906 L 124.847656 195.863281 L 123.644531 196.160156 L 123.425781 195.300781 Z M 125.308594 197.667969 L 125.527344 198.527344 L 117.433594 200.589844 L 117.214844 199.730469 Z M 123.175781 207.84375 C 123.152344 208.070313 123.039063 208.3125 122.832031 208.5625 C 122.632813 208.8125 122.339844 209.097656 121.957031 209.421875 L 120.066406 210.921875 L 119.816406 209.90625 L 121.582031 208.5 C 122.039063 208.132813 122.324219 207.820313 122.441406 207.5625 C 122.554688 207.300781 122.566406 206.984375 122.472656 206.609375 L 122.207031 205.578125 L 118.925781 206.421875 L 118.675781 205.46875 L 126.441406 203.484375 L 126.988281 205.625 C 127.195313 206.425781 127.164063 207.066406 126.894531 207.546875 C 126.621094 208.035156 126.113281 208.378906 125.363281 208.578125 C 124.871094 208.703125 124.441406 208.703125 124.066406 208.578125 C 123.691406 208.453125 123.394531 208.207031 123.175781 207.84375 Z M 125.832031 204.65625 L 123.066406 205.359375 L 123.363281 206.546875 C 123.488281 207.003906 123.695313 207.320313 123.988281 207.5 C 124.277344 207.675781 124.652344 207.707031 125.113281 207.59375 C 125.558594 207.46875 125.871094 207.257813 126.050781 206.96875 C 126.226563 206.675781 126.253906 206.300781 126.128906 205.84375 Z M 126.050781 212.816406 C 125.933594 212.347656 125.644531 212.027344 125.175781 211.863281 C 124.707031 211.695313 124.121094 211.699219 123.425781 211.878906 C 122.726563 212.066406 122.210938 212.339844 121.878906 212.707031 C 121.554688 213.070313 121.449219 213.488281 121.566406 213.957031 C 121.679688 214.425781 121.972656 214.742188 122.441406 214.910156 C 122.910156 215.074219 123.492188 215.066406 124.191406 214.878906 C 124.886719 214.699219 125.398438 214.429688 125.722656 214.066406 C 126.054688 213.699219 126.164063 213.285156 126.050781 212.816406 Z M 126.863281 212.597656 C 127.050781 213.347656 126.925781 214.003906 126.488281 214.566406 C 126.058594 215.136719 125.367188 215.542969 124.410156 215.785156 C 123.460938 216.035156 122.660156 216.011719 122.003906 215.722656 C 121.347656 215.429688 120.925781 214.910156 120.738281 214.160156 C 120.539063 213.398438 120.660156 212.738281 121.097656 212.175781 C 121.542969 211.621094 122.242188 211.222656 123.191406 210.972656 C 124.148438 210.734375 124.949219 210.753906 125.597656 211.035156 C 126.242188 211.316406 126.664063 211.835938 126.863281 212.597656 Z M 125.421875 219.582031 C 125.242188 218.882813 125.03125 218.425781 124.78125 218.207031 C 124.53125 217.988281 124.191406 217.929688 123.765625 218.035156 C 123.429688 218.117188 123.1875 218.285156 123.03125 218.535156 C 122.882813 218.792969 122.859375 219.097656 122.953125 219.441406 C 123.078125 219.917969 123.363281 220.253906 123.8125 220.441406 C 124.257813 220.636719 124.789063 220.660156 125.40625 220.503906 L 125.640625 220.441406 Z M 126.25 221.222656 L 122.921875 222.066406 L 122.703125 221.191406 L 123.578125 220.972656 C 123.171875 220.855469 122.847656 220.675781 122.609375 220.425781 C 122.367188 220.175781 122.191406 219.835938 122.078125 219.410156 C 121.941406 218.878906 122 218.410156 122.25 218.003906 C 122.5 217.605469 122.910156 217.335938 123.484375 217.191406 C 124.128906 217.027344 124.671875 217.089844 125.109375 217.394531 C 125.546875 217.707031 125.863281 218.257813 126.0625 219.050781 L 126.375 220.253906 L 126.46875 220.222656 C 126.914063 220.105469 127.222656 219.886719 127.390625 219.566406 C 127.566406 219.253906 127.59375 218.863281 127.46875 218.394531 C 127.394531 218.089844 127.28125 217.804688 127.125 217.535156 C 126.976563 217.273438 126.789063 217.03125 126.5625 216.800781 L 127.453125 216.582031 C 127.671875 216.875 127.847656 217.152344 127.984375 217.425781 C 128.128906 217.695313 128.238281 217.972656 128.3125 218.253906 C 128.5 219.011719 128.421875 219.636719 128.078125 220.128906 C 127.742188 220.628906 127.132813 220.992188 126.25 221.222656 Z M 129.261719 225.988281 L 132.402344 225.144531 L 132.636719 226.003906 L 124.558594 228.175781 L 124.324219 227.316406 L 125.199219 227.082031 C 124.792969 226.996094 124.46875 226.839844 124.230469 226.613281 C 123.988281 226.382813 123.816406 226.074219 123.714844 225.691406 C 123.546875 225.054688 123.6875 224.460938 124.136719 223.910156 C 124.59375 223.367188 125.277344 222.972656 126.183594 222.722656 C 127.097656 222.484375 127.890625 222.488281 128.558594 222.738281 C 129.222656 222.976563 129.640625 223.414063 129.808594 224.050781 C 129.910156 224.433594 129.917969 224.785156 129.824219 225.097656 C 129.738281 225.417969 129.550781 225.714844 129.261719 225.988281 Z M 126.417969 223.613281 C 125.71875 223.800781 125.207031 224.074219 124.886719 224.441406 C 124.5625 224.804688 124.457031 225.210938 124.574219 225.660156 C 124.699219 226.128906 124.996094 226.433594 125.464844 226.582031 C 125.933594 226.738281 126.515625 226.722656 127.214844 226.535156 C 127.921875 226.347656 128.4375 226.066406 128.761719 225.691406 C 129.082031 225.324219 129.183594 224.910156 129.058594 224.441406 C 128.941406 223.992188 128.652344 223.695313 128.183594 223.550781 C 127.714844 223.402344 127.125 223.425781 126.417969 223.613281 Z M 126.417969 223.613281 "/>
<path style=" stroke:none;fill-rule:evenodd;fill:rgb(20%,20%,20%);fill-opacity:1;" d="M 118.722656 174.464844 C 118.566406 173.765625 118.152344 173.277344 117.488281 172.996094 C 116.820313 172.714844 115.992188 172.6875 115.003906 172.917969 C 114.023438 173.136719 113.292969 173.515625 112.816406 174.058594 C 112.335938 174.609375 112.175781 175.234375 112.332031 175.933594 C 112.488281 176.621094 112.898438 177.09375 113.566406 177.355469 C 114.230469 177.625 115.054688 177.652344 116.035156 177.433594 C 117.023438 177.203125 117.757813 176.824219 118.238281 176.292969 C 118.714844 175.761719 118.878906 175.152344 118.722656 174.464844 Z M 119.597656 174.261719 C 119.824219 175.238281 119.636719 176.105469 119.035156 176.855469 C 118.429688 177.613281 117.507813 178.140625 116.269531 178.433594 C 115.050781 178.714844 114.003906 178.640625 113.128906 178.214844 C 112.253906 177.796875 111.699219 177.097656 111.472656 176.121094 C 111.242188 175.121094 111.425781 174.238281 112.019531 173.480469 C 112.621094 172.730469 113.539063 172.214844 114.769531 171.933594 C 116.007813 171.644531 117.066406 171.710938 117.941406 172.136719 C 118.816406 172.550781 119.367188 173.261719 119.597656 174.261719 Z M 121.234375 182.0625 L 121.53125 183.34375 L 115.71875 187.96875 L 122.25 186.46875 L 122.453125 187.40625 L 114.640625 189.203125 L 114.359375 187.921875 L 120.171875 183.296875 L 113.640625 184.796875 L 113.421875 183.859375 Z M 119.324219 194.828125 L 118.855469 194.9375 L 117.902344 190.953125 C 117.253906 191.148438 116.796875 191.453125 116.527344 191.859375 C 116.265625 192.273438 116.203125 192.765625 116.339844 193.328125 C 116.410156 193.660156 116.527344 193.96875 116.683594 194.25 C 116.847656 194.539063 117.0625 194.828125 117.324219 195.109375 L 116.417969 195.3125 C 116.1875 195.03125 115.996094 194.734375 115.839844 194.421875 C 115.691406 194.117188 115.578125 193.800781 115.496094 193.46875 C 115.296875 192.625 115.40625 191.890625 115.824219 191.265625 C 116.25 190.648438 116.933594 190.234375 117.871094 190.015625 C 118.816406 189.789063 119.625 189.839844 120.292969 190.171875 C 120.96875 190.515625 121.40625 191.078125 121.605469 191.859375 C 121.769531 192.566406 121.652344 193.1875 121.246094 193.71875 C 120.839844 194.25 120.199219 194.617188 119.324219 194.828125 Z M 119.402344 193.890625 C 119.921875 193.753906 120.3125 193.519531 120.574219 193.1875 C 120.832031 192.863281 120.910156 192.488281 120.808594 192.0625 C 120.691406 191.582031 120.441406 191.226563 120.058594 191 C 119.683594 190.78125 119.21875 190.710938 118.667969 190.796875 Z M 122.363281 195.582031 L 122.582031 196.441406 L 116.753906 197.925781 L 116.535156 197.066406 Z M 124.628906 195.003906 L 124.847656 195.863281 L 123.644531 196.160156 L 123.425781 195.300781 Z M 125.308594 197.667969 L 125.527344 198.527344 L 117.433594 200.589844 L 117.214844 199.730469 Z M 123.175781 207.84375 C 123.152344 208.070313 123.039063 208.3125 122.832031 208.5625 C 122.632813 208.8125 122.339844 209.097656 121.957031 209.421875 L 120.066406 210.921875 L 119.816406 209.90625 L 121.582031 208.5 C 122.039063 208.132813 122.324219 207.820313 122.441406 207.5625 C 122.554688 207.300781 122.566406 206.984375 122.472656 206.609375 L 122.207031 205.578125 L 118.925781 206.421875 L 118.675781 205.46875 L 126.441406 203.484375 L 126.988281 205.625 C 127.195313 206.425781 127.164063 207.066406 126.894531 207.546875 C 126.621094 208.035156 126.113281 208.378906 125.363281 208.578125 C 124.871094 208.703125 124.441406 208.703125 124.066406 208.578125 C 123.691406 208.453125 123.394531 208.207031 123.175781 207.84375 Z M 125.832031 204.65625 L 123.066406 205.359375 L 123.363281 206.546875 C 123.488281 207.003906 123.695313 207.320313 123.988281 207.5 C 124.277344 207.675781 124.652344 207.707031 125.113281 207.59375 C 125.558594 207.46875 125.871094 207.257813 126.050781 206.96875 C 126.226563 206.675781 126.253906 206.300781 126.128906 205.84375 Z M 126.050781 212.816406 C 125.933594 212.347656 125.644531 212.027344 125.175781 211.863281 C 124.707031 211.695313 124.121094 211.699219 123.425781 211.878906 C 122.726563 212.066406 122.210938 212.339844 121.878906 212.707031 C 121.554688 213.070313 121.449219 213.488281 121.566406 213.957031 C 121.679688 214.425781 121.972656 214.742188 122.441406 214.910156 C 122.910156 215.074219 123.492188 215.066406 124.191406 214.878906 C 124.886719 214.699219 125.398438 214.429688 125.722656 214.066406 C 126.054688 213.699219 126.164063 213.285156 126.050781 212.816406 Z M 126.863281 212.597656 C 127.050781 213.347656 126.925781 214.003906 126.488281 214.566406 C 126.058594 215.136719 125.367188 215.542969 124.410156 215.785156 C 123.460938 216.035156 122.660156 216.011719 122.003906 215.722656 C 121.347656 215.429688 120.925781 214.910156 120.738281 214.160156 C 120.539063 213.398438 120.660156 212.738281 121.097656 212.175781 C 121.542969 211.621094 122.242188 211.222656 123.191406 210.972656 C 124.148438 210.734375 124.949219 210.753906 125.597656 211.035156 C 126.242188 211.316406 126.664063 211.835938 126.863281 212.597656 Z M 125.421875 219.582031 C 125.242188 218.882813 125.03125 218.425781 124.78125 218.207031 C 124.53125 217.988281 124.191406 217.929688 123.765625 218.035156 C 123.429688 218.117188 123.1875 218.285156 123.03125 218.535156 C 122.882813 218.792969 122.859375 219.097656 122.953125 219.441406 C 123.078125 219.917969 123.363281 220.253906 123.8125 220.441406 C 124.257813 220.636719 124.789063 220.660156 125.40625 220.503906 L 125.640625 220.441406 Z M 126.25 221.222656 L 122.921875 222.066406 L 122.703125 221.191406 L 123.578125 220.972656 C 123.171875 220.855469 122.847656 220.675781 122.609375 220.425781 C 122.367188 220.175781 122.191406 219.835938 122.078125 219.410156 C 121.941406 218.878906 122 218.410156 122.25 218.003906 C 122.5 217.605469 122.910156 217.335938 123.484375 217.191406 C 124.128906 217.027344 124.671875 217.089844 125.109375 217.394531 C 125.546875 217.707031 125.863281 218.257813 126.0625 219.050781 L 126.375 220.253906 L 126.46875 220.222656 C 126.914063 220.105469 127.222656 219.886719 127.390625 219.566406 C 127.566406 219.253906 127.59375 218.863281 127.46875 218.394531 C 127.394531 218.089844 127.28125 217.804688 127.125 217.535156 C 126.976563 217.273438 126.789063 217.03125 126.5625 216.800781 L 127.453125 216.582031 C 127.671875 216.875 127.847656 217.152344 127.984375 217.425781 C 128.128906 217.695313 128.238281 217.972656 128.3125 218.253906 C 128.5 219.011719 128.421875 219.636719 128.078125 220.128906 C 127.742188 220.628906 127.132813 220.992188 126.25 221.222656 Z M 129.261719 225.988281 L 132.402344 225.144531 L 132.636719 226.003906 L 124.558594 228.175781 L 124.324219 227.316406 L 125.199219 227.082031 C 124.792969 226.996094 124.46875 226.839844 124.230469 226.613281 C 123.988281 226.382813 123.816406 226.074219 123.714844 225.691406 C 123.546875 225.054688 123.6875 224.460938 124.136719 223.910156 C 124.59375 223.367188 125.277344 222.972656 126.183594 222.722656 C 127.097656 222.484375 127.890625 222.488281 128.558594 222.738281 C 129.222656 222.976563 129.640625 223.414063 129.808594 224.050781 C 129.910156 224.433594 129.917969 224.785156 129.824219 225.097656 C 129.738281 225.417969 129.550781 225.714844 129.261719 225.988281 Z M 126.417969 223.613281 C 125.71875 223.800781 125.207031 224.074219 124.886719 224.441406 C 124.5625 224.804688 124.457031 225.210938 124.574219 225.660156 C 124.699219 226.128906 124.996094 226.433594 125.464844 226.582031 C 125.933594 226.738281 126.515625 226.722656 127.214844 226.535156 C 127.921875 226.347656 128.4375 226.066406 128.761719 225.691406 C 129.082031 225.324219 129.183594 224.910156 129.058594 224.441406 C 128.941406 223.992188 128.652344 223.695313 128.183594 223.550781 C 127.714844 223.402344 127.125 223.425781 126.417969 223.613281 Z M 126.417969 223.613281 "/>
</g>
</svg>

