<?xml version="1.0" encoding="UTF-8"?>
<svg xmlns="http://www.w3.org/2000/svg" xmlns:xlink="http://www.w3.org/1999/xlink" width="256pt" height="256pt" viewBox="0 0 256 256" version="1.1">
<g id="surface2">
<rect x="0" y="0" width="256" height="256" style="fill:rgb(60%,70.196078%,80%);fill-opacity:1;stroke:none;"/>
<path style=" stroke:none;fill-rule:evenodd;fill:rgb(94.901961%,93.72549%,91.372549%);fill-opacity:1;" d="M 259 259 L -4 259 L -4 220.484375 L 8.851563 225.113281 L 19.6875 230.246094 L 31.421875 232.515625 L 44.101563 232.324219 L 61.894531 230.8125 L 91 238 L 127 229 L 133 231.5 L 135 241 L 138.132813 251.304688 L 153.34375 256.429688 L 161.507813 259 L 259 259 L 259 166.296875 L 219 190.5 L 183.464844 207.632813 L 164.5 202 L 141.5 191 L 123.5 188 L 88 177.5 L 84.441406 174.542969 L 81.425781 163.820313 L 80.027344 150.4375 L 88.523438 139.65625 L 137.398438 105.710938 L 107.320313 102.828125 L 101.539063 96.644531 L 99.007813 87.332031 L 101.253906 82.152344 L 107.214844 77.546875 L 114.621094 76.421875 L 119.636719 74.511719 L 131.78125 73.625 L 125.964844 64.492188 L 128.273438 63.039063 L 131.882813 67.464844 L 150.386719 54.621094 L 228.441406 6.808594 L 226.09375 1.707031 L 205.179688 14.503906 L 201.636719 9.054688 L 208.71875 5.039063 L 203.96875 -4 L 183.996094 -4 L 102.90625 51.1875 L 88.523438 59.757813 L 89.042969 68.128906 L 88.449219 73.070313 L 85.527344 75.136719 L 82.851563 75.207031 L 80.570313 72.550781 L 80.160156 61.171875 L 78.816406 58.5 L 81.125 54.625 L 138.414063 18.386719 L 125.089844 -4 L 114.464844 -4 L 108.964844 -0.597656 L 106.785156 -4 L -4 -4 L 259 -4 Z M 259 259 "/>
<path style=" stroke:none;fill-rule:evenodd;fill:rgb(70.980392%,82.352941%,61.176471%);fill-opacity:1;" d="M 81.425781 163.820313 L 84.441406 174.542969 L 88 177.5 L 123.5 188 L 141.5 191 L 164.5 202 L 183.464844 207.632813 L 219 190.5 L 247 173.5 L 260 165.648438 L 260 26.59375 L 191.582031 67.898438 L 88.523438 139.65625 L 80.03125 150.441406 Z M 81.425781 163.820313 "/>
<path style=" stroke:none;fill-rule:evenodd;fill:rgb(70.980392%,82.352941%,61.176471%);fill-opacity:1;" d="M 86.019531 243.851563 L 90.671875 246.082031 L 107.578125 260 L 260 260 L 164.683594 260 L 153.34375 256.429688 L 138.132813 251.304688 L 135 241 L 133 231.5 L 127 229 L 91 238 L 73.28125 240.609375 Z M 86.019531 243.851563 "/>
<path style=" stroke:none;fill-rule:evenodd;fill:rgb(94.901961%,93.72549%,91.372549%);fill-opacity:1;" d="M 79.222656 260 L 101.433594 260 L 88.796875 249.476563 L 77.34375 245.984375 Z M 79.222656 260 "/>
<path style="fill:none;stroke-width:1;stroke-linecap:round;stroke-linejoin:round;stroke:rgb(89.019608%,87.058824%,83.137255%);stroke-opacity:1;stroke-miterlimit:10;" d="M 79.222656 260 L 101.433594 260 L 88.796875 249.476563 L 77.34375 245.984375 L 79.222656 260 "/>
<path style=" stroke:none;fill-rule:evenodd;fill:rgb(87.058824%,81.960784%,67.058824%);fill-opacity:1;" d="M 166.34375 97.507813 L 173.882813 110.132813 L 182.226563 113.925781 L 192.921875 114.730469 L 205.226563 106.816406 L 191.050781 81.359375 Z M 166.34375 97.507813 "/>
<path style=" stroke:none;fill-rule:evenodd;fill:rgb(87.058824%,81.960784%,67.058824%);fill-opacity:1;" d="M 250.375 117.878906 L 260 112.195313 L 260 98.164063 L 252.117188 84.816406 L 236.347656 94.125 Z M 250.375 117.878906 "/>
<path style=" stroke:none;fill-rule:evenodd;fill:rgb(87.058824%,82.352941%,67.45098%);fill-opacity:1;" d="M 214.257813 35.398438 L 221.074219 46.636719 L 247.820313 30.417969 L 241.003906 19.175781 Z M 214.257813 35.398438 "/>
<path style=" stroke:none;fill-rule:evenodd;fill:rgb(81.960784%,81.568627%,80.392157%);fill-opacity:1;" d="M 33.460938 257.722656 L 35.847656 257.375 L 36.230469 260 L 49.726563 260 L 47.238281 243.003906 L 45.519531 243.257813 L 46.671875 251.113281 L 32.789063 253.144531 Z M 33.460938 257.722656 "/>
<path style="fill:none;stroke-width:1;stroke-linecap:round;stroke-linejoin:round;stroke:rgb(81.960784%,81.960784%,81.960784%);stroke-opacity:1;stroke-miterlimit:10;" d="M 33.460938 257.722656 L 35.847656 257.375 L 36.230469 260 L 49.726563 260 L 47.238281 243.003906 L 45.519531 243.257813 L 46.671875 251.113281 L 32.789063 253.144531 L 33.460938 257.722656 "/>
<path style="fill:none;stroke-width:1;stroke-linecap:round;stroke-linejoin:round;stroke:rgb(100%,100%,100%);stroke-opacity:1;stroke-dasharray:2,3;stroke-miterlimit:10;" d="M 132.160156 257 L 128.9375 256.082031 L 111.089844 250.996094 L 109.886719 247.472656 L 94.976563 243.425781 L 90.671875 246.082031 "/>
<path style="fill:none;stroke-width:1;stroke-linecap:round;stroke-linejoin:round;stroke:rgb(100%,100%,100%);stroke-opacity:1;stroke-dasharray:2,3;stroke-miterlimit:10;" d="M 187.640625 195.746094 L 188.546875 196.199219 L 192.171875 195.910156 L 195.96875 194.175781 L 199.472656 191.5 L 205.121094 187.496094 L 206.976563 185.3125 L 209.328125 183.332031 L 212.253906 181.1875 L 213.738281 179.292969 L 215.84375 177.808594 L 218.894531 176.777344 L 222.769531 176.074219 L 227.65625 174.671875 L 232.066406 174.167969 L 234.71875 172.648438 L 237.796875 170.285156 L 239.726563 167.34375 L 241.851563 165.65625 L 244.101563 166.46875 L 247.414063 168.28125 L 251.101563 167.21875 L 252.351563 164.65625 L 253.351563 161.15625 L 255.289063 158.71875 L 257 158.496094 "/>
<path style="fill:none;stroke-width:1;stroke-linecap:round;stroke-linejoin:round;stroke:rgb(100%,100%,100%);stroke-opacity:1;stroke-dasharray:2,3;stroke-miterlimit:10;" d="M 178.816406 114.636719 L 169.414063 109.359375 L 165.042969 107.957031 L 154.980469 106.304688 L 147.558594 109.359375 L 139.3125 114.058594 L 133.867188 116.863281 L 126.035156 120.984375 L 123.804688 123.625 L 121.496094 129.316406 L 118.941406 133.519531 L 112.097656 139.214844 L 109.042969 141.933594 L 104.839844 146.636719 L 101.046875 153.644531 L 100.878906 156.777344 L 101.292969 160.078125 L 104.839844 163.785156 L 108.878906 165.355469 L 115.394531 167.828125 L 120.179688 170.546875 L 126.773438 174.261719 L 134.527344 179.703125 L 138.320313 182.675781 L 143.351563 186.300781 L 148.546875 190.425781 L 152.175781 192.816406 L 157.867188 194.960938 L 162.15625 195.785156 L 168.257813 195.867188 L 173.207031 195.949219 L 184.421875 197.023438 L 187.640625 195.746094 "/>
<path style="fill:none;stroke-width:1;stroke-linecap:round;stroke-linejoin:round;stroke:rgb(100%,100%,100%);stroke-opacity:1;stroke-dasharray:2,3;stroke-miterlimit:10;" d="M 257 78.992188 L 233.816406 92.734375 L 231.816406 93.984375 L 229.566406 90.484375 L 211.066406 101.484375 L 212.316406 104.488281 L 208.816406 110.234375 L 205.066406 114.484375 L 200.566406 115.484375 L 191.066406 116.734375 L 180.316406 115.984375 L 173.316406 113.484375 L 166.316406 111.234375 L 160.316406 109.484375 L 153.316406 109.984375 L 150.066406 113.734375 L 148.316406 118.234375 L 150.566406 127.734375 L 171.316406 184.984375 L 173.566406 189.234375 L 176.816406 191.984375 L 180.816406 193.984375 L 183.816406 194.984375 L 192.816406 193.484375 L 196.816406 191.984375 L 201.066406 187.984375 L 239.316406 155.984375 L 243.566406 153.234375 L 249.566406 151.734375 L 257 149.832031 "/>
<path style="fill:none;stroke-width:8;stroke-linecap:round;stroke-linejoin:round;stroke:rgb(75.686275%,70.980392%,61.568627%);stroke-opacity:1;stroke-miterlimit:10;" d="M 179.929688 48.539063 L 182.097656 52.128906 L 191.582031 67.898438 "/>
<path style="fill:none;stroke-width:8;stroke-linecap:round;stroke-linejoin:round;stroke:rgb(75.686275%,70.980392%,61.568627%);stroke-opacity:1;stroke-miterlimit:10;" d="M 141.855469 72.625 L 131.089844 97.203125 "/>
<path style="fill:none;stroke-width:8;stroke-linecap:round;stroke-linejoin:round;stroke:rgb(75.686275%,70.980392%,61.568627%);stroke-opacity:1;stroke-miterlimit:10;" d="M 48.535156 241.140625 L 51.597656 264 "/>
<path style="fill:none;stroke-width:8;stroke-linecap:round;stroke-linejoin:round;stroke:rgb(75.686275%,70.980392%,61.568627%);stroke-opacity:1;stroke-miterlimit:10;" d="M 22.808594 244.445313 L 25.578125 264 "/>
<path style="fill:none;stroke-width:8;stroke-linecap:round;stroke-linejoin:round;stroke:rgb(75.686275%,70.980392%,61.568627%);stroke-opacity:1;stroke-miterlimit:10;" d="M 191.582031 67.898438 L 131.089844 97.203125 "/>
<path style="fill:none;stroke-width:8;stroke-linecap:round;stroke-linejoin:round;stroke:rgb(75.686275%,70.980392%,61.568627%);stroke-opacity:1;stroke-miterlimit:10;" d="M 73.28125 240.609375 L 60.003906 239.265625 L 48.535156 241.140625 L 22.808594 244.445313 L 0.0078125 247.488281 L -2.15625 247.707031 "/>
<path style="fill:none;stroke-width:8;stroke-linecap:round;stroke-linejoin:round;stroke:rgb(75.686275%,70.980392%,61.568627%);stroke-opacity:1;stroke-miterlimit:10;" d="M 263.140625 24.695313 L 191.582031 67.898438 "/>
<path style="fill:none;stroke-width:8;stroke-linecap:round;stroke-linejoin:round;stroke:rgb(75.686275%,70.980392%,61.568627%);stroke-opacity:1;stroke-miterlimit:10;" d="M 177.234375 -9 L 153.113281 5.199219 "/>
<path style="fill:none;stroke-width:8;stroke-linecap:round;stroke-linejoin:round;stroke:rgb(75.686275%,70.980392%,61.568627%);stroke-opacity:1;stroke-miterlimit:10;" d="M 73.28125 240.609375 L 76.519531 264 "/>
<path style="fill:none;stroke-width:8;stroke-linecap:round;stroke-linejoin:round;stroke:rgb(75.686275%,70.980392%,61.568627%);stroke-opacity:1;stroke-miterlimit:10;" d="M -2.777344 243.433594 L -2.15625 247.707031 L -1.078125 255.117188 L 0.207031 264 "/>
<path style="fill:none;stroke-width:8;stroke-linecap:round;stroke-linejoin:round;stroke:rgb(75.686275%,70.980392%,61.568627%);stroke-opacity:1;stroke-miterlimit:10;" d="M 254.191406 0.117188 L 179.929688 48.539063 L 165.738281 57.527344 L 141.855469 72.625 "/>
<path style="fill:none;stroke-width:8;stroke-linecap:round;stroke-linejoin:round;stroke:rgb(75.686275%,70.980392%,61.568627%);stroke-opacity:1;stroke-miterlimit:10;" d="M 250.78125 -9 L 254.191406 0.117188 L 261.976563 21.476563 L 263.140625 24.695313 L 264 26.722656 "/>
<path style="fill:none;stroke-width:8;stroke-linecap:round;stroke-linejoin:round;stroke:rgb(75.686275%,70.980392%,61.568627%);stroke-opacity:1;stroke-miterlimit:10;" d="M 112.433594 264 L 90.671875 246.082031 L 86.019531 243.851563 L 73.28125 240.609375 "/>
<path style="fill:none;stroke-width:6;stroke-linecap:round;stroke-linejoin:round;stroke:rgb(100%,100%,100%);stroke-opacity:1;stroke-miterlimit:10;" d="M 179.929688 48.539063 L 182.097656 52.128906 L 191.582031 67.898438 "/>
<path style="fill:none;stroke-width:6;stroke-linecap:round;stroke-linejoin:round;stroke:rgb(100%,100%,100%);stroke-opacity:1;stroke-miterlimit:10;" d="M 141.855469 72.625 L 131.089844 97.203125 "/>
<path style="fill:none;stroke-width:6;stroke-linecap:round;stroke-linejoin:round;stroke:rgb(100%,100%,100%);stroke-opacity:1;stroke-miterlimit:10;" d="M 48.535156 241.140625 L 51.597656 264 "/>
<path style="fill:none;stroke-width:6;stroke-linecap:round;stroke-linejoin:round;stroke:rgb(100%,100%,100%);stroke-opacity:1;stroke-miterlimit:10;" d="M 22.808594 244.445313 L 25.578125 264 "/>
<path style="fill:none;stroke-width:6;stroke-linecap:round;stroke-linejoin:round;stroke:rgb(100%,100%,100%);stroke-opacity:1;stroke-miterlimit:10;" d="M 191.582031 67.898438 L 131.089844 97.203125 "/>
<path style="fill:none;stroke-width:6;stroke-linecap:round;stroke-linejoin:round;stroke:rgb(100%,100%,100%);stroke-opacity:1;stroke-miterlimit:10;" d="M 73.28125 240.609375 L 60.003906 239.265625 L 48.535156 241.140625 L 22.808594 244.445313 L 0.0078125 247.488281 L -2.15625 247.707031 "/>
<path style="fill:none;stroke-width:6;stroke-linecap:round;stroke-linejoin:round;stroke:rgb(100%,100%,100%);stroke-opacity:1;stroke-miterlimit:10;" d="M 263.140625 24.695313 L 191.582031 67.898438 "/>
<path style="fill:none;stroke-width:6;stroke-linecap:round;stroke-linejoin:round;stroke:rgb(100%,100%,100%);stroke-opacity:1;stroke-miterlimit:10;" d="M 177.234375 -9 L 153.113281 5.199219 "/>
<path style="fill:none;stroke-width:6;stroke-linecap:round;stroke-linejoin:round;stroke:rgb(100%,100%,100%);stroke-opacity:1;stroke-miterlimit:10;" d="M 73.28125 240.609375 L 76.519531 264 "/>
<path style="fill:none;stroke-width:6;stroke-linecap:round;stroke-linejoin:round;stroke:rgb(100%,100%,100%);stroke-opacity:1;stroke-miterlimit:10;" d="M -2.777344 243.433594 L -2.15625 247.707031 L -1.078125 255.117188 L 0.207031 264 "/>
<path style="fill:none;stroke-width:6;stroke-linecap:round;stroke-linejoin:round;stroke:rgb(100%,100%,100%);stroke-opacity:1;stroke-miterlimit:10;" d="M 254.191406 0.117188 L 179.929688 48.539063 L 165.738281 57.527344 L 141.855469 72.625 "/>
<path style="fill:none;stroke-width:6;stroke-linecap:round;stroke-linejoin:round;stroke:rgb(100%,100%,100%);stroke-opacity:1;stroke-miterlimit:10;" d="M 250.78125 -9 L 254.191406 0.117188 L 261.976563 21.476563 L 263.140625 24.695313 L 264 26.722656 "/>
<path style="fill:none;stroke-width:6;stroke-linecap:round;stroke-linejoin:round;stroke:rgb(100%,100%,100%);stroke-opacity:1;stroke-miterlimit:10;" d="M 112.433594 264 L 90.671875 246.082031 L 86.019531 243.851563 L 73.28125 240.609375 "/>
</g>
</svg>

