<?xml version="1.0" encoding="UTF-8"?>
<svg xmlns="http://www.w3.org/2000/svg" xmlns:xlink="http://www.w3.org/1999/xlink" width="256pt" height="256pt" viewBox="0 0 256 256" version="1.1">
<g id="surface2">
<rect x="0" y="0" width="256" height="256" style="fill:rgb(78.431373%,78.431373%,78.431373%);fill-opacity:1;stroke:none;"/>
<path style=" stroke:none;fill-rule:evenodd;fill:rgb(78.431373%,78.431373%,78.431373%);fill-opacity:1;" d="M 16.871094 155.578125 L 16.101563 156.015625 L 17.242188 156.414063 L 24.03125 168.527344 L 23.769531 169.789063 L 32.574219 183.945313 L 32.289063 185.199219 L 43.679688 203.949219 L 43.382813 205.304688 L 47.609375 211.121094 L 41.011719 214.863281 L 40.085938 216.125 L 41.695313 216.144531 L 48.71875 213.046875 L 54.464844 223.433594 L 54.148438 224.699219 L 58.222656 230.1875 L 51.582031 233.863281 L 50.683594 235.230469 L 52.363281 235.207031 L 59.289063 232.132813 L 61.636719 236.308594 L 61.984375 239.984375 L 59.929688 240.222656 L 61.875 255.351563 L 63.90625 255.070313 L 56.277344 256.582031 L 56.429688 258.613281 L 64.210938 257.769531 L 64.351563 259 L 73.007813 259 L 72.402344 254.140625 L 74.410156 253.878906 L 72.488281 238.621094 L 70.566406 238.839844 L 70.164063 235.714844 L 68.335938 232.5 L 77.453125 230.132813 L 77.085938 228.695313 L 75.796875 229.039063 L 68.382813 230.230469 L 67.433594 231.0625 L 59.449219 216.570313 L 66.074219 212.914063 L 66.882813 211.523438 L 65.371094 211.542969 L 58.410156 214.640625 L 50.519531 200.335938 L 37.238281 176.472656 L 44.917969 172.0625 L 44.335938 170.839844 L 43.082031 171.542969 L 36.117188 174.570313 L 28.5625 160.78125 L 31.800781 159.199219 L 34.335938 157.765625 L 35.269531 159.429688 L 38.203125 157.777344 L 33.453125 149.304688 L 30.660156 150.882813 L 33.15625 155.335938 L 27.152344 158.722656 L 22.242188 149.964844 L 43.179688 138.132813 L 43.867188 139.363281 L 45.722656 138.320313 L 45.042969 137.109375 L 56.84375 130.441406 L 57.875 129.859375 L 69.859375 123.09375 L 70.589844 124.398438 L 72.476563 123.332031 L 71.746094 122.027344 L 86.816406 113.632813 L 88.097656 114.390625 L 84.179688 120.832031 L 84.039063 122.472656 L 85.414063 121.632813 L 89.867188 115.449219 L 107.152344 125.753906 L 103.40625 132.289063 L 103.207031 133.816406 L 104.558594 133.042969 L 109.058594 126.816406 L 124.28125 135.902344 L 119.539063 144.011719 L 119.140625 148.796875 L 120.359375 148.953125 L 120.667969 144.917969 L 121.640625 143.144531 L 130.214844 130.449219 L 135.460938 124.589844 L 136.636719 123.441406 L 135.625 122.359375 L 134.496094 123.394531 L 128.6875 128.214844 L 128.359375 129.320313 L 118.363281 123.441406 L 117.65625 121.960938 L 113.207031 120.347656 L 116.996094 113.785156 L 117.113281 112.164063 L 115.5625 112.871094 L 111.101563 119.09375 L 102.316406 113.785156 L 101.847656 112.585938 L 100.601563 112.871094 L 104.453125 106.386719 L 104.617188 104.8125 L 103.277344 105.613281 L 98.816406 111.71875 L 95.953125 110.003906 L 94.496094 108.3125 L 91.820313 107.65625 L 91.371094 106.503906 L 89.140625 106.128906 L 84.582031 108.710938 L 80.824219 102.085938 L 82.515625 101.261719 L 88.859375 105 L 90.003906 102.734375 L 86.464844 100.679688 L 90.058594 99.011719 L 81.464844 83.472656 L 63.015625 93.6875 L 62.355469 92.601563 L 63.261719 92.152344 L 62.3125 90.402344 L 61.03125 91.191406 L 59.511719 88.636719 L 58.75 87.277344 L 20.589844 108.835938 L 21.765625 110.933594 L 22.773438 112.726563 L 21.402344 113.503906 L 22.257813 115.023438 L 23.625 114.25 L 30.863281 127.15625 L 29.066406 128.171875 L 28.164063 126.558594 L 25.183594 128.242188 L 26.085938 129.855469 L 14.917969 136.164063 L 14.011719 134.554688 L 11.140625 136.179688 L 12.035156 137.773438 L 8.125 139.980469 Z M 16.871094 155.578125 "/>
<path style=" stroke:none;fill-rule:evenodd;fill:rgb(78.431373%,78.431373%,78.431373%);fill-opacity:1;" d="M 121.105469 0.832031 L 121.566406 0.457031 L 121.976563 1.53125 L 123.445313 0.949219 L 127.074219 -0.261719 L 130.273438 -1.175781 L 132.648438 -1.648438 L 136.039063 -2.117188 L 137.617188 -2.238281 L 140.476563 -2.355469 L 142.390625 -2.335938 L 144.605469 -2.234375 L 144.21875 1.425781 L 146.765625 1.789063 L 148.296875 2.546875 L 147.070313 9.527344 L 148.714844 9.832031 L 150.457031 10.261719 L 152.007813 10.675781 L 153.941406 11.351563 L 155.652344 12.203125 L 156.957031 12.960938 L 158.34375 9.90625 L 160.546875 11.171875 L 162.890625 12.554688 L 164.945313 13.976563 L 167.292969 15.988281 L 169.089844 17.730469 L 172.035156 20.386719 L 170.046875 22.128906 L 167.214844 24.722656 L 168.8125 26.867188 L 169.414063 28.214844 L 170.292969 29.496094 L 171.609375 31.972656 L 172.550781 34.167969 L 173.769531 37.09375 L 174.859375 40.484375 L 175.402344 43.320313 L 175.867188 46.3125 L 175.964844 48.300781 L 176.058594 51.089844 L 175.933594 53.5 L 175.683594 56.382813 L 175.246094 58.609375 L 174.902344 60.332031 L 174.074219 63.113281 L 173.664063 64.269531 L 173.113281 65.753906 L 171.933594 68.714844 L 173.519531 69.535156 L 174.386719 67.828125 L 175.46875 68.234375 L 174.507813 70.351563 L 173.253906 72.988281 L 177.789063 75.1875 L 180.382813 76.570313 L 181.765625 77.324219 L 183.464844 77.753906 L 185.617188 79.320313 L 189.800781 82.773438 L 190.992188 82.691406 L 193.535156 79.507813 L 197.394531 74.675781 L 205.667969 64.328125 L 206.675781 63.070313 L 218.28125 48.550781 L 233.867188 48.726563 L 245.394531 48.859375 L 256.84375 48.992188 L 259 49.019531 L 259 41.09375 L 253.347656 41.027344 L 243.515625 40.90625 L 235.921875 40.816406 L 228.171875 40.726563 L 219.78125 40.625 L 218.707031 40.613281 L 175.394531 5.675781 L 172.699219 3.515625 L 173.621094 2.214844 L 163.230469 -4 L 129.394531 -4 L 127.96875 -3.644531 L 125.75 -3.0625 L 123.964844 -2.441406 L 121.601563 -1.496094 L 120.253906 -0.949219 L 119.511719 -0.484375 Z M 121.105469 0.832031 "/>
<path style="fill:none;stroke-width:1;stroke-linecap:round;stroke-linejoin:round;stroke:rgb(100%,100%,100%);stroke-opacity:1;stroke-dasharray:2,3;stroke-miterlimit:10;" d="M 119.710938 148.871094 L 128.371094 154.195313 L 129.167969 154.300781 "/>
<path style="fill:none;stroke-width:1;stroke-linecap:round;stroke-linejoin:round;stroke:rgb(100%,100%,100%);stroke-opacity:1;stroke-dasharray:2,3;stroke-miterlimit:10;" d="M 172.121094 68.996094 L 171.1875 69.988281 L 169.84375 71 L 167.390625 72.515625 L 165.753906 73.667969 L 162.96875 75.585938 L 161.371094 76.609375 L 159.359375 77.320313 L 158.613281 79.640625 L 149.496094 78.871094 L 138.640625 76.375 L 113.121094 71.746094 L 106.871094 70.375 L 93.089844 70.527344 L 79.101563 75.589844 "/>
<path style="fill:none;stroke-width:8;stroke-linecap:round;stroke-linejoin:round;stroke:rgb(75.686275%,70.980392%,61.568627%);stroke-opacity:1;stroke-miterlimit:10;" d="M 23.464844 38.976563 L 24.304688 40.671875 L 27.464844 47.03125 "/>
<path style="fill:none;stroke-width:8;stroke-linecap:round;stroke-linejoin:round;stroke:rgb(75.686275%,70.980392%,61.568627%);stroke-opacity:1;stroke-miterlimit:10;" d="M 60.296875 238.714844 L 70.960938 237.394531 L 72.574219 236.730469 L 73.664063 235.757813 "/>
<path style="fill:none;stroke-width:8;stroke-linecap:round;stroke-linejoin:round;stroke:rgb(75.686275%,70.980392%,61.568627%);stroke-opacity:1;stroke-miterlimit:10;" d="M 205.667969 64.328125 L 212.328125 67.691406 L 219.960938 74.898438 "/>
<path style="fill:none;stroke-width:8;stroke-linecap:round;stroke-linejoin:round;stroke:rgb(75.686275%,70.980392%,61.568627%);stroke-opacity:1;stroke-miterlimit:10;" d="M -9 86.191406 L 1.933594 96.878906 "/>
<path style="fill:none;stroke-width:8;stroke-linecap:round;stroke-linejoin:round;stroke:rgb(75.686275%,70.980392%,61.568627%);stroke-opacity:1;stroke-miterlimit:10;" d="M -7.507813 79.445313 L -4.746094 80.957031 L 3.914063 89.265625 L 5.902344 92.347656 "/>
<path style="fill:none;stroke-width:8;stroke-linecap:round;stroke-linejoin:round;stroke:rgb(75.686275%,70.980392%,61.568627%);stroke-opacity:1;stroke-miterlimit:10;" d="M -4.304688 75.414063 L 9.355469 88.742188 "/>
<path style="fill:none;stroke-width:8;stroke-linecap:round;stroke-linejoin:round;stroke:rgb(75.686275%,70.980392%,61.568627%);stroke-opacity:1;stroke-miterlimit:10;" d="M -1.042969 71.484375 L 13.34375 85.375 "/>
<path style="fill:none;stroke-width:8;stroke-linecap:round;stroke-linejoin:round;stroke:rgb(75.686275%,70.980392%,61.568627%);stroke-opacity:1;stroke-miterlimit:10;" d="M 44.96875 54.34375 L 40.734375 34.359375 "/>
<path style="fill:none;stroke-width:8;stroke-linecap:round;stroke-linejoin:round;stroke:rgb(75.686275%,70.980392%,61.568627%);stroke-opacity:1;stroke-miterlimit:10;" d="M 2.089844 67.714844 L 17.417969 82.207031 "/>
<path style="fill:none;stroke-width:8;stroke-linecap:round;stroke-linejoin:round;stroke:rgb(75.686275%,70.980392%,61.568627%);stroke-opacity:1;stroke-miterlimit:10;" d="M 6.832031 64.238281 L 21.601563 79.40625 "/>
<path style="fill:none;stroke-width:8;stroke-linecap:round;stroke-linejoin:round;stroke:rgb(75.686275%,70.980392%,61.568627%);stroke-opacity:1;stroke-miterlimit:10;" d="M 93.488281 227.113281 L 89.117188 227.664063 L 85.550781 228.109375 L 84.09375 228.554688 L 82.9375 229.152344 L 80.792969 230.726563 L 77.464844 233.015625 L 73.664063 235.757813 "/>
<path style="fill:none;stroke-width:8;stroke-linecap:round;stroke-linejoin:round;stroke:rgb(75.686275%,70.980392%,61.568627%);stroke-opacity:1;stroke-miterlimit:10;" d="M 226.632813 70.519531 L 219.535156 56.160156 L 219.28125 54.464844 L 219.226563 50.714844 L 219.195313 48.558594 "/>
<path style="fill:none;stroke-width:8;stroke-linecap:round;stroke-linejoin:round;stroke:rgb(75.686275%,70.980392%,61.568627%);stroke-opacity:1;stroke-miterlimit:10;" d="M 27.464844 47.03125 L 33.644531 72.6875 "/>
<path style="fill:none;stroke-width:8;stroke-linecap:round;stroke-linejoin:round;stroke:rgb(75.686275%,70.980392%,61.568627%);stroke-opacity:1;stroke-miterlimit:10;" d="M 53.195313 200.652344 L 60.460938 197.042969 L 63.003906 195.292969 L 65.789063 193.382813 L 69.648438 191.15625 L 78.394531 186.378906 "/>
<path style="fill:none;stroke-width:8;stroke-linecap:round;stroke-linejoin:round;stroke:rgb(75.686275%,70.980392%,61.568627%);stroke-opacity:1;stroke-miterlimit:10;" d="M 0.214844 25.730469 L -5.285156 15.660156 L -9 16.910156 "/>
<path style="fill:none;stroke-width:8;stroke-linecap:round;stroke-linejoin:round;stroke:rgb(75.686275%,70.980392%,61.568627%);stroke-opacity:1;stroke-miterlimit:10;" d="M 46.488281 31.304688 L 48.839844 35.296875 L 50.558594 38.21875 L 58.613281 33.722656 L 56.832031 30.925781 L 48.839844 35.296875 "/>
<path style="fill:none;stroke-width:8;stroke-linecap:round;stroke-linejoin:round;stroke:rgb(75.686275%,70.980392%,61.568627%);stroke-opacity:1;stroke-miterlimit:10;" d="M 66.046875 163.898438 L 63.566406 159.671875 L 59.550781 152.53125 L 52.757813 140.285156 L 50.972656 136.765625 "/>
<path style="fill:none;stroke-width:8;stroke-linecap:round;stroke-linejoin:round;stroke:rgb(75.686275%,70.980392%,61.568627%);stroke-opacity:1;stroke-miterlimit:10;" d="M 38.246094 70.589844 L 31.445313 39.84375 "/>
<path style="fill:none;stroke-width:8;stroke-linecap:round;stroke-linejoin:round;stroke:rgb(75.686275%,70.980392%,61.568627%);stroke-opacity:1;stroke-miterlimit:10;" d="M 246.664063 72.726563 L 246.242188 104.320313 "/>
<path style="fill:none;stroke-width:8;stroke-linecap:round;stroke-linejoin:round;stroke:rgb(75.686275%,70.980392%,61.568627%);stroke-opacity:1;stroke-miterlimit:10;" d="M 70.105469 126.042969 L 74.101563 132.953125 L 74.769531 134.707031 L 75.355469 139.222656 L 75.691406 141.398438 L 76.359375 143.90625 L 82.375 154.75 "/>
<path style="fill:none;stroke-width:8;stroke-linecap:round;stroke-linejoin:round;stroke:rgb(75.686275%,70.980392%,61.568627%);stroke-opacity:1;stroke-miterlimit:10;" d="M 36.046875 36.84375 L 43.003906 68.902344 "/>
<path style="fill:none;stroke-width:8;stroke-linecap:round;stroke-linejoin:round;stroke:rgb(75.686275%,70.980392%,61.568627%);stroke-opacity:1;stroke-miterlimit:10;" d="M 40.46875 259.324219 L 44.527344 258.820313 L 47.488281 258.316406 L 50.726563 257.464844 L 53.683594 256.332031 L 60.292969 252.183594 L 61.019531 251.457031 L 61.527344 248.578125 L 60.886719 242.960938 L 60.296875 238.714844 "/>
<path style="fill:none;stroke-width:8;stroke-linecap:round;stroke-linejoin:round;stroke:rgb(75.686275%,70.980392%,61.568627%);stroke-opacity:1;stroke-miterlimit:10;" d="M 28.378906 75.332031 L 33.644531 72.6875 L 35.742188 71.632813 L 38.246094 70.589844 L 39.769531 69.953125 L 43.003906 68.902344 L 46.3125 67.828125 L 48.214844 67.269531 L 49.113281 65.644531 L 44.96875 54.34375 "/>
<path style="fill:none;stroke-width:8;stroke-linecap:round;stroke-linejoin:round;stroke:rgb(75.686275%,70.980392%,61.568627%);stroke-opacity:1;stroke-miterlimit:10;" d="M -9 140.472656 L -2.925781 137.136719 L -0.160156 135.988281 L 0.851563 135.851563 L 2.066406 136.15625 L 3.042969 136.695313 L 3.921875 137.507813 "/>
<path style="fill:none;stroke-width:8;stroke-linecap:round;stroke-linejoin:round;stroke:rgb(75.686275%,70.980392%,61.568627%);stroke-opacity:1;stroke-miterlimit:10;" d="M 162.351563 87.03125 L 173.105469 93.34375 L 177.472656 97.550781 L 188.65625 103.4375 L 199.839844 109.007813 "/>
<path style="fill:none;stroke-width:8;stroke-linecap:round;stroke-linejoin:round;stroke:rgb(75.686275%,70.980392%,61.568627%);stroke-opacity:1;stroke-miterlimit:10;" d="M -9 103.441406 L -6.511719 102.070313 L -5.148438 101.324219 L -1.761719 99.464844 L -0.617188 98.816406 L 1.113281 97.808594 L 1.933594 96.878906 L 5.902344 92.347656 L 6.652344 91.488281 L 8.554688 89.417969 L 9.355469 88.742188 L 13.34375 85.375 L 14.652344 84.273438 L 17.417969 82.207031 L 19.292969 80.804688 L 21.601563 79.40625 L 27.257813 75.972656 "/>
<path style="fill:none;stroke-width:8;stroke-linecap:round;stroke-linejoin:round;stroke:rgb(75.686275%,70.980392%,61.568627%);stroke-opacity:1;stroke-miterlimit:10;" d="M 138.703125 264 L 126.894531 246.898438 L 113.027344 222.234375 "/>
<path style="fill:none;stroke-width:8;stroke-linecap:round;stroke-linejoin:round;stroke:rgb(75.686275%,70.980392%,61.568627%);stroke-opacity:1;stroke-miterlimit:10;" d="M 98.148438 264 L 97.082031 255.359375 L 94.871094 237.753906 L 93.835938 228.703125 L 93.488281 227.113281 "/>
<path style="fill:none;stroke-width:8;stroke-linecap:round;stroke-linejoin:round;stroke:rgb(75.686275%,70.980392%,61.568627%);stroke-opacity:1;stroke-miterlimit:10;" d="M 135.960938 48.929688 L 136.546875 50.421875 L 136.992188 53.039063 L 136.421875 55.109375 L 135.390625 58.421875 L 133.148438 63.695313 L 133.554688 65.007813 L 134.617188 65.476563 L 136.304688 64.851563 L 138.992188 61.511719 L 140.085938 59.132813 L 141.015625 55.925781 L 141.234375 53.859375 L 141.421875 50.019531 L 141.171875 46.890625 L 140.453125 42.140625 L 137.421875 34.828125 L 135.015625 30.359375 L 133.765625 28.546875 L 132.515625 27.269531 L 130.609375 26.707031 L 129.453125 27.046875 L 128.261719 27.457031 "/>
<path style="fill:none;stroke-width:8;stroke-linecap:round;stroke-linejoin:round;stroke:rgb(75.686275%,70.980392%,61.568627%);stroke-opacity:1;stroke-miterlimit:10;" d="M 132.78125 137.78125 L 136.292969 139.742188 L 144.425781 144.109375 L 147.207031 145.910156 L 151.460938 149.238281 L 157.898438 154.53125 L 160.300781 156.875 L 163.085938 161.566406 L 169.355469 172.863281 L 176.996094 186.609375 "/>
<path style="fill:none;stroke-width:8;stroke-linecap:round;stroke-linejoin:round;stroke:rgb(75.686275%,70.980392%,61.568627%);stroke-opacity:1;stroke-miterlimit:10;" d="M -5.285156 15.660156 L 4.871094 16.621094 L 7.871094 16.621094 L 15.175781 12.664063 L 16.429688 9.664063 L 15.621094 5.871094 L 7.289063 -9 "/>
<path style="fill:none;stroke-width:8;stroke-linecap:round;stroke-linejoin:round;stroke:rgb(75.686275%,70.980392%,61.568627%);stroke-opacity:1;stroke-miterlimit:10;" d="M 66.046875 163.898438 L 78.394531 186.378906 L 85.789063 199.734375 L 88.277344 204.183594 L 89.484375 206.742188 L 90.625 209.433594 L 91.726563 213.027344 L 92.351563 216.71875 L 93.488281 227.113281 "/>
<path style="fill:none;stroke-width:8;stroke-linecap:round;stroke-linejoin:round;stroke:rgb(75.686275%,70.980392%,61.568627%);stroke-opacity:1;stroke-miterlimit:10;" d="M 264 51.441406 L 262.292969 51.3125 L 219.226563 50.714844 "/>
<path style="fill:none;stroke-width:8;stroke-linecap:round;stroke-linejoin:round;stroke:rgb(75.686275%,70.980392%,61.568627%);stroke-opacity:1;stroke-miterlimit:10;" d="M 199.839844 109.007813 L 197.972656 111.269531 L 196.722656 113.296875 L 196.332031 114.777344 L 196.488281 116.101563 L 197.113281 117.816406 L 230.238281 177.289063 L 231.71875 178.769531 L 235.785156 182.015625 "/>
<path style="fill:none;stroke-width:8;stroke-linecap:round;stroke-linejoin:round;stroke:rgb(75.686275%,70.980392%,61.568627%);stroke-opacity:1;stroke-miterlimit:10;" d="M 130.28125 212.574219 L 115.660156 186.175781 L 102.042969 161.671875 L 99.511719 157.0625 L 98.34375 155.445313 L 97.230469 154.179688 L 96.121094 153.367188 L 94.84375 152.722656 L 93.355469 152.128906 L 91.816406 151.800781 L 90.375 151.683594 L 88.785156 151.832031 L 86.601563 152.625 L 82.375 154.75 L 66.046875 163.898438 "/>
<path style="fill:none;stroke-width:8;stroke-linecap:round;stroke-linejoin:round;stroke:rgb(75.686275%,70.980392%,61.568627%);stroke-opacity:1;stroke-miterlimit:10;" d="M 8.996094 145.914063 L 59.332031 236.53125 L 60.296875 238.714844 "/>
<path style="fill:none;stroke-width:8;stroke-linecap:round;stroke-linejoin:round;stroke:rgb(75.686275%,70.980392%,61.568627%);stroke-opacity:1;stroke-miterlimit:10;" d="M 199.839844 109.007813 L 218.519531 76.679688 L 219.960938 74.898438 L 223.691406 71.675781 L 225.980469 70.574219 L 228.097656 70.402344 L 230.136719 70.914063 L 234.628906 72.691406 L 235.730469 72.863281 L 246.664063 72.726563 L 262.609375 72.523438 L 264 72.523438 "/>
<path style="fill:none;stroke-width:8;stroke-linecap:round;stroke-linejoin:round;stroke:rgb(75.686275%,70.980392%,61.568627%);stroke-opacity:1;stroke-miterlimit:10;" d="M 3.921875 137.507813 L 4.628906 138.820313 L 4.929688 140.746094 L 4.59375 142.09375 L 3.921875 143.273438 L 2.234375 144.421875 L 0.144531 145.53125 L -6.46875 149.144531 L -8.929688 150.523438 L -9 150.558594 "/>
<path style="fill:none;stroke-width:8;stroke-linecap:round;stroke-linejoin:round;stroke:rgb(75.686275%,70.980392%,61.568627%);stroke-opacity:1;stroke-miterlimit:10;" d="M 40.46875 259.324219 L 40.015625 256.285156 L 39.140625 252.601563 L 38.136719 249.632813 L 36.734375 246.507813 L 33.765625 241.101563 L 26.378906 227.992188 L 14.070313 205.597656 L 0.953125 182.226563 L -9 171.878906 "/>
<path style="fill:none;stroke-width:8;stroke-linecap:round;stroke-linejoin:round;stroke:rgb(75.686275%,70.980392%,61.568627%);stroke-opacity:1;stroke-miterlimit:10;" d="M 200.410156 173.363281 L 176.996094 186.609375 L 157.011719 197.605469 L 130.28125 212.574219 L 113.027344 222.234375 L 109.992188 223.820313 L 106.773438 224.820313 L 104.265625 225.347656 L 93.488281 227.113281 "/>
<path style="fill:none;stroke-width:8;stroke-linecap:round;stroke-linejoin:round;stroke:rgb(75.686275%,70.980392%,61.568627%);stroke-opacity:1;stroke-miterlimit:10;" d="M 139.523438 264 L 155.011719 255.285156 L 156.113281 253.851563 L 157.210938 250.855469 L 158.289063 248.054688 L 159.246094 246.378906 L 170.261719 240.113281 L 199.664063 223.695313 L 208.667969 217.980469 L 213.527344 212.457031 L 216.019531 209.691406 L 218.660156 206.738281 L 222.273438 204.917969 "/>
<path style="fill:none;stroke-width:8;stroke-linecap:round;stroke-linejoin:round;stroke:rgb(75.686275%,70.980392%,61.568627%);stroke-opacity:1;stroke-miterlimit:10;" d="M 186.082031 -9 L 235.898438 20.890625 L 238.273438 21.480469 L 264 21.929688 "/>
<path style="fill:none;stroke-width:8;stroke-linecap:round;stroke-linejoin:round;stroke:rgb(75.686275%,70.980392%,61.568627%);stroke-opacity:1;stroke-miterlimit:10;" d="M 73.664063 235.757813 L 72.542969 234.433594 L 71.421875 232.375 L 70.519531 230.589844 L 68.324219 227.140625 L 64.703125 221.1875 L 61.660156 215.949219 L 57.070313 207.71875 L 53.195313 200.652344 L 26.378906 152.320313 L 26.476563 150.828125 L 27.96875 149.613281 L 29.503906 148.664063 L 50.972656 136.765625 L 70.105469 126.042969 L 83.796875 118.371094 L 86.714844 116.546875 L 90.445313 118.511719 L 127.761719 140.457031 L 129.378906 141.03125 L 130.527344 140.875 L 132.121094 138.90625 L 132.78125 137.78125 L 133.648438 136.292969 L 134.84375 133.375 L 134.953125 131.9375 L 134.621094 130.742188 L 119.949219 121.625 L 107.160156 114.234375 L 99.375 109.496094 L 96.273438 107.597656 L 95.191406 106.355469 L 94.347656 104.644531 L 92.949219 101.667969 L 89.949219 96.15625 L 88.175781 92.796875 L 87.703125 91.78125 L 87.511719 90.503906 L 87.84375 89.128906 L 89.214844 87.355469 L 96.261719 81.089844 L 99.078125 78.582031 L 101.84375 76.761719 L 103.710938 76.03125 L 105.320313 75.792969 L 106.792969 75.851563 L 108.914063 76.289063 L 111.238281 77.410156 L 115.902344 79.921875 L 162.851563 108.074219 L 165.574219 110.804688 L 168.53125 115.03125 L 185.148438 144.753906 L 199.234375 169.964844 L 200.410156 173.363281 L 222.273438 204.917969 "/>
<path style="fill:none;stroke-width:8;stroke-linecap:round;stroke-linejoin:round;stroke:rgb(75.686275%,70.980392%,61.568627%);stroke-opacity:1;stroke-miterlimit:10;" d="M 264 3.601563 L 242.953125 -9 "/>
<path style="fill:none;stroke-width:8;stroke-linecap:round;stroke-linejoin:round;stroke:rgb(75.686275%,70.980392%,61.568627%);stroke-opacity:1;stroke-miterlimit:10;" d="M 187.21875 264 L 222.273438 204.917969 L 235.785156 182.015625 L 258.308594 144.191406 L 264 134.609375 "/>
<path style="fill:none;stroke-width:10;stroke-linecap:round;stroke-linejoin:round;stroke:rgb(72.941176%,43.137255%,15.294118%);stroke-opacity:1;stroke-miterlimit:10;" d="M 42.828125 16.589844 L 49.511719 11.078125 L 52.59375 8.335938 L 54.21875 6.324219 L 55.164063 4.722656 "/>
<path style="fill:none;stroke-width:10;stroke-linecap:round;stroke-linejoin:round;stroke:rgb(72.941176%,43.137255%,15.294118%);stroke-opacity:1;stroke-miterlimit:10;" d="M 75.90625 20.007813 L 79.066406 22.878906 L 82.191406 26.535156 L 87.238281 33.648438 "/>
<path style="fill:none;stroke-width:10;stroke-linecap:round;stroke-linejoin:round;stroke:rgb(72.941176%,43.137255%,15.294118%);stroke-opacity:1;stroke-miterlimit:10;" d="M 42.828125 16.589844 L 50.132813 13.269531 L 54.074219 12.0625 L 57.648438 11.726563 L 62.820313 12.722656 L 67.582031 14.628906 "/>
<path style="fill:none;stroke-width:10;stroke-linecap:round;stroke-linejoin:round;stroke:rgb(72.941176%,43.137255%,15.294118%);stroke-opacity:1;stroke-miterlimit:10;" d="M -11 50.828125 L -6.667969 48.859375 L 3.066406 43.449219 L 12.558594 38.203125 L 17.804688 35.640625 L 23.050781 33.71875 "/>
<path style="fill:none;stroke-width:10;stroke-linecap:round;stroke-linejoin:round;stroke:rgb(72.941176%,43.137255%,15.294118%);stroke-opacity:1;stroke-miterlimit:10;" d="M 5.1875 48.777344 L -9.785156 56.101563 L -11 56.753906 "/>
<path style="fill:none;stroke-width:10;stroke-linecap:round;stroke-linejoin:round;stroke:rgb(72.941176%,43.137255%,15.294118%);stroke-opacity:1;stroke-miterlimit:10;" d="M -11 54.148438 L -6.785156 51.460938 L 5.46875 44.933594 L 14.121094 39.445313 L 23.050781 33.71875 "/>
<path style="fill:none;stroke-width:10;stroke-linecap:round;stroke-linejoin:round;stroke:rgb(72.941176%,43.137255%,15.294118%);stroke-opacity:1;stroke-miterlimit:10;" d="M -11 46.925781 L -8.390625 45.453125 L 5.347656 37.84375 L 22.96875 28.203125 L 36.84375 20.328125 L 42.828125 16.589844 "/>
<path style="fill:none;stroke-width:5;stroke-linecap:round;stroke-linejoin:round;stroke:rgb(75.686275%,70.980392%,61.568627%);stroke-opacity:1;stroke-miterlimit:10;" d="M 59.511719 88.636719 L 57.25 76.75 L 56.15625 71.003906 L 54.035156 59.875 "/>
<path style="fill:none;stroke-width:5;stroke-linecap:round;stroke-linejoin:round;stroke:rgb(75.686275%,70.980392%,61.568627%);stroke-opacity:1;stroke-miterlimit:10;" d="M -4.859375 85.421875 L 7.507813 97.269531 L 12.535156 102.089844 L 21.765625 110.933594 "/>
<path style="fill:none;stroke-width:8;stroke-linecap:round;stroke-linejoin:round;stroke:rgb(75.686275%,70.980392%,61.568627%);stroke-opacity:1;stroke-miterlimit:10;" d="M 124.488281 19.058594 L 124.023438 17.410156 "/>
<path style="fill:none;stroke-width:8;stroke-linecap:round;stroke-linejoin:round;stroke:rgb(75.686275%,70.980392%,61.568627%);stroke-opacity:1;stroke-miterlimit:10;" d="M 124.488281 19.058594 L 121.964844 18.894531 L 120.027344 18.75 "/>
<path style="fill:none;stroke-width:8;stroke-linecap:round;stroke-linejoin:round;stroke:rgb(75.686275%,70.980392%,61.568627%);stroke-opacity:1;stroke-miterlimit:10;" d="M 108.542969 64.410156 L 111.40625 65.417969 L 115.632813 66.386719 "/>
<path style="fill:none;stroke-width:8;stroke-linecap:round;stroke-linejoin:round;stroke:rgb(75.686275%,70.980392%,61.568627%);stroke-opacity:1;stroke-miterlimit:10;" d="M 60.25 24.5625 L 62.347656 27.039063 L 64.324219 30.078125 L 66.667969 34.472656 "/>
<path style="fill:none;stroke-width:8;stroke-linecap:round;stroke-linejoin:round;stroke:rgb(75.686275%,70.980392%,61.568627%);stroke-opacity:1;stroke-miterlimit:10;" d="M 108.542969 64.410156 L 109.792969 65.660156 L 112.039063 67.085938 L 119.070313 70.363281 "/>
<path style="fill:none;stroke-width:8;stroke-linecap:round;stroke-linejoin:round;stroke:rgb(75.686275%,70.980392%,61.568627%);stroke-opacity:1;stroke-miterlimit:10;" d="M 49.640625 44.101563 L 43.539063 32.871094 "/>
<path style="fill:none;stroke-width:8;stroke-linecap:round;stroke-linejoin:round;stroke:rgb(75.686275%,70.980392%,61.568627%);stroke-opacity:1;stroke-miterlimit:10;" d="M 131.449219 35.03125 L 129.484375 29.820313 L 128.261719 27.457031 L 126.824219 24.695313 L 125.515625 21.894531 L 124.488281 19.058594 "/>
<path style="fill:none;stroke-width:8;stroke-linecap:round;stroke-linejoin:round;stroke:rgb(75.686275%,70.980392%,61.568627%);stroke-opacity:1;stroke-miterlimit:10;" d="M 87.238281 33.648438 L 95.585938 49.445313 "/>
<path style="fill:none;stroke-width:8;stroke-linecap:round;stroke-linejoin:round;stroke:rgb(75.686275%,70.980392%,61.568627%);stroke-opacity:1;stroke-miterlimit:10;" d="M 77.832031 18.089844 L 80.464844 20.464844 L 81.820313 22.195313 L 83.175781 24.691406 L 84.929688 28.171875 L 87.238281 33.648438 "/>
<path style="fill:none;stroke-width:8;stroke-linecap:round;stroke-linejoin:round;stroke:rgb(75.686275%,70.980392%,61.568627%);stroke-opacity:1;stroke-miterlimit:10;" d="M 5.1875 48.777344 L -1.28125 53.699219 L -9 58.484375 "/>
<path style="fill:none;stroke-width:8;stroke-linecap:round;stroke-linejoin:round;stroke:rgb(75.686275%,70.980392%,61.568627%);stroke-opacity:1;stroke-miterlimit:10;" d="M 131.449219 35.03125 L 128.714844 32.136719 L 125.527344 27.886719 L 120.027344 18.75 "/>
<path style="fill:none;stroke-width:8;stroke-linecap:round;stroke-linejoin:round;stroke:rgb(75.686275%,70.980392%,61.568627%);stroke-opacity:1;stroke-miterlimit:10;" d="M 95.585938 49.445313 L 98.160156 53.984375 L 101.203125 58.289063 L 104.171875 61.554688 L 108.542969 64.410156 "/>
<path style="fill:none;stroke-width:8;stroke-linecap:round;stroke-linejoin:round;stroke:rgb(75.686275%,70.980392%,61.568627%);stroke-opacity:1;stroke-miterlimit:10;" d="M 60.25 24.5625 L 77.554688 10.570313 "/>
<path style="fill:none;stroke-width:8;stroke-linecap:round;stroke-linejoin:round;stroke:rgb(75.686275%,70.980392%,61.568627%);stroke-opacity:1;stroke-miterlimit:10;" d="M 36.828125 25.015625 L 42.304688 23.015625 L 46.230469 21.78125 L 48.261719 21.296875 L 50.292969 21.296875 L 52.015625 21.84375 L 53.726563 23.835938 L 53.96875 25.035156 L 53.453125 26.851563 L 52.347656 28.199219 "/>
<path style="fill:none;stroke-width:8;stroke-linecap:round;stroke-linejoin:round;stroke:rgb(75.686275%,70.980392%,61.568627%);stroke-opacity:1;stroke-miterlimit:10;" d="M 26.90625 37.128906 L 23.464844 38.976563 L 5.1875 48.777344 "/>
<path style="fill:none;stroke-width:8;stroke-linecap:round;stroke-linejoin:round;stroke:rgb(75.686275%,70.980392%,61.568627%);stroke-opacity:1;stroke-miterlimit:10;" d="M 41.515625 2.238281 L 44.820313 -0.457031 L 48.042969 -2.738281 L 53.480469 -6.113281 L 54.996094 -7.007813 L 55.734375 -8.121094 L 55.925781 -9 "/>
<path style="fill:none;stroke-width:8;stroke-linecap:round;stroke-linejoin:round;stroke:rgb(75.686275%,70.980392%,61.568627%);stroke-opacity:1;stroke-miterlimit:10;" d="M 69.195313 -9 L 68.328125 -7.773438 L 66.101563 -5.167969 L 65.234375 -4.046875 L 64.09375 -1.921875 L 63.351563 0.714844 L 63.339844 3.714844 L 63.769531 5.800781 L 64.792969 7.992188 L 66.414063 10.113281 L 67.960938 11.582031 L 70.042969 12.703125 "/>
<path style="fill:none;stroke-width:8;stroke-linecap:round;stroke-linejoin:round;stroke:rgb(75.686275%,70.980392%,61.568627%);stroke-opacity:1;stroke-miterlimit:10;" d="M 76.46875 67.328125 L 81.96875 65.578125 L 84.3125 64.480469 L 86.34375 63.078125 L 88.332031 61.082031 L 90.21875 58.578125 L 91.300781 56.417969 L 91.96875 53.953125 L 92.121094 52.117188 L 91.96875 50.699219 L 91.558594 49.082031 L 90.84375 46.949219 L 88.84375 43.078125 "/>
<path style="fill:none;stroke-width:8;stroke-linecap:round;stroke-linejoin:round;stroke:rgb(75.686275%,70.980392%,61.568627%);stroke-opacity:1;stroke-miterlimit:10;" d="M 13.757813 64.355469 L 25.375 75.773438 L 27.257813 75.972656 L 28.378906 75.332031 L 28.378906 73.53125 L 25.09375 58.550781 "/>
<path style="fill:none;stroke-width:8;stroke-linecap:round;stroke-linejoin:round;stroke:rgb(75.686275%,70.980392%,61.568627%);stroke-opacity:1;stroke-miterlimit:10;" d="M 23.050781 33.71875 L 36.828125 25.015625 L 40.257813 22.429688 L 43.929688 20.257813 L 46.539063 19.226563 L 49.046875 18.679688 L 51.039063 18.816406 L 53.339844 19.46875 L 55.191406 20.566406 L 57.21875 22.183594 L 59.113281 23.523438 L 60.25 24.5625 "/>
<path style="fill:none;stroke-width:8;stroke-linecap:round;stroke-linejoin:round;stroke:rgb(75.686275%,70.980392%,61.568627%);stroke-opacity:1;stroke-miterlimit:10;" d="M 120.027344 18.75 L 118.578125 15.886719 L 117.257813 13.441406 L 115.746094 11.609375 L 111.242188 7.683594 L 90.628906 -9 "/>
<path style="fill:none;stroke-width:8;stroke-linecap:round;stroke-linejoin:round;stroke:rgb(75.686275%,70.980392%,61.568627%);stroke-opacity:1;stroke-miterlimit:10;" d="M 76.46875 67.328125 L 84.09375 66.324219 L 93.96875 65.074219 L 101.585938 66.15625 L 103.375 67.039063 L 105.574219 67.746094 L 107.457031 68.15625 L 110.511719 68.796875 L 119.070313 70.363281 "/>
<path style="fill:none;stroke-width:8;stroke-linecap:round;stroke-linejoin:round;stroke:rgb(75.686275%,70.980392%,61.568627%);stroke-opacity:1;stroke-miterlimit:10;" d="M 32.21875 16.324219 L 19.96875 23.449219 L -7.269531 38.140625 "/>
<path style="fill:none;stroke-width:8;stroke-linecap:round;stroke-linejoin:round;stroke:rgb(75.686275%,70.980392%,61.568627%);stroke-opacity:1;stroke-miterlimit:10;" d="M 164.996094 17.074219 L 162.59375 15.894531 L 160.117188 15.011719 L 156.941406 14.152344 L 152.847656 13.636719 L 147.347656 13.40625 L 141.683594 13.023438 L 137.820313 13.070313 L 134.144531 13.636719 L 131.222656 14.484375 L 128.117188 15.519531 L 124.023438 17.410156 L 120.027344 18.75 "/>
<path style="fill:none;stroke-width:8;stroke-linecap:round;stroke-linejoin:round;stroke:rgb(75.686275%,70.980392%,61.568627%);stroke-opacity:1;stroke-miterlimit:10;" d="M 76.46875 67.328125 L 81.84375 64.078125 L 84.179688 62.179688 L 85.59375 60.074219 L 86.546875 58.152344 L 87.09375 56.328125 L 87.335938 54.378906 L 87.304688 52.308594 L 86.449219 49.007813 L 85.257813 46.363281 L 77.019531 32.296875 L 74.203125 29.082031 "/>
<path style="fill:none;stroke-width:8;stroke-linecap:round;stroke-linejoin:round;stroke:rgb(75.686275%,70.980392%,61.568627%);stroke-opacity:1;stroke-miterlimit:10;" d="M 120.027344 18.75 L 118.484375 18.625 L 116.371094 18.03125 L 113.753906 16.726563 L 111.339844 15.246094 L 105.257813 10.707031 L 93.839844 1.214844 L 81.222656 -9 "/>
<path style="fill:none;stroke-width:8;stroke-linecap:round;stroke-linejoin:round;stroke:rgb(75.686275%,70.980392%,61.568627%);stroke-opacity:1;stroke-miterlimit:10;" d="M 103.9375 58.058594 L 114.492188 61.40625 L 118.824219 62.019531 L 121.058594 62.058594 L 123.011719 61.945313 L 125.066406 61.585938 L 126.726563 60.972656 L 129.21875 59.53125 L 130.628906 58.230469 L 131.5625 56.894531 L 132.648438 54.761719 L 133.148438 52.621094 L 133.042969 51.261719 L 132.46875 50.105469 L 131.53125 49.386719 L 130.265625 49.078125 L 129.03125 49.277344 L 127.9375 49.824219 L 126.304688 52.292969 L 125.613281 54.042969 L 124.867188 56.054688 L 123.976563 57.976563 L 123.347656 58.867188 L 121.867188 59.496094 L 113.304688 58.441406 L 110.324219 56.84375 "/>
<path style="fill:none;stroke-width:8;stroke-linecap:round;stroke-linejoin:round;stroke:rgb(75.686275%,70.980392%,61.568627%);stroke-opacity:1;stroke-miterlimit:10;" d="M 95.585938 49.445313 L 100.046875 54.472656 L 103.9375 58.058594 L 106.097656 59.742188 L 108.320313 60.898438 L 113.855469 62.648438 L 117.402344 63.648438 L 119.941406 64.046875 L 121.488281 64.179688 L 124.902344 63.996094 L 127.390625 63.089844 L 129.75 61.558594 L 131.601563 59.921875 L 133.269531 57.953125 L 135.136719 55.261719 L 135.660156 53.65625 L 135.820313 51.695313 L 135.960938 48.929688 L 135.683594 46.324219 L 135.386719 44.375 L 134.417969 41.191406 L 133.34375 38.421875 L 131.449219 35.03125 "/>
<path style="fill:none;stroke-width:8;stroke-linecap:round;stroke-linejoin:round;stroke:rgb(75.686275%,70.980392%,61.568627%);stroke-opacity:1;stroke-miterlimit:10;" d="M -2.78125 112.199219 L 5.71875 107.328125 L 12.535156 102.089844 L 17.09375 97.328125 L 24.84375 90.824219 L 32.96875 85.828125 L 38.070313 83.226563 L 42.96875 81.449219 L 50.925781 78.84375 L 57.25 76.75 L 62.566406 74.796875 L 69.96875 71.324219 L 76.46875 67.328125 "/>
<path style="fill:none;stroke-width:8;stroke-linecap:round;stroke-linejoin:round;stroke:rgb(75.686275%,70.980392%,61.568627%);stroke-opacity:1;stroke-miterlimit:10;" d="M -2.78125 112.199219 L 0.34375 108.703125 L 4.34375 102.199219 L 7.507813 97.269531 L 10.425781 94.304688 L 18.742188 87.375 L 23.652344 83.851563 L 27.808594 81.195313 L 31.84375 79.078125 L 42.71875 74.203125 L 49.96875 71.953125 L 56.15625 71.003906 L 59.71875 70.703125 L 66.96875 69.453125 L 76.46875 67.328125 "/>
<path style="fill:none;stroke-width:8;stroke-linecap:round;stroke-linejoin:round;stroke:rgb(75.686275%,70.980392%,61.568627%);stroke-opacity:1;stroke-miterlimit:10;" d="M 65.832031 -9 L 64.3125 -7.585938 L 51.289063 0.636719 L 31.34375 13.203125 L 9.09375 26.078125 L 2.96875 30.328125 L -2.78125 34.324219 L -7.269531 38.140625 "/>
<path style="fill:none;stroke-width:8;stroke-linecap:round;stroke-linejoin:round;stroke:rgb(75.686275%,70.980392%,61.568627%);stroke-opacity:1;stroke-miterlimit:10;" d="M 80.25 12.707031 L 77.554688 10.570313 L 73.375 7.25 L 70.25 4.773438 L 68.882813 3.15625 L 68.140625 1.332031 L 68.160156 -0.167969 L 68.617188 -1.632813 L 69.492188 -3.152344 L 70.761719 -4.785156 L 72.320313 -6.378906 L 73.308594 -6.96875 L 74.828125 -7.425781 L 76.503906 -7.578125 L 78.003906 -7.121094 L 78.933594 -6.609375 L 79.980469 -5.46875 L 82.542969 -1.15625 L 85.507813 3.519531 L 88.222656 8.019531 L 89.648438 9.804688 L 94.007813 13.636719 L 101.503906 19.546875 L 105.882813 23.222656 L 108.578125 25.378906 L 109.867188 26.113281 L 111.058594 26.324219 L 112.476563 25.871094 L 113.8125 24.375 L 114.171875 22.902344 L 114.140625 21.390625 L 113.753906 19.714844 L 113.140625 18.589844 L 111.988281 17.308594 L 109.636719 14.957031 L 105.257813 10.707031 "/>
<path style="fill:none;stroke-width:8;stroke-linecap:round;stroke-linejoin:round;stroke:rgb(75.686275%,70.980392%,61.568627%);stroke-opacity:1;stroke-miterlimit:10;" d="M -9 65.921875 L -6.625 63.796875 L -3.863281 62.035156 L -0.617188 60.875 L 2.984375 60.351563 L 5.949219 60.3125 L 9.03125 60.59375 L 12.558594 60.953125 L 16.402344 61.074219 L 18.246094 60.59375 L 19.847656 59.550781 L 21.207031 58.109375 L 22.53125 55.707031 L 22.972656 53.902344 L 22.769531 51.703125 L 22.128906 49.9375 L 21.328125 48.578125 L 20.246094 47.335938 L 18.527344 46.214844 L 16.722656 45.613281 L 13.71875 45.65625 L 9.996094 46.933594 L 5.1875 48.777344 "/>
<path style="fill:none;stroke-width:8;stroke-linecap:round;stroke-linejoin:round;stroke:rgb(75.686275%,70.980392%,61.568627%);stroke-opacity:1;stroke-miterlimit:10;" d="M -9 81.347656 L -7.507813 79.445313 L -4.90625 76.132813 L -1.042969 71.484375 L 2.089844 67.714844 L 3.746094 65.71875 L 5.070313 64.757813 L 6.832031 64.238281 L 10.394531 64.15625 L 13.757813 64.355469 L 16.757813 64.125 L 18.804688 63.675781 L 20.207031 62.996094 L 21.691406 62.074219 L 23.613281 60.351563 L 25.09375 58.550781 L 26.242188 51.0625 L 27.464844 47.03125 L 28.269531 44.375 L 31.445313 39.84375 L 35.230469 37.277344 L 40.734375 34.359375 L 43.539063 32.871094 L 46.488281 31.304688 L 52.347656 28.199219 L 53.785156 27.4375 L 60.25 24.5625 "/>
<path style="fill:none;stroke-width:8;stroke-linecap:round;stroke-linejoin:round;stroke:rgb(75.686275%,70.980392%,61.568627%);stroke-opacity:1;stroke-miterlimit:10;" d="M 119.070313 70.363281 L 131.929688 72.988281 L 142.71875 75.34375 L 148.792969 76.285156 L 151.480469 76.332031 L 154.824219 75.484375 L 157.695313 74.257813 L 160.902344 72.042969 L 164.101563 69.359375 L 167.117188 66.203125 L 169.238281 63.421875 L 171.121094 59.328125 L 172.203125 55.886719 L 172.816406 52.824219 L 173.007813 48.773438 L 172.675781 44.582031 L 171.632813 39.929688 L 169.898438 35.113281 L 168.058594 31.394531 L 165.421875 27.484375 L 162.265625 23.90625 L 160.097656 21.878906 L 156.800781 19.523438 L 153.269531 17.78125 L 150.488281 16.792969 L 147.664063 16.132813 L 143.753906 15.707031 L 139.703125 15.566406 L 136.40625 15.894531 L 133.769531 16.414063 L 131.222656 17.121094 L 128.804688 18.0625 L 126.722656 18.863281 L 124.488281 19.058594 "/>
<path style="fill:none;stroke-width:8;stroke-linecap:round;stroke-linejoin:round;stroke:rgb(75.686275%,70.980392%,61.568627%);stroke-opacity:1;stroke-miterlimit:10;" d="M -9 33.058594 L 0.214844 25.730469 L 16.71875 17.574219 L 38.699219 3.824219 L 41.515625 2.238281 L 45.746094 0.285156 L 49.074219 -1.488281 L 55.757813 -5.027344 L 60.515625 -7.742188 L 62.1875 -9 "/>
<path style="fill:none;stroke-width:6;stroke-linecap:round;stroke-linejoin:round;stroke:rgb(100%,100%,100%);stroke-opacity:1;stroke-miterlimit:10;" d="M 23.464844 38.976563 L 24.304688 40.671875 L 27.464844 47.03125 "/>
<path style="fill:none;stroke-width:6;stroke-linecap:round;stroke-linejoin:round;stroke:rgb(100%,100%,100%);stroke-opacity:1;stroke-miterlimit:10;" d="M 60.296875 238.714844 L 70.960938 237.394531 L 72.574219 236.730469 L 73.664063 235.757813 "/>
<path style="fill:none;stroke-width:6;stroke-linecap:round;stroke-linejoin:round;stroke:rgb(100%,100%,100%);stroke-opacity:1;stroke-miterlimit:10;" d="M 205.667969 64.328125 L 212.328125 67.691406 L 219.960938 74.898438 "/>
<path style="fill:none;stroke-width:6;stroke-linecap:round;stroke-linejoin:round;stroke:rgb(100%,100%,100%);stroke-opacity:1;stroke-miterlimit:10;" d="M -9 86.191406 L 1.933594 96.878906 "/>
<path style="fill:none;stroke-width:6;stroke-linecap:round;stroke-linejoin:round;stroke:rgb(100%,100%,100%);stroke-opacity:1;stroke-miterlimit:10;" d="M -7.507813 79.445313 L -4.746094 80.957031 L 3.914063 89.265625 L 5.902344 92.347656 "/>
<path style="fill:none;stroke-width:6;stroke-linecap:round;stroke-linejoin:round;stroke:rgb(100%,100%,100%);stroke-opacity:1;stroke-miterlimit:10;" d="M -4.304688 75.414063 L 9.355469 88.742188 "/>
<path style="fill:none;stroke-width:6;stroke-linecap:round;stroke-linejoin:round;stroke:rgb(100%,100%,100%);stroke-opacity:1;stroke-miterlimit:10;" d="M -1.042969 71.484375 L 13.34375 85.375 "/>
<path style="fill:none;stroke-width:6;stroke-linecap:round;stroke-linejoin:round;stroke:rgb(100%,100%,100%);stroke-opacity:1;stroke-miterlimit:10;" d="M 44.96875 54.34375 L 40.734375 34.359375 "/>
<path style="fill:none;stroke-width:6;stroke-linecap:round;stroke-linejoin:round;stroke:rgb(100%,100%,100%);stroke-opacity:1;stroke-miterlimit:10;" d="M 2.089844 67.714844 L 17.417969 82.207031 "/>
<path style="fill:none;stroke-width:6;stroke-linecap:round;stroke-linejoin:round;stroke:rgb(100%,100%,100%);stroke-opacity:1;stroke-miterlimit:10;" d="M 6.832031 64.238281 L 21.601563 79.40625 "/>
<path style="fill:none;stroke-width:6;stroke-linecap:round;stroke-linejoin:round;stroke:rgb(100%,100%,100%);stroke-opacity:1;stroke-miterlimit:10;" d="M 93.488281 227.113281 L 89.117188 227.664063 L 85.550781 228.109375 L 84.09375 228.554688 L 82.9375 229.152344 L 80.792969 230.726563 L 77.464844 233.015625 L 73.664063 235.757813 "/>
<path style="fill:none;stroke-width:6;stroke-linecap:round;stroke-linejoin:round;stroke:rgb(100%,100%,100%);stroke-opacity:1;stroke-miterlimit:10;" d="M 226.632813 70.519531 L 219.535156 56.160156 L 219.28125 54.464844 L 219.226563 50.714844 L 219.195313 48.558594 "/>
<path style="fill:none;stroke-width:6;stroke-linecap:round;stroke-linejoin:round;stroke:rgb(100%,100%,100%);stroke-opacity:1;stroke-miterlimit:10;" d="M 27.464844 47.03125 L 33.644531 72.6875 "/>
<path style="fill:none;stroke-width:6;stroke-linecap:round;stroke-linejoin:round;stroke:rgb(100%,100%,100%);stroke-opacity:1;stroke-miterlimit:10;" d="M 53.195313 200.652344 L 60.460938 197.042969 L 63.003906 195.292969 L 65.789063 193.382813 L 69.648438 191.15625 L 78.394531 186.378906 "/>
<path style="fill:none;stroke-width:6;stroke-linecap:round;stroke-linejoin:round;stroke:rgb(100%,100%,100%);stroke-opacity:1;stroke-miterlimit:10;" d="M 0.214844 25.730469 L -5.285156 15.660156 L -9 16.910156 "/>
<path style="fill:none;stroke-width:6;stroke-linecap:round;stroke-linejoin:round;stroke:rgb(100%,100%,100%);stroke-opacity:1;stroke-miterlimit:10;" d="M 46.488281 31.304688 L 48.839844 35.296875 L 50.558594 38.21875 L 58.613281 33.722656 L 56.832031 30.925781 L 48.839844 35.296875 "/>
<path style="fill:none;stroke-width:6;stroke-linecap:round;stroke-linejoin:round;stroke:rgb(100%,100%,100%);stroke-opacity:1;stroke-miterlimit:10;" d="M 66.046875 163.898438 L 63.566406 159.671875 L 59.550781 152.53125 L 52.757813 140.285156 L 50.972656 136.765625 "/>
<path style="fill:none;stroke-width:6;stroke-linecap:round;stroke-linejoin:round;stroke:rgb(100%,100%,100%);stroke-opacity:1;stroke-miterlimit:10;" d="M 38.246094 70.589844 L 31.445313 39.84375 "/>
<path style="fill:none;stroke-width:6;stroke-linecap:round;stroke-linejoin:round;stroke:rgb(100%,100%,100%);stroke-opacity:1;stroke-miterlimit:10;" d="M 246.664063 72.726563 L 246.242188 104.320313 "/>
<path style="fill:none;stroke-width:6;stroke-linecap:round;stroke-linejoin:round;stroke:rgb(100%,100%,100%);stroke-opacity:1;stroke-miterlimit:10;" d="M 70.105469 126.042969 L 74.101563 132.953125 L 74.769531 134.707031 L 75.355469 139.222656 L 75.691406 141.398438 L 76.359375 143.90625 L 82.375 154.75 "/>
<path style="fill:none;stroke-width:6;stroke-linecap:round;stroke-linejoin:round;stroke:rgb(100%,100%,100%);stroke-opacity:1;stroke-miterlimit:10;" d="M 36.046875 36.84375 L 43.003906 68.902344 "/>
<path style="fill:none;stroke-width:6;stroke-linecap:round;stroke-linejoin:round;stroke:rgb(100%,100%,100%);stroke-opacity:1;stroke-miterlimit:10;" d="M 40.46875 259.324219 L 44.527344 258.820313 L 47.488281 258.316406 L 50.726563 257.464844 L 53.683594 256.332031 L 60.292969 252.183594 L 61.019531 251.457031 L 61.527344 248.578125 L 60.886719 242.960938 L 60.296875 238.714844 "/>
<path style="fill:none;stroke-width:6;stroke-linecap:round;stroke-linejoin:round;stroke:rgb(100%,100%,100%);stroke-opacity:1;stroke-miterlimit:10;" d="M 28.378906 75.332031 L 33.644531 72.6875 L 35.742188 71.632813 L 38.246094 70.589844 L 39.769531 69.953125 L 43.003906 68.902344 L 46.3125 67.828125 L 48.214844 67.269531 L 49.113281 65.644531 L 44.96875 54.34375 "/>
<path style="fill:none;stroke-width:6;stroke-linecap:round;stroke-linejoin:round;stroke:rgb(100%,100%,100%);stroke-opacity:1;stroke-miterlimit:10;" d="M -9 140.472656 L -2.925781 137.136719 L -0.160156 135.988281 L 0.851563 135.851563 L 2.066406 136.15625 L 3.042969 136.695313 L 3.921875 137.507813 "/>
<path style="fill:none;stroke-width:6;stroke-linecap:round;stroke-linejoin:round;stroke:rgb(100%,100%,100%);stroke-opacity:1;stroke-miterlimit:10;" d="M 162.351563 87.03125 L 173.105469 93.34375 L 177.472656 97.550781 L 188.65625 103.4375 L 199.839844 109.007813 "/>
<path style="fill:none;stroke-width:6;stroke-linecap:round;stroke-linejoin:round;stroke:rgb(100%,100%,100%);stroke-opacity:1;stroke-miterlimit:10;" d="M -9 103.441406 L -6.511719 102.070313 L -5.148438 101.324219 L -1.761719 99.464844 L -0.617188 98.816406 L 1.113281 97.808594 L 1.933594 96.878906 L 5.902344 92.347656 L 6.652344 91.488281 L 8.554688 89.417969 L 9.355469 88.742188 L 13.34375 85.375 L 14.652344 84.273438 L 17.417969 82.207031 L 19.292969 80.804688 L 21.601563 79.40625 L 27.257813 75.972656 "/>
<path style="fill:none;stroke-width:6;stroke-linecap:round;stroke-linejoin:round;stroke:rgb(100%,100%,100%);stroke-opacity:1;stroke-miterlimit:10;" d="M 138.703125 264 L 126.894531 246.898438 L 113.027344 222.234375 "/>
<path style="fill:none;stroke-width:6;stroke-linecap:round;stroke-linejoin:round;stroke:rgb(100%,100%,100%);stroke-opacity:1;stroke-miterlimit:10;" d="M 98.148438 264 L 97.082031 255.359375 L 94.871094 237.753906 L 93.835938 228.703125 L 93.488281 227.113281 "/>
<path style="fill:none;stroke-width:6;stroke-linecap:round;stroke-linejoin:round;stroke:rgb(100%,100%,100%);stroke-opacity:1;stroke-miterlimit:10;" d="M 135.960938 48.929688 L 136.546875 50.421875 L 136.992188 53.039063 L 136.421875 55.109375 L 135.390625 58.421875 L 133.148438 63.695313 L 133.554688 65.007813 L 134.617188 65.476563 L 136.304688 64.851563 L 138.992188 61.511719 L 140.085938 59.132813 L 141.015625 55.925781 L 141.234375 53.859375 L 141.421875 50.019531 L 141.171875 46.890625 L 140.453125 42.140625 L 137.421875 34.828125 L 135.015625 30.359375 L 133.765625 28.546875 L 132.515625 27.269531 L 130.609375 26.707031 L 129.453125 27.046875 L 128.261719 27.457031 "/>
<path style="fill:none;stroke-width:6;stroke-linecap:round;stroke-linejoin:round;stroke:rgb(100%,100%,100%);stroke-opacity:1;stroke-miterlimit:10;" d="M 132.78125 137.78125 L 136.292969 139.742188 L 144.425781 144.109375 L 147.207031 145.910156 L 151.460938 149.238281 L 157.898438 154.53125 L 160.300781 156.875 L 163.085938 161.566406 L 169.355469 172.863281 L 176.996094 186.609375 "/>
<path style="fill:none;stroke-width:6;stroke-linecap:round;stroke-linejoin:round;stroke:rgb(100%,100%,100%);stroke-opacity:1;stroke-miterlimit:10;" d="M -5.285156 15.660156 L 4.871094 16.621094 L 7.871094 16.621094 L 15.175781 12.664063 L 16.429688 9.664063 L 15.621094 5.871094 L 7.289063 -9 "/>
<path style="fill:none;stroke-width:6;stroke-linecap:round;stroke-linejoin:round;stroke:rgb(100%,100%,100%);stroke-opacity:1;stroke-miterlimit:10;" d="M 66.046875 163.898438 L 78.394531 186.378906 L 85.789063 199.734375 L 88.277344 204.183594 L 89.484375 206.742188 L 90.625 209.433594 L 91.726563 213.027344 L 92.351563 216.71875 L 93.488281 227.113281 "/>
<path style="fill:none;stroke-width:6;stroke-linecap:round;stroke-linejoin:round;stroke:rgb(100%,100%,100%);stroke-opacity:1;stroke-miterlimit:10;" d="M 264 51.441406 L 262.292969 51.3125 L 219.226563 50.714844 "/>
<path style="fill:none;stroke-width:6;stroke-linecap:round;stroke-linejoin:round;stroke:rgb(100%,100%,100%);stroke-opacity:1;stroke-miterlimit:10;" d="M 199.839844 109.007813 L 197.972656 111.269531 L 196.722656 113.296875 L 196.332031 114.777344 L 196.488281 116.101563 L 197.113281 117.816406 L 230.238281 177.289063 L 231.71875 178.769531 L 235.785156 182.015625 "/>
<path style="fill:none;stroke-width:6;stroke-linecap:round;stroke-linejoin:round;stroke:rgb(100%,100%,100%);stroke-opacity:1;stroke-miterlimit:10;" d="M 130.28125 212.574219 L 115.660156 186.175781 L 102.042969 161.671875 L 99.511719 157.0625 L 98.34375 155.445313 L 97.230469 154.179688 L 96.121094 153.367188 L 94.84375 152.722656 L 93.355469 152.128906 L 91.816406 151.800781 L 90.375 151.683594 L 88.785156 151.832031 L 86.601563 152.625 L 82.375 154.75 L 66.046875 163.898438 "/>
<path style="fill:none;stroke-width:6;stroke-linecap:round;stroke-linejoin:round;stroke:rgb(100%,100%,100%);stroke-opacity:1;stroke-miterlimit:10;" d="M 8.996094 145.914063 L 59.332031 236.53125 L 60.296875 238.714844 "/>
<path style="fill:none;stroke-width:6;stroke-linecap:round;stroke-linejoin:round;stroke:rgb(100%,100%,100%);stroke-opacity:1;stroke-miterlimit:10;" d="M 199.839844 109.007813 L 218.519531 76.679688 L 219.960938 74.898438 L 223.691406 71.675781 L 225.980469 70.574219 L 228.097656 70.402344 L 230.136719 70.914063 L 234.628906 72.691406 L 235.730469 72.863281 L 246.664063 72.726563 L 262.609375 72.523438 L 264 72.523438 "/>
<path style="fill:none;stroke-width:6;stroke-linecap:round;stroke-linejoin:round;stroke:rgb(100%,100%,100%);stroke-opacity:1;stroke-miterlimit:10;" d="M 3.921875 137.507813 L 4.628906 138.820313 L 4.929688 140.746094 L 4.59375 142.09375 L 3.921875 143.273438 L 2.234375 144.421875 L 0.144531 145.53125 L -6.46875 149.144531 L -8.929688 150.523438 L -9 150.558594 "/>
<path style="fill:none;stroke-width:6;stroke-linecap:round;stroke-linejoin:round;stroke:rgb(100%,100%,100%);stroke-opacity:1;stroke-miterlimit:10;" d="M 40.46875 259.324219 L 40.015625 256.285156 L 39.140625 252.601563 L 38.136719 249.632813 L 36.734375 246.507813 L 33.765625 241.101563 L 26.378906 227.992188 L 14.070313 205.597656 L 0.953125 182.226563 L -9 171.878906 "/>
<path style="fill:none;stroke-width:6;stroke-linecap:round;stroke-linejoin:round;stroke:rgb(100%,100%,100%);stroke-opacity:1;stroke-miterlimit:10;" d="M 200.410156 173.363281 L 176.996094 186.609375 L 157.011719 197.605469 L 130.28125 212.574219 L 113.027344 222.234375 L 109.992188 223.820313 L 106.773438 224.820313 L 104.265625 225.347656 L 93.488281 227.113281 "/>
<path style="fill:none;stroke-width:6;stroke-linecap:round;stroke-linejoin:round;stroke:rgb(100%,100%,100%);stroke-opacity:1;stroke-miterlimit:10;" d="M 139.523438 264 L 155.011719 255.285156 L 156.113281 253.851563 L 157.210938 250.855469 L 158.289063 248.054688 L 159.246094 246.378906 L 170.261719 240.113281 L 199.664063 223.695313 L 208.667969 217.980469 L 213.527344 212.457031 L 216.019531 209.691406 L 218.660156 206.738281 L 222.273438 204.917969 "/>
<path style="fill:none;stroke-width:6;stroke-linecap:round;stroke-linejoin:round;stroke:rgb(100%,100%,100%);stroke-opacity:1;stroke-miterlimit:10;" d="M 186.082031 -9 L 235.898438 20.890625 L 238.273438 21.480469 L 264 21.929688 "/>
<path style="fill:none;stroke-width:6;stroke-linecap:round;stroke-linejoin:round;stroke:rgb(100%,100%,100%);stroke-opacity:1;stroke-miterlimit:10;" d="M 73.664063 235.757813 L 72.542969 234.433594 L 71.421875 232.375 L 70.519531 230.589844 L 68.324219 227.140625 L 64.703125 221.1875 L 61.660156 215.949219 L 57.070313 207.71875 L 53.195313 200.652344 L 26.378906 152.320313 L 26.476563 150.828125 L 27.96875 149.613281 L 29.503906 148.664063 L 50.972656 136.765625 L 70.105469 126.042969 L 83.796875 118.371094 L 86.714844 116.546875 L 90.445313 118.511719 L 127.761719 140.457031 L 129.378906 141.03125 L 130.527344 140.875 L 132.121094 138.90625 L 132.78125 137.78125 L 133.648438 136.292969 L 134.84375 133.375 L 134.953125 131.9375 L 134.621094 130.742188 L 119.949219 121.625 L 107.160156 114.234375 L 99.375 109.496094 L 96.273438 107.597656 L 95.191406 106.355469 L 94.347656 104.644531 L 92.949219 101.667969 L 89.949219 96.15625 L 88.175781 92.796875 L 87.703125 91.78125 L 87.511719 90.503906 L 87.84375 89.128906 L 89.214844 87.355469 L 96.261719 81.089844 L 99.078125 78.582031 L 101.84375 76.761719 L 103.710938 76.03125 L 105.320313 75.792969 L 106.792969 75.851563 L 108.914063 76.289063 L 111.238281 77.410156 L 115.902344 79.921875 L 162.851563 108.074219 L 165.574219 110.804688 L 168.53125 115.03125 L 185.148438 144.753906 L 199.234375 169.964844 L 200.410156 173.363281 L 222.273438 204.917969 "/>
<path style="fill:none;stroke-width:6;stroke-linecap:round;stroke-linejoin:round;stroke:rgb(100%,100%,100%);stroke-opacity:1;stroke-miterlimit:10;" d="M 264 3.601563 L 242.953125 -9 "/>
<path style="fill:none;stroke-width:6;stroke-linecap:round;stroke-linejoin:round;stroke:rgb(100%,100%,100%);stroke-opacity:1;stroke-miterlimit:10;" d="M 187.21875 264 L 222.273438 204.917969 L 235.785156 182.015625 L 258.308594 144.191406 L 264 134.609375 "/>
<path style="fill:none;stroke-width:8;stroke-linecap:round;stroke-linejoin:round;stroke:rgb(99.215686%,57.254902%,22.745098%);stroke-opacity:1;stroke-miterlimit:10;" d="M 42.828125 16.589844 L 49.511719 11.078125 L 52.59375 8.335938 L 54.21875 6.324219 L 55.164063 4.722656 "/>
<path style="fill:none;stroke-width:8;stroke-linecap:round;stroke-linejoin:round;stroke:rgb(99.215686%,57.254902%,22.745098%);stroke-opacity:1;stroke-miterlimit:10;" d="M 75.90625 20.007813 L 79.066406 22.878906 L 82.191406 26.535156 L 87.238281 33.648438 "/>
<path style="fill:none;stroke-width:8;stroke-linecap:round;stroke-linejoin:round;stroke:rgb(99.215686%,57.254902%,22.745098%);stroke-opacity:1;stroke-miterlimit:10;" d="M 42.828125 16.589844 L 50.132813 13.269531 L 54.074219 12.0625 L 57.648438 11.726563 L 62.820313 12.722656 L 67.582031 14.628906 "/>
<path style="fill:none;stroke-width:8;stroke-linecap:round;stroke-linejoin:round;stroke:rgb(99.215686%,57.254902%,22.745098%);stroke-opacity:1;stroke-miterlimit:10;" d="M -11 50.828125 L -6.667969 48.859375 L 3.066406 43.449219 L 12.558594 38.203125 L 17.804688 35.640625 L 23.050781 33.71875 "/>
<path style="fill:none;stroke-width:8;stroke-linecap:round;stroke-linejoin:round;stroke:rgb(99.215686%,57.254902%,22.745098%);stroke-opacity:1;stroke-miterlimit:10;" d="M 5.1875 48.777344 L -9.785156 56.101563 L -11 56.753906 "/>
<path style="fill:none;stroke-width:8;stroke-linecap:round;stroke-linejoin:round;stroke:rgb(99.215686%,57.254902%,22.745098%);stroke-opacity:1;stroke-miterlimit:10;" d="M -11 54.148438 L -6.785156 51.460938 L 5.46875 44.933594 L 14.121094 39.445313 L 23.050781 33.71875 "/>
<path style="fill:none;stroke-width:8;stroke-linecap:round;stroke-linejoin:round;stroke:rgb(99.215686%,57.254902%,22.745098%);stroke-opacity:1;stroke-miterlimit:10;" d="M -11 46.925781 L -8.390625 45.453125 L 5.347656 37.84375 L 22.96875 28.203125 L 36.84375 20.328125 L 42.828125 16.589844 "/>
<path style="fill:none;stroke-width:3;stroke-linecap:round;stroke-linejoin:round;stroke:rgb(98.039216%,98.039216%,96.078431%);stroke-opacity:1;stroke-miterlimit:10;" d="M 59.511719 88.636719 L 57.25 76.75 L 56.15625 71.003906 L 54.035156 59.875 "/>
<path style="fill:none;stroke-width:3;stroke-linecap:round;stroke-linejoin:round;stroke:rgb(98.039216%,98.039216%,96.078431%);stroke-opacity:1;stroke-miterlimit:10;" d="M -4.859375 85.421875 L 7.507813 97.269531 L 12.535156 102.089844 L 21.765625 110.933594 "/>
<path style="fill:none;stroke-width:6;stroke-linecap:round;stroke-linejoin:round;stroke:rgb(100%,100%,100%);stroke-opacity:1;stroke-miterlimit:10;" d="M 124.488281 19.058594 L 124.023438 17.410156 "/>
<path style="fill:none;stroke-width:6;stroke-linecap:round;stroke-linejoin:round;stroke:rgb(100%,100%,100%);stroke-opacity:1;stroke-miterlimit:10;" d="M 124.488281 19.058594 L 121.964844 18.894531 L 120.027344 18.75 "/>
<path style="fill:none;stroke-width:6;stroke-linecap:round;stroke-linejoin:round;stroke:rgb(100%,100%,100%);stroke-opacity:1;stroke-miterlimit:10;" d="M 108.542969 64.410156 L 111.40625 65.417969 L 115.632813 66.386719 "/>
<path style="fill:none;stroke-width:6;stroke-linecap:round;stroke-linejoin:round;stroke:rgb(100%,100%,100%);stroke-opacity:1;stroke-miterlimit:10;" d="M 60.25 24.5625 L 62.347656 27.039063 L 64.324219 30.078125 L 66.667969 34.472656 "/>
<path style="fill:none;stroke-width:6;stroke-linecap:round;stroke-linejoin:round;stroke:rgb(100%,100%,100%);stroke-opacity:1;stroke-miterlimit:10;" d="M 108.542969 64.410156 L 109.792969 65.660156 L 112.039063 67.085938 L 119.070313 70.363281 "/>
<path style="fill:none;stroke-width:6;stroke-linecap:round;stroke-linejoin:round;stroke:rgb(100%,100%,100%);stroke-opacity:1;stroke-miterlimit:10;" d="M 49.640625 44.101563 L 43.539063 32.871094 "/>
<path style="fill:none;stroke-width:6;stroke-linecap:round;stroke-linejoin:round;stroke:rgb(100%,100%,100%);stroke-opacity:1;stroke-miterlimit:10;" d="M 131.449219 35.03125 L 129.484375 29.820313 L 128.261719 27.457031 L 126.824219 24.695313 L 125.515625 21.894531 L 124.488281 19.058594 "/>
<path style="fill:none;stroke-width:6;stroke-linecap:round;stroke-linejoin:round;stroke:rgb(100%,100%,100%);stroke-opacity:1;stroke-miterlimit:10;" d="M 87.238281 33.648438 L 95.585938 49.445313 "/>
<path style="fill:none;stroke-width:6;stroke-linecap:round;stroke-linejoin:round;stroke:rgb(100%,100%,100%);stroke-opacity:1;stroke-miterlimit:10;" d="M 77.832031 18.089844 L 80.464844 20.464844 L 81.820313 22.195313 L 83.175781 24.691406 L 84.929688 28.171875 L 87.238281 33.648438 "/>
<path style="fill:none;stroke-width:6;stroke-linecap:round;stroke-linejoin:round;stroke:rgb(100%,100%,100%);stroke-opacity:1;stroke-miterlimit:10;" d="M 5.1875 48.777344 L -1.28125 53.699219 L -9 58.484375 "/>
<path style="fill:none;stroke-width:6;stroke-linecap:round;stroke-linejoin:round;stroke:rgb(100%,100%,100%);stroke-opacity:1;stroke-miterlimit:10;" d="M 131.449219 35.03125 L 128.714844 32.136719 L 125.527344 27.886719 L 120.027344 18.75 "/>
<path style="fill:none;stroke-width:6;stroke-linecap:round;stroke-linejoin:round;stroke:rgb(100%,100%,100%);stroke-opacity:1;stroke-miterlimit:10;" d="M 95.585938 49.445313 L 98.160156 53.984375 L 101.203125 58.289063 L 104.171875 61.554688 L 108.542969 64.410156 "/>
<path style="fill:none;stroke-width:6;stroke-linecap:round;stroke-linejoin:round;stroke:rgb(100%,100%,100%);stroke-opacity:1;stroke-miterlimit:10;" d="M 60.25 24.5625 L 77.554688 10.570313 "/>
<path style="fill:none;stroke-width:6;stroke-linecap:round;stroke-linejoin:round;stroke:rgb(100%,100%,100%);stroke-opacity:1;stroke-miterlimit:10;" d="M 36.828125 25.015625 L 42.304688 23.015625 L 46.230469 21.78125 L 48.261719 21.296875 L 50.292969 21.296875 L 52.015625 21.84375 L 53.726563 23.835938 L 53.96875 25.035156 L 53.453125 26.851563 L 52.347656 28.199219 "/>
<path style="fill:none;stroke-width:6;stroke-linecap:round;stroke-linejoin:round;stroke:rgb(100%,100%,100%);stroke-opacity:1;stroke-miterlimit:10;" d="M 26.90625 37.128906 L 23.464844 38.976563 L 5.1875 48.777344 "/>
<path style="fill:none;stroke-width:6;stroke-linecap:round;stroke-linejoin:round;stroke:rgb(100%,100%,100%);stroke-opacity:1;stroke-miterlimit:10;" d="M 41.515625 2.238281 L 44.820313 -0.457031 L 48.042969 -2.738281 L 53.480469 -6.113281 L 54.996094 -7.007813 L 55.734375 -8.121094 L 55.925781 -9 "/>
<path style="fill:none;stroke-width:6;stroke-linecap:round;stroke-linejoin:round;stroke:rgb(100%,100%,100%);stroke-opacity:1;stroke-miterlimit:10;" d="M 69.195313 -9 L 68.328125 -7.773438 L 66.101563 -5.167969 L 65.234375 -4.046875 L 64.09375 -1.921875 L 63.351563 0.714844 L 63.339844 3.714844 L 63.769531 5.800781 L 64.792969 7.992188 L 66.414063 10.113281 L 67.960938 11.582031 L 70.042969 12.703125 "/>
<path style="fill:none;stroke-width:6;stroke-linecap:round;stroke-linejoin:round;stroke:rgb(100%,100%,100%);stroke-opacity:1;stroke-miterlimit:10;" d="M 76.46875 67.328125 L 81.96875 65.578125 L 84.3125 64.480469 L 86.34375 63.078125 L 88.332031 61.082031 L 90.21875 58.578125 L 91.300781 56.417969 L 91.96875 53.953125 L 92.121094 52.117188 L 91.96875 50.699219 L 91.558594 49.082031 L 90.84375 46.949219 L 88.84375 43.078125 "/>
<path style="fill:none;stroke-width:6;stroke-linecap:round;stroke-linejoin:round;stroke:rgb(100%,100%,100%);stroke-opacity:1;stroke-miterlimit:10;" d="M 13.757813 64.355469 L 25.375 75.773438 L 27.257813 75.972656 L 28.378906 75.332031 L 28.378906 73.53125 L 25.09375 58.550781 "/>
<path style="fill:none;stroke-width:6;stroke-linecap:round;stroke-linejoin:round;stroke:rgb(100%,100%,100%);stroke-opacity:1;stroke-miterlimit:10;" d="M 23.050781 33.71875 L 36.828125 25.015625 L 40.257813 22.429688 L 43.929688 20.257813 L 46.539063 19.226563 L 49.046875 18.679688 L 51.039063 18.816406 L 53.339844 19.46875 L 55.191406 20.566406 L 57.21875 22.183594 L 59.113281 23.523438 L 60.25 24.5625 "/>
<path style="fill:none;stroke-width:6;stroke-linecap:round;stroke-linejoin:round;stroke:rgb(100%,100%,100%);stroke-opacity:1;stroke-miterlimit:10;" d="M 120.027344 18.75 L 118.578125 15.886719 L 117.257813 13.441406 L 115.746094 11.609375 L 111.242188 7.683594 L 90.628906 -9 "/>
<path style="fill:none;stroke-width:6;stroke-linecap:round;stroke-linejoin:round;stroke:rgb(100%,100%,100%);stroke-opacity:1;stroke-miterlimit:10;" d="M 76.46875 67.328125 L 84.09375 66.324219 L 93.96875 65.074219 L 101.585938 66.15625 L 103.375 67.039063 L 105.574219 67.746094 L 107.457031 68.15625 L 110.511719 68.796875 L 119.070313 70.363281 "/>
<path style="fill:none;stroke-width:6;stroke-linecap:round;stroke-linejoin:round;stroke:rgb(100%,100%,100%);stroke-opacity:1;stroke-miterlimit:10;" d="M 32.21875 16.324219 L 19.96875 23.449219 L -7.269531 38.140625 "/>
<path style="fill:none;stroke-width:6;stroke-linecap:round;stroke-linejoin:round;stroke:rgb(100%,100%,100%);stroke-opacity:1;stroke-miterlimit:10;" d="M 164.996094 17.074219 L 162.59375 15.894531 L 160.117188 15.011719 L 156.941406 14.152344 L 152.847656 13.636719 L 147.347656 13.40625 L 141.683594 13.023438 L 137.820313 13.070313 L 134.144531 13.636719 L 131.222656 14.484375 L 128.117188 15.519531 L 124.023438 17.410156 L 120.027344 18.75 "/>
<path style="fill:none;stroke-width:6;stroke-linecap:round;stroke-linejoin:round;stroke:rgb(100%,100%,100%);stroke-opacity:1;stroke-miterlimit:10;" d="M 76.46875 67.328125 L 81.84375 64.078125 L 84.179688 62.179688 L 85.59375 60.074219 L 86.546875 58.152344 L 87.09375 56.328125 L 87.335938 54.378906 L 87.304688 52.308594 L 86.449219 49.007813 L 85.257813 46.363281 L 77.019531 32.296875 L 74.203125 29.082031 "/>
<path style="fill:none;stroke-width:6;stroke-linecap:round;stroke-linejoin:round;stroke:rgb(100%,100%,100%);stroke-opacity:1;stroke-miterlimit:10;" d="M 120.027344 18.75 L 118.484375 18.625 L 116.371094 18.03125 L 113.753906 16.726563 L 111.339844 15.246094 L 105.257813 10.707031 L 93.839844 1.214844 L 81.222656 -9 "/>
<path style="fill:none;stroke-width:6;stroke-linecap:round;stroke-linejoin:round;stroke:rgb(100%,100%,100%);stroke-opacity:1;stroke-miterlimit:10;" d="M 103.9375 58.058594 L 114.492188 61.40625 L 118.824219 62.019531 L 121.058594 62.058594 L 123.011719 61.945313 L 125.066406 61.585938 L 126.726563 60.972656 L 129.21875 59.53125 L 130.628906 58.230469 L 131.5625 56.894531 L 132.648438 54.761719 L 133.148438 52.621094 L 133.042969 51.261719 L 132.46875 50.105469 L 131.53125 49.386719 L 130.265625 49.078125 L 129.03125 49.277344 L 127.9375 49.824219 L 126.304688 52.292969 L 125.613281 54.042969 L 124.867188 56.054688 L 123.976563 57.976563 L 123.347656 58.867188 L 121.867188 59.496094 L 113.304688 58.441406 L 110.324219 56.84375 "/>
<path style="fill:none;stroke-width:6;stroke-linecap:round;stroke-linejoin:round;stroke:rgb(100%,100%,100%);stroke-opacity:1;stroke-miterlimit:10;" d="M 95.585938 49.445313 L 100.046875 54.472656 L 103.9375 58.058594 L 106.097656 59.742188 L 108.320313 60.898438 L 113.855469 62.648438 L 117.402344 63.648438 L 119.941406 64.046875 L 121.488281 64.179688 L 124.902344 63.996094 L 127.390625 63.089844 L 129.75 61.558594 L 131.601563 59.921875 L 133.269531 57.953125 L 135.136719 55.261719 L 135.660156 53.65625 L 135.820313 51.695313 L 135.960938 48.929688 L 135.683594 46.324219 L 135.386719 44.375 L 134.417969 41.191406 L 133.34375 38.421875 L 131.449219 35.03125 "/>
<path style="fill:none;stroke-width:6;stroke-linecap:round;stroke-linejoin:round;stroke:rgb(100%,100%,100%);stroke-opacity:1;stroke-miterlimit:10;" d="M -2.78125 112.199219 L 5.71875 107.328125 L 12.535156 102.089844 L 17.09375 97.328125 L 24.84375 90.824219 L 32.96875 85.828125 L 38.070313 83.226563 L 42.96875 81.449219 L 50.925781 78.84375 L 57.25 76.75 L 62.566406 74.796875 L 69.96875 71.324219 L 76.46875 67.328125 "/>
<path style="fill:none;stroke-width:6;stroke-linecap:round;stroke-linejoin:round;stroke:rgb(100%,100%,100%);stroke-opacity:1;stroke-miterlimit:10;" d="M -2.78125 112.199219 L 0.34375 108.703125 L 4.34375 102.199219 L 7.507813 97.269531 L 10.425781 94.304688 L 18.742188 87.375 L 23.652344 83.851563 L 27.808594 81.195313 L 31.84375 79.078125 L 42.71875 74.203125 L 49.96875 71.953125 L 56.15625 71.003906 L 59.71875 70.703125 L 66.96875 69.453125 L 76.46875 67.328125 "/>
<path style="fill:none;stroke-width:6;stroke-linecap:round;stroke-linejoin:round;stroke:rgb(100%,100%,100%);stroke-opacity:1;stroke-miterlimit:10;" d="M 65.832031 -9 L 64.3125 -7.585938 L 51.289063 0.636719 L 31.34375 13.203125 L 9.09375 26.078125 L 2.96875 30.328125 L -2.78125 34.324219 L -7.269531 38.140625 "/>
<path style="fill:none;stroke-width:6;stroke-linecap:round;stroke-linejoin:round;stroke:rgb(100%,100%,100%);stroke-opacity:1;stroke-miterlimit:10;" d="M 80.25 12.707031 L 77.554688 10.570313 L 73.375 7.25 L 70.25 4.773438 L 68.882813 3.15625 L 68.140625 1.332031 L 68.160156 -0.167969 L 68.617188 -1.632813 L 69.492188 -3.152344 L 70.761719 -4.785156 L 72.320313 -6.378906 L 73.308594 -6.96875 L 74.828125 -7.425781 L 76.503906 -7.578125 L 78.003906 -7.121094 L 78.933594 -6.609375 L 79.980469 -5.46875 L 82.542969 -1.15625 L 85.507813 3.519531 L 88.222656 8.019531 L 89.648438 9.804688 L 94.007813 13.636719 L 101.503906 19.546875 L 105.882813 23.222656 L 108.578125 25.378906 L 109.867188 26.113281 L 111.058594 26.324219 L 112.476563 25.871094 L 113.8125 24.375 L 114.171875 22.902344 L 114.140625 21.390625 L 113.753906 19.714844 L 113.140625 18.589844 L 111.988281 17.308594 L 109.636719 14.957031 L 105.257813 10.707031 "/>
<path style="fill:none;stroke-width:6;stroke-linecap:round;stroke-linejoin:round;stroke:rgb(100%,100%,100%);stroke-opacity:1;stroke-miterlimit:10;" d="M -9 65.921875 L -6.625 63.796875 L -3.863281 62.035156 L -0.617188 60.875 L 2.984375 60.351563 L 5.949219 60.3125 L 9.03125 60.59375 L 12.558594 60.953125 L 16.402344 61.074219 L 18.246094 60.59375 L 19.847656 59.550781 L 21.207031 58.109375 L 22.53125 55.707031 L 22.972656 53.902344 L 22.769531 51.703125 L 22.128906 49.9375 L 21.328125 48.578125 L 20.246094 47.335938 L 18.527344 46.214844 L 16.722656 45.613281 L 13.71875 45.65625 L 9.996094 46.933594 L 5.1875 48.777344 "/>
<path style="fill:none;stroke-width:6;stroke-linecap:round;stroke-linejoin:round;stroke:rgb(100%,100%,100%);stroke-opacity:1;stroke-miterlimit:10;" d="M -9 81.347656 L -7.507813 79.445313 L -4.90625 76.132813 L -1.042969 71.484375 L 2.089844 67.714844 L 3.746094 65.71875 L 5.070313 64.757813 L 6.832031 64.238281 L 10.394531 64.15625 L 13.757813 64.355469 L 16.757813 64.125 L 18.804688 63.675781 L 20.207031 62.996094 L 21.691406 62.074219 L 23.613281 60.351563 L 25.09375 58.550781 L 26.242188 51.0625 L 27.464844 47.03125 L 28.269531 44.375 L 31.445313 39.84375 L 35.230469 37.277344 L 40.734375 34.359375 L 43.539063 32.871094 L 46.488281 31.304688 L 52.347656 28.199219 L 53.785156 27.4375 L 60.25 24.5625 "/>
<path style="fill:none;stroke-width:6;stroke-linecap:round;stroke-linejoin:round;stroke:rgb(100%,100%,100%);stroke-opacity:1;stroke-miterlimit:10;" d="M 119.070313 70.363281 L 131.929688 72.988281 L 142.71875 75.34375 L 148.792969 76.285156 L 151.480469 76.332031 L 154.824219 75.484375 L 157.695313 74.257813 L 160.902344 72.042969 L 164.101563 69.359375 L 167.117188 66.203125 L 169.238281 63.421875 L 171.121094 59.328125 L 172.203125 55.886719 L 172.816406 52.824219 L 173.007813 48.773438 L 172.675781 44.582031 L 171.632813 39.929688 L 169.898438 35.113281 L 168.058594 31.394531 L 165.421875 27.484375 L 162.265625 23.90625 L 160.097656 21.878906 L 156.800781 19.523438 L 153.269531 17.78125 L 150.488281 16.792969 L 147.664063 16.132813 L 143.753906 15.707031 L 139.703125 15.566406 L 136.40625 15.894531 L 133.769531 16.414063 L 131.222656 17.121094 L 128.804688 18.0625 L 126.722656 18.863281 L 124.488281 19.058594 "/>
<path style="fill:none;stroke-width:6;stroke-linecap:round;stroke-linejoin:round;stroke:rgb(100%,100%,100%);stroke-opacity:1;stroke-miterlimit:10;" d="M -9 33.058594 L 0.214844 25.730469 L 16.71875 17.574219 L 38.699219 3.824219 L 41.515625 2.238281 L 45.746094 0.285156 L 49.074219 -1.488281 L 55.757813 -5.027344 L 60.515625 -7.742188 L 62.1875 -9 "/>
<path style="fill:none;stroke-width:10;stroke-linecap:butt;stroke-linejoin:round;stroke:rgb(53.333333%,53.333333%,53.333333%);stroke-opacity:1;stroke-miterlimit:10;" d="M 67.582031 14.628906 L 73.019531 17.761719 L 75.90625 20.007813 "/>
<path style="fill:none;stroke-width:10;stroke-linecap:butt;stroke-linejoin:round;stroke:rgb(53.333333%,53.333333%,53.333333%);stroke-opacity:1;stroke-miterlimit:10;" d="M 55.164063 4.722656 L 58.066406 0.769531 L 59.40625 -1.683594 L 60.292969 -3.851563 L 61.261719 -6.472656 L 62.054688 -9 "/>
<path style="fill:none;stroke-width:10;stroke-linecap:butt;stroke-linejoin:round;stroke:rgb(53.333333%,53.333333%,53.333333%);stroke-opacity:1;stroke-miterlimit:10;" d="M 55.164063 4.722656 L 57.46875 0.113281 L 58.378906 -2.253906 L 59.148438 -4.964844 L 59.691406 -7.015625 L 60.035156 -9 "/>
<path style="fill:none;stroke-width:8;stroke-linecap:butt;stroke-linejoin:round;stroke:rgb(53.333333%,53.333333%,53.333333%);stroke-opacity:1;stroke-miterlimit:10;" d="M 70.042969 12.703125 L 74.582031 15.363281 L 77.832031 18.089844 "/>
<path style="fill:none;stroke-width:8;stroke-linecap:butt;stroke-linejoin:round;stroke:rgb(53.333333%,53.333333%,53.333333%);stroke-opacity:1;stroke-miterlimit:10;" d="M 74.203125 29.082031 L 70.496094 26.238281 L 65.167969 23.152344 "/>
<path style="fill:none;stroke-width:8;stroke-linecap:butt;stroke-linejoin:round;stroke:rgb(53.333333%,53.333333%,53.333333%);stroke-opacity:1;stroke-miterlimit:10;" d="M 84.890625 40.917969 L 78.21875 31.824219 L 76.59375 29.859375 L 74.96875 28.203125 L 73.277344 26.660156 L 70.96875 25.328125 L 68.222656 24.136719 L 65.167969 23.152344 "/>
<path style="fill:none;stroke-width:8;stroke-linecap:butt;stroke-linejoin:round;stroke:rgb(53.333333%,53.333333%,53.333333%);stroke-opacity:1;stroke-miterlimit:10;" d="M 63.34375 17.707031 L 55.34375 15.703125 L 49.84375 14.578125 L 43.46875 13.953125 L 37.34375 14.578125 L 32.21875 16.324219 "/>
<path style="fill:none;stroke-width:8;stroke-linecap:butt;stroke-linejoin:round;stroke:rgb(53.333333%,53.333333%,53.333333%);stroke-opacity:1;stroke-miterlimit:10;" d="M 84.890625 40.917969 L 83.0625 36.371094 L 81.261719 32.824219 L 79.066406 29.253906 L 76.503906 26.234375 L 73.28125 23.414063 L 69.542969 20.898438 L 63.34375 17.707031 "/>
<path style="fill:none;stroke-width:8;stroke-linecap:butt;stroke-linejoin:round;stroke:rgb(53.333333%,53.333333%,53.333333%);stroke-opacity:1;stroke-miterlimit:10;" d="M 88.84375 43.078125 L 80.769531 28.574219 L 78.742188 26.269531 L 76.21875 23.902344 L 73.71875 22.15625 L 70.820313 20.46875 L 66.898438 18.964844 L 63.34375 17.707031 "/>
<path style="fill:none;stroke-width:8;stroke-linecap:butt;stroke-linejoin:round;stroke:rgb(53.333333%,53.333333%,53.333333%);stroke-opacity:1;stroke-miterlimit:10;" d="M 65.167969 23.152344 L 62.503906 22.558594 L 59.75 22.304688 L 56.519531 22.527344 L 53.824219 22.929688 L 51.097656 23.808594 L 47.933594 25.285156 L 41.292969 28.980469 L 26.90625 37.128906 "/>
<path style="fill:none;stroke-width:8;stroke-linecap:butt;stroke-linejoin:round;stroke:rgb(53.333333%,53.333333%,53.333333%);stroke-opacity:1;stroke-miterlimit:10;" d="M 115.632813 66.386719 L 131.367188 69.484375 L 133.984375 70.070313 L 136.457031 70.746094 L 138.253906 71.523438 L 140.019531 72.394531 L 145.308594 75.238281 L 153.984375 79.96875 L 157.222656 81.058594 L 160.550781 81.554688 L 163.882813 81.171875 L 167.664063 80.144531 L 170.414063 78.621094 L 173.707031 75.683594 L 176.582031 71.335938 L 179.046875 66.050781 L 180.398438 62.058594 L 181.222656 57.128906 L 181.75 52.132813 L 181.515625 47.554688 L 180.988281 42.449219 L 180.105469 38.21875 L 178.695313 33.699219 L 177.230469 30.171875 L 175.523438 27.003906 L 173.203125 23.773438 L 169.378906 20.085938 L 164.996094 17.074219 "/>
<path style="fill:none;stroke-width:8;stroke-linecap:butt;stroke-linejoin:round;stroke:rgb(53.333333%,53.333333%,53.333333%);stroke-opacity:1;stroke-miterlimit:10;" d="M -7 120.460938 L 3.21875 114.953125 L 11.699219 110.199219 L 81.71875 70.949219 L 85.507813 68.175781 L 87.863281 65.074219 L 89.589844 61.972656 L 90.375 59.25 L 90.652344 55.738281 L 90.253906 52.222656 L 89.390625 49.269531 L 86.257813 43.179688 L 84.890625 40.917969 "/>
<path style="fill:none;stroke-width:8;stroke-linecap:round;stroke-linejoin:round;stroke:rgb(99.215686%,57.254902%,22.745098%);stroke-opacity:1;stroke-miterlimit:10;" d="M 67.582031 14.628906 L 73.019531 17.761719 L 75.90625 20.007813 "/>
<path style="fill:none;stroke-width:8;stroke-linecap:round;stroke-linejoin:round;stroke:rgb(99.215686%,57.254902%,22.745098%);stroke-opacity:1;stroke-miterlimit:10;" d="M 55.164063 4.722656 L 58.066406 0.769531 L 59.40625 -1.683594 L 60.292969 -3.851563 L 61.261719 -6.472656 L 62.054688 -9 "/>
<path style="fill:none;stroke-width:8;stroke-linecap:round;stroke-linejoin:round;stroke:rgb(99.215686%,57.254902%,22.745098%);stroke-opacity:1;stroke-miterlimit:10;" d="M 55.164063 4.722656 L 57.46875 0.113281 L 58.378906 -2.253906 L 59.148438 -4.964844 L 59.691406 -7.015625 L 60.035156 -9 "/>
<path style="fill:none;stroke-width:6;stroke-linecap:round;stroke-linejoin:round;stroke:rgb(100%,100%,100%);stroke-opacity:1;stroke-miterlimit:10;" d="M 70.042969 12.703125 L 74.582031 15.363281 L 77.832031 18.089844 "/>
<path style="fill:none;stroke-width:6;stroke-linecap:round;stroke-linejoin:round;stroke:rgb(100%,100%,100%);stroke-opacity:1;stroke-miterlimit:10;" d="M 74.203125 29.082031 L 70.496094 26.238281 L 65.167969 23.152344 "/>
<path style="fill:none;stroke-width:6;stroke-linecap:round;stroke-linejoin:round;stroke:rgb(100%,100%,100%);stroke-opacity:1;stroke-miterlimit:10;" d="M 84.890625 40.917969 L 78.21875 31.824219 L 76.59375 29.859375 L 74.96875 28.203125 L 73.277344 26.660156 L 70.96875 25.328125 L 68.222656 24.136719 L 65.167969 23.152344 "/>
<path style="fill:none;stroke-width:6;stroke-linecap:round;stroke-linejoin:round;stroke:rgb(100%,100%,100%);stroke-opacity:1;stroke-miterlimit:10;" d="M 63.34375 17.707031 L 55.34375 15.703125 L 49.84375 14.578125 L 43.46875 13.953125 L 37.34375 14.578125 L 32.21875 16.324219 "/>
<path style="fill:none;stroke-width:6;stroke-linecap:round;stroke-linejoin:round;stroke:rgb(100%,100%,100%);stroke-opacity:1;stroke-miterlimit:10;" d="M 84.890625 40.917969 L 83.0625 36.371094 L 81.261719 32.824219 L 79.066406 29.253906 L 76.503906 26.234375 L 73.28125 23.414063 L 69.542969 20.898438 L 63.34375 17.707031 "/>
<path style="fill:none;stroke-width:6;stroke-linecap:round;stroke-linejoin:round;stroke:rgb(100%,100%,100%);stroke-opacity:1;stroke-miterlimit:10;" d="M 88.84375 43.078125 L 80.769531 28.574219 L 78.742188 26.269531 L 76.21875 23.902344 L 73.71875 22.15625 L 70.820313 20.46875 L 66.898438 18.964844 L 63.34375 17.707031 "/>
<path style="fill:none;stroke-width:6;stroke-linecap:round;stroke-linejoin:round;stroke:rgb(100%,100%,100%);stroke-opacity:1;stroke-miterlimit:10;" d="M 65.167969 23.152344 L 62.503906 22.558594 L 59.75 22.304688 L 56.519531 22.527344 L 53.824219 22.929688 L 51.097656 23.808594 L 47.933594 25.285156 L 41.292969 28.980469 L 26.90625 37.128906 "/>
<path style="fill:none;stroke-width:6;stroke-linecap:round;stroke-linejoin:round;stroke:rgb(100%,100%,100%);stroke-opacity:1;stroke-miterlimit:10;" d="M 115.632813 66.386719 L 131.367188 69.484375 L 133.984375 70.070313 L 136.457031 70.746094 L 138.253906 71.523438 L 140.019531 72.394531 L 145.308594 75.238281 L 153.984375 79.96875 L 157.222656 81.058594 L 160.550781 81.554688 L 163.882813 81.171875 L 167.664063 80.144531 L 170.414063 78.621094 L 173.707031 75.683594 L 176.582031 71.335938 L 179.046875 66.050781 L 180.398438 62.058594 L 181.222656 57.128906 L 181.75 52.132813 L 181.515625 47.554688 L 180.988281 42.449219 L 180.105469 38.21875 L 178.695313 33.699219 L 177.230469 30.171875 L 175.523438 27.003906 L 173.203125 23.773438 L 169.378906 20.085938 L 164.996094 17.074219 "/>
<path style="fill:none;stroke-width:6;stroke-linecap:round;stroke-linejoin:round;stroke:rgb(100%,100%,100%);stroke-opacity:1;stroke-miterlimit:10;" d="M -7 120.460938 L 3.21875 114.953125 L 11.699219 110.199219 L 81.71875 70.949219 L 85.507813 68.175781 L 87.863281 65.074219 L 89.589844 61.972656 L 90.375 59.25 L 90.652344 55.738281 L 90.253906 52.222656 L 89.390625 49.269531 L 86.257813 43.179688 L 84.890625 40.917969 "/>
<path style="fill:none;stroke-width:19;stroke-linecap:butt;stroke-linejoin:round;stroke:rgb(70.588235%,70.588235%,70.588235%);stroke-opacity:1;stroke-miterlimit:10;" d="M 275 255.925781 L 266.261719 270.617188 L 263.652344 275 "/>
<path style="fill:none;stroke-width:4;stroke-linecap:round;stroke-linejoin:round;stroke:rgb(70.588235%,70.588235%,70.588235%);stroke-opacity:1;stroke-miterlimit:10;" d="M -5 197.5 L 9.042969 222.929688 L 22.332031 246.675781 L 25.382813 252.125 L 26.96875 255.574219 L 27.683594 259.460938 L 27.75 260 "/>
<path style="fill:none;stroke-width:4;stroke-linecap:round;stroke-linejoin:round;stroke:rgb(70.588235%,70.588235%,70.588235%);stroke-opacity:1;stroke-miterlimit:10;" d="M 260 225.210938 L 255.863281 222.058594 L 236.859375 207.402344 L 224.273438 197.964844 L 215.640625 191.363281 L 205.816406 176.746094 L 200.503906 167.246094 L 196.605469 160.230469 L 189.777344 147.835938 L 174.386719 120.316406 L 171.792969 115.59375 L 169.820313 112.109375 L 167.777344 109.117188 L 163.546875 104.230469 "/>
<path style="fill:none;stroke-width:4;stroke-linecap:round;stroke-linejoin:round;stroke:rgb(70.588235%,70.588235%,70.588235%);stroke-opacity:1;stroke-miterlimit:10;" d="M 110.765625 132.769531 L 105.171875 162.6875 L 126.039063 199.722656 L 122.632813 218.671875 L 139.558594 248.773438 "/>
<path style="fill:none;stroke-width:4;stroke-linecap:round;stroke-linejoin:round;stroke:rgb(70.588235%,70.588235%,70.588235%);stroke-opacity:1;stroke-miterlimit:10;" d="M 22.332031 246.675781 L 23.152344 250.847656 L 23.273438 253.410156 L 23.027344 256.34375 L 21.65625 260 "/>
<path style="fill:none;stroke-width:4;stroke-linecap:round;stroke-linejoin:round;stroke:rgb(70.588235%,70.588235%,70.588235%);stroke-opacity:1;stroke-miterlimit:10;" d="M 117.554688 204.433594 L 126.039063 199.722656 L 196.605469 160.230469 "/>
<path style="fill:none;stroke-width:4;stroke-linecap:round;stroke-linejoin:round;stroke:rgb(70.588235%,70.588235%,70.588235%);stroke-opacity:1;stroke-miterlimit:10;" d="M 233.378906 260 L 255.863281 222.058594 L 260 215.261719 "/>
<path style="fill:none;stroke-width:4;stroke-linecap:round;stroke-linejoin:round;stroke:rgb(70.588235%,70.588235%,70.588235%);stroke-opacity:1;stroke-miterlimit:10;" d="M 205.328125 260 L 215.675781 242.355469 L 236.859375 207.402344 L 260 168.242188 "/>
<path style="fill:none;stroke-width:4;stroke-linecap:round;stroke-linejoin:round;stroke:rgb(70.588235%,70.588235%,70.588235%);stroke-opacity:1;stroke-miterlimit:10;" d="M 163.546875 104.230469 L 161.273438 102.167969 L 158.820313 100.191406 L 154.121094 97.128906 L 149.046875 94.234375 L 143.425781 90.828125 L 139.203125 88.886719 L 134.8125 87.390625 L 128.75 86.027344 L 119.960938 84.140625 L 110.996094 82.957031 "/>
<path style="fill:none;stroke-width:4;stroke-linecap:round;stroke-linejoin:round;stroke:rgb(70.588235%,70.588235%,70.588235%);stroke-opacity:1;stroke-miterlimit:10;" d="M 139.558594 248.773438 L 147.324219 260 "/>
<path style="fill:none;stroke-width:4;stroke-linecap:round;stroke-linejoin:round;stroke:rgb(70.588235%,70.588235%,70.588235%);stroke-opacity:1;stroke-miterlimit:10;" d="M 97.597656 200.050781 L 78.339844 165.605469 "/>
<path style="fill:none;stroke-width:4;stroke-linecap:round;stroke-linejoin:round;stroke:rgb(70.588235%,70.588235%,70.588235%);stroke-opacity:1;stroke-miterlimit:10;" d="M 108.1875 222.363281 L 108.496094 218.378906 L 109.167969 215.558594 L 110.421875 212.425781 L 112.03125 209.742188 L 114.023438 207.425781 L 116.0625 205.535156 L 117.554688 204.433594 "/>
<path style="fill:none;stroke-width:4;stroke-linecap:round;stroke-linejoin:round;stroke:rgb(70.588235%,70.588235%,70.588235%);stroke-opacity:1;stroke-miterlimit:10;" d="M 97.597656 200.050781 L 103.410156 210.671875 L 105.328125 213.945313 L 106.605469 216.382813 L 107.324219 218.417969 L 107.804688 220.335938 L 108.1875 222.363281 "/>
<path style="fill:none;stroke-width:4;stroke-linecap:round;stroke-linejoin:round;stroke:rgb(70.588235%,70.588235%,70.588235%);stroke-opacity:1;stroke-miterlimit:10;" d="M 97.597656 200.050781 L 99.65625 202.644531 L 101.929688 204.402344 L 104.207031 205.636719 L 106.605469 206.355469 L 107.8125 206.53125 L 109.148438 206.742188 L 110.871094 206.710938 L 112.121094 206.5625 L 114.203125 205.964844 L 117.554688 204.433594 "/>
<path style="fill:none;stroke-width:4;stroke-linecap:round;stroke-linejoin:round;stroke:rgb(70.588235%,70.588235%,70.588235%);stroke-opacity:1;stroke-miterlimit:10;" d="M 108.1875 222.363281 L 112.8125 260 "/>
<path style="fill:none;stroke-width:4;stroke-linecap:round;stroke-linejoin:round;stroke:rgb(70.588235%,70.588235%,70.588235%);stroke-opacity:1;stroke-miterlimit:10;" d="M 119.667969 260 L 139.558594 248.773438 L 202.132813 213.648438 L 215.640625 191.363281 "/>
</g>
</svg>

