<?xml version="1.0" encoding="UTF-8"?>
<svg xmlns="http://www.w3.org/2000/svg" xmlns:xlink="http://www.w3.org/1999/xlink" width="256pt" height="256pt" viewBox="0 0 256 256" version="1.1">
<g id="surface2">
<rect x="0" y="0" width="256" height="256" style="fill:rgb(60%,70.196078%,80%);fill-opacity:1;stroke:none;"/>
<path style=" stroke:none;fill-rule:evenodd;fill:rgb(94.901961%,93.72549%,91.372549%);fill-opacity:1;" d="M 259 -4 L 259 128.3125 L 239.527344 124.90625 L 187.589844 114.21875 L 164.527344 109.28125 L 146.339844 105.65625 L 139.152344 105.15625 L 129.214844 103.15625 L 124.914063 103.164063 L 120.027344 100.65625 L 114.464844 99.71875 L 111.277344 100.28125 L 100.214844 98.34375 L 85.464844 94.34375 L 79.027344 94.09375 L 63.699219 92.914063 L 53.078125 90.78125 L 49.652344 95.46875 L 44.027344 96.59375 L 33.714844 89.347656 L 31.84375 88.027344 L 29.839844 88.15625 L 28.816406 85.902344 L 34.027344 86.59375 L 36.777344 88.15625 L 40.152344 89.28125 L 42.714844 89.84375 L 44.839844 89.21875 L 45.089844 87.65625 L 44.527344 86.40625 L 29.339844 83.402344 L 25.652344 82.78125 L 24.035156 84.941406 L 19.046875 83.9375 L 14.839844 83.09375 L 9.445313 85.449219 L 6.589844 84.90625 L -2.535156 85.15625 L -4 83.71875 L -4 111.753906 L -1.597656 113.71875 L 5.945313 115.972656 L 12.964844 110.78125 L 17.214844 110.34375 L 20.652344 114.40625 L 22.632813 116.121094 L 24.402344 115.71875 L 25.703125 117.21875 L 29.027344 116.40625 L 30.402344 118.03125 L 32.089844 122.59375 L 33.839844 124.828125 L 35.589844 124.53125 L 41.277344 132.28125 L 44.527344 133.90625 L 44.902344 137.152344 L 57.726563 144.105469 L 62.9375 146.851563 L 68.929688 151.707031 L 76.792969 160.46875 L 81.09375 167.863281 L 97.519531 193.382813 L 105.617188 203.972656 L 114.039063 211.71875 L 125.609375 217.152344 L 132.042969 219.289063 L 140.128906 219.105469 L 144.75 181.375 L 257.730469 205.90625 L 258.328125 226.308594 L 259 226.3125 L 259 259 L -4 259 L -4 -4 Z M 259 -4 "/>
<path style=" stroke:none;fill-rule:evenodd;fill:rgb(81.960784%,81.568627%,80.392157%);fill-opacity:1;" d="M -4 260 L 260 260 L 78.707031 260 L -4 173.503906 Z M -4 260 "/>
<path style="fill:none;stroke-width:1;stroke-linecap:round;stroke-linejoin:round;stroke:rgb(81.960784%,81.960784%,81.960784%);stroke-opacity:1;stroke-miterlimit:10;" d="M -4 260 L 260 260 L 78.707031 260 L -4 173.503906 L -4 260 "/>
</g>
</svg>

