<?xml version="1.0" encoding="UTF-8"?>
<svg xmlns="http://www.w3.org/2000/svg" xmlns:xlink="http://www.w3.org/1999/xlink" width="256pt" height="256pt" viewBox="0 0 256 256" version="1.1">
<g id="surface2">
<rect x="0" y="0" width="256" height="256" style="fill:rgb(94.901961%,93.72549%,91.372549%);fill-opacity:1;stroke:none;"/>
<path style="fill:none;stroke-width:8;stroke-linecap:round;stroke-linejoin:round;stroke:rgb(75.686275%,70.980392%,61.568627%);stroke-opacity:1;stroke-miterlimit:10;" d="M 264 76.4375 L 257.78125 67.125 L 255.078125 63.820313 L 248.789063 57.765625 L 243.636719 54.066406 L 237.160156 50.011719 L 229.214844 46.117188 L 219.472656 42.875 L 206.9375 37.96875 L 202.71875 35.644531 L 198.6875 32.566406 L 183.636719 19.050781 L 161.078125 -2.414063 L 153.292969 -9 M 43.734375 -9 L 44.664063 -5.980469 L 44.945313 4.949219 L 44.476563 9.367188 L 42.941406 15.714844 "/>
<path style="fill:none;stroke-width:6;stroke-linecap:round;stroke-linejoin:round;stroke:rgb(100%,100%,100%);stroke-opacity:1;stroke-miterlimit:10;" d="M 264 76.4375 L 257.78125 67.125 L 255.078125 63.820313 L 248.789063 57.765625 L 243.636719 54.066406 L 237.160156 50.011719 L 229.214844 46.117188 L 219.472656 42.875 L 206.9375 37.96875 L 202.71875 35.644531 L 198.6875 32.566406 L 183.636719 19.050781 L 161.078125 -2.414063 L 153.292969 -9 M 43.734375 -9 L 44.664063 -5.980469 L 44.945313 4.949219 L 44.476563 9.367188 L 42.941406 15.714844 "/>
</g>
</svg>

