<?xml version="1.0" encoding="UTF-8"?>
<svg xmlns="http://www.w3.org/2000/svg" xmlns:xlink="http://www.w3.org/1999/xlink" width="256pt" height="256pt" viewBox="0 0 256 256" version="1.1">
<g id="surface2">
<rect x="0" y="0" width="256" height="256" style="fill:rgb(94.901961%,93.72549%,91.372549%);fill-opacity:1;stroke:none;"/>
<path style=" stroke:none;fill-rule:evenodd;fill:rgb(70.980392%,82.352941%,61.176471%);fill-opacity:1;" d="M -4 158.992188 L -3.1875 159.558594 L 1.1875 161.375 L 33.917969 169.132813 L 42.101563 166.011719 L 44.871094 156.476563 L 43.335938 146.121094 L 40.375 143.8125 L 34.875 143.625 L 26.125 144.375 L 19.4375 143.75 L 14.375 143.871094 L 9.75 144.5 L 5.1875 144.3125 L 0.25 143.5 L -4 142.355469 Z M -4 158.992188 "/>
<path style=" stroke:none;fill-rule:evenodd;fill:rgb(81.960784%,81.568627%,80.392157%);fill-opacity:1;" d="M 8.253906 168.269531 L 24.320313 172.59375 L 25.699219 167.472656 L 9.632813 163.152344 Z M 8.253906 168.269531 "/>
<path style="fill:none;stroke-width:1;stroke-linecap:round;stroke-linejoin:round;stroke:rgb(81.960784%,81.960784%,81.960784%);stroke-opacity:1;stroke-miterlimit:10;" d="M 8.253906 168.269531 L 24.320313 172.59375 L 25.699219 167.472656 L 9.632813 163.152344 L 8.253906 168.269531 "/>
<path style=" stroke:none;fill-rule:evenodd;fill:rgb(60%,70.196078%,80%);fill-opacity:1;" d="M -4 141.097656 L 1.753906 142.609375 L 25.15625 142.609375 L 39.953125 141.210938 L 45.15625 145.410156 L 49.152344 153.414063 L 51.554688 149.210938 L 56.953125 143.410156 L 60.152344 135.210938 L 79.753906 125.414063 L 112.554688 106.609375 L 140.152344 97.011719 L 175.953125 89.8125 L 202.152344 86.210938 L 223.554688 87.214844 L 237.152344 92.613281 L 254.15625 100.011719 L 259 103.859375 L 259 259 L 259 45.363281 L 249.355469 39.8125 L 230.964844 33.769531 L 212.363281 31.769531 L 196.953125 32.8125 L 171.355469 35.210938 L 148.15625 39.011719 L 114.152344 49.011719 L 98.953125 53.8125 L 94.152344 58.210938 L 88.953125 58.410156 L 85.554688 62.210938 L 39.554688 84.613281 L 19.554688 93.210938 L 0.152344 95.414063 L -4 93.929688 Z M -4 141.097656 "/>
<path style="fill:none;stroke-width:1;stroke-linecap:round;stroke-linejoin:round;stroke:rgb(70.196078%,77.647059%,83.137255%);stroke-opacity:1;stroke-miterlimit:10;" d="M -4 141.097656 L 1.753906 142.609375 L 25.15625 142.609375 L 39.953125 141.210938 L 45.15625 145.410156 L 49.152344 153.414063 L 51.554688 149.210938 L 56.953125 143.410156 L 60.152344 135.210938 L 79.753906 125.414063 L 112.554688 106.609375 L 140.152344 97.011719 L 175.953125 89.8125 L 202.152344 86.210938 L 223.554688 87.214844 L 237.152344 92.613281 L 254.15625 100.011719 L 259 103.859375 L 259 259 L 259 45.363281 L 249.355469 39.8125 L 230.964844 33.769531 L 212.363281 31.769531 L 196.953125 32.8125 L 171.355469 35.210938 L 148.15625 39.011719 L 114.152344 49.011719 L 98.953125 53.8125 L 94.152344 58.210938 L 88.953125 58.410156 L 85.554688 62.210938 L 39.554688 84.613281 L 19.554688 93.210938 L 0.152344 95.414063 L -4 93.929688 L -4 141.097656 "/>
<path style="fill:none;stroke-width:16;stroke-linecap:round;stroke-linejoin:round;stroke:rgb(60%,70.196078%,80%);stroke-opacity:1;stroke-miterlimit:10;" d="M -17 110.78125 L 22.714844 122.519531 L 85.242188 91.257813 L 162.160156 70.910156 L 196.402344 64.957031 L 245.03125 70.417969 L 272 90.902344 "/>
<path style="fill:none;stroke-width:6;stroke-linecap:round;stroke-linejoin:round;stroke:rgb(60%,70.196078%,80%);stroke-opacity:1;stroke-miterlimit:10;" d="M -7 113.738281 L 22.714844 122.519531 L 85.242188 91.257813 L 162.160156 70.910156 L 196.402344 64.957031 L 245.03125 70.417969 L 262 83.304688 "/>
<path style="fill:none;stroke-width:2;stroke-linecap:round;stroke-linejoin:round;stroke:rgb(60%,70.196078%,80%);stroke-opacity:1;stroke-miterlimit:10;" d="M -3 235.511719 L -0.371094 230.824219 L 4.988281 225.058594 L 9.734375 223.398438 L 11.351563 224.058594 L 11.117188 228.988281 L 12.605469 232.375 L 16.929688 234.976563 L 20.582031 235.636719 L 24.308594 233.765625 L 51.820313 193.3125 L 52.117188 188.605469 L 49.15625 175.625 L 49.152344 153.414063 "/>
<path style="fill:none;stroke-width:1;stroke-linecap:butt;stroke-linejoin:round;stroke:rgb(46.666667%,46.666667%,46.666667%);stroke-opacity:1;stroke-dasharray:2,2;stroke-miterlimit:10;" d="M 230.273438 6.839844 L 257 21.210938 "/>
<path style="fill:none;stroke-width:1;stroke-linecap:butt;stroke-linejoin:round;stroke:rgb(46.666667%,46.666667%,46.666667%);stroke-opacity:1;stroke-dasharray:2,2;stroke-miterlimit:10;" d="M 221.449219 2.042969 L 230.273438 6.839844 "/>
<path style="fill:none;stroke-width:1;stroke-linecap:butt;stroke-linejoin:round;stroke:rgb(46.666667%,46.666667%,46.666667%);stroke-opacity:1;stroke-dasharray:2,2;stroke-miterlimit:10;" d="M 213.820313 -2 L 221.449219 2.042969 "/>
<path style="fill:none;stroke-width:1;stroke-linecap:round;stroke-linejoin:round;stroke:rgb(100%,100%,100%);stroke-opacity:1;stroke-dasharray:2,3;stroke-miterlimit:10;" d="M 25.738281 165.78125 L 25.125 167.753906 L 23.5 169.925781 L 22.386719 174.242188 "/>
<path style="fill:none;stroke-width:1;stroke-linecap:round;stroke-linejoin:round;stroke:rgb(100%,100%,100%);stroke-opacity:1;stroke-dasharray:2,3;stroke-miterlimit:10;" d="M 216.511719 29.082031 L 221.246094 6.023438 L 222.230469 1.449219 L 223.160156 -2 "/>
<path style="fill:none;stroke-width:1;stroke-linecap:round;stroke-linejoin:round;stroke:rgb(100%,100%,100%);stroke-opacity:1;stroke-dasharray:2,3;stroke-miterlimit:10;" d="M 167.828125 181.890625 L 170.582031 181.671875 L 175.402344 179.347656 L 184.003906 165.484375 L 189.789063 144.871094 L 201.617188 101.742188 "/>
<path style="fill:none;stroke-width:1;stroke-linecap:round;stroke-linejoin:round;stroke:rgb(100%,100%,100%);stroke-opacity:1;stroke-dasharray:2,3;stroke-miterlimit:10;" d="M -2 158.976563 L -0.210938 159.644531 L 25.738281 165.78125 L 45.898438 171.109375 "/>
<path style="fill:none;stroke-width:1;stroke-linecap:round;stroke-linejoin:round;stroke:rgb(100%,100%,100%);stroke-opacity:1;stroke-dasharray:2,3;stroke-miterlimit:10;" d="M 51.050781 172.292969 L 63.3125 173.371094 L 65.398438 174.988281 L 65.484375 179.117188 L 65.898438 181.546875 L 68.046875 182.882813 L 134.976563 198.195313 L 144.574219 198.597656 L 151.375 196.796875 L 159.378906 192.597656 L 163.777344 189.398438 L 167.375 185.195313 L 167.828125 181.890625 L 182.175781 140.796875 L 193.449219 105.636719 L 194.96875 99.898438 L 197.078125 97.351563 L 201.203125 96.578125 L 212.648438 98.871094 L 214.882813 101.882813 L 217.488281 105.757813 L 223.410156 106.535156 L 232.15625 103.246094 L 239.570313 104.546875 L 244.191406 108.859375 L 246.425781 113.855469 L 248.160156 118.566406 L 249.183594 122.632813 L 249.464844 126.042969 L 250.082031 131.5625 L 250.363281 134.882813 L 252.378906 139.78125 L 255.851563 143.503906 L 257 144.683594 "/>
<path style="fill:none;stroke-width:8;stroke-linecap:round;stroke-linejoin:round;stroke:rgb(75.686275%,70.980392%,61.568627%);stroke-opacity:1;stroke-miterlimit:10;" d="M 147.710938 -3.039063 L 158.453125 7.832031 "/>
<path style="fill:none;stroke-width:8;stroke-linecap:round;stroke-linejoin:round;stroke:rgb(75.686275%,70.980392%,61.568627%);stroke-opacity:1;stroke-miterlimit:10;" d="M 23.5 169.925781 L 10.378906 166.363281 L 9.28125 170.515625 "/>
<path style="fill:none;stroke-width:10;stroke-linecap:round;stroke-linejoin:round;stroke:rgb(72.941176%,43.137255%,15.294118%);stroke-opacity:1;stroke-miterlimit:10;" d="M 194.347656 194.28125 L 194.371094 201.515625 "/>
<path style="fill:none;stroke-width:10;stroke-linecap:round;stroke-linejoin:round;stroke:rgb(72.941176%,43.137255%,15.294118%);stroke-opacity:1;stroke-miterlimit:10;" d="M 203.324219 217.203125 L 202.96875 209.894531 "/>
<path style="fill:none;stroke-width:10;stroke-linecap:round;stroke-linejoin:round;stroke:rgb(72.941176%,43.137255%,15.294118%);stroke-opacity:1;stroke-miterlimit:10;" d="M 194.921875 210.917969 L 197.292969 227.707031 L 198.191406 234.507813 L 198.910156 240.785156 L 199.558594 247.183594 L 200.066406 253.585938 L 200.734375 266 "/>
<path style="fill:none;stroke-width:10;stroke-linecap:round;stroke-linejoin:round;stroke:rgb(72.941176%,43.137255%,15.294118%);stroke-opacity:1;stroke-miterlimit:10;" d="M 200.765625 116.566406 L 199.324219 120.785156 L 197.992188 124.921875 L 196.871094 128.742188 L 195.820313 132.886719 L 190.367188 163.113281 L 189.488281 167.414063 L 188.460938 171.308594 L 187.335938 174.863281 L 186.179688 177.816406 L 184.757813 180.523438 L 183.109375 183.226563 L 181.09375 186.027344 L 178.8125 188.789063 L 176.167969 191.40625 L 173.222656 193.898438 L 170.195313 196.023438 L 166.894531 197.933594 L 163.507813 199.445313 L 159.832031 200.824219 L 156.058594 201.875 L 152.226563 202.53125 L 148.433594 203 L 144.382813 203.277344 L 140.648438 203.273438 L 137.105469 203.167969 L 133.484375 202.894531 L 129.796875 202.425781 L 126.320313 201.832031 L 122.5 201.035156 L 93.394531 193.824219 "/>
<path style="fill:none;stroke-width:10;stroke-linecap:round;stroke-linejoin:round;stroke:rgb(72.941176%,43.137255%,15.294118%);stroke-opacity:1;stroke-miterlimit:10;" d="M 116.351563 208.324219 L 126.722656 216.859375 L 129.867188 219.617188 L 133.226563 222.777344 L 136.304688 226 L 140.03125 230.214844 L 143.644531 234.613281 L 169.277344 266 "/>
<path style="fill:none;stroke-width:10;stroke-linecap:round;stroke-linejoin:round;stroke:rgb(72.941176%,43.137255%,15.294118%);stroke-opacity:1;stroke-miterlimit:10;" d="M 52.003906 182.789063 L 87.769531 194.328125 L 91.113281 195.425781 L 94.960938 196.78125 L 98.71875 198.359375 L 102.363281 200.019531 L 105.894531 201.84375 L 109.570313 203.914063 L 112.960938 206.015625 L 116.351563 208.324219 L 119.84375 210.605469 L 123.609375 213.269531 L 127.347656 216.109375 L 130.726563 218.949219 L 134.246094 222.148438 L 179.925781 266 "/>
<path style="fill:none;stroke-width:10;stroke-linecap:round;stroke-linejoin:round;stroke:rgb(72.941176%,43.137255%,15.294118%);stroke-opacity:1;stroke-miterlimit:10;" d="M 202.6875 200.335938 L 202.671875 194.285156 L 202.8125 188.410156 L 203.125 182.9375 L 203.621094 178.261719 L 204.355469 173.195313 L 205.121094 168.839844 L 206.035156 164.578125 L 206.964844 160.695313 L 207.890625 157.628906 L 208.972656 155.113281 L 210.425781 152.585938 L 212.042969 150.277344 L 214 148.117188 L 216.09375 146.199219 L 218.566406 144.507813 L 221.023438 143.136719 L 223.679688 142.039063 L 226.792969 141.261719 L 229.835938 140.777344 L 232.621094 140.664063 L 235.640625 140.835938 L 238.804688 141.386719 L 241.789063 142.269531 L 244.867188 143.628906 L 247.820313 145.285156 L 250.542969 147.390625 L 253.035156 149.792969 L 255.144531 152.410156 L 256.871094 155.054688 L 258.308594 158.007813 L 259.445313 161.242188 L 260.179688 164.382813 L 260.628906 167.664063 L 260.714844 171.074219 L 260.441406 174.476563 L 259.785156 177.820313 L 258.707031 181.179688 L 257.253906 184.316406 L 255.410156 187.40625 L 253.304688 190.160156 L 251.023438 192.535156 L 248.414063 194.707031 L 245.617188 196.535156 L 242.574219 198.117188 L 239.242188 199.371094 L 236 200.25 L 232.464844 200.808594 L 179.308594 207.789063 L 174.464844 208.253906 L 169.941406 208.53125 L 165.660156 208.597656 L 161.105469 208.519531 L 156.347656 208.347656 L 151.753906 208.03125 L 147.199219 207.605469 L 142.394531 207 L 137.789063 206.238281 L 133.28125 205.265625 L 128.40625 204.085938 L 93.394531 193.824219 L 52.003906 182.789063 "/>
<path style="fill:none;stroke-width:8;stroke-linecap:round;stroke-linejoin:round;stroke:rgb(75.686275%,70.980392%,61.568627%);stroke-opacity:1;stroke-miterlimit:10;" d="M 109.3125 34.210938 L 105.417969 26.996094 L 101.203125 21.054688 "/>
<path style="fill:none;stroke-width:8;stroke-linecap:round;stroke-linejoin:round;stroke:rgb(75.686275%,70.980392%,61.568627%);stroke-opacity:1;stroke-miterlimit:10;" d="M 47.363281 -9 L 43.460938 7.035156 L 43.4375 10.214844 L 44.089844 14.855469 L 45.066406 16.699219 L 46.886719 19.019531 L 51.664063 22.863281 L 58.09375 28.871094 L 60.726563 32.367188 L 61.542969 34.6875 L 61.707031 38.183594 L 61.84375 46.320313 L 61.496094 47.816406 L 59.816406 53.121094 L 58.164063 56.078125 L 54.832031 60.082031 L 38.242188 75.117188 "/>
<path style="fill:none;stroke-width:8;stroke-linecap:round;stroke-linejoin:round;stroke:rgb(75.686275%,70.980392%,61.568627%);stroke-opacity:1;stroke-miterlimit:10;" d="M 150.15625 -9 L 147.710938 -3.039063 L 134.570313 11.675781 L 128.324219 21.179688 L 121.753906 27.378906 L 114.878906 31.605469 L 109.3125 34.210938 L 106.046875 36.5 L 103.414063 36.816406 L 85.148438 27.886719 L 83.84375 28.554688 L 82.1875 31.160156 L 82.839844 32.8125 L 99.453125 45.019531 "/>
<path style="fill:none;stroke-width:9;stroke-linecap:round;stroke-linejoin:round;stroke:rgb(75.686275%,70.980392%,61.568627%);stroke-opacity:1;stroke-miterlimit:10;" d="M -10 164.363281 L -8.191406 165.082031 L -3.085938 166.832031 L 1.742188 168.296875 L 9.28125 170.515625 L 22.386719 174.242188 L 47.875 181.632813 "/>
<path style="fill:none;stroke-width:10;stroke-linecap:round;stroke-linejoin:round;stroke:rgb(75.686275%,70.980392%,61.568627%);stroke-opacity:1;stroke-miterlimit:10;" d="M 266 1.363281 L 256.148438 -11 "/>
<path style="fill:none;stroke-width:11;stroke-linecap:round;stroke-linejoin:round;stroke:rgb(72.941176%,43.137255%,15.294118%);stroke-opacity:1;stroke-miterlimit:10;" d="M 200.886719 200.574219 L 200.0625 193.40625 L 199.492188 186.394531 L 199.171875 179.632813 L 198.964844 172.703125 L 198.917969 165.851563 L 199.199219 158.886719 "/>
<path style="fill:none;stroke-width:11;stroke-linecap:round;stroke-linejoin:round;stroke:rgb(72.941176%,43.137255%,15.294118%);stroke-opacity:1;stroke-miterlimit:10;" d="M 199.199219 158.886719 L 199.464844 152.175781 L 200.007813 145.308594 L 200.820313 138.253906 L 201.738281 131.453125 L 202.777344 124.664063 L 204.035156 117.828125 L 205.496094 110.757813 L 207.199219 102.339844 "/>
<path style="fill:none;stroke-width:11;stroke-linecap:round;stroke-linejoin:round;stroke:rgb(72.941176%,43.137255%,15.294118%);stroke-opacity:1;stroke-miterlimit:10;" d="M 221.878906 29.710938 L 225.085938 13.855469 L 226.726563 6.601563 L 228.675781 -0.570313 L 230.769531 -6.875 L 232.785156 -12 "/>
<path style="fill:none;stroke-width:11;stroke-linecap:round;stroke-linejoin:round;stroke:rgb(72.941176%,43.137255%,15.294118%);stroke-opacity:1;stroke-miterlimit:10;" d="M 229.839844 -12 L 228.074219 -7.960938 L 225.824219 -1.15625 L 223.921875 5.847656 L 222.273438 13.386719 L 219.105469 29.152344 "/>
<path style="fill:none;stroke-width:11;stroke-linecap:round;stroke-linejoin:round;stroke:rgb(72.941176%,43.137255%,15.294118%);stroke-opacity:1;stroke-miterlimit:10;" d="M 204.359375 101.925781 L 202.472656 109.796875 L 200.765625 116.566406 L 199.191406 123.726563 L 197.777344 130.925781 L 196.625 137.691406 L 195.644531 144.601563 L 194.777344 151.714844 L 194.195313 158.613281 L 193.8125 165.796875 L 193.566406 172.609375 L 193.5625 179.777344 L 193.824219 186.609375 L 194.347656 194.28125 L 195.132813 201.371094 "/>
<path style="fill:none;stroke-width:11;stroke-linecap:round;stroke-linejoin:round;stroke:rgb(72.941176%,43.137255%,15.294118%);stroke-opacity:1;stroke-miterlimit:10;" d="M 217.59375 267 L 216.207031 263.574219 L 213.796875 257.089844 L 211.632813 250.558594 L 209.644531 244.03125 L 207.820313 237.335938 L 206.167969 230.75 L 204.65625 223.941406 L 203.324219 217.203125 L 202.105469 210.0625 "/>
<path style="fill:none;stroke-width:11;stroke-linecap:round;stroke-linejoin:round;stroke:rgb(72.941176%,43.137255%,15.294118%);stroke-opacity:1;stroke-miterlimit:10;" d="M 196.4375 210.804688 L 197.714844 218.125 L 199.066406 225.066406 L 200.65625 232.175781 L 202.269531 238.636719 L 204.105469 245.324219 L 206.125 252.1875 L 208.464844 259.328125 L 210.894531 265.769531 L 211.410156 267 "/>
<path style="fill:none;stroke-width:6;stroke-linecap:round;stroke-linejoin:round;stroke:rgb(100%,100%,100%);stroke-opacity:1;stroke-miterlimit:10;" d="M 147.710938 -3.039063 L 158.453125 7.832031 "/>
<path style="fill:none;stroke-width:6;stroke-linecap:round;stroke-linejoin:round;stroke:rgb(100%,100%,100%);stroke-opacity:1;stroke-miterlimit:10;" d="M 23.5 169.925781 L 10.378906 166.363281 L 9.28125 170.515625 "/>
<path style="fill:none;stroke-width:8;stroke-linecap:round;stroke-linejoin:round;stroke:rgb(99.215686%,57.254902%,22.745098%);stroke-opacity:1;stroke-miterlimit:10;" d="M 194.347656 194.28125 L 194.371094 201.515625 "/>
<path style="fill:none;stroke-width:8;stroke-linecap:round;stroke-linejoin:round;stroke:rgb(99.215686%,57.254902%,22.745098%);stroke-opacity:1;stroke-miterlimit:10;" d="M 203.324219 217.203125 L 202.96875 209.894531 "/>
<path style="fill:none;stroke-width:8;stroke-linecap:round;stroke-linejoin:round;stroke:rgb(99.215686%,57.254902%,22.745098%);stroke-opacity:1;stroke-miterlimit:10;" d="M 194.921875 210.917969 L 197.292969 227.707031 L 198.191406 234.507813 L 198.910156 240.785156 L 199.558594 247.183594 L 200.066406 253.585938 L 200.734375 266 "/>
<path style="fill:none;stroke-width:8;stroke-linecap:round;stroke-linejoin:round;stroke:rgb(99.215686%,57.254902%,22.745098%);stroke-opacity:1;stroke-miterlimit:10;" d="M 200.765625 116.566406 L 199.324219 120.785156 L 197.992188 124.921875 L 196.871094 128.742188 L 195.820313 132.886719 L 190.367188 163.113281 L 189.488281 167.414063 L 188.460938 171.308594 L 187.335938 174.863281 L 186.179688 177.816406 L 184.757813 180.523438 L 183.109375 183.226563 L 181.09375 186.027344 L 178.8125 188.789063 L 176.167969 191.40625 L 173.222656 193.898438 L 170.195313 196.023438 L 166.894531 197.933594 L 163.507813 199.445313 L 159.832031 200.824219 L 156.058594 201.875 L 152.226563 202.53125 L 148.433594 203 L 144.382813 203.277344 L 140.648438 203.273438 L 137.105469 203.167969 L 133.484375 202.894531 L 129.796875 202.425781 L 126.320313 201.832031 L 122.5 201.035156 L 93.394531 193.824219 "/>
<path style="fill:none;stroke-width:8;stroke-linecap:round;stroke-linejoin:round;stroke:rgb(99.215686%,57.254902%,22.745098%);stroke-opacity:1;stroke-miterlimit:10;" d="M 116.351563 208.324219 L 126.722656 216.859375 L 129.867188 219.617188 L 133.226563 222.777344 L 136.304688 226 L 140.03125 230.214844 L 143.644531 234.613281 L 169.277344 266 "/>
<path style="fill:none;stroke-width:8;stroke-linecap:round;stroke-linejoin:round;stroke:rgb(99.215686%,57.254902%,22.745098%);stroke-opacity:1;stroke-miterlimit:10;" d="M 52.003906 182.789063 L 87.769531 194.328125 L 91.113281 195.425781 L 94.960938 196.78125 L 98.71875 198.359375 L 102.363281 200.019531 L 105.894531 201.84375 L 109.570313 203.914063 L 112.960938 206.015625 L 116.351563 208.324219 L 119.84375 210.605469 L 123.609375 213.269531 L 127.347656 216.109375 L 130.726563 218.949219 L 134.246094 222.148438 L 179.925781 266 "/>
<path style="fill:none;stroke-width:8;stroke-linecap:round;stroke-linejoin:round;stroke:rgb(99.215686%,57.254902%,22.745098%);stroke-opacity:1;stroke-miterlimit:10;" d="M 202.6875 200.335938 L 202.671875 194.285156 L 202.8125 188.410156 L 203.125 182.9375 L 203.621094 178.261719 L 204.355469 173.195313 L 205.121094 168.839844 L 206.035156 164.578125 L 206.964844 160.695313 L 207.890625 157.628906 L 208.972656 155.113281 L 210.425781 152.585938 L 212.042969 150.277344 L 214 148.117188 L 216.09375 146.199219 L 218.566406 144.507813 L 221.023438 143.136719 L 223.679688 142.039063 L 226.792969 141.261719 L 229.835938 140.777344 L 232.621094 140.664063 L 235.640625 140.835938 L 238.804688 141.386719 L 241.789063 142.269531 L 244.867188 143.628906 L 247.820313 145.285156 L 250.542969 147.390625 L 253.035156 149.792969 L 255.144531 152.410156 L 256.871094 155.054688 L 258.308594 158.007813 L 259.445313 161.242188 L 260.179688 164.382813 L 260.628906 167.664063 L 260.714844 171.074219 L 260.441406 174.476563 L 259.785156 177.820313 L 258.707031 181.179688 L 257.253906 184.316406 L 255.410156 187.40625 L 253.304688 190.160156 L 251.023438 192.535156 L 248.414063 194.707031 L 245.617188 196.535156 L 242.574219 198.117188 L 239.242188 199.371094 L 236 200.25 L 232.464844 200.808594 L 179.308594 207.789063 L 174.464844 208.253906 L 169.941406 208.53125 L 165.660156 208.597656 L 161.105469 208.519531 L 156.347656 208.347656 L 151.753906 208.03125 L 147.199219 207.605469 L 142.394531 207 L 137.789063 206.238281 L 133.28125 205.265625 L 128.40625 204.085938 L 93.394531 193.824219 L 52.003906 182.789063 "/>
<path style="fill:none;stroke-width:6;stroke-linecap:round;stroke-linejoin:round;stroke:rgb(100%,100%,100%);stroke-opacity:1;stroke-miterlimit:10;" d="M 109.3125 34.210938 L 105.417969 26.996094 L 101.203125 21.054688 "/>
<path style="fill:none;stroke-width:6;stroke-linecap:round;stroke-linejoin:round;stroke:rgb(100%,100%,100%);stroke-opacity:1;stroke-miterlimit:10;" d="M 47.363281 -9 L 43.460938 7.035156 L 43.4375 10.214844 L 44.089844 14.855469 L 45.066406 16.699219 L 46.886719 19.019531 L 51.664063 22.863281 L 58.09375 28.871094 L 60.726563 32.367188 L 61.542969 34.6875 L 61.707031 38.183594 L 61.84375 46.320313 L 61.496094 47.816406 L 59.816406 53.121094 L 58.164063 56.078125 L 54.832031 60.082031 L 38.242188 75.117188 "/>
<path style="fill:none;stroke-width:6;stroke-linecap:round;stroke-linejoin:round;stroke:rgb(100%,100%,100%);stroke-opacity:1;stroke-miterlimit:10;" d="M 150.15625 -9 L 147.710938 -3.039063 L 134.570313 11.675781 L 128.324219 21.179688 L 121.753906 27.378906 L 114.878906 31.605469 L 109.3125 34.210938 L 106.046875 36.5 L 103.414063 36.816406 L 85.148438 27.886719 L 83.84375 28.554688 L 82.1875 31.160156 L 82.839844 32.8125 L 99.453125 45.019531 "/>
<path style="fill:none;stroke-width:7;stroke-linecap:round;stroke-linejoin:round;stroke:rgb(100%,99.215686%,54.509804%);stroke-opacity:1;stroke-miterlimit:10;" d="M -10 164.363281 L -8.191406 165.082031 L -3.085938 166.832031 L 1.742188 168.296875 L 9.28125 170.515625 L 22.386719 174.242188 L 47.875 181.632813 "/>
<path style="fill:none;stroke-width:8;stroke-linecap:round;stroke-linejoin:round;stroke:rgb(100%,99.215686%,54.509804%);stroke-opacity:1;stroke-miterlimit:10;" d="M 266 1.363281 L 256.148438 -11 "/>
<path style="fill:none;stroke-width:9;stroke-linecap:round;stroke-linejoin:round;stroke:rgb(99.215686%,57.254902%,22.745098%);stroke-opacity:1;stroke-miterlimit:10;" d="M 200.886719 200.574219 L 200.0625 193.40625 L 199.492188 186.394531 L 199.171875 179.632813 L 198.964844 172.703125 L 198.917969 165.851563 L 199.199219 158.886719 "/>
<path style="fill:none;stroke-width:9;stroke-linecap:round;stroke-linejoin:round;stroke:rgb(99.215686%,57.254902%,22.745098%);stroke-opacity:1;stroke-miterlimit:10;" d="M 199.199219 158.886719 L 199.464844 152.175781 L 200.007813 145.308594 L 200.820313 138.253906 L 201.738281 131.453125 L 202.777344 124.664063 L 204.035156 117.828125 L 205.496094 110.757813 L 207.199219 102.339844 "/>
<path style="fill:none;stroke-width:9;stroke-linecap:round;stroke-linejoin:round;stroke:rgb(99.215686%,57.254902%,22.745098%);stroke-opacity:1;stroke-miterlimit:10;" d="M 221.878906 29.710938 L 225.085938 13.855469 L 226.726563 6.601563 L 228.675781 -0.570313 L 230.769531 -6.875 L 232.785156 -12 "/>
<path style="fill:none;stroke-width:9;stroke-linecap:round;stroke-linejoin:round;stroke:rgb(99.215686%,57.254902%,22.745098%);stroke-opacity:1;stroke-miterlimit:10;" d="M 229.839844 -12 L 228.074219 -7.960938 L 225.824219 -1.15625 L 223.921875 5.847656 L 222.273438 13.386719 L 219.105469 29.152344 "/>
<path style="fill:none;stroke-width:9;stroke-linecap:round;stroke-linejoin:round;stroke:rgb(99.215686%,57.254902%,22.745098%);stroke-opacity:1;stroke-miterlimit:10;" d="M 204.359375 101.925781 L 202.472656 109.796875 L 200.765625 116.566406 L 199.191406 123.726563 L 197.777344 130.925781 L 196.625 137.691406 L 195.644531 144.601563 L 194.777344 151.714844 L 194.195313 158.613281 L 193.8125 165.796875 L 193.566406 172.609375 L 193.5625 179.777344 L 193.824219 186.609375 L 194.347656 194.28125 L 195.132813 201.371094 "/>
<path style="fill:none;stroke-width:9;stroke-linecap:round;stroke-linejoin:round;stroke:rgb(99.215686%,57.254902%,22.745098%);stroke-opacity:1;stroke-miterlimit:10;" d="M 217.59375 267 L 216.207031 263.574219 L 213.796875 257.089844 L 211.632813 250.558594 L 209.644531 244.03125 L 207.820313 237.335938 L 206.167969 230.75 L 204.65625 223.941406 L 203.324219 217.203125 L 202.105469 210.0625 "/>
<path style="fill:none;stroke-width:9;stroke-linecap:round;stroke-linejoin:round;stroke:rgb(99.215686%,57.254902%,22.745098%);stroke-opacity:1;stroke-miterlimit:10;" d="M 196.4375 210.804688 L 197.714844 218.125 L 199.066406 225.066406 L 200.65625 232.175781 L 202.269531 238.636719 L 204.105469 245.324219 L 206.125 252.1875 L 208.464844 259.328125 L 210.894531 265.769531 L 211.410156 267 "/>
<path style="fill:none;stroke-width:5;stroke-linecap:butt;stroke-linejoin:round;stroke:rgb(53.333333%,53.333333%,53.333333%);stroke-opacity:1;stroke-miterlimit:10;" d="M 45.898438 171.109375 L 51.050781 172.292969 "/>
<path style="fill:none;stroke-width:5;stroke-linecap:butt;stroke-linejoin:round;stroke:rgb(53.333333%,53.333333%,53.333333%);stroke-opacity:1;stroke-miterlimit:10;" d="M 216.511719 29.082031 L 203.296875 93.945313 L 201.617188 101.742188 "/>
<path style="fill:none;stroke-width:10;stroke-linecap:butt;stroke-linejoin:round;stroke:rgb(53.333333%,53.333333%,53.333333%);stroke-opacity:1;stroke-miterlimit:10;" d="M 194.371094 201.515625 L 194.53125 206.300781 L 194.921875 210.917969 "/>
<path style="fill:none;stroke-width:10;stroke-linecap:butt;stroke-linejoin:round;stroke:rgb(53.333333%,53.333333%,53.333333%);stroke-opacity:1;stroke-miterlimit:10;" d="M 202.96875 209.894531 L 202.6875 200.335938 "/>
<path style="fill:none;stroke-width:9;stroke-linecap:butt;stroke-linejoin:round;stroke:rgb(53.333333%,53.333333%,53.333333%);stroke-opacity:1;stroke-miterlimit:10;" d="M 47.875 181.632813 L 52.003906 182.789063 "/>
<path style="fill:none;stroke-width:11;stroke-linecap:butt;stroke-linejoin:round;stroke:rgb(53.333333%,53.333333%,53.333333%);stroke-opacity:1;stroke-miterlimit:10;" d="M 195.132813 201.371094 L 195.742188 206.121094 L 196.4375 210.804688 "/>
<path style="fill:none;stroke-width:11;stroke-linecap:butt;stroke-linejoin:round;stroke:rgb(53.333333%,53.333333%,53.333333%);stroke-opacity:1;stroke-miterlimit:10;" d="M 202.105469 210.0625 L 201.453125 205.40625 L 200.886719 200.574219 "/>
<path style="fill:none;stroke-width:11;stroke-linecap:butt;stroke-linejoin:round;stroke:rgb(53.333333%,53.333333%,53.333333%);stroke-opacity:1;stroke-miterlimit:10;" d="M 207.199219 102.339844 L 221.878906 29.710938 "/>
<path style="fill:none;stroke-width:11;stroke-linecap:butt;stroke-linejoin:round;stroke:rgb(53.333333%,53.333333%,53.333333%);stroke-opacity:1;stroke-miterlimit:10;" d="M 219.105469 29.152344 L 205.953125 94.53125 L 204.359375 101.925781 "/>
<path style="fill:none;stroke-width:3;stroke-linecap:round;stroke-linejoin:round;stroke:rgb(98.039216%,98.039216%,96.078431%);stroke-opacity:1;stroke-miterlimit:10;" d="M 45.898438 171.109375 L 51.050781 172.292969 "/>
<path style="fill:none;stroke-width:3;stroke-linecap:round;stroke-linejoin:round;stroke:rgb(98.039216%,98.039216%,96.078431%);stroke-opacity:1;stroke-miterlimit:10;" d="M 216.511719 29.082031 L 203.296875 93.945313 L 201.617188 101.742188 "/>
<path style="fill:none;stroke-width:8;stroke-linecap:round;stroke-linejoin:round;stroke:rgb(99.215686%,57.254902%,22.745098%);stroke-opacity:1;stroke-miterlimit:10;" d="M 194.371094 201.515625 L 194.53125 206.300781 L 194.921875 210.917969 "/>
<path style="fill:none;stroke-width:8;stroke-linecap:round;stroke-linejoin:round;stroke:rgb(99.215686%,57.254902%,22.745098%);stroke-opacity:1;stroke-miterlimit:10;" d="M 202.96875 209.894531 L 202.6875 200.335938 "/>
<path style="fill:none;stroke-width:7;stroke-linecap:round;stroke-linejoin:round;stroke:rgb(100%,99.215686%,54.509804%);stroke-opacity:1;stroke-miterlimit:10;" d="M 47.875 181.632813 L 52.003906 182.789063 "/>
<path style="fill:none;stroke-width:9;stroke-linecap:round;stroke-linejoin:round;stroke:rgb(99.215686%,57.254902%,22.745098%);stroke-opacity:1;stroke-miterlimit:10;" d="M 195.132813 201.371094 L 195.742188 206.121094 L 196.4375 210.804688 "/>
<path style="fill:none;stroke-width:9;stroke-linecap:round;stroke-linejoin:round;stroke:rgb(99.215686%,57.254902%,22.745098%);stroke-opacity:1;stroke-miterlimit:10;" d="M 202.105469 210.0625 L 201.453125 205.40625 L 200.886719 200.574219 "/>
<path style="fill:none;stroke-width:9;stroke-linecap:round;stroke-linejoin:round;stroke:rgb(99.215686%,57.254902%,22.745098%);stroke-opacity:1;stroke-miterlimit:10;" d="M 207.199219 102.339844 L 221.878906 29.710938 "/>
<path style="fill:none;stroke-width:9;stroke-linecap:round;stroke-linejoin:round;stroke:rgb(99.215686%,57.254902%,22.745098%);stroke-opacity:1;stroke-miterlimit:10;" d="M 219.105469 29.152344 L 205.953125 94.53125 L 204.359375 101.925781 "/>
<path style="fill:none;stroke-width:3;stroke-linecap:round;stroke-linejoin:round;stroke:rgb(100%,100%,100%);stroke-opacity:1;stroke-miterlimit:10;" d="M 123.871094 21.675781 L 124.949219 21.675781 L 126.605469 29.066406 L 128.246094 21.675781 L 129.449219 21.675781 L 131.105469 29.066406 L 132.761719 21.675781 L 133.839844 21.675781 L 131.855469 30.425781 L 130.527344 30.425781 L 128.855469 22.832031 L 127.183594 30.425781 L 125.839844 30.425781 Z M 137.652344 31.035156 C 137.378906 31.816406 137.113281 32.324219 136.855469 32.566406 C 136.59375 32.804688 136.246094 32.925781 135.808594 32.925781 L 135.042969 32.925781 L 135.042969 32.019531 L 135.605469 32.019531 C 135.875 32.019531 136.082031 31.945313 136.230469 31.800781 C 136.375 31.664063 136.535156 31.335938 136.714844 30.816406 L 136.902344 30.316406 L 134.511719 23.863281 L 135.527344 23.863281 L 137.371094 28.988281 L 139.230469 23.863281 L 140.261719 23.863281 Z M 144.277344 27.128906 C 143.496094 27.128906 142.953125 27.230469 142.652344 27.425781 C 142.347656 27.625 142.199219 27.964844 142.199219 28.441406 C 142.199219 28.828125 142.308594 29.136719 142.527344 29.363281 C 142.753906 29.582031 143.066406 29.691406 143.464844 29.691406 C 143.996094 29.691406 144.421875 29.484375 144.746094 29.066406 C 145.078125 28.640625 145.246094 28.074219 145.246094 27.363281 L 145.246094 27.128906 Z M 146.214844 26.675781 L 146.214844 30.425781 L 145.246094 30.425781 L 145.246094 29.425781 C 145.027344 29.824219 144.75 30.121094 144.417969 30.316406 C 144.082031 30.503906 143.675781 30.597656 143.199219 30.597656 C 142.59375 30.597656 142.113281 30.410156 141.761719 30.035156 C 141.40625 29.652344 141.230469 29.144531 141.230469 28.519531 C 141.230469 27.78125 141.449219 27.222656 141.886719 26.847656 C 142.332031 26.472656 143 26.285156 143.886719 26.285156 L 145.246094 26.285156 L 145.246094 26.175781 C 145.246094 25.675781 145.09375 25.292969 144.792969 25.019531 C 144.5 24.75 144.089844 24.613281 143.558594 24.613281 C 143.222656 24.613281 142.894531 24.660156 142.574219 24.753906 C 142.261719 24.847656 141.953125 24.984375 141.652344 25.160156 L 141.652344 24.160156 C 142.003906 24.003906 142.347656 23.890625 142.683594 23.816406 C 143.015625 23.746094 143.34375 23.707031 143.667969 23.707031 C 144.519531 23.707031 145.15625 23.953125 145.574219 24.441406 C 146 24.933594 146.214844 25.675781 146.214844 26.675781 Z M 149.167969 22.003906 L 149.167969 23.863281 L 151.167969 23.863281 L 151.167969 24.707031 L 149.167969 24.707031 L 149.167969 28.269531 C 149.167969 28.800781 149.230469 29.144531 149.355469 29.300781 C 149.488281 29.449219 149.761719 29.519531 150.167969 29.519531 L 151.167969 29.519531 L 151.167969 30.425781 L 150.167969 30.425781 C 149.417969 30.425781 148.894531 30.269531 148.605469 29.957031 C 148.324219 29.644531 148.183594 29.082031 148.183594 28.269531 L 148.183594 24.707031 L 147.480469 24.707031 L 147.480469 23.863281 L 148.183594 23.863281 L 148.183594 22.003906 Z M 153.402344 22.003906 L 153.402344 23.863281 L 155.402344 23.863281 L 155.402344 24.707031 L 153.402344 24.707031 L 153.402344 28.269531 C 153.402344 28.800781 153.464844 29.144531 153.589844 29.300781 C 153.722656 29.449219 153.996094 29.519531 154.402344 29.519531 L 155.402344 29.519531 L 155.402344 30.425781 L 154.402344 30.425781 C 153.652344 30.425781 153.128906 30.269531 152.839844 29.957031 C 152.558594 29.644531 152.417969 29.082031 152.417969 28.269531 L 152.417969 24.707031 L 151.714844 24.707031 L 151.714844 23.863281 L 152.417969 23.863281 L 152.417969 22.003906 Z M 160.433594 24.050781 L 160.433594 25.082031 C 160.160156 24.925781 159.875 24.8125 159.574219 24.738281 C 159.28125 24.65625 158.980469 24.613281 158.667969 24.613281 C 158.1875 24.613281 157.824219 24.699219 157.574219 24.863281 C 157.332031 25.019531 157.214844 25.265625 157.214844 25.597656 C 157.214844 25.847656 157.300781 26.046875 157.480469 26.191406 C 157.65625 26.328125 158 26.457031 158.511719 26.582031 L 158.839844 26.675781 C 159.535156 26.832031 160.027344 27.0625 160.308594 27.363281 C 160.597656 27.667969 160.746094 28.082031 160.746094 28.613281 C 160.746094 29.230469 160.527344 29.714844 160.089844 30.066406 C 159.660156 30.421875 159.066406 30.597656 158.308594 30.597656 C 157.996094 30.597656 157.667969 30.558594 157.324219 30.488281 C 156.980469 30.425781 156.621094 30.328125 156.246094 30.191406 L 156.246094 29.066406 C 156.597656 29.277344 156.949219 29.433594 157.292969 29.535156 C 157.644531 29.640625 157.988281 29.691406 158.324219 29.691406 C 158.78125 29.691406 159.136719 29.609375 159.386719 29.441406 C 159.636719 29.265625 159.761719 29.015625 159.761719 28.691406 C 159.761719 28.402344 159.667969 28.175781 159.480469 28.019531 C 159.300781 27.863281 158.917969 27.714844 158.324219 27.566406 L 157.980469 27.488281 C 157.386719 27.34375 156.953125 27.125 156.683594 26.832031 C 156.410156 26.542969 156.277344 26.144531 156.277344 25.644531 C 156.277344 25.019531 156.472656 24.542969 156.871094 24.207031 C 157.265625 23.875 157.824219 23.707031 158.542969 23.707031 C 158.90625 23.707031 159.246094 23.738281 159.558594 23.800781 C 159.878906 23.855469 160.171875 23.9375 160.433594 24.050781 Z M 160.433594 24.050781 "/>
<path style=" stroke:none;fill-rule:evenodd;fill:rgb(0%,0%,0%);fill-opacity:1;" d="M 123.871094 21.675781 L 124.949219 21.675781 L 126.605469 29.066406 L 128.246094 21.675781 L 129.449219 21.675781 L 131.105469 29.066406 L 132.761719 21.675781 L 133.839844 21.675781 L 131.855469 30.425781 L 130.527344 30.425781 L 128.855469 22.832031 L 127.183594 30.425781 L 125.839844 30.425781 Z M 137.652344 31.035156 C 137.378906 31.816406 137.113281 32.324219 136.855469 32.566406 C 136.59375 32.804688 136.246094 32.925781 135.808594 32.925781 L 135.042969 32.925781 L 135.042969 32.019531 L 135.605469 32.019531 C 135.875 32.019531 136.082031 31.945313 136.230469 31.800781 C 136.375 31.664063 136.535156 31.335938 136.714844 30.816406 L 136.902344 30.316406 L 134.511719 23.863281 L 135.527344 23.863281 L 137.371094 28.988281 L 139.230469 23.863281 L 140.261719 23.863281 Z M 144.277344 27.128906 C 143.496094 27.128906 142.953125 27.230469 142.652344 27.425781 C 142.347656 27.625 142.199219 27.964844 142.199219 28.441406 C 142.199219 28.828125 142.308594 29.136719 142.527344 29.363281 C 142.753906 29.582031 143.066406 29.691406 143.464844 29.691406 C 143.996094 29.691406 144.421875 29.484375 144.746094 29.066406 C 145.078125 28.640625 145.246094 28.074219 145.246094 27.363281 L 145.246094 27.128906 Z M 146.214844 26.675781 L 146.214844 30.425781 L 145.246094 30.425781 L 145.246094 29.425781 C 145.027344 29.824219 144.75 30.121094 144.417969 30.316406 C 144.082031 30.503906 143.675781 30.597656 143.199219 30.597656 C 142.59375 30.597656 142.113281 30.410156 141.761719 30.035156 C 141.40625 29.652344 141.230469 29.144531 141.230469 28.519531 C 141.230469 27.78125 141.449219 27.222656 141.886719 26.847656 C 142.332031 26.472656 143 26.285156 143.886719 26.285156 L 145.246094 26.285156 L 145.246094 26.175781 C 145.246094 25.675781 145.09375 25.292969 144.792969 25.019531 C 144.5 24.75 144.089844 24.613281 143.558594 24.613281 C 143.222656 24.613281 142.894531 24.660156 142.574219 24.753906 C 142.261719 24.847656 141.953125 24.984375 141.652344 25.160156 L 141.652344 24.160156 C 142.003906 24.003906 142.347656 23.890625 142.683594 23.816406 C 143.015625 23.746094 143.34375 23.707031 143.667969 23.707031 C 144.519531 23.707031 145.15625 23.953125 145.574219 24.441406 C 146 24.933594 146.214844 25.675781 146.214844 26.675781 Z M 149.167969 22.003906 L 149.167969 23.863281 L 151.167969 23.863281 L 151.167969 24.707031 L 149.167969 24.707031 L 149.167969 28.269531 C 149.167969 28.800781 149.230469 29.144531 149.355469 29.300781 C 149.488281 29.449219 149.761719 29.519531 150.167969 29.519531 L 151.167969 29.519531 L 151.167969 30.425781 L 150.167969 30.425781 C 149.417969 30.425781 148.894531 30.269531 148.605469 29.957031 C 148.324219 29.644531 148.183594 29.082031 148.183594 28.269531 L 148.183594 24.707031 L 147.480469 24.707031 L 147.480469 23.863281 L 148.183594 23.863281 L 148.183594 22.003906 Z M 153.402344 22.003906 L 153.402344 23.863281 L 155.402344 23.863281 L 155.402344 24.707031 L 153.402344 24.707031 L 153.402344 28.269531 C 153.402344 28.800781 153.464844 29.144531 153.589844 29.300781 C 153.722656 29.449219 153.996094 29.519531 154.402344 29.519531 L 155.402344 29.519531 L 155.402344 30.425781 L 154.402344 30.425781 C 153.652344 30.425781 153.128906 30.269531 152.839844 29.957031 C 152.558594 29.644531 152.417969 29.082031 152.417969 28.269531 L 152.417969 24.707031 L 151.714844 24.707031 L 151.714844 23.863281 L 152.417969 23.863281 L 152.417969 22.003906 Z M 160.433594 24.050781 L 160.433594 25.082031 C 160.160156 24.925781 159.875 24.8125 159.574219 24.738281 C 159.28125 24.65625 158.980469 24.613281 158.667969 24.613281 C 158.1875 24.613281 157.824219 24.699219 157.574219 24.863281 C 157.332031 25.019531 157.214844 25.265625 157.214844 25.597656 C 157.214844 25.847656 157.300781 26.046875 157.480469 26.191406 C 157.65625 26.328125 158 26.457031 158.511719 26.582031 L 158.839844 26.675781 C 159.535156 26.832031 160.027344 27.0625 160.308594 27.363281 C 160.597656 27.667969 160.746094 28.082031 160.746094 28.613281 C 160.746094 29.230469 160.527344 29.714844 160.089844 30.066406 C 159.660156 30.421875 159.066406 30.597656 158.308594 30.597656 C 157.996094 30.597656 157.667969 30.558594 157.324219 30.488281 C 156.980469 30.425781 156.621094 30.328125 156.246094 30.191406 L 156.246094 29.066406 C 156.597656 29.277344 156.949219 29.433594 157.292969 29.535156 C 157.644531 29.640625 157.988281 29.691406 158.324219 29.691406 C 158.78125 29.691406 159.136719 29.609375 159.386719 29.441406 C 159.636719 29.265625 159.761719 29.015625 159.761719 28.691406 C 159.761719 28.402344 159.667969 28.175781 159.480469 28.019531 C 159.300781 27.863281 158.917969 27.714844 158.324219 27.566406 L 157.980469 27.488281 C 157.386719 27.34375 156.953125 27.125 156.683594 26.832031 C 156.410156 26.542969 156.277344 26.144531 156.277344 25.644531 C 156.277344 25.019531 156.472656 24.542969 156.871094 24.207031 C 157.265625 23.875 157.824219 23.707031 158.542969 23.707031 C 158.90625 23.707031 159.246094 23.738281 159.558594 23.800781 C 159.878906 23.855469 160.171875 23.9375 160.433594 24.050781 Z M 160.433594 24.050781 "/>
<path style=" stroke:none;fill-rule:evenodd;fill:rgb(33.333333%,33.333333%,33.333333%);fill-opacity:1;" d="M 189.34375 171.601563 L 189.4375 169.320313 L 195.546875 166.695313 L 189.546875 166.460938 L 189.625 164.539063 L 198.375 164.882813 L 198.296875 167.148438 L 192.171875 169.773438 L 198.171875 170.007813 L 198.09375 171.945313 Z M 189.679688 163.5625 L 189.820313 161.34375 L 193.054688 159.765625 L 190.039063 157.765625 L 190.179688 155.546875 L 195.039063 158.875 L 198.726563 159.109375 L 198.601563 161.125 L 194.914063 160.890625 Z M 195.765625 148.527344 C 195.714844 148.902344 195.792969 149.207031 196 149.433594 C 196.210938 149.664063 196.527344 149.804688 196.953125 149.855469 C 197.382813 149.910156 197.71875 149.847656 197.96875 149.667969 C 198.21875 149.492188 198.371094 149.214844 198.421875 148.839844 C 198.464844 148.464844 198.382813 148.167969 198.171875 147.949219 C 197.964844 147.722656 197.648438 147.582031 197.21875 147.527344 C 196.78125 147.476563 196.445313 147.539063 196.203125 147.714844 C 195.953125 147.882813 195.808594 148.152344 195.765625 148.527344 Z M 194.84375 149.917969 C 194.625 150.378906 194.339844 150.707031 193.984375 150.902344 C 193.632813 151.101563 193.203125 151.167969 192.703125 151.105469 C 191.976563 151.023438 191.449219 150.710938 191.125 150.167969 C 190.804688 149.628906 190.699219 148.882813 190.8125 147.933594 C 190.917969 146.988281 191.195313 146.292969 191.640625 145.855469 C 192.089844 145.410156 192.679688 145.226563 193.40625 145.308594 C 193.90625 145.371094 194.304688 145.550781 194.59375 145.839844 C 194.886719 146.121094 195.089844 146.503906 195.203125 146.980469 C 195.433594 146.472656 195.746094 146.105469 196.140625 145.886719 C 196.539063 145.660156 197.011719 145.574219 197.5625 145.636719 C 198.4375 145.742188 199.0625 146.074219 199.4375 146.636719 C 199.8125 147.199219 199.941406 147.992188 199.828125 149.011719 C 199.703125 150.023438 199.390625 150.761719 198.890625 151.230469 C 198.390625 151.699219 197.703125 151.882813 196.828125 151.777344 C 196.277344 151.714844 195.835938 151.527344 195.5 151.214844 C 195.167969 150.894531 194.949219 150.460938 194.84375 149.917969 Z M 193.171875 149.230469 C 193.515625 149.273438 193.792969 149.214844 194 149.058594 C 194.199219 148.902344 194.320313 148.667969 194.359375 148.355469 C 194.390625 148.042969 194.328125 147.792969 194.171875 147.605469 C 194.007813 147.410156 193.75 147.289063 193.40625 147.246094 C 193.054688 147.207031 192.777344 147.261719 192.578125 147.417969 C 192.371094 147.566406 192.25 147.792969 192.21875 148.105469 C 192.179688 148.417969 192.242188 148.675781 192.40625 148.871094 C 192.574219 149.070313 192.828125 149.191406 193.171875 149.230469 Z M 200.054688 144.273438 L 198.445313 144.054688 C 198.65625 143.753906 198.820313 143.460938 198.945313 143.179688 C 199.070313 142.898438 199.15625 142.613281 199.195313 142.320313 C 199.28125 141.71875 199.164063 141.222656 198.851563 140.835938 C 198.539063 140.453125 198.015625 140.179688 197.273438 140.023438 C 197.441406 140.296875 197.554688 140.570313 197.617188 140.851563 C 197.679688 141.125 197.6875 141.414063 197.632813 141.726563 C 197.53125 142.519531 197.1875 143.125 196.601563 143.539063 C 196.007813 143.957031 195.289063 144.109375 194.445313 143.992188 C 193.507813 143.859375 192.800781 143.484375 192.320313 142.867188 C 191.84375 142.242188 191.671875 141.472656 191.804688 140.554688 C 191.953125 139.535156 192.441406 138.800781 193.273438 138.351563 C 194.109375 137.894531 195.222656 137.765625 196.617188 137.960938 C 198.046875 138.171875 199.125 138.660156 199.851563 139.429688 C 200.578125 140.203125 200.859375 141.15625 200.695313 142.289063 C 200.640625 142.664063 200.558594 143.015625 200.445313 143.335938 C 200.339844 143.660156 200.210938 143.972656 200.054688 144.273438 Z M 196.242188 141.179688 C 196.285156 140.835938 196.191406 140.5625 195.960938 140.351563 C 195.734375 140.132813 195.367188 139.988281 194.867188 139.914063 C 194.359375 139.84375 193.960938 139.878906 193.679688 140.023438 C 193.398438 140.160156 193.238281 140.398438 193.195313 140.742188 C 193.144531 141.109375 193.234375 141.398438 193.460938 141.617188 C 193.691406 141.828125 194.0625 141.96875 194.570313 142.039063 C 195.070313 142.113281 195.460938 142.082031 195.742188 141.945313 C 196.023438 141.800781 196.191406 141.546875 196.242188 141.179688 Z M 197.65625 132.425781 C 196.585938 132.238281 195.8125 132.199219 195.34375 132.300781 C 194.867188 132.40625 194.589844 132.671875 194.515625 133.097656 C 194.445313 133.527344 194.609375 133.871094 195.015625 134.128906 C 195.421875 134.390625 196.164063 134.613281 197.234375 134.800781 C 198.339844 134.988281 199.132813 135.03125 199.609375 134.925781 C 200.078125 134.824219 200.351563 134.558594 200.421875 134.128906 C 200.496094 133.703125 200.328125 133.359375 199.921875 133.097656 C 199.515625 132.839844 198.761719 132.613281 197.65625 132.425781 Z M 198.03125 130.425781 C 199.460938 130.675781 200.511719 131.144531 201.1875 131.832031 C 201.863281 132.519531 202.113281 133.375 201.9375 134.394531 C 201.757813 135.417969 201.238281 136.136719 200.375 136.550781 C 199.5 136.96875 198.351563 137.050781 196.921875 136.800781 C 195.484375 136.550781 194.429688 136.082031 193.75 135.394531 C 193.0625 134.707031 192.808594 133.855469 192.984375 132.832031 C 193.164063 131.8125 193.6875 131.09375 194.5625 130.675781 C 195.4375 130.261719 196.59375 130.175781 198.03125 130.425781 Z M 198.03125 130.425781 "/>
<path style="fill:none;stroke-width:3;stroke-linecap:round;stroke-linejoin:round;stroke:rgb(100%,100%,100%);stroke-opacity:1;stroke-miterlimit:10;" d="M 21.9375 230.902344 L 24.203125 232.886719 L 25 231.980469 C 25.304688 231.636719 25.4375 231.289063 25.40625 230.933594 C 25.367188 230.570313 25.167969 230.226563 24.8125 229.902344 C 24.449219 229.589844 24.089844 229.445313 23.734375 229.464844 C 23.371094 229.476563 23.039063 229.652344 22.734375 229.996094 Z M 20.609375 231.042969 L 22.0625 229.402344 C 22.605469 228.789063 23.164063 228.464844 23.734375 228.433594 C 24.308594 228.394531 24.890625 228.628906 25.484375 229.136719 C 26.078125 229.660156 26.390625 230.210938 26.421875 230.792969 C 26.453125 231.367188 26.195313 231.960938 25.65625 232.574219 L 24.859375 233.480469 L 27.28125 235.605469 L 26.625 236.339844 Z M 23.765625 226.820313 L 24.265625 226.085938 L 31.171875 230.789063 L 30.671875 231.523438 Z M 28.980469 224.53125 C 28.710938 224.929688 28.667969 225.355469 28.855469 225.8125 C 29.042969 226.273438 29.433594 226.703125 30.027344 227.109375 C 30.621094 227.515625 31.167969 227.726563 31.667969 227.734375 C 32.167969 227.734375 32.550781 227.539063 32.824219 227.140625 C 33.09375 226.746094 33.136719 226.320313 32.949219 225.859375 C 32.761719 225.402344 32.371094 224.96875 31.777344 224.5625 C 31.183594 224.15625 30.636719 223.953125 30.136719 223.953125 C 29.636719 223.945313 29.253906 224.136719 28.980469 224.53125 Z M 28.292969 224.0625 C 28.730469 223.417969 29.308594 223.074219 30.027344 223.03125 C 30.738281 222.980469 31.496094 223.230469 32.308594 223.78125 C 33.121094 224.335938 33.628906 224.953125 33.839844 225.640625 C 34.058594 226.320313 33.949219 226.980469 33.511719 227.625 C 33.074219 228.273438 32.5 228.617188 31.792969 228.65625 C 31.085938 228.699219 30.324219 228.445313 29.511719 227.890625 C 28.699219 227.339844 28.183594 226.726563 27.964844 226.046875 C 27.746094 225.371094 27.855469 224.710938 28.292969 224.0625 Z M 29.726563 219.1875 L 31.132813 220.140625 L 32.164063 218.625 L 32.789063 219.0625 L 31.757813 220.578125 L 34.460938 222.421875 C 34.867188 222.695313 35.15625 222.820313 35.335938 222.796875 C 35.523438 222.777344 35.71875 222.609375 35.929688 222.296875 L 36.445313 221.546875 L 37.132813 222.015625 L 36.617188 222.765625 C 36.230469 223.339844 35.84375 223.652344 35.460938 223.703125 C 35.085938 223.757813 34.585938 223.574219 33.960938 223.15625 L 31.257813 221.3125 L 30.898438 221.859375 L 30.273438 221.421875 L 30.632813 220.875 L 29.226563 219.921875 Z M 31.90625 215.984375 L 33.3125 216.9375 L 34.34375 215.421875 L 34.96875 215.859375 L 33.9375 217.375 L 36.640625 219.21875 C 37.046875 219.492188 37.335938 219.617188 37.515625 219.59375 C 37.703125 219.574219 37.898438 219.40625 38.109375 219.09375 L 38.625 218.34375 L 39.3125 218.8125 L 38.796875 219.5625 C 38.410156 220.136719 38.023438 220.449219 37.640625 220.5 C 37.265625 220.554688 36.765625 220.371094 36.140625 219.953125 L 33.4375 218.109375 L 33.078125 218.65625 L 32.453125 218.21875 L 32.8125 217.671875 L 31.40625 216.71875 Z M 39.882813 212.203125 L 40.289063 212.46875 L 37.992188 215.84375 C 38.566406 216.199219 39.09375 216.339844 39.570313 216.265625 C 40.058594 216.183594 40.46875 215.902344 40.804688 215.421875 C 40.992188 215.132813 41.132813 214.828125 41.226563 214.515625 C 41.328125 214.203125 41.402344 213.867188 41.445313 213.5 L 42.195313 214.015625 C 42.140625 214.371094 42.054688 214.710938 41.929688 215.03125 C 41.804688 215.355469 41.648438 215.65625 41.460938 215.9375 C 40.96875 216.65625 40.355469 217.070313 39.617188 217.171875 C 38.878906 217.265625 38.113281 217.046875 37.320313 216.515625 C 36.507813 215.964844 36 215.328125 35.789063 214.609375 C 35.570313 213.882813 35.691406 213.179688 36.148438 212.5 C 36.566406 211.90625 37.109375 211.585938 37.773438 211.53125 C 38.441406 211.480469 39.144531 211.703125 39.882813 212.203125 Z M 39.132813 212.765625 C 38.6875 212.476563 38.253906 212.34375 37.835938 212.375 C 37.421875 212.40625 37.09375 212.605469 36.851563 212.96875 C 36.570313 213.375 36.476563 213.792969 36.570313 214.21875 C 36.65625 214.648438 36.914063 215.039063 37.351563 215.390625 Z M 40.949219 207.351563 C 40.835938 207.394531 40.738281 207.457031 40.652344 207.539063 C 40.558594 207.625 40.476563 207.722656 40.402344 207.835938 C 40.113281 208.265625 40.042969 208.691406 40.199219 209.117188 C 40.347656 209.535156 40.699219 209.9375 41.261719 210.320313 L 43.886719 212.101563 L 43.371094 212.851563 L 38.402344 209.460938 L 38.917969 208.710938 L 39.683594 209.242188 C 39.488281 208.890625 39.398438 208.539063 39.417969 208.195313 C 39.441406 207.84375 39.570313 207.488281 39.808594 207.132813 C 39.839844 207.082031 39.882813 207.03125 39.933594 206.976563 C 39.988281 206.914063 40.042969 206.851563 40.105469 206.789063 Z M 40.84375 202.332031 L 41.390625 201.519531 L 44.1875 203.425781 L 43.21875 198.832031 L 43.921875 197.785156 L 44.984375 202.863281 L 50.6875 202.082031 L 49.96875 203.144531 L 44.828125 203.847656 L 48.015625 206.019531 L 47.46875 206.832031 Z M 46.132813 198.09375 L 46.632813 197.359375 L 51.601563 200.75 L 51.101563 201.484375 Z M 44.195313 196.78125 L 44.695313 196.046875 L 45.726563 196.75 L 45.226563 197.484375 Z M 45.738281 194.507813 L 46.238281 193.773438 L 53.144531 198.476563 L 52.644531 199.210938 Z M 47.1875 192.335938 L 47.671875 191.585938 L 54.703125 196.101563 L 54.21875 196.851563 Z M 47.1875 192.335938 "/>
<path style=" stroke:none;fill-rule:evenodd;fill:rgb(41.960784%,58.039216%,69.019608%);fill-opacity:1;" d="M 21.9375 230.902344 L 24.203125 232.886719 L 25 231.980469 C 25.304688 231.636719 25.4375 231.289063 25.40625 230.933594 C 25.367188 230.570313 25.167969 230.226563 24.8125 229.902344 C 24.449219 229.589844 24.089844 229.445313 23.734375 229.464844 C 23.371094 229.476563 23.039063 229.652344 22.734375 229.996094 Z M 20.609375 231.042969 L 22.0625 229.402344 C 22.605469 228.789063 23.164063 228.464844 23.734375 228.433594 C 24.308594 228.394531 24.890625 228.628906 25.484375 229.136719 C 26.078125 229.660156 26.390625 230.210938 26.421875 230.792969 C 26.453125 231.367188 26.195313 231.960938 25.65625 232.574219 L 24.859375 233.480469 L 27.28125 235.605469 L 26.625 236.339844 Z M 23.765625 226.820313 L 24.265625 226.085938 L 31.171875 230.789063 L 30.671875 231.523438 Z M 28.980469 224.53125 C 28.710938 224.929688 28.667969 225.355469 28.855469 225.8125 C 29.042969 226.273438 29.433594 226.703125 30.027344 227.109375 C 30.621094 227.515625 31.167969 227.726563 31.667969 227.734375 C 32.167969 227.734375 32.550781 227.539063 32.824219 227.140625 C 33.09375 226.746094 33.136719 226.320313 32.949219 225.859375 C 32.761719 225.402344 32.371094 224.96875 31.777344 224.5625 C 31.183594 224.15625 30.636719 223.953125 30.136719 223.953125 C 29.636719 223.945313 29.253906 224.136719 28.980469 224.53125 Z M 28.292969 224.0625 C 28.730469 223.417969 29.308594 223.074219 30.027344 223.03125 C 30.738281 222.980469 31.496094 223.230469 32.308594 223.78125 C 33.121094 224.335938 33.628906 224.953125 33.839844 225.640625 C 34.058594 226.320313 33.949219 226.980469 33.511719 227.625 C 33.074219 228.273438 32.5 228.617188 31.792969 228.65625 C 31.085938 228.699219 30.324219 228.445313 29.511719 227.890625 C 28.699219 227.339844 28.183594 226.726563 27.964844 226.046875 C 27.746094 225.371094 27.855469 224.710938 28.292969 224.0625 Z M 29.726563 219.1875 L 31.132813 220.140625 L 32.164063 218.625 L 32.789063 219.0625 L 31.757813 220.578125 L 34.460938 222.421875 C 34.867188 222.695313 35.15625 222.820313 35.335938 222.796875 C 35.523438 222.777344 35.71875 222.609375 35.929688 222.296875 L 36.445313 221.546875 L 37.132813 222.015625 L 36.617188 222.765625 C 36.230469 223.339844 35.84375 223.652344 35.460938 223.703125 C 35.085938 223.757813 34.585938 223.574219 33.960938 223.15625 L 31.257813 221.3125 L 30.898438 221.859375 L 30.273438 221.421875 L 30.632813 220.875 L 29.226563 219.921875 Z M 31.90625 215.984375 L 33.3125 216.9375 L 34.34375 215.421875 L 34.96875 215.859375 L 33.9375 217.375 L 36.640625 219.21875 C 37.046875 219.492188 37.335938 219.617188 37.515625 219.59375 C 37.703125 219.574219 37.898438 219.40625 38.109375 219.09375 L 38.625 218.34375 L 39.3125 218.8125 L 38.796875 219.5625 C 38.410156 220.136719 38.023438 220.449219 37.640625 220.5 C 37.265625 220.554688 36.765625 220.371094 36.140625 219.953125 L 33.4375 218.109375 L 33.078125 218.65625 L 32.453125 218.21875 L 32.8125 217.671875 L 31.40625 216.71875 Z M 39.882813 212.203125 L 40.289063 212.46875 L 37.992188 215.84375 C 38.566406 216.199219 39.09375 216.339844 39.570313 216.265625 C 40.058594 216.183594 40.46875 215.902344 40.804688 215.421875 C 40.992188 215.132813 41.132813 214.828125 41.226563 214.515625 C 41.328125 214.203125 41.402344 213.867188 41.445313 213.5 L 42.195313 214.015625 C 42.140625 214.371094 42.054688 214.710938 41.929688 215.03125 C 41.804688 215.355469 41.648438 215.65625 41.460938 215.9375 C 40.96875 216.65625 40.355469 217.070313 39.617188 217.171875 C 38.878906 217.265625 38.113281 217.046875 37.320313 216.515625 C 36.507813 215.964844 36 215.328125 35.789063 214.609375 C 35.570313 213.882813 35.691406 213.179688 36.148438 212.5 C 36.566406 211.90625 37.109375 211.585938 37.773438 211.53125 C 38.441406 211.480469 39.144531 211.703125 39.882813 212.203125 Z M 39.132813 212.765625 C 38.6875 212.476563 38.253906 212.34375 37.835938 212.375 C 37.421875 212.40625 37.09375 212.605469 36.851563 212.96875 C 36.570313 213.375 36.476563 213.792969 36.570313 214.21875 C 36.65625 214.648438 36.914063 215.039063 37.351563 215.390625 Z M 40.949219 207.351563 C 40.835938 207.394531 40.738281 207.457031 40.652344 207.539063 C 40.558594 207.625 40.476563 207.722656 40.402344 207.835938 C 40.113281 208.265625 40.042969 208.691406 40.199219 209.117188 C 40.347656 209.535156 40.699219 209.9375 41.261719 210.320313 L 43.886719 212.101563 L 43.371094 212.851563 L 38.402344 209.460938 L 38.917969 208.710938 L 39.683594 209.242188 C 39.488281 208.890625 39.398438 208.539063 39.417969 208.195313 C 39.441406 207.84375 39.570313 207.488281 39.808594 207.132813 C 39.839844 207.082031 39.882813 207.03125 39.933594 206.976563 C 39.988281 206.914063 40.042969 206.851563 40.105469 206.789063 Z M 40.84375 202.332031 L 41.390625 201.519531 L 44.1875 203.425781 L 43.21875 198.832031 L 43.921875 197.785156 L 44.984375 202.863281 L 50.6875 202.082031 L 49.96875 203.144531 L 44.828125 203.847656 L 48.015625 206.019531 L 47.46875 206.832031 Z M 46.132813 198.09375 L 46.632813 197.359375 L 51.601563 200.75 L 51.101563 201.484375 Z M 44.195313 196.78125 L 44.695313 196.046875 L 45.726563 196.75 L 45.226563 197.484375 Z M 45.738281 194.507813 L 46.238281 193.773438 L 53.144531 198.476563 L 52.644531 199.210938 Z M 47.1875 192.335938 L 47.671875 191.585938 L 54.703125 196.101563 L 54.21875 196.851563 Z M 47.1875 192.335938 "/>
<path style="fill:none;stroke-width:3;stroke-linecap:round;stroke-linejoin:round;stroke:rgb(100%,100%,100%);stroke-opacity:1;stroke-miterlimit:10;" d="M 85.933594 86.4375 L 87.589844 86 L 91.324219 91.671875 L 91.808594 84.890625 L 93.464844 84.4375 L 95.886719 93.609375 L 94.792969 93.90625 L 92.667969 85.859375 L 92.199219 92.703125 L 91.074219 93 L 87.292969 87.28125 L 89.417969 95.328125 L 88.355469 95.609375 Z M 98.832031 86.308594 C 98.289063 86.457031 97.917969 86.808594 97.722656 87.371094 C 97.535156 87.925781 97.550781 88.617188 97.769531 89.449219 C 97.988281 90.273438 98.316406 90.878906 98.753906 91.261719 C 99.199219 91.648438 99.695313 91.769531 100.238281 91.621094 C 100.789063 91.488281 101.160156 91.144531 101.347656 90.589844 C 101.535156 90.027344 101.519531 89.339844 101.300781 88.527344 C 101.082031 87.707031 100.753906 87.097656 100.316406 86.699219 C 99.878906 86.304688 99.382813 86.175781 98.832031 86.308594 Z M 98.582031 85.371094 C 99.464844 85.144531 100.242188 85.277344 100.910156 85.777344 C 101.585938 86.277344 102.074219 87.097656 102.378906 88.230469 C 102.679688 89.355469 102.660156 90.308594 102.316406 91.089844 C 101.980469 91.863281 101.371094 92.363281 100.488281 92.589844 C 99.601563 92.832031 98.824219 92.699219 98.160156 92.199219 C 97.492188 91.691406 97.007813 90.871094 96.707031 89.746094 C 96.40625 88.613281 96.421875 87.660156 96.753906 86.886719 C 97.085938 86.117188 97.695313 85.613281 98.582031 85.371094 Z M 109.015625 85.695313 L 110.109375 89.851563 L 109.109375 90.117188 L 108.015625 86.007813 C 107.847656 85.351563 107.601563 84.894531 107.28125 84.632813 C 106.957031 84.375 106.570313 84.300781 106.125 84.414063 C 105.570313 84.5625 105.1875 84.875 104.96875 85.351563 C 104.757813 85.820313 104.742188 86.394531 104.921875 87.070313 L 105.953125 90.945313 L 104.9375 91.226563 L 102.40625 81.679688 L 103.421875 81.398438 L 104.421875 85.148438 C 104.554688 84.671875 104.757813 84.285156 105.03125 83.992188 C 105.3125 83.703125 105.664063 83.5 106.09375 83.382813 C 106.800781 83.207031 107.398438 83.3125 107.890625 83.695313 C 108.390625 84.082031 108.765625 84.75 109.015625 85.695313 Z M 114.035156 85.113281 C 113.210938 85.332031 112.667969 85.589844 112.410156 85.878906 C 112.148438 86.171875 112.085938 86.574219 112.222656 87.082031 C 112.324219 87.46875 112.527344 87.75 112.832031 87.925781 C 113.132813 88.105469 113.488281 88.140625 113.894531 88.035156 C 114.457031 87.890625 114.847656 87.550781 115.066406 87.019531 C 115.285156 86.480469 115.300781 85.839844 115.113281 85.097656 L 115.035156 84.847656 Z M 115.957031 84.113281 L 116.988281 88.035156 L 115.957031 88.300781 L 115.675781 87.253906 C 115.570313 87.734375 115.367188 88.125 115.066406 88.425781 C 114.773438 88.71875 114.378906 88.925781 113.878906 89.050781 C 113.242188 89.230469 112.683594 89.167969 112.207031 88.863281 C 111.738281 88.550781 111.414063 88.066406 111.238281 87.410156 C 111.042969 86.640625 111.117188 86 111.472656 85.488281 C 111.824219 84.980469 112.464844 84.597656 113.394531 84.347656 L 114.816406 83.972656 L 114.785156 83.847656 C 114.648438 83.339844 114.386719 82.980469 114.003906 82.769531 C 113.617188 82.5625 113.148438 82.53125 112.597656 82.675781 C 112.242188 82.769531 111.910156 82.910156 111.597656 83.097656 C 111.292969 83.285156 111.019531 83.515625 110.769531 83.785156 L 110.488281 82.738281 C 110.8125 82.480469 111.132813 82.265625 111.457031 82.097656 C 111.789063 81.933594 112.121094 81.800781 112.457031 81.707031 C 113.351563 81.480469 114.085938 81.5625 114.660156 81.957031 C 115.242188 82.34375 115.675781 83.0625 115.957031 84.113281 Z M 116.671875 80.761719 L 117.703125 80.496094 L 120.375 85.511719 L 120.234375 79.824219 L 121.421875 79.511719 L 124.109375 84.527344 L 123.96875 78.839844 L 124.984375 78.558594 L 125.171875 85.871094 L 123.96875 86.183594 L 121.15625 80.902344 L 121.3125 86.886719 L 120.109375 87.199219 Z M 125.757813 75.503906 L 126.773438 75.222656 L 128.273438 80.863281 L 130.523438 77.097656 L 131.835938 76.753906 L 129.382813 80.847656 L 133.773438 83.597656 L 132.460938 83.941406 L 128.414063 81.410156 L 129.304688 84.769531 L 128.289063 85.050781 Z M 141.269531 77.011719 C 141.539063 77.042969 141.824219 77.175781 142.128906 77.402344 C 142.441406 77.632813 142.777344 77.980469 143.144531 78.449219 L 144.925781 80.636719 L 143.722656 80.964844 L 142.035156 78.886719 C 141.617188 78.335938 141.253906 77.996094 140.941406 77.871094 C 140.636719 77.746094 140.261719 77.746094 139.816406 77.871094 L 138.597656 78.183594 L 139.613281 82.042969 L 138.519531 82.339844 L 136.097656 73.167969 L 138.597656 72.511719 C 139.542969 72.261719 140.304688 72.292969 140.878906 72.605469 C 141.460938 72.917969 141.871094 73.519531 142.113281 74.402344 C 142.257813 74.976563 142.257813 75.488281 142.113281 75.933594 C 141.976563 76.382813 141.695313 76.742188 141.269531 77.011719 Z M 137.457031 73.902344 L 138.316406 77.152344 L 139.722656 76.792969 C 140.261719 76.648438 140.632813 76.402344 140.832031 76.058594 C 141.027344 75.707031 141.058594 75.257813 140.925781 74.714844 C 140.777344 74.183594 140.535156 73.820313 140.191406 73.621094 C 139.847656 73.425781 139.402344 73.398438 138.863281 73.542969 Z M 144.515625 73.402344 L 145.515625 73.136719 L 147.328125 80.011719 L 146.328125 80.277344 Z M 143.796875 70.730469 L 144.796875 70.464844 L 145.1875 71.902344 L 144.1875 72.167969 Z M 146.90625 72.757813 L 147.984375 72.476563 L 151.4375 77.726563 L 151.84375 71.460938 L 152.9375 71.164063 L 152.421875 78.664063 L 151.046875 79.023438 Z M 160.457031 72.550781 L 160.597656 73.097656 L 155.910156 74.347656 C 156.167969 75.109375 156.542969 75.644531 157.035156 75.957031 C 157.523438 76.261719 158.101563 76.324219 158.769531 76.144531 C 159.164063 76.042969 159.527344 75.890625 159.863281 75.691406 C 160.195313 75.484375 160.519531 75.222656 160.832031 74.910156 L 161.113281 75.988281 C 160.789063 76.261719 160.445313 76.496094 160.082031 76.691406 C 159.726563 76.878906 159.355469 77.027344 158.972656 77.128906 C 157.980469 77.390625 157.113281 77.28125 156.363281 76.800781 C 155.621094 76.3125 155.105469 75.519531 154.816406 74.425781 C 154.515625 73.300781 154.550781 72.339844 154.925781 71.535156 C 155.300781 70.734375 155.949219 70.207031 156.878906 69.957031 C 157.710938 69.738281 158.445313 69.863281 159.082031 70.332031 C 159.726563 70.792969 160.183594 71.53125 160.457031 72.550781 Z M 159.332031 72.503906 C 159.175781 71.890625 158.894531 71.4375 158.488281 71.144531 C 158.089844 70.84375 157.644531 70.761719 157.144531 70.894531 C 156.570313 71.042969 156.160156 71.34375 155.910156 71.800781 C 155.667969 72.25 155.605469 72.800781 155.722656 73.457031 Z M 165.28125 69.339844 C 165.15625 69.300781 165.019531 69.273438 164.875 69.261719 C 164.738281 69.253906 164.585938 69.261719 164.421875 69.292969 C 163.835938 69.410156 163.429688 69.707031 163.203125 70.183594 C 162.972656 70.664063 162.9375 71.300781 163.09375 72.089844 L 163.828125 75.761719 L 162.796875 75.980469 L 161.40625 69.011719 L 162.4375 68.792969 L 162.640625 69.886719 C 162.773438 69.410156 162.992188 69.035156 163.296875 68.761719 C 163.609375 68.492188 164.007813 68.304688 164.5 68.199219 C 164.570313 68.191406 164.648438 68.183594 164.734375 68.183594 C 164.828125 68.175781 164.929688 68.164063 165.046875 68.152344 Z M 165.28125 69.339844 "/>
<path style=" stroke:none;fill-rule:evenodd;fill:rgb(41.960784%,58.039216%,69.019608%);fill-opacity:1;" d="M 85.933594 86.4375 L 87.589844 86 L 91.324219 91.671875 L 91.808594 84.890625 L 93.464844 84.4375 L 95.886719 93.609375 L 94.792969 93.90625 L 92.667969 85.859375 L 92.199219 92.703125 L 91.074219 93 L 87.292969 87.28125 L 89.417969 95.328125 L 88.355469 95.609375 Z M 98.832031 86.308594 C 98.289063 86.457031 97.917969 86.808594 97.722656 87.371094 C 97.535156 87.925781 97.550781 88.617188 97.769531 89.449219 C 97.988281 90.273438 98.316406 90.878906 98.753906 91.261719 C 99.199219 91.648438 99.695313 91.769531 100.238281 91.621094 C 100.789063 91.488281 101.160156 91.144531 101.347656 90.589844 C 101.535156 90.027344 101.519531 89.339844 101.300781 88.527344 C 101.082031 87.707031 100.753906 87.097656 100.316406 86.699219 C 99.878906 86.304688 99.382813 86.175781 98.832031 86.308594 Z M 98.582031 85.371094 C 99.464844 85.144531 100.242188 85.277344 100.910156 85.777344 C 101.585938 86.277344 102.074219 87.097656 102.378906 88.230469 C 102.679688 89.355469 102.660156 90.308594 102.316406 91.089844 C 101.980469 91.863281 101.371094 92.363281 100.488281 92.589844 C 99.601563 92.832031 98.824219 92.699219 98.160156 92.199219 C 97.492188 91.691406 97.007813 90.871094 96.707031 89.746094 C 96.40625 88.613281 96.421875 87.660156 96.753906 86.886719 C 97.085938 86.117188 97.695313 85.613281 98.582031 85.371094 Z M 109.015625 85.695313 L 110.109375 89.851563 L 109.109375 90.117188 L 108.015625 86.007813 C 107.847656 85.351563 107.601563 84.894531 107.28125 84.632813 C 106.957031 84.375 106.570313 84.300781 106.125 84.414063 C 105.570313 84.5625 105.1875 84.875 104.96875 85.351563 C 104.757813 85.820313 104.742188 86.394531 104.921875 87.070313 L 105.953125 90.945313 L 104.9375 91.226563 L 102.40625 81.679688 L 103.421875 81.398438 L 104.421875 85.148438 C 104.554688 84.671875 104.757813 84.285156 105.03125 83.992188 C 105.3125 83.703125 105.664063 83.5 106.09375 83.382813 C 106.800781 83.207031 107.398438 83.3125 107.890625 83.695313 C 108.390625 84.082031 108.765625 84.75 109.015625 85.695313 Z M 114.035156 85.113281 C 113.210938 85.332031 112.667969 85.589844 112.410156 85.878906 C 112.148438 86.171875 112.085938 86.574219 112.222656 87.082031 C 112.324219 87.46875 112.527344 87.75 112.832031 87.925781 C 113.132813 88.105469 113.488281 88.140625 113.894531 88.035156 C 114.457031 87.890625 114.847656 87.550781 115.066406 87.019531 C 115.285156 86.480469 115.300781 85.839844 115.113281 85.097656 L 115.035156 84.847656 Z M 115.957031 84.113281 L 116.988281 88.035156 L 115.957031 88.300781 L 115.675781 87.253906 C 115.570313 87.734375 115.367188 88.125 115.066406 88.425781 C 114.773438 88.71875 114.378906 88.925781 113.878906 89.050781 C 113.242188 89.230469 112.683594 89.167969 112.207031 88.863281 C 111.738281 88.550781 111.414063 88.066406 111.238281 87.410156 C 111.042969 86.640625 111.117188 86 111.472656 85.488281 C 111.824219 84.980469 112.464844 84.597656 113.394531 84.347656 L 114.816406 83.972656 L 114.785156 83.847656 C 114.648438 83.339844 114.386719 82.980469 114.003906 82.769531 C 113.617188 82.5625 113.148438 82.53125 112.597656 82.675781 C 112.242188 82.769531 111.910156 82.910156 111.597656 83.097656 C 111.292969 83.285156 111.019531 83.515625 110.769531 83.785156 L 110.488281 82.738281 C 110.8125 82.480469 111.132813 82.265625 111.457031 82.097656 C 111.789063 81.933594 112.121094 81.800781 112.457031 81.707031 C 113.351563 81.480469 114.085938 81.5625 114.660156 81.957031 C 115.242188 82.34375 115.675781 83.0625 115.957031 84.113281 Z M 116.671875 80.761719 L 117.703125 80.496094 L 120.375 85.511719 L 120.234375 79.824219 L 121.421875 79.511719 L 124.109375 84.527344 L 123.96875 78.839844 L 124.984375 78.558594 L 125.171875 85.871094 L 123.96875 86.183594 L 121.15625 80.902344 L 121.3125 86.886719 L 120.109375 87.199219 Z M 125.757813 75.503906 L 126.773438 75.222656 L 128.273438 80.863281 L 130.523438 77.097656 L 131.835938 76.753906 L 129.382813 80.847656 L 133.773438 83.597656 L 132.460938 83.941406 L 128.414063 81.410156 L 129.304688 84.769531 L 128.289063 85.050781 Z M 141.269531 77.011719 C 141.539063 77.042969 141.824219 77.175781 142.128906 77.402344 C 142.441406 77.632813 142.777344 77.980469 143.144531 78.449219 L 144.925781 80.636719 L 143.722656 80.964844 L 142.035156 78.886719 C 141.617188 78.335938 141.253906 77.996094 140.941406 77.871094 C 140.636719 77.746094 140.261719 77.746094 139.816406 77.871094 L 138.597656 78.183594 L 139.613281 82.042969 L 138.519531 82.339844 L 136.097656 73.167969 L 138.597656 72.511719 C 139.542969 72.261719 140.304688 72.292969 140.878906 72.605469 C 141.460938 72.917969 141.871094 73.519531 142.113281 74.402344 C 142.257813 74.976563 142.257813 75.488281 142.113281 75.933594 C 141.976563 76.382813 141.695313 76.742188 141.269531 77.011719 Z M 137.457031 73.902344 L 138.316406 77.152344 L 139.722656 76.792969 C 140.261719 76.648438 140.632813 76.402344 140.832031 76.058594 C 141.027344 75.707031 141.058594 75.257813 140.925781 74.714844 C 140.777344 74.183594 140.535156 73.820313 140.191406 73.621094 C 139.847656 73.425781 139.402344 73.398438 138.863281 73.542969 Z M 144.515625 73.402344 L 145.515625 73.136719 L 147.328125 80.011719 L 146.328125 80.277344 Z M 143.796875 70.730469 L 144.796875 70.464844 L 145.1875 71.902344 L 144.1875 72.167969 Z M 146.90625 72.757813 L 147.984375 72.476563 L 151.4375 77.726563 L 151.84375 71.460938 L 152.9375 71.164063 L 152.421875 78.664063 L 151.046875 79.023438 Z M 160.457031 72.550781 L 160.597656 73.097656 L 155.910156 74.347656 C 156.167969 75.109375 156.542969 75.644531 157.035156 75.957031 C 157.523438 76.261719 158.101563 76.324219 158.769531 76.144531 C 159.164063 76.042969 159.527344 75.890625 159.863281 75.691406 C 160.195313 75.484375 160.519531 75.222656 160.832031 74.910156 L 161.113281 75.988281 C 160.789063 76.261719 160.445313 76.496094 160.082031 76.691406 C 159.726563 76.878906 159.355469 77.027344 158.972656 77.128906 C 157.980469 77.390625 157.113281 77.28125 156.363281 76.800781 C 155.621094 76.3125 155.105469 75.519531 154.816406 74.425781 C 154.515625 73.300781 154.550781 72.339844 154.925781 71.535156 C 155.300781 70.734375 155.949219 70.207031 156.878906 69.957031 C 157.710938 69.738281 158.445313 69.863281 159.082031 70.332031 C 159.726563 70.792969 160.183594 71.53125 160.457031 72.550781 Z M 159.332031 72.503906 C 159.175781 71.890625 158.894531 71.4375 158.488281 71.144531 C 158.089844 70.84375 157.644531 70.761719 157.144531 70.894531 C 156.570313 71.042969 156.160156 71.34375 155.910156 71.800781 C 155.667969 72.25 155.605469 72.800781 155.722656 73.457031 Z M 165.28125 69.339844 C 165.15625 69.300781 165.019531 69.273438 164.875 69.261719 C 164.738281 69.253906 164.585938 69.261719 164.421875 69.292969 C 163.835938 69.410156 163.429688 69.707031 163.203125 70.183594 C 162.972656 70.664063 162.9375 71.300781 163.09375 72.089844 L 163.828125 75.761719 L 162.796875 75.980469 L 161.40625 69.011719 L 162.4375 68.792969 L 162.640625 69.886719 C 162.773438 69.410156 162.992188 69.035156 163.296875 68.761719 C 163.609375 68.492188 164.007813 68.304688 164.5 68.199219 C 164.570313 68.191406 164.648438 68.183594 164.734375 68.183594 C 164.828125 68.175781 164.929688 68.164063 165.046875 68.152344 Z M 165.28125 69.339844 "/>
</g>
</svg>

