<?xml version="1.0" encoding="UTF-8"?>
<svg xmlns="http://www.w3.org/2000/svg" xmlns:xlink="http://www.w3.org/1999/xlink" width="256pt" height="256pt" viewBox="0 0 256 256" version="1.1">
<g id="surface2">
<rect x="0" y="0" width="256" height="256" style="fill:rgb(94.901961%,93.72549%,91.372549%);fill-opacity:1;stroke:none;"/>
<path style="fill:none;stroke-width:2;stroke-linecap:round;stroke-linejoin:round;stroke:rgb(60%,70.196078%,80%);stroke-opacity:1;stroke-miterlimit:10;" d="M 10.164063 258 L 11.492188 236.058594 L 3.605469 220.632813 "/>
<path style="fill:none;stroke-width:2;stroke-linecap:round;stroke-linejoin:round;stroke:rgb(60%,70.196078%,80%);stroke-opacity:1;stroke-miterlimit:10;" d="M -3 243.265625 L -1.929688 241.847656 L -0.851563 234.710938 L 3.605469 220.632813 L 4.148438 218.714844 L 5.148438 207.710938 L 1.496094 196.011719 L 1.496094 184.515625 L 8.648438 176.210938 L 21.148438 165.214844 L 29.144531 158.214844 L 37.148438 143.214844 L 45 123.011719 L 52.648438 116.210938 L 67.996094 106.511719 L 69.148438 98.214844 L 71.496094 84.511719 L 84.496094 65.011719 L 91.148438 49.710938 L 99.496094 39.011719 L 107.746094 29.792969 L 114.652344 13.980469 L 116.957031 -1.347656 L 117.171875 -3 "/>
<path style="fill:none;stroke-width:1;stroke-linecap:round;stroke-linejoin:round;stroke:rgb(100%,100%,100%);stroke-opacity:1;stroke-dasharray:2,3;stroke-miterlimit:10;" d="M 219.410156 -2 L 217.890625 0.0390625 L 188.050781 16.734375 L 168.546875 35.183594 L 162.367188 50.554688 L 149.304688 60.226563 L 133.199219 70.34375 L 121.359375 79.429688 L 119.054688 86.230469 L 121.804688 94.226563 L 109.195313 110.316406 L 92.554688 124.480469 L 68.300781 144.820313 L 58.957031 157.269531 L 42.863281 165.070313 L 21.453125 179.222656 L 14.402344 203.925781 L 16.546875 225.558594 L 18.054688 235.976563 L 14.390625 248.636719 L 14.324219 257 "/>
</g>
</svg>

