<?xml version="1.0" encoding="UTF-8"?>
<svg xmlns="http://www.w3.org/2000/svg" xmlns:xlink="http://www.w3.org/1999/xlink" width="256pt" height="256pt" viewBox="0 0 256 256" version="1.1">
<g id="surface2">
<rect x="0" y="0" width="256" height="256" style="fill:rgb(94.901961%,93.72549%,91.372549%);fill-opacity:1;stroke:none;"/>
<path style="fill:none;stroke-width:8;stroke-linecap:round;stroke-linejoin:round;stroke:rgb(75.686275%,70.980392%,61.568627%);stroke-opacity:1;stroke-miterlimit:10;" d="M 120.675781 57.613281 L 177.160156 57.832031 "/>
<path style="fill:none;stroke-width:8;stroke-linecap:round;stroke-linejoin:round;stroke:rgb(75.686275%,70.980392%,61.568627%);stroke-opacity:1;stroke-miterlimit:10;" d="M 115.011719 9.644531 L 51.703125 8.507813 L 35.855469 0.5625 L 29.914063 -8.804688 L 29.886719 -9 "/>
<path style="fill:none;stroke-width:8;stroke-linecap:round;stroke-linejoin:round;stroke:rgb(75.686275%,70.980392%,61.568627%);stroke-opacity:1;stroke-miterlimit:10;" d="M 151.648438 264 L 147.75 261.394531 L 139.804688 255.085938 L 137.007813 252.25 L 135.402344 250.355469 L 132.1875 246.226563 L 130.273438 242.535156 L 129.0625 238.816406 L 127.550781 233.582031 L 126.359375 227.96875 L 125.453125 222.734375 L 123.542969 205.703125 L 122.632813 199.683594 L 121.234375 195.488281 "/>
<path style="fill:none;stroke-width:8;stroke-linecap:round;stroke-linejoin:round;stroke:rgb(75.686275%,70.980392%,61.568627%);stroke-opacity:1;stroke-miterlimit:10;" d="M 121.234375 195.488281 L 117.414063 188.832031 L 114.894531 185.332031 L 112.007813 182.464844 L 109.257813 180.320313 L 106.226563 178.394531 L 102.5 176.472656 L 95.347656 173.160156 L 46.878906 153.894531 L 42.871094 152.789063 L 37.90625 151.84375 L 34.320313 151.558594 L 28.960938 151.433594 L -1.867188 152.441406 L -9 152.328125 "/>
<path style="fill:none;stroke-width:8;stroke-linecap:round;stroke-linejoin:round;stroke:rgb(75.686275%,70.980392%,61.568627%);stroke-opacity:1;stroke-miterlimit:10;" d="M 121.234375 195.488281 L 122.492188 194.574219 L 123.585938 192.648438 L 123.84375 186.4375 L 123.449219 147.933594 L 123.144531 130.714844 L 123.144531 92.648438 L 122.328125 82.621094 L 120.675781 57.613281 L 119.136719 34.148438 L 118.578125 27.085938 L 117.738281 21.441406 L 115.945313 12.734375 L 115.011719 9.644531 L 113.871094 5.859375 L 110.816406 -1.644531 L 107.96875 -9 "/>
<path style="fill:none;stroke-width:6;stroke-linecap:round;stroke-linejoin:round;stroke:rgb(100%,100%,100%);stroke-opacity:1;stroke-miterlimit:10;" d="M 120.675781 57.613281 L 177.160156 57.832031 "/>
<path style="fill:none;stroke-width:6;stroke-linecap:round;stroke-linejoin:round;stroke:rgb(100%,100%,100%);stroke-opacity:1;stroke-miterlimit:10;" d="M 115.011719 9.644531 L 51.703125 8.507813 L 35.855469 0.5625 L 29.914063 -8.804688 L 29.886719 -9 "/>
<path style="fill:none;stroke-width:6;stroke-linecap:round;stroke-linejoin:round;stroke:rgb(100%,100%,100%);stroke-opacity:1;stroke-miterlimit:10;" d="M 151.648438 264 L 147.75 261.394531 L 139.804688 255.085938 L 137.007813 252.25 L 135.402344 250.355469 L 132.1875 246.226563 L 130.273438 242.535156 L 129.0625 238.816406 L 127.550781 233.582031 L 126.359375 227.96875 L 125.453125 222.734375 L 123.542969 205.703125 L 122.632813 199.683594 L 121.234375 195.488281 "/>
<path style="fill:none;stroke-width:6;stroke-linecap:round;stroke-linejoin:round;stroke:rgb(100%,100%,100%);stroke-opacity:1;stroke-miterlimit:10;" d="M 121.234375 195.488281 L 117.414063 188.832031 L 114.894531 185.332031 L 112.007813 182.464844 L 109.257813 180.320313 L 106.226563 178.394531 L 102.5 176.472656 L 95.347656 173.160156 L 46.878906 153.894531 L 42.871094 152.789063 L 37.90625 151.84375 L 34.320313 151.558594 L 28.960938 151.433594 L -1.867188 152.441406 L -9 152.328125 "/>
<path style="fill:none;stroke-width:6;stroke-linecap:round;stroke-linejoin:round;stroke:rgb(100%,100%,100%);stroke-opacity:1;stroke-miterlimit:10;" d="M 121.234375 195.488281 L 122.492188 194.574219 L 123.585938 192.648438 L 123.84375 186.4375 L 123.449219 147.933594 L 123.144531 130.714844 L 123.144531 92.648438 L 122.328125 82.621094 L 120.675781 57.613281 L 119.136719 34.148438 L 118.578125 27.085938 L 117.738281 21.441406 L 115.945313 12.734375 L 115.011719 9.644531 L 113.871094 5.859375 L 110.816406 -1.644531 L 107.96875 -9 "/>
<path style="fill:none;stroke-width:3;stroke-linecap:round;stroke-linejoin:round;stroke:rgb(100%,100%,100%);stroke-opacity:1;stroke-miterlimit:10;" d="M 124.796875 59.066406 L 124.859375 60.050781 L 121.46875 60.269531 L 125.078125 63.269531 L 125.15625 64.535156 L 121.1875 61.207031 L 117.171875 65.316406 L 117.09375 64.035156 L 120.703125 60.332031 L 116.859375 60.582031 L 116.796875 59.597656 Z M 123.222656 65.644531 L 123.285156 66.535156 L 117.285156 66.925781 L 117.222656 66.035156 Z M 125.566406 65.488281 L 125.628906 66.378906 L 124.378906 66.457031 L 124.316406 65.566406 Z M 121.3125 73.03125 L 117.703125 73.265625 L 117.640625 72.375 L 121.21875 72.140625 C 121.789063 72.097656 122.210938 71.96875 122.484375 71.75 C 122.753906 71.53125 122.875 71.226563 122.84375 70.84375 C 122.8125 70.363281 122.617188 69.992188 122.265625 69.734375 C 121.910156 69.484375 121.445313 69.378906 120.875 69.421875 L 117.46875 69.640625 L 117.40625 68.734375 L 123.40625 68.34375 L 123.46875 69.25 L 122.53125 69.3125 C 122.90625 69.488281 123.191406 69.710938 123.390625 69.984375 C 123.585938 70.265625 123.695313 70.597656 123.71875 70.984375 C 123.757813 71.585938 123.578125 72.0625 123.171875 72.40625 C 122.765625 72.757813 122.144531 72.96875 121.3125 73.03125 Z M 121.132813 78.390625 C 121.839844 78.335938 122.382813 78.164063 122.757813 77.875 C 123.132813 77.582031 123.304688 77.195313 123.273438 76.71875 C 123.242188 76.25 123.015625 75.894531 122.601563 75.65625 C 122.195313 75.414063 121.636719 75.320313 120.929688 75.375 C 120.21875 75.414063 119.679688 75.582031 119.304688 75.875 C 118.929688 76.175781 118.757813 76.5625 118.789063 77.03125 C 118.820313 77.507813 119.039063 77.863281 119.445313 78.09375 C 119.859375 78.332031 120.421875 78.429688 121.132813 78.390625 Z M 118.867188 79.4375 C 117.835938 79.5 117.0625 79.34375 116.539063 78.96875 C 116.019531 78.59375 115.726563 77.988281 115.664063 77.15625 C 115.644531 76.84375 115.65625 76.546875 115.695313 76.265625 C 115.726563 75.984375 115.785156 75.707031 115.867188 75.4375 L 116.820313 75.375 C 116.6875 75.644531 116.59375 75.910156 116.539063 76.171875 C 116.476563 76.429688 116.457031 76.691406 116.476563 76.953125 C 116.507813 77.523438 116.707031 77.945313 117.070313 78.21875 C 117.425781 78.488281 117.9375 78.601563 118.617188 78.5625 L 119.117188 78.53125 C 118.75 78.363281 118.46875 78.144531 118.273438 77.875 C 118.074219 77.601563 117.964844 77.269531 117.945313 76.875 C 117.890625 76.207031 118.132813 75.648438 118.664063 75.203125 C 119.203125 74.765625 119.9375 74.515625 120.867188 74.453125 C 121.78125 74.390625 122.53125 74.539063 123.117188 74.90625 C 123.710938 75.28125 124.03125 75.800781 124.085938 76.46875 C 124.105469 76.863281 124.039063 77.207031 123.882813 77.5 C 123.734375 77.789063 123.492188 78.039063 123.148438 78.25 L 124.054688 78.203125 L 124.117188 79.09375 Z M 126.457031 83.882813 L 126.535156 84.867188 L 123.269531 85.132813 L 123.566406 88.664063 L 126.832031 88.398438 L 126.910156 89.367188 L 118.925781 90.023438 L 118.847656 89.054688 L 122.644531 88.742188 L 122.347656 85.210938 L 118.550781 85.523438 L 118.472656 84.539063 Z M 125.050781 91.472656 L 125.097656 92.363281 L 119.097656 92.722656 L 119.050781 91.832031 Z M 127.394531 91.332031 L 127.441406 92.222656 L 126.191406 92.300781 L 126.144531 91.410156 Z M 127.503906 94.339844 L 127.503906 95.230469 L 119.144531 95.230469 L 119.144531 94.339844 Z M 127.503906 97.089844 L 127.503906 97.980469 L 119.144531 97.980469 L 119.144531 97.089844 Z M 122.910156 106.433594 C 122.824219 106.640625 122.652344 106.84375 122.394531 107.042969 C 122.144531 107.238281 121.789063 107.441406 121.332031 107.652344 L 119.144531 108.636719 L 119.144531 107.589844 L 121.207031 106.667969 C 121.738281 106.425781 122.089844 106.191406 122.269531 105.964844 C 122.445313 105.746094 122.535156 105.441406 122.535156 105.058594 L 122.535156 103.996094 L 119.144531 103.996094 L 119.144531 103.011719 L 127.160156 103.011719 L 127.160156 105.214844 C 127.160156 106.046875 126.964844 106.660156 126.582031 107.058594 C 126.207031 107.464844 125.628906 107.667969 124.847656 107.667969 C 124.347656 107.667969 123.929688 107.5625 123.597656 107.355469 C 123.261719 107.144531 123.035156 106.839844 122.910156 106.433594 Z M 126.269531 103.996094 L 123.425781 103.996094 L 123.425781 105.214844 C 123.425781 105.691406 123.542969 106.050781 123.785156 106.292969 C 124.023438 106.53125 124.378906 106.652344 124.847656 106.652344 C 125.316406 106.652344 125.667969 106.53125 125.910156 106.292969 C 126.148438 106.050781 126.269531 105.691406 126.269531 105.214844 Z M 124.472656 111.949219 C 124.472656 111.46875 124.261719 111.089844 123.847656 110.808594 C 123.429688 110.535156 122.863281 110.402344 122.144531 110.402344 C 121.425781 110.402344 120.855469 110.535156 120.441406 110.808594 C 120.035156 111.089844 119.832031 111.46875 119.832031 111.949219 C 119.832031 112.425781 120.035156 112.800781 120.441406 113.074219 C 120.855469 113.355469 121.425781 113.496094 122.144531 113.496094 C 122.863281 113.496094 123.429688 113.355469 123.847656 113.074219 C 124.261719 112.800781 124.472656 112.425781 124.472656 111.949219 Z M 125.300781 111.949219 C 125.300781 112.71875 125.019531 113.324219 124.457031 113.761719 C 123.902344 114.207031 123.132813 114.433594 122.144531 114.433594 C 121.164063 114.433594 120.394531 114.207031 119.832031 113.761719 C 119.269531 113.324219 118.988281 112.71875 118.988281 111.949219 C 118.988281 111.167969 119.269531 110.558594 119.832031 110.121094 C 120.394531 109.683594 121.164063 109.464844 122.144531 109.464844 C 123.132813 109.464844 123.902344 109.683594 124.457031 110.121094 C 125.019531 110.558594 125.300781 111.167969 125.300781 111.949219 Z M 122.175781 118.355469 C 122.175781 117.636719 122.082031 117.136719 121.894531 116.855469 C 121.707031 116.582031 121.394531 116.449219 120.957031 116.449219 C 120.613281 116.449219 120.335938 116.550781 120.128906 116.761719 C 119.917969 116.96875 119.816406 117.25 119.816406 117.605469 C 119.816406 118.105469 120.007813 118.5 120.394531 118.792969 C 120.789063 119.09375 121.304688 119.246094 121.941406 119.246094 L 122.175781 119.246094 Z M 122.582031 120.136719 L 119.144531 120.136719 L 119.144531 119.246094 L 120.050781 119.246094 C 119.683594 119.035156 119.414063 118.78125 119.238281 118.480469 C 119.074219 118.175781 118.988281 117.808594 118.988281 117.371094 C 118.988281 116.816406 119.160156 116.375 119.503906 116.042969 C 119.847656 115.71875 120.308594 115.558594 120.894531 115.558594 C 121.570313 115.558594 122.082031 115.761719 122.425781 116.167969 C 122.769531 116.574219 122.941406 117.183594 122.941406 117.996094 L 122.941406 119.246094 L 123.035156 119.246094 C 123.492188 119.246094 123.847656 119.109375 124.097656 118.839844 C 124.347656 118.566406 124.472656 118.1875 124.472656 117.699219 C 124.472656 117.394531 124.429688 117.09375 124.347656 116.792969 C 124.261719 116.5 124.136719 116.21875 123.972656 115.949219 L 124.878906 115.949219 C 125.023438 116.28125 125.128906 116.597656 125.191406 116.902344 C 125.261719 117.203125 125.300781 117.5 125.300781 117.792969 C 125.300781 118.574219 125.074219 119.15625 124.628906 119.542969 C 124.179688 119.9375 123.496094 120.136719 122.582031 120.136719 Z M 124.253906 125.527344 L 127.503906 125.527344 L 127.503906 126.417969 L 119.144531 126.417969 L 119.144531 125.527344 L 120.050781 125.527344 C 119.683594 125.339844 119.414063 125.097656 119.238281 124.808594 C 119.074219 124.527344 118.988281 124.1875 118.988281 123.792969 C 118.988281 123.136719 119.273438 122.597656 119.847656 122.183594 C 120.429688 121.777344 121.195313 121.574219 122.144531 121.574219 C 123.089844 121.574219 123.851563 121.777344 124.425781 122.183594 C 125.007813 122.597656 125.300781 123.136719 125.300781 123.792969 C 125.300781 124.1875 125.210938 124.527344 125.035156 124.808594 C 124.867188 125.097656 124.605469 125.339844 124.253906 125.527344 Z M 122.144531 122.496094 C 121.414063 122.496094 120.839844 122.625 120.425781 122.886719 C 120.019531 123.15625 119.816406 123.527344 119.816406 123.996094 C 119.816406 124.472656 120.019531 124.847656 120.425781 125.121094 C 120.839844 125.390625 121.414063 125.527344 122.144531 125.527344 C 122.871094 125.527344 123.441406 125.390625 123.847656 125.121094 C 124.261719 124.847656 124.472656 124.472656 124.472656 123.996094 C 124.472656 123.527344 124.261719 123.15625 123.847656 122.886719 C 123.441406 122.625 122.871094 122.496094 122.144531 122.496094 Z M 122.144531 122.496094 "/>
<path style=" stroke:none;fill-rule:evenodd;fill:rgb(20%,20%,20%);fill-opacity:1;" d="M 124.796875 59.066406 L 124.859375 60.050781 L 121.46875 60.269531 L 125.078125 63.269531 L 125.15625 64.535156 L 121.1875 61.207031 L 117.171875 65.316406 L 117.09375 64.035156 L 120.703125 60.332031 L 116.859375 60.582031 L 116.796875 59.597656 Z M 123.222656 65.644531 L 123.285156 66.535156 L 117.285156 66.925781 L 117.222656 66.035156 Z M 125.566406 65.488281 L 125.628906 66.378906 L 124.378906 66.457031 L 124.316406 65.566406 Z M 121.3125 73.03125 L 117.703125 73.265625 L 117.640625 72.375 L 121.21875 72.140625 C 121.789063 72.097656 122.210938 71.96875 122.484375 71.75 C 122.753906 71.53125 122.875 71.226563 122.84375 70.84375 C 122.8125 70.363281 122.617188 69.992188 122.265625 69.734375 C 121.910156 69.484375 121.445313 69.378906 120.875 69.421875 L 117.46875 69.640625 L 117.40625 68.734375 L 123.40625 68.34375 L 123.46875 69.25 L 122.53125 69.3125 C 122.90625 69.488281 123.191406 69.710938 123.390625 69.984375 C 123.585938 70.265625 123.695313 70.597656 123.71875 70.984375 C 123.757813 71.585938 123.578125 72.0625 123.171875 72.40625 C 122.765625 72.757813 122.144531 72.96875 121.3125 73.03125 Z M 121.132813 78.390625 C 121.839844 78.335938 122.382813 78.164063 122.757813 77.875 C 123.132813 77.582031 123.304688 77.195313 123.273438 76.71875 C 123.242188 76.25 123.015625 75.894531 122.601563 75.65625 C 122.195313 75.414063 121.636719 75.320313 120.929688 75.375 C 120.21875 75.414063 119.679688 75.582031 119.304688 75.875 C 118.929688 76.175781 118.757813 76.5625 118.789063 77.03125 C 118.820313 77.507813 119.039063 77.863281 119.445313 78.09375 C 119.859375 78.332031 120.421875 78.429688 121.132813 78.390625 Z M 118.867188 79.4375 C 117.835938 79.5 117.0625 79.34375 116.539063 78.96875 C 116.019531 78.59375 115.726563 77.988281 115.664063 77.15625 C 115.644531 76.84375 115.65625 76.546875 115.695313 76.265625 C 115.726563 75.984375 115.785156 75.707031 115.867188 75.4375 L 116.820313 75.375 C 116.6875 75.644531 116.59375 75.910156 116.539063 76.171875 C 116.476563 76.429688 116.457031 76.691406 116.476563 76.953125 C 116.507813 77.523438 116.707031 77.945313 117.070313 78.21875 C 117.425781 78.488281 117.9375 78.601563 118.617188 78.5625 L 119.117188 78.53125 C 118.75 78.363281 118.46875 78.144531 118.273438 77.875 C 118.074219 77.601563 117.964844 77.269531 117.945313 76.875 C 117.890625 76.207031 118.132813 75.648438 118.664063 75.203125 C 119.203125 74.765625 119.9375 74.515625 120.867188 74.453125 C 121.78125 74.390625 122.53125 74.539063 123.117188 74.90625 C 123.710938 75.28125 124.03125 75.800781 124.085938 76.46875 C 124.105469 76.863281 124.039063 77.207031 123.882813 77.5 C 123.734375 77.789063 123.492188 78.039063 123.148438 78.25 L 124.054688 78.203125 L 124.117188 79.09375 Z M 126.457031 83.882813 L 126.535156 84.867188 L 123.269531 85.132813 L 123.566406 88.664063 L 126.832031 88.398438 L 126.910156 89.367188 L 118.925781 90.023438 L 118.847656 89.054688 L 122.644531 88.742188 L 122.347656 85.210938 L 118.550781 85.523438 L 118.472656 84.539063 Z M 125.050781 91.472656 L 125.097656 92.363281 L 119.097656 92.722656 L 119.050781 91.832031 Z M 127.394531 91.332031 L 127.441406 92.222656 L 126.191406 92.300781 L 126.144531 91.410156 Z M 127.503906 94.339844 L 127.503906 95.230469 L 119.144531 95.230469 L 119.144531 94.339844 Z M 127.503906 97.089844 L 127.503906 97.980469 L 119.144531 97.980469 L 119.144531 97.089844 Z M 122.910156 106.433594 C 122.824219 106.640625 122.652344 106.84375 122.394531 107.042969 C 122.144531 107.238281 121.789063 107.441406 121.332031 107.652344 L 119.144531 108.636719 L 119.144531 107.589844 L 121.207031 106.667969 C 121.738281 106.425781 122.089844 106.191406 122.269531 105.964844 C 122.445313 105.746094 122.535156 105.441406 122.535156 105.058594 L 122.535156 103.996094 L 119.144531 103.996094 L 119.144531 103.011719 L 127.160156 103.011719 L 127.160156 105.214844 C 127.160156 106.046875 126.964844 106.660156 126.582031 107.058594 C 126.207031 107.464844 125.628906 107.667969 124.847656 107.667969 C 124.347656 107.667969 123.929688 107.5625 123.597656 107.355469 C 123.261719 107.144531 123.035156 106.839844 122.910156 106.433594 Z M 126.269531 103.996094 L 123.425781 103.996094 L 123.425781 105.214844 C 123.425781 105.691406 123.542969 106.050781 123.785156 106.292969 C 124.023438 106.53125 124.378906 106.652344 124.847656 106.652344 C 125.316406 106.652344 125.667969 106.53125 125.910156 106.292969 C 126.148438 106.050781 126.269531 105.691406 126.269531 105.214844 Z M 124.472656 111.949219 C 124.472656 111.46875 124.261719 111.089844 123.847656 110.808594 C 123.429688 110.535156 122.863281 110.402344 122.144531 110.402344 C 121.425781 110.402344 120.855469 110.535156 120.441406 110.808594 C 120.035156 111.089844 119.832031 111.46875 119.832031 111.949219 C 119.832031 112.425781 120.035156 112.800781 120.441406 113.074219 C 120.855469 113.355469 121.425781 113.496094 122.144531 113.496094 C 122.863281 113.496094 123.429688 113.355469 123.847656 113.074219 C 124.261719 112.800781 124.472656 112.425781 124.472656 111.949219 Z M 125.300781 111.949219 C 125.300781 112.71875 125.019531 113.324219 124.457031 113.761719 C 123.902344 114.207031 123.132813 114.433594 122.144531 114.433594 C 121.164063 114.433594 120.394531 114.207031 119.832031 113.761719 C 119.269531 113.324219 118.988281 112.71875 118.988281 111.949219 C 118.988281 111.167969 119.269531 110.558594 119.832031 110.121094 C 120.394531 109.683594 121.164063 109.464844 122.144531 109.464844 C 123.132813 109.464844 123.902344 109.683594 124.457031 110.121094 C 125.019531 110.558594 125.300781 111.167969 125.300781 111.949219 Z M 122.175781 118.355469 C 122.175781 117.636719 122.082031 117.136719 121.894531 116.855469 C 121.707031 116.582031 121.394531 116.449219 120.957031 116.449219 C 120.613281 116.449219 120.335938 116.550781 120.128906 116.761719 C 119.917969 116.96875 119.816406 117.25 119.816406 117.605469 C 119.816406 118.105469 120.007813 118.5 120.394531 118.792969 C 120.789063 119.09375 121.304688 119.246094 121.941406 119.246094 L 122.175781 119.246094 Z M 122.582031 120.136719 L 119.144531 120.136719 L 119.144531 119.246094 L 120.050781 119.246094 C 119.683594 119.035156 119.414063 118.78125 119.238281 118.480469 C 119.074219 118.175781 118.988281 117.808594 118.988281 117.371094 C 118.988281 116.816406 119.160156 116.375 119.503906 116.042969 C 119.847656 115.71875 120.308594 115.558594 120.894531 115.558594 C 121.570313 115.558594 122.082031 115.761719 122.425781 116.167969 C 122.769531 116.574219 122.941406 117.183594 122.941406 117.996094 L 122.941406 119.246094 L 123.035156 119.246094 C 123.492188 119.246094 123.847656 119.109375 124.097656 118.839844 C 124.347656 118.566406 124.472656 118.1875 124.472656 117.699219 C 124.472656 117.394531 124.429688 117.09375 124.347656 116.792969 C 124.261719 116.5 124.136719 116.21875 123.972656 115.949219 L 124.878906 115.949219 C 125.023438 116.28125 125.128906 116.597656 125.191406 116.902344 C 125.261719 117.203125 125.300781 117.5 125.300781 117.792969 C 125.300781 118.574219 125.074219 119.15625 124.628906 119.542969 C 124.179688 119.9375 123.496094 120.136719 122.582031 120.136719 Z M 124.253906 125.527344 L 127.503906 125.527344 L 127.503906 126.417969 L 119.144531 126.417969 L 119.144531 125.527344 L 120.050781 125.527344 C 119.683594 125.339844 119.414063 125.097656 119.238281 124.808594 C 119.074219 124.527344 118.988281 124.1875 118.988281 123.792969 C 118.988281 123.136719 119.273438 122.597656 119.847656 122.183594 C 120.429688 121.777344 121.195313 121.574219 122.144531 121.574219 C 123.089844 121.574219 123.851563 121.777344 124.425781 122.183594 C 125.007813 122.597656 125.300781 123.136719 125.300781 123.792969 C 125.300781 124.1875 125.210938 124.527344 125.035156 124.808594 C 124.867188 125.097656 124.605469 125.339844 124.253906 125.527344 Z M 122.144531 122.496094 C 121.414063 122.496094 120.839844 122.625 120.425781 122.886719 C 120.019531 123.15625 119.816406 123.527344 119.816406 123.996094 C 119.816406 124.472656 120.019531 124.847656 120.425781 125.121094 C 120.839844 125.390625 121.414063 125.527344 122.144531 125.527344 C 122.871094 125.527344 123.441406 125.390625 123.847656 125.121094 C 124.261719 124.847656 124.472656 124.472656 124.472656 123.996094 C 124.472656 123.527344 124.261719 123.15625 123.847656 122.886719 C 123.441406 122.625 122.871094 122.496094 122.144531 122.496094 Z M 122.144531 122.496094 "/>
<path style="fill:none;stroke-width:3;stroke-linecap:round;stroke-linejoin:round;stroke:rgb(100%,100%,100%);stroke-opacity:1;stroke-miterlimit:10;" d="M 26.253906 148.445313 L 26.316406 154.679688 L 27.488281 154.664063 C 28.488281 154.65625 29.214844 154.398438 29.675781 153.898438 C 30.132813 153.390625 30.355469 152.59375 30.347656 151.507813 C 30.335938 150.4375 30.097656 149.65625 29.628906 149.164063 C 29.160156 148.664063 28.425781 148.421875 27.425781 148.429688 Z M 25.269531 147.554688 L 27.269531 147.539063 C 28.675781 147.53125 29.707031 147.84375 30.363281 148.476563 C 31.019531 149.113281 31.351563 150.117188 31.363281 151.492188 C 31.382813 152.878906 31.066406 153.898438 30.410156 154.554688 C 29.761719 155.210938 28.742188 155.546875 27.347656 155.554688 L 25.347656 155.570313 Z M 36.082031 150.59375 C 35.988281 150.53125 35.878906 150.484375 35.753906 150.453125 C 35.636719 150.414063 35.511719 150.386719 35.378906 150.375 C 34.867188 150.355469 34.472656 150.523438 34.191406 150.875 C 33.910156 151.21875 33.746094 151.730469 33.707031 152.40625 L 33.566406 155.578125 L 32.660156 155.546875 L 32.941406 149.53125 L 33.847656 149.5625 L 33.800781 150.5 C 34.007813 150.148438 34.261719 149.890625 34.566406 149.734375 C 34.867188 149.570313 35.230469 149.496094 35.660156 149.515625 C 35.722656 149.515625 35.789063 149.523438 35.863281 149.53125 C 35.945313 149.542969 36.027344 149.558594 36.113281 149.578125 Z M 39.210938 153.160156 C 38.5 153.058594 37.996094 153.078125 37.695313 153.222656 C 37.390625 153.371094 37.210938 153.65625 37.148438 154.082031 C 37.09375 154.425781 37.152344 154.71875 37.320313 154.957031 C 37.496094 155.199219 37.761719 155.34375 38.117188 155.394531 C 38.605469 155.46875 39.027344 155.332031 39.382813 154.988281 C 39.734375 154.644531 39.960938 154.160156 40.054688 153.535156 L 40.101563 153.300781 Z M 41.039063 153.050781 L 40.507813 156.441406 L 39.632813 156.300781 L 39.773438 155.410156 C 39.511719 155.730469 39.214844 155.957031 38.882813 156.082031 C 38.558594 156.207031 38.179688 156.238281 37.742188 156.175781 C 37.199219 156.089844 36.792969 155.855469 36.523438 155.472656 C 36.261719 155.078125 36.171875 154.589844 36.257813 154.003906 C 36.359375 153.339844 36.636719 152.871094 37.085938 152.597656 C 37.542969 152.316406 38.171875 152.238281 38.976563 152.363281 L 40.210938 152.550781 L 40.226563 152.457031 C 40.296875 152 40.214844 151.628906 39.976563 151.347656 C 39.746094 151.058594 39.390625 150.875 38.914063 150.800781 C 38.609375 150.75 38.308594 150.746094 38.007813 150.785156 C 37.703125 150.828125 37.402344 150.910156 37.101563 151.035156 L 37.242188 150.128906 C 37.59375 150.046875 37.921875 149.996094 38.226563 149.972656 C 38.539063 149.941406 38.839844 149.953125 39.132813 150.003906 C 39.902344 150.121094 40.445313 150.433594 40.757813 150.941406 C 41.078125 151.441406 41.171875 152.144531 41.039063 153.050781 Z M 44.011719 148.648438 L 44.886719 148.898438 L 43.574219 153.664063 L 46.824219 151.867188 L 47.917969 152.164063 L 44.417969 154.101563 L 46.433594 157.992188 L 45.308594 157.679688 L 43.449219 154.132813 L 42.667969 156.960938 L 41.792969 156.710938 Z M 52.414063 156.910156 L 52.226563 157.363281 L 48.414063 155.847656 C 48.203125 156.484375 48.1875 157.03125 48.367188 157.488281 C 48.554688 157.933594 48.917969 158.269531 49.460938 158.488281 C 49.773438 158.613281 50.09375 158.683594 50.429688 158.707031 C 50.761719 158.738281 51.109375 158.738281 51.476563 158.707031 L 51.132813 159.550781 C 50.777344 159.570313 50.429688 159.554688 50.085938 159.503906 C 49.742188 159.460938 49.414063 159.371094 49.101563 159.238281 C 48.296875 158.925781 47.765625 158.417969 47.507813 157.722656 C 47.246094 157.015625 47.292969 156.214844 47.648438 155.316406 C 48.011719 154.410156 48.523438 153.78125 49.179688 153.425781 C 49.835938 153.0625 50.539063 153.03125 51.289063 153.332031 C 51.976563 153.605469 52.417969 154.0625 52.617188 154.707031 C 52.8125 155.34375 52.746094 156.078125 52.414063 156.910156 Z M 51.695313 156.285156 C 51.882813 155.785156 51.914063 155.339844 51.789063 154.941406 C 51.664063 154.546875 51.398438 154.265625 50.992188 154.097656 C 50.53125 153.910156 50.105469 153.910156 49.710938 154.097656 C 49.3125 154.277344 48.992188 154.613281 48.742188 155.113281 Z M 58.496094 154.183594 L 59.402344 154.542969 L 58.183594 157.589844 L 61.480469 158.902344 L 62.699219 155.855469 L 63.605469 156.214844 L 60.636719 163.667969 L 59.730469 163.308594 L 61.136719 159.761719 L 57.839844 158.449219 L 56.433594 161.996094 L 55.527344 161.636719 Z M 64.625 158.773438 L 65.453125 159.101563 L 63.234375 164.695313 L 62.40625 164.367188 Z M 65.5 156.601563 L 66.328125 156.929688 L 65.859375 158.085938 L 65.03125 157.757813 Z M 68.058594 157.617188 L 68.886719 157.945313 L 65.792969 165.710938 L 64.964844 165.382813 Z M 70.613281 158.632813 L 71.441406 158.960938 L 68.347656 166.726563 L 67.519531 166.398438 Z M 77.585938 166.355469 C 77.75 166.503906 77.875 166.730469 77.960938 167.042969 C 78.054688 167.355469 78.117188 167.769531 78.148438 168.277344 L 78.242188 170.667969 L 77.273438 170.277344 L 77.179688 168.011719 C 77.15625 167.441406 77.074219 167.027344 76.929688 166.777344 C 76.78125 166.527344 76.527344 166.332031 76.164063 166.183594 L 75.179688 165.792969 L 73.929688 168.949219 L 73.023438 168.589844 L 75.992188 161.136719 L 78.039063 161.949219 C 78.808594 162.261719 79.308594 162.667969 79.539063 163.167969 C 79.777344 163.667969 79.75 164.285156 79.460938 165.011719 C 79.273438 165.472656 79.015625 165.820313 78.695313 166.058594 C 78.371094 166.289063 78 166.386719 77.585938 166.355469 Z M 76.554688 162.324219 L 75.507813 164.964844 L 76.648438 165.417969 C 77.085938 165.597656 77.460938 165.621094 77.773438 165.496094 C 78.085938 165.363281 78.328125 165.074219 78.507813 164.636719 C 78.671875 164.199219 78.6875 163.824219 78.554688 163.511719 C 78.417969 163.199219 78.132813 162.957031 77.695313 162.777344 Z M 83.289063 166.941406 C 82.851563 166.765625 82.421875 166.816406 82.007813 167.097656 C 81.589844 167.378906 81.25 167.859375 80.992188 168.535156 C 80.71875 169.203125 80.636719 169.78125 80.742188 170.269531 C 80.855469 170.75 81.132813 171.074219 81.570313 171.253906 C 82.015625 171.429688 82.445313 171.378906 82.851563 171.097656 C 83.257813 170.816406 83.59375 170.34375 83.867188 169.675781 C 84.125 169 84.203125 168.421875 84.101563 167.941406 C 84.007813 167.453125 83.734375 167.121094 83.289063 166.941406 Z M 83.601563 166.175781 C 84.320313 166.457031 84.777344 166.9375 84.976563 167.613281 C 85.183594 168.292969 85.105469 169.09375 84.742188 170.019531 C 84.375 170.925781 83.882813 171.554688 83.257813 171.910156 C 82.640625 172.273438 81.976563 172.316406 81.257813 172.035156 C 80.539063 171.742188 80.078125 171.257813 79.882813 170.582031 C 79.683594 169.894531 79.765625 169.097656 80.132813 168.191406 C 80.496094 167.265625 80.984375 166.625 81.601563 166.269531 C 82.214844 165.917969 82.882813 165.886719 83.601563 166.175781 Z M 88.40625 171.441406 C 87.738281 171.183594 87.238281 171.089844 86.90625 171.160156 C 86.570313 171.222656 86.328125 171.457031 86.171875 171.863281 C 86.046875 172.1875 86.039063 172.484375 86.15625 172.753906 C 86.269531 173.023438 86.492188 173.222656 86.828125 173.347656 C 87.296875 173.535156 87.738281 173.496094 88.15625 173.238281 C 88.582031 172.988281 88.910156 172.574219 89.140625 171.988281 L 89.234375 171.769531 Z M 90.203125 171.722656 L 88.9375 174.910156 L 88.109375 174.582031 L 88.4375 173.738281 C 88.101563 174.007813 87.765625 174.164063 87.421875 174.207031 C 87.078125 174.246094 86.703125 174.191406 86.296875 174.035156 C 85.785156 173.824219 85.441406 173.503906 85.265625 173.066406 C 85.085938 172.628906 85.101563 172.140625 85.3125 171.597656 C 85.5625 170.972656 85.941406 170.578125 86.453125 170.410156 C 86.960938 170.234375 87.59375 170.296875 88.34375 170.597656 L 89.515625 171.050781 L 89.546875 170.972656 C 89.710938 170.546875 89.710938 170.167969 89.546875 169.832031 C 89.390625 169.5 89.085938 169.246094 88.640625 169.066406 C 88.359375 168.953125 88.0625 168.878906 87.75 168.847656 C 87.445313 168.816406 87.140625 168.828125 86.828125 168.878906 L 87.171875 168.035156 C 87.523438 168.027344 87.851563 168.046875 88.15625 168.097656 C 88.46875 168.152344 88.757813 168.230469 89.03125 168.332031 C 89.757813 168.625 90.222656 169.050781 90.421875 169.613281 C 90.617188 170.167969 90.546875 170.871094 90.203125 171.722656 Z M 95.824219 172.234375 L 97.074219 169.234375 L 97.886719 169.578125 L 94.667969 177.296875 L 93.855469 176.953125 L 94.199219 176.109375 C 93.886719 176.378906 93.5625 176.535156 93.230469 176.578125 C 92.894531 176.628906 92.546875 176.578125 92.183594 176.421875 C 91.578125 176.171875 91.199219 175.703125 91.042969 175.015625 C 90.886719 174.320313 90.988281 173.53125 91.355469 172.65625 C 91.71875 171.78125 92.203125 171.15625 92.808594 170.78125 C 93.410156 170.40625 94.015625 170.34375 94.621094 170.59375 C 94.984375 170.75 95.265625 170.964844 95.464844 171.234375 C 95.660156 171.507813 95.78125 171.839844 95.824219 172.234375 Z M 92.214844 173.015625 C 91.933594 173.683594 91.832031 174.261719 91.917969 174.75 C 92.011719 175.226563 92.269531 175.554688 92.699219 175.734375 C 93.144531 175.921875 93.574219 175.875 93.980469 175.59375 C 94.386719 175.320313 94.730469 174.855469 95.011719 174.1875 C 95.292969 173.511719 95.386719 172.933594 95.292969 172.453125 C 95.199219 171.964844 94.925781 171.625 94.480469 171.4375 C 94.050781 171.261719 93.636719 171.3125 93.230469 171.59375 C 92.832031 171.867188 92.496094 172.339844 92.214844 173.015625 Z M 92.214844 173.015625 "/>
<path style=" stroke:none;fill-rule:evenodd;fill:rgb(20%,20%,20%);fill-opacity:1;" d="M 26.253906 148.445313 L 26.316406 154.679688 L 27.488281 154.664063 C 28.488281 154.65625 29.214844 154.398438 29.675781 153.898438 C 30.132813 153.390625 30.355469 152.59375 30.347656 151.507813 C 30.335938 150.4375 30.097656 149.65625 29.628906 149.164063 C 29.160156 148.664063 28.425781 148.421875 27.425781 148.429688 Z M 25.269531 147.554688 L 27.269531 147.539063 C 28.675781 147.53125 29.707031 147.84375 30.363281 148.476563 C 31.019531 149.113281 31.351563 150.117188 31.363281 151.492188 C 31.382813 152.878906 31.066406 153.898438 30.410156 154.554688 C 29.761719 155.210938 28.742188 155.546875 27.347656 155.554688 L 25.347656 155.570313 Z M 36.082031 150.59375 C 35.988281 150.53125 35.878906 150.484375 35.753906 150.453125 C 35.636719 150.414063 35.511719 150.386719 35.378906 150.375 C 34.867188 150.355469 34.472656 150.523438 34.191406 150.875 C 33.910156 151.21875 33.746094 151.730469 33.707031 152.40625 L 33.566406 155.578125 L 32.660156 155.546875 L 32.941406 149.53125 L 33.847656 149.5625 L 33.800781 150.5 C 34.007813 150.148438 34.261719 149.890625 34.566406 149.734375 C 34.867188 149.570313 35.230469 149.496094 35.660156 149.515625 C 35.722656 149.515625 35.789063 149.523438 35.863281 149.53125 C 35.945313 149.542969 36.027344 149.558594 36.113281 149.578125 Z M 39.210938 153.160156 C 38.5 153.058594 37.996094 153.078125 37.695313 153.222656 C 37.390625 153.371094 37.210938 153.65625 37.148438 154.082031 C 37.09375 154.425781 37.152344 154.71875 37.320313 154.957031 C 37.496094 155.199219 37.761719 155.34375 38.117188 155.394531 C 38.605469 155.46875 39.027344 155.332031 39.382813 154.988281 C 39.734375 154.644531 39.960938 154.160156 40.054688 153.535156 L 40.101563 153.300781 Z M 41.039063 153.050781 L 40.507813 156.441406 L 39.632813 156.300781 L 39.773438 155.410156 C 39.511719 155.730469 39.214844 155.957031 38.882813 156.082031 C 38.558594 156.207031 38.179688 156.238281 37.742188 156.175781 C 37.199219 156.089844 36.792969 155.855469 36.523438 155.472656 C 36.261719 155.078125 36.171875 154.589844 36.257813 154.003906 C 36.359375 153.339844 36.636719 152.871094 37.085938 152.597656 C 37.542969 152.316406 38.171875 152.238281 38.976563 152.363281 L 40.210938 152.550781 L 40.226563 152.457031 C 40.296875 152 40.214844 151.628906 39.976563 151.347656 C 39.746094 151.058594 39.390625 150.875 38.914063 150.800781 C 38.609375 150.75 38.308594 150.746094 38.007813 150.785156 C 37.703125 150.828125 37.402344 150.910156 37.101563 151.035156 L 37.242188 150.128906 C 37.59375 150.046875 37.921875 149.996094 38.226563 149.972656 C 38.539063 149.941406 38.839844 149.953125 39.132813 150.003906 C 39.902344 150.121094 40.445313 150.433594 40.757813 150.941406 C 41.078125 151.441406 41.171875 152.144531 41.039063 153.050781 Z M 44.011719 148.648438 L 44.886719 148.898438 L 43.574219 153.664063 L 46.824219 151.867188 L 47.917969 152.164063 L 44.417969 154.101563 L 46.433594 157.992188 L 45.308594 157.679688 L 43.449219 154.132813 L 42.667969 156.960938 L 41.792969 156.710938 Z M 52.414063 156.910156 L 52.226563 157.363281 L 48.414063 155.847656 C 48.203125 156.484375 48.1875 157.03125 48.367188 157.488281 C 48.554688 157.933594 48.917969 158.269531 49.460938 158.488281 C 49.773438 158.613281 50.09375 158.683594 50.429688 158.707031 C 50.761719 158.738281 51.109375 158.738281 51.476563 158.707031 L 51.132813 159.550781 C 50.777344 159.570313 50.429688 159.554688 50.085938 159.503906 C 49.742188 159.460938 49.414063 159.371094 49.101563 159.238281 C 48.296875 158.925781 47.765625 158.417969 47.507813 157.722656 C 47.246094 157.015625 47.292969 156.214844 47.648438 155.316406 C 48.011719 154.410156 48.523438 153.78125 49.179688 153.425781 C 49.835938 153.0625 50.539063 153.03125 51.289063 153.332031 C 51.976563 153.605469 52.417969 154.0625 52.617188 154.707031 C 52.8125 155.34375 52.746094 156.078125 52.414063 156.910156 Z M 51.695313 156.285156 C 51.882813 155.785156 51.914063 155.339844 51.789063 154.941406 C 51.664063 154.546875 51.398438 154.265625 50.992188 154.097656 C 50.53125 153.910156 50.105469 153.910156 49.710938 154.097656 C 49.3125 154.277344 48.992188 154.613281 48.742188 155.113281 Z M 58.496094 154.183594 L 59.402344 154.542969 L 58.183594 157.589844 L 61.480469 158.902344 L 62.699219 155.855469 L 63.605469 156.214844 L 60.636719 163.667969 L 59.730469 163.308594 L 61.136719 159.761719 L 57.839844 158.449219 L 56.433594 161.996094 L 55.527344 161.636719 Z M 64.625 158.773438 L 65.453125 159.101563 L 63.234375 164.695313 L 62.40625 164.367188 Z M 65.5 156.601563 L 66.328125 156.929688 L 65.859375 158.085938 L 65.03125 157.757813 Z M 68.058594 157.617188 L 68.886719 157.945313 L 65.792969 165.710938 L 64.964844 165.382813 Z M 70.613281 158.632813 L 71.441406 158.960938 L 68.347656 166.726563 L 67.519531 166.398438 Z M 77.585938 166.355469 C 77.75 166.503906 77.875 166.730469 77.960938 167.042969 C 78.054688 167.355469 78.117188 167.769531 78.148438 168.277344 L 78.242188 170.667969 L 77.273438 170.277344 L 77.179688 168.011719 C 77.15625 167.441406 77.074219 167.027344 76.929688 166.777344 C 76.78125 166.527344 76.527344 166.332031 76.164063 166.183594 L 75.179688 165.792969 L 73.929688 168.949219 L 73.023438 168.589844 L 75.992188 161.136719 L 78.039063 161.949219 C 78.808594 162.261719 79.308594 162.667969 79.539063 163.167969 C 79.777344 163.667969 79.75 164.285156 79.460938 165.011719 C 79.273438 165.472656 79.015625 165.820313 78.695313 166.058594 C 78.371094 166.289063 78 166.386719 77.585938 166.355469 Z M 76.554688 162.324219 L 75.507813 164.964844 L 76.648438 165.417969 C 77.085938 165.597656 77.460938 165.621094 77.773438 165.496094 C 78.085938 165.363281 78.328125 165.074219 78.507813 164.636719 C 78.671875 164.199219 78.6875 163.824219 78.554688 163.511719 C 78.417969 163.199219 78.132813 162.957031 77.695313 162.777344 Z M 83.289063 166.941406 C 82.851563 166.765625 82.421875 166.816406 82.007813 167.097656 C 81.589844 167.378906 81.25 167.859375 80.992188 168.535156 C 80.71875 169.203125 80.636719 169.78125 80.742188 170.269531 C 80.855469 170.75 81.132813 171.074219 81.570313 171.253906 C 82.015625 171.429688 82.445313 171.378906 82.851563 171.097656 C 83.257813 170.816406 83.59375 170.34375 83.867188 169.675781 C 84.125 169 84.203125 168.421875 84.101563 167.941406 C 84.007813 167.453125 83.734375 167.121094 83.289063 166.941406 Z M 83.601563 166.175781 C 84.320313 166.457031 84.777344 166.9375 84.976563 167.613281 C 85.183594 168.292969 85.105469 169.09375 84.742188 170.019531 C 84.375 170.925781 83.882813 171.554688 83.257813 171.910156 C 82.640625 172.273438 81.976563 172.316406 81.257813 172.035156 C 80.539063 171.742188 80.078125 171.257813 79.882813 170.582031 C 79.683594 169.894531 79.765625 169.097656 80.132813 168.191406 C 80.496094 167.265625 80.984375 166.625 81.601563 166.269531 C 82.214844 165.917969 82.882813 165.886719 83.601563 166.175781 Z M 88.40625 171.441406 C 87.738281 171.183594 87.238281 171.089844 86.90625 171.160156 C 86.570313 171.222656 86.328125 171.457031 86.171875 171.863281 C 86.046875 172.1875 86.039063 172.484375 86.15625 172.753906 C 86.269531 173.023438 86.492188 173.222656 86.828125 173.347656 C 87.296875 173.535156 87.738281 173.496094 88.15625 173.238281 C 88.582031 172.988281 88.910156 172.574219 89.140625 171.988281 L 89.234375 171.769531 Z M 90.203125 171.722656 L 88.9375 174.910156 L 88.109375 174.582031 L 88.4375 173.738281 C 88.101563 174.007813 87.765625 174.164063 87.421875 174.207031 C 87.078125 174.246094 86.703125 174.191406 86.296875 174.035156 C 85.785156 173.824219 85.441406 173.503906 85.265625 173.066406 C 85.085938 172.628906 85.101563 172.140625 85.3125 171.597656 C 85.5625 170.972656 85.941406 170.578125 86.453125 170.410156 C 86.960938 170.234375 87.59375 170.296875 88.34375 170.597656 L 89.515625 171.050781 L 89.546875 170.972656 C 89.710938 170.546875 89.710938 170.167969 89.546875 169.832031 C 89.390625 169.5 89.085938 169.246094 88.640625 169.066406 C 88.359375 168.953125 88.0625 168.878906 87.75 168.847656 C 87.445313 168.816406 87.140625 168.828125 86.828125 168.878906 L 87.171875 168.035156 C 87.523438 168.027344 87.851563 168.046875 88.15625 168.097656 C 88.46875 168.152344 88.757813 168.230469 89.03125 168.332031 C 89.757813 168.625 90.222656 169.050781 90.421875 169.613281 C 90.617188 170.167969 90.546875 170.871094 90.203125 171.722656 Z M 95.824219 172.234375 L 97.074219 169.234375 L 97.886719 169.578125 L 94.667969 177.296875 L 93.855469 176.953125 L 94.199219 176.109375 C 93.886719 176.378906 93.5625 176.535156 93.230469 176.578125 C 92.894531 176.628906 92.546875 176.578125 92.183594 176.421875 C 91.578125 176.171875 91.199219 175.703125 91.042969 175.015625 C 90.886719 174.320313 90.988281 173.53125 91.355469 172.65625 C 91.71875 171.78125 92.203125 171.15625 92.808594 170.78125 C 93.410156 170.40625 94.015625 170.34375 94.621094 170.59375 C 94.984375 170.75 95.265625 170.964844 95.464844 171.234375 C 95.660156 171.507813 95.78125 171.839844 95.824219 172.234375 Z M 92.214844 173.015625 C 91.933594 173.683594 91.832031 174.261719 91.917969 174.75 C 92.011719 175.226563 92.269531 175.554688 92.699219 175.734375 C 93.144531 175.921875 93.574219 175.875 93.980469 175.59375 C 94.386719 175.320313 94.730469 174.855469 95.011719 174.1875 C 95.292969 173.511719 95.386719 172.933594 95.292969 172.453125 C 95.199219 171.964844 94.925781 171.625 94.480469 171.4375 C 94.050781 171.261719 93.636719 171.3125 93.230469 171.59375 C 92.832031 171.867188 92.496094 172.339844 92.214844 173.015625 Z M 92.214844 173.015625 "/>
</g>
</svg>

