<?xml version="1.0" encoding="UTF-8"?>
<svg xmlns="http://www.w3.org/2000/svg" xmlns:xlink="http://www.w3.org/1999/xlink" width="256pt" height="256pt" viewBox="0 0 256 256" version="1.1">
<g id="surface2">
<rect x="0" y="0" width="256" height="256" style="fill:rgb(60%,70.196078%,80%);fill-opacity:1;stroke:none;"/>
<path style=" stroke:none;fill-rule:evenodd;fill:rgb(94.901961%,93.72549%,91.372549%);fill-opacity:1;" d="M -4 259 L 165.464844 259 L 171.53125 247.0625 L 178.214844 234.097656 L 206.933594 178.234375 L 207.59375 174.519531 L 209.859375 168.914063 L 211.699219 165.050781 L 259 165.050781 L 259 259 Z M -4 259 "/>
<path style=" stroke:none;fill-rule:evenodd;fill:rgb(94.901961%,93.72549%,91.372549%);fill-opacity:1;" d="M 206.933594 178.234375 L 207.59375 174.519531 L 209.859375 168.914063 L 212.242188 163.917969 L 214.324219 158.851563 L 219.898438 148.878906 L 221.777344 145.503906 L 222.101563 144.429688 L 222.554688 142.972656 L 223.167969 141.664063 L 224.046875 140.640625 L 224.65625 139.691406 L 224.964844 138.632813 L 225.496094 137.351563 L 226.921875 135.625 L 227.992188 133.015625 L 228.597656 131.179688 L 228.75 129.347656 L 229.050781 127.199219 L 229.363281 125.449219 L 229.871094 123.726563 L 230.441406 121.707031 L 231 119.851563 L 231.761719 116.863281 L 232.996094 110.457031 L 233.484375 109.285156 L 234.789063 103.617188 L 235.804688 101.179688 L 236.351563 98.953125 L 237.582031 92.703125 L 238.195313 88.464844 L 238.667969 84.890625 L 238.613281 81.414063 L 238.730469 80.042969 L 239.480469 77.941406 L 240.089844 76.722656 L 240.253906 74.226563 L 240.644531 72.039063 L 241.382813 66.734375 L 241.832031 65.632813 L 242.566406 64.078125 L 243.359375 63.320313 L 244.714844 62.597656 L 247.457031 62.210938 L 247.800781 60.160156 L 247.542969 60.039063 L 244.710938 59.742188 L 242.992188 59.371094 L 242.425781 58.230469 L 242.570313 55.886719 L 243.15625 52.378906 L 244.359375 49.035156 L 245.273438 45.941406 L 245.894531 43.0625 L 246.601563 40.792969 L 247.289063 38.640625 L 248.488281 34.523438 L 249.171875 31.9375 L 249.84375 29.003906 L 250.566406 26.6875 L 250.300781 25.851563 L 250.625 24.789063 L 251.351563 23.332031 L 251.710938 20.863281 L 252.175781 19.050781 L 252.695313 17.722656 L 253.117188 15.566406 L 253.742188 13.832031 L 254.679688 9.878906 L 256.40625 2.835938 L 257.96875 -1.984375 L 258.65625 -4 L 259 -4 L 259 185.984375 L 202.949219 185.984375 Z M 206.933594 178.234375 "/>
<path style=" stroke:none;fill-rule:evenodd;fill:rgb(94.901961%,93.72549%,91.372549%);fill-opacity:1;" d="M 259 -4 L -4 -4 L -4 259 L -4 -4 Z M 259 -4 "/>
<path style=" stroke:none;fill-rule:evenodd;fill:rgb(70.980392%,82.352941%,61.176471%);fill-opacity:1;" d="M 242.992188 59.371094 L 244.710938 59.742188 L 247.546875 60.039063 L 248.511719 60.320313 L 249.988281 60.726563 L 260 63.476563 L 260 -4 L 258.65625 -4 L 257.96875 -1.984375 L 256.40625 2.835938 L 254.679688 9.878906 L 253.742188 13.832031 L 253.117188 15.566406 L 252.695313 17.722656 L 252.175781 19.050781 L 251.710938 20.863281 L 251.351563 23.332031 L 250.625 24.789063 L 250.300781 25.851563 L 249.84375 29.003906 L 249.171875 31.9375 L 248.488281 34.523438 L 247.292969 38.640625 L 246.601563 40.792969 L 245.894531 43.0625 L 245.273438 45.941406 L 244.359375 49.035156 L 243.15625 52.378906 L 242.570313 55.886719 L 242.425781 58.230469 Z M 242.992188 59.371094 "/>
<path style=" stroke:none;fill-rule:evenodd;fill:rgb(70.980392%,82.352941%,61.176471%);fill-opacity:1;" d="M 229.527344 260 L 229.894531 255.484375 L 235.25 232.125 L 237.144531 222.730469 L 237.878906 213.125 L 235.128906 196.875 L 232.644531 180.730469 L 222.878906 178.253906 L 233.003906 133.378906 L 245.019531 81.859375 L 247.503906 69.878906 L 249.988281 60.726563 L 248.511719 60.320313 L 247.457031 62.210938 L 244.714844 62.597656 L 243.359375 63.320313 L 242.566406 64.078125 L 241.832031 65.632813 L 241.382813 66.734375 L 240.644531 72.039063 L 240.253906 74.226563 L 240.089844 76.722656 L 239.480469 77.941406 L 238.730469 80.042969 L 238.613281 81.414063 L 238.667969 84.890625 L 238.195313 88.464844 L 237.582031 92.703125 L 236.351563 98.953125 L 235.804688 101.179688 L 234.789063 103.617188 L 233.484375 109.289063 L 232.996094 110.457031 L 231.761719 116.863281 L 231 119.851563 L 230.441406 121.707031 L 229.871094 123.726563 L 229.363281 125.449219 L 229.050781 127.199219 L 228.75 129.347656 L 228.597656 131.179688 L 227.992188 133.015625 L 226.921875 135.625 L 225.496094 137.351563 L 224.964844 138.632813 L 224.65625 139.691406 L 224.046875 140.644531 L 223.167969 141.664063 L 222.554688 142.972656 L 222.101563 144.429688 L 221.777344 145.503906 L 219.898438 148.882813 L 214.324219 158.851563 L 212.242188 163.917969 L 209.859375 168.914063 L 207.59375 174.519531 L 206.933594 178.234375 L 178.214844 234.097656 L 171.53125 247.0625 L 164.957031 260 Z M 229.527344 260 "/>
<path style=" stroke:none;fill-rule:evenodd;fill:rgb(81.960784%,81.960784%,81.960784%);fill-opacity:1;" d="M 249.878906 173.121094 L 253.628906 162.871094 L 258.003906 156.746094 L 260 155.292969 L 260 172 L 250.378906 189.121094 L 260 194.472656 L 260 150.203125 L 251.378906 145.539063 L 249.878906 147.496094 L 245.128906 171.246094 Z M 249.878906 173.121094 "/>
<path style=" stroke:none;fill-rule:evenodd;fill:rgb(81.960784%,81.568627%,80.392157%);fill-opacity:1;" d="M 192.925781 260 L 193.300781 259.289063 L 179.554688 252.035156 L 175.351563 260 Z M 192.925781 260 "/>
<path style="fill:none;stroke-width:1;stroke-linecap:round;stroke-linejoin:round;stroke:rgb(81.960784%,81.960784%,81.960784%);stroke-opacity:1;stroke-miterlimit:10;" d="M 192.925781 260 L 193.300781 259.289063 L 179.554688 252.035156 L 175.351563 260 L 192.925781 260 "/>
<path style=" stroke:none;fill-rule:evenodd;fill:rgb(81.960784%,81.568627%,80.392157%);fill-opacity:1;" d="M 188.875 234.101563 L 193.992188 236.6875 L 199.082031 226.617188 L 193.96875 224.035156 Z M 188.875 234.101563 "/>
<path style="fill:none;stroke-width:1;stroke-linecap:round;stroke-linejoin:round;stroke:rgb(81.960784%,81.960784%,81.960784%);stroke-opacity:1;stroke-miterlimit:10;" d="M 188.875 234.101563 L 193.992188 236.6875 L 199.082031 226.617188 L 193.96875 224.035156 L 188.875 234.101563 "/>
<path style=" stroke:none;fill-rule:evenodd;fill:rgb(60%,70.196078%,80%);fill-opacity:1;" d="M -4 259 L 165.464844 259 L 171.53125 247.0625 L 178.214844 234.097656 L 206.933594 178.234375 L 207.59375 174.519531 L 209.859375 168.914063 L 212.242188 163.917969 L 214.324219 158.851563 L 219.898438 148.882813 L 221.777344 145.503906 L 222.101563 144.429688 L 222.554688 142.972656 L 223.167969 141.664063 L 224.046875 140.644531 L 224.65625 139.691406 L 224.964844 138.632813 L 225.496094 137.351563 L 226.921875 135.625 L 227.992188 133.015625 L 228.597656 131.179688 L 228.75 129.347656 L 229.050781 127.199219 L 229.363281 125.449219 L 229.871094 123.726563 L 230.441406 121.707031 L 231 119.851563 L 231.761719 116.863281 L 232.996094 110.457031 L 233.484375 109.289063 L 234.789063 103.617188 L 235.804688 101.179688 L 236.351563 98.953125 L 237.582031 92.703125 L 238.195313 88.464844 L 238.667969 84.890625 L 238.613281 81.414063 L 238.730469 80.042969 L 239.480469 77.941406 L 240.089844 76.722656 L 240.253906 74.226563 L 240.644531 72.039063 L 241.382813 66.734375 L 241.832031 65.632813 L 242.566406 64.078125 L 243.359375 63.320313 L 244.714844 62.597656 L 247.457031 62.210938 L 247.800781 60.160156 L 244.710938 59.742188 L 242.992188 59.371094 L 242.425781 58.230469 L 242.570313 55.886719 L 243.15625 52.378906 L 244.359375 49.035156 L 245.273438 45.941406 L 245.894531 43.0625 L 246.601563 40.792969 L 247.292969 38.640625 L 248.488281 34.523438 L 249.171875 31.9375 L 249.84375 29.003906 L 250.566406 26.6875 L 250.625 24.789063 L 251.351563 23.332031 L 251.710938 20.863281 L 252.175781 19.050781 L 252.695313 17.722656 L 253.117188 15.566406 L 253.742188 13.832031 L 254.679688 9.878906 L 256.40625 2.835938 L 257.96875 -1.984375 L 258.65625 -4 L -4 -4 Z M -4 259 "/>
<path style="fill:none;stroke-width:1;stroke-linecap:round;stroke-linejoin:round;stroke:rgb(70.196078%,77.647059%,83.137255%);stroke-opacity:1;stroke-miterlimit:10;" d="M -4 259 L 165.464844 259 L 171.53125 247.0625 L 178.214844 234.097656 L 206.933594 178.234375 L 207.59375 174.519531 L 209.859375 168.914063 L 212.242188 163.917969 L 214.324219 158.851563 L 219.898438 148.882813 L 221.777344 145.503906 L 222.101563 144.429688 L 222.554688 142.972656 L 223.167969 141.664063 L 224.046875 140.644531 L 224.65625 139.691406 L 224.964844 138.632813 L 225.496094 137.351563 L 226.921875 135.625 L 227.992188 133.015625 L 228.597656 131.179688 L 228.75 129.347656 L 229.050781 127.199219 L 229.363281 125.449219 L 229.871094 123.726563 L 230.441406 121.707031 L 231 119.851563 L 231.761719 116.863281 L 232.996094 110.457031 L 233.484375 109.289063 L 234.789063 103.617188 L 235.804688 101.179688 L 236.351563 98.953125 L 237.582031 92.703125 L 238.195313 88.464844 L 238.667969 84.890625 L 238.613281 81.414063 L 238.730469 80.042969 L 239.480469 77.941406 L 240.089844 76.722656 L 240.253906 74.226563 L 240.644531 72.039063 L 241.382813 66.734375 L 241.832031 65.632813 L 242.566406 64.078125 L 243.359375 63.320313 L 244.714844 62.597656 L 247.457031 62.210938 L 247.800781 60.160156 L 244.710938 59.742188 L 242.992188 59.371094 L 242.425781 58.230469 L 242.570313 55.886719 L 243.15625 52.378906 L 244.359375 49.035156 L 245.273438 45.941406 L 245.894531 43.0625 L 246.601563 40.792969 L 247.292969 38.640625 L 248.488281 34.523438 L 249.171875 31.9375 L 249.84375 29.003906 L 250.566406 26.6875 L 250.625 24.789063 L 251.351563 23.332031 L 251.710938 20.863281 L 252.175781 19.050781 L 252.695313 17.722656 L 253.117188 15.566406 L 253.742188 13.832031 L 254.679688 9.878906 L 256.40625 2.835938 L 257.96875 -1.984375 L 258.65625 -4 L -4 -4 L -4 259 "/>
<path style="fill:none;stroke-width:6;stroke-linecap:round;stroke-linejoin:round;stroke:rgb(60%,70.196078%,80%);stroke-opacity:1;stroke-miterlimit:10;" d="M 41.253906 -7 L -7 102.417969 "/>
<path style="fill:none;stroke-width:1;stroke-linecap:butt;stroke-linejoin:round;stroke:rgb(46.666667%,46.666667%,46.666667%);stroke-opacity:1;stroke-dasharray:2,2;stroke-miterlimit:10;" d="M 218.394531 257 L 223.285156 234.925781 L 231.285156 196.726563 L 247.484375 123.726563 L 257 80.546875 "/>
<path style="fill:none;stroke-width:1;stroke-linecap:round;stroke-linejoin:round;stroke:rgb(100%,100%,100%);stroke-opacity:1;stroke-dasharray:2,3;stroke-miterlimit:10;" d="M 242.953125 243.761719 L 237.425781 241.679688 "/>
<path style="fill:none;stroke-width:1;stroke-linecap:round;stroke-linejoin:round;stroke:rgb(100%,100%,100%);stroke-opacity:1;stroke-dasharray:2,3;stroke-miterlimit:10;" d="M 243.242188 130.496094 L 241.804688 130.289063 L 232.695313 130.425781 "/>
<path style="fill:none;stroke-width:1;stroke-linecap:round;stroke-linejoin:round;stroke:rgb(100%,100%,100%);stroke-opacity:1;stroke-dasharray:2,3;stroke-miterlimit:10;" d="M 257 62.0625 L 249.082031 60.195313 "/>
<path style="fill:none;stroke-width:1;stroke-linecap:round;stroke-linejoin:round;stroke:rgb(100%,100%,100%);stroke-opacity:1;stroke-dasharray:2,3;stroke-miterlimit:10;" d="M 178.84375 248.742188 L 190.757813 255.253906 L 191.90625 255.347656 L 193.675781 253.960938 L 195.734375 250.949219 L 197.070313 248.699219 L 197.882813 246.355469 L 198.601563 244.347656 L 200.085938 241.382813 "/>
<path style="fill:none;stroke-width:8;stroke-linecap:round;stroke-linejoin:round;stroke:rgb(75.686275%,70.980392%,61.568627%);stroke-opacity:1;stroke-miterlimit:10;" d="M 200.0625 238.105469 L 194.058594 234.925781 L 198.304688 226.773438 L 194.296875 224.929688 L 190.28125 233.011719 L 194.058594 234.925781 "/>
<path style="fill:none;stroke-width:8;stroke-linecap:round;stroke-linejoin:round;stroke:rgb(75.686275%,70.980392%,61.568627%);stroke-opacity:1;stroke-miterlimit:10;" d="M 177.726563 257.714844 L 189.789063 264 M 190.339844 264 L 191.515625 261.746094 L 192.105469 260.613281 L 179.609375 254.101563 L 177.726563 257.714844 "/>
<path style="fill:none;stroke-width:8;stroke-linecap:round;stroke-linejoin:round;stroke:rgb(75.686275%,70.980392%,61.568627%);stroke-opacity:1;stroke-miterlimit:10;" d="M 201.757813 224.550781 L 200.5625 230.730469 L 200.0625 238.105469 L 200.085938 241.382813 L 200.113281 245.246094 L 199.667969 250.105469 L 198.785156 253.492188 L 197.019531 257.613281 L 195.402344 259.972656 L 193.691406 261.234375 L 191.515625 261.746094 "/>
<path style="fill:none;stroke-width:9;stroke-linecap:round;stroke-linejoin:round;stroke:rgb(75.686275%,70.980392%,61.568627%);stroke-opacity:1;stroke-miterlimit:10;" d="M 201.757813 224.550781 L 204.0625 216.851563 L 213.5625 189.730469 L 223.5625 160.855469 L 226.8125 151.355469 L 229.1875 147.601563 L 239.1875 135.480469 L 241.804688 130.289063 L 245.949219 112.210938 "/>
<path style="fill:none;stroke-width:10;stroke-linecap:round;stroke-linejoin:round;stroke:rgb(72.941176%,43.137255%,15.294118%);stroke-opacity:1;stroke-miterlimit:10;" d="M 212.808594 226.011719 L 209.746094 227.179688 L 207.835938 227.511719 L 205.777344 227.128906 L 201.757813 224.550781 "/>
<path style="fill:none;stroke-width:10;stroke-linecap:round;stroke-linejoin:round;stroke:rgb(72.941176%,43.137255%,15.294118%);stroke-opacity:1;stroke-miterlimit:10;" d="M 201.757813 224.550781 L 205.1875 228.230469 L 207.4375 231.105469 L 208.3125 232.976563 L 209.191406 235.496094 "/>
<path style="fill:none;stroke-width:10;stroke-linecap:round;stroke-linejoin:round;stroke:rgb(72.941176%,43.137255%,15.294118%);stroke-opacity:1;stroke-miterlimit:10;" d="M 223.917969 192.472656 L 228.5625 182.480469 L 232.0625 174.105469 L 235.4375 161.601563 L 241.804688 130.289063 "/>
<path style="fill:none;stroke-width:8;stroke-linecap:round;stroke-linejoin:round;stroke:rgb(75.686275%,70.980392%,61.568627%);stroke-opacity:1;stroke-miterlimit:10;" d="M 248.941406 216.753906 L 264 225.128906 "/>
<path style="fill:none;stroke-width:8;stroke-linecap:round;stroke-linejoin:round;stroke:rgb(75.686275%,70.980392%,61.568627%);stroke-opacity:1;stroke-miterlimit:10;" d="M 264 148.722656 L 257.113281 143.757813 L 250.375 139.277344 L 247.53125 137.148438 "/>
<path style="fill:none;stroke-width:8;stroke-linecap:round;stroke-linejoin:round;stroke:rgb(75.686275%,70.980392%,61.568627%);stroke-opacity:1;stroke-miterlimit:10;" d="M 264 250.363281 L 245.730469 240.210938 L 244.144531 239.328125 "/>
<path style="fill:none;stroke-width:8;stroke-linecap:round;stroke-linejoin:round;stroke:rgb(75.686275%,70.980392%,61.568627%);stroke-opacity:1;stroke-miterlimit:10;" d="M 264 200.125 L 240.539063 187.148438 "/>
<path style="fill:none;stroke-width:8;stroke-linecap:round;stroke-linejoin:round;stroke:rgb(75.686275%,70.980392%,61.568627%);stroke-opacity:1;stroke-miterlimit:10;" d="M 238.074219 264 L 238.875 261.441406 L 242.953125 243.761719 L 244.144531 239.328125 L 248.941406 216.753906 L 248.382813 212.042969 L 247.546875 208.347656 L 246.308594 204.496094 L 244.75 200.800781 L 242.628906 196.921875 L 239.460938 191.285156 "/>
<path style="fill:none;stroke-width:9;stroke-linecap:round;stroke-linejoin:round;stroke:rgb(75.686275%,70.980392%,61.568627%);stroke-opacity:1;stroke-miterlimit:10;" d="M 232.167969 265 L 232.75 259.347656 L 233.359375 255.234375 L 234.324219 251.378906 L 236.378906 244.921875 L 237.425781 241.679688 L 240.140625 232.390625 L 241.328125 225.515625 L 241.90625 219.121094 L 241.9375 211.570313 L 241.390625 204.984375 L 240.625 198.492188 L 239.460938 191.285156 L 238.984375 189.132813 "/>
<path style="fill:none;stroke-width:11;stroke-linecap:round;stroke-linejoin:round;stroke:rgb(72.941176%,43.137255%,15.294118%);stroke-opacity:1;stroke-miterlimit:10;" d="M 227.699219 164.335938 L 212.808594 226.011719 L 209.191406 235.496094 L 197.171875 267 "/>
<path style="fill:none;stroke-width:11;stroke-linecap:round;stroke-linejoin:round;stroke:rgb(72.941176%,43.137255%,15.294118%);stroke-opacity:1;stroke-miterlimit:10;" d="M 200.609375 267 L 215.808594 227.214844 L 223.917969 192.472656 L 230.699219 165.210938 "/>
<path style="fill:none;stroke-width:6;stroke-linecap:round;stroke-linejoin:round;stroke:rgb(100%,100%,100%);stroke-opacity:1;stroke-miterlimit:10;" d="M 200.0625 238.105469 L 194.058594 234.925781 L 198.304688 226.773438 L 194.296875 224.929688 L 190.28125 233.011719 L 194.058594 234.925781 "/>
<path style="fill:none;stroke-width:6;stroke-linecap:round;stroke-linejoin:round;stroke:rgb(100%,100%,100%);stroke-opacity:1;stroke-miterlimit:10;" d="M 177.726563 257.714844 L 189.789063 264 M 190.339844 264 L 191.515625 261.746094 L 192.105469 260.613281 L 179.609375 254.101563 L 177.726563 257.714844 "/>
<path style="fill:none;stroke-width:6;stroke-linecap:round;stroke-linejoin:round;stroke:rgb(100%,100%,100%);stroke-opacity:1;stroke-miterlimit:10;" d="M 201.757813 224.550781 L 200.5625 230.730469 L 200.0625 238.105469 L 200.085938 241.382813 L 200.113281 245.246094 L 199.667969 250.105469 L 198.785156 253.492188 L 197.019531 257.613281 L 195.402344 259.972656 L 193.691406 261.234375 L 191.515625 261.746094 "/>
<path style="fill:none;stroke-width:7;stroke-linecap:round;stroke-linejoin:round;stroke:rgb(100%,99.215686%,54.509804%);stroke-opacity:1;stroke-miterlimit:10;" d="M 201.757813 224.550781 L 204.0625 216.851563 L 213.5625 189.730469 L 223.5625 160.855469 L 226.8125 151.355469 L 229.1875 147.601563 L 239.1875 135.480469 L 241.804688 130.289063 L 245.949219 112.210938 "/>
<path style="fill:none;stroke-width:8;stroke-linecap:round;stroke-linejoin:round;stroke:rgb(99.215686%,57.254902%,22.745098%);stroke-opacity:1;stroke-miterlimit:10;" d="M 212.808594 226.011719 L 209.746094 227.179688 L 207.835938 227.511719 L 205.777344 227.128906 L 201.757813 224.550781 "/>
<path style="fill:none;stroke-width:8;stroke-linecap:round;stroke-linejoin:round;stroke:rgb(99.215686%,57.254902%,22.745098%);stroke-opacity:1;stroke-miterlimit:10;" d="M 201.757813 224.550781 L 205.1875 228.230469 L 207.4375 231.105469 L 208.3125 232.976563 L 209.191406 235.496094 "/>
<path style="fill:none;stroke-width:8;stroke-linecap:round;stroke-linejoin:round;stroke:rgb(99.215686%,57.254902%,22.745098%);stroke-opacity:1;stroke-miterlimit:10;" d="M 223.917969 192.472656 L 228.5625 182.480469 L 232.0625 174.105469 L 235.4375 161.601563 L 241.804688 130.289063 "/>
<path style="fill:none;stroke-width:6;stroke-linecap:round;stroke-linejoin:round;stroke:rgb(100%,100%,100%);stroke-opacity:1;stroke-miterlimit:10;" d="M 248.941406 216.753906 L 264 225.128906 "/>
<path style="fill:none;stroke-width:6;stroke-linecap:round;stroke-linejoin:round;stroke:rgb(100%,100%,100%);stroke-opacity:1;stroke-miterlimit:10;" d="M 264 148.722656 L 257.113281 143.757813 L 250.375 139.277344 L 247.53125 137.148438 "/>
<path style="fill:none;stroke-width:6;stroke-linecap:round;stroke-linejoin:round;stroke:rgb(100%,100%,100%);stroke-opacity:1;stroke-miterlimit:10;" d="M 264 250.363281 L 245.730469 240.210938 L 244.144531 239.328125 "/>
<path style="fill:none;stroke-width:6;stroke-linecap:round;stroke-linejoin:round;stroke:rgb(100%,100%,100%);stroke-opacity:1;stroke-miterlimit:10;" d="M 264 200.125 L 240.539063 187.148438 "/>
<path style="fill:none;stroke-width:6;stroke-linecap:round;stroke-linejoin:round;stroke:rgb(100%,99.215686%,54.509804%);stroke-opacity:1;stroke-miterlimit:10;" d="M 238.074219 264 L 238.875 261.441406 L 242.953125 243.761719 L 244.144531 239.328125 L 248.941406 216.753906 L 248.382813 212.042969 L 247.546875 208.347656 L 246.308594 204.496094 L 244.75 200.800781 L 242.628906 196.921875 L 239.460938 191.285156 "/>
<path style="fill:none;stroke-width:7;stroke-linecap:round;stroke-linejoin:round;stroke:rgb(100%,99.215686%,54.509804%);stroke-opacity:1;stroke-miterlimit:10;" d="M 232.167969 265 L 232.75 259.347656 L 233.359375 255.234375 L 234.324219 251.378906 L 236.378906 244.921875 L 237.425781 241.679688 L 240.140625 232.390625 L 241.328125 225.515625 L 241.90625 219.121094 L 241.9375 211.570313 L 241.390625 204.984375 L 240.625 198.492188 L 239.460938 191.285156 L 238.984375 189.132813 "/>
<path style="fill:none;stroke-width:9;stroke-linecap:round;stroke-linejoin:round;stroke:rgb(99.215686%,57.254902%,22.745098%);stroke-opacity:1;stroke-miterlimit:10;" d="M 227.699219 164.335938 L 212.808594 226.011719 L 209.191406 235.496094 L 197.171875 267 "/>
<path style="fill:none;stroke-width:9;stroke-linecap:round;stroke-linejoin:round;stroke:rgb(99.215686%,57.254902%,22.745098%);stroke-opacity:1;stroke-miterlimit:10;" d="M 200.609375 267 L 215.808594 227.214844 L 223.917969 192.472656 L 230.699219 165.210938 "/>
<path style="fill:none;stroke-width:5;stroke-linecap:butt;stroke-linejoin:round;stroke:rgb(53.333333%,53.333333%,53.333333%);stroke-opacity:1;stroke-miterlimit:10;" d="M 247.53125 137.148438 L 241.5625 135.917969 "/>
<path style="fill:none;stroke-width:9;stroke-linecap:butt;stroke-linejoin:round;stroke:rgb(53.333333%,53.333333%,53.333333%);stroke-opacity:1;stroke-miterlimit:10;" d="M 245.949219 112.210938 L 254.1875 75.855469 L 256.425781 70.546875 L 258.828125 67.785156 "/>
<path style="fill:none;stroke-width:11;stroke-linecap:butt;stroke-linejoin:round;stroke:rgb(53.333333%,53.333333%,53.333333%);stroke-opacity:1;stroke-miterlimit:10;" d="M 230.699219 165.210938 L 238.410156 130.410156 L 252.546875 66.789063 L 257.074219 54.835938 L 263.449219 43.085938 L 265 40.886719 "/>
<path style="fill:none;stroke-width:11;stroke-linecap:butt;stroke-linejoin:round;stroke:rgb(53.333333%,53.333333%,53.333333%);stroke-opacity:1;stroke-miterlimit:10;" d="M 265 35.273438 L 261.199219 40.710938 L 255.058594 51.273438 L 250.199219 65.085938 L 236.007813 125.609375 L 227.699219 164.335938 "/>
<path style="fill:none;stroke-width:8;stroke-linecap:butt;stroke-linejoin:round;stroke:rgb(53.333333%,53.333333%,53.333333%);stroke-opacity:1;stroke-miterlimit:10;" d="M 240.539063 187.148438 L 238.269531 185.894531 "/>
<path style="fill:none;stroke-width:9;stroke-linecap:butt;stroke-linejoin:round;stroke:rgb(53.333333%,53.333333%,53.333333%);stroke-opacity:1;stroke-miterlimit:10;" d="M 238.984375 189.132813 L 238.269531 185.894531 "/>
<path style="fill:none;stroke-width:9;stroke-linecap:butt;stroke-linejoin:round;stroke:rgb(53.333333%,53.333333%,53.333333%);stroke-opacity:1;stroke-miterlimit:10;" d="M 252.730469 134.917969 L 259.0625 138.613281 "/>
<path style="fill:none;stroke-width:9;stroke-linecap:butt;stroke-linejoin:round;stroke:rgb(53.333333%,53.333333%,53.333333%);stroke-opacity:1;stroke-miterlimit:10;" d="M 260.117188 136.226563 L 253.429688 132.289063 "/>
<path style="fill:none;stroke-width:9;stroke-linecap:butt;stroke-linejoin:round;stroke:rgb(53.333333%,53.333333%,53.333333%);stroke-opacity:1;stroke-miterlimit:10;" d="M 238.269531 185.894531 L 246.9375 146.320313 L 252.730469 134.917969 "/>
<path style="fill:none;stroke-width:9;stroke-linecap:butt;stroke-linejoin:round;stroke:rgb(53.333333%,53.333333%,53.333333%);stroke-opacity:1;stroke-miterlimit:10;" d="M 252.730469 134.917969 L 253.429688 132.289063 L 263 88.175781 "/>
<path style="fill:none;stroke-width:3;stroke-linecap:round;stroke-linejoin:round;stroke:rgb(98.039216%,98.039216%,96.078431%);stroke-opacity:1;stroke-miterlimit:10;" d="M 247.53125 137.148438 L 241.5625 135.917969 "/>
<path style="fill:none;stroke-width:7;stroke-linecap:round;stroke-linejoin:round;stroke:rgb(100%,99.215686%,54.509804%);stroke-opacity:1;stroke-miterlimit:10;" d="M 245.949219 112.210938 L 254.1875 75.855469 L 256.425781 70.546875 L 258.828125 67.785156 "/>
<path style="fill:none;stroke-width:9;stroke-linecap:round;stroke-linejoin:round;stroke:rgb(99.215686%,57.254902%,22.745098%);stroke-opacity:1;stroke-miterlimit:10;" d="M 230.699219 165.210938 L 238.410156 130.410156 L 252.546875 66.789063 L 257.074219 54.835938 L 263.449219 43.085938 L 265 40.886719 "/>
<path style="fill:none;stroke-width:9;stroke-linecap:round;stroke-linejoin:round;stroke:rgb(99.215686%,57.254902%,22.745098%);stroke-opacity:1;stroke-miterlimit:10;" d="M 265 35.273438 L 261.199219 40.710938 L 255.058594 51.273438 L 250.199219 65.085938 L 236.007813 125.609375 L 227.699219 164.335938 "/>
<path style="fill:none;stroke-width:6;stroke-linecap:round;stroke-linejoin:round;stroke:rgb(100%,100%,100%);stroke-opacity:1;stroke-miterlimit:10;" d="M 240.539063 187.148438 L 238.269531 185.894531 "/>
<path style="fill:none;stroke-width:7;stroke-linecap:round;stroke-linejoin:round;stroke:rgb(100%,99.215686%,54.509804%);stroke-opacity:1;stroke-miterlimit:10;" d="M 238.984375 189.132813 L 238.269531 185.894531 "/>
<path style="fill:none;stroke-width:7;stroke-linecap:round;stroke-linejoin:round;stroke:rgb(100%,99.215686%,54.509804%);stroke-opacity:1;stroke-miterlimit:10;" d="M 252.730469 134.917969 L 259.0625 138.613281 "/>
<path style="fill:none;stroke-width:7;stroke-linecap:round;stroke-linejoin:round;stroke:rgb(100%,99.215686%,54.509804%);stroke-opacity:1;stroke-miterlimit:10;" d="M 260.117188 136.226563 L 253.429688 132.289063 "/>
<path style="fill:none;stroke-width:7;stroke-linecap:round;stroke-linejoin:round;stroke:rgb(100%,99.215686%,54.509804%);stroke-opacity:1;stroke-miterlimit:10;" d="M 238.269531 185.894531 L 246.9375 146.320313 L 252.730469 134.917969 "/>
<path style="fill:none;stroke-width:7;stroke-linecap:round;stroke-linejoin:round;stroke:rgb(100%,99.215686%,54.509804%);stroke-opacity:1;stroke-miterlimit:10;" d="M 252.730469 134.917969 L 253.429688 132.289063 L 263 88.175781 "/>
</g>
</svg>

