<?xml version="1.0" encoding="UTF-8"?>
<svg xmlns="http://www.w3.org/2000/svg" xmlns:xlink="http://www.w3.org/1999/xlink" width="256pt" height="256pt" viewBox="0 0 256 256" version="1.1">
<g id="surface2">
<rect x="0" y="0" width="256" height="256" style="fill:rgb(94.901961%,93.72549%,91.372549%);fill-opacity:1;stroke:none;"/>
<path style=" stroke:none;fill-rule:evenodd;fill:rgb(60%,70.196078%,80%);fill-opacity:1;" d="M -4 259 L 250.777344 259 L 259 254.089844 L 259 -4 L -4 -4 Z M -4 259 "/>
<path style="fill:none;stroke-width:1;stroke-linecap:round;stroke-linejoin:round;stroke:rgb(70.196078%,77.647059%,83.137255%);stroke-opacity:1;stroke-miterlimit:10;" d="M -4 259 L 250.777344 259 L 259 254.089844 L 259 -4 L -4 -4 L -4 259 "/>
<path style=" stroke:none;fill-rule:evenodd;fill:rgb(60%,70.196078%,80%);fill-opacity:1;" d="M -4 259 L 250.777344 259 L 259 254.089844 L 259 -4 L -4 -4 Z M -4 259 "/>
<path style="fill:none;stroke-width:1;stroke-linecap:round;stroke-linejoin:round;stroke:rgb(70.196078%,77.647059%,83.137255%);stroke-opacity:1;stroke-miterlimit:10;" d="M -4 259 L 250.777344 259 L 259 254.089844 L 259 -4 L -4 -4 L -4 259 "/>
<path style="fill:none;stroke-width:6;stroke-linecap:round;stroke-linejoin:round;stroke:rgb(60%,70.196078%,80%);stroke-opacity:1;stroke-miterlimit:10;" d="M 83.964844 -7 L 26.660156 262 "/>
<path style="fill:none;stroke-width:3;stroke-linecap:round;stroke-linejoin:round;stroke:rgb(100%,100%,100%);stroke-opacity:1;stroke-miterlimit:10;" d="M 42.84375 163.726563 L 43.09375 162.601563 L 46.90625 163.398438 L 47.78125 159.289063 L 43.96875 158.492188 L 44.203125 157.367188 L 53.484375 159.335938 L 53.25 160.460938 L 48.828125 159.523438 L 47.953125 163.632813 L 52.375 164.570313 L 52.125 165.695313 Z M 51.175781 156.640625 L 46.972656 155.75 L 47.191406 154.734375 L 51.363281 155.625 C 52.019531 155.761719 52.542969 155.75 52.925781 155.59375 C 53.300781 155.4375 53.535156 155.132813 53.628906 154.671875 C 53.753906 154.109375 53.65625 153.625 53.332031 153.21875 C 53.011719 152.8125 52.503906 152.539063 51.816406 152.390625 L 47.878906 151.546875 L 48.097656 150.515625 L 55.050781 152 L 54.832031 153.03125 L 53.769531 152.796875 C 54.144531 153.140625 54.394531 153.5 54.519531 153.875 C 54.652344 154.25 54.675781 154.664063 54.582031 155.109375 C 54.433594 155.820313 54.070313 156.304688 53.488281 156.5625 C 52.90625 156.824219 52.136719 156.851563 51.175781 156.640625 Z M 47.363281 153.140625 Z M 50.472656 144.503906 L 46.722656 143.691406 L 46.941406 142.675781 L 56.597656 144.738281 L 56.378906 145.753906 L 55.332031 145.535156 C 55.695313 145.839844 55.945313 146.183594 56.082031 146.566406 C 56.214844 146.941406 56.238281 147.359375 56.144531 147.816406 C 55.976563 148.578125 55.507813 149.125 54.738281 149.457031 C 53.96875 149.78125 53.035156 149.828125 51.941406 149.597656 C 50.847656 149.359375 50.015625 148.933594 49.441406 148.316406 C 48.871094 147.703125 48.667969 147.015625 48.832031 146.253906 C 48.925781 145.796875 49.109375 145.421875 49.378906 145.128906 C 49.640625 144.839844 50.003906 144.628906 50.472656 144.503906 Z M 52.160156 148.519531 C 52.996094 148.699219 53.6875 148.683594 54.238281 148.472656 C 54.78125 148.265625 55.109375 147.890625 55.222656 147.347656 C 55.335938 146.796875 55.191406 146.316406 54.785156 145.910156 C 54.371094 145.496094 53.746094 145.199219 52.910156 145.019531 C 52.066406 144.832031 51.375 144.847656 50.832031 145.066406 C 50.292969 145.277344 49.964844 145.65625 49.847656 146.207031 C 49.734375 146.75 49.878906 147.222656 50.285156 147.628906 C 50.691406 148.035156 51.316406 148.332031 52.160156 148.519531 Z M 51.144531 137.183594 L 52.222656 137.417969 C 51.996094 137.679688 51.808594 137.957031 51.660156 138.246094 C 51.515625 138.539063 51.410156 138.855469 51.347656 139.199219 C 51.234375 139.699219 51.238281 140.101563 51.363281 140.402344 C 51.480469 140.695313 51.707031 140.878906 52.050781 140.949219 C 52.324219 141.011719 52.550781 140.964844 52.738281 140.808594 C 52.917969 140.652344 53.136719 140.316406 53.394531 139.792969 L 53.566406 139.480469 C 53.890625 138.773438 54.246094 138.304688 54.628906 138.074219 C 55.015625 137.835938 55.488281 137.777344 56.050781 137.902344 C 56.699219 138.039063 57.160156 138.378906 57.441406 138.917969 C 57.722656 139.460938 57.773438 140.132813 57.597656 140.933594 C 57.535156 141.257813 57.425781 141.597656 57.269531 141.949219 C 57.121094 142.304688 56.929688 142.660156 56.691406 143.011719 L 55.519531 142.761719 C 55.824219 142.441406 56.066406 142.105469 56.253906 141.761719 C 56.433594 141.410156 56.5625 141.050781 56.644531 140.683594 C 56.75 140.207031 56.738281 139.820313 56.613281 139.527344 C 56.480469 139.226563 56.246094 139.039063 55.910156 138.964844 C 55.597656 138.902344 55.339844 138.949219 55.128906 139.105469 C 54.921875 139.253906 54.675781 139.628906 54.394531 140.230469 L 54.222656 140.558594 C 53.941406 141.164063 53.621094 141.582031 53.253906 141.808594 C 52.878906 142.027344 52.421875 142.082031 51.878906 141.964844 C 51.234375 141.820313 50.777344 141.503906 50.503906 141.011719 C 50.234375 140.511719 50.183594 139.878906 50.347656 139.105469 C 50.433594 138.730469 50.542969 138.382813 50.675781 138.058594 C 50.800781 137.738281 50.957031 137.445313 51.144531 137.183594 Z M 52.679688 132.925781 C 52.554688 133.480469 52.703125 133.96875 53.117188 134.394531 C 53.523438 134.8125 54.144531 135.109375 54.976563 135.285156 C 55.8125 135.464844 56.5 135.441406 57.039063 135.222656 C 57.582031 135.003906 57.914063 134.621094 58.039063 134.066406 C 58.152344 133.515625 58.007813 133.03125 57.601563 132.613281 C 57.1875 132.199219 56.566406 131.902344 55.742188 131.722656 C 54.921875 131.546875 54.234375 131.566406 53.679688 131.785156 C 53.128906 131.996094 52.796875 132.375 52.679688 132.925781 Z M 51.710938 132.722656 C 51.898438 131.828125 52.375 131.191406 53.132813 130.816406 C 53.882813 130.441406 54.832031 130.378906 55.976563 130.628906 C 57.125 130.871094 57.960938 131.316406 58.492188 131.972656 C 59.03125 132.621094 59.210938 133.390625 59.023438 134.285156 C 58.824219 135.183594 58.351563 135.816406 57.601563 136.191406 C 56.851563 136.558594 55.90625 136.621094 54.757813 136.378906 C 53.613281 136.128906 52.769531 135.683594 52.226563 135.035156 C 51.6875 134.390625 51.515625 133.621094 51.710938 132.722656 Z M 56.714844 123.570313 L 60.917969 124.460938 L 60.699219 125.492188 L 56.542969 124.601563 C 55.878906 124.46875 55.355469 124.484375 54.980469 124.648438 C 54.605469 124.804688 54.371094 125.113281 54.277344 125.570313 C 54.152344 126.113281 54.253906 126.585938 54.574219 126.992188 C 54.898438 127.398438 55.402344 127.675781 56.089844 127.820313 L 60.011719 128.664063 L 59.792969 129.695313 L 52.839844 128.210938 L 53.058594 127.179688 L 54.136719 127.414063 C 53.773438 127.082031 53.523438 126.726563 53.386719 126.351563 C 53.253906 125.976563 53.230469 125.570313 53.324219 125.132813 C 53.472656 124.414063 53.835938 123.925781 54.417969 123.664063 C 54.992188 123.394531 55.757813 123.363281 56.714844 123.570313 Z M 58.628906 113.84375 C 58.777344 113.625 59.027344 113.433594 59.378906 113.265625 C 59.722656 113.101563 60.175781 112.949219 60.738281 112.8125 L 63.519531 112.21875 L 63.253906 113.4375 L 60.644531 114 C 59.96875 114.136719 59.503906 114.3125 59.253906 114.53125 C 59.003906 114.75 58.832031 115.085938 58.738281 115.53125 L 58.472656 116.765625 L 62.378906 117.59375 L 62.128906 118.71875 L 52.847656 116.75 L 53.394531 114.203125 C 53.605469 113.246094 53.980469 112.578125 54.519531 112.203125 C 55.0625 111.828125 55.78125 111.734375 56.675781 111.921875 C 57.261719 112.046875 57.722656 112.277344 58.066406 112.609375 C 58.402344 112.933594 58.589844 113.34375 58.628906 113.84375 Z M 54.144531 115.84375 L 57.425781 116.53125 L 57.722656 115.109375 C 57.839844 114.558594 57.785156 114.121094 57.566406 113.796875 C 57.347656 113.464844 56.96875 113.242188 56.425781 113.125 C 55.894531 113.011719 55.464844 113.0625 55.128906 113.28125 C 54.785156 113.492188 54.558594 113.871094 54.441406 114.421875 Z M 56.871094 109.335938 L 57.089844 108.304688 L 64.042969 109.789063 L 63.824219 110.820313 Z M 54.167969 108.757813 L 54.386719 107.726563 L 55.839844 108.039063 L 55.621094 109.070313 Z M 57.390625 106.890625 L 57.609375 105.8125 L 63.875 105.109375 L 58.453125 101.90625 L 58.6875 100.796875 L 65.140625 104.640625 L 64.84375 106.03125 Z M 63.316406 94.714844 L 63.878906 94.824219 L 62.863281 99.558594 C 63.667969 99.683594 64.3125 99.601563 64.800781 99.308594 C 65.292969 99.007813 65.609375 98.519531 65.753906 97.839844 C 65.835938 97.445313 65.863281 97.054688 65.832031 96.667969 C 65.808594 96.273438 65.726563 95.867188 65.582031 95.449219 L 66.675781 95.683594 C 66.769531 96.089844 66.820313 96.496094 66.832031 96.902344 C 66.839844 97.308594 66.804688 97.714844 66.722656 98.121094 C 66.511719 99.113281 66.023438 99.832031 65.253906 100.277344 C 64.484375 100.726563 63.546875 100.835938 62.441406 100.605469 C 61.296875 100.355469 60.449219 99.882813 59.894531 99.183594 C 59.34375 98.488281 59.167969 97.667969 59.363281 96.730469 C 59.550781 95.886719 60 95.285156 60.707031 94.917969 C 61.417969 94.554688 62.285156 94.488281 63.316406 94.714844 Z M 62.769531 95.683594 C 62.144531 95.550781 61.613281 95.597656 61.175781 95.824219 C 60.730469 96.042969 60.453125 96.410156 60.347656 96.917969 C 60.222656 97.503906 60.308594 98.007813 60.597656 98.433594 C 60.878906 98.851563 61.34375 99.152344 61.988281 99.339844 Z M 62.316406 88.949219 C 62.234375 89.042969 62.160156 89.160156 62.097656 89.292969 C 62.027344 89.417969 61.972656 89.566406 61.941406 89.730469 C 61.816406 90.304688 61.933594 90.792969 62.285156 91.199219 C 62.628906 91.597656 63.191406 91.878906 63.972656 92.042969 L 67.644531 92.824219 L 67.425781 93.855469 L 60.472656 92.371094 L 60.691406 91.339844 L 61.769531 91.574219 C 61.394531 91.261719 61.144531 90.914063 61.019531 90.527344 C 60.886719 90.144531 60.871094 89.707031 60.972656 89.214844 C 60.984375 89.144531 61.003906 89.066406 61.035156 88.980469 C 61.066406 88.898438 61.105469 88.804688 61.144531 88.699219 Z M 62.316406 88.949219 "/>
<path style=" stroke:none;fill-rule:evenodd;fill:rgb(41.960784%,58.039216%,69.019608%);fill-opacity:1;" d="M 42.84375 163.726563 L 43.09375 162.601563 L 46.90625 163.398438 L 47.78125 159.289063 L 43.96875 158.492188 L 44.203125 157.367188 L 53.484375 159.335938 L 53.25 160.460938 L 48.828125 159.523438 L 47.953125 163.632813 L 52.375 164.570313 L 52.125 165.695313 Z M 51.175781 156.640625 L 46.972656 155.75 L 47.191406 154.734375 L 51.363281 155.625 C 52.019531 155.761719 52.542969 155.75 52.925781 155.59375 C 53.300781 155.4375 53.535156 155.132813 53.628906 154.671875 C 53.753906 154.109375 53.65625 153.625 53.332031 153.21875 C 53.011719 152.8125 52.503906 152.539063 51.816406 152.390625 L 47.878906 151.546875 L 48.097656 150.515625 L 55.050781 152 L 54.832031 153.03125 L 53.769531 152.796875 C 54.144531 153.140625 54.394531 153.5 54.519531 153.875 C 54.652344 154.25 54.675781 154.664063 54.582031 155.109375 C 54.433594 155.820313 54.070313 156.304688 53.488281 156.5625 C 52.90625 156.824219 52.136719 156.851563 51.175781 156.640625 Z M 47.363281 153.140625 Z M 50.472656 144.503906 L 46.722656 143.691406 L 46.941406 142.675781 L 56.597656 144.738281 L 56.378906 145.753906 L 55.332031 145.535156 C 55.695313 145.839844 55.945313 146.183594 56.082031 146.566406 C 56.214844 146.941406 56.238281 147.359375 56.144531 147.816406 C 55.976563 148.578125 55.507813 149.125 54.738281 149.457031 C 53.96875 149.78125 53.035156 149.828125 51.941406 149.597656 C 50.847656 149.359375 50.015625 148.933594 49.441406 148.316406 C 48.871094 147.703125 48.667969 147.015625 48.832031 146.253906 C 48.925781 145.796875 49.109375 145.421875 49.378906 145.128906 C 49.640625 144.839844 50.003906 144.628906 50.472656 144.503906 Z M 52.160156 148.519531 C 52.996094 148.699219 53.6875 148.683594 54.238281 148.472656 C 54.78125 148.265625 55.109375 147.890625 55.222656 147.347656 C 55.335938 146.796875 55.191406 146.316406 54.785156 145.910156 C 54.371094 145.496094 53.746094 145.199219 52.910156 145.019531 C 52.066406 144.832031 51.375 144.847656 50.832031 145.066406 C 50.292969 145.277344 49.964844 145.65625 49.847656 146.207031 C 49.734375 146.75 49.878906 147.222656 50.285156 147.628906 C 50.691406 148.035156 51.316406 148.332031 52.160156 148.519531 Z M 51.144531 137.183594 L 52.222656 137.417969 C 51.996094 137.679688 51.808594 137.957031 51.660156 138.246094 C 51.515625 138.539063 51.410156 138.855469 51.347656 139.199219 C 51.234375 139.699219 51.238281 140.101563 51.363281 140.402344 C 51.480469 140.695313 51.707031 140.878906 52.050781 140.949219 C 52.324219 141.011719 52.550781 140.964844 52.738281 140.808594 C 52.917969 140.652344 53.136719 140.316406 53.394531 139.792969 L 53.566406 139.480469 C 53.890625 138.773438 54.246094 138.304688 54.628906 138.074219 C 55.015625 137.835938 55.488281 137.777344 56.050781 137.902344 C 56.699219 138.039063 57.160156 138.378906 57.441406 138.917969 C 57.722656 139.460938 57.773438 140.132813 57.597656 140.933594 C 57.535156 141.257813 57.425781 141.597656 57.269531 141.949219 C 57.121094 142.304688 56.929688 142.660156 56.691406 143.011719 L 55.519531 142.761719 C 55.824219 142.441406 56.066406 142.105469 56.253906 141.761719 C 56.433594 141.410156 56.5625 141.050781 56.644531 140.683594 C 56.75 140.207031 56.738281 139.820313 56.613281 139.527344 C 56.480469 139.226563 56.246094 139.039063 55.910156 138.964844 C 55.597656 138.902344 55.339844 138.949219 55.128906 139.105469 C 54.921875 139.253906 54.675781 139.628906 54.394531 140.230469 L 54.222656 140.558594 C 53.941406 141.164063 53.621094 141.582031 53.253906 141.808594 C 52.878906 142.027344 52.421875 142.082031 51.878906 141.964844 C 51.234375 141.820313 50.777344 141.503906 50.503906 141.011719 C 50.234375 140.511719 50.183594 139.878906 50.347656 139.105469 C 50.433594 138.730469 50.542969 138.382813 50.675781 138.058594 C 50.800781 137.738281 50.957031 137.445313 51.144531 137.183594 Z M 52.679688 132.925781 C 52.554688 133.480469 52.703125 133.96875 53.117188 134.394531 C 53.523438 134.8125 54.144531 135.109375 54.976563 135.285156 C 55.8125 135.464844 56.5 135.441406 57.039063 135.222656 C 57.582031 135.003906 57.914063 134.621094 58.039063 134.066406 C 58.152344 133.515625 58.007813 133.03125 57.601563 132.613281 C 57.1875 132.199219 56.566406 131.902344 55.742188 131.722656 C 54.921875 131.546875 54.234375 131.566406 53.679688 131.785156 C 53.128906 131.996094 52.796875 132.375 52.679688 132.925781 Z M 51.710938 132.722656 C 51.898438 131.828125 52.375 131.191406 53.132813 130.816406 C 53.882813 130.441406 54.832031 130.378906 55.976563 130.628906 C 57.125 130.871094 57.960938 131.316406 58.492188 131.972656 C 59.03125 132.621094 59.210938 133.390625 59.023438 134.285156 C 58.824219 135.183594 58.351563 135.816406 57.601563 136.191406 C 56.851563 136.558594 55.90625 136.621094 54.757813 136.378906 C 53.613281 136.128906 52.769531 135.683594 52.226563 135.035156 C 51.6875 134.390625 51.515625 133.621094 51.710938 132.722656 Z M 56.714844 123.570313 L 60.917969 124.460938 L 60.699219 125.492188 L 56.542969 124.601563 C 55.878906 124.46875 55.355469 124.484375 54.980469 124.648438 C 54.605469 124.804688 54.371094 125.113281 54.277344 125.570313 C 54.152344 126.113281 54.253906 126.585938 54.574219 126.992188 C 54.898438 127.398438 55.402344 127.675781 56.089844 127.820313 L 60.011719 128.664063 L 59.792969 129.695313 L 52.839844 128.210938 L 53.058594 127.179688 L 54.136719 127.414063 C 53.773438 127.082031 53.523438 126.726563 53.386719 126.351563 C 53.253906 125.976563 53.230469 125.570313 53.324219 125.132813 C 53.472656 124.414063 53.835938 123.925781 54.417969 123.664063 C 54.992188 123.394531 55.757813 123.363281 56.714844 123.570313 Z M 58.628906 113.84375 C 58.777344 113.625 59.027344 113.433594 59.378906 113.265625 C 59.722656 113.101563 60.175781 112.949219 60.738281 112.8125 L 63.519531 112.21875 L 63.253906 113.4375 L 60.644531 114 C 59.96875 114.136719 59.503906 114.3125 59.253906 114.53125 C 59.003906 114.75 58.832031 115.085938 58.738281 115.53125 L 58.472656 116.765625 L 62.378906 117.59375 L 62.128906 118.71875 L 52.847656 116.75 L 53.394531 114.203125 C 53.605469 113.246094 53.980469 112.578125 54.519531 112.203125 C 55.0625 111.828125 55.78125 111.734375 56.675781 111.921875 C 57.261719 112.046875 57.722656 112.277344 58.066406 112.609375 C 58.402344 112.933594 58.589844 113.34375 58.628906 113.84375 Z M 54.144531 115.84375 L 57.425781 116.53125 L 57.722656 115.109375 C 57.839844 114.558594 57.785156 114.121094 57.566406 113.796875 C 57.347656 113.464844 56.96875 113.242188 56.425781 113.125 C 55.894531 113.011719 55.464844 113.0625 55.128906 113.28125 C 54.785156 113.492188 54.558594 113.871094 54.441406 114.421875 Z M 56.871094 109.335938 L 57.089844 108.304688 L 64.042969 109.789063 L 63.824219 110.820313 Z M 54.167969 108.757813 L 54.386719 107.726563 L 55.839844 108.039063 L 55.621094 109.070313 Z M 57.390625 106.890625 L 57.609375 105.8125 L 63.875 105.109375 L 58.453125 101.90625 L 58.6875 100.796875 L 65.140625 104.640625 L 64.84375 106.03125 Z M 63.316406 94.714844 L 63.878906 94.824219 L 62.863281 99.558594 C 63.667969 99.683594 64.3125 99.601563 64.800781 99.308594 C 65.292969 99.007813 65.609375 98.519531 65.753906 97.839844 C 65.835938 97.445313 65.863281 97.054688 65.832031 96.667969 C 65.808594 96.273438 65.726563 95.867188 65.582031 95.449219 L 66.675781 95.683594 C 66.769531 96.089844 66.820313 96.496094 66.832031 96.902344 C 66.839844 97.308594 66.804688 97.714844 66.722656 98.121094 C 66.511719 99.113281 66.023438 99.832031 65.253906 100.277344 C 64.484375 100.726563 63.546875 100.835938 62.441406 100.605469 C 61.296875 100.355469 60.449219 99.882813 59.894531 99.183594 C 59.34375 98.488281 59.167969 97.667969 59.363281 96.730469 C 59.550781 95.886719 60 95.285156 60.707031 94.917969 C 61.417969 94.554688 62.285156 94.488281 63.316406 94.714844 Z M 62.769531 95.683594 C 62.144531 95.550781 61.613281 95.597656 61.175781 95.824219 C 60.730469 96.042969 60.453125 96.410156 60.347656 96.917969 C 60.222656 97.503906 60.308594 98.007813 60.597656 98.433594 C 60.878906 98.851563 61.34375 99.152344 61.988281 99.339844 Z M 62.316406 88.949219 C 62.234375 89.042969 62.160156 89.160156 62.097656 89.292969 C 62.027344 89.417969 61.972656 89.566406 61.941406 89.730469 C 61.816406 90.304688 61.933594 90.792969 62.285156 91.199219 C 62.628906 91.597656 63.191406 91.878906 63.972656 92.042969 L 67.644531 92.824219 L 67.425781 93.855469 L 60.472656 92.371094 L 60.691406 91.339844 L 61.769531 91.574219 C 61.394531 91.261719 61.144531 90.914063 61.019531 90.527344 C 60.886719 90.144531 60.871094 89.707031 60.972656 89.214844 C 60.984375 89.144531 61.003906 89.066406 61.035156 88.980469 C 61.066406 88.898438 61.105469 88.804688 61.144531 88.699219 Z M 62.316406 88.949219 "/>
</g>
</svg>

