<?xml version="1.0" encoding="UTF-8"?>
<svg xmlns="http://www.w3.org/2000/svg" xmlns:xlink="http://www.w3.org/1999/xlink" width="256pt" height="256pt" viewBox="0 0 256 256" version="1.1">
<g id="surface2">
<rect x="0" y="0" width="256" height="256" style="fill:rgb(60%,70.196078%,80%);fill-opacity:1;stroke:none;"/>
<path style=" stroke:none;fill-rule:evenodd;fill:rgb(94.901961%,93.72549%,91.372549%);fill-opacity:1;" d="M 259 -4 L -4 -4 L -4 48.824219 L 21.71875 55.097656 L 22.3125 56.164063 L 16.585938 81.335938 L 15.355469 82.113281 L -4 77.601563 L -4 259 L -4 -4 Z M 259 -4 "/>
<path style=" stroke:none;fill-rule:evenodd;fill:rgb(60%,70.196078%,80%);fill-opacity:1;" d="M -4 259 L 259 259 L 259 -4 L -4 -4 L -4 48.824219 L 21.71875 55.097656 L 22.3125 56.164063 L 16.585938 81.335938 L 15.355469 82.113281 L -4 77.601563 Z M -4 259 "/>
<path style="fill:none;stroke-width:1;stroke-linecap:round;stroke-linejoin:round;stroke:rgb(70.196078%,77.647059%,83.137255%);stroke-opacity:1;stroke-miterlimit:10;" d="M -4 259 L 259 259 L 259 -4 L -4 -4 L -4 48.824219 L 21.71875 55.097656 L 22.3125 56.164063 L 16.585938 81.335938 L 15.355469 82.113281 L -4 77.601563 L -4 259 "/>
<path style="fill:none;stroke-width:6;stroke-linecap:round;stroke-linejoin:round;stroke:rgb(60%,70.196078%,80%);stroke-opacity:1;stroke-miterlimit:10;" d="M 151.1875 -7 L 107.21875 262 "/>
<path style="fill:none;stroke-width:3;stroke-linecap:round;stroke-linejoin:round;stroke:rgb(100%,100%,100%);stroke-opacity:1;stroke-miterlimit:10;" d="M 118.492188 164.269531 L 118.679688 163.144531 L 122.523438 163.769531 L 123.195313 159.613281 L 119.351563 158.988281 L 119.539063 157.847656 L 128.898438 159.378906 L 128.710938 160.519531 L 124.257813 159.785156 L 123.585938 163.941406 L 128.039063 164.675781 L 127.851563 165.800781 Z M 126.457031 156.820313 L 122.222656 156.132813 L 122.394531 155.101563 L 126.597656 155.789063 C 127.265625 155.894531 127.785156 155.859375 128.160156 155.679688 C 128.527344 155.492188 128.75 155.171875 128.832031 154.710938 C 128.925781 154.148438 128.800781 153.675781 128.457031 153.289063 C 128.113281 152.894531 127.597656 152.640625 126.910156 152.523438 L 122.925781 151.882813 L 123.097656 150.835938 L 130.113281 151.976563 L 129.941406 153.023438 L 128.863281 152.851563 C 129.246094 153.164063 129.511719 153.507813 129.660156 153.882813 C 129.816406 154.25 129.855469 154.65625 129.785156 155.101563 C 129.667969 155.820313 129.332031 156.328125 128.769531 156.617188 C 128.199219 156.910156 127.425781 156.976563 126.457031 156.820313 Z M 122.488281 153.492188 Z M 125.1875 144.714844 L 121.390625 144.089844 L 121.5625 143.058594 L 131.3125 144.652344 L 131.140625 145.683594 L 130.09375 145.511719 C 130.457031 145.792969 130.71875 146.121094 130.875 146.496094 C 131.03125 146.863281 131.070313 147.277344 131 147.746094 C 130.875 148.519531 130.4375 149.089844 129.6875 149.464844 C 128.929688 149.832031 127.996094 149.917969 126.890625 149.730469 C 125.789063 149.554688 124.9375 149.175781 124.34375 148.589844 C 123.742188 147.996094 123.5 147.316406 123.625 146.542969 C 123.699219 146.074219 123.867188 145.691406 124.125 145.386719 C 124.375 145.085938 124.730469 144.863281 125.1875 144.714844 Z M 127.0625 148.636719 C 127.90625 148.785156 128.601563 148.742188 129.140625 148.511719 C 129.671875 148.273438 129.980469 147.882813 130.0625 147.339844 C 130.15625 146.789063 129.992188 146.316406 129.5625 145.917969 C 129.125 145.523438 128.484375 145.253906 127.640625 145.105469 C 126.789063 144.972656 126.09375 145.023438 125.5625 145.261719 C 125.03125 145.503906 124.71875 145.898438 124.625 146.449219 C 124.542969 146.992188 124.714844 147.460938 125.140625 147.855469 C 125.570313 148.242188 126.210938 148.503906 127.0625 148.636719 Z M 125.507813 137.375 L 126.601563 137.546875 C 126.382813 137.828125 126.207031 138.121094 126.070313 138.421875 C 125.9375 138.714844 125.84375 139.03125 125.789063 139.375 C 125.707031 139.886719 125.734375 140.289063 125.867188 140.578125 C 125.992188 140.859375 126.226563 141.03125 126.570313 141.09375 C 126.84375 141.136719 127.070313 141.078125 127.257813 140.921875 C 127.4375 140.757813 127.640625 140.40625 127.867188 139.875 L 128.023438 139.546875 C 128.316406 138.839844 128.648438 138.359375 129.023438 138.109375 C 129.390625 137.851563 129.859375 137.765625 130.429688 137.859375 C 131.085938 137.964844 131.5625 138.277344 131.867188 138.796875 C 132.167969 139.320313 132.257813 139.984375 132.132813 140.796875 C 132.078125 141.132813 131.984375 141.480469 131.851563 141.84375 C 131.714844 142.199219 131.539063 142.5625 131.320313 142.9375 L 130.132813 142.75 C 130.425781 142.398438 130.65625 142.046875 130.820313 141.703125 C 130.988281 141.351563 131.101563 140.984375 131.164063 140.609375 C 131.25 140.132813 131.21875 139.746094 131.070313 139.453125 C 130.925781 139.164063 130.6875 138.992188 130.351563 138.9375 C 130.039063 138.886719 129.785156 138.9375 129.585938 139.09375 C 129.378906 139.25 129.148438 139.636719 128.898438 140.25 L 128.742188 140.59375 C 128.484375 141.21875 128.175781 141.652344 127.820313 141.890625 C 127.46875 142.132813 127.015625 142.203125 126.460938 142.109375 C 125.804688 142.007813 125.332031 141.714844 125.039063 141.234375 C 124.75 140.746094 124.664063 140.117188 124.789063 139.34375 C 124.851563 138.960938 124.945313 138.605469 125.070313 138.28125 C 125.1875 137.949219 125.332031 137.648438 125.507813 137.375 Z M 126.820313 133.046875 C 126.726563 133.601563 126.898438 134.078125 127.335938 134.484375 C 127.765625 134.882813 128.398438 135.148438 129.242188 135.28125 C 130.085938 135.429688 130.773438 135.382813 131.304688 135.140625 C 131.835938 134.890625 132.148438 134.492188 132.242188 133.9375 C 132.335938 133.386719 132.171875 132.90625 131.742188 132.5 C 131.304688 132.09375 130.671875 131.824219 129.835938 131.6875 C 129.003906 131.554688 128.316406 131.609375 127.773438 131.859375 C 127.234375 132.101563 126.914063 132.496094 126.820313 133.046875 Z M 125.851563 132.890625 C 126 131.984375 126.441406 131.328125 127.179688 130.921875 C 127.910156 130.507813 128.851563 130.390625 130.007813 130.578125 C 131.164063 130.765625 132.023438 131.171875 132.585938 131.796875 C 133.15625 132.421875 133.371094 133.1875 133.226563 134.09375 C 133.078125 135 132.640625 135.65625 131.914063 136.0625 C 131.175781 136.46875 130.226563 136.578125 129.070313 136.390625 C 127.914063 136.203125 127.054688 135.804688 126.492188 135.1875 C 125.921875 134.5625 125.707031 133.796875 125.851563 132.890625 Z M 130.410156 123.5 L 134.644531 124.1875 L 134.472656 125.234375 L 130.285156 124.546875 C 129.609375 124.445313 129.089844 124.480469 128.722656 124.65625 C 128.359375 124.835938 128.140625 125.152344 128.066406 125.609375 C 127.972656 126.171875 128.097656 126.652344 128.441406 127.046875 C 128.785156 127.433594 129.300781 127.683594 129.988281 127.796875 L 133.957031 128.4375 L 133.785156 129.484375 L 126.769531 128.34375 L 126.941406 127.296875 L 128.035156 127.46875 C 127.660156 127.148438 127.394531 126.804688 127.238281 126.4375 C 127.074219 126.074219 127.027344 125.671875 127.097656 125.234375 C 127.222656 124.507813 127.566406 123.996094 128.128906 123.703125 C 128.683594 123.402344 129.441406 123.335938 130.410156 123.5 Z M 131.882813 113.695313 C 132.007813 113.476563 132.242188 113.273438 132.585938 113.085938 C 132.921875 112.898438 133.363281 112.734375 133.914063 112.585938 L 136.664063 111.851563 L 136.476563 113.070313 L 133.882813 113.773438 C 133.21875 113.929688 132.765625 114.128906 132.523438 114.367188 C 132.273438 114.597656 132.113281 114.9375 132.039063 115.382813 L 131.835938 116.632813 L 135.789063 117.273438 L 135.601563 118.398438 L 126.242188 116.867188 L 126.664063 114.304688 C 126.820313 113.335938 127.164063 112.65625 127.695313 112.257813 C 128.21875 111.863281 128.929688 111.738281 129.835938 111.882813 C 130.421875 111.988281 130.890625 112.195313 131.242188 112.507813 C 131.585938 112.8125 131.800781 113.207031 131.882813 113.695313 Z M 127.476563 115.914063 L 130.789063 116.460938 L 131.023438 115.023438 C 131.109375 114.472656 131.035156 114.035156 130.804688 113.710938 C 130.566406 113.390625 130.175781 113.179688 129.632813 113.085938 C 129.082031 113.003906 128.644531 113.078125 128.320313 113.304688 C 128 113.535156 127.796875 113.925781 127.710938 114.476563 Z M 129.878906 109.285156 L 130.050781 108.253906 L 137.066406 109.394531 L 136.894531 110.425781 Z M 127.144531 108.832031 L 127.316406 107.800781 L 128.785156 108.035156 L 128.613281 109.066406 Z M 130.292969 106.828125 L 130.464844 105.734375 L 136.683594 104.71875 L 131.105469 101.796875 L 131.292969 100.6875 L 137.917969 104.1875 L 137.683594 105.59375 Z M 135.628906 94.371094 L 136.191406 94.464844 L 135.410156 99.230469 C 136.222656 99.324219 136.871094 99.214844 137.347656 98.902344 C 137.816406 98.582031 138.109375 98.070313 138.222656 97.371094 C 138.285156 96.976563 138.296875 96.585938 138.253906 96.199219 C 138.203125 95.804688 138.09375 95.402344 137.925781 94.996094 L 139.019531 95.167969 C 139.144531 95.574219 139.214844 95.980469 139.238281 96.386719 C 139.269531 96.792969 139.253906 97.195313 139.191406 97.589844 C 139.023438 98.601563 138.570313 99.351563 137.832031 99.839844 C 137.082031 100.320313 136.152344 100.472656 135.035156 100.292969 C 133.878906 100.105469 133.011719 99.679688 132.425781 99.011719 C 131.84375 98.335938 131.628906 97.523438 131.785156 96.574219 C 131.921875 95.722656 132.339844 95.101563 133.035156 94.714844 C 133.722656 94.320313 134.589844 94.207031 135.628906 94.371094 Z M 135.128906 95.371094 C 134.496094 95.269531 133.964844 95.339844 133.535156 95.589844 C 133.097656 95.832031 132.839844 96.207031 132.753906 96.714844 C 132.660156 97.300781 132.769531 97.792969 133.082031 98.199219 C 133.386719 98.605469 133.863281 98.886719 134.519531 99.042969 Z M 134.371094 88.652344 C 134.277344 88.757813 134.207031 88.878906 134.152344 89.011719 C 134.089844 89.148438 134.042969 89.292969 134.011719 89.449219 C 133.917969 90.042969 134.058594 90.535156 134.433594 90.917969 C 134.800781 91.292969 135.378906 91.542969 136.167969 91.667969 L 139.871094 92.277344 L 139.699219 93.324219 L 132.683594 92.183594 L 132.855469 91.136719 L 133.949219 91.308594 C 133.554688 91.019531 133.285156 90.683594 133.136719 90.308594 C 132.980469 89.925781 132.945313 89.488281 133.027344 88.996094 C 133.039063 88.925781 133.058594 88.847656 133.089844 88.761719 C 133.113281 88.667969 133.144531 88.566406 133.183594 88.449219 Z M 134.371094 88.652344 "/>
<path style=" stroke:none;fill-rule:evenodd;fill:rgb(41.960784%,58.039216%,69.019608%);fill-opacity:1;" d="M 118.492188 164.269531 L 118.679688 163.144531 L 122.523438 163.769531 L 123.195313 159.613281 L 119.351563 158.988281 L 119.539063 157.847656 L 128.898438 159.378906 L 128.710938 160.519531 L 124.257813 159.785156 L 123.585938 163.941406 L 128.039063 164.675781 L 127.851563 165.800781 Z M 126.457031 156.820313 L 122.222656 156.132813 L 122.394531 155.101563 L 126.597656 155.789063 C 127.265625 155.894531 127.785156 155.859375 128.160156 155.679688 C 128.527344 155.492188 128.75 155.171875 128.832031 154.710938 C 128.925781 154.148438 128.800781 153.675781 128.457031 153.289063 C 128.113281 152.894531 127.597656 152.640625 126.910156 152.523438 L 122.925781 151.882813 L 123.097656 150.835938 L 130.113281 151.976563 L 129.941406 153.023438 L 128.863281 152.851563 C 129.246094 153.164063 129.511719 153.507813 129.660156 153.882813 C 129.816406 154.25 129.855469 154.65625 129.785156 155.101563 C 129.667969 155.820313 129.332031 156.328125 128.769531 156.617188 C 128.199219 156.910156 127.425781 156.976563 126.457031 156.820313 Z M 122.488281 153.492188 Z M 125.1875 144.714844 L 121.390625 144.089844 L 121.5625 143.058594 L 131.3125 144.652344 L 131.140625 145.683594 L 130.09375 145.511719 C 130.457031 145.792969 130.71875 146.121094 130.875 146.496094 C 131.03125 146.863281 131.070313 147.277344 131 147.746094 C 130.875 148.519531 130.4375 149.089844 129.6875 149.464844 C 128.929688 149.832031 127.996094 149.917969 126.890625 149.730469 C 125.789063 149.554688 124.9375 149.175781 124.34375 148.589844 C 123.742188 147.996094 123.5 147.316406 123.625 146.542969 C 123.699219 146.074219 123.867188 145.691406 124.125 145.386719 C 124.375 145.085938 124.730469 144.863281 125.1875 144.714844 Z M 127.0625 148.636719 C 127.90625 148.785156 128.601563 148.742188 129.140625 148.511719 C 129.671875 148.273438 129.980469 147.882813 130.0625 147.339844 C 130.15625 146.789063 129.992188 146.316406 129.5625 145.917969 C 129.125 145.523438 128.484375 145.253906 127.640625 145.105469 C 126.789063 144.972656 126.09375 145.023438 125.5625 145.261719 C 125.03125 145.503906 124.71875 145.898438 124.625 146.449219 C 124.542969 146.992188 124.714844 147.460938 125.140625 147.855469 C 125.570313 148.242188 126.210938 148.503906 127.0625 148.636719 Z M 125.507813 137.375 L 126.601563 137.546875 C 126.382813 137.828125 126.207031 138.121094 126.070313 138.421875 C 125.9375 138.714844 125.84375 139.03125 125.789063 139.375 C 125.707031 139.886719 125.734375 140.289063 125.867188 140.578125 C 125.992188 140.859375 126.226563 141.03125 126.570313 141.09375 C 126.84375 141.136719 127.070313 141.078125 127.257813 140.921875 C 127.4375 140.757813 127.640625 140.40625 127.867188 139.875 L 128.023438 139.546875 C 128.316406 138.839844 128.648438 138.359375 129.023438 138.109375 C 129.390625 137.851563 129.859375 137.765625 130.429688 137.859375 C 131.085938 137.964844 131.5625 138.277344 131.867188 138.796875 C 132.167969 139.320313 132.257813 139.984375 132.132813 140.796875 C 132.078125 141.132813 131.984375 141.480469 131.851563 141.84375 C 131.714844 142.199219 131.539063 142.5625 131.320313 142.9375 L 130.132813 142.75 C 130.425781 142.398438 130.65625 142.046875 130.820313 141.703125 C 130.988281 141.351563 131.101563 140.984375 131.164063 140.609375 C 131.25 140.132813 131.21875 139.746094 131.070313 139.453125 C 130.925781 139.164063 130.6875 138.992188 130.351563 138.9375 C 130.039063 138.886719 129.785156 138.9375 129.585938 139.09375 C 129.378906 139.25 129.148438 139.636719 128.898438 140.25 L 128.742188 140.59375 C 128.484375 141.21875 128.175781 141.652344 127.820313 141.890625 C 127.46875 142.132813 127.015625 142.203125 126.460938 142.109375 C 125.804688 142.007813 125.332031 141.714844 125.039063 141.234375 C 124.75 140.746094 124.664063 140.117188 124.789063 139.34375 C 124.851563 138.960938 124.945313 138.605469 125.070313 138.28125 C 125.1875 137.949219 125.332031 137.648438 125.507813 137.375 Z M 126.820313 133.046875 C 126.726563 133.601563 126.898438 134.078125 127.335938 134.484375 C 127.765625 134.882813 128.398438 135.148438 129.242188 135.28125 C 130.085938 135.429688 130.773438 135.382813 131.304688 135.140625 C 131.835938 134.890625 132.148438 134.492188 132.242188 133.9375 C 132.335938 133.386719 132.171875 132.90625 131.742188 132.5 C 131.304688 132.09375 130.671875 131.824219 129.835938 131.6875 C 129.003906 131.554688 128.316406 131.609375 127.773438 131.859375 C 127.234375 132.101563 126.914063 132.496094 126.820313 133.046875 Z M 125.851563 132.890625 C 126 131.984375 126.441406 131.328125 127.179688 130.921875 C 127.910156 130.507813 128.851563 130.390625 130.007813 130.578125 C 131.164063 130.765625 132.023438 131.171875 132.585938 131.796875 C 133.15625 132.421875 133.371094 133.1875 133.226563 134.09375 C 133.078125 135 132.640625 135.65625 131.914063 136.0625 C 131.175781 136.46875 130.226563 136.578125 129.070313 136.390625 C 127.914063 136.203125 127.054688 135.804688 126.492188 135.1875 C 125.921875 134.5625 125.707031 133.796875 125.851563 132.890625 Z M 130.410156 123.5 L 134.644531 124.1875 L 134.472656 125.234375 L 130.285156 124.546875 C 129.609375 124.445313 129.089844 124.480469 128.722656 124.65625 C 128.359375 124.835938 128.140625 125.152344 128.066406 125.609375 C 127.972656 126.171875 128.097656 126.652344 128.441406 127.046875 C 128.785156 127.433594 129.300781 127.683594 129.988281 127.796875 L 133.957031 128.4375 L 133.785156 129.484375 L 126.769531 128.34375 L 126.941406 127.296875 L 128.035156 127.46875 C 127.660156 127.148438 127.394531 126.804688 127.238281 126.4375 C 127.074219 126.074219 127.027344 125.671875 127.097656 125.234375 C 127.222656 124.507813 127.566406 123.996094 128.128906 123.703125 C 128.683594 123.402344 129.441406 123.335938 130.410156 123.5 Z M 131.882813 113.695313 C 132.007813 113.476563 132.242188 113.273438 132.585938 113.085938 C 132.921875 112.898438 133.363281 112.734375 133.914063 112.585938 L 136.664063 111.851563 L 136.476563 113.070313 L 133.882813 113.773438 C 133.21875 113.929688 132.765625 114.128906 132.523438 114.367188 C 132.273438 114.597656 132.113281 114.9375 132.039063 115.382813 L 131.835938 116.632813 L 135.789063 117.273438 L 135.601563 118.398438 L 126.242188 116.867188 L 126.664063 114.304688 C 126.820313 113.335938 127.164063 112.65625 127.695313 112.257813 C 128.21875 111.863281 128.929688 111.738281 129.835938 111.882813 C 130.421875 111.988281 130.890625 112.195313 131.242188 112.507813 C 131.585938 112.8125 131.800781 113.207031 131.882813 113.695313 Z M 127.476563 115.914063 L 130.789063 116.460938 L 131.023438 115.023438 C 131.109375 114.472656 131.035156 114.035156 130.804688 113.710938 C 130.566406 113.390625 130.175781 113.179688 129.632813 113.085938 C 129.082031 113.003906 128.644531 113.078125 128.320313 113.304688 C 128 113.535156 127.796875 113.925781 127.710938 114.476563 Z M 129.878906 109.285156 L 130.050781 108.253906 L 137.066406 109.394531 L 136.894531 110.425781 Z M 127.144531 108.832031 L 127.316406 107.800781 L 128.785156 108.035156 L 128.613281 109.066406 Z M 130.292969 106.828125 L 130.464844 105.734375 L 136.683594 104.71875 L 131.105469 101.796875 L 131.292969 100.6875 L 137.917969 104.1875 L 137.683594 105.59375 Z M 135.628906 94.371094 L 136.191406 94.464844 L 135.410156 99.230469 C 136.222656 99.324219 136.871094 99.214844 137.347656 98.902344 C 137.816406 98.582031 138.109375 98.070313 138.222656 97.371094 C 138.285156 96.976563 138.296875 96.585938 138.253906 96.199219 C 138.203125 95.804688 138.09375 95.402344 137.925781 94.996094 L 139.019531 95.167969 C 139.144531 95.574219 139.214844 95.980469 139.238281 96.386719 C 139.269531 96.792969 139.253906 97.195313 139.191406 97.589844 C 139.023438 98.601563 138.570313 99.351563 137.832031 99.839844 C 137.082031 100.320313 136.152344 100.472656 135.035156 100.292969 C 133.878906 100.105469 133.011719 99.679688 132.425781 99.011719 C 131.84375 98.335938 131.628906 97.523438 131.785156 96.574219 C 131.921875 95.722656 132.339844 95.101563 133.035156 94.714844 C 133.722656 94.320313 134.589844 94.207031 135.628906 94.371094 Z M 135.128906 95.371094 C 134.496094 95.269531 133.964844 95.339844 133.535156 95.589844 C 133.097656 95.832031 132.839844 96.207031 132.753906 96.714844 C 132.660156 97.300781 132.769531 97.792969 133.082031 98.199219 C 133.386719 98.605469 133.863281 98.886719 134.519531 99.042969 Z M 134.371094 88.652344 C 134.277344 88.757813 134.207031 88.878906 134.152344 89.011719 C 134.089844 89.148438 134.042969 89.292969 134.011719 89.449219 C 133.917969 90.042969 134.058594 90.535156 134.433594 90.917969 C 134.800781 91.292969 135.378906 91.542969 136.167969 91.667969 L 139.871094 92.277344 L 139.699219 93.324219 L 132.683594 92.183594 L 132.855469 91.136719 L 133.949219 91.308594 C 133.554688 91.019531 133.285156 90.683594 133.136719 90.308594 C 132.980469 89.925781 132.945313 89.488281 133.027344 88.996094 C 133.039063 88.925781 133.058594 88.847656 133.089844 88.761719 C 133.113281 88.667969 133.144531 88.566406 133.183594 88.449219 Z M 134.371094 88.652344 "/>
</g>
</svg>

