<?xml version="1.0" encoding="UTF-8"?>
<svg xmlns="http://www.w3.org/2000/svg" xmlns:xlink="http://www.w3.org/1999/xlink" width="256pt" height="256pt" viewBox="0 0 256 256" version="1.1">
<g id="surface2">
<rect x="0" y="0" width="256" height="256" style="fill:rgb(94.901961%,93.72549%,91.372549%);fill-opacity:1;stroke:none;"/>
<path style="fill:none;stroke-width:8;stroke-linecap:round;stroke-linejoin:round;stroke:rgb(75.686275%,70.980392%,61.568627%);stroke-opacity:1;stroke-miterlimit:10;" d="M 212.558594 -9 L 213.554688 -7.871094 L 215.863281 -6.15625 L 219.519531 -4.921875 L 223.109375 -2.394531 L 225.882813 0.8125 L 229.890625 7.132813 L 233.222656 14.292969 L 235.832031 23.433594 L 236.484375 27.679688 L 235.785156 37.207031 L 234.808594 44.527344 L 231.3125 57.039063 L 230.121094 66.597656 L 231.3125 71.359375 L 232.824219 75.183594 L 234.109375 77 L 251.816406 89.863281 L 258.925781 94.496094 L 264 97.078125 "/>
<path style="fill:none;stroke-width:6;stroke-linecap:round;stroke-linejoin:round;stroke:rgb(100%,100%,100%);stroke-opacity:1;stroke-miterlimit:10;" d="M 212.558594 -9 L 213.554688 -7.871094 L 215.863281 -6.15625 L 219.519531 -4.921875 L 223.109375 -2.394531 L 225.882813 0.8125 L 229.890625 7.132813 L 233.222656 14.292969 L 235.832031 23.433594 L 236.484375 27.679688 L 235.785156 37.207031 L 234.808594 44.527344 L 231.3125 57.039063 L 230.121094 66.597656 L 231.3125 71.359375 L 232.824219 75.183594 L 234.109375 77 L 251.816406 89.863281 L 258.925781 94.496094 L 264 97.078125 "/>
</g>
</svg>

