<?xml version="1.0" encoding="UTF-8"?>
<svg xmlns="http://www.w3.org/2000/svg" xmlns:xlink="http://www.w3.org/1999/xlink" width="256pt" height="256pt" viewBox="0 0 256 256" version="1.1">
<g id="surface2">
<rect x="0" y="0" width="256" height="256" style="fill:rgb(94.901961%,93.72549%,91.372549%);fill-opacity:1;stroke:none;"/>
<path style="fill:none;stroke-width:8;stroke-linecap:round;stroke-linejoin:round;stroke:rgb(75.686275%,70.980392%,61.568627%);stroke-opacity:1;stroke-miterlimit:10;" d="M 264 226.988281 L 261.160156 225.074219 L 252.820313 221.664063 L 245.503906 218.914063 L 240.75 216.957031 L 221.222656 210.292969 L 209.359375 206.851563 L 162.476563 193.742188 L 155.277344 192.542969 "/>
<path style="fill:none;stroke-width:8;stroke-linecap:round;stroke-linejoin:round;stroke:rgb(75.686275%,70.980392%,61.568627%);stroke-opacity:1;stroke-miterlimit:10;" d="M 222.867188 264 L 225.136719 260.574219 L 228.957031 255.773438 L 235.527344 249.328125 L 238.746094 246.835938 L 243.195313 243.644531 L 247.15625 241.527344 L 250.976563 239.917969 L 260.273438 237.042969 L 264 235.769531 "/>
<path style="fill:none;stroke-width:6;stroke-linecap:round;stroke-linejoin:round;stroke:rgb(100%,100%,100%);stroke-opacity:1;stroke-miterlimit:10;" d="M 264 226.988281 L 261.160156 225.074219 L 252.820313 221.664063 L 245.503906 218.914063 L 240.75 216.957031 L 221.222656 210.292969 L 209.359375 206.851563 L 162.476563 193.742188 L 155.277344 192.542969 "/>
<path style="fill:none;stroke-width:6;stroke-linecap:round;stroke-linejoin:round;stroke:rgb(100%,99.215686%,54.509804%);stroke-opacity:1;stroke-miterlimit:10;" d="M 222.867188 264 L 225.136719 260.574219 L 228.957031 255.773438 L 235.527344 249.328125 L 238.746094 246.835938 L 243.195313 243.644531 L 247.15625 241.527344 L 250.976563 239.917969 L 260.273438 237.042969 L 264 235.769531 "/>
</g>
</svg>

