<?xml version="1.0" encoding="UTF-8"?>
<svg xmlns="http://www.w3.org/2000/svg" xmlns:xlink="http://www.w3.org/1999/xlink" width="256pt" height="256pt" viewBox="0 0 256 256" version="1.1">
<g id="surface2">
<rect x="0" y="0" width="256" height="256" style="fill:rgb(94.901961%,93.72549%,91.372549%);fill-opacity:1;stroke:none;"/>
<path style="fill:none;stroke-width:1;stroke-linecap:round;stroke-linejoin:round;stroke:rgb(100%,100%,100%);stroke-opacity:1;stroke-dasharray:2,3;stroke-miterlimit:10;" d="M 257 71.246094 L 253.988281 72.980469 L 248.199219 73.019531 L 246.289063 74.984375 L 240.492188 77.359375 L 238.128906 83.078125 L 234.402344 87.570313 L 233.4375 90.488281 L 232.550781 91.222656 L 233.3125 95.304688 L 230.640625 96.5625 L 229.53125 101.101563 L 227.742188 104.28125 L 226.652344 105.3125 L 224.316406 110.320313 L 223.105469 114.167969 L 221.5625 117.347656 L 217.449219 118.640625 L 216.566406 122.21875 L 214.261719 124.921875 L 213.5625 128.875 L 209.660156 129.335938 L 208.246094 130.0625 L 206.765625 133.898438 L 206.433594 138.046875 L 203.140625 138.679688 L 200.8125 139.785156 L 198.398438 141.421875 L 196.449219 141.648438 L 193.519531 142.742188 L 190.875 144.6875 L 189.257813 144.144531 L 188.269531 145.089844 L 186.496094 145.230469 L 185.300781 145.832031 L 183.5625 149.046875 L 179.652344 150.832031 L 177.007813 152.46875 L 175.570313 152.71875 L 172.496094 154.253906 L 171.957031 156.949219 L 170.496094 159.28125 L 165.351563 160.898438 L 164.152344 161.90625 L 164.0625 164.914063 L 162.449219 166.921875 L 158.0625 169.746094 L 154.632813 168.53125 L 151.632813 170.496094 L 148.695313 172.574219 L 148.410156 174.707031 L 147.488281 175.824219 L 147.367188 177.113281 L 148.90625 178.175781 L 150.316406 180.496094 L 151.433594 183.457031 L 149.929688 185.691406 L 148.246094 189.128906 L 146.257813 189.9375 L 144.921875 192.304688 L 143.402344 192.410156 L 141.964844 193.804688 L 138.53125 193.515625 L 135.882813 194.054688 "/>
</g>
</svg>

