<?xml version="1.0" encoding="UTF-8"?>
<svg xmlns="http://www.w3.org/2000/svg" xmlns:xlink="http://www.w3.org/1999/xlink" width="256pt" height="256pt" viewBox="0 0 256 256" version="1.1">
<g id="surface2">
<rect x="0" y="0" width="256" height="256" style="fill:rgb(94.901961%,93.72549%,91.372549%);fill-opacity:1;stroke:none;"/>
<path style=" stroke:none;fill-rule:evenodd;fill:rgb(87.058824%,81.960784%,67.058824%);fill-opacity:1;" d="M 86.949219 260 L 108.722656 260 L 107.539063 244.589844 L 102.507813 240.0625 L 95.21875 239.226563 L 90.527344 240.984375 L 88.011719 244.171875 L 87.675781 242.074219 L 85.414063 242.496094 Z M 86.949219 260 "/>
<path style=" stroke:none;fill-rule:evenodd;fill:rgb(87.058824%,81.960784%,67.058824%);fill-opacity:1;" d="M 91.089844 260 L 104.910156 260 L 104.183594 247.855469 L 90.105469 248.613281 Z M 91.089844 260 "/>
<path style="fill:none;stroke-width:2;stroke-linecap:round;stroke-linejoin:round;stroke:rgb(60%,70.196078%,80%);stroke-opacity:1;stroke-miterlimit:10;" d="M -3 116.042969 L 1.285156 115.351563 L 7.085938 113.953125 L 17.082031 114.152344 L 24.882813 114.152344 L 32.285156 116.355469 L 37.484375 118.351563 L 46.882813 118.152344 L 58.285156 121.351563 L 69.082031 123.75 L 73.085938 125.355469 L 77.085938 130.152344 L 80.085938 135.351563 L 79.285156 139.152344 L 78.085938 145.753906 L 79.085938 150.550781 L 80.085938 160.75 L 78.683594 165.554688 L 79.285156 173.152344 L 79.285156 177.351563 L 80.285156 181.953125 L 83.683594 182.75 L 90.882813 183.351563 L 96.484375 185.953125 L 100.285156 191.152344 L 109.285156 193.152344 L 117.085938 195.953125 L 124.085938 199.152344 L 131.484375 198.351563 L 136.882813 202.152344 L 144.285156 207.953125 L 150.683594 212.953125 L 158.085938 219.550781 L 167.285156 228.152344 L 172.484375 237.152344 L 178.882813 240.753906 L 184.285156 245.953125 L 183.683594 250.554688 L 186.082031 254.953125 L 187.695313 258 "/>
<path style="fill:none;stroke-width:1;stroke-linecap:round;stroke-linejoin:round;stroke:rgb(100%,100%,100%);stroke-opacity:1;stroke-dasharray:2,3;stroke-miterlimit:10;" d="M 42.445313 249.257813 L 43.769531 257 "/>
<path style="fill:none;stroke-width:1;stroke-linecap:round;stroke-linejoin:round;stroke:rgb(100%,100%,100%);stroke-opacity:1;stroke-dasharray:2,3;stroke-miterlimit:10;" d="M 65.445313 235.058594 L 71.847656 238.65625 L 75.246094 240.257813 L 78.644531 241.257813 L 83.847656 242.257813 "/>
<path style="fill:none;stroke-width:1;stroke-linecap:round;stroke-linejoin:round;stroke:rgb(100%,100%,100%);stroke-opacity:1;stroke-dasharray:2,3;stroke-miterlimit:10;" d="M 170.265625 257 L 169.445313 256.058594 L 163.046875 250.058594 L 159.246094 247.457031 L 155.246094 246.257813 L 146.449219 244.660156 L 141.847656 243.65625 L 137.246094 241.660156 L 133.648438 240.460938 L 130.046875 239.859375 L 122.046875 239.457031 L 115.648438 238.257813 L 98.847656 232.65625 L 94.445313 232.460938 L 84.648438 234.859375 L 77.847656 236.058594 L 71.648438 236.660156 L 69.046875 236.457031 L 65.445313 235.058594 L 58.046875 231.457031 L 53.898438 229.15625 "/>
<path style="fill:none;stroke-width:8;stroke-linecap:round;stroke-linejoin:round;stroke:rgb(75.686275%,70.980392%,61.568627%);stroke-opacity:1;stroke-miterlimit:10;" d="M 16.816406 250.117188 L 17.046875 251.460938 L 16.246094 253.457031 "/>
<path style="fill:none;stroke-width:8;stroke-linecap:round;stroke-linejoin:round;stroke:rgb(75.686275%,70.980392%,61.568627%);stroke-opacity:1;stroke-miterlimit:10;" d="M 16.246094 253.457031 L 17.847656 251.65625 L 19.417969 250.917969 "/>
<path style="fill:none;stroke-width:8;stroke-linecap:round;stroke-linejoin:round;stroke:rgb(75.686275%,70.980392%,61.568627%);stroke-opacity:1;stroke-miterlimit:10;" d="M 53.074219 240.558594 L 52.816406 238.714844 L 53.445313 235.257813 "/>
<path style="fill:none;stroke-width:8;stroke-linecap:round;stroke-linejoin:round;stroke:rgb(75.686275%,70.980392%,61.568627%);stroke-opacity:1;stroke-miterlimit:10;" d="M 19.417969 240.519531 L 16.84375 239.457031 L 15.246094 237.257813 "/>
<path style="fill:none;stroke-width:8;stroke-linecap:round;stroke-linejoin:round;stroke:rgb(75.686275%,70.980392%,61.568627%);stroke-opacity:1;stroke-miterlimit:10;" d="M 15.246094 237.257813 L 15.449219 240.257813 L 15.015625 243.117188 "/>
<path style="fill:none;stroke-width:8;stroke-linecap:round;stroke-linejoin:round;stroke:rgb(75.686275%,70.980392%,61.568627%);stroke-opacity:1;stroke-miterlimit:10;" d="M 56.617188 253.917969 L 55.019531 251.519531 L 55.214844 248.394531 "/>
<path style="fill:none;stroke-width:8;stroke-linecap:round;stroke-linejoin:round;stroke:rgb(75.686275%,70.980392%,61.568627%);stroke-opacity:1;stroke-miterlimit:10;" d="M 50.386719 250.851563 L 53.417969 252.117188 L 56.617188 253.917969 "/>
<path style="fill:none;stroke-width:8;stroke-linecap:round;stroke-linejoin:round;stroke:rgb(75.686275%,70.980392%,61.568627%);stroke-opacity:1;stroke-miterlimit:10;" d="M 53.445313 235.257813 L 52.046875 237.859375 L 50.648438 239.261719 L 48.503906 240.445313 "/>
<path style="fill:none;stroke-width:8;stroke-linecap:round;stroke-linejoin:round;stroke:rgb(75.686275%,70.980392%,61.568627%);stroke-opacity:1;stroke-miterlimit:10;" d="M 45.882813 242.839844 L 43.445313 244.257813 L 40.445313 245.058594 L 36.675781 245.304688 L 32.425781 245.933594 L 28.847656 246.65625 L 27.050781 246.308594 L 25.425781 245.304688 L 24.019531 243.316406 "/>
<path style="fill:none;stroke-width:8;stroke-linecap:round;stroke-linejoin:round;stroke:rgb(75.686275%,70.980392%,61.568627%);stroke-opacity:1;stroke-miterlimit:10;" d="M 26.046875 251.65625 L 29.4375 264 "/>
<path style="fill:none;stroke-width:8;stroke-linecap:round;stroke-linejoin:round;stroke:rgb(75.686275%,70.980392%,61.568627%);stroke-opacity:1;stroke-miterlimit:10;" d="M 19.417969 250.917969 L 22.648438 251.859375 L 26.046875 251.65625 L 29.84375 250.859375 L 34.449219 249.859375 L 39.046875 249.257813 L 42.445313 249.257813 L 45.246094 249.660156 L 48.035156 250.183594 "/>
<path style="fill:none;stroke-width:8;stroke-linecap:round;stroke-linejoin:round;stroke:rgb(75.686275%,70.980392%,61.568627%);stroke-opacity:1;stroke-miterlimit:10;" d="M 19.417969 240.519531 L 16.816406 241.316406 L 15.015625 243.117188 L 14.617188 245.71875 L 15.21875 248.316406 L 16.816406 250.117188 L 19.417969 250.917969 L 22.015625 250.320313 L 23.617188 248.519531 L 24.617188 245.917969 L 24.019531 243.316406 L 22.214844 241.316406 L 19.417969 240.519531 "/>
<path style="fill:none;stroke-width:8;stroke-linecap:round;stroke-linejoin:round;stroke:rgb(75.686275%,70.980392%,61.568627%);stroke-opacity:1;stroke-miterlimit:10;" d="M 67.003906 264 L 64.21875 260.515625 L 61.214844 257.519531 L 56.617188 253.917969 "/>
<path style="fill:none;stroke-width:8;stroke-linecap:round;stroke-linejoin:round;stroke:rgb(75.686275%,70.980392%,61.568627%);stroke-opacity:1;stroke-miterlimit:10;" d="M 50.386719 250.851563 L 51.769531 250.75 L 53.089844 250.289063 L 54.304688 249.457031 L 55.214844 248.394531 L 55.757813 247.316406 L 56.042969 246.179688 L 56.085938 245.101563 L 55.886719 243.9375 L 55.515625 242.988281 L 54.828125 241.941406 L 54 241.140625 L 53.074219 240.558594 L 51.90625 240.136719 L 50.882813 240 L 49.722656 240.078125 L 48.503906 240.445313 L 47.53125 240.988281 L 46.652344 241.761719 L 45.882813 242.839844 L 45.402344 244.054688 L 45.285156 246.207031 L 45.605469 247.417969 L 46.152344 248.457031 L 47.023438 249.464844 L 48.035156 250.183594 L 49.011719 250.605469 L 50.386719 250.851563 "/>
<path style="fill:none;stroke-width:8;stroke-linecap:round;stroke-linejoin:round;stroke:rgb(75.686275%,70.980392%,61.568627%);stroke-opacity:1;stroke-miterlimit:10;" d="M 15.246094 237.257813 L 14.464844 234.65625 L 8.367188 185.691406 L 8.261719 183.300781 L 8.296875 181.15625 "/>
<path style="fill:none;stroke-width:8;stroke-linecap:round;stroke-linejoin:round;stroke:rgb(75.686275%,70.980392%,61.568627%);stroke-opacity:1;stroke-miterlimit:10;" d="M 47.316406 175.082031 L 53.898438 229.15625 L 54.214844 231.75 L 53.445313 235.257813 "/>
<path style="fill:none;stroke-width:8;stroke-linecap:round;stroke-linejoin:round;stroke:rgb(75.686275%,70.980392%,61.568627%);stroke-opacity:1;stroke-miterlimit:10;" d="M 7.390625 264 L 8.449219 262.257813 L 12.246094 257.457031 L 16.246094 253.457031 "/>
<path style="fill:none;stroke-width:8;stroke-linecap:round;stroke-linejoin:round;stroke:rgb(75.686275%,70.980392%,61.568627%);stroke-opacity:1;stroke-miterlimit:10;" d="M 242.230469 195.539063 L 254.832031 195.140625 L 258.136719 195.238281 L 260.3125 196.125 L 263.425781 197.246094 L 264 197.4375 "/>
<path style="fill:none;stroke-width:8;stroke-linecap:round;stroke-linejoin:round;stroke:rgb(75.686275%,70.980392%,61.568627%);stroke-opacity:1;stroke-miterlimit:10;" d="M 99.683594 78.554688 L 103.683594 75.753906 L 107.683594 74.953125 L 113.683594 75.351563 "/>
<path style="fill:none;stroke-width:8;stroke-linecap:round;stroke-linejoin:round;stroke:rgb(75.686275%,70.980392%,61.568627%);stroke-opacity:1;stroke-miterlimit:10;" d="M -9 40.011719 L 8.402344 36.964844 "/>
<path style="fill:none;stroke-width:8;stroke-linecap:round;stroke-linejoin:round;stroke:rgb(75.686275%,70.980392%,61.568627%);stroke-opacity:1;stroke-miterlimit:10;" d="M 32.386719 176.960938 L 38.058594 166.027344 L 46.214844 151.089844 "/>
<path style="fill:none;stroke-width:8;stroke-linecap:round;stroke-linejoin:round;stroke:rgb(75.686275%,70.980392%,61.568627%);stroke-opacity:1;stroke-miterlimit:10;" d="M 182.683594 128.753906 L 182.683594 123.953125 L 183.285156 119.355469 L 185.082031 114.351563 L 191.683594 101.152344 L 192.886719 97.554688 L 193.285156 94.554688 "/>
<path style="fill:none;stroke-width:8;stroke-linecap:round;stroke-linejoin:round;stroke:rgb(75.686275%,70.980392%,61.568627%);stroke-opacity:1;stroke-miterlimit:10;" d="M 160.117188 -9 L 157.484375 1.953125 "/>
<path style="fill:none;stroke-width:8;stroke-linecap:round;stroke-linejoin:round;stroke:rgb(75.686275%,70.980392%,61.568627%);stroke-opacity:1;stroke-miterlimit:10;" d="M 239.90625 203.789063 L 198.128906 191.882813 L 193.484375 189.550781 L 190.484375 186.753906 L 186.484375 181.355469 L 185.683594 178.953125 L 185.683594 176.75 "/>
<path style="fill:none;stroke-width:8;stroke-linecap:round;stroke-linejoin:round;stroke:rgb(75.686275%,70.980392%,61.568627%);stroke-opacity:1;stroke-miterlimit:10;" d="M 247.472656 26.609375 L 240.484375 26.953125 L 234.285156 28.152344 L 226.683594 30.554688 L 222.683594 30.554688 L 219.082031 29.550781 L 213.683594 26.953125 L 208.882813 26.355469 L 204.085938 27.753906 L 199.886719 30.753906 L 198.082031 35.152344 L 197.484375 39.75 L 198.285156 44.152344 L 201.484375 51.152344 "/>
<path style="fill:none;stroke-width:8;stroke-linecap:round;stroke-linejoin:round;stroke:rgb(75.686275%,70.980392%,61.568627%);stroke-opacity:1;stroke-miterlimit:10;" d="M 8.296875 181.15625 L 7.902344 158.253906 L 7.730469 156 L 7.179688 153.847656 L 6.28125 151.871094 L 5.148438 150.296875 L 3.578125 148.851563 L 1.855469 147.855469 L -0.242188 147.257813 L -2.457031 147.085938 L -4.515625 147.199219 L -6.621094 147.628906 L -9 148.351563 "/>
<path style="fill:none;stroke-width:8;stroke-linecap:round;stroke-linejoin:round;stroke:rgb(75.686275%,70.980392%,61.568627%);stroke-opacity:1;stroke-miterlimit:10;" d="M 103.664063 164.855469 L 96.664063 166.65625 L 52.652344 174.289063 L 47.316406 175.082031 L 41.882813 175.796875 L 32.386719 176.960938 L 29.421875 177.324219 L 24.230469 178.019531 L 13.472656 179.550781 L 11.699219 179.839844 L 9.984375 180.367188 L 8.296875 181.15625 "/>
<path style="fill:none;stroke-width:8;stroke-linecap:round;stroke-linejoin:round;stroke:rgb(75.686275%,70.980392%,61.568627%);stroke-opacity:1;stroke-miterlimit:10;" d="M 39.191406 109.660156 L 43.683594 74.953125 L 49.886719 24.554688 L 51.683594 10.351563 "/>
<path style="fill:none;stroke-width:8;stroke-linecap:round;stroke-linejoin:round;stroke:rgb(75.686275%,70.980392%,61.568627%);stroke-opacity:1;stroke-miterlimit:10;" d="M 75.792969 124.0625 L 82.261719 112.445313 L 99.683594 78.554688 L 98.484375 73.753906 L 98.285156 67.953125 L 100.285156 57.351563 L 103.285156 47.753906 L 105.085938 39.953125 L 106.484375 27.351563 "/>
<path style="fill:none;stroke-width:8;stroke-linecap:round;stroke-linejoin:round;stroke:rgb(75.686275%,70.980392%,61.568627%);stroke-opacity:1;stroke-miterlimit:10;" d="M 190.683594 134.152344 L 188.285156 131.550781 L 185.683594 129.554688 L 182.683594 128.753906 L 168.285156 130.953125 L 163.285156 131.351563 L 158.882813 130.152344 L 144.085938 124.152344 L 138.484375 123.351563 L 133.082031 123.953125 L 93.285156 130.753906 L 88.484375 132.351563 L 82.988281 135.257813 "/>
<path style="fill:none;stroke-width:8;stroke-linecap:round;stroke-linejoin:round;stroke:rgb(75.686275%,70.980392%,61.568627%);stroke-opacity:1;stroke-miterlimit:10;" d="M 8.296875 181.15625 L 6.886719 182.195313 L 5.457031 183.542969 L 4.015625 185.167969 L -4.4375 195.695313 L -9 201.523438 "/>
<path style="fill:none;stroke-width:8;stroke-linecap:round;stroke-linejoin:round;stroke:rgb(75.686275%,70.980392%,61.568627%);stroke-opacity:1;stroke-miterlimit:10;" d="M 61.109375 -9 L 33.003906 -4.636719 L -2.796875 0.765625 L -9 2.644531 "/>
<path style="fill:none;stroke-width:8;stroke-linecap:round;stroke-linejoin:round;stroke:rgb(75.686275%,70.980392%,61.568627%);stroke-opacity:1;stroke-miterlimit:10;" d="M 264 246.785156 L 260.507813 248.191406 L 229.707031 260.191406 L 223.726563 261.285156 "/>
<path style="fill:none;stroke-width:8;stroke-linecap:round;stroke-linejoin:round;stroke:rgb(75.686275%,70.980392%,61.568627%);stroke-opacity:1;stroke-miterlimit:10;" d="M 223.550781 264 L 223.726563 261.285156 L 229.707031 240.191406 L 239.90625 203.789063 "/>
<path style="fill:none;stroke-width:8;stroke-linecap:round;stroke-linejoin:round;stroke:rgb(75.686275%,70.980392%,61.568627%);stroke-opacity:1;stroke-miterlimit:10;" d="M 239.90625 203.789063 L 242.230469 195.539063 L 246.910156 178.390625 L 249.484375 164.792969 L 250.316406 155.578125 L 250.699219 148.238281 L 250.644531 141.0625 L 250.148438 130.964844 L 248.546875 109.722656 L 247.609375 101.503906 L 246.726563 88.976563 L 246.175781 72.035156 L 246.175781 60.007813 L 247.472656 26.609375 L 249.375 9.132813 L 252.066406 -9 "/>
<path style="fill:none;stroke-width:8;stroke-linecap:round;stroke-linejoin:round;stroke:rgb(75.686275%,70.980392%,61.568627%);stroke-opacity:1;stroke-miterlimit:10;" d="M -9 69.558594 L -7.410156 78.859375 L -6.410156 83.261719 L -4.609375 87.460938 L -1.808594 91.261719 L 2.789063 95.257813 L 7.992188 98.859375 L 13.390625 101.460938 L 39.191406 109.660156 L 65.390625 117.859375 L 70.589844 120.261719 L 75.792969 124.0625 L 82.988281 135.257813 L 88.792969 145.261719 L 93.992188 153.261719 L 103.664063 164.855469 L 112.992188 174.660156 L 117.390625 179.261719 L 122.792969 183.460938 L 134.390625 190.261719 L 142.992188 196.0625 L 156.191406 205.660156 L 163.191406 211.261719 L 169.191406 217.261719 L 198.191406 251.660156 L 201.726563 254.882813 L 206.527344 257.484375 L 211.992188 259.460938 L 220.191406 261.257813 L 223.726563 261.285156 "/>
<path style="fill:none;stroke-width:6;stroke-linecap:round;stroke-linejoin:round;stroke:rgb(100%,100%,100%);stroke-opacity:1;stroke-miterlimit:10;" d="M 16.816406 250.117188 L 17.046875 251.460938 L 16.246094 253.457031 "/>
<path style="fill:none;stroke-width:6;stroke-linecap:round;stroke-linejoin:round;stroke:rgb(100%,100%,100%);stroke-opacity:1;stroke-miterlimit:10;" d="M 16.246094 253.457031 L 17.847656 251.65625 L 19.417969 250.917969 "/>
<path style="fill:none;stroke-width:6;stroke-linecap:round;stroke-linejoin:round;stroke:rgb(100%,100%,100%);stroke-opacity:1;stroke-miterlimit:10;" d="M 53.074219 240.558594 L 52.816406 238.714844 L 53.445313 235.257813 "/>
<path style="fill:none;stroke-width:6;stroke-linecap:round;stroke-linejoin:round;stroke:rgb(100%,100%,100%);stroke-opacity:1;stroke-miterlimit:10;" d="M 19.417969 240.519531 L 16.84375 239.457031 L 15.246094 237.257813 "/>
<path style="fill:none;stroke-width:6;stroke-linecap:round;stroke-linejoin:round;stroke:rgb(100%,100%,100%);stroke-opacity:1;stroke-miterlimit:10;" d="M 15.246094 237.257813 L 15.449219 240.257813 L 15.015625 243.117188 "/>
<path style="fill:none;stroke-width:6;stroke-linecap:round;stroke-linejoin:round;stroke:rgb(100%,100%,100%);stroke-opacity:1;stroke-miterlimit:10;" d="M 56.617188 253.917969 L 55.019531 251.519531 L 55.214844 248.394531 "/>
<path style="fill:none;stroke-width:6;stroke-linecap:round;stroke-linejoin:round;stroke:rgb(100%,100%,100%);stroke-opacity:1;stroke-miterlimit:10;" d="M 50.386719 250.851563 L 53.417969 252.117188 L 56.617188 253.917969 "/>
<path style="fill:none;stroke-width:6;stroke-linecap:round;stroke-linejoin:round;stroke:rgb(100%,100%,100%);stroke-opacity:1;stroke-miterlimit:10;" d="M 53.445313 235.257813 L 52.046875 237.859375 L 50.648438 239.261719 L 48.503906 240.445313 "/>
<path style="fill:none;stroke-width:6;stroke-linecap:round;stroke-linejoin:round;stroke:rgb(100%,100%,100%);stroke-opacity:1;stroke-miterlimit:10;" d="M 45.882813 242.839844 L 43.445313 244.257813 L 40.445313 245.058594 L 36.675781 245.304688 L 32.425781 245.933594 L 28.847656 246.65625 L 27.050781 246.308594 L 25.425781 245.304688 L 24.019531 243.316406 "/>
<path style="fill:none;stroke-width:6;stroke-linecap:round;stroke-linejoin:round;stroke:rgb(100%,100%,100%);stroke-opacity:1;stroke-miterlimit:10;" d="M 26.046875 251.65625 L 29.4375 264 "/>
<path style="fill:none;stroke-width:6;stroke-linecap:round;stroke-linejoin:round;stroke:rgb(100%,100%,100%);stroke-opacity:1;stroke-miterlimit:10;" d="M 19.417969 250.917969 L 22.648438 251.859375 L 26.046875 251.65625 L 29.84375 250.859375 L 34.449219 249.859375 L 39.046875 249.257813 L 42.445313 249.257813 L 45.246094 249.660156 L 48.035156 250.183594 "/>
<path style="fill:none;stroke-width:6;stroke-linecap:round;stroke-linejoin:round;stroke:rgb(100%,100%,100%);stroke-opacity:1;stroke-miterlimit:10;" d="M 19.417969 240.519531 L 16.816406 241.316406 L 15.015625 243.117188 L 14.617188 245.71875 L 15.21875 248.316406 L 16.816406 250.117188 L 19.417969 250.917969 L 22.015625 250.320313 L 23.617188 248.519531 L 24.617188 245.917969 L 24.019531 243.316406 L 22.214844 241.316406 L 19.417969 240.519531 "/>
<path style="fill:none;stroke-width:6;stroke-linecap:round;stroke-linejoin:round;stroke:rgb(100%,100%,100%);stroke-opacity:1;stroke-miterlimit:10;" d="M 67.003906 264 L 64.21875 260.515625 L 61.214844 257.519531 L 56.617188 253.917969 "/>
<path style="fill:none;stroke-width:6;stroke-linecap:round;stroke-linejoin:round;stroke:rgb(100%,100%,100%);stroke-opacity:1;stroke-miterlimit:10;" d="M 50.386719 250.851563 L 51.769531 250.75 L 53.089844 250.289063 L 54.304688 249.457031 L 55.214844 248.394531 L 55.757813 247.316406 L 56.042969 246.179688 L 56.085938 245.101563 L 55.886719 243.9375 L 55.515625 242.988281 L 54.828125 241.941406 L 54 241.140625 L 53.074219 240.558594 L 51.90625 240.136719 L 50.882813 240 L 49.722656 240.078125 L 48.503906 240.445313 L 47.53125 240.988281 L 46.652344 241.761719 L 45.882813 242.839844 L 45.402344 244.054688 L 45.285156 246.207031 L 45.605469 247.417969 L 46.152344 248.457031 L 47.023438 249.464844 L 48.035156 250.183594 L 49.011719 250.605469 L 50.386719 250.851563 "/>
<path style="fill:none;stroke-width:6;stroke-linecap:round;stroke-linejoin:round;stroke:rgb(100%,100%,100%);stroke-opacity:1;stroke-miterlimit:10;" d="M 15.246094 237.257813 L 14.464844 234.65625 L 8.367188 185.691406 L 8.261719 183.300781 L 8.296875 181.15625 "/>
<path style="fill:none;stroke-width:6;stroke-linecap:round;stroke-linejoin:round;stroke:rgb(100%,100%,100%);stroke-opacity:1;stroke-miterlimit:10;" d="M 47.316406 175.082031 L 53.898438 229.15625 L 54.214844 231.75 L 53.445313 235.257813 "/>
<path style="fill:none;stroke-width:6;stroke-linecap:round;stroke-linejoin:round;stroke:rgb(100%,100%,100%);stroke-opacity:1;stroke-miterlimit:10;" d="M 7.390625 264 L 8.449219 262.257813 L 12.246094 257.457031 L 16.246094 253.457031 "/>
<path style="fill:none;stroke-width:6;stroke-linecap:round;stroke-linejoin:round;stroke:rgb(100%,100%,100%);stroke-opacity:1;stroke-miterlimit:10;" d="M 242.230469 195.539063 L 254.832031 195.140625 L 258.136719 195.238281 L 260.3125 196.125 L 263.425781 197.246094 L 264 197.4375 "/>
<path style="fill:none;stroke-width:6;stroke-linecap:round;stroke-linejoin:round;stroke:rgb(100%,100%,100%);stroke-opacity:1;stroke-miterlimit:10;" d="M 99.683594 78.554688 L 103.683594 75.753906 L 107.683594 74.953125 L 113.683594 75.351563 "/>
<path style="fill:none;stroke-width:6;stroke-linecap:round;stroke-linejoin:round;stroke:rgb(100%,100%,100%);stroke-opacity:1;stroke-miterlimit:10;" d="M -9 40.011719 L 8.402344 36.964844 "/>
<path style="fill:none;stroke-width:6;stroke-linecap:round;stroke-linejoin:round;stroke:rgb(100%,100%,100%);stroke-opacity:1;stroke-miterlimit:10;" d="M 32.386719 176.960938 L 38.058594 166.027344 L 46.214844 151.089844 "/>
<path style="fill:none;stroke-width:6;stroke-linecap:round;stroke-linejoin:round;stroke:rgb(100%,100%,100%);stroke-opacity:1;stroke-miterlimit:10;" d="M 182.683594 128.753906 L 182.683594 123.953125 L 183.285156 119.355469 L 185.082031 114.351563 L 191.683594 101.152344 L 192.886719 97.554688 L 193.285156 94.554688 "/>
<path style="fill:none;stroke-width:6;stroke-linecap:round;stroke-linejoin:round;stroke:rgb(100%,100%,100%);stroke-opacity:1;stroke-miterlimit:10;" d="M 160.117188 -9 L 157.484375 1.953125 "/>
<path style="fill:none;stroke-width:6;stroke-linecap:round;stroke-linejoin:round;stroke:rgb(100%,100%,100%);stroke-opacity:1;stroke-miterlimit:10;" d="M 239.90625 203.789063 L 198.128906 191.882813 L 193.484375 189.550781 L 190.484375 186.753906 L 186.484375 181.355469 L 185.683594 178.953125 L 185.683594 176.75 "/>
<path style="fill:none;stroke-width:6;stroke-linecap:round;stroke-linejoin:round;stroke:rgb(100%,100%,100%);stroke-opacity:1;stroke-miterlimit:10;" d="M 247.472656 26.609375 L 240.484375 26.953125 L 234.285156 28.152344 L 226.683594 30.554688 L 222.683594 30.554688 L 219.082031 29.550781 L 213.683594 26.953125 L 208.882813 26.355469 L 204.085938 27.753906 L 199.886719 30.753906 L 198.082031 35.152344 L 197.484375 39.75 L 198.285156 44.152344 L 201.484375 51.152344 "/>
<path style="fill:none;stroke-width:6;stroke-linecap:round;stroke-linejoin:round;stroke:rgb(100%,100%,100%);stroke-opacity:1;stroke-miterlimit:10;" d="M 8.296875 181.15625 L 7.902344 158.253906 L 7.730469 156 L 7.179688 153.847656 L 6.28125 151.871094 L 5.148438 150.296875 L 3.578125 148.851563 L 1.855469 147.855469 L -0.242188 147.257813 L -2.457031 147.085938 L -4.515625 147.199219 L -6.621094 147.628906 L -9 148.351563 "/>
<path style="fill:none;stroke-width:6;stroke-linecap:round;stroke-linejoin:round;stroke:rgb(100%,100%,100%);stroke-opacity:1;stroke-miterlimit:10;" d="M 103.664063 164.855469 L 96.664063 166.65625 L 52.652344 174.289063 L 47.316406 175.082031 L 41.882813 175.796875 L 32.386719 176.960938 L 29.421875 177.324219 L 24.230469 178.019531 L 13.472656 179.550781 L 11.699219 179.839844 L 9.984375 180.367188 L 8.296875 181.15625 "/>
<path style="fill:none;stroke-width:6;stroke-linecap:round;stroke-linejoin:round;stroke:rgb(100%,100%,100%);stroke-opacity:1;stroke-miterlimit:10;" d="M 39.191406 109.660156 L 43.683594 74.953125 L 49.886719 24.554688 L 51.683594 10.351563 "/>
<path style="fill:none;stroke-width:6;stroke-linecap:round;stroke-linejoin:round;stroke:rgb(100%,100%,100%);stroke-opacity:1;stroke-miterlimit:10;" d="M 75.792969 124.0625 L 82.261719 112.445313 L 99.683594 78.554688 L 98.484375 73.753906 L 98.285156 67.953125 L 100.285156 57.351563 L 103.285156 47.753906 L 105.085938 39.953125 L 106.484375 27.351563 "/>
<path style="fill:none;stroke-width:6;stroke-linecap:round;stroke-linejoin:round;stroke:rgb(100%,100%,100%);stroke-opacity:1;stroke-miterlimit:10;" d="M 190.683594 134.152344 L 188.285156 131.550781 L 185.683594 129.554688 L 182.683594 128.753906 L 168.285156 130.953125 L 163.285156 131.351563 L 158.882813 130.152344 L 144.085938 124.152344 L 138.484375 123.351563 L 133.082031 123.953125 L 93.285156 130.753906 L 88.484375 132.351563 L 82.988281 135.257813 "/>
<path style="fill:none;stroke-width:6;stroke-linecap:round;stroke-linejoin:round;stroke:rgb(100%,100%,100%);stroke-opacity:1;stroke-miterlimit:10;" d="M 8.296875 181.15625 L 6.886719 182.195313 L 5.457031 183.542969 L 4.015625 185.167969 L -4.4375 195.695313 L -9 201.523438 "/>
<path style="fill:none;stroke-width:6;stroke-linecap:round;stroke-linejoin:round;stroke:rgb(100%,100%,100%);stroke-opacity:1;stroke-miterlimit:10;" d="M 61.109375 -9 L 33.003906 -4.636719 L -2.796875 0.765625 L -9 2.644531 "/>
<path style="fill:none;stroke-width:6;stroke-linecap:round;stroke-linejoin:round;stroke:rgb(100%,100%,100%);stroke-opacity:1;stroke-miterlimit:10;" d="M 264 246.785156 L 260.507813 248.191406 L 229.707031 260.191406 L 223.726563 261.285156 "/>
<path style="fill:none;stroke-width:6;stroke-linecap:round;stroke-linejoin:round;stroke:rgb(100%,99.215686%,54.509804%);stroke-opacity:1;stroke-miterlimit:10;" d="M 223.550781 264 L 223.726563 261.285156 L 229.707031 240.191406 L 239.90625 203.789063 "/>
<path style="fill:none;stroke-width:6;stroke-linecap:round;stroke-linejoin:round;stroke:rgb(100%,99.215686%,54.509804%);stroke-opacity:1;stroke-miterlimit:10;" d="M 239.90625 203.789063 L 242.230469 195.539063 L 246.910156 178.390625 L 249.484375 164.792969 L 250.316406 155.578125 L 250.699219 148.238281 L 250.644531 141.0625 L 250.148438 130.964844 L 248.546875 109.722656 L 247.609375 101.503906 L 246.726563 88.976563 L 246.175781 72.035156 L 246.175781 60.007813 L 247.472656 26.609375 L 249.375 9.132813 L 252.066406 -9 "/>
<path style="fill:none;stroke-width:6;stroke-linecap:round;stroke-linejoin:round;stroke:rgb(100%,99.215686%,54.509804%);stroke-opacity:1;stroke-miterlimit:10;" d="M -9 69.558594 L -7.410156 78.859375 L -6.410156 83.261719 L -4.609375 87.460938 L -1.808594 91.261719 L 2.789063 95.257813 L 7.992188 98.859375 L 13.390625 101.460938 L 39.191406 109.660156 L 65.390625 117.859375 L 70.589844 120.261719 L 75.792969 124.0625 L 82.988281 135.257813 L 88.792969 145.261719 L 93.992188 153.261719 L 103.664063 164.855469 L 112.992188 174.660156 L 117.390625 179.261719 L 122.792969 183.460938 L 134.390625 190.261719 L 142.992188 196.0625 L 156.191406 205.660156 L 163.191406 211.261719 L 169.191406 217.261719 L 198.191406 251.660156 L 201.726563 254.882813 L 206.527344 257.484375 L 211.992188 259.460938 L 220.191406 261.257813 L 223.726563 261.285156 "/>
<path style="fill:none;stroke-width:3;stroke-linecap:round;stroke-linejoin:round;stroke:rgb(100%,100%,100%);stroke-opacity:1;stroke-miterlimit:10;" d="M 81.519531 138.507813 L 83.363281 137.382813 L 82.519531 136.023438 L 83.285156 135.554688 L 84.628906 137.742188 L 81.691406 139.539063 C 81.230469 139.371094 80.820313 139.132813 80.457031 138.820313 C 80.089844 138.515625 79.773438 138.140625 79.503906 137.695313 C 78.910156 136.734375 78.761719 135.792969 79.066406 134.867188 C 79.367188 133.953125 80.070313 133.148438 81.175781 132.460938 C 82.300781 131.785156 83.335938 131.523438 84.285156 131.679688 C 85.242188 131.835938 86.019531 132.394531 86.613281 133.351563 C 86.851563 133.75 87.027344 134.15625 87.144531 134.585938 C 87.257813 135.023438 87.300781 135.460938 87.269531 135.898438 L 86.285156 136.492188 C 86.378906 136.011719 86.394531 135.554688 86.332031 135.117188 C 86.269531 134.679688 86.117188 134.265625 85.878906 133.882813 C 85.429688 133.144531 84.851563 132.726563 84.144531 132.632813 C 83.445313 132.53125 82.632813 132.757813 81.707031 133.320313 C 80.789063 133.894531 80.210938 134.511719 79.972656 135.179688 C 79.742188 135.84375 79.851563 136.546875 80.300781 137.289063 C 80.488281 137.589844 80.679688 137.839844 80.878906 138.039063 C 81.074219 138.234375 81.289063 138.390625 81.519531 138.507813 Z M 87.035156 143.722656 L 86.613281 143.957031 L 84.550781 140.410156 C 83.988281 140.792969 83.632813 141.214844 83.488281 141.675781 C 83.351563 142.144531 83.429688 142.632813 83.722656 143.144531 C 83.898438 143.433594 84.105469 143.695313 84.347656 143.925781 C 84.597656 144.152344 84.871094 144.363281 85.175781 144.550781 L 84.378906 145.019531 C 84.085938 144.808594 83.820313 144.582031 83.582031 144.332031 C 83.339844 144.089844 83.136719 143.820313 82.972656 143.519531 C 82.535156 142.769531 82.429688 142.035156 82.660156 141.316406 C 82.898438 140.597656 83.429688 140 84.253906 139.519531 C 85.105469 139.03125 85.902344 138.847656 86.644531 138.972656 C 87.382813 139.097656 87.957031 139.511719 88.363281 140.207031 C 88.726563 140.839844 88.789063 141.472656 88.550781 142.097656 C 88.308594 142.722656 87.804688 143.261719 87.035156 143.722656 Z M 86.832031 142.800781 C 87.300781 142.519531 87.605469 142.183594 87.753906 141.800781 C 87.898438 141.414063 87.863281 141.027344 87.644531 140.644531 C 87.394531 140.21875 87.054688 139.953125 86.628906 139.847656 C 86.210938 139.734375 85.746094 139.800781 85.238281 140.050781 Z M 91.027344 146.6875 C 91.015625 146.5625 90.988281 146.441406 90.949219 146.328125 C 90.917969 146.210938 90.863281 146.097656 90.792969 145.984375 C 90.519531 145.546875 90.160156 145.3125 89.714844 145.28125 C 89.277344 145.25 88.769531 145.414063 88.199219 145.765625 L 85.496094 147.4375 L 85.011719 146.65625 L 90.121094 143.484375 L 90.605469 144.265625 L 89.808594 144.765625 C 90.214844 144.726563 90.566406 144.78125 90.871094 144.9375 C 91.183594 145.09375 91.453125 145.355469 91.683594 145.71875 C 91.714844 145.773438 91.746094 145.835938 91.777344 145.90625 C 91.816406 145.976563 91.847656 146.054688 91.871094 146.140625 Z M 93.71875 150.984375 C 94.21875 150.910156 94.640625 150.941406 94.984375 151.078125 C 95.335938 151.210938 95.632813 151.453125 95.875 151.796875 C 96.195313 152.265625 96.265625 152.75 96.078125 153.25 C 95.890625 153.75 95.460938 154.234375 94.796875 154.703125 L 91.8125 156.765625 L 91.3125 156.03125 L 94.265625 153.984375 C 94.742188 153.648438 95.039063 153.328125 95.15625 153.015625 C 95.28125 152.710938 95.234375 152.40625 95.015625 152.09375 C 94.753906 151.71875 94.40625 151.515625 93.96875 151.484375 C 93.539063 151.453125 93.085938 151.601563 92.609375 151.9375 L 89.8125 153.875 L 89.3125 153.15625 L 92.265625 151.109375 C 92.742188 150.773438 93.039063 150.453125 93.15625 150.140625 C 93.269531 149.828125 93.222656 149.523438 93.015625 149.21875 C 92.753906 148.835938 92.410156 148.632813 91.984375 148.609375 C 91.554688 148.578125 91.101563 148.730469 90.625 149.0625 L 87.828125 151 L 87.3125 150.265625 L 92.25 146.828125 L 92.765625 147.5625 L 92 148.109375 C 92.414063 148.058594 92.773438 148.101563 93.078125 148.234375 C 93.390625 148.371094 93.65625 148.601563 93.875 148.921875 C 94.101563 149.246094 94.203125 149.578125 94.171875 149.921875 C 94.148438 150.273438 94 150.628906 93.71875 150.984375 Z M 98.535156 156.640625 C 98.230469 156.277344 97.832031 156.121094 97.332031 156.171875 C 96.832031 156.226563 96.304688 156.480469 95.753906 156.9375 C 95.199219 157.398438 94.855469 157.863281 94.722656 158.34375 C 94.585938 158.820313 94.667969 159.242188 94.972656 159.609375 C 95.285156 159.972656 95.683594 160.128906 96.175781 160.078125 C 96.664063 160.023438 97.183594 159.769531 97.738281 159.3125 C 98.289063 158.851563 98.636719 158.382813 98.785156 157.90625 C 98.929688 157.429688 98.847656 157.007813 98.535156 156.640625 Z M 99.175781 156.109375 C 99.675781 156.703125 99.847656 157.34375 99.691406 158.03125 C 99.542969 158.726563 99.089844 159.394531 98.332031 160.03125 C 97.582031 160.65625 96.847656 160.976563 96.128906 161 C 95.417969 161.019531 94.816406 160.734375 94.316406 160.140625 C 93.816406 159.535156 93.636719 158.882813 93.785156 158.1875 C 93.941406 157.5 94.394531 156.84375 95.144531 156.21875 C 95.902344 155.585938 96.636719 155.257813 97.347656 155.234375 C 98.066406 155.214844 98.675781 155.507813 99.175781 156.109375 Z M 102.640625 164.207031 L 99.859375 166.535156 L 99.28125 165.847656 L 102.046875 163.550781 C 102.484375 163.175781 102.742188 162.820313 102.828125 162.488281 C 102.910156 162.15625 102.828125 161.839844 102.578125 161.535156 C 102.273438 161.171875 101.90625 160.988281 101.46875 160.988281 C 101.03125 160.988281 100.585938 161.175781 100.140625 161.550781 L 97.53125 163.738281 L 96.953125 163.050781 L 101.578125 159.191406 L 102.15625 159.878906 L 101.4375 160.488281 C 101.832031 160.417969 102.191406 160.4375 102.515625 160.550781 C 102.847656 160.65625 103.132813 160.855469 103.375 161.144531 C 103.769531 161.625 103.90625 162.121094 103.78125 162.628906 C 103.664063 163.148438 103.285156 163.675781 102.640625 164.207031 Z M 107.378906 167.121094 L 109.738281 164.902344 L 110.347656 165.558594 L 104.269531 171.292969 L 103.660156 170.636719 L 104.316406 170.011719 C 103.917969 170.125 103.558594 170.136719 103.238281 170.042969 C 102.925781 169.957031 102.632813 169.777344 102.363281 169.496094 C 101.902344 169.015625 101.742188 168.425781 101.878906 167.730469 C 102.011719 167.035156 102.429688 166.355469 103.128906 165.699219 C 103.816406 165.054688 104.507813 164.683594 105.207031 164.589844 C 105.902344 164.488281 106.480469 164.675781 106.941406 165.152344 C 107.210938 165.433594 107.378906 165.742188 107.441406 166.074219 C 107.511719 166.398438 107.492188 166.746094 107.378906 167.121094 Z M 103.769531 166.371094 C 103.238281 166.871094 102.910156 167.355469 102.785156 167.824219 C 102.667969 168.300781 102.773438 168.714844 103.097656 169.058594 C 103.417969 169.410156 103.824219 169.542969 104.316406 169.449219 C 104.804688 169.363281 105.316406 169.074219 105.847656 168.574219 C 106.367188 168.074219 106.683594 167.589844 106.800781 167.121094 C 106.914063 166.644531 106.808594 166.226563 106.488281 165.871094 C 106.164063 165.527344 105.757813 165.402344 105.269531 165.496094 C 104.789063 165.582031 104.289063 165.871094 103.769531 166.371094 Z M 112.152344 171.101563 L 111.480469 171.757813 C 111.394531 171.46875 111.285156 171.203125 111.152344 170.960938 C 111.015625 170.722656 110.847656 170.492188 110.652344 170.273438 C 110.339844 169.953125 110.050781 169.765625 109.792969 169.710938 C 109.53125 169.660156 109.296875 169.734375 109.089844 169.929688 C 108.921875 170.085938 108.84375 170.269531 108.855469 170.476563 C 108.875 170.675781 109.003906 170.992188 109.246094 171.429688 L 109.386719 171.695313 C 109.71875 172.257813 109.875 172.730469 109.855469 173.117188 C 109.84375 173.5 109.660156 173.859375 109.308594 174.195313 C 108.902344 174.570313 108.441406 174.726563 107.933594 174.664063 C 107.433594 174.609375 106.9375 174.328125 106.449219 173.820313 C 106.25 173.609375 106.0625 173.371094 105.886719 173.101563 C 105.71875 172.828125 105.558594 172.523438 105.402344 172.179688 L 106.136719 171.492188 C 106.230469 171.859375 106.355469 172.183594 106.511719 172.476563 C 106.667969 172.765625 106.847656 173.027344 107.058594 173.257813 C 107.347656 173.558594 107.628906 173.734375 107.902344 173.789063 C 108.183594 173.851563 108.421875 173.78125 108.621094 173.585938 C 108.816406 173.398438 108.910156 173.1875 108.902344 172.960938 C 108.890625 172.742188 108.738281 172.390625 108.449219 171.914063 L 108.308594 171.632813 C 108.027344 171.15625 107.894531 170.734375 107.917969 170.367188 C 107.9375 170.003906 108.121094 169.660156 108.464844 169.335938 C 108.871094 168.953125 109.308594 168.785156 109.777344 168.835938 C 110.253906 168.878906 110.722656 169.140625 111.183594 169.617188 C 111.410156 169.859375 111.605469 170.101563 111.761719 170.351563 C 111.917969 170.59375 112.046875 170.84375 112.152344 171.101563 Z M 116.46875 178.460938 C 116.550781 178.65625 116.570313 178.917969 116.53125 179.242188 C 116.5 179.5625 116.394531 179.964844 116.21875 180.445313 L 115.375 182.679688 L 114.625 181.945313 L 115.421875 179.820313 C 115.628906 179.277344 115.710938 178.867188 115.671875 178.585938 C 115.640625 178.304688 115.488281 178.03125 115.21875 177.757813 L 114.46875 177.007813 L 112.078125 179.414063 L 111.375 178.726563 L 117.015625 173.039063 L 118.578125 174.585938 C 119.171875 175.171875 119.476563 175.738281 119.5 176.289063 C 119.519531 176.832031 119.253906 177.382813 118.703125 177.945313 C 118.347656 178.296875 117.976563 178.515625 117.59375 178.601563 C 117.207031 178.695313 116.832031 178.648438 116.46875 178.460938 Z M 117.09375 174.351563 L 115.09375 176.367188 L 115.953125 177.226563 C 116.296875 177.5625 116.632813 177.734375 116.96875 177.742188 C 117.3125 177.742188 117.648438 177.578125 117.984375 177.242188 C 118.316406 176.910156 118.476563 176.570313 118.46875 176.226563 C 118.46875 175.882813 118.296875 175.546875 117.953125 175.210938 Z M 121.597656 180.820313 C 121.222656 180.53125 120.792969 180.46875 120.316406 180.632813 C 119.847656 180.789063 119.394531 181.15625 118.957031 181.726563 C 118.527344 182.300781 118.300781 182.832031 118.269531 183.320313 C 118.238281 183.820313 118.410156 184.214844 118.785156 184.507813 C 119.167969 184.789063 119.597656 184.851563 120.066406 184.695313 C 120.535156 184.539063 120.980469 184.171875 121.410156 183.601563 C 121.847656 183.03125 122.082031 182.492188 122.113281 181.992188 C 122.152344 181.492188 121.980469 181.101563 121.597656 180.820313 Z M 122.097656 180.164063 C 122.710938 180.625 123.023438 181.210938 123.035156 181.929688 C 123.054688 182.640625 122.761719 183.382813 122.160156 184.164063 C 121.566406 184.945313 120.917969 185.421875 120.222656 185.601563 C 119.535156 185.777344 118.882813 185.636719 118.269531 185.179688 C 117.652344 184.699219 117.339844 184.101563 117.332031 183.382813 C 117.320313 182.675781 117.613281 181.929688 118.207031 181.148438 C 118.808594 180.367188 119.457031 179.890625 120.144531 179.710938 C 120.832031 179.535156 121.480469 179.6875 122.097656 180.164063 Z M 125.617188 186.253906 C 125 185.890625 124.527344 185.71875 124.195313 185.738281 C 123.859375 185.761719 123.585938 185.957031 123.367188 186.332031 C 123.1875 186.625 123.136719 186.910156 123.210938 187.191406 C 123.28125 187.480469 123.476563 187.714844 123.789063 187.894531 C 124.214844 188.152344 124.652344 188.191406 125.101563 188.003906 C 125.558594 187.816406 125.949219 187.449219 126.273438 186.910156 L 126.382813 186.707031 Z M 127.367188 186.785156 L 125.632813 189.753906 L 124.851563 189.316406 L 125.304688 188.535156 C 124.949219 188.730469 124.59375 188.832031 124.242188 188.832031 C 123.898438 188.832031 123.539063 188.722656 123.164063 188.503906 C 122.683594 188.222656 122.386719 187.847656 122.273438 187.378906 C 122.167969 186.921875 122.265625 186.4375 122.570313 185.925781 C 122.914063 185.34375 123.34375 185.011719 123.867188 184.925781 C 124.386719 184.832031 124.996094 184.988281 125.695313 185.394531 L 126.773438 186.035156 L 126.820313 185.957031 C 127.046875 185.5625 127.109375 185.1875 127.007813 184.832031 C 126.902344 184.480469 126.636719 184.183594 126.210938 183.941406 C 125.949219 183.785156 125.667969 183.671875 125.367188 183.597656 C 125.074219 183.515625 124.765625 183.472656 124.445313 183.472656 L 124.914063 182.691406 C 125.277344 182.734375 125.605469 182.800781 125.898438 182.894531 C 126.1875 182.988281 126.460938 183.113281 126.710938 183.269531 C 127.386719 183.65625 127.78125 184.140625 127.898438 184.722656 C 128.011719 185.308594 127.835938 185.996094 127.367188 186.785156 Z M 132.847656 188.082031 L 134.503906 185.269531 L 135.285156 185.707031 L 131.050781 192.925781 L 130.269531 192.488281 L 130.722656 191.707031 C 130.386719 191.925781 130.050781 192.035156 129.707031 192.035156 C 129.371094 192.042969 129.039063 191.949219 128.707031 191.753906 C 128.132813 191.417969 127.816406 190.898438 127.753906 190.191406 C 127.691406 189.484375 127.898438 188.71875 128.378906 187.894531 C 128.855469 187.082031 129.417969 186.53125 130.066406 186.238281 C 130.710938 185.949219 131.320313 185.96875 131.894531 186.300781 C 132.226563 186.5 132.476563 186.75 132.644531 187.050781 C 132.808594 187.34375 132.878906 187.6875 132.847656 188.082031 Z M 129.175781 188.363281 C 128.808594 189 128.636719 189.5625 128.660156 190.050781 C 128.679688 190.527344 128.894531 190.886719 129.300781 191.128906 C 129.714844 191.367188 130.144531 191.378906 130.582031 191.160156 C 131.019531 190.949219 131.417969 190.527344 131.785156 189.894531 C 132.160156 189.269531 132.332031 188.714844 132.300781 188.222656 C 132.277344 187.722656 132.058594 187.355469 131.644531 187.113281 C 131.238281 186.875 130.816406 186.871094 130.378906 187.097656 C 129.949219 187.316406 129.550781 187.738281 129.175781 188.363281 Z M 129.175781 188.363281 "/>
<path style=" stroke:none;fill-rule:evenodd;fill:rgb(20%,20%,20%);fill-opacity:1;" d="M 81.519531 138.507813 L 83.363281 137.382813 L 82.519531 136.023438 L 83.285156 135.554688 L 84.628906 137.742188 L 81.691406 139.539063 C 81.230469 139.371094 80.820313 139.132813 80.457031 138.820313 C 80.089844 138.515625 79.773438 138.140625 79.503906 137.695313 C 78.910156 136.734375 78.761719 135.792969 79.066406 134.867188 C 79.367188 133.953125 80.070313 133.148438 81.175781 132.460938 C 82.300781 131.785156 83.335938 131.523438 84.285156 131.679688 C 85.242188 131.835938 86.019531 132.394531 86.613281 133.351563 C 86.851563 133.75 87.027344 134.15625 87.144531 134.585938 C 87.257813 135.023438 87.300781 135.460938 87.269531 135.898438 L 86.285156 136.492188 C 86.378906 136.011719 86.394531 135.554688 86.332031 135.117188 C 86.269531 134.679688 86.117188 134.265625 85.878906 133.882813 C 85.429688 133.144531 84.851563 132.726563 84.144531 132.632813 C 83.445313 132.53125 82.632813 132.757813 81.707031 133.320313 C 80.789063 133.894531 80.210938 134.511719 79.972656 135.179688 C 79.742188 135.84375 79.851563 136.546875 80.300781 137.289063 C 80.488281 137.589844 80.679688 137.839844 80.878906 138.039063 C 81.074219 138.234375 81.289063 138.390625 81.519531 138.507813 Z M 87.035156 143.722656 L 86.613281 143.957031 L 84.550781 140.410156 C 83.988281 140.792969 83.632813 141.214844 83.488281 141.675781 C 83.351563 142.144531 83.429688 142.632813 83.722656 143.144531 C 83.898438 143.433594 84.105469 143.695313 84.347656 143.925781 C 84.597656 144.152344 84.871094 144.363281 85.175781 144.550781 L 84.378906 145.019531 C 84.085938 144.808594 83.820313 144.582031 83.582031 144.332031 C 83.339844 144.089844 83.136719 143.820313 82.972656 143.519531 C 82.535156 142.769531 82.429688 142.035156 82.660156 141.316406 C 82.898438 140.597656 83.429688 140 84.253906 139.519531 C 85.105469 139.03125 85.902344 138.847656 86.644531 138.972656 C 87.382813 139.097656 87.957031 139.511719 88.363281 140.207031 C 88.726563 140.839844 88.789063 141.472656 88.550781 142.097656 C 88.308594 142.722656 87.804688 143.261719 87.035156 143.722656 Z M 86.832031 142.800781 C 87.300781 142.519531 87.605469 142.183594 87.753906 141.800781 C 87.898438 141.414063 87.863281 141.027344 87.644531 140.644531 C 87.394531 140.21875 87.054688 139.953125 86.628906 139.847656 C 86.210938 139.734375 85.746094 139.800781 85.238281 140.050781 Z M 91.027344 146.6875 C 91.015625 146.5625 90.988281 146.441406 90.949219 146.328125 C 90.917969 146.210938 90.863281 146.097656 90.792969 145.984375 C 90.519531 145.546875 90.160156 145.3125 89.714844 145.28125 C 89.277344 145.25 88.769531 145.414063 88.199219 145.765625 L 85.496094 147.4375 L 85.011719 146.65625 L 90.121094 143.484375 L 90.605469 144.265625 L 89.808594 144.765625 C 90.214844 144.726563 90.566406 144.78125 90.871094 144.9375 C 91.183594 145.09375 91.453125 145.355469 91.683594 145.71875 C 91.714844 145.773438 91.746094 145.835938 91.777344 145.90625 C 91.816406 145.976563 91.847656 146.054688 91.871094 146.140625 Z M 93.71875 150.984375 C 94.21875 150.910156 94.640625 150.941406 94.984375 151.078125 C 95.335938 151.210938 95.632813 151.453125 95.875 151.796875 C 96.195313 152.265625 96.265625 152.75 96.078125 153.25 C 95.890625 153.75 95.460938 154.234375 94.796875 154.703125 L 91.8125 156.765625 L 91.3125 156.03125 L 94.265625 153.984375 C 94.742188 153.648438 95.039063 153.328125 95.15625 153.015625 C 95.28125 152.710938 95.234375 152.40625 95.015625 152.09375 C 94.753906 151.71875 94.40625 151.515625 93.96875 151.484375 C 93.539063 151.453125 93.085938 151.601563 92.609375 151.9375 L 89.8125 153.875 L 89.3125 153.15625 L 92.265625 151.109375 C 92.742188 150.773438 93.039063 150.453125 93.15625 150.140625 C 93.269531 149.828125 93.222656 149.523438 93.015625 149.21875 C 92.753906 148.835938 92.410156 148.632813 91.984375 148.609375 C 91.554688 148.578125 91.101563 148.730469 90.625 149.0625 L 87.828125 151 L 87.3125 150.265625 L 92.25 146.828125 L 92.765625 147.5625 L 92 148.109375 C 92.414063 148.058594 92.773438 148.101563 93.078125 148.234375 C 93.390625 148.371094 93.65625 148.601563 93.875 148.921875 C 94.101563 149.246094 94.203125 149.578125 94.171875 149.921875 C 94.148438 150.273438 94 150.628906 93.71875 150.984375 Z M 98.535156 156.640625 C 98.230469 156.277344 97.832031 156.121094 97.332031 156.171875 C 96.832031 156.226563 96.304688 156.480469 95.753906 156.9375 C 95.199219 157.398438 94.855469 157.863281 94.722656 158.34375 C 94.585938 158.820313 94.667969 159.242188 94.972656 159.609375 C 95.285156 159.972656 95.683594 160.128906 96.175781 160.078125 C 96.664063 160.023438 97.183594 159.769531 97.738281 159.3125 C 98.289063 158.851563 98.636719 158.382813 98.785156 157.90625 C 98.929688 157.429688 98.847656 157.007813 98.535156 156.640625 Z M 99.175781 156.109375 C 99.675781 156.703125 99.847656 157.34375 99.691406 158.03125 C 99.542969 158.726563 99.089844 159.394531 98.332031 160.03125 C 97.582031 160.65625 96.847656 160.976563 96.128906 161 C 95.417969 161.019531 94.816406 160.734375 94.316406 160.140625 C 93.816406 159.535156 93.636719 158.882813 93.785156 158.1875 C 93.941406 157.5 94.394531 156.84375 95.144531 156.21875 C 95.902344 155.585938 96.636719 155.257813 97.347656 155.234375 C 98.066406 155.214844 98.675781 155.507813 99.175781 156.109375 Z M 102.640625 164.207031 L 99.859375 166.535156 L 99.28125 165.847656 L 102.046875 163.550781 C 102.484375 163.175781 102.742188 162.820313 102.828125 162.488281 C 102.910156 162.15625 102.828125 161.839844 102.578125 161.535156 C 102.273438 161.171875 101.90625 160.988281 101.46875 160.988281 C 101.03125 160.988281 100.585938 161.175781 100.140625 161.550781 L 97.53125 163.738281 L 96.953125 163.050781 L 101.578125 159.191406 L 102.15625 159.878906 L 101.4375 160.488281 C 101.832031 160.417969 102.191406 160.4375 102.515625 160.550781 C 102.847656 160.65625 103.132813 160.855469 103.375 161.144531 C 103.769531 161.625 103.90625 162.121094 103.78125 162.628906 C 103.664063 163.148438 103.285156 163.675781 102.640625 164.207031 Z M 107.378906 167.121094 L 109.738281 164.902344 L 110.347656 165.558594 L 104.269531 171.292969 L 103.660156 170.636719 L 104.316406 170.011719 C 103.917969 170.125 103.558594 170.136719 103.238281 170.042969 C 102.925781 169.957031 102.632813 169.777344 102.363281 169.496094 C 101.902344 169.015625 101.742188 168.425781 101.878906 167.730469 C 102.011719 167.035156 102.429688 166.355469 103.128906 165.699219 C 103.816406 165.054688 104.507813 164.683594 105.207031 164.589844 C 105.902344 164.488281 106.480469 164.675781 106.941406 165.152344 C 107.210938 165.433594 107.378906 165.742188 107.441406 166.074219 C 107.511719 166.398438 107.492188 166.746094 107.378906 167.121094 Z M 103.769531 166.371094 C 103.238281 166.871094 102.910156 167.355469 102.785156 167.824219 C 102.667969 168.300781 102.773438 168.714844 103.097656 169.058594 C 103.417969 169.410156 103.824219 169.542969 104.316406 169.449219 C 104.804688 169.363281 105.316406 169.074219 105.847656 168.574219 C 106.367188 168.074219 106.683594 167.589844 106.800781 167.121094 C 106.914063 166.644531 106.808594 166.226563 106.488281 165.871094 C 106.164063 165.527344 105.757813 165.402344 105.269531 165.496094 C 104.789063 165.582031 104.289063 165.871094 103.769531 166.371094 Z M 112.152344 171.101563 L 111.480469 171.757813 C 111.394531 171.46875 111.285156 171.203125 111.152344 170.960938 C 111.015625 170.722656 110.847656 170.492188 110.652344 170.273438 C 110.339844 169.953125 110.050781 169.765625 109.792969 169.710938 C 109.53125 169.660156 109.296875 169.734375 109.089844 169.929688 C 108.921875 170.085938 108.84375 170.269531 108.855469 170.476563 C 108.875 170.675781 109.003906 170.992188 109.246094 171.429688 L 109.386719 171.695313 C 109.71875 172.257813 109.875 172.730469 109.855469 173.117188 C 109.84375 173.5 109.660156 173.859375 109.308594 174.195313 C 108.902344 174.570313 108.441406 174.726563 107.933594 174.664063 C 107.433594 174.609375 106.9375 174.328125 106.449219 173.820313 C 106.25 173.609375 106.0625 173.371094 105.886719 173.101563 C 105.71875 172.828125 105.558594 172.523438 105.402344 172.179688 L 106.136719 171.492188 C 106.230469 171.859375 106.355469 172.183594 106.511719 172.476563 C 106.667969 172.765625 106.847656 173.027344 107.058594 173.257813 C 107.347656 173.558594 107.628906 173.734375 107.902344 173.789063 C 108.183594 173.851563 108.421875 173.78125 108.621094 173.585938 C 108.816406 173.398438 108.910156 173.1875 108.902344 172.960938 C 108.890625 172.742188 108.738281 172.390625 108.449219 171.914063 L 108.308594 171.632813 C 108.027344 171.15625 107.894531 170.734375 107.917969 170.367188 C 107.9375 170.003906 108.121094 169.660156 108.464844 169.335938 C 108.871094 168.953125 109.308594 168.785156 109.777344 168.835938 C 110.253906 168.878906 110.722656 169.140625 111.183594 169.617188 C 111.410156 169.859375 111.605469 170.101563 111.761719 170.351563 C 111.917969 170.59375 112.046875 170.84375 112.152344 171.101563 Z M 116.46875 178.460938 C 116.550781 178.65625 116.570313 178.917969 116.53125 179.242188 C 116.5 179.5625 116.394531 179.964844 116.21875 180.445313 L 115.375 182.679688 L 114.625 181.945313 L 115.421875 179.820313 C 115.628906 179.277344 115.710938 178.867188 115.671875 178.585938 C 115.640625 178.304688 115.488281 178.03125 115.21875 177.757813 L 114.46875 177.007813 L 112.078125 179.414063 L 111.375 178.726563 L 117.015625 173.039063 L 118.578125 174.585938 C 119.171875 175.171875 119.476563 175.738281 119.5 176.289063 C 119.519531 176.832031 119.253906 177.382813 118.703125 177.945313 C 118.347656 178.296875 117.976563 178.515625 117.59375 178.601563 C 117.207031 178.695313 116.832031 178.648438 116.46875 178.460938 Z M 117.09375 174.351563 L 115.09375 176.367188 L 115.953125 177.226563 C 116.296875 177.5625 116.632813 177.734375 116.96875 177.742188 C 117.3125 177.742188 117.648438 177.578125 117.984375 177.242188 C 118.316406 176.910156 118.476563 176.570313 118.46875 176.226563 C 118.46875 175.882813 118.296875 175.546875 117.953125 175.210938 Z M 121.597656 180.820313 C 121.222656 180.53125 120.792969 180.46875 120.316406 180.632813 C 119.847656 180.789063 119.394531 181.15625 118.957031 181.726563 C 118.527344 182.300781 118.300781 182.832031 118.269531 183.320313 C 118.238281 183.820313 118.410156 184.214844 118.785156 184.507813 C 119.167969 184.789063 119.597656 184.851563 120.066406 184.695313 C 120.535156 184.539063 120.980469 184.171875 121.410156 183.601563 C 121.847656 183.03125 122.082031 182.492188 122.113281 181.992188 C 122.152344 181.492188 121.980469 181.101563 121.597656 180.820313 Z M 122.097656 180.164063 C 122.710938 180.625 123.023438 181.210938 123.035156 181.929688 C 123.054688 182.640625 122.761719 183.382813 122.160156 184.164063 C 121.566406 184.945313 120.917969 185.421875 120.222656 185.601563 C 119.535156 185.777344 118.882813 185.636719 118.269531 185.179688 C 117.652344 184.699219 117.339844 184.101563 117.332031 183.382813 C 117.320313 182.675781 117.613281 181.929688 118.207031 181.148438 C 118.808594 180.367188 119.457031 179.890625 120.144531 179.710938 C 120.832031 179.535156 121.480469 179.6875 122.097656 180.164063 Z M 125.617188 186.253906 C 125 185.890625 124.527344 185.71875 124.195313 185.738281 C 123.859375 185.761719 123.585938 185.957031 123.367188 186.332031 C 123.1875 186.625 123.136719 186.910156 123.210938 187.191406 C 123.28125 187.480469 123.476563 187.714844 123.789063 187.894531 C 124.214844 188.152344 124.652344 188.191406 125.101563 188.003906 C 125.558594 187.816406 125.949219 187.449219 126.273438 186.910156 L 126.382813 186.707031 Z M 127.367188 186.785156 L 125.632813 189.753906 L 124.851563 189.316406 L 125.304688 188.535156 C 124.949219 188.730469 124.59375 188.832031 124.242188 188.832031 C 123.898438 188.832031 123.539063 188.722656 123.164063 188.503906 C 122.683594 188.222656 122.386719 187.847656 122.273438 187.378906 C 122.167969 186.921875 122.265625 186.4375 122.570313 185.925781 C 122.914063 185.34375 123.34375 185.011719 123.867188 184.925781 C 124.386719 184.832031 124.996094 184.988281 125.695313 185.394531 L 126.773438 186.035156 L 126.820313 185.957031 C 127.046875 185.5625 127.109375 185.1875 127.007813 184.832031 C 126.902344 184.480469 126.636719 184.183594 126.210938 183.941406 C 125.949219 183.785156 125.667969 183.671875 125.367188 183.597656 C 125.074219 183.515625 124.765625 183.472656 124.445313 183.472656 L 124.914063 182.691406 C 125.277344 182.734375 125.605469 182.800781 125.898438 182.894531 C 126.1875 182.988281 126.460938 183.113281 126.710938 183.269531 C 127.386719 183.65625 127.78125 184.140625 127.898438 184.722656 C 128.011719 185.308594 127.835938 185.996094 127.367188 186.785156 Z M 132.847656 188.082031 L 134.503906 185.269531 L 135.285156 185.707031 L 131.050781 192.925781 L 130.269531 192.488281 L 130.722656 191.707031 C 130.386719 191.925781 130.050781 192.035156 129.707031 192.035156 C 129.371094 192.042969 129.039063 191.949219 128.707031 191.753906 C 128.132813 191.417969 127.816406 190.898438 127.753906 190.191406 C 127.691406 189.484375 127.898438 188.71875 128.378906 187.894531 C 128.855469 187.082031 129.417969 186.53125 130.066406 186.238281 C 130.710938 185.949219 131.320313 185.96875 131.894531 186.300781 C 132.226563 186.5 132.476563 186.75 132.644531 187.050781 C 132.808594 187.34375 132.878906 187.6875 132.847656 188.082031 Z M 129.175781 188.363281 C 128.808594 189 128.636719 189.5625 128.660156 190.050781 C 128.679688 190.527344 128.894531 190.886719 129.300781 191.128906 C 129.714844 191.367188 130.144531 191.378906 130.582031 191.160156 C 131.019531 190.949219 131.417969 190.527344 131.785156 189.894531 C 132.160156 189.269531 132.332031 188.714844 132.300781 188.222656 C 132.277344 187.722656 132.058594 187.355469 131.644531 187.113281 C 131.238281 186.875 130.816406 186.871094 130.378906 187.097656 C 129.949219 187.316406 129.550781 187.738281 129.175781 188.363281 Z M 129.175781 188.363281 "/>
<path style="fill:none;stroke-width:3;stroke-linecap:round;stroke-linejoin:round;stroke:rgb(100%,100%,100%);stroke-opacity:1;stroke-miterlimit:10;" d="M 102.410156 126.183594 L 101.769531 130.371094 L 104.394531 129.917969 Z M 101.675781 125.246094 L 102.769531 125.058594 L 106.832031 132.496094 L 105.832031 132.667969 L 104.832031 130.746094 L 101.628906 131.292969 L 101.332031 133.433594 L 100.316406 133.605469 Z M 111.15625 128.71875 C 111.03125 128 110.800781 127.464844 110.46875 127.109375 C 110.132813 126.746094 109.738281 126.601563 109.28125 126.671875 C 108.8125 126.757813 108.476563 127.027344 108.28125 127.484375 C 108.082031 127.933594 108.046875 128.515625 108.171875 129.234375 C 108.285156 129.953125 108.507813 130.496094 108.84375 130.859375 C 109.1875 131.214844 109.59375 131.351563 110.0625 131.265625 C 110.519531 131.195313 110.84375 130.933594 111.03125 130.484375 C 111.226563 130.027344 111.269531 129.4375 111.15625 128.71875 Z M 107.8125 127.15625 C 107.9375 126.773438 108.125 126.476563 108.375 126.265625 C 108.625 126.046875 108.953125 125.902344 109.359375 125.828125 C 110.003906 125.714844 110.570313 125.90625 111.0625 126.40625 C 111.5625 126.90625 111.894531 127.625 112.0625 128.5625 C 112.21875 129.492188 112.144531 130.277344 111.84375 130.921875 C 111.539063 131.558594 111.066406 131.933594 110.421875 132.046875 C 110.015625 132.121094 109.65625 132.09375 109.34375 131.96875 C 109.039063 131.84375 108.765625 131.621094 108.515625 131.296875 L 108.671875 132.1875 L 107.78125 132.328125 L 106.375 124.09375 L 107.265625 123.953125 Z M 118.035156 127.285156 L 118.113281 127.769531 L 114.082031 128.457031 C 114.238281 129.113281 114.507813 129.59375 114.894531 129.894531 C 115.289063 130.1875 115.773438 130.28125 116.347656 130.175781 C 116.679688 130.125 116.996094 130.027344 117.300781 129.878906 C 117.601563 129.722656 117.894531 129.53125 118.175781 129.300781 L 118.332031 130.207031 C 118.039063 130.417969 117.730469 130.589844 117.410156 130.722656 C 117.097656 130.859375 116.773438 130.957031 116.441406 131.019531 C 115.585938 131.167969 114.863281 131.003906 114.269531 130.535156 C 113.675781 130.066406 113.292969 129.363281 113.128906 128.425781 C 112.964844 127.457031 113.066406 126.652344 113.441406 126.003906 C 113.824219 125.359375 114.417969 124.964844 115.222656 124.816406 C 115.941406 124.703125 116.550781 124.863281 117.050781 125.300781 C 117.550781 125.738281 117.878906 126.402344 118.035156 127.285156 Z M 117.113281 127.144531 C 117.007813 126.613281 116.800781 126.214844 116.488281 125.941406 C 116.175781 125.660156 115.804688 125.558594 115.378906 125.628906 C 114.886719 125.714844 114.519531 125.9375 114.269531 126.300781 C 114.027344 126.65625 113.933594 127.113281 113.988281 127.675781 Z M 122.261719 124.695313 C 122.144531 124.65625 122.027344 124.628906 121.902344 124.617188 C 121.785156 124.609375 121.660156 124.613281 121.527344 124.632813 C 121.027344 124.71875 120.671875 124.960938 120.464844 125.367188 C 120.265625 125.773438 120.222656 126.3125 120.339844 126.976563 L 120.871094 130.101563 L 119.980469 130.242188 L 118.964844 124.320313 L 119.855469 124.179688 L 120.011719 125.101563 C 120.136719 124.707031 120.328125 124.398438 120.589844 124.179688 C 120.859375 123.953125 121.207031 123.800781 121.636719 123.726563 C 121.699219 123.71875 121.765625 123.710938 121.839844 123.710938 C 121.910156 123.703125 121.988281 123.695313 122.074219 123.695313 Z M 126.6875 123.917969 L 126.140625 120.714844 L 127.015625 120.574219 L 128.421875 128.808594 L 127.546875 128.949219 L 127.390625 128.058594 C 127.265625 128.457031 127.078125 128.761719 126.828125 128.980469 C 126.578125 129.199219 126.253906 129.339844 125.859375 129.402344 C 125.210938 129.519531 124.632813 129.324219 124.125 128.824219 C 123.625 128.316406 123.296875 127.597656 123.140625 126.667969 C 122.976563 125.730469 123.046875 124.945313 123.359375 124.308594 C 123.671875 123.675781 124.148438 123.300781 124.796875 123.183594 C 125.191406 123.121094 125.539063 123.152344 125.84375 123.277344 C 126.15625 123.394531 126.4375 123.605469 126.6875 123.917969 Z M 124.0625 126.511719 C 124.175781 127.230469 124.398438 127.773438 124.734375 128.136719 C 125.066406 128.503906 125.460938 128.644531 125.921875 128.558594 C 126.398438 128.476563 126.734375 128.210938 126.921875 127.761719 C 127.117188 127.304688 127.160156 126.714844 127.046875 125.996094 C 126.921875 125.277344 126.691406 124.742188 126.359375 124.386719 C 126.023438 124.023438 125.617188 123.882813 125.140625 123.964844 C 124.679688 124.050781 124.351563 124.316406 124.15625 124.761719 C 123.96875 125.210938 123.9375 125.792969 124.0625 126.511719 Z M 134.242188 124.589844 L 134.320313 125.074219 L 130.273438 125.714844 C 130.417969 126.371094 130.679688 126.851563 131.054688 127.152344 C 131.4375 127.457031 131.917969 127.566406 132.492188 127.480469 C 132.835938 127.417969 133.152344 127.320313 133.445313 127.183594 C 133.746094 127.039063 134.046875 126.851563 134.351563 126.621094 L 134.492188 127.527344 C 134.1875 127.738281 133.882813 127.910156 133.570313 128.042969 C 133.257813 128.167969 132.929688 128.257813 132.585938 128.308594 C 131.730469 128.445313 131.011719 128.277344 130.429688 127.808594 C 129.84375 127.332031 129.480469 126.617188 129.335938 125.667969 C 129.191406 124.699219 129.304688 123.898438 129.679688 123.261719 C 130.0625 122.617188 130.664063 122.230469 131.476563 122.105469 C 132.195313 121.992188 132.796875 122.160156 133.289063 122.605469 C 133.789063 123.042969 134.105469 123.707031 134.242188 124.589844 Z M 133.304688 124.449219 C 133.210938 123.910156 133.011719 123.503906 132.710938 123.230469 C 132.40625 122.949219 132.042969 122.839844 131.617188 122.902344 C 131.117188 122.988281 130.742188 123.207031 130.492188 123.558594 C 130.242188 123.914063 130.136719 124.371094 130.179688 124.933594 Z M 140.21875 124.433594 L 140.234375 124.917969 L 136.140625 124.980469 C 136.191406 125.660156 136.382813 126.175781 136.71875 126.527344 C 137.0625 126.871094 137.523438 127.039063 138.109375 127.027344 C 138.453125 127.019531 138.78125 126.964844 139.09375 126.871094 C 139.414063 126.769531 139.738281 126.628906 140.0625 126.449219 L 140.078125 127.371094 C 139.753906 127.527344 139.425781 127.648438 139.09375 127.730469 C 138.757813 127.8125 138.421875 127.859375 138.078125 127.871094 C 137.210938 127.890625 136.519531 127.628906 136 127.074219 C 135.488281 126.523438 135.226563 125.769531 135.21875 124.808594 C 135.195313 123.832031 135.421875 123.050781 135.890625 122.464844 C 136.359375 121.882813 137 121.582031 137.8125 121.558594 C 138.539063 121.550781 139.117188 121.804688 139.546875 122.324219 C 139.984375 122.835938 140.207031 123.539063 140.21875 124.433594 Z M 139.328125 124.152344 C 139.304688 123.613281 139.160156 123.179688 138.890625 122.855469 C 138.628906 122.535156 138.28125 122.378906 137.84375 122.386719 C 137.34375 122.398438 136.941406 122.566406 136.640625 122.886719 C 136.347656 123.199219 136.1875 123.636719 136.15625 124.199219 Z M 145.867188 125.386719 L 144.960938 128.902344 L 144.101563 128.683594 L 144.992188 125.199219 C 145.136719 124.648438 145.148438 124.210938 145.023438 123.886719 C 144.898438 123.566406 144.640625 123.351563 144.257813 123.246094 C 143.796875 123.132813 143.386719 123.207031 143.023438 123.464844 C 142.667969 123.726563 142.417969 124.136719 142.273438 124.699219 L 141.429688 127.996094 L 140.554688 127.761719 L 142.054688 121.933594 L 142.929688 122.167969 L 142.695313 123.074219 C 142.996094 122.773438 143.304688 122.574219 143.617188 122.480469 C 143.9375 122.378906 144.289063 122.378906 144.664063 122.480469 C 145.257813 122.628906 145.65625 122.949219 145.867188 123.449219 C 146.074219 123.941406 146.074219 124.585938 145.867188 125.386719 Z M 152.625 124.238281 L 150.28125 130.019531 L 151.359375 130.457031 C 152.285156 130.832031 153.054688 130.871094 153.671875 130.582031 C 154.296875 130.300781 154.816406 129.660156 155.234375 128.660156 C 155.628906 127.660156 155.703125 126.84375 155.453125 126.207031 C 155.210938 125.5625 154.628906 125.050781 153.703125 124.675781 Z M 152.046875 123.050781 L 153.90625 123.800781 C 155.207031 124.332031 156.035156 125.019531 156.390625 125.863281 C 156.753906 126.707031 156.679688 127.765625 156.171875 129.035156 C 155.648438 130.316406 154.960938 131.132813 154.109375 131.488281 C 153.253906 131.839844 152.179688 131.753906 150.890625 131.222656 L 149.03125 130.472656 Z M 160.910156 129.582031 C 160.835938 129.480469 160.746094 129.394531 160.644531 129.332031 C 160.539063 129.269531 160.425781 129.21875 160.300781 129.175781 C 159.820313 129.011719 159.394531 129.058594 159.019531 129.316406 C 158.652344 129.566406 158.363281 130.011719 158.144531 130.644531 L 157.097656 133.644531 L 156.238281 133.347656 L 158.222656 127.660156 L 159.082031 127.957031 L 158.769531 128.847656 C 159.058594 128.566406 159.371094 128.390625 159.707031 128.316406 C 160.039063 128.246094 160.410156 128.28125 160.816406 128.425781 C 160.878906 128.449219 160.945313 128.472656 161.019531 128.503906 C 161.089844 128.535156 161.164063 128.574219 161.238281 128.613281 Z M 161.972656 128.917969 L 162.832031 129.152344 L 161.253906 134.949219 L 160.394531 134.714844 Z M 162.597656 126.652344 L 163.457031 126.886719 L 163.128906 128.089844 L 162.269531 127.855469 Z M 163.324219 129.28125 L 164.261719 129.203125 L 166.355469 134.09375 L 167.636719 128.921875 L 168.574219 128.84375 L 167.042969 135.015625 L 165.839844 135.125 Z M 174.644531 130.730469 L 174.707031 131.214844 L 170.660156 131.839844 C 170.804688 132.496094 171.066406 132.980469 171.441406 133.292969 C 171.824219 133.597656 172.308594 133.699219 172.894531 133.605469 C 173.226563 133.554688 173.542969 133.460938 173.847656 133.324219 C 174.148438 133.179688 174.445313 132.992188 174.738281 132.761719 L 174.878906 133.667969 C 174.574219 133.878906 174.269531 134.050781 173.957031 134.183594 C 173.644531 134.308594 173.320313 134.398438 172.988281 134.449219 C 172.121094 134.574219 171.398438 134.402344 170.816406 133.933594 C 170.230469 133.457031 169.867188 132.742188 169.722656 131.792969 C 169.578125 130.824219 169.695313 130.023438 170.082031 129.386719 C 170.476563 128.742188 171.074219 128.355469 171.878906 128.230469 C 172.597656 128.117188 173.199219 128.285156 173.691406 128.730469 C 174.191406 129.179688 174.507813 129.847656 174.644531 130.730469 Z M 173.722656 130.589844 C 173.628906 130.050781 173.425781 129.644531 173.113281 129.371094 C 172.808594 129.089844 172.445313 128.980469 172.019531 129.042969 C 171.519531 129.117188 171.144531 129.332031 170.894531 129.683594 C 170.644531 130.039063 170.539063 130.503906 170.582031 131.074219 Z M 173.722656 130.589844 "/>
<path style=" stroke:none;fill-rule:evenodd;fill:rgb(20%,20%,20%);fill-opacity:1;" d="M 102.410156 126.183594 L 101.769531 130.371094 L 104.394531 129.917969 Z M 101.675781 125.246094 L 102.769531 125.058594 L 106.832031 132.496094 L 105.832031 132.667969 L 104.832031 130.746094 L 101.628906 131.292969 L 101.332031 133.433594 L 100.316406 133.605469 Z M 111.15625 128.71875 C 111.03125 128 110.800781 127.464844 110.46875 127.109375 C 110.132813 126.746094 109.738281 126.601563 109.28125 126.671875 C 108.8125 126.757813 108.476563 127.027344 108.28125 127.484375 C 108.082031 127.933594 108.046875 128.515625 108.171875 129.234375 C 108.285156 129.953125 108.507813 130.496094 108.84375 130.859375 C 109.1875 131.214844 109.59375 131.351563 110.0625 131.265625 C 110.519531 131.195313 110.84375 130.933594 111.03125 130.484375 C 111.226563 130.027344 111.269531 129.4375 111.15625 128.71875 Z M 107.8125 127.15625 C 107.9375 126.773438 108.125 126.476563 108.375 126.265625 C 108.625 126.046875 108.953125 125.902344 109.359375 125.828125 C 110.003906 125.714844 110.570313 125.90625 111.0625 126.40625 C 111.5625 126.90625 111.894531 127.625 112.0625 128.5625 C 112.21875 129.492188 112.144531 130.277344 111.84375 130.921875 C 111.539063 131.558594 111.066406 131.933594 110.421875 132.046875 C 110.015625 132.121094 109.65625 132.09375 109.34375 131.96875 C 109.039063 131.84375 108.765625 131.621094 108.515625 131.296875 L 108.671875 132.1875 L 107.78125 132.328125 L 106.375 124.09375 L 107.265625 123.953125 Z M 118.035156 127.285156 L 118.113281 127.769531 L 114.082031 128.457031 C 114.238281 129.113281 114.507813 129.59375 114.894531 129.894531 C 115.289063 130.1875 115.773438 130.28125 116.347656 130.175781 C 116.679688 130.125 116.996094 130.027344 117.300781 129.878906 C 117.601563 129.722656 117.894531 129.53125 118.175781 129.300781 L 118.332031 130.207031 C 118.039063 130.417969 117.730469 130.589844 117.410156 130.722656 C 117.097656 130.859375 116.773438 130.957031 116.441406 131.019531 C 115.585938 131.167969 114.863281 131.003906 114.269531 130.535156 C 113.675781 130.066406 113.292969 129.363281 113.128906 128.425781 C 112.964844 127.457031 113.066406 126.652344 113.441406 126.003906 C 113.824219 125.359375 114.417969 124.964844 115.222656 124.816406 C 115.941406 124.703125 116.550781 124.863281 117.050781 125.300781 C 117.550781 125.738281 117.878906 126.402344 118.035156 127.285156 Z M 117.113281 127.144531 C 117.007813 126.613281 116.800781 126.214844 116.488281 125.941406 C 116.175781 125.660156 115.804688 125.558594 115.378906 125.628906 C 114.886719 125.714844 114.519531 125.9375 114.269531 126.300781 C 114.027344 126.65625 113.933594 127.113281 113.988281 127.675781 Z M 122.261719 124.695313 C 122.144531 124.65625 122.027344 124.628906 121.902344 124.617188 C 121.785156 124.609375 121.660156 124.613281 121.527344 124.632813 C 121.027344 124.71875 120.671875 124.960938 120.464844 125.367188 C 120.265625 125.773438 120.222656 126.3125 120.339844 126.976563 L 120.871094 130.101563 L 119.980469 130.242188 L 118.964844 124.320313 L 119.855469 124.179688 L 120.011719 125.101563 C 120.136719 124.707031 120.328125 124.398438 120.589844 124.179688 C 120.859375 123.953125 121.207031 123.800781 121.636719 123.726563 C 121.699219 123.71875 121.765625 123.710938 121.839844 123.710938 C 121.910156 123.703125 121.988281 123.695313 122.074219 123.695313 Z M 126.6875 123.917969 L 126.140625 120.714844 L 127.015625 120.574219 L 128.421875 128.808594 L 127.546875 128.949219 L 127.390625 128.058594 C 127.265625 128.457031 127.078125 128.761719 126.828125 128.980469 C 126.578125 129.199219 126.253906 129.339844 125.859375 129.402344 C 125.210938 129.519531 124.632813 129.324219 124.125 128.824219 C 123.625 128.316406 123.296875 127.597656 123.140625 126.667969 C 122.976563 125.730469 123.046875 124.945313 123.359375 124.308594 C 123.671875 123.675781 124.148438 123.300781 124.796875 123.183594 C 125.191406 123.121094 125.539063 123.152344 125.84375 123.277344 C 126.15625 123.394531 126.4375 123.605469 126.6875 123.917969 Z M 124.0625 126.511719 C 124.175781 127.230469 124.398438 127.773438 124.734375 128.136719 C 125.066406 128.503906 125.460938 128.644531 125.921875 128.558594 C 126.398438 128.476563 126.734375 128.210938 126.921875 127.761719 C 127.117188 127.304688 127.160156 126.714844 127.046875 125.996094 C 126.921875 125.277344 126.691406 124.742188 126.359375 124.386719 C 126.023438 124.023438 125.617188 123.882813 125.140625 123.964844 C 124.679688 124.050781 124.351563 124.316406 124.15625 124.761719 C 123.96875 125.210938 123.9375 125.792969 124.0625 126.511719 Z M 134.242188 124.589844 L 134.320313 125.074219 L 130.273438 125.714844 C 130.417969 126.371094 130.679688 126.851563 131.054688 127.152344 C 131.4375 127.457031 131.917969 127.566406 132.492188 127.480469 C 132.835938 127.417969 133.152344 127.320313 133.445313 127.183594 C 133.746094 127.039063 134.046875 126.851563 134.351563 126.621094 L 134.492188 127.527344 C 134.1875 127.738281 133.882813 127.910156 133.570313 128.042969 C 133.257813 128.167969 132.929688 128.257813 132.585938 128.308594 C 131.730469 128.445313 131.011719 128.277344 130.429688 127.808594 C 129.84375 127.332031 129.480469 126.617188 129.335938 125.667969 C 129.191406 124.699219 129.304688 123.898438 129.679688 123.261719 C 130.0625 122.617188 130.664063 122.230469 131.476563 122.105469 C 132.195313 121.992188 132.796875 122.160156 133.289063 122.605469 C 133.789063 123.042969 134.105469 123.707031 134.242188 124.589844 Z M 133.304688 124.449219 C 133.210938 123.910156 133.011719 123.503906 132.710938 123.230469 C 132.40625 122.949219 132.042969 122.839844 131.617188 122.902344 C 131.117188 122.988281 130.742188 123.207031 130.492188 123.558594 C 130.242188 123.914063 130.136719 124.371094 130.179688 124.933594 Z M 140.21875 124.433594 L 140.234375 124.917969 L 136.140625 124.980469 C 136.191406 125.660156 136.382813 126.175781 136.71875 126.527344 C 137.0625 126.871094 137.523438 127.039063 138.109375 127.027344 C 138.453125 127.019531 138.78125 126.964844 139.09375 126.871094 C 139.414063 126.769531 139.738281 126.628906 140.0625 126.449219 L 140.078125 127.371094 C 139.753906 127.527344 139.425781 127.648438 139.09375 127.730469 C 138.757813 127.8125 138.421875 127.859375 138.078125 127.871094 C 137.210938 127.890625 136.519531 127.628906 136 127.074219 C 135.488281 126.523438 135.226563 125.769531 135.21875 124.808594 C 135.195313 123.832031 135.421875 123.050781 135.890625 122.464844 C 136.359375 121.882813 137 121.582031 137.8125 121.558594 C 138.539063 121.550781 139.117188 121.804688 139.546875 122.324219 C 139.984375 122.835938 140.207031 123.539063 140.21875 124.433594 Z M 139.328125 124.152344 C 139.304688 123.613281 139.160156 123.179688 138.890625 122.855469 C 138.628906 122.535156 138.28125 122.378906 137.84375 122.386719 C 137.34375 122.398438 136.941406 122.566406 136.640625 122.886719 C 136.347656 123.199219 136.1875 123.636719 136.15625 124.199219 Z M 145.867188 125.386719 L 144.960938 128.902344 L 144.101563 128.683594 L 144.992188 125.199219 C 145.136719 124.648438 145.148438 124.210938 145.023438 123.886719 C 144.898438 123.566406 144.640625 123.351563 144.257813 123.246094 C 143.796875 123.132813 143.386719 123.207031 143.023438 123.464844 C 142.667969 123.726563 142.417969 124.136719 142.273438 124.699219 L 141.429688 127.996094 L 140.554688 127.761719 L 142.054688 121.933594 L 142.929688 122.167969 L 142.695313 123.074219 C 142.996094 122.773438 143.304688 122.574219 143.617188 122.480469 C 143.9375 122.378906 144.289063 122.378906 144.664063 122.480469 C 145.257813 122.628906 145.65625 122.949219 145.867188 123.449219 C 146.074219 123.941406 146.074219 124.585938 145.867188 125.386719 Z M 152.625 124.238281 L 150.28125 130.019531 L 151.359375 130.457031 C 152.285156 130.832031 153.054688 130.871094 153.671875 130.582031 C 154.296875 130.300781 154.816406 129.660156 155.234375 128.660156 C 155.628906 127.660156 155.703125 126.84375 155.453125 126.207031 C 155.210938 125.5625 154.628906 125.050781 153.703125 124.675781 Z M 152.046875 123.050781 L 153.90625 123.800781 C 155.207031 124.332031 156.035156 125.019531 156.390625 125.863281 C 156.753906 126.707031 156.679688 127.765625 156.171875 129.035156 C 155.648438 130.316406 154.960938 131.132813 154.109375 131.488281 C 153.253906 131.839844 152.179688 131.753906 150.890625 131.222656 L 149.03125 130.472656 Z M 160.910156 129.582031 C 160.835938 129.480469 160.746094 129.394531 160.644531 129.332031 C 160.539063 129.269531 160.425781 129.21875 160.300781 129.175781 C 159.820313 129.011719 159.394531 129.058594 159.019531 129.316406 C 158.652344 129.566406 158.363281 130.011719 158.144531 130.644531 L 157.097656 133.644531 L 156.238281 133.347656 L 158.222656 127.660156 L 159.082031 127.957031 L 158.769531 128.847656 C 159.058594 128.566406 159.371094 128.390625 159.707031 128.316406 C 160.039063 128.246094 160.410156 128.28125 160.816406 128.425781 C 160.878906 128.449219 160.945313 128.472656 161.019531 128.503906 C 161.089844 128.535156 161.164063 128.574219 161.238281 128.613281 Z M 161.972656 128.917969 L 162.832031 129.152344 L 161.253906 134.949219 L 160.394531 134.714844 Z M 162.597656 126.652344 L 163.457031 126.886719 L 163.128906 128.089844 L 162.269531 127.855469 Z M 163.324219 129.28125 L 164.261719 129.203125 L 166.355469 134.09375 L 167.636719 128.921875 L 168.574219 128.84375 L 167.042969 135.015625 L 165.839844 135.125 Z M 174.644531 130.730469 L 174.707031 131.214844 L 170.660156 131.839844 C 170.804688 132.496094 171.066406 132.980469 171.441406 133.292969 C 171.824219 133.597656 172.308594 133.699219 172.894531 133.605469 C 173.226563 133.554688 173.542969 133.460938 173.847656 133.324219 C 174.148438 133.179688 174.445313 132.992188 174.738281 132.761719 L 174.878906 133.667969 C 174.574219 133.878906 174.269531 134.050781 173.957031 134.183594 C 173.644531 134.308594 173.320313 134.398438 172.988281 134.449219 C 172.121094 134.574219 171.398438 134.402344 170.816406 133.933594 C 170.230469 133.457031 169.867188 132.742188 169.722656 131.792969 C 169.578125 130.824219 169.695313 130.023438 170.082031 129.386719 C 170.476563 128.742188 171.074219 128.355469 171.878906 128.230469 C 172.597656 128.117188 173.199219 128.285156 173.691406 128.730469 C 174.191406 129.179688 174.507813 129.847656 174.644531 130.730469 Z M 173.722656 130.589844 C 173.628906 130.050781 173.425781 129.644531 173.113281 129.371094 C 172.808594 129.089844 172.445313 128.980469 172.019531 129.042969 C 171.519531 129.117188 171.144531 129.332031 170.894531 129.683594 C 170.644531 130.039063 170.539063 130.503906 170.582031 131.074219 Z M 173.722656 130.589844 "/>
<path style="fill:none;stroke-width:3;stroke-linecap:round;stroke-linejoin:round;stroke:rgb(100%,100%,100%);stroke-opacity:1;stroke-miterlimit:10;" d="M 37.371094 92.433594 L 37.496094 91.449219 L 40.761719 91.871094 L 41.214844 88.355469 L 37.949219 87.933594 L 38.074219 86.964844 L 46.027344 87.996094 L 45.902344 88.964844 L 42.121094 88.480469 L 41.667969 91.996094 L 45.449219 92.480469 L 45.324219 93.464844 Z M 43.902344 85.882813 L 40.292969 85.429688 L 40.402344 84.554688 L 43.980469 85.007813 C 44.542969 85.082031 44.980469 85.039063 45.292969 84.882813 C 45.597656 84.71875 45.773438 84.441406 45.824219 84.054688 C 45.886719 83.566406 45.773438 83.164063 45.480469 82.851563 C 45.179688 82.53125 44.730469 82.332031 44.136719 82.257813 L 40.761719 81.820313 L 40.871094 80.945313 L 46.839844 81.710938 L 46.730469 82.585938 L 45.808594 82.460938 C 46.144531 82.734375 46.375 83.019531 46.511719 83.320313 C 46.65625 83.625 46.703125 83.960938 46.652344 84.335938 C 46.578125 84.953125 46.308594 85.394531 45.839844 85.664063 C 45.371094 85.925781 44.726563 86 43.902344 85.882813 Z M 40.433594 83.195313 Z M 44.445313 74.871094 L 44.914063 74.933594 L 44.398438 78.996094 C 45.085938 79.050781 45.628906 78.929688 46.023438 78.636719 C 46.410156 78.347656 46.640625 77.914063 46.710938 77.339844 C 46.753906 76.996094 46.753906 76.664063 46.710938 76.339844 C 46.660156 76.019531 46.566406 75.683594 46.429688 75.339844 L 47.335938 75.449219 C 47.449219 75.792969 47.523438 76.136719 47.554688 76.480469 C 47.59375 76.816406 47.589844 77.152344 47.539063 77.496094 C 47.433594 78.351563 47.074219 78.996094 46.460938 79.433594 C 45.835938 79.863281 45.050781 80.011719 44.101563 79.886719 C 43.125 79.761719 42.378906 79.429688 41.867188 78.886719 C 41.359375 78.335938 41.15625 77.660156 41.257813 76.855469 C 41.351563 76.128906 41.6875 75.585938 42.257813 75.230469 C 42.820313 74.878906 43.550781 74.757813 44.445313 74.871094 Z M 44.039063 75.714844 C 43.5 75.652344 43.054688 75.730469 42.710938 75.949219 C 42.359375 76.167969 42.148438 76.496094 42.085938 76.933594 C 42.023438 77.425781 42.128906 77.839844 42.398438 78.183594 C 42.671875 78.527344 43.082031 78.757813 43.632813 78.871094 Z M 42.476563 69.664063 L 43.398438 69.789063 C 43.222656 70.03125 43.085938 70.28125 42.992188 70.539063 C 42.898438 70.789063 42.835938 71.054688 42.804688 71.335938 C 42.742188 71.785156 42.773438 72.128906 42.898438 72.367188 C 43.015625 72.609375 43.21875 72.742188 43.507813 72.773438 C 43.738281 72.804688 43.929688 72.753906 44.085938 72.617188 C 44.234375 72.472656 44.398438 72.171875 44.585938 71.710938 L 44.695313 71.414063 C 44.914063 70.8125 45.179688 70.394531 45.492188 70.164063 C 45.796875 69.925781 46.191406 69.835938 46.679688 69.898438 C 47.222656 69.972656 47.628906 70.226563 47.898438 70.664063 C 48.179688 71.09375 48.277344 71.648438 48.195313 72.335938 C 48.164063 72.628906 48.09375 72.929688 47.992188 73.242188 C 47.886719 73.546875 47.75 73.859375 47.585938 74.179688 L 46.585938 74.054688 C 46.804688 73.753906 46.984375 73.453125 47.117188 73.148438 C 47.253906 72.847656 47.335938 72.539063 47.367188 72.226563 C 47.421875 71.8125 47.382813 71.484375 47.257813 71.242188 C 47.125 70.992188 46.914063 70.851563 46.632813 70.820313 C 46.363281 70.78125 46.148438 70.835938 45.992188 70.992188 C 45.828125 71.140625 45.644531 71.476563 45.445313 72.007813 L 45.320313 72.289063 C 45.125 72.820313 44.882813 73.191406 44.601563 73.398438 C 44.3125 73.609375 43.929688 73.6875 43.460938 73.632813 C 42.910156 73.5625 42.503906 73.332031 42.242188 72.945313 C 41.972656 72.550781 41.878906 72.019531 41.960938 71.351563 C 42.003906 71.039063 42.066406 70.742188 42.148438 70.460938 C 42.234375 70.171875 42.34375 69.90625 42.476563 69.664063 Z M 40.933594 66.890625 L 42.621094 67.09375 L 42.839844 65.28125 L 43.605469 65.375 L 43.386719 67.1875 L 46.621094 67.578125 C 47.113281 67.640625 47.433594 67.625 47.589844 67.53125 C 47.738281 67.429688 47.832031 67.1875 47.871094 66.8125 L 47.980469 65.921875 L 48.808594 66.015625 L 48.699219 66.90625 C 48.613281 67.59375 48.417969 68.046875 48.105469 68.265625 C 47.785156 68.484375 47.253906 68.546875 46.511719 68.453125 L 43.277344 68.0625 L 43.199219 68.71875 L 42.433594 68.625 L 42.511719 67.96875 L 40.824219 67.765625 Z M 46.296875 59.871094 L 46.765625 59.917969 L 46.265625 63.980469 C 46.953125 64.023438 47.496094 63.902344 47.890625 63.621094 C 48.277344 63.332031 48.507813 62.898438 48.578125 62.324219 C 48.621094 61.980469 48.617188 61.644531 48.5625 61.308594 C 48.5 60.976563 48.40625 60.644531 48.28125 60.308594 L 49.1875 60.433594 C 49.300781 60.757813 49.375 61.089844 49.40625 61.433594 C 49.445313 61.777344 49.445313 62.121094 49.40625 62.464844 C 49.300781 63.320313 48.941406 63.964844 48.328125 64.402344 C 47.714844 64.832031 46.929688 64.988281 45.96875 64.871094 C 45 64.746094 44.261719 64.414063 43.75 63.871094 C 43.242188 63.332031 43.03125 62.660156 43.125 61.855469 C 43.21875 61.128906 43.546875 60.585938 44.109375 60.230469 C 44.671875 59.878906 45.402344 59.757813 46.296875 59.871094 Z M 45.90625 60.699219 C 45.355469 60.648438 44.90625 60.730469 44.5625 60.949219 C 44.210938 61.167969 44.007813 61.496094 43.953125 61.933594 C 43.890625 62.425781 43.996094 62.839844 44.265625 63.183594 C 44.539063 63.527344 44.953125 63.753906 45.515625 63.855469 Z M 45.054688 54.636719 L 41.835938 54.246094 L 41.945313 53.371094 L 50.242188 54.386719 L 50.132813 55.261719 L 49.226563 55.152344 C 49.570313 55.382813 49.808594 55.652344 49.945313 55.964844 C 50.078125 56.269531 50.125 56.613281 50.085938 56.996094 C 50 57.652344 49.648438 58.152344 49.023438 58.496094 C 48.398438 58.832031 47.613281 58.941406 46.664063 58.824219 C 45.726563 58.699219 45 58.402344 44.476563 57.933594 C 43.957031 57.457031 43.738281 56.886719 43.820313 56.230469 C 43.863281 55.847656 43.988281 55.523438 44.195313 55.261719 C 44.40625 54.992188 44.691406 54.785156 45.054688 54.636719 Z M 46.773438 57.917969 C 47.503906 58.003906 48.09375 57.941406 48.539063 57.730469 C 48.976563 57.511719 49.222656 57.167969 49.273438 56.699219 C 49.335938 56.230469 49.179688 55.835938 48.804688 55.511719 C 48.429688 55.191406 47.878906 54.988281 47.148438 54.902344 C 46.429688 54.808594 45.851563 54.871094 45.414063 55.089844 C 44.976563 55.308594 44.726563 55.652344 44.664063 56.121094 C 44.613281 56.589844 44.773438 56.988281 45.148438 57.308594 C 45.515625 57.621094 46.054688 57.824219 46.773438 57.917969 Z M 42.910156 48.425781 L 43.019531 47.457031 L 50.066406 48.332031 L 50.503906 44.847656 L 51.410156 44.957031 L 50.863281 49.410156 Z M 48.800781 41.171875 C 48.71875 41.882813 48.753906 42.386719 48.910156 42.6875 C 49.066406 42.992188 49.363281 43.167969 49.800781 43.21875 C 50.144531 43.261719 50.433594 43.195313 50.660156 43.015625 C 50.878906 42.828125 51.015625 42.558594 51.066406 42.203125 C 51.121094 41.714844 50.972656 41.296875 50.628906 40.953125 C 50.277344 40.609375 49.78125 40.398438 49.144531 40.3125 L 48.910156 40.28125 Z M 48.628906 39.34375 L 52.035156 39.765625 L 51.925781 40.65625 L 51.019531 40.546875 C 51.363281 40.796875 51.601563 41.085938 51.738281 41.40625 C 51.871094 41.71875 51.914063 42.09375 51.863281 42.53125 C 51.789063 43.085938 51.566406 43.5 51.191406 43.78125 C 50.808594 44.0625 50.328125 44.167969 49.753906 44.09375 C 49.078125 44.011719 48.59375 43.75 48.300781 43.3125 C 48.011719 42.867188 47.917969 42.234375 48.019531 41.421875 L 48.160156 40.1875 L 48.066406 40.1875 C 47.609375 40.125 47.246094 40.214844 46.972656 40.453125 C 46.691406 40.695313 46.519531 41.054688 46.457031 41.53125 C 46.425781 41.835938 46.433594 42.140625 46.472656 42.453125 C 46.515625 42.757813 46.605469 43.046875 46.738281 43.328125 L 45.847656 43.21875 C 45.746094 42.875 45.675781 42.554688 45.644531 42.25 C 45.613281 41.9375 45.613281 41.636719 45.644531 41.34375 C 45.738281 40.574219 46.03125 40.023438 46.519531 39.6875 C 47.011719 39.34375 47.714844 39.230469 48.628906 39.34375 Z M 49.214844 33.058594 L 52.808594 33.496094 L 52.714844 34.371094 L 49.152344 33.933594 C 48.582031 33.863281 48.144531 33.914063 47.839844 34.089844 C 47.539063 34.257813 47.363281 34.539063 47.308594 34.933594 C 47.257813 35.402344 47.382813 35.800781 47.683594 36.121094 C 47.976563 36.433594 48.414063 36.621094 48.996094 36.683594 L 52.371094 37.105469 L 52.261719 37.996094 L 46.292969 37.261719 L 46.402344 36.371094 L 47.324219 36.480469 C 46.992188 36.230469 46.757813 35.957031 46.621094 35.652344 C 46.476563 35.339844 46.429688 34.996094 46.480469 34.621094 C 46.554688 34.007813 46.820313 33.570313 47.277344 33.308594 C 47.738281 33.039063 48.382813 32.957031 49.214844 33.058594 Z M 50.371094 26.746094 L 50.839844 26.792969 L 50.339844 30.855469 C 51.027344 30.898438 51.570313 30.777344 51.964844 30.496094 C 52.351563 30.207031 52.582031 29.773438 52.652344 29.199219 C 52.695313 28.855469 52.691406 28.519531 52.636719 28.183594 C 52.574219 27.851563 52.480469 27.519531 52.355469 27.183594 L 53.261719 27.308594 C 53.375 27.632813 53.449219 27.964844 53.480469 28.308594 C 53.519531 28.652344 53.519531 28.996094 53.480469 29.339844 C 53.375 30.195313 53.015625 30.839844 52.402344 31.277344 C 51.789063 31.707031 51.003906 31.863281 50.042969 31.746094 C 49.074219 31.621094 48.335938 31.289063 47.824219 30.746094 C 47.316406 30.207031 47.105469 29.535156 47.199219 28.730469 C 47.292969 28.003906 47.621094 27.460938 48.183594 27.105469 C 48.746094 26.753906 49.476563 26.632813 50.371094 26.746094 Z M 49.980469 27.574219 C 49.429688 27.523438 48.980469 27.605469 48.636719 27.824219 C 48.285156 28.042969 48.082031 28.371094 48.027344 28.808594 C 47.964844 29.300781 48.070313 29.714844 48.339844 30.058594 C 48.613281 30.402344 49.027344 30.628906 49.589844 30.730469 Z M 49.980469 27.574219 "/>
<path style=" stroke:none;fill-rule:evenodd;fill:rgb(20%,20%,20%);fill-opacity:1;" d="M 37.371094 92.433594 L 37.496094 91.449219 L 40.761719 91.871094 L 41.214844 88.355469 L 37.949219 87.933594 L 38.074219 86.964844 L 46.027344 87.996094 L 45.902344 88.964844 L 42.121094 88.480469 L 41.667969 91.996094 L 45.449219 92.480469 L 45.324219 93.464844 Z M 43.902344 85.882813 L 40.292969 85.429688 L 40.402344 84.554688 L 43.980469 85.007813 C 44.542969 85.082031 44.980469 85.039063 45.292969 84.882813 C 45.597656 84.71875 45.773438 84.441406 45.824219 84.054688 C 45.886719 83.566406 45.773438 83.164063 45.480469 82.851563 C 45.179688 82.53125 44.730469 82.332031 44.136719 82.257813 L 40.761719 81.820313 L 40.871094 80.945313 L 46.839844 81.710938 L 46.730469 82.585938 L 45.808594 82.460938 C 46.144531 82.734375 46.375 83.019531 46.511719 83.320313 C 46.65625 83.625 46.703125 83.960938 46.652344 84.335938 C 46.578125 84.953125 46.308594 85.394531 45.839844 85.664063 C 45.371094 85.925781 44.726563 86 43.902344 85.882813 Z M 40.433594 83.195313 Z M 44.445313 74.871094 L 44.914063 74.933594 L 44.398438 78.996094 C 45.085938 79.050781 45.628906 78.929688 46.023438 78.636719 C 46.410156 78.347656 46.640625 77.914063 46.710938 77.339844 C 46.753906 76.996094 46.753906 76.664063 46.710938 76.339844 C 46.660156 76.019531 46.566406 75.683594 46.429688 75.339844 L 47.335938 75.449219 C 47.449219 75.792969 47.523438 76.136719 47.554688 76.480469 C 47.59375 76.816406 47.589844 77.152344 47.539063 77.496094 C 47.433594 78.351563 47.074219 78.996094 46.460938 79.433594 C 45.835938 79.863281 45.050781 80.011719 44.101563 79.886719 C 43.125 79.761719 42.378906 79.429688 41.867188 78.886719 C 41.359375 78.335938 41.15625 77.660156 41.257813 76.855469 C 41.351563 76.128906 41.6875 75.585938 42.257813 75.230469 C 42.820313 74.878906 43.550781 74.757813 44.445313 74.871094 Z M 44.039063 75.714844 C 43.5 75.652344 43.054688 75.730469 42.710938 75.949219 C 42.359375 76.167969 42.148438 76.496094 42.085938 76.933594 C 42.023438 77.425781 42.128906 77.839844 42.398438 78.183594 C 42.671875 78.527344 43.082031 78.757813 43.632813 78.871094 Z M 42.476563 69.664063 L 43.398438 69.789063 C 43.222656 70.03125 43.085938 70.28125 42.992188 70.539063 C 42.898438 70.789063 42.835938 71.054688 42.804688 71.335938 C 42.742188 71.785156 42.773438 72.128906 42.898438 72.367188 C 43.015625 72.609375 43.21875 72.742188 43.507813 72.773438 C 43.738281 72.804688 43.929688 72.753906 44.085938 72.617188 C 44.234375 72.472656 44.398438 72.171875 44.585938 71.710938 L 44.695313 71.414063 C 44.914063 70.8125 45.179688 70.394531 45.492188 70.164063 C 45.796875 69.925781 46.191406 69.835938 46.679688 69.898438 C 47.222656 69.972656 47.628906 70.226563 47.898438 70.664063 C 48.179688 71.09375 48.277344 71.648438 48.195313 72.335938 C 48.164063 72.628906 48.09375 72.929688 47.992188 73.242188 C 47.886719 73.546875 47.75 73.859375 47.585938 74.179688 L 46.585938 74.054688 C 46.804688 73.753906 46.984375 73.453125 47.117188 73.148438 C 47.253906 72.847656 47.335938 72.539063 47.367188 72.226563 C 47.421875 71.8125 47.382813 71.484375 47.257813 71.242188 C 47.125 70.992188 46.914063 70.851563 46.632813 70.820313 C 46.363281 70.78125 46.148438 70.835938 45.992188 70.992188 C 45.828125 71.140625 45.644531 71.476563 45.445313 72.007813 L 45.320313 72.289063 C 45.125 72.820313 44.882813 73.191406 44.601563 73.398438 C 44.3125 73.609375 43.929688 73.6875 43.460938 73.632813 C 42.910156 73.5625 42.503906 73.332031 42.242188 72.945313 C 41.972656 72.550781 41.878906 72.019531 41.960938 71.351563 C 42.003906 71.039063 42.066406 70.742188 42.148438 70.460938 C 42.234375 70.171875 42.34375 69.90625 42.476563 69.664063 Z M 40.933594 66.890625 L 42.621094 67.09375 L 42.839844 65.28125 L 43.605469 65.375 L 43.386719 67.1875 L 46.621094 67.578125 C 47.113281 67.640625 47.433594 67.625 47.589844 67.53125 C 47.738281 67.429688 47.832031 67.1875 47.871094 66.8125 L 47.980469 65.921875 L 48.808594 66.015625 L 48.699219 66.90625 C 48.613281 67.59375 48.417969 68.046875 48.105469 68.265625 C 47.785156 68.484375 47.253906 68.546875 46.511719 68.453125 L 43.277344 68.0625 L 43.199219 68.71875 L 42.433594 68.625 L 42.511719 67.96875 L 40.824219 67.765625 Z M 46.296875 59.871094 L 46.765625 59.917969 L 46.265625 63.980469 C 46.953125 64.023438 47.496094 63.902344 47.890625 63.621094 C 48.277344 63.332031 48.507813 62.898438 48.578125 62.324219 C 48.621094 61.980469 48.617188 61.644531 48.5625 61.308594 C 48.5 60.976563 48.40625 60.644531 48.28125 60.308594 L 49.1875 60.433594 C 49.300781 60.757813 49.375 61.089844 49.40625 61.433594 C 49.445313 61.777344 49.445313 62.121094 49.40625 62.464844 C 49.300781 63.320313 48.941406 63.964844 48.328125 64.402344 C 47.714844 64.832031 46.929688 64.988281 45.96875 64.871094 C 45 64.746094 44.261719 64.414063 43.75 63.871094 C 43.242188 63.332031 43.03125 62.660156 43.125 61.855469 C 43.21875 61.128906 43.546875 60.585938 44.109375 60.230469 C 44.671875 59.878906 45.402344 59.757813 46.296875 59.871094 Z M 45.90625 60.699219 C 45.355469 60.648438 44.90625 60.730469 44.5625 60.949219 C 44.210938 61.167969 44.007813 61.496094 43.953125 61.933594 C 43.890625 62.425781 43.996094 62.839844 44.265625 63.183594 C 44.539063 63.527344 44.953125 63.753906 45.515625 63.855469 Z M 45.054688 54.636719 L 41.835938 54.246094 L 41.945313 53.371094 L 50.242188 54.386719 L 50.132813 55.261719 L 49.226563 55.152344 C 49.570313 55.382813 49.808594 55.652344 49.945313 55.964844 C 50.078125 56.269531 50.125 56.613281 50.085938 56.996094 C 50 57.652344 49.648438 58.152344 49.023438 58.496094 C 48.398438 58.832031 47.613281 58.941406 46.664063 58.824219 C 45.726563 58.699219 45 58.402344 44.476563 57.933594 C 43.957031 57.457031 43.738281 56.886719 43.820313 56.230469 C 43.863281 55.847656 43.988281 55.523438 44.195313 55.261719 C 44.40625 54.992188 44.691406 54.785156 45.054688 54.636719 Z M 46.773438 57.917969 C 47.503906 58.003906 48.09375 57.941406 48.539063 57.730469 C 48.976563 57.511719 49.222656 57.167969 49.273438 56.699219 C 49.335938 56.230469 49.179688 55.835938 48.804688 55.511719 C 48.429688 55.191406 47.878906 54.988281 47.148438 54.902344 C 46.429688 54.808594 45.851563 54.871094 45.414063 55.089844 C 44.976563 55.308594 44.726563 55.652344 44.664063 56.121094 C 44.613281 56.589844 44.773438 56.988281 45.148438 57.308594 C 45.515625 57.621094 46.054688 57.824219 46.773438 57.917969 Z M 42.910156 48.425781 L 43.019531 47.457031 L 50.066406 48.332031 L 50.503906 44.847656 L 51.410156 44.957031 L 50.863281 49.410156 Z M 48.800781 41.171875 C 48.71875 41.882813 48.753906 42.386719 48.910156 42.6875 C 49.066406 42.992188 49.363281 43.167969 49.800781 43.21875 C 50.144531 43.261719 50.433594 43.195313 50.660156 43.015625 C 50.878906 42.828125 51.015625 42.558594 51.066406 42.203125 C 51.121094 41.714844 50.972656 41.296875 50.628906 40.953125 C 50.277344 40.609375 49.78125 40.398438 49.144531 40.3125 L 48.910156 40.28125 Z M 48.628906 39.34375 L 52.035156 39.765625 L 51.925781 40.65625 L 51.019531 40.546875 C 51.363281 40.796875 51.601563 41.085938 51.738281 41.40625 C 51.871094 41.71875 51.914063 42.09375 51.863281 42.53125 C 51.789063 43.085938 51.566406 43.5 51.191406 43.78125 C 50.808594 44.0625 50.328125 44.167969 49.753906 44.09375 C 49.078125 44.011719 48.59375 43.75 48.300781 43.3125 C 48.011719 42.867188 47.917969 42.234375 48.019531 41.421875 L 48.160156 40.1875 L 48.066406 40.1875 C 47.609375 40.125 47.246094 40.214844 46.972656 40.453125 C 46.691406 40.695313 46.519531 41.054688 46.457031 41.53125 C 46.425781 41.835938 46.433594 42.140625 46.472656 42.453125 C 46.515625 42.757813 46.605469 43.046875 46.738281 43.328125 L 45.847656 43.21875 C 45.746094 42.875 45.675781 42.554688 45.644531 42.25 C 45.613281 41.9375 45.613281 41.636719 45.644531 41.34375 C 45.738281 40.574219 46.03125 40.023438 46.519531 39.6875 C 47.011719 39.34375 47.714844 39.230469 48.628906 39.34375 Z M 49.214844 33.058594 L 52.808594 33.496094 L 52.714844 34.371094 L 49.152344 33.933594 C 48.582031 33.863281 48.144531 33.914063 47.839844 34.089844 C 47.539063 34.257813 47.363281 34.539063 47.308594 34.933594 C 47.257813 35.402344 47.382813 35.800781 47.683594 36.121094 C 47.976563 36.433594 48.414063 36.621094 48.996094 36.683594 L 52.371094 37.105469 L 52.261719 37.996094 L 46.292969 37.261719 L 46.402344 36.371094 L 47.324219 36.480469 C 46.992188 36.230469 46.757813 35.957031 46.621094 35.652344 C 46.476563 35.339844 46.429688 34.996094 46.480469 34.621094 C 46.554688 34.007813 46.820313 33.570313 47.277344 33.308594 C 47.738281 33.039063 48.382813 32.957031 49.214844 33.058594 Z M 50.371094 26.746094 L 50.839844 26.792969 L 50.339844 30.855469 C 51.027344 30.898438 51.570313 30.777344 51.964844 30.496094 C 52.351563 30.207031 52.582031 29.773438 52.652344 29.199219 C 52.695313 28.855469 52.691406 28.519531 52.636719 28.183594 C 52.574219 27.851563 52.480469 27.519531 52.355469 27.183594 L 53.261719 27.308594 C 53.375 27.632813 53.449219 27.964844 53.480469 28.308594 C 53.519531 28.652344 53.519531 28.996094 53.480469 29.339844 C 53.375 30.195313 53.015625 30.839844 52.402344 31.277344 C 51.789063 31.707031 51.003906 31.863281 50.042969 31.746094 C 49.074219 31.621094 48.335938 31.289063 47.824219 30.746094 C 47.316406 30.207031 47.105469 29.535156 47.199219 28.730469 C 47.292969 28.003906 47.621094 27.460938 48.183594 27.105469 C 48.746094 26.753906 49.476563 26.632813 50.371094 26.746094 Z M 49.980469 27.574219 C 49.429688 27.523438 48.980469 27.605469 48.636719 27.824219 C 48.285156 28.042969 48.082031 28.371094 48.027344 28.808594 C 47.964844 29.300781 48.070313 29.714844 48.339844 30.058594 C 48.613281 30.402344 49.027344 30.628906 49.589844 30.730469 Z M 49.980469 27.574219 "/>
</g>
</svg>

