<?xml version="1.0" encoding="UTF-8"?>
<svg xmlns="http://www.w3.org/2000/svg" xmlns:xlink="http://www.w3.org/1999/xlink" width="256pt" height="256pt" viewBox="0 0 256 256" version="1.1">
<g id="surface2">
<rect x="0" y="0" width="256" height="256" style="fill:rgb(94.901961%,93.72549%,91.372549%);fill-opacity:1;stroke:none;"/>
<path style="fill:none;stroke-width:2;stroke-linecap:round;stroke-linejoin:round;stroke:rgb(60%,70.196078%,80%);stroke-opacity:1;stroke-miterlimit:10;" d="M 258 184.863281 L 254.113281 185.980469 L 247.546875 199.386719 L 238.1875 225.574219 L 219.246094 258 "/>
<path style="fill:none;stroke-width:8;stroke-linecap:round;stroke-linejoin:round;stroke:rgb(75.686275%,70.980392%,61.568627%);stroke-opacity:1;stroke-miterlimit:10;" d="M 107.820313 250.855469 L 79.972656 262.457031 "/>
<path style="fill:none;stroke-width:8;stroke-linecap:round;stroke-linejoin:round;stroke:rgb(75.686275%,70.980392%,61.568627%);stroke-opacity:1;stroke-miterlimit:10;" d="M 112.929688 264 L 111.734375 261.265625 L 107.820313 250.855469 L 102.71875 237.304688 L 101.085938 235.890625 L 92.699219 233.03125 L 90.4375 231.585938 L 89.621094 229.320313 L 87.992188 223.472656 "/>
<path style="fill:none;stroke-width:8;stroke-linecap:round;stroke-linejoin:round;stroke:rgb(75.686275%,70.980392%,61.568627%);stroke-opacity:1;stroke-miterlimit:10;" d="M 177.78125 264 L 177.027344 255.511719 L 177.144531 248.875 L 177.632813 243.40625 L 178.773438 237.402344 L 180.148438 233.15625 L 182.128906 227.8125 L 189.121094 212.5625 L 194.96875 199.230469 L 199.722656 185.996094 L 202.214844 177.632813 L 208.714844 156.785156 L 213.820313 139.554688 L 226.542969 93.019531 L 228.917969 82.644531 L 229.546875 78.523438 L 229.921875 74.53125 L 230.152344 61.921875 L 229.78125 55.160156 L 228.777344 50.320313 L 219.179688 25.226563 L 215.472656 15.164063 L 214.472656 8.6875 L 214.355469 -0.304688 L 215.945313 -9 "/>
<path style="fill:none;stroke-width:6;stroke-linecap:round;stroke-linejoin:round;stroke:rgb(100%,100%,100%);stroke-opacity:1;stroke-miterlimit:10;" d="M 107.820313 250.855469 L 79.972656 262.457031 "/>
<path style="fill:none;stroke-width:6;stroke-linecap:round;stroke-linejoin:round;stroke:rgb(100%,100%,100%);stroke-opacity:1;stroke-miterlimit:10;" d="M 112.929688 264 L 111.734375 261.265625 L 107.820313 250.855469 L 102.71875 237.304688 L 101.085938 235.890625 L 92.699219 233.03125 L 90.4375 231.585938 L 89.621094 229.320313 L 87.992188 223.472656 "/>
<path style="fill:none;stroke-width:6;stroke-linecap:round;stroke-linejoin:round;stroke:rgb(100%,100%,100%);stroke-opacity:1;stroke-miterlimit:10;" d="M 177.78125 264 L 177.027344 255.511719 L 177.144531 248.875 L 177.632813 243.40625 L 178.773438 237.402344 L 180.148438 233.15625 L 182.128906 227.8125 L 189.121094 212.5625 L 194.96875 199.230469 L 199.722656 185.996094 L 202.214844 177.632813 L 208.714844 156.785156 L 213.820313 139.554688 L 226.542969 93.019531 L 228.917969 82.644531 L 229.546875 78.523438 L 229.921875 74.53125 L 230.152344 61.921875 L 229.78125 55.160156 L 228.777344 50.320313 L 219.179688 25.226563 L 215.472656 15.164063 L 214.472656 8.6875 L 214.355469 -0.304688 L 215.945313 -9 "/>
<path style="fill:none;stroke-width:3;stroke-linecap:round;stroke-linejoin:round;stroke:rgb(100%,100%,100%);stroke-opacity:1;stroke-miterlimit:10;" d="M 202.441406 163.375 L 202.738281 162.4375 L 205.878906 163.421875 L 206.941406 160.03125 L 203.800781 159.046875 L 204.082031 158.125 L 211.738281 160.515625 L 211.457031 161.4375 L 207.816406 160.296875 L 206.753906 163.6875 L 210.394531 164.828125 L 210.097656 165.765625 Z M 206.570313 156.910156 L 206.820313 156.050781 L 212.570313 157.816406 L 212.320313 158.675781 Z M 204.320313 156.238281 L 204.570313 155.378906 L 205.773438 155.738281 L 205.523438 156.597656 Z M 211.179688 151.714844 C 210.492188 151.507813 209.925781 151.476563 209.476563 151.621094 C 209.019531 151.769531 208.722656 152.074219 208.585938 152.542969 C 208.453125 152.992188 208.535156 153.398438 208.835938 153.761719 C 209.140625 154.128906 209.632813 154.414063 210.320313 154.621094 C 211 154.820313 211.566406 154.851563 212.023438 154.714844 C 212.472656 154.570313 212.765625 154.273438 212.898438 153.824219 C 213.03125 153.355469 212.949219 152.941406 212.648438 152.574219 C 212.347656 152.199219 211.859375 151.914063 211.179688 151.714844 Z M 213.664063 151.511719 C 214.652344 151.804688 215.324219 152.222656 215.679688 152.761719 C 216.042969 153.292969 216.105469 153.964844 215.867188 154.777344 C 215.773438 155.070313 215.65625 155.347656 215.523438 155.605469 C 215.398438 155.855469 215.25 156.089844 215.085938 156.308594 L 214.164063 156.027344 C 214.390625 155.832031 214.574219 155.621094 214.710938 155.402344 C 214.855469 155.175781 214.964844 154.933594 215.039063 154.683594 C 215.203125 154.132813 215.167969 153.667969 214.929688 153.292969 C 214.6875 152.910156 214.242188 152.621094 213.585938 152.433594 L 213.117188 152.292969 C 213.398438 152.566406 213.578125 152.867188 213.664063 153.199219 C 213.757813 153.523438 213.746094 153.871094 213.632813 154.246094 C 213.445313 154.894531 213.023438 155.332031 212.367188 155.558594 C 211.710938 155.777344 210.941406 155.757813 210.054688 155.496094 C 209.171875 155.238281 208.515625 154.835938 208.085938 154.292969 C 207.660156 153.742188 207.539063 153.144531 207.726563 152.496094 C 207.84375 152.121094 208.023438 151.820313 208.273438 151.589844 C 208.523438 151.363281 208.84375 151.210938 209.226563 151.136719 L 208.367188 150.886719 L 208.617188 150.027344 Z M 212.714844 144.628906 L 216.183594 145.660156 L 215.933594 146.519531 L 212.480469 145.503906 C 211.941406 145.339844 211.507813 145.3125 211.183594 145.425781 C 210.851563 145.542969 210.628906 145.792969 210.511719 146.175781 C 210.378906 146.636719 210.433594 147.046875 210.683594 147.410156 C 210.925781 147.765625 211.324219 148.027344 211.886719 148.191406 L 215.152344 149.160156 L 214.886719 150.019531 L 206.871094 147.644531 L 207.136719 146.785156 L 210.277344 147.722656 C 209.988281 147.421875 209.800781 147.109375 209.714844 146.785156 C 209.621094 146.453125 209.628906 146.097656 209.730469 145.722656 C 209.910156 145.140625 210.253906 144.753906 210.761719 144.566406 C 211.261719 144.371094 211.914063 144.390625 212.714844 144.628906 Z M 209.878906 138.703125 L 210.988281 134.703125 L 211.863281 134.9375 L 211.019531 138 L 213.285156 138.640625 L 214.050781 135.875 L 214.941406 136.109375 L 214.175781 138.875 L 217.863281 139.90625 L 217.597656 140.84375 Z M 216.828125 132.222656 C 216.640625 132.910156 216.605469 133.410156 216.71875 133.722656 C 216.824219 134.035156 217.085938 134.25 217.5 134.363281 C 217.835938 134.457031 218.132813 134.4375 218.390625 134.300781 C 218.652344 134.15625 218.828125 133.910156 218.921875 133.566406 C 219.046875 133.089844 218.957031 132.65625 218.65625 132.269531 C 218.355469 131.875 217.898438 131.59375 217.28125 131.425781 L 217.0625 131.363281 Z M 216.90625 130.394531 L 220.21875 131.300781 L 219.984375 132.160156 L 219.109375 131.925781 C 219.410156 132.21875 219.601563 132.535156 219.6875 132.878906 C 219.78125 133.214844 219.769531 133.589844 219.65625 134.003906 C 219.507813 134.546875 219.226563 134.925781 218.8125 135.144531 C 218.386719 135.363281 217.890625 135.394531 217.328125 135.238281 C 216.671875 135.0625 216.234375 134.734375 216.015625 134.253906 C 215.796875 133.777344 215.792969 133.144531 216 132.363281 L 216.328125 131.160156 L 216.234375 131.128906 C 215.789063 131.015625 215.414063 131.058594 215.109375 131.253906 C 214.796875 131.441406 214.574219 131.769531 214.4375 132.238281 C 214.367188 132.53125 214.328125 132.832031 214.328125 133.144531 C 214.328125 133.449219 214.375 133.753906 214.46875 134.066406 L 213.59375 133.816406 C 213.53125 133.464844 213.511719 133.128906 213.53125 132.816406 C 213.542969 132.503906 213.589844 132.207031 213.671875 131.925781 C 213.882813 131.175781 214.25 130.675781 214.78125 130.425781 C 215.3125 130.167969 216.023438 130.15625 216.90625 130.394531 Z M 212.644531 127.328125 L 212.878906 126.46875 L 220.941406 128.671875 L 220.707031 129.53125 Z M 213.371094 124.675781 L 213.605469 123.816406 L 221.667969 126.019531 L 221.433594 126.878906 Z M 217.425781 119.351563 L 218.332031 119.601563 C 218.136719 119.820313 217.96875 120.050781 217.832031 120.289063 C 217.6875 120.519531 217.578125 120.773438 217.503906 121.054688 C 217.378906 121.492188 217.363281 121.835938 217.457031 122.085938 C 217.542969 122.335938 217.722656 122.5 218.003906 122.570313 C 218.222656 122.632813 218.417969 122.609375 218.582031 122.492188 C 218.75 122.367188 218.957031 122.097656 219.207031 121.679688 L 219.363281 121.414063 C 219.667969 120.84375 219.988281 120.46875 220.332031 120.289063 C 220.667969 120.101563 221.074219 120.070313 221.550781 120.195313 C 222.082031 120.34375 222.449219 120.648438 222.660156 121.117188 C 222.878906 121.585938 222.894531 122.160156 222.707031 122.835938 C 222.632813 123.117188 222.523438 123.398438 222.378906 123.679688 C 222.230469 123.953125 222.050781 124.242188 221.832031 124.554688 L 220.863281 124.289063 C 221.125 124.019531 221.34375 123.742188 221.519531 123.460938 C 221.699219 123.179688 221.828125 122.894531 221.910156 122.601563 C 222.023438 122.195313 222.035156 121.863281 221.941406 121.601563 C 221.847656 121.332031 221.667969 121.160156 221.394531 121.085938 C 221.125 121.023438 220.894531 121.050781 220.707031 121.164063 C 220.519531 121.28125 220.296875 121.59375 220.035156 122.101563 L 219.863281 122.351563 C 219.605469 122.851563 219.3125 123.1875 218.988281 123.351563 C 218.667969 123.519531 218.28125 123.539063 217.832031 123.414063 C 217.292969 123.269531 216.921875 122.984375 216.722656 122.554688 C 216.515625 122.128906 216.5 121.59375 216.675781 120.945313 C 216.761719 120.632813 216.871094 120.347656 217.003906 120.085938 C 217.128906 119.816406 217.269531 119.570313 217.425781 119.351563 Z M 221.628906 111.894531 C 221.753906 111.730469 221.96875 111.582031 222.269531 111.457031 C 222.574219 111.324219 222.972656 111.21875 223.472656 111.144531 L 225.832031 110.769531 L 225.566406 111.785156 L 223.332031 112.113281 C 222.75 112.21875 222.347656 112.355469 222.128906 112.519531 C 221.902344 112.6875 221.734375 112.957031 221.628906 113.332031 L 221.347656 114.347656 L 224.613281 115.238281 L 224.347656 116.191406 L 216.613281 114.082031 L 217.207031 111.957031 C 217.425781 111.15625 217.777344 110.613281 218.253906 110.332031 C 218.722656 110.042969 219.332031 110 220.082031 110.207031 C 220.5625 110.332031 220.9375 110.542969 221.207031 110.832031 C 221.46875 111.113281 221.609375 111.46875 221.628906 111.894531 Z M 217.738281 113.363281 L 220.488281 114.113281 L 220.816406 112.941406 C 220.941406 112.484375 220.921875 112.109375 220.753906 111.816406 C 220.578125 111.515625 220.265625 111.300781 219.816406 111.175781 C 219.371094 111.050781 219 111.078125 218.707031 111.253906 C 218.40625 111.421875 218.191406 111.734375 218.066406 112.191406 Z M 221.566406 106.167969 C 221.441406 106.628906 221.546875 107.042969 221.878906 107.417969 C 222.203125 107.792969 222.714844 108.074219 223.410156 108.261719 C 224.097656 108.460938 224.683594 108.480469 225.160156 108.324219 C 225.628906 108.160156 225.925781 107.847656 226.050781 107.386719 C 226.175781 106.917969 226.074219 106.503906 225.753906 106.136719 C 225.421875 105.761719 224.910156 105.476563 224.222656 105.277344 C 223.527344 105.089844 222.941406 105.074219 222.472656 105.230469 C 221.996094 105.386719 221.691406 105.699219 221.566406 106.167969 Z M 220.769531 105.949219 C 220.980469 105.199219 221.410156 104.691406 222.066406 104.417969 C 222.714844 104.136719 223.515625 104.128906 224.472656 104.386719 C 225.410156 104.648438 226.089844 105.066406 226.519531 105.636719 C 226.957031 106.210938 227.070313 106.871094 226.863281 107.621094 C 226.652344 108.371094 226.222656 108.882813 225.566406 109.152344 C 224.902344 109.425781 224.097656 109.429688 223.160156 109.167969 C 222.203125 108.910156 221.515625 108.496094 221.097656 107.933594 C 220.671875 107.363281 220.5625 106.699219 220.769531 105.949219 Z M 225.472656 100.601563 C 225.285156 101.289063 225.25 101.789063 225.363281 102.101563 C 225.46875 102.414063 225.730469 102.628906 226.144531 102.742188 C 226.480469 102.835938 226.777344 102.816406 227.035156 102.679688 C 227.296875 102.535156 227.472656 102.289063 227.566406 101.945313 C 227.691406 101.46875 227.601563 101.035156 227.300781 100.648438 C 227 100.253906 226.542969 99.972656 225.925781 99.804688 L 225.707031 99.742188 Z M 225.550781 98.773438 L 228.863281 99.679688 L 228.628906 100.539063 L 227.753906 100.304688 C 228.054688 100.597656 228.246094 100.914063 228.332031 101.257813 C 228.425781 101.59375 228.414063 101.96875 228.300781 102.382813 C 228.152344 102.925781 227.871094 103.304688 227.457031 103.523438 C 227.03125 103.742188 226.535156 103.773438 225.972656 103.617188 C 225.316406 103.441406 224.878906 103.113281 224.660156 102.632813 C 224.441406 102.15625 224.4375 101.523438 224.644531 100.742188 L 224.972656 99.539063 L 224.878906 99.507813 C 224.433594 99.394531 224.058594 99.4375 223.753906 99.632813 C 223.441406 99.820313 223.21875 100.148438 223.082031 100.617188 C 223.011719 100.910156 222.972656 101.210938 222.972656 101.523438 C 222.972656 101.828125 223.019531 102.132813 223.113281 102.445313 L 222.238281 102.195313 C 222.175781 101.84375 222.15625 101.507813 222.175781 101.195313 C 222.1875 100.882813 222.234375 100.585938 222.316406 100.304688 C 222.527344 99.554688 222.894531 99.054688 223.425781 98.804688 C 223.957031 98.546875 224.667969 98.535156 225.550781 98.773438 Z M 225.316406 93.140625 L 222.175781 92.3125 L 222.410156 91.4375 L 230.488281 93.5625 L 230.253906 94.4375 L 229.378906 94.203125 C 229.691406 94.476563 229.894531 94.773438 229.988281 95.09375 C 230.082031 95.417969 230.074219 95.773438 229.972656 96.15625 C 229.804688 96.792969 229.386719 97.234375 228.722656 97.484375 C 228.058594 97.726563 227.265625 97.726563 226.347656 97.484375 C 225.433594 97.246094 224.75 96.855469 224.300781 96.3125 C 223.84375 95.773438 223.699219 95.183594 223.863281 94.546875 C 223.96875 94.164063 224.140625 93.855469 224.378906 93.625 C 224.621094 93.386719 224.933594 93.226563 225.316406 93.140625 Z M 226.582031 96.59375 C 227.292969 96.78125 227.878906 96.804688 228.347656 96.65625 C 228.808594 96.5 229.09375 96.195313 229.207031 95.734375 C 229.332031 95.277344 229.230469 94.867188 228.910156 94.5 C 228.578125 94.136719 228.058594 93.859375 227.347656 93.671875 C 226.652344 93.484375 226.066406 93.46875 225.597656 93.625 C 225.128906 93.78125 224.832031 94.089844 224.707031 94.546875 C 224.59375 95.007813 224.703125 95.417969 225.035156 95.78125 C 225.371094 96.136719 225.886719 96.40625 226.582031 96.59375 Z M 226.582031 96.59375 "/>
<path style=" stroke:none;fill-rule:evenodd;fill:rgb(20%,20%,20%);fill-opacity:1;" d="M 202.441406 163.375 L 202.738281 162.4375 L 205.878906 163.421875 L 206.941406 160.03125 L 203.800781 159.046875 L 204.082031 158.125 L 211.738281 160.515625 L 211.457031 161.4375 L 207.816406 160.296875 L 206.753906 163.6875 L 210.394531 164.828125 L 210.097656 165.765625 Z M 206.570313 156.910156 L 206.820313 156.050781 L 212.570313 157.816406 L 212.320313 158.675781 Z M 204.320313 156.238281 L 204.570313 155.378906 L 205.773438 155.738281 L 205.523438 156.597656 Z M 211.179688 151.714844 C 210.492188 151.507813 209.925781 151.476563 209.476563 151.621094 C 209.019531 151.769531 208.722656 152.074219 208.585938 152.542969 C 208.453125 152.992188 208.535156 153.398438 208.835938 153.761719 C 209.140625 154.128906 209.632813 154.414063 210.320313 154.621094 C 211 154.820313 211.566406 154.851563 212.023438 154.714844 C 212.472656 154.570313 212.765625 154.273438 212.898438 153.824219 C 213.03125 153.355469 212.949219 152.941406 212.648438 152.574219 C 212.347656 152.199219 211.859375 151.914063 211.179688 151.714844 Z M 213.664063 151.511719 C 214.652344 151.804688 215.324219 152.222656 215.679688 152.761719 C 216.042969 153.292969 216.105469 153.964844 215.867188 154.777344 C 215.773438 155.070313 215.65625 155.347656 215.523438 155.605469 C 215.398438 155.855469 215.25 156.089844 215.085938 156.308594 L 214.164063 156.027344 C 214.390625 155.832031 214.574219 155.621094 214.710938 155.402344 C 214.855469 155.175781 214.964844 154.933594 215.039063 154.683594 C 215.203125 154.132813 215.167969 153.667969 214.929688 153.292969 C 214.6875 152.910156 214.242188 152.621094 213.585938 152.433594 L 213.117188 152.292969 C 213.398438 152.566406 213.578125 152.867188 213.664063 153.199219 C 213.757813 153.523438 213.746094 153.871094 213.632813 154.246094 C 213.445313 154.894531 213.023438 155.332031 212.367188 155.558594 C 211.710938 155.777344 210.941406 155.757813 210.054688 155.496094 C 209.171875 155.238281 208.515625 154.835938 208.085938 154.292969 C 207.660156 153.742188 207.539063 153.144531 207.726563 152.496094 C 207.84375 152.121094 208.023438 151.820313 208.273438 151.589844 C 208.523438 151.363281 208.84375 151.210938 209.226563 151.136719 L 208.367188 150.886719 L 208.617188 150.027344 Z M 212.714844 144.628906 L 216.183594 145.660156 L 215.933594 146.519531 L 212.480469 145.503906 C 211.941406 145.339844 211.507813 145.3125 211.183594 145.425781 C 210.851563 145.542969 210.628906 145.792969 210.511719 146.175781 C 210.378906 146.636719 210.433594 147.046875 210.683594 147.410156 C 210.925781 147.765625 211.324219 148.027344 211.886719 148.191406 L 215.152344 149.160156 L 214.886719 150.019531 L 206.871094 147.644531 L 207.136719 146.785156 L 210.277344 147.722656 C 209.988281 147.421875 209.800781 147.109375 209.714844 146.785156 C 209.621094 146.453125 209.628906 146.097656 209.730469 145.722656 C 209.910156 145.140625 210.253906 144.753906 210.761719 144.566406 C 211.261719 144.371094 211.914063 144.390625 212.714844 144.628906 Z M 209.878906 138.703125 L 210.988281 134.703125 L 211.863281 134.9375 L 211.019531 138 L 213.285156 138.640625 L 214.050781 135.875 L 214.941406 136.109375 L 214.175781 138.875 L 217.863281 139.90625 L 217.597656 140.84375 Z M 216.828125 132.222656 C 216.640625 132.910156 216.605469 133.410156 216.71875 133.722656 C 216.824219 134.035156 217.085938 134.25 217.5 134.363281 C 217.835938 134.457031 218.132813 134.4375 218.390625 134.300781 C 218.652344 134.15625 218.828125 133.910156 218.921875 133.566406 C 219.046875 133.089844 218.957031 132.65625 218.65625 132.269531 C 218.355469 131.875 217.898438 131.59375 217.28125 131.425781 L 217.0625 131.363281 Z M 216.90625 130.394531 L 220.21875 131.300781 L 219.984375 132.160156 L 219.109375 131.925781 C 219.410156 132.21875 219.601563 132.535156 219.6875 132.878906 C 219.78125 133.214844 219.769531 133.589844 219.65625 134.003906 C 219.507813 134.546875 219.226563 134.925781 218.8125 135.144531 C 218.386719 135.363281 217.890625 135.394531 217.328125 135.238281 C 216.671875 135.0625 216.234375 134.734375 216.015625 134.253906 C 215.796875 133.777344 215.792969 133.144531 216 132.363281 L 216.328125 131.160156 L 216.234375 131.128906 C 215.789063 131.015625 215.414063 131.058594 215.109375 131.253906 C 214.796875 131.441406 214.574219 131.769531 214.4375 132.238281 C 214.367188 132.53125 214.328125 132.832031 214.328125 133.144531 C 214.328125 133.449219 214.375 133.753906 214.46875 134.066406 L 213.59375 133.816406 C 213.53125 133.464844 213.511719 133.128906 213.53125 132.816406 C 213.542969 132.503906 213.589844 132.207031 213.671875 131.925781 C 213.882813 131.175781 214.25 130.675781 214.78125 130.425781 C 215.3125 130.167969 216.023438 130.15625 216.90625 130.394531 Z M 212.644531 127.328125 L 212.878906 126.46875 L 220.941406 128.671875 L 220.707031 129.53125 Z M 213.371094 124.675781 L 213.605469 123.816406 L 221.667969 126.019531 L 221.433594 126.878906 Z M 217.425781 119.351563 L 218.332031 119.601563 C 218.136719 119.820313 217.96875 120.050781 217.832031 120.289063 C 217.6875 120.519531 217.578125 120.773438 217.503906 121.054688 C 217.378906 121.492188 217.363281 121.835938 217.457031 122.085938 C 217.542969 122.335938 217.722656 122.5 218.003906 122.570313 C 218.222656 122.632813 218.417969 122.609375 218.582031 122.492188 C 218.75 122.367188 218.957031 122.097656 219.207031 121.679688 L 219.363281 121.414063 C 219.667969 120.84375 219.988281 120.46875 220.332031 120.289063 C 220.667969 120.101563 221.074219 120.070313 221.550781 120.195313 C 222.082031 120.34375 222.449219 120.648438 222.660156 121.117188 C 222.878906 121.585938 222.894531 122.160156 222.707031 122.835938 C 222.632813 123.117188 222.523438 123.398438 222.378906 123.679688 C 222.230469 123.953125 222.050781 124.242188 221.832031 124.554688 L 220.863281 124.289063 C 221.125 124.019531 221.34375 123.742188 221.519531 123.460938 C 221.699219 123.179688 221.828125 122.894531 221.910156 122.601563 C 222.023438 122.195313 222.035156 121.863281 221.941406 121.601563 C 221.847656 121.332031 221.667969 121.160156 221.394531 121.085938 C 221.125 121.023438 220.894531 121.050781 220.707031 121.164063 C 220.519531 121.28125 220.296875 121.59375 220.035156 122.101563 L 219.863281 122.351563 C 219.605469 122.851563 219.3125 123.1875 218.988281 123.351563 C 218.667969 123.519531 218.28125 123.539063 217.832031 123.414063 C 217.292969 123.269531 216.921875 122.984375 216.722656 122.554688 C 216.515625 122.128906 216.5 121.59375 216.675781 120.945313 C 216.761719 120.632813 216.871094 120.347656 217.003906 120.085938 C 217.128906 119.816406 217.269531 119.570313 217.425781 119.351563 Z M 221.628906 111.894531 C 221.753906 111.730469 221.96875 111.582031 222.269531 111.457031 C 222.574219 111.324219 222.972656 111.21875 223.472656 111.144531 L 225.832031 110.769531 L 225.566406 111.785156 L 223.332031 112.113281 C 222.75 112.21875 222.347656 112.355469 222.128906 112.519531 C 221.902344 112.6875 221.734375 112.957031 221.628906 113.332031 L 221.347656 114.347656 L 224.613281 115.238281 L 224.347656 116.191406 L 216.613281 114.082031 L 217.207031 111.957031 C 217.425781 111.15625 217.777344 110.613281 218.253906 110.332031 C 218.722656 110.042969 219.332031 110 220.082031 110.207031 C 220.5625 110.332031 220.9375 110.542969 221.207031 110.832031 C 221.46875 111.113281 221.609375 111.46875 221.628906 111.894531 Z M 217.738281 113.363281 L 220.488281 114.113281 L 220.816406 112.941406 C 220.941406 112.484375 220.921875 112.109375 220.753906 111.816406 C 220.578125 111.515625 220.265625 111.300781 219.816406 111.175781 C 219.371094 111.050781 219 111.078125 218.707031 111.253906 C 218.40625 111.421875 218.191406 111.734375 218.066406 112.191406 Z M 221.566406 106.167969 C 221.441406 106.628906 221.546875 107.042969 221.878906 107.417969 C 222.203125 107.792969 222.714844 108.074219 223.410156 108.261719 C 224.097656 108.460938 224.683594 108.480469 225.160156 108.324219 C 225.628906 108.160156 225.925781 107.847656 226.050781 107.386719 C 226.175781 106.917969 226.074219 106.503906 225.753906 106.136719 C 225.421875 105.761719 224.910156 105.476563 224.222656 105.277344 C 223.527344 105.089844 222.941406 105.074219 222.472656 105.230469 C 221.996094 105.386719 221.691406 105.699219 221.566406 106.167969 Z M 220.769531 105.949219 C 220.980469 105.199219 221.410156 104.691406 222.066406 104.417969 C 222.714844 104.136719 223.515625 104.128906 224.472656 104.386719 C 225.410156 104.648438 226.089844 105.066406 226.519531 105.636719 C 226.957031 106.210938 227.070313 106.871094 226.863281 107.621094 C 226.652344 108.371094 226.222656 108.882813 225.566406 109.152344 C 224.902344 109.425781 224.097656 109.429688 223.160156 109.167969 C 222.203125 108.910156 221.515625 108.496094 221.097656 107.933594 C 220.671875 107.363281 220.5625 106.699219 220.769531 105.949219 Z M 225.472656 100.601563 C 225.285156 101.289063 225.25 101.789063 225.363281 102.101563 C 225.46875 102.414063 225.730469 102.628906 226.144531 102.742188 C 226.480469 102.835938 226.777344 102.816406 227.035156 102.679688 C 227.296875 102.535156 227.472656 102.289063 227.566406 101.945313 C 227.691406 101.46875 227.601563 101.035156 227.300781 100.648438 C 227 100.253906 226.542969 99.972656 225.925781 99.804688 L 225.707031 99.742188 Z M 225.550781 98.773438 L 228.863281 99.679688 L 228.628906 100.539063 L 227.753906 100.304688 C 228.054688 100.597656 228.246094 100.914063 228.332031 101.257813 C 228.425781 101.59375 228.414063 101.96875 228.300781 102.382813 C 228.152344 102.925781 227.871094 103.304688 227.457031 103.523438 C 227.03125 103.742188 226.535156 103.773438 225.972656 103.617188 C 225.316406 103.441406 224.878906 103.113281 224.660156 102.632813 C 224.441406 102.15625 224.4375 101.523438 224.644531 100.742188 L 224.972656 99.539063 L 224.878906 99.507813 C 224.433594 99.394531 224.058594 99.4375 223.753906 99.632813 C 223.441406 99.820313 223.21875 100.148438 223.082031 100.617188 C 223.011719 100.910156 222.972656 101.210938 222.972656 101.523438 C 222.972656 101.828125 223.019531 102.132813 223.113281 102.445313 L 222.238281 102.195313 C 222.175781 101.84375 222.15625 101.507813 222.175781 101.195313 C 222.1875 100.882813 222.234375 100.585938 222.316406 100.304688 C 222.527344 99.554688 222.894531 99.054688 223.425781 98.804688 C 223.957031 98.546875 224.667969 98.535156 225.550781 98.773438 Z M 225.316406 93.140625 L 222.175781 92.3125 L 222.410156 91.4375 L 230.488281 93.5625 L 230.253906 94.4375 L 229.378906 94.203125 C 229.691406 94.476563 229.894531 94.773438 229.988281 95.09375 C 230.082031 95.417969 230.074219 95.773438 229.972656 96.15625 C 229.804688 96.792969 229.386719 97.234375 228.722656 97.484375 C 228.058594 97.726563 227.265625 97.726563 226.347656 97.484375 C 225.433594 97.246094 224.75 96.855469 224.300781 96.3125 C 223.84375 95.773438 223.699219 95.183594 223.863281 94.546875 C 223.96875 94.164063 224.140625 93.855469 224.378906 93.625 C 224.621094 93.386719 224.933594 93.226563 225.316406 93.140625 Z M 226.582031 96.59375 C 227.292969 96.78125 227.878906 96.804688 228.347656 96.65625 C 228.808594 96.5 229.09375 96.195313 229.207031 95.734375 C 229.332031 95.277344 229.230469 94.867188 228.910156 94.5 C 228.578125 94.136719 228.058594 93.859375 227.347656 93.671875 C 226.652344 93.484375 226.066406 93.46875 225.597656 93.625 C 225.128906 93.78125 224.832031 94.089844 224.707031 94.546875 C 224.59375 95.007813 224.703125 95.417969 225.035156 95.78125 C 225.371094 96.136719 225.886719 96.40625 226.582031 96.59375 Z M 226.582031 96.59375 "/>
</g>
</svg>

