<?xml version="1.0" encoding="UTF-8"?>
<svg xmlns="http://www.w3.org/2000/svg" xmlns:xlink="http://www.w3.org/1999/xlink" width="256pt" height="256pt" viewBox="0 0 256 256" version="1.1">
<g id="surface2">
<rect x="0" y="0" width="256" height="256" style="fill:rgb(94.901961%,93.72549%,91.372549%);fill-opacity:1;stroke:none;"/>
<path style="fill:none;stroke-width:8;stroke-linecap:round;stroke-linejoin:round;stroke:rgb(75.686275%,70.980392%,61.568627%);stroke-opacity:1;stroke-miterlimit:10;" d="M 199.949219 264 L 194.175781 253.589844 L 190.5625 247.617188 L 184.4375 238.445313 L 182.453125 236.0625 L 176.652344 231.429688 L 166.632813 231.785156 L 163.558594 230.972656 L 162.160156 230.1875 L 160.203125 227.019531 L 157.078125 220.003906 L 154.027344 216.871094 L 147.804688 212.5625 L 144.894531 208.773438 L 141.5625 205.3125 L 137.550781 202.214844 L 134.195313 199.175781 L 131.9375 196.730469 L 129.234375 191.769531 L 122.5 186.089844 L 110.078125 174.371094 L 109.382813 173.355469 L 108.542969 169.472656 L 108.332031 165.492188 L 109.007813 162.75 L 113.433594 155.242188 L 115.625 151.976563 "/>
<path style="fill:none;stroke-width:6;stroke-linecap:round;stroke-linejoin:round;stroke:rgb(100%,100%,100%);stroke-opacity:1;stroke-miterlimit:10;" d="M 199.949219 264 L 194.175781 253.589844 L 190.5625 247.617188 L 184.4375 238.445313 L 182.453125 236.0625 L 176.652344 231.429688 L 166.632813 231.785156 L 163.558594 230.972656 L 162.160156 230.1875 L 160.203125 227.019531 L 157.078125 220.003906 L 154.027344 216.871094 L 147.804688 212.5625 L 144.894531 208.773438 L 141.5625 205.3125 L 137.550781 202.214844 L 134.195313 199.175781 L 131.9375 196.730469 L 129.234375 191.769531 L 122.5 186.089844 L 110.078125 174.371094 L 109.382813 173.355469 L 108.542969 169.472656 L 108.332031 165.492188 L 109.007813 162.75 L 113.433594 155.242188 L 115.625 151.976563 "/>
</g>
</svg>

