<?xml version="1.0" encoding="UTF-8"?>
<svg xmlns="http://www.w3.org/2000/svg" xmlns:xlink="http://www.w3.org/1999/xlink" width="256pt" height="256pt" viewBox="0 0 256 256" version="1.1">
<g id="surface2">
<rect x="0" y="0" width="256" height="256" style="fill:rgb(94.901961%,93.72549%,91.372549%);fill-opacity:1;stroke:none;"/>
<path style="fill:none;stroke-width:2;stroke-linecap:round;stroke-linejoin:round;stroke:rgb(60%,70.196078%,80%);stroke-opacity:1;stroke-miterlimit:10;" d="M 258 19.652344 L 238.390625 21.207031 L 219.246094 17.988281 L 203.804688 18.308594 L 181.601563 13.484375 L 157.792969 13.324219 L 138.328125 7.210938 L 117.414063 -2.761719 L 117.246094 -3 "/>
<path style="fill:none;stroke-width:1;stroke-linecap:round;stroke-linejoin:round;stroke:rgb(100%,100%,100%);stroke-opacity:1;stroke-dasharray:2,3;stroke-miterlimit:10;" d="M 116.175781 -2 L 122.390625 3.910156 L 139.65625 9.011719 L 148.167969 19.472656 L 152.179688 31.507813 L 164.824219 45.851563 L 170.902344 55.945313 L 180.585938 62.332031 L 183.988281 67.195313 L 189.703125 70.476563 L 194.6875 81.417969 L 201.984375 92.847656 L 206.238281 98.925781 L 219.613281 108.898438 L 229.582031 115.949219 L 232.863281 126.644531 L 231.894531 138.316406 L 229.21875 145.25 L 229.339844 158.5 L 228.488281 166.527344 L 225.691406 169.445313 L 225.691406 177.710938 L 227.515625 187.074219 L 229.828125 197.773438 L 232.5 203.242188 L 232.742188 213.335938 L 231.648438 216.132813 L 233.105469 219.171875 L 231.40625 230.355469 L 232.292969 232.414063 L 231.542969 234.292969 L 234.546875 236.289063 L 235.230469 240.667969 L 240.171875 246.726563 L 246.605469 252.605469 L 248.695313 257 "/>
</g>
</svg>

