<?xml version="1.0" encoding="UTF-8"?>
<svg xmlns="http://www.w3.org/2000/svg" xmlns:xlink="http://www.w3.org/1999/xlink" width="256pt" height="256pt" viewBox="0 0 256 256" version="1.1">
<g id="surface2">
<rect x="0" y="0" width="256" height="256" style="fill:rgb(60%,70.196078%,80%);fill-opacity:1;stroke:none;"/>
<path style=" stroke:none;fill-rule:evenodd;fill:rgb(94.901961%,93.72549%,91.372549%);fill-opacity:1;" d="M 259 -4 L 259 177.609375 L 255.011719 178.320313 L 232.582031 182.960938 L 213.371094 184.566406 L 205.519531 187.691406 L 200.125 187.972656 L 197.84375 187.996094 L 190.472656 188.070313 L 181.574219 192.328125 L 170.125 195.542969 L 156.492188 194.140625 L 136.40625 194.4375 L 123.9375 193.625 L 108.9375 194.371094 L 94.6875 197 L 82.6875 201 L 67.3125 200.625 L 53.1875 201.246094 L 37.0625 203.875 L 22.6875 208.375 L 6.5625 208 L -4 208.710938 L -4 259 L -4 -4 Z M 259 -4 "/>
<path style=" stroke:none;fill-rule:evenodd;fill:rgb(94.901961%,93.72549%,91.372549%);fill-opacity:1;" d="M 11.761719 90.703125 L 15.734375 162.1875 L 75.519531 158.933594 L 71.636719 89.585938 L 74.160156 87.871094 L 74.28125 82.894531 L 50.960938 73.121094 L 43.707031 72.761719 L 29.738281 76.835938 L 30.316406 89.371094 Z M 11.761719 90.703125 "/>
<path style="fill:none;stroke-width:1;stroke-linecap:round;stroke-linejoin:round;stroke:rgb(89.019608%,87.058824%,83.137255%);stroke-opacity:1;stroke-miterlimit:10;" d="M 11.761719 90.703125 L 15.734375 162.1875 L 75.519531 158.933594 L 71.636719 89.585938 L 74.160156 87.871094 L 74.28125 82.894531 L 50.960938 73.121094 L 43.707031 72.761719 L 29.738281 76.835938 L 30.316406 89.371094 L 11.761719 90.703125 "/>
<path style=" stroke:none;fill-rule:evenodd;fill:rgb(94.901961%,93.72549%,91.372549%);fill-opacity:1;" d="M 145 119.539063 L 154.546875 186.378906 L 154.851563 189.335938 L 163.953125 188.121094 L 164.5625 192.085938 L 177.1875 189.601563 L 176.113281 185.109375 L 172.890625 185.535156 L 172.785156 184.511719 L 163.128906 116.988281 Z M 145 119.539063 "/>
<path style="fill:none;stroke-width:1;stroke-linecap:round;stroke-linejoin:round;stroke:rgb(89.019608%,87.058824%,83.137255%);stroke-opacity:1;stroke-miterlimit:10;" d="M 145 119.539063 L 154.546875 186.378906 L 154.851563 189.335938 L 163.953125 188.121094 L 164.5625 192.085938 L 177.1875 189.601563 L 176.113281 185.109375 L 172.890625 185.535156 L 172.785156 184.511719 L 163.128906 116.988281 L 145 119.539063 "/>
<path style=" stroke:none;fill-rule:evenodd;fill:rgb(94.901961%,93.72549%,91.372549%);fill-opacity:1;" d="M 172.566406 -4 L 178.027344 33.984375 L 195.535156 31.492188 L 190.441406 -4 Z M 172.566406 -4 "/>
<path style="fill:none;stroke-width:1;stroke-linecap:round;stroke-linejoin:round;stroke:rgb(89.019608%,87.058824%,83.137255%);stroke-opacity:1;stroke-miterlimit:10;" d="M 172.566406 -4 L 178.027344 33.984375 L 195.535156 31.492188 L 190.441406 -4 L 172.566406 -4 "/>
<path style=" stroke:none;fill-rule:evenodd;fill:rgb(94.901961%,93.72549%,91.372549%);fill-opacity:1;" d="M 194.40625 -4 L 199.5 30.945313 L 217.015625 28.339844 L 212.347656 -4 Z M 194.40625 -4 "/>
<path style="fill:none;stroke-width:1;stroke-linecap:round;stroke-linejoin:round;stroke:rgb(89.019608%,87.058824%,83.137255%);stroke-opacity:1;stroke-miterlimit:10;" d="M 194.40625 -4 L 199.5 30.945313 L 217.015625 28.339844 L 212.347656 -4 L 194.40625 -4 "/>
<path style=" stroke:none;fill-rule:evenodd;fill:rgb(94.901961%,93.72549%,91.372549%);fill-opacity:1;" d="M 167.710938 116.347656 L 177.351563 184.425781 L 195.125 181.90625 L 185.484375 113.832031 Z M 167.710938 116.347656 "/>
<path style="fill:none;stroke-width:1;stroke-linecap:round;stroke-linejoin:round;stroke:rgb(89.019608%,87.058824%,83.137255%);stroke-opacity:1;stroke-miterlimit:10;" d="M 167.710938 116.347656 L 177.351563 184.425781 L 195.125 181.90625 L 185.484375 113.832031 L 167.710938 116.347656 "/>
<path style=" stroke:none;fill-rule:evenodd;fill:rgb(94.901961%,93.72549%,91.372549%);fill-opacity:1;" d="M 216.277344 -4 L 220.820313 27.703125 L 238.265625 25.179688 L 234.101563 -4 Z M 216.277344 -4 "/>
<path style="fill:none;stroke-width:1;stroke-linecap:round;stroke-linejoin:round;stroke:rgb(89.019608%,87.058824%,83.137255%);stroke-opacity:1;stroke-miterlimit:10;" d="M 216.277344 -4 L 220.820313 27.703125 L 238.265625 25.179688 L 234.101563 -4 L 216.277344 -4 "/>
<path style=" stroke:none;fill-rule:evenodd;fill:rgb(94.901961%,93.72549%,91.372549%);fill-opacity:1;" d="M 189.496094 113.144531 L 199.355469 182.199219 L 216.484375 179.746094 L 206.871094 110.6875 Z M 189.496094 113.144531 "/>
<path style="fill:none;stroke-width:1;stroke-linecap:round;stroke-linejoin:round;stroke:rgb(89.019608%,87.058824%,83.137255%);stroke-opacity:1;stroke-miterlimit:10;" d="M 189.496094 113.144531 L 199.355469 182.199219 L 216.484375 179.746094 L 206.871094 110.6875 L 189.496094 113.144531 "/>
<path style=" stroke:none;fill-rule:evenodd;fill:rgb(94.901961%,93.72549%,91.372549%);fill-opacity:1;" d="M 252.691406 96.3125 L 260 95.375 L 260 26.484375 L 242.929688 29.042969 Z M 252.691406 96.3125 "/>
<path style="fill:none;stroke-width:1;stroke-linecap:round;stroke-linejoin:round;stroke:rgb(89.019608%,87.058824%,83.137255%);stroke-opacity:1;stroke-miterlimit:10;" d="M 252.691406 96.3125 L 260 95.375 L 260 26.484375 L 242.929688 29.042969 L 252.691406 96.3125 "/>
<path style=" stroke:none;fill-rule:evenodd;fill:rgb(94.901961%,93.72549%,91.372549%);fill-opacity:1;" d="M 232.148438 107.046875 L 242.335938 175.601563 L 259.296875 173.082031 L 249.785156 104.382813 Z M 232.148438 107.046875 "/>
<path style="fill:none;stroke-width:1;stroke-linecap:round;stroke-linejoin:round;stroke:rgb(89.019608%,87.058824%,83.137255%);stroke-opacity:1;stroke-miterlimit:10;" d="M 232.148438 107.046875 L 242.335938 175.601563 L 259.296875 173.082031 L 249.785156 104.382813 L 232.148438 107.046875 "/>
<path style=" stroke:none;fill-rule:evenodd;fill:rgb(94.901961%,93.72549%,91.372549%);fill-opacity:1;" d="M 210.804688 110.144531 L 220.476563 178.5625 L 237.65625 176.121094 L 228.394531 107.785156 Z M 210.804688 110.144531 "/>
<path style="fill:none;stroke-width:1;stroke-linecap:round;stroke-linejoin:round;stroke:rgb(89.019608%,87.058824%,83.137255%);stroke-opacity:1;stroke-miterlimit:10;" d="M 210.804688 110.144531 L 220.476563 178.5625 L 237.65625 176.121094 L 228.394531 107.785156 L 210.804688 110.144531 "/>
<path style=" stroke:none;fill-rule:evenodd;fill:rgb(94.901961%,93.72549%,91.372549%);fill-opacity:1;" d="M 199.945313 35.234375 L 209.585938 102.609375 L 227.03125 99.984375 L 217.5625 32.703125 Z M 199.945313 35.234375 "/>
<path style="fill:none;stroke-width:1;stroke-linecap:round;stroke-linejoin:round;stroke:rgb(89.019608%,87.058824%,83.137255%);stroke-opacity:1;stroke-miterlimit:10;" d="M 199.945313 35.234375 L 209.585938 102.609375 L 227.03125 99.984375 L 217.5625 32.703125 L 199.945313 35.234375 "/>
<path style=" stroke:none;fill-rule:evenodd;fill:rgb(94.901961%,93.72549%,91.372549%);fill-opacity:1;" d="M 221.421875 32.167969 L 231.128906 99.136719 L 248.597656 96.820313 L 239.0625 29.65625 Z M 221.421875 32.167969 "/>
<path style="fill:none;stroke-width:1;stroke-linecap:round;stroke-linejoin:round;stroke:rgb(89.019608%,87.058824%,83.137255%);stroke-opacity:1;stroke-miterlimit:10;" d="M 221.421875 32.167969 L 231.128906 99.136719 L 248.597656 96.820313 L 239.0625 29.65625 L 221.421875 32.167969 "/>
<path style=" stroke:none;fill-rule:evenodd;fill:rgb(94.901961%,93.72549%,91.372549%);fill-opacity:1;" d="M 260 148.199219 L 260 102.949219 L 253.679688 103.824219 Z M 260 148.199219 "/>
<path style="fill:none;stroke-width:1;stroke-linecap:round;stroke-linejoin:round;stroke:rgb(89.019608%,87.058824%,83.137255%);stroke-opacity:1;stroke-miterlimit:10;" d="M 260 148.199219 L 260 102.949219 L 253.679688 103.824219 L 260 148.199219 "/>
<path style=" stroke:none;fill-rule:evenodd;fill:rgb(94.901961%,93.72549%,91.372549%);fill-opacity:1;" d="M 178.722656 38.554688 L 188.375 105.363281 L 205.898438 103.171875 L 196.011719 35.941406 Z M 178.722656 38.554688 "/>
<path style="fill:none;stroke-width:1;stroke-linecap:round;stroke-linejoin:round;stroke:rgb(89.019608%,87.058824%,83.137255%);stroke-opacity:1;stroke-miterlimit:10;" d="M 178.722656 38.554688 L 188.375 105.363281 L 205.898438 103.171875 L 196.011719 35.941406 L 178.722656 38.554688 "/>
<path style=" stroke:none;fill-rule:evenodd;fill:rgb(94.901961%,93.72549%,91.372549%);fill-opacity:1;" d="M 238.125 -4 L 242.242188 24.707031 L 259.792969 22.160156 L 256.03125 -4 Z M 238.125 -4 "/>
<path style="fill:none;stroke-width:1;stroke-linecap:round;stroke-linejoin:round;stroke:rgb(89.019608%,87.058824%,83.137255%);stroke-opacity:1;stroke-miterlimit:10;" d="M 238.125 -4 L 242.242188 24.707031 L 259.792969 22.160156 L 256.03125 -4 L 238.125 -4 "/>
<path style=" stroke:none;fill-rule:evenodd;fill:rgb(70.980392%,82.352941%,61.176471%);fill-opacity:1;" d="M 43.164063 76.476563 L 44.007813 85.53125 L 52.160156 85.054688 L 53.300781 87.628906 L 61.035156 88.589844 L 72.242188 89.128906 L 74.160156 87.871094 L 74.28125 82.894531 L 50.960938 73.121094 L 43.707031 72.761719 Z M 43.164063 76.476563 "/>
<path style=" stroke:none;fill-rule:evenodd;fill:rgb(87.058824%,82.352941%,67.45098%);fill-opacity:1;" d="M 157.613281 42.875 L 160.195313 60.988281 L 168.316406 59.824219 L 165.628906 40.980469 L 160.511719 41.714844 L 158.492188 41.84375 L 158.617188 42.726563 Z M 157.613281 42.875 "/>
<path style=" stroke:none;fill-rule:evenodd;fill:rgb(70.980392%,82.352941%,61.176471%);fill-opacity:1;" d="M 29.738281 76.835938 L 30.398438 86.910156 L 39.449219 86.492188 L 39.269531 75.101563 Z M 29.738281 76.835938 "/>
<path style="fill:none;stroke-width:1;stroke-linecap:round;stroke-linejoin:round;stroke:rgb(100%,100%,100%);stroke-opacity:1;stroke-dasharray:2,3;stroke-miterlimit:10;" d="M 10.285156 194.332031 L 12.414063 194.210938 L 13.941406 194.121094 "/>
<path style="fill:none;stroke-width:1;stroke-linecap:round;stroke-linejoin:round;stroke:rgb(100%,100%,100%);stroke-opacity:1;stroke-dasharray:2,3;stroke-miterlimit:10;" d="M 11.433594 159.394531 L 14.660156 162.074219 L 14.953125 164.945313 "/>
<path style="fill:none;stroke-width:1;stroke-linecap:round;stroke-linejoin:round;stroke:rgb(100%,100%,100%);stroke-opacity:1;stroke-dasharray:2,3;stroke-miterlimit:10;" d="M 76.089844 161.328125 L 75.796875 153.335938 L 77.117188 151.324219 "/>
<path style="fill:none;stroke-width:1;stroke-linecap:round;stroke-linejoin:round;stroke:rgb(100%,100%,100%);stroke-opacity:1;stroke-dasharray:2,3;stroke-miterlimit:10;" d="M 10.96875 154.75 L 11.433594 159.394531 L 8.53125 162.347656 L 8.691406 165.785156 "/>
<path style="fill:none;stroke-width:1;stroke-linecap:round;stroke-linejoin:round;stroke:rgb(100%,100%,100%);stroke-opacity:1;stroke-dasharray:2,3;stroke-miterlimit:10;" d="M 11.519531 165.40625 L 12.324219 181.410156 L 12.414063 194.210938 "/>
<path style="fill:none;stroke-width:8;stroke-linecap:round;stroke-linejoin:round;stroke:rgb(75.686275%,70.980392%,61.568627%);stroke-opacity:1;stroke-miterlimit:10;" d="M 30.605469 99.382813 L 22.859375 99.722656 L 23.304688 108.304688 L 31.027344 107.882813 "/>
<path style="fill:none;stroke-width:8;stroke-linecap:round;stroke-linejoin:round;stroke:rgb(75.686275%,70.980392%,61.568627%);stroke-opacity:1;stroke-miterlimit:10;" d="M 53.578125 97.972656 L 62.050781 97.558594 L 62.375 105.921875 L 54.195313 106.324219 "/>
<path style="fill:none;stroke-width:8;stroke-linecap:round;stroke-linejoin:round;stroke:rgb(75.686275%,70.980392%,61.568627%);stroke-opacity:1;stroke-miterlimit:10;" d="M 24.945313 120.320313 L 26.433594 153.5625 "/>
<path style="fill:none;stroke-width:8;stroke-linecap:round;stroke-linejoin:round;stroke:rgb(75.686275%,70.980392%,61.568627%);stroke-opacity:1;stroke-miterlimit:10;" d="M 62.378906 118.589844 L 63.710938 152.46875 "/>
<path style="fill:none;stroke-width:8;stroke-linecap:round;stroke-linejoin:round;stroke:rgb(75.686275%,70.980392%,61.568627%);stroke-opacity:1;stroke-miterlimit:10;" d="M 76.476563 134.996094 L 86.304688 133.964844 L 88.773438 133.808594 L 90.054688 133.527344 L 91.617188 133.121094 L 92.617188 132.402344 L 93.585938 130.839844 L 93.492188 128.621094 L 91.867188 106.839844 "/>
<path style="fill:none;stroke-width:5;stroke-linecap:round;stroke-linejoin:round;stroke:rgb(75.686275%,70.980392%,61.568627%);stroke-opacity:1;stroke-miterlimit:10;" d="M 5.675781 166.1875 L 8.691406 165.785156 L 11.519531 165.40625 L 14.953125 164.945313 L 16.726563 164.710938 L 76.089844 161.328125 L 111.601563 159.300781 L 111.199219 149.941406 "/>
<path style="fill:none;stroke-width:5;stroke-linecap:round;stroke-linejoin:round;stroke:rgb(75.686275%,70.980392%,61.568627%);stroke-opacity:1;stroke-miterlimit:10;" d="M 5.675781 166.1875 L -6 166.960938 "/>
<path style="fill:none;stroke-width:8;stroke-linecap:round;stroke-linejoin:round;stroke:rgb(75.686275%,70.980392%,61.568627%);stroke-opacity:1;stroke-miterlimit:10;" d="M 110.671875 132.117188 L 112.882813 131.71875 L 115.214844 130.890625 "/>
<path style="fill:none;stroke-width:8;stroke-linecap:round;stroke-linejoin:round;stroke:rgb(75.686275%,70.980392%,61.568627%);stroke-opacity:1;stroke-miterlimit:10;" d="M 104.542969 131.351563 L 107.898438 132.117188 L 110.671875 132.117188 "/>
<path style="fill:none;stroke-width:8;stroke-linecap:round;stroke-linejoin:round;stroke:rgb(75.686275%,70.980392%,61.568627%);stroke-opacity:1;stroke-miterlimit:10;" d="M 141.910156 115.230469 L 142.535156 116.351563 L 143.660156 116.976563 L 145.160156 117.105469 L 147.785156 116.605469 L 149.535156 115.476563 "/>
<path style="fill:none;stroke-width:8;stroke-linecap:round;stroke-linejoin:round;stroke:rgb(75.686275%,70.980392%,61.568627%);stroke-opacity:1;stroke-miterlimit:10;" d="M 110.648438 140.003906 L 111.199219 149.941406 "/>
<path style="fill:none;stroke-width:8;stroke-linecap:round;stroke-linejoin:round;stroke:rgb(75.686275%,70.980392%,61.568627%);stroke-opacity:1;stroke-miterlimit:10;" d="M 43.984375 98.597656 L 43.640625 95.621094 L 43.019531 90.199219 L 41.722656 88.601563 "/>
<path style="fill:none;stroke-width:8;stroke-linecap:round;stroke-linejoin:round;stroke:rgb(75.686275%,70.980392%,61.568627%);stroke-opacity:1;stroke-miterlimit:10;" d="M 41.722656 88.601563 L 40.433594 90.316406 L 40.386719 95.660156 L 40.507813 98.777344 "/>
<path style="fill:none;stroke-width:8;stroke-linecap:round;stroke-linejoin:round;stroke:rgb(75.686275%,70.980392%,61.568627%);stroke-opacity:1;stroke-miterlimit:10;" d="M 138.628906 96.851563 L 127.410156 98.976563 "/>
<path style="fill:none;stroke-width:8;stroke-linecap:round;stroke-linejoin:round;stroke:rgb(75.686275%,70.980392%,61.568627%);stroke-opacity:1;stroke-miterlimit:10;" d="M 42.027344 98.6875 L 40.507813 98.777344 L 30.605469 99.382813 "/>
<path style="fill:none;stroke-width:8;stroke-linecap:round;stroke-linejoin:round;stroke:rgb(75.686275%,70.980392%,61.568627%);stroke-opacity:1;stroke-miterlimit:10;" d="M 149.535156 115.476563 L 164.671875 113.117188 "/>
<path style="fill:none;stroke-width:8;stroke-linecap:round;stroke-linejoin:round;stroke:rgb(75.686275%,70.980392%,61.568627%);stroke-opacity:1;stroke-miterlimit:10;" d="M 40.984375 70.292969 L 41.722656 88.601563 "/>
<path style="fill:none;stroke-width:8;stroke-linecap:round;stroke-linejoin:round;stroke:rgb(75.686275%,70.980392%,61.568627%);stroke-opacity:1;stroke-miterlimit:10;" d="M 138.628906 96.851563 L 139.289063 98.726563 L 140.289063 102.226563 L 141.910156 115.230469 "/>
<path style="fill:none;stroke-width:8;stroke-linecap:round;stroke-linejoin:round;stroke:rgb(75.686275%,70.980392%,61.568627%);stroke-opacity:1;stroke-miterlimit:10;" d="M 149.535156 115.476563 L 148.414063 113.730469 L 147.664063 111.601563 L 145.660156 96.476563 L 144.785156 95.226563 L 142.910156 94.851563 L 138.628906 96.851563 "/>
<path style="fill:none;stroke-width:8;stroke-linecap:round;stroke-linejoin:round;stroke:rgb(75.686275%,70.980392%,61.568627%);stroke-opacity:1;stroke-miterlimit:10;" d="M 2.503906 2.617188 L 35.171875 0.6875 "/>
<path style="fill:none;stroke-width:8;stroke-linecap:round;stroke-linejoin:round;stroke:rgb(75.686275%,70.980392%,61.568627%);stroke-opacity:1;stroke-miterlimit:10;" d="M 133.601563 65.726563 L 125.257813 66.648438 L 110.136719 93.984375 "/>
<path style="fill:none;stroke-width:8;stroke-linecap:round;stroke-linejoin:round;stroke:rgb(75.686275%,70.980392%,61.568627%);stroke-opacity:1;stroke-miterlimit:10;" d="M 8.992188 121.304688 L 15.011719 120.949219 L 24.945313 120.320313 L 31.796875 119.890625 L 31.027344 107.882813 L 30.605469 99.382813 "/>
<path style="fill:none;stroke-width:8;stroke-linecap:round;stroke-linejoin:round;stroke:rgb(75.686275%,70.980392%,61.568627%);stroke-opacity:1;stroke-miterlimit:10;" d="M 119.335938 98.203125 L 120.457031 120.765625 L 120.222656 122.945313 L 119.640625 125.0625 L 118.640625 127.117188 L 117.007813 129.296875 L 115.214844 130.890625 L 110.648438 140.003906 "/>
<path style="fill:none;stroke-width:8;stroke-linecap:round;stroke-linejoin:round;stroke:rgb(75.686275%,70.980392%,61.568627%);stroke-opacity:1;stroke-miterlimit:10;" d="M 42.027344 98.6875 L 43.984375 98.597656 L 53.578125 97.972656 L 54.195313 106.324219 L 55.121094 118.828125 L 62.378906 118.589844 L 71.734375 118.039063 L 75.8125 117.980469 "/>
<path style="fill:none;stroke-width:8;stroke-linecap:round;stroke-linejoin:round;stroke:rgb(75.686275%,70.980392%,61.568627%);stroke-opacity:1;stroke-miterlimit:10;" d="M 77.117188 151.324219 L 111.199219 149.941406 L 125.125 149.1875 L 131.214844 147.992188 "/>
<path style="fill:none;stroke-width:8;stroke-linecap:round;stroke-linejoin:round;stroke:rgb(75.686275%,70.980392%,61.568627%);stroke-opacity:1;stroke-miterlimit:10;" d="M 96.761719 88.492188 L 98.671875 121.6875 L 99.089844 124.050781 L 99.859375 126.105469 L 100.859375 127.851563 L 102.121094 129.386719 L 103.75 130.828125 L 110.648438 140.003906 "/>
<path style="fill:none;stroke-width:8;stroke-linecap:round;stroke-linejoin:round;stroke:rgb(75.686275%,70.980392%,61.568627%);stroke-opacity:1;stroke-miterlimit:10;" d="M 90.5625 85.976563 L 114.410156 42.226563 L 120.410156 31.214844 L 128.195313 29.710938 "/>
<path style="fill:none;stroke-width:8;stroke-linecap:round;stroke-linejoin:round;stroke:rgb(75.686275%,70.980392%,61.568627%);stroke-opacity:1;stroke-miterlimit:10;" d="M 142.535156 116.351563 L 142.660156 119.105469 L 142.984375 122.21875 L 152.425781 186.570313 "/>
<path style="fill:none;stroke-width:8;stroke-linecap:round;stroke-linejoin:round;stroke:rgb(75.686275%,70.980392%,61.568627%);stroke-opacity:1;stroke-miterlimit:10;" d="M 76.695313 80.421875 L 75.160156 85.777344 L 75.8125 117.980469 L 76.476563 134.996094 L 77.117188 151.324219 "/>
<path style="fill:none;stroke-width:8;stroke-linecap:round;stroke-linejoin:round;stroke:rgb(75.686275%,70.980392%,61.568627%);stroke-opacity:1;stroke-miterlimit:10;" d="M 251.113281 99.738281 L 251.390625 101.648438 L 251.566406 102.855469 L 261.550781 171.847656 "/>
<path style="fill:none;stroke-width:8;stroke-linecap:round;stroke-linejoin:round;stroke:rgb(75.686275%,70.980392%,61.568627%);stroke-opacity:1;stroke-miterlimit:10;" d="M 186.847656 108.996094 L 187.125 110.90625 L 187.355469 112.535156 L 197.214844 181.171875 "/>
<path style="fill:none;stroke-width:8;stroke-linecap:round;stroke-linejoin:round;stroke:rgb(75.686275%,70.980392%,61.568627%);stroke-opacity:1;stroke-miterlimit:10;" d="M 208.285156 105.910156 L 208.558594 107.820313 L 208.761719 109.234375 L 218.652344 178.105469 "/>
<path style="fill:none;stroke-width:8;stroke-linecap:round;stroke-linejoin:round;stroke:rgb(75.686275%,70.980392%,61.568627%);stroke-opacity:1;stroke-miterlimit:10;" d="M 229.660156 102.828125 L 229.9375 104.738281 L 230.132813 106.097656 L 240.042969 175.117188 "/>
<path style="fill:none;stroke-width:8;stroke-linecap:round;stroke-linejoin:round;stroke:rgb(75.686275%,70.980392%,61.568627%);stroke-opacity:1;stroke-miterlimit:10;" d="M 121.785156 -1.644531 L 112.605469 0.59375 L 95.316406 32.164063 L 70.523438 77.9375 "/>
<path style="fill:none;stroke-width:8;stroke-linecap:round;stroke-linejoin:round;stroke:rgb(75.686275%,70.980392%,61.568627%);stroke-opacity:1;stroke-miterlimit:10;" d="M 153.734375 39.925781 L 141.921875 41.867188 L 137.046875 42.238281 L 130.359375 42.105469 L 118.171875 42.613281 L 114.410156 42.226563 L 111.296875 40.992188 L 95.316406 32.164063 L 76.160156 21.589844 L 56.308594 10.625 "/>
<path style="fill:none;stroke-width:8;stroke-linecap:round;stroke-linejoin:round;stroke:rgb(75.686275%,70.980392%,61.568627%);stroke-opacity:1;stroke-miterlimit:10;" d="M 40.453125 -9 L 35.171875 0.6875 L 28.671875 12.714844 L 16.113281 35.753906 L 4.507813 36.796875 "/>
<path style="fill:none;stroke-width:8;stroke-linecap:round;stroke-linejoin:round;stroke:rgb(75.686275%,70.980392%,61.568627%);stroke-opacity:1;stroke-miterlimit:10;" d="M 49.621094 70.542969 L 76.160156 21.589844 L 92.414063 -9 "/>
<path style="fill:none;stroke-width:8;stroke-linecap:round;stroke-linejoin:round;stroke:rgb(75.686275%,70.980392%,61.568627%);stroke-opacity:1;stroke-miterlimit:10;" d="M 257.457031 -9 L 262.210938 24.152344 L 264 36.628906 "/>
<path style="fill:none;stroke-width:8;stroke-linecap:round;stroke-linejoin:round;stroke:rgb(75.686275%,70.980392%,61.568627%);stroke-opacity:1;stroke-miterlimit:10;" d="M 138.628906 96.851563 L 136.414063 92.976563 L 133.601563 65.726563 L 130.359375 42.105469 L 128.195313 29.710938 L 126.753906 22.664063 L 121.785156 -1.644531 L 119.851563 -9 "/>
<path style="fill:none;stroke-width:8;stroke-linecap:round;stroke-linejoin:round;stroke:rgb(75.686275%,70.980392%,61.568627%);stroke-opacity:1;stroke-miterlimit:10;" d="M 251.113281 99.738281 L 250.847656 97.894531 L 240.632813 27.289063 L 235.382813 -9 "/>
<path style="fill:none;stroke-width:8;stroke-linecap:round;stroke-linejoin:round;stroke:rgb(75.686275%,70.980392%,61.568627%);stroke-opacity:1;stroke-miterlimit:10;" d="M 213.601563 -9 L 219.257813 30.398438 L 229.371094 100.808594 L 229.660156 102.828125 "/>
<path style="fill:none;stroke-width:8;stroke-linecap:round;stroke-linejoin:round;stroke:rgb(75.686275%,70.980392%,61.568627%);stroke-opacity:1;stroke-miterlimit:10;" d="M 208.285156 105.910156 L 208.089844 104.550781 L 197.886719 33.503906 L 191.785156 -9 "/>
<path style="fill:none;stroke-width:8;stroke-linecap:round;stroke-linejoin:round;stroke:rgb(75.686275%,70.980392%,61.568627%);stroke-opacity:1;stroke-miterlimit:10;" d="M 169.90625 -9 L 176.457031 36.621094 L 186.617188 107.382813 L 186.847656 108.996094 "/>
<path style="fill:none;stroke-width:8;stroke-linecap:round;stroke-linejoin:round;stroke:rgb(75.686275%,70.980392%,61.568627%);stroke-opacity:1;stroke-miterlimit:10;" d="M 67.042969 -9 L 56.308594 10.625 L 21.496094 75.023438 "/>
<path style="fill:none;stroke-width:8;stroke-linecap:round;stroke-linejoin:round;stroke:rgb(75.686275%,70.980392%,61.568627%);stroke-opacity:1;stroke-miterlimit:10;" d="M -9 145.074219 L 10.339844 144.003906 "/>
<path style="fill:none;stroke-width:8;stroke-linecap:round;stroke-linejoin:round;stroke:rgb(75.686275%,70.980392%,61.568627%);stroke-opacity:1;stroke-miterlimit:10;" d="M 153.734375 39.925781 L 166.019531 38.222656 L 176.457031 36.621094 L 197.886719 33.503906 L 219.257813 30.398438 L 240.632813 27.289063 L 262.210938 24.152344 L 264 23.890625 "/>
<path style="fill:none;stroke-width:8;stroke-linecap:round;stroke-linejoin:round;stroke:rgb(75.686275%,70.980392%,61.568627%);stroke-opacity:1;stroke-miterlimit:10;" d="M -9 18.371094 L 3.226563 14.984375 L 28.671875 12.714844 "/>
<path style="fill:none;stroke-width:8;stroke-linecap:round;stroke-linejoin:round;stroke:rgb(75.686275%,70.980392%,61.568627%);stroke-opacity:1;stroke-miterlimit:10;" d="M 164.671875 113.117188 L 168.136719 113.523438 L 187.125 110.90625 L 208.558594 107.820313 L 229.9375 104.738281 L 251.390625 101.648438 L 264 99.832031 "/>
<path style="fill:none;stroke-width:8;stroke-linecap:round;stroke-linejoin:round;stroke:rgb(75.686275%,70.980392%,61.568627%);stroke-opacity:1;stroke-miterlimit:10;" d="M 264 97.882813 L 251.113281 99.738281 L 229.660156 102.828125 L 208.285156 105.910156 L 186.847656 108.996094 L 167.988281 111.613281 L 164.671875 113.117188 "/>
<path style="fill:none;stroke-width:9;stroke-linecap:round;stroke-linejoin:round;stroke:rgb(75.686275%,70.980392%,61.568627%);stroke-opacity:1;stroke-miterlimit:10;" d="M 90.5625 85.976563 L 96.761719 88.492188 "/>
<path style="fill:none;stroke-width:9;stroke-linecap:round;stroke-linejoin:round;stroke:rgb(75.686275%,70.980392%,61.568627%);stroke-opacity:1;stroke-miterlimit:10;" d="M 96.761719 88.492188 L 103.535156 91.273438 "/>
<path style="fill:none;stroke-width:9;stroke-linecap:round;stroke-linejoin:round;stroke:rgb(75.686275%,70.980392%,61.568627%);stroke-opacity:1;stroke-miterlimit:10;" d="M 83.5625 83.171875 L 90.5625 85.976563 "/>
<path style="fill:none;stroke-width:9;stroke-linecap:round;stroke-linejoin:round;stroke:rgb(75.686275%,70.980392%,61.568627%);stroke-opacity:1;stroke-miterlimit:10;" d="M 7.140625 79.011719 L 21.496094 75.023438 L 27.117188 73.492188 "/>
<path style="fill:none;stroke-width:9;stroke-linecap:round;stroke-linejoin:round;stroke:rgb(75.686275%,70.980392%,61.568627%);stroke-opacity:1;stroke-miterlimit:10;" d="M 27.117188 73.492188 L 34.734375 71.417969 L 40.984375 70.292969 L 42.582031 70.085938 L 46.964844 70.207031 L 49.621094 70.542969 "/>
<path style="fill:none;stroke-width:9;stroke-linecap:round;stroke-linejoin:round;stroke:rgb(75.686275%,70.980392%,61.568627%);stroke-opacity:1;stroke-miterlimit:10;" d="M 103.535156 91.273438 L 110.136719 93.984375 L 119.335938 98.203125 L 122.285156 99.101563 L 124.660156 99.226563 L 127.410156 98.976563 "/>
<path style="fill:none;stroke-width:9;stroke-linecap:round;stroke-linejoin:round;stroke:rgb(75.686275%,70.980392%,61.568627%);stroke-opacity:1;stroke-miterlimit:10;" d="M 49.621094 70.542969 L 57.207031 72.730469 L 70.523438 77.9375 L 76.695313 80.421875 L 83.5625 83.171875 "/>
<path style="fill:none;stroke-width:9;stroke-linecap:round;stroke-linejoin:round;stroke:rgb(75.686275%,70.980392%,61.568627%);stroke-opacity:1;stroke-miterlimit:10;" d="M 164.671875 113.117188 L 175.078125 184.363281 "/>
<path style="fill:none;stroke-width:9;stroke-linecap:round;stroke-linejoin:round;stroke:rgb(75.686275%,70.980392%,61.568627%);stroke-opacity:1;stroke-miterlimit:10;" d="M 7.140625 79.011719 L 8.992188 121.304688 L 10.339844 144.003906 L 10.96875 154.75 "/>
<path style="fill:none;stroke-width:9;stroke-linecap:round;stroke-linejoin:round;stroke:rgb(75.686275%,70.980392%,61.568627%);stroke-opacity:1;stroke-miterlimit:10;" d="M 1.734375 -10 L 1.851563 -7.875 L 1.992188 -5.941406 L 2.503906 2.617188 L 3.226563 14.984375 L 4.507813 36.796875 L 6.441406 67.570313 L 7.140625 79.011719 "/>
<path style="fill:none;stroke-width:9;stroke-linecap:round;stroke-linejoin:round;stroke:rgb(75.686275%,70.980392%,61.568627%);stroke-opacity:1;stroke-miterlimit:10;" d="M 146.550781 -10 L 150.636719 18.402344 L 153.734375 39.925781 L 157.289063 64.539063 L 159.277344 78.308594 L 160.910156 89.65625 L 162.308594 99.230469 L 164.671875 113.117188 "/>
<path style="fill:none;stroke-width:9;stroke-linecap:round;stroke-linejoin:round;stroke:rgb(75.686275%,70.980392%,61.568627%);stroke-opacity:1;stroke-miterlimit:10;" d="M -10 83.71875 L 7.140625 79.011719 "/>
<path style="fill:none;stroke-width:6;stroke-linecap:round;stroke-linejoin:round;stroke:rgb(100%,100%,100%);stroke-opacity:1;stroke-miterlimit:10;" d="M 30.605469 99.382813 L 22.859375 99.722656 L 23.304688 108.304688 L 31.027344 107.882813 "/>
<path style="fill:none;stroke-width:6;stroke-linecap:round;stroke-linejoin:round;stroke:rgb(100%,100%,100%);stroke-opacity:1;stroke-miterlimit:10;" d="M 53.578125 97.972656 L 62.050781 97.558594 L 62.375 105.921875 L 54.195313 106.324219 "/>
<path style="fill:none;stroke-width:6;stroke-linecap:round;stroke-linejoin:round;stroke:rgb(100%,100%,100%);stroke-opacity:1;stroke-miterlimit:10;" d="M 24.945313 120.320313 L 26.433594 153.5625 "/>
<path style="fill:none;stroke-width:6;stroke-linecap:round;stroke-linejoin:round;stroke:rgb(100%,100%,100%);stroke-opacity:1;stroke-miterlimit:10;" d="M 62.378906 118.589844 L 63.710938 152.46875 "/>
<path style="fill:none;stroke-width:6;stroke-linecap:round;stroke-linejoin:round;stroke:rgb(100%,100%,100%);stroke-opacity:1;stroke-miterlimit:10;" d="M 76.476563 134.996094 L 86.304688 133.964844 L 88.773438 133.808594 L 90.054688 133.527344 L 91.617188 133.121094 L 92.617188 132.402344 L 93.585938 130.839844 L 93.492188 128.621094 L 91.867188 106.839844 "/>
<path style="fill:none;stroke-width:3;stroke-linecap:round;stroke-linejoin:round;stroke:rgb(98.039216%,98.039216%,96.078431%);stroke-opacity:1;stroke-miterlimit:10;" d="M 5.675781 166.1875 L 8.691406 165.785156 L 11.519531 165.40625 L 14.953125 164.945313 L 16.726563 164.710938 L 76.089844 161.328125 L 111.601563 159.300781 L 111.199219 149.941406 "/>
<path style="fill:none;stroke-width:3;stroke-linecap:round;stroke-linejoin:round;stroke:rgb(98.039216%,98.039216%,96.078431%);stroke-opacity:1;stroke-miterlimit:10;" d="M 5.675781 166.1875 L -6 166.960938 "/>
<path style="fill:none;stroke-width:6;stroke-linecap:round;stroke-linejoin:round;stroke:rgb(100%,100%,100%);stroke-opacity:1;stroke-miterlimit:10;" d="M 110.671875 132.117188 L 112.882813 131.71875 L 115.214844 130.890625 "/>
<path style="fill:none;stroke-width:6;stroke-linecap:round;stroke-linejoin:round;stroke:rgb(100%,100%,100%);stroke-opacity:1;stroke-miterlimit:10;" d="M 104.542969 131.351563 L 107.898438 132.117188 L 110.671875 132.117188 "/>
<path style="fill:none;stroke-width:6;stroke-linecap:round;stroke-linejoin:round;stroke:rgb(100%,100%,100%);stroke-opacity:1;stroke-miterlimit:10;" d="M 141.910156 115.230469 L 142.535156 116.351563 L 143.660156 116.976563 L 145.160156 117.105469 L 147.785156 116.605469 L 149.535156 115.476563 "/>
<path style="fill:none;stroke-width:6;stroke-linecap:round;stroke-linejoin:round;stroke:rgb(100%,100%,100%);stroke-opacity:1;stroke-miterlimit:10;" d="M 110.648438 140.003906 L 111.199219 149.941406 "/>
<path style="fill:none;stroke-width:6;stroke-linecap:round;stroke-linejoin:round;stroke:rgb(100%,100%,100%);stroke-opacity:1;stroke-miterlimit:10;" d="M 43.984375 98.597656 L 43.640625 95.621094 L 43.019531 90.199219 L 41.722656 88.601563 "/>
<path style="fill:none;stroke-width:6;stroke-linecap:round;stroke-linejoin:round;stroke:rgb(100%,100%,100%);stroke-opacity:1;stroke-miterlimit:10;" d="M 41.722656 88.601563 L 40.433594 90.316406 L 40.386719 95.660156 L 40.507813 98.777344 "/>
<path style="fill:none;stroke-width:6;stroke-linecap:round;stroke-linejoin:round;stroke:rgb(100%,100%,100%);stroke-opacity:1;stroke-miterlimit:10;" d="M 138.628906 96.851563 L 127.410156 98.976563 "/>
<path style="fill:none;stroke-width:6;stroke-linecap:round;stroke-linejoin:round;stroke:rgb(100%,100%,100%);stroke-opacity:1;stroke-miterlimit:10;" d="M 42.027344 98.6875 L 40.507813 98.777344 L 30.605469 99.382813 "/>
<path style="fill:none;stroke-width:6;stroke-linecap:round;stroke-linejoin:round;stroke:rgb(100%,100%,100%);stroke-opacity:1;stroke-miterlimit:10;" d="M 149.535156 115.476563 L 164.671875 113.117188 "/>
<path style="fill:none;stroke-width:6;stroke-linecap:round;stroke-linejoin:round;stroke:rgb(100%,100%,100%);stroke-opacity:1;stroke-miterlimit:10;" d="M 40.984375 70.292969 L 41.722656 88.601563 "/>
<path style="fill:none;stroke-width:6;stroke-linecap:round;stroke-linejoin:round;stroke:rgb(100%,100%,100%);stroke-opacity:1;stroke-miterlimit:10;" d="M 138.628906 96.851563 L 139.289063 98.726563 L 140.289063 102.226563 L 141.910156 115.230469 "/>
<path style="fill:none;stroke-width:6;stroke-linecap:round;stroke-linejoin:round;stroke:rgb(100%,100%,100%);stroke-opacity:1;stroke-miterlimit:10;" d="M 149.535156 115.476563 L 148.414063 113.730469 L 147.664063 111.601563 L 145.660156 96.476563 L 144.785156 95.226563 L 142.910156 94.851563 L 138.628906 96.851563 "/>
<path style="fill:none;stroke-width:6;stroke-linecap:round;stroke-linejoin:round;stroke:rgb(100%,100%,100%);stroke-opacity:1;stroke-miterlimit:10;" d="M 2.503906 2.617188 L 35.171875 0.6875 "/>
<path style="fill:none;stroke-width:6;stroke-linecap:round;stroke-linejoin:round;stroke:rgb(100%,100%,100%);stroke-opacity:1;stroke-miterlimit:10;" d="M 133.601563 65.726563 L 125.257813 66.648438 L 110.136719 93.984375 "/>
<path style="fill:none;stroke-width:6;stroke-linecap:round;stroke-linejoin:round;stroke:rgb(100%,100%,100%);stroke-opacity:1;stroke-miterlimit:10;" d="M 8.992188 121.304688 L 15.011719 120.949219 L 24.945313 120.320313 L 31.796875 119.890625 L 31.027344 107.882813 L 30.605469 99.382813 "/>
<path style="fill:none;stroke-width:6;stroke-linecap:round;stroke-linejoin:round;stroke:rgb(100%,100%,100%);stroke-opacity:1;stroke-miterlimit:10;" d="M 119.335938 98.203125 L 120.457031 120.765625 L 120.222656 122.945313 L 119.640625 125.0625 L 118.640625 127.117188 L 117.007813 129.296875 L 115.214844 130.890625 L 110.648438 140.003906 "/>
<path style="fill:none;stroke-width:6;stroke-linecap:round;stroke-linejoin:round;stroke:rgb(100%,100%,100%);stroke-opacity:1;stroke-miterlimit:10;" d="M 42.027344 98.6875 L 43.984375 98.597656 L 53.578125 97.972656 L 54.195313 106.324219 L 55.121094 118.828125 L 62.378906 118.589844 L 71.734375 118.039063 L 75.8125 117.980469 "/>
<path style="fill:none;stroke-width:6;stroke-linecap:round;stroke-linejoin:round;stroke:rgb(100%,100%,100%);stroke-opacity:1;stroke-miterlimit:10;" d="M 77.117188 151.324219 L 111.199219 149.941406 L 125.125 149.1875 L 131.214844 147.992188 "/>
<path style="fill:none;stroke-width:6;stroke-linecap:round;stroke-linejoin:round;stroke:rgb(100%,100%,100%);stroke-opacity:1;stroke-miterlimit:10;" d="M 96.761719 88.492188 L 98.671875 121.6875 L 99.089844 124.050781 L 99.859375 126.105469 L 100.859375 127.851563 L 102.121094 129.386719 L 103.75 130.828125 L 110.648438 140.003906 "/>
<path style="fill:none;stroke-width:6;stroke-linecap:round;stroke-linejoin:round;stroke:rgb(100%,100%,100%);stroke-opacity:1;stroke-miterlimit:10;" d="M 90.5625 85.976563 L 114.410156 42.226563 L 120.410156 31.214844 L 128.195313 29.710938 "/>
<path style="fill:none;stroke-width:6;stroke-linecap:round;stroke-linejoin:round;stroke:rgb(100%,100%,100%);stroke-opacity:1;stroke-miterlimit:10;" d="M 142.535156 116.351563 L 142.660156 119.105469 L 142.984375 122.21875 L 152.425781 186.570313 "/>
<path style="fill:none;stroke-width:6;stroke-linecap:round;stroke-linejoin:round;stroke:rgb(100%,100%,100%);stroke-opacity:1;stroke-miterlimit:10;" d="M 76.695313 80.421875 L 75.160156 85.777344 L 75.8125 117.980469 L 76.476563 134.996094 L 77.117188 151.324219 "/>
<path style="fill:none;stroke-width:6;stroke-linecap:round;stroke-linejoin:round;stroke:rgb(100%,100%,100%);stroke-opacity:1;stroke-miterlimit:10;" d="M 251.113281 99.738281 L 251.390625 101.648438 L 251.566406 102.855469 L 261.550781 171.847656 "/>
<path style="fill:none;stroke-width:6;stroke-linecap:round;stroke-linejoin:round;stroke:rgb(100%,100%,100%);stroke-opacity:1;stroke-miterlimit:10;" d="M 186.847656 108.996094 L 187.125 110.90625 L 187.355469 112.535156 L 197.214844 181.171875 "/>
<path style="fill:none;stroke-width:6;stroke-linecap:round;stroke-linejoin:round;stroke:rgb(100%,100%,100%);stroke-opacity:1;stroke-miterlimit:10;" d="M 208.285156 105.910156 L 208.558594 107.820313 L 208.761719 109.234375 L 218.652344 178.105469 "/>
<path style="fill:none;stroke-width:6;stroke-linecap:round;stroke-linejoin:round;stroke:rgb(100%,100%,100%);stroke-opacity:1;stroke-miterlimit:10;" d="M 229.660156 102.828125 L 229.9375 104.738281 L 230.132813 106.097656 L 240.042969 175.117188 "/>
<path style="fill:none;stroke-width:6;stroke-linecap:round;stroke-linejoin:round;stroke:rgb(100%,100%,100%);stroke-opacity:1;stroke-miterlimit:10;" d="M 121.785156 -1.644531 L 112.605469 0.59375 L 95.316406 32.164063 L 70.523438 77.9375 "/>
<path style="fill:none;stroke-width:6;stroke-linecap:round;stroke-linejoin:round;stroke:rgb(100%,100%,100%);stroke-opacity:1;stroke-miterlimit:10;" d="M 153.734375 39.925781 L 141.921875 41.867188 L 137.046875 42.238281 L 130.359375 42.105469 L 118.171875 42.613281 L 114.410156 42.226563 L 111.296875 40.992188 L 95.316406 32.164063 L 76.160156 21.589844 L 56.308594 10.625 "/>
<path style="fill:none;stroke-width:6;stroke-linecap:round;stroke-linejoin:round;stroke:rgb(100%,100%,100%);stroke-opacity:1;stroke-miterlimit:10;" d="M 40.453125 -9 L 35.171875 0.6875 L 28.671875 12.714844 L 16.113281 35.753906 L 4.507813 36.796875 "/>
<path style="fill:none;stroke-width:6;stroke-linecap:round;stroke-linejoin:round;stroke:rgb(100%,100%,100%);stroke-opacity:1;stroke-miterlimit:10;" d="M 49.621094 70.542969 L 76.160156 21.589844 L 92.414063 -9 "/>
<path style="fill:none;stroke-width:6;stroke-linecap:round;stroke-linejoin:round;stroke:rgb(100%,100%,100%);stroke-opacity:1;stroke-miterlimit:10;" d="M 257.457031 -9 L 262.210938 24.152344 L 264 36.628906 "/>
<path style="fill:none;stroke-width:6;stroke-linecap:round;stroke-linejoin:round;stroke:rgb(100%,100%,100%);stroke-opacity:1;stroke-miterlimit:10;" d="M 138.628906 96.851563 L 136.414063 92.976563 L 133.601563 65.726563 L 130.359375 42.105469 L 128.195313 29.710938 L 126.753906 22.664063 L 121.785156 -1.644531 L 119.851563 -9 "/>
<path style="fill:none;stroke-width:6;stroke-linecap:round;stroke-linejoin:round;stroke:rgb(100%,100%,100%);stroke-opacity:1;stroke-miterlimit:10;" d="M 251.113281 99.738281 L 250.847656 97.894531 L 240.632813 27.289063 L 235.382813 -9 "/>
<path style="fill:none;stroke-width:6;stroke-linecap:round;stroke-linejoin:round;stroke:rgb(100%,100%,100%);stroke-opacity:1;stroke-miterlimit:10;" d="M 213.601563 -9 L 219.257813 30.398438 L 229.371094 100.808594 L 229.660156 102.828125 "/>
<path style="fill:none;stroke-width:6;stroke-linecap:round;stroke-linejoin:round;stroke:rgb(100%,100%,100%);stroke-opacity:1;stroke-miterlimit:10;" d="M 208.285156 105.910156 L 208.089844 104.550781 L 197.886719 33.503906 L 191.785156 -9 "/>
<path style="fill:none;stroke-width:6;stroke-linecap:round;stroke-linejoin:round;stroke:rgb(100%,100%,100%);stroke-opacity:1;stroke-miterlimit:10;" d="M 169.90625 -9 L 176.457031 36.621094 L 186.617188 107.382813 L 186.847656 108.996094 "/>
<path style="fill:none;stroke-width:6;stroke-linecap:round;stroke-linejoin:round;stroke:rgb(100%,100%,100%);stroke-opacity:1;stroke-miterlimit:10;" d="M 67.042969 -9 L 56.308594 10.625 L 21.496094 75.023438 "/>
<path style="fill:none;stroke-width:6;stroke-linecap:round;stroke-linejoin:round;stroke:rgb(100%,100%,100%);stroke-opacity:1;stroke-miterlimit:10;" d="M -9 145.074219 L 10.339844 144.003906 "/>
<path style="fill:none;stroke-width:6;stroke-linecap:round;stroke-linejoin:round;stroke:rgb(100%,100%,100%);stroke-opacity:1;stroke-miterlimit:10;" d="M 153.734375 39.925781 L 166.019531 38.222656 L 176.457031 36.621094 L 197.886719 33.503906 L 219.257813 30.398438 L 240.632813 27.289063 L 262.210938 24.152344 L 264 23.890625 "/>
<path style="fill:none;stroke-width:6;stroke-linecap:round;stroke-linejoin:round;stroke:rgb(100%,100%,100%);stroke-opacity:1;stroke-miterlimit:10;" d="M -9 18.371094 L 3.226563 14.984375 L 28.671875 12.714844 "/>
<path style="fill:none;stroke-width:6;stroke-linecap:round;stroke-linejoin:round;stroke:rgb(100%,100%,100%);stroke-opacity:1;stroke-miterlimit:10;" d="M 164.671875 113.117188 L 168.136719 113.523438 L 187.125 110.90625 L 208.558594 107.820313 L 229.9375 104.738281 L 251.390625 101.648438 L 264 99.832031 "/>
<path style="fill:none;stroke-width:6;stroke-linecap:round;stroke-linejoin:round;stroke:rgb(100%,100%,100%);stroke-opacity:1;stroke-miterlimit:10;" d="M 264 97.882813 L 251.113281 99.738281 L 229.660156 102.828125 L 208.285156 105.910156 L 186.847656 108.996094 L 167.988281 111.613281 L 164.671875 113.117188 "/>
<path style="fill:none;stroke-width:7;stroke-linecap:round;stroke-linejoin:round;stroke:rgb(100%,99.215686%,54.509804%);stroke-opacity:1;stroke-miterlimit:10;" d="M 90.5625 85.976563 L 96.761719 88.492188 "/>
<path style="fill:none;stroke-width:7;stroke-linecap:round;stroke-linejoin:round;stroke:rgb(100%,99.215686%,54.509804%);stroke-opacity:1;stroke-miterlimit:10;" d="M 96.761719 88.492188 L 103.535156 91.273438 "/>
<path style="fill:none;stroke-width:7;stroke-linecap:round;stroke-linejoin:round;stroke:rgb(100%,99.215686%,54.509804%);stroke-opacity:1;stroke-miterlimit:10;" d="M 83.5625 83.171875 L 90.5625 85.976563 "/>
<path style="fill:none;stroke-width:7;stroke-linecap:round;stroke-linejoin:round;stroke:rgb(100%,99.215686%,54.509804%);stroke-opacity:1;stroke-miterlimit:10;" d="M 7.140625 79.011719 L 21.496094 75.023438 L 27.117188 73.492188 "/>
<path style="fill:none;stroke-width:7;stroke-linecap:round;stroke-linejoin:round;stroke:rgb(100%,99.215686%,54.509804%);stroke-opacity:1;stroke-miterlimit:10;" d="M 27.117188 73.492188 L 34.734375 71.417969 L 40.984375 70.292969 L 42.582031 70.085938 L 46.964844 70.207031 L 49.621094 70.542969 "/>
<path style="fill:none;stroke-width:7;stroke-linecap:round;stroke-linejoin:round;stroke:rgb(100%,99.215686%,54.509804%);stroke-opacity:1;stroke-miterlimit:10;" d="M 103.535156 91.273438 L 110.136719 93.984375 L 119.335938 98.203125 L 122.285156 99.101563 L 124.660156 99.226563 L 127.410156 98.976563 "/>
<path style="fill:none;stroke-width:7;stroke-linecap:round;stroke-linejoin:round;stroke:rgb(100%,99.215686%,54.509804%);stroke-opacity:1;stroke-miterlimit:10;" d="M 49.621094 70.542969 L 57.207031 72.730469 L 70.523438 77.9375 L 76.695313 80.421875 L 83.5625 83.171875 "/>
<path style="fill:none;stroke-width:7;stroke-linecap:round;stroke-linejoin:round;stroke:rgb(100%,99.215686%,54.509804%);stroke-opacity:1;stroke-miterlimit:10;" d="M 164.671875 113.117188 L 175.078125 184.363281 "/>
<path style="fill:none;stroke-width:7;stroke-linecap:round;stroke-linejoin:round;stroke:rgb(100%,99.215686%,54.509804%);stroke-opacity:1;stroke-miterlimit:10;" d="M 7.140625 79.011719 L 8.992188 121.304688 L 10.339844 144.003906 L 10.96875 154.75 "/>
<path style="fill:none;stroke-width:7;stroke-linecap:round;stroke-linejoin:round;stroke:rgb(100%,99.215686%,54.509804%);stroke-opacity:1;stroke-miterlimit:10;" d="M 1.734375 -10 L 1.851563 -7.875 L 1.992188 -5.941406 L 2.503906 2.617188 L 3.226563 14.984375 L 4.507813 36.796875 L 6.441406 67.570313 L 7.140625 79.011719 "/>
<path style="fill:none;stroke-width:7;stroke-linecap:round;stroke-linejoin:round;stroke:rgb(100%,99.215686%,54.509804%);stroke-opacity:1;stroke-miterlimit:10;" d="M 146.550781 -10 L 150.636719 18.402344 L 153.734375 39.925781 L 157.289063 64.539063 L 159.277344 78.308594 L 160.910156 89.65625 L 162.308594 99.230469 L 164.671875 113.117188 "/>
<path style="fill:none;stroke-width:7;stroke-linecap:round;stroke-linejoin:round;stroke:rgb(100%,99.215686%,54.509804%);stroke-opacity:1;stroke-miterlimit:10;" d="M -10 83.71875 L 7.140625 79.011719 "/>
<path style="fill:none;stroke-width:3;stroke-linecap:round;stroke-linejoin:round;stroke:rgb(100%,100%,100%);stroke-opacity:1;stroke-miterlimit:10;" d="M 147.105469 126.757813 L 145.949219 126.914063 C 146.25 126.539063 146.457031 126.152344 146.574219 125.757813 C 146.6875 125.371094 146.714844 124.96875 146.652344 124.554688 C 146.546875 123.742188 146.1875 123.152344 145.574219 122.789063 C 144.957031 122.433594 144.125 122.328125 143.074219 122.476563 C 142.03125 122.621094 141.261719 122.949219 140.761719 123.460938 C 140.269531 123.980469 140.078125 124.648438 140.183594 125.460938 C 140.246094 125.875 140.378906 126.25 140.589844 126.585938 C 140.808594 126.929688 141.109375 127.246094 141.496094 127.539063 L 140.386719 127.695313 C 140.074219 127.382813 139.824219 127.042969 139.636719 126.679688 C 139.457031 126.324219 139.34375 125.9375 139.292969 125.523438 C 139.136719 124.4375 139.386719 123.539063 140.042969 122.820313 C 140.699219 122.101563 141.660156 121.652344 142.933594 121.476563 C 144.203125 121.300781 145.25 121.464844 146.074219 121.976563 C 146.894531 122.496094 147.386719 123.296875 147.542969 124.382813 C 147.605469 124.808594 147.59375 125.21875 147.511719 125.617188 C 147.4375 126.011719 147.300781 126.390625 147.105469 126.757813 Z M 145.542969 130.566406 C 145.46875 130.085938 145.207031 129.738281 144.761719 129.519531 C 144.3125 129.308594 143.734375 129.257813 143.027344 129.363281 C 142.316406 129.464844 141.777344 129.683594 141.402344 130.019531 C 141.035156 130.351563 140.890625 130.757813 140.964844 131.238281 C 141.035156 131.707031 141.296875 132.042969 141.746094 132.253906 C 142.191406 132.472656 142.769531 132.527344 143.480469 132.425781 C 144.1875 132.320313 144.722656 132.101563 145.089844 131.769531 C 145.464844 131.433594 145.613281 131.035156 145.542969 130.566406 Z M 146.371094 130.441406 C 146.484375 131.199219 146.296875 131.835938 145.808594 132.347656 C 145.316406 132.867188 144.582031 133.199219 143.605469 133.347656 C 142.636719 133.492188 141.839844 133.382813 141.214844 133.019531 C 140.597656 132.664063 140.234375 132.105469 140.121094 131.347656 C 140.003906 130.574219 140.191406 129.933594 140.683594 129.425781 C 141.183594 128.914063 141.917969 128.585938 142.886719 128.441406 C 143.863281 128.296875 144.660156 128.398438 145.277344 128.753906 C 145.890625 129.105469 146.253906 129.667969 146.371094 130.441406 Z M 146.359375 137.613281 C 146.390625 137.496094 146.410156 137.378906 146.421875 137.253906 C 146.441406 137.136719 146.441406 137.011719 146.421875 136.878906 C 146.347656 136.367188 146.113281 136.007813 145.71875 135.800781 C 145.320313 135.589844 144.789063 135.539063 144.125 135.644531 L 140.984375 136.097656 L 140.84375 135.191406 L 146.796875 134.316406 L 146.9375 135.222656 L 146.015625 135.363281 C 146.390625 135.496094 146.6875 135.695313 146.90625 135.957031 C 147.132813 136.226563 147.28125 136.574219 147.34375 137.003906 C 147.34375 137.054688 147.347656 137.117188 147.359375 137.191406 C 147.367188 137.273438 147.367188 137.355469 147.359375 137.441406 Z M 144.980469 142.664063 C 145.699219 142.558594 146.238281 142.34375 146.605469 142.023438 C 146.96875 141.699219 147.121094 141.308594 147.058594 140.851563 C 146.984375 140.371094 146.722656 140.027344 146.277344 139.820313 C 145.839844 139.621094 145.261719 139.574219 144.542969 139.679688 C 143.824219 139.78125 143.277344 139.996094 142.902344 140.320313 C 142.535156 140.640625 142.390625 141.042969 142.464844 141.523438 C 142.527344 141.980469 142.78125 142.308594 143.230469 142.507813 C 143.675781 142.714844 144.261719 142.765625 144.980469 142.664063 Z M 146.636719 139.382813 C 147 139.515625 147.285156 139.710938 147.496094 139.960938 C 147.714844 140.210938 147.855469 140.539063 147.917969 140.945313 C 148.011719 141.589844 147.796875 142.152344 147.277344 142.632813 C 146.765625 143.121094 146.042969 143.433594 145.105469 143.570313 C 144.167969 143.703125 143.378906 143.609375 142.746094 143.289063 C 142.121094 142.976563 141.761719 142.496094 141.667969 141.851563 C 141.605469 141.445313 141.636719 141.089844 141.761719 140.789063 C 141.894531 140.496094 142.128906 140.230469 142.464844 139.992188 L 141.574219 140.117188 L 141.433594 139.210938 L 149.699219 137.992188 L 149.839844 138.898438 Z M 148.3125 144.597656 L 148.4375 145.488281 L 142.484375 146.363281 L 142.359375 145.472656 Z M 150.625 144.253906 L 150.75 145.144531 L 149.515625 145.332031 L 149.390625 144.441406 Z M 147.007813 152.113281 L 143.414063 152.644531 L 143.273438 151.769531 L 146.835938 151.253906 C 147.398438 151.167969 147.804688 151.003906 148.054688 150.753906 C 148.304688 150.511719 148.398438 150.199219 148.335938 149.816406 C 148.261719 149.335938 148.039063 148.980469 147.664063 148.753906 C 147.296875 148.535156 146.828125 148.464844 146.257813 148.550781 L 142.882813 149.050781 L 142.742188 148.144531 L 148.695313 147.269531 L 148.835938 148.175781 L 147.914063 148.316406 C 148.296875 148.472656 148.601563 148.675781 148.820313 148.925781 C 149.039063 149.183594 149.171875 149.507813 149.226563 149.894531 C 149.320313 150.496094 149.179688 150.988281 148.804688 151.363281 C 148.429688 151.746094 147.828125 151.996094 147.007813 152.113281 Z M 151.316406 157.5 L 148.332031 157.9375 L 148.503906 159.140625 C 148.574219 159.585938 148.761719 159.914063 149.066406 160.125 C 149.367188 160.332031 149.753906 160.40625 150.222656 160.34375 C 150.699219 160.269531 151.050781 160.085938 151.269531 159.796875 C 151.488281 159.515625 151.558594 159.148438 151.488281 158.703125 Z M 152.066406 156.390625 L 152.378906 158.578125 C 152.503906 159.378906 152.386719 160.007813 152.035156 160.46875 C 151.691406 160.9375 151.132813 161.226563 150.363281 161.34375 C 149.582031 161.457031 148.960938 161.335938 148.503906 160.984375 C 148.042969 160.640625 147.753906 160.066406 147.628906 159.265625 L 147.457031 158.0625 L 144.269531 158.53125 L 144.128906 157.546875 Z M 153.257813 162.203125 L 153.382813 163.09375 L 145.117188 164.3125 L 144.992188 163.421875 Z M 148.738281 168.140625 C 148.632813 167.421875 148.464844 166.9375 148.238281 166.6875 C 148.019531 166.445313 147.695313 166.359375 147.269531 166.421875 C 146.925781 166.472656 146.664063 166.617188 146.488281 166.859375 C 146.320313 167.097656 146.261719 167.390625 146.316406 167.734375 C 146.378906 168.234375 146.621094 168.597656 147.050781 168.828125 C 147.488281 169.066406 148.019531 169.140625 148.644531 169.046875 L 148.878906 169.015625 Z M 149.410156 169.828125 L 146.003906 170.328125 L 145.878906 169.453125 L 146.769531 169.328125 C 146.382813 169.171875 146.082031 168.953125 145.863281 168.671875 C 145.644531 168.398438 145.503906 168.046875 145.441406 167.609375 C 145.367188 167.066406 145.476563 166.609375 145.769531 166.234375 C 146.058594 165.867188 146.496094 165.644531 147.082031 165.5625 C 147.746094 165.457031 148.277344 165.582031 148.675781 165.9375 C 149.070313 166.289063 149.324219 166.867188 149.441406 167.671875 L 149.628906 168.90625 L 149.722656 168.890625 C 150.179688 168.816406 150.507813 168.628906 150.707031 168.328125 C 150.914063 168.035156 150.980469 167.644531 150.910156 167.15625 C 150.867188 166.851563 150.785156 166.5625 150.660156 166.28125 C 150.542969 166 150.382813 165.734375 150.175781 165.484375 L 151.066406 165.359375 C 151.261719 165.671875 151.414063 165.96875 151.519531 166.25 C 151.632813 166.539063 151.710938 166.832031 151.753906 167.125 C 151.867188 167.894531 151.730469 168.503906 151.347656 168.953125 C 150.960938 169.398438 150.316406 169.691406 149.410156 169.828125 Z M 152.554688 175.15625 L 151.648438 175.296875 C 151.761719 175.023438 151.835938 174.757813 151.867188 174.5 C 151.90625 174.238281 151.914063 173.984375 151.882813 173.734375 C 151.796875 173.148438 151.53125 172.726563 151.085938 172.46875 C 150.636719 172.21875 150.046875 172.144531 149.320313 172.25 C 148.601563 172.351563 148.0625 172.59375 147.710938 172.96875 C 147.355469 173.34375 147.21875 173.820313 147.304688 174.40625 C 147.335938 174.65625 147.402344 174.898438 147.507813 175.140625 C 147.609375 175.378906 147.761719 175.609375 147.960938 175.828125 L 147.070313 175.96875 C 146.890625 175.738281 146.75 175.492188 146.648438 175.234375 C 146.554688 174.984375 146.484375 174.710938 146.445313 174.421875 C 146.320313 173.609375 146.5 172.925781 146.992188 172.375 C 147.492188 171.820313 148.21875 171.472656 149.179688 171.328125 C 150.148438 171.183594 150.945313 171.304688 151.570313 171.703125 C 152.203125 172.109375 152.578125 172.726563 152.695313 173.5625 C 152.734375 173.832031 152.746094 174.101563 152.726563 174.375 C 152.703125 174.644531 152.648438 174.90625 152.554688 175.15625 Z M 150.953125 181.628906 L 150.46875 181.691406 L 149.875 177.644531 C 149.207031 177.789063 148.722656 178.050781 148.421875 178.425781 C 148.128906 178.808594 148.023438 179.292969 148.109375 179.878906 C 148.148438 180.210938 148.238281 180.527344 148.375 180.832031 C 148.507813 181.132813 148.691406 181.429688 148.921875 181.722656 L 148.015625 181.847656 C 147.804688 181.554688 147.640625 181.246094 147.515625 180.925781 C 147.390625 180.601563 147.300781 180.273438 147.25 179.941406 C 147.125 179.085938 147.300781 178.367188 147.78125 177.785156 C 148.257813 177.210938 148.972656 176.855469 149.921875 176.722656 C 150.890625 176.578125 151.691406 176.695313 152.328125 177.082031 C 152.972656 177.476563 153.359375 178.074219 153.484375 178.878906 C 153.585938 179.597656 153.410156 180.199219 152.953125 180.691406 C 152.503906 181.179688 151.835938 181.492188 150.953125 181.628906 Z M 151.109375 180.707031 C 151.640625 180.621094 152.046875 180.425781 152.328125 180.113281 C 152.609375 179.808594 152.71875 179.445313 152.65625 179.019531 C 152.582031 178.519531 152.367188 178.136719 152.015625 177.878906 C 151.671875 177.628906 151.21875 177.523438 150.65625 177.566406 Z M 151.109375 180.707031 "/>
<path style=" stroke:none;fill-rule:evenodd;fill:rgb(20%,20%,20%);fill-opacity:1;" d="M 147.105469 126.757813 L 145.949219 126.914063 C 146.25 126.539063 146.457031 126.152344 146.574219 125.757813 C 146.6875 125.371094 146.714844 124.96875 146.652344 124.554688 C 146.546875 123.742188 146.1875 123.152344 145.574219 122.789063 C 144.957031 122.433594 144.125 122.328125 143.074219 122.476563 C 142.03125 122.621094 141.261719 122.949219 140.761719 123.460938 C 140.269531 123.980469 140.078125 124.648438 140.183594 125.460938 C 140.246094 125.875 140.378906 126.25 140.589844 126.585938 C 140.808594 126.929688 141.109375 127.246094 141.496094 127.539063 L 140.386719 127.695313 C 140.074219 127.382813 139.824219 127.042969 139.636719 126.679688 C 139.457031 126.324219 139.34375 125.9375 139.292969 125.523438 C 139.136719 124.4375 139.386719 123.539063 140.042969 122.820313 C 140.699219 122.101563 141.660156 121.652344 142.933594 121.476563 C 144.203125 121.300781 145.25 121.464844 146.074219 121.976563 C 146.894531 122.496094 147.386719 123.296875 147.542969 124.382813 C 147.605469 124.808594 147.59375 125.21875 147.511719 125.617188 C 147.4375 126.011719 147.300781 126.390625 147.105469 126.757813 Z M 145.542969 130.566406 C 145.46875 130.085938 145.207031 129.738281 144.761719 129.519531 C 144.3125 129.308594 143.734375 129.257813 143.027344 129.363281 C 142.316406 129.464844 141.777344 129.683594 141.402344 130.019531 C 141.035156 130.351563 140.890625 130.757813 140.964844 131.238281 C 141.035156 131.707031 141.296875 132.042969 141.746094 132.253906 C 142.191406 132.472656 142.769531 132.527344 143.480469 132.425781 C 144.1875 132.320313 144.722656 132.101563 145.089844 131.769531 C 145.464844 131.433594 145.613281 131.035156 145.542969 130.566406 Z M 146.371094 130.441406 C 146.484375 131.199219 146.296875 131.835938 145.808594 132.347656 C 145.316406 132.867188 144.582031 133.199219 143.605469 133.347656 C 142.636719 133.492188 141.839844 133.382813 141.214844 133.019531 C 140.597656 132.664063 140.234375 132.105469 140.121094 131.347656 C 140.003906 130.574219 140.191406 129.933594 140.683594 129.425781 C 141.183594 128.914063 141.917969 128.585938 142.886719 128.441406 C 143.863281 128.296875 144.660156 128.398438 145.277344 128.753906 C 145.890625 129.105469 146.253906 129.667969 146.371094 130.441406 Z M 146.359375 137.613281 C 146.390625 137.496094 146.410156 137.378906 146.421875 137.253906 C 146.441406 137.136719 146.441406 137.011719 146.421875 136.878906 C 146.347656 136.367188 146.113281 136.007813 145.71875 135.800781 C 145.320313 135.589844 144.789063 135.539063 144.125 135.644531 L 140.984375 136.097656 L 140.84375 135.191406 L 146.796875 134.316406 L 146.9375 135.222656 L 146.015625 135.363281 C 146.390625 135.496094 146.6875 135.695313 146.90625 135.957031 C 147.132813 136.226563 147.28125 136.574219 147.34375 137.003906 C 147.34375 137.054688 147.347656 137.117188 147.359375 137.191406 C 147.367188 137.273438 147.367188 137.355469 147.359375 137.441406 Z M 144.980469 142.664063 C 145.699219 142.558594 146.238281 142.34375 146.605469 142.023438 C 146.96875 141.699219 147.121094 141.308594 147.058594 140.851563 C 146.984375 140.371094 146.722656 140.027344 146.277344 139.820313 C 145.839844 139.621094 145.261719 139.574219 144.542969 139.679688 C 143.824219 139.78125 143.277344 139.996094 142.902344 140.320313 C 142.535156 140.640625 142.390625 141.042969 142.464844 141.523438 C 142.527344 141.980469 142.78125 142.308594 143.230469 142.507813 C 143.675781 142.714844 144.261719 142.765625 144.980469 142.664063 Z M 146.636719 139.382813 C 147 139.515625 147.285156 139.710938 147.496094 139.960938 C 147.714844 140.210938 147.855469 140.539063 147.917969 140.945313 C 148.011719 141.589844 147.796875 142.152344 147.277344 142.632813 C 146.765625 143.121094 146.042969 143.433594 145.105469 143.570313 C 144.167969 143.703125 143.378906 143.609375 142.746094 143.289063 C 142.121094 142.976563 141.761719 142.496094 141.667969 141.851563 C 141.605469 141.445313 141.636719 141.089844 141.761719 140.789063 C 141.894531 140.496094 142.128906 140.230469 142.464844 139.992188 L 141.574219 140.117188 L 141.433594 139.210938 L 149.699219 137.992188 L 149.839844 138.898438 Z M 148.3125 144.597656 L 148.4375 145.488281 L 142.484375 146.363281 L 142.359375 145.472656 Z M 150.625 144.253906 L 150.75 145.144531 L 149.515625 145.332031 L 149.390625 144.441406 Z M 147.007813 152.113281 L 143.414063 152.644531 L 143.273438 151.769531 L 146.835938 151.253906 C 147.398438 151.167969 147.804688 151.003906 148.054688 150.753906 C 148.304688 150.511719 148.398438 150.199219 148.335938 149.816406 C 148.261719 149.335938 148.039063 148.980469 147.664063 148.753906 C 147.296875 148.535156 146.828125 148.464844 146.257813 148.550781 L 142.882813 149.050781 L 142.742188 148.144531 L 148.695313 147.269531 L 148.835938 148.175781 L 147.914063 148.316406 C 148.296875 148.472656 148.601563 148.675781 148.820313 148.925781 C 149.039063 149.183594 149.171875 149.507813 149.226563 149.894531 C 149.320313 150.496094 149.179688 150.988281 148.804688 151.363281 C 148.429688 151.746094 147.828125 151.996094 147.007813 152.113281 Z M 151.316406 157.5 L 148.332031 157.9375 L 148.503906 159.140625 C 148.574219 159.585938 148.761719 159.914063 149.066406 160.125 C 149.367188 160.332031 149.753906 160.40625 150.222656 160.34375 C 150.699219 160.269531 151.050781 160.085938 151.269531 159.796875 C 151.488281 159.515625 151.558594 159.148438 151.488281 158.703125 Z M 152.066406 156.390625 L 152.378906 158.578125 C 152.503906 159.378906 152.386719 160.007813 152.035156 160.46875 C 151.691406 160.9375 151.132813 161.226563 150.363281 161.34375 C 149.582031 161.457031 148.960938 161.335938 148.503906 160.984375 C 148.042969 160.640625 147.753906 160.066406 147.628906 159.265625 L 147.457031 158.0625 L 144.269531 158.53125 L 144.128906 157.546875 Z M 153.257813 162.203125 L 153.382813 163.09375 L 145.117188 164.3125 L 144.992188 163.421875 Z M 148.738281 168.140625 C 148.632813 167.421875 148.464844 166.9375 148.238281 166.6875 C 148.019531 166.445313 147.695313 166.359375 147.269531 166.421875 C 146.925781 166.472656 146.664063 166.617188 146.488281 166.859375 C 146.320313 167.097656 146.261719 167.390625 146.316406 167.734375 C 146.378906 168.234375 146.621094 168.597656 147.050781 168.828125 C 147.488281 169.066406 148.019531 169.140625 148.644531 169.046875 L 148.878906 169.015625 Z M 149.410156 169.828125 L 146.003906 170.328125 L 145.878906 169.453125 L 146.769531 169.328125 C 146.382813 169.171875 146.082031 168.953125 145.863281 168.671875 C 145.644531 168.398438 145.503906 168.046875 145.441406 167.609375 C 145.367188 167.066406 145.476563 166.609375 145.769531 166.234375 C 146.058594 165.867188 146.496094 165.644531 147.082031 165.5625 C 147.746094 165.457031 148.277344 165.582031 148.675781 165.9375 C 149.070313 166.289063 149.324219 166.867188 149.441406 167.671875 L 149.628906 168.90625 L 149.722656 168.890625 C 150.179688 168.816406 150.507813 168.628906 150.707031 168.328125 C 150.914063 168.035156 150.980469 167.644531 150.910156 167.15625 C 150.867188 166.851563 150.785156 166.5625 150.660156 166.28125 C 150.542969 166 150.382813 165.734375 150.175781 165.484375 L 151.066406 165.359375 C 151.261719 165.671875 151.414063 165.96875 151.519531 166.25 C 151.632813 166.539063 151.710938 166.832031 151.753906 167.125 C 151.867188 167.894531 151.730469 168.503906 151.347656 168.953125 C 150.960938 169.398438 150.316406 169.691406 149.410156 169.828125 Z M 152.554688 175.15625 L 151.648438 175.296875 C 151.761719 175.023438 151.835938 174.757813 151.867188 174.5 C 151.90625 174.238281 151.914063 173.984375 151.882813 173.734375 C 151.796875 173.148438 151.53125 172.726563 151.085938 172.46875 C 150.636719 172.21875 150.046875 172.144531 149.320313 172.25 C 148.601563 172.351563 148.0625 172.59375 147.710938 172.96875 C 147.355469 173.34375 147.21875 173.820313 147.304688 174.40625 C 147.335938 174.65625 147.402344 174.898438 147.507813 175.140625 C 147.609375 175.378906 147.761719 175.609375 147.960938 175.828125 L 147.070313 175.96875 C 146.890625 175.738281 146.75 175.492188 146.648438 175.234375 C 146.554688 174.984375 146.484375 174.710938 146.445313 174.421875 C 146.320313 173.609375 146.5 172.925781 146.992188 172.375 C 147.492188 171.820313 148.21875 171.472656 149.179688 171.328125 C 150.148438 171.183594 150.945313 171.304688 151.570313 171.703125 C 152.203125 172.109375 152.578125 172.726563 152.695313 173.5625 C 152.734375 173.832031 152.746094 174.101563 152.726563 174.375 C 152.703125 174.644531 152.648438 174.90625 152.554688 175.15625 Z M 150.953125 181.628906 L 150.46875 181.691406 L 149.875 177.644531 C 149.207031 177.789063 148.722656 178.050781 148.421875 178.425781 C 148.128906 178.808594 148.023438 179.292969 148.109375 179.878906 C 148.148438 180.210938 148.238281 180.527344 148.375 180.832031 C 148.507813 181.132813 148.691406 181.429688 148.921875 181.722656 L 148.015625 181.847656 C 147.804688 181.554688 147.640625 181.246094 147.515625 180.925781 C 147.390625 180.601563 147.300781 180.273438 147.25 179.941406 C 147.125 179.085938 147.300781 178.367188 147.78125 177.785156 C 148.257813 177.210938 148.972656 176.855469 149.921875 176.722656 C 150.890625 176.578125 151.691406 176.695313 152.328125 177.082031 C 152.972656 177.476563 153.359375 178.074219 153.484375 178.878906 C 153.585938 179.597656 153.410156 180.199219 152.953125 180.691406 C 152.503906 181.179688 151.835938 181.492188 150.953125 181.628906 Z M 151.109375 180.707031 C 151.640625 180.621094 152.046875 180.425781 152.328125 180.113281 C 152.609375 179.808594 152.71875 179.445313 152.65625 179.019531 C 152.582031 178.519531 152.367188 178.136719 152.015625 177.878906 C 151.671875 177.628906 151.21875 177.523438 150.65625 177.566406 Z M 151.109375 180.707031 "/>
<path style="fill:none;stroke-width:3;stroke-linecap:round;stroke-linejoin:round;stroke:rgb(100%,100%,100%);stroke-opacity:1;stroke-miterlimit:10;" d="M 39.332031 163.589844 L 39.503906 166.527344 L 41.066406 166.433594 C 41.585938 166.402344 41.960938 166.261719 42.191406 166.011719 C 42.429688 165.761719 42.535156 165.386719 42.503906 164.886719 C 42.480469 164.386719 42.335938 164.023438 42.066406 163.792969 C 41.804688 163.566406 41.414063 163.464844 40.894531 163.496094 Z M 39.144531 160.308594 L 39.285156 162.714844 L 40.722656 162.636719 C 41.199219 162.605469 41.550781 162.488281 41.769531 162.277344 C 41.988281 162.058594 42.082031 161.746094 42.050781 161.339844 C 42.027344 160.933594 41.898438 160.644531 41.660156 160.464844 C 41.417969 160.277344 41.058594 160.199219 40.582031 160.230469 Z M 38.113281 159.464844 L 40.613281 159.324219 C 41.351563 159.285156 41.929688 159.425781 42.347656 159.746094 C 42.773438 160.070313 43.003906 160.550781 43.035156 161.183594 C 43.066406 161.675781 42.980469 162.066406 42.785156 162.355469 C 42.597656 162.648438 42.308594 162.839844 41.925781 162.933594 C 42.402344 163.027344 42.785156 163.253906 43.066406 163.605469 C 43.355469 163.949219 43.519531 164.394531 43.550781 164.933594 C 43.589844 165.652344 43.402344 166.222656 42.988281 166.636719 C 42.582031 167.054688 41.972656 167.285156 41.160156 167.324219 L 38.566406 167.464844 Z M 47.121094 161.65625 C 46.640625 161.6875 46.269531 161.917969 46.011719 162.34375 C 45.761719 162.773438 45.65625 163.34375 45.699219 164.0625 C 45.738281 164.78125 45.90625 165.339844 46.199219 165.734375 C 46.5 166.132813 46.890625 166.3125 47.371094 166.28125 C 47.847656 166.25 48.214844 166.023438 48.464844 165.59375 C 48.722656 165.167969 48.832031 164.59375 48.792969 163.875 C 48.75 163.15625 48.578125 162.601563 48.277344 162.203125 C 47.984375 161.808594 47.597656 161.625 47.121094 161.65625 Z M 47.074219 160.828125 C 47.84375 160.789063 48.464844 161.03125 48.933594 161.5625 C 49.402344 162.085938 49.660156 162.839844 49.714844 163.828125 C 49.765625 164.808594 49.589844 165.59375 49.183594 166.1875 C 48.785156 166.773438 48.203125 167.085938 47.433594 167.125 C 46.652344 167.164063 46.019531 166.921875 45.542969 166.390625 C 45.074219 165.851563 44.8125 165.089844 44.761719 164.109375 C 44.707031 163.121094 44.886719 162.339844 45.292969 161.765625 C 45.699219 161.183594 46.292969 160.871094 47.074219 160.828125 Z M 53.640625 163.578125 C 52.921875 163.621094 52.425781 163.746094 52.15625 163.953125 C 51.894531 164.152344 51.773438 164.46875 51.796875 164.90625 C 51.816406 165.25 51.9375 165.523438 52.15625 165.71875 C 52.382813 165.90625 52.675781 165.992188 53.03125 165.96875 C 53.53125 165.949219 53.914063 165.734375 54.1875 165.328125 C 54.457031 164.914063 54.578125 164.386719 54.546875 163.75 L 54.53125 163.515625 Z M 55.375 163.0625 L 55.578125 166.5 L 54.703125 166.546875 L 54.65625 165.640625 C 54.46875 166.027344 54.226563 166.3125 53.9375 166.5 C 53.644531 166.6875 53.28125 166.792969 52.84375 166.8125 C 52.289063 166.84375 51.835938 166.699219 51.484375 166.375 C 51.140625 166.054688 50.953125 165.601563 50.921875 165.015625 C 50.878906 164.339844 51.050781 163.820313 51.4375 163.453125 C 51.820313 163.078125 52.421875 162.871094 53.234375 162.828125 L 54.484375 162.75 L 54.484375 162.65625 C 54.453125 162.199219 54.296875 161.855469 54.015625 161.625 C 53.734375 161.398438 53.347656 161.296875 52.859375 161.328125 C 52.554688 161.351563 52.257813 161.414063 51.96875 161.515625 C 51.675781 161.609375 51.394531 161.746094 51.125 161.921875 L 51.078125 161.015625 C 51.398438 160.859375 51.710938 160.742188 52.015625 160.65625 C 52.316406 160.5625 52.613281 160.511719 52.90625 160.5 C 53.6875 160.449219 54.28125 160.636719 54.6875 161.0625 C 55.09375 161.492188 55.320313 162.15625 55.375 163.0625 Z M 60.257813 161.140625 C 60.152344 161.089844 60.039063 161.054688 59.914063 161.03125 C 59.796875 161 59.671875 160.992188 59.539063 161 C 59.027344 161.03125 58.648438 161.234375 58.398438 161.609375 C 58.15625 161.976563 58.054688 162.496094 58.085938 163.171875 L 58.273438 166.34375 L 57.367188 166.40625 L 57.023438 160.40625 L 57.929688 160.34375 L 57.992188 161.28125 C 58.15625 160.90625 58.382813 160.625 58.664063 160.4375 C 58.953125 160.242188 59.3125 160.132813 59.742188 160.109375 C 59.804688 160.109375 59.871094 160.109375 59.945313 160.109375 C 60.027344 160.109375 60.109375 160.117188 60.195313 160.125 Z M 64.734375 160.875 L 64.5625 157.625 L 65.4375 157.5625 L 65.90625 165.90625 L 65.03125 165.96875 L 64.984375 165.0625 C 64.816406 165.4375 64.59375 165.71875 64.3125 165.90625 C 64.039063 166.09375 63.707031 166.199219 63.3125 166.21875 C 62.65625 166.257813 62.101563 166.007813 61.65625 165.453125 C 61.207031 164.890625 60.957031 164.136719 60.90625 163.1875 C 60.851563 162.242188 61.015625 161.46875 61.390625 160.875 C 61.773438 160.28125 62.296875 159.964844 62.953125 159.921875 C 63.347656 159.902344 63.691406 159.96875 63.984375 160.125 C 64.273438 160.28125 64.523438 160.53125 64.734375 160.875 Z M 61.828125 163.140625 C 61.867188 163.871094 62.035156 164.433594 62.328125 164.828125 C 62.617188 165.226563 63 165.40625 63.46875 165.375 C 63.945313 165.355469 64.304688 165.132813 64.546875 164.703125 C 64.796875 164.277344 64.898438 163.699219 64.859375 162.96875 C 64.816406 162.242188 64.648438 161.683594 64.359375 161.296875 C 64.066406 160.902344 63.679688 160.714844 63.203125 160.734375 C 62.734375 160.765625 62.375 160.996094 62.125 161.421875 C 61.882813 161.839844 61.785156 162.414063 61.828125 163.140625 Z M 66.863281 159.847656 L 67.769531 159.785156 L 69.144531 164.394531 L 69.988281 159.660156 L 71.035156 159.597656 L 72.394531 164.207031 L 73.238281 159.472656 L 74.128906 159.425781 L 73.050781 165.503906 L 72.003906 165.566406 L 70.566406 160.707031 L 69.675781 165.707031 L 68.628906 165.753906 Z M 78.101563 162.183594 C 77.382813 162.226563 76.886719 162.351563 76.617188 162.558594 C 76.355469 162.757813 76.234375 163.074219 76.257813 163.511719 C 76.277344 163.855469 76.398438 164.128906 76.617188 164.324219 C 76.84375 164.511719 77.136719 164.597656 77.492188 164.574219 C 77.992188 164.554688 78.375 164.339844 78.648438 163.933594 C 78.917969 163.519531 79.039063 162.992188 79.007813 162.355469 L 78.992188 162.121094 Z M 79.835938 161.667969 L 80.039063 165.105469 L 79.164063 165.152344 L 79.117188 164.246094 C 78.929688 164.632813 78.6875 164.917969 78.398438 165.105469 C 78.105469 165.292969 77.742188 165.398438 77.304688 165.417969 C 76.75 165.449219 76.296875 165.304688 75.945313 164.980469 C 75.601563 164.660156 75.414063 164.207031 75.382813 163.621094 C 75.339844 162.945313 75.511719 162.425781 75.898438 162.058594 C 76.28125 161.683594 76.882813 161.476563 77.695313 161.433594 L 78.945313 161.355469 L 78.945313 161.261719 C 78.914063 160.804688 78.757813 160.460938 78.476563 160.230469 C 78.195313 160.003906 77.808594 159.902344 77.320313 159.933594 C 77.015625 159.957031 76.71875 160.019531 76.429688 160.121094 C 76.136719 160.214844 75.855469 160.351563 75.585938 160.527344 L 75.539063 159.621094 C 75.859375 159.464844 76.171875 159.347656 76.476563 159.261719 C 76.777344 159.167969 77.074219 159.117188 77.367188 159.105469 C 78.148438 159.054688 78.742188 159.242188 79.148438 159.667969 C 79.554688 160.097656 79.78125 160.761719 79.835938 161.667969 Z M 81.402344 156.667969 L 82.292969 156.605469 L 82.761719 164.949219 L 81.871094 165.011719 Z M 84.101563 156.511719 L 85.007813 156.449219 L 85.289063 161.371094 L 87.789063 158.652344 L 88.914063 158.589844 L 86.210938 161.542969 L 89.367188 164.574219 L 88.226563 164.636719 L 85.304688 161.855469 L 85.476563 164.792969 L 84.570313 164.855469 Z M 84.101563 156.511719 "/>
<path style=" stroke:none;fill-rule:evenodd;fill:rgb(20%,20%,20%);fill-opacity:1;" d="M 39.332031 163.589844 L 39.503906 166.527344 L 41.066406 166.433594 C 41.585938 166.402344 41.960938 166.261719 42.191406 166.011719 C 42.429688 165.761719 42.535156 165.386719 42.503906 164.886719 C 42.480469 164.386719 42.335938 164.023438 42.066406 163.792969 C 41.804688 163.566406 41.414063 163.464844 40.894531 163.496094 Z M 39.144531 160.308594 L 39.285156 162.714844 L 40.722656 162.636719 C 41.199219 162.605469 41.550781 162.488281 41.769531 162.277344 C 41.988281 162.058594 42.082031 161.746094 42.050781 161.339844 C 42.027344 160.933594 41.898438 160.644531 41.660156 160.464844 C 41.417969 160.277344 41.058594 160.199219 40.582031 160.230469 Z M 38.113281 159.464844 L 40.613281 159.324219 C 41.351563 159.285156 41.929688 159.425781 42.347656 159.746094 C 42.773438 160.070313 43.003906 160.550781 43.035156 161.183594 C 43.066406 161.675781 42.980469 162.066406 42.785156 162.355469 C 42.597656 162.648438 42.308594 162.839844 41.925781 162.933594 C 42.402344 163.027344 42.785156 163.253906 43.066406 163.605469 C 43.355469 163.949219 43.519531 164.394531 43.550781 164.933594 C 43.589844 165.652344 43.402344 166.222656 42.988281 166.636719 C 42.582031 167.054688 41.972656 167.285156 41.160156 167.324219 L 38.566406 167.464844 Z M 47.121094 161.65625 C 46.640625 161.6875 46.269531 161.917969 46.011719 162.34375 C 45.761719 162.773438 45.65625 163.34375 45.699219 164.0625 C 45.738281 164.78125 45.90625 165.339844 46.199219 165.734375 C 46.5 166.132813 46.890625 166.3125 47.371094 166.28125 C 47.847656 166.25 48.214844 166.023438 48.464844 165.59375 C 48.722656 165.167969 48.832031 164.59375 48.792969 163.875 C 48.75 163.15625 48.578125 162.601563 48.277344 162.203125 C 47.984375 161.808594 47.597656 161.625 47.121094 161.65625 Z M 47.074219 160.828125 C 47.84375 160.789063 48.464844 161.03125 48.933594 161.5625 C 49.402344 162.085938 49.660156 162.839844 49.714844 163.828125 C 49.765625 164.808594 49.589844 165.59375 49.183594 166.1875 C 48.785156 166.773438 48.203125 167.085938 47.433594 167.125 C 46.652344 167.164063 46.019531 166.921875 45.542969 166.390625 C 45.074219 165.851563 44.8125 165.089844 44.761719 164.109375 C 44.707031 163.121094 44.886719 162.339844 45.292969 161.765625 C 45.699219 161.183594 46.292969 160.871094 47.074219 160.828125 Z M 53.640625 163.578125 C 52.921875 163.621094 52.425781 163.746094 52.15625 163.953125 C 51.894531 164.152344 51.773438 164.46875 51.796875 164.90625 C 51.816406 165.25 51.9375 165.523438 52.15625 165.71875 C 52.382813 165.90625 52.675781 165.992188 53.03125 165.96875 C 53.53125 165.949219 53.914063 165.734375 54.1875 165.328125 C 54.457031 164.914063 54.578125 164.386719 54.546875 163.75 L 54.53125 163.515625 Z M 55.375 163.0625 L 55.578125 166.5 L 54.703125 166.546875 L 54.65625 165.640625 C 54.46875 166.027344 54.226563 166.3125 53.9375 166.5 C 53.644531 166.6875 53.28125 166.792969 52.84375 166.8125 C 52.289063 166.84375 51.835938 166.699219 51.484375 166.375 C 51.140625 166.054688 50.953125 165.601563 50.921875 165.015625 C 50.878906 164.339844 51.050781 163.820313 51.4375 163.453125 C 51.820313 163.078125 52.421875 162.871094 53.234375 162.828125 L 54.484375 162.75 L 54.484375 162.65625 C 54.453125 162.199219 54.296875 161.855469 54.015625 161.625 C 53.734375 161.398438 53.347656 161.296875 52.859375 161.328125 C 52.554688 161.351563 52.257813 161.414063 51.96875 161.515625 C 51.675781 161.609375 51.394531 161.746094 51.125 161.921875 L 51.078125 161.015625 C 51.398438 160.859375 51.710938 160.742188 52.015625 160.65625 C 52.316406 160.5625 52.613281 160.511719 52.90625 160.5 C 53.6875 160.449219 54.28125 160.636719 54.6875 161.0625 C 55.09375 161.492188 55.320313 162.15625 55.375 163.0625 Z M 60.257813 161.140625 C 60.152344 161.089844 60.039063 161.054688 59.914063 161.03125 C 59.796875 161 59.671875 160.992188 59.539063 161 C 59.027344 161.03125 58.648438 161.234375 58.398438 161.609375 C 58.15625 161.976563 58.054688 162.496094 58.085938 163.171875 L 58.273438 166.34375 L 57.367188 166.40625 L 57.023438 160.40625 L 57.929688 160.34375 L 57.992188 161.28125 C 58.15625 160.90625 58.382813 160.625 58.664063 160.4375 C 58.953125 160.242188 59.3125 160.132813 59.742188 160.109375 C 59.804688 160.109375 59.871094 160.109375 59.945313 160.109375 C 60.027344 160.109375 60.109375 160.117188 60.195313 160.125 Z M 64.734375 160.875 L 64.5625 157.625 L 65.4375 157.5625 L 65.90625 165.90625 L 65.03125 165.96875 L 64.984375 165.0625 C 64.816406 165.4375 64.59375 165.71875 64.3125 165.90625 C 64.039063 166.09375 63.707031 166.199219 63.3125 166.21875 C 62.65625 166.257813 62.101563 166.007813 61.65625 165.453125 C 61.207031 164.890625 60.957031 164.136719 60.90625 163.1875 C 60.851563 162.242188 61.015625 161.46875 61.390625 160.875 C 61.773438 160.28125 62.296875 159.964844 62.953125 159.921875 C 63.347656 159.902344 63.691406 159.96875 63.984375 160.125 C 64.273438 160.28125 64.523438 160.53125 64.734375 160.875 Z M 61.828125 163.140625 C 61.867188 163.871094 62.035156 164.433594 62.328125 164.828125 C 62.617188 165.226563 63 165.40625 63.46875 165.375 C 63.945313 165.355469 64.304688 165.132813 64.546875 164.703125 C 64.796875 164.277344 64.898438 163.699219 64.859375 162.96875 C 64.816406 162.242188 64.648438 161.683594 64.359375 161.296875 C 64.066406 160.902344 63.679688 160.714844 63.203125 160.734375 C 62.734375 160.765625 62.375 160.996094 62.125 161.421875 C 61.882813 161.839844 61.785156 162.414063 61.828125 163.140625 Z M 66.863281 159.847656 L 67.769531 159.785156 L 69.144531 164.394531 L 69.988281 159.660156 L 71.035156 159.597656 L 72.394531 164.207031 L 73.238281 159.472656 L 74.128906 159.425781 L 73.050781 165.503906 L 72.003906 165.566406 L 70.566406 160.707031 L 69.675781 165.707031 L 68.628906 165.753906 Z M 78.101563 162.183594 C 77.382813 162.226563 76.886719 162.351563 76.617188 162.558594 C 76.355469 162.757813 76.234375 163.074219 76.257813 163.511719 C 76.277344 163.855469 76.398438 164.128906 76.617188 164.324219 C 76.84375 164.511719 77.136719 164.597656 77.492188 164.574219 C 77.992188 164.554688 78.375 164.339844 78.648438 163.933594 C 78.917969 163.519531 79.039063 162.992188 79.007813 162.355469 L 78.992188 162.121094 Z M 79.835938 161.667969 L 80.039063 165.105469 L 79.164063 165.152344 L 79.117188 164.246094 C 78.929688 164.632813 78.6875 164.917969 78.398438 165.105469 C 78.105469 165.292969 77.742188 165.398438 77.304688 165.417969 C 76.75 165.449219 76.296875 165.304688 75.945313 164.980469 C 75.601563 164.660156 75.414063 164.207031 75.382813 163.621094 C 75.339844 162.945313 75.511719 162.425781 75.898438 162.058594 C 76.28125 161.683594 76.882813 161.476563 77.695313 161.433594 L 78.945313 161.355469 L 78.945313 161.261719 C 78.914063 160.804688 78.757813 160.460938 78.476563 160.230469 C 78.195313 160.003906 77.808594 159.902344 77.320313 159.933594 C 77.015625 159.957031 76.71875 160.019531 76.429688 160.121094 C 76.136719 160.214844 75.855469 160.351563 75.585938 160.527344 L 75.539063 159.621094 C 75.859375 159.464844 76.171875 159.347656 76.476563 159.261719 C 76.777344 159.167969 77.074219 159.117188 77.367188 159.105469 C 78.148438 159.054688 78.742188 159.242188 79.148438 159.667969 C 79.554688 160.097656 79.78125 160.761719 79.835938 161.667969 Z M 81.402344 156.667969 L 82.292969 156.605469 L 82.761719 164.949219 L 81.871094 165.011719 Z M 84.101563 156.511719 L 85.007813 156.449219 L 85.289063 161.371094 L 87.789063 158.652344 L 88.914063 158.589844 L 86.210938 161.542969 L 89.367188 164.574219 L 88.226563 164.636719 L 85.304688 161.855469 L 85.476563 164.792969 L 84.570313 164.855469 Z M 84.101563 156.511719 "/>
</g>
</svg>

