<?xml version="1.0" encoding="UTF-8"?>
<svg xmlns="http://www.w3.org/2000/svg" xmlns:xlink="http://www.w3.org/1999/xlink" width="256pt" height="256pt" viewBox="0 0 256 256" version="1.1">
<g id="surface2">
<rect x="0" y="0" width="256" height="256" style="fill:rgb(60%,70.196078%,80%);fill-opacity:1;stroke:none;"/>
<path style=" stroke:none;fill-rule:evenodd;fill:rgb(94.901961%,93.72549%,91.372549%);fill-opacity:1;" d="M -4 259 L 259 259 L 212.984375 259 L 215.058594 256.730469 L 217.929688 259 L 259 259 L 243.640625 259 L 247.058594 254.730469 L 223.058594 234.132813 L 232.457031 221.332031 L 259 241.375 L 259 259 L 259 -4 L 259 148.867188 L 208.859375 132.730469 L 189.457031 189.730469 L 186.058594 188.730469 L 235.910156 46.457031 L 221.472656 41.332031 L 192.457031 115.128906 L 185.855469 114.730469 L 171.058594 159.332031 L 167.457031 158.328125 L 181.859375 114.730469 L 151.035156 114.667969 L 117.027344 114.59375 L 79.058594 223.328125 L -4 233.710938 L -4 209.96875 L 34.855469 206.730469 L 34.855469 201.730469 L 60.855469 197.730469 L 92.859375 111.730469 L 99.65625 114.355469 L 104.101563 113.886719 L 104.234375 110.4375 L 105.792969 106.996094 L 105.777344 93.90625 L 93.050781 93.648438 L 93.609375 77.90625 L 77.851563 77.9375 L 76.199219 63.710938 L 78.1875 57.894531 L 75.5625 52.65625 L 69.453125 55.40625 L 18.351563 79.433594 L 15.472656 78.996094 L 14.730469 77.746094 L 74.214844 49.660156 L 74.097656 49.441406 L 69.933594 41.679688 L 64.5 40.007813 L 55.183594 40.679688 L 53.296875 43.175781 L 51.113281 41.398438 L 43.734375 43.9375 L 40.492188 41.0625 L 37.335938 43.691406 L 33.617188 41.101563 L 35.765625 37.730469 L 36.988281 35.808594 L 34.09375 33.433594 L 31.75 31.511719 L 27.847656 35.171875 L 26.707031 34.261719 L 25.195313 35.5625 L 23.742188 34.011719 L 21.671875 36.570313 L 13.480469 29.375 L -4 49.457031 L -4 44.347656 L 11.132813 27.230469 L 23.972656 12.984375 L 14.734375 4.832031 L -4 26.949219 L -4 22.773438 L 19.667969 -4 L 1.496094 -4 L -4 1.839844 L -4 -4 L 259 -4 L 259 259 Z M -4 259 "/>
<path style=" stroke:none;fill-rule:evenodd;fill:rgb(70.980392%,82.352941%,61.176471%);fill-opacity:1;" d="M 183.535156 83.457031 L 203.898438 38.515625 L 205.285156 35.457031 L 229.660156 44.144531 L 235.910156 46.457031 L 237.511719 42.570313 L 254.648438 48.679688 L 260 50.738281 L 260 -4 L 260 13.230469 L 219.925781 -1.792969 L 214.039063 -4 L 149.460938 -4 L 150.113281 -0.949219 L 151.582031 5.144531 L 152.582031 10.175781 L 152.550781 14.832031 L 151.132813 19.101563 L 133.785156 65.332031 Z M 183.535156 83.457031 "/>
<path style=" stroke:none;fill-rule:evenodd;fill:rgb(81.960784%,81.568627%,80.392157%);fill-opacity:1;" d="M 117.027344 114.597656 L 151.035156 114.667969 L 191.910156 112.832031 L 221.472656 41.332031 L 205.285156 35.457031 L 203.898438 38.515625 L 183.535156 83.457031 L 133.785156 65.332031 Z M 117.027344 114.597656 "/>
<path style="fill:none;stroke-width:1;stroke-linecap:round;stroke-linejoin:round;stroke:rgb(81.960784%,81.960784%,81.960784%);stroke-opacity:1;stroke-miterlimit:10;" d="M 117.027344 114.597656 L 151.035156 114.667969 L 191.910156 112.832031 L 221.472656 41.332031 L 205.285156 35.457031 L 203.898438 38.515625 L 183.535156 83.457031 L 133.785156 65.332031 L 117.027344 114.597656 "/>
<path style=" stroke:none;fill-rule:evenodd;fill:rgb(87.058824%,81.960784%,67.058824%);fill-opacity:1;" d="M 133.785156 65.332031 L 183.535156 83.457031 L 203.898438 38.515625 L 151.132813 19.101563 Z M 133.785156 65.332031 "/>
<path style=" stroke:none;fill-rule:evenodd;fill:rgb(70.980392%,82.352941%,61.176471%);fill-opacity:1;" d="M 13.480469 29.375 L 21.671875 36.570313 L 23.742188 34.011719 L 25.195313 35.5625 L 26.707031 34.261719 L 27.847656 35.171875 L 31.75 31.511719 L 34.09375 33.433594 L 36.988281 35.808594 L 35.765625 37.730469 L 33.617188 41.101563 L 37.335938 43.691406 L 40.496094 41.0625 L 43.734375 43.9375 L 51.113281 41.398438 L 53.296875 43.175781 L 55.183594 40.679688 L 64.5 40.011719 L 69.933594 41.679688 L 74.101563 49.441406 L 14.730469 77.746094 L 15.472656 78.996094 L 18.351563 79.433594 L 69.453125 55.40625 L 75.5625 52.65625 L 78.1875 57.894531 L 76.199219 63.710938 L 77.851563 77.9375 L 93.609375 77.90625 L 93.050781 93.648438 L 105.777344 93.90625 L 105.792969 106.996094 L 104.234375 110.4375 L 104.101563 113.886719 L 109.773438 116.277344 L 118.78125 91.230469 L 97.390625 83.023438 L 95.960938 74.527344 L 97.875 64.515625 L 82.550781 59.191406 L 71.894531 39.34375 L 48.808594 31.527344 L 43.769531 34.410156 L 26.199219 17.644531 L 26.214844 5.660156 L 34.863281 -4 L 20.390625 -4 L 19.957031 -3.546875 L 14.738281 4.832031 L 23.972656 12.984375 L 11.132813 27.230469 Z M 13.480469 29.375 "/>
<path style=" stroke:none;fill-rule:evenodd;fill:rgb(70.980392%,82.352941%,61.176471%);fill-opacity:1;" d="M 234.183594 -4 L 260 5.492188 L 260 -4 Z M 234.183594 -4 "/>
<path style=" stroke:none;fill-rule:evenodd;fill:rgb(81.960784%,81.568627%,80.392157%);fill-opacity:1;" d="M 45.910156 33.628906 L 49.644531 29.363281 L 51.75 25.640625 L 49.433594 24.015625 L 56.210938 5.953125 L 57.988281 0.976563 L 59.183594 -1.460938 L 61.425781 -4 L 38.789063 -4 L 29.386719 6.398438 L 28.972656 9.476563 L 28.667969 13.71875 L 27.546875 15.195313 L 26.71875 16.339844 Z M 45.910156 33.628906 "/>
<path style="fill:none;stroke-width:1;stroke-linecap:round;stroke-linejoin:round;stroke:rgb(81.960784%,81.960784%,81.960784%);stroke-opacity:1;stroke-miterlimit:10;" d="M 45.910156 33.628906 L 49.644531 29.363281 L 51.75 25.640625 L 49.433594 24.015625 L 56.210938 5.953125 L 57.988281 0.976563 L 59.183594 -1.460938 L 61.425781 -4 L 38.789063 -4 L 29.386719 6.398438 L 28.972656 9.476563 L 28.667969 13.71875 L 27.546875 15.195313 L 26.71875 16.339844 L 45.910156 33.628906 "/>
<path style=" stroke:none;fill-rule:evenodd;fill:rgb(87.058824%,81.960784%,67.058824%);fill-opacity:1;" d="M 208.535156 30.738281 L 215.285156 32.738281 L 224.035156 33.738281 L 233.535156 30.238281 L 239.785156 23.238281 L 243.535156 17.492188 L 244.535156 10.742188 L 219.035156 2.742188 Z M 208.535156 30.738281 "/>
<path style=" stroke:none;fill-rule:evenodd;fill:rgb(87.058824%,81.960784%,67.058824%);fill-opacity:1;" d="M 195.539063 19.878906 L 200.972656 4.980469 L 176.34375 -4 L 172.09375 -4 L 167.160156 9.53125 Z M 195.539063 19.878906 "/>
<path style=" stroke:none;fill-rule:evenodd;fill:rgb(81.960784%,81.568627%,80.392157%);fill-opacity:1;" d="M 64.699219 3.300781 L 74.230469 6.898438 L 77.21875 3.4375 L 76.042969 2.269531 L 77.027344 1.214844 L 71.25 -4 L 71.101563 -4 L 70.1875 -2.972656 L 69.0625 -4 L 63.625 2.34375 Z M 64.699219 3.300781 "/>
<path style="fill:none;stroke-width:1;stroke-linecap:round;stroke-linejoin:round;stroke:rgb(81.960784%,81.960784%,81.960784%);stroke-opacity:1;stroke-miterlimit:10;" d="M 64.699219 3.300781 L 74.230469 6.898438 L 77.21875 3.4375 L 76.042969 2.269531 L 77.027344 1.214844 L 71.25 -4 L 71.101563 -4 L 70.1875 -2.972656 L 69.0625 -4 L 63.625 2.34375 L 64.699219 3.300781 "/>
<path style=" stroke:none;fill-rule:evenodd;fill:rgb(70.980392%,82.352941%,61.176471%);fill-opacity:1;" d="M 141.625 8.191406 L 141.667969 8.371094 L 145.507813 9.792969 L 144.535156 3.367188 L 143.316406 3.128906 Z M 141.625 8.191406 "/>
<path style="fill:none;stroke-width:16;stroke-linecap:round;stroke-linejoin:round;stroke:rgb(60%,70.196078%,80%);stroke-opacity:1;stroke-miterlimit:10;" d="M 272 166.984375 L 263.980469 171.511719 L 195.980469 204.511719 L 148.78125 207.585938 L 59.460938 272 "/>
<path style="fill:none;stroke-width:1;stroke-linecap:round;stroke-linejoin:round;stroke:rgb(100%,100%,100%);stroke-opacity:1;stroke-dasharray:2,3;stroke-miterlimit:10;" d="M 29.585938 0.9375 L 31.097656 2.3125 "/>
<path style="fill:none;stroke-width:1;stroke-linecap:round;stroke-linejoin:round;stroke:rgb(100%,100%,100%);stroke-opacity:1;stroke-dasharray:2,3;stroke-miterlimit:10;" d="M 52.65625 27.347656 L 50.335938 26.230469 "/>
<path style="fill:none;stroke-width:1;stroke-linecap:round;stroke-linejoin:round;stroke:rgb(100%,100%,100%);stroke-opacity:1;stroke-dasharray:2,3;stroke-miterlimit:10;" d="M 101.167969 9.164063 L 100.789063 10.289063 L 100.164063 12.140625 "/>
<path style="fill:none;stroke-width:1;stroke-linecap:round;stroke-linejoin:round;stroke:rgb(100%,100%,100%);stroke-opacity:1;stroke-dasharray:2,3;stroke-miterlimit:10;" d="M 52.410156 20.058594 L 54.941406 21.007813 L 57.164063 21.839844 "/>
<path style="fill:none;stroke-width:1;stroke-linecap:round;stroke-linejoin:round;stroke:rgb(100%,100%,100%);stroke-opacity:1;stroke-dasharray:2,3;stroke-miterlimit:10;" d="M 54.089844 15.058594 L 56.742188 16.003906 L 58.960938 16.796875 "/>
<path style="fill:none;stroke-width:1;stroke-linecap:round;stroke-linejoin:round;stroke:rgb(100%,100%,100%);stroke-opacity:1;stroke-dasharray:2,3;stroke-miterlimit:10;" d="M 60.761719 11.738281 L 58.570313 10.925781 L 55.800781 9.949219 "/>
<path style="fill:none;stroke-width:1;stroke-linecap:round;stroke-linejoin:round;stroke:rgb(100%,100%,100%);stroke-opacity:1;stroke-dasharray:2,3;stroke-miterlimit:10;" d="M 41.910156 33.796875 L 38.652344 38.605469 L 35.765625 37.730469 "/>
<path style="fill:none;stroke-width:1;stroke-linecap:round;stroke-linejoin:round;stroke:rgb(100%,100%,100%);stroke-opacity:1;stroke-dasharray:2,3;stroke-miterlimit:10;" d="M 226.921875 35.046875 L 228.789063 34.945313 L 230.269531 35.140625 L 232.339844 36.148438 L 233.566406 36.996094 L 234.488281 37.683594 L 235.351563 38.394531 "/>
<path style="fill:none;stroke-width:1;stroke-linecap:round;stroke-linejoin:round;stroke:rgb(100%,100%,100%);stroke-opacity:1;stroke-dasharray:2,3;stroke-miterlimit:10;" d="M 61.75 2.75 L 65.945313 4.28125 L 71.640625 6.417969 L 74.5 7.375 L 79.300781 2.625 "/>
<path style="fill:none;stroke-width:1;stroke-linecap:round;stroke-linejoin:round;stroke:rgb(100%,100%,100%);stroke-opacity:1;stroke-dasharray:2,3;stroke-miterlimit:10;" d="M 38.652344 38.605469 L 43.886719 42.757813 L 56.910156 35.96875 "/>
<path style="fill:none;stroke-width:1;stroke-linecap:round;stroke-linejoin:round;stroke:rgb(100%,100%,100%);stroke-opacity:1;stroke-dasharray:2,3;stroke-miterlimit:10;" d="M 92.8125 9.5 L 100.164063 12.140625 L 110.28125 15.777344 L 110.84375 13.949219 L 111.261719 12.957031 L 111.886719 11.476563 L 114.097656 12.289063 "/>
<path style="fill:none;stroke-width:1;stroke-linecap:round;stroke-linejoin:round;stroke:rgb(100%,100%,100%);stroke-opacity:1;stroke-dasharray:2,3;stroke-miterlimit:10;" d="M 254.796875 47.347656 L 237.277344 40.867188 L 236.332031 39.792969 L 235.351563 38.394531 L 234.671875 31.710938 "/>
<path style="fill:none;stroke-width:1;stroke-linecap:round;stroke-linejoin:round;stroke:rgb(100%,100%,100%);stroke-opacity:1;stroke-dasharray:2,3;stroke-miterlimit:10;" d="M 203.152344 29.015625 L 206.734375 24.160156 L 208.785156 19.808594 L 210.132813 15.832031 L 210.53125 12.582031 L 210.804688 9.09375 L 211.390625 6.582031 L 214.339844 -1.394531 "/>
<path style="fill:none;stroke-width:1;stroke-linecap:round;stroke-linejoin:round;stroke:rgb(100%,100%,100%);stroke-opacity:1;stroke-dasharray:2,3;stroke-miterlimit:10;" d="M 79.175781 -2 L 82.183594 0.714844 L 86.28125 3 L 89.046875 4.351563 L 91.34375 5.46875 L 101.167969 9.164063 L 111.261719 12.957031 "/>
<path style="fill:none;stroke-width:1;stroke-linecap:round;stroke-linejoin:round;stroke:rgb(100%,100%,100%);stroke-opacity:1;stroke-dasharray:2,3;stroke-miterlimit:10;" d="M 21.492188 10.058594 L 29.585938 0.9375 L 32.191406 -2 "/>
<path style="fill:none;stroke-width:1;stroke-linecap:round;stroke-linejoin:round;stroke:rgb(100%,100%,100%);stroke-opacity:1;stroke-dasharray:2,3;stroke-miterlimit:10;" d="M 65.664063 -2 L 61.75 2.75 L 61.179688 3.929688 L 60.4375 5.75 L 58.570313 10.925781 L 56.742188 16.003906 L 54.941406 21.007813 L 52.65625 27.347656 L 50.617188 33.539063 "/>
<path style="fill:none;stroke-width:1;stroke-linecap:round;stroke-linejoin:round;stroke:rgb(100%,100%,100%);stroke-opacity:1;stroke-dasharray:2,3;stroke-miterlimit:10;" d="M 74.445313 -2 L 79.300781 2.625 L 80.90625 4.152344 L 93.09375 8.683594 L 92.078125 9.1875 "/>
<path style="fill:none;stroke-width:1;stroke-linecap:round;stroke-linejoin:round;stroke:rgb(100%,100%,100%);stroke-opacity:1;stroke-dasharray:2,3;stroke-miterlimit:10;" d="M 206.375 30.914063 L 214.335938 33.976563 L 219.421875 35.015625 L 223.003906 35.171875 L 226.921875 35.046875 L 230.832031 33.949219 L 232.183594 33.398438 L 233.230469 32.753906 L 234.671875 31.710938 L 238.894531 27.273438 L 242.324219 21.882813 L 245.476563 14.441406 L 245.875 12.605469 L 245.722656 11.289063 L 245.292969 10.339844 L 243.914063 9.390625 L 241.925781 8.59375 L 214.339844 -1.394531 L 212.691406 -2 M 157.503906 -2 L 156.679688 0.355469 L 156.101563 4.460938 L 156.558594 6.605469 L 158.949219 12.699219 L 160.785156 14.992188 L 161.734375 16.15625 L 165.574219 18.5625 L 170.503906 22.421875 L 172.675781 24.011719 L 174.851563 25.175781 L 178.128906 26.035156 L 184.558594 27.074219 L 189.273438 27.199219 L 193.558594 26.613281 L 198.246094 27.289063 L 202.195313 28.453125 L 203.152344 29.015625 L 206.375 30.914063 "/>
<path style="fill:none;stroke-width:8;stroke-linecap:round;stroke-linejoin:round;stroke:rgb(75.686275%,70.980392%,61.568627%);stroke-opacity:1;stroke-miterlimit:10;" d="M 88.933594 4.660156 L 90.007813 1.765625 "/>
<path style="fill:none;stroke-width:8;stroke-linecap:round;stroke-linejoin:round;stroke:rgb(75.686275%,70.980392%,61.568627%);stroke-opacity:1;stroke-miterlimit:10;" d="M 111.675781 18.726563 L 113.15625 14.792969 L 114.097656 12.289063 L 114.707031 10.675781 "/>
<path style="fill:none;stroke-width:8;stroke-linecap:round;stroke-linejoin:round;stroke:rgb(75.686275%,70.980392%,61.568627%);stroke-opacity:1;stroke-miterlimit:10;" d="M 58.5625 2.867188 L 61.179688 3.929688 L 63.261719 4.730469 L 65.5 5.59375 L 71.246094 7.808594 "/>
<path style="fill:none;stroke-width:8;stroke-linecap:round;stroke-linejoin:round;stroke:rgb(75.686275%,70.980392%,61.568627%);stroke-opacity:1;stroke-miterlimit:10;" d="M 71.246094 7.808594 L 71.640625 6.417969 L 74.46875 2.65625 L 70.027344 -1.0625 L 66.21875 3.46875 L 65.5 5.59375 "/>
<path style="fill:none;stroke-width:8;stroke-linecap:round;stroke-linejoin:round;stroke:rgb(75.686275%,70.980392%,61.568627%);stroke-opacity:1;stroke-miterlimit:10;" d="M 60.34375 0.03125 L 56.953125 -2.800781 L 49.964844 -9 "/>
<path style="fill:none;stroke-width:8;stroke-linecap:round;stroke-linejoin:round;stroke:rgb(75.686275%,70.980392%,61.568627%);stroke-opacity:1;stroke-miterlimit:10;" d="M 57.425781 5.105469 L 41.363281 -9 "/>
<path style="fill:none;stroke-width:8;stroke-linecap:round;stroke-linejoin:round;stroke:rgb(75.686275%,70.980392%,61.568627%);stroke-opacity:1;stroke-miterlimit:10;" d="M 55.710938 10.210938 L 37.929688 -5.386719 "/>
<path style="fill:none;stroke-width:8;stroke-linecap:round;stroke-linejoin:round;stroke:rgb(75.686275%,70.980392%,61.568627%);stroke-opacity:1;stroke-miterlimit:10;" d="M 74.941406 -9 L 76.125 -2.566406 L 78.34375 0.121094 L 81.90625 3.28125 L 84.6875 4.375 L 87.320313 5.179688 L 88.933594 4.660156 "/>
<path style="fill:none;stroke-width:8;stroke-linecap:round;stroke-linejoin:round;stroke:rgb(75.686275%,70.980392%,61.568627%);stroke-opacity:1;stroke-miterlimit:10;" d="M 54.78125 28.527344 L 57.164063 21.839844 L 58.960938 16.796875 L 60.761719 11.738281 L 63.261719 4.730469 "/>
<path style="fill:none;stroke-width:8;stroke-linecap:round;stroke-linejoin:round;stroke:rgb(75.686275%,70.980392%,61.568627%);stroke-opacity:1;stroke-miterlimit:10;" d="M 53.914063 15.570313 L 34.519531 -1.542969 "/>
<path style="fill:none;stroke-width:8;stroke-linecap:round;stroke-linejoin:round;stroke:rgb(75.686275%,70.980392%,61.568627%);stroke-opacity:1;stroke-miterlimit:10;" d="M 88.933594 4.660156 L 89.558594 5.90625 L 100.789063 10.289063 L 110.84375 13.949219 L 113.15625 14.792969 "/>
<path style="fill:none;stroke-width:8;stroke-linecap:round;stroke-linejoin:round;stroke:rgb(75.686275%,70.980392%,61.568627%);stroke-opacity:1;stroke-miterlimit:10;" d="M 52.199219 20.675781 L 31.097656 2.3125 "/>
<path style="fill:none;stroke-width:8;stroke-linecap:round;stroke-linejoin:round;stroke:rgb(75.686275%,70.980392%,61.568627%);stroke-opacity:1;stroke-miterlimit:10;" d="M 50.335938 26.230469 L 28.257813 6.945313 "/>
<path style="fill:none;stroke-width:8;stroke-linecap:round;stroke-linejoin:round;stroke:rgb(75.686275%,70.980392%,61.568627%);stroke-opacity:1;stroke-miterlimit:10;" d="M 124.65625 69.1875 L 87.980469 55.449219 "/>
<path style="fill:none;stroke-width:8;stroke-linecap:round;stroke-linejoin:round;stroke:rgb(75.686275%,70.980392%,61.568627%);stroke-opacity:1;stroke-miterlimit:10;" d="M 68.285156 -9 L 60.34375 0.03125 L 58.5625 2.867188 L 57.425781 5.105469 L 55.800781 9.949219 L 54.089844 15.058594 L 52.410156 20.058594 L 50.335938 26.230469 L 49.890625 27.5625 L 46.730469 30.601563 "/>
<path style="fill:none;stroke-width:8;stroke-linecap:round;stroke-linejoin:round;stroke:rgb(75.686275%,70.980392%,61.568627%);stroke-opacity:1;stroke-miterlimit:10;" d="M 76.550781 39.304688 L 75.652344 42.371094 L 76.339844 44.371094 L 82.09375 54.40625 L 84.199219 57.695313 L 117.71875 69.90625 L 121.75 69.464844 L 124.65625 69.1875 L 129.542969 71.175781 "/>
<path style="fill:none;stroke-width:8;stroke-linecap:round;stroke-linejoin:round;stroke:rgb(75.686275%,70.980392%,61.568627%);stroke-opacity:1;stroke-miterlimit:10;" d="M 46.730469 30.601563 L 28.09375 13.964844 L 27.8125 9.964844 L 28.257813 6.945313 L 28.511719 5.230469 L 31.097656 2.3125 L 34.519531 -1.542969 L 37.929688 -5.386719 L 41.136719 -9 "/>
<path style="fill:none;stroke-width:8;stroke-linecap:round;stroke-linejoin:round;stroke:rgb(75.686275%,70.980392%,61.568627%);stroke-opacity:1;stroke-miterlimit:10;" d="M 81.691406 198.160156 L 76.664063 196.023438 L 75.007813 200.398438 L -9 210.523438 "/>
<path style="fill:none;stroke-width:8;stroke-linecap:round;stroke-linejoin:round;stroke:rgb(75.686275%,70.980392%,61.568627%);stroke-opacity:1;stroke-miterlimit:10;" d="M 11.570313 227.777344 L 3.214844 228.949219 L -1.703125 230.894531 L -9 231.441406 "/>
<path style="fill:none;stroke-width:8;stroke-linecap:round;stroke-linejoin:round;stroke:rgb(75.686275%,70.980392%,61.568627%);stroke-opacity:1;stroke-miterlimit:10;" d="M 257.296875 51.746094 L 238.273438 44.753906 "/>
<path style="fill:none;stroke-width:8;stroke-linecap:round;stroke-linejoin:round;stroke:rgb(75.686275%,70.980392%,61.568627%);stroke-opacity:1;stroke-miterlimit:10;" d="M 242.726563 91.511719 L 264 100.394531 "/>
<path style="fill:none;stroke-width:8;stroke-linecap:round;stroke-linejoin:round;stroke:rgb(75.686275%,70.980392%,61.568627%);stroke-opacity:1;stroke-miterlimit:10;" d="M 90.007813 1.765625 L 93.828125 -9 "/>
<path style="fill:none;stroke-width:8;stroke-linecap:round;stroke-linejoin:round;stroke:rgb(75.686275%,70.980392%,61.568627%);stroke-opacity:1;stroke-miterlimit:10;" d="M 264 33.453125 L 257.742188 50.535156 L 257.296875 51.746094 L 242.726563 91.511719 L 236.375 108.839844 "/>
<path style="fill:none;stroke-width:8;stroke-linecap:round;stroke-linejoin:round;stroke:rgb(75.686275%,70.980392%,61.568627%);stroke-opacity:1;stroke-miterlimit:10;" d="M 143.785156 -7.289063 L 148.074219 8.09375 L 149.578125 14.308594 L 148.484375 17.355469 L 147.761719 19.394531 L 129.542969 71.175781 L 127.542969 76.527344 L 111.429688 118.035156 "/>
<path style="fill:none;stroke-width:8;stroke-linecap:round;stroke-linejoin:round;stroke:rgb(75.686275%,70.980392%,61.568627%);stroke-opacity:1;stroke-miterlimit:10;" d="M 111.429688 118.035156 L 81.691406 198.160156 L 73.886719 219.1875 L 11.570313 227.777344 "/>
<path style="fill:none;stroke-width:9;stroke-linecap:round;stroke-linejoin:round;stroke:rgb(75.686275%,70.980392%,61.568627%);stroke-opacity:1;stroke-miterlimit:10;" d="M 90.007813 1.765625 L 86.460938 0.207031 L 85.195313 -0.601563 L 83.496094 -2.050781 "/>
<path style="fill:none;stroke-width:9;stroke-linecap:round;stroke-linejoin:round;stroke:rgb(75.686275%,70.980392%,61.568627%);stroke-opacity:1;stroke-miterlimit:10;" d="M 90.007813 1.765625 L 98.65625 4.886719 "/>
<path style="fill:none;stroke-width:9;stroke-linecap:round;stroke-linejoin:round;stroke:rgb(75.686275%,70.980392%,61.568627%);stroke-opacity:1;stroke-miterlimit:10;" d="M 98.65625 4.886719 L 114.707031 10.675781 L 131.277344 16.324219 "/>
<path style="fill:none;stroke-width:9;stroke-linecap:round;stroke-linejoin:round;stroke:rgb(75.686275%,70.980392%,61.568627%);stroke-opacity:1;stroke-miterlimit:10;" d="M 144.75 -10 L 143.785156 -7.289063 L 135.457031 14.628906 L 131.277344 16.324219 "/>
<path style="fill:none;stroke-width:9;stroke-linecap:round;stroke-linejoin:round;stroke:rgb(75.686275%,70.980392%,61.568627%);stroke-opacity:1;stroke-miterlimit:10;" d="M 209.25 -10 L 228.421875 -2.957031 L 265 10.484375 "/>
<path style="fill:none;stroke-width:6;stroke-linecap:round;stroke-linejoin:round;stroke:rgb(100%,100%,100%);stroke-opacity:1;stroke-miterlimit:10;" d="M 88.933594 4.660156 L 90.007813 1.765625 "/>
<path style="fill:none;stroke-width:6;stroke-linecap:round;stroke-linejoin:round;stroke:rgb(100%,100%,100%);stroke-opacity:1;stroke-miterlimit:10;" d="M 111.675781 18.726563 L 113.15625 14.792969 L 114.097656 12.289063 L 114.707031 10.675781 "/>
<path style="fill:none;stroke-width:6;stroke-linecap:round;stroke-linejoin:round;stroke:rgb(100%,100%,100%);stroke-opacity:1;stroke-miterlimit:10;" d="M 58.5625 2.867188 L 61.179688 3.929688 L 63.261719 4.730469 L 65.5 5.59375 L 71.246094 7.808594 "/>
<path style="fill:none;stroke-width:6;stroke-linecap:round;stroke-linejoin:round;stroke:rgb(100%,100%,100%);stroke-opacity:1;stroke-miterlimit:10;" d="M 71.246094 7.808594 L 71.640625 6.417969 L 74.46875 2.65625 L 70.027344 -1.0625 L 66.21875 3.46875 L 65.5 5.59375 "/>
<path style="fill:none;stroke-width:6;stroke-linecap:round;stroke-linejoin:round;stroke:rgb(100%,100%,100%);stroke-opacity:1;stroke-miterlimit:10;" d="M 60.34375 0.03125 L 56.953125 -2.800781 L 49.964844 -9 "/>
<path style="fill:none;stroke-width:6;stroke-linecap:round;stroke-linejoin:round;stroke:rgb(100%,100%,100%);stroke-opacity:1;stroke-miterlimit:10;" d="M 57.425781 5.105469 L 41.363281 -9 "/>
<path style="fill:none;stroke-width:6;stroke-linecap:round;stroke-linejoin:round;stroke:rgb(100%,100%,100%);stroke-opacity:1;stroke-miterlimit:10;" d="M 55.710938 10.210938 L 37.929688 -5.386719 "/>
<path style="fill:none;stroke-width:6;stroke-linecap:round;stroke-linejoin:round;stroke:rgb(100%,100%,100%);stroke-opacity:1;stroke-miterlimit:10;" d="M 74.941406 -9 L 76.125 -2.566406 L 78.34375 0.121094 L 81.90625 3.28125 L 84.6875 4.375 L 87.320313 5.179688 L 88.933594 4.660156 "/>
<path style="fill:none;stroke-width:6;stroke-linecap:round;stroke-linejoin:round;stroke:rgb(100%,100%,100%);stroke-opacity:1;stroke-miterlimit:10;" d="M 54.78125 28.527344 L 57.164063 21.839844 L 58.960938 16.796875 L 60.761719 11.738281 L 63.261719 4.730469 "/>
<path style="fill:none;stroke-width:6;stroke-linecap:round;stroke-linejoin:round;stroke:rgb(100%,100%,100%);stroke-opacity:1;stroke-miterlimit:10;" d="M 53.914063 15.570313 L 34.519531 -1.542969 "/>
<path style="fill:none;stroke-width:6;stroke-linecap:round;stroke-linejoin:round;stroke:rgb(100%,100%,100%);stroke-opacity:1;stroke-miterlimit:10;" d="M 88.933594 4.660156 L 89.558594 5.90625 L 100.789063 10.289063 L 110.84375 13.949219 L 113.15625 14.792969 "/>
<path style="fill:none;stroke-width:6;stroke-linecap:round;stroke-linejoin:round;stroke:rgb(100%,100%,100%);stroke-opacity:1;stroke-miterlimit:10;" d="M 52.199219 20.675781 L 31.097656 2.3125 "/>
<path style="fill:none;stroke-width:6;stroke-linecap:round;stroke-linejoin:round;stroke:rgb(100%,100%,100%);stroke-opacity:1;stroke-miterlimit:10;" d="M 50.335938 26.230469 L 28.257813 6.945313 "/>
<path style="fill:none;stroke-width:6;stroke-linecap:round;stroke-linejoin:round;stroke:rgb(100%,100%,100%);stroke-opacity:1;stroke-miterlimit:10;" d="M 124.65625 69.1875 L 87.980469 55.449219 "/>
<path style="fill:none;stroke-width:6;stroke-linecap:round;stroke-linejoin:round;stroke:rgb(100%,100%,100%);stroke-opacity:1;stroke-miterlimit:10;" d="M 68.285156 -9 L 60.34375 0.03125 L 58.5625 2.867188 L 57.425781 5.105469 L 55.800781 9.949219 L 54.089844 15.058594 L 52.410156 20.058594 L 50.335938 26.230469 L 49.890625 27.5625 L 46.730469 30.601563 "/>
<path style="fill:none;stroke-width:6;stroke-linecap:round;stroke-linejoin:round;stroke:rgb(100%,100%,100%);stroke-opacity:1;stroke-miterlimit:10;" d="M 76.550781 39.304688 L 75.652344 42.371094 L 76.339844 44.371094 L 82.09375 54.40625 L 84.199219 57.695313 L 117.71875 69.90625 L 121.75 69.464844 L 124.65625 69.1875 L 129.542969 71.175781 "/>
<path style="fill:none;stroke-width:6;stroke-linecap:round;stroke-linejoin:round;stroke:rgb(100%,100%,100%);stroke-opacity:1;stroke-miterlimit:10;" d="M 46.730469 30.601563 L 28.09375 13.964844 L 27.8125 9.964844 L 28.257813 6.945313 L 28.511719 5.230469 L 31.097656 2.3125 L 34.519531 -1.542969 L 37.929688 -5.386719 L 41.136719 -9 "/>
<path style="fill:none;stroke-width:6;stroke-linecap:round;stroke-linejoin:round;stroke:rgb(100%,100%,100%);stroke-opacity:1;stroke-miterlimit:10;" d="M 81.691406 198.160156 L 76.664063 196.023438 L 75.007813 200.398438 L -9 210.523438 "/>
<path style="fill:none;stroke-width:6;stroke-linecap:round;stroke-linejoin:round;stroke:rgb(100%,100%,100%);stroke-opacity:1;stroke-miterlimit:10;" d="M 11.570313 227.777344 L 3.214844 228.949219 L -1.703125 230.894531 L -9 231.441406 "/>
<path style="fill:none;stroke-width:6;stroke-linecap:round;stroke-linejoin:round;stroke:rgb(100%,100%,100%);stroke-opacity:1;stroke-miterlimit:10;" d="M 257.296875 51.746094 L 238.273438 44.753906 "/>
<path style="fill:none;stroke-width:6;stroke-linecap:round;stroke-linejoin:round;stroke:rgb(100%,100%,100%);stroke-opacity:1;stroke-miterlimit:10;" d="M 242.726563 91.511719 L 264 100.394531 "/>
<path style="fill:none;stroke-width:6;stroke-linecap:round;stroke-linejoin:round;stroke:rgb(100%,100%,100%);stroke-opacity:1;stroke-miterlimit:10;" d="M 90.007813 1.765625 L 93.828125 -9 "/>
<path style="fill:none;stroke-width:6;stroke-linecap:round;stroke-linejoin:round;stroke:rgb(100%,100%,100%);stroke-opacity:1;stroke-miterlimit:10;" d="M 264 33.453125 L 257.742188 50.535156 L 257.296875 51.746094 L 242.726563 91.511719 L 236.375 108.839844 "/>
<path style="fill:none;stroke-width:6;stroke-linecap:round;stroke-linejoin:round;stroke:rgb(100%,100%,100%);stroke-opacity:1;stroke-miterlimit:10;" d="M 143.785156 -7.289063 L 148.074219 8.09375 L 149.578125 14.308594 L 148.484375 17.355469 L 147.761719 19.394531 L 129.542969 71.175781 L 127.542969 76.527344 L 111.429688 118.035156 "/>
<path style="fill:none;stroke-width:6;stroke-linecap:round;stroke-linejoin:round;stroke:rgb(100%,100%,100%);stroke-opacity:1;stroke-miterlimit:10;" d="M 111.429688 118.035156 L 81.691406 198.160156 L 73.886719 219.1875 L 11.570313 227.777344 "/>
<path style="fill:none;stroke-width:7;stroke-linecap:round;stroke-linejoin:round;stroke:rgb(100%,99.215686%,54.509804%);stroke-opacity:1;stroke-miterlimit:10;" d="M 90.007813 1.765625 L 86.460938 0.207031 L 85.195313 -0.601563 L 83.496094 -2.050781 "/>
<path style="fill:none;stroke-width:7;stroke-linecap:round;stroke-linejoin:round;stroke:rgb(100%,99.215686%,54.509804%);stroke-opacity:1;stroke-miterlimit:10;" d="M 90.007813 1.765625 L 98.65625 4.886719 "/>
<path style="fill:none;stroke-width:7;stroke-linecap:round;stroke-linejoin:round;stroke:rgb(100%,99.215686%,54.509804%);stroke-opacity:1;stroke-miterlimit:10;" d="M 98.65625 4.886719 L 114.707031 10.675781 L 131.277344 16.324219 "/>
<path style="fill:none;stroke-width:7;stroke-linecap:round;stroke-linejoin:round;stroke:rgb(100%,99.215686%,54.509804%);stroke-opacity:1;stroke-miterlimit:10;" d="M 144.75 -10 L 143.785156 -7.289063 L 135.457031 14.628906 L 131.277344 16.324219 "/>
<path style="fill:none;stroke-width:7;stroke-linecap:round;stroke-linejoin:round;stroke:rgb(100%,99.215686%,54.509804%);stroke-opacity:1;stroke-miterlimit:10;" d="M 209.25 -10 L 228.421875 -2.957031 L 265 10.484375 "/>
<path style="fill:none;stroke-width:3;stroke-linecap:round;stroke-linejoin:round;stroke:rgb(100%,100%,100%);stroke-opacity:1;stroke-miterlimit:10;" d="M 120.109375 86.269531 L 121.1875 86.691406 C 120.742188 86.871094 120.375 87.105469 120.09375 87.394531 C 119.804688 87.6875 119.585938 88.027344 119.4375 88.410156 C 119.136719 89.183594 119.167969 89.875 119.53125 90.488281 C 119.886719 91.09375 120.558594 91.589844 121.546875 91.972656 C 122.539063 92.359375 123.371094 92.449219 124.046875 92.238281 C 124.722656 92.03125 125.210938 91.542969 125.515625 90.769531 C 125.660156 90.386719 125.722656 89.988281 125.703125 89.582031 C 125.679688 89.167969 125.578125 88.746094 125.390625 88.316406 L 126.4375 88.738281 C 126.550781 89.144531 126.597656 89.550781 126.578125 89.957031 C 126.554688 90.355469 126.46875 90.753906 126.3125 91.160156 C 125.914063 92.183594 125.257813 92.847656 124.34375 93.160156 C 123.429688 93.464844 122.371094 93.378906 121.171875 92.910156 C 119.976563 92.441406 119.140625 91.785156 118.671875 90.941406 C 118.195313 90.097656 118.152344 89.167969 118.546875 88.144531 C 118.714844 87.738281 118.929688 87.378906 119.1875 87.066406 C 119.449219 86.753906 119.757813 86.488281 120.109375 86.269531 Z M 123.328125 83.707031 C 123.164063 84.15625 123.226563 84.582031 123.515625 84.988281 C 123.796875 85.394531 124.273438 85.730469 124.9375 85.988281 C 125.605469 86.238281 126.183594 86.3125 126.671875 86.207031 C 127.164063 86.105469 127.488281 85.828125 127.65625 85.378906 C 127.832031 84.933594 127.773438 84.503906 127.484375 84.097656 C 127.203125 83.691406 126.730469 83.363281 126.0625 83.113281 C 125.398438 82.855469 124.820313 82.777344 124.328125 82.878906 C 123.839844 82.984375 123.507813 83.261719 123.328125 83.707031 Z M 122.5625 83.394531 C 122.84375 82.675781 123.324219 82.214844 124 82.003906 C 124.679688 81.796875 125.480469 81.875 126.40625 82.238281 C 127.320313 82.59375 127.957031 83.078125 128.3125 83.691406 C 128.675781 84.308594 128.71875 84.972656 128.4375 85.691406 C 128.15625 86.421875 127.675781 86.890625 127 87.097656 C 126.324219 87.296875 125.527344 87.21875 124.609375 86.863281 C 123.683594 86.5 123.042969 86.015625 122.6875 85.410156 C 122.324219 84.796875 122.28125 84.125 122.5625 83.394531 Z M 121.941406 78.914063 L 122.253906 78.085938 L 130.050781 81.117188 L 129.738281 81.945313 Z M 128.476563 78.601563 L 125.070313 77.320313 L 125.382813 76.476563 L 128.757813 77.742188 C 129.28125 77.953125 129.710938 78.015625 130.054688 77.929688 C 130.398438 77.847656 130.636719 77.617188 130.773438 77.242188 C 130.949219 76.785156 130.929688 76.367188 130.710938 75.992188 C 130.492188 75.617188 130.109375 75.328125 129.554688 75.117188 L 126.367188 73.914063 L 126.679688 73.070313 L 132.304688 75.195313 L 131.992188 76.039063 L 131.132813 75.710938 C 131.390625 76.035156 131.554688 76.363281 131.617188 76.695313 C 131.679688 77.03125 131.640625 77.375 131.507813 77.726563 C 131.289063 78.3125 130.917969 78.675781 130.398438 78.820313 C 129.890625 78.96875 129.25 78.894531 128.476563 78.601563 Z M 125.742188 75.164063 Z M 129.796875 67.808594 C 129.464844 67.433594 129.25 67.070313 129.15625 66.714844 C 129.0625 66.363281 129.085938 65.988281 129.21875 65.589844 C 129.40625 65.050781 129.761719 64.710938 130.28125 64.574219 C 130.792969 64.441406 131.429688 64.507813 132.1875 64.777344 L 135.609375 65.996094 L 135.3125 66.824219 L 131.921875 65.621094 C 131.382813 65.425781 130.949219 65.367188 130.625 65.449219 C 130.304688 65.523438 130.078125 65.738281 129.953125 66.089844 C 129.796875 66.527344 129.835938 66.933594 130.0625 67.308594 C 130.292969 67.675781 130.683594 67.957031 131.234375 68.152344 L 134.4375 69.292969 L 134.140625 70.121094 L 130.75 68.917969 C 130.210938 68.722656 129.777344 68.664063 129.453125 68.746094 C 129.132813 68.832031 128.902344 69.050781 128.765625 69.402344 C 128.621094 69.839844 128.664063 70.242188 128.890625 70.605469 C 129.121094 70.972656 129.511719 71.253906 130.0625 71.449219 L 133.265625 72.589844 L 132.953125 73.433594 L 127.28125 71.417969 L 127.59375 70.574219 L 128.484375 70.886719 C 128.195313 70.574219 128.015625 70.257813 127.953125 69.933594 C 127.882813 69.601563 127.914063 69.253906 128.046875 68.886719 C 128.183594 68.511719 128.398438 68.230469 128.6875 68.042969 C 128.980469 67.855469 129.351563 67.777344 129.796875 67.808594 Z M 134.660156 59.632813 C 133.972656 59.394531 133.390625 59.335938 132.910156 59.460938 C 132.433594 59.578125 132.113281 59.851563 131.957031 60.289063 C 131.800781 60.738281 131.875 61.160156 132.175781 61.554688 C 132.480469 61.941406 132.972656 62.253906 133.660156 62.492188 C 134.347656 62.742188 134.933594 62.8125 135.410156 62.695313 C 135.878906 62.570313 136.191406 62.285156 136.347656 61.835938 C 136.503906 61.398438 136.429688 60.988281 136.128906 60.601563 C 135.839844 60.207031 135.347656 59.882813 134.660156 59.632813 Z M 131.675781 61.789063 C 131.394531 61.5 131.222656 61.191406 131.160156 60.867188 C 131.089844 60.546875 131.121094 60.191406 131.253906 59.804688 C 131.472656 59.179688 131.925781 58.773438 132.613281 58.585938 C 133.292969 58.398438 134.078125 58.460938 134.972656 58.773438 C 135.871094 59.085938 136.519531 59.53125 136.925781 60.101563 C 137.332031 60.675781 137.425781 61.273438 137.207031 61.898438 C 137.070313 62.285156 136.871094 62.582031 136.613281 62.789063 C 136.363281 63 136.035156 63.132813 135.628906 63.195313 L 136.488281 63.492188 L 136.191406 64.335938 L 128.300781 61.554688 L 128.597656 60.710938 Z M 132.617188 56.363281 L 132.914063 55.535156 L 138.585938 57.535156 L 138.289063 58.363281 Z M 130.398438 55.582031 L 130.695313 54.753906 L 131.882813 55.175781 L 131.585938 56.003906 Z M 137.15625 52.457031 C 136.917969 53.136719 136.84375 53.636719 136.9375 53.957031 C 137.023438 54.28125 137.273438 54.511719 137.6875 54.644531 C 138.011719 54.761719 138.304688 54.761719 138.5625 54.644531 C 138.824219 54.519531 139.007813 54.292969 139.125 53.957031 C 139.289063 53.480469 139.238281 53.035156 138.96875 52.628906 C 138.710938 52.222656 138.277344 51.917969 137.671875 51.707031 L 137.453125 51.628906 Z M 137.359375 50.644531 L 140.609375 51.785156 L 140.3125 52.628906 L 139.453125 52.332031 C 139.722656 52.636719 139.890625 52.957031 139.953125 53.300781 C 140.015625 53.644531 139.972656 54.027344 139.828125 54.441406 C 139.648438 54.964844 139.34375 55.324219 138.90625 55.519531 C 138.480469 55.707031 137.992188 55.707031 137.4375 55.519531 C 136.804688 55.292969 136.390625 54.933594 136.203125 54.441406 C 136.015625 53.941406 136.054688 53.308594 136.3125 52.535156 L 136.734375 51.363281 L 136.640625 51.332031 C 136.214844 51.1875 135.839844 51.203125 135.515625 51.378906 C 135.183594 51.546875 134.933594 51.859375 134.765625 52.316406 C 134.664063 52.597656 134.605469 52.894531 134.59375 53.207031 C 134.574219 53.511719 134.601563 53.816406 134.671875 54.128906 L 133.8125 53.832031 C 133.792969 53.46875 133.796875 53.136719 133.828125 52.832031 C 133.859375 52.519531 133.921875 52.222656 134.015625 51.941406 C 134.277344 51.214844 134.683594 50.738281 135.234375 50.519531 C 135.789063 50.300781 136.496094 50.34375 137.359375 50.644531 Z M 136.398438 40.402344 L 137.382813 40.761719 C 137.070313 41.035156 136.816406 41.316406 136.617188 41.605469 C 136.421875 41.886719 136.269531 42.167969 136.164063 42.449219 C 135.988281 42.949219 135.960938 43.378906 136.085938 43.730469 C 136.210938 44.074219 136.472656 44.316406 136.867188 44.449219 C 137.203125 44.566406 137.488281 44.566406 137.726563 44.449219 C 137.957031 44.335938 138.210938 44.042969 138.492188 43.574219 L 138.804688 43.058594 C 139.203125 42.425781 139.644531 42.007813 140.132813 41.808594 C 140.613281 41.613281 141.15625 41.621094 141.757813 41.839844 C 142.496094 42.101563 142.976563 42.519531 143.195313 43.089844 C 143.414063 43.664063 143.371094 44.378906 143.070313 45.230469 C 142.953125 45.554688 142.792969 45.886719 142.585938 46.230469 C 142.375 46.566406 142.125 46.886719 141.835938 47.199219 L 140.789063 46.839844 C 141.15625 46.558594 141.460938 46.261719 141.710938 45.949219 C 141.949219 45.628906 142.132813 45.292969 142.257813 44.949219 C 142.445313 44.429688 142.46875 43.980469 142.335938 43.605469 C 142.199219 43.230469 141.925781 42.972656 141.507813 42.824219 C 141.132813 42.691406 140.804688 42.691406 140.523438 42.824219 C 140.234375 42.960938 139.953125 43.242188 139.679688 43.667969 L 139.367188 44.199219 C 138.984375 44.835938 138.578125 45.246094 138.148438 45.433594 C 137.710938 45.621094 137.203125 45.613281 136.617188 45.402344 C 135.953125 45.175781 135.5 44.777344 135.257813 44.214844 C 135.019531 43.652344 135.035156 43.003906 135.304688 42.261719 C 135.421875 41.929688 135.570313 41.613281 135.757813 41.308594 C 135.9375 41.007813 136.148438 40.707031 136.398438 40.402344 Z M 137.359375 37.789063 L 138.96875 38.351563 L 139.5625 36.617188 L 140.28125 36.867188 L 139.6875 38.601563 L 142.765625 39.695313 C 143.234375 39.851563 143.554688 39.898438 143.71875 39.835938 C 143.886719 39.765625 144.03125 39.550781 144.15625 39.195313 L 144.453125 38.335938 L 145.234375 38.617188 L 144.9375 39.476563 C 144.707031 40.125 144.414063 40.523438 144.0625 40.679688 C 143.710938 40.828125 143.179688 40.773438 142.46875 40.523438 L 139.390625 39.429688 L 139.171875 40.054688 L 138.453125 39.804688 L 138.671875 39.179688 L 137.0625 38.617188 Z M 141.863281 32.867188 C 141.769531 32.941406 141.691406 33.03125 141.628906 33.132813 C 141.558594 33.238281 141.496094 33.351563 141.441406 33.476563 C 141.277344 33.957031 141.324219 34.382813 141.582031 34.757813 C 141.832031 35.132813 142.28125 35.4375 142.925781 35.664063 L 145.910156 36.710938 L 145.613281 37.554688 L 139.941406 35.554688 L 140.238281 34.710938 L 141.113281 35.023438 C 140.832031 34.734375 140.660156 34.414063 140.597656 34.070313 C 140.527344 33.726563 140.5625 33.351563 140.707031 32.945313 C 140.730469 32.882813 140.753906 32.820313 140.785156 32.757813 C 140.816406 32.6875 140.855469 32.613281 140.894531 32.539063 Z M 145.445313 28.238281 L 145.898438 28.394531 L 144.539063 32.253906 C 145.195313 32.453125 145.75 32.453125 146.195313 32.253906 C 146.632813 32.046875 146.945313 31.667969 147.132813 31.113281 C 147.246094 30.792969 147.3125 30.46875 147.335938 30.144531 C 147.367188 29.8125 147.34375 29.464844 147.273438 29.097656 L 148.148438 29.394531 C 148.1875 29.761719 148.1875 30.113281 148.148438 30.457031 C 148.105469 30.792969 148.027344 31.121094 147.914063 31.441406 C 147.632813 32.253906 147.148438 32.8125 146.460938 33.113281 C 145.773438 33.40625 144.976563 33.390625 144.070313 33.066406 C 143.144531 32.746094 142.488281 32.261719 142.101563 31.613281 C 141.707031 30.96875 141.644531 30.265625 141.914063 29.503906 C 142.15625 28.816406 142.59375 28.359375 143.226563 28.128906 C 143.863281 27.902344 144.601563 27.9375 145.445313 28.238281 Z M 144.867188 28.988281 C 144.359375 28.8125 143.90625 28.796875 143.507813 28.941406 C 143.113281 29.078125 142.84375 29.355469 142.695313 29.769531 C 142.53125 30.238281 142.546875 30.671875 142.742188 31.066406 C 142.941406 31.453125 143.300781 31.753906 143.820313 31.972656 Z M 147.46875 22.492188 L 147.921875 22.648438 L 146.5625 26.507813 C 147.21875 26.707031 147.773438 26.707031 148.21875 26.507813 C 148.65625 26.300781 148.96875 25.921875 149.15625 25.367188 C 149.269531 25.046875 149.335938 24.722656 149.359375 24.398438 C 149.390625 24.066406 149.367188 23.71875 149.296875 23.351563 L 150.171875 23.648438 C 150.210938 24.015625 150.210938 24.367188 150.171875 24.710938 C 150.128906 25.046875 150.050781 25.375 149.9375 25.695313 C 149.65625 26.507813 149.171875 27.066406 148.484375 27.367188 C 147.796875 27.660156 147 27.644531 146.09375 27.320313 C 145.167969 27 144.511719 26.515625 144.125 25.867188 C 143.730469 25.222656 143.667969 24.519531 143.9375 23.757813 C 144.179688 23.070313 144.617188 22.613281 145.25 22.382813 C 145.886719 22.15625 146.625 22.191406 147.46875 22.492188 Z M 146.890625 23.242188 C 146.382813 23.066406 145.929688 23.050781 145.53125 23.195313 C 145.136719 23.332031 144.867188 23.609375 144.71875 24.023438 C 144.554688 24.492188 144.570313 24.925781 144.765625 25.320313 C 144.964844 25.707031 145.324219 26.007813 145.84375 26.226563 Z M 144.039063 18.804688 L 145.648438 19.367188 L 146.242188 17.632813 L 146.960938 17.882813 L 146.367188 19.617188 L 149.445313 20.710938 C 149.914063 20.867188 150.234375 20.914063 150.398438 20.851563 C 150.566406 20.78125 150.710938 20.566406 150.835938 20.210938 L 151.132813 19.351563 L 151.914063 19.632813 L 151.617188 20.492188 C 151.386719 21.140625 151.09375 21.539063 150.742188 21.695313 C 150.390625 21.84375 149.859375 21.789063 149.148438 21.539063 L 146.070313 20.445313 L 145.851563 21.070313 L 145.132813 20.820313 L 145.351563 20.195313 L 143.742188 19.632813 Z M 144.039063 18.804688 "/>
<path style=" stroke:none;fill-rule:evenodd;fill:rgb(20%,20%,20%);fill-opacity:1;" d="M 120.109375 86.269531 L 121.1875 86.691406 C 120.742188 86.871094 120.375 87.105469 120.09375 87.394531 C 119.804688 87.6875 119.585938 88.027344 119.4375 88.410156 C 119.136719 89.183594 119.167969 89.875 119.53125 90.488281 C 119.886719 91.09375 120.558594 91.589844 121.546875 91.972656 C 122.539063 92.359375 123.371094 92.449219 124.046875 92.238281 C 124.722656 92.03125 125.210938 91.542969 125.515625 90.769531 C 125.660156 90.386719 125.722656 89.988281 125.703125 89.582031 C 125.679688 89.167969 125.578125 88.746094 125.390625 88.316406 L 126.4375 88.738281 C 126.550781 89.144531 126.597656 89.550781 126.578125 89.957031 C 126.554688 90.355469 126.46875 90.753906 126.3125 91.160156 C 125.914063 92.183594 125.257813 92.847656 124.34375 93.160156 C 123.429688 93.464844 122.371094 93.378906 121.171875 92.910156 C 119.976563 92.441406 119.140625 91.785156 118.671875 90.941406 C 118.195313 90.097656 118.152344 89.167969 118.546875 88.144531 C 118.714844 87.738281 118.929688 87.378906 119.1875 87.066406 C 119.449219 86.753906 119.757813 86.488281 120.109375 86.269531 Z M 123.328125 83.707031 C 123.164063 84.15625 123.226563 84.582031 123.515625 84.988281 C 123.796875 85.394531 124.273438 85.730469 124.9375 85.988281 C 125.605469 86.238281 126.183594 86.3125 126.671875 86.207031 C 127.164063 86.105469 127.488281 85.828125 127.65625 85.378906 C 127.832031 84.933594 127.773438 84.503906 127.484375 84.097656 C 127.203125 83.691406 126.730469 83.363281 126.0625 83.113281 C 125.398438 82.855469 124.820313 82.777344 124.328125 82.878906 C 123.839844 82.984375 123.507813 83.261719 123.328125 83.707031 Z M 122.5625 83.394531 C 122.84375 82.675781 123.324219 82.214844 124 82.003906 C 124.679688 81.796875 125.480469 81.875 126.40625 82.238281 C 127.320313 82.59375 127.957031 83.078125 128.3125 83.691406 C 128.675781 84.308594 128.71875 84.972656 128.4375 85.691406 C 128.15625 86.421875 127.675781 86.890625 127 87.097656 C 126.324219 87.296875 125.527344 87.21875 124.609375 86.863281 C 123.683594 86.5 123.042969 86.015625 122.6875 85.410156 C 122.324219 84.796875 122.28125 84.125 122.5625 83.394531 Z M 121.941406 78.914063 L 122.253906 78.085938 L 130.050781 81.117188 L 129.738281 81.945313 Z M 128.476563 78.601563 L 125.070313 77.320313 L 125.382813 76.476563 L 128.757813 77.742188 C 129.28125 77.953125 129.710938 78.015625 130.054688 77.929688 C 130.398438 77.847656 130.636719 77.617188 130.773438 77.242188 C 130.949219 76.785156 130.929688 76.367188 130.710938 75.992188 C 130.492188 75.617188 130.109375 75.328125 129.554688 75.117188 L 126.367188 73.914063 L 126.679688 73.070313 L 132.304688 75.195313 L 131.992188 76.039063 L 131.132813 75.710938 C 131.390625 76.035156 131.554688 76.363281 131.617188 76.695313 C 131.679688 77.03125 131.640625 77.375 131.507813 77.726563 C 131.289063 78.3125 130.917969 78.675781 130.398438 78.820313 C 129.890625 78.96875 129.25 78.894531 128.476563 78.601563 Z M 125.742188 75.164063 Z M 129.796875 67.808594 C 129.464844 67.433594 129.25 67.070313 129.15625 66.714844 C 129.0625 66.363281 129.085938 65.988281 129.21875 65.589844 C 129.40625 65.050781 129.761719 64.710938 130.28125 64.574219 C 130.792969 64.441406 131.429688 64.507813 132.1875 64.777344 L 135.609375 65.996094 L 135.3125 66.824219 L 131.921875 65.621094 C 131.382813 65.425781 130.949219 65.367188 130.625 65.449219 C 130.304688 65.523438 130.078125 65.738281 129.953125 66.089844 C 129.796875 66.527344 129.835938 66.933594 130.0625 67.308594 C 130.292969 67.675781 130.683594 67.957031 131.234375 68.152344 L 134.4375 69.292969 L 134.140625 70.121094 L 130.75 68.917969 C 130.210938 68.722656 129.777344 68.664063 129.453125 68.746094 C 129.132813 68.832031 128.902344 69.050781 128.765625 69.402344 C 128.621094 69.839844 128.664063 70.242188 128.890625 70.605469 C 129.121094 70.972656 129.511719 71.253906 130.0625 71.449219 L 133.265625 72.589844 L 132.953125 73.433594 L 127.28125 71.417969 L 127.59375 70.574219 L 128.484375 70.886719 C 128.195313 70.574219 128.015625 70.257813 127.953125 69.933594 C 127.882813 69.601563 127.914063 69.253906 128.046875 68.886719 C 128.183594 68.511719 128.398438 68.230469 128.6875 68.042969 C 128.980469 67.855469 129.351563 67.777344 129.796875 67.808594 Z M 134.660156 59.632813 C 133.972656 59.394531 133.390625 59.335938 132.910156 59.460938 C 132.433594 59.578125 132.113281 59.851563 131.957031 60.289063 C 131.800781 60.738281 131.875 61.160156 132.175781 61.554688 C 132.480469 61.941406 132.972656 62.253906 133.660156 62.492188 C 134.347656 62.742188 134.933594 62.8125 135.410156 62.695313 C 135.878906 62.570313 136.191406 62.285156 136.347656 61.835938 C 136.503906 61.398438 136.429688 60.988281 136.128906 60.601563 C 135.839844 60.207031 135.347656 59.882813 134.660156 59.632813 Z M 131.675781 61.789063 C 131.394531 61.5 131.222656 61.191406 131.160156 60.867188 C 131.089844 60.546875 131.121094 60.191406 131.253906 59.804688 C 131.472656 59.179688 131.925781 58.773438 132.613281 58.585938 C 133.292969 58.398438 134.078125 58.460938 134.972656 58.773438 C 135.871094 59.085938 136.519531 59.53125 136.925781 60.101563 C 137.332031 60.675781 137.425781 61.273438 137.207031 61.898438 C 137.070313 62.285156 136.871094 62.582031 136.613281 62.789063 C 136.363281 63 136.035156 63.132813 135.628906 63.195313 L 136.488281 63.492188 L 136.191406 64.335938 L 128.300781 61.554688 L 128.597656 60.710938 Z M 132.617188 56.363281 L 132.914063 55.535156 L 138.585938 57.535156 L 138.289063 58.363281 Z M 130.398438 55.582031 L 130.695313 54.753906 L 131.882813 55.175781 L 131.585938 56.003906 Z M 137.15625 52.457031 C 136.917969 53.136719 136.84375 53.636719 136.9375 53.957031 C 137.023438 54.28125 137.273438 54.511719 137.6875 54.644531 C 138.011719 54.761719 138.304688 54.761719 138.5625 54.644531 C 138.824219 54.519531 139.007813 54.292969 139.125 53.957031 C 139.289063 53.480469 139.238281 53.035156 138.96875 52.628906 C 138.710938 52.222656 138.277344 51.917969 137.671875 51.707031 L 137.453125 51.628906 Z M 137.359375 50.644531 L 140.609375 51.785156 L 140.3125 52.628906 L 139.453125 52.332031 C 139.722656 52.636719 139.890625 52.957031 139.953125 53.300781 C 140.015625 53.644531 139.972656 54.027344 139.828125 54.441406 C 139.648438 54.964844 139.34375 55.324219 138.90625 55.519531 C 138.480469 55.707031 137.992188 55.707031 137.4375 55.519531 C 136.804688 55.292969 136.390625 54.933594 136.203125 54.441406 C 136.015625 53.941406 136.054688 53.308594 136.3125 52.535156 L 136.734375 51.363281 L 136.640625 51.332031 C 136.214844 51.1875 135.839844 51.203125 135.515625 51.378906 C 135.183594 51.546875 134.933594 51.859375 134.765625 52.316406 C 134.664063 52.597656 134.605469 52.894531 134.59375 53.207031 C 134.574219 53.511719 134.601563 53.816406 134.671875 54.128906 L 133.8125 53.832031 C 133.792969 53.46875 133.796875 53.136719 133.828125 52.832031 C 133.859375 52.519531 133.921875 52.222656 134.015625 51.941406 C 134.277344 51.214844 134.683594 50.738281 135.234375 50.519531 C 135.789063 50.300781 136.496094 50.34375 137.359375 50.644531 Z M 136.398438 40.402344 L 137.382813 40.761719 C 137.070313 41.035156 136.816406 41.316406 136.617188 41.605469 C 136.421875 41.886719 136.269531 42.167969 136.164063 42.449219 C 135.988281 42.949219 135.960938 43.378906 136.085938 43.730469 C 136.210938 44.074219 136.472656 44.316406 136.867188 44.449219 C 137.203125 44.566406 137.488281 44.566406 137.726563 44.449219 C 137.957031 44.335938 138.210938 44.042969 138.492188 43.574219 L 138.804688 43.058594 C 139.203125 42.425781 139.644531 42.007813 140.132813 41.808594 C 140.613281 41.613281 141.15625 41.621094 141.757813 41.839844 C 142.496094 42.101563 142.976563 42.519531 143.195313 43.089844 C 143.414063 43.664063 143.371094 44.378906 143.070313 45.230469 C 142.953125 45.554688 142.792969 45.886719 142.585938 46.230469 C 142.375 46.566406 142.125 46.886719 141.835938 47.199219 L 140.789063 46.839844 C 141.15625 46.558594 141.460938 46.261719 141.710938 45.949219 C 141.949219 45.628906 142.132813 45.292969 142.257813 44.949219 C 142.445313 44.429688 142.46875 43.980469 142.335938 43.605469 C 142.199219 43.230469 141.925781 42.972656 141.507813 42.824219 C 141.132813 42.691406 140.804688 42.691406 140.523438 42.824219 C 140.234375 42.960938 139.953125 43.242188 139.679688 43.667969 L 139.367188 44.199219 C 138.984375 44.835938 138.578125 45.246094 138.148438 45.433594 C 137.710938 45.621094 137.203125 45.613281 136.617188 45.402344 C 135.953125 45.175781 135.5 44.777344 135.257813 44.214844 C 135.019531 43.652344 135.035156 43.003906 135.304688 42.261719 C 135.421875 41.929688 135.570313 41.613281 135.757813 41.308594 C 135.9375 41.007813 136.148438 40.707031 136.398438 40.402344 Z M 137.359375 37.789063 L 138.96875 38.351563 L 139.5625 36.617188 L 140.28125 36.867188 L 139.6875 38.601563 L 142.765625 39.695313 C 143.234375 39.851563 143.554688 39.898438 143.71875 39.835938 C 143.886719 39.765625 144.03125 39.550781 144.15625 39.195313 L 144.453125 38.335938 L 145.234375 38.617188 L 144.9375 39.476563 C 144.707031 40.125 144.414063 40.523438 144.0625 40.679688 C 143.710938 40.828125 143.179688 40.773438 142.46875 40.523438 L 139.390625 39.429688 L 139.171875 40.054688 L 138.453125 39.804688 L 138.671875 39.179688 L 137.0625 38.617188 Z M 141.863281 32.867188 C 141.769531 32.941406 141.691406 33.03125 141.628906 33.132813 C 141.558594 33.238281 141.496094 33.351563 141.441406 33.476563 C 141.277344 33.957031 141.324219 34.382813 141.582031 34.757813 C 141.832031 35.132813 142.28125 35.4375 142.925781 35.664063 L 145.910156 36.710938 L 145.613281 37.554688 L 139.941406 35.554688 L 140.238281 34.710938 L 141.113281 35.023438 C 140.832031 34.734375 140.660156 34.414063 140.597656 34.070313 C 140.527344 33.726563 140.5625 33.351563 140.707031 32.945313 C 140.730469 32.882813 140.753906 32.820313 140.785156 32.757813 C 140.816406 32.6875 140.855469 32.613281 140.894531 32.539063 Z M 145.445313 28.238281 L 145.898438 28.394531 L 144.539063 32.253906 C 145.195313 32.453125 145.75 32.453125 146.195313 32.253906 C 146.632813 32.046875 146.945313 31.667969 147.132813 31.113281 C 147.246094 30.792969 147.3125 30.46875 147.335938 30.144531 C 147.367188 29.8125 147.34375 29.464844 147.273438 29.097656 L 148.148438 29.394531 C 148.1875 29.761719 148.1875 30.113281 148.148438 30.457031 C 148.105469 30.792969 148.027344 31.121094 147.914063 31.441406 C 147.632813 32.253906 147.148438 32.8125 146.460938 33.113281 C 145.773438 33.40625 144.976563 33.390625 144.070313 33.066406 C 143.144531 32.746094 142.488281 32.261719 142.101563 31.613281 C 141.707031 30.96875 141.644531 30.265625 141.914063 29.503906 C 142.15625 28.816406 142.59375 28.359375 143.226563 28.128906 C 143.863281 27.902344 144.601563 27.9375 145.445313 28.238281 Z M 144.867188 28.988281 C 144.359375 28.8125 143.90625 28.796875 143.507813 28.941406 C 143.113281 29.078125 142.84375 29.355469 142.695313 29.769531 C 142.53125 30.238281 142.546875 30.671875 142.742188 31.066406 C 142.941406 31.453125 143.300781 31.753906 143.820313 31.972656 Z M 147.46875 22.492188 L 147.921875 22.648438 L 146.5625 26.507813 C 147.21875 26.707031 147.773438 26.707031 148.21875 26.507813 C 148.65625 26.300781 148.96875 25.921875 149.15625 25.367188 C 149.269531 25.046875 149.335938 24.722656 149.359375 24.398438 C 149.390625 24.066406 149.367188 23.71875 149.296875 23.351563 L 150.171875 23.648438 C 150.210938 24.015625 150.210938 24.367188 150.171875 24.710938 C 150.128906 25.046875 150.050781 25.375 149.9375 25.695313 C 149.65625 26.507813 149.171875 27.066406 148.484375 27.367188 C 147.796875 27.660156 147 27.644531 146.09375 27.320313 C 145.167969 27 144.511719 26.515625 144.125 25.867188 C 143.730469 25.222656 143.667969 24.519531 143.9375 23.757813 C 144.179688 23.070313 144.617188 22.613281 145.25 22.382813 C 145.886719 22.15625 146.625 22.191406 147.46875 22.492188 Z M 146.890625 23.242188 C 146.382813 23.066406 145.929688 23.050781 145.53125 23.195313 C 145.136719 23.332031 144.867188 23.609375 144.71875 24.023438 C 144.554688 24.492188 144.570313 24.925781 144.765625 25.320313 C 144.964844 25.707031 145.324219 26.007813 145.84375 26.226563 Z M 144.039063 18.804688 L 145.648438 19.367188 L 146.242188 17.632813 L 146.960938 17.882813 L 146.367188 19.617188 L 149.445313 20.710938 C 149.914063 20.867188 150.234375 20.914063 150.398438 20.851563 C 150.566406 20.78125 150.710938 20.566406 150.835938 20.210938 L 151.132813 19.351563 L 151.914063 19.632813 L 151.617188 20.492188 C 151.386719 21.140625 151.09375 21.539063 150.742188 21.695313 C 150.390625 21.84375 149.859375 21.789063 149.148438 21.539063 L 146.070313 20.445313 L 145.851563 21.070313 L 145.132813 20.820313 L 145.351563 20.195313 L 143.742188 19.632813 Z M 144.039063 18.804688 "/>
</g>
</svg>

