<?xml version="1.0" encoding="UTF-8"?>
<svg xmlns="http://www.w3.org/2000/svg" xmlns:xlink="http://www.w3.org/1999/xlink" width="256pt" height="256pt" viewBox="0 0 256 256" version="1.1">
<g id="surface2">
<rect x="0" y="0" width="256" height="256" style="fill:rgb(94.901961%,93.72549%,91.372549%);fill-opacity:1;stroke:none;"/>
<path style="fill:none;stroke-width:6;stroke-linecap:round;stroke-linejoin:round;stroke:rgb(60%,70.196078%,80%);stroke-opacity:1;stroke-miterlimit:10;" d="M -7 178.121094 L 7.40625 189.757813 L 39.40625 203.757813 L 54.234375 226.910156 L 62.980469 262 "/>
<path style="fill:none;stroke-width:8;stroke-linecap:round;stroke-linejoin:round;stroke:rgb(75.686275%,70.980392%,61.568627%);stroke-opacity:1;stroke-miterlimit:10;" d="M 91.460938 -9 L 89.753906 -2.25 L 89.21875 0.964844 L 91.359375 7.234375 L 91.734375 9.535156 L 79.921875 16.15625 L 75.632813 16.691406 L 61.140625 22.050781 "/>
<path style="fill:none;stroke-width:8;stroke-linecap:round;stroke-linejoin:round;stroke:rgb(75.686275%,70.980392%,61.568627%);stroke-opacity:1;stroke-miterlimit:10;" d="M 151.128906 13.632813 L 146.722656 -9 "/>
<path style="fill:none;stroke-width:8;stroke-linecap:round;stroke-linejoin:round;stroke:rgb(75.686275%,70.980392%,61.568627%);stroke-opacity:1;stroke-miterlimit:10;" d="M 175.039063 10.007813 L 175.039063 -6.378906 L 175.160156 -9 "/>
<path style="fill:none;stroke-width:8;stroke-linecap:round;stroke-linejoin:round;stroke:rgb(75.686275%,70.980392%,61.568627%);stroke-opacity:1;stroke-miterlimit:10;" d="M 252.75 177.957031 L 258.269531 158.984375 L 260.207031 150.097656 L 260.859375 143.511719 L 261.089844 137.082031 L 259.085938 118.929688 L 259.484375 113.476563 L 260.136719 109.476563 L 261.578125 104.90625 L 263.023438 101.910156 L 264 100.257813 "/>
<path style="fill:none;stroke-width:8;stroke-linecap:round;stroke-linejoin:round;stroke:rgb(75.686275%,70.980392%,61.568627%);stroke-opacity:1;stroke-miterlimit:10;" d="M 103.886719 -9 L 106.484375 -8.019531 L 108.558594 -6.914063 L 110.28125 -5.84375 L 112.261719 -3.984375 L 113.660156 -2.03125 L 118.789063 5.816406 L 122.375 9.726563 L 125.3125 12.121094 L 128.574219 13.949219 L 131.183594 15.148438 L 133.558594 15.808594 L 137.382813 16.1875 L 140.621094 15.902344 L 151.128906 13.632813 L 152.363281 13.351563 L 160.171875 11.679688 L 167.953125 10.511719 L 175.039063 10.007813 L 183.84375 10.230469 L 186.945313 10.480469 L 193.257813 11.363281 "/>
<path style="fill:none;stroke-width:8;stroke-linecap:round;stroke-linejoin:round;stroke:rgb(75.686275%,70.980392%,61.568627%);stroke-opacity:1;stroke-miterlimit:10;" d="M 239.222656 264 L 246.621094 256.679688 L 254.800781 248.078125 L 261.207031 239.726563 L 263.164063 235.785156 L 264 233.621094 M 264 195.238281 L 262.324219 191.507813 L 257.386719 183.914063 L 252.75 177.957031 L 243.589844 168.316406 L 240.773438 164.46875 L 239 161.253906 L 237.554688 158.105469 L 226.71875 124.003906 L 216.234375 93.96875 L 209.59375 80.449219 L 191.769531 45.96875 L 190.648438 42.851563 L 188.925781 36.546875 L 188.484375 32.734375 L 188.484375 29.898438 L 189.296875 25.863281 L 193.257813 11.363281 "/>
<path style="fill:none;stroke-width:8;stroke-linecap:round;stroke-linejoin:round;stroke:rgb(75.686275%,70.980392%,61.568627%);stroke-opacity:1;stroke-miterlimit:10;" d="M 193.257813 11.363281 L 196.359375 3.675781 L 200.730469 -9 "/>
<path style="fill:none;stroke-width:6;stroke-linecap:round;stroke-linejoin:round;stroke:rgb(100%,100%,100%);stroke-opacity:1;stroke-miterlimit:10;" d="M 91.460938 -9 L 89.753906 -2.25 L 89.21875 0.964844 L 91.359375 7.234375 L 91.734375 9.535156 L 79.921875 16.15625 L 75.632813 16.691406 L 61.140625 22.050781 "/>
<path style="fill:none;stroke-width:6;stroke-linecap:round;stroke-linejoin:round;stroke:rgb(100%,100%,100%);stroke-opacity:1;stroke-miterlimit:10;" d="M 151.128906 13.632813 L 146.722656 -9 "/>
<path style="fill:none;stroke-width:6;stroke-linecap:round;stroke-linejoin:round;stroke:rgb(100%,100%,100%);stroke-opacity:1;stroke-miterlimit:10;" d="M 175.039063 10.007813 L 175.039063 -6.378906 L 175.160156 -9 "/>
<path style="fill:none;stroke-width:6;stroke-linecap:round;stroke-linejoin:round;stroke:rgb(100%,100%,100%);stroke-opacity:1;stroke-miterlimit:10;" d="M 252.75 177.957031 L 258.269531 158.984375 L 260.207031 150.097656 L 260.859375 143.511719 L 261.089844 137.082031 L 259.085938 118.929688 L 259.484375 113.476563 L 260.136719 109.476563 L 261.578125 104.90625 L 263.023438 101.910156 L 264 100.257813 "/>
<path style="fill:none;stroke-width:6;stroke-linecap:round;stroke-linejoin:round;stroke:rgb(100%,100%,100%);stroke-opacity:1;stroke-miterlimit:10;" d="M 103.886719 -9 L 106.484375 -8.019531 L 108.558594 -6.914063 L 110.28125 -5.84375 L 112.261719 -3.984375 L 113.660156 -2.03125 L 118.789063 5.816406 L 122.375 9.726563 L 125.3125 12.121094 L 128.574219 13.949219 L 131.183594 15.148438 L 133.558594 15.808594 L 137.382813 16.1875 L 140.621094 15.902344 L 151.128906 13.632813 L 152.363281 13.351563 L 160.171875 11.679688 L 167.953125 10.511719 L 175.039063 10.007813 L 183.84375 10.230469 L 186.945313 10.480469 L 193.257813 11.363281 "/>
<path style="fill:none;stroke-width:6;stroke-linecap:round;stroke-linejoin:round;stroke:rgb(100%,99.215686%,54.509804%);stroke-opacity:1;stroke-miterlimit:10;" d="M 239.222656 264 L 246.621094 256.679688 L 254.800781 248.078125 L 261.207031 239.726563 L 263.164063 235.785156 L 264 233.621094 M 264 195.238281 L 262.324219 191.507813 L 257.386719 183.914063 L 252.75 177.957031 L 243.589844 168.316406 L 240.773438 164.46875 L 239 161.253906 L 237.554688 158.105469 L 226.71875 124.003906 L 216.234375 93.96875 L 209.59375 80.449219 L 191.769531 45.96875 L 190.648438 42.851563 L 188.925781 36.546875 L 188.484375 32.734375 L 188.484375 29.898438 L 189.296875 25.863281 L 193.257813 11.363281 "/>
<path style="fill:none;stroke-width:6;stroke-linecap:round;stroke-linejoin:round;stroke:rgb(100%,99.215686%,54.509804%);stroke-opacity:1;stroke-miterlimit:10;" d="M 193.257813 11.363281 L 196.359375 3.675781 L 200.730469 -9 "/>
<path style="fill:none;stroke-width:3;stroke-linecap:round;stroke-linejoin:round;stroke:rgb(100%,100%,100%);stroke-opacity:1;stroke-miterlimit:10;" d="M 209.726563 73.289063 L 208.695313 73.820313 C 208.859375 73.371094 208.929688 72.945313 208.898438 72.539063 C 208.875 72.132813 208.773438 71.742188 208.585938 71.367188 C 208.199219 70.640625 207.65625 70.210938 206.960938 70.085938 C 206.261719 69.953125 205.4375 70.125 204.492188 70.601563 C 203.5625 71.089844 202.949219 71.65625 202.648438 72.304688 C 202.355469 72.949219 202.402344 73.636719 202.789063 74.367188 C 202.976563 74.742188 203.226563 75.054688 203.539063 75.304688 C 203.859375 75.5625 204.246094 75.761719 204.695313 75.898438 L 203.710938 76.414063 C 203.3125 76.226563 202.96875 75.992188 202.679688 75.710938 C 202.398438 75.4375 202.15625 75.117188 201.960938 74.742188 C 201.460938 73.773438 201.398438 72.835938 201.773438 71.929688 C 202.148438 71.035156 202.902344 70.289063 204.039063 69.695313 C 205.195313 69.101563 206.246094 68.914063 207.195313 69.132813 C 208.140625 69.351563 208.867188 69.945313 209.367188 70.914063 C 209.5625 71.296875 209.6875 71.6875 209.742188 72.085938 C 209.804688 72.480469 209.796875 72.882813 209.726563 73.289063 Z M 209.519531 77.421875 C 209.300781 77.007813 208.941406 76.765625 208.441406 76.703125 C 207.949219 76.640625 207.386719 76.777344 206.753906 77.109375 C 206.105469 77.441406 205.664063 77.828125 205.425781 78.265625 C 205.183594 78.703125 205.175781 79.128906 205.394531 79.546875 C 205.613281 79.972656 205.964844 80.210938 206.457031 80.265625 C 206.945313 80.328125 207.511719 80.191406 208.160156 79.859375 C 208.792969 79.523438 209.230469 79.140625 209.472656 78.703125 C 209.722656 78.273438 209.738281 77.847656 209.519531 77.421875 Z M 210.253906 77.03125 C 210.605469 77.71875 210.636719 78.382813 210.347656 79.03125 C 210.054688 79.6875 209.472656 80.242188 208.597656 80.703125 C 207.722656 81.148438 206.929688 81.304688 206.222656 81.171875 C 205.523438 81.035156 204.996094 80.625 204.644531 79.9375 C 204.289063 79.25 204.257813 78.578125 204.550781 77.921875 C 204.851563 77.273438 205.441406 76.730469 206.316406 76.28125 C 207.191406 75.824219 207.976563 75.664063 208.675781 75.796875 C 209.371094 75.933594 209.898438 76.34375 210.253906 77.03125 Z M 208.632813 82.179688 L 211.914063 80.570313 L 212.304688 81.382813 L 209.054688 82.976563 C 208.554688 83.226563 208.214844 83.5 208.039063 83.804688 C 207.871094 84.105469 207.871094 84.433594 208.039063 84.789063 C 208.257813 85.226563 208.578125 85.496094 209.007813 85.601563 C 209.445313 85.703125 209.929688 85.621094 210.460938 85.351563 L 213.523438 83.851563 L 213.914063 84.648438 L 208.507813 87.304688 L 208.117188 86.507813 L 208.945313 86.101563 C 208.515625 86.058594 208.15625 85.949219 207.867188 85.773438 C 207.585938 85.59375 207.359375 85.335938 207.195313 84.992188 C 206.921875 84.4375 206.914063 83.921875 207.164063 83.445313 C 207.414063 82.964844 207.902344 82.542969 208.632813 82.179688 Z M 213.023438 82.523438 Z M 214.542969 91.394531 L 211.292969 92.988281 L 210.902344 92.191406 L 214.121094 90.613281 C 214.640625 90.351563 214.980469 90.070313 215.136719 89.769531 C 215.300781 89.464844 215.296875 89.136719 215.121094 88.785156 C 214.910156 88.355469 214.59375 88.09375 214.167969 87.988281 C 213.75 87.886719 213.28125 87.964844 212.761719 88.222656 L 209.699219 89.722656 L 209.292969 88.910156 L 214.699219 86.253906 L 215.105469 87.066406 L 214.261719 87.488281 C 214.675781 87.511719 215.027344 87.613281 215.308594 87.800781 C 215.597656 87.980469 215.828125 88.238281 215.996094 88.582031 C 216.265625 89.132813 216.277344 89.644531 216.027344 90.113281 C 215.785156 90.589844 215.292969 91.019531 214.542969 91.394531 Z M 219.398438 92.203125 L 217.835938 92.859375 L 218.554688 94.53125 L 217.851563 94.84375 L 217.132813 93.171875 L 214.132813 94.453125 C 213.683594 94.648438 213.417969 94.828125 213.335938 94.984375 C 213.25 95.148438 213.28125 95.40625 213.429688 95.75 L 213.789063 96.578125 L 213.023438 96.90625 L 212.664063 96.078125 C 212.390625 95.441406 212.335938 94.945313 212.492188 94.59375 C 212.65625 94.238281 213.085938 93.914063 213.773438 93.625 L 216.773438 92.34375 L 216.523438 91.75 L 217.226563 91.4375 L 217.476563 92.03125 L 219.039063 91.375 Z M 213.523438 100.066406 C 212.765625 100.066406 212.242188 99.988281 211.960938 99.832031 C 211.679688 99.675781 211.476563 99.410156 211.351563 99.035156 L 211.101563 98.347656 L 211.867188 98.082031 L 212.054688 98.582031 C 212.128906 98.808594 212.253906 98.964844 212.429688 99.050781 C 212.597656 99.144531 212.929688 99.191406 213.429688 99.191406 L 213.914063 99.175781 L 218.773438 95.160156 L 219.085938 96.050781 L 215.210938 99.191406 L 220.210938 99.238281 L 220.507813 100.128906 Z M 220.988281 108.265625 C 220.964844 108.484375 220.867188 108.726563 220.691406 109 C 220.523438 109.269531 220.253906 109.582031 219.878906 109.9375 L 218.144531 111.578125 L 217.800781 110.59375 L 219.457031 109.03125 C 219.871094 108.644531 220.128906 108.3125 220.222656 108.03125 C 220.316406 107.757813 220.300781 107.441406 220.175781 107.078125 L 219.816406 106.078125 L 216.613281 107.203125 L 216.285156 106.28125 L 223.847656 103.640625 L 224.582031 105.71875 C 224.851563 106.5 224.871094 107.140625 224.644531 107.640625 C 224.425781 108.148438 223.949219 108.535156 223.222656 108.796875 C 222.742188 108.960938 222.308594 109 221.925781 108.90625 C 221.539063 108.820313 221.226563 108.609375 220.988281 108.265625 Z M 223.347656 104.859375 L 220.660156 105.796875 L 221.066406 106.953125 C 221.222656 107.398438 221.449219 107.695313 221.753906 107.84375 C 222.054688 108 222.429688 108 222.878906 107.84375 C 223.316406 107.6875 223.605469 107.453125 223.753906 107.140625 C 223.910156 106.835938 223.910156 106.460938 223.753906 106.015625 Z M 224.273438 112.960938 C 224.117188 112.511719 223.792969 112.226563 223.304688 112.101563 C 222.8125 111.976563 222.230469 112.03125 221.554688 112.273438 C 220.875 112.5 220.390625 112.8125 220.101563 113.210938 C 219.808594 113.605469 219.742188 114.027344 219.898438 114.476563 C 220.054688 114.933594 220.371094 115.226563 220.851563 115.351563 C 221.328125 115.476563 221.90625 115.421875 222.585938 115.195313 C 223.261719 114.953125 223.75 114.636719 224.054688 114.242188 C 224.355469 113.84375 224.429688 113.417969 224.273438 112.960938 Z M 225.054688 112.679688 C 225.304688 113.40625 225.234375 114.070313 224.851563 114.664063 C 224.476563 115.265625 223.820313 115.734375 222.882813 116.070313 C 221.964844 116.390625 221.167969 116.433594 220.492188 116.195313 C 219.8125 115.964844 219.351563 115.484375 219.101563 114.757813 C 218.839844 114.015625 218.902344 113.351563 219.289063 112.757813 C 219.683594 112.164063 220.339844 111.707031 221.257813 111.382813 C 222.195313 111.050781 222.996094 111 223.664063 111.226563 C 224.328125 111.457031 224.792969 111.9375 225.054688 112.679688 Z M 224.21875 119.761719 C 223.976563 119.082031 223.722656 118.644531 223.453125 118.449219 C 223.179688 118.25 222.84375 118.222656 222.4375 118.371094 C 222.101563 118.484375 221.875 118.671875 221.75 118.933594 C 221.625 119.191406 221.625 119.496094 221.75 119.839844 C 221.914063 120.308594 222.226563 120.613281 222.6875 120.761719 C 223.144531 120.917969 223.675781 120.890625 224.28125 120.683594 L 224.5 120.605469 Z M 225.1875 121.292969 L 221.9375 122.433594 L 221.640625 121.605469 L 222.5 121.308594 C 222.09375 121.222656 221.757813 121.066406 221.5 120.839844 C 221.238281 120.609375 221.035156 120.285156 220.890625 119.871094 C 220.703125 119.347656 220.71875 118.878906 220.9375 118.464844 C 221.15625 118.046875 221.539063 117.738281 222.09375 117.542969 C 222.726563 117.324219 223.269531 117.351563 223.71875 117.621094 C 224.175781 117.890625 224.539063 118.40625 224.8125 119.167969 L 225.21875 120.355469 L 225.3125 120.324219 C 225.75 120.167969 226.039063 119.921875 226.1875 119.589844 C 226.332031 119.253906 226.328125 118.855469 226.171875 118.386719 C 226.066406 118.105469 225.925781 117.832031 225.75 117.574219 C 225.570313 117.324219 225.363281 117.097656 225.125 116.886719 L 225.96875 116.589844 C 226.21875 116.863281 226.421875 117.128906 226.578125 117.386719 C 226.742188 117.644531 226.878906 117.917969 226.984375 118.199219 C 227.234375 118.9375 227.210938 119.5625 226.921875 120.074219 C 226.628906 120.582031 226.050781 120.988281 225.1875 121.292969 Z M 228.472656 125.898438 L 231.550781 124.882813 L 231.832031 125.726563 L 223.894531 128.335938 L 223.613281 127.492188 L 224.472656 127.210938 C 224.066406 127.148438 223.730469 127 223.472656 126.773438 C 223.222656 126.554688 223.035156 126.257813 222.910156 125.882813 C 222.710938 125.257813 222.820313 124.65625 223.238281 124.085938 C 223.664063 123.511719 224.324219 123.082031 225.222656 122.789063 C 226.128906 122.5 226.917969 122.457031 227.597656 122.664063 C 228.273438 122.875 228.710938 123.289063 228.910156 123.914063 C 229.035156 124.289063 229.058594 124.636719 228.988281 124.960938 C 228.914063 125.292969 228.742188 125.605469 228.472656 125.898438 Z M 225.503906 123.664063 C 224.816406 123.890625 224.316406 124.199219 224.003906 124.585938 C 223.699219 124.96875 223.621094 125.386719 223.769531 125.835938 C 223.925781 126.28125 224.238281 126.570313 224.707031 126.695313 C 225.183594 126.828125 225.769531 126.78125 226.457031 126.554688 C 227.152344 126.324219 227.652344 126.015625 227.957031 125.632813 C 228.269531 125.246094 228.347656 124.828125 228.191406 124.382813 C 228.042969 123.933594 227.730469 123.640625 227.253906 123.507813 C 226.785156 123.382813 226.199219 123.433594 225.503906 123.664063 Z M 232.996094 133.574219 L 228.167969 132.511719 L 228.917969 134.871094 Z M 233.808594 133.042969 L 234.167969 134.214844 L 229.199219 135.792969 L 229.511719 136.761719 L 228.636719 137.027344 L 228.324219 136.058594 L 226.527344 136.636719 L 226.246094 135.714844 L 228.042969 135.136719 L 227.042969 132.027344 L 228.042969 131.714844 Z M 228.25 139.027344 L 228.734375 140.542969 L 234.578125 138.699219 L 233.671875 137.152344 L 234.609375 136.855469 L 235.515625 138.402344 L 235.8125 139.339844 L 229.03125 141.480469 L 229.5 142.996094 L 228.640625 143.277344 L 227.390625 139.308594 Z M 228.25 139.027344 "/>
<path style=" stroke:none;fill-rule:evenodd;fill:rgb(20%,20%,20%);fill-opacity:1;" d="M 209.726563 73.289063 L 208.695313 73.820313 C 208.859375 73.371094 208.929688 72.945313 208.898438 72.539063 C 208.875 72.132813 208.773438 71.742188 208.585938 71.367188 C 208.199219 70.640625 207.65625 70.210938 206.960938 70.085938 C 206.261719 69.953125 205.4375 70.125 204.492188 70.601563 C 203.5625 71.089844 202.949219 71.65625 202.648438 72.304688 C 202.355469 72.949219 202.402344 73.636719 202.789063 74.367188 C 202.976563 74.742188 203.226563 75.054688 203.539063 75.304688 C 203.859375 75.5625 204.246094 75.761719 204.695313 75.898438 L 203.710938 76.414063 C 203.3125 76.226563 202.96875 75.992188 202.679688 75.710938 C 202.398438 75.4375 202.15625 75.117188 201.960938 74.742188 C 201.460938 73.773438 201.398438 72.835938 201.773438 71.929688 C 202.148438 71.035156 202.902344 70.289063 204.039063 69.695313 C 205.195313 69.101563 206.246094 68.914063 207.195313 69.132813 C 208.140625 69.351563 208.867188 69.945313 209.367188 70.914063 C 209.5625 71.296875 209.6875 71.6875 209.742188 72.085938 C 209.804688 72.480469 209.796875 72.882813 209.726563 73.289063 Z M 209.519531 77.421875 C 209.300781 77.007813 208.941406 76.765625 208.441406 76.703125 C 207.949219 76.640625 207.386719 76.777344 206.753906 77.109375 C 206.105469 77.441406 205.664063 77.828125 205.425781 78.265625 C 205.183594 78.703125 205.175781 79.128906 205.394531 79.546875 C 205.613281 79.972656 205.964844 80.210938 206.457031 80.265625 C 206.945313 80.328125 207.511719 80.191406 208.160156 79.859375 C 208.792969 79.523438 209.230469 79.140625 209.472656 78.703125 C 209.722656 78.273438 209.738281 77.847656 209.519531 77.421875 Z M 210.253906 77.03125 C 210.605469 77.71875 210.636719 78.382813 210.347656 79.03125 C 210.054688 79.6875 209.472656 80.242188 208.597656 80.703125 C 207.722656 81.148438 206.929688 81.304688 206.222656 81.171875 C 205.523438 81.035156 204.996094 80.625 204.644531 79.9375 C 204.289063 79.25 204.257813 78.578125 204.550781 77.921875 C 204.851563 77.273438 205.441406 76.730469 206.316406 76.28125 C 207.191406 75.824219 207.976563 75.664063 208.675781 75.796875 C 209.371094 75.933594 209.898438 76.34375 210.253906 77.03125 Z M 208.632813 82.179688 L 211.914063 80.570313 L 212.304688 81.382813 L 209.054688 82.976563 C 208.554688 83.226563 208.214844 83.5 208.039063 83.804688 C 207.871094 84.105469 207.871094 84.433594 208.039063 84.789063 C 208.257813 85.226563 208.578125 85.496094 209.007813 85.601563 C 209.445313 85.703125 209.929688 85.621094 210.460938 85.351563 L 213.523438 83.851563 L 213.914063 84.648438 L 208.507813 87.304688 L 208.117188 86.507813 L 208.945313 86.101563 C 208.515625 86.058594 208.15625 85.949219 207.867188 85.773438 C 207.585938 85.59375 207.359375 85.335938 207.195313 84.992188 C 206.921875 84.4375 206.914063 83.921875 207.164063 83.445313 C 207.414063 82.964844 207.902344 82.542969 208.632813 82.179688 Z M 213.023438 82.523438 Z M 214.542969 91.394531 L 211.292969 92.988281 L 210.902344 92.191406 L 214.121094 90.613281 C 214.640625 90.351563 214.980469 90.070313 215.136719 89.769531 C 215.300781 89.464844 215.296875 89.136719 215.121094 88.785156 C 214.910156 88.355469 214.59375 88.09375 214.167969 87.988281 C 213.75 87.886719 213.28125 87.964844 212.761719 88.222656 L 209.699219 89.722656 L 209.292969 88.910156 L 214.699219 86.253906 L 215.105469 87.066406 L 214.261719 87.488281 C 214.675781 87.511719 215.027344 87.613281 215.308594 87.800781 C 215.597656 87.980469 215.828125 88.238281 215.996094 88.582031 C 216.265625 89.132813 216.277344 89.644531 216.027344 90.113281 C 215.785156 90.589844 215.292969 91.019531 214.542969 91.394531 Z M 219.398438 92.203125 L 217.835938 92.859375 L 218.554688 94.53125 L 217.851563 94.84375 L 217.132813 93.171875 L 214.132813 94.453125 C 213.683594 94.648438 213.417969 94.828125 213.335938 94.984375 C 213.25 95.148438 213.28125 95.40625 213.429688 95.75 L 213.789063 96.578125 L 213.023438 96.90625 L 212.664063 96.078125 C 212.390625 95.441406 212.335938 94.945313 212.492188 94.59375 C 212.65625 94.238281 213.085938 93.914063 213.773438 93.625 L 216.773438 92.34375 L 216.523438 91.75 L 217.226563 91.4375 L 217.476563 92.03125 L 219.039063 91.375 Z M 213.523438 100.066406 C 212.765625 100.066406 212.242188 99.988281 211.960938 99.832031 C 211.679688 99.675781 211.476563 99.410156 211.351563 99.035156 L 211.101563 98.347656 L 211.867188 98.082031 L 212.054688 98.582031 C 212.128906 98.808594 212.253906 98.964844 212.429688 99.050781 C 212.597656 99.144531 212.929688 99.191406 213.429688 99.191406 L 213.914063 99.175781 L 218.773438 95.160156 L 219.085938 96.050781 L 215.210938 99.191406 L 220.210938 99.238281 L 220.507813 100.128906 Z M 220.988281 108.265625 C 220.964844 108.484375 220.867188 108.726563 220.691406 109 C 220.523438 109.269531 220.253906 109.582031 219.878906 109.9375 L 218.144531 111.578125 L 217.800781 110.59375 L 219.457031 109.03125 C 219.871094 108.644531 220.128906 108.3125 220.222656 108.03125 C 220.316406 107.757813 220.300781 107.441406 220.175781 107.078125 L 219.816406 106.078125 L 216.613281 107.203125 L 216.285156 106.28125 L 223.847656 103.640625 L 224.582031 105.71875 C 224.851563 106.5 224.871094 107.140625 224.644531 107.640625 C 224.425781 108.148438 223.949219 108.535156 223.222656 108.796875 C 222.742188 108.960938 222.308594 109 221.925781 108.90625 C 221.539063 108.820313 221.226563 108.609375 220.988281 108.265625 Z M 223.347656 104.859375 L 220.660156 105.796875 L 221.066406 106.953125 C 221.222656 107.398438 221.449219 107.695313 221.753906 107.84375 C 222.054688 108 222.429688 108 222.878906 107.84375 C 223.316406 107.6875 223.605469 107.453125 223.753906 107.140625 C 223.910156 106.835938 223.910156 106.460938 223.753906 106.015625 Z M 224.273438 112.960938 C 224.117188 112.511719 223.792969 112.226563 223.304688 112.101563 C 222.8125 111.976563 222.230469 112.03125 221.554688 112.273438 C 220.875 112.5 220.390625 112.8125 220.101563 113.210938 C 219.808594 113.605469 219.742188 114.027344 219.898438 114.476563 C 220.054688 114.933594 220.371094 115.226563 220.851563 115.351563 C 221.328125 115.476563 221.90625 115.421875 222.585938 115.195313 C 223.261719 114.953125 223.75 114.636719 224.054688 114.242188 C 224.355469 113.84375 224.429688 113.417969 224.273438 112.960938 Z M 225.054688 112.679688 C 225.304688 113.40625 225.234375 114.070313 224.851563 114.664063 C 224.476563 115.265625 223.820313 115.734375 222.882813 116.070313 C 221.964844 116.390625 221.167969 116.433594 220.492188 116.195313 C 219.8125 115.964844 219.351563 115.484375 219.101563 114.757813 C 218.839844 114.015625 218.902344 113.351563 219.289063 112.757813 C 219.683594 112.164063 220.339844 111.707031 221.257813 111.382813 C 222.195313 111.050781 222.996094 111 223.664063 111.226563 C 224.328125 111.457031 224.792969 111.9375 225.054688 112.679688 Z M 224.21875 119.761719 C 223.976563 119.082031 223.722656 118.644531 223.453125 118.449219 C 223.179688 118.25 222.84375 118.222656 222.4375 118.371094 C 222.101563 118.484375 221.875 118.671875 221.75 118.933594 C 221.625 119.191406 221.625 119.496094 221.75 119.839844 C 221.914063 120.308594 222.226563 120.613281 222.6875 120.761719 C 223.144531 120.917969 223.675781 120.890625 224.28125 120.683594 L 224.5 120.605469 Z M 225.1875 121.292969 L 221.9375 122.433594 L 221.640625 121.605469 L 222.5 121.308594 C 222.09375 121.222656 221.757813 121.066406 221.5 120.839844 C 221.238281 120.609375 221.035156 120.285156 220.890625 119.871094 C 220.703125 119.347656 220.71875 118.878906 220.9375 118.464844 C 221.15625 118.046875 221.539063 117.738281 222.09375 117.542969 C 222.726563 117.324219 223.269531 117.351563 223.71875 117.621094 C 224.175781 117.890625 224.539063 118.40625 224.8125 119.167969 L 225.21875 120.355469 L 225.3125 120.324219 C 225.75 120.167969 226.039063 119.921875 226.1875 119.589844 C 226.332031 119.253906 226.328125 118.855469 226.171875 118.386719 C 226.066406 118.105469 225.925781 117.832031 225.75 117.574219 C 225.570313 117.324219 225.363281 117.097656 225.125 116.886719 L 225.96875 116.589844 C 226.21875 116.863281 226.421875 117.128906 226.578125 117.386719 C 226.742188 117.644531 226.878906 117.917969 226.984375 118.199219 C 227.234375 118.9375 227.210938 119.5625 226.921875 120.074219 C 226.628906 120.582031 226.050781 120.988281 225.1875 121.292969 Z M 228.472656 125.898438 L 231.550781 124.882813 L 231.832031 125.726563 L 223.894531 128.335938 L 223.613281 127.492188 L 224.472656 127.210938 C 224.066406 127.148438 223.730469 127 223.472656 126.773438 C 223.222656 126.554688 223.035156 126.257813 222.910156 125.882813 C 222.710938 125.257813 222.820313 124.65625 223.238281 124.085938 C 223.664063 123.511719 224.324219 123.082031 225.222656 122.789063 C 226.128906 122.5 226.917969 122.457031 227.597656 122.664063 C 228.273438 122.875 228.710938 123.289063 228.910156 123.914063 C 229.035156 124.289063 229.058594 124.636719 228.988281 124.960938 C 228.914063 125.292969 228.742188 125.605469 228.472656 125.898438 Z M 225.503906 123.664063 C 224.816406 123.890625 224.316406 124.199219 224.003906 124.585938 C 223.699219 124.96875 223.621094 125.386719 223.769531 125.835938 C 223.925781 126.28125 224.238281 126.570313 224.707031 126.695313 C 225.183594 126.828125 225.769531 126.78125 226.457031 126.554688 C 227.152344 126.324219 227.652344 126.015625 227.957031 125.632813 C 228.269531 125.246094 228.347656 124.828125 228.191406 124.382813 C 228.042969 123.933594 227.730469 123.640625 227.253906 123.507813 C 226.785156 123.382813 226.199219 123.433594 225.503906 123.664063 Z M 232.996094 133.574219 L 228.167969 132.511719 L 228.917969 134.871094 Z M 233.808594 133.042969 L 234.167969 134.214844 L 229.199219 135.792969 L 229.511719 136.761719 L 228.636719 137.027344 L 228.324219 136.058594 L 226.527344 136.636719 L 226.246094 135.714844 L 228.042969 135.136719 L 227.042969 132.027344 L 228.042969 131.714844 Z M 228.25 139.027344 L 228.734375 140.542969 L 234.578125 138.699219 L 233.671875 137.152344 L 234.609375 136.855469 L 235.515625 138.402344 L 235.8125 139.339844 L 229.03125 141.480469 L 229.5 142.996094 L 228.640625 143.277344 L 227.390625 139.308594 Z M 228.25 139.027344 "/>
</g>
</svg>

