<?xml version="1.0" encoding="UTF-8"?>
<svg xmlns="http://www.w3.org/2000/svg" xmlns:xlink="http://www.w3.org/1999/xlink" width="256pt" height="256pt" viewBox="0 0 256 256" version="1.1">
<g id="surface2">
<rect x="0" y="0" width="256" height="256" style="fill:rgb(94.901961%,93.72549%,91.372549%);fill-opacity:1;stroke:none;"/>
<path style="fill:none;stroke-width:1;stroke-linecap:round;stroke-linejoin:round;stroke:rgb(100%,100%,100%);stroke-opacity:1;stroke-dasharray:2,3;stroke-miterlimit:10;" d="M 167.113281 257 L 166.828125 252.035156 L 167.433594 246.699219 L 169.625 242.167969 L 169.925781 236.601563 L 169.25 212.757813 L 167.480469 207.675781 L 166.128906 199.589844 L 166.546875 194.507813 L 168.0625 187 L 168.015625 184.605469 L 167.269531 179.171875 L 167.875 170.757813 L 168.503906 168.785156 L 171.90625 163.933594 L 179.808594 156.070313 L 181.925781 154.679688 L 182.929688 154.355469 L 194.511719 153.964844 L 196.398438 153.578125 L 198.867188 151.925781 L 205.765625 142.769531 L 207.558594 140.863281 L 208.675781 140.117188 L 217.742188 138.695313 L 224.570313 135.976563 L 231.769531 134.746094 L 235.917969 133.0625 L 238.921875 131.347656 L 242.117188 128.5 L 243.234375 126.949219 L 243.746094 124.390625 L 241.464844 115.332031 L 239.902344 110.285156 L 233.65625 99.414063 L 232.957031 97.566406 L 231.605469 89.15625 L 227.433594 83.914063 L 225.035156 81.484375 L 223.101563 77.796875 L 220.769531 71.230469 L 221.191406 62.558594 L 217.859375 47.21875 L 215.457031 40.617188 L 215.457031 39.550781 L 220.746094 22.53125 L 221.050781 20.78125 L 220.375 11.753906 L 220.769531 10.6875 L 221.773438 9.390625 L 223.496094 8.164063 L 235.964844 1.691406 L 245.199219 -2 "/>
</g>
</svg>

