<?xml version="1.0" encoding="UTF-8"?>
<svg xmlns="http://www.w3.org/2000/svg" xmlns:xlink="http://www.w3.org/1999/xlink" width="256pt" height="256pt" viewBox="0 0 256 256" version="1.1">
<g id="surface2">
<rect x="0" y="0" width="256" height="256" style="fill:rgb(60%,70.196078%,80%);fill-opacity:1;stroke:none;"/>
<path style=" stroke:none;fill-rule:evenodd;fill:rgb(94.901961%,93.72549%,91.372549%);fill-opacity:1;" d="M 259 259 L -4 259 L 259 259 L 211.09375 259 L 201.890625 252.445313 L 192.488281 248.046875 L 180.089844 237.246094 L 173.289063 240.246094 L 169.890625 247.445313 L 174.261719 257.242188 L 177.433594 259 L 259 259 L -4 259 L -4 -4 L 259 -4 Z M 259 259 "/>
<path style=" stroke:none;fill-rule:evenodd;fill:rgb(70.980392%,82.352941%,61.176471%);fill-opacity:1;" d="M 68.355469 116.050781 L 102.628906 74.117188 L 138.046875 90.023438 L 174.078125 112.722656 L 204.15625 133.703125 L 177.625 198.285156 L 259.726563 260 L 260 260 L 260 47.792969 L 248.203125 40.792969 L 235.121094 36.480469 L 218.851563 24.363281 L 215.25 27.140625 L 193.996094 8.390625 L 200.136719 -4 L 45.277344 -4 L 39.433594 12.59375 L 47.609375 51.359375 L 38.304688 91.132813 Z M 68.355469 116.050781 "/>
<path style=" stroke:none;fill-rule:evenodd;fill:rgb(70.980392%,82.352941%,61.176471%);fill-opacity:1;" d="M 260 47.792969 L 260 -4 L 260 21.839844 L 248.203125 40.792969 Z M 260 47.792969 "/>
<path style=" stroke:none;fill-rule:evenodd;fill:rgb(79.607843%,84.705882%,76.470588%);fill-opacity:1;" d="M 34.613281 87.628906 L 67.785156 115.054688 L 99.085938 75.570313 L 117.894531 80.882813 L 139.863281 79.734375 L 149.054688 83.753906 L 151.351563 94.234375 L 154.652344 78.585938 L 141.300781 65.949219 L 143.886719 56.328125 L 130.53125 66.808594 L 119.1875 73.847656 L 100.519531 64.367188 L 109.566406 58.195313 L 113.15625 44.699219 L 110.714844 43.550781 L 103.394531 52.019531 L 81.566406 18.707031 L 79.207031 18.332031 L 66.203125 16.265625 L 46.820313 42.6875 L 52.132813 72.265625 Z M 34.613281 87.628906 "/>
<path style=" stroke:none;fill-rule:evenodd;fill:rgb(79.607843%,84.705882%,76.470588%);fill-opacity:1;" d="M 79.207031 18.332031 L 91.105469 -4 L 100.132813 -4 L 132.355469 28.703125 L 144.292969 20.933594 L 128.945313 -0.472656 L 127.835938 -4 L 71.476563 -4 L 65.285156 14.871094 Z M 79.207031 18.332031 "/>
<path style=" stroke:none;fill-rule:evenodd;fill:rgb(79.607843%,84.705882%,76.470588%);fill-opacity:1;" d="M 180.910156 192.824219 L 185.808594 194.675781 L 195.164063 189.992188 L 204.957031 184.226563 L 212.902344 173.125 L 221.28125 173.5625 L 223.023438 169.429688 L 215.730469 160.503906 L 218.015625 141.679688 L 209.855469 139.9375 L 211.269531 148.859375 L 205.71875 161.59375 L 192.226563 161.265625 L 192.011719 172.363281 L 186.460938 179.113281 Z M 180.910156 192.824219 "/>
<path style=" stroke:none;fill-rule:evenodd;fill:rgb(81.960784%,81.568627%,80.392157%);fill-opacity:1;" d="M 9.246094 167.0625 L 10.96875 169.933594 L 30.75 183.683594 L 37.246094 174.1875 L 34.371094 172.1875 L 39.25 163.9375 L 41 164.0625 L 45.125 156.9375 L 33.0625 151.386719 L 21.496094 146.0625 L 10 164.1875 Z M 9.246094 167.0625 "/>
<path style="fill:none;stroke-width:1;stroke-linecap:round;stroke-linejoin:round;stroke:rgb(81.960784%,81.960784%,81.960784%);stroke-opacity:1;stroke-miterlimit:10;" d="M 9.246094 167.0625 L 10.96875 169.933594 L 30.75 183.683594 L 37.246094 174.1875 L 34.371094 172.1875 L 39.25 163.9375 L 41 164.0625 L 45.125 156.9375 L 33.0625 151.386719 L 21.496094 146.0625 L 10 164.1875 L 9.246094 167.0625 "/>
<path style=" stroke:none;fill-rule:evenodd;fill:rgb(87.058824%,82.352941%,67.45098%);fill-opacity:1;" d="M 214.3125 17.121094 L 222.550781 0.542969 L 223.730469 -1.875 L 224.785156 -4 L 206.214844 -4 L 201.066406 6.5 Z M 214.3125 17.121094 "/>
<path style=" stroke:none;fill-rule:evenodd;fill:rgb(87.058824%,81.960784%,67.058824%);fill-opacity:1;" d="M 174.804688 18.003906 L 195.394531 35.183594 L 205.386719 23.203125 L 184.800781 6.027344 Z M 174.804688 18.003906 "/>
<path style=" stroke:none;fill-rule:evenodd;fill:rgb(79.607843%,84.705882%,76.470588%);fill-opacity:1;" d="M 165.316406 8.570313 L 168.738281 -4 L 162.726563 -4 L 161.011719 7.277344 Z M 165.316406 8.570313 "/>
<path style=" stroke:none;fill-rule:evenodd;fill:rgb(87.058824%,81.960784%,67.058824%);fill-opacity:1;" d="M 214.414063 2.917969 L 218.570313 5 L 219.660156 2.796875 L 215.476563 0.734375 Z M 214.414063 2.917969 "/>
<path style=" stroke:none;fill-rule:evenodd;fill:rgb(87.058824%,81.960784%,67.058824%);fill-opacity:1;" d="M 218.976563 -1.28125 L 222.550781 0.542969 L 223.730469 -1.875 L 220.148438 -3.734375 Z M 218.976563 -1.28125 "/>
<path style=" stroke:none;fill-rule:evenodd;fill:rgb(78.431373%,78.431373%,78.431373%);fill-opacity:1;" d="M -4 -4 L -4 259 L 259 259 L 241.699219 259 L 188.054688 218.476563 L 185.160156 218.15625 L 184.742188 215.921875 L 175.71875 208.652344 L 112.691406 161.921875 L 39.574219 106.726563 L 33.582031 102.351563 L 30.109375 107.6875 L -4 82.285156 Z M -4 -4 "/>
<path style=" stroke:none;fill-rule:evenodd;fill:rgb(60%,70.196078%,80%);fill-opacity:1;" d="M 157.894531 40.050781 L 160.253906 45.191406 L 158.867188 50.324219 L 163.453125 67.40625 L 164.976563 82.277344 L 180.953125 97.277344 L 183.453125 100.890625 L 216.648438 110.605469 L 237.203125 118.390625 L 243.171875 126.582031 L 255.261719 127.691406 L 258.453125 128.800781 L 257.339844 130.890625 L 258.726563 134.359375 L 259 137.195313 L 251.921875 148.109375 L 253.730469 154.21875 L 259 154.707031 L 259 160.113281 L 255.398438 168.527344 L 256.921875 170.332031 L 259 166.089844 L 259 147.582031 L 257.761719 146.71875 L 259 144.816406 L 259 121.671875 L 245.671875 122.140625 L 239.148438 114.640625 L 244.566406 107.140625 L 255.816406 111.027344 L 253.871094 107.832031 L 257.621094 99.640625 L 250.816406 105.890625 L 246.921875 104.914063 L 255.953125 93.382813 L 251.921875 90.328125 L 259 82.378906 L 259 77.769531 L 253.316406 75.609375 L 256.371094 81.300781 L 248.589844 89.355469 L 212.066406 77.269531 L 220.535156 66.574219 L 219.566406 64.769531 L 209.421875 76.4375 L 198.316406 72.6875 L 199.148438 58.109375 L 196.371094 71.4375 L 189.421875 68.660156 L 191.921875 61.4375 L 184.703125 66.859375 L 175.953125 63.800781 L 183.871094 54.632813 L 184.703125 48.800781 L 170.671875 39.355469 L 175.671875 46.441406 L 175.671875 50.882813 L 181.089844 48.382813 L 181.648438 53.246094 L 171.089844 65.324219 L 182.757813 69.769531 L 172.761719 82.269531 L 169.007813 82.269531 L 166.644531 66.574219 L 161.785156 49.769531 L 163.171875 45.46875 L 162.203125 37.414063 L 160.253906 16.996094 L 159.167969 -4 L 155.980469 -4 L 158.171875 17.414063 L 159.148438 37.6875 L 144.976563 40.050781 Z M 184.566406 70.195313 L 195.949219 73.804688 L 191.085938 100.328125 L 185.535156 99.222656 L 184.703125 95.472656 L 172.898438 86.164063 Z M 197.757813 74.914063 L 220.117188 81.859375 L 201.511719 103.246094 L 194.980469 101.855469 Z M 214.285156 95.890625 L 222.617188 82.832031 L 232.898438 86.996094 L 230.257813 93.527344 L 236.507813 87.972656 L 251.507813 93.945313 L 244.011719 103.527344 L 226.367188 98.945313 L 240.953125 106.855469 L 237.480469 114.355469 L 219.007813 107.96875 L 205.257813 104.082031 Z M 214.285156 95.890625 "/>
<path style="fill:none;stroke-width:1;stroke-linecap:round;stroke-linejoin:round;stroke:rgb(70.196078%,77.647059%,83.137255%);stroke-opacity:1;stroke-miterlimit:10;" d="M 157.894531 40.050781 L 160.253906 45.191406 L 158.867188 50.324219 L 163.453125 67.40625 L 164.976563 82.277344 L 180.953125 97.277344 L 183.453125 100.890625 L 216.648438 110.605469 L 237.203125 118.390625 L 243.171875 126.582031 L 255.261719 127.691406 L 258.453125 128.800781 L 257.339844 130.890625 L 258.726563 134.359375 L 259 137.195313 L 251.921875 148.109375 L 253.730469 154.21875 L 259 154.707031 L 259 160.113281 L 255.398438 168.527344 L 256.921875 170.332031 L 259 166.089844 L 259 147.582031 L 257.761719 146.71875 L 259 144.816406 L 259 121.671875 L 245.671875 122.140625 L 239.148438 114.640625 L 244.566406 107.140625 L 255.816406 111.027344 L 253.871094 107.832031 L 257.621094 99.640625 L 250.816406 105.890625 L 246.921875 104.914063 L 255.953125 93.382813 L 251.921875 90.328125 L 259 82.378906 L 259 77.769531 L 253.316406 75.609375 L 256.371094 81.300781 L 248.589844 89.355469 L 212.066406 77.269531 L 220.535156 66.574219 L 219.566406 64.769531 L 209.421875 76.4375 L 198.316406 72.6875 L 199.148438 58.109375 L 196.371094 71.4375 L 189.421875 68.660156 L 191.921875 61.4375 L 184.703125 66.859375 L 175.953125 63.800781 L 183.871094 54.632813 L 184.703125 48.800781 L 170.671875 39.355469 L 175.671875 46.441406 L 175.671875 50.882813 L 181.089844 48.382813 L 181.648438 53.246094 L 171.089844 65.324219 L 182.757813 69.769531 L 172.761719 82.269531 L 169.007813 82.269531 L 166.644531 66.574219 L 161.785156 49.769531 L 163.171875 45.46875 L 162.203125 37.414063 L 160.253906 16.996094 L 159.167969 -4 L 155.980469 -4 L 158.171875 17.414063 L 159.148438 37.6875 L 144.976563 40.050781 L 157.894531 40.050781 M 184.566406 70.195313 L 195.949219 73.804688 L 191.085938 100.328125 L 185.535156 99.222656 L 184.703125 95.472656 L 172.898438 86.164063 L 184.566406 70.195313 M 197.757813 74.914063 L 220.117188 81.859375 L 201.511719 103.246094 L 194.980469 101.855469 L 197.757813 74.914063 M 214.285156 95.890625 L 222.617188 82.832031 L 232.898438 86.996094 L 230.257813 93.527344 L 236.507813 87.972656 L 251.507813 93.945313 L 244.011719 103.527344 L 226.367188 98.945313 L 240.953125 106.855469 L 237.480469 114.355469 L 219.007813 107.96875 L 205.257813 104.082031 L 214.285156 95.890625 "/>
<path style=" stroke:none;fill-rule:evenodd;fill:rgb(60%,70.196078%,80%);fill-opacity:1;" d="M 219.703125 48.519531 L 259 62.832031 L 259 185.292969 L 254.703125 191.71875 L 259 186.824219 L 259 259 L 259 -4 L 259 60.851563 L 217.625 46.019531 Z M 219.703125 48.519531 "/>
<path style="fill:none;stroke-width:1;stroke-linecap:round;stroke-linejoin:round;stroke:rgb(70.196078%,77.647059%,83.137255%);stroke-opacity:1;stroke-miterlimit:10;" d="M 219.703125 48.519531 L 259 62.832031 L 259 185.292969 L 254.703125 191.71875 L 259 186.824219 L 259 259 L 259 -4 L 259 60.851563 L 217.625 46.019531 L 219.703125 48.519531 "/>
<path style=" stroke:none;fill-rule:evenodd;fill:rgb(60%,70.196078%,80%);fill-opacity:1;" d="M 109.429688 38.105469 L 134.007813 58.246094 L 142.621094 54.21875 L 140.121094 52.414063 L 132.621094 42.6875 L 123.730469 43.382813 Z M 109.429688 38.105469 "/>
<path style="fill:none;stroke-width:1;stroke-linecap:round;stroke-linejoin:round;stroke:rgb(70.196078%,77.647059%,83.137255%);stroke-opacity:1;stroke-miterlimit:10;" d="M 109.429688 38.105469 L 134.007813 58.246094 L 142.621094 54.21875 L 140.121094 52.414063 L 132.621094 42.6875 L 123.730469 43.382813 L 109.429688 38.105469 "/>
<path style=" stroke:none;fill-rule:evenodd;fill:rgb(60%,70.196078%,80%);fill-opacity:1;" d="M -4 95.613281 L 16.742188 111.75 L 12.746094 118.25 L 12.117188 121.5 L 14.84375 124.6875 L 21.871094 108.75 L -1.882813 92.25 L -4 90.03125 Z M -4 95.613281 "/>
<path style="fill:none;stroke-width:1;stroke-linecap:round;stroke-linejoin:round;stroke:rgb(70.196078%,77.647059%,83.137255%);stroke-opacity:1;stroke-miterlimit:10;" d="M -4 95.613281 L 16.742188 111.75 L 12.746094 118.25 L 12.117188 121.5 L 14.84375 124.6875 L 21.871094 108.75 L -1.882813 92.25 L -4 90.03125 L -4 95.613281 "/>
<path style=" stroke:none;fill-rule:evenodd;fill:rgb(60%,70.196078%,80%);fill-opacity:1;" d="M 174.261719 257.242188 L 177.433594 259 L 259 259 L 211.09375 259 L 201.890625 252.445313 L 192.488281 248.046875 L 191.15625 241.691406 L 194.40625 236.691406 L 193.019531 235.855469 L 189.214844 239.605469 L 183.296875 236.273438 L 180.089844 237.246094 L 173.289063 240.246094 L 169.890625 247.445313 Z M 174.261719 257.242188 "/>
<path style="fill:none;stroke-width:1;stroke-linecap:round;stroke-linejoin:round;stroke:rgb(70.196078%,77.647059%,83.137255%);stroke-opacity:1;stroke-miterlimit:10;" d="M 174.261719 257.242188 L 177.433594 259 L 259 259 L 211.09375 259 L 201.890625 252.445313 L 192.488281 248.046875 L 191.15625 241.691406 L 194.40625 236.691406 L 193.019531 235.855469 L 189.214844 239.605469 L 183.296875 236.273438 L 180.089844 237.246094 L 173.289063 240.246094 L 169.890625 247.445313 L 174.261719 257.242188 "/>
<path style="fill:none;stroke-width:1;stroke-linecap:round;stroke-linejoin:round;stroke:rgb(100%,100%,100%);stroke-opacity:1;stroke-dasharray:2,3;stroke-miterlimit:10;" d="M 83.667969 -2 L 76.175781 8.710938 L 74.929688 12.277344 L 70.550781 20.960938 L 66.492188 29.089844 L 59.925781 42.402344 L 54.992188 52.714844 L 48.800781 57.027344 "/>
<path style="fill:none;stroke-width:1;stroke-linecap:round;stroke-linejoin:round;stroke:rgb(100%,100%,100%);stroke-opacity:1;stroke-dasharray:2,3;stroke-miterlimit:10;" d="M 26.988281 106.136719 L 27.398438 109.015625 L 25.238281 114.679688 L 21.738281 120.648438 L 17.414063 127.546875 L 12.472656 134.03125 L 11.523438 136.628906 "/>
<path style="fill:none;stroke-width:1;stroke-linecap:round;stroke-linejoin:round;stroke:rgb(100%,100%,100%);stroke-opacity:1;stroke-dasharray:2,3;stroke-miterlimit:10;" d="M 221.371094 235.128906 L 257 176.039063 "/>
<path style="fill:none;stroke-width:8;stroke-linecap:round;stroke-linejoin:round;stroke:rgb(75.686275%,70.980392%,61.568627%);stroke-opacity:1;stroke-miterlimit:10;" d="M 108.921875 157.027344 L 111.722656 153.226563 "/>
<path style="fill:none;stroke-width:8;stroke-linecap:round;stroke-linejoin:round;stroke:rgb(75.686275%,70.980392%,61.568627%);stroke-opacity:1;stroke-miterlimit:10;" d="M 35.167969 147.148438 L 33.0625 151.386719 L 32.59375 152.3125 "/>
<path style="fill:none;stroke-width:8;stroke-linecap:round;stroke-linejoin:round;stroke:rgb(75.686275%,70.980392%,61.568627%);stroke-opacity:1;stroke-miterlimit:10;" d="M 24.71875 175.6875 L 20.71875 172.5625 L 16.46875 169.8125 "/>
<path style="fill:none;stroke-width:8;stroke-linecap:round;stroke-linejoin:round;stroke:rgb(75.686275%,70.980392%,61.568627%);stroke-opacity:1;stroke-miterlimit:10;" d="M 27.484375 150.269531 L 32.59375 152.3125 L 37.257813 154.613281 "/>
<path style="fill:none;stroke-width:8;stroke-linecap:round;stroke-linejoin:round;stroke:rgb(75.686275%,70.980392%,61.568627%);stroke-opacity:1;stroke-miterlimit:10;" d="M 111.722656 153.226563 L 116 151.496094 L 117.929688 148.71875 L 120 145.746094 L 120.625 140.496094 "/>
<path style="fill:none;stroke-width:8;stroke-linecap:round;stroke-linejoin:round;stroke:rgb(75.686275%,70.980392%,61.568627%);stroke-opacity:1;stroke-miterlimit:10;" d="M 120.625 140.496094 L 115.75 142.746094 L 113.644531 145.652344 L 111.5 148.621094 L 111.722656 153.226563 "/>
<path style="fill:none;stroke-width:8;stroke-linecap:round;stroke-linejoin:round;stroke:rgb(75.686275%,70.980392%,61.568627%);stroke-opacity:1;stroke-miterlimit:10;" d="M 32.59375 152.3125 L 20.71875 172.5625 "/>
<path style="fill:none;stroke-width:8;stroke-linecap:round;stroke-linejoin:round;stroke:rgb(75.686275%,70.980392%,61.568627%);stroke-opacity:1;stroke-miterlimit:10;" d="M 120.625 140.496094 L 148.921875 101.441406 "/>
<path style="fill:none;stroke-width:8;stroke-linecap:round;stroke-linejoin:round;stroke:rgb(75.686275%,70.980392%,61.568627%);stroke-opacity:1;stroke-miterlimit:10;" d="M 27.484375 150.269531 L 22.59375 148.3125 L 13.09375 164.8125 L 12.84375 167.0625 L 16.46875 169.8125 L 27.484375 150.269531 "/>
<path style="fill:none;stroke-width:8;stroke-linecap:round;stroke-linejoin:round;stroke:rgb(75.686275%,70.980392%,61.568627%);stroke-opacity:1;stroke-miterlimit:10;" d="M 41.96875 156.9375 L 29.46875 178.8125 L 24.71875 175.6875 L 37.257813 154.613281 L 41.96875 156.9375 "/>
<path style="fill:none;stroke-width:8;stroke-linecap:round;stroke-linejoin:round;stroke:rgb(75.686275%,70.980392%,61.568627%);stroke-opacity:1;stroke-miterlimit:10;" d="M 123.121094 250.871094 L 135.847656 250.621094 L 146.871094 247.371094 L 160.367188 250.875 L 173.730469 264 "/>
<path style="fill:none;stroke-width:8;stroke-linecap:round;stroke-linejoin:round;stroke:rgb(75.686275%,70.980392%,61.568627%);stroke-opacity:1;stroke-miterlimit:10;" d="M 53.34375 155.652344 L 51.246094 163.621094 L 48.136719 167.8125 L 32.996094 189.121094 L 26.496094 182.121094 L 9.996094 171.121094 L 7.746094 166.871094 L 9.496094 161.871094 L 17.996094 144.375 L -9 132.753906 "/>
<path style="fill:none;stroke-width:8;stroke-linecap:round;stroke-linejoin:round;stroke:rgb(75.686275%,70.980392%,61.568627%);stroke-opacity:1;stroke-miterlimit:10;" d="M 117.929688 148.71875 L 172.5 189.496094 L 182.375 174.871094 L 175.75 169.871094 L 199.625 136.242188 L 174.125 117.371094 L 155.375 105.117188 L 148.921875 101.441406 L 135.875 93.746094 L 115.375 83.246094 L 103.125 77.742188 L 73.75 115.996094 L 113.644531 145.652344 "/>
<path style="fill:none;stroke-width:8;stroke-linecap:round;stroke-linejoin:round;stroke:rgb(75.686275%,70.980392%,61.568627%);stroke-opacity:1;stroke-miterlimit:10;" d="M -9 127.746094 L 11.523438 136.628906 L 35.167969 147.148438 L 49.722656 153.628906 L 53.34375 155.652344 L 71.621094 165.875 L 84.105469 169.28125 L 85.371094 169.625 L 90.117188 170.375 L 106.121094 180.875 L 111.371094 181.125 L 118.59375 178.1875 L 126.367188 177.375 L 132.371094 179.375 L 148.871094 191.625 L 151.371094 194.875 L 155.371094 201.875 L 157.617188 209.625 L 160.367188 250.875 L 159.941406 264 "/>
<path style="fill:none;stroke-width:8;stroke-linecap:round;stroke-linejoin:round;stroke:rgb(75.686275%,70.980392%,61.568627%);stroke-opacity:1;stroke-miterlimit:10;" d="M 197.285156 7.90625 L 215.226563 22.652344 "/>
<path style="fill:none;stroke-width:8;stroke-linecap:round;stroke-linejoin:round;stroke:rgb(75.686275%,70.980392%,61.568627%);stroke-opacity:1;stroke-miterlimit:10;" d="M 241.949219 -9 L 253.746094 -3.179688 L 264 2.21875 "/>
<path style="fill:none;stroke-width:8;stroke-linecap:round;stroke-linejoin:round;stroke:rgb(75.686275%,70.980392%,61.568627%);stroke-opacity:1;stroke-miterlimit:10;" d="M 45.398438 -9 L 37.644531 12.238281 L 41.675781 33.15625 L 46.128906 50.109375 "/>
<path style="fill:none;stroke-width:8;stroke-linecap:round;stroke-linejoin:round;stroke:rgb(75.686275%,70.980392%,61.568627%);stroke-opacity:1;stroke-miterlimit:10;" d="M 256.617188 -9 L 253.746094 -3.179688 L 235.265625 33.921875 "/>
<path style="fill:none;stroke-width:8;stroke-linecap:round;stroke-linejoin:round;stroke:rgb(75.686275%,70.980392%,61.568627%);stroke-opacity:1;stroke-miterlimit:10;" d="M 205.710938 -9 L 197.285156 7.90625 "/>
<path style="fill:none;stroke-width:8;stroke-linecap:round;stroke-linejoin:round;stroke:rgb(75.686275%,70.980392%,61.568627%);stroke-opacity:1;stroke-miterlimit:10;" d="M 231.113281 -9 L 215.226563 22.652344 "/>
<path style="fill:none;stroke-width:11;stroke-linecap:round;stroke-linejoin:round;stroke:rgb(86.666667%,62.352941%,6.666667%);stroke-opacity:1;stroke-miterlimit:10;" d="M 77.796875 133.703125 L 108.921875 157.027344 "/>
<path style="fill:none;stroke-width:11;stroke-linecap:round;stroke-linejoin:round;stroke:rgb(86.666667%,62.352941%,6.666667%);stroke-opacity:1;stroke-miterlimit:10;" d="M 144.417969 177.679688 L 132.324219 168.636719 L 111.722656 153.226563 "/>
<path style="fill:none;stroke-width:11;stroke-linecap:round;stroke-linejoin:round;stroke:rgb(86.666667%,62.352941%,6.666667%);stroke-opacity:1;stroke-miterlimit:10;" d="M -12 65.316406 L -1.492188 73.285156 L 34.523438 100.226563 L 75.90625 132.289063 L 77.796875 133.703125 "/>
<path style="fill:none;stroke-width:11;stroke-linecap:round;stroke-linejoin:round;stroke:rgb(86.666667%,62.352941%,6.666667%);stroke-opacity:1;stroke-miterlimit:10;" d="M 111.722656 153.226563 L 36.921875 97.226563 L -12 60.445313 "/>
<path style="fill:none;stroke-width:11;stroke-linecap:round;stroke-linejoin:round;stroke:rgb(86.666667%,62.352941%,6.666667%);stroke-opacity:1;stroke-miterlimit:10;" d="M 264 267 L 221.371094 235.128906 L 158.523438 188.226563 L 144.417969 177.679688 "/>
<path style="fill:none;stroke-width:11;stroke-linecap:round;stroke-linejoin:round;stroke:rgb(86.666667%,62.352941%,6.666667%);stroke-opacity:1;stroke-miterlimit:10;" d="M 108.921875 157.027344 L 157.324219 192.027344 L 219.773438 238.726563 L 257.558594 267 "/>
<path style="fill:none;stroke-width:6;stroke-linecap:round;stroke-linejoin:round;stroke:rgb(100%,100%,100%);stroke-opacity:1;stroke-miterlimit:10;" d="M 108.921875 157.027344 L 111.722656 153.226563 "/>
<path style="fill:none;stroke-width:6;stroke-linecap:round;stroke-linejoin:round;stroke:rgb(100%,100%,100%);stroke-opacity:1;stroke-miterlimit:10;" d="M 35.167969 147.148438 L 33.0625 151.386719 L 32.59375 152.3125 "/>
<path style="fill:none;stroke-width:6;stroke-linecap:round;stroke-linejoin:round;stroke:rgb(100%,100%,100%);stroke-opacity:1;stroke-miterlimit:10;" d="M 24.71875 175.6875 L 20.71875 172.5625 L 16.46875 169.8125 "/>
<path style="fill:none;stroke-width:6;stroke-linecap:round;stroke-linejoin:round;stroke:rgb(100%,100%,100%);stroke-opacity:1;stroke-miterlimit:10;" d="M 27.484375 150.269531 L 32.59375 152.3125 L 37.257813 154.613281 "/>
<path style="fill:none;stroke-width:6;stroke-linecap:round;stroke-linejoin:round;stroke:rgb(100%,100%,100%);stroke-opacity:1;stroke-miterlimit:10;" d="M 111.722656 153.226563 L 116 151.496094 L 117.929688 148.71875 L 120 145.746094 L 120.625 140.496094 "/>
<path style="fill:none;stroke-width:6;stroke-linecap:round;stroke-linejoin:round;stroke:rgb(100%,100%,100%);stroke-opacity:1;stroke-miterlimit:10;" d="M 120.625 140.496094 L 115.75 142.746094 L 113.644531 145.652344 L 111.5 148.621094 L 111.722656 153.226563 "/>
<path style="fill:none;stroke-width:6;stroke-linecap:round;stroke-linejoin:round;stroke:rgb(100%,100%,100%);stroke-opacity:1;stroke-miterlimit:10;" d="M 32.59375 152.3125 L 20.71875 172.5625 "/>
<path style="fill:none;stroke-width:6;stroke-linecap:round;stroke-linejoin:round;stroke:rgb(100%,100%,100%);stroke-opacity:1;stroke-miterlimit:10;" d="M 120.625 140.496094 L 148.921875 101.441406 "/>
<path style="fill:none;stroke-width:6;stroke-linecap:round;stroke-linejoin:round;stroke:rgb(100%,100%,100%);stroke-opacity:1;stroke-miterlimit:10;" d="M 27.484375 150.269531 L 22.59375 148.3125 L 13.09375 164.8125 L 12.84375 167.0625 L 16.46875 169.8125 L 27.484375 150.269531 "/>
<path style="fill:none;stroke-width:6;stroke-linecap:round;stroke-linejoin:round;stroke:rgb(100%,100%,100%);stroke-opacity:1;stroke-miterlimit:10;" d="M 41.96875 156.9375 L 29.46875 178.8125 L 24.71875 175.6875 L 37.257813 154.613281 L 41.96875 156.9375 "/>
<path style="fill:none;stroke-width:6;stroke-linecap:round;stroke-linejoin:round;stroke:rgb(100%,100%,100%);stroke-opacity:1;stroke-miterlimit:10;" d="M 123.121094 250.871094 L 135.847656 250.621094 L 146.871094 247.371094 L 160.367188 250.875 L 173.730469 264 "/>
<path style="fill:none;stroke-width:6;stroke-linecap:round;stroke-linejoin:round;stroke:rgb(100%,100%,100%);stroke-opacity:1;stroke-miterlimit:10;" d="M 53.34375 155.652344 L 51.246094 163.621094 L 48.136719 167.8125 L 32.996094 189.121094 L 26.496094 182.121094 L 9.996094 171.121094 L 7.746094 166.871094 L 9.496094 161.871094 L 17.996094 144.375 L -9 132.753906 "/>
<path style="fill:none;stroke-width:6;stroke-linecap:round;stroke-linejoin:round;stroke:rgb(100%,100%,100%);stroke-opacity:1;stroke-miterlimit:10;" d="M 117.929688 148.71875 L 172.5 189.496094 L 182.375 174.871094 L 175.75 169.871094 L 199.625 136.242188 L 174.125 117.371094 L 155.375 105.117188 L 148.921875 101.441406 L 135.875 93.746094 L 115.375 83.246094 L 103.125 77.742188 L 73.75 115.996094 L 113.644531 145.652344 "/>
<path style="fill:none;stroke-width:6;stroke-linecap:round;stroke-linejoin:round;stroke:rgb(100%,100%,100%);stroke-opacity:1;stroke-miterlimit:10;" d="M -9 127.746094 L 11.523438 136.628906 L 35.167969 147.148438 L 49.722656 153.628906 L 53.34375 155.652344 L 71.621094 165.875 L 84.105469 169.28125 L 85.371094 169.625 L 90.117188 170.375 L 106.121094 180.875 L 111.371094 181.125 L 118.59375 178.1875 L 126.367188 177.375 L 132.371094 179.375 L 148.871094 191.625 L 151.371094 194.875 L 155.371094 201.875 L 157.617188 209.625 L 160.367188 250.875 L 159.941406 264 "/>
<path style="fill:none;stroke-width:6;stroke-linecap:round;stroke-linejoin:round;stroke:rgb(100%,100%,100%);stroke-opacity:1;stroke-miterlimit:10;" d="M 197.285156 7.90625 L 215.226563 22.652344 "/>
<path style="fill:none;stroke-width:6;stroke-linecap:round;stroke-linejoin:round;stroke:rgb(100%,100%,100%);stroke-opacity:1;stroke-miterlimit:10;" d="M 241.949219 -9 L 253.746094 -3.179688 L 264 2.21875 "/>
<path style="fill:none;stroke-width:6;stroke-linecap:round;stroke-linejoin:round;stroke:rgb(100%,100%,100%);stroke-opacity:1;stroke-miterlimit:10;" d="M 45.398438 -9 L 37.644531 12.238281 L 41.675781 33.15625 L 46.128906 50.109375 "/>
<path style="fill:none;stroke-width:6;stroke-linecap:round;stroke-linejoin:round;stroke:rgb(100%,100%,100%);stroke-opacity:1;stroke-miterlimit:10;" d="M 256.617188 -9 L 253.746094 -3.179688 L 235.265625 33.921875 "/>
<path style="fill:none;stroke-width:6;stroke-linecap:round;stroke-linejoin:round;stroke:rgb(100%,100%,100%);stroke-opacity:1;stroke-miterlimit:10;" d="M 205.710938 -9 L 197.285156 7.90625 "/>
<path style="fill:none;stroke-width:6;stroke-linecap:round;stroke-linejoin:round;stroke:rgb(100%,100%,100%);stroke-opacity:1;stroke-miterlimit:10;" d="M 231.113281 -9 L 215.226563 22.652344 "/>
<path style="fill:none;stroke-width:9;stroke-linecap:round;stroke-linejoin:round;stroke:rgb(100%,76.470588%,27.058824%);stroke-opacity:1;stroke-miterlimit:10;" d="M 77.796875 133.703125 L 108.921875 157.027344 "/>
<path style="fill:none;stroke-width:9;stroke-linecap:round;stroke-linejoin:round;stroke:rgb(100%,76.470588%,27.058824%);stroke-opacity:1;stroke-miterlimit:10;" d="M 144.417969 177.679688 L 132.324219 168.636719 L 111.722656 153.226563 "/>
<path style="fill:none;stroke-width:9;stroke-linecap:round;stroke-linejoin:round;stroke:rgb(100%,76.470588%,27.058824%);stroke-opacity:1;stroke-miterlimit:10;" d="M -12 65.316406 L -1.492188 73.285156 L 34.523438 100.226563 L 75.90625 132.289063 L 77.796875 133.703125 "/>
<path style="fill:none;stroke-width:9;stroke-linecap:round;stroke-linejoin:round;stroke:rgb(100%,76.470588%,27.058824%);stroke-opacity:1;stroke-miterlimit:10;" d="M 111.722656 153.226563 L 36.921875 97.226563 L -12 60.445313 "/>
<path style="fill:none;stroke-width:9;stroke-linecap:round;stroke-linejoin:round;stroke:rgb(100%,76.470588%,27.058824%);stroke-opacity:1;stroke-miterlimit:10;" d="M 264 267 L 221.371094 235.128906 L 158.523438 188.226563 L 144.417969 177.679688 "/>
<path style="fill:none;stroke-width:9;stroke-linecap:round;stroke-linejoin:round;stroke:rgb(100%,76.470588%,27.058824%);stroke-opacity:1;stroke-miterlimit:10;" d="M 108.921875 157.027344 L 157.324219 192.027344 L 219.773438 238.726563 L 257.558594 267 "/>
<path style="fill:none;stroke-width:4;stroke-linecap:round;stroke-linejoin:round;stroke:rgb(70.588235%,70.588235%,70.588235%);stroke-opacity:1;stroke-miterlimit:10;" d="M -5 244.964844 L 20.113281 260 "/>
<path style="fill:none;stroke-width:4;stroke-linecap:round;stroke-linejoin:round;stroke:rgb(70.588235%,70.588235%,70.588235%);stroke-opacity:1;stroke-miterlimit:10;" d="M 119.460938 229.0625 L 91.230469 244.179688 L 63.269531 260 "/>
<path style="fill:none;stroke-width:4;stroke-linecap:round;stroke-linejoin:round;stroke:rgb(70.588235%,70.588235%,70.588235%);stroke-opacity:1;stroke-miterlimit:10;" d="M 91.230469 244.179688 L 113.15625 260 "/>
<path style="fill:none;stroke-width:4;stroke-linecap:round;stroke-linejoin:round;stroke:rgb(70.588235%,70.588235%,70.588235%);stroke-opacity:1;stroke-miterlimit:10;" d="M -5 175.960938 L 23.816406 196.386719 "/>
<path style="fill:none;stroke-width:4;stroke-linecap:round;stroke-linejoin:round;stroke:rgb(70.588235%,70.588235%,70.588235%);stroke-opacity:1;stroke-miterlimit:10;" d="M 23.816406 196.386719 L 91.230469 244.179688 "/>
</g>
</svg>

