<?xml version="1.0" encoding="UTF-8"?>
<svg xmlns="http://www.w3.org/2000/svg" xmlns:xlink="http://www.w3.org/1999/xlink" width="256pt" height="256pt" viewBox="0 0 256 256" version="1.1">
<g id="surface2">
<rect x="0" y="0" width="256" height="256" style="fill:rgb(60%,70.196078%,80%);fill-opacity:1;stroke:none;"/>
<path style=" stroke:none;fill-rule:evenodd;fill:rgb(94.901961%,93.72549%,91.372549%);fill-opacity:1;" d="M -4 259 L 227.324219 259 L 227.71875 258.25 L 233.226563 248.136719 L 259 248.136719 L 259 259 Z M -4 259 "/>
<path style=" stroke:none;fill-rule:evenodd;fill:rgb(94.901961%,93.72549%,91.372549%);fill-opacity:1;" d="M 227.324219 259 L 227.71875 258.25 L 237.664063 239.992188 L 240.457031 234.609375 L 252.144531 212.617188 L 255.789063 205.929688 L 259 198.757813 L 259 -4 L 259 259 Z M 227.324219 259 "/>
<path style=" stroke:none;fill-rule:evenodd;fill:rgb(94.901961%,93.72549%,91.372549%);fill-opacity:1;" d="M 259 -4 L -4 -4 L 18.195313 -4 L 18.398438 -0.578125 L 17.363281 1.425781 L 11.503906 12.753906 L 8.476563 18.472656 L 6.648438 18.246094 L 5.253906 19.527344 L 2.441406 25.859375 L 1.371094 31.910156 L -2.390625 38.84375 L -4 39.832031 L -4 -4 Z M 259 -4 "/>
<path style=" stroke:none;fill-rule:evenodd;fill:rgb(70.980392%,82.352941%,61.176471%);fill-opacity:1;" d="M 260 260 L 260 217.414063 L 240.402344 234.679688 L 227.359375 260 Z M 260 260 "/>
<path style=" stroke:none;fill-rule:evenodd;fill:rgb(60%,70.196078%,80%);fill-opacity:1;" d="M -4 259 L 227.324219 259 L 237.664063 239.992188 L 240.457031 234.609375 L 252.144531 212.617188 L 255.792969 205.929688 L 259 198.757813 L -4 71.011719 Z M -4 259 "/>
<path style="fill:none;stroke-width:1;stroke-linecap:round;stroke-linejoin:round;stroke:rgb(70.196078%,77.647059%,83.137255%);stroke-opacity:1;stroke-miterlimit:10;" d="M -4 259 L 227.324219 259 L 237.664063 239.992188 L 240.457031 234.609375 L 252.144531 212.617188 L 255.792969 205.929688 L 259 198.757813 L -4 71.011719 L -4 259 "/>
<path style=" stroke:none;fill-rule:evenodd;fill:rgb(60%,70.196078%,80%);fill-opacity:1;" d="M -4 71.011719 L 259 197.839844 L 259 -4 L -4 -4 L 18.195313 -4 L 18.402344 -0.578125 L 17.363281 1.425781 L 11.503906 12.753906 L 8.480469 18.472656 L 6.648438 18.246094 L 5.253906 19.527344 L 2.445313 25.859375 L 1.371094 31.910156 L -2.390625 38.84375 L -4 39.832031 Z M -4 71.011719 "/>
<path style="fill:none;stroke-width:1;stroke-linecap:round;stroke-linejoin:round;stroke:rgb(70.196078%,77.647059%,83.137255%);stroke-opacity:1;stroke-miterlimit:10;" d="M -4 71.011719 L 259 197.839844 L 259 -4 L -4 -4 L 18.195313 -4 L 18.402344 -0.578125 L 17.363281 1.425781 L 11.503906 12.753906 L 8.480469 18.472656 L 6.648438 18.246094 L 5.253906 19.527344 L 2.445313 25.859375 L 1.371094 31.910156 L -2.390625 38.84375 L -4 39.832031 L -4 71.011719 "/>
<path style="fill:none;stroke-width:6;stroke-linecap:round;stroke-linejoin:round;stroke:rgb(60%,70.196078%,80%);stroke-opacity:1;stroke-miterlimit:10;" d="M 197.691406 -7 L 45.34375 262 "/>
<path style="fill:none;stroke-width:1;stroke-linecap:round;stroke-linejoin:round;stroke:rgb(100%,100%,100%);stroke-opacity:1;stroke-dasharray:2,3;stroke-miterlimit:10;" d="M 257 242.773438 L 255.40625 245.691406 L 252.160156 252.011719 L 250.847656 254.890625 L 250.007813 257 "/>
<path style="fill:none;stroke-width:11;stroke-linecap:round;stroke-linejoin:round;stroke:rgb(72.941176%,43.137255%,15.294118%);stroke-opacity:1;stroke-miterlimit:10;" d="M 241.019531 267 L 246.09375 250.382813 L 253.695313 230.984375 L 262.09375 210.984375 L 267 200.433594 "/>
<path style="fill:none;stroke-width:11;stroke-linecap:round;stroke-linejoin:round;stroke:rgb(72.941176%,43.137255%,15.294118%);stroke-opacity:1;stroke-miterlimit:10;" d="M 267 190.386719 L 260.09375 205.183594 L 251.09375 225.582031 L 246.894531 235.78125 L 241.894531 249.984375 L 236.382813 266.992188 L 236.382813 267 "/>
<path style="fill:none;stroke-width:9;stroke-linecap:round;stroke-linejoin:round;stroke:rgb(99.215686%,57.254902%,22.745098%);stroke-opacity:1;stroke-miterlimit:10;" d="M 241.019531 267 L 246.09375 250.382813 L 253.695313 230.984375 L 262.09375 210.984375 L 267 200.433594 "/>
<path style="fill:none;stroke-width:9;stroke-linecap:round;stroke-linejoin:round;stroke:rgb(99.215686%,57.254902%,22.745098%);stroke-opacity:1;stroke-miterlimit:10;" d="M 267 190.386719 L 260.09375 205.183594 L 251.09375 225.582031 L 246.894531 235.78125 L 241.894531 249.984375 L 236.382813 266.992188 L 236.382813 267 "/>
<path style="fill:none;stroke-width:3;stroke-linecap:round;stroke-linejoin:round;stroke:rgb(100%,100%,100%);stroke-opacity:1;stroke-miterlimit:10;" d="M 98.738281 158.300781 L 99.300781 157.300781 L 102.675781 159.222656 L 104.753906 155.566406 L 101.378906 153.644531 L 101.941406 152.644531 L 110.191406 157.316406 L 109.628906 158.316406 L 105.707031 156.097656 L 103.628906 159.753906 L 107.550781 161.972656 L 106.988281 162.972656 Z M 108.808594 154.050781 L 105.074219 151.941406 L 105.589844 151.035156 L 109.308594 153.128906 C 109.882813 153.464844 110.371094 153.613281 110.777344 153.582031 C 111.191406 153.542969 111.515625 153.316406 111.746094 152.910156 C 112.027344 152.410156 112.074219 151.921875 111.886719 151.441406 C 111.699219 150.953125 111.300781 150.535156 110.699219 150.191406 L 107.183594 148.207031 L 107.714844 147.285156 L 113.902344 150.785156 L 113.371094 151.707031 L 112.417969 151.175781 C 112.675781 151.605469 112.8125 152.015625 112.824219 152.410156 C 112.832031 152.808594 112.730469 153.203125 112.511719 153.597656 C 112.15625 154.234375 111.660156 154.59375 111.027344 154.675781 C 110.402344 154.75 109.664063 154.542969 108.808594 154.050781 Z M 106.230469 149.550781 Z M 111.796875 142.265625 L 108.453125 140.375 L 108.96875 139.46875 L 117.5625 144.328125 L 117.046875 145.234375 L 116.125 144.703125 C 116.375 145.101563 116.503906 145.5 116.515625 145.90625 C 116.523438 146.304688 116.414063 146.703125 116.1875 147.109375 C 115.800781 147.789063 115.191406 148.167969 114.359375 148.25 C 113.527344 148.335938 112.621094 148.101563 111.640625 147.546875 C 110.671875 146.996094 110.011719 146.339844 109.65625 145.578125 C 109.304688 144.820313 109.320313 144.101563 109.703125 143.421875 C 109.933594 143.015625 110.21875 142.71875 110.5625 142.53125 C 110.898438 142.335938 111.308594 142.246094 111.796875 142.265625 Z M 112.1875 146.59375 C 112.9375 147.023438 113.605469 147.21875 114.1875 147.1875 C 114.769531 147.148438 115.195313 146.886719 115.46875 146.40625 C 115.738281 145.917969 115.738281 145.417969 115.46875 144.90625 C 115.207031 144.386719 114.703125 143.914063 113.953125 143.484375 C 113.203125 143.058594 112.539063 142.867188 111.953125 142.90625 C 111.371094 142.9375 110.945313 143.199219 110.671875 143.6875 C 110.402344 144.167969 110.402344 144.667969 110.671875 145.1875 C 110.933594 145.699219 111.4375 146.167969 112.1875 146.59375 Z M 114.625 135.480469 L 115.59375 136.027344 C 115.292969 136.207031 115.027344 136.414063 114.796875 136.652344 C 114.570313 136.882813 114.371094 137.148438 114.203125 137.449219 C 113.945313 137.910156 113.828125 138.300781 113.859375 138.621094 C 113.882813 138.933594 114.046875 139.179688 114.359375 139.355469 C 114.589844 139.492188 114.820313 139.511719 115.046875 139.417969 C 115.265625 139.324219 115.585938 139.070313 116 138.652344 L 116.25 138.402344 C 116.773438 137.832031 117.25 137.492188 117.6875 137.386719 C 118.125 137.273438 118.585938 137.355469 119.078125 137.636719 C 119.660156 137.960938 120.003906 138.425781 120.109375 139.027344 C 120.210938 139.621094 120.0625 140.277344 119.65625 140.996094 C 119.488281 141.289063 119.28125 141.582031 119.03125 141.871094 C 118.78125 142.152344 118.488281 142.433594 118.15625 142.714844 L 117.109375 142.121094 C 117.496094 141.902344 117.828125 141.660156 118.109375 141.386719 C 118.398438 141.105469 118.640625 140.804688 118.828125 140.480469 C 119.066406 140.054688 119.164063 139.679688 119.125 139.355469 C 119.09375 139.035156 118.929688 138.789063 118.640625 138.621094 C 118.359375 138.464844 118.097656 138.429688 117.859375 138.511719 C 117.621094 138.597656 117.273438 138.878906 116.8125 139.355469 L 116.546875 139.621094 C 116.089844 140.121094 115.652344 140.425781 115.234375 140.527344 C 114.820313 140.632813 114.371094 140.542969 113.890625 140.261719 C 113.308594 139.941406 112.96875 139.496094 112.875 138.933594 C 112.773438 138.371094 112.914063 137.753906 113.296875 137.074219 C 113.484375 136.742188 113.695313 136.441406 113.921875 136.167969 C 114.140625 135.898438 114.375 135.667969 114.625 135.480469 Z M 117.363281 131.878906 C 117.082031 132.371094 117.078125 132.878906 117.347656 133.410156 C 117.609375 133.941406 118.109375 134.417969 118.847656 134.832031 C 119.597656 135.261719 120.265625 135.449219 120.847656 135.394531 C 121.429688 135.34375 121.863281 135.074219 122.144531 134.582031 C 122.414063 134.09375 122.417969 133.589844 122.160156 133.066406 C 121.898438 132.535156 121.398438 132.0625 120.660156 131.644531 C 119.933594 131.230469 119.269531 131.042969 118.675781 131.082031 C 118.074219 131.125 117.636719 131.390625 117.363281 131.878906 Z M 116.519531 131.394531 C 116.96875 130.59375 117.609375 130.128906 118.441406 130.003906 C 119.265625 129.878906 120.183594 130.105469 121.191406 130.675781 C 122.210938 131.25 122.878906 131.925781 123.191406 132.707031 C 123.511719 133.488281 123.449219 134.28125 123.003906 135.082031 C 122.542969 135.875 121.902344 136.332031 121.082031 136.457031 C 120.25 136.582031 119.324219 136.359375 118.300781 135.785156 C 117.292969 135.214844 116.628906 134.535156 116.316406 133.753906 C 115.996094 132.972656 116.0625 132.1875 116.519531 131.394531 Z M 124.046875 124.152344 L 127.78125 126.277344 L 127.265625 127.199219 L 123.5625 125.105469 C 122.980469 124.773438 122.484375 124.628906 122.078125 124.667969 C 121.664063 124.710938 121.339844 124.933594 121.109375 125.339844 C 120.828125 125.832031 120.78125 126.320313 120.96875 126.808594 C 121.15625 127.289063 121.554688 127.699219 122.15625 128.042969 L 125.65625 130.027344 L 125.140625 130.949219 L 118.953125 127.449219 L 119.46875 126.527344 L 120.4375 127.074219 C 120.1875 126.648438 120.058594 126.230469 120.046875 125.824219 C 120.027344 125.417969 120.125 125.023438 120.34375 124.636719 C 120.710938 124.003906 121.203125 123.644531 121.828125 123.558594 C 122.453125 123.476563 123.195313 123.675781 124.046875 124.152344 Z M 128.800781 115.476563 C 129 115.300781 129.292969 115.1875 129.675781 115.132813 C 130.050781 115.082031 130.527344 115.082031 131.113281 115.132813 L 133.941406 115.398438 L 133.316406 116.476563 L 130.660156 116.226563 C 129.972656 116.15625 129.480469 116.1875 129.175781 116.320313 C 128.863281 116.445313 128.59375 116.710938 128.363281 117.117188 L 127.738281 118.210938 L 131.222656 120.179688 L 130.660156 121.179688 L 122.410156 116.507813 L 123.691406 114.242188 C 124.183594 113.390625 124.746094 112.867188 125.378906 112.679688 C 126.003906 112.484375 126.714844 112.609375 127.503906 113.054688 C 128.027344 113.347656 128.394531 113.703125 128.613281 114.117188 C 128.832031 114.535156 128.894531 114.988281 128.800781 115.476563 Z M 123.894531 116.023438 L 126.816406 117.679688 L 127.535156 116.414063 C 127.816406 115.925781 127.902344 115.488281 127.785156 115.101563 C 127.671875 114.71875 127.375 114.390625 126.894531 114.117188 C 126.417969 113.847656 125.988281 113.765625 125.613281 113.867188 C 125.230469 113.972656 124.894531 114.269531 124.613281 114.757813 Z M 128.460938 110.640625 L 128.976563 109.734375 L 135.164063 113.234375 L 134.648438 114.140625 Z M 126.054688 109.28125 L 126.570313 108.375 L 127.867188 109.09375 L 127.351563 110 Z M 129.6875 108.484375 L 130.234375 107.515625 L 136.40625 108.71875 L 132.203125 104.03125 L 132.75 103.0625 L 137.765625 108.65625 L 137.0625 109.890625 Z M 139.003906 98.648438 L 139.488281 98.929688 L 137.113281 103.132813 C 137.84375 103.488281 138.488281 103.597656 139.050781 103.460938 C 139.601563 103.328125 140.050781 102.957031 140.394531 102.351563 C 140.589844 102 140.730469 101.632813 140.816406 101.257813 C 140.910156 100.875 140.957031 100.46875 140.957031 100.039063 L 141.925781 100.585938 C 141.894531 100.992188 141.816406 101.394531 141.691406 101.789063 C 141.574219 102.175781 141.417969 102.546875 141.222656 102.898438 C 140.722656 103.785156 140.035156 104.328125 139.160156 104.523438 C 138.296875 104.710938 137.375 104.53125 136.394531 103.976563 C 135.386719 103.40625 134.722656 102.703125 134.410156 101.867188 C 134.097656 101.035156 134.175781 100.203125 134.644531 99.367188 C 135.074219 98.617188 135.675781 98.179688 136.457031 98.054688 C 137.230469 97.929688 138.078125 98.128906 139.003906 98.648438 Z M 138.191406 99.398438 C 137.640625 99.085938 137.121094 98.972656 136.628906 99.054688 C 136.128906 99.128906 135.753906 99.394531 135.503906 99.851563 C 135.214844 100.363281 135.144531 100.863281 135.300781 101.351563 C 135.449219 101.832031 135.796875 102.265625 136.347656 102.648438 Z M 139.804688 92.832031 C 139.679688 92.90625 139.570313 92.996094 139.476563 93.097656 C 139.375 93.191406 139.28125 93.3125 139.195313 93.457031 C 138.90625 93.980469 138.867188 94.484375 139.085938 94.972656 C 139.296875 95.464844 139.75 95.90625 140.445313 96.300781 L 143.710938 98.144531 L 143.195313 99.066406 L 137.007813 95.566406 L 137.523438 94.644531 L 138.492188 95.191406 C 138.210938 94.777344 138.070313 94.363281 138.070313 93.957031 C 138.070313 93.542969 138.195313 93.113281 138.445313 92.675781 C 138.476563 92.613281 138.519531 92.550781 138.570313 92.488281 C 138.613281 92.417969 138.675781 92.332031 138.757813 92.238281 Z M 139.804688 92.832031 "/>
<path style=" stroke:none;fill-rule:evenodd;fill:rgb(41.960784%,58.039216%,69.019608%);fill-opacity:1;" d="M 98.738281 158.300781 L 99.300781 157.300781 L 102.675781 159.222656 L 104.753906 155.566406 L 101.378906 153.644531 L 101.941406 152.644531 L 110.191406 157.316406 L 109.628906 158.316406 L 105.707031 156.097656 L 103.628906 159.753906 L 107.550781 161.972656 L 106.988281 162.972656 Z M 108.808594 154.050781 L 105.074219 151.941406 L 105.589844 151.035156 L 109.308594 153.128906 C 109.882813 153.464844 110.371094 153.613281 110.777344 153.582031 C 111.191406 153.542969 111.515625 153.316406 111.746094 152.910156 C 112.027344 152.410156 112.074219 151.921875 111.886719 151.441406 C 111.699219 150.953125 111.300781 150.535156 110.699219 150.191406 L 107.183594 148.207031 L 107.714844 147.285156 L 113.902344 150.785156 L 113.371094 151.707031 L 112.417969 151.175781 C 112.675781 151.605469 112.8125 152.015625 112.824219 152.410156 C 112.832031 152.808594 112.730469 153.203125 112.511719 153.597656 C 112.15625 154.234375 111.660156 154.59375 111.027344 154.675781 C 110.402344 154.75 109.664063 154.542969 108.808594 154.050781 Z M 106.230469 149.550781 Z M 111.796875 142.265625 L 108.453125 140.375 L 108.96875 139.46875 L 117.5625 144.328125 L 117.046875 145.234375 L 116.125 144.703125 C 116.375 145.101563 116.503906 145.5 116.515625 145.90625 C 116.523438 146.304688 116.414063 146.703125 116.1875 147.109375 C 115.800781 147.789063 115.191406 148.167969 114.359375 148.25 C 113.527344 148.335938 112.621094 148.101563 111.640625 147.546875 C 110.671875 146.996094 110.011719 146.339844 109.65625 145.578125 C 109.304688 144.820313 109.320313 144.101563 109.703125 143.421875 C 109.933594 143.015625 110.21875 142.71875 110.5625 142.53125 C 110.898438 142.335938 111.308594 142.246094 111.796875 142.265625 Z M 112.1875 146.59375 C 112.9375 147.023438 113.605469 147.21875 114.1875 147.1875 C 114.769531 147.148438 115.195313 146.886719 115.46875 146.40625 C 115.738281 145.917969 115.738281 145.417969 115.46875 144.90625 C 115.207031 144.386719 114.703125 143.914063 113.953125 143.484375 C 113.203125 143.058594 112.539063 142.867188 111.953125 142.90625 C 111.371094 142.9375 110.945313 143.199219 110.671875 143.6875 C 110.402344 144.167969 110.402344 144.667969 110.671875 145.1875 C 110.933594 145.699219 111.4375 146.167969 112.1875 146.59375 Z M 114.625 135.480469 L 115.59375 136.027344 C 115.292969 136.207031 115.027344 136.414063 114.796875 136.652344 C 114.570313 136.882813 114.371094 137.148438 114.203125 137.449219 C 113.945313 137.910156 113.828125 138.300781 113.859375 138.621094 C 113.882813 138.933594 114.046875 139.179688 114.359375 139.355469 C 114.589844 139.492188 114.820313 139.511719 115.046875 139.417969 C 115.265625 139.324219 115.585938 139.070313 116 138.652344 L 116.25 138.402344 C 116.773438 137.832031 117.25 137.492188 117.6875 137.386719 C 118.125 137.273438 118.585938 137.355469 119.078125 137.636719 C 119.660156 137.960938 120.003906 138.425781 120.109375 139.027344 C 120.210938 139.621094 120.0625 140.277344 119.65625 140.996094 C 119.488281 141.289063 119.28125 141.582031 119.03125 141.871094 C 118.78125 142.152344 118.488281 142.433594 118.15625 142.714844 L 117.109375 142.121094 C 117.496094 141.902344 117.828125 141.660156 118.109375 141.386719 C 118.398438 141.105469 118.640625 140.804688 118.828125 140.480469 C 119.066406 140.054688 119.164063 139.679688 119.125 139.355469 C 119.09375 139.035156 118.929688 138.789063 118.640625 138.621094 C 118.359375 138.464844 118.097656 138.429688 117.859375 138.511719 C 117.621094 138.597656 117.273438 138.878906 116.8125 139.355469 L 116.546875 139.621094 C 116.089844 140.121094 115.652344 140.425781 115.234375 140.527344 C 114.820313 140.632813 114.371094 140.542969 113.890625 140.261719 C 113.308594 139.941406 112.96875 139.496094 112.875 138.933594 C 112.773438 138.371094 112.914063 137.753906 113.296875 137.074219 C 113.484375 136.742188 113.695313 136.441406 113.921875 136.167969 C 114.140625 135.898438 114.375 135.667969 114.625 135.480469 Z M 117.363281 131.878906 C 117.082031 132.371094 117.078125 132.878906 117.347656 133.410156 C 117.609375 133.941406 118.109375 134.417969 118.847656 134.832031 C 119.597656 135.261719 120.265625 135.449219 120.847656 135.394531 C 121.429688 135.34375 121.863281 135.074219 122.144531 134.582031 C 122.414063 134.09375 122.417969 133.589844 122.160156 133.066406 C 121.898438 132.535156 121.398438 132.0625 120.660156 131.644531 C 119.933594 131.230469 119.269531 131.042969 118.675781 131.082031 C 118.074219 131.125 117.636719 131.390625 117.363281 131.878906 Z M 116.519531 131.394531 C 116.96875 130.59375 117.609375 130.128906 118.441406 130.003906 C 119.265625 129.878906 120.183594 130.105469 121.191406 130.675781 C 122.210938 131.25 122.878906 131.925781 123.191406 132.707031 C 123.511719 133.488281 123.449219 134.28125 123.003906 135.082031 C 122.542969 135.875 121.902344 136.332031 121.082031 136.457031 C 120.25 136.582031 119.324219 136.359375 118.300781 135.785156 C 117.292969 135.214844 116.628906 134.535156 116.316406 133.753906 C 115.996094 132.972656 116.0625 132.1875 116.519531 131.394531 Z M 124.046875 124.152344 L 127.78125 126.277344 L 127.265625 127.199219 L 123.5625 125.105469 C 122.980469 124.773438 122.484375 124.628906 122.078125 124.667969 C 121.664063 124.710938 121.339844 124.933594 121.109375 125.339844 C 120.828125 125.832031 120.78125 126.320313 120.96875 126.808594 C 121.15625 127.289063 121.554688 127.699219 122.15625 128.042969 L 125.65625 130.027344 L 125.140625 130.949219 L 118.953125 127.449219 L 119.46875 126.527344 L 120.4375 127.074219 C 120.1875 126.648438 120.058594 126.230469 120.046875 125.824219 C 120.027344 125.417969 120.125 125.023438 120.34375 124.636719 C 120.710938 124.003906 121.203125 123.644531 121.828125 123.558594 C 122.453125 123.476563 123.195313 123.675781 124.046875 124.152344 Z M 128.800781 115.476563 C 129 115.300781 129.292969 115.1875 129.675781 115.132813 C 130.050781 115.082031 130.527344 115.082031 131.113281 115.132813 L 133.941406 115.398438 L 133.316406 116.476563 L 130.660156 116.226563 C 129.972656 116.15625 129.480469 116.1875 129.175781 116.320313 C 128.863281 116.445313 128.59375 116.710938 128.363281 117.117188 L 127.738281 118.210938 L 131.222656 120.179688 L 130.660156 121.179688 L 122.410156 116.507813 L 123.691406 114.242188 C 124.183594 113.390625 124.746094 112.867188 125.378906 112.679688 C 126.003906 112.484375 126.714844 112.609375 127.503906 113.054688 C 128.027344 113.347656 128.394531 113.703125 128.613281 114.117188 C 128.832031 114.535156 128.894531 114.988281 128.800781 115.476563 Z M 123.894531 116.023438 L 126.816406 117.679688 L 127.535156 116.414063 C 127.816406 115.925781 127.902344 115.488281 127.785156 115.101563 C 127.671875 114.71875 127.375 114.390625 126.894531 114.117188 C 126.417969 113.847656 125.988281 113.765625 125.613281 113.867188 C 125.230469 113.972656 124.894531 114.269531 124.613281 114.757813 Z M 128.460938 110.640625 L 128.976563 109.734375 L 135.164063 113.234375 L 134.648438 114.140625 Z M 126.054688 109.28125 L 126.570313 108.375 L 127.867188 109.09375 L 127.351563 110 Z M 129.6875 108.484375 L 130.234375 107.515625 L 136.40625 108.71875 L 132.203125 104.03125 L 132.75 103.0625 L 137.765625 108.65625 L 137.0625 109.890625 Z M 139.003906 98.648438 L 139.488281 98.929688 L 137.113281 103.132813 C 137.84375 103.488281 138.488281 103.597656 139.050781 103.460938 C 139.601563 103.328125 140.050781 102.957031 140.394531 102.351563 C 140.589844 102 140.730469 101.632813 140.816406 101.257813 C 140.910156 100.875 140.957031 100.46875 140.957031 100.039063 L 141.925781 100.585938 C 141.894531 100.992188 141.816406 101.394531 141.691406 101.789063 C 141.574219 102.175781 141.417969 102.546875 141.222656 102.898438 C 140.722656 103.785156 140.035156 104.328125 139.160156 104.523438 C 138.296875 104.710938 137.375 104.53125 136.394531 103.976563 C 135.386719 103.40625 134.722656 102.703125 134.410156 101.867188 C 134.097656 101.035156 134.175781 100.203125 134.644531 99.367188 C 135.074219 98.617188 135.675781 98.179688 136.457031 98.054688 C 137.230469 97.929688 138.078125 98.128906 139.003906 98.648438 Z M 138.191406 99.398438 C 137.640625 99.085938 137.121094 98.972656 136.628906 99.054688 C 136.128906 99.128906 135.753906 99.394531 135.503906 99.851563 C 135.214844 100.363281 135.144531 100.863281 135.300781 101.351563 C 135.449219 101.832031 135.796875 102.265625 136.347656 102.648438 Z M 139.804688 92.832031 C 139.679688 92.90625 139.570313 92.996094 139.476563 93.097656 C 139.375 93.191406 139.28125 93.3125 139.195313 93.457031 C 138.90625 93.980469 138.867188 94.484375 139.085938 94.972656 C 139.296875 95.464844 139.75 95.90625 140.445313 96.300781 L 143.710938 98.144531 L 143.195313 99.066406 L 137.007813 95.566406 L 137.523438 94.644531 L 138.492188 95.191406 C 138.210938 94.777344 138.070313 94.363281 138.070313 93.957031 C 138.070313 93.542969 138.195313 93.113281 138.445313 92.675781 C 138.476563 92.613281 138.519531 92.550781 138.570313 92.488281 C 138.613281 92.417969 138.675781 92.332031 138.757813 92.238281 Z M 139.804688 92.832031 "/>
</g>
</svg>

