<?xml version="1.0" encoding="UTF-8"?>
<svg xmlns="http://www.w3.org/2000/svg" xmlns:xlink="http://www.w3.org/1999/xlink" width="256pt" height="256pt" viewBox="0 0 256 256" version="1.1">
<g id="surface2">
<rect x="0" y="0" width="256" height="256" style="fill:rgb(60%,70.196078%,80%);fill-opacity:1;stroke:none;"/>
<path style=" stroke:none;fill-rule:evenodd;fill:rgb(94.901961%,93.72549%,91.372549%);fill-opacity:1;" d="M 259 -4 L -4 -4 L -4 259 L -4 -4 Z M 259 -4 "/>
<path style=" stroke:none;fill-rule:evenodd;fill:rgb(60%,70.196078%,80%);fill-opacity:1;" d="M -4 259 L 256.367188 259 L 257.96875 254.015625 L 259 250.988281 L 259 -4 L -4 -4 Z M -4 259 "/>
<path style="fill:none;stroke-width:1;stroke-linecap:round;stroke-linejoin:round;stroke:rgb(70.196078%,77.647059%,83.137255%);stroke-opacity:1;stroke-miterlimit:10;" d="M -4 259 L 256.367188 259 L 257.96875 254.015625 L 259 250.988281 L 259 -4 L -4 -4 L -4 259 "/>
<path style="fill:none;stroke-width:6;stroke-linecap:round;stroke-linejoin:round;stroke:rgb(60%,70.196078%,80%);stroke-opacity:1;stroke-miterlimit:10;" d="M 154.152344 -7 L 35.519531 262 "/>
<path style="fill:none;stroke-width:3;stroke-linecap:round;stroke-linejoin:round;stroke:rgb(100%,100%,100%);stroke-opacity:1;stroke-miterlimit:10;" d="M 75.257813 160.40625 L 75.710938 159.375 L 79.257813 160.953125 L 80.960938 157.09375 L 77.414063 155.515625 L 77.882813 154.46875 L 86.554688 158.296875 L 86.085938 159.34375 L 81.960938 157.515625 L 80.257813 161.375 L 84.382813 163.203125 L 83.929688 164.234375 Z M 84.839844 155.183594 L 80.917969 153.449219 L 81.339844 152.496094 L 85.230469 154.230469 C 85.847656 154.492188 86.355469 154.585938 86.761719 154.511719 C 87.167969 154.441406 87.464844 154.191406 87.652344 153.761719 C 87.878906 153.230469 87.875 152.738281 87.636719 152.277344 C 87.40625 151.820313 86.976563 151.449219 86.339844 151.167969 L 82.652344 149.527344 L 83.074219 148.558594 L 89.574219 151.433594 L 89.152344 152.402344 L 88.152344 151.964844 C 88.441406 152.371094 88.613281 152.773438 88.667969 153.167969 C 88.730469 153.554688 88.671875 153.957031 88.496094 154.371094 C 88.191406 155.039063 87.730469 155.441406 87.105469 155.574219 C 86.492188 155.710938 85.738281 155.582031 84.839844 155.183594 Z M 81.824219 150.980469 Z M 86.628906 143.160156 L 83.113281 141.613281 L 83.535156 140.660156 L 92.566406 144.644531 L 92.144531 145.597656 L 91.175781 145.175781 C 91.464844 145.542969 91.636719 145.921875 91.691406 146.316406 C 91.742188 146.714844 91.675781 147.125 91.488281 147.550781 C 91.175781 148.261719 90.605469 148.699219 89.785156 148.863281 C 88.964844 149.03125 88.042969 148.886719 87.019531 148.425781 C 86 147.980469 85.277344 147.394531 84.847656 146.675781 C 84.410156 145.957031 84.347656 145.246094 84.660156 144.535156 C 84.847656 144.109375 85.105469 143.78125 85.425781 143.550781 C 85.75 143.324219 86.152344 143.191406 86.628906 143.160156 Z M 87.457031 147.425781 C 88.238281 147.769531 88.917969 147.902344 89.488281 147.816406 C 90.058594 147.722656 90.460938 147.421875 90.691406 146.910156 C 90.917969 146.402344 90.871094 145.902344 90.550781 145.410156 C 90.226563 144.921875 89.675781 144.503906 88.894531 144.160156 C 88.105469 143.816406 87.425781 143.691406 86.863281 143.785156 C 86.292969 143.878906 85.890625 144.183594 85.660156 144.691406 C 85.433594 145.203125 85.480469 145.703125 85.800781 146.191406 C 86.113281 146.671875 86.667969 147.082031 87.457031 147.425781 Z M 88.78125 136.132813 L 89.796875 136.570313 C 89.515625 136.789063 89.277344 137.03125 89.078125 137.289063 C 88.871094 137.539063 88.695313 137.820313 88.546875 138.132813 C 88.339844 138.613281 88.265625 139.007813 88.328125 139.320313 C 88.382813 139.632813 88.570313 139.863281 88.890625 140.007813 C 89.140625 140.113281 89.375 140.109375 89.59375 139.992188 C 89.8125 139.878906 90.101563 139.597656 90.453125 139.148438 L 90.671875 138.867188 C 91.140625 138.253906 91.585938 137.867188 92 137.710938 C 92.417969 137.554688 92.890625 137.59375 93.421875 137.820313 C 94.023438 138.09375 94.410156 138.519531 94.578125 139.101563 C 94.742188 139.6875 94.660156 140.359375 94.328125 141.117188 C 94.191406 141.421875 94.015625 141.726563 93.796875 142.039063 C 93.578125 142.351563 93.316406 142.660156 93.015625 142.960938 L 91.921875 142.476563 C 92.277344 142.226563 92.585938 141.953125 92.84375 141.648438 C 93.09375 141.347656 93.289063 141.023438 93.4375 140.679688 C 93.632813 140.234375 93.703125 139.851563 93.640625 139.539063 C 93.578125 139.21875 93.390625 138.988281 93.078125 138.851563 C 92.796875 138.71875 92.542969 138.707031 92.3125 138.820313 C 92.074219 138.925781 91.75 139.242188 91.34375 139.773438 L 91.09375 140.070313 C 90.699219 140.601563 90.296875 140.941406 89.890625 141.085938 C 89.484375 141.222656 89.027344 141.179688 88.515625 140.960938 C 87.914063 140.691406 87.53125 140.285156 87.375 139.742188 C 87.21875 139.203125 87.296875 138.570313 87.609375 137.851563 C 87.765625 137.5 87.945313 137.179688 88.140625 136.898438 C 88.339844 136.609375 88.554688 136.351563 88.78125 136.132813 Z M 91.132813 132.261719 C 90.914063 132.785156 90.960938 133.292969 91.273438 133.792969 C 91.585938 134.292969 92.132813 134.714844 92.914063 135.058594 C 93.695313 135.402344 94.378906 135.523438 94.960938 135.417969 C 95.53125 135.316406 95.929688 135.003906 96.148438 134.480469 C 96.375 133.972656 96.335938 133.464844 96.023438 132.964844 C 95.710938 132.464844 95.171875 132.042969 94.398438 131.699219 C 93.628906 131.367188 92.953125 131.253906 92.367188 131.355469 C 91.773438 131.449219 91.363281 131.753906 91.132813 132.261719 Z M 90.242188 131.871094 C 90.617188 131.039063 91.210938 130.519531 92.023438 130.308594 C 92.835938 130.089844 93.773438 130.214844 94.835938 130.683594 C 95.90625 131.164063 96.640625 131.777344 97.039063 132.527344 C 97.433594 133.269531 97.445313 134.054688 97.070313 134.886719 C 96.703125 135.730469 96.117188 136.257813 95.304688 136.464844 C 94.492188 136.675781 93.550781 136.539063 92.476563 136.058594 C 91.414063 135.589844 90.6875 134.988281 90.289063 134.246094 C 89.894531 133.507813 89.878906 132.714844 90.242188 131.871094 Z M 97.003906 123.933594 L 100.941406 125.667969 L 100.519531 126.621094 L 96.628906 124.902344 C 96.015625 124.632813 95.503906 124.539063 95.097656 124.621094 C 94.691406 124.707031 94.394531 124.964844 94.207031 125.402344 C 93.980469 125.914063 93.984375 126.402344 94.222656 126.871094 C 94.464844 127.332031 94.902344 127.699219 95.535156 127.980469 L 99.207031 129.605469 L 98.769531 130.574219 L 92.269531 127.699219 L 92.707031 126.730469 L 93.722656 127.183594 C 93.433594 126.789063 93.261719 126.394531 93.207031 125.996094 C 93.144531 125.589844 93.203125 125.183594 93.378906 124.777344 C 93.671875 124.113281 94.125 123.707031 94.738281 123.558594 C 95.355469 123.414063 96.109375 123.539063 97.003906 123.933594 Z M 100.875 114.800781 C 101.0625 114.613281 101.34375 114.472656 101.71875 114.378906 C 102.085938 114.285156 102.558594 114.238281 103.140625 114.238281 L 105.984375 114.207031 L 105.484375 115.363281 L 102.8125 115.378906 C 102.117188 115.359375 101.625 115.433594 101.34375 115.597656 C 101.054688 115.765625 100.8125 116.058594 100.625 116.472656 L 100.109375 117.644531 L 103.765625 119.253906 L 103.3125 120.285156 L 94.640625 116.457031 L 95.6875 114.082031 C 96.085938 113.1875 96.585938 112.613281 97.1875 112.363281 C 97.792969 112.105469 98.515625 112.160156 99.359375 112.535156 C 99.902344 112.777344 100.304688 113.089844 100.5625 113.472656 C 100.824219 113.859375 100.929688 114.300781 100.875 114.800781 Z M 96.0625 115.863281 L 99.140625 117.207031 L 99.734375 115.863281 C 99.964844 115.355469 100 114.917969 99.84375 114.550781 C 99.6875 114.175781 99.359375 113.878906 98.859375 113.660156 C 98.351563 113.433594 97.914063 113.390625 97.546875 113.535156 C 97.183594 113.683594 96.886719 114.011719 96.65625 114.519531 Z M 100.074219 110.023438 L 100.496094 109.070313 L 106.996094 111.945313 L 106.574219 112.898438 Z M 97.542969 108.914063 L 97.964844 107.960938 L 99.324219 108.554688 L 98.902344 109.507813 Z M 101.074219 107.753906 L 101.527344 106.738281 L 107.777344 107.332031 L 103.136719 103.082031 L 103.589844 102.050781 L 109.121094 107.128906 L 108.542969 108.425781 Z M 109.367188 97.042969 L 109.882813 97.261719 L 107.929688 101.683594 C 108.691406 101.976563 109.34375 102.027344 109.882813 101.839844 C 110.414063 101.644531 110.820313 101.226563 111.101563 100.589844 C 111.265625 100.214844 111.375 99.835938 111.429688 99.449219 C 111.480469 99.066406 111.480469 98.652344 111.429688 98.214844 L 112.445313 98.667969 C 112.464844 99.085938 112.433594 99.496094 112.351563 99.902344 C 112.277344 100.300781 112.15625 100.683594 111.992188 101.058594 C 111.585938 101.988281 110.960938 102.589844 110.117188 102.871094 C 109.273438 103.152344 108.335938 103.066406 107.304688 102.605469 C 106.234375 102.136719 105.503906 101.507813 105.117188 100.714844 C 104.722656 99.925781 104.71875 99.089844 105.101563 98.214844 C 105.445313 97.425781 106.003906 96.925781 106.773438 96.714844 C 107.535156 96.507813 108.398438 96.617188 109.367188 97.042969 Z M 108.617188 97.871094 C 108.035156 97.613281 107.503906 97.550781 107.023438 97.683594 C 106.546875 97.808594 106.203125 98.113281 105.992188 98.589844 C 105.753906 99.132813 105.734375 99.636719 105.929688 100.105469 C 106.128906 100.574219 106.523438 100.972656 107.117188 101.292969 Z M 109.570313 91.1875 C 109.457031 91.261719 109.359375 91.355469 109.273438 91.46875 C 109.179688 91.585938 109.097656 91.71875 109.023438 91.875 C 108.785156 92.417969 108.800781 92.921875 109.070313 93.390625 C 109.332031 93.851563 109.828125 94.242188 110.554688 94.5625 L 113.992188 96.078125 L 113.554688 97.046875 L 107.054688 94.171875 L 107.492188 93.203125 L 108.507813 93.65625 C 108.1875 93.273438 108.003906 92.875 107.960938 92.46875 C 107.921875 92.0625 108 91.632813 108.195313 91.171875 C 108.226563 91.109375 108.265625 91.042969 108.304688 90.96875 C 108.347656 90.886719 108.398438 90.796875 108.460938 90.703125 Z M 109.570313 91.1875 "/>
<path style=" stroke:none;fill-rule:evenodd;fill:rgb(41.960784%,58.039216%,69.019608%);fill-opacity:1;" d="M 75.257813 160.40625 L 75.710938 159.375 L 79.257813 160.953125 L 80.960938 157.09375 L 77.414063 155.515625 L 77.882813 154.46875 L 86.554688 158.296875 L 86.085938 159.34375 L 81.960938 157.515625 L 80.257813 161.375 L 84.382813 163.203125 L 83.929688 164.234375 Z M 84.839844 155.183594 L 80.917969 153.449219 L 81.339844 152.496094 L 85.230469 154.230469 C 85.847656 154.492188 86.355469 154.585938 86.761719 154.511719 C 87.167969 154.441406 87.464844 154.191406 87.652344 153.761719 C 87.878906 153.230469 87.875 152.738281 87.636719 152.277344 C 87.40625 151.820313 86.976563 151.449219 86.339844 151.167969 L 82.652344 149.527344 L 83.074219 148.558594 L 89.574219 151.433594 L 89.152344 152.402344 L 88.152344 151.964844 C 88.441406 152.371094 88.613281 152.773438 88.667969 153.167969 C 88.730469 153.554688 88.671875 153.957031 88.496094 154.371094 C 88.191406 155.039063 87.730469 155.441406 87.105469 155.574219 C 86.492188 155.710938 85.738281 155.582031 84.839844 155.183594 Z M 81.824219 150.980469 Z M 86.628906 143.160156 L 83.113281 141.613281 L 83.535156 140.660156 L 92.566406 144.644531 L 92.144531 145.597656 L 91.175781 145.175781 C 91.464844 145.542969 91.636719 145.921875 91.691406 146.316406 C 91.742188 146.714844 91.675781 147.125 91.488281 147.550781 C 91.175781 148.261719 90.605469 148.699219 89.785156 148.863281 C 88.964844 149.03125 88.042969 148.886719 87.019531 148.425781 C 86 147.980469 85.277344 147.394531 84.847656 146.675781 C 84.410156 145.957031 84.347656 145.246094 84.660156 144.535156 C 84.847656 144.109375 85.105469 143.78125 85.425781 143.550781 C 85.75 143.324219 86.152344 143.191406 86.628906 143.160156 Z M 87.457031 147.425781 C 88.238281 147.769531 88.917969 147.902344 89.488281 147.816406 C 90.058594 147.722656 90.460938 147.421875 90.691406 146.910156 C 90.917969 146.402344 90.871094 145.902344 90.550781 145.410156 C 90.226563 144.921875 89.675781 144.503906 88.894531 144.160156 C 88.105469 143.816406 87.425781 143.691406 86.863281 143.785156 C 86.292969 143.878906 85.890625 144.183594 85.660156 144.691406 C 85.433594 145.203125 85.480469 145.703125 85.800781 146.191406 C 86.113281 146.671875 86.667969 147.082031 87.457031 147.425781 Z M 88.78125 136.132813 L 89.796875 136.570313 C 89.515625 136.789063 89.277344 137.03125 89.078125 137.289063 C 88.871094 137.539063 88.695313 137.820313 88.546875 138.132813 C 88.339844 138.613281 88.265625 139.007813 88.328125 139.320313 C 88.382813 139.632813 88.570313 139.863281 88.890625 140.007813 C 89.140625 140.113281 89.375 140.109375 89.59375 139.992188 C 89.8125 139.878906 90.101563 139.597656 90.453125 139.148438 L 90.671875 138.867188 C 91.140625 138.253906 91.585938 137.867188 92 137.710938 C 92.417969 137.554688 92.890625 137.59375 93.421875 137.820313 C 94.023438 138.09375 94.410156 138.519531 94.578125 139.101563 C 94.742188 139.6875 94.660156 140.359375 94.328125 141.117188 C 94.191406 141.421875 94.015625 141.726563 93.796875 142.039063 C 93.578125 142.351563 93.316406 142.660156 93.015625 142.960938 L 91.921875 142.476563 C 92.277344 142.226563 92.585938 141.953125 92.84375 141.648438 C 93.09375 141.347656 93.289063 141.023438 93.4375 140.679688 C 93.632813 140.234375 93.703125 139.851563 93.640625 139.539063 C 93.578125 139.21875 93.390625 138.988281 93.078125 138.851563 C 92.796875 138.71875 92.542969 138.707031 92.3125 138.820313 C 92.074219 138.925781 91.75 139.242188 91.34375 139.773438 L 91.09375 140.070313 C 90.699219 140.601563 90.296875 140.941406 89.890625 141.085938 C 89.484375 141.222656 89.027344 141.179688 88.515625 140.960938 C 87.914063 140.691406 87.53125 140.285156 87.375 139.742188 C 87.21875 139.203125 87.296875 138.570313 87.609375 137.851563 C 87.765625 137.5 87.945313 137.179688 88.140625 136.898438 C 88.339844 136.609375 88.554688 136.351563 88.78125 136.132813 Z M 91.132813 132.261719 C 90.914063 132.785156 90.960938 133.292969 91.273438 133.792969 C 91.585938 134.292969 92.132813 134.714844 92.914063 135.058594 C 93.695313 135.402344 94.378906 135.523438 94.960938 135.417969 C 95.53125 135.316406 95.929688 135.003906 96.148438 134.480469 C 96.375 133.972656 96.335938 133.464844 96.023438 132.964844 C 95.710938 132.464844 95.171875 132.042969 94.398438 131.699219 C 93.628906 131.367188 92.953125 131.253906 92.367188 131.355469 C 91.773438 131.449219 91.363281 131.753906 91.132813 132.261719 Z M 90.242188 131.871094 C 90.617188 131.039063 91.210938 130.519531 92.023438 130.308594 C 92.835938 130.089844 93.773438 130.214844 94.835938 130.683594 C 95.90625 131.164063 96.640625 131.777344 97.039063 132.527344 C 97.433594 133.269531 97.445313 134.054688 97.070313 134.886719 C 96.703125 135.730469 96.117188 136.257813 95.304688 136.464844 C 94.492188 136.675781 93.550781 136.539063 92.476563 136.058594 C 91.414063 135.589844 90.6875 134.988281 90.289063 134.246094 C 89.894531 133.507813 89.878906 132.714844 90.242188 131.871094 Z M 97.003906 123.933594 L 100.941406 125.667969 L 100.519531 126.621094 L 96.628906 124.902344 C 96.015625 124.632813 95.503906 124.539063 95.097656 124.621094 C 94.691406 124.707031 94.394531 124.964844 94.207031 125.402344 C 93.980469 125.914063 93.984375 126.402344 94.222656 126.871094 C 94.464844 127.332031 94.902344 127.699219 95.535156 127.980469 L 99.207031 129.605469 L 98.769531 130.574219 L 92.269531 127.699219 L 92.707031 126.730469 L 93.722656 127.183594 C 93.433594 126.789063 93.261719 126.394531 93.207031 125.996094 C 93.144531 125.589844 93.203125 125.183594 93.378906 124.777344 C 93.671875 124.113281 94.125 123.707031 94.738281 123.558594 C 95.355469 123.414063 96.109375 123.539063 97.003906 123.933594 Z M 100.875 114.800781 C 101.0625 114.613281 101.34375 114.472656 101.71875 114.378906 C 102.085938 114.285156 102.558594 114.238281 103.140625 114.238281 L 105.984375 114.207031 L 105.484375 115.363281 L 102.8125 115.378906 C 102.117188 115.359375 101.625 115.433594 101.34375 115.597656 C 101.054688 115.765625 100.8125 116.058594 100.625 116.472656 L 100.109375 117.644531 L 103.765625 119.253906 L 103.3125 120.285156 L 94.640625 116.457031 L 95.6875 114.082031 C 96.085938 113.1875 96.585938 112.613281 97.1875 112.363281 C 97.792969 112.105469 98.515625 112.160156 99.359375 112.535156 C 99.902344 112.777344 100.304688 113.089844 100.5625 113.472656 C 100.824219 113.859375 100.929688 114.300781 100.875 114.800781 Z M 96.0625 115.863281 L 99.140625 117.207031 L 99.734375 115.863281 C 99.964844 115.355469 100 114.917969 99.84375 114.550781 C 99.6875 114.175781 99.359375 113.878906 98.859375 113.660156 C 98.351563 113.433594 97.914063 113.390625 97.546875 113.535156 C 97.183594 113.683594 96.886719 114.011719 96.65625 114.519531 Z M 100.074219 110.023438 L 100.496094 109.070313 L 106.996094 111.945313 L 106.574219 112.898438 Z M 97.542969 108.914063 L 97.964844 107.960938 L 99.324219 108.554688 L 98.902344 109.507813 Z M 101.074219 107.753906 L 101.527344 106.738281 L 107.777344 107.332031 L 103.136719 103.082031 L 103.589844 102.050781 L 109.121094 107.128906 L 108.542969 108.425781 Z M 109.367188 97.042969 L 109.882813 97.261719 L 107.929688 101.683594 C 108.691406 101.976563 109.34375 102.027344 109.882813 101.839844 C 110.414063 101.644531 110.820313 101.226563 111.101563 100.589844 C 111.265625 100.214844 111.375 99.835938 111.429688 99.449219 C 111.480469 99.066406 111.480469 98.652344 111.429688 98.214844 L 112.445313 98.667969 C 112.464844 99.085938 112.433594 99.496094 112.351563 99.902344 C 112.277344 100.300781 112.15625 100.683594 111.992188 101.058594 C 111.585938 101.988281 110.960938 102.589844 110.117188 102.871094 C 109.273438 103.152344 108.335938 103.066406 107.304688 102.605469 C 106.234375 102.136719 105.503906 101.507813 105.117188 100.714844 C 104.722656 99.925781 104.71875 99.089844 105.101563 98.214844 C 105.445313 97.425781 106.003906 96.925781 106.773438 96.714844 C 107.535156 96.507813 108.398438 96.617188 109.367188 97.042969 Z M 108.617188 97.871094 C 108.035156 97.613281 107.503906 97.550781 107.023438 97.683594 C 106.546875 97.808594 106.203125 98.113281 105.992188 98.589844 C 105.753906 99.132813 105.734375 99.636719 105.929688 100.105469 C 106.128906 100.574219 106.523438 100.972656 107.117188 101.292969 Z M 109.570313 91.1875 C 109.457031 91.261719 109.359375 91.355469 109.273438 91.46875 C 109.179688 91.585938 109.097656 91.71875 109.023438 91.875 C 108.785156 92.417969 108.800781 92.921875 109.070313 93.390625 C 109.332031 93.851563 109.828125 94.242188 110.554688 94.5625 L 113.992188 96.078125 L 113.554688 97.046875 L 107.054688 94.171875 L 107.492188 93.203125 L 108.507813 93.65625 C 108.1875 93.273438 108.003906 92.875 107.960938 92.46875 C 107.921875 92.0625 108 91.632813 108.195313 91.171875 C 108.226563 91.109375 108.265625 91.042969 108.304688 90.96875 C 108.347656 90.886719 108.398438 90.796875 108.460938 90.703125 Z M 109.570313 91.1875 "/>
</g>
</svg>

