<?xml version="1.0" encoding="UTF-8"?>
<svg xmlns="http://www.w3.org/2000/svg" xmlns:xlink="http://www.w3.org/1999/xlink" width="256pt" height="256pt" viewBox="0 0 256 256" version="1.1">
<g id="surface2">
<rect x="0" y="0" width="256" height="256" style="fill:rgb(60%,70.196078%,80%);fill-opacity:1;stroke:none;"/>
<path style="fill:none;stroke-width:6;stroke-linecap:round;stroke-linejoin:round;stroke:rgb(60%,70.196078%,80%);stroke-opacity:1;stroke-miterlimit:10;" d="M 62.984375 -7 L 61.480469 29.011719 L 63.828125 262 "/>
<path style="fill:none;stroke-width:3;stroke-linecap:round;stroke-linejoin:round;stroke:rgb(100%,100%,100%);stroke-opacity:1;stroke-miterlimit:10;" d="M 66.585938 90.492188 L 66.664063 97.695313 L 65.570313 97.710938 L 65.539063 94.695313 L 57.148438 94.773438 L 57.132813 93.617188 L 65.523438 93.539063 L 65.492188 90.507813 Z M 61.53125 104.132813 L 57.234375 104.179688 L 57.21875 103.132813 L 61.46875 103.085938 C 62.144531 103.085938 62.648438 102.960938 62.984375 102.710938 C 63.316406 102.46875 63.484375 102.117188 63.484375 101.648438 C 63.472656 101.085938 63.265625 100.640625 62.859375 100.320313 C 62.453125 99.996094 61.898438 99.835938 61.203125 99.835938 L 57.1875 99.882813 L 57.1875 98.820313 L 67.0625 98.726563 L 67.0625 99.789063 L 63.1875 99.820313 C 63.625 100.070313 63.945313 100.359375 64.15625 100.695313 C 64.375 101.027344 64.488281 101.417969 64.5 101.867188 C 64.5 102.59375 64.25 103.152344 63.75 103.539063 C 63.25 103.921875 62.507813 104.121094 61.53125 104.132813 Z M 61.152344 111.722656 L 60.589844 111.722656 L 60.542969 106.878906 C 59.730469 106.941406 59.113281 107.164063 58.699219 107.550781 C 58.292969 107.945313 58.09375 108.492188 58.105469 109.191406 C 58.105469 109.597656 58.160156 109.988281 58.277344 110.363281 C 58.390625 110.738281 58.558594 111.113281 58.777344 111.488281 L 57.667969 111.503906 C 57.488281 111.128906 57.347656 110.742188 57.246094 110.347656 C 57.152344 109.949219 57.105469 109.550781 57.105469 109.144531 C 57.097656 108.121094 57.410156 107.308594 58.058594 106.707031 C 58.714844 106.101563 59.605469 105.792969 60.730469 105.785156 C 61.894531 105.773438 62.824219 106.042969 63.511719 106.597656 C 64.207031 107.160156 64.558594 107.917969 64.558594 108.878906 C 64.566406 109.742188 64.265625 110.425781 63.652344 110.925781 C 63.046875 111.433594 62.214844 111.699219 61.152344 111.722656 Z M 61.496094 110.644531 C 62.128906 110.644531 62.636719 110.480469 63.011719 110.160156 C 63.394531 109.847656 63.582031 109.429688 63.574219 108.910156 C 63.574219 108.316406 63.386719 107.847656 63.011719 107.503906 C 62.636719 107.160156 62.113281 106.960938 61.449219 106.910156 Z M 66.859375 117.160156 L 66.875 118.707031 L 58.96875 122.566406 L 66.90625 122.488281 L 66.921875 123.613281 L 57.4375 123.707031 L 57.421875 122.144531 L 65.296875 118.285156 L 57.375 118.363281 L 57.375 117.253906 Z M 61.070313 128.832031 C 61.058594 127.976563 60.9375 127.382813 60.710938 127.050781 C 60.492188 126.726563 60.121094 126.570313 59.601563 126.582031 C 59.195313 126.582031 58.871094 126.699219 58.632813 126.941406 C 58.390625 127.191406 58.273438 127.527344 58.273438 127.957031 C 58.28125 128.539063 58.515625 129.003906 58.976563 129.347656 C 59.433594 129.699219 60.042969 129.871094 60.804688 129.863281 L 61.070313 129.863281 Z M 61.570313 130.910156 L 57.507813 130.957031 L 57.492188 129.894531 L 58.570313 129.878906 C 58.140625 129.660156 57.820313 129.367188 57.601563 129.003906 C 57.394531 128.648438 57.289063 128.210938 57.289063 127.691406 C 57.28125 127.035156 57.476563 126.507813 57.882813 126.113281 C 58.289063 125.726563 58.828125 125.535156 59.507813 125.535156 C 60.308594 125.523438 60.914063 125.753906 61.320313 126.222656 C 61.734375 126.699219 61.949219 127.417969 61.960938 128.378906 L 61.976563 129.847656 L 62.101563 129.847656 C 62.632813 129.847656 63.042969 129.683594 63.335938 129.363281 C 63.636719 129.039063 63.78125 128.589844 63.773438 128.019531 C 63.773438 127.652344 63.71875 127.300781 63.617188 126.957031 C 63.511719 126.613281 63.359375 126.277344 63.164063 125.957031 L 64.242188 125.957031 C 64.40625 126.332031 64.53125 126.695313 64.617188 127.050781 C 64.710938 127.414063 64.757813 127.769531 64.757813 128.113281 C 64.765625 129.039063 64.507813 129.730469 63.976563 130.191406 C 63.453125 130.660156 62.652344 130.898438 61.570313 130.910156 Z M 63.582031 136.769531 C 63.652344 136.652344 63.707031 136.523438 63.738281 136.378906 C 63.777344 136.242188 63.800781 136.089844 63.800781 135.925781 C 63.789063 135.332031 63.566406 134.878906 63.128906 134.566406 C 62.699219 134.253906 62.085938 134.101563 61.285156 134.113281 L 57.535156 134.144531 L 57.535156 133.082031 L 64.644531 133.003906 L 64.644531 134.066406 L 63.535156 134.082031 C 63.980469 134.300781 64.308594 134.582031 64.519531 134.925781 C 64.726563 135.277344 64.835938 135.707031 64.847656 136.207031 C 64.847656 136.277344 64.839844 136.355469 64.832031 136.441406 C 64.820313 136.535156 64.804688 136.636719 64.785156 136.753906 Z M 63.628906 141.582031 C 63.699219 141.464844 63.753906 141.335938 63.785156 141.191406 C 63.824219 141.054688 63.847656 140.902344 63.847656 140.738281 C 63.835938 140.144531 63.613281 139.691406 63.175781 139.378906 C 62.746094 139.066406 62.132813 138.914063 61.332031 138.925781 L 57.582031 138.957031 L 57.582031 137.894531 L 64.691406 137.816406 L 64.691406 138.878906 L 63.582031 138.894531 C 64.027344 139.113281 64.355469 139.394531 64.566406 139.738281 C 64.773438 140.089844 64.882813 140.519531 64.894531 141.019531 C 64.894531 141.089844 64.886719 141.167969 64.878906 141.253906 C 64.867188 141.347656 64.851563 141.449219 64.832031 141.566406 Z M 63.941406 145.160156 C 63.941406 144.597656 63.691406 144.152344 63.191406 143.832031 C 62.699219 143.507813 62.027344 143.351563 61.175781 143.363281 C 60.320313 143.371094 59.652344 143.539063 59.175781 143.863281 C 58.695313 144.195313 58.457031 144.644531 58.457031 145.207031 C 58.464844 145.769531 58.714844 146.210938 59.207031 146.535156 C 59.695313 146.867188 60.363281 147.027344 61.207031 147.019531 C 62.050781 147.007813 62.714844 146.835938 63.207031 146.503906 C 63.707031 146.167969 63.949219 145.722656 63.941406 145.160156 Z M 64.925781 145.144531 C 64.933594 146.058594 64.613281 146.785156 63.957031 147.316406 C 63.300781 147.847656 62.386719 148.117188 61.222656 148.128906 C 60.054688 148.136719 59.136719 147.882813 58.472656 147.363281 C 57.804688 146.851563 57.46875 146.136719 57.457031 145.222656 C 57.449219 144.304688 57.769531 143.582031 58.425781 143.050781 C 59.082031 142.527344 59.992188 142.261719 61.160156 142.253906 C 62.324219 142.242188 63.242188 142.492188 63.910156 143.003906 C 64.574219 143.511719 64.914063 144.226563 64.925781 145.144531 Z M 64.796875 149.207031 L 64.8125 150.269531 L 59.28125 151.644531 L 64.84375 152.894531 L 64.84375 154.128906 L 59.3125 155.503906 L 64.875 156.753906 L 64.890625 157.800781 L 57.765625 156.207031 L 57.75 154.957031 L 63.5625 153.519531 L 57.71875 152.207031 L 57.703125 150.972656 Z M 64.738281 163.488281 L 63.628906 163.488281 C 63.792969 163.183594 63.914063 162.871094 63.988281 162.550781 C 64.070313 162.238281 64.113281 161.910156 64.113281 161.566406 C 64.113281 161.042969 64.019531 160.648438 63.832031 160.378906 C 63.652344 160.117188 63.386719 159.992188 63.035156 160.003906 C 62.761719 160.003906 62.550781 160.097656 62.394531 160.285156 C 62.246094 160.480469 62.105469 160.863281 61.972656 161.425781 L 61.878906 161.769531 C 61.710938 162.527344 61.464844 163.066406 61.144531 163.378906 C 60.832031 163.691406 60.386719 163.851563 59.816406 163.863281 C 59.148438 163.863281 58.617188 163.628906 58.222656 163.160156 C 57.835938 162.699219 57.640625 162.058594 57.628906 161.238281 C 57.628906 160.902344 57.667969 160.550781 57.738281 160.175781 C 57.800781 159.800781 57.902344 159.410156 58.050781 159.003906 L 59.253906 158.988281 C 59.035156 159.371094 58.871094 159.753906 58.769531 160.128906 C 58.664063 160.503906 58.613281 160.878906 58.613281 161.253906 C 58.613281 161.742188 58.707031 162.117188 58.894531 162.378906 C 59.089844 162.648438 59.363281 162.785156 59.707031 162.785156 C 60.019531 162.773438 60.257813 162.667969 60.425781 162.472656 C 60.589844 162.285156 60.753906 161.867188 60.910156 161.222656 L 61.003906 160.863281 C 61.148438 160.207031 61.371094 159.726563 61.675781 159.425781 C 61.988281 159.132813 62.417969 158.988281 62.972656 158.988281 C 63.636719 158.976563 64.152344 159.183594 64.519531 159.613281 C 64.894531 160.039063 65.085938 160.644531 65.097656 161.425781 C 65.097656 161.808594 65.066406 162.175781 65.003906 162.519531 C 64.949219 162.863281 64.863281 163.183594 64.738281 163.488281 Z M 64.738281 163.488281 "/>
<path style=" stroke:none;fill-rule:evenodd;fill:rgb(41.960784%,58.039216%,69.019608%);fill-opacity:1;" d="M 66.585938 90.492188 L 66.664063 97.695313 L 65.570313 97.710938 L 65.539063 94.695313 L 57.148438 94.773438 L 57.132813 93.617188 L 65.523438 93.539063 L 65.492188 90.507813 Z M 61.53125 104.132813 L 57.234375 104.179688 L 57.21875 103.132813 L 61.46875 103.085938 C 62.144531 103.085938 62.648438 102.960938 62.984375 102.710938 C 63.316406 102.46875 63.484375 102.117188 63.484375 101.648438 C 63.472656 101.085938 63.265625 100.640625 62.859375 100.320313 C 62.453125 99.996094 61.898438 99.835938 61.203125 99.835938 L 57.1875 99.882813 L 57.1875 98.820313 L 67.0625 98.726563 L 67.0625 99.789063 L 63.1875 99.820313 C 63.625 100.070313 63.945313 100.359375 64.15625 100.695313 C 64.375 101.027344 64.488281 101.417969 64.5 101.867188 C 64.5 102.59375 64.25 103.152344 63.75 103.539063 C 63.25 103.921875 62.507813 104.121094 61.53125 104.132813 Z M 61.152344 111.722656 L 60.589844 111.722656 L 60.542969 106.878906 C 59.730469 106.941406 59.113281 107.164063 58.699219 107.550781 C 58.292969 107.945313 58.09375 108.492188 58.105469 109.191406 C 58.105469 109.597656 58.160156 109.988281 58.277344 110.363281 C 58.390625 110.738281 58.558594 111.113281 58.777344 111.488281 L 57.667969 111.503906 C 57.488281 111.128906 57.347656 110.742188 57.246094 110.347656 C 57.152344 109.949219 57.105469 109.550781 57.105469 109.144531 C 57.097656 108.121094 57.410156 107.308594 58.058594 106.707031 C 58.714844 106.101563 59.605469 105.792969 60.730469 105.785156 C 61.894531 105.773438 62.824219 106.042969 63.511719 106.597656 C 64.207031 107.160156 64.558594 107.917969 64.558594 108.878906 C 64.566406 109.742188 64.265625 110.425781 63.652344 110.925781 C 63.046875 111.433594 62.214844 111.699219 61.152344 111.722656 Z M 61.496094 110.644531 C 62.128906 110.644531 62.636719 110.480469 63.011719 110.160156 C 63.394531 109.847656 63.582031 109.429688 63.574219 108.910156 C 63.574219 108.316406 63.386719 107.847656 63.011719 107.503906 C 62.636719 107.160156 62.113281 106.960938 61.449219 106.910156 Z M 66.859375 117.160156 L 66.875 118.707031 L 58.96875 122.566406 L 66.90625 122.488281 L 66.921875 123.613281 L 57.4375 123.707031 L 57.421875 122.144531 L 65.296875 118.285156 L 57.375 118.363281 L 57.375 117.253906 Z M 61.070313 128.832031 C 61.058594 127.976563 60.9375 127.382813 60.710938 127.050781 C 60.492188 126.726563 60.121094 126.570313 59.601563 126.582031 C 59.195313 126.582031 58.871094 126.699219 58.632813 126.941406 C 58.390625 127.191406 58.273438 127.527344 58.273438 127.957031 C 58.28125 128.539063 58.515625 129.003906 58.976563 129.347656 C 59.433594 129.699219 60.042969 129.871094 60.804688 129.863281 L 61.070313 129.863281 Z M 61.570313 130.910156 L 57.507813 130.957031 L 57.492188 129.894531 L 58.570313 129.878906 C 58.140625 129.660156 57.820313 129.367188 57.601563 129.003906 C 57.394531 128.648438 57.289063 128.210938 57.289063 127.691406 C 57.28125 127.035156 57.476563 126.507813 57.882813 126.113281 C 58.289063 125.726563 58.828125 125.535156 59.507813 125.535156 C 60.308594 125.523438 60.914063 125.753906 61.320313 126.222656 C 61.734375 126.699219 61.949219 127.417969 61.960938 128.378906 L 61.976563 129.847656 L 62.101563 129.847656 C 62.632813 129.847656 63.042969 129.683594 63.335938 129.363281 C 63.636719 129.039063 63.78125 128.589844 63.773438 128.019531 C 63.773438 127.652344 63.71875 127.300781 63.617188 126.957031 C 63.511719 126.613281 63.359375 126.277344 63.164063 125.957031 L 64.242188 125.957031 C 64.40625 126.332031 64.53125 126.695313 64.617188 127.050781 C 64.710938 127.414063 64.757813 127.769531 64.757813 128.113281 C 64.765625 129.039063 64.507813 129.730469 63.976563 130.191406 C 63.453125 130.660156 62.652344 130.898438 61.570313 130.910156 Z M 63.582031 136.769531 C 63.652344 136.652344 63.707031 136.523438 63.738281 136.378906 C 63.777344 136.242188 63.800781 136.089844 63.800781 135.925781 C 63.789063 135.332031 63.566406 134.878906 63.128906 134.566406 C 62.699219 134.253906 62.085938 134.101563 61.285156 134.113281 L 57.535156 134.144531 L 57.535156 133.082031 L 64.644531 133.003906 L 64.644531 134.066406 L 63.535156 134.082031 C 63.980469 134.300781 64.308594 134.582031 64.519531 134.925781 C 64.726563 135.277344 64.835938 135.707031 64.847656 136.207031 C 64.847656 136.277344 64.839844 136.355469 64.832031 136.441406 C 64.820313 136.535156 64.804688 136.636719 64.785156 136.753906 Z M 63.628906 141.582031 C 63.699219 141.464844 63.753906 141.335938 63.785156 141.191406 C 63.824219 141.054688 63.847656 140.902344 63.847656 140.738281 C 63.835938 140.144531 63.613281 139.691406 63.175781 139.378906 C 62.746094 139.066406 62.132813 138.914063 61.332031 138.925781 L 57.582031 138.957031 L 57.582031 137.894531 L 64.691406 137.816406 L 64.691406 138.878906 L 63.582031 138.894531 C 64.027344 139.113281 64.355469 139.394531 64.566406 139.738281 C 64.773438 140.089844 64.882813 140.519531 64.894531 141.019531 C 64.894531 141.089844 64.886719 141.167969 64.878906 141.253906 C 64.867188 141.347656 64.851563 141.449219 64.832031 141.566406 Z M 63.941406 145.160156 C 63.941406 144.597656 63.691406 144.152344 63.191406 143.832031 C 62.699219 143.507813 62.027344 143.351563 61.175781 143.363281 C 60.320313 143.371094 59.652344 143.539063 59.175781 143.863281 C 58.695313 144.195313 58.457031 144.644531 58.457031 145.207031 C 58.464844 145.769531 58.714844 146.210938 59.207031 146.535156 C 59.695313 146.867188 60.363281 147.027344 61.207031 147.019531 C 62.050781 147.007813 62.714844 146.835938 63.207031 146.503906 C 63.707031 146.167969 63.949219 145.722656 63.941406 145.160156 Z M 64.925781 145.144531 C 64.933594 146.058594 64.613281 146.785156 63.957031 147.316406 C 63.300781 147.847656 62.386719 148.117188 61.222656 148.128906 C 60.054688 148.136719 59.136719 147.882813 58.472656 147.363281 C 57.804688 146.851563 57.46875 146.136719 57.457031 145.222656 C 57.449219 144.304688 57.769531 143.582031 58.425781 143.050781 C 59.082031 142.527344 59.992188 142.261719 61.160156 142.253906 C 62.324219 142.242188 63.242188 142.492188 63.910156 143.003906 C 64.574219 143.511719 64.914063 144.226563 64.925781 145.144531 Z M 64.796875 149.207031 L 64.8125 150.269531 L 59.28125 151.644531 L 64.84375 152.894531 L 64.84375 154.128906 L 59.3125 155.503906 L 64.875 156.753906 L 64.890625 157.800781 L 57.765625 156.207031 L 57.75 154.957031 L 63.5625 153.519531 L 57.71875 152.207031 L 57.703125 150.972656 Z M 64.738281 163.488281 L 63.628906 163.488281 C 63.792969 163.183594 63.914063 162.871094 63.988281 162.550781 C 64.070313 162.238281 64.113281 161.910156 64.113281 161.566406 C 64.113281 161.042969 64.019531 160.648438 63.832031 160.378906 C 63.652344 160.117188 63.386719 159.992188 63.035156 160.003906 C 62.761719 160.003906 62.550781 160.097656 62.394531 160.285156 C 62.246094 160.480469 62.105469 160.863281 61.972656 161.425781 L 61.878906 161.769531 C 61.710938 162.527344 61.464844 163.066406 61.144531 163.378906 C 60.832031 163.691406 60.386719 163.851563 59.816406 163.863281 C 59.148438 163.863281 58.617188 163.628906 58.222656 163.160156 C 57.835938 162.699219 57.640625 162.058594 57.628906 161.238281 C 57.628906 160.902344 57.667969 160.550781 57.738281 160.175781 C 57.800781 159.800781 57.902344 159.410156 58.050781 159.003906 L 59.253906 158.988281 C 59.035156 159.371094 58.871094 159.753906 58.769531 160.128906 C 58.664063 160.503906 58.613281 160.878906 58.613281 161.253906 C 58.613281 161.742188 58.707031 162.117188 58.894531 162.378906 C 59.089844 162.648438 59.363281 162.785156 59.707031 162.785156 C 60.019531 162.773438 60.257813 162.667969 60.425781 162.472656 C 60.589844 162.285156 60.753906 161.867188 60.910156 161.222656 L 61.003906 160.863281 C 61.148438 160.207031 61.371094 159.726563 61.675781 159.425781 C 61.988281 159.132813 62.417969 158.988281 62.972656 158.988281 C 63.636719 158.976563 64.152344 159.183594 64.519531 159.613281 C 64.894531 160.039063 65.085938 160.644531 65.097656 161.425781 C 65.097656 161.808594 65.066406 162.175781 65.003906 162.519531 C 64.949219 162.863281 64.863281 163.183594 64.738281 163.488281 Z M 64.738281 163.488281 "/>
</g>
</svg>

