<?xml version="1.0" encoding="UTF-8"?>
<svg xmlns="http://www.w3.org/2000/svg" xmlns:xlink="http://www.w3.org/1999/xlink" width="256pt" height="256pt" viewBox="0 0 256 256" version="1.1">
<g id="surface2">
<rect x="0" y="0" width="256" height="256" style="fill:rgb(94.901961%,93.72549%,91.372549%);fill-opacity:1;stroke:none;"/>
<path style=" stroke:none;fill-rule:evenodd;fill:rgb(70.980392%,82.352941%,61.176471%);fill-opacity:1;" d="M -4 -4 L -4 6.117188 L 42.742188 0.496094 L 42.238281 -4 Z M -4 -4 "/>
<path style="fill:none;stroke-width:8;stroke-linecap:round;stroke-linejoin:round;stroke:rgb(75.686275%,70.980392%,61.568627%);stroke-opacity:1;stroke-miterlimit:10;" d="M 56.796875 96.28125 L 50.164063 97.003906 L 27.761719 96.023438 L 21.734375 92.1875 "/>
<path style="fill:none;stroke-width:8;stroke-linecap:round;stroke-linejoin:round;stroke:rgb(75.686275%,70.980392%,61.568627%);stroke-opacity:1;stroke-miterlimit:10;" d="M 67.042969 264 L 68.238281 252.433594 L 70.636719 227.792969 L 70.429688 213.796875 L 63.25 148.917969 L 56.796875 96.28125 L 46.707031 17.304688 L 44.195313 -9 "/>
<path style="fill:none;stroke-width:6;stroke-linecap:round;stroke-linejoin:round;stroke:rgb(100%,100%,100%);stroke-opacity:1;stroke-miterlimit:10;" d="M 56.796875 96.28125 L 50.164063 97.003906 L 27.761719 96.023438 L 21.734375 92.1875 "/>
<path style="fill:none;stroke-width:6;stroke-linecap:round;stroke-linejoin:round;stroke:rgb(100%,99.215686%,54.509804%);stroke-opacity:1;stroke-miterlimit:10;" d="M 67.042969 264 L 68.238281 252.433594 L 70.636719 227.792969 L 70.429688 213.796875 L 63.25 148.917969 L 56.796875 96.28125 L 46.707031 17.304688 L 44.195313 -9 "/>
<path style="fill:none;stroke-width:3;stroke-linecap:round;stroke-linejoin:round;stroke:rgb(100%,100%,100%);stroke-opacity:1;stroke-miterlimit:10;" d="M 60.726563 95.332031 L 60.851563 96.300781 L 53.460938 97.238281 C 52.492188 97.351563 51.773438 97.273438 51.304688 97.003906 C 50.828125 96.730469 50.539063 96.230469 50.445313 95.503906 L 50.398438 95.128906 L 51.304688 95.003906 L 51.335938 95.316406 C 51.390625 95.742188 51.5625 96.027344 51.851563 96.175781 C 52.144531 96.320313 52.640625 96.351563 53.335938 96.269531 Z M 58.664063 100.59375 C 58.601563 100.113281 58.34375 99.757813 57.898438 99.53125 C 57.460938 99.3125 56.886719 99.25 56.179688 99.34375 C 55.460938 99.425781 54.914063 99.628906 54.539063 99.953125 C 54.164063 100.285156 54.007813 100.691406 54.070313 101.171875 C 54.121094 101.640625 54.367188 101.984375 54.804688 102.203125 C 55.25 102.429688 55.835938 102.503906 56.554688 102.421875 C 57.261719 102.328125 57.804688 102.113281 58.179688 101.78125 C 58.554688 101.457031 58.714844 101.0625 58.664063 100.59375 Z M 59.492188 100.5 C 59.585938 101.257813 59.382813 101.890625 58.882813 102.390625 C 58.382813 102.898438 57.640625 103.21875 56.664063 103.34375 C 55.683594 103.457031 54.886719 103.328125 54.273438 102.953125 C 53.667969 102.585938 53.320313 102.023438 53.226563 101.265625 C 53.121094 100.484375 53.320313 99.84375 53.820313 99.34375 C 54.328125 98.84375 55.074219 98.535156 56.054688 98.421875 C 57.03125 98.296875 57.824219 98.414063 58.429688 98.78125 C 59.03125 99.144531 59.386719 99.71875 59.492188 100.5 Z M 60.070313 108.332031 L 59.164063 108.441406 C 59.289063 108.167969 59.371094 107.902344 59.414063 107.644531 C 59.453125 107.382813 59.460938 107.121094 59.429688 106.863281 C 59.355469 106.289063 59.101563 105.867188 58.664063 105.597656 C 58.226563 105.335938 57.640625 105.253906 56.914063 105.347656 C 56.183594 105.429688 55.636719 105.652344 55.273438 106.019531 C 54.90625 106.394531 54.761719 106.867188 54.835938 107.441406 C 54.867188 107.699219 54.933594 107.949219 55.039063 108.191406 C 55.140625 108.429688 55.28125 108.664063 55.460938 108.894531 L 54.570313 109.003906 C 54.402344 108.773438 54.265625 108.527344 54.164063 108.269531 C 54.070313 108.007813 54.007813 107.730469 53.976563 107.441406 C 53.871094 106.628906 54.070313 105.949219 54.570313 105.410156 C 55.078125 104.867188 55.820313 104.539063 56.789063 104.425781 C 57.757813 104.300781 58.546875 104.441406 59.164063 104.847656 C 59.789063 105.261719 60.148438 105.886719 60.242188 106.722656 C 60.28125 106.992188 60.289063 107.261719 60.257813 107.535156 C 60.226563 107.816406 60.164063 108.082031 60.070313 108.332031 Z M 62.8125 109.511719 L 62.921875 110.402344 L 58.015625 110.996094 L 60.921875 113.324219 L 61.0625 114.449219 L 57.90625 111.949219 L 55.09375 115.292969 L 54.953125 114.152344 L 57.546875 111.058594 L 54.625 111.417969 L 54.515625 110.527344 Z M 58.992188 120.453125 L 58.523438 120.5 L 58.023438 116.4375 C 57.355469 116.5625 56.867188 116.8125 56.554688 117.1875 C 56.25 117.570313 56.136719 118.050781 56.210938 118.625 C 56.25 118.96875 56.335938 119.289063 56.460938 119.59375 C 56.59375 119.894531 56.765625 120.191406 56.976563 120.484375 L 56.070313 120.609375 C 55.871094 120.304688 55.710938 119.992188 55.585938 119.671875 C 55.46875 119.347656 55.390625 119.015625 55.351563 118.671875 C 55.246094 117.816406 55.4375 117.101563 55.929688 116.53125 C 56.417969 115.96875 57.140625 115.628906 58.101563 115.515625 C 59.070313 115.398438 59.867188 115.539063 60.492188 115.9375 C 61.125 116.34375 61.496094 116.945313 61.601563 117.75 C 61.683594 118.476563 61.492188 119.082031 61.023438 119.5625 C 60.5625 120.039063 59.886719 120.335938 58.992188 120.453125 Z M 59.179688 119.53125 C 59.71875 119.457031 60.132813 119.269531 60.414063 118.96875 C 60.703125 118.664063 60.824219 118.296875 60.773438 117.859375 C 60.710938 117.367188 60.507813 116.992188 60.164063 116.734375 C 59.820313 116.472656 59.367188 116.351563 58.804688 116.375 Z M 55.671875 124.59375 C 54.933594 124.445313 54.445313 124.265625 54.203125 124.046875 C 53.953125 123.835938 53.808594 123.535156 53.765625 123.140625 L 53.671875 122.4375 L 54.484375 122.328125 L 54.546875 122.84375 C 54.578125 123.082031 54.667969 123.257813 54.8125 123.375 C 54.960938 123.5 55.277344 123.617188 55.765625 123.734375 L 56.234375 123.828125 L 61.84375 120.9375 L 61.96875 121.859375 L 57.5 124.125 L 62.375 125.234375 L 62.484375 126.15625 Z M 65.269531 134.621094 L 64.238281 134.746094 C 64.394531 134.359375 64.496094 133.996094 64.550781 133.652344 C 64.601563 133.308594 64.613281 132.984375 64.582031 132.683594 C 64.507813 132.160156 64.339844 131.769531 64.082031 131.511719 C 63.820313 131.261719 63.480469 131.160156 63.066406 131.214844 C 62.710938 131.253906 62.457031 131.378906 62.300781 131.589844 C 62.144531 131.796875 62.039063 132.175781 61.988281 132.730469 L 61.941406 133.308594 C 61.878906 134.058594 61.667969 134.625 61.316406 135.011719 C 60.972656 135.40625 60.480469 135.644531 59.847656 135.730469 C 59.074219 135.824219 58.460938 135.660156 58.003906 135.246094 C 57.542969 134.828125 57.257813 134.171875 57.144531 133.277344 C 57.101563 132.933594 57.101563 132.5625 57.144531 132.167969 C 57.183594 131.769531 57.261719 131.363281 57.378906 130.949219 L 58.472656 130.824219 C 58.273438 131.230469 58.136719 131.628906 58.066406 132.027344 C 57.992188 132.421875 57.976563 132.800781 58.019531 133.167969 C 58.089844 133.707031 58.261719 134.121094 58.535156 134.402344 C 58.816406 134.683594 59.179688 134.792969 59.628906 134.730469 C 60.023438 134.6875 60.316406 134.542969 60.503906 134.292969 C 60.699219 134.050781 60.824219 133.671875 60.878906 133.152344 L 60.925781 132.558594 C 60.996094 131.808594 61.183594 131.25 61.488281 130.886719 C 61.789063 130.53125 62.242188 130.316406 62.847656 130.246094 C 63.554688 130.164063 64.136719 130.3125 64.597656 130.699219 C 65.066406 131.09375 65.347656 131.683594 65.441406 132.464844 C 65.480469 132.808594 65.488281 133.15625 65.457031 133.511719 C 65.425781 133.875 65.363281 134.246094 65.269531 134.621094 Z M 65.578125 137.402344 L 63.890625 137.605469 L 64.109375 139.417969 L 63.34375 139.511719 L 63.125 137.699219 L 59.890625 138.105469 C 59.398438 138.15625 59.09375 138.25 58.96875 138.386719 C 58.851563 138.53125 58.816406 138.792969 58.859375 139.167969 L 58.96875 140.058594 L 58.140625 140.152344 L 58.03125 139.261719 C 57.945313 138.574219 58.03125 138.082031 58.28125 137.792969 C 58.539063 137.5 59.039063 137.3125 59.78125 137.230469 L 63.015625 136.824219 L 62.9375 136.167969 L 63.703125 136.074219 L 63.78125 136.730469 L 65.46875 136.527344 Z M 63.738281 143.8125 C 63.789063 143.707031 63.820313 143.59375 63.832031 143.46875 C 63.839844 143.34375 63.835938 143.210938 63.816406 143.078125 C 63.753906 142.578125 63.523438 142.210938 63.128906 141.984375 C 62.742188 141.765625 62.210938 141.695313 61.535156 141.78125 L 58.394531 142.171875 L 58.285156 141.28125 L 64.253906 140.546875 L 64.363281 141.4375 L 63.441406 141.546875 C 63.816406 141.691406 64.105469 141.898438 64.316406 142.171875 C 64.535156 142.453125 64.667969 142.800781 64.722656 143.21875 C 64.730469 143.28125 64.738281 143.347656 64.738281 143.421875 C 64.746094 143.503906 64.746094 143.585938 64.738281 143.671875 Z M 62.574219 149.539063 L 62.089844 149.601563 L 61.589844 145.539063 C 60.921875 145.664063 60.433594 145.914063 60.121094 146.289063 C 59.808594 146.664063 59.6875 147.136719 59.761719 147.710938 C 59.800781 148.054688 59.886719 148.375 60.011719 148.679688 C 60.144531 148.992188 60.316406 149.296875 60.527344 149.601563 L 59.621094 149.710938 C 59.421875 149.398438 59.265625 149.078125 59.152344 148.757813 C 59.035156 148.433594 58.957031 148.101563 58.917969 147.757813 C 58.8125 146.902344 59.003906 146.1875 59.496094 145.617188 C 59.984375 145.054688 60.707031 144.714844 61.667969 144.601563 C 62.636719 144.484375 63.433594 144.632813 64.058594 145.039063 C 64.691406 145.445313 65.0625 146.054688 65.167969 146.867188 C 65.25 147.585938 65.058594 148.183594 64.589844 148.664063 C 64.128906 149.140625 63.457031 149.433594 62.574219 149.539063 Z M 62.746094 148.632813 C 63.285156 148.558594 63.703125 148.371094 63.996094 148.070313 C 64.285156 147.765625 64.40625 147.402344 64.355469 146.976563 C 64.292969 146.476563 64.082031 146.089844 63.730469 145.820313 C 63.386719 145.558594 62.925781 145.445313 62.355469 145.476563 Z M 63.238281 155.597656 L 62.753906 155.660156 L 62.300781 151.582031 C 61.632813 151.695313 61.144531 151.933594 60.832031 152.300781 C 60.519531 152.675781 60.394531 153.152344 60.457031 153.738281 C 60.496094 154.070313 60.582031 154.386719 60.707031 154.691406 C 60.832031 155.003906 61.003906 155.308594 61.222656 155.613281 L 60.300781 155.722656 C 60.101563 155.410156 59.945313 155.089844 59.832031 154.769531 C 59.714844 154.445313 59.644531 154.117188 59.613281 153.785156 C 59.519531 152.917969 59.714844 152.207031 60.207031 151.644531 C 60.707031 151.082031 61.433594 150.746094 62.394531 150.644531 C 63.363281 150.539063 64.160156 150.691406 64.785156 151.097656 C 65.417969 151.511719 65.785156 152.128906 65.878906 152.941406 C 65.949219 153.660156 65.746094 154.257813 65.269531 154.738281 C 64.800781 155.214844 64.121094 155.503906 63.238281 155.597656 Z M 63.441406 154.675781 C 63.972656 154.601563 64.382813 154.417969 64.675781 154.128906 C 64.964844 153.835938 65.089844 153.476563 65.050781 153.050781 C 64.988281 152.550781 64.785156 152.164063 64.441406 151.894531 C 64.097656 151.621094 63.648438 151.496094 63.097656 151.519531 Z M 67.9375 157.433594 L 66.25 157.621094 L 66.453125 159.449219 L 65.6875 159.527344 L 65.484375 157.699219 L 62.234375 158.058594 C 61.753906 158.109375 61.445313 158.203125 61.3125 158.339844 C 61.1875 158.472656 61.144531 158.730469 61.1875 159.105469 L 61.296875 160.011719 L 60.46875 160.105469 L 60.359375 159.199219 C 60.285156 158.511719 60.375 158.019531 60.625 157.730469 C 60.882813 157.449219 61.382813 157.265625 62.125 157.183594 L 65.375 156.824219 L 65.3125 156.167969 L 66.078125 156.089844 L 66.140625 156.746094 L 67.828125 156.558594 Z M 67.9375 157.433594 "/>
<path style=" stroke:none;fill-rule:evenodd;fill:rgb(20%,20%,20%);fill-opacity:1;" d="M 60.726563 95.332031 L 60.851563 96.300781 L 53.460938 97.238281 C 52.492188 97.351563 51.773438 97.273438 51.304688 97.003906 C 50.828125 96.730469 50.539063 96.230469 50.445313 95.503906 L 50.398438 95.128906 L 51.304688 95.003906 L 51.335938 95.316406 C 51.390625 95.742188 51.5625 96.027344 51.851563 96.175781 C 52.144531 96.320313 52.640625 96.351563 53.335938 96.269531 Z M 58.664063 100.59375 C 58.601563 100.113281 58.34375 99.757813 57.898438 99.53125 C 57.460938 99.3125 56.886719 99.25 56.179688 99.34375 C 55.460938 99.425781 54.914063 99.628906 54.539063 99.953125 C 54.164063 100.285156 54.007813 100.691406 54.070313 101.171875 C 54.121094 101.640625 54.367188 101.984375 54.804688 102.203125 C 55.25 102.429688 55.835938 102.503906 56.554688 102.421875 C 57.261719 102.328125 57.804688 102.113281 58.179688 101.78125 C 58.554688 101.457031 58.714844 101.0625 58.664063 100.59375 Z M 59.492188 100.5 C 59.585938 101.257813 59.382813 101.890625 58.882813 102.390625 C 58.382813 102.898438 57.640625 103.21875 56.664063 103.34375 C 55.683594 103.457031 54.886719 103.328125 54.273438 102.953125 C 53.667969 102.585938 53.320313 102.023438 53.226563 101.265625 C 53.121094 100.484375 53.320313 99.84375 53.820313 99.34375 C 54.328125 98.84375 55.074219 98.535156 56.054688 98.421875 C 57.03125 98.296875 57.824219 98.414063 58.429688 98.78125 C 59.03125 99.144531 59.386719 99.71875 59.492188 100.5 Z M 60.070313 108.332031 L 59.164063 108.441406 C 59.289063 108.167969 59.371094 107.902344 59.414063 107.644531 C 59.453125 107.382813 59.460938 107.121094 59.429688 106.863281 C 59.355469 106.289063 59.101563 105.867188 58.664063 105.597656 C 58.226563 105.335938 57.640625 105.253906 56.914063 105.347656 C 56.183594 105.429688 55.636719 105.652344 55.273438 106.019531 C 54.90625 106.394531 54.761719 106.867188 54.835938 107.441406 C 54.867188 107.699219 54.933594 107.949219 55.039063 108.191406 C 55.140625 108.429688 55.28125 108.664063 55.460938 108.894531 L 54.570313 109.003906 C 54.402344 108.773438 54.265625 108.527344 54.164063 108.269531 C 54.070313 108.007813 54.007813 107.730469 53.976563 107.441406 C 53.871094 106.628906 54.070313 105.949219 54.570313 105.410156 C 55.078125 104.867188 55.820313 104.539063 56.789063 104.425781 C 57.757813 104.300781 58.546875 104.441406 59.164063 104.847656 C 59.789063 105.261719 60.148438 105.886719 60.242188 106.722656 C 60.28125 106.992188 60.289063 107.261719 60.257813 107.535156 C 60.226563 107.816406 60.164063 108.082031 60.070313 108.332031 Z M 62.8125 109.511719 L 62.921875 110.402344 L 58.015625 110.996094 L 60.921875 113.324219 L 61.0625 114.449219 L 57.90625 111.949219 L 55.09375 115.292969 L 54.953125 114.152344 L 57.546875 111.058594 L 54.625 111.417969 L 54.515625 110.527344 Z M 58.992188 120.453125 L 58.523438 120.5 L 58.023438 116.4375 C 57.355469 116.5625 56.867188 116.8125 56.554688 117.1875 C 56.25 117.570313 56.136719 118.050781 56.210938 118.625 C 56.25 118.96875 56.335938 119.289063 56.460938 119.59375 C 56.59375 119.894531 56.765625 120.191406 56.976563 120.484375 L 56.070313 120.609375 C 55.871094 120.304688 55.710938 119.992188 55.585938 119.671875 C 55.46875 119.347656 55.390625 119.015625 55.351563 118.671875 C 55.246094 117.816406 55.4375 117.101563 55.929688 116.53125 C 56.417969 115.96875 57.140625 115.628906 58.101563 115.515625 C 59.070313 115.398438 59.867188 115.539063 60.492188 115.9375 C 61.125 116.34375 61.496094 116.945313 61.601563 117.75 C 61.683594 118.476563 61.492188 119.082031 61.023438 119.5625 C 60.5625 120.039063 59.886719 120.335938 58.992188 120.453125 Z M 59.179688 119.53125 C 59.71875 119.457031 60.132813 119.269531 60.414063 118.96875 C 60.703125 118.664063 60.824219 118.296875 60.773438 117.859375 C 60.710938 117.367188 60.507813 116.992188 60.164063 116.734375 C 59.820313 116.472656 59.367188 116.351563 58.804688 116.375 Z M 55.671875 124.59375 C 54.933594 124.445313 54.445313 124.265625 54.203125 124.046875 C 53.953125 123.835938 53.808594 123.535156 53.765625 123.140625 L 53.671875 122.4375 L 54.484375 122.328125 L 54.546875 122.84375 C 54.578125 123.082031 54.667969 123.257813 54.8125 123.375 C 54.960938 123.5 55.277344 123.617188 55.765625 123.734375 L 56.234375 123.828125 L 61.84375 120.9375 L 61.96875 121.859375 L 57.5 124.125 L 62.375 125.234375 L 62.484375 126.15625 Z M 65.269531 134.621094 L 64.238281 134.746094 C 64.394531 134.359375 64.496094 133.996094 64.550781 133.652344 C 64.601563 133.308594 64.613281 132.984375 64.582031 132.683594 C 64.507813 132.160156 64.339844 131.769531 64.082031 131.511719 C 63.820313 131.261719 63.480469 131.160156 63.066406 131.214844 C 62.710938 131.253906 62.457031 131.378906 62.300781 131.589844 C 62.144531 131.796875 62.039063 132.175781 61.988281 132.730469 L 61.941406 133.308594 C 61.878906 134.058594 61.667969 134.625 61.316406 135.011719 C 60.972656 135.40625 60.480469 135.644531 59.847656 135.730469 C 59.074219 135.824219 58.460938 135.660156 58.003906 135.246094 C 57.542969 134.828125 57.257813 134.171875 57.144531 133.277344 C 57.101563 132.933594 57.101563 132.5625 57.144531 132.167969 C 57.183594 131.769531 57.261719 131.363281 57.378906 130.949219 L 58.472656 130.824219 C 58.273438 131.230469 58.136719 131.628906 58.066406 132.027344 C 57.992188 132.421875 57.976563 132.800781 58.019531 133.167969 C 58.089844 133.707031 58.261719 134.121094 58.535156 134.402344 C 58.816406 134.683594 59.179688 134.792969 59.628906 134.730469 C 60.023438 134.6875 60.316406 134.542969 60.503906 134.292969 C 60.699219 134.050781 60.824219 133.671875 60.878906 133.152344 L 60.925781 132.558594 C 60.996094 131.808594 61.183594 131.25 61.488281 130.886719 C 61.789063 130.53125 62.242188 130.316406 62.847656 130.246094 C 63.554688 130.164063 64.136719 130.3125 64.597656 130.699219 C 65.066406 131.09375 65.347656 131.683594 65.441406 132.464844 C 65.480469 132.808594 65.488281 133.15625 65.457031 133.511719 C 65.425781 133.875 65.363281 134.246094 65.269531 134.621094 Z M 65.578125 137.402344 L 63.890625 137.605469 L 64.109375 139.417969 L 63.34375 139.511719 L 63.125 137.699219 L 59.890625 138.105469 C 59.398438 138.15625 59.09375 138.25 58.96875 138.386719 C 58.851563 138.53125 58.816406 138.792969 58.859375 139.167969 L 58.96875 140.058594 L 58.140625 140.152344 L 58.03125 139.261719 C 57.945313 138.574219 58.03125 138.082031 58.28125 137.792969 C 58.539063 137.5 59.039063 137.3125 59.78125 137.230469 L 63.015625 136.824219 L 62.9375 136.167969 L 63.703125 136.074219 L 63.78125 136.730469 L 65.46875 136.527344 Z M 63.738281 143.8125 C 63.789063 143.707031 63.820313 143.59375 63.832031 143.46875 C 63.839844 143.34375 63.835938 143.210938 63.816406 143.078125 C 63.753906 142.578125 63.523438 142.210938 63.128906 141.984375 C 62.742188 141.765625 62.210938 141.695313 61.535156 141.78125 L 58.394531 142.171875 L 58.285156 141.28125 L 64.253906 140.546875 L 64.363281 141.4375 L 63.441406 141.546875 C 63.816406 141.691406 64.105469 141.898438 64.316406 142.171875 C 64.535156 142.453125 64.667969 142.800781 64.722656 143.21875 C 64.730469 143.28125 64.738281 143.347656 64.738281 143.421875 C 64.746094 143.503906 64.746094 143.585938 64.738281 143.671875 Z M 62.574219 149.539063 L 62.089844 149.601563 L 61.589844 145.539063 C 60.921875 145.664063 60.433594 145.914063 60.121094 146.289063 C 59.808594 146.664063 59.6875 147.136719 59.761719 147.710938 C 59.800781 148.054688 59.886719 148.375 60.011719 148.679688 C 60.144531 148.992188 60.316406 149.296875 60.527344 149.601563 L 59.621094 149.710938 C 59.421875 149.398438 59.265625 149.078125 59.152344 148.757813 C 59.035156 148.433594 58.957031 148.101563 58.917969 147.757813 C 58.8125 146.902344 59.003906 146.1875 59.496094 145.617188 C 59.984375 145.054688 60.707031 144.714844 61.667969 144.601563 C 62.636719 144.484375 63.433594 144.632813 64.058594 145.039063 C 64.691406 145.445313 65.0625 146.054688 65.167969 146.867188 C 65.25 147.585938 65.058594 148.183594 64.589844 148.664063 C 64.128906 149.140625 63.457031 149.433594 62.574219 149.539063 Z M 62.746094 148.632813 C 63.285156 148.558594 63.703125 148.371094 63.996094 148.070313 C 64.285156 147.765625 64.40625 147.402344 64.355469 146.976563 C 64.292969 146.476563 64.082031 146.089844 63.730469 145.820313 C 63.386719 145.558594 62.925781 145.445313 62.355469 145.476563 Z M 63.238281 155.597656 L 62.753906 155.660156 L 62.300781 151.582031 C 61.632813 151.695313 61.144531 151.933594 60.832031 152.300781 C 60.519531 152.675781 60.394531 153.152344 60.457031 153.738281 C 60.496094 154.070313 60.582031 154.386719 60.707031 154.691406 C 60.832031 155.003906 61.003906 155.308594 61.222656 155.613281 L 60.300781 155.722656 C 60.101563 155.410156 59.945313 155.089844 59.832031 154.769531 C 59.714844 154.445313 59.644531 154.117188 59.613281 153.785156 C 59.519531 152.917969 59.714844 152.207031 60.207031 151.644531 C 60.707031 151.082031 61.433594 150.746094 62.394531 150.644531 C 63.363281 150.539063 64.160156 150.691406 64.785156 151.097656 C 65.417969 151.511719 65.785156 152.128906 65.878906 152.941406 C 65.949219 153.660156 65.746094 154.257813 65.269531 154.738281 C 64.800781 155.214844 64.121094 155.503906 63.238281 155.597656 Z M 63.441406 154.675781 C 63.972656 154.601563 64.382813 154.417969 64.675781 154.128906 C 64.964844 153.835938 65.089844 153.476563 65.050781 153.050781 C 64.988281 152.550781 64.785156 152.164063 64.441406 151.894531 C 64.097656 151.621094 63.648438 151.496094 63.097656 151.519531 Z M 67.9375 157.433594 L 66.25 157.621094 L 66.453125 159.449219 L 65.6875 159.527344 L 65.484375 157.699219 L 62.234375 158.058594 C 61.753906 158.109375 61.445313 158.203125 61.3125 158.339844 C 61.1875 158.472656 61.144531 158.730469 61.1875 159.105469 L 61.296875 160.011719 L 60.46875 160.105469 L 60.359375 159.199219 C 60.285156 158.511719 60.375 158.019531 60.625 157.730469 C 60.882813 157.449219 61.382813 157.265625 62.125 157.183594 L 65.375 156.824219 L 65.3125 156.167969 L 66.078125 156.089844 L 66.140625 156.746094 L 67.828125 156.558594 Z M 67.9375 157.433594 "/>
</g>
</svg>

