<?xml version="1.0" encoding="UTF-8"?>
<svg xmlns="http://www.w3.org/2000/svg" xmlns:xlink="http://www.w3.org/1999/xlink" width="256pt" height="256pt" viewBox="0 0 256 256" version="1.1">
<g id="surface2">
<rect x="0" y="0" width="256" height="256" style="fill:rgb(60%,70.196078%,80%);fill-opacity:1;stroke:none;"/>
<path style=" stroke:none;fill-rule:evenodd;fill:rgb(94.901961%,93.72549%,91.372549%);fill-opacity:1;" d="M -4 -4 L 259 -4 L -4 -4 L 259 -4 L 259 259 L -4 259 Z M -4 -4 "/>
<path style=" stroke:none;fill-rule:evenodd;fill:rgb(70.980392%,82.352941%,61.176471%);fill-opacity:1;" d="M 1.25 150.75 L 12.75 203.75 L 9 248 L 10.5 256.25 L 13.34375 260 L 52.90625 260 L 52.25 258.75 L 41.25 222.25 L 48.75 208.75 L 60.5 200.25 L 79.75 197 L 101.5 170.25 L 134.5 166.5 L 146 170.75 L 150.5 170.75 L 159.25 165 L 179.5 161 L 198.75 163.5 L 203.488281 167 L 209.5 164.5 L 226.25 134.75 L 231.988281 133 L 259.738281 146 L 260 146.703125 L 260 260 L 260 15.152344 L 129.25 52.75 L 89.75 61.75 L 99.5 105.75 L 96 109.75 L 54.25 121.25 L 58.75 140 L 27.25 147.75 L 21 130.25 L -2.261719 137 Z M 1.25 150.75 "/>
<path style=" stroke:none;fill-rule:evenodd;fill:rgb(94.901961%,93.72549%,91.372549%);fill-opacity:1;" d="M -4 260 L 13.34375 260 L 10.5 256.25 L 9 248 L 12.75 203.75 L -2.261719 137 L 21 130.25 L 27.25 147.75 L 58.75 140 L 54.25 121.25 L 44.269531 79.371094 L -4 91.085938 Z M -4 260 "/>
<path style="fill:none;stroke-width:1;stroke-linecap:round;stroke-linejoin:round;stroke:rgb(89.019608%,87.058824%,83.137255%);stroke-opacity:1;stroke-miterlimit:10;" d="M -4 260 L 13.34375 260 L 10.5 256.25 L 9 248 L 12.75 203.75 L -2.261719 137 L 21 130.25 L 27.25 147.75 L 58.75 140 L 54.25 121.25 L 44.269531 79.371094 L -4 91.085938 L -4 260 "/>
<path style=" stroke:none;fill-rule:evenodd;fill:rgb(79.607843%,84.705882%,76.470588%);fill-opacity:1;" d="M 131.386719 131.054688 L 133.886719 143.832031 L 140.546875 165.230469 L 148.597656 167.167969 L 168.324219 159.394531 L 181.386719 151.058594 L 211.660156 154.117188 L 225 133.007813 L 232.5 130.78125 L 260 144.667969 L 260 260 L 260 136.894531 L 248.613281 130.503906 L 219.996094 119.945313 L 196.9375 111.894531 L 181.386719 115.503906 L 166.933594 101.332031 L 154.710938 97.445313 L 133.609375 98.007813 L 124.722656 119.394531 Z M 131.386719 131.054688 "/>
<path style=" stroke:none;fill-rule:evenodd;fill:rgb(87.058824%,82.352941%,67.45098%);fill-opacity:1;" d="M 52.949219 258.304688 L 53.851563 260 L 178.066406 260 L 157.902344 212.640625 L 107.386719 217.390625 L 100.949219 195.554688 L 62.664063 200.503906 L 49.75 208.742188 L 41.964844 223.042969 Z M 52.949219 258.304688 "/>
<path style=" stroke:none;fill-rule:evenodd;fill:rgb(79.607843%,84.705882%,76.470588%);fill-opacity:1;" d="M 202.210938 97.734375 L 216.660156 105.78125 L 260 123.742188 L 260 115.914063 L 252.210938 111.621094 L 223.597656 97.734375 L 211.660156 85.230469 L 200.273438 82.734375 L 195.550781 91.332031 Z M 202.210938 97.734375 "/>
<path style=" stroke:none;fill-rule:evenodd;fill:rgb(87.058824%,81.960784%,67.058824%);fill-opacity:1;" d="M 44.996094 234.5 L 52.082031 252.84375 L 63.738281 248.542969 L 56.917969 229.90625 Z M 44.996094 234.5 "/>
<path style=" stroke:none;fill-rule:evenodd;fill:rgb(60%,70.196078%,80%);fill-opacity:1;" d="M 172.324219 63.59375 L 175.523438 69.992188 L 178.121094 74.59375 L 186.921875 77.59375 L 188.324219 71.992188 L 180.722656 64.792969 L 179.523438 58.394531 L 176.722656 52.792969 L 174.722656 56.992188 Z M 172.324219 63.59375 "/>
<path style="fill:none;stroke-width:1;stroke-linecap:round;stroke-linejoin:round;stroke:rgb(70.196078%,77.647059%,83.137255%);stroke-opacity:1;stroke-miterlimit:10;" d="M 172.324219 63.59375 L 175.523438 69.992188 L 178.121094 74.59375 L 186.921875 77.59375 L 188.324219 71.992188 L 180.722656 64.792969 L 179.523438 58.394531 L 176.722656 52.792969 L 174.722656 56.992188 L 172.324219 63.59375 "/>
<path style=" stroke:none;fill-rule:evenodd;fill:rgb(60%,70.196078%,80%);fill-opacity:1;" d="M 21.722656 173.996094 L 23.320313 177.195313 L 23.722656 183.191406 L 22.722656 190.394531 L 22.722656 194.992188 L 24.523438 201.792969 L 29.523438 204.394531 L 33.214844 202.3125 L 35.691406 196.023438 L 42.523438 188.792969 L 54.921875 183.191406 L 62.722656 178.195313 L 71.523438 172.796875 L 80.824219 164.523438 L 90.921875 157.195313 L 100.121094 153.792969 L 110.722656 149.195313 L 113.722656 143.996094 L 114.523438 135.59375 L 110.921875 127.59375 L 106.121094 122.792969 L 100.921875 119.59375 L 93.324219 119.792969 L 87.324219 122.792969 L 81.523438 126.191406 L 77.324219 130.394531 L 73.722656 137.792969 L 68.921875 146.996094 L 59.523438 150.195313 L 46.921875 151.992188 L 36.921875 153.191406 L 30.921875 158.792969 L 26.722656 166.394531 L 23.523438 168.792969 Z M 21.722656 173.996094 "/>
<path style="fill:none;stroke-width:1;stroke-linecap:round;stroke-linejoin:round;stroke:rgb(70.196078%,77.647059%,83.137255%);stroke-opacity:1;stroke-miterlimit:10;" d="M 21.722656 173.996094 L 23.320313 177.195313 L 23.722656 183.191406 L 22.722656 190.394531 L 22.722656 194.992188 L 24.523438 201.792969 L 29.523438 204.394531 L 33.214844 202.3125 L 35.691406 196.023438 L 42.523438 188.792969 L 54.921875 183.191406 L 62.722656 178.195313 L 71.523438 172.796875 L 80.824219 164.523438 L 90.921875 157.195313 L 100.121094 153.792969 L 110.722656 149.195313 L 113.722656 143.996094 L 114.523438 135.59375 L 110.921875 127.59375 L 106.121094 122.792969 L 100.921875 119.59375 L 93.324219 119.792969 L 87.324219 122.792969 L 81.523438 126.191406 L 77.324219 130.394531 L 73.722656 137.792969 L 68.921875 146.996094 L 59.523438 150.195313 L 46.921875 151.992188 L 36.921875 153.191406 L 30.921875 158.792969 L 26.722656 166.394531 L 23.523438 168.792969 L 21.722656 173.996094 "/>
<path style=" stroke:none;fill-rule:evenodd;fill:rgb(60%,70.196078%,80%);fill-opacity:1;" d="M 109.390625 2.414063 L 126.335938 5.605469 L 134.449219 12.832031 L 141.949219 16.71875 L 147.21875 16.621094 L 154.023438 9.671875 L 155.417969 -3.191406 L 223.101563 -4 L 225.992188 -3.609375 L 234.054688 4.363281 L 236.410156 10.613281 L 240.6875 21.335938 L 241.9375 29.25 L 245.546875 38.839844 L 249.714844 47.3125 L 256.796875 58.007813 L 259 60.445313 L 259 47.332031 L 256.519531 44.953125 L 249.714844 29.804688 L 247.628906 21.613281 L 244.054688 4.636719 L 236.105469 -4 L 107.480469 -4 L 106.613281 -1.25 Z M 109.390625 2.414063 "/>
<path style="fill:none;stroke-width:1;stroke-linecap:round;stroke-linejoin:round;stroke:rgb(70.196078%,77.647059%,83.137255%);stroke-opacity:1;stroke-miterlimit:10;" d="M 109.390625 2.414063 L 126.335938 5.605469 L 134.449219 12.832031 L 141.949219 16.71875 L 147.21875 16.621094 L 154.023438 9.671875 L 155.417969 -3.191406 L 223.101563 -4 L 225.992188 -3.609375 L 234.054688 4.363281 L 236.410156 10.613281 L 240.6875 21.335938 L 241.9375 29.25 L 245.546875 38.839844 L 249.714844 47.3125 L 256.796875 58.007813 L 259 60.445313 L 259 47.332031 L 256.519531 44.953125 L 249.714844 29.804688 L 247.628906 21.613281 L 244.054688 4.636719 L 236.105469 -4 L 107.480469 -4 L 106.613281 -1.25 L 109.390625 2.414063 "/>
<path style="fill:none;stroke-width:2;stroke-linecap:round;stroke-linejoin:round;stroke:rgb(60%,70.196078%,80%);stroke-opacity:1;stroke-miterlimit:10;" d="M 258 51.847656 L 253.125 46.394531 L 246.324219 27.992188 L 238.722656 4.394531 L 232.933594 -3 "/>
<path style="fill:none;stroke-width:2;stroke-linecap:round;stroke-linejoin:round;stroke:rgb(60%,70.196078%,80%);stroke-opacity:1;stroke-miterlimit:10;" d="M 116.851563 0.78125 L 121.429688 1.453125 L 127.015625 1.789063 L 133.722656 -0.667969 L 139.0625 -3 "/>
<path style="fill:none;stroke-width:1;stroke-linecap:round;stroke-linejoin:round;stroke:rgb(100%,100%,100%);stroke-opacity:1;stroke-dasharray:2,3;stroke-miterlimit:10;" d="M 100.109375 109.769531 L 99.636719 112.984375 "/>
<path style="fill:none;stroke-width:1;stroke-linecap:round;stroke-linejoin:round;stroke:rgb(100%,100%,100%);stroke-opacity:1;stroke-dasharray:2,3;stroke-miterlimit:10;" d="M 196.257813 40.589844 L 193.460938 40.875 L 193.519531 41.816406 "/>
<path style="fill:none;stroke-width:1;stroke-linecap:round;stroke-linejoin:round;stroke:rgb(100%,100%,100%);stroke-opacity:1;stroke-dasharray:2,3;stroke-miterlimit:10;" d="M 3.671875 174.5625 L 7.882813 175.390625 "/>
<path style="fill:none;stroke-width:1;stroke-linecap:round;stroke-linejoin:round;stroke:rgb(100%,100%,100%);stroke-opacity:1;stroke-dasharray:2,3;stroke-miterlimit:10;" d="M 116.015625 121.613281 L 114.238281 125.597656 "/>
<path style="fill:none;stroke-width:1;stroke-linecap:round;stroke-linejoin:round;stroke:rgb(100%,100%,100%);stroke-opacity:1;stroke-dasharray:2,3;stroke-miterlimit:10;" d="M 209.824219 76.371094 L 209.203125 71.671875 L 211.167969 68.105469 L 211.628906 67.175781 "/>
<path style="fill:none;stroke-width:1;stroke-linecap:round;stroke-linejoin:round;stroke:rgb(100%,100%,100%);stroke-opacity:1;stroke-dasharray:2,3;stroke-miterlimit:10;" d="M 192.230469 56.207031 L 188.769531 45.734375 "/>
<path style="fill:none;stroke-width:1;stroke-linecap:round;stroke-linejoin:round;stroke:rgb(100%,100%,100%);stroke-opacity:1;stroke-dasharray:2,3;stroke-miterlimit:10;" d="M 226.84375 78.34375 L 230.386719 84.882813 L 236.125 92.019531 "/>
<path style="fill:none;stroke-width:1;stroke-linecap:round;stroke-linejoin:round;stroke:rgb(100%,100%,100%);stroke-opacity:1;stroke-dasharray:2,3;stroke-miterlimit:10;" d="M 193.519531 41.816406 L 191.03125 43.589844 L 188.769531 45.734375 L 186.949219 46.015625 L 182.75 47.15625 L 178.351563 51.753906 "/>
<path style="fill:none;stroke-width:1;stroke-linecap:round;stroke-linejoin:round;stroke:rgb(100%,100%,100%);stroke-opacity:1;stroke-dasharray:2,3;stroke-miterlimit:10;" d="M 211.273438 64.355469 L 217.054688 57.609375 L 212.558594 53.613281 L 209.628906 47.96875 "/>
<path style="fill:none;stroke-width:1;stroke-linecap:round;stroke-linejoin:round;stroke:rgb(100%,100%,100%);stroke-opacity:1;stroke-dasharray:2,3;stroke-miterlimit:10;" d="M 227.40625 54.226563 L 227.367188 51.976563 L 226.992188 49.808594 L 226.261719 47.664063 L 224.109375 46.582031 L 220.453125 46 L 217.21875 43.15625 L 212.753906 38.75 "/>
<path style="fill:none;stroke-width:1;stroke-linecap:round;stroke-linejoin:round;stroke:rgb(100%,100%,100%);stroke-opacity:1;stroke-dasharray:2,3;stroke-miterlimit:10;" d="M 126.339844 44.648438 L 132.515625 43.015625 L 143.355469 39.457031 L 145.492188 38.457031 L 149.542969 37.378906 "/>
<path style="fill:none;stroke-width:1;stroke-linecap:round;stroke-linejoin:round;stroke:rgb(100%,100%,100%);stroke-opacity:1;stroke-dasharray:2,3;stroke-miterlimit:10;" d="M 86.257813 57.015625 L 87.726563 54.210938 L 98.457031 52.019531 L 109.832031 49.011719 "/>
<path style="fill:none;stroke-width:1;stroke-linecap:round;stroke-linejoin:round;stroke:rgb(100%,100%,100%);stroke-opacity:1;stroke-dasharray:2,3;stroke-miterlimit:10;" d="M 21.683594 128.289063 L 17.816406 133.125 L 15.640625 135.914063 L 15.203125 139.222656 L 15.8125 144.019531 L 19.386719 150.382813 L 20.867188 150.730469 "/>
<path style="fill:none;stroke-width:1;stroke-linecap:round;stroke-linejoin:round;stroke:rgb(100%,100%,100%);stroke-opacity:1;stroke-dasharray:2,3;stroke-miterlimit:10;" d="M 257 61.136719 L 233.78125 67.308594 L 231.109375 56.542969 L 229.601563 53.085938 L 228.488281 51.96875 L 227.367188 51.976563 "/>
<path style="fill:none;stroke-width:1;stroke-linecap:round;stroke-linejoin:round;stroke:rgb(100%,100%,100%);stroke-opacity:1;stroke-dasharray:2,3;stroke-miterlimit:10;" d="M 175.414063 50.410156 L 173.609375 52.898438 L 172.210938 56.523438 L 171.554688 59.40625 L 171.269531 63.378906 L 171.757813 67.089844 L 173.8125 72.65625 L 177.808594 78.796875 L 179.835938 78.511719 L 183.035156 79.371094 L 184.320313 80.570313 L 184.949219 82.652344 L 185.632813 83.910156 L 187.089844 84.566406 L 190.375 85.28125 L 192.632813 86.765625 L 194.859375 88.625 L 196.773438 89.621094 L 200.054688 90.050781 L 200.828125 88.164063 L 202.769531 87.394531 L 204.769531 85.253906 L 205.738281 82.710938 L 205.109375 79.710938 L 206.796875 77.515625 L 209.824219 76.371094 L 213.964844 76.628906 L 217.363281 77.683594 L 219.503906 79.113281 L 226.84375 78.34375 L 228.84375 77 L 232.183594 72.089844 L 233.78125 67.308594 "/>
<path style="fill:none;stroke-width:1;stroke-linecap:round;stroke-linejoin:round;stroke:rgb(100%,100%,100%);stroke-opacity:1;stroke-dasharray:2,3;stroke-miterlimit:10;" d="M 120.804688 138.699219 L 122.234375 143.089844 L 121.875 148.515625 L 116.769531 151.621094 L 106.882813 154.40625 L 99.992188 155.90625 L 91.605469 158.652344 L 81.859375 165.648438 L 74.4375 171.289063 L 62.585938 182.890625 L 49.125 187.425781 L 41.523438 192.066406 L 37.167969 196.421875 L 34.703125 202.488281 L 32.742188 206.59375 L 30.496094 208.378906 L 27.710938 209.628906 L 23.886719 209.453125 L 20.570313 207.238281 L 19.710938 205.34375 L 17.679688 195.171875 L 16.964844 186.996094 L 18.339844 182.539063 L 19.464844 178.679688 L 18.925781 174.859375 L 17.320313 171.578125 L 16 166.113281 L 19.105469 162.832031 L 25.402344 161.011719 L 28.746094 157.902344 L 30.597656 152.90625 L 33.457031 150.121094 L 37.917969 148.621094 L 41.308594 149.050781 L 48.628906 148.515625 L 52.910156 146.90625 L 58.730469 146.730469 L 68.332031 142.019531 L 71.828125 138.269531 L 74.292969 132.878906 L 80.648438 124.3125 L 88.109375 117.710938 L 94.53125 115.921875 L 99.453125 115.085938 L 104.171875 118.246094 L 109.632813 121.742188 L 114.238281 125.597656 L 120.804688 138.699219 "/>
<path style="fill:none;stroke-width:1;stroke-linecap:round;stroke-linejoin:round;stroke:rgb(100%,100%,100%);stroke-opacity:1;stroke-dasharray:2,3;stroke-miterlimit:10;" d="M 257 140.054688 L 255.109375 138.746094 L 221.113281 125.246094 L 200.863281 131.496094 L 187.863281 142.496094 L 177.613281 151.742188 L 164.613281 149.246094 L 147.363281 140.492188 L 132.109375 149.171875 "/>
<path style="fill:none;stroke-width:10;stroke-linecap:round;stroke-linejoin:round;stroke:rgb(72.941176%,43.137255%,15.294118%);stroke-opacity:1;stroke-miterlimit:10;" d="M 118.722656 44.78125 L 115.941406 39.082031 L 113.011719 32.632813 L 112.242188 30.824219 L 111.664063 28.28125 L 111.472656 26.667969 L 111.816406 24.894531 L 112.128906 23.625 L 113.167969 22.011719 L 114.472656 21.011719 L 116.050781 20.316406 L 117.707031 20.199219 L 119.785156 20.199219 L 121.632813 20.472656 L 125.328125 21.78125 L 128.945313 23.777344 L 131.371094 25.550781 L 133.484375 27.550781 L 135.101563 29.554688 L 135.910156 31.09375 L 136.414063 32.480469 L 136.757813 34.015625 L 136.742188 35.683594 L 136.257813 37.597656 L 135.835938 38.984375 L 133.339844 42.480469 L 127.144531 46.585938 "/>
<path style="fill:none;stroke-width:10;stroke-linecap:round;stroke-linejoin:round;stroke:rgb(72.941176%,43.137255%,15.294118%);stroke-opacity:1;stroke-miterlimit:10;" d="M 83.585938 -11 L 87.859375 9.417969 L 91.257813 19.417969 L 99.058594 35.417969 L 101.457031 42.214844 L 101.457031 47.816406 L 98.457031 52.019531 L 95.058594 54.816406 "/>
<path style="fill:none;stroke-width:10;stroke-linecap:round;stroke-linejoin:round;stroke:rgb(72.941176%,43.137255%,15.294118%);stroke-opacity:1;stroke-miterlimit:10;" d="M 137.09375 71.726563 L 140.027344 75.292969 L 141.863281 78.636719 L 141.941406 81.90625 L 141.292969 84.6875 L 138.640625 87.585938 L 135.898438 89.179688 L 129.390625 89.886719 L 121.867188 87.660156 L 117.25 85.519531 L 113.625 83.609375 L 109.074219 79.359375 L 106.222656 73.625 L 105.660156 68.816406 L 105.660156 64.816406 L 106.660156 61.417969 L 107.457031 59.417969 L 108.65625 57.816406 L 112.363281 54.21875 "/>
<path style="fill:none;stroke-width:10;stroke-linecap:round;stroke-linejoin:round;stroke:rgb(72.941176%,43.137255%,15.294118%);stroke-opacity:1;stroke-miterlimit:10;" d="M 148.453125 44.125 L 146.835938 40.664063 L 145.492188 38.457031 L 144.386719 36.210938 L 140.859375 29.414063 L 133.058594 22.417969 L 124.058594 18.417969 L 116.457031 17.015625 L 107.058594 14.617188 L 99.058594 9.21875 L 93.058594 -0.183594 L 88.941406 -11 "/>
<path style="fill:none;stroke-width:10;stroke-linecap:round;stroke-linejoin:round;stroke:rgb(72.941176%,43.137255%,15.294118%);stroke-opacity:1;stroke-miterlimit:10;" d="M 193.257813 101.617188 L 179.859375 93.21875 L 173.058594 87.816406 L 166.65625 82.214844 L 163.257813 76.617188 L 161.65625 69.417969 L 161.257813 64.015625 L 162.65625 55.21875 L 165.457031 49.816406 L 168.855469 44.617188 L 175.855469 40.015625 L 197.34375 30.644531 "/>
<path style="fill:none;stroke-width:10;stroke-linecap:round;stroke-linejoin:round;stroke:rgb(72.941176%,43.137255%,15.294118%);stroke-opacity:1;stroke-miterlimit:10;" d="M 93.058594 58.816406 L 96.457031 60.015625 L 98.457031 61.816406 L 101.65625 67.015625 L 104.257813 74.816406 L 107.859375 79.617188 L 112.855469 84.816406 L 118.257813 88.417969 L 126.65625 91.816406 L 134.058594 93.21875 L 144.457031 93.816406 L 154.257813 94.617188 L 163.457031 96.214844 L 175.65625 100.414063 L 206.71875 110.984375 "/>
<path style="fill:none;stroke-width:8;stroke-linecap:round;stroke-linejoin:round;stroke:rgb(75.686275%,70.980392%,61.568627%);stroke-opacity:1;stroke-miterlimit:10;" d="M 43.640625 66.535156 L 44.234375 69.128906 "/>
<path style="fill:none;stroke-width:8;stroke-linecap:round;stroke-linejoin:round;stroke:rgb(75.686275%,70.980392%,61.568627%);stroke-opacity:1;stroke-miterlimit:10;" d="M 209.871094 173.304688 L 210.808594 171.363281 L 213.222656 166.355469 "/>
<path style="fill:none;stroke-width:8;stroke-linecap:round;stroke-linejoin:round;stroke:rgb(75.686275%,70.980392%,61.568627%);stroke-opacity:1;stroke-miterlimit:10;" d="M 216.8125 186.609375 L 217.191406 184.90625 L 219.296875 181.261719 L 220.375 179.394531 "/>
<path style="fill:none;stroke-width:8;stroke-linecap:round;stroke-linejoin:round;stroke:rgb(75.686275%,70.980392%,61.568627%);stroke-opacity:1;stroke-miterlimit:10;" d="M 202.433594 168.875 L 209.871094 173.304688 "/>
<path style="fill:none;stroke-width:8;stroke-linecap:round;stroke-linejoin:round;stroke:rgb(75.686275%,70.980392%,61.568627%);stroke-opacity:1;stroke-miterlimit:10;" d="M 213.222656 166.355469 L 210.515625 167.382813 L 207.371094 168.554688 L 205.761719 168.78125 L 202.433594 168.875 "/>
<path style="fill:none;stroke-width:8;stroke-linecap:round;stroke-linejoin:round;stroke:rgb(75.686275%,70.980392%,61.568627%);stroke-opacity:1;stroke-miterlimit:10;" d="M 212.136719 175.042969 L 213.816406 180.105469 L 216.8125 186.609375 "/>
<path style="fill:none;stroke-width:8;stroke-linecap:round;stroke-linejoin:round;stroke:rgb(75.686275%,70.980392%,61.568627%);stroke-opacity:1;stroke-miterlimit:10;" d="M 141.429688 174.46875 L 144.957031 174.746094 L 151.402344 173.472656 L 153.972656 172.058594 "/>
<path style="fill:none;stroke-width:8;stroke-linecap:round;stroke-linejoin:round;stroke:rgb(75.686275%,70.980392%,61.568627%);stroke-opacity:1;stroke-miterlimit:10;" d="M 49.25 140.347656 L 44.144531 122.148438 "/>
<path style="fill:none;stroke-width:8;stroke-linecap:round;stroke-linejoin:round;stroke:rgb(75.686275%,70.980392%,61.568627%);stroke-opacity:1;stroke-miterlimit:10;" d="M 149.445313 191.726563 L 149.792969 184.609375 L 150.792969 179.425781 L 152.375 175.527344 L 153.972656 172.058594 "/>
<path style="fill:none;stroke-width:8;stroke-linecap:round;stroke-linejoin:round;stroke:rgb(75.686275%,70.980392%,61.568627%);stroke-opacity:1;stroke-miterlimit:10;" d="M 101.679688 193.472656 L 109.972656 214.699219 "/>
<path style="fill:none;stroke-width:8;stroke-linecap:round;stroke-linejoin:round;stroke:rgb(75.686275%,70.980392%,61.568627%);stroke-opacity:1;stroke-miterlimit:10;" d="M 186.765625 190.5 L 185.609375 168.804688 L 185.390625 164.65625 "/>
<path style="fill:none;stroke-width:8;stroke-linecap:round;stroke-linejoin:round;stroke:rgb(75.686275%,70.980392%,61.568627%);stroke-opacity:1;stroke-miterlimit:10;" d="M 230.28125 136.285156 L 234.199219 136.394531 L 257.007813 148.128906 "/>
<path style="fill:none;stroke-width:8;stroke-linecap:round;stroke-linejoin:round;stroke:rgb(75.686275%,70.980392%,61.568627%);stroke-opacity:1;stroke-miterlimit:10;" d="M 192.253906 226.789063 L 205.046875 257.089844 "/>
<path style="fill:none;stroke-width:8;stroke-linecap:round;stroke-linejoin:round;stroke:rgb(75.686275%,70.980392%,61.568627%);stroke-opacity:1;stroke-miterlimit:10;" d="M -9 254.804688 L 6.023438 249.550781 "/>
<path style="fill:none;stroke-width:8;stroke-linecap:round;stroke-linejoin:round;stroke:rgb(75.686275%,70.980392%,61.568627%);stroke-opacity:1;stroke-miterlimit:10;" d="M 213.222656 166.355469 L 219.351563 154.191406 L 224.578125 144.527344 L 227.484375 138.035156 L 230.28125 136.285156 "/>
<path style="fill:none;stroke-width:8;stroke-linecap:round;stroke-linejoin:round;stroke:rgb(75.686275%,70.980392%,61.568627%);stroke-opacity:1;stroke-miterlimit:10;" d="M 189.804688 192.027344 L 186.765625 190.5 L 181.488281 188.273438 L 179.460938 188.183594 L 178.503906 188.488281 L 177.363281 189.226563 L 176.617188 190.089844 L 176.011719 191.441406 L 175.871094 192.582031 L 176.011719 193.65625 L 176.453125 194.796875 L 177.664063 196.148438 L 186.402344 199.933594 L 187.777344 200.054688 L 189.851563 199.316406 L 190.902344 198.332031 L 191.578125 197.011719 L 191.761719 195.257813 L 191.4375 193.964844 L 190.832031 192.949219 L 189.804688 192.027344 "/>
<path style="fill:none;stroke-width:8;stroke-linecap:round;stroke-linejoin:round;stroke:rgb(75.686275%,70.980392%,61.568627%);stroke-opacity:1;stroke-miterlimit:10;" d="M -9 208.449219 L 9.753906 203.226563 "/>
<path style="fill:none;stroke-width:8;stroke-linecap:round;stroke-linejoin:round;stroke:rgb(75.686275%,70.980392%,61.568627%);stroke-opacity:1;stroke-miterlimit:10;" d="M 153.972656 172.058594 L 157.023438 169.550781 L 160.867188 167.257813 L 164.136719 166.164063 L 167.996094 165.601563 L 185.390625 164.65625 L 189.378906 165.015625 L 193.601563 165.628906 L 198.089844 167.207031 L 202.433594 168.875 "/>
<path style="fill:none;stroke-width:8;stroke-linecap:round;stroke-linejoin:round;stroke:rgb(75.686275%,70.980392%,61.568627%);stroke-opacity:1;stroke-miterlimit:10;" d="M 30.773438 70.554688 L 42.382813 122.625 "/>
<path style="fill:none;stroke-width:8;stroke-linecap:round;stroke-linejoin:round;stroke:rgb(75.686275%,70.980392%,61.568627%);stroke-opacity:1;stroke-miterlimit:10;" d="M 10.003906 75.117188 L 21.683594 128.289063 "/>
<path style="fill:none;stroke-width:8;stroke-linecap:round;stroke-linejoin:round;stroke:rgb(75.686275%,70.980392%,61.568627%);stroke-opacity:1;stroke-miterlimit:10;" d="M 219.351563 154.191406 L 264 176.679688 "/>
<path style="fill:none;stroke-width:8;stroke-linecap:round;stroke-linejoin:round;stroke:rgb(75.686275%,70.980392%,61.568627%);stroke-opacity:1;stroke-miterlimit:10;" d="M 91.496094 194.210938 L 101.679688 193.472656 L 147.957031 188.980469 "/>
<path style="fill:none;stroke-width:8;stroke-linecap:round;stroke-linejoin:round;stroke:rgb(75.686275%,70.980392%,61.568627%);stroke-opacity:1;stroke-miterlimit:10;" d="M 42.382813 122.625 L 44.144531 122.148438 L 97.507813 107.828125 "/>
<path style="fill:none;stroke-width:8;stroke-linecap:round;stroke-linejoin:round;stroke:rgb(75.686275%,70.980392%,61.568627%);stroke-opacity:1;stroke-miterlimit:10;" d="M 95.246094 215.746094 L 109.972656 214.699219 L 159.535156 209.898438 "/>
<path style="fill:none;stroke-width:8;stroke-linecap:round;stroke-linejoin:round;stroke:rgb(75.686275%,70.980392%,61.568627%);stroke-opacity:1;stroke-miterlimit:10;" d="M 70.941406 -5.71875 L 77.398438 18.765625 L 86.257813 57.015625 "/>
<path style="fill:none;stroke-width:8;stroke-linecap:round;stroke-linejoin:round;stroke:rgb(75.686275%,70.980392%,61.568627%);stroke-opacity:1;stroke-miterlimit:10;" d="M 216.8125 186.609375 L 218.964844 195.148438 L 233.9375 219.820313 L 251.578125 241.429688 "/>
<path style="fill:none;stroke-width:8;stroke-linecap:round;stroke-linejoin:round;stroke:rgb(75.686275%,70.980392%,61.568627%);stroke-opacity:1;stroke-miterlimit:10;" d="M 91.496094 194.210938 L 89.792969 193.6875 L 88.769531 192.980469 L 87.558594 191.257813 L 87.253906 190.210938 L 87.230469 188.675781 L 87.535156 187.535156 L 88.046875 186.582031 L 103.03125 171.785156 L 138.167969 167.816406 "/>
<path style="fill:none;stroke-width:8;stroke-linecap:round;stroke-linejoin:round;stroke:rgb(75.686275%,70.980392%,61.568627%);stroke-opacity:1;stroke-miterlimit:10;" d="M 50.539063 -6.71875 L 56.285156 22.859375 L 64.65625 62.015625 "/>
<path style="fill:none;stroke-width:8;stroke-linecap:round;stroke-linejoin:round;stroke:rgb(75.686275%,70.980392%,61.568627%);stroke-opacity:1;stroke-miterlimit:10;" d="M 43.640625 66.535156 L 32.660156 28.027344 L 24.171875 -1.714844 "/>
<path style="fill:none;stroke-width:8;stroke-linecap:round;stroke-linejoin:round;stroke:rgb(75.686275%,70.980392%,61.568627%);stroke-opacity:1;stroke-miterlimit:10;" d="M 9.730469 0.0625 L 16.511719 31.503906 L 25.996094 71.609375 "/>
<path style="fill:none;stroke-width:8;stroke-linecap:round;stroke-linejoin:round;stroke:rgb(75.686275%,70.980392%,61.568627%);stroke-opacity:1;stroke-miterlimit:10;" d="M -9 17.148438 L -4.878906 36.148438 L 3.65625 76.5 "/>
<path style="fill:none;stroke-width:8;stroke-linecap:round;stroke-linejoin:round;stroke:rgb(75.686275%,70.980392%,61.568627%);stroke-opacity:1;stroke-miterlimit:10;" d="M 159.535156 209.898438 L 170.097656 217.84375 L 192.253906 226.789063 L 210.359375 216.023438 L 212.375 212.851563 L 218.964844 195.148438 "/>
<path style="fill:none;stroke-width:8;stroke-linecap:round;stroke-linejoin:round;stroke:rgb(75.686275%,70.980392%,61.568627%);stroke-opacity:1;stroke-miterlimit:10;" d="M 209.871094 173.304688 L 212.136719 175.042969 L 220.375 179.394531 L 264 201.703125 "/>
<path style="fill:none;stroke-width:8;stroke-linecap:round;stroke-linejoin:round;stroke:rgb(75.686275%,70.980392%,61.568627%);stroke-opacity:1;stroke-miterlimit:10;" d="M 210.359375 216.023438 L 217.460938 233.003906 L 233.195313 252.199219 L 242.714844 264 "/>
<path style="fill:none;stroke-width:8;stroke-linecap:round;stroke-linejoin:round;stroke:rgb(75.686275%,70.980392%,61.568627%);stroke-opacity:1;stroke-miterlimit:10;" d="M 181.953125 261.085938 L 205.046875 257.089844 L 233.195313 252.199219 L 243.699219 249.050781 L 248.203125 245.910156 L 251.578125 241.429688 L 264 222.265625 "/>
<path style="fill:none;stroke-width:8;stroke-linecap:round;stroke-linejoin:round;stroke:rgb(75.686275%,70.980392%,61.568627%);stroke-opacity:1;stroke-miterlimit:10;" d="M 4.394531 177.90625 L -9 181.683594 "/>
<path style="fill:none;stroke-width:8;stroke-linecap:round;stroke-linejoin:round;stroke:rgb(75.686275%,70.980392%,61.568627%);stroke-opacity:1;stroke-miterlimit:10;" d="M -9 136.164063 L -4.878906 134.992188 L 21.683594 128.289063 L 42.382813 122.625 "/>
<path style="fill:none;stroke-width:8;stroke-linecap:round;stroke-linejoin:round;stroke:rgb(75.686275%,70.980392%,61.568627%);stroke-opacity:1;stroke-miterlimit:10;" d="M -9 37.089844 L -4.878906 36.148438 L 16.511719 31.503906 L 32.660156 28.027344 L 56.285156 22.859375 L 77.398438 18.765625 "/>
<path style="fill:none;stroke-width:8;stroke-linecap:round;stroke-linejoin:round;stroke:rgb(75.686275%,70.980392%,61.568627%);stroke-opacity:1;stroke-miterlimit:10;" d="M 86.257813 57.015625 L 87.101563 60.179688 "/>
<path style="fill:none;stroke-width:8;stroke-linecap:round;stroke-linejoin:round;stroke:rgb(75.686275%,70.980392%,61.568627%);stroke-opacity:1;stroke-miterlimit:10;" d="M 138.167969 167.816406 L 141.429688 174.46875 "/>
<path style="fill:none;stroke-width:8;stroke-linecap:round;stroke-linejoin:round;stroke:rgb(75.686275%,70.980392%,61.568627%);stroke-opacity:1;stroke-miterlimit:10;" d="M 141.429688 174.46875 L 146.582031 186 "/>
<path style="fill:none;stroke-width:8;stroke-linecap:round;stroke-linejoin:round;stroke:rgb(75.686275%,70.980392%,61.568627%);stroke-opacity:1;stroke-miterlimit:10;" d="M 129.898438 142.363281 L 132.109375 149.171875 L 138.167969 167.816406 "/>
<path style="fill:none;stroke-width:8;stroke-linecap:round;stroke-linejoin:round;stroke:rgb(75.686275%,70.980392%,61.568627%);stroke-opacity:1;stroke-miterlimit:10;" d="M 97.507813 107.828125 L 87.101563 60.179688 "/>
<path style="fill:none;stroke-width:8;stroke-linecap:round;stroke-linejoin:round;stroke:rgb(75.686275%,70.980392%,61.568627%);stroke-opacity:1;stroke-miterlimit:10;" d="M 97.507813 107.828125 L 100.109375 109.769531 L 116.015625 121.613281 L 120.859375 125.21875 L 125.855469 130.617188 L 129.898438 142.363281 "/>
<path style="fill:none;stroke-width:8;stroke-linecap:round;stroke-linejoin:round;stroke:rgb(75.686275%,70.980392%,61.568627%);stroke-opacity:1;stroke-miterlimit:10;" d="M -9 231.171875 L 7.679688 226.664063 "/>
<path style="fill:none;stroke-width:8;stroke-linecap:round;stroke-linejoin:round;stroke:rgb(75.686275%,70.980392%,61.568627%);stroke-opacity:1;stroke-miterlimit:10;" d="M 146.582031 186 L 147.957031 188.980469 L 149.445313 191.726563 L 159.535156 209.898438 L 181.953125 261.085938 L 183.703125 264 "/>
<path style="fill:none;stroke-width:9;stroke-linecap:round;stroke-linejoin:round;stroke:rgb(75.686275%,70.980392%,61.568627%);stroke-opacity:1;stroke-miterlimit:10;" d="M -10 112.800781 L -4.878906 134.992188 L 3.671875 174.5625 L 4.394531 177.90625 L 9.753906 203.226563 L 7.679688 226.664063 L 6.023438 249.550781 L 7.265625 255.253906 L 9.574219 260.261719 L 13.957031 265 "/>
<path style="fill:none;stroke-width:10;stroke-linecap:round;stroke-linejoin:round;stroke:rgb(75.686275%,70.980392%,61.568627%);stroke-opacity:1;stroke-miterlimit:10;" d="M 128.984375 49.285156 L 133.675781 48.042969 "/>
<path style="fill:none;stroke-width:10;stroke-linecap:round;stroke-linejoin:round;stroke:rgb(75.686275%,70.980392%,61.568627%);stroke-opacity:1;stroke-miterlimit:10;" d="M 57.746094 66.984375 L 65.839844 65.109375 "/>
<path style="fill:none;stroke-width:10;stroke-linecap:round;stroke-linejoin:round;stroke:rgb(75.686275%,70.980392%,61.568627%);stroke-opacity:1;stroke-miterlimit:10;" d="M 10.003906 75.117188 L 18.988281 73.148438 "/>
<path style="fill:none;stroke-width:10;stroke-linecap:round;stroke-linejoin:round;stroke:rgb(75.686275%,70.980392%,61.568627%);stroke-opacity:1;stroke-miterlimit:10;" d="M 65.839844 65.109375 L 75.558594 62.855469 "/>
<path style="fill:none;stroke-width:10;stroke-linecap:round;stroke-linejoin:round;stroke:rgb(75.686275%,70.980392%,61.568627%);stroke-opacity:1;stroke-miterlimit:10;" d="M 75.558594 62.855469 L 87.101563 60.179688 "/>
<path style="fill:none;stroke-width:10;stroke-linecap:round;stroke-linejoin:round;stroke:rgb(75.686275%,70.980392%,61.568627%);stroke-opacity:1;stroke-miterlimit:10;" d="M 18.988281 73.148438 L 25.996094 71.609375 L 30.773438 70.554688 "/>
<path style="fill:none;stroke-width:10;stroke-linecap:round;stroke-linejoin:round;stroke:rgb(75.686275%,70.980392%,61.568627%);stroke-opacity:1;stroke-miterlimit:10;" d="M 44.234375 69.128906 L 57.746094 66.984375 "/>
<path style="fill:none;stroke-width:10;stroke-linecap:round;stroke-linejoin:round;stroke:rgb(75.686275%,70.980392%,61.568627%);stroke-opacity:1;stroke-miterlimit:10;" d="M 30.773438 70.554688 L 33.859375 71.285156 L 44.234375 69.128906 "/>
<path style="fill:none;stroke-width:10;stroke-linecap:round;stroke-linejoin:round;stroke:rgb(75.686275%,70.980392%,61.568627%);stroke-opacity:1;stroke-miterlimit:10;" d="M 133.675781 48.042969 L 148.453125 44.125 "/>
<path style="fill:none;stroke-width:10;stroke-linecap:round;stroke-linejoin:round;stroke:rgb(75.686275%,70.980392%,61.568627%);stroke-opacity:1;stroke-miterlimit:10;" d="M 265.457031 8.015625 L 250.257813 11.21875 "/>
<path style="fill:none;stroke-width:10;stroke-linecap:round;stroke-linejoin:round;stroke:rgb(75.686275%,70.980392%,61.568627%);stroke-opacity:1;stroke-miterlimit:10;" d="M 251.125 14.191406 L 265.457031 8.015625 "/>
<path style="fill:none;stroke-width:10;stroke-linecap:round;stroke-linejoin:round;stroke:rgb(75.686275%,70.980392%,61.568627%);stroke-opacity:1;stroke-miterlimit:10;" d="M -5.808594 78.605469 L 3.65625 76.5 L 10.003906 75.117188 "/>
<path style="fill:none;stroke-width:10;stroke-linecap:round;stroke-linejoin:round;stroke:rgb(75.686275%,70.980392%,61.568627%);stroke-opacity:1;stroke-miterlimit:10;" d="M 163.777344 35.84375 L 151.90625 39.144531 L 150.1875 39.820313 L 146.835938 40.664063 "/>
<path style="fill:none;stroke-width:10;stroke-linecap:round;stroke-linejoin:round;stroke:rgb(75.686275%,70.980392%,61.568627%);stroke-opacity:1;stroke-miterlimit:10;" d="M 146.835938 40.664063 L 127.144531 46.585938 "/>
<path style="fill:none;stroke-width:10;stroke-linecap:round;stroke-linejoin:round;stroke:rgb(75.686275%,70.980392%,61.568627%);stroke-opacity:1;stroke-miterlimit:10;" d="M 111.058594 50.816406 L 95.058594 54.816406 L 86.257813 57.015625 "/>
<path style="fill:none;stroke-width:10;stroke-linecap:round;stroke-linejoin:round;stroke:rgb(75.686275%,70.980392%,61.568627%);stroke-opacity:1;stroke-miterlimit:10;" d="M 87.101563 60.179688 L 93.058594 58.816406 L 112.363281 54.21875 "/>
<path style="fill:none;stroke-width:10;stroke-linecap:round;stroke-linejoin:round;stroke:rgb(75.686275%,70.980392%,61.568627%);stroke-opacity:1;stroke-miterlimit:10;" d="M 86.257813 57.015625 L 64.65625 62.015625 L 43.640625 66.535156 L 33.234375 68.972656 L 30.773438 70.554688 "/>
<path style="fill:none;stroke-width:10;stroke-linecap:round;stroke-linejoin:round;stroke:rgb(75.686275%,70.980392%,61.568627%);stroke-opacity:1;stroke-miterlimit:10;" d="M 233.125 15.992188 L 173.519531 33.132813 L 163.777344 35.84375 "/>
<path style="fill:none;stroke-width:10;stroke-linecap:round;stroke-linejoin:round;stroke:rgb(75.686275%,70.980392%,61.568627%);stroke-opacity:1;stroke-miterlimit:10;" d="M 148.453125 44.125 L 151.300781 43.339844 L 197.34375 30.644531 L 233.722656 19.59375 "/>
<path style="fill:none;stroke-width:11;stroke-linecap:round;stroke-linejoin:round;stroke:rgb(72.941176%,43.137255%,15.294118%);stroke-opacity:1;stroke-miterlimit:10;" d="M 137.09375 71.726563 L 141.691406 74.21875 L 150.652344 81.285156 L 164.257813 90.417969 L 183.257813 100.816406 L 206.71875 110.984375 "/>
<path style="fill:none;stroke-width:11;stroke-linecap:round;stroke-linejoin:round;stroke:rgb(72.941176%,43.137255%,15.294118%);stroke-opacity:1;stroke-miterlimit:10;" d="M 205.121094 106.582031 L 193.257813 101.617188 L 179.296875 94.957031 L 164.253906 86.660156 L 150.574219 76.566406 L 138.214844 65.757813 L 134.390625 61.472656 L 126.320313 53.582031 "/>
<path style="fill:none;stroke-width:11;stroke-linecap:round;stroke-linejoin:round;stroke:rgb(72.941176%,43.137255%,15.294118%);stroke-opacity:1;stroke-miterlimit:10;" d="M 126.320313 53.582031 L 118.722656 44.78125 L 111.320313 34.78125 L 104.917969 25.183594 L 98.519531 14.78125 L 93.921875 5.78125 L 89.71875 -4.21875 L 87.289063 -12 "/>
<path style="fill:none;stroke-width:11;stroke-linecap:round;stroke-linejoin:round;stroke:rgb(72.941176%,43.137255%,15.294118%);stroke-opacity:1;stroke-miterlimit:10;" d="M 83.488281 -12 L 86.320313 -2.617188 L 90.921875 8.179688 L 96.121094 18.183594 L 102.320313 28.179688 L 109.121094 38.183594 L 115.519531 46.582031 L 137.09375 71.726563 "/>
<path style="fill:none;stroke-width:11;stroke-linecap:round;stroke-linejoin:round;stroke:rgb(72.941176%,43.137255%,15.294118%);stroke-opacity:1;stroke-miterlimit:10;" d="M 206.71875 110.984375 L 241.917969 124.78125 L 254.519531 130.382813 L 266.320313 136.78125 L 267 137.191406 "/>
<path style="fill:none;stroke-width:11;stroke-linecap:round;stroke-linejoin:round;stroke:rgb(72.941176%,43.137255%,15.294118%);stroke-opacity:1;stroke-miterlimit:10;" d="M 267 132.304688 L 255.921875 126.582031 L 243.921875 121.382813 L 205.121094 106.582031 "/>
<path style="fill:none;stroke-width:8;stroke-linecap:round;stroke-linejoin:round;stroke:rgb(99.215686%,57.254902%,22.745098%);stroke-opacity:1;stroke-miterlimit:10;" d="M 118.722656 44.78125 L 115.941406 39.082031 L 113.011719 32.632813 L 112.242188 30.824219 L 111.664063 28.28125 L 111.472656 26.667969 L 111.816406 24.894531 L 112.128906 23.625 L 113.167969 22.011719 L 114.472656 21.011719 L 116.050781 20.316406 L 117.707031 20.199219 L 119.785156 20.199219 L 121.632813 20.472656 L 125.328125 21.78125 L 128.945313 23.777344 L 131.371094 25.550781 L 133.484375 27.550781 L 135.101563 29.554688 L 135.910156 31.09375 L 136.414063 32.480469 L 136.757813 34.015625 L 136.742188 35.683594 L 136.257813 37.597656 L 135.835938 38.984375 L 133.339844 42.480469 L 127.144531 46.585938 "/>
<path style="fill:none;stroke-width:8;stroke-linecap:round;stroke-linejoin:round;stroke:rgb(99.215686%,57.254902%,22.745098%);stroke-opacity:1;stroke-miterlimit:10;" d="M 83.585938 -11 L 87.859375 9.417969 L 91.257813 19.417969 L 99.058594 35.417969 L 101.457031 42.214844 L 101.457031 47.816406 L 98.457031 52.019531 L 95.058594 54.816406 "/>
<path style="fill:none;stroke-width:8;stroke-linecap:round;stroke-linejoin:round;stroke:rgb(99.215686%,57.254902%,22.745098%);stroke-opacity:1;stroke-miterlimit:10;" d="M 137.09375 71.726563 L 140.027344 75.292969 L 141.863281 78.636719 L 141.941406 81.90625 L 141.292969 84.6875 L 138.640625 87.585938 L 135.898438 89.179688 L 129.390625 89.886719 L 121.867188 87.660156 L 117.25 85.519531 L 113.625 83.609375 L 109.074219 79.359375 L 106.222656 73.625 L 105.660156 68.816406 L 105.660156 64.816406 L 106.660156 61.417969 L 107.457031 59.417969 L 108.65625 57.816406 L 112.363281 54.21875 "/>
<path style="fill:none;stroke-width:8;stroke-linecap:round;stroke-linejoin:round;stroke:rgb(99.215686%,57.254902%,22.745098%);stroke-opacity:1;stroke-miterlimit:10;" d="M 148.453125 44.125 L 146.835938 40.664063 L 145.492188 38.457031 L 144.386719 36.210938 L 140.859375 29.414063 L 133.058594 22.417969 L 124.058594 18.417969 L 116.457031 17.015625 L 107.058594 14.617188 L 99.058594 9.21875 L 93.058594 -0.183594 L 88.941406 -11 "/>
<path style="fill:none;stroke-width:8;stroke-linecap:round;stroke-linejoin:round;stroke:rgb(99.215686%,57.254902%,22.745098%);stroke-opacity:1;stroke-miterlimit:10;" d="M 193.257813 101.617188 L 179.859375 93.21875 L 173.058594 87.816406 L 166.65625 82.214844 L 163.257813 76.617188 L 161.65625 69.417969 L 161.257813 64.015625 L 162.65625 55.21875 L 165.457031 49.816406 L 168.855469 44.617188 L 175.855469 40.015625 L 197.34375 30.644531 "/>
<path style="fill:none;stroke-width:8;stroke-linecap:round;stroke-linejoin:round;stroke:rgb(99.215686%,57.254902%,22.745098%);stroke-opacity:1;stroke-miterlimit:10;" d="M 93.058594 58.816406 L 96.457031 60.015625 L 98.457031 61.816406 L 101.65625 67.015625 L 104.257813 74.816406 L 107.859375 79.617188 L 112.855469 84.816406 L 118.257813 88.417969 L 126.65625 91.816406 L 134.058594 93.21875 L 144.457031 93.816406 L 154.257813 94.617188 L 163.457031 96.214844 L 175.65625 100.414063 L 206.71875 110.984375 "/>
<path style="fill:none;stroke-width:6;stroke-linecap:round;stroke-linejoin:round;stroke:rgb(100%,100%,100%);stroke-opacity:1;stroke-miterlimit:10;" d="M 43.640625 66.535156 L 44.234375 69.128906 "/>
<path style="fill:none;stroke-width:6;stroke-linecap:round;stroke-linejoin:round;stroke:rgb(100%,100%,100%);stroke-opacity:1;stroke-miterlimit:10;" d="M 209.871094 173.304688 L 210.808594 171.363281 L 213.222656 166.355469 "/>
<path style="fill:none;stroke-width:6;stroke-linecap:round;stroke-linejoin:round;stroke:rgb(100%,100%,100%);stroke-opacity:1;stroke-miterlimit:10;" d="M 216.8125 186.609375 L 217.191406 184.90625 L 219.296875 181.261719 L 220.375 179.394531 "/>
<path style="fill:none;stroke-width:6;stroke-linecap:round;stroke-linejoin:round;stroke:rgb(100%,100%,100%);stroke-opacity:1;stroke-miterlimit:10;" d="M 202.433594 168.875 L 209.871094 173.304688 "/>
<path style="fill:none;stroke-width:6;stroke-linecap:round;stroke-linejoin:round;stroke:rgb(100%,100%,100%);stroke-opacity:1;stroke-miterlimit:10;" d="M 213.222656 166.355469 L 210.515625 167.382813 L 207.371094 168.554688 L 205.761719 168.78125 L 202.433594 168.875 "/>
<path style="fill:none;stroke-width:6;stroke-linecap:round;stroke-linejoin:round;stroke:rgb(100%,100%,100%);stroke-opacity:1;stroke-miterlimit:10;" d="M 212.136719 175.042969 L 213.816406 180.105469 L 216.8125 186.609375 "/>
<path style="fill:none;stroke-width:6;stroke-linecap:round;stroke-linejoin:round;stroke:rgb(100%,100%,100%);stroke-opacity:1;stroke-miterlimit:10;" d="M 141.429688 174.46875 L 144.957031 174.746094 L 151.402344 173.472656 L 153.972656 172.058594 "/>
<path style="fill:none;stroke-width:6;stroke-linecap:round;stroke-linejoin:round;stroke:rgb(100%,100%,100%);stroke-opacity:1;stroke-miterlimit:10;" d="M 49.25 140.347656 L 44.144531 122.148438 "/>
<path style="fill:none;stroke-width:6;stroke-linecap:round;stroke-linejoin:round;stroke:rgb(100%,100%,100%);stroke-opacity:1;stroke-miterlimit:10;" d="M 149.445313 191.726563 L 149.792969 184.609375 L 150.792969 179.425781 L 152.375 175.527344 L 153.972656 172.058594 "/>
<path style="fill:none;stroke-width:6;stroke-linecap:round;stroke-linejoin:round;stroke:rgb(100%,100%,100%);stroke-opacity:1;stroke-miterlimit:10;" d="M 101.679688 193.472656 L 109.972656 214.699219 "/>
<path style="fill:none;stroke-width:6;stroke-linecap:round;stroke-linejoin:round;stroke:rgb(100%,100%,100%);stroke-opacity:1;stroke-miterlimit:10;" d="M 186.765625 190.5 L 185.609375 168.804688 L 185.390625 164.65625 "/>
<path style="fill:none;stroke-width:6;stroke-linecap:round;stroke-linejoin:round;stroke:rgb(100%,100%,100%);stroke-opacity:1;stroke-miterlimit:10;" d="M 230.28125 136.285156 L 234.199219 136.394531 L 257.007813 148.128906 "/>
<path style="fill:none;stroke-width:6;stroke-linecap:round;stroke-linejoin:round;stroke:rgb(100%,100%,100%);stroke-opacity:1;stroke-miterlimit:10;" d="M 192.253906 226.789063 L 205.046875 257.089844 "/>
<path style="fill:none;stroke-width:6;stroke-linecap:round;stroke-linejoin:round;stroke:rgb(100%,100%,100%);stroke-opacity:1;stroke-miterlimit:10;" d="M -9 254.804688 L 6.023438 249.550781 "/>
<path style="fill:none;stroke-width:6;stroke-linecap:round;stroke-linejoin:round;stroke:rgb(100%,100%,100%);stroke-opacity:1;stroke-miterlimit:10;" d="M 213.222656 166.355469 L 219.351563 154.191406 L 224.578125 144.527344 L 227.484375 138.035156 L 230.28125 136.285156 "/>
<path style="fill:none;stroke-width:6;stroke-linecap:round;stroke-linejoin:round;stroke:rgb(100%,100%,100%);stroke-opacity:1;stroke-miterlimit:10;" d="M 189.804688 192.027344 L 186.765625 190.5 L 181.488281 188.273438 L 179.460938 188.183594 L 178.503906 188.488281 L 177.363281 189.226563 L 176.617188 190.089844 L 176.011719 191.441406 L 175.871094 192.582031 L 176.011719 193.65625 L 176.453125 194.796875 L 177.664063 196.148438 L 186.402344 199.933594 L 187.777344 200.054688 L 189.851563 199.316406 L 190.902344 198.332031 L 191.578125 197.011719 L 191.761719 195.257813 L 191.4375 193.964844 L 190.832031 192.949219 L 189.804688 192.027344 "/>
<path style="fill:none;stroke-width:6;stroke-linecap:round;stroke-linejoin:round;stroke:rgb(100%,100%,100%);stroke-opacity:1;stroke-miterlimit:10;" d="M -9 208.449219 L 9.753906 203.226563 "/>
<path style="fill:none;stroke-width:6;stroke-linecap:round;stroke-linejoin:round;stroke:rgb(100%,100%,100%);stroke-opacity:1;stroke-miterlimit:10;" d="M 153.972656 172.058594 L 157.023438 169.550781 L 160.867188 167.257813 L 164.136719 166.164063 L 167.996094 165.601563 L 185.390625 164.65625 L 189.378906 165.015625 L 193.601563 165.628906 L 198.089844 167.207031 L 202.433594 168.875 "/>
<path style="fill:none;stroke-width:6;stroke-linecap:round;stroke-linejoin:round;stroke:rgb(100%,100%,100%);stroke-opacity:1;stroke-miterlimit:10;" d="M 30.773438 70.554688 L 42.382813 122.625 "/>
<path style="fill:none;stroke-width:6;stroke-linecap:round;stroke-linejoin:round;stroke:rgb(100%,100%,100%);stroke-opacity:1;stroke-miterlimit:10;" d="M 10.003906 75.117188 L 21.683594 128.289063 "/>
<path style="fill:none;stroke-width:6;stroke-linecap:round;stroke-linejoin:round;stroke:rgb(100%,100%,100%);stroke-opacity:1;stroke-miterlimit:10;" d="M 219.351563 154.191406 L 264 176.679688 "/>
<path style="fill:none;stroke-width:6;stroke-linecap:round;stroke-linejoin:round;stroke:rgb(100%,100%,100%);stroke-opacity:1;stroke-miterlimit:10;" d="M 91.496094 194.210938 L 101.679688 193.472656 L 147.957031 188.980469 "/>
<path style="fill:none;stroke-width:6;stroke-linecap:round;stroke-linejoin:round;stroke:rgb(100%,100%,100%);stroke-opacity:1;stroke-miterlimit:10;" d="M 42.382813 122.625 L 44.144531 122.148438 L 97.507813 107.828125 "/>
<path style="fill:none;stroke-width:6;stroke-linecap:round;stroke-linejoin:round;stroke:rgb(100%,100%,100%);stroke-opacity:1;stroke-miterlimit:10;" d="M 95.246094 215.746094 L 109.972656 214.699219 L 159.535156 209.898438 "/>
<path style="fill:none;stroke-width:6;stroke-linecap:round;stroke-linejoin:round;stroke:rgb(100%,100%,100%);stroke-opacity:1;stroke-miterlimit:10;" d="M 70.941406 -5.71875 L 77.398438 18.765625 L 86.257813 57.015625 "/>
<path style="fill:none;stroke-width:6;stroke-linecap:round;stroke-linejoin:round;stroke:rgb(100%,100%,100%);stroke-opacity:1;stroke-miterlimit:10;" d="M 216.8125 186.609375 L 218.964844 195.148438 L 233.9375 219.820313 L 251.578125 241.429688 "/>
<path style="fill:none;stroke-width:6;stroke-linecap:round;stroke-linejoin:round;stroke:rgb(100%,100%,100%);stroke-opacity:1;stroke-miterlimit:10;" d="M 91.496094 194.210938 L 89.792969 193.6875 L 88.769531 192.980469 L 87.558594 191.257813 L 87.253906 190.210938 L 87.230469 188.675781 L 87.535156 187.535156 L 88.046875 186.582031 L 103.03125 171.785156 L 138.167969 167.816406 "/>
<path style="fill:none;stroke-width:6;stroke-linecap:round;stroke-linejoin:round;stroke:rgb(100%,100%,100%);stroke-opacity:1;stroke-miterlimit:10;" d="M 50.539063 -6.71875 L 56.285156 22.859375 L 64.65625 62.015625 "/>
<path style="fill:none;stroke-width:6;stroke-linecap:round;stroke-linejoin:round;stroke:rgb(100%,100%,100%);stroke-opacity:1;stroke-miterlimit:10;" d="M 43.640625 66.535156 L 32.660156 28.027344 L 24.171875 -1.714844 "/>
<path style="fill:none;stroke-width:6;stroke-linecap:round;stroke-linejoin:round;stroke:rgb(100%,100%,100%);stroke-opacity:1;stroke-miterlimit:10;" d="M 9.730469 0.0625 L 16.511719 31.503906 L 25.996094 71.609375 "/>
<path style="fill:none;stroke-width:6;stroke-linecap:round;stroke-linejoin:round;stroke:rgb(100%,100%,100%);stroke-opacity:1;stroke-miterlimit:10;" d="M -9 17.148438 L -4.878906 36.148438 L 3.65625 76.5 "/>
<path style="fill:none;stroke-width:6;stroke-linecap:round;stroke-linejoin:round;stroke:rgb(100%,100%,100%);stroke-opacity:1;stroke-miterlimit:10;" d="M 159.535156 209.898438 L 170.097656 217.84375 L 192.253906 226.789063 L 210.359375 216.023438 L 212.375 212.851563 L 218.964844 195.148438 "/>
<path style="fill:none;stroke-width:6;stroke-linecap:round;stroke-linejoin:round;stroke:rgb(100%,100%,100%);stroke-opacity:1;stroke-miterlimit:10;" d="M 209.871094 173.304688 L 212.136719 175.042969 L 220.375 179.394531 L 264 201.703125 "/>
<path style="fill:none;stroke-width:6;stroke-linecap:round;stroke-linejoin:round;stroke:rgb(100%,100%,100%);stroke-opacity:1;stroke-miterlimit:10;" d="M 210.359375 216.023438 L 217.460938 233.003906 L 233.195313 252.199219 L 242.714844 264 "/>
<path style="fill:none;stroke-width:6;stroke-linecap:round;stroke-linejoin:round;stroke:rgb(100%,100%,100%);stroke-opacity:1;stroke-miterlimit:10;" d="M 181.953125 261.085938 L 205.046875 257.089844 L 233.195313 252.199219 L 243.699219 249.050781 L 248.203125 245.910156 L 251.578125 241.429688 L 264 222.265625 "/>
<path style="fill:none;stroke-width:6;stroke-linecap:round;stroke-linejoin:round;stroke:rgb(100%,100%,100%);stroke-opacity:1;stroke-miterlimit:10;" d="M 4.394531 177.90625 L -9 181.683594 "/>
<path style="fill:none;stroke-width:6;stroke-linecap:round;stroke-linejoin:round;stroke:rgb(100%,100%,100%);stroke-opacity:1;stroke-miterlimit:10;" d="M -9 136.164063 L -4.878906 134.992188 L 21.683594 128.289063 L 42.382813 122.625 "/>
<path style="fill:none;stroke-width:6;stroke-linecap:round;stroke-linejoin:round;stroke:rgb(100%,100%,100%);stroke-opacity:1;stroke-miterlimit:10;" d="M -9 37.089844 L -4.878906 36.148438 L 16.511719 31.503906 L 32.660156 28.027344 L 56.285156 22.859375 L 77.398438 18.765625 "/>
<path style="fill:none;stroke-width:6;stroke-linecap:round;stroke-linejoin:round;stroke:rgb(100%,99.215686%,54.509804%);stroke-opacity:1;stroke-miterlimit:10;" d="M 86.257813 57.015625 L 87.101563 60.179688 "/>
<path style="fill:none;stroke-width:6;stroke-linecap:round;stroke-linejoin:round;stroke:rgb(100%,99.215686%,54.509804%);stroke-opacity:1;stroke-miterlimit:10;" d="M 138.167969 167.816406 L 141.429688 174.46875 "/>
<path style="fill:none;stroke-width:6;stroke-linecap:round;stroke-linejoin:round;stroke:rgb(100%,99.215686%,54.509804%);stroke-opacity:1;stroke-miterlimit:10;" d="M 141.429688 174.46875 L 146.582031 186 "/>
<path style="fill:none;stroke-width:6;stroke-linecap:round;stroke-linejoin:round;stroke:rgb(100%,99.215686%,54.509804%);stroke-opacity:1;stroke-miterlimit:10;" d="M 129.898438 142.363281 L 132.109375 149.171875 L 138.167969 167.816406 "/>
<path style="fill:none;stroke-width:6;stroke-linecap:round;stroke-linejoin:round;stroke:rgb(100%,99.215686%,54.509804%);stroke-opacity:1;stroke-miterlimit:10;" d="M 97.507813 107.828125 L 87.101563 60.179688 "/>
<path style="fill:none;stroke-width:6;stroke-linecap:round;stroke-linejoin:round;stroke:rgb(100%,99.215686%,54.509804%);stroke-opacity:1;stroke-miterlimit:10;" d="M 97.507813 107.828125 L 100.109375 109.769531 L 116.015625 121.613281 L 120.859375 125.21875 L 125.855469 130.617188 L 129.898438 142.363281 "/>
<path style="fill:none;stroke-width:6;stroke-linecap:round;stroke-linejoin:round;stroke:rgb(100%,99.215686%,54.509804%);stroke-opacity:1;stroke-miterlimit:10;" d="M -9 231.171875 L 7.679688 226.664063 "/>
<path style="fill:none;stroke-width:6;stroke-linecap:round;stroke-linejoin:round;stroke:rgb(100%,99.215686%,54.509804%);stroke-opacity:1;stroke-miterlimit:10;" d="M 146.582031 186 L 147.957031 188.980469 L 149.445313 191.726563 L 159.535156 209.898438 L 181.953125 261.085938 L 183.703125 264 "/>
<path style="fill:none;stroke-width:7;stroke-linecap:round;stroke-linejoin:round;stroke:rgb(100%,99.215686%,54.509804%);stroke-opacity:1;stroke-miterlimit:10;" d="M -10 112.800781 L -4.878906 134.992188 L 3.671875 174.5625 L 4.394531 177.90625 L 9.753906 203.226563 L 7.679688 226.664063 L 6.023438 249.550781 L 7.265625 255.253906 L 9.574219 260.261719 L 13.957031 265 "/>
<path style="fill:none;stroke-width:8;stroke-linecap:round;stroke-linejoin:round;stroke:rgb(100%,99.215686%,54.509804%);stroke-opacity:1;stroke-miterlimit:10;" d="M 128.984375 49.285156 L 133.675781 48.042969 "/>
<path style="fill:none;stroke-width:8;stroke-linecap:round;stroke-linejoin:round;stroke:rgb(100%,99.215686%,54.509804%);stroke-opacity:1;stroke-miterlimit:10;" d="M 57.746094 66.984375 L 65.839844 65.109375 "/>
<path style="fill:none;stroke-width:8;stroke-linecap:round;stroke-linejoin:round;stroke:rgb(100%,99.215686%,54.509804%);stroke-opacity:1;stroke-miterlimit:10;" d="M 10.003906 75.117188 L 18.988281 73.148438 "/>
<path style="fill:none;stroke-width:8;stroke-linecap:round;stroke-linejoin:round;stroke:rgb(100%,99.215686%,54.509804%);stroke-opacity:1;stroke-miterlimit:10;" d="M 65.839844 65.109375 L 75.558594 62.855469 "/>
<path style="fill:none;stroke-width:8;stroke-linecap:round;stroke-linejoin:round;stroke:rgb(100%,99.215686%,54.509804%);stroke-opacity:1;stroke-miterlimit:10;" d="M 75.558594 62.855469 L 87.101563 60.179688 "/>
<path style="fill:none;stroke-width:8;stroke-linecap:round;stroke-linejoin:round;stroke:rgb(100%,99.215686%,54.509804%);stroke-opacity:1;stroke-miterlimit:10;" d="M 18.988281 73.148438 L 25.996094 71.609375 L 30.773438 70.554688 "/>
<path style="fill:none;stroke-width:8;stroke-linecap:round;stroke-linejoin:round;stroke:rgb(100%,99.215686%,54.509804%);stroke-opacity:1;stroke-miterlimit:10;" d="M 44.234375 69.128906 L 57.746094 66.984375 "/>
<path style="fill:none;stroke-width:8;stroke-linecap:round;stroke-linejoin:round;stroke:rgb(100%,99.215686%,54.509804%);stroke-opacity:1;stroke-miterlimit:10;" d="M 30.773438 70.554688 L 33.859375 71.285156 L 44.234375 69.128906 "/>
<path style="fill:none;stroke-width:8;stroke-linecap:round;stroke-linejoin:round;stroke:rgb(100%,99.215686%,54.509804%);stroke-opacity:1;stroke-miterlimit:10;" d="M 133.675781 48.042969 L 148.453125 44.125 "/>
<path style="fill:none;stroke-width:8;stroke-linecap:round;stroke-linejoin:round;stroke:rgb(100%,99.215686%,54.509804%);stroke-opacity:1;stroke-miterlimit:10;" d="M 265.457031 8.015625 L 250.257813 11.21875 "/>
<path style="fill:none;stroke-width:8;stroke-linecap:round;stroke-linejoin:round;stroke:rgb(100%,99.215686%,54.509804%);stroke-opacity:1;stroke-miterlimit:10;" d="M 251.125 14.191406 L 265.457031 8.015625 "/>
<path style="fill:none;stroke-width:8;stroke-linecap:round;stroke-linejoin:round;stroke:rgb(100%,99.215686%,54.509804%);stroke-opacity:1;stroke-miterlimit:10;" d="M -5.808594 78.605469 L 3.65625 76.5 L 10.003906 75.117188 "/>
<path style="fill:none;stroke-width:8;stroke-linecap:round;stroke-linejoin:round;stroke:rgb(100%,99.215686%,54.509804%);stroke-opacity:1;stroke-miterlimit:10;" d="M 163.777344 35.84375 L 151.90625 39.144531 L 150.1875 39.820313 L 146.835938 40.664063 "/>
<path style="fill:none;stroke-width:8;stroke-linecap:round;stroke-linejoin:round;stroke:rgb(100%,99.215686%,54.509804%);stroke-opacity:1;stroke-miterlimit:10;" d="M 146.835938 40.664063 L 127.144531 46.585938 "/>
<path style="fill:none;stroke-width:8;stroke-linecap:round;stroke-linejoin:round;stroke:rgb(100%,99.215686%,54.509804%);stroke-opacity:1;stroke-miterlimit:10;" d="M 111.058594 50.816406 L 95.058594 54.816406 L 86.257813 57.015625 "/>
<path style="fill:none;stroke-width:8;stroke-linecap:round;stroke-linejoin:round;stroke:rgb(100%,99.215686%,54.509804%);stroke-opacity:1;stroke-miterlimit:10;" d="M 87.101563 60.179688 L 93.058594 58.816406 L 112.363281 54.21875 "/>
<path style="fill:none;stroke-width:8;stroke-linecap:round;stroke-linejoin:round;stroke:rgb(100%,99.215686%,54.509804%);stroke-opacity:1;stroke-miterlimit:10;" d="M 86.257813 57.015625 L 64.65625 62.015625 L 43.640625 66.535156 L 33.234375 68.972656 L 30.773438 70.554688 "/>
<path style="fill:none;stroke-width:8;stroke-linecap:round;stroke-linejoin:round;stroke:rgb(100%,99.215686%,54.509804%);stroke-opacity:1;stroke-miterlimit:10;" d="M 233.125 15.992188 L 173.519531 33.132813 L 163.777344 35.84375 "/>
<path style="fill:none;stroke-width:8;stroke-linecap:round;stroke-linejoin:round;stroke:rgb(100%,99.215686%,54.509804%);stroke-opacity:1;stroke-miterlimit:10;" d="M 148.453125 44.125 L 151.300781 43.339844 L 197.34375 30.644531 L 233.722656 19.59375 "/>
<path style="fill:none;stroke-width:9;stroke-linecap:round;stroke-linejoin:round;stroke:rgb(99.215686%,57.254902%,22.745098%);stroke-opacity:1;stroke-miterlimit:10;" d="M 137.09375 71.726563 L 141.691406 74.21875 L 150.652344 81.285156 L 164.257813 90.417969 L 183.257813 100.816406 L 206.71875 110.984375 "/>
<path style="fill:none;stroke-width:9;stroke-linecap:round;stroke-linejoin:round;stroke:rgb(99.215686%,57.254902%,22.745098%);stroke-opacity:1;stroke-miterlimit:10;" d="M 205.121094 106.582031 L 193.257813 101.617188 L 179.296875 94.957031 L 164.253906 86.660156 L 150.574219 76.566406 L 138.214844 65.757813 L 134.390625 61.472656 L 126.320313 53.582031 "/>
<path style="fill:none;stroke-width:9;stroke-linecap:round;stroke-linejoin:round;stroke:rgb(99.215686%,57.254902%,22.745098%);stroke-opacity:1;stroke-miterlimit:10;" d="M 126.320313 53.582031 L 118.722656 44.78125 L 111.320313 34.78125 L 104.917969 25.183594 L 98.519531 14.78125 L 93.921875 5.78125 L 89.71875 -4.21875 L 87.289063 -12 "/>
<path style="fill:none;stroke-width:9;stroke-linecap:round;stroke-linejoin:round;stroke:rgb(99.215686%,57.254902%,22.745098%);stroke-opacity:1;stroke-miterlimit:10;" d="M 83.488281 -12 L 86.320313 -2.617188 L 90.921875 8.179688 L 96.121094 18.183594 L 102.320313 28.179688 L 109.121094 38.183594 L 115.519531 46.582031 L 137.09375 71.726563 "/>
<path style="fill:none;stroke-width:9;stroke-linecap:round;stroke-linejoin:round;stroke:rgb(99.215686%,57.254902%,22.745098%);stroke-opacity:1;stroke-miterlimit:10;" d="M 206.71875 110.984375 L 241.917969 124.78125 L 254.519531 130.382813 L 266.320313 136.78125 L 267 137.191406 "/>
<path style="fill:none;stroke-width:9;stroke-linecap:round;stroke-linejoin:round;stroke:rgb(99.215686%,57.254902%,22.745098%);stroke-opacity:1;stroke-miterlimit:10;" d="M 267 132.304688 L 255.921875 126.582031 L 243.921875 121.382813 L 205.121094 106.582031 "/>
<path style="fill:none;stroke-width:5;stroke-linecap:butt;stroke-linejoin:round;stroke:rgb(53.333333%,53.333333%,53.333333%);stroke-opacity:1;stroke-miterlimit:10;" d="M 211.628906 67.175781 L 211.273438 64.355469 "/>
<path style="fill:none;stroke-width:5;stroke-linecap:butt;stroke-linejoin:round;stroke:rgb(53.333333%,53.333333%,53.333333%);stroke-opacity:1;stroke-miterlimit:10;" d="M 178.351563 51.753906 L 175.414063 50.410156 "/>
<path style="fill:none;stroke-width:5;stroke-linecap:butt;stroke-linejoin:round;stroke:rgb(53.333333%,53.333333%,53.333333%);stroke-opacity:1;stroke-miterlimit:10;" d="M 109.832031 49.011719 L 126.339844 44.648438 "/>
<path style="fill:none;stroke-width:10;stroke-linecap:butt;stroke-linejoin:round;stroke:rgb(53.333333%,53.333333%,53.333333%);stroke-opacity:1;stroke-miterlimit:10;" d="M 127.144531 46.585938 L 123.710938 47.488281 "/>
<path style="fill:none;stroke-width:10;stroke-linecap:butt;stroke-linejoin:round;stroke:rgb(53.333333%,53.333333%,53.333333%);stroke-opacity:1;stroke-miterlimit:10;" d="M 123.710938 47.488281 L 119.496094 48.597656 L 111.058594 50.816406 "/>
<path style="fill:none;stroke-width:10;stroke-linecap:butt;stroke-linejoin:round;stroke:rgb(53.333333%,53.333333%,53.333333%);stroke-opacity:1;stroke-miterlimit:10;" d="M 112.363281 54.21875 L 128.984375 49.285156 "/>
<path style="fill:none;stroke-width:10;stroke-linecap:butt;stroke-linejoin:round;stroke:rgb(53.333333%,53.333333%,53.333333%);stroke-opacity:1;stroke-miterlimit:10;" d="M 250.257813 11.21875 L 233.125 15.992188 "/>
<path style="fill:none;stroke-width:10;stroke-linecap:butt;stroke-linejoin:round;stroke:rgb(53.333333%,53.333333%,53.333333%);stroke-opacity:1;stroke-miterlimit:10;" d="M 233.722656 19.59375 L 251.125 14.191406 "/>
<path style="fill:none;stroke-width:3;stroke-linecap:round;stroke-linejoin:round;stroke:rgb(98.039216%,98.039216%,96.078431%);stroke-opacity:1;stroke-miterlimit:10;" d="M 211.628906 67.175781 L 211.273438 64.355469 "/>
<path style="fill:none;stroke-width:3;stroke-linecap:round;stroke-linejoin:round;stroke:rgb(98.039216%,98.039216%,96.078431%);stroke-opacity:1;stroke-miterlimit:10;" d="M 178.351563 51.753906 L 175.414063 50.410156 "/>
<path style="fill:none;stroke-width:3;stroke-linecap:round;stroke-linejoin:round;stroke:rgb(98.039216%,98.039216%,96.078431%);stroke-opacity:1;stroke-miterlimit:10;" d="M 109.832031 49.011719 L 126.339844 44.648438 "/>
<path style="fill:none;stroke-width:8;stroke-linecap:round;stroke-linejoin:round;stroke:rgb(100%,99.215686%,54.509804%);stroke-opacity:1;stroke-miterlimit:10;" d="M 127.144531 46.585938 L 123.710938 47.488281 "/>
<path style="fill:none;stroke-width:8;stroke-linecap:round;stroke-linejoin:round;stroke:rgb(100%,99.215686%,54.509804%);stroke-opacity:1;stroke-miterlimit:10;" d="M 123.710938 47.488281 L 119.496094 48.597656 L 111.058594 50.816406 "/>
<path style="fill:none;stroke-width:8;stroke-linecap:round;stroke-linejoin:round;stroke:rgb(100%,99.215686%,54.509804%);stroke-opacity:1;stroke-miterlimit:10;" d="M 112.363281 54.21875 L 128.984375 49.285156 "/>
<path style="fill:none;stroke-width:8;stroke-linecap:round;stroke-linejoin:round;stroke:rgb(100%,99.215686%,54.509804%);stroke-opacity:1;stroke-miterlimit:10;" d="M 250.257813 11.21875 L 233.125 15.992188 "/>
<path style="fill:none;stroke-width:8;stroke-linecap:round;stroke-linejoin:round;stroke:rgb(100%,99.215686%,54.509804%);stroke-opacity:1;stroke-miterlimit:10;" d="M 233.722656 19.59375 L 251.125 14.191406 "/>
<path style=" stroke:none;fill-rule:evenodd;fill:rgb(33.333333%,33.333333%,33.333333%);fill-opacity:1;" d="M 100.597656 32.769531 C 100.210938 32.582031 99.863281 32.347656 99.550781 32.066406 C 99.246094 31.785156 98.976563 31.460938 98.738281 31.097656 C 98.027344 29.992188 97.808594 28.894531 98.082031 27.800781 C 98.351563 26.71875 99.066406 25.796875 100.222656 25.035156 C 101.410156 24.277344 102.550781 24 103.644531 24.207031 C 104.746094 24.40625 105.652344 25.058594 106.363281 26.160156 C 106.601563 26.527344 106.785156 26.90625 106.910156 27.300781 C 107.035156 27.707031 107.101563 28.121094 107.113281 28.550781 L 105.613281 29.535156 C 105.644531 29.066406 105.613281 28.636719 105.519531 28.253906 C 105.433594 27.878906 105.285156 27.519531 105.066406 27.175781 C 104.667969 26.5625 104.144531 26.222656 103.488281 26.160156 C 102.832031 26.097656 102.121094 26.3125 101.363281 26.800781 C 100.613281 27.289063 100.132813 27.847656 99.925781 28.472656 C 99.714844 29.097656 99.808594 29.714844 100.207031 30.332031 C 100.425781 30.675781 100.683594 30.960938 100.988281 31.191406 C 101.300781 31.429688 101.675781 31.628906 102.113281 31.785156 Z M 108.40625 29.582031 L 109.5625 31.269531 L 102.328125 36.191406 L 101.171875 34.503906 Z M 110.648438 32.800781 L 112.601563 35.550781 C 113.183594 36.363281 113.429688 37.132813 113.335938 37.863281 C 113.242188 38.589844 112.824219 39.222656 112.085938 39.753906 C 111.335938 40.285156 110.601563 40.472656 109.882813 40.316406 C 109.171875 40.167969 108.527344 39.691406 107.945313 38.878906 L 107.179688 37.800781 L 104.710938 39.566406 L 103.523438 37.894531 Z M 110.492188 35.425781 L 108.507813 36.847656 L 109.148438 37.753906 C 109.375 38.074219 109.640625 38.257813 109.945313 38.300781 C 110.246094 38.351563 110.554688 38.269531 110.867188 38.050781 C 111.1875 37.820313 111.371094 37.554688 111.414063 37.253906 C 111.453125 36.964844 111.359375 36.65625 111.132813 36.332031 Z M 110.492188 35.425781 "/>
<path style="fill:none;stroke-width:3;stroke-linecap:round;stroke-linejoin:round;stroke:rgb(100%,100%,100%);stroke-opacity:1;stroke-miterlimit:10;" d="M 49.515625 149.773438 C 48.804688 149.773438 48.238281 150.070313 47.8125 150.664063 C 47.394531 151.25 47.1875 152.046875 47.1875 153.054688 C 47.1875 154.066406 47.394531 154.867188 47.8125 155.460938 C 48.238281 156.046875 48.804688 156.335938 49.515625 156.335938 C 50.222656 156.335938 50.78125 156.046875 51.1875 155.460938 C 51.601563 154.867188 51.8125 154.066406 51.8125 153.054688 C 51.8125 152.046875 51.601563 151.25 51.1875 150.664063 C 50.78125 150.070313 50.222656 149.773438 49.515625 149.773438 Z M 49.515625 148.882813 C 50.523438 148.882813 51.332031 149.265625 51.9375 150.023438 C 52.539063 150.773438 52.84375 151.785156 52.84375 153.054688 C 52.84375 154.316406 52.539063 155.328125 51.9375 156.085938 C 51.332031 156.835938 50.523438 157.210938 49.515625 157.210938 C 48.492188 157.210938 47.679688 156.835938 47.078125 156.085938 C 46.472656 155.335938 46.171875 154.328125 46.171875 153.054688 C 46.171875 151.785156 46.472656 150.773438 47.078125 150.023438 C 47.679688 149.265625 48.492188 148.882813 49.515625 148.882813 Z M 56.78125 154.023438 C 56.0625 154.023438 55.5625 154.117188 55.28125 154.304688 C 55.007813 154.492188 54.875 154.804688 54.875 155.242188 C 54.875 155.585938 54.976563 155.863281 55.1875 156.070313 C 55.394531 156.28125 55.675781 156.382813 56.03125 156.382813 C 56.53125 156.382813 56.925781 156.191406 57.21875 155.804688 C 57.519531 155.410156 57.671875 154.894531 57.671875 154.257813 L 57.671875 154.023438 Z M 58.5625 153.617188 L 58.5625 157.054688 L 57.671875 157.054688 L 57.671875 156.148438 C 57.460938 156.515625 57.207031 156.785156 56.90625 156.960938 C 56.601563 157.125 56.234375 157.210938 55.796875 157.210938 C 55.242188 157.210938 54.800781 157.039063 54.46875 156.695313 C 54.144531 156.351563 53.984375 155.890625 53.984375 155.304688 C 53.984375 154.628906 54.1875 154.117188 54.59375 153.773438 C 55 153.429688 55.609375 153.257813 56.421875 153.257813 L 57.671875 153.257813 L 57.671875 153.164063 C 57.671875 152.707031 57.535156 152.351563 57.265625 152.101563 C 56.992188 151.851563 56.613281 151.726563 56.125 151.726563 C 55.820313 151.726563 55.519531 151.769531 55.21875 151.851563 C 54.925781 151.9375 54.644531 152.0625 54.375 152.226563 L 54.375 151.320313 C 54.707031 151.175781 55.023438 151.070313 55.328125 151.007813 C 55.628906 150.9375 55.925781 150.898438 56.21875 150.898438 C 57 150.898438 57.582031 151.125 57.96875 151.570313 C 58.363281 152.019531 58.5625 152.703125 58.5625 153.617188 Z M 60.34375 148.695313 L 61.25 148.695313 L 61.25 153.632813 L 63.90625 151.039063 L 65.046875 151.039063 L 62.171875 153.851563 L 65.15625 157.054688 L 64 157.054688 L 61.25 154.117188 L 61.25 157.054688 L 60.34375 157.054688 Z M 66.125 148.695313 L 67.015625 148.695313 L 67.015625 157.054688 L 66.125 157.054688 Z M 71.328125 154.023438 C 70.609375 154.023438 70.109375 154.117188 69.828125 154.304688 C 69.554688 154.492188 69.421875 154.804688 69.421875 155.242188 C 69.421875 155.585938 69.523438 155.863281 69.734375 156.070313 C 69.941406 156.28125 70.222656 156.382813 70.578125 156.382813 C 71.078125 156.382813 71.472656 156.191406 71.765625 155.804688 C 72.066406 155.410156 72.21875 154.894531 72.21875 154.257813 L 72.21875 154.023438 Z M 73.109375 153.617188 L 73.109375 157.054688 L 72.21875 157.054688 L 72.21875 156.148438 C 72.007813 156.515625 71.753906 156.785156 71.453125 156.960938 C 71.148438 157.125 70.78125 157.210938 70.34375 157.210938 C 69.789063 157.210938 69.347656 157.039063 69.015625 156.695313 C 68.691406 156.351563 68.53125 155.890625 68.53125 155.304688 C 68.53125 154.628906 68.734375 154.117188 69.140625 153.773438 C 69.546875 153.429688 70.15625 153.257813 70.96875 153.257813 L 72.21875 153.257813 L 72.21875 153.164063 C 72.21875 152.707031 72.082031 152.351563 71.8125 152.101563 C 71.539063 151.851563 71.160156 151.726563 70.671875 151.726563 C 70.367188 151.726563 70.066406 151.769531 69.765625 151.851563 C 69.472656 151.9375 69.191406 152.0625 68.921875 152.226563 L 68.921875 151.320313 C 69.253906 151.175781 69.570313 151.070313 69.875 151.007813 C 70.175781 150.9375 70.472656 150.898438 70.765625 150.898438 C 71.546875 150.898438 72.128906 151.125 72.515625 151.570313 C 72.910156 152.019531 73.109375 152.703125 73.109375 153.617188 Z M 79.4375 153.429688 L 79.4375 157.054688 L 78.546875 157.054688 L 78.546875 153.460938 C 78.546875 152.890625 78.441406 152.460938 78.234375 152.179688 C 78.035156 151.898438 77.738281 151.757813 77.34375 151.757813 C 76.863281 151.757813 76.484375 151.929688 76.203125 152.273438 C 75.929688 152.609375 75.796875 153.066406 75.796875 153.648438 L 75.796875 157.054688 L 74.890625 157.054688 L 74.890625 151.039063 L 75.796875 151.039063 L 75.796875 151.976563 C 76.003906 151.613281 76.25 151.34375 76.53125 151.164063 C 76.820313 150.988281 77.160156 150.898438 77.546875 150.898438 C 78.160156 150.898438 78.628906 151.113281 78.953125 151.539063 C 79.273438 151.96875 79.4375 152.597656 79.4375 153.429688 Z M 84.78125 151.945313 L 84.78125 148.695313 L 85.671875 148.695313 L 85.671875 157.054688 L 84.78125 157.054688 L 84.78125 156.148438 C 84.59375 156.515625 84.351563 156.785156 84.0625 156.960938 C 83.78125 157.125 83.441406 157.210938 83.046875 157.210938 C 82.390625 157.210938 81.851563 156.925781 81.4375 156.351563 C 81.03125 155.769531 80.828125 155.003906 80.828125 154.054688 C 80.828125 153.109375 81.03125 152.347656 81.4375 151.773438 C 81.851563 151.191406 82.390625 150.898438 83.046875 150.898438 C 83.441406 150.898438 83.78125 150.988281 84.0625 151.164063 C 84.351563 151.332031 84.59375 151.59375 84.78125 151.945313 Z M 81.75 154.054688 C 81.75 154.785156 81.878906 155.359375 82.140625 155.773438 C 82.410156 156.179688 82.78125 156.382813 83.25 156.382813 C 83.726563 156.382813 84.101563 156.179688 84.375 155.773438 C 84.644531 155.359375 84.78125 154.785156 84.78125 154.054688 C 84.78125 153.328125 84.644531 152.757813 84.375 152.351563 C 84.101563 151.9375 83.726563 151.726563 83.25 151.726563 C 82.78125 151.726563 82.410156 151.9375 82.140625 152.351563 C 81.878906 152.757813 81.75 153.328125 81.75 154.054688 Z M 55.078125 160.039063 L 56.0625 160.039063 L 56.0625 167.148438 L 59.578125 167.148438 L 59.578125 168.054688 L 55.078125 168.054688 Z M 63.015625 165.023438 C 62.296875 165.023438 61.796875 165.117188 61.515625 165.304688 C 61.242188 165.492188 61.109375 165.804688 61.109375 166.242188 C 61.109375 166.585938 61.210938 166.863281 61.421875 167.070313 C 61.628906 167.28125 61.910156 167.382813 62.265625 167.382813 C 62.765625 167.382813 63.160156 167.191406 63.453125 166.804688 C 63.753906 166.410156 63.90625 165.894531 63.90625 165.257813 L 63.90625 165.023438 Z M 64.796875 164.617188 L 64.796875 168.054688 L 63.90625 168.054688 L 63.90625 167.148438 C 63.695313 167.515625 63.441406 167.785156 63.140625 167.960938 C 62.835938 168.125 62.46875 168.210938 62.03125 168.210938 C 61.476563 168.210938 61.035156 168.039063 60.703125 167.695313 C 60.378906 167.351563 60.21875 166.890625 60.21875 166.304688 C 60.21875 165.628906 60.421875 165.117188 60.828125 164.773438 C 61.234375 164.429688 61.84375 164.257813 62.65625 164.257813 L 63.90625 164.257813 L 63.90625 164.164063 C 63.90625 163.707031 63.769531 163.351563 63.5 163.101563 C 63.226563 162.851563 62.847656 162.726563 62.359375 162.726563 C 62.054688 162.726563 61.753906 162.769531 61.453125 162.851563 C 61.160156 162.9375 60.878906 163.0625 60.609375 163.226563 L 60.609375 162.320313 C 60.941406 162.175781 61.257813 162.070313 61.5625 162.007813 C 61.863281 161.9375 62.160156 161.898438 62.453125 161.898438 C 63.234375 161.898438 63.816406 162.125 64.203125 162.570313 C 64.597656 163.019531 64.796875 163.703125 64.796875 164.617188 Z M 66.578125 159.695313 L 67.484375 159.695313 L 67.484375 164.632813 L 70.140625 162.039063 L 71.28125 162.039063 L 68.40625 164.851563 L 71.390625 168.054688 L 70.234375 168.054688 L 67.484375 165.117188 L 67.484375 168.054688 L 66.578125 168.054688 Z M 76.984375 164.804688 L 76.984375 165.289063 L 72.890625 165.289063 C 72.929688 165.96875 73.117188 166.484375 73.453125 166.835938 C 73.785156 167.191406 74.242188 167.367188 74.828125 167.367188 C 75.171875 167.367188 75.5 167.320313 75.8125 167.226563 C 76.132813 167.132813 76.457031 167 76.78125 166.820313 L 76.78125 167.742188 C 76.457031 167.898438 76.128906 168.015625 75.796875 168.085938 C 75.460938 168.167969 75.125 168.210938 74.78125 168.210938 C 73.914063 168.210938 73.226563 167.9375 72.71875 167.382813 C 72.21875 166.820313 71.96875 166.0625 71.96875 165.101563 C 71.96875 164.125 72.207031 163.347656 72.6875 162.773438 C 73.164063 162.191406 73.8125 161.898438 74.625 161.898438 C 75.351563 161.898438 75.925781 162.160156 76.34375 162.679688 C 76.769531 163.203125 76.984375 163.910156 76.984375 164.804688 Z M 76.09375 164.507813 C 76.082031 163.96875 75.945313 163.535156 75.6875 163.210938 C 75.425781 162.890625 75.078125 162.726563 74.640625 162.726563 C 74.140625 162.726563 73.738281 162.882813 73.4375 163.195313 C 73.132813 163.507813 72.960938 163.945313 72.921875 164.507813 Z M 76.09375 164.507813 "/>
<path style=" stroke:none;fill-rule:evenodd;fill:rgb(41.960784%,58.039216%,69.019608%);fill-opacity:1;" d="M 49.515625 149.773438 C 48.804688 149.773438 48.238281 150.070313 47.8125 150.664063 C 47.394531 151.25 47.1875 152.046875 47.1875 153.054688 C 47.1875 154.066406 47.394531 154.867188 47.8125 155.460938 C 48.238281 156.046875 48.804688 156.335938 49.515625 156.335938 C 50.222656 156.335938 50.78125 156.046875 51.1875 155.460938 C 51.601563 154.867188 51.8125 154.066406 51.8125 153.054688 C 51.8125 152.046875 51.601563 151.25 51.1875 150.664063 C 50.78125 150.070313 50.222656 149.773438 49.515625 149.773438 Z M 49.515625 148.882813 C 50.523438 148.882813 51.332031 149.265625 51.9375 150.023438 C 52.539063 150.773438 52.84375 151.785156 52.84375 153.054688 C 52.84375 154.316406 52.539063 155.328125 51.9375 156.085938 C 51.332031 156.835938 50.523438 157.210938 49.515625 157.210938 C 48.492188 157.210938 47.679688 156.835938 47.078125 156.085938 C 46.472656 155.335938 46.171875 154.328125 46.171875 153.054688 C 46.171875 151.785156 46.472656 150.773438 47.078125 150.023438 C 47.679688 149.265625 48.492188 148.882813 49.515625 148.882813 Z M 56.78125 154.023438 C 56.0625 154.023438 55.5625 154.117188 55.28125 154.304688 C 55.007813 154.492188 54.875 154.804688 54.875 155.242188 C 54.875 155.585938 54.976563 155.863281 55.1875 156.070313 C 55.394531 156.28125 55.675781 156.382813 56.03125 156.382813 C 56.53125 156.382813 56.925781 156.191406 57.21875 155.804688 C 57.519531 155.410156 57.671875 154.894531 57.671875 154.257813 L 57.671875 154.023438 Z M 58.5625 153.617188 L 58.5625 157.054688 L 57.671875 157.054688 L 57.671875 156.148438 C 57.460938 156.515625 57.207031 156.785156 56.90625 156.960938 C 56.601563 157.125 56.234375 157.210938 55.796875 157.210938 C 55.242188 157.210938 54.800781 157.039063 54.46875 156.695313 C 54.144531 156.351563 53.984375 155.890625 53.984375 155.304688 C 53.984375 154.628906 54.1875 154.117188 54.59375 153.773438 C 55 153.429688 55.609375 153.257813 56.421875 153.257813 L 57.671875 153.257813 L 57.671875 153.164063 C 57.671875 152.707031 57.535156 152.351563 57.265625 152.101563 C 56.992188 151.851563 56.613281 151.726563 56.125 151.726563 C 55.820313 151.726563 55.519531 151.769531 55.21875 151.851563 C 54.925781 151.9375 54.644531 152.0625 54.375 152.226563 L 54.375 151.320313 C 54.707031 151.175781 55.023438 151.070313 55.328125 151.007813 C 55.628906 150.9375 55.925781 150.898438 56.21875 150.898438 C 57 150.898438 57.582031 151.125 57.96875 151.570313 C 58.363281 152.019531 58.5625 152.703125 58.5625 153.617188 Z M 60.34375 148.695313 L 61.25 148.695313 L 61.25 153.632813 L 63.90625 151.039063 L 65.046875 151.039063 L 62.171875 153.851563 L 65.15625 157.054688 L 64 157.054688 L 61.25 154.117188 L 61.25 157.054688 L 60.34375 157.054688 Z M 66.125 148.695313 L 67.015625 148.695313 L 67.015625 157.054688 L 66.125 157.054688 Z M 71.328125 154.023438 C 70.609375 154.023438 70.109375 154.117188 69.828125 154.304688 C 69.554688 154.492188 69.421875 154.804688 69.421875 155.242188 C 69.421875 155.585938 69.523438 155.863281 69.734375 156.070313 C 69.941406 156.28125 70.222656 156.382813 70.578125 156.382813 C 71.078125 156.382813 71.472656 156.191406 71.765625 155.804688 C 72.066406 155.410156 72.21875 154.894531 72.21875 154.257813 L 72.21875 154.023438 Z M 73.109375 153.617188 L 73.109375 157.054688 L 72.21875 157.054688 L 72.21875 156.148438 C 72.007813 156.515625 71.753906 156.785156 71.453125 156.960938 C 71.148438 157.125 70.78125 157.210938 70.34375 157.210938 C 69.789063 157.210938 69.347656 157.039063 69.015625 156.695313 C 68.691406 156.351563 68.53125 155.890625 68.53125 155.304688 C 68.53125 154.628906 68.734375 154.117188 69.140625 153.773438 C 69.546875 153.429688 70.15625 153.257813 70.96875 153.257813 L 72.21875 153.257813 L 72.21875 153.164063 C 72.21875 152.707031 72.082031 152.351563 71.8125 152.101563 C 71.539063 151.851563 71.160156 151.726563 70.671875 151.726563 C 70.367188 151.726563 70.066406 151.769531 69.765625 151.851563 C 69.472656 151.9375 69.191406 152.0625 68.921875 152.226563 L 68.921875 151.320313 C 69.253906 151.175781 69.570313 151.070313 69.875 151.007813 C 70.175781 150.9375 70.472656 150.898438 70.765625 150.898438 C 71.546875 150.898438 72.128906 151.125 72.515625 151.570313 C 72.910156 152.019531 73.109375 152.703125 73.109375 153.617188 Z M 79.4375 153.429688 L 79.4375 157.054688 L 78.546875 157.054688 L 78.546875 153.460938 C 78.546875 152.890625 78.441406 152.460938 78.234375 152.179688 C 78.035156 151.898438 77.738281 151.757813 77.34375 151.757813 C 76.863281 151.757813 76.484375 151.929688 76.203125 152.273438 C 75.929688 152.609375 75.796875 153.066406 75.796875 153.648438 L 75.796875 157.054688 L 74.890625 157.054688 L 74.890625 151.039063 L 75.796875 151.039063 L 75.796875 151.976563 C 76.003906 151.613281 76.25 151.34375 76.53125 151.164063 C 76.820313 150.988281 77.160156 150.898438 77.546875 150.898438 C 78.160156 150.898438 78.628906 151.113281 78.953125 151.539063 C 79.273438 151.96875 79.4375 152.597656 79.4375 153.429688 Z M 84.78125 151.945313 L 84.78125 148.695313 L 85.671875 148.695313 L 85.671875 157.054688 L 84.78125 157.054688 L 84.78125 156.148438 C 84.59375 156.515625 84.351563 156.785156 84.0625 156.960938 C 83.78125 157.125 83.441406 157.210938 83.046875 157.210938 C 82.390625 157.210938 81.851563 156.925781 81.4375 156.351563 C 81.03125 155.769531 80.828125 155.003906 80.828125 154.054688 C 80.828125 153.109375 81.03125 152.347656 81.4375 151.773438 C 81.851563 151.191406 82.390625 150.898438 83.046875 150.898438 C 83.441406 150.898438 83.78125 150.988281 84.0625 151.164063 C 84.351563 151.332031 84.59375 151.59375 84.78125 151.945313 Z M 81.75 154.054688 C 81.75 154.785156 81.878906 155.359375 82.140625 155.773438 C 82.410156 156.179688 82.78125 156.382813 83.25 156.382813 C 83.726563 156.382813 84.101563 156.179688 84.375 155.773438 C 84.644531 155.359375 84.78125 154.785156 84.78125 154.054688 C 84.78125 153.328125 84.644531 152.757813 84.375 152.351563 C 84.101563 151.9375 83.726563 151.726563 83.25 151.726563 C 82.78125 151.726563 82.410156 151.9375 82.140625 152.351563 C 81.878906 152.757813 81.75 153.328125 81.75 154.054688 Z M 55.078125 160.039063 L 56.0625 160.039063 L 56.0625 167.148438 L 59.578125 167.148438 L 59.578125 168.054688 L 55.078125 168.054688 Z M 63.015625 165.023438 C 62.296875 165.023438 61.796875 165.117188 61.515625 165.304688 C 61.242188 165.492188 61.109375 165.804688 61.109375 166.242188 C 61.109375 166.585938 61.210938 166.863281 61.421875 167.070313 C 61.628906 167.28125 61.910156 167.382813 62.265625 167.382813 C 62.765625 167.382813 63.160156 167.191406 63.453125 166.804688 C 63.753906 166.410156 63.90625 165.894531 63.90625 165.257813 L 63.90625 165.023438 Z M 64.796875 164.617188 L 64.796875 168.054688 L 63.90625 168.054688 L 63.90625 167.148438 C 63.695313 167.515625 63.441406 167.785156 63.140625 167.960938 C 62.835938 168.125 62.46875 168.210938 62.03125 168.210938 C 61.476563 168.210938 61.035156 168.039063 60.703125 167.695313 C 60.378906 167.351563 60.21875 166.890625 60.21875 166.304688 C 60.21875 165.628906 60.421875 165.117188 60.828125 164.773438 C 61.234375 164.429688 61.84375 164.257813 62.65625 164.257813 L 63.90625 164.257813 L 63.90625 164.164063 C 63.90625 163.707031 63.769531 163.351563 63.5 163.101563 C 63.226563 162.851563 62.847656 162.726563 62.359375 162.726563 C 62.054688 162.726563 61.753906 162.769531 61.453125 162.851563 C 61.160156 162.9375 60.878906 163.0625 60.609375 163.226563 L 60.609375 162.320313 C 60.941406 162.175781 61.257813 162.070313 61.5625 162.007813 C 61.863281 161.9375 62.160156 161.898438 62.453125 161.898438 C 63.234375 161.898438 63.816406 162.125 64.203125 162.570313 C 64.597656 163.019531 64.796875 163.703125 64.796875 164.617188 Z M 66.578125 159.695313 L 67.484375 159.695313 L 67.484375 164.632813 L 70.140625 162.039063 L 71.28125 162.039063 L 68.40625 164.851563 L 71.390625 168.054688 L 70.234375 168.054688 L 67.484375 165.117188 L 67.484375 168.054688 L 66.578125 168.054688 Z M 76.984375 164.804688 L 76.984375 165.289063 L 72.890625 165.289063 C 72.929688 165.96875 73.117188 166.484375 73.453125 166.835938 C 73.785156 167.191406 74.242188 167.367188 74.828125 167.367188 C 75.171875 167.367188 75.5 167.320313 75.8125 167.226563 C 76.132813 167.132813 76.457031 167 76.78125 166.820313 L 76.78125 167.742188 C 76.457031 167.898438 76.128906 168.015625 75.796875 168.085938 C 75.460938 168.167969 75.125 168.210938 74.78125 168.210938 C 73.914063 168.210938 73.226563 167.9375 72.71875 167.382813 C 72.21875 166.820313 71.96875 166.0625 71.96875 165.101563 C 71.96875 164.125 72.207031 163.347656 72.6875 162.773438 C 73.164063 162.191406 73.8125 161.898438 74.625 161.898438 C 75.351563 161.898438 75.925781 162.160156 76.34375 162.679688 C 76.769531 163.203125 76.984375 163.910156 76.984375 164.804688 Z M 76.09375 164.507813 C 76.082031 163.96875 75.945313 163.535156 75.6875 163.210938 C 75.425781 162.890625 75.078125 162.726563 74.640625 162.726563 C 74.140625 162.726563 73.738281 162.882813 73.4375 163.195313 C 73.132813 163.507813 72.960938 163.945313 72.921875 164.507813 Z M 76.09375 164.507813 "/>
</g>
</svg>

