<?xml version="1.0" encoding="UTF-8"?>
<svg xmlns="http://www.w3.org/2000/svg" xmlns:xlink="http://www.w3.org/1999/xlink" width="256pt" height="256pt" viewBox="0 0 256 256" version="1.1">
<g id="surface2">
<rect x="0" y="0" width="256" height="256" style="fill:rgb(94.901961%,93.72549%,91.372549%);fill-opacity:1;stroke:none;"/>
<path style="fill:none;stroke-width:2;stroke-linecap:round;stroke-linejoin:round;stroke:rgb(60%,70.196078%,80%);stroke-opacity:1;stroke-miterlimit:10;" d="M 258 67.074219 L 245.636719 75.179688 L 240.3125 82.003906 L 234.242188 96.46875 L 232.261719 105.140625 L 235.566406 111.738281 L 248.148438 116.554688 L 258 118.976563 M 258 192.074219 L 256.558594 191.980469 L 253.300781 196.21875 L 253 201.855469 L 258 205.890625 M 258 221.964844 L 249.292969 224.507813 L 238.71875 219.472656 L 230.390625 219.582031 L 224.5 222.980469 L 214.699219 229.1875 L 208.097656 233.625 L 201.945313 235.59375 L 195.621094 237.363281 L 193.6875 241.210938 L 197.195313 251.011719 L 196.199219 258 "/>
<path style="fill:none;stroke-width:8;stroke-linecap:round;stroke-linejoin:round;stroke:rgb(75.686275%,70.980392%,61.568627%);stroke-opacity:1;stroke-miterlimit:10;" d="M 149 21.246094 L 136.246094 16.242188 L 122.746094 10.242188 L 111.296875 6.65625 L 100.246094 1.742188 L 95.746094 -6.003906 L 93.394531 -9 "/>
<path style="fill:none;stroke-width:8;stroke-linecap:round;stroke-linejoin:round;stroke:rgb(75.686275%,70.980392%,61.568627%);stroke-opacity:1;stroke-miterlimit:10;" d="M 153.109375 -9 L 152.246094 -8.007813 L 146.746094 1.742188 L 147.746094 10.492188 L 149 21.246094 L 150.496094 24.996094 L 156.546875 35.15625 L 158.996094 47.242188 L 157.996094 63.742188 L 156.75 77.996094 L 153.746094 88.242188 L 150.046875 96.65625 L 143.296875 104.40625 L 134.296875 111.65625 L 127.546875 116.652344 L 124.296875 120.65625 L 118.75 128.492188 L 115.296875 134.40625 L 107.746094 138.242188 L 110 156.992188 L 107.046875 164.40625 L 98.496094 172.242188 L 98.996094 180.992188 L 101.246094 190.242188 L 99.996094 201.492188 L 94.5 220.496094 L 89.496094 235.242188 L 87.746094 246.492188 L 82.796875 257.65625 L 78.992188 264 "/>
<path style="fill:none;stroke-width:6;stroke-linecap:round;stroke-linejoin:round;stroke:rgb(100%,100%,100%);stroke-opacity:1;stroke-miterlimit:10;" d="M 149 21.246094 L 136.246094 16.242188 L 122.746094 10.242188 L 111.296875 6.65625 L 100.246094 1.742188 L 95.746094 -6.003906 L 93.394531 -9 "/>
<path style="fill:none;stroke-width:6;stroke-linecap:round;stroke-linejoin:round;stroke:rgb(100%,100%,100%);stroke-opacity:1;stroke-miterlimit:10;" d="M 153.109375 -9 L 152.246094 -8.007813 L 146.746094 1.742188 L 147.746094 10.492188 L 149 21.246094 L 150.496094 24.996094 L 156.546875 35.15625 L 158.996094 47.242188 L 157.996094 63.742188 L 156.75 77.996094 L 153.746094 88.242188 L 150.046875 96.65625 L 143.296875 104.40625 L 134.296875 111.65625 L 127.546875 116.652344 L 124.296875 120.65625 L 118.75 128.492188 L 115.296875 134.40625 L 107.746094 138.242188 L 110 156.992188 L 107.046875 164.40625 L 98.496094 172.242188 L 98.996094 180.992188 L 101.246094 190.242188 L 99.996094 201.492188 L 94.5 220.496094 L 89.496094 235.242188 L 87.746094 246.492188 L 82.796875 257.65625 L 78.992188 264 "/>
</g>
</svg>

