<?xml version="1.0" encoding="UTF-8"?>
<svg xmlns="http://www.w3.org/2000/svg" xmlns:xlink="http://www.w3.org/1999/xlink" width="256pt" height="256pt" viewBox="0 0 256 256" version="1.1">
<g id="surface2">
<rect x="0" y="0" width="256" height="256" style="fill:rgb(94.901961%,93.72549%,91.372549%);fill-opacity:1;stroke:none;"/>
<path style="fill:none;stroke-width:1;stroke-linecap:round;stroke-linejoin:round;stroke:rgb(100%,100%,100%);stroke-opacity:1;stroke-dasharray:2,3;stroke-miterlimit:10;" d="M 97.921875 137.703125 L 101.164063 142.832031 "/>
<path style="fill:none;stroke-width:1;stroke-linecap:round;stroke-linejoin:round;stroke:rgb(100%,100%,100%);stroke-opacity:1;stroke-dasharray:2,3;stroke-miterlimit:10;" d="M 190.671875 184.953125 L 195.207031 185.042969 L 205.8125 186 L 214.085938 182.394531 L 229.355469 187.910156 L 230.734375 176.351563 L 233.175781 169.347656 L 233.28125 152.378906 L 232.117188 148.667969 L 234.234375 117.699219 L 233.175781 110.0625 L 226.8125 95.851563 L 220.554688 89.167969 L 219.175781 84.289063 L 214.828125 77.714844 L 216.101563 72.941406 L 213.859375 65.9375 "/>
<path style="fill:none;stroke-width:1;stroke-linecap:round;stroke-linejoin:round;stroke:rgb(100%,100%,100%);stroke-opacity:1;stroke-dasharray:2,3;stroke-miterlimit:10;" d="M 101.164063 142.832031 L 106.917969 151.367188 L 111.902344 150.941406 L 114.5 148.394531 L 120.492188 137.894531 L 120.386719 118.75 L 117.789063 110.796875 L 119.960938 108.039063 L 123.886719 106.660156 L 128.363281 107.570313 L 134.351563 115.316406 L 135.363281 124.917969 L 139.1875 136.839844 L 145 146.855469 L 152.046875 166.050781 L 158.046875 173.4375 L 161.421875 180.414063 L 168.921875 186.5625 L 175.707031 189.714844 L 183.847656 189.035156 L 186.621094 186.375 L 190.671875 184.953125 "/>
<path style="fill:none;stroke-width:1;stroke-linecap:round;stroke-linejoin:round;stroke:rgb(100%,100%,100%);stroke-opacity:1;stroke-dasharray:2,3;stroke-miterlimit:10;" d="M 87.179688 -2 L 71.597656 46.632813 L 67.992188 64.769531 L 67.09375 76.910156 L 69.160156 87.304688 L 76.902344 104.964844 L 92.121094 127.925781 L 94.507813 133.757813 L 97.921875 137.703125 "/>
<path style="fill:none;stroke-width:1;stroke-linecap:round;stroke-linejoin:round;stroke:rgb(100%,100%,100%);stroke-opacity:1;stroke-dasharray:2,3;stroke-miterlimit:10;" d="M 213.859375 65.9375 L 207.257813 62.597656 L 200.734375 56.9375 L 201.449219 52.511719 L 199.613281 48.648438 L 199.613281 42.164063 L 197.25 38.898438 L 178.164063 31.023438 L 171.601563 35.902344 L 166.277344 42.164063 L 163.464844 54.460938 L 165 66.570313 L 158.925781 80.707031 L 158.625 84.910156 L 160.613281 87.683594 L 167.136719 112.285156 L 168.898438 115.058594 L 175.277344 119.707031 L 180.039063 127.804688 L 180.785156 134.78125 L 179.25 136.203125 L 178.199219 150.417969 L 176.4375 153.082031 L 184.164063 178.429688 L 190.671875 184.953125 "/>
<path style="fill:none;stroke-width:1;stroke-linecap:round;stroke-linejoin:round;stroke:rgb(100%,100%,100%);stroke-opacity:1;stroke-dasharray:2,3;stroke-miterlimit:10;" d="M 213.859375 65.9375 L 216.902344 64.992188 L 221.464844 69.527344 L 233.632813 75.679688 L 235.648438 71.25 L 235.730469 66.238281 L 228.621094 54.945313 L 217.539063 41.980469 L 212.132813 31.585938 L 205.238281 24.773438 L 196.859375 9.394531 L 187.074219 7.21875 L 176.042969 12.65625 L 168.0625 13.660156 L 153.375 21.960938 L 146.03125 30.339844 L 143.667969 35.882813 L 144.519531 42.058594 L 143.539063 45.957031 L 137.546875 55.34375 L 137.015625 66.425781 L 134.230469 78.382813 L 130.175781 88.460938 L 128.363281 107.570313 "/>
</g>
</svg>

