<?xml version="1.0" encoding="UTF-8"?>
<svg xmlns="http://www.w3.org/2000/svg" xmlns:xlink="http://www.w3.org/1999/xlink" width="256pt" height="256pt" viewBox="0 0 256 256" version="1.1">
<g id="surface2">
<rect x="0" y="0" width="256" height="256" style="fill:rgb(94.901961%,93.72549%,91.372549%);fill-opacity:1;stroke:none;"/>
<path style=" stroke:none;fill-rule:evenodd;fill:rgb(70.980392%,82.352941%,61.176471%);fill-opacity:1;" d="M -4 260 L 260 260 L 44.890625 260 L 41.28125 251.683594 L 52.359375 260 L 213.636719 260 L 250.558594 159.386719 L 187.488281 90.484375 L 213.6875 -4 L 260 -4 L -4 -4 Z M -4 260 "/>
<path style=" stroke:none;fill-rule:evenodd;fill:rgb(79.607843%,84.705882%,76.470588%);fill-opacity:1;" d="M -4 260 L 260 260 L 44.890625 260 L 41.28125 251.683594 L 52.359375 260 L 213.636719 260 L 250.558594 159.386719 L 187.488281 90.484375 L 213.6875 -4 L 260 -4 L -4 -4 Z M -4 260 "/>
<path style=" stroke:none;fill-rule:evenodd;fill:rgb(79.607843%,84.705882%,76.470588%);fill-opacity:1;" d="M -4 260 L 260 260 L 260 -4 L 112.425781 -4 L 100.425781 23.496094 L -4 175.960938 Z M 260 -4 Z M 260 -4 Z M 260 -4 Z M 260 -4 "/>
<path style=" stroke:none;fill-rule:evenodd;fill:rgb(60%,70.196078%,80%);fill-opacity:1;" d="M -4 39.144531 L -2.695313 38.3125 L -0.695313 38.066406 L 1.179688 36.5625 L 2.179688 34.5625 L 2.054688 33.3125 L 3.054688 33.5625 L 3.179688 34.5625 L 5.054688 34.5625 L 6.554688 35.0625 L 8.304688 35.6875 L 10.304688 35.4375 L 11.804688 33.941406 L 12.929688 32.0625 L 13.679688 30.6875 L 14.054688 28.4375 L 15.179688 28.0625 L 16.679688 26.9375 L 17.179688 25.5625 L 17.679688 24.0625 L 18.804688 22.441406 L 18.304688 20.5625 L 18.554688 18.191406 L 18.679688 16.3125 L 19.179688 14.4375 L 19.179688 12.316406 L 20.304688 13.066406 L 21.804688 12.316406 L 23.554688 10.941406 L 25.429688 9.316406 L 26.082031 8.199219 L 26.097656 6.570313 L 24.585938 2.941406 L 22.898438 -1.175781 L 21.152344 -3.042969 L 19.710938 -3.574219 L 18.089844 -3.574219 L 15.339844 -2.699219 L 13.085938 -1.949219 L 11.089844 -0.699219 L 9.085938 0.550781 L 6.835938 1.675781 L 4.835938 3.046875 L 3.339844 4.550781 L 2.710938 7.550781 L 2.210938 10.300781 L 2.210938 12.925781 L 0.710938 15.550781 L -0.539063 16.675781 L -2.039063 17.175781 L -3.660156 16.550781 L -4 -4 Z M -4 39.144531 "/>
<path style="fill:none;stroke-width:1;stroke-linecap:round;stroke-linejoin:round;stroke:rgb(70.196078%,77.647059%,83.137255%);stroke-opacity:1;stroke-miterlimit:10;" d="M -4 39.144531 L -2.695313 38.3125 L -0.695313 38.066406 L 1.179688 36.5625 L 2.179688 34.5625 L 2.054688 33.3125 L 3.054688 33.5625 L 3.179688 34.5625 L 5.054688 34.5625 L 6.554688 35.0625 L 8.304688 35.6875 L 10.304688 35.4375 L 11.804688 33.941406 L 12.929688 32.0625 L 13.679688 30.6875 L 14.054688 28.4375 L 15.179688 28.0625 L 16.679688 26.9375 L 17.179688 25.5625 L 17.679688 24.0625 L 18.804688 22.441406 L 18.304688 20.5625 L 18.554688 18.191406 L 18.679688 16.3125 L 19.179688 14.4375 L 19.179688 12.316406 L 20.304688 13.066406 L 21.804688 12.316406 L 23.554688 10.941406 L 25.429688 9.316406 L 26.082031 8.199219 L 26.097656 6.570313 L 24.585938 2.941406 L 22.898438 -1.175781 L 21.152344 -3.042969 L 19.710938 -3.574219 L 18.089844 -3.574219 L 15.339844 -2.699219 L 13.085938 -1.949219 L 11.089844 -0.699219 L 9.085938 0.550781 L 6.835938 1.675781 L 4.835938 3.046875 L 3.339844 4.550781 L 2.710938 7.550781 L 2.210938 10.300781 L 2.210938 12.925781 L 0.710938 15.550781 L -0.539063 16.675781 L -2.039063 17.175781 L -3.660156 16.550781 L -4 -4 L -4 39.144531 "/>
<path style="fill:none;stroke-width:2;stroke-linecap:round;stroke-linejoin:round;stroke:rgb(60%,70.196078%,80%);stroke-opacity:1;stroke-miterlimit:10;" d="M 24.585938 2.941406 L 27.167969 1.730469 L 29.761719 1.082031 L 34.753906 1.261719 L 40.132813 1.167969 L 47.820313 0.34375 L 55.746094 -2.972656 L 55.769531 -3 "/>
<path style="fill:none;stroke-width:1;stroke-linecap:round;stroke-linejoin:round;stroke:rgb(100%,100%,100%);stroke-opacity:1;stroke-dasharray:2,3;stroke-miterlimit:10;" d="M 42.867188 71.371094 L 47.105469 69.839844 L 49.625 68.863281 L 53.480469 63.480469 "/>
<path style="fill:none;stroke-width:1;stroke-linecap:round;stroke-linejoin:round;stroke:rgb(100%,100%,100%);stroke-opacity:1;stroke-dasharray:2,3;stroke-miterlimit:10;" d="M 240.515625 244.851563 L 239.746094 244.011719 L 244.75 239.003906 L 248.203125 238.3125 L 249.242188 233.757813 "/>
<path style="fill:none;stroke-width:1;stroke-linecap:round;stroke-linejoin:round;stroke:rgb(100%,100%,100%);stroke-opacity:1;stroke-dasharray:2,3;stroke-miterlimit:10;" d="M 231.816406 207.144531 L 230.339844 208.171875 L 228.296875 209.597656 L 226.992188 210.433594 L 221.492188 213.96875 L 219.417969 215.023438 L 217.460938 215.582031 L 214.105469 215.023438 L 207.699219 212.078125 L 199.636719 209.535156 L 178.96875 206.121094 L 174.238281 205.097656 L 170.859375 203.917969 L 168.273438 202.585938 L 161.542969 198.660156 L 154.542969 196.660156 L 151.375 195.84375 L 147.792969 194.910156 L 144.292969 193.914063 L 140.792969 192.410156 L 139.542969 190.910156 "/>
<path style="fill:none;stroke-width:1;stroke-linecap:round;stroke-linejoin:round;stroke:rgb(100%,100%,100%);stroke-opacity:1;stroke-dasharray:2,3;stroke-miterlimit:10;" d="M 151.375 195.84375 L 150.292969 201.914063 L 148.792969 206.660156 L 146.792969 211.410156 L 143.792969 213.664063 L 141.042969 216.164063 L 139.542969 219.660156 L 135.042969 221.664063 L 132.042969 224.914063 L 129.542969 230.660156 L 128.292969 234.410156 L 127.542969 236.910156 L 128.292969 239.660156 L 126.542969 242.914063 L 123.792969 241.664063 L 119.292969 239.660156 L 115.042969 238.664063 L 109.042969 238.410156 L 105.292969 239.660156 L 103.292969 243.160156 L 102.042969 247.914063 L 100.042969 251.664063 L 97.792969 253.160156 L 94.542969 254.410156 L 90.542969 253.160156 L 87.292969 250.914063 L 83.542969 250.660156 L 79.542969 252.164063 L 74.914063 253.21875 "/>
<path style="fill:none;stroke-width:1;stroke-linecap:round;stroke-linejoin:round;stroke:rgb(100%,100%,100%);stroke-opacity:1;stroke-dasharray:2,3;stroke-miterlimit:10;" d="M 203.402344 171.695313 L 203.457031 164.058594 L 203.039063 157.296875 L 202.175781 154.101563 L 199.214844 147.992188 L 197.75 145.851563 L 194.789063 143.523438 L 191.828125 141.632813 L 186.75 139.308594 L 183.789063 136.980469 L 177.011719 130.652344 L 174.46875 126.835938 L 169.601563 117.53125 L 167.921875 114.554688 L 164.964844 111.390625 L 163.261719 110.335938 L 160.933594 109.496094 L 155.222656 108.441406 L 152.683594 108.628906 L 148.675781 109.496094 L 141.476563 111.824219 L 131.945313 115.203125 L 130.265625 115.609375 L 126.445313 115.421875 L 123.695313 116.257813 L 122.648438 116.878906 L 118.441406 116.875 "/>
<path style="fill:none;stroke-width:1;stroke-linecap:round;stroke-linejoin:round;stroke:rgb(100%,100%,100%);stroke-opacity:1;stroke-dasharray:2,3;stroke-miterlimit:10;" d="M 76.476563 257 L 74.914063 253.21875 L 72.460938 248.042969 L 69.6875 247.210938 L 67.8125 247.585938 L 65.5625 250.339844 L 64.382813 253.375 L 63.1875 255.839844 L 60.929688 256.679688 L 59.800781 257 M 56.636719 257 L 54.074219 255.671875 L 50.210938 254.078125 L 46.910156 253.191406 L 35.949219 256.886719 L 35.664063 257 "/>
<path style="fill:none;stroke-width:1;stroke-linecap:round;stroke-linejoin:round;stroke:rgb(100%,100%,100%);stroke-opacity:1;stroke-dasharray:2,3;stroke-miterlimit:10;" d="M -2 122.585938 L 2.5625 123.210938 L 5.511719 124.25 L 10.3125 121.710938 L 16.0625 120.960938 L 20.0625 119.960938 L 27.5625 119.960938 "/>
<path style="fill:none;stroke-width:1;stroke-linecap:round;stroke-linejoin:round;stroke:rgb(100%,100%,100%);stroke-opacity:1;stroke-dasharray:2,3;stroke-miterlimit:10;" d="M 42.867188 71.371094 L 44.6875 73.710938 L 47.1875 75.710938 L 51.628906 77.125 L 54.9375 79.210938 L 58.007813 82.75 L 60.6875 86.964844 L 62.382813 90.875 L 62.5625 95.335938 L 63.6875 99.835938 L 65.003906 103.875 L 63.632813 107.5 L 63.382813 111.75 L 65.5625 116.089844 L 70.0625 115.335938 L 72.628906 115.25 L 77.382813 116 L 79.882813 117.375 L 84.253906 121.5 L 84.882813 126.75 L 86.753906 132.25 L 87.507813 137 L 90.0625 142.835938 L 93.8125 147.085938 L 98.253906 152.875 L 102.6875 157.339844 L 103.132813 160 L 107.3125 163.214844 L 109.1875 164.335938 L 114.0625 167.335938 L 119.9375 170.460938 L 123.253906 172.25 L 129.132813 173.625 L 134.5625 172.585938 L 139.0625 173.835938 L 143.007813 174.75 L 146.378906 171.875 L 149.8125 167.710938 L 151.8125 164.710938 L 154.007813 163.875 L 157.628906 165 L 161.8125 166.710938 L 166.8125 169.460938 L 173.0625 170.335938 L 176.382813 174.375 L 179.1875 177.710938 L 183.507813 182.875 L 186.1875 185.710938 L 188.6875 186.648438 L 191.5625 186.75 L 194.691406 186.75 L 200.316406 188.25 L 206.503906 190.125 L 209.941406 193.6875 L 214.441406 196.746094 L 219.3125 198.773438 L 222.8125 200.589844 L 223 203.210938 L 223.875 207.023438 L 225.253906 208.0625 L 227.25 208.527344 L 228.296875 209.597656 L 230.339844 208.171875 L 229.96875 212.746094 L 230.992188 218.257813 L 231.464844 222.246094 L 235.21875 224.992188 L 239.46875 226.496094 L 242.21875 229.242188 L 244.96875 231.742188 L 249.242188 233.757813 L 254.992188 235.007813 L 257 235.003906 "/>
<path style="fill:none;stroke-width:1;stroke-linecap:round;stroke-linejoin:round;stroke:rgb(100%,100%,100%);stroke-opacity:1;stroke-dasharray:2,3;stroke-miterlimit:10;" d="M 42.867188 71.371094 L 40.761719 72.25 L 37.5625 74.210938 L 34.5625 78.964844 L 33.8125 84.710938 L 31.5625 91.214844 L 28.761719 96 L 23.8125 99.460938 L 25.3125 106.460938 L 26.8125 112.960938 L 27.5625 119.960938 L 33.011719 134.996094 L 36.3125 139.960938 L 38.511719 147 L 39.8125 154.460938 L 40.0625 161.964844 L 39.5625 173.960938 L 40.3125 182.210938 L 41.0625 187.710938 L 46.511719 195 L 50.261719 200.75 L 52.0625 207.460938 L 53.3125 212.460938 L 55.8125 217.835938 L 56.878906 223.875 L 56.8125 228.960938 L 57.878906 233 L 58.6875 237.335938 L 57.503906 240.875 L 56.4375 243.714844 L 58.0625 248.210938 L 60.3125 252.335938 L 63.1875 255.839844 L 63.390625 257 "/>
<path style="fill:none;stroke-width:1;stroke-linecap:round;stroke-linejoin:round;stroke:rgb(100%,100%,100%);stroke-opacity:1;stroke-dasharray:2,3;stroke-miterlimit:10;" d="M 257 240.792969 L 251.015625 242.851563 L 245.765625 243.601563 L 240.515625 244.851563 L 239.054688 248.5 L 247.6875 256.441406 L 247.542969 257 "/>
<path style="fill:none;stroke-width:8;stroke-linecap:round;stroke-linejoin:round;stroke:rgb(75.686275%,70.980392%,61.568627%);stroke-opacity:1;stroke-miterlimit:10;" d="M 248.605469 192.695313 L 231.816406 207.144531 "/>
<path style="fill:none;stroke-width:8;stroke-linecap:round;stroke-linejoin:round;stroke:rgb(75.686275%,70.980392%,61.568627%);stroke-opacity:1;stroke-miterlimit:10;" d="M 20.171875 43.753906 L 20.753906 41.957031 L 21.441406 40.089844 L 22.378906 37.992188 L 23.824219 35.019531 L 25.664063 31.449219 L 30.382813 22.457031 L 32.285156 18.351563 L 34.023438 14.410156 L 35.496094 10.691406 L 36.9375 6.839844 L 37.957031 3.300781 L 38.902344 -0.617188 L 40.65625 -9 "/>
<path style="fill:none;stroke-width:10;stroke-linecap:round;stroke-linejoin:round;stroke:rgb(72.941176%,43.137255%,15.294118%);stroke-opacity:1;stroke-miterlimit:10;" d="M 20.171875 43.753906 L 23.375 44.457031 "/>
<path style="fill:none;stroke-width:10;stroke-linecap:round;stroke-linejoin:round;stroke:rgb(72.941176%,43.137255%,15.294118%);stroke-opacity:1;stroke-miterlimit:10;" d="M 37.894531 51.199219 L 41.378906 53.816406 L 44.832031 56.519531 L 53.480469 63.480469 "/>
<path style="fill:none;stroke-width:10;stroke-linecap:round;stroke-linejoin:round;stroke:rgb(72.941176%,43.137255%,15.294118%);stroke-opacity:1;stroke-miterlimit:10;" d="M -3.160156 47.328125 L -0.078125 45.613281 L 3.382813 44.21875 L 6.589844 43.457031 L 10.09375 43.039063 L 13.519531 42.988281 L 17.089844 43.234375 L 20.171875 43.753906 "/>
<path style="fill:none;stroke-width:10;stroke-linecap:round;stroke-linejoin:round;stroke:rgb(72.941176%,43.137255%,15.294118%);stroke-opacity:1;stroke-miterlimit:10;" d="M 53.480469 63.480469 L 69.285156 76.195313 L 76.703125 82.167969 "/>
<path style="fill:none;stroke-width:10;stroke-linecap:round;stroke-linejoin:round;stroke:rgb(72.941176%,43.137255%,15.294118%);stroke-opacity:1;stroke-miterlimit:10;" d="M 18.117188 57.632813 L 5.074219 67.316406 L 2.96875 68.507813 L 0.726563 69.1875 L -1.597656 69.261719 L -3.769531 68.839844 L -6.179688 67.699219 L -8.003906 66.117188 L -9.261719 64.523438 L -10.117188 62.84375 L -10.65625 60.957031 L -10.761719 58.953125 L -10.523438 56.933594 L -9.824219 54.929688 L -8.75 52.871094 L -7.386719 51.074219 L -5.371094 49.0625 L -3.160156 47.328125 "/>
<path style="fill:none;stroke-width:10;stroke-linecap:round;stroke-linejoin:round;stroke:rgb(72.941176%,43.137255%,15.294118%);stroke-opacity:1;stroke-miterlimit:10;" d="M 69.285156 76.195313 L 64.675781 71.597656 L 62.167969 68.890625 L 59.699219 65.960938 L 57.457031 62.808594 L 55.488281 59.554688 L 53.902344 56.277344 L 52.613281 53.101563 L 51.628906 49.8125 L 50.925781 46.324219 L 50.476563 42.882813 L 50.335938 39.5 L 50.476563 36.199219 L 50.914063 33.046875 L 51.699219 29.507813 L 52.710938 26.289063 L 54.003906 23.058594 L 55.699219 19.855469 L 57.636719 16.542969 L 66.882813 1.921875 "/>
<path style="fill:none;stroke-width:10;stroke-linecap:round;stroke-linejoin:round;stroke:rgb(72.941176%,43.137255%,15.294118%);stroke-opacity:1;stroke-miterlimit:10;" d="M -11 89.460938 L 7.160156 75.796875 L 10.464844 73.554688 L 13.964844 71.460938 L 17.347656 69.769531 L 20.996094 68.261719 L 24.78125 67.082031 L 28.597656 66.296875 L 32.777344 65.8125 L 36.628906 65.683594 L 40.472656 65.808594 L 44.703125 66.371094 L 48.683594 67.261719 L 52.207031 68.40625 L 55.777344 69.875 L 59.453125 71.683594 L 63.308594 73.859375 L 76.703125 82.167969 "/>
<path style="fill:none;stroke-width:8;stroke-linecap:round;stroke-linejoin:round;stroke:rgb(75.686275%,70.980392%,61.568627%);stroke-opacity:1;stroke-miterlimit:10;" d="M 76.703125 82.167969 L 81.851563 86.332031 L 87.367188 90.875 L 97.15625 99.09375 L 104.714844 105.535156 L 113.242188 112.625 L 118.441406 116.875 L 137.800781 131.292969 L 152.804688 141.695313 L 168.40625 151.695313 L 185.402344 161.894531 L 203.402344 171.695313 L 248.605469 192.695313 L 264 200.390625 "/>
<path style="fill:none;stroke-width:11;stroke-linecap:round;stroke-linejoin:round;stroke:rgb(72.941176%,43.137255%,15.294118%);stroke-opacity:1;stroke-miterlimit:10;" d="M -12 90.09375 L -4.878906 83.953125 L 0.492188 79.410156 L 6.003906 74.707031 L 11.097656 70.203125 L 16.199219 65.472656 L 21.171875 60.609375 L 25.988281 55.457031 L 30.402344 50.46875 L 35.101563 44.835938 L 39.359375 39.515625 L 43.644531 33.832031 L 47.625 28.21875 L 51.410156 22.707031 L 57.753906 13.617188 L 60.417969 9.941406 L 63.476563 5.996094 L 66.882813 1.921875 L 70.128906 -1.710938 L 73.480469 -5.183594 L 77.136719 -8.800781 L 80.527344 -12 "/>
<path style="fill:none;stroke-width:11;stroke-linecap:round;stroke-linejoin:round;stroke:rgb(72.941176%,43.137255%,15.294118%);stroke-opacity:1;stroke-miterlimit:10;" d="M 73.484375 -12 L 70.207031 -8.492188 L 66.867188 -4.664063 L 63.503906 -0.632813 L 60.34375 3.46875 L 57.253906 7.730469 L 54.496094 11.722656 L 51.546875 15.945313 L 48.496094 20.410156 L 44.605469 26.003906 L 40.621094 31.570313 L 36.355469 37.128906 L 32.027344 42.398438 L 27.433594 47.832031 L 22.960938 52.707031 L 18.117188 57.632813 L 12.777344 62.585938 L 7.832031 66.90625 L 2.71875 71.136719 L -2.898438 75.402344 L -8.417969 79.410156 L -12 81.820313 "/>
<path style="fill:none;stroke-width:6;stroke-linecap:round;stroke-linejoin:round;stroke:rgb(100%,100%,100%);stroke-opacity:1;stroke-miterlimit:10;" d="M 248.605469 192.695313 L 231.816406 207.144531 "/>
<path style="fill:none;stroke-width:6;stroke-linecap:round;stroke-linejoin:round;stroke:rgb(100%,100%,100%);stroke-opacity:1;stroke-miterlimit:10;" d="M 20.171875 43.753906 L 20.753906 41.957031 L 21.441406 40.089844 L 22.378906 37.992188 L 23.824219 35.019531 L 25.664063 31.449219 L 30.382813 22.457031 L 32.285156 18.351563 L 34.023438 14.410156 L 35.496094 10.691406 L 36.9375 6.839844 L 37.957031 3.300781 L 38.902344 -0.617188 L 40.65625 -9 "/>
<path style="fill:none;stroke-width:8;stroke-linecap:round;stroke-linejoin:round;stroke:rgb(99.215686%,57.254902%,22.745098%);stroke-opacity:1;stroke-miterlimit:10;" d="M 20.171875 43.753906 L 23.375 44.457031 "/>
<path style="fill:none;stroke-width:8;stroke-linecap:round;stroke-linejoin:round;stroke:rgb(99.215686%,57.254902%,22.745098%);stroke-opacity:1;stroke-miterlimit:10;" d="M 37.894531 51.199219 L 41.378906 53.816406 L 44.832031 56.519531 L 53.480469 63.480469 "/>
<path style="fill:none;stroke-width:8;stroke-linecap:round;stroke-linejoin:round;stroke:rgb(99.215686%,57.254902%,22.745098%);stroke-opacity:1;stroke-miterlimit:10;" d="M -3.160156 47.328125 L -0.078125 45.613281 L 3.382813 44.21875 L 6.589844 43.457031 L 10.09375 43.039063 L 13.519531 42.988281 L 17.089844 43.234375 L 20.171875 43.753906 "/>
<path style="fill:none;stroke-width:8;stroke-linecap:round;stroke-linejoin:round;stroke:rgb(99.215686%,57.254902%,22.745098%);stroke-opacity:1;stroke-miterlimit:10;" d="M 53.480469 63.480469 L 69.285156 76.195313 L 76.703125 82.167969 "/>
<path style="fill:none;stroke-width:8;stroke-linecap:round;stroke-linejoin:round;stroke:rgb(99.215686%,57.254902%,22.745098%);stroke-opacity:1;stroke-miterlimit:10;" d="M 18.117188 57.632813 L 5.074219 67.316406 L 2.96875 68.507813 L 0.726563 69.1875 L -1.597656 69.261719 L -3.769531 68.839844 L -6.179688 67.699219 L -8.003906 66.117188 L -9.261719 64.523438 L -10.117188 62.84375 L -10.65625 60.957031 L -10.761719 58.953125 L -10.523438 56.933594 L -9.824219 54.929688 L -8.75 52.871094 L -7.386719 51.074219 L -5.371094 49.0625 L -3.160156 47.328125 "/>
<path style="fill:none;stroke-width:8;stroke-linecap:round;stroke-linejoin:round;stroke:rgb(99.215686%,57.254902%,22.745098%);stroke-opacity:1;stroke-miterlimit:10;" d="M 69.285156 76.195313 L 64.675781 71.597656 L 62.167969 68.890625 L 59.699219 65.960938 L 57.457031 62.808594 L 55.488281 59.554688 L 53.902344 56.277344 L 52.613281 53.101563 L 51.628906 49.8125 L 50.925781 46.324219 L 50.476563 42.882813 L 50.335938 39.5 L 50.476563 36.199219 L 50.914063 33.046875 L 51.699219 29.507813 L 52.710938 26.289063 L 54.003906 23.058594 L 55.699219 19.855469 L 57.636719 16.542969 L 66.882813 1.921875 "/>
<path style="fill:none;stroke-width:8;stroke-linecap:round;stroke-linejoin:round;stroke:rgb(99.215686%,57.254902%,22.745098%);stroke-opacity:1;stroke-miterlimit:10;" d="M -11 89.460938 L 7.160156 75.796875 L 10.464844 73.554688 L 13.964844 71.460938 L 17.347656 69.769531 L 20.996094 68.261719 L 24.78125 67.082031 L 28.597656 66.296875 L 32.777344 65.8125 L 36.628906 65.683594 L 40.472656 65.808594 L 44.703125 66.371094 L 48.683594 67.261719 L 52.207031 68.40625 L 55.777344 69.875 L 59.453125 71.683594 L 63.308594 73.859375 L 76.703125 82.167969 "/>
<path style="fill:none;stroke-width:6;stroke-linecap:round;stroke-linejoin:round;stroke:rgb(100%,99.215686%,54.509804%);stroke-opacity:1;stroke-miterlimit:10;" d="M 76.703125 82.167969 L 81.851563 86.332031 L 87.367188 90.875 L 97.15625 99.09375 L 104.714844 105.535156 L 113.242188 112.625 L 118.441406 116.875 L 137.800781 131.292969 L 152.804688 141.695313 L 168.40625 151.695313 L 185.402344 161.894531 L 203.402344 171.695313 L 248.605469 192.695313 L 264 200.390625 "/>
<path style="fill:none;stroke-width:9;stroke-linecap:round;stroke-linejoin:round;stroke:rgb(99.215686%,57.254902%,22.745098%);stroke-opacity:1;stroke-miterlimit:10;" d="M -12 90.09375 L -4.878906 83.953125 L 0.492188 79.410156 L 6.003906 74.707031 L 11.097656 70.203125 L 16.199219 65.472656 L 21.171875 60.609375 L 25.988281 55.457031 L 30.402344 50.46875 L 35.101563 44.835938 L 39.359375 39.515625 L 43.644531 33.832031 L 47.625 28.21875 L 51.410156 22.707031 L 57.753906 13.617188 L 60.417969 9.941406 L 63.476563 5.996094 L 66.882813 1.921875 L 70.128906 -1.710938 L 73.480469 -5.183594 L 77.136719 -8.800781 L 80.527344 -12 "/>
<path style="fill:none;stroke-width:9;stroke-linecap:round;stroke-linejoin:round;stroke:rgb(99.215686%,57.254902%,22.745098%);stroke-opacity:1;stroke-miterlimit:10;" d="M 73.484375 -12 L 70.207031 -8.492188 L 66.867188 -4.664063 L 63.503906 -0.632813 L 60.34375 3.46875 L 57.253906 7.730469 L 54.496094 11.722656 L 51.546875 15.945313 L 48.496094 20.410156 L 44.605469 26.003906 L 40.621094 31.570313 L 36.355469 37.128906 L 32.027344 42.398438 L 27.433594 47.832031 L 22.960938 52.707031 L 18.117188 57.632813 L 12.777344 62.585938 L 7.832031 66.90625 L 2.71875 71.136719 L -2.898438 75.402344 L -8.417969 79.410156 L -12 81.820313 "/>
<path style="fill:none;stroke-width:10;stroke-linecap:butt;stroke-linejoin:round;stroke:rgb(53.333333%,53.333333%,53.333333%);stroke-opacity:1;stroke-miterlimit:10;" d="M 23.375 44.457031 L 26.886719 45.578125 L 30.683594 47.023438 L 34.175781 48.875 L 37.894531 51.199219 "/>
<path style="fill:none;stroke-width:8;stroke-linecap:round;stroke-linejoin:round;stroke:rgb(99.215686%,57.254902%,22.745098%);stroke-opacity:1;stroke-miterlimit:10;" d="M 23.375 44.457031 L 26.886719 45.578125 L 30.683594 47.023438 L 34.175781 48.875 L 37.894531 51.199219 "/>
<path style=" stroke:none;fill-rule:evenodd;fill:rgb(33.333333%,33.333333%,33.333333%);fill-opacity:1;" d="M 15.222656 54.460938 L 16.660156 53.007813 L 20.394531 56.695313 C 20.902344 57.195313 21.339844 57.484375 21.707031 57.554688 C 22.082031 57.617188 22.441406 57.476563 22.785156 57.132813 C 23.117188 56.789063 23.246094 56.4375 23.175781 56.070313 C 23.101563 55.695313 22.808594 55.257813 22.300781 54.757813 L 18.566406 51.070313 L 19.988281 49.617188 L 23.722656 53.304688 C 24.605469 54.171875 25.066406 55.019531 25.097656 55.851563 C 25.136719 56.675781 24.761719 57.492188 23.972656 58.304688 C 23.167969 59.117188 22.351563 59.515625 21.519531 59.492188 C 20.699219 59.460938 19.84375 59.015625 18.957031 58.148438 Z M 25.054688 44.433594 L 26.429688 45.667969 C 25.992188 45.847656 25.597656 46.054688 25.242188 46.292969 C 24.890625 46.523438 24.585938 46.777344 24.335938 47.058594 C 24.015625 47.414063 23.828125 47.726563 23.773438 47.996094 C 23.722656 48.269531 23.816406 48.507813 24.054688 48.714844 C 24.234375 48.882813 24.425781 48.949219 24.632813 48.917969 C 24.832031 48.886719 25.101563 48.746094 25.445313 48.496094 L 26.164063 47.980469 C 26.894531 47.449219 27.527344 47.183594 28.070313 47.183594 C 28.609375 47.175781 29.15625 47.414063 29.710938 47.902344 C 30.417969 48.550781 30.777344 49.222656 30.789063 49.917969 C 30.796875 50.617188 30.453125 51.355469 29.757813 52.136719 C 29.421875 52.511719 29.046875 52.855469 28.632813 53.167969 C 28.214844 53.472656 27.761719 53.742188 27.273438 53.980469 L 25.867188 52.699219 C 26.410156 52.523438 26.894531 52.308594 27.320313 52.058594 C 27.746094 51.808594 28.105469 51.523438 28.398438 51.199219 C 28.699219 50.867188 28.867188 50.558594 28.898438 50.277344 C 28.9375 49.996094 28.84375 49.753906 28.617188 49.542969 C 28.40625 49.355469 28.195313 49.277344 27.976563 49.308594 C 27.757813 49.332031 27.4375 49.476563 27.023438 49.746094 L 26.367188 50.214844 C 25.710938 50.675781 25.109375 50.902344 24.554688 50.902344 C 24.003906 50.894531 23.472656 50.660156 22.960938 50.199219 C 22.304688 49.617188 21.972656 48.980469 21.960938 48.292969 C 21.953125 47.597656 22.265625 46.898438 22.898438 46.199219 C 23.179688 45.878906 23.503906 45.570313 23.867188 45.277344 C 24.234375 44.988281 24.628906 44.707031 25.054688 44.433594 Z M 33.941406 40.339844 C 33.714844 40.613281 33.644531 40.902344 33.738281 41.214844 C 33.824219 41.519531 34.0625 41.832031 34.457031 42.152344 C 34.839844 42.476563 35.183594 42.648438 35.488281 42.667969 C 35.800781 42.691406 36.070313 42.566406 36.300781 42.292969 C 36.527344 42.011719 36.601563 41.726563 36.519531 41.433594 C 36.433594 41.132813 36.199219 40.820313 35.816406 40.496094 C 35.417969 40.175781 35.066406 39.996094 34.753906 39.964844 C 34.441406 39.933594 34.171875 40.058594 33.941406 40.339844 Z M 32.300781 35.730469 L 33.535156 36.761719 C 33.191406 36.910156 32.894531 37.070313 32.644531 37.246094 C 32.394531 37.425781 32.183594 37.617188 32.003906 37.824219 C 31.621094 38.292969 31.464844 38.777344 31.535156 39.277344 C 31.597656 39.777344 31.894531 40.277344 32.425781 40.777344 C 32.425781 40.488281 32.480469 40.207031 32.582031 39.933594 C 32.675781 39.664063 32.828125 39.402344 33.035156 39.152344 C 33.546875 38.539063 34.15625 38.207031 34.863281 38.152344 C 35.582031 38.101563 36.269531 38.339844 36.925781 38.871094 C 37.644531 39.476563 38.042969 40.175781 38.128906 40.964844 C 38.222656 41.746094 37.972656 42.496094 37.378906 43.214844 C 36.722656 44.007813 35.917969 44.378906 34.972656 44.324219 C 34.027344 44.261719 33.011719 43.785156 31.925781 42.886719 C 30.8125 41.972656 30.152344 40.996094 29.941406 39.964844 C 29.722656 38.933594 29.972656 37.980469 30.691406 37.105469 C 30.921875 36.824219 31.171875 36.574219 31.441406 36.355469 C 31.703125 36.128906 31.988281 35.917969 32.300781 35.730469 Z M 38.59375 37.851563 L 39.765625 36.351563 L 41.171875 37.445313 L 42.109375 39.804688 L 41.421875 40.695313 L 40 38.945313 Z M 35.203125 35.226563 L 36.375 33.726563 L 38.15625 35.117188 L 36.984375 36.617188 Z M 35.886719 30.714844 L 37.886719 27.996094 C 38.480469 27.195313 39.136719 26.726563 39.855469 26.589844 C 40.566406 26.445313 41.289063 26.648438 42.027344 27.199219 C 42.765625 27.742188 43.175781 28.378906 43.261719 29.105469 C 43.34375 29.824219 43.089844 30.585938 42.496094 31.386719 L 41.714844 32.464844 L 44.152344 34.261719 L 42.933594 35.902344 Z M 38.433594 30.042969 L 40.386719 31.496094 L 41.042969 30.605469 C 41.285156 30.285156 41.382813 29.972656 41.339844 29.667969 C 41.289063 29.367188 41.105469 29.105469 40.792969 28.886719 C 40.480469 28.648438 40.179688 28.554688 39.886719 28.605469 C 39.597656 28.648438 39.332031 28.832031 39.089844 29.152344 Z M 40.5 24.414063 L 41.6875 22.726563 L 48.84375 27.773438 L 47.65625 29.460938 Z M 42.792969 21.160156 L 44.714844 18.378906 C 45.277344 17.558594 45.917969 17.066406 46.636719 16.910156 C 47.347656 16.753906 48.082031 16.9375 48.839844 17.457031 C 49.589844 17.980469 50.011719 18.597656 50.105469 19.316406 C 50.207031 20.035156 49.980469 20.808594 49.417969 21.628906 L 48.652344 22.722656 L 51.152344 24.441406 L 49.996094 26.128906 Z M 45.308594 20.394531 L 47.308594 21.785156 L 47.949219 20.878906 C 48.167969 20.558594 48.253906 20.25 48.199219 19.957031 C 48.136719 19.65625 47.949219 19.394531 47.636719 19.175781 C 47.316406 18.949219 47.007813 18.863281 46.714844 18.925781 C 46.425781 18.980469 46.167969 19.167969 45.949219 19.488281 Z M 45.308594 20.394531 "/>
<path style="fill:none;stroke-width:3;stroke-linecap:round;stroke-linejoin:round;stroke:rgb(100%,100%,100%);stroke-opacity:1;stroke-miterlimit:10;" d="M 133.816406 123.640625 L 133.191406 124.484375 C 133.023438 124.121094 132.832031 123.796875 132.613281 123.515625 C 132.394531 123.234375 132.164063 123.007813 131.925781 122.828125 C 131.496094 122.515625 131.101563 122.371094 130.738281 122.390625 C 130.371094 122.402344 130.066406 122.574219 129.816406 122.90625 C 129.605469 123.1875 129.523438 123.460938 129.566406 123.71875 C 129.605469 123.96875 129.808594 124.304688 130.175781 124.71875 L 130.566406 125.15625 C 131.066406 125.71875 131.335938 126.261719 131.378906 126.78125 C 131.417969 127.300781 131.246094 127.820313 130.863281 128.34375 C 130.394531 128.96875 129.851563 129.300781 129.238281 129.34375 C 128.621094 129.382813 127.949219 129.132813 127.222656 128.59375 C 126.949219 128.394531 126.683594 128.144531 126.425781 127.84375 C 126.175781 127.539063 125.933594 127.203125 125.707031 126.828125 L 126.363281 125.9375 C 126.539063 126.375 126.738281 126.753906 126.957031 127.078125 C 127.183594 127.410156 127.445313 127.679688 127.738281 127.890625 C 128.183594 128.222656 128.605469 128.378906 129.003906 128.359375 C 129.398438 128.347656 129.726563 128.164063 129.988281 127.8125 C 130.226563 127.488281 130.324219 127.171875 130.285156 126.859375 C 130.253906 126.558594 130.066406 126.214844 129.722656 125.828125 L 129.332031 125.375 C 128.832031 124.8125 128.554688 124.296875 128.503906 123.828125 C 128.449219 123.359375 128.613281 122.875 128.988281 122.375 C 129.402344 121.8125 129.914063 121.5 130.519531 121.4375 C 131.121094 121.375 131.742188 121.585938 132.378906 122.0625 C 132.648438 122.273438 132.902344 122.511719 133.144531 122.78125 C 133.382813 123.042969 133.605469 123.328125 133.816406 123.640625 Z M 136.386719 131.175781 L 136.105469 131.566406 L 132.808594 129.113281 C 132.441406 129.6875 132.285156 130.214844 132.339844 130.691406 C 132.390625 131.179688 132.652344 131.597656 133.121094 131.941406 C 133.390625 132.148438 133.683594 132.304688 133.996094 132.410156 C 134.308594 132.523438 134.644531 132.613281 135.011719 132.675781 L 134.464844 133.410156 C 134.109375 133.335938 133.777344 133.230469 133.464844 133.097656 C 133.152344 132.960938 132.855469 132.789063 132.574219 132.582031 C 131.886719 132.070313 131.503906 131.441406 131.433594 130.691406 C 131.359375 129.941406 131.609375 129.183594 132.183594 128.410156 C 132.765625 127.628906 133.421875 127.152344 134.152344 126.972656 C 134.878906 126.796875 135.566406 126.949219 136.214844 127.425781 C 136.808594 127.863281 137.121094 128.421875 137.152344 129.097656 C 137.183594 129.765625 136.925781 130.457031 136.386719 131.175781 Z M 135.855469 130.410156 C 136.167969 129.964844 136.3125 129.535156 136.292969 129.128906 C 136.28125 128.714844 136.097656 128.375 135.746094 128.113281 C 135.347656 127.8125 134.933594 127.699219 134.496094 127.769531 C 134.066406 127.84375 133.671875 128.089844 133.308594 128.503906 Z M 138.667969 129.398438 L 139.433594 129.929688 L 137.917969 135.039063 L 142.214844 131.882813 L 142.980469 132.414063 L 137.855469 136.179688 L 136.871094 135.492188 Z M 146.214844 138.03125 L 145.933594 138.4375 L 142.558594 136.109375 C 142.214844 136.683594 142.074219 137.210938 142.136719 137.6875 C 142.207031 138.164063 142.484375 138.570313 142.964844 138.90625 C 143.246094 139.101563 143.542969 139.253906 143.855469 139.359375 C 144.167969 139.460938 144.511719 139.53125 144.886719 139.5625 L 144.355469 140.328125 C 144 140.273438 143.660156 140.179688 143.339844 140.046875 C 143.027344 139.921875 142.730469 139.757813 142.449219 139.5625 C 141.730469 139.070313 141.324219 138.453125 141.230469 137.703125 C 141.136719 136.964844 141.363281 136.203125 141.917969 135.421875 C 142.46875 134.609375 143.105469 134.105469 143.824219 133.90625 C 144.542969 133.699219 145.234375 133.828125 145.902344 134.296875 C 146.503906 134.714844 146.832031 135.257813 146.886719 135.921875 C 146.949219 136.589844 146.722656 137.292969 146.214844 138.03125 Z M 145.636719 137.265625 C 145.9375 136.828125 146.074219 136.402344 146.042969 135.984375 C 146.011719 135.570313 145.8125 135.234375 145.449219 134.984375 C 145.042969 134.703125 144.625 134.605469 144.199219 134.6875 C 143.769531 134.773438 143.378906 135.03125 143.027344 135.46875 Z M 151.316406 141.113281 L 149.253906 144.097656 L 148.519531 143.597656 L 150.566406 140.644531 C 150.886719 140.175781 151.042969 139.769531 151.035156 139.425781 C 151.035156 139.074219 150.871094 138.78125 150.550781 138.550781 C 150.152344 138.28125 149.746094 138.207031 149.332031 138.332031 C 148.914063 138.457031 148.539063 138.761719 148.207031 139.238281 L 146.269531 142.035156 L 145.519531 141.503906 L 148.941406 136.566406 L 149.691406 137.097656 L 149.160156 137.863281 C 149.535156 137.675781 149.886719 137.59375 150.222656 137.613281 C 150.554688 137.625 150.882813 137.738281 151.207031 137.957031 C 151.707031 138.3125 151.964844 138.761719 151.988281 139.300781 C 152.019531 139.832031 151.792969 140.4375 151.316406 141.113281 Z M 157.839844 140.144531 L 158.667969 140.675781 L 154.824219 146.660156 L 157.792969 148.566406 L 157.308594 149.332031 L 153.511719 146.894531 Z M 161.84375 148.636719 C 161.238281 148.253906 160.765625 148.066406 160.421875 148.074219 C 160.085938 148.074219 159.804688 148.257813 159.578125 148.621094 C 159.390625 148.914063 159.328125 149.207031 159.390625 149.496094 C 159.453125 149.785156 159.628906 150.027344 159.921875 150.214844 C 160.347656 150.484375 160.789063 150.535156 161.25 150.371094 C 161.71875 150.203125 162.125 149.847656 162.46875 149.308594 L 162.59375 149.121094 Z M 163.5625 149.261719 L 161.703125 152.152344 L 160.953125 151.667969 L 161.4375 150.902344 C 161.0625 151.097656 160.703125 151.1875 160.359375 151.167969 C 160.015625 151.144531 159.660156 151.015625 159.296875 150.777344 C 158.828125 150.484375 158.546875 150.105469 158.453125 149.636719 C 158.359375 149.179688 158.46875 148.707031 158.78125 148.214844 C 159.15625 147.644531 159.601563 147.320313 160.125 147.246094 C 160.65625 147.175781 161.257813 147.355469 161.9375 147.792969 L 163 148.464844 L 163.046875 148.386719 C 163.296875 148.003906 163.375 147.632813 163.28125 147.277344 C 163.1875 146.925781 162.929688 146.613281 162.515625 146.339844 C 162.265625 146.183594 161.988281 146.058594 161.6875 145.964844 C 161.394531 145.871094 161.09375 145.824219 160.78125 145.824219 L 161.265625 145.058594 C 161.628906 145.113281 161.957031 145.195313 162.25 145.308594 C 162.539063 145.414063 162.804688 145.542969 163.046875 145.699219 C 163.710938 146.117188 164.085938 146.621094 164.171875 147.214844 C 164.253906 147.808594 164.050781 148.492188 163.5625 149.261719 Z M 167.6875 146.046875 L 168.453125 146.53125 L 165.8125 150.703125 L 169.453125 149.9375 L 170.421875 150.546875 L 166.484375 151.390625 L 167.296875 155.6875 L 166.3125 155.0625 L 165.546875 151.109375 L 163.984375 153.59375 L 163.21875 153.109375 Z M 173.832031 155.832031 L 173.582031 156.238281 L 170.082031 154.128906 C 169.769531 154.734375 169.664063 155.277344 169.769531 155.753906 C 169.871094 156.222656 170.175781 156.605469 170.675781 156.910156 C 170.964844 157.085938 171.273438 157.214844 171.597656 157.300781 C 171.917969 157.394531 172.261719 157.441406 172.628906 157.441406 L 172.144531 158.238281 C 171.800781 158.214844 171.460938 158.152344 171.128906 158.050781 C 170.804688 157.945313 170.492188 157.804688 170.191406 157.628906 C 169.449219 157.179688 169.007813 156.585938 168.863281 155.847656 C 168.714844 155.109375 168.886719 154.328125 169.378906 153.503906 C 169.886719 152.660156 170.496094 152.113281 171.207031 151.863281 C 171.914063 151.613281 172.617188 151.699219 173.316406 152.113281 C 173.941406 152.488281 174.292969 153.011719 174.378906 153.675781 C 174.472656 154.34375 174.289063 155.0625 173.832031 155.832031 Z M 173.222656 155.113281 C 173.503906 154.644531 173.613281 154.207031 173.550781 153.800781 C 173.488281 153.394531 173.269531 153.078125 172.894531 152.847656 C 172.457031 152.589844 172.027344 152.515625 171.613281 152.628906 C 171.207031 152.734375 170.835938 153.015625 170.503906 153.472656 Z M 179.386719 156.140625 L 178.917969 156.953125 C 178.769531 156.695313 178.597656 156.464844 178.402344 156.265625 C 178.203125 156.070313 177.980469 155.898438 177.730469 155.75 C 177.34375 155.523438 177.019531 155.414063 176.761719 155.421875 C 176.5 155.433594 176.292969 155.5625 176.136719 155.8125 C 176.019531 156.011719 175.996094 156.210938 176.058594 156.40625 C 176.128906 156.605469 176.339844 156.875 176.683594 157.21875 L 176.886719 157.4375 C 177.363281 157.898438 177.644531 158.3125 177.730469 158.6875 C 177.8125 159.0625 177.730469 159.457031 177.480469 159.875 C 177.1875 160.351563 176.785156 160.628906 176.277344 160.703125 C 175.777344 160.785156 175.230469 160.644531 174.636719 160.28125 C 174.386719 160.132813 174.140625 159.953125 173.902344 159.734375 C 173.660156 159.515625 173.421875 159.257813 173.183594 158.96875 L 173.714844 158.09375 C 173.902344 158.4375 174.105469 158.730469 174.324219 158.96875 C 174.550781 159.207031 174.800781 159.410156 175.074219 159.578125 C 175.425781 159.785156 175.746094 159.878906 176.027344 159.859375 C 176.308594 159.847656 176.519531 159.71875 176.667969 159.46875 C 176.800781 159.238281 176.832031 159.019531 176.761719 158.8125 C 176.699219 158.605469 176.464844 158.304688 176.058594 157.90625 L 175.839844 157.671875 C 175.433594 157.277344 175.191406 156.90625 175.121094 156.5625 C 175.046875 156.210938 175.136719 155.828125 175.386719 155.421875 C 175.667969 154.945313 176.042969 154.667969 176.511719 154.59375 C 176.980469 154.511719 177.5 154.636719 178.074219 154.96875 C 178.34375 155.136719 178.589844 155.320313 178.808594 155.515625 C 179.035156 155.714844 179.230469 155.921875 179.386719 156.140625 Z M 185.03125 157.992188 L 181.921875 163.398438 L 182.9375 163.992188 C 183.8125 164.480469 184.570313 164.621094 185.21875 164.414063 C 185.875 164.214844 186.472656 163.648438 187.015625 162.710938 C 187.546875 161.785156 187.734375 160.988281 187.578125 160.320313 C 187.429688 159.65625 186.921875 159.078125 186.046875 158.585938 Z M 184.640625 156.726563 L 186.375 157.726563 C 187.59375 158.425781 188.320313 159.21875 188.5625 160.101563 C 188.800781 160.988281 188.578125 162.023438 187.890625 163.210938 C 187.203125 164.40625 186.410156 165.121094 185.515625 165.351563 C 184.628906 165.589844 183.582031 165.367188 182.375 164.679688 L 180.640625 163.679688 Z M 192.503906 164.523438 C 192.441406 164.410156 192.363281 164.3125 192.269531 164.226563 C 192.183594 164.144531 192.085938 164.070313 191.972656 164.007813 C 191.523438 163.757813 191.089844 163.734375 190.675781 163.929688 C 190.269531 164.128906 189.902344 164.523438 189.582031 165.117188 L 188.066406 167.898438 L 187.269531 167.460938 L 190.144531 162.179688 L 190.941406 162.617188 L 190.488281 163.445313 C 190.832031 163.21875 191.175781 163.097656 191.519531 163.085938 C 191.863281 163.066406 192.222656 163.15625 192.597656 163.351563 C 192.648438 163.382813 192.707031 163.421875 192.769531 163.460938 C 192.839844 163.503906 192.910156 163.554688 192.972656 163.617188 Z M 193.761719 164.15625 L 194.542969 164.578125 L 191.667969 169.859375 L 190.886719 169.4375 Z M 194.886719 162.09375 L 195.667969 162.515625 L 195.074219 163.609375 L 194.292969 163.1875 Z M 195.613281 165.15625 L 196.425781 165.609375 L 195.503906 170.84375 L 199.410156 167.234375 L 200.238281 167.671875 L 195.566406 171.984375 L 194.519531 171.40625 Z M 204.117188 172.835938 L 203.898438 173.257813 L 200.257813 171.351563 C 199.984375 171.976563 199.914063 172.523438 200.039063 172.992188 C 200.171875 173.460938 200.496094 173.828125 201.007813 174.101563 C 201.320313 174.257813 201.636719 174.367188 201.960938 174.429688 C 202.292969 174.492188 202.640625 174.523438 203.007813 174.523438 L 202.570313 175.335938 C 202.214844 175.324219 201.871094 175.277344 201.539063 175.195313 C 201.203125 175.109375 200.886719 174.984375 200.585938 174.820313 C 199.8125 174.421875 199.335938 173.859375 199.148438 173.132813 C 198.960938 172.40625 199.085938 171.613281 199.523438 170.757813 C 199.980469 169.894531 200.554688 169.320313 201.242188 169.039063 C 201.9375 168.75 202.648438 168.789063 203.367188 169.164063 C 204.011719 169.5 204.402344 169.992188 204.539063 170.648438 C 204.671875 171.304688 204.53125 172.035156 204.117188 172.835938 Z M 203.460938 172.148438 C 203.699219 171.671875 203.777344 171.226563 203.695313 170.820313 C 203.621094 170.414063 203.390625 170.109375 203.007813 169.898438 C 202.558594 169.671875 202.125 169.625 201.710938 169.757813 C 201.304688 169.894531 200.949219 170.203125 200.648438 170.679688 Z M 203.460938 172.148438 "/>
<path style=" stroke:none;fill-rule:evenodd;fill:rgb(20%,20%,20%);fill-opacity:1;" d="M 133.816406 123.640625 L 133.191406 124.484375 C 133.023438 124.121094 132.832031 123.796875 132.613281 123.515625 C 132.394531 123.234375 132.164063 123.007813 131.925781 122.828125 C 131.496094 122.515625 131.101563 122.371094 130.738281 122.390625 C 130.371094 122.402344 130.066406 122.574219 129.816406 122.90625 C 129.605469 123.1875 129.523438 123.460938 129.566406 123.71875 C 129.605469 123.96875 129.808594 124.304688 130.175781 124.71875 L 130.566406 125.15625 C 131.066406 125.71875 131.335938 126.261719 131.378906 126.78125 C 131.417969 127.300781 131.246094 127.820313 130.863281 128.34375 C 130.394531 128.96875 129.851563 129.300781 129.238281 129.34375 C 128.621094 129.382813 127.949219 129.132813 127.222656 128.59375 C 126.949219 128.394531 126.683594 128.144531 126.425781 127.84375 C 126.175781 127.539063 125.933594 127.203125 125.707031 126.828125 L 126.363281 125.9375 C 126.539063 126.375 126.738281 126.753906 126.957031 127.078125 C 127.183594 127.410156 127.445313 127.679688 127.738281 127.890625 C 128.183594 128.222656 128.605469 128.378906 129.003906 128.359375 C 129.398438 128.347656 129.726563 128.164063 129.988281 127.8125 C 130.226563 127.488281 130.324219 127.171875 130.285156 126.859375 C 130.253906 126.558594 130.066406 126.214844 129.722656 125.828125 L 129.332031 125.375 C 128.832031 124.8125 128.554688 124.296875 128.503906 123.828125 C 128.449219 123.359375 128.613281 122.875 128.988281 122.375 C 129.402344 121.8125 129.914063 121.5 130.519531 121.4375 C 131.121094 121.375 131.742188 121.585938 132.378906 122.0625 C 132.648438 122.273438 132.902344 122.511719 133.144531 122.78125 C 133.382813 123.042969 133.605469 123.328125 133.816406 123.640625 Z M 136.386719 131.175781 L 136.105469 131.566406 L 132.808594 129.113281 C 132.441406 129.6875 132.285156 130.214844 132.339844 130.691406 C 132.390625 131.179688 132.652344 131.597656 133.121094 131.941406 C 133.390625 132.148438 133.683594 132.304688 133.996094 132.410156 C 134.308594 132.523438 134.644531 132.613281 135.011719 132.675781 L 134.464844 133.410156 C 134.109375 133.335938 133.777344 133.230469 133.464844 133.097656 C 133.152344 132.960938 132.855469 132.789063 132.574219 132.582031 C 131.886719 132.070313 131.503906 131.441406 131.433594 130.691406 C 131.359375 129.941406 131.609375 129.183594 132.183594 128.410156 C 132.765625 127.628906 133.421875 127.152344 134.152344 126.972656 C 134.878906 126.796875 135.566406 126.949219 136.214844 127.425781 C 136.808594 127.863281 137.121094 128.421875 137.152344 129.097656 C 137.183594 129.765625 136.925781 130.457031 136.386719 131.175781 Z M 135.855469 130.410156 C 136.167969 129.964844 136.3125 129.535156 136.292969 129.128906 C 136.28125 128.714844 136.097656 128.375 135.746094 128.113281 C 135.347656 127.8125 134.933594 127.699219 134.496094 127.769531 C 134.066406 127.84375 133.671875 128.089844 133.308594 128.503906 Z M 138.667969 129.398438 L 139.433594 129.929688 L 137.917969 135.039063 L 142.214844 131.882813 L 142.980469 132.414063 L 137.855469 136.179688 L 136.871094 135.492188 Z M 146.214844 138.03125 L 145.933594 138.4375 L 142.558594 136.109375 C 142.214844 136.683594 142.074219 137.210938 142.136719 137.6875 C 142.207031 138.164063 142.484375 138.570313 142.964844 138.90625 C 143.246094 139.101563 143.542969 139.253906 143.855469 139.359375 C 144.167969 139.460938 144.511719 139.53125 144.886719 139.5625 L 144.355469 140.328125 C 144 140.273438 143.660156 140.179688 143.339844 140.046875 C 143.027344 139.921875 142.730469 139.757813 142.449219 139.5625 C 141.730469 139.070313 141.324219 138.453125 141.230469 137.703125 C 141.136719 136.964844 141.363281 136.203125 141.917969 135.421875 C 142.46875 134.609375 143.105469 134.105469 143.824219 133.90625 C 144.542969 133.699219 145.234375 133.828125 145.902344 134.296875 C 146.503906 134.714844 146.832031 135.257813 146.886719 135.921875 C 146.949219 136.589844 146.722656 137.292969 146.214844 138.03125 Z M 145.636719 137.265625 C 145.9375 136.828125 146.074219 136.402344 146.042969 135.984375 C 146.011719 135.570313 145.8125 135.234375 145.449219 134.984375 C 145.042969 134.703125 144.625 134.605469 144.199219 134.6875 C 143.769531 134.773438 143.378906 135.03125 143.027344 135.46875 Z M 151.316406 141.113281 L 149.253906 144.097656 L 148.519531 143.597656 L 150.566406 140.644531 C 150.886719 140.175781 151.042969 139.769531 151.035156 139.425781 C 151.035156 139.074219 150.871094 138.78125 150.550781 138.550781 C 150.152344 138.28125 149.746094 138.207031 149.332031 138.332031 C 148.914063 138.457031 148.539063 138.761719 148.207031 139.238281 L 146.269531 142.035156 L 145.519531 141.503906 L 148.941406 136.566406 L 149.691406 137.097656 L 149.160156 137.863281 C 149.535156 137.675781 149.886719 137.59375 150.222656 137.613281 C 150.554688 137.625 150.882813 137.738281 151.207031 137.957031 C 151.707031 138.3125 151.964844 138.761719 151.988281 139.300781 C 152.019531 139.832031 151.792969 140.4375 151.316406 141.113281 Z M 157.839844 140.144531 L 158.667969 140.675781 L 154.824219 146.660156 L 157.792969 148.566406 L 157.308594 149.332031 L 153.511719 146.894531 Z M 161.84375 148.636719 C 161.238281 148.253906 160.765625 148.066406 160.421875 148.074219 C 160.085938 148.074219 159.804688 148.257813 159.578125 148.621094 C 159.390625 148.914063 159.328125 149.207031 159.390625 149.496094 C 159.453125 149.785156 159.628906 150.027344 159.921875 150.214844 C 160.347656 150.484375 160.789063 150.535156 161.25 150.371094 C 161.71875 150.203125 162.125 149.847656 162.46875 149.308594 L 162.59375 149.121094 Z M 163.5625 149.261719 L 161.703125 152.152344 L 160.953125 151.667969 L 161.4375 150.902344 C 161.0625 151.097656 160.703125 151.1875 160.359375 151.167969 C 160.015625 151.144531 159.660156 151.015625 159.296875 150.777344 C 158.828125 150.484375 158.546875 150.105469 158.453125 149.636719 C 158.359375 149.179688 158.46875 148.707031 158.78125 148.214844 C 159.15625 147.644531 159.601563 147.320313 160.125 147.246094 C 160.65625 147.175781 161.257813 147.355469 161.9375 147.792969 L 163 148.464844 L 163.046875 148.386719 C 163.296875 148.003906 163.375 147.632813 163.28125 147.277344 C 163.1875 146.925781 162.929688 146.613281 162.515625 146.339844 C 162.265625 146.183594 161.988281 146.058594 161.6875 145.964844 C 161.394531 145.871094 161.09375 145.824219 160.78125 145.824219 L 161.265625 145.058594 C 161.628906 145.113281 161.957031 145.195313 162.25 145.308594 C 162.539063 145.414063 162.804688 145.542969 163.046875 145.699219 C 163.710938 146.117188 164.085938 146.621094 164.171875 147.214844 C 164.253906 147.808594 164.050781 148.492188 163.5625 149.261719 Z M 167.6875 146.046875 L 168.453125 146.53125 L 165.8125 150.703125 L 169.453125 149.9375 L 170.421875 150.546875 L 166.484375 151.390625 L 167.296875 155.6875 L 166.3125 155.0625 L 165.546875 151.109375 L 163.984375 153.59375 L 163.21875 153.109375 Z M 173.832031 155.832031 L 173.582031 156.238281 L 170.082031 154.128906 C 169.769531 154.734375 169.664063 155.277344 169.769531 155.753906 C 169.871094 156.222656 170.175781 156.605469 170.675781 156.910156 C 170.964844 157.085938 171.273438 157.214844 171.597656 157.300781 C 171.917969 157.394531 172.261719 157.441406 172.628906 157.441406 L 172.144531 158.238281 C 171.800781 158.214844 171.460938 158.152344 171.128906 158.050781 C 170.804688 157.945313 170.492188 157.804688 170.191406 157.628906 C 169.449219 157.179688 169.007813 156.585938 168.863281 155.847656 C 168.714844 155.109375 168.886719 154.328125 169.378906 153.503906 C 169.886719 152.660156 170.496094 152.113281 171.207031 151.863281 C 171.914063 151.613281 172.617188 151.699219 173.316406 152.113281 C 173.941406 152.488281 174.292969 153.011719 174.378906 153.675781 C 174.472656 154.34375 174.289063 155.0625 173.832031 155.832031 Z M 173.222656 155.113281 C 173.503906 154.644531 173.613281 154.207031 173.550781 153.800781 C 173.488281 153.394531 173.269531 153.078125 172.894531 152.847656 C 172.457031 152.589844 172.027344 152.515625 171.613281 152.628906 C 171.207031 152.734375 170.835938 153.015625 170.503906 153.472656 Z M 179.386719 156.140625 L 178.917969 156.953125 C 178.769531 156.695313 178.597656 156.464844 178.402344 156.265625 C 178.203125 156.070313 177.980469 155.898438 177.730469 155.75 C 177.34375 155.523438 177.019531 155.414063 176.761719 155.421875 C 176.5 155.433594 176.292969 155.5625 176.136719 155.8125 C 176.019531 156.011719 175.996094 156.210938 176.058594 156.40625 C 176.128906 156.605469 176.339844 156.875 176.683594 157.21875 L 176.886719 157.4375 C 177.363281 157.898438 177.644531 158.3125 177.730469 158.6875 C 177.8125 159.0625 177.730469 159.457031 177.480469 159.875 C 177.1875 160.351563 176.785156 160.628906 176.277344 160.703125 C 175.777344 160.785156 175.230469 160.644531 174.636719 160.28125 C 174.386719 160.132813 174.140625 159.953125 173.902344 159.734375 C 173.660156 159.515625 173.421875 159.257813 173.183594 158.96875 L 173.714844 158.09375 C 173.902344 158.4375 174.105469 158.730469 174.324219 158.96875 C 174.550781 159.207031 174.800781 159.410156 175.074219 159.578125 C 175.425781 159.785156 175.746094 159.878906 176.027344 159.859375 C 176.308594 159.847656 176.519531 159.71875 176.667969 159.46875 C 176.800781 159.238281 176.832031 159.019531 176.761719 158.8125 C 176.699219 158.605469 176.464844 158.304688 176.058594 157.90625 L 175.839844 157.671875 C 175.433594 157.277344 175.191406 156.90625 175.121094 156.5625 C 175.046875 156.210938 175.136719 155.828125 175.386719 155.421875 C 175.667969 154.945313 176.042969 154.667969 176.511719 154.59375 C 176.980469 154.511719 177.5 154.636719 178.074219 154.96875 C 178.34375 155.136719 178.589844 155.320313 178.808594 155.515625 C 179.035156 155.714844 179.230469 155.921875 179.386719 156.140625 Z M 185.03125 157.992188 L 181.921875 163.398438 L 182.9375 163.992188 C 183.8125 164.480469 184.570313 164.621094 185.21875 164.414063 C 185.875 164.214844 186.472656 163.648438 187.015625 162.710938 C 187.546875 161.785156 187.734375 160.988281 187.578125 160.320313 C 187.429688 159.65625 186.921875 159.078125 186.046875 158.585938 Z M 184.640625 156.726563 L 186.375 157.726563 C 187.59375 158.425781 188.320313 159.21875 188.5625 160.101563 C 188.800781 160.988281 188.578125 162.023438 187.890625 163.210938 C 187.203125 164.40625 186.410156 165.121094 185.515625 165.351563 C 184.628906 165.589844 183.582031 165.367188 182.375 164.679688 L 180.640625 163.679688 Z M 192.503906 164.523438 C 192.441406 164.410156 192.363281 164.3125 192.269531 164.226563 C 192.183594 164.144531 192.085938 164.070313 191.972656 164.007813 C 191.523438 163.757813 191.089844 163.734375 190.675781 163.929688 C 190.269531 164.128906 189.902344 164.523438 189.582031 165.117188 L 188.066406 167.898438 L 187.269531 167.460938 L 190.144531 162.179688 L 190.941406 162.617188 L 190.488281 163.445313 C 190.832031 163.21875 191.175781 163.097656 191.519531 163.085938 C 191.863281 163.066406 192.222656 163.15625 192.597656 163.351563 C 192.648438 163.382813 192.707031 163.421875 192.769531 163.460938 C 192.839844 163.503906 192.910156 163.554688 192.972656 163.617188 Z M 193.761719 164.15625 L 194.542969 164.578125 L 191.667969 169.859375 L 190.886719 169.4375 Z M 194.886719 162.09375 L 195.667969 162.515625 L 195.074219 163.609375 L 194.292969 163.1875 Z M 195.613281 165.15625 L 196.425781 165.609375 L 195.503906 170.84375 L 199.410156 167.234375 L 200.238281 167.671875 L 195.566406 171.984375 L 194.519531 171.40625 Z M 204.117188 172.835938 L 203.898438 173.257813 L 200.257813 171.351563 C 199.984375 171.976563 199.914063 172.523438 200.039063 172.992188 C 200.171875 173.460938 200.496094 173.828125 201.007813 174.101563 C 201.320313 174.257813 201.636719 174.367188 201.960938 174.429688 C 202.292969 174.492188 202.640625 174.523438 203.007813 174.523438 L 202.570313 175.335938 C 202.214844 175.324219 201.871094 175.277344 201.539063 175.195313 C 201.203125 175.109375 200.886719 174.984375 200.585938 174.820313 C 199.8125 174.421875 199.335938 173.859375 199.148438 173.132813 C 198.960938 172.40625 199.085938 171.613281 199.523438 170.757813 C 199.980469 169.894531 200.554688 169.320313 201.242188 169.039063 C 201.9375 168.75 202.648438 168.789063 203.367188 169.164063 C 204.011719 169.5 204.402344 169.992188 204.539063 170.648438 C 204.671875 171.304688 204.53125 172.035156 204.117188 172.835938 Z M 203.460938 172.148438 C 203.699219 171.671875 203.777344 171.226563 203.695313 170.820313 C 203.621094 170.414063 203.390625 170.109375 203.007813 169.898438 C 202.558594 169.671875 202.125 169.625 201.710938 169.757813 C 201.304688 169.894531 200.949219 170.203125 200.648438 170.679688 Z M 203.460938 172.148438 "/>
</g>
</svg>

