<?xml version="1.0" encoding="UTF-8"?>
<svg xmlns="http://www.w3.org/2000/svg" xmlns:xlink="http://www.w3.org/1999/xlink" width="256pt" height="256pt" viewBox="0 0 256 256" version="1.1">
<g id="surface2">
<rect x="0" y="0" width="256" height="256" style="fill:rgb(94.901961%,93.72549%,91.372549%);fill-opacity:1;stroke:none;"/>
<path style=" stroke:none;fill-rule:evenodd;fill:rgb(60%,70.196078%,80%);fill-opacity:1;" d="M -4 -4 L -4 259 L 259 259 L -4 259 Z M -4 -4 "/>
<path style="fill:none;stroke-width:1;stroke-linecap:round;stroke-linejoin:round;stroke:rgb(70.196078%,77.647059%,83.137255%);stroke-opacity:1;stroke-miterlimit:10;" d="M -4 -4 L -4 259 L 259 259 L -4 259 L -4 -4 "/>
<path style="fill:none;stroke-width:1;stroke-linecap:round;stroke-linejoin:round;stroke:rgb(100%,100%,100%);stroke-opacity:1;stroke-dasharray:2,3;stroke-miterlimit:10;" d="M -2 51.277344 L 8.289063 52.167969 L 28.796875 51.289063 L 33.441406 46.578125 L 34.738281 43.421875 L 38.886719 41.96875 L 53.011719 45.496094 L 66.347656 45.105469 L 98.910156 40.792969 L 110.304688 41.105469 L 114.140625 41.371094 L 116.535156 43.8125 L 119.464844 45.128906 L 128.414063 47.683594 L 137.398438 51.738281 L 152.652344 60.796875 L 159.324219 63.542969 L 165.140625 70.1875 L 171.882813 71.585938 L 177.132813 74.574219 L 186 83.15625 L 189.792969 87.640625 L 191.882813 92.964844 L 193.363281 95.804688 L 199.496094 99.011719 L 202.867188 103.164063 L 203.972656 111.148438 L 206.179688 114.515625 "/>
</g>
</svg>

