<?xml version="1.0" encoding="UTF-8"?>
<svg xmlns="http://www.w3.org/2000/svg" xmlns:xlink="http://www.w3.org/1999/xlink" width="256pt" height="256pt" viewBox="0 0 256 256" version="1.1">
<g id="surface2">
<rect x="0" y="0" width="256" height="256" style="fill:rgb(94.901961%,93.72549%,91.372549%);fill-opacity:1;stroke:none;"/>
<path style="fill:none;stroke-width:2;stroke-linecap:round;stroke-linejoin:round;stroke:rgb(60%,70.196078%,80%);stroke-opacity:1;stroke-miterlimit:10;" d="M 19.25 -3 L 13.042969 8.863281 L 9.476563 19.667969 L 8.472656 28.46875 L 3.125 33.820313 L -3 38.1875 "/>
<path style="fill:none;stroke-width:2;stroke-linecap:round;stroke-linejoin:round;stroke:rgb(60%,70.196078%,80%);stroke-opacity:1;stroke-miterlimit:10;" d="M 127.402344 258 L 117.414063 253.238281 L 101.328125 230.714844 L 77.355469 202.402344 L 58.855469 180.039063 L 38.746094 160.25 L 36.171875 148.183594 L 16.546875 133.0625 L -0.0234375 118.585938 L -3 117.367188 "/>
<path style="fill:none;stroke-width:1;stroke-linecap:round;stroke-linejoin:round;stroke:rgb(100%,100%,100%);stroke-opacity:1;stroke-dasharray:2,3;stroke-miterlimit:10;" d="M -2 125.117188 L -0.183594 126.105469 L 6.976563 133.117188 L 16.867188 140.425781 L 26.648438 148.726563 L 26.316406 158.472656 L 33.179688 168.582031 L 36.933594 174.632813 L 43.886719 179.296875 L 49.226563 189.726563 L 51.769531 198.96875 L 55.753906 203.632813 L 59.65625 208.378906 L 72.375 210.414063 L 80.007813 212.789063 L 83.753906 220.726563 L 88.378906 227.097656 L 91.941406 230.164063 L 96.628906 237.222656 L 101.066406 241.101563 L 109.003906 248.601563 L 115.753906 253.601563 L 119.332031 257 "/>
<path style="fill:none;stroke-width:1;stroke-linecap:round;stroke-linejoin:round;stroke:rgb(100%,100%,100%);stroke-opacity:1;stroke-dasharray:2,3;stroke-miterlimit:10;" d="M -2 40.414063 L 3.136719 37.675781 L 16.089844 15.917969 L 21.671875 -2 M 228.539063 -2 L 231.53125 3.3125 L 247.542969 7.816406 L 257 11.726563 "/>
</g>
</svg>

