<?xml version="1.0" encoding="UTF-8"?>
<svg xmlns="http://www.w3.org/2000/svg" xmlns:xlink="http://www.w3.org/1999/xlink" width="256pt" height="256pt" viewBox="0 0 256 256" version="1.1">
<g id="surface2">
<rect x="0" y="0" width="256" height="256" style="fill:rgb(94.901961%,93.72549%,91.372549%);fill-opacity:1;stroke:none;"/>
<path style=" stroke:none;fill-rule:evenodd;fill:rgb(70.980392%,82.352941%,61.176471%);fill-opacity:1;" d="M -4 255.132813 L -0.988281 260 L 260 260 L 260 -4 L 194.886719 -4 L 177.75 25.507813 L 164 46.507813 L 140.75 66.253906 L 95.25 99.253906 L 4.75 164.503906 L 17.460938 183.15625 L 5.960938 190.40625 L -3.695313 195.90625 L -4 196.125 Z M -4 255.132813 "/>
<path style=" stroke:none;fill-rule:evenodd;fill:rgb(79.607843%,84.705882%,76.470588%);fill-opacity:1;" d="M 251.785156 260 L 251.898438 258.53125 L 252.242188 251.53125 L 252.617188 244.65625 L 252.585938 237.625 L 252.429688 230.9375 L 251.710938 224.71875 L 250.269531 218.71875 L 248.742188 214.40625 L 247.210938 210.308594 L 239.242188 194.246094 L 234.648438 186.40625 L 229.835938 178.75 L 226.492188 174.34375 L 222.742188 170.496094 L 217.835938 167.621094 L 212.488281 165.464844 L 197.050781 160.152344 L 189.617188 157.21875 L 183.023438 150.125 L 180.304688 146.15625 L 177.929688 142.28125 L 172.867188 130.183594 L 171.304688 126.625 L 170.617188 125.4375 L 169.898438 124.5 L 167.773438 122.214844 L 165.710938 120.4375 L 163.832031 118.65625 L 160.429688 114.90625 L 158.738281 112.4375 L 157.429688 109.8125 L 156.429688 107.027344 L 155.335938 104.4375 L 153.898438 102.183594 L 151.929688 99.964844 L 149.929688 98.433594 L 147.304688 96.8125 L 144.304688 95.46875 L 141.460938 94.375 L 138.554688 93.339844 L 135.585938 92.59375 L 133.367188 92.40625 L 131.304688 92.40625 L 127.242188 92.683594 L 125.273438 93.089844 L 123.457031 93.558594 L 121.679688 94.1875 L 119.894531 94.9375 L 117.210938 96.46875 L 114.710938 98.183594 L 109.960938 101.78125 L 107.398438 104.371094 L 105.085938 107.027344 L 102.679688 110.527344 L 100.460938 114 L 102.242188 121.003906 L 107.242188 124.003906 L 111.988281 124.800781 L 116.261719 122.28125 L 116.792969 123.191406 L 117.84375 122.566406 L 119.957031 126.171875 L 118.90625 126.796875 L 127.097656 140.792969 L 127.570313 147.96875 L 120.746094 148.003906 L 117.992188 152.003906 L 126.316406 156.96875 L 131.070313 154.214844 L 133.492188 154.253906 L 139.992188 149.253906 L 138.816406 144.46875 L 136.714844 137.648438 L 132.328125 128.011719 L 128.753906 121.757813 L 129.050781 115.503906 L 129.347656 108.652344 L 126.371094 100.015625 L 129.066406 97.382813 L 132.492188 97.234375 L 136.066406 100.0625 L 142.734375 103.835938 L 145.722656 106.304688 L 147.503906 109.742188 L 151.976563 119.667969 L 153.292969 127.335938 L 156.71875 130.984375 L 161.484375 133.777344 L 162.972656 137.910156 L 162.578125 140.269531 L 162.078125 145.355469 L 163.371094 148.960938 L 165.792969 152.050781 L 171.65625 154.679688 L 172.878906 155.84375 L 172.9375 157.667969 L 171.351563 159.085938 L 169.214844 158.695313 L 168.992188 165.253906 L 172.589844 170.933594 L 153.808594 157.886719 L 142.242188 156.253906 L 139.046875 159.628906 L 129.816406 172.464844 L 119.992188 175.503906 L 115.570313 177.71875 L 110.570313 185.464844 L 107.070313 190.21875 L 101.066406 187.464844 L 93.316406 189.96875 L 84.816406 193.71875 L 83.066406 195.96875 L 86.070313 201.71875 L 88.066406 205.714844 L 93.492188 205.492188 L 96.316406 210.71875 L 92.816406 214.46875 L 94.746094 219.492188 L 95.992188 225.242188 L 101.570313 229.714844 L 103.570313 236.464844 L 100.070313 238.964844 L 100.070313 242.214844 L 103.492188 246.492188 L 108.992188 249.242188 L 114.242188 251.992188 L 119.070313 257.46875 L 118.605469 260 Z M 251.785156 260 "/>
<path style=" stroke:none;fill-rule:evenodd;fill:rgb(70.980392%,82.352941%,61.176471%);fill-opacity:1;" d="M -4 -4 L 13.34375 -4 L 18.996094 22.941406 L 24.367188 48.144531 L 30.132813 74.558594 L 36.496094 104.722656 L 31.554688 112.199219 L 40.625 131 L 69.75 111.375 L 58.304688 85.074219 L 76.375 70.933594 L 70.5625 46.269531 L 65.308594 21.195313 L 59.871094 -4 Z M -4 -4 "/>
<path style=" stroke:none;fill-rule:evenodd;fill:rgb(79.607843%,84.705882%,76.470588%);fill-opacity:1;" d="M 168.007813 49.675781 L 178.753906 45.738281 L 186.253906 47.238281 L 191.167969 50.828125 L 188.917969 53.578125 L 184.753906 56.988281 L 182.753906 59.238281 L 184.753906 63.492188 L 189.253906 65.492188 L 194.003906 65.742188 L 200.003906 66.488281 L 205.753906 69.242188 L 211.753906 73.988281 L 216.417969 79.328125 L 216.003906 84.492188 L 207.914063 91.578125 L 201.917969 97.328125 L 195.253906 100.242188 L 190.167969 106.578125 L 183.417969 115.328125 L 182.503906 129.492188 L 184.253906 138.488281 L 191.003906 147.488281 L 207.316406 157.613281 L 217.265625 160.757813 L 238.253906 166.992188 L 251.003906 173.742188 L 248.503906 149.742188 L 244.503906 130.988281 L 245.003906 115.488281 L 246.003906 87.738281 L 247.253906 57.238281 L 251.167969 26.578125 L 255.199219 -4 L 260 -4 L 194.886719 -4 L 177.75 25.507813 L 163.855469 47.898438 Z M 168.007813 49.675781 "/>
<path style=" stroke:none;fill-rule:evenodd;fill:rgb(79.607843%,84.705882%,76.470588%);fill-opacity:1;" d="M 257.167969 136.328125 L 260 142.324219 L 260 -4 L 260 14.066406 L 258.75 23.875 L 256.121094 48.746094 L 254.746094 81.871094 L 254.25 114.121094 L 254.042969 122.453125 Z M 257.167969 136.328125 "/>
<path style=" stroke:none;fill-rule:evenodd;fill:rgb(87.058824%,81.960784%,67.058824%);fill-opacity:1;" d="M 148.886719 88.261719 L 168.21875 108.628906 L 173.566406 111.773438 L 174.914063 110.042969 L 183.164063 113.953125 L 184.828125 113.460938 L 191.523438 102.515625 L 194.222656 97.839844 L 195.433594 94.019531 L 196.019531 89.164063 L 195.117188 83.226563 L 193.59375 78.777344 L 186.667969 67.855469 L 181.726563 60.820313 L 180.195313 60.460938 L 176.378906 62.980469 L 160.617188 73.363281 L 154.421875 80.273438 L 148.933594 86.398438 Z M 148.886719 88.261719 "/>
<path style=" stroke:none;fill-rule:evenodd;fill:rgb(87.058824%,81.960784%,67.058824%);fill-opacity:1;" d="M 34.992188 110.921875 L 42.871094 127.671875 L 64.871094 112.292969 L 57.246094 93.296875 Z M 34.992188 110.921875 "/>
<path style=" stroke:none;fill-rule:evenodd;fill:rgb(81.960784%,81.568627%,80.392157%);fill-opacity:1;" d="M 140.710938 144.183594 L 145.945313 147.75 L 159.984375 127.109375 L 154.066406 123.390625 Z M 140.710938 144.183594 "/>
<path style="fill:none;stroke-width:1;stroke-linecap:round;stroke-linejoin:round;stroke:rgb(81.960784%,81.960784%,81.960784%);stroke-opacity:1;stroke-miterlimit:10;" d="M 140.710938 144.183594 L 145.945313 147.75 L 159.984375 127.109375 L 154.066406 123.390625 L 140.710938 144.183594 "/>
<path style=" stroke:none;fill-rule:evenodd;fill:rgb(87.058824%,81.960784%,67.058824%);fill-opacity:1;" d="M 199.152344 85.347656 L 199.253906 86.070313 L 200.75 86.507813 L 204.96875 86.09375 L 205.972656 85.460938 L 206.71875 83.828125 L 206.953125 82.257813 L 206.769531 80.765625 L 206.359375 79.554688 L 204.6875 78.601563 L 202.832031 78.628906 L 201.132813 78.992188 L 200.128906 79.839844 L 199.433594 81.023438 Z M 199.152344 85.347656 "/>
<path style=" stroke:none;fill-rule:evenodd;fill:rgb(98.039216%,98.039216%,96.078431%);fill-opacity:1;" d="M 163.175781 52.589844 L 163.414063 53.265625 L 164.484375 54.183594 L 165.898438 54.199219 L 166.988281 53.300781 L 167.265625 52.054688 L 166.757813 50.886719 L 165.660156 50.234375 L 164.390625 50.359375 L 163.433594 51.203125 L 163.179688 51.871094 Z M 164.601563 52.1875 L 164.648438 52.011719 L 165.679688 51.898438 L 165.320313 52.839844 L 164.609375 52.378906 Z M 164.601563 52.1875 "/>
<path style=" stroke:none;fill-rule:evenodd;fill:rgb(98.039216%,98.039216%,96.078431%);fill-opacity:1;" d="M 146.980469 75.457031 L 149.304688 78.261719 L 150.914063 76.832031 L 152.910156 74.894531 L 150.636719 72.457031 Z M 147.882813 75.574219 L 150.261719 73.617188 L 151.550781 75.199219 L 149.171875 77.152344 Z M 147.882813 75.574219 "/>
<path style=" stroke:none;fill-rule:evenodd;fill:rgb(78.431373%,78.431373%,78.431373%);fill-opacity:1;" d="M 22.917969 150.917969 L 23.742188 152.046875 L 37.054688 142.484375 L 36.183594 141.359375 Z M 22.917969 150.917969 "/>
<path style=" stroke:none;fill-rule:evenodd;fill:rgb(60%,70.196078%,80%);fill-opacity:1;" d="M 126.371094 100.015625 L 129.347656 108.652344 L 129.050781 115.503906 L 128.753906 121.757813 L 132.328125 128.011719 L 136.714844 137.648438 L 139.269531 139.105469 L 142.09375 137.597656 L 144.835938 133.074219 L 148.113281 128.609375 L 151.6875 128.011719 L 155.648438 132.859375 L 154.480469 137.542969 L 154.066406 142.90625 L 155.96875 147.738281 L 167.160156 157.4375 L 169.214844 158.695313 L 171.351563 159.085938 L 172.9375 157.667969 L 172.878906 155.84375 L 171.65625 154.679688 L 165.792969 152.050781 L 163.371094 148.960938 L 162.078125 145.355469 L 162.578125 140.269531 L 162.972656 137.910156 L 161.484375 133.777344 L 156.71875 130.984375 L 153.292969 127.335938 L 151.976563 119.667969 L 147.503906 109.742188 L 145.722656 106.304688 L 142.734375 103.835938 L 136.066406 100.0625 L 132.492188 97.234375 L 129.066406 97.382813 Z M 126.371094 100.015625 "/>
<path style="fill:none;stroke-width:1;stroke-linecap:round;stroke-linejoin:round;stroke:rgb(70.196078%,77.647059%,83.137255%);stroke-opacity:1;stroke-miterlimit:10;" d="M 126.371094 100.015625 L 129.347656 108.652344 L 129.050781 115.503906 L 128.753906 121.757813 L 132.328125 128.011719 L 136.714844 137.648438 L 139.269531 139.105469 L 142.09375 137.597656 L 144.835938 133.074219 L 148.113281 128.609375 L 151.6875 128.011719 L 155.648438 132.859375 L 154.480469 137.542969 L 154.066406 142.90625 L 155.96875 147.738281 L 167.160156 157.4375 L 169.214844 158.695313 L 171.351563 159.085938 L 172.9375 157.667969 L 172.878906 155.84375 L 171.65625 154.679688 L 165.792969 152.050781 L 163.371094 148.960938 L 162.078125 145.355469 L 162.578125 140.269531 L 162.972656 137.910156 L 161.484375 133.777344 L 156.71875 130.984375 L 153.292969 127.335938 L 151.976563 119.667969 L 147.503906 109.742188 L 145.722656 106.304688 L 142.734375 103.835938 L 136.066406 100.0625 L 132.492188 97.234375 L 129.066406 97.382813 L 126.371094 100.015625 "/>
<path style=" stroke:none;fill-rule:evenodd;fill:rgb(60%,70.196078%,80%);fill-opacity:1;" d="M 23.554688 259 L 28.316406 259 L 25.550781 254.71875 L 22.414063 256.246094 L 22.257813 256.992188 Z M 23.554688 259 "/>
<path style="fill:none;stroke-width:1;stroke-linecap:round;stroke-linejoin:round;stroke:rgb(70.196078%,77.647059%,83.137255%);stroke-opacity:1;stroke-miterlimit:10;" d="M 23.554688 259 L 28.316406 259 L 25.550781 254.71875 L 22.414063 256.246094 L 22.257813 256.992188 L 23.554688 259 "/>
<path style=" stroke:none;fill-rule:evenodd;fill:rgb(60%,70.196078%,80%);fill-opacity:1;" d="M 11.734375 240.53125 L 15.507813 246.371094 L 18.742188 244.894531 L 15.023438 238.257813 L 11.886719 239.785156 L 12.183594 240.242188 Z M 11.734375 240.53125 "/>
<path style="fill:none;stroke-width:1;stroke-linecap:round;stroke-linejoin:round;stroke:rgb(70.196078%,77.647059%,83.137255%);stroke-opacity:1;stroke-miterlimit:10;" d="M 11.734375 240.53125 L 15.507813 246.371094 L 18.742188 244.894531 L 15.023438 238.257813 L 11.886719 239.785156 L 12.183594 240.242188 L 11.734375 240.53125 "/>
<path style="fill:none;stroke-width:6;stroke-linecap:round;stroke-linejoin:round;stroke:rgb(60%,70.196078%,80%);stroke-opacity:1;stroke-miterlimit:10;" d="M 249.050781 -7 L 244.585938 3.667969 L 239.335938 12.292969 L 237.460938 16.792969 L 234.460938 24.292969 L 230.835938 30.917969 L 227.960938 35.167969 L 226.710938 40.917969 L 228.085938 45.792969 L 229.335938 54.042969 L 230.960938 65.542969 L 231.585938 80.667969 L 229.960938 87.417969 L 227.585938 95.542969 L 225.710938 101.417969 L 221.085938 108.042969 L 217.835938 110.167969 L 212.460938 112.667969 L 208.960938 115.292969 L 205.960938 118.917969 L 202.585938 123.667969 L 200.335938 127.542969 L 200.835938 130.667969 L 203.460938 135.042969 L 203.585938 138.667969 L 204.210938 145.792969 L 203.820313 151.632813 L 202.710938 155.042969 L 200.710938 160.167969 L 198.460938 165.417969 L 193.960938 170.292969 L 188.710938 173.667969 L 183.585938 181.417969 L 181.585938 185.792969 L 180.710938 189.542969 L 181.460938 194.042969 L 184.835938 201.792969 L 187.835938 206.292969 L 190.460938 211.542969 L 195.835938 224.167969 L 205.210938 240.667969 L 211.460938 254.042969 L 213.585938 260.417969 L 213.523438 262 "/>
<path style="fill:none;stroke-width:2;stroke-linecap:round;stroke-linejoin:round;stroke:rgb(60%,70.196078%,80%);stroke-opacity:1;stroke-miterlimit:10;" d="M 225.710938 101.417969 L 223.847656 109.527344 L 223.429688 114.972656 L 224.71875 118.453125 L 227.414063 120.863281 L 231.285156 121.003906 L 234.960938 122.855469 L 235.660156 125.410156 L 234.679688 127.371094 L 230.949219 128.773438 L 227.777344 132.054688 L 223.570313 138.820313 L 213.46875 148.359375 L 207.355469 150.910156 L 203.820313 151.632813 "/>
<path style="fill:none;stroke-width:1;stroke-linecap:butt;stroke-linejoin:round;stroke:rgb(46.666667%,46.666667%,46.666667%);stroke-opacity:1;stroke-dasharray:2,2;stroke-miterlimit:10;" d="M -2 166.847656 L 124.753906 75.921875 L 144.09375 61.015625 L 152.136719 53.808594 L 159.757813 46.058594 L 163.105469 41.929688 L 166.425781 37.808594 L 172.613281 29.140625 L 177.519531 21.507813 L 182.269531 13.398438 L 190.976563 -2 "/>
<path style="fill:none;stroke-width:1;stroke-linecap:butt;stroke-linejoin:round;stroke:rgb(46.666667%,46.666667%,46.666667%);stroke-opacity:1;stroke-dasharray:2,2;stroke-miterlimit:10;" d="M -2 164.25 L 20.429688 148.132813 L 123.5 74.234375 L 142.75 59.398438 L 150.683594 52.289063 L 158.183594 44.65625 L 161.472656 40.609375 L 164.75 36.535156 L 170.871094 27.960938 L 175.726563 20.40625 L 180.449219 12.347656 L 188.5625 -2 "/>
<path style="fill:none;stroke-width:1;stroke-linecap:butt;stroke-linejoin:round;stroke:rgb(46.666667%,46.666667%,46.666667%);stroke-opacity:1;stroke-dasharray:2,2;stroke-miterlimit:10;" d="M -2 165.542969 L 20.800781 149.167969 L 124.125 75.074219 L 143.421875 60.207031 L 151.410156 53.046875 L 158.96875 45.355469 L 162.285156 41.269531 L 165.585938 37.171875 L 171.738281 28.546875 L 176.621094 20.957031 L 181.355469 12.871094 L 189.765625 -2 "/>
<path style="fill:none;stroke-width:1;stroke-linecap:butt;stroke-linejoin:round;stroke:rgb(46.666667%,46.666667%,46.666667%);stroke-opacity:1;stroke-dasharray:2,2;stroke-miterlimit:10;" d="M 192.253906 -2 L 183.234375 13.949219 L 178.464844 22.089844 L 173.53125 29.761719 L 167.3125 38.480469 L 163.972656 42.625 L 160.585938 46.800781 L 152.90625 54.613281 L 144.804688 61.875 L 125.417969 76.8125 L 22.832031 150.378906 L -2 168.210938 "/>
<path style="fill:none;stroke-width:1;stroke-linecap:round;stroke-linejoin:round;stroke:rgb(100%,100%,100%);stroke-opacity:1;stroke-dasharray:2,3;stroke-miterlimit:10;" d="M 155.789063 41.796875 L 157.167969 41.929688 "/>
<path style="fill:none;stroke-width:1;stroke-linecap:round;stroke-linejoin:round;stroke:rgb(100%,100%,100%);stroke-opacity:1;stroke-dasharray:2,3;stroke-miterlimit:10;" d="M 160.523438 65.414063 L 161.640625 66.277344 "/>
<path style="fill:none;stroke-width:1;stroke-linecap:round;stroke-linejoin:round;stroke:rgb(100%,100%,100%);stroke-opacity:1;stroke-dasharray:2,3;stroke-miterlimit:10;" d="M 155.886719 43.394531 L 155.789063 41.796875 "/>
<path style="fill:none;stroke-width:1;stroke-linecap:round;stroke-linejoin:round;stroke:rgb(100%,100%,100%);stroke-opacity:1;stroke-dasharray:2,3;stroke-miterlimit:10;" d="M 164.230469 49.738281 L 162.601563 49.363281 "/>
<path style="fill:none;stroke-width:1;stroke-linecap:round;stroke-linejoin:round;stroke:rgb(100%,100%,100%);stroke-opacity:1;stroke-dasharray:2,3;stroke-miterlimit:10;" d="M 163.855469 47.898438 L 164.230469 49.738281 "/>
<path style="fill:none;stroke-width:1;stroke-linecap:round;stroke-linejoin:round;stroke:rgb(100%,100%,100%);stroke-opacity:1;stroke-dasharray:2,3;stroke-miterlimit:10;" d="M 3.734375 240.472656 L 1.953125 241.625 "/>
<path style="fill:none;stroke-width:1;stroke-linecap:round;stroke-linejoin:round;stroke:rgb(100%,100%,100%);stroke-opacity:1;stroke-dasharray:2,3;stroke-miterlimit:10;" d="M 165.605469 55.207031 L 164.011719 57.148438 "/>
<path style="fill:none;stroke-width:1;stroke-linecap:round;stroke-linejoin:round;stroke:rgb(100%,100%,100%);stroke-opacity:1;stroke-dasharray:2,3;stroke-miterlimit:10;" d="M 154.421875 80.273438 L 150.914063 76.832031 "/>
<path style="fill:none;stroke-width:1;stroke-linecap:round;stroke-linejoin:round;stroke:rgb(100%,100%,100%);stroke-opacity:1;stroke-dasharray:2,3;stroke-miterlimit:10;" d="M 133.917969 85.429688 L 132.636719 86.175781 L 132.230469 87.179688 L 132.480469 88.238281 L 133.542969 89.113281 "/>
<path style="fill:none;stroke-width:1;stroke-linecap:round;stroke-linejoin:round;stroke:rgb(100%,100%,100%);stroke-opacity:1;stroke-dasharray:2,3;stroke-miterlimit:10;" d="M 18.515625 142.089844 L 19.402344 144.023438 L 19.742188 146.007813 L 18.828125 146.445313 "/>
<path style="fill:none;stroke-width:1;stroke-linecap:round;stroke-linejoin:round;stroke:rgb(100%,100%,100%);stroke-opacity:1;stroke-dasharray:2,3;stroke-miterlimit:10;" d="M 116.984375 191.183594 L 121.027344 194.949219 "/>
<path style="fill:none;stroke-width:1;stroke-linecap:round;stroke-linejoin:round;stroke:rgb(100%,100%,100%);stroke-opacity:1;stroke-dasharray:2,3;stroke-miterlimit:10;" d="M 172.605469 58.898438 L 174.632813 60.710938 L 176.378906 62.980469 "/>
<path style="fill:none;stroke-width:1;stroke-linecap:round;stroke-linejoin:round;stroke:rgb(100%,100%,100%);stroke-opacity:1;stroke-dasharray:2,3;stroke-miterlimit:10;" d="M 165.605469 55.207031 L 166.226563 56.921875 L 166.613281 58.402344 L 166.632813 59.695313 L 166.003906 61.773438 "/>
<path style="fill:none;stroke-width:1;stroke-linecap:round;stroke-linejoin:round;stroke:rgb(100%,100%,100%);stroke-opacity:1;stroke-dasharray:2,3;stroke-miterlimit:10;" d="M 59.03125 181.5625 L 64.234375 190.28125 "/>
<path style="fill:none;stroke-width:1;stroke-linecap:round;stroke-linejoin:round;stroke:rgb(100%,100%,100%);stroke-opacity:1;stroke-dasharray:2,3;stroke-miterlimit:10;" d="M 23.234375 152.40625 L 25.839844 156.359375 L 28.179688 161.363281 "/>
<path style="fill:none;stroke-width:1;stroke-linecap:round;stroke-linejoin:round;stroke:rgb(100%,100%,100%);stroke-opacity:1;stroke-dasharray:2,3;stroke-miterlimit:10;" d="M 15.945313 165.753906 L 15.304688 171.003906 L 13.660156 171.566406 L 11.40625 171.65625 L 11.429688 172.722656 "/>
<path style="fill:none;stroke-width:1;stroke-linecap:round;stroke-linejoin:round;stroke:rgb(100%,100%,100%);stroke-opacity:1;stroke-dasharray:2,3;stroke-miterlimit:10;" d="M 53.9375 171.589844 L 55.25 174.945313 L 59.03125 181.5625 "/>
<path style="fill:none;stroke-width:1;stroke-linecap:round;stroke-linejoin:round;stroke:rgb(100%,100%,100%);stroke-opacity:1;stroke-dasharray:2,3;stroke-miterlimit:10;" d="M 29.167969 245.730469 L 30.542969 244.925781 L 40.375 238.464844 "/>
<path style="fill:none;stroke-width:1;stroke-linecap:round;stroke-linejoin:round;stroke:rgb(100%,100%,100%);stroke-opacity:1;stroke-dasharray:2,3;stroke-miterlimit:10;" d="M 64.234375 190.28125 L 65.613281 194.144531 L 69.75 197.25 L 73.648438 201.757813 L 77.667969 206.824219 "/>
<path style="fill:none;stroke-width:1;stroke-linecap:round;stroke-linejoin:round;stroke:rgb(100%,100%,100%);stroke-opacity:1;stroke-dasharray:2,3;stroke-miterlimit:10;" d="M 47.78125 161.988281 L 45.996094 161.164063 L 40.484375 160.328125 L 34.042969 160.730469 L 28.179688 161.363281 L 23.222656 162.53125 L 18.355469 164.203125 L 15.945313 165.753906 "/>
<path style="fill:none;stroke-width:1;stroke-linecap:round;stroke-linejoin:round;stroke:rgb(100%,100%,100%);stroke-opacity:1;stroke-dasharray:2,3;stroke-miterlimit:10;" d="M 175.164063 58.738281 L 171.195313 58.242188 L 168.886719 57.367188 L 166.789063 55.988281 L 165.605469 55.207031 L 163.480469 54.363281 L 162.757813 53.179688 L 162.601563 52.175781 L 162.757813 51.082031 L 163.335938 50.183594 L 165.386719 49.550781 L 166.726563 49.675781 L 168.007813 49.675781 L 169.601563 49.363281 L 171.230469 48.832031 L 173.886719 48.085938 L 177.417969 47.019531 L 181.730469 47.050781 L 184.574219 47.832031 L 187.199219 49.238281 L 188.695313 50.425781 "/>
<path style="fill:none;stroke-width:1;stroke-linecap:round;stroke-linejoin:round;stroke:rgb(100%,100%,100%);stroke-opacity:1;stroke-dasharray:2,3;stroke-miterlimit:10;" d="M 67.710938 210.722656 L 67.289063 216.621094 L 67.289063 224.621094 L 66.445313 232.207031 L 64.761719 240.207031 L 61.390625 246.527344 L 55.917969 249.054688 L 49.15625 251.960938 "/>
<path style="fill:none;stroke-width:1;stroke-linecap:round;stroke-linejoin:round;stroke:rgb(100%,100%,100%);stroke-opacity:1;stroke-dasharray:2,3;stroke-miterlimit:10;" d="M 77.667969 206.824219 L 71.503906 208.195313 L 67.710938 210.722656 L 60.128906 211.566406 L 52.96875 209.882813 L 46.652344 209.882813 L 40.332031 212.832031 L 36.542969 217.042969 L 30.9375 223.308594 "/>
<path style="fill:none;stroke-width:1;stroke-linecap:round;stroke-linejoin:round;stroke:rgb(100%,100%,100%);stroke-opacity:1;stroke-dasharray:2,3;stroke-miterlimit:10;" d="M 198.214844 56.785156 L 198.457031 58.804688 L 197.992188 60.992188 L 196.957031 63.644531 L 196.734375 65.488281 L 197.808594 69.886719 L 198.191406 87.894531 L 198.535156 94.617188 L 199.226563 98.300781 L 200.707031 104.457031 L 200.605469 107.113281 L 199.46875 110.394531 L 196.246094 116.203125 "/>
<path style="fill:none;stroke-width:1;stroke-linecap:round;stroke-linejoin:round;stroke:rgb(100%,100%,100%);stroke-opacity:1;stroke-dasharray:2,3;stroke-miterlimit:10;" d="M 77.667969 206.824219 L 81.734375 215.765625 L 84.710938 224.402344 L 84.113281 231.550781 L 82.625 240.488281 L 79.648438 247.933594 L 77.597656 257 "/>
<path style="fill:none;stroke-width:1;stroke-linecap:round;stroke-linejoin:round;stroke:rgb(100%,100%,100%);stroke-opacity:1;stroke-dasharray:2,3;stroke-miterlimit:10;" d="M 174.667969 116.554688 L 179.542969 117.488281 L 187.28125 117.015625 L 190.734375 116.179688 L 194.144531 116.992188 L 196.246094 116.203125 L 203.527344 110.308594 L 208.964844 104.933594 L 212.019531 99.539063 L 217.652344 88.921875 L 217.710938 87.59375 L 216.285156 87.195313 L 198.191406 87.894531 "/>
<path style="fill:none;stroke-width:1;stroke-linecap:round;stroke-linejoin:round;stroke:rgb(100%,100%,100%);stroke-opacity:1;stroke-dasharray:2,3;stroke-miterlimit:10;" d="M 64.234375 190.28125 L 88.5 175.59375 L 92.144531 171.242188 L 93.171875 167.519531 L 91.789063 165.292969 L 87.953125 164.539063 L 83.167969 165.503906 L 59.03125 181.5625 "/>
<path style="fill:none;stroke-width:1;stroke-linecap:round;stroke-linejoin:round;stroke:rgb(100%,100%,100%);stroke-opacity:1;stroke-dasharray:2,3;stroke-miterlimit:10;" d="M -1.0625 236.789063 L 1.953125 241.625 L 6.03125 248.164063 L 11.5 250.632813 L 15.699219 257 M 38.199219 257 L 30.542969 244.925781 "/>
<path style="fill:none;stroke-width:1;stroke-linecap:round;stroke-linejoin:round;stroke:rgb(100%,100%,100%);stroke-opacity:1;stroke-dasharray:2,3;stroke-miterlimit:10;" d="M 92.722656 257 L 94.328125 254.085938 L 97.222656 247.367188 L 99.179688 244.117188 L 102.277344 242.234375 L 105.835938 239.328125 L 108.8125 235.160156 L 111.199219 229.203125 L 111.792969 221.164063 L 114.175781 214.90625 L 117.75 212.527344 L 121.324219 208.953125 L 121.621094 202.695313 L 121.027344 194.949219 L 121.304688 188.800781 "/>
<path style="fill:none;stroke-width:1;stroke-linecap:round;stroke-linejoin:round;stroke:rgb(100%,100%,100%);stroke-opacity:1;stroke-dasharray:2,3;stroke-miterlimit:10;" d="M 98.078125 257 L 99.496094 254.730469 L 100.242188 252.234375 L 101.367188 250.234375 L 103.183594 248.667969 L 105.242188 248.921875 L 107.242188 249.609375 L 109.054688 251.359375 L 109.683594 252.484375 L 110.804688 253.359375 L 112.433594 253.667969 L 115.496094 256.480469 L 115.238281 257 "/>
<path style="fill:none;stroke-width:1;stroke-linecap:round;stroke-linejoin:round;stroke:rgb(100%,100%,100%);stroke-opacity:1;stroke-dasharray:2,3;stroke-miterlimit:10;" d="M 153.808594 157.886719 L 149.285156 157.832031 L 145.480469 156.871094 L 142.609375 157.109375 L 140.574219 158.074219 L 139.046875 159.628906 L 134.191406 166.601563 L 130.238281 174.953125 L 128.597656 180.460938 L 126.8125 184.484375 L 121.304688 188.800781 L 116.984375 191.183594 L 110.136719 192.226563 L 106.261719 195.503906 L 102.984375 200.566406 L 100.15625 204.589844 L 98.519531 206.671875 L 95.6875 208.3125 L 90.921875 208.90625 L 83.777344 207.863281 L 77.667969 206.824219 "/>
<path style="fill:none;stroke-width:1;stroke-linecap:round;stroke-linejoin:round;stroke:rgb(100%,100%,100%);stroke-opacity:1;stroke-dasharray:2,3;stroke-miterlimit:10;" d="M 226.140625 160.757813 L 227.566406 160.445313 L 222.253906 154.773438 L 218.933594 151.410156 L 217.761719 148.414063 L 218.894531 145.660156 L 220.148438 144.117188 L 222.902344 142.292969 L 229.953125 136.546875 L 236.230469 131.195313 L 238.824219 124.714844 L 238.742188 118.394531 L 236.273438 111.914063 L 231.574219 104.90625 L 230.074219 101.140625 L 230.359375 97.453125 L 231.207031 95.265625 L 233.71875 88.90625 L 234.691406 83.882813 L 235.285156 75.457031 L 235.121094 50.503906 L 235.445313 38.59375 L 238.242188 28.441406 L 245.800781 10.835938 L 248.289063 5.21875 L 252.382813 -2 "/>
<path style="fill:none;stroke-width:1;stroke-linecap:round;stroke-linejoin:round;stroke:rgb(100%,100%,100%);stroke-opacity:1;stroke-dasharray:2,3;stroke-miterlimit:10;" d="M 191.792969 17.238281 L 189.976563 18.269531 L 188.757813 19.992188 L 186.824219 23.707031 L 183.507813 30.363281 L 178.261719 36.863281 L 175.382813 39.988281 L 172.945313 42.738281 L 171.445313 45.113281 L 171.195313 47.613281 L 171.230469 48.832031 "/>
<path style="fill:none;stroke-width:8;stroke-linecap:round;stroke-linejoin:round;stroke:rgb(75.686275%,70.980392%,61.568627%);stroke-opacity:1;stroke-miterlimit:10;" d="M 72.816406 96.402344 L 68.085938 97.65625 "/>
<path style="fill:none;stroke-width:8;stroke-linecap:round;stroke-linejoin:round;stroke:rgb(75.686275%,70.980392%,61.568627%);stroke-opacity:1;stroke-miterlimit:10;" d="M 87.652344 117.898438 L 81.664063 110.195313 "/>
<path style="fill:none;stroke-width:8;stroke-linecap:round;stroke-linejoin:round;stroke:rgb(75.686275%,70.980392%,61.568627%);stroke-opacity:1;stroke-miterlimit:10;" d="M 77.109375 104.015625 L 72.816406 96.402344 L 70.886719 92.980469 "/>
<path style="fill:none;stroke-width:10;stroke-linecap:round;stroke-linejoin:round;stroke:rgb(86.666667%,62.352941%,6.666667%);stroke-opacity:1;stroke-miterlimit:10;" d="M 81.703125 129.128906 L 82.390625 131.210938 "/>
<path style="fill:none;stroke-width:10;stroke-linecap:round;stroke-linejoin:round;stroke:rgb(86.666667%,62.352941%,6.666667%);stroke-opacity:1;stroke-miterlimit:10;" d="M 9.003906 182.761719 L 7.253906 180.167969 "/>
<path style="fill:none;stroke-width:10;stroke-linecap:round;stroke-linejoin:round;stroke:rgb(86.666667%,62.352941%,6.666667%);stroke-opacity:1;stroke-miterlimit:10;" d="M 167.136719 111.082031 L 164.746094 110.203125 L 163.683594 110.238281 L 162.839844 110.800781 L 162.203125 112.410156 L 162.292969 113.550781 L 163.066406 115.25 "/>
<path style="fill:none;stroke-width:10;stroke-linecap:round;stroke-linejoin:round;stroke:rgb(86.666667%,62.352941%,6.666667%);stroke-opacity:1;stroke-miterlimit:10;" d="M 87.660156 123.214844 L 86.40625 123.640625 L 85.007813 123.890625 L 83.761719 124.03125 L 82.515625 123.835938 L 81.117188 123.304688 L 79.453125 122.09375 L 77.015625 118.835938 "/>
<path style="fill:none;stroke-width:10;stroke-linecap:round;stroke-linejoin:round;stroke:rgb(86.666667%,62.352941%,6.666667%);stroke-opacity:1;stroke-miterlimit:10;" d="M 9.003906 182.761719 L 17.160156 180.105469 L 25.253906 175.855469 L 34.628906 170.015625 "/>
<path style="fill:none;stroke-width:10;stroke-linecap:round;stroke-linejoin:round;stroke:rgb(72.941176%,43.137255%,15.294118%);stroke-opacity:1;stroke-miterlimit:10;" d="M 247.671875 101.859375 L 246.824219 117.082031 L 246.417969 136.867188 L 246.164063 140.644531 L 245.667969 144.519531 L 244.917969 147.113281 L 243.855469 149.707031 L 242.757813 151.644531 L 241.445313 153.457031 L 239.667969 155.644531 L 237.414063 157.519531 L 234.824219 159.144531 L 231.675781 160.65625 L 226.292969 161.777344 L 219.714844 161.523438 "/>
<path style="fill:none;stroke-width:10;stroke-linecap:round;stroke-linejoin:round;stroke:rgb(72.941176%,43.137255%,15.294118%);stroke-opacity:1;stroke-miterlimit:10;" d="M 222.816406 165.460938 L 228.324219 171.273438 L 230.882813 174.589844 L 236.210938 182.59375 L 242.277344 192.496094 L 247.742188 203.699219 L 250.421875 210.078125 L 253.417969 219.277344 L 256.324219 232.105469 L 256.78125 245.160156 "/>
<path style="fill:none;stroke-width:10;stroke-linecap:round;stroke-linejoin:round;stroke:rgb(72.941176%,43.137255%,15.294118%);stroke-opacity:1;stroke-miterlimit:10;" d="M 266 153.882813 L 264.136719 151.675781 L 259.980469 145.175781 L 257.632813 140.332031 L 255.886719 135.304688 L 254.949219 130.832031 L 254.417969 126.460938 L 251.691406 118.742188 "/>
<path style="fill:none;stroke-width:8;stroke-linecap:round;stroke-linejoin:round;stroke:rgb(75.686275%,70.980392%,61.568627%);stroke-opacity:1;stroke-miterlimit:10;" d="M 0.164063 168.175781 L 1.816406 171.144531 L 7.253906 180.167969 "/>
<path style="fill:none;stroke-width:8;stroke-linecap:round;stroke-linejoin:round;stroke:rgb(75.686275%,70.980392%,61.568627%);stroke-opacity:1;stroke-miterlimit:10;" d="M 17.820313 171.832031 L 11.429688 172.722656 L 6.683594 172.671875 L 2.265625 171.949219 "/>
<path style="fill:none;stroke-width:8;stroke-linecap:round;stroke-linejoin:round;stroke:rgb(75.686275%,70.980392%,61.568627%);stroke-opacity:1;stroke-miterlimit:10;" d="M 4.476563 130.515625 L 16.265625 143.519531 "/>
<path style="fill:none;stroke-width:8;stroke-linecap:round;stroke-linejoin:round;stroke:rgb(75.686275%,70.980392%,61.568627%);stroke-opacity:1;stroke-miterlimit:10;" d="M 27.828125 110.980469 L 36.496094 128.390625 "/>
<path style="fill:none;stroke-width:8;stroke-linecap:round;stroke-linejoin:round;stroke:rgb(75.686275%,70.980392%,61.568627%);stroke-opacity:1;stroke-miterlimit:10;" d="M 2.265625 171.949219 L 1.769531 174.523438 L 0.910156 177.265625 L -0.0546875 181.8125 L -5.839844 190.621094 "/>
<path style="fill:none;stroke-width:8;stroke-linecap:round;stroke-linejoin:round;stroke:rgb(75.686275%,70.980392%,61.568627%);stroke-opacity:1;stroke-miterlimit:10;" d="M 126.371094 39.796875 L 138.8125 57.609375 "/>
<path style="fill:none;stroke-width:8;stroke-linecap:round;stroke-linejoin:round;stroke:rgb(75.686275%,70.980392%,61.568627%);stroke-opacity:1;stroke-miterlimit:10;" d="M 108.332031 52.03125 L 121.148438 70.734375 "/>
<path style="fill:none;stroke-width:8;stroke-linecap:round;stroke-linejoin:round;stroke:rgb(75.686275%,70.980392%,61.568627%);stroke-opacity:1;stroke-miterlimit:10;" d="M 16.265625 143.519531 L 18.515625 142.089844 L 36.496094 128.390625 "/>
<path style="fill:none;stroke-width:8;stroke-linecap:round;stroke-linejoin:round;stroke:rgb(75.686275%,70.980392%,61.568627%);stroke-opacity:1;stroke-miterlimit:10;" d="M 53.9375 171.589844 L 53.484375 168.75 L 53.234375 165.65625 L 52.859375 162.0625 L 51.378906 159.75 L 40.863281 152.101563 "/>
<path style="fill:none;stroke-width:8;stroke-linecap:round;stroke-linejoin:round;stroke:rgb(75.686275%,70.980392%,61.568627%);stroke-opacity:1;stroke-miterlimit:10;" d="M 70.5625 46.269531 L 65.308594 21.195313 "/>
<path style="fill:none;stroke-width:8;stroke-linecap:round;stroke-linejoin:round;stroke:rgb(75.686275%,70.980392%,61.568627%);stroke-opacity:1;stroke-miterlimit:10;" d="M 77.273438 74.742188 L 76.375 70.933594 L 70.5625 46.269531 "/>
<path style="fill:none;stroke-width:8;stroke-linecap:round;stroke-linejoin:round;stroke:rgb(75.686275%,70.980392%,61.568627%);stroke-opacity:1;stroke-miterlimit:10;" d="M 40.863281 152.101563 L 40.097656 149.261719 L 38.019531 147.183594 L 35.179688 146.421875 L 32.335938 147.183594 L 30.257813 149.261719 L 29.496094 152.101563 L 30.257813 154.945313 L 32.335938 157.023438 L 35.179688 157.785156 L 38.019531 157.023438 L 40.097656 154.945313 L 40.863281 152.101563 "/>
<path style="fill:none;stroke-width:8;stroke-linecap:round;stroke-linejoin:round;stroke:rgb(75.686275%,70.980392%,61.568627%);stroke-opacity:1;stroke-miterlimit:10;" d="M 58.785156 -9 L 59.773438 -4.453125 L 65.273438 21.03125 L 65.308594 21.195313 "/>
<path style="fill:none;stroke-width:8;stroke-linecap:round;stroke-linejoin:round;stroke:rgb(75.686275%,70.980392%,61.568627%);stroke-opacity:1;stroke-miterlimit:10;" d="M -9 45.589844 L -5.191406 42.480469 L 18.996094 22.941406 "/>
<path style="fill:none;stroke-width:8;stroke-linecap:round;stroke-linejoin:round;stroke:rgb(75.686275%,70.980392%,61.568627%);stroke-opacity:1;stroke-miterlimit:10;" d="M -9 11.863281 L 13.167969 -4.820313 "/>
<path style="fill:none;stroke-width:8;stroke-linecap:round;stroke-linejoin:round;stroke:rgb(75.686275%,70.980392%,61.568627%);stroke-opacity:1;stroke-miterlimit:10;" d="M -9 34.882813 L -5.191406 42.480469 L 5.039063 64.726563 L 15.289063 86.882813 L 27.828125 110.980469 "/>
<path style="fill:none;stroke-width:8;stroke-linecap:round;stroke-linejoin:round;stroke:rgb(75.686275%,70.980392%,61.568627%);stroke-opacity:1;stroke-miterlimit:10;" d="M 17.84375 191.273438 L 17.5625 196.554688 L 18.25 201.585938 L 22.96875 210.933594 L 30.9375 223.308594 L 40.375 238.464844 L 49.15625 251.960938 L 56.675781 264 "/>
<path style="fill:none;stroke-width:8;stroke-linecap:round;stroke-linejoin:round;stroke:rgb(75.686275%,70.980392%,61.568627%);stroke-opacity:1;stroke-miterlimit:10;" d="M 13.167969 -4.820313 L 18.996094 22.941406 L 24.367188 48.144531 L 30.132813 74.558594 L 36.496094 104.722656 "/>
<path style="fill:none;stroke-width:8;stroke-linecap:round;stroke-linejoin:round;stroke:rgb(75.686275%,70.980392%,61.568627%);stroke-opacity:1;stroke-miterlimit:10;" d="M 119.863281 -9 L 129.074219 4.207031 L 144.660156 26.269531 L 155.789063 41.796875 "/>
<path style="fill:none;stroke-width:8;stroke-linecap:round;stroke-linejoin:round;stroke:rgb(75.686275%,70.980392%,61.568627%);stroke-opacity:1;stroke-miterlimit:10;" d="M 223.582031 264 L 229.703125 253.199219 L 230.964844 250.128906 L 231.117188 245.480469 L 227.941406 223.730469 L 226.460938 218.777344 L 224.085938 213.085938 L 219.390625 205.636719 L 213.527344 199.007813 L 205.546875 192.511719 L 198.269531 187.949219 L 190.988281 183.191406 "/>
<path style="fill:none;stroke-width:8;stroke-linecap:round;stroke-linejoin:round;stroke:rgb(75.686275%,70.980392%,61.568627%);stroke-opacity:1;stroke-miterlimit:10;" d="M 107.683594 -9 L 65.273438 21.03125 L 54.15625 28.523438 L 50.683594 30.863281 L 44.539063 34.59375 "/>
<path style="fill:none;stroke-width:8;stroke-linecap:round;stroke-linejoin:round;stroke:rgb(75.686275%,70.980392%,61.568627%);stroke-opacity:1;stroke-miterlimit:10;" d="M 70.5625 46.269531 L 129.074219 4.207031 L 139.28125 -9 "/>
<path style="fill:none;stroke-width:8;stroke-linecap:round;stroke-linejoin:round;stroke:rgb(75.686275%,70.980392%,61.568627%);stroke-opacity:1;stroke-miterlimit:10;" d="M -9 106.671875 L 15.289063 86.882813 L 30.132813 74.558594 "/>
<path style="fill:none;stroke-width:8;stroke-linecap:round;stroke-linejoin:round;stroke:rgb(75.686275%,70.980392%,61.568627%);stroke-opacity:1;stroke-miterlimit:10;" d="M 44.539063 34.59375 L 24.367188 48.144531 L 5.039063 64.726563 L -9 76.179688 "/>
<path style="fill:none;stroke-width:8;stroke-linecap:round;stroke-linejoin:round;stroke:rgb(75.686275%,70.980392%,61.568627%);stroke-opacity:1;stroke-miterlimit:10;" d="M 7.085938 264 L 0.46875 253.527344 L -9 238.582031 M -9 204.777344 L -5.84375 202.273438 L 1.125 197.746094 L 9.21875 194.058594 L 17.84375 191.273438 L 25.03125 188.398438 L 30.53125 186.089844 L 40.53125 180.273438 L 51.46875 173.210938 L 53.9375 171.589844 L 58.671875 167.898438 L 73.953125 154.316406 L 81.09375 148.773438 L 86.253906 144.886719 L 89.515625 142.441406 L 93.128906 140.070313 L 95.957031 138.3125 L 99.046875 136.648438 L 101.90625 135.363281 L 102.992188 135.042969 L 104.371094 134.828125 L 105.75 134.859375 L 106.851563 135.171875 L 108.226563 136.09375 L 119.183594 155.183594 L 120.3125 156.625 L 122.746094 159.109375 L 124.363281 160.195313 L 125.945313 160.824219 L 127.449219 161.175781 L 128.511719 161.246094 L 130.664063 160.898438 L 132.167969 160.226563 L 138.699219 156.179688 L 141.429688 155.148438 L 144.121094 154.605469 L 145.722656 154.710938 L 149.730469 155.527344 L 153.808594 157.886719 L 172.589844 170.933594 L 172.746094 171.035156 "/>
<path style="fill:none;stroke-width:9;stroke-linecap:round;stroke-linejoin:round;stroke:rgb(75.686275%,70.980392%,61.568627%);stroke-opacity:1;stroke-miterlimit:10;" d="M 4.476563 130.515625 L 2.441406 132.160156 "/>
<path style="fill:none;stroke-width:9;stroke-linecap:round;stroke-linejoin:round;stroke:rgb(75.686275%,70.980392%,61.568627%);stroke-opacity:1;stroke-miterlimit:10;" d="M 77.273438 74.742188 L 72.820313 78.015625 "/>
<path style="fill:none;stroke-width:9;stroke-linecap:round;stroke-linejoin:round;stroke:rgb(75.686275%,70.980392%,61.568627%);stroke-opacity:1;stroke-miterlimit:10;" d="M 82.921875 70.613281 L 77.273438 74.742188 "/>
<path style="fill:none;stroke-width:9;stroke-linecap:round;stroke-linejoin:round;stroke:rgb(75.686275%,70.980392%,61.568627%);stroke-opacity:1;stroke-miterlimit:10;" d="M 115.546875 47.140625 L 108.332031 52.03125 "/>
<path style="fill:none;stroke-width:9;stroke-linecap:round;stroke-linejoin:round;stroke:rgb(75.686275%,70.980392%,61.568627%);stroke-opacity:1;stroke-miterlimit:10;" d="M 19.730469 117.75 L 12.863281 123.5 "/>
<path style="fill:none;stroke-width:9;stroke-linecap:round;stroke-linejoin:round;stroke:rgb(75.686275%,70.980392%,61.568627%);stroke-opacity:1;stroke-miterlimit:10;" d="M 90.359375 65.175781 L 82.921875 70.613281 "/>
<path style="fill:none;stroke-width:9;stroke-linecap:round;stroke-linejoin:round;stroke:rgb(75.686275%,70.980392%,61.568627%);stroke-opacity:1;stroke-miterlimit:10;" d="M 27.828125 110.980469 L 19.730469 117.75 "/>
<path style="fill:none;stroke-width:9;stroke-linecap:round;stroke-linejoin:round;stroke:rgb(75.686275%,70.980392%,61.568627%);stroke-opacity:1;stroke-miterlimit:10;" d="M 12.863281 123.5 L 4.476563 130.515625 "/>
<path style="fill:none;stroke-width:9;stroke-linecap:round;stroke-linejoin:round;stroke:rgb(75.686275%,70.980392%,61.568627%);stroke-opacity:1;stroke-miterlimit:10;" d="M 151.5 17.460938 L 144.660156 26.269531 "/>
<path style="fill:none;stroke-width:9;stroke-linecap:round;stroke-linejoin:round;stroke:rgb(75.686275%,70.980392%,61.568627%);stroke-opacity:1;stroke-miterlimit:10;" d="M 144.660156 26.269531 L 135.570313 32.996094 "/>
<path style="fill:none;stroke-width:9;stroke-linecap:round;stroke-linejoin:round;stroke:rgb(75.686275%,70.980392%,61.568627%);stroke-opacity:1;stroke-miterlimit:10;" d="M 2.441406 132.160156 L -10 142.21875 "/>
<path style="fill:none;stroke-width:9;stroke-linecap:round;stroke-linejoin:round;stroke:rgb(75.686275%,70.980392%,61.568627%);stroke-opacity:1;stroke-miterlimit:10;" d="M 108.332031 52.03125 L 90.359375 65.175781 "/>
<path style="fill:none;stroke-width:9;stroke-linecap:round;stroke-linejoin:round;stroke:rgb(75.686275%,70.980392%,61.568627%);stroke-opacity:1;stroke-miterlimit:10;" d="M 135.570313 32.996094 L 126.371094 39.796875 L 115.546875 47.140625 "/>
<path style="fill:none;stroke-width:9;stroke-linecap:round;stroke-linejoin:round;stroke:rgb(75.686275%,70.980392%,61.568627%);stroke-opacity:1;stroke-miterlimit:10;" d="M 172.816406 -10 L 151.5 17.460938 "/>
<path style="fill:none;stroke-width:9;stroke-linecap:round;stroke-linejoin:round;stroke:rgb(75.686275%,70.980392%,61.568627%);stroke-opacity:1;stroke-miterlimit:10;" d="M 72.820313 78.015625 L 36.496094 104.722656 L 27.828125 110.980469 "/>
<path style="fill:none;stroke-width:11;stroke-linecap:round;stroke-linejoin:round;stroke:rgb(86.666667%,62.352941%,6.666667%);stroke-opacity:1;stroke-miterlimit:10;" d="M 90.71875 120.089844 L 87.660156 123.214844 "/>
<path style="fill:none;stroke-width:11;stroke-linecap:round;stroke-linejoin:round;stroke:rgb(86.666667%,62.352941%,6.666667%);stroke-opacity:1;stroke-miterlimit:10;" d="M 70.097656 141.824219 L 74.746094 137.808594 "/>
<path style="fill:none;stroke-width:11;stroke-linecap:round;stroke-linejoin:round;stroke:rgb(86.666667%,62.352941%,6.666667%);stroke-opacity:1;stroke-miterlimit:10;" d="M 175.355469 126.957031 L 173.632813 122.425781 L 173.058594 121.167969 "/>
<path style="fill:none;stroke-width:11;stroke-linecap:round;stroke-linejoin:round;stroke:rgb(86.666667%,62.352941%,6.666667%);stroke-opacity:1;stroke-miterlimit:10;" d="M 113.253906 95.347656 L 106.898438 100.148438 "/>
<path style="fill:none;stroke-width:11;stroke-linecap:round;stroke-linejoin:round;stroke:rgb(86.666667%,62.352941%,6.666667%);stroke-opacity:1;stroke-miterlimit:10;" d="M 87.660156 123.214844 L 81.703125 129.128906 "/>
<path style="fill:none;stroke-width:11;stroke-linecap:round;stroke-linejoin:round;stroke:rgb(86.666667%,62.352941%,6.666667%);stroke-opacity:1;stroke-miterlimit:10;" d="M 34.628906 170.015625 L 29.691406 169.824219 L 24.753906 170.042969 "/>
<path style="fill:none;stroke-width:11;stroke-linecap:round;stroke-linejoin:round;stroke:rgb(86.666667%,62.352941%,6.666667%);stroke-opacity:1;stroke-miterlimit:10;" d="M 74.746094 137.808594 L 82.390625 131.210938 "/>
<path style="fill:none;stroke-width:11;stroke-linecap:round;stroke-linejoin:round;stroke:rgb(86.666667%,62.352941%,6.666667%);stroke-opacity:1;stroke-miterlimit:10;" d="M 77.015625 118.835938 L 81.703125 129.128906 "/>
<path style="fill:none;stroke-width:11;stroke-linecap:round;stroke-linejoin:round;stroke:rgb(86.666667%,62.352941%,6.666667%);stroke-opacity:1;stroke-miterlimit:10;" d="M 173.058594 121.167969 L 172.324219 119.550781 L 169.949219 115.175781 L 167.136719 111.082031 "/>
<path style="fill:none;stroke-width:11;stroke-linecap:round;stroke-linejoin:round;stroke:rgb(86.666667%,62.352941%,6.666667%);stroke-opacity:1;stroke-miterlimit:10;" d="M 55.769531 68.980469 L 57.96875 75.179688 L 60.570313 80.980469 "/>
<path style="fill:none;stroke-width:11;stroke-linecap:round;stroke-linejoin:round;stroke:rgb(86.666667%,62.352941%,6.666667%);stroke-opacity:1;stroke-miterlimit:10;" d="M 141.414063 90.425781 L 137.511719 89.617188 L 133.542969 89.113281 L 128.542969 89.707031 "/>
<path style="fill:none;stroke-width:11;stroke-linecap:round;stroke-linejoin:round;stroke:rgb(86.666667%,62.352941%,6.666667%);stroke-opacity:1;stroke-miterlimit:10;" d="M 82.390625 131.210938 L 92.820313 122.210938 "/>
<path style="fill:none;stroke-width:11;stroke-linecap:round;stroke-linejoin:round;stroke:rgb(86.666667%,62.352941%,6.666667%);stroke-opacity:1;stroke-miterlimit:10;" d="M 34.628906 170.015625 L 40.628906 166.574219 L 46.566406 162.949219 "/>
<path style="fill:none;stroke-width:11;stroke-linecap:round;stroke-linejoin:round;stroke:rgb(86.666667%,62.352941%,6.666667%);stroke-opacity:1;stroke-miterlimit:10;" d="M 38.933594 19.777344 L 42.875 32.632813 L 44.539063 34.59375 "/>
<path style="fill:none;stroke-width:11;stroke-linecap:round;stroke-linejoin:round;stroke:rgb(86.666667%,62.352941%,6.666667%);stroke-opacity:1;stroke-miterlimit:10;" d="M 128.542969 89.707031 L 122.789063 90.3125 L 119.070313 91.855469 L 113.253906 95.347656 "/>
<path style="fill:none;stroke-width:11;stroke-linecap:round;stroke-linejoin:round;stroke:rgb(86.666667%,62.352941%,6.666667%);stroke-opacity:1;stroke-miterlimit:10;" d="M 81.703125 129.128906 L 70.097656 141.824219 "/>
<path style="fill:none;stroke-width:11;stroke-linecap:round;stroke-linejoin:round;stroke:rgb(86.666667%,62.352941%,6.666667%);stroke-opacity:1;stroke-miterlimit:10;" d="M 24.753906 170.042969 L 17.820313 171.832031 L 12.890625 175.386719 L 7.253906 180.167969 "/>
<path style="fill:none;stroke-width:11;stroke-linecap:round;stroke-linejoin:round;stroke:rgb(86.666667%,62.352941%,6.666667%);stroke-opacity:1;stroke-miterlimit:10;" d="M 106.898438 100.148438 L 100.582031 108.027344 L 90.71875 120.089844 "/>
<path style="fill:none;stroke-width:11;stroke-linecap:round;stroke-linejoin:round;stroke:rgb(86.666667%,62.352941%,6.666667%);stroke-opacity:1;stroke-miterlimit:10;" d="M 92.820313 122.210938 L 103.71875 107.050781 L 106.898438 100.148438 "/>
<path style="fill:none;stroke-width:11;stroke-linecap:round;stroke-linejoin:round;stroke:rgb(86.666667%,62.352941%,6.666667%);stroke-opacity:1;stroke-miterlimit:10;" d="M 70.097656 141.824219 L 62.253906 149.28125 L 55.511719 156.433594 L 51.378906 159.75 L 47.78125 161.988281 L 46.566406 162.949219 "/>
<path style="fill:none;stroke-width:11;stroke-linecap:round;stroke-linejoin:round;stroke:rgb(86.666667%,62.352941%,6.666667%);stroke-opacity:1;stroke-miterlimit:10;" d="M 167.136719 111.082031 L 164.761719 107.832031 L 161.980469 104.519531 L 158.726563 100.898438 L 155.539063 97.769531 L 151.730469 94.863281 L 147.886719 92.863281 L 144.664063 91.457031 L 141.414063 90.425781 "/>
<path style="fill:none;stroke-width:11;stroke-linecap:round;stroke-linejoin:round;stroke:rgb(86.666667%,62.352941%,6.666667%);stroke-opacity:1;stroke-miterlimit:10;" d="M 195.789063 153.457031 L 188.488281 150.886719 L 183.105469 144.300781 L 180.574219 139.332031 L 177.917969 133.707031 L 176.167969 129.148438 L 175.355469 126.957031 "/>
<path style="fill:none;stroke-width:11;stroke-linecap:round;stroke-linejoin:round;stroke:rgb(86.666667%,62.352941%,6.666667%);stroke-opacity:1;stroke-miterlimit:10;" d="M 44.539063 34.59375 L 55.769531 68.980469 "/>
<path style="fill:none;stroke-width:11;stroke-linecap:round;stroke-linejoin:round;stroke:rgb(86.666667%,62.352941%,6.666667%);stroke-opacity:1;stroke-miterlimit:10;" d="M 173.710938 128.96875 L 175.148438 132.75 L 177.273438 137.683594 L 179.554688 142.625 L 181.304688 145.4375 L 183.210938 148.15625 L 185.148438 150.464844 L 187.679688 152.652344 L 189.792969 153.769531 L 195.679688 155.78125 "/>
<path style="fill:none;stroke-width:11;stroke-linecap:round;stroke-linejoin:round;stroke:rgb(86.666667%,62.352941%,6.666667%);stroke-opacity:1;stroke-miterlimit:10;" d="M 7.253906 180.167969 L -5.839844 190.621094 L -9.554688 193.863281 L -11.625 195.664063 L -12 196.101563 "/>
<path style="fill:none;stroke-width:11;stroke-linecap:round;stroke-linejoin:round;stroke:rgb(86.666667%,62.352941%,6.666667%);stroke-opacity:1;stroke-miterlimit:10;" d="M 207.636719 159.816406 L 213.875 161.816406 L 222.816406 165.460938 L 231.84375 168.890625 L 242.503906 175.007813 L 248.664063 178.6875 L 254.070313 182.550781 L 260.089844 187.183594 "/>
<path style="fill:none;stroke-width:11;stroke-linecap:round;stroke-linejoin:round;stroke:rgb(86.666667%,62.352941%,6.666667%);stroke-opacity:1;stroke-miterlimit:10;" d="M 261.429688 185.664063 L 255.523438 180.457031 L 247.617188 175.238281 L 241.03125 171.414063 L 232.726563 167.058594 L 219.714844 161.523438 L 217.265625 160.757813 L 214.570313 159.910156 L 208.332031 157.980469 "/>
<path style="fill:none;stroke-width:11;stroke-linecap:round;stroke-linejoin:round;stroke:rgb(86.666667%,62.352941%,6.666667%);stroke-opacity:1;stroke-miterlimit:10;" d="M -12 201.039063 L -7.089844 195.949219 L -1.058594 190.480469 L 9.003906 182.761719 L 14.722656 177.980469 L 18.972656 174.699219 L 21.316406 173.574219 L 23.972656 172.605469 L 26.441406 172.167969 L 28.878906 171.980469 L 34.628906 170.015625 "/>
<path style="fill:none;stroke-width:11;stroke-linecap:round;stroke-linejoin:round;stroke:rgb(86.666667%,62.352941%,6.666667%);stroke-opacity:1;stroke-miterlimit:10;" d="M 128.542969 89.707031 L 133.351563 90.742188 L 137.367188 91.28125 L 141.679688 92.375 L 145.773438 93.8125 L 149.148438 95.375 L 151.023438 96.621094 L 152.867188 98.28125 L 154.585938 100.78125 L 156.082031 103.5625 L 157.617188 106.84375 L 160.292969 112.367188 L 163.066406 115.25 L 165.648438 117.589844 L 168.273438 120.277344 L 170.519531 123 L 171.992188 125.21875 L 173.710938 128.96875 "/>
<path style="fill:none;stroke-width:11;stroke-linecap:round;stroke-linejoin:round;stroke:rgb(86.666667%,62.352941%,6.666667%);stroke-opacity:1;stroke-miterlimit:10;" d="M -12 251.671875 L -2.320313 267 "/>
<path style="fill:none;stroke-width:11;stroke-linecap:round;stroke-linejoin:round;stroke:rgb(86.666667%,62.352941%,6.666667%);stroke-opacity:1;stroke-miterlimit:10;" d="M 1.574219 267 L -1.246094 262.542969 L -8.496094 250.917969 L -12 245.277344 "/>
<path style="fill:none;stroke-width:11;stroke-linecap:round;stroke-linejoin:round;stroke:rgb(86.666667%,62.352941%,6.666667%);stroke-opacity:1;stroke-miterlimit:10;" d="M 29.734375 -12 L 37.566406 15.027344 L 38.933594 19.777344 "/>
<path style="fill:none;stroke-width:11;stroke-linecap:round;stroke-linejoin:round;stroke:rgb(86.666667%,62.352941%,6.666667%);stroke-opacity:1;stroke-miterlimit:10;" d="M 55.769531 68.980469 L 52.570313 56.179688 L 51.371094 49.578125 L 50.769531 41.980469 L 50.683594 30.863281 L 50.769531 22.980469 L 49.769531 14.578125 L 48.371094 6.78125 L 46.167969 -1.621094 L 43.769531 -10.019531 L 43.140625 -12 "/>
<path style="fill:none;stroke-width:11;stroke-linecap:round;stroke-linejoin:round;stroke:rgb(72.941176%,43.137255%,15.294118%);stroke-opacity:1;stroke-miterlimit:10;" d="M 254.339844 187.179688 L 256.019531 205.277344 "/>
<path style="fill:none;stroke-width:11;stroke-linecap:round;stroke-linejoin:round;stroke:rgb(72.941176%,43.137255%,15.294118%);stroke-opacity:1;stroke-miterlimit:10;" d="M 256.019531 205.277344 L 256.820313 220.476563 L 256.78125 245.160156 L 256.21875 257.878906 L 255.519531 267 "/>
<path style="fill:none;stroke-width:11;stroke-linecap:round;stroke-linejoin:round;stroke:rgb(72.941176%,43.137255%,15.294118%);stroke-opacity:1;stroke-miterlimit:10;" d="M 264.632813 267 L 264.089844 256.742188 L 263.09375 242.539063 L 259.089844 204.539063 L 258.027344 189.148438 "/>
<path style="fill:none;stroke-width:11;stroke-linecap:round;stroke-linejoin:round;stroke:rgb(72.941176%,43.137255%,15.294118%);stroke-opacity:1;stroke-miterlimit:10;" d="M 256.800781 178.640625 L 252.492188 135.539063 L 251.691406 118.742188 L 251.492188 108.339844 L 251.292969 97.542969 L 251.691406 84.339844 L 252.292969 70.339844 L 253.089844 56.941406 L 254.289063 43.339844 L 255.890625 29.140625 L 257.691406 15.742188 L 259.894531 1.9375 L 262.492188 -11.859375 L 262.519531 -12 "/>
<path style="fill:none;stroke-width:11;stroke-linecap:round;stroke-linejoin:round;stroke:rgb(72.941176%,43.137255%,15.294118%);stroke-opacity:1;stroke-miterlimit:10;" d="M 258.855469 -12 L 256.78125 1.558594 L 253.582031 23.359375 L 251.179688 43.757813 L 249.78125 61.160156 L 248.78125 81.558594 L 247.671875 101.859375 L 248.78125 120.359375 L 249.78125 135.160156 L 253.3125 175.574219 "/>
<path style="fill:none;stroke-width:6;stroke-linecap:round;stroke-linejoin:round;stroke:rgb(100%,100%,100%);stroke-opacity:1;stroke-miterlimit:10;" d="M 72.816406 96.402344 L 68.085938 97.65625 "/>
<path style="fill:none;stroke-width:6;stroke-linecap:round;stroke-linejoin:round;stroke:rgb(100%,100%,100%);stroke-opacity:1;stroke-miterlimit:10;" d="M 87.652344 117.898438 L 81.664063 110.195313 "/>
<path style="fill:none;stroke-width:6;stroke-linecap:round;stroke-linejoin:round;stroke:rgb(100%,100%,100%);stroke-opacity:1;stroke-miterlimit:10;" d="M 77.109375 104.015625 L 72.816406 96.402344 L 70.886719 92.980469 "/>
<path style="fill:none;stroke-width:8;stroke-linecap:round;stroke-linejoin:round;stroke:rgb(100%,76.470588%,27.058824%);stroke-opacity:1;stroke-miterlimit:10;" d="M 81.703125 129.128906 L 82.390625 131.210938 "/>
<path style="fill:none;stroke-width:8;stroke-linecap:round;stroke-linejoin:round;stroke:rgb(100%,76.470588%,27.058824%);stroke-opacity:1;stroke-miterlimit:10;" d="M 9.003906 182.761719 L 7.253906 180.167969 "/>
<path style="fill:none;stroke-width:8;stroke-linecap:round;stroke-linejoin:round;stroke:rgb(100%,76.470588%,27.058824%);stroke-opacity:1;stroke-miterlimit:10;" d="M 167.136719 111.082031 L 164.746094 110.203125 L 163.683594 110.238281 L 162.839844 110.800781 L 162.203125 112.410156 L 162.292969 113.550781 L 163.066406 115.25 "/>
<path style="fill:none;stroke-width:8;stroke-linecap:round;stroke-linejoin:round;stroke:rgb(100%,76.470588%,27.058824%);stroke-opacity:1;stroke-miterlimit:10;" d="M 87.660156 123.214844 L 86.40625 123.640625 L 85.007813 123.890625 L 83.761719 124.03125 L 82.515625 123.835938 L 81.117188 123.304688 L 79.453125 122.09375 L 77.015625 118.835938 "/>
<path style="fill:none;stroke-width:8;stroke-linecap:round;stroke-linejoin:round;stroke:rgb(100%,76.470588%,27.058824%);stroke-opacity:1;stroke-miterlimit:10;" d="M 9.003906 182.761719 L 17.160156 180.105469 L 25.253906 175.855469 L 34.628906 170.015625 "/>
<path style="fill:none;stroke-width:8;stroke-linecap:round;stroke-linejoin:round;stroke:rgb(99.215686%,57.254902%,22.745098%);stroke-opacity:1;stroke-miterlimit:10;" d="M 247.671875 101.859375 L 246.824219 117.082031 L 246.417969 136.867188 L 246.164063 140.644531 L 245.667969 144.519531 L 244.917969 147.113281 L 243.855469 149.707031 L 242.757813 151.644531 L 241.445313 153.457031 L 239.667969 155.644531 L 237.414063 157.519531 L 234.824219 159.144531 L 231.675781 160.65625 L 226.292969 161.777344 L 219.714844 161.523438 "/>
<path style="fill:none;stroke-width:8;stroke-linecap:round;stroke-linejoin:round;stroke:rgb(99.215686%,57.254902%,22.745098%);stroke-opacity:1;stroke-miterlimit:10;" d="M 222.816406 165.460938 L 228.324219 171.273438 L 230.882813 174.589844 L 236.210938 182.59375 L 242.277344 192.496094 L 247.742188 203.699219 L 250.421875 210.078125 L 253.417969 219.277344 L 256.324219 232.105469 L 256.78125 245.160156 "/>
<path style="fill:none;stroke-width:8;stroke-linecap:round;stroke-linejoin:round;stroke:rgb(99.215686%,57.254902%,22.745098%);stroke-opacity:1;stroke-miterlimit:10;" d="M 266 153.882813 L 264.136719 151.675781 L 259.980469 145.175781 L 257.632813 140.332031 L 255.886719 135.304688 L 254.949219 130.832031 L 254.417969 126.460938 L 251.691406 118.742188 "/>
<path style="fill:none;stroke-width:6;stroke-linecap:round;stroke-linejoin:round;stroke:rgb(100%,100%,100%);stroke-opacity:1;stroke-miterlimit:10;" d="M 0.164063 168.175781 L 1.816406 171.144531 L 7.253906 180.167969 "/>
<path style="fill:none;stroke-width:6;stroke-linecap:round;stroke-linejoin:round;stroke:rgb(100%,100%,100%);stroke-opacity:1;stroke-miterlimit:10;" d="M 17.820313 171.832031 L 11.429688 172.722656 L 6.683594 172.671875 L 2.265625 171.949219 "/>
<path style="fill:none;stroke-width:6;stroke-linecap:round;stroke-linejoin:round;stroke:rgb(100%,100%,100%);stroke-opacity:1;stroke-miterlimit:10;" d="M 4.476563 130.515625 L 16.265625 143.519531 "/>
<path style="fill:none;stroke-width:6;stroke-linecap:round;stroke-linejoin:round;stroke:rgb(100%,100%,100%);stroke-opacity:1;stroke-miterlimit:10;" d="M 27.828125 110.980469 L 36.496094 128.390625 "/>
<path style="fill:none;stroke-width:6;stroke-linecap:round;stroke-linejoin:round;stroke:rgb(100%,100%,100%);stroke-opacity:1;stroke-miterlimit:10;" d="M 2.265625 171.949219 L 1.769531 174.523438 L 0.910156 177.265625 L -0.0546875 181.8125 L -5.839844 190.621094 "/>
<path style="fill:none;stroke-width:6;stroke-linecap:round;stroke-linejoin:round;stroke:rgb(100%,100%,100%);stroke-opacity:1;stroke-miterlimit:10;" d="M 126.371094 39.796875 L 138.8125 57.609375 "/>
<path style="fill:none;stroke-width:6;stroke-linecap:round;stroke-linejoin:round;stroke:rgb(100%,100%,100%);stroke-opacity:1;stroke-miterlimit:10;" d="M 108.332031 52.03125 L 121.148438 70.734375 "/>
<path style="fill:none;stroke-width:6;stroke-linecap:round;stroke-linejoin:round;stroke:rgb(100%,100%,100%);stroke-opacity:1;stroke-miterlimit:10;" d="M 16.265625 143.519531 L 18.515625 142.089844 L 36.496094 128.390625 "/>
<path style="fill:none;stroke-width:6;stroke-linecap:round;stroke-linejoin:round;stroke:rgb(100%,100%,100%);stroke-opacity:1;stroke-miterlimit:10;" d="M 53.9375 171.589844 L 53.484375 168.75 L 53.234375 165.65625 L 52.859375 162.0625 L 51.378906 159.75 L 40.863281 152.101563 "/>
<path style="fill:none;stroke-width:6;stroke-linecap:round;stroke-linejoin:round;stroke:rgb(100%,100%,100%);stroke-opacity:1;stroke-miterlimit:10;" d="M 70.5625 46.269531 L 65.308594 21.195313 "/>
<path style="fill:none;stroke-width:6;stroke-linecap:round;stroke-linejoin:round;stroke:rgb(100%,100%,100%);stroke-opacity:1;stroke-miterlimit:10;" d="M 77.273438 74.742188 L 76.375 70.933594 L 70.5625 46.269531 "/>
<path style="fill:none;stroke-width:6;stroke-linecap:round;stroke-linejoin:round;stroke:rgb(100%,100%,100%);stroke-opacity:1;stroke-miterlimit:10;" d="M 40.863281 152.101563 L 40.097656 149.261719 L 38.019531 147.183594 L 35.179688 146.421875 L 32.335938 147.183594 L 30.257813 149.261719 L 29.496094 152.101563 L 30.257813 154.945313 L 32.335938 157.023438 L 35.179688 157.785156 L 38.019531 157.023438 L 40.097656 154.945313 L 40.863281 152.101563 "/>
<path style="fill:none;stroke-width:6;stroke-linecap:round;stroke-linejoin:round;stroke:rgb(100%,100%,100%);stroke-opacity:1;stroke-miterlimit:10;" d="M 58.785156 -9 L 59.773438 -4.453125 L 65.273438 21.03125 L 65.308594 21.195313 "/>
<path style="fill:none;stroke-width:6;stroke-linecap:round;stroke-linejoin:round;stroke:rgb(100%,100%,100%);stroke-opacity:1;stroke-miterlimit:10;" d="M -9 45.589844 L -5.191406 42.480469 L 18.996094 22.941406 "/>
<path style="fill:none;stroke-width:6;stroke-linecap:round;stroke-linejoin:round;stroke:rgb(100%,100%,100%);stroke-opacity:1;stroke-miterlimit:10;" d="M -9 11.863281 L 13.167969 -4.820313 "/>
<path style="fill:none;stroke-width:6;stroke-linecap:round;stroke-linejoin:round;stroke:rgb(100%,100%,100%);stroke-opacity:1;stroke-miterlimit:10;" d="M -9 34.882813 L -5.191406 42.480469 L 5.039063 64.726563 L 15.289063 86.882813 L 27.828125 110.980469 "/>
<path style="fill:none;stroke-width:6;stroke-linecap:round;stroke-linejoin:round;stroke:rgb(100%,100%,100%);stroke-opacity:1;stroke-miterlimit:10;" d="M 17.84375 191.273438 L 17.5625 196.554688 L 18.25 201.585938 L 22.96875 210.933594 L 30.9375 223.308594 L 40.375 238.464844 L 49.15625 251.960938 L 56.675781 264 "/>
<path style="fill:none;stroke-width:6;stroke-linecap:round;stroke-linejoin:round;stroke:rgb(100%,100%,100%);stroke-opacity:1;stroke-miterlimit:10;" d="M 13.167969 -4.820313 L 18.996094 22.941406 L 24.367188 48.144531 L 30.132813 74.558594 L 36.496094 104.722656 "/>
<path style="fill:none;stroke-width:6;stroke-linecap:round;stroke-linejoin:round;stroke:rgb(100%,100%,100%);stroke-opacity:1;stroke-miterlimit:10;" d="M 119.863281 -9 L 129.074219 4.207031 L 144.660156 26.269531 L 155.789063 41.796875 "/>
<path style="fill:none;stroke-width:6;stroke-linecap:round;stroke-linejoin:round;stroke:rgb(100%,100%,100%);stroke-opacity:1;stroke-miterlimit:10;" d="M 223.582031 264 L 229.703125 253.199219 L 230.964844 250.128906 L 231.117188 245.480469 L 227.941406 223.730469 L 226.460938 218.777344 L 224.085938 213.085938 L 219.390625 205.636719 L 213.527344 199.007813 L 205.546875 192.511719 L 198.269531 187.949219 L 190.988281 183.191406 "/>
<path style="fill:none;stroke-width:6;stroke-linecap:round;stroke-linejoin:round;stroke:rgb(100%,100%,100%);stroke-opacity:1;stroke-miterlimit:10;" d="M 107.683594 -9 L 65.273438 21.03125 L 54.15625 28.523438 L 50.683594 30.863281 L 44.539063 34.59375 "/>
<path style="fill:none;stroke-width:6;stroke-linecap:round;stroke-linejoin:round;stroke:rgb(100%,100%,100%);stroke-opacity:1;stroke-miterlimit:10;" d="M 70.5625 46.269531 L 129.074219 4.207031 L 139.28125 -9 "/>
<path style="fill:none;stroke-width:6;stroke-linecap:round;stroke-linejoin:round;stroke:rgb(100%,100%,100%);stroke-opacity:1;stroke-miterlimit:10;" d="M -9 106.671875 L 15.289063 86.882813 L 30.132813 74.558594 "/>
<path style="fill:none;stroke-width:6;stroke-linecap:round;stroke-linejoin:round;stroke:rgb(100%,100%,100%);stroke-opacity:1;stroke-miterlimit:10;" d="M 44.539063 34.59375 L 24.367188 48.144531 L 5.039063 64.726563 L -9 76.179688 "/>
<path style="fill:none;stroke-width:6;stroke-linecap:round;stroke-linejoin:round;stroke:rgb(100%,100%,100%);stroke-opacity:1;stroke-miterlimit:10;" d="M 7.085938 264 L 0.46875 253.527344 L -9 238.582031 M -9 204.777344 L -5.84375 202.273438 L 1.125 197.746094 L 9.21875 194.058594 L 17.84375 191.273438 L 25.03125 188.398438 L 30.53125 186.089844 L 40.53125 180.273438 L 51.46875 173.210938 L 53.9375 171.589844 L 58.671875 167.898438 L 73.953125 154.316406 L 81.09375 148.773438 L 86.253906 144.886719 L 89.515625 142.441406 L 93.128906 140.070313 L 95.957031 138.3125 L 99.046875 136.648438 L 101.90625 135.363281 L 102.992188 135.042969 L 104.371094 134.828125 L 105.75 134.859375 L 106.851563 135.171875 L 108.226563 136.09375 L 119.183594 155.183594 L 120.3125 156.625 L 122.746094 159.109375 L 124.363281 160.195313 L 125.945313 160.824219 L 127.449219 161.175781 L 128.511719 161.246094 L 130.664063 160.898438 L 132.167969 160.226563 L 138.699219 156.179688 L 141.429688 155.148438 L 144.121094 154.605469 L 145.722656 154.710938 L 149.730469 155.527344 L 153.808594 157.886719 L 172.589844 170.933594 L 172.746094 171.035156 "/>
<path style="fill:none;stroke-width:7;stroke-linecap:round;stroke-linejoin:round;stroke:rgb(100%,99.215686%,54.509804%);stroke-opacity:1;stroke-miterlimit:10;" d="M 4.476563 130.515625 L 2.441406 132.160156 "/>
<path style="fill:none;stroke-width:7;stroke-linecap:round;stroke-linejoin:round;stroke:rgb(100%,99.215686%,54.509804%);stroke-opacity:1;stroke-miterlimit:10;" d="M 77.273438 74.742188 L 72.820313 78.015625 "/>
<path style="fill:none;stroke-width:7;stroke-linecap:round;stroke-linejoin:round;stroke:rgb(100%,99.215686%,54.509804%);stroke-opacity:1;stroke-miterlimit:10;" d="M 82.921875 70.613281 L 77.273438 74.742188 "/>
<path style="fill:none;stroke-width:7;stroke-linecap:round;stroke-linejoin:round;stroke:rgb(100%,99.215686%,54.509804%);stroke-opacity:1;stroke-miterlimit:10;" d="M 115.546875 47.140625 L 108.332031 52.03125 "/>
<path style="fill:none;stroke-width:7;stroke-linecap:round;stroke-linejoin:round;stroke:rgb(100%,99.215686%,54.509804%);stroke-opacity:1;stroke-miterlimit:10;" d="M 19.730469 117.75 L 12.863281 123.5 "/>
<path style="fill:none;stroke-width:7;stroke-linecap:round;stroke-linejoin:round;stroke:rgb(100%,99.215686%,54.509804%);stroke-opacity:1;stroke-miterlimit:10;" d="M 90.359375 65.175781 L 82.921875 70.613281 "/>
<path style="fill:none;stroke-width:7;stroke-linecap:round;stroke-linejoin:round;stroke:rgb(100%,99.215686%,54.509804%);stroke-opacity:1;stroke-miterlimit:10;" d="M 27.828125 110.980469 L 19.730469 117.75 "/>
<path style="fill:none;stroke-width:7;stroke-linecap:round;stroke-linejoin:round;stroke:rgb(100%,99.215686%,54.509804%);stroke-opacity:1;stroke-miterlimit:10;" d="M 12.863281 123.5 L 4.476563 130.515625 "/>
<path style="fill:none;stroke-width:7;stroke-linecap:round;stroke-linejoin:round;stroke:rgb(100%,99.215686%,54.509804%);stroke-opacity:1;stroke-miterlimit:10;" d="M 151.5 17.460938 L 144.660156 26.269531 "/>
<path style="fill:none;stroke-width:7;stroke-linecap:round;stroke-linejoin:round;stroke:rgb(100%,99.215686%,54.509804%);stroke-opacity:1;stroke-miterlimit:10;" d="M 144.660156 26.269531 L 135.570313 32.996094 "/>
<path style="fill:none;stroke-width:7;stroke-linecap:round;stroke-linejoin:round;stroke:rgb(100%,99.215686%,54.509804%);stroke-opacity:1;stroke-miterlimit:10;" d="M 2.441406 132.160156 L -10 142.21875 "/>
<path style="fill:none;stroke-width:7;stroke-linecap:round;stroke-linejoin:round;stroke:rgb(100%,99.215686%,54.509804%);stroke-opacity:1;stroke-miterlimit:10;" d="M 108.332031 52.03125 L 90.359375 65.175781 "/>
<path style="fill:none;stroke-width:7;stroke-linecap:round;stroke-linejoin:round;stroke:rgb(100%,99.215686%,54.509804%);stroke-opacity:1;stroke-miterlimit:10;" d="M 135.570313 32.996094 L 126.371094 39.796875 L 115.546875 47.140625 "/>
<path style="fill:none;stroke-width:7;stroke-linecap:round;stroke-linejoin:round;stroke:rgb(100%,99.215686%,54.509804%);stroke-opacity:1;stroke-miterlimit:10;" d="M 172.816406 -10 L 151.5 17.460938 "/>
<path style="fill:none;stroke-width:7;stroke-linecap:round;stroke-linejoin:round;stroke:rgb(100%,99.215686%,54.509804%);stroke-opacity:1;stroke-miterlimit:10;" d="M 72.820313 78.015625 L 36.496094 104.722656 L 27.828125 110.980469 "/>
<path style="fill:none;stroke-width:9;stroke-linecap:round;stroke-linejoin:round;stroke:rgb(100%,76.470588%,27.058824%);stroke-opacity:1;stroke-miterlimit:10;" d="M 90.71875 120.089844 L 87.660156 123.214844 "/>
<path style="fill:none;stroke-width:9;stroke-linecap:round;stroke-linejoin:round;stroke:rgb(100%,76.470588%,27.058824%);stroke-opacity:1;stroke-miterlimit:10;" d="M 70.097656 141.824219 L 74.746094 137.808594 "/>
<path style="fill:none;stroke-width:9;stroke-linecap:round;stroke-linejoin:round;stroke:rgb(100%,76.470588%,27.058824%);stroke-opacity:1;stroke-miterlimit:10;" d="M 175.355469 126.957031 L 173.632813 122.425781 L 173.058594 121.167969 "/>
<path style="fill:none;stroke-width:9;stroke-linecap:round;stroke-linejoin:round;stroke:rgb(100%,76.470588%,27.058824%);stroke-opacity:1;stroke-miterlimit:10;" d="M 113.253906 95.347656 L 106.898438 100.148438 "/>
<path style="fill:none;stroke-width:9;stroke-linecap:round;stroke-linejoin:round;stroke:rgb(100%,76.470588%,27.058824%);stroke-opacity:1;stroke-miterlimit:10;" d="M 87.660156 123.214844 L 81.703125 129.128906 "/>
<path style="fill:none;stroke-width:9;stroke-linecap:round;stroke-linejoin:round;stroke:rgb(100%,76.470588%,27.058824%);stroke-opacity:1;stroke-miterlimit:10;" d="M 34.628906 170.015625 L 29.691406 169.824219 L 24.753906 170.042969 "/>
<path style="fill:none;stroke-width:9;stroke-linecap:round;stroke-linejoin:round;stroke:rgb(100%,76.470588%,27.058824%);stroke-opacity:1;stroke-miterlimit:10;" d="M 74.746094 137.808594 L 82.390625 131.210938 "/>
<path style="fill:none;stroke-width:9;stroke-linecap:round;stroke-linejoin:round;stroke:rgb(100%,76.470588%,27.058824%);stroke-opacity:1;stroke-miterlimit:10;" d="M 77.015625 118.835938 L 81.703125 129.128906 "/>
<path style="fill:none;stroke-width:9;stroke-linecap:round;stroke-linejoin:round;stroke:rgb(100%,76.470588%,27.058824%);stroke-opacity:1;stroke-miterlimit:10;" d="M 173.058594 121.167969 L 172.324219 119.550781 L 169.949219 115.175781 L 167.136719 111.082031 "/>
<path style="fill:none;stroke-width:9;stroke-linecap:round;stroke-linejoin:round;stroke:rgb(100%,76.470588%,27.058824%);stroke-opacity:1;stroke-miterlimit:10;" d="M 55.769531 68.980469 L 57.96875 75.179688 L 60.570313 80.980469 "/>
<path style="fill:none;stroke-width:9;stroke-linecap:round;stroke-linejoin:round;stroke:rgb(100%,76.470588%,27.058824%);stroke-opacity:1;stroke-miterlimit:10;" d="M 141.414063 90.425781 L 137.511719 89.617188 L 133.542969 89.113281 L 128.542969 89.707031 "/>
<path style="fill:none;stroke-width:9;stroke-linecap:round;stroke-linejoin:round;stroke:rgb(100%,76.470588%,27.058824%);stroke-opacity:1;stroke-miterlimit:10;" d="M 82.390625 131.210938 L 92.820313 122.210938 "/>
<path style="fill:none;stroke-width:9;stroke-linecap:round;stroke-linejoin:round;stroke:rgb(100%,76.470588%,27.058824%);stroke-opacity:1;stroke-miterlimit:10;" d="M 34.628906 170.015625 L 40.628906 166.574219 L 46.566406 162.949219 "/>
<path style="fill:none;stroke-width:9;stroke-linecap:round;stroke-linejoin:round;stroke:rgb(100%,76.470588%,27.058824%);stroke-opacity:1;stroke-miterlimit:10;" d="M 38.933594 19.777344 L 42.875 32.632813 L 44.539063 34.59375 "/>
<path style="fill:none;stroke-width:9;stroke-linecap:round;stroke-linejoin:round;stroke:rgb(100%,76.470588%,27.058824%);stroke-opacity:1;stroke-miterlimit:10;" d="M 128.542969 89.707031 L 122.789063 90.3125 L 119.070313 91.855469 L 113.253906 95.347656 "/>
<path style="fill:none;stroke-width:9;stroke-linecap:round;stroke-linejoin:round;stroke:rgb(100%,76.470588%,27.058824%);stroke-opacity:1;stroke-miterlimit:10;" d="M 81.703125 129.128906 L 70.097656 141.824219 "/>
<path style="fill:none;stroke-width:9;stroke-linecap:round;stroke-linejoin:round;stroke:rgb(100%,76.470588%,27.058824%);stroke-opacity:1;stroke-miterlimit:10;" d="M 24.753906 170.042969 L 17.820313 171.832031 L 12.890625 175.386719 L 7.253906 180.167969 "/>
<path style="fill:none;stroke-width:9;stroke-linecap:round;stroke-linejoin:round;stroke:rgb(100%,76.470588%,27.058824%);stroke-opacity:1;stroke-miterlimit:10;" d="M 106.898438 100.148438 L 100.582031 108.027344 L 90.71875 120.089844 "/>
<path style="fill:none;stroke-width:9;stroke-linecap:round;stroke-linejoin:round;stroke:rgb(100%,76.470588%,27.058824%);stroke-opacity:1;stroke-miterlimit:10;" d="M 92.820313 122.210938 L 103.71875 107.050781 L 106.898438 100.148438 "/>
<path style="fill:none;stroke-width:9;stroke-linecap:round;stroke-linejoin:round;stroke:rgb(100%,76.470588%,27.058824%);stroke-opacity:1;stroke-miterlimit:10;" d="M 70.097656 141.824219 L 62.253906 149.28125 L 55.511719 156.433594 L 51.378906 159.75 L 47.78125 161.988281 L 46.566406 162.949219 "/>
<path style="fill:none;stroke-width:9;stroke-linecap:round;stroke-linejoin:round;stroke:rgb(100%,76.470588%,27.058824%);stroke-opacity:1;stroke-miterlimit:10;" d="M 167.136719 111.082031 L 164.761719 107.832031 L 161.980469 104.519531 L 158.726563 100.898438 L 155.539063 97.769531 L 151.730469 94.863281 L 147.886719 92.863281 L 144.664063 91.457031 L 141.414063 90.425781 "/>
<path style="fill:none;stroke-width:9;stroke-linecap:round;stroke-linejoin:round;stroke:rgb(100%,76.470588%,27.058824%);stroke-opacity:1;stroke-miterlimit:10;" d="M 195.789063 153.457031 L 188.488281 150.886719 L 183.105469 144.300781 L 180.574219 139.332031 L 177.917969 133.707031 L 176.167969 129.148438 L 175.355469 126.957031 "/>
<path style="fill:none;stroke-width:9;stroke-linecap:round;stroke-linejoin:round;stroke:rgb(100%,76.470588%,27.058824%);stroke-opacity:1;stroke-miterlimit:10;" d="M 44.539063 34.59375 L 55.769531 68.980469 "/>
<path style="fill:none;stroke-width:9;stroke-linecap:round;stroke-linejoin:round;stroke:rgb(100%,76.470588%,27.058824%);stroke-opacity:1;stroke-miterlimit:10;" d="M 173.710938 128.96875 L 175.148438 132.75 L 177.273438 137.683594 L 179.554688 142.625 L 181.304688 145.4375 L 183.210938 148.15625 L 185.148438 150.464844 L 187.679688 152.652344 L 189.792969 153.769531 L 195.679688 155.78125 "/>
<path style="fill:none;stroke-width:9;stroke-linecap:round;stroke-linejoin:round;stroke:rgb(100%,76.470588%,27.058824%);stroke-opacity:1;stroke-miterlimit:10;" d="M 7.253906 180.167969 L -5.839844 190.621094 L -9.554688 193.863281 L -11.625 195.664063 L -12 196.101563 "/>
<path style="fill:none;stroke-width:9;stroke-linecap:round;stroke-linejoin:round;stroke:rgb(100%,76.470588%,27.058824%);stroke-opacity:1;stroke-miterlimit:10;" d="M 207.636719 159.816406 L 213.875 161.816406 L 222.816406 165.460938 L 231.84375 168.890625 L 242.503906 175.007813 L 248.664063 178.6875 L 254.070313 182.550781 L 260.089844 187.183594 "/>
<path style="fill:none;stroke-width:9;stroke-linecap:round;stroke-linejoin:round;stroke:rgb(100%,76.470588%,27.058824%);stroke-opacity:1;stroke-miterlimit:10;" d="M 261.429688 185.664063 L 255.523438 180.457031 L 247.617188 175.238281 L 241.03125 171.414063 L 232.726563 167.058594 L 219.714844 161.523438 L 217.265625 160.757813 L 214.570313 159.910156 L 208.332031 157.980469 "/>
<path style="fill:none;stroke-width:9;stroke-linecap:round;stroke-linejoin:round;stroke:rgb(100%,76.470588%,27.058824%);stroke-opacity:1;stroke-miterlimit:10;" d="M -12 201.039063 L -7.089844 195.949219 L -1.058594 190.480469 L 9.003906 182.761719 L 14.722656 177.980469 L 18.972656 174.699219 L 21.316406 173.574219 L 23.972656 172.605469 L 26.441406 172.167969 L 28.878906 171.980469 L 34.628906 170.015625 "/>
<path style="fill:none;stroke-width:9;stroke-linecap:round;stroke-linejoin:round;stroke:rgb(100%,76.470588%,27.058824%);stroke-opacity:1;stroke-miterlimit:10;" d="M 128.542969 89.707031 L 133.351563 90.742188 L 137.367188 91.28125 L 141.679688 92.375 L 145.773438 93.8125 L 149.148438 95.375 L 151.023438 96.621094 L 152.867188 98.28125 L 154.585938 100.78125 L 156.082031 103.5625 L 157.617188 106.84375 L 160.292969 112.367188 L 163.066406 115.25 L 165.648438 117.589844 L 168.273438 120.277344 L 170.519531 123 L 171.992188 125.21875 L 173.710938 128.96875 "/>
<path style="fill:none;stroke-width:9;stroke-linecap:round;stroke-linejoin:round;stroke:rgb(100%,76.470588%,27.058824%);stroke-opacity:1;stroke-miterlimit:10;" d="M -12 251.671875 L -2.320313 267 "/>
<path style="fill:none;stroke-width:9;stroke-linecap:round;stroke-linejoin:round;stroke:rgb(100%,76.470588%,27.058824%);stroke-opacity:1;stroke-miterlimit:10;" d="M 1.574219 267 L -1.246094 262.542969 L -8.496094 250.917969 L -12 245.277344 "/>
<path style="fill:none;stroke-width:9;stroke-linecap:round;stroke-linejoin:round;stroke:rgb(100%,76.470588%,27.058824%);stroke-opacity:1;stroke-miterlimit:10;" d="M 29.734375 -12 L 37.566406 15.027344 L 38.933594 19.777344 "/>
<path style="fill:none;stroke-width:9;stroke-linecap:round;stroke-linejoin:round;stroke:rgb(100%,76.470588%,27.058824%);stroke-opacity:1;stroke-miterlimit:10;" d="M 55.769531 68.980469 L 52.570313 56.179688 L 51.371094 49.578125 L 50.769531 41.980469 L 50.683594 30.863281 L 50.769531 22.980469 L 49.769531 14.578125 L 48.371094 6.78125 L 46.167969 -1.621094 L 43.769531 -10.019531 L 43.140625 -12 "/>
<path style="fill:none;stroke-width:9;stroke-linecap:round;stroke-linejoin:round;stroke:rgb(99.215686%,57.254902%,22.745098%);stroke-opacity:1;stroke-miterlimit:10;" d="M 254.339844 187.179688 L 256.019531 205.277344 "/>
<path style="fill:none;stroke-width:9;stroke-linecap:round;stroke-linejoin:round;stroke:rgb(99.215686%,57.254902%,22.745098%);stroke-opacity:1;stroke-miterlimit:10;" d="M 256.019531 205.277344 L 256.820313 220.476563 L 256.78125 245.160156 L 256.21875 257.878906 L 255.519531 267 "/>
<path style="fill:none;stroke-width:9;stroke-linecap:round;stroke-linejoin:round;stroke:rgb(99.215686%,57.254902%,22.745098%);stroke-opacity:1;stroke-miterlimit:10;" d="M 264.632813 267 L 264.089844 256.742188 L 263.09375 242.539063 L 259.089844 204.539063 L 258.027344 189.148438 "/>
<path style="fill:none;stroke-width:9;stroke-linecap:round;stroke-linejoin:round;stroke:rgb(99.215686%,57.254902%,22.745098%);stroke-opacity:1;stroke-miterlimit:10;" d="M 256.800781 178.640625 L 252.492188 135.539063 L 251.691406 118.742188 L 251.492188 108.339844 L 251.292969 97.542969 L 251.691406 84.339844 L 252.292969 70.339844 L 253.089844 56.941406 L 254.289063 43.339844 L 255.890625 29.140625 L 257.691406 15.742188 L 259.894531 1.9375 L 262.492188 -11.859375 L 262.519531 -12 "/>
<path style="fill:none;stroke-width:9;stroke-linecap:round;stroke-linejoin:round;stroke:rgb(99.215686%,57.254902%,22.745098%);stroke-opacity:1;stroke-miterlimit:10;" d="M 258.855469 -12 L 256.78125 1.558594 L 253.582031 23.359375 L 251.179688 43.757813 L 249.78125 61.160156 L 248.78125 81.558594 L 247.671875 101.859375 L 248.78125 120.359375 L 249.78125 135.160156 L 253.3125 175.574219 "/>
<path style="fill:none;stroke-width:5;stroke-linecap:butt;stroke-linejoin:round;stroke:rgb(53.333333%,53.333333%,53.333333%);stroke-opacity:1;stroke-miterlimit:10;" d="M 157.167969 41.929688 L 163.855469 47.898438 "/>
<path style="fill:none;stroke-width:5;stroke-linecap:butt;stroke-linejoin:round;stroke:rgb(53.333333%,53.333333%,53.333333%);stroke-opacity:1;stroke-miterlimit:10;" d="M 18.074219 147.695313 L 21.722656 152.722656 "/>
<path style="fill:none;stroke-width:5;stroke-linecap:butt;stroke-linejoin:round;stroke:rgb(53.333333%,53.333333%,53.333333%);stroke-opacity:1;stroke-miterlimit:10;" d="M 162.601563 49.363281 L 155.886719 43.394531 "/>
<path style="fill:none;stroke-width:8;stroke-linecap:butt;stroke-linejoin:round;stroke:rgb(53.333333%,53.333333%,53.333333%);stroke-opacity:1;stroke-miterlimit:10;" d="M 81.664063 110.195313 L 77.109375 104.015625 "/>
<path style="fill:none;stroke-width:8;stroke-linecap:butt;stroke-linejoin:round;stroke:rgb(53.333333%,53.333333%,53.333333%);stroke-opacity:1;stroke-miterlimit:10;" d="M -2.9375 163.152344 L 0.164063 168.175781 "/>
<path style="fill:none;stroke-width:8;stroke-linecap:butt;stroke-linejoin:round;stroke:rgb(53.333333%,53.333333%,53.333333%);stroke-opacity:1;stroke-miterlimit:10;" d="M 190.988281 183.191406 L 172.589844 170.933594 "/>
<path style="fill:none;stroke-width:11;stroke-linecap:butt;stroke-linejoin:round;stroke:rgb(53.333333%,53.333333%,53.333333%);stroke-opacity:1;stroke-miterlimit:10;" d="M 60.570313 80.980469 L 64.769531 90.179688 L 65.261719 91.289063 "/>
<path style="fill:none;stroke-width:11;stroke-linecap:butt;stroke-linejoin:round;stroke:rgb(53.333333%,53.333333%,53.333333%);stroke-opacity:1;stroke-miterlimit:10;" d="M 195.679688 155.78125 L 207.636719 159.816406 "/>
<path style="fill:none;stroke-width:11;stroke-linecap:butt;stroke-linejoin:round;stroke:rgb(53.333333%,53.333333%,53.333333%);stroke-opacity:1;stroke-miterlimit:10;" d="M 208.332031 157.980469 L 207.316406 157.613281 L 195.789063 153.457031 "/>
<path style="fill:none;stroke-width:11;stroke-linecap:butt;stroke-linejoin:round;stroke:rgb(53.333333%,53.333333%,53.333333%);stroke-opacity:1;stroke-miterlimit:10;" d="M 65.261719 91.289063 L 68.085938 97.65625 L 72.570313 107.78125 L 77.015625 118.835938 "/>
<path style="fill:none;stroke-width:11;stroke-linecap:butt;stroke-linejoin:round;stroke:rgb(53.333333%,53.333333%,53.333333%);stroke-opacity:1;stroke-miterlimit:10;" d="M 253.3125 175.574219 L 254.339844 187.179688 "/>
<path style="fill:none;stroke-width:3;stroke-linecap:round;stroke-linejoin:round;stroke:rgb(98.039216%,98.039216%,96.078431%);stroke-opacity:1;stroke-miterlimit:10;" d="M 157.167969 41.929688 L 163.855469 47.898438 "/>
<path style="fill:none;stroke-width:3;stroke-linecap:round;stroke-linejoin:round;stroke:rgb(98.039216%,98.039216%,96.078431%);stroke-opacity:1;stroke-miterlimit:10;" d="M 18.074219 147.695313 L 21.722656 152.722656 "/>
<path style="fill:none;stroke-width:3;stroke-linecap:round;stroke-linejoin:round;stroke:rgb(98.039216%,98.039216%,96.078431%);stroke-opacity:1;stroke-miterlimit:10;" d="M 162.601563 49.363281 L 155.886719 43.394531 "/>
<path style="fill:none;stroke-width:6;stroke-linecap:round;stroke-linejoin:round;stroke:rgb(100%,100%,100%);stroke-opacity:1;stroke-miterlimit:10;" d="M 81.664063 110.195313 L 77.109375 104.015625 "/>
<path style="fill:none;stroke-width:6;stroke-linecap:round;stroke-linejoin:round;stroke:rgb(100%,100%,100%);stroke-opacity:1;stroke-miterlimit:10;" d="M -2.9375 163.152344 L 0.164063 168.175781 "/>
<path style="fill:none;stroke-width:6;stroke-linecap:round;stroke-linejoin:round;stroke:rgb(100%,100%,100%);stroke-opacity:1;stroke-miterlimit:10;" d="M 190.988281 183.191406 L 172.589844 170.933594 "/>
<path style="fill:none;stroke-width:9;stroke-linecap:round;stroke-linejoin:round;stroke:rgb(100%,76.470588%,27.058824%);stroke-opacity:1;stroke-miterlimit:10;" d="M 60.570313 80.980469 L 64.769531 90.179688 L 65.261719 91.289063 "/>
<path style="fill:none;stroke-width:9;stroke-linecap:round;stroke-linejoin:round;stroke:rgb(100%,76.470588%,27.058824%);stroke-opacity:1;stroke-miterlimit:10;" d="M 195.679688 155.78125 L 207.636719 159.816406 "/>
<path style="fill:none;stroke-width:9;stroke-linecap:round;stroke-linejoin:round;stroke:rgb(100%,76.470588%,27.058824%);stroke-opacity:1;stroke-miterlimit:10;" d="M 208.332031 157.980469 L 207.316406 157.613281 L 195.789063 153.457031 "/>
<path style="fill:none;stroke-width:9;stroke-linecap:round;stroke-linejoin:round;stroke:rgb(100%,76.470588%,27.058824%);stroke-opacity:1;stroke-miterlimit:10;" d="M 65.261719 91.289063 L 68.085938 97.65625 L 72.570313 107.78125 L 77.015625 118.835938 "/>
<path style="fill:none;stroke-width:9;stroke-linecap:round;stroke-linejoin:round;stroke:rgb(99.215686%,57.254902%,22.745098%);stroke-opacity:1;stroke-miterlimit:10;" d="M 253.3125 175.574219 L 254.339844 187.179688 "/>
<path style=" stroke:none;fill-rule:evenodd;fill:rgb(33.333333%,33.333333%,33.333333%);fill-opacity:1;" d="M 54.582031 19.828125 L 54.691406 22.421875 L 50.066406 24.390625 L 54.816406 26.015625 L 54.910156 28.59375 L 46.160156 28.921875 L 46.097656 27 L 52.503906 26.765625 L 47.707031 25.125 L 47.660156 23.84375 L 52.316406 21.859375 L 45.910156 22.09375 L 45.832031 20.15625 Z M 54.949219 30.683594 L 54.964844 34.058594 C 54.972656 35.058594 54.730469 35.828125 54.230469 36.371094 C 53.738281 36.910156 53.035156 37.183594 52.121094 37.183594 C 51.203125 37.191406 50.496094 36.925781 49.996094 36.386719 C 49.503906 35.855469 49.253906 35.089844 49.246094 34.089844 L 49.246094 32.761719 L 46.214844 32.777344 L 46.199219 30.730469 Z M 53.324219 32.746094 L 50.886719 32.761719 L 50.886719 33.871094 C 50.886719 34.265625 50.996094 34.566406 51.214844 34.777344 C 51.433594 34.984375 51.734375 35.089844 52.121094 35.089844 C 52.515625 35.089844 52.8125 34.980469 53.011719 34.761719 C 53.21875 34.550781 53.324219 34.25 53.324219 33.855469 Z M 53.324219 32.746094 "/>
</g>
</svg>

