<?xml version="1.0" encoding="UTF-8"?>
<svg xmlns="http://www.w3.org/2000/svg" xmlns:xlink="http://www.w3.org/1999/xlink" width="256pt" height="256pt" viewBox="0 0 256 256" version="1.1">
<g id="surface2">
<rect x="0" y="0" width="256" height="256" style="fill:rgb(60%,70.196078%,80%);fill-opacity:1;stroke:none;"/>
<path style=" stroke:none;fill-rule:evenodd;fill:rgb(94.901961%,93.72549%,91.372549%);fill-opacity:1;" d="M 259 -4 L 259 259 L 259 108.332031 L 254.894531 109.308594 L 252.496094 107.90625 L 243.296875 106.710938 L 226.5 94.105469 L 182.300781 49.507813 L 178.5 47.910156 L 160.296875 34.308594 L 152.5 26.308594 L 151.699219 20.710938 L 159.5 8.304688 L 175.910156 -4 L 151.898438 -4 L 147.296875 -0.6875 L 146.296875 -1.496094 L 137.898438 9.902344 L 137.300781 23.902344 L 139.898438 35.304688 L 150.300781 45.308594 L 150.496094 47.113281 L 167.695313 58.308594 L 167.898438 60.109375 L 171.703125 60.703125 L 171.296875 61.511719 L 179.296875 66.707031 L 182.496094 72.707031 L 187.695313 75.707031 L 203.097656 93.308594 L 205.5 98.308594 L 208.699219 98.710938 L 224.5 114.707031 L 243.898438 126.105469 L 259 130.96875 L 259 234.484375 L 252.296875 252.910156 L 251.90625 259 L 259 259 L -4 259 L -4 -4 Z M 259 -4 "/>
</g>
</svg>

