<?xml version="1.0" encoding="UTF-8"?>
<svg xmlns="http://www.w3.org/2000/svg" xmlns:xlink="http://www.w3.org/1999/xlink" width="256pt" height="256pt" viewBox="0 0 256 256" version="1.1">
<g id="surface2">
<rect x="0" y="0" width="256" height="256" style="fill:rgb(60%,70.196078%,80%);fill-opacity:1;stroke:none;"/>
<path style=" stroke:none;fill-rule:evenodd;fill:rgb(94.901961%,93.72549%,91.372549%);fill-opacity:1;" d="M 259 -4 L 3.457031 -4 L 2.742188 -2.269531 L -2.046875 10.226563 L -4 14.34375 L -4 259 L -4 -4 Z M 259 -4 "/>
<path style=" stroke:none;fill-rule:evenodd;fill:rgb(79.607843%,84.705882%,76.470588%);fill-opacity:1;" d="M -4 260 L -4 15.871094 L -3.964844 15.832031 L 3.886719 -4 L 260 -4 L -4 -4 Z M -4 260 "/>
<path style=" stroke:none;fill-rule:evenodd;fill:rgb(70.980392%,82.352941%,61.176471%);fill-opacity:1;" d="M -4 260 L -4 15.871094 L -3.964844 15.832031 L 3.886719 -4 L 260 -4 L -4 -4 Z M -4 260 "/>
<path style=" stroke:none;fill-rule:evenodd;fill:rgb(60%,70.196078%,80%);fill-opacity:1;" d="M -4 259 L 259 259 L 259 -4 L 3.457031 -4 L 2.742188 -2.269531 L -2.046875 10.226563 L -4 14.34375 Z M -4 259 "/>
<path style="fill:none;stroke-width:1;stroke-linecap:round;stroke-linejoin:round;stroke:rgb(70.196078%,77.647059%,83.137255%);stroke-opacity:1;stroke-miterlimit:10;" d="M -4 259 L 259 259 L 259 -4 L 3.457031 -4 L 2.742188 -2.269531 L -2.046875 10.226563 L -4 14.34375 L -4 259 "/>
<path style="fill:none;stroke-width:6;stroke-linecap:round;stroke-linejoin:round;stroke:rgb(60%,70.196078%,80%);stroke-opacity:1;stroke-miterlimit:10;" d="M 236.84375 -7 L 118.210938 262 "/>
<path style="fill:none;stroke-width:3;stroke-linecap:round;stroke-linejoin:round;stroke:rgb(100%,100%,100%);stroke-opacity:1;stroke-miterlimit:10;" d="M 157.949219 160.40625 L 158.402344 159.375 L 161.949219 160.953125 L 163.652344 157.09375 L 160.105469 155.515625 L 160.574219 154.46875 L 169.246094 158.296875 L 168.777344 159.34375 L 164.652344 157.515625 L 162.949219 161.375 L 167.074219 163.203125 L 166.621094 164.234375 Z M 167.53125 155.183594 L 163.609375 153.449219 L 164.03125 152.496094 L 167.921875 154.230469 C 168.539063 154.492188 169.046875 154.585938 169.453125 154.511719 C 169.859375 154.441406 170.15625 154.191406 170.34375 153.761719 C 170.570313 153.230469 170.566406 152.738281 170.328125 152.277344 C 170.097656 151.820313 169.667969 151.449219 169.03125 151.167969 L 165.34375 149.527344 L 165.765625 148.558594 L 172.265625 151.433594 L 171.84375 152.402344 L 170.84375 151.964844 C 171.132813 152.371094 171.304688 152.773438 171.359375 153.167969 C 171.421875 153.554688 171.363281 153.957031 171.1875 154.371094 C 170.882813 155.039063 170.421875 155.441406 169.796875 155.574219 C 169.183594 155.710938 168.429688 155.582031 167.53125 155.183594 Z M 164.515625 150.980469 Z M 169.324219 143.160156 L 165.808594 141.613281 L 166.230469 140.660156 L 175.261719 144.644531 L 174.839844 145.597656 L 173.871094 145.175781 C 174.160156 145.542969 174.332031 145.921875 174.386719 146.316406 C 174.4375 146.714844 174.371094 147.125 174.183594 147.550781 C 173.871094 148.261719 173.300781 148.699219 172.480469 148.863281 C 171.660156 149.03125 170.738281 148.886719 169.714844 148.425781 C 168.695313 147.980469 167.972656 147.394531 167.542969 146.675781 C 167.105469 145.957031 167.042969 145.246094 167.355469 144.535156 C 167.542969 144.109375 167.800781 143.78125 168.121094 143.550781 C 168.445313 143.324219 168.847656 143.191406 169.324219 143.160156 Z M 170.152344 147.425781 C 170.933594 147.769531 171.613281 147.902344 172.183594 147.816406 C 172.753906 147.722656 173.15625 147.421875 173.386719 146.910156 C 173.613281 146.402344 173.566406 145.902344 173.246094 145.410156 C 172.921875 144.921875 172.371094 144.503906 171.589844 144.160156 C 170.800781 143.816406 170.121094 143.691406 169.558594 143.785156 C 168.988281 143.878906 168.585938 144.183594 168.355469 144.691406 C 168.128906 145.203125 168.175781 145.703125 168.496094 146.191406 C 168.808594 146.671875 169.363281 147.082031 170.152344 147.425781 Z M 171.472656 136.132813 L 172.488281 136.570313 C 172.207031 136.789063 171.96875 137.03125 171.769531 137.289063 C 171.5625 137.539063 171.386719 137.820313 171.238281 138.132813 C 171.03125 138.613281 170.957031 139.007813 171.019531 139.320313 C 171.074219 139.632813 171.261719 139.863281 171.582031 140.007813 C 171.832031 140.113281 172.066406 140.109375 172.285156 139.992188 C 172.503906 139.878906 172.792969 139.597656 173.144531 139.148438 L 173.363281 138.867188 C 173.832031 138.253906 174.277344 137.867188 174.691406 137.710938 C 175.109375 137.554688 175.582031 137.59375 176.113281 137.820313 C 176.714844 138.09375 177.101563 138.519531 177.269531 139.101563 C 177.433594 139.6875 177.351563 140.359375 177.019531 141.117188 C 176.882813 141.421875 176.707031 141.726563 176.488281 142.039063 C 176.269531 142.351563 176.007813 142.660156 175.707031 142.960938 L 174.613281 142.476563 C 174.96875 142.226563 175.277344 141.953125 175.535156 141.648438 C 175.785156 141.347656 175.980469 141.023438 176.128906 140.679688 C 176.324219 140.234375 176.394531 139.851563 176.332031 139.539063 C 176.269531 139.21875 176.082031 138.988281 175.769531 138.851563 C 175.488281 138.71875 175.234375 138.707031 175.003906 138.820313 C 174.765625 138.925781 174.441406 139.242188 174.035156 139.773438 L 173.785156 140.070313 C 173.390625 140.601563 172.988281 140.941406 172.582031 141.085938 C 172.175781 141.222656 171.71875 141.179688 171.207031 140.960938 C 170.605469 140.691406 170.222656 140.285156 170.066406 139.742188 C 169.910156 139.203125 169.988281 138.570313 170.300781 137.851563 C 170.457031 137.5 170.636719 137.179688 170.832031 136.898438 C 171.03125 136.609375 171.246094 136.351563 171.472656 136.132813 Z M 173.824219 132.261719 C 173.605469 132.785156 173.652344 133.292969 173.964844 133.792969 C 174.277344 134.292969 174.824219 134.714844 175.605469 135.058594 C 176.386719 135.402344 177.070313 135.523438 177.652344 135.417969 C 178.222656 135.316406 178.621094 135.003906 178.839844 134.480469 C 179.066406 133.972656 179.027344 133.464844 178.714844 132.964844 C 178.402344 132.464844 177.863281 132.042969 177.089844 131.699219 C 176.320313 131.367188 175.644531 131.253906 175.058594 131.355469 C 174.464844 131.449219 174.054688 131.753906 173.824219 132.261719 Z M 172.933594 131.871094 C 173.308594 131.039063 173.902344 130.519531 174.714844 130.308594 C 175.527344 130.089844 176.464844 130.214844 177.527344 130.683594 C 178.597656 131.164063 179.332031 131.777344 179.730469 132.527344 C 180.125 133.269531 180.136719 134.054688 179.761719 134.886719 C 179.394531 135.730469 178.808594 136.257813 177.996094 136.464844 C 177.183594 136.675781 176.242188 136.539063 175.167969 136.058594 C 174.105469 135.589844 173.378906 134.988281 172.980469 134.246094 C 172.585938 133.507813 172.570313 132.714844 172.933594 131.871094 Z M 179.695313 123.933594 L 183.632813 125.667969 L 183.210938 126.621094 L 179.320313 124.902344 C 178.707031 124.632813 178.195313 124.539063 177.789063 124.621094 C 177.382813 124.707031 177.085938 124.964844 176.898438 125.402344 C 176.671875 125.914063 176.675781 126.402344 176.914063 126.871094 C 177.15625 127.332031 177.59375 127.699219 178.226563 127.980469 L 181.898438 129.605469 L 181.460938 130.574219 L 174.960938 127.699219 L 175.398438 126.730469 L 176.414063 127.183594 C 176.125 126.789063 175.953125 126.394531 175.898438 125.996094 C 175.835938 125.589844 175.894531 125.183594 176.070313 124.777344 C 176.363281 124.113281 176.816406 123.707031 177.429688 123.558594 C 178.046875 123.414063 178.800781 123.539063 179.695313 123.933594 Z M 183.566406 114.800781 C 183.753906 114.613281 184.035156 114.472656 184.410156 114.378906 C 184.777344 114.285156 185.25 114.238281 185.832031 114.238281 L 188.675781 114.207031 L 188.175781 115.363281 L 185.503906 115.378906 C 184.808594 115.359375 184.316406 115.433594 184.035156 115.597656 C 183.746094 115.765625 183.503906 116.058594 183.316406 116.472656 L 182.800781 117.644531 L 186.457031 119.253906 L 186.003906 120.285156 L 177.332031 116.457031 L 178.378906 114.082031 C 178.777344 113.1875 179.277344 112.613281 179.878906 112.363281 C 180.484375 112.105469 181.207031 112.160156 182.050781 112.535156 C 182.59375 112.777344 182.996094 113.089844 183.253906 113.472656 C 183.515625 113.859375 183.621094 114.300781 183.566406 114.800781 Z M 178.753906 115.863281 L 181.832031 117.207031 L 182.425781 115.863281 C 182.65625 115.355469 182.691406 114.917969 182.535156 114.550781 C 182.378906 114.175781 182.050781 113.878906 181.550781 113.660156 C 181.042969 113.433594 180.605469 113.390625 180.238281 113.535156 C 179.875 113.683594 179.578125 114.011719 179.347656 114.519531 Z M 182.765625 110.023438 L 183.1875 109.070313 L 189.6875 111.945313 L 189.265625 112.898438 Z M 180.234375 108.914063 L 180.65625 107.960938 L 182.015625 108.554688 L 181.59375 109.507813 Z M 183.765625 107.753906 L 184.21875 106.738281 L 190.46875 107.332031 L 185.828125 103.082031 L 186.28125 102.050781 L 191.8125 107.128906 L 191.234375 108.425781 Z M 192.058594 97.042969 L 192.574219 97.261719 L 190.621094 101.683594 C 191.382813 101.976563 192.035156 102.027344 192.574219 101.839844 C 193.105469 101.644531 193.511719 101.226563 193.792969 100.589844 C 193.957031 100.214844 194.066406 99.835938 194.121094 99.449219 C 194.171875 99.066406 194.171875 98.652344 194.121094 98.214844 L 195.136719 98.667969 C 195.15625 99.085938 195.125 99.496094 195.042969 99.902344 C 194.96875 100.300781 194.847656 100.683594 194.683594 101.058594 C 194.277344 101.988281 193.652344 102.589844 192.808594 102.871094 C 191.964844 103.152344 191.027344 103.066406 189.996094 102.605469 C 188.925781 102.136719 188.195313 101.507813 187.808594 100.714844 C 187.414063 99.925781 187.410156 99.089844 187.792969 98.214844 C 188.136719 97.425781 188.695313 96.925781 189.464844 96.714844 C 190.226563 96.507813 191.089844 96.617188 192.058594 97.042969 Z M 191.308594 97.871094 C 190.726563 97.613281 190.195313 97.550781 189.714844 97.683594 C 189.238281 97.808594 188.894531 98.113281 188.683594 98.589844 C 188.445313 99.132813 188.425781 99.636719 188.621094 100.105469 C 188.820313 100.574219 189.214844 100.972656 189.808594 101.292969 Z M 192.261719 91.1875 C 192.148438 91.261719 192.050781 91.355469 191.964844 91.46875 C 191.871094 91.585938 191.789063 91.71875 191.714844 91.875 C 191.476563 92.417969 191.492188 92.921875 191.761719 93.390625 C 192.023438 93.851563 192.519531 94.242188 193.246094 94.5625 L 196.683594 96.078125 L 196.246094 97.046875 L 189.746094 94.171875 L 190.183594 93.203125 L 191.199219 93.65625 C 190.878906 93.273438 190.695313 92.875 190.652344 92.46875 C 190.613281 92.0625 190.691406 91.632813 190.886719 91.171875 C 190.917969 91.109375 190.957031 91.042969 190.996094 90.96875 C 191.039063 90.886719 191.089844 90.796875 191.152344 90.703125 Z M 192.261719 91.1875 "/>
<path style=" stroke:none;fill-rule:evenodd;fill:rgb(41.960784%,58.039216%,69.019608%);fill-opacity:1;" d="M 157.949219 160.40625 L 158.402344 159.375 L 161.949219 160.953125 L 163.652344 157.09375 L 160.105469 155.515625 L 160.574219 154.46875 L 169.246094 158.296875 L 168.777344 159.34375 L 164.652344 157.515625 L 162.949219 161.375 L 167.074219 163.203125 L 166.621094 164.234375 Z M 167.53125 155.183594 L 163.609375 153.449219 L 164.03125 152.496094 L 167.921875 154.230469 C 168.539063 154.492188 169.046875 154.585938 169.453125 154.511719 C 169.859375 154.441406 170.15625 154.191406 170.34375 153.761719 C 170.570313 153.230469 170.566406 152.738281 170.328125 152.277344 C 170.097656 151.820313 169.667969 151.449219 169.03125 151.167969 L 165.34375 149.527344 L 165.765625 148.558594 L 172.265625 151.433594 L 171.84375 152.402344 L 170.84375 151.964844 C 171.132813 152.371094 171.304688 152.773438 171.359375 153.167969 C 171.421875 153.554688 171.363281 153.957031 171.1875 154.371094 C 170.882813 155.039063 170.421875 155.441406 169.796875 155.574219 C 169.183594 155.710938 168.429688 155.582031 167.53125 155.183594 Z M 164.515625 150.980469 Z M 169.324219 143.160156 L 165.808594 141.613281 L 166.230469 140.660156 L 175.261719 144.644531 L 174.839844 145.597656 L 173.871094 145.175781 C 174.160156 145.542969 174.332031 145.921875 174.386719 146.316406 C 174.4375 146.714844 174.371094 147.125 174.183594 147.550781 C 173.871094 148.261719 173.300781 148.699219 172.480469 148.863281 C 171.660156 149.03125 170.738281 148.886719 169.714844 148.425781 C 168.695313 147.980469 167.972656 147.394531 167.542969 146.675781 C 167.105469 145.957031 167.042969 145.246094 167.355469 144.535156 C 167.542969 144.109375 167.800781 143.78125 168.121094 143.550781 C 168.445313 143.324219 168.847656 143.191406 169.324219 143.160156 Z M 170.152344 147.425781 C 170.933594 147.769531 171.613281 147.902344 172.183594 147.816406 C 172.753906 147.722656 173.15625 147.421875 173.386719 146.910156 C 173.613281 146.402344 173.566406 145.902344 173.246094 145.410156 C 172.921875 144.921875 172.371094 144.503906 171.589844 144.160156 C 170.800781 143.816406 170.121094 143.691406 169.558594 143.785156 C 168.988281 143.878906 168.585938 144.183594 168.355469 144.691406 C 168.128906 145.203125 168.175781 145.703125 168.496094 146.191406 C 168.808594 146.671875 169.363281 147.082031 170.152344 147.425781 Z M 171.472656 136.132813 L 172.488281 136.570313 C 172.207031 136.789063 171.96875 137.03125 171.769531 137.289063 C 171.5625 137.539063 171.386719 137.820313 171.238281 138.132813 C 171.03125 138.613281 170.957031 139.007813 171.019531 139.320313 C 171.074219 139.632813 171.261719 139.863281 171.582031 140.007813 C 171.832031 140.113281 172.066406 140.109375 172.285156 139.992188 C 172.503906 139.878906 172.792969 139.597656 173.144531 139.148438 L 173.363281 138.867188 C 173.832031 138.253906 174.277344 137.867188 174.691406 137.710938 C 175.109375 137.554688 175.582031 137.59375 176.113281 137.820313 C 176.714844 138.09375 177.101563 138.519531 177.269531 139.101563 C 177.433594 139.6875 177.351563 140.359375 177.019531 141.117188 C 176.882813 141.421875 176.707031 141.726563 176.488281 142.039063 C 176.269531 142.351563 176.007813 142.660156 175.707031 142.960938 L 174.613281 142.476563 C 174.96875 142.226563 175.277344 141.953125 175.535156 141.648438 C 175.785156 141.347656 175.980469 141.023438 176.128906 140.679688 C 176.324219 140.234375 176.394531 139.851563 176.332031 139.539063 C 176.269531 139.21875 176.082031 138.988281 175.769531 138.851563 C 175.488281 138.71875 175.234375 138.707031 175.003906 138.820313 C 174.765625 138.925781 174.441406 139.242188 174.035156 139.773438 L 173.785156 140.070313 C 173.390625 140.601563 172.988281 140.941406 172.582031 141.085938 C 172.175781 141.222656 171.71875 141.179688 171.207031 140.960938 C 170.605469 140.691406 170.222656 140.285156 170.066406 139.742188 C 169.910156 139.203125 169.988281 138.570313 170.300781 137.851563 C 170.457031 137.5 170.636719 137.179688 170.832031 136.898438 C 171.03125 136.609375 171.246094 136.351563 171.472656 136.132813 Z M 173.824219 132.261719 C 173.605469 132.785156 173.652344 133.292969 173.964844 133.792969 C 174.277344 134.292969 174.824219 134.714844 175.605469 135.058594 C 176.386719 135.402344 177.070313 135.523438 177.652344 135.417969 C 178.222656 135.316406 178.621094 135.003906 178.839844 134.480469 C 179.066406 133.972656 179.027344 133.464844 178.714844 132.964844 C 178.402344 132.464844 177.863281 132.042969 177.089844 131.699219 C 176.320313 131.367188 175.644531 131.253906 175.058594 131.355469 C 174.464844 131.449219 174.054688 131.753906 173.824219 132.261719 Z M 172.933594 131.871094 C 173.308594 131.039063 173.902344 130.519531 174.714844 130.308594 C 175.527344 130.089844 176.464844 130.214844 177.527344 130.683594 C 178.597656 131.164063 179.332031 131.777344 179.730469 132.527344 C 180.125 133.269531 180.136719 134.054688 179.761719 134.886719 C 179.394531 135.730469 178.808594 136.257813 177.996094 136.464844 C 177.183594 136.675781 176.242188 136.539063 175.167969 136.058594 C 174.105469 135.589844 173.378906 134.988281 172.980469 134.246094 C 172.585938 133.507813 172.570313 132.714844 172.933594 131.871094 Z M 179.695313 123.933594 L 183.632813 125.667969 L 183.210938 126.621094 L 179.320313 124.902344 C 178.707031 124.632813 178.195313 124.539063 177.789063 124.621094 C 177.382813 124.707031 177.085938 124.964844 176.898438 125.402344 C 176.671875 125.914063 176.675781 126.402344 176.914063 126.871094 C 177.15625 127.332031 177.59375 127.699219 178.226563 127.980469 L 181.898438 129.605469 L 181.460938 130.574219 L 174.960938 127.699219 L 175.398438 126.730469 L 176.414063 127.183594 C 176.125 126.789063 175.953125 126.394531 175.898438 125.996094 C 175.835938 125.589844 175.894531 125.183594 176.070313 124.777344 C 176.363281 124.113281 176.816406 123.707031 177.429688 123.558594 C 178.046875 123.414063 178.800781 123.539063 179.695313 123.933594 Z M 183.566406 114.800781 C 183.753906 114.613281 184.035156 114.472656 184.410156 114.378906 C 184.777344 114.285156 185.25 114.238281 185.832031 114.238281 L 188.675781 114.207031 L 188.175781 115.363281 L 185.503906 115.378906 C 184.808594 115.359375 184.316406 115.433594 184.035156 115.597656 C 183.746094 115.765625 183.503906 116.058594 183.316406 116.472656 L 182.800781 117.644531 L 186.457031 119.253906 L 186.003906 120.285156 L 177.332031 116.457031 L 178.378906 114.082031 C 178.777344 113.1875 179.277344 112.613281 179.878906 112.363281 C 180.484375 112.105469 181.207031 112.160156 182.050781 112.535156 C 182.59375 112.777344 182.996094 113.089844 183.253906 113.472656 C 183.515625 113.859375 183.621094 114.300781 183.566406 114.800781 Z M 178.753906 115.863281 L 181.832031 117.207031 L 182.425781 115.863281 C 182.65625 115.355469 182.691406 114.917969 182.535156 114.550781 C 182.378906 114.175781 182.050781 113.878906 181.550781 113.660156 C 181.042969 113.433594 180.605469 113.390625 180.238281 113.535156 C 179.875 113.683594 179.578125 114.011719 179.347656 114.519531 Z M 182.765625 110.023438 L 183.1875 109.070313 L 189.6875 111.945313 L 189.265625 112.898438 Z M 180.234375 108.914063 L 180.65625 107.960938 L 182.015625 108.554688 L 181.59375 109.507813 Z M 183.765625 107.753906 L 184.21875 106.738281 L 190.46875 107.332031 L 185.828125 103.082031 L 186.28125 102.050781 L 191.8125 107.128906 L 191.234375 108.425781 Z M 192.058594 97.042969 L 192.574219 97.261719 L 190.621094 101.683594 C 191.382813 101.976563 192.035156 102.027344 192.574219 101.839844 C 193.105469 101.644531 193.511719 101.226563 193.792969 100.589844 C 193.957031 100.214844 194.066406 99.835938 194.121094 99.449219 C 194.171875 99.066406 194.171875 98.652344 194.121094 98.214844 L 195.136719 98.667969 C 195.15625 99.085938 195.125 99.496094 195.042969 99.902344 C 194.96875 100.300781 194.847656 100.683594 194.683594 101.058594 C 194.277344 101.988281 193.652344 102.589844 192.808594 102.871094 C 191.964844 103.152344 191.027344 103.066406 189.996094 102.605469 C 188.925781 102.136719 188.195313 101.507813 187.808594 100.714844 C 187.414063 99.925781 187.410156 99.089844 187.792969 98.214844 C 188.136719 97.425781 188.695313 96.925781 189.464844 96.714844 C 190.226563 96.507813 191.089844 96.617188 192.058594 97.042969 Z M 191.308594 97.871094 C 190.726563 97.613281 190.195313 97.550781 189.714844 97.683594 C 189.238281 97.808594 188.894531 98.113281 188.683594 98.589844 C 188.445313 99.132813 188.425781 99.636719 188.621094 100.105469 C 188.820313 100.574219 189.214844 100.972656 189.808594 101.292969 Z M 192.261719 91.1875 C 192.148438 91.261719 192.050781 91.355469 191.964844 91.46875 C 191.871094 91.585938 191.789063 91.71875 191.714844 91.875 C 191.476563 92.417969 191.492188 92.921875 191.761719 93.390625 C 192.023438 93.851563 192.519531 94.242188 193.246094 94.5625 L 196.683594 96.078125 L 196.246094 97.046875 L 189.746094 94.171875 L 190.183594 93.203125 L 191.199219 93.65625 C 190.878906 93.273438 190.695313 92.875 190.652344 92.46875 C 190.613281 92.0625 190.691406 91.632813 190.886719 91.171875 C 190.917969 91.109375 190.957031 91.042969 190.996094 90.96875 C 191.039063 90.886719 191.089844 90.796875 191.152344 90.703125 Z M 192.261719 91.1875 "/>
</g>
</svg>

