<?xml version="1.0" encoding="UTF-8"?>
<svg xmlns="http://www.w3.org/2000/svg" xmlns:xlink="http://www.w3.org/1999/xlink" width="256pt" height="256pt" viewBox="0 0 256 256" version="1.1">
<g id="surface2">
<rect x="0" y="0" width="256" height="256" style="fill:rgb(94.901961%,93.72549%,91.372549%);fill-opacity:1;stroke:none;"/>
<path style="fill:none;stroke-width:8;stroke-linecap:round;stroke-linejoin:round;stroke:rgb(75.686275%,70.980392%,61.568627%);stroke-opacity:1;stroke-miterlimit:10;" d="M 204.792969 86.949219 L 237.578125 65.683594 L 242.378906 64.296875 L 248.042969 61.207031 L 259.554688 53.835938 "/>
<path style="fill:none;stroke-width:8;stroke-linecap:round;stroke-linejoin:round;stroke:rgb(75.686275%,70.980392%,61.568627%);stroke-opacity:1;stroke-miterlimit:10;" d="M 143.15625 264 L 138.152344 259.101563 L 132.023438 253.839844 L 125.917969 247.570313 L 120.816406 240.261719 L 111.121094 223.941406 L 106.878906 216.285156 L 104.152344 209.828125 L 100.078125 202.359375 L 96 197.066406 L 90.894531 192.152344 L 82.925781 186.199219 L 56.898438 167.671875 L 34.808594 150.5 L -5.175781 120.410156 L -9 118.046875 "/>
<path style="fill:none;stroke-width:8;stroke-linecap:round;stroke-linejoin:round;stroke:rgb(75.686275%,70.980392%,61.568627%);stroke-opacity:1;stroke-miterlimit:10;" d="M 251.429688 264 L 250.929688 262.441406 L 247.714844 253.527344 L 244.640625 243.757813 L 238.859375 228.480469 L 236.4375 218.492188 L 234.410156 207.148438 L 229.984375 179.015625 L 223.390625 143.253906 L 219.171875 121.578125 L 216.492188 111.933594 L 213.835938 104.53125 L 210.433594 97.851563 L 208.664063 93.851563 L 204.792969 86.949219 L 188.808594 66.878906 L 175.433594 46.429688 L 169.074219 40.789063 L 160.847656 34.269531 L 154.324219 28.597656 L 151.222656 24.816406 L 136.984375 9.375 L 128.0625 -1.621094 L 124.660156 -6.851563 L 123.65625 -9 "/>
<path style="fill:none;stroke-width:6;stroke-linecap:round;stroke-linejoin:round;stroke:rgb(100%,100%,100%);stroke-opacity:1;stroke-miterlimit:10;" d="M 204.792969 86.949219 L 237.578125 65.683594 L 242.378906 64.296875 L 248.042969 61.207031 L 259.554688 53.835938 "/>
<path style="fill:none;stroke-width:6;stroke-linecap:round;stroke-linejoin:round;stroke:rgb(100%,100%,100%);stroke-opacity:1;stroke-miterlimit:10;" d="M 143.15625 264 L 138.152344 259.101563 L 132.023438 253.839844 L 125.917969 247.570313 L 120.816406 240.261719 L 111.121094 223.941406 L 106.878906 216.285156 L 104.152344 209.828125 L 100.078125 202.359375 L 96 197.066406 L 90.894531 192.152344 L 82.925781 186.199219 L 56.898438 167.671875 L 34.808594 150.5 L -5.175781 120.410156 L -9 118.046875 "/>
<path style="fill:none;stroke-width:6;stroke-linecap:round;stroke-linejoin:round;stroke:rgb(100%,99.215686%,54.509804%);stroke-opacity:1;stroke-miterlimit:10;" d="M 251.429688 264 L 250.929688 262.441406 L 247.714844 253.527344 L 244.640625 243.757813 L 238.859375 228.480469 L 236.4375 218.492188 L 234.410156 207.148438 L 229.984375 179.015625 L 223.390625 143.253906 L 219.171875 121.578125 L 216.492188 111.933594 L 213.835938 104.53125 L 210.433594 97.851563 L 208.664063 93.851563 L 204.792969 86.949219 L 188.808594 66.878906 L 175.433594 46.429688 L 169.074219 40.789063 L 160.847656 34.269531 L 154.324219 28.597656 L 151.222656 24.816406 L 136.984375 9.375 L 128.0625 -1.621094 L 124.660156 -6.851563 L 123.65625 -9 "/>
<path style="fill:none;stroke-width:3;stroke-linecap:round;stroke-linejoin:round;stroke:rgb(100%,100%,100%);stroke-opacity:1;stroke-miterlimit:10;" d="M 200.554688 75.609375 L 199.742188 76.265625 C 199.65625 75.859375 199.554688 75.5 199.429688 75.1875 C 199.304688 74.867188 199.140625 74.585938 198.945313 74.34375 C 198.621094 73.929688 198.277344 73.679688 197.914063 73.59375 C 197.546875 73.511719 197.203125 73.601563 196.882813 73.859375 C 196.601563 74.078125 196.449219 74.320313 196.429688 74.578125 C 196.40625 74.839844 196.515625 75.21875 196.757813 75.71875 L 197.023438 76.25 C 197.355469 76.914063 197.480469 77.503906 197.398438 78.015625 C 197.3125 78.535156 197.015625 79 196.507813 79.40625 C 195.890625 79.882813 195.28125 80.066406 194.679688 79.953125 C 194.074219 79.835938 193.484375 79.425781 192.914063 78.71875 C 192.703125 78.445313 192.511719 78.132813 192.335938 77.78125 C 192.167969 77.425781 192.023438 77.035156 191.898438 76.609375 L 192.773438 75.90625 C 192.824219 76.375 192.917969 76.796875 193.054688 77.171875 C 193.199219 77.546875 193.382813 77.878906 193.601563 78.171875 C 193.945313 78.597656 194.308594 78.851563 194.695313 78.9375 C 195.078125 79.03125 195.445313 78.9375 195.789063 78.65625 C 196.101563 78.414063 196.277344 78.140625 196.320313 77.828125 C 196.359375 77.515625 196.265625 77.128906 196.039063 76.671875 L 195.773438 76.125 C 195.4375 75.460938 195.304688 74.898438 195.367188 74.4375 C 195.4375 73.96875 195.714844 73.542969 196.195313 73.15625 C 196.746094 72.710938 197.324219 72.53125 197.929688 72.625 C 198.53125 72.71875 199.078125 73.078125 199.570313 73.703125 C 199.789063 73.964844 199.976563 74.257813 200.132813 74.578125 C 200.289063 74.902344 200.429688 75.246094 200.554688 75.609375 Z M 199.59375 81.976563 C 199.144531 81.414063 198.757813 81.085938 198.4375 80.992188 C 198.125 80.890625 197.796875 80.972656 197.453125 81.242188 C 197.179688 81.449219 197.03125 81.699219 197 81.992188 C 196.96875 82.292969 197.0625 82.578125 197.28125 82.851563 C 197.59375 83.246094 197.992188 83.433594 198.484375 83.414063 C 198.972656 83.402344 199.46875 83.199219 199.96875 82.804688 L 200.15625 82.664063 Z M 201.015625 83.117188 L 198.328125 85.257813 L 197.78125 84.554688 L 198.484375 83.992188 C 198.066406 84.0625 197.695313 84.03125 197.375 83.898438 C 197.050781 83.761719 196.753906 83.523438 196.484375 83.179688 C 196.140625 82.75 196 82.304688 196.0625 81.835938 C 196.132813 81.367188 196.398438 80.953125 196.859375 80.585938 C 197.378906 80.171875 197.898438 80.015625 198.421875 80.117188 C 198.941406 80.222656 199.457031 80.59375 199.96875 81.226563 L 200.75 82.195313 L 200.828125 82.132813 C 201.179688 81.839844 201.367188 81.515625 201.390625 81.164063 C 201.421875 80.800781 201.285156 80.425781 200.984375 80.039063 C 200.796875 79.800781 200.570313 79.59375 200.3125 79.414063 C 200.0625 79.238281 199.789063 79.085938 199.5 78.960938 L 200.203125 78.398438 C 200.523438 78.578125 200.804688 78.765625 201.046875 78.960938 C 201.285156 79.160156 201.5 79.375 201.6875 79.601563 C 202.164063 80.207031 202.351563 80.800781 202.25 81.382813 C 202.144531 81.964844 201.734375 82.542969 201.015625 83.117188 Z M 204.898438 88.085938 L 201.960938 90.210938 L 201.429688 89.492188 L 204.335938 87.382813 C 204.804688 87.046875 205.09375 86.714844 205.210938 86.382813 C 205.324219 86.046875 205.261719 85.722656 205.023438 85.398438 C 204.742188 85.015625 204.382813 84.8125 203.945313 84.789063 C 203.507813 84.769531 203.054688 84.925781 202.585938 85.257813 L 199.820313 87.257813 L 199.289063 86.523438 L 204.164063 82.992188 L 204.695313 83.726563 L 203.929688 84.289063 C 204.355469 84.238281 204.71875 84.28125 205.023438 84.414063 C 205.335938 84.539063 205.605469 84.757813 205.835938 85.070313 C 206.199219 85.570313 206.304688 86.074219 206.148438 86.585938 C 205.992188 87.09375 205.574219 87.59375 204.898438 88.085938 Z M 208.84375 91.9375 L 211.671875 90.359375 L 212.109375 91.125 L 204.8125 95.1875 L 204.375 94.421875 L 205.171875 93.984375 C 204.753906 93.992188 204.398438 93.914063 204.109375 93.75 C 203.828125 93.582031 203.585938 93.328125 203.390625 92.984375 C 203.066406 92.410156 203.054688 91.800781 203.359375 91.15625 C 203.671875 90.519531 204.242188 89.976563 205.078125 89.515625 C 205.898438 89.046875 206.660156 88.855469 207.359375 88.9375 C 208.066406 89.011719 208.582031 89.335938 208.90625 89.90625 C 209.101563 90.25 209.191406 90.585938 209.171875 90.921875 C 209.160156 91.253906 209.050781 91.59375 208.84375 91.9375 Z M 205.53125 90.3125 C 204.894531 90.664063 204.460938 91.054688 204.234375 91.484375 C 204.003906 91.921875 204 92.34375 204.21875 92.75 C 204.457031 93.164063 204.820313 93.394531 205.3125 93.4375 C 205.800781 93.476563 206.363281 93.320313 207 92.96875 C 207.632813 92.613281 208.066406 92.210938 208.296875 91.765625 C 208.523438 91.328125 208.519531 90.898438 208.28125 90.484375 C 208.0625 90.078125 207.707031 89.859375 207.21875 89.828125 C 206.726563 89.796875 206.164063 89.960938 205.53125 90.3125 Z M 205.917969 98.824219 C 205.167969 98.894531 204.648438 98.871094 204.355469 98.746094 C 204.054688 98.621094 203.820313 98.375 203.652344 98.011719 L 203.355469 97.355469 L 204.105469 97.011719 L 204.324219 97.496094 C 204.429688 97.714844 204.570313 97.859375 204.746094 97.933594 C 204.914063 98.003906 205.246094 98.015625 205.746094 97.964844 L 206.230469 97.902344 L 210.699219 93.449219 L 211.089844 94.308594 L 207.511719 97.808594 L 212.511719 97.386719 L 212.902344 98.230469 Z M 216.265625 102.71875 L 213.484375 103.890625 L 213.953125 105.015625 C 214.128906 105.429688 214.390625 105.703125 214.734375 105.828125 C 215.078125 105.960938 215.46875 105.9375 215.90625 105.75 C 216.351563 105.5625 216.644531 105.300781 216.78125 104.96875 C 216.925781 104.632813 216.910156 104.257813 216.734375 103.84375 Z M 216.6875 101.46875 L 217.546875 103.5 C 217.867188 104.25 217.921875 104.890625 217.703125 105.421875 C 217.492188 105.953125 217.03125 106.367188 216.3125 106.671875 C 215.582031 106.984375 214.953125 107.03125 214.421875 106.8125 C 213.890625 106.601563 213.460938 106.125 213.140625 105.375 L 212.671875 104.25 L 209.703125 105.5 L 209.3125 104.59375 Z M 219.367188 107.023438 L 219.679688 107.867188 L 211.804688 110.695313 L 211.492188 109.851563 Z M 215.933594 113.746094 C 215.722656 113.058594 215.484375 112.605469 215.214844 112.386719 C 214.953125 112.175781 214.613281 112.136719 214.199219 112.261719 C 213.863281 112.363281 213.628906 112.546875 213.496094 112.808594 C 213.359375 113.066406 213.34375 113.371094 213.449219 113.714844 C 213.59375 114.191406 213.894531 114.515625 214.355469 114.683594 C 214.8125 114.847656 215.34375 114.839844 215.949219 114.652344 L 216.183594 114.589844 Z M 216.839844 115.324219 L 213.542969 116.324219 L 213.277344 115.464844 L 214.152344 115.199219 C 213.734375 115.105469 213.402344 114.9375 213.152344 114.699219 C 212.902344 114.46875 212.714844 114.140625 212.589844 113.714844 C 212.421875 113.191406 212.457031 112.722656 212.699219 112.308594 C 212.9375 111.890625 213.332031 111.597656 213.886719 111.433594 C 214.53125 111.238281 215.078125 111.285156 215.527344 111.574219 C 215.984375 111.863281 216.328125 112.402344 216.558594 113.183594 L 216.917969 114.371094 L 216.996094 114.339844 C 217.433594 114.203125 217.730469 113.96875 217.886719 113.636719 C 218.050781 113.3125 218.066406 112.917969 217.933594 112.449219 C 217.839844 112.15625 217.707031 111.878906 217.542969 111.621094 C 217.386719 111.363281 217.1875 111.128906 216.949219 110.917969 L 217.808594 110.652344 C 218.046875 110.933594 218.238281 111.207031 218.386719 111.464844 C 218.542969 111.734375 218.660156 112.011719 218.746094 112.292969 C 218.972656 113.042969 218.933594 113.667969 218.621094 114.167969 C 218.308594 114.675781 217.714844 115.0625 216.839844 115.324219 Z M 219.816406 116.382813 L 220.050781 117.242188 L 214.253906 118.851563 L 214.019531 117.992188 Z M 222.066406 115.757813 L 222.300781 116.617188 L 221.097656 116.945313 L 220.863281 116.085938 Z M 219.234375 124.046875 L 215.703125 124.875 L 215.5 124 L 219 123.1875 C 219.550781 123.050781 219.941406 122.851563 220.171875 122.59375 C 220.398438 122.332031 220.472656 122.007813 220.390625 121.625 C 220.273438 121.164063 220.019531 120.835938 219.625 120.640625 C 219.238281 120.441406 218.757813 120.410156 218.1875 120.546875 L 214.875 121.328125 L 214.671875 120.4375 L 220.53125 119.0625 L 220.734375 119.953125 L 219.8125 120.171875 C 220.226563 120.285156 220.550781 120.460938 220.78125 120.703125 C 221.019531 120.941406 221.1875 121.25 221.28125 121.625 C 221.414063 122.21875 221.3125 122.722656 220.96875 123.140625 C 220.625 123.554688 220.046875 123.859375 219.234375 124.046875 Z M 222.445313 128.742188 L 221.523438 128.914063 C 221.617188 128.621094 221.667969 128.339844 221.679688 128.070313 C 221.699219 127.796875 221.683594 127.523438 221.632813 127.242188 C 221.546875 126.804688 221.40625 126.484375 221.210938 126.289063 C 221.023438 126.101563 220.789063 126.039063 220.507813 126.101563 C 220.277344 126.140625 220.109375 126.25 220.007813 126.429688 C 219.914063 126.617188 219.851563 126.953125 219.820313 127.445313 L 219.804688 127.757813 C 219.773438 128.402344 219.648438 128.882813 219.429688 129.195313 C 219.210938 129.507813 218.859375 129.710938 218.382813 129.804688 C 217.839844 129.90625 217.371094 129.796875 216.976563 129.476563 C 216.578125 129.152344 216.3125 128.648438 216.179688 127.960938 C 216.117188 127.679688 216.085938 127.375 216.085938 127.054688 C 216.09375 126.742188 216.125 126.390625 216.179688 126.007813 L 217.179688 125.820313 C 217.0625 126.183594 216.984375 126.53125 216.945313 126.867188 C 216.914063 127.199219 216.929688 127.515625 216.992188 127.820313 C 217.074219 128.226563 217.214844 128.527344 217.414063 128.726563 C 217.621094 128.921875 217.859375 128.996094 218.132813 128.945313 C 218.402344 128.890625 218.589844 128.765625 218.695313 128.570313 C 218.808594 128.371094 218.875 127.992188 218.898438 127.429688 L 218.929688 127.117188 C 218.949219 126.554688 219.0625 126.125 219.273438 125.835938 C 219.492188 125.542969 219.828125 125.351563 220.289063 125.257813 C 220.839844 125.15625 221.296875 125.25 221.664063 125.539063 C 222.039063 125.839844 222.289063 126.320313 222.414063 126.976563 C 222.476563 127.289063 222.507813 127.589844 222.507813 127.882813 C 222.515625 128.183594 222.496094 128.46875 222.445313 128.742188 Z M 222 137.277344 C 221.945313 137.496094 221.816406 137.722656 221.609375 137.964844 C 221.398438 138.214844 221.085938 138.480469 220.671875 138.761719 L 218.71875 140.152344 L 218.515625 139.121094 L 220.375 137.839844 C 220.84375 137.496094 221.140625 137.199219 221.265625 136.949219 C 221.398438 136.699219 221.429688 136.378906 221.359375 135.996094 L 221.15625 134.964844 L 217.828125 135.605469 L 217.640625 134.636719 L 225.515625 133.105469 L 225.9375 135.261719 C 226.09375 136.082031 226.019531 136.722656 225.71875 137.183594 C 225.425781 137.652344 224.894531 137.957031 224.125 138.105469 C 223.632813 138.199219 223.203125 138.175781 222.828125 138.042969 C 222.460938 137.90625 222.1875 137.652344 222 137.277344 Z M 224.828125 134.246094 L 222.03125 134.792969 L 222.265625 135.980469 C 222.359375 136.449219 222.539063 136.777344 222.8125 136.964844 C 223.09375 137.160156 223.460938 137.214844 223.921875 137.121094 C 224.378906 137.035156 224.707031 136.847656 224.90625 136.558594 C 225.101563 136.277344 225.15625 135.902344 225.0625 135.433594 Z M 224.558594 142.402344 C 224.472656 141.921875 224.199219 141.582031 223.730469 141.386719 C 223.269531 141.199219 222.691406 141.171875 221.996094 141.308594 C 221.285156 141.441406 220.753906 141.683594 220.402344 142.027344 C 220.046875 142.378906 219.910156 142.796875 219.996094 143.277344 C 220.089844 143.746094 220.363281 144.074219 220.824219 144.261719 C 221.28125 144.457031 221.863281 144.488281 222.574219 144.355469 C 223.269531 144.21875 223.796875 143.972656 224.152344 143.621094 C 224.515625 143.277344 224.652344 142.871094 224.558594 142.402344 Z M 225.371094 142.246094 C 225.515625 142.996094 225.355469 143.640625 224.886719 144.183594 C 224.425781 144.722656 223.714844 145.089844 222.746094 145.277344 C 221.777344 145.464844 220.972656 145.390625 220.339844 145.058594 C 219.703125 144.722656 219.3125 144.183594 219.167969 143.433594 C 219.019531 142.660156 219.183594 142.003906 219.652344 141.464844 C 220.128906 140.933594 220.855469 140.574219 221.824219 140.386719 C 222.792969 140.199219 223.589844 140.269531 224.214844 140.589844 C 224.839844 140.921875 225.222656 141.472656 225.371094 142.246094 Z M 223.484375 149.113281 C 223.359375 148.414063 223.175781 147.941406 222.9375 147.691406 C 222.695313 147.449219 222.363281 147.371094 221.9375 147.457031 C 221.601563 147.519531 221.347656 147.667969 221.171875 147.910156 C 221.003906 148.160156 220.957031 148.457031 221.03125 148.800781 C 221.113281 149.289063 221.375 149.644531 221.8125 149.863281 C 222.257813 150.089844 222.796875 150.148438 223.421875 150.035156 L 223.65625 149.988281 Z M 224.203125 150.800781 L 220.828125 151.425781 L 220.671875 150.535156 L 221.5625 150.363281 C 221.164063 150.238281 220.851563 150.039063 220.625 149.769531 C 220.40625 149.507813 220.253906 149.160156 220.171875 148.722656 C 220.066406 148.179688 220.15625 147.714844 220.4375 147.332031 C 220.71875 146.945313 221.144531 146.699219 221.71875 146.597656 C 222.382813 146.472656 222.921875 146.574219 223.328125 146.910156 C 223.742188 147.253906 224.023438 147.824219 224.171875 148.628906 L 224.40625 149.847656 L 224.5 149.832031 C 224.945313 149.746094 225.265625 149.550781 225.453125 149.238281 C 225.648438 148.925781 225.707031 148.527344 225.625 148.050781 C 225.5625 147.757813 225.460938 147.472656 225.328125 147.191406 C 225.203125 146.917969 225.03125 146.664063 224.8125 146.425781 L 225.703125 146.253906 C 225.910156 146.554688 226.070313 146.847656 226.1875 147.128906 C 226.3125 147.417969 226.398438 147.710938 226.453125 148.003906 C 226.585938 148.773438 226.472656 149.386719 226.109375 149.847656 C 225.742188 150.316406 225.109375 150.632813 224.203125 150.800781 Z M 226.832031 155.796875 L 230.019531 155.203125 L 230.191406 156.078125 L 221.972656 157.59375 L 221.800781 156.71875 L 222.691406 156.546875 C 222.304688 156.441406 221.996094 156.257813 221.769531 156 C 221.550781 155.75 221.402344 155.429688 221.332031 155.046875 C 221.214844 154.398438 221.402344 153.820313 221.894531 153.3125 C 222.382813 152.800781 223.097656 152.457031 224.035156 152.28125 C 224.960938 152.117188 225.746094 152.183594 226.394531 152.484375 C 227.039063 152.785156 227.417969 153.257813 227.535156 153.90625 C 227.605469 154.289063 227.585938 154.640625 227.472656 154.953125 C 227.355469 155.273438 227.144531 155.554688 226.832031 155.796875 Z M 224.207031 153.1875 C 223.488281 153.320313 222.945313 153.554688 222.582031 153.890625 C 222.226563 154.234375 222.089844 154.632813 222.175781 155.09375 C 222.269531 155.5625 222.539063 155.890625 222.988281 156.078125 C 223.445313 156.273438 224.035156 156.304688 224.753906 156.171875 C 225.472656 156.035156 226.007813 155.796875 226.363281 155.453125 C 226.714844 155.117188 226.847656 154.71875 226.753906 154.25 C 226.667969 153.789063 226.402344 153.460938 225.957031 153.265625 C 225.507813 153.078125 224.925781 153.050781 224.207031 153.1875 Z M 224.207031 153.1875 "/>
<path style=" stroke:none;fill-rule:evenodd;fill:rgb(20%,20%,20%);fill-opacity:1;" d="M 200.554688 75.609375 L 199.742188 76.265625 C 199.65625 75.859375 199.554688 75.5 199.429688 75.1875 C 199.304688 74.867188 199.140625 74.585938 198.945313 74.34375 C 198.621094 73.929688 198.277344 73.679688 197.914063 73.59375 C 197.546875 73.511719 197.203125 73.601563 196.882813 73.859375 C 196.601563 74.078125 196.449219 74.320313 196.429688 74.578125 C 196.40625 74.839844 196.515625 75.21875 196.757813 75.71875 L 197.023438 76.25 C 197.355469 76.914063 197.480469 77.503906 197.398438 78.015625 C 197.3125 78.535156 197.015625 79 196.507813 79.40625 C 195.890625 79.882813 195.28125 80.066406 194.679688 79.953125 C 194.074219 79.835938 193.484375 79.425781 192.914063 78.71875 C 192.703125 78.445313 192.511719 78.132813 192.335938 77.78125 C 192.167969 77.425781 192.023438 77.035156 191.898438 76.609375 L 192.773438 75.90625 C 192.824219 76.375 192.917969 76.796875 193.054688 77.171875 C 193.199219 77.546875 193.382813 77.878906 193.601563 78.171875 C 193.945313 78.597656 194.308594 78.851563 194.695313 78.9375 C 195.078125 79.03125 195.445313 78.9375 195.789063 78.65625 C 196.101563 78.414063 196.277344 78.140625 196.320313 77.828125 C 196.359375 77.515625 196.265625 77.128906 196.039063 76.671875 L 195.773438 76.125 C 195.4375 75.460938 195.304688 74.898438 195.367188 74.4375 C 195.4375 73.96875 195.714844 73.542969 196.195313 73.15625 C 196.746094 72.710938 197.324219 72.53125 197.929688 72.625 C 198.53125 72.71875 199.078125 73.078125 199.570313 73.703125 C 199.789063 73.964844 199.976563 74.257813 200.132813 74.578125 C 200.289063 74.902344 200.429688 75.246094 200.554688 75.609375 Z M 199.59375 81.976563 C 199.144531 81.414063 198.757813 81.085938 198.4375 80.992188 C 198.125 80.890625 197.796875 80.972656 197.453125 81.242188 C 197.179688 81.449219 197.03125 81.699219 197 81.992188 C 196.96875 82.292969 197.0625 82.578125 197.28125 82.851563 C 197.59375 83.246094 197.992188 83.433594 198.484375 83.414063 C 198.972656 83.402344 199.46875 83.199219 199.96875 82.804688 L 200.15625 82.664063 Z M 201.015625 83.117188 L 198.328125 85.257813 L 197.78125 84.554688 L 198.484375 83.992188 C 198.066406 84.0625 197.695313 84.03125 197.375 83.898438 C 197.050781 83.761719 196.753906 83.523438 196.484375 83.179688 C 196.140625 82.75 196 82.304688 196.0625 81.835938 C 196.132813 81.367188 196.398438 80.953125 196.859375 80.585938 C 197.378906 80.171875 197.898438 80.015625 198.421875 80.117188 C 198.941406 80.222656 199.457031 80.59375 199.96875 81.226563 L 200.75 82.195313 L 200.828125 82.132813 C 201.179688 81.839844 201.367188 81.515625 201.390625 81.164063 C 201.421875 80.800781 201.285156 80.425781 200.984375 80.039063 C 200.796875 79.800781 200.570313 79.59375 200.3125 79.414063 C 200.0625 79.238281 199.789063 79.085938 199.5 78.960938 L 200.203125 78.398438 C 200.523438 78.578125 200.804688 78.765625 201.046875 78.960938 C 201.285156 79.160156 201.5 79.375 201.6875 79.601563 C 202.164063 80.207031 202.351563 80.800781 202.25 81.382813 C 202.144531 81.964844 201.734375 82.542969 201.015625 83.117188 Z M 204.898438 88.085938 L 201.960938 90.210938 L 201.429688 89.492188 L 204.335938 87.382813 C 204.804688 87.046875 205.09375 86.714844 205.210938 86.382813 C 205.324219 86.046875 205.261719 85.722656 205.023438 85.398438 C 204.742188 85.015625 204.382813 84.8125 203.945313 84.789063 C 203.507813 84.769531 203.054688 84.925781 202.585938 85.257813 L 199.820313 87.257813 L 199.289063 86.523438 L 204.164063 82.992188 L 204.695313 83.726563 L 203.929688 84.289063 C 204.355469 84.238281 204.71875 84.28125 205.023438 84.414063 C 205.335938 84.539063 205.605469 84.757813 205.835938 85.070313 C 206.199219 85.570313 206.304688 86.074219 206.148438 86.585938 C 205.992188 87.09375 205.574219 87.59375 204.898438 88.085938 Z M 208.84375 91.9375 L 211.671875 90.359375 L 212.109375 91.125 L 204.8125 95.1875 L 204.375 94.421875 L 205.171875 93.984375 C 204.753906 93.992188 204.398438 93.914063 204.109375 93.75 C 203.828125 93.582031 203.585938 93.328125 203.390625 92.984375 C 203.066406 92.410156 203.054688 91.800781 203.359375 91.15625 C 203.671875 90.519531 204.242188 89.976563 205.078125 89.515625 C 205.898438 89.046875 206.660156 88.855469 207.359375 88.9375 C 208.066406 89.011719 208.582031 89.335938 208.90625 89.90625 C 209.101563 90.25 209.191406 90.585938 209.171875 90.921875 C 209.160156 91.253906 209.050781 91.59375 208.84375 91.9375 Z M 205.53125 90.3125 C 204.894531 90.664063 204.460938 91.054688 204.234375 91.484375 C 204.003906 91.921875 204 92.34375 204.21875 92.75 C 204.457031 93.164063 204.820313 93.394531 205.3125 93.4375 C 205.800781 93.476563 206.363281 93.320313 207 92.96875 C 207.632813 92.613281 208.066406 92.210938 208.296875 91.765625 C 208.523438 91.328125 208.519531 90.898438 208.28125 90.484375 C 208.0625 90.078125 207.707031 89.859375 207.21875 89.828125 C 206.726563 89.796875 206.164063 89.960938 205.53125 90.3125 Z M 205.917969 98.824219 C 205.167969 98.894531 204.648438 98.871094 204.355469 98.746094 C 204.054688 98.621094 203.820313 98.375 203.652344 98.011719 L 203.355469 97.355469 L 204.105469 97.011719 L 204.324219 97.496094 C 204.429688 97.714844 204.570313 97.859375 204.746094 97.933594 C 204.914063 98.003906 205.246094 98.015625 205.746094 97.964844 L 206.230469 97.902344 L 210.699219 93.449219 L 211.089844 94.308594 L 207.511719 97.808594 L 212.511719 97.386719 L 212.902344 98.230469 Z M 216.265625 102.71875 L 213.484375 103.890625 L 213.953125 105.015625 C 214.128906 105.429688 214.390625 105.703125 214.734375 105.828125 C 215.078125 105.960938 215.46875 105.9375 215.90625 105.75 C 216.351563 105.5625 216.644531 105.300781 216.78125 104.96875 C 216.925781 104.632813 216.910156 104.257813 216.734375 103.84375 Z M 216.6875 101.46875 L 217.546875 103.5 C 217.867188 104.25 217.921875 104.890625 217.703125 105.421875 C 217.492188 105.953125 217.03125 106.367188 216.3125 106.671875 C 215.582031 106.984375 214.953125 107.03125 214.421875 106.8125 C 213.890625 106.601563 213.460938 106.125 213.140625 105.375 L 212.671875 104.25 L 209.703125 105.5 L 209.3125 104.59375 Z M 219.367188 107.023438 L 219.679688 107.867188 L 211.804688 110.695313 L 211.492188 109.851563 Z M 215.933594 113.746094 C 215.722656 113.058594 215.484375 112.605469 215.214844 112.386719 C 214.953125 112.175781 214.613281 112.136719 214.199219 112.261719 C 213.863281 112.363281 213.628906 112.546875 213.496094 112.808594 C 213.359375 113.066406 213.34375 113.371094 213.449219 113.714844 C 213.59375 114.191406 213.894531 114.515625 214.355469 114.683594 C 214.8125 114.847656 215.34375 114.839844 215.949219 114.652344 L 216.183594 114.589844 Z M 216.839844 115.324219 L 213.542969 116.324219 L 213.277344 115.464844 L 214.152344 115.199219 C 213.734375 115.105469 213.402344 114.9375 213.152344 114.699219 C 212.902344 114.46875 212.714844 114.140625 212.589844 113.714844 C 212.421875 113.191406 212.457031 112.722656 212.699219 112.308594 C 212.9375 111.890625 213.332031 111.597656 213.886719 111.433594 C 214.53125 111.238281 215.078125 111.285156 215.527344 111.574219 C 215.984375 111.863281 216.328125 112.402344 216.558594 113.183594 L 216.917969 114.371094 L 216.996094 114.339844 C 217.433594 114.203125 217.730469 113.96875 217.886719 113.636719 C 218.050781 113.3125 218.066406 112.917969 217.933594 112.449219 C 217.839844 112.15625 217.707031 111.878906 217.542969 111.621094 C 217.386719 111.363281 217.1875 111.128906 216.949219 110.917969 L 217.808594 110.652344 C 218.046875 110.933594 218.238281 111.207031 218.386719 111.464844 C 218.542969 111.734375 218.660156 112.011719 218.746094 112.292969 C 218.972656 113.042969 218.933594 113.667969 218.621094 114.167969 C 218.308594 114.675781 217.714844 115.0625 216.839844 115.324219 Z M 219.816406 116.382813 L 220.050781 117.242188 L 214.253906 118.851563 L 214.019531 117.992188 Z M 222.066406 115.757813 L 222.300781 116.617188 L 221.097656 116.945313 L 220.863281 116.085938 Z M 219.234375 124.046875 L 215.703125 124.875 L 215.5 124 L 219 123.1875 C 219.550781 123.050781 219.941406 122.851563 220.171875 122.59375 C 220.398438 122.332031 220.472656 122.007813 220.390625 121.625 C 220.273438 121.164063 220.019531 120.835938 219.625 120.640625 C 219.238281 120.441406 218.757813 120.410156 218.1875 120.546875 L 214.875 121.328125 L 214.671875 120.4375 L 220.53125 119.0625 L 220.734375 119.953125 L 219.8125 120.171875 C 220.226563 120.285156 220.550781 120.460938 220.78125 120.703125 C 221.019531 120.941406 221.1875 121.25 221.28125 121.625 C 221.414063 122.21875 221.3125 122.722656 220.96875 123.140625 C 220.625 123.554688 220.046875 123.859375 219.234375 124.046875 Z M 222.445313 128.742188 L 221.523438 128.914063 C 221.617188 128.621094 221.667969 128.339844 221.679688 128.070313 C 221.699219 127.796875 221.683594 127.523438 221.632813 127.242188 C 221.546875 126.804688 221.40625 126.484375 221.210938 126.289063 C 221.023438 126.101563 220.789063 126.039063 220.507813 126.101563 C 220.277344 126.140625 220.109375 126.25 220.007813 126.429688 C 219.914063 126.617188 219.851563 126.953125 219.820313 127.445313 L 219.804688 127.757813 C 219.773438 128.402344 219.648438 128.882813 219.429688 129.195313 C 219.210938 129.507813 218.859375 129.710938 218.382813 129.804688 C 217.839844 129.90625 217.371094 129.796875 216.976563 129.476563 C 216.578125 129.152344 216.3125 128.648438 216.179688 127.960938 C 216.117188 127.679688 216.085938 127.375 216.085938 127.054688 C 216.09375 126.742188 216.125 126.390625 216.179688 126.007813 L 217.179688 125.820313 C 217.0625 126.183594 216.984375 126.53125 216.945313 126.867188 C 216.914063 127.199219 216.929688 127.515625 216.992188 127.820313 C 217.074219 128.226563 217.214844 128.527344 217.414063 128.726563 C 217.621094 128.921875 217.859375 128.996094 218.132813 128.945313 C 218.402344 128.890625 218.589844 128.765625 218.695313 128.570313 C 218.808594 128.371094 218.875 127.992188 218.898438 127.429688 L 218.929688 127.117188 C 218.949219 126.554688 219.0625 126.125 219.273438 125.835938 C 219.492188 125.542969 219.828125 125.351563 220.289063 125.257813 C 220.839844 125.15625 221.296875 125.25 221.664063 125.539063 C 222.039063 125.839844 222.289063 126.320313 222.414063 126.976563 C 222.476563 127.289063 222.507813 127.589844 222.507813 127.882813 C 222.515625 128.183594 222.496094 128.46875 222.445313 128.742188 Z M 222 137.277344 C 221.945313 137.496094 221.816406 137.722656 221.609375 137.964844 C 221.398438 138.214844 221.085938 138.480469 220.671875 138.761719 L 218.71875 140.152344 L 218.515625 139.121094 L 220.375 137.839844 C 220.84375 137.496094 221.140625 137.199219 221.265625 136.949219 C 221.398438 136.699219 221.429688 136.378906 221.359375 135.996094 L 221.15625 134.964844 L 217.828125 135.605469 L 217.640625 134.636719 L 225.515625 133.105469 L 225.9375 135.261719 C 226.09375 136.082031 226.019531 136.722656 225.71875 137.183594 C 225.425781 137.652344 224.894531 137.957031 224.125 138.105469 C 223.632813 138.199219 223.203125 138.175781 222.828125 138.042969 C 222.460938 137.90625 222.1875 137.652344 222 137.277344 Z M 224.828125 134.246094 L 222.03125 134.792969 L 222.265625 135.980469 C 222.359375 136.449219 222.539063 136.777344 222.8125 136.964844 C 223.09375 137.160156 223.460938 137.214844 223.921875 137.121094 C 224.378906 137.035156 224.707031 136.847656 224.90625 136.558594 C 225.101563 136.277344 225.15625 135.902344 225.0625 135.433594 Z M 224.558594 142.402344 C 224.472656 141.921875 224.199219 141.582031 223.730469 141.386719 C 223.269531 141.199219 222.691406 141.171875 221.996094 141.308594 C 221.285156 141.441406 220.753906 141.683594 220.402344 142.027344 C 220.046875 142.378906 219.910156 142.796875 219.996094 143.277344 C 220.089844 143.746094 220.363281 144.074219 220.824219 144.261719 C 221.28125 144.457031 221.863281 144.488281 222.574219 144.355469 C 223.269531 144.21875 223.796875 143.972656 224.152344 143.621094 C 224.515625 143.277344 224.652344 142.871094 224.558594 142.402344 Z M 225.371094 142.246094 C 225.515625 142.996094 225.355469 143.640625 224.886719 144.183594 C 224.425781 144.722656 223.714844 145.089844 222.746094 145.277344 C 221.777344 145.464844 220.972656 145.390625 220.339844 145.058594 C 219.703125 144.722656 219.3125 144.183594 219.167969 143.433594 C 219.019531 142.660156 219.183594 142.003906 219.652344 141.464844 C 220.128906 140.933594 220.855469 140.574219 221.824219 140.386719 C 222.792969 140.199219 223.589844 140.269531 224.214844 140.589844 C 224.839844 140.921875 225.222656 141.472656 225.371094 142.246094 Z M 223.484375 149.113281 C 223.359375 148.414063 223.175781 147.941406 222.9375 147.691406 C 222.695313 147.449219 222.363281 147.371094 221.9375 147.457031 C 221.601563 147.519531 221.347656 147.667969 221.171875 147.910156 C 221.003906 148.160156 220.957031 148.457031 221.03125 148.800781 C 221.113281 149.289063 221.375 149.644531 221.8125 149.863281 C 222.257813 150.089844 222.796875 150.148438 223.421875 150.035156 L 223.65625 149.988281 Z M 224.203125 150.800781 L 220.828125 151.425781 L 220.671875 150.535156 L 221.5625 150.363281 C 221.164063 150.238281 220.851563 150.039063 220.625 149.769531 C 220.40625 149.507813 220.253906 149.160156 220.171875 148.722656 C 220.066406 148.179688 220.15625 147.714844 220.4375 147.332031 C 220.71875 146.945313 221.144531 146.699219 221.71875 146.597656 C 222.382813 146.472656 222.921875 146.574219 223.328125 146.910156 C 223.742188 147.253906 224.023438 147.824219 224.171875 148.628906 L 224.40625 149.847656 L 224.5 149.832031 C 224.945313 149.746094 225.265625 149.550781 225.453125 149.238281 C 225.648438 148.925781 225.707031 148.527344 225.625 148.050781 C 225.5625 147.757813 225.460938 147.472656 225.328125 147.191406 C 225.203125 146.917969 225.03125 146.664063 224.8125 146.425781 L 225.703125 146.253906 C 225.910156 146.554688 226.070313 146.847656 226.1875 147.128906 C 226.3125 147.417969 226.398438 147.710938 226.453125 148.003906 C 226.585938 148.773438 226.472656 149.386719 226.109375 149.847656 C 225.742188 150.316406 225.109375 150.632813 224.203125 150.800781 Z M 226.832031 155.796875 L 230.019531 155.203125 L 230.191406 156.078125 L 221.972656 157.59375 L 221.800781 156.71875 L 222.691406 156.546875 C 222.304688 156.441406 221.996094 156.257813 221.769531 156 C 221.550781 155.75 221.402344 155.429688 221.332031 155.046875 C 221.214844 154.398438 221.402344 153.820313 221.894531 153.3125 C 222.382813 152.800781 223.097656 152.457031 224.035156 152.28125 C 224.960938 152.117188 225.746094 152.183594 226.394531 152.484375 C 227.039063 152.785156 227.417969 153.257813 227.535156 153.90625 C 227.605469 154.289063 227.585938 154.640625 227.472656 154.953125 C 227.355469 155.273438 227.144531 155.554688 226.832031 155.796875 Z M 224.207031 153.1875 C 223.488281 153.320313 222.945313 153.554688 222.582031 153.890625 C 222.226563 154.234375 222.089844 154.632813 222.175781 155.09375 C 222.269531 155.5625 222.539063 155.890625 222.988281 156.078125 C 223.445313 156.273438 224.035156 156.304688 224.753906 156.171875 C 225.472656 156.035156 226.007813 155.796875 226.363281 155.453125 C 226.714844 155.117188 226.847656 154.71875 226.753906 154.25 C 226.667969 153.789063 226.402344 153.460938 225.957031 153.265625 C 225.507813 153.078125 224.925781 153.050781 224.207031 153.1875 Z M 224.207031 153.1875 "/>
<path style="fill:none;stroke-width:3;stroke-linecap:round;stroke-linejoin:round;stroke:rgb(100%,100%,100%);stroke-opacity:1;stroke-miterlimit:10;" d="M 42.25 151.195313 L 43.015625 151.804688 L 40.046875 158.085938 L 45.40625 153.664063 L 46.28125 154.335938 L 43.3125 160.632813 L 48.671875 156.195313 L 49.453125 156.804688 L 43.109375 162.023438 L 42.125 161.257813 L 45.21875 154.835938 L 39.71875 159.382813 L 38.75 158.632813 Z M 49.316406 163.007813 C 48.753906 162.570313 48.304688 162.34375 47.972656 162.320313 C 47.636719 162.289063 47.335938 162.445313 47.066406 162.789063 C 46.855469 163.0625 46.769531 163.339844 46.800781 163.632813 C 46.839844 163.933594 46.996094 164.195313 47.269531 164.414063 C 47.664063 164.714844 48.097656 164.804688 48.566406 164.679688 C 49.042969 164.554688 49.480469 164.242188 49.878906 163.742188 L 50.019531 163.554688 Z M 50.972656 163.773438 L 48.863281 166.492188 L 48.160156 165.945313 L 48.722656 165.226563 C 48.335938 165.390625 47.972656 165.449219 47.628906 165.398438 C 47.285156 165.34375 46.941406 165.1875 46.597656 164.929688 C 46.160156 164.585938 45.914063 164.171875 45.863281 163.695313 C 45.808594 163.226563 45.964844 162.765625 46.332031 162.304688 C 46.746094 161.765625 47.222656 161.484375 47.753906 161.460938 C 48.285156 161.441406 48.867188 161.679688 49.503906 162.179688 L 50.488281 162.945313 L 50.550781 162.867188 C 50.832031 162.515625 50.941406 162.15625 50.878906 161.789063 C 50.816406 161.425781 50.589844 161.09375 50.207031 160.789063 C 49.964844 160.613281 49.699219 160.46875 49.410156 160.351563 C 49.128906 160.226563 48.835938 160.148438 48.535156 160.117188 L 49.082031 159.398438 C 49.433594 159.484375 49.753906 159.59375 50.035156 159.726563 C 50.316406 159.863281 50.570313 160.019531 50.800781 160.195313 C 51.414063 160.675781 51.738281 161.210938 51.769531 161.804688 C 51.800781 162.398438 51.535156 163.054688 50.972656 163.773438 Z M 55.914063 165.527344 C 55.871094 165.414063 55.808594 165.308594 55.726563 165.214844 C 55.652344 165.113281 55.5625 165.019531 55.460938 164.933594 C 55.054688 164.621094 54.632813 164.527344 54.195313 164.652344 C 53.765625 164.777344 53.351563 165.113281 52.945313 165.652344 L 50.992188 168.152344 L 50.273438 167.589844 L 53.960938 162.839844 L 54.679688 163.402344 L 54.101563 164.136719 C 54.476563 163.972656 54.835938 163.910156 55.179688 163.949219 C 55.523438 163.992188 55.859375 164.144531 56.195313 164.402344 C 56.246094 164.433594 56.296875 164.480469 56.351563 164.542969 C 56.414063 164.597656 56.46875 164.652344 56.523438 164.714844 Z M 59.15625 167.945313 C 59.101563 167.832031 59.039063 167.726563 58.96875 167.632813 C 58.894531 167.53125 58.800781 167.4375 58.6875 167.351563 C 58.28125 167.050781 57.859375 166.96875 57.421875 167.101563 C 56.992188 167.238281 56.578125 167.578125 56.171875 168.117188 L 54.28125 170.664063 L 53.5625 170.117188 L 57.15625 165.289063 L 57.875 165.835938 L 57.3125 166.585938 C 57.6875 166.398438 58.039063 166.328125 58.375 166.367188 C 58.71875 166.410156 59.0625 166.554688 59.40625 166.804688 C 59.457031 166.847656 59.515625 166.894531 59.578125 166.945313 C 59.640625 167 59.695313 167.050781 59.75 167.101563 Z M 62.59375 172.640625 L 62.3125 173.03125 L 58.984375 170.671875 C 58.617188 171.246094 58.46875 171.773438 58.53125 172.25 C 58.601563 172.726563 58.878906 173.132813 59.359375 173.46875 C 59.628906 173.675781 59.921875 173.832031 60.234375 173.9375 C 60.546875 174.039063 60.882813 174.117188 61.25 174.171875 L 60.71875 174.921875 C 60.363281 174.859375 60.023438 174.757813 59.703125 174.625 C 59.390625 174.5 59.09375 174.335938 58.8125 174.140625 C 58.113281 173.640625 57.71875 173.015625 57.625 172.265625 C 57.539063 171.515625 57.78125 170.75 58.34375 169.96875 C 58.90625 169.167969 59.546875 168.671875 60.265625 168.484375 C 60.984375 168.296875 61.675781 168.4375 62.34375 168.90625 C 62.9375 169.324219 63.253906 169.867188 63.296875 170.53125 C 63.335938 171.199219 63.101563 171.902344 62.59375 172.640625 Z M 62.046875 171.875 C 62.347656 171.4375 62.484375 171.011719 62.453125 170.59375 C 62.429688 170.179688 62.242188 169.839844 61.890625 169.578125 C 61.484375 169.296875 61.0625 169.199219 60.625 169.28125 C 60.195313 169.355469 59.804688 169.609375 59.453125 170.046875 Z M 67.683594 175.800781 L 65.574219 178.753906 L 64.839844 178.238281 L 66.917969 175.316406 C 67.25 174.847656 67.417969 174.441406 67.417969 174.097656 C 67.417969 173.746094 67.253906 173.453125 66.933594 173.222656 C 66.546875 172.941406 66.140625 172.863281 65.714844 172.988281 C 65.296875 173.105469 64.917969 173.394531 64.574219 173.863281 L 62.605469 176.644531 L 61.855469 176.113281 L 65.339844 171.207031 L 66.089844 171.738281 L 65.542969 172.503906 C 65.925781 172.328125 66.285156 172.25 66.621094 172.269531 C 66.953125 172.292969 67.277344 172.417969 67.589844 172.644531 C 68.089844 173 68.347656 173.449219 68.371094 173.988281 C 68.390625 174.519531 68.160156 175.125 67.683594 175.800781 Z M 77.625 177.828125 L 77.015625 178.671875 C 76.835938 178.296875 76.640625 177.976563 76.421875 177.703125 C 76.203125 177.433594 75.96875 177.210938 75.71875 177.03125 C 75.28125 176.730469 74.878906 176.589844 74.515625 176.609375 C 74.160156 176.632813 73.863281 176.8125 73.625 177.15625 C 73.414063 177.4375 73.332031 177.710938 73.375 177.96875 C 73.414063 178.230469 73.625 178.5625 74 178.96875 L 74.390625 179.390625 C 74.898438 179.953125 75.179688 180.496094 75.234375 181.015625 C 75.296875 181.535156 75.140625 182.054688 74.765625 182.578125 C 74.316406 183.210938 73.785156 183.554688 73.171875 183.609375 C 72.554688 183.671875 71.878906 183.4375 71.140625 182.90625 C 70.859375 182.707031 70.585938 182.457031 70.328125 182.15625 C 70.066406 181.863281 69.816406 181.535156 69.578125 181.171875 L 70.234375 180.265625 C 70.410156 180.703125 70.613281 181.082031 70.84375 181.40625 C 71.082031 181.726563 71.351563 181.992188 71.65625 182.203125 C 72.101563 182.523438 72.519531 182.671875 72.90625 182.640625 C 73.300781 182.617188 73.628906 182.425781 73.890625 182.0625 C 74.117188 181.738281 74.207031 181.421875 74.15625 181.109375 C 74.113281 180.808594 73.921875 180.464844 73.578125 180.078125 L 73.171875 179.640625 C 72.671875 179.089844 72.382813 178.578125 72.3125 178.109375 C 72.25 177.640625 72.394531 177.15625 72.75 176.65625 C 73.15625 176.074219 73.660156 175.746094 74.265625 175.671875 C 74.867188 175.601563 75.492188 175.792969 76.140625 176.25 C 76.421875 176.449219 76.679688 176.679688 76.921875 176.9375 C 77.171875 177.199219 77.40625 177.496094 77.625 177.828125 Z M 79.882813 179.46875 L 78.898438 180.84375 L 80.382813 181.90625 L 79.945313 182.53125 L 78.460938 181.46875 L 76.570313 184.140625 C 76.277344 184.539063 76.136719 184.828125 76.148438 185.015625 C 76.167969 185.203125 76.335938 185.398438 76.648438 185.609375 L 77.382813 186.140625 L 76.898438 186.8125 L 76.164063 186.28125 C 75.601563 185.882813 75.292969 185.492188 75.242188 185.109375 C 75.199219 184.722656 75.398438 184.230469 75.835938 183.625 L 77.726563 180.953125 L 77.195313 180.578125 L 77.632813 179.953125 L 78.164063 180.328125 L 79.148438 178.953125 Z M 83.484375 187.542969 L 83.203125 187.933594 L 79.875 185.542969 C 79.507813 186.117188 79.359375 186.644531 79.421875 187.121094 C 79.484375 187.609375 79.753906 188.027344 80.234375 188.371094 C 80.515625 188.566406 80.804688 188.722656 81.109375 188.839844 C 81.421875 188.953125 81.757813 189.03125 82.125 189.074219 L 81.59375 189.824219 C 81.238281 189.761719 80.898438 189.660156 80.578125 189.527344 C 80.265625 189.390625 79.96875 189.222656 79.6875 189.027344 C 78.988281 188.515625 78.597656 187.886719 78.515625 187.136719 C 78.429688 186.386719 78.671875 185.628906 79.234375 184.855469 C 79.804688 184.066406 80.457031 183.574219 81.1875 183.386719 C 81.914063 183.199219 82.609375 183.347656 83.265625 183.824219 C 83.859375 184.253906 84.171875 184.800781 84.203125 185.464844 C 84.242188 186.132813 84.003906 186.824219 83.484375 187.542969 Z M 82.921875 186.792969 C 83.234375 186.347656 83.378906 185.917969 83.359375 185.511719 C 83.335938 185.097656 83.148438 184.761719 82.796875 184.511719 C 82.390625 184.210938 81.96875 184.101563 81.53125 184.183594 C 81.101563 184.257813 80.710938 184.507813 80.359375 184.933594 Z M 86.296875 186.210938 L 87.015625 186.742188 L 83.421875 191.554688 L 82.703125 191.023438 Z M 87.703125 184.320313 L 88.421875 184.851563 L 87.671875 185.867188 L 86.953125 185.335938 Z M 90.617188 192.535156 L 88.398438 195.394531 L 87.695313 194.847656 L 89.898438 192.003906 C 90.242188 191.558594 90.417969 191.160156 90.429688 190.816406 C 90.4375 190.464844 90.289063 190.167969 89.976563 189.925781 C 89.601563 189.636719 89.199219 189.535156 88.773438 189.628906 C 88.355469 189.722656 87.964844 190.003906 87.601563 190.472656 L 85.523438 193.160156 L 84.804688 192.613281 L 88.492188 187.863281 L 89.210938 188.410156 L 88.632813 189.144531 C 89.015625 188.988281 89.375 188.925781 89.710938 188.957031 C 90.042969 188.988281 90.367188 189.125 90.679688 189.363281 C 91.15625 189.738281 91.390625 190.199219 91.382813 190.738281 C 91.382813 191.269531 91.125 191.871094 90.617188 192.535156 Z M 96.507813 198.382813 C 96.578125 198.589844 96.585938 198.851563 96.523438 199.164063 C 96.460938 199.476563 96.324219 199.859375 96.117188 200.320313 L 95.132813 202.507813 L 94.445313 201.726563 L 95.382813 199.679688 C 95.621094 199.148438 95.730469 198.734375 95.710938 198.445313 C 95.699219 198.152344 95.570313 197.867188 95.320313 197.585938 L 94.617188 196.789063 L 92.070313 199.039063 L 91.414063 198.289063 L 97.429688 192.992188 L 98.882813 194.648438 C 99.433594 195.273438 99.699219 195.863281 99.679688 196.414063 C 99.65625 196.96875 99.355469 197.503906 98.773438 198.023438 C 98.398438 198.34375 98.015625 198.539063 97.632813 198.601563 C 97.246094 198.671875 96.871094 198.601563 96.507813 198.382813 Z M 97.414063 194.320313 L 95.273438 196.210938 L 96.070313 197.117188 C 96.390625 197.484375 96.71875 197.667969 97.054688 197.679688 C 97.398438 197.699219 97.746094 197.5625 98.101563 197.257813 C 98.445313 196.945313 98.625 196.625 98.648438 196.289063 C 98.679688 195.945313 98.53125 195.59375 98.210938 195.226563 Z M 101.0625 201.898438 C 100.800781 201.492188 100.421875 201.289063 99.921875 201.289063 C 99.429688 201.28125 98.882813 201.472656 98.28125 201.867188 C 97.675781 202.25 97.273438 202.667969 97.078125 203.117188 C 96.878906 203.574219 96.910156 204.007813 97.171875 204.414063 C 97.429688 204.808594 97.804688 205.011719 98.296875 205.023438 C 98.796875 205.03125 99.347656 204.84375 99.953125 204.460938 C 100.554688 204.0625 100.957031 203.636719 101.15625 203.179688 C 101.351563 202.71875 101.320313 202.292969 101.0625 201.898438 Z M 101.765625 201.445313 C 102.191406 202.09375 102.289063 202.746094 102.0625 203.414063 C 101.832031 204.089844 101.300781 204.699219 100.46875 205.242188 C 99.644531 205.773438 98.878906 206 98.171875 205.929688 C 97.460938 205.867188 96.894531 205.511719 96.46875 204.867188 C 96.050781 204.210938 95.957031 203.542969 96.1875 202.867188 C 96.414063 202.203125 96.941406 201.601563 97.765625 201.070313 C 98.597656 200.53125 99.367188 200.296875 100.078125 200.367188 C 100.785156 200.429688 101.347656 200.789063 101.765625 201.445313 Z M 102.320313 208.582031 C 101.976563 207.945313 101.65625 207.550781 101.367188 207.394531 C 101.085938 207.238281 100.746094 207.261719 100.351563 207.472656 C 100.046875 207.628906 99.851563 207.847656 99.757813 208.128906 C 99.671875 208.410156 99.714844 208.707031 99.882813 209.019531 C 100.121094 209.464844 100.480469 209.726563 100.960938 209.800781 C 101.449219 209.882813 101.976563 209.773438 102.539063 209.472656 L 102.742188 209.363281 Z M 103.507813 209.957031 L 100.476563 211.566406 L 100.070313 210.785156 L 100.867188 210.363281 C 100.4375 210.339844 100.078125 210.238281 99.789063 210.050781 C 99.496094 209.871094 99.246094 209.589844 99.039063 209.207031 C 98.777344 208.714844 98.71875 208.246094 98.867188 207.800781 C 99.023438 207.351563 99.359375 206.988281 99.882813 206.707031 C 100.476563 206.394531 101.015625 206.339844 101.507813 206.535156 C 102.007813 206.722656 102.449219 207.175781 102.835938 207.894531 L 103.429688 209.003906 L 103.507813 208.957031 C 103.914063 208.746094 104.15625 208.460938 104.242188 208.097656 C 104.335938 207.742188 104.265625 207.351563 104.039063 206.925781 C 103.890625 206.65625 103.714844 206.410156 103.507813 206.191406 C 103.296875 205.972656 103.058594 205.78125 102.789063 205.613281 L 103.585938 205.191406 C 103.867188 205.410156 104.105469 205.640625 104.304688 205.878906 C 104.511719 206.109375 104.683594 206.355469 104.820313 206.613281 C 105.183594 207.300781 105.257813 207.917969 105.039063 208.472656 C 104.828125 209.035156 104.320313 209.527344 103.507813 209.957031 Z M 107.195313 214.1875 L 110.195313 212.921875 L 110.539063 213.75 L 102.835938 217 L 102.492188 216.171875 L 103.320313 215.8125 C 102.914063 215.789063 102.574219 215.679688 102.304688 215.484375 C 102.042969 215.285156 101.835938 215.003906 101.679688 214.640625 C 101.417969 214.035156 101.476563 213.429688 101.851563 212.828125 C 102.226563 212.222656 102.851563 211.734375 103.726563 211.359375 C 104.601563 210.996094 105.382813 210.890625 106.070313 211.046875 C 106.757813 211.203125 107.230469 211.585938 107.492188 212.1875 C 107.648438 212.550781 107.699219 212.898438 107.648438 213.234375 C 107.605469 213.566406 107.453125 213.882813 107.195313 214.1875 Z M 104.085938 212.21875 C 103.40625 212.507813 102.929688 212.851563 102.648438 213.25 C 102.375 213.65625 102.335938 214.070313 102.523438 214.5 C 102.710938 214.9375 103.042969 215.203125 103.523438 215.296875 C 104 215.390625 104.578125 215.289063 105.257813 215 C 105.921875 214.71875 106.390625 214.367188 106.664063 213.953125 C 106.945313 213.546875 106.992188 213.125 106.804688 212.6875 C 106.617188 212.257813 106.28125 212.007813 105.804688 211.921875 C 105.324219 211.839844 104.75 211.9375 104.085938 212.21875 Z M 104.085938 212.21875 "/>
<path style=" stroke:none;fill-rule:evenodd;fill:rgb(20%,20%,20%);fill-opacity:1;" d="M 42.25 151.195313 L 43.015625 151.804688 L 40.046875 158.085938 L 45.40625 153.664063 L 46.28125 154.335938 L 43.3125 160.632813 L 48.671875 156.195313 L 49.453125 156.804688 L 43.109375 162.023438 L 42.125 161.257813 L 45.21875 154.835938 L 39.71875 159.382813 L 38.75 158.632813 Z M 49.316406 163.007813 C 48.753906 162.570313 48.304688 162.34375 47.972656 162.320313 C 47.636719 162.289063 47.335938 162.445313 47.066406 162.789063 C 46.855469 163.0625 46.769531 163.339844 46.800781 163.632813 C 46.839844 163.933594 46.996094 164.195313 47.269531 164.414063 C 47.664063 164.714844 48.097656 164.804688 48.566406 164.679688 C 49.042969 164.554688 49.480469 164.242188 49.878906 163.742188 L 50.019531 163.554688 Z M 50.972656 163.773438 L 48.863281 166.492188 L 48.160156 165.945313 L 48.722656 165.226563 C 48.335938 165.390625 47.972656 165.449219 47.628906 165.398438 C 47.285156 165.34375 46.941406 165.1875 46.597656 164.929688 C 46.160156 164.585938 45.914063 164.171875 45.863281 163.695313 C 45.808594 163.226563 45.964844 162.765625 46.332031 162.304688 C 46.746094 161.765625 47.222656 161.484375 47.753906 161.460938 C 48.285156 161.441406 48.867188 161.679688 49.503906 162.179688 L 50.488281 162.945313 L 50.550781 162.867188 C 50.832031 162.515625 50.941406 162.15625 50.878906 161.789063 C 50.816406 161.425781 50.589844 161.09375 50.207031 160.789063 C 49.964844 160.613281 49.699219 160.46875 49.410156 160.351563 C 49.128906 160.226563 48.835938 160.148438 48.535156 160.117188 L 49.082031 159.398438 C 49.433594 159.484375 49.753906 159.59375 50.035156 159.726563 C 50.316406 159.863281 50.570313 160.019531 50.800781 160.195313 C 51.414063 160.675781 51.738281 161.210938 51.769531 161.804688 C 51.800781 162.398438 51.535156 163.054688 50.972656 163.773438 Z M 55.914063 165.527344 C 55.871094 165.414063 55.808594 165.308594 55.726563 165.214844 C 55.652344 165.113281 55.5625 165.019531 55.460938 164.933594 C 55.054688 164.621094 54.632813 164.527344 54.195313 164.652344 C 53.765625 164.777344 53.351563 165.113281 52.945313 165.652344 L 50.992188 168.152344 L 50.273438 167.589844 L 53.960938 162.839844 L 54.679688 163.402344 L 54.101563 164.136719 C 54.476563 163.972656 54.835938 163.910156 55.179688 163.949219 C 55.523438 163.992188 55.859375 164.144531 56.195313 164.402344 C 56.246094 164.433594 56.296875 164.480469 56.351563 164.542969 C 56.414063 164.597656 56.46875 164.652344 56.523438 164.714844 Z M 59.15625 167.945313 C 59.101563 167.832031 59.039063 167.726563 58.96875 167.632813 C 58.894531 167.53125 58.800781 167.4375 58.6875 167.351563 C 58.28125 167.050781 57.859375 166.96875 57.421875 167.101563 C 56.992188 167.238281 56.578125 167.578125 56.171875 168.117188 L 54.28125 170.664063 L 53.5625 170.117188 L 57.15625 165.289063 L 57.875 165.835938 L 57.3125 166.585938 C 57.6875 166.398438 58.039063 166.328125 58.375 166.367188 C 58.71875 166.410156 59.0625 166.554688 59.40625 166.804688 C 59.457031 166.847656 59.515625 166.894531 59.578125 166.945313 C 59.640625 167 59.695313 167.050781 59.75 167.101563 Z M 62.59375 172.640625 L 62.3125 173.03125 L 58.984375 170.671875 C 58.617188 171.246094 58.46875 171.773438 58.53125 172.25 C 58.601563 172.726563 58.878906 173.132813 59.359375 173.46875 C 59.628906 173.675781 59.921875 173.832031 60.234375 173.9375 C 60.546875 174.039063 60.882813 174.117188 61.25 174.171875 L 60.71875 174.921875 C 60.363281 174.859375 60.023438 174.757813 59.703125 174.625 C 59.390625 174.5 59.09375 174.335938 58.8125 174.140625 C 58.113281 173.640625 57.71875 173.015625 57.625 172.265625 C 57.539063 171.515625 57.78125 170.75 58.34375 169.96875 C 58.90625 169.167969 59.546875 168.671875 60.265625 168.484375 C 60.984375 168.296875 61.675781 168.4375 62.34375 168.90625 C 62.9375 169.324219 63.253906 169.867188 63.296875 170.53125 C 63.335938 171.199219 63.101563 171.902344 62.59375 172.640625 Z M 62.046875 171.875 C 62.347656 171.4375 62.484375 171.011719 62.453125 170.59375 C 62.429688 170.179688 62.242188 169.839844 61.890625 169.578125 C 61.484375 169.296875 61.0625 169.199219 60.625 169.28125 C 60.195313 169.355469 59.804688 169.609375 59.453125 170.046875 Z M 67.683594 175.800781 L 65.574219 178.753906 L 64.839844 178.238281 L 66.917969 175.316406 C 67.25 174.847656 67.417969 174.441406 67.417969 174.097656 C 67.417969 173.746094 67.253906 173.453125 66.933594 173.222656 C 66.546875 172.941406 66.140625 172.863281 65.714844 172.988281 C 65.296875 173.105469 64.917969 173.394531 64.574219 173.863281 L 62.605469 176.644531 L 61.855469 176.113281 L 65.339844 171.207031 L 66.089844 171.738281 L 65.542969 172.503906 C 65.925781 172.328125 66.285156 172.25 66.621094 172.269531 C 66.953125 172.292969 67.277344 172.417969 67.589844 172.644531 C 68.089844 173 68.347656 173.449219 68.371094 173.988281 C 68.390625 174.519531 68.160156 175.125 67.683594 175.800781 Z M 77.625 177.828125 L 77.015625 178.671875 C 76.835938 178.296875 76.640625 177.976563 76.421875 177.703125 C 76.203125 177.433594 75.96875 177.210938 75.71875 177.03125 C 75.28125 176.730469 74.878906 176.589844 74.515625 176.609375 C 74.160156 176.632813 73.863281 176.8125 73.625 177.15625 C 73.414063 177.4375 73.332031 177.710938 73.375 177.96875 C 73.414063 178.230469 73.625 178.5625 74 178.96875 L 74.390625 179.390625 C 74.898438 179.953125 75.179688 180.496094 75.234375 181.015625 C 75.296875 181.535156 75.140625 182.054688 74.765625 182.578125 C 74.316406 183.210938 73.785156 183.554688 73.171875 183.609375 C 72.554688 183.671875 71.878906 183.4375 71.140625 182.90625 C 70.859375 182.707031 70.585938 182.457031 70.328125 182.15625 C 70.066406 181.863281 69.816406 181.535156 69.578125 181.171875 L 70.234375 180.265625 C 70.410156 180.703125 70.613281 181.082031 70.84375 181.40625 C 71.082031 181.726563 71.351563 181.992188 71.65625 182.203125 C 72.101563 182.523438 72.519531 182.671875 72.90625 182.640625 C 73.300781 182.617188 73.628906 182.425781 73.890625 182.0625 C 74.117188 181.738281 74.207031 181.421875 74.15625 181.109375 C 74.113281 180.808594 73.921875 180.464844 73.578125 180.078125 L 73.171875 179.640625 C 72.671875 179.089844 72.382813 178.578125 72.3125 178.109375 C 72.25 177.640625 72.394531 177.15625 72.75 176.65625 C 73.15625 176.074219 73.660156 175.746094 74.265625 175.671875 C 74.867188 175.601563 75.492188 175.792969 76.140625 176.25 C 76.421875 176.449219 76.679688 176.679688 76.921875 176.9375 C 77.171875 177.199219 77.40625 177.496094 77.625 177.828125 Z M 79.882813 179.46875 L 78.898438 180.84375 L 80.382813 181.90625 L 79.945313 182.53125 L 78.460938 181.46875 L 76.570313 184.140625 C 76.277344 184.539063 76.136719 184.828125 76.148438 185.015625 C 76.167969 185.203125 76.335938 185.398438 76.648438 185.609375 L 77.382813 186.140625 L 76.898438 186.8125 L 76.164063 186.28125 C 75.601563 185.882813 75.292969 185.492188 75.242188 185.109375 C 75.199219 184.722656 75.398438 184.230469 75.835938 183.625 L 77.726563 180.953125 L 77.195313 180.578125 L 77.632813 179.953125 L 78.164063 180.328125 L 79.148438 178.953125 Z M 83.484375 187.542969 L 83.203125 187.933594 L 79.875 185.542969 C 79.507813 186.117188 79.359375 186.644531 79.421875 187.121094 C 79.484375 187.609375 79.753906 188.027344 80.234375 188.371094 C 80.515625 188.566406 80.804688 188.722656 81.109375 188.839844 C 81.421875 188.953125 81.757813 189.03125 82.125 189.074219 L 81.59375 189.824219 C 81.238281 189.761719 80.898438 189.660156 80.578125 189.527344 C 80.265625 189.390625 79.96875 189.222656 79.6875 189.027344 C 78.988281 188.515625 78.597656 187.886719 78.515625 187.136719 C 78.429688 186.386719 78.671875 185.628906 79.234375 184.855469 C 79.804688 184.066406 80.457031 183.574219 81.1875 183.386719 C 81.914063 183.199219 82.609375 183.347656 83.265625 183.824219 C 83.859375 184.253906 84.171875 184.800781 84.203125 185.464844 C 84.242188 186.132813 84.003906 186.824219 83.484375 187.542969 Z M 82.921875 186.792969 C 83.234375 186.347656 83.378906 185.917969 83.359375 185.511719 C 83.335938 185.097656 83.148438 184.761719 82.796875 184.511719 C 82.390625 184.210938 81.96875 184.101563 81.53125 184.183594 C 81.101563 184.257813 80.710938 184.507813 80.359375 184.933594 Z M 86.296875 186.210938 L 87.015625 186.742188 L 83.421875 191.554688 L 82.703125 191.023438 Z M 87.703125 184.320313 L 88.421875 184.851563 L 87.671875 185.867188 L 86.953125 185.335938 Z M 90.617188 192.535156 L 88.398438 195.394531 L 87.695313 194.847656 L 89.898438 192.003906 C 90.242188 191.558594 90.417969 191.160156 90.429688 190.816406 C 90.4375 190.464844 90.289063 190.167969 89.976563 189.925781 C 89.601563 189.636719 89.199219 189.535156 88.773438 189.628906 C 88.355469 189.722656 87.964844 190.003906 87.601563 190.472656 L 85.523438 193.160156 L 84.804688 192.613281 L 88.492188 187.863281 L 89.210938 188.410156 L 88.632813 189.144531 C 89.015625 188.988281 89.375 188.925781 89.710938 188.957031 C 90.042969 188.988281 90.367188 189.125 90.679688 189.363281 C 91.15625 189.738281 91.390625 190.199219 91.382813 190.738281 C 91.382813 191.269531 91.125 191.871094 90.617188 192.535156 Z M 96.507813 198.382813 C 96.578125 198.589844 96.585938 198.851563 96.523438 199.164063 C 96.460938 199.476563 96.324219 199.859375 96.117188 200.320313 L 95.132813 202.507813 L 94.445313 201.726563 L 95.382813 199.679688 C 95.621094 199.148438 95.730469 198.734375 95.710938 198.445313 C 95.699219 198.152344 95.570313 197.867188 95.320313 197.585938 L 94.617188 196.789063 L 92.070313 199.039063 L 91.414063 198.289063 L 97.429688 192.992188 L 98.882813 194.648438 C 99.433594 195.273438 99.699219 195.863281 99.679688 196.414063 C 99.65625 196.96875 99.355469 197.503906 98.773438 198.023438 C 98.398438 198.34375 98.015625 198.539063 97.632813 198.601563 C 97.246094 198.671875 96.871094 198.601563 96.507813 198.382813 Z M 97.414063 194.320313 L 95.273438 196.210938 L 96.070313 197.117188 C 96.390625 197.484375 96.71875 197.667969 97.054688 197.679688 C 97.398438 197.699219 97.746094 197.5625 98.101563 197.257813 C 98.445313 196.945313 98.625 196.625 98.648438 196.289063 C 98.679688 195.945313 98.53125 195.59375 98.210938 195.226563 Z M 101.0625 201.898438 C 100.800781 201.492188 100.421875 201.289063 99.921875 201.289063 C 99.429688 201.28125 98.882813 201.472656 98.28125 201.867188 C 97.675781 202.25 97.273438 202.667969 97.078125 203.117188 C 96.878906 203.574219 96.910156 204.007813 97.171875 204.414063 C 97.429688 204.808594 97.804688 205.011719 98.296875 205.023438 C 98.796875 205.03125 99.347656 204.84375 99.953125 204.460938 C 100.554688 204.0625 100.957031 203.636719 101.15625 203.179688 C 101.351563 202.71875 101.320313 202.292969 101.0625 201.898438 Z M 101.765625 201.445313 C 102.191406 202.09375 102.289063 202.746094 102.0625 203.414063 C 101.832031 204.089844 101.300781 204.699219 100.46875 205.242188 C 99.644531 205.773438 98.878906 206 98.171875 205.929688 C 97.460938 205.867188 96.894531 205.511719 96.46875 204.867188 C 96.050781 204.210938 95.957031 203.542969 96.1875 202.867188 C 96.414063 202.203125 96.941406 201.601563 97.765625 201.070313 C 98.597656 200.53125 99.367188 200.296875 100.078125 200.367188 C 100.785156 200.429688 101.347656 200.789063 101.765625 201.445313 Z M 102.320313 208.582031 C 101.976563 207.945313 101.65625 207.550781 101.367188 207.394531 C 101.085938 207.238281 100.746094 207.261719 100.351563 207.472656 C 100.046875 207.628906 99.851563 207.847656 99.757813 208.128906 C 99.671875 208.410156 99.714844 208.707031 99.882813 209.019531 C 100.121094 209.464844 100.480469 209.726563 100.960938 209.800781 C 101.449219 209.882813 101.976563 209.773438 102.539063 209.472656 L 102.742188 209.363281 Z M 103.507813 209.957031 L 100.476563 211.566406 L 100.070313 210.785156 L 100.867188 210.363281 C 100.4375 210.339844 100.078125 210.238281 99.789063 210.050781 C 99.496094 209.871094 99.246094 209.589844 99.039063 209.207031 C 98.777344 208.714844 98.71875 208.246094 98.867188 207.800781 C 99.023438 207.351563 99.359375 206.988281 99.882813 206.707031 C 100.476563 206.394531 101.015625 206.339844 101.507813 206.535156 C 102.007813 206.722656 102.449219 207.175781 102.835938 207.894531 L 103.429688 209.003906 L 103.507813 208.957031 C 103.914063 208.746094 104.15625 208.460938 104.242188 208.097656 C 104.335938 207.742188 104.265625 207.351563 104.039063 206.925781 C 103.890625 206.65625 103.714844 206.410156 103.507813 206.191406 C 103.296875 205.972656 103.058594 205.78125 102.789063 205.613281 L 103.585938 205.191406 C 103.867188 205.410156 104.105469 205.640625 104.304688 205.878906 C 104.511719 206.109375 104.683594 206.355469 104.820313 206.613281 C 105.183594 207.300781 105.257813 207.917969 105.039063 208.472656 C 104.828125 209.035156 104.320313 209.527344 103.507813 209.957031 Z M 107.195313 214.1875 L 110.195313 212.921875 L 110.539063 213.75 L 102.835938 217 L 102.492188 216.171875 L 103.320313 215.8125 C 102.914063 215.789063 102.574219 215.679688 102.304688 215.484375 C 102.042969 215.285156 101.835938 215.003906 101.679688 214.640625 C 101.417969 214.035156 101.476563 213.429688 101.851563 212.828125 C 102.226563 212.222656 102.851563 211.734375 103.726563 211.359375 C 104.601563 210.996094 105.382813 210.890625 106.070313 211.046875 C 106.757813 211.203125 107.230469 211.585938 107.492188 212.1875 C 107.648438 212.550781 107.699219 212.898438 107.648438 213.234375 C 107.605469 213.566406 107.453125 213.882813 107.195313 214.1875 Z M 104.085938 212.21875 C 103.40625 212.507813 102.929688 212.851563 102.648438 213.25 C 102.375 213.65625 102.335938 214.070313 102.523438 214.5 C 102.710938 214.9375 103.042969 215.203125 103.523438 215.296875 C 104 215.390625 104.578125 215.289063 105.257813 215 C 105.921875 214.71875 106.390625 214.367188 106.664063 213.953125 C 106.945313 213.546875 106.992188 213.125 106.804688 212.6875 C 106.617188 212.257813 106.28125 212.007813 105.804688 211.921875 C 105.324219 211.839844 104.75 211.9375 104.085938 212.21875 Z M 104.085938 212.21875 "/>
</g>
</svg>

