<?xml version="1.0" encoding="UTF-8"?>
<svg xmlns="http://www.w3.org/2000/svg" xmlns:xlink="http://www.w3.org/1999/xlink" width="256pt" height="256pt" viewBox="0 0 256 256" version="1.1">
<g id="surface2">
<rect x="0" y="0" width="256" height="256" style="fill:rgb(94.901961%,93.72549%,91.372549%);fill-opacity:1;stroke:none;"/>
<path style="fill:none;stroke-width:2;stroke-linecap:round;stroke-linejoin:round;stroke:rgb(60%,70.196078%,80%);stroke-opacity:1;stroke-miterlimit:10;" d="M 258 136.007813 L 244.457031 146.617188 L 230.628906 156.4375 L 223.195313 165.050781 L 208.816406 173.09375 L 195.425781 183.050781 L 185.214844 192.183594 L 175.832031 203.625 L 158.207031 219.9375 L 145.441406 231.628906 L 128.378906 248.882813 L 118.429688 258 "/>
<path style="fill:none;stroke-width:1;stroke-linecap:round;stroke-linejoin:round;stroke:rgb(100%,100%,100%);stroke-opacity:1;stroke-dasharray:2,3;stroke-miterlimit:10;" d="M 142.058594 257 L 214.648438 184.335938 L 257 155.828125 "/>
<path style="fill:none;stroke-width:3;stroke-linecap:round;stroke-linejoin:round;stroke:rgb(100%,100%,100%);stroke-opacity:1;stroke-miterlimit:10;" d="M 155.738281 217.734375 C 155.21875 218.214844 155.003906 218.8125 155.097656 219.53125 C 155.183594 220.25 155.566406 220.984375 156.253906 221.734375 C 156.933594 222.476563 157.625 222.917969 158.332031 223.0625 C 159.050781 223.210938 159.667969 223.042969 160.191406 222.5625 C 160.710938 222.085938 160.917969 221.492188 160.816406 220.78125 C 160.722656 220.0625 160.335938 219.335938 159.660156 218.59375 C 158.972656 217.84375 158.277344 217.398438 157.582031 217.25 C 156.875 217.09375 156.261719 217.257813 155.738281 217.734375 Z M 155.144531 217.078125 C 155.886719 216.390625 156.734375 216.121094 157.691406 216.265625 C 158.648438 216.414063 159.558594 216.953125 160.425781 217.890625 C 161.277344 218.820313 161.738281 219.765625 161.800781 220.734375 C 161.863281 221.695313 161.523438 222.515625 160.785156 223.203125 C 160.035156 223.890625 159.179688 224.167969 158.222656 224.03125 C 157.265625 223.886719 156.359375 223.351563 155.503906 222.421875 C 154.640625 221.484375 154.175781 220.53125 154.113281 219.5625 C 154.050781 218.59375 154.394531 217.765625 155.144531 217.078125 Z M 164.238281 218.566406 L 166.394531 220.910156 L 165.738281 221.519531 L 160.097656 215.425781 L 160.753906 214.816406 L 161.378906 215.488281 C 161.285156 215.105469 161.28125 214.753906 161.363281 214.441406 C 161.449219 214.121094 161.640625 213.816406 161.941406 213.535156 C 162.421875 213.097656 163.003906 212.953125 163.691406 213.097656 C 164.386719 213.246094 165.058594 213.667969 165.707031 214.363281 C 166.339844 215.0625 166.707031 215.761719 166.800781 216.457031 C 166.902344 217.15625 166.714844 217.722656 166.238281 218.160156 C 165.933594 218.441406 165.621094 218.621094 165.300781 218.691406 C 164.976563 218.753906 164.621094 218.714844 164.238281 218.566406 Z M 165.035156 214.988281 C 164.535156 214.457031 164.042969 214.128906 163.566406 214.003906 C 163.097656 213.878906 162.691406 213.980469 162.347656 214.300781 C 161.996094 214.625 161.859375 215.03125 161.941406 215.519531 C 162.027344 216 162.316406 216.503906 162.816406 217.035156 C 163.308594 217.566406 163.789063 217.894531 164.269531 218.019531 C 164.746094 218.136719 165.164063 218.03125 165.519531 217.707031 C 165.863281 217.386719 165.988281 216.984375 165.894531 216.503906 C 165.808594 216.027344 165.523438 215.519531 165.035156 214.988281 Z M 168.566406 211.675781 C 168.046875 212.15625 167.75 212.558594 167.675781 212.878906 C 167.605469 213.203125 167.714844 213.527344 168.003906 213.847656 C 168.242188 214.097656 168.507813 214.230469 168.800781 214.238281 C 169.089844 214.25 169.367188 214.136719 169.628906 213.894531 C 169.992188 213.5625 170.148438 213.152344 170.097656 212.660156 C 170.054688 212.171875 169.816406 211.699219 169.378906 211.238281 L 169.222656 211.066406 Z M 169.613281 210.160156 L 171.941406 212.675781 L 171.285156 213.285156 L 170.675781 212.613281 C 170.757813 213.019531 170.746094 213.390625 170.644531 213.722656 C 170.550781 214.058594 170.339844 214.371094 170.019531 214.660156 C 169.613281 215.035156 169.167969 215.214844 168.691406 215.191406 C 168.222656 215.160156 167.792969 214.933594 167.394531 214.503906 C 166.9375 214.003906 166.738281 213.496094 166.800781 212.972656 C 166.863281 212.441406 167.191406 211.902344 167.785156 211.347656 L 168.707031 210.503906 L 168.644531 210.425781 C 168.332031 210.09375 167.996094 209.925781 167.628906 209.925781 C 167.253906 209.925781 166.886719 210.09375 166.519531 210.425781 C 166.300781 210.636719 166.113281 210.875 165.957031 211.144531 C 165.792969 211.40625 165.667969 211.683594 165.582031 211.972656 L 164.972656 211.316406 C 165.121094 210.972656 165.28125 210.675781 165.457031 210.425781 C 165.625 210.175781 165.816406 209.953125 166.035156 209.753906 C 166.609375 209.222656 167.191406 208.988281 167.785156 209.050781 C 168.378906 209.113281 168.988281 209.484375 169.613281 210.160156 Z M 167.609375 205.289063 L 168.265625 204.695313 L 173.9375 210.835938 L 173.28125 211.429688 Z M 176.425781 203.972656 L 176.769531 204.316406 L 173.816406 207.144531 C 174.316406 207.605469 174.804688 207.847656 175.285156 207.878906 C 175.773438 207.902344 176.230469 207.707031 176.660156 207.300781 C 176.898438 207.074219 177.097656 206.8125 177.253906 206.519531 C 177.417969 206.230469 177.558594 205.910156 177.675781 205.566406 L 178.316406 206.238281 C 178.191406 206.5625 178.035156 206.871094 177.847656 207.160156 C 177.660156 207.453125 177.441406 207.714844 177.191406 207.941406 C 176.566406 208.546875 175.878906 208.824219 175.128906 208.769531 C 174.378906 208.71875 173.671875 208.34375 173.003906 207.644531 C 172.328125 206.9375 171.96875 206.207031 171.925781 205.457031 C 171.875 204.707031 172.140625 204.050781 172.722656 203.488281 C 173.253906 202.988281 173.855469 202.785156 174.519531 202.878906 C 175.175781 202.964844 175.808594 203.328125 176.425781 203.972656 Z M 175.582031 204.363281 C 175.195313 203.980469 174.800781 203.765625 174.394531 203.722656 C 173.980469 203.671875 173.613281 203.796875 173.300781 204.097656 C 172.9375 204.441406 172.753906 204.832031 172.753906 205.269531 C 172.753906 205.699219 172.933594 206.128906 173.285156 206.566406 Z M 177.652344 198.503906 L 178.371094 199.097656 C 178.089844 199.203125 177.839844 199.339844 177.621094 199.503906 C 177.402344 199.660156 177.199219 199.855469 177.011719 200.082031 C 176.730469 200.425781 176.582031 200.734375 176.558594 201.003906 C 176.539063 201.265625 176.636719 201.488281 176.855469 201.675781 C 177.035156 201.824219 177.226563 201.878906 177.433594 201.847656 C 177.632813 201.808594 177.933594 201.636719 178.339844 201.332031 L 178.589844 201.160156 C 179.101563 200.753906 179.546875 200.542969 179.933594 200.519531 C 180.316406 200.488281 180.699219 200.628906 181.074219 200.941406 C 181.5 201.285156 181.714844 201.71875 181.714844 202.238281 C 181.714844 202.75 181.496094 203.269531 181.058594 203.800781 C 180.871094 204.03125 180.652344 204.25 180.402344 204.457031 C 180.152344 204.65625 179.871094 204.855469 179.558594 205.050781 L 178.777344 204.410156 C 179.132813 204.265625 179.441406 204.105469 179.714844 203.925781 C 179.996094 203.738281 180.234375 203.527344 180.433594 203.285156 C 180.691406 202.964844 180.832031 202.660156 180.855469 202.378906 C 180.875 202.097656 180.777344 201.871094 180.558594 201.691406 C 180.347656 201.515625 180.136719 201.449219 179.917969 201.488281 C 179.699219 201.519531 179.367188 201.707031 178.917969 202.050781 L 178.652344 202.222656 C 178.207031 202.578125 177.804688 202.765625 177.449219 202.785156 C 177.085938 202.796875 176.722656 202.65625 176.355469 202.363281 C 175.917969 202.011719 175.695313 201.597656 175.683594 201.128906 C 175.675781 200.652344 175.882813 200.15625 176.308594 199.644531 C 176.507813 199.394531 176.722656 199.175781 176.949219 198.988281 C 177.179688 198.792969 177.414063 198.628906 177.652344 198.503906 Z M 181.25 194.203125 L 181.96875 194.796875 C 181.6875 194.890625 181.4375 195.011719 181.21875 195.15625 C 180.992188 195.304688 180.792969 195.476563 180.625 195.671875 C 180.261719 196.121094 180.136719 196.601563 180.25 197.109375 C 180.367188 197.609375 180.710938 198.09375 181.28125 198.5625 C 181.84375 199.03125 182.382813 199.273438 182.890625 199.28125 C 183.410156 199.28125 183.851563 199.058594 184.21875 198.609375 C 184.382813 198.414063 184.519531 198.195313 184.625 197.953125 C 184.726563 197.714844 184.800781 197.449219 184.84375 197.15625 L 185.53125 197.71875 C 185.476563 198.011719 185.390625 198.277344 185.265625 198.515625 C 185.148438 198.757813 185.003906 198.992188 184.828125 199.21875 C 184.304688 199.855469 183.671875 200.179688 182.921875 200.1875 C 182.171875 200.199219 181.429688 199.898438 180.6875 199.28125 C 179.929688 198.667969 179.484375 197.996094 179.359375 197.265625 C 179.226563 196.527344 179.429688 195.828125 179.96875 195.171875 C 180.136719 194.964844 180.328125 194.78125 180.546875 194.625 C 180.765625 194.460938 181 194.320313 181.25 194.203125 Z M 187.351563 191.324219 L 187.710938 191.652344 L 184.914063 194.636719 C 185.4375 195.074219 185.9375 195.292969 186.429688 195.292969 C 186.917969 195.292969 187.359375 195.082031 187.757813 194.652344 C 187.996094 194.402344 188.1875 194.132813 188.335938 193.839844 C 188.480469 193.539063 188.601563 193.210938 188.695313 192.855469 L 189.367188 193.480469 C 189.25 193.824219 189.109375 194.148438 188.945313 194.449219 C 188.777344 194.742188 188.574219 195.011719 188.335938 195.261719 C 187.742188 195.898438 187.070313 196.210938 186.320313 196.199219 C 185.570313 196.179688 184.847656 195.839844 184.148438 195.183594 C 183.441406 194.507813 183.039063 193.800781 182.945313 193.058594 C 182.851563 192.320313 183.082031 191.652344 183.632813 191.058594 C 184.132813 190.527344 184.71875 190.289063 185.382813 190.339844 C 186.046875 190.382813 186.703125 190.710938 187.351563 191.324219 Z M 186.523438 191.777344 C 186.125 191.414063 185.726563 191.214844 185.320313 191.183594 C 184.90625 191.152344 184.546875 191.300781 184.242188 191.621094 C 183.898438 191.988281 183.738281 192.386719 183.757813 192.824219 C 183.78125 193.253906 183.984375 193.675781 184.367188 194.089844 Z M 191.457031 187.089844 L 193.878906 189.792969 L 193.222656 190.386719 L 190.832031 187.714844 C 190.445313 187.289063 190.085938 187.039063 189.753906 186.964844 C 189.410156 186.882813 189.089844 186.972656 188.785156 187.230469 C 188.433594 187.554688 188.265625 187.933594 188.285156 188.371094 C 188.308594 188.808594 188.515625 189.246094 188.910156 189.683594 L 191.175781 192.214844 L 190.488281 192.824219 L 186.472656 188.339844 L 187.160156 187.730469 L 187.785156 188.433594 C 187.703125 188.027344 187.707031 187.664063 187.800781 187.339844 C 187.894531 187.007813 188.082031 186.714844 188.363281 186.464844 C 188.824219 186.050781 189.3125 185.894531 189.832031 185.996094 C 190.363281 186.101563 190.902344 186.464844 191.457031 187.089844 Z M 190.71875 182.277344 L 191.84375 183.542969 L 193.21875 182.324219 L 193.734375 182.902344 L 192.359375 184.121094 L 194.53125 186.542969 C 194.863281 186.910156 195.125 187.101563 195.3125 187.121094 C 195.5 187.144531 195.726563 187.027344 196 186.777344 L 196.6875 186.183594 L 197.234375 186.808594 L 196.546875 187.402344 C 196.035156 187.863281 195.585938 188.074219 195.203125 188.042969 C 194.816406 188.003906 194.375 187.699219 193.875 187.136719 L 191.703125 184.714844 L 191.21875 185.152344 L 190.703125 184.574219 L 191.1875 184.136719 L 190.0625 182.871094 Z M 200.871094 179.296875 C 201.089844 179.234375 201.347656 179.25 201.652344 179.34375 C 201.964844 179.429688 202.339844 179.59375 202.777344 179.84375 L 204.886719 181 L 204.042969 181.625 L 202.074219 180.515625 C 201.5625 180.234375 201.167969 180.09375 200.886719 180.09375 C 200.605469 180.085938 200.308594 180.195313 199.996094 180.421875 L 199.136719 181.046875 L 201.152344 183.765625 L 200.371094 184.359375 L 195.589844 177.921875 L 197.355469 176.609375 C 198.023438 176.109375 198.632813 175.898438 199.183594 175.96875 C 199.734375 176.03125 200.238281 176.375 200.699219 177 C 201 177.40625 201.167969 177.808594 201.199219 178.203125 C 201.230469 178.589844 201.121094 178.953125 200.871094 179.296875 Z M 196.902344 178.046875 L 198.605469 180.328125 L 199.589844 179.609375 C 199.972656 179.320313 200.1875 179.007813 200.230469 178.671875 C 200.28125 178.339844 200.167969 177.984375 199.886719 177.609375 C 199.605469 177.234375 199.300781 177.023438 198.964844 176.96875 C 198.632813 176.917969 198.273438 177.039063 197.886719 177.328125 Z M 202.265625 175.445313 L 202.984375 174.914063 L 206.578125 179.742188 L 205.859375 180.273438 Z M 200.875 173.570313 L 201.59375 173.039063 L 202.34375 174.039063 L 201.625 174.570313 Z M 203.992188 174.167969 L 204.757813 173.621094 L 209.070313 176.761719 L 207.523438 171.667969 L 208.289063 171.121094 L 210.117188 177.199219 L 209.148438 177.902344 Z M 214.921875 170.527344 L 215.171875 170.964844 L 211.59375 172.964844 C 211.957031 173.527344 212.367188 173.886719 212.828125 174.042969 C 213.296875 174.191406 213.785156 174.121094 214.296875 173.839844 C 214.597656 173.664063 214.863281 173.460938 215.09375 173.230469 C 215.320313 172.992188 215.53125 172.714844 215.71875 172.402344 L 216.171875 173.214844 C 215.972656 173.507813 215.742188 173.769531 215.484375 173.996094 C 215.234375 174.226563 214.960938 174.425781 214.671875 174.589844 C 213.910156 175.019531 213.175781 175.113281 212.46875 174.871094 C 211.757813 174.621094 211.171875 174.082031 210.703125 173.246094 C 210.226563 172.394531 210.054688 171.597656 210.1875 170.855469 C 210.324219 170.117188 210.746094 169.550781 211.453125 169.152344 C 212.085938 168.800781 212.710938 168.746094 213.328125 168.996094 C 213.953125 169.238281 214.484375 169.746094 214.921875 170.527344 Z M 214 170.714844 C 213.726563 170.257813 213.398438 169.949219 213.015625 169.792969 C 212.628906 169.628906 212.25 169.648438 211.875 169.855469 C 211.4375 170.105469 211.164063 170.445313 211.046875 170.871094 C 210.933594 171.289063 210.996094 171.753906 211.234375 172.261719 Z M 218.050781 166.691406 C 217.925781 166.671875 217.800781 166.683594 217.675781 166.722656 C 217.558594 166.753906 217.445313 166.800781 217.332031 166.863281 C 216.886719 167.113281 216.636719 167.464844 216.582031 167.910156 C 216.519531 168.359375 216.65625 168.878906 216.988281 169.472656 L 218.535156 172.238281 L 217.753906 172.675781 L 214.816406 167.425781 L 215.597656 166.988281 L 216.050781 167.800781 C 216.042969 167.394531 216.125 167.042969 216.300781 166.738281 C 216.480469 166.4375 216.753906 166.183594 217.128906 165.972656 C 217.179688 165.941406 217.238281 165.910156 217.300781 165.878906 C 217.371094 165.847656 217.449219 165.824219 217.535156 165.800781 Z M 218.050781 166.691406 "/>
<path style=" stroke:none;fill-rule:evenodd;fill:rgb(41.960784%,58.039216%,69.019608%);fill-opacity:1;" d="M 155.738281 217.734375 C 155.21875 218.214844 155.003906 218.8125 155.097656 219.53125 C 155.183594 220.25 155.566406 220.984375 156.253906 221.734375 C 156.933594 222.476563 157.625 222.917969 158.332031 223.0625 C 159.050781 223.210938 159.667969 223.042969 160.191406 222.5625 C 160.710938 222.085938 160.917969 221.492188 160.816406 220.78125 C 160.722656 220.0625 160.335938 219.335938 159.660156 218.59375 C 158.972656 217.84375 158.277344 217.398438 157.582031 217.25 C 156.875 217.09375 156.261719 217.257813 155.738281 217.734375 Z M 155.144531 217.078125 C 155.886719 216.390625 156.734375 216.121094 157.691406 216.265625 C 158.648438 216.414063 159.558594 216.953125 160.425781 217.890625 C 161.277344 218.820313 161.738281 219.765625 161.800781 220.734375 C 161.863281 221.695313 161.523438 222.515625 160.785156 223.203125 C 160.035156 223.890625 159.179688 224.167969 158.222656 224.03125 C 157.265625 223.886719 156.359375 223.351563 155.503906 222.421875 C 154.640625 221.484375 154.175781 220.53125 154.113281 219.5625 C 154.050781 218.59375 154.394531 217.765625 155.144531 217.078125 Z M 164.238281 218.566406 L 166.394531 220.910156 L 165.738281 221.519531 L 160.097656 215.425781 L 160.753906 214.816406 L 161.378906 215.488281 C 161.285156 215.105469 161.28125 214.753906 161.363281 214.441406 C 161.449219 214.121094 161.640625 213.816406 161.941406 213.535156 C 162.421875 213.097656 163.003906 212.953125 163.691406 213.097656 C 164.386719 213.246094 165.058594 213.667969 165.707031 214.363281 C 166.339844 215.0625 166.707031 215.761719 166.800781 216.457031 C 166.902344 217.15625 166.714844 217.722656 166.238281 218.160156 C 165.933594 218.441406 165.621094 218.621094 165.300781 218.691406 C 164.976563 218.753906 164.621094 218.714844 164.238281 218.566406 Z M 165.035156 214.988281 C 164.535156 214.457031 164.042969 214.128906 163.566406 214.003906 C 163.097656 213.878906 162.691406 213.980469 162.347656 214.300781 C 161.996094 214.625 161.859375 215.03125 161.941406 215.519531 C 162.027344 216 162.316406 216.503906 162.816406 217.035156 C 163.308594 217.566406 163.789063 217.894531 164.269531 218.019531 C 164.746094 218.136719 165.164063 218.03125 165.519531 217.707031 C 165.863281 217.386719 165.988281 216.984375 165.894531 216.503906 C 165.808594 216.027344 165.523438 215.519531 165.035156 214.988281 Z M 168.566406 211.675781 C 168.046875 212.15625 167.75 212.558594 167.675781 212.878906 C 167.605469 213.203125 167.714844 213.527344 168.003906 213.847656 C 168.242188 214.097656 168.507813 214.230469 168.800781 214.238281 C 169.089844 214.25 169.367188 214.136719 169.628906 213.894531 C 169.992188 213.5625 170.148438 213.152344 170.097656 212.660156 C 170.054688 212.171875 169.816406 211.699219 169.378906 211.238281 L 169.222656 211.066406 Z M 169.613281 210.160156 L 171.941406 212.675781 L 171.285156 213.285156 L 170.675781 212.613281 C 170.757813 213.019531 170.746094 213.390625 170.644531 213.722656 C 170.550781 214.058594 170.339844 214.371094 170.019531 214.660156 C 169.613281 215.035156 169.167969 215.214844 168.691406 215.191406 C 168.222656 215.160156 167.792969 214.933594 167.394531 214.503906 C 166.9375 214.003906 166.738281 213.496094 166.800781 212.972656 C 166.863281 212.441406 167.191406 211.902344 167.785156 211.347656 L 168.707031 210.503906 L 168.644531 210.425781 C 168.332031 210.09375 167.996094 209.925781 167.628906 209.925781 C 167.253906 209.925781 166.886719 210.09375 166.519531 210.425781 C 166.300781 210.636719 166.113281 210.875 165.957031 211.144531 C 165.792969 211.40625 165.667969 211.683594 165.582031 211.972656 L 164.972656 211.316406 C 165.121094 210.972656 165.28125 210.675781 165.457031 210.425781 C 165.625 210.175781 165.816406 209.953125 166.035156 209.753906 C 166.609375 209.222656 167.191406 208.988281 167.785156 209.050781 C 168.378906 209.113281 168.988281 209.484375 169.613281 210.160156 Z M 167.609375 205.289063 L 168.265625 204.695313 L 173.9375 210.835938 L 173.28125 211.429688 Z M 176.425781 203.972656 L 176.769531 204.316406 L 173.816406 207.144531 C 174.316406 207.605469 174.804688 207.847656 175.285156 207.878906 C 175.773438 207.902344 176.230469 207.707031 176.660156 207.300781 C 176.898438 207.074219 177.097656 206.8125 177.253906 206.519531 C 177.417969 206.230469 177.558594 205.910156 177.675781 205.566406 L 178.316406 206.238281 C 178.191406 206.5625 178.035156 206.871094 177.847656 207.160156 C 177.660156 207.453125 177.441406 207.714844 177.191406 207.941406 C 176.566406 208.546875 175.878906 208.824219 175.128906 208.769531 C 174.378906 208.71875 173.671875 208.34375 173.003906 207.644531 C 172.328125 206.9375 171.96875 206.207031 171.925781 205.457031 C 171.875 204.707031 172.140625 204.050781 172.722656 203.488281 C 173.253906 202.988281 173.855469 202.785156 174.519531 202.878906 C 175.175781 202.964844 175.808594 203.328125 176.425781 203.972656 Z M 175.582031 204.363281 C 175.195313 203.980469 174.800781 203.765625 174.394531 203.722656 C 173.980469 203.671875 173.613281 203.796875 173.300781 204.097656 C 172.9375 204.441406 172.753906 204.832031 172.753906 205.269531 C 172.753906 205.699219 172.933594 206.128906 173.285156 206.566406 Z M 177.652344 198.503906 L 178.371094 199.097656 C 178.089844 199.203125 177.839844 199.339844 177.621094 199.503906 C 177.402344 199.660156 177.199219 199.855469 177.011719 200.082031 C 176.730469 200.425781 176.582031 200.734375 176.558594 201.003906 C 176.539063 201.265625 176.636719 201.488281 176.855469 201.675781 C 177.035156 201.824219 177.226563 201.878906 177.433594 201.847656 C 177.632813 201.808594 177.933594 201.636719 178.339844 201.332031 L 178.589844 201.160156 C 179.101563 200.753906 179.546875 200.542969 179.933594 200.519531 C 180.316406 200.488281 180.699219 200.628906 181.074219 200.941406 C 181.5 201.285156 181.714844 201.71875 181.714844 202.238281 C 181.714844 202.75 181.496094 203.269531 181.058594 203.800781 C 180.871094 204.03125 180.652344 204.25 180.402344 204.457031 C 180.152344 204.65625 179.871094 204.855469 179.558594 205.050781 L 178.777344 204.410156 C 179.132813 204.265625 179.441406 204.105469 179.714844 203.925781 C 179.996094 203.738281 180.234375 203.527344 180.433594 203.285156 C 180.691406 202.964844 180.832031 202.660156 180.855469 202.378906 C 180.875 202.097656 180.777344 201.871094 180.558594 201.691406 C 180.347656 201.515625 180.136719 201.449219 179.917969 201.488281 C 179.699219 201.519531 179.367188 201.707031 178.917969 202.050781 L 178.652344 202.222656 C 178.207031 202.578125 177.804688 202.765625 177.449219 202.785156 C 177.085938 202.796875 176.722656 202.65625 176.355469 202.363281 C 175.917969 202.011719 175.695313 201.597656 175.683594 201.128906 C 175.675781 200.652344 175.882813 200.15625 176.308594 199.644531 C 176.507813 199.394531 176.722656 199.175781 176.949219 198.988281 C 177.179688 198.792969 177.414063 198.628906 177.652344 198.503906 Z M 181.25 194.203125 L 181.96875 194.796875 C 181.6875 194.890625 181.4375 195.011719 181.21875 195.15625 C 180.992188 195.304688 180.792969 195.476563 180.625 195.671875 C 180.261719 196.121094 180.136719 196.601563 180.25 197.109375 C 180.367188 197.609375 180.710938 198.09375 181.28125 198.5625 C 181.84375 199.03125 182.382813 199.273438 182.890625 199.28125 C 183.410156 199.28125 183.851563 199.058594 184.21875 198.609375 C 184.382813 198.414063 184.519531 198.195313 184.625 197.953125 C 184.726563 197.714844 184.800781 197.449219 184.84375 197.15625 L 185.53125 197.71875 C 185.476563 198.011719 185.390625 198.277344 185.265625 198.515625 C 185.148438 198.757813 185.003906 198.992188 184.828125 199.21875 C 184.304688 199.855469 183.671875 200.179688 182.921875 200.1875 C 182.171875 200.199219 181.429688 199.898438 180.6875 199.28125 C 179.929688 198.667969 179.484375 197.996094 179.359375 197.265625 C 179.226563 196.527344 179.429688 195.828125 179.96875 195.171875 C 180.136719 194.964844 180.328125 194.78125 180.546875 194.625 C 180.765625 194.460938 181 194.320313 181.25 194.203125 Z M 187.351563 191.324219 L 187.710938 191.652344 L 184.914063 194.636719 C 185.4375 195.074219 185.9375 195.292969 186.429688 195.292969 C 186.917969 195.292969 187.359375 195.082031 187.757813 194.652344 C 187.996094 194.402344 188.1875 194.132813 188.335938 193.839844 C 188.480469 193.539063 188.601563 193.210938 188.695313 192.855469 L 189.367188 193.480469 C 189.25 193.824219 189.109375 194.148438 188.945313 194.449219 C 188.777344 194.742188 188.574219 195.011719 188.335938 195.261719 C 187.742188 195.898438 187.070313 196.210938 186.320313 196.199219 C 185.570313 196.179688 184.847656 195.839844 184.148438 195.183594 C 183.441406 194.507813 183.039063 193.800781 182.945313 193.058594 C 182.851563 192.320313 183.082031 191.652344 183.632813 191.058594 C 184.132813 190.527344 184.71875 190.289063 185.382813 190.339844 C 186.046875 190.382813 186.703125 190.710938 187.351563 191.324219 Z M 186.523438 191.777344 C 186.125 191.414063 185.726563 191.214844 185.320313 191.183594 C 184.90625 191.152344 184.546875 191.300781 184.242188 191.621094 C 183.898438 191.988281 183.738281 192.386719 183.757813 192.824219 C 183.78125 193.253906 183.984375 193.675781 184.367188 194.089844 Z M 191.457031 187.089844 L 193.878906 189.792969 L 193.222656 190.386719 L 190.832031 187.714844 C 190.445313 187.289063 190.085938 187.039063 189.753906 186.964844 C 189.410156 186.882813 189.089844 186.972656 188.785156 187.230469 C 188.433594 187.554688 188.265625 187.933594 188.285156 188.371094 C 188.308594 188.808594 188.515625 189.246094 188.910156 189.683594 L 191.175781 192.214844 L 190.488281 192.824219 L 186.472656 188.339844 L 187.160156 187.730469 L 187.785156 188.433594 C 187.703125 188.027344 187.707031 187.664063 187.800781 187.339844 C 187.894531 187.007813 188.082031 186.714844 188.363281 186.464844 C 188.824219 186.050781 189.3125 185.894531 189.832031 185.996094 C 190.363281 186.101563 190.902344 186.464844 191.457031 187.089844 Z M 190.71875 182.277344 L 191.84375 183.542969 L 193.21875 182.324219 L 193.734375 182.902344 L 192.359375 184.121094 L 194.53125 186.542969 C 194.863281 186.910156 195.125 187.101563 195.3125 187.121094 C 195.5 187.144531 195.726563 187.027344 196 186.777344 L 196.6875 186.183594 L 197.234375 186.808594 L 196.546875 187.402344 C 196.035156 187.863281 195.585938 188.074219 195.203125 188.042969 C 194.816406 188.003906 194.375 187.699219 193.875 187.136719 L 191.703125 184.714844 L 191.21875 185.152344 L 190.703125 184.574219 L 191.1875 184.136719 L 190.0625 182.871094 Z M 200.871094 179.296875 C 201.089844 179.234375 201.347656 179.25 201.652344 179.34375 C 201.964844 179.429688 202.339844 179.59375 202.777344 179.84375 L 204.886719 181 L 204.042969 181.625 L 202.074219 180.515625 C 201.5625 180.234375 201.167969 180.09375 200.886719 180.09375 C 200.605469 180.085938 200.308594 180.195313 199.996094 180.421875 L 199.136719 181.046875 L 201.152344 183.765625 L 200.371094 184.359375 L 195.589844 177.921875 L 197.355469 176.609375 C 198.023438 176.109375 198.632813 175.898438 199.183594 175.96875 C 199.734375 176.03125 200.238281 176.375 200.699219 177 C 201 177.40625 201.167969 177.808594 201.199219 178.203125 C 201.230469 178.589844 201.121094 178.953125 200.871094 179.296875 Z M 196.902344 178.046875 L 198.605469 180.328125 L 199.589844 179.609375 C 199.972656 179.320313 200.1875 179.007813 200.230469 178.671875 C 200.28125 178.339844 200.167969 177.984375 199.886719 177.609375 C 199.605469 177.234375 199.300781 177.023438 198.964844 176.96875 C 198.632813 176.917969 198.273438 177.039063 197.886719 177.328125 Z M 202.265625 175.445313 L 202.984375 174.914063 L 206.578125 179.742188 L 205.859375 180.273438 Z M 200.875 173.570313 L 201.59375 173.039063 L 202.34375 174.039063 L 201.625 174.570313 Z M 203.992188 174.167969 L 204.757813 173.621094 L 209.070313 176.761719 L 207.523438 171.667969 L 208.289063 171.121094 L 210.117188 177.199219 L 209.148438 177.902344 Z M 214.921875 170.527344 L 215.171875 170.964844 L 211.59375 172.964844 C 211.957031 173.527344 212.367188 173.886719 212.828125 174.042969 C 213.296875 174.191406 213.785156 174.121094 214.296875 173.839844 C 214.597656 173.664063 214.863281 173.460938 215.09375 173.230469 C 215.320313 172.992188 215.53125 172.714844 215.71875 172.402344 L 216.171875 173.214844 C 215.972656 173.507813 215.742188 173.769531 215.484375 173.996094 C 215.234375 174.226563 214.960938 174.425781 214.671875 174.589844 C 213.910156 175.019531 213.175781 175.113281 212.46875 174.871094 C 211.757813 174.621094 211.171875 174.082031 210.703125 173.246094 C 210.226563 172.394531 210.054688 171.597656 210.1875 170.855469 C 210.324219 170.117188 210.746094 169.550781 211.453125 169.152344 C 212.085938 168.800781 212.710938 168.746094 213.328125 168.996094 C 213.953125 169.238281 214.484375 169.746094 214.921875 170.527344 Z M 214 170.714844 C 213.726563 170.257813 213.398438 169.949219 213.015625 169.792969 C 212.628906 169.628906 212.25 169.648438 211.875 169.855469 C 211.4375 170.105469 211.164063 170.445313 211.046875 170.871094 C 210.933594 171.289063 210.996094 171.753906 211.234375 172.261719 Z M 218.050781 166.691406 C 217.925781 166.671875 217.800781 166.683594 217.675781 166.722656 C 217.558594 166.753906 217.445313 166.800781 217.332031 166.863281 C 216.886719 167.113281 216.636719 167.464844 216.582031 167.910156 C 216.519531 168.359375 216.65625 168.878906 216.988281 169.472656 L 218.535156 172.238281 L 217.753906 172.675781 L 214.816406 167.425781 L 215.597656 166.988281 L 216.050781 167.800781 C 216.042969 167.394531 216.125 167.042969 216.300781 166.738281 C 216.480469 166.4375 216.753906 166.183594 217.128906 165.972656 C 217.179688 165.941406 217.238281 165.910156 217.300781 165.878906 C 217.371094 165.847656 217.449219 165.824219 217.535156 165.800781 Z M 218.050781 166.691406 "/>
</g>
</svg>

