<?xml version="1.0" encoding="UTF-8"?>
<svg xmlns="http://www.w3.org/2000/svg" xmlns:xlink="http://www.w3.org/1999/xlink" width="256pt" height="256pt" viewBox="0 0 256 256" version="1.1">
<g id="surface2">
<rect x="0" y="0" width="256" height="256" style="fill:rgb(94.901961%,93.72549%,91.372549%);fill-opacity:1;stroke:none;"/>
<path style=" stroke:none;fill-rule:evenodd;fill:rgb(60%,70.196078%,80%);fill-opacity:1;" d="M -4 -4 L 259 -4 L 259 259 L 259 -4 Z M -4 -4 "/>
<path style="fill:none;stroke-width:1;stroke-linecap:round;stroke-linejoin:round;stroke:rgb(70.196078%,77.647059%,83.137255%);stroke-opacity:1;stroke-miterlimit:10;" d="M -4 -4 L 259 -4 L 259 259 L 259 -4 L -4 -4 "/>
<path style="fill:none;stroke-width:8;stroke-linecap:round;stroke-linejoin:round;stroke:rgb(75.686275%,70.980392%,61.568627%);stroke-opacity:1;stroke-miterlimit:10;" d="M 92.359375 -9 L 74.292969 20.792969 L 61.289063 41.15625 L 58.421875 47.113281 L 55.230469 55.027344 L 52.199219 62.382813 L 50.039063 65.953125 L 47.179688 69.039063 L 44.160156 71.015625 L 40.660156 73.085938 L 35.546875 75.363281 L 29.097656 77.296875 L 24.347656 78.390625 L 19.773438 78.632813 L 14.628906 77.757813 L 7.625 75.988281 L -2.683594 73.394531 L -9 71.566406 "/>
<path style="fill:none;stroke-width:6;stroke-linecap:round;stroke-linejoin:round;stroke:rgb(100%,99.215686%,54.509804%);stroke-opacity:1;stroke-miterlimit:10;" d="M 92.359375 -9 L 74.292969 20.792969 L 61.289063 41.15625 L 58.421875 47.113281 L 55.230469 55.027344 L 52.199219 62.382813 L 50.039063 65.953125 L 47.179688 69.039063 L 44.160156 71.015625 L 40.660156 73.085938 L 35.546875 75.363281 L 29.097656 77.296875 L 24.347656 78.390625 L 19.773438 78.632813 L 14.628906 77.757813 L 7.625 75.988281 L -2.683594 73.394531 L -9 71.566406 "/>
<path style="fill:none;stroke-width:3;stroke-linecap:round;stroke-linejoin:round;stroke:rgb(100%,100%,100%);stroke-opacity:1;stroke-miterlimit:10;" d="M 24.433594 74.234375 L 25.386719 73.984375 L 26.199219 77.15625 L 29.636719 76.28125 L 28.824219 73.109375 L 29.761719 72.875 L 31.746094 80.640625 L 30.808594 80.875 L 29.871094 77.1875 L 26.433594 78.0625 L 27.371094 81.75 L 26.417969 82 Z M 35.207031 76.328125 C 34.527344 76.558594 34.089844 76.808594 33.894531 77.078125 C 33.695313 77.351563 33.667969 77.6875 33.816406 78.09375 C 33.929688 78.429688 34.117188 78.65625 34.378906 78.78125 C 34.648438 78.90625 34.949219 78.914063 35.285156 78.796875 C 35.753906 78.632813 36.058594 78.320313 36.207031 77.859375 C 36.363281 77.390625 36.335938 76.855469 36.128906 76.25 L 36.050781 76.03125 Z M 36.769531 75.359375 L 37.894531 78.609375 L 37.050781 78.890625 L 36.753906 78.03125 C 36.667969 78.449219 36.511719 78.789063 36.285156 79.046875 C 36.054688 79.308594 35.730469 79.511719 35.316406 79.65625 C 34.792969 79.835938 34.324219 79.820313 33.910156 79.609375 C 33.492188 79.390625 33.183594 79.007813 32.988281 78.453125 C 32.769531 77.820313 32.796875 77.273438 33.066406 76.8125 C 33.335938 76.34375 33.851563 75.976563 34.613281 75.703125 L 35.800781 75.296875 L 35.769531 75.21875 C 35.621094 74.78125 35.378906 74.492188 35.035156 74.34375 C 34.699219 74.199219 34.300781 74.210938 33.832031 74.375 C 33.550781 74.46875 33.277344 74.605469 33.019531 74.78125 C 32.769531 74.960938 32.550781 75.167969 32.363281 75.40625 L 32.066406 74.546875 C 32.328125 74.308594 32.59375 74.109375 32.863281 73.953125 C 33.121094 73.789063 33.386719 73.65625 33.660156 73.5625 C 34.398438 73.304688 35.023438 73.324219 35.535156 73.625 C 36.054688 73.917969 36.464844 74.496094 36.769531 75.359375 Z M 40.652344 71.820313 C 40.535156 71.820313 40.417969 71.832031 40.292969 71.851563 C 40.167969 71.863281 40.042969 71.898438 39.917969 71.960938 C 39.457031 72.171875 39.183594 72.5 39.089844 72.945313 C 39.007813 73.394531 39.105469 73.925781 39.386719 74.539063 L 40.714844 77.414063 L 39.902344 77.789063 L 37.371094 72.335938 L 38.183594 71.960938 L 38.589844 72.804688 C 38.613281 72.390625 38.722656 72.039063 38.917969 71.757813 C 39.105469 71.46875 39.394531 71.234375 39.792969 71.054688 C 39.84375 71.035156 39.90625 71.007813 39.980469 70.976563 C 40.050781 70.945313 40.128906 70.925781 40.214844 70.914063 Z M 44.027344 69.792969 C 43.902344 69.792969 43.78125 69.816406 43.667969 69.855469 C 43.550781 69.886719 43.433594 69.933594 43.308594 69.996094 C 42.871094 70.269531 42.636719 70.628906 42.605469 71.074219 C 42.566406 71.523438 42.722656 72.039063 43.074219 72.621094 L 44.699219 75.339844 L 43.917969 75.808594 L 40.824219 70.652344 L 41.605469 70.183594 L 42.089844 70.980469 C 42.058594 70.574219 42.128906 70.222656 42.292969 69.917969 C 42.449219 69.605469 42.710938 69.339844 43.074219 69.121094 C 43.128906 69.089844 43.1875 69.058594 43.261719 69.027344 C 43.332031 68.988281 43.410156 68.957031 43.496094 68.933594 Z M 44.25 68.542969 L 45 68.058594 L 48.296875 73.089844 L 47.546875 73.574219 Z M 42.96875 66.574219 L 43.71875 66.089844 L 44.40625 67.136719 L 43.65625 67.621094 Z M 48.488281 64.765625 L 49.175781 65.390625 C 48.894531 65.484375 48.640625 65.609375 48.410156 65.765625 C 48.171875 65.914063 47.953125 66.089844 47.753906 66.296875 C 47.453125 66.632813 47.285156 66.929688 47.253906 67.1875 C 47.222656 67.449219 47.3125 67.679688 47.519531 67.875 C 47.699219 68.03125 47.886719 68.101563 48.082031 68.078125 C 48.28125 68.046875 48.589844 67.898438 49.003906 67.625 L 49.269531 67.46875 C 49.800781 67.09375 50.257813 66.902344 50.644531 66.890625 C 51.027344 66.882813 51.402344 67.039063 51.769531 67.359375 C 52.175781 67.734375 52.363281 68.183594 52.332031 68.703125 C 52.300781 69.214844 52.050781 69.730469 51.582031 70.25 C 51.382813 70.46875 51.160156 70.671875 50.910156 70.859375 C 50.660156 71.046875 50.367188 71.230469 50.035156 71.40625 L 49.285156 70.71875 C 49.652344 70.59375 49.972656 70.449219 50.253906 70.28125 C 50.535156 70.105469 50.777344 69.902344 50.988281 69.671875 C 51.269531 69.371094 51.425781 69.078125 51.457031 68.796875 C 51.496094 68.515625 51.414063 68.28125 51.207031 68.09375 C 51.007813 67.90625 50.800781 67.828125 50.582031 67.859375 C 50.363281 67.882813 50.019531 68.054688 49.550781 68.375 L 49.269531 68.53125 C 48.8125 68.855469 48.40625 69.023438 48.050781 69.03125 C 47.6875 69.03125 47.332031 68.871094 46.988281 68.546875 C 46.574219 68.171875 46.375 67.75 46.394531 67.28125 C 46.40625 66.804688 46.636719 66.320313 47.082031 65.828125 C 47.300781 65.589844 47.53125 65.382813 47.769531 65.203125 C 48 65.015625 48.238281 64.871094 48.488281 64.765625 Z M 53.457031 61.648438 C 52.800781 61.304688 52.230469 61.160156 51.738281 61.210938 C 51.25 61.253906 50.902344 61.484375 50.691406 61.898438 C 50.464844 62.328125 50.472656 62.753906 50.722656 63.179688 C 50.964844 63.597656 51.410156 63.976563 52.066406 64.320313 C 52.714844 64.65625 53.28125 64.800781 53.769531 64.757813 C 54.246094 64.707031 54.601563 64.46875 54.832031 64.039063 C 55.039063 63.625 55.023438 63.207031 54.785156 62.789063 C 54.542969 62.363281 54.101563 61.984375 53.457031 61.648438 Z M 50.191406 63.335938 C 49.964844 63.015625 49.839844 62.691406 49.816406 62.367188 C 49.785156 62.035156 49.863281 61.6875 50.050781 61.320313 C 50.355469 60.738281 50.859375 60.398438 51.566406 60.304688 C 52.265625 60.210938 53.035156 60.382813 53.878906 60.820313 C 54.710938 61.25 55.289063 61.78125 55.613281 62.414063 C 55.945313 63.039063 55.960938 63.644531 55.660156 64.226563 C 55.472656 64.59375 55.238281 64.859375 54.957031 65.023438 C 54.675781 65.191406 54.332031 65.273438 53.925781 65.273438 L 54.722656 65.695313 L 54.300781 66.492188 L 46.878906 62.648438 L 47.300781 61.851563 Z M 55.050781 59.71875 L 51.691406 58.34375 L 52.019531 57.515625 L 55.363281 58.890625 C 55.875 59.101563 56.300781 59.167969 56.644531 59.09375 C 56.988281 59.023438 57.230469 58.804688 57.378906 58.4375 C 57.566406 57.992188 57.554688 57.574219 57.347656 57.1875 C 57.136719 56.792969 56.765625 56.484375 56.222656 56.265625 L 53.066406 54.96875 L 53.410156 54.15625 L 58.972656 56.4375 L 58.628906 57.25 L 57.769531 56.90625 C 58.027344 57.25 58.183594 57.589844 58.238281 57.921875 C 58.289063 58.246094 58.242188 58.585938 58.097656 58.9375 C 57.867188 59.511719 57.492188 59.867188 56.972656 60 C 56.453125 60.125 55.8125 60.03125 55.050781 59.71875 Z M 52.410156 56.21875 Z M 56.132813 49.886719 C 56.03125 49.960938 55.941406 50.050781 55.867188 50.152344 C 55.796875 50.246094 55.734375 50.355469 55.679688 50.480469 C 55.492188 50.949219 55.519531 51.378906 55.757813 51.761719 C 55.988281 52.148438 56.421875 52.464844 57.054688 52.714844 L 59.992188 53.902344 L 59.648438 54.746094 L 54.070313 52.496094 L 54.414063 51.652344 L 55.289063 51.996094 C 55.019531 51.695313 54.859375 51.371094 54.804688 51.027344 C 54.753906 50.683594 54.804688 50.316406 54.960938 49.917969 C 54.992188 49.855469 55.023438 49.792969 55.054688 49.730469 C 55.085938 49.660156 55.125 49.589844 55.164063 49.527344 Z M 59.796875 46.554688 C 59.132813 46.265625 58.570313 46.164063 58.109375 46.257813 C 57.640625 46.34375 57.308594 46.609375 57.109375 47.054688 C 56.921875 47.484375 56.953125 47.898438 57.203125 48.304688 C 57.453125 48.703125 57.914063 49.046875 58.578125 49.335938 C 59.226563 49.617188 59.78125 49.71875 60.25 49.632813 C 60.710938 49.550781 61.03125 49.296875 61.21875 48.867188 C 61.414063 48.421875 61.390625 47.992188 61.140625 47.585938 C 60.890625 47.179688 60.445313 46.835938 59.796875 46.554688 Z M 62.265625 46.679688 C 63.210938 47.085938 63.832031 47.582031 64.125 48.164063 C 64.414063 48.738281 64.390625 49.414063 64.046875 50.195313 C 63.921875 50.476563 63.78125 50.738281 63.625 50.976563 C 63.46875 51.207031 63.285156 51.414063 63.078125 51.601563 L 62.21875 51.210938 C 62.457031 51.046875 62.660156 50.863281 62.828125 50.664063 C 63.003906 50.457031 63.144531 50.234375 63.25 49.992188 C 63.476563 49.453125 63.5 48.984375 63.3125 48.585938 C 63.125 48.179688 62.71875 47.84375 62.09375 47.570313 L 61.640625 47.367188 C 61.878906 47.679688 62.019531 48.003906 62.0625 48.335938 C 62.113281 48.671875 62.0625 49.019531 61.90625 49.382813 C 61.632813 49.988281 61.160156 50.367188 60.484375 50.523438 C 59.808594 50.671875 59.046875 50.554688 58.203125 50.179688 C 57.351563 49.804688 56.746094 49.320313 56.390625 48.726563 C 56.039063 48.125 55.996094 47.519531 56.265625 46.914063 C 56.421875 46.550781 56.636719 46.273438 56.90625 46.085938 C 57.179688 45.890625 57.515625 45.773438 57.921875 45.742188 L 57.09375 45.382813 L 57.4375 44.570313 Z M 63.53125 38.140625 C 63.710938 38.007813 63.960938 37.921875 64.28125 37.890625 C 64.601563 37.851563 65.015625 37.859375 65.515625 37.921875 L 67.890625 38.25 L 67.34375 39.140625 L 65.109375 38.828125 C 64.523438 38.746094 64.105469 38.757813 63.84375 38.859375 C 63.574219 38.953125 63.335938 39.164063 63.125 39.484375 L 62.5625 40.390625 L 65.4375 42.1875 L 64.921875 43.015625 L 58.125 38.78125 L 59.28125 36.921875 C 59.730469 36.214844 60.21875 35.789063 60.75 35.640625 C 61.28125 35.496094 61.875 35.632813 62.53125 36.046875 C 62.960938 36.308594 63.261719 36.617188 63.4375 36.96875 C 63.605469 37.324219 63.636719 37.714844 63.53125 38.140625 Z M 59.390625 38.421875 L 61.796875 39.921875 L 62.4375 38.890625 C 62.699219 38.484375 62.792969 38.121094 62.71875 37.796875 C 62.636719 37.464844 62.398438 37.171875 62 36.921875 C 61.605469 36.671875 61.246094 36.589844 60.921875 36.671875 C 60.589844 36.746094 60.292969 36.984375 60.03125 37.390625 Z M 65.15625 32.613281 C 64.90625 33.019531 64.882813 33.457031 65.078125 33.925781 C 65.277344 34.386719 65.679688 34.808594 66.28125 35.191406 C 66.886719 35.578125 67.4375 35.765625 67.9375 35.753906 C 68.4375 35.734375 68.8125 35.519531 69.0625 35.113281 C 69.320313 34.71875 69.351563 34.296875 69.15625 33.847656 C 68.957031 33.390625 68.554688 32.96875 67.953125 32.582031 C 67.351563 32.199219 66.796875 32.011719 66.296875 32.019531 C 65.796875 32.019531 65.417969 32.21875 65.15625 32.613281 Z M 64.453125 32.175781 C 64.871094 31.53125 65.433594 31.171875 66.140625 31.097656 C 66.851563 31.027344 67.621094 31.253906 68.453125 31.785156 C 69.273438 32.308594 69.800781 32.90625 70.03125 33.582031 C 70.269531 34.261719 70.179688 34.921875 69.765625 35.566406 C 69.347656 36.234375 68.785156 36.605469 68.078125 36.675781 C 67.371094 36.738281 66.605469 36.511719 65.78125 35.988281 C 64.949219 35.457031 64.417969 34.859375 64.1875 34.191406 C 63.949219 33.515625 64.039063 32.84375 64.453125 32.175781 Z M 70.539063 28.46875 C 70.15625 29.074219 69.96875 29.542969 69.976563 29.875 C 69.988281 30.210938 70.175781 30.496094 70.539063 30.734375 C 70.832031 30.914063 71.125 30.96875 71.414063 30.90625 C 71.703125 30.84375 71.945313 30.667969 72.132813 30.375 C 72.402344 29.949219 72.449219 29.507813 72.273438 29.046875 C 72.105469 28.578125 71.75 28.179688 71.210938 27.84375 L 71.007813 27.71875 Z M 71.164063 26.75 L 74.054688 28.59375 L 73.570313 29.34375 L 72.804688 28.859375 C 73.011719 29.234375 73.101563 29.59375 73.070313 29.9375 C 73.046875 30.28125 72.921875 30.636719 72.695313 31 C 72.390625 31.46875 72.007813 31.75 71.539063 31.84375 C 71.082031 31.9375 70.609375 31.828125 70.117188 31.515625 C 69.546875 31.152344 69.222656 30.703125 69.148438 30.171875 C 69.078125 29.640625 69.257813 29.03125 69.695313 28.34375 L 70.367188 27.296875 L 70.289063 27.25 C 69.90625 27 69.535156 26.921875 69.179688 27.015625 C 68.828125 27.109375 68.519531 27.367188 68.257813 27.78125 C 68.101563 28.03125 67.976563 28.308594 67.882813 28.609375 C 67.789063 28.902344 67.742188 29.210938 67.742188 29.53125 L 66.976563 29.03125 C 67.03125 28.679688 67.109375 28.355469 67.210938 28.0625 C 67.316406 27.773438 67.445313 27.5 67.601563 27.25 C 68.03125 26.59375 68.535156 26.226563 69.117188 26.140625 C 69.703125 26.046875 70.382813 26.25 71.164063 26.75 Z M 72.648438 21.292969 L 69.914063 19.558594 L 70.382813 18.808594 L 77.429688 23.292969 L 76.960938 24.042969 L 76.195313 23.558594 C 76.402344 23.914063 76.496094 24.257813 76.476563 24.589844 C 76.464844 24.925781 76.355469 25.257813 76.148438 25.589844 C 75.792969 26.144531 75.261719 26.441406 74.554688 26.480469 C 73.859375 26.511719 73.109375 26.273438 72.304688 25.761719 C 71.503906 25.253906 70.972656 24.675781 70.710938 24.027344 C 70.441406 23.371094 70.484375 22.769531 70.835938 22.214844 C 71.046875 21.882813 71.300781 21.636719 71.601563 21.480469 C 71.894531 21.324219 72.242188 21.261719 72.648438 21.292969 Z M 72.789063 24.996094 C 73.40625 25.394531 73.960938 25.589844 74.460938 25.589844 C 74.949219 25.582031 75.320313 25.378906 75.570313 24.980469 C 75.828125 24.574219 75.855469 24.148438 75.648438 23.699219 C 75.449219 23.253906 75.042969 22.832031 74.429688 22.433594 C 73.816406 22.039063 73.265625 21.847656 72.773438 21.855469 C 72.273438 21.867188 71.894531 22.074219 71.632813 22.480469 C 71.382813 22.878906 71.363281 23.300781 71.570313 23.746094 C 71.769531 24.183594 72.175781 24.601563 72.789063 24.996094 Z M 72.789063 24.996094 "/>
<path style=" stroke:none;fill-rule:evenodd;fill:rgb(20%,20%,20%);fill-opacity:1;" d="M 24.433594 74.234375 L 25.386719 73.984375 L 26.199219 77.15625 L 29.636719 76.28125 L 28.824219 73.109375 L 29.761719 72.875 L 31.746094 80.640625 L 30.808594 80.875 L 29.871094 77.1875 L 26.433594 78.0625 L 27.371094 81.75 L 26.417969 82 Z M 35.207031 76.328125 C 34.527344 76.558594 34.089844 76.808594 33.894531 77.078125 C 33.695313 77.351563 33.667969 77.6875 33.816406 78.09375 C 33.929688 78.429688 34.117188 78.65625 34.378906 78.78125 C 34.648438 78.90625 34.949219 78.914063 35.285156 78.796875 C 35.753906 78.632813 36.058594 78.320313 36.207031 77.859375 C 36.363281 77.390625 36.335938 76.855469 36.128906 76.25 L 36.050781 76.03125 Z M 36.769531 75.359375 L 37.894531 78.609375 L 37.050781 78.890625 L 36.753906 78.03125 C 36.667969 78.449219 36.511719 78.789063 36.285156 79.046875 C 36.054688 79.308594 35.730469 79.511719 35.316406 79.65625 C 34.792969 79.835938 34.324219 79.820313 33.910156 79.609375 C 33.492188 79.390625 33.183594 79.007813 32.988281 78.453125 C 32.769531 77.820313 32.796875 77.273438 33.066406 76.8125 C 33.335938 76.34375 33.851563 75.976563 34.613281 75.703125 L 35.800781 75.296875 L 35.769531 75.21875 C 35.621094 74.78125 35.378906 74.492188 35.035156 74.34375 C 34.699219 74.199219 34.300781 74.210938 33.832031 74.375 C 33.550781 74.46875 33.277344 74.605469 33.019531 74.78125 C 32.769531 74.960938 32.550781 75.167969 32.363281 75.40625 L 32.066406 74.546875 C 32.328125 74.308594 32.59375 74.109375 32.863281 73.953125 C 33.121094 73.789063 33.386719 73.65625 33.660156 73.5625 C 34.398438 73.304688 35.023438 73.324219 35.535156 73.625 C 36.054688 73.917969 36.464844 74.496094 36.769531 75.359375 Z M 40.652344 71.820313 C 40.535156 71.820313 40.417969 71.832031 40.292969 71.851563 C 40.167969 71.863281 40.042969 71.898438 39.917969 71.960938 C 39.457031 72.171875 39.183594 72.5 39.089844 72.945313 C 39.007813 73.394531 39.105469 73.925781 39.386719 74.539063 L 40.714844 77.414063 L 39.902344 77.789063 L 37.371094 72.335938 L 38.183594 71.960938 L 38.589844 72.804688 C 38.613281 72.390625 38.722656 72.039063 38.917969 71.757813 C 39.105469 71.46875 39.394531 71.234375 39.792969 71.054688 C 39.84375 71.035156 39.90625 71.007813 39.980469 70.976563 C 40.050781 70.945313 40.128906 70.925781 40.214844 70.914063 Z M 44.027344 69.792969 C 43.902344 69.792969 43.78125 69.816406 43.667969 69.855469 C 43.550781 69.886719 43.433594 69.933594 43.308594 69.996094 C 42.871094 70.269531 42.636719 70.628906 42.605469 71.074219 C 42.566406 71.523438 42.722656 72.039063 43.074219 72.621094 L 44.699219 75.339844 L 43.917969 75.808594 L 40.824219 70.652344 L 41.605469 70.183594 L 42.089844 70.980469 C 42.058594 70.574219 42.128906 70.222656 42.292969 69.917969 C 42.449219 69.605469 42.710938 69.339844 43.074219 69.121094 C 43.128906 69.089844 43.1875 69.058594 43.261719 69.027344 C 43.332031 68.988281 43.410156 68.957031 43.496094 68.933594 Z M 44.25 68.542969 L 45 68.058594 L 48.296875 73.089844 L 47.546875 73.574219 Z M 42.96875 66.574219 L 43.71875 66.089844 L 44.40625 67.136719 L 43.65625 67.621094 Z M 48.488281 64.765625 L 49.175781 65.390625 C 48.894531 65.484375 48.640625 65.609375 48.410156 65.765625 C 48.171875 65.914063 47.953125 66.089844 47.753906 66.296875 C 47.453125 66.632813 47.285156 66.929688 47.253906 67.1875 C 47.222656 67.449219 47.3125 67.679688 47.519531 67.875 C 47.699219 68.03125 47.886719 68.101563 48.082031 68.078125 C 48.28125 68.046875 48.589844 67.898438 49.003906 67.625 L 49.269531 67.46875 C 49.800781 67.09375 50.257813 66.902344 50.644531 66.890625 C 51.027344 66.882813 51.402344 67.039063 51.769531 67.359375 C 52.175781 67.734375 52.363281 68.183594 52.332031 68.703125 C 52.300781 69.214844 52.050781 69.730469 51.582031 70.25 C 51.382813 70.46875 51.160156 70.671875 50.910156 70.859375 C 50.660156 71.046875 50.367188 71.230469 50.035156 71.40625 L 49.285156 70.71875 C 49.652344 70.59375 49.972656 70.449219 50.253906 70.28125 C 50.535156 70.105469 50.777344 69.902344 50.988281 69.671875 C 51.269531 69.371094 51.425781 69.078125 51.457031 68.796875 C 51.496094 68.515625 51.414063 68.28125 51.207031 68.09375 C 51.007813 67.90625 50.800781 67.828125 50.582031 67.859375 C 50.363281 67.882813 50.019531 68.054688 49.550781 68.375 L 49.269531 68.53125 C 48.8125 68.855469 48.40625 69.023438 48.050781 69.03125 C 47.6875 69.03125 47.332031 68.871094 46.988281 68.546875 C 46.574219 68.171875 46.375 67.75 46.394531 67.28125 C 46.40625 66.804688 46.636719 66.320313 47.082031 65.828125 C 47.300781 65.589844 47.53125 65.382813 47.769531 65.203125 C 48 65.015625 48.238281 64.871094 48.488281 64.765625 Z M 53.457031 61.648438 C 52.800781 61.304688 52.230469 61.160156 51.738281 61.210938 C 51.25 61.253906 50.902344 61.484375 50.691406 61.898438 C 50.464844 62.328125 50.472656 62.753906 50.722656 63.179688 C 50.964844 63.597656 51.410156 63.976563 52.066406 64.320313 C 52.714844 64.65625 53.28125 64.800781 53.769531 64.757813 C 54.246094 64.707031 54.601563 64.46875 54.832031 64.039063 C 55.039063 63.625 55.023438 63.207031 54.785156 62.789063 C 54.542969 62.363281 54.101563 61.984375 53.457031 61.648438 Z M 50.191406 63.335938 C 49.964844 63.015625 49.839844 62.691406 49.816406 62.367188 C 49.785156 62.035156 49.863281 61.6875 50.050781 61.320313 C 50.355469 60.738281 50.859375 60.398438 51.566406 60.304688 C 52.265625 60.210938 53.035156 60.382813 53.878906 60.820313 C 54.710938 61.25 55.289063 61.78125 55.613281 62.414063 C 55.945313 63.039063 55.960938 63.644531 55.660156 64.226563 C 55.472656 64.59375 55.238281 64.859375 54.957031 65.023438 C 54.675781 65.191406 54.332031 65.273438 53.925781 65.273438 L 54.722656 65.695313 L 54.300781 66.492188 L 46.878906 62.648438 L 47.300781 61.851563 Z M 55.050781 59.71875 L 51.691406 58.34375 L 52.019531 57.515625 L 55.363281 58.890625 C 55.875 59.101563 56.300781 59.167969 56.644531 59.09375 C 56.988281 59.023438 57.230469 58.804688 57.378906 58.4375 C 57.566406 57.992188 57.554688 57.574219 57.347656 57.1875 C 57.136719 56.792969 56.765625 56.484375 56.222656 56.265625 L 53.066406 54.96875 L 53.410156 54.15625 L 58.972656 56.4375 L 58.628906 57.25 L 57.769531 56.90625 C 58.027344 57.25 58.183594 57.589844 58.238281 57.921875 C 58.289063 58.246094 58.242188 58.585938 58.097656 58.9375 C 57.867188 59.511719 57.492188 59.867188 56.972656 60 C 56.453125 60.125 55.8125 60.03125 55.050781 59.71875 Z M 52.410156 56.21875 Z M 56.132813 49.886719 C 56.03125 49.960938 55.941406 50.050781 55.867188 50.152344 C 55.796875 50.246094 55.734375 50.355469 55.679688 50.480469 C 55.492188 50.949219 55.519531 51.378906 55.757813 51.761719 C 55.988281 52.148438 56.421875 52.464844 57.054688 52.714844 L 59.992188 53.902344 L 59.648438 54.746094 L 54.070313 52.496094 L 54.414063 51.652344 L 55.289063 51.996094 C 55.019531 51.695313 54.859375 51.371094 54.804688 51.027344 C 54.753906 50.683594 54.804688 50.316406 54.960938 49.917969 C 54.992188 49.855469 55.023438 49.792969 55.054688 49.730469 C 55.085938 49.660156 55.125 49.589844 55.164063 49.527344 Z M 59.796875 46.554688 C 59.132813 46.265625 58.570313 46.164063 58.109375 46.257813 C 57.640625 46.34375 57.308594 46.609375 57.109375 47.054688 C 56.921875 47.484375 56.953125 47.898438 57.203125 48.304688 C 57.453125 48.703125 57.914063 49.046875 58.578125 49.335938 C 59.226563 49.617188 59.78125 49.71875 60.25 49.632813 C 60.710938 49.550781 61.03125 49.296875 61.21875 48.867188 C 61.414063 48.421875 61.390625 47.992188 61.140625 47.585938 C 60.890625 47.179688 60.445313 46.835938 59.796875 46.554688 Z M 62.265625 46.679688 C 63.210938 47.085938 63.832031 47.582031 64.125 48.164063 C 64.414063 48.738281 64.390625 49.414063 64.046875 50.195313 C 63.921875 50.476563 63.78125 50.738281 63.625 50.976563 C 63.46875 51.207031 63.285156 51.414063 63.078125 51.601563 L 62.21875 51.210938 C 62.457031 51.046875 62.660156 50.863281 62.828125 50.664063 C 63.003906 50.457031 63.144531 50.234375 63.25 49.992188 C 63.476563 49.453125 63.5 48.984375 63.3125 48.585938 C 63.125 48.179688 62.71875 47.84375 62.09375 47.570313 L 61.640625 47.367188 C 61.878906 47.679688 62.019531 48.003906 62.0625 48.335938 C 62.113281 48.671875 62.0625 49.019531 61.90625 49.382813 C 61.632813 49.988281 61.160156 50.367188 60.484375 50.523438 C 59.808594 50.671875 59.046875 50.554688 58.203125 50.179688 C 57.351563 49.804688 56.746094 49.320313 56.390625 48.726563 C 56.039063 48.125 55.996094 47.519531 56.265625 46.914063 C 56.421875 46.550781 56.636719 46.273438 56.90625 46.085938 C 57.179688 45.890625 57.515625 45.773438 57.921875 45.742188 L 57.09375 45.382813 L 57.4375 44.570313 Z M 63.53125 38.140625 C 63.710938 38.007813 63.960938 37.921875 64.28125 37.890625 C 64.601563 37.851563 65.015625 37.859375 65.515625 37.921875 L 67.890625 38.25 L 67.34375 39.140625 L 65.109375 38.828125 C 64.523438 38.746094 64.105469 38.757813 63.84375 38.859375 C 63.574219 38.953125 63.335938 39.164063 63.125 39.484375 L 62.5625 40.390625 L 65.4375 42.1875 L 64.921875 43.015625 L 58.125 38.78125 L 59.28125 36.921875 C 59.730469 36.214844 60.21875 35.789063 60.75 35.640625 C 61.28125 35.496094 61.875 35.632813 62.53125 36.046875 C 62.960938 36.308594 63.261719 36.617188 63.4375 36.96875 C 63.605469 37.324219 63.636719 37.714844 63.53125 38.140625 Z M 59.390625 38.421875 L 61.796875 39.921875 L 62.4375 38.890625 C 62.699219 38.484375 62.792969 38.121094 62.71875 37.796875 C 62.636719 37.464844 62.398438 37.171875 62 36.921875 C 61.605469 36.671875 61.246094 36.589844 60.921875 36.671875 C 60.589844 36.746094 60.292969 36.984375 60.03125 37.390625 Z M 65.15625 32.613281 C 64.90625 33.019531 64.882813 33.457031 65.078125 33.925781 C 65.277344 34.386719 65.679688 34.808594 66.28125 35.191406 C 66.886719 35.578125 67.4375 35.765625 67.9375 35.753906 C 68.4375 35.734375 68.8125 35.519531 69.0625 35.113281 C 69.320313 34.71875 69.351563 34.296875 69.15625 33.847656 C 68.957031 33.390625 68.554688 32.96875 67.953125 32.582031 C 67.351563 32.199219 66.796875 32.011719 66.296875 32.019531 C 65.796875 32.019531 65.417969 32.21875 65.15625 32.613281 Z M 64.453125 32.175781 C 64.871094 31.53125 65.433594 31.171875 66.140625 31.097656 C 66.851563 31.027344 67.621094 31.253906 68.453125 31.785156 C 69.273438 32.308594 69.800781 32.90625 70.03125 33.582031 C 70.269531 34.261719 70.179688 34.921875 69.765625 35.566406 C 69.347656 36.234375 68.785156 36.605469 68.078125 36.675781 C 67.371094 36.738281 66.605469 36.511719 65.78125 35.988281 C 64.949219 35.457031 64.417969 34.859375 64.1875 34.191406 C 63.949219 33.515625 64.039063 32.84375 64.453125 32.175781 Z M 70.539063 28.46875 C 70.15625 29.074219 69.96875 29.542969 69.976563 29.875 C 69.988281 30.210938 70.175781 30.496094 70.539063 30.734375 C 70.832031 30.914063 71.125 30.96875 71.414063 30.90625 C 71.703125 30.84375 71.945313 30.667969 72.132813 30.375 C 72.402344 29.949219 72.449219 29.507813 72.273438 29.046875 C 72.105469 28.578125 71.75 28.179688 71.210938 27.84375 L 71.007813 27.71875 Z M 71.164063 26.75 L 74.054688 28.59375 L 73.570313 29.34375 L 72.804688 28.859375 C 73.011719 29.234375 73.101563 29.59375 73.070313 29.9375 C 73.046875 30.28125 72.921875 30.636719 72.695313 31 C 72.390625 31.46875 72.007813 31.75 71.539063 31.84375 C 71.082031 31.9375 70.609375 31.828125 70.117188 31.515625 C 69.546875 31.152344 69.222656 30.703125 69.148438 30.171875 C 69.078125 29.640625 69.257813 29.03125 69.695313 28.34375 L 70.367188 27.296875 L 70.289063 27.25 C 69.90625 27 69.535156 26.921875 69.179688 27.015625 C 68.828125 27.109375 68.519531 27.367188 68.257813 27.78125 C 68.101563 28.03125 67.976563 28.308594 67.882813 28.609375 C 67.789063 28.902344 67.742188 29.210938 67.742188 29.53125 L 66.976563 29.03125 C 67.03125 28.679688 67.109375 28.355469 67.210938 28.0625 C 67.316406 27.773438 67.445313 27.5 67.601563 27.25 C 68.03125 26.59375 68.535156 26.226563 69.117188 26.140625 C 69.703125 26.046875 70.382813 26.25 71.164063 26.75 Z M 72.648438 21.292969 L 69.914063 19.558594 L 70.382813 18.808594 L 77.429688 23.292969 L 76.960938 24.042969 L 76.195313 23.558594 C 76.402344 23.914063 76.496094 24.257813 76.476563 24.589844 C 76.464844 24.925781 76.355469 25.257813 76.148438 25.589844 C 75.792969 26.144531 75.261719 26.441406 74.554688 26.480469 C 73.859375 26.511719 73.109375 26.273438 72.304688 25.761719 C 71.503906 25.253906 70.972656 24.675781 70.710938 24.027344 C 70.441406 23.371094 70.484375 22.769531 70.835938 22.214844 C 71.046875 21.882813 71.300781 21.636719 71.601563 21.480469 C 71.894531 21.324219 72.242188 21.261719 72.648438 21.292969 Z M 72.789063 24.996094 C 73.40625 25.394531 73.960938 25.589844 74.460938 25.589844 C 74.949219 25.582031 75.320313 25.378906 75.570313 24.980469 C 75.828125 24.574219 75.855469 24.148438 75.648438 23.699219 C 75.449219 23.253906 75.042969 22.832031 74.429688 22.433594 C 73.816406 22.039063 73.265625 21.847656 72.773438 21.855469 C 72.273438 21.867188 71.894531 22.074219 71.632813 22.480469 C 71.382813 22.878906 71.363281 23.300781 71.570313 23.746094 C 71.769531 24.183594 72.175781 24.601563 72.789063 24.996094 Z M 72.789063 24.996094 "/>
</g>
</svg>

