<?xml version="1.0" encoding="UTF-8"?>
<svg xmlns="http://www.w3.org/2000/svg" xmlns:xlink="http://www.w3.org/1999/xlink" width="256pt" height="256pt" viewBox="0 0 256 256" version="1.1">
<g id="surface2">
<rect x="0" y="0" width="256" height="256" style="fill:rgb(60%,70.196078%,80%);fill-opacity:1;stroke:none;"/>
<path style=" stroke:none;fill-rule:evenodd;fill:rgb(94.901961%,93.72549%,91.372549%);fill-opacity:1;" d="M 259 -4 L 201.078125 -4 L 200.011719 -2.625 L 197.378906 -4 L 164.601563 -4 L 163.136719 -1.03125 L 160.53125 2.925781 L 157.214844 3.910156 L 134.574219 0.121094 L 124.546875 -4 L 116.890625 -4 L 112.070313 1.546875 L 102.414063 6.441406 L 94.5 28.265625 L 89.703125 37.371094 L 124.636719 55.804688 L 122.222656 60.824219 L 86.710938 43.164063 L 80.535156 52.523438 L 77.253906 56.863281 L 76.003906 61.304688 L 73.066406 63.175781 L 56.78125 56.640625 L 36.726563 91.058594 L 30.230469 94.664063 L 24.3125 104.394531 L 22.691406 111.785156 L 12.757813 134.324219 L 6.226563 160.644531 L 7.917969 166.839844 L -4 169.746094 L -4 235.382813 L 9.332031 242.632813 L 18 248.726563 L 18.398438 255.421875 L 17.363281 257.425781 L 16.546875 259 L -4 259 L -4 -4 Z M 259 -4 "/>
<path style=" stroke:none;fill-rule:evenodd;fill:rgb(60%,70.196078%,80%);fill-opacity:1;" d="M -4 259 L 259 259 L 259 -4 L 201.078125 -4 L 200.015625 -2.625 L 197.378906 -4 L 164.601563 -4 L 163.136719 -1.03125 L 160.53125 2.925781 L 157.214844 3.910156 L 134.574219 0.121094 L 124.546875 -4 L 116.890625 -4 L 112.070313 1.546875 L 102.414063 6.441406 L 94.5 28.265625 L 89.703125 37.371094 L 124.636719 55.804688 L 122.222656 60.824219 L 86.710938 43.164063 L 80.535156 52.523438 L 77.257813 56.863281 L 76.003906 61.304688 L 73.066406 63.179688 L 56.78125 56.640625 L 36.726563 91.058594 L 30.230469 94.664063 L 24.3125 104.394531 L 22.691406 111.785156 L 12.757813 134.328125 L 6.226563 160.644531 L 7.917969 166.839844 L -4 169.746094 L -4 235.382813 L 9.332031 242.632813 L 18 248.726563 L 18.402344 255.421875 L 17.363281 257.425781 L 16.546875 259 Z M -4 259 "/>
<path style="fill:none;stroke-width:1;stroke-linecap:round;stroke-linejoin:round;stroke:rgb(70.196078%,77.647059%,83.137255%);stroke-opacity:1;stroke-miterlimit:10;" d="M -4 259 L 259 259 L 259 -4 L 201.078125 -4 L 200.015625 -2.625 L 197.378906 -4 L 164.601563 -4 L 163.136719 -1.03125 L 160.53125 2.925781 L 157.214844 3.910156 L 134.574219 0.121094 L 124.546875 -4 L 116.890625 -4 L 112.070313 1.546875 L 102.414063 6.441406 L 94.5 28.265625 L 89.703125 37.371094 L 124.636719 55.804688 L 122.222656 60.824219 L 86.710938 43.164063 L 80.535156 52.523438 L 77.257813 56.863281 L 76.003906 61.304688 L 73.066406 63.179688 L 56.78125 56.640625 L 36.726563 91.058594 L 30.230469 94.664063 L 24.3125 104.394531 L 22.691406 111.785156 L 12.757813 134.328125 L 6.226563 160.644531 L 7.917969 166.839844 L -4 169.746094 L -4 235.382813 L 9.332031 242.632813 L 18 248.726563 L 18.402344 255.421875 L 17.363281 257.425781 L 16.546875 259 L -4 259 "/>
<path style="fill:none;stroke-width:6;stroke-linecap:round;stroke-linejoin:round;stroke:rgb(60%,70.196078%,80%);stroke-opacity:1;stroke-miterlimit:10;" d="M 262 135.453125 L 190.328125 262 "/>
</g>
</svg>

