<?xml version="1.0" encoding="UTF-8"?>
<svg xmlns="http://www.w3.org/2000/svg" xmlns:xlink="http://www.w3.org/1999/xlink" width="256pt" height="256pt" viewBox="0 0 256 256" version="1.1">
<g id="surface2">
<rect x="0" y="0" width="256" height="256" style="fill:rgb(94.901961%,93.72549%,91.372549%);fill-opacity:1;stroke:none;"/>
<path style="fill:none;stroke-width:8;stroke-linecap:round;stroke-linejoin:round;stroke:rgb(75.686275%,70.980392%,61.568627%);stroke-opacity:1;stroke-miterlimit:10;" d="M 264 84.628906 L 257.027344 70.9375 L 255.09375 64.066406 L 254.371094 58.761719 L 253.089844 40.109375 L 251.25 32.023438 L 249.664063 27.246094 L 247.730469 23.710938 L 244.515625 20.273438 L 241.976563 18.738281 L 231.511719 15.628906 L 225.199219 13.042969 L 220.65625 10.324219 L 217.742188 7.9375 L 215.132813 5.1875 L 203.992188 -8.003906 L 203.339844 -9 "/>
<path style="fill:none;stroke-width:6;stroke-linecap:round;stroke-linejoin:round;stroke:rgb(100%,100%,100%);stroke-opacity:1;stroke-miterlimit:10;" d="M 264 84.628906 L 257.027344 70.9375 L 255.09375 64.066406 L 254.371094 58.761719 L 253.089844 40.109375 L 251.25 32.023438 L 249.664063 27.246094 L 247.730469 23.710938 L 244.515625 20.273438 L 241.976563 18.738281 L 231.511719 15.628906 L 225.199219 13.042969 L 220.65625 10.324219 L 217.742188 7.9375 L 215.132813 5.1875 L 203.992188 -8.003906 L 203.339844 -9 "/>
</g>
</svg>

