<?xml version="1.0" encoding="UTF-8"?>
<svg xmlns="http://www.w3.org/2000/svg" xmlns:xlink="http://www.w3.org/1999/xlink" width="256pt" height="256pt" viewBox="0 0 256 256" version="1.1">
<g id="surface2">
<rect x="0" y="0" width="256" height="256" style="fill:rgb(94.901961%,93.72549%,91.372549%);fill-opacity:1;stroke:none;"/>
<path style="fill:none;stroke-width:8;stroke-linecap:round;stroke-linejoin:round;stroke:rgb(75.686275%,70.980392%,61.568627%);stroke-opacity:1;stroke-miterlimit:10;" d="M 128.90625 -6.164063 L 127.71875 3.25 L 126.601563 7.238281 L 120.9375 17.617188 L 118.910156 20.390625 L 116.488281 22.105469 L 114.671875 22.761719 L 112.550781 23.136719 L 109.402344 24.164063 L 104.371094 26.90625 L 99.175781 31.144531 L 95.492188 36.007813 L 92.207031 42.273438 L 90.414063 44.578125 L 88.410156 45.390625 L 83.84375 45.886719 L 80.394531 45.699219 L 75.429688 44.734375 L 72.703125 43.550781 L 69.882813 41.242188 L 67.4375 37.972656 L 66.132813 35.539063 L 65.457031 32.921875 L 65.503906 29.898438 L 66.484375 28.746094 "/>
<path style="fill:none;stroke-width:8;stroke-linecap:round;stroke-linejoin:round;stroke:rgb(75.686275%,70.980392%,61.568627%);stroke-opacity:1;stroke-miterlimit:10;" d="M 140.765625 -9 L 135.246094 -7.160156 L 132.472656 -6.472656 L 128.90625 -6.164063 L 125.039063 -6.164063 L 123.152344 -6.472656 L 118.886719 -7.160156 L 114.269531 -9 M 37.414063 -9 L 34.933594 -5.195313 L 26.519531 5.585938 L 23.328125 9.078125 L 19.949219 11.945313 L 14.171875 15.6875 L 7.996094 18.835938 L -6.546875 25.003906 L -9 25.914063 "/>
<path style="fill:none;stroke-width:6;stroke-linecap:round;stroke-linejoin:round;stroke:rgb(100%,100%,100%);stroke-opacity:1;stroke-miterlimit:10;" d="M 128.90625 -6.164063 L 127.71875 3.25 L 126.601563 7.238281 L 120.9375 17.617188 L 118.910156 20.390625 L 116.488281 22.105469 L 114.671875 22.761719 L 112.550781 23.136719 L 109.402344 24.164063 L 104.371094 26.90625 L 99.175781 31.144531 L 95.492188 36.007813 L 92.207031 42.273438 L 90.414063 44.578125 L 88.410156 45.390625 L 83.84375 45.886719 L 80.394531 45.699219 L 75.429688 44.734375 L 72.703125 43.550781 L 69.882813 41.242188 L 67.4375 37.972656 L 66.132813 35.539063 L 65.457031 32.921875 L 65.503906 29.898438 L 66.484375 28.746094 "/>
<path style="fill:none;stroke-width:6;stroke-linecap:round;stroke-linejoin:round;stroke:rgb(100%,100%,100%);stroke-opacity:1;stroke-miterlimit:10;" d="M 140.765625 -9 L 135.246094 -7.160156 L 132.472656 -6.472656 L 128.90625 -6.164063 L 125.039063 -6.164063 L 123.152344 -6.472656 L 118.886719 -7.160156 L 114.269531 -9 M 37.414063 -9 L 34.933594 -5.195313 L 26.519531 5.585938 L 23.328125 9.078125 L 19.949219 11.945313 L 14.171875 15.6875 L 7.996094 18.835938 L -6.546875 25.003906 L -9 25.914063 "/>
</g>
</svg>

