<?xml version="1.0" encoding="UTF-8"?>
<svg xmlns="http://www.w3.org/2000/svg" xmlns:xlink="http://www.w3.org/1999/xlink" width="256pt" height="256pt" viewBox="0 0 256 256" version="1.1">
<g id="surface2">
<rect x="0" y="0" width="256" height="256" style="fill:rgb(94.901961%,93.72549%,91.372549%);fill-opacity:1;stroke:none;"/>
<path style=" stroke:none;fill-rule:evenodd;fill:rgb(70.980392%,82.352941%,61.176471%);fill-opacity:1;" d="M -4 260 L 260 260 L 259.402344 260 L 260 259.128906 L 260 -4 L -4 -4 L 13.296875 -4 L 5.820313 2.496094 L -4 20.589844 Z M -4 -4 Z M -4 -4 "/>
<path style=" stroke:none;fill-rule:evenodd;fill:rgb(79.607843%,84.705882%,76.470588%);fill-opacity:1;" d="M -4 260 L 260 260 L 259.402344 260 L 260 259.128906 L 260 -4 L -4 -4 L 13.296875 -4 L 5.820313 2.496094 L -4 20.589844 Z M -4 -4 Z M -4 -4 "/>
<path style="fill:none;stroke-width:2;stroke-linecap:round;stroke-linejoin:round;stroke:rgb(60%,70.196078%,80%);stroke-opacity:1;stroke-miterlimit:10;" d="M 258 124.605469 L 245.398438 129.058594 L 238.523438 130.6875 L 229.960938 128.8125 L 222.460938 136.125 L 217.835938 139.5 L 212.773438 141.1875 L 204.523438 152.5 L 190.960938 165.933594 L 180.210938 167.0625 L 167.023438 180.933594 L 152.398438 194.558594 L 145.648438 196.25 L 140.523438 205.683594 L 137.148438 211.371094 L 131.710938 220.683594 L 122.585938 222.496094 L 116.835938 224.1875 L 109.335938 227.0625 L 101.835938 226.183594 L 95.023438 223.683594 L 88.835938 225.375 L 81.273438 224.371094 L 77.210938 224.75 L 71.773438 230.25 L 66.210938 235.8125 L 56.085938 235.9375 L 50.273438 243.558594 L 47.710938 244.625 L 40.023438 244.121094 L 30.398438 240.308594 L 25.773438 237.0625 L 20.523438 241.375 L 14.210938 238.058594 L -3 235.132813 "/>
<path style="fill:none;stroke-width:1;stroke-linecap:round;stroke-linejoin:round;stroke:rgb(100%,100%,100%);stroke-opacity:1;stroke-dasharray:2,3;stroke-miterlimit:10;" d="M 257 186.332031 L 250.46875 196.128906 L 239.75 211.398438 L 223.140625 233.101563 L 225.285156 240.605469 L 232.25 254.808594 L 233.453125 257 "/>
<path style="fill:none;stroke-width:1;stroke-linecap:round;stroke-linejoin:round;stroke:rgb(100%,100%,100%);stroke-opacity:1;stroke-dasharray:2,3;stroke-miterlimit:10;" d="M -2 17.972656 L 1.957031 5.851563 L 4.390625 -2 "/>
<path style="fill:none;stroke-width:1;stroke-linecap:round;stroke-linejoin:round;stroke:rgb(100%,100%,100%);stroke-opacity:1;stroke-dasharray:2,3;stroke-miterlimit:10;" d="M 257 71.609375 L 255.964844 72.789063 L 249.464844 76.539063 L 240.464844 81.539063 L 226.964844 84.792969 L 214.964844 84.792969 L 199.964844 85.792969 L 188.464844 89.542969 L 175.964844 93.792969 L 165.964844 101.792969 L 164.964844 108.792969 L 164.964844 114.789063 L 161.464844 119.542969 L 158.964844 128.792969 L 158.464844 137.542969 L 150.964844 146.792969 L 147.964844 153.792969 L 144.964844 164.789063 L 142.464844 172.542969 L 149.964844 176.792969 L 151.964844 185.792969 L 149.964844 196.792969 L 141.964844 208.792969 L 136.339844 216.917969 L 133.109375 221.179688 L 129.964844 222.792969 L 120.964844 223.789063 L 110.964844 227.792969 L 102.464844 228.542969 L 91.964844 228.789063 L 77.964844 230.792969 L 70.964844 236.789063 L 61.964844 242.792969 L 56.964844 249.789063 L 55.160156 257 "/>
</g>
</svg>

