<?xml version="1.0" encoding="UTF-8"?>
<svg xmlns="http://www.w3.org/2000/svg" xmlns:xlink="http://www.w3.org/1999/xlink" width="256pt" height="256pt" viewBox="0 0 256 256" version="1.1">
<g id="surface2">
<rect x="0" y="0" width="256" height="256" style="fill:rgb(94.901961%,93.72549%,91.372549%);fill-opacity:1;stroke:none;"/>
<path style="fill:none;stroke-width:2;stroke-linecap:round;stroke-linejoin:round;stroke:rgb(60%,70.196078%,80%);stroke-opacity:1;stroke-miterlimit:10;" d="M 213.660156 -3 L 204.90625 0.152344 L 190.257813 4.609375 L 181.554688 -0.269531 L 177.875 4.195313 L 176.167969 8.746094 L 173.273438 13.738281 L 155.226563 19.683594 L 149.921875 26.476563 L 136.121094 29.875 L 123.808594 32.210938 L 114.042969 37.09375 L 105.761719 39 L 101.730469 47.707031 L 94.300781 51.738281 L 88.78125 47.707031 L 80.710938 49.832031 L 63.726563 49.40625 L 56.722656 59.597656 L 51.203125 65.539063 L 41.4375 68.726563 L 40.375 77.214844 L 35.492188 84.4375 L 19.007813 85.121094 L 18.085938 90.378906 L 8.957031 94.835938 L 3.011719 91.863281 L 0.675781 85.496094 L -3 84.460938 "/>
<path style="fill:none;stroke-width:1;stroke-linecap:round;stroke-linejoin:round;stroke:rgb(100%,100%,100%);stroke-opacity:1;stroke-dasharray:2,3;stroke-miterlimit:10;" d="M -2 115.894531 L 5.796875 113.910156 L 8.453125 110.542969 L 11.40625 107.183594 L 16.480469 103.578125 L 21.023438 100.867188 L 26.628906 97.679688 L 33.535156 96.792969 L 43.328125 95.90625 L 50.175781 95.257813 L 57.847656 94.316406 L 63.394531 91.777344 L 66.761719 88.234375 L 68.296875 83.867188 L 70.242188 77.320313 L 76.496094 73.601563 L 80.332031 70.535156 L 86.824219 67.464844 L 93.671875 64.925781 L 98.921875 61.386719 L 104.941406 56.898438 L 110.136719 54.714844 L 113.5 53.535156 L 119.992188 51.941406 L 127.546875 48.933594 L 131.207031 47.929688 L 137.578125 45.925781 L 146.609375 42.675781 L 154.339844 40.375 L 160.710938 38.78125 L 166.730469 35.773438 L 174.226563 31.050781 L 178.710938 26.625 L 184 26.121094 L 191.214844 23.3125 L 199.085938 22.746094 L 206.960938 21.621094 L 212.492188 20.03125 L 217.925781 18.53125 L 225.238281 20.683594 L 237.328125 22.277344 L 246.699219 21.71875 L 254.761719 20.03125 L 257 19.394531 "/>
</g>
</svg>

