<?xml version="1.0" encoding="UTF-8"?>
<svg xmlns="http://www.w3.org/2000/svg" xmlns:xlink="http://www.w3.org/1999/xlink" width="256pt" height="256pt" viewBox="0 0 256 256" version="1.1">
<g id="surface2">
<rect x="0" y="0" width="256" height="256" style="fill:rgb(60%,70.196078%,80%);fill-opacity:1;stroke:none;"/>
<path style=" stroke:none;fill-rule:evenodd;fill:rgb(94.901961%,93.72549%,91.372549%);fill-opacity:1;" d="M 61.21875 7.339844 L 51.828125 -4 L -4 -4 L 119.816406 -4 L 119.917969 -1.097656 L 99.996094 0.789063 L 75.757813 9.851563 Z M 61.21875 7.339844 "/>
<path style=" stroke:none;fill-rule:evenodd;fill:rgb(94.901961%,93.72549%,91.372549%);fill-opacity:1;" d="M 229.5625 107.066406 L 234.164063 88.871094 L 241.726563 81.734375 L 253.039063 78.808594 L 259 72.871094 L 259 99.253906 L 250.539063 101.429688 L 237.125 116.734375 L 233.042969 115.871094 Z M 229.5625 107.066406 "/>
<path style=" stroke:none;fill-rule:evenodd;fill:rgb(94.901961%,93.72549%,91.372549%);fill-opacity:1;" d="M 170.65625 89.632813 L 168.941406 89.777344 L 161.523438 91.632813 L 163.972656 86.496094 L 165.945313 82.355469 L 166.300781 79.648438 L 173.507813 75.007813 L 176.363281 75.648438 L 181.285156 82.640625 L 180.714844 85.851563 L 173.9375 90.5625 Z M 170.65625 89.632813 "/>
<path style="fill:none;stroke-width:8;stroke-linecap:round;stroke-linejoin:round;stroke:rgb(75.686275%,70.980392%,61.568627%);stroke-opacity:1;stroke-miterlimit:10;" d="M 91.222656 -9 L 84.417969 -1.0625 L 82.136719 0.664063 L 78.898438 2.269531 L 75.191406 2.730469 L 71.859375 2.574219 L 68.621094 1.621094 L 65.753906 0.046875 L 62.050781 -2.785156 L 57.132813 -7.53125 L 55.722656 -9 "/>
<path style="fill:none;stroke-width:6;stroke-linecap:round;stroke-linejoin:round;stroke:rgb(100%,100%,100%);stroke-opacity:1;stroke-miterlimit:10;" d="M 91.222656 -9 L 84.417969 -1.0625 L 82.136719 0.664063 L 78.898438 2.269531 L 75.191406 2.730469 L 71.859375 2.574219 L 68.621094 1.621094 L 65.753906 0.046875 L 62.050781 -2.785156 L 57.132813 -7.53125 L 55.722656 -9 "/>
</g>
</svg>

