<?xml version="1.0" encoding="UTF-8"?>
<svg xmlns="http://www.w3.org/2000/svg" xmlns:xlink="http://www.w3.org/1999/xlink" width="256pt" height="256pt" viewBox="0 0 256 256" version="1.1">
<g id="surface2">
<rect x="0" y="0" width="256" height="256" style="fill:rgb(60%,70.196078%,80%);fill-opacity:1;stroke:none;"/>
<path style=" stroke:none;fill-rule:evenodd;fill:rgb(94.901961%,93.72549%,91.372549%);fill-opacity:1;" d="M 259 -4 L 259 145.671875 L 257.371094 144.621094 L 256.917969 144.769531 L 252.3125 142 L 249.78125 146.386719 L 234.257813 130.429688 L 230.445313 126.210938 L 218.679688 111.898438 L 206.816406 94.816406 L 197.738281 80.730469 L 195.4375 76.789063 L 193.371094 72.1875 L 192.355469 68.941406 L 191.296875 65.089844 L 190.777344 61.78125 L 188.238281 62.007813 L 188.328125 63.003906 L 185.511719 63.289063 L 185.308594 61.070313 L 188.117188 60.773438 L 188.191406 61.425781 L 190.765625 61.191406 L 190.6875 58.339844 L 190.691406 55.601563 L 190.90625 52.800781 L 191.664063 49.214844 L 193.265625 43.722656 L 187.917969 42.148438 L 186.535156 47.140625 L 188.941406 47.894531 L 187.910156 51.359375 L 186.875 51.058594 L 187.636719 48.558594 L 185.066406 47.746094 L 186.808594 41.832031 L 172.945313 44.339844 L 167.746094 36.136719 L 194.449219 31.652344 L 195.519531 28.128906 L 181.769531 29.929688 L 180.324219 32.511719 L 163.304688 27.332031 L 162.601563 27.097656 L 162.050781 26.75 L 161.566406 26.1875 L 158.792969 14.800781 L 154.765625 -1.71875 L 154.226563 -4 Z M 259 -4 "/>
<path style=" stroke:none;fill-rule:evenodd;fill:rgb(94.901961%,93.72549%,91.372549%);fill-opacity:1;" d="M 259 -4 L -4 -4 L -4 259 L -4 -4 Z M 259 -4 "/>
<path style=" stroke:none;fill-rule:evenodd;fill:rgb(70.980392%,82.352941%,61.176471%);fill-opacity:1;" d="M 194.304688 59.585938 L 201.3125 61.347656 L 200.300781 64.621094 L 200.480469 67.804688 L 201.097656 70.683594 L 203.117188 73.808594 L 203.929688 76.125 L 205.277344 76.917969 L 204.691406 78.378906 L 202.933594 81.441406 L 220.835938 106.269531 L 227.828125 117.269531 L 237.75 127.675781 L 244 134.113281 L 250.878906 122.640625 L 260 127.773438 L 260 33.421875 L 248.554688 32.570313 L 234.488281 31.230469 L 229.621094 29.6875 L 211.683594 29.90625 L 207.738281 39.734375 L 204.496094 43.109375 L 198.140625 45.164063 L 196.191406 46.582031 L 194.910156 49 L 194.230469 52.300781 L 194.105469 56.578125 Z M 194.304688 59.585938 "/>
<path style=" stroke:none;fill-rule:evenodd;fill:rgb(70.980392%,82.352941%,61.176471%);fill-opacity:1;" d="M 154.226563 -4 L 154.765625 -1.71875 L 158.792969 14.800781 L 161.566406 26.1875 L 162.601563 27.097656 L 180.324219 32.511719 L 181.769531 29.929688 L 195.519531 28.128906 L 197.125 23.511719 L 193.625 21.4375 L 190.789063 19.042969 L 188.523438 16.511719 L 184.726563 11.3125 L 181.925781 4.113281 L 181.039063 -0.480469 L 181.066406 -4 L 173.882813 -4 L 170.261719 1.511719 L 167.082031 -1.109375 L 160.160156 -3.042969 L 160.042969 -4 Z M 154.226563 -4 "/>
<path style=" stroke:none;fill-rule:evenodd;fill:rgb(70.980392%,82.352941%,61.176471%);fill-opacity:1;" d="M 208.0625 19.871094 L 214.71875 -4 L 207.0625 -4 L 200.753906 17.5 Z M 208.0625 19.871094 "/>
<path style=" stroke:none;fill-rule:evenodd;fill:rgb(87.058824%,81.960784%,67.058824%);fill-opacity:1;" d="M 163.410156 16.90625 L 171.730469 27.570313 L 177.902344 22.757813 L 169.582031 12.089844 Z M 163.410156 16.90625 "/>
<path style=" stroke:none;fill-rule:evenodd;fill:rgb(60%,70.196078%,80%);fill-opacity:1;" d="M -4 259 L 259 259 L 259 -4 L 259 145.671875 L 257.371094 144.621094 L 252.3125 142 L 249.78125 146.386719 L 234.261719 130.429688 L 230.445313 126.210938 L 218.679688 111.898438 L 206.816406 94.816406 L 197.738281 80.730469 L 195.4375 76.789063 L 193.371094 72.191406 L 9.726563 259 Z M -4 259 "/>
<path style="fill:none;stroke-width:1;stroke-linecap:round;stroke-linejoin:round;stroke:rgb(70.196078%,77.647059%,83.137255%);stroke-opacity:1;stroke-miterlimit:10;" d="M -4 259 L 259 259 L 259 -4 L 259 145.671875 L 257.371094 144.621094 L 252.3125 142 L 249.78125 146.386719 L 234.261719 130.429688 L 230.445313 126.210938 L 218.679688 111.898438 L 206.816406 94.816406 L 197.738281 80.730469 L 195.4375 76.789063 L 193.371094 72.191406 L 9.726563 259 L -4 259 "/>
<path style=" stroke:none;fill-rule:evenodd;fill:rgb(60%,70.196078%,80%);fill-opacity:1;" d="M -4 259 L 9.726563 259 L 193.371094 72.191406 L 192.355469 68.941406 L 191.296875 65.089844 L 190.777344 61.78125 L 188.238281 62.007813 L 188.328125 63.003906 L 185.511719 63.292969 L 185.308594 61.070313 L 188.117188 60.773438 L 190.765625 61.191406 L 190.6875 58.339844 L 190.691406 55.601563 L 190.90625 52.800781 L 191.664063 49.214844 L 193.265625 43.722656 L 187.921875 42.148438 L 186.535156 47.140625 L 188.941406 47.894531 L 187.910156 51.359375 L 186.875 51.058594 L 187.636719 48.558594 L 185.066406 47.746094 L 186.8125 41.832031 L 172.945313 44.339844 L 167.746094 36.136719 L 194.453125 31.652344 L 195.519531 28.128906 L 181.769531 29.929688 L 180.324219 32.511719 L 163.304688 27.332031 L 162.050781 26.75 L 158.792969 14.800781 L 154.765625 -1.71875 L 154.226563 -4 L -4 -4 Z M -8240539.863281 4967778.621094 Z M -8240539.863281 4967778.621094 "/>
<path style="fill:none;stroke-width:1;stroke-linecap:round;stroke-linejoin:round;stroke:rgb(70.196078%,77.647059%,83.137255%);stroke-opacity:1;stroke-miterlimit:10;" d="M -4 259 L 9.726563 259 L 193.371094 72.191406 L 192.355469 68.941406 L 191.296875 65.089844 L 190.777344 61.78125 L 188.238281 62.007813 L 188.328125 63.003906 L 185.511719 63.292969 L 185.308594 61.070313 L 188.117188 60.773438 L 190.765625 61.191406 L 190.6875 58.339844 L 190.691406 55.601563 L 190.90625 52.800781 L 191.664063 49.214844 L 193.265625 43.722656 L 187.921875 42.148438 L 186.535156 47.140625 L 188.941406 47.894531 L 187.910156 51.359375 L 186.875 51.058594 L 187.636719 48.558594 L 185.066406 47.746094 L 186.8125 41.832031 L 172.945313 44.339844 L 167.746094 36.136719 L 194.453125 31.652344 L 195.519531 28.128906 L 181.769531 29.929688 L 180.324219 32.511719 L 163.304688 27.332031 L 162.050781 26.75 L 158.792969 14.800781 L 154.765625 -1.71875 L 154.226563 -4 L -4 -4 L -4 259 "/>
<path style="fill:none;stroke-width:6;stroke-linecap:round;stroke-linejoin:round;stroke:rgb(60%,70.196078%,80%);stroke-opacity:1;stroke-miterlimit:10;" d="M 262 252.550781 L 167.25 247.988281 L -7 181.089844 "/>
<path style="fill:none;stroke-width:9;stroke-linecap:round;stroke-linejoin:round;stroke:rgb(99.215686%,57.254902%,22.745098%);stroke-opacity:0.4;stroke-miterlimit:10;" d="M 265 201.8125 L 250.730469 150.652344 L 248.765625 141.507813 L 247.019531 133.082031 L 245.820313 124.816406 L 244.964844 116.546875 L 244.023438 108.011719 L 243.222656 99.53125 L 242.507813 91.992188 L 242.03125 83.027344 L 241.9375 73.539063 L 242 64.917969 L 242.378906 57.820313 L 242.933594 49.910156 L 243.941406 41.667969 L 245.128906 34.800781 L 246.765625 27.960938 L 251.695313 11.265625 "/>
<path style="fill:none;stroke-width:9;stroke-linecap:round;stroke-linejoin:round;stroke:rgb(99.215686%,57.254902%,22.745098%);stroke-opacity:0.4;stroke-miterlimit:10;" d="M 246.824219 9.824219 L 241.855469 26.648438 L 240.152344 33.773438 L 238.914063 40.925781 L 237.875 49.425781 L 237.308594 57.507813 L 236.921875 64.761719 L 236.859375 73.546875 L 236.953125 83.1875 L 237.4375 92.367188 L 238.164063 100.011719 L 238.96875 108.53125 L 239.914063 117.085938 L 240.773438 125.445313 L 242.015625 133.964844 L 243.796875 142.558594 L 245.792969 151.867188 L 265 220.71875 "/>
<path style="fill:none;stroke-width:9;stroke-linecap:round;stroke-linejoin:round;stroke:rgb(99.215686%,57.254902%,22.745098%);stroke-opacity:0.4;stroke-miterlimit:10;" d="M 265 130.53125 L 263.835938 130.101563 L 261.933594 129.253906 L 260.058594 128.371094 L 258.238281 127.433594 L 256.675781 126.550781 L 255.074219 125.546875 L 253.472656 124.480469 L 251.898438 123.328125 L 250.28125 121.984375 L 248.671875 120.597656 L 247.304688 119.265625 L 245.964844 117.617188 L 244.632813 115.671875 L 243.507813 113.738281 L 242.457031 111.472656 L 241.480469 109.140625 L 240.550781 106.664063 L 239.496094 103.667969 L 218.667969 47.40625 L 217.695313 44.3125 L 216.871094 41.375 L 216.257813 38.539063 L 215.746094 35.773438 L 215.332031 32.839844 L 215.035156 30.148438 L 214.851563 27.621094 L 214.820313 25.410156 L 215.003906 22.773438 L 215.277344 20.574219 L 215.636719 18.421875 L 216.148438 16.171875 "/>
<path style="fill:none;stroke-width:9;stroke-linecap:round;stroke-linejoin:round;stroke:rgb(99.215686%,57.254902%,22.745098%);stroke-opacity:0.4;stroke-miterlimit:10;" d="M 214.035156 15.707031 L 213.511719 18.003906 L 213.132813 20.261719 L 212.847656 22.5625 L 212.65625 25.351563 L 212.691406 27.714844 L 212.875 30.347656 L 213.183594 33.105469 L 213.605469 36.125 L 214.136719 38.964844 L 214.769531 41.894531 L 215.621094 44.925781 L 216.617188 48.105469 L 237.460938 104.402344 L 238.515625 107.40625 L 239.464844 109.941406 L 240.476563 112.351563 L 241.582031 114.738281 L 242.800781 116.832031 L 244.226563 118.914063 L 245.703125 120.730469 L 247.207031 122.195313 L 248.882813 123.636719 L 250.566406 125.039063 L 252.234375 126.253906 L 253.898438 127.367188 L 255.570313 128.414063 L 257.210938 129.339844 L 259.101563 130.316406 L 261.035156 131.21875 L 263.015625 132.109375 L 265 132.835938 "/>
<path style="fill:none;stroke-width:1;stroke-linecap:round;stroke-linejoin:round;stroke:rgb(100%,100%,100%);stroke-opacity:1;stroke-dasharray:2,3;stroke-miterlimit:10;" d="M 242.558594 45.164063 L 245.941406 50.15625 "/>
<path style="fill:none;stroke-width:1;stroke-linecap:round;stroke-linejoin:round;stroke:rgb(100%,100%,100%);stroke-opacity:1;stroke-dasharray:2,3;stroke-miterlimit:10;" d="M 241.871094 43.832031 L 241.558594 42.394531 L 241.308594 40.332031 L 241.308594 38.519531 L 241.746094 36.144531 "/>
<path style="fill:none;stroke-width:1;stroke-linecap:round;stroke-linejoin:round;stroke:rgb(100%,100%,100%);stroke-opacity:1;stroke-dasharray:2,3;stroke-miterlimit:10;" d="M 243.632813 116.144531 L 245.152344 115.632813 L 247.59375 115.726563 L 251.503906 116.359375 "/>
<path style="fill:none;stroke-width:1;stroke-linecap:round;stroke-linejoin:round;stroke:rgb(100%,100%,100%);stroke-opacity:1;stroke-dasharray:2,3;stroke-miterlimit:10;" d="M 206.636719 46.675781 L 206.898438 47.875 L 206.035156 48.738281 L 204.839844 48.492188 L 204.398438 47.355469 L 205.101563 46.367188 L 206.3125 46.40625 L 206.636719 46.675781 "/>
<path style="fill:none;stroke-width:1;stroke-linecap:round;stroke-linejoin:round;stroke:rgb(100%,100%,100%);stroke-opacity:1;stroke-dasharray:2,3;stroke-miterlimit:10;" d="M 199.589844 65.324219 L 193.6875 64.570313 L 193.566406 67.761719 "/>
<path style="fill:none;stroke-width:1;stroke-linecap:round;stroke-linejoin:round;stroke:rgb(100%,100%,100%);stroke-opacity:1;stroke-dasharray:2,3;stroke-miterlimit:10;" d="M 233.996094 41.457031 L 236.496094 41.394531 L 238.371094 41.644531 L 239.933594 42.144531 L 241.246094 42.957031 L 241.871094 43.832031 L 242.558594 45.164063 "/>
<path style="fill:none;stroke-width:1;stroke-linecap:round;stroke-linejoin:round;stroke:rgb(100%,100%,100%);stroke-opacity:1;stroke-dasharray:2,3;stroke-miterlimit:10;" d="M 231.808594 107.402344 L 223.035156 112.722656 "/>
<path style="fill:none;stroke-width:1;stroke-linecap:round;stroke-linejoin:round;stroke:rgb(100%,100%,100%);stroke-opacity:1;stroke-dasharray:2,3;stroke-miterlimit:10;" d="M 235.765625 27.667969 L 236.667969 25.777344 L 239.984375 25.488281 L 244.824219 26.339844 "/>
<path style="fill:none;stroke-width:1;stroke-linecap:round;stroke-linejoin:round;stroke:rgb(100%,100%,100%);stroke-opacity:1;stroke-dasharray:2,3;stroke-miterlimit:10;" d="M 231.996094 41.519531 L 229.621094 42.019531 L 227.246094 43.082031 L 225.371094 44.082031 L 223.558594 45.332031 L 222.144531 46.339844 "/>
<path style="fill:none;stroke-width:1;stroke-linecap:round;stroke-linejoin:round;stroke:rgb(100%,100%,100%);stroke-opacity:1;stroke-dasharray:2,3;stroke-miterlimit:10;" d="M 195.4375 76.789063 L 196.859375 76.199219 L 199.050781 75.292969 L 196.988281 71.140625 L 198.839844 70.230469 L 200.089844 69.679688 "/>
<path style="fill:none;stroke-width:1;stroke-linecap:round;stroke-linejoin:round;stroke:rgb(100%,100%,100%);stroke-opacity:1;stroke-dasharray:2,3;stroke-miterlimit:10;" d="M 242.996094 65.144531 L 239.871094 67.519531 L 236.621094 69.394531 L 234.621094 70.019531 L 231.996094 70.394531 "/>
<path style="fill:none;stroke-width:1;stroke-linecap:round;stroke-linejoin:round;stroke:rgb(100%,100%,100%);stroke-opacity:1;stroke-dasharray:2,3;stroke-miterlimit:10;" d="M 233.292969 115.90625 L 235.535156 118.101563 L 239.042969 120.597656 L 241.8125 121.941406 L 243.5 122.34375 L 244.863281 122.289063 "/>
<path style="fill:none;stroke-width:1;stroke-linecap:round;stroke-linejoin:round;stroke:rgb(100%,100%,100%);stroke-opacity:1;stroke-dasharray:2,3;stroke-miterlimit:10;" d="M 256.296875 119.039063 L 256.316406 120.1875 L 255.507813 121.414063 L 254.109375 121.867188 L 252.738281 121.351563 L 251.996094 120.140625 L 252.121094 118.777344 L 253.019531 117.746094 L 254.359375 117.4375 L 255.621094 117.976563 L 256.296875 119.039063 "/>
<path style="fill:none;stroke-width:1;stroke-linecap:round;stroke-linejoin:round;stroke:rgb(100%,100%,100%);stroke-opacity:1;stroke-dasharray:2,3;stroke-miterlimit:10;" d="M 240.597656 113.851563 L 242.160156 115.539063 L 243.632813 116.144531 L 244.546875 119.101563 L 245.070313 121.292969 L 244.863281 122.289063 L 247.640625 125.382813 "/>
<path style="fill:none;stroke-width:1;stroke-linecap:round;stroke-linejoin:round;stroke:rgb(100%,100%,100%);stroke-opacity:1;stroke-dasharray:2,3;stroke-miterlimit:10;" d="M 200.375 40.21875 L 202.5625 35.441406 L 202.324219 30.601563 L 201.101563 25.726563 "/>
<path style="fill:none;stroke-width:1;stroke-linecap:round;stroke-linejoin:round;stroke:rgb(100%,100%,100%);stroke-opacity:1;stroke-dasharray:2,3;stroke-miterlimit:10;" d="M 206.636719 46.675781 L 207.691406 45.871094 L 208.761719 45.480469 L 210.257813 45.496094 L 211.816406 45.960938 L 213.496094 46.792969 L 214.808594 48.042969 L 216.671875 50.300781 L 219.347656 53.902344 "/>
<path style="fill:none;stroke-width:1;stroke-linecap:round;stroke-linejoin:round;stroke:rgb(100%,100%,100%);stroke-opacity:1;stroke-dasharray:2,3;stroke-miterlimit:10;" d="M 252.253906 120.785156 L 250.347656 122.851563 L 247.640625 125.382813 L 245.035156 128.101563 L 240.859375 129.632813 L 239.011719 131.300781 "/>
<path style="fill:none;stroke-width:1;stroke-linecap:round;stroke-linejoin:round;stroke:rgb(100%,100%,100%);stroke-opacity:1;stroke-dasharray:2,3;stroke-miterlimit:10;" d="M 225.617188 87.945313 L 222.027344 91.195313 L 218.472656 93.414063 L 215.222656 94.414063 L 210.1875 95.375 "/>
<path style="fill:none;stroke-width:1;stroke-linecap:round;stroke-linejoin:round;stroke:rgb(100%,100%,100%);stroke-opacity:1;stroke-dasharray:2,3;stroke-miterlimit:10;" d="M 217.125 104.5625 L 221.285156 103.355469 L 226.53125 101.414063 L 229.410156 98.601563 L 231.414063 94.09375 "/>
<path style="fill:none;stroke-width:1;stroke-linecap:round;stroke-linejoin:round;stroke:rgb(100%,100%,100%);stroke-opacity:1;stroke-dasharray:2,3;stroke-miterlimit:10;" d="M 239.984375 25.488281 L 240.183594 24 L 240.402344 20.851563 L 240.636719 17.84375 L 238.621094 17.488281 L 235.359375 17.183594 L 235.304688 20.242188 L 235.074219 23.746094 L 235.167969 25.964844 L 236.667969 25.777344 "/>
<path style="fill:none;stroke-width:1;stroke-linecap:round;stroke-linejoin:round;stroke:rgb(100%,100%,100%);stroke-opacity:1;stroke-dasharray:2,3;stroke-miterlimit:10;" d="M 221.273438 74.558594 L 219.609375 76.140625 L 217.902344 77.484375 L 216.179688 78.453125 L 214.191406 79 L 212.03125 79.167969 L 209.679688 78.886719 L 207.769531 78.246094 L 205.796875 77.261719 L 204.265625 76.1875 L 202.632813 74.289063 L 201.09375 72.03125 "/>
<path style="fill:none;stroke-width:1;stroke-linecap:round;stroke-linejoin:round;stroke:rgb(100%,100%,100%);stroke-opacity:1;stroke-dasharray:2,3;stroke-miterlimit:10;" d="M 240.609375 103.34375 L 241.097656 107.414063 L 241.390625 110.207031 L 240.597656 113.851563 L 236.671875 114.246094 L 233.292969 115.90625 L 231.476563 117.132813 L 230.15625 118.152344 L 227.9375 119.5 "/>
<path style="fill:none;stroke-width:1;stroke-linecap:round;stroke-linejoin:round;stroke:rgb(100%,100%,100%);stroke-opacity:1;stroke-dasharray:2,3;stroke-miterlimit:10;" d="M 204.746094 26.925781 L 201.101563 25.726563 L 199.261719 25.042969 L 197.488281 24.132813 L 195.046875 22.644531 L 193.601563 21.46875 L 189.808594 17.84375 L 188.742188 16.667969 L 187.433594 15.089844 L 186.628906 13.796875 L 185.683594 12.277344 L 185.097656 11.292969 L 184.535156 10.230469 "/>
<path style="fill:none;stroke-width:1;stroke-linecap:round;stroke-linejoin:round;stroke:rgb(100%,100%,100%);stroke-opacity:1;stroke-dasharray:2,3;stroke-miterlimit:10;" d="M 168.269531 0.800781 L 170.136719 -2 "/>
<path style="fill:none;stroke-width:1;stroke-linecap:round;stroke-linejoin:round;stroke:rgb(100%,100%,100%);stroke-opacity:1;stroke-dasharray:2,3;stroke-miterlimit:10;" d="M 193.6875 64.570313 L 192.3125 58.1875 L 193.625 49.5625 L 196.1875 42.4375 L 200.375 40.21875 "/>
<path style="fill:none;stroke-width:1;stroke-linecap:round;stroke-linejoin:round;stroke:rgb(100%,100%,100%);stroke-opacity:1;stroke-dasharray:2,3;stroke-miterlimit:10;" d="M 201.09375 72.03125 L 200.089844 69.679688 L 199.636719 67.632813 L 199.589844 65.324219 L 199.875 62.960938 L 200.636719 60.636719 L 201.542969 59.121094 L 203.148438 57.136719 L 205.203125 55.488281 L 207.636719 54.132813 L 210.207031 53.195313 L 212.851563 52.894531 L 215.449219 52.972656 L 217.144531 53.167969 L 219.347656 53.902344 "/>
<path style="fill:none;stroke-width:1;stroke-linecap:round;stroke-linejoin:round;stroke:rgb(100%,100%,100%);stroke-opacity:1;stroke-dasharray:2,3;stroke-miterlimit:10;" d="M 160.785156 -2 L 161.925781 -1.367188 L 163.21875 -0.980469 L 166.359375 -0.125 L 167.875 0.5 L 169.128906 1.457031 L 171.847656 4.738281 L 174.324219 6.878906 L 178.113281 9.398438 L 180.117188 10.3125 L 181.636719 10.667969 L 183.582031 10.472656 L 184.535156 10.230469 "/>
<path style="fill:none;stroke-width:1;stroke-linecap:round;stroke-linejoin:round;stroke:rgb(100%,100%,100%);stroke-opacity:1;stroke-dasharray:2,3;stroke-miterlimit:10;" d="M 221.550781 36.371094 L 223.496094 38.144531 L 225.246094 39.269531 L 227.246094 40.207031 L 229.308594 40.957031 L 231.996094 41.519531 L 233.996094 41.457031 L 236.683594 40.707031 L 238.496094 39.394531 L 240.433594 37.769531 L 241.746094 36.144531 L 243.371094 34.144531 L 245.222656 30.804688 L 247.304688 25.453125 "/>
<path style="fill:none;stroke-width:1;stroke-linecap:round;stroke-linejoin:round;stroke:rgb(100%,100%,100%);stroke-opacity:1;stroke-dasharray:2,3;stroke-miterlimit:10;" d="M 197.835938 17.621094 L 203.71875 -2 "/>
<path style="fill:none;stroke-width:1;stroke-linecap:round;stroke-linejoin:round;stroke:rgb(100%,100%,100%);stroke-opacity:1;stroke-dasharray:2,3;stroke-miterlimit:10;" d="M 247.320313 8.027344 L 245.683594 7.574219 L 247.570313 -2 "/>
<path style="fill:none;stroke-width:1;stroke-linecap:round;stroke-linejoin:round;stroke:rgb(100%,100%,100%);stroke-opacity:1;stroke-dasharray:2,3;stroke-miterlimit:10;" d="M 257 9.003906 L 253.105469 21.03125 "/>
<path style="fill:none;stroke-width:1;stroke-linecap:round;stroke-linejoin:round;stroke:rgb(100%,100%,100%);stroke-opacity:1;stroke-dasharray:2,3;stroke-miterlimit:10;" d="M 235.964844 97.441406 L 235.5 92.621094 L 235.160156 90.003906 L 235.160156 87.390625 L 235.542969 84.140625 L 236.132813 81.101563 L 236.742188 77.824219 L 236.996094 76.144531 L 238.621094 72.394531 L 240.871094 68.019531 L 242.996094 65.144531 L 245.871094 61.894531 L 247.621094 59.519531 L 248.246094 57.144531 L 248.246094 55.144531 L 247.496094 53.144531 L 245.941406 50.15625 "/>
<path style="fill:none;stroke-width:1;stroke-linecap:round;stroke-linejoin:round;stroke:rgb(100%,100%,100%);stroke-opacity:1;stroke-dasharray:2,3;stroke-miterlimit:10;" d="M 218.003906 62.714844 L 223.714844 62.480469 L 225.8125 62.394531 L 245.941406 50.15625 L 257 43.148438 "/>
<path style="fill:none;stroke-width:1;stroke-linecap:round;stroke-linejoin:round;stroke:rgb(100%,100%,100%);stroke-opacity:1;stroke-dasharray:2,3;stroke-miterlimit:10;" d="M 223.699219 28.027344 L 235.765625 27.667969 L 237.261719 27.625 L 239.9375 28.042969 L 244.484375 28.75 L 250.792969 30.75 L 250.953125 28.621094 L 251.113281 26.5 L 252.050781 23.734375 L 252.855469 21.679688 L 254.394531 21.515625 L 257 22.46875 M 257 23.753906 L 256.558594 24.941406 L 255.664063 27.800781 L 255.105469 29.6875 L 250.953125 28.621094 "/>
<path style="fill:none;stroke-width:1;stroke-linecap:round;stroke-linejoin:round;stroke:rgb(100%,100%,100%);stroke-opacity:1;stroke-dasharray:2,3;stroke-miterlimit:10;" d="M 246.0625 -2 L 240.636719 17.84375 L 252.855469 21.679688 "/>
<path style="fill:none;stroke-width:1;stroke-linecap:round;stroke-linejoin:round;stroke:rgb(100%,100%,100%);stroke-opacity:1;stroke-dasharray:2,3;stroke-miterlimit:10;" d="M 225.519531 -2 L 220.730469 14.0625 L 222.699219 17.964844 L 235.359375 17.183594 "/>
<path style="fill:none;stroke-width:1;stroke-linecap:round;stroke-linejoin:round;stroke:rgb(100%,100%,100%);stroke-opacity:1;stroke-dasharray:2,3;stroke-miterlimit:10;" d="M 257 37.308594 L 242.558594 45.164063 L 222.894531 55.578125 L 221.375 57.695313 L 218.003906 62.714844 L 201.09375 72.03125 "/>
<path style="fill:none;stroke-width:1;stroke-linecap:round;stroke-linejoin:round;stroke:rgb(100%,100%,100%);stroke-opacity:1;stroke-dasharray:2,3;stroke-miterlimit:10;" d="M 249.3125 9.917969 L 252.777344 -0.425781 L 253.335938 -2 "/>
<path style="fill:none;stroke-width:1;stroke-linecap:round;stroke-linejoin:round;stroke:rgb(100%,100%,100%);stroke-opacity:1;stroke-dasharray:2,3;stroke-miterlimit:10;" d="M 257 20.140625 L 257 21.59375 M 257 30.355469 L 255.105469 29.6875 "/>
<path style="fill:none;stroke-width:1;stroke-linecap:round;stroke-linejoin:round;stroke:rgb(100%,100%,100%);stroke-opacity:1;stroke-dasharray:2,3;stroke-miterlimit:10;" d="M 186.445313 -2 L 186.792969 0.152344 L 188.417969 5.164063 L 190.664063 9.433594 L 193.015625 12.859375 L 195.855469 16.027344 L 197.835938 17.621094 L 199.375 18.296875 L 202.824219 19.257813 L 206.339844 20.242188 L 208.832031 20.996094 L 211.667969 21.714844 L 213.949219 21.902344 L 216.792969 21.339844 L 219.511719 19.960938 L 222.699219 17.964844 L 222.941406 21.578125 L 223.371094 24.667969 L 223.699219 28.027344 L 219.179688 28.242188 "/>
<path style="fill:none;stroke-width:1;stroke-linecap:round;stroke-linejoin:round;stroke:rgb(100%,100%,100%);stroke-opacity:1;stroke-dasharray:2,3;stroke-miterlimit:10;" d="M 254.566406 140.722656 L 252.191406 139.082031 L 249.222656 141.726563 L 239.011719 131.300781 L 227.9375 119.5 L 223.035156 112.722656 L 217.125 104.5625 L 210.1875 95.375 L 202.5 83.5625 L 202.710938 79.917969 L 202.632813 74.289063 "/>
<path style="fill:none;stroke-width:1;stroke-linecap:round;stroke-linejoin:round;stroke:rgb(100%,100%,100%);stroke-opacity:1;stroke-dasharray:2,3;stroke-miterlimit:10;" d="M 201.101563 25.726563 L 202.824219 19.257813 L 209.082031 -2 "/>
<path style="fill:none;stroke-width:1;stroke-linecap:round;stroke-linejoin:round;stroke:rgb(100%,100%,100%);stroke-opacity:1;stroke-dasharray:2,3;stroke-miterlimit:10;" d="M 253.019531 117.746094 L 251.90625 117.269531 L 250.636719 113.316406 L 249.585938 110.941406 L 247.921875 108.746094 L 246.125 107.078125 L 243.324219 105.054688 L 240.609375 103.34375 L 238.640625 101.453125 L 236.714844 98.117188 L 235.964844 97.441406 L 234.640625 96.253906 L 231.414063 94.09375 L 228.746094 92.386719 L 226.355469 89.222656 L 225.617188 87.945313 L 224.484375 85.183594 L 222.847656 79.382813 L 221.273438 74.558594 L 225.429688 69.121094 L 225.863281 68.046875 L 225.871094 66.644531 L 223.714844 62.480469 L 221.375 57.695313 L 219.347656 53.902344 L 219.925781 49.96875 L 222.144531 46.339844 L 222.492188 44.050781 L 221.90625 39.660156 L 221.550781 36.371094 L 220.628906 30.289063 "/>
<path style="fill:none;stroke-width:1;stroke-linecap:round;stroke-linejoin:round;stroke:rgb(100%,100%,100%);stroke-opacity:1;stroke-dasharray:2,3;stroke-miterlimit:10;" d="M 195.046875 22.644531 L 191.902344 26.441406 L 179.023438 28.0625 L 178.210938 30.625 L 167.613281 27.863281 L 166.539063 26.9375 L 161.335938 20.296875 L 160.691406 18.9375 L 155.75 -2 "/>
<path style="fill:none;stroke-width:8;stroke-linecap:round;stroke-linejoin:round;stroke:rgb(75.686275%,70.980392%,61.568627%);stroke-opacity:1;stroke-miterlimit:10;" d="M 248.917969 2.285156 L 253.324219 -6.1875 L 254.371094 -9 "/>
<path style="fill:none;stroke-width:8;stroke-linecap:round;stroke-linejoin:round;stroke:rgb(75.686275%,70.980392%,61.568627%);stroke-opacity:1;stroke-miterlimit:10;" d="M 264 146.042969 L 254.566406 140.722656 L 264 143.3125 "/>
<path style="fill:none;stroke-width:10;stroke-linecap:round;stroke-linejoin:round;stroke:rgb(86.666667%,62.352941%,6.666667%);stroke-opacity:1;stroke-miterlimit:10;" d="M 210.71875 14.601563 L 210.90625 15.832031 L 211.460938 17.640625 L 212.636719 18.886719 L 214.375 19.652344 L 216.070313 19.609375 L 217.625 18.839844 L 218.589844 17.371094 L 218.8125 16.601563 "/>
<path style="fill:none;stroke-width:8;stroke-linecap:round;stroke-linejoin:round;stroke:rgb(75.686275%,70.980392%,61.568627%);stroke-opacity:1;stroke-miterlimit:10;" d="M 246.28125 -9 L 238.621094 17.488281 L 238.386719 18.621094 L 238.140625 20.5 L 237.839844 23.808594 "/>
<path style="fill:none;stroke-width:8;stroke-linecap:round;stroke-linejoin:round;stroke:rgb(75.686275%,70.980392%,61.568627%);stroke-opacity:1;stroke-miterlimit:10;" d="M 198.191406 21.335938 L 199.375 18.296875 L 206.105469 -5.601563 L 207.089844 -9 "/>
<path style="fill:none;stroke-width:8;stroke-linecap:round;stroke-linejoin:round;stroke:rgb(75.686275%,70.980392%,61.568627%);stroke-opacity:1;stroke-miterlimit:10;" d="M 208.519531 23.976563 L 206.996094 23.816406 L 205.558594 23.601563 L 203.953125 23.273438 L 201.453125 22.558594 L 198.191406 21.335938 L 196.722656 20.621094 L 193.886719 18.40625 L 191.609375 16.1875 L 189.835938 14.097656 L 188.636719 12.503906 L 187.457031 10.734375 L 186.882813 9.625 L 186.421875 8.734375 L 185.417969 6.539063 L 184.640625 4.359375 L 183.917969 1.988281 L 183.4375 -0.621094 L 183.148438 -2.988281 L 182.996094 -5.324219 L 182.996094 -7.859375 L 183.125 -9 "/>
<path style="fill:none;stroke-width:9;stroke-linecap:round;stroke-linejoin:round;stroke:rgb(75.686275%,70.980392%,61.568627%);stroke-opacity:1;stroke-miterlimit:10;" d="M 252.851563 26.996094 L 253.527344 24.128906 "/>
<path style="fill:none;stroke-width:9;stroke-linecap:round;stroke-linejoin:round;stroke:rgb(75.686275%,70.980392%,61.568627%);stroke-opacity:1;stroke-miterlimit:10;" d="M 253.527344 24.128906 L 254.394531 21.515625 L 264.855469 -10 "/>
<path style="fill:none;stroke-width:10;stroke-linecap:round;stroke-linejoin:round;stroke:rgb(75.686275%,70.980392%,61.568627%);stroke-opacity:1;stroke-miterlimit:10;" d="M 247.304688 25.453125 L 249.300781 25.976563 L 251.113281 26.5 L 252.851563 26.996094 "/>
<path style="fill:none;stroke-width:10;stroke-linecap:round;stroke-linejoin:round;stroke:rgb(75.686275%,70.980392%,61.568627%);stroke-opacity:1;stroke-miterlimit:10;" d="M 208.519531 23.976563 L 210.820313 24.5 L 212.746094 24.808594 L 214.300781 24.929688 "/>
<path style="fill:none;stroke-width:10;stroke-linecap:round;stroke-linejoin:round;stroke:rgb(75.686275%,70.980392%,61.568627%);stroke-opacity:1;stroke-miterlimit:10;" d="M 214.300781 24.929688 L 216.75 25.015625 L 218.472656 25.042969 L 220.265625 24.964844 "/>
<path style="fill:none;stroke-width:10;stroke-linecap:round;stroke-linejoin:round;stroke:rgb(75.686275%,70.980392%,61.568627%);stroke-opacity:1;stroke-miterlimit:10;" d="M 227.984375 20.8125 L 226.039063 21.03125 L 224.472656 21.234375 L 222.941406 21.578125 L 219.992188 22.4375 "/>
<path style="fill:none;stroke-width:10;stroke-linecap:round;stroke-linejoin:round;stroke:rgb(75.686275%,70.980392%,61.568627%);stroke-opacity:1;stroke-miterlimit:10;" d="M 219.992188 22.4375 L 217.765625 22.964844 L 216.34375 23.167969 L 214.613281 23.328125 L 208.519531 23.976563 "/>
<path style="fill:none;stroke-width:10;stroke-linecap:round;stroke-linejoin:round;stroke:rgb(75.686275%,70.980392%,61.568627%);stroke-opacity:1;stroke-miterlimit:10;" d="M 266 27.949219 L 263.527344 27 L 261.363281 26.300781 L 259.363281 25.691406 L 256.558594 24.941406 L 253.527344 24.128906 "/>
<path style="fill:none;stroke-width:10;stroke-linecap:round;stroke-linejoin:round;stroke:rgb(75.686275%,70.980392%,61.568627%);stroke-opacity:1;stroke-miterlimit:10;" d="M 252.851563 26.996094 L 255.664063 27.800781 L 258.339844 28.570313 L 260.648438 29.269531 L 262.996094 30.09375 L 264.949219 30.90625 L 266 31.375 "/>
<path style="fill:none;stroke-width:10;stroke-linecap:round;stroke-linejoin:round;stroke:rgb(75.686275%,70.980392%,61.568627%);stroke-opacity:1;stroke-miterlimit:10;" d="M 253.527344 24.128906 L 252.050781 23.734375 L 244.503906 21.714844 L 242.410156 21.234375 L 240.402344 20.851563 L 238.140625 20.5 L 236.71875 20.328125 L 235.304688 20.242188 L 233.65625 20.28125 L 231.824219 20.371094 L 227.984375 20.8125 "/>
<path style="fill:none;stroke-width:10;stroke-linecap:round;stroke-linejoin:round;stroke:rgb(75.686275%,70.980392%,61.568627%);stroke-opacity:1;stroke-miterlimit:10;" d="M 220.265625 24.964844 L 223.371094 24.667969 L 231.472656 23.898438 L 233.496094 23.765625 L 235.074219 23.746094 L 237.839844 23.808594 L 239.15625 23.878906 L 241.210938 24.121094 L 243.21875 24.496094 L 245.394531 25 L 247.304688 25.453125 "/>
<path style="fill:none;stroke-width:11;stroke-linecap:round;stroke-linejoin:round;stroke:rgb(86.666667%,62.352941%,6.666667%);stroke-opacity:1;stroke-miterlimit:10;" d="M 218.585938 -12 L 210.71875 14.601563 L 208.832031 20.996094 L 208.617188 22.007813 L 208.519531 23.976563 "/>
<path style="fill:none;stroke-width:11;stroke-linecap:round;stroke-linejoin:round;stroke:rgb(86.666667%,62.352941%,6.666667%);stroke-opacity:1;stroke-miterlimit:10;" d="M 220.265625 24.964844 L 219.992188 22.4375 L 219.824219 21.320313 L 219.511719 19.960938 L 219.144531 18.582031 L 218.921875 17.542969 L 218.898438 15.351563 L 219.042969 14.1875 L 219.289063 12.992188 L 226.179688 -10.375 L 226.625 -12 "/>
<path style="fill:none;stroke-width:11;stroke-linecap:round;stroke-linejoin:round;stroke:rgb(72.941176%,43.137255%,15.294118%);stroke-opacity:1;stroke-miterlimit:10;" d="M 250.390625 -3.761719 L 248.917969 2.285156 L 247.394531 7.753906 L 246.824219 9.824219 "/>
<path style="fill:none;stroke-width:11;stroke-linecap:round;stroke-linejoin:round;stroke:rgb(72.941176%,43.137255%,15.294118%);stroke-opacity:1;stroke-miterlimit:10;" d="M 251.695313 11.265625 L 252.671875 8.019531 L 253.441406 5.746094 L 254.148438 3.78125 L 255.058594 1.707031 L 256.503906 -1.453125 L 257.515625 -3.804688 L 258.261719 -5.710938 L 260.335938 -12 "/>
<path style="fill:none;stroke-width:11;stroke-linecap:round;stroke-linejoin:round;stroke:rgb(72.941176%,43.137255%,15.294118%);stroke-opacity:1;stroke-miterlimit:10;" d="M 222.074219 -12 L 214.035156 15.707031 "/>
<path style="fill:none;stroke-width:11;stroke-linecap:round;stroke-linejoin:round;stroke:rgb(72.941176%,43.137255%,15.294118%);stroke-opacity:1;stroke-miterlimit:10;" d="M 216.148438 16.171875 L 224.136719 -11.132813 L 224.378906 -12 "/>
<path style="fill:none;stroke-width:6;stroke-linecap:round;stroke-linejoin:round;stroke:rgb(100%,100%,100%);stroke-opacity:1;stroke-miterlimit:10;" d="M 248.917969 2.285156 L 253.324219 -6.1875 L 254.371094 -9 "/>
<path style="fill:none;stroke-width:6;stroke-linecap:round;stroke-linejoin:round;stroke:rgb(100%,100%,100%);stroke-opacity:1;stroke-miterlimit:10;" d="M 264 146.042969 L 254.566406 140.722656 L 264 143.3125 "/>
<path style="fill:none;stroke-width:8;stroke-linecap:round;stroke-linejoin:round;stroke:rgb(100%,76.470588%,27.058824%);stroke-opacity:1;stroke-miterlimit:10;" d="M 210.71875 14.601563 L 210.90625 15.832031 L 211.460938 17.640625 L 212.636719 18.886719 L 214.375 19.652344 L 216.070313 19.609375 L 217.625 18.839844 L 218.589844 17.371094 L 218.8125 16.601563 "/>
<path style="fill:none;stroke-width:6;stroke-linecap:round;stroke-linejoin:round;stroke:rgb(100%,100%,100%);stroke-opacity:1;stroke-miterlimit:10;" d="M 246.28125 -9 L 238.621094 17.488281 L 238.386719 18.621094 L 238.140625 20.5 L 237.839844 23.808594 "/>
<path style="fill:none;stroke-width:6;stroke-linecap:round;stroke-linejoin:round;stroke:rgb(100%,100%,100%);stroke-opacity:1;stroke-miterlimit:10;" d="M 198.191406 21.335938 L 199.375 18.296875 L 206.105469 -5.601563 L 207.089844 -9 "/>
<path style="fill:none;stroke-width:6;stroke-linecap:round;stroke-linejoin:round;stroke:rgb(100%,100%,100%);stroke-opacity:1;stroke-miterlimit:10;" d="M 208.519531 23.976563 L 206.996094 23.816406 L 205.558594 23.601563 L 203.953125 23.273438 L 201.453125 22.558594 L 198.191406 21.335938 L 196.722656 20.621094 L 193.886719 18.40625 L 191.609375 16.1875 L 189.835938 14.097656 L 188.636719 12.503906 L 187.457031 10.734375 L 186.882813 9.625 L 186.421875 8.734375 L 185.417969 6.539063 L 184.640625 4.359375 L 183.917969 1.988281 L 183.4375 -0.621094 L 183.148438 -2.988281 L 182.996094 -5.324219 L 182.996094 -7.859375 L 183.125 -9 "/>
<path style="fill:none;stroke-width:7;stroke-linecap:round;stroke-linejoin:round;stroke:rgb(100%,99.215686%,54.509804%);stroke-opacity:1;stroke-miterlimit:10;" d="M 252.851563 26.996094 L 253.527344 24.128906 "/>
<path style="fill:none;stroke-width:7;stroke-linecap:round;stroke-linejoin:round;stroke:rgb(100%,99.215686%,54.509804%);stroke-opacity:1;stroke-miterlimit:10;" d="M 253.527344 24.128906 L 254.394531 21.515625 L 264.855469 -10 "/>
<path style="fill:none;stroke-width:8;stroke-linecap:round;stroke-linejoin:round;stroke:rgb(100%,99.215686%,54.509804%);stroke-opacity:1;stroke-miterlimit:10;" d="M 247.304688 25.453125 L 249.300781 25.976563 L 251.113281 26.5 L 252.851563 26.996094 "/>
<path style="fill:none;stroke-width:8;stroke-linecap:round;stroke-linejoin:round;stroke:rgb(100%,99.215686%,54.509804%);stroke-opacity:1;stroke-miterlimit:10;" d="M 208.519531 23.976563 L 210.820313 24.5 L 212.746094 24.808594 L 214.300781 24.929688 "/>
<path style="fill:none;stroke-width:8;stroke-linecap:round;stroke-linejoin:round;stroke:rgb(100%,99.215686%,54.509804%);stroke-opacity:1;stroke-miterlimit:10;" d="M 214.300781 24.929688 L 216.75 25.015625 L 218.472656 25.042969 L 220.265625 24.964844 "/>
<path style="fill:none;stroke-width:8;stroke-linecap:round;stroke-linejoin:round;stroke:rgb(100%,99.215686%,54.509804%);stroke-opacity:1;stroke-miterlimit:10;" d="M 227.984375 20.8125 L 226.039063 21.03125 L 224.472656 21.234375 L 222.941406 21.578125 L 219.992188 22.4375 "/>
<path style="fill:none;stroke-width:8;stroke-linecap:round;stroke-linejoin:round;stroke:rgb(100%,99.215686%,54.509804%);stroke-opacity:1;stroke-miterlimit:10;" d="M 219.992188 22.4375 L 217.765625 22.964844 L 216.34375 23.167969 L 214.613281 23.328125 L 208.519531 23.976563 "/>
<path style="fill:none;stroke-width:8;stroke-linecap:round;stroke-linejoin:round;stroke:rgb(100%,99.215686%,54.509804%);stroke-opacity:1;stroke-miterlimit:10;" d="M 266 27.949219 L 263.527344 27 L 261.363281 26.300781 L 259.363281 25.691406 L 256.558594 24.941406 L 253.527344 24.128906 "/>
<path style="fill:none;stroke-width:8;stroke-linecap:round;stroke-linejoin:round;stroke:rgb(100%,99.215686%,54.509804%);stroke-opacity:1;stroke-miterlimit:10;" d="M 252.851563 26.996094 L 255.664063 27.800781 L 258.339844 28.570313 L 260.648438 29.269531 L 262.996094 30.09375 L 264.949219 30.90625 L 266 31.375 "/>
<path style="fill:none;stroke-width:8;stroke-linecap:round;stroke-linejoin:round;stroke:rgb(100%,99.215686%,54.509804%);stroke-opacity:1;stroke-miterlimit:10;" d="M 253.527344 24.128906 L 252.050781 23.734375 L 244.503906 21.714844 L 242.410156 21.234375 L 240.402344 20.851563 L 238.140625 20.5 L 236.71875 20.328125 L 235.304688 20.242188 L 233.65625 20.28125 L 231.824219 20.371094 L 227.984375 20.8125 "/>
<path style="fill:none;stroke-width:8;stroke-linecap:round;stroke-linejoin:round;stroke:rgb(100%,99.215686%,54.509804%);stroke-opacity:1;stroke-miterlimit:10;" d="M 220.265625 24.964844 L 223.371094 24.667969 L 231.472656 23.898438 L 233.496094 23.765625 L 235.074219 23.746094 L 237.839844 23.808594 L 239.15625 23.878906 L 241.210938 24.121094 L 243.21875 24.496094 L 245.394531 25 L 247.304688 25.453125 "/>
<path style="fill:none;stroke-width:9;stroke-linecap:round;stroke-linejoin:round;stroke:rgb(100%,76.470588%,27.058824%);stroke-opacity:1;stroke-miterlimit:10;" d="M 218.585938 -12 L 210.71875 14.601563 L 208.832031 20.996094 L 208.617188 22.007813 L 208.519531 23.976563 "/>
<path style="fill:none;stroke-width:9;stroke-linecap:round;stroke-linejoin:round;stroke:rgb(100%,76.470588%,27.058824%);stroke-opacity:1;stroke-miterlimit:10;" d="M 220.265625 24.964844 L 219.992188 22.4375 L 219.824219 21.320313 L 219.511719 19.960938 L 219.144531 18.582031 L 218.921875 17.542969 L 218.898438 15.351563 L 219.042969 14.1875 L 219.289063 12.992188 L 226.179688 -10.375 L 226.625 -12 "/>
<path style="fill:none;stroke-width:9;stroke-linecap:round;stroke-linejoin:round;stroke:rgb(99.215686%,57.254902%,22.745098%);stroke-opacity:1;stroke-miterlimit:10;" d="M 250.390625 -3.761719 L 248.917969 2.285156 L 247.394531 7.753906 L 246.824219 9.824219 "/>
<path style="fill:none;stroke-width:9;stroke-linecap:round;stroke-linejoin:round;stroke:rgb(99.215686%,57.254902%,22.745098%);stroke-opacity:1;stroke-miterlimit:10;" d="M 251.695313 11.265625 L 252.671875 8.019531 L 253.441406 5.746094 L 254.148438 3.78125 L 255.058594 1.707031 L 256.503906 -1.453125 L 257.515625 -3.804688 L 258.261719 -5.710938 L 260.335938 -12 "/>
<path style="fill:none;stroke-width:9;stroke-linecap:round;stroke-linejoin:round;stroke:rgb(99.215686%,57.254902%,22.745098%);stroke-opacity:1;stroke-miterlimit:10;" d="M 222.074219 -12 L 214.035156 15.707031 "/>
<path style="fill:none;stroke-width:9;stroke-linecap:round;stroke-linejoin:round;stroke:rgb(99.215686%,57.254902%,22.745098%);stroke-opacity:1;stroke-miterlimit:10;" d="M 216.148438 16.171875 L 224.136719 -11.132813 L 224.378906 -12 "/>
</g>
</svg>

