<?xml version="1.0" encoding="UTF-8"?>
<svg xmlns="http://www.w3.org/2000/svg" xmlns:xlink="http://www.w3.org/1999/xlink" width="256pt" height="256pt" viewBox="0 0 256 256" version="1.1">
<g id="surface2">
<rect x="0" y="0" width="256" height="256" style="fill:rgb(94.901961%,93.72549%,91.372549%);fill-opacity:1;stroke:none;"/>
<path style="fill:none;stroke-width:1;stroke-linecap:round;stroke-linejoin:round;stroke:rgb(100%,100%,100%);stroke-opacity:1;stroke-dasharray:2,3;stroke-miterlimit:10;" d="M 257 36.945313 L 252.460938 31.476563 L 224.457031 12.476563 L 202.460938 2.476563 L 196.355469 -2 "/>
<path style="fill:none;stroke-width:1;stroke-linecap:round;stroke-linejoin:round;stroke:rgb(100%,100%,100%);stroke-opacity:1;stroke-dasharray:2,3;stroke-miterlimit:10;" d="M 104.714844 -2 L 103.882813 1.957031 L 100.726563 16.257813 L 101.097656 28.332031 L 105.554688 38.917969 L 107.785156 53.03125 L 111.683594 63.433594 L 120.972656 69.746094 L 129.886719 79.40625 L 136.015625 85.351563 L 139.914063 95.933594 L 139.359375 107.265625 L 138.058594 118.96875 L 137.6875 130.113281 L 130.628906 139.769531 L 126.730469 148.5 L 125.984375 157.972656 L 127.097656 166.699219 L 122.457031 173.945313 L 118.226563 182.367188 L 117.503906 186.398438 L 116.328125 191.773438 L 115.214844 199.945313 L 121.339844 208.304688 L 125.984375 214.429688 L 131.1875 220.191406 L 133.042969 227.804688 L 134.15625 237.09375 L 135.644531 245.261719 L 140.101563 254.925781 L 141.023438 257 "/>
<path style="fill:none;stroke-width:1;stroke-linecap:round;stroke-linejoin:round;stroke:rgb(100%,100%,100%);stroke-opacity:1;stroke-dasharray:2,3;stroke-miterlimit:10;" d="M 69.039063 257 L 70.621094 254.722656 L 77.304688 246.496094 L 87.332031 239.8125 L 94.410156 229.785156 L 97.949219 218.382813 L 101.6875 206.191406 L 105.226563 195.96875 L 110.609375 189.371094 L 116.433594 182.550781 L 118.226563 182.367188 L 122.6875 179.328125 L 128.230469 177.679688 L 134.535156 180.644531 L 139.632813 179.855469 L 145.925781 173.65625 L 150.554688 169.03125 L 159.203125 168.046875 L 166.417969 164.792969 L 170.761719 162.929688 L 177.1875 153.5 L 181.933594 149.09375 L 188.59375 143.863281 L 198.105469 142.121094 L 205.167969 137.464844 L 211.1875 133.894531 L 217.515625 129.699219 L 225.363281 121.441406 L 236.355469 112.621094 L 242.742188 103.894531 L 256.886719 97.59375 L 257 97.523438 "/>
</g>
</svg>

