<?xml version="1.0" encoding="UTF-8"?>
<svg xmlns="http://www.w3.org/2000/svg" xmlns:xlink="http://www.w3.org/1999/xlink" width="256pt" height="256pt" viewBox="0 0 256 256" version="1.1">
<g id="surface2">
<rect x="0" y="0" width="256" height="256" style="fill:rgb(60%,70.196078%,80%);fill-opacity:1;stroke:none;"/>
<path style=" stroke:none;fill-rule:evenodd;fill:rgb(94.901961%,93.72549%,91.372549%);fill-opacity:1;" d="M 73.238281 58.746094 L 61.226563 67.929688 L 46.386719 82.769531 L 29.429688 99.023438 L 32.964844 120.925781 L 44.269531 113.859375 L 54.867188 96.902344 L 76.066406 96.902344 L 91.257813 85.359375 L 100.089844 91.25 L 67.117188 123.042969 L 73.59375 144.832031 L 78.894531 156.023438 L 77.125 169.566406 L 72.414063 173.6875 L 71.238281 167.210938 L 59.460938 166.621094 L 47.683594 181.929688 L 40.617188 211.371094 L 53.570313 217.851563 L 33.550781 223.738281 L -4 205.65625 L -4 33.765625 L 17.652344 14.699219 L 38.851563 2.332031 L 54.160156 -0.0234375 L 61.054688 -4 L 99.898438 -4 L 102.445313 7.042969 L 98.914063 19.996094 L 108.496094 23.464844 L 123.414063 26.480469 L 123.195313 42.304688 L 115.316406 42.195313 L 115.097656 58.019531 L 107.160156 61.875 Z M 73.238281 58.746094 "/>
<path style=" stroke:none;fill-rule:evenodd;fill:rgb(94.901961%,93.72549%,91.372549%);fill-opacity:1;" d="M 259 259 L 259 215.214844 L 255.703125 217.023438 L 242.15625 196.667969 L 227.558594 190.320313 L 222.101563 179.910156 L 224.003906 175.847656 L 249.519531 157.570313 L 259 147.394531 Z M 259 259 "/>
<path style=" stroke:none;fill-rule:evenodd;fill:rgb(70.980392%,82.352941%,61.176471%);fill-opacity:1;" d="M -4 210.136719 L 20 220.246094 L 27.949219 217.847656 L 25.039063 213.371094 L 22.949219 204.347656 L 19.074219 189.722656 L 19.699219 184.347656 L 16.070313 183.347656 L 22.597656 160.554688 L 26.617188 161.378906 L 28.824219 156.472656 L 31.699219 158.347656 L 41.949219 149.097656 L 44.699219 146.972656 L 47.824219 146.472656 L 57.699219 148.722656 L 59.199219 153.71875 L 66.320313 143.222656 L 62.949219 130.472656 L 64.074219 125.347656 L 64.324219 119.847656 L 67.574219 112.097656 L 71.449219 107.097656 L 71.324219 103.722656 L 67.949219 100.097656 L 64.195313 99.347656 L 61.324219 101.597656 L 58.324219 105.972656 L 55.445313 112.722656 L 51.570313 117.222656 L 43.074219 123.847656 L 36.699219 126.347656 L 32.570313 126.847656 L 27.320313 122.472656 L 26.199219 114.597656 L 28.324219 106.222656 L 29.070313 99.722656 L 31.324219 94.347656 L 41.695313 84.097656 L 45.945313 75.347656 L 47.449219 73.722656 L 51.195313 74.472656 L 52.945313 72.597656 L 56.949219 66.847656 L 65.699219 60.722656 L 70.195313 52.722656 L 86.695313 26.722656 L 93.824219 19.597656 L 96.949219 15.097656 L 100.070313 8.097656 L 98.824219 6.597656 L 97.570313 6.847656 L 94.199219 0.0976563 L 89.074219 -3.402344 L 89.128906 -4 L 71.671875 -4 L 67.574219 0.0976563 L 62.074219 2.847656 L 56.699219 3.097656 L 52.761719 7.183594 L 48.191406 5.714844 L 45.121094 2.621094 L 30.597656 13.59375 L 26 8.496094 L 20.449219 14.097656 L 17.949219 18.347656 L 13.199219 23.847656 L 8.949219 28.347656 L 1.695313 34.597656 L -4 38.644531 Z M -4 210.136719 "/>
<path style="fill:none;stroke-width:1;stroke-linecap:round;stroke-linejoin:round;stroke:rgb(100%,100%,100%);stroke-opacity:1;stroke-dasharray:2,3;stroke-miterlimit:10;" d="M 53.960938 6.226563 L 59.011719 14.246094 "/>
<path style="fill:none;stroke-width:1;stroke-linecap:round;stroke-linejoin:round;stroke:rgb(100%,100%,100%);stroke-opacity:1;stroke-dasharray:2,3;stroke-miterlimit:10;" d="M 5.964844 144.078125 L 5.226563 142.59375 L 4.355469 140.59375 L 3.84375 138.914063 L 3.335938 136.308594 L 3.082031 133.898438 L 3.257813 131.40625 "/>
<path style="fill:none;stroke-width:1;stroke-linecap:round;stroke-linejoin:round;stroke:rgb(100%,100%,100%);stroke-opacity:1;stroke-dasharray:2,3;stroke-miterlimit:10;" d="M 35.234375 132.484375 L 31.300781 132.101563 L 27.78125 131.523438 L 23.664063 129.9375 L 18.144531 126.957031 L 12.871094 123.753906 L 10.523438 120.46875 "/>
<path style="fill:none;stroke-width:1;stroke-linecap:round;stroke-linejoin:round;stroke:rgb(100%,100%,100%);stroke-opacity:1;stroke-dasharray:2,3;stroke-miterlimit:10;" d="M 35.234375 132.484375 L 40.054688 136.398438 L 41.957031 138.242188 L 44.46875 139.957031 L 45.832031 140.742188 L 47.09375 140.941406 L 55.199219 141.609375 L 56.90625 141.757813 L 59.40625 142.066406 L 61.285156 142.382813 L 62.816406 143.050781 L 64.976563 143.820313 L 69.785156 146.695313 L 71.726563 148.007813 "/>
<path style="fill:none;stroke-width:1;stroke-linecap:round;stroke-linejoin:round;stroke:rgb(100%,100%,100%);stroke-opacity:1;stroke-dasharray:2,3;stroke-miterlimit:10;" d="M 7.207031 120.757813 L 4.816406 128.238281 L 3.257813 131.40625 L 1.210938 134.632813 L -0.746094 137.476563 L -2 139.097656 "/>
<path style="fill:none;stroke-width:1;stroke-linecap:round;stroke-linejoin:round;stroke:rgb(100%,100%,100%);stroke-opacity:1;stroke-dasharray:2,3;stroke-miterlimit:10;" d="M 62.816406 143.050781 L 61.914063 139.695313 L 61.164063 135.820313 L 60.910156 133.257813 L 61.226563 131.507813 L 62.035156 128.507813 L 62.722656 127.195313 L 62.601563 126.070313 L 62.476563 124.695313 L 62.539063 123.128906 L 63.164063 119.882813 L 64.226563 115.070313 L 65.535156 112.320313 L 65.847656 110.945313 L 65.101563 109.632813 L 63.601563 108.695313 L 61.660156 108.445313 L 60.164063 109.382813 L 58.785156 111.382813 L 57.195313 114.304688 L 54.332031 118.054688 L 51.773438 120.539063 L 47.074219 124.078125 L 44.808594 126.050781 L 40.53125 128.8125 L 35.234375 132.484375 "/>
<path style="fill:none;stroke-width:1;stroke-linecap:round;stroke-linejoin:round;stroke:rgb(100%,100%,100%);stroke-opacity:1;stroke-dasharray:2,3;stroke-miterlimit:10;" d="M 5.964844 144.078125 L 10 147.675781 L 14.628906 151.441406 L 17.566406 154.882813 L 18.832031 157.195313 L 19.492188 160.9375 L 19.964844 163.894531 L 19.847656 165.988281 L 19.28125 168.707031 L 17.828125 173.71875 L 16.949219 176.972656 L 15.667969 178.875 L 14.339844 180.472656 L 12.21875 182.257813 L 10.042969 184.203125 L 8.003906 185.566406 L 5.6875 186.367188 L 2.753906 187.097656 L 0.0273438 187.488281 L -2 187.597656 M -2 141.773438 L 0.132813 142.132813 L 2.003906 142.570313 L 4.332031 143.304688 L 5.964844 144.078125 "/>
<path style="fill:none;stroke-width:1;stroke-linecap:round;stroke-linejoin:round;stroke:rgb(100%,100%,100%);stroke-opacity:1;stroke-dasharray:2,3;stroke-miterlimit:10;" d="M 46.378906 4.867188 L 49.300781 6.050781 L 51.339844 6.890625 L 53.960938 6.226563 L 54.96875 5.746094 L 56.652344 6.101563 L 58.796875 6.664063 L 60.25 6.816406 L 63.722656 6.609375 L 66.632813 5.996094 L 69.007813 4.828125 L 70.84375 3.546875 L 72.8125 1.328125 L 75.488281 -2 M 89.210938 -2 L 90.882813 -0.203125 L 93.382813 2.375 L 94.378906 5.179688 L 93.894531 8.042969 L 92.390625 10.617188 L 88.484375 14.933594 L 85.039063 18.199219 L 81.03125 24.097656 L 75.492188 30.351563 L 72.222656 31.601563 L 69.695313 33.824219 L 66.734375 37.957031 L 64.589844 43.472656 L 62.214844 47.582031 L 58.03125 52.6875 L 52.058594 59.757813 L 46.933594 63.207031 L 45.777344 64.355469 L 37.300781 69.96875 L 36.203125 72.394531 L 35.617188 79.746094 L 33.882813 85.644531 L 30.054688 93.195313 L 26.964844 97.816406 L 23.671875 103.917969 L 23.210938 109.125 L 24.003906 118.367188 L 24.359375 126 L 22.914063 129.535156 L 23.339844 130.441406 L 24.746094 133.839844 L 26.25 140.039063 L 25.558594 146.828125 L 23.492188 153.953125 L 22.777344 156.785156 L 21.730469 160.359375 L 20.507813 167.304688 L 17.1875 179.128906 L 14.941406 187.503906 L 13.820313 197 L 12.59375 200.980469 L 8.476563 206.605469 L 6.167969 209.808594 L 4.5625 211.175781 L 3.335938 212.414063 L -1.003906 211.367188 L -2 210.945313 M -2 37.113281 L 3.804688 32.652344 L 12.945313 25.253906 L 18.460938 18.613281 L 21.472656 13.304688 L 25.554688 9.78125 L 28.875 13.867188 L 31.015625 13.710938 L 36.839844 9.066406 L 40.207031 5.496094 L 45.824219 4.113281 L 46.378906 4.867188 "/>
<path style="fill:none;stroke-width:8;stroke-linecap:round;stroke-linejoin:round;stroke:rgb(75.686275%,70.980392%,61.568627%);stroke-opacity:1;stroke-miterlimit:10;" d="M 13.675781 57.222656 L 10.742188 57.160156 L 9.15625 57.519531 L 7.785156 58.019531 L 6.878906 58.789063 L 5.34375 60.132813 "/>
<path style="fill:none;stroke-width:8;stroke-linecap:round;stroke-linejoin:round;stroke:rgb(75.686275%,70.980392%,61.568627%);stroke-opacity:1;stroke-miterlimit:10;" d="M 12.203125 36.535156 L 11.695313 40.976563 L 11.382813 42.523438 L 11.179688 44.382813 L 11.050781 47.113281 L 11.191406 50.042969 L 11.332031 51.21875 L 11.75 53.035156 L 12.703125 55.488281 L 13.3125 56.492188 L 14.042969 57.796875 L 15.246094 59.394531 L 16.847656 61.054688 L 18.375 62.425781 L 19.871094 63.347656 L 21.695313 64.328125 L 23.550781 64.957031 L 26.03125 65.476563 L 28.714844 65.75 L 31.523438 65.773438 L 35.3125 65.382813 L 39.078125 64.800781 L 42.296875 64.207031 L 46.933594 63.207031 L 53.777344 61.550781 L 58 60.441406 L 66.195313 59.511719 L 88.152344 56.132813 L 93.402344 54.683594 L 95.164063 53.191406 L 97.097656 50.445313 "/>
<path style="fill:none;stroke-width:8;stroke-linecap:round;stroke-linejoin:round;stroke:rgb(75.686275%,70.980392%,61.568627%);stroke-opacity:1;stroke-miterlimit:10;" d="M 239.265625 186.117188 L 252.457031 178.136719 L 264 172.78125 "/>
<path style="fill:none;stroke-width:8;stroke-linecap:round;stroke-linejoin:round;stroke:rgb(75.686275%,70.980392%,61.568627%);stroke-opacity:1;stroke-miterlimit:10;" d="M 12.242188 94.53125 L 10.449219 92.070313 L 9.40625 90.753906 L 7.8125 87.925781 L 6.722656 85.695313 L 5.371094 83.753906 "/>
<path style="fill:none;stroke-width:8;stroke-linecap:round;stroke-linejoin:round;stroke:rgb(75.686275%,70.980392%,61.568627%);stroke-opacity:1;stroke-miterlimit:10;" d="M 5.371094 83.753906 L 4.328125 86.898438 L 3.65625 89.398438 L 2.832031 91.429688 L 1.691406 93.226563 L -0.125 96.246094 "/>
<path style="fill:none;stroke-width:8;stroke-linecap:round;stroke-linejoin:round;stroke:rgb(75.686275%,70.980392%,61.568627%);stroke-opacity:1;stroke-miterlimit:10;" d="M 12.242188 94.53125 L 9.351563 93.847656 L 7.132813 93.757813 L 5.25 93.96875 L 3.441406 94.4375 L 1.527344 95.242188 L -0.125 96.246094 L -1.535156 97.398438 L -4.007813 100.519531 L -4.808594 102.152344 L -5.382813 103.890625 L -5.757813 106.066406 L -5.757813 108.410156 L -5.332031 110.8125 L -4.871094 112.203125 L -4.058594 113.90625 L -3.144531 115.316406 L -2.203125 116.445313 L -0.539063 117.960938 L 0.875 118.917969 L 3.269531 120.019531 L 4.632813 120.414063 L 7.207031 120.757813 L 8.246094 120.753906 L 9.496094 120.648438 L 10.523438 120.46875 L 12.679688 119.8125 L 15.238281 118.46875 L 17.269531 116.796875 L 19.035156 114.613281 L 20.050781 112.734375 L 20.953125 109.886719 L 21.171875 108.285156 L 21.203125 106.730469 L 20.875 104.257813 L 20.195313 102.113281 L 19.253906 100.25 L 18.59375 99.261719 L 17.5 97.957031 L 16.175781 96.730469 L 14.460938 95.558594 L 12.242188 94.53125 "/>
<path style="fill:none;stroke-width:8;stroke-linecap:round;stroke-linejoin:round;stroke:rgb(75.686275%,70.980392%,61.568627%);stroke-opacity:1;stroke-miterlimit:10;" d="M 48.402344 -3.035156 L 49.171875 -1.984375 L 50.015625 -0.1875 L 50.085938 1.289063 L 49.40625 2.644531 L 46.378906 4.867188 L 41.214844 8.339844 L 34.886719 13.097656 L 31.191406 16.128906 L 27.882813 18.921875 L 22.757813 23.59375 L 19.972656 26.523438 L 17.382813 29.347656 L 14.730469 32.769531 L 12.203125 36.535156 L 10.441406 39.160156 L 9.511719 41.257813 L 8.570313 43.519531 L 8.058594 44.964844 L 7.164063 47.976563 L 6.558594 50.707031 L 5.582031 57.035156 L 5.34375 60.132813 L 4.710938 72.113281 L 4.878906 74.933594 L 5.066406 77.492188 L 5.246094 80.769531 L 5.371094 83.753906 "/>
<path style="fill:none;stroke-width:6;stroke-linecap:round;stroke-linejoin:round;stroke:rgb(100%,100%,100%);stroke-opacity:1;stroke-miterlimit:10;" d="M 13.675781 57.222656 L 10.742188 57.160156 L 9.15625 57.519531 L 7.785156 58.019531 L 6.878906 58.789063 L 5.34375 60.132813 "/>
<path style="fill:none;stroke-width:6;stroke-linecap:round;stroke-linejoin:round;stroke:rgb(100%,100%,100%);stroke-opacity:1;stroke-miterlimit:10;" d="M 12.203125 36.535156 L 11.695313 40.976563 L 11.382813 42.523438 L 11.179688 44.382813 L 11.050781 47.113281 L 11.191406 50.042969 L 11.332031 51.21875 L 11.75 53.035156 L 12.703125 55.488281 L 13.3125 56.492188 L 14.042969 57.796875 L 15.246094 59.394531 L 16.847656 61.054688 L 18.375 62.425781 L 19.871094 63.347656 L 21.695313 64.328125 L 23.550781 64.957031 L 26.03125 65.476563 L 28.714844 65.75 L 31.523438 65.773438 L 35.3125 65.382813 L 39.078125 64.800781 L 42.296875 64.207031 L 46.933594 63.207031 L 53.777344 61.550781 L 58 60.441406 L 66.195313 59.511719 L 88.152344 56.132813 L 93.402344 54.683594 L 95.164063 53.191406 L 97.097656 50.445313 "/>
<path style="fill:none;stroke-width:6;stroke-linecap:round;stroke-linejoin:round;stroke:rgb(100%,100%,100%);stroke-opacity:1;stroke-miterlimit:10;" d="M 239.265625 186.117188 L 252.457031 178.136719 L 264 172.78125 "/>
<path style="fill:none;stroke-width:6;stroke-linecap:round;stroke-linejoin:round;stroke:rgb(100%,99.215686%,54.509804%);stroke-opacity:1;stroke-miterlimit:10;" d="M 12.242188 94.53125 L 10.449219 92.070313 L 9.40625 90.753906 L 7.8125 87.925781 L 6.722656 85.695313 L 5.371094 83.753906 "/>
<path style="fill:none;stroke-width:6;stroke-linecap:round;stroke-linejoin:round;stroke:rgb(100%,99.215686%,54.509804%);stroke-opacity:1;stroke-miterlimit:10;" d="M 5.371094 83.753906 L 4.328125 86.898438 L 3.65625 89.398438 L 2.832031 91.429688 L 1.691406 93.226563 L -0.125 96.246094 "/>
<path style="fill:none;stroke-width:6;stroke-linecap:round;stroke-linejoin:round;stroke:rgb(100%,99.215686%,54.509804%);stroke-opacity:1;stroke-miterlimit:10;" d="M 12.242188 94.53125 L 9.351563 93.847656 L 7.132813 93.757813 L 5.25 93.96875 L 3.441406 94.4375 L 1.527344 95.242188 L -0.125 96.246094 L -1.535156 97.398438 L -4.007813 100.519531 L -4.808594 102.152344 L -5.382813 103.890625 L -5.757813 106.066406 L -5.757813 108.410156 L -5.332031 110.8125 L -4.871094 112.203125 L -4.058594 113.90625 L -3.144531 115.316406 L -2.203125 116.445313 L -0.539063 117.960938 L 0.875 118.917969 L 3.269531 120.019531 L 4.632813 120.414063 L 7.207031 120.757813 L 8.246094 120.753906 L 9.496094 120.648438 L 10.523438 120.46875 L 12.679688 119.8125 L 15.238281 118.46875 L 17.269531 116.796875 L 19.035156 114.613281 L 20.050781 112.734375 L 20.953125 109.886719 L 21.171875 108.285156 L 21.203125 106.730469 L 20.875 104.257813 L 20.195313 102.113281 L 19.253906 100.25 L 18.59375 99.261719 L 17.5 97.957031 L 16.175781 96.730469 L 14.460938 95.558594 L 12.242188 94.53125 "/>
<path style="fill:none;stroke-width:6;stroke-linecap:round;stroke-linejoin:round;stroke:rgb(100%,99.215686%,54.509804%);stroke-opacity:1;stroke-miterlimit:10;" d="M 48.402344 -3.035156 L 49.171875 -1.984375 L 50.015625 -0.1875 L 50.085938 1.289063 L 49.40625 2.644531 L 46.378906 4.867188 L 41.214844 8.339844 L 34.886719 13.097656 L 31.191406 16.128906 L 27.882813 18.921875 L 22.757813 23.59375 L 19.972656 26.523438 L 17.382813 29.347656 L 14.730469 32.769531 L 12.203125 36.535156 L 10.441406 39.160156 L 9.511719 41.257813 L 8.570313 43.519531 L 8.058594 44.964844 L 7.164063 47.976563 L 6.558594 50.707031 L 5.582031 57.035156 L 5.34375 60.132813 L 4.710938 72.113281 L 4.878906 74.933594 L 5.066406 77.492188 L 5.246094 80.769531 L 5.371094 83.753906 "/>
</g>
</svg>

