<?xml version="1.0" encoding="UTF-8"?>
<svg xmlns="http://www.w3.org/2000/svg" xmlns:xlink="http://www.w3.org/1999/xlink" width="256pt" height="256pt" viewBox="0 0 256 256" version="1.1">
<g id="surface2">
<rect x="0" y="0" width="256" height="256" style="fill:rgb(94.901961%,93.72549%,91.372549%);fill-opacity:1;stroke:none;"/>
<path style="fill:none;stroke-width:6;stroke-linecap:round;stroke-linejoin:round;stroke:rgb(60%,70.196078%,80%);stroke-opacity:1;stroke-miterlimit:10;" d="M 115.945313 -7 L 262 187.4375 "/>
<path style="fill:none;stroke-width:1;stroke-linecap:round;stroke-linejoin:round;stroke:rgb(100%,100%,100%);stroke-opacity:1;stroke-dasharray:2,3;stroke-miterlimit:10;" d="M 40.46875 13.515625 L 67.152344 10.273438 L 86.816406 20.601563 L 105.4375 30.964844 L 108.535156 39.25 "/>
<path style="fill:none;stroke-width:8;stroke-linecap:round;stroke-linejoin:round;stroke:rgb(75.686275%,70.980392%,61.568627%);stroke-opacity:1;stroke-miterlimit:10;" d="M 256.359375 199.9375 L 233.476563 223.683594 L 226.699219 227.652344 "/>
<path style="fill:none;stroke-width:8;stroke-linecap:round;stroke-linejoin:round;stroke:rgb(75.686275%,70.980392%,61.568627%);stroke-opacity:1;stroke-miterlimit:10;" d="M 230.425781 249.003906 L 215.933594 248.878906 "/>
<path style="fill:none;stroke-width:8;stroke-linecap:round;stroke-linejoin:round;stroke:rgb(75.686275%,70.980392%,61.568627%);stroke-opacity:1;stroke-miterlimit:10;" d="M 215.933594 248.878906 L 230.730469 239.054688 L 235.855469 234.234375 L 242.636719 227.148438 L 254.613281 214.867188 L 259.414063 210.238281 L 263.304688 206.960938 "/>
<path style="fill:none;stroke-width:8;stroke-linecap:round;stroke-linejoin:round;stroke:rgb(75.686275%,70.980392%,61.568627%);stroke-opacity:1;stroke-miterlimit:10;" d="M 33.898438 75.28125 L 41.449219 75.878906 L 65.054688 74.746094 L 99.960938 93.800781 L 121.328125 103.785156 L 131.789063 119.785156 "/>
<path style="fill:none;stroke-width:8;stroke-linecap:round;stroke-linejoin:round;stroke:rgb(75.686275%,70.980392%,61.568627%);stroke-opacity:1;stroke-miterlimit:10;" d="M 206.9375 235.558594 L 215.933594 248.878906 L 222.527344 257.128906 L 229.261719 263.113281 L 230.464844 264 M 256.402344 264 L 257.105469 258.453125 L 258.179688 253.226563 L 261.605469 242.390625 L 264 236.070313 "/>
<path style="fill:none;stroke-width:8;stroke-linecap:round;stroke-linejoin:round;stroke:rgb(75.686275%,70.980392%,61.568627%);stroke-opacity:1;stroke-miterlimit:10;" d="M 264 116.710938 L 249.671875 101.140625 L 231.566406 81.328125 L 224.109375 71.375 L 218.726563 62.902344 L 216.046875 60.445313 L 213.648438 58.621094 L 201.089844 51.628906 L 193.679688 47.34375 L 189.789063 44.257813 L 169.980469 24.539063 L 165.179688 18.839844 L 154.347656 1.988281 L 146.902344 -9 "/>
<path style="fill:none;stroke-width:8;stroke-linecap:round;stroke-linejoin:round;stroke:rgb(75.686275%,70.980392%,61.568627%);stroke-opacity:1;stroke-miterlimit:10;" d="M -9 51.203125 L 1.136719 63.027344 L 13.976563 76.476563 L 15.632813 77.738281 L 17.703125 78.871094 L 21.222656 79.691406 L 23.902344 79.46875 L 27.933594 78.554688 L 31.359375 77.011719 L 33.898438 75.28125 L 38.09375 72.003906 L 42.40625 69.925781 L 45.761719 68.636719 L 48.835938 67.972656 L 52.820313 67.816406 L 69.085938 69.359375 L 71.929688 69.359375 L 74.46875 68.855469 L 77.730469 67.660156 L 82.832031 64.636719 "/>
<path style="fill:none;stroke-width:8;stroke-linecap:round;stroke-linejoin:round;stroke:rgb(75.686275%,70.980392%,61.568627%);stroke-opacity:1;stroke-miterlimit:10;" d="M 264 207.625 L 256.359375 199.9375 L 255.3125 198.867188 L 252.46875 196 L 244.5 187.371094 L 233.78125 175.75 L 224.042969 163.058594 L 215.886719 153.515625 L 211.902344 149.390625 L 199.878906 139.972656 L 172.429688 121.894531 L 132.511719 96.667969 L 94.648438 75.5 L 90.242188 72.320313 L 87.121094 69.582031 L 84.371094 66.652344 L 82.832031 64.636719 L 81.273438 62.492188 L 79.222656 59.21875 L 70.996094 44.949219 L 64.65625 34.714844 L 59.113281 27.910156 L 52.9375 22.367188 L 41.683594 14.210938 L 40.46875 13.515625 L 34.320313 10.082031 L 7.40625 -2.832031 L 1.464844 -6.328125 L -1.828125 -9 "/>
<path style="fill:none;stroke-width:11;stroke-linecap:round;stroke-linejoin:round;stroke:rgb(86.666667%,62.352941%,6.666667%);stroke-opacity:1;stroke-miterlimit:10;" d="M -12 31.597656 L -8.394531 34.367188 L 18.941406 59.40625 L 33.898438 75.28125 L 39.328125 81.265625 L 80.621094 129.265625 L 103.546875 156.570313 L 151.96875 212.597656 L 180.582031 246.328125 L 197.082031 265.097656 L 198.890625 267 "/>
<path style="fill:none;stroke-width:11;stroke-linecap:round;stroke-linejoin:round;stroke:rgb(86.666667%,62.352941%,6.666667%);stroke-opacity:1;stroke-miterlimit:10;" d="M 206.703125 267 L 192.046875 251.683594 L 139.921875 191.089844 L 88.03125 129.925781 L 41.449219 75.878906 L 38.09375 72.003906 L 22.179688 55.3125 L 7.613281 41.578125 L -6.132813 29.074219 L -12 24.347656 "/>
<path style="fill:none;stroke-width:6;stroke-linecap:round;stroke-linejoin:round;stroke:rgb(100%,100%,100%);stroke-opacity:1;stroke-miterlimit:10;" d="M 256.359375 199.9375 L 233.476563 223.683594 L 226.699219 227.652344 "/>
<path style="fill:none;stroke-width:6;stroke-linecap:round;stroke-linejoin:round;stroke:rgb(100%,100%,100%);stroke-opacity:1;stroke-miterlimit:10;" d="M 230.425781 249.003906 L 215.933594 248.878906 "/>
<path style="fill:none;stroke-width:6;stroke-linecap:round;stroke-linejoin:round;stroke:rgb(100%,100%,100%);stroke-opacity:1;stroke-miterlimit:10;" d="M 215.933594 248.878906 L 230.730469 239.054688 L 235.855469 234.234375 L 242.636719 227.148438 L 254.613281 214.867188 L 259.414063 210.238281 L 263.304688 206.960938 "/>
<path style="fill:none;stroke-width:6;stroke-linecap:round;stroke-linejoin:round;stroke:rgb(100%,100%,100%);stroke-opacity:1;stroke-miterlimit:10;" d="M 33.898438 75.28125 L 41.449219 75.878906 L 65.054688 74.746094 L 99.960938 93.800781 L 121.328125 103.785156 L 131.789063 119.785156 "/>
<path style="fill:none;stroke-width:6;stroke-linecap:round;stroke-linejoin:round;stroke:rgb(100%,100%,100%);stroke-opacity:1;stroke-miterlimit:10;" d="M 206.9375 235.558594 L 215.933594 248.878906 L 222.527344 257.128906 L 229.261719 263.113281 L 230.464844 264 M 256.402344 264 L 257.105469 258.453125 L 258.179688 253.226563 L 261.605469 242.390625 L 264 236.070313 "/>
<path style="fill:none;stroke-width:6;stroke-linecap:round;stroke-linejoin:round;stroke:rgb(100%,100%,100%);stroke-opacity:1;stroke-miterlimit:10;" d="M 264 116.710938 L 249.671875 101.140625 L 231.566406 81.328125 L 224.109375 71.375 L 218.726563 62.902344 L 216.046875 60.445313 L 213.648438 58.621094 L 201.089844 51.628906 L 193.679688 47.34375 L 189.789063 44.257813 L 169.980469 24.539063 L 165.179688 18.839844 L 154.347656 1.988281 L 146.902344 -9 "/>
<path style="fill:none;stroke-width:6;stroke-linecap:round;stroke-linejoin:round;stroke:rgb(100%,100%,100%);stroke-opacity:1;stroke-miterlimit:10;" d="M -9 51.203125 L 1.136719 63.027344 L 13.976563 76.476563 L 15.632813 77.738281 L 17.703125 78.871094 L 21.222656 79.691406 L 23.902344 79.46875 L 27.933594 78.554688 L 31.359375 77.011719 L 33.898438 75.28125 L 38.09375 72.003906 L 42.40625 69.925781 L 45.761719 68.636719 L 48.835938 67.972656 L 52.820313 67.816406 L 69.085938 69.359375 L 71.929688 69.359375 L 74.46875 68.855469 L 77.730469 67.660156 L 82.832031 64.636719 "/>
<path style="fill:none;stroke-width:6;stroke-linecap:round;stroke-linejoin:round;stroke:rgb(100%,99.215686%,54.509804%);stroke-opacity:1;stroke-miterlimit:10;" d="M 264 207.625 L 256.359375 199.9375 L 255.3125 198.867188 L 252.46875 196 L 244.5 187.371094 L 233.78125 175.75 L 224.042969 163.058594 L 215.886719 153.515625 L 211.902344 149.390625 L 199.878906 139.972656 L 172.429688 121.894531 L 132.511719 96.667969 L 94.648438 75.5 L 90.242188 72.320313 L 87.121094 69.582031 L 84.371094 66.652344 L 82.832031 64.636719 L 81.273438 62.492188 L 79.222656 59.21875 L 70.996094 44.949219 L 64.65625 34.714844 L 59.113281 27.910156 L 52.9375 22.367188 L 41.683594 14.210938 L 40.46875 13.515625 L 34.320313 10.082031 L 7.40625 -2.832031 L 1.464844 -6.328125 L -1.828125 -9 "/>
<path style="fill:none;stroke-width:9;stroke-linecap:round;stroke-linejoin:round;stroke:rgb(100%,76.470588%,27.058824%);stroke-opacity:1;stroke-miterlimit:10;" d="M -12 31.597656 L -8.394531 34.367188 L 18.941406 59.40625 L 33.898438 75.28125 L 39.328125 81.265625 L 80.621094 129.265625 L 103.546875 156.570313 L 151.96875 212.597656 L 180.582031 246.328125 L 197.082031 265.097656 L 198.890625 267 "/>
<path style="fill:none;stroke-width:9;stroke-linecap:round;stroke-linejoin:round;stroke:rgb(100%,76.470588%,27.058824%);stroke-opacity:1;stroke-miterlimit:10;" d="M 206.703125 267 L 192.046875 251.683594 L 139.921875 191.089844 L 88.03125 129.925781 L 41.449219 75.878906 L 38.09375 72.003906 L 22.179688 55.3125 L 7.613281 41.578125 L -6.132813 29.074219 L -12 24.347656 "/>
<path style=" stroke:none;fill-rule:evenodd;fill:rgb(33.333333%,33.333333%,33.333333%);fill-opacity:1;" d="M 91.921875 127.945313 L 93.390625 129.679688 L 90.671875 135.742188 L 95.25 131.867188 L 96.484375 133.335938 L 89.8125 138.992188 L 88.34375 137.257813 L 91.078125 131.210938 L 86.5 135.085938 L 85.25 133.601563 Z M 97.046875 134.003906 L 98.484375 135.691406 L 97.28125 139.082031 L 100.8125 138.425781 L 102.25 140.128906 L 96.453125 141.097656 L 93.640625 143.488281 L 92.328125 141.941406 L 95.140625 139.550781 Z M 101.214844 149.851563 L 103.449219 152.492188 L 102.183594 153.570313 L 98.496094 149.210938 L 99.761719 148.132813 L 103.777344 148.492188 C 104.121094 148.535156 104.425781 148.523438 104.699219 148.460938 C 104.980469 148.390625 105.21875 148.269531 105.417969 148.101563 C 105.730469 147.832031 105.894531 147.519531 105.917969 147.164063 C 105.949219 146.8125 105.828125 146.484375 105.558594 146.179688 C 105.359375 145.941406 105.082031 145.722656 104.730469 145.523438 C 104.375 145.328125 103.941406 145.164063 103.433594 145.039063 L 104.886719 143.804688 C 105.324219 144.035156 105.71875 144.296875 106.074219 144.585938 C 106.425781 144.867188 106.746094 145.171875 107.027344 145.492188 C 107.628906 146.210938 107.925781 146.921875 107.917969 147.617188 C 107.90625 148.304688 107.582031 148.917969 106.949219 149.460938 C 106.582031 149.761719 106.171875 149.960938 105.714844 150.054688 C 105.265625 150.15625 104.546875 150.164063 103.558594 150.070313 Z M 109.640625 155.082031 C 109.867188 155.570313 109.929688 156.042969 109.828125 156.503906 C 109.722656 156.960938 109.445313 157.378906 109 157.753906 C 108.34375 158.316406 107.644531 158.511719 106.90625 158.347656 C 106.175781 158.179688 105.441406 157.660156 104.703125 156.785156 C 104.441406 156.480469 104.203125 156.148438 103.984375 155.785156 C 103.773438 155.429688 103.601563 155.054688 103.46875 154.660156 L 104.796875 153.535156 C 104.878906 153.964844 105 154.351563 105.15625 154.707031 C 105.3125 155.070313 105.503906 155.386719 105.734375 155.660156 C 106.085938 156.074219 106.4375 156.324219 106.78125 156.410156 C 107.125 156.492188 107.441406 156.410156 107.734375 156.160156 C 108.046875 155.898438 108.1875 155.585938 108.15625 155.222656 C 108.125 154.867188 107.925781 154.472656 107.5625 154.035156 L 107.03125 153.410156 L 108.125 152.472656 L 108.6875 153.128906 C 109.007813 153.515625 109.316406 153.75 109.609375 153.832031 C 109.910156 153.90625 110.203125 153.828125 110.484375 153.597656 C 110.734375 153.378906 110.847656 153.121094 110.828125 152.816406 C 110.816406 152.503906 110.664063 152.183594 110.375 151.847656 C 110.164063 151.597656 109.925781 151.375 109.65625 151.175781 C 109.382813 150.96875 109.078125 150.792969 108.734375 150.644531 L 109.984375 149.582031 C 110.335938 149.8125 110.664063 150.058594 110.96875 150.316406 C 111.28125 150.566406 111.554688 150.832031 111.796875 151.113281 C 112.460938 151.90625 112.816406 152.621094 112.859375 153.253906 C 112.898438 153.878906 112.632813 154.429688 112.0625 154.910156 C 111.664063 155.242188 111.265625 155.417969 110.859375 155.441406 C 110.460938 155.472656 110.054688 155.351563 109.640625 155.082031 Z M 109.640625 155.082031 "/>
<path style="fill:none;stroke-width:3;stroke-linecap:round;stroke-linejoin:round;stroke:rgb(100%,100%,100%);stroke-opacity:1;stroke-miterlimit:10;" d="M 101.550781 75.449219 L 100.972656 76.449219 C 100.855469 75.992188 100.679688 75.601563 100.441406 75.277344 C 100.199219 74.957031 99.898438 74.691406 99.535156 74.480469 C 98.824219 74.074219 98.136719 74.007813 97.472656 74.277344 C 96.816406 74.539063 96.222656 75.128906 95.691406 76.042969 C 95.179688 76.960938 94.976563 77.773438 95.082031 78.480469 C 95.183594 79.1875 95.589844 79.746094 96.300781 80.152344 C 96.664063 80.359375 97.050781 80.480469 97.457031 80.511719 C 97.863281 80.550781 98.292969 80.503906 98.753906 80.371094 L 98.207031 81.339844 C 97.769531 81.402344 97.351563 81.394531 96.957031 81.324219 C 96.570313 81.25 96.191406 81.109375 95.816406 80.902344 C 94.867188 80.359375 94.304688 79.609375 94.128906 78.652344 C 93.949219 77.695313 94.175781 76.660156 94.800781 75.542969 C 95.445313 74.429688 96.222656 73.699219 97.128906 73.355469 C 98.042969 73.011719 98.976563 73.113281 99.925781 73.652344 C 100.300781 73.871094 100.621094 74.132813 100.894531 74.433594 C 101.164063 74.738281 101.382813 75.074219 101.550781 75.449219 Z M 103.609375 78.996094 C 103.191406 78.757813 102.757813 78.753906 102.3125 78.980469 C 101.875 79.210938 101.484375 79.636719 101.140625 80.261719 C 100.785156 80.898438 100.625 81.464844 100.65625 81.964844 C 100.695313 82.453125 100.925781 82.816406 101.34375 83.058594 C 101.757813 83.285156 102.191406 83.285156 102.640625 83.058594 C 103.085938 82.839844 103.488281 82.410156 103.84375 81.777344 C 104.1875 81.152344 104.335938 80.589844 104.296875 80.089844 C 104.253906 79.589844 104.023438 79.226563 103.609375 78.996094 Z M 104.015625 78.277344 C 104.691406 78.652344 105.085938 79.191406 105.203125 79.886719 C 105.316406 80.585938 105.132813 81.367188 104.65625 82.230469 C 104.175781 83.082031 103.601563 83.652344 102.9375 83.933594 C 102.28125 84.214844 101.613281 84.167969 100.9375 83.792969 C 100.257813 83.40625 99.867188 82.859375 99.765625 82.152344 C 99.660156 81.445313 99.847656 80.664063 100.328125 79.808594 C 100.804688 78.945313 101.367188 78.378906 102.015625 78.105469 C 102.671875 77.835938 103.335938 77.894531 104.015625 78.277344 Z M 105.542969 83.445313 L 107.324219 80.273438 L 108.105469 80.710938 L 106.339844 83.867188 C 106.066406 84.359375 105.949219 84.773438 105.980469 85.117188 C 106.011719 85.46875 106.199219 85.742188 106.542969 85.929688 C 106.96875 86.167969 107.386719 86.203125 107.792969 86.039063 C 108.207031 85.882813 108.558594 85.542969 108.839844 85.023438 L 110.511719 82.054688 L 111.277344 82.492188 L 108.339844 87.742188 L 107.574219 87.304688 L 108.027344 86.507813 C 107.652344 86.714844 107.296875 86.824219 106.964844 86.835938 C 106.628906 86.855469 106.296875 86.773438 105.964844 86.585938 C 105.421875 86.292969 105.113281 85.875 105.042969 85.335938 C 104.980469 84.796875 105.144531 84.164063 105.542969 83.445313 Z M 109.339844 81.242188 Z M 115.652344 87.667969 L 113.886719 90.839844 L 113.105469 90.402344 L 114.855469 87.261719 C 115.136719 86.761719 115.253906 86.339844 115.214844 85.996094 C 115.171875 85.652344 114.980469 85.382813 114.636719 85.183594 C 114.21875 84.957031 113.808594 84.925781 113.402344 85.089844 C 112.996094 85.246094 112.644531 85.582031 112.355469 86.089844 L 110.699219 89.058594 L 109.917969 88.621094 L 112.855469 83.371094 L 113.636719 83.808594 L 113.183594 84.621094 C 113.546875 84.414063 113.894531 84.304688 114.230469 84.292969 C 114.5625 84.273438 114.894531 84.355469 115.230469 84.542969 C 115.769531 84.847656 116.078125 85.261719 116.152344 85.792969 C 116.222656 86.324219 116.058594 86.949219 115.652344 87.667969 Z M 119.964844 85.402344 L 119.136719 86.886719 L 120.730469 87.777344 L 120.355469 88.449219 L 118.761719 87.558594 L 117.167969 90.402344 C 116.925781 90.832031 116.824219 91.132813 116.855469 91.308594 C 116.894531 91.496094 117.082031 91.675781 117.417969 91.855469 L 118.199219 92.308594 L 117.792969 93.027344 L 117.011719 92.574219 C 116.40625 92.238281 116.058594 91.886719 115.964844 91.511719 C 115.878906 91.136719 116.019531 90.621094 116.386719 89.964844 L 117.980469 87.121094 L 117.417969 86.792969 L 117.792969 86.121094 L 118.355469 86.449219 L 119.183594 84.964844 Z M 120.503906 95.183594 C 119.941406 95.691406 119.503906 95.980469 119.191406 96.042969 C 118.878906 96.105469 118.550781 96.042969 118.207031 95.855469 L 117.582031 95.496094 L 117.972656 94.792969 L 118.425781 95.058594 C 118.632813 95.171875 118.824219 95.203125 119.003906 95.152344 C 119.191406 95.109375 119.476563 94.921875 119.863281 94.589844 L 120.222656 94.277344 L 121.207031 88.027344 L 122.019531 88.496094 L 121.191406 93.417969 L 124.972656 90.136719 L 125.800781 90.605469 Z M 131.503906 96.429688 C 131.636719 96.609375 131.726563 96.859375 131.769531 97.179688 C 131.820313 97.492188 131.820313 97.902344 131.769531 98.414063 L 131.535156 100.789063 L 130.628906 100.273438 L 130.863281 98.023438 C 130.914063 97.441406 130.882813 97.019531 130.769531 96.757813 C 130.664063 96.5 130.445313 96.269531 130.113281 96.070313 L 129.191406 95.539063 L 127.503906 98.476563 L 126.660156 97.992188 L 130.660156 91.039063 L 132.566406 92.132813 C 133.285156 92.550781 133.722656 93.023438 133.878906 93.554688 C 134.035156 94.078125 133.917969 94.675781 133.535156 95.351563 C 133.285156 95.789063 132.980469 96.101563 132.628906 96.289063 C 132.285156 96.476563 131.910156 96.523438 131.503906 96.429688 Z M 131.050781 92.304688 L 129.628906 94.757813 L 130.691406 95.367188 C 131.105469 95.609375 131.476563 95.6875 131.800781 95.601563 C 132.132813 95.519531 132.417969 95.269531 132.660156 94.851563 C 132.886719 94.445313 132.957031 94.082031 132.863281 93.757813 C 132.777344 93.4375 132.527344 93.15625 132.113281 92.914063 Z M 137.039063 97.96875 C 136.632813 97.710938 136.199219 97.683594 135.742188 97.890625 C 135.28125 98.089844 134.867188 98.496094 134.492188 99.109375 C 134.105469 99.714844 133.917969 100.265625 133.929688 100.765625 C 133.949219 101.253906 134.164063 101.628906 134.570313 101.890625 C 134.976563 102.140625 135.402344 102.164063 135.851563 101.96875 C 136.308594 101.769531 136.730469 101.367188 137.117188 100.765625 C 137.492188 100.152344 137.671875 99.59375 137.664063 99.09375 C 137.652344 98.59375 137.445313 98.21875 137.039063 97.96875 Z M 137.476563 97.265625 C 138.132813 97.671875 138.496094 98.230469 138.570313 98.9375 C 138.640625 99.648438 138.417969 100.421875 137.898438 101.265625 C 137.367188 102.085938 136.765625 102.613281 136.101563 102.84375 C 135.433594 103.082031 134.773438 103 134.117188 102.59375 C 133.460938 102.175781 133.09375 101.613281 133.023438 100.90625 C 132.949219 100.199219 133.179688 99.433594 133.710938 98.609375 C 134.230469 97.765625 134.824219 97.230469 135.492188 97 C 136.15625 96.761719 136.820313 96.851563 137.476563 97.265625 Z M 141.230469 103.324219 C 140.625 102.941406 140.152344 102.753906 139.808594 102.761719 C 139.472656 102.773438 139.191406 102.964844 138.964844 103.339844 C 138.777344 103.632813 138.714844 103.917969 138.777344 104.199219 C 138.847656 104.488281 139.035156 104.730469 139.339844 104.917969 C 139.753906 105.1875 140.191406 105.234375 140.652344 105.058594 C 141.121094 104.878906 141.527344 104.527344 141.871094 103.996094 L 141.996094 103.792969 Z M 142.964844 103.933594 L 141.121094 106.839844 L 140.371094 106.355469 L 140.855469 105.589844 C 140.480469 105.796875 140.121094 105.890625 139.777344 105.871094 C 139.433594 105.847656 139.074219 105.71875 138.699219 105.480469 C 138.230469 105.1875 137.949219 104.808594 137.855469 104.339844 C 137.761719 103.882813 137.871094 103.402344 138.183594 102.902344 C 138.546875 102.332031 138.988281 102.011719 139.511719 101.949219 C 140.042969 101.878906 140.652344 102.058594 141.339844 102.496094 L 142.402344 103.152344 L 142.449219 103.074219 C 142.699219 102.679688 142.769531 102.308594 142.667969 101.964844 C 142.574219 101.613281 142.316406 101.300781 141.902344 101.027344 C 141.640625 100.871094 141.363281 100.753906 141.074219 100.667969 C 140.78125 100.574219 140.472656 100.527344 140.152344 100.527344 L 140.636719 99.761719 C 141 99.816406 141.324219 99.894531 141.605469 99.996094 C 141.894531 100.101563 142.167969 100.230469 142.417969 100.386719 C 143.074219 100.804688 143.449219 101.308594 143.542969 101.902344 C 143.644531 102.488281 143.453125 103.164063 142.964844 103.933594 Z M 148.402344 105.40625 L 150.136719 102.65625 L 150.902344 103.125 L 146.433594 110.1875 L 145.667969 109.71875 L 146.152344 108.953125 C 145.796875 109.160156 145.453125 109.257813 145.121094 109.25 C 144.796875 109.238281 144.46875 109.128906 144.136719 108.921875 C 143.574219 108.566406 143.269531 108.035156 143.230469 107.328125 C 143.199219 106.632813 143.4375 105.882813 143.949219 105.078125 C 144.449219 104.277344 145.019531 103.742188 145.667969 103.46875 C 146.324219 103.199219 146.933594 103.242188 147.496094 103.59375 C 147.828125 103.804688 148.066406 104.058594 148.214844 104.359375 C 148.371094 104.652344 148.433594 105 148.402344 105.40625 Z M 144.714844 105.5625 C 144.316406 106.179688 144.125 106.730469 144.136719 107.21875 C 144.144531 107.707031 144.347656 108.082031 144.746094 108.34375 C 145.140625 108.59375 145.5625 108.613281 146.011719 108.40625 C 146.457031 108.207031 146.878906 107.800781 147.277344 107.1875 C 147.660156 106.574219 147.847656 106.023438 147.839844 105.53125 C 147.828125 105.03125 147.625 104.65625 147.230469 104.40625 C 146.832031 104.148438 146.410156 104.121094 145.964844 104.328125 C 145.515625 104.539063 145.097656 104.949219 144.714844 105.5625 Z M 151.925781 112.597656 L 154.800781 114.425781 L 154.316406 115.191406 L 150.441406 112.738281 L 150.925781 111.972656 C 151.464844 111.808594 152.199219 111.59375 153.128906 111.332031 C 154.054688 111.074219 154.644531 110.894531 154.894531 110.800781 C 155.371094 110.636719 155.730469 110.46875 155.972656 110.300781 C 156.222656 110.136719 156.417969 109.941406 156.566406 109.722656 C 156.792969 109.359375 156.867188 108.996094 156.785156 108.628906 C 156.699219 108.265625 156.472656 107.96875 156.097656 107.738281 C 155.835938 107.574219 155.535156 107.449219 155.191406 107.363281 C 154.847656 107.28125 154.441406 107.246094 153.972656 107.253906 L 154.566406 106.316406 C 154.992188 106.371094 155.371094 106.453125 155.707031 106.566406 C 156.039063 106.671875 156.324219 106.796875 156.566406 106.941406 C 157.199219 107.347656 157.597656 107.847656 157.753906 108.441406 C 157.910156 109.027344 157.800781 109.609375 157.425781 110.191406 C 157.246094 110.472656 157.035156 110.714844 156.785156 110.910156 C 156.535156 111.097656 156.175781 111.285156 155.707031 111.472656 C 155.589844 111.515625 155.214844 111.628906 154.582031 111.816406 C 153.957031 111.996094 153.070313 112.253906 151.925781 112.597656 Z M 160.859375 114.195313 C 161.191406 114.539063 161.375 114.929688 161.40625 115.367188 C 161.445313 115.804688 161.332031 116.242188 161.0625 116.679688 C 160.632813 117.34375 160.097656 117.730469 159.453125 117.835938 C 158.816406 117.9375 158.113281 117.75 157.34375 117.273438 C 157.09375 117.105469 156.847656 116.90625 156.609375 116.679688 C 156.367188 116.449219 156.140625 116.195313 155.921875 115.914063 L 156.484375 115.023438 C 156.617188 115.316406 156.796875 115.585938 157.015625 115.835938 C 157.242188 116.085938 157.507813 116.304688 157.8125 116.492188 C 158.332031 116.8125 158.796875 116.945313 159.203125 116.882813 C 159.609375 116.828125 159.953125 116.589844 160.234375 116.164063 C 160.484375 115.757813 160.550781 115.363281 160.4375 114.976563 C 160.332031 114.59375 160.054688 114.257813 159.609375 113.976563 L 158.890625 113.523438 L 159.375 112.773438 L 160.125 113.242188 C 160.519531 113.503906 160.882813 113.613281 161.21875 113.570313 C 161.550781 113.519531 161.820313 113.328125 162.03125 112.992188 C 162.25 112.640625 162.304688 112.300781 162.203125 111.976563 C 162.109375 111.65625 161.851563 111.363281 161.4375 111.101563 C 161.207031 110.957031 160.945313 110.832031 160.65625 110.726563 C 160.363281 110.613281 160.023438 110.515625 159.640625 110.429688 L 160.15625 109.617188 C 160.539063 109.710938 160.878906 109.820313 161.171875 109.945313 C 161.472656 110.070313 161.742188 110.210938 161.984375 110.367188 C 162.617188 110.765625 163.019531 111.238281 163.1875 111.789063 C 163.351563 112.34375 163.265625 112.890625 162.921875 113.429688 C 162.679688 113.804688 162.382813 114.0625 162.03125 114.195313 C 161.675781 114.332031 161.285156 114.332031 160.859375 114.195313 Z M 164.183594 116.886719 L 162.605469 119.371094 L 163.917969 120.199219 C 164.355469 120.480469 164.746094 120.582031 165.089844 120.511719 C 165.441406 120.449219 165.753906 120.203125 166.027344 119.777344 C 166.285156 119.359375 166.371094 118.988281 166.277344 118.652344 C 166.191406 118.308594 165.933594 117.996094 165.496094 117.714844 Z M 165.949219 114.105469 L 164.652344 116.152344 L 165.855469 116.917969 C 166.261719 117.179688 166.613281 117.289063 166.917969 117.246094 C 167.230469 117.195313 167.488281 116.996094 167.699219 116.652344 C 167.917969 116.308594 167.980469 115.992188 167.886719 115.699219 C 167.800781 115.410156 167.558594 115.132813 167.152344 114.871094 Z M 165.574219 112.808594 L 167.699219 114.152344 C 168.324219 114.550781 168.714844 115.003906 168.871094 115.511719 C 169.035156 116.011719 168.949219 116.535156 168.605469 117.074219 C 168.34375 117.480469 168.046875 117.753906 167.714844 117.886719 C 167.390625 118.023438 167.042969 118.019531 166.667969 117.871094 C 167.011719 118.214844 167.199219 118.613281 167.230469 119.058594 C 167.261719 119.503906 167.128906 119.957031 166.839844 120.417969 C 166.453125 121.03125 165.96875 121.386719 165.386719 121.480469 C 164.8125 121.574219 164.183594 121.40625 163.496094 120.980469 L 161.292969 119.589844 Z M 165.574219 112.808594 "/>
<path style=" stroke:none;fill-rule:evenodd;fill:rgb(20%,20%,20%);fill-opacity:1;" d="M 101.550781 75.449219 L 100.972656 76.449219 C 100.855469 75.992188 100.679688 75.601563 100.441406 75.277344 C 100.199219 74.957031 99.898438 74.691406 99.535156 74.480469 C 98.824219 74.074219 98.136719 74.007813 97.472656 74.277344 C 96.816406 74.539063 96.222656 75.128906 95.691406 76.042969 C 95.179688 76.960938 94.976563 77.773438 95.082031 78.480469 C 95.183594 79.1875 95.589844 79.746094 96.300781 80.152344 C 96.664063 80.359375 97.050781 80.480469 97.457031 80.511719 C 97.863281 80.550781 98.292969 80.503906 98.753906 80.371094 L 98.207031 81.339844 C 97.769531 81.402344 97.351563 81.394531 96.957031 81.324219 C 96.570313 81.25 96.191406 81.109375 95.816406 80.902344 C 94.867188 80.359375 94.304688 79.609375 94.128906 78.652344 C 93.949219 77.695313 94.175781 76.660156 94.800781 75.542969 C 95.445313 74.429688 96.222656 73.699219 97.128906 73.355469 C 98.042969 73.011719 98.976563 73.113281 99.925781 73.652344 C 100.300781 73.871094 100.621094 74.132813 100.894531 74.433594 C 101.164063 74.738281 101.382813 75.074219 101.550781 75.449219 Z M 103.609375 78.996094 C 103.191406 78.757813 102.757813 78.753906 102.3125 78.980469 C 101.875 79.210938 101.484375 79.636719 101.140625 80.261719 C 100.785156 80.898438 100.625 81.464844 100.65625 81.964844 C 100.695313 82.453125 100.925781 82.816406 101.34375 83.058594 C 101.757813 83.285156 102.191406 83.285156 102.640625 83.058594 C 103.085938 82.839844 103.488281 82.410156 103.84375 81.777344 C 104.1875 81.152344 104.335938 80.589844 104.296875 80.089844 C 104.253906 79.589844 104.023438 79.226563 103.609375 78.996094 Z M 104.015625 78.277344 C 104.691406 78.652344 105.085938 79.191406 105.203125 79.886719 C 105.316406 80.585938 105.132813 81.367188 104.65625 82.230469 C 104.175781 83.082031 103.601563 83.652344 102.9375 83.933594 C 102.28125 84.214844 101.613281 84.167969 100.9375 83.792969 C 100.257813 83.40625 99.867188 82.859375 99.765625 82.152344 C 99.660156 81.445313 99.847656 80.664063 100.328125 79.808594 C 100.804688 78.945313 101.367188 78.378906 102.015625 78.105469 C 102.671875 77.835938 103.335938 77.894531 104.015625 78.277344 Z M 105.542969 83.445313 L 107.324219 80.273438 L 108.105469 80.710938 L 106.339844 83.867188 C 106.066406 84.359375 105.949219 84.773438 105.980469 85.117188 C 106.011719 85.46875 106.199219 85.742188 106.542969 85.929688 C 106.96875 86.167969 107.386719 86.203125 107.792969 86.039063 C 108.207031 85.882813 108.558594 85.542969 108.839844 85.023438 L 110.511719 82.054688 L 111.277344 82.492188 L 108.339844 87.742188 L 107.574219 87.304688 L 108.027344 86.507813 C 107.652344 86.714844 107.296875 86.824219 106.964844 86.835938 C 106.628906 86.855469 106.296875 86.773438 105.964844 86.585938 C 105.421875 86.292969 105.113281 85.875 105.042969 85.335938 C 104.980469 84.796875 105.144531 84.164063 105.542969 83.445313 Z M 109.339844 81.242188 Z M 115.652344 87.667969 L 113.886719 90.839844 L 113.105469 90.402344 L 114.855469 87.261719 C 115.136719 86.761719 115.253906 86.339844 115.214844 85.996094 C 115.171875 85.652344 114.980469 85.382813 114.636719 85.183594 C 114.21875 84.957031 113.808594 84.925781 113.402344 85.089844 C 112.996094 85.246094 112.644531 85.582031 112.355469 86.089844 L 110.699219 89.058594 L 109.917969 88.621094 L 112.855469 83.371094 L 113.636719 83.808594 L 113.183594 84.621094 C 113.546875 84.414063 113.894531 84.304688 114.230469 84.292969 C 114.5625 84.273438 114.894531 84.355469 115.230469 84.542969 C 115.769531 84.847656 116.078125 85.261719 116.152344 85.792969 C 116.222656 86.324219 116.058594 86.949219 115.652344 87.667969 Z M 119.964844 85.402344 L 119.136719 86.886719 L 120.730469 87.777344 L 120.355469 88.449219 L 118.761719 87.558594 L 117.167969 90.402344 C 116.925781 90.832031 116.824219 91.132813 116.855469 91.308594 C 116.894531 91.496094 117.082031 91.675781 117.417969 91.855469 L 118.199219 92.308594 L 117.792969 93.027344 L 117.011719 92.574219 C 116.40625 92.238281 116.058594 91.886719 115.964844 91.511719 C 115.878906 91.136719 116.019531 90.621094 116.386719 89.964844 L 117.980469 87.121094 L 117.417969 86.792969 L 117.792969 86.121094 L 118.355469 86.449219 L 119.183594 84.964844 Z M 120.503906 95.183594 C 119.941406 95.691406 119.503906 95.980469 119.191406 96.042969 C 118.878906 96.105469 118.550781 96.042969 118.207031 95.855469 L 117.582031 95.496094 L 117.972656 94.792969 L 118.425781 95.058594 C 118.632813 95.171875 118.824219 95.203125 119.003906 95.152344 C 119.191406 95.109375 119.476563 94.921875 119.863281 94.589844 L 120.222656 94.277344 L 121.207031 88.027344 L 122.019531 88.496094 L 121.191406 93.417969 L 124.972656 90.136719 L 125.800781 90.605469 Z M 131.503906 96.429688 C 131.636719 96.609375 131.726563 96.859375 131.769531 97.179688 C 131.820313 97.492188 131.820313 97.902344 131.769531 98.414063 L 131.535156 100.789063 L 130.628906 100.273438 L 130.863281 98.023438 C 130.914063 97.441406 130.882813 97.019531 130.769531 96.757813 C 130.664063 96.5 130.445313 96.269531 130.113281 96.070313 L 129.191406 95.539063 L 127.503906 98.476563 L 126.660156 97.992188 L 130.660156 91.039063 L 132.566406 92.132813 C 133.285156 92.550781 133.722656 93.023438 133.878906 93.554688 C 134.035156 94.078125 133.917969 94.675781 133.535156 95.351563 C 133.285156 95.789063 132.980469 96.101563 132.628906 96.289063 C 132.285156 96.476563 131.910156 96.523438 131.503906 96.429688 Z M 131.050781 92.304688 L 129.628906 94.757813 L 130.691406 95.367188 C 131.105469 95.609375 131.476563 95.6875 131.800781 95.601563 C 132.132813 95.519531 132.417969 95.269531 132.660156 94.851563 C 132.886719 94.445313 132.957031 94.082031 132.863281 93.757813 C 132.777344 93.4375 132.527344 93.15625 132.113281 92.914063 Z M 137.039063 97.96875 C 136.632813 97.710938 136.199219 97.683594 135.742188 97.890625 C 135.28125 98.089844 134.867188 98.496094 134.492188 99.109375 C 134.105469 99.714844 133.917969 100.265625 133.929688 100.765625 C 133.949219 101.253906 134.164063 101.628906 134.570313 101.890625 C 134.976563 102.140625 135.402344 102.164063 135.851563 101.96875 C 136.308594 101.769531 136.730469 101.367188 137.117188 100.765625 C 137.492188 100.152344 137.671875 99.59375 137.664063 99.09375 C 137.652344 98.59375 137.445313 98.21875 137.039063 97.96875 Z M 137.476563 97.265625 C 138.132813 97.671875 138.496094 98.230469 138.570313 98.9375 C 138.640625 99.648438 138.417969 100.421875 137.898438 101.265625 C 137.367188 102.085938 136.765625 102.613281 136.101563 102.84375 C 135.433594 103.082031 134.773438 103 134.117188 102.59375 C 133.460938 102.175781 133.09375 101.613281 133.023438 100.90625 C 132.949219 100.199219 133.179688 99.433594 133.710938 98.609375 C 134.230469 97.765625 134.824219 97.230469 135.492188 97 C 136.15625 96.761719 136.820313 96.851563 137.476563 97.265625 Z M 141.230469 103.324219 C 140.625 102.941406 140.152344 102.753906 139.808594 102.761719 C 139.472656 102.773438 139.191406 102.964844 138.964844 103.339844 C 138.777344 103.632813 138.714844 103.917969 138.777344 104.199219 C 138.847656 104.488281 139.035156 104.730469 139.339844 104.917969 C 139.753906 105.1875 140.191406 105.234375 140.652344 105.058594 C 141.121094 104.878906 141.527344 104.527344 141.871094 103.996094 L 141.996094 103.792969 Z M 142.964844 103.933594 L 141.121094 106.839844 L 140.371094 106.355469 L 140.855469 105.589844 C 140.480469 105.796875 140.121094 105.890625 139.777344 105.871094 C 139.433594 105.847656 139.074219 105.71875 138.699219 105.480469 C 138.230469 105.1875 137.949219 104.808594 137.855469 104.339844 C 137.761719 103.882813 137.871094 103.402344 138.183594 102.902344 C 138.546875 102.332031 138.988281 102.011719 139.511719 101.949219 C 140.042969 101.878906 140.652344 102.058594 141.339844 102.496094 L 142.402344 103.152344 L 142.449219 103.074219 C 142.699219 102.679688 142.769531 102.308594 142.667969 101.964844 C 142.574219 101.613281 142.316406 101.300781 141.902344 101.027344 C 141.640625 100.871094 141.363281 100.753906 141.074219 100.667969 C 140.78125 100.574219 140.472656 100.527344 140.152344 100.527344 L 140.636719 99.761719 C 141 99.816406 141.324219 99.894531 141.605469 99.996094 C 141.894531 100.101563 142.167969 100.230469 142.417969 100.386719 C 143.074219 100.804688 143.449219 101.308594 143.542969 101.902344 C 143.644531 102.488281 143.453125 103.164063 142.964844 103.933594 Z M 148.402344 105.40625 L 150.136719 102.65625 L 150.902344 103.125 L 146.433594 110.1875 L 145.667969 109.71875 L 146.152344 108.953125 C 145.796875 109.160156 145.453125 109.257813 145.121094 109.25 C 144.796875 109.238281 144.46875 109.128906 144.136719 108.921875 C 143.574219 108.566406 143.269531 108.035156 143.230469 107.328125 C 143.199219 106.632813 143.4375 105.882813 143.949219 105.078125 C 144.449219 104.277344 145.019531 103.742188 145.667969 103.46875 C 146.324219 103.199219 146.933594 103.242188 147.496094 103.59375 C 147.828125 103.804688 148.066406 104.058594 148.214844 104.359375 C 148.371094 104.652344 148.433594 105 148.402344 105.40625 Z M 144.714844 105.5625 C 144.316406 106.179688 144.125 106.730469 144.136719 107.21875 C 144.144531 107.707031 144.347656 108.082031 144.746094 108.34375 C 145.140625 108.59375 145.5625 108.613281 146.011719 108.40625 C 146.457031 108.207031 146.878906 107.800781 147.277344 107.1875 C 147.660156 106.574219 147.847656 106.023438 147.839844 105.53125 C 147.828125 105.03125 147.625 104.65625 147.230469 104.40625 C 146.832031 104.148438 146.410156 104.121094 145.964844 104.328125 C 145.515625 104.539063 145.097656 104.949219 144.714844 105.5625 Z M 151.925781 112.597656 L 154.800781 114.425781 L 154.316406 115.191406 L 150.441406 112.738281 L 150.925781 111.972656 C 151.464844 111.808594 152.199219 111.59375 153.128906 111.332031 C 154.054688 111.074219 154.644531 110.894531 154.894531 110.800781 C 155.371094 110.636719 155.730469 110.46875 155.972656 110.300781 C 156.222656 110.136719 156.417969 109.941406 156.566406 109.722656 C 156.792969 109.359375 156.867188 108.996094 156.785156 108.628906 C 156.699219 108.265625 156.472656 107.96875 156.097656 107.738281 C 155.835938 107.574219 155.535156 107.449219 155.191406 107.363281 C 154.847656 107.28125 154.441406 107.246094 153.972656 107.253906 L 154.566406 106.316406 C 154.992188 106.371094 155.371094 106.453125 155.707031 106.566406 C 156.039063 106.671875 156.324219 106.796875 156.566406 106.941406 C 157.199219 107.347656 157.597656 107.847656 157.753906 108.441406 C 157.910156 109.027344 157.800781 109.609375 157.425781 110.191406 C 157.246094 110.472656 157.035156 110.714844 156.785156 110.910156 C 156.535156 111.097656 156.175781 111.285156 155.707031 111.472656 C 155.589844 111.515625 155.214844 111.628906 154.582031 111.816406 C 153.957031 111.996094 153.070313 112.253906 151.925781 112.597656 Z M 160.859375 114.195313 C 161.191406 114.539063 161.375 114.929688 161.40625 115.367188 C 161.445313 115.804688 161.332031 116.242188 161.0625 116.679688 C 160.632813 117.34375 160.097656 117.730469 159.453125 117.835938 C 158.816406 117.9375 158.113281 117.75 157.34375 117.273438 C 157.09375 117.105469 156.847656 116.90625 156.609375 116.679688 C 156.367188 116.449219 156.140625 116.195313 155.921875 115.914063 L 156.484375 115.023438 C 156.617188 115.316406 156.796875 115.585938 157.015625 115.835938 C 157.242188 116.085938 157.507813 116.304688 157.8125 116.492188 C 158.332031 116.8125 158.796875 116.945313 159.203125 116.882813 C 159.609375 116.828125 159.953125 116.589844 160.234375 116.164063 C 160.484375 115.757813 160.550781 115.363281 160.4375 114.976563 C 160.332031 114.59375 160.054688 114.257813 159.609375 113.976563 L 158.890625 113.523438 L 159.375 112.773438 L 160.125 113.242188 C 160.519531 113.503906 160.882813 113.613281 161.21875 113.570313 C 161.550781 113.519531 161.820313 113.328125 162.03125 112.992188 C 162.25 112.640625 162.304688 112.300781 162.203125 111.976563 C 162.109375 111.65625 161.851563 111.363281 161.4375 111.101563 C 161.207031 110.957031 160.945313 110.832031 160.65625 110.726563 C 160.363281 110.613281 160.023438 110.515625 159.640625 110.429688 L 160.15625 109.617188 C 160.539063 109.710938 160.878906 109.820313 161.171875 109.945313 C 161.472656 110.070313 161.742188 110.210938 161.984375 110.367188 C 162.617188 110.765625 163.019531 111.238281 163.1875 111.789063 C 163.351563 112.34375 163.265625 112.890625 162.921875 113.429688 C 162.679688 113.804688 162.382813 114.0625 162.03125 114.195313 C 161.675781 114.332031 161.285156 114.332031 160.859375 114.195313 Z M 164.183594 116.886719 L 162.605469 119.371094 L 163.917969 120.199219 C 164.355469 120.480469 164.746094 120.582031 165.089844 120.511719 C 165.441406 120.449219 165.753906 120.203125 166.027344 119.777344 C 166.285156 119.359375 166.371094 118.988281 166.277344 118.652344 C 166.191406 118.308594 165.933594 117.996094 165.496094 117.714844 Z M 165.949219 114.105469 L 164.652344 116.152344 L 165.855469 116.917969 C 166.261719 117.179688 166.613281 117.289063 166.917969 117.246094 C 167.230469 117.195313 167.488281 116.996094 167.699219 116.652344 C 167.917969 116.308594 167.980469 115.992188 167.886719 115.699219 C 167.800781 115.410156 167.558594 115.132813 167.152344 114.871094 Z M 165.574219 112.808594 L 167.699219 114.152344 C 168.324219 114.550781 168.714844 115.003906 168.871094 115.511719 C 169.035156 116.011719 168.949219 116.535156 168.605469 117.074219 C 168.34375 117.480469 168.046875 117.753906 167.714844 117.886719 C 167.390625 118.023438 167.042969 118.019531 166.667969 117.871094 C 167.011719 118.214844 167.199219 118.613281 167.230469 119.058594 C 167.261719 119.503906 167.128906 119.957031 166.839844 120.417969 C 166.453125 121.03125 165.96875 121.386719 165.386719 121.480469 C 164.8125 121.574219 164.183594 121.40625 163.496094 120.980469 L 161.292969 119.589844 Z M 165.574219 112.808594 "/>
<path style="fill:none;stroke-width:3;stroke-linecap:round;stroke-linejoin:round;stroke:rgb(100%,100%,100%);stroke-opacity:1;stroke-miterlimit:10;" d="M 179.0625 33.90625 C 179.144531 34.113281 179.164063 34.378906 179.125 34.703125 C 179.09375 35.023438 178.988281 35.421875 178.8125 35.890625 L 177.96875 38.140625 L 177.234375 37.390625 L 178.03125 35.28125 C 178.226563 34.738281 178.3125 34.320313 178.28125 34.03125 C 178.25 33.75 178.097656 33.476563 177.828125 33.203125 L 177.078125 32.453125 L 174.6875 34.859375 L 173.984375 34.171875 L 179.640625 28.484375 L 181.203125 30.03125 C 181.796875 30.625 182.097656 31.199219 182.109375 31.75 C 182.117188 32.304688 181.851563 32.855469 181.3125 33.40625 C 180.957031 33.757813 180.585938 33.984375 180.203125 34.078125 C 179.816406 34.171875 179.4375 34.113281 179.0625 33.90625 Z M 179.71875 29.8125 L 177.703125 31.828125 L 178.5625 32.6875 C 178.894531 33.03125 179.234375 33.203125 179.578125 33.203125 C 179.921875 33.195313 180.257813 33.023438 180.59375 32.6875 C 180.914063 32.355469 181.078125 32.023438 181.078125 31.6875 C 181.078125 31.355469 180.910156 31.015625 180.578125 30.671875 Z M 184.40625 39.960938 L 184.0625 40.304688 L 181.171875 37.414063 C 180.710938 37.925781 180.476563 38.417969 180.46875 38.898438 C 180.457031 39.386719 180.65625 39.839844 181.0625 40.257813 C 181.3125 40.496094 181.582031 40.695313 181.875 40.851563 C 182.164063 41.007813 182.488281 41.136719 182.84375 41.242188 L 182.1875 41.898438 C 181.851563 41.773438 181.539063 41.621094 181.25 41.445313 C 180.957031 41.265625 180.6875 41.058594 180.4375 40.820313 C 179.832031 40.203125 179.546875 39.523438 179.578125 38.773438 C 179.609375 38.023438 179.960938 37.3125 180.640625 36.632813 C 181.335938 35.9375 182.054688 35.554688 182.796875 35.492188 C 183.546875 35.421875 184.207031 35.671875 184.78125 36.242188 C 185.300781 36.753906 185.523438 37.34375 185.453125 38.007813 C 185.378906 38.671875 185.03125 39.324219 184.40625 39.960938 Z M 183.984375 39.117188 C 184.359375 38.71875 184.566406 38.320313 184.609375 37.914063 C 184.660156 37.5 184.53125 37.132813 184.21875 36.820313 C 183.863281 36.46875 183.46875 36.300781 183.03125 36.320313 C 182.59375 36.332031 182.160156 36.519531 181.734375 36.882813 Z M 189.285156 42.183594 L 191.566406 39.886719 L 192.191406 40.511719 L 186.300781 46.433594 L 185.675781 45.808594 L 186.316406 45.167969 C 185.917969 45.292969 185.558594 45.3125 185.238281 45.230469 C 184.914063 45.15625 184.613281 44.980469 184.332031 44.699219 C 183.871094 44.230469 183.699219 43.644531 183.816406 42.949219 C 183.929688 42.253906 184.320313 41.570313 184.988281 40.902344 C 185.664063 40.226563 186.351563 39.832031 187.050781 39.714844 C 187.746094 39.589844 188.324219 39.761719 188.785156 40.230469 C 189.066406 40.511719 189.246094 40.816406 189.332031 41.136719 C 189.414063 41.449219 189.398438 41.800781 189.285156 42.183594 Z M 185.644531 41.542969 C 185.132813 42.066406 184.824219 42.566406 184.722656 43.042969 C 184.617188 43.519531 184.730469 43.925781 185.066406 44.261719 C 185.398438 44.59375 185.804688 44.707031 186.285156 44.605469 C 186.773438 44.511719 187.273438 44.203125 187.785156 43.683594 C 188.304688 43.160156 188.613281 42.660156 188.707031 42.183594 C 188.808594 41.695313 188.695313 41.285156 188.363281 40.949219 C 188.027344 40.617188 187.621094 40.503906 187.144531 40.605469 C 186.664063 40.710938 186.164063 41.023438 185.644531 41.542969 Z M 195.816406 48.722656 C 195.941406 48.910156 196.019531 49.167969 196.050781 49.488281 C 196.082031 49.800781 196.058594 50.210938 195.988281 50.722656 L 195.660156 53.097656 L 194.769531 52.535156 L 195.097656 50.285156 C 195.179688 49.710938 195.167969 49.296875 195.066406 49.035156 C 194.972656 48.765625 194.761719 48.527344 194.441406 48.316406 L 193.550781 47.753906 L 191.738281 50.613281 L 190.894531 50.082031 L 195.175781 43.300781 L 197.050781 44.472656 C 197.746094 44.921875 198.164063 45.417969 198.300781 45.957031 C 198.433594 46.488281 198.292969 47.082031 197.878906 47.738281 C 197.605469 48.167969 197.292969 48.46875 196.941406 48.644531 C 196.585938 48.8125 196.210938 48.839844 195.816406 48.722656 Z M 195.550781 44.597656 L 194.019531 46.988281 L 195.050781 47.628906 C 195.445313 47.890625 195.808594 47.988281 196.144531 47.925781 C 196.476563 47.855469 196.769531 47.613281 197.019531 47.207031 C 197.269531 46.8125 197.355469 46.453125 197.285156 46.128906 C 197.210938 45.796875 196.976563 45.5 196.582031 45.238281 Z M 201.320313 50.203125 C 200.902344 49.964844 200.46875 49.960938 200.023438 50.1875 C 199.574219 50.40625 199.171875 50.828125 198.820313 51.453125 C 198.464844 52.078125 198.304688 52.640625 198.335938 53.140625 C 198.375 53.628906 198.605469 53.992188 199.023438 54.234375 C 199.4375 54.472656 199.867188 54.476563 200.304688 54.25 C 200.75 54.03125 201.152344 53.609375 201.507813 52.984375 C 201.859375 52.359375 202.023438 51.804688 201.992188 51.3125 C 201.960938 50.8125 201.734375 50.445313 201.320313 50.203125 Z M 201.726563 49.484375 C 202.390625 49.871094 202.777344 50.417969 202.882813 51.125 C 202.996094 51.824219 202.808594 52.601563 202.320313 53.453125 C 201.828125 54.304688 201.25 54.867188 200.585938 55.140625 C 199.929688 55.410156 199.265625 55.351563 198.601563 54.96875 C 197.914063 54.582031 197.515625 54.035156 197.414063 53.328125 C 197.308594 52.621094 197.5 51.839844 197.992188 50.984375 C 198.480469 50.132813 199.054688 49.574219 199.710938 49.3125 C 200.367188 49.042969 201.039063 49.101563 201.726563 49.484375 Z M 208.359375 53.636719 L 207.90625 54.433594 C 207.769531 54.183594 207.609375 53.964844 207.421875 53.777344 C 207.242188 53.582031 207.039063 53.417969 206.8125 53.292969 C 206.300781 53.011719 205.804688 52.972656 205.328125 53.167969 C 204.859375 53.367188 204.441406 53.789063 204.078125 54.433594 C 203.722656 55.070313 203.582031 55.648438 203.65625 56.167969 C 203.738281 56.675781 204.035156 57.074219 204.546875 57.355469 C 204.773438 57.480469 205.015625 57.566406 205.265625 57.621094 C 205.523438 57.683594 205.804688 57.703125 206.109375 57.683594 L 205.65625 58.480469 C 205.375 58.480469 205.097656 58.441406 204.828125 58.371094 C 204.566406 58.296875 204.3125 58.1875 204.0625 58.042969 C 203.34375 57.644531 202.910156 57.082031 202.765625 56.355469 C 202.628906 55.628906 202.796875 54.835938 203.265625 53.980469 C 203.742188 53.128906 204.332031 52.574219 205.03125 52.324219 C 205.726563 52.066406 206.445313 52.144531 207.1875 52.558594 C 207.414063 52.683594 207.628906 52.839844 207.828125 53.027344 C 208.035156 53.207031 208.210938 53.410156 208.359375 53.636719 Z M 210.921875 52.125 L 211.703125 52.5625 L 209.3125 56.875 L 212.890625 55.90625 L 213.890625 56.453125 L 210.015625 57.515625 L 211.0625 61.765625 L 210.046875 61.203125 L 209.0625 57.296875 L 207.640625 59.859375 L 206.859375 59.421875 Z M 218.355469 63.496094 C 218.4375 63.714844 218.449219 63.984375 218.386719 64.308594 C 218.332031 64.628906 218.207031 65.015625 218.011719 65.464844 L 217.042969 67.667969 L 216.339844 66.886719 L 217.246094 64.824219 C 217.484375 64.292969 217.59375 63.886719 217.574219 63.605469 C 217.550781 63.324219 217.410156 63.035156 217.152344 62.746094 L 216.449219 61.964844 L 213.933594 64.230469 L 213.277344 63.496094 L 219.230469 58.121094 L 220.699219 59.761719 C 221.261719 60.378906 221.53125 60.960938 221.511719 61.511719 C 221.488281 62.066406 221.191406 62.601563 220.621094 63.121094 C 220.246094 63.453125 219.863281 63.652344 219.480469 63.714844 C 219.105469 63.785156 218.730469 63.714844 218.355469 63.496094 Z M 219.214844 59.449219 L 217.105469 61.355469 L 217.917969 62.261719 C 218.238281 62.617188 218.566406 62.796875 218.902344 62.808594 C 219.246094 62.828125 219.59375 62.683594 219.949219 62.371094 C 220.292969 62.058594 220.46875 61.738281 220.480469 61.402344 C 220.5 61.058594 220.347656 60.710938 220.027344 60.355469 Z M 222.90625 66.996094 C 222.644531 66.589844 222.265625 66.382813 221.765625 66.371094 C 221.265625 66.363281 220.710938 66.550781 220.109375 66.933594 C 219.503906 67.316406 219.097656 67.734375 218.890625 68.183594 C 218.691406 68.640625 218.722656 69.074219 218.984375 69.480469 C 219.242188 69.886719 219.617188 70.09375 220.109375 70.105469 C 220.609375 70.113281 221.160156 69.925781 221.765625 69.542969 C 222.367188 69.15625 222.773438 68.734375 222.984375 68.277344 C 223.191406 67.828125 223.164063 67.402344 222.90625 66.996094 Z M 223.609375 66.558594 C 224.023438 67.207031 224.113281 67.859375 223.875 68.527344 C 223.632813 69.203125 223.097656 69.808594 222.265625 70.339844 C 221.441406 70.859375 220.675781 71.082031 219.96875 71.011719 C 219.257813 70.9375 218.695313 70.578125 218.28125 69.933594 C 217.863281 69.265625 217.773438 68.597656 218.015625 67.933594 C 218.253906 67.269531 218.785156 66.675781 219.609375 66.152344 C 220.441406 65.621094 221.210938 65.394531 221.921875 65.464844 C 222.628906 65.527344 223.191406 65.894531 223.609375 66.558594 Z M 224.59375 73.566406 C 224.175781 72.980469 223.8125 72.632813 223.5 72.519531 C 223.1875 72.40625 222.851563 72.480469 222.5 72.738281 C 222.21875 72.933594 222.050781 73.179688 222 73.472656 C 221.957031 73.761719 222.039063 74.054688 222.25 74.347656 C 222.539063 74.753906 222.929688 74.960938 223.421875 74.972656 C 223.921875 74.980469 224.425781 74.800781 224.9375 74.425781 L 225.125 74.285156 Z M 225.96875 74.769531 L 223.1875 76.785156 L 222.671875 76.066406 L 223.40625 75.535156 C 222.988281 75.585938 222.617188 75.539063 222.296875 75.394531 C 221.984375 75.246094 221.695313 74.996094 221.4375 74.644531 C 221.113281 74.195313 220.992188 73.738281 221.078125 73.269531 C 221.160156 72.800781 221.441406 72.394531 221.921875 72.050781 C 222.460938 71.65625 222.992188 71.527344 223.515625 71.660156 C 224.035156 71.785156 224.535156 72.175781 225.015625 72.832031 L 225.75 73.847656 L 225.828125 73.785156 C 226.191406 73.511719 226.394531 73.195313 226.4375 72.832031 C 226.476563 72.46875 226.359375 72.089844 226.078125 71.691406 C 225.898438 71.441406 225.6875 71.222656 225.4375 71.035156 C 225.195313 70.847656 224.929688 70.691406 224.640625 70.566406 L 225.375 70.035156 C 225.695313 70.222656 225.972656 70.421875 226.203125 70.628906 C 226.429688 70.828125 226.628906 71.046875 226.796875 71.285156 C 227.253906 71.910156 227.414063 72.515625 227.28125 73.097656 C 227.15625 73.679688 226.71875 74.238281 225.96875 74.769531 Z M 230.546875 78.09375 L 233.140625 76.140625 L 233.671875 76.859375 L 226.984375 81.875 L 226.453125 81.15625 L 227.171875 80.609375 C 226.765625 80.679688 226.40625 80.65625 226.09375 80.53125 C 225.789063 80.40625 225.519531 80.1875 225.28125 79.875 C 224.882813 79.34375 224.796875 78.738281 225.015625 78.0625 C 225.234375 77.386719 225.722656 76.765625 226.484375 76.203125 C 227.234375 75.632813 227.960938 75.339844 228.671875 75.328125 C 229.378906 75.308594 229.929688 75.5625 230.328125 76.09375 C 230.566406 76.40625 230.703125 76.730469 230.734375 77.0625 C 230.773438 77.398438 230.710938 77.738281 230.546875 78.09375 Z M 227.03125 76.9375 C 226.445313 77.375 226.066406 77.820313 225.890625 78.28125 C 225.722656 78.738281 225.78125 79.15625 226.0625 79.53125 C 226.351563 79.914063 226.742188 80.09375 227.234375 80.0625 C 227.734375 80.03125 228.273438 79.796875 228.859375 79.359375 C 229.441406 78.921875 229.816406 78.472656 229.984375 78.015625 C 230.148438 77.558594 230.085938 77.136719 229.796875 76.75 C 229.515625 76.375 229.128906 76.203125 228.640625 76.234375 C 228.148438 76.265625 227.613281 76.5 227.03125 76.9375 Z M 227.03125 76.9375 "/>
<path style=" stroke:none;fill-rule:evenodd;fill:rgb(20%,20%,20%);fill-opacity:1;" d="M 179.0625 33.90625 C 179.144531 34.113281 179.164063 34.378906 179.125 34.703125 C 179.09375 35.023438 178.988281 35.421875 178.8125 35.890625 L 177.96875 38.140625 L 177.234375 37.390625 L 178.03125 35.28125 C 178.226563 34.738281 178.3125 34.320313 178.28125 34.03125 C 178.25 33.75 178.097656 33.476563 177.828125 33.203125 L 177.078125 32.453125 L 174.6875 34.859375 L 173.984375 34.171875 L 179.640625 28.484375 L 181.203125 30.03125 C 181.796875 30.625 182.097656 31.199219 182.109375 31.75 C 182.117188 32.304688 181.851563 32.855469 181.3125 33.40625 C 180.957031 33.757813 180.585938 33.984375 180.203125 34.078125 C 179.816406 34.171875 179.4375 34.113281 179.0625 33.90625 Z M 179.71875 29.8125 L 177.703125 31.828125 L 178.5625 32.6875 C 178.894531 33.03125 179.234375 33.203125 179.578125 33.203125 C 179.921875 33.195313 180.257813 33.023438 180.59375 32.6875 C 180.914063 32.355469 181.078125 32.023438 181.078125 31.6875 C 181.078125 31.355469 180.910156 31.015625 180.578125 30.671875 Z M 184.40625 39.960938 L 184.0625 40.304688 L 181.171875 37.414063 C 180.710938 37.925781 180.476563 38.417969 180.46875 38.898438 C 180.457031 39.386719 180.65625 39.839844 181.0625 40.257813 C 181.3125 40.496094 181.582031 40.695313 181.875 40.851563 C 182.164063 41.007813 182.488281 41.136719 182.84375 41.242188 L 182.1875 41.898438 C 181.851563 41.773438 181.539063 41.621094 181.25 41.445313 C 180.957031 41.265625 180.6875 41.058594 180.4375 40.820313 C 179.832031 40.203125 179.546875 39.523438 179.578125 38.773438 C 179.609375 38.023438 179.960938 37.3125 180.640625 36.632813 C 181.335938 35.9375 182.054688 35.554688 182.796875 35.492188 C 183.546875 35.421875 184.207031 35.671875 184.78125 36.242188 C 185.300781 36.753906 185.523438 37.34375 185.453125 38.007813 C 185.378906 38.671875 185.03125 39.324219 184.40625 39.960938 Z M 183.984375 39.117188 C 184.359375 38.71875 184.566406 38.320313 184.609375 37.914063 C 184.660156 37.5 184.53125 37.132813 184.21875 36.820313 C 183.863281 36.46875 183.46875 36.300781 183.03125 36.320313 C 182.59375 36.332031 182.160156 36.519531 181.734375 36.882813 Z M 189.285156 42.183594 L 191.566406 39.886719 L 192.191406 40.511719 L 186.300781 46.433594 L 185.675781 45.808594 L 186.316406 45.167969 C 185.917969 45.292969 185.558594 45.3125 185.238281 45.230469 C 184.914063 45.15625 184.613281 44.980469 184.332031 44.699219 C 183.871094 44.230469 183.699219 43.644531 183.816406 42.949219 C 183.929688 42.253906 184.320313 41.570313 184.988281 40.902344 C 185.664063 40.226563 186.351563 39.832031 187.050781 39.714844 C 187.746094 39.589844 188.324219 39.761719 188.785156 40.230469 C 189.066406 40.511719 189.246094 40.816406 189.332031 41.136719 C 189.414063 41.449219 189.398438 41.800781 189.285156 42.183594 Z M 185.644531 41.542969 C 185.132813 42.066406 184.824219 42.566406 184.722656 43.042969 C 184.617188 43.519531 184.730469 43.925781 185.066406 44.261719 C 185.398438 44.59375 185.804688 44.707031 186.285156 44.605469 C 186.773438 44.511719 187.273438 44.203125 187.785156 43.683594 C 188.304688 43.160156 188.613281 42.660156 188.707031 42.183594 C 188.808594 41.695313 188.695313 41.285156 188.363281 40.949219 C 188.027344 40.617188 187.621094 40.503906 187.144531 40.605469 C 186.664063 40.710938 186.164063 41.023438 185.644531 41.542969 Z M 195.816406 48.722656 C 195.941406 48.910156 196.019531 49.167969 196.050781 49.488281 C 196.082031 49.800781 196.058594 50.210938 195.988281 50.722656 L 195.660156 53.097656 L 194.769531 52.535156 L 195.097656 50.285156 C 195.179688 49.710938 195.167969 49.296875 195.066406 49.035156 C 194.972656 48.765625 194.761719 48.527344 194.441406 48.316406 L 193.550781 47.753906 L 191.738281 50.613281 L 190.894531 50.082031 L 195.175781 43.300781 L 197.050781 44.472656 C 197.746094 44.921875 198.164063 45.417969 198.300781 45.957031 C 198.433594 46.488281 198.292969 47.082031 197.878906 47.738281 C 197.605469 48.167969 197.292969 48.46875 196.941406 48.644531 C 196.585938 48.8125 196.210938 48.839844 195.816406 48.722656 Z M 195.550781 44.597656 L 194.019531 46.988281 L 195.050781 47.628906 C 195.445313 47.890625 195.808594 47.988281 196.144531 47.925781 C 196.476563 47.855469 196.769531 47.613281 197.019531 47.207031 C 197.269531 46.8125 197.355469 46.453125 197.285156 46.128906 C 197.210938 45.796875 196.976563 45.5 196.582031 45.238281 Z M 201.320313 50.203125 C 200.902344 49.964844 200.46875 49.960938 200.023438 50.1875 C 199.574219 50.40625 199.171875 50.828125 198.820313 51.453125 C 198.464844 52.078125 198.304688 52.640625 198.335938 53.140625 C 198.375 53.628906 198.605469 53.992188 199.023438 54.234375 C 199.4375 54.472656 199.867188 54.476563 200.304688 54.25 C 200.75 54.03125 201.152344 53.609375 201.507813 52.984375 C 201.859375 52.359375 202.023438 51.804688 201.992188 51.3125 C 201.960938 50.8125 201.734375 50.445313 201.320313 50.203125 Z M 201.726563 49.484375 C 202.390625 49.871094 202.777344 50.417969 202.882813 51.125 C 202.996094 51.824219 202.808594 52.601563 202.320313 53.453125 C 201.828125 54.304688 201.25 54.867188 200.585938 55.140625 C 199.929688 55.410156 199.265625 55.351563 198.601563 54.96875 C 197.914063 54.582031 197.515625 54.035156 197.414063 53.328125 C 197.308594 52.621094 197.5 51.839844 197.992188 50.984375 C 198.480469 50.132813 199.054688 49.574219 199.710938 49.3125 C 200.367188 49.042969 201.039063 49.101563 201.726563 49.484375 Z M 208.359375 53.636719 L 207.90625 54.433594 C 207.769531 54.183594 207.609375 53.964844 207.421875 53.777344 C 207.242188 53.582031 207.039063 53.417969 206.8125 53.292969 C 206.300781 53.011719 205.804688 52.972656 205.328125 53.167969 C 204.859375 53.367188 204.441406 53.789063 204.078125 54.433594 C 203.722656 55.070313 203.582031 55.648438 203.65625 56.167969 C 203.738281 56.675781 204.035156 57.074219 204.546875 57.355469 C 204.773438 57.480469 205.015625 57.566406 205.265625 57.621094 C 205.523438 57.683594 205.804688 57.703125 206.109375 57.683594 L 205.65625 58.480469 C 205.375 58.480469 205.097656 58.441406 204.828125 58.371094 C 204.566406 58.296875 204.3125 58.1875 204.0625 58.042969 C 203.34375 57.644531 202.910156 57.082031 202.765625 56.355469 C 202.628906 55.628906 202.796875 54.835938 203.265625 53.980469 C 203.742188 53.128906 204.332031 52.574219 205.03125 52.324219 C 205.726563 52.066406 206.445313 52.144531 207.1875 52.558594 C 207.414063 52.683594 207.628906 52.839844 207.828125 53.027344 C 208.035156 53.207031 208.210938 53.410156 208.359375 53.636719 Z M 210.921875 52.125 L 211.703125 52.5625 L 209.3125 56.875 L 212.890625 55.90625 L 213.890625 56.453125 L 210.015625 57.515625 L 211.0625 61.765625 L 210.046875 61.203125 L 209.0625 57.296875 L 207.640625 59.859375 L 206.859375 59.421875 Z M 218.355469 63.496094 C 218.4375 63.714844 218.449219 63.984375 218.386719 64.308594 C 218.332031 64.628906 218.207031 65.015625 218.011719 65.464844 L 217.042969 67.667969 L 216.339844 66.886719 L 217.246094 64.824219 C 217.484375 64.292969 217.59375 63.886719 217.574219 63.605469 C 217.550781 63.324219 217.410156 63.035156 217.152344 62.746094 L 216.449219 61.964844 L 213.933594 64.230469 L 213.277344 63.496094 L 219.230469 58.121094 L 220.699219 59.761719 C 221.261719 60.378906 221.53125 60.960938 221.511719 61.511719 C 221.488281 62.066406 221.191406 62.601563 220.621094 63.121094 C 220.246094 63.453125 219.863281 63.652344 219.480469 63.714844 C 219.105469 63.785156 218.730469 63.714844 218.355469 63.496094 Z M 219.214844 59.449219 L 217.105469 61.355469 L 217.917969 62.261719 C 218.238281 62.617188 218.566406 62.796875 218.902344 62.808594 C 219.246094 62.828125 219.59375 62.683594 219.949219 62.371094 C 220.292969 62.058594 220.46875 61.738281 220.480469 61.402344 C 220.5 61.058594 220.347656 60.710938 220.027344 60.355469 Z M 222.90625 66.996094 C 222.644531 66.589844 222.265625 66.382813 221.765625 66.371094 C 221.265625 66.363281 220.710938 66.550781 220.109375 66.933594 C 219.503906 67.316406 219.097656 67.734375 218.890625 68.183594 C 218.691406 68.640625 218.722656 69.074219 218.984375 69.480469 C 219.242188 69.886719 219.617188 70.09375 220.109375 70.105469 C 220.609375 70.113281 221.160156 69.925781 221.765625 69.542969 C 222.367188 69.15625 222.773438 68.734375 222.984375 68.277344 C 223.191406 67.828125 223.164063 67.402344 222.90625 66.996094 Z M 223.609375 66.558594 C 224.023438 67.207031 224.113281 67.859375 223.875 68.527344 C 223.632813 69.203125 223.097656 69.808594 222.265625 70.339844 C 221.441406 70.859375 220.675781 71.082031 219.96875 71.011719 C 219.257813 70.9375 218.695313 70.578125 218.28125 69.933594 C 217.863281 69.265625 217.773438 68.597656 218.015625 67.933594 C 218.253906 67.269531 218.785156 66.675781 219.609375 66.152344 C 220.441406 65.621094 221.210938 65.394531 221.921875 65.464844 C 222.628906 65.527344 223.191406 65.894531 223.609375 66.558594 Z M 224.59375 73.566406 C 224.175781 72.980469 223.8125 72.632813 223.5 72.519531 C 223.1875 72.40625 222.851563 72.480469 222.5 72.738281 C 222.21875 72.933594 222.050781 73.179688 222 73.472656 C 221.957031 73.761719 222.039063 74.054688 222.25 74.347656 C 222.539063 74.753906 222.929688 74.960938 223.421875 74.972656 C 223.921875 74.980469 224.425781 74.800781 224.9375 74.425781 L 225.125 74.285156 Z M 225.96875 74.769531 L 223.1875 76.785156 L 222.671875 76.066406 L 223.40625 75.535156 C 222.988281 75.585938 222.617188 75.539063 222.296875 75.394531 C 221.984375 75.246094 221.695313 74.996094 221.4375 74.644531 C 221.113281 74.195313 220.992188 73.738281 221.078125 73.269531 C 221.160156 72.800781 221.441406 72.394531 221.921875 72.050781 C 222.460938 71.65625 222.992188 71.527344 223.515625 71.660156 C 224.035156 71.785156 224.535156 72.175781 225.015625 72.832031 L 225.75 73.847656 L 225.828125 73.785156 C 226.191406 73.511719 226.394531 73.195313 226.4375 72.832031 C 226.476563 72.46875 226.359375 72.089844 226.078125 71.691406 C 225.898438 71.441406 225.6875 71.222656 225.4375 71.035156 C 225.195313 70.847656 224.929688 70.691406 224.640625 70.566406 L 225.375 70.035156 C 225.695313 70.222656 225.972656 70.421875 226.203125 70.628906 C 226.429688 70.828125 226.628906 71.046875 226.796875 71.285156 C 227.253906 71.910156 227.414063 72.515625 227.28125 73.097656 C 227.15625 73.679688 226.71875 74.238281 225.96875 74.769531 Z M 230.546875 78.09375 L 233.140625 76.140625 L 233.671875 76.859375 L 226.984375 81.875 L 226.453125 81.15625 L 227.171875 80.609375 C 226.765625 80.679688 226.40625 80.65625 226.09375 80.53125 C 225.789063 80.40625 225.519531 80.1875 225.28125 79.875 C 224.882813 79.34375 224.796875 78.738281 225.015625 78.0625 C 225.234375 77.386719 225.722656 76.765625 226.484375 76.203125 C 227.234375 75.632813 227.960938 75.339844 228.671875 75.328125 C 229.378906 75.308594 229.929688 75.5625 230.328125 76.09375 C 230.566406 76.40625 230.703125 76.730469 230.734375 77.0625 C 230.773438 77.398438 230.710938 77.738281 230.546875 78.09375 Z M 227.03125 76.9375 C 226.445313 77.375 226.066406 77.820313 225.890625 78.28125 C 225.722656 78.738281 225.78125 79.15625 226.0625 79.53125 C 226.351563 79.914063 226.742188 80.09375 227.234375 80.0625 C 227.734375 80.03125 228.273438 79.796875 228.859375 79.359375 C 229.441406 78.921875 229.816406 78.472656 229.984375 78.015625 C 230.148438 77.558594 230.085938 77.136719 229.796875 76.75 C 229.515625 76.375 229.128906 76.203125 228.640625 76.234375 C 228.148438 76.265625 227.613281 76.5 227.03125 76.9375 Z M 227.03125 76.9375 "/>
<path style="fill:none;stroke-width:3;stroke-linecap:round;stroke-linejoin:round;stroke:rgb(100%,100%,100%);stroke-opacity:1;stroke-miterlimit:10;" d="M 172.46875 61.75 L 171.375 62.5625 C 171.46875 62.007813 171.460938 61.5 171.359375 61.03125 C 171.253906 60.5625 171.054688 60.132813 170.765625 59.734375 C 170.179688 58.953125 169.46875 58.558594 168.625 58.546875 C 167.78125 58.527344 166.859375 58.890625 165.859375 59.640625 C 164.859375 60.390625 164.25 61.164063 164.03125 61.96875 C 163.820313 62.78125 164.007813 63.578125 164.59375 64.359375 C 164.882813 64.753906 165.238281 65.070313 165.65625 65.3125 C 166.082031 65.550781 166.570313 65.703125 167.125 65.765625 L 166.0625 66.5625 C 165.582031 66.4375 165.140625 66.234375 164.734375 65.953125 C 164.335938 65.679688 163.992188 65.347656 163.703125 64.953125 C 162.921875 63.910156 162.660156 62.832031 162.921875 61.71875 C 163.179688 60.605469 163.914063 59.589844 165.125 58.671875 C 166.34375 57.757813 167.523438 57.328125 168.671875 57.390625 C 169.828125 57.453125 170.796875 58.007813 171.578125 59.046875 C 171.878906 59.453125 172.101563 59.882813 172.25 60.328125 C 172.40625 60.777344 172.476563 61.25 172.46875 61.75 Z M 171.125 68.5625 C 170.613281 67.882813 170.171875 67.484375 169.796875 67.359375 C 169.429688 67.234375 169.039063 67.328125 168.625 67.640625 C 168.289063 67.878906 168.097656 68.164063 168.046875 68.5 C 168.003906 68.84375 168.113281 69.1875 168.375 69.53125 C 168.726563 70 169.191406 70.234375 169.765625 70.234375 C 170.335938 70.242188 170.929688 70.019531 171.546875 69.5625 L 171.75 69.390625 Z M 172.78125 69.96875 L 169.53125 72.40625 L 168.890625 71.546875 L 169.75 70.90625 C 169.269531 70.976563 168.835938 70.929688 168.453125 70.765625 C 168.066406 70.597656 167.71875 70.3125 167.40625 69.90625 C 167.007813 69.375 166.863281 68.832031 166.96875 68.28125 C 167.070313 67.726563 167.394531 67.25 167.9375 66.84375 C 168.570313 66.355469 169.191406 66.183594 169.796875 66.328125 C 170.410156 66.476563 171.007813 66.929688 171.59375 67.6875 L 172.46875 68.859375 L 172.578125 68.78125 C 173.003906 68.457031 173.238281 68.078125 173.28125 67.640625 C 173.320313 67.214844 173.171875 66.777344 172.828125 66.328125 C 172.609375 66.039063 172.359375 65.78125 172.078125 65.5625 C 171.796875 65.34375 171.476563 65.167969 171.125 65.03125 L 171.984375 64.375 C 172.347656 64.59375 172.671875 64.824219 172.953125 65.0625 C 173.242188 65.292969 173.492188 65.542969 173.703125 65.8125 C 174.253906 66.554688 174.453125 67.265625 174.296875 67.953125 C 174.148438 68.640625 173.644531 69.3125 172.78125 69.96875 Z M 178.746094 69.484375 L 177.136719 70.703125 L 178.449219 72.4375 L 177.714844 72.984375 L 176.402344 71.25 L 173.324219 73.5625 C 172.855469 73.914063 172.597656 74.195313 172.558594 74.40625 C 172.515625 74.613281 172.625 74.890625 172.886719 75.234375 L 173.542969 76.109375 L 172.761719 76.703125 L 172.105469 75.828125 C 171.613281 75.179688 171.410156 74.628906 171.496094 74.171875 C 171.578125 73.722656 171.972656 73.234375 172.683594 72.703125 L 175.761719 70.390625 L 175.308594 69.78125 L 176.042969 69.234375 L 176.496094 69.84375 L 178.105469 68.625 Z M 181.542969 76.910156 L 180.667969 77.566406 C 180.613281 77.230469 180.527344 76.914063 180.402344 76.613281 C 180.277344 76.300781 180.113281 76.011719 179.917969 75.738281 C 179.59375 75.324219 179.28125 75.0625 178.980469 74.957031 C 178.6875 74.84375 178.402344 74.894531 178.121094 75.113281 C 177.902344 75.269531 177.785156 75.472656 177.777344 75.722656 C 177.777344 75.972656 177.890625 76.363281 178.121094 76.894531 L 178.246094 77.238281 C 178.546875 77.933594 178.660156 78.503906 178.589844 78.941406 C 178.527344 79.386719 178.265625 79.785156 177.808594 80.128906 C 177.277344 80.535156 176.714844 80.664063 176.121094 80.519531 C 175.527344 80.371094 174.984375 79.972656 174.496094 79.316406 C 174.285156 79.054688 174.097656 78.753906 173.933594 78.410156 C 173.777344 78.066406 173.640625 77.683594 173.527344 77.269531 L 174.480469 76.550781 C 174.53125 76.988281 174.625 77.386719 174.761719 77.753906 C 174.894531 78.117188 175.078125 78.449219 175.308594 78.753906 C 175.597656 79.136719 175.902344 79.382813 176.214844 79.488281 C 176.527344 79.589844 176.816406 79.539063 177.089844 79.332031 C 177.339844 79.144531 177.46875 78.917969 177.480469 78.660156 C 177.5 78.398438 177.378906 77.964844 177.121094 77.363281 L 176.980469 77.019531 C 176.707031 76.394531 176.609375 75.875 176.683594 75.457031 C 176.765625 75.03125 177.027344 74.65625 177.464844 74.332031 C 178.003906 73.925781 178.550781 73.792969 179.105469 73.925781 C 179.65625 74.050781 180.167969 74.425781 180.636719 75.050781 C 180.863281 75.355469 181.058594 75.660156 181.214844 75.972656 C 181.371094 76.285156 181.480469 76.597656 181.542969 76.910156 Z M 185.109375 76.691406 L 185.75 77.550781 L 181.09375 81.050781 L 185.421875 81.722656 L 186.234375 82.800781 L 181.515625 82.082031 L 180.625 87.175781 L 179.8125 86.082031 L 180.625 81.410156 L 177.859375 83.488281 L 177.21875 82.628906 Z M 187 83.820313 L 187.625 84.648438 L 181.9375 88.914063 L 181.3125 88.085938 Z M 189.203125 82.148438 L 189.828125 82.976563 L 188.640625 83.867188 L 188.015625 83.039063 Z M 191.15625 84.746094 L 191.78125 85.574219 L 183.890625 91.511719 L 183.265625 90.683594 Z M 193.109375 87.34375 L 193.734375 88.171875 L 185.84375 94.109375 L 185.21875 93.28125 Z M 200.246094 98.726563 L 199.152344 99.539063 C 199.246094 98.984375 199.238281 98.476563 199.136719 98.007813 C 199.03125 97.539063 198.832031 97.109375 198.542969 96.710938 C 197.957031 95.929688 197.246094 95.535156 196.402344 95.523438 C 195.558594 95.503906 194.636719 95.867188 193.636719 96.617188 C 192.636719 97.367188 192.027344 98.140625 191.808594 98.945313 C 191.597656 99.757813 191.785156 100.554688 192.371094 101.335938 C 192.660156 101.730469 193.015625 102.046875 193.433594 102.289063 C 193.859375 102.527344 194.347656 102.679688 194.902344 102.742188 L 193.839844 103.539063 C 193.359375 103.414063 192.917969 103.210938 192.511719 102.929688 C 192.113281 102.65625 191.769531 102.324219 191.480469 101.929688 C 190.699219 100.886719 190.4375 99.808594 190.699219 98.695313 C 190.957031 97.582031 191.691406 96.566406 192.902344 95.648438 C 194.121094 94.734375 195.300781 94.304688 196.449219 94.367188 C 197.605469 94.429688 198.574219 94.984375 199.355469 96.023438 C 199.65625 96.429688 199.878906 96.859375 200.027344 97.304688 C 200.183594 97.753906 200.253906 98.226563 200.246094 98.726563 Z M 201.34375 104.730469 C 201.320313 104.59375 201.285156 104.460938 201.234375 104.324219 C 201.179688 104.191406 201.109375 104.054688 201.015625 103.917969 C 200.648438 103.449219 200.203125 103.222656 199.671875 103.230469 C 199.140625 103.230469 198.554688 103.472656 197.921875 103.949219 L 194.921875 106.199219 L 194.28125 105.339844 L 199.96875 101.074219 L 200.609375 101.933594 L 199.71875 102.589844 C 200.195313 102.507813 200.625 102.542969 201 102.699219 C 201.382813 102.855469 201.726563 103.132813 202.03125 103.527344 C 202.070313 103.589844 202.113281 103.660156 202.15625 103.730469 C 202.195313 103.804688 202.242188 103.898438 202.296875 104.011719 Z M 203.558594 111.296875 L 203.105469 111.640625 L 200.199219 107.765625 C 199.582031 108.296875 199.222656 108.84375 199.121094 109.40625 C 199.027344 109.96875 199.1875 110.523438 199.605469 111.078125 C 199.84375 111.398438 200.121094 111.675781 200.433594 111.90625 C 200.746094 112.144531 201.097656 112.351563 201.496094 112.53125 L 200.605469 113.1875 C 200.25 112.988281 199.910156 112.757813 199.589844 112.5 C 199.277344 112.238281 199 111.945313 198.761719 111.625 C 198.144531 110.8125 197.921875 109.96875 198.089844 109.09375 C 198.265625 108.21875 198.800781 107.445313 199.699219 106.765625 C 200.636719 106.070313 201.546875 105.742188 202.433594 105.78125 C 203.316406 105.824219 204.046875 106.226563 204.621094 106.984375 C 205.140625 107.683594 205.300781 108.414063 205.105469 109.1875 C 204.917969 109.957031 204.402344 110.660156 203.558594 111.296875 Z M 203.183594 110.234375 C 203.691406 109.847656 204.003906 109.414063 204.121094 108.9375 C 204.246094 108.457031 204.152344 108.011719 203.839844 107.59375 C 203.484375 107.125 203.050781 106.867188 202.542969 106.8125 C 202.03125 106.75 201.496094 106.898438 200.933594 107.25 Z M 207.886719 117.054688 L 207.433594 117.398438 L 204.527344 113.523438 C 203.910156 114.054688 203.550781 114.601563 203.449219 115.164063 C 203.355469 115.726563 203.515625 116.28125 203.933594 116.835938 C 204.171875 117.15625 204.449219 117.433594 204.761719 117.664063 C 205.074219 117.902344 205.425781 118.109375 205.824219 118.289063 L 204.933594 118.945313 C 204.578125 118.746094 204.238281 118.515625 203.917969 118.257813 C 203.605469 117.996094 203.328125 117.703125 203.089844 117.382813 C 202.472656 116.570313 202.25 115.726563 202.417969 114.851563 C 202.59375 113.976563 203.128906 113.203125 204.027344 112.523438 C 204.964844 111.828125 205.875 111.5 206.761719 111.539063 C 207.644531 111.582031 208.375 111.984375 208.949219 112.742188 C 209.46875 113.441406 209.628906 114.171875 209.433594 114.945313 C 209.246094 115.714844 208.730469 116.417969 207.886719 117.054688 Z M 207.511719 115.992188 C 208.019531 115.605469 208.332031 115.171875 208.449219 114.695313 C 208.574219 114.214844 208.480469 113.769531 208.167969 113.351563 C 207.8125 112.882813 207.378906 112.625 206.871094 112.570313 C 206.359375 112.507813 205.824219 112.65625 205.261719 113.007813 Z M 213.710938 114.769531 L 214.351563 115.628906 L 209.695313 119.128906 L 214.023438 119.800781 L 214.835938 120.878906 L 210.117188 120.160156 L 209.226563 125.253906 L 208.414063 124.160156 L 209.226563 119.488281 L 206.460938 121.566406 L 205.820313 120.707031 Z M 213.710938 114.769531 "/>
<path style=" stroke:none;fill-rule:evenodd;fill:rgb(41.960784%,58.039216%,69.019608%);fill-opacity:1;" d="M 172.46875 61.75 L 171.375 62.5625 C 171.46875 62.007813 171.460938 61.5 171.359375 61.03125 C 171.253906 60.5625 171.054688 60.132813 170.765625 59.734375 C 170.179688 58.953125 169.46875 58.558594 168.625 58.546875 C 167.78125 58.527344 166.859375 58.890625 165.859375 59.640625 C 164.859375 60.390625 164.25 61.164063 164.03125 61.96875 C 163.820313 62.78125 164.007813 63.578125 164.59375 64.359375 C 164.882813 64.753906 165.238281 65.070313 165.65625 65.3125 C 166.082031 65.550781 166.570313 65.703125 167.125 65.765625 L 166.0625 66.5625 C 165.582031 66.4375 165.140625 66.234375 164.734375 65.953125 C 164.335938 65.679688 163.992188 65.347656 163.703125 64.953125 C 162.921875 63.910156 162.660156 62.832031 162.921875 61.71875 C 163.179688 60.605469 163.914063 59.589844 165.125 58.671875 C 166.34375 57.757813 167.523438 57.328125 168.671875 57.390625 C 169.828125 57.453125 170.796875 58.007813 171.578125 59.046875 C 171.878906 59.453125 172.101563 59.882813 172.25 60.328125 C 172.40625 60.777344 172.476563 61.25 172.46875 61.75 Z M 171.125 68.5625 C 170.613281 67.882813 170.171875 67.484375 169.796875 67.359375 C 169.429688 67.234375 169.039063 67.328125 168.625 67.640625 C 168.289063 67.878906 168.097656 68.164063 168.046875 68.5 C 168.003906 68.84375 168.113281 69.1875 168.375 69.53125 C 168.726563 70 169.191406 70.234375 169.765625 70.234375 C 170.335938 70.242188 170.929688 70.019531 171.546875 69.5625 L 171.75 69.390625 Z M 172.78125 69.96875 L 169.53125 72.40625 L 168.890625 71.546875 L 169.75 70.90625 C 169.269531 70.976563 168.835938 70.929688 168.453125 70.765625 C 168.066406 70.597656 167.71875 70.3125 167.40625 69.90625 C 167.007813 69.375 166.863281 68.832031 166.96875 68.28125 C 167.070313 67.726563 167.394531 67.25 167.9375 66.84375 C 168.570313 66.355469 169.191406 66.183594 169.796875 66.328125 C 170.410156 66.476563 171.007813 66.929688 171.59375 67.6875 L 172.46875 68.859375 L 172.578125 68.78125 C 173.003906 68.457031 173.238281 68.078125 173.28125 67.640625 C 173.320313 67.214844 173.171875 66.777344 172.828125 66.328125 C 172.609375 66.039063 172.359375 65.78125 172.078125 65.5625 C 171.796875 65.34375 171.476563 65.167969 171.125 65.03125 L 171.984375 64.375 C 172.347656 64.59375 172.671875 64.824219 172.953125 65.0625 C 173.242188 65.292969 173.492188 65.542969 173.703125 65.8125 C 174.253906 66.554688 174.453125 67.265625 174.296875 67.953125 C 174.148438 68.640625 173.644531 69.3125 172.78125 69.96875 Z M 178.746094 69.484375 L 177.136719 70.703125 L 178.449219 72.4375 L 177.714844 72.984375 L 176.402344 71.25 L 173.324219 73.5625 C 172.855469 73.914063 172.597656 74.195313 172.558594 74.40625 C 172.515625 74.613281 172.625 74.890625 172.886719 75.234375 L 173.542969 76.109375 L 172.761719 76.703125 L 172.105469 75.828125 C 171.613281 75.179688 171.410156 74.628906 171.496094 74.171875 C 171.578125 73.722656 171.972656 73.234375 172.683594 72.703125 L 175.761719 70.390625 L 175.308594 69.78125 L 176.042969 69.234375 L 176.496094 69.84375 L 178.105469 68.625 Z M 181.542969 76.910156 L 180.667969 77.566406 C 180.613281 77.230469 180.527344 76.914063 180.402344 76.613281 C 180.277344 76.300781 180.113281 76.011719 179.917969 75.738281 C 179.59375 75.324219 179.28125 75.0625 178.980469 74.957031 C 178.6875 74.84375 178.402344 74.894531 178.121094 75.113281 C 177.902344 75.269531 177.785156 75.472656 177.777344 75.722656 C 177.777344 75.972656 177.890625 76.363281 178.121094 76.894531 L 178.246094 77.238281 C 178.546875 77.933594 178.660156 78.503906 178.589844 78.941406 C 178.527344 79.386719 178.265625 79.785156 177.808594 80.128906 C 177.277344 80.535156 176.714844 80.664063 176.121094 80.519531 C 175.527344 80.371094 174.984375 79.972656 174.496094 79.316406 C 174.285156 79.054688 174.097656 78.753906 173.933594 78.410156 C 173.777344 78.066406 173.640625 77.683594 173.527344 77.269531 L 174.480469 76.550781 C 174.53125 76.988281 174.625 77.386719 174.761719 77.753906 C 174.894531 78.117188 175.078125 78.449219 175.308594 78.753906 C 175.597656 79.136719 175.902344 79.382813 176.214844 79.488281 C 176.527344 79.589844 176.816406 79.539063 177.089844 79.332031 C 177.339844 79.144531 177.46875 78.917969 177.480469 78.660156 C 177.5 78.398438 177.378906 77.964844 177.121094 77.363281 L 176.980469 77.019531 C 176.707031 76.394531 176.609375 75.875 176.683594 75.457031 C 176.765625 75.03125 177.027344 74.65625 177.464844 74.332031 C 178.003906 73.925781 178.550781 73.792969 179.105469 73.925781 C 179.65625 74.050781 180.167969 74.425781 180.636719 75.050781 C 180.863281 75.355469 181.058594 75.660156 181.214844 75.972656 C 181.371094 76.285156 181.480469 76.597656 181.542969 76.910156 Z M 185.109375 76.691406 L 185.75 77.550781 L 181.09375 81.050781 L 185.421875 81.722656 L 186.234375 82.800781 L 181.515625 82.082031 L 180.625 87.175781 L 179.8125 86.082031 L 180.625 81.410156 L 177.859375 83.488281 L 177.21875 82.628906 Z M 187 83.820313 L 187.625 84.648438 L 181.9375 88.914063 L 181.3125 88.085938 Z M 189.203125 82.148438 L 189.828125 82.976563 L 188.640625 83.867188 L 188.015625 83.039063 Z M 191.15625 84.746094 L 191.78125 85.574219 L 183.890625 91.511719 L 183.265625 90.683594 Z M 193.109375 87.34375 L 193.734375 88.171875 L 185.84375 94.109375 L 185.21875 93.28125 Z M 200.246094 98.726563 L 199.152344 99.539063 C 199.246094 98.984375 199.238281 98.476563 199.136719 98.007813 C 199.03125 97.539063 198.832031 97.109375 198.542969 96.710938 C 197.957031 95.929688 197.246094 95.535156 196.402344 95.523438 C 195.558594 95.503906 194.636719 95.867188 193.636719 96.617188 C 192.636719 97.367188 192.027344 98.140625 191.808594 98.945313 C 191.597656 99.757813 191.785156 100.554688 192.371094 101.335938 C 192.660156 101.730469 193.015625 102.046875 193.433594 102.289063 C 193.859375 102.527344 194.347656 102.679688 194.902344 102.742188 L 193.839844 103.539063 C 193.359375 103.414063 192.917969 103.210938 192.511719 102.929688 C 192.113281 102.65625 191.769531 102.324219 191.480469 101.929688 C 190.699219 100.886719 190.4375 99.808594 190.699219 98.695313 C 190.957031 97.582031 191.691406 96.566406 192.902344 95.648438 C 194.121094 94.734375 195.300781 94.304688 196.449219 94.367188 C 197.605469 94.429688 198.574219 94.984375 199.355469 96.023438 C 199.65625 96.429688 199.878906 96.859375 200.027344 97.304688 C 200.183594 97.753906 200.253906 98.226563 200.246094 98.726563 Z M 201.34375 104.730469 C 201.320313 104.59375 201.285156 104.460938 201.234375 104.324219 C 201.179688 104.191406 201.109375 104.054688 201.015625 103.917969 C 200.648438 103.449219 200.203125 103.222656 199.671875 103.230469 C 199.140625 103.230469 198.554688 103.472656 197.921875 103.949219 L 194.921875 106.199219 L 194.28125 105.339844 L 199.96875 101.074219 L 200.609375 101.933594 L 199.71875 102.589844 C 200.195313 102.507813 200.625 102.542969 201 102.699219 C 201.382813 102.855469 201.726563 103.132813 202.03125 103.527344 C 202.070313 103.589844 202.113281 103.660156 202.15625 103.730469 C 202.195313 103.804688 202.242188 103.898438 202.296875 104.011719 Z M 203.558594 111.296875 L 203.105469 111.640625 L 200.199219 107.765625 C 199.582031 108.296875 199.222656 108.84375 199.121094 109.40625 C 199.027344 109.96875 199.1875 110.523438 199.605469 111.078125 C 199.84375 111.398438 200.121094 111.675781 200.433594 111.90625 C 200.746094 112.144531 201.097656 112.351563 201.496094 112.53125 L 200.605469 113.1875 C 200.25 112.988281 199.910156 112.757813 199.589844 112.5 C 199.277344 112.238281 199 111.945313 198.761719 111.625 C 198.144531 110.8125 197.921875 109.96875 198.089844 109.09375 C 198.265625 108.21875 198.800781 107.445313 199.699219 106.765625 C 200.636719 106.070313 201.546875 105.742188 202.433594 105.78125 C 203.316406 105.824219 204.046875 106.226563 204.621094 106.984375 C 205.140625 107.683594 205.300781 108.414063 205.105469 109.1875 C 204.917969 109.957031 204.402344 110.660156 203.558594 111.296875 Z M 203.183594 110.234375 C 203.691406 109.847656 204.003906 109.414063 204.121094 108.9375 C 204.246094 108.457031 204.152344 108.011719 203.839844 107.59375 C 203.484375 107.125 203.050781 106.867188 202.542969 106.8125 C 202.03125 106.75 201.496094 106.898438 200.933594 107.25 Z M 207.886719 117.054688 L 207.433594 117.398438 L 204.527344 113.523438 C 203.910156 114.054688 203.550781 114.601563 203.449219 115.164063 C 203.355469 115.726563 203.515625 116.28125 203.933594 116.835938 C 204.171875 117.15625 204.449219 117.433594 204.761719 117.664063 C 205.074219 117.902344 205.425781 118.109375 205.824219 118.289063 L 204.933594 118.945313 C 204.578125 118.746094 204.238281 118.515625 203.917969 118.257813 C 203.605469 117.996094 203.328125 117.703125 203.089844 117.382813 C 202.472656 116.570313 202.25 115.726563 202.417969 114.851563 C 202.59375 113.976563 203.128906 113.203125 204.027344 112.523438 C 204.964844 111.828125 205.875 111.5 206.761719 111.539063 C 207.644531 111.582031 208.375 111.984375 208.949219 112.742188 C 209.46875 113.441406 209.628906 114.171875 209.433594 114.945313 C 209.246094 115.714844 208.730469 116.417969 207.886719 117.054688 Z M 207.511719 115.992188 C 208.019531 115.605469 208.332031 115.171875 208.449219 114.695313 C 208.574219 114.214844 208.480469 113.769531 208.167969 113.351563 C 207.8125 112.882813 207.378906 112.625 206.871094 112.570313 C 206.359375 112.507813 205.824219 112.65625 205.261719 113.007813 Z M 213.710938 114.769531 L 214.351563 115.628906 L 209.695313 119.128906 L 214.023438 119.800781 L 214.835938 120.878906 L 210.117188 120.160156 L 209.226563 125.253906 L 208.414063 124.160156 L 209.226563 119.488281 L 206.460938 121.566406 L 205.820313 120.707031 Z M 213.710938 114.769531 "/>
</g>
</svg>

