<?xml version="1.0" encoding="UTF-8"?>
<svg xmlns="http://www.w3.org/2000/svg" xmlns:xlink="http://www.w3.org/1999/xlink" width="256pt" height="256pt" viewBox="0 0 256 256" version="1.1">
<g id="surface2">
<rect x="0" y="0" width="256" height="256" style="fill:rgb(94.901961%,93.72549%,91.372549%);fill-opacity:1;stroke:none;"/>
<path style="fill:none;stroke-width:1;stroke-linecap:round;stroke-linejoin:round;stroke:rgb(100%,100%,100%);stroke-opacity:1;stroke-dasharray:2,3;stroke-miterlimit:10;" d="M 145.648438 231.816406 L 144.820313 229.890625 "/>
<path style="fill:none;stroke-width:1;stroke-linecap:round;stroke-linejoin:round;stroke:rgb(100%,100%,100%);stroke-opacity:1;stroke-dasharray:2,3;stroke-miterlimit:10;" d="M 70.285156 257 L 72.519531 255.40625 L 75.671875 253.214844 L 76.804688 249.164063 L 79.289063 248.441406 L 81.839844 248.878906 L 85.375 249.097656 L 91.226563 247.28125 L 92.578125 247.691406 L 94.671875 246.96875 L 99.472656 242.488281 L 104.734375 241.871094 L 109.804688 238.167969 L 112.867188 237.503906 L 115.757813 236.554688 L 118.652344 236.226563 L 120.730469 236.960938 L 124.6875 236.75 L 127.414063 235.578125 L 129.902344 234.625 L 133.96875 236.492188 L 135.921875 235.289063 L 139.316406 234.230469 L 142.488281 234.175781 L 145.648438 231.816406 L 149.835938 231.8125 L 151.714844 230.84375 L 148.609375 220.136719 L 147.371094 216.023438 L 147.523438 211.820313 L 146.566406 209.675781 L 145.945313 204.78125 L 144.65625 200.035156 L 145.023438 198.257813 L 144.542969 195.960938 L 142.421875 193.019531 L 138.925781 191.953125 L 136.933594 188.285156 L 141.34375 179.5 L 142.441406 175.496094 L 145.289063 172.15625 L 142.960938 168.417969 L 142.15625 165.191406 L 144.617188 157.277344 L 147.230469 153.148438 L 147.1875 148.945313 L 146.824219 141.066406 L 150.386719 138.628906 L 149.75 133.328125 L 151.300781 128.535156 L 145.210938 126.609375 L 150.820313 115.425781 L 154.265625 103.960938 L 150.960938 102.125 L 156.6875 97.480469 L 161.113281 90.75 L 168.78125 87.765625 L 171.421875 84.367188 L 174.382813 80.65625 L 175.996094 77.148438 L 179.964844 73.933594 L 181.351563 68.5 L 184.996094 61.070313 L 184.015625 56.234375 L 186.328125 49.5625 L 184.539063 33.246094 L 185.039063 21.0625 L 176.660156 11.636719 L 175.832031 -2 "/>
</g>
</svg>

