<?xml version="1.0" encoding="UTF-8"?>
<svg xmlns="http://www.w3.org/2000/svg" xmlns:xlink="http://www.w3.org/1999/xlink" width="256pt" height="256pt" viewBox="0 0 256 256" version="1.1">
<g id="surface2">
<rect x="0" y="0" width="256" height="256" style="fill:rgb(94.901961%,93.72549%,91.372549%);fill-opacity:1;stroke:none;"/>
<path style=" stroke:none;fill-rule:evenodd;fill:rgb(79.607843%,84.705882%,76.470588%);fill-opacity:1;" d="M -4 -4 L -4 260 L 260 260 L 260 12.859375 L 257.757813 12.03125 L 207.042969 4.097656 L 200.28125 0.945313 L 196.773438 -4 Z M -4 -4 "/>
<path style=" stroke:none;fill-rule:evenodd;fill:rgb(79.607843%,84.705882%,76.470588%);fill-opacity:1;" d="M 202.9375 -4 L 203.492188 -2.941406 L 208.515625 -0.597656 L 258.871094 7.257813 L 260 7.679688 L 260 260 L 260 -4 Z M 202.9375 -4 "/>
<path style=" stroke:none;fill-rule:evenodd;fill:rgb(60%,70.196078%,80%);fill-opacity:1;" d="M -4 -4 L 259 -4 L 259 259 L -4 259 L 259 259 L 259 -4 Z M -8235614.453125 5075435.398438 Z M -8235614.453125 5075435.398438 "/>
<path style="fill:none;stroke-width:1;stroke-linecap:round;stroke-linejoin:round;stroke:rgb(70.196078%,77.647059%,83.137255%);stroke-opacity:1;stroke-miterlimit:10;" d="M -4 -4 L 259 -4 L 259 259 L -4 259 L 259 259 L 259 -4 L -4 -4 "/>
<path style="fill:none;stroke-width:1;stroke-linecap:round;stroke-linejoin:round;stroke:rgb(100%,100%,100%);stroke-opacity:1;stroke-dasharray:2,3;stroke-miterlimit:10;" d="M -2 105.96875 L 15.144531 95.46875 L 22.144531 89.21875 L 30.394531 71.46875 L 35.394531 56.46875 L 48.742188 45.746094 L 56.492188 33.242188 L 72.644531 21.96875 L 82.894531 9.21875 L 94.894531 10.71875 L 107.394531 19.21875 L 115.644531 13.71875 L 132.144531 18.722656 L 139.644531 14.21875 L 147.644531 15.71875 L 152.394531 11.21875 L 160.894531 11.71875 L 182.394531 5.21875 L 193.144531 2.96875 L 197.746094 4.492188 L 206.148438 0.554688 "/>
<path style="fill:none;stroke-width:1;stroke-linecap:round;stroke-linejoin:round;stroke:rgb(100%,100%,100%);stroke-opacity:1;stroke-dasharray:2,3;stroke-miterlimit:10;" d="M 207.800781 2.414063 L 209.050781 11.347656 L 218.894531 34.71875 L 208.894531 53.46875 L 224.894531 68.71875 L 224.144531 73.71875 L 236.144531 81.71875 L 246.742188 92.996094 L 257 87.746094 M 257 186.082031 L 255.644531 186.46875 L 246.644531 195.46875 L 232.144531 212.46875 L 222.394531 220.21875 L 212.394531 239.71875 L 200.894531 246.46875 L 193.960938 257 M 60.746094 257 L 59.746094 246.246094 L 52.394531 232.96875 L 41.144531 215.46875 L 41.144531 211.96875 L 43.890625 201.71875 L 39.644531 192.46875 L 36.644531 194.21875 L 32.894531 196.21875 L 28.894531 202.21875 L 11.644531 214.71875 L 0.894531 216.21875 L -2 218.5 "/>
<path style="fill:none;stroke-width:9;stroke-linecap:round;stroke-linejoin:round;stroke:rgb(75.686275%,70.980392%,61.568627%);stroke-opacity:1;stroke-miterlimit:10;" d="M 201.582031 -10 L 201.84375 -8.925781 L 202.648438 -5.976563 L 203.6875 -3.5625 L 204.824219 -1.355469 L 206.148438 0.554688 L 207.800781 2.414063 L 209.828125 4.109375 L 212.105469 5.609375 L 214.660156 6.972656 L 217.609375 7.976563 L 220.535156 8.628906 L 224.316406 9.25 L 232.015625 10.332031 L 265 14.183594 "/>
<path style="fill:none;stroke-width:7;stroke-linecap:round;stroke-linejoin:round;stroke:rgb(100%,99.215686%,54.509804%);stroke-opacity:1;stroke-miterlimit:10;" d="M 201.582031 -10 L 201.84375 -8.925781 L 202.648438 -5.976563 L 203.6875 -3.5625 L 204.824219 -1.355469 L 206.148438 0.554688 L 207.800781 2.414063 L 209.828125 4.109375 L 212.105469 5.609375 L 214.660156 6.972656 L 217.609375 7.976563 L 220.535156 8.628906 L 224.316406 9.25 L 232.015625 10.332031 L 265 14.183594 "/>
</g>
</svg>

