<?xml version="1.0" encoding="UTF-8"?>
<svg xmlns="http://www.w3.org/2000/svg" xmlns:xlink="http://www.w3.org/1999/xlink" width="256pt" height="256pt" viewBox="0 0 256 256" version="1.1">
<g id="surface2">
<rect x="0" y="0" width="256" height="256" style="fill:rgb(60%,70.196078%,80%);fill-opacity:1;stroke:none;"/>
<path style=" stroke:none;fill-rule:evenodd;fill:rgb(94.901961%,93.72549%,91.372549%);fill-opacity:1;" d="M 259 259 L -4 259 L 259 259 L 226.6875 259 L 226.09375 257.707031 L 223.976563 259 L 207.648438 259 L 198.710938 241.988281 L 173.710938 259 L 129.257813 259 L 122.234375 247.199219 L 108.964844 255.402344 L 102.859375 245.875 L 124.414063 232.296875 L 125.5625 231.4375 L 120.742188 219.851563 L 124.25 207.785156 L 140.160156 196.140625 L 160.101563 182.175781 L 147.957031 163.078125 L 137.789063 169.34375 L 127.933594 174.191406 L 121.546875 182.804688 L 103.8125 189.625 L 89.042969 187.804688 L 81.421875 175.894531 L 102.65625 161.414063 L 122.015625 150.039063 L 104.601563 144.746094 L 102.242188 132.007813 L 104.453125 130.136719 L 104.757813 127.898438 L 120.777344 116.308594 L 119.613281 114.761719 L 101.160156 126.175781 L 85.15625 136.011719 L 82.273438 137.125 L 64.5625 145.53125 L 63.144531 146.207031 L 45.273438 102.558594 L 43.089844 97.230469 L 39.25 88.484375 L 2.1875 37.027344 L -4 28.535156 L -4 -4 L 259 -4 Z M 259 259 "/>
<path style=" stroke:none;fill-rule:evenodd;fill:rgb(70.980392%,82.352941%,61.176471%);fill-opacity:1;" d="M -4 -4 L -4 27.40625 L 3.746094 34.140625 L 12.308594 44.015625 L 18.839844 51.769531 L 40.070313 89.070313 L 45.371094 102.511719 L 49.878906 97.394531 L 45.703125 89.316406 L 71.316406 57.148438 L 75.183594 52.769531 L 74.082031 46.199219 L 70.796875 44.15625 L 19.816406 21.886719 L 6.285156 15.953125 L -4 9.839844 Z M -4 -4 "/>
<path style=" stroke:none;fill-rule:evenodd;fill:rgb(81.960784%,81.568627%,80.392157%);fill-opacity:1;" d="M 51.792969 95.722656 L 54.628906 101.523438 L 64.597656 97.113281 L 77.980469 122.789063 L 81.046875 129.570313 L 88.425781 125.277344 L 91.171875 123.46875 L 102.078125 115.527344 L 99 110.546875 L 115.953125 99.976563 L 120.652344 107.75 L 123.390625 106.074219 L 124.84375 108.144531 L 125.683594 109.878906 L 130.789063 107.675781 L 128.253906 103.480469 L 139.074219 96.796875 L 141.652344 101.023438 L 145.765625 98.574219 L 131.761719 85.089844 L 112.300781 68.976563 L 90.261719 53.644531 L 86.265625 57.253906 L 91.21875 61.796875 L 84.632813 68.5 L 80.40625 64.5 L 77.140625 62.503906 Z M 51.792969 95.722656 "/>
<path style="fill:none;stroke-width:1;stroke-linecap:round;stroke-linejoin:round;stroke:rgb(81.960784%,81.960784%,81.960784%);stroke-opacity:1;stroke-miterlimit:10;" d="M 51.792969 95.722656 L 54.628906 101.523438 L 64.597656 97.113281 L 77.980469 122.789063 L 81.046875 129.570313 L 88.425781 125.277344 L 91.171875 123.46875 L 102.078125 115.527344 L 99 110.546875 L 115.953125 99.976563 L 120.652344 107.75 L 123.390625 106.074219 L 124.84375 108.144531 L 125.683594 109.878906 L 130.789063 107.675781 L 128.253906 103.480469 L 139.074219 96.796875 L 141.652344 101.023438 L 145.765625 98.574219 L 131.761719 85.089844 L 112.300781 68.976563 L 90.261719 53.644531 L 86.265625 57.253906 L 91.21875 61.796875 L 84.632813 68.5 L 80.40625 64.5 L 77.140625 62.503906 L 51.792969 95.722656 "/>
<path style=" stroke:none;fill-rule:evenodd;fill:rgb(70.980392%,82.352941%,61.176471%);fill-opacity:1;" d="M 47.179688 19.253906 L 59.8125 21.914063 L 71.363281 23.445313 L 80.59375 24.296875 L 88.46875 24.296875 L 94.699219 22.824219 L 100.683594 17.925781 L 108.832031 10.789063 L 117.210938 -0.222656 L 114.027344 -4 L 42.34375 -4 L 32.546875 7.585938 L 31.765625 8.515625 L 27.859375 13.613281 Z M 47.179688 19.253906 "/>
<path style=" stroke:none;fill-rule:evenodd;fill:rgb(70.980392%,82.352941%,61.176471%);fill-opacity:1;" d="M -4 -4 L -4 -3 L 5.210938 3.003906 L 10.058594 5.464844 L 27.859375 13.613281 L 31.765625 8.515625 L 24.277344 7.933594 L 21.660156 6.839844 L 17.160156 4.960938 L 7.921875 1.097656 L 2.152344 -1.316406 L -1.179688 -4 Z M -4 -4 "/>
<path style=" stroke:none;fill-rule:evenodd;fill:rgb(87.058824%,82.352941%,67.45098%);fill-opacity:1;" d="M 229.929688 106.398438 L 260 68.234375 L 260 60.457031 L 251.011719 53.375 L 217.15625 96.335938 Z M 229.929688 106.398438 "/>
<path style=" stroke:none;fill-rule:evenodd;fill:rgb(87.058824%,81.960784%,67.058824%);fill-opacity:1;" d="M 18.996094 49.722656 L 21.441406 53.148438 L 26.765625 60.347656 L 30.964844 67.160156 L 33.246094 71.394531 L 38.9375 65.757813 L 41.734375 61.441406 L 43.675781 57.1875 L 44.207031 51.660156 L 43.960938 48.253906 L 43.15625 43.457031 L 41.457031 39.210938 L 39.652344 36.628906 Z M 18.996094 49.722656 "/>
<path style=" stroke:none;fill-rule:evenodd;fill:rgb(87.058824%,81.960784%,67.058824%);fill-opacity:1;" d="M 4.890625 33.769531 L 11.171875 40.597656 L 16.199219 46.277344 L 18.996094 49.722656 L 39.652344 36.628906 L 35.90625 32.535156 L 32.839844 30.390625 L 29.074219 28.570313 L 25.660156 27.585938 L 21.023438 26.929688 L 14.261719 28 L 10.101563 29.601563 L 6.5 31.875 Z M 4.890625 33.769531 "/>
<path style=" stroke:none;fill-rule:evenodd;fill:rgb(87.058824%,81.960784%,67.058824%);fill-opacity:1;" d="M 36.882813 75.113281 L 43.75 80.585938 L 51.074219 71.324219 L 52.960938 72.839844 L 56.988281 67.796875 L 61.148438 62.996094 L 59.925781 62.011719 L 58.839844 61.570313 L 68.894531 48.796875 L 62.027344 43.320313 Z M 36.882813 75.113281 "/>
<path style=" stroke:none;fill-rule:evenodd;fill:rgb(87.058824%,81.960784%,67.058824%);fill-opacity:1;" d="M 39.210938 10.703125 L 41.492188 11.660156 L 54.886719 12.253906 L 56.390625 10.929688 L 56.617188 5.234375 L 57.894531 3.734375 L 58.175781 -4 L 44.054688 -4 L 34.839844 8.015625 Z M 39.210938 10.703125 "/>
<path style=" stroke:none;fill-rule:evenodd;fill:rgb(81.960784%,81.568627%,80.392157%);fill-opacity:1;" d="M 49.101563 88.132813 L 51.328125 90.035156 L 70.59375 66.386719 L 68.144531 64.839844 Z M 49.101563 88.132813 "/>
<path style="fill:none;stroke-width:1;stroke-linecap:round;stroke-linejoin:round;stroke:rgb(81.960784%,81.960784%,81.960784%);stroke-opacity:1;stroke-miterlimit:10;" d="M 49.101563 88.132813 L 51.328125 90.035156 L 70.59375 66.386719 L 68.144531 64.839844 L 49.101563 88.132813 "/>
<path style="fill:none;stroke-width:1;stroke-linecap:round;stroke-linejoin:round;stroke:rgb(100%,100%,100%);stroke-opacity:1;stroke-dasharray:2,3;stroke-miterlimit:10;" d="M 24.4375 2.734375 L 22.820313 4.78125 "/>
<path style="fill:none;stroke-width:1;stroke-linecap:round;stroke-linejoin:round;stroke:rgb(100%,100%,100%);stroke-opacity:1;stroke-dasharray:2,3;stroke-miterlimit:10;" d="M 44.804688 84.363281 L 48.667969 87.457031 "/>
<path style="fill:none;stroke-width:1;stroke-linecap:round;stroke-linejoin:round;stroke:rgb(100%,100%,100%);stroke-opacity:1;stroke-dasharray:2,3;stroke-miterlimit:10;" d="M 18.054688 -1.996094 L 19.328125 0.613281 L 18.320313 2.898438 "/>
<path style="fill:none;stroke-width:1;stroke-linecap:round;stroke-linejoin:round;stroke:rgb(100%,100%,100%);stroke-opacity:1;stroke-dasharray:2,3;stroke-miterlimit:10;" d="M 66.09375 13.980469 L 63.695313 12.109375 L 61.554688 9.832031 L 59.226563 6.535156 "/>
<path style="fill:none;stroke-width:1;stroke-linecap:round;stroke-linejoin:round;stroke:rgb(100%,100%,100%);stroke-opacity:1;stroke-dasharray:2,3;stroke-miterlimit:10;" d="M 84.332031 4.03125 L 89.742188 -2 "/>
<path style="fill:none;stroke-width:1;stroke-linecap:round;stroke-linejoin:round;stroke:rgb(100%,100%,100%);stroke-opacity:1;stroke-dasharray:2,3;stroke-miterlimit:10;" d="M 43.675781 57.1875 L 47.828125 51.386719 L 50.65625 47.957031 L 53.347656 45.527344 L 56.773438 43.609375 L 60.363281 42.265625 "/>
<path style="fill:none;stroke-width:1;stroke-linecap:round;stroke-linejoin:round;stroke:rgb(100%,100%,100%);stroke-opacity:1;stroke-dasharray:2,3;stroke-miterlimit:10;" d="M 21.023438 26.929688 L 14.261719 28 L 10.101563 29.601563 L 6.5 31.875 L 4.890625 33.769531 L 5.070313 30.894531 L 4.679688 28.90625 L 3.882813 25.867188 L 1.902344 22.027344 L -0.65625 17.933594 "/>
<path style="fill:none;stroke-width:1;stroke-linecap:round;stroke-linejoin:round;stroke:rgb(100%,100%,100%);stroke-opacity:1;stroke-dasharray:2,3;stroke-miterlimit:10;" d="M 118.382813 3.46875 L 113.074219 -1.46875 L 112.503906 -2 "/>
<path style="fill:none;stroke-width:1;stroke-linecap:round;stroke-linejoin:round;stroke:rgb(100%,100%,100%);stroke-opacity:1;stroke-dasharray:2,3;stroke-miterlimit:10;" d="M 33.246094 71.394531 L 38.9375 65.757813 L 41.734375 61.441406 L 43.675781 57.1875 L 44.207031 51.660156 L 43.960938 48.253906 L 43.15625 43.457031 L 41.457031 39.210938 L 39.652344 36.628906 "/>
<path style="fill:none;stroke-width:1;stroke-linecap:round;stroke-linejoin:round;stroke:rgb(100%,100%,100%);stroke-opacity:1;stroke-dasharray:2,3;stroke-miterlimit:10;" d="M 94.816406 -2 L 108.347656 10.605469 L 110.890625 12.980469 "/>
<path style="fill:none;stroke-width:1;stroke-linecap:round;stroke-linejoin:round;stroke:rgb(100%,100%,100%);stroke-opacity:1;stroke-dasharray:2,3;stroke-miterlimit:10;" d="M 41.679688 88.3125 L 44.804688 84.363281 L 73.886719 47.617188 "/>
<path style="fill:none;stroke-width:1;stroke-linecap:round;stroke-linejoin:round;stroke:rgb(100%,100%,100%);stroke-opacity:1;stroke-dasharray:2,3;stroke-miterlimit:10;" d="M 55.679688 13.554688 L 57.398438 11.683594 L 58.316406 10.136719 L 59.226563 6.535156 L 59.597656 5.070313 L 60.25 -2 M 84.554688 -2 L 84.332031 4.03125 L 81.949219 9.589844 L 79.679688 11.363281 L 76.394531 12.894531 L 73.234375 13.890625 L 70.363281 14.382813 "/>
<path style="fill:none;stroke-width:1;stroke-linecap:round;stroke-linejoin:round;stroke:rgb(100%,100%,100%);stroke-opacity:1;stroke-dasharray:2,3;stroke-miterlimit:10;" d="M 108.347656 10.605469 L 102.222656 18.03125 L 98.289063 20.1875 L 96.023438 20.5625 L 83.707031 16.167969 L 77.667969 14.957031 L 70.363281 14.382813 L 66.09375 13.980469 L 55.679688 13.554688 L 48.160156 13.15625 L 42.621094 12.40625 L 37.996094 11.304688 L 35.511719 9.949219 L 32.546875 7.585938 L 30.421875 5.847656 "/>
<path style="fill:none;stroke-width:1;stroke-linecap:round;stroke-linejoin:round;stroke:rgb(100%,100%,100%);stroke-opacity:1;stroke-dasharray:2,3;stroke-miterlimit:10;" d="M -2 17.21875 L -0.65625 17.933594 L 9.371094 22.289063 L 21.023438 26.929688 L 25.660156 27.585938 L 29.074219 28.570313 L 32.839844 30.390625 L 35.90625 32.535156 L 39.652344 36.628906 L 43.675781 38.25 L 51.550781 40.875 L 58.425781 41.753906 L 60.363281 42.265625 L 62.675781 42.875 L 67.675781 44 L 73.886719 47.617188 L 76.691406 47.757813 L 81.996094 46.71875 "/>
<path style="fill:none;stroke-width:8;stroke-linecap:round;stroke-linejoin:round;stroke:rgb(75.686275%,70.980392%,61.568627%);stroke-opacity:1;stroke-miterlimit:10;" d="M 86.515625 70.042969 L 79.648438 72.234375 "/>
<path style="fill:none;stroke-width:8;stroke-linecap:round;stroke-linejoin:round;stroke:rgb(75.686275%,70.980392%,61.568627%);stroke-opacity:1;stroke-miterlimit:10;" d="M 124.488281 99.328125 L 135.464844 92.207031 "/>
<path style="fill:none;stroke-width:8;stroke-linecap:round;stroke-linejoin:round;stroke:rgb(75.686275%,70.980392%,61.568627%);stroke-opacity:1;stroke-miterlimit:10;" d="M 79.648438 72.234375 L 69.773438 78.433594 L 68.441406 77.539063 "/>
<path style="fill:none;stroke-width:8;stroke-linecap:round;stroke-linejoin:round;stroke:rgb(75.686275%,70.980392%,61.568627%);stroke-opacity:1;stroke-miterlimit:10;" d="M 99.070313 63.222656 L 95.109375 68.347656 L 95.003906 70.007813 L 102.832031 76.160156 "/>
<path style="fill:none;stroke-width:8;stroke-linecap:round;stroke-linejoin:round;stroke:rgb(75.686275%,70.980392%,61.568627%);stroke-opacity:1;stroke-miterlimit:10;" d="M 115.65625 75.113281 L 119.195313 78.136719 L 123.261719 81.613281 L 127.402344 85.15625 L 131.789063 88.902344 "/>
<path style="fill:none;stroke-width:8;stroke-linecap:round;stroke-linejoin:round;stroke:rgb(75.686275%,70.980392%,61.568627%);stroke-opacity:1;stroke-miterlimit:10;" d="M 96.839844 110.320313 L 78.230469 121.695313 "/>
<path style="fill:none;stroke-width:8;stroke-linecap:round;stroke-linejoin:round;stroke:rgb(75.686275%,70.980392%,61.568627%);stroke-opacity:1;stroke-miterlimit:10;" d="M 87.757813 85.132813 L 66.792969 98.296875 "/>
<path style="fill:none;stroke-width:8;stroke-linecap:round;stroke-linejoin:round;stroke:rgb(75.686275%,70.980392%,61.568627%);stroke-opacity:1;stroke-miterlimit:10;" d="M 93.320313 94.011719 L 71.328125 107.574219 "/>
<path style="fill:none;stroke-width:8;stroke-linecap:round;stroke-linejoin:round;stroke:rgb(75.686275%,70.980392%,61.568627%);stroke-opacity:1;stroke-miterlimit:10;" d="M 76.988281 68.007813 L 72.457031 72.28125 L 68.441406 77.539063 L 63.117188 84.507813 L 62.269531 89.042969 "/>
<path style="fill:none;stroke-width:8;stroke-linecap:round;stroke-linejoin:round;stroke:rgb(75.686275%,70.980392%,61.568627%);stroke-opacity:1;stroke-miterlimit:10;" d="M 96.105469 98.472656 L 73.597656 112.214844 "/>
<path style="fill:none;stroke-width:8;stroke-linecap:round;stroke-linejoin:round;stroke:rgb(75.686275%,70.980392%,61.568627%);stroke-opacity:1;stroke-miterlimit:10;" d="M 110.636719 71.511719 L 102.832031 76.160156 L 98.203125 78.914063 L 87.757813 85.132813 "/>
<path style="fill:none;stroke-width:8;stroke-linecap:round;stroke-linejoin:round;stroke:rgb(75.686275%,70.980392%,61.568627%);stroke-opacity:1;stroke-miterlimit:10;" d="M 98.769531 102.75 L 75.855469 116.835938 "/>
<path style="fill:none;stroke-width:8;stroke-linecap:round;stroke-linejoin:round;stroke:rgb(75.686275%,70.980392%,61.568627%);stroke-opacity:1;stroke-miterlimit:10;" d="M 95.191406 60.441406 L 86.515625 70.042969 L 89.609375 72.394531 L 93.792969 75.566406 L 98.203125 78.914063 "/>
<path style="fill:none;stroke-width:8;stroke-linecap:round;stroke-linejoin:round;stroke:rgb(75.686275%,70.980392%,61.568627%);stroke-opacity:1;stroke-miterlimit:10;" d="M 119.195313 78.136719 L 93.320313 94.011719 "/>
<path style="fill:none;stroke-width:8;stroke-linecap:round;stroke-linejoin:round;stroke:rgb(75.686275%,70.980392%,61.568627%);stroke-opacity:1;stroke-miterlimit:10;" d="M 123.261719 81.613281 L 96.105469 98.472656 "/>
<path style="fill:none;stroke-width:8;stroke-linecap:round;stroke-linejoin:round;stroke:rgb(75.686275%,70.980392%,61.568627%);stroke-opacity:1;stroke-miterlimit:10;" d="M 62.269531 89.042969 L 82.183594 76.269531 L 89.609375 72.394531 "/>
<path style="fill:none;stroke-width:8;stroke-linecap:round;stroke-linejoin:round;stroke:rgb(75.686275%,70.980392%,61.568627%);stroke-opacity:1;stroke-miterlimit:10;" d="M 95.011719 53.734375 L 93.796875 57.964844 L 94.46875 59.921875 L 99.070313 63.222656 L 110.636719 71.511719 L 115.65625 75.113281 "/>
<path style="fill:none;stroke-width:8;stroke-linecap:round;stroke-linejoin:round;stroke:rgb(75.686275%,70.980392%,61.568627%);stroke-opacity:1;stroke-miterlimit:10;" d="M 127.402344 85.15625 L 98.769531 102.75 "/>
<path style="fill:none;stroke-width:8;stroke-linecap:round;stroke-linejoin:round;stroke:rgb(75.686275%,70.980392%,61.568627%);stroke-opacity:1;stroke-miterlimit:10;" d="M 64.484375 93.574219 L 85.039063 80.808594 L 93.792969 75.566406 "/>
<path style="fill:none;stroke-width:8;stroke-linecap:round;stroke-linejoin:round;stroke:rgb(75.686275%,70.980392%,61.568627%);stroke-opacity:1;stroke-miterlimit:10;" d="M 131.789063 88.902344 L 135.464844 92.207031 L 139.226563 95.59375 L 127.75 103.402344 L 124.488281 99.328125 L 120.921875 100.652344 L 118.152344 96.480469 "/>
<path style="fill:none;stroke-width:8;stroke-linecap:round;stroke-linejoin:round;stroke:rgb(75.686275%,70.980392%,61.568627%);stroke-opacity:1;stroke-miterlimit:10;" d="M 73.734375 62.832031 L 76.988281 68.007813 L 79.648438 72.234375 L 82.183594 76.269531 L 85.039063 80.808594 L 87.757813 85.132813 L 90.496094 89.480469 L 93.320313 94.011719 L 96.105469 98.472656 L 98.769531 102.75 L 101.558594 107.230469 "/>
<path style="fill:none;stroke-width:8;stroke-linecap:round;stroke-linejoin:round;stroke:rgb(75.686275%,70.980392%,61.568627%);stroke-opacity:1;stroke-miterlimit:10;" d="M 118.6875 71.195313 L 115.65625 75.113281 L 114.125 75.238281 L 90.496094 89.480469 L 69.101563 103.015625 "/>
<path style="fill:none;stroke-width:8;stroke-linecap:round;stroke-linejoin:round;stroke:rgb(75.686275%,70.980392%,61.568627%);stroke-opacity:1;stroke-miterlimit:10;" d="M 58.9375 82.234375 L 62.269531 89.042969 L 64.484375 93.574219 L 66.792969 98.296875 L 69.101563 103.015625 L 71.328125 107.574219 L 73.597656 112.214844 L 75.855469 116.835938 L 78.230469 121.695313 L 80.574219 126.484375 L 99.761719 114.769531 L 96.839844 110.320313 L 101.558594 107.230469 L 118.152344 96.480469 L 130.121094 89.535156 L 131.789063 88.902344 L 134.914063 84.925781 "/>
<path style="fill:none;stroke-width:8;stroke-linecap:round;stroke-linejoin:round;stroke:rgb(75.686275%,70.980392%,61.568627%);stroke-opacity:1;stroke-miterlimit:10;" d="M -9 5.5 L -6.863281 6.828125 L -0.296875 11.25 L 2.179688 12.664063 L 7.101563 15.144531 L 18.894531 20.523438 L 42.664063 30.902344 L 51.898438 34.945313 L 62.792969 38.367188 "/>
<path style="fill:none;stroke-width:9;stroke-linecap:round;stroke-linejoin:round;stroke:rgb(75.686275%,70.980392%,61.568627%);stroke-opacity:1;stroke-miterlimit:10;" d="M 114.554688 27.535156 L 110.042969 25.378906 L 105.042969 25.378906 L 99.515625 27.410156 "/>
<path style="fill:none;stroke-width:10;stroke-linecap:round;stroke-linejoin:round;stroke:rgb(72.941176%,43.137255%,15.294118%);stroke-opacity:1;stroke-miterlimit:10;" d="M 64.578125 39.203125 L 80.910156 46.277344 L 81.996094 46.71875 L 84.121094 47.167969 "/>
<path style="fill:none;stroke-width:10;stroke-linecap:round;stroke-linejoin:round;stroke:rgb(72.941176%,43.137255%,15.294118%);stroke-opacity:1;stroke-miterlimit:10;" d="M 64.578125 39.203125 L 75.152344 45.375 L 76.015625 46.441406 L 76.691406 47.757813 L 76.984375 49.585938 L 76.953125 51.332031 L 76.28125 54.046875 "/>
<path style="fill:none;stroke-width:10;stroke-linecap:round;stroke-linejoin:round;stroke:rgb(72.941176%,43.137255%,15.294118%);stroke-opacity:1;stroke-miterlimit:10;" d="M 112.371094 65.851563 L 121.9375 69.824219 L 129.601563 72.339844 L 135.417969 75.476563 L 139.949219 78.324219 L 155.695313 91.5625 "/>
<path style="fill:none;stroke-width:10;stroke-linecap:round;stroke-linejoin:round;stroke:rgb(72.941176%,43.137255%,15.294118%);stroke-opacity:1;stroke-miterlimit:10;" d="M 17.484375 16.136719 L 25.394531 21.167969 L 62.792969 38.367188 L 64.578125 39.203125 "/>
<path style="fill:none;stroke-width:10;stroke-linecap:round;stroke-linejoin:round;stroke:rgb(72.941176%,43.137255%,15.294118%);stroke-opacity:1;stroke-miterlimit:10;" d="M 160.195313 89.570313 L 143.996094 71.96875 L 139.054688 66.242188 L 135.195313 60.875 L 130.886719 51.980469 L 125.796875 42.355469 "/>
<path style="fill:none;stroke-width:10;stroke-linecap:round;stroke-linejoin:round;stroke:rgb(72.941176%,43.137255%,15.294118%);stroke-opacity:1;stroke-miterlimit:10;" d="M 106.792969 18.128906 L 102.464844 20.640625 L 99.042969 22.628906 L 93.296875 24.628906 L 81.503906 25.511719 L 72.792969 24.765625 L 64.59375 23.769531 L 56.59375 22.167969 L 47.109375 20.167969 L 36.265625 17.167969 L 24.640625 13.261719 L 14.203125 10.792969 "/>
<path style="fill:none;stroke-width:8;stroke-linecap:round;stroke-linejoin:round;stroke:rgb(75.686275%,70.980392%,61.568627%);stroke-opacity:1;stroke-miterlimit:10;" d="M 229.84375 110.761719 L 227.15625 113.164063 L 224.339844 115.683594 "/>
<path style="fill:none;stroke-width:8;stroke-linecap:round;stroke-linejoin:round;stroke:rgb(75.686275%,70.980392%,61.568627%);stroke-opacity:1;stroke-miterlimit:10;" d="M 229.84375 110.761719 L 225.835938 111.664063 L 221.03125 112.742188 "/>
<path style="fill:none;stroke-width:8;stroke-linecap:round;stroke-linejoin:round;stroke:rgb(75.686275%,70.980392%,61.568627%);stroke-opacity:1;stroke-miterlimit:10;" d="M 229.84375 110.761719 L 246.246094 123.894531 "/>
<path style="fill:none;stroke-width:8;stroke-linecap:round;stroke-linejoin:round;stroke:rgb(75.686275%,70.980392%,61.568627%);stroke-opacity:1;stroke-miterlimit:10;" d="M 249.40625 152.277344 L 230.238281 163.695313 "/>
<path style="fill:none;stroke-width:8;stroke-linecap:round;stroke-linejoin:round;stroke:rgb(75.686275%,70.980392%,61.568627%);stroke-opacity:1;stroke-miterlimit:10;" d="M 246.246094 123.894531 L 263.769531 137.859375 "/>
<path style="fill:none;stroke-width:8;stroke-linecap:round;stroke-linejoin:round;stroke:rgb(75.686275%,70.980392%,61.568627%);stroke-opacity:1;stroke-miterlimit:10;" d="M 179.207031 100.113281 L 198.871094 88.027344 "/>
<path style="fill:none;stroke-width:8;stroke-linecap:round;stroke-linejoin:round;stroke:rgb(75.686275%,70.980392%,61.568627%);stroke-opacity:1;stroke-miterlimit:10;" d="M 221.03125 112.742188 L 201.273438 125.246094 "/>
<path style="fill:none;stroke-width:8;stroke-linecap:round;stroke-linejoin:round;stroke:rgb(75.686275%,70.980392%,61.568627%);stroke-opacity:1;stroke-miterlimit:10;" d="M 179.207031 100.113281 L 201.273438 125.246094 "/>
<path style="fill:none;stroke-width:8;stroke-linecap:round;stroke-linejoin:round;stroke:rgb(75.686275%,70.980392%,61.568627%);stroke-opacity:1;stroke-miterlimit:10;" d="M 216.632813 144.425781 L 236.964844 131.652344 L 240.191406 128.957031 L 246.246094 123.894531 "/>
<path style="fill:none;stroke-width:8;stroke-linecap:round;stroke-linejoin:round;stroke:rgb(75.686275%,70.980392%,61.568627%);stroke-opacity:1;stroke-miterlimit:10;" d="M 155.050781 72.84375 L 179.207031 100.113281 "/>
<path style="fill:none;stroke-width:8;stroke-linecap:round;stroke-linejoin:round;stroke:rgb(75.686275%,70.980392%,61.568627%);stroke-opacity:1;stroke-miterlimit:10;" d="M 200.296875 155.960938 L 169.152344 175.324219 "/>
<path style="fill:none;stroke-width:8;stroke-linecap:round;stroke-linejoin:round;stroke:rgb(75.686275%,70.980392%,61.568627%);stroke-opacity:1;stroke-miterlimit:10;" d="M 264 224.964844 L 246.433594 235.375 "/>
<path style="fill:none;stroke-width:8;stroke-linecap:round;stroke-linejoin:round;stroke:rgb(75.686275%,70.980392%,61.568627%);stroke-opacity:1;stroke-miterlimit:10;" d="M 246.246094 123.894531 L 264 101.613281 "/>
<path style="fill:none;stroke-width:8;stroke-linecap:round;stroke-linejoin:round;stroke:rgb(75.686275%,70.980392%,61.568627%);stroke-opacity:1;stroke-miterlimit:10;" d="M 212.785156 173.820313 L 146.75 217.085938 "/>
<path style="fill:none;stroke-width:8;stroke-linecap:round;stroke-linejoin:round;stroke:rgb(75.686275%,70.980392%,61.568627%);stroke-opacity:1;stroke-miterlimit:10;" d="M 235.972656 212.421875 L 153.113281 261.199219 "/>
<path style="fill:none;stroke-width:8;stroke-linecap:round;stroke-linejoin:round;stroke:rgb(75.686275%,70.980392%,61.568627%);stroke-opacity:1;stroke-miterlimit:10;" d="M 85.632813 47.949219 L 73.734375 62.832031 L 58.9375 82.234375 L 50.753906 93.136719 L 48.207031 91.167969 L 47.800781 88.550781 L 48.667969 87.457031 L 66.546875 64.914063 L 72.289063 58.503906 L 76.28125 54.046875 L 81.996094 46.71875 "/>
<path style="fill:none;stroke-width:8;stroke-linecap:round;stroke-linejoin:round;stroke:rgb(75.686275%,70.980392%,61.568627%);stroke-opacity:1;stroke-miterlimit:10;" d="M 201.273438 125.246094 L 216.632813 144.425781 L 230.238281 163.695313 L 242.796875 183.609375 L 253.960938 203.25 L 263.933594 225.003906 "/>
<path style="fill:none;stroke-width:8;stroke-linecap:round;stroke-linejoin:round;stroke:rgb(75.686275%,70.980392%,61.568627%);stroke-opacity:1;stroke-miterlimit:10;" d="M 246.433594 235.375 L 254.191406 256.117188 L 257.066406 264 "/>
<path style="fill:none;stroke-width:8;stroke-linecap:round;stroke-linejoin:round;stroke:rgb(75.686275%,70.980392%,61.568627%);stroke-opacity:1;stroke-miterlimit:10;" d="M 169.707031 119.265625 L 163.421875 123.5625 L 149.722656 132.03125 L 126.449219 146.792969 L 124.230469 149.144531 L 121.886719 151.367188 L 98.457031 166.375 L 97.132813 168.214844 L 93.773438 171.472656 L 92.261719 172.796875 L 90.679688 174.734375 L 90.320313 176.347656 L 90.292969 177.476563 L 91.128906 179.253906 L 92.453125 180.898438 L 95.96875 183.089844 L 99.296875 184.125 L 103.75 184.027344 L 105.105469 183.578125 L 110.71875 181.1875 L 120.691406 173.667969 L 125.210938 171.054688 L 127.503906 169.859375 L 136.25 166.277344 L 142.089844 162.757813 L 145.253906 161.53125 L 148.160156 160.757813 L 150.289063 159.371094 "/>
<path style="fill:none;stroke-width:8;stroke-linecap:round;stroke-linejoin:round;stroke:rgb(75.686275%,70.980392%,61.568627%);stroke-opacity:1;stroke-miterlimit:10;" d="M 138.164063 15.472656 L 157.484375 -9 "/>
<path style="fill:none;stroke-width:8;stroke-linecap:round;stroke-linejoin:round;stroke:rgb(75.686275%,70.980392%,61.568627%);stroke-opacity:1;stroke-miterlimit:10;" d="M 184.539063 -9 L 152.277344 31.121094 L 149.71875 34.308594 "/>
<path style="fill:none;stroke-width:8;stroke-linecap:round;stroke-linejoin:round;stroke:rgb(75.686275%,70.980392%,61.568627%);stroke-opacity:1;stroke-miterlimit:10;" d="M 240.960938 -9 L 218.144531 19.867188 L 181.796875 63.621094 L 179.121094 66.839844 "/>
<path style="fill:none;stroke-width:8;stroke-linecap:round;stroke-linejoin:round;stroke:rgb(75.686275%,70.980392%,61.568627%);stroke-opacity:1;stroke-miterlimit:10;" d="M 264 67.597656 L 229.84375 110.761719 "/>
<path style="fill:none;stroke-width:8;stroke-linecap:round;stroke-linejoin:round;stroke:rgb(75.686275%,70.980392%,61.568627%);stroke-opacity:1;stroke-miterlimit:10;" d="M 194.089844 82.964844 L 196.878906 79.550781 L 233.945313 34.167969 L 261.339844 -0.660156 L 264 -4.003906 "/>
<path style="fill:none;stroke-width:8;stroke-linecap:round;stroke-linejoin:round;stroke:rgb(75.686275%,70.980392%,61.568627%);stroke-opacity:1;stroke-miterlimit:10;" d="M 112.371094 65.851563 L 118.6875 71.195313 L 134.914063 84.925781 L 150.914063 99.582031 L 169.707031 119.265625 L 171.054688 120.671875 L 200.296875 155.960938 L 212.785156 173.820313 L 235.972656 212.421875 L 246.433594 235.375 "/>
<path style="fill:none;stroke-width:8;stroke-linecap:round;stroke-linejoin:round;stroke:rgb(75.686275%,70.980392%,61.568627%);stroke-opacity:1;stroke-miterlimit:10;" d="M 242.796875 183.609375 L 261.902344 172.058594 L 264 169.824219 "/>
<path style="fill:none;stroke-width:8;stroke-linecap:round;stroke-linejoin:round;stroke:rgb(75.686275%,70.980392%,61.568627%);stroke-opacity:1;stroke-miterlimit:10;" d="M 264 197.117188 L 253.960938 203.25 "/>
<path style="fill:none;stroke-width:8;stroke-linecap:round;stroke-linejoin:round;stroke:rgb(75.686275%,70.980392%,61.568627%);stroke-opacity:1;stroke-miterlimit:10;" d="M 264 31.839844 L 250.511719 48.894531 L 212.269531 96.671875 L 209.683594 99.902344 "/>
<path style="fill:none;stroke-width:8;stroke-linecap:round;stroke-linejoin:round;stroke:rgb(75.686275%,70.980392%,61.568627%);stroke-opacity:1;stroke-miterlimit:10;" d="M 212.769531 -9 L 201.789063 4.953125 L 167.628906 47.792969 L 164.875 51.242188 "/>
<path style="fill:none;stroke-width:8;stroke-linecap:round;stroke-linejoin:round;stroke:rgb(75.686275%,70.980392%,61.568627%);stroke-opacity:1;stroke-miterlimit:10;" d="M 28.6875 6.441406 L 27.1875 6.246094 L 25.4375 5.871094 L 22.820313 4.78125 L 18.320313 2.898438 L 9.082031 -0.964844 L 3.3125 -3.378906 L -0.957031 -6.820313 L -3.65625 -9 "/>
<path style="fill:none;stroke-width:8;stroke-linecap:round;stroke-linejoin:round;stroke:rgb(75.686275%,70.980392%,61.568627%);stroke-opacity:1;stroke-miterlimit:10;" d="M 263.769531 137.859375 L 252.679688 148.992188 L 249.40625 152.277344 "/>
<path style="fill:none;stroke-width:8;stroke-linecap:round;stroke-linejoin:round;stroke:rgb(75.686275%,70.980392%,61.568627%);stroke-opacity:1;stroke-miterlimit:10;" d="M 233.945313 34.167969 L 250.511719 48.894531 L 264 59.625 "/>
<path style="fill:none;stroke-width:8;stroke-linecap:round;stroke-linejoin:round;stroke:rgb(75.686275%,70.980392%,61.568627%);stroke-opacity:1;stroke-miterlimit:10;" d="M 186.378906 -9 L 201.789063 4.953125 L 218.144531 19.867188 L 233.945313 34.167969 "/>
<path style="fill:none;stroke-width:8;stroke-linecap:round;stroke-linejoin:round;stroke:rgb(75.686275%,70.980392%,61.568627%);stroke-opacity:1;stroke-miterlimit:10;" d="M 43.324219 -9 L 31.714844 5.402344 L 30.421875 5.847656 L 28.6875 6.441406 "/>
<path style="fill:none;stroke-width:9;stroke-linecap:round;stroke-linejoin:round;stroke:rgb(75.686275%,70.980392%,61.568627%);stroke-opacity:1;stroke-miterlimit:10;" d="M 194.089844 82.964844 L 198.871094 88.027344 "/>
<path style="fill:none;stroke-width:9;stroke-linecap:round;stroke-linejoin:round;stroke:rgb(75.686275%,70.980392%,61.568627%);stroke-opacity:1;stroke-miterlimit:10;" d="M 207.066406 90.855469 L 202.28125 85.492188 "/>
<path style="fill:none;stroke-width:9;stroke-linecap:round;stroke-linejoin:round;stroke:rgb(75.686275%,70.980392%,61.568627%);stroke-opacity:1;stroke-miterlimit:10;" d="M 202.28125 85.492188 L 196.878906 79.550781 "/>
<path style="fill:none;stroke-width:9;stroke-linecap:round;stroke-linejoin:round;stroke:rgb(75.686275%,70.980392%,61.568627%);stroke-opacity:1;stroke-miterlimit:10;" d="M 144.816406 22.84375 L 138.164063 15.472656 L 136.875 14.027344 "/>
<path style="fill:none;stroke-width:9;stroke-linecap:round;stroke-linejoin:round;stroke:rgb(75.686275%,70.980392%,61.568627%);stroke-opacity:1;stroke-miterlimit:10;" d="M 114.554688 27.535156 L 106.792969 18.128906 "/>
<path style="fill:none;stroke-width:9;stroke-linecap:round;stroke-linejoin:round;stroke:rgb(75.686275%,70.980392%,61.568627%);stroke-opacity:1;stroke-miterlimit:10;" d="M 125.796875 42.355469 L 114.554688 27.535156 "/>
<path style="fill:none;stroke-width:9;stroke-linecap:round;stroke-linejoin:round;stroke:rgb(75.686275%,70.980392%,61.568627%);stroke-opacity:1;stroke-miterlimit:10;" d="M 136.875 14.027344 L 126.375 2.261719 L 121.46875 -0.535156 "/>
<path style="fill:none;stroke-width:9;stroke-linecap:round;stroke-linejoin:round;stroke:rgb(75.686275%,70.980392%,61.568627%);stroke-opacity:1;stroke-miterlimit:10;" d="M 225.835938 111.664063 L 212.269531 96.671875 L 207.066406 90.855469 "/>
<path style="fill:none;stroke-width:9;stroke-linecap:round;stroke-linejoin:round;stroke:rgb(75.686275%,70.980392%,61.568627%);stroke-opacity:1;stroke-miterlimit:10;" d="M 198.871094 88.027344 L 209.683594 99.902344 L 221.03125 112.742188 "/>
<path style="fill:none;stroke-width:9;stroke-linecap:round;stroke-linejoin:round;stroke:rgb(75.686275%,70.980392%,61.568627%);stroke-opacity:1;stroke-miterlimit:10;" d="M 84.121094 47.167969 L 85.632813 47.949219 L 95.011719 53.734375 L 102.542969 58.378906 L 112.371094 65.851563 "/>
<path style="fill:none;stroke-width:9;stroke-linecap:round;stroke-linejoin:round;stroke:rgb(75.686275%,70.980392%,61.568627%);stroke-opacity:1;stroke-miterlimit:10;" d="M 196.878906 79.550781 L 181.796875 63.621094 L 167.628906 47.792969 L 152.277344 31.121094 L 144.816406 22.84375 "/>
<path style="fill:none;stroke-width:9;stroke-linecap:round;stroke-linejoin:round;stroke:rgb(75.686275%,70.980392%,61.568627%);stroke-opacity:1;stroke-miterlimit:10;" d="M 121.46875 -0.535156 L 122.859375 4.761719 L 149.71875 34.308594 L 164.875 51.242188 L 179.121094 66.839844 L 194.089844 82.964844 "/>
<path style="fill:none;stroke-width:9;stroke-linecap:round;stroke-linejoin:round;stroke:rgb(75.686275%,70.980392%,61.568627%);stroke-opacity:1;stroke-miterlimit:10;" d="M 265 170.234375 L 264.433594 169.363281 L 252.679688 148.992188 L 240.191406 128.957031 L 235.839844 123.246094 L 227.15625 113.164063 L 225.835938 111.664063 "/>
<path style="fill:none;stroke-width:9;stroke-linecap:round;stroke-linejoin:round;stroke:rgb(75.686275%,70.980392%,61.568627%);stroke-opacity:1;stroke-miterlimit:10;" d="M 221.03125 112.742188 L 224.339844 115.683594 L 236.964844 131.652344 L 249.40625 152.277344 L 261.902344 172.058594 L 265 176.980469 "/>
<path style="fill:none;stroke-width:10;stroke-linecap:round;stroke-linejoin:round;stroke:rgb(75.686275%,70.980392%,61.568627%);stroke-opacity:1;stroke-miterlimit:10;" d="M 106.792969 18.128906 L 110.890625 12.980469 L 118.382813 3.46875 L 121.46875 -0.535156 "/>
<path style="fill:none;stroke-width:10;stroke-linecap:round;stroke-linejoin:round;stroke:rgb(75.686275%,70.980392%,61.568627%);stroke-opacity:1;stroke-miterlimit:10;" d="M 84.121094 47.167969 L 99.515625 27.410156 L 106.792969 18.128906 "/>
<path style="fill:none;stroke-width:11;stroke-linecap:round;stroke-linejoin:round;stroke:rgb(72.941176%,43.137255%,15.294118%);stroke-opacity:1;stroke-miterlimit:10;" d="M 254.878906 223.429688 L 249.867188 212.601563 L 245.496094 203.9375 L 239.117188 191.828125 L 232.339844 180.515625 L 225.480469 169.929688 L 217.859375 159.019531 L 209.839844 147.789063 L 201.578125 137.402344 L 193.515625 127.136719 L 185.496094 117.390625 L 177.355469 108.003906 L 160.195313 89.570313 L 150.644531 80.488281 L 140.65625 71.46875 L 131.070313 63.003906 L 120.804688 55.101563 L 109.992188 48.167969 L 98.792969 42.167969 L 94.796875 40.128906 "/>
<path style="fill:none;stroke-width:11;stroke-linecap:round;stroke-linejoin:round;stroke:rgb(72.941176%,43.137255%,15.294118%);stroke-opacity:1;stroke-miterlimit:10;" d="M 87.070313 36.367188 L 83.59375 34.769531 L 74.59375 31.167969 L 62.394531 26.96875 L 52.394531 23.769531 L 39.515625 20.105469 L 26.234375 15.730469 L 14.203125 10.792969 L 3.546875 5.324219 L -7.984375 -1.332031 L -12 -3.984375 "/>
<path style="fill:none;stroke-width:11;stroke-linecap:round;stroke-linejoin:round;stroke:rgb(72.941176%,43.137255%,15.294118%);stroke-opacity:1;stroke-miterlimit:10;" d="M -12 0.285156 L -9.515625 2.011719 L -1.859375 6.511719 L 6.109375 10.792969 L 17.484375 16.136719 L 26.328125 19.542969 L 39.554688 23.667969 L 52.554688 27.46875 L 62.355469 30.46875 L 73.355469 34.066406 L 85.546875 38.628906 "/>
<path style="fill:none;stroke-width:11;stroke-linecap:round;stroke-linejoin:round;stroke:rgb(72.941176%,43.137255%,15.294118%);stroke-opacity:1;stroke-miterlimit:10;" d="M 93.046875 42.425781 L 97.339844 44.59375 L 106.683594 49.886719 L 117.753906 57.386719 L 127.980469 65.210938 L 138.089844 73.871094 L 147.554688 82.816406 L 155.695313 91.5625 L 165.882813 101.023438 L 175.027344 111.054688 L 183.527344 120.636719 L 192.191406 130.902344 L 200.535156 141.8125 L 207.996094 151.640625 L 215.976563 162.75 L 223.433594 173.5 L 230.414063 184.328125 L 236.832031 195.195313 L 242.488281 205.703125 L 247.257813 215.128906 L 251.472656 223.914063 L 252.222656 225.890625 "/>
<path style="fill:none;stroke-width:6;stroke-linecap:round;stroke-linejoin:round;stroke:rgb(100%,100%,100%);stroke-opacity:1;stroke-miterlimit:10;" d="M 86.515625 70.042969 L 79.648438 72.234375 "/>
<path style="fill:none;stroke-width:6;stroke-linecap:round;stroke-linejoin:round;stroke:rgb(100%,100%,100%);stroke-opacity:1;stroke-miterlimit:10;" d="M 124.488281 99.328125 L 135.464844 92.207031 "/>
<path style="fill:none;stroke-width:6;stroke-linecap:round;stroke-linejoin:round;stroke:rgb(100%,100%,100%);stroke-opacity:1;stroke-miterlimit:10;" d="M 79.648438 72.234375 L 69.773438 78.433594 L 68.441406 77.539063 "/>
<path style="fill:none;stroke-width:6;stroke-linecap:round;stroke-linejoin:round;stroke:rgb(100%,100%,100%);stroke-opacity:1;stroke-miterlimit:10;" d="M 99.070313 63.222656 L 95.109375 68.347656 L 95.003906 70.007813 L 102.832031 76.160156 "/>
<path style="fill:none;stroke-width:6;stroke-linecap:round;stroke-linejoin:round;stroke:rgb(100%,100%,100%);stroke-opacity:1;stroke-miterlimit:10;" d="M 115.65625 75.113281 L 119.195313 78.136719 L 123.261719 81.613281 L 127.402344 85.15625 L 131.789063 88.902344 "/>
<path style="fill:none;stroke-width:6;stroke-linecap:round;stroke-linejoin:round;stroke:rgb(100%,100%,100%);stroke-opacity:1;stroke-miterlimit:10;" d="M 96.839844 110.320313 L 78.230469 121.695313 "/>
<path style="fill:none;stroke-width:6;stroke-linecap:round;stroke-linejoin:round;stroke:rgb(100%,100%,100%);stroke-opacity:1;stroke-miterlimit:10;" d="M 87.757813 85.132813 L 66.792969 98.296875 "/>
<path style="fill:none;stroke-width:6;stroke-linecap:round;stroke-linejoin:round;stroke:rgb(100%,100%,100%);stroke-opacity:1;stroke-miterlimit:10;" d="M 93.320313 94.011719 L 71.328125 107.574219 "/>
<path style="fill:none;stroke-width:6;stroke-linecap:round;stroke-linejoin:round;stroke:rgb(100%,100%,100%);stroke-opacity:1;stroke-miterlimit:10;" d="M 76.988281 68.007813 L 72.457031 72.28125 L 68.441406 77.539063 L 63.117188 84.507813 L 62.269531 89.042969 "/>
<path style="fill:none;stroke-width:6;stroke-linecap:round;stroke-linejoin:round;stroke:rgb(100%,100%,100%);stroke-opacity:1;stroke-miterlimit:10;" d="M 96.105469 98.472656 L 73.597656 112.214844 "/>
<path style="fill:none;stroke-width:6;stroke-linecap:round;stroke-linejoin:round;stroke:rgb(100%,100%,100%);stroke-opacity:1;stroke-miterlimit:10;" d="M 110.636719 71.511719 L 102.832031 76.160156 L 98.203125 78.914063 L 87.757813 85.132813 "/>
<path style="fill:none;stroke-width:6;stroke-linecap:round;stroke-linejoin:round;stroke:rgb(100%,100%,100%);stroke-opacity:1;stroke-miterlimit:10;" d="M 98.769531 102.75 L 75.855469 116.835938 "/>
<path style="fill:none;stroke-width:6;stroke-linecap:round;stroke-linejoin:round;stroke:rgb(100%,100%,100%);stroke-opacity:1;stroke-miterlimit:10;" d="M 95.191406 60.441406 L 86.515625 70.042969 L 89.609375 72.394531 L 93.792969 75.566406 L 98.203125 78.914063 "/>
<path style="fill:none;stroke-width:6;stroke-linecap:round;stroke-linejoin:round;stroke:rgb(100%,100%,100%);stroke-opacity:1;stroke-miterlimit:10;" d="M 119.195313 78.136719 L 93.320313 94.011719 "/>
<path style="fill:none;stroke-width:6;stroke-linecap:round;stroke-linejoin:round;stroke:rgb(100%,100%,100%);stroke-opacity:1;stroke-miterlimit:10;" d="M 123.261719 81.613281 L 96.105469 98.472656 "/>
<path style="fill:none;stroke-width:6;stroke-linecap:round;stroke-linejoin:round;stroke:rgb(100%,100%,100%);stroke-opacity:1;stroke-miterlimit:10;" d="M 62.269531 89.042969 L 82.183594 76.269531 L 89.609375 72.394531 "/>
<path style="fill:none;stroke-width:6;stroke-linecap:round;stroke-linejoin:round;stroke:rgb(100%,100%,100%);stroke-opacity:1;stroke-miterlimit:10;" d="M 95.011719 53.734375 L 93.796875 57.964844 L 94.46875 59.921875 L 99.070313 63.222656 L 110.636719 71.511719 L 115.65625 75.113281 "/>
<path style="fill:none;stroke-width:6;stroke-linecap:round;stroke-linejoin:round;stroke:rgb(100%,100%,100%);stroke-opacity:1;stroke-miterlimit:10;" d="M 127.402344 85.15625 L 98.769531 102.75 "/>
<path style="fill:none;stroke-width:6;stroke-linecap:round;stroke-linejoin:round;stroke:rgb(100%,100%,100%);stroke-opacity:1;stroke-miterlimit:10;" d="M 64.484375 93.574219 L 85.039063 80.808594 L 93.792969 75.566406 "/>
<path style="fill:none;stroke-width:6;stroke-linecap:round;stroke-linejoin:round;stroke:rgb(100%,100%,100%);stroke-opacity:1;stroke-miterlimit:10;" d="M 131.789063 88.902344 L 135.464844 92.207031 L 139.226563 95.59375 L 127.75 103.402344 L 124.488281 99.328125 L 120.921875 100.652344 L 118.152344 96.480469 "/>
<path style="fill:none;stroke-width:6;stroke-linecap:round;stroke-linejoin:round;stroke:rgb(100%,100%,100%);stroke-opacity:1;stroke-miterlimit:10;" d="M 73.734375 62.832031 L 76.988281 68.007813 L 79.648438 72.234375 L 82.183594 76.269531 L 85.039063 80.808594 L 87.757813 85.132813 L 90.496094 89.480469 L 93.320313 94.011719 L 96.105469 98.472656 L 98.769531 102.75 L 101.558594 107.230469 "/>
<path style="fill:none;stroke-width:6;stroke-linecap:round;stroke-linejoin:round;stroke:rgb(100%,100%,100%);stroke-opacity:1;stroke-miterlimit:10;" d="M 118.6875 71.195313 L 115.65625 75.113281 L 114.125 75.238281 L 90.496094 89.480469 L 69.101563 103.015625 "/>
<path style="fill:none;stroke-width:6;stroke-linecap:round;stroke-linejoin:round;stroke:rgb(100%,100%,100%);stroke-opacity:1;stroke-miterlimit:10;" d="M 58.9375 82.234375 L 62.269531 89.042969 L 64.484375 93.574219 L 66.792969 98.296875 L 69.101563 103.015625 L 71.328125 107.574219 L 73.597656 112.214844 L 75.855469 116.835938 L 78.230469 121.695313 L 80.574219 126.484375 L 99.761719 114.769531 L 96.839844 110.320313 L 101.558594 107.230469 L 118.152344 96.480469 L 130.121094 89.535156 L 131.789063 88.902344 L 134.914063 84.925781 "/>
<path style="fill:none;stroke-width:6;stroke-linecap:round;stroke-linejoin:round;stroke:rgb(100%,100%,100%);stroke-opacity:1;stroke-miterlimit:10;" d="M -9 5.5 L -6.863281 6.828125 L -0.296875 11.25 L 2.179688 12.664063 L 7.101563 15.144531 L 18.894531 20.523438 L 42.664063 30.902344 L 51.898438 34.945313 L 62.792969 38.367188 "/>
<path style="fill:none;stroke-width:7;stroke-linecap:round;stroke-linejoin:round;stroke:rgb(100%,99.215686%,54.509804%);stroke-opacity:1;stroke-miterlimit:10;" d="M 114.554688 27.535156 L 110.042969 25.378906 L 105.042969 25.378906 L 99.515625 27.410156 "/>
<path style="fill:none;stroke-width:8;stroke-linecap:round;stroke-linejoin:round;stroke:rgb(99.215686%,57.254902%,22.745098%);stroke-opacity:1;stroke-miterlimit:10;" d="M 64.578125 39.203125 L 80.910156 46.277344 L 81.996094 46.71875 L 84.121094 47.167969 "/>
<path style="fill:none;stroke-width:8;stroke-linecap:round;stroke-linejoin:round;stroke:rgb(99.215686%,57.254902%,22.745098%);stroke-opacity:1;stroke-miterlimit:10;" d="M 64.578125 39.203125 L 75.152344 45.375 L 76.015625 46.441406 L 76.691406 47.757813 L 76.984375 49.585938 L 76.953125 51.332031 L 76.28125 54.046875 "/>
<path style="fill:none;stroke-width:8;stroke-linecap:round;stroke-linejoin:round;stroke:rgb(99.215686%,57.254902%,22.745098%);stroke-opacity:1;stroke-miterlimit:10;" d="M 112.371094 65.851563 L 121.9375 69.824219 L 129.601563 72.339844 L 135.417969 75.476563 L 139.949219 78.324219 L 155.695313 91.5625 "/>
<path style="fill:none;stroke-width:8;stroke-linecap:round;stroke-linejoin:round;stroke:rgb(99.215686%,57.254902%,22.745098%);stroke-opacity:1;stroke-miterlimit:10;" d="M 17.484375 16.136719 L 25.394531 21.167969 L 62.792969 38.367188 L 64.578125 39.203125 "/>
<path style="fill:none;stroke-width:8;stroke-linecap:round;stroke-linejoin:round;stroke:rgb(99.215686%,57.254902%,22.745098%);stroke-opacity:1;stroke-miterlimit:10;" d="M 160.195313 89.570313 L 143.996094 71.96875 L 139.054688 66.242188 L 135.195313 60.875 L 130.886719 51.980469 L 125.796875 42.355469 "/>
<path style="fill:none;stroke-width:8;stroke-linecap:round;stroke-linejoin:round;stroke:rgb(99.215686%,57.254902%,22.745098%);stroke-opacity:1;stroke-miterlimit:10;" d="M 106.792969 18.128906 L 102.464844 20.640625 L 99.042969 22.628906 L 93.296875 24.628906 L 81.503906 25.511719 L 72.792969 24.765625 L 64.59375 23.769531 L 56.59375 22.167969 L 47.109375 20.167969 L 36.265625 17.167969 L 24.640625 13.261719 L 14.203125 10.792969 "/>
<path style="fill:none;stroke-width:6;stroke-linecap:round;stroke-linejoin:round;stroke:rgb(100%,100%,100%);stroke-opacity:1;stroke-miterlimit:10;" d="M 229.84375 110.761719 L 227.15625 113.164063 L 224.339844 115.683594 "/>
<path style="fill:none;stroke-width:6;stroke-linecap:round;stroke-linejoin:round;stroke:rgb(100%,100%,100%);stroke-opacity:1;stroke-miterlimit:10;" d="M 229.84375 110.761719 L 225.835938 111.664063 L 221.03125 112.742188 "/>
<path style="fill:none;stroke-width:6;stroke-linecap:round;stroke-linejoin:round;stroke:rgb(100%,100%,100%);stroke-opacity:1;stroke-miterlimit:10;" d="M 229.84375 110.761719 L 246.246094 123.894531 "/>
<path style="fill:none;stroke-width:6;stroke-linecap:round;stroke-linejoin:round;stroke:rgb(100%,100%,100%);stroke-opacity:1;stroke-miterlimit:10;" d="M 249.40625 152.277344 L 230.238281 163.695313 "/>
<path style="fill:none;stroke-width:6;stroke-linecap:round;stroke-linejoin:round;stroke:rgb(100%,100%,100%);stroke-opacity:1;stroke-miterlimit:10;" d="M 246.246094 123.894531 L 263.769531 137.859375 "/>
<path style="fill:none;stroke-width:6;stroke-linecap:round;stroke-linejoin:round;stroke:rgb(100%,100%,100%);stroke-opacity:1;stroke-miterlimit:10;" d="M 179.207031 100.113281 L 198.871094 88.027344 "/>
<path style="fill:none;stroke-width:6;stroke-linecap:round;stroke-linejoin:round;stroke:rgb(100%,100%,100%);stroke-opacity:1;stroke-miterlimit:10;" d="M 221.03125 112.742188 L 201.273438 125.246094 "/>
<path style="fill:none;stroke-width:6;stroke-linecap:round;stroke-linejoin:round;stroke:rgb(100%,100%,100%);stroke-opacity:1;stroke-miterlimit:10;" d="M 179.207031 100.113281 L 201.273438 125.246094 "/>
<path style="fill:none;stroke-width:6;stroke-linecap:round;stroke-linejoin:round;stroke:rgb(100%,100%,100%);stroke-opacity:1;stroke-miterlimit:10;" d="M 216.632813 144.425781 L 236.964844 131.652344 L 240.191406 128.957031 L 246.246094 123.894531 "/>
<path style="fill:none;stroke-width:6;stroke-linecap:round;stroke-linejoin:round;stroke:rgb(100%,100%,100%);stroke-opacity:1;stroke-miterlimit:10;" d="M 155.050781 72.84375 L 179.207031 100.113281 "/>
<path style="fill:none;stroke-width:6;stroke-linecap:round;stroke-linejoin:round;stroke:rgb(100%,100%,100%);stroke-opacity:1;stroke-miterlimit:10;" d="M 200.296875 155.960938 L 169.152344 175.324219 "/>
<path style="fill:none;stroke-width:6;stroke-linecap:round;stroke-linejoin:round;stroke:rgb(100%,100%,100%);stroke-opacity:1;stroke-miterlimit:10;" d="M 264 224.964844 L 246.433594 235.375 "/>
<path style="fill:none;stroke-width:6;stroke-linecap:round;stroke-linejoin:round;stroke:rgb(100%,100%,100%);stroke-opacity:1;stroke-miterlimit:10;" d="M 246.246094 123.894531 L 264 101.613281 "/>
<path style="fill:none;stroke-width:6;stroke-linecap:round;stroke-linejoin:round;stroke:rgb(100%,100%,100%);stroke-opacity:1;stroke-miterlimit:10;" d="M 212.785156 173.820313 L 146.75 217.085938 "/>
<path style="fill:none;stroke-width:6;stroke-linecap:round;stroke-linejoin:round;stroke:rgb(100%,100%,100%);stroke-opacity:1;stroke-miterlimit:10;" d="M 235.972656 212.421875 L 153.113281 261.199219 "/>
<path style="fill:none;stroke-width:6;stroke-linecap:round;stroke-linejoin:round;stroke:rgb(100%,100%,100%);stroke-opacity:1;stroke-miterlimit:10;" d="M 85.632813 47.949219 L 73.734375 62.832031 L 58.9375 82.234375 L 50.753906 93.136719 L 48.207031 91.167969 L 47.800781 88.550781 L 48.667969 87.457031 L 66.546875 64.914063 L 72.289063 58.503906 L 76.28125 54.046875 L 81.996094 46.71875 "/>
<path style="fill:none;stroke-width:6;stroke-linecap:round;stroke-linejoin:round;stroke:rgb(100%,100%,100%);stroke-opacity:1;stroke-miterlimit:10;" d="M 201.273438 125.246094 L 216.632813 144.425781 L 230.238281 163.695313 L 242.796875 183.609375 L 253.960938 203.25 L 263.933594 225.003906 "/>
<path style="fill:none;stroke-width:6;stroke-linecap:round;stroke-linejoin:round;stroke:rgb(100%,100%,100%);stroke-opacity:1;stroke-miterlimit:10;" d="M 246.433594 235.375 L 254.191406 256.117188 L 257.066406 264 "/>
<path style="fill:none;stroke-width:6;stroke-linecap:round;stroke-linejoin:round;stroke:rgb(100%,100%,100%);stroke-opacity:1;stroke-miterlimit:10;" d="M 169.707031 119.265625 L 163.421875 123.5625 L 149.722656 132.03125 L 126.449219 146.792969 L 124.230469 149.144531 L 121.886719 151.367188 L 98.457031 166.375 L 97.132813 168.214844 L 93.773438 171.472656 L 92.261719 172.796875 L 90.679688 174.734375 L 90.320313 176.347656 L 90.292969 177.476563 L 91.128906 179.253906 L 92.453125 180.898438 L 95.96875 183.089844 L 99.296875 184.125 L 103.75 184.027344 L 105.105469 183.578125 L 110.71875 181.1875 L 120.691406 173.667969 L 125.210938 171.054688 L 127.503906 169.859375 L 136.25 166.277344 L 142.089844 162.757813 L 145.253906 161.53125 L 148.160156 160.757813 L 150.289063 159.371094 "/>
<path style="fill:none;stroke-width:6;stroke-linecap:round;stroke-linejoin:round;stroke:rgb(100%,100%,100%);stroke-opacity:1;stroke-miterlimit:10;" d="M 138.164063 15.472656 L 157.484375 -9 "/>
<path style="fill:none;stroke-width:6;stroke-linecap:round;stroke-linejoin:round;stroke:rgb(100%,100%,100%);stroke-opacity:1;stroke-miterlimit:10;" d="M 184.539063 -9 L 152.277344 31.121094 L 149.71875 34.308594 "/>
<path style="fill:none;stroke-width:6;stroke-linecap:round;stroke-linejoin:round;stroke:rgb(100%,100%,100%);stroke-opacity:1;stroke-miterlimit:10;" d="M 240.960938 -9 L 218.144531 19.867188 L 181.796875 63.621094 L 179.121094 66.839844 "/>
<path style="fill:none;stroke-width:6;stroke-linecap:round;stroke-linejoin:round;stroke:rgb(100%,100%,100%);stroke-opacity:1;stroke-miterlimit:10;" d="M 264 67.597656 L 229.84375 110.761719 "/>
<path style="fill:none;stroke-width:6;stroke-linecap:round;stroke-linejoin:round;stroke:rgb(100%,100%,100%);stroke-opacity:1;stroke-miterlimit:10;" d="M 194.089844 82.964844 L 196.878906 79.550781 L 233.945313 34.167969 L 261.339844 -0.660156 L 264 -4.003906 "/>
<path style="fill:none;stroke-width:6;stroke-linecap:round;stroke-linejoin:round;stroke:rgb(100%,100%,100%);stroke-opacity:1;stroke-miterlimit:10;" d="M 112.371094 65.851563 L 118.6875 71.195313 L 134.914063 84.925781 L 150.914063 99.582031 L 169.707031 119.265625 L 171.054688 120.671875 L 200.296875 155.960938 L 212.785156 173.820313 L 235.972656 212.421875 L 246.433594 235.375 "/>
<path style="fill:none;stroke-width:6;stroke-linecap:round;stroke-linejoin:round;stroke:rgb(100%,100%,100%);stroke-opacity:1;stroke-miterlimit:10;" d="M 242.796875 183.609375 L 261.902344 172.058594 L 264 169.824219 "/>
<path style="fill:none;stroke-width:6;stroke-linecap:round;stroke-linejoin:round;stroke:rgb(100%,100%,100%);stroke-opacity:1;stroke-miterlimit:10;" d="M 264 197.117188 L 253.960938 203.25 "/>
<path style="fill:none;stroke-width:6;stroke-linecap:round;stroke-linejoin:round;stroke:rgb(100%,100%,100%);stroke-opacity:1;stroke-miterlimit:10;" d="M 264 31.839844 L 250.511719 48.894531 L 212.269531 96.671875 L 209.683594 99.902344 "/>
<path style="fill:none;stroke-width:6;stroke-linecap:round;stroke-linejoin:round;stroke:rgb(100%,100%,100%);stroke-opacity:1;stroke-miterlimit:10;" d="M 212.769531 -9 L 201.789063 4.953125 L 167.628906 47.792969 L 164.875 51.242188 "/>
<path style="fill:none;stroke-width:6;stroke-linecap:round;stroke-linejoin:round;stroke:rgb(100%,100%,100%);stroke-opacity:1;stroke-miterlimit:10;" d="M 28.6875 6.441406 L 27.1875 6.246094 L 25.4375 5.871094 L 22.820313 4.78125 L 18.320313 2.898438 L 9.082031 -0.964844 L 3.3125 -3.378906 L -0.957031 -6.820313 L -3.65625 -9 "/>
<path style="fill:none;stroke-width:6;stroke-linecap:round;stroke-linejoin:round;stroke:rgb(100%,99.215686%,54.509804%);stroke-opacity:1;stroke-miterlimit:10;" d="M 263.769531 137.859375 L 252.679688 148.992188 L 249.40625 152.277344 "/>
<path style="fill:none;stroke-width:6;stroke-linecap:round;stroke-linejoin:round;stroke:rgb(100%,99.215686%,54.509804%);stroke-opacity:1;stroke-miterlimit:10;" d="M 233.945313 34.167969 L 250.511719 48.894531 L 264 59.625 "/>
<path style="fill:none;stroke-width:6;stroke-linecap:round;stroke-linejoin:round;stroke:rgb(100%,99.215686%,54.509804%);stroke-opacity:1;stroke-miterlimit:10;" d="M 186.378906 -9 L 201.789063 4.953125 L 218.144531 19.867188 L 233.945313 34.167969 "/>
<path style="fill:none;stroke-width:6;stroke-linecap:round;stroke-linejoin:round;stroke:rgb(100%,99.215686%,54.509804%);stroke-opacity:1;stroke-miterlimit:10;" d="M 43.324219 -9 L 31.714844 5.402344 L 30.421875 5.847656 L 28.6875 6.441406 "/>
<path style="fill:none;stroke-width:7;stroke-linecap:round;stroke-linejoin:round;stroke:rgb(100%,99.215686%,54.509804%);stroke-opacity:1;stroke-miterlimit:10;" d="M 194.089844 82.964844 L 198.871094 88.027344 "/>
<path style="fill:none;stroke-width:7;stroke-linecap:round;stroke-linejoin:round;stroke:rgb(100%,99.215686%,54.509804%);stroke-opacity:1;stroke-miterlimit:10;" d="M 207.066406 90.855469 L 202.28125 85.492188 "/>
<path style="fill:none;stroke-width:7;stroke-linecap:round;stroke-linejoin:round;stroke:rgb(100%,99.215686%,54.509804%);stroke-opacity:1;stroke-miterlimit:10;" d="M 202.28125 85.492188 L 196.878906 79.550781 "/>
<path style="fill:none;stroke-width:7;stroke-linecap:round;stroke-linejoin:round;stroke:rgb(100%,99.215686%,54.509804%);stroke-opacity:1;stroke-miterlimit:10;" d="M 144.816406 22.84375 L 138.164063 15.472656 L 136.875 14.027344 "/>
<path style="fill:none;stroke-width:7;stroke-linecap:round;stroke-linejoin:round;stroke:rgb(100%,99.215686%,54.509804%);stroke-opacity:1;stroke-miterlimit:10;" d="M 114.554688 27.535156 L 106.792969 18.128906 "/>
<path style="fill:none;stroke-width:7;stroke-linecap:round;stroke-linejoin:round;stroke:rgb(100%,99.215686%,54.509804%);stroke-opacity:1;stroke-miterlimit:10;" d="M 125.796875 42.355469 L 114.554688 27.535156 "/>
<path style="fill:none;stroke-width:7;stroke-linecap:round;stroke-linejoin:round;stroke:rgb(100%,99.215686%,54.509804%);stroke-opacity:1;stroke-miterlimit:10;" d="M 136.875 14.027344 L 126.375 2.261719 L 121.46875 -0.535156 "/>
<path style="fill:none;stroke-width:7;stroke-linecap:round;stroke-linejoin:round;stroke:rgb(100%,99.215686%,54.509804%);stroke-opacity:1;stroke-miterlimit:10;" d="M 225.835938 111.664063 L 212.269531 96.671875 L 207.066406 90.855469 "/>
<path style="fill:none;stroke-width:7;stroke-linecap:round;stroke-linejoin:round;stroke:rgb(100%,99.215686%,54.509804%);stroke-opacity:1;stroke-miterlimit:10;" d="M 198.871094 88.027344 L 209.683594 99.902344 L 221.03125 112.742188 "/>
<path style="fill:none;stroke-width:7;stroke-linecap:round;stroke-linejoin:round;stroke:rgb(100%,99.215686%,54.509804%);stroke-opacity:1;stroke-miterlimit:10;" d="M 84.121094 47.167969 L 85.632813 47.949219 L 95.011719 53.734375 L 102.542969 58.378906 L 112.371094 65.851563 "/>
<path style="fill:none;stroke-width:7;stroke-linecap:round;stroke-linejoin:round;stroke:rgb(100%,99.215686%,54.509804%);stroke-opacity:1;stroke-miterlimit:10;" d="M 196.878906 79.550781 L 181.796875 63.621094 L 167.628906 47.792969 L 152.277344 31.121094 L 144.816406 22.84375 "/>
<path style="fill:none;stroke-width:7;stroke-linecap:round;stroke-linejoin:round;stroke:rgb(100%,99.215686%,54.509804%);stroke-opacity:1;stroke-miterlimit:10;" d="M 121.46875 -0.535156 L 122.859375 4.761719 L 149.71875 34.308594 L 164.875 51.242188 L 179.121094 66.839844 L 194.089844 82.964844 "/>
<path style="fill:none;stroke-width:7;stroke-linecap:round;stroke-linejoin:round;stroke:rgb(100%,99.215686%,54.509804%);stroke-opacity:1;stroke-miterlimit:10;" d="M 265 170.234375 L 264.433594 169.363281 L 252.679688 148.992188 L 240.191406 128.957031 L 235.839844 123.246094 L 227.15625 113.164063 L 225.835938 111.664063 "/>
<path style="fill:none;stroke-width:7;stroke-linecap:round;stroke-linejoin:round;stroke:rgb(100%,99.215686%,54.509804%);stroke-opacity:1;stroke-miterlimit:10;" d="M 221.03125 112.742188 L 224.339844 115.683594 L 236.964844 131.652344 L 249.40625 152.277344 L 261.902344 172.058594 L 265 176.980469 "/>
<path style="fill:none;stroke-width:8;stroke-linecap:round;stroke-linejoin:round;stroke:rgb(100%,99.215686%,54.509804%);stroke-opacity:1;stroke-miterlimit:10;" d="M 106.792969 18.128906 L 110.890625 12.980469 L 118.382813 3.46875 L 121.46875 -0.535156 "/>
<path style="fill:none;stroke-width:8;stroke-linecap:round;stroke-linejoin:round;stroke:rgb(100%,99.215686%,54.509804%);stroke-opacity:1;stroke-miterlimit:10;" d="M 84.121094 47.167969 L 99.515625 27.410156 L 106.792969 18.128906 "/>
<path style="fill:none;stroke-width:9;stroke-linecap:round;stroke-linejoin:round;stroke:rgb(99.215686%,57.254902%,22.745098%);stroke-opacity:1;stroke-miterlimit:10;" d="M 254.878906 223.429688 L 249.867188 212.601563 L 245.496094 203.9375 L 239.117188 191.828125 L 232.339844 180.515625 L 225.480469 169.929688 L 217.859375 159.019531 L 209.839844 147.789063 L 201.578125 137.402344 L 193.515625 127.136719 L 185.496094 117.390625 L 177.355469 108.003906 L 160.195313 89.570313 L 150.644531 80.488281 L 140.65625 71.46875 L 131.070313 63.003906 L 120.804688 55.101563 L 109.992188 48.167969 L 98.792969 42.167969 L 94.796875 40.128906 "/>
<path style="fill:none;stroke-width:9;stroke-linecap:round;stroke-linejoin:round;stroke:rgb(99.215686%,57.254902%,22.745098%);stroke-opacity:1;stroke-miterlimit:10;" d="M 87.070313 36.367188 L 83.59375 34.769531 L 74.59375 31.167969 L 62.394531 26.96875 L 52.394531 23.769531 L 39.515625 20.105469 L 26.234375 15.730469 L 14.203125 10.792969 L 3.546875 5.324219 L -7.984375 -1.332031 L -12 -3.984375 "/>
<path style="fill:none;stroke-width:9;stroke-linecap:round;stroke-linejoin:round;stroke:rgb(99.215686%,57.254902%,22.745098%);stroke-opacity:1;stroke-miterlimit:10;" d="M -12 0.285156 L -9.515625 2.011719 L -1.859375 6.511719 L 6.109375 10.792969 L 17.484375 16.136719 L 26.328125 19.542969 L 39.554688 23.667969 L 52.554688 27.46875 L 62.355469 30.46875 L 73.355469 34.066406 L 85.546875 38.628906 "/>
<path style="fill:none;stroke-width:9;stroke-linecap:round;stroke-linejoin:round;stroke:rgb(99.215686%,57.254902%,22.745098%);stroke-opacity:1;stroke-miterlimit:10;" d="M 93.046875 42.425781 L 97.339844 44.59375 L 106.683594 49.886719 L 117.753906 57.386719 L 127.980469 65.210938 L 138.089844 73.871094 L 147.554688 82.816406 L 155.695313 91.5625 L 165.882813 101.023438 L 175.027344 111.054688 L 183.527344 120.636719 L 192.191406 130.902344 L 200.535156 141.8125 L 207.996094 151.640625 L 215.976563 162.75 L 223.433594 173.5 L 230.414063 184.328125 L 236.832031 195.195313 L 242.488281 205.703125 L 247.257813 215.128906 L 251.472656 223.914063 L 252.222656 225.890625 "/>
<path style="fill:none;stroke-width:11;stroke-linecap:butt;stroke-linejoin:round;stroke:rgb(53.333333%,53.333333%,53.333333%);stroke-opacity:1;stroke-miterlimit:10;" d="M 85.546875 38.628906 L 93.046875 42.425781 "/>
<path style="fill:none;stroke-width:11;stroke-linecap:butt;stroke-linejoin:round;stroke:rgb(53.333333%,53.333333%,53.333333%);stroke-opacity:1;stroke-miterlimit:10;" d="M 94.796875 40.128906 L 87.070313 36.367188 "/>
<path style="fill:none;stroke-width:11;stroke-linecap:butt;stroke-linejoin:round;stroke:rgb(53.333333%,53.333333%,53.333333%);stroke-opacity:1;stroke-miterlimit:10;" d="M 252.222656 225.890625 L 255.5625 233.980469 "/>
<path style="fill:none;stroke-width:11;stroke-linecap:butt;stroke-linejoin:round;stroke:rgb(53.333333%,53.333333%,53.333333%);stroke-opacity:1;stroke-miterlimit:10;" d="M 258.304688 232.089844 L 254.878906 223.429688 "/>
<path style="fill:none;stroke-width:9;stroke-linecap:round;stroke-linejoin:round;stroke:rgb(99.215686%,57.254902%,22.745098%);stroke-opacity:1;stroke-miterlimit:10;" d="M 85.546875 38.628906 L 93.046875 42.425781 "/>
<path style="fill:none;stroke-width:9;stroke-linecap:round;stroke-linejoin:round;stroke:rgb(99.215686%,57.254902%,22.745098%);stroke-opacity:1;stroke-miterlimit:10;" d="M 94.796875 40.128906 L 87.070313 36.367188 "/>
<path style="fill:none;stroke-width:9;stroke-linecap:round;stroke-linejoin:round;stroke:rgb(99.215686%,57.254902%,22.745098%);stroke-opacity:1;stroke-miterlimit:10;" d="M 252.222656 225.890625 L 255.5625 233.980469 "/>
<path style="fill:none;stroke-width:9;stroke-linecap:round;stroke-linejoin:round;stroke:rgb(99.215686%,57.254902%,22.745098%);stroke-opacity:1;stroke-miterlimit:10;" d="M 258.304688 232.089844 L 254.878906 223.429688 "/>
<path style=" stroke:none;fill-rule:evenodd;fill:rgb(33.333333%,33.333333%,33.333333%);fill-opacity:1;" d="M 183.457031 119.320313 C 183.664063 119.5625 183.878906 119.691406 184.097656 119.710938 C 184.324219 119.730469 184.554688 119.644531 184.785156 119.445313 C 185.011719 119.25 185.132813 119.035156 185.144531 118.804688 C 185.152344 118.578125 185.054688 118.34375 184.847656 118.101563 L 184.113281 117.257813 L 182.722656 118.476563 Z M 180.613281 121.898438 C 180.882813 122.199219 181.160156 122.359375 181.441406 122.382813 C 181.722656 122.402344 182.007813 122.289063 182.300781 122.039063 C 182.589844 121.789063 182.738281 121.523438 182.738281 121.242188 C 182.746094 120.96875 182.617188 120.683594 182.347656 120.382813 L 181.566406 119.476563 L 179.832031 120.992188 Z M 184.222656 121.226563 C 184.410156 121.652344 184.433594 122.078125 184.300781 122.507813 C 184.175781 122.933594 183.902344 123.324219 183.488281 123.679688 C 182.851563 124.230469 182.210938 124.453125 181.566406 124.351563 C 180.917969 124.246094 180.246094 123.792969 179.550781 122.992188 L 177.332031 120.460938 L 183.925781 114.710938 L 185.925781 117.007813 C 186.644531 117.832031 187.027344 118.550781 187.082031 119.164063 C 187.132813 119.777344 186.855469 120.34375 186.253906 120.867188 C 185.929688 121.148438 185.597656 121.320313 185.253906 121.382813 C 184.910156 121.445313 184.566406 121.390625 184.222656 121.226563 Z M 189.382813 120.976563 L 191.554688 123.554688 C 192.199219 124.328125 192.5 125.078125 192.460938 125.804688 C 192.429688 126.523438 192.0625 127.179688 191.367188 127.773438 C 190.667969 128.367188 189.953125 128.617188 189.226563 128.523438 C 188.507813 128.4375 187.824219 128.011719 187.179688 127.242188 L 186.320313 126.226563 L 184.007813 128.179688 L 182.695313 126.617188 Z M 189.445313 123.601563 L 187.585938 125.164063 L 188.304688 126.023438 C 188.554688 126.324219 188.828125 126.484375 189.132813 126.507813 C 189.433594 126.539063 189.730469 126.429688 190.023438 126.179688 C 190.324219 125.917969 190.484375 125.644531 190.507813 125.351563 C 190.527344 125.0625 190.414063 124.765625 190.164063 124.460938 Z M 189.445313 123.601563 "/>
<path style="fill:none;stroke-width:3;stroke-linecap:round;stroke-linejoin:round;stroke:rgb(100%,100%,100%);stroke-opacity:1;stroke-miterlimit:10;" d="M 156.652344 214.40625 L 159.496094 212.546875 L 159.996094 213.3125 L 156.152344 215.828125 L 155.652344 215.0625 C 155.746094 214.5 155.859375 213.746094 155.996094 212.796875 C 156.128906 211.851563 156.214844 211.242188 156.246094 210.96875 C 156.285156 210.460938 156.28125 210.0625 156.230469 209.78125 C 156.1875 209.492188 156.09375 209.234375 155.949219 209.015625 C 155.71875 208.664063 155.425781 208.449219 155.058594 208.375 C 154.695313 208.292969 154.324219 208.371094 153.949219 208.609375 C 153.699219 208.777344 153.464844 209 153.246094 209.28125 C 153.027344 209.5625 152.824219 209.914063 152.636719 210.328125 L 152.042969 209.421875 C 152.261719 209.058594 152.492188 208.746094 152.730469 208.484375 C 152.960938 208.214844 153.195313 208 153.433594 207.84375 C 154.058594 207.4375 154.675781 207.289063 155.277344 207.390625 C 155.871094 207.484375 156.359375 207.824219 156.746094 208.40625 C 156.921875 208.6875 157.042969 208.984375 157.105469 209.296875 C 157.175781 209.601563 157.207031 210 157.199219 210.5 C 157.175781 210.636719 157.121094 211.03125 157.027344 211.6875 C 156.941406 212.335938 156.816406 213.242188 156.652344 214.40625 Z M 157.324219 205.488281 L 160.542969 203.378906 L 161.042969 204.128906 L 158.574219 205.738281 L 159.652344 207.394531 C 159.738281 207.28125 159.832031 207.171875 159.933594 207.066406 C 160.039063 206.964844 160.152344 206.871094 160.277344 206.785156 C 160.941406 206.347656 161.609375 206.207031 162.277344 206.363281 C 162.941406 206.511719 163.503906 206.933594 163.964844 207.628906 C 164.433594 208.347656 164.59375 209.042969 164.449219 209.707031 C 164.300781 210.375 163.863281 210.949219 163.136719 211.425781 C 162.875 211.605469 162.597656 211.753906 162.308594 211.878906 C 162.015625 212.003906 161.699219 212.109375 161.355469 212.191406 L 160.761719 211.269531 C 161.09375 211.269531 161.417969 211.222656 161.730469 211.128906 C 162.042969 211.027344 162.339844 210.878906 162.621094 210.691406 C 163.097656 210.390625 163.378906 210.015625 163.464844 209.566406 C 163.546875 209.109375 163.4375 208.644531 163.136719 208.175781 C 162.832031 207.71875 162.457031 207.441406 162.011719 207.347656 C 161.5625 207.246094 161.097656 207.34375 160.621094 207.644531 C 160.402344 207.792969 160.207031 207.964844 160.027344 208.160156 C 159.851563 208.359375 159.683594 208.59375 159.527344 208.863281 Z M 163.371094 201.863281 L 164.308594 203.285156 L 165.839844 202.285156 L 166.261719 202.925781 L 164.730469 203.925781 L 166.511719 206.660156 C 166.78125 207.066406 167.003906 207.300781 167.183594 207.363281 C 167.359375 207.417969 167.605469 207.339844 167.917969 207.128906 L 168.683594 206.628906 L 169.136719 207.316406 L 168.371094 207.816406 C 167.796875 208.191406 167.324219 208.332031 166.949219 208.238281 C 166.574219 208.144531 166.175781 207.785156 165.761719 207.160156 L 163.980469 204.425781 L 163.433594 204.785156 L 163.011719 204.144531 L 163.558594 203.785156 L 162.621094 202.363281 Z M 171.894531 201.179688 L 173.878906 204.210938 L 173.128906 204.710938 L 171.160156 201.710938 C 170.847656 201.234375 170.527344 200.929688 170.207031 200.804688 C 169.882813 200.671875 169.554688 200.710938 169.222656 200.929688 C 168.828125 201.191406 168.609375 201.539063 168.566406 201.976563 C 168.515625 202.414063 168.652344 202.878906 168.972656 203.367188 L 170.832031 206.210938 L 170.082031 206.710938 L 165.503906 199.710938 L 166.253906 199.210938 L 168.050781 201.960938 C 168.03125 201.546875 168.09375 201.1875 168.238281 200.882813 C 168.375 200.570313 168.605469 200.3125 168.925781 200.101563 C 169.433594 199.757813 169.941406 199.679688 170.441406 199.867188 C 170.949219 200.046875 171.433594 200.484375 171.894531 201.179688 Z M 176.246094 194.359375 L 177.308594 198.4375 L 179.542969 196.984375 Z M 175.183594 193.78125 L 176.121094 193.171875 L 182.808594 198.359375 L 181.964844 198.921875 L 180.292969 197.5625 L 177.574219 199.34375 L 178.136719 201.421875 L 177.277344 201.984375 Z M 179.824219 193.136719 L 180.605469 192.621094 L 184.777344 195.917969 L 183.449219 190.761719 L 184.230469 190.246094 L 185.824219 196.386719 L 184.824219 197.042969 Z M 190.648438 189.347656 L 190.914063 189.753906 L 187.492188 191.988281 C 187.898438 192.53125 188.335938 192.859375 188.804688 192.972656 C 189.28125 193.089844 189.761719 192.988281 190.242188 192.675781 C 190.53125 192.480469 190.78125 192.253906 190.992188 192.003906 C 191.210938 191.753906 191.40625 191.46875 191.585938 191.144531 L 192.085938 191.910156 C 191.898438 192.222656 191.683594 192.503906 191.445313 192.753906 C 191.203125 192.996094 190.945313 193.207031 190.664063 193.394531 C 189.933594 193.875 189.203125 194.019531 188.476563 193.832031 C 187.757813 193.644531 187.132813 193.152344 186.601563 192.347656 C 186.070313 191.527344 185.847656 190.738281 185.929688 189.988281 C 186.015625 189.238281 186.394531 188.644531 187.070313 188.207031 C 187.6875 187.800781 188.308594 187.703125 188.945313 187.910156 C 189.589844 188.121094 190.15625 188.597656 190.648438 189.347656 Z M 189.742188 189.582031 C 189.429688 189.144531 189.074219 188.863281 188.679688 188.738281 C 188.28125 188.605469 187.902344 188.65625 187.539063 188.894531 C 187.125 189.167969 186.878906 189.515625 186.804688 189.941406 C 186.722656 190.371094 186.816406 190.828125 187.085938 191.316406 Z M 195.433594 185.757813 L 197.417969 188.789063 L 196.667969 189.289063 L 194.699219 186.289063 C 194.386719 185.8125 194.066406 185.507813 193.746094 185.382813 C 193.421875 185.25 193.09375 185.289063 192.761719 185.507813 C 192.367188 185.769531 192.148438 186.117188 192.105469 186.554688 C 192.054688 186.992188 192.191406 187.457031 192.511719 187.945313 L 194.371094 190.789063 L 193.621094 191.289063 L 190.324219 186.257813 L 191.074219 185.757813 L 191.589844 186.539063 C 191.570313 186.125 191.632813 185.765625 191.777344 185.460938 C 191.914063 185.148438 192.144531 184.890625 192.464844 184.679688 C 192.972656 184.335938 193.480469 184.257813 193.980469 184.445313 C 194.488281 184.625 194.972656 185.0625 195.433594 185.757813 Z M 197.53125 185.878906 L 195.53125 182.832031 L 196.28125 182.347656 L 198.265625 185.363281 C 198.566406 185.832031 198.878906 186.136719 199.203125 186.269531 C 199.523438 186.394531 199.847656 186.355469 200.171875 186.144531 C 200.585938 185.875 200.816406 185.527344 200.859375 185.097656 C 200.910156 184.660156 200.769531 184.191406 200.4375 183.691406 L 198.578125 180.847656 L 199.328125 180.347656 L 202.625 185.378906 L 201.875 185.878906 L 201.375 185.113281 C 201.382813 185.53125 201.316406 185.890625 201.171875 186.191406 C 201.035156 186.496094 200.804688 186.75 200.484375 186.957031 C 199.972656 187.292969 199.460938 187.371094 198.953125 187.191406 C 198.453125 187.003906 197.980469 186.566406 197.53125 185.878906 Z M 197.328125 181.488281 Z M 206.253906 179.121094 L 206.519531 179.527344 L 203.097656 181.761719 C 203.503906 182.304688 203.941406 182.632813 204.410156 182.746094 C 204.886719 182.863281 205.367188 182.761719 205.847656 182.449219 C 206.136719 182.253906 206.386719 182.027344 206.597656 181.777344 C 206.816406 181.527344 207.011719 181.242188 207.191406 180.917969 L 207.691406 181.683594 C 207.503906 181.996094 207.289063 182.277344 207.050781 182.527344 C 206.808594 182.769531 206.550781 182.980469 206.269531 183.167969 C 205.539063 183.648438 204.808594 183.792969 204.082031 183.605469 C 203.363281 183.417969 202.738281 182.925781 202.207031 182.121094 C 201.675781 181.300781 201.453125 180.511719 201.535156 179.761719 C 201.621094 179.011719 202 178.417969 202.675781 177.980469 C 203.292969 177.574219 203.914063 177.476563 204.550781 177.683594 C 205.195313 177.894531 205.761719 178.371094 206.253906 179.121094 Z M 205.347656 179.355469 C 205.035156 178.917969 204.679688 178.636719 204.285156 178.511719 C 203.886719 178.378906 203.507813 178.429688 203.144531 178.667969 C 202.730469 178.941406 202.484375 179.289063 202.410156 179.714844 C 202.328125 180.144531 202.421875 180.601563 202.691406 181.089844 Z M 205.347656 179.355469 "/>
<path style=" stroke:none;fill-rule:evenodd;fill:rgb(20%,20%,20%);fill-opacity:1;" d="M 156.652344 214.40625 L 159.496094 212.546875 L 159.996094 213.3125 L 156.152344 215.828125 L 155.652344 215.0625 C 155.746094 214.5 155.859375 213.746094 155.996094 212.796875 C 156.128906 211.851563 156.214844 211.242188 156.246094 210.96875 C 156.285156 210.460938 156.28125 210.0625 156.230469 209.78125 C 156.1875 209.492188 156.09375 209.234375 155.949219 209.015625 C 155.71875 208.664063 155.425781 208.449219 155.058594 208.375 C 154.695313 208.292969 154.324219 208.371094 153.949219 208.609375 C 153.699219 208.777344 153.464844 209 153.246094 209.28125 C 153.027344 209.5625 152.824219 209.914063 152.636719 210.328125 L 152.042969 209.421875 C 152.261719 209.058594 152.492188 208.746094 152.730469 208.484375 C 152.960938 208.214844 153.195313 208 153.433594 207.84375 C 154.058594 207.4375 154.675781 207.289063 155.277344 207.390625 C 155.871094 207.484375 156.359375 207.824219 156.746094 208.40625 C 156.921875 208.6875 157.042969 208.984375 157.105469 209.296875 C 157.175781 209.601563 157.207031 210 157.199219 210.5 C 157.175781 210.636719 157.121094 211.03125 157.027344 211.6875 C 156.941406 212.335938 156.816406 213.242188 156.652344 214.40625 Z M 157.324219 205.488281 L 160.542969 203.378906 L 161.042969 204.128906 L 158.574219 205.738281 L 159.652344 207.394531 C 159.738281 207.28125 159.832031 207.171875 159.933594 207.066406 C 160.039063 206.964844 160.152344 206.871094 160.277344 206.785156 C 160.941406 206.347656 161.609375 206.207031 162.277344 206.363281 C 162.941406 206.511719 163.503906 206.933594 163.964844 207.628906 C 164.433594 208.347656 164.59375 209.042969 164.449219 209.707031 C 164.300781 210.375 163.863281 210.949219 163.136719 211.425781 C 162.875 211.605469 162.597656 211.753906 162.308594 211.878906 C 162.015625 212.003906 161.699219 212.109375 161.355469 212.191406 L 160.761719 211.269531 C 161.09375 211.269531 161.417969 211.222656 161.730469 211.128906 C 162.042969 211.027344 162.339844 210.878906 162.621094 210.691406 C 163.097656 210.390625 163.378906 210.015625 163.464844 209.566406 C 163.546875 209.109375 163.4375 208.644531 163.136719 208.175781 C 162.832031 207.71875 162.457031 207.441406 162.011719 207.347656 C 161.5625 207.246094 161.097656 207.34375 160.621094 207.644531 C 160.402344 207.792969 160.207031 207.964844 160.027344 208.160156 C 159.851563 208.359375 159.683594 208.59375 159.527344 208.863281 Z M 163.371094 201.863281 L 164.308594 203.285156 L 165.839844 202.285156 L 166.261719 202.925781 L 164.730469 203.925781 L 166.511719 206.660156 C 166.78125 207.066406 167.003906 207.300781 167.183594 207.363281 C 167.359375 207.417969 167.605469 207.339844 167.917969 207.128906 L 168.683594 206.628906 L 169.136719 207.316406 L 168.371094 207.816406 C 167.796875 208.191406 167.324219 208.332031 166.949219 208.238281 C 166.574219 208.144531 166.175781 207.785156 165.761719 207.160156 L 163.980469 204.425781 L 163.433594 204.785156 L 163.011719 204.144531 L 163.558594 203.785156 L 162.621094 202.363281 Z M 171.894531 201.179688 L 173.878906 204.210938 L 173.128906 204.710938 L 171.160156 201.710938 C 170.847656 201.234375 170.527344 200.929688 170.207031 200.804688 C 169.882813 200.671875 169.554688 200.710938 169.222656 200.929688 C 168.828125 201.191406 168.609375 201.539063 168.566406 201.976563 C 168.515625 202.414063 168.652344 202.878906 168.972656 203.367188 L 170.832031 206.210938 L 170.082031 206.710938 L 165.503906 199.710938 L 166.253906 199.210938 L 168.050781 201.960938 C 168.03125 201.546875 168.09375 201.1875 168.238281 200.882813 C 168.375 200.570313 168.605469 200.3125 168.925781 200.101563 C 169.433594 199.757813 169.941406 199.679688 170.441406 199.867188 C 170.949219 200.046875 171.433594 200.484375 171.894531 201.179688 Z M 176.246094 194.359375 L 177.308594 198.4375 L 179.542969 196.984375 Z M 175.183594 193.78125 L 176.121094 193.171875 L 182.808594 198.359375 L 181.964844 198.921875 L 180.292969 197.5625 L 177.574219 199.34375 L 178.136719 201.421875 L 177.277344 201.984375 Z M 179.824219 193.136719 L 180.605469 192.621094 L 184.777344 195.917969 L 183.449219 190.761719 L 184.230469 190.246094 L 185.824219 196.386719 L 184.824219 197.042969 Z M 190.648438 189.347656 L 190.914063 189.753906 L 187.492188 191.988281 C 187.898438 192.53125 188.335938 192.859375 188.804688 192.972656 C 189.28125 193.089844 189.761719 192.988281 190.242188 192.675781 C 190.53125 192.480469 190.78125 192.253906 190.992188 192.003906 C 191.210938 191.753906 191.40625 191.46875 191.585938 191.144531 L 192.085938 191.910156 C 191.898438 192.222656 191.683594 192.503906 191.445313 192.753906 C 191.203125 192.996094 190.945313 193.207031 190.664063 193.394531 C 189.933594 193.875 189.203125 194.019531 188.476563 193.832031 C 187.757813 193.644531 187.132813 193.152344 186.601563 192.347656 C 186.070313 191.527344 185.847656 190.738281 185.929688 189.988281 C 186.015625 189.238281 186.394531 188.644531 187.070313 188.207031 C 187.6875 187.800781 188.308594 187.703125 188.945313 187.910156 C 189.589844 188.121094 190.15625 188.597656 190.648438 189.347656 Z M 189.742188 189.582031 C 189.429688 189.144531 189.074219 188.863281 188.679688 188.738281 C 188.28125 188.605469 187.902344 188.65625 187.539063 188.894531 C 187.125 189.167969 186.878906 189.515625 186.804688 189.941406 C 186.722656 190.371094 186.816406 190.828125 187.085938 191.316406 Z M 195.433594 185.757813 L 197.417969 188.789063 L 196.667969 189.289063 L 194.699219 186.289063 C 194.386719 185.8125 194.066406 185.507813 193.746094 185.382813 C 193.421875 185.25 193.09375 185.289063 192.761719 185.507813 C 192.367188 185.769531 192.148438 186.117188 192.105469 186.554688 C 192.054688 186.992188 192.191406 187.457031 192.511719 187.945313 L 194.371094 190.789063 L 193.621094 191.289063 L 190.324219 186.257813 L 191.074219 185.757813 L 191.589844 186.539063 C 191.570313 186.125 191.632813 185.765625 191.777344 185.460938 C 191.914063 185.148438 192.144531 184.890625 192.464844 184.679688 C 192.972656 184.335938 193.480469 184.257813 193.980469 184.445313 C 194.488281 184.625 194.972656 185.0625 195.433594 185.757813 Z M 197.53125 185.878906 L 195.53125 182.832031 L 196.28125 182.347656 L 198.265625 185.363281 C 198.566406 185.832031 198.878906 186.136719 199.203125 186.269531 C 199.523438 186.394531 199.847656 186.355469 200.171875 186.144531 C 200.585938 185.875 200.816406 185.527344 200.859375 185.097656 C 200.910156 184.660156 200.769531 184.191406 200.4375 183.691406 L 198.578125 180.847656 L 199.328125 180.347656 L 202.625 185.378906 L 201.875 185.878906 L 201.375 185.113281 C 201.382813 185.53125 201.316406 185.890625 201.171875 186.191406 C 201.035156 186.496094 200.804688 186.75 200.484375 186.957031 C 199.972656 187.292969 199.460938 187.371094 198.953125 187.191406 C 198.453125 187.003906 197.980469 186.566406 197.53125 185.878906 Z M 197.328125 181.488281 Z M 206.253906 179.121094 L 206.519531 179.527344 L 203.097656 181.761719 C 203.503906 182.304688 203.941406 182.632813 204.410156 182.746094 C 204.886719 182.863281 205.367188 182.761719 205.847656 182.449219 C 206.136719 182.253906 206.386719 182.027344 206.597656 181.777344 C 206.816406 181.527344 207.011719 181.242188 207.191406 180.917969 L 207.691406 181.683594 C 207.503906 181.996094 207.289063 182.277344 207.050781 182.527344 C 206.808594 182.769531 206.550781 182.980469 206.269531 183.167969 C 205.539063 183.648438 204.808594 183.792969 204.082031 183.605469 C 203.363281 183.417969 202.738281 182.925781 202.207031 182.121094 C 201.675781 181.300781 201.453125 180.511719 201.535156 179.761719 C 201.621094 179.011719 202 178.417969 202.675781 177.980469 C 203.292969 177.574219 203.914063 177.476563 204.550781 177.683594 C 205.195313 177.894531 205.761719 178.371094 206.253906 179.121094 Z M 205.347656 179.355469 C 205.035156 178.917969 204.679688 178.636719 204.285156 178.511719 C 203.886719 178.378906 203.507813 178.429688 203.144531 178.667969 C 202.730469 178.941406 202.484375 179.289063 202.410156 179.714844 C 202.328125 180.144531 202.421875 180.601563 202.691406 181.089844 Z M 205.347656 179.355469 "/>
</g>
</svg>

