<?xml version="1.0" encoding="UTF-8"?>
<svg xmlns="http://www.w3.org/2000/svg" xmlns:xlink="http://www.w3.org/1999/xlink" width="256pt" height="256pt" viewBox="0 0 256 256" version="1.1">
<g id="surface2">
<rect x="0" y="0" width="256" height="256" style="fill:rgb(94.901961%,93.72549%,91.372549%);fill-opacity:1;stroke:none;"/>
<path style=" stroke:none;fill-rule:evenodd;fill:rgb(60%,70.196078%,80%);fill-opacity:1;" d="M -4 259 L -4 -4 L 259 -4 L -4 -4 Z M -4 259 "/>
<path style="fill:none;stroke-width:1;stroke-linecap:round;stroke-linejoin:round;stroke:rgb(70.196078%,77.647059%,83.137255%);stroke-opacity:1;stroke-miterlimit:10;" d="M -4 259 L -4 -4 L 259 -4 L -4 -4 L -4 259 "/>
<path style="fill:none;stroke-width:8;stroke-linecap:round;stroke-linejoin:round;stroke:rgb(75.686275%,70.980392%,61.568627%);stroke-opacity:1;stroke-miterlimit:10;" d="M 261.457031 15.613281 L 254.738281 21.535156 L 253.78125 23.101563 L 252.988281 25.496094 L 252.011719 31.019531 L 250.824219 35.617188 L 250.007813 37.246094 L 247.398438 40.3125 "/>
<path style="fill:none;stroke-width:8;stroke-linecap:round;stroke-linejoin:round;stroke:rgb(75.686275%,70.980392%,61.568627%);stroke-opacity:1;stroke-miterlimit:10;" d="M 264 58.484375 L 252.429688 78.851563 "/>
<path style="fill:none;stroke-width:8;stroke-linecap:round;stroke-linejoin:round;stroke:rgb(75.686275%,70.980392%,61.568627%);stroke-opacity:1;stroke-miterlimit:10;" d="M 264 17.859375 L 261.953125 16.40625 L 259.613281 12.65625 L 257.714844 8.226563 L 256.496094 3.304688 L 255.667969 -0.34375 L 254.9375 -5.703125 L 254.472656 -9 "/>
<path style="fill:none;stroke-width:6;stroke-linecap:round;stroke-linejoin:round;stroke:rgb(100%,100%,100%);stroke-opacity:1;stroke-miterlimit:10;" d="M 261.457031 15.613281 L 254.738281 21.535156 L 253.78125 23.101563 L 252.988281 25.496094 L 252.011719 31.019531 L 250.824219 35.617188 L 250.007813 37.246094 L 247.398438 40.3125 "/>
<path style="fill:none;stroke-width:6;stroke-linecap:round;stroke-linejoin:round;stroke:rgb(100%,100%,100%);stroke-opacity:1;stroke-miterlimit:10;" d="M 264 58.484375 L 252.429688 78.851563 "/>
<path style="fill:none;stroke-width:6;stroke-linecap:round;stroke-linejoin:round;stroke:rgb(100%,100%,100%);stroke-opacity:1;stroke-miterlimit:10;" d="M 264 17.859375 L 261.953125 16.40625 L 259.613281 12.65625 L 257.714844 8.226563 L 256.496094 3.304688 L 255.667969 -0.34375 L 254.9375 -5.703125 L 254.472656 -9 "/>
</g>
</svg>

