<?xml version="1.0" encoding="UTF-8"?>
<svg xmlns="http://www.w3.org/2000/svg" xmlns:xlink="http://www.w3.org/1999/xlink" width="256pt" height="256pt" viewBox="0 0 256 256" version="1.1">
<g id="surface2">
<rect x="0" y="0" width="256" height="256" style="fill:rgb(94.901961%,93.72549%,91.372549%);fill-opacity:1;stroke:none;"/>
<path style="fill:none;stroke-width:1;stroke-linecap:round;stroke-linejoin:round;stroke:rgb(100%,100%,100%);stroke-opacity:1;stroke-dasharray:2,3;stroke-miterlimit:10;" d="M 43.390625 257 L 42.34375 255.457031 L 50.167969 241.195313 L 51.410156 224.570313 L 54.609375 215.390625 L 57.988281 211.667969 L 68.476563 208.441406 L 75.054688 199.511719 L 80.03125 195.664063 L 92.480469 192.066406 L 97.457031 192.316406 L 103.675781 188.34375 L 109.722656 187.476563 L 120.210938 181.023438 L 126.257813 178.917969 L 149.1875 179.910156 L 158.253906 177.675781 L 163.054688 171.351563 L 172.476563 165.644531 L 179.054688 163.535156 L 191.855469 163.039063 L 201.988281 158.820313 L 208.035156 148.769531 L 209.457031 142.070313 L 208.386719 135.371094 L 201.277344 124.207031 L 197.011719 122.347656 L 193.632813 118.875 L 193.101563 114.28125 L 195.054688 107.957031 L 206.078125 87.859375 L 201.988281 70.863281 L 201.277344 61.058594 L 197.542969 52.253906 L 199.679688 46.296875 L 199.5 42.449219 L 190.253906 11.308594 L 191.242188 -2 "/>
</g>
</svg>

