<?xml version="1.0" encoding="UTF-8"?>
<svg xmlns="http://www.w3.org/2000/svg" xmlns:xlink="http://www.w3.org/1999/xlink" width="256pt" height="256pt" viewBox="0 0 256 256" version="1.1">
<g id="surface2">
<rect x="0" y="0" width="256" height="256" style="fill:rgb(94.901961%,93.72549%,91.372549%);fill-opacity:1;stroke:none;"/>
<path style=" stroke:none;fill-rule:evenodd;fill:rgb(60%,70.196078%,80%);fill-opacity:1;" d="M 124.847656 20.128906 L 134.058594 32.65625 L 150.96875 47.757813 L 163.5 53.34375 L 181.464844 60.292969 L 192.035156 62.859375 L 193.09375 59.082031 L 186.601563 39.300781 L 186.902344 28.28125 L 176.03125 5.480469 L 173.765625 1.707031 L 168.179688 -0.105469 L 152.628906 7.898438 L 132.699219 6.691406 Z M 124.847656 20.128906 "/>
<path style="fill:none;stroke-width:1;stroke-linecap:round;stroke-linejoin:round;stroke:rgb(70.196078%,77.647059%,83.137255%);stroke-opacity:1;stroke-miterlimit:10;" d="M 124.847656 20.128906 L 134.058594 32.65625 L 150.96875 47.757813 L 163.5 53.34375 L 181.464844 60.292969 L 192.035156 62.859375 L 193.09375 59.082031 L 186.601563 39.300781 L 186.902344 28.28125 L 176.03125 5.480469 L 173.765625 1.707031 L 168.179688 -0.105469 L 152.628906 7.898438 L 132.699219 6.691406 L 124.847656 20.128906 "/>
<path style=" stroke:none;fill-rule:evenodd;fill:rgb(60%,70.196078%,80%);fill-opacity:1;" d="M -4 -4 L -4 259 L 259 259 L -4 259 Z M -4 -4 "/>
<path style="fill:none;stroke-width:1;stroke-linecap:round;stroke-linejoin:round;stroke:rgb(70.196078%,77.647059%,83.137255%);stroke-opacity:1;stroke-miterlimit:10;" d="M -4 -4 L -4 259 L 259 259 L -4 259 L -4 -4 "/>
<path style="fill:none;stroke-width:8;stroke-linecap:round;stroke-linejoin:round;stroke:rgb(75.686275%,70.980392%,61.568627%);stroke-opacity:1;stroke-miterlimit:10;" d="M 264 149.546875 L 256.429688 143.03125 L 251.957031 130.566406 L 243.988281 126.824219 "/>
<path style="fill:none;stroke-width:8;stroke-linecap:round;stroke-linejoin:round;stroke:rgb(75.686275%,70.980392%,61.568627%);stroke-opacity:1;stroke-miterlimit:10;" d="M 213.554688 76.71875 L 206.308594 77.429688 L 200.855469 77.007813 L 192.535156 73.230469 L 186.316406 71.164063 L 183.402344 70.582031 L 179.136719 70.195313 L 172.519531 70.195313 L 151.199219 68 L 142.460938 66.355469 L 130.089844 61.609375 L 125.03125 59.21875 L 119.300781 56.894531 L 110.816406 53.859375 L 97.09375 50.566406 L 72.324219 46.113281 L 65.472656 45.789063 L 61.253906 46.886719 L 45.457031 54.957031 L 40.167969 56.925781 L 23.832031 59.121094 L 19.730469 59.121094 L 18.707031 58.671875 L 16.820313 56.992188 L 15.164063 53.859375 L 12.859375 46.53125 L 10.832031 44.140625 L 7.988281 41.945313 L 1.859375 40.460938 L -0.75 39.105469 L -3.804688 36.230469 L -9 29.933594 "/>
<path style="fill:none;stroke-width:9;stroke-linecap:round;stroke-linejoin:round;stroke:rgb(75.686275%,70.980392%,61.568627%);stroke-opacity:1;stroke-miterlimit:10;" d="M 265 163.152344 L 253.191406 148 L 248.320313 140.316406 L 245.082031 131.761719 L 243.988281 126.824219 L 242.796875 121.5625 L 241.378906 115.554688 L 239.605469 109.96875 L 237.347656 104.902344 L 235.480469 101.800781 L 231.265625 96.410156 L 213.554688 76.71875 L 208.359375 70.9375 L 202.464844 63.546875 L 199.339844 58.832031 L 197.199219 54.34375 L 195.777344 48.726563 L 195.449219 42.753906 L 196.007813 38.6875 L 198.011719 30.839844 L 202.882813 17.667969 L 205.632813 9.402344 L 208.546875 -1.734375 L 208.753906 -7.0625 L 208.3125 -10 "/>
<path style="fill:none;stroke-width:6;stroke-linecap:round;stroke-linejoin:round;stroke:rgb(100%,100%,100%);stroke-opacity:1;stroke-miterlimit:10;" d="M 264 149.546875 L 256.429688 143.03125 L 251.957031 130.566406 L 243.988281 126.824219 "/>
<path style="fill:none;stroke-width:6;stroke-linecap:round;stroke-linejoin:round;stroke:rgb(100%,100%,100%);stroke-opacity:1;stroke-miterlimit:10;" d="M 213.554688 76.71875 L 206.308594 77.429688 L 200.855469 77.007813 L 192.535156 73.230469 L 186.316406 71.164063 L 183.402344 70.582031 L 179.136719 70.195313 L 172.519531 70.195313 L 151.199219 68 L 142.460938 66.355469 L 130.089844 61.609375 L 125.03125 59.21875 L 119.300781 56.894531 L 110.816406 53.859375 L 97.09375 50.566406 L 72.324219 46.113281 L 65.472656 45.789063 L 61.253906 46.886719 L 45.457031 54.957031 L 40.167969 56.925781 L 23.832031 59.121094 L 19.730469 59.121094 L 18.707031 58.671875 L 16.820313 56.992188 L 15.164063 53.859375 L 12.859375 46.53125 L 10.832031 44.140625 L 7.988281 41.945313 L 1.859375 40.460938 L -0.75 39.105469 L -3.804688 36.230469 L -9 29.933594 "/>
<path style="fill:none;stroke-width:7;stroke-linecap:round;stroke-linejoin:round;stroke:rgb(100%,99.215686%,54.509804%);stroke-opacity:1;stroke-miterlimit:10;" d="M 265 163.152344 L 253.191406 148 L 248.320313 140.316406 L 245.082031 131.761719 L 243.988281 126.824219 L 242.796875 121.5625 L 241.378906 115.554688 L 239.605469 109.96875 L 237.347656 104.902344 L 235.480469 101.800781 L 231.265625 96.410156 L 213.554688 76.71875 L 208.359375 70.9375 L 202.464844 63.546875 L 199.339844 58.832031 L 197.199219 54.34375 L 195.777344 48.726563 L 195.449219 42.753906 L 196.007813 38.6875 L 198.011719 30.839844 L 202.882813 17.667969 L 205.632813 9.402344 L 208.546875 -1.734375 L 208.753906 -7.0625 L 208.3125 -10 "/>
<path style="fill:none;stroke-width:3;stroke-linecap:round;stroke-linejoin:round;stroke:rgb(100%,100%,100%);stroke-opacity:1;stroke-miterlimit:10;" d="M 69.652344 46.242188 C 69.859375 46.328125 70.058594 46.503906 70.246094 46.773438 C 70.433594 47.035156 70.621094 47.398438 70.808594 47.867188 L 71.714844 50.085938 L 70.667969 50.054688 L 69.824219 47.945313 C 69.605469 47.40625 69.386719 47.046875 69.167969 46.867188 C 68.949219 46.679688 68.644531 46.578125 68.261719 46.554688 L 67.199219 46.523438 L 67.074219 49.914063 L 66.089844 49.867188 L 66.402344 41.851563 L 68.605469 41.945313 C 69.4375 41.976563 70.046875 42.191406 70.433594 42.585938 C 70.816406 42.984375 70.996094 43.570313 70.964844 44.351563 C 70.941406 44.851563 70.824219 45.265625 70.605469 45.585938 C 70.386719 45.910156 70.066406 46.128906 69.652344 46.242188 Z M 67.339844 42.789063 L 67.230469 45.632813 L 68.449219 45.679688 C 68.925781 45.691406 69.292969 45.582031 69.542969 45.351563 C 69.792969 45.125 69.925781 44.773438 69.949219 44.304688 C 69.96875 43.835938 69.859375 43.476563 69.621094 43.226563 C 69.390625 42.976563 69.035156 42.847656 68.558594 42.835938 Z M 73.398438 44.265625 L 74.273438 44.421875 L 73.257813 50.359375 L 72.382813 50.203125 Z M 73.789063 41.96875 L 74.664063 42.125 L 74.460938 43.34375 L 73.585938 43.1875 Z M 79.464844 46.265625 L 80.042969 43.0625 L 80.933594 43.21875 L 79.449219 51.453125 L 78.558594 51.296875 L 78.714844 50.40625 C 78.472656 50.726563 78.199219 50.945313 77.886719 51.0625 C 77.574219 51.1875 77.21875 51.210938 76.824219 51.140625 C 76.175781 51.023438 75.703125 50.648438 75.402344 50.015625 C 75.097656 49.371094 75.03125 48.578125 75.199219 47.640625 C 75.363281 46.703125 75.703125 45.992188 76.214844 45.5 C 76.722656 45 77.300781 44.808594 77.949219 44.921875 C 78.34375 44.996094 78.667969 45.148438 78.917969 45.375 C 79.167969 45.59375 79.347656 45.890625 79.464844 46.265625 Z M 76.121094 47.8125 C 75.996094 48.53125 76.027344 49.121094 76.214844 49.578125 C 76.402344 50.027344 76.722656 50.292969 77.183594 50.375 C 77.652344 50.460938 78.050781 50.324219 78.386719 49.96875 C 78.730469 49.605469 78.964844 49.0625 79.089844 48.34375 C 79.214844 47.625 79.175781 47.042969 78.980469 46.59375 C 78.792969 46.136719 78.464844 45.867188 77.996094 45.78125 C 77.535156 45.699219 77.140625 45.839844 76.808594 46.203125 C 76.472656 46.558594 76.246094 47.09375 76.121094 47.8125 Z M 85.285156 49.378906 C 85.410156 48.671875 85.371094 48.105469 85.175781 47.675781 C 84.988281 47.238281 84.652344 46.980469 84.175781 46.894531 C 83.714844 46.8125 83.320313 46.941406 82.988281 47.285156 C 82.664063 47.621094 82.441406 48.140625 82.316406 48.847656 C 82.191406 49.546875 82.222656 50.113281 82.410156 50.550781 C 82.597656 50.988281 82.917969 51.25 83.378906 51.332031 C 83.855469 51.417969 84.261719 51.285156 84.597656 50.941406 C 84.929688 50.597656 85.160156 50.078125 85.285156 49.378906 Z M 85.753906 51.832031 C 85.574219 52.839844 85.238281 53.554688 84.738281 53.972656 C 84.246094 54.386719 83.585938 54.523438 82.753906 54.378906 C 82.449219 54.316406 82.164063 54.230469 81.894531 54.128906 C 81.632813 54.035156 81.386719 53.914063 81.160156 53.769531 L 81.316406 52.832031 C 81.542969 53.027344 81.777344 53.183594 82.019531 53.300781 C 82.257813 53.425781 82.503906 53.507813 82.753906 53.550781 C 83.324219 53.652344 83.785156 53.566406 84.128906 53.285156 C 84.480469 53.003906 84.714844 52.527344 84.832031 51.863281 L 84.925781 51.363281 C 84.683594 51.683594 84.410156 51.902344 84.097656 52.019531 C 83.785156 52.144531 83.429688 52.167969 83.035156 52.097656 C 82.378906 51.980469 81.898438 51.613281 81.597656 50.988281 C 81.292969 50.363281 81.226563 49.59375 81.394531 48.675781 C 81.558594 47.769531 81.894531 47.078125 82.394531 46.597656 C 82.894531 46.109375 83.472656 45.921875 84.128906 46.035156 C 84.523438 46.109375 84.847656 46.261719 85.097656 46.488281 C 85.347656 46.707031 85.527344 47.003906 85.644531 47.378906 L 85.800781 46.488281 L 86.691406 46.644531 Z M 92.546875 50.507813 L 92.453125 50.992188 L 88.4375 50.273438 C 88.351563 50.941406 88.441406 51.484375 88.703125 51.898438 C 88.972656 52.304688 89.398438 52.5625 89.984375 52.664063 C 90.316406 52.71875 90.644531 52.726563 90.96875 52.695313 C 91.300781 52.65625 91.644531 52.578125 92 52.460938 L 91.84375 53.367188 C 91.488281 53.460938 91.140625 53.515625 90.796875 53.539063 C 90.453125 53.558594 90.113281 53.539063 89.78125 53.476563 C 88.925781 53.320313 88.296875 52.921875 87.890625 52.289063 C 87.492188 51.65625 87.378906 50.863281 87.546875 49.914063 C 87.722656 48.945313 88.097656 48.222656 88.671875 47.742188 C 89.253906 47.253906 89.945313 47.082031 90.75 47.226563 C 91.46875 47.363281 91.984375 47.726563 92.296875 48.320313 C 92.617188 48.90625 92.703125 49.632813 92.546875 50.507813 Z M 91.71875 50.070313 C 91.800781 49.53125 91.742188 49.078125 91.546875 48.710938 C 91.347656 48.347656 91.035156 48.125 90.609375 48.039063 C 90.117188 47.957031 89.695313 48.046875 89.34375 48.304688 C 88.988281 48.554688 88.738281 48.957031 88.59375 49.507813 Z M 102.296875 47.976563 L 102.0625 48.992188 C 101.75 48.722656 101.441406 48.503906 101.140625 48.335938 C 100.835938 48.160156 100.539063 48.039063 100.25 47.976563 C 99.726563 47.851563 99.300781 47.875 98.96875 48.039063 C 98.632813 48.195313 98.421875 48.476563 98.328125 48.882813 C 98.253906 49.226563 98.285156 49.507813 98.421875 49.726563 C 98.566406 49.945313 98.890625 50.175781 99.390625 50.414063 L 99.921875 50.664063 C 100.597656 50.976563 101.0625 51.363281 101.3125 51.820313 C 101.5625 52.28125 101.613281 52.828125 101.46875 53.460938 C 101.289063 54.222656 100.929688 54.742188 100.390625 55.023438 C 99.847656 55.3125 99.132813 55.355469 98.25 55.148438 C 97.914063 55.0625 97.570313 54.933594 97.21875 54.757813 C 96.863281 54.589844 96.503906 54.382813 96.140625 54.132813 L 96.390625 53.039063 C 96.722656 53.382813 97.054688 53.660156 97.390625 53.867188 C 97.734375 54.066406 98.082031 54.207031 98.4375 54.289063 C 98.976563 54.414063 99.425781 54.390625 99.78125 54.226563 C 100.132813 54.050781 100.363281 53.75 100.46875 53.320313 C 100.550781 52.9375 100.507813 52.613281 100.34375 52.351563 C 100.1875 52.082031 99.882813 51.832031 99.4375 51.601563 L 98.859375 51.335938 C 98.191406 51.035156 97.738281 50.675781 97.5 50.257813 C 97.269531 49.84375 97.222656 49.335938 97.359375 48.742188 C 97.515625 48.054688 97.859375 47.566406 98.390625 47.273438 C 98.921875 46.972656 99.570313 46.910156 100.34375 47.085938 C 100.675781 47.171875 101.003906 47.285156 101.328125 47.429688 C 101.648438 47.578125 101.972656 47.757813 102.296875 47.976563 Z M 105.042969 48.65625 L 104.652344 50.3125 L 106.433594 50.734375 L 106.246094 51.46875 L 104.464844 51.046875 L 103.714844 54.234375 C 103.597656 54.703125 103.578125 55.023438 103.652344 55.1875 C 103.734375 55.34375 103.957031 55.46875 104.324219 55.5625 L 105.214844 55.765625 L 105.027344 56.578125 L 104.136719 56.375 C 103.46875 56.207031 103.042969 55.957031 102.855469 55.625 C 102.667969 55.292969 102.660156 54.761719 102.839844 54.03125 L 103.589844 50.84375 L 102.964844 50.6875 L 103.152344 49.953125 L 103.777344 50.109375 L 104.167969 48.453125 Z M 110.402344 52.636719 C 110.308594 52.554688 110.207031 52.480469 110.105469 52.417969 C 110 52.355469 109.878906 52.308594 109.746094 52.277344 C 109.246094 52.164063 108.824219 52.253906 108.480469 52.542969 C 108.144531 52.835938 107.894531 53.316406 107.730469 53.980469 L 106.996094 57.058594 L 106.105469 56.839844 L 107.511719 50.996094 L 108.402344 51.214844 L 108.183594 52.121094 C 108.441406 51.808594 108.738281 51.601563 109.074219 51.496094 C 109.40625 51.394531 109.78125 51.394531 110.199219 51.496094 C 110.25 51.507813 110.3125 51.527344 110.386719 51.558594 C 110.46875 51.582031 110.546875 51.613281 110.621094 51.652344 Z M 115.160156 56.210938 L 115.003906 56.679688 L 111.128906 55.351563 C 110.941406 56 110.945313 56.546875 111.144531 56.992188 C 111.339844 57.429688 111.714844 57.742188 112.269531 57.929688 C 112.589844 58.042969 112.917969 58.105469 113.253906 58.117188 C 113.585938 58.125 113.933594 58.105469 114.300781 58.054688 L 114.003906 58.929688 C 113.648438 58.960938 113.300781 58.960938 112.957031 58.929688 C 112.621094 58.898438 112.289063 58.824219 111.957031 58.710938 C 111.144531 58.429688 110.585938 57.945313 110.285156 57.257813 C 109.992188 56.5625 109.996094 55.757813 110.300781 54.851563 C 110.621094 53.925781 111.101563 53.269531 111.738281 52.882813 C 112.382813 52.488281 113.089844 52.425781 113.863281 52.695313 C 114.550781 52.925781 115.007813 53.359375 115.238281 53.992188 C 115.476563 54.628906 115.449219 55.367188 115.160156 56.210938 Z M 114.410156 55.632813 C 114.574219 55.125 114.585938 54.675781 114.441406 54.289063 C 114.304688 53.90625 114.027344 53.640625 113.613281 53.492188 C 113.132813 53.328125 112.699219 53.34375 112.316406 53.539063 C 111.929688 53.738281 111.628906 54.09375 111.410156 54.601563 Z M 120.824219 58.339844 L 120.652344 58.792969 L 116.824219 57.339844 C 116.636719 57.996094 116.636719 58.550781 116.824219 58.996094 C 117.011719 59.441406 117.375 59.769531 117.917969 59.980469 C 118.238281 60.105469 118.5625 60.175781 118.886719 60.199219 C 119.21875 60.21875 119.566406 60.203125 119.933594 60.152344 L 119.605469 61.011719 C 119.25 61.042969 118.902344 61.03125 118.558594 60.980469 C 118.214844 60.9375 117.878906 60.859375 117.558594 60.746094 C 116.753906 60.441406 116.214844 59.941406 115.933594 59.246094 C 115.660156 58.539063 115.699219 57.738281 116.042969 56.839844 C 116.386719 55.925781 116.878906 55.285156 117.527344 54.917969 C 118.183594 54.542969 118.890625 54.496094 119.652344 54.777344 C 120.328125 55.039063 120.769531 55.492188 120.980469 56.136719 C 121.199219 56.773438 121.144531 57.507813 120.824219 58.339844 Z M 120.105469 57.746094 C 120.28125 57.238281 120.300781 56.785156 120.167969 56.386719 C 120.042969 55.992188 119.777344 55.722656 119.371094 55.574219 C 118.902344 55.398438 118.46875 55.402344 118.074219 55.589844 C 117.6875 55.769531 117.375 56.117188 117.136719 56.636719 Z M 124.671875 55.074219 L 124.03125 56.652344 L 125.734375 57.339844 L 125.4375 58.042969 L 123.734375 57.355469 L 122.5 60.371094 C 122.3125 60.832031 122.25 61.148438 122.3125 61.324219 C 122.375 61.503906 122.578125 61.65625 122.921875 61.792969 L 123.765625 62.136719 L 123.453125 62.902344 L 122.609375 62.558594 C 121.972656 62.296875 121.585938 61.984375 121.453125 61.621094 C 121.328125 61.257813 121.40625 60.726563 121.6875 60.027344 L 122.921875 57.011719 L 122.3125 56.761719 L 122.609375 56.058594 L 123.21875 56.308594 L 123.859375 54.730469 Z M 124.671875 55.074219 "/>
<path style=" stroke:none;fill-rule:evenodd;fill:rgb(20%,20%,20%);fill-opacity:1;" d="M 69.652344 46.242188 C 69.859375 46.328125 70.058594 46.503906 70.246094 46.773438 C 70.433594 47.035156 70.621094 47.398438 70.808594 47.867188 L 71.714844 50.085938 L 70.667969 50.054688 L 69.824219 47.945313 C 69.605469 47.40625 69.386719 47.046875 69.167969 46.867188 C 68.949219 46.679688 68.644531 46.578125 68.261719 46.554688 L 67.199219 46.523438 L 67.074219 49.914063 L 66.089844 49.867188 L 66.402344 41.851563 L 68.605469 41.945313 C 69.4375 41.976563 70.046875 42.191406 70.433594 42.585938 C 70.816406 42.984375 70.996094 43.570313 70.964844 44.351563 C 70.941406 44.851563 70.824219 45.265625 70.605469 45.585938 C 70.386719 45.910156 70.066406 46.128906 69.652344 46.242188 Z M 67.339844 42.789063 L 67.230469 45.632813 L 68.449219 45.679688 C 68.925781 45.691406 69.292969 45.582031 69.542969 45.351563 C 69.792969 45.125 69.925781 44.773438 69.949219 44.304688 C 69.96875 43.835938 69.859375 43.476563 69.621094 43.226563 C 69.390625 42.976563 69.035156 42.847656 68.558594 42.835938 Z M 73.398438 44.265625 L 74.273438 44.421875 L 73.257813 50.359375 L 72.382813 50.203125 Z M 73.789063 41.96875 L 74.664063 42.125 L 74.460938 43.34375 L 73.585938 43.1875 Z M 79.464844 46.265625 L 80.042969 43.0625 L 80.933594 43.21875 L 79.449219 51.453125 L 78.558594 51.296875 L 78.714844 50.40625 C 78.472656 50.726563 78.199219 50.945313 77.886719 51.0625 C 77.574219 51.1875 77.21875 51.210938 76.824219 51.140625 C 76.175781 51.023438 75.703125 50.648438 75.402344 50.015625 C 75.097656 49.371094 75.03125 48.578125 75.199219 47.640625 C 75.363281 46.703125 75.703125 45.992188 76.214844 45.5 C 76.722656 45 77.300781 44.808594 77.949219 44.921875 C 78.34375 44.996094 78.667969 45.148438 78.917969 45.375 C 79.167969 45.59375 79.347656 45.890625 79.464844 46.265625 Z M 76.121094 47.8125 C 75.996094 48.53125 76.027344 49.121094 76.214844 49.578125 C 76.402344 50.027344 76.722656 50.292969 77.183594 50.375 C 77.652344 50.460938 78.050781 50.324219 78.386719 49.96875 C 78.730469 49.605469 78.964844 49.0625 79.089844 48.34375 C 79.214844 47.625 79.175781 47.042969 78.980469 46.59375 C 78.792969 46.136719 78.464844 45.867188 77.996094 45.78125 C 77.535156 45.699219 77.140625 45.839844 76.808594 46.203125 C 76.472656 46.558594 76.246094 47.09375 76.121094 47.8125 Z M 85.285156 49.378906 C 85.410156 48.671875 85.371094 48.105469 85.175781 47.675781 C 84.988281 47.238281 84.652344 46.980469 84.175781 46.894531 C 83.714844 46.8125 83.320313 46.941406 82.988281 47.285156 C 82.664063 47.621094 82.441406 48.140625 82.316406 48.847656 C 82.191406 49.546875 82.222656 50.113281 82.410156 50.550781 C 82.597656 50.988281 82.917969 51.25 83.378906 51.332031 C 83.855469 51.417969 84.261719 51.285156 84.597656 50.941406 C 84.929688 50.597656 85.160156 50.078125 85.285156 49.378906 Z M 85.753906 51.832031 C 85.574219 52.839844 85.238281 53.554688 84.738281 53.972656 C 84.246094 54.386719 83.585938 54.523438 82.753906 54.378906 C 82.449219 54.316406 82.164063 54.230469 81.894531 54.128906 C 81.632813 54.035156 81.386719 53.914063 81.160156 53.769531 L 81.316406 52.832031 C 81.542969 53.027344 81.777344 53.183594 82.019531 53.300781 C 82.257813 53.425781 82.503906 53.507813 82.753906 53.550781 C 83.324219 53.652344 83.785156 53.566406 84.128906 53.285156 C 84.480469 53.003906 84.714844 52.527344 84.832031 51.863281 L 84.925781 51.363281 C 84.683594 51.683594 84.410156 51.902344 84.097656 52.019531 C 83.785156 52.144531 83.429688 52.167969 83.035156 52.097656 C 82.378906 51.980469 81.898438 51.613281 81.597656 50.988281 C 81.292969 50.363281 81.226563 49.59375 81.394531 48.675781 C 81.558594 47.769531 81.894531 47.078125 82.394531 46.597656 C 82.894531 46.109375 83.472656 45.921875 84.128906 46.035156 C 84.523438 46.109375 84.847656 46.261719 85.097656 46.488281 C 85.347656 46.707031 85.527344 47.003906 85.644531 47.378906 L 85.800781 46.488281 L 86.691406 46.644531 Z M 92.546875 50.507813 L 92.453125 50.992188 L 88.4375 50.273438 C 88.351563 50.941406 88.441406 51.484375 88.703125 51.898438 C 88.972656 52.304688 89.398438 52.5625 89.984375 52.664063 C 90.316406 52.71875 90.644531 52.726563 90.96875 52.695313 C 91.300781 52.65625 91.644531 52.578125 92 52.460938 L 91.84375 53.367188 C 91.488281 53.460938 91.140625 53.515625 90.796875 53.539063 C 90.453125 53.558594 90.113281 53.539063 89.78125 53.476563 C 88.925781 53.320313 88.296875 52.921875 87.890625 52.289063 C 87.492188 51.65625 87.378906 50.863281 87.546875 49.914063 C 87.722656 48.945313 88.097656 48.222656 88.671875 47.742188 C 89.253906 47.253906 89.945313 47.082031 90.75 47.226563 C 91.46875 47.363281 91.984375 47.726563 92.296875 48.320313 C 92.617188 48.90625 92.703125 49.632813 92.546875 50.507813 Z M 91.71875 50.070313 C 91.800781 49.53125 91.742188 49.078125 91.546875 48.710938 C 91.347656 48.347656 91.035156 48.125 90.609375 48.039063 C 90.117188 47.957031 89.695313 48.046875 89.34375 48.304688 C 88.988281 48.554688 88.738281 48.957031 88.59375 49.507813 Z M 102.296875 47.976563 L 102.0625 48.992188 C 101.75 48.722656 101.441406 48.503906 101.140625 48.335938 C 100.835938 48.160156 100.539063 48.039063 100.25 47.976563 C 99.726563 47.851563 99.300781 47.875 98.96875 48.039063 C 98.632813 48.195313 98.421875 48.476563 98.328125 48.882813 C 98.253906 49.226563 98.285156 49.507813 98.421875 49.726563 C 98.566406 49.945313 98.890625 50.175781 99.390625 50.414063 L 99.921875 50.664063 C 100.597656 50.976563 101.0625 51.363281 101.3125 51.820313 C 101.5625 52.28125 101.613281 52.828125 101.46875 53.460938 C 101.289063 54.222656 100.929688 54.742188 100.390625 55.023438 C 99.847656 55.3125 99.132813 55.355469 98.25 55.148438 C 97.914063 55.0625 97.570313 54.933594 97.21875 54.757813 C 96.863281 54.589844 96.503906 54.382813 96.140625 54.132813 L 96.390625 53.039063 C 96.722656 53.382813 97.054688 53.660156 97.390625 53.867188 C 97.734375 54.066406 98.082031 54.207031 98.4375 54.289063 C 98.976563 54.414063 99.425781 54.390625 99.78125 54.226563 C 100.132813 54.050781 100.363281 53.75 100.46875 53.320313 C 100.550781 52.9375 100.507813 52.613281 100.34375 52.351563 C 100.1875 52.082031 99.882813 51.832031 99.4375 51.601563 L 98.859375 51.335938 C 98.191406 51.035156 97.738281 50.675781 97.5 50.257813 C 97.269531 49.84375 97.222656 49.335938 97.359375 48.742188 C 97.515625 48.054688 97.859375 47.566406 98.390625 47.273438 C 98.921875 46.972656 99.570313 46.910156 100.34375 47.085938 C 100.675781 47.171875 101.003906 47.285156 101.328125 47.429688 C 101.648438 47.578125 101.972656 47.757813 102.296875 47.976563 Z M 105.042969 48.65625 L 104.652344 50.3125 L 106.433594 50.734375 L 106.246094 51.46875 L 104.464844 51.046875 L 103.714844 54.234375 C 103.597656 54.703125 103.578125 55.023438 103.652344 55.1875 C 103.734375 55.34375 103.957031 55.46875 104.324219 55.5625 L 105.214844 55.765625 L 105.027344 56.578125 L 104.136719 56.375 C 103.46875 56.207031 103.042969 55.957031 102.855469 55.625 C 102.667969 55.292969 102.660156 54.761719 102.839844 54.03125 L 103.589844 50.84375 L 102.964844 50.6875 L 103.152344 49.953125 L 103.777344 50.109375 L 104.167969 48.453125 Z M 110.402344 52.636719 C 110.308594 52.554688 110.207031 52.480469 110.105469 52.417969 C 110 52.355469 109.878906 52.308594 109.746094 52.277344 C 109.246094 52.164063 108.824219 52.253906 108.480469 52.542969 C 108.144531 52.835938 107.894531 53.316406 107.730469 53.980469 L 106.996094 57.058594 L 106.105469 56.839844 L 107.511719 50.996094 L 108.402344 51.214844 L 108.183594 52.121094 C 108.441406 51.808594 108.738281 51.601563 109.074219 51.496094 C 109.40625 51.394531 109.78125 51.394531 110.199219 51.496094 C 110.25 51.507813 110.3125 51.527344 110.386719 51.558594 C 110.46875 51.582031 110.546875 51.613281 110.621094 51.652344 Z M 115.160156 56.210938 L 115.003906 56.679688 L 111.128906 55.351563 C 110.941406 56 110.945313 56.546875 111.144531 56.992188 C 111.339844 57.429688 111.714844 57.742188 112.269531 57.929688 C 112.589844 58.042969 112.917969 58.105469 113.253906 58.117188 C 113.585938 58.125 113.933594 58.105469 114.300781 58.054688 L 114.003906 58.929688 C 113.648438 58.960938 113.300781 58.960938 112.957031 58.929688 C 112.621094 58.898438 112.289063 58.824219 111.957031 58.710938 C 111.144531 58.429688 110.585938 57.945313 110.285156 57.257813 C 109.992188 56.5625 109.996094 55.757813 110.300781 54.851563 C 110.621094 53.925781 111.101563 53.269531 111.738281 52.882813 C 112.382813 52.488281 113.089844 52.425781 113.863281 52.695313 C 114.550781 52.925781 115.007813 53.359375 115.238281 53.992188 C 115.476563 54.628906 115.449219 55.367188 115.160156 56.210938 Z M 114.410156 55.632813 C 114.574219 55.125 114.585938 54.675781 114.441406 54.289063 C 114.304688 53.90625 114.027344 53.640625 113.613281 53.492188 C 113.132813 53.328125 112.699219 53.34375 112.316406 53.539063 C 111.929688 53.738281 111.628906 54.09375 111.410156 54.601563 Z M 120.824219 58.339844 L 120.652344 58.792969 L 116.824219 57.339844 C 116.636719 57.996094 116.636719 58.550781 116.824219 58.996094 C 117.011719 59.441406 117.375 59.769531 117.917969 59.980469 C 118.238281 60.105469 118.5625 60.175781 118.886719 60.199219 C 119.21875 60.21875 119.566406 60.203125 119.933594 60.152344 L 119.605469 61.011719 C 119.25 61.042969 118.902344 61.03125 118.558594 60.980469 C 118.214844 60.9375 117.878906 60.859375 117.558594 60.746094 C 116.753906 60.441406 116.214844 59.941406 115.933594 59.246094 C 115.660156 58.539063 115.699219 57.738281 116.042969 56.839844 C 116.386719 55.925781 116.878906 55.285156 117.527344 54.917969 C 118.183594 54.542969 118.890625 54.496094 119.652344 54.777344 C 120.328125 55.039063 120.769531 55.492188 120.980469 56.136719 C 121.199219 56.773438 121.144531 57.507813 120.824219 58.339844 Z M 120.105469 57.746094 C 120.28125 57.238281 120.300781 56.785156 120.167969 56.386719 C 120.042969 55.992188 119.777344 55.722656 119.371094 55.574219 C 118.902344 55.398438 118.46875 55.402344 118.074219 55.589844 C 117.6875 55.769531 117.375 56.117188 117.136719 56.636719 Z M 124.671875 55.074219 L 124.03125 56.652344 L 125.734375 57.339844 L 125.4375 58.042969 L 123.734375 57.355469 L 122.5 60.371094 C 122.3125 60.832031 122.25 61.148438 122.3125 61.324219 C 122.375 61.503906 122.578125 61.65625 122.921875 61.792969 L 123.765625 62.136719 L 123.453125 62.902344 L 122.609375 62.558594 C 121.972656 62.296875 121.585938 61.984375 121.453125 61.621094 C 121.328125 61.257813 121.40625 60.726563 121.6875 60.027344 L 122.921875 57.011719 L 122.3125 56.761719 L 122.609375 56.058594 L 123.21875 56.308594 L 123.859375 54.730469 Z M 124.671875 55.074219 "/>
<path style="fill:none;stroke-width:3;stroke-linecap:round;stroke-linejoin:round;stroke:rgb(100%,100%,100%);stroke-opacity:1;stroke-miterlimit:10;" d="M 147.875 20.882813 L 147.875 22.039063 C 147.539063 21.695313 147.1875 21.441406 146.8125 21.273438 C 146.445313 21.109375 146.054688 21.023438 145.640625 21.023438 C 144.816406 21.023438 144.179688 21.304688 143.734375 21.867188 C 143.296875 22.421875 143.078125 23.226563 143.078125 24.289063 C 143.078125 25.34375 143.296875 26.148438 143.734375 26.710938 C 144.179688 27.273438 144.816406 27.554688 145.640625 27.554688 C 146.054688 27.554688 146.445313 27.472656 146.8125 27.304688 C 147.1875 27.140625 147.539063 26.882813 147.875 26.539063 L 147.875 27.664063 C 147.53125 27.925781 147.164063 28.125 146.78125 28.257813 C 146.40625 28.382813 146.003906 28.445313 145.578125 28.445313 C 144.484375 28.445313 143.625 28.078125 143 27.335938 C 142.375 26.585938 142.0625 25.570313 142.0625 24.289063 C 142.0625 23 142.375 21.984375 143 21.242188 C 143.625 20.492188 144.484375 20.117188 145.578125 20.117188 C 146.015625 20.117188 146.421875 20.1875 146.796875 20.320313 C 147.179688 20.445313 147.539063 20.632813 147.875 20.882813 Z M 151.796875 25.257813 C 151.078125 25.257813 150.578125 25.351563 150.296875 25.539063 C 150.023438 25.726563 149.890625 26.039063 149.890625 26.476563 C 149.890625 26.820313 149.992188 27.097656 150.203125 27.304688 C 150.410156 27.515625 150.691406 27.617188 151.046875 27.617188 C 151.546875 27.617188 151.941406 27.425781 152.234375 27.039063 C 152.535156 26.644531 152.6875 26.128906 152.6875 25.492188 L 152.6875 25.257813 Z M 153.578125 24.851563 L 153.578125 28.289063 L 152.6875 28.289063 L 152.6875 27.382813 C 152.476563 27.75 152.222656 28.019531 151.921875 28.195313 C 151.617188 28.359375 151.25 28.445313 150.8125 28.445313 C 150.257813 28.445313 149.816406 28.273438 149.484375 27.929688 C 149.160156 27.585938 149 27.125 149 26.539063 C 149 25.863281 149.203125 25.351563 149.609375 25.007813 C 150.015625 24.664063 150.625 24.492188 151.4375 24.492188 L 152.6875 24.492188 L 152.6875 24.398438 C 152.6875 23.941406 152.550781 23.585938 152.28125 23.335938 C 152.007813 23.085938 151.628906 22.960938 151.140625 22.960938 C 150.835938 22.960938 150.535156 23.003906 150.234375 23.085938 C 149.941406 23.171875 149.660156 23.296875 149.390625 23.460938 L 149.390625 22.554688 C 149.722656 22.410156 150.039063 22.304688 150.34375 22.242188 C 150.644531 22.171875 150.941406 22.132813 151.234375 22.132813 C 152.015625 22.132813 152.597656 22.359375 152.984375 22.804688 C 153.378906 23.253906 153.578125 23.9375 153.578125 24.851563 Z M 155.40625 19.929688 L 156.296875 19.929688 L 156.296875 28.289063 L 155.40625 28.289063 Z M 160.609375 25.257813 C 159.890625 25.257813 159.390625 25.351563 159.109375 25.539063 C 158.835938 25.726563 158.703125 26.039063 158.703125 26.476563 C 158.703125 26.820313 158.804688 27.097656 159.015625 27.304688 C 159.222656 27.515625 159.503906 27.617188 159.859375 27.617188 C 160.359375 27.617188 160.753906 27.425781 161.046875 27.039063 C 161.347656 26.644531 161.5 26.128906 161.5 25.492188 L 161.5 25.257813 Z M 162.390625 24.851563 L 162.390625 28.289063 L 161.5 28.289063 L 161.5 27.382813 C 161.289063 27.75 161.035156 28.019531 160.734375 28.195313 C 160.429688 28.359375 160.0625 28.445313 159.625 28.445313 C 159.070313 28.445313 158.628906 28.273438 158.296875 27.929688 C 157.972656 27.585938 157.8125 27.125 157.8125 26.539063 C 157.8125 25.863281 158.015625 25.351563 158.421875 25.007813 C 158.828125 24.664063 159.4375 24.492188 160.25 24.492188 L 161.5 24.492188 L 161.5 24.398438 C 161.5 23.941406 161.363281 23.585938 161.09375 23.335938 C 160.820313 23.085938 160.441406 22.960938 159.953125 22.960938 C 159.648438 22.960938 159.347656 23.003906 159.046875 23.085938 C 158.753906 23.171875 158.472656 23.296875 158.203125 23.460938 L 158.203125 22.554688 C 158.535156 22.410156 158.851563 22.304688 159.15625 22.242188 C 159.457031 22.171875 159.753906 22.132813 160.046875 22.132813 C 160.828125 22.132813 161.410156 22.359375 161.796875 22.804688 C 162.191406 23.253906 162.390625 23.9375 162.390625 24.851563 Z M 168.71875 24.664063 L 168.71875 28.289063 L 167.828125 28.289063 L 167.828125 24.695313 C 167.828125 24.125 167.722656 23.695313 167.515625 23.414063 C 167.316406 23.132813 167.019531 22.992188 166.625 22.992188 C 166.144531 22.992188 165.765625 23.164063 165.484375 23.507813 C 165.210938 23.84375 165.078125 24.300781 165.078125 24.882813 L 165.078125 28.289063 L 164.171875 28.289063 L 164.171875 19.929688 L 165.078125 19.929688 L 165.078125 23.210938 C 165.285156 22.847656 165.53125 22.578125 165.8125 22.398438 C 166.101563 22.222656 166.441406 22.132813 166.828125 22.132813 C 167.441406 22.132813 167.910156 22.347656 168.234375 22.773438 C 168.554688 23.203125 168.71875 23.832031 168.71875 24.664063 Z M 172.953125 25.257813 C 172.234375 25.257813 171.734375 25.351563 171.453125 25.539063 C 171.179688 25.726563 171.046875 26.039063 171.046875 26.476563 C 171.046875 26.820313 171.148438 27.097656 171.359375 27.304688 C 171.566406 27.515625 171.847656 27.617188 172.203125 27.617188 C 172.703125 27.617188 173.097656 27.425781 173.390625 27.039063 C 173.691406 26.644531 173.84375 26.128906 173.84375 25.492188 L 173.84375 25.257813 Z M 174.734375 24.851563 L 174.734375 28.289063 L 173.84375 28.289063 L 173.84375 27.382813 C 173.632813 27.75 173.378906 28.019531 173.078125 28.195313 C 172.773438 28.359375 172.40625 28.445313 171.96875 28.445313 C 171.414063 28.445313 170.972656 28.273438 170.640625 27.929688 C 170.316406 27.585938 170.15625 27.125 170.15625 26.539063 C 170.15625 25.863281 170.359375 25.351563 170.765625 25.007813 C 171.171875 24.664063 171.78125 24.492188 172.59375 24.492188 L 173.84375 24.492188 L 173.84375 24.398438 C 173.84375 23.941406 173.707031 23.585938 173.4375 23.335938 C 173.164063 23.085938 172.785156 22.960938 172.296875 22.960938 C 171.992188 22.960938 171.691406 23.003906 171.390625 23.085938 C 171.097656 23.171875 170.816406 23.296875 170.546875 23.460938 L 170.546875 22.554688 C 170.878906 22.410156 171.195313 22.304688 171.5 22.242188 C 171.800781 22.171875 172.097656 22.132813 172.390625 22.132813 C 173.171875 22.132813 173.753906 22.359375 174.140625 22.804688 C 174.535156 23.253906 174.734375 23.9375 174.734375 24.851563 Z M 181.0625 24.664063 L 181.0625 28.289063 L 180.171875 28.289063 L 180.171875 24.695313 C 180.171875 24.125 180.066406 23.695313 179.859375 23.414063 C 179.660156 23.132813 179.363281 22.992188 178.96875 22.992188 C 178.488281 22.992188 178.109375 23.164063 177.828125 23.507813 C 177.554688 23.84375 177.421875 24.300781 177.421875 24.882813 L 177.421875 28.289063 L 176.515625 28.289063 L 176.515625 22.273438 L 177.421875 22.273438 L 177.421875 23.210938 C 177.628906 22.847656 177.875 22.578125 178.15625 22.398438 C 178.445313 22.222656 178.785156 22.132813 179.171875 22.132813 C 179.785156 22.132813 180.253906 22.347656 180.578125 22.773438 C 180.898438 23.203125 181.0625 23.832031 181.0625 24.664063 Z M 151.453125 32.164063 L 151.453125 35.179688 L 152.671875 35.179688 C 153.128906 35.179688 153.484375 35.050781 153.734375 34.789063 C 153.984375 34.519531 154.109375 34.144531 154.109375 33.664063 C 154.109375 33.1875 153.984375 32.816406 153.734375 32.554688 C 153.484375 32.296875 153.128906 32.164063 152.671875 32.164063 Z M 150.46875 31.273438 L 152.671875 31.273438 C 153.484375 31.273438 154.09375 31.476563 154.5 31.882813 C 154.914063 32.289063 155.125 32.882813 155.125 33.664063 C 155.125 34.457031 154.914063 35.054688 154.5 35.460938 C 154.09375 35.867188 153.484375 36.070313 152.671875 36.070313 L 151.453125 36.070313 L 151.453125 39.289063 L 150.46875 39.289063 Z M 158.5 33.960938 C 158.019531 33.960938 157.640625 34.171875 157.359375 34.585938 C 157.085938 35.003906 156.953125 35.570313 156.953125 36.289063 C 156.953125 37.007813 157.085938 37.578125 157.359375 37.992188 C 157.640625 38.398438 158.019531 38.601563 158.5 38.601563 C 158.976563 38.601563 159.351563 38.398438 159.625 37.992188 C 159.90625 37.578125 160.046875 37.007813 160.046875 36.289063 C 160.046875 35.570313 159.90625 35.003906 159.625 34.585938 C 159.351563 34.171875 158.976563 33.960938 158.5 33.960938 Z M 158.5 33.132813 C 159.269531 33.132813 159.875 33.414063 160.3125 33.976563 C 160.757813 34.53125 160.984375 35.300781 160.984375 36.289063 C 160.984375 37.269531 160.757813 38.039063 160.3125 38.601563 C 159.875 39.164063 159.269531 39.445313 158.5 39.445313 C 157.71875 39.445313 157.109375 39.164063 156.671875 38.601563 C 156.234375 38.039063 156.015625 37.269531 156.015625 36.289063 C 156.015625 35.300781 156.234375 34.53125 156.671875 33.976563 C 157.109375 33.414063 157.71875 33.132813 158.5 33.132813 Z M 166.953125 35.664063 L 166.953125 39.289063 L 166.0625 39.289063 L 166.0625 35.695313 C 166.0625 35.125 165.957031 34.695313 165.75 34.414063 C 165.550781 34.132813 165.253906 33.992188 164.859375 33.992188 C 164.378906 33.992188 164 34.164063 163.71875 34.507813 C 163.445313 34.84375 163.3125 35.300781 163.3125 35.882813 L 163.3125 39.289063 L 162.40625 39.289063 L 162.40625 33.273438 L 163.3125 33.273438 L 163.3125 34.210938 C 163.519531 33.847656 163.765625 33.578125 164.046875 33.398438 C 164.335938 33.222656 164.675781 33.132813 165.0625 33.132813 C 165.675781 33.132813 166.144531 33.347656 166.46875 33.773438 C 166.789063 34.203125 166.953125 34.832031 166.953125 35.664063 Z M 172.296875 34.179688 L 172.296875 30.929688 L 173.1875 30.929688 L 173.1875 39.289063 L 172.296875 39.289063 L 172.296875 38.382813 C 172.109375 38.75 171.867188 39.019531 171.578125 39.195313 C 171.296875 39.359375 170.957031 39.445313 170.5625 39.445313 C 169.90625 39.445313 169.367188 39.160156 168.953125 38.585938 C 168.546875 38.003906 168.34375 37.238281 168.34375 36.289063 C 168.34375 35.34375 168.546875 34.582031 168.953125 34.007813 C 169.367188 33.425781 169.90625 33.132813 170.5625 33.132813 C 170.957031 33.132813 171.296875 33.222656 171.578125 33.398438 C 171.867188 33.566406 172.109375 33.828125 172.296875 34.179688 Z M 169.265625 36.289063 C 169.265625 37.019531 169.394531 37.59375 169.65625 38.007813 C 169.925781 38.414063 170.296875 38.617188 170.765625 38.617188 C 171.242188 38.617188 171.617188 38.414063 171.890625 38.007813 C 172.160156 37.59375 172.296875 37.019531 172.296875 36.289063 C 172.296875 35.5625 172.160156 34.992188 171.890625 34.585938 C 171.617188 34.171875 171.242188 33.960938 170.765625 33.960938 C 170.296875 33.960938 169.925781 34.171875 169.65625 34.585938 C 169.394531 34.992188 169.265625 35.5625 169.265625 36.289063 Z M 169.265625 36.289063 "/>
<path style=" stroke:none;fill-rule:evenodd;fill:rgb(41.960784%,58.039216%,69.019608%);fill-opacity:1;" d="M 147.875 20.882813 L 147.875 22.039063 C 147.539063 21.695313 147.1875 21.441406 146.8125 21.273438 C 146.445313 21.109375 146.054688 21.023438 145.640625 21.023438 C 144.816406 21.023438 144.179688 21.304688 143.734375 21.867188 C 143.296875 22.421875 143.078125 23.226563 143.078125 24.289063 C 143.078125 25.34375 143.296875 26.148438 143.734375 26.710938 C 144.179688 27.273438 144.816406 27.554688 145.640625 27.554688 C 146.054688 27.554688 146.445313 27.472656 146.8125 27.304688 C 147.1875 27.140625 147.539063 26.882813 147.875 26.539063 L 147.875 27.664063 C 147.53125 27.925781 147.164063 28.125 146.78125 28.257813 C 146.40625 28.382813 146.003906 28.445313 145.578125 28.445313 C 144.484375 28.445313 143.625 28.078125 143 27.335938 C 142.375 26.585938 142.0625 25.570313 142.0625 24.289063 C 142.0625 23 142.375 21.984375 143 21.242188 C 143.625 20.492188 144.484375 20.117188 145.578125 20.117188 C 146.015625 20.117188 146.421875 20.1875 146.796875 20.320313 C 147.179688 20.445313 147.539063 20.632813 147.875 20.882813 Z M 151.796875 25.257813 C 151.078125 25.257813 150.578125 25.351563 150.296875 25.539063 C 150.023438 25.726563 149.890625 26.039063 149.890625 26.476563 C 149.890625 26.820313 149.992188 27.097656 150.203125 27.304688 C 150.410156 27.515625 150.691406 27.617188 151.046875 27.617188 C 151.546875 27.617188 151.941406 27.425781 152.234375 27.039063 C 152.535156 26.644531 152.6875 26.128906 152.6875 25.492188 L 152.6875 25.257813 Z M 153.578125 24.851563 L 153.578125 28.289063 L 152.6875 28.289063 L 152.6875 27.382813 C 152.476563 27.75 152.222656 28.019531 151.921875 28.195313 C 151.617188 28.359375 151.25 28.445313 150.8125 28.445313 C 150.257813 28.445313 149.816406 28.273438 149.484375 27.929688 C 149.160156 27.585938 149 27.125 149 26.539063 C 149 25.863281 149.203125 25.351563 149.609375 25.007813 C 150.015625 24.664063 150.625 24.492188 151.4375 24.492188 L 152.6875 24.492188 L 152.6875 24.398438 C 152.6875 23.941406 152.550781 23.585938 152.28125 23.335938 C 152.007813 23.085938 151.628906 22.960938 151.140625 22.960938 C 150.835938 22.960938 150.535156 23.003906 150.234375 23.085938 C 149.941406 23.171875 149.660156 23.296875 149.390625 23.460938 L 149.390625 22.554688 C 149.722656 22.410156 150.039063 22.304688 150.34375 22.242188 C 150.644531 22.171875 150.941406 22.132813 151.234375 22.132813 C 152.015625 22.132813 152.597656 22.359375 152.984375 22.804688 C 153.378906 23.253906 153.578125 23.9375 153.578125 24.851563 Z M 155.40625 19.929688 L 156.296875 19.929688 L 156.296875 28.289063 L 155.40625 28.289063 Z M 160.609375 25.257813 C 159.890625 25.257813 159.390625 25.351563 159.109375 25.539063 C 158.835938 25.726563 158.703125 26.039063 158.703125 26.476563 C 158.703125 26.820313 158.804688 27.097656 159.015625 27.304688 C 159.222656 27.515625 159.503906 27.617188 159.859375 27.617188 C 160.359375 27.617188 160.753906 27.425781 161.046875 27.039063 C 161.347656 26.644531 161.5 26.128906 161.5 25.492188 L 161.5 25.257813 Z M 162.390625 24.851563 L 162.390625 28.289063 L 161.5 28.289063 L 161.5 27.382813 C 161.289063 27.75 161.035156 28.019531 160.734375 28.195313 C 160.429688 28.359375 160.0625 28.445313 159.625 28.445313 C 159.070313 28.445313 158.628906 28.273438 158.296875 27.929688 C 157.972656 27.585938 157.8125 27.125 157.8125 26.539063 C 157.8125 25.863281 158.015625 25.351563 158.421875 25.007813 C 158.828125 24.664063 159.4375 24.492188 160.25 24.492188 L 161.5 24.492188 L 161.5 24.398438 C 161.5 23.941406 161.363281 23.585938 161.09375 23.335938 C 160.820313 23.085938 160.441406 22.960938 159.953125 22.960938 C 159.648438 22.960938 159.347656 23.003906 159.046875 23.085938 C 158.753906 23.171875 158.472656 23.296875 158.203125 23.460938 L 158.203125 22.554688 C 158.535156 22.410156 158.851563 22.304688 159.15625 22.242188 C 159.457031 22.171875 159.753906 22.132813 160.046875 22.132813 C 160.828125 22.132813 161.410156 22.359375 161.796875 22.804688 C 162.191406 23.253906 162.390625 23.9375 162.390625 24.851563 Z M 168.71875 24.664063 L 168.71875 28.289063 L 167.828125 28.289063 L 167.828125 24.695313 C 167.828125 24.125 167.722656 23.695313 167.515625 23.414063 C 167.316406 23.132813 167.019531 22.992188 166.625 22.992188 C 166.144531 22.992188 165.765625 23.164063 165.484375 23.507813 C 165.210938 23.84375 165.078125 24.300781 165.078125 24.882813 L 165.078125 28.289063 L 164.171875 28.289063 L 164.171875 19.929688 L 165.078125 19.929688 L 165.078125 23.210938 C 165.285156 22.847656 165.53125 22.578125 165.8125 22.398438 C 166.101563 22.222656 166.441406 22.132813 166.828125 22.132813 C 167.441406 22.132813 167.910156 22.347656 168.234375 22.773438 C 168.554688 23.203125 168.71875 23.832031 168.71875 24.664063 Z M 172.953125 25.257813 C 172.234375 25.257813 171.734375 25.351563 171.453125 25.539063 C 171.179688 25.726563 171.046875 26.039063 171.046875 26.476563 C 171.046875 26.820313 171.148438 27.097656 171.359375 27.304688 C 171.566406 27.515625 171.847656 27.617188 172.203125 27.617188 C 172.703125 27.617188 173.097656 27.425781 173.390625 27.039063 C 173.691406 26.644531 173.84375 26.128906 173.84375 25.492188 L 173.84375 25.257813 Z M 174.734375 24.851563 L 174.734375 28.289063 L 173.84375 28.289063 L 173.84375 27.382813 C 173.632813 27.75 173.378906 28.019531 173.078125 28.195313 C 172.773438 28.359375 172.40625 28.445313 171.96875 28.445313 C 171.414063 28.445313 170.972656 28.273438 170.640625 27.929688 C 170.316406 27.585938 170.15625 27.125 170.15625 26.539063 C 170.15625 25.863281 170.359375 25.351563 170.765625 25.007813 C 171.171875 24.664063 171.78125 24.492188 172.59375 24.492188 L 173.84375 24.492188 L 173.84375 24.398438 C 173.84375 23.941406 173.707031 23.585938 173.4375 23.335938 C 173.164063 23.085938 172.785156 22.960938 172.296875 22.960938 C 171.992188 22.960938 171.691406 23.003906 171.390625 23.085938 C 171.097656 23.171875 170.816406 23.296875 170.546875 23.460938 L 170.546875 22.554688 C 170.878906 22.410156 171.195313 22.304688 171.5 22.242188 C 171.800781 22.171875 172.097656 22.132813 172.390625 22.132813 C 173.171875 22.132813 173.753906 22.359375 174.140625 22.804688 C 174.535156 23.253906 174.734375 23.9375 174.734375 24.851563 Z M 181.0625 24.664063 L 181.0625 28.289063 L 180.171875 28.289063 L 180.171875 24.695313 C 180.171875 24.125 180.066406 23.695313 179.859375 23.414063 C 179.660156 23.132813 179.363281 22.992188 178.96875 22.992188 C 178.488281 22.992188 178.109375 23.164063 177.828125 23.507813 C 177.554688 23.84375 177.421875 24.300781 177.421875 24.882813 L 177.421875 28.289063 L 176.515625 28.289063 L 176.515625 22.273438 L 177.421875 22.273438 L 177.421875 23.210938 C 177.628906 22.847656 177.875 22.578125 178.15625 22.398438 C 178.445313 22.222656 178.785156 22.132813 179.171875 22.132813 C 179.785156 22.132813 180.253906 22.347656 180.578125 22.773438 C 180.898438 23.203125 181.0625 23.832031 181.0625 24.664063 Z M 151.453125 32.164063 L 151.453125 35.179688 L 152.671875 35.179688 C 153.128906 35.179688 153.484375 35.050781 153.734375 34.789063 C 153.984375 34.519531 154.109375 34.144531 154.109375 33.664063 C 154.109375 33.1875 153.984375 32.816406 153.734375 32.554688 C 153.484375 32.296875 153.128906 32.164063 152.671875 32.164063 Z M 150.46875 31.273438 L 152.671875 31.273438 C 153.484375 31.273438 154.09375 31.476563 154.5 31.882813 C 154.914063 32.289063 155.125 32.882813 155.125 33.664063 C 155.125 34.457031 154.914063 35.054688 154.5 35.460938 C 154.09375 35.867188 153.484375 36.070313 152.671875 36.070313 L 151.453125 36.070313 L 151.453125 39.289063 L 150.46875 39.289063 Z M 158.5 33.960938 C 158.019531 33.960938 157.640625 34.171875 157.359375 34.585938 C 157.085938 35.003906 156.953125 35.570313 156.953125 36.289063 C 156.953125 37.007813 157.085938 37.578125 157.359375 37.992188 C 157.640625 38.398438 158.019531 38.601563 158.5 38.601563 C 158.976563 38.601563 159.351563 38.398438 159.625 37.992188 C 159.90625 37.578125 160.046875 37.007813 160.046875 36.289063 C 160.046875 35.570313 159.90625 35.003906 159.625 34.585938 C 159.351563 34.171875 158.976563 33.960938 158.5 33.960938 Z M 158.5 33.132813 C 159.269531 33.132813 159.875 33.414063 160.3125 33.976563 C 160.757813 34.53125 160.984375 35.300781 160.984375 36.289063 C 160.984375 37.269531 160.757813 38.039063 160.3125 38.601563 C 159.875 39.164063 159.269531 39.445313 158.5 39.445313 C 157.71875 39.445313 157.109375 39.164063 156.671875 38.601563 C 156.234375 38.039063 156.015625 37.269531 156.015625 36.289063 C 156.015625 35.300781 156.234375 34.53125 156.671875 33.976563 C 157.109375 33.414063 157.71875 33.132813 158.5 33.132813 Z M 166.953125 35.664063 L 166.953125 39.289063 L 166.0625 39.289063 L 166.0625 35.695313 C 166.0625 35.125 165.957031 34.695313 165.75 34.414063 C 165.550781 34.132813 165.253906 33.992188 164.859375 33.992188 C 164.378906 33.992188 164 34.164063 163.71875 34.507813 C 163.445313 34.84375 163.3125 35.300781 163.3125 35.882813 L 163.3125 39.289063 L 162.40625 39.289063 L 162.40625 33.273438 L 163.3125 33.273438 L 163.3125 34.210938 C 163.519531 33.847656 163.765625 33.578125 164.046875 33.398438 C 164.335938 33.222656 164.675781 33.132813 165.0625 33.132813 C 165.675781 33.132813 166.144531 33.347656 166.46875 33.773438 C 166.789063 34.203125 166.953125 34.832031 166.953125 35.664063 Z M 172.296875 34.179688 L 172.296875 30.929688 L 173.1875 30.929688 L 173.1875 39.289063 L 172.296875 39.289063 L 172.296875 38.382813 C 172.109375 38.75 171.867188 39.019531 171.578125 39.195313 C 171.296875 39.359375 170.957031 39.445313 170.5625 39.445313 C 169.90625 39.445313 169.367188 39.160156 168.953125 38.585938 C 168.546875 38.003906 168.34375 37.238281 168.34375 36.289063 C 168.34375 35.34375 168.546875 34.582031 168.953125 34.007813 C 169.367188 33.425781 169.90625 33.132813 170.5625 33.132813 C 170.957031 33.132813 171.296875 33.222656 171.578125 33.398438 C 171.867188 33.566406 172.109375 33.828125 172.296875 34.179688 Z M 169.265625 36.289063 C 169.265625 37.019531 169.394531 37.59375 169.65625 38.007813 C 169.925781 38.414063 170.296875 38.617188 170.765625 38.617188 C 171.242188 38.617188 171.617188 38.414063 171.890625 38.007813 C 172.160156 37.59375 172.296875 37.019531 172.296875 36.289063 C 172.296875 35.5625 172.160156 34.992188 171.890625 34.585938 C 171.617188 34.171875 171.242188 33.960938 170.765625 33.960938 C 170.296875 33.960938 169.925781 34.171875 169.65625 34.585938 C 169.394531 34.992188 169.265625 35.5625 169.265625 36.289063 Z M 169.265625 36.289063 "/>
</g>
</svg>

