<?xml version="1.0" encoding="UTF-8"?>
<svg xmlns="http://www.w3.org/2000/svg" xmlns:xlink="http://www.w3.org/1999/xlink" width="256pt" height="256pt" viewBox="0 0 256 256" version="1.1">
<g id="surface2">
<rect x="0" y="0" width="256" height="256" style="fill:rgb(94.901961%,93.72549%,91.372549%);fill-opacity:1;stroke:none;"/>
<path style="fill:none;stroke-width:2;stroke-linecap:round;stroke-linejoin:round;stroke:rgb(60%,70.196078%,80%);stroke-opacity:1;stroke-miterlimit:10;" d="M -3 219.019531 L 11.496094 194.011719 L 22.148438 175.714844 L 35 174.515625 L 38.648438 162.714844 L 35.496094 151.015625 L 35.644531 140.710938 L 39.496094 130.011719 L 48.644531 125.214844 L 56.648438 113.214844 L 57.148438 100.214844 L 61.496094 85.511719 L 55.496094 75.515625 L 44.996094 69.511719 L 53.648438 60.214844 L 58.144531 36.210938 L 62.496094 29.511719 L 66.496094 14.511719 L 82.648438 4.214844 L 92.496094 -2.488281 L 93.523438 -3 "/>
<path style="fill:none;stroke-width:1;stroke-linecap:round;stroke-linejoin:round;stroke:rgb(100%,100%,100%);stroke-opacity:1;stroke-dasharray:2,3;stroke-miterlimit:10;" d="M 257 138.886719 L 255.765625 138.84375 L 235.992188 150.574219 L 218.867188 148.449219 L 204.054688 139.417969 L 188.304688 148.980469 L 178.46875 172.433594 L 164.804688 179.792969 L 130.988281 210.355469 L 96.492188 220.605469 L 91.304688 236.023438 L 82.117188 239.722656 L 62.804688 233.980469 L 43.804688 236.980469 L 27.9375 233.464844 L 12.804688 237.730469 L -2 249.808594 "/>
</g>
</svg>

