<?xml version="1.0" encoding="UTF-8"?>
<svg xmlns="http://www.w3.org/2000/svg" xmlns:xlink="http://www.w3.org/1999/xlink" width="256pt" height="256pt" viewBox="0 0 256 256" version="1.1">
<g id="surface2">
<rect x="0" y="0" width="256" height="256" style="fill:rgb(94.901961%,93.72549%,91.372549%);fill-opacity:1;stroke:none;"/>
<path style=" stroke:none;fill-rule:evenodd;fill:rgb(60%,70.196078%,80%);fill-opacity:1;" d="M -4 -4 L 259 -4 L 259 259 L 259 -4 Z M -4 -4 "/>
<path style="fill:none;stroke-width:1;stroke-linecap:round;stroke-linejoin:round;stroke:rgb(70.196078%,77.647059%,83.137255%);stroke-opacity:1;stroke-miterlimit:10;" d="M -4 -4 L 259 -4 L 259 259 L 259 -4 L -4 -4 "/>
<path style="fill:none;stroke-width:8;stroke-linecap:round;stroke-linejoin:round;stroke:rgb(75.686275%,70.980392%,61.568627%);stroke-opacity:1;stroke-miterlimit:10;" d="M 264 222.03125 L 262.0625 222.546875 L 258.800781 223.0625 L 250.96875 223.703125 L 236.058594 224.023438 L 230.277344 224.726563 L 224.21875 226.648438 L 212.429688 232.226563 L 199.613281 241.710938 L 172.046875 255.9375 L 164.871094 261.898438 L 162.710938 264 "/>
<path style="fill:none;stroke-width:6;stroke-linecap:round;stroke-linejoin:round;stroke:rgb(100%,100%,100%);stroke-opacity:1;stroke-miterlimit:10;" d="M 264 222.03125 L 262.0625 222.546875 L 258.800781 223.0625 L 250.96875 223.703125 L 236.058594 224.023438 L 230.277344 224.726563 L 224.21875 226.648438 L 212.429688 232.226563 L 199.613281 241.710938 L 172.046875 255.9375 L 164.871094 261.898438 L 162.710938 264 "/>
</g>
</svg>

