<?xml version="1.0" encoding="UTF-8"?>
<svg xmlns="http://www.w3.org/2000/svg" xmlns:xlink="http://www.w3.org/1999/xlink" width="256pt" height="256pt" viewBox="0 0 256 256" version="1.1">
<g id="surface2">
<rect x="0" y="0" width="256" height="256" style="fill:rgb(94.901961%,93.72549%,91.372549%);fill-opacity:1;stroke:none;"/>
<path style="fill:none;stroke-width:8;stroke-linecap:round;stroke-linejoin:round;stroke:rgb(75.686275%,70.980392%,61.568627%);stroke-opacity:1;stroke-miterlimit:10;" d="M 14.085938 264 L 14.863281 263.148438 L 24.367188 256.023438 L 29.496094 251.1875 L 31.195313 248.3125 L 31.570313 245.433594 L 31.171875 242.363281 L 30.519531 240.859375 L 27.398438 237.492188 L 25.019531 235.664063 L 16.890625 231.25 L 7.523438 226.609375 L 0.414063 223.601563 L -6.738281 220.957031 L -9 220.4375 "/>
<path style="fill:none;stroke-width:6;stroke-linecap:round;stroke-linejoin:round;stroke:rgb(100%,100%,100%);stroke-opacity:1;stroke-miterlimit:10;" d="M 14.085938 264 L 14.863281 263.148438 L 24.367188 256.023438 L 29.496094 251.1875 L 31.195313 248.3125 L 31.570313 245.433594 L 31.171875 242.363281 L 30.519531 240.859375 L 27.398438 237.492188 L 25.019531 235.664063 L 16.890625 231.25 L 7.523438 226.609375 L 0.414063 223.601563 L -6.738281 220.957031 L -9 220.4375 "/>
</g>
</svg>

