<?xml version="1.0" encoding="UTF-8"?>
<svg xmlns="http://www.w3.org/2000/svg" xmlns:xlink="http://www.w3.org/1999/xlink" width="256pt" height="256pt" viewBox="0 0 256 256" version="1.1">
<g id="surface2">
<rect x="0" y="0" width="256" height="256" style="fill:rgb(94.901961%,93.72549%,91.372549%);fill-opacity:1;stroke:none;"/>
<path style="fill:none;stroke-width:8;stroke-linecap:round;stroke-linejoin:round;stroke:rgb(75.686275%,70.980392%,61.568627%);stroke-opacity:1;stroke-miterlimit:10;" d="M 10.644531 264 L 14.203125 260.125 L 21.472656 251.566406 L 23.148438 249.292969 L 67.839844 178.113281 L 78.304688 161.945313 L 88.277344 147.921875 L 100.300781 132.320313 L 105.195313 124.457031 L 107.292969 120.699219 L 108.78125 117.097656 L 113.375 103.332031 L 114.957031 98.941406 L 119.058594 88.960938 L 122.34375 82.328125 L 124.929688 75.792969 L 129.519531 62.9375 L 135.929688 42.914063 L 137.863281 34.925781 L 142.917969 19.671875 L 146.996094 9.5625 L 150.257813 2.140625 L 155.75 -9 "/>
<path style="fill:none;stroke-width:8;stroke-linecap:round;stroke-linejoin:round;stroke:rgb(75.686275%,70.980392%,61.568627%);stroke-opacity:1;stroke-miterlimit:10;" d="M -9 101.734375 L 0.195313 77.589844 L 3.738281 65.117188 L 5.160156 58.832031 L 5.90625 53.464844 L 6.394531 47.398438 L 6.746094 36.914063 L 6.769531 -5.058594 L 6.503906 -9 "/>
<path style="fill:none;stroke-width:6;stroke-linecap:round;stroke-linejoin:round;stroke:rgb(100%,100%,100%);stroke-opacity:1;stroke-miterlimit:10;" d="M 10.644531 264 L 14.203125 260.125 L 21.472656 251.566406 L 23.148438 249.292969 L 67.839844 178.113281 L 78.304688 161.945313 L 88.277344 147.921875 L 100.300781 132.320313 L 105.195313 124.457031 L 107.292969 120.699219 L 108.78125 117.097656 L 113.375 103.332031 L 114.957031 98.941406 L 119.058594 88.960938 L 122.34375 82.328125 L 124.929688 75.792969 L 129.519531 62.9375 L 135.929688 42.914063 L 137.863281 34.925781 L 142.917969 19.671875 L 146.996094 9.5625 L 150.257813 2.140625 L 155.75 -9 "/>
<path style="fill:none;stroke-width:6;stroke-linecap:round;stroke-linejoin:round;stroke:rgb(100%,99.215686%,54.509804%);stroke-opacity:1;stroke-miterlimit:10;" d="M -9 101.734375 L 0.195313 77.589844 L 3.738281 65.117188 L 5.160156 58.832031 L 5.90625 53.464844 L 6.394531 47.398438 L 6.746094 36.914063 L 6.769531 -5.058594 L 6.503906 -9 "/>
<path style="fill:none;stroke-width:3;stroke-linecap:round;stroke-linejoin:round;stroke:rgb(100%,100%,100%);stroke-opacity:1;stroke-miterlimit:10;" d="M 76.089844 159.230469 L 77.042969 159.855469 C 76.574219 159.941406 76.167969 160.089844 75.824219 160.308594 C 75.480469 160.527344 75.195313 160.808594 74.964844 161.152344 C 74.519531 161.839844 74.402344 162.527344 74.621094 163.214844 C 74.839844 163.894531 75.394531 164.523438 76.277344 165.105469 C 77.164063 165.679688 77.964844 165.941406 78.683594 165.886719 C 79.390625 165.824219 79.96875 165.449219 80.417969 164.761719 C 80.644531 164.417969 80.792969 164.042969 80.855469 163.636719 C 80.917969 163.230469 80.902344 162.800781 80.808594 162.339844 L 81.746094 162.964844 C 81.765625 163.394531 81.722656 163.804688 81.621094 164.199219 C 81.527344 164.585938 81.359375 164.957031 81.121094 165.308594 C 80.515625 166.226563 79.730469 166.742188 78.761719 166.855469 C 77.804688 166.960938 76.789063 166.660156 75.714844 165.949219 C 74.644531 165.230469 73.972656 164.410156 73.699219 163.480469 C 73.417969 162.542969 73.582031 161.617188 74.183594 160.699219 C 74.425781 160.335938 74.707031 160.035156 75.027344 159.792969 C 75.339844 159.542969 75.695313 159.355469 76.089844 159.230469 Z M 80.683594 156.695313 C 80.570313 156.75 80.472656 156.816406 80.386719 156.898438 C 80.292969 156.972656 80.210938 157.066406 80.136719 157.179688 C 79.835938 157.597656 79.757813 158.019531 79.902344 158.445313 C 80.050781 158.875 80.398438 159.28125 80.949219 159.664063 L 83.527344 161.507813 L 82.996094 162.257813 L 78.089844 158.773438 L 78.621094 158.023438 L 79.386719 158.570313 C 79.199219 158.207031 79.121094 157.851563 79.152344 157.507813 C 79.175781 157.164063 79.308594 156.820313 79.558594 156.476563 C 79.589844 156.425781 79.632813 156.367188 79.683594 156.304688 C 79.738281 156.242188 79.792969 156.179688 79.855469 156.117188 Z M 85.414063 153.242188 L 85.804688 153.523438 L 83.429688 156.851563 C 84.015625 157.21875 84.546875 157.367188 85.023438 157.304688 C 85.5 157.234375 85.90625 156.957031 86.242188 156.476563 C 86.4375 156.195313 86.589844 155.90625 86.695313 155.601563 C 86.808594 155.289063 86.890625 154.945313 86.945313 154.570313 L 87.695313 155.101563 C 87.632813 155.46875 87.53125 155.8125 87.398438 156.132813 C 87.273438 156.445313 87.109375 156.742188 86.914063 157.023438 C 86.414063 157.722656 85.789063 158.117188 85.039063 158.210938 C 84.289063 158.296875 83.523438 158.054688 82.742188 157.492188 C 81.941406 156.929688 81.445313 156.289063 81.257813 155.570313 C 81.070313 154.851563 81.210938 154.160156 81.679688 153.492188 C 82.097656 152.898438 82.640625 152.582031 83.304688 152.539063 C 83.972656 152.5 84.675781 152.734375 85.414063 153.242188 Z M 84.648438 153.789063 C 84.210938 153.488281 83.785156 153.351563 83.367188 153.382813 C 82.953125 153.40625 82.613281 153.59375 82.351563 153.945313 C 82.070313 154.351563 81.972656 154.773438 82.054688 155.210938 C 82.128906 155.640625 82.382813 156.03125 82.820313 156.382813 Z M 87.855469 150.195313 C 87.441406 150.78125 87.230469 151.238281 87.230469 151.570313 C 87.222656 151.90625 87.394531 152.195313 87.746094 152.445313 C 88.027344 152.65625 88.316406 152.734375 88.605469 152.679688 C 88.894531 152.628906 89.140625 152.460938 89.339844 152.179688 C 89.628906 151.773438 89.703125 151.335938 89.558594 150.867188 C 89.421875 150.390625 89.097656 149.96875 88.589844 149.601563 L 88.386719 149.460938 Z M 88.574219 148.507813 L 91.371094 150.507813 L 90.855469 151.226563 L 90.121094 150.695313 C 90.285156 151.09375 90.347656 151.460938 90.308594 151.804688 C 90.277344 152.148438 90.136719 152.5 89.886719 152.851563 C 89.5625 153.300781 89.160156 153.554688 88.683594 153.617188 C 88.214844 153.679688 87.746094 153.546875 87.277344 153.210938 C 86.726563 152.816406 86.433594 152.351563 86.402344 151.820313 C 86.363281 151.289063 86.574219 150.691406 87.042969 150.023438 L 87.777344 149.007813 L 87.699219 148.960938 C 87.324219 148.691406 86.957031 148.597656 86.589844 148.679688 C 86.226563 148.753906 85.902344 148.988281 85.621094 149.382813 C 85.445313 149.625 85.304688 149.894531 85.199219 150.195313 C 85.097656 150.488281 85.035156 150.789063 85.011719 151.101563 L 84.277344 150.570313 C 84.339844 150.21875 84.433594 149.898438 84.558594 149.617188 C 84.683594 149.328125 84.832031 149.0625 84.996094 148.820313 C 85.457031 148.1875 85.980469 147.84375 86.574219 147.789063 C 87.167969 147.738281 87.835938 147.976563 88.574219 148.507813 Z M 91.105469 142.847656 C 90.886719 142.402344 90.789063 141.988281 90.808594 141.613281 C 90.832031 141.238281 90.972656 140.890625 91.230469 140.566406 C 91.574219 140.109375 92.011719 139.894531 92.542969 139.925781 C 93.074219 139.957031 93.660156 140.21875 94.308594 140.707031 L 97.183594 142.925781 L 96.636719 143.628906 L 93.792969 141.441406 C 93.324219 141.078125 92.921875 140.886719 92.589844 140.863281 C 92.265625 140.84375 91.988281 140.980469 91.761719 141.269531 C 91.480469 141.636719 91.394531 142.03125 91.496094 142.457031 C 91.601563 142.875 91.878906 143.261719 92.339844 143.613281 L 95.042969 145.691406 L 94.496094 146.410156 L 91.652344 144.222656 C 91.183594 143.859375 90.785156 143.667969 90.449219 143.644531 C 90.117188 143.625 89.835938 143.765625 89.605469 144.066406 C 89.324219 144.433594 89.242188 144.824219 89.355469 145.238281 C 89.460938 145.65625 89.742188 146.042969 90.199219 146.394531 L 92.902344 148.472656 L 92.355469 149.191406 L 87.589844 145.519531 L 88.136719 144.800781 L 88.886719 145.378906 C 88.710938 144.996094 88.644531 144.636719 88.683594 144.300781 C 88.714844 143.957031 88.851563 143.636719 89.089844 143.332031 C 89.332031 143.019531 89.621094 142.824219 89.964844 142.738281 C 90.308594 142.65625 90.691406 142.691406 91.105469 142.847656 Z M 98.503906 135.867188 L 98.894531 136.164063 L 96.394531 139.414063 C 96.957031 139.789063 97.480469 139.957031 97.957031 139.914063 C 98.445313 139.863281 98.867188 139.601563 99.222656 139.132813 C 99.429688 138.863281 99.589844 138.578125 99.707031 138.273438 C 99.832031 137.960938 99.917969 137.625 99.972656 137.257813 L 100.707031 137.820313 C 100.632813 138.175781 100.523438 138.507813 100.378906 138.820313 C 100.242188 139.132813 100.070313 139.425781 99.863281 139.695313 C 99.339844 140.375 98.699219 140.742188 97.941406 140.804688 C 97.191406 140.867188 96.4375 140.609375 95.675781 140.023438 C 94.90625 139.421875 94.441406 138.753906 94.285156 138.023438 C 94.121094 137.285156 94.28125 136.597656 94.769531 135.960938 C 95.21875 135.378906 95.777344 135.082031 96.441406 135.070313 C 97.109375 135.0625 97.792969 135.328125 98.503906 135.867188 Z M 97.738281 136.382813 C 97.300781 136.070313 96.875 135.921875 96.457031 135.929688 C 96.042969 135.941406 95.703125 136.117188 95.441406 136.460938 C 95.128906 136.859375 95.003906 137.269531 95.066406 137.695313 C 95.128906 138.125 95.375 138.523438 95.800781 138.898438 Z M 99.796875 131.066406 C 99.695313 131.121094 99.59375 131.183594 99.5 131.253906 C 99.398438 131.328125 99.304688 131.421875 99.21875 131.535156 C 98.917969 131.941406 98.835938 132.363281 98.96875 132.800781 C 99.105469 133.230469 99.445313 133.644531 99.984375 134.050781 L 102.53125 135.941406 L 101.984375 136.660156 L 97.15625 133.066406 L 97.703125 132.347656 L 98.453125 132.910156 C 98.265625 132.535156 98.195313 132.183594 98.234375 131.847656 C 98.265625 131.503906 98.414063 131.160156 98.671875 130.816406 C 98.703125 130.765625 98.746094 130.707031 98.796875 130.644531 C 98.851563 130.582031 98.90625 130.527344 98.96875 130.472656 Z M 106.234375 131.441406 C 106.703125 132.027344 106.960938 132.480469 107.015625 132.800781 C 107.078125 133.113281 107.003906 133.4375 106.796875 133.769531 L 106.40625 134.394531 L 105.71875 133.972656 L 106 133.519531 C 106.132813 133.3125 106.179688 133.113281 106.140625 132.925781 C 106.097656 132.738281 105.921875 132.449219 105.609375 132.050781 L 105.296875 131.691406 L 99.109375 130.425781 L 99.609375 129.628906 L 104.5 130.675781 L 101.390625 126.753906 L 101.890625 125.957031 Z M 107.554688 120.242188 C 107.722656 120.097656 107.96875 119.992188 108.289063 119.929688 C 108.601563 119.867188 109.007813 119.84375 109.507813 119.851563 L 111.914063 119.945313 L 111.445313 120.882813 L 109.195313 120.804688 C 108.613281 120.773438 108.191406 120.820313 107.929688 120.945313 C 107.671875 121.070313 107.453125 121.304688 107.273438 121.648438 L 106.804688 122.601563 L 109.851563 124.101563 L 109.414063 124.976563 L 102.226563 121.429688 L 103.210938 119.460938 C 103.578125 118.710938 104.019531 118.242188 104.539063 118.054688 C 105.050781 117.859375 105.660156 117.9375 106.367188 118.289063 C 106.816406 118.507813 107.144531 118.785156 107.351563 119.117188 C 107.5625 119.453125 107.628906 119.828125 107.554688 120.242188 Z M 103.460938 120.945313 L 106.007813 122.210938 L 106.554688 121.117188 C 106.765625 120.691406 106.816406 120.316406 106.710938 119.992188 C 106.597656 119.660156 106.332031 119.394531 105.914063 119.195313 C 105.488281 118.988281 105.117188 118.941406 104.804688 119.054688 C 104.484375 119.160156 104.21875 119.425781 104.007813 119.851563 Z M 108.175781 114.636719 C 108.019531 115.085938 108.09375 115.507813 108.394531 115.902344 C 108.699219 116.300781 109.191406 116.613281 109.878906 116.839844 C 110.558594 117.082031 111.136719 117.136719 111.613281 117.011719 C 112.082031 116.886719 112.394531 116.601563 112.550781 116.152344 C 112.707031 115.695313 112.636719 115.269531 112.347656 114.871094 C 112.058594 114.476563 111.574219 114.160156 110.894531 113.917969 C 110.207031 113.691406 109.625 113.636719 109.144531 113.761719 C 108.65625 113.886719 108.332031 114.179688 108.175781 114.636719 Z M 107.394531 114.355469 C 107.644531 113.628906 108.109375 113.144531 108.785156 112.902344 C 109.453125 112.664063 110.253906 112.707031 111.191406 113.027344 C 112.109375 113.351563 112.757813 113.816406 113.144531 114.417969 C 113.527344 115.023438 113.597656 115.691406 113.347656 116.417969 C 113.097656 117.160156 112.632813 117.644531 111.957031 117.871094 C 111.28125 118.101563 110.484375 118.054688 109.566406 117.730469 C 108.628906 117.410156 107.972656 116.949219 107.597656 116.355469 C 107.214844 115.761719 107.144531 115.097656 107.394531 114.355469 Z M 112.410156 109.304688 C 112.183594 109.992188 112.113281 110.5 112.207031 110.820313 C 112.292969 111.132813 112.542969 111.359375 112.957031 111.492188 C 113.28125 111.609375 113.578125 111.597656 113.847656 111.460938 C 114.109375 111.328125 114.289063 111.09375 114.394531 110.757813 C 114.558594 110.28125 114.503906 109.84375 114.222656 109.445313 C 113.953125 109.039063 113.515625 108.734375 112.910156 108.523438 L 112.691406 108.460938 Z M 112.582031 107.476563 L 115.847656 108.570313 L 115.566406 109.414063 L 114.707031 109.132813 C 114.976563 109.445313 115.144531 109.773438 115.207031 110.117188 C 115.277344 110.453125 115.246094 110.828125 115.113281 111.242188 C 114.933594 111.765625 114.632813 112.128906 114.207031 112.335938 C 113.78125 112.535156 113.292969 112.546875 112.738281 112.367188 C 112.09375 112.148438 111.671875 111.796875 111.472656 111.304688 C 111.277344 110.804688 111.300781 110.171875 111.550781 109.398438 L 111.957031 108.210938 L 111.878906 108.179688 C 111.441406 108.035156 111.0625 108.050781 110.738281 108.226563 C 110.417969 108.40625 110.175781 108.726563 110.019531 109.195313 C 109.925781 109.476563 109.875 109.773438 109.863281 110.085938 C 109.84375 110.398438 109.871094 110.707031 109.941406 111.007813 L 109.082031 110.726563 C 109.050781 110.375 109.050781 110.039063 109.082031 109.726563 C 109.105469 109.414063 109.160156 109.117188 109.253906 108.835938 C 109.503906 108.097656 109.90625 107.617188 110.457031 107.398438 C 111.011719 107.171875 111.71875 107.195313 112.582031 107.476563 Z M 112.75 101.847656 L 109.671875 100.785156 L 109.96875 99.941406 L 117.875 102.675781 L 117.578125 103.519531 L 116.71875 103.222656 C 117 103.515625 117.171875 103.828125 117.234375 104.160156 C 117.304688 104.484375 117.28125 104.832031 117.15625 105.207031 C 116.9375 105.824219 116.488281 106.234375 115.8125 106.441406 C 115.136719 106.640625 114.351563 106.582031 113.453125 106.269531 C 112.558594 105.957031 111.90625 105.515625 111.5 104.941406 C 111.085938 104.359375 110.984375 103.761719 111.203125 103.144531 C 111.328125 102.769531 111.523438 102.480469 111.78125 102.269531 C 112.03125 102.050781 112.355469 101.910156 112.75 101.847656 Z M 113.765625 105.394531 C 114.453125 105.636719 115.03125 105.699219 115.5 105.582031 C 115.96875 105.46875 116.28125 105.1875 116.4375 104.738281 C 116.59375 104.292969 116.519531 103.875 116.21875 103.488281 C 115.929688 103.09375 115.4375 102.777344 114.75 102.535156 C 114.054688 102.296875 113.46875 102.238281 113 102.363281 C 112.523438 102.480469 112.203125 102.761719 112.046875 103.207031 C 111.890625 103.65625 111.964844 104.074219 112.265625 104.457031 C 112.570313 104.84375 113.070313 105.15625 113.765625 105.394531 Z M 113.765625 105.394531 "/>
<path style=" stroke:none;fill-rule:evenodd;fill:rgb(20%,20%,20%);fill-opacity:1;" d="M 76.089844 159.230469 L 77.042969 159.855469 C 76.574219 159.941406 76.167969 160.089844 75.824219 160.308594 C 75.480469 160.527344 75.195313 160.808594 74.964844 161.152344 C 74.519531 161.839844 74.402344 162.527344 74.621094 163.214844 C 74.839844 163.894531 75.394531 164.523438 76.277344 165.105469 C 77.164063 165.679688 77.964844 165.941406 78.683594 165.886719 C 79.390625 165.824219 79.96875 165.449219 80.417969 164.761719 C 80.644531 164.417969 80.792969 164.042969 80.855469 163.636719 C 80.917969 163.230469 80.902344 162.800781 80.808594 162.339844 L 81.746094 162.964844 C 81.765625 163.394531 81.722656 163.804688 81.621094 164.199219 C 81.527344 164.585938 81.359375 164.957031 81.121094 165.308594 C 80.515625 166.226563 79.730469 166.742188 78.761719 166.855469 C 77.804688 166.960938 76.789063 166.660156 75.714844 165.949219 C 74.644531 165.230469 73.972656 164.410156 73.699219 163.480469 C 73.417969 162.542969 73.582031 161.617188 74.183594 160.699219 C 74.425781 160.335938 74.707031 160.035156 75.027344 159.792969 C 75.339844 159.542969 75.695313 159.355469 76.089844 159.230469 Z M 80.683594 156.695313 C 80.570313 156.75 80.472656 156.816406 80.386719 156.898438 C 80.292969 156.972656 80.210938 157.066406 80.136719 157.179688 C 79.835938 157.597656 79.757813 158.019531 79.902344 158.445313 C 80.050781 158.875 80.398438 159.28125 80.949219 159.664063 L 83.527344 161.507813 L 82.996094 162.257813 L 78.089844 158.773438 L 78.621094 158.023438 L 79.386719 158.570313 C 79.199219 158.207031 79.121094 157.851563 79.152344 157.507813 C 79.175781 157.164063 79.308594 156.820313 79.558594 156.476563 C 79.589844 156.425781 79.632813 156.367188 79.683594 156.304688 C 79.738281 156.242188 79.792969 156.179688 79.855469 156.117188 Z M 85.414063 153.242188 L 85.804688 153.523438 L 83.429688 156.851563 C 84.015625 157.21875 84.546875 157.367188 85.023438 157.304688 C 85.5 157.234375 85.90625 156.957031 86.242188 156.476563 C 86.4375 156.195313 86.589844 155.90625 86.695313 155.601563 C 86.808594 155.289063 86.890625 154.945313 86.945313 154.570313 L 87.695313 155.101563 C 87.632813 155.46875 87.53125 155.8125 87.398438 156.132813 C 87.273438 156.445313 87.109375 156.742188 86.914063 157.023438 C 86.414063 157.722656 85.789063 158.117188 85.039063 158.210938 C 84.289063 158.296875 83.523438 158.054688 82.742188 157.492188 C 81.941406 156.929688 81.445313 156.289063 81.257813 155.570313 C 81.070313 154.851563 81.210938 154.160156 81.679688 153.492188 C 82.097656 152.898438 82.640625 152.582031 83.304688 152.539063 C 83.972656 152.5 84.675781 152.734375 85.414063 153.242188 Z M 84.648438 153.789063 C 84.210938 153.488281 83.785156 153.351563 83.367188 153.382813 C 82.953125 153.40625 82.613281 153.59375 82.351563 153.945313 C 82.070313 154.351563 81.972656 154.773438 82.054688 155.210938 C 82.128906 155.640625 82.382813 156.03125 82.820313 156.382813 Z M 87.855469 150.195313 C 87.441406 150.78125 87.230469 151.238281 87.230469 151.570313 C 87.222656 151.90625 87.394531 152.195313 87.746094 152.445313 C 88.027344 152.65625 88.316406 152.734375 88.605469 152.679688 C 88.894531 152.628906 89.140625 152.460938 89.339844 152.179688 C 89.628906 151.773438 89.703125 151.335938 89.558594 150.867188 C 89.421875 150.390625 89.097656 149.96875 88.589844 149.601563 L 88.386719 149.460938 Z M 88.574219 148.507813 L 91.371094 150.507813 L 90.855469 151.226563 L 90.121094 150.695313 C 90.285156 151.09375 90.347656 151.460938 90.308594 151.804688 C 90.277344 152.148438 90.136719 152.5 89.886719 152.851563 C 89.5625 153.300781 89.160156 153.554688 88.683594 153.617188 C 88.214844 153.679688 87.746094 153.546875 87.277344 153.210938 C 86.726563 152.816406 86.433594 152.351563 86.402344 151.820313 C 86.363281 151.289063 86.574219 150.691406 87.042969 150.023438 L 87.777344 149.007813 L 87.699219 148.960938 C 87.324219 148.691406 86.957031 148.597656 86.589844 148.679688 C 86.226563 148.753906 85.902344 148.988281 85.621094 149.382813 C 85.445313 149.625 85.304688 149.894531 85.199219 150.195313 C 85.097656 150.488281 85.035156 150.789063 85.011719 151.101563 L 84.277344 150.570313 C 84.339844 150.21875 84.433594 149.898438 84.558594 149.617188 C 84.683594 149.328125 84.832031 149.0625 84.996094 148.820313 C 85.457031 148.1875 85.980469 147.84375 86.574219 147.789063 C 87.167969 147.738281 87.835938 147.976563 88.574219 148.507813 Z M 91.105469 142.847656 C 90.886719 142.402344 90.789063 141.988281 90.808594 141.613281 C 90.832031 141.238281 90.972656 140.890625 91.230469 140.566406 C 91.574219 140.109375 92.011719 139.894531 92.542969 139.925781 C 93.074219 139.957031 93.660156 140.21875 94.308594 140.707031 L 97.183594 142.925781 L 96.636719 143.628906 L 93.792969 141.441406 C 93.324219 141.078125 92.921875 140.886719 92.589844 140.863281 C 92.265625 140.84375 91.988281 140.980469 91.761719 141.269531 C 91.480469 141.636719 91.394531 142.03125 91.496094 142.457031 C 91.601563 142.875 91.878906 143.261719 92.339844 143.613281 L 95.042969 145.691406 L 94.496094 146.410156 L 91.652344 144.222656 C 91.183594 143.859375 90.785156 143.667969 90.449219 143.644531 C 90.117188 143.625 89.835938 143.765625 89.605469 144.066406 C 89.324219 144.433594 89.242188 144.824219 89.355469 145.238281 C 89.460938 145.65625 89.742188 146.042969 90.199219 146.394531 L 92.902344 148.472656 L 92.355469 149.191406 L 87.589844 145.519531 L 88.136719 144.800781 L 88.886719 145.378906 C 88.710938 144.996094 88.644531 144.636719 88.683594 144.300781 C 88.714844 143.957031 88.851563 143.636719 89.089844 143.332031 C 89.332031 143.019531 89.621094 142.824219 89.964844 142.738281 C 90.308594 142.65625 90.691406 142.691406 91.105469 142.847656 Z M 98.503906 135.867188 L 98.894531 136.164063 L 96.394531 139.414063 C 96.957031 139.789063 97.480469 139.957031 97.957031 139.914063 C 98.445313 139.863281 98.867188 139.601563 99.222656 139.132813 C 99.429688 138.863281 99.589844 138.578125 99.707031 138.273438 C 99.832031 137.960938 99.917969 137.625 99.972656 137.257813 L 100.707031 137.820313 C 100.632813 138.175781 100.523438 138.507813 100.378906 138.820313 C 100.242188 139.132813 100.070313 139.425781 99.863281 139.695313 C 99.339844 140.375 98.699219 140.742188 97.941406 140.804688 C 97.191406 140.867188 96.4375 140.609375 95.675781 140.023438 C 94.90625 139.421875 94.441406 138.753906 94.285156 138.023438 C 94.121094 137.285156 94.28125 136.597656 94.769531 135.960938 C 95.21875 135.378906 95.777344 135.082031 96.441406 135.070313 C 97.109375 135.0625 97.792969 135.328125 98.503906 135.867188 Z M 97.738281 136.382813 C 97.300781 136.070313 96.875 135.921875 96.457031 135.929688 C 96.042969 135.941406 95.703125 136.117188 95.441406 136.460938 C 95.128906 136.859375 95.003906 137.269531 95.066406 137.695313 C 95.128906 138.125 95.375 138.523438 95.800781 138.898438 Z M 99.796875 131.066406 C 99.695313 131.121094 99.59375 131.183594 99.5 131.253906 C 99.398438 131.328125 99.304688 131.421875 99.21875 131.535156 C 98.917969 131.941406 98.835938 132.363281 98.96875 132.800781 C 99.105469 133.230469 99.445313 133.644531 99.984375 134.050781 L 102.53125 135.941406 L 101.984375 136.660156 L 97.15625 133.066406 L 97.703125 132.347656 L 98.453125 132.910156 C 98.265625 132.535156 98.195313 132.183594 98.234375 131.847656 C 98.265625 131.503906 98.414063 131.160156 98.671875 130.816406 C 98.703125 130.765625 98.746094 130.707031 98.796875 130.644531 C 98.851563 130.582031 98.90625 130.527344 98.96875 130.472656 Z M 106.234375 131.441406 C 106.703125 132.027344 106.960938 132.480469 107.015625 132.800781 C 107.078125 133.113281 107.003906 133.4375 106.796875 133.769531 L 106.40625 134.394531 L 105.71875 133.972656 L 106 133.519531 C 106.132813 133.3125 106.179688 133.113281 106.140625 132.925781 C 106.097656 132.738281 105.921875 132.449219 105.609375 132.050781 L 105.296875 131.691406 L 99.109375 130.425781 L 99.609375 129.628906 L 104.5 130.675781 L 101.390625 126.753906 L 101.890625 125.957031 Z M 107.554688 120.242188 C 107.722656 120.097656 107.96875 119.992188 108.289063 119.929688 C 108.601563 119.867188 109.007813 119.84375 109.507813 119.851563 L 111.914063 119.945313 L 111.445313 120.882813 L 109.195313 120.804688 C 108.613281 120.773438 108.191406 120.820313 107.929688 120.945313 C 107.671875 121.070313 107.453125 121.304688 107.273438 121.648438 L 106.804688 122.601563 L 109.851563 124.101563 L 109.414063 124.976563 L 102.226563 121.429688 L 103.210938 119.460938 C 103.578125 118.710938 104.019531 118.242188 104.539063 118.054688 C 105.050781 117.859375 105.660156 117.9375 106.367188 118.289063 C 106.816406 118.507813 107.144531 118.785156 107.351563 119.117188 C 107.5625 119.453125 107.628906 119.828125 107.554688 120.242188 Z M 103.460938 120.945313 L 106.007813 122.210938 L 106.554688 121.117188 C 106.765625 120.691406 106.816406 120.316406 106.710938 119.992188 C 106.597656 119.660156 106.332031 119.394531 105.914063 119.195313 C 105.488281 118.988281 105.117188 118.941406 104.804688 119.054688 C 104.484375 119.160156 104.21875 119.425781 104.007813 119.851563 Z M 108.175781 114.636719 C 108.019531 115.085938 108.09375 115.507813 108.394531 115.902344 C 108.699219 116.300781 109.191406 116.613281 109.878906 116.839844 C 110.558594 117.082031 111.136719 117.136719 111.613281 117.011719 C 112.082031 116.886719 112.394531 116.601563 112.550781 116.152344 C 112.707031 115.695313 112.636719 115.269531 112.347656 114.871094 C 112.058594 114.476563 111.574219 114.160156 110.894531 113.917969 C 110.207031 113.691406 109.625 113.636719 109.144531 113.761719 C 108.65625 113.886719 108.332031 114.179688 108.175781 114.636719 Z M 107.394531 114.355469 C 107.644531 113.628906 108.109375 113.144531 108.785156 112.902344 C 109.453125 112.664063 110.253906 112.707031 111.191406 113.027344 C 112.109375 113.351563 112.757813 113.816406 113.144531 114.417969 C 113.527344 115.023438 113.597656 115.691406 113.347656 116.417969 C 113.097656 117.160156 112.632813 117.644531 111.957031 117.871094 C 111.28125 118.101563 110.484375 118.054688 109.566406 117.730469 C 108.628906 117.410156 107.972656 116.949219 107.597656 116.355469 C 107.214844 115.761719 107.144531 115.097656 107.394531 114.355469 Z M 112.410156 109.304688 C 112.183594 109.992188 112.113281 110.5 112.207031 110.820313 C 112.292969 111.132813 112.542969 111.359375 112.957031 111.492188 C 113.28125 111.609375 113.578125 111.597656 113.847656 111.460938 C 114.109375 111.328125 114.289063 111.09375 114.394531 110.757813 C 114.558594 110.28125 114.503906 109.84375 114.222656 109.445313 C 113.953125 109.039063 113.515625 108.734375 112.910156 108.523438 L 112.691406 108.460938 Z M 112.582031 107.476563 L 115.847656 108.570313 L 115.566406 109.414063 L 114.707031 109.132813 C 114.976563 109.445313 115.144531 109.773438 115.207031 110.117188 C 115.277344 110.453125 115.246094 110.828125 115.113281 111.242188 C 114.933594 111.765625 114.632813 112.128906 114.207031 112.335938 C 113.78125 112.535156 113.292969 112.546875 112.738281 112.367188 C 112.09375 112.148438 111.671875 111.796875 111.472656 111.304688 C 111.277344 110.804688 111.300781 110.171875 111.550781 109.398438 L 111.957031 108.210938 L 111.878906 108.179688 C 111.441406 108.035156 111.0625 108.050781 110.738281 108.226563 C 110.417969 108.40625 110.175781 108.726563 110.019531 109.195313 C 109.925781 109.476563 109.875 109.773438 109.863281 110.085938 C 109.84375 110.398438 109.871094 110.707031 109.941406 111.007813 L 109.082031 110.726563 C 109.050781 110.375 109.050781 110.039063 109.082031 109.726563 C 109.105469 109.414063 109.160156 109.117188 109.253906 108.835938 C 109.503906 108.097656 109.90625 107.617188 110.457031 107.398438 C 111.011719 107.171875 111.71875 107.195313 112.582031 107.476563 Z M 112.75 101.847656 L 109.671875 100.785156 L 109.96875 99.941406 L 117.875 102.675781 L 117.578125 103.519531 L 116.71875 103.222656 C 117 103.515625 117.171875 103.828125 117.234375 104.160156 C 117.304688 104.484375 117.28125 104.832031 117.15625 105.207031 C 116.9375 105.824219 116.488281 106.234375 115.8125 106.441406 C 115.136719 106.640625 114.351563 106.582031 113.453125 106.269531 C 112.558594 105.957031 111.90625 105.515625 111.5 104.941406 C 111.085938 104.359375 110.984375 103.761719 111.203125 103.144531 C 111.328125 102.769531 111.523438 102.480469 111.78125 102.269531 C 112.03125 102.050781 112.355469 101.910156 112.75 101.847656 Z M 113.765625 105.394531 C 114.453125 105.636719 115.03125 105.699219 115.5 105.582031 C 115.96875 105.46875 116.28125 105.1875 116.4375 104.738281 C 116.59375 104.292969 116.519531 103.875 116.21875 103.488281 C 115.929688 103.09375 115.4375 102.777344 114.75 102.535156 C 114.054688 102.296875 113.46875 102.238281 113 102.363281 C 112.523438 102.480469 112.203125 102.761719 112.046875 103.207031 C 111.890625 103.65625 111.964844 104.074219 112.265625 104.457031 C 112.570313 104.84375 113.070313 105.15625 113.765625 105.394531 Z M 113.765625 105.394531 "/>
</g>
</svg>

