<?xml version="1.0" encoding="UTF-8"?>
<svg xmlns="http://www.w3.org/2000/svg" xmlns:xlink="http://www.w3.org/1999/xlink" width="256pt" height="256pt" viewBox="0 0 256 256" version="1.1">
<g id="surface2">
<rect x="0" y="0" width="256" height="256" style="fill:rgb(94.901961%,93.72549%,91.372549%);fill-opacity:1;stroke:none;"/>
<path style=" stroke:none;fill-rule:evenodd;fill:rgb(60%,70.196078%,80%);fill-opacity:1;" d="M -4 -4 L -4 259 L 259 259 L -4 259 Z M -4 -4 "/>
<path style="fill:none;stroke-width:1;stroke-linecap:round;stroke-linejoin:round;stroke:rgb(70.196078%,77.647059%,83.137255%);stroke-opacity:1;stroke-miterlimit:10;" d="M -4 -4 L -4 259 L 259 259 L -4 259 L -4 -4 "/>
<path style="fill:none;stroke-width:1;stroke-linecap:round;stroke-linejoin:round;stroke:rgb(100%,100%,100%);stroke-opacity:1;stroke-dasharray:2,3;stroke-miterlimit:10;" d="M -2 120.726563 L 16.285156 120.726563 L 20.382813 119.886719 L 22.296875 118.886719 L 23.320313 118.078125 L 34.433594 105.429688 L 48.648438 85.039063 L 50.257813 83.617188 L 59.625 78.421875 L 68.503906 74.582031 L 75.351563 72.515625 L 78.171875 71.9375 L 81.15625 71.710938 L 89.3125 72.097656 L 92.921875 72.582031 L 100.378906 74.742188 L 109.164063 77.839844 L 121.605469 80.292969 L 135.261719 83.683594 L 143.929688 86.457031 L 146.261719 86.972656 L 147.914063 87.039063 L 154.414063 85.8125 L 157.515625 84.90625 L 175.222656 77.359375 L 180.839844 75.710938 L 220.035156 68.902344 L 233.6875 67.417969 L 240.515625 67.160156 L 245.292969 67.804688 L 250.699219 69.871094 L 257 73.652344 "/>
<path style="fill:none;stroke-width:9;stroke-linecap:round;stroke-linejoin:round;stroke:rgb(75.686275%,70.980392%,61.568627%);stroke-opacity:1;stroke-miterlimit:10;" d="M 265 40.359375 L 260.484375 33.3125 L 243.195313 1.753906 L 236.042969 -9.574219 L 235.730469 -10 "/>
<path style="fill:none;stroke-width:7;stroke-linecap:round;stroke-linejoin:round;stroke:rgb(100%,99.215686%,54.509804%);stroke-opacity:1;stroke-miterlimit:10;" d="M 265 40.359375 L 260.484375 33.3125 L 243.195313 1.753906 L 236.042969 -9.574219 L 235.730469 -10 "/>
<path style="fill:none;stroke-width:3;stroke-linecap:round;stroke-linejoin:round;stroke:rgb(100%,100%,100%);stroke-opacity:1;stroke-miterlimit:10;" d="M 91.898438 68.511719 L 93.320313 68.855469 L 93.867188 74.574219 L 96.929688 69.699219 L 98.335938 70.027344 L 96.492188 77.824219 L 95.570313 77.605469 L 97.179688 70.746094 L 94.117188 75.683594 L 93.164063 75.464844 L 92.601563 69.667969 L 90.992188 76.527344 L 90.054688 76.308594 Z M 103.476563 73.953125 L 103.195313 74.828125 C 103.007813 74.609375 102.804688 74.429688 102.585938 74.28125 C 102.367188 74.125 102.132813 74.007813 101.882813 73.921875 C 101.328125 73.746094 100.839844 73.804688 100.414063 74.09375 C 99.984375 74.375 99.65625 74.871094 99.429688 75.578125 C 99.199219 76.265625 99.171875 76.855469 99.351563 77.34375 C 99.527344 77.824219 99.890625 78.148438 100.445313 78.328125 C 100.695313 78.410156 100.949219 78.457031 101.210938 78.46875 C 101.46875 78.476563 101.746094 78.445313 102.039063 78.375 L 101.757813 79.234375 C 101.476563 79.285156 101.195313 79.300781 100.914063 79.28125 C 100.640625 79.257813 100.371094 79.203125 100.101563 79.109375 C 99.320313 78.859375 98.789063 78.390625 98.507813 77.703125 C 98.226563 77.007813 98.234375 76.199219 98.539063 75.28125 C 98.839844 74.34375 99.308594 73.6875 99.945313 73.3125 C 100.589844 72.929688 101.3125 72.867188 102.117188 73.125 C 102.367188 73.210938 102.605469 73.324219 102.835938 73.46875 C 103.074219 73.605469 103.289063 73.765625 103.476563 73.953125 Z M 105.707031 72.347656 L 106.628906 72.660156 L 105.535156 75.878906 L 109.691406 73.707031 L 110.894531 74.113281 L 106.285156 76.503906 L 108.550781 81.785156 L 107.332031 81.378906 L 105.300781 76.597656 L 104.050781 80.253906 L 103.128906 79.941406 Z M 114.9375 79.75 L 114.84375 80.21875 L 110.828125 79.421875 C 110.742188 80.101563 110.832031 80.648438 111.09375 81.0625 C 111.351563 81.46875 111.769531 81.730469 112.34375 81.84375 C 112.675781 81.914063 113.003906 81.929688 113.328125 81.890625 C 113.660156 81.859375 114.003906 81.789063 114.359375 81.671875 L 114.1875 82.578125 C 113.832031 82.671875 113.484375 82.722656 113.140625 82.734375 C 112.796875 82.753906 112.457031 82.734375 112.125 82.671875 C 111.28125 82.503906 110.660156 82.097656 110.265625 81.453125 C 109.878906 80.808594 109.78125 80.015625 109.96875 79.078125 C 110.15625 78.109375 110.539063 77.390625 111.125 76.921875 C 111.707031 76.445313 112.394531 76.28125 113.1875 76.4375 C 113.90625 76.574219 114.421875 76.945313 114.734375 77.546875 C 115.046875 78.140625 115.113281 78.875 114.9375 79.75 Z M 114.125 79.28125 C 114.21875 78.75 114.164063 78.304688 113.96875 77.9375 C 113.78125 77.5625 113.472656 77.335938 113.046875 77.25 C 112.554688 77.15625 112.128906 77.234375 111.765625 77.484375 C 111.410156 77.726563 111.160156 78.121094 111.015625 78.671875 Z M 120.914063 80.925781 L 120.820313 81.394531 L 116.804688 80.597656 C 116.71875 81.277344 116.808594 81.824219 117.070313 82.238281 C 117.328125 82.644531 117.746094 82.90625 118.320313 83.019531 C 118.652344 83.089844 118.980469 83.105469 119.304688 83.066406 C 119.636719 83.035156 119.980469 82.964844 120.335938 82.847656 L 120.164063 83.753906 C 119.808594 83.847656 119.460938 83.898438 119.117188 83.910156 C 118.773438 83.929688 118.433594 83.910156 118.101563 83.847656 C 117.257813 83.679688 116.636719 83.273438 116.242188 82.628906 C 115.855469 81.984375 115.757813 81.191406 115.945313 80.253906 C 116.132813 79.285156 116.515625 78.566406 117.101563 78.097656 C 117.683594 77.621094 118.371094 77.457031 119.164063 77.613281 C 119.882813 77.75 120.398438 78.121094 120.710938 78.722656 C 121.023438 79.316406 121.089844 80.050781 120.914063 80.925781 Z M 120.101563 80.457031 C 120.195313 79.925781 120.140625 79.480469 119.945313 79.113281 C 119.757813 78.738281 119.449219 78.511719 119.023438 78.425781 C 118.53125 78.332031 118.105469 78.410156 117.742188 78.660156 C 117.386719 78.902344 117.136719 79.296875 116.992188 79.847656 Z M 128.847656 82.335938 C 129.023438 82.460938 129.175781 82.675781 129.300781 82.976563 C 129.433594 83.269531 129.550781 83.660156 129.644531 84.148438 L 130.082031 86.523438 L 129.066406 86.257813 L 128.660156 84.039063 C 128.554688 83.46875 128.414063 83.066406 128.238281 82.835938 C 128.058594 82.609375 127.785156 82.445313 127.410156 82.351563 L 126.378906 82.101563 L 125.566406 85.398438 L 124.613281 85.164063 L 126.550781 77.382813 L 128.691406 77.914063 C 129.503906 78.113281 130.054688 78.445313 130.347656 78.914063 C 130.636719 79.382813 130.691406 80 130.503906 80.757813 C 130.378906 81.238281 130.175781 81.613281 129.894531 81.882813 C 129.621094 82.15625 129.273438 82.304688 128.847656 82.335938 Z M 127.285156 78.476563 L 126.597656 81.242188 L 127.785156 81.539063 C 128.253906 81.65625 128.628906 81.625 128.910156 81.445313 C 129.199219 81.269531 129.402344 80.957031 129.519531 80.507813 C 129.632813 80.050781 129.601563 79.675781 129.425781 79.382813 C 129.257813 79.09375 128.941406 78.890625 128.472656 78.773438 Z M 134.574219 82.21875 C 134.113281 82.09375 133.699219 82.199219 133.324219 82.53125 C 132.949219 82.855469 132.667969 83.367188 132.480469 84.0625 C 132.292969 84.75 132.277344 85.335938 132.433594 85.8125 C 132.597656 86.28125 132.910156 86.578125 133.371094 86.703125 C 133.839844 86.828125 134.253906 86.726563 134.621094 86.40625 C 134.996094 86.074219 135.277344 85.5625 135.464844 84.875 C 135.652344 84.179688 135.667969 83.59375 135.511719 83.125 C 135.355469 82.648438 135.042969 82.34375 134.574219 82.21875 Z M 134.792969 81.421875 C 135.542969 81.621094 136.058594 82.046875 136.339844 82.703125 C 136.621094 83.351563 136.628906 84.152344 136.371094 85.109375 C 136.121094 86.046875 135.703125 86.726563 135.121094 87.15625 C 134.546875 87.59375 133.886719 87.710938 133.136719 87.515625 C 132.386719 87.304688 131.875 86.875 131.605469 86.21875 C 131.332031 85.554688 131.324219 84.75 131.574219 83.8125 C 131.832031 82.855469 132.246094 82.167969 132.808594 81.75 C 133.378906 81.324219 134.042969 81.214844 134.792969 81.421875 Z M 140.078125 86.234375 C 139.390625 86.015625 138.882813 85.960938 138.5625 86.0625 C 138.238281 86.15625 138.007813 86.414063 137.875 86.828125 C 137.769531 87.152344 137.785156 87.445313 137.921875 87.703125 C 138.066406 87.964844 138.304688 88.148438 138.640625 88.265625 C 139.117188 88.410156 139.554688 88.347656 139.953125 88.078125 C 140.359375 87.796875 140.660156 87.355469 140.859375 86.75 L 140.921875 86.515625 Z M 141.890625 86.390625 L 140.84375 89.671875 L 140 89.40625 L 140.28125 88.546875 C 139.96875 88.816406 139.640625 88.988281 139.296875 89.0625 C 138.960938 89.144531 138.585938 89.117188 138.171875 88.984375 C 137.640625 88.816406 137.269531 88.519531 137.0625 88.09375 C 136.851563 87.667969 136.835938 87.171875 137.015625 86.609375 C 137.222656 85.964844 137.570313 85.542969 138.0625 85.34375 C 138.550781 85.136719 139.1875 85.15625 139.96875 85.40625 L 141.15625 85.796875 L 141.1875 85.703125 C 141.320313 85.265625 141.296875 84.886719 141.109375 84.5625 C 140.929688 84.242188 140.613281 84 140.15625 83.84375 C 139.863281 83.761719 139.5625 83.714844 139.25 83.703125 C 138.945313 83.683594 138.640625 83.714844 138.328125 83.796875 L 138.609375 82.921875 C 138.960938 82.890625 139.296875 82.890625 139.609375 82.921875 C 139.921875 82.953125 140.210938 83.011719 140.484375 83.09375 C 141.234375 83.335938 141.722656 83.730469 141.953125 84.28125 C 142.191406 84.824219 142.171875 85.527344 141.890625 86.390625 Z M 147.503906 85.53125 L 147.863281 82.296875 L 148.753906 82.390625 L 147.832031 90.703125 L 146.941406 90.609375 L 147.035156 89.703125 C 146.816406 90.046875 146.554688 90.285156 146.253906 90.421875 C 145.949219 90.566406 145.601563 90.617188 145.207031 90.578125 C 144.550781 90.503906 144.050781 90.160156 143.707031 89.546875 C 143.363281 88.921875 143.242188 88.136719 143.347656 87.1875 C 143.449219 86.25 143.738281 85.515625 144.207031 84.984375 C 144.683594 84.453125 145.253906 84.226563 145.910156 84.296875 C 146.304688 84.339844 146.632813 84.464844 146.894531 84.671875 C 147.152344 84.871094 147.355469 85.15625 147.503906 85.53125 Z M 144.253906 87.28125 C 144.179688 88.011719 144.253906 88.59375 144.472656 89.03125 C 144.691406 89.46875 145.035156 89.714844 145.503906 89.765625 C 145.980469 89.820313 146.378906 89.65625 146.691406 89.28125 C 147.003906 88.90625 147.195313 88.355469 147.269531 87.625 C 147.351563 86.90625 147.285156 86.328125 147.066406 85.890625 C 146.847656 85.445313 146.496094 85.195313 146.019531 85.140625 C 145.550781 85.089844 145.160156 85.257813 144.847656 85.640625 C 144.535156 86.015625 144.335938 86.5625 144.253906 87.28125 Z M 144.253906 87.28125 "/>
<path style=" stroke:none;fill-rule:evenodd;fill:rgb(20%,20%,20%);fill-opacity:1;" d="M 91.898438 68.511719 L 93.320313 68.855469 L 93.867188 74.574219 L 96.929688 69.699219 L 98.335938 70.027344 L 96.492188 77.824219 L 95.570313 77.605469 L 97.179688 70.746094 L 94.117188 75.683594 L 93.164063 75.464844 L 92.601563 69.667969 L 90.992188 76.527344 L 90.054688 76.308594 Z M 103.476563 73.953125 L 103.195313 74.828125 C 103.007813 74.609375 102.804688 74.429688 102.585938 74.28125 C 102.367188 74.125 102.132813 74.007813 101.882813 73.921875 C 101.328125 73.746094 100.839844 73.804688 100.414063 74.09375 C 99.984375 74.375 99.65625 74.871094 99.429688 75.578125 C 99.199219 76.265625 99.171875 76.855469 99.351563 77.34375 C 99.527344 77.824219 99.890625 78.148438 100.445313 78.328125 C 100.695313 78.410156 100.949219 78.457031 101.210938 78.46875 C 101.46875 78.476563 101.746094 78.445313 102.039063 78.375 L 101.757813 79.234375 C 101.476563 79.285156 101.195313 79.300781 100.914063 79.28125 C 100.640625 79.257813 100.371094 79.203125 100.101563 79.109375 C 99.320313 78.859375 98.789063 78.390625 98.507813 77.703125 C 98.226563 77.007813 98.234375 76.199219 98.539063 75.28125 C 98.839844 74.34375 99.308594 73.6875 99.945313 73.3125 C 100.589844 72.929688 101.3125 72.867188 102.117188 73.125 C 102.367188 73.210938 102.605469 73.324219 102.835938 73.46875 C 103.074219 73.605469 103.289063 73.765625 103.476563 73.953125 Z M 105.707031 72.347656 L 106.628906 72.660156 L 105.535156 75.878906 L 109.691406 73.707031 L 110.894531 74.113281 L 106.285156 76.503906 L 108.550781 81.785156 L 107.332031 81.378906 L 105.300781 76.597656 L 104.050781 80.253906 L 103.128906 79.941406 Z M 114.9375 79.75 L 114.84375 80.21875 L 110.828125 79.421875 C 110.742188 80.101563 110.832031 80.648438 111.09375 81.0625 C 111.351563 81.46875 111.769531 81.730469 112.34375 81.84375 C 112.675781 81.914063 113.003906 81.929688 113.328125 81.890625 C 113.660156 81.859375 114.003906 81.789063 114.359375 81.671875 L 114.1875 82.578125 C 113.832031 82.671875 113.484375 82.722656 113.140625 82.734375 C 112.796875 82.753906 112.457031 82.734375 112.125 82.671875 C 111.28125 82.503906 110.660156 82.097656 110.265625 81.453125 C 109.878906 80.808594 109.78125 80.015625 109.96875 79.078125 C 110.15625 78.109375 110.539063 77.390625 111.125 76.921875 C 111.707031 76.445313 112.394531 76.28125 113.1875 76.4375 C 113.90625 76.574219 114.421875 76.945313 114.734375 77.546875 C 115.046875 78.140625 115.113281 78.875 114.9375 79.75 Z M 114.125 79.28125 C 114.21875 78.75 114.164063 78.304688 113.96875 77.9375 C 113.78125 77.5625 113.472656 77.335938 113.046875 77.25 C 112.554688 77.15625 112.128906 77.234375 111.765625 77.484375 C 111.410156 77.726563 111.160156 78.121094 111.015625 78.671875 Z M 120.914063 80.925781 L 120.820313 81.394531 L 116.804688 80.597656 C 116.71875 81.277344 116.808594 81.824219 117.070313 82.238281 C 117.328125 82.644531 117.746094 82.90625 118.320313 83.019531 C 118.652344 83.089844 118.980469 83.105469 119.304688 83.066406 C 119.636719 83.035156 119.980469 82.964844 120.335938 82.847656 L 120.164063 83.753906 C 119.808594 83.847656 119.460938 83.898438 119.117188 83.910156 C 118.773438 83.929688 118.433594 83.910156 118.101563 83.847656 C 117.257813 83.679688 116.636719 83.273438 116.242188 82.628906 C 115.855469 81.984375 115.757813 81.191406 115.945313 80.253906 C 116.132813 79.285156 116.515625 78.566406 117.101563 78.097656 C 117.683594 77.621094 118.371094 77.457031 119.164063 77.613281 C 119.882813 77.75 120.398438 78.121094 120.710938 78.722656 C 121.023438 79.316406 121.089844 80.050781 120.914063 80.925781 Z M 120.101563 80.457031 C 120.195313 79.925781 120.140625 79.480469 119.945313 79.113281 C 119.757813 78.738281 119.449219 78.511719 119.023438 78.425781 C 118.53125 78.332031 118.105469 78.410156 117.742188 78.660156 C 117.386719 78.902344 117.136719 79.296875 116.992188 79.847656 Z M 128.847656 82.335938 C 129.023438 82.460938 129.175781 82.675781 129.300781 82.976563 C 129.433594 83.269531 129.550781 83.660156 129.644531 84.148438 L 130.082031 86.523438 L 129.066406 86.257813 L 128.660156 84.039063 C 128.554688 83.46875 128.414063 83.066406 128.238281 82.835938 C 128.058594 82.609375 127.785156 82.445313 127.410156 82.351563 L 126.378906 82.101563 L 125.566406 85.398438 L 124.613281 85.164063 L 126.550781 77.382813 L 128.691406 77.914063 C 129.503906 78.113281 130.054688 78.445313 130.347656 78.914063 C 130.636719 79.382813 130.691406 80 130.503906 80.757813 C 130.378906 81.238281 130.175781 81.613281 129.894531 81.882813 C 129.621094 82.15625 129.273438 82.304688 128.847656 82.335938 Z M 127.285156 78.476563 L 126.597656 81.242188 L 127.785156 81.539063 C 128.253906 81.65625 128.628906 81.625 128.910156 81.445313 C 129.199219 81.269531 129.402344 80.957031 129.519531 80.507813 C 129.632813 80.050781 129.601563 79.675781 129.425781 79.382813 C 129.257813 79.09375 128.941406 78.890625 128.472656 78.773438 Z M 134.574219 82.21875 C 134.113281 82.09375 133.699219 82.199219 133.324219 82.53125 C 132.949219 82.855469 132.667969 83.367188 132.480469 84.0625 C 132.292969 84.75 132.277344 85.335938 132.433594 85.8125 C 132.597656 86.28125 132.910156 86.578125 133.371094 86.703125 C 133.839844 86.828125 134.253906 86.726563 134.621094 86.40625 C 134.996094 86.074219 135.277344 85.5625 135.464844 84.875 C 135.652344 84.179688 135.667969 83.59375 135.511719 83.125 C 135.355469 82.648438 135.042969 82.34375 134.574219 82.21875 Z M 134.792969 81.421875 C 135.542969 81.621094 136.058594 82.046875 136.339844 82.703125 C 136.621094 83.351563 136.628906 84.152344 136.371094 85.109375 C 136.121094 86.046875 135.703125 86.726563 135.121094 87.15625 C 134.546875 87.59375 133.886719 87.710938 133.136719 87.515625 C 132.386719 87.304688 131.875 86.875 131.605469 86.21875 C 131.332031 85.554688 131.324219 84.75 131.574219 83.8125 C 131.832031 82.855469 132.246094 82.167969 132.808594 81.75 C 133.378906 81.324219 134.042969 81.214844 134.792969 81.421875 Z M 140.078125 86.234375 C 139.390625 86.015625 138.882813 85.960938 138.5625 86.0625 C 138.238281 86.15625 138.007813 86.414063 137.875 86.828125 C 137.769531 87.152344 137.785156 87.445313 137.921875 87.703125 C 138.066406 87.964844 138.304688 88.148438 138.640625 88.265625 C 139.117188 88.410156 139.554688 88.347656 139.953125 88.078125 C 140.359375 87.796875 140.660156 87.355469 140.859375 86.75 L 140.921875 86.515625 Z M 141.890625 86.390625 L 140.84375 89.671875 L 140 89.40625 L 140.28125 88.546875 C 139.96875 88.816406 139.640625 88.988281 139.296875 89.0625 C 138.960938 89.144531 138.585938 89.117188 138.171875 88.984375 C 137.640625 88.816406 137.269531 88.519531 137.0625 88.09375 C 136.851563 87.667969 136.835938 87.171875 137.015625 86.609375 C 137.222656 85.964844 137.570313 85.542969 138.0625 85.34375 C 138.550781 85.136719 139.1875 85.15625 139.96875 85.40625 L 141.15625 85.796875 L 141.1875 85.703125 C 141.320313 85.265625 141.296875 84.886719 141.109375 84.5625 C 140.929688 84.242188 140.613281 84 140.15625 83.84375 C 139.863281 83.761719 139.5625 83.714844 139.25 83.703125 C 138.945313 83.683594 138.640625 83.714844 138.328125 83.796875 L 138.609375 82.921875 C 138.960938 82.890625 139.296875 82.890625 139.609375 82.921875 C 139.921875 82.953125 140.210938 83.011719 140.484375 83.09375 C 141.234375 83.335938 141.722656 83.730469 141.953125 84.28125 C 142.191406 84.824219 142.171875 85.527344 141.890625 86.390625 Z M 147.503906 85.53125 L 147.863281 82.296875 L 148.753906 82.390625 L 147.832031 90.703125 L 146.941406 90.609375 L 147.035156 89.703125 C 146.816406 90.046875 146.554688 90.285156 146.253906 90.421875 C 145.949219 90.566406 145.601563 90.617188 145.207031 90.578125 C 144.550781 90.503906 144.050781 90.160156 143.707031 89.546875 C 143.363281 88.921875 143.242188 88.136719 143.347656 87.1875 C 143.449219 86.25 143.738281 85.515625 144.207031 84.984375 C 144.683594 84.453125 145.253906 84.226563 145.910156 84.296875 C 146.304688 84.339844 146.632813 84.464844 146.894531 84.671875 C 147.152344 84.871094 147.355469 85.15625 147.503906 85.53125 Z M 144.253906 87.28125 C 144.179688 88.011719 144.253906 88.59375 144.472656 89.03125 C 144.691406 89.46875 145.035156 89.714844 145.503906 89.765625 C 145.980469 89.820313 146.378906 89.65625 146.691406 89.28125 C 147.003906 88.90625 147.195313 88.355469 147.269531 87.625 C 147.351563 86.90625 147.285156 86.328125 147.066406 85.890625 C 146.847656 85.445313 146.496094 85.195313 146.019531 85.140625 C 145.550781 85.089844 145.160156 85.257813 144.847656 85.640625 C 144.535156 86.015625 144.335938 86.5625 144.253906 87.28125 Z M 144.253906 87.28125 "/>
</g>
</svg>

