<?xml version="1.0" encoding="UTF-8"?>
<svg xmlns="http://www.w3.org/2000/svg" xmlns:xlink="http://www.w3.org/1999/xlink" width="256pt" height="256pt" viewBox="0 0 256 256" version="1.1">
<g id="surface2">
<rect x="0" y="0" width="256" height="256" style="fill:rgb(94.901961%,93.72549%,91.372549%);fill-opacity:1;stroke:none;"/>
<path style=" stroke:none;fill-rule:evenodd;fill:rgb(79.607843%,84.705882%,76.470588%);fill-opacity:1;" d="M 260 260 L 260 122.53125 L 253.039063 127.074219 L 260 144.386719 L 260 257.519531 L 254.238281 260 Z M 260 260 "/>
<path style=" stroke:none;fill-rule:evenodd;fill:rgb(79.607843%,84.705882%,76.470588%);fill-opacity:1;" d="M -4 231.523438 L 1.179688 244.523438 L 4.78125 239.09375 L 11.191406 232.945313 L 22.902344 226.976563 L 59.714844 211.386719 L 109.949219 191.8125 L 117.847656 188.199219 L 122.800781 184.261719 L 86.164063 82.875 L 76.808594 61.117188 L 51.859375 -4 L -4 -4 Z M -4 231.523438 "/>
<path style=" stroke:none;fill-rule:evenodd;fill:rgb(60%,70.196078%,80%);fill-opacity:1;" d="M -4 -4 L -4 259 L -4 -4 L 259 -4 Z M -8234424.902344 5326148.851563 Z M -8234424.902344 5326148.851563 Z M -8234424.902344 5326148.851563 Z M -8234424.902344 5326148.851563 "/>
<path style="fill:none;stroke-width:1;stroke-linecap:round;stroke-linejoin:round;stroke:rgb(70.196078%,77.647059%,83.137255%);stroke-opacity:1;stroke-miterlimit:10;" d="M -4 -4 L -4 259 L -4 -4 L 259 -4 L -4 -4 "/>
<path style="fill:none;stroke-width:8;stroke-linecap:round;stroke-linejoin:round;stroke:rgb(75.686275%,70.980392%,61.568627%);stroke-opacity:1;stroke-miterlimit:10;" d="M 97.140625 47.734375 L 95.742188 48.4375 L 84.136719 51.214844 L 62.816406 54.46875 L 59.042969 53.765625 L 54.800781 53.257813 L -9 36.0625 "/>
<path style="fill:none;stroke-width:8;stroke-linecap:round;stroke-linejoin:round;stroke:rgb(75.686275%,70.980392%,61.568627%);stroke-opacity:1;stroke-miterlimit:10;" d="M 264 87.074219 L 245.945313 78.941406 L 241.9375 76.867188 L 217.074219 68.507813 L 205.167969 63.945313 L 200.25 60.914063 L 188.53125 47.480469 L 181.234375 37.398438 L 175.316406 30.921875 L 170.726563 29.738281 L 166.371094 29.484375 L 155.8125 29.644531 L 145.933594 31.652344 L 132.699219 35.035156 L 128.109375 36.503906 L 109.445313 44.128906 L 100.167969 46.875 L 97.140625 47.734375 "/>
<path style="fill:none;stroke-width:8;stroke-linecap:round;stroke-linejoin:round;stroke:rgb(75.686275%,70.980392%,61.568627%);stroke-opacity:1;stroke-miterlimit:10;" d="M -9 256.625 L -7.625 256.089844 L -4.6875 254.714844 L -0.261719 251.8125 L 2.769531 248.238281 L 10.667969 237.136719 L 17.613281 231.359375 L 24.230469 227.722656 L 112.9375 190.363281 L 124.378906 184.9375 L 126.035156 183.566406 "/>
<path style="fill:none;stroke-width:8;stroke-linecap:round;stroke-linejoin:round;stroke:rgb(75.686275%,70.980392%,61.568627%);stroke-opacity:1;stroke-miterlimit:10;" d="M 264 118.929688 L 255.683594 124.476563 L 250.09375 127.984375 L 245.570313 130.25 L 173.476563 160.5625 L 152.855469 168.347656 L 139.199219 172.460938 L 133.117188 174.535156 L 130.484375 175.941406 L 128.832031 177.28125 L 127.851563 178.972656 L 126.035156 183.566406 L 142.835938 227.339844 L 148.636719 240.039063 L 157.691406 264 "/>
<path style="fill:none;stroke-width:6;stroke-linecap:round;stroke-linejoin:round;stroke:rgb(100%,100%,100%);stroke-opacity:1;stroke-miterlimit:10;" d="M 97.140625 47.734375 L 95.742188 48.4375 L 84.136719 51.214844 L 62.816406 54.46875 L 59.042969 53.765625 L 54.800781 53.257813 L -9 36.0625 "/>
<path style="fill:none;stroke-width:6;stroke-linecap:round;stroke-linejoin:round;stroke:rgb(100%,100%,100%);stroke-opacity:1;stroke-miterlimit:10;" d="M 264 87.074219 L 245.945313 78.941406 L 241.9375 76.867188 L 217.074219 68.507813 L 205.167969 63.945313 L 200.25 60.914063 L 188.53125 47.480469 L 181.234375 37.398438 L 175.316406 30.921875 L 170.726563 29.738281 L 166.371094 29.484375 L 155.8125 29.644531 L 145.933594 31.652344 L 132.699219 35.035156 L 128.109375 36.503906 L 109.445313 44.128906 L 100.167969 46.875 L 97.140625 47.734375 "/>
<path style="fill:none;stroke-width:6;stroke-linecap:round;stroke-linejoin:round;stroke:rgb(100%,100%,100%);stroke-opacity:1;stroke-miterlimit:10;" d="M -9 256.625 L -7.625 256.089844 L -4.6875 254.714844 L -0.261719 251.8125 L 2.769531 248.238281 L 10.667969 237.136719 L 17.613281 231.359375 L 24.230469 227.722656 L 112.9375 190.363281 L 124.378906 184.9375 L 126.035156 183.566406 "/>
<path style="fill:none;stroke-width:6;stroke-linecap:round;stroke-linejoin:round;stroke:rgb(100%,100%,100%);stroke-opacity:1;stroke-miterlimit:10;" d="M 264 118.929688 L 255.683594 124.476563 L 250.09375 127.984375 L 245.570313 130.25 L 173.476563 160.5625 L 152.855469 168.347656 L 139.199219 172.460938 L 133.117188 174.535156 L 130.484375 175.941406 L 128.832031 177.28125 L 127.851563 178.972656 L 126.035156 183.566406 L 142.835938 227.339844 L 148.636719 240.039063 L 157.691406 264 "/>
<path style="fill:none;stroke-width:3;stroke-linecap:round;stroke-linejoin:round;stroke:rgb(100%,100%,100%);stroke-opacity:1;stroke-miterlimit:10;" d="M 20.890625 225.042969 L 24.625 223.230469 L 25.015625 224.042969 L 22.171875 225.433594 L 23.203125 227.558594 L 25.765625 226.308594 L 26.15625 227.136719 L 23.59375 228.386719 L 25.265625 231.839844 L 24.375 232.261719 Z M 26.957031 224.390625 L 27.785156 224.046875 L 30.113281 229.59375 L 29.285156 229.9375 Z M 26.035156 222.234375 L 26.863281 221.890625 L 27.347656 223.046875 L 26.519531 223.390625 Z M 32.742188 222.136719 L 33.101563 223.011719 C 32.808594 222.980469 32.527344 222.988281 32.257813 223.027344 C 31.984375 223.058594 31.714844 223.132813 31.445313 223.246094 C 31.027344 223.425781 30.753906 223.621094 30.617188 223.839844 C 30.472656 224.058594 30.457031 224.304688 30.570313 224.574219 C 30.65625 224.792969 30.789063 224.933594 30.976563 224.996094 C 31.171875 225.058594 31.523438 225.054688 32.023438 224.980469 L 32.320313 224.917969 C 32.964844 224.816406 33.464844 224.839844 33.820313 224.996094 C 34.171875 225.144531 34.445313 225.441406 34.632813 225.886719 C 34.839844 226.398438 34.824219 226.882813 34.585938 227.339844 C 34.355469 227.789063 33.917969 228.148438 33.273438 228.417969 C 33 228.535156 32.710938 228.628906 32.398438 228.699219 C 32.085938 228.761719 31.742188 228.804688 31.367188 228.824219 L 30.960938 227.886719 C 31.34375 227.929688 31.699219 227.933594 32.023438 227.902344 C 32.355469 227.863281 32.667969 227.777344 32.960938 227.652344 C 33.34375 227.496094 33.609375 227.300781 33.757813 227.058594 C 33.902344 226.820313 33.921875 226.570313 33.820313 226.308594 C 33.714844 226.058594 33.558594 225.902344 33.351563 225.839844 C 33.140625 225.769531 32.757813 225.777344 32.195313 225.871094 L 31.882813 225.917969 C 31.320313 226.011719 30.878906 225.988281 30.554688 225.839844 C 30.222656 225.695313 29.96875 225.402344 29.789063 224.964844 C 29.570313 224.445313 29.570313 223.976563 29.789063 223.558594 C 30 223.132813 30.410156 222.789063 31.023438 222.527344 C 31.3125 222.402344 31.605469 222.308594 31.898438 222.246094 C 32.1875 222.175781 32.46875 222.136719 32.742188 222.136719 Z M 39.324219 221.773438 L 40.730469 225.117188 L 39.902344 225.460938 L 38.511719 222.148438 C 38.28125 221.617188 38.015625 221.265625 37.714844 221.085938 C 37.421875 220.910156 37.09375 220.898438 36.730469 221.054688 C 36.292969 221.242188 36.011719 221.546875 35.886719 221.960938 C 35.769531 222.367188 35.824219 222.84375 36.042969 223.382813 L 37.371094 226.523438 L 36.542969 226.882813 L 33.292969 219.179688 L 34.121094 218.820313 L 35.402344 221.835938 C 35.445313 221.429688 35.566406 221.09375 35.761719 220.820313 C 35.957031 220.539063 36.234375 220.328125 36.589844 220.179688 C 37.160156 219.941406 37.675781 219.957031 38.136719 220.226563 C 38.605469 220.488281 39 221.003906 39.324219 221.773438 Z M 44.765625 220.148438 C 44.484375 219.484375 44.140625 219.015625 43.734375 218.742188 C 43.335938 218.460938 42.921875 218.414063 42.484375 218.601563 C 42.046875 218.789063 41.78125 219.125 41.6875 219.601563 C 41.601563 220.082031 41.703125 220.65625 41.984375 221.320313 C 42.273438 222 42.617188 222.476563 43.015625 222.757813 C 43.421875 223.03125 43.84375 223.070313 44.28125 222.882813 C 44.71875 222.695313 44.976563 222.363281 45.0625 221.882813 C 45.15625 221.40625 45.054688 220.828125 44.765625 220.148438 Z M 41.171875 219.382813 C 41.214844 218.976563 41.328125 218.644531 41.515625 218.382813 C 41.703125 218.113281 41.984375 217.898438 42.359375 217.742188 C 42.960938 217.492188 43.5625 217.554688 44.15625 217.929688 C 44.757813 218.304688 45.242188 218.929688 45.609375 219.804688 C 45.984375 220.679688 46.09375 221.460938 45.9375 222.148438 C 45.789063 222.835938 45.414063 223.304688 44.8125 223.554688 C 44.4375 223.710938 44.085938 223.769531 43.765625 223.726563 C 43.441406 223.675781 43.117188 223.519531 42.796875 223.257813 L 43.15625 224.085938 L 42.328125 224.445313 L 39.078125 216.742188 L 39.90625 216.382813 Z M 49.242188 218.242188 C 48.574219 218.523438 48.152344 218.804688 47.976563 219.085938 C 47.796875 219.359375 47.792969 219.695313 47.960938 220.101563 C 48.09375 220.425781 48.292969 220.644531 48.554688 220.757813 C 48.824219 220.863281 49.125 220.84375 49.460938 220.695313 C 49.917969 220.507813 50.210938 220.179688 50.335938 219.710938 C 50.460938 219.234375 50.402344 218.703125 50.164063 218.117188 L 50.070313 217.898438 Z M 50.726563 217.179688 L 52.054688 220.351563 L 51.242188 220.695313 L 50.882813 219.867188 C 50.828125 220.273438 50.699219 220.617188 50.492188 220.898438 C 50.28125 221.171875 49.976563 221.390625 49.570313 221.554688 C 49.058594 221.773438 48.585938 221.789063 48.148438 221.601563 C 47.710938 221.40625 47.382813 221.039063 47.164063 220.507813 C 46.894531 219.882813 46.882813 219.335938 47.132813 218.867188 C 47.371094 218.390625 47.867188 217.992188 48.617188 217.679688 L 49.773438 217.195313 L 49.726563 217.117188 C 49.546875 216.691406 49.289063 216.414063 48.945313 216.289063 C 48.601563 216.164063 48.199219 216.195313 47.742188 216.382813 C 47.46875 216.5 47.21875 216.648438 46.976563 216.835938 C 46.726563 217.023438 46.507813 217.253906 46.320313 217.523438 L 45.976563 216.695313 C 46.226563 216.425781 46.476563 216.203125 46.726563 216.023438 C 46.976563 215.847656 47.238281 215.703125 47.507813 215.585938 C 48.226563 215.285156 48.851563 215.265625 49.382813 215.523438 C 49.914063 215.785156 50.359375 216.335938 50.726563 217.179688 Z M 55.082031 212.796875 L 55.441406 213.640625 C 55.148438 213.601563 54.871094 213.59375 54.613281 213.625 C 54.351563 213.648438 54.101563 213.710938 53.863281 213.8125 C 53.332031 214.03125 52.996094 214.390625 52.863281 214.890625 C 52.730469 215.390625 52.800781 215.980469 53.082031 216.65625 C 53.371094 217.335938 53.742188 217.796875 54.191406 218.046875 C 54.636719 218.289063 55.128906 218.296875 55.660156 218.078125 C 55.898438 217.976563 56.117188 217.84375 56.316406 217.6875 C 56.523438 217.523438 56.714844 217.320313 56.894531 217.078125 L 57.238281 217.90625 C 57.058594 218.125 56.863281 218.320313 56.644531 218.484375 C 56.425781 218.640625 56.179688 218.777344 55.910156 218.890625 C 55.148438 219.214844 54.433594 219.210938 53.769531 218.875 C 53.113281 218.53125 52.59375 217.914063 52.207031 217.015625 C 51.832031 216.109375 51.761719 215.308594 51.988281 214.609375 C 52.21875 213.902344 52.722656 213.386719 53.503906 213.0625 C 53.753906 212.960938 54.011719 212.886719 54.285156 212.84375 C 54.554688 212.792969 54.820313 212.777344 55.082031 212.796875 Z M 55.46875 209.839844 L 56.296875 209.480469 L 58.21875 214.027344 L 59.671875 210.605469 L 60.71875 210.167969 L 59.140625 213.871094 L 63.140625 215.667969 L 62.078125 216.121094 L 58.40625 214.480469 L 59.546875 217.183594 L 58.71875 217.542969 Z M 68.644531 209.269531 C 68.871094 209.261719 69.128906 209.332031 69.410156 209.488281 C 69.691406 209.644531 70.019531 209.902344 70.394531 210.253906 L 72.144531 211.878906 L 71.175781 212.285156 L 69.535156 210.738281 C 69.105469 210.34375 68.753906 210.109375 68.472656 210.035156 C 68.199219 209.964844 67.886719 210 67.535156 210.144531 L 66.550781 210.550781 L 67.863281 213.675781 L 66.957031 214.066406 L 63.847656 206.675781 L 65.878906 205.816406 C 66.648438 205.496094 67.289063 205.433594 67.800781 205.628906 C 68.320313 205.828125 68.730469 206.285156 69.035156 207.003906 C 69.230469 207.464844 69.300781 207.890625 69.238281 208.285156 C 69.175781 208.671875 68.976563 209 68.644531 209.269531 Z M 65.097656 207.113281 L 66.207031 209.722656 L 67.332031 209.253906 C 67.769531 209.066406 68.050781 208.816406 68.175781 208.503906 C 68.308594 208.191406 68.285156 207.824219 68.097656 207.394531 C 67.917969 206.957031 67.667969 206.675781 67.347656 206.550781 C 67.035156 206.425781 66.660156 206.457031 66.222656 206.644531 Z M 73.136719 205.695313 C 72.6875 205.882813 72.421875 206.222656 72.339844 206.710938 C 72.246094 207.191406 72.335938 207.765625 72.605469 208.429688 C 72.886719 209.097656 73.230469 209.566406 73.636719 209.835938 C 74.050781 210.109375 74.484375 210.148438 74.933594 209.960938 C 75.371094 209.773438 75.636719 209.441406 75.730469 208.960938 C 75.824219 208.472656 75.730469 207.894531 75.449219 207.226563 C 75.175781 206.5625 74.832031 206.09375 74.417969 205.820313 C 74 205.550781 73.574219 205.507813 73.136719 205.695313 Z M 72.808594 204.929688 C 73.515625 204.628906 74.183594 204.648438 74.808594 204.992188 C 75.433594 205.335938 75.933594 205.960938 76.308594 206.867188 C 76.691406 207.773438 76.792969 208.570313 76.605469 209.257813 C 76.417969 209.945313 75.96875 210.441406 75.261719 210.742188 C 74.542969 211.046875 73.871094 211.023438 73.246094 210.679688 C 72.621094 210.328125 72.117188 209.695313 71.730469 208.789063 C 71.355469 207.882813 71.261719 207.09375 71.449219 206.414063 C 71.636719 205.726563 72.089844 205.234375 72.808594 204.929688 Z M 79.929688 205.316406 C 79.261719 205.597656 78.839844 205.878906 78.664063 206.160156 C 78.484375 206.433594 78.480469 206.769531 78.648438 207.175781 C 78.78125 207.5 78.980469 207.71875 79.242188 207.832031 C 79.511719 207.9375 79.8125 207.917969 80.148438 207.769531 C 80.605469 207.582031 80.898438 207.253906 81.023438 206.785156 C 81.148438 206.308594 81.089844 205.777344 80.851563 205.191406 L 80.757813 204.972656 Z M 81.414063 204.253906 L 82.742188 207.425781 L 81.929688 207.769531 L 81.570313 206.941406 C 81.515625 207.347656 81.386719 207.691406 81.179688 207.972656 C 80.96875 208.246094 80.664063 208.464844 80.257813 208.628906 C 79.746094 208.847656 79.273438 208.863281 78.835938 208.675781 C 78.398438 208.480469 78.070313 208.113281 77.851563 207.582031 C 77.582031 206.957031 77.570313 206.410156 77.820313 205.941406 C 78.058594 205.464844 78.554688 205.066406 79.304688 204.753906 L 80.460938 204.269531 L 80.414063 204.191406 C 80.234375 203.765625 79.976563 203.488281 79.632813 203.363281 C 79.289063 203.238281 78.886719 203.269531 78.429688 203.457031 C 78.15625 203.574219 77.90625 203.722656 77.664063 203.910156 C 77.414063 204.097656 77.195313 204.328125 77.007813 204.597656 L 76.664063 203.769531 C 76.914063 203.5 77.164063 203.277344 77.414063 203.097656 C 77.664063 202.921875 77.925781 202.777344 78.195313 202.660156 C 78.914063 202.359375 79.539063 202.339844 80.070313 202.597656 C 80.601563 202.859375 81.046875 203.410156 81.414063 204.253906 Z M 85.71875 200.621094 L 84.453125 197.621094 L 85.28125 197.277344 L 88.53125 204.980469 L 87.703125 205.324219 L 87.34375 204.496094 C 87.320313 204.902344 87.210938 205.242188 87.015625 205.511719 C 86.816406 205.785156 86.535156 205.992188 86.171875 206.136719 C 85.566406 206.398438 84.960938 206.339844 84.359375 205.964844 C 83.753906 205.589844 83.265625 204.964844 82.890625 204.089844 C 82.527344 203.214844 82.421875 202.433594 82.578125 201.746094 C 82.734375 201.058594 83.117188 200.585938 83.71875 200.324219 C 84.082031 200.179688 84.429688 200.128906 84.765625 200.167969 C 85.097656 200.210938 85.414063 200.363281 85.71875 200.621094 Z M 83.75 203.746094 C 84.039063 204.425781 84.382813 204.898438 84.78125 205.167969 C 85.1875 205.441406 85.601563 205.480469 86.03125 205.292969 C 86.46875 205.105469 86.734375 204.773438 86.828125 204.292969 C 86.921875 203.816406 86.820313 203.238281 86.53125 202.558594 C 86.25 201.894531 85.90625 201.425781 85.5 201.152344 C 85.09375 200.871094 84.671875 200.824219 84.234375 201.011719 C 83.804688 201.199219 83.554688 201.539063 83.46875 202.027344 C 83.375 202.507813 83.46875 203.082031 83.75 203.746094 Z M 83.75 203.746094 "/>
<path style=" stroke:none;fill-rule:evenodd;fill:rgb(20%,20%,20%);fill-opacity:1;" d="M 20.890625 225.042969 L 24.625 223.230469 L 25.015625 224.042969 L 22.171875 225.433594 L 23.203125 227.558594 L 25.765625 226.308594 L 26.15625 227.136719 L 23.59375 228.386719 L 25.265625 231.839844 L 24.375 232.261719 Z M 26.957031 224.390625 L 27.785156 224.046875 L 30.113281 229.59375 L 29.285156 229.9375 Z M 26.035156 222.234375 L 26.863281 221.890625 L 27.347656 223.046875 L 26.519531 223.390625 Z M 32.742188 222.136719 L 33.101563 223.011719 C 32.808594 222.980469 32.527344 222.988281 32.257813 223.027344 C 31.984375 223.058594 31.714844 223.132813 31.445313 223.246094 C 31.027344 223.425781 30.753906 223.621094 30.617188 223.839844 C 30.472656 224.058594 30.457031 224.304688 30.570313 224.574219 C 30.65625 224.792969 30.789063 224.933594 30.976563 224.996094 C 31.171875 225.058594 31.523438 225.054688 32.023438 224.980469 L 32.320313 224.917969 C 32.964844 224.816406 33.464844 224.839844 33.820313 224.996094 C 34.171875 225.144531 34.445313 225.441406 34.632813 225.886719 C 34.839844 226.398438 34.824219 226.882813 34.585938 227.339844 C 34.355469 227.789063 33.917969 228.148438 33.273438 228.417969 C 33 228.535156 32.710938 228.628906 32.398438 228.699219 C 32.085938 228.761719 31.742188 228.804688 31.367188 228.824219 L 30.960938 227.886719 C 31.34375 227.929688 31.699219 227.933594 32.023438 227.902344 C 32.355469 227.863281 32.667969 227.777344 32.960938 227.652344 C 33.34375 227.496094 33.609375 227.300781 33.757813 227.058594 C 33.902344 226.820313 33.921875 226.570313 33.820313 226.308594 C 33.714844 226.058594 33.558594 225.902344 33.351563 225.839844 C 33.140625 225.769531 32.757813 225.777344 32.195313 225.871094 L 31.882813 225.917969 C 31.320313 226.011719 30.878906 225.988281 30.554688 225.839844 C 30.222656 225.695313 29.96875 225.402344 29.789063 224.964844 C 29.570313 224.445313 29.570313 223.976563 29.789063 223.558594 C 30 223.132813 30.410156 222.789063 31.023438 222.527344 C 31.3125 222.402344 31.605469 222.308594 31.898438 222.246094 C 32.1875 222.175781 32.46875 222.136719 32.742188 222.136719 Z M 39.324219 221.773438 L 40.730469 225.117188 L 39.902344 225.460938 L 38.511719 222.148438 C 38.28125 221.617188 38.015625 221.265625 37.714844 221.085938 C 37.421875 220.910156 37.09375 220.898438 36.730469 221.054688 C 36.292969 221.242188 36.011719 221.546875 35.886719 221.960938 C 35.769531 222.367188 35.824219 222.84375 36.042969 223.382813 L 37.371094 226.523438 L 36.542969 226.882813 L 33.292969 219.179688 L 34.121094 218.820313 L 35.402344 221.835938 C 35.445313 221.429688 35.566406 221.09375 35.761719 220.820313 C 35.957031 220.539063 36.234375 220.328125 36.589844 220.179688 C 37.160156 219.941406 37.675781 219.957031 38.136719 220.226563 C 38.605469 220.488281 39 221.003906 39.324219 221.773438 Z M 44.765625 220.148438 C 44.484375 219.484375 44.140625 219.015625 43.734375 218.742188 C 43.335938 218.460938 42.921875 218.414063 42.484375 218.601563 C 42.046875 218.789063 41.78125 219.125 41.6875 219.601563 C 41.601563 220.082031 41.703125 220.65625 41.984375 221.320313 C 42.273438 222 42.617188 222.476563 43.015625 222.757813 C 43.421875 223.03125 43.84375 223.070313 44.28125 222.882813 C 44.71875 222.695313 44.976563 222.363281 45.0625 221.882813 C 45.15625 221.40625 45.054688 220.828125 44.765625 220.148438 Z M 41.171875 219.382813 C 41.214844 218.976563 41.328125 218.644531 41.515625 218.382813 C 41.703125 218.113281 41.984375 217.898438 42.359375 217.742188 C 42.960938 217.492188 43.5625 217.554688 44.15625 217.929688 C 44.757813 218.304688 45.242188 218.929688 45.609375 219.804688 C 45.984375 220.679688 46.09375 221.460938 45.9375 222.148438 C 45.789063 222.835938 45.414063 223.304688 44.8125 223.554688 C 44.4375 223.710938 44.085938 223.769531 43.765625 223.726563 C 43.441406 223.675781 43.117188 223.519531 42.796875 223.257813 L 43.15625 224.085938 L 42.328125 224.445313 L 39.078125 216.742188 L 39.90625 216.382813 Z M 49.242188 218.242188 C 48.574219 218.523438 48.152344 218.804688 47.976563 219.085938 C 47.796875 219.359375 47.792969 219.695313 47.960938 220.101563 C 48.09375 220.425781 48.292969 220.644531 48.554688 220.757813 C 48.824219 220.863281 49.125 220.84375 49.460938 220.695313 C 49.917969 220.507813 50.210938 220.179688 50.335938 219.710938 C 50.460938 219.234375 50.402344 218.703125 50.164063 218.117188 L 50.070313 217.898438 Z M 50.726563 217.179688 L 52.054688 220.351563 L 51.242188 220.695313 L 50.882813 219.867188 C 50.828125 220.273438 50.699219 220.617188 50.492188 220.898438 C 50.28125 221.171875 49.976563 221.390625 49.570313 221.554688 C 49.058594 221.773438 48.585938 221.789063 48.148438 221.601563 C 47.710938 221.40625 47.382813 221.039063 47.164063 220.507813 C 46.894531 219.882813 46.882813 219.335938 47.132813 218.867188 C 47.371094 218.390625 47.867188 217.992188 48.617188 217.679688 L 49.773438 217.195313 L 49.726563 217.117188 C 49.546875 216.691406 49.289063 216.414063 48.945313 216.289063 C 48.601563 216.164063 48.199219 216.195313 47.742188 216.382813 C 47.46875 216.5 47.21875 216.648438 46.976563 216.835938 C 46.726563 217.023438 46.507813 217.253906 46.320313 217.523438 L 45.976563 216.695313 C 46.226563 216.425781 46.476563 216.203125 46.726563 216.023438 C 46.976563 215.847656 47.238281 215.703125 47.507813 215.585938 C 48.226563 215.285156 48.851563 215.265625 49.382813 215.523438 C 49.914063 215.785156 50.359375 216.335938 50.726563 217.179688 Z M 55.082031 212.796875 L 55.441406 213.640625 C 55.148438 213.601563 54.871094 213.59375 54.613281 213.625 C 54.351563 213.648438 54.101563 213.710938 53.863281 213.8125 C 53.332031 214.03125 52.996094 214.390625 52.863281 214.890625 C 52.730469 215.390625 52.800781 215.980469 53.082031 216.65625 C 53.371094 217.335938 53.742188 217.796875 54.191406 218.046875 C 54.636719 218.289063 55.128906 218.296875 55.660156 218.078125 C 55.898438 217.976563 56.117188 217.84375 56.316406 217.6875 C 56.523438 217.523438 56.714844 217.320313 56.894531 217.078125 L 57.238281 217.90625 C 57.058594 218.125 56.863281 218.320313 56.644531 218.484375 C 56.425781 218.640625 56.179688 218.777344 55.910156 218.890625 C 55.148438 219.214844 54.433594 219.210938 53.769531 218.875 C 53.113281 218.53125 52.59375 217.914063 52.207031 217.015625 C 51.832031 216.109375 51.761719 215.308594 51.988281 214.609375 C 52.21875 213.902344 52.722656 213.386719 53.503906 213.0625 C 53.753906 212.960938 54.011719 212.886719 54.285156 212.84375 C 54.554688 212.792969 54.820313 212.777344 55.082031 212.796875 Z M 55.46875 209.839844 L 56.296875 209.480469 L 58.21875 214.027344 L 59.671875 210.605469 L 60.71875 210.167969 L 59.140625 213.871094 L 63.140625 215.667969 L 62.078125 216.121094 L 58.40625 214.480469 L 59.546875 217.183594 L 58.71875 217.542969 Z M 68.644531 209.269531 C 68.871094 209.261719 69.128906 209.332031 69.410156 209.488281 C 69.691406 209.644531 70.019531 209.902344 70.394531 210.253906 L 72.144531 211.878906 L 71.175781 212.285156 L 69.535156 210.738281 C 69.105469 210.34375 68.753906 210.109375 68.472656 210.035156 C 68.199219 209.964844 67.886719 210 67.535156 210.144531 L 66.550781 210.550781 L 67.863281 213.675781 L 66.957031 214.066406 L 63.847656 206.675781 L 65.878906 205.816406 C 66.648438 205.496094 67.289063 205.433594 67.800781 205.628906 C 68.320313 205.828125 68.730469 206.285156 69.035156 207.003906 C 69.230469 207.464844 69.300781 207.890625 69.238281 208.285156 C 69.175781 208.671875 68.976563 209 68.644531 209.269531 Z M 65.097656 207.113281 L 66.207031 209.722656 L 67.332031 209.253906 C 67.769531 209.066406 68.050781 208.816406 68.175781 208.503906 C 68.308594 208.191406 68.285156 207.824219 68.097656 207.394531 C 67.917969 206.957031 67.667969 206.675781 67.347656 206.550781 C 67.035156 206.425781 66.660156 206.457031 66.222656 206.644531 Z M 73.136719 205.695313 C 72.6875 205.882813 72.421875 206.222656 72.339844 206.710938 C 72.246094 207.191406 72.335938 207.765625 72.605469 208.429688 C 72.886719 209.097656 73.230469 209.566406 73.636719 209.835938 C 74.050781 210.109375 74.484375 210.148438 74.933594 209.960938 C 75.371094 209.773438 75.636719 209.441406 75.730469 208.960938 C 75.824219 208.472656 75.730469 207.894531 75.449219 207.226563 C 75.175781 206.5625 74.832031 206.09375 74.417969 205.820313 C 74 205.550781 73.574219 205.507813 73.136719 205.695313 Z M 72.808594 204.929688 C 73.515625 204.628906 74.183594 204.648438 74.808594 204.992188 C 75.433594 205.335938 75.933594 205.960938 76.308594 206.867188 C 76.691406 207.773438 76.792969 208.570313 76.605469 209.257813 C 76.417969 209.945313 75.96875 210.441406 75.261719 210.742188 C 74.542969 211.046875 73.871094 211.023438 73.246094 210.679688 C 72.621094 210.328125 72.117188 209.695313 71.730469 208.789063 C 71.355469 207.882813 71.261719 207.09375 71.449219 206.414063 C 71.636719 205.726563 72.089844 205.234375 72.808594 204.929688 Z M 79.929688 205.316406 C 79.261719 205.597656 78.839844 205.878906 78.664063 206.160156 C 78.484375 206.433594 78.480469 206.769531 78.648438 207.175781 C 78.78125 207.5 78.980469 207.71875 79.242188 207.832031 C 79.511719 207.9375 79.8125 207.917969 80.148438 207.769531 C 80.605469 207.582031 80.898438 207.253906 81.023438 206.785156 C 81.148438 206.308594 81.089844 205.777344 80.851563 205.191406 L 80.757813 204.972656 Z M 81.414063 204.253906 L 82.742188 207.425781 L 81.929688 207.769531 L 81.570313 206.941406 C 81.515625 207.347656 81.386719 207.691406 81.179688 207.972656 C 80.96875 208.246094 80.664063 208.464844 80.257813 208.628906 C 79.746094 208.847656 79.273438 208.863281 78.835938 208.675781 C 78.398438 208.480469 78.070313 208.113281 77.851563 207.582031 C 77.582031 206.957031 77.570313 206.410156 77.820313 205.941406 C 78.058594 205.464844 78.554688 205.066406 79.304688 204.753906 L 80.460938 204.269531 L 80.414063 204.191406 C 80.234375 203.765625 79.976563 203.488281 79.632813 203.363281 C 79.289063 203.238281 78.886719 203.269531 78.429688 203.457031 C 78.15625 203.574219 77.90625 203.722656 77.664063 203.910156 C 77.414063 204.097656 77.195313 204.328125 77.007813 204.597656 L 76.664063 203.769531 C 76.914063 203.5 77.164063 203.277344 77.414063 203.097656 C 77.664063 202.921875 77.925781 202.777344 78.195313 202.660156 C 78.914063 202.359375 79.539063 202.339844 80.070313 202.597656 C 80.601563 202.859375 81.046875 203.410156 81.414063 204.253906 Z M 85.71875 200.621094 L 84.453125 197.621094 L 85.28125 197.277344 L 88.53125 204.980469 L 87.703125 205.324219 L 87.34375 204.496094 C 87.320313 204.902344 87.210938 205.242188 87.015625 205.511719 C 86.816406 205.785156 86.535156 205.992188 86.171875 206.136719 C 85.566406 206.398438 84.960938 206.339844 84.359375 205.964844 C 83.753906 205.589844 83.265625 204.964844 82.890625 204.089844 C 82.527344 203.214844 82.421875 202.433594 82.578125 201.746094 C 82.734375 201.058594 83.117188 200.585938 83.71875 200.324219 C 84.082031 200.179688 84.429688 200.128906 84.765625 200.167969 C 85.097656 200.210938 85.414063 200.363281 85.71875 200.621094 Z M 83.75 203.746094 C 84.039063 204.425781 84.382813 204.898438 84.78125 205.167969 C 85.1875 205.441406 85.601563 205.480469 86.03125 205.292969 C 86.46875 205.105469 86.734375 204.773438 86.828125 204.292969 C 86.921875 203.816406 86.820313 203.238281 86.53125 202.558594 C 86.25 201.894531 85.90625 201.425781 85.5 201.152344 C 85.09375 200.871094 84.671875 200.824219 84.234375 201.011719 C 83.804688 201.199219 83.554688 201.539063 83.46875 202.027344 C 83.375 202.507813 83.46875 203.082031 83.75 203.746094 Z M 83.75 203.746094 "/>
<path style="fill:none;stroke-width:3;stroke-linecap:round;stroke-linejoin:round;stroke:rgb(100%,100%,100%);stroke-opacity:1;stroke-miterlimit:10;" d="M 16.125 38.683594 L 17.140625 38.949219 L 18.21875 42.636719 L 20.984375 39.996094 L 22 40.261719 L 18.4375 43.652344 L 17.453125 47.339844 L 16.5 47.074219 L 17.484375 43.386719 Z M 24.199219 43.628906 C 23.738281 43.515625 23.324219 43.625 22.949219 43.957031 C 22.574219 44.28125 22.292969 44.792969 22.105469 45.488281 C 21.917969 46.175781 21.902344 46.761719 22.058594 47.238281 C 22.214844 47.707031 22.519531 47.996094 22.980469 48.113281 C 23.449219 48.238281 23.871094 48.136719 24.246094 47.816406 C 24.621094 47.484375 24.902344 46.972656 25.089844 46.285156 C 25.277344 45.589844 25.292969 45.003906 25.136719 44.535156 C 24.980469 44.058594 24.667969 43.753906 24.199219 43.628906 Z M 24.417969 42.832031 C 25.167969 43.042969 25.683594 43.472656 25.964844 44.128906 C 26.246094 44.777344 26.253906 45.578125 25.996094 46.535156 C 25.746094 47.472656 25.328125 48.152344 24.746094 48.582031 C 24.171875 49.019531 23.511719 49.132813 22.761719 48.925781 C 22.011719 48.726563 21.5 48.300781 21.230469 47.644531 C 20.957031 46.980469 20.949219 46.175781 21.199219 45.238281 C 21.457031 44.28125 21.871094 43.59375 22.433594 43.175781 C 23.003906 42.75 23.667969 42.636719 24.417969 42.832031 Z M 27.160156 47.484375 L 28.097656 43.96875 L 28.957031 44.203125 L 28.019531 47.6875 C 27.871094 48.230469 27.855469 48.667969 27.972656 49 C 28.097656 49.335938 28.351563 49.554688 28.738281 49.65625 C 29.207031 49.78125 29.617188 49.71875 29.972656 49.46875 C 30.324219 49.210938 30.574219 48.792969 30.722656 48.21875 L 31.613281 44.921875 L 32.472656 45.15625 L 30.910156 50.96875 L 30.050781 50.734375 L 30.285156 49.84375 C 29.980469 50.132813 29.667969 50.328125 29.347656 50.421875 C 29.035156 50.523438 28.691406 50.53125 28.316406 50.4375 C 27.722656 50.269531 27.324219 49.9375 27.128906 49.4375 C 26.929688 48.9375 26.941406 48.289063 27.160156 47.484375 Z M 30.300781 44.421875 Z M 37.976563 49.117188 L 37.039063 52.617188 L 36.179688 52.382813 L 37.117188 48.914063 C 37.261719 48.363281 37.273438 47.925781 37.148438 47.601563 C 37.023438 47.28125 36.773438 47.066406 36.398438 46.960938 C 35.929688 46.835938 35.515625 46.898438 35.164063 47.148438 C 34.808594 47.398438 34.558594 47.8125 34.414063 48.382813 L 33.523438 51.664063 L 32.648438 51.429688 L 34.210938 45.617188 L 35.085938 45.851563 L 34.851563 46.757813 C 35.140625 46.457031 35.449219 46.257813 35.773438 46.164063 C 36.09375 46.070313 36.445313 46.078125 36.820313 46.179688 C 37.414063 46.335938 37.808594 46.664063 38.007813 47.164063 C 38.203125 47.664063 38.195313 48.316406 37.976563 49.117188 Z M 42.992188 51.035156 C 43.179688 50.339844 43.195313 49.769531 43.039063 49.332031 C 42.890625 48.886719 42.578125 48.59375 42.101563 48.457031 C 41.652344 48.34375 41.246094 48.4375 40.882813 48.738281 C 40.527344 49.042969 40.257813 49.542969 40.070313 50.238281 C 39.890625 50.917969 39.875 51.484375 40.023438 51.941406 C 40.179688 52.402344 40.480469 52.6875 40.929688 52.800781 C 41.40625 52.933594 41.824219 52.847656 42.179688 52.535156 C 42.542969 52.214844 42.8125 51.714844 42.992188 51.035156 Z M 43.242188 53.519531 C 42.980469 54.507813 42.585938 55.183594 42.054688 55.550781 C 41.53125 55.925781 40.867188 56.003906 40.054688 55.785156 C 39.75 55.699219 39.46875 55.597656 39.210938 55.472656 C 38.960938 55.355469 38.71875 55.214844 38.492188 55.050781 L 38.742188 54.128906 C 38.949219 54.347656 39.167969 54.523438 39.398438 54.660156 C 39.636719 54.792969 39.882813 54.898438 40.132813 54.972656 C 40.695313 55.117188 41.15625 55.066406 41.523438 54.816406 C 41.886719 54.566406 42.15625 54.113281 42.335938 53.457031 L 42.476563 52.972656 C 42.203125 53.261719 41.90625 53.457031 41.585938 53.550781 C 41.261719 53.652344 40.90625 53.652344 40.523438 53.550781 C 39.875 53.371094 39.429688 52.960938 39.179688 52.316406 C 38.9375 51.671875 38.9375 50.902344 39.179688 50.003906 C 39.417969 49.109375 39.808594 48.441406 40.351563 48.003906 C 40.890625 47.566406 41.484375 47.4375 42.132813 47.613281 C 42.515625 47.71875 42.824219 47.890625 43.054688 48.128906 C 43.28125 48.359375 43.4375 48.671875 43.523438 49.066406 L 43.757813 48.191406 L 44.617188 48.425781 Z M 52.167969 52.785156 C 52.355469 52.921875 52.503906 53.140625 52.621094 53.441406 C 52.746094 53.734375 52.847656 54.128906 52.933594 54.628906 L 53.308594 57.003906 L 52.308594 56.722656 L 51.949219 54.503906 C 51.863281 53.921875 51.734375 53.515625 51.558594 53.285156 C 51.378906 53.058594 51.105469 52.890625 50.730469 52.785156 L 49.714844 52.519531 L 48.839844 55.800781 L 47.886719 55.535156 L 49.964844 47.800781 L 52.089844 48.378906 C 52.890625 48.597656 53.4375 48.941406 53.730469 49.410156 C 54.019531 49.878906 54.066406 50.496094 53.871094 51.253906 C 53.734375 51.734375 53.519531 52.109375 53.230469 52.378906 C 52.949219 52.640625 52.59375 52.777344 52.167969 52.785156 Z M 50.699219 48.925781 L 49.949219 51.660156 L 51.121094 51.972656 C 51.578125 52.097656 51.953125 52.078125 52.246094 51.910156 C 52.546875 51.746094 52.761719 51.4375 52.886719 50.988281 C 53.011719 50.53125 52.984375 50.15625 52.808594 49.863281 C 52.640625 49.574219 52.328125 49.363281 51.871094 49.238281 Z M 57.816406 52.3125 C 57.347656 52.25 56.945313 52.40625 56.613281 52.78125 C 56.277344 53.15625 56.058594 53.699219 55.957031 54.40625 C 55.851563 55.117188 55.910156 55.695313 56.128906 56.140625 C 56.347656 56.589844 56.691406 56.84375 57.160156 56.90625 C 57.636719 56.980469 58.039063 56.835938 58.363281 56.46875 C 58.695313 56.09375 58.914063 55.554688 59.019531 54.84375 C 59.121094 54.136719 59.066406 53.558594 58.847656 53.109375 C 58.636719 52.652344 58.292969 52.386719 57.816406 52.3125 Z M 57.925781 51.5 C 58.683594 51.617188 59.242188 51.980469 59.597656 52.59375 C 59.960938 53.210938 60.074219 54.007813 59.941406 54.984375 C 59.804688 55.953125 59.476563 56.683594 58.957031 57.171875 C 58.445313 57.671875 57.808594 57.863281 57.050781 57.75 C 56.277344 57.644531 55.714844 57.285156 55.363281 56.671875 C 55.007813 56.046875 54.898438 55.25 55.035156 54.28125 C 55.167969 53.304688 55.492188 52.570313 56.003906 52.078125 C 56.511719 51.589844 57.152344 51.398438 57.925781 51.5 Z M 64.035156 54.933594 C 63.316406 54.957031 62.820313 55.066406 62.550781 55.261719 C 62.277344 55.449219 62.148438 55.761719 62.160156 56.199219 C 62.167969 56.542969 62.277344 56.820313 62.488281 57.027344 C 62.707031 57.226563 62.992188 57.320313 63.347656 57.308594 C 63.847656 57.300781 64.238281 57.097656 64.519531 56.699219 C 64.808594 56.292969 64.945313 55.773438 64.925781 55.136719 L 64.925781 54.902344 Z M 65.800781 54.480469 L 65.894531 57.917969 L 65.003906 57.933594 L 64.972656 57.027344 C 64.773438 57.402344 64.523438 57.683594 64.222656 57.871094 C 63.929688 58.050781 63.566406 58.140625 63.128906 58.152344 C 62.574219 58.160156 62.128906 58.003906 61.785156 57.667969 C 61.449219 57.335938 61.277344 56.878906 61.269531 56.292969 C 61.246094 55.617188 61.433594 55.101563 61.832031 54.746094 C 62.226563 54.394531 62.832031 54.207031 63.644531 54.183594 L 64.894531 54.136719 L 64.894531 54.042969 C 64.882813 53.585938 64.738281 53.238281 64.457031 52.996094 C 64.183594 52.757813 63.804688 52.644531 63.316406 52.652344 C 63.011719 52.664063 62.710938 52.714844 62.410156 52.808594 C 62.117188 52.902344 61.835938 53.035156 61.566406 53.199219 L 61.550781 52.292969 C 61.871094 52.136719 62.183594 52.023438 62.488281 51.949219 C 62.789063 51.878906 63.085938 51.835938 63.378906 51.824219 C 64.160156 51.804688 64.746094 52.011719 65.144531 52.449219 C 65.550781 52.886719 65.769531 53.566406 65.800781 54.480469 Z M 70.886719 52.128906 L 70.386719 48.910156 L 71.261719 48.769531 L 72.527344 57.035156 L 71.652344 57.175781 L 71.511719 56.285156 C 71.386719 56.660156 71.191406 56.957031 70.933594 57.175781 C 70.683594 57.394531 70.359375 57.53125 69.964844 57.582031 C 69.316406 57.6875 68.746094 57.484375 68.246094 56.972656 C 67.753906 56.464844 67.4375 55.738281 67.292969 54.800781 C 67.148438 53.863281 67.234375 53.082031 67.558594 52.457031 C 67.878906 51.824219 68.363281 51.453125 69.011719 51.347656 C 69.40625 51.296875 69.753906 51.332031 70.058594 51.457031 C 70.371094 51.574219 70.644531 51.796875 70.886719 52.128906 Z M 68.199219 54.660156 C 68.3125 55.378906 68.53125 55.921875 68.855469 56.285156 C 69.175781 56.652344 69.574219 56.796875 70.042969 56.722656 C 70.511719 56.652344 70.847656 56.394531 71.058594 55.957031 C 71.265625 55.511719 71.3125 54.925781 71.199219 54.207031 C 71.082031 53.488281 70.859375 52.949219 70.527344 52.582031 C 70.203125 52.207031 69.808594 52.058594 69.339844 52.128906 C 68.871094 52.203125 68.53125 52.464844 68.324219 52.910156 C 68.125 53.359375 68.082031 53.941406 68.199219 54.660156 Z M 68.199219 54.660156 "/>
<path style=" stroke:none;fill-rule:evenodd;fill:rgb(20%,20%,20%);fill-opacity:1;" d="M 16.125 38.683594 L 17.140625 38.949219 L 18.21875 42.636719 L 20.984375 39.996094 L 22 40.261719 L 18.4375 43.652344 L 17.453125 47.339844 L 16.5 47.074219 L 17.484375 43.386719 Z M 24.199219 43.628906 C 23.738281 43.515625 23.324219 43.625 22.949219 43.957031 C 22.574219 44.28125 22.292969 44.792969 22.105469 45.488281 C 21.917969 46.175781 21.902344 46.761719 22.058594 47.238281 C 22.214844 47.707031 22.519531 47.996094 22.980469 48.113281 C 23.449219 48.238281 23.871094 48.136719 24.246094 47.816406 C 24.621094 47.484375 24.902344 46.972656 25.089844 46.285156 C 25.277344 45.589844 25.292969 45.003906 25.136719 44.535156 C 24.980469 44.058594 24.667969 43.753906 24.199219 43.628906 Z M 24.417969 42.832031 C 25.167969 43.042969 25.683594 43.472656 25.964844 44.128906 C 26.246094 44.777344 26.253906 45.578125 25.996094 46.535156 C 25.746094 47.472656 25.328125 48.152344 24.746094 48.582031 C 24.171875 49.019531 23.511719 49.132813 22.761719 48.925781 C 22.011719 48.726563 21.5 48.300781 21.230469 47.644531 C 20.957031 46.980469 20.949219 46.175781 21.199219 45.238281 C 21.457031 44.28125 21.871094 43.59375 22.433594 43.175781 C 23.003906 42.75 23.667969 42.636719 24.417969 42.832031 Z M 27.160156 47.484375 L 28.097656 43.96875 L 28.957031 44.203125 L 28.019531 47.6875 C 27.871094 48.230469 27.855469 48.667969 27.972656 49 C 28.097656 49.335938 28.351563 49.554688 28.738281 49.65625 C 29.207031 49.78125 29.617188 49.71875 29.972656 49.46875 C 30.324219 49.210938 30.574219 48.792969 30.722656 48.21875 L 31.613281 44.921875 L 32.472656 45.15625 L 30.910156 50.96875 L 30.050781 50.734375 L 30.285156 49.84375 C 29.980469 50.132813 29.667969 50.328125 29.347656 50.421875 C 29.035156 50.523438 28.691406 50.53125 28.316406 50.4375 C 27.722656 50.269531 27.324219 49.9375 27.128906 49.4375 C 26.929688 48.9375 26.941406 48.289063 27.160156 47.484375 Z M 30.300781 44.421875 Z M 37.976563 49.117188 L 37.039063 52.617188 L 36.179688 52.382813 L 37.117188 48.914063 C 37.261719 48.363281 37.273438 47.925781 37.148438 47.601563 C 37.023438 47.28125 36.773438 47.066406 36.398438 46.960938 C 35.929688 46.835938 35.515625 46.898438 35.164063 47.148438 C 34.808594 47.398438 34.558594 47.8125 34.414063 48.382813 L 33.523438 51.664063 L 32.648438 51.429688 L 34.210938 45.617188 L 35.085938 45.851563 L 34.851563 46.757813 C 35.140625 46.457031 35.449219 46.257813 35.773438 46.164063 C 36.09375 46.070313 36.445313 46.078125 36.820313 46.179688 C 37.414063 46.335938 37.808594 46.664063 38.007813 47.164063 C 38.203125 47.664063 38.195313 48.316406 37.976563 49.117188 Z M 42.992188 51.035156 C 43.179688 50.339844 43.195313 49.769531 43.039063 49.332031 C 42.890625 48.886719 42.578125 48.59375 42.101563 48.457031 C 41.652344 48.34375 41.246094 48.4375 40.882813 48.738281 C 40.527344 49.042969 40.257813 49.542969 40.070313 50.238281 C 39.890625 50.917969 39.875 51.484375 40.023438 51.941406 C 40.179688 52.402344 40.480469 52.6875 40.929688 52.800781 C 41.40625 52.933594 41.824219 52.847656 42.179688 52.535156 C 42.542969 52.214844 42.8125 51.714844 42.992188 51.035156 Z M 43.242188 53.519531 C 42.980469 54.507813 42.585938 55.183594 42.054688 55.550781 C 41.53125 55.925781 40.867188 56.003906 40.054688 55.785156 C 39.75 55.699219 39.46875 55.597656 39.210938 55.472656 C 38.960938 55.355469 38.71875 55.214844 38.492188 55.050781 L 38.742188 54.128906 C 38.949219 54.347656 39.167969 54.523438 39.398438 54.660156 C 39.636719 54.792969 39.882813 54.898438 40.132813 54.972656 C 40.695313 55.117188 41.15625 55.066406 41.523438 54.816406 C 41.886719 54.566406 42.15625 54.113281 42.335938 53.457031 L 42.476563 52.972656 C 42.203125 53.261719 41.90625 53.457031 41.585938 53.550781 C 41.261719 53.652344 40.90625 53.652344 40.523438 53.550781 C 39.875 53.371094 39.429688 52.960938 39.179688 52.316406 C 38.9375 51.671875 38.9375 50.902344 39.179688 50.003906 C 39.417969 49.109375 39.808594 48.441406 40.351563 48.003906 C 40.890625 47.566406 41.484375 47.4375 42.132813 47.613281 C 42.515625 47.71875 42.824219 47.890625 43.054688 48.128906 C 43.28125 48.359375 43.4375 48.671875 43.523438 49.066406 L 43.757813 48.191406 L 44.617188 48.425781 Z M 52.167969 52.785156 C 52.355469 52.921875 52.503906 53.140625 52.621094 53.441406 C 52.746094 53.734375 52.847656 54.128906 52.933594 54.628906 L 53.308594 57.003906 L 52.308594 56.722656 L 51.949219 54.503906 C 51.863281 53.921875 51.734375 53.515625 51.558594 53.285156 C 51.378906 53.058594 51.105469 52.890625 50.730469 52.785156 L 49.714844 52.519531 L 48.839844 55.800781 L 47.886719 55.535156 L 49.964844 47.800781 L 52.089844 48.378906 C 52.890625 48.597656 53.4375 48.941406 53.730469 49.410156 C 54.019531 49.878906 54.066406 50.496094 53.871094 51.253906 C 53.734375 51.734375 53.519531 52.109375 53.230469 52.378906 C 52.949219 52.640625 52.59375 52.777344 52.167969 52.785156 Z M 50.699219 48.925781 L 49.949219 51.660156 L 51.121094 51.972656 C 51.578125 52.097656 51.953125 52.078125 52.246094 51.910156 C 52.546875 51.746094 52.761719 51.4375 52.886719 50.988281 C 53.011719 50.53125 52.984375 50.15625 52.808594 49.863281 C 52.640625 49.574219 52.328125 49.363281 51.871094 49.238281 Z M 57.816406 52.3125 C 57.347656 52.25 56.945313 52.40625 56.613281 52.78125 C 56.277344 53.15625 56.058594 53.699219 55.957031 54.40625 C 55.851563 55.117188 55.910156 55.695313 56.128906 56.140625 C 56.347656 56.589844 56.691406 56.84375 57.160156 56.90625 C 57.636719 56.980469 58.039063 56.835938 58.363281 56.46875 C 58.695313 56.09375 58.914063 55.554688 59.019531 54.84375 C 59.121094 54.136719 59.066406 53.558594 58.847656 53.109375 C 58.636719 52.652344 58.292969 52.386719 57.816406 52.3125 Z M 57.925781 51.5 C 58.683594 51.617188 59.242188 51.980469 59.597656 52.59375 C 59.960938 53.210938 60.074219 54.007813 59.941406 54.984375 C 59.804688 55.953125 59.476563 56.683594 58.957031 57.171875 C 58.445313 57.671875 57.808594 57.863281 57.050781 57.75 C 56.277344 57.644531 55.714844 57.285156 55.363281 56.671875 C 55.007813 56.046875 54.898438 55.25 55.035156 54.28125 C 55.167969 53.304688 55.492188 52.570313 56.003906 52.078125 C 56.511719 51.589844 57.152344 51.398438 57.925781 51.5 Z M 64.035156 54.933594 C 63.316406 54.957031 62.820313 55.066406 62.550781 55.261719 C 62.277344 55.449219 62.148438 55.761719 62.160156 56.199219 C 62.167969 56.542969 62.277344 56.820313 62.488281 57.027344 C 62.707031 57.226563 62.992188 57.320313 63.347656 57.308594 C 63.847656 57.300781 64.238281 57.097656 64.519531 56.699219 C 64.808594 56.292969 64.945313 55.773438 64.925781 55.136719 L 64.925781 54.902344 Z M 65.800781 54.480469 L 65.894531 57.917969 L 65.003906 57.933594 L 64.972656 57.027344 C 64.773438 57.402344 64.523438 57.683594 64.222656 57.871094 C 63.929688 58.050781 63.566406 58.140625 63.128906 58.152344 C 62.574219 58.160156 62.128906 58.003906 61.785156 57.667969 C 61.449219 57.335938 61.277344 56.878906 61.269531 56.292969 C 61.246094 55.617188 61.433594 55.101563 61.832031 54.746094 C 62.226563 54.394531 62.832031 54.207031 63.644531 54.183594 L 64.894531 54.136719 L 64.894531 54.042969 C 64.882813 53.585938 64.738281 53.238281 64.457031 52.996094 C 64.183594 52.757813 63.804688 52.644531 63.316406 52.652344 C 63.011719 52.664063 62.710938 52.714844 62.410156 52.808594 C 62.117188 52.902344 61.835938 53.035156 61.566406 53.199219 L 61.550781 52.292969 C 61.871094 52.136719 62.183594 52.023438 62.488281 51.949219 C 62.789063 51.878906 63.085938 51.835938 63.378906 51.824219 C 64.160156 51.804688 64.746094 52.011719 65.144531 52.449219 C 65.550781 52.886719 65.769531 53.566406 65.800781 54.480469 Z M 70.886719 52.128906 L 70.386719 48.910156 L 71.261719 48.769531 L 72.527344 57.035156 L 71.652344 57.175781 L 71.511719 56.285156 C 71.386719 56.660156 71.191406 56.957031 70.933594 57.175781 C 70.683594 57.394531 70.359375 57.53125 69.964844 57.582031 C 69.316406 57.6875 68.746094 57.484375 68.246094 56.972656 C 67.753906 56.464844 67.4375 55.738281 67.292969 54.800781 C 67.148438 53.863281 67.234375 53.082031 67.558594 52.457031 C 67.878906 51.824219 68.363281 51.453125 69.011719 51.347656 C 69.40625 51.296875 69.753906 51.332031 70.058594 51.457031 C 70.371094 51.574219 70.644531 51.796875 70.886719 52.128906 Z M 68.199219 54.660156 C 68.3125 55.378906 68.53125 55.921875 68.855469 56.285156 C 69.175781 56.652344 69.574219 56.796875 70.042969 56.722656 C 70.511719 56.652344 70.847656 56.394531 71.058594 55.957031 C 71.265625 55.511719 71.3125 54.925781 71.199219 54.207031 C 71.082031 53.488281 70.859375 52.949219 70.527344 52.582031 C 70.203125 52.207031 69.808594 52.058594 69.339844 52.128906 C 68.871094 52.203125 68.53125 52.464844 68.324219 52.910156 C 68.125 53.359375 68.082031 53.941406 68.199219 54.660156 Z M 68.199219 54.660156 "/>
</g>
</svg>

