<?xml version="1.0" encoding="UTF-8"?>
<svg xmlns="http://www.w3.org/2000/svg" xmlns:xlink="http://www.w3.org/1999/xlink" width="256pt" height="256pt" viewBox="0 0 256 256" version="1.1">
<g id="surface2">
<rect x="0" y="0" width="256" height="256" style="fill:rgb(94.901961%,93.72549%,91.372549%);fill-opacity:1;stroke:none;"/>
<path style="fill:none;stroke-width:2;stroke-linecap:round;stroke-linejoin:round;stroke:rgb(60%,70.196078%,80%);stroke-opacity:1;stroke-miterlimit:10;" d="M 157.257813 -3 L 161.597656 16.742188 L 163.757813 28.082031 L 177.988281 42.566406 L 192.988281 55.769531 L 198.882813 56.792969 L 242.335938 95.796875 L 247.210938 106.308594 L 249.1875 124.824219 L 249.644531 143.222656 L 245.15625 194.667969 L 249.238281 207.988281 L 250.59375 224.488281 L 257.710938 235.820313 L 258 236.066406 "/>
<path style="fill:none;stroke-width:8;stroke-linecap:round;stroke-linejoin:round;stroke:rgb(75.686275%,70.980392%,61.568627%);stroke-opacity:1;stroke-miterlimit:10;" d="M 123.378906 53.296875 L 127.6875 53.015625 L 129.179688 52.144531 L 132.277344 48.433594 L 133.839844 47.964844 L 134.867188 47.964844 L 136.519531 48.804688 L 137.453125 50.148438 L 138.152344 55.199219 L 138.941406 56.445313 L 139.96875 56.976563 L 143.347656 56.195313 "/>
<path style="fill:none;stroke-width:8;stroke-linecap:round;stroke-linejoin:round;stroke:rgb(75.686275%,70.980392%,61.568627%);stroke-opacity:1;stroke-miterlimit:10;" d="M 147.703125 255.109375 L 151.199219 236.558594 L 152.503906 231.851563 L 153.855469 229.011719 L 155.136719 227.828125 L 165.15625 226.144531 L 168.046875 224.835938 L 179.882813 213.769531 L 182.773438 211.710938 L 186.59375 210.027344 L 190.882813 208.964844 L 195.285156 208.71875 "/>
<path style="fill:none;stroke-width:8;stroke-linecap:round;stroke-linejoin:round;stroke:rgb(75.686275%,70.980392%,61.568627%);stroke-opacity:1;stroke-miterlimit:10;" d="M 107.136719 7.742188 L 98.933594 8.023438 L 79.246094 8.023438 L 64.703125 3.753906 L 48.4375 -2.234375 L 43.3125 2.910156 L 40.75 11.453125 L 45.015625 18.3125 L 54.429688 22.585938 "/>
<path style="fill:none;stroke-width:8;stroke-linecap:round;stroke-linejoin:round;stroke:rgb(75.686275%,70.980392%,61.568627%);stroke-opacity:1;stroke-miterlimit:10;" d="M 88.332031 56.789063 L 89.242188 53.980469 L 87.773438 52.207031 L 88.679688 49.398438 "/>
<path style="fill:none;stroke-width:8;stroke-linecap:round;stroke-linejoin:round;stroke:rgb(75.686275%,70.980392%,61.568627%);stroke-opacity:1;stroke-miterlimit:10;" d="M 80.480469 48.804688 L 78.964844 51.863281 L 79.898438 53.359375 L 80.433594 56.414063 "/>
<path style="fill:none;stroke-width:8;stroke-linecap:round;stroke-linejoin:round;stroke:rgb(75.686275%,70.980392%,61.568627%);stroke-opacity:1;stroke-miterlimit:10;" d="M 98.1875 58.035156 L 98.632813 54.855469 L 97.140625 52.828125 L 98.539063 49.992188 "/>
<path style="fill:none;stroke-width:8;stroke-linecap:round;stroke-linejoin:round;stroke:rgb(75.686275%,70.980392%,61.568627%);stroke-opacity:1;stroke-miterlimit:10;" d="M 114.847656 48.558594 L 113.265625 54.167969 L 115.105469 56.414063 L 112.914063 60.03125 "/>
<path style="fill:none;stroke-width:8;stroke-linecap:round;stroke-linejoin:round;stroke:rgb(75.686275%,70.980392%,61.568627%);stroke-opacity:1;stroke-miterlimit:10;" d="M 122.097656 47.558594 L 114.847656 48.558594 L 108.628906 49.554688 L 106.972656 52.359375 L 107.625 54.386719 L 105.738281 57.320313 "/>
<path style="fill:none;stroke-width:8;stroke-linecap:round;stroke-linejoin:round;stroke:rgb(75.686275%,70.980392%,61.568627%);stroke-opacity:1;stroke-miterlimit:10;" d="M 119.160156 184.273438 L 114.011719 182.621094 L 106.925781 173.144531 L 100.214844 169.652344 "/>
<path style="fill:none;stroke-width:8;stroke-linecap:round;stroke-linejoin:round;stroke:rgb(75.686275%,70.980392%,61.568627%);stroke-opacity:1;stroke-miterlimit:10;" d="M 182.609375 262.152344 L 197.289063 245.226563 L 201.648438 238.769531 "/>
<path style="fill:none;stroke-width:8;stroke-linecap:round;stroke-linejoin:round;stroke:rgb(75.686275%,70.980392%,61.568627%);stroke-opacity:1;stroke-miterlimit:10;" d="M 108.628906 49.554688 L 104.921875 50.023438 L 98.539063 49.992188 L 88.679688 49.398438 L 80.480469 48.804688 L 70.949219 47.746094 "/>
<path style="fill:none;stroke-width:8;stroke-linecap:round;stroke-linejoin:round;stroke:rgb(75.686275%,70.980392%,61.568627%);stroke-opacity:1;stroke-miterlimit:10;" d="M 80.96875 239.863281 L 90.5 241.265625 L 93.925781 242.605469 L 96.253906 244.226563 L 100.660156 249.621094 L 103.617188 251.085938 L 105.761719 251.460938 L 108.488281 251.304688 L 114.171875 250.273438 L 119.648438 248.839844 L 123.679688 246.910156 L 125.359375 245.597656 "/>
<path style="fill:none;stroke-width:8;stroke-linecap:round;stroke-linejoin:round;stroke:rgb(75.686275%,70.980392%,61.568627%);stroke-opacity:1;stroke-miterlimit:10;" d="M 195.285156 208.71875 L 197.082031 220.6875 L 200.414063 236.746094 L 201.648438 238.769531 L 204.046875 240.828125 L 207.171875 248.53125 L 209.335938 257.132813 "/>
<path style="fill:none;stroke-width:8;stroke-linecap:round;stroke-linejoin:round;stroke:rgb(75.686275%,70.980392%,61.568627%);stroke-opacity:1;stroke-miterlimit:10;" d="M 120.417969 41.730469 L 117.085938 42.414063 L 108.90625 43.007813 L 104.667969 42.695313 L 100.519531 42.070313 L 88.496094 39.578125 L 84.464844 39.328125 L 81.226563 39.328125 L 77.871094 39.953125 L 71.53125 42.101563 L 61.746094 45.84375 L 54.007813 48.027344 L 33.992188 51.894531 L 31.824219 53.078125 L 29.679688 55.105469 L 27.863281 58.691406 L 27.652344 62.679688 L 28.914063 72.503906 L 28.820313 75.246094 L 26.582031 82.574219 L 25.71875 87.90625 "/>
<path style="fill:none;stroke-width:8;stroke-linecap:round;stroke-linejoin:round;stroke:rgb(75.686275%,70.980392%,61.568627%);stroke-opacity:1;stroke-miterlimit:10;" d="M 128.039063 247.34375 L 125.335938 250.523438 L 122.886719 251.460938 L 106.53125 255.230469 L 102.21875 256.820313 L 99.261719 259.097656 L 98.164063 260.3125 L 97.328125 261.777344 L 96.550781 264 "/>
<path style="fill:none;stroke-width:8;stroke-linecap:round;stroke-linejoin:round;stroke:rgb(75.686275%,70.980392%,61.568627%);stroke-opacity:1;stroke-miterlimit:10;" d="M 245.121094 264 L 228.09375 246.535156 L 220.101563 236.871094 L 210.433594 224.117188 L 204.605469 215.109375 L 201.042969 210.277344 L 199.15625 208.9375 L 197.875 208.6875 L 195.285156 208.71875 "/>
<path style="fill:none;stroke-width:8;stroke-linecap:round;stroke-linejoin:round;stroke:rgb(75.686275%,70.980392%,61.568627%);stroke-opacity:1;stroke-miterlimit:10;" d="M 101.992188 -9 L 102.800781 -4.820313 L 104.992188 2.628906 L 107.136719 7.742188 L 116.527344 30.253906 L 120.417969 41.730469 L 121.652344 45.53125 L 122.097656 47.558594 L 123.378906 53.296875 L 126.710938 76.742188 L 128.738281 91.707031 L 129.203125 102.527344 L 128.785156 108.886719 L 121.1875 166.753906 L 119.160156 184.273438 L 117.15625 204.632813 L 116.621094 215.484375 L 116.433594 223.929688 L 117.4375 231.507813 L 119.042969 236.589844 L 121.421875 241.171875 L 124.078125 244.414063 L 125.359375 245.597656 L 128.039063 247.34375 L 129.507813 248.15625 L 145.117188 253.921875 L 147.703125 255.109375 L 156.117188 259.566406 L 160.871094 262.246094 L 163.410156 264 "/>
<path style="fill:none;stroke-width:6;stroke-linecap:round;stroke-linejoin:round;stroke:rgb(100%,100%,100%);stroke-opacity:1;stroke-miterlimit:10;" d="M 123.378906 53.296875 L 127.6875 53.015625 L 129.179688 52.144531 L 132.277344 48.433594 L 133.839844 47.964844 L 134.867188 47.964844 L 136.519531 48.804688 L 137.453125 50.148438 L 138.152344 55.199219 L 138.941406 56.445313 L 139.96875 56.976563 L 143.347656 56.195313 "/>
<path style="fill:none;stroke-width:6;stroke-linecap:round;stroke-linejoin:round;stroke:rgb(100%,100%,100%);stroke-opacity:1;stroke-miterlimit:10;" d="M 147.703125 255.109375 L 151.199219 236.558594 L 152.503906 231.851563 L 153.855469 229.011719 L 155.136719 227.828125 L 165.15625 226.144531 L 168.046875 224.835938 L 179.882813 213.769531 L 182.773438 211.710938 L 186.59375 210.027344 L 190.882813 208.964844 L 195.285156 208.71875 "/>
<path style="fill:none;stroke-width:6;stroke-linecap:round;stroke-linejoin:round;stroke:rgb(100%,100%,100%);stroke-opacity:1;stroke-miterlimit:10;" d="M 107.136719 7.742188 L 98.933594 8.023438 L 79.246094 8.023438 L 64.703125 3.753906 L 48.4375 -2.234375 L 43.3125 2.910156 L 40.75 11.453125 L 45.015625 18.3125 L 54.429688 22.585938 "/>
<path style="fill:none;stroke-width:6;stroke-linecap:round;stroke-linejoin:round;stroke:rgb(100%,100%,100%);stroke-opacity:1;stroke-miterlimit:10;" d="M 88.332031 56.789063 L 89.242188 53.980469 L 87.773438 52.207031 L 88.679688 49.398438 "/>
<path style="fill:none;stroke-width:6;stroke-linecap:round;stroke-linejoin:round;stroke:rgb(100%,100%,100%);stroke-opacity:1;stroke-miterlimit:10;" d="M 80.480469 48.804688 L 78.964844 51.863281 L 79.898438 53.359375 L 80.433594 56.414063 "/>
<path style="fill:none;stroke-width:6;stroke-linecap:round;stroke-linejoin:round;stroke:rgb(100%,100%,100%);stroke-opacity:1;stroke-miterlimit:10;" d="M 98.1875 58.035156 L 98.632813 54.855469 L 97.140625 52.828125 L 98.539063 49.992188 "/>
<path style="fill:none;stroke-width:6;stroke-linecap:round;stroke-linejoin:round;stroke:rgb(100%,100%,100%);stroke-opacity:1;stroke-miterlimit:10;" d="M 114.847656 48.558594 L 113.265625 54.167969 L 115.105469 56.414063 L 112.914063 60.03125 "/>
<path style="fill:none;stroke-width:6;stroke-linecap:round;stroke-linejoin:round;stroke:rgb(100%,100%,100%);stroke-opacity:1;stroke-miterlimit:10;" d="M 122.097656 47.558594 L 114.847656 48.558594 L 108.628906 49.554688 L 106.972656 52.359375 L 107.625 54.386719 L 105.738281 57.320313 "/>
<path style="fill:none;stroke-width:6;stroke-linecap:round;stroke-linejoin:round;stroke:rgb(100%,100%,100%);stroke-opacity:1;stroke-miterlimit:10;" d="M 119.160156 184.273438 L 114.011719 182.621094 L 106.925781 173.144531 L 100.214844 169.652344 "/>
<path style="fill:none;stroke-width:6;stroke-linecap:round;stroke-linejoin:round;stroke:rgb(100%,100%,100%);stroke-opacity:1;stroke-miterlimit:10;" d="M 182.609375 262.152344 L 197.289063 245.226563 L 201.648438 238.769531 "/>
<path style="fill:none;stroke-width:6;stroke-linecap:round;stroke-linejoin:round;stroke:rgb(100%,100%,100%);stroke-opacity:1;stroke-miterlimit:10;" d="M 108.628906 49.554688 L 104.921875 50.023438 L 98.539063 49.992188 L 88.679688 49.398438 L 80.480469 48.804688 L 70.949219 47.746094 "/>
<path style="fill:none;stroke-width:6;stroke-linecap:round;stroke-linejoin:round;stroke:rgb(100%,100%,100%);stroke-opacity:1;stroke-miterlimit:10;" d="M 80.96875 239.863281 L 90.5 241.265625 L 93.925781 242.605469 L 96.253906 244.226563 L 100.660156 249.621094 L 103.617188 251.085938 L 105.761719 251.460938 L 108.488281 251.304688 L 114.171875 250.273438 L 119.648438 248.839844 L 123.679688 246.910156 L 125.359375 245.597656 "/>
<path style="fill:none;stroke-width:6;stroke-linecap:round;stroke-linejoin:round;stroke:rgb(100%,100%,100%);stroke-opacity:1;stroke-miterlimit:10;" d="M 195.285156 208.71875 L 197.082031 220.6875 L 200.414063 236.746094 L 201.648438 238.769531 L 204.046875 240.828125 L 207.171875 248.53125 L 209.335938 257.132813 "/>
<path style="fill:none;stroke-width:6;stroke-linecap:round;stroke-linejoin:round;stroke:rgb(100%,100%,100%);stroke-opacity:1;stroke-miterlimit:10;" d="M 120.417969 41.730469 L 117.085938 42.414063 L 108.90625 43.007813 L 104.667969 42.695313 L 100.519531 42.070313 L 88.496094 39.578125 L 84.464844 39.328125 L 81.226563 39.328125 L 77.871094 39.953125 L 71.53125 42.101563 L 61.746094 45.84375 L 54.007813 48.027344 L 33.992188 51.894531 L 31.824219 53.078125 L 29.679688 55.105469 L 27.863281 58.691406 L 27.652344 62.679688 L 28.914063 72.503906 L 28.820313 75.246094 L 26.582031 82.574219 L 25.71875 87.90625 "/>
<path style="fill:none;stroke-width:6;stroke-linecap:round;stroke-linejoin:round;stroke:rgb(100%,100%,100%);stroke-opacity:1;stroke-miterlimit:10;" d="M 128.039063 247.34375 L 125.335938 250.523438 L 122.886719 251.460938 L 106.53125 255.230469 L 102.21875 256.820313 L 99.261719 259.097656 L 98.164063 260.3125 L 97.328125 261.777344 L 96.550781 264 "/>
<path style="fill:none;stroke-width:6;stroke-linecap:round;stroke-linejoin:round;stroke:rgb(100%,100%,100%);stroke-opacity:1;stroke-miterlimit:10;" d="M 245.121094 264 L 228.09375 246.535156 L 220.101563 236.871094 L 210.433594 224.117188 L 204.605469 215.109375 L 201.042969 210.277344 L 199.15625 208.9375 L 197.875 208.6875 L 195.285156 208.71875 "/>
<path style="fill:none;stroke-width:6;stroke-linecap:round;stroke-linejoin:round;stroke:rgb(100%,99.215686%,54.509804%);stroke-opacity:1;stroke-miterlimit:10;" d="M 101.992188 -9 L 102.800781 -4.820313 L 104.992188 2.628906 L 107.136719 7.742188 L 116.527344 30.253906 L 120.417969 41.730469 L 121.652344 45.53125 L 122.097656 47.558594 L 123.378906 53.296875 L 126.710938 76.742188 L 128.738281 91.707031 L 129.203125 102.527344 L 128.785156 108.886719 L 121.1875 166.753906 L 119.160156 184.273438 L 117.15625 204.632813 L 116.621094 215.484375 L 116.433594 223.929688 L 117.4375 231.507813 L 119.042969 236.589844 L 121.421875 241.171875 L 124.078125 244.414063 L 125.359375 245.597656 L 128.039063 247.34375 L 129.507813 248.15625 L 145.117188 253.921875 L 147.703125 255.109375 L 156.117188 259.566406 L 160.871094 262.246094 L 163.410156 264 "/>
<path style="fill:none;stroke-width:3;stroke-linecap:round;stroke-linejoin:round;stroke:rgb(100%,100%,100%);stroke-opacity:1;stroke-miterlimit:10;" d="M 115.886719 177.535156 L 115.996094 176.566406 L 123.058594 177.378906 L 123.464844 173.878906 L 124.371094 173.988281 L 123.855469 178.457031 Z M 121.757813 170.230469 C 121.675781 170.949219 121.710938 171.460938 121.867188 171.761719 C 122.023438 172.054688 122.320313 172.226563 122.757813 172.277344 C 123.101563 172.308594 123.390625 172.238281 123.617188 172.058594 C 123.847656 171.871094 123.976563 171.601563 124.007813 171.246094 C 124.070313 170.746094 123.925781 170.332031 123.570313 169.996094 C 123.21875 169.652344 122.722656 169.445313 122.085938 169.371094 L 121.851563 169.355469 Z M 121.554688 168.417969 L 124.976563 168.808594 L 124.867188 169.699219 L 123.960938 169.589844 C 124.304688 169.839844 124.542969 170.128906 124.679688 170.449219 C 124.824219 170.761719 124.871094 171.136719 124.820313 171.574219 C 124.757813 172.128906 124.53125 172.550781 124.148438 172.839844 C 123.765625 173.121094 123.285156 173.226563 122.710938 173.152344 C 122.035156 173.082031 121.550781 172.824219 121.257813 172.386719 C 120.96875 171.941406 120.867188 171.308594 120.960938 170.496094 L 121.101563 169.261719 L 121.007813 169.246094 C 120.550781 169.195313 120.1875 169.289063 119.914063 169.527344 C 119.632813 169.769531 119.460938 170.132813 119.398438 170.621094 C 119.367188 170.925781 119.378906 171.230469 119.429688 171.542969 C 119.472656 171.847656 119.5625 172.132813 119.695313 172.402344 L 118.789063 172.308594 C 118.695313 171.964844 118.632813 171.644531 118.601563 171.339844 C 118.570313 171.027344 118.570313 170.726563 118.601563 170.433594 C 118.6875 169.664063 118.972656 169.113281 119.460938 168.777344 C 119.953125 168.433594 120.648438 168.316406 121.554688 168.417969 Z M 117.648438 165.195313 L 119.335938 165.414063 L 119.570313 163.601563 L 120.335938 163.695313 L 120.101563 165.507813 L 123.335938 165.929688 C 123.828125 165.992188 124.148438 165.972656 124.304688 165.867188 C 124.453125 165.765625 124.546875 165.523438 124.585938 165.148438 L 124.710938 164.257813 L 125.539063 164.367188 L 125.414063 165.257813 C 125.328125 165.945313 125.132813 166.398438 124.820313 166.617188 C 124.5 166.835938 123.96875 166.898438 123.226563 166.804688 L 119.992188 166.382813 L 119.898438 167.039063 L 119.132813 166.945313 L 119.226563 166.289063 L 117.539063 166.070313 Z M 118.140625 161.347656 L 119.828125 161.566406 L 120.0625 159.753906 L 120.828125 159.847656 L 120.59375 161.660156 L 123.828125 162.082031 C 124.320313 162.15625 124.640625 162.140625 124.796875 162.035156 C 124.945313 161.933594 125.042969 161.691406 125.09375 161.316406 L 125.203125 160.425781 L 126.03125 160.535156 L 125.921875 161.425781 C 125.828125 162.113281 125.625 162.574219 125.3125 162.800781 C 124.992188 163.019531 124.460938 163.078125 123.71875 162.972656 L 120.484375 162.550781 L 120.390625 163.191406 L 119.625 163.097656 L 119.71875 162.457031 L 118.03125 162.238281 Z M 120.226563 158.597656 L 120.335938 157.707031 L 126.304688 158.488281 L 126.195313 159.378906 Z M 117.914063 158.285156 L 118.023438 157.394531 L 119.257813 157.566406 L 119.148438 158.457031 Z M 123.535156 151.714844 L 127.128906 152.183594 L 127.019531 153.058594 L 123.457031 152.589844 C 122.886719 152.519531 122.449219 152.566406 122.144531 152.730469 C 121.84375 152.898438 121.667969 153.179688 121.613281 153.574219 C 121.550781 154.042969 121.671875 154.441406 121.972656 154.761719 C 122.265625 155.074219 122.703125 155.273438 123.285156 155.355469 L 126.660156 155.792969 L 126.535156 156.683594 L 120.566406 155.902344 L 120.691406 155.011719 L 121.628906 155.136719 C 121.296875 154.878906 121.0625 154.597656 120.925781 154.292969 C 120.78125 153.992188 120.734375 153.648438 120.785156 153.261719 C 120.859375 152.648438 121.128906 152.210938 121.597656 151.949219 C 122.066406 151.679688 122.714844 151.601563 123.535156 151.714844 Z M 119.820313 148.550781 L 121.507813 148.769531 L 121.742188 146.957031 L 122.507813 147.050781 L 122.273438 148.863281 L 125.507813 149.285156 C 126 149.359375 126.320313 149.34375 126.476563 149.238281 C 126.625 149.136719 126.722656 148.894531 126.773438 148.519531 L 126.882813 147.628906 L 127.710938 147.738281 L 127.601563 148.628906 C 127.507813 149.316406 127.304688 149.777344 126.992188 150.003906 C 126.671875 150.222656 126.140625 150.28125 125.398438 150.175781 L 122.164063 149.753906 L 122.070313 150.394531 L 121.304688 150.300781 L 121.398438 149.660156 L 119.710938 149.441406 Z M 122.859375 143.816406 C 122.796875 144.285156 122.953125 144.6875 123.328125 145.019531 C 123.703125 145.34375 124.25 145.550781 124.96875 145.644531 C 125.679688 145.738281 126.257813 145.675781 126.703125 145.457031 C 127.140625 145.230469 127.390625 144.878906 127.453125 144.410156 C 127.515625 143.933594 127.367188 143.53125 127 143.207031 C 126.625 142.875 126.085938 142.660156 125.375 142.566406 C 124.65625 142.472656 124.074219 142.542969 123.625 142.769531 C 123.179688 142.988281 122.921875 143.339844 122.859375 143.816406 Z M 122.03125 143.707031 C 122.136719 142.9375 122.496094 142.371094 123.109375 142.003906 C 123.714844 141.640625 124.511719 141.519531 125.5 141.644531 C 126.46875 141.769531 127.203125 142.089844 127.703125 142.597656 C 128.203125 143.109375 128.398438 143.75 128.296875 144.519531 C 128.191406 145.292969 127.835938 145.859375 127.234375 146.222656 C 126.621094 146.578125 125.828125 146.691406 124.859375 146.566406 C 123.871094 146.441406 123.125 146.128906 122.625 145.628906 C 122.125 145.121094 121.929688 144.480469 122.03125 143.707031 Z M 122.613281 140.324219 L 122.738281 139.433594 L 127.535156 138.933594 L 123.019531 137.230469 L 123.160156 136.183594 L 127.957031 135.699219 L 123.457031 133.996094 L 123.566406 133.105469 L 129.347656 135.292969 L 129.207031 136.339844 L 124.175781 136.855469 L 128.910156 138.667969 L 128.769531 139.699219 Z M 126.699219 127.625 L 130.292969 128.09375 L 130.183594 128.96875 L 126.621094 128.5 C 126.050781 128.429688 125.613281 128.476563 125.308594 128.640625 C 125.007813 128.808594 124.832031 129.089844 124.777344 129.484375 C 124.714844 129.953125 124.835938 130.351563 125.136719 130.671875 C 125.429688 130.984375 125.867188 131.183594 126.449219 131.265625 L 129.824219 131.703125 L 129.699219 132.59375 L 123.730469 131.8125 L 123.855469 130.921875 L 124.792969 131.046875 C 124.460938 130.789063 124.226563 130.507813 124.089844 130.203125 C 123.945313 129.902344 123.898438 129.558594 123.949219 129.171875 C 124.023438 128.558594 124.292969 128.121094 124.761719 127.859375 C 125.230469 127.589844 125.878906 127.511719 126.699219 127.625 Z M 127.660156 119.300781 C 127.765625 119.113281 127.957031 118.9375 128.238281 118.769531 C 128.519531 118.605469 128.902344 118.449219 129.378906 118.300781 L 131.675781 117.613281 L 131.535156 118.644531 L 129.378906 119.300781 C 128.828125 119.457031 128.449219 119.640625 128.238281 119.847656 C 128.03125 120.046875 127.902344 120.339844 127.847656 120.722656 L 127.707031 121.769531 L 131.066406 122.207031 L 130.941406 123.191406 L 122.988281 122.144531 L 123.269531 119.957031 C 123.386719 119.125 123.660156 118.535156 124.097656 118.191406 C 124.527344 117.847656 125.125 117.722656 125.894531 117.816406 C 126.394531 117.890625 126.796875 118.050781 127.097656 118.300781 C 127.402344 118.550781 127.589844 118.886719 127.660156 119.300781 Z M 124.003906 121.285156 L 126.816406 121.644531 L 126.972656 120.441406 C 127.035156 119.964844 126.96875 119.59375 126.769531 119.332031 C 126.5625 119.0625 126.222656 118.894531 125.753906 118.832031 C 125.285156 118.78125 124.921875 118.859375 124.660156 119.066406 C 124.390625 119.265625 124.222656 119.605469 124.160156 120.082031 Z M 126.820313 113.640625 C 126.757813 114.109375 126.914063 114.511719 127.289063 114.84375 C 127.664063 115.167969 128.210938 115.375 128.929688 115.46875 C 129.640625 115.5625 130.21875 115.5 130.664063 115.28125 C 131.101563 115.054688 131.351563 114.703125 131.414063 114.234375 C 131.476563 113.757813 131.328125 113.355469 130.960938 113.03125 C 130.585938 112.699219 130.046875 112.484375 129.335938 112.390625 C 128.617188 112.296875 128.035156 112.367188 127.585938 112.59375 C 127.140625 112.8125 126.882813 113.164063 126.820313 113.640625 Z M 125.992188 113.53125 C 126.097656 112.761719 126.457031 112.195313 127.070313 111.828125 C 127.675781 111.464844 128.472656 111.34375 129.460938 111.46875 C 130.429688 111.59375 131.164063 111.914063 131.664063 112.421875 C 132.164063 112.933594 132.359375 113.574219 132.257813 114.34375 C 132.152344 115.117188 131.796875 115.683594 131.195313 116.046875 C 130.582031 116.402344 129.789063 116.515625 128.820313 116.390625 C 127.832031 116.265625 127.085938 115.953125 126.585938 115.453125 C 126.085938 114.945313 125.890625 114.304688 125.992188 113.53125 Z M 129.796875 107.515625 C 129.734375 108.234375 129.789063 108.742188 129.953125 109.03125 C 130.109375 109.3125 130.402344 109.476563 130.828125 109.515625 C 131.171875 109.546875 131.460938 109.46875 131.6875 109.28125 C 131.917969 109.09375 132.046875 108.824219 132.078125 108.46875 C 132.121094 107.96875 131.960938 107.558594 131.59375 107.234375 C 131.230469 106.902344 130.734375 106.710938 130.109375 106.65625 L 129.875 106.625 Z M 129.546875 105.703125 L 132.96875 106 L 132.890625 106.890625 L 131.984375 106.8125 C 132.328125 107.054688 132.570313 107.335938 132.71875 107.65625 C 132.863281 107.96875 132.914063 108.34375 132.875 108.78125 C 132.832031 109.324219 132.625 109.746094 132.25 110.046875 C 131.875 110.339844 131.398438 110.460938 130.8125 110.40625 C 130.148438 110.355469 129.664063 110.109375 129.359375 109.671875 C 129.046875 109.234375 128.929688 108.617188 129 107.8125 L 129.109375 106.5625 L 129.015625 106.546875 C 128.558594 106.515625 128.195313 106.625 127.921875 106.875 C 127.640625 107.125 127.480469 107.496094 127.4375 107.984375 C 127.417969 108.289063 127.4375 108.589844 127.5 108.890625 C 127.554688 109.183594 127.648438 109.46875 127.78125 109.75 L 126.875 109.671875 C 126.761719 109.328125 126.683594 109.007813 126.640625 108.703125 C 126.601563 108.402344 126.59375 108.105469 126.625 107.8125 C 126.6875 107.03125 126.964844 106.464844 127.453125 106.109375 C 127.933594 105.757813 128.632813 105.621094 129.546875 105.703125 Z M 127.929688 100.273438 L 124.679688 100.289063 L 124.679688 99.398438 L 133.039063 99.367188 L 133.039063 100.257813 L 132.132813 100.257813 C 132.5 100.445313 132.769531 100.6875 132.945313 100.976563 C 133.109375 101.257813 133.195313 101.597656 133.195313 101.992188 C 133.203125 102.648438 132.925781 103.1875 132.351563 103.601563 C 131.769531 104.007813 131.003906 104.21875 130.054688 104.226563 C 129.109375 104.226563 128.347656 104.023438 127.773438 103.617188 C 127.191406 103.210938 126.894531 102.679688 126.882813 102.023438 C 126.882813 101.628906 126.972656 101.285156 127.148438 100.992188 C 127.316406 100.703125 127.578125 100.460938 127.929688 100.273438 Z M 130.054688 103.304688 C 130.785156 103.296875 131.351563 103.160156 131.757813 102.898438 C 132.164063 102.628906 132.367188 102.257813 132.367188 101.789063 C 132.367188 101.3125 132.164063 100.9375 131.757813 100.664063 C 131.34375 100.394531 130.769531 100.265625 130.039063 100.273438 C 129.3125 100.273438 128.742188 100.410156 128.335938 100.679688 C 127.921875 100.953125 127.710938 101.328125 127.710938 101.804688 C 127.710938 102.273438 127.921875 102.644531 128.335938 102.914063 C 128.753906 103.175781 129.328125 103.304688 130.054688 103.304688 Z M 130.054688 103.304688 "/>
<path style=" stroke:none;fill-rule:evenodd;fill:rgb(20%,20%,20%);fill-opacity:1;" d="M 115.886719 177.535156 L 115.996094 176.566406 L 123.058594 177.378906 L 123.464844 173.878906 L 124.371094 173.988281 L 123.855469 178.457031 Z M 121.757813 170.230469 C 121.675781 170.949219 121.710938 171.460938 121.867188 171.761719 C 122.023438 172.054688 122.320313 172.226563 122.757813 172.277344 C 123.101563 172.308594 123.390625 172.238281 123.617188 172.058594 C 123.847656 171.871094 123.976563 171.601563 124.007813 171.246094 C 124.070313 170.746094 123.925781 170.332031 123.570313 169.996094 C 123.21875 169.652344 122.722656 169.445313 122.085938 169.371094 L 121.851563 169.355469 Z M 121.554688 168.417969 L 124.976563 168.808594 L 124.867188 169.699219 L 123.960938 169.589844 C 124.304688 169.839844 124.542969 170.128906 124.679688 170.449219 C 124.824219 170.761719 124.871094 171.136719 124.820313 171.574219 C 124.757813 172.128906 124.53125 172.550781 124.148438 172.839844 C 123.765625 173.121094 123.285156 173.226563 122.710938 173.152344 C 122.035156 173.082031 121.550781 172.824219 121.257813 172.386719 C 120.96875 171.941406 120.867188 171.308594 120.960938 170.496094 L 121.101563 169.261719 L 121.007813 169.246094 C 120.550781 169.195313 120.1875 169.289063 119.914063 169.527344 C 119.632813 169.769531 119.460938 170.132813 119.398438 170.621094 C 119.367188 170.925781 119.378906 171.230469 119.429688 171.542969 C 119.472656 171.847656 119.5625 172.132813 119.695313 172.402344 L 118.789063 172.308594 C 118.695313 171.964844 118.632813 171.644531 118.601563 171.339844 C 118.570313 171.027344 118.570313 170.726563 118.601563 170.433594 C 118.6875 169.664063 118.972656 169.113281 119.460938 168.777344 C 119.953125 168.433594 120.648438 168.316406 121.554688 168.417969 Z M 117.648438 165.195313 L 119.335938 165.414063 L 119.570313 163.601563 L 120.335938 163.695313 L 120.101563 165.507813 L 123.335938 165.929688 C 123.828125 165.992188 124.148438 165.972656 124.304688 165.867188 C 124.453125 165.765625 124.546875 165.523438 124.585938 165.148438 L 124.710938 164.257813 L 125.539063 164.367188 L 125.414063 165.257813 C 125.328125 165.945313 125.132813 166.398438 124.820313 166.617188 C 124.5 166.835938 123.96875 166.898438 123.226563 166.804688 L 119.992188 166.382813 L 119.898438 167.039063 L 119.132813 166.945313 L 119.226563 166.289063 L 117.539063 166.070313 Z M 118.140625 161.347656 L 119.828125 161.566406 L 120.0625 159.753906 L 120.828125 159.847656 L 120.59375 161.660156 L 123.828125 162.082031 C 124.320313 162.15625 124.640625 162.140625 124.796875 162.035156 C 124.945313 161.933594 125.042969 161.691406 125.09375 161.316406 L 125.203125 160.425781 L 126.03125 160.535156 L 125.921875 161.425781 C 125.828125 162.113281 125.625 162.574219 125.3125 162.800781 C 124.992188 163.019531 124.460938 163.078125 123.71875 162.972656 L 120.484375 162.550781 L 120.390625 163.191406 L 119.625 163.097656 L 119.71875 162.457031 L 118.03125 162.238281 Z M 120.226563 158.597656 L 120.335938 157.707031 L 126.304688 158.488281 L 126.195313 159.378906 Z M 117.914063 158.285156 L 118.023438 157.394531 L 119.257813 157.566406 L 119.148438 158.457031 Z M 123.535156 151.714844 L 127.128906 152.183594 L 127.019531 153.058594 L 123.457031 152.589844 C 122.886719 152.519531 122.449219 152.566406 122.144531 152.730469 C 121.84375 152.898438 121.667969 153.179688 121.613281 153.574219 C 121.550781 154.042969 121.671875 154.441406 121.972656 154.761719 C 122.265625 155.074219 122.703125 155.273438 123.285156 155.355469 L 126.660156 155.792969 L 126.535156 156.683594 L 120.566406 155.902344 L 120.691406 155.011719 L 121.628906 155.136719 C 121.296875 154.878906 121.0625 154.597656 120.925781 154.292969 C 120.78125 153.992188 120.734375 153.648438 120.785156 153.261719 C 120.859375 152.648438 121.128906 152.210938 121.597656 151.949219 C 122.066406 151.679688 122.714844 151.601563 123.535156 151.714844 Z M 119.820313 148.550781 L 121.507813 148.769531 L 121.742188 146.957031 L 122.507813 147.050781 L 122.273438 148.863281 L 125.507813 149.285156 C 126 149.359375 126.320313 149.34375 126.476563 149.238281 C 126.625 149.136719 126.722656 148.894531 126.773438 148.519531 L 126.882813 147.628906 L 127.710938 147.738281 L 127.601563 148.628906 C 127.507813 149.316406 127.304688 149.777344 126.992188 150.003906 C 126.671875 150.222656 126.140625 150.28125 125.398438 150.175781 L 122.164063 149.753906 L 122.070313 150.394531 L 121.304688 150.300781 L 121.398438 149.660156 L 119.710938 149.441406 Z M 122.859375 143.816406 C 122.796875 144.285156 122.953125 144.6875 123.328125 145.019531 C 123.703125 145.34375 124.25 145.550781 124.96875 145.644531 C 125.679688 145.738281 126.257813 145.675781 126.703125 145.457031 C 127.140625 145.230469 127.390625 144.878906 127.453125 144.410156 C 127.515625 143.933594 127.367188 143.53125 127 143.207031 C 126.625 142.875 126.085938 142.660156 125.375 142.566406 C 124.65625 142.472656 124.074219 142.542969 123.625 142.769531 C 123.179688 142.988281 122.921875 143.339844 122.859375 143.816406 Z M 122.03125 143.707031 C 122.136719 142.9375 122.496094 142.371094 123.109375 142.003906 C 123.714844 141.640625 124.511719 141.519531 125.5 141.644531 C 126.46875 141.769531 127.203125 142.089844 127.703125 142.597656 C 128.203125 143.109375 128.398438 143.75 128.296875 144.519531 C 128.191406 145.292969 127.835938 145.859375 127.234375 146.222656 C 126.621094 146.578125 125.828125 146.691406 124.859375 146.566406 C 123.871094 146.441406 123.125 146.128906 122.625 145.628906 C 122.125 145.121094 121.929688 144.480469 122.03125 143.707031 Z M 122.613281 140.324219 L 122.738281 139.433594 L 127.535156 138.933594 L 123.019531 137.230469 L 123.160156 136.183594 L 127.957031 135.699219 L 123.457031 133.996094 L 123.566406 133.105469 L 129.347656 135.292969 L 129.207031 136.339844 L 124.175781 136.855469 L 128.910156 138.667969 L 128.769531 139.699219 Z M 126.699219 127.625 L 130.292969 128.09375 L 130.183594 128.96875 L 126.621094 128.5 C 126.050781 128.429688 125.613281 128.476563 125.308594 128.640625 C 125.007813 128.808594 124.832031 129.089844 124.777344 129.484375 C 124.714844 129.953125 124.835938 130.351563 125.136719 130.671875 C 125.429688 130.984375 125.867188 131.183594 126.449219 131.265625 L 129.824219 131.703125 L 129.699219 132.59375 L 123.730469 131.8125 L 123.855469 130.921875 L 124.792969 131.046875 C 124.460938 130.789063 124.226563 130.507813 124.089844 130.203125 C 123.945313 129.902344 123.898438 129.558594 123.949219 129.171875 C 124.023438 128.558594 124.292969 128.121094 124.761719 127.859375 C 125.230469 127.589844 125.878906 127.511719 126.699219 127.625 Z M 127.660156 119.300781 C 127.765625 119.113281 127.957031 118.9375 128.238281 118.769531 C 128.519531 118.605469 128.902344 118.449219 129.378906 118.300781 L 131.675781 117.613281 L 131.535156 118.644531 L 129.378906 119.300781 C 128.828125 119.457031 128.449219 119.640625 128.238281 119.847656 C 128.03125 120.046875 127.902344 120.339844 127.847656 120.722656 L 127.707031 121.769531 L 131.066406 122.207031 L 130.941406 123.191406 L 122.988281 122.144531 L 123.269531 119.957031 C 123.386719 119.125 123.660156 118.535156 124.097656 118.191406 C 124.527344 117.847656 125.125 117.722656 125.894531 117.816406 C 126.394531 117.890625 126.796875 118.050781 127.097656 118.300781 C 127.402344 118.550781 127.589844 118.886719 127.660156 119.300781 Z M 124.003906 121.285156 L 126.816406 121.644531 L 126.972656 120.441406 C 127.035156 119.964844 126.96875 119.59375 126.769531 119.332031 C 126.5625 119.0625 126.222656 118.894531 125.753906 118.832031 C 125.285156 118.78125 124.921875 118.859375 124.660156 119.066406 C 124.390625 119.265625 124.222656 119.605469 124.160156 120.082031 Z M 126.820313 113.640625 C 126.757813 114.109375 126.914063 114.511719 127.289063 114.84375 C 127.664063 115.167969 128.210938 115.375 128.929688 115.46875 C 129.640625 115.5625 130.21875 115.5 130.664063 115.28125 C 131.101563 115.054688 131.351563 114.703125 131.414063 114.234375 C 131.476563 113.757813 131.328125 113.355469 130.960938 113.03125 C 130.585938 112.699219 130.046875 112.484375 129.335938 112.390625 C 128.617188 112.296875 128.035156 112.367188 127.585938 112.59375 C 127.140625 112.8125 126.882813 113.164063 126.820313 113.640625 Z M 125.992188 113.53125 C 126.097656 112.761719 126.457031 112.195313 127.070313 111.828125 C 127.675781 111.464844 128.472656 111.34375 129.460938 111.46875 C 130.429688 111.59375 131.164063 111.914063 131.664063 112.421875 C 132.164063 112.933594 132.359375 113.574219 132.257813 114.34375 C 132.152344 115.117188 131.796875 115.683594 131.195313 116.046875 C 130.582031 116.402344 129.789063 116.515625 128.820313 116.390625 C 127.832031 116.265625 127.085938 115.953125 126.585938 115.453125 C 126.085938 114.945313 125.890625 114.304688 125.992188 113.53125 Z M 129.796875 107.515625 C 129.734375 108.234375 129.789063 108.742188 129.953125 109.03125 C 130.109375 109.3125 130.402344 109.476563 130.828125 109.515625 C 131.171875 109.546875 131.460938 109.46875 131.6875 109.28125 C 131.917969 109.09375 132.046875 108.824219 132.078125 108.46875 C 132.121094 107.96875 131.960938 107.558594 131.59375 107.234375 C 131.230469 106.902344 130.734375 106.710938 130.109375 106.65625 L 129.875 106.625 Z M 129.546875 105.703125 L 132.96875 106 L 132.890625 106.890625 L 131.984375 106.8125 C 132.328125 107.054688 132.570313 107.335938 132.71875 107.65625 C 132.863281 107.96875 132.914063 108.34375 132.875 108.78125 C 132.832031 109.324219 132.625 109.746094 132.25 110.046875 C 131.875 110.339844 131.398438 110.460938 130.8125 110.40625 C 130.148438 110.355469 129.664063 110.109375 129.359375 109.671875 C 129.046875 109.234375 128.929688 108.617188 129 107.8125 L 129.109375 106.5625 L 129.015625 106.546875 C 128.558594 106.515625 128.195313 106.625 127.921875 106.875 C 127.640625 107.125 127.480469 107.496094 127.4375 107.984375 C 127.417969 108.289063 127.4375 108.589844 127.5 108.890625 C 127.554688 109.183594 127.648438 109.46875 127.78125 109.75 L 126.875 109.671875 C 126.761719 109.328125 126.683594 109.007813 126.640625 108.703125 C 126.601563 108.402344 126.59375 108.105469 126.625 107.8125 C 126.6875 107.03125 126.964844 106.464844 127.453125 106.109375 C 127.933594 105.757813 128.632813 105.621094 129.546875 105.703125 Z M 127.929688 100.273438 L 124.679688 100.289063 L 124.679688 99.398438 L 133.039063 99.367188 L 133.039063 100.257813 L 132.132813 100.257813 C 132.5 100.445313 132.769531 100.6875 132.945313 100.976563 C 133.109375 101.257813 133.195313 101.597656 133.195313 101.992188 C 133.203125 102.648438 132.925781 103.1875 132.351563 103.601563 C 131.769531 104.007813 131.003906 104.21875 130.054688 104.226563 C 129.109375 104.226563 128.347656 104.023438 127.773438 103.617188 C 127.191406 103.210938 126.894531 102.679688 126.882813 102.023438 C 126.882813 101.628906 126.972656 101.285156 127.148438 100.992188 C 127.316406 100.703125 127.578125 100.460938 127.929688 100.273438 Z M 130.054688 103.304688 C 130.785156 103.296875 131.351563 103.160156 131.757813 102.898438 C 132.164063 102.628906 132.367188 102.257813 132.367188 101.789063 C 132.367188 101.3125 132.164063 100.9375 131.757813 100.664063 C 131.34375 100.394531 130.769531 100.265625 130.039063 100.273438 C 129.3125 100.273438 128.742188 100.410156 128.335938 100.679688 C 127.921875 100.953125 127.710938 101.328125 127.710938 101.804688 C 127.710938 102.273438 127.921875 102.644531 128.335938 102.914063 C 128.753906 103.175781 129.328125 103.304688 130.054688 103.304688 Z M 130.054688 103.304688 "/>
<path style="fill:none;stroke-width:3;stroke-linecap:round;stroke-linejoin:round;stroke:rgb(100%,100%,100%);stroke-opacity:1;stroke-miterlimit:10;" d="M 31 50.484375 L 32.359375 53.171875 L 33.453125 52.625 C 33.859375 52.417969 34.113281 52.140625 34.21875 51.796875 C 34.320313 51.453125 34.265625 51.070313 34.046875 50.640625 C 33.828125 50.214844 33.546875 49.9375 33.203125 49.8125 C 32.867188 49.6875 32.5 49.730469 32.09375 49.9375 Z M 29.71875 50.140625 L 31.6875 49.140625 C 32.417969 48.777344 33.050781 48.683594 33.59375 48.859375 C 34.144531 49.039063 34.597656 49.476563 34.953125 50.171875 C 35.316406 50.882813 35.40625 51.511719 35.21875 52.0625 C 35.039063 52.605469 34.585938 53.058594 33.859375 53.421875 L 32.765625 53.96875 L 34.21875 56.84375 L 33.34375 57.296875 Z M 41.488281 51.207031 L 41.566406 51.675781 L 37.535156 52.457031 C 37.710938 53.113281 37.996094 53.589844 38.394531 53.878906 C 38.789063 54.160156 39.273438 54.25 39.847656 54.144531 C 40.179688 54.074219 40.492188 53.964844 40.785156 53.816406 C 41.074219 53.660156 41.367188 53.464844 41.660156 53.222656 L 41.832031 54.128906 C 41.539063 54.347656 41.238281 54.53125 40.925781 54.675781 C 40.613281 54.8125 40.289063 54.910156 39.957031 54.972656 C 39.113281 55.140625 38.386719 55 37.785156 54.550781 C 37.179688 54.09375 36.785156 53.390625 36.597656 52.441406 C 36.410156 51.484375 36.5 50.675781 36.863281 50.019531 C 37.226563 49.363281 37.804688 48.957031 38.597656 48.800781 C 39.316406 48.667969 39.929688 48.8125 40.441406 49.238281 C 40.960938 49.667969 41.308594 50.324219 41.488281 51.207031 Z M 40.550781 51.082031 C 40.433594 50.550781 40.214844 50.15625 39.894531 49.894531 C 39.570313 49.625 39.195313 49.53125 38.769531 49.613281 C 38.277344 49.707031 37.914063 49.9375 37.675781 50.300781 C 37.445313 50.667969 37.363281 51.128906 37.425781 51.691406 Z M 47.269531 49.707031 L 47.957031 53.269531 L 47.082031 53.441406 L 46.394531 49.910156 C 46.289063 49.347656 46.105469 48.949219 45.847656 48.707031 C 45.597656 48.46875 45.277344 48.386719 44.894531 48.457031 C 44.425781 48.550781 44.085938 48.792969 43.878906 49.175781 C 43.667969 49.5625 43.621094 50.042969 43.738281 50.613281 L 44.378906 53.957031 L 43.488281 54.128906 L 42.347656 48.222656 L 43.238281 48.050781 L 43.410156 48.972656 C 43.554688 48.578125 43.746094 48.265625 43.988281 48.035156 C 44.238281 47.808594 44.550781 47.65625 44.925781 47.582031 C 45.527344 47.46875 46.027344 47.59375 46.425781 47.957031 C 46.832031 48.3125 47.113281 48.894531 47.269531 49.707031 Z M 53.429688 48.5 L 54.132813 52.0625 L 53.257813 52.234375 L 52.570313 48.703125 C 52.453125 48.140625 52.265625 47.746094 52.007813 47.515625 C 51.757813 47.277344 51.4375 47.195313 51.054688 47.265625 C 50.585938 47.359375 50.246094 47.601563 50.039063 47.984375 C 49.828125 48.371094 49.78125 48.851563 49.898438 49.421875 L 50.554688 52.765625 L 49.664063 52.9375 L 48.507813 47.03125 L 49.398438 46.859375 L 49.585938 47.78125 C 49.710938 47.386719 49.890625 47.074219 50.132813 46.84375 C 50.382813 46.617188 50.699219 46.460938 51.085938 46.375 C 51.6875 46.261719 52.1875 46.386719 52.585938 46.75 C 52.992188 47.105469 53.273438 47.6875 53.429688 48.5 Z M 58.492188 51.515625 C 58.449219 52.265625 58.339844 52.773438 58.164063 53.046875 C 57.996094 53.328125 57.71875 53.519531 57.335938 53.625 L 56.648438 53.8125 L 56.429688 53.015625 L 56.945313 52.875 C 57.171875 52.8125 57.335938 52.695313 57.429688 52.53125 C 57.523438 52.375 57.578125 52.046875 57.601563 51.546875 L 57.632813 51.0625 L 53.914063 45.953125 L 54.820313 45.703125 L 57.726563 49.765625 L 58.085938 44.78125 L 58.992188 44.515625 Z M 62.289063 41.34375 L 63.210938 40.984375 L 65.742188 47.625 L 69.023438 46.375 L 69.351563 47.21875 L 65.148438 48.828125 Z M 71.484375 43.207031 C 70.804688 43.457031 70.367188 43.71875 70.171875 43.988281 C 69.984375 44.261719 69.960938 44.597656 70.109375 45.003906 C 70.222656 45.328125 70.414063 45.558594 70.6875 45.691406 C 70.957031 45.816406 71.257813 45.816406 71.59375 45.691406 C 72.0625 45.515625 72.363281 45.191406 72.5 44.722656 C 72.644531 44.253906 72.609375 43.722656 72.390625 43.128906 L 72.3125 42.910156 Z M 73.015625 42.207031 L 74.203125 45.441406 L 73.359375 45.753906 L 73.046875 44.910156 C 72.984375 45.316406 72.835938 45.65625 72.609375 45.925781 C 72.378906 46.1875 72.0625 46.390625 71.65625 46.535156 C 71.132813 46.722656 70.660156 46.714844 70.234375 46.503906 C 69.816406 46.296875 69.503906 45.921875 69.296875 45.378906 C 69.070313 44.746094 69.085938 44.199219 69.34375 43.738281 C 69.601563 43.269531 70.113281 42.894531 70.875 42.613281 L 72.046875 42.191406 L 72.015625 42.097656 C 71.859375 41.671875 71.609375 41.390625 71.265625 41.253906 C 70.929688 41.109375 70.535156 41.121094 70.078125 41.285156 C 69.796875 41.390625 69.53125 41.53125 69.28125 41.707031 C 69.03125 41.886719 68.808594 42.097656 68.609375 42.347656 L 68.296875 41.488281 C 68.558594 41.238281 68.820313 41.03125 69.078125 40.863281 C 69.339844 40.699219 69.601563 40.566406 69.875 40.472656 C 70.601563 40.203125 71.226563 40.214844 71.75 40.503906 C 72.28125 40.785156 72.703125 41.355469 73.015625 42.207031 Z M 78.988281 40.203125 L 80.003906 43.6875 L 79.144531 43.9375 L 78.128906 40.484375 C 77.972656 39.945313 77.757813 39.570313 77.488281 39.359375 C 77.214844 39.140625 76.886719 39.089844 76.503906 39.203125 C 76.042969 39.339844 75.726563 39.609375 75.550781 40.015625 C 75.382813 40.414063 75.382813 40.890625 75.550781 41.453125 L 76.503906 44.71875 L 75.644531 44.96875 L 73.957031 39.203125 L 74.816406 38.953125 L 75.082031 39.84375 C 75.183594 39.4375 75.347656 39.109375 75.566406 38.859375 C 75.785156 38.609375 76.082031 38.429688 76.457031 38.3125 C 77.039063 38.136719 77.542969 38.210938 77.972656 38.53125 C 78.410156 38.855469 78.746094 39.414063 78.988281 40.203125 Z M 85.265625 40.175781 L 85.28125 40.660156 L 81.1875 40.800781 C 81.25 41.480469 81.453125 41.988281 81.796875 42.332031 C 82.140625 42.667969 82.601563 42.824219 83.1875 42.800781 C 83.53125 42.792969 83.859375 42.734375 84.171875 42.628906 C 84.492188 42.527344 84.8125 42.378906 85.125 42.191406 L 85.15625 43.113281 C 84.84375 43.28125 84.519531 43.410156 84.1875 43.503906 C 83.851563 43.589844 83.515625 43.636719 83.171875 43.660156 C 82.304688 43.679688 81.613281 43.425781 81.09375 42.894531 C 80.570313 42.355469 80.289063 41.605469 80.25 40.644531 C 80.21875 39.667969 80.429688 38.878906 80.890625 38.285156 C 81.347656 37.691406 81.984375 37.378906 82.796875 37.347656 C 83.523438 37.328125 84.109375 37.574219 84.546875 38.082031 C 84.992188 38.582031 85.234375 39.28125 85.265625 40.175781 Z M 84.359375 39.910156 C 84.328125 39.371094 84.175781 38.941406 83.90625 38.628906 C 83.632813 38.308594 83.28125 38.15625 82.84375 38.175781 C 82.34375 38.199219 81.945313 38.371094 81.65625 38.691406 C 81.363281 39.015625 81.207031 39.457031 81.1875 40.019531 Z M 84.359375 39.910156 "/>
<path style=" stroke:none;fill-rule:evenodd;fill:rgb(20%,20%,20%);fill-opacity:1;" d="M 31 50.484375 L 32.359375 53.171875 L 33.453125 52.625 C 33.859375 52.417969 34.113281 52.140625 34.21875 51.796875 C 34.320313 51.453125 34.265625 51.070313 34.046875 50.640625 C 33.828125 50.214844 33.546875 49.9375 33.203125 49.8125 C 32.867188 49.6875 32.5 49.730469 32.09375 49.9375 Z M 29.71875 50.140625 L 31.6875 49.140625 C 32.417969 48.777344 33.050781 48.683594 33.59375 48.859375 C 34.144531 49.039063 34.597656 49.476563 34.953125 50.171875 C 35.316406 50.882813 35.40625 51.511719 35.21875 52.0625 C 35.039063 52.605469 34.585938 53.058594 33.859375 53.421875 L 32.765625 53.96875 L 34.21875 56.84375 L 33.34375 57.296875 Z M 41.488281 51.207031 L 41.566406 51.675781 L 37.535156 52.457031 C 37.710938 53.113281 37.996094 53.589844 38.394531 53.878906 C 38.789063 54.160156 39.273438 54.25 39.847656 54.144531 C 40.179688 54.074219 40.492188 53.964844 40.785156 53.816406 C 41.074219 53.660156 41.367188 53.464844 41.660156 53.222656 L 41.832031 54.128906 C 41.539063 54.347656 41.238281 54.53125 40.925781 54.675781 C 40.613281 54.8125 40.289063 54.910156 39.957031 54.972656 C 39.113281 55.140625 38.386719 55 37.785156 54.550781 C 37.179688 54.09375 36.785156 53.390625 36.597656 52.441406 C 36.410156 51.484375 36.5 50.675781 36.863281 50.019531 C 37.226563 49.363281 37.804688 48.957031 38.597656 48.800781 C 39.316406 48.667969 39.929688 48.8125 40.441406 49.238281 C 40.960938 49.667969 41.308594 50.324219 41.488281 51.207031 Z M 40.550781 51.082031 C 40.433594 50.550781 40.214844 50.15625 39.894531 49.894531 C 39.570313 49.625 39.195313 49.53125 38.769531 49.613281 C 38.277344 49.707031 37.914063 49.9375 37.675781 50.300781 C 37.445313 50.667969 37.363281 51.128906 37.425781 51.691406 Z M 47.269531 49.707031 L 47.957031 53.269531 L 47.082031 53.441406 L 46.394531 49.910156 C 46.289063 49.347656 46.105469 48.949219 45.847656 48.707031 C 45.597656 48.46875 45.277344 48.386719 44.894531 48.457031 C 44.425781 48.550781 44.085938 48.792969 43.878906 49.175781 C 43.667969 49.5625 43.621094 50.042969 43.738281 50.613281 L 44.378906 53.957031 L 43.488281 54.128906 L 42.347656 48.222656 L 43.238281 48.050781 L 43.410156 48.972656 C 43.554688 48.578125 43.746094 48.265625 43.988281 48.035156 C 44.238281 47.808594 44.550781 47.65625 44.925781 47.582031 C 45.527344 47.46875 46.027344 47.59375 46.425781 47.957031 C 46.832031 48.3125 47.113281 48.894531 47.269531 49.707031 Z M 53.429688 48.5 L 54.132813 52.0625 L 53.257813 52.234375 L 52.570313 48.703125 C 52.453125 48.140625 52.265625 47.746094 52.007813 47.515625 C 51.757813 47.277344 51.4375 47.195313 51.054688 47.265625 C 50.585938 47.359375 50.246094 47.601563 50.039063 47.984375 C 49.828125 48.371094 49.78125 48.851563 49.898438 49.421875 L 50.554688 52.765625 L 49.664063 52.9375 L 48.507813 47.03125 L 49.398438 46.859375 L 49.585938 47.78125 C 49.710938 47.386719 49.890625 47.074219 50.132813 46.84375 C 50.382813 46.617188 50.699219 46.460938 51.085938 46.375 C 51.6875 46.261719 52.1875 46.386719 52.585938 46.75 C 52.992188 47.105469 53.273438 47.6875 53.429688 48.5 Z M 58.492188 51.515625 C 58.449219 52.265625 58.339844 52.773438 58.164063 53.046875 C 57.996094 53.328125 57.71875 53.519531 57.335938 53.625 L 56.648438 53.8125 L 56.429688 53.015625 L 56.945313 52.875 C 57.171875 52.8125 57.335938 52.695313 57.429688 52.53125 C 57.523438 52.375 57.578125 52.046875 57.601563 51.546875 L 57.632813 51.0625 L 53.914063 45.953125 L 54.820313 45.703125 L 57.726563 49.765625 L 58.085938 44.78125 L 58.992188 44.515625 Z M 62.289063 41.34375 L 63.210938 40.984375 L 65.742188 47.625 L 69.023438 46.375 L 69.351563 47.21875 L 65.148438 48.828125 Z M 71.484375 43.207031 C 70.804688 43.457031 70.367188 43.71875 70.171875 43.988281 C 69.984375 44.261719 69.960938 44.597656 70.109375 45.003906 C 70.222656 45.328125 70.414063 45.558594 70.6875 45.691406 C 70.957031 45.816406 71.257813 45.816406 71.59375 45.691406 C 72.0625 45.515625 72.363281 45.191406 72.5 44.722656 C 72.644531 44.253906 72.609375 43.722656 72.390625 43.128906 L 72.3125 42.910156 Z M 73.015625 42.207031 L 74.203125 45.441406 L 73.359375 45.753906 L 73.046875 44.910156 C 72.984375 45.316406 72.835938 45.65625 72.609375 45.925781 C 72.378906 46.1875 72.0625 46.390625 71.65625 46.535156 C 71.132813 46.722656 70.660156 46.714844 70.234375 46.503906 C 69.816406 46.296875 69.503906 45.921875 69.296875 45.378906 C 69.070313 44.746094 69.085938 44.199219 69.34375 43.738281 C 69.601563 43.269531 70.113281 42.894531 70.875 42.613281 L 72.046875 42.191406 L 72.015625 42.097656 C 71.859375 41.671875 71.609375 41.390625 71.265625 41.253906 C 70.929688 41.109375 70.535156 41.121094 70.078125 41.285156 C 69.796875 41.390625 69.53125 41.53125 69.28125 41.707031 C 69.03125 41.886719 68.808594 42.097656 68.609375 42.347656 L 68.296875 41.488281 C 68.558594 41.238281 68.820313 41.03125 69.078125 40.863281 C 69.339844 40.699219 69.601563 40.566406 69.875 40.472656 C 70.601563 40.203125 71.226563 40.214844 71.75 40.503906 C 72.28125 40.785156 72.703125 41.355469 73.015625 42.207031 Z M 78.988281 40.203125 L 80.003906 43.6875 L 79.144531 43.9375 L 78.128906 40.484375 C 77.972656 39.945313 77.757813 39.570313 77.488281 39.359375 C 77.214844 39.140625 76.886719 39.089844 76.503906 39.203125 C 76.042969 39.339844 75.726563 39.609375 75.550781 40.015625 C 75.382813 40.414063 75.382813 40.890625 75.550781 41.453125 L 76.503906 44.71875 L 75.644531 44.96875 L 73.957031 39.203125 L 74.816406 38.953125 L 75.082031 39.84375 C 75.183594 39.4375 75.347656 39.109375 75.566406 38.859375 C 75.785156 38.609375 76.082031 38.429688 76.457031 38.3125 C 77.039063 38.136719 77.542969 38.210938 77.972656 38.53125 C 78.410156 38.855469 78.746094 39.414063 78.988281 40.203125 Z M 85.265625 40.175781 L 85.28125 40.660156 L 81.1875 40.800781 C 81.25 41.480469 81.453125 41.988281 81.796875 42.332031 C 82.140625 42.667969 82.601563 42.824219 83.1875 42.800781 C 83.53125 42.792969 83.859375 42.734375 84.171875 42.628906 C 84.492188 42.527344 84.8125 42.378906 85.125 42.191406 L 85.15625 43.113281 C 84.84375 43.28125 84.519531 43.410156 84.1875 43.503906 C 83.851563 43.589844 83.515625 43.636719 83.171875 43.660156 C 82.304688 43.679688 81.613281 43.425781 81.09375 42.894531 C 80.570313 42.355469 80.289063 41.605469 80.25 40.644531 C 80.21875 39.667969 80.429688 38.878906 80.890625 38.285156 C 81.347656 37.691406 81.984375 37.378906 82.796875 37.347656 C 83.523438 37.328125 84.109375 37.574219 84.546875 38.082031 C 84.992188 38.582031 85.234375 39.28125 85.265625 40.175781 Z M 84.359375 39.910156 C 84.328125 39.371094 84.175781 38.941406 83.90625 38.628906 C 83.632813 38.308594 83.28125 38.15625 82.84375 38.175781 C 82.34375 38.199219 81.945313 38.371094 81.65625 38.691406 C 81.363281 39.015625 81.207031 39.457031 81.1875 40.019531 Z M 84.359375 39.910156 "/>
</g>
</svg>

