<?xml version="1.0" encoding="UTF-8"?>
<svg xmlns="http://www.w3.org/2000/svg" xmlns:xlink="http://www.w3.org/1999/xlink" width="256pt" height="256pt" viewBox="0 0 256 256" version="1.1">
<g id="surface2">
<rect x="0" y="0" width="256" height="256" style="fill:rgb(94.901961%,93.72549%,91.372549%);fill-opacity:1;stroke:none;"/>
<path style=" stroke:none;fill-rule:evenodd;fill:rgb(60%,70.196078%,80%);fill-opacity:1;" d="M 232.140625 259 L 232.167969 258.964844 L 234.828125 248.855469 L 237.421875 239.878906 L 242.476563 231.429688 L 245.46875 219.992188 L 245.46875 212.605469 L 242.34375 209.21875 L 238.488281 209.949219 L 236.824219 216.464844 L 232.832031 222.519531 L 223.65625 227.308594 L 216.605469 233.824219 L 211.082031 240.808594 L 207.890625 246.59375 L 207.09375 257.300781 L 206.96875 259 Z M 232.140625 259 "/>
<path style="fill:none;stroke-width:1;stroke-linecap:round;stroke-linejoin:round;stroke:rgb(70.196078%,77.647059%,83.137255%);stroke-opacity:1;stroke-miterlimit:10;" d="M 232.140625 259 L 232.167969 258.964844 L 234.828125 248.855469 L 237.421875 239.878906 L 242.476563 231.429688 L 245.46875 219.992188 L 245.46875 212.605469 L 242.34375 209.21875 L 238.488281 209.949219 L 236.824219 216.464844 L 232.832031 222.519531 L 223.65625 227.308594 L 216.605469 233.824219 L 211.082031 240.808594 L 207.890625 246.59375 L 207.09375 257.300781 L 206.96875 259 L 232.140625 259 "/>
</g>
</svg>

