<?xml version="1.0" encoding="UTF-8"?>
<svg xmlns="http://www.w3.org/2000/svg" xmlns:xlink="http://www.w3.org/1999/xlink" width="256pt" height="256pt" viewBox="0 0 256 256" version="1.1">
<g id="surface2">
<rect x="0" y="0" width="256" height="256" style="fill:rgb(94.901961%,93.72549%,91.372549%);fill-opacity:1;stroke:none;"/>
<path style=" stroke:none;fill-rule:evenodd;fill:rgb(60%,70.196078%,80%);fill-opacity:1;" d="M -4 259 L -4 -4 L 259 -4 L -4 -4 Z M -4 259 "/>
<path style="fill:none;stroke-width:1;stroke-linecap:round;stroke-linejoin:round;stroke:rgb(70.196078%,77.647059%,83.137255%);stroke-opacity:1;stroke-miterlimit:10;" d="M -4 259 L -4 -4 L 259 -4 L -4 -4 L -4 259 "/>
<path style="fill:none;stroke-width:8;stroke-linecap:round;stroke-linejoin:round;stroke:rgb(75.686275%,70.980392%,61.568627%);stroke-opacity:1;stroke-miterlimit:10;" d="M 159.085938 264 L 156.125 262.050781 L 151.042969 255.695313 L 146.964844 249.824219 L 142.492188 244.425781 L 137.949219 241.074219 L 132.753906 239.863281 L 129.164063 239.542969 "/>
<path style="fill:none;stroke-width:8;stroke-linecap:round;stroke-linejoin:round;stroke:rgb(75.686275%,70.980392%,61.568627%);stroke-opacity:1;stroke-miterlimit:10;" d="M 165.445313 183.128906 L 121.542969 143.855469 L 73.777344 113.269531 L 64.339844 109.820313 L 53.527344 107.105469 L 42.644531 106.148438 L 33.859375 106.148438 L 22.605469 107.140625 L -9 111.726563 "/>
<path style="fill:none;stroke-width:8;stroke-linecap:round;stroke-linejoin:round;stroke:rgb(75.686275%,70.980392%,61.568627%);stroke-opacity:1;stroke-miterlimit:10;" d="M 90.746094 264 L 117.675781 247.140625 L 129.164063 239.542969 L 132.984375 237.179688 L 137.550781 232.230469 L 140.324219 228.046875 L 159.316406 194.941406 L 165.445313 183.128906 L 198.953125 128.171875 L 235.140625 66.1875 L 239.726563 54.347656 L 254.527344 2.460938 L 254.003906 -7.226563 L 253.570313 -9 "/>
<path style="fill:none;stroke-width:6;stroke-linecap:round;stroke-linejoin:round;stroke:rgb(100%,100%,100%);stroke-opacity:1;stroke-miterlimit:10;" d="M 159.085938 264 L 156.125 262.050781 L 151.042969 255.695313 L 146.964844 249.824219 L 142.492188 244.425781 L 137.949219 241.074219 L 132.753906 239.863281 L 129.164063 239.542969 "/>
<path style="fill:none;stroke-width:6;stroke-linecap:round;stroke-linejoin:round;stroke:rgb(100%,100%,100%);stroke-opacity:1;stroke-miterlimit:10;" d="M 165.445313 183.128906 L 121.542969 143.855469 L 73.777344 113.269531 L 64.339844 109.820313 L 53.527344 107.105469 L 42.644531 106.148438 L 33.859375 106.148438 L 22.605469 107.140625 L -9 111.726563 "/>
<path style="fill:none;stroke-width:6;stroke-linecap:round;stroke-linejoin:round;stroke:rgb(100%,100%,100%);stroke-opacity:1;stroke-miterlimit:10;" d="M 90.746094 264 L 117.675781 247.140625 L 129.164063 239.542969 L 132.984375 237.179688 L 137.550781 232.230469 L 140.324219 228.046875 L 159.316406 194.941406 L 165.445313 183.128906 L 198.953125 128.171875 L 235.140625 66.1875 L 239.726563 54.347656 L 254.527344 2.460938 L 254.003906 -7.226563 L 253.570313 -9 "/>
<path style="fill:none;stroke-width:3;stroke-linecap:round;stroke-linejoin:round;stroke:rgb(100%,100%,100%);stroke-opacity:1;stroke-miterlimit:10;" d="M 167.683594 171.742188 L 168.199219 170.898438 L 174.777344 173.132813 L 169.777344 168.320313 L 170.339844 167.382813 L 176.933594 169.601563 L 171.917969 164.789063 L 172.433594 163.945313 L 178.339844 169.664063 L 177.699219 170.710938 L 170.949219 168.382813 L 176.105469 173.320313 L 175.464844 174.367188 Z M 174.792969 163.921875 L 175.261719 163.15625 L 180.402344 166.28125 L 179.933594 167.046875 Z M 172.792969 162.6875 L 173.261719 161.921875 L 174.339844 162.578125 L 173.871094 163.34375 Z M 174.222656 160.339844 L 174.691406 159.574219 L 181.832031 163.933594 L 181.363281 164.699219 Z M 182.421875 156.710938 L 182.84375 156.960938 L 180.71875 160.460938 C 181.3125 160.773438 181.84375 160.882813 182.3125 160.789063 C 182.789063 160.6875 183.179688 160.382813 183.484375 159.882813 C 183.671875 159.59375 183.804688 159.289063 183.890625 158.976563 C 183.972656 158.65625 184.03125 158.304688 184.0625 157.929688 L 184.84375 158.414063 C 184.800781 158.769531 184.726563 159.109375 184.625 159.429688 C 184.519531 159.753906 184.378906 160.0625 184.203125 160.351563 C 183.753906 161.09375 183.15625 161.535156 182.40625 161.679688 C 181.667969 161.828125 180.890625 161.648438 180.078125 161.148438 C 179.234375 160.640625 178.695313 160.03125 178.453125 159.320313 C 178.214844 158.613281 178.308594 157.910156 178.734375 157.210938 C 179.109375 156.585938 179.632813 156.234375 180.296875 156.148438 C 180.953125 156.054688 181.664063 156.242188 182.421875 156.710938 Z M 181.71875 157.320313 C 181.25 157.050781 180.8125 156.941406 180.40625 156.992188 C 179.992188 157.035156 179.667969 157.242188 179.4375 157.617188 C 179.179688 158.046875 179.105469 158.472656 179.21875 158.898438 C 179.324219 159.328125 179.605469 159.703125 180.0625 160.023438 Z M 187.625 155.523438 C 188.113281 156.109375 188.382813 156.5625 188.4375 156.882813 C 188.5 157.195313 188.425781 157.519531 188.21875 157.851563 L 187.84375 158.460938 L 187.140625 158.039063 L 187.421875 157.585938 C 187.546875 157.390625 187.585938 157.195313 187.546875 157.007813 C 187.503906 156.820313 187.328125 156.535156 187.015625 156.148438 L 186.703125 155.773438 L 180.5 154.570313 L 180.984375 153.773438 L 185.875 154.757813 L 182.75 150.867188 L 183.234375 150.070313 Z M 182.878906 147.378906 L 184.332031 148.269531 L 185.285156 146.707031 L 185.941406 147.097656 L 184.988281 148.660156 L 187.785156 150.363281 C 188.203125 150.613281 188.5 150.722656 188.675781 150.691406 C 188.863281 150.660156 189.054688 150.488281 189.253906 150.175781 L 189.722656 149.394531 L 190.425781 149.832031 L 189.957031 150.613281 C 189.601563 151.199219 189.230469 151.527344 188.847656 151.597656 C 188.472656 151.671875 187.96875 151.515625 187.332031 151.128906 L 184.535156 149.425781 L 184.191406 149.972656 L 183.535156 149.582031 L 183.878906 149.035156 L 182.425781 148.144531 Z M 187.582031 144.257813 C 187.332031 144.675781 187.3125 145.113281 187.519531 145.570313 C 187.730469 146.019531 188.140625 146.429688 188.753906 146.804688 C 189.371094 147.179688 189.925781 147.359375 190.425781 147.335938 C 190.914063 147.316406 191.285156 147.097656 191.535156 146.679688 C 191.785156 146.273438 191.804688 145.847656 191.597656 145.398438 C 191.398438 144.953125 190.992188 144.539063 190.378906 144.164063 C 189.765625 143.789063 189.207031 143.613281 188.707031 143.632813 C 188.207031 143.644531 187.832031 143.851563 187.582031 144.257813 Z M 186.878906 143.835938 C 187.285156 143.179688 187.84375 142.8125 188.550781 142.726563 C 189.25 142.644531 190.019531 142.859375 190.863281 143.367188 C 191.695313 143.878906 192.238281 144.46875 192.488281 145.132813 C 192.746094 145.800781 192.675781 146.460938 192.269531 147.117188 C 191.863281 147.785156 191.300781 148.160156 190.582031 148.242188 C 189.875 148.328125 189.105469 148.113281 188.269531 147.601563 C 187.425781 147.09375 186.886719 146.503906 186.644531 145.835938 C 186.394531 145.171875 186.472656 144.503906 186.878906 143.835938 Z M 188.777344 141.003906 L 189.246094 140.222656 L 193.824219 141.722656 L 190.402344 138.332031 L 190.949219 137.441406 L 195.511719 138.925781 L 192.089844 135.550781 L 192.558594 134.785156 L 196.964844 139.128906 L 196.417969 140.019531 L 191.589844 138.441406 L 195.199219 142.019531 L 194.652344 142.910156 Z M 197.648438 131.03125 L 200.742188 132.921875 L 200.273438 133.6875 L 197.210938 131.8125 C 196.722656 131.523438 196.304688 131.390625 195.960938 131.421875 C 195.617188 131.445313 195.34375 131.621094 195.132813 131.953125 C 194.882813 132.371094 194.832031 132.78125 194.976563 133.1875 C 195.125 133.59375 195.445313 133.953125 195.945313 134.265625 L 198.851563 136.03125 L 198.382813 136.796875 L 193.242188 133.671875 L 193.710938 132.90625 L 194.523438 133.390625 C 194.316406 133.027344 194.210938 132.679688 194.210938 132.34375 C 194.210938 132 194.3125 131.664063 194.507813 131.328125 C 194.832031 130.808594 195.257813 130.523438 195.789063 130.46875 C 196.320313 130.417969 196.941406 130.605469 197.648438 131.03125 Z M 201.8125 123.738281 C 201.992188 123.613281 202.242188 123.53125 202.5625 123.488281 C 202.875 123.4375 203.28125 123.4375 203.78125 123.488281 L 206.171875 123.753906 L 205.640625 124.644531 L 203.390625 124.394531 C 202.820313 124.34375 202.402344 124.371094 202.140625 124.472656 C 201.871094 124.578125 201.636719 124.796875 201.4375 125.128906 L 200.90625 126.050781 L 203.828125 127.753906 L 203.328125 128.597656 L 196.40625 124.550781 L 197.515625 122.660156 C 197.945313 121.941406 198.421875 121.503906 198.953125 121.347656 C 199.476563 121.191406 200.074219 121.3125 200.75 121.707031 C 201.179688 121.957031 201.484375 122.261719 201.671875 122.613281 C 201.859375 122.957031 201.90625 123.332031 201.8125 123.738281 Z M 197.671875 124.160156 L 200.125 125.597656 L 200.734375 124.550781 C 200.984375 124.136719 201.070313 123.765625 200.984375 123.441406 C 200.902344 123.109375 200.65625 122.824219 200.25 122.582031 C 199.84375 122.34375 199.480469 122.269531 199.15625 122.363281 C 198.824219 122.449219 198.53125 122.699219 198.28125 123.113281 Z M 203.246094 118.191406 C 203.007813 118.609375 202.996094 119.042969 203.214844 119.488281 C 203.433594 119.9375 203.851563 120.34375 204.464844 120.707031 C 205.089844 121.074219 205.652344 121.238281 206.152344 121.207031 C 206.640625 121.175781 207.003906 120.953125 207.246094 120.535156 C 207.484375 120.128906 207.496094 119.703125 207.277344 119.253906 C 207.066406 118.808594 206.652344 118.402344 206.027344 118.035156 C 205.414063 117.671875 204.855469 117.503906 204.355469 117.535156 C 203.855469 117.566406 203.488281 117.785156 203.246094 118.191406 Z M 202.527344 117.769531 C 202.914063 117.113281 203.460938 116.734375 204.167969 116.628906 C 204.867188 116.527344 205.644531 116.722656 206.496094 117.222656 C 207.339844 117.722656 207.890625 118.308594 208.152344 118.972656 C 208.421875 119.640625 208.363281 120.300781 207.980469 120.957031 C 207.582031 121.636719 207.03125 122.027344 206.324219 122.128906 C 205.617188 122.222656 204.839844 122.019531 203.996094 121.519531 C 203.144531 121.019531 202.585938 120.441406 202.324219 119.785156 C 202.066406 119.121094 202.132813 118.449219 202.527344 117.769531 Z M 208.4375 113.832031 C 208.085938 114.449219 207.921875 114.921875 207.953125 115.253906 C 207.976563 115.589844 208.171875 115.871094 208.546875 116.097656 C 208.839844 116.265625 209.125 116.3125 209.40625 116.238281 C 209.695313 116.15625 209.929688 115.964844 210.109375 115.660156 C 210.359375 115.234375 210.390625 114.796875 210.203125 114.347656 C 210.015625 113.890625 209.644531 113.5 209.09375 113.175781 L 208.890625 113.050781 Z M 209 112.082031 L 211.96875 113.816406 L 211.515625 114.582031 L 210.734375 114.128906 C 210.941406 114.496094 211.046875 114.855469 211.046875 115.207031 C 211.046875 115.550781 210.9375 115.910156 210.71875 116.285156 C 210.4375 116.765625 210.0625 117.0625 209.59375 117.175781 C 209.136719 117.28125 208.652344 117.1875 208.140625 116.894531 C 207.558594 116.550781 207.21875 116.121094 207.125 115.597656 C 207.03125 115.066406 207.195313 114.449219 207.609375 113.738281 L 208.234375 112.660156 L 208.15625 112.613281 C 207.761719 112.386719 207.390625 112.328125 207.046875 112.441406 C 206.695313 112.546875 206.390625 112.8125 206.140625 113.238281 C 205.996094 113.5 205.882813 113.78125 205.796875 114.082031 C 205.714844 114.375 205.679688 114.683594 205.6875 115.003906 L 204.90625 114.550781 C 204.949219 114.1875 205.015625 113.859375 205.109375 113.566406 C 205.203125 113.265625 205.324219 112.988281 205.46875 112.738281 C 205.867188 112.0625 206.355469 111.671875 206.9375 111.566406 C 207.523438 111.453125 208.210938 111.625 209 112.082031 Z M 210.273438 106.578125 L 207.460938 104.9375 L 207.914063 104.171875 L 215.132813 108.390625 L 214.679688 109.15625 L 213.898438 108.703125 C 214.117188 109.046875 214.226563 109.386719 214.226563 109.71875 C 214.234375 110.054688 214.140625 110.390625 213.945313 110.734375 C 213.609375 111.308594 213.09375 111.625 212.398438 111.6875 C 211.691406 111.75 210.925781 111.542969 210.101563 111.0625 C 209.289063 110.585938 208.738281 110.023438 208.445313 109.375 C 208.144531 108.730469 208.160156 108.121094 208.492188 107.546875 C 208.691406 107.203125 208.9375 106.953125 209.226563 106.796875 C 209.519531 106.640625 209.867188 106.570313 210.273438 106.578125 Z M 210.554688 110.265625 C 211.191406 110.632813 211.753906 110.804688 212.242188 110.78125 C 212.730469 110.761719 213.09375 110.546875 213.335938 110.140625 C 213.574219 109.726563 213.585938 109.296875 213.367188 108.859375 C 213.148438 108.414063 212.71875 108.007813 212.085938 107.640625 C 211.460938 107.277344 210.90625 107.109375 210.414063 107.140625 C 209.925781 107.164063 209.5625 107.382813 209.320313 107.796875 C 209.082031 108.203125 209.070313 108.625 209.289063 109.0625 C 209.507813 109.5 209.929688 109.902344 210.554688 110.265625 Z M 210.554688 110.265625 "/>
<path style=" stroke:none;fill-rule:evenodd;fill:rgb(20%,20%,20%);fill-opacity:1;" d="M 167.683594 171.742188 L 168.199219 170.898438 L 174.777344 173.132813 L 169.777344 168.320313 L 170.339844 167.382813 L 176.933594 169.601563 L 171.917969 164.789063 L 172.433594 163.945313 L 178.339844 169.664063 L 177.699219 170.710938 L 170.949219 168.382813 L 176.105469 173.320313 L 175.464844 174.367188 Z M 174.792969 163.921875 L 175.261719 163.15625 L 180.402344 166.28125 L 179.933594 167.046875 Z M 172.792969 162.6875 L 173.261719 161.921875 L 174.339844 162.578125 L 173.871094 163.34375 Z M 174.222656 160.339844 L 174.691406 159.574219 L 181.832031 163.933594 L 181.363281 164.699219 Z M 182.421875 156.710938 L 182.84375 156.960938 L 180.71875 160.460938 C 181.3125 160.773438 181.84375 160.882813 182.3125 160.789063 C 182.789063 160.6875 183.179688 160.382813 183.484375 159.882813 C 183.671875 159.59375 183.804688 159.289063 183.890625 158.976563 C 183.972656 158.65625 184.03125 158.304688 184.0625 157.929688 L 184.84375 158.414063 C 184.800781 158.769531 184.726563 159.109375 184.625 159.429688 C 184.519531 159.753906 184.378906 160.0625 184.203125 160.351563 C 183.753906 161.09375 183.15625 161.535156 182.40625 161.679688 C 181.667969 161.828125 180.890625 161.648438 180.078125 161.148438 C 179.234375 160.640625 178.695313 160.03125 178.453125 159.320313 C 178.214844 158.613281 178.308594 157.910156 178.734375 157.210938 C 179.109375 156.585938 179.632813 156.234375 180.296875 156.148438 C 180.953125 156.054688 181.664063 156.242188 182.421875 156.710938 Z M 181.71875 157.320313 C 181.25 157.050781 180.8125 156.941406 180.40625 156.992188 C 179.992188 157.035156 179.667969 157.242188 179.4375 157.617188 C 179.179688 158.046875 179.105469 158.472656 179.21875 158.898438 C 179.324219 159.328125 179.605469 159.703125 180.0625 160.023438 Z M 187.625 155.523438 C 188.113281 156.109375 188.382813 156.5625 188.4375 156.882813 C 188.5 157.195313 188.425781 157.519531 188.21875 157.851563 L 187.84375 158.460938 L 187.140625 158.039063 L 187.421875 157.585938 C 187.546875 157.390625 187.585938 157.195313 187.546875 157.007813 C 187.503906 156.820313 187.328125 156.535156 187.015625 156.148438 L 186.703125 155.773438 L 180.5 154.570313 L 180.984375 153.773438 L 185.875 154.757813 L 182.75 150.867188 L 183.234375 150.070313 Z M 182.878906 147.378906 L 184.332031 148.269531 L 185.285156 146.707031 L 185.941406 147.097656 L 184.988281 148.660156 L 187.785156 150.363281 C 188.203125 150.613281 188.5 150.722656 188.675781 150.691406 C 188.863281 150.660156 189.054688 150.488281 189.253906 150.175781 L 189.722656 149.394531 L 190.425781 149.832031 L 189.957031 150.613281 C 189.601563 151.199219 189.230469 151.527344 188.847656 151.597656 C 188.472656 151.671875 187.96875 151.515625 187.332031 151.128906 L 184.535156 149.425781 L 184.191406 149.972656 L 183.535156 149.582031 L 183.878906 149.035156 L 182.425781 148.144531 Z M 187.582031 144.257813 C 187.332031 144.675781 187.3125 145.113281 187.519531 145.570313 C 187.730469 146.019531 188.140625 146.429688 188.753906 146.804688 C 189.371094 147.179688 189.925781 147.359375 190.425781 147.335938 C 190.914063 147.316406 191.285156 147.097656 191.535156 146.679688 C 191.785156 146.273438 191.804688 145.847656 191.597656 145.398438 C 191.398438 144.953125 190.992188 144.539063 190.378906 144.164063 C 189.765625 143.789063 189.207031 143.613281 188.707031 143.632813 C 188.207031 143.644531 187.832031 143.851563 187.582031 144.257813 Z M 186.878906 143.835938 C 187.285156 143.179688 187.84375 142.8125 188.550781 142.726563 C 189.25 142.644531 190.019531 142.859375 190.863281 143.367188 C 191.695313 143.878906 192.238281 144.46875 192.488281 145.132813 C 192.746094 145.800781 192.675781 146.460938 192.269531 147.117188 C 191.863281 147.785156 191.300781 148.160156 190.582031 148.242188 C 189.875 148.328125 189.105469 148.113281 188.269531 147.601563 C 187.425781 147.09375 186.886719 146.503906 186.644531 145.835938 C 186.394531 145.171875 186.472656 144.503906 186.878906 143.835938 Z M 188.777344 141.003906 L 189.246094 140.222656 L 193.824219 141.722656 L 190.402344 138.332031 L 190.949219 137.441406 L 195.511719 138.925781 L 192.089844 135.550781 L 192.558594 134.785156 L 196.964844 139.128906 L 196.417969 140.019531 L 191.589844 138.441406 L 195.199219 142.019531 L 194.652344 142.910156 Z M 197.648438 131.03125 L 200.742188 132.921875 L 200.273438 133.6875 L 197.210938 131.8125 C 196.722656 131.523438 196.304688 131.390625 195.960938 131.421875 C 195.617188 131.445313 195.34375 131.621094 195.132813 131.953125 C 194.882813 132.371094 194.832031 132.78125 194.976563 133.1875 C 195.125 133.59375 195.445313 133.953125 195.945313 134.265625 L 198.851563 136.03125 L 198.382813 136.796875 L 193.242188 133.671875 L 193.710938 132.90625 L 194.523438 133.390625 C 194.316406 133.027344 194.210938 132.679688 194.210938 132.34375 C 194.210938 132 194.3125 131.664063 194.507813 131.328125 C 194.832031 130.808594 195.257813 130.523438 195.789063 130.46875 C 196.320313 130.417969 196.941406 130.605469 197.648438 131.03125 Z M 201.8125 123.738281 C 201.992188 123.613281 202.242188 123.53125 202.5625 123.488281 C 202.875 123.4375 203.28125 123.4375 203.78125 123.488281 L 206.171875 123.753906 L 205.640625 124.644531 L 203.390625 124.394531 C 202.820313 124.34375 202.402344 124.371094 202.140625 124.472656 C 201.871094 124.578125 201.636719 124.796875 201.4375 125.128906 L 200.90625 126.050781 L 203.828125 127.753906 L 203.328125 128.597656 L 196.40625 124.550781 L 197.515625 122.660156 C 197.945313 121.941406 198.421875 121.503906 198.953125 121.347656 C 199.476563 121.191406 200.074219 121.3125 200.75 121.707031 C 201.179688 121.957031 201.484375 122.261719 201.671875 122.613281 C 201.859375 122.957031 201.90625 123.332031 201.8125 123.738281 Z M 197.671875 124.160156 L 200.125 125.597656 L 200.734375 124.550781 C 200.984375 124.136719 201.070313 123.765625 200.984375 123.441406 C 200.902344 123.109375 200.65625 122.824219 200.25 122.582031 C 199.84375 122.34375 199.480469 122.269531 199.15625 122.363281 C 198.824219 122.449219 198.53125 122.699219 198.28125 123.113281 Z M 203.246094 118.191406 C 203.007813 118.609375 202.996094 119.042969 203.214844 119.488281 C 203.433594 119.9375 203.851563 120.34375 204.464844 120.707031 C 205.089844 121.074219 205.652344 121.238281 206.152344 121.207031 C 206.640625 121.175781 207.003906 120.953125 207.246094 120.535156 C 207.484375 120.128906 207.496094 119.703125 207.277344 119.253906 C 207.066406 118.808594 206.652344 118.402344 206.027344 118.035156 C 205.414063 117.671875 204.855469 117.503906 204.355469 117.535156 C 203.855469 117.566406 203.488281 117.785156 203.246094 118.191406 Z M 202.527344 117.769531 C 202.914063 117.113281 203.460938 116.734375 204.167969 116.628906 C 204.867188 116.527344 205.644531 116.722656 206.496094 117.222656 C 207.339844 117.722656 207.890625 118.308594 208.152344 118.972656 C 208.421875 119.640625 208.363281 120.300781 207.980469 120.957031 C 207.582031 121.636719 207.03125 122.027344 206.324219 122.128906 C 205.617188 122.222656 204.839844 122.019531 203.996094 121.519531 C 203.144531 121.019531 202.585938 120.441406 202.324219 119.785156 C 202.066406 119.121094 202.132813 118.449219 202.527344 117.769531 Z M 208.4375 113.832031 C 208.085938 114.449219 207.921875 114.921875 207.953125 115.253906 C 207.976563 115.589844 208.171875 115.871094 208.546875 116.097656 C 208.839844 116.265625 209.125 116.3125 209.40625 116.238281 C 209.695313 116.15625 209.929688 115.964844 210.109375 115.660156 C 210.359375 115.234375 210.390625 114.796875 210.203125 114.347656 C 210.015625 113.890625 209.644531 113.5 209.09375 113.175781 L 208.890625 113.050781 Z M 209 112.082031 L 211.96875 113.816406 L 211.515625 114.582031 L 210.734375 114.128906 C 210.941406 114.496094 211.046875 114.855469 211.046875 115.207031 C 211.046875 115.550781 210.9375 115.910156 210.71875 116.285156 C 210.4375 116.765625 210.0625 117.0625 209.59375 117.175781 C 209.136719 117.28125 208.652344 117.1875 208.140625 116.894531 C 207.558594 116.550781 207.21875 116.121094 207.125 115.597656 C 207.03125 115.066406 207.195313 114.449219 207.609375 113.738281 L 208.234375 112.660156 L 208.15625 112.613281 C 207.761719 112.386719 207.390625 112.328125 207.046875 112.441406 C 206.695313 112.546875 206.390625 112.8125 206.140625 113.238281 C 205.996094 113.5 205.882813 113.78125 205.796875 114.082031 C 205.714844 114.375 205.679688 114.683594 205.6875 115.003906 L 204.90625 114.550781 C 204.949219 114.1875 205.015625 113.859375 205.109375 113.566406 C 205.203125 113.265625 205.324219 112.988281 205.46875 112.738281 C 205.867188 112.0625 206.355469 111.671875 206.9375 111.566406 C 207.523438 111.453125 208.210938 111.625 209 112.082031 Z M 210.273438 106.578125 L 207.460938 104.9375 L 207.914063 104.171875 L 215.132813 108.390625 L 214.679688 109.15625 L 213.898438 108.703125 C 214.117188 109.046875 214.226563 109.386719 214.226563 109.71875 C 214.234375 110.054688 214.140625 110.390625 213.945313 110.734375 C 213.609375 111.308594 213.09375 111.625 212.398438 111.6875 C 211.691406 111.75 210.925781 111.542969 210.101563 111.0625 C 209.289063 110.585938 208.738281 110.023438 208.445313 109.375 C 208.144531 108.730469 208.160156 108.121094 208.492188 107.546875 C 208.691406 107.203125 208.9375 106.953125 209.226563 106.796875 C 209.519531 106.640625 209.867188 106.570313 210.273438 106.578125 Z M 210.554688 110.265625 C 211.191406 110.632813 211.753906 110.804688 212.242188 110.78125 C 212.730469 110.761719 213.09375 110.546875 213.335938 110.140625 C 213.574219 109.726563 213.585938 109.296875 213.367188 108.859375 C 213.148438 108.414063 212.71875 108.007813 212.085938 107.640625 C 211.460938 107.277344 210.90625 107.109375 210.414063 107.140625 C 209.925781 107.164063 209.5625 107.382813 209.320313 107.796875 C 209.082031 108.203125 209.070313 108.625 209.289063 109.0625 C 209.507813 109.5 209.929688 109.902344 210.554688 110.265625 Z M 210.554688 110.265625 "/>
<path style="fill:none;stroke-width:3;stroke-linecap:round;stroke-linejoin:round;stroke:rgb(100%,100%,100%);stroke-opacity:1;stroke-miterlimit:10;" d="M 50.898438 107.117188 C 51.09375 107.210938 51.28125 107.398438 51.460938 107.679688 C 51.636719 107.953125 51.808594 108.320313 51.976563 108.789063 L 52.757813 111.054688 L 51.726563 110.960938 L 50.992188 108.835938 C 50.792969 108.285156 50.589844 107.910156 50.382813 107.710938 C 50.171875 107.515625 49.875 107.398438 49.492188 107.367188 L 48.445313 107.273438 L 48.148438 110.648438 L 47.164063 110.554688 L 47.867188 102.570313 L 50.054688 102.773438 C 50.886719 102.847656 51.484375 103.09375 51.851563 103.507813 C 52.226563 103.925781 52.375 104.519531 52.304688 105.289063 C 52.261719 105.789063 52.121094 106.195313 51.882813 106.507813 C 51.640625 106.820313 51.3125 107.023438 50.898438 107.117188 Z M 48.773438 103.554688 L 48.523438 106.382813 L 49.726563 106.492188 C 50.203125 106.535156 50.574219 106.445313 50.835938 106.226563 C 51.09375 106.007813 51.246094 105.664063 51.289063 105.195313 C 51.328125 104.738281 51.242188 104.378906 51.023438 104.117188 C 50.804688 103.859375 50.453125 103.707031 49.976563 103.664063 Z M 56.652344 106.542969 C 56.191406 106.429688 55.777344 106.542969 55.402344 106.886719 C 55.035156 107.222656 54.765625 107.738281 54.589844 108.433594 C 54.421875 109.132813 54.421875 109.714844 54.589844 110.183594 C 54.765625 110.644531 55.082031 110.929688 55.542969 111.042969 C 56.011719 111.15625 56.425781 111.046875 56.792969 110.714844 C 57.15625 110.382813 57.421875 109.867188 57.589844 109.167969 C 57.765625 108.472656 57.769531 107.886719 57.605469 107.417969 C 57.4375 106.949219 57.121094 106.660156 56.652344 106.542969 Z M 56.855469 105.746094 C 57.605469 105.925781 58.125 106.335938 58.417969 106.980469 C 58.71875 107.628906 58.75 108.433594 58.511719 109.402344 C 58.28125 110.351563 57.878906 111.042969 57.308594 111.480469 C 56.746094 111.917969 56.089844 112.046875 55.339844 111.871094 C 54.589844 111.683594 54.066406 111.261719 53.777344 110.605469 C 53.484375 109.949219 53.453125 109.148438 53.683594 108.199219 C 53.921875 107.230469 54.324219 106.535156 54.886719 106.105469 C 55.449219 105.679688 56.105469 105.558594 56.855469 105.746094 Z M 59.660156 110.332031 L 60.597656 106.816406 L 61.457031 107.050781 L 60.519531 110.535156 C 60.371094 111.078125 60.355469 111.515625 60.472656 111.847656 C 60.597656 112.183594 60.851563 112.402344 61.238281 112.503906 C 61.707031 112.628906 62.117188 112.566406 62.472656 112.316406 C 62.824219 112.058594 63.074219 111.640625 63.222656 111.066406 L 64.113281 107.769531 L 64.972656 108.003906 L 63.410156 113.816406 L 62.550781 113.582031 L 62.785156 112.691406 C 62.480469 112.980469 62.167969 113.175781 61.847656 113.269531 C 61.535156 113.371094 61.191406 113.378906 60.816406 113.285156 C 60.222656 113.117188 59.824219 112.785156 59.628906 112.285156 C 59.429688 111.785156 59.441406 111.136719 59.660156 110.332031 Z M 62.800781 107.269531 Z M 70.308594 112.390625 L 69.058594 115.796875 L 68.214844 115.5 L 69.449219 112.125 C 69.644531 111.585938 69.699219 111.148438 69.605469 110.8125 C 69.511719 110.480469 69.277344 110.246094 68.902344 110.109375 C 68.453125 109.953125 68.042969 109.984375 67.667969 110.203125 C 67.292969 110.421875 67.003906 110.804688 66.808594 111.34375 L 65.636719 114.546875 L 64.792969 114.25 L 66.855469 108.59375 L 67.699219 108.890625 L 67.386719 109.78125 C 67.707031 109.511719 68.03125 109.34375 68.355469 109.28125 C 68.675781 109.210938 69.019531 109.242188 69.386719 109.375 C 69.96875 109.585938 70.339844 109.945313 70.496094 110.453125 C 70.652344 110.964844 70.589844 111.609375 70.308594 112.390625 Z M 75.722656 113.410156 L 77.222656 110.519531 L 78.019531 110.925781 L 74.191406 118.363281 L 73.394531 117.957031 L 73.816406 117.144531 C 73.480469 117.382813 73.144531 117.511719 72.800781 117.535156 C 72.464844 117.554688 72.121094 117.476563 71.769531 117.300781 C 71.183594 116.996094 70.839844 116.496094 70.738281 115.800781 C 70.644531 115.09375 70.816406 114.316406 71.253906 113.472656 C 71.679688 112.628906 72.207031 112.046875 72.832031 111.722656 C 73.464844 111.402344 74.074219 111.390625 74.660156 111.691406 C 75.011719 111.871094 75.277344 112.097656 75.457031 112.378906 C 75.632813 112.660156 75.722656 113.003906 75.722656 113.410156 Z M 72.082031 113.894531 C 71.746094 114.542969 71.601563 115.109375 71.644531 115.597656 C 71.695313 116.085938 71.929688 116.441406 72.347656 116.660156 C 72.773438 116.878906 73.199219 116.863281 73.628906 116.613281 C 74.054688 116.371094 74.433594 115.929688 74.769531 115.285156 C 75.101563 114.640625 75.242188 114.074219 75.191406 113.582031 C 75.136719 113.09375 74.898438 112.738281 74.472656 112.519531 C 74.054688 112.300781 73.632813 112.316406 73.207031 112.566406 C 72.789063 112.808594 72.414063 113.25 72.082031 113.894531 Z M 82.75 115.300781 L 81.125 117.847656 L 82.15625 118.503906 C 82.539063 118.753906 82.90625 118.839844 83.25 118.753906 C 83.601563 118.660156 83.910156 118.410156 84.171875 118.003906 C 84.429688 117.597656 84.523438 117.21875 84.453125 116.863281 C 84.390625 116.511719 84.164063 116.207031 83.78125 115.957031 Z M 82.40625 114.019531 L 84.265625 115.207031 C 84.953125 115.65625 85.359375 116.160156 85.484375 116.722656 C 85.609375 117.285156 85.457031 117.894531 85.03125 118.550781 C 84.601563 119.21875 84.109375 119.613281 83.546875 119.738281 C 82.984375 119.863281 82.359375 119.703125 81.671875 119.253906 L 80.640625 118.597656 L 78.90625 121.300781 L 78.078125 120.769531 Z M 87.714844 120.628906 C 87.316406 120.371094 86.890625 120.339844 86.433594 120.535156 C 85.972656 120.734375 85.550781 121.136719 85.167969 121.738281 C 84.769531 122.34375 84.578125 122.894531 84.589844 123.394531 C 84.609375 123.894531 84.816406 124.273438 85.214844 124.535156 C 85.621094 124.785156 86.046875 124.808594 86.496094 124.613281 C 86.953125 124.414063 87.378906 124.011719 87.777344 123.410156 C 88.160156 122.808594 88.347656 122.253906 88.339844 121.753906 C 88.328125 121.253906 88.121094 120.878906 87.714844 120.628906 Z M 88.152344 119.925781 C 88.808594 120.34375 89.171875 120.90625 89.246094 121.613281 C 89.316406 122.3125 89.089844 123.078125 88.558594 123.910156 C 88.027344 124.730469 87.421875 125.261719 86.746094 125.503906 C 86.078125 125.742188 85.417969 125.652344 84.761719 125.238281 C 84.105469 124.808594 83.738281 124.242188 83.667969 123.535156 C 83.605469 122.828125 83.839844 122.0625 84.371094 121.238281 C 84.902344 120.40625 85.5 119.875 86.167969 119.644531 C 86.832031 119.40625 87.496094 119.5 88.152344 119.925781 Z M 93.914063 126.621094 L 91.960938 129.667969 L 91.210938 129.183594 L 93.148438 126.152344 C 93.460938 125.675781 93.605469 125.261719 93.585938 124.917969 C 93.5625 124.574219 93.386719 124.292969 93.054688 124.074219 C 92.648438 123.824219 92.234375 123.769531 91.820313 123.902344 C 91.414063 124.027344 91.054688 124.335938 90.742188 124.824219 L 88.898438 127.699219 L 88.132813 127.214844 L 91.382813 122.152344 L 92.148438 122.636719 L 91.632813 123.417969 C 92.007813 123.230469 92.359375 123.136719 92.695313 123.136719 C 93.027344 123.136719 93.355469 123.242188 93.679688 123.449219 C 94.199219 123.785156 94.480469 124.222656 94.523438 124.761719 C 94.5625 125.292969 94.359375 125.914063 93.914063 126.621094 Z M 99.21875 128.246094 L 100.96875 125.496094 L 101.71875 125.980469 L 97.21875 133.027344 L 96.46875 132.542969 L 96.953125 131.777344 C 96.585938 131.996094 96.238281 132.09375 95.90625 132.074219 C 95.582031 132.0625 95.253906 131.949219 94.921875 131.730469 C 94.367188 131.375 94.070313 130.84375 94.03125 130.136719 C 93.988281 129.441406 94.226563 128.691406 94.75 127.886719 C 95.257813 127.097656 95.84375 126.566406 96.5 126.292969 C 97.15625 126.023438 97.757813 126.066406 98.3125 126.417969 C 98.644531 126.636719 98.882813 126.898438 99.03125 127.199219 C 99.1875 127.503906 99.25 127.851563 99.21875 128.246094 Z M 95.53125 128.386719 C 95.132813 129.003906 94.9375 129.554688 94.9375 130.042969 C 94.9375 130.53125 95.132813 130.902344 95.53125 131.152344 C 95.9375 131.410156 96.363281 131.4375 96.8125 131.230469 C 97.269531 131.03125 97.695313 130.625 98.09375 130.011719 C 98.476563 129.398438 98.664063 128.847656 98.65625 128.355469 C 98.65625 127.867188 98.453125 127.492188 98.046875 127.230469 C 97.648438 126.980469 97.226563 126.960938 96.78125 127.167969 C 96.332031 127.367188 95.914063 127.773438 95.53125 128.386719 Z M 106.34375 134.402344 C 106.46875 134.582031 106.539063 134.832031 106.5625 135.152344 C 106.59375 135.472656 106.570313 135.886719 106.5 136.386719 L 106.15625 138.761719 L 105.28125 138.183594 L 105.609375 135.964844 C 105.703125 135.378906 105.703125 134.957031 105.609375 134.683594 C 105.515625 134.414063 105.304688 134.175781 104.984375 133.964844 L 104.078125 133.386719 L 102.25 136.246094 L 101.421875 135.714844 L 105.75 128.964844 L 107.609375 130.152344 C 108.304688 130.613281 108.71875 131.105469 108.84375 131.636719 C 108.976563 132.167969 108.835938 132.769531 108.421875 133.433594 C 108.148438 133.851563 107.832031 134.148438 107.46875 134.324219 C 107.113281 134.492188 106.738281 134.519531 106.34375 134.402344 Z M 106.09375 130.246094 L 104.5625 132.636719 L 105.59375 133.292969 C 106 133.554688 106.363281 133.652344 106.6875 133.589844 C 107.019531 133.519531 107.3125 133.285156 107.5625 132.886719 C 107.8125 132.492188 107.898438 132.128906 107.828125 131.792969 C 107.765625 131.460938 107.53125 131.164063 107.125 130.902344 Z M 111.820313 136.0625 C 111.421875 135.804688 110.996094 135.773438 110.539063 135.96875 C 110.078125 136.167969 109.65625 136.570313 109.273438 137.171875 C 108.875 137.777344 108.683594 138.328125 108.695313 138.828125 C 108.714844 139.328125 108.921875 139.707031 109.320313 139.96875 C 109.726563 140.21875 110.152344 140.242188 110.601563 140.046875 C 111.058594 139.847656 111.484375 139.445313 111.882813 138.84375 C 112.265625 138.242188 112.453125 137.6875 112.445313 137.1875 C 112.433594 136.6875 112.226563 136.3125 111.820313 136.0625 Z M 112.257813 135.359375 C 112.914063 135.777344 113.277344 136.339844 113.351563 137.046875 C 113.421875 137.746094 113.195313 138.511719 112.664063 139.34375 C 112.132813 140.164063 111.527344 140.695313 110.851563 140.9375 C 110.183594 141.175781 109.523438 141.085938 108.867188 140.671875 C 108.210938 140.242188 107.84375 139.675781 107.773438 138.96875 C 107.710938 138.261719 107.945313 137.496094 108.476563 136.671875 C 109.007813 135.839844 109.605469 135.308594 110.273438 135.078125 C 110.9375 134.839844 111.601563 134.933594 112.257813 135.359375 Z M 115.988281 141.449219 C 115.382813 141.066406 114.910156 140.878906 114.566406 140.886719 C 114.230469 140.886719 113.949219 141.070313 113.722656 141.433594 C 113.535156 141.726563 113.472656 142.019531 113.535156 142.308594 C 113.597656 142.597656 113.773438 142.839844 114.066406 143.027344 C 114.492188 143.296875 114.933594 143.347656 115.394531 143.183594 C 115.863281 143.015625 116.269531 142.660156 116.613281 142.121094 L 116.738281 141.933594 Z M 117.707031 142.058594 L 115.847656 144.949219 L 115.097656 144.480469 L 115.582031 143.714844 C 115.207031 143.910156 114.847656 144 114.503906 143.980469 C 114.160156 143.957031 113.804688 143.828125 113.441406 143.589844 C 112.972656 143.285156 112.691406 142.902344 112.597656 142.433594 C 112.503906 141.976563 112.613281 141.503906 112.925781 141.011719 C 113.289063 140.441406 113.738281 140.121094 114.269531 140.058594 C 114.800781 139.988281 115.402344 140.167969 116.082031 140.605469 L 117.144531 141.277344 L 117.191406 141.199219 C 117.441406 140.816406 117.519531 140.445313 117.425781 140.089844 C 117.332031 139.738281 117.074219 139.425781 116.660156 139.152344 C 116.410156 138.996094 116.132813 138.871094 115.832031 138.777344 C 115.539063 138.683594 115.238281 138.636719 114.925781 138.636719 L 115.410156 137.871094 C 115.761719 137.925781 116.085938 138.007813 116.378906 138.121094 C 116.667969 138.226563 116.933594 138.355469 117.175781 138.511719 C 117.839844 138.929688 118.214844 139.433594 118.300781 140.027344 C 118.394531 140.613281 118.195313 141.289063 117.707031 142.058594 Z M 123.019531 143.890625 L 124.972656 141.296875 L 125.691406 141.828125 L 120.660156 148.5 L 119.941406 147.96875 L 120.488281 147.25 C 120.121094 147.425781 119.773438 147.492188 119.441406 147.453125 C 119.105469 147.421875 118.777344 147.285156 118.457031 147.046875 C 117.933594 146.660156 117.683594 146.109375 117.707031 145.390625 C 117.726563 144.683594 118.019531 143.953125 118.582031 143.203125 C 119.152344 142.445313 119.777344 141.960938 120.457031 141.75 C 121.132813 141.53125 121.730469 141.617188 122.253906 142 C 122.574219 142.242188 122.800781 142.515625 122.925781 142.828125 C 123.050781 143.140625 123.082031 143.496094 123.019531 143.890625 Z M 119.316406 143.765625 C 118.878906 144.351563 118.644531 144.882813 118.613281 145.359375 C 118.582031 145.847656 118.753906 146.234375 119.128906 146.515625 C 119.511719 146.804688 119.933594 146.867188 120.394531 146.703125 C 120.851563 146.535156 121.300781 146.160156 121.738281 145.578125 C 122.183594 144.996094 122.425781 144.460938 122.457031 143.96875 C 122.488281 143.480469 122.308594 143.089844 121.925781 142.796875 C 121.550781 142.515625 121.132813 142.464844 120.675781 142.640625 C 120.214844 142.808594 119.761719 143.183594 119.316406 143.765625 Z M 119.316406 143.765625 "/>
<path style=" stroke:none;fill-rule:evenodd;fill:rgb(20%,20%,20%);fill-opacity:1;" d="M 50.898438 107.117188 C 51.09375 107.210938 51.28125 107.398438 51.460938 107.679688 C 51.636719 107.953125 51.808594 108.320313 51.976563 108.789063 L 52.757813 111.054688 L 51.726563 110.960938 L 50.992188 108.835938 C 50.792969 108.285156 50.589844 107.910156 50.382813 107.710938 C 50.171875 107.515625 49.875 107.398438 49.492188 107.367188 L 48.445313 107.273438 L 48.148438 110.648438 L 47.164063 110.554688 L 47.867188 102.570313 L 50.054688 102.773438 C 50.886719 102.847656 51.484375 103.09375 51.851563 103.507813 C 52.226563 103.925781 52.375 104.519531 52.304688 105.289063 C 52.261719 105.789063 52.121094 106.195313 51.882813 106.507813 C 51.640625 106.820313 51.3125 107.023438 50.898438 107.117188 Z M 48.773438 103.554688 L 48.523438 106.382813 L 49.726563 106.492188 C 50.203125 106.535156 50.574219 106.445313 50.835938 106.226563 C 51.09375 106.007813 51.246094 105.664063 51.289063 105.195313 C 51.328125 104.738281 51.242188 104.378906 51.023438 104.117188 C 50.804688 103.859375 50.453125 103.707031 49.976563 103.664063 Z M 56.652344 106.542969 C 56.191406 106.429688 55.777344 106.542969 55.402344 106.886719 C 55.035156 107.222656 54.765625 107.738281 54.589844 108.433594 C 54.421875 109.132813 54.421875 109.714844 54.589844 110.183594 C 54.765625 110.644531 55.082031 110.929688 55.542969 111.042969 C 56.011719 111.15625 56.425781 111.046875 56.792969 110.714844 C 57.15625 110.382813 57.421875 109.867188 57.589844 109.167969 C 57.765625 108.472656 57.769531 107.886719 57.605469 107.417969 C 57.4375 106.949219 57.121094 106.660156 56.652344 106.542969 Z M 56.855469 105.746094 C 57.605469 105.925781 58.125 106.335938 58.417969 106.980469 C 58.71875 107.628906 58.75 108.433594 58.511719 109.402344 C 58.28125 110.351563 57.878906 111.042969 57.308594 111.480469 C 56.746094 111.917969 56.089844 112.046875 55.339844 111.871094 C 54.589844 111.683594 54.066406 111.261719 53.777344 110.605469 C 53.484375 109.949219 53.453125 109.148438 53.683594 108.199219 C 53.921875 107.230469 54.324219 106.535156 54.886719 106.105469 C 55.449219 105.679688 56.105469 105.558594 56.855469 105.746094 Z M 59.660156 110.332031 L 60.597656 106.816406 L 61.457031 107.050781 L 60.519531 110.535156 C 60.371094 111.078125 60.355469 111.515625 60.472656 111.847656 C 60.597656 112.183594 60.851563 112.402344 61.238281 112.503906 C 61.707031 112.628906 62.117188 112.566406 62.472656 112.316406 C 62.824219 112.058594 63.074219 111.640625 63.222656 111.066406 L 64.113281 107.769531 L 64.972656 108.003906 L 63.410156 113.816406 L 62.550781 113.582031 L 62.785156 112.691406 C 62.480469 112.980469 62.167969 113.175781 61.847656 113.269531 C 61.535156 113.371094 61.191406 113.378906 60.816406 113.285156 C 60.222656 113.117188 59.824219 112.785156 59.628906 112.285156 C 59.429688 111.785156 59.441406 111.136719 59.660156 110.332031 Z M 62.800781 107.269531 Z M 70.308594 112.390625 L 69.058594 115.796875 L 68.214844 115.5 L 69.449219 112.125 C 69.644531 111.585938 69.699219 111.148438 69.605469 110.8125 C 69.511719 110.480469 69.277344 110.246094 68.902344 110.109375 C 68.453125 109.953125 68.042969 109.984375 67.667969 110.203125 C 67.292969 110.421875 67.003906 110.804688 66.808594 111.34375 L 65.636719 114.546875 L 64.792969 114.25 L 66.855469 108.59375 L 67.699219 108.890625 L 67.386719 109.78125 C 67.707031 109.511719 68.03125 109.34375 68.355469 109.28125 C 68.675781 109.210938 69.019531 109.242188 69.386719 109.375 C 69.96875 109.585938 70.339844 109.945313 70.496094 110.453125 C 70.652344 110.964844 70.589844 111.609375 70.308594 112.390625 Z M 75.722656 113.410156 L 77.222656 110.519531 L 78.019531 110.925781 L 74.191406 118.363281 L 73.394531 117.957031 L 73.816406 117.144531 C 73.480469 117.382813 73.144531 117.511719 72.800781 117.535156 C 72.464844 117.554688 72.121094 117.476563 71.769531 117.300781 C 71.183594 116.996094 70.839844 116.496094 70.738281 115.800781 C 70.644531 115.09375 70.816406 114.316406 71.253906 113.472656 C 71.679688 112.628906 72.207031 112.046875 72.832031 111.722656 C 73.464844 111.402344 74.074219 111.390625 74.660156 111.691406 C 75.011719 111.871094 75.277344 112.097656 75.457031 112.378906 C 75.632813 112.660156 75.722656 113.003906 75.722656 113.410156 Z M 72.082031 113.894531 C 71.746094 114.542969 71.601563 115.109375 71.644531 115.597656 C 71.695313 116.085938 71.929688 116.441406 72.347656 116.660156 C 72.773438 116.878906 73.199219 116.863281 73.628906 116.613281 C 74.054688 116.371094 74.433594 115.929688 74.769531 115.285156 C 75.101563 114.640625 75.242188 114.074219 75.191406 113.582031 C 75.136719 113.09375 74.898438 112.738281 74.472656 112.519531 C 74.054688 112.300781 73.632813 112.316406 73.207031 112.566406 C 72.789063 112.808594 72.414063 113.25 72.082031 113.894531 Z M 82.75 115.300781 L 81.125 117.847656 L 82.15625 118.503906 C 82.539063 118.753906 82.90625 118.839844 83.25 118.753906 C 83.601563 118.660156 83.910156 118.410156 84.171875 118.003906 C 84.429688 117.597656 84.523438 117.21875 84.453125 116.863281 C 84.390625 116.511719 84.164063 116.207031 83.78125 115.957031 Z M 82.40625 114.019531 L 84.265625 115.207031 C 84.953125 115.65625 85.359375 116.160156 85.484375 116.722656 C 85.609375 117.285156 85.457031 117.894531 85.03125 118.550781 C 84.601563 119.21875 84.109375 119.613281 83.546875 119.738281 C 82.984375 119.863281 82.359375 119.703125 81.671875 119.253906 L 80.640625 118.597656 L 78.90625 121.300781 L 78.078125 120.769531 Z M 87.714844 120.628906 C 87.316406 120.371094 86.890625 120.339844 86.433594 120.535156 C 85.972656 120.734375 85.550781 121.136719 85.167969 121.738281 C 84.769531 122.34375 84.578125 122.894531 84.589844 123.394531 C 84.609375 123.894531 84.816406 124.273438 85.214844 124.535156 C 85.621094 124.785156 86.046875 124.808594 86.496094 124.613281 C 86.953125 124.414063 87.378906 124.011719 87.777344 123.410156 C 88.160156 122.808594 88.347656 122.253906 88.339844 121.753906 C 88.328125 121.253906 88.121094 120.878906 87.714844 120.628906 Z M 88.152344 119.925781 C 88.808594 120.34375 89.171875 120.90625 89.246094 121.613281 C 89.316406 122.3125 89.089844 123.078125 88.558594 123.910156 C 88.027344 124.730469 87.421875 125.261719 86.746094 125.503906 C 86.078125 125.742188 85.417969 125.652344 84.761719 125.238281 C 84.105469 124.808594 83.738281 124.242188 83.667969 123.535156 C 83.605469 122.828125 83.839844 122.0625 84.371094 121.238281 C 84.902344 120.40625 85.5 119.875 86.167969 119.644531 C 86.832031 119.40625 87.496094 119.5 88.152344 119.925781 Z M 93.914063 126.621094 L 91.960938 129.667969 L 91.210938 129.183594 L 93.148438 126.152344 C 93.460938 125.675781 93.605469 125.261719 93.585938 124.917969 C 93.5625 124.574219 93.386719 124.292969 93.054688 124.074219 C 92.648438 123.824219 92.234375 123.769531 91.820313 123.902344 C 91.414063 124.027344 91.054688 124.335938 90.742188 124.824219 L 88.898438 127.699219 L 88.132813 127.214844 L 91.382813 122.152344 L 92.148438 122.636719 L 91.632813 123.417969 C 92.007813 123.230469 92.359375 123.136719 92.695313 123.136719 C 93.027344 123.136719 93.355469 123.242188 93.679688 123.449219 C 94.199219 123.785156 94.480469 124.222656 94.523438 124.761719 C 94.5625 125.292969 94.359375 125.914063 93.914063 126.621094 Z M 99.21875 128.246094 L 100.96875 125.496094 L 101.71875 125.980469 L 97.21875 133.027344 L 96.46875 132.542969 L 96.953125 131.777344 C 96.585938 131.996094 96.238281 132.09375 95.90625 132.074219 C 95.582031 132.0625 95.253906 131.949219 94.921875 131.730469 C 94.367188 131.375 94.070313 130.84375 94.03125 130.136719 C 93.988281 129.441406 94.226563 128.691406 94.75 127.886719 C 95.257813 127.097656 95.84375 126.566406 96.5 126.292969 C 97.15625 126.023438 97.757813 126.066406 98.3125 126.417969 C 98.644531 126.636719 98.882813 126.898438 99.03125 127.199219 C 99.1875 127.503906 99.25 127.851563 99.21875 128.246094 Z M 95.53125 128.386719 C 95.132813 129.003906 94.9375 129.554688 94.9375 130.042969 C 94.9375 130.53125 95.132813 130.902344 95.53125 131.152344 C 95.9375 131.410156 96.363281 131.4375 96.8125 131.230469 C 97.269531 131.03125 97.695313 130.625 98.09375 130.011719 C 98.476563 129.398438 98.664063 128.847656 98.65625 128.355469 C 98.65625 127.867188 98.453125 127.492188 98.046875 127.230469 C 97.648438 126.980469 97.226563 126.960938 96.78125 127.167969 C 96.332031 127.367188 95.914063 127.773438 95.53125 128.386719 Z M 106.34375 134.402344 C 106.46875 134.582031 106.539063 134.832031 106.5625 135.152344 C 106.59375 135.472656 106.570313 135.886719 106.5 136.386719 L 106.15625 138.761719 L 105.28125 138.183594 L 105.609375 135.964844 C 105.703125 135.378906 105.703125 134.957031 105.609375 134.683594 C 105.515625 134.414063 105.304688 134.175781 104.984375 133.964844 L 104.078125 133.386719 L 102.25 136.246094 L 101.421875 135.714844 L 105.75 128.964844 L 107.609375 130.152344 C 108.304688 130.613281 108.71875 131.105469 108.84375 131.636719 C 108.976563 132.167969 108.835938 132.769531 108.421875 133.433594 C 108.148438 133.851563 107.832031 134.148438 107.46875 134.324219 C 107.113281 134.492188 106.738281 134.519531 106.34375 134.402344 Z M 106.09375 130.246094 L 104.5625 132.636719 L 105.59375 133.292969 C 106 133.554688 106.363281 133.652344 106.6875 133.589844 C 107.019531 133.519531 107.3125 133.285156 107.5625 132.886719 C 107.8125 132.492188 107.898438 132.128906 107.828125 131.792969 C 107.765625 131.460938 107.53125 131.164063 107.125 130.902344 Z M 111.820313 136.0625 C 111.421875 135.804688 110.996094 135.773438 110.539063 135.96875 C 110.078125 136.167969 109.65625 136.570313 109.273438 137.171875 C 108.875 137.777344 108.683594 138.328125 108.695313 138.828125 C 108.714844 139.328125 108.921875 139.707031 109.320313 139.96875 C 109.726563 140.21875 110.152344 140.242188 110.601563 140.046875 C 111.058594 139.847656 111.484375 139.445313 111.882813 138.84375 C 112.265625 138.242188 112.453125 137.6875 112.445313 137.1875 C 112.433594 136.6875 112.226563 136.3125 111.820313 136.0625 Z M 112.257813 135.359375 C 112.914063 135.777344 113.277344 136.339844 113.351563 137.046875 C 113.421875 137.746094 113.195313 138.511719 112.664063 139.34375 C 112.132813 140.164063 111.527344 140.695313 110.851563 140.9375 C 110.183594 141.175781 109.523438 141.085938 108.867188 140.671875 C 108.210938 140.242188 107.84375 139.675781 107.773438 138.96875 C 107.710938 138.261719 107.945313 137.496094 108.476563 136.671875 C 109.007813 135.839844 109.605469 135.308594 110.273438 135.078125 C 110.9375 134.839844 111.601563 134.933594 112.257813 135.359375 Z M 115.988281 141.449219 C 115.382813 141.066406 114.910156 140.878906 114.566406 140.886719 C 114.230469 140.886719 113.949219 141.070313 113.722656 141.433594 C 113.535156 141.726563 113.472656 142.019531 113.535156 142.308594 C 113.597656 142.597656 113.773438 142.839844 114.066406 143.027344 C 114.492188 143.296875 114.933594 143.347656 115.394531 143.183594 C 115.863281 143.015625 116.269531 142.660156 116.613281 142.121094 L 116.738281 141.933594 Z M 117.707031 142.058594 L 115.847656 144.949219 L 115.097656 144.480469 L 115.582031 143.714844 C 115.207031 143.910156 114.847656 144 114.503906 143.980469 C 114.160156 143.957031 113.804688 143.828125 113.441406 143.589844 C 112.972656 143.285156 112.691406 142.902344 112.597656 142.433594 C 112.503906 141.976563 112.613281 141.503906 112.925781 141.011719 C 113.289063 140.441406 113.738281 140.121094 114.269531 140.058594 C 114.800781 139.988281 115.402344 140.167969 116.082031 140.605469 L 117.144531 141.277344 L 117.191406 141.199219 C 117.441406 140.816406 117.519531 140.445313 117.425781 140.089844 C 117.332031 139.738281 117.074219 139.425781 116.660156 139.152344 C 116.410156 138.996094 116.132813 138.871094 115.832031 138.777344 C 115.539063 138.683594 115.238281 138.636719 114.925781 138.636719 L 115.410156 137.871094 C 115.761719 137.925781 116.085938 138.007813 116.378906 138.121094 C 116.667969 138.226563 116.933594 138.355469 117.175781 138.511719 C 117.839844 138.929688 118.214844 139.433594 118.300781 140.027344 C 118.394531 140.613281 118.195313 141.289063 117.707031 142.058594 Z M 123.019531 143.890625 L 124.972656 141.296875 L 125.691406 141.828125 L 120.660156 148.5 L 119.941406 147.96875 L 120.488281 147.25 C 120.121094 147.425781 119.773438 147.492188 119.441406 147.453125 C 119.105469 147.421875 118.777344 147.285156 118.457031 147.046875 C 117.933594 146.660156 117.683594 146.109375 117.707031 145.390625 C 117.726563 144.683594 118.019531 143.953125 118.582031 143.203125 C 119.152344 142.445313 119.777344 141.960938 120.457031 141.75 C 121.132813 141.53125 121.730469 141.617188 122.253906 142 C 122.574219 142.242188 122.800781 142.515625 122.925781 142.828125 C 123.050781 143.140625 123.082031 143.496094 123.019531 143.890625 Z M 119.316406 143.765625 C 118.878906 144.351563 118.644531 144.882813 118.613281 145.359375 C 118.582031 145.847656 118.753906 146.234375 119.128906 146.515625 C 119.511719 146.804688 119.933594 146.867188 120.394531 146.703125 C 120.851563 146.535156 121.300781 146.160156 121.738281 145.578125 C 122.183594 144.996094 122.425781 144.460938 122.457031 143.96875 C 122.488281 143.480469 122.308594 143.089844 121.925781 142.796875 C 121.550781 142.515625 121.132813 142.464844 120.675781 142.640625 C 120.214844 142.808594 119.761719 143.183594 119.316406 143.765625 Z M 119.316406 143.765625 "/>
</g>
</svg>

