<?xml version="1.0" encoding="UTF-8"?>
<svg xmlns="http://www.w3.org/2000/svg" xmlns:xlink="http://www.w3.org/1999/xlink" width="256pt" height="256pt" viewBox="0 0 256 256" version="1.1">
<g id="surface2">
<rect x="0" y="0" width="256" height="256" style="fill:rgb(94.901961%,93.72549%,91.372549%);fill-opacity:1;stroke:none;"/>
<path style=" stroke:none;fill-rule:evenodd;fill:rgb(60%,70.196078%,80%);fill-opacity:1;" d="M 259 259 L 259 250.496094 L 257.660156 250.425781 L 258.375 251.351563 L 259 252.46875 L 258.1875 254.1875 L 257.207031 253.882813 L 256.664063 254.777344 L 255.675781 255.390625 L 256.765625 254.804688 L 257.621094 254.148438 L 258.296875 255.582031 L 256.742188 256.128906 L 255.792969 257.265625 L 256.242188 258.164063 L 254.957031 256.878906 L 255.402344 257.859375 L 255.25 259 Z M -8294640.558594 5633408.984375 Z M -8294640.558594 5633408.984375 Z M 258.355469 250.972656 L 258.5625 251.082031 L 258.316406 251.101563 Z M 258.488281 254.4375 L 258.648438 254.679688 L 258.324219 254.460938 Z M 258.554688 254.066406 L 258.765625 253.753906 L 258.546875 254.238281 Z M -8294640.558594 5633408.984375 Z M 258.839844 250.789063 L 259 250.964844 L 258.761719 250.867188 Z M 258.972656 250.667969 L 259 250.699219 L 258.875 250.757813 Z M 259 254.300781 L 259 254.632813 L 258.910156 254.355469 Z M 259 254.300781 "/>
<path style="fill:none;stroke-width:1;stroke-linecap:round;stroke-linejoin:round;stroke:rgb(70.196078%,77.647059%,83.137255%);stroke-opacity:1;stroke-miterlimit:10;" d="M 259 259 L 259 250.496094 L 257.660156 250.425781 L 258.375 251.351563 L 259 252.46875 L 258.1875 254.1875 L 257.207031 253.882813 L 256.664063 254.777344 L 255.675781 255.390625 L 256.765625 254.804688 L 257.621094 254.148438 L 258.296875 255.582031 L 256.742188 256.128906 L 255.792969 257.265625 L 256.242188 258.164063 L 254.957031 256.878906 L 255.402344 257.859375 L 255.25 259 L 259 259 M 258.355469 250.972656 L 258.5625 251.082031 L 258.316406 251.101563 L 258.355469 250.972656 M 258.488281 254.4375 L 258.648438 254.679688 L 258.324219 254.460938 L 258.488281 254.4375 M 258.554688 254.066406 L 258.765625 253.753906 L 258.546875 254.238281 L 258.554688 254.066406 M 258.839844 250.789063 L 259 250.964844 L 258.761719 250.867188 L 258.839844 250.789063 M 258.972656 250.667969 L 259 250.699219 L 258.875 250.757813 L 258.972656 250.667969 M 259 254.300781 L 259 254.632813 L 258.910156 254.355469 L 259 254.300781 "/>
<path style=" stroke:none;fill-rule:evenodd;fill:rgb(60%,70.196078%,80%);fill-opacity:1;" d="M 259 259 L 259 250.496094 L 257.660156 250.425781 L 258.375 251.351563 L 259 252.46875 L 258.1875 254.1875 L 257.207031 253.882813 L 256.664063 254.777344 L 255.675781 255.390625 L 256.765625 254.804688 L 257.621094 254.148438 L 258.296875 255.582031 L 256.742188 256.128906 L 255.792969 257.265625 L 256.242188 258.164063 L 254.957031 256.878906 L 255.402344 257.859375 L 255.25 259 Z M -8294640.558594 5633408.984375 Z M -8294640.558594 5633408.984375 Z M 258.355469 250.972656 L 258.5625 251.082031 L 258.316406 251.101563 Z M 258.488281 254.4375 L 258.648438 254.679688 L 258.324219 254.460938 Z M 258.554688 254.066406 L 258.765625 253.753906 L 258.546875 254.238281 Z M -8294640.558594 5633408.984375 Z M 258.839844 250.789063 L 259 250.964844 L 258.761719 250.867188 Z M 258.972656 250.667969 L 259 250.699219 L 258.875 250.757813 Z M 259 254.300781 L 259 254.632813 L 258.910156 254.355469 Z M 259 254.300781 "/>
<path style="fill:none;stroke-width:1;stroke-linecap:round;stroke-linejoin:round;stroke:rgb(70.196078%,77.647059%,83.137255%);stroke-opacity:1;stroke-miterlimit:10;" d="M 259 259 L 259 250.496094 L 257.660156 250.425781 L 258.375 251.351563 L 259 252.46875 L 258.1875 254.1875 L 257.207031 253.882813 L 256.664063 254.777344 L 255.675781 255.390625 L 256.765625 254.804688 L 257.621094 254.148438 L 258.296875 255.582031 L 256.742188 256.128906 L 255.792969 257.265625 L 256.242188 258.164063 L 254.957031 256.878906 L 255.402344 257.859375 L 255.25 259 L 259 259 M 258.355469 250.972656 L 258.5625 251.082031 L 258.316406 251.101563 L 258.355469 250.972656 M 258.488281 254.4375 L 258.648438 254.679688 L 258.324219 254.460938 L 258.488281 254.4375 M 258.554688 254.066406 L 258.765625 253.753906 L 258.546875 254.238281 L 258.554688 254.066406 M 258.839844 250.789063 L 259 250.964844 L 258.761719 250.867188 L 258.839844 250.789063 M 258.972656 250.667969 L 259 250.699219 L 258.875 250.757813 L 258.972656 250.667969 M 259 254.300781 L 259 254.632813 L 258.910156 254.355469 L 259 254.300781 "/>
<path style="fill:none;stroke-width:1;stroke-linecap:round;stroke-linejoin:round;stroke:rgb(60%,70.196078%,80%);stroke-opacity:1;stroke-miterlimit:10;" d="M 254.878906 257 L 255.039063 257 M 256.074219 257 L 256.742188 256.128906 L 257 255.945313 M 257 254.617188 L 256 255.285156 L 257 254.511719 "/>
</g>
</svg>

