<?xml version="1.0" encoding="UTF-8"?>
<svg xmlns="http://www.w3.org/2000/svg" xmlns:xlink="http://www.w3.org/1999/xlink" width="256pt" height="256pt" viewBox="0 0 256 256" version="1.1">
<g id="surface2">
<rect x="0" y="0" width="256" height="256" style="fill:rgb(60%,70.196078%,80%);fill-opacity:1;stroke:none;"/>
<path style="fill:none;stroke-width:1;stroke-linecap:round;stroke-linejoin:round;stroke:rgb(70.196078%,77.647059%,83.137255%);stroke-opacity:1;stroke-miterlimit:10;" d="M -4 -4 L -4 259 L 259 259 L 259 -4 L -4 -4 "/>
<path style="fill:none;stroke-width:6;stroke-linecap:round;stroke-linejoin:round;stroke:rgb(60%,70.196078%,80%);stroke-opacity:1;stroke-miterlimit:10;" d="M 230.898438 -7 L 195.976563 156.941406 L 212.433594 262 "/>
<path style="fill:none;stroke-width:3;stroke-linecap:round;stroke-linejoin:round;stroke:rgb(100%,100%,100%);stroke-opacity:1;stroke-miterlimit:10;" d="M 192.683594 164.867188 L 192.527344 163.742188 L 196.386719 163.195313 L 195.777344 159.023438 L 191.917969 159.570313 L 191.746094 158.429688 L 201.136719 157.070313 L 201.308594 158.210938 L 196.839844 158.867188 L 197.449219 163.039063 L 201.917969 162.382813 L 202.074219 163.507813 Z M 198.375 156.160156 L 194.171875 155.253906 L 194.390625 154.238281 L 198.5625 155.128906 C 199.21875 155.265625 199.742188 155.253906 200.125 155.097656 C 200.5 154.941406 200.734375 154.636719 200.828125 154.175781 C 200.941406 153.613281 200.84375 153.128906 200.53125 152.722656 C 200.210938 152.316406 199.703125 152.042969 199.015625 151.894531 L 195.078125 151.050781 L 195.296875 150.019531 L 202.25 151.503906 L 202.03125 152.535156 L 200.96875 152.300781 C 201.34375 152.644531 201.59375 153.003906 201.71875 153.378906 C 201.851563 153.746094 201.875 154.152344 201.78125 154.597656 C 201.632813 155.308594 201.269531 155.796875 200.6875 156.066406 C 200.105469 156.328125 199.335938 156.359375 198.375 156.160156 Z M 194.5625 152.644531 Z M 197.671875 144.011719 L 193.921875 143.199219 L 194.140625 142.183594 L 203.796875 144.246094 L 203.578125 145.261719 L 202.53125 145.042969 C 202.894531 145.347656 203.144531 145.683594 203.28125 146.058594 C 203.414063 146.433594 203.4375 146.851563 203.34375 147.308594 C 203.175781 148.070313 202.707031 148.617188 201.9375 148.949219 C 201.167969 149.285156 200.234375 149.335938 199.140625 149.105469 C 198.046875 148.867188 197.214844 148.441406 196.640625 147.824219 C 196.070313 147.210938 195.867188 146.523438 196.03125 145.761719 C 196.125 145.304688 196.308594 144.929688 196.578125 144.636719 C 196.839844 144.347656 197.203125 144.136719 197.671875 144.011719 Z M 199.359375 148.027344 C 200.195313 148.207031 200.886719 148.191406 201.4375 147.980469 C 201.980469 147.773438 202.308594 147.398438 202.421875 146.855469 C 202.535156 146.304688 202.390625 145.824219 201.984375 145.417969 C 201.570313 145.003906 200.945313 144.707031 200.109375 144.527344 C 199.265625 144.339844 198.574219 144.355469 198.03125 144.574219 C 197.492188 144.785156 197.164063 145.164063 197.046875 145.714844 C 196.933594 146.257813 197.078125 146.730469 197.484375 147.136719 C 197.890625 147.542969 198.515625 147.839844 199.359375 148.027344 Z M 198.34375 136.691406 L 199.421875 136.925781 C 199.195313 137.1875 199.007813 137.464844 198.859375 137.753906 C 198.714844 138.046875 198.609375 138.363281 198.546875 138.707031 C 198.433594 139.207031 198.433594 139.609375 198.546875 139.910156 C 198.664063 140.203125 198.890625 140.386719 199.234375 140.457031 C 199.507813 140.519531 199.734375 140.472656 199.921875 140.316406 C 200.109375 140.160156 200.335938 139.824219 200.59375 139.300781 L 200.765625 138.988281 C 201.089844 138.28125 201.445313 137.8125 201.828125 137.582031 C 202.214844 137.34375 202.6875 137.285156 203.25 137.410156 C 203.898438 137.546875 204.359375 137.886719 204.640625 138.425781 C 204.921875 138.957031 204.972656 139.625 204.796875 140.425781 C 204.734375 140.75 204.625 141.09375 204.46875 141.457031 C 204.320313 141.8125 204.128906 142.167969 203.890625 142.519531 L 202.71875 142.269531 C 203.023438 141.949219 203.265625 141.613281 203.453125 141.269531 C 203.632813 140.917969 203.761719 140.558594 203.84375 140.191406 C 203.949219 139.714844 203.9375 139.328125 203.8125 139.035156 C 203.679688 138.734375 203.445313 138.546875 203.109375 138.472656 C 202.796875 138.410156 202.539063 138.457031 202.328125 138.613281 C 202.121094 138.761719 201.875 139.136719 201.59375 139.738281 L 201.421875 140.082031 C 201.140625 140.675781 200.820313 141.089844 200.453125 141.316406 C 200.078125 141.535156 199.621094 141.589844 199.078125 141.472656 C 198.433594 141.339844 197.976563 141.019531 197.703125 140.519531 C 197.433594 140.019531 197.382813 139.386719 197.546875 138.613281 C 197.632813 138.238281 197.742188 137.890625 197.875 137.566406 C 198 137.246094 198.15625 136.953125 198.34375 136.691406 Z M 199.878906 132.433594 C 199.753906 132.988281 199.902344 133.476563 200.316406 133.902344 C 200.722656 134.320313 201.34375 134.617188 202.175781 134.792969 C 203.011719 134.972656 203.699219 134.949219 204.238281 134.730469 C 204.78125 134.511719 205.113281 134.128906 205.238281 133.574219 C 205.351563 133.023438 205.207031 132.539063 204.800781 132.121094 C 204.386719 131.707031 203.765625 131.410156 202.941406 131.230469 C 202.121094 131.054688 201.433594 131.074219 200.878906 131.292969 C 200.328125 131.503906 199.996094 131.882813 199.878906 132.433594 Z M 198.910156 132.230469 C 199.097656 131.335938 199.574219 130.699219 200.332031 130.324219 C 201.082031 129.949219 202.03125 129.886719 203.175781 130.136719 C 204.324219 130.378906 205.160156 130.820313 205.691406 131.464844 C 206.230469 132.113281 206.410156 132.882813 206.222656 133.777344 C 206.023438 134.675781 205.550781 135.308594 204.800781 135.683594 C 204.050781 136.058594 203.105469 136.128906 201.957031 135.886719 C 200.8125 135.636719 199.96875 135.191406 199.425781 134.542969 C 198.886719 133.898438 198.714844 133.128906 198.910156 132.230469 Z M 203.914063 123.074219 L 208.117188 123.964844 L 207.898438 124.996094 L 203.742188 124.105469 C 203.078125 123.972656 202.554688 123.988281 202.179688 124.152344 C 201.804688 124.308594 201.570313 124.617188 201.476563 125.074219 C 201.351563 125.617188 201.453125 126.097656 201.773438 126.511719 C 202.097656 126.917969 202.601563 127.191406 203.289063 127.324219 L 207.210938 128.167969 L 206.992188 129.199219 L 200.039063 127.714844 L 200.257813 126.683594 L 201.335938 126.917969 C 200.972656 126.585938 200.722656 126.230469 200.585938 125.855469 C 200.453125 125.480469 200.429688 125.074219 200.523438 124.636719 C 200.671875 123.917969 201.035156 123.429688 201.617188 123.167969 C 202.191406 122.898438 202.957031 122.867188 203.914063 123.074219 Z M 205.832031 113.351563 C 205.980469 113.132813 206.230469 112.941406 206.582031 112.773438 C 206.925781 112.609375 207.378906 112.457031 207.941406 112.320313 L 210.722656 111.726563 L 210.457031 112.945313 L 207.847656 113.523438 C 207.171875 113.648438 206.707031 113.820313 206.457031 114.039063 C 206.207031 114.257813 206.03125 114.59375 205.925781 115.039063 L 205.675781 116.273438 L 209.582031 117.101563 L 209.332031 118.226563 L 200.050781 116.257813 L 200.597656 113.710938 C 200.808594 112.753906 201.183594 112.085938 201.722656 111.710938 C 202.265625 111.335938 202.984375 111.242188 203.878906 111.429688 C 204.464844 111.554688 204.925781 111.785156 205.269531 112.117188 C 205.605469 112.441406 205.792969 112.851563 205.832031 113.351563 Z M 201.347656 115.351563 L 204.628906 116.054688 L 204.925781 114.632813 C 205.042969 114.082031 204.988281 113.640625 204.769531 113.304688 C 204.542969 112.972656 204.15625 112.75 203.613281 112.632813 C 203.082031 112.519531 202.652344 112.570313 202.316406 112.789063 C 201.984375 113 201.761719 113.378906 201.644531 113.929688 Z M 204.070313 108.839844 L 204.289063 107.808594 L 211.242188 109.292969 L 211.023438 110.324219 Z M 201.367188 108.261719 L 201.585938 107.230469 L 203.039063 107.542969 L 202.820313 108.574219 Z M 204.589844 106.398438 L 204.808594 105.320313 L 211.074219 104.617188 L 205.652344 101.414063 L 205.886719 100.304688 L 212.339844 104.148438 L 212.042969 105.539063 Z M 210.515625 94.21875 L 211.078125 94.328125 L 210.0625 99.0625 C 210.867188 99.199219 211.511719 99.117188 212 98.8125 C 212.492188 98.511719 212.808594 98.023438 212.953125 97.34375 C 213.035156 96.949219 213.0625 96.558594 213.03125 96.171875 C 213.007813 95.777344 212.925781 95.371094 212.78125 94.953125 L 213.875 95.1875 C 213.96875 95.59375 214.019531 96 214.03125 96.40625 C 214.039063 96.804688 214.003906 97.203125 213.921875 97.609375 C 213.703125 98.601563 213.210938 99.324219 212.453125 99.78125 C 211.683594 100.230469 210.746094 100.339844 209.640625 100.109375 C 208.496094 99.859375 207.648438 99.386719 207.09375 98.6875 C 206.542969 97.992188 206.367188 97.171875 206.5625 96.234375 C 206.75 95.390625 207.199219 94.792969 207.90625 94.4375 C 208.617188 94.074219 209.484375 94 210.515625 94.21875 Z M 209.96875 95.1875 C 209.34375 95.054688 208.8125 95.101563 208.375 95.328125 C 207.929688 95.546875 207.652344 95.914063 207.546875 96.421875 C 207.421875 97.007813 207.507813 97.511719 207.796875 97.9375 C 208.078125 98.355469 208.542969 98.65625 209.1875 98.84375 Z M 209.519531 88.457031 C 209.4375 88.550781 209.363281 88.667969 209.300781 88.800781 C 209.230469 88.925781 209.175781 89.074219 209.144531 89.238281 C 209.019531 89.8125 209.136719 90.300781 209.488281 90.707031 C 209.832031 91.105469 210.394531 91.386719 211.175781 91.550781 L 214.847656 92.332031 L 214.628906 93.363281 L 207.675781 91.878906 L 207.894531 90.847656 L 208.972656 91.082031 C 208.597656 90.769531 208.347656 90.421875 208.222656 90.035156 C 208.089844 89.652344 208.074219 89.214844 208.175781 88.722656 C 208.1875 88.652344 208.207031 88.574219 208.238281 88.488281 C 208.269531 88.40625 208.308594 88.3125 208.347656 88.207031 Z M 209.519531 88.457031 "/>
<path style=" stroke:none;fill-rule:evenodd;fill:rgb(41.960784%,58.039216%,69.019608%);fill-opacity:1;" d="M 192.683594 164.867188 L 192.527344 163.742188 L 196.386719 163.195313 L 195.777344 159.023438 L 191.917969 159.570313 L 191.746094 158.429688 L 201.136719 157.070313 L 201.308594 158.210938 L 196.839844 158.867188 L 197.449219 163.039063 L 201.917969 162.382813 L 202.074219 163.507813 Z M 198.375 156.160156 L 194.171875 155.253906 L 194.390625 154.238281 L 198.5625 155.128906 C 199.21875 155.265625 199.742188 155.253906 200.125 155.097656 C 200.5 154.941406 200.734375 154.636719 200.828125 154.175781 C 200.941406 153.613281 200.84375 153.128906 200.53125 152.722656 C 200.210938 152.316406 199.703125 152.042969 199.015625 151.894531 L 195.078125 151.050781 L 195.296875 150.019531 L 202.25 151.503906 L 202.03125 152.535156 L 200.96875 152.300781 C 201.34375 152.644531 201.59375 153.003906 201.71875 153.378906 C 201.851563 153.746094 201.875 154.152344 201.78125 154.597656 C 201.632813 155.308594 201.269531 155.796875 200.6875 156.066406 C 200.105469 156.328125 199.335938 156.359375 198.375 156.160156 Z M 194.5625 152.644531 Z M 197.671875 144.011719 L 193.921875 143.199219 L 194.140625 142.183594 L 203.796875 144.246094 L 203.578125 145.261719 L 202.53125 145.042969 C 202.894531 145.347656 203.144531 145.683594 203.28125 146.058594 C 203.414063 146.433594 203.4375 146.851563 203.34375 147.308594 C 203.175781 148.070313 202.707031 148.617188 201.9375 148.949219 C 201.167969 149.285156 200.234375 149.335938 199.140625 149.105469 C 198.046875 148.867188 197.214844 148.441406 196.640625 147.824219 C 196.070313 147.210938 195.867188 146.523438 196.03125 145.761719 C 196.125 145.304688 196.308594 144.929688 196.578125 144.636719 C 196.839844 144.347656 197.203125 144.136719 197.671875 144.011719 Z M 199.359375 148.027344 C 200.195313 148.207031 200.886719 148.191406 201.4375 147.980469 C 201.980469 147.773438 202.308594 147.398438 202.421875 146.855469 C 202.535156 146.304688 202.390625 145.824219 201.984375 145.417969 C 201.570313 145.003906 200.945313 144.707031 200.109375 144.527344 C 199.265625 144.339844 198.574219 144.355469 198.03125 144.574219 C 197.492188 144.785156 197.164063 145.164063 197.046875 145.714844 C 196.933594 146.257813 197.078125 146.730469 197.484375 147.136719 C 197.890625 147.542969 198.515625 147.839844 199.359375 148.027344 Z M 198.34375 136.691406 L 199.421875 136.925781 C 199.195313 137.1875 199.007813 137.464844 198.859375 137.753906 C 198.714844 138.046875 198.609375 138.363281 198.546875 138.707031 C 198.433594 139.207031 198.433594 139.609375 198.546875 139.910156 C 198.664063 140.203125 198.890625 140.386719 199.234375 140.457031 C 199.507813 140.519531 199.734375 140.472656 199.921875 140.316406 C 200.109375 140.160156 200.335938 139.824219 200.59375 139.300781 L 200.765625 138.988281 C 201.089844 138.28125 201.445313 137.8125 201.828125 137.582031 C 202.214844 137.34375 202.6875 137.285156 203.25 137.410156 C 203.898438 137.546875 204.359375 137.886719 204.640625 138.425781 C 204.921875 138.957031 204.972656 139.625 204.796875 140.425781 C 204.734375 140.75 204.625 141.09375 204.46875 141.457031 C 204.320313 141.8125 204.128906 142.167969 203.890625 142.519531 L 202.71875 142.269531 C 203.023438 141.949219 203.265625 141.613281 203.453125 141.269531 C 203.632813 140.917969 203.761719 140.558594 203.84375 140.191406 C 203.949219 139.714844 203.9375 139.328125 203.8125 139.035156 C 203.679688 138.734375 203.445313 138.546875 203.109375 138.472656 C 202.796875 138.410156 202.539063 138.457031 202.328125 138.613281 C 202.121094 138.761719 201.875 139.136719 201.59375 139.738281 L 201.421875 140.082031 C 201.140625 140.675781 200.820313 141.089844 200.453125 141.316406 C 200.078125 141.535156 199.621094 141.589844 199.078125 141.472656 C 198.433594 141.339844 197.976563 141.019531 197.703125 140.519531 C 197.433594 140.019531 197.382813 139.386719 197.546875 138.613281 C 197.632813 138.238281 197.742188 137.890625 197.875 137.566406 C 198 137.246094 198.15625 136.953125 198.34375 136.691406 Z M 199.878906 132.433594 C 199.753906 132.988281 199.902344 133.476563 200.316406 133.902344 C 200.722656 134.320313 201.34375 134.617188 202.175781 134.792969 C 203.011719 134.972656 203.699219 134.949219 204.238281 134.730469 C 204.78125 134.511719 205.113281 134.128906 205.238281 133.574219 C 205.351563 133.023438 205.207031 132.539063 204.800781 132.121094 C 204.386719 131.707031 203.765625 131.410156 202.941406 131.230469 C 202.121094 131.054688 201.433594 131.074219 200.878906 131.292969 C 200.328125 131.503906 199.996094 131.882813 199.878906 132.433594 Z M 198.910156 132.230469 C 199.097656 131.335938 199.574219 130.699219 200.332031 130.324219 C 201.082031 129.949219 202.03125 129.886719 203.175781 130.136719 C 204.324219 130.378906 205.160156 130.820313 205.691406 131.464844 C 206.230469 132.113281 206.410156 132.882813 206.222656 133.777344 C 206.023438 134.675781 205.550781 135.308594 204.800781 135.683594 C 204.050781 136.058594 203.105469 136.128906 201.957031 135.886719 C 200.8125 135.636719 199.96875 135.191406 199.425781 134.542969 C 198.886719 133.898438 198.714844 133.128906 198.910156 132.230469 Z M 203.914063 123.074219 L 208.117188 123.964844 L 207.898438 124.996094 L 203.742188 124.105469 C 203.078125 123.972656 202.554688 123.988281 202.179688 124.152344 C 201.804688 124.308594 201.570313 124.617188 201.476563 125.074219 C 201.351563 125.617188 201.453125 126.097656 201.773438 126.511719 C 202.097656 126.917969 202.601563 127.191406 203.289063 127.324219 L 207.210938 128.167969 L 206.992188 129.199219 L 200.039063 127.714844 L 200.257813 126.683594 L 201.335938 126.917969 C 200.972656 126.585938 200.722656 126.230469 200.585938 125.855469 C 200.453125 125.480469 200.429688 125.074219 200.523438 124.636719 C 200.671875 123.917969 201.035156 123.429688 201.617188 123.167969 C 202.191406 122.898438 202.957031 122.867188 203.914063 123.074219 Z M 205.832031 113.351563 C 205.980469 113.132813 206.230469 112.941406 206.582031 112.773438 C 206.925781 112.609375 207.378906 112.457031 207.941406 112.320313 L 210.722656 111.726563 L 210.457031 112.945313 L 207.847656 113.523438 C 207.171875 113.648438 206.707031 113.820313 206.457031 114.039063 C 206.207031 114.257813 206.03125 114.59375 205.925781 115.039063 L 205.675781 116.273438 L 209.582031 117.101563 L 209.332031 118.226563 L 200.050781 116.257813 L 200.597656 113.710938 C 200.808594 112.753906 201.183594 112.085938 201.722656 111.710938 C 202.265625 111.335938 202.984375 111.242188 203.878906 111.429688 C 204.464844 111.554688 204.925781 111.785156 205.269531 112.117188 C 205.605469 112.441406 205.792969 112.851563 205.832031 113.351563 Z M 201.347656 115.351563 L 204.628906 116.054688 L 204.925781 114.632813 C 205.042969 114.082031 204.988281 113.640625 204.769531 113.304688 C 204.542969 112.972656 204.15625 112.75 203.613281 112.632813 C 203.082031 112.519531 202.652344 112.570313 202.316406 112.789063 C 201.984375 113 201.761719 113.378906 201.644531 113.929688 Z M 204.070313 108.839844 L 204.289063 107.808594 L 211.242188 109.292969 L 211.023438 110.324219 Z M 201.367188 108.261719 L 201.585938 107.230469 L 203.039063 107.542969 L 202.820313 108.574219 Z M 204.589844 106.398438 L 204.808594 105.320313 L 211.074219 104.617188 L 205.652344 101.414063 L 205.886719 100.304688 L 212.339844 104.148438 L 212.042969 105.539063 Z M 210.515625 94.21875 L 211.078125 94.328125 L 210.0625 99.0625 C 210.867188 99.199219 211.511719 99.117188 212 98.8125 C 212.492188 98.511719 212.808594 98.023438 212.953125 97.34375 C 213.035156 96.949219 213.0625 96.558594 213.03125 96.171875 C 213.007813 95.777344 212.925781 95.371094 212.78125 94.953125 L 213.875 95.1875 C 213.96875 95.59375 214.019531 96 214.03125 96.40625 C 214.039063 96.804688 214.003906 97.203125 213.921875 97.609375 C 213.703125 98.601563 213.210938 99.324219 212.453125 99.78125 C 211.683594 100.230469 210.746094 100.339844 209.640625 100.109375 C 208.496094 99.859375 207.648438 99.386719 207.09375 98.6875 C 206.542969 97.992188 206.367188 97.171875 206.5625 96.234375 C 206.75 95.390625 207.199219 94.792969 207.90625 94.4375 C 208.617188 94.074219 209.484375 94 210.515625 94.21875 Z M 209.96875 95.1875 C 209.34375 95.054688 208.8125 95.101563 208.375 95.328125 C 207.929688 95.546875 207.652344 95.914063 207.546875 96.421875 C 207.421875 97.007813 207.507813 97.511719 207.796875 97.9375 C 208.078125 98.355469 208.542969 98.65625 209.1875 98.84375 Z M 209.519531 88.457031 C 209.4375 88.550781 209.363281 88.667969 209.300781 88.800781 C 209.230469 88.925781 209.175781 89.074219 209.144531 89.238281 C 209.019531 89.8125 209.136719 90.300781 209.488281 90.707031 C 209.832031 91.105469 210.394531 91.386719 211.175781 91.550781 L 214.847656 92.332031 L 214.628906 93.363281 L 207.675781 91.878906 L 207.894531 90.847656 L 208.972656 91.082031 C 208.597656 90.769531 208.347656 90.421875 208.222656 90.035156 C 208.089844 89.652344 208.074219 89.214844 208.175781 88.722656 C 208.1875 88.652344 208.207031 88.574219 208.238281 88.488281 C 208.269531 88.40625 208.308594 88.3125 208.347656 88.207031 Z M 209.519531 88.457031 "/>
</g>
</svg>

