<?xml version="1.0" encoding="UTF-8"?>
<svg xmlns="http://www.w3.org/2000/svg" xmlns:xlink="http://www.w3.org/1999/xlink" width="256pt" height="256pt" viewBox="0 0 256 256" version="1.1">
<g id="surface2">
<rect x="0" y="0" width="256" height="256" style="fill:rgb(94.901961%,93.72549%,91.372549%);fill-opacity:1;stroke:none;"/>
<path style="fill:none;stroke-width:2;stroke-linecap:round;stroke-linejoin:round;stroke:rgb(60%,70.196078%,80%);stroke-opacity:1;stroke-miterlimit:10;" d="M 124.070313 72.574219 L 138.671875 86.25 L 152.238281 97.882813 L 163.648438 106.796875 L 172.207031 114.5625 L 185.773438 121.820313 L 201.363281 132.039063 L 216.757813 144.980469 L 227.027344 158.25 L 240.847656 174.117188 L 250.257813 197.613281 L 258 204.398438 "/>
<path style="fill:none;stroke-width:1;stroke-linecap:round;stroke-linejoin:round;stroke:rgb(100%,100%,100%);stroke-opacity:1;stroke-dasharray:2,3;stroke-miterlimit:10;" d="M 257 204.28125 L 253.394531 201.234375 L 251.941406 196.855469 L 250.550781 194.472656 L 247.300781 190.296875 L 245.445313 185.390625 L 243.65625 181.480469 L 241.46875 177.769531 L 240.40625 175.054688 L 236.695313 172.535156 L 232.058594 168.359375 L 228.945313 163.390625 L 222.449219 156.164063 L 218.339844 153.515625 L 215.355469 150.464844 L 212.574219 147.285156 L 210.386719 143.640625 L 208.332031 140.125 L 204.820313 136.550781 L 200.777344 133.171875 L 197.664063 131.511719 L 192.160156 127.46875 L 190.636719 126.078125 L 185.800781 124.222656 L 184.277344 122.5 L 180.300781 120.113281 L 178.179688 118.921875 L 175.925781 114.21875 L 170.554688 111.832031 L 165.519531 109.242188 L 162.671875 107.785156 L 160.484375 103.878906 L 155.582031 101.492188 L 151.335938 98.910156 L 148.554688 95.726563 L 145.839844 90.6875 L 141.859375 88.304688 L 136.824219 83.730469 L 130.992188 78.695313 L 128.078125 75.710938 L 123.503906 69.945313 L 119.460938 68.222656 L 112.105469 62.921875 L 109.125 61.394531 L 104.417969 56.160156 L 97.195313 46.484375 L 93.085938 42.644531 L 88.046875 37.9375 L 83.078125 34.027344 L 75.390625 30.847656 L 71.480469 29.851563 L 65.117188 26.40625 L 62.136719 25.609375 L 56.238281 20.703125 L 51.199219 18.453125 L 47.492188 16 L 42.320313 12.6875 L 39.800781 8.378906 L 37.351563 6.324219 L 32.84375 4.933594 L 29.992188 2.679688 L 28.335938 1.355469 L 26.28125 -1.5625 L 24.941406 -2 "/>
<path style="fill:none;stroke-width:3;stroke-linecap:round;stroke-linejoin:round;stroke:rgb(100%,100%,100%);stroke-opacity:1;stroke-miterlimit:10;" d="M 172.992188 109.726563 L 173.820313 110.273438 L 171.992188 113.007813 L 174.929688 114.976563 L 176.757813 112.242188 L 177.570313 112.789063 L 173.101563 119.445313 L 172.289063 118.898438 L 174.414063 115.726563 L 171.476563 113.757813 L 169.351563 116.929688 L 168.523438 116.382813 Z M 180.632813 119.925781 L 180.414063 120.347656 L 176.804688 118.410156 C 176.511719 119.027344 176.429688 119.566406 176.554688 120.035156 C 176.6875 120.503906 177.011719 120.878906 177.523438 121.160156 C 177.824219 121.316406 178.136719 121.425781 178.460938 121.488281 C 178.78125 121.558594 179.125 121.597656 179.492188 121.597656 L 179.054688 122.410156 C 178.699219 122.398438 178.355469 122.347656 178.023438 122.253906 C 177.699219 122.167969 177.386719 122.042969 177.085938 121.878906 C 176.3125 121.472656 175.839844 120.902344 175.664063 120.175781 C 175.484375 119.449219 175.621094 118.660156 176.070313 117.816406 C 176.539063 116.953125 177.117188 116.378906 177.804688 116.097656 C 178.5 115.816406 179.210938 115.871094 179.929688 116.253906 C 180.5625 116.597656 180.945313 117.097656 181.070313 117.753906 C 181.203125 118.410156 181.058594 119.136719 180.632813 119.925781 Z M 179.992188 119.238281 C 180.242188 118.761719 180.324219 118.316406 180.242188 117.910156 C 180.167969 117.496094 179.9375 117.183594 179.554688 116.972656 C 179.105469 116.746094 178.671875 116.699219 178.257813 116.832031 C 177.851563 116.957031 177.496094 117.261719 177.195313 117.738281 Z M 185.570313 120.472656 C 185.507813 120.359375 185.429688 120.265625 185.335938 120.191406 C 185.242188 120.109375 185.136719 120.03125 185.023438 119.957031 C 184.5625 119.71875 184.132813 119.699219 183.726563 119.894531 C 183.320313 120.09375 182.960938 120.488281 182.648438 121.082031 L 181.148438 123.878906 L 180.351563 123.457031 L 183.195313 118.160156 L 183.992188 118.582031 L 183.539063 119.394531 C 183.882813 119.175781 184.226563 119.0625 184.570313 119.050781 C 184.921875 119.03125 185.289063 119.121094 185.664063 119.316406 C 185.714844 119.347656 185.773438 119.386719 185.835938 119.425781 C 185.898438 119.457031 185.960938 119.503906 186.023438 119.566406 Z M 188.558594 124.859375 C 188.953125 124.246094 189.152344 123.695313 189.152344 123.203125 C 189.152344 122.714844 188.953125 122.34375 188.558594 122.09375 C 188.152344 121.835938 187.722656 121.808594 187.277344 122.015625 C 186.828125 122.214844 186.40625 122.621094 186.011719 123.234375 C 185.625 123.851563 185.433594 124.402344 185.433594 124.890625 C 185.433594 125.378906 185.636719 125.753906 186.042969 126.015625 C 186.4375 126.265625 186.859375 126.285156 187.308594 126.078125 C 187.753906 125.878906 188.171875 125.472656 188.558594 124.859375 Z M 187.152344 121.453125 C 187.496094 121.265625 187.832031 121.179688 188.167969 121.1875 C 188.5 121.1875 188.832031 121.296875 189.167969 121.515625 C 189.730469 121.871094 190.019531 122.402344 190.042969 123.109375 C 190.074219 123.820313 189.832031 124.570313 189.324219 125.359375 C 188.8125 126.160156 188.234375 126.691406 187.589844 126.953125 C 186.941406 127.222656 186.339844 127.179688 185.777344 126.828125 C 185.441406 126.609375 185.199219 126.351563 185.042969 126.0625 C 184.894531 125.769531 184.84375 125.414063 184.886719 125 L 184.402344 125.765625 L 183.636719 125.28125 L 188.136719 118.234375 L 188.902344 118.71875 Z M 194.574219 128.480469 L 194.308594 128.886719 L 190.886719 126.652344 C 190.542969 127.238281 190.410156 127.769531 190.496094 128.246094 C 190.578125 128.722656 190.863281 129.121094 191.355469 129.433594 C 191.644531 129.628906 191.949219 129.777344 192.261719 129.871094 C 192.582031 129.964844 192.925781 130.027344 193.292969 130.058594 L 192.792969 130.824219 C 192.4375 130.78125 192.097656 130.699219 191.777344 130.574219 C 191.453125 130.457031 191.152344 130.308594 190.871094 130.121094 C 190.140625 129.640625 189.714844 129.03125 189.589844 128.292969 C 189.472656 127.554688 189.683594 126.785156 190.214844 125.980469 C 190.746094 125.160156 191.371094 124.636719 192.089844 124.417969 C 192.808594 124.199219 193.503906 124.308594 194.183594 124.746094 C 194.796875 125.152344 195.136719 125.691406 195.199219 126.355469 C 195.269531 127.023438 195.0625 127.730469 194.574219 128.480469 Z M 193.980469 127.746094 C 194.269531 127.289063 194.394531 126.855469 194.355469 126.449219 C 194.3125 126.035156 194.109375 125.707031 193.746094 125.464844 C 193.328125 125.195313 192.90625 125.105469 192.480469 125.199219 C 192.0625 125.292969 191.675781 125.566406 191.324219 126.011719 Z M 199.4375 129.460938 C 199.382813 129.359375 199.316406 129.257813 199.234375 129.164063 C 199.148438 129.070313 199.050781 128.988281 198.9375 128.914063 C 198.507813 128.632813 198.082031 128.578125 197.65625 128.742188 C 197.238281 128.898438 196.84375 129.257813 196.46875 129.820313 L 194.734375 132.476563 L 193.984375 131.976563 L 197.28125 126.945313 L 198.03125 127.445313 L 197.515625 128.226563 C 197.867188 128.03125 198.21875 127.9375 198.5625 127.945313 C 198.914063 127.957031 199.269531 128.082031 199.625 128.320313 C 199.675781 128.351563 199.734375 128.394531 199.796875 128.445313 C 199.859375 128.488281 199.914063 128.546875 199.96875 128.617188 Z M 202.421875 128.347656 L 201.453125 129.753906 L 202.96875 130.800781 L 202.53125 131.425781 L 201.015625 130.378906 L 199.15625 133.066406 C 198.882813 133.464844 198.753906 133.746094 198.765625 133.925781 C 198.785156 134.113281 198.953125 134.316406 199.265625 134.535156 L 200.015625 135.050781 L 199.546875 135.738281 L 198.796875 135.222656 C 198.234375 134.824219 197.921875 134.433594 197.859375 134.050781 C 197.804688 133.675781 197.992188 133.183594 198.421875 132.566406 L 200.28125 129.878906 L 199.75 129.503906 L 200.1875 128.878906 L 200.71875 129.253906 L 201.6875 127.847656 Z M 205.804688 135.972656 L 203.914063 138.222656 L 205.101563 139.238281 C 205.507813 139.570313 205.882813 139.726563 206.226563 139.707031 C 206.570313 139.683594 206.902344 139.480469 207.226563 139.097656 C 207.546875 138.722656 207.6875 138.355469 207.648438 138.003906 C 207.617188 137.660156 207.398438 137.324219 206.992188 136.988281 Z M 207.914063 133.457031 L 206.367188 135.316406 L 207.460938 136.253906 C 207.824219 136.558594 208.164063 136.707031 208.476563 136.707031 C 208.789063 136.699219 209.074219 136.535156 209.335938 136.222656 C 209.59375 135.910156 209.695313 135.605469 209.632813 135.300781 C 209.578125 135 209.371094 134.699219 209.007813 134.394531 Z M 207.726563 132.144531 L 209.648438 133.753906 C 210.210938 134.234375 210.539063 134.738281 210.632813 135.269531 C 210.726563 135.792969 210.5625 136.296875 210.148438 136.785156 C 209.835938 137.160156 209.507813 137.390625 209.164063 137.472656 C 208.820313 137.558594 208.46875 137.5 208.117188 137.300781 C 208.40625 137.683594 208.539063 138.101563 208.507813 138.550781 C 208.484375 139.007813 208.304688 139.445313 207.960938 139.863281 C 207.492188 140.414063 206.960938 140.695313 206.367188 140.707031 C 205.78125 140.726563 205.183594 140.476563 204.570313 139.957031 L 202.570313 138.285156 Z M 213.445313 140.753906 C 213.402344 140.652344 213.34375 140.546875 213.273438 140.441406 C 213.199219 140.339844 213.109375 140.238281 213.007813 140.144531 C 212.609375 139.824219 212.195313 139.71875 211.757813 139.832031 C 211.320313 139.9375 210.886719 140.25 210.460938 140.769531 L 208.414063 143.191406 L 207.726563 142.613281 L 211.601563 138.003906 L 212.289063 138.582031 L 211.679688 139.300781 C 212.0625 139.144531 212.421875 139.09375 212.757813 139.144531 C 213.101563 139.199219 213.4375 139.363281 213.773438 139.644531 C 213.8125 139.6875 213.859375 139.734375 213.914063 139.785156 C 213.976563 139.839844 214.03125 139.902344 214.085938 139.972656 Z M 215.863281 142.609375 C 215.507813 142.289063 215.085938 142.195313 214.597656 142.328125 C 214.117188 142.453125 213.636719 142.78125 213.160156 143.3125 C 212.691406 143.855469 212.417969 144.371094 212.347656 144.859375 C 212.285156 145.347656 212.429688 145.753906 212.785156 146.078125 C 213.136719 146.390625 213.554688 146.484375 214.035156 146.359375 C 214.523438 146.242188 215.003906 145.914063 215.472656 145.375 C 215.949219 144.84375 216.222656 144.328125 216.285156 143.828125 C 216.355469 143.328125 216.214844 142.921875 215.863281 142.609375 Z M 216.425781 141.984375 C 216.996094 142.496094 217.261719 143.105469 217.222656 143.8125 C 217.191406 144.523438 216.839844 145.242188 216.175781 145.984375 C 215.527344 146.722656 214.851563 147.15625 214.144531 147.28125 C 213.433594 147.40625 212.792969 147.210938 212.222656 146.703125 C 211.636719 146.179688 211.367188 145.566406 211.410156 144.859375 C 211.460938 144.152344 211.808594 143.429688 212.457031 142.6875 C 213.121094 141.949219 213.804688 141.515625 214.503906 141.390625 C 215.199219 141.265625 215.839844 141.464844 216.425781 141.984375 Z M 220.148438 147.164063 C 219.855469 146.789063 219.453125 146.625 218.945313 146.664063 C 218.445313 146.695313 217.914063 146.929688 217.351563 147.367188 C 216.777344 147.816406 216.414063 148.273438 216.257813 148.742188 C 216.109375 149.210938 216.183594 149.632813 216.476563 150.007813 C 216.765625 150.390625 217.15625 150.570313 217.648438 150.539063 C 218.136719 150.507813 218.667969 150.265625 219.242188 149.820313 C 219.804688 149.382813 220.167969 148.921875 220.335938 148.445313 C 220.5 147.976563 220.4375 147.550781 220.148438 147.164063 Z M 220.804688 146.664063 C 221.273438 147.28125 221.417969 147.929688 221.242188 148.617188 C 221.074219 149.304688 220.601563 149.949219 219.820313 150.554688 C 219.046875 151.15625 218.304688 151.453125 217.585938 151.445313 C 216.867188 151.445313 216.273438 151.136719 215.804688 150.523438 C 215.324219 149.90625 215.171875 149.257813 215.351563 148.570313 C 215.527344 147.882813 216 147.238281 216.773438 146.632813 C 217.554688 146.03125 218.296875 145.734375 219.007813 145.742188 C 219.726563 145.742188 220.324219 146.050781 220.804688 146.664063 Z M 224.925781 148.414063 L 225.472656 149.132813 L 221.566406 152.148438 L 225.238281 152.648438 L 225.941406 153.554688 L 221.957031 153.023438 L 221.253906 157.335938 L 220.550781 156.414063 L 221.191406 152.445313 L 218.863281 154.242188 L 218.316406 153.523438 Z M 224.925781 148.414063 "/>
<path style=" stroke:none;fill-rule:evenodd;fill:rgb(41.960784%,58.039216%,69.019608%);fill-opacity:1;" d="M 172.992188 109.726563 L 173.820313 110.273438 L 171.992188 113.007813 L 174.929688 114.976563 L 176.757813 112.242188 L 177.570313 112.789063 L 173.101563 119.445313 L 172.289063 118.898438 L 174.414063 115.726563 L 171.476563 113.757813 L 169.351563 116.929688 L 168.523438 116.382813 Z M 180.632813 119.925781 L 180.414063 120.347656 L 176.804688 118.410156 C 176.511719 119.027344 176.429688 119.566406 176.554688 120.035156 C 176.6875 120.503906 177.011719 120.878906 177.523438 121.160156 C 177.824219 121.316406 178.136719 121.425781 178.460938 121.488281 C 178.78125 121.558594 179.125 121.597656 179.492188 121.597656 L 179.054688 122.410156 C 178.699219 122.398438 178.355469 122.347656 178.023438 122.253906 C 177.699219 122.167969 177.386719 122.042969 177.085938 121.878906 C 176.3125 121.472656 175.839844 120.902344 175.664063 120.175781 C 175.484375 119.449219 175.621094 118.660156 176.070313 117.816406 C 176.539063 116.953125 177.117188 116.378906 177.804688 116.097656 C 178.5 115.816406 179.210938 115.871094 179.929688 116.253906 C 180.5625 116.597656 180.945313 117.097656 181.070313 117.753906 C 181.203125 118.410156 181.058594 119.136719 180.632813 119.925781 Z M 179.992188 119.238281 C 180.242188 118.761719 180.324219 118.316406 180.242188 117.910156 C 180.167969 117.496094 179.9375 117.183594 179.554688 116.972656 C 179.105469 116.746094 178.671875 116.699219 178.257813 116.832031 C 177.851563 116.957031 177.496094 117.261719 177.195313 117.738281 Z M 185.570313 120.472656 C 185.507813 120.359375 185.429688 120.265625 185.335938 120.191406 C 185.242188 120.109375 185.136719 120.03125 185.023438 119.957031 C 184.5625 119.71875 184.132813 119.699219 183.726563 119.894531 C 183.320313 120.09375 182.960938 120.488281 182.648438 121.082031 L 181.148438 123.878906 L 180.351563 123.457031 L 183.195313 118.160156 L 183.992188 118.582031 L 183.539063 119.394531 C 183.882813 119.175781 184.226563 119.0625 184.570313 119.050781 C 184.921875 119.03125 185.289063 119.121094 185.664063 119.316406 C 185.714844 119.347656 185.773438 119.386719 185.835938 119.425781 C 185.898438 119.457031 185.960938 119.503906 186.023438 119.566406 Z M 188.558594 124.859375 C 188.953125 124.246094 189.152344 123.695313 189.152344 123.203125 C 189.152344 122.714844 188.953125 122.34375 188.558594 122.09375 C 188.152344 121.835938 187.722656 121.808594 187.277344 122.015625 C 186.828125 122.214844 186.40625 122.621094 186.011719 123.234375 C 185.625 123.851563 185.433594 124.402344 185.433594 124.890625 C 185.433594 125.378906 185.636719 125.753906 186.042969 126.015625 C 186.4375 126.265625 186.859375 126.285156 187.308594 126.078125 C 187.753906 125.878906 188.171875 125.472656 188.558594 124.859375 Z M 187.152344 121.453125 C 187.496094 121.265625 187.832031 121.179688 188.167969 121.1875 C 188.5 121.1875 188.832031 121.296875 189.167969 121.515625 C 189.730469 121.871094 190.019531 122.402344 190.042969 123.109375 C 190.074219 123.820313 189.832031 124.570313 189.324219 125.359375 C 188.8125 126.160156 188.234375 126.691406 187.589844 126.953125 C 186.941406 127.222656 186.339844 127.179688 185.777344 126.828125 C 185.441406 126.609375 185.199219 126.351563 185.042969 126.0625 C 184.894531 125.769531 184.84375 125.414063 184.886719 125 L 184.402344 125.765625 L 183.636719 125.28125 L 188.136719 118.234375 L 188.902344 118.71875 Z M 194.574219 128.480469 L 194.308594 128.886719 L 190.886719 126.652344 C 190.542969 127.238281 190.410156 127.769531 190.496094 128.246094 C 190.578125 128.722656 190.863281 129.121094 191.355469 129.433594 C 191.644531 129.628906 191.949219 129.777344 192.261719 129.871094 C 192.582031 129.964844 192.925781 130.027344 193.292969 130.058594 L 192.792969 130.824219 C 192.4375 130.78125 192.097656 130.699219 191.777344 130.574219 C 191.453125 130.457031 191.152344 130.308594 190.871094 130.121094 C 190.140625 129.640625 189.714844 129.03125 189.589844 128.292969 C 189.472656 127.554688 189.683594 126.785156 190.214844 125.980469 C 190.746094 125.160156 191.371094 124.636719 192.089844 124.417969 C 192.808594 124.199219 193.503906 124.308594 194.183594 124.746094 C 194.796875 125.152344 195.136719 125.691406 195.199219 126.355469 C 195.269531 127.023438 195.0625 127.730469 194.574219 128.480469 Z M 193.980469 127.746094 C 194.269531 127.289063 194.394531 126.855469 194.355469 126.449219 C 194.3125 126.035156 194.109375 125.707031 193.746094 125.464844 C 193.328125 125.195313 192.90625 125.105469 192.480469 125.199219 C 192.0625 125.292969 191.675781 125.566406 191.324219 126.011719 Z M 199.4375 129.460938 C 199.382813 129.359375 199.316406 129.257813 199.234375 129.164063 C 199.148438 129.070313 199.050781 128.988281 198.9375 128.914063 C 198.507813 128.632813 198.082031 128.578125 197.65625 128.742188 C 197.238281 128.898438 196.84375 129.257813 196.46875 129.820313 L 194.734375 132.476563 L 193.984375 131.976563 L 197.28125 126.945313 L 198.03125 127.445313 L 197.515625 128.226563 C 197.867188 128.03125 198.21875 127.9375 198.5625 127.945313 C 198.914063 127.957031 199.269531 128.082031 199.625 128.320313 C 199.675781 128.351563 199.734375 128.394531 199.796875 128.445313 C 199.859375 128.488281 199.914063 128.546875 199.96875 128.617188 Z M 202.421875 128.347656 L 201.453125 129.753906 L 202.96875 130.800781 L 202.53125 131.425781 L 201.015625 130.378906 L 199.15625 133.066406 C 198.882813 133.464844 198.753906 133.746094 198.765625 133.925781 C 198.785156 134.113281 198.953125 134.316406 199.265625 134.535156 L 200.015625 135.050781 L 199.546875 135.738281 L 198.796875 135.222656 C 198.234375 134.824219 197.921875 134.433594 197.859375 134.050781 C 197.804688 133.675781 197.992188 133.183594 198.421875 132.566406 L 200.28125 129.878906 L 199.75 129.503906 L 200.1875 128.878906 L 200.71875 129.253906 L 201.6875 127.847656 Z M 205.804688 135.972656 L 203.914063 138.222656 L 205.101563 139.238281 C 205.507813 139.570313 205.882813 139.726563 206.226563 139.707031 C 206.570313 139.683594 206.902344 139.480469 207.226563 139.097656 C 207.546875 138.722656 207.6875 138.355469 207.648438 138.003906 C 207.617188 137.660156 207.398438 137.324219 206.992188 136.988281 Z M 207.914063 133.457031 L 206.367188 135.316406 L 207.460938 136.253906 C 207.824219 136.558594 208.164063 136.707031 208.476563 136.707031 C 208.789063 136.699219 209.074219 136.535156 209.335938 136.222656 C 209.59375 135.910156 209.695313 135.605469 209.632813 135.300781 C 209.578125 135 209.371094 134.699219 209.007813 134.394531 Z M 207.726563 132.144531 L 209.648438 133.753906 C 210.210938 134.234375 210.539063 134.738281 210.632813 135.269531 C 210.726563 135.792969 210.5625 136.296875 210.148438 136.785156 C 209.835938 137.160156 209.507813 137.390625 209.164063 137.472656 C 208.820313 137.558594 208.46875 137.5 208.117188 137.300781 C 208.40625 137.683594 208.539063 138.101563 208.507813 138.550781 C 208.484375 139.007813 208.304688 139.445313 207.960938 139.863281 C 207.492188 140.414063 206.960938 140.695313 206.367188 140.707031 C 205.78125 140.726563 205.183594 140.476563 204.570313 139.957031 L 202.570313 138.285156 Z M 213.445313 140.753906 C 213.402344 140.652344 213.34375 140.546875 213.273438 140.441406 C 213.199219 140.339844 213.109375 140.238281 213.007813 140.144531 C 212.609375 139.824219 212.195313 139.71875 211.757813 139.832031 C 211.320313 139.9375 210.886719 140.25 210.460938 140.769531 L 208.414063 143.191406 L 207.726563 142.613281 L 211.601563 138.003906 L 212.289063 138.582031 L 211.679688 139.300781 C 212.0625 139.144531 212.421875 139.09375 212.757813 139.144531 C 213.101563 139.199219 213.4375 139.363281 213.773438 139.644531 C 213.8125 139.6875 213.859375 139.734375 213.914063 139.785156 C 213.976563 139.839844 214.03125 139.902344 214.085938 139.972656 Z M 215.863281 142.609375 C 215.507813 142.289063 215.085938 142.195313 214.597656 142.328125 C 214.117188 142.453125 213.636719 142.78125 213.160156 143.3125 C 212.691406 143.855469 212.417969 144.371094 212.347656 144.859375 C 212.285156 145.347656 212.429688 145.753906 212.785156 146.078125 C 213.136719 146.390625 213.554688 146.484375 214.035156 146.359375 C 214.523438 146.242188 215.003906 145.914063 215.472656 145.375 C 215.949219 144.84375 216.222656 144.328125 216.285156 143.828125 C 216.355469 143.328125 216.214844 142.921875 215.863281 142.609375 Z M 216.425781 141.984375 C 216.996094 142.496094 217.261719 143.105469 217.222656 143.8125 C 217.191406 144.523438 216.839844 145.242188 216.175781 145.984375 C 215.527344 146.722656 214.851563 147.15625 214.144531 147.28125 C 213.433594 147.40625 212.792969 147.210938 212.222656 146.703125 C 211.636719 146.179688 211.367188 145.566406 211.410156 144.859375 C 211.460938 144.152344 211.808594 143.429688 212.457031 142.6875 C 213.121094 141.949219 213.804688 141.515625 214.503906 141.390625 C 215.199219 141.265625 215.839844 141.464844 216.425781 141.984375 Z M 220.148438 147.164063 C 219.855469 146.789063 219.453125 146.625 218.945313 146.664063 C 218.445313 146.695313 217.914063 146.929688 217.351563 147.367188 C 216.777344 147.816406 216.414063 148.273438 216.257813 148.742188 C 216.109375 149.210938 216.183594 149.632813 216.476563 150.007813 C 216.765625 150.390625 217.15625 150.570313 217.648438 150.539063 C 218.136719 150.507813 218.667969 150.265625 219.242188 149.820313 C 219.804688 149.382813 220.167969 148.921875 220.335938 148.445313 C 220.5 147.976563 220.4375 147.550781 220.148438 147.164063 Z M 220.804688 146.664063 C 221.273438 147.28125 221.417969 147.929688 221.242188 148.617188 C 221.074219 149.304688 220.601563 149.949219 219.820313 150.554688 C 219.046875 151.15625 218.304688 151.453125 217.585938 151.445313 C 216.867188 151.445313 216.273438 151.136719 215.804688 150.523438 C 215.324219 149.90625 215.171875 149.257813 215.351563 148.570313 C 215.527344 147.882813 216 147.238281 216.773438 146.632813 C 217.554688 146.03125 218.296875 145.734375 219.007813 145.742188 C 219.726563 145.742188 220.324219 146.050781 220.804688 146.664063 Z M 224.925781 148.414063 L 225.472656 149.132813 L 221.566406 152.148438 L 225.238281 152.648438 L 225.941406 153.554688 L 221.957031 153.023438 L 221.253906 157.335938 L 220.550781 156.414063 L 221.191406 152.445313 L 218.863281 154.242188 L 218.316406 153.523438 Z M 224.925781 148.414063 "/>
</g>
</svg>

