<?xml version="1.0" encoding="UTF-8"?>
<svg xmlns="http://www.w3.org/2000/svg" xmlns:xlink="http://www.w3.org/1999/xlink" width="256pt" height="256pt" viewBox="0 0 256 256" version="1.1">
<g id="surface2">
<rect x="0" y="0" width="256" height="256" style="fill:rgb(94.901961%,93.72549%,91.372549%);fill-opacity:1;stroke:none;"/>
<path style=" stroke:none;fill-rule:evenodd;fill:rgb(81.960784%,81.568627%,80.392157%);fill-opacity:1;" d="M 153.242188 12.0625 L 155.027344 7.882813 L 156.699219 8.398438 L 157.402344 5.9375 L 161.339844 7.058594 L 163.074219 -0.824219 L 161.921875 -1.851563 L 160.816406 -2.738281 L 159.78125 -3.488281 L 159 -4 L 150.816406 -4 L 145.035156 5.878906 Z M 153.242188 12.0625 "/>
<path style="fill:none;stroke-width:1;stroke-linecap:round;stroke-linejoin:round;stroke:rgb(81.960784%,81.960784%,81.960784%);stroke-opacity:1;stroke-miterlimit:10;" d="M 153.242188 12.0625 L 155.027344 7.882813 L 156.699219 8.398438 L 157.402344 5.9375 L 161.339844 7.058594 L 163.074219 -0.824219 L 161.921875 -1.851563 L 160.816406 -2.738281 L 159.78125 -3.488281 L 159 -4 L 150.816406 -4 L 145.035156 5.878906 L 153.242188 12.0625 "/>
<path style=" stroke:none;fill-rule:evenodd;fill:rgb(81.960784%,81.568627%,80.392157%);fill-opacity:1;" d="M 168.738281 23.804688 L 178.199219 25.785156 L 179.324219 20.40625 L 169.863281 18.429688 Z M 168.738281 23.804688 "/>
<path style="fill:none;stroke-width:1;stroke-linecap:round;stroke-linejoin:round;stroke:rgb(81.960784%,81.960784%,81.960784%);stroke-opacity:1;stroke-miterlimit:10;" d="M 168.738281 23.804688 L 178.199219 25.785156 L 179.324219 20.40625 L 169.863281 18.429688 L 168.738281 23.804688 "/>
<path style="fill:none;stroke-width:1;stroke-linecap:round;stroke-linejoin:round;stroke:rgb(100%,100%,100%);stroke-opacity:1;stroke-dasharray:2,3;stroke-miterlimit:10;" d="M 158.675781 19.394531 L 158.203125 21.28125 "/>
<path style="fill:none;stroke-width:1;stroke-linecap:round;stroke-linejoin:round;stroke:rgb(100%,100%,100%);stroke-opacity:1;stroke-dasharray:2,3;stroke-miterlimit:10;" d="M 120.445313 179.671875 L 122.632813 178.480469 "/>
<path style="fill:none;stroke-width:1;stroke-linecap:round;stroke-linejoin:round;stroke:rgb(100%,100%,100%);stroke-opacity:1;stroke-dasharray:2,3;stroke-miterlimit:10;" d="M 132.5 80.9375 L 131.359375 81.441406 L 130.015625 80.59375 "/>
<path style="fill:none;stroke-width:1;stroke-linecap:round;stroke-linejoin:round;stroke:rgb(100%,100%,100%);stroke-opacity:1;stroke-dasharray:2,3;stroke-miterlimit:10;" d="M 159.4375 16.4375 L 158.675781 19.394531 "/>
<path style="fill:none;stroke-width:1;stroke-linecap:round;stroke-linejoin:round;stroke:rgb(100%,100%,100%);stroke-opacity:1;stroke-dasharray:2,3;stroke-miterlimit:10;" d="M 163.210938 1.476563 L 162.738281 3.398438 L 162.414063 4.722656 "/>
<path style="fill:none;stroke-width:1;stroke-linecap:round;stroke-linejoin:round;stroke:rgb(100%,100%,100%);stroke-opacity:1;stroke-dasharray:2,3;stroke-miterlimit:10;" d="M 158.203125 21.28125 L 157.425781 24.597656 "/>
<path style="fill:none;stroke-width:1;stroke-linecap:round;stroke-linejoin:round;stroke:rgb(100%,100%,100%);stroke-opacity:1;stroke-dasharray:2,3;stroke-miterlimit:10;" d="M 167.867188 8.238281 L 167.046875 11.664063 "/>
<path style="fill:none;stroke-width:1;stroke-linecap:round;stroke-linejoin:round;stroke:rgb(100%,100%,100%);stroke-opacity:1;stroke-dasharray:2,3;stroke-miterlimit:10;" d="M 98.632813 232.324219 L 100.003906 237.402344 "/>
<path style="fill:none;stroke-width:1;stroke-linecap:round;stroke-linejoin:round;stroke:rgb(100%,100%,100%);stroke-opacity:1;stroke-dasharray:2,3;stroke-miterlimit:10;" d="M 157.425781 24.597656 L 155.992188 30.074219 "/>
<path style="fill:none;stroke-width:1;stroke-linecap:round;stroke-linejoin:round;stroke:rgb(100%,100%,100%);stroke-opacity:1;stroke-dasharray:2,3;stroke-miterlimit:10;" d="M 100.382813 226.695313 L 99.730469 228.933594 L 98.632813 232.324219 "/>
<path style="fill:none;stroke-width:1;stroke-linecap:round;stroke-linejoin:round;stroke:rgb(100%,100%,100%);stroke-opacity:1;stroke-dasharray:2,3;stroke-miterlimit:10;" d="M 166.433594 13.601563 L 165.070313 19.480469 "/>
<path style="fill:none;stroke-width:1;stroke-linecap:round;stroke-linejoin:round;stroke:rgb(100%,100%,100%);stroke-opacity:1;stroke-dasharray:2,3;stroke-miterlimit:10;" d="M 157.5 90.25 L 158.882813 90.910156 L 160.273438 91.644531 L 161.578125 92.480469 L 162.859375 93.351563 "/>
<path style="fill:none;stroke-width:1;stroke-linecap:round;stroke-linejoin:round;stroke:rgb(100%,100%,100%);stroke-opacity:1;stroke-dasharray:2,3;stroke-miterlimit:10;" d="M 161.570313 33.082031 L 160.085938 39.121094 "/>
<path style="fill:none;stroke-width:1;stroke-linecap:round;stroke-linejoin:round;stroke:rgb(100%,100%,100%);stroke-opacity:1;stroke-dasharray:2,3;stroke-miterlimit:10;" d="M 132.984375 80.03125 L 136.144531 81.238281 L 139.308594 82.453125 "/>
<path style="fill:none;stroke-width:1;stroke-linecap:round;stroke-linejoin:round;stroke:rgb(100%,100%,100%);stroke-opacity:1;stroke-dasharray:2,3;stroke-miterlimit:10;" d="M 143.027344 81.738281 L 145.949219 82.503906 L 149.632813 83.46875 "/>
<path style="fill:none;stroke-width:1;stroke-linecap:round;stroke-linejoin:round;stroke:rgb(100%,100%,100%);stroke-opacity:1;stroke-dasharray:2,3;stroke-miterlimit:10;" d="M 134.96875 74.335938 L 134.585938 75.613281 L 134.007813 77.378906 L 133.65625 78.359375 L 133.28125 79.316406 L 132.5 80.9375 "/>
<path style="fill:none;stroke-width:1;stroke-linecap:round;stroke-linejoin:round;stroke:rgb(100%,100%,100%);stroke-opacity:1;stroke-dasharray:2,3;stroke-miterlimit:10;" d="M 147.617188 92.648438 L 148.511719 89.316406 L 149.554688 85.425781 "/>
<path style="fill:none;stroke-width:1;stroke-linecap:round;stroke-linejoin:round;stroke:rgb(100%,100%,100%);stroke-opacity:1;stroke-dasharray:2,3;stroke-miterlimit:10;" d="M 164.257813 21.800781 L 164.183594 22.90625 L 162.441406 29.945313 "/>
<path style="fill:none;stroke-width:1;stroke-linecap:round;stroke-linejoin:round;stroke:rgb(100%,100%,100%);stroke-opacity:1;stroke-dasharray:2,3;stroke-miterlimit:10;" d="M 134.023438 65.199219 L 134.542969 66.175781 L 135.082031 67.945313 L 135.269531 69.179688 L 135.347656 70.652344 L 135.257813 72.375 L 134.96875 74.335938 "/>
<path style="fill:none;stroke-width:1;stroke-linecap:round;stroke-linejoin:round;stroke:rgb(100%,100%,100%);stroke-opacity:1;stroke-dasharray:2,3;stroke-miterlimit:10;" d="M 170.523438 -2 L 168.390625 6.292969 "/>
<path style="fill:none;stroke-width:1;stroke-linecap:round;stroke-linejoin:round;stroke:rgb(100%,100%,100%);stroke-opacity:1;stroke-dasharray:2,3;stroke-miterlimit:10;" d="M 127.675781 57.074219 L 130.433594 59.722656 L 131.320313 60.785156 L 132.273438 62.136719 L 132.824219 63.015625 L 133.414063 64.035156 L 134.023438 65.199219 "/>
<path style="fill:none;stroke-width:1;stroke-linecap:round;stroke-linejoin:round;stroke:rgb(100%,100%,100%);stroke-opacity:1;stroke-dasharray:2,3;stroke-miterlimit:10;" d="M 245.183594 112.335938 L 241.777344 122.476563 "/>
<path style="fill:none;stroke-width:1;stroke-linecap:round;stroke-linejoin:round;stroke:rgb(100%,100%,100%);stroke-opacity:1;stroke-dasharray:2,3;stroke-miterlimit:10;" d="M 162.414063 4.722656 L 159.4375 16.4375 "/>
<path style="fill:none;stroke-width:1;stroke-linecap:round;stroke-linejoin:round;stroke:rgb(100%,100%,100%);stroke-opacity:1;stroke-dasharray:2,3;stroke-miterlimit:10;" d="M 164.117188 -2 L 163.210938 1.476563 "/>
<path style="fill:none;stroke-width:1;stroke-linecap:round;stroke-linejoin:round;stroke:rgb(100%,100%,100%);stroke-opacity:1;stroke-dasharray:2,3;stroke-miterlimit:10;" d="M 154.933594 89.40625 L 150.980469 87.539063 L 150.125 86.816406 L 149.605469 85.738281 L 149.515625 84.027344 L 149.75 82.894531 L 150.828125 78.019531 "/>
<path style="fill:none;stroke-width:1;stroke-linecap:round;stroke-linejoin:round;stroke:rgb(100%,100%,100%);stroke-opacity:1;stroke-dasharray:2,3;stroke-miterlimit:10;" d="M 154.304688 61.148438 L 151.039063 75.78125 "/>
<path style="fill:none;stroke-width:1;stroke-linecap:round;stroke-linejoin:round;stroke:rgb(100%,100%,100%);stroke-opacity:1;stroke-dasharray:2,3;stroke-miterlimit:10;" d="M 152.796875 55.632813 L 149.917969 54.457031 L 149.125 52.871094 L 150.851563 45.917969 L 150.542969 44.785156 L 146.085938 38.859375 L 141.421875 33.234375 L 140.835938 32.195313 L 140.226563 30.515625 "/>
<path style="fill:none;stroke-width:1;stroke-linecap:round;stroke-linejoin:round;stroke:rgb(100%,100%,100%);stroke-opacity:1;stroke-dasharray:2,3;stroke-miterlimit:10;" d="M 151.277344 48.757813 L 143.117188 81.582031 L 142.289063 82.476563 L 141.320313 82.949219 L 140.046875 82.847656 L 139.308594 82.453125 "/>
<path style="fill:none;stroke-width:1;stroke-linecap:round;stroke-linejoin:round;stroke:rgb(100%,100%,100%);stroke-opacity:1;stroke-dasharray:2,3;stroke-miterlimit:10;" d="M 120.445313 179.671875 L 119.183594 180.199219 L 113.507813 190.855469 L 112.632813 192.320313 L 111.789063 193.324219 L 110.257813 193.976563 L 109.507813 194.945313 L 107.226563 201.011719 L 107.789063 204.257813 L 100.476563 224.542969 L 100.320313 226.007813 L 100.382813 226.695313 "/>
<path style="fill:none;stroke-width:1;stroke-linecap:round;stroke-linejoin:round;stroke:rgb(100%,100%,100%);stroke-opacity:1;stroke-dasharray:2,3;stroke-miterlimit:10;" d="M 122.632813 178.480469 L 124.054688 177.421875 L 123.457031 176.421875 L 122.808594 174.761719 L 122.539063 173.648438 L 122.363281 172.363281 L 122.328125 170.914063 L 122.476563 169.296875 L 122.851563 167.535156 L 123.5 165.628906 L 144.851563 105.355469 L 145.019531 101.796875 L 147.617188 92.648438 "/>
<path style="fill:none;stroke-width:1;stroke-linecap:round;stroke-linejoin:round;stroke:rgb(100%,100%,100%);stroke-opacity:1;stroke-dasharray:2,3;stroke-miterlimit:10;" d="M 238.160156 17.886719 L 240.445313 17.667969 L 242.054688 16.703125 L 243.476563 15.359375 L 256.632813 -2 "/>
<path style="fill:none;stroke-width:8;stroke-linecap:round;stroke-linejoin:round;stroke:rgb(75.686275%,70.980392%,61.568627%);stroke-opacity:1;stroke-miterlimit:10;" d="M 147.09375 6.621094 L 151.378906 9.289063 "/>
<path style="fill:none;stroke-width:8;stroke-linecap:round;stroke-linejoin:round;stroke:rgb(75.686275%,70.980392%,61.568627%);stroke-opacity:1;stroke-miterlimit:10;" d="M 165.175781 6.671875 L 170.488281 7.679688 "/>
<path style="fill:none;stroke-width:8;stroke-linecap:round;stroke-linejoin:round;stroke:rgb(75.686275%,70.980392%,61.568627%);stroke-opacity:1;stroke-miterlimit:10;" d="M 127.902344 81.871094 L 134.757813 84.003906 "/>
<path style="fill:none;stroke-width:8;stroke-linecap:round;stroke-linejoin:round;stroke:rgb(75.686275%,70.980392%,61.568627%);stroke-opacity:1;stroke-miterlimit:10;" d="M 170.488281 7.679688 L 177.851563 9.398438 "/>
<path style="fill:none;stroke-width:8;stroke-linecap:round;stroke-linejoin:round;stroke:rgb(75.686275%,70.980392%,61.568627%);stroke-opacity:1;stroke-miterlimit:10;" d="M 180.59375 23.742188 L 182.121094 15.960938 "/>
<path style="fill:none;stroke-width:8;stroke-linecap:round;stroke-linejoin:round;stroke:rgb(75.686275%,70.980392%,61.568627%);stroke-opacity:1;stroke-miterlimit:10;" d="M 158.511719 63.503906 L 152.210938 57.976563 "/>
<path style="fill:none;stroke-width:8;stroke-linecap:round;stroke-linejoin:round;stroke:rgb(75.686275%,70.980392%,61.568627%);stroke-opacity:1;stroke-miterlimit:10;" d="M 154.761719 74.996094 L 146.941406 78.765625 "/>
<path style="fill:none;stroke-width:8;stroke-linecap:round;stroke-linejoin:round;stroke:rgb(75.686275%,70.980392%,61.568627%);stroke-opacity:1;stroke-miterlimit:10;" d="M 213.480469 175.0625 L 211.28125 170.613281 L 210.355469 169.265625 L 209.164063 168.128906 L 207.714844 167.164063 "/>
<path style="fill:none;stroke-width:8;stroke-linecap:round;stroke-linejoin:round;stroke:rgb(75.686275%,70.980392%,61.568627%);stroke-opacity:1;stroke-miterlimit:10;" d="M 155.769531 2.238281 L 162.738281 3.398438 L 165.863281 3.964844 "/>
<path style="fill:none;stroke-width:8;stroke-linecap:round;stroke-linejoin:round;stroke:rgb(75.686275%,70.980392%,61.568627%);stroke-opacity:1;stroke-miterlimit:10;" d="M 158.257813 81.742188 L 158.84375 83.96875 L 155.476563 92.203125 "/>
<path style="fill:none;stroke-width:8;stroke-linecap:round;stroke-linejoin:round;stroke:rgb(75.686275%,70.980392%,61.568627%);stroke-opacity:1;stroke-miterlimit:10;" d="M 177.851563 9.398438 L 180.402344 -1.550781 "/>
<path style="fill:none;stroke-width:8;stroke-linecap:round;stroke-linejoin:round;stroke:rgb(75.686275%,70.980392%,61.568627%);stroke-opacity:1;stroke-miterlimit:10;" d="M 173.042969 -3.265625 L 170.488281 7.679688 "/>
<path style="fill:none;stroke-width:8;stroke-linecap:round;stroke-linejoin:round;stroke:rgb(75.686275%,70.980392%,61.568627%);stroke-opacity:1;stroke-miterlimit:10;" d="M 158.308594 -1.84375 L 155.769531 2.238281 L 151.378906 9.289063 "/>
<path style="fill:none;stroke-width:8;stroke-linecap:round;stroke-linejoin:round;stroke:rgb(75.686275%,70.980392%,61.568627%);stroke-opacity:1;stroke-miterlimit:10;" d="M 154.023438 -4.511719 L 147.09375 6.621094 "/>
<path style="fill:none;stroke-width:8;stroke-linecap:round;stroke-linejoin:round;stroke:rgb(75.686275%,70.980392%,61.568627%);stroke-opacity:1;stroke-miterlimit:10;" d="M 162.050781 77.210938 L 155.808594 65.414063 "/>
<path style="fill:none;stroke-width:8;stroke-linecap:round;stroke-linejoin:round;stroke:rgb(75.686275%,70.980392%,61.568627%);stroke-opacity:1;stroke-miterlimit:10;" d="M 182.121094 15.960938 L 163.734375 12.351563 "/>
<path style="fill:none;stroke-width:8;stroke-linecap:round;stroke-linejoin:round;stroke:rgb(75.686275%,70.980392%,61.568627%);stroke-opacity:1;stroke-miterlimit:10;" d="M 193.609375 116.621094 L 192.515625 115.027344 L 183.378906 108.378906 L 181.65625 106.445313 L 181.882813 103.152344 "/>
<path style="fill:none;stroke-width:8;stroke-linecap:round;stroke-linejoin:round;stroke:rgb(75.686275%,70.980392%,61.568627%);stroke-opacity:1;stroke-miterlimit:10;" d="M 161.789063 20.050781 L 180.59375 23.742188 "/>
<path style="fill:none;stroke-width:8;stroke-linecap:round;stroke-linejoin:round;stroke:rgb(75.686275%,70.980392%,61.568627%);stroke-opacity:1;stroke-miterlimit:10;" d="M 195.636719 118.023438 L 195.894531 120.488281 L 195.496094 122.425781 L 193.75 126.796875 L 192.1875 128.855469 L 190.835938 129.355469 L 188.714844 128.667969 L 188.484375 127.449219 L 188.808594 125.484375 L 193.191406 117.148438 L 194.097656 116.558594 L 195.636719 118.023438 "/>
<path style="fill:none;stroke-width:8;stroke-linecap:round;stroke-linejoin:round;stroke:rgb(75.686275%,70.980392%,61.568627%);stroke-opacity:1;stroke-miterlimit:10;" d="M 158.984375 163.316406 L 155.957031 165.960938 L 153.15625 166.761719 L 149.957031 166.5625 L 141.957031 164.160156 L 134.359375 160.5625 L 129.691406 158.070313 "/>
<path style="fill:none;stroke-width:8;stroke-linecap:round;stroke-linejoin:round;stroke:rgb(75.686275%,70.980392%,61.568627%);stroke-opacity:1;stroke-miterlimit:10;" d="M 264 160.363281 L 261.804688 161.003906 L 259.003906 161.003906 L 256.804688 160.203125 L 254.804688 157.800781 L 253.203125 155.003906 L 251.222656 151.621094 "/>
<path style="fill:none;stroke-width:8;stroke-linecap:round;stroke-linejoin:round;stroke:rgb(75.686275%,70.980392%,61.568627%);stroke-opacity:1;stroke-miterlimit:10;" d="M 127.269531 82.734375 L 127.902344 81.871094 L 128.773438 80.535156 L 129.710938 78.808594 L 130.125 77.859375 L 130.46875 76.882813 L 130.703125 75.902344 L 130.738281 74.027344 L 129.972656 72.421875 L 124.269531 68.109375 L 122.746094 68.492188 L 121.9375 69.273438 L 116.363281 76.703125 L 116.136719 78.195313 L 116.738281 79.71875 L 117.800781 80.828125 L 124.332031 86.203125 L 127.269531 82.734375 "/>
<path style="fill:none;stroke-width:8;stroke-linecap:round;stroke-linejoin:round;stroke:rgb(75.686275%,70.980392%,61.568627%);stroke-opacity:1;stroke-miterlimit:10;" d="M 155.808594 65.414063 L 154.359375 71.15625 L 154.203125 72.582031 L 154.761719 74.996094 L 158.257813 81.742188 L 162.050781 77.210938 L 168.097656 73.664063 L 168.410156 72.210938 L 160.851563 63.277344 L 158.511719 63.503906 L 155.808594 65.414063 "/>
<path style="fill:none;stroke-width:8;stroke-linecap:round;stroke-linejoin:round;stroke:rgb(75.686275%,70.980392%,61.568627%);stroke-opacity:1;stroke-miterlimit:10;" d="M 211.804688 178.804688 L 212.601563 176.402344 L 213.480469 175.0625 L 217.402344 173.203125 L 222.804688 169.203125 L 229.804688 165.601563 L 237.402344 163.601563 L 246.203125 161.203125 L 254.804688 157.800781 "/>
<path style="fill:none;stroke-width:8;stroke-linecap:round;stroke-linejoin:round;stroke:rgb(75.686275%,70.980392%,61.568627%);stroke-opacity:1;stroke-miterlimit:10;" d="M 241.890625 155.273438 L 243.804688 158.800781 L 246.203125 161.203125 L 253.203125 167.605469 L 255.003906 170.003906 L 255.601563 173.003906 L 254.003906 178.601563 L 249.402344 185.402344 L 245.273438 190.953125 L 237.203125 201.804688 L 235.203125 204.402344 L 233.402344 206.003906 L 223.804688 210.601563 "/>
<path style="fill:none;stroke-width:8;stroke-linecap:round;stroke-linejoin:round;stroke:rgb(75.686275%,70.980392%,61.568627%);stroke-opacity:1;stroke-miterlimit:10;" d="M 156.140625 159.945313 L 158.984375 163.316406 L 161.035156 164.65625 L 167.882813 166.65625 L 169.164063 166.40625 L 185.105469 153.078125 L 198.851563 141.496094 L 198.992188 140.21875 L 198.246094 138.78125 L 184.265625 129.355469 L 182.585938 129.167969 L 156.792969 151.328125 L 155.136719 153.578125 L 154.554688 155.855469 L 154.71875 157.632813 L 156.140625 159.945313 "/>
<path style="fill:none;stroke-width:8;stroke-linecap:round;stroke-linejoin:round;stroke:rgb(75.686275%,70.980392%,61.568627%);stroke-opacity:1;stroke-miterlimit:10;" d="M 122.007813 124.777344 L 118.5625 131.007813 L 117.1875 133.125 L 115.734375 134.847656 L 113.90625 136.425781 L 111.78125 137.554688 L 109.507813 138.308594 L 106.921875 138.882813 L 104.253906 139.007813 L 101.625 138.804688 L 95.269531 138.011719 L 90.457031 137.65625 L 85.371094 137.335938 L 80.050781 137.191406 L 74.921875 137.269531 L 70.484375 137.390625 L 66.234375 137.722656 L 62 138.355469 L 58.582031 139.164063 L 55.648438 140.125 L 52.683594 141.523438 L 48.207031 144.527344 L 46.109375 145.367188 L 44.273438 145.671875 L 42.855469 145.40625 L 41.765625 144.757813 L 41.183594 143.808594 L 41.144531 142.308594 L 49.660156 131.609375 L 51.144531 128.253906 L 58.714844 118.28125 "/>
<path style="fill:none;stroke-width:10;stroke-linecap:round;stroke-linejoin:round;stroke:rgb(86.666667%,62.352941%,6.666667%);stroke-opacity:1;stroke-miterlimit:10;" d="M 177.761719 187.195313 L 172.464844 190.214844 L 167.214844 192.726563 L 162.113281 194.847656 L 157.429688 196.371094 L 152.5625 197.703125 L 147.007813 198.863281 L 141.980469 199.632813 L 136.660156 200.144531 L 131.636719 200.367188 L 126.683594 200.28125 L 121.972656 200.003906 L 117.105469 199.492188 L 112.652344 198.730469 "/>
<path style="fill:none;stroke-width:10;stroke-linecap:round;stroke-linejoin:round;stroke:rgb(86.666667%,62.352941%,6.666667%);stroke-opacity:1;stroke-miterlimit:10;" d="M 112.164063 200.136719 L 116.929688 200.863281 L 121.859375 201.386719 L 126.628906 201.664063 L 131.65625 201.753906 L 136.753906 201.527344 L 142.148438 201.007813 L 147.253906 200.222656 L 152.886719 199.050781 L 157.816406 197.695313 L 162.761719 196.140625 L 167.515625 194.34375 L 173.214844 192.066406 L 179.105469 189.257813 "/>
<path style="fill:none;stroke-width:10;stroke-linecap:round;stroke-linejoin:round;stroke:rgb(86.666667%,62.352941%,6.666667%);stroke-opacity:1;stroke-miterlimit:10;" d="M 177.761719 187.195313 L 172.265625 189.765625 L 166.871094 192.027344 L 163.875 193.140625 L 160.605469 194.167969 L 156.832031 194.921875 L 152.9375 195.289063 L 149.3125 195.34375 L 145.566406 195.003906 L 142.027344 194.296875 L 138.613281 193.144531 L 135.40625 191.820313 L 132.320313 190.203125 L 129.5625 188.421875 L 126.855469 186.316406 L 124.589844 184.195313 L 122.605469 181.773438 L 121.242188 179.238281 L 120.214844 176.195313 L 119.761719 173.75 L 119.464844 171.097656 L 119.582031 168.308594 L 120.132813 165.601563 L 129.304688 132.570313 "/>
<path style="fill:none;stroke-width:10;stroke-linecap:round;stroke-linejoin:round;stroke:rgb(86.666667%,62.352941%,6.666667%);stroke-opacity:1;stroke-miterlimit:10;" d="M 96.828125 194.285156 L 91.339844 191.921875 L 86.914063 189.835938 L 83.269531 187.890625 L 80.476563 186.191406 L 77.875 184.257813 L 75.742188 182.054688 L 74.078125 179.816406 L 72.683594 177.050781 L 71.667969 174.066406 L 71.15625 171.34375 L 71.046875 168.414063 L 71.449219 165.398438 L 72.164063 162.65625 L 73.359375 159.875 L 74.863281 157.347656 L 76.785156 155.023438 L 79.082031 152.988281 L 81.582031 151.320313 L 84.566406 149.980469 L 87.363281 149.28125 L 90.5 148.902344 L 93.40625 149 L 96.222656 149.445313 L 98.996094 150.300781 L 101.757813 151.695313 L 104.464844 153.625 L 106.667969 155.8125 L 108.339844 158.304688 L 109.828125 161.183594 L 110.835938 164.132813 L 111.230469 167.191406 L 111.246094 169.964844 L 111.003906 173.003906 L 107.105469 192.628906 "/>
<path style="fill:none;stroke-width:10;stroke-linecap:round;stroke-linejoin:round;stroke:rgb(86.666667%,62.352941%,6.666667%);stroke-opacity:1;stroke-miterlimit:10;" d="M 82.867188 263.714844 L 93.464844 237.011719 L 94.765625 234.558594 L 96.167969 232.40625 L 97.816406 230.578125 L 99.730469 228.933594 L 102.179688 227.355469 L 105.40625 225.660156 L 109.847656 223.421875 L 167.757813 195.484375 L 173.25 192.609375 L 179.105469 189.257813 "/>
<path style="fill:none;stroke-width:10;stroke-linecap:round;stroke-linejoin:round;stroke:rgb(86.666667%,62.352941%,6.666667%);stroke-opacity:1;stroke-miterlimit:10;" d="M 134.0625 119.585938 L 124.367188 137.289063 L 122.800781 139.738281 L 121.132813 141.6875 L 119.132813 143.492188 L 116.664063 145.113281 L 114.382813 146.292969 L 111.421875 147.160156 L 107.792969 147.757813 L 104.328125 147.988281 L 100.332031 147.984375 L 96.847656 147.683594 L 93.519531 147.339844 L 90.429688 147.238281 L 87.0625 147.644531 L 84.019531 148.40625 L 80.777344 149.859375 L 78.066406 151.667969 L 75.589844 153.863281 L 73.5 156.386719 L 71.875 159.117188 L 70.589844 162.117188 L 69.8125 165.078125 L 69.382813 168.335938 L 69.5 171.527344 L 70.058594 174.484375 L 71.148438 177.695313 L 72.660156 180.695313 L 74.472656 183.136719 L 76.777344 185.511719 L 79.546875 187.570313 L 82.464844 189.34375 L 86.179688 191.207031 L 90.664063 193.3125 L 96.238281 195.617188 "/>
<path style="fill:none;stroke-width:8;stroke-linecap:round;stroke-linejoin:round;stroke:rgb(75.686275%,70.980392%,61.568627%);stroke-opacity:1;stroke-miterlimit:10;" d="M 144.511719 87.660156 L 148.511719 89.316406 L 155.476563 92.203125 L 156.496094 92.625 "/>
<path style="fill:none;stroke-width:8;stroke-linecap:round;stroke-linejoin:round;stroke:rgb(75.686275%,70.980392%,61.568627%);stroke-opacity:1;stroke-miterlimit:10;" d="M 167.953125 97.375 L 174.5 92.648438 L 186.195313 83.984375 "/>
<path style="fill:none;stroke-width:8;stroke-linecap:round;stroke-linejoin:round;stroke:rgb(75.686275%,70.980392%,61.568627%);stroke-opacity:1;stroke-miterlimit:10;" d="M 224.730469 92.355469 L 228.648438 90.074219 L 232.136719 87.625 L 234.851563 83.710938 L 237.410156 80.273438 L 240.820313 77.238281 L 244.121094 75.132813 "/>
<path style="fill:none;stroke-width:8;stroke-linecap:round;stroke-linejoin:round;stroke:rgb(75.686275%,70.980392%,61.568627%);stroke-opacity:1;stroke-miterlimit:10;" d="M 205.167969 239.410156 L 213.484375 236.382813 L 225.929688 232.636719 L 220.847656 217.5 "/>
<path style="fill:none;stroke-width:8;stroke-linecap:round;stroke-linejoin:round;stroke:rgb(75.686275%,70.980392%,61.568627%);stroke-opacity:1;stroke-miterlimit:10;" d="M 110.558594 39.238281 L 107.441406 43.328125 L 106.203125 45.636719 L 103.78125 55.128906 L 101.566406 59.308594 L 99.144531 62.621094 L 97.628906 63.367188 L 96.441406 63.304688 L 90.453125 56.09375 "/>
<path style="fill:none;stroke-width:8;stroke-linecap:round;stroke-linejoin:round;stroke:rgb(75.686275%,70.980392%,61.568627%);stroke-opacity:1;stroke-miterlimit:10;" d="M 107.203125 235.203125 L 114.003906 236.601563 L 121.203125 238.800781 L 128.003906 241.601563 L 132.300781 244.21875 L 136.355469 248.335938 L 140.761719 253.832031 "/>
<path style="fill:none;stroke-width:8;stroke-linecap:round;stroke-linejoin:round;stroke:rgb(75.686275%,70.980392%,61.568627%);stroke-opacity:1;stroke-miterlimit:10;" d="M 134.757813 84.003906 L 133.917969 85.886719 L 133.238281 87.621094 L 132.800781 89.882813 L 132.734375 92.214844 L 132.957031 94.539063 L 132.996094 96.75 L 132.589844 99.570313 L 131.949219 102.476563 L 129.777344 109.824219 L 128.769531 112.382813 L 127.378906 115.191406 L 122.007813 124.777344 "/>
<path style="fill:none;stroke-width:8;stroke-linecap:round;stroke-linejoin:round;stroke:rgb(75.686275%,70.980392%,61.568627%);stroke-opacity:1;stroke-miterlimit:10;" d="M 238.953125 102.636719 L 245.292969 101.851563 L 250.167969 98.84375 L 253.21875 96.445313 L 256.226563 95.226563 L 259.316406 93.804688 L 260.816406 91.570313 L 261.753906 89.046875 L 264 87.050781 "/>
<path style="fill:none;stroke-width:8;stroke-linecap:round;stroke-linejoin:round;stroke:rgb(75.686275%,70.980392%,61.568627%);stroke-opacity:1;stroke-miterlimit:10;" d="M 91.421875 264 L 92.804688 256.800781 L 95.003906 248.601563 L 97.804688 240.601563 L 99.402344 238.003906 L 101.40625 236.003906 L 103.605469 235.203125 L 107.203125 235.203125 "/>
<path style="fill:none;stroke-width:8;stroke-linecap:round;stroke-linejoin:round;stroke:rgb(75.686275%,70.980392%,61.568627%);stroke-opacity:1;stroke-miterlimit:10;" d="M 128.632813 161.15625 L 129.691406 158.070313 L 134.90625 142.84375 L 136.53125 138.378906 L 138.3125 133.902344 L 140.613281 128.539063 L 143.222656 122.988281 L 147.203125 114.613281 L 150.015625 108.355469 L 152.742188 101.984375 L 156.496094 92.625 "/>
<path style="fill:none;stroke-width:8;stroke-linecap:round;stroke-linejoin:round;stroke:rgb(75.686275%,70.980392%,61.568627%);stroke-opacity:1;stroke-miterlimit:10;" d="M 140.761719 253.832031 L 144.582031 262.414063 L 144.96875 264 "/>
<path style="fill:none;stroke-width:8;stroke-linecap:round;stroke-linejoin:round;stroke:rgb(75.686275%,70.980392%,61.568627%);stroke-opacity:1;stroke-miterlimit:10;" d="M 200.019531 264 L 203.488281 255.546875 L 205.445313 249.273438 L 205.867188 246.308594 L 205.867188 242.59375 L 205.167969 239.410156 L 203.769531 236.226563 L 202.394531 234.292969 L 198.503906 230.578125 L 194.449219 228.644531 L 191.488281 227.863281 L 189.34375 227.707031 L 183.960938 228.488281 L 182.003906 229.171875 L 180.09375 230.265625 L 177.878906 231.980469 L 171.285156 238.257813 L 163.644531 244.839844 L 161.964844 245.621094 L 148.871094 249.273438 L 146.261719 250.273438 L 140.761719 253.832031 "/>
<path style="fill:none;stroke-width:8;stroke-linecap:round;stroke-linejoin:round;stroke:rgb(75.686275%,70.980392%,61.568627%);stroke-opacity:1;stroke-miterlimit:10;" d="M 65.738281 -4.484375 L 33.269531 32.777344 L 32.152344 32.996094 L 17.332031 20.886719 L 13.042969 16.828125 L 12.296875 15.859375 L 12.042969 13.738281 L 12.484375 11.925781 L 16.796875 6.683594 L 29.449219 -7.457031 L 30.75 -9 "/>
<path style="fill:none;stroke-width:8;stroke-linecap:round;stroke-linejoin:round;stroke:rgb(75.686275%,70.980392%,61.568627%);stroke-opacity:1;stroke-miterlimit:10;" d="M 189.894531 81.414063 L 194.441406 78.558594 L 195.535156 77.921875 L 196.996094 77.628906 L 198.324219 77.683594 L 199.660156 78.117188 L 214.464844 86.375 L 224.730469 92.355469 L 229.726563 95.269531 L 238.953125 102.636719 L 241.355469 103.726563 L 244.035156 104.070313 L 247.132813 104.164063 L 255.546875 102.574219 L 262.324219 100.417969 L 264 99.746094 "/>
<path style="fill:none;stroke-width:8;stroke-linecap:round;stroke-linejoin:round;stroke:rgb(75.686275%,70.980392%,61.568627%);stroke-opacity:1;stroke-miterlimit:10;" d="M 156.496094 92.625 L 167.953125 97.375 L 181.882813 103.152344 L 192.988281 107.753906 L 200.515625 110.753906 L 207.820313 113.542969 L 214.875 115.957031 L 221.5 117.882813 L 228.183594 119.648438 L 235.039063 121.179688 L 241.777344 122.476563 L 248.980469 123.585938 L 255.824219 124.390625 L 262.878906 124.996094 L 264 125.023438 "/>
<path style="fill:none;stroke-width:8;stroke-linecap:round;stroke-linejoin:round;stroke:rgb(75.686275%,70.980392%,61.568627%);stroke-opacity:1;stroke-miterlimit:10;" d="M 134.757813 84.003906 L 136.347656 84.480469 L 137.558594 84.839844 L 144.511719 87.660156 "/>
<path style="fill:none;stroke-width:8;stroke-linecap:round;stroke-linejoin:round;stroke:rgb(75.686275%,70.980392%,61.568627%);stroke-opacity:1;stroke-miterlimit:10;" d="M 60.65625 -9 L 65.738281 -4.484375 L 79.957031 8.054688 L 83.546875 11.492188 L 86.957031 15.183594 L 91.679688 20.84375 L 95.613281 25.144531 L 99.582031 29.167969 L 103.570313 32.953125 L 110.558594 39.238281 L 130.996094 57.875 L 132.632813 59.449219 L 134.246094 61.4375 L 135.605469 63.515625 L 136.769531 66.027344 L 137.453125 68.238281 L 137.691406 70.605469 L 137.644531 73.019531 L 137.273438 75.3125 L 136.265625 80.175781 L 136.144531 81.238281 L 134.757813 84.003906 "/>
<path style="fill:none;stroke-width:9;stroke-linecap:round;stroke-linejoin:round;stroke:rgb(75.686275%,70.980392%,61.568627%);stroke-opacity:1;stroke-miterlimit:10;" d="M 0.15625 -10 L -9.300781 -3.621094 L -10 -3.121094 "/>
<path style="fill:none;stroke-width:10;stroke-linecap:round;stroke-linejoin:round;stroke:rgb(75.686275%,70.980392%,61.568627%);stroke-opacity:1;stroke-miterlimit:10;" d="M 135.460938 115.59375 L 134.0625 119.585938 "/>
<path style="fill:none;stroke-width:10;stroke-linecap:round;stroke-linejoin:round;stroke:rgb(75.686275%,70.980392%,61.568627%);stroke-opacity:1;stroke-miterlimit:10;" d="M 138.71875 106.238281 L 138.171875 107.859375 L 135.460938 115.59375 "/>
<path style="fill:none;stroke-width:10;stroke-linecap:round;stroke-linejoin:round;stroke:rgb(75.686275%,70.980392%,61.568627%);stroke-opacity:1;stroke-miterlimit:10;" d="M 129.304688 132.570313 L 134.0625 119.585938 "/>
<path style="fill:none;stroke-width:10;stroke-linecap:round;stroke-linejoin:round;stroke:rgb(75.686275%,70.980392%,61.568627%);stroke-opacity:1;stroke-miterlimit:10;" d="M 148.277344 73.679688 L 146.941406 78.765625 L 146.164063 81.730469 L 144.511719 87.660156 "/>
<path style="fill:none;stroke-width:10;stroke-linecap:round;stroke-linejoin:round;stroke:rgb(75.686275%,70.980392%,61.568627%);stroke-opacity:1;stroke-miterlimit:10;" d="M 144.511719 87.660156 L 142.59375 94.21875 L 140.527344 100.871094 L 138.71875 106.238281 "/>
<path style="fill:none;stroke-width:10;stroke-linecap:round;stroke-linejoin:round;stroke:rgb(75.686275%,70.980392%,61.568627%);stroke-opacity:1;stroke-miterlimit:10;" d="M 153.917969 51.132813 L 152.796875 55.632813 L 152.210938 57.976563 L 148.824219 71.59375 L 148.277344 73.679688 "/>
<path style="fill:none;stroke-width:10;stroke-linecap:round;stroke-linejoin:round;stroke:rgb(75.686275%,70.980392%,61.568627%);stroke-opacity:1;stroke-miterlimit:10;" d="M 169.5 -11 L 169.175781 -9.660156 L 168.101563 -5.253906 L 165.863281 3.964844 L 165.175781 6.671875 L 163.734375 12.351563 L 161.789063 20.050781 L 156.695313 40.117188 "/>
<path style="fill:none;stroke-width:10;stroke-linecap:round;stroke-linejoin:round;stroke:rgb(75.686275%,70.980392%,61.568627%);stroke-opacity:1;stroke-miterlimit:10;" d="M 129.304688 132.570313 L 123.039063 149.453125 L 107.105469 192.628906 L 92.753906 231.59375 L 90.414063 237.976563 L 88.207031 244.40625 L 86.238281 250.882813 L 84.582031 256.960938 L 82.867188 263.714844 L 82.386719 266 "/>
<path style="fill:none;stroke-width:11;stroke-linecap:round;stroke-linejoin:round;stroke:rgb(86.666667%,62.352941%,6.666667%);stroke-opacity:1;stroke-miterlimit:10;" d="M 179.105469 189.257813 L 211.28125 170.613281 L 216.757813 167.4375 L 221.019531 165.003906 L 225.050781 162.875 "/>
<path style="fill:none;stroke-width:11;stroke-linecap:round;stroke-linejoin:round;stroke:rgb(86.666667%,62.352941%,6.666667%);stroke-opacity:1;stroke-miterlimit:10;" d="M 225.050781 162.875 L 228.960938 160.953125 L 233.003906 159.128906 L 237.558594 157.144531 L 241.890625 155.273438 L 246.574219 153.375 L 251.222656 151.621094 L 255.710938 149.988281 L 260.410156 148.445313 L 265.8125 146.914063 L 267 146.609375 "/>
<path style="fill:none;stroke-width:11;stroke-linecap:round;stroke-linejoin:round;stroke:rgb(86.666667%,62.352941%,6.666667%);stroke-opacity:1;stroke-miterlimit:10;" d="M 267 140.453125 L 264.335938 141.136719 L 258.027344 143.078125 L 251.761719 145.117188 L 245.550781 147.40625 L 239.003906 150.144531 L 232.679688 153.082031 L 226.214844 156.253906 L 220.453125 159.324219 L 213.976563 163.09375 L 207.714844 167.164063 L 201.839844 171.128906 L 189.230469 180.007813 L 183.515625 183.808594 L 177.761719 187.195313 "/>
<path style="fill:none;stroke-width:6;stroke-linecap:round;stroke-linejoin:round;stroke:rgb(100%,100%,100%);stroke-opacity:1;stroke-miterlimit:10;" d="M 147.09375 6.621094 L 151.378906 9.289063 "/>
<path style="fill:none;stroke-width:6;stroke-linecap:round;stroke-linejoin:round;stroke:rgb(100%,100%,100%);stroke-opacity:1;stroke-miterlimit:10;" d="M 165.175781 6.671875 L 170.488281 7.679688 "/>
<path style="fill:none;stroke-width:6;stroke-linecap:round;stroke-linejoin:round;stroke:rgb(100%,100%,100%);stroke-opacity:1;stroke-miterlimit:10;" d="M 127.902344 81.871094 L 134.757813 84.003906 "/>
<path style="fill:none;stroke-width:6;stroke-linecap:round;stroke-linejoin:round;stroke:rgb(100%,100%,100%);stroke-opacity:1;stroke-miterlimit:10;" d="M 170.488281 7.679688 L 177.851563 9.398438 "/>
<path style="fill:none;stroke-width:6;stroke-linecap:round;stroke-linejoin:round;stroke:rgb(100%,100%,100%);stroke-opacity:1;stroke-miterlimit:10;" d="M 180.59375 23.742188 L 182.121094 15.960938 "/>
<path style="fill:none;stroke-width:6;stroke-linecap:round;stroke-linejoin:round;stroke:rgb(100%,100%,100%);stroke-opacity:1;stroke-miterlimit:10;" d="M 158.511719 63.503906 L 152.210938 57.976563 "/>
<path style="fill:none;stroke-width:6;stroke-linecap:round;stroke-linejoin:round;stroke:rgb(100%,100%,100%);stroke-opacity:1;stroke-miterlimit:10;" d="M 154.761719 74.996094 L 146.941406 78.765625 "/>
<path style="fill:none;stroke-width:6;stroke-linecap:round;stroke-linejoin:round;stroke:rgb(100%,100%,100%);stroke-opacity:1;stroke-miterlimit:10;" d="M 213.480469 175.0625 L 211.28125 170.613281 L 210.355469 169.265625 L 209.164063 168.128906 L 207.714844 167.164063 "/>
<path style="fill:none;stroke-width:6;stroke-linecap:round;stroke-linejoin:round;stroke:rgb(100%,100%,100%);stroke-opacity:1;stroke-miterlimit:10;" d="M 155.769531 2.238281 L 162.738281 3.398438 L 165.863281 3.964844 "/>
<path style="fill:none;stroke-width:6;stroke-linecap:round;stroke-linejoin:round;stroke:rgb(100%,100%,100%);stroke-opacity:1;stroke-miterlimit:10;" d="M 158.257813 81.742188 L 158.84375 83.96875 L 155.476563 92.203125 "/>
<path style="fill:none;stroke-width:6;stroke-linecap:round;stroke-linejoin:round;stroke:rgb(100%,100%,100%);stroke-opacity:1;stroke-miterlimit:10;" d="M 177.851563 9.398438 L 180.402344 -1.550781 "/>
<path style="fill:none;stroke-width:6;stroke-linecap:round;stroke-linejoin:round;stroke:rgb(100%,100%,100%);stroke-opacity:1;stroke-miterlimit:10;" d="M 173.042969 -3.265625 L 170.488281 7.679688 "/>
<path style="fill:none;stroke-width:6;stroke-linecap:round;stroke-linejoin:round;stroke:rgb(100%,100%,100%);stroke-opacity:1;stroke-miterlimit:10;" d="M 158.308594 -1.84375 L 155.769531 2.238281 L 151.378906 9.289063 "/>
<path style="fill:none;stroke-width:6;stroke-linecap:round;stroke-linejoin:round;stroke:rgb(100%,100%,100%);stroke-opacity:1;stroke-miterlimit:10;" d="M 154.023438 -4.511719 L 147.09375 6.621094 "/>
<path style="fill:none;stroke-width:6;stroke-linecap:round;stroke-linejoin:round;stroke:rgb(100%,100%,100%);stroke-opacity:1;stroke-miterlimit:10;" d="M 162.050781 77.210938 L 155.808594 65.414063 "/>
<path style="fill:none;stroke-width:6;stroke-linecap:round;stroke-linejoin:round;stroke:rgb(100%,100%,100%);stroke-opacity:1;stroke-miterlimit:10;" d="M 182.121094 15.960938 L 163.734375 12.351563 "/>
<path style="fill:none;stroke-width:6;stroke-linecap:round;stroke-linejoin:round;stroke:rgb(100%,100%,100%);stroke-opacity:1;stroke-miterlimit:10;" d="M 193.609375 116.621094 L 192.515625 115.027344 L 183.378906 108.378906 L 181.65625 106.445313 L 181.882813 103.152344 "/>
<path style="fill:none;stroke-width:6;stroke-linecap:round;stroke-linejoin:round;stroke:rgb(100%,100%,100%);stroke-opacity:1;stroke-miterlimit:10;" d="M 161.789063 20.050781 L 180.59375 23.742188 "/>
<path style="fill:none;stroke-width:6;stroke-linecap:round;stroke-linejoin:round;stroke:rgb(100%,100%,100%);stroke-opacity:1;stroke-miterlimit:10;" d="M 195.636719 118.023438 L 195.894531 120.488281 L 195.496094 122.425781 L 193.75 126.796875 L 192.1875 128.855469 L 190.835938 129.355469 L 188.714844 128.667969 L 188.484375 127.449219 L 188.808594 125.484375 L 193.191406 117.148438 L 194.097656 116.558594 L 195.636719 118.023438 "/>
<path style="fill:none;stroke-width:6;stroke-linecap:round;stroke-linejoin:round;stroke:rgb(100%,100%,100%);stroke-opacity:1;stroke-miterlimit:10;" d="M 158.984375 163.316406 L 155.957031 165.960938 L 153.15625 166.761719 L 149.957031 166.5625 L 141.957031 164.160156 L 134.359375 160.5625 L 129.691406 158.070313 "/>
<path style="fill:none;stroke-width:6;stroke-linecap:round;stroke-linejoin:round;stroke:rgb(100%,100%,100%);stroke-opacity:1;stroke-miterlimit:10;" d="M 264 160.363281 L 261.804688 161.003906 L 259.003906 161.003906 L 256.804688 160.203125 L 254.804688 157.800781 L 253.203125 155.003906 L 251.222656 151.621094 "/>
<path style="fill:none;stroke-width:6;stroke-linecap:round;stroke-linejoin:round;stroke:rgb(100%,100%,100%);stroke-opacity:1;stroke-miterlimit:10;" d="M 127.269531 82.734375 L 127.902344 81.871094 L 128.773438 80.535156 L 129.710938 78.808594 L 130.125 77.859375 L 130.46875 76.882813 L 130.703125 75.902344 L 130.738281 74.027344 L 129.972656 72.421875 L 124.269531 68.109375 L 122.746094 68.492188 L 121.9375 69.273438 L 116.363281 76.703125 L 116.136719 78.195313 L 116.738281 79.71875 L 117.800781 80.828125 L 124.332031 86.203125 L 127.269531 82.734375 "/>
<path style="fill:none;stroke-width:6;stroke-linecap:round;stroke-linejoin:round;stroke:rgb(100%,100%,100%);stroke-opacity:1;stroke-miterlimit:10;" d="M 155.808594 65.414063 L 154.359375 71.15625 L 154.203125 72.582031 L 154.761719 74.996094 L 158.257813 81.742188 L 162.050781 77.210938 L 168.097656 73.664063 L 168.410156 72.210938 L 160.851563 63.277344 L 158.511719 63.503906 L 155.808594 65.414063 "/>
<path style="fill:none;stroke-width:6;stroke-linecap:round;stroke-linejoin:round;stroke:rgb(100%,100%,100%);stroke-opacity:1;stroke-miterlimit:10;" d="M 211.804688 178.804688 L 212.601563 176.402344 L 213.480469 175.0625 L 217.402344 173.203125 L 222.804688 169.203125 L 229.804688 165.601563 L 237.402344 163.601563 L 246.203125 161.203125 L 254.804688 157.800781 "/>
<path style="fill:none;stroke-width:6;stroke-linecap:round;stroke-linejoin:round;stroke:rgb(100%,100%,100%);stroke-opacity:1;stroke-miterlimit:10;" d="M 241.890625 155.273438 L 243.804688 158.800781 L 246.203125 161.203125 L 253.203125 167.605469 L 255.003906 170.003906 L 255.601563 173.003906 L 254.003906 178.601563 L 249.402344 185.402344 L 245.273438 190.953125 L 237.203125 201.804688 L 235.203125 204.402344 L 233.402344 206.003906 L 223.804688 210.601563 "/>
<path style="fill:none;stroke-width:6;stroke-linecap:round;stroke-linejoin:round;stroke:rgb(100%,100%,100%);stroke-opacity:1;stroke-miterlimit:10;" d="M 156.140625 159.945313 L 158.984375 163.316406 L 161.035156 164.65625 L 167.882813 166.65625 L 169.164063 166.40625 L 185.105469 153.078125 L 198.851563 141.496094 L 198.992188 140.21875 L 198.246094 138.78125 L 184.265625 129.355469 L 182.585938 129.167969 L 156.792969 151.328125 L 155.136719 153.578125 L 154.554688 155.855469 L 154.71875 157.632813 L 156.140625 159.945313 "/>
<path style="fill:none;stroke-width:6;stroke-linecap:round;stroke-linejoin:round;stroke:rgb(100%,100%,100%);stroke-opacity:1;stroke-miterlimit:10;" d="M 122.007813 124.777344 L 118.5625 131.007813 L 117.1875 133.125 L 115.734375 134.847656 L 113.90625 136.425781 L 111.78125 137.554688 L 109.507813 138.308594 L 106.921875 138.882813 L 104.253906 139.007813 L 101.625 138.804688 L 95.269531 138.011719 L 90.457031 137.65625 L 85.371094 137.335938 L 80.050781 137.191406 L 74.921875 137.269531 L 70.484375 137.390625 L 66.234375 137.722656 L 62 138.355469 L 58.582031 139.164063 L 55.648438 140.125 L 52.683594 141.523438 L 48.207031 144.527344 L 46.109375 145.367188 L 44.273438 145.671875 L 42.855469 145.40625 L 41.765625 144.757813 L 41.183594 143.808594 L 41.144531 142.308594 L 49.660156 131.609375 L 51.144531 128.253906 L 58.714844 118.28125 "/>
<path style="fill:none;stroke-width:8;stroke-linecap:round;stroke-linejoin:round;stroke:rgb(100%,76.470588%,27.058824%);stroke-opacity:1;stroke-miterlimit:10;" d="M 177.761719 187.195313 L 172.464844 190.214844 L 167.214844 192.726563 L 162.113281 194.847656 L 157.429688 196.371094 L 152.5625 197.703125 L 147.007813 198.863281 L 141.980469 199.632813 L 136.660156 200.144531 L 131.636719 200.367188 L 126.683594 200.28125 L 121.972656 200.003906 L 117.105469 199.492188 L 112.652344 198.730469 "/>
<path style="fill:none;stroke-width:8;stroke-linecap:round;stroke-linejoin:round;stroke:rgb(100%,76.470588%,27.058824%);stroke-opacity:1;stroke-miterlimit:10;" d="M 112.164063 200.136719 L 116.929688 200.863281 L 121.859375 201.386719 L 126.628906 201.664063 L 131.65625 201.753906 L 136.753906 201.527344 L 142.148438 201.007813 L 147.253906 200.222656 L 152.886719 199.050781 L 157.816406 197.695313 L 162.761719 196.140625 L 167.515625 194.34375 L 173.214844 192.066406 L 179.105469 189.257813 "/>
<path style="fill:none;stroke-width:8;stroke-linecap:round;stroke-linejoin:round;stroke:rgb(100%,76.470588%,27.058824%);stroke-opacity:1;stroke-miterlimit:10;" d="M 177.761719 187.195313 L 172.265625 189.765625 L 166.871094 192.027344 L 163.875 193.140625 L 160.605469 194.167969 L 156.832031 194.921875 L 152.9375 195.289063 L 149.3125 195.34375 L 145.566406 195.003906 L 142.027344 194.296875 L 138.613281 193.144531 L 135.40625 191.820313 L 132.320313 190.203125 L 129.5625 188.421875 L 126.855469 186.316406 L 124.589844 184.195313 L 122.605469 181.773438 L 121.242188 179.238281 L 120.214844 176.195313 L 119.761719 173.75 L 119.464844 171.097656 L 119.582031 168.308594 L 120.132813 165.601563 L 129.304688 132.570313 "/>
<path style="fill:none;stroke-width:8;stroke-linecap:round;stroke-linejoin:round;stroke:rgb(100%,76.470588%,27.058824%);stroke-opacity:1;stroke-miterlimit:10;" d="M 96.828125 194.285156 L 91.339844 191.921875 L 86.914063 189.835938 L 83.269531 187.890625 L 80.476563 186.191406 L 77.875 184.257813 L 75.742188 182.054688 L 74.078125 179.816406 L 72.683594 177.050781 L 71.667969 174.066406 L 71.15625 171.34375 L 71.046875 168.414063 L 71.449219 165.398438 L 72.164063 162.65625 L 73.359375 159.875 L 74.863281 157.347656 L 76.785156 155.023438 L 79.082031 152.988281 L 81.582031 151.320313 L 84.566406 149.980469 L 87.363281 149.28125 L 90.5 148.902344 L 93.40625 149 L 96.222656 149.445313 L 98.996094 150.300781 L 101.757813 151.695313 L 104.464844 153.625 L 106.667969 155.8125 L 108.339844 158.304688 L 109.828125 161.183594 L 110.835938 164.132813 L 111.230469 167.191406 L 111.246094 169.964844 L 111.003906 173.003906 L 107.105469 192.628906 "/>
<path style="fill:none;stroke-width:8;stroke-linecap:round;stroke-linejoin:round;stroke:rgb(100%,76.470588%,27.058824%);stroke-opacity:1;stroke-miterlimit:10;" d="M 82.867188 263.714844 L 93.464844 237.011719 L 94.765625 234.558594 L 96.167969 232.40625 L 97.816406 230.578125 L 99.730469 228.933594 L 102.179688 227.355469 L 105.40625 225.660156 L 109.847656 223.421875 L 167.757813 195.484375 L 173.25 192.609375 L 179.105469 189.257813 "/>
<path style="fill:none;stroke-width:8;stroke-linecap:round;stroke-linejoin:round;stroke:rgb(100%,76.470588%,27.058824%);stroke-opacity:1;stroke-miterlimit:10;" d="M 134.0625 119.585938 L 124.367188 137.289063 L 122.800781 139.738281 L 121.132813 141.6875 L 119.132813 143.492188 L 116.664063 145.113281 L 114.382813 146.292969 L 111.421875 147.160156 L 107.792969 147.757813 L 104.328125 147.988281 L 100.332031 147.984375 L 96.847656 147.683594 L 93.519531 147.339844 L 90.429688 147.238281 L 87.0625 147.644531 L 84.019531 148.40625 L 80.777344 149.859375 L 78.066406 151.667969 L 75.589844 153.863281 L 73.5 156.386719 L 71.875 159.117188 L 70.589844 162.117188 L 69.8125 165.078125 L 69.382813 168.335938 L 69.5 171.527344 L 70.058594 174.484375 L 71.148438 177.695313 L 72.660156 180.695313 L 74.472656 183.136719 L 76.777344 185.511719 L 79.546875 187.570313 L 82.464844 189.34375 L 86.179688 191.207031 L 90.664063 193.3125 L 96.238281 195.617188 "/>
<path style="fill:none;stroke-width:6;stroke-linecap:round;stroke-linejoin:round;stroke:rgb(100%,100%,100%);stroke-opacity:1;stroke-miterlimit:10;" d="M 144.511719 87.660156 L 148.511719 89.316406 L 155.476563 92.203125 L 156.496094 92.625 "/>
<path style="fill:none;stroke-width:6;stroke-linecap:round;stroke-linejoin:round;stroke:rgb(100%,100%,100%);stroke-opacity:1;stroke-miterlimit:10;" d="M 167.953125 97.375 L 174.5 92.648438 L 186.195313 83.984375 "/>
<path style="fill:none;stroke-width:6;stroke-linecap:round;stroke-linejoin:round;stroke:rgb(100%,100%,100%);stroke-opacity:1;stroke-miterlimit:10;" d="M 224.730469 92.355469 L 228.648438 90.074219 L 232.136719 87.625 L 234.851563 83.710938 L 237.410156 80.273438 L 240.820313 77.238281 L 244.121094 75.132813 "/>
<path style="fill:none;stroke-width:6;stroke-linecap:round;stroke-linejoin:round;stroke:rgb(100%,100%,100%);stroke-opacity:1;stroke-miterlimit:10;" d="M 205.167969 239.410156 L 213.484375 236.382813 L 225.929688 232.636719 L 220.847656 217.5 "/>
<path style="fill:none;stroke-width:6;stroke-linecap:round;stroke-linejoin:round;stroke:rgb(100%,100%,100%);stroke-opacity:1;stroke-miterlimit:10;" d="M 110.558594 39.238281 L 107.441406 43.328125 L 106.203125 45.636719 L 103.78125 55.128906 L 101.566406 59.308594 L 99.144531 62.621094 L 97.628906 63.367188 L 96.441406 63.304688 L 90.453125 56.09375 "/>
<path style="fill:none;stroke-width:6;stroke-linecap:round;stroke-linejoin:round;stroke:rgb(100%,100%,100%);stroke-opacity:1;stroke-miterlimit:10;" d="M 107.203125 235.203125 L 114.003906 236.601563 L 121.203125 238.800781 L 128.003906 241.601563 L 132.300781 244.21875 L 136.355469 248.335938 L 140.761719 253.832031 "/>
<path style="fill:none;stroke-width:6;stroke-linecap:round;stroke-linejoin:round;stroke:rgb(100%,100%,100%);stroke-opacity:1;stroke-miterlimit:10;" d="M 134.757813 84.003906 L 133.917969 85.886719 L 133.238281 87.621094 L 132.800781 89.882813 L 132.734375 92.214844 L 132.957031 94.539063 L 132.996094 96.75 L 132.589844 99.570313 L 131.949219 102.476563 L 129.777344 109.824219 L 128.769531 112.382813 L 127.378906 115.191406 L 122.007813 124.777344 "/>
<path style="fill:none;stroke-width:6;stroke-linecap:round;stroke-linejoin:round;stroke:rgb(100%,100%,100%);stroke-opacity:1;stroke-miterlimit:10;" d="M 238.953125 102.636719 L 245.292969 101.851563 L 250.167969 98.84375 L 253.21875 96.445313 L 256.226563 95.226563 L 259.316406 93.804688 L 260.816406 91.570313 L 261.753906 89.046875 L 264 87.050781 "/>
<path style="fill:none;stroke-width:6;stroke-linecap:round;stroke-linejoin:round;stroke:rgb(100%,100%,100%);stroke-opacity:1;stroke-miterlimit:10;" d="M 91.421875 264 L 92.804688 256.800781 L 95.003906 248.601563 L 97.804688 240.601563 L 99.402344 238.003906 L 101.40625 236.003906 L 103.605469 235.203125 L 107.203125 235.203125 "/>
<path style="fill:none;stroke-width:6;stroke-linecap:round;stroke-linejoin:round;stroke:rgb(100%,100%,100%);stroke-opacity:1;stroke-miterlimit:10;" d="M 128.632813 161.15625 L 129.691406 158.070313 L 134.90625 142.84375 L 136.53125 138.378906 L 138.3125 133.902344 L 140.613281 128.539063 L 143.222656 122.988281 L 147.203125 114.613281 L 150.015625 108.355469 L 152.742188 101.984375 L 156.496094 92.625 "/>
<path style="fill:none;stroke-width:6;stroke-linecap:round;stroke-linejoin:round;stroke:rgb(100%,100%,100%);stroke-opacity:1;stroke-miterlimit:10;" d="M 140.761719 253.832031 L 144.582031 262.414063 L 144.96875 264 "/>
<path style="fill:none;stroke-width:6;stroke-linecap:round;stroke-linejoin:round;stroke:rgb(100%,100%,100%);stroke-opacity:1;stroke-miterlimit:10;" d="M 200.019531 264 L 203.488281 255.546875 L 205.445313 249.273438 L 205.867188 246.308594 L 205.867188 242.59375 L 205.167969 239.410156 L 203.769531 236.226563 L 202.394531 234.292969 L 198.503906 230.578125 L 194.449219 228.644531 L 191.488281 227.863281 L 189.34375 227.707031 L 183.960938 228.488281 L 182.003906 229.171875 L 180.09375 230.265625 L 177.878906 231.980469 L 171.285156 238.257813 L 163.644531 244.839844 L 161.964844 245.621094 L 148.871094 249.273438 L 146.261719 250.273438 L 140.761719 253.832031 "/>
<path style="fill:none;stroke-width:6;stroke-linecap:round;stroke-linejoin:round;stroke:rgb(100%,100%,100%);stroke-opacity:1;stroke-miterlimit:10;" d="M 65.738281 -4.484375 L 33.269531 32.777344 L 32.152344 32.996094 L 17.332031 20.886719 L 13.042969 16.828125 L 12.296875 15.859375 L 12.042969 13.738281 L 12.484375 11.925781 L 16.796875 6.683594 L 29.449219 -7.457031 L 30.75 -9 "/>
<path style="fill:none;stroke-width:6;stroke-linecap:round;stroke-linejoin:round;stroke:rgb(100%,100%,100%);stroke-opacity:1;stroke-miterlimit:10;" d="M 189.894531 81.414063 L 194.441406 78.558594 L 195.535156 77.921875 L 196.996094 77.628906 L 198.324219 77.683594 L 199.660156 78.117188 L 214.464844 86.375 L 224.730469 92.355469 L 229.726563 95.269531 L 238.953125 102.636719 L 241.355469 103.726563 L 244.035156 104.070313 L 247.132813 104.164063 L 255.546875 102.574219 L 262.324219 100.417969 L 264 99.746094 "/>
<path style="fill:none;stroke-width:6;stroke-linecap:round;stroke-linejoin:round;stroke:rgb(100%,100%,100%);stroke-opacity:1;stroke-miterlimit:10;" d="M 156.496094 92.625 L 167.953125 97.375 L 181.882813 103.152344 L 192.988281 107.753906 L 200.515625 110.753906 L 207.820313 113.542969 L 214.875 115.957031 L 221.5 117.882813 L 228.183594 119.648438 L 235.039063 121.179688 L 241.777344 122.476563 L 248.980469 123.585938 L 255.824219 124.390625 L 262.878906 124.996094 L 264 125.023438 "/>
<path style="fill:none;stroke-width:6;stroke-linecap:round;stroke-linejoin:round;stroke:rgb(100%,99.215686%,54.509804%);stroke-opacity:1;stroke-miterlimit:10;" d="M 134.757813 84.003906 L 136.347656 84.480469 L 137.558594 84.839844 L 144.511719 87.660156 "/>
<path style="fill:none;stroke-width:6;stroke-linecap:round;stroke-linejoin:round;stroke:rgb(100%,99.215686%,54.509804%);stroke-opacity:1;stroke-miterlimit:10;" d="M 60.65625 -9 L 65.738281 -4.484375 L 79.957031 8.054688 L 83.546875 11.492188 L 86.957031 15.183594 L 91.679688 20.84375 L 95.613281 25.144531 L 99.582031 29.167969 L 103.570313 32.953125 L 110.558594 39.238281 L 130.996094 57.875 L 132.632813 59.449219 L 134.246094 61.4375 L 135.605469 63.515625 L 136.769531 66.027344 L 137.453125 68.238281 L 137.691406 70.605469 L 137.644531 73.019531 L 137.273438 75.3125 L 136.265625 80.175781 L 136.144531 81.238281 L 134.757813 84.003906 "/>
<path style="fill:none;stroke-width:7;stroke-linecap:round;stroke-linejoin:round;stroke:rgb(100%,99.215686%,54.509804%);stroke-opacity:1;stroke-miterlimit:10;" d="M 0.15625 -10 L -9.300781 -3.621094 L -10 -3.121094 "/>
<path style="fill:none;stroke-width:8;stroke-linecap:round;stroke-linejoin:round;stroke:rgb(100%,99.215686%,54.509804%);stroke-opacity:1;stroke-miterlimit:10;" d="M 135.460938 115.59375 L 134.0625 119.585938 "/>
<path style="fill:none;stroke-width:8;stroke-linecap:round;stroke-linejoin:round;stroke:rgb(100%,99.215686%,54.509804%);stroke-opacity:1;stroke-miterlimit:10;" d="M 138.71875 106.238281 L 138.171875 107.859375 L 135.460938 115.59375 "/>
<path style="fill:none;stroke-width:8;stroke-linecap:round;stroke-linejoin:round;stroke:rgb(100%,99.215686%,54.509804%);stroke-opacity:1;stroke-miterlimit:10;" d="M 129.304688 132.570313 L 134.0625 119.585938 "/>
<path style="fill:none;stroke-width:8;stroke-linecap:round;stroke-linejoin:round;stroke:rgb(100%,99.215686%,54.509804%);stroke-opacity:1;stroke-miterlimit:10;" d="M 148.277344 73.679688 L 146.941406 78.765625 L 146.164063 81.730469 L 144.511719 87.660156 "/>
<path style="fill:none;stroke-width:8;stroke-linecap:round;stroke-linejoin:round;stroke:rgb(100%,99.215686%,54.509804%);stroke-opacity:1;stroke-miterlimit:10;" d="M 144.511719 87.660156 L 142.59375 94.21875 L 140.527344 100.871094 L 138.71875 106.238281 "/>
<path style="fill:none;stroke-width:8;stroke-linecap:round;stroke-linejoin:round;stroke:rgb(100%,99.215686%,54.509804%);stroke-opacity:1;stroke-miterlimit:10;" d="M 153.917969 51.132813 L 152.796875 55.632813 L 152.210938 57.976563 L 148.824219 71.59375 L 148.277344 73.679688 "/>
<path style="fill:none;stroke-width:8;stroke-linecap:round;stroke-linejoin:round;stroke:rgb(100%,99.215686%,54.509804%);stroke-opacity:1;stroke-miterlimit:10;" d="M 169.5 -11 L 169.175781 -9.660156 L 168.101563 -5.253906 L 165.863281 3.964844 L 165.175781 6.671875 L 163.734375 12.351563 L 161.789063 20.050781 L 156.695313 40.117188 "/>
<path style="fill:none;stroke-width:8;stroke-linecap:round;stroke-linejoin:round;stroke:rgb(100%,99.215686%,54.509804%);stroke-opacity:1;stroke-miterlimit:10;" d="M 129.304688 132.570313 L 123.039063 149.453125 L 107.105469 192.628906 L 92.753906 231.59375 L 90.414063 237.976563 L 88.207031 244.40625 L 86.238281 250.882813 L 84.582031 256.960938 L 82.867188 263.714844 L 82.386719 266 "/>
<path style="fill:none;stroke-width:9;stroke-linecap:round;stroke-linejoin:round;stroke:rgb(100%,76.470588%,27.058824%);stroke-opacity:1;stroke-miterlimit:10;" d="M 179.105469 189.257813 L 211.28125 170.613281 L 216.757813 167.4375 L 221.019531 165.003906 L 225.050781 162.875 "/>
<path style="fill:none;stroke-width:9;stroke-linecap:round;stroke-linejoin:round;stroke:rgb(100%,76.470588%,27.058824%);stroke-opacity:1;stroke-miterlimit:10;" d="M 225.050781 162.875 L 228.960938 160.953125 L 233.003906 159.128906 L 237.558594 157.144531 L 241.890625 155.273438 L 246.574219 153.375 L 251.222656 151.621094 L 255.710938 149.988281 L 260.410156 148.445313 L 265.8125 146.914063 L 267 146.609375 "/>
<path style="fill:none;stroke-width:9;stroke-linecap:round;stroke-linejoin:round;stroke:rgb(100%,76.470588%,27.058824%);stroke-opacity:1;stroke-miterlimit:10;" d="M 267 140.453125 L 264.335938 141.136719 L 258.027344 143.078125 L 251.761719 145.117188 L 245.550781 147.40625 L 239.003906 150.144531 L 232.679688 153.082031 L 226.214844 156.253906 L 220.453125 159.324219 L 213.976563 163.09375 L 207.714844 167.164063 L 201.839844 171.128906 L 189.230469 180.007813 L 183.515625 183.808594 L 177.761719 187.195313 "/>
<path style="fill:none;stroke-width:10;stroke-linecap:butt;stroke-linejoin:round;stroke:rgb(53.333333%,53.333333%,53.333333%);stroke-opacity:1;stroke-miterlimit:10;" d="M 112.652344 198.730469 L 107.347656 197.546875 L 102.078125 196.082031 L 96.828125 194.285156 "/>
<path style="fill:none;stroke-width:10;stroke-linecap:butt;stroke-linejoin:round;stroke:rgb(53.333333%,53.333333%,53.333333%);stroke-opacity:1;stroke-miterlimit:10;" d="M 96.238281 195.617188 L 101.628906 197.46875 L 106.84375 198.960938 L 112.164063 200.136719 "/>
<path style="fill:none;stroke-width:8;stroke-linecap:butt;stroke-linejoin:round;stroke:rgb(53.333333%,53.333333%,53.333333%);stroke-opacity:1;stroke-miterlimit:10;" d="M 186.195313 83.984375 L 189.894531 81.414063 "/>
<path style="fill:none;stroke-width:10;stroke-linecap:butt;stroke-linejoin:round;stroke:rgb(53.333333%,53.333333%,53.333333%);stroke-opacity:1;stroke-miterlimit:10;" d="M 156.695313 40.117188 L 153.917969 51.132813 "/>
<path style="fill:none;stroke-width:8;stroke-linecap:round;stroke-linejoin:round;stroke:rgb(100%,76.470588%,27.058824%);stroke-opacity:1;stroke-miterlimit:10;" d="M 112.652344 198.730469 L 107.347656 197.546875 L 102.078125 196.082031 L 96.828125 194.285156 "/>
<path style="fill:none;stroke-width:8;stroke-linecap:round;stroke-linejoin:round;stroke:rgb(100%,76.470588%,27.058824%);stroke-opacity:1;stroke-miterlimit:10;" d="M 96.238281 195.617188 L 101.628906 197.46875 L 106.84375 198.960938 L 112.164063 200.136719 "/>
<path style="fill:none;stroke-width:6;stroke-linecap:round;stroke-linejoin:round;stroke:rgb(100%,100%,100%);stroke-opacity:1;stroke-miterlimit:10;" d="M 186.195313 83.984375 L 189.894531 81.414063 "/>
<path style="fill:none;stroke-width:8;stroke-linecap:round;stroke-linejoin:round;stroke:rgb(100%,99.215686%,54.509804%);stroke-opacity:1;stroke-miterlimit:10;" d="M 156.695313 40.117188 L 153.917969 51.132813 "/>
</g>
</svg>

