<?xml version="1.0" encoding="UTF-8"?>
<svg xmlns="http://www.w3.org/2000/svg" xmlns:xlink="http://www.w3.org/1999/xlink" width="256pt" height="256pt" viewBox="0 0 256 256" version="1.1">
<g id="surface2">
<rect x="0" y="0" width="256" height="256" style="fill:rgb(60%,70.196078%,80%);fill-opacity:1;stroke:none;"/>
<path style=" stroke:none;fill-rule:evenodd;fill:rgb(94.901961%,93.72549%,91.372549%);fill-opacity:1;" d="M -4 190.332031 L -0.367188 193.5 L 8.140625 203.535156 L 16.394531 215.996094 L 18.359375 221.726563 L 23.058594 239.195313 L 22.988281 245.039063 L 24.089844 251.738281 L 23.535156 256.585938 L 23.777344 259 L -4 259 L -4 -4 Z M -4 190.332031 "/>
<path style=" stroke:none;fill-rule:evenodd;fill:rgb(94.901961%,93.72549%,91.372549%);fill-opacity:1;" d="M -4 259 L 259 259 L 259 -4 L 259 259 Z M -4 259 "/>
<path style="fill:none;stroke-width:8;stroke-linecap:round;stroke-linejoin:round;stroke:rgb(75.686275%,70.980392%,61.568627%);stroke-opacity:1;stroke-miterlimit:10;" d="M -9 250.007813 L -2.105469 250.917969 L -0.484375 253.105469 L 0.242188 255.214844 L 0.316406 257.617188 L -0.613281 264 "/>
<path style="fill:none;stroke-width:8;stroke-linecap:round;stroke-linejoin:round;stroke:rgb(75.686275%,70.980392%,61.568627%);stroke-opacity:1;stroke-miterlimit:10;" d="M -2.105469 250.917969 L -0.699219 249.882813 L 0.175781 248.132813 L 0.125 246.179688 L -0.339844 243.808594 L -5.128906 227.539063 L -6.003906 225.320313 L -7.289063 222.183594 L -9 218.847656 "/>
<path style="fill:none;stroke-width:8;stroke-linecap:round;stroke-linejoin:round;stroke:rgb(75.686275%,70.980392%,61.568627%);stroke-opacity:1;stroke-miterlimit:10;" d="M 3.660156 235.421875 L -0.199219 223.117188 L -4.308594 214.898438 L -6.648438 208.285156 L -9 200.308594 "/>
<path style="fill:none;stroke-width:8;stroke-linecap:round;stroke-linejoin:round;stroke:rgb(75.686275%,70.980392%,61.568627%);stroke-opacity:1;stroke-miterlimit:10;" d="M 5.414063 264 L 6.652344 252.007813 L 6.238281 246.496094 L 3.660156 235.421875 "/>
<path style="fill:none;stroke-width:8;stroke-linecap:round;stroke-linejoin:round;stroke:rgb(75.686275%,70.980392%,61.568627%);stroke-opacity:1;stroke-miterlimit:10;" d="M 20.625 264 L 20.472656 260.875 L 19.902344 249.613281 L 18.6875 241.640625 L 17.429688 235.605469 L 15.730469 228.859375 L 13.207031 221.082031 L 11.277344 216.832031 L 8.210938 210.9375 L 4.453125 205.429688 L 0.128906 199.613281 L -5.839844 193.15625 L -9 190.621094 "/>
<path style="fill:none;stroke-width:6;stroke-linecap:round;stroke-linejoin:round;stroke:rgb(100%,100%,100%);stroke-opacity:1;stroke-miterlimit:10;" d="M -9 250.007813 L -2.105469 250.917969 L -0.484375 253.105469 L 0.242188 255.214844 L 0.316406 257.617188 L -0.613281 264 "/>
<path style="fill:none;stroke-width:6;stroke-linecap:round;stroke-linejoin:round;stroke:rgb(100%,100%,100%);stroke-opacity:1;stroke-miterlimit:10;" d="M -2.105469 250.917969 L -0.699219 249.882813 L 0.175781 248.132813 L 0.125 246.179688 L -0.339844 243.808594 L -5.128906 227.539063 L -6.003906 225.320313 L -7.289063 222.183594 L -9 218.847656 "/>
<path style="fill:none;stroke-width:6;stroke-linecap:round;stroke-linejoin:round;stroke:rgb(100%,100%,100%);stroke-opacity:1;stroke-miterlimit:10;" d="M 3.660156 235.421875 L -0.199219 223.117188 L -4.308594 214.898438 L -6.648438 208.285156 L -9 200.308594 "/>
<path style="fill:none;stroke-width:6;stroke-linecap:round;stroke-linejoin:round;stroke:rgb(100%,100%,100%);stroke-opacity:1;stroke-miterlimit:10;" d="M 5.414063 264 L 6.652344 252.007813 L 6.238281 246.496094 L 3.660156 235.421875 "/>
<path style="fill:none;stroke-width:6;stroke-linecap:round;stroke-linejoin:round;stroke:rgb(100%,100%,100%);stroke-opacity:1;stroke-miterlimit:10;" d="M 20.625 264 L 20.472656 260.875 L 19.902344 249.613281 L 18.6875 241.640625 L 17.429688 235.605469 L 15.730469 228.859375 L 13.207031 221.082031 L 11.277344 216.832031 L 8.210938 210.9375 L 4.453125 205.429688 L 0.128906 199.613281 L -5.839844 193.15625 L -9 190.621094 "/>
</g>
</svg>

