<?xml version="1.0" encoding="UTF-8"?>
<svg xmlns="http://www.w3.org/2000/svg" xmlns:xlink="http://www.w3.org/1999/xlink" width="256pt" height="256pt" viewBox="0 0 256 256" version="1.1">
<g id="surface2">
<rect x="0" y="0" width="256" height="256" style="fill:rgb(94.901961%,93.72549%,91.372549%);fill-opacity:1;stroke:none;"/>
<path style="fill:none;stroke-width:8;stroke-linecap:round;stroke-linejoin:round;stroke:rgb(75.686275%,70.980392%,61.568627%);stroke-opacity:1;stroke-miterlimit:10;" d="M 208.855469 188.074219 L 209.253906 183.550781 L 210.648438 181.578125 L 214.914063 179.378906 L 225.84375 178.234375 L 229.828125 177.722656 L 235.417969 178.074219 L 237.261719 178.742188 L 238.636719 180.496094 "/>
<path style="fill:none;stroke-width:8;stroke-linecap:round;stroke-linejoin:round;stroke:rgb(75.686275%,70.980392%,61.568627%);stroke-opacity:1;stroke-miterlimit:10;" d="M 234.207031 226.304688 L 229.570313 222.226563 L 226.773438 217.863281 L 225.984375 215.789063 L 225.632813 212.636719 L 226.496094 206.871094 L 227.917969 201.519531 L 229.035156 195.148438 L 229.035156 192.503906 L 227.871094 181.960938 L 226.914063 179.601563 L 225.84375 178.234375 L 224.046875 164.46875 "/>
<path style="fill:none;stroke-width:8;stroke-linecap:round;stroke-linejoin:round;stroke:rgb(75.686275%,70.980392%,61.568627%);stroke-opacity:1;stroke-miterlimit:10;" d="M 213.84375 252.839844 L 213.304688 249.683594 L 216.683594 244.207031 L 222.160156 240.988281 L 225.75 237.613281 L 230.082031 232.226563 L 233.371094 227.132813 L 234.207031 226.304688 L 234.953125 225.570313 L 238.660156 224.742188 L 240.265625 224.871094 L 244.179688 226.304688 L 248.421875 227.929688 L 250.519531 228.40625 L 256.53125 227.703125 L 264 226.519531 "/>
<path style="fill:none;stroke-width:8;stroke-linecap:round;stroke-linejoin:round;stroke:rgb(75.686275%,70.980392%,61.568627%);stroke-opacity:1;stroke-miterlimit:10;" d="M 253.316406 190.625 L 264 190.792969 M 264 173.75 L 256.925781 175.046875 L 255.621094 176.066406 L 253.152344 178.902344 L 252.59375 181.132813 L 252.640625 185.78125 L 253.316406 190.625 L 255.484375 205.660156 L 256.695313 218.242188 L 256.53125 227.703125 "/>
<path style="fill:none;stroke-width:8;stroke-linecap:round;stroke-linejoin:round;stroke:rgb(75.686275%,70.980392%,61.568627%);stroke-opacity:1;stroke-miterlimit:10;" d="M 244.179688 226.304688 L 243.761719 217.988281 L 242.898438 207.921875 L 239.449219 184.191406 L 238.636719 180.496094 L 238.914063 174.125 L 237.492188 166.890625 L 233.042969 164.660156 L 224.046875 164.46875 L 214.144531 165.554688 L 208.761719 168.996094 L 205.734375 176.226563 L 205.917969 182.914063 L 208.855469 188.074219 L 213.097656 234.140625 L 214.449219 239.492188 L 216.683594 244.207031 "/>
<path style="fill:none;stroke-width:6;stroke-linecap:round;stroke-linejoin:round;stroke:rgb(100%,100%,100%);stroke-opacity:1;stroke-miterlimit:10;" d="M 208.855469 188.074219 L 209.253906 183.550781 L 210.648438 181.578125 L 214.914063 179.378906 L 225.84375 178.234375 L 229.828125 177.722656 L 235.417969 178.074219 L 237.261719 178.742188 L 238.636719 180.496094 "/>
<path style="fill:none;stroke-width:6;stroke-linecap:round;stroke-linejoin:round;stroke:rgb(100%,100%,100%);stroke-opacity:1;stroke-miterlimit:10;" d="M 234.207031 226.304688 L 229.570313 222.226563 L 226.773438 217.863281 L 225.984375 215.789063 L 225.632813 212.636719 L 226.496094 206.871094 L 227.917969 201.519531 L 229.035156 195.148438 L 229.035156 192.503906 L 227.871094 181.960938 L 226.914063 179.601563 L 225.84375 178.234375 L 224.046875 164.46875 "/>
<path style="fill:none;stroke-width:6;stroke-linecap:round;stroke-linejoin:round;stroke:rgb(100%,100%,100%);stroke-opacity:1;stroke-miterlimit:10;" d="M 213.84375 252.839844 L 213.304688 249.683594 L 216.683594 244.207031 L 222.160156 240.988281 L 225.75 237.613281 L 230.082031 232.226563 L 233.371094 227.132813 L 234.207031 226.304688 L 234.953125 225.570313 L 238.660156 224.742188 L 240.265625 224.871094 L 244.179688 226.304688 L 248.421875 227.929688 L 250.519531 228.40625 L 256.53125 227.703125 L 264 226.519531 "/>
<path style="fill:none;stroke-width:6;stroke-linecap:round;stroke-linejoin:round;stroke:rgb(100%,100%,100%);stroke-opacity:1;stroke-miterlimit:10;" d="M 253.316406 190.625 L 264 190.792969 M 264 173.75 L 256.925781 175.046875 L 255.621094 176.066406 L 253.152344 178.902344 L 252.59375 181.132813 L 252.640625 185.78125 L 253.316406 190.625 L 255.484375 205.660156 L 256.695313 218.242188 L 256.53125 227.703125 "/>
<path style="fill:none;stroke-width:6;stroke-linecap:round;stroke-linejoin:round;stroke:rgb(100%,100%,100%);stroke-opacity:1;stroke-miterlimit:10;" d="M 244.179688 226.304688 L 243.761719 217.988281 L 242.898438 207.921875 L 239.449219 184.191406 L 238.636719 180.496094 L 238.914063 174.125 L 237.492188 166.890625 L 233.042969 164.660156 L 224.046875 164.46875 L 214.144531 165.554688 L 208.761719 168.996094 L 205.734375 176.226563 L 205.917969 182.914063 L 208.855469 188.074219 L 213.097656 234.140625 L 214.449219 239.492188 L 216.683594 244.207031 "/>
</g>
</svg>

