<?xml version="1.0" encoding="UTF-8"?>
<svg xmlns="http://www.w3.org/2000/svg" xmlns:xlink="http://www.w3.org/1999/xlink" width="256pt" height="256pt" viewBox="0 0 256 256" version="1.1">
<g id="surface2">
<rect x="0" y="0" width="256" height="256" style="fill:rgb(94.901961%,93.72549%,91.372549%);fill-opacity:1;stroke:none;"/>
<path style=" stroke:none;fill-rule:evenodd;fill:rgb(60%,70.196078%,80%);fill-opacity:1;" d="M -4 -4 L 259 -4 L 259 259 L 259 -4 Z M -4 -4 "/>
<path style="fill:none;stroke-width:1;stroke-linecap:round;stroke-linejoin:round;stroke:rgb(70.196078%,77.647059%,83.137255%);stroke-opacity:1;stroke-miterlimit:10;" d="M -4 -4 L 259 -4 L 259 259 L 259 -4 L -4 -4 "/>
<path style="fill:none;stroke-width:1;stroke-linecap:round;stroke-linejoin:round;stroke:rgb(100%,100%,100%);stroke-opacity:1;stroke-dasharray:2,3;stroke-miterlimit:10;" d="M 257 34.40625 L 254.835938 35.660156 L 244.148438 38.664063 L 236.832031 43.539063 L 230.335938 47.914063 L 225.398438 52.164063 L 220.710938 56.160156 L 215.710938 58.351563 L 211.773438 63.851563 L 208.019531 66.601563 L 204.519531 66.851563 L 198.960938 64.851563 L 193.710938 63.289063 L 190.148438 61.539063 L 188.898438 54.851563 L 187.773438 52.164063 L 178.273438 50.476563 L 174.023438 52.039063 L 170.335938 57.160156 L 166.835938 63.976563 L 166.273438 70.039063 L 163.335938 73.289063 L 158.398438 75.914063 L 156.210938 76.914063 L 147.398438 80.789063 L 139.773438 84.160156 L 133.207031 84.476563 L 128.523438 82.101563 L 124.898438 76.914063 L 123.835938 71.597656 L 126.148438 64.476563 L 126.519531 58.976563 L 125.398438 51.601563 L 123.835938 43.972656 L 121.898438 35.160156 L 121.835938 28.851563 L 120.585938 25.414063 L 112.710938 21.597656 L 107.085938 19.289063 L 103.210938 15.414063 L 101.582031 7.164063 L 99.648438 0.472656 L 98.625 -2 "/>
</g>
</svg>

