<?xml version="1.0" encoding="UTF-8"?>
<svg xmlns="http://www.w3.org/2000/svg" xmlns:xlink="http://www.w3.org/1999/xlink" width="256pt" height="256pt" viewBox="0 0 256 256" version="1.1">
<g id="surface2">
<rect x="0" y="0" width="256" height="256" style="fill:rgb(60%,70.196078%,80%);fill-opacity:1;stroke:none;"/>
<path style=" stroke:none;fill-rule:evenodd;fill:rgb(60%,70.196078%,80%);fill-opacity:1;" d="M -4 40.390625 L 259 40.25 L 259 -4 L 25.289063 -4 L -4 25.792969 Z M -4 40.390625 "/>
<path style="fill:none;stroke-width:1;stroke-linecap:round;stroke-linejoin:round;stroke:rgb(70.196078%,77.647059%,83.137255%);stroke-opacity:1;stroke-miterlimit:10;" d="M -4 40.390625 L 259 40.25 L 259 -4 L 25.289063 -4 L -4 25.792969 L -4 40.390625 "/>
<path style=" stroke:none;fill-rule:evenodd;fill:rgb(60%,70.196078%,80%);fill-opacity:1;" d="M -4 25.792969 L 25.289063 -4 L 259 -4 L -4 -4 Z M -4 25.792969 "/>
<path style="fill:none;stroke-width:1;stroke-linecap:round;stroke-linejoin:round;stroke:rgb(70.196078%,77.647059%,83.137255%);stroke-opacity:1;stroke-miterlimit:10;" d="M -4 25.792969 L 25.289063 -4 L 259 -4 L -4 -4 L -4 25.792969 "/>
<path style="fill:none;stroke-width:6;stroke-linecap:round;stroke-linejoin:round;stroke:rgb(60%,70.196078%,80%);stroke-opacity:1;stroke-miterlimit:10;" d="M 234.667969 -7 L 104.214844 262 "/>
<path style="fill:none;stroke-width:3;stroke-linecap:round;stroke-linejoin:round;stroke:rgb(100%,100%,100%);stroke-opacity:1;stroke-miterlimit:10;" d="M 148.675781 159.671875 L 149.175781 158.65625 L 152.675781 160.359375 L 154.519531 156.578125 L 151.019531 154.875 L 151.519531 153.828125 L 160.050781 157.96875 L 159.550781 159.015625 L 155.488281 157.046875 L 153.644531 160.828125 L 157.707031 162.796875 L 157.207031 163.8125 Z M 158.453125 154.804688 L 154.59375 152.929688 L 155.046875 151.992188 L 158.875 153.867188 C 159.480469 154.160156 159.984375 154.273438 160.390625 154.210938 C 160.796875 154.148438 161.097656 153.90625 161.296875 153.476563 C 161.546875 152.96875 161.5625 152.476563 161.34375 152.007813 C 161.132813 151.53125 160.71875 151.140625 160.09375 150.835938 L 156.46875 149.070313 L 156.9375 148.117188 L 163.328125 151.226563 L 162.859375 152.179688 L 161.875 151.695313 C 162.15625 152.125 162.316406 152.535156 162.359375 152.929688 C 162.398438 153.316406 162.320313 153.710938 162.125 154.117188 C 161.8125 154.773438 161.34375 155.160156 160.71875 155.273438 C 160.09375 155.390625 159.339844 155.234375 158.453125 154.804688 Z M 155.59375 150.492188 Z M 160.675781 142.859375 L 157.207031 141.171875 L 157.675781 140.234375 L 166.566406 144.546875 L 166.097656 145.484375 L 165.144531 145.015625 C 165.425781 145.402344 165.585938 145.792969 165.628906 146.1875 C 165.667969 146.574219 165.585938 146.980469 165.378906 147.40625 C 165.035156 148.105469 164.449219 148.527344 163.628906 148.671875 C 162.796875 148.808594 161.878906 148.632813 160.878906 148.140625 C 159.871094 147.652344 159.160156 147.042969 158.753906 146.3125 C 158.347656 145.574219 158.316406 144.855469 158.660156 144.15625 C 158.871094 143.730469 159.140625 143.414063 159.472656 143.203125 C 159.796875 142.984375 160.199219 142.871094 160.675781 142.859375 Z M 161.347656 147.15625 C 162.121094 147.53125 162.796875 147.683594 163.378906 147.609375 C 163.949219 147.539063 164.355469 147.257813 164.597656 146.765625 C 164.847656 146.257813 164.820313 145.75 164.519531 145.25 C 164.214844 144.75 163.683594 144.3125 162.910156 143.9375 C 162.128906 143.5625 161.453125 143.414063 160.878906 143.484375 C 160.308594 143.558594 159.894531 143.851563 159.644531 144.359375 C 159.40625 144.851563 159.4375 145.34375 159.738281 145.84375 C 160.03125 146.34375 160.566406 146.78125 161.347656 147.15625 Z M 163.070313 135.902344 L 164.070313 136.386719 C 163.789063 136.585938 163.546875 136.808594 163.335938 137.058594 C 163.117188 137.308594 162.929688 137.589844 162.773438 137.902344 C 162.546875 138.371094 162.457031 138.769531 162.507813 139.089844 C 162.550781 139.402344 162.734375 139.636719 163.054688 139.792969 C 163.296875 139.910156 163.523438 139.914063 163.742188 139.808594 C 163.960938 139.707031 164.265625 139.429688 164.648438 138.980469 L 164.867188 138.714844 C 165.359375 138.113281 165.816406 137.742188 166.242188 137.605469 C 166.671875 137.460938 167.140625 137.511719 167.664063 137.761719 C 168.257813 138.054688 168.625 138.496094 168.773438 139.089844 C 168.917969 139.675781 168.808594 140.335938 168.445313 141.074219 C 168.296875 141.378906 168.109375 141.683594 167.882813 141.996094 C 167.652344 142.300781 167.382813 142.601563 167.070313 142.902344 L 165.976563 142.371094 C 166.351563 142.132813 166.671875 141.867188 166.929688 141.574219 C 167.1875 141.285156 167.402344 140.972656 167.570313 140.636719 C 167.789063 140.191406 167.871094 139.804688 167.820313 139.480469 C 167.765625 139.160156 167.585938 138.925781 167.273438 138.777344 C 166.992188 138.644531 166.734375 138.628906 166.492188 138.730469 C 166.253906 138.824219 165.925781 139.132813 165.507813 139.652344 L 165.257813 139.917969 C 164.832031 140.441406 164.414063 140.761719 164.007813 140.886719 C 163.601563 141.011719 163.148438 140.957031 162.648438 140.714844 C 162.054688 140.425781 161.691406 140.007813 161.554688 139.464844 C 161.410156 138.925781 161.507813 138.300781 161.851563 137.589844 C 162.019531 137.246094 162.207031 136.933594 162.414063 136.652344 C 162.625 136.363281 162.84375 136.113281 163.070313 135.902344 Z M 165.570313 132.136719 C 165.320313 132.648438 165.347656 133.160156 165.648438 133.667969 C 165.953125 134.167969 166.488281 134.605469 167.257813 134.980469 C 168.03125 135.355469 168.703125 135.503906 169.273438 135.417969 C 169.84375 135.335938 170.257813 135.039063 170.507813 134.527344 C 170.746094 134.019531 170.71875 133.511719 170.429688 133.011719 C 170.136719 132.503906 169.613281 132.066406 168.851563 131.699219 C 168.09375 131.335938 167.414063 131.191406 166.820313 131.261719 C 166.226563 131.335938 165.8125 131.628906 165.570313 132.136719 Z M 164.695313 131.714844 C 165.09375 130.894531 165.703125 130.394531 166.523438 130.214844 C 167.347656 130.027344 168.285156 130.191406 169.335938 130.699219 C 170.386719 131.210938 171.09375 131.847656 171.460938 132.605469 C 171.824219 133.355469 171.808594 134.144531 171.414063 134.964844 C 171.015625 135.789063 170.40625 136.292969 169.585938 136.480469 C 168.765625 136.660156 167.828125 136.492188 166.773438 135.980469 C 165.722656 135.472656 165.015625 134.839844 164.648438 134.089844 C 164.285156 133.332031 164.300781 132.539063 164.695313 131.714844 Z M 171.742188 124.011719 L 175.601563 125.886719 L 175.148438 126.824219 L 171.320313 124.964844 C 170.71875 124.675781 170.210938 124.566406 169.804688 124.636719 C 169.398438 124.710938 169.09375 124.957031 168.882813 125.371094 C 168.644531 125.882813 168.632813 126.378906 168.851563 126.855469 C 169.0625 127.324219 169.484375 127.710938 170.117188 128.011719 L 173.726563 129.761719 L 173.273438 130.714844 L 166.882813 127.605469 L 167.335938 126.652344 L 168.320313 127.136719 C 168.0625 126.730469 167.910156 126.332031 167.867188 125.933594 C 167.816406 125.539063 167.890625 125.136719 168.085938 124.730469 C 168.398438 124.074219 168.867188 123.683594 169.492188 123.558594 C 170.109375 123.433594 170.859375 123.585938 171.742188 124.011719 Z M 175.929688 115.03125 C 176.128906 114.855469 176.414063 114.726563 176.789063 114.640625 C 177.164063 114.558594 177.644531 114.527344 178.226563 114.546875 L 181.070313 114.625 L 180.523438 115.75 L 177.851563 115.671875 C 177.164063 115.632813 176.675781 115.6875 176.382813 115.84375 C 176.082031 115.992188 175.828125 116.273438 175.617188 116.6875 L 175.070313 117.828125 L 178.664063 119.578125 L 178.164063 120.59375 L 169.632813 116.453125 L 170.773438 114.125 C 171.203125 113.242188 171.722656 112.683594 172.335938 112.453125 C 172.953125 112.226563 173.671875 112.3125 174.492188 112.71875 C 175.035156 112.96875 175.429688 113.296875 175.679688 113.703125 C 175.921875 114.101563 176.003906 114.542969 175.929688 115.03125 Z M 171.085938 115.90625 L 174.101563 117.375 L 174.742188 116.0625 C 174.984375 115.554688 175.039063 115.109375 174.914063 114.734375 C 174.78125 114.359375 174.460938 114.054688 173.960938 113.8125 C 173.472656 113.5625 173.039063 113.507813 172.664063 113.640625 C 172.28125 113.765625 171.96875 114.085938 171.726563 114.59375 Z M 175.304688 110.222656 L 175.757813 109.285156 L 182.148438 112.394531 L 181.695313 113.332031 Z M 172.804688 109.019531 L 173.257813 108.082031 L 174.601563 108.738281 L 174.148438 109.675781 Z M 176.394531 107.984375 L 176.878906 106.984375 L 183.097656 107.796875 L 178.613281 103.390625 L 179.113281 102.375 L 184.457031 107.65625 L 183.832031 108.9375 Z M 185.070313 97.585938 L 185.570313 97.820313 L 183.445313 102.179688 C 184.207031 102.492188 184.859375 102.566406 185.398438 102.398438 C 185.9375 102.222656 186.367188 101.820313 186.679688 101.195313 C 186.855469 100.832031 186.976563 100.457031 187.039063 100.070313 C 187.101563 99.6875 187.117188 99.28125 187.085938 98.851563 L 188.085938 99.335938 C 188.085938 99.742188 188.039063 100.144531 187.945313 100.539063 C 187.859375 100.9375 187.730469 101.316406 187.554688 101.679688 C 187.105469 102.609375 186.453125 103.195313 185.601563 103.445313 C 184.75 103.695313 183.8125 103.578125 182.789063 103.085938 C 181.75 102.578125 181.046875 101.921875 180.679688 101.117188 C 180.304688 100.304688 180.332031 99.46875 180.757813 98.601563 C 181.132813 97.832031 181.707031 97.351563 182.476563 97.164063 C 183.25 96.976563 184.113281 97.117188 185.070313 97.585938 Z M 184.289063 98.382813 C 183.71875 98.101563 183.191406 98.019531 182.710938 98.132813 C 182.222656 98.25 181.863281 98.539063 181.632813 99.007813 C 181.375 99.550781 181.335938 100.0625 181.523438 100.539063 C 181.703125 101.007813 182.082031 101.410156 182.664063 101.742188 Z M 185.480469 91.746094 C 185.367188 91.820313 185.261719 91.914063 185.167969 92.027344 C 185.074219 92.132813 184.992188 92.257813 184.917969 92.402344 C 184.660156 92.945313 184.652344 93.457031 184.902344 93.933594 C 185.144531 94.402344 185.621094 94.808594 186.339844 95.152344 L 189.714844 96.792969 L 189.261719 97.746094 L 182.871094 94.636719 L 183.324219 93.683594 L 184.308594 94.167969 C 184.027344 93.785156 183.871094 93.386719 183.839844 92.980469 C 183.800781 92.574219 183.886719 92.144531 184.105469 91.683594 C 184.136719 91.621094 184.179688 91.554688 184.230469 91.480469 C 184.285156 91.410156 184.335938 91.320313 184.386719 91.214844 Z M 185.480469 91.746094 "/>
<path style=" stroke:none;fill-rule:evenodd;fill:rgb(41.960784%,58.039216%,69.019608%);fill-opacity:1;" d="M 148.675781 159.671875 L 149.175781 158.65625 L 152.675781 160.359375 L 154.519531 156.578125 L 151.019531 154.875 L 151.519531 153.828125 L 160.050781 157.96875 L 159.550781 159.015625 L 155.488281 157.046875 L 153.644531 160.828125 L 157.707031 162.796875 L 157.207031 163.8125 Z M 158.453125 154.804688 L 154.59375 152.929688 L 155.046875 151.992188 L 158.875 153.867188 C 159.480469 154.160156 159.984375 154.273438 160.390625 154.210938 C 160.796875 154.148438 161.097656 153.90625 161.296875 153.476563 C 161.546875 152.96875 161.5625 152.476563 161.34375 152.007813 C 161.132813 151.53125 160.71875 151.140625 160.09375 150.835938 L 156.46875 149.070313 L 156.9375 148.117188 L 163.328125 151.226563 L 162.859375 152.179688 L 161.875 151.695313 C 162.15625 152.125 162.316406 152.535156 162.359375 152.929688 C 162.398438 153.316406 162.320313 153.710938 162.125 154.117188 C 161.8125 154.773438 161.34375 155.160156 160.71875 155.273438 C 160.09375 155.390625 159.339844 155.234375 158.453125 154.804688 Z M 155.59375 150.492188 Z M 160.675781 142.859375 L 157.207031 141.171875 L 157.675781 140.234375 L 166.566406 144.546875 L 166.097656 145.484375 L 165.144531 145.015625 C 165.425781 145.402344 165.585938 145.792969 165.628906 146.1875 C 165.667969 146.574219 165.585938 146.980469 165.378906 147.40625 C 165.035156 148.105469 164.449219 148.527344 163.628906 148.671875 C 162.796875 148.808594 161.878906 148.632813 160.878906 148.140625 C 159.871094 147.652344 159.160156 147.042969 158.753906 146.3125 C 158.347656 145.574219 158.316406 144.855469 158.660156 144.15625 C 158.871094 143.730469 159.140625 143.414063 159.472656 143.203125 C 159.796875 142.984375 160.199219 142.871094 160.675781 142.859375 Z M 161.347656 147.15625 C 162.121094 147.53125 162.796875 147.683594 163.378906 147.609375 C 163.949219 147.539063 164.355469 147.257813 164.597656 146.765625 C 164.847656 146.257813 164.820313 145.75 164.519531 145.25 C 164.214844 144.75 163.683594 144.3125 162.910156 143.9375 C 162.128906 143.5625 161.453125 143.414063 160.878906 143.484375 C 160.308594 143.558594 159.894531 143.851563 159.644531 144.359375 C 159.40625 144.851563 159.4375 145.34375 159.738281 145.84375 C 160.03125 146.34375 160.566406 146.78125 161.347656 147.15625 Z M 163.070313 135.902344 L 164.070313 136.386719 C 163.789063 136.585938 163.546875 136.808594 163.335938 137.058594 C 163.117188 137.308594 162.929688 137.589844 162.773438 137.902344 C 162.546875 138.371094 162.457031 138.769531 162.507813 139.089844 C 162.550781 139.402344 162.734375 139.636719 163.054688 139.792969 C 163.296875 139.910156 163.523438 139.914063 163.742188 139.808594 C 163.960938 139.707031 164.265625 139.429688 164.648438 138.980469 L 164.867188 138.714844 C 165.359375 138.113281 165.816406 137.742188 166.242188 137.605469 C 166.671875 137.460938 167.140625 137.511719 167.664063 137.761719 C 168.257813 138.054688 168.625 138.496094 168.773438 139.089844 C 168.917969 139.675781 168.808594 140.335938 168.445313 141.074219 C 168.296875 141.378906 168.109375 141.683594 167.882813 141.996094 C 167.652344 142.300781 167.382813 142.601563 167.070313 142.902344 L 165.976563 142.371094 C 166.351563 142.132813 166.671875 141.867188 166.929688 141.574219 C 167.1875 141.285156 167.402344 140.972656 167.570313 140.636719 C 167.789063 140.191406 167.871094 139.804688 167.820313 139.480469 C 167.765625 139.160156 167.585938 138.925781 167.273438 138.777344 C 166.992188 138.644531 166.734375 138.628906 166.492188 138.730469 C 166.253906 138.824219 165.925781 139.132813 165.507813 139.652344 L 165.257813 139.917969 C 164.832031 140.441406 164.414063 140.761719 164.007813 140.886719 C 163.601563 141.011719 163.148438 140.957031 162.648438 140.714844 C 162.054688 140.425781 161.691406 140.007813 161.554688 139.464844 C 161.410156 138.925781 161.507813 138.300781 161.851563 137.589844 C 162.019531 137.246094 162.207031 136.933594 162.414063 136.652344 C 162.625 136.363281 162.84375 136.113281 163.070313 135.902344 Z M 165.570313 132.136719 C 165.320313 132.648438 165.347656 133.160156 165.648438 133.667969 C 165.953125 134.167969 166.488281 134.605469 167.257813 134.980469 C 168.03125 135.355469 168.703125 135.503906 169.273438 135.417969 C 169.84375 135.335938 170.257813 135.039063 170.507813 134.527344 C 170.746094 134.019531 170.71875 133.511719 170.429688 133.011719 C 170.136719 132.503906 169.613281 132.066406 168.851563 131.699219 C 168.09375 131.335938 167.414063 131.191406 166.820313 131.261719 C 166.226563 131.335938 165.8125 131.628906 165.570313 132.136719 Z M 164.695313 131.714844 C 165.09375 130.894531 165.703125 130.394531 166.523438 130.214844 C 167.347656 130.027344 168.285156 130.191406 169.335938 130.699219 C 170.386719 131.210938 171.09375 131.847656 171.460938 132.605469 C 171.824219 133.355469 171.808594 134.144531 171.414063 134.964844 C 171.015625 135.789063 170.40625 136.292969 169.585938 136.480469 C 168.765625 136.660156 167.828125 136.492188 166.773438 135.980469 C 165.722656 135.472656 165.015625 134.839844 164.648438 134.089844 C 164.285156 133.332031 164.300781 132.539063 164.695313 131.714844 Z M 171.742188 124.011719 L 175.601563 125.886719 L 175.148438 126.824219 L 171.320313 124.964844 C 170.71875 124.675781 170.210938 124.566406 169.804688 124.636719 C 169.398438 124.710938 169.09375 124.957031 168.882813 125.371094 C 168.644531 125.882813 168.632813 126.378906 168.851563 126.855469 C 169.0625 127.324219 169.484375 127.710938 170.117188 128.011719 L 173.726563 129.761719 L 173.273438 130.714844 L 166.882813 127.605469 L 167.335938 126.652344 L 168.320313 127.136719 C 168.0625 126.730469 167.910156 126.332031 167.867188 125.933594 C 167.816406 125.539063 167.890625 125.136719 168.085938 124.730469 C 168.398438 124.074219 168.867188 123.683594 169.492188 123.558594 C 170.109375 123.433594 170.859375 123.585938 171.742188 124.011719 Z M 175.929688 115.03125 C 176.128906 114.855469 176.414063 114.726563 176.789063 114.640625 C 177.164063 114.558594 177.644531 114.527344 178.226563 114.546875 L 181.070313 114.625 L 180.523438 115.75 L 177.851563 115.671875 C 177.164063 115.632813 176.675781 115.6875 176.382813 115.84375 C 176.082031 115.992188 175.828125 116.273438 175.617188 116.6875 L 175.070313 117.828125 L 178.664063 119.578125 L 178.164063 120.59375 L 169.632813 116.453125 L 170.773438 114.125 C 171.203125 113.242188 171.722656 112.683594 172.335938 112.453125 C 172.953125 112.226563 173.671875 112.3125 174.492188 112.71875 C 175.035156 112.96875 175.429688 113.296875 175.679688 113.703125 C 175.921875 114.101563 176.003906 114.542969 175.929688 115.03125 Z M 171.085938 115.90625 L 174.101563 117.375 L 174.742188 116.0625 C 174.984375 115.554688 175.039063 115.109375 174.914063 114.734375 C 174.78125 114.359375 174.460938 114.054688 173.960938 113.8125 C 173.472656 113.5625 173.039063 113.507813 172.664063 113.640625 C 172.28125 113.765625 171.96875 114.085938 171.726563 114.59375 Z M 175.304688 110.222656 L 175.757813 109.285156 L 182.148438 112.394531 L 181.695313 113.332031 Z M 172.804688 109.019531 L 173.257813 108.082031 L 174.601563 108.738281 L 174.148438 109.675781 Z M 176.394531 107.984375 L 176.878906 106.984375 L 183.097656 107.796875 L 178.613281 103.390625 L 179.113281 102.375 L 184.457031 107.65625 L 183.832031 108.9375 Z M 185.070313 97.585938 L 185.570313 97.820313 L 183.445313 102.179688 C 184.207031 102.492188 184.859375 102.566406 185.398438 102.398438 C 185.9375 102.222656 186.367188 101.820313 186.679688 101.195313 C 186.855469 100.832031 186.976563 100.457031 187.039063 100.070313 C 187.101563 99.6875 187.117188 99.28125 187.085938 98.851563 L 188.085938 99.335938 C 188.085938 99.742188 188.039063 100.144531 187.945313 100.539063 C 187.859375 100.9375 187.730469 101.316406 187.554688 101.679688 C 187.105469 102.609375 186.453125 103.195313 185.601563 103.445313 C 184.75 103.695313 183.8125 103.578125 182.789063 103.085938 C 181.75 102.578125 181.046875 101.921875 180.679688 101.117188 C 180.304688 100.304688 180.332031 99.46875 180.757813 98.601563 C 181.132813 97.832031 181.707031 97.351563 182.476563 97.164063 C 183.25 96.976563 184.113281 97.117188 185.070313 97.585938 Z M 184.289063 98.382813 C 183.71875 98.101563 183.191406 98.019531 182.710938 98.132813 C 182.222656 98.25 181.863281 98.539063 181.632813 99.007813 C 181.375 99.550781 181.335938 100.0625 181.523438 100.539063 C 181.703125 101.007813 182.082031 101.410156 182.664063 101.742188 Z M 185.480469 91.746094 C 185.367188 91.820313 185.261719 91.914063 185.167969 92.027344 C 185.074219 92.132813 184.992188 92.257813 184.917969 92.402344 C 184.660156 92.945313 184.652344 93.457031 184.902344 93.933594 C 185.144531 94.402344 185.621094 94.808594 186.339844 95.152344 L 189.714844 96.792969 L 189.261719 97.746094 L 182.871094 94.636719 L 183.324219 93.683594 L 184.308594 94.167969 C 184.027344 93.785156 183.871094 93.386719 183.839844 92.980469 C 183.800781 92.574219 183.886719 92.144531 184.105469 91.683594 C 184.136719 91.621094 184.179688 91.554688 184.230469 91.480469 C 184.285156 91.410156 184.335938 91.320313 184.386719 91.214844 Z M 185.480469 91.746094 "/>
</g>
</svg>

