<?xml version="1.0" encoding="UTF-8"?>
<svg xmlns="http://www.w3.org/2000/svg" xmlns:xlink="http://www.w3.org/1999/xlink" width="256pt" height="256pt" viewBox="0 0 256 256" version="1.1">
<g id="surface2">
<rect x="0" y="0" width="256" height="256" style="fill:rgb(94.901961%,93.72549%,91.372549%);fill-opacity:1;stroke:none;"/>
<path style=" stroke:none;fill-rule:evenodd;fill:rgb(60%,70.196078%,80%);fill-opacity:1;" d="M -4 259 L -4 -4 L 259 -4 L -4 -4 L -4 259 L -4 -4 Z M -8233201.910156 5338378.773438 Z M -8233201.910156 5337122.339844 Z M -8233201.910156 5338378.773438 Z M -8233201.910156 5338378.773438 "/>
<path style="fill:none;stroke-width:1;stroke-linecap:round;stroke-linejoin:round;stroke:rgb(70.196078%,77.647059%,83.137255%);stroke-opacity:1;stroke-miterlimit:10;" d="M -4 259 L -4 -4 L 259 -4 L -4 -4 L -4 259 L -4 -4 L -4 259 "/>
<path style="fill:none;stroke-width:1;stroke-linecap:round;stroke-linejoin:round;stroke:rgb(100%,100%,100%);stroke-opacity:1;stroke-dasharray:2,3;stroke-miterlimit:10;" d="M 46.667969 257 L 49.457031 249.355469 L 48.734375 237.726563 L 45.078125 223.222656 L 44.378906 176.707031 L 54.539063 114.246094 L 58.195313 91.59375 L 66.1875 56.511719 L 71.292969 46.289063 L 101.117188 14.878906 L 112.546875 -2 "/>
</g>
</svg>

