<?xml version="1.0" encoding="UTF-8"?>
<svg xmlns="http://www.w3.org/2000/svg" xmlns:xlink="http://www.w3.org/1999/xlink" width="256pt" height="256pt" viewBox="0 0 256 256" version="1.1">
<g id="surface2">
<rect x="0" y="0" width="256" height="256" style="fill:rgb(60%,70.196078%,80%);fill-opacity:1;stroke:none;"/>
<path style=" stroke:none;fill-rule:evenodd;fill:rgb(94.901961%,93.72549%,91.372549%);fill-opacity:1;" d="M -4 259 L 173.804688 259 L 126.050781 219.585938 L 129.117188 215.078125 L 185.90625 259 L 218.957031 259 L 220.773438 256.71875 L 156.246094 202.382813 L 168.433594 188.535156 L 233.011719 238.160156 L 243.25 226.496094 L 190.8125 178.609375 L 190.449219 171.386719 L 259 220.472656 L 259 213.929688 L 250.675781 206.640625 L 256.824219 198.742188 L 259 198.515625 L 259 189.027344 L 195.859375 138.730469 L 240.457031 98.730469 L 259 113.875 L 259 -4 L 259 259 Z M -4 259 "/>
<path style="fill:none;stroke-width:6;stroke-linecap:round;stroke-linejoin:round;stroke:rgb(60%,70.196078%,80%);stroke-opacity:1;stroke-miterlimit:10;" d="M -7 142.214844 L 23.28125 106.085938 L 96.980469 30.011719 "/>
<path style="fill:none;stroke-width:1;stroke-linecap:butt;stroke-linejoin:round;stroke:rgb(46.666667%,46.666667%,46.666667%);stroke-opacity:1;stroke-dasharray:2,2;stroke-miterlimit:10;" d="M 257 249.195313 L 250.800781 257 "/>
<path style="fill:none;stroke-width:1;stroke-linecap:butt;stroke-linejoin:round;stroke:rgb(46.666667%,46.666667%,46.666667%);stroke-opacity:1;stroke-dasharray:2,2;stroke-miterlimit:10;" d="M 252.375 257 L 257 251.015625 "/>
<path style="fill:none;stroke-width:1;stroke-linecap:butt;stroke-linejoin:round;stroke:rgb(46.666667%,46.666667%,46.666667%);stroke-opacity:1;stroke-dasharray:2,2;stroke-miterlimit:10;" d="M 230.03125 138.191406 L 257 159.675781 "/>
<path style="fill:none;stroke-width:8;stroke-linecap:round;stroke-linejoin:round;stroke:rgb(75.686275%,70.980392%,61.568627%);stroke-opacity:1;stroke-miterlimit:10;" d="M 242.554688 259.734375 L 231.5625 250.785156 L 228.316406 248.132813 "/>
<path style="fill:none;stroke-width:6;stroke-linecap:round;stroke-linejoin:round;stroke:rgb(100%,100%,100%);stroke-opacity:1;stroke-miterlimit:10;" d="M 242.554688 259.734375 L 231.5625 250.785156 L 228.316406 248.132813 "/>
</g>
</svg>

