<?xml version="1.0" encoding="UTF-8"?>
<svg xmlns="http://www.w3.org/2000/svg" xmlns:xlink="http://www.w3.org/1999/xlink" width="256pt" height="256pt" viewBox="0 0 256 256" version="1.1">
<g id="surface2">
<rect x="0" y="0" width="256" height="256" style="fill:rgb(94.901961%,93.72549%,91.372549%);fill-opacity:1;stroke:none;"/>
<path style="fill:none;stroke-width:8;stroke-linecap:round;stroke-linejoin:round;stroke:rgb(75.686275%,70.980392%,61.568627%);stroke-opacity:1;stroke-miterlimit:10;" d="M -9 98.976563 L 2.628906 93.175781 L 10.621094 87.160156 L 16.796875 81.277344 L 20.6875 75.855469 L 25.882813 66.816406 L 38.070313 42.792969 L 45.433594 31.617188 L 54.265625 19.457031 L 60.300781 12.554688 L 72.625 1.742188 L 84.597656 -9 "/>
<path style="fill:none;stroke-width:6;stroke-linecap:round;stroke-linejoin:round;stroke:rgb(100%,100%,100%);stroke-opacity:1;stroke-miterlimit:10;" d="M -9 98.976563 L 2.628906 93.175781 L 10.621094 87.160156 L 16.796875 81.277344 L 20.6875 75.855469 L 25.882813 66.816406 L 38.070313 42.792969 L 45.433594 31.617188 L 54.265625 19.457031 L 60.300781 12.554688 L 72.625 1.742188 L 84.597656 -9 "/>
<path style="fill:none;stroke-width:3;stroke-linecap:round;stroke-linejoin:round;stroke:rgb(100%,100%,100%);stroke-opacity:1;stroke-miterlimit:10;" d="M 19.984375 69.007813 L 22.96875 63.679688 L 23.765625 64.132813 L 22.515625 66.367188 L 28.71875 69.835938 L 28.234375 70.695313 L 22.03125 67.226563 L 20.78125 69.460938 Z M 28.855469 63.085938 C 28.535156 63.734375 28.394531 64.222656 28.433594 64.554688 C 28.476563 64.890625 28.695313 65.15625 29.089844 65.351563 C 29.394531 65.5 29.683594 65.53125 29.964844 65.445313 C 30.246094 65.363281 30.464844 65.160156 30.621094 64.835938 C 30.847656 64.390625 30.855469 63.945313 30.636719 63.507813 C 30.425781 63.070313 30.035156 62.707031 29.464844 62.414063 L 29.261719 62.304688 Z M 29.308594 61.320313 L 32.371094 62.882813 L 31.964844 63.679688 L 31.152344 63.273438 C 31.378906 63.617188 31.503906 63.96875 31.527344 64.320313 C 31.546875 64.664063 31.457031 65.035156 31.261719 65.429688 C 31.011719 65.921875 30.65625 66.234375 30.199219 66.367188 C 29.742188 66.503906 29.253906 66.4375 28.730469 66.164063 C 28.128906 65.863281 27.761719 65.457031 27.636719 64.945313 C 27.511719 64.425781 27.636719 63.800781 28.011719 63.070313 L 28.574219 61.960938 L 28.496094 61.914063 C 28.089844 61.707031 27.714844 61.671875 27.371094 61.804688 C 27.019531 61.929688 26.730469 62.210938 26.511719 62.648438 C 26.378906 62.921875 26.277344 63.207031 26.214844 63.507813 C 26.152344 63.8125 26.132813 64.117188 26.152344 64.429688 L 25.355469 64.023438 C 25.378906 63.660156 25.429688 63.332031 25.511719 63.039063 C 25.585938 62.738281 25.691406 62.457031 25.824219 62.195313 C 26.179688 61.5 26.644531 61.078125 27.214844 60.929688 C 27.789063 60.785156 28.488281 60.914063 29.308594 61.320313 Z M 29.800781 55.164063 L 30.628906 55.570313 C 30.371094 55.738281 30.152344 55.914063 29.972656 56.101563 C 29.785156 56.289063 29.636719 56.5 29.519531 56.726563 C 29.261719 57.25 29.238281 57.742188 29.457031 58.210938 C 29.667969 58.671875 30.105469 59.066406 30.769531 59.398438 C 31.417969 59.734375 31.996094 59.851563 32.503906 59.757813 C 33.011719 59.65625 33.398438 59.34375 33.660156 58.820313 C 33.773438 58.59375 33.851563 58.351563 33.894531 58.101563 C 33.945313 57.84375 33.960938 57.5625 33.941406 57.257813 L 34.753906 57.664063 C 34.753906 57.957031 34.722656 58.238281 34.660156 58.507813 C 34.597656 58.769531 34.496094 59.03125 34.363281 59.289063 C 33.988281 60.03125 33.441406 60.484375 32.722656 60.648438 C 32.003906 60.816406 31.214844 60.679688 30.347656 60.242188 C 29.472656 59.804688 28.894531 59.242188 28.613281 58.554688 C 28.332031 57.867188 28.386719 57.148438 28.769531 56.398438 C 28.886719 56.148438 29.03125 55.921875 29.207031 55.710938 C 29.375 55.503906 29.574219 55.320313 29.800781 55.164063 Z M 34.855469 50.8125 L 35.277344 51.03125 L 33.433594 54.671875 C 34.050781 54.945313 34.589844 55.011719 35.058594 54.875 C 35.527344 54.742188 35.894531 54.414063 36.167969 53.890625 C 36.324219 53.578125 36.425781 53.261719 36.480469 52.9375 C 36.542969 52.617188 36.566406 52.265625 36.558594 51.890625 L 37.371094 52.3125 C 37.371094 52.679688 37.328125 53.027344 37.246094 53.359375 C 37.160156 53.695313 37.042969 54.011719 36.886719 54.3125 C 36.5 55.085938 35.941406 55.570313 35.214844 55.765625 C 34.488281 55.964844 33.695313 55.851563 32.839844 55.421875 C 31.976563 54.976563 31.394531 54.40625 31.089844 53.71875 C 30.789063 53.03125 30.824219 52.324219 31.199219 51.59375 C 31.523438 50.949219 32.011719 50.558594 32.667969 50.421875 C 33.324219 50.277344 34.054688 50.40625 34.855469 50.8125 Z M 34.183594 51.453125 C 33.695313 51.226563 33.246094 51.15625 32.839844 51.25 C 32.433594 51.335938 32.132813 51.570313 31.933594 51.953125 C 31.707031 52.402344 31.664063 52.835938 31.808594 53.25 C 31.945313 53.65625 32.257813 54 32.746094 54.28125 Z M 39.921875 49.207031 C 40.453125 49.75 40.757813 50.175781 40.84375 50.488281 C 40.925781 50.800781 40.875 51.136719 40.6875 51.488281 L 40.375 52.128906 L 39.65625 51.769531 L 39.890625 51.300781 C 39.992188 51.09375 40.019531 50.894531 39.96875 50.707031 C 39.914063 50.519531 39.710938 50.246094 39.359375 49.878906 L 39.03125 49.535156 L 32.765625 48.816406 L 33.1875 47.988281 L 38.140625 48.597656 L 34.71875 44.957031 L 35.140625 44.128906 Z M 41.203125 38.46875 C 41.382813 38.355469 41.632813 38.289063 41.953125 38.265625 C 42.273438 38.234375 42.6875 38.257813 43.1875 38.328125 L 45.546875 38.71875 L 44.96875 39.59375 L 42.75 39.21875 C 42.164063 39.125 41.746094 39.125 41.484375 39.21875 C 41.214844 39.3125 40.96875 39.523438 40.75 39.84375 L 40.171875 40.734375 L 43 42.59375 L 42.453125 43.40625 L 35.765625 39 L 36.984375 37.15625 C 37.445313 36.46875 37.945313 36.0625 38.484375 35.9375 C 39.015625 35.804688 39.605469 35.949219 40.25 36.375 C 40.667969 36.65625 40.960938 36.980469 41.125 37.34375 C 41.292969 37.699219 41.320313 38.074219 41.203125 38.46875 Z M 37.046875 38.671875 L 39.421875 40.234375 L 40.09375 39.203125 C 40.355469 38.808594 40.453125 38.449219 40.390625 38.125 C 40.320313 37.792969 40.085938 37.496094 39.6875 37.234375 C 39.304688 36.976563 38.945313 36.882813 38.609375 36.953125 C 38.277344 37.015625 37.980469 37.246094 37.71875 37.640625 Z M 42.929688 33.007813 C 42.671875 33.414063 42.640625 33.851563 42.835938 34.320313 C 43.035156 34.78125 43.429688 35.207031 44.023438 35.601563 C 44.628906 36 45.175781 36.195313 45.664063 36.195313 C 46.152344 36.195313 46.527344 35.992188 46.789063 35.585938 C 47.058594 35.191406 47.101563 34.765625 46.914063 34.304688 C 46.726563 33.847656 46.328125 33.421875 45.726563 33.023438 C 45.132813 32.628906 44.585938 32.429688 44.085938 32.429688 C 43.585938 32.421875 43.203125 32.613281 42.929688 33.007813 Z M 42.242188 32.554688 C 42.671875 31.921875 43.238281 31.570313 43.945313 31.507813 C 44.65625 31.445313 45.421875 31.691406 46.242188 32.242188 C 47.054688 32.785156 47.570313 33.398438 47.789063 34.085938 C 48.015625 34.765625 47.917969 35.421875 47.492188 36.054688 C 47.0625 36.710938 46.492188 37.066406 45.773438 37.117188 C 45.066406 37.171875 44.304688 36.925781 43.492188 36.382813 C 42.671875 35.832031 42.148438 35.222656 41.929688 34.554688 C 41.710938 33.878906 41.816406 33.210938 42.242188 32.554688 Z M 48.492188 29.058594 C 48.066406 29.644531 47.847656 30.101563 47.835938 30.433594 C 47.828125 30.769531 48 31.066406 48.351563 31.324219 C 48.632813 31.523438 48.914063 31.601563 49.195313 31.558594 C 49.484375 31.519531 49.734375 31.351563 49.945313 31.058594 C 50.246094 30.652344 50.324219 30.214844 50.179688 29.746094 C 50.042969 29.277344 49.714844 28.855469 49.195313 28.480469 L 49.007813 28.339844 Z M 49.210938 27.386719 L 51.992188 29.402344 L 51.460938 30.121094 L 50.726563 29.589844 C 50.890625 29.964844 50.953125 30.332031 50.914063 30.683594 C 50.882813 31.027344 50.734375 31.378906 50.476563 31.730469 C 50.152344 32.179688 49.757813 32.433594 49.289063 32.496094 C 48.820313 32.558594 48.347656 32.417969 47.867188 32.074219 C 47.328125 31.679688 47.035156 31.214844 46.992188 30.683594 C 46.953125 30.152344 47.171875 29.558594 47.648438 28.902344 L 48.382813 27.886719 L 48.320313 27.839844 C 47.945313 27.570313 47.578125 27.472656 47.210938 27.542969 C 46.847656 27.617188 46.523438 27.851563 46.242188 28.246094 C 46.066406 28.496094 45.925781 28.769531 45.820313 29.058594 C 45.707031 29.339844 45.640625 29.636719 45.617188 29.949219 L 44.882813 29.417969 C 44.96875 29.066406 45.070313 28.746094 45.195313 28.464844 C 45.3125 28.175781 45.453125 27.914063 45.617188 27.683594 C 46.078125 27.050781 46.609375 26.707031 47.210938 26.652344 C 47.804688 26.601563 48.472656 26.847656 49.210938 27.386719 Z M 51.007813 22.046875 L 48.382813 20.140625 L 48.914063 19.421875 L 55.679688 24.328125 L 55.148438 25.046875 L 54.414063 24.515625 C 54.601563 24.882813 54.679688 25.230469 54.648438 25.5625 C 54.617188 25.898438 54.484375 26.226563 54.257813 26.546875 C 53.871094 27.078125 53.324219 27.34375 52.617188 27.34375 C 51.910156 27.335938 51.175781 27.046875 50.414063 26.484375 C 49.644531 25.933594 49.144531 25.320313 48.914063 24.640625 C 48.6875 23.964844 48.765625 23.359375 49.148438 22.828125 C 49.378906 22.507813 49.648438 22.28125 49.960938 22.15625 C 50.273438 22.03125 50.625 21.996094 51.007813 22.046875 Z M 50.945313 25.734375 C 51.53125 26.164063 52.066406 26.390625 52.554688 26.421875 C 53.042969 26.453125 53.429688 26.277344 53.710938 25.890625 C 53.992188 25.507813 54.042969 25.085938 53.867188 24.625 C 53.6875 24.15625 53.308594 23.710938 52.726563 23.28125 C 52.132813 22.855469 51.59375 22.632813 51.101563 22.609375 C 50.613281 22.589844 50.226563 22.773438 49.945313 23.15625 C 49.664063 23.542969 49.613281 23.964844 49.789063 24.421875 C 49.96875 24.871094 50.351563 25.308594 50.945313 25.734375 Z M 50.945313 25.734375 "/>
<path style=" stroke:none;fill-rule:evenodd;fill:rgb(20%,20%,20%);fill-opacity:1;" d="M 19.984375 69.007813 L 22.96875 63.679688 L 23.765625 64.132813 L 22.515625 66.367188 L 28.71875 69.835938 L 28.234375 70.695313 L 22.03125 67.226563 L 20.78125 69.460938 Z M 28.855469 63.085938 C 28.535156 63.734375 28.394531 64.222656 28.433594 64.554688 C 28.476563 64.890625 28.695313 65.15625 29.089844 65.351563 C 29.394531 65.5 29.683594 65.53125 29.964844 65.445313 C 30.246094 65.363281 30.464844 65.160156 30.621094 64.835938 C 30.847656 64.390625 30.855469 63.945313 30.636719 63.507813 C 30.425781 63.070313 30.035156 62.707031 29.464844 62.414063 L 29.261719 62.304688 Z M 29.308594 61.320313 L 32.371094 62.882813 L 31.964844 63.679688 L 31.152344 63.273438 C 31.378906 63.617188 31.503906 63.96875 31.527344 64.320313 C 31.546875 64.664063 31.457031 65.035156 31.261719 65.429688 C 31.011719 65.921875 30.65625 66.234375 30.199219 66.367188 C 29.742188 66.503906 29.253906 66.4375 28.730469 66.164063 C 28.128906 65.863281 27.761719 65.457031 27.636719 64.945313 C 27.511719 64.425781 27.636719 63.800781 28.011719 63.070313 L 28.574219 61.960938 L 28.496094 61.914063 C 28.089844 61.707031 27.714844 61.671875 27.371094 61.804688 C 27.019531 61.929688 26.730469 62.210938 26.511719 62.648438 C 26.378906 62.921875 26.277344 63.207031 26.214844 63.507813 C 26.152344 63.8125 26.132813 64.117188 26.152344 64.429688 L 25.355469 64.023438 C 25.378906 63.660156 25.429688 63.332031 25.511719 63.039063 C 25.585938 62.738281 25.691406 62.457031 25.824219 62.195313 C 26.179688 61.5 26.644531 61.078125 27.214844 60.929688 C 27.789063 60.785156 28.488281 60.914063 29.308594 61.320313 Z M 29.800781 55.164063 L 30.628906 55.570313 C 30.371094 55.738281 30.152344 55.914063 29.972656 56.101563 C 29.785156 56.289063 29.636719 56.5 29.519531 56.726563 C 29.261719 57.25 29.238281 57.742188 29.457031 58.210938 C 29.667969 58.671875 30.105469 59.066406 30.769531 59.398438 C 31.417969 59.734375 31.996094 59.851563 32.503906 59.757813 C 33.011719 59.65625 33.398438 59.34375 33.660156 58.820313 C 33.773438 58.59375 33.851563 58.351563 33.894531 58.101563 C 33.945313 57.84375 33.960938 57.5625 33.941406 57.257813 L 34.753906 57.664063 C 34.753906 57.957031 34.722656 58.238281 34.660156 58.507813 C 34.597656 58.769531 34.496094 59.03125 34.363281 59.289063 C 33.988281 60.03125 33.441406 60.484375 32.722656 60.648438 C 32.003906 60.816406 31.214844 60.679688 30.347656 60.242188 C 29.472656 59.804688 28.894531 59.242188 28.613281 58.554688 C 28.332031 57.867188 28.386719 57.148438 28.769531 56.398438 C 28.886719 56.148438 29.03125 55.921875 29.207031 55.710938 C 29.375 55.503906 29.574219 55.320313 29.800781 55.164063 Z M 34.855469 50.8125 L 35.277344 51.03125 L 33.433594 54.671875 C 34.050781 54.945313 34.589844 55.011719 35.058594 54.875 C 35.527344 54.742188 35.894531 54.414063 36.167969 53.890625 C 36.324219 53.578125 36.425781 53.261719 36.480469 52.9375 C 36.542969 52.617188 36.566406 52.265625 36.558594 51.890625 L 37.371094 52.3125 C 37.371094 52.679688 37.328125 53.027344 37.246094 53.359375 C 37.160156 53.695313 37.042969 54.011719 36.886719 54.3125 C 36.5 55.085938 35.941406 55.570313 35.214844 55.765625 C 34.488281 55.964844 33.695313 55.851563 32.839844 55.421875 C 31.976563 54.976563 31.394531 54.40625 31.089844 53.71875 C 30.789063 53.03125 30.824219 52.324219 31.199219 51.59375 C 31.523438 50.949219 32.011719 50.558594 32.667969 50.421875 C 33.324219 50.277344 34.054688 50.40625 34.855469 50.8125 Z M 34.183594 51.453125 C 33.695313 51.226563 33.246094 51.15625 32.839844 51.25 C 32.433594 51.335938 32.132813 51.570313 31.933594 51.953125 C 31.707031 52.402344 31.664063 52.835938 31.808594 53.25 C 31.945313 53.65625 32.257813 54 32.746094 54.28125 Z M 39.921875 49.207031 C 40.453125 49.75 40.757813 50.175781 40.84375 50.488281 C 40.925781 50.800781 40.875 51.136719 40.6875 51.488281 L 40.375 52.128906 L 39.65625 51.769531 L 39.890625 51.300781 C 39.992188 51.09375 40.019531 50.894531 39.96875 50.707031 C 39.914063 50.519531 39.710938 50.246094 39.359375 49.878906 L 39.03125 49.535156 L 32.765625 48.816406 L 33.1875 47.988281 L 38.140625 48.597656 L 34.71875 44.957031 L 35.140625 44.128906 Z M 41.203125 38.46875 C 41.382813 38.355469 41.632813 38.289063 41.953125 38.265625 C 42.273438 38.234375 42.6875 38.257813 43.1875 38.328125 L 45.546875 38.71875 L 44.96875 39.59375 L 42.75 39.21875 C 42.164063 39.125 41.746094 39.125 41.484375 39.21875 C 41.214844 39.3125 40.96875 39.523438 40.75 39.84375 L 40.171875 40.734375 L 43 42.59375 L 42.453125 43.40625 L 35.765625 39 L 36.984375 37.15625 C 37.445313 36.46875 37.945313 36.0625 38.484375 35.9375 C 39.015625 35.804688 39.605469 35.949219 40.25 36.375 C 40.667969 36.65625 40.960938 36.980469 41.125 37.34375 C 41.292969 37.699219 41.320313 38.074219 41.203125 38.46875 Z M 37.046875 38.671875 L 39.421875 40.234375 L 40.09375 39.203125 C 40.355469 38.808594 40.453125 38.449219 40.390625 38.125 C 40.320313 37.792969 40.085938 37.496094 39.6875 37.234375 C 39.304688 36.976563 38.945313 36.882813 38.609375 36.953125 C 38.277344 37.015625 37.980469 37.246094 37.71875 37.640625 Z M 42.929688 33.007813 C 42.671875 33.414063 42.640625 33.851563 42.835938 34.320313 C 43.035156 34.78125 43.429688 35.207031 44.023438 35.601563 C 44.628906 36 45.175781 36.195313 45.664063 36.195313 C 46.152344 36.195313 46.527344 35.992188 46.789063 35.585938 C 47.058594 35.191406 47.101563 34.765625 46.914063 34.304688 C 46.726563 33.847656 46.328125 33.421875 45.726563 33.023438 C 45.132813 32.628906 44.585938 32.429688 44.085938 32.429688 C 43.585938 32.421875 43.203125 32.613281 42.929688 33.007813 Z M 42.242188 32.554688 C 42.671875 31.921875 43.238281 31.570313 43.945313 31.507813 C 44.65625 31.445313 45.421875 31.691406 46.242188 32.242188 C 47.054688 32.785156 47.570313 33.398438 47.789063 34.085938 C 48.015625 34.765625 47.917969 35.421875 47.492188 36.054688 C 47.0625 36.710938 46.492188 37.066406 45.773438 37.117188 C 45.066406 37.171875 44.304688 36.925781 43.492188 36.382813 C 42.671875 35.832031 42.148438 35.222656 41.929688 34.554688 C 41.710938 33.878906 41.816406 33.210938 42.242188 32.554688 Z M 48.492188 29.058594 C 48.066406 29.644531 47.847656 30.101563 47.835938 30.433594 C 47.828125 30.769531 48 31.066406 48.351563 31.324219 C 48.632813 31.523438 48.914063 31.601563 49.195313 31.558594 C 49.484375 31.519531 49.734375 31.351563 49.945313 31.058594 C 50.246094 30.652344 50.324219 30.214844 50.179688 29.746094 C 50.042969 29.277344 49.714844 28.855469 49.195313 28.480469 L 49.007813 28.339844 Z M 49.210938 27.386719 L 51.992188 29.402344 L 51.460938 30.121094 L 50.726563 29.589844 C 50.890625 29.964844 50.953125 30.332031 50.914063 30.683594 C 50.882813 31.027344 50.734375 31.378906 50.476563 31.730469 C 50.152344 32.179688 49.757813 32.433594 49.289063 32.496094 C 48.820313 32.558594 48.347656 32.417969 47.867188 32.074219 C 47.328125 31.679688 47.035156 31.214844 46.992188 30.683594 C 46.953125 30.152344 47.171875 29.558594 47.648438 28.902344 L 48.382813 27.886719 L 48.320313 27.839844 C 47.945313 27.570313 47.578125 27.472656 47.210938 27.542969 C 46.847656 27.617188 46.523438 27.851563 46.242188 28.246094 C 46.066406 28.496094 45.925781 28.769531 45.820313 29.058594 C 45.707031 29.339844 45.640625 29.636719 45.617188 29.949219 L 44.882813 29.417969 C 44.96875 29.066406 45.070313 28.746094 45.195313 28.464844 C 45.3125 28.175781 45.453125 27.914063 45.617188 27.683594 C 46.078125 27.050781 46.609375 26.707031 47.210938 26.652344 C 47.804688 26.601563 48.472656 26.847656 49.210938 27.386719 Z M 51.007813 22.046875 L 48.382813 20.140625 L 48.914063 19.421875 L 55.679688 24.328125 L 55.148438 25.046875 L 54.414063 24.515625 C 54.601563 24.882813 54.679688 25.230469 54.648438 25.5625 C 54.617188 25.898438 54.484375 26.226563 54.257813 26.546875 C 53.871094 27.078125 53.324219 27.34375 52.617188 27.34375 C 51.910156 27.335938 51.175781 27.046875 50.414063 26.484375 C 49.644531 25.933594 49.144531 25.320313 48.914063 24.640625 C 48.6875 23.964844 48.765625 23.359375 49.148438 22.828125 C 49.378906 22.507813 49.648438 22.28125 49.960938 22.15625 C 50.273438 22.03125 50.625 21.996094 51.007813 22.046875 Z M 50.945313 25.734375 C 51.53125 26.164063 52.066406 26.390625 52.554688 26.421875 C 53.042969 26.453125 53.429688 26.277344 53.710938 25.890625 C 53.992188 25.507813 54.042969 25.085938 53.867188 24.625 C 53.6875 24.15625 53.308594 23.710938 52.726563 23.28125 C 52.132813 22.855469 51.59375 22.632813 51.101563 22.609375 C 50.613281 22.589844 50.226563 22.773438 49.945313 23.15625 C 49.664063 23.542969 49.613281 23.964844 49.789063 24.421875 C 49.96875 24.871094 50.351563 25.308594 50.945313 25.734375 Z M 50.945313 25.734375 "/>
</g>
</svg>

