<?xml version="1.0" encoding="UTF-8"?>
<svg xmlns="http://www.w3.org/2000/svg" xmlns:xlink="http://www.w3.org/1999/xlink" width="256pt" height="256pt" viewBox="0 0 256 256" version="1.1">
<g id="surface2">
<rect x="0" y="0" width="256" height="256" style="fill:rgb(94.901961%,93.72549%,91.372549%);fill-opacity:1;stroke:none;"/>
<path style="fill:none;stroke-width:1;stroke-linecap:round;stroke-linejoin:round;stroke:rgb(100%,100%,100%);stroke-opacity:1;stroke-dasharray:2,3;stroke-miterlimit:10;" d="M 150.101563 180.410156 L 151.808594 194.980469 L 155.1875 207.496094 L 161.148438 215.449219 L 169.695313 218.425781 L 171.878906 222.003906 L 176.054688 221.605469 L 181.617188 223 L 189.765625 222.800781 L 196.917969 225.382813 L 202.285156 225.382813 L 204.46875 230.945313 L 210.230469 235.121094 L 214.007813 235.316406 L 217.785156 237.503906 L 222.550781 239.09375 L 227.074219 238.53125 L 234.875 238.097656 L 245.207031 240.683594 L 250.375 239.492188 L 254.746094 230.746094 L 255.9375 223 L 257 222.644531 M 246.875 -2 L 247.871094 2.460938 "/>
<path style="fill:none;stroke-width:1;stroke-linecap:round;stroke-linejoin:round;stroke:rgb(100%,100%,100%);stroke-opacity:1;stroke-dasharray:2,3;stroke-miterlimit:10;" d="M 170.042969 -2 L 170.890625 -0.304688 L 173.699219 10.941406 L 176.511719 15.714844 L 184.097656 18.246094 L 189.71875 18.527344 L 198.429688 20.773438 L 207.703125 22.460938 L 214.730469 23.023438 L 223.441406 28.644531 L 230.746094 37.355469 L 232.714844 49.4375 L 233.277344 65.457031 L 233.558594 80.632813 L 231.871094 91.59375 L 230.1875 98.617188 L 229.949219 103.28125 L 229.625 110.421875 L 231.871094 125.878906 L 233.839844 136.839844 L 236.648438 150.609375 L 240.304688 162.128906 L 239.742188 174.214844 L 239.460938 182.925781 L 242.269531 192.765625 L 239.179688 205.128906 L 236.371094 213.28125 L 230.1875 225.644531 L 227.074219 238.53125 L 226.253906 241.945313 L 225.414063 257 "/>
<path style="fill:none;stroke-width:1;stroke-linecap:round;stroke-linejoin:round;stroke:rgb(100%,100%,100%);stroke-opacity:1;stroke-dasharray:2,3;stroke-miterlimit:10;" d="M -2 173.628906 L 3.746094 172.660156 L 9.507813 172.761719 L 20.238281 173.058594 L 29.878906 168.191406 L 32.359375 166.003906 L 34.449219 166.699219 L 37.132813 172.761719 L 39.714844 173.15625 L 42.496094 171.671875 L 44.882813 173.457031 L 45.972656 176.835938 L 48.65625 177.53125 L 53.625 175.246094 L 56.605469 172.859375 L 60.082031 168.886719 L 62.964844 165.707031 L 62.566406 163.917969 L 63.757813 162.230469 L 77.472656 159.644531 L 88.003906 158.355469 L 99.230469 157.558594 L 107.179688 156.269531 L 113.539063 154.976563 L 119.101563 155.074219 L 125.855469 158.949219 L 131.324219 164.8125 L 136.789063 170.574219 L 144.238281 176.933594 L 150.101563 180.410156 L 155.464844 180.113281 L 160.734375 177.035156 L 161.328125 173.355469 L 164.011719 168.984375 L 172.058594 165.210938 L 177.625 161.035156 L 184.578125 152.589844 L 189.445313 141.464844 L 190.839844 134.90625 L 211.804688 110.859375 L 218.0625 108.078125 L 222.832031 105.398438 L 228.695313 103.507813 L 229.949219 103.28125 L 237.140625 101.917969 L 242.40625 101.71875 L 245.484375 98.242188 L 252.144531 73.503906 L 251.644531 62.078125 L 249.261719 57.507813 L 250.054688 45.382813 L 253.632813 38.132813 L 257 33.300781 M 257 16.296875 L 253.433594 8.222656 L 247.871094 2.460938 L 241.945313 -2 M 98.25 -2 L 93.265625 2.761719 L 92.375 10.707031 L 87.207031 15.777344 L 84.921875 21.539063 L 79.65625 25.113281 L 71.707031 27.203125 L 61.375 32.566406 L 55.214844 40.914063 L 55.214844 47.074219 L 60.082031 57.605469 L 61.871094 63.664063 L 54.617188 70.421875 L 53.027344 87.808594 L 51.042969 96.15625 L 45.972656 103.707031 L 40.511719 107.78125 L 34.449219 110.660156 L 33.949219 113.742188 L 22.625 116.921875 L 20.734375 120.597656 L 8.21875 126.757813 L 9.3125 139.578125 L 15.273438 144.542969 L 19.644531 150.105469 L 16.5625 154.976563 L 16.960938 157.160156 L 18.351563 161.136719 L 14.777344 165.410156 L 9.507813 172.761719 "/>
</g>
</svg>

