<?xml version="1.0" encoding="UTF-8"?>
<svg xmlns="http://www.w3.org/2000/svg" xmlns:xlink="http://www.w3.org/1999/xlink" width="256pt" height="256pt" viewBox="0 0 256 256" version="1.1">
<g id="surface2">
<rect x="0" y="0" width="256" height="256" style="fill:rgb(94.901961%,93.72549%,91.372549%);fill-opacity:1;stroke:none;"/>
<path style=" stroke:none;fill-rule:evenodd;fill:rgb(60%,70.196078%,80%);fill-opacity:1;" d="M 14.835938 38.042969 L 24.921875 37.972656 L 39.703125 31.828125 L 45.046875 35.949219 L 52.652344 29.523438 L 54.542969 24.667969 L 65.167969 15.992188 L 86.828125 1.152344 L 90.683594 -4 L 20.480469 -4 L 20.269531 -2.128906 L 17.5625 15.667969 L 14.824219 27.390625 Z M 14.835938 38.042969 "/>
<path style="fill:none;stroke-width:1;stroke-linecap:round;stroke-linejoin:round;stroke:rgb(70.196078%,77.647059%,83.137255%);stroke-opacity:1;stroke-miterlimit:10;" d="M 14.835938 38.042969 L 24.921875 37.972656 L 39.703125 31.828125 L 45.046875 35.949219 L 52.652344 29.523438 L 54.542969 24.667969 L 65.167969 15.992188 L 86.828125 1.152344 L 90.683594 -4 L 20.480469 -4 L 20.269531 -2.128906 L 17.5625 15.667969 L 14.824219 27.390625 L 14.835938 38.042969 "/>
<path style=" stroke:none;fill-rule:evenodd;fill:rgb(60%,70.196078%,80%);fill-opacity:1;" d="M -4 259 L -4 248.535156 L 6.839844 241.199219 L 14.457031 219.800781 L 33.023438 197.75 L 39.359375 192.785156 L 64.082031 187.785156 L 77.128906 173.375 L 78.355469 165.710938 L 73.5 149.964844 L 68.054688 141.136719 L 56.578125 141.871094 L 46.71875 144.667969 L 34.945313 142.460938 L 18.710938 148.613281 L 4.484375 155.261719 L -4 160.625 Z M -4 259 "/>
<path style="fill:none;stroke-width:1;stroke-linecap:round;stroke-linejoin:round;stroke:rgb(70.196078%,77.647059%,83.137255%);stroke-opacity:1;stroke-miterlimit:10;" d="M -4 259 L -4 248.535156 L 6.839844 241.199219 L 14.457031 219.800781 L 33.023438 197.75 L 39.359375 192.785156 L 64.082031 187.785156 L 77.128906 173.375 L 78.355469 165.710938 L 73.5 149.964844 L 68.054688 141.136719 L 56.578125 141.871094 L 46.71875 144.667969 L 34.945313 142.460938 L 18.710938 148.613281 L 4.484375 155.261719 L -4 160.625 L -4 259 "/>
<path style="fill:none;stroke-width:8;stroke-linecap:round;stroke-linejoin:round;stroke:rgb(75.686275%,70.980392%,61.568627%);stroke-opacity:1;stroke-miterlimit:10;" d="M 203.015625 126.179688 L 202.828125 123.292969 L 204.0625 118.167969 "/>
<path style="fill:none;stroke-width:8;stroke-linecap:round;stroke-linejoin:round;stroke:rgb(75.686275%,70.980392%,61.568627%);stroke-opacity:1;stroke-miterlimit:10;" d="M 196.871094 33.5625 L 206.019531 47.542969 "/>
<path style="fill:none;stroke-width:8;stroke-linecap:round;stroke-linejoin:round;stroke:rgb(75.686275%,70.980392%,61.568627%);stroke-opacity:1;stroke-miterlimit:10;" d="M 253.671875 146.921875 L 258.007813 148.195313 L 264 148.625 "/>
<path style="fill:none;stroke-width:8;stroke-linecap:round;stroke-linejoin:round;stroke:rgb(75.686275%,70.980392%,61.568627%);stroke-opacity:1;stroke-miterlimit:10;" d="M 73.410156 247.308594 L 77.855469 264 "/>
<path style="fill:none;stroke-width:8;stroke-linecap:round;stroke-linejoin:round;stroke:rgb(75.686275%,70.980392%,61.568627%);stroke-opacity:1;stroke-miterlimit:10;" d="M 238.480469 237.589844 L 243.933594 238.675781 L 257.261719 240.257813 "/>
<path style="fill:none;stroke-width:8;stroke-linecap:round;stroke-linejoin:round;stroke:rgb(75.686275%,70.980392%,61.568627%);stroke-opacity:1;stroke-miterlimit:10;" d="M 186.308594 109.660156 L 191.945313 110.21875 L 196.1875 114.101563 L 200.777344 120.21875 L 203.015625 126.179688 L 205.019531 133.167969 L 205.765625 134.9375 L 206.601563 136.054688 "/>
<path style="fill:none;stroke-width:8;stroke-linecap:round;stroke-linejoin:round;stroke:rgb(75.686275%,70.980392%,61.568627%);stroke-opacity:1;stroke-miterlimit:10;" d="M 214.78125 141.984375 L 206.601563 136.054688 L 206.230469 141.488281 L 201.265625 148.382813 L 206.230469 151.671875 L 208.023438 153.347656 L 214.78125 147.171875 L 214.78125 141.984375 "/>
<path style="fill:none;stroke-width:8;stroke-linecap:round;stroke-linejoin:round;stroke:rgb(75.686275%,70.980392%,61.568627%);stroke-opacity:1;stroke-miterlimit:10;" d="M 13.734375 234.328125 L 18.816406 237.152344 L 20.890625 237.183594 L 22.9375 236.097656 L 23.871094 235.167969 L 25.96875 232.714844 L 28.089844 228.925781 L 30.023438 224.394531 L 32.820313 221.691406 L 36.011719 218.988281 L 45.074219 210.328125 L 57.773438 197.78125 L 60.5 194.585938 L 60.945313 193.125 "/>
<path style="fill:none;stroke-width:8;stroke-linecap:round;stroke-linejoin:round;stroke:rgb(75.686275%,70.980392%,61.568627%);stroke-opacity:1;stroke-miterlimit:10;" d="M 206.882813 69.480469 L 205.601563 76 L 205.625 79.601563 L 206.578125 89.878906 L 199.628906 101.503906 L 199.792969 107.851563 L 200.371094 112.226563 L 202.152344 114.257813 L 203.363281 117.269531 L 204.0625 118.167969 L 205.183594 119.347656 L 206.617188 120.953125 L 209.734375 121.582031 L 212.914063 121.710938 L 216.296875 120.328125 L 219.21875 118.75 L 222.761719 116.527344 L 227.847656 113.828125 L 236.6875 111.691406 L 242.960938 106.726563 L 249.714844 96.347656 L 258.542969 92.863281 L 259.707031 91.804688 L 260.335938 90.253906 L 259.988281 85.472656 L 261.734375 80.875 L 262.691406 75.875 L 261.175781 73.859375 L 251.390625 58.703125 L 250.085938 56.21875 L 248.035156 49.417969 L 247.335938 46.34375 L 246.960938 40.476563 L 247.496094 35.289063 L 248.710938 30.914063 L 253.671875 19.328125 L 253.90625 17.964844 L 253.695313 14.609375 L 253.347656 12.964844 L 251.902344 10.449219 L 250.011719 8.5 "/>
<path style="fill:none;stroke-width:8;stroke-linecap:round;stroke-linejoin:round;stroke:rgb(75.686275%,70.980392%,61.568627%);stroke-opacity:1;stroke-miterlimit:10;" d="M 262.691406 75.875 L 264 77.628906 M 264 208.113281 L 260.757813 208.527344 L 256.609375 209.953125 L 251.390625 213.464844 L 247.800781 216.910156 L 245.425781 220.324219 L 239.550781 233.957031 L 238.480469 237.589844 L 237.875 241.964844 L 237.476563 257.988281 L 236.429688 263.949219 L 236.402344 264 "/>
<path style="fill:none;stroke-width:8;stroke-linecap:round;stroke-linejoin:round;stroke:rgb(75.686275%,70.980392%,61.568627%);stroke-opacity:1;stroke-miterlimit:10;" d="M -9 263.058594 L 6.699219 246.75 L 11.40625 241.5625 L 12.78125 238.644531 L 13.734375 234.328125 L 15.109375 228.492188 L 23.546875 213.867188 L 27.808594 207.71875 L 29.511719 206.136719 L 30.605469 205.605469 L 37.222656 204.179688 L 42.09375 201.882813 L 50.738281 195.484375 L 53.136719 194.492188 L 60.945313 193.125 L 62.550781 192.875 L 65.859375 191.542969 L 71.59375 187.472656 L 73.691406 185.144531 L 79.492188 176.792969 L 82.683594 173.035156 L 85.691406 170.179688 L 86.925781 167.882813 L 87.460938 166.390625 L 87.925781 161.949219 L 87.578125 158.253906 L 85.667969 152.292969 L 84.410156 146.019531 L 84.410156 144.4375 L 88.511719 127.203125 L 89.441406 121.644531 L 87.992188 116.925781 "/>
<path style="fill:none;stroke-width:8;stroke-linecap:round;stroke-linejoin:round;stroke:rgb(75.686275%,70.980392%,61.568627%);stroke-opacity:1;stroke-miterlimit:10;" d="M 77.960938 264 L 82.523438 257.707031 L 88.929688 251.652344 L 102.304688 241.46875 L 120.96875 218.277344 L 127.492188 211.351563 L 133.015625 205.980469 L 148.558594 191.757813 L 165.476563 176.917969 L 171.953125 168.9375 L 174.050781 165.273438 L 175.636719 161.019531 L 175.984375 156.828125 L 175.820313 153.660156 L 174.445313 144.996094 L 174.703125 140.804688 L 175.144531 138.878906 L 186.308594 109.660156 L 192.527344 94.601563 L 199.519531 81.714844 L 206.882813 69.480469 L 208.046875 60.503906 L 208.28125 54.140625 L 207.90625 49.964844 L 206.699219 47.117188 "/>
<path style="fill:none;stroke-width:8;stroke-linecap:round;stroke-linejoin:round;stroke:rgb(75.686275%,70.980392%,61.568627%);stroke-opacity:1;stroke-miterlimit:10;" d="M -9 11.914063 L -7.375 11.511719 L -4.816406 9.886719 L -2.8125 5.878906 L -0.8125 2.011719 L 3.6875 -1.496094 L 5.855469 -3.363281 "/>
<path style="fill:none;stroke-width:8;stroke-linecap:round;stroke-linejoin:round;stroke:rgb(75.686275%,70.980392%,61.568627%);stroke-opacity:1;stroke-miterlimit:10;" d="M 114.320313 -9 L 113.128906 -6.691406 L 110.160156 -3.769531 L 106.539063 -0.0859375 L 103.339844 3.867188 L 100.488281 11.441406 L 97.550781 24.296875 L 97.878906 27.371094 L 98.667969 29.855469 "/>
<path style="fill:none;stroke-width:8;stroke-linecap:round;stroke-linejoin:round;stroke:rgb(75.686275%,70.980392%,61.568627%);stroke-opacity:1;stroke-miterlimit:10;" d="M 98.667969 29.855469 L 101.117188 33.820313 L 96.503906 39.078125 L 92.050781 45.195313 L 90.699219 46.3125 L 88.066406 46.902344 L 85.992188 46.65625 L 83.988281 45.351563 L 81.171875 40.753906 L 79.957031 40.011719 L 70.382813 41.316406 L 55.398438 41.625 L 39.832031 41.5 L 37.082031 41.875 L 31.601563 42.953125 L 25.785156 43.757813 L 18.460938 44.054688 L 14.351563 43.214844 L 9.527344 41.277344 L 5.277344 38.542969 L 1.75 34.632813 L 0.164063 31.148438 L -0.253906 28.171875 L -0.421875 24.800781 L -0.0234375 18.554688 L 0.605469 15.011719 L 4.960938 3.679688 L 5.925781 -1.738281 L 5.855469 -3.363281 L 5.785156 -5.0625 L 5.234375 -9 "/>
<path style="fill:none;stroke-width:8;stroke-linecap:round;stroke-linejoin:round;stroke:rgb(75.686275%,70.980392%,61.568627%);stroke-opacity:1;stroke-miterlimit:10;" d="M 101.117188 33.820313 L 105.21875 31.84375 L 110.738281 30.382813 L 119.082031 29.390625 L 122.320313 28.582031 L 129.101563 26.191406 L 132.96875 24.203125 L 136.558594 21.316406 L 140.285156 17.09375 L 142.058594 14.300781 L 145.414063 7.746094 L 150.191406 -2.625 L 154.765625 -9 M 260.65625 -9 L 261.554688 -8.363281 "/>
<path style="fill:none;stroke-width:11;stroke-linecap:round;stroke-linejoin:round;stroke:rgb(86.666667%,62.352941%,6.666667%);stroke-opacity:1;stroke-miterlimit:10;" d="M -12 161.222656 L -6.515625 157.261719 L 3.621094 151.144531 L 13.082031 146.488281 L 22.195313 142.480469 L 26.714844 140.804688 L 68.75 125.527344 L 83.527344 119.046875 L 87.992188 116.925781 L 103.234375 108.878906 L 116.761719 100.546875 L 137.292969 87.296875 L 162.636719 73.554688 L 193.320313 55.476563 L 206.019531 47.542969 L 217.207031 40.257813 L 225.476563 33.894531 L 232.5625 27.777344 L 242.675781 17.652344 L 250.011719 8.5 L 261.554688 -8.363281 L 263.96875 -12 "/>
<path style="fill:none;stroke-width:6;stroke-linecap:round;stroke-linejoin:round;stroke:rgb(100%,100%,100%);stroke-opacity:1;stroke-miterlimit:10;" d="M 203.015625 126.179688 L 202.828125 123.292969 L 204.0625 118.167969 "/>
<path style="fill:none;stroke-width:6;stroke-linecap:round;stroke-linejoin:round;stroke:rgb(100%,100%,100%);stroke-opacity:1;stroke-miterlimit:10;" d="M 196.871094 33.5625 L 206.019531 47.542969 "/>
<path style="fill:none;stroke-width:6;stroke-linecap:round;stroke-linejoin:round;stroke:rgb(100%,100%,100%);stroke-opacity:1;stroke-miterlimit:10;" d="M 253.671875 146.921875 L 258.007813 148.195313 L 264 148.625 "/>
<path style="fill:none;stroke-width:6;stroke-linecap:round;stroke-linejoin:round;stroke:rgb(100%,100%,100%);stroke-opacity:1;stroke-miterlimit:10;" d="M 73.410156 247.308594 L 77.855469 264 "/>
<path style="fill:none;stroke-width:6;stroke-linecap:round;stroke-linejoin:round;stroke:rgb(100%,100%,100%);stroke-opacity:1;stroke-miterlimit:10;" d="M 238.480469 237.589844 L 243.933594 238.675781 L 257.261719 240.257813 "/>
<path style="fill:none;stroke-width:6;stroke-linecap:round;stroke-linejoin:round;stroke:rgb(100%,100%,100%);stroke-opacity:1;stroke-miterlimit:10;" d="M 186.308594 109.660156 L 191.945313 110.21875 L 196.1875 114.101563 L 200.777344 120.21875 L 203.015625 126.179688 L 205.019531 133.167969 L 205.765625 134.9375 L 206.601563 136.054688 "/>
<path style="fill:none;stroke-width:6;stroke-linecap:round;stroke-linejoin:round;stroke:rgb(100%,100%,100%);stroke-opacity:1;stroke-miterlimit:10;" d="M 214.78125 141.984375 L 206.601563 136.054688 L 206.230469 141.488281 L 201.265625 148.382813 L 206.230469 151.671875 L 208.023438 153.347656 L 214.78125 147.171875 L 214.78125 141.984375 "/>
<path style="fill:none;stroke-width:6;stroke-linecap:round;stroke-linejoin:round;stroke:rgb(100%,100%,100%);stroke-opacity:1;stroke-miterlimit:10;" d="M 13.734375 234.328125 L 18.816406 237.152344 L 20.890625 237.183594 L 22.9375 236.097656 L 23.871094 235.167969 L 25.96875 232.714844 L 28.089844 228.925781 L 30.023438 224.394531 L 32.820313 221.691406 L 36.011719 218.988281 L 45.074219 210.328125 L 57.773438 197.78125 L 60.5 194.585938 L 60.945313 193.125 "/>
<path style="fill:none;stroke-width:6;stroke-linecap:round;stroke-linejoin:round;stroke:rgb(100%,100%,100%);stroke-opacity:1;stroke-miterlimit:10;" d="M 206.882813 69.480469 L 205.601563 76 L 205.625 79.601563 L 206.578125 89.878906 L 199.628906 101.503906 L 199.792969 107.851563 L 200.371094 112.226563 L 202.152344 114.257813 L 203.363281 117.269531 L 204.0625 118.167969 L 205.183594 119.347656 L 206.617188 120.953125 L 209.734375 121.582031 L 212.914063 121.710938 L 216.296875 120.328125 L 219.21875 118.75 L 222.761719 116.527344 L 227.847656 113.828125 L 236.6875 111.691406 L 242.960938 106.726563 L 249.714844 96.347656 L 258.542969 92.863281 L 259.707031 91.804688 L 260.335938 90.253906 L 259.988281 85.472656 L 261.734375 80.875 L 262.691406 75.875 L 261.175781 73.859375 L 251.390625 58.703125 L 250.085938 56.21875 L 248.035156 49.417969 L 247.335938 46.34375 L 246.960938 40.476563 L 247.496094 35.289063 L 248.710938 30.914063 L 253.671875 19.328125 L 253.90625 17.964844 L 253.695313 14.609375 L 253.347656 12.964844 L 251.902344 10.449219 L 250.011719 8.5 "/>
<path style="fill:none;stroke-width:6;stroke-linecap:round;stroke-linejoin:round;stroke:rgb(100%,100%,100%);stroke-opacity:1;stroke-miterlimit:10;" d="M 262.691406 75.875 L 264 77.628906 M 264 208.113281 L 260.757813 208.527344 L 256.609375 209.953125 L 251.390625 213.464844 L 247.800781 216.910156 L 245.425781 220.324219 L 239.550781 233.957031 L 238.480469 237.589844 L 237.875 241.964844 L 237.476563 257.988281 L 236.429688 263.949219 L 236.402344 264 "/>
<path style="fill:none;stroke-width:6;stroke-linecap:round;stroke-linejoin:round;stroke:rgb(100%,100%,100%);stroke-opacity:1;stroke-miterlimit:10;" d="M -9 263.058594 L 6.699219 246.75 L 11.40625 241.5625 L 12.78125 238.644531 L 13.734375 234.328125 L 15.109375 228.492188 L 23.546875 213.867188 L 27.808594 207.71875 L 29.511719 206.136719 L 30.605469 205.605469 L 37.222656 204.179688 L 42.09375 201.882813 L 50.738281 195.484375 L 53.136719 194.492188 L 60.945313 193.125 L 62.550781 192.875 L 65.859375 191.542969 L 71.59375 187.472656 L 73.691406 185.144531 L 79.492188 176.792969 L 82.683594 173.035156 L 85.691406 170.179688 L 86.925781 167.882813 L 87.460938 166.390625 L 87.925781 161.949219 L 87.578125 158.253906 L 85.667969 152.292969 L 84.410156 146.019531 L 84.410156 144.4375 L 88.511719 127.203125 L 89.441406 121.644531 L 87.992188 116.925781 "/>
<path style="fill:none;stroke-width:6;stroke-linecap:round;stroke-linejoin:round;stroke:rgb(100%,100%,100%);stroke-opacity:1;stroke-miterlimit:10;" d="M 77.960938 264 L 82.523438 257.707031 L 88.929688 251.652344 L 102.304688 241.46875 L 120.96875 218.277344 L 127.492188 211.351563 L 133.015625 205.980469 L 148.558594 191.757813 L 165.476563 176.917969 L 171.953125 168.9375 L 174.050781 165.273438 L 175.636719 161.019531 L 175.984375 156.828125 L 175.820313 153.660156 L 174.445313 144.996094 L 174.703125 140.804688 L 175.144531 138.878906 L 186.308594 109.660156 L 192.527344 94.601563 L 199.519531 81.714844 L 206.882813 69.480469 L 208.046875 60.503906 L 208.28125 54.140625 L 207.90625 49.964844 L 206.699219 47.117188 "/>
<path style="fill:none;stroke-width:6;stroke-linecap:round;stroke-linejoin:round;stroke:rgb(100%,100%,100%);stroke-opacity:1;stroke-miterlimit:10;" d="M -9 11.914063 L -7.375 11.511719 L -4.816406 9.886719 L -2.8125 5.878906 L -0.8125 2.011719 L 3.6875 -1.496094 L 5.855469 -3.363281 "/>
<path style="fill:none;stroke-width:6;stroke-linecap:round;stroke-linejoin:round;stroke:rgb(100%,100%,100%);stroke-opacity:1;stroke-miterlimit:10;" d="M 114.320313 -9 L 113.128906 -6.691406 L 110.160156 -3.769531 L 106.539063 -0.0859375 L 103.339844 3.867188 L 100.488281 11.441406 L 97.550781 24.296875 L 97.878906 27.371094 L 98.667969 29.855469 "/>
<path style="fill:none;stroke-width:6;stroke-linecap:round;stroke-linejoin:round;stroke:rgb(100%,100%,100%);stroke-opacity:1;stroke-miterlimit:10;" d="M 98.667969 29.855469 L 101.117188 33.820313 L 96.503906 39.078125 L 92.050781 45.195313 L 90.699219 46.3125 L 88.066406 46.902344 L 85.992188 46.65625 L 83.988281 45.351563 L 81.171875 40.753906 L 79.957031 40.011719 L 70.382813 41.316406 L 55.398438 41.625 L 39.832031 41.5 L 37.082031 41.875 L 31.601563 42.953125 L 25.785156 43.757813 L 18.460938 44.054688 L 14.351563 43.214844 L 9.527344 41.277344 L 5.277344 38.542969 L 1.75 34.632813 L 0.164063 31.148438 L -0.253906 28.171875 L -0.421875 24.800781 L -0.0234375 18.554688 L 0.605469 15.011719 L 4.960938 3.679688 L 5.925781 -1.738281 L 5.855469 -3.363281 L 5.785156 -5.0625 L 5.234375 -9 "/>
<path style="fill:none;stroke-width:6;stroke-linecap:round;stroke-linejoin:round;stroke:rgb(100%,100%,100%);stroke-opacity:1;stroke-miterlimit:10;" d="M 101.117188 33.820313 L 105.21875 31.84375 L 110.738281 30.382813 L 119.082031 29.390625 L 122.320313 28.582031 L 129.101563 26.191406 L 132.96875 24.203125 L 136.558594 21.316406 L 140.285156 17.09375 L 142.058594 14.300781 L 145.414063 7.746094 L 150.191406 -2.625 L 154.765625 -9 M 260.65625 -9 L 261.554688 -8.363281 "/>
<path style="fill:none;stroke-width:9;stroke-linecap:round;stroke-linejoin:round;stroke:rgb(100%,76.470588%,27.058824%);stroke-opacity:1;stroke-miterlimit:10;" d="M -12 161.222656 L -6.515625 157.261719 L 3.621094 151.144531 L 13.082031 146.488281 L 22.195313 142.480469 L 26.714844 140.804688 L 68.75 125.527344 L 83.527344 119.046875 L 87.992188 116.925781 L 103.234375 108.878906 L 116.761719 100.546875 L 137.292969 87.296875 L 162.636719 73.554688 L 193.320313 55.476563 L 206.019531 47.542969 L 217.207031 40.257813 L 225.476563 33.894531 L 232.5625 27.777344 L 242.675781 17.652344 L 250.011719 8.5 L 261.554688 -8.363281 L 263.96875 -12 "/>
<path style=" stroke:none;fill-rule:evenodd;fill:rgb(33.333333%,33.333333%,33.333333%);fill-opacity:1;" d="M 116.054688 95.9375 L 117.976563 94.703125 L 123.632813 98.1875 L 120.367188 93.140625 L 121.992188 92.109375 L 126.742188 99.46875 L 124.835938 100.6875 L 119.179688 97.203125 L 122.429688 102.25 L 120.804688 103.296875 Z M 122.722656 91.632813 L 124.582031 90.429688 L 127.800781 92.085938 L 127.613281 88.476563 L 129.472656 87.273438 L 129.707031 93.164063 L 131.707031 96.257813 L 129.988281 97.367188 L 127.988281 94.273438 Z M 138.960938 89.769531 L 141.960938 88.019531 L 142.789063 89.457031 L 137.851563 92.332031 L 137.023438 90.894531 L 138.085938 87.019531 C 138.167969 86.675781 138.199219 86.371094 138.179688 86.097656 C 138.167969 85.816406 138.09375 85.5625 137.960938 85.332031 C 137.75 84.980469 137.476563 84.761719 137.132813 84.675781 C 136.800781 84.582031 136.457031 84.640625 136.101563 84.847656 C 135.832031 85.003906 135.570313 85.238281 135.320313 85.550781 C 135.0625 85.863281 134.820313 86.261719 134.601563 86.738281 L 133.632813 85.082031 C 133.945313 84.707031 134.28125 84.371094 134.632813 84.066406 C 134.976563 83.765625 135.332031 83.503906 135.695313 83.285156 C 136.507813 82.816406 137.25 82.652344 137.929688 82.785156 C 138.617188 82.910156 139.167969 83.332031 139.585938 84.050781 C 139.824219 84.457031 139.949219 84.902344 139.960938 85.378906 C 139.96875 85.847656 139.84375 86.5625 139.585938 87.519531 Z M 144.339844 88.375 L 143.574219 86.953125 C 143.925781 86.945313 144.253906 86.90625 144.558594 86.84375 C 144.859375 86.773438 145.140625 86.667969 145.402344 86.53125 C 145.933594 86.242188 146.253906 85.855469 146.371094 85.375 C 146.496094 84.886719 146.402344 84.304688 146.089844 83.625 C 145.972656 83.917969 145.816406 84.171875 145.621094 84.390625 C 145.433594 84.609375 145.203125 84.792969 144.933594 84.9375 C 144.222656 85.324219 143.53125 85.40625 142.855469 85.1875 C 142.179688 84.960938 141.636719 84.46875 141.230469 83.71875 C 140.773438 82.886719 140.652344 82.09375 140.871094 81.34375 C 141.082031 80.585938 141.589844 79.980469 142.402344 79.53125 C 143.308594 79.042969 144.1875 79 145.042969 79.40625 C 145.90625 79.8125 146.671875 80.636719 147.339844 81.875 C 148.027344 83.148438 148.277344 84.304688 148.089844 85.34375 C 147.910156 86.386719 147.324219 87.179688 146.324219 87.71875 C 145.988281 87.898438 145.660156 88.039063 145.339844 88.140625 C 145.015625 88.246094 144.683594 88.324219 144.339844 88.375 Z M 144.542969 83.46875 C 144.855469 83.304688 145.027344 83.070313 145.058594 82.765625 C 145.089844 82.453125 144.984375 82.074219 144.746094 81.625 C 144.503906 81.179688 144.246094 80.882813 143.964844 80.734375 C 143.683594 80.589844 143.386719 80.601563 143.074219 80.765625 C 142.753906 80.945313 142.582031 81.1875 142.558594 81.5 C 142.527344 81.8125 142.632813 82.195313 142.871094 82.640625 C 143.113281 83.089844 143.367188 83.386719 143.636719 83.53125 C 143.917969 83.667969 144.21875 83.648438 144.542969 83.46875 Z M 152.257813 78.949219 C 152.796875 78.824219 153.277344 78.863281 153.695313 79.058594 C 154.121094 79.257813 154.46875 79.613281 154.742188 80.121094 C 155.15625 80.882813 155.210938 81.605469 154.898438 82.292969 C 154.585938 82.980469 153.929688 83.597656 152.929688 84.136719 C 152.5625 84.335938 152.1875 84.496094 151.804688 84.621094 C 151.417969 84.746094 151.011719 84.839844 150.585938 84.902344 L 149.757813 83.371094 C 150.203125 83.371094 150.617188 83.335938 150.992188 83.261719 C 151.375 83.179688 151.726563 83.054688 152.039063 82.886719 C 152.515625 82.628906 152.828125 82.335938 152.976563 82.011719 C 153.121094 81.691406 153.105469 81.363281 152.929688 81.027344 C 152.730469 80.675781 152.453125 80.476563 152.101563 80.433594 C 151.757813 80.394531 151.335938 80.507813 150.835938 80.777344 L 150.117188 81.167969 L 149.414063 79.902344 L 150.164063 79.480469 C 150.601563 79.253906 150.886719 79.003906 151.023438 78.730469 C 151.167969 78.449219 151.152344 78.148438 150.976563 77.824219 C 150.820313 77.535156 150.589844 77.367188 150.289063 77.324219 C 150 77.273438 149.65625 77.351563 149.257813 77.558594 C 148.976563 77.714844 148.710938 77.910156 148.460938 78.136719 C 148.203125 78.355469 147.960938 78.621094 147.742188 78.933594 L 146.960938 77.480469 C 147.253906 77.167969 147.554688 76.894531 147.867188 76.652344 C 148.179688 76.414063 148.503906 76.207031 148.835938 76.027344 C 149.742188 75.539063 150.507813 75.339844 151.132813 75.433594 C 151.757813 75.519531 152.246094 75.894531 152.601563 76.558594 C 152.839844 77.007813 152.933594 77.429688 152.882813 77.824219 C 152.828125 78.222656 152.621094 78.597656 152.257813 78.949219 Z M 152.257813 78.949219 "/>
</g>
</svg>

