<?xml version="1.0" encoding="UTF-8"?>
<svg xmlns="http://www.w3.org/2000/svg" xmlns:xlink="http://www.w3.org/1999/xlink" width="256pt" height="256pt" viewBox="0 0 256 256" version="1.1">
<g id="surface2">
<rect x="0" y="0" width="256" height="256" style="fill:rgb(94.901961%,93.72549%,91.372549%);fill-opacity:1;stroke:none;"/>
<path style=" stroke:none;fill-rule:evenodd;fill:rgb(60%,70.196078%,80%);fill-opacity:1;" d="M -4 259 L 259 259 L 259 -4 L -4 -4 L -4 49.363281 L -3.054688 50.484375 L 3.378906 53.503906 L 6.621094 57.144531 L 6.839844 68.140625 L 6.28125 70.375 L 4.8125 70.992188 L 3.476563 70.242188 L 1.34375 68.109375 L -3.320313 66.175781 L -4 71.839844 L 1.746094 74.308594 L 5.945313 82.910156 L 1.945313 96.777344 L 3.34375 98.644531 L 3.476563 101.179688 L -2.523438 114.378906 L -4 127.460938 Z M -4 259 "/>
<path style="fill:none;stroke-width:1;stroke-linecap:round;stroke-linejoin:round;stroke:rgb(70.196078%,77.647059%,83.137255%);stroke-opacity:1;stroke-miterlimit:10;" d="M -4 259 L 259 259 L 259 -4 L -4 -4 L -4 49.363281 L -3.054688 50.484375 L 3.378906 53.503906 L 6.621094 57.144531 L 6.839844 68.140625 L 6.28125 70.375 L 4.8125 70.992188 L 3.476563 70.242188 L 1.34375 68.109375 L -3.320313 66.175781 L -4 71.839844 L 1.746094 74.308594 L 5.945313 82.910156 L 1.945313 96.777344 L 3.34375 98.644531 L 3.476563 101.179688 L -2.523438 114.378906 L -4 127.460938 L -4 259 "/>
<path style=" stroke:none;fill-rule:evenodd;fill:rgb(60%,70.196078%,80%);fill-opacity:1;" d="M -4 259 L 259 259 L 259 -4 L -4 -4 L -4 49.363281 L -3.054688 50.484375 L 3.378906 53.503906 L 6.621094 57.144531 L 6.839844 68.140625 L 6.28125 70.375 L 4.8125 70.992188 L 3.476563 70.242188 L 1.34375 68.109375 L -3.320313 66.175781 L -4 71.839844 L 1.746094 74.308594 L 5.945313 82.910156 L 1.945313 96.777344 L 3.34375 98.644531 L 3.476563 101.179688 L -2.523438 114.378906 L -4 127.460938 Z M -4 259 "/>
<path style="fill:none;stroke-width:1;stroke-linecap:round;stroke-linejoin:round;stroke:rgb(70.196078%,77.647059%,83.137255%);stroke-opacity:1;stroke-miterlimit:10;" d="M -4 259 L 259 259 L 259 -4 L -4 -4 L -4 49.363281 L -3.054688 50.484375 L 3.378906 53.503906 L 6.621094 57.144531 L 6.839844 68.140625 L 6.28125 70.375 L 4.8125 70.992188 L 3.476563 70.242188 L 1.34375 68.109375 L -3.320313 66.175781 L -4 71.839844 L 1.746094 74.308594 L 5.945313 82.910156 L 1.945313 96.777344 L 3.34375 98.644531 L 3.476563 101.179688 L -2.523438 114.378906 L -4 127.460938 L -4 259 "/>
<path style="fill:none;stroke-width:6;stroke-linecap:round;stroke-linejoin:round;stroke:rgb(60%,70.196078%,80%);stroke-opacity:1;stroke-miterlimit:10;" d="M 242.804688 -7 L 190.933594 258.839844 L 190.261719 262 "/>
<path style="fill:none;stroke-width:3;stroke-linecap:round;stroke-linejoin:round;stroke:rgb(100%,100%,100%);stroke-opacity:1;stroke-miterlimit:10;" d="M 204.871094 163.957031 L 205.089844 162.847656 L 208.917969 163.582031 L 209.730469 159.457031 L 205.902344 158.722656 L 206.121094 157.582031 L 215.433594 159.394531 L 215.214844 160.535156 L 210.777344 159.675781 L 209.964844 163.800781 L 214.402344 164.660156 L 214.183594 165.769531 Z M 213.070313 156.761719 L 208.851563 155.933594 L 209.054688 154.902344 L 213.242188 155.714844 C 213.898438 155.839844 214.421875 155.824219 214.804688 155.667969 C 215.179688 155.503906 215.410156 155.191406 215.492188 154.730469 C 215.609375 154.167969 215.5 153.691406 215.164063 153.292969 C 214.832031 152.886719 214.328125 152.617188 213.648438 152.480469 L 209.679688 151.714844 L 209.882813 150.683594 L 216.867188 152.042969 L 216.664063 153.074219 L 215.585938 152.871094 C 215.96875 153.207031 216.230469 153.558594 216.367188 153.933594 C 216.511719 154.300781 216.542969 154.699219 216.460938 155.136719 C 216.3125 155.855469 215.953125 156.355469 215.382813 156.636719 C 214.8125 156.910156 214.039063 156.949219 213.070313 156.761719 Z M 209.210938 153.308594 Z M 212.164063 144.617188 L 208.398438 143.882813 L 208.601563 142.867188 L 218.289063 144.757813 L 218.085938 145.773438 L 217.039063 145.570313 C 217.414063 145.875 217.667969 146.210938 217.804688 146.585938 C 217.949219 146.953125 217.976563 147.363281 217.882813 147.820313 C 217.734375 148.582031 217.277344 149.140625 216.507813 149.492188 C 215.738281 149.835938 214.804688 149.90625 213.710938 149.695313 C 212.617188 149.476563 211.785156 149.066406 211.210938 148.460938 C 210.628906 147.847656 210.410156 147.160156 210.554688 146.398438 C 210.648438 145.941406 210.828125 145.566406 211.085938 145.273438 C 211.347656 144.972656 211.707031 144.753906 212.164063 144.617188 Z M 213.914063 148.617188 C 214.757813 148.773438 215.453125 148.742188 215.992188 148.523438 C 216.535156 148.304688 216.859375 147.925781 216.960938 147.382813 C 217.066406 146.832031 216.910156 146.351563 216.492188 145.945313 C 216.078125 145.539063 215.445313 145.257813 214.601563 145.101563 C 213.757813 144.9375 213.066406 144.960938 212.523438 145.179688 C 211.984375 145.398438 211.660156 145.785156 211.554688 146.335938 C 211.453125 146.878906 211.609375 147.351563 212.023438 147.757813 C 212.441406 148.164063 213.070313 148.453125 213.914063 148.617188 Z M 212.710938 137.285156 L 213.804688 137.503906 C 213.578125 137.777344 213.390625 138.058594 213.242188 138.347656 C 213.097656 138.640625 212.992188 138.957031 212.929688 139.300781 C 212.828125 139.8125 212.84375 140.214844 212.976563 140.503906 C 213.101563 140.796875 213.335938 140.980469 213.679688 141.050781 C 213.953125 141.105469 214.179688 141.050781 214.367188 140.894531 C 214.546875 140.730469 214.757813 140.386719 215.007813 139.863281 L 215.164063 139.535156 C 215.488281 138.828125 215.835938 138.355469 216.210938 138.113281 C 216.585938 137.875 217.054688 137.8125 217.617188 137.925781 C 218.273438 138.050781 218.742188 138.378906 219.023438 138.910156 C 219.3125 139.441406 219.382813 140.109375 219.226563 140.910156 C 219.164063 141.246094 219.058594 141.589844 218.914063 141.941406 C 218.765625 142.296875 218.578125 142.660156 218.351563 143.035156 L 217.179688 142.800781 C 217.472656 142.457031 217.710938 142.113281 217.898438 141.769531 C 218.078125 141.425781 218.203125 141.066406 218.273438 140.691406 C 218.367188 140.214844 218.347656 139.828125 218.210938 139.535156 C 218.078125 139.234375 217.835938 139.050781 217.492188 138.988281 C 217.191406 138.925781 216.9375 138.980469 216.726563 139.144531 C 216.519531 139.300781 216.28125 139.675781 216.007813 140.269531 L 215.851563 140.613281 C 215.570313 141.230469 215.25 141.652344 214.882813 141.878906 C 214.519531 142.109375 214.066406 142.167969 213.523438 142.050781 C 212.867188 141.925781 212.40625 141.621094 212.132813 141.128906 C 211.863281 140.628906 211.800781 140 211.945313 139.238281 C 212.03125 138.855469 212.132813 138.5 212.257813 138.175781 C 212.375 137.855469 212.523438 137.558594 212.710938 137.285156 Z M 214.160156 133.007813 C 214.058594 133.5625 214.214844 134.046875 214.628906 134.460938 C 215.046875 134.878906 215.671875 135.171875 216.503906 135.335938 C 217.347656 135.492188 218.042969 135.457031 218.582031 135.226563 C 219.125 135 219.449219 134.609375 219.550781 134.054688 C 219.65625 133.503906 219.5 133.019531 219.082031 132.601563 C 218.667969 132.1875 218.042969 131.898438 217.207031 131.742188 C 216.386719 131.578125 215.699219 131.609375 215.144531 131.835938 C 214.59375 132.066406 214.265625 132.457031 214.160156 133.007813 Z M 213.207031 132.820313 C 213.386719 131.925781 213.847656 131.285156 214.597656 130.898438 C 215.339844 130.515625 216.28125 130.4375 217.425781 130.664063 C 218.574219 130.882813 219.421875 131.3125 219.972656 131.945313 C 220.523438 132.582031 220.710938 133.347656 220.535156 134.242188 C 220.355469 135.148438 219.894531 135.796875 219.144531 136.179688 C 218.394531 136.566406 217.449219 136.648438 216.300781 136.429688 C 215.15625 136.203125 214.3125 135.769531 213.769531 135.132813 C 213.21875 134.5 213.03125 133.726563 213.207031 132.820313 Z M 218.046875 123.578125 L 222.265625 124.40625 L 222.0625 125.421875 L 217.890625 124.609375 C 217.226563 124.476563 216.703125 124.496094 216.328125 124.671875 C 215.953125 124.851563 215.71875 125.167969 215.625 125.625 C 215.523438 126.179688 215.636719 126.65625 215.96875 127.0625 C 216.304688 127.460938 216.8125 127.726563 217.5 127.859375 L 221.4375 128.625 L 221.234375 129.65625 L 214.25 128.296875 L 214.453125 127.265625 L 215.546875 127.46875 C 215.183594 127.148438 214.929688 126.796875 214.78125 126.421875 C 214.636719 126.046875 214.605469 125.640625 214.6875 125.203125 C 214.835938 124.484375 215.195313 123.992188 215.765625 123.71875 C 216.328125 123.4375 217.089844 123.390625 218.046875 123.578125 Z M 219.804688 113.832031 C 219.941406 113.605469 220.179688 113.402344 220.523438 113.222656 C 220.867188 113.046875 221.320313 112.894531 221.882813 112.769531 L 224.664063 112.113281 L 224.414063 113.347656 L 221.820313 113.941406 C 221.144531 114.089844 220.679688 114.277344 220.429688 114.503906 C 220.179688 114.722656 220.015625 115.058594 219.929688 115.503906 L 219.679688 116.753906 L 223.601563 117.519531 L 223.382813 118.628906 L 214.070313 116.816406 L 214.570313 114.269531 C 214.757813 113.3125 215.125 112.640625 215.664063 112.253906 C 216.207031 111.871094 216.925781 111.765625 217.820313 111.941406 C 218.40625 112.058594 218.867188 112.277344 219.210938 112.597656 C 219.546875 112.921875 219.742188 113.332031 219.804688 113.832031 Z M 215.335938 115.910156 L 218.632813 116.550781 L 218.914063 115.113281 C 219.019531 114.5625 218.960938 114.121094 218.742188 113.785156 C 218.515625 113.453125 218.128906 113.234375 217.585938 113.128906 C 217.046875 113.027344 216.609375 113.089844 216.273438 113.316406 C 215.941406 113.535156 215.722656 113.921875 215.617188 114.472656 Z M 217.953125 109.339844 L 218.140625 108.324219 L 225.125 109.683594 L 224.9375 110.699219 Z M 215.25 108.808594 L 215.4375 107.792969 L 216.890625 108.074219 L 216.703125 109.089844 Z M 218.421875 106.898438 L 218.640625 105.820313 L 224.875 104.992188 L 219.40625 101.882813 L 219.625 100.789063 L 226.140625 104.507813 L 225.875 105.898438 Z M 224.167969 94.621094 L 224.714844 94.730469 L 223.777344 99.480469 C 224.582031 99.585938 225.226563 99.488281 225.714844 99.183594 C 226.207031 98.882813 226.511719 98.386719 226.636719 97.699219 C 226.71875 97.304688 226.738281 96.914063 226.699219 96.527344 C 226.667969 96.132813 226.585938 95.730469 226.449219 95.324219 L 227.527344 95.542969 C 227.628906 95.941406 227.6875 96.339844 227.699219 96.746094 C 227.71875 97.144531 227.691406 97.542969 227.621094 97.949219 C 227.421875 98.949219 226.941406 99.683594 226.183594 100.152344 C 225.414063 100.613281 224.476563 100.730469 223.371094 100.511719 C 222.226563 100.292969 221.378906 99.839844 220.824219 99.152344 C 220.261719 98.464844 220.070313 97.648438 220.246094 96.699219 C 220.414063 95.855469 220.847656 95.246094 221.542969 94.871094 C 222.242188 94.496094 223.117188 94.414063 224.167969 94.621094 Z M 223.621094 95.605469 C 222.996094 95.480469 222.464844 95.535156 222.027344 95.761719 C 221.582031 95.992188 221.308594 96.367188 221.214844 96.886719 C 221.101563 97.460938 221.195313 97.957031 221.496094 98.371094 C 221.789063 98.777344 222.257813 99.074219 222.902344 99.261719 Z M 223.0625 88.863281 C 222.96875 88.96875 222.890625 89.089844 222.828125 89.222656 C 222.765625 89.347656 222.71875 89.496094 222.6875 89.660156 C 222.574219 90.246094 222.699219 90.734375 223.0625 91.128906 C 223.417969 91.515625 223.984375 91.785156 224.765625 91.941406 L 228.453125 92.660156 L 228.25 93.691406 L 221.265625 92.332031 L 221.46875 91.300781 L 222.5625 91.503906 C 222.179688 91.203125 221.917969 90.859375 221.78125 90.472656 C 221.648438 90.089844 221.625 89.652344 221.71875 89.160156 C 221.742188 89.089844 221.765625 89.011719 221.796875 88.925781 C 221.820313 88.84375 221.851563 88.75 221.890625 88.644531 Z M 223.0625 88.863281 "/>
<path style=" stroke:none;fill-rule:evenodd;fill:rgb(41.960784%,58.039216%,69.019608%);fill-opacity:1;" d="M 204.871094 163.957031 L 205.089844 162.847656 L 208.917969 163.582031 L 209.730469 159.457031 L 205.902344 158.722656 L 206.121094 157.582031 L 215.433594 159.394531 L 215.214844 160.535156 L 210.777344 159.675781 L 209.964844 163.800781 L 214.402344 164.660156 L 214.183594 165.769531 Z M 213.070313 156.761719 L 208.851563 155.933594 L 209.054688 154.902344 L 213.242188 155.714844 C 213.898438 155.839844 214.421875 155.824219 214.804688 155.667969 C 215.179688 155.503906 215.410156 155.191406 215.492188 154.730469 C 215.609375 154.167969 215.5 153.691406 215.164063 153.292969 C 214.832031 152.886719 214.328125 152.617188 213.648438 152.480469 L 209.679688 151.714844 L 209.882813 150.683594 L 216.867188 152.042969 L 216.664063 153.074219 L 215.585938 152.871094 C 215.96875 153.207031 216.230469 153.558594 216.367188 153.933594 C 216.511719 154.300781 216.542969 154.699219 216.460938 155.136719 C 216.3125 155.855469 215.953125 156.355469 215.382813 156.636719 C 214.8125 156.910156 214.039063 156.949219 213.070313 156.761719 Z M 209.210938 153.308594 Z M 212.164063 144.617188 L 208.398438 143.882813 L 208.601563 142.867188 L 218.289063 144.757813 L 218.085938 145.773438 L 217.039063 145.570313 C 217.414063 145.875 217.667969 146.210938 217.804688 146.585938 C 217.949219 146.953125 217.976563 147.363281 217.882813 147.820313 C 217.734375 148.582031 217.277344 149.140625 216.507813 149.492188 C 215.738281 149.835938 214.804688 149.90625 213.710938 149.695313 C 212.617188 149.476563 211.785156 149.066406 211.210938 148.460938 C 210.628906 147.847656 210.410156 147.160156 210.554688 146.398438 C 210.648438 145.941406 210.828125 145.566406 211.085938 145.273438 C 211.347656 144.972656 211.707031 144.753906 212.164063 144.617188 Z M 213.914063 148.617188 C 214.757813 148.773438 215.453125 148.742188 215.992188 148.523438 C 216.535156 148.304688 216.859375 147.925781 216.960938 147.382813 C 217.066406 146.832031 216.910156 146.351563 216.492188 145.945313 C 216.078125 145.539063 215.445313 145.257813 214.601563 145.101563 C 213.757813 144.9375 213.066406 144.960938 212.523438 145.179688 C 211.984375 145.398438 211.660156 145.785156 211.554688 146.335938 C 211.453125 146.878906 211.609375 147.351563 212.023438 147.757813 C 212.441406 148.164063 213.070313 148.453125 213.914063 148.617188 Z M 212.710938 137.285156 L 213.804688 137.503906 C 213.578125 137.777344 213.390625 138.058594 213.242188 138.347656 C 213.097656 138.640625 212.992188 138.957031 212.929688 139.300781 C 212.828125 139.8125 212.84375 140.214844 212.976563 140.503906 C 213.101563 140.796875 213.335938 140.980469 213.679688 141.050781 C 213.953125 141.105469 214.179688 141.050781 214.367188 140.894531 C 214.546875 140.730469 214.757813 140.386719 215.007813 139.863281 L 215.164063 139.535156 C 215.488281 138.828125 215.835938 138.355469 216.210938 138.113281 C 216.585938 137.875 217.054688 137.8125 217.617188 137.925781 C 218.273438 138.050781 218.742188 138.378906 219.023438 138.910156 C 219.3125 139.441406 219.382813 140.109375 219.226563 140.910156 C 219.164063 141.246094 219.058594 141.589844 218.914063 141.941406 C 218.765625 142.296875 218.578125 142.660156 218.351563 143.035156 L 217.179688 142.800781 C 217.472656 142.457031 217.710938 142.113281 217.898438 141.769531 C 218.078125 141.425781 218.203125 141.066406 218.273438 140.691406 C 218.367188 140.214844 218.347656 139.828125 218.210938 139.535156 C 218.078125 139.234375 217.835938 139.050781 217.492188 138.988281 C 217.191406 138.925781 216.9375 138.980469 216.726563 139.144531 C 216.519531 139.300781 216.28125 139.675781 216.007813 140.269531 L 215.851563 140.613281 C 215.570313 141.230469 215.25 141.652344 214.882813 141.878906 C 214.519531 142.109375 214.066406 142.167969 213.523438 142.050781 C 212.867188 141.925781 212.40625 141.621094 212.132813 141.128906 C 211.863281 140.628906 211.800781 140 211.945313 139.238281 C 212.03125 138.855469 212.132813 138.5 212.257813 138.175781 C 212.375 137.855469 212.523438 137.558594 212.710938 137.285156 Z M 214.160156 133.007813 C 214.058594 133.5625 214.214844 134.046875 214.628906 134.460938 C 215.046875 134.878906 215.671875 135.171875 216.503906 135.335938 C 217.347656 135.492188 218.042969 135.457031 218.582031 135.226563 C 219.125 135 219.449219 134.609375 219.550781 134.054688 C 219.65625 133.503906 219.5 133.019531 219.082031 132.601563 C 218.667969 132.1875 218.042969 131.898438 217.207031 131.742188 C 216.386719 131.578125 215.699219 131.609375 215.144531 131.835938 C 214.59375 132.066406 214.265625 132.457031 214.160156 133.007813 Z M 213.207031 132.820313 C 213.386719 131.925781 213.847656 131.285156 214.597656 130.898438 C 215.339844 130.515625 216.28125 130.4375 217.425781 130.664063 C 218.574219 130.882813 219.421875 131.3125 219.972656 131.945313 C 220.523438 132.582031 220.710938 133.347656 220.535156 134.242188 C 220.355469 135.148438 219.894531 135.796875 219.144531 136.179688 C 218.394531 136.566406 217.449219 136.648438 216.300781 136.429688 C 215.15625 136.203125 214.3125 135.769531 213.769531 135.132813 C 213.21875 134.5 213.03125 133.726563 213.207031 132.820313 Z M 218.046875 123.578125 L 222.265625 124.40625 L 222.0625 125.421875 L 217.890625 124.609375 C 217.226563 124.476563 216.703125 124.496094 216.328125 124.671875 C 215.953125 124.851563 215.71875 125.167969 215.625 125.625 C 215.523438 126.179688 215.636719 126.65625 215.96875 127.0625 C 216.304688 127.460938 216.8125 127.726563 217.5 127.859375 L 221.4375 128.625 L 221.234375 129.65625 L 214.25 128.296875 L 214.453125 127.265625 L 215.546875 127.46875 C 215.183594 127.148438 214.929688 126.796875 214.78125 126.421875 C 214.636719 126.046875 214.605469 125.640625 214.6875 125.203125 C 214.835938 124.484375 215.195313 123.992188 215.765625 123.71875 C 216.328125 123.4375 217.089844 123.390625 218.046875 123.578125 Z M 219.804688 113.832031 C 219.941406 113.605469 220.179688 113.402344 220.523438 113.222656 C 220.867188 113.046875 221.320313 112.894531 221.882813 112.769531 L 224.664063 112.113281 L 224.414063 113.347656 L 221.820313 113.941406 C 221.144531 114.089844 220.679688 114.277344 220.429688 114.503906 C 220.179688 114.722656 220.015625 115.058594 219.929688 115.503906 L 219.679688 116.753906 L 223.601563 117.519531 L 223.382813 118.628906 L 214.070313 116.816406 L 214.570313 114.269531 C 214.757813 113.3125 215.125 112.640625 215.664063 112.253906 C 216.207031 111.871094 216.925781 111.765625 217.820313 111.941406 C 218.40625 112.058594 218.867188 112.277344 219.210938 112.597656 C 219.546875 112.921875 219.742188 113.332031 219.804688 113.832031 Z M 215.335938 115.910156 L 218.632813 116.550781 L 218.914063 115.113281 C 219.019531 114.5625 218.960938 114.121094 218.742188 113.785156 C 218.515625 113.453125 218.128906 113.234375 217.585938 113.128906 C 217.046875 113.027344 216.609375 113.089844 216.273438 113.316406 C 215.941406 113.535156 215.722656 113.921875 215.617188 114.472656 Z M 217.953125 109.339844 L 218.140625 108.324219 L 225.125 109.683594 L 224.9375 110.699219 Z M 215.25 108.808594 L 215.4375 107.792969 L 216.890625 108.074219 L 216.703125 109.089844 Z M 218.421875 106.898438 L 218.640625 105.820313 L 224.875 104.992188 L 219.40625 101.882813 L 219.625 100.789063 L 226.140625 104.507813 L 225.875 105.898438 Z M 224.167969 94.621094 L 224.714844 94.730469 L 223.777344 99.480469 C 224.582031 99.585938 225.226563 99.488281 225.714844 99.183594 C 226.207031 98.882813 226.511719 98.386719 226.636719 97.699219 C 226.71875 97.304688 226.738281 96.914063 226.699219 96.527344 C 226.667969 96.132813 226.585938 95.730469 226.449219 95.324219 L 227.527344 95.542969 C 227.628906 95.941406 227.6875 96.339844 227.699219 96.746094 C 227.71875 97.144531 227.691406 97.542969 227.621094 97.949219 C 227.421875 98.949219 226.941406 99.683594 226.183594 100.152344 C 225.414063 100.613281 224.476563 100.730469 223.371094 100.511719 C 222.226563 100.292969 221.378906 99.839844 220.824219 99.152344 C 220.261719 98.464844 220.070313 97.648438 220.246094 96.699219 C 220.414063 95.855469 220.847656 95.246094 221.542969 94.871094 C 222.242188 94.496094 223.117188 94.414063 224.167969 94.621094 Z M 223.621094 95.605469 C 222.996094 95.480469 222.464844 95.535156 222.027344 95.761719 C 221.582031 95.992188 221.308594 96.367188 221.214844 96.886719 C 221.101563 97.460938 221.195313 97.957031 221.496094 98.371094 C 221.789063 98.777344 222.257813 99.074219 222.902344 99.261719 Z M 223.0625 88.863281 C 222.96875 88.96875 222.890625 89.089844 222.828125 89.222656 C 222.765625 89.347656 222.71875 89.496094 222.6875 89.660156 C 222.574219 90.246094 222.699219 90.734375 223.0625 91.128906 C 223.417969 91.515625 223.984375 91.785156 224.765625 91.941406 L 228.453125 92.660156 L 228.25 93.691406 L 221.265625 92.332031 L 221.46875 91.300781 L 222.5625 91.503906 C 222.179688 91.203125 221.917969 90.859375 221.78125 90.472656 C 221.648438 90.089844 221.625 89.652344 221.71875 89.160156 C 221.742188 89.089844 221.765625 89.011719 221.796875 88.925781 C 221.820313 88.84375 221.851563 88.75 221.890625 88.644531 Z M 223.0625 88.863281 "/>
</g>
</svg>

