<?xml version="1.0" encoding="UTF-8"?>
<svg xmlns="http://www.w3.org/2000/svg" xmlns:xlink="http://www.w3.org/1999/xlink" width="256pt" height="256pt" viewBox="0 0 256 256" version="1.1">
<g id="surface2">
<rect x="0" y="0" width="256" height="256" style="fill:rgb(94.901961%,93.72549%,91.372549%);fill-opacity:1;stroke:none;"/>
<path style="fill:none;stroke-width:2;stroke-linecap:round;stroke-linejoin:round;stroke:rgb(60%,70.196078%,80%);stroke-opacity:1;stroke-miterlimit:10;" d="M -3 125.269531 L 7.167969 136 L 21.039063 152.675781 L 30.710938 170.238281 L 19.003906 201.796875 L 16.074219 228.015625 L 28.164063 254.738281 L 29.269531 258 "/>
<path style="fill:none;stroke-width:8;stroke-linecap:round;stroke-linejoin:round;stroke:rgb(75.686275%,70.980392%,61.568627%);stroke-opacity:1;stroke-miterlimit:10;" d="M -9 213.984375 L -5.851563 214.691406 L -0.00390625 214.785156 L 4.167969 214.691406 L 4.492188 223.242188 L 1.558594 230.980469 L -2.101563 235.695313 L -8.484375 240.191406 L -9 240.34375 "/>
<path style="fill:none;stroke-width:8;stroke-linecap:round;stroke-linejoin:round;stroke:rgb(75.686275%,70.980392%,61.568627%);stroke-opacity:1;stroke-miterlimit:10;" d="M -9 108.308594 L -6.644531 106.046875 L -5.851563 104.851563 L -5.269531 101.675781 L -5.269531 100.289063 L -6.460938 97.898438 L -8.042969 96.140625 L -9 95.320313 M -9 19.488281 L -2.289063 8.179688 L 6.613281 -5.28125 L 9.382813 -9 "/>
<path style="fill:none;stroke-width:8;stroke-linecap:round;stroke-linejoin:round;stroke:rgb(75.686275%,70.980392%,61.568627%);stroke-opacity:1;stroke-miterlimit:10;" d="M 244.542969 264 L 249.90625 243.558594 L 253.097656 229.628906 L 253.960938 226.640625 L 257.828125 218.277344 L 264 207.34375 "/>
<path style="fill:none;stroke-width:6;stroke-linecap:round;stroke-linejoin:round;stroke:rgb(100%,100%,100%);stroke-opacity:1;stroke-miterlimit:10;" d="M -9 213.984375 L -5.851563 214.691406 L -0.00390625 214.785156 L 4.167969 214.691406 L 4.492188 223.242188 L 1.558594 230.980469 L -2.101563 235.695313 L -8.484375 240.191406 L -9 240.34375 "/>
<path style="fill:none;stroke-width:6;stroke-linecap:round;stroke-linejoin:round;stroke:rgb(100%,100%,100%);stroke-opacity:1;stroke-miterlimit:10;" d="M -9 108.308594 L -6.644531 106.046875 L -5.851563 104.851563 L -5.269531 101.675781 L -5.269531 100.289063 L -6.460938 97.898438 L -8.042969 96.140625 L -9 95.320313 M -9 19.488281 L -2.289063 8.179688 L 6.613281 -5.28125 L 9.382813 -9 "/>
<path style="fill:none;stroke-width:6;stroke-linecap:round;stroke-linejoin:round;stroke:rgb(100%,100%,100%);stroke-opacity:1;stroke-miterlimit:10;" d="M 244.542969 264 L 249.90625 243.558594 L 253.097656 229.628906 L 253.960938 226.640625 L 257.828125 218.277344 L 264 207.34375 "/>
</g>
</svg>

