<?xml version="1.0" encoding="UTF-8"?>
<svg xmlns="http://www.w3.org/2000/svg" xmlns:xlink="http://www.w3.org/1999/xlink" width="256pt" height="256pt" viewBox="0 0 256 256" version="1.1">
<g id="surface2">
<rect x="0" y="0" width="256" height="256" style="fill:rgb(94.901961%,93.72549%,91.372549%);fill-opacity:1;stroke:none;"/>
<path style="fill:none;stroke-width:1;stroke-linecap:butt;stroke-linejoin:round;stroke:rgb(46.666667%,46.666667%,46.666667%);stroke-opacity:1;stroke-dasharray:2,2;stroke-miterlimit:10;" d="M -2 160.476563 L 45.671875 178.339844 L 89.402344 194.738281 L 100.898438 199.167969 L 156.890625 220.148438 L 254.820313 257 "/>
<path style="fill:none;stroke-width:8;stroke-linecap:round;stroke-linejoin:round;stroke:rgb(75.686275%,70.980392%,61.568627%);stroke-opacity:1;stroke-miterlimit:10;" d="M 149.96875 245.425781 L 143.089844 264 "/>
<path style="fill:none;stroke-width:8;stroke-linecap:round;stroke-linejoin:round;stroke:rgb(75.686275%,70.980392%,61.568627%);stroke-opacity:1;stroke-miterlimit:10;" d="M 149.96875 245.425781 L 156.890625 220.148438 L 158.382813 215.753906 L 190.859375 104.773438 L 204.722656 104.773438 "/>
<path style="fill:none;stroke-width:8;stroke-linecap:round;stroke-linejoin:round;stroke:rgb(75.686275%,70.980392%,61.568627%);stroke-opacity:1;stroke-miterlimit:10;" d="M 203.59375 264 L 178.835938 256.042969 L 149.96875 245.425781 L 65.523438 219.523438 L 34.503906 210.535156 L 30.90625 209.558594 L 27.191406 208.894531 L 23.324219 208.550781 L 19.347656 208.476563 L 15.347656 208.730469 L 11.394531 209.304688 L 7.867188 210.144531 L 4.210938 211.441406 L 0.441406 213.113281 L -3.136719 215.046875 L -6.875 217.503906 L -9 219.300781 "/>
<path style="fill:none;stroke-width:10;stroke-linecap:round;stroke-linejoin:round;stroke:rgb(75.686275%,70.980392%,61.568627%);stroke-opacity:1;stroke-miterlimit:10;" d="M 16.886719 266 L 14.90625 263.523438 L -8.382813 234.289063 L -11 231.0625 "/>
<path style="fill:none;stroke-width:6;stroke-linecap:round;stroke-linejoin:round;stroke:rgb(100%,100%,100%);stroke-opacity:1;stroke-miterlimit:10;" d="M 149.96875 245.425781 L 143.089844 264 "/>
<path style="fill:none;stroke-width:6;stroke-linecap:round;stroke-linejoin:round;stroke:rgb(100%,100%,100%);stroke-opacity:1;stroke-miterlimit:10;" d="M 149.96875 245.425781 L 156.890625 220.148438 L 158.382813 215.753906 L 190.859375 104.773438 L 204.722656 104.773438 "/>
<path style="fill:none;stroke-width:6;stroke-linecap:round;stroke-linejoin:round;stroke:rgb(100%,99.215686%,54.509804%);stroke-opacity:1;stroke-miterlimit:10;" d="M 203.59375 264 L 178.835938 256.042969 L 149.96875 245.425781 L 65.523438 219.523438 L 34.503906 210.535156 L 30.90625 209.558594 L 27.191406 208.894531 L 23.324219 208.550781 L 19.347656 208.476563 L 15.347656 208.730469 L 11.394531 209.304688 L 7.867188 210.144531 L 4.210938 211.441406 L 0.441406 213.113281 L -3.136719 215.046875 L -6.875 217.503906 L -9 219.300781 "/>
<path style="fill:none;stroke-width:8;stroke-linecap:round;stroke-linejoin:round;stroke:rgb(100%,99.215686%,54.509804%);stroke-opacity:1;stroke-miterlimit:10;" d="M 16.886719 266 L 14.90625 263.523438 L -8.382813 234.289063 L -11 231.0625 "/>
<path style="fill:none;stroke-width:3;stroke-linecap:round;stroke-linejoin:round;stroke:rgb(100%,100%,100%);stroke-opacity:1;stroke-miterlimit:10;" d="M 92.472656 192.617188 L 93.535156 192.617188 L 93.535156 196.210938 L 97.410156 196.210938 L 97.410156 192.617188 L 98.472656 192.617188 L 98.472656 201.367188 L 97.410156 201.367188 L 97.410156 197.195313 L 93.535156 197.195313 L 93.535156 201.367188 L 92.472656 201.367188 Z M 100.457031 198.773438 L 100.457031 194.804688 L 101.425781 194.804688 L 101.425781 198.742188 C 101.425781 199.359375 101.535156 199.820313 101.753906 200.132813 C 101.972656 200.445313 102.292969 200.601563 102.722656 200.601563 C 103.253906 200.601563 103.667969 200.421875 103.972656 200.054688 C 104.273438 199.679688 104.425781 199.171875 104.425781 198.523438 L 104.425781 194.804688 L 105.394531 194.804688 L 105.394531 201.367188 L 104.425781 201.367188 L 104.425781 200.351563 C 104.195313 200.757813 103.925781 201.0625 103.613281 201.257813 C 103.300781 201.445313 102.933594 201.539063 102.519531 201.539063 C 101.839844 201.539063 101.324219 201.304688 100.972656 200.835938 C 100.628906 200.367188 100.457031 199.679688 100.457031 198.773438 Z M 102.894531 194.648438 Z M 108.363281 192.945313 L 108.363281 194.804688 L 110.363281 194.804688 L 110.363281 195.648438 L 108.363281 195.648438 L 108.363281 199.210938 C 108.363281 199.742188 108.425781 200.085938 108.550781 200.242188 C 108.683594 200.390625 108.957031 200.460938 109.363281 200.460938 L 110.363281 200.460938 L 110.363281 201.367188 L 109.363281 201.367188 C 108.613281 201.367188 108.089844 201.210938 107.800781 200.898438 C 107.519531 200.585938 107.378906 200.023438 107.378906 199.210938 L 107.378906 195.648438 L 106.675781 195.648438 L 106.675781 194.804688 L 107.378906 194.804688 L 107.378906 192.945313 Z M 115.878906 195.054688 L 115.878906 196.070313 C 115.605469 195.894531 115.332031 195.765625 115.050781 195.679688 C 114.777344 195.597656 114.503906 195.554688 114.222656 195.554688 C 113.585938 195.554688 113.097656 195.78125 112.753906 196.226563 C 112.410156 196.664063 112.238281 197.285156 112.238281 198.085938 C 112.238281 198.890625 112.410156 199.515625 112.753906 199.960938 C 113.097656 200.398438 113.585938 200.617188 114.222656 200.617188 C 114.503906 200.617188 114.777344 200.578125 115.050781 200.492188 C 115.332031 200.410156 115.605469 200.285156 115.878906 200.117188 L 115.878906 201.117188 C 115.605469 201.253906 115.324219 201.359375 115.035156 201.429688 C 114.742188 201.5 114.433594 201.539063 114.113281 201.539063 C 113.226563 201.539063 112.519531 201.234375 111.988281 200.617188 C 111.464844 199.992188 111.207031 199.148438 111.207031 198.085938 C 111.207031 197.023438 111.472656 196.1875 112.003906 195.570313 C 112.535156 194.957031 113.257813 194.648438 114.175781 194.648438 C 114.476563 194.648438 114.769531 194.6875 115.050781 194.757813 C 115.339844 194.820313 115.617188 194.921875 115.878906 195.054688 Z M 122.488281 197.398438 L 122.488281 201.367188 L 121.503906 201.367188 L 121.503906 197.445313 C 121.503906 196.820313 121.394531 196.359375 121.175781 196.054688 C 120.957031 195.742188 120.632813 195.585938 120.207031 195.585938 C 119.675781 195.585938 119.257813 195.773438 118.957031 196.148438 C 118.652344 196.515625 118.503906 197.019531 118.503906 197.664063 L 118.503906 201.367188 L 117.535156 201.367188 L 117.535156 192.242188 L 118.503906 192.242188 L 118.503906 195.820313 C 118.730469 195.425781 119.003906 195.132813 119.316406 194.945313 C 119.636719 194.75 120.007813 194.648438 120.425781 194.648438 C 121.089844 194.648438 121.601563 194.882813 121.957031 195.351563 C 122.308594 195.8125 122.488281 196.492188 122.488281 197.398438 Z M 124.410156 194.804688 L 125.378906 194.804688 L 125.378906 201.367188 L 124.410156 201.367188 Z M 124.410156 192.242188 L 125.378906 192.242188 L 125.378906 193.617188 L 124.410156 193.617188 Z M 132.332031 197.398438 L 132.332031 201.367188 L 131.347656 201.367188 L 131.347656 197.445313 C 131.347656 196.820313 131.238281 196.359375 131.019531 196.054688 C 130.800781 195.742188 130.476563 195.585938 130.050781 195.585938 C 129.519531 195.585938 129.101563 195.773438 128.800781 196.148438 C 128.496094 196.515625 128.347656 197.019531 128.347656 197.664063 L 128.347656 201.367188 L 127.378906 201.367188 L 127.378906 194.804688 L 128.347656 194.804688 L 128.347656 195.820313 C 128.574219 195.425781 128.847656 195.132813 129.160156 194.945313 C 129.480469 194.75 129.851563 194.648438 130.269531 194.648438 C 130.933594 194.648438 131.445313 194.882813 131.800781 195.351563 C 132.152344 195.8125 132.332031 196.492188 132.332031 197.398438 Z M 138.019531 194.992188 L 138.019531 196.023438 C 137.746094 195.867188 137.460938 195.753906 137.160156 195.679688 C 136.867188 195.597656 136.566406 195.554688 136.253906 195.554688 C 135.773438 195.554688 135.410156 195.640625 135.160156 195.804688 C 134.917969 195.960938 134.800781 196.207031 134.800781 196.539063 C 134.800781 196.789063 134.886719 196.988281 135.066406 197.132813 C 135.242188 197.269531 135.585938 197.398438 136.097656 197.523438 L 136.425781 197.617188 C 137.121094 197.773438 137.613281 198.003906 137.894531 198.304688 C 138.183594 198.609375 138.332031 199.023438 138.332031 199.554688 C 138.332031 200.171875 138.113281 200.65625 137.675781 201.007813 C 137.246094 201.363281 136.652344 201.539063 135.894531 201.539063 C 135.582031 201.539063 135.253906 201.5 134.910156 201.429688 C 134.566406 201.367188 134.207031 201.269531 133.832031 201.132813 L 133.832031 200.007813 C 134.183594 200.21875 134.535156 200.375 134.878906 200.476563 C 135.230469 200.582031 135.574219 200.632813 135.910156 200.632813 C 136.367188 200.632813 136.722656 200.550781 136.972656 200.382813 C 137.222656 200.207031 137.347656 199.957031 137.347656 199.632813 C 137.347656 199.34375 137.253906 199.117188 137.066406 198.960938 C 136.886719 198.804688 136.503906 198.65625 135.910156 198.507813 L 135.566406 198.429688 C 134.972656 198.285156 134.539063 198.066406 134.269531 197.773438 C 133.996094 197.484375 133.863281 197.085938 133.863281 196.585938 C 133.863281 195.960938 134.058594 195.484375 134.457031 195.148438 C 134.851563 194.816406 135.410156 194.648438 136.128906 194.648438 C 136.492188 194.648438 136.832031 194.679688 137.144531 194.742188 C 137.464844 194.796875 137.757813 194.878906 138.019531 194.992188 Z M 142.175781 195.554688 C 141.652344 195.554688 141.242188 195.785156 140.941406 196.242188 C 140.636719 196.691406 140.488281 197.304688 140.488281 198.085938 C 140.488281 198.878906 140.632813 199.5 140.925781 199.945313 C 141.226563 200.394531 141.644531 200.617188 142.175781 200.617188 C 142.683594 200.617188 143.089844 200.394531 143.394531 199.945313 C 143.695313 199.488281 143.847656 198.867188 143.847656 198.085938 C 143.847656 197.316406 143.695313 196.703125 143.394531 196.242188 C 143.089844 195.785156 142.683594 195.554688 142.175781 195.554688 Z M 142.175781 194.648438 C 143.019531 194.648438 143.679688 194.957031 144.160156 195.570313 C 144.636719 196.175781 144.878906 197.015625 144.878906 198.085938 C 144.878906 199.160156 144.636719 200.003906 144.160156 200.617188 C 143.679688 201.234375 143.019531 201.539063 142.175781 201.539063 C 141.320313 201.539063 140.652344 201.234375 140.175781 200.617188 C 139.695313 200.003906 139.457031 199.160156 139.457031 198.085938 C 139.457031 197.015625 139.695313 196.175781 140.175781 195.570313 C 140.652344 194.957031 141.320313 194.648438 142.175781 194.648438 Z M 151.410156 197.398438 L 151.410156 201.367188 L 150.425781 201.367188 L 150.425781 197.445313 C 150.425781 196.820313 150.316406 196.359375 150.097656 196.054688 C 149.878906 195.742188 149.554688 195.585938 149.128906 195.585938 C 148.597656 195.585938 148.179688 195.773438 147.878906 196.148438 C 147.574219 196.515625 147.425781 197.019531 147.425781 197.664063 L 147.425781 201.367188 L 146.457031 201.367188 L 146.457031 194.804688 L 147.425781 194.804688 L 147.425781 195.820313 C 147.652344 195.425781 147.925781 195.132813 148.238281 194.945313 C 148.558594 194.75 148.929688 194.648438 149.347656 194.648438 C 150.011719 194.648438 150.523438 194.882813 150.878906 195.351563 C 151.230469 195.8125 151.410156 196.492188 151.410156 197.398438 Z M 105.363281 205.289063 L 105.363281 206.539063 C 105.007813 206.164063 104.628906 205.890625 104.222656 205.710938 C 103.816406 205.523438 103.382813 205.429688 102.925781 205.429688 C 102.027344 205.429688 101.339844 205.738281 100.863281 206.351563 C 100.382813 206.96875 100.144531 207.851563 100.144531 209.007813 C 100.144531 210.15625 100.382813 211.035156 100.863281 211.648438 C 101.339844 212.265625 102.027344 212.570313 102.925781 212.570313 C 103.382813 212.570313 103.816406 212.476563 104.222656 212.289063 C 104.628906 212.101563 105.007813 211.828125 105.363281 211.460938 L 105.363281 212.695313 C 104.996094 212.976563 104.601563 213.191406 104.175781 213.335938 C 103.757813 213.46875 103.320313 213.539063 102.863281 213.539063 C 101.664063 213.539063 100.722656 213.132813 100.035156 212.320313 C 99.355469 211.507813 99.019531 210.40625 99.019531 209.007813 C 99.019531 207.601563 99.355469 206.492188 100.035156 205.679688 C 100.722656 204.867188 101.664063 204.460938 102.863281 204.460938 C 103.332031 204.460938 103.773438 204.535156 104.191406 204.679688 C 104.605469 204.816406 104.996094 205.019531 105.363281 205.289063 Z M 110.394531 207.804688 C 110.289063 207.742188 110.167969 207.695313 110.035156 207.664063 C 109.910156 207.625 109.769531 207.601563 109.613281 207.601563 C 109.070313 207.601563 108.648438 207.800781 108.347656 208.195313 C 108.054688 208.59375 107.910156 209.164063 107.910156 209.914063 L 107.910156 213.367188 L 106.941406 213.367188 L 106.941406 206.804688 L 107.910156 206.804688 L 107.910156 207.820313 C 108.117188 207.425781 108.382813 207.132813 108.707031 206.945313 C 109.039063 206.75 109.433594 206.648438 109.894531 206.648438 C 109.964844 206.648438 110.042969 206.65625 110.128906 206.664063 C 110.210938 206.675781 110.300781 206.691406 110.394531 206.710938 Z M 113.707031 207.554688 C 113.183594 207.554688 112.773438 207.785156 112.472656 208.242188 C 112.167969 208.691406 112.019531 209.304688 112.019531 210.085938 C 112.019531 210.878906 112.164063 211.5 112.457031 211.945313 C 112.757813 212.394531 113.175781 212.617188 113.707031 212.617188 C 114.214844 212.617188 114.621094 212.394531 114.925781 211.945313 C 115.226563 211.488281 115.378906 210.867188 115.378906 210.085938 C 115.378906 209.316406 115.226563 208.703125 114.925781 208.242188 C 114.621094 207.785156 114.214844 207.554688 113.707031 207.554688 Z M 113.707031 206.648438 C 114.550781 206.648438 115.210938 206.957031 115.691406 207.570313 C 116.167969 208.175781 116.410156 209.015625 116.410156 210.085938 C 116.410156 211.160156 116.167969 212.003906 115.691406 212.617188 C 115.210938 213.234375 114.550781 213.539063 113.707031 213.539063 C 112.851563 213.539063 112.183594 213.234375 111.707031 212.617188 C 111.226563 212.003906 110.988281 211.160156 110.988281 210.085938 C 110.988281 209.015625 111.226563 208.175781 111.707031 207.570313 C 112.183594 206.957031 112.851563 206.648438 113.707031 206.648438 Z M 121.785156 206.992188 L 121.785156 208.023438 C 121.511719 207.867188 121.226563 207.753906 120.925781 207.679688 C 120.632813 207.597656 120.332031 207.554688 120.019531 207.554688 C 119.539063 207.554688 119.175781 207.640625 118.925781 207.804688 C 118.683594 207.960938 118.566406 208.207031 118.566406 208.539063 C 118.566406 208.789063 118.652344 208.988281 118.832031 209.132813 C 119.007813 209.269531 119.351563 209.398438 119.863281 209.523438 L 120.191406 209.617188 C 120.886719 209.773438 121.378906 210.003906 121.660156 210.304688 C 121.949219 210.609375 122.097656 211.023438 122.097656 211.554688 C 122.097656 212.171875 121.878906 212.65625 121.441406 213.007813 C 121.011719 213.363281 120.417969 213.539063 119.660156 213.539063 C 119.347656 213.539063 119.019531 213.5 118.675781 213.429688 C 118.332031 213.367188 117.972656 213.269531 117.597656 213.132813 L 117.597656 212.007813 C 117.949219 212.21875 118.300781 212.375 118.644531 212.476563 C 118.996094 212.582031 119.339844 212.632813 119.675781 212.632813 C 120.132813 212.632813 120.488281 212.550781 120.738281 212.382813 C 120.988281 212.207031 121.113281 211.957031 121.113281 211.632813 C 121.113281 211.34375 121.019531 211.117188 120.832031 210.960938 C 120.652344 210.804688 120.269531 210.65625 119.675781 210.507813 L 119.332031 210.429688 C 118.738281 210.285156 118.304688 210.066406 118.035156 209.773438 C 117.761719 209.484375 117.628906 209.085938 117.628906 208.585938 C 117.628906 207.960938 117.824219 207.484375 118.222656 207.148438 C 118.617188 206.816406 119.175781 206.648438 119.894531 206.648438 C 120.257813 206.648438 120.597656 206.679688 120.910156 206.742188 C 121.230469 206.796875 121.523438 206.878906 121.785156 206.992188 Z M 127.410156 206.992188 L 127.410156 208.023438 C 127.136719 207.867188 126.851563 207.753906 126.550781 207.679688 C 126.257813 207.597656 125.957031 207.554688 125.644531 207.554688 C 125.164063 207.554688 124.800781 207.640625 124.550781 207.804688 C 124.308594 207.960938 124.191406 208.207031 124.191406 208.539063 C 124.191406 208.789063 124.277344 208.988281 124.457031 209.132813 C 124.632813 209.269531 124.976563 209.398438 125.488281 209.523438 L 125.816406 209.617188 C 126.511719 209.773438 127.003906 210.003906 127.285156 210.304688 C 127.574219 210.609375 127.722656 211.023438 127.722656 211.554688 C 127.722656 212.171875 127.503906 212.65625 127.066406 213.007813 C 126.636719 213.363281 126.042969 213.539063 125.285156 213.539063 C 124.972656 213.539063 124.644531 213.5 124.300781 213.429688 C 123.957031 213.367188 123.597656 213.269531 123.222656 213.132813 L 123.222656 212.007813 C 123.574219 212.21875 123.925781 212.375 124.269531 212.476563 C 124.621094 212.582031 124.964844 212.632813 125.300781 212.632813 C 125.757813 212.632813 126.113281 212.550781 126.363281 212.382813 C 126.613281 212.207031 126.738281 211.957031 126.738281 211.632813 C 126.738281 211.34375 126.644531 211.117188 126.457031 210.960938 C 126.277344 210.804688 125.894531 210.65625 125.300781 210.507813 L 124.957031 210.429688 C 124.363281 210.285156 123.929688 210.066406 123.660156 209.773438 C 123.386719 209.484375 123.253906 209.085938 123.253906 208.585938 C 123.253906 207.960938 123.449219 207.484375 123.847656 207.148438 C 124.242188 206.816406 124.800781 206.648438 125.519531 206.648438 C 125.882813 206.648438 126.222656 206.679688 126.535156 206.742188 C 126.855469 206.796875 127.148438 206.878906 127.410156 206.992188 Z M 129.269531 206.804688 L 130.238281 206.804688 L 130.238281 213.367188 L 129.269531 213.367188 Z M 129.269531 204.242188 L 130.238281 204.242188 L 130.238281 205.617188 L 129.269531 205.617188 Z M 137.191406 209.398438 L 137.191406 213.367188 L 136.207031 213.367188 L 136.207031 209.445313 C 136.207031 208.820313 136.097656 208.359375 135.878906 208.054688 C 135.660156 207.742188 135.335938 207.585938 134.910156 207.585938 C 134.378906 207.585938 133.960938 207.773438 133.660156 208.148438 C 133.355469 208.515625 133.207031 209.019531 133.207031 209.664063 L 133.207031 213.367188 L 132.238281 213.367188 L 132.238281 206.804688 L 133.207031 206.804688 L 133.207031 207.820313 C 133.433594 207.425781 133.707031 207.132813 134.019531 206.945313 C 134.339844 206.75 134.710938 206.648438 135.128906 206.648438 C 135.792969 206.648438 136.304688 206.882813 136.660156 207.351563 C 137.011719 207.8125 137.191406 208.492188 137.191406 209.398438 Z M 143.003906 210.007813 C 143.003906 209.226563 142.855469 208.625 142.566406 208.195313 C 142.273438 207.769531 141.867188 207.554688 141.347656 207.554688 C 140.824219 207.554688 140.417969 207.769531 140.128906 208.195313 C 139.835938 208.625 139.691406 209.226563 139.691406 210.007813 C 139.691406 210.789063 139.835938 211.394531 140.128906 211.820313 C 140.417969 212.25 140.824219 212.460938 141.347656 212.460938 C 141.867188 212.460938 142.273438 212.25 142.566406 211.820313 C 142.855469 211.394531 143.003906 210.789063 143.003906 210.007813 Z M 143.972656 212.554688 C 143.972656 213.667969 143.746094 214.496094 143.300781 215.039063 C 142.851563 215.589844 142.167969 215.867188 141.253906 215.867188 C 140.910156 215.867188 140.585938 215.835938 140.285156 215.773438 C 139.980469 215.71875 139.691406 215.636719 139.410156 215.523438 L 139.410156 214.476563 C 139.691406 214.640625 139.964844 214.765625 140.238281 214.851563 C 140.519531 214.933594 140.804688 214.976563 141.097656 214.976563 C 141.730469 214.976563 142.207031 214.789063 142.519531 214.414063 C 142.839844 214.046875 143.003906 213.492188 143.003906 212.742188 L 143.003906 212.210938 C 142.804688 212.597656 142.550781 212.890625 142.238281 213.085938 C 141.925781 213.273438 141.550781 213.367188 141.113281 213.367188 C 140.382813 213.367188 139.792969 213.0625 139.347656 212.445313 C 138.910156 211.832031 138.691406 211.019531 138.691406 210.007813 C 138.691406 209 138.910156 208.1875 139.347656 207.570313 C 139.792969 206.957031 140.382813 206.648438 141.113281 206.648438 C 141.550781 206.648438 141.925781 206.75 142.238281 206.945313 C 142.550781 207.132813 142.804688 207.421875 143.003906 207.804688 L 143.003906 206.804688 L 143.972656 206.804688 Z M 143.972656 212.554688 "/>
<path style=" stroke:none;fill-rule:evenodd;fill:rgb(0%,0%,0%);fill-opacity:1;" d="M 92.472656 192.617188 L 93.535156 192.617188 L 93.535156 196.210938 L 97.410156 196.210938 L 97.410156 192.617188 L 98.472656 192.617188 L 98.472656 201.367188 L 97.410156 201.367188 L 97.410156 197.195313 L 93.535156 197.195313 L 93.535156 201.367188 L 92.472656 201.367188 Z M 100.457031 198.773438 L 100.457031 194.804688 L 101.425781 194.804688 L 101.425781 198.742188 C 101.425781 199.359375 101.535156 199.820313 101.753906 200.132813 C 101.972656 200.445313 102.292969 200.601563 102.722656 200.601563 C 103.253906 200.601563 103.667969 200.421875 103.972656 200.054688 C 104.273438 199.679688 104.425781 199.171875 104.425781 198.523438 L 104.425781 194.804688 L 105.394531 194.804688 L 105.394531 201.367188 L 104.425781 201.367188 L 104.425781 200.351563 C 104.195313 200.757813 103.925781 201.0625 103.613281 201.257813 C 103.300781 201.445313 102.933594 201.539063 102.519531 201.539063 C 101.839844 201.539063 101.324219 201.304688 100.972656 200.835938 C 100.628906 200.367188 100.457031 199.679688 100.457031 198.773438 Z M 102.894531 194.648438 Z M 108.363281 192.945313 L 108.363281 194.804688 L 110.363281 194.804688 L 110.363281 195.648438 L 108.363281 195.648438 L 108.363281 199.210938 C 108.363281 199.742188 108.425781 200.085938 108.550781 200.242188 C 108.683594 200.390625 108.957031 200.460938 109.363281 200.460938 L 110.363281 200.460938 L 110.363281 201.367188 L 109.363281 201.367188 C 108.613281 201.367188 108.089844 201.210938 107.800781 200.898438 C 107.519531 200.585938 107.378906 200.023438 107.378906 199.210938 L 107.378906 195.648438 L 106.675781 195.648438 L 106.675781 194.804688 L 107.378906 194.804688 L 107.378906 192.945313 Z M 115.878906 195.054688 L 115.878906 196.070313 C 115.605469 195.894531 115.332031 195.765625 115.050781 195.679688 C 114.777344 195.597656 114.503906 195.554688 114.222656 195.554688 C 113.585938 195.554688 113.097656 195.78125 112.753906 196.226563 C 112.410156 196.664063 112.238281 197.285156 112.238281 198.085938 C 112.238281 198.890625 112.410156 199.515625 112.753906 199.960938 C 113.097656 200.398438 113.585938 200.617188 114.222656 200.617188 C 114.503906 200.617188 114.777344 200.578125 115.050781 200.492188 C 115.332031 200.410156 115.605469 200.285156 115.878906 200.117188 L 115.878906 201.117188 C 115.605469 201.253906 115.324219 201.359375 115.035156 201.429688 C 114.742188 201.5 114.433594 201.539063 114.113281 201.539063 C 113.226563 201.539063 112.519531 201.234375 111.988281 200.617188 C 111.464844 199.992188 111.207031 199.148438 111.207031 198.085938 C 111.207031 197.023438 111.472656 196.1875 112.003906 195.570313 C 112.535156 194.957031 113.257813 194.648438 114.175781 194.648438 C 114.476563 194.648438 114.769531 194.6875 115.050781 194.757813 C 115.339844 194.820313 115.617188 194.921875 115.878906 195.054688 Z M 122.488281 197.398438 L 122.488281 201.367188 L 121.503906 201.367188 L 121.503906 197.445313 C 121.503906 196.820313 121.394531 196.359375 121.175781 196.054688 C 120.957031 195.742188 120.632813 195.585938 120.207031 195.585938 C 119.675781 195.585938 119.257813 195.773438 118.957031 196.148438 C 118.652344 196.515625 118.503906 197.019531 118.503906 197.664063 L 118.503906 201.367188 L 117.535156 201.367188 L 117.535156 192.242188 L 118.503906 192.242188 L 118.503906 195.820313 C 118.730469 195.425781 119.003906 195.132813 119.316406 194.945313 C 119.636719 194.75 120.007813 194.648438 120.425781 194.648438 C 121.089844 194.648438 121.601563 194.882813 121.957031 195.351563 C 122.308594 195.8125 122.488281 196.492188 122.488281 197.398438 Z M 124.410156 194.804688 L 125.378906 194.804688 L 125.378906 201.367188 L 124.410156 201.367188 Z M 124.410156 192.242188 L 125.378906 192.242188 L 125.378906 193.617188 L 124.410156 193.617188 Z M 132.332031 197.398438 L 132.332031 201.367188 L 131.347656 201.367188 L 131.347656 197.445313 C 131.347656 196.820313 131.238281 196.359375 131.019531 196.054688 C 130.800781 195.742188 130.476563 195.585938 130.050781 195.585938 C 129.519531 195.585938 129.101563 195.773438 128.800781 196.148438 C 128.496094 196.515625 128.347656 197.019531 128.347656 197.664063 L 128.347656 201.367188 L 127.378906 201.367188 L 127.378906 194.804688 L 128.347656 194.804688 L 128.347656 195.820313 C 128.574219 195.425781 128.847656 195.132813 129.160156 194.945313 C 129.480469 194.75 129.851563 194.648438 130.269531 194.648438 C 130.933594 194.648438 131.445313 194.882813 131.800781 195.351563 C 132.152344 195.8125 132.332031 196.492188 132.332031 197.398438 Z M 138.019531 194.992188 L 138.019531 196.023438 C 137.746094 195.867188 137.460938 195.753906 137.160156 195.679688 C 136.867188 195.597656 136.566406 195.554688 136.253906 195.554688 C 135.773438 195.554688 135.410156 195.640625 135.160156 195.804688 C 134.917969 195.960938 134.800781 196.207031 134.800781 196.539063 C 134.800781 196.789063 134.886719 196.988281 135.066406 197.132813 C 135.242188 197.269531 135.585938 197.398438 136.097656 197.523438 L 136.425781 197.617188 C 137.121094 197.773438 137.613281 198.003906 137.894531 198.304688 C 138.183594 198.609375 138.332031 199.023438 138.332031 199.554688 C 138.332031 200.171875 138.113281 200.65625 137.675781 201.007813 C 137.246094 201.363281 136.652344 201.539063 135.894531 201.539063 C 135.582031 201.539063 135.253906 201.5 134.910156 201.429688 C 134.566406 201.367188 134.207031 201.269531 133.832031 201.132813 L 133.832031 200.007813 C 134.183594 200.21875 134.535156 200.375 134.878906 200.476563 C 135.230469 200.582031 135.574219 200.632813 135.910156 200.632813 C 136.367188 200.632813 136.722656 200.550781 136.972656 200.382813 C 137.222656 200.207031 137.347656 199.957031 137.347656 199.632813 C 137.347656 199.34375 137.253906 199.117188 137.066406 198.960938 C 136.886719 198.804688 136.503906 198.65625 135.910156 198.507813 L 135.566406 198.429688 C 134.972656 198.285156 134.539063 198.066406 134.269531 197.773438 C 133.996094 197.484375 133.863281 197.085938 133.863281 196.585938 C 133.863281 195.960938 134.058594 195.484375 134.457031 195.148438 C 134.851563 194.816406 135.410156 194.648438 136.128906 194.648438 C 136.492188 194.648438 136.832031 194.679688 137.144531 194.742188 C 137.464844 194.796875 137.757813 194.878906 138.019531 194.992188 Z M 142.175781 195.554688 C 141.652344 195.554688 141.242188 195.785156 140.941406 196.242188 C 140.636719 196.691406 140.488281 197.304688 140.488281 198.085938 C 140.488281 198.878906 140.632813 199.5 140.925781 199.945313 C 141.226563 200.394531 141.644531 200.617188 142.175781 200.617188 C 142.683594 200.617188 143.089844 200.394531 143.394531 199.945313 C 143.695313 199.488281 143.847656 198.867188 143.847656 198.085938 C 143.847656 197.316406 143.695313 196.703125 143.394531 196.242188 C 143.089844 195.785156 142.683594 195.554688 142.175781 195.554688 Z M 142.175781 194.648438 C 143.019531 194.648438 143.679688 194.957031 144.160156 195.570313 C 144.636719 196.175781 144.878906 197.015625 144.878906 198.085938 C 144.878906 199.160156 144.636719 200.003906 144.160156 200.617188 C 143.679688 201.234375 143.019531 201.539063 142.175781 201.539063 C 141.320313 201.539063 140.652344 201.234375 140.175781 200.617188 C 139.695313 200.003906 139.457031 199.160156 139.457031 198.085938 C 139.457031 197.015625 139.695313 196.175781 140.175781 195.570313 C 140.652344 194.957031 141.320313 194.648438 142.175781 194.648438 Z M 151.410156 197.398438 L 151.410156 201.367188 L 150.425781 201.367188 L 150.425781 197.445313 C 150.425781 196.820313 150.316406 196.359375 150.097656 196.054688 C 149.878906 195.742188 149.554688 195.585938 149.128906 195.585938 C 148.597656 195.585938 148.179688 195.773438 147.878906 196.148438 C 147.574219 196.515625 147.425781 197.019531 147.425781 197.664063 L 147.425781 201.367188 L 146.457031 201.367188 L 146.457031 194.804688 L 147.425781 194.804688 L 147.425781 195.820313 C 147.652344 195.425781 147.925781 195.132813 148.238281 194.945313 C 148.558594 194.75 148.929688 194.648438 149.347656 194.648438 C 150.011719 194.648438 150.523438 194.882813 150.878906 195.351563 C 151.230469 195.8125 151.410156 196.492188 151.410156 197.398438 Z M 105.363281 205.289063 L 105.363281 206.539063 C 105.007813 206.164063 104.628906 205.890625 104.222656 205.710938 C 103.816406 205.523438 103.382813 205.429688 102.925781 205.429688 C 102.027344 205.429688 101.339844 205.738281 100.863281 206.351563 C 100.382813 206.96875 100.144531 207.851563 100.144531 209.007813 C 100.144531 210.15625 100.382813 211.035156 100.863281 211.648438 C 101.339844 212.265625 102.027344 212.570313 102.925781 212.570313 C 103.382813 212.570313 103.816406 212.476563 104.222656 212.289063 C 104.628906 212.101563 105.007813 211.828125 105.363281 211.460938 L 105.363281 212.695313 C 104.996094 212.976563 104.601563 213.191406 104.175781 213.335938 C 103.757813 213.46875 103.320313 213.539063 102.863281 213.539063 C 101.664063 213.539063 100.722656 213.132813 100.035156 212.320313 C 99.355469 211.507813 99.019531 210.40625 99.019531 209.007813 C 99.019531 207.601563 99.355469 206.492188 100.035156 205.679688 C 100.722656 204.867188 101.664063 204.460938 102.863281 204.460938 C 103.332031 204.460938 103.773438 204.535156 104.191406 204.679688 C 104.605469 204.816406 104.996094 205.019531 105.363281 205.289063 Z M 110.394531 207.804688 C 110.289063 207.742188 110.167969 207.695313 110.035156 207.664063 C 109.910156 207.625 109.769531 207.601563 109.613281 207.601563 C 109.070313 207.601563 108.648438 207.800781 108.347656 208.195313 C 108.054688 208.59375 107.910156 209.164063 107.910156 209.914063 L 107.910156 213.367188 L 106.941406 213.367188 L 106.941406 206.804688 L 107.910156 206.804688 L 107.910156 207.820313 C 108.117188 207.425781 108.382813 207.132813 108.707031 206.945313 C 109.039063 206.75 109.433594 206.648438 109.894531 206.648438 C 109.964844 206.648438 110.042969 206.65625 110.128906 206.664063 C 110.210938 206.675781 110.300781 206.691406 110.394531 206.710938 Z M 113.707031 207.554688 C 113.183594 207.554688 112.773438 207.785156 112.472656 208.242188 C 112.167969 208.691406 112.019531 209.304688 112.019531 210.085938 C 112.019531 210.878906 112.164063 211.5 112.457031 211.945313 C 112.757813 212.394531 113.175781 212.617188 113.707031 212.617188 C 114.214844 212.617188 114.621094 212.394531 114.925781 211.945313 C 115.226563 211.488281 115.378906 210.867188 115.378906 210.085938 C 115.378906 209.316406 115.226563 208.703125 114.925781 208.242188 C 114.621094 207.785156 114.214844 207.554688 113.707031 207.554688 Z M 113.707031 206.648438 C 114.550781 206.648438 115.210938 206.957031 115.691406 207.570313 C 116.167969 208.175781 116.410156 209.015625 116.410156 210.085938 C 116.410156 211.160156 116.167969 212.003906 115.691406 212.617188 C 115.210938 213.234375 114.550781 213.539063 113.707031 213.539063 C 112.851563 213.539063 112.183594 213.234375 111.707031 212.617188 C 111.226563 212.003906 110.988281 211.160156 110.988281 210.085938 C 110.988281 209.015625 111.226563 208.175781 111.707031 207.570313 C 112.183594 206.957031 112.851563 206.648438 113.707031 206.648438 Z M 121.785156 206.992188 L 121.785156 208.023438 C 121.511719 207.867188 121.226563 207.753906 120.925781 207.679688 C 120.632813 207.597656 120.332031 207.554688 120.019531 207.554688 C 119.539063 207.554688 119.175781 207.640625 118.925781 207.804688 C 118.683594 207.960938 118.566406 208.207031 118.566406 208.539063 C 118.566406 208.789063 118.652344 208.988281 118.832031 209.132813 C 119.007813 209.269531 119.351563 209.398438 119.863281 209.523438 L 120.191406 209.617188 C 120.886719 209.773438 121.378906 210.003906 121.660156 210.304688 C 121.949219 210.609375 122.097656 211.023438 122.097656 211.554688 C 122.097656 212.171875 121.878906 212.65625 121.441406 213.007813 C 121.011719 213.363281 120.417969 213.539063 119.660156 213.539063 C 119.347656 213.539063 119.019531 213.5 118.675781 213.429688 C 118.332031 213.367188 117.972656 213.269531 117.597656 213.132813 L 117.597656 212.007813 C 117.949219 212.21875 118.300781 212.375 118.644531 212.476563 C 118.996094 212.582031 119.339844 212.632813 119.675781 212.632813 C 120.132813 212.632813 120.488281 212.550781 120.738281 212.382813 C 120.988281 212.207031 121.113281 211.957031 121.113281 211.632813 C 121.113281 211.34375 121.019531 211.117188 120.832031 210.960938 C 120.652344 210.804688 120.269531 210.65625 119.675781 210.507813 L 119.332031 210.429688 C 118.738281 210.285156 118.304688 210.066406 118.035156 209.773438 C 117.761719 209.484375 117.628906 209.085938 117.628906 208.585938 C 117.628906 207.960938 117.824219 207.484375 118.222656 207.148438 C 118.617188 206.816406 119.175781 206.648438 119.894531 206.648438 C 120.257813 206.648438 120.597656 206.679688 120.910156 206.742188 C 121.230469 206.796875 121.523438 206.878906 121.785156 206.992188 Z M 127.410156 206.992188 L 127.410156 208.023438 C 127.136719 207.867188 126.851563 207.753906 126.550781 207.679688 C 126.257813 207.597656 125.957031 207.554688 125.644531 207.554688 C 125.164063 207.554688 124.800781 207.640625 124.550781 207.804688 C 124.308594 207.960938 124.191406 208.207031 124.191406 208.539063 C 124.191406 208.789063 124.277344 208.988281 124.457031 209.132813 C 124.632813 209.269531 124.976563 209.398438 125.488281 209.523438 L 125.816406 209.617188 C 126.511719 209.773438 127.003906 210.003906 127.285156 210.304688 C 127.574219 210.609375 127.722656 211.023438 127.722656 211.554688 C 127.722656 212.171875 127.503906 212.65625 127.066406 213.007813 C 126.636719 213.363281 126.042969 213.539063 125.285156 213.539063 C 124.972656 213.539063 124.644531 213.5 124.300781 213.429688 C 123.957031 213.367188 123.597656 213.269531 123.222656 213.132813 L 123.222656 212.007813 C 123.574219 212.21875 123.925781 212.375 124.269531 212.476563 C 124.621094 212.582031 124.964844 212.632813 125.300781 212.632813 C 125.757813 212.632813 126.113281 212.550781 126.363281 212.382813 C 126.613281 212.207031 126.738281 211.957031 126.738281 211.632813 C 126.738281 211.34375 126.644531 211.117188 126.457031 210.960938 C 126.277344 210.804688 125.894531 210.65625 125.300781 210.507813 L 124.957031 210.429688 C 124.363281 210.285156 123.929688 210.066406 123.660156 209.773438 C 123.386719 209.484375 123.253906 209.085938 123.253906 208.585938 C 123.253906 207.960938 123.449219 207.484375 123.847656 207.148438 C 124.242188 206.816406 124.800781 206.648438 125.519531 206.648438 C 125.882813 206.648438 126.222656 206.679688 126.535156 206.742188 C 126.855469 206.796875 127.148438 206.878906 127.410156 206.992188 Z M 129.269531 206.804688 L 130.238281 206.804688 L 130.238281 213.367188 L 129.269531 213.367188 Z M 129.269531 204.242188 L 130.238281 204.242188 L 130.238281 205.617188 L 129.269531 205.617188 Z M 137.191406 209.398438 L 137.191406 213.367188 L 136.207031 213.367188 L 136.207031 209.445313 C 136.207031 208.820313 136.097656 208.359375 135.878906 208.054688 C 135.660156 207.742188 135.335938 207.585938 134.910156 207.585938 C 134.378906 207.585938 133.960938 207.773438 133.660156 208.148438 C 133.355469 208.515625 133.207031 209.019531 133.207031 209.664063 L 133.207031 213.367188 L 132.238281 213.367188 L 132.238281 206.804688 L 133.207031 206.804688 L 133.207031 207.820313 C 133.433594 207.425781 133.707031 207.132813 134.019531 206.945313 C 134.339844 206.75 134.710938 206.648438 135.128906 206.648438 C 135.792969 206.648438 136.304688 206.882813 136.660156 207.351563 C 137.011719 207.8125 137.191406 208.492188 137.191406 209.398438 Z M 143.003906 210.007813 C 143.003906 209.226563 142.855469 208.625 142.566406 208.195313 C 142.273438 207.769531 141.867188 207.554688 141.347656 207.554688 C 140.824219 207.554688 140.417969 207.769531 140.128906 208.195313 C 139.835938 208.625 139.691406 209.226563 139.691406 210.007813 C 139.691406 210.789063 139.835938 211.394531 140.128906 211.820313 C 140.417969 212.25 140.824219 212.460938 141.347656 212.460938 C 141.867188 212.460938 142.273438 212.25 142.566406 211.820313 C 142.855469 211.394531 143.003906 210.789063 143.003906 210.007813 Z M 143.972656 212.554688 C 143.972656 213.667969 143.746094 214.496094 143.300781 215.039063 C 142.851563 215.589844 142.167969 215.867188 141.253906 215.867188 C 140.910156 215.867188 140.585938 215.835938 140.285156 215.773438 C 139.980469 215.71875 139.691406 215.636719 139.410156 215.523438 L 139.410156 214.476563 C 139.691406 214.640625 139.964844 214.765625 140.238281 214.851563 C 140.519531 214.933594 140.804688 214.976563 141.097656 214.976563 C 141.730469 214.976563 142.207031 214.789063 142.519531 214.414063 C 142.839844 214.046875 143.003906 213.492188 143.003906 212.742188 L 143.003906 212.210938 C 142.804688 212.597656 142.550781 212.890625 142.238281 213.085938 C 141.925781 213.273438 141.550781 213.367188 141.113281 213.367188 C 140.382813 213.367188 139.792969 213.0625 139.347656 212.445313 C 138.910156 211.832031 138.691406 211.019531 138.691406 210.007813 C 138.691406 209 138.910156 208.1875 139.347656 207.570313 C 139.792969 206.957031 140.382813 206.648438 141.113281 206.648438 C 141.550781 206.648438 141.925781 206.75 142.238281 206.945313 C 142.550781 207.132813 142.804688 207.421875 143.003906 207.804688 L 143.003906 206.804688 L 143.972656 206.804688 Z M 143.972656 212.554688 "/>
</g>
</svg>

