<?xml version="1.0" encoding="UTF-8"?>
<svg xmlns="http://www.w3.org/2000/svg" xmlns:xlink="http://www.w3.org/1999/xlink" width="256pt" height="256pt" viewBox="0 0 256 256" version="1.1">
<g id="surface2">
<rect x="0" y="0" width="256" height="256" style="fill:rgb(60%,70.196078%,80%);fill-opacity:1;stroke:none;"/>
<path style=" stroke:none;fill-rule:evenodd;fill:rgb(94.901961%,93.72549%,91.372549%);fill-opacity:1;" d="M 259 -4 L -4 -4 L 66.941406 -4 L 67.648438 -1.425781 L 69.902344 3.074219 L 72.9375 12.203125 L 74.648438 15.078125 L 77.625 27.664063 L 77.398438 45.574219 L 77.648438 51.328125 L 86.652344 51.765625 L 86.460938 49.578125 L 88.210938 49.390625 L 88.648438 55.140625 L 86.773438 55.265625 L 86.652344 53.078125 L 77.902344 54.078125 L 77.648438 60.078125 L 75.898438 66.828125 L 70.917969 89.226563 L 62.152344 98.578125 L 58.203125 107.355469 L 49.578125 105.289063 L 47.632813 113.527344 L 45.480469 113.324219 L 42.324219 126.773438 L 30.785156 124.277344 L 28.671875 125.714844 L 23.515625 149.230469 L 20.597656 149.128906 L 19.664063 150.515625 L 13.195313 179.371094 L 5.832031 177.625 L 4.960938 180.878906 L 1.835938 180.136719 L 0.75 181.691406 L -1.070313 183.109375 L -3.238281 184.148438 L -4 184.382813 L -4 259 L -4 -4 Z M 259 -4 "/>
<path style=" stroke:none;fill-rule:evenodd;fill:rgb(60%,70.196078%,80%);fill-opacity:1;" d="M -4 259 L 259 259 L 259 -4 L -4 -4 L 66.945313 -4 L 67.652344 -1.425781 L 69.902344 3.074219 L 72.9375 12.203125 L 74.652344 15.078125 L 77.625 27.664063 L 77.398438 45.574219 L 77.648438 51.328125 L 86.652344 51.765625 L 86.460938 49.578125 L 88.210938 49.390625 L 88.648438 55.140625 L 86.773438 55.265625 L 86.652344 53.078125 L 77.902344 54.078125 L 77.648438 60.078125 L 75.898438 66.828125 L 70.917969 89.230469 L 62.152344 98.578125 L 58.203125 107.355469 L 49.578125 105.289063 L 47.632813 113.527344 L 45.480469 113.324219 L 42.328125 126.773438 L 30.789063 124.277344 L 28.671875 125.714844 L 23.515625 149.230469 L 20.601563 149.128906 L 19.664063 150.515625 L 13.195313 179.371094 L 5.832031 177.625 L 4.960938 180.878906 L 1.835938 180.136719 L 0.75 181.691406 L -1.070313 183.109375 L -3.238281 184.148438 Z M -4 259 "/>
<path style="fill:none;stroke-width:1;stroke-linecap:round;stroke-linejoin:round;stroke:rgb(70.196078%,77.647059%,83.137255%);stroke-opacity:1;stroke-miterlimit:10;" d="M -4 259 L 259 259 L 259 -4 L -4 -4 L 66.945313 -4 L 67.652344 -1.425781 L 69.902344 3.074219 L 72.9375 12.203125 L 74.652344 15.078125 L 77.625 27.664063 L 77.398438 45.574219 L 77.648438 51.328125 L 86.652344 51.765625 L 86.460938 49.578125 L 88.210938 49.390625 L 88.648438 55.140625 L 86.773438 55.265625 L 86.652344 53.078125 L 77.902344 54.078125 L 77.648438 60.078125 L 75.898438 66.828125 L 70.917969 89.230469 L 62.152344 98.578125 L 58.203125 107.355469 L 49.578125 105.289063 L 47.632813 113.527344 L 45.480469 113.324219 L 42.328125 126.773438 L 30.789063 124.277344 L 28.671875 125.714844 L 23.515625 149.230469 L 20.601563 149.128906 L 19.664063 150.515625 L 13.195313 179.371094 L 5.832031 177.625 L 4.960938 180.878906 L 1.835938 180.136719 L 0.75 181.691406 L -1.070313 183.109375 L -3.238281 184.148438 L -4 259 "/>
<path style="fill:none;stroke-width:6;stroke-linecap:round;stroke-linejoin:round;stroke:rgb(60%,70.196078%,80%);stroke-opacity:1;stroke-miterlimit:10;" d="M 193.027344 -7 L 149.0625 262 "/>
<path style="fill:none;stroke-width:3;stroke-linecap:round;stroke-linejoin:round;stroke:rgb(100%,100%,100%);stroke-opacity:1;stroke-miterlimit:10;" d="M 160.335938 164.269531 L 160.523438 163.144531 L 164.367188 163.769531 L 165.039063 159.613281 L 161.195313 158.988281 L 161.382813 157.847656 L 170.742188 159.378906 L 170.554688 160.519531 L 166.101563 159.785156 L 165.429688 163.941406 L 169.882813 164.675781 L 169.695313 165.800781 Z M 168.300781 156.820313 L 164.066406 156.132813 L 164.238281 155.101563 L 168.441406 155.789063 C 169.109375 155.894531 169.628906 155.859375 170.003906 155.679688 C 170.371094 155.492188 170.59375 155.171875 170.675781 154.710938 C 170.769531 154.148438 170.644531 153.675781 170.300781 153.289063 C 169.957031 152.894531 169.441406 152.640625 168.753906 152.523438 L 164.769531 151.882813 L 164.941406 150.835938 L 171.957031 151.976563 L 171.785156 153.023438 L 170.707031 152.851563 C 171.089844 153.164063 171.355469 153.507813 171.503906 153.882813 C 171.660156 154.25 171.699219 154.65625 171.628906 155.101563 C 171.511719 155.820313 171.175781 156.328125 170.613281 156.617188 C 170.042969 156.910156 169.269531 156.976563 168.300781 156.820313 Z M 164.332031 153.492188 Z M 167.027344 144.714844 L 163.230469 144.089844 L 163.402344 143.058594 L 173.152344 144.652344 L 172.980469 145.683594 L 171.933594 145.511719 C 172.296875 145.792969 172.558594 146.121094 172.714844 146.496094 C 172.871094 146.863281 172.910156 147.277344 172.839844 147.746094 C 172.714844 148.519531 172.277344 149.089844 171.527344 149.464844 C 170.769531 149.832031 169.835938 149.917969 168.730469 149.730469 C 167.628906 149.554688 166.777344 149.175781 166.183594 148.589844 C 165.582031 147.996094 165.339844 147.316406 165.464844 146.542969 C 165.539063 146.074219 165.707031 145.691406 165.964844 145.386719 C 166.214844 145.085938 166.570313 144.863281 167.027344 144.714844 Z M 168.902344 148.636719 C 169.746094 148.785156 170.441406 148.742188 170.980469 148.511719 C 171.511719 148.273438 171.820313 147.882813 171.902344 147.339844 C 171.996094 146.789063 171.832031 146.316406 171.402344 145.917969 C 170.964844 145.523438 170.324219 145.253906 169.480469 145.105469 C 168.628906 144.972656 167.933594 145.023438 167.402344 145.261719 C 166.871094 145.503906 166.558594 145.898438 166.464844 146.449219 C 166.382813 146.992188 166.554688 147.460938 166.980469 147.855469 C 167.410156 148.242188 168.050781 148.503906 168.902344 148.636719 Z M 167.351563 137.375 L 168.445313 137.546875 C 168.226563 137.828125 168.050781 138.121094 167.914063 138.421875 C 167.78125 138.714844 167.6875 139.03125 167.632813 139.375 C 167.550781 139.886719 167.578125 140.289063 167.710938 140.578125 C 167.835938 140.859375 168.070313 141.03125 168.414063 141.09375 C 168.6875 141.136719 168.914063 141.078125 169.101563 140.921875 C 169.28125 140.757813 169.484375 140.40625 169.710938 139.875 L 169.867188 139.546875 C 170.160156 138.839844 170.492188 138.359375 170.867188 138.109375 C 171.234375 137.851563 171.703125 137.765625 172.273438 137.859375 C 172.929688 137.964844 173.40625 138.277344 173.710938 138.796875 C 174.011719 139.320313 174.101563 139.984375 173.976563 140.796875 C 173.921875 141.132813 173.828125 141.480469 173.695313 141.84375 C 173.558594 142.199219 173.382813 142.5625 173.164063 142.9375 L 171.976563 142.75 C 172.269531 142.398438 172.5 142.046875 172.664063 141.703125 C 172.832031 141.351563 172.945313 140.984375 173.007813 140.609375 C 173.09375 140.132813 173.0625 139.746094 172.914063 139.453125 C 172.769531 139.164063 172.53125 138.992188 172.195313 138.9375 C 171.882813 138.886719 171.628906 138.9375 171.429688 139.09375 C 171.222656 139.25 170.992188 139.636719 170.742188 140.25 L 170.585938 140.59375 C 170.328125 141.21875 170.019531 141.652344 169.664063 141.890625 C 169.3125 142.132813 168.859375 142.203125 168.304688 142.109375 C 167.648438 142.007813 167.175781 141.714844 166.882813 141.234375 C 166.59375 140.746094 166.507813 140.117188 166.632813 139.34375 C 166.695313 138.960938 166.789063 138.605469 166.914063 138.28125 C 167.03125 137.949219 167.175781 137.648438 167.351563 137.375 Z M 168.664063 133.046875 C 168.570313 133.601563 168.742188 134.078125 169.179688 134.484375 C 169.609375 134.882813 170.242188 135.148438 171.085938 135.28125 C 171.929688 135.429688 172.617188 135.382813 173.148438 135.140625 C 173.679688 134.890625 173.992188 134.492188 174.085938 133.9375 C 174.179688 133.386719 174.015625 132.90625 173.585938 132.5 C 173.148438 132.09375 172.515625 131.824219 171.679688 131.6875 C 170.847656 131.554688 170.160156 131.609375 169.617188 131.859375 C 169.078125 132.101563 168.757813 132.496094 168.664063 133.046875 Z M 167.695313 132.890625 C 167.84375 131.984375 168.285156 131.328125 169.023438 130.921875 C 169.753906 130.507813 170.695313 130.390625 171.851563 130.578125 C 173.007813 130.765625 173.867188 131.171875 174.429688 131.796875 C 175 132.421875 175.214844 133.1875 175.070313 134.09375 C 174.921875 135 174.484375 135.65625 173.757813 136.0625 C 173.019531 136.46875 172.070313 136.578125 170.914063 136.390625 C 169.757813 136.203125 168.898438 135.804688 168.335938 135.1875 C 167.765625 134.5625 167.550781 133.796875 167.695313 132.890625 Z M 172.253906 123.5 L 176.488281 124.1875 L 176.316406 125.234375 L 172.128906 124.546875 C 171.453125 124.445313 170.933594 124.480469 170.566406 124.65625 C 170.203125 124.835938 169.984375 125.152344 169.910156 125.609375 C 169.816406 126.171875 169.941406 126.652344 170.285156 127.046875 C 170.628906 127.433594 171.144531 127.683594 171.832031 127.796875 L 175.800781 128.4375 L 175.628906 129.484375 L 168.613281 128.34375 L 168.785156 127.296875 L 169.878906 127.46875 C 169.503906 127.148438 169.238281 126.804688 169.082031 126.4375 C 168.917969 126.074219 168.871094 125.671875 168.941406 125.234375 C 169.066406 124.507813 169.410156 123.996094 169.972656 123.703125 C 170.527344 123.402344 171.285156 123.335938 172.253906 123.5 Z M 173.722656 113.695313 C 173.847656 113.476563 174.082031 113.273438 174.425781 113.085938 C 174.761719 112.898438 175.203125 112.734375 175.753906 112.585938 L 178.503906 111.851563 L 178.316406 113.070313 L 175.722656 113.773438 C 175.058594 113.929688 174.605469 114.128906 174.363281 114.367188 C 174.113281 114.597656 173.953125 114.9375 173.878906 115.382813 L 173.675781 116.632813 L 177.628906 117.273438 L 177.441406 118.398438 L 168.082031 116.867188 L 168.503906 114.304688 C 168.660156 113.335938 169.003906 112.65625 169.535156 112.257813 C 170.058594 111.863281 170.769531 111.738281 171.675781 111.882813 C 172.261719 111.988281 172.730469 112.195313 173.082031 112.507813 C 173.425781 112.8125 173.640625 113.207031 173.722656 113.695313 Z M 169.316406 115.914063 L 172.628906 116.460938 L 172.863281 115.023438 C 172.949219 114.472656 172.875 114.035156 172.644531 113.710938 C 172.40625 113.390625 172.015625 113.179688 171.472656 113.085938 C 170.921875 113.003906 170.484375 113.078125 170.160156 113.304688 C 169.839844 113.535156 169.636719 113.925781 169.550781 114.476563 Z M 171.722656 109.285156 L 171.894531 108.253906 L 178.910156 109.394531 L 178.738281 110.425781 Z M 168.988281 108.832031 L 169.160156 107.800781 L 170.628906 108.035156 L 170.457031 109.066406 Z M 172.136719 106.828125 L 172.308594 105.734375 L 178.527344 104.71875 L 172.949219 101.796875 L 173.136719 100.6875 L 179.761719 104.1875 L 179.527344 105.59375 Z M 177.472656 94.371094 L 178.035156 94.464844 L 177.253906 99.230469 C 178.066406 99.324219 178.714844 99.214844 179.191406 98.902344 C 179.660156 98.582031 179.953125 98.070313 180.066406 97.371094 C 180.128906 96.976563 180.140625 96.585938 180.097656 96.199219 C 180.046875 95.804688 179.9375 95.402344 179.769531 94.996094 L 180.863281 95.167969 C 180.988281 95.574219 181.058594 95.980469 181.082031 96.386719 C 181.113281 96.792969 181.097656 97.195313 181.035156 97.589844 C 180.867188 98.601563 180.414063 99.351563 179.675781 99.839844 C 178.925781 100.320313 177.996094 100.472656 176.878906 100.292969 C 175.722656 100.105469 174.855469 99.679688 174.269531 99.011719 C 173.6875 98.335938 173.472656 97.523438 173.628906 96.574219 C 173.765625 95.722656 174.183594 95.101563 174.878906 94.714844 C 175.566406 94.320313 176.433594 94.207031 177.472656 94.371094 Z M 176.972656 95.371094 C 176.339844 95.269531 175.808594 95.339844 175.378906 95.589844 C 174.941406 95.832031 174.683594 96.207031 174.597656 96.714844 C 174.503906 97.300781 174.613281 97.792969 174.925781 98.199219 C 175.230469 98.605469 175.707031 98.886719 176.363281 99.042969 Z M 176.210938 88.652344 C 176.117188 88.757813 176.046875 88.878906 175.992188 89.011719 C 175.929688 89.148438 175.882813 89.292969 175.851563 89.449219 C 175.757813 90.042969 175.898438 90.535156 176.273438 90.917969 C 176.640625 91.292969 177.21875 91.542969 178.007813 91.667969 L 181.710938 92.277344 L 181.539063 93.324219 L 174.523438 92.183594 L 174.695313 91.136719 L 175.789063 91.308594 C 175.394531 91.019531 175.125 90.683594 174.976563 90.308594 C 174.820313 89.925781 174.785156 89.488281 174.867188 88.996094 C 174.878906 88.925781 174.898438 88.847656 174.929688 88.761719 C 174.953125 88.667969 174.984375 88.566406 175.023438 88.449219 Z M 176.210938 88.652344 "/>
<path style=" stroke:none;fill-rule:evenodd;fill:rgb(41.960784%,58.039216%,69.019608%);fill-opacity:1;" d="M 160.335938 164.269531 L 160.523438 163.144531 L 164.367188 163.769531 L 165.039063 159.613281 L 161.195313 158.988281 L 161.382813 157.847656 L 170.742188 159.378906 L 170.554688 160.519531 L 166.101563 159.785156 L 165.429688 163.941406 L 169.882813 164.675781 L 169.695313 165.800781 Z M 168.300781 156.820313 L 164.066406 156.132813 L 164.238281 155.101563 L 168.441406 155.789063 C 169.109375 155.894531 169.628906 155.859375 170.003906 155.679688 C 170.371094 155.492188 170.59375 155.171875 170.675781 154.710938 C 170.769531 154.148438 170.644531 153.675781 170.300781 153.289063 C 169.957031 152.894531 169.441406 152.640625 168.753906 152.523438 L 164.769531 151.882813 L 164.941406 150.835938 L 171.957031 151.976563 L 171.785156 153.023438 L 170.707031 152.851563 C 171.089844 153.164063 171.355469 153.507813 171.503906 153.882813 C 171.660156 154.25 171.699219 154.65625 171.628906 155.101563 C 171.511719 155.820313 171.175781 156.328125 170.613281 156.617188 C 170.042969 156.910156 169.269531 156.976563 168.300781 156.820313 Z M 164.332031 153.492188 Z M 167.027344 144.714844 L 163.230469 144.089844 L 163.402344 143.058594 L 173.152344 144.652344 L 172.980469 145.683594 L 171.933594 145.511719 C 172.296875 145.792969 172.558594 146.121094 172.714844 146.496094 C 172.871094 146.863281 172.910156 147.277344 172.839844 147.746094 C 172.714844 148.519531 172.277344 149.089844 171.527344 149.464844 C 170.769531 149.832031 169.835938 149.917969 168.730469 149.730469 C 167.628906 149.554688 166.777344 149.175781 166.183594 148.589844 C 165.582031 147.996094 165.339844 147.316406 165.464844 146.542969 C 165.539063 146.074219 165.707031 145.691406 165.964844 145.386719 C 166.214844 145.085938 166.570313 144.863281 167.027344 144.714844 Z M 168.902344 148.636719 C 169.746094 148.785156 170.441406 148.742188 170.980469 148.511719 C 171.511719 148.273438 171.820313 147.882813 171.902344 147.339844 C 171.996094 146.789063 171.832031 146.316406 171.402344 145.917969 C 170.964844 145.523438 170.324219 145.253906 169.480469 145.105469 C 168.628906 144.972656 167.933594 145.023438 167.402344 145.261719 C 166.871094 145.503906 166.558594 145.898438 166.464844 146.449219 C 166.382813 146.992188 166.554688 147.460938 166.980469 147.855469 C 167.410156 148.242188 168.050781 148.503906 168.902344 148.636719 Z M 167.351563 137.375 L 168.445313 137.546875 C 168.226563 137.828125 168.050781 138.121094 167.914063 138.421875 C 167.78125 138.714844 167.6875 139.03125 167.632813 139.375 C 167.550781 139.886719 167.578125 140.289063 167.710938 140.578125 C 167.835938 140.859375 168.070313 141.03125 168.414063 141.09375 C 168.6875 141.136719 168.914063 141.078125 169.101563 140.921875 C 169.28125 140.757813 169.484375 140.40625 169.710938 139.875 L 169.867188 139.546875 C 170.160156 138.839844 170.492188 138.359375 170.867188 138.109375 C 171.234375 137.851563 171.703125 137.765625 172.273438 137.859375 C 172.929688 137.964844 173.40625 138.277344 173.710938 138.796875 C 174.011719 139.320313 174.101563 139.984375 173.976563 140.796875 C 173.921875 141.132813 173.828125 141.480469 173.695313 141.84375 C 173.558594 142.199219 173.382813 142.5625 173.164063 142.9375 L 171.976563 142.75 C 172.269531 142.398438 172.5 142.046875 172.664063 141.703125 C 172.832031 141.351563 172.945313 140.984375 173.007813 140.609375 C 173.09375 140.132813 173.0625 139.746094 172.914063 139.453125 C 172.769531 139.164063 172.53125 138.992188 172.195313 138.9375 C 171.882813 138.886719 171.628906 138.9375 171.429688 139.09375 C 171.222656 139.25 170.992188 139.636719 170.742188 140.25 L 170.585938 140.59375 C 170.328125 141.21875 170.019531 141.652344 169.664063 141.890625 C 169.3125 142.132813 168.859375 142.203125 168.304688 142.109375 C 167.648438 142.007813 167.175781 141.714844 166.882813 141.234375 C 166.59375 140.746094 166.507813 140.117188 166.632813 139.34375 C 166.695313 138.960938 166.789063 138.605469 166.914063 138.28125 C 167.03125 137.949219 167.175781 137.648438 167.351563 137.375 Z M 168.664063 133.046875 C 168.570313 133.601563 168.742188 134.078125 169.179688 134.484375 C 169.609375 134.882813 170.242188 135.148438 171.085938 135.28125 C 171.929688 135.429688 172.617188 135.382813 173.148438 135.140625 C 173.679688 134.890625 173.992188 134.492188 174.085938 133.9375 C 174.179688 133.386719 174.015625 132.90625 173.585938 132.5 C 173.148438 132.09375 172.515625 131.824219 171.679688 131.6875 C 170.847656 131.554688 170.160156 131.609375 169.617188 131.859375 C 169.078125 132.101563 168.757813 132.496094 168.664063 133.046875 Z M 167.695313 132.890625 C 167.84375 131.984375 168.285156 131.328125 169.023438 130.921875 C 169.753906 130.507813 170.695313 130.390625 171.851563 130.578125 C 173.007813 130.765625 173.867188 131.171875 174.429688 131.796875 C 175 132.421875 175.214844 133.1875 175.070313 134.09375 C 174.921875 135 174.484375 135.65625 173.757813 136.0625 C 173.019531 136.46875 172.070313 136.578125 170.914063 136.390625 C 169.757813 136.203125 168.898438 135.804688 168.335938 135.1875 C 167.765625 134.5625 167.550781 133.796875 167.695313 132.890625 Z M 172.253906 123.5 L 176.488281 124.1875 L 176.316406 125.234375 L 172.128906 124.546875 C 171.453125 124.445313 170.933594 124.480469 170.566406 124.65625 C 170.203125 124.835938 169.984375 125.152344 169.910156 125.609375 C 169.816406 126.171875 169.941406 126.652344 170.285156 127.046875 C 170.628906 127.433594 171.144531 127.683594 171.832031 127.796875 L 175.800781 128.4375 L 175.628906 129.484375 L 168.613281 128.34375 L 168.785156 127.296875 L 169.878906 127.46875 C 169.503906 127.148438 169.238281 126.804688 169.082031 126.4375 C 168.917969 126.074219 168.871094 125.671875 168.941406 125.234375 C 169.066406 124.507813 169.410156 123.996094 169.972656 123.703125 C 170.527344 123.402344 171.285156 123.335938 172.253906 123.5 Z M 173.722656 113.695313 C 173.847656 113.476563 174.082031 113.273438 174.425781 113.085938 C 174.761719 112.898438 175.203125 112.734375 175.753906 112.585938 L 178.503906 111.851563 L 178.316406 113.070313 L 175.722656 113.773438 C 175.058594 113.929688 174.605469 114.128906 174.363281 114.367188 C 174.113281 114.597656 173.953125 114.9375 173.878906 115.382813 L 173.675781 116.632813 L 177.628906 117.273438 L 177.441406 118.398438 L 168.082031 116.867188 L 168.503906 114.304688 C 168.660156 113.335938 169.003906 112.65625 169.535156 112.257813 C 170.058594 111.863281 170.769531 111.738281 171.675781 111.882813 C 172.261719 111.988281 172.730469 112.195313 173.082031 112.507813 C 173.425781 112.8125 173.640625 113.207031 173.722656 113.695313 Z M 169.316406 115.914063 L 172.628906 116.460938 L 172.863281 115.023438 C 172.949219 114.472656 172.875 114.035156 172.644531 113.710938 C 172.40625 113.390625 172.015625 113.179688 171.472656 113.085938 C 170.921875 113.003906 170.484375 113.078125 170.160156 113.304688 C 169.839844 113.535156 169.636719 113.925781 169.550781 114.476563 Z M 171.722656 109.285156 L 171.894531 108.253906 L 178.910156 109.394531 L 178.738281 110.425781 Z M 168.988281 108.832031 L 169.160156 107.800781 L 170.628906 108.035156 L 170.457031 109.066406 Z M 172.136719 106.828125 L 172.308594 105.734375 L 178.527344 104.71875 L 172.949219 101.796875 L 173.136719 100.6875 L 179.761719 104.1875 L 179.527344 105.59375 Z M 177.472656 94.371094 L 178.035156 94.464844 L 177.253906 99.230469 C 178.066406 99.324219 178.714844 99.214844 179.191406 98.902344 C 179.660156 98.582031 179.953125 98.070313 180.066406 97.371094 C 180.128906 96.976563 180.140625 96.585938 180.097656 96.199219 C 180.046875 95.804688 179.9375 95.402344 179.769531 94.996094 L 180.863281 95.167969 C 180.988281 95.574219 181.058594 95.980469 181.082031 96.386719 C 181.113281 96.792969 181.097656 97.195313 181.035156 97.589844 C 180.867188 98.601563 180.414063 99.351563 179.675781 99.839844 C 178.925781 100.320313 177.996094 100.472656 176.878906 100.292969 C 175.722656 100.105469 174.855469 99.679688 174.269531 99.011719 C 173.6875 98.335938 173.472656 97.523438 173.628906 96.574219 C 173.765625 95.722656 174.183594 95.101563 174.878906 94.714844 C 175.566406 94.320313 176.433594 94.207031 177.472656 94.371094 Z M 176.972656 95.371094 C 176.339844 95.269531 175.808594 95.339844 175.378906 95.589844 C 174.941406 95.832031 174.683594 96.207031 174.597656 96.714844 C 174.503906 97.300781 174.613281 97.792969 174.925781 98.199219 C 175.230469 98.605469 175.707031 98.886719 176.363281 99.042969 Z M 176.210938 88.652344 C 176.117188 88.757813 176.046875 88.878906 175.992188 89.011719 C 175.929688 89.148438 175.882813 89.292969 175.851563 89.449219 C 175.757813 90.042969 175.898438 90.535156 176.273438 90.917969 C 176.640625 91.292969 177.21875 91.542969 178.007813 91.667969 L 181.710938 92.277344 L 181.539063 93.324219 L 174.523438 92.183594 L 174.695313 91.136719 L 175.789063 91.308594 C 175.394531 91.019531 175.125 90.683594 174.976563 90.308594 C 174.820313 89.925781 174.785156 89.488281 174.867188 88.996094 C 174.878906 88.925781 174.898438 88.847656 174.929688 88.761719 C 174.953125 88.667969 174.984375 88.566406 175.023438 88.449219 Z M 176.210938 88.652344 "/>
</g>
</svg>

